<?xml version="1.0" encoding="utf-8" standalone="no"?>
<!DOCTYPE svg PUBLIC "-//W3C//DTD SVG 1.1//EN"
  "http://www.w3.org/Graphics/SVG/1.1/DTD/svg11.dtd">
<svg height="345.6pt" version="1.1" viewBox="0 0 460.8 345.6" width="460.8pt" xmlns="http://www.w3.org/2000/svg" xmlns:xlink="http://www.w3.org/1999/xlink">
 <metadata>
  <rdf:RDF xmlns:cc="http://creativecommons.org/ns#" xmlns:dc="http://purl.org/dc/elements/1.1/" xmlns:rdf="http://www.w3.org/1999/02/22-rdf-syntax-ns#">
   <cc:Work>
    <dc:type rdf:resource="http://purl.org/dc/dcmitype/StillImage"/>
    <dc:date>2021-04-26T18:35:36.117290</dc:date>
    <dc:format>image/svg+xml</dc:format>
    <dc:creator>
     <cc:Agent>
      <dc:title>Matplotlib v3.4.1, https://matplotlib.org/</dc:title>
     </cc:Agent>
    </dc:creator>
   </cc:Work>
  </rdf:RDF>
 </metadata>
 <defs>
  <style type="text/css">*{stroke-linecap:butt;stroke-linejoin:round;}</style>
 </defs>
 <g id="figure_1">
  <g id="patch_1">
   <path d="M 0 345.6 
L 460.8 345.6 
L 460.8 0 
L 0 0 
z
" style="fill:#ffffff;"/>
  </g>
  <g id="axes_1">
   <g id="patch_2">
    <path d="M 0 293.76 
L 460.8 293.76 
L 460.8 3.456 
L 0 3.456 
z
" style="fill:#ffffff;"/>
   </g>
   <g id="matplotlib.axis_1">
    <g id="xtick_1">
     <g id="line2d_1">
      <path clip-path="url(#pf5b050a906)" d="M 101.67759 293.76 
L 101.67759 3.456 
" style="fill:none;stroke:#b0b0b0;stroke-linecap:square;stroke-width:0.8;"/>
     </g>
     <g id="line2d_2">
      <defs>
       <path d="M 0 0 
L 0 3.5 
" id="m4e9369b5e5" style="stroke:#000000;stroke-width:0.8;"/>
      </defs>
      <g>
       <use style="stroke:#000000;stroke-width:0.8;" x="101.67759" xlink:href="#m4e9369b5e5" y="293.76"/>
      </g>
     </g>
     <g id="text_1">
      <!-- -4 -->
      <g transform="translate(91.707277 315.956875)scale(0.2 -0.2)">
       <defs>
        <path d="M 313 2009 
L 1997 2009 
L 1997 1497 
L 313 1497 
L 313 2009 
z
" id="DejaVuSans-2d" transform="scale(0.015625)"/>
        <path d="M 2419 4116 
L 825 1625 
L 2419 1625 
L 2419 4116 
z
M 2253 4666 
L 3047 4666 
L 3047 1625 
L 3713 1625 
L 3713 1100 
L 3047 1100 
L 3047 0 
L 2419 0 
L 2419 1100 
L 313 1100 
L 313 1709 
L 2253 4666 
z
" id="DejaVuSans-34" transform="scale(0.015625)"/>
       </defs>
       <use xlink:href="#DejaVuSans-2d"/>
       <use x="36.083984" xlink:href="#DejaVuSans-34"/>
      </g>
     </g>
    </g>
    <g id="xtick_2">
     <g id="line2d_3">
      <path clip-path="url(#pf5b050a906)" d="M 203.465145 293.76 
L 203.465145 3.456 
" style="fill:none;stroke:#b0b0b0;stroke-linecap:square;stroke-width:0.8;"/>
     </g>
     <g id="line2d_4">
      <g>
       <use style="stroke:#000000;stroke-width:0.8;" x="203.465145" xlink:href="#m4e9369b5e5" y="293.76"/>
      </g>
     </g>
     <g id="text_2">
      <!-- 0 -->
      <g transform="translate(197.102645 315.956875)scale(0.2 -0.2)">
       <defs>
        <path d="M 2034 4250 
Q 1547 4250 1301 3770 
Q 1056 3291 1056 2328 
Q 1056 1369 1301 889 
Q 1547 409 2034 409 
Q 2525 409 2770 889 
Q 3016 1369 3016 2328 
Q 3016 3291 2770 3770 
Q 2525 4250 2034 4250 
z
M 2034 4750 
Q 2819 4750 3233 4129 
Q 3647 3509 3647 2328 
Q 3647 1150 3233 529 
Q 2819 -91 2034 -91 
Q 1250 -91 836 529 
Q 422 1150 422 2328 
Q 422 3509 836 4129 
Q 1250 4750 2034 4750 
z
" id="DejaVuSans-30" transform="scale(0.015625)"/>
       </defs>
       <use xlink:href="#DejaVuSans-30"/>
      </g>
     </g>
    </g>
    <g id="xtick_3">
     <g id="line2d_5">
      <path clip-path="url(#pf5b050a906)" d="M 305.2527 293.76 
L 305.2527 3.456 
" style="fill:none;stroke:#b0b0b0;stroke-linecap:square;stroke-width:0.8;"/>
     </g>
     <g id="line2d_6">
      <g>
       <use style="stroke:#000000;stroke-width:0.8;" x="305.2527" xlink:href="#m4e9369b5e5" y="293.76"/>
      </g>
     </g>
     <g id="text_3">
      <!-- 4 -->
      <g transform="translate(298.8902 315.956875)scale(0.2 -0.2)">
       <use xlink:href="#DejaVuSans-34"/>
      </g>
     </g>
    </g>
    <g id="xtick_4">
     <g id="line2d_7">
      <path clip-path="url(#pf5b050a906)" d="M 407.040255 293.76 
L 407.040255 3.456 
" style="fill:none;stroke:#b0b0b0;stroke-linecap:square;stroke-width:0.8;"/>
     </g>
     <g id="line2d_8">
      <g>
       <use style="stroke:#000000;stroke-width:0.8;" x="407.040255" xlink:href="#m4e9369b5e5" y="293.76"/>
      </g>
     </g>
     <g id="text_4">
      <!-- 8 -->
      <g transform="translate(400.677755 315.956875)scale(0.2 -0.2)">
       <defs>
        <path d="M 2034 2216 
Q 1584 2216 1326 1975 
Q 1069 1734 1069 1313 
Q 1069 891 1326 650 
Q 1584 409 2034 409 
Q 2484 409 2743 651 
Q 3003 894 3003 1313 
Q 3003 1734 2745 1975 
Q 2488 2216 2034 2216 
z
M 1403 2484 
Q 997 2584 770 2862 
Q 544 3141 544 3541 
Q 544 4100 942 4425 
Q 1341 4750 2034 4750 
Q 2731 4750 3128 4425 
Q 3525 4100 3525 3541 
Q 3525 3141 3298 2862 
Q 3072 2584 2669 2484 
Q 3125 2378 3379 2068 
Q 3634 1759 3634 1313 
Q 3634 634 3220 271 
Q 2806 -91 2034 -91 
Q 1263 -91 848 271 
Q 434 634 434 1313 
Q 434 1759 690 2068 
Q 947 2378 1403 2484 
z
M 1172 3481 
Q 1172 3119 1398 2916 
Q 1625 2713 2034 2713 
Q 2441 2713 2670 2916 
Q 2900 3119 2900 3481 
Q 2900 3844 2670 4047 
Q 2441 4250 2034 4250 
Q 1625 4250 1398 4047 
Q 1172 3844 1172 3481 
z
" id="DejaVuSans-38" transform="scale(0.015625)"/>
       </defs>
       <use xlink:href="#DejaVuSans-38"/>
      </g>
     </g>
    </g>
    <g id="text_5">
     <!-- log10 of Df -->
     <g transform="translate(175.214063 339.313125)scale(0.2 -0.2)">
      <defs>
       <path d="M 603 4863 
L 1178 4863 
L 1178 0 
L 603 0 
L 603 4863 
z
" id="DejaVuSans-6c" transform="scale(0.015625)"/>
       <path d="M 1959 3097 
Q 1497 3097 1228 2736 
Q 959 2375 959 1747 
Q 959 1119 1226 758 
Q 1494 397 1959 397 
Q 2419 397 2687 759 
Q 2956 1122 2956 1747 
Q 2956 2369 2687 2733 
Q 2419 3097 1959 3097 
z
M 1959 3584 
Q 2709 3584 3137 3096 
Q 3566 2609 3566 1747 
Q 3566 888 3137 398 
Q 2709 -91 1959 -91 
Q 1206 -91 779 398 
Q 353 888 353 1747 
Q 353 2609 779 3096 
Q 1206 3584 1959 3584 
z
" id="DejaVuSans-6f" transform="scale(0.015625)"/>
       <path d="M 2906 1791 
Q 2906 2416 2648 2759 
Q 2391 3103 1925 3103 
Q 1463 3103 1205 2759 
Q 947 2416 947 1791 
Q 947 1169 1205 825 
Q 1463 481 1925 481 
Q 2391 481 2648 825 
Q 2906 1169 2906 1791 
z
M 3481 434 
Q 3481 -459 3084 -895 
Q 2688 -1331 1869 -1331 
Q 1566 -1331 1297 -1286 
Q 1028 -1241 775 -1147 
L 775 -588 
Q 1028 -725 1275 -790 
Q 1522 -856 1778 -856 
Q 2344 -856 2625 -561 
Q 2906 -266 2906 331 
L 2906 616 
Q 2728 306 2450 153 
Q 2172 0 1784 0 
Q 1141 0 747 490 
Q 353 981 353 1791 
Q 353 2603 747 3093 
Q 1141 3584 1784 3584 
Q 2172 3584 2450 3431 
Q 2728 3278 2906 2969 
L 2906 3500 
L 3481 3500 
L 3481 434 
z
" id="DejaVuSans-67" transform="scale(0.015625)"/>
       <path d="M 794 531 
L 1825 531 
L 1825 4091 
L 703 3866 
L 703 4441 
L 1819 4666 
L 2450 4666 
L 2450 531 
L 3481 531 
L 3481 0 
L 794 0 
L 794 531 
z
" id="DejaVuSans-31" transform="scale(0.015625)"/>
       <path id="DejaVuSans-20" transform="scale(0.015625)"/>
       <path d="M 2375 4863 
L 2375 4384 
L 1825 4384 
Q 1516 4384 1395 4259 
Q 1275 4134 1275 3809 
L 1275 3500 
L 2222 3500 
L 2222 3053 
L 1275 3053 
L 1275 0 
L 697 0 
L 697 3053 
L 147 3053 
L 147 3500 
L 697 3500 
L 697 3744 
Q 697 4328 969 4595 
Q 1241 4863 1831 4863 
L 2375 4863 
z
" id="DejaVuSans-66" transform="scale(0.015625)"/>
       <path d="M 1259 4147 
L 1259 519 
L 2022 519 
Q 2988 519 3436 956 
Q 3884 1394 3884 2338 
Q 3884 3275 3436 3711 
Q 2988 4147 2022 4147 
L 1259 4147 
z
M 628 4666 
L 1925 4666 
Q 3281 4666 3915 4102 
Q 4550 3538 4550 2338 
Q 4550 1131 3912 565 
Q 3275 0 1925 0 
L 628 0 
L 628 4666 
z
" id="DejaVuSans-44" transform="scale(0.015625)"/>
      </defs>
      <use xlink:href="#DejaVuSans-6c"/>
      <use x="27.783203" xlink:href="#DejaVuSans-6f"/>
      <use x="88.964844" xlink:href="#DejaVuSans-67"/>
      <use x="152.441406" xlink:href="#DejaVuSans-31"/>
      <use x="216.064453" xlink:href="#DejaVuSans-30"/>
      <use x="279.6875" xlink:href="#DejaVuSans-20"/>
      <use x="311.474609" xlink:href="#DejaVuSans-6f"/>
      <use x="372.65625" xlink:href="#DejaVuSans-66"/>
      <use x="407.861328" xlink:href="#DejaVuSans-20"/>
      <use x="439.648438" xlink:href="#DejaVuSans-44"/>
      <use x="516.650391" xlink:href="#DejaVuSans-66"/>
     </g>
    </g>
   </g>
   <g id="matplotlib.axis_2">
    <g id="ytick_1">
     <g id="line2d_9">
      <path clip-path="url(#pf5b050a906)" d="M 0 293.76 
L 460.8 293.76 
" style="fill:none;stroke:#b0b0b0;stroke-linecap:square;stroke-width:0.8;"/>
     </g>
     <g id="line2d_10">
      <defs>
       <path d="M 0 0 
L -3.5 0 
" id="m69212dcc94" style="stroke:#000000;stroke-width:0.8;"/>
      </defs>
      <g>
       <use style="stroke:#000000;stroke-width:0.8;" x="0" xlink:href="#m69212dcc94" y="293.76"/>
      </g>
     </g>
    </g>
    <g id="ytick_2">
     <g id="line2d_11">
      <path clip-path="url(#pf5b050a906)" d="M 0 236.274059 
L 460.8 236.274059 
" style="fill:none;stroke:#b0b0b0;stroke-linecap:square;stroke-width:0.8;"/>
     </g>
     <g id="line2d_12">
      <g>
       <use style="stroke:#000000;stroke-width:0.8;" x="0" xlink:href="#m69212dcc94" y="236.274059"/>
      </g>
     </g>
    </g>
    <g id="ytick_3">
     <g id="line2d_13">
      <path clip-path="url(#pf5b050a906)" d="M 0 178.788119 
L 460.8 178.788119 
" style="fill:none;stroke:#b0b0b0;stroke-linecap:square;stroke-width:0.8;"/>
     </g>
     <g id="line2d_14">
      <g>
       <use style="stroke:#000000;stroke-width:0.8;" x="0" xlink:href="#m69212dcc94" y="178.788119"/>
      </g>
     </g>
    </g>
    <g id="ytick_4">
     <g id="line2d_15">
      <path clip-path="url(#pf5b050a906)" d="M 0 121.302178 
L 460.8 121.302178 
" style="fill:none;stroke:#b0b0b0;stroke-linecap:square;stroke-width:0.8;"/>
     </g>
     <g id="line2d_16">
      <g>
       <use style="stroke:#000000;stroke-width:0.8;" x="0" xlink:href="#m69212dcc94" y="121.302178"/>
      </g>
     </g>
    </g>
    <g id="ytick_5">
     <g id="line2d_17">
      <path clip-path="url(#pf5b050a906)" d="M 0 63.816238 
L 460.8 63.816238 
" style="fill:none;stroke:#b0b0b0;stroke-linecap:square;stroke-width:0.8;"/>
     </g>
     <g id="line2d_18">
      <g>
       <use style="stroke:#000000;stroke-width:0.8;" x="0" xlink:href="#m69212dcc94" y="63.816238"/>
      </g>
     </g>
    </g>
    <g id="ytick_6">
     <g id="line2d_19">
      <path clip-path="url(#pf5b050a906)" d="M 0 6.330297 
L 460.8 6.330297 
" style="fill:none;stroke:#b0b0b0;stroke-linecap:square;stroke-width:0.8;"/>
     </g>
     <g id="line2d_20">
      <g>
       <use style="stroke:#000000;stroke-width:0.8;" x="0" xlink:href="#m69212dcc94" y="6.330297"/>
      </g>
     </g>
    </g>
   </g>
   <g id="line2d_21">
    <path clip-path="url(#pf5b050a906)" d="M -1 94.15604 
L -0.99306 94.15604 
L -0.897452 90.962376 
L -0.877165 90.962376 
L -0.767515 86.171881 
L -0.76005 86.171881 
L -0.66231 80.58297 
L -0.638956 80.58297 
L -0.548501 75.792475 
L -0.476039 75.792475 
L -0.365987 71.00198 
L -0.337493 71.00198 
L -0.229956 68.606733 
L -0.128229 68.606733 
L -0.118252 67.009901 
L 33.589408 67.009901 
L 33.589408 66.211485 
L 61.792133 66.211485 
L 61.792133 65.413069 
L 98.672078 65.413069 
L 98.672078 64.614653 
L 114.020928 64.614653 
L 114.020928 63.816238 
L 123.167267 63.816238 
L 123.167267 63.017822 
L 134.727324 63.017822 
L 134.727324 62.219406 
L 135.309638 62.219406 
L 135.309638 61.42099 
L 148.347912 61.42099 
L 148.347912 60.622574 
L 150.929077 60.622574 
L 150.929077 59.824158 
L 152.55949 59.824158 
L 152.55949 59.025743 
L 153.381788 59.025743 
L 153.381788 58.227327 
L 154.581471 58.227327 
L 154.581471 57.428911 
L 157.144831 57.428911 
L 157.144831 56.630495 
L 157.416718 56.630495 
L 157.416718 55.832079 
L 159.252676 55.832079 
L 159.252676 55.033663 
L 164.918937 55.033663 
L 164.918937 54.235248 
L 166.113445 54.235248 
L 166.113445 53.436832 
L 168.277387 53.436832 
L 168.277387 52.638416 
L 169.089148 52.638416 
L 169.089148 51.84 
L 174.18146 51.84 
L 174.18146 51.041584 
L 175.255658 51.041584 
L 175.255658 50.243168 
L 175.706291 50.243168 
L 175.706291 49.444752 
L 176.284674 49.444752 
L 176.284674 48.646337 
L 177.222716 48.646337 
L 177.222716 47.847921 
L 180.071388 47.847921 
L 180.134629 46.251089 
L 180.542824 46.251089 
L 180.542824 45.452673 
L 181.51525 45.452673 
L 181.51525 44.654257 
L 182.729076 44.654257 
L 182.729076 43.057426 
L 183.38957 43.057426 
L 183.38957 42.25901 
L 183.616275 42.25901 
L 183.616275 41.460594 
L 183.810445 41.460594 
L 183.810445 40.662178 
L 184.644064 40.662178 
L 184.644064 39.863762 
L 184.817654 39.863762 
L 184.817654 39.065347 
L 185.315089 39.065347 
L 185.358473 37.468515 
L 185.619256 37.468515 
L 185.619256 36.670099 
L 185.872138 36.670099 
L 185.973498 35.073267 
L 188.906812 35.073267 
L 188.906812 34.274851 
L 192.377387 34.274851 
L 192.377387 33.476436 
L 193.474646 33.476436 
L 193.474646 32.67802 
L 193.874223 32.67802 
L 193.972609 31.081188 
L 197.818009 31.081188 
L 197.818009 30.282772 
L 200.206152 30.282772 
L 200.236682 28.685941 
L 202.611395 28.685941 
L 202.663103 27.089109 
L 203.413829 27.089109 
L 203.492712 23.09703 
L 203.553518 23.09703 
L 203.553518 22.298614 
L 204.943597 22.298614 
L 204.943597 21.500198 
L 211.071422 21.500198 
L 211.080116 17.508119 
L 211.321854 17.508119 
L 211.321854 16.709703 
L 215.776419 16.709703 
L 215.776419 15.911287 
L 216.638781 15.911287 
L 216.638781 15.112871 
L 218.153063 15.112871 
L 218.153063 14.314455 
L 221.989956 14.314455 
L 222.088254 12.717624 
L 222.394684 12.717624 
L 222.477355 11.120792 
L 223.006876 11.120792 
L 223.006876 10.322376 
L 223.223148 10.322376 
L 223.256842 8.725545 
L 223.909218 8.725545 
L 223.909218 7.927129 
L 224.038787 7.927129 
L 224.092944 6.330297 
L 224.092944 6.330297 
L 460.8 6.330297 
L 460.8 6.330297 
" style="fill:none;stroke:#ff0000;stroke-linecap:square;stroke-width:3;"/>
   </g>
   <g id="line2d_22">
    <path clip-path="url(#pf5b050a906)" d="M 219.57257 293.76 
L 219.57257 292.961584 
L 220.773097 292.961584 
L 220.849986 291.364752 
L 223.463343 291.364752 
L 223.463343 290.566337 
L 226.63472 290.566337 
L 226.688905 288.969505 
L 229.125387 288.969505 
L 229.125387 288.171089 
L 229.757905 288.171089 
L 229.794262 286.574257 
L 230.359469 286.574257 
L 230.359469 285.775842 
L 230.653387 285.775842 
L 230.653387 284.977426 
L 230.859748 284.977426 
L 230.952277 283.380594 
L 231.508637 283.380594 
L 231.508637 282.582178 
L 231.703162 282.582178 
L 231.703162 281.783762 
L 231.986901 281.783762 
L 231.986901 280.985347 
L 232.288802 280.985347 
L 232.397712 279.388515 
L 232.590569 279.388515 
L 232.670341 277.791683 
L 233.037772 277.791683 
L 233.128573 276.194851 
L 233.932925 276.194851 
L 233.932925 275.396436 
L 234.523078 275.396436 
L 234.523078 274.59802 
L 235.259389 274.59802 
L 235.259389 273.799604 
L 235.38314 273.799604 
L 235.38314 273.001188 
L 235.600937 273.001188 
L 235.645545 270.605941 
L 235.716657 270.605941 
L 235.716657 269.807525 
L 236.09178 269.807525 
L 236.09178 269.009109 
L 236.286929 269.009109 
L 236.286929 268.210693 
L 236.479153 268.210693 
L 236.479153 267.412277 
L 236.846916 267.412277 
L 236.949493 265.815446 
L 237.364318 265.815446 
L 237.364318 265.01703 
L 237.510875 265.01703 
L 237.510875 264.218614 
L 237.679837 264.218614 
L 237.679837 263.420198 
L 237.890169 263.420198 
L 237.890169 262.621782 
L 238.385499 262.621782 
L 238.434014 260.226535 
L 238.519839 260.226535 
L 238.519839 259.428119 
L 238.740736 259.428119 
L 238.842202 257.032871 
L 238.904136 257.032871 
L 238.904136 256.234455 
L 239.03495 256.234455 
L 239.040881 254.637624 
L 239.222838 254.637624 
L 239.222838 253.839208 
L 239.461178 253.839208 
L 239.461178 253.040792 
L 240.019968 253.040792 
L 240.019968 252.242376 
L 240.240283 252.242376 
L 240.240283 251.44396 
L 240.875803 251.44396 
L 240.875803 250.645545 
L 241.195234 250.645545 
L 241.252096 249.048713 
L 241.451004 249.048713 
L 241.451004 248.250297 
L 242.255891 248.250297 
L 242.332017 246.653465 
L 242.883816 246.653465 
L 242.883816 245.85505 
L 243.111553 245.85505 
L 243.111553 245.056634 
L 243.614856 245.056634 
L 243.724661 241.86297 
L 243.771628 241.86297 
L 243.771628 241.064554 
L 243.914584 241.064554 
L 243.914584 240.266139 
L 244.067981 240.266139 
L 244.077703 238.669307 
L 244.78958 238.669307 
L 244.78958 237.870891 
L 245.191395 237.870891 
L 245.191395 237.072475 
L 245.550385 237.072475 
L 245.550385 236.274059 
L 245.726934 236.274059 
L 245.834265 233.878812 
L 245.932982 233.878812 
L 246.034637 231.483564 
L 246.191907 231.483564 
L 246.238736 229.886733 
L 246.557494 229.886733 
L 246.561866 228.289901 
L 246.911325 228.289901 
L 246.923623 226.693069 
L 247.049383 226.693069 
L 247.049383 225.894653 
L 247.16282 225.894653 
L 247.27307 224.297822 
L 247.377092 224.297822 
L 247.419519 221.902574 
L 247.649431 221.902574 
L 247.649431 221.104158 
L 247.823557 221.104158 
L 247.823557 220.305743 
L 248.01704 220.305743 
L 248.01704 219.507327 
L 248.181439 219.507327 
L 248.181439 218.708911 
L 248.673273 218.708911 
L 248.719662 217.112079 
L 248.817996 217.112079 
L 248.817996 216.313663 
L 248.95832 216.313663 
L 248.95832 215.515248 
L 249.630624 215.515248 
L 249.630624 214.716832 
L 249.754755 214.716832 
L 249.754755 213.918416 
L 249.867469 213.918416 
L 249.867469 213.12 
L 250.099051 213.12 
L 250.099051 212.321584 
L 250.233354 212.321584 
L 250.270726 209.926337 
L 250.36259 209.926337 
L 250.36259 209.127921 
L 250.499351 209.127921 
L 250.599343 207.531089 
L 250.679727 207.531089 
L 250.781376 205.934257 
L 250.871244 205.934257 
L 250.881343 204.337426 
L 251.026855 204.337426 
L 251.026855 203.53901 
L 251.165897 203.53901 
L 251.247087 201.143762 
L 251.328046 201.143762 
L 251.410766 198.748515 
L 251.520876 198.748515 
L 251.602632 196.353267 
L 251.634822 196.353267 
L 251.634822 195.554851 
L 251.84056 195.554851 
L 251.90606 192.361188 
L 252.113188 192.361188 
L 252.159032 190.764356 
L 252.447615 190.764356 
L 252.45248 189.167525 
L 252.636558 189.167525 
L 252.638495 187.570693 
L 253.076064 187.570693 
L 253.180473 184.37703 
L 253.608548 184.37703 
L 253.608548 183.578614 
L 253.930296 183.578614 
L 253.988694 181.981782 
L 254.134021 181.981782 
L 254.134021 181.183366 
L 254.417688 181.183366 
L 254.444861 179.586535 
L 254.547899 179.586535 
L 254.620144 177.191287 
L 254.740949 177.191287 
L 254.798218 175.594455 
L 254.948865 175.594455 
L 254.978115 173.997624 
L 255.129403 173.997624 
L 255.152173 172.400792 
L 255.607777 172.400792 
L 255.67615 170.80396 
L 255.784558 170.80396 
L 255.784558 170.005545 
L 255.975434 170.005545 
L 255.975434 169.207129 
L 256.171469 169.207129 
L 256.171469 168.408713 
L 256.433222 168.408713 
L 256.525691 166.811881 
L 256.833978 166.811881 
L 256.833978 166.013465 
L 257.523314 166.013465 
L 257.523314 165.21505 
L 257.857376 165.21505 
L 257.857376 164.416634 
L 258.035912 164.416634 
L 258.11393 162.819802 
L 258.445627 162.819802 
L 258.445627 162.021386 
L 258.56884 162.021386 
L 258.652098 160.424554 
L 258.93534 160.424554 
L 258.93534 159.626139 
L 259.399847 159.626139 
L 259.469119 158.029307 
L 259.821767 158.029307 
L 259.821767 157.230891 
L 259.984807 157.230891 
L 260.019236 155.634059 
L 260.309645 155.634059 
L 260.309645 154.835644 
L 260.610938 154.835644 
L 260.645678 153.238812 
L 261.103692 153.238812 
L 261.103692 152.440396 
L 261.612599 152.440396 
L 261.612599 151.64198 
L 261.967526 151.64198 
L 261.995218 150.045149 
L 262.163422 150.045149 
L 262.172532 148.448317 
L 262.476739 148.448317 
L 262.476739 147.649901 
L 263.427345 147.649901 
L 263.427345 146.851485 
L 263.983047 146.851485 
L 263.983047 146.053069 
L 264.845335 146.053069 
L 264.845335 145.254653 
L 265.008743 145.254653 
L 265.008743 144.456238 
L 265.431317 144.456238 
L 265.507581 142.06099 
L 265.814675 142.06099 
L 265.814675 141.262574 
L 265.948093 141.262574 
L 265.989343 139.665743 
L 266.390131 139.665743 
L 266.390131 138.867327 
L 267.01426 138.867327 
L 267.01426 138.068911 
L 267.183443 138.068911 
L 267.200326 136.472079 
L 267.703323 136.472079 
L 267.749644 134.875248 
L 268.003311 134.875248 
L 268.061454 133.278416 
L 268.195648 133.278416 
L 268.195648 132.48 
L 268.420584 132.48 
L 268.420584 131.681584 
L 268.644247 131.681584 
L 268.644247 130.883168 
L 268.934935 130.883168 
L 268.963652 129.286337 
L 269.077461 129.286337 
L 269.077461 128.487921 
L 269.370577 128.487921 
L 269.370577 127.689505 
L 269.562299 127.689505 
L 269.562299 126.891089 
L 270.126384 126.891089 
L 270.126384 126.092673 
L 270.307645 126.092673 
L 270.307645 125.294257 
L 270.439775 125.294257 
L 270.439775 124.495842 
L 270.961262 124.495842 
L 270.991653 122.89901 
L 271.65102 122.89901 
L 271.692366 121.302178 
L 272.696539 121.302178 
L 272.696539 120.503762 
L 272.983431 120.503762 
L 272.983431 119.705347 
L 273.382139 119.705347 
L 273.46108 118.108515 
L 274.27328 118.108515 
L 274.27328 117.310099 
L 275.933237 117.310099 
L 275.933237 116.511683 
L 276.328438 116.511683 
L 276.328438 115.713267 
L 276.610458 115.713267 
L 276.610458 114.914851 
L 277.006164 114.914851 
L 277.049726 113.31802 
L 278.402491 113.31802 
L 278.402491 112.519604 
L 278.55889 112.519604 
L 278.55889 111.721188 
L 278.82019 111.721188 
L 278.875453 110.124356 
L 279.742716 110.124356 
L 279.742716 109.325941 
L 280.687545 109.325941 
L 280.687545 108.527525 
L 281.72922 108.527525 
L 281.72922 107.729109 
L 282.402492 107.729109 
L 282.402492 106.930693 
L 282.736624 106.930693 
L 282.838332 105.333861 
L 284.711018 105.333861 
L 284.711018 104.535446 
L 285.049579 104.535446 
L 285.049579 103.73703 
L 285.559383 103.73703 
L 285.559383 102.938614 
L 286.529421 102.938614 
L 286.529421 102.140198 
L 287.489311 102.140198 
L 287.489311 101.341782 
L 288.935436 101.341782 
L 288.935436 100.543366 
L 289.796255 100.543366 
L 289.796255 99.74495 
L 294.30758 99.74495 
L 294.30758 98.946535 
L 300.634042 98.946535 
L 300.634042 98.148119 
L 302.077146 98.148119 
L 302.077146 97.349703 
L 302.917086 97.349703 
L 302.917086 96.551287 
L 303.381257 96.551287 
L 303.381257 95.752871 
L 306.0438 95.752871 
L 306.0438 94.954455 
L 306.503031 94.954455 
L 306.503031 94.15604 
L 309.255804 94.15604 
L 309.255804 93.357624 
L 309.467502 93.357624 
L 309.467502 92.559208 
L 309.787683 92.559208 
L 309.787683 91.760792 
L 310.480696 91.760792 
L 310.591432 90.16396 
L 310.958948 90.16396 
L 310.996733 88.567129 
L 311.542635 88.567129 
L 311.542635 87.768713 
L 311.758583 87.768713 
L 311.758583 86.970297 
L 312.926755 86.970297 
L 312.926755 86.171881 
L 313.628906 86.171881 
L 313.628906 85.373465 
L 315.81019 85.373465 
L 315.81019 84.57505 
L 316.539657 84.57505 
L 316.539657 83.776634 
L 317.348621 83.776634 
L 317.348621 82.978218 
L 318.321676 82.978218 
L 318.321676 82.179802 
L 318.771141 82.179802 
L 318.771141 81.381386 
L 319.01244 81.381386 
L 319.01244 80.58297 
L 319.238165 80.58297 
L 319.238165 79.784554 
L 321.37673 79.784554 
L 321.37673 78.986139 
L 321.82512 78.986139 
L 321.82512 78.187723 
L 322.206939 78.187723 
L 322.206939 77.389307 
L 322.900354 77.389307 
L 322.95282 75.792475 
L 323.539249 75.792475 
L 323.539249 74.994059 
L 323.897008 74.994059 
L 323.897008 74.195644 
L 324.116138 74.195644 
L 324.116138 73.397228 
L 324.747832 73.397228 
L 324.747832 72.598812 
L 325.651289 72.598812 
L 325.668501 71.00198 
L 325.852842 71.00198 
L 325.852842 70.203564 
L 326.457833 70.203564 
L 326.457833 69.405149 
L 327.634298 69.405149 
L 327.634298 68.606733 
L 328.356778 68.606733 
L 328.411128 66.211485 
L 328.613084 66.211485 
L 328.697292 63.816238 
L 329.138507 63.816238 
L 329.138507 63.017822 
L 330.694519 63.017822 
L 330.694519 62.219406 
L 332.415932 62.219406 
L 332.415932 61.42099 
L 333.179896 61.42099 
L 333.179896 60.622574 
L 333.604823 60.622574 
L 333.604823 59.824158 
L 333.974243 59.824158 
L 333.974243 59.025743 
L 334.864456 59.025743 
L 334.864456 58.227327 
L 336.733367 58.227327 
L 336.733367 57.428911 
L 336.997692 57.428911 
L 336.997692 56.630495 
L 338.98901 56.630495 
L 338.98901 55.832079 
L 339.578138 55.832079 
L 339.578138 55.033663 
L 339.769547 55.033663 
L 339.769547 54.235248 
L 341.539161 54.235248 
L 341.539161 53.436832 
L 342.215414 53.436832 
L 342.215414 52.638416 
L 342.579541 52.638416 
L 342.579541 51.84 
L 344.063506 51.84 
L 344.063506 51.041584 
L 344.922077 51.041584 
L 344.922077 50.243168 
L 345.631811 50.243168 
L 345.631811 49.444752 
L 347.086471 49.444752 
L 347.086471 48.646337 
L 349.824298 48.646337 
L 349.824298 47.847921 
L 350.338863 47.847921 
L 350.338863 47.049505 
L 351.165626 47.049505 
L 351.165626 46.251089 
L 353.850689 46.251089 
L 353.850689 45.452673 
L 356.683361 45.452673 
L 356.683361 44.654257 
L 357.750463 44.654257 
L 357.750463 43.855842 
L 358.49949 43.855842 
L 358.49949 43.057426 
L 361.934935 43.057426 
L 361.934935 42.25901 
L 363.164171 42.25901 
L 363.164171 41.460594 
L 363.350478 41.460594 
L 363.350478 40.662178 
L 363.745632 40.662178 
L 363.807092 39.065347 
L 363.870003 39.065347 
L 363.870003 38.266931 
L 365.584963 38.266931 
L 365.584963 37.468515 
L 367.1492 37.468515 
L 367.224327 35.871683 
L 368.074789 35.871683 
L 368.074789 35.073267 
L 368.330638 35.073267 
L 368.330638 34.274851 
L 368.677129 34.274851 
L 368.677129 33.476436 
L 370.375792 33.476436 
L 370.375792 32.67802 
L 373.412889 32.67802 
L 373.412889 31.879604 
L 374.554449 31.879604 
L 374.554449 31.081188 
L 375.224911 31.081188 
L 375.224911 30.282772 
L 376.162909 30.282772 
L 376.162909 29.484356 
L 376.341903 29.484356 
L 376.341903 28.685941 
L 378.193538 28.685941 
L 378.193538 27.887525 
L 378.452162 27.887525 
L 378.452162 27.089109 
L 379.194363 27.089109 
L 379.24764 25.492277 
L 381.613802 25.492277 
L 381.613802 24.693861 
L 382.318666 24.693861 
L 382.318666 23.895446 
L 382.446987 23.895446 
L 382.446987 23.09703 
L 384.827925 23.09703 
L 384.836618 21.500198 
L 387.151087 21.500198 
L 387.151087 20.701782 
L 387.745124 20.701782 
L 387.745124 19.903366 
L 392.758808 19.903366 
L 392.758808 19.10495 
L 393.563705 19.10495 
L 393.62395 17.508119 
L 394.315153 17.508119 
L 394.315153 16.709703 
L 395.786283 16.709703 
L 395.786283 15.911287 
L 400.632662 15.911287 
L 400.632662 15.112871 
L 402.524082 15.112871 
L 402.524082 14.314455 
L 402.986861 14.314455 
L 402.986861 13.51604 
L 406.006412 13.51604 
L 406.006412 12.717624 
L 407.509281 12.717624 
L 407.509281 11.919208 
L 409.449475 11.919208 
L 409.449475 11.120792 
L 409.713226 11.120792 
L 409.713226 10.322376 
L 411.230208 10.322376 
L 411.230208 9.52396 
L 412.364273 9.52396 
L 412.364273 8.725545 
L 421.036733 8.725545 
L 421.036733 7.927129 
L 428.976629 7.927129 
L 428.976629 7.128713 
L 431.61491 7.128713 
L 431.61491 6.330297 
L 431.61491 6.330297 
L 460.8 6.330297 
L 460.8 6.330297 
" style="fill:none;stroke:#00bfbf;stroke-linecap:square;stroke-width:1.5;"/>
   </g>
   <g id="line2d_23">
    <path clip-path="url(#pf5b050a906)" d="M 216.14738 293.76 
L 216.14738 292.961584 
L 216.678907 292.961584 
L 216.678907 292.163168 
L 219.57257 292.163168 
L 219.57257 291.364752 
L 219.832912 291.364752 
L 219.832912 290.566337 
L 220.485255 290.566337 
L 220.485255 289.767921 
L 220.773097 289.767921 
L 220.849986 288.171089 
L 221.119031 288.171089 
L 221.119031 287.372673 
L 221.659011 287.372673 
L 221.659011 286.574257 
L 222.166386 286.574257 
L 222.166386 285.775842 
L 222.794275 285.775842 
L 222.794275 284.977426 
L 223.463343 284.977426 
L 223.463343 284.17901 
L 224.296501 284.17901 
L 224.296501 283.380594 
L 225.041117 283.380594 
L 225.041117 282.582178 
L 225.651926 282.582178 
L 225.651926 281.783762 
L 226.513753 281.783762 
L 226.513753 280.985347 
L 226.688905 280.985347 
L 226.688905 280.186931 
L 226.902065 280.186931 
L 226.951802 278.590099 
L 227.324155 278.590099 
L 227.388348 276.993267 
L 228.329335 276.993267 
L 228.329335 276.194851 
L 228.883207 276.194851 
L 228.883207 275.396436 
L 229.032603 275.396436 
L 229.032603 274.59802 
L 229.1754 274.59802 
L 229.1754 273.799604 
L 229.358804 273.799604 
L 229.437452 272.202772 
L 229.757905 272.202772 
L 229.757905 271.404356 
L 230.357383 271.404356 
L 230.401698 269.807525 
L 230.574208 269.807525 
L 230.653387 267.412277 
L 230.842218 267.412277 
L 230.952277 265.01703 
L 231.041702 265.01703 
L 231.131867 263.420198 
L 231.508637 263.420198 
L 231.508637 262.621782 
L 231.821349 262.621782 
L 231.821349 261.823366 
L 231.986901 261.823366 
L 232.040223 260.226535 
L 232.177155 260.226535 
L 232.2029 258.629703 
L 232.288802 258.629703 
L 232.288802 257.831287 
L 232.590569 257.831287 
L 232.590569 257.032871 
L 232.714597 257.032871 
L 232.714597 256.234455 
L 233.070052 256.234455 
L 233.070052 255.43604 
L 233.270061 255.43604 
L 233.270061 254.637624 
L 233.427832 254.637624 
L 233.427832 253.839208 
L 233.932925 253.839208 
L 234.042527 251.44396 
L 234.215736 251.44396 
L 234.215736 250.645545 
L 234.389265 250.645545 
L 234.389265 249.847129 
L 234.523078 249.847129 
L 234.523078 249.048713 
L 235.2797 249.048713 
L 235.2797 248.250297 
L 235.600937 248.250297 
L 235.600937 247.451881 
L 235.874743 247.451881 
L 235.88175 245.85505 
L 236.083618 245.85505 
L 236.09178 243.459802 
L 236.285081 243.459802 
L 236.285081 242.661386 
L 236.492138 242.661386 
L 236.492138 241.86297 
L 236.949493 241.86297 
L 236.949493 241.064554 
L 237.359647 241.064554 
L 237.364318 239.467723 
L 237.712355 239.467723 
L 237.720126 237.870891 
L 237.92109 237.870891 
L 237.92109 237.072475 
L 238.160213 237.072475 
L 238.160213 236.274059 
L 238.385499 236.274059 
L 238.429087 234.677228 
L 238.519839 234.677228 
L 238.519839 233.878812 
L 239.040881 233.878812 
L 239.151398 231.483564 
L 239.222838 231.483564 
L 239.222838 230.685149 
L 239.537185 230.685149 
L 239.537185 229.886733 
L 240.220739 229.886733 
L 240.240283 228.289901 
L 240.357994 228.289901 
L 240.357994 227.491485 
L 241.111985 227.491485 
L 241.111985 226.693069 
L 241.451004 226.693069 
L 241.451004 225.894653 
L 241.854739 225.894653 
L 241.854739 225.096238 
L 242.551542 225.096238 
L 242.581625 223.499406 
L 242.883816 223.499406 
L 242.994805 221.902574 
L 243.383395 221.902574 
L 243.383395 221.104158 
L 243.696437 221.104158 
L 243.786165 219.507327 
L 243.811876 219.507327 
L 243.811876 218.708911 
L 243.937372 218.708911 
L 243.937372 217.910495 
L 244.067981 217.910495 
L 244.077703 216.313663 
L 244.656801 216.313663 
L 244.679737 214.716832 
L 244.78958 214.716832 
L 244.79052 213.12 
L 245.191395 213.12 
L 245.191395 212.321584 
L 245.550385 212.321584 
L 245.580759 210.724752 
L 245.697338 210.724752 
L 245.765655 208.329505 
L 245.947092 208.329505 
L 246.034637 205.135842 
L 246.133651 205.135842 
L 246.240515 201.942178 
L 246.472086 201.942178 
L 246.561866 200.345347 
L 246.716106 200.345347 
L 246.716106 199.546931 
L 246.911325 199.546931 
L 246.911325 198.748515 
L 247.049383 198.748515 
L 247.049383 197.950099 
L 247.393387 197.950099 
L 247.419519 196.353267 
L 248.01704 196.353267 
L 248.01704 195.554851 
L 248.181439 195.554851 
L 248.287848 193.95802 
L 248.422684 193.95802 
L 248.422684 193.159604 
L 248.597952 193.159604 
L 248.673273 190.764356 
L 248.719662 190.764356 
L 248.817996 189.167525 
L 248.907068 189.167525 
L 248.972322 187.570693 
L 249.454947 187.570693 
L 249.498258 185.973861 
L 249.70088 185.973861 
L 249.784704 183.578614 
L 249.837898 183.578614 
L 249.867469 181.183366 
L 250.153774 181.183366 
L 250.233354 179.586535 
L 250.277486 179.586535 
L 250.36259 177.989703 
L 250.472047 177.989703 
L 250.530192 175.594455 
L 250.58532 175.594455 
L 250.633944 173.997624 
L 250.764616 173.997624 
L 250.838531 172.400792 
L 250.894668 172.400792 
L 250.894668 171.602376 
L 251.166598 171.602376 
L 251.208903 170.005545 
L 251.328046 170.005545 
L 251.362534 168.408713 
L 251.757121 168.408713 
L 251.84056 166.811881 
L 252.208168 166.811881 
L 252.208168 166.013465 
L 252.638495 166.013465 
L 252.679451 164.416634 
L 253.009783 164.416634 
L 253.01912 162.819802 
L 253.126879 162.819802 
L 253.180473 161.22297 
L 253.452027 161.22297 
L 253.452027 160.424554 
L 253.608548 160.424554 
L 253.608548 159.626139 
L 253.988694 159.626139 
L 254.039536 158.029307 
L 254.444861 158.029307 
L 254.444861 157.230891 
L 254.579856 157.230891 
L 254.604702 154.835644 
L 254.948865 154.835644 
L 255.03833 153.238812 
L 255.475905 153.238812 
L 255.475905 152.440396 
L 255.607777 152.440396 
L 255.67615 150.843564 
L 255.825391 150.843564 
L 255.877458 149.246733 
L 255.972635 149.246733 
L 255.972635 148.448317 
L 256.699678 148.448317 
L 256.729709 146.851485 
L 256.884215 146.851485 
L 256.884215 146.053069 
L 257.989782 146.053069 
L 257.989782 145.254653 
L 258.11393 145.254653 
L 258.11393 144.456238 
L 258.332969 144.456238 
L 258.433782 142.859406 
L 258.445627 142.859406 
L 258.445729 141.262574 
L 258.652098 141.262574 
L 258.652098 140.464158 
L 259.326991 140.464158 
L 259.399847 138.867327 
L 259.469119 138.867327 
L 259.469119 138.068911 
L 259.829772 138.068911 
L 259.829772 137.270495 
L 260.019236 137.270495 
L 260.052483 135.673663 
L 260.182295 135.673663 
L 260.182295 134.875248 
L 260.311234 134.875248 
L 260.420964 133.278416 
L 260.610938 133.278416 
L 260.610938 132.48 
L 260.81235 132.48 
L 260.81235 131.681584 
L 261.887123 131.681584 
L 261.887123 130.883168 
L 262.037194 130.883168 
L 262.037194 130.084752 
L 262.172532 130.084752 
L 262.217115 128.487921 
L 262.294857 128.487921 
L 262.294857 127.689505 
L 262.625149 127.689505 
L 262.700911 126.092673 
L 262.766694 126.092673 
L 262.826133 124.495842 
L 263.802587 124.495842 
L 263.802587 123.697426 
L 263.957499 123.697426 
L 263.957499 122.89901 
L 264.168403 122.89901 
L 264.168403 122.100594 
L 264.845335 122.100594 
L 264.845335 121.302178 
L 265.29813 121.302178 
L 265.29813 120.503762 
L 265.471121 120.503762 
L 265.471121 119.705347 
L 266.06881 119.705347 
L 266.06881 118.906931 
L 266.44097 118.906931 
L 266.44097 118.108515 
L 266.608144 118.108515 
L 266.608144 117.310099 
L 267.556138 117.310099 
L 267.556138 116.511683 
L 267.749644 116.511683 
L 267.749644 115.713267 
L 268.061454 115.713267 
L 268.061454 114.914851 
L 268.934935 114.914851 
L 268.963652 113.31802 
L 269.220539 113.31802 
L 269.220539 112.519604 
L 270.573815 112.519604 
L 270.643947 110.922772 
L 270.836347 110.922772 
L 270.836347 110.124356 
L 271.492505 110.124356 
L 271.492505 109.325941 
L 271.65102 109.325941 
L 271.65102 108.527525 
L 272.159454 108.527525 
L 272.159454 107.729109 
L 272.697335 107.729109 
L 272.697335 106.930693 
L 273.423168 106.930693 
L 273.423168 106.132277 
L 274.27328 106.132277 
L 274.27328 105.333861 
L 274.494235 105.333861 
L 274.494235 104.535446 
L 275.26395 104.535446 
L 275.26395 103.73703 
L 275.38575 103.73703 
L 275.38575 102.938614 
L 275.933237 102.938614 
L 275.933237 102.140198 
L 276.195557 102.140198 
L 276.195557 101.341782 
L 276.328438 101.341782 
L 276.328438 100.543366 
L 276.851205 100.543366 
L 276.851205 99.74495 
L 277.006164 99.74495 
L 277.006164 98.946535 
L 278.020956 98.946535 
L 278.020956 98.148119 
L 278.647342 98.148119 
L 278.647342 97.349703 
L 278.879223 97.349703 
L 278.879223 96.551287 
L 279.792388 96.551287 
L 279.792388 95.752871 
L 283.982314 95.752871 
L 283.982314 94.954455 
L 288.133251 94.954455 
L 288.133251 94.15604 
L 288.935436 94.15604 
L 288.935436 93.357624 
L 292.451422 93.357624 
L 292.451422 92.559208 
L 293.742389 92.559208 
L 293.742389 91.760792 
L 294.30758 91.760792 
L 294.30758 90.962376 
L 295.468333 90.962376 
L 295.468333 90.16396 
L 296.691137 90.16396 
L 296.710516 88.567129 
L 296.97775 88.567129 
L 296.97775 87.768713 
L 297.444243 87.768713 
L 297.444243 86.970297 
L 298.650805 86.970297 
L 298.684933 85.373465 
L 299.330089 85.373465 
L 299.330089 84.57505 
L 300.572163 84.57505 
L 300.634042 82.179802 
L 302.014918 82.179802 
L 302.014918 81.381386 
L 302.231138 81.381386 
L 302.231138 80.58297 
L 305.39115 80.58297 
L 305.39115 79.784554 
L 305.547172 79.784554 
L 305.547172 78.986139 
L 305.797012 78.986139 
L 305.797012 78.187723 
L 306.0438 78.187723 
L 306.0438 77.389307 
L 306.760156 77.389307 
L 306.760156 76.590891 
L 307.081514 76.590891 
L 307.081514 75.792475 
L 307.441299 75.792475 
L 307.441299 74.994059 
L 309.255804 74.994059 
L 309.340847 73.397228 
L 309.467502 73.397228 
L 309.483551 71.800396 
L 309.787683 71.800396 
L 309.828954 70.203564 
L 310.591432 70.203564 
L 310.591432 69.405149 
L 310.958948 69.405149 
L 310.996733 67.808317 
L 312.775682 67.808317 
L 312.775682 67.009901 
L 313.49362 67.009901 
L 313.507827 65.413069 
L 314.511704 65.413069 
L 314.511704 64.614653 
L 314.977737 64.614653 
L 314.977737 63.816238 
L 317.348621 63.816238 
L 317.446496 62.219406 
L 317.753128 62.219406 
L 317.753128 61.42099 
L 317.912044 61.42099 
L 317.912044 60.622574 
L 320.385653 60.622574 
L 320.385653 59.824158 
L 321.243736 59.824158 
L 321.243736 59.025743 
L 323.539249 59.025743 
L 323.539249 58.227327 
L 324.116138 58.227327 
L 324.116138 57.428911 
L 324.909072 57.428911 
L 324.909072 56.630495 
L 325.651289 56.630495 
L 325.651289 55.832079 
L 326.808223 55.832079 
L 326.808223 55.033663 
L 328.411128 55.033663 
L 328.411128 54.235248 
L 329.157028 54.235248 
L 329.157028 53.436832 
L 329.893905 53.436832 
L 329.893905 52.638416 
L 332.415932 52.638416 
L 332.415932 51.84 
L 332.965477 51.84 
L 332.965477 51.041584 
L 333.604823 51.041584 
L 333.604823 50.243168 
L 333.974243 50.243168 
L 333.974243 49.444752 
L 334.323866 49.444752 
L 334.323866 48.646337 
L 336.733367 48.646337 
L 336.733367 47.847921 
L 336.919412 47.847921 
L 336.919412 47.049505 
L 338.406131 47.049505 
L 338.406131 46.251089 
L 338.525163 46.251089 
L 338.525163 45.452673 
L 338.69762 45.452673 
L 338.78374 43.855842 
L 338.98901 43.855842 
L 338.98901 43.057426 
L 340.491787 43.057426 
L 340.491787 42.25901 
L 342.470958 42.25901 
L 342.470958 41.460594 
L 344.922077 41.460594 
L 344.922077 40.662178 
L 345.500582 40.662178 
L 345.500582 39.863762 
L 345.631811 39.863762 
L 345.631811 39.065347 
L 345.758605 39.065347 
L 345.758605 38.266931 
L 347.086471 38.266931 
L 347.086471 37.468515 
L 350.338863 37.468515 
L 350.338863 36.670099 
L 351.854157 36.670099 
L 351.854157 35.871683 
L 352.38316 35.871683 
L 352.38316 35.073267 
L 353.850689 35.073267 
L 353.850689 34.274851 
L 356.013982 34.274851 
L 356.013982 33.476436 
L 356.623994 33.476436 
L 356.623994 32.67802 
L 356.857085 32.67802 
L 356.857085 31.879604 
L 357.748839 31.879604 
L 357.748839 31.081188 
L 358.147988 31.081188 
L 358.147988 30.282772 
L 358.49949 30.282772 
L 358.592379 28.685941 
L 363.350478 28.685941 
L 363.350478 27.887525 
L 363.745632 27.887525 
L 363.745632 27.089109 
L 363.972104 27.089109 
L 363.972104 26.290693 
L 364.306497 26.290693 
L 364.306497 25.492277 
L 365.584963 25.492277 
L 365.584963 24.693861 
L 366.185236 24.693861 
L 366.185236 23.895446 
L 367.1492 23.895446 
L 367.1492 23.09703 
L 368.330638 23.09703 
L 368.330638 22.298614 
L 371.763134 22.298614 
L 371.763134 21.500198 
L 372.556766 21.500198 
L 372.556766 20.701782 
L 373.776928 20.701782 
L 373.776928 19.903366 
L 374.506262 19.903366 
L 374.506262 19.10495 
L 380.540869 19.10495 
L 380.540869 18.306535 
L 382.531916 18.306535 
L 382.531916 17.508119 
L 384.836618 17.508119 
L 384.836618 16.709703 
L 385.461725 16.709703 
L 385.461725 15.911287 
L 389.495943 15.911287 
L 389.495943 15.112871 
L 391.889925 15.112871 
L 391.889925 14.314455 
L 392.547912 14.314455 
L 392.547912 13.51604 
L 393.997848 13.51604 
L 393.997848 12.717624 
L 396.37932 12.717624 
L 396.37932 11.919208 
L 397.348041 11.919208 
L 397.348041 11.120792 
L 398.602219 11.120792 
L 398.602219 10.322376 
L 402.349719 10.322376 
L 402.349719 9.52396 
L 402.524082 9.52396 
L 402.524082 8.725545 
L 407.910786 8.725545 
L 407.910786 7.927129 
L 410.040341 7.927129 
L 410.040341 7.128713 
L 417.563125 7.128713 
L 417.563125 6.330297 
L 417.563125 6.330297 
L 460.8 6.330297 
L 460.8 6.330297 
" style="fill:none;stroke:#bf00bf;stroke-linecap:square;stroke-width:1.5;"/>
   </g>
   <g id="line2d_24">
    <path clip-path="url(#pf5b050a906)" d="M 205.630872 293.76 
L 205.630872 292.961584 
L 213.108032 292.961584 
L 213.108032 292.163168 
L 214.700228 292.163168 
L 214.808816 290.566337 
L 216.100511 290.566337 
L 216.14738 288.969505 
L 218.265306 288.969505 
L 218.265306 288.171089 
L 219.141213 288.171089 
L 219.141213 287.372673 
L 219.439525 287.372673 
L 219.439525 286.574257 
L 219.57257 286.574257 
L 219.57257 285.775842 
L 219.832912 285.775842 
L 219.832912 284.977426 
L 220.485255 284.977426 
L 220.485255 284.17901 
L 220.649446 284.17901 
L 220.649446 283.380594 
L 220.773097 283.380594 
L 220.773097 282.582178 
L 221.119031 282.582178 
L 221.119031 281.783762 
L 221.288258 281.783762 
L 221.288258 280.985347 
L 221.659011 280.985347 
L 221.747787 279.388515 
L 222.166386 279.388515 
L 222.166386 278.590099 
L 222.794275 278.590099 
L 222.794275 277.791683 
L 223.463343 277.791683 
L 223.463343 276.993267 
L 223.906128 276.993267 
L 223.906128 276.194851 
L 224.292239 276.194851 
L 224.296501 274.59802 
L 224.672937 274.59802 
L 224.775858 273.001188 
L 224.9083 273.001188 
L 224.9083 272.202772 
L 225.409996 272.202772 
L 225.409996 271.404356 
L 225.628051 271.404356 
L 225.688698 268.210693 
L 225.843498 268.210693 
L 225.843498 267.412277 
L 226.355047 267.412277 
L 226.355047 266.613861 
L 226.514607 266.613861 
L 226.514607 265.815446 
L 226.688905 265.815446 
L 226.688905 265.01703 
L 226.951802 265.01703 
L 226.995156 263.420198 
L 227.076555 263.420198 
L 227.182011 261.823366 
L 227.228474 261.823366 
L 227.243302 260.226535 
L 227.388348 260.226535 
L 227.388348 259.428119 
L 227.648284 259.428119 
L 227.648284 258.629703 
L 228.09745 258.629703 
L 228.09745 257.831287 
L 228.329335 257.831287 
L 228.329335 257.032871 
L 228.808559 257.032871 
L 228.883207 255.43604 
L 229.032603 255.43604 
L 229.095604 253.839208 
L 229.351568 253.839208 
L 229.437452 251.44396 
L 229.617433 251.44396 
L 229.617433 250.645545 
L 229.757905 250.645545 
L 229.840153 249.048713 
L 230.401698 249.048713 
L 230.401698 248.250297 
L 230.587379 248.250297 
L 230.653387 246.653465 
L 230.731291 246.653465 
L 230.731291 245.85505 
L 231.131867 245.85505 
L 231.131867 245.056634 
L 231.821349 245.056634 
L 231.821349 244.258218 
L 231.986901 244.258218 
L 232.040223 242.661386 
L 232.110925 242.661386 
L 232.15626 241.064554 
L 232.714597 241.064554 
L 232.719034 239.467723 
L 233.070052 239.467723 
L 233.070052 238.669307 
L 233.270061 238.669307 
L 233.270061 237.870891 
L 233.428804 237.870891 
L 233.428804 237.072475 
L 233.932925 237.072475 
L 234.042527 235.475644 
L 234.215736 235.475644 
L 234.215736 234.677228 
L 234.523078 234.677228 
L 234.523078 233.878812 
L 235.071199 233.878812 
L 235.171076 232.28198 
L 235.354132 232.28198 
L 235.409094 230.685149 
L 235.600937 230.685149 
L 235.600937 229.886733 
L 235.874743 229.886733 
L 235.874743 229.088317 
L 236.085809 229.088317 
L 236.09178 227.491485 
L 236.81142 227.491485 
L 236.81142 226.693069 
L 237.182518 226.693069 
L 237.182518 225.894653 
L 237.364318 225.894653 
L 237.364318 225.096238 
L 237.720126 225.096238 
L 237.720126 224.297822 
L 237.92109 224.297822 
L 237.92109 223.499406 
L 238.089853 223.499406 
L 238.160213 221.902574 
L 238.827399 221.902574 
L 238.827399 221.104158 
L 239.020379 221.104158 
L 239.112443 218.708911 
L 239.222838 218.708911 
L 239.228847 217.112079 
L 239.688804 217.112079 
L 239.688804 216.313663 
L 240.079947 216.313663 
L 240.079947 215.515248 
L 240.220739 215.515248 
L 240.229491 213.12 
L 240.357994 213.12 
L 240.357994 212.321584 
L 240.869691 212.321584 
L 240.869691 211.523168 
L 241.111985 211.523168 
L 241.111985 210.724752 
L 241.675139 210.724752 
L 241.675139 209.926337 
L 241.854739 209.926337 
L 241.854739 209.127921 
L 242.320349 209.127921 
L 242.320349 208.329505 
L 242.483802 208.329505 
L 242.551542 206.732673 
L 242.623003 206.732673 
L 242.623003 205.934257 
L 242.883816 205.934257 
L 242.985093 204.337426 
L 243.092596 204.337426 
L 243.092596 203.53901 
L 243.383395 203.53901 
L 243.383395 202.740594 
L 243.533296 202.740594 
L 243.533296 201.942178 
L 243.786165 201.942178 
L 243.814207 200.345347 
L 243.91121 200.345347 
L 243.983398 198.748515 
L 244.451123 198.748515 
L 244.452461 197.151683 
L 244.656801 197.151683 
L 244.659192 195.554851 
L 244.79052 195.554851 
L 244.79052 194.756436 
L 244.958904 194.756436 
L 244.958904 193.95802 
L 245.191395 193.95802 
L 245.218261 192.361188 
L 245.346568 192.361188 
L 245.426103 190.764356 
L 245.550385 190.764356 
L 245.580759 189.167525 
L 245.697338 189.167525 
L 245.697338 188.369109 
L 245.844162 188.369109 
L 245.947092 186.772277 
L 245.958144 186.772277 
L 246.034637 185.175446 
L 246.130068 185.175446 
L 246.240515 181.981782 
L 246.431621 181.981782 
L 246.431621 181.183366 
L 246.554022 181.183366 
L 246.554022 180.38495 
L 246.955286 180.38495 
L 247.049383 177.989703 
L 247.381596 177.989703 
L 247.452847 176.392871 
L 247.545651 176.392871 
L 247.545651 175.594455 
L 248.01704 175.594455 
L 248.01704 174.79604 
L 248.181439 174.79604 
L 248.287848 173.199208 
L 248.428044 173.199208 
L 248.519332 171.602376 
L 248.650024 171.602376 
L 248.719662 170.005545 
L 249.067354 170.005545 
L 249.145336 168.408713 
L 249.184848 168.408713 
L 249.184848 167.610297 
L 249.352775 167.610297 
L 249.454947 166.013465 
L 249.523215 166.013465 
L 249.523215 165.21505 
L 249.693679 165.21505 
L 249.784704 162.819802 
L 249.867469 162.819802 
L 249.967656 161.22297 
L 250.030618 161.22297 
L 250.030618 160.424554 
L 250.1474 160.424554 
L 250.227629 158.029307 
L 250.324813 158.029307 
L 250.344738 156.432475 
L 250.565729 156.432475 
L 250.565729 155.634059 
L 250.710654 155.634059 
L 250.774 153.238812 
L 250.838531 153.238812 
L 250.838531 152.440396 
L 251.10665 152.440396 
L 251.10665 151.64198 
L 251.362534 151.64198 
L 251.362534 150.843564 
L 251.757121 150.843564 
L 251.759509 149.246733 
L 252.772005 149.246733 
L 252.772005 148.448317 
L 253.01912 148.448317 
L 253.01912 147.649901 
L 253.452027 147.649901 
L 253.452027 146.851485 
L 253.632408 146.851485 
L 253.73212 145.254653 
L 253.834797 145.254653 
L 253.935142 143.657822 
L 254.579856 143.657822 
L 254.621266 141.262574 
L 254.833941 141.262574 
L 254.833941 140.464158 
L 254.984086 140.464158 
L 254.984086 139.665743 
L 255.190925 139.665743 
L 255.190925 138.867327 
L 255.366718 138.867327 
L 255.457582 137.270495 
L 255.67615 137.270495 
L 255.67615 136.472079 
L 255.825391 136.472079 
L 255.825391 135.673663 
L 255.972635 135.673663 
L 255.972635 134.875248 
L 256.699678 134.875248 
L 256.770226 131.681584 
L 256.841536 131.681584 
L 256.841536 130.883168 
L 257.544446 130.883168 
L 257.544904 129.286337 
L 257.710487 129.286337 
L 257.710487 128.487921 
L 257.958585 128.487921 
L 257.989782 126.891089 
L 258.11393 126.891089 
L 258.11393 126.092673 
L 258.433782 126.092673 
L 258.445729 123.697426 
L 258.63927 123.697426 
L 258.685908 122.100594 
L 259.399847 122.100594 
L 259.509423 119.705347 
L 259.628578 119.705347 
L 259.628578 118.906931 
L 260.641427 118.906931 
L 260.641427 118.108515 
L 260.81235 118.108515 
L 260.81235 117.310099 
L 262.172532 117.310099 
L 262.172532 116.511683 
L 262.432356 116.511683 
L 262.432356 115.713267 
L 262.690899 115.713267 
L 262.690899 114.914851 
L 263.168586 114.914851 
L 263.168586 114.116436 
L 263.969863 114.116436 
L 263.969863 113.31802 
L 264.168403 113.31802 
L 264.261772 111.721188 
L 264.550321 111.721188 
L 264.550321 110.922772 
L 268.061454 110.922772 
L 268.061454 110.124356 
L 268.934935 110.124356 
L 268.963652 108.527525 
L 269.220539 108.527525 
L 269.220539 107.729109 
L 270.573815 107.729109 
L 270.573815 106.930693 
L 271.65102 106.930693 
L 271.65102 106.132277 
L 271.986176 106.132277 
L 271.986176 105.333861 
L 272.697335 105.333861 
L 272.697335 104.535446 
L 274.27328 104.535446 
L 274.299555 102.938614 
L 274.494235 102.938614 
L 274.494235 102.140198 
L 274.722149 102.140198 
L 274.722149 101.341782 
L 275.26395 101.341782 
L 275.26395 100.543366 
L 275.38575 100.543366 
L 275.38575 99.74495 
L 275.933237 99.74495 
L 275.933237 98.946535 
L 276.195557 98.946535 
L 276.195557 98.148119 
L 276.494812 98.148119 
L 276.494812 97.349703 
L 276.851205 97.349703 
L 276.896753 95.752871 
L 277.006164 95.752871 
L 277.006164 94.954455 
L 277.737432 94.954455 
L 277.737432 94.15604 
L 278.020956 94.15604 
L 278.020956 93.357624 
L 278.879223 93.357624 
L 278.879223 92.559208 
L 280.489499 92.559208 
L 280.489499 91.760792 
L 283.686446 91.760792 
L 283.686446 90.962376 
L 283.982314 90.962376 
L 283.982314 90.16396 
L 286.940263 90.16396 
L 286.940263 89.365545 
L 287.285377 89.365545 
L 287.285377 88.567129 
L 287.492742 88.567129 
L 287.492742 87.768713 
L 287.978265 87.768713 
L 288.077267 86.171881 
L 288.133251 86.171881 
L 288.133251 85.373465 
L 288.935436 85.373465 
L 288.935436 84.57505 
L 289.323499 84.57505 
L 289.323499 83.776634 
L 291.609829 83.776634 
L 291.609829 82.978218 
L 292.207784 82.978218 
L 292.207784 82.179802 
L 292.451422 82.179802 
L 292.451422 81.381386 
L 293.742389 81.381386 
L 293.742389 80.58297 
L 294.30758 80.58297 
L 294.30758 79.784554 
L 295.294798 79.784554 
L 295.294798 78.986139 
L 295.468333 78.986139 
L 295.468333 78.187723 
L 296.691137 78.187723 
L 296.710516 76.590891 
L 296.97775 76.590891 
L 296.97775 75.792475 
L 297.444243 75.792475 
L 297.444243 74.994059 
L 298.058583 74.994059 
L 298.058583 74.195644 
L 298.684933 74.195644 
L 298.684933 73.397228 
L 298.828415 73.397228 
L 298.828415 72.598812 
L 299.084983 72.598812 
L 299.084983 71.800396 
L 299.330089 71.800396 
L 299.330089 71.00198 
L 299.444934 71.00198 
L 299.444934 70.203564 
L 300.572163 70.203564 
L 300.634042 67.808317 
L 301.417627 67.808317 
L 301.417627 67.009901 
L 301.771105 67.009901 
L 301.771105 66.211485 
L 302.014918 66.211485 
L 302.043034 64.614653 
L 302.456505 64.614653 
L 302.456505 63.816238 
L 302.721818 63.816238 
L 302.721818 63.017822 
L 305.051227 63.017822 
L 305.051227 62.219406 
L 305.547172 62.219406 
L 305.547172 61.42099 
L 306.231712 61.42099 
L 306.231712 60.622574 
L 307.04869 60.622574 
L 307.04869 59.824158 
L 308.207764 59.824158 
L 308.207764 59.025743 
L 308.679801 59.025743 
L 308.679801 58.227327 
L 308.8977 58.227327 
L 308.8977 57.428911 
L 309.396845 57.428911 
L 309.396845 56.630495 
L 310.088268 56.630495 
L 310.088268 55.832079 
L 311.691141 55.832079 
L 311.691141 55.033663 
L 312.039965 55.033663 
L 312.039965 54.235248 
L 316.031838 54.235248 
L 316.053745 52.638416 
L 316.794821 52.638416 
L 316.794821 51.84 
L 316.945346 51.84 
L 316.945346 51.041584 
L 317.155929 51.041584 
L 317.155929 50.243168 
L 320.12456 50.243168 
L 320.12456 49.444752 
L 320.385653 49.444752 
L 320.385653 48.646337 
L 320.507246 48.646337 
L 320.507246 47.847921 
L 322.586515 47.847921 
L 322.586515 47.049505 
L 324.526737 47.049505 
L 324.526737 46.251089 
L 324.758297 46.251089 
L 324.758297 45.452673 
L 324.92811 45.452673 
L 324.92811 44.654257 
L 325.651289 44.654257 
L 325.651289 43.855842 
L 325.77048 43.855842 
L 325.77048 43.057426 
L 329.157028 43.057426 
L 329.157028 42.25901 
L 329.72855 42.25901 
L 329.72855 41.460594 
L 330.487496 41.460594 
L 330.487496 40.662178 
L 330.81166 40.662178 
L 330.81166 39.863762 
L 333.171197 39.863762 
L 333.171197 39.065347 
L 333.425688 39.065347 
L 333.425688 38.266931 
L 333.974243 38.266931 
L 333.974243 37.468515 
L 334.323866 37.468515 
L 334.323866 36.670099 
L 335.966449 36.670099 
L 335.966449 35.871683 
L 336.733367 35.871683 
L 336.733367 35.073267 
L 336.919412 35.073267 
L 336.919412 34.274851 
L 337.767351 34.274851 
L 337.767351 33.476436 
L 338.406131 33.476436 
L 338.406131 32.67802 
L 338.583655 32.67802 
L 338.583655 31.879604 
L 338.98901 31.879604 
L 338.98901 31.081188 
L 342.33418 31.081188 
L 342.33418 30.282772 
L 342.470958 30.282772 
L 342.470958 29.484356 
L 344.775107 29.484356 
L 344.805272 27.887525 
L 345.500582 27.887525 
L 345.500582 27.089109 
L 345.631811 27.089109 
L 345.631811 26.290693 
L 349.183438 26.290693 
L 349.183438 25.492277 
L 349.869903 25.492277 
L 349.869903 24.693861 
L 350.330609 24.693861 
L 350.330609 23.895446 
L 356.623994 23.895446 
L 356.623994 23.09703 
L 358.147988 23.09703 
L 358.147988 22.298614 
L 358.590769 22.298614 
L 358.590769 21.500198 
L 360.115689 21.500198 
L 360.115689 20.701782 
L 364.306497 20.701782 
L 364.306497 19.903366 
L 366.582006 19.903366 
L 366.582006 19.10495 
L 369.499729 19.10495 
L 369.499729 18.306535 
L 372.36567 18.306535 
L 372.36567 17.508119 
L 374.153044 17.508119 
L 374.153044 16.709703 
L 375.184245 16.709703 
L 375.184245 15.911287 
L 380.809983 15.911287 
L 380.809983 15.112871 
L 381.936777 15.112871 
L 381.936777 14.314455 
L 384.836618 14.314455 
L 384.836618 13.51604 
L 385.461725 13.51604 
L 385.461725 12.717624 
L 389.495943 12.717624 
L 389.495943 11.919208 
L 391.937956 11.919208 
L 391.937956 11.120792 
L 392.547912 11.120792 
L 392.547912 10.322376 
L 393.997848 10.322376 
L 393.997848 9.52396 
L 395.546128 9.52396 
L 395.546128 8.725545 
L 402.524082 8.725545 
L 402.524082 7.927129 
L 404.582718 7.927129 
L 404.582718 7.128713 
L 410.040341 7.128713 
L 410.040341 6.330297 
L 410.040341 6.330297 
L 460.8 6.330297 
L 460.8 6.330297 
" style="fill:none;stroke:#000000;stroke-linecap:square;stroke-width:1.5;"/>
   </g>
   <g id="line2d_25">
    <path clip-path="url(#pf5b050a906)" d="M 205.630872 293.76 
L 205.630872 292.961584 
L 209.180402 292.961584 
L 209.180402 292.163168 
L 211.757017 292.163168 
L 211.757017 291.364752 
L 213.108032 291.364752 
L 213.157795 289.767921 
L 213.71013 289.767921 
L 213.71013 288.969505 
L 214.339683 288.969505 
L 214.339683 288.171089 
L 214.700228 288.171089 
L 214.808816 286.574257 
L 215.878409 286.574257 
L 215.878409 285.775842 
L 216.14738 285.775842 
L 216.218582 284.17901 
L 216.617407 284.17901 
L 216.617407 283.380594 
L 217.270545 283.380594 
L 217.270545 282.582178 
L 218.205557 282.582178 
L 218.238598 280.985347 
L 218.939693 280.985347 
L 219.020706 279.388515 
L 219.227853 279.388515 
L 219.25788 277.791683 
L 219.439525 277.791683 
L 219.439525 276.993267 
L 219.57257 276.993267 
L 219.57257 276.194851 
L 219.832912 276.194851 
L 219.832912 275.396436 
L 220.485255 275.396436 
L 220.485255 274.59802 
L 220.649446 274.59802 
L 220.649446 273.799604 
L 220.773097 273.799604 
L 220.773097 273.001188 
L 220.912774 273.001188 
L 220.912774 272.202772 
L 221.288258 272.202772 
L 221.379359 269.807525 
L 221.496896 269.807525 
L 221.591321 268.210693 
L 221.659011 268.210693 
L 221.747787 266.613861 
L 221.830928 266.613861 
L 221.885272 265.01703 
L 221.986612 265.01703 
L 221.986612 264.218614 
L 222.166386 264.218614 
L 222.166386 263.420198 
L 222.32894 263.420198 
L 222.365969 261.823366 
L 222.46263 261.823366 
L 222.46263 261.02495 
L 222.794275 261.02495 
L 222.865288 259.428119 
L 222.911996 259.428119 
L 222.997324 257.831287 
L 223.463343 257.831287 
L 223.463343 257.032871 
L 223.600154 257.032871 
L 223.661945 255.43604 
L 223.722039 255.43604 
L 223.826175 253.839208 
L 223.906128 253.839208 
L 223.906128 253.040792 
L 224.141466 253.040792 
L 224.141466 252.242376 
L 224.292239 252.242376 
L 224.292239 251.44396 
L 224.775858 251.44396 
L 224.775858 250.645545 
L 224.9083 250.645545 
L 224.9083 249.847129 
L 225.105374 249.847129 
L 225.105374 249.048713 
L 225.233391 249.048713 
L 225.233391 248.250297 
L 225.409996 248.250297 
L 225.409996 247.451881 
L 225.569802 247.451881 
L 225.569802 246.653465 
L 225.716859 246.653465 
L 225.791583 245.056634 
L 226.025062 245.056634 
L 226.025062 244.258218 
L 226.199259 244.258218 
L 226.21016 242.661386 
L 226.355047 242.661386 
L 226.445402 241.064554 
L 226.514607 241.064554 
L 226.568422 239.467723 
L 226.853644 239.467723 
L 226.853644 238.669307 
L 226.994808 238.669307 
L 227.016291 237.072475 
L 227.205128 237.072475 
L 227.278736 234.677228 
L 227.352787 234.677228 
L 227.389109 233.080396 
L 227.648284 233.080396 
L 227.685595 231.483564 
L 227.976254 231.483564 
L 227.998656 229.886733 
L 228.358696 229.886733 
L 228.358696 229.088317 
L 228.491605 229.088317 
L 228.491605 228.289901 
L 228.660707 228.289901 
L 228.660707 227.491485 
L 229.032603 227.491485 
L 229.032603 226.693069 
L 231.538767 226.693069 
L 231.538767 225.894653 
L 231.821349 225.894653 
L 231.821349 225.096238 
L 232.040223 225.096238 
L 232.062342 223.499406 
L 232.714597 223.499406 
L 232.719034 221.902574 
L 232.865069 221.902574 
L 232.865069 221.104158 
L 233.270061 221.104158 
L 233.270061 220.305743 
L 233.549741 220.305743 
L 233.618338 218.708911 
L 233.932925 218.708911 
L 233.932925 217.910495 
L 234.523078 217.910495 
L 234.523078 217.112079 
L 234.984643 217.112079 
L 235.071199 215.515248 
L 235.103595 215.515248 
L 235.103595 214.716832 
L 235.354132 214.716832 
L 235.365875 213.12 
L 235.600937 213.12 
L 235.649093 211.523168 
L 235.854479 211.523168 
L 235.915872 209.127921 
L 236.085809 209.127921 
L 236.085809 208.329505 
L 236.482048 208.329505 
L 236.482048 207.531089 
L 236.613693 207.531089 
L 236.613693 206.732673 
L 236.740239 206.732673 
L 236.81142 205.135842 
L 237.144565 205.135842 
L 237.182518 203.53901 
L 237.265107 203.53901 
L 237.363253 201.942178 
L 237.558925 201.942178 
L 237.558925 201.143762 
L 237.682852 201.143762 
L 237.720126 199.546931 
L 238.24447 199.546931 
L 238.24447 198.748515 
L 238.443653 198.748515 
L 238.506202 197.151683 
L 238.675597 197.151683 
L 238.681896 195.554851 
L 239.057755 195.554851 
L 239.057755 194.756436 
L 239.214056 194.756436 
L 239.214056 193.95802 
L 239.661366 193.95802 
L 239.688804 192.361188 
L 239.816265 192.361188 
L 239.816265 191.562772 
L 240.228858 191.562772 
L 240.277956 189.965941 
L 240.443989 189.965941 
L 240.443989 189.167525 
L 240.651683 189.167525 
L 240.651683 188.369109 
L 240.977353 188.369109 
L 240.980379 186.772277 
L 241.285829 186.772277 
L 241.285829 185.973861 
L 241.480128 185.973861 
L 241.537698 183.578614 
L 241.824983 183.578614 
L 241.824983 182.780198 
L 242.03808 182.780198 
L 242.03808 181.981782 
L 242.151774 181.981782 
L 242.218128 180.38495 
L 242.439621 180.38495 
L 242.531276 178.788119 
L 242.623003 178.788119 
L 242.701491 177.191287 
L 242.796104 177.191287 
L 242.796104 176.392871 
L 243.182186 176.392871 
L 243.182186 175.594455 
L 243.338794 175.594455 
L 243.338794 174.79604 
L 243.652342 174.79604 
L 243.652342 173.997624 
L 243.786165 173.997624 
L 243.786165 173.199208 
L 243.91121 173.199208 
L 244.015831 171.602376 
L 244.045445 171.602376 
L 244.096107 170.005545 
L 244.452461 170.005545 
L 244.452461 169.207129 
L 244.656801 169.207129 
L 244.656801 168.408713 
L 244.79052 168.408713 
L 244.890252 165.21505 
L 244.958904 165.21505 
L 244.958904 164.416634 
L 245.218261 164.416634 
L 245.218261 163.618218 
L 245.426103 163.618218 
L 245.426103 162.819802 
L 245.958144 162.819802 
L 245.958144 162.021386 
L 246.209716 162.021386 
L 246.209716 161.22297 
L 246.325766 161.22297 
L 246.3647 159.626139 
L 246.476232 159.626139 
L 246.476232 158.827723 
L 247.013811 158.827723 
L 247.097579 157.230891 
L 247.260109 157.230891 
L 247.325845 155.634059 
L 247.381596 155.634059 
L 247.381596 154.835644 
L 247.814805 154.835644 
L 247.814805 154.037228 
L 247.971919 154.037228 
L 247.971919 153.238812 
L 248.253848 153.238812 
L 248.253848 152.440396 
L 248.365593 152.440396 
L 248.365593 151.64198 
L 248.519332 151.64198 
L 248.577183 150.045149 
L 248.650024 150.045149 
L 248.699846 148.448317 
L 248.834709 148.448317 
L 248.834709 147.649901 
L 249.065742 147.649901 
L 249.171035 144.456238 
L 249.617425 144.456238 
L 249.719407 142.06099 
L 249.754755 142.06099 
L 249.845067 139.665743 
L 249.879334 139.665743 
L 249.885208 138.068911 
L 249.99394 138.068911 
L 249.99394 137.270495 
L 250.153774 137.270495 
L 250.153774 136.472079 
L 250.555987 136.472079 
L 250.565729 134.875248 
L 250.763026 134.875248 
L 250.763026 134.076832 
L 251.274222 134.076832 
L 251.367365 131.681584 
L 251.491167 131.681584 
L 251.540474 130.084752 
L 251.757121 130.084752 
L 251.804752 128.487921 
L 251.948133 128.487921 
L 251.994525 126.891089 
L 252.275164 126.891089 
L 252.275164 126.092673 
L 252.47687 126.092673 
L 252.47687 125.294257 
L 252.597693 125.294257 
L 252.597693 124.495842 
L 253.030978 124.495842 
L 253.07812 122.89901 
L 253.310046 122.89901 
L 253.310046 122.100594 
L 253.489011 122.100594 
L 253.56716 118.906931 
L 253.73212 118.906931 
L 253.768668 117.310099 
L 253.908706 117.310099 
L 253.969425 115.713267 
L 254.214645 115.713267 
L 254.214645 114.914851 
L 254.604702 114.914851 
L 254.621266 113.31802 
L 255.147344 113.31802 
L 255.207567 111.721188 
L 255.382634 111.721188 
L 255.382634 110.922772 
L 255.67615 110.922772 
L 255.67615 110.124356 
L 256.432317 110.124356 
L 256.432317 109.325941 
L 256.722257 109.325941 
L 256.761878 107.729109 
L 257.592538 107.729109 
L 257.592538 106.930693 
L 258.579817 106.930693 
L 258.579817 106.132277 
L 258.968374 106.132277 
L 259.002328 104.535446 
L 259.847865 104.535446 
L 259.847865 103.73703 
L 259.965227 103.73703 
L 259.965227 102.938614 
L 261.068939 102.938614 
L 261.068939 102.140198 
L 262.457425 102.140198 
L 262.457425 101.341782 
L 264.504997 101.341782 
L 264.553711 99.74495 
L 265.666896 99.74495 
L 265.666896 98.946535 
L 266.748909 98.946535 
L 266.748909 98.148119 
L 267.546517 98.148119 
L 267.65558 96.551287 
L 268.061454 96.551287 
L 268.061454 95.752871 
L 268.450695 95.752871 
L 268.450695 94.954455 
L 268.963652 94.954455 
L 268.963652 94.15604 
L 269.220539 94.15604 
L 269.220539 93.357624 
L 269.895141 93.357624 
L 269.949167 91.760792 
L 270.068468 91.760792 
L 270.068468 90.962376 
L 270.352517 90.962376 
L 270.35649 89.365545 
L 271.65102 89.365545 
L 271.65102 88.567129 
L 271.83721 88.567129 
L 271.83721 87.768713 
L 272.270467 87.768713 
L 272.375273 86.171881 
L 272.709503 86.171881 
L 272.709503 85.373465 
L 273.613021 85.373465 
L 273.613021 84.57505 
L 274.089329 84.57505 
L 274.089329 83.776634 
L 274.299555 83.776634 
L 274.299555 82.978218 
L 275.26395 82.978218 
L 275.26395 82.179802 
L 275.38575 82.179802 
L 275.38575 81.381386 
L 276.46302 81.381386 
L 276.46302 80.58297 
L 276.851205 80.58297 
L 276.896753 78.986139 
L 279.090947 78.986139 
L 279.090947 78.187723 
L 280.489499 78.187723 
L 280.489499 77.389307 
L 280.877191 77.389307 
L 280.877191 76.590891 
L 281.280546 76.590891 
L 281.280546 75.792475 
L 282.078695 75.792475 
L 282.078695 74.994059 
L 282.618475 74.994059 
L 282.618475 74.195644 
L 283.320803 74.195644 
L 283.320803 73.397228 
L 283.982314 73.397228 
L 283.982314 72.598812 
L 284.581575 72.598812 
L 284.581575 71.800396 
L 284.955909 71.800396 
L 284.955909 71.00198 
L 286.091791 71.00198 
L 286.091791 70.203564 
L 286.592601 70.203564 
L 286.592601 69.405149 
L 287.22616 69.405149 
L 287.285377 67.009901 
L 287.480844 67.009901 
L 287.492742 65.413069 
L 287.629145 65.413069 
L 287.629145 64.614653 
L 287.778928 64.614653 
L 287.778928 63.816238 
L 287.959137 63.816238 
L 287.959137 63.017822 
L 288.077267 63.017822 
L 288.077267 62.219406 
L 289.438408 62.219406 
L 289.466909 60.622574 
L 289.983009 60.622574 
L 289.983009 59.824158 
L 292.224214 59.824158 
L 292.224214 59.025743 
L 292.479268 59.025743 
L 292.479268 58.227327 
L 292.788986 58.227327 
L 292.788986 57.428911 
L 293.874265 57.428911 
L 293.874265 56.630495 
L 296.458846 56.630495 
L 296.512031 55.033663 
L 297.043061 55.033663 
L 297.043061 54.235248 
L 297.181853 54.235248 
L 297.181853 53.436832 
L 297.356447 53.436832 
L 297.356447 52.638416 
L 297.855299 52.638416 
L 297.855299 51.84 
L 298.343603 51.84 
L 298.343603 51.041584 
L 300.245541 51.041584 
L 300.245541 50.243168 
L 300.858989 50.243168 
L 300.858989 49.444752 
L 303.81949 49.444752 
L 303.81949 48.646337 
L 305.019271 48.646337 
L 305.019271 47.847921 
L 305.547172 47.847921 
L 305.547172 47.049505 
L 306.450569 47.049505 
L 306.450569 46.251089 
L 310.058302 46.251089 
L 310.088268 44.654257 
L 310.835929 44.654257 
L 310.835929 43.855842 
L 311.144547 43.855842 
L 311.144547 43.057426 
L 313.165581 43.057426 
L 313.165581 42.25901 
L 314.699604 42.25901 
L 314.699604 41.460594 
L 315.855679 41.460594 
L 315.855679 40.662178 
L 316.031838 40.662178 
L 316.031838 39.863762 
L 316.324358 39.863762 
L 316.324358 39.065347 
L 316.794821 39.065347 
L 316.794821 38.266931 
L 319.200496 38.266931 
L 319.200496 37.468515 
L 321.937396 37.468515 
L 321.937396 36.670099 
L 322.586515 36.670099 
L 322.586515 35.871683 
L 323.747825 35.871683 
L 323.747825 35.073267 
L 324.291219 35.073267 
L 324.291219 34.274851 
L 324.694508 34.274851 
L 324.694508 33.476436 
L 324.92811 33.476436 
L 325.011874 31.879604 
L 327.596397 31.879604 
L 327.596397 31.081188 
L 327.76243 31.081188 
L 327.76243 30.282772 
L 328.670199 30.282772 
L 328.670199 29.484356 
L 329.047819 29.484356 
L 329.047819 28.685941 
L 330.81166 28.685941 
L 330.81166 27.887525 
L 332.139148 27.887525 
L 332.139148 27.089109 
L 333.04251 27.089109 
L 333.04251 26.290693 
L 333.425688 26.290693 
L 333.425688 25.492277 
L 333.629195 25.492277 
L 333.629195 24.693861 
L 333.750319 24.693861 
L 333.750319 23.895446 
L 333.974243 23.895446 
L 333.974243 23.09703 
L 337.293617 23.09703 
L 337.293617 22.298614 
L 338.406131 22.298614 
L 338.406131 21.500198 
L 338.98901 21.500198 
L 338.98901 20.701782 
L 341.739836 20.701782 
L 341.739836 19.903366 
L 348.75809 19.903366 
L 348.75809 19.10495 
L 348.957048 19.10495 
L 348.957048 18.306535 
L 368.175139 18.306535 
L 368.203111 16.709703 
L 372.202591 16.709703 
L 372.202591 15.911287 
L 372.36567 15.911287 
L 372.36567 15.112871 
L 374.153044 15.112871 
L 374.153044 14.314455 
L 375.184245 14.314455 
L 375.184245 13.51604 
L 377.842525 13.51604 
L 377.842525 12.717624 
L 378.531205 12.717624 
L 378.531205 11.919208 
L 380.809983 11.919208 
L 380.809983 11.120792 
L 381.737484 11.120792 
L 381.737484 10.322376 
L 384.614704 10.322376 
L 384.614704 9.52396 
L 386.928965 9.52396 
L 386.928965 8.725545 
L 387.158656 8.725545 
L 387.218237 7.128713 
L 393.251647 7.128713 
L 393.251647 6.330297 
L 393.251647 6.330297 
L 460.8 6.330297 
L 460.8 6.330297 
" style="fill:none;stroke:#00bfbf;stroke-linecap:square;stroke-width:1.5;"/>
   </g>
   <g id="line2d_26">
    <path clip-path="url(#pf5b050a906)" d="M -1 281.783762 
L 155.180879 281.783762 
L 155.180879 280.985347 
L 165.315611 280.985347 
L 165.315611 280.186931 
L 165.957271 280.186931 
L 165.957271 279.388515 
L 169.276248 279.388515 
L 169.276248 278.590099 
L 172.097134 278.590099 
L 172.114377 276.993267 
L 172.874333 276.993267 
L 172.874333 276.194851 
L 173.462957 276.194851 
L 173.462957 275.396436 
L 173.721249 275.396436 
L 173.721249 274.59802 
L 173.918935 274.59802 
L 173.918935 273.799604 
L 174.177715 273.799604 
L 174.261455 272.202772 
L 174.532924 272.202772 
L 174.532924 271.404356 
L 174.68854 271.404356 
L 174.730597 269.807525 
L 175.913471 269.807525 
L 175.913471 269.009109 
L 176.227818 269.009109 
L 176.227818 268.210693 
L 177.21879 268.210693 
L 177.21879 267.412277 
L 177.801466 267.412277 
L 177.801466 266.613861 
L 179.28369 266.613861 
L 179.28369 265.815446 
L 180.073347 265.815446 
L 180.073347 265.01703 
L 180.281272 265.01703 
L 180.281272 264.218614 
L 181.209383 264.218614 
L 181.209383 263.420198 
L 181.348775 263.420198 
L 181.348775 262.621782 
L 181.770593 262.621782 
L 181.770593 261.823366 
L 182.102299 261.823366 
L 182.181184 260.226535 
L 182.39508 260.226535 
L 182.39508 259.428119 
L 183.156452 259.428119 
L 183.156452 258.629703 
L 184.883623 258.629703 
L 184.883623 257.831287 
L 188.096031 257.831287 
L 188.096031 257.032871 
L 188.257089 257.032871 
L 188.257089 256.234455 
L 188.934094 256.234455 
L 188.934094 255.43604 
L 191.128458 255.43604 
L 191.128458 254.637624 
L 191.837792 254.637624 
L 191.837792 253.839208 
L 192.316606 253.839208 
L 192.316606 253.040792 
L 195.844566 253.040792 
L 195.844566 252.242376 
L 197.125185 252.242376 
L 197.125185 251.44396 
L 198.374379 251.44396 
L 198.374379 250.645545 
L 199.903423 250.645545 
L 199.903423 249.847129 
L 200.135207 249.847129 
L 200.135207 249.048713 
L 200.278597 249.048713 
L 200.278597 248.250297 
L 200.635144 248.250297 
L 200.635144 247.451881 
L 200.945085 247.451881 
L 200.945085 246.653465 
L 201.313184 246.653465 
L 201.313184 245.85505 
L 201.781276 245.85505 
L 201.781276 245.056634 
L 202.937405 245.056634 
L 202.937405 244.258218 
L 203.188554 244.258218 
L 203.188554 243.459802 
L 203.570796 243.459802 
L 203.570796 242.661386 
L 203.838853 242.661386 
L 203.861999 241.064554 
L 203.979586 241.064554 
L 204.022871 239.467723 
L 204.505746 239.467723 
L 204.555564 237.870891 
L 204.780574 237.870891 
L 204.780574 237.072475 
L 205.112833 237.072475 
L 205.112833 236.274059 
L 205.225042 236.274059 
L 205.225042 235.475644 
L 205.526532 235.475644 
L 205.630872 233.878812 
L 205.750518 233.878812 
L 205.750518 233.080396 
L 206.047451 233.080396 
L 206.047451 232.28198 
L 206.79269 232.28198 
L 206.810118 230.685149 
L 206.931494 230.685149 
L 207.012763 229.088317 
L 207.142311 229.088317 
L 207.142311 228.289901 
L 207.467343 228.289901 
L 207.467343 227.491485 
L 207.826311 227.491485 
L 207.910418 225.096238 
L 207.998664 225.096238 
L 208.107789 223.499406 
L 208.134594 223.499406 
L 208.134594 222.70099 
L 208.301898 222.70099 
L 208.402614 219.507327 
L 208.495294 219.507327 
L 208.556398 217.910495 
L 209.651304 217.910495 
L 209.693324 216.313663 
L 209.830834 216.313663 
L 209.830834 215.515248 
L 210.245462 215.515248 
L 210.245462 214.716832 
L 210.46155 214.716832 
L 210.46155 213.918416 
L 210.710433 213.918416 
L 210.754698 211.523168 
L 210.887559 211.523168 
L 210.887559 210.724752 
L 211.087099 210.724752 
L 211.118074 208.329505 
L 211.262545 208.329505 
L 211.34977 205.934257 
L 211.466359 205.934257 
L 211.527171 204.337426 
L 211.682664 204.337426 
L 211.775422 202.740594 
L 212.019491 202.740594 
L 212.063575 201.143762 
L 212.203126 201.143762 
L 212.211576 199.546931 
L 212.4953 199.546931 
L 212.558289 197.950099 
L 212.617856 197.950099 
L 212.696801 195.554851 
L 212.79164 195.554851 
L 212.816893 193.95802 
L 213.048483 193.95802 
L 213.138822 192.361188 
L 213.708112 192.361188 
L 213.714172 190.764356 
L 213.896365 190.764356 
L 213.991134 189.167525 
L 214.131837 189.167525 
L 214.131837 188.369109 
L 214.459357 188.369109 
L 214.459357 187.570693 
L 214.750073 187.570693 
L 214.82193 185.175446 
L 215.04938 185.175446 
L 215.04938 184.37703 
L 215.306693 184.37703 
L 215.306693 183.578614 
L 215.478847 183.578614 
L 215.478847 182.780198 
L 215.649864 182.780198 
L 215.649864 181.981782 
L 216.104876 181.981782 
L 216.104876 181.183366 
L 216.703474 181.183366 
L 216.809708 178.788119 
L 216.878152 178.788119 
L 216.878152 177.989703 
L 217.123574 177.989703 
L 217.128992 176.392871 
L 217.459154 176.392871 
L 217.459154 175.594455 
L 217.582375 175.594455 
L 217.582375 174.79604 
L 217.729808 174.79604 
L 217.729808 173.997624 
L 217.848554 173.997624 
L 217.848554 173.199208 
L 218.115977 173.199208 
L 218.115977 172.400792 
L 218.40748 172.400792 
L 218.475595 170.80396 
L 218.647701 170.80396 
L 218.728443 169.207129 
L 219.192139 169.207129 
L 219.27374 167.610297 
L 219.32659 167.610297 
L 219.32659 166.811881 
L 220.256398 166.811881 
L 220.256398 166.013465 
L 220.602864 166.013465 
L 220.602864 165.21505 
L 221.039081 165.21505 
L 221.039081 164.416634 
L 221.807273 164.416634 
L 221.807273 163.618218 
L 222.034755 163.618218 
L 222.034755 162.819802 
L 222.488823 162.819802 
L 222.581089 161.22297 
L 222.873469 161.22297 
L 222.873469 160.424554 
L 222.997324 160.424554 
L 222.997324 159.626139 
L 223.440664 159.626139 
L 223.440664 158.827723 
L 223.919924 158.827723 
L 223.933403 157.230891 
L 224.291078 157.230891 
L 224.291078 156.432475 
L 224.478041 156.432475 
L 224.564954 154.835644 
L 224.628945 154.835644 
L 224.640944 153.238812 
L 224.899021 153.238812 
L 225.005873 151.64198 
L 225.088476 151.64198 
L 225.136458 148.448317 
L 225.491472 148.448317 
L 225.565462 146.851485 
L 225.805226 146.851485 
L 225.835655 145.254653 
L 226.412783 145.254653 
L 226.412783 144.456238 
L 227.24812 144.456238 
L 227.24812 143.657822 
L 227.432022 143.657822 
L 227.496969 142.06099 
L 227.718909 142.06099 
L 227.718909 141.262574 
L 228.056489 141.262574 
L 228.131781 139.665743 
L 228.243358 139.665743 
L 228.250663 138.068911 
L 228.358696 138.068911 
L 228.423159 136.472079 
L 228.815435 136.472079 
L 228.815435 135.673663 
L 229.143544 135.673663 
L 229.212546 134.076832 
L 229.269547 134.076832 
L 229.344281 132.48 
L 229.861384 132.48 
L 229.861384 131.681584 
L 230.051097 131.681584 
L 230.142593 128.487921 
L 230.25244 128.487921 
L 230.25244 127.689505 
L 230.381206 127.689505 
L 230.381206 126.891089 
L 230.637738 126.891089 
L 230.696457 123.697426 
L 230.818268 123.697426 
L 230.818268 122.89901 
L 231.016795 122.89901 
L 231.062326 121.302178 
L 231.150167 121.302178 
L 231.150167 120.503762 
L 231.262829 120.503762 
L 231.323875 118.906931 
L 231.400439 118.906931 
L 231.495717 117.310099 
L 231.666503 117.310099 
L 231.666503 116.511683 
L 231.88316 116.511683 
L 231.88316 115.713267 
L 232.00696 115.713267 
L 232.00696 114.914851 
L 232.216192 114.914851 
L 232.216192 114.116436 
L 232.863779 114.116436 
L 232.915622 112.519604 
L 233.023727 112.519604 
L 233.023727 111.721188 
L 233.168095 111.721188 
L 233.168095 110.922772 
L 233.974792 110.922772 
L 233.974792 110.124356 
L 234.139601 110.124356 
L 234.139601 109.325941 
L 234.264412 109.325941 
L 234.352574 106.930693 
L 234.443102 106.930693 
L 234.443102 106.132277 
L 234.59898 106.132277 
L 234.59898 105.333861 
L 234.717141 105.333861 
L 234.815406 102.140198 
L 235.310993 102.140198 
L 235.373558 99.74495 
L 235.639881 99.74495 
L 235.657012 98.148119 
L 235.892687 98.148119 
L 235.892687 97.349703 
L 236.040867 97.349703 
L 236.144905 95.752871 
L 236.168415 95.752871 
L 236.211567 94.15604 
L 236.3714 94.15604 
L 236.3714 93.357624 
L 236.585884 93.357624 
L 236.668593 90.962376 
L 236.841882 90.962376 
L 236.920654 89.365545 
L 237.060387 89.365545 
L 237.109291 87.768713 
L 237.410424 87.768713 
L 237.521042 85.373465 
L 237.704724 85.373465 
L 237.801388 83.776634 
L 237.895018 83.776634 
L 237.895018 82.978218 
L 238.01155 82.978218 
L 238.01155 82.179802 
L 238.123583 82.179802 
L 238.21253 79.784554 
L 238.295339 79.784554 
L 238.295339 78.986139 
L 238.451306 78.986139 
L 238.543865 76.590891 
L 238.578045 76.590891 
L 238.644166 74.994059 
L 238.692297 74.994059 
L 238.692297 74.195644 
L 238.80387 74.195644 
L 238.80387 73.397228 
L 238.995721 73.397228 
L 238.995721 72.598812 
L 239.579103 72.598812 
L 239.579103 71.800396 
L 239.733455 71.800396 
L 239.733455 71.00198 
L 240.000818 71.00198 
L 240.000818 70.203564 
L 240.112542 70.203564 
L 240.133539 67.808317 
L 240.250351 67.808317 
L 240.250351 67.009901 
L 240.435341 67.009901 
L 240.435341 66.211485 
L 240.561219 66.211485 
L 240.561219 65.413069 
L 240.872056 65.413069 
L 240.905658 63.816238 
L 241.658845 63.816238 
L 241.756964 62.219406 
L 242.050648 62.219406 
L 242.050648 61.42099 
L 242.317225 61.42099 
L 242.317225 60.622574 
L 242.555905 60.622574 
L 242.555905 59.824158 
L 242.766207 59.824158 
L 242.766207 59.025743 
L 243.242879 59.025743 
L 243.242879 58.227327 
L 243.767769 58.227327 
L 243.815652 56.630495 
L 244.050658 56.630495 
L 244.050658 55.832079 
L 244.779218 55.832079 
L 244.779218 55.033663 
L 245.284106 55.033663 
L 245.284106 54.235248 
L 245.652226 54.235248 
L 245.652226 53.436832 
L 246.910902 53.436832 
L 246.910902 52.638416 
L 247.411626 52.638416 
L 247.411626 51.84 
L 247.631396 51.84 
L 247.631396 51.041584 
L 248.315256 51.041584 
L 248.315256 50.243168 
L 248.432187 50.243168 
L 248.432187 49.444752 
L 248.829036 49.444752 
L 248.829036 48.646337 
L 249.71242 48.646337 
L 249.815665 47.049505 
L 249.889844 47.049505 
L 249.889844 46.251089 
L 250.397727 46.251089 
L 250.397727 45.452673 
L 251.93916 45.452673 
L 251.93916 44.654257 
L 253.005877 44.654257 
L 253.005877 43.855842 
L 253.788666 43.855842 
L 253.788666 43.057426 
L 254.076027 43.057426 
L 254.076027 42.25901 
L 254.265031 42.25901 
L 254.265031 41.460594 
L 256.401655 41.460594 
L 256.401655 40.662178 
L 260.180718 40.662178 
L 260.180718 39.863762 
L 260.748759 39.863762 
L 260.748759 39.065347 
L 262.465573 39.065347 
L 262.465573 38.266931 
L 264.54752 38.266931 
L 264.54752 37.468515 
L 264.84018 37.468515 
L 264.84018 36.670099 
L 265.018499 36.670099 
L 265.018499 35.871683 
L 266.852913 35.871683 
L 266.852913 35.073267 
L 268.116902 35.073267 
L 268.124146 33.476436 
L 272.239144 33.476436 
L 272.239144 32.67802 
L 273.500372 32.67802 
L 273.500372 31.879604 
L 274.895917 31.879604 
L 274.895917 31.081188 
L 276.429974 31.081188 
L 276.429974 30.282772 
L 276.796751 30.282772 
L 276.796751 29.484356 
L 277.75601 29.484356 
L 277.75601 28.685941 
L 279.950432 28.685941 
L 279.950432 27.887525 
L 281.505397 27.887525 
L 281.505397 27.089109 
L 287.217449 27.089109 
L 287.217449 26.290693 
L 289.379037 26.290693 
L 289.379037 25.492277 
L 292.3905 25.492277 
L 292.3905 24.693861 
L 292.577287 24.693861 
L 292.577287 23.895446 
L 293.012966 23.895446 
L 293.012966 23.09703 
L 293.818877 23.09703 
L 293.818877 22.298614 
L 295.181332 22.298614 
L 295.181332 21.500198 
L 295.699826 21.500198 
L 295.699826 20.701782 
L 302.277254 20.701782 
L 302.277254 19.903366 
L 302.73942 19.903366 
L 302.73942 19.10495 
L 304.681555 19.10495 
L 304.681555 18.306535 
L 307.808016 18.306535 
L 307.808016 17.508119 
L 315.357101 17.508119 
L 315.373578 15.911287 
L 317.49041 15.911287 
L 317.49041 15.112871 
L 317.918189 15.112871 
L 317.918189 14.314455 
L 318.245763 14.314455 
L 318.245763 13.51604 
L 319.387382 13.51604 
L 319.387382 12.717624 
L 322.021728 12.717624 
L 322.021728 11.919208 
L 323.713358 11.919208 
L 323.713358 11.120792 
L 324.175546 11.120792 
L 324.175546 10.322376 
L 324.534808 10.322376 
L 324.534808 9.52396 
L 330.83619 9.52396 
L 330.83619 8.725545 
L 332.813149 8.725545 
L 332.813149 7.927129 
L 336.238565 7.927129 
L 336.238565 7.128713 
L 337.148904 7.128713 
L 337.148904 6.330297 
L 337.148904 6.330297 
L 460.8 6.330297 
L 460.8 6.330297 
" style="fill:none;stroke:#bf00bf;stroke-linecap:square;stroke-width:1.5;"/>
   </g>
   <g id="line2d_27">
    <path clip-path="url(#pf5b050a906)" d="M -1 205.135842 
L -0.987573 205.135842 
L -0.934465 203.53901 
L -0.816661 203.53901 
L -0.717027 201.143762 
L -0.66231 201.143762 
L -0.552047 198.748515 
L -0.476039 198.748515 
L -0.429484 197.151683 
L -0.118252 197.151683 
L -0.118252 196.353267 
L 0.477967 196.353267 
L 0.477967 195.554851 
L 1.448033 195.554851 
L 1.448033 194.756436 
L 3.071575 194.756436 
L 3.125081 193.159604 
L 4.248523 193.159604 
L 4.248523 192.361188 
L 9.8488 192.361188 
L 9.8488 191.562772 
L 13.224878 191.562772 
L 13.224878 190.764356 
L 14.225937 190.764356 
L 14.225937 189.965941 
L 15.6912 189.965941 
L 15.6912 189.167525 
L 18.54459 189.167525 
L 18.54459 188.369109 
L 19.572845 188.369109 
L 19.572845 187.570693 
L 23.649675 187.570693 
L 23.649675 186.772277 
L 24.281496 186.772277 
L 24.281496 185.973861 
L 28.118695 185.973861 
L 28.118695 185.175446 
L 29.923482 185.175446 
L 29.923482 184.37703 
L 34.409765 184.37703 
L 34.409765 183.578614 
L 35.224478 183.578614 
L 35.224478 182.780198 
L 36.738403 182.780198 
L 36.738403 181.981782 
L 37.293519 181.981782 
L 37.293519 181.183366 
L 37.79321 181.183366 
L 37.79321 180.38495 
L 38.711214 180.38495 
L 38.711214 179.586535 
L 40.371611 179.586535 
L 40.371611 178.788119 
L 42.181044 178.788119 
L 42.181044 177.989703 
L 43.965831 177.989703 
L 43.965831 177.191287 
L 44.696624 177.191287 
L 44.696624 176.392871 
L 44.92742 176.392871 
L 44.92742 175.594455 
L 45.169817 175.594455 
L 45.169817 174.79604 
L 47.719307 174.79604 
L 47.719307 173.997624 
L 48.228253 173.997624 
L 48.228253 173.199208 
L 49.971772 173.199208 
L 49.971772 172.400792 
L 50.338866 172.400792 
L 50.338866 171.602376 
L 51.774514 171.602376 
L 51.774514 170.80396 
L 54.694336 170.80396 
L 54.694336 170.005545 
L 55.146285 170.005545 
L 55.238632 168.408713 
L 55.297405 168.408713 
L 55.297405 167.610297 
L 55.414597 167.610297 
L 55.414597 166.811881 
L 55.627727 166.811881 
L 55.627727 166.013465 
L 56.639572 166.013465 
L 56.639572 165.21505 
L 57.776104 165.21505 
L 57.776104 164.416634 
L 58.194148 164.416634 
L 58.194148 163.618218 
L 58.92723 163.618218 
L 58.92723 162.819802 
L 62.993152 162.819802 
L 62.993152 162.021386 
L 70.437268 162.021386 
L 70.437268 161.22297 
L 72.354371 161.22297 
L 72.354371 160.424554 
L 72.509629 160.424554 
L 72.509629 159.626139 
L 74.549473 159.626139 
L 74.549473 158.827723 
L 75.49557 158.827723 
L 75.49557 158.029307 
L 75.801247 158.029307 
L 75.801247 157.230891 
L 78.147467 157.230891 
L 78.147467 156.432475 
L 79.800274 156.432475 
L 79.800274 155.634059 
L 82.012209 155.634059 
L 82.012209 154.835644 
L 82.556823 154.835644 
L 82.556823 154.037228 
L 85.518538 154.037228 
L 85.558571 152.440396 
L 87.959227 152.440396 
L 88.067124 150.843564 
L 88.653708 150.843564 
L 88.653708 150.045149 
L 89.207184 150.045149 
L 89.207184 149.246733 
L 91.557359 149.246733 
L 91.557359 148.448317 
L 95.585913 148.448317 
L 95.598758 146.851485 
L 96.303266 146.851485 
L 96.303266 146.053069 
L 96.544924 146.053069 
L 96.544924 145.254653 
L 97.018003 145.254653 
L 97.018003 144.456238 
L 97.132766 144.456238 
L 97.132766 143.657822 
L 97.766843 143.657822 
L 97.863655 142.06099 
L 98.241857 142.06099 
L 98.241857 141.262574 
L 99.452563 141.262574 
L 99.452563 140.464158 
L 101.039539 140.464158 
L 101.039539 139.665743 
L 101.475032 139.665743 
L 101.475032 138.867327 
L 103.824824 138.867327 
L 103.824824 138.068911 
L 105.995716 138.068911 
L 105.995716 137.270495 
L 106.238083 137.270495 
L 106.238083 136.472079 
L 106.564722 136.472079 
L 106.564722 135.673663 
L 107.46871 135.673663 
L 107.491588 134.076832 
L 107.632472 134.076832 
L 107.632472 133.278416 
L 108.387775 133.278416 
L 108.387775 132.48 
L 108.700769 132.48 
L 108.700769 131.681584 
L 108.899241 131.681584 
L 108.982533 130.084752 
L 110.152546 130.084752 
L 110.152546 129.286337 
L 113.338986 129.286337 
L 113.338986 128.487921 
L 113.833813 128.487921 
L 113.833813 127.689505 
L 114.657992 127.689505 
L 114.657992 126.891089 
L 117.319206 126.891089 
L 117.319206 126.092673 
L 120.461792 126.092673 
L 120.461792 125.294257 
L 120.895066 125.294257 
L 120.895066 124.495842 
L 121.075589 124.495842 
L 121.075589 123.697426 
L 122.392482 123.697426 
L 122.392482 122.89901 
L 122.671664 122.89901 
L 122.671664 122.100594 
L 122.880755 122.100594 
L 122.880755 121.302178 
L 123.003631 121.302178 
L 123.003631 120.503762 
L 125.099256 120.503762 
L 125.099256 119.705347 
L 125.317269 119.705347 
L 125.317269 118.906931 
L 126.328349 118.906931 
L 126.328349 118.108515 
L 127.341775 118.108515 
L 127.341775 117.310099 
L 127.814651 117.310099 
L 127.814651 116.511683 
L 129.106831 116.511683 
L 129.216288 114.116436 
L 131.701217 114.116436 
L 131.701217 113.31802 
L 132.243399 113.31802 
L 132.320297 111.721188 
L 132.360337 111.721188 
L 132.368568 110.124356 
L 135.025846 110.124356 
L 135.025846 109.325941 
L 135.514692 109.325941 
L 135.514692 108.527525 
L 136.352645 108.527525 
L 136.352645 107.729109 
L 137.431675 107.729109 
L 137.431675 106.930693 
L 138.084244 106.930693 
L 138.084244 106.132277 
L 141.13537 106.132277 
L 141.13537 105.333861 
L 142.035708 105.333861 
L 142.035708 104.535446 
L 143.227156 104.535446 
L 143.227156 103.73703 
L 143.367438 103.73703 
L 143.413825 102.140198 
L 144.293434 102.140198 
L 144.293434 101.341782 
L 144.908713 101.341782 
L 144.908713 100.543366 
L 145.470494 100.543366 
L 145.470494 99.74495 
L 146.025597 99.74495 
L 146.025597 98.946535 
L 148.637178 98.946535 
L 148.637178 98.148119 
L 151.220757 98.148119 
L 151.220757 97.349703 
L 152.319659 97.349703 
L 152.319659 96.551287 
L 155.601105 96.551287 
L 155.601105 95.752871 
L 155.870149 95.752871 
L 155.870149 94.954455 
L 162.547896 94.954455 
L 162.547896 94.15604 
L 165.660557 94.15604 
L 165.660557 93.357624 
L 166.497186 93.357624 
L 166.497186 92.559208 
L 169.934653 92.559208 
L 169.934653 91.760792 
L 171.479561 91.760792 
L 171.479561 90.962376 
L 173.264148 90.962376 
L 173.264148 90.16396 
L 175.202356 90.16396 
L 175.202356 89.365545 
L 181.901969 89.365545 
L 181.901969 88.567129 
L 183.451533 88.567129 
L 183.451533 87.768713 
L 185.114165 87.768713 
L 185.114165 86.970297 
L 186.350403 86.970297 
L 186.433534 85.373465 
L 187.54904 85.373465 
L 187.600754 83.776634 
L 187.890019 83.776634 
L 187.890019 82.978218 
L 189.425179 82.978218 
L 189.425179 82.179802 
L 189.666369 82.179802 
L 189.761771 80.58297 
L 190.041528 80.58297 
L 190.041528 79.784554 
L 190.542429 79.784554 
L 190.545427 78.187723 
L 191.43962 78.187723 
L 191.43962 77.389307 
L 192.042903 77.389307 
L 192.053678 75.792475 
L 192.541379 75.792475 
L 192.541379 74.994059 
L 192.949642 74.994059 
L 192.949642 74.195644 
L 195.037453 74.195644 
L 195.037453 73.397228 
L 196.090573 73.397228 
L 196.090573 72.598812 
L 196.572086 72.598812 
L 196.572086 71.800396 
L 197.183821 71.800396 
L 197.183821 71.00198 
L 197.537536 71.00198 
L 197.537536 70.203564 
L 198.197832 70.203564 
L 198.197832 69.405149 
L 199.255119 69.405149 
L 199.255119 68.606733 
L 199.394057 68.606733 
L 199.394057 64.614653 
L 200.592225 64.614653 
L 200.636675 62.219406 
L 202.654997 62.219406 
L 202.654997 61.42099 
L 202.989904 61.42099 
L 202.989904 60.622574 
L 203.14872 60.622574 
L 203.224792 59.025743 
L 203.409298 59.025743 
L 203.409304 56.630495 
L 204.066698 56.630495 
L 204.066698 55.832079 
L 204.508542 55.832079 
L 204.563769 54.235248 
L 204.631717 54.235248 
L 204.631717 53.436832 
L 205.311128 53.436832 
L 205.312835 51.84 
L 205.440371 51.84 
L 205.505663 50.243168 
L 205.577664 50.243168 
L 205.634873 48.646337 
L 205.889177 48.646337 
L 205.889177 47.847921 
L 206.165171 47.847921 
L 206.192029 46.251089 
L 206.33759 46.251089 
L 206.33759 45.452673 
L 207.07361 45.452673 
L 207.14732 43.855842 
L 207.224756 43.855842 
L 207.224756 43.057426 
L 207.354351 43.057426 
L 207.354351 42.25901 
L 208.136543 42.25901 
L 208.136543 41.460594 
L 208.334261 41.460594 
L 208.334261 40.662178 
L 208.968372 40.662178 
L 208.968372 39.863762 
L 209.262709 39.863762 
L 209.262709 39.065347 
L 209.478312 39.065347 
L 209.478312 38.266931 
L 209.871208 38.266931 
L 209.871208 37.468515 
L 210.62587 37.468515 
L 210.62587 36.670099 
L 210.799512 36.670099 
L 210.873917 35.073267 
L 210.930973 35.073267 
L 210.930973 34.274851 
L 211.177984 34.274851 
L 211.177984 33.476436 
L 211.30576 33.476436 
L 211.30576 32.67802 
L 212.61567 32.67802 
L 212.61567 31.879604 
L 213.788245 31.879604 
L 213.788245 31.081188 
L 213.984675 31.081188 
L 213.984675 30.282772 
L 214.379256 30.282772 
L 214.379256 29.484356 
L 215.963241 29.484356 
L 215.963241 28.685941 
L 216.796545 28.685941 
L 216.796545 27.887525 
L 217.422792 27.887525 
L 217.422792 27.089109 
L 217.814089 27.089109 
L 217.814089 26.290693 
L 217.977384 26.290693 
L 217.977384 25.492277 
L 220.148995 25.492277 
L 220.148995 24.693861 
L 220.568491 24.693861 
L 220.568491 23.895446 
L 220.992577 23.895446 
L 221.014139 22.298614 
L 221.209499 22.298614 
L 221.230091 20.701782 
L 222.302311 20.701782 
L 222.302311 19.903366 
L 222.830472 19.903366 
L 222.830472 19.10495 
L 223.60602 19.10495 
L 223.60602 18.306535 
L 225.702727 18.306535 
L 225.702727 17.508119 
L 227.640414 17.508119 
L 227.640414 16.709703 
L 229.080052 16.709703 
L 229.080052 15.911287 
L 229.573205 15.911287 
L 229.573205 15.112871 
L 230.042278 15.112871 
L 230.042278 14.314455 
L 230.181942 14.314455 
L 230.181942 13.51604 
L 230.468141 13.51604 
L 230.468141 12.717624 
L 230.728723 12.717624 
L 230.728723 11.919208 
L 231.072251 11.919208 
L 231.072251 11.120792 
L 231.435207 11.120792 
L 231.435207 10.322376 
L 231.814607 10.322376 
L 231.814607 9.52396 
L 232.347313 9.52396 
L 232.347313 8.725545 
L 232.931369 8.725545 
L 232.931369 7.927129 
L 233.974159 7.927129 
L 233.974159 7.128713 
L 234.890252 7.128713 
L 234.890252 6.330297 
L 234.890252 6.330297 
L 460.8 6.330297 
L 460.8 6.330297 
" style="fill:none;stroke:#000000;stroke-linecap:square;stroke-width:1.5;"/>
   </g>
   <g id="line2d_28">
    <path clip-path="url(#pf5b050a906)" d="M -1 94.15604 
L -0.99306 94.15604 
L -0.897452 90.962376 
L -0.877165 90.962376 
L -0.767515 86.171881 
L -0.76005 86.171881 
L -0.66231 80.58297 
L -0.638956 80.58297 
L -0.548501 75.792475 
L -0.476039 75.792475 
L -0.365987 71.00198 
L -0.337493 71.00198 
L -0.229956 68.606733 
L -0.128229 68.606733 
L -0.118252 67.009901 
L 33.589408 67.009901 
L 33.589408 66.211485 
L 61.792133 66.211485 
L 61.792133 65.413069 
L 98.672078 65.413069 
L 98.672078 64.614653 
L 114.020928 64.614653 
L 114.020928 63.816238 
L 123.167267 63.816238 
L 123.167267 63.017822 
L 134.727324 63.017822 
L 134.727324 62.219406 
L 135.309638 62.219406 
L 135.309638 61.42099 
L 148.347912 61.42099 
L 148.347912 60.622574 
L 150.929077 60.622574 
L 150.929077 59.824158 
L 152.55949 59.824158 
L 152.55949 59.025743 
L 153.381788 59.025743 
L 153.381788 58.227327 
L 154.581471 58.227327 
L 154.581471 57.428911 
L 157.144831 57.428911 
L 157.144831 56.630495 
L 157.416718 56.630495 
L 157.416718 55.832079 
L 159.252676 55.832079 
L 159.252676 55.033663 
L 164.918937 55.033663 
L 164.918937 54.235248 
L 166.113445 54.235248 
L 166.113445 53.436832 
L 168.277387 53.436832 
L 168.277387 52.638416 
L 169.089148 52.638416 
L 169.089148 51.84 
L 174.18146 51.84 
L 174.18146 51.041584 
L 175.255658 51.041584 
L 175.255658 50.243168 
L 175.706291 50.243168 
L 175.706291 49.444752 
L 176.284674 49.444752 
L 176.284674 48.646337 
L 177.222716 48.646337 
L 177.222716 47.847921 
L 180.071388 47.847921 
L 180.134629 46.251089 
L 180.542824 46.251089 
L 180.542824 45.452673 
L 181.51525 45.452673 
L 181.51525 44.654257 
L 182.729076 44.654257 
L 182.729076 43.057426 
L 183.38957 43.057426 
L 183.38957 42.25901 
L 183.616275 42.25901 
L 183.616275 41.460594 
L 183.810445 41.460594 
L 183.810445 40.662178 
L 184.644064 40.662178 
L 184.644064 39.863762 
L 184.817654 39.863762 
L 184.817654 39.065347 
L 185.315089 39.065347 
L 185.358473 37.468515 
L 185.619256 37.468515 
L 185.619256 36.670099 
L 185.872138 36.670099 
L 185.973498 35.073267 
L 188.906812 35.073267 
L 188.906812 34.274851 
L 192.377387 34.274851 
L 192.377387 33.476436 
L 193.474646 33.476436 
L 193.474646 32.67802 
L 193.874223 32.67802 
L 193.972609 31.081188 
L 197.818009 31.081188 
L 197.818009 30.282772 
L 200.206152 30.282772 
L 200.236682 28.685941 
L 202.611395 28.685941 
L 202.663103 27.089109 
L 203.413829 27.089109 
L 203.492712 23.09703 
L 203.553518 23.09703 
L 203.553518 22.298614 
L 204.943597 22.298614 
L 204.943597 21.500198 
L 211.071422 21.500198 
L 211.080116 17.508119 
L 211.321854 17.508119 
L 211.321854 16.709703 
L 215.776419 16.709703 
L 215.776419 15.911287 
L 216.638781 15.911287 
L 216.638781 15.112871 
L 218.153063 15.112871 
L 218.153063 14.314455 
L 221.989956 14.314455 
L 222.088254 12.717624 
L 222.394684 12.717624 
L 222.477355 11.120792 
L 223.006876 11.120792 
L 223.006876 10.322376 
L 223.223148 10.322376 
L 223.256842 8.725545 
L 223.909218 8.725545 
L 223.909218 7.927129 
L 224.038787 7.927129 
L 224.092944 6.330297 
L 224.092944 6.330297 
L 460.8 6.330297 
L 460.8 6.330297 
" style="fill:none;stroke:#00bfbf;stroke-linecap:square;stroke-width:1.5;"/>
   </g>
   <g id="patch_3">
    <path d="M 0 293.76 
L 0 3.456 
" style="fill:none;stroke:#000000;stroke-linecap:square;stroke-linejoin:miter;stroke-width:0.8;"/>
   </g>
   <g id="patch_4">
    <path d="M 460.8 293.76 
L 460.8 3.456 
" style="fill:none;stroke:#000000;stroke-linecap:square;stroke-linejoin:miter;stroke-width:0.8;"/>
   </g>
   <g id="patch_5">
    <path d="M 0 293.76 
L 460.8 293.76 
" style="fill:none;stroke:#000000;stroke-linecap:square;stroke-linejoin:miter;stroke-width:0.8;"/>
   </g>
   <g id="patch_6">
    <path d="M 0 3.456 
L 460.8 3.456 
" style="fill:none;stroke:#000000;stroke-linecap:square;stroke-linejoin:miter;stroke-width:0.8;"/>
   </g>
   <g id="text_6">
    <!-- {f1-f24}, 5-D -->
    <g transform="translate(318.609 287.95392)scale(0.2 -0.2)">
     <defs>
      <path d="M 3272 -594 
L 3272 -1044 
L 3078 -1044 
Q 2300 -1044 2036 -812 
Q 1772 -581 1772 109 
L 1772 856 
Q 1772 1328 1603 1509 
Q 1434 1691 991 1691 
L 800 1691 
L 800 2138 
L 991 2138 
Q 1438 2138 1605 2317 
Q 1772 2497 1772 2963 
L 1772 3713 
Q 1772 4403 2036 4633 
Q 2300 4863 3078 4863 
L 3272 4863 
L 3272 4416 
L 3059 4416 
Q 2619 4416 2484 4278 
Q 2350 4141 2350 3700 
L 2350 2925 
Q 2350 2434 2208 2212 
Q 2066 1991 1722 1913 
Q 2069 1828 2209 1606 
Q 2350 1384 2350 897 
L 2350 122 
Q 2350 -319 2484 -456 
Q 2619 -594 3059 -594 
L 3272 -594 
z
" id="DejaVuSans-7b" transform="scale(0.015625)"/>
      <path d="M 1228 531 
L 3431 531 
L 3431 0 
L 469 0 
L 469 531 
Q 828 903 1448 1529 
Q 2069 2156 2228 2338 
Q 2531 2678 2651 2914 
Q 2772 3150 2772 3378 
Q 2772 3750 2511 3984 
Q 2250 4219 1831 4219 
Q 1534 4219 1204 4116 
Q 875 4013 500 3803 
L 500 4441 
Q 881 4594 1212 4672 
Q 1544 4750 1819 4750 
Q 2544 4750 2975 4387 
Q 3406 4025 3406 3419 
Q 3406 3131 3298 2873 
Q 3191 2616 2906 2266 
Q 2828 2175 2409 1742 
Q 1991 1309 1228 531 
z
" id="DejaVuSans-32" transform="scale(0.015625)"/>
      <path d="M 800 -594 
L 1019 -594 
Q 1456 -594 1589 -459 
Q 1722 -325 1722 122 
L 1722 897 
Q 1722 1384 1862 1606 
Q 2003 1828 2350 1913 
Q 2003 1991 1862 2212 
Q 1722 2434 1722 2925 
L 1722 3700 
Q 1722 4144 1589 4280 
Q 1456 4416 1019 4416 
L 800 4416 
L 800 4863 
L 997 4863 
Q 1775 4863 2036 4633 
Q 2297 4403 2297 3713 
L 2297 2963 
Q 2297 2497 2465 2317 
Q 2634 2138 3078 2138 
L 3272 2138 
L 3272 1691 
L 3078 1691 
Q 2634 1691 2465 1509 
Q 2297 1328 2297 856 
L 2297 109 
Q 2297 -581 2036 -812 
Q 1775 -1044 997 -1044 
L 800 -1044 
L 800 -594 
z
" id="DejaVuSans-7d" transform="scale(0.015625)"/>
      <path d="M 750 794 
L 1409 794 
L 1409 256 
L 897 -744 
L 494 -744 
L 750 256 
L 750 794 
z
" id="DejaVuSans-2c" transform="scale(0.015625)"/>
      <path d="M 691 4666 
L 3169 4666 
L 3169 4134 
L 1269 4134 
L 1269 2991 
Q 1406 3038 1543 3061 
Q 1681 3084 1819 3084 
Q 2600 3084 3056 2656 
Q 3513 2228 3513 1497 
Q 3513 744 3044 326 
Q 2575 -91 1722 -91 
Q 1428 -91 1123 -41 
Q 819 9 494 109 
L 494 744 
Q 775 591 1075 516 
Q 1375 441 1709 441 
Q 2250 441 2565 725 
Q 2881 1009 2881 1497 
Q 2881 1984 2565 2268 
Q 2250 2553 1709 2553 
Q 1456 2553 1204 2497 
Q 953 2441 691 2322 
L 691 4666 
z
" id="DejaVuSans-35" transform="scale(0.015625)"/>
     </defs>
     <use xlink:href="#DejaVuSans-7b"/>
     <use x="63.623047" xlink:href="#DejaVuSans-66"/>
     <use x="98.828125" xlink:href="#DejaVuSans-31"/>
     <use x="162.451172" xlink:href="#DejaVuSans-2d"/>
     <use x="198.535156" xlink:href="#DejaVuSans-66"/>
     <use x="233.740234" xlink:href="#DejaVuSans-32"/>
     <use x="297.363281" xlink:href="#DejaVuSans-34"/>
     <use x="360.986328" xlink:href="#DejaVuSans-7d"/>
     <use x="424.609375" xlink:href="#DejaVuSans-2c"/>
     <use x="456.396484" xlink:href="#DejaVuSans-20"/>
     <use x="488.183594" xlink:href="#DejaVuSans-35"/>
     <use x="551.806641" xlink:href="#DejaVuSans-2d"/>
     <use x="587.890625" xlink:href="#DejaVuSans-44"/>
    </g>
   </g>
   <g id="text_7">
    <!-- v2.4 -->
    <g style="fill:#808080;" transform="translate(219.489063 288.777272)scale(0.1 -0.1)">
     <defs>
      <path d="M 191 3500 
L 800 3500 
L 1894 563 
L 2988 3500 
L 3597 3500 
L 2284 0 
L 1503 0 
L 191 3500 
z
" id="DejaVuSans-76" transform="scale(0.015625)"/>
      <path d="M 684 794 
L 1344 794 
L 1344 0 
L 684 0 
L 684 794 
z
" id="DejaVuSans-2e" transform="scale(0.015625)"/>
     </defs>
     <use xlink:href="#DejaVuSans-76"/>
     <use x="59.179688" xlink:href="#DejaVuSans-32"/>
     <use x="122.802734" xlink:href="#DejaVuSans-2e"/>
     <use x="154.589844" xlink:href="#DejaVuSans-34"/>
    </g>
   </g>
  </g>
 </g>
 <defs>
  <clipPath id="pf5b050a906">
   <rect height="290.304" width="460.8" x="0" y="3.456"/>
  </clipPath>
 </defs>
</svg>
