<?xml version="1.0" encoding="utf-8" standalone="no"?>
<!DOCTYPE svg PUBLIC "-//W3C//DTD SVG 1.1//EN"
  "http://www.w3.org/Graphics/SVG/1.1/DTD/svg11.dtd">
<svg height="345.6pt" version="1.1" viewBox="0 0 460.8 345.6" width="460.8pt" xmlns="http://www.w3.org/2000/svg" xmlns:xlink="http://www.w3.org/1999/xlink">
 <metadata>
  <rdf:RDF xmlns:cc="http://creativecommons.org/ns#" xmlns:dc="http://purl.org/dc/elements/1.1/" xmlns:rdf="http://www.w3.org/1999/02/22-rdf-syntax-ns#">
   <cc:Work>
    <dc:type rdf:resource="http://purl.org/dc/dcmitype/StillImage"/>
    <dc:date>2021-05-01T08:27:20.409330</dc:date>
    <dc:format>image/svg+xml</dc:format>
    <dc:creator>
     <cc:Agent>
      <dc:title>Matplotlib v3.4.1, https://matplotlib.org/</dc:title>
     </cc:Agent>
    </dc:creator>
   </cc:Work>
  </rdf:RDF>
 </metadata>
 <defs>
  <style type="text/css">*{stroke-linecap:butt;stroke-linejoin:round;}</style>
 </defs>
 <g id="figure_1">
  <g id="patch_1">
   <path d="M 0 345.6 
L 460.8 345.6 
L 460.8 0 
L 0 0 
z
" style="fill:#ffffff;"/>
  </g>
  <g id="axes_1">
   <g id="patch_2">
    <path d="M 57.6 298.944 
L 338.688 298.944 
L 338.688 27.648 
L 57.6 27.648 
z
" style="fill:#ffffff;"/>
   </g>
   <g id="line2d_1">
    <path d="M 97.403108 298.944 
L 97.403108 293.677139 
L 103.498249 293.677139 
L 103.498249 288.410278 
L 135.158519 288.410278 
L 135.158519 283.143418 
L 144.282077 283.143418 
L 144.282077 277.876557 
L 147.759612 277.876557 
L 147.759612 272.609696 
L 151.928441 272.609696 
L 151.928441 267.342835 
L 154.873541 267.342835 
L 154.873541 262.075974 
L 157.613546 262.075974 
L 157.613546 256.809114 
L 160.321935 256.809114 
L 160.321935 251.542253 
L 160.326759 251.542253 
L 160.326759 246.275392 
L 160.37492 246.275392 
L 160.37492 241.008531 
L 160.509069 241.008531 
L 160.509069 235.74167 
L 160.518612 235.74167 
L 160.518612 230.47481 
L 160.528149 230.47481 
L 160.528149 225.207949 
L 160.537682 225.207949 
L 160.537682 214.674227 
L 160.55197 214.674227 
L 160.55197 209.407366 
L 160.613753 209.407366 
L 160.613753 204.140506 
L 160.670589 204.140506 
L 160.670589 198.873645 
L 160.694216 198.873645 
L 160.694216 193.606784 
L 160.703658 193.606784 
L 160.703658 188.339923 
L 160.736665 188.339923 
L 160.736665 177.806202 
L 160.741375 177.806202 
L 160.741375 172.539341 
L 160.760203 172.539341 
L 160.760203 162.005619 
L 160.886762 162.005619 
L 160.886762 146.205037 
L 160.891432 146.205037 
L 160.891432 130.404454 
L 160.900768 130.404454 
L 160.900768 119.870733 
L 160.905434 119.870733 
L 160.905434 114.603872 
L 160.933404 114.603872 
L 160.933404 109.337011 
L 160.993852 109.337011 
L 160.993852 104.07015 
L 160.998493 104.07015 
L 160.998493 98.803289 
L 161.044837 98.803289 
L 161.044837 93.536429 
L 161.058716 93.536429 
L 161.058716 83.002707 
L 161.067963 83.002707 
L 161.067963 77.735846 
L 161.072584 77.735846 
L 161.072584 72.468985 
L 196.492788 72.468985 
L 196.492788 61.935264 
L 196.493394 61.935264 
L 196.493394 56.668403 
L 196.494 56.668403 
L 196.494 46.134681 
L 196.494606 46.134681 
L 196.494606 40.867821 
L 196.495213 40.867821 
L 196.495213 30.334099 
L 338.688 30.334099 
" style="fill:none;stroke:#f5deb3;stroke-linecap:square;stroke-width:4;"/>
   </g>
   <g id="line2d_2">
    <defs>
     <path d="M 0 7.778175 
L 7.778175 0 
L 0 -7.778175 
L -7.778175 0 
z
" id="m36cde2afa8" style="stroke:#f5deb3;stroke-linejoin:miter;stroke-width:1.5;"/>
    </defs>
    <g>
     <use style="fill:#f5deb3;stroke:#f5deb3;stroke-linejoin:miter;stroke-width:1.5;" x="160.703658" xlink:href="#m36cde2afa8" y="188.339923"/>
     <use style="fill:#f5deb3;stroke:#f5deb3;stroke-linejoin:miter;stroke-width:1.5;" x="161.072584" xlink:href="#m36cde2afa8" y="72.468985"/>
     <use style="fill:#f5deb3;stroke:#f5deb3;stroke-linejoin:miter;stroke-width:1.5;" x="196.495213" xlink:href="#m36cde2afa8" y="40.867821"/>
     <use style="fill:#f5deb3;stroke:#f5deb3;stroke-linejoin:miter;stroke-width:1.5;" x="196.495213" xlink:href="#m36cde2afa8" y="30.334099"/>
     <use style="fill:#f5deb3;stroke:#f5deb3;stroke-linejoin:miter;stroke-width:1.5;" x="338.688" xlink:href="#m36cde2afa8" y="30.334099"/>
    </g>
   </g>
   <g id="line2d_3">
    <path style="fill:none;stroke:#f5deb3;stroke-linecap:square;stroke-width:4;"/>
    <g/>
   </g>
   <g id="line2d_4">
    <path d="M 338.688 30.334099 
L 369.60768 35.706297 
" style="fill:none;stroke:#f5deb3;stroke-linecap:square;stroke-width:4;"/>
    <g>
     <use style="fill:#f5deb3;stroke:#f5deb3;stroke-linejoin:miter;stroke-width:1.5;" x="338.688" xlink:href="#m36cde2afa8" y="30.334099"/>
     <use style="fill:#f5deb3;stroke:#f5deb3;stroke-linejoin:miter;stroke-width:1.5;" x="369.60768" xlink:href="#m36cde2afa8" y="35.706297"/>
    </g>
   </g>
   <g id="matplotlib.axis_1">
    <g id="xtick_1">
     <g id="line2d_5">
      <path clip-path="url(#p3f3d51b5ea)" d="M 57.6 298.944 
L 57.6 27.648 
" style="fill:none;stroke:#b0b0b0;stroke-linecap:square;stroke-width:0.8;"/>
     </g>
     <g id="line2d_6">
      <defs>
       <path d="M 0 0 
L 0 3.5 
" id="m88249392c8" style="stroke:#000000;stroke-width:0.8;"/>
      </defs>
      <g>
       <use style="stroke:#000000;stroke-width:0.8;" x="57.6" xlink:href="#m88249392c8" y="298.944"/>
      </g>
     </g>
     <g id="text_1">
      <!-- 0 -->
      <g transform="translate(51.2375 321.140875)scale(0.2 -0.2)">
       <defs>
        <path d="M 2034 4250 
Q 1547 4250 1301 3770 
Q 1056 3291 1056 2328 
Q 1056 1369 1301 889 
Q 1547 409 2034 409 
Q 2525 409 2770 889 
Q 3016 1369 3016 2328 
Q 3016 3291 2770 3770 
Q 2525 4250 2034 4250 
z
M 2034 4750 
Q 2819 4750 3233 4129 
Q 3647 3509 3647 2328 
Q 3647 1150 3233 529 
Q 2819 -91 2034 -91 
Q 1250 -91 836 529 
Q 422 1150 422 2328 
Q 422 3509 836 4129 
Q 1250 4750 2034 4750 
z
" id="DejaVuSans-30" transform="scale(0.015625)"/>
       </defs>
       <use xlink:href="#DejaVuSans-30"/>
      </g>
     </g>
    </g>
    <g id="xtick_2">
     <g id="line2d_7">
      <path clip-path="url(#p3f3d51b5ea)" d="M 137.910857 298.944 
L 137.910857 27.648 
" style="fill:none;stroke:#b0b0b0;stroke-linecap:square;stroke-width:0.8;"/>
     </g>
     <g id="line2d_8">
      <g>
       <use style="stroke:#000000;stroke-width:0.8;" x="137.910857" xlink:href="#m88249392c8" y="298.944"/>
      </g>
     </g>
     <g id="text_2">
      <!-- 2 -->
      <g transform="translate(131.548357 321.140875)scale(0.2 -0.2)">
       <defs>
        <path d="M 1228 531 
L 3431 531 
L 3431 0 
L 469 0 
L 469 531 
Q 828 903 1448 1529 
Q 2069 2156 2228 2338 
Q 2531 2678 2651 2914 
Q 2772 3150 2772 3378 
Q 2772 3750 2511 3984 
Q 2250 4219 1831 4219 
Q 1534 4219 1204 4116 
Q 875 4013 500 3803 
L 500 4441 
Q 881 4594 1212 4672 
Q 1544 4750 1819 4750 
Q 2544 4750 2975 4387 
Q 3406 4025 3406 3419 
Q 3406 3131 3298 2873 
Q 3191 2616 2906 2266 
Q 2828 2175 2409 1742 
Q 1991 1309 1228 531 
z
" id="DejaVuSans-32" transform="scale(0.015625)"/>
       </defs>
       <use xlink:href="#DejaVuSans-32"/>
      </g>
     </g>
    </g>
    <g id="xtick_3">
     <g id="line2d_9">
      <path clip-path="url(#p3f3d51b5ea)" d="M 218.221714 298.944 
L 218.221714 27.648 
" style="fill:none;stroke:#b0b0b0;stroke-linecap:square;stroke-width:0.8;"/>
     </g>
     <g id="line2d_10">
      <g>
       <use style="stroke:#000000;stroke-width:0.8;" x="218.221714" xlink:href="#m88249392c8" y="298.944"/>
      </g>
     </g>
     <g id="text_3">
      <!-- 4 -->
      <g transform="translate(211.859214 321.140875)scale(0.2 -0.2)">
       <defs>
        <path d="M 2419 4116 
L 825 1625 
L 2419 1625 
L 2419 4116 
z
M 2253 4666 
L 3047 4666 
L 3047 1625 
L 3713 1625 
L 3713 1100 
L 3047 1100 
L 3047 0 
L 2419 0 
L 2419 1100 
L 313 1100 
L 313 1709 
L 2253 4666 
z
" id="DejaVuSans-34" transform="scale(0.015625)"/>
       </defs>
       <use xlink:href="#DejaVuSans-34"/>
      </g>
     </g>
    </g>
    <g id="xtick_4">
     <g id="line2d_11">
      <path clip-path="url(#p3f3d51b5ea)" d="M 298.532571 298.944 
L 298.532571 27.648 
" style="fill:none;stroke:#b0b0b0;stroke-linecap:square;stroke-width:0.8;"/>
     </g>
     <g id="line2d_12">
      <g>
       <use style="stroke:#000000;stroke-width:0.8;" x="298.532571" xlink:href="#m88249392c8" y="298.944"/>
      </g>
     </g>
     <g id="text_4">
      <!-- 6 -->
      <g transform="translate(292.170071 321.140875)scale(0.2 -0.2)">
       <defs>
        <path d="M 2113 2584 
Q 1688 2584 1439 2293 
Q 1191 2003 1191 1497 
Q 1191 994 1439 701 
Q 1688 409 2113 409 
Q 2538 409 2786 701 
Q 3034 994 3034 1497 
Q 3034 2003 2786 2293 
Q 2538 2584 2113 2584 
z
M 3366 4563 
L 3366 3988 
Q 3128 4100 2886 4159 
Q 2644 4219 2406 4219 
Q 1781 4219 1451 3797 
Q 1122 3375 1075 2522 
Q 1259 2794 1537 2939 
Q 1816 3084 2150 3084 
Q 2853 3084 3261 2657 
Q 3669 2231 3669 1497 
Q 3669 778 3244 343 
Q 2819 -91 2113 -91 
Q 1303 -91 875 529 
Q 447 1150 447 2328 
Q 447 3434 972 4092 
Q 1497 4750 2381 4750 
Q 2619 4750 2861 4703 
Q 3103 4656 3366 4563 
z
" id="DejaVuSans-36" transform="scale(0.015625)"/>
       </defs>
       <use xlink:href="#DejaVuSans-36"/>
      </g>
     </g>
    </g>
    <g id="xtick_5">
     <g id="line2d_13">
      <path clip-path="url(#p3f3d51b5ea)" d="M 97.755429 298.944 
L 97.755429 27.648 
" style="fill:none;stroke:#b0b0b0;stroke-linecap:square;stroke-width:0.8;"/>
     </g>
     <g id="line2d_14">
      <defs>
       <path d="M 0 0 
L 0 2 
" id="m85ae2369ae" style="stroke:#000000;stroke-width:0.6;"/>
      </defs>
      <g>
       <use style="stroke:#000000;stroke-width:0.6;" x="97.755429" xlink:href="#m85ae2369ae" y="298.944"/>
      </g>
     </g>
    </g>
    <g id="xtick_6">
     <g id="line2d_15">
      <path clip-path="url(#p3f3d51b5ea)" d="M 178.066286 298.944 
L 178.066286 27.648 
" style="fill:none;stroke:#b0b0b0;stroke-linecap:square;stroke-width:0.8;"/>
     </g>
     <g id="line2d_16">
      <g>
       <use style="stroke:#000000;stroke-width:0.6;" x="178.066286" xlink:href="#m85ae2369ae" y="298.944"/>
      </g>
     </g>
    </g>
    <g id="xtick_7">
     <g id="line2d_17">
      <path clip-path="url(#p3f3d51b5ea)" d="M 258.377143 298.944 
L 258.377143 27.648 
" style="fill:none;stroke:#b0b0b0;stroke-linecap:square;stroke-width:0.8;"/>
     </g>
     <g id="line2d_18">
      <g>
       <use style="stroke:#000000;stroke-width:0.6;" x="258.377143" xlink:href="#m85ae2369ae" y="298.944"/>
      </g>
     </g>
    </g>
    <g id="xtick_8">
     <g id="line2d_19">
      <path clip-path="url(#p3f3d51b5ea)" d="M 338.688 298.944 
L 338.688 27.648 
" style="fill:none;stroke:#b0b0b0;stroke-linecap:square;stroke-width:0.8;"/>
     </g>
     <g id="line2d_20">
      <g>
       <use style="stroke:#000000;stroke-width:0.6;" x="338.688" xlink:href="#m85ae2369ae" y="298.944"/>
      </g>
     </g>
    </g>
    <g id="text_5">
     <!-- log10(# f-evals / dimension) -->
     <g transform="translate(77.764078 342.217594)scale(0.17 -0.17)">
      <defs>
       <path d="M 603 4863 
L 1178 4863 
L 1178 0 
L 603 0 
L 603 4863 
z
" id="DejaVuSans-6c" transform="scale(0.015625)"/>
       <path d="M 1959 3097 
Q 1497 3097 1228 2736 
Q 959 2375 959 1747 
Q 959 1119 1226 758 
Q 1494 397 1959 397 
Q 2419 397 2687 759 
Q 2956 1122 2956 1747 
Q 2956 2369 2687 2733 
Q 2419 3097 1959 3097 
z
M 1959 3584 
Q 2709 3584 3137 3096 
Q 3566 2609 3566 1747 
Q 3566 888 3137 398 
Q 2709 -91 1959 -91 
Q 1206 -91 779 398 
Q 353 888 353 1747 
Q 353 2609 779 3096 
Q 1206 3584 1959 3584 
z
" id="DejaVuSans-6f" transform="scale(0.015625)"/>
       <path d="M 2906 1791 
Q 2906 2416 2648 2759 
Q 2391 3103 1925 3103 
Q 1463 3103 1205 2759 
Q 947 2416 947 1791 
Q 947 1169 1205 825 
Q 1463 481 1925 481 
Q 2391 481 2648 825 
Q 2906 1169 2906 1791 
z
M 3481 434 
Q 3481 -459 3084 -895 
Q 2688 -1331 1869 -1331 
Q 1566 -1331 1297 -1286 
Q 1028 -1241 775 -1147 
L 775 -588 
Q 1028 -725 1275 -790 
Q 1522 -856 1778 -856 
Q 2344 -856 2625 -561 
Q 2906 -266 2906 331 
L 2906 616 
Q 2728 306 2450 153 
Q 2172 0 1784 0 
Q 1141 0 747 490 
Q 353 981 353 1791 
Q 353 2603 747 3093 
Q 1141 3584 1784 3584 
Q 2172 3584 2450 3431 
Q 2728 3278 2906 2969 
L 2906 3500 
L 3481 3500 
L 3481 434 
z
" id="DejaVuSans-67" transform="scale(0.015625)"/>
       <path d="M 794 531 
L 1825 531 
L 1825 4091 
L 703 3866 
L 703 4441 
L 1819 4666 
L 2450 4666 
L 2450 531 
L 3481 531 
L 3481 0 
L 794 0 
L 794 531 
z
" id="DejaVuSans-31" transform="scale(0.015625)"/>
       <path d="M 1984 4856 
Q 1566 4138 1362 3434 
Q 1159 2731 1159 2009 
Q 1159 1288 1364 580 
Q 1569 -128 1984 -844 
L 1484 -844 
Q 1016 -109 783 600 
Q 550 1309 550 2009 
Q 550 2706 781 3412 
Q 1013 4119 1484 4856 
L 1984 4856 
z
" id="DejaVuSans-28" transform="scale(0.015625)"/>
       <path d="M 3272 2816 
L 2363 2816 
L 2100 1772 
L 3016 1772 
L 3272 2816 
z
M 2803 4594 
L 2478 3297 
L 3391 3297 
L 3719 4594 
L 4219 4594 
L 3897 3297 
L 4872 3297 
L 4872 2816 
L 3775 2816 
L 3519 1772 
L 4513 1772 
L 4513 1294 
L 3397 1294 
L 3072 0 
L 2572 0 
L 2894 1294 
L 1978 1294 
L 1656 0 
L 1153 0 
L 1478 1294 
L 494 1294 
L 494 1772 
L 1594 1772 
L 1856 2816 
L 850 2816 
L 850 3297 
L 1978 3297 
L 2297 4594 
L 2803 4594 
z
" id="DejaVuSans-23" transform="scale(0.015625)"/>
       <path id="DejaVuSans-20" transform="scale(0.015625)"/>
       <path d="M 2375 4863 
L 2375 4384 
L 1825 4384 
Q 1516 4384 1395 4259 
Q 1275 4134 1275 3809 
L 1275 3500 
L 2222 3500 
L 2222 3053 
L 1275 3053 
L 1275 0 
L 697 0 
L 697 3053 
L 147 3053 
L 147 3500 
L 697 3500 
L 697 3744 
Q 697 4328 969 4595 
Q 1241 4863 1831 4863 
L 2375 4863 
z
" id="DejaVuSans-66" transform="scale(0.015625)"/>
       <path d="M 313 2009 
L 1997 2009 
L 1997 1497 
L 313 1497 
L 313 2009 
z
" id="DejaVuSans-2d" transform="scale(0.015625)"/>
       <path d="M 3597 1894 
L 3597 1613 
L 953 1613 
Q 991 1019 1311 708 
Q 1631 397 2203 397 
Q 2534 397 2845 478 
Q 3156 559 3463 722 
L 3463 178 
Q 3153 47 2828 -22 
Q 2503 -91 2169 -91 
Q 1331 -91 842 396 
Q 353 884 353 1716 
Q 353 2575 817 3079 
Q 1281 3584 2069 3584 
Q 2775 3584 3186 3129 
Q 3597 2675 3597 1894 
z
M 3022 2063 
Q 3016 2534 2758 2815 
Q 2500 3097 2075 3097 
Q 1594 3097 1305 2825 
Q 1016 2553 972 2059 
L 3022 2063 
z
" id="DejaVuSans-65" transform="scale(0.015625)"/>
       <path d="M 191 3500 
L 800 3500 
L 1894 563 
L 2988 3500 
L 3597 3500 
L 2284 0 
L 1503 0 
L 191 3500 
z
" id="DejaVuSans-76" transform="scale(0.015625)"/>
       <path d="M 2194 1759 
Q 1497 1759 1228 1600 
Q 959 1441 959 1056 
Q 959 750 1161 570 
Q 1363 391 1709 391 
Q 2188 391 2477 730 
Q 2766 1069 2766 1631 
L 2766 1759 
L 2194 1759 
z
M 3341 1997 
L 3341 0 
L 2766 0 
L 2766 531 
Q 2569 213 2275 61 
Q 1981 -91 1556 -91 
Q 1019 -91 701 211 
Q 384 513 384 1019 
Q 384 1609 779 1909 
Q 1175 2209 1959 2209 
L 2766 2209 
L 2766 2266 
Q 2766 2663 2505 2880 
Q 2244 3097 1772 3097 
Q 1472 3097 1187 3025 
Q 903 2953 641 2809 
L 641 3341 
Q 956 3463 1253 3523 
Q 1550 3584 1831 3584 
Q 2591 3584 2966 3190 
Q 3341 2797 3341 1997 
z
" id="DejaVuSans-61" transform="scale(0.015625)"/>
       <path d="M 2834 3397 
L 2834 2853 
Q 2591 2978 2328 3040 
Q 2066 3103 1784 3103 
Q 1356 3103 1142 2972 
Q 928 2841 928 2578 
Q 928 2378 1081 2264 
Q 1234 2150 1697 2047 
L 1894 2003 
Q 2506 1872 2764 1633 
Q 3022 1394 3022 966 
Q 3022 478 2636 193 
Q 2250 -91 1575 -91 
Q 1294 -91 989 -36 
Q 684 19 347 128 
L 347 722 
Q 666 556 975 473 
Q 1284 391 1588 391 
Q 1994 391 2212 530 
Q 2431 669 2431 922 
Q 2431 1156 2273 1281 
Q 2116 1406 1581 1522 
L 1381 1569 
Q 847 1681 609 1914 
Q 372 2147 372 2553 
Q 372 3047 722 3315 
Q 1072 3584 1716 3584 
Q 2034 3584 2315 3537 
Q 2597 3491 2834 3397 
z
" id="DejaVuSans-73" transform="scale(0.015625)"/>
       <path d="M 1625 4666 
L 2156 4666 
L 531 -594 
L 0 -594 
L 1625 4666 
z
" id="DejaVuSans-2f" transform="scale(0.015625)"/>
       <path d="M 2906 2969 
L 2906 4863 
L 3481 4863 
L 3481 0 
L 2906 0 
L 2906 525 
Q 2725 213 2448 61 
Q 2172 -91 1784 -91 
Q 1150 -91 751 415 
Q 353 922 353 1747 
Q 353 2572 751 3078 
Q 1150 3584 1784 3584 
Q 2172 3584 2448 3432 
Q 2725 3281 2906 2969 
z
M 947 1747 
Q 947 1113 1208 752 
Q 1469 391 1925 391 
Q 2381 391 2643 752 
Q 2906 1113 2906 1747 
Q 2906 2381 2643 2742 
Q 2381 3103 1925 3103 
Q 1469 3103 1208 2742 
Q 947 2381 947 1747 
z
" id="DejaVuSans-64" transform="scale(0.015625)"/>
       <path d="M 603 3500 
L 1178 3500 
L 1178 0 
L 603 0 
L 603 3500 
z
M 603 4863 
L 1178 4863 
L 1178 4134 
L 603 4134 
L 603 4863 
z
" id="DejaVuSans-69" transform="scale(0.015625)"/>
       <path d="M 3328 2828 
Q 3544 3216 3844 3400 
Q 4144 3584 4550 3584 
Q 5097 3584 5394 3201 
Q 5691 2819 5691 2113 
L 5691 0 
L 5113 0 
L 5113 2094 
Q 5113 2597 4934 2840 
Q 4756 3084 4391 3084 
Q 3944 3084 3684 2787 
Q 3425 2491 3425 1978 
L 3425 0 
L 2847 0 
L 2847 2094 
Q 2847 2600 2669 2842 
Q 2491 3084 2119 3084 
Q 1678 3084 1418 2786 
Q 1159 2488 1159 1978 
L 1159 0 
L 581 0 
L 581 3500 
L 1159 3500 
L 1159 2956 
Q 1356 3278 1631 3431 
Q 1906 3584 2284 3584 
Q 2666 3584 2933 3390 
Q 3200 3197 3328 2828 
z
" id="DejaVuSans-6d" transform="scale(0.015625)"/>
       <path d="M 3513 2113 
L 3513 0 
L 2938 0 
L 2938 2094 
Q 2938 2591 2744 2837 
Q 2550 3084 2163 3084 
Q 1697 3084 1428 2787 
Q 1159 2491 1159 1978 
L 1159 0 
L 581 0 
L 581 3500 
L 1159 3500 
L 1159 2956 
Q 1366 3272 1645 3428 
Q 1925 3584 2291 3584 
Q 2894 3584 3203 3211 
Q 3513 2838 3513 2113 
z
" id="DejaVuSans-6e" transform="scale(0.015625)"/>
       <path d="M 513 4856 
L 1013 4856 
Q 1481 4119 1714 3412 
Q 1947 2706 1947 2009 
Q 1947 1309 1714 600 
Q 1481 -109 1013 -844 
L 513 -844 
Q 928 -128 1133 580 
Q 1338 1288 1338 2009 
Q 1338 2731 1133 3434 
Q 928 4138 513 4856 
z
" id="DejaVuSans-29" transform="scale(0.015625)"/>
      </defs>
      <use xlink:href="#DejaVuSans-6c"/>
      <use x="27.783203" xlink:href="#DejaVuSans-6f"/>
      <use x="88.964844" xlink:href="#DejaVuSans-67"/>
      <use x="152.441406" xlink:href="#DejaVuSans-31"/>
      <use x="216.064453" xlink:href="#DejaVuSans-30"/>
      <use x="279.6875" xlink:href="#DejaVuSans-28"/>
      <use x="318.701172" xlink:href="#DejaVuSans-23"/>
      <use x="402.490234" xlink:href="#DejaVuSans-20"/>
      <use x="434.277344" xlink:href="#DejaVuSans-66"/>
      <use x="463.982422" xlink:href="#DejaVuSans-2d"/>
      <use x="500.066406" xlink:href="#DejaVuSans-65"/>
      <use x="561.589844" xlink:href="#DejaVuSans-76"/>
      <use x="620.769531" xlink:href="#DejaVuSans-61"/>
      <use x="682.048828" xlink:href="#DejaVuSans-6c"/>
      <use x="709.832031" xlink:href="#DejaVuSans-73"/>
      <use x="761.931641" xlink:href="#DejaVuSans-20"/>
      <use x="793.71875" xlink:href="#DejaVuSans-2f"/>
      <use x="827.410156" xlink:href="#DejaVuSans-20"/>
      <use x="859.197266" xlink:href="#DejaVuSans-64"/>
      <use x="922.673828" xlink:href="#DejaVuSans-69"/>
      <use x="950.457031" xlink:href="#DejaVuSans-6d"/>
      <use x="1047.869141" xlink:href="#DejaVuSans-65"/>
      <use x="1109.392578" xlink:href="#DejaVuSans-6e"/>
      <use x="1172.771484" xlink:href="#DejaVuSans-73"/>
      <use x="1224.871094" xlink:href="#DejaVuSans-69"/>
      <use x="1252.654297" xlink:href="#DejaVuSans-6f"/>
      <use x="1313.835938" xlink:href="#DejaVuSans-6e"/>
      <use x="1377.214844" xlink:href="#DejaVuSans-29"/>
     </g>
    </g>
   </g>
   <g id="matplotlib.axis_2">
    <g id="ytick_1">
     <g id="line2d_21">
      <path clip-path="url(#p3f3d51b5ea)" d="M 57.6 298.944 
L 338.688 298.944 
" style="fill:none;stroke:#b0b0b0;stroke-linecap:square;stroke-width:0.8;"/>
     </g>
     <g id="line2d_22">
      <defs>
       <path d="M 0 0 
L -3.5 0 
" id="m762948c578" style="stroke:#000000;stroke-width:0.8;"/>
      </defs>
      <g>
       <use style="stroke:#000000;stroke-width:0.8;" x="57.6" xlink:href="#m762948c578" y="298.944"/>
      </g>
     </g>
     <g id="text_6">
      <!-- 0.0 -->
      <g transform="translate(25.155 305.02275)scale(0.16 -0.16)">
       <defs>
        <path d="M 684 794 
L 1344 794 
L 1344 0 
L 684 0 
L 684 794 
z
" id="DejaVuSans-2e" transform="scale(0.015625)"/>
       </defs>
       <use xlink:href="#DejaVuSans-30"/>
       <use x="63.623047" xlink:href="#DejaVuSans-2e"/>
       <use x="95.410156" xlink:href="#DejaVuSans-30"/>
      </g>
     </g>
    </g>
    <g id="ytick_2">
     <g id="line2d_23">
      <path clip-path="url(#p3f3d51b5ea)" d="M 57.6 245.22202 
L 338.688 245.22202 
" style="fill:none;stroke:#b0b0b0;stroke-linecap:square;stroke-width:0.8;"/>
     </g>
     <g id="line2d_24">
      <g>
       <use style="stroke:#000000;stroke-width:0.8;" x="57.6" xlink:href="#m762948c578" y="245.22202"/>
      </g>
     </g>
     <g id="text_7">
      <!-- 0.2 -->
      <g transform="translate(25.155 251.30077)scale(0.16 -0.16)">
       <use xlink:href="#DejaVuSans-30"/>
       <use x="63.623047" xlink:href="#DejaVuSans-2e"/>
       <use x="95.410156" xlink:href="#DejaVuSans-32"/>
      </g>
     </g>
    </g>
    <g id="ytick_3">
     <g id="line2d_25">
      <path clip-path="url(#p3f3d51b5ea)" d="M 57.6 191.50004 
L 338.688 191.50004 
" style="fill:none;stroke:#b0b0b0;stroke-linecap:square;stroke-width:0.8;"/>
     </g>
     <g id="line2d_26">
      <g>
       <use style="stroke:#000000;stroke-width:0.8;" x="57.6" xlink:href="#m762948c578" y="191.50004"/>
      </g>
     </g>
     <g id="text_8">
      <!-- 0.4 -->
      <g transform="translate(25.155 197.57879)scale(0.16 -0.16)">
       <use xlink:href="#DejaVuSans-30"/>
       <use x="63.623047" xlink:href="#DejaVuSans-2e"/>
       <use x="95.410156" xlink:href="#DejaVuSans-34"/>
      </g>
     </g>
    </g>
    <g id="ytick_4">
     <g id="line2d_27">
      <path clip-path="url(#p3f3d51b5ea)" d="M 57.6 137.778059 
L 338.688 137.778059 
" style="fill:none;stroke:#b0b0b0;stroke-linecap:square;stroke-width:0.8;"/>
     </g>
     <g id="line2d_28">
      <g>
       <use style="stroke:#000000;stroke-width:0.8;" x="57.6" xlink:href="#m762948c578" y="137.778059"/>
      </g>
     </g>
     <g id="text_9">
      <!-- 0.6 -->
      <g transform="translate(25.155 143.856809)scale(0.16 -0.16)">
       <use xlink:href="#DejaVuSans-30"/>
       <use x="63.623047" xlink:href="#DejaVuSans-2e"/>
       <use x="95.410156" xlink:href="#DejaVuSans-36"/>
      </g>
     </g>
    </g>
    <g id="ytick_5">
     <g id="line2d_29">
      <path clip-path="url(#p3f3d51b5ea)" d="M 57.6 84.056079 
L 338.688 84.056079 
" style="fill:none;stroke:#b0b0b0;stroke-linecap:square;stroke-width:0.8;"/>
     </g>
     <g id="line2d_30">
      <g>
       <use style="stroke:#000000;stroke-width:0.8;" x="57.6" xlink:href="#m762948c578" y="84.056079"/>
      </g>
     </g>
     <g id="text_10">
      <!-- 0.8 -->
      <g transform="translate(25.155 90.134829)scale(0.16 -0.16)">
       <defs>
        <path d="M 2034 2216 
Q 1584 2216 1326 1975 
Q 1069 1734 1069 1313 
Q 1069 891 1326 650 
Q 1584 409 2034 409 
Q 2484 409 2743 651 
Q 3003 894 3003 1313 
Q 3003 1734 2745 1975 
Q 2488 2216 2034 2216 
z
M 1403 2484 
Q 997 2584 770 2862 
Q 544 3141 544 3541 
Q 544 4100 942 4425 
Q 1341 4750 2034 4750 
Q 2731 4750 3128 4425 
Q 3525 4100 3525 3541 
Q 3525 3141 3298 2862 
Q 3072 2584 2669 2484 
Q 3125 2378 3379 2068 
Q 3634 1759 3634 1313 
Q 3634 634 3220 271 
Q 2806 -91 2034 -91 
Q 1263 -91 848 271 
Q 434 634 434 1313 
Q 434 1759 690 2068 
Q 947 2378 1403 2484 
z
M 1172 3481 
Q 1172 3119 1398 2916 
Q 1625 2713 2034 2713 
Q 2441 2713 2670 2916 
Q 2900 3119 2900 3481 
Q 2900 3844 2670 4047 
Q 2441 4250 2034 4250 
Q 1625 4250 1398 4047 
Q 1172 3844 1172 3481 
z
" id="DejaVuSans-38" transform="scale(0.015625)"/>
       </defs>
       <use xlink:href="#DejaVuSans-30"/>
       <use x="63.623047" xlink:href="#DejaVuSans-2e"/>
       <use x="95.410156" xlink:href="#DejaVuSans-38"/>
      </g>
     </g>
    </g>
    <g id="ytick_6">
     <g id="line2d_31">
      <path clip-path="url(#p3f3d51b5ea)" d="M 57.6 30.334099 
L 338.688 30.334099 
" style="fill:none;stroke:#b0b0b0;stroke-linecap:square;stroke-width:0.8;"/>
     </g>
     <g id="line2d_32">
      <g>
       <use style="stroke:#000000;stroke-width:0.8;" x="57.6" xlink:href="#m762948c578" y="30.334099"/>
      </g>
     </g>
     <g id="text_11">
      <!-- 1.0 -->
      <g transform="translate(25.155 36.412849)scale(0.16 -0.16)">
       <use xlink:href="#DejaVuSans-31"/>
       <use x="63.623047" xlink:href="#DejaVuSans-2e"/>
       <use x="95.410156" xlink:href="#DejaVuSans-30"/>
      </g>
     </g>
    </g>
    <g id="text_12">
     <!-- Fraction of function,target pairs -->
     <g transform="translate(17.619531 297.681)rotate(-90)scale(0.17 -0.17)">
      <defs>
       <path d="M 628 4666 
L 3309 4666 
L 3309 4134 
L 1259 4134 
L 1259 2759 
L 3109 2759 
L 3109 2228 
L 1259 2228 
L 1259 0 
L 628 0 
L 628 4666 
z
" id="DejaVuSans-46" transform="scale(0.015625)"/>
       <path d="M 2631 2963 
Q 2534 3019 2420 3045 
Q 2306 3072 2169 3072 
Q 1681 3072 1420 2755 
Q 1159 2438 1159 1844 
L 1159 0 
L 581 0 
L 581 3500 
L 1159 3500 
L 1159 2956 
Q 1341 3275 1631 3429 
Q 1922 3584 2338 3584 
Q 2397 3584 2469 3576 
Q 2541 3569 2628 3553 
L 2631 2963 
z
" id="DejaVuSans-72" transform="scale(0.015625)"/>
       <path d="M 3122 3366 
L 3122 2828 
Q 2878 2963 2633 3030 
Q 2388 3097 2138 3097 
Q 1578 3097 1268 2742 
Q 959 2388 959 1747 
Q 959 1106 1268 751 
Q 1578 397 2138 397 
Q 2388 397 2633 464 
Q 2878 531 3122 666 
L 3122 134 
Q 2881 22 2623 -34 
Q 2366 -91 2075 -91 
Q 1284 -91 818 406 
Q 353 903 353 1747 
Q 353 2603 823 3093 
Q 1294 3584 2113 3584 
Q 2378 3584 2631 3529 
Q 2884 3475 3122 3366 
z
" id="DejaVuSans-63" transform="scale(0.015625)"/>
       <path d="M 1172 4494 
L 1172 3500 
L 2356 3500 
L 2356 3053 
L 1172 3053 
L 1172 1153 
Q 1172 725 1289 603 
Q 1406 481 1766 481 
L 2356 481 
L 2356 0 
L 1766 0 
Q 1100 0 847 248 
Q 594 497 594 1153 
L 594 3053 
L 172 3053 
L 172 3500 
L 594 3500 
L 594 4494 
L 1172 4494 
z
" id="DejaVuSans-74" transform="scale(0.015625)"/>
       <path d="M 544 1381 
L 544 3500 
L 1119 3500 
L 1119 1403 
Q 1119 906 1312 657 
Q 1506 409 1894 409 
Q 2359 409 2629 706 
Q 2900 1003 2900 1516 
L 2900 3500 
L 3475 3500 
L 3475 0 
L 2900 0 
L 2900 538 
Q 2691 219 2414 64 
Q 2138 -91 1772 -91 
Q 1169 -91 856 284 
Q 544 659 544 1381 
z
M 1991 3584 
L 1991 3584 
z
" id="DejaVuSans-75" transform="scale(0.015625)"/>
       <path d="M 750 794 
L 1409 794 
L 1409 256 
L 897 -744 
L 494 -744 
L 750 256 
L 750 794 
z
" id="DejaVuSans-2c" transform="scale(0.015625)"/>
       <path d="M 1159 525 
L 1159 -1331 
L 581 -1331 
L 581 3500 
L 1159 3500 
L 1159 2969 
Q 1341 3281 1617 3432 
Q 1894 3584 2278 3584 
Q 2916 3584 3314 3078 
Q 3713 2572 3713 1747 
Q 3713 922 3314 415 
Q 2916 -91 2278 -91 
Q 1894 -91 1617 61 
Q 1341 213 1159 525 
z
M 3116 1747 
Q 3116 2381 2855 2742 
Q 2594 3103 2138 3103 
Q 1681 3103 1420 2742 
Q 1159 2381 1159 1747 
Q 1159 1113 1420 752 
Q 1681 391 2138 391 
Q 2594 391 2855 752 
Q 3116 1113 3116 1747 
z
" id="DejaVuSans-70" transform="scale(0.015625)"/>
      </defs>
      <use xlink:href="#DejaVuSans-46"/>
      <use x="50.269531" xlink:href="#DejaVuSans-72"/>
      <use x="91.382812" xlink:href="#DejaVuSans-61"/>
      <use x="152.662109" xlink:href="#DejaVuSans-63"/>
      <use x="207.642578" xlink:href="#DejaVuSans-74"/>
      <use x="246.851562" xlink:href="#DejaVuSans-69"/>
      <use x="274.634766" xlink:href="#DejaVuSans-6f"/>
      <use x="335.816406" xlink:href="#DejaVuSans-6e"/>
      <use x="399.195312" xlink:href="#DejaVuSans-20"/>
      <use x="430.982422" xlink:href="#DejaVuSans-6f"/>
      <use x="492.164062" xlink:href="#DejaVuSans-66"/>
      <use x="527.369141" xlink:href="#DejaVuSans-20"/>
      <use x="559.15625" xlink:href="#DejaVuSans-66"/>
      <use x="594.361328" xlink:href="#DejaVuSans-75"/>
      <use x="657.740234" xlink:href="#DejaVuSans-6e"/>
      <use x="721.119141" xlink:href="#DejaVuSans-63"/>
      <use x="776.099609" xlink:href="#DejaVuSans-74"/>
      <use x="815.308594" xlink:href="#DejaVuSans-69"/>
      <use x="843.091797" xlink:href="#DejaVuSans-6f"/>
      <use x="904.273438" xlink:href="#DejaVuSans-6e"/>
      <use x="967.652344" xlink:href="#DejaVuSans-2c"/>
      <use x="999.439453" xlink:href="#DejaVuSans-74"/>
      <use x="1038.648438" xlink:href="#DejaVuSans-61"/>
      <use x="1099.927734" xlink:href="#DejaVuSans-72"/>
      <use x="1139.291016" xlink:href="#DejaVuSans-67"/>
      <use x="1202.767578" xlink:href="#DejaVuSans-65"/>
      <use x="1264.291016" xlink:href="#DejaVuSans-74"/>
      <use x="1303.5" xlink:href="#DejaVuSans-20"/>
      <use x="1335.287109" xlink:href="#DejaVuSans-70"/>
      <use x="1398.763672" xlink:href="#DejaVuSans-61"/>
      <use x="1460.042969" xlink:href="#DejaVuSans-69"/>
      <use x="1487.826172" xlink:href="#DejaVuSans-72"/>
      <use x="1528.939453" xlink:href="#DejaVuSans-73"/>
     </g>
    </g>
   </g>
   <g id="line2d_33">
    <defs>
     <path d="M 0 1.5 
C 0.397805 1.5 0.77937 1.341951 1.06066 1.06066 
C 1.341951 0.77937 1.5 0.397805 1.5 0 
C 1.5 -0.397805 1.341951 -0.77937 1.06066 -1.06066 
C 0.77937 -1.341951 0.397805 -1.5 0 -1.5 
C -0.397805 -1.5 -0.77937 -1.341951 -1.06066 -1.06066 
C -1.341951 -0.77937 -1.5 -0.397805 -1.5 0 
C -1.5 0.397805 -1.341951 0.77937 -1.06066 1.06066 
C -0.77937 1.341951 -0.397805 1.5 0 1.5 
z
" id="m06ff3de4a2" style="stroke:#f5deb3;"/>
    </defs>
    <g>
     <use style="fill:#f5deb3;stroke:#f5deb3;" x="196.495213" xlink:href="#m06ff3de4a2" y="30.334099"/>
     <use style="fill:#f5deb3;stroke:#f5deb3;" x="196.495213" xlink:href="#m06ff3de4a2" y="30.334099"/>
    </g>
   </g>
   <g id="line2d_34">
    <defs>
     <path d="M 0 1.5 
C 0.397805 1.5 0.77937 1.341951 1.06066 1.06066 
C 1.341951 0.77937 1.5 0.397805 1.5 0 
C 1.5 -0.397805 1.341951 -0.77937 1.06066 -1.06066 
C 0.77937 -1.341951 0.397805 -1.5 0 -1.5 
C -0.397805 -1.5 -0.77937 -1.341951 -1.06066 -1.06066 
C -1.341951 -0.77937 -1.5 -0.397805 -1.5 0 
C -1.5 0.397805 -1.341951 0.77937 -1.06066 1.06066 
C -0.77937 1.341951 -0.397805 1.5 0 1.5 
z
" id="m51faa58694" style="stroke:#000080;"/>
    </defs>
    <g>
     <use style="fill:#000080;stroke:#000080;" x="211.701783" xlink:href="#m51faa58694" y="262.075974"/>
     <use style="fill:#000080;stroke:#000080;" x="211.701783" xlink:href="#m51faa58694" y="262.075974"/>
    </g>
   </g>
   <g id="line2d_35">
    <path d="M 143.42637 298.944 
L 143.42637 297.890628 
L 150.129152 297.890628 
L 150.129152 297.363942 
L 150.598782 297.363942 
L 150.598782 296.837256 
L 151.006785 296.837256 
L 151.006785 296.31057 
L 151.84236 296.31057 
L 151.889366 295.257197 
L 153.207444 295.257197 
L 153.207444 294.203825 
L 155.04413 294.203825 
L 155.04413 293.677139 
L 155.885354 293.677139 
L 155.916435 292.623767 
L 157.511826 292.623767 
L 157.511826 292.097081 
L 157.697862 292.097081 
L 157.697862 291.570395 
L 158.615355 291.570395 
L 158.673779 290.517023 
L 159.196108 290.517023 
L 159.196108 289.990337 
L 159.768105 289.990337 
L 159.768105 289.463651 
L 160.341221 289.463651 
L 160.341221 288.936964 
L 160.528149 288.936964 
L 160.528149 288.410278 
L 162.0038 288.410278 
L 162.0038 287.883592 
L 162.152109 287.883592 
L 162.182487 286.83022 
L 162.316387 286.83022 
L 162.316387 286.303534 
L 162.55145 286.303534 
L 162.55145 285.776848 
L 162.987455 285.776848 
L 162.987455 285.250162 
L 163.250446 285.250162 
L 163.250446 284.723476 
L 163.792519 284.723476 
L 163.792519 284.19679 
L 164.004716 284.19679 
L 164.004716 283.670104 
L 164.850932 283.670104 
L 164.850932 283.143418 
L 165.360599 283.143418 
L 165.360599 282.616732 
L 165.697012 282.616732 
L 165.697012 282.090045 
L 165.859305 282.090045 
L 165.960849 281.036673 
L 166.668984 281.036673 
L 166.668984 280.509987 
L 167.06015 280.509987 
L 167.06015 279.983301 
L 168.050941 279.983301 
L 168.050941 279.456615 
L 169.259288 279.456615 
L 169.267955 278.403243 
L 169.62247 278.403243 
L 169.62247 277.876557 
L 169.942157 277.876557 
L 169.942157 277.349871 
L 170.337772 277.349871 
L 170.348634 276.296499 
L 170.462281 276.296499 
L 170.524204 275.243126 
L 170.615341 275.243126 
L 170.615341 274.71644 
L 170.920115 274.71644 
L 171.027499 273.663068 
L 171.731152 273.663068 
L 171.731152 273.136382 
L 173.330714 273.136382 
L 173.330714 272.609696 
L 173.598631 272.609696 
L 173.598631 272.08301 
L 173.775727 272.08301 
L 173.775727 271.556324 
L 174.337554 271.556324 
L 174.337554 271.029638 
L 174.713572 271.029638 
L 174.713572 270.502952 
L 175.336395 270.502952 
L 175.379171 269.449579 
L 175.611577 269.449579 
L 175.611577 268.922893 
L 175.908161 268.922893 
L 175.908161 268.396207 
L 177.272441 268.396207 
L 177.367091 267.342835 
L 188.970074 267.342835 
L 188.970074 266.816149 
L 189.081704 266.816149 
L 189.081704 266.289463 
L 189.205518 266.289463 
L 189.205518 265.762777 
L 196.517626 265.762777 
L 196.517626 265.236091 
L 200.843505 265.236091 
L 200.843505 264.709405 
L 202.070074 264.709405 
L 202.070074 264.182719 
L 205.71258 264.182719 
L 205.71258 263.656033 
L 208.872056 263.656033 
L 208.872056 263.129347 
L 209.19868 263.129347 
L 209.19868 262.60266 
L 211.701783 262.60266 
L 211.701783 262.075974 
L 338.688 262.075974 
L 338.688 262.075974 
" style="fill:none;stroke:#000080;stroke-linecap:square;stroke-width:1.5;"/>
   </g>
   <g id="line2d_36">
    <defs>
     <path d="M 0 6 
C 1.591219 6 3.117479 5.367802 4.242641 4.242641 
C 5.367802 3.117479 6 1.591219 6 0 
C 6 -1.591219 5.367802 -3.117479 4.242641 -4.242641 
C 3.117479 -5.367802 1.591219 -6 0 -6 
C -1.591219 -6 -3.117479 -5.367802 -4.242641 -4.242641 
C -5.367802 -3.117479 -6 -1.591219 -6 0 
C -6 1.591219 -5.367802 3.117479 -4.242641 4.242641 
C -3.117479 5.367802 -1.591219 6 0 6 
z
" id="m85d9d1399a" style="stroke:#000080;stroke-width:1.5;"/>
    </defs>
    <g>
     <use style="fill-opacity:0;stroke:#000080;stroke-width:1.5;" x="189.081704" xlink:href="#m85d9d1399a" y="266.816149"/>
     <use style="fill-opacity:0;stroke:#000080;stroke-width:1.5;" x="211.701783" xlink:href="#m85d9d1399a" y="262.60266"/>
     <use style="fill-opacity:0;stroke:#000080;stroke-width:1.5;" x="211.701783" xlink:href="#m85d9d1399a" y="262.075974"/>
     <use style="fill-opacity:0;stroke:#000080;stroke-width:1.5;" x="211.701783" xlink:href="#m85d9d1399a" y="262.075974"/>
     <use style="fill-opacity:0;stroke:#000080;stroke-width:1.5;" x="338.688" xlink:href="#m85d9d1399a" y="262.075974"/>
    </g>
   </g>
   <g id="line2d_37">
    <path style="fill:none;stroke:#000080;stroke-linecap:square;stroke-width:1.5;"/>
    <g/>
   </g>
   <g id="line2d_38">
    <path clip-path="url(#p3f3d51b5ea)" d="M 178.066286 267.342835 
" style="fill:none;stroke:#000080;stroke-linecap:square;stroke-width:1.5;"/>
    <defs>
     <path d="M -12 12 
L 12 -12 
M -12 -12 
L 12 12 
" id="mf3e7d5cc14" style="stroke:#000080;"/>
    </defs>
    <g clip-path="url(#p3f3d51b5ea)">
     <use style="fill:#000080;stroke:#000080;" x="178.066286" xlink:href="#mf3e7d5cc14" y="267.342835"/>
    </g>
   </g>
   <g id="line2d_39">
    <defs>
     <path d="M 0 1.5 
C 0.397805 1.5 0.77937 1.341951 1.06066 1.06066 
C 1.341951 0.77937 1.5 0.397805 1.5 0 
C 1.5 -0.397805 1.341951 -0.77937 1.06066 -1.06066 
C 0.77937 -1.341951 0.397805 -1.5 0 -1.5 
C -0.397805 -1.5 -0.77937 -1.341951 -1.06066 -1.06066 
C -1.341951 -0.77937 -1.5 -0.397805 -1.5 0 
C -1.5 0.397805 -1.341951 0.77937 -1.06066 1.06066 
C -0.77937 1.341951 -0.397805 1.5 0 1.5 
z
" id="mcfce08c785" style="stroke:#ff00ff;"/>
    </defs>
    <g>
     <use style="fill:#ff00ff;stroke:#ff00ff;" x="239.977929" xlink:href="#mcfce08c785" y="256.809114"/>
     <use style="fill:#ff00ff;stroke:#ff00ff;" x="239.977929" xlink:href="#mcfce08c785" y="256.809114"/>
    </g>
   </g>
   <g id="line2d_40">
    <path d="M 125.183475 298.944 
L 125.183475 298.417314 
L 129.31925 298.417314 
L 129.31925 297.890628 
L 130.978796 297.890628 
L 130.978796 297.363942 
L 133.33018 297.363942 
L 133.33018 296.837256 
L 135.035562 296.837256 
L 135.035562 296.31057 
L 135.641855 296.31057 
L 135.701341 295.257197 
L 140.195896 295.257197 
L 140.195896 294.730511 
L 141.662245 294.730511 
L 141.662245 294.203825 
L 143.691276 294.203825 
L 143.691276 293.677139 
L 145.508645 293.677139 
L 145.508645 293.150453 
L 145.987073 293.150453 
L 145.987073 292.623767 
L 146.324022 292.623767 
L 146.324022 292.097081 
L 146.60169 292.097081 
L 146.60169 291.570395 
L 148.45922 291.570395 
L 148.45922 291.043709 
L 150.369816 291.043709 
L 150.369816 290.517023 
L 151.284383 290.517023 
L 151.284383 289.990337 
L 151.897188 289.990337 
L 151.99078 288.936964 
L 152.662192 288.936964 
L 152.662192 288.410278 
L 152.907453 288.410278 
L 152.907453 287.883592 
L 153.236437 287.883592 
L 153.236437 287.356906 
L 154.022346 287.356906 
L 154.022346 286.83022 
L 157.358125 286.83022 
L 157.358125 286.303534 
L 157.86528 286.303534 
L 157.86528 285.776848 
L 158.13532 285.776848 
L 158.13532 285.250162 
L 158.910765 285.250162 
L 158.910765 284.723476 
L 159.618067 284.723476 
L 159.618067 284.19679 
L 160.064363 284.19679 
L 160.093714 283.143418 
L 160.259108 283.143418 
L 160.259108 282.616732 
L 160.835312 282.616732 
L 160.835312 282.090045 
L 163.485404 282.090045 
L 163.485404 281.563359 
L 163.77274 281.563359 
L 163.77274 281.036673 
L 165.076435 281.036673 
L 165.076435 280.509987 
L 165.714726 280.509987 
L 165.76423 279.456615 
L 166.113796 279.456615 
L 166.113796 278.929929 
L 166.689087 278.929929 
L 166.689087 278.403243 
L 168.103511 278.403243 
L 168.103511 277.876557 
L 168.78179 277.876557 
L 168.78179 277.349871 
L 169.630959 277.349871 
L 169.630959 276.823185 
L 170.878029 276.823185 
L 170.878029 276.296499 
L 172.642339 276.296499 
L 172.642339 275.769812 
L 173.202112 275.769812 
L 173.202112 275.243126 
L 174.014959 275.243126 
L 174.014959 274.71644 
L 174.438764 274.71644 
L 174.438764 274.189754 
L 174.835732 274.189754 
L 174.835732 273.663068 
L 177.394299 273.663068 
L 177.394299 273.136382 
L 185.411837 273.136382 
L 185.411837 272.609696 
L 186.927917 272.609696 
L 186.927917 272.08301 
L 188.017846 272.08301 
L 188.017846 271.029638 
L 188.434663 271.029638 
L 188.487511 269.449579 
L 189.481381 269.449579 
L 189.481381 268.922893 
L 189.821517 268.922893 
L 189.821517 268.396207 
L 194.210974 268.396207 
L 194.210974 267.342835 
L 194.492005 267.342835 
L 194.492005 266.289463 
L 195.749682 266.289463 
L 195.749682 265.762777 
L 196.097928 265.762777 
L 196.132002 264.709405 
L 196.779596 264.709405 
L 196.779596 263.656033 
L 208.700101 263.656033 
L 208.775203 262.60266 
L 211.384378 262.60266 
L 211.384378 262.075974 
L 217.900863 262.075974 
L 217.900863 261.549288 
L 218.089197 261.549288 
L 218.089197 261.022602 
L 219.493638 261.022602 
L 219.493638 260.495916 
L 221.043908 260.495916 
L 221.134306 258.915858 
L 222.695311 258.915858 
L 222.695311 258.389172 
L 228.294769 258.389172 
L 228.294769 257.862486 
L 232.608275 257.862486 
L 232.608275 257.3358 
L 239.977929 257.3358 
L 239.977929 256.809114 
L 338.688 256.809114 
L 338.688 256.809114 
" style="fill:none;stroke:#ff00ff;stroke-linecap:square;stroke-width:1.5;"/>
   </g>
   <g id="line2d_41">
    <defs>
     <path d="M 0 8.485281 
L 5.091169 0 
L 0 -8.485281 
L -5.091169 0 
z
" id="mfde1f7802b" style="stroke:#ff00ff;stroke-linejoin:miter;stroke-width:1.5;"/>
    </defs>
    <g>
     <use style="fill-opacity:0;stroke:#ff00ff;stroke-linejoin:miter;stroke-width:1.5;" x="196.779596" xlink:href="#mfde1f7802b" y="264.709405"/>
     <use style="fill-opacity:0;stroke:#ff00ff;stroke-linejoin:miter;stroke-width:1.5;" x="239.977929" xlink:href="#mfde1f7802b" y="257.3358"/>
     <use style="fill-opacity:0;stroke:#ff00ff;stroke-linejoin:miter;stroke-width:1.5;" x="239.977929" xlink:href="#mfde1f7802b" y="256.809114"/>
     <use style="fill-opacity:0;stroke:#ff00ff;stroke-linejoin:miter;stroke-width:1.5;" x="239.977929" xlink:href="#mfde1f7802b" y="256.809114"/>
     <use style="fill-opacity:0;stroke:#ff00ff;stroke-linejoin:miter;stroke-width:1.5;" x="338.688" xlink:href="#mfde1f7802b" y="256.809114"/>
    </g>
   </g>
   <g id="line2d_42">
    <path style="fill:none;stroke:#ff00ff;stroke-linecap:square;stroke-width:1.5;"/>
    <g/>
   </g>
   <g id="line2d_43">
    <path clip-path="url(#p3f3d51b5ea)" d="M 178.066286 273.136382 
" style="fill:none;stroke:#ff00ff;stroke-linecap:square;stroke-width:1.5;"/>
    <defs>
     <path d="M -12 12 
L 12 -12 
M -12 -12 
L 12 12 
" id="md27e300e2f" style="stroke:#ff00ff;"/>
    </defs>
    <g clip-path="url(#p3f3d51b5ea)">
     <use style="fill:#ff00ff;stroke:#ff00ff;" x="178.066286" xlink:href="#md27e300e2f" y="273.136382"/>
    </g>
   </g>
   <g id="line2d_44">
    <defs>
     <path d="M 0 1.5 
C 0.397805 1.5 0.77937 1.341951 1.06066 1.06066 
C 1.341951 0.77937 1.5 0.397805 1.5 0 
C 1.5 -0.397805 1.341951 -0.77937 1.06066 -1.06066 
C 0.77937 -1.341951 0.397805 -1.5 0 -1.5 
C -0.397805 -1.5 -0.77937 -1.341951 -1.06066 -1.06066 
C -1.341951 -0.77937 -1.5 -0.397805 -1.5 0 
C -1.5 0.397805 -1.341951 0.77937 -1.06066 1.06066 
C -0.77937 1.341951 -0.397805 1.5 0 1.5 
z
" id="m6769e4cb06" style="stroke:#ff7500;"/>
    </defs>
    <g>
     <use style="fill:#ff7500;stroke:#ff7500;" x="217.516528" xlink:href="#m6769e4cb06" y="267.342835"/>
     <use style="fill:#ff7500;stroke:#ff7500;" x="217.516528" xlink:href="#m6769e4cb06" y="267.342835"/>
    </g>
   </g>
   <g id="line2d_45">
    <path d="M 138.745106 298.944 
L 138.745106 298.417314 
L 146.538004 298.417314 
L 146.538004 297.890628 
L 146.978997 297.890628 
L 146.978997 297.363942 
L 147.030761 297.363942 
L 147.030761 296.837256 
L 147.215849 296.837256 
L 147.215849 296.31057 
L 148.248413 296.31057 
L 148.248413 295.783884 
L 149.431665 295.783884 
L 149.431665 295.257197 
L 150.369816 295.257197 
L 150.369816 294.730511 
L 150.716332 294.730511 
L 150.716332 294.203825 
L 152.068392 294.203825 
L 152.068392 293.677139 
L 152.130233 293.677139 
L 152.130233 293.150453 
L 152.922207 293.150453 
L 152.922207 292.623767 
L 156.394253 292.623767 
L 156.394253 292.097081 
L 157.139484 292.097081 
L 157.139484 291.570395 
L 157.283635 291.570395 
L 157.283635 291.043709 
L 157.596634 291.043709 
L 157.596634 290.517023 
L 158.140788 290.517023 
L 158.140788 289.990337 
L 158.238915 289.990337 
L 158.238915 289.463651 
L 158.471118 289.463651 
L 158.471118 288.936964 
L 161.251875 288.936964 
L 161.251875 288.410278 
L 161.320345 288.410278 
L 161.320345 287.883592 
L 161.560142 287.883592 
L 161.560142 287.356906 
L 161.6095 287.356906 
L 161.6095 286.83022 
L 162.770815 286.83022 
L 162.770815 286.303534 
L 163.144084 286.303534 
L 163.144084 285.776848 
L 163.291183 285.776848 
L 163.291183 285.250162 
L 163.673506 285.250162 
L 163.673506 284.723476 
L 163.992995 284.723476 
L 163.992995 284.19679 
L 164.01643 284.19679 
L 164.01643 283.670104 
L 164.15638 283.670104 
L 164.15638 283.143418 
L 164.723964 283.143418 
L 164.723964 282.616732 
L 165.270024 282.616732 
L 165.270024 282.090045 
L 165.576079 282.090045 
L 165.576079 281.563359 
L 166.395302 281.563359 
L 166.395302 281.036673 
L 166.615263 281.036673 
L 166.615263 280.509987 
L 166.752594 280.509987 
L 166.752594 279.983301 
L 167.132118 279.983301 
L 167.132118 279.456615 
L 168.097334 279.456615 
L 168.097334 278.929929 
L 168.109685 278.929929 
L 168.109685 278.403243 
L 168.403509 278.403243 
L 168.403509 277.876557 
L 169.428951 277.876557 
L 169.428951 277.349871 
L 169.434674 277.349871 
L 169.434674 276.823185 
L 169.833449 276.823185 
L 169.833449 276.296499 
L 169.86697 276.296499 
L 169.86697 275.769812 
L 170.000413 275.769812 
L 170.000413 275.243126 
L 170.40555 275.243126 
L 170.40555 274.71644 
L 171.893402 274.71644 
L 171.893402 274.189754 
L 172.803442 274.189754 
L 172.803442 273.663068 
L 184.904396 273.663068 
L 184.904396 273.136382 
L 185.067409 273.136382 
L 185.067409 272.609696 
L 185.530456 272.609696 
L 185.530456 272.08301 
L 186.519236 272.08301 
L 186.519236 271.556324 
L 186.53212 271.556324 
L 186.53212 271.029638 
L 187.720632 271.029638 
L 187.720632 269.976266 
L 195.641165 269.976266 
L 195.641165 269.449579 
L 199.814133 269.449579 
L 199.814133 268.922893 
L 204.76923 268.922893 
L 204.76923 268.396207 
L 211.008158 268.396207 
L 211.008158 267.869521 
L 217.516528 267.869521 
L 217.516528 267.342835 
L 338.688 267.342835 
" style="fill:none;stroke:#ff7500;stroke-linecap:square;stroke-width:1.5;"/>
   </g>
   <g id="line2d_46">
    <defs>
     <path d="M 0 -6 
L -1.347084 -1.854102 
L -5.706339 -1.854102 
L -2.179628 0.708204 
L -3.526712 4.854102 
L -0 2.291796 
L 3.526712 4.854102 
L 2.179628 0.708204 
L 5.706339 -1.854102 
L 1.347084 -1.854102 
z
" id="m98c892524d" style="stroke:#ff7500;stroke-linejoin:bevel;stroke-width:1.5;"/>
    </defs>
    <g>
     <use style="fill-opacity:0;stroke:#ff7500;stroke-linejoin:bevel;stroke-width:1.5;" x="172.803442" xlink:href="#m98c892524d" y="274.189754"/>
     <use style="fill-opacity:0;stroke:#ff7500;stroke-linejoin:bevel;stroke-width:1.5;" x="217.516528" xlink:href="#m98c892524d" y="267.869521"/>
     <use style="fill-opacity:0;stroke:#ff7500;stroke-linejoin:bevel;stroke-width:1.5;" x="217.516528" xlink:href="#m98c892524d" y="267.342835"/>
     <use style="fill-opacity:0;stroke:#ff7500;stroke-linejoin:bevel;stroke-width:1.5;" x="217.516528" xlink:href="#m98c892524d" y="267.342835"/>
     <use style="fill-opacity:0;stroke:#ff7500;stroke-linejoin:bevel;stroke-width:1.5;" x="338.688" xlink:href="#m98c892524d" y="267.342835"/>
    </g>
   </g>
   <g id="line2d_47">
    <path style="fill:none;stroke:#ff7500;stroke-linecap:square;stroke-width:1.5;"/>
    <g/>
   </g>
   <g id="line2d_48">
    <path clip-path="url(#p3f3d51b5ea)" d="M 178.066286 273.663068 
" style="fill:none;stroke:#ff7500;stroke-linecap:square;stroke-width:1.5;"/>
    <defs>
     <path d="M -12 12 
L 12 -12 
M -12 -12 
L 12 12 
" id="m792855e44f" style="stroke:#ff7500;"/>
    </defs>
    <g clip-path="url(#p3f3d51b5ea)">
     <use style="fill:#ff7500;stroke:#ff7500;" x="178.066286" xlink:href="#m792855e44f" y="273.663068"/>
    </g>
   </g>
   <g id="line2d_49">
    <defs>
     <path d="M 0 1.5 
C 0.397805 1.5 0.77937 1.341951 1.06066 1.06066 
C 1.341951 0.77937 1.5 0.397805 1.5 0 
C 1.5 -0.397805 1.341951 -0.77937 1.06066 -1.06066 
C 0.77937 -1.341951 0.397805 -1.5 0 -1.5 
C -0.397805 -1.5 -0.77937 -1.341951 -1.06066 -1.06066 
C -1.341951 -0.77937 -1.5 -0.397805 -1.5 0 
C -1.5 0.397805 -1.341951 0.77937 -1.06066 1.06066 
C -0.77937 1.341951 -0.397805 1.5 0 1.5 
z
" id="mcbf9eb29ef" style="stroke:#6495ed;"/>
    </defs>
    <g>
     <use style="fill:#6495ed;stroke:#6495ed;" x="250.036379" xlink:href="#mcbf9eb29ef" y="272.609696"/>
     <use style="fill:#6495ed;stroke:#6495ed;" x="250.036379" xlink:href="#mcbf9eb29ef" y="272.609696"/>
    </g>
   </g>
   <g id="line2d_50">
    <path d="M 158.524678 298.944 
L 158.524678 298.417314 
L 163.152289 298.417314 
L 163.152289 297.890628 
L 169.348639 297.890628 
L 169.348639 297.363942 
L 171.569909 297.363942 
L 171.569909 296.837256 
L 171.798732 296.837256 
L 171.798732 296.31057 
L 172.196359 296.31057 
L 172.196359 295.783884 
L 172.616138 295.783884 
L 172.616138 295.257197 
L 172.981755 295.257197 
L 172.981755 294.730511 
L 173.289481 294.730511 
L 173.289481 294.203825 
L 173.335289 294.203825 
L 173.335289 293.677139 
L 174.065485 293.677139 
L 174.065485 293.150453 
L 174.233581 293.150453 
L 174.233581 292.623767 
L 174.350507 292.623767 
L 174.350507 292.097081 
L 175.6777 292.097081 
L 175.6777 291.570395 
L 176.082938 291.570395 
L 176.082938 291.043709 
L 176.29077 291.043709 
L 176.29077 290.517023 
L 176.663276 290.517023 
L 176.663276 289.990337 
L 177.002059 289.990337 
L 177.002059 289.463651 
L 177.016882 289.463651 
L 177.016882 288.936964 
L 177.201114 288.936964 
L 177.201114 288.410278 
L 177.252352 288.410278 
L 177.252352 287.883592 
L 177.270615 287.883592 
L 177.270615 287.356906 
L 177.464841 287.356906 
L 177.464841 286.83022 
L 177.806255 286.83022 
L 177.806255 286.303534 
L 177.815104 286.303534 
L 177.815104 285.776848 
L 189.637465 285.776848 
L 189.637465 285.250162 
L 190.029135 285.250162 
L 190.029135 284.723476 
L 190.082626 284.723476 
L 190.082626 284.19679 
L 196.464878 284.19679 
L 196.464878 283.670104 
L 196.653308 283.670104 
L 196.653308 283.143418 
L 197.141968 283.143418 
L 197.141968 282.616732 
L 201.815042 282.616732 
L 201.815042 282.090045 
L 202.017599 282.090045 
L 202.017599 281.563359 
L 205.754692 281.563359 
L 205.754692 281.036673 
L 206.083778 281.036673 
L 206.083778 280.509987 
L 209.270213 280.509987 
L 209.270213 279.456615 
L 211.890091 279.456615 
L 211.890091 278.929929 
L 211.965897 278.929929 
L 211.965897 278.403243 
L 214.218281 278.403243 
L 214.218281 277.876557 
L 219.802494 277.876557 
L 219.802494 276.823185 
L 219.860376 276.823185 
L 219.860376 276.296499 
L 222.728339 276.296499 
L 222.728339 275.769812 
L 224.071103 275.769812 
L 224.071103 275.243126 
L 225.275519 275.243126 
L 225.275519 274.71644 
L 228.457946 274.71644 
L 228.457946 274.189754 
L 230.296793 274.189754 
L 230.296793 273.663068 
L 234.875217 273.663068 
L 234.875217 273.136382 
L 250.036379 273.136382 
L 250.036379 272.609696 
L 338.688 272.609696 
" style="fill:none;stroke:#6495ed;stroke-linecap:square;stroke-width:1.5;"/>
   </g>
   <g id="line2d_51">
    <defs>
     <path d="M -0 6 
L 6 -6 
L -6 -6 
z
" id="m74fefc12e7" style="stroke:#6495ed;stroke-linejoin:miter;stroke-width:1.5;"/>
    </defs>
    <g>
     <use style="fill-opacity:0;stroke:#6495ed;stroke-linejoin:miter;stroke-width:1.5;" x="197.141968" xlink:href="#m74fefc12e7" y="282.616732"/>
     <use style="fill-opacity:0;stroke:#6495ed;stroke-linejoin:miter;stroke-width:1.5;" x="250.036379" xlink:href="#m74fefc12e7" y="273.136382"/>
     <use style="fill-opacity:0;stroke:#6495ed;stroke-linejoin:miter;stroke-width:1.5;" x="250.036379" xlink:href="#m74fefc12e7" y="272.609696"/>
     <use style="fill-opacity:0;stroke:#6495ed;stroke-linejoin:miter;stroke-width:1.5;" x="338.688" xlink:href="#m74fefc12e7" y="272.609696"/>
    </g>
   </g>
   <g id="line2d_52">
    <path style="fill:none;stroke:#6495ed;stroke-linecap:square;stroke-width:1.5;"/>
    <g/>
   </g>
   <g id="line2d_53">
    <path clip-path="url(#p3f3d51b5ea)" d="M 178.066286 285.776848 
" style="fill:none;stroke:#6495ed;stroke-linecap:square;stroke-width:1.5;"/>
    <defs>
     <path d="M -12 12 
L 12 -12 
M -12 -12 
L 12 12 
" id="m07346e483c" style="stroke:#6495ed;"/>
    </defs>
    <g clip-path="url(#p3f3d51b5ea)">
     <use style="fill:#6495ed;stroke:#6495ed;" x="178.066286" xlink:href="#m07346e483c" y="285.776848"/>
    </g>
   </g>
   <g id="line2d_54">
    <defs>
     <path d="M 0 1.5 
C 0.397805 1.5 0.77937 1.341951 1.06066 1.06066 
C 1.341951 0.77937 1.5 0.397805 1.5 0 
C 1.5 -0.397805 1.341951 -0.77937 1.06066 -1.06066 
C 0.77937 -1.341951 0.397805 -1.5 0 -1.5 
C -0.397805 -1.5 -0.77937 -1.341951 -1.06066 -1.06066 
C -1.341951 -0.77937 -1.5 -0.397805 -1.5 0 
C -1.5 0.397805 -1.341951 0.77937 -1.06066 1.06066 
C -0.77937 1.341951 -0.397805 1.5 0 1.5 
z
" id="m8b39961868" style="stroke:#ff0000;"/>
    </defs>
    <g>
     <use style="fill:#ff0000;stroke:#ff0000;" x="245.515557" xlink:href="#m8b39961868" y="251.542253"/>
     <use style="fill:#ff0000;stroke:#ff0000;" x="245.515557" xlink:href="#m8b39961868" y="251.542253"/>
    </g>
   </g>
   <g id="line2d_55">
    <path d="M 135.117629 298.944 
L 135.117629 298.417314 
L 137.071324 298.417314 
L 137.071324 297.890628 
L 137.198951 297.890628 
L 137.198951 297.363942 
L 137.928288 297.363942 
L 137.928288 296.837256 
L 138.811478 296.837256 
L 138.811478 296.31057 
L 141.830201 296.31057 
L 141.830201 295.783884 
L 142.472881 295.783884 
L 142.472881 295.257197 
L 143.260342 295.257197 
L 143.260342 294.730511 
L 143.803587 294.730511 
L 143.853271 293.677139 
L 144.993499 293.677139 
L 144.993499 293.150453 
L 146.194362 293.150453 
L 146.194362 292.623767 
L 146.707319 292.623767 
L 146.707319 292.097081 
L 148.648676 292.097081 
L 148.667509 291.043709 
L 148.94759 291.043709 
L 148.94759 290.517023 
L 151.389366 290.517023 
L 151.389366 289.990337 
L 151.676833 289.990337 
L 151.676833 289.463651 
L 155.354745 289.463651 
L 155.354745 288.936964 
L 155.55879 288.936964 
L 155.55879 288.410278 
L 156.327657 288.410278 
L 156.327657 287.883592 
L 156.646219 287.883592 
L 156.646219 287.356906 
L 157.652944 287.356906 
L 157.652944 286.83022 
L 158.358103 286.83022 
L 158.358103 286.303534 
L 159.733212 286.303534 
L 159.837683 285.250162 
L 159.906985 285.250162 
L 159.906985 284.723476 
L 161.893939 284.723476 
L 161.893939 284.19679 
L 162.134726 284.19679 
L 162.134726 283.670104 
L 162.372234 283.670104 
L 162.372234 283.143418 
L 163.384517 283.143418 
L 163.384517 282.616732 
L 165.299059 282.616732 
L 165.338904 281.563359 
L 166.507321 281.563359 
L 166.507321 281.036673 
L 166.845764 281.036673 
L 166.845764 280.509987 
L 167.167992 280.509987 
L 167.167992 279.983301 
L 167.503559 279.983301 
L 167.503559 279.456615 
L 168.140524 279.456615 
L 168.140524 278.929929 
L 168.333563 278.929929 
L 168.439892 277.349871 
L 168.572648 277.349871 
L 168.572648 276.823185 
L 169.316986 276.823185 
L 169.316986 276.296499 
L 169.892068 276.296499 
L 169.892068 275.769812 
L 170.16305 275.769812 
L 170.16305 275.243126 
L 171.217072 275.243126 
L 171.217072 274.71644 
L 171.858583 274.71644 
L 171.893402 273.663068 
L 173.294067 273.663068 
L 173.294067 273.136382 
L 174.014959 273.136382 
L 174.014959 272.609696 
L 174.257463 272.609696 
L 174.257463 272.08301 
L 174.428025 272.08301 
L 174.428025 271.556324 
L 174.827334 271.556324 
L 174.827334 271.029638 
L 174.944531 271.029638 
L 174.944531 270.502952 
L 175.761495 270.502952 
L 175.761495 269.976266 
L 175.939711 269.976266 
L 175.939711 269.449579 
L 176.811953 269.449579 
L 176.811953 268.922893 
L 177.153401 268.922893 
L 177.153401 268.396207 
L 177.272441 268.396207 
L 177.370721 267.342835 
L 187.326215 267.342835 
L 187.326215 266.816149 
L 187.888251 266.816149 
L 187.888251 266.289463 
L 188.609886 266.289463 
L 188.609886 265.762777 
L 189.538383 265.762777 
L 189.538383 265.236091 
L 189.703804 265.236091 
L 189.80996 263.129347 
L 196.211045 263.129347 
L 196.211045 262.075974 
L 196.490363 262.075974 
L 196.578663 260.495916 
L 201.401357 260.495916 
L 201.487159 258.915858 
L 201.667423 258.915858 
L 201.759551 257.3358 
L 205.278081 257.3358 
L 205.278081 256.809114 
L 216.015563 256.809114 
L 216.015563 256.282427 
L 217.890202 256.282427 
L 217.890202 255.229055 
L 219.709866 255.229055 
L 219.709866 254.702369 
L 222.54271 254.702369 
L 222.54271 254.175683 
L 231.123574 254.175683 
L 231.123574 253.648997 
L 236.071646 253.648997 
L 236.071646 253.122311 
L 238.413609 253.122311 
L 238.413609 252.595625 
L 243.178034 252.595625 
L 243.178034 252.068939 
L 245.515557 252.068939 
L 245.515557 251.542253 
L 338.688 251.542253 
L 338.688 251.542253 
" style="fill:none;stroke:#ff0000;stroke-linecap:square;stroke-width:1.5;"/>
   </g>
   <g id="line2d_56">
    <defs>
     <path d="M 0 -6 
L -5.196152 -3 
L -5.196152 3 
L -0 6 
L 5.196152 3 
L 5.196152 -3 
z
" id="m414e9dd84e" style="stroke:#ff0000;stroke-linejoin:miter;stroke-width:1.5;"/>
    </defs>
    <g>
     <use style="fill-opacity:0;stroke:#ff0000;stroke-linejoin:miter;stroke-width:1.5;" x="175.939711" xlink:href="#m414e9dd84e" y="269.449579"/>
     <use style="fill-opacity:0;stroke:#ff0000;stroke-linejoin:miter;stroke-width:1.5;" x="222.54271" xlink:href="#m414e9dd84e" y="254.175683"/>
     <use style="fill-opacity:0;stroke:#ff0000;stroke-linejoin:miter;stroke-width:1.5;" x="245.515557" xlink:href="#m414e9dd84e" y="251.542253"/>
     <use style="fill-opacity:0;stroke:#ff0000;stroke-linejoin:miter;stroke-width:1.5;" x="245.515557" xlink:href="#m414e9dd84e" y="251.542253"/>
     <use style="fill-opacity:0;stroke:#ff0000;stroke-linejoin:miter;stroke-width:1.5;" x="338.688" xlink:href="#m414e9dd84e" y="251.542253"/>
    </g>
   </g>
   <g id="line2d_57">
    <path style="fill:none;stroke:#ff0000;stroke-linecap:square;stroke-width:1.5;"/>
    <g/>
   </g>
   <g id="line2d_58">
    <path clip-path="url(#p3f3d51b5ea)" d="M 178.066286 267.342835 
" style="fill:none;stroke:#ff0000;stroke-linecap:square;stroke-width:1.5;"/>
    <defs>
     <path d="M -12 12 
L 12 -12 
M -12 -12 
L 12 12 
" id="m2a03d4e2b9" style="stroke:#ff0000;"/>
    </defs>
    <g clip-path="url(#p3f3d51b5ea)">
     <use style="fill:#ff0000;stroke:#ff0000;" x="178.066286" xlink:href="#m2a03d4e2b9" y="267.342835"/>
    </g>
   </g>
   <g id="line2d_59">
    <defs>
     <path d="M 0 1.5 
C 0.397805 1.5 0.77937 1.341951 1.06066 1.06066 
C 1.341951 0.77937 1.5 0.397805 1.5 0 
C 1.5 -0.397805 1.341951 -0.77937 1.06066 -1.06066 
C 0.77937 -1.341951 0.397805 -1.5 0 -1.5 
C -0.397805 -1.5 -0.77937 -1.341951 -1.06066 -1.06066 
C -1.341951 -0.77937 -1.5 -0.397805 -1.5 0 
C -1.5 0.397805 -1.341951 0.77937 -1.06066 1.06066 
C -0.77937 1.341951 -0.397805 1.5 0 1.5 
z
" id="mc2b91352d2" style="stroke:#9acd32;"/>
    </defs>
    <g>
     <use style="fill:#9acd32;stroke:#9acd32;" x="206.118722" xlink:href="#mc2b91352d2" y="256.809114"/>
     <use style="fill:#9acd32;stroke:#9acd32;" x="206.118722" xlink:href="#mc2b91352d2" y="256.809114"/>
    </g>
   </g>
   <g id="line2d_60">
    <path d="M 125.996395 298.944 
L 125.996395 298.417314 
L 129.742212 298.417314 
L 129.742212 297.890628 
L 130.425122 297.890628 
L 130.45189 296.837256 
L 135.199312 296.837256 
L 135.199312 296.31057 
L 135.800036 296.31057 
L 135.800036 295.783884 
L 136.380754 295.783884 
L 136.380754 295.257197 
L 137.034686 295.257197 
L 137.034686 294.730511 
L 137.325651 294.730511 
L 137.325651 294.203825 
L 138.01518 294.203825 
L 138.01518 293.677139 
L 138.861092 293.677139 
L 138.910565 292.623767 
L 139.058148 292.623767 
L 139.058148 292.097081 
L 139.715103 292.097081 
L 139.715103 291.570395 
L 141.104941 291.570395 
L 141.104941 291.043709 
L 141.249546 291.043709 
L 141.249546 290.517023 
L 143.451774 290.517023 
L 143.451774 289.990337 
L 143.816021 289.990337 
L 143.853271 288.410278 
L 146.717846 288.410278 
L 146.717846 287.883592 
L 149.113504 287.883592 
L 149.113504 287.356906 
L 151.700576 287.356906 
L 151.716387 286.303534 
L 151.865879 286.303534 
L 151.865879 285.776848 
L 152.496747 285.776848 
L 152.496747 285.250162 
L 152.818666 285.250162 
L 152.818666 284.723476 
L 153.185667 284.723476 
L 153.25815 283.670104 
L 154.607795 283.670104 
L 154.607795 283.143418 
L 155.647315 283.143418 
L 155.647315 282.616732 
L 157.647321 282.616732 
L 157.647321 281.563359 
L 161.880709 281.563359 
L 161.880709 281.036673 
L 162.342185 281.036673 
L 162.342185 280.509987 
L 166.162181 280.509987 
L 166.162181 279.983301 
L 166.547878 279.983301 
L 166.547878 279.456615 
L 166.865664 279.456615 
L 166.865664 278.929929 
L 167.442734 278.929929 
L 167.442734 278.403243 
L 167.659453 278.403243 
L 167.659453 277.876557 
L 167.801403 277.876557 
L 167.801403 276.823185 
L 168.418678 276.823185 
L 168.418678 276.296499 
L 168.722291 276.296499 
L 168.731229 275.243126 
L 169.014849 275.243126 
L 169.014849 274.71644 
L 169.87255 274.71644 
L 169.87255 274.189754 
L 171.343174 274.189754 
L 171.361114 273.136382 
L 171.597729 273.136382 
L 171.605309 272.08301 
L 171.972728 272.08301 
L 171.972728 271.556324 
L 172.095957 271.556324 
L 172.095957 271.029638 
L 172.23782 271.029638 
L 172.23782 270.502952 
L 172.462909 270.502952 
L 172.462909 269.976266 
L 172.580345 269.976266 
L 172.580345 269.449579 
L 172.704113 269.449579 
L 172.742019 267.869521 
L 172.824653 267.869521 
L 172.824653 267.342835 
L 173.051642 267.342835 
L 173.051642 266.816149 
L 173.39694 266.816149 
L 173.39694 266.289463 
L 174.067679 266.289463 
L 174.067679 265.762777 
L 175.027764 265.762777 
L 175.027764 265.236091 
L 175.336395 265.236091 
L 175.338435 264.182719 
L 176.133667 264.182719 
L 176.133667 263.656033 
L 176.710463 263.656033 
L 176.808204 262.60266 
L 177.376165 262.60266 
L 177.44678 261.549288 
L 177.538694 261.549288 
L 177.538694 261.022602 
L 177.715744 261.022602 
L 177.715744 260.495916 
L 177.991135 260.495916 
L 177.991135 259.96923 
L 189.892474 259.96923 
L 189.892474 259.442544 
L 190.116739 259.442544 
L 190.116739 258.915858 
L 196.665318 258.915858 
L 196.665318 258.389172 
L 197.20028 258.389172 
L 197.20028 257.862486 
L 205.799902 257.862486 
L 205.799902 257.3358 
L 206.118722 257.3358 
L 206.118722 256.809114 
L 338.688 256.809114 
L 338.688 256.809114 
" style="fill:none;stroke:#9acd32;stroke-linecap:square;stroke-width:1.5;"/>
   </g>
   <g id="line2d_61">
    <defs>
     <path d="M 0 -6 
L -6 6 
L 6 6 
z
" id="mfff8083cc1" style="stroke:#9acd32;stroke-linejoin:miter;stroke-width:1.5;"/>
    </defs>
    <g>
     <use style="fill-opacity:0;stroke:#9acd32;stroke-linejoin:miter;stroke-width:1.5;" x="177.991135" xlink:href="#mfff8083cc1" y="259.96923"/>
     <use style="fill-opacity:0;stroke:#9acd32;stroke-linejoin:miter;stroke-width:1.5;" x="206.118722" xlink:href="#mfff8083cc1" y="257.3358"/>
     <use style="fill-opacity:0;stroke:#9acd32;stroke-linejoin:miter;stroke-width:1.5;" x="206.118722" xlink:href="#mfff8083cc1" y="256.809114"/>
     <use style="fill-opacity:0;stroke:#9acd32;stroke-linejoin:miter;stroke-width:1.5;" x="206.118722" xlink:href="#mfff8083cc1" y="256.809114"/>
     <use style="fill-opacity:0;stroke:#9acd32;stroke-linejoin:miter;stroke-width:1.5;" x="338.688" xlink:href="#mfff8083cc1" y="256.809114"/>
    </g>
   </g>
   <g id="line2d_62">
    <path style="fill:none;stroke:#9acd32;stroke-linecap:square;stroke-width:1.5;"/>
    <g/>
   </g>
   <g id="line2d_63">
    <path clip-path="url(#p3f3d51b5ea)" d="M 178.066286 259.96923 
" style="fill:none;stroke:#9acd32;stroke-linecap:square;stroke-width:1.5;"/>
    <defs>
     <path d="M -12 12 
L 12 -12 
M -12 -12 
L 12 12 
" id="m4e7e87aded" style="stroke:#9acd32;"/>
    </defs>
    <g clip-path="url(#p3f3d51b5ea)">
     <use style="fill:#9acd32;stroke:#9acd32;" x="178.066286" xlink:href="#m4e7e87aded" y="259.96923"/>
    </g>
   </g>
   <g id="line2d_64">
    <defs>
     <path d="M 0 1.5 
C 0.397805 1.5 0.77937 1.341951 1.06066 1.06066 
C 1.341951 0.77937 1.5 0.397805 1.5 0 
C 1.5 -0.397805 1.341951 -0.77937 1.06066 -1.06066 
C 0.77937 -1.341951 0.397805 -1.5 0 -1.5 
C -0.397805 -1.5 -0.77937 -1.341951 -1.06066 -1.06066 
C -1.341951 -0.77937 -1.5 -0.397805 -1.5 0 
C -1.5 0.397805 -1.341951 0.77937 -1.06066 1.06066 
C -0.77937 1.341951 -0.397805 1.5 0 1.5 
z
" id="m472882f136" style="stroke:#00bfbf;"/>
    </defs>
    <g>
     <use style="fill:#00bfbf;stroke:#00bfbf;" x="229.972679" xlink:href="#m472882f136" y="277.876557"/>
     <use style="fill:#00bfbf;stroke:#00bfbf;" x="229.972679" xlink:href="#m472882f136" y="277.876557"/>
    </g>
   </g>
   <g id="line2d_65">
    <path d="M 131.839545 298.944 
L 131.839545 298.417314 
L 140.042245 298.417314 
L 140.042245 297.890628 
L 141.075875 297.890628 
L 141.075875 297.363942 
L 142.311031 297.363942 
L 142.311031 296.837256 
L 142.526499 296.837256 
L 142.526499 296.31057 
L 143.51512 296.31057 
L 143.51512 295.783884 
L 143.60342 295.783884 
L 143.60342 295.257197 
L 144.794859 295.257197 
L 144.794859 294.730511 
L 144.993499 294.730511 
L 144.993499 294.203825 
L 147.174888 294.203825 
L 147.174888 293.150453 
L 148.966103 293.150453 
L 148.966103 292.623767 
L 150.899466 292.623767 
L 150.899466 292.097081 
L 153.337534 292.097081 
L 153.337534 291.570395 
L 155.096285 291.570395 
L 155.096285 291.043709 
L 158.20082 291.043709 
L 158.20082 290.517023 
L 158.774233 290.517023 
L 158.774233 289.990337 
L 161.012409 289.990337 
L 161.012409 289.463651 
L 161.92917 289.463651 
L 161.92917 288.936964 
L 163.164589 288.936964 
L 163.164589 288.410278 
L 164.535552 288.410278 
L 164.535552 287.883592 
L 166.497167 287.883592 
L 166.497167 287.356906 
L 168.060229 287.356906 
L 168.060229 286.83022 
L 168.143604 286.83022 
L 168.143604 286.303534 
L 169.650749 286.303534 
L 169.650749 285.776848 
L 170.34592 285.776848 
L 170.34592 285.250162 
L 175.93774 285.250162 
L 175.93774 284.723476 
L 186.717873 284.723476 
L 186.717873 284.19679 
L 189.122456 284.19679 
L 189.122456 283.670104 
L 194.150754 283.670104 
L 194.150754 283.143418 
L 194.844706 283.143418 
L 194.844706 282.616732 
L 200.487974 282.616732 
L 200.487974 282.090045 
L 204.744697 282.090045 
L 204.744697 281.036673 
L 205.696494 281.036673 
L 205.696494 280.509987 
L 208.163578 280.509987 
L 208.163578 279.983301 
L 223.606068 279.983301 
L 223.606068 279.456615 
L 224.841906 279.456615 
L 224.841906 278.929929 
L 225.995933 278.929929 
L 225.995933 278.403243 
L 229.972679 278.403243 
L 229.972679 277.876557 
L 338.688 277.876557 
" style="fill:none;stroke:#00bfbf;stroke-linecap:square;stroke-width:1.5;"/>
   </g>
   <g id="line2d_66">
    <defs>
     <path d="M 0 -6 
L -5.706339 -1.854102 
L -3.526712 4.854102 
L 3.526712 4.854102 
L 5.706339 -1.854102 
z
" id="mf0b2421df4" style="stroke:#00bfbf;stroke-linejoin:miter;stroke-width:1.5;"/>
    </defs>
    <g>
     <use style="fill-opacity:0;stroke:#00bfbf;stroke-linejoin:miter;stroke-width:1.5;" x="170.34592" xlink:href="#mf0b2421df4" y="285.776848"/>
     <use style="fill-opacity:0;stroke:#00bfbf;stroke-linejoin:miter;stroke-width:1.5;" x="225.995933" xlink:href="#mf0b2421df4" y="278.929929"/>
     <use style="fill-opacity:0;stroke:#00bfbf;stroke-linejoin:miter;stroke-width:1.5;" x="229.972679" xlink:href="#mf0b2421df4" y="277.876557"/>
     <use style="fill-opacity:0;stroke:#00bfbf;stroke-linejoin:miter;stroke-width:1.5;" x="229.972679" xlink:href="#mf0b2421df4" y="277.876557"/>
     <use style="fill-opacity:0;stroke:#00bfbf;stroke-linejoin:miter;stroke-width:1.5;" x="338.688" xlink:href="#mf0b2421df4" y="277.876557"/>
    </g>
   </g>
   <g id="line2d_67">
    <path style="fill:none;stroke:#00bfbf;stroke-linecap:square;stroke-width:1.5;"/>
    <g/>
   </g>
   <g id="line2d_68">
    <path clip-path="url(#p3f3d51b5ea)" d="M 178.066286 284.723476 
" style="fill:none;stroke:#00bfbf;stroke-linecap:square;stroke-width:1.5;"/>
    <defs>
     <path d="M -12 12 
L 12 -12 
M -12 -12 
L 12 12 
" id="mb858c15947" style="stroke:#00bfbf;"/>
    </defs>
    <g clip-path="url(#p3f3d51b5ea)">
     <use style="fill:#00bfbf;stroke:#00bfbf;" x="178.066286" xlink:href="#mb858c15947" y="284.723476"/>
    </g>
   </g>
   <g id="line2d_69">
    <path d="M 338.688 277.876557 
L 369.60768 293.571802 
" style="fill:none;stroke:#00bfbf;stroke-linecap:square;stroke-width:1.5;"/>
    <g>
     <use style="fill-opacity:0;stroke:#00bfbf;stroke-linejoin:miter;stroke-width:1.5;" x="338.688" xlink:href="#mf0b2421df4" y="277.876557"/>
     <use style="fill-opacity:0;stroke:#00bfbf;stroke-linejoin:miter;stroke-width:1.5;" x="369.60768" xlink:href="#mf0b2421df4" y="293.571802"/>
    </g>
   </g>
   <g id="line2d_70">
    <path d="M 338.688 272.609696 
L 369.60768 256.733873 
" style="fill:none;stroke:#6495ed;stroke-linecap:square;stroke-width:1.5;"/>
    <g>
     <use style="fill-opacity:0;stroke:#6495ed;stroke-linejoin:miter;stroke-width:1.5;" x="338.688" xlink:href="#m74fefc12e7" y="272.609696"/>
     <use style="fill-opacity:0;stroke:#6495ed;stroke-linejoin:miter;stroke-width:1.5;" x="369.60768" xlink:href="#m74fefc12e7" y="256.733873"/>
    </g>
   </g>
   <g id="line2d_71">
    <path d="M 338.688 267.342835 
L 369.60768 219.895943 
" style="fill:none;stroke:#ff7500;stroke-linecap:square;stroke-width:1.5;"/>
    <g>
     <use style="fill-opacity:0;stroke:#ff7500;stroke-linejoin:bevel;stroke-width:1.5;" x="338.688" xlink:href="#m98c892524d" y="267.342835"/>
     <use style="fill-opacity:0;stroke:#ff7500;stroke-linejoin:bevel;stroke-width:1.5;" x="369.60768" xlink:href="#m98c892524d" y="219.895943"/>
    </g>
   </g>
   <g id="line2d_72">
    <path d="M 338.688 262.075974 
L 369.60768 183.058014 
" style="fill:none;stroke:#000080;stroke-linecap:square;stroke-width:1.5;"/>
    <g>
     <use style="fill-opacity:0;stroke:#000080;stroke-width:1.5;" x="338.688" xlink:href="#m85d9d1399a" y="262.075974"/>
     <use style="fill-opacity:0;stroke:#000080;stroke-width:1.5;" x="369.60768" xlink:href="#m85d9d1399a" y="183.058014"/>
    </g>
   </g>
   <g id="line2d_73">
    <path d="M 338.688 256.809114 
L 369.60768 146.220085 
" style="fill:none;stroke:#ff00ff;stroke-linecap:square;stroke-width:1.5;"/>
    <g>
     <use style="fill-opacity:0;stroke:#ff00ff;stroke-linejoin:miter;stroke-width:1.5;" x="338.688" xlink:href="#mfde1f7802b" y="256.809114"/>
     <use style="fill-opacity:0;stroke:#ff00ff;stroke-linejoin:miter;stroke-width:1.5;" x="369.60768" xlink:href="#mfde1f7802b" y="146.220085"/>
    </g>
   </g>
   <g id="line2d_74">
    <path d="M 338.688 256.809114 
L 369.60768 109.382156 
" style="fill:none;stroke:#9acd32;stroke-linecap:square;stroke-width:1.5;"/>
    <g>
     <use style="fill-opacity:0;stroke:#9acd32;stroke-linejoin:miter;stroke-width:1.5;" x="338.688" xlink:href="#mfff8083cc1" y="256.809114"/>
     <use style="fill-opacity:0;stroke:#9acd32;stroke-linejoin:miter;stroke-width:1.5;" x="369.60768" xlink:href="#mfff8083cc1" y="109.382156"/>
    </g>
   </g>
   <g id="line2d_75">
    <path d="M 338.688 251.542253 
L 369.60768 72.544226 
" style="fill:none;stroke:#ff0000;stroke-linecap:square;stroke-width:1.5;"/>
    <g>
     <use style="fill-opacity:0;stroke:#ff0000;stroke-linejoin:miter;stroke-width:1.5;" x="338.688" xlink:href="#m414e9dd84e" y="251.542253"/>
     <use style="fill-opacity:0;stroke:#ff0000;stroke-linejoin:miter;stroke-width:1.5;" x="369.60768" xlink:href="#m414e9dd84e" y="72.544226"/>
    </g>
   </g>
   <g id="line2d_76">
    <path d="M 338.688 298.944 
L 338.688 30.334099 
" style="fill:none;stroke:#000000;stroke-linecap:square;stroke-width:1.5;"/>
   </g>
   <g id="patch_3">
    <path d="M 57.6 298.944 
L 57.6 27.648 
" style="fill:none;stroke:#000000;stroke-linecap:square;stroke-linejoin:miter;stroke-width:0.8;"/>
   </g>
   <g id="patch_4">
    <path d="M 338.688 298.944 
L 338.688 27.648 
" style="fill:none;stroke:#000000;stroke-linecap:square;stroke-linejoin:miter;stroke-width:0.8;"/>
   </g>
   <g id="patch_5">
    <path d="M 57.6 298.944 
L 338.688 298.944 
" style="fill:none;stroke:#000000;stroke-linecap:square;stroke-linejoin:miter;stroke-width:0.8;"/>
   </g>
   <g id="patch_6">
    <path d="M 57.6 27.648 
L 338.688 27.648 
" style="fill:none;stroke:#000000;stroke-linecap:square;stroke-linejoin:miter;stroke-width:0.8;"/>
   </g>
   <g id="text_13">
    <!-- DEAE -->
    <g transform="translate(375.22944 298.262739)scale(0.17 -0.17)">
     <defs>
      <path d="M 1259 4147 
L 1259 519 
L 2022 519 
Q 2988 519 3436 956 
Q 3884 1394 3884 2338 
Q 3884 3275 3436 3711 
Q 2988 4147 2022 4147 
L 1259 4147 
z
M 628 4666 
L 1925 4666 
Q 3281 4666 3915 4102 
Q 4550 3538 4550 2338 
Q 4550 1131 3912 565 
Q 3275 0 1925 0 
L 628 0 
L 628 4666 
z
" id="DejaVuSans-44" transform="scale(0.015625)"/>
      <path d="M 628 4666 
L 3578 4666 
L 3578 4134 
L 1259 4134 
L 1259 2753 
L 3481 2753 
L 3481 2222 
L 1259 2222 
L 1259 531 
L 3634 531 
L 3634 0 
L 628 0 
L 628 4666 
z
" id="DejaVuSans-45" transform="scale(0.015625)"/>
      <path d="M 2188 4044 
L 1331 1722 
L 3047 1722 
L 2188 4044 
z
M 1831 4666 
L 2547 4666 
L 4325 0 
L 3669 0 
L 3244 1197 
L 1141 1197 
L 716 0 
L 50 0 
L 1831 4666 
z
" id="DejaVuSans-41" transform="scale(0.015625)"/>
     </defs>
     <use xlink:href="#DejaVuSans-44"/>
     <use x="77.001953" xlink:href="#DejaVuSans-45"/>
     <use x="140.185547" xlink:href="#DejaVuSans-41"/>
     <use x="208.59375" xlink:href="#DejaVuSans-45"/>
    </g>
   </g>
   <g id="text_14">
    <!-- PSO EDA -->
    <g transform="translate(375.22944 261.42481)scale(0.17 -0.17)">
     <defs>
      <path d="M 1259 4147 
L 1259 2394 
L 2053 2394 
Q 2494 2394 2734 2622 
Q 2975 2850 2975 3272 
Q 2975 3691 2734 3919 
Q 2494 4147 2053 4147 
L 1259 4147 
z
M 628 4666 
L 2053 4666 
Q 2838 4666 3239 4311 
Q 3641 3956 3641 3272 
Q 3641 2581 3239 2228 
Q 2838 1875 2053 1875 
L 1259 1875 
L 1259 0 
L 628 0 
L 628 4666 
z
" id="DejaVuSans-50" transform="scale(0.015625)"/>
      <path d="M 3425 4513 
L 3425 3897 
Q 3066 4069 2747 4153 
Q 2428 4238 2131 4238 
Q 1616 4238 1336 4038 
Q 1056 3838 1056 3469 
Q 1056 3159 1242 3001 
Q 1428 2844 1947 2747 
L 2328 2669 
Q 3034 2534 3370 2195 
Q 3706 1856 3706 1288 
Q 3706 609 3251 259 
Q 2797 -91 1919 -91 
Q 1588 -91 1214 -16 
Q 841 59 441 206 
L 441 856 
Q 825 641 1194 531 
Q 1563 422 1919 422 
Q 2459 422 2753 634 
Q 3047 847 3047 1241 
Q 3047 1584 2836 1778 
Q 2625 1972 2144 2069 
L 1759 2144 
Q 1053 2284 737 2584 
Q 422 2884 422 3419 
Q 422 4038 858 4394 
Q 1294 4750 2059 4750 
Q 2388 4750 2728 4690 
Q 3069 4631 3425 4513 
z
" id="DejaVuSans-53" transform="scale(0.015625)"/>
      <path d="M 2522 4238 
Q 1834 4238 1429 3725 
Q 1025 3213 1025 2328 
Q 1025 1447 1429 934 
Q 1834 422 2522 422 
Q 3209 422 3611 934 
Q 4013 1447 4013 2328 
Q 4013 3213 3611 3725 
Q 3209 4238 2522 4238 
z
M 2522 4750 
Q 3503 4750 4090 4092 
Q 4678 3434 4678 2328 
Q 4678 1225 4090 567 
Q 3503 -91 2522 -91 
Q 1538 -91 948 565 
Q 359 1222 359 2328 
Q 359 3434 948 4092 
Q 1538 4750 2522 4750 
z
" id="DejaVuSans-4f" transform="scale(0.015625)"/>
     </defs>
     <use xlink:href="#DejaVuSans-50"/>
     <use x="60.302734" xlink:href="#DejaVuSans-53"/>
     <use x="123.779297" xlink:href="#DejaVuSans-4f"/>
     <use x="202.490234" xlink:href="#DejaVuSans-20"/>
     <use x="234.277344" xlink:href="#DejaVuSans-45"/>
     <use x="297.460938" xlink:href="#DejaVuSans-44"/>
     <use x="372.712891" xlink:href="#DejaVuSans-41"/>
    </g>
   </g>
   <g id="text_15">
    <!-- PSO Bound -->
    <g transform="translate(375.22944 224.586881)scale(0.17 -0.17)">
     <defs>
      <path d="M 1259 2228 
L 1259 519 
L 2272 519 
Q 2781 519 3026 730 
Q 3272 941 3272 1375 
Q 3272 1813 3026 2020 
Q 2781 2228 2272 2228 
L 1259 2228 
z
M 1259 4147 
L 1259 2741 
L 2194 2741 
Q 2656 2741 2882 2914 
Q 3109 3088 3109 3444 
Q 3109 3797 2882 3972 
Q 2656 4147 2194 4147 
L 1259 4147 
z
M 628 4666 
L 2241 4666 
Q 2963 4666 3353 4366 
Q 3744 4066 3744 3513 
Q 3744 3084 3544 2831 
Q 3344 2578 2956 2516 
Q 3422 2416 3680 2098 
Q 3938 1781 3938 1306 
Q 3938 681 3513 340 
Q 3088 0 2303 0 
L 628 0 
L 628 4666 
z
" id="DejaVuSans-42" transform="scale(0.015625)"/>
     </defs>
     <use xlink:href="#DejaVuSans-50"/>
     <use x="60.302734" xlink:href="#DejaVuSans-53"/>
     <use x="123.779297" xlink:href="#DejaVuSans-4f"/>
     <use x="202.490234" xlink:href="#DejaVuSans-20"/>
     <use x="234.277344" xlink:href="#DejaVuSans-42"/>
     <use x="302.880859" xlink:href="#DejaVuSans-6f"/>
     <use x="364.0625" xlink:href="#DejaVuSans-75"/>
     <use x="427.441406" xlink:href="#DejaVuSans-6e"/>
     <use x="490.820312" xlink:href="#DejaVuSans-64"/>
    </g>
   </g>
   <g id="text_16">
    <!-- Bin GA -->
    <g transform="translate(375.22944 187.748952)scale(0.17 -0.17)">
     <defs>
      <path d="M 3809 666 
L 3809 1919 
L 2778 1919 
L 2778 2438 
L 4434 2438 
L 4434 434 
Q 4069 175 3628 42 
Q 3188 -91 2688 -91 
Q 1594 -91 976 548 
Q 359 1188 359 2328 
Q 359 3472 976 4111 
Q 1594 4750 2688 4750 
Q 3144 4750 3555 4637 
Q 3966 4525 4313 4306 
L 4313 3634 
Q 3963 3931 3569 4081 
Q 3175 4231 2741 4231 
Q 1884 4231 1454 3753 
Q 1025 3275 1025 2328 
Q 1025 1384 1454 906 
Q 1884 428 2741 428 
Q 3075 428 3337 486 
Q 3600 544 3809 666 
z
" id="DejaVuSans-47" transform="scale(0.015625)"/>
     </defs>
     <use xlink:href="#DejaVuSans-42"/>
     <use x="68.603516" xlink:href="#DejaVuSans-69"/>
     <use x="96.386719" xlink:href="#DejaVuSans-6e"/>
     <use x="159.765625" xlink:href="#DejaVuSans-20"/>
     <use x="191.552734" xlink:href="#DejaVuSans-47"/>
     <use x="269.042969" xlink:href="#DejaVuSans-41"/>
    </g>
   </g>
   <g id="text_17">
    <!-- PSO -->
    <g transform="translate(375.22944 150.911022)scale(0.17 -0.17)">
     <use xlink:href="#DejaVuSans-50"/>
     <use x="60.302734" xlink:href="#DejaVuSans-53"/>
     <use x="123.779297" xlink:href="#DejaVuSans-4f"/>
    </g>
   </g>
   <g id="text_18">
    <!-- JADE -->
    <g transform="translate(375.22944 114.073093)scale(0.17 -0.17)">
     <defs>
      <path d="M 628 4666 
L 1259 4666 
L 1259 325 
Q 1259 -519 939 -900 
Q 619 -1281 -91 -1281 
L -331 -1281 
L -331 -750 
L -134 -750 
Q 284 -750 456 -515 
Q 628 -281 628 325 
L 628 4666 
z
" id="DejaVuSans-4a" transform="scale(0.015625)"/>
     </defs>
     <use xlink:href="#DejaVuSans-4a"/>
     <use x="27.742188" xlink:href="#DejaVuSans-41"/>
     <use x="96.150391" xlink:href="#DejaVuSans-44"/>
     <use x="173.152344" xlink:href="#DejaVuSans-45"/>
    </g>
   </g>
   <g id="text_19">
    <!-- DE -->
    <g transform="translate(375.22944 77.235164)scale(0.17 -0.17)">
     <use xlink:href="#DejaVuSans-44"/>
     <use x="77.001953" xlink:href="#DejaVuSans-45"/>
    </g>
   </g>
   <g id="text_20">
    <!-- best 2009 -->
    <g transform="translate(375.22944 40.397235)scale(0.17 -0.17)">
     <defs>
      <path d="M 3116 1747 
Q 3116 2381 2855 2742 
Q 2594 3103 2138 3103 
Q 1681 3103 1420 2742 
Q 1159 2381 1159 1747 
Q 1159 1113 1420 752 
Q 1681 391 2138 391 
Q 2594 391 2855 752 
Q 3116 1113 3116 1747 
z
M 1159 2969 
Q 1341 3281 1617 3432 
Q 1894 3584 2278 3584 
Q 2916 3584 3314 3078 
Q 3713 2572 3713 1747 
Q 3713 922 3314 415 
Q 2916 -91 2278 -91 
Q 1894 -91 1617 61 
Q 1341 213 1159 525 
L 1159 0 
L 581 0 
L 581 4863 
L 1159 4863 
L 1159 2969 
z
" id="DejaVuSans-62" transform="scale(0.015625)"/>
      <path d="M 703 97 
L 703 672 
Q 941 559 1184 500 
Q 1428 441 1663 441 
Q 2288 441 2617 861 
Q 2947 1281 2994 2138 
Q 2813 1869 2534 1725 
Q 2256 1581 1919 1581 
Q 1219 1581 811 2004 
Q 403 2428 403 3163 
Q 403 3881 828 4315 
Q 1253 4750 1959 4750 
Q 2769 4750 3195 4129 
Q 3622 3509 3622 2328 
Q 3622 1225 3098 567 
Q 2575 -91 1691 -91 
Q 1453 -91 1209 -44 
Q 966 3 703 97 
z
M 1959 2075 
Q 2384 2075 2632 2365 
Q 2881 2656 2881 3163 
Q 2881 3666 2632 3958 
Q 2384 4250 1959 4250 
Q 1534 4250 1286 3958 
Q 1038 3666 1038 3163 
Q 1038 2656 1286 2365 
Q 1534 2075 1959 2075 
z
" id="DejaVuSans-39" transform="scale(0.015625)"/>
     </defs>
     <use xlink:href="#DejaVuSans-62"/>
     <use x="63.476562" xlink:href="#DejaVuSans-65"/>
     <use x="125" xlink:href="#DejaVuSans-73"/>
     <use x="177.099609" xlink:href="#DejaVuSans-74"/>
     <use x="216.308594" xlink:href="#DejaVuSans-20"/>
     <use x="248.095703" xlink:href="#DejaVuSans-32"/>
     <use x="311.71875" xlink:href="#DejaVuSans-30"/>
     <use x="375.341797" xlink:href="#DejaVuSans-30"/>
     <use x="438.964844" xlink:href="#DejaVuSans-39"/>
    </g>
   </g>
   <g id="text_21">
    <!-- bbob f4, 10-D -->
    <g transform="translate(60.41088 38.111366)scale(0.102 -0.102)">
     <use xlink:href="#DejaVuSans-62"/>
     <use x="63.476562" xlink:href="#DejaVuSans-62"/>
     <use x="126.953125" xlink:href="#DejaVuSans-6f"/>
     <use x="188.134766" xlink:href="#DejaVuSans-62"/>
     <use x="251.611328" xlink:href="#DejaVuSans-20"/>
     <use x="283.398438" xlink:href="#DejaVuSans-66"/>
     <use x="318.603516" xlink:href="#DejaVuSans-34"/>
     <use x="382.226562" xlink:href="#DejaVuSans-2c"/>
     <use x="414.013672" xlink:href="#DejaVuSans-20"/>
     <use x="445.800781" xlink:href="#DejaVuSans-31"/>
     <use x="509.423828" xlink:href="#DejaVuSans-30"/>
     <use x="573.046875" xlink:href="#DejaVuSans-2d"/>
     <use x="609.130859" xlink:href="#DejaVuSans-44"/>
    </g>
    <!-- 51 targets: 100..1e-08 -->
    <g transform="translate(60.41088 49.533135)scale(0.102 -0.102)">
     <defs>
      <path d="M 691 4666 
L 3169 4666 
L 3169 4134 
L 1269 4134 
L 1269 2991 
Q 1406 3038 1543 3061 
Q 1681 3084 1819 3084 
Q 2600 3084 3056 2656 
Q 3513 2228 3513 1497 
Q 3513 744 3044 326 
Q 2575 -91 1722 -91 
Q 1428 -91 1123 -41 
Q 819 9 494 109 
L 494 744 
Q 775 591 1075 516 
Q 1375 441 1709 441 
Q 2250 441 2565 725 
Q 2881 1009 2881 1497 
Q 2881 1984 2565 2268 
Q 2250 2553 1709 2553 
Q 1456 2553 1204 2497 
Q 953 2441 691 2322 
L 691 4666 
z
" id="DejaVuSans-35" transform="scale(0.015625)"/>
      <path d="M 750 794 
L 1409 794 
L 1409 0 
L 750 0 
L 750 794 
z
M 750 3309 
L 1409 3309 
L 1409 2516 
L 750 2516 
L 750 3309 
z
" id="DejaVuSans-3a" transform="scale(0.015625)"/>
     </defs>
     <use xlink:href="#DejaVuSans-35"/>
     <use x="63.623047" xlink:href="#DejaVuSans-31"/>
     <use x="127.246094" xlink:href="#DejaVuSans-20"/>
     <use x="159.033203" xlink:href="#DejaVuSans-74"/>
     <use x="198.242188" xlink:href="#DejaVuSans-61"/>
     <use x="259.521484" xlink:href="#DejaVuSans-72"/>
     <use x="298.884766" xlink:href="#DejaVuSans-67"/>
     <use x="362.361328" xlink:href="#DejaVuSans-65"/>
     <use x="423.884766" xlink:href="#DejaVuSans-74"/>
     <use x="463.09375" xlink:href="#DejaVuSans-73"/>
     <use x="515.193359" xlink:href="#DejaVuSans-3a"/>
     <use x="548.884766" xlink:href="#DejaVuSans-20"/>
     <use x="580.671875" xlink:href="#DejaVuSans-31"/>
     <use x="644.294922" xlink:href="#DejaVuSans-30"/>
     <use x="707.917969" xlink:href="#DejaVuSans-30"/>
     <use x="771.541016" xlink:href="#DejaVuSans-2e"/>
     <use x="803.328125" xlink:href="#DejaVuSans-2e"/>
     <use x="835.115234" xlink:href="#DejaVuSans-31"/>
     <use x="898.738281" xlink:href="#DejaVuSans-65"/>
     <use x="960.261719" xlink:href="#DejaVuSans-2d"/>
     <use x="996.345703" xlink:href="#DejaVuSans-30"/>
     <use x="1059.96875" xlink:href="#DejaVuSans-38"/>
    </g>
    <!-- 15 instances -->
    <g transform="translate(60.41088 60.954904)scale(0.102 -0.102)">
     <use xlink:href="#DejaVuSans-31"/>
     <use x="63.623047" xlink:href="#DejaVuSans-35"/>
     <use x="127.246094" xlink:href="#DejaVuSans-20"/>
     <use x="159.033203" xlink:href="#DejaVuSans-69"/>
     <use x="186.816406" xlink:href="#DejaVuSans-6e"/>
     <use x="250.195312" xlink:href="#DejaVuSans-73"/>
     <use x="302.294922" xlink:href="#DejaVuSans-74"/>
     <use x="341.503906" xlink:href="#DejaVuSans-61"/>
     <use x="402.783203" xlink:href="#DejaVuSans-6e"/>
     <use x="466.162109" xlink:href="#DejaVuSans-63"/>
     <use x="521.142578" xlink:href="#DejaVuSans-65"/>
     <use x="582.666016" xlink:href="#DejaVuSans-73"/>
    </g>
   </g>
   <g id="text_22">
    <!-- v2.4 -->
    <g style="fill:#808080;" transform="translate(187.233062 294.151352)scale(0.1 -0.1)">
     <use xlink:href="#DejaVuSans-76"/>
     <use x="59.179688" xlink:href="#DejaVuSans-32"/>
     <use x="122.802734" xlink:href="#DejaVuSans-2e"/>
     <use x="154.589844" xlink:href="#DejaVuSans-34"/>
    </g>
   </g>
   <g id="text_23">
    <!-- 4 Skew Rastrigin-Bueche separ -->
    <g transform="translate(43.269 21.648)scale(0.2 -0.2)">
     <defs>
      <path d="M 581 4863 
L 1159 4863 
L 1159 1991 
L 2875 3500 
L 3609 3500 
L 1753 1863 
L 3688 0 
L 2938 0 
L 1159 1709 
L 1159 0 
L 581 0 
L 581 4863 
z
" id="DejaVuSans-6b" transform="scale(0.015625)"/>
      <path d="M 269 3500 
L 844 3500 
L 1563 769 
L 2278 3500 
L 2956 3500 
L 3675 769 
L 4391 3500 
L 4966 3500 
L 4050 0 
L 3372 0 
L 2619 2869 
L 1863 0 
L 1184 0 
L 269 3500 
z
" id="DejaVuSans-77" transform="scale(0.015625)"/>
      <path d="M 2841 2188 
Q 3044 2119 3236 1894 
Q 3428 1669 3622 1275 
L 4263 0 
L 3584 0 
L 2988 1197 
Q 2756 1666 2539 1819 
Q 2322 1972 1947 1972 
L 1259 1972 
L 1259 0 
L 628 0 
L 628 4666 
L 2053 4666 
Q 2853 4666 3247 4331 
Q 3641 3997 3641 3322 
Q 3641 2881 3436 2590 
Q 3231 2300 2841 2188 
z
M 1259 4147 
L 1259 2491 
L 2053 2491 
Q 2509 2491 2742 2702 
Q 2975 2913 2975 3322 
Q 2975 3731 2742 3939 
Q 2509 4147 2053 4147 
L 1259 4147 
z
" id="DejaVuSans-52" transform="scale(0.015625)"/>
      <path d="M 3513 2113 
L 3513 0 
L 2938 0 
L 2938 2094 
Q 2938 2591 2744 2837 
Q 2550 3084 2163 3084 
Q 1697 3084 1428 2787 
Q 1159 2491 1159 1978 
L 1159 0 
L 581 0 
L 581 4863 
L 1159 4863 
L 1159 2956 
Q 1366 3272 1645 3428 
Q 1925 3584 2291 3584 
Q 2894 3584 3203 3211 
Q 3513 2838 3513 2113 
z
" id="DejaVuSans-68" transform="scale(0.015625)"/>
     </defs>
     <use xlink:href="#DejaVuSans-34"/>
     <use x="63.623047" xlink:href="#DejaVuSans-20"/>
     <use x="95.410156" xlink:href="#DejaVuSans-53"/>
     <use x="158.886719" xlink:href="#DejaVuSans-6b"/>
     <use x="213.171875" xlink:href="#DejaVuSans-65"/>
     <use x="274.695312" xlink:href="#DejaVuSans-77"/>
     <use x="356.482422" xlink:href="#DejaVuSans-20"/>
     <use x="388.269531" xlink:href="#DejaVuSans-52"/>
     <use x="455.501953" xlink:href="#DejaVuSans-61"/>
     <use x="516.78125" xlink:href="#DejaVuSans-73"/>
     <use x="568.880859" xlink:href="#DejaVuSans-74"/>
     <use x="608.089844" xlink:href="#DejaVuSans-72"/>
     <use x="649.203125" xlink:href="#DejaVuSans-69"/>
     <use x="676.986328" xlink:href="#DejaVuSans-67"/>
     <use x="740.462891" xlink:href="#DejaVuSans-69"/>
     <use x="768.246094" xlink:href="#DejaVuSans-6e"/>
     <use x="831.625" xlink:href="#DejaVuSans-2d"/>
     <use x="864.083984" xlink:href="#DejaVuSans-42"/>
     <use x="932.6875" xlink:href="#DejaVuSans-75"/>
     <use x="996.066406" xlink:href="#DejaVuSans-65"/>
     <use x="1057.589844" xlink:href="#DejaVuSans-63"/>
     <use x="1112.570312" xlink:href="#DejaVuSans-68"/>
     <use x="1175.949219" xlink:href="#DejaVuSans-65"/>
     <use x="1237.472656" xlink:href="#DejaVuSans-20"/>
     <use x="1269.259766" xlink:href="#DejaVuSans-73"/>
     <use x="1321.359375" xlink:href="#DejaVuSans-65"/>
     <use x="1382.882812" xlink:href="#DejaVuSans-70"/>
     <use x="1446.359375" xlink:href="#DejaVuSans-61"/>
     <use x="1507.638672" xlink:href="#DejaVuSans-72"/>
    </g>
   </g>
  </g>
 </g>
 <defs>
  <clipPath id="p3f3d51b5ea">
   <rect height="271.296" width="281.088" x="57.6" y="27.648"/>
  </clipPath>
 </defs>
</svg>
