<?xml version="1.0" encoding="utf-8" standalone="no"?>
<!DOCTYPE svg PUBLIC "-//W3C//DTD SVG 1.1//EN"
  "http://www.w3.org/Graphics/SVG/1.1/DTD/svg11.dtd">
<svg height="345.6pt" version="1.1" viewBox="0 0 460.8 345.6" width="460.8pt" xmlns="http://www.w3.org/2000/svg" xmlns:xlink="http://www.w3.org/1999/xlink">
 <metadata>
  <rdf:RDF xmlns:cc="http://creativecommons.org/ns#" xmlns:dc="http://purl.org/dc/elements/1.1/" xmlns:rdf="http://www.w3.org/1999/02/22-rdf-syntax-ns#">
   <cc:Work>
    <dc:type rdf:resource="http://purl.org/dc/dcmitype/StillImage"/>
    <dc:date>2021-05-01T08:27:40.286985</dc:date>
    <dc:format>image/svg+xml</dc:format>
    <dc:creator>
     <cc:Agent>
      <dc:title>Matplotlib v3.4.1, https://matplotlib.org/</dc:title>
     </cc:Agent>
    </dc:creator>
   </cc:Work>
  </rdf:RDF>
 </metadata>
 <defs>
  <style type="text/css">*{stroke-linecap:butt;stroke-linejoin:round;}</style>
 </defs>
 <g id="figure_1">
  <g id="patch_1">
   <path d="M 0 345.6 
L 460.8 345.6 
L 460.8 0 
L 0 0 
z
" style="fill:#ffffff;"/>
  </g>
  <g id="axes_1">
   <g id="patch_2">
    <path d="M 57.6 298.944 
L 338.688 298.944 
L 338.688 27.648 
L 57.6 27.648 
z
" style="fill:#ffffff;"/>
   </g>
   <g id="line2d_1">
    <path d="M 17.444571 298.944 
L 17.444571 293.677139 
L 29.53256 293.677139 
L 29.53256 288.410278 
L 60.779557 288.410278 
L 60.779557 283.143418 
L 84.588378 283.143418 
L 84.588378 277.876557 
L 95.526106 277.876557 
L 95.526106 272.609696 
L 122.988655 272.609696 
L 122.988655 267.342835 
L 125.717918 267.342835 
L 125.717918 262.075974 
L 137.717962 262.075974 
L 137.717962 256.809114 
L 147.838747 256.809114 
L 147.838747 251.542253 
L 165.475853 251.542253 
L 165.475853 246.275392 
L 171.91823 246.275392 
L 171.91823 241.008531 
L 173.476535 241.008531 
L 173.476535 235.74167 
L 177.107399 235.74167 
L 177.107399 230.47481 
L 180.061331 230.47481 
L 180.061331 225.207949 
L 183.458066 225.207949 
L 183.458066 219.941088 
L 186.020252 219.941088 
L 186.020252 214.674227 
L 188.070005 214.674227 
L 188.070005 209.407366 
L 193.938681 209.407366 
L 193.938681 204.140506 
L 198.792583 204.140506 
L 198.792583 198.873645 
L 201.643074 198.873645 
L 201.643074 193.606784 
L 204.55367 193.606784 
L 204.55367 188.339923 
L 206.281679 188.339923 
L 206.281679 183.073062 
L 206.326235 183.073062 
L 206.326235 177.806202 
L 206.367581 177.806202 
L 206.367581 172.539341 
L 206.433874 172.539341 
L 206.433874 167.27248 
L 206.530627 167.27248 
L 206.530627 162.005619 
L 208.171648 162.005619 
L 208.171648 156.738758 
L 208.207918 156.738758 
L 208.207918 151.471897 
L 208.28239 151.471897 
L 208.28239 146.205037 
L 210.694944 146.205037 
L 210.694944 140.938176 
L 210.737586 140.938176 
L 210.737586 135.671315 
L 210.768363 135.671315 
L 210.768363 130.404454 
L 210.806024 130.404454 
L 210.806024 125.137593 
L 210.84946 125.137593 
L 210.84946 119.870733 
L 210.902343 119.870733 
L 210.902343 114.603872 
L 210.921967 114.603872 
L 210.921967 109.337011 
L 210.964058 109.337011 
L 210.964058 104.07015 
L 212.109597 104.07015 
L 212.109597 98.803289 
L 212.145708 98.803289 
L 212.145708 93.536429 
L 212.182978 93.536429 
L 212.182978 88.269568 
L 212.214508 88.269568 
L 212.214508 83.002707 
L 212.248193 83.002707 
L 212.248193 77.735846 
L 212.280831 77.735846 
L 212.280831 72.468985 
L 212.322461 72.468985 
L 212.322461 67.202125 
L 212.36326 67.202125 
L 212.36326 61.935264 
L 212.388376 61.935264 
L 212.388376 56.668403 
L 212.421483 56.668403 
L 212.421483 51.401542 
L 212.452586 51.401542 
L 212.452586 46.134681 
L 212.476361 46.134681 
L 212.476361 40.867821 
L 212.507608 40.867821 
L 212.507608 35.60096 
L 212.530584 35.60096 
L 212.530584 30.334099 
L 338.688 30.334099 
" style="fill:none;stroke:#f5deb3;stroke-linecap:square;stroke-width:4;"/>
   </g>
   <g id="line2d_2">
    <defs>
     <path d="M 0 7.778175 
L 7.778175 0 
L 0 -7.778175 
L -7.778175 0 
z
" id="m78c0891d5d" style="stroke:#f5deb3;stroke-linejoin:miter;stroke-width:1.5;"/>
    </defs>
    <g>
     <use style="fill:#f5deb3;stroke:#f5deb3;stroke-linejoin:miter;stroke-width:1.5;" x="60.779557" xlink:href="#m78c0891d5d" y="283.143418"/>
     <use style="fill:#f5deb3;stroke:#f5deb3;stroke-linejoin:miter;stroke-width:1.5;" x="147.838747" xlink:href="#m78c0891d5d" y="251.542253"/>
     <use style="fill:#f5deb3;stroke:#f5deb3;stroke-linejoin:miter;stroke-width:1.5;" x="210.694944" xlink:href="#m78c0891d5d" y="146.205037"/>
     <use style="fill:#f5deb3;stroke:#f5deb3;stroke-linejoin:miter;stroke-width:1.5;" x="212.530584" xlink:href="#m78c0891d5d" y="35.60096"/>
     <use style="fill:#f5deb3;stroke:#f5deb3;stroke-linejoin:miter;stroke-width:1.5;" x="212.530584" xlink:href="#m78c0891d5d" y="30.334099"/>
     <use style="fill:#f5deb3;stroke:#f5deb3;stroke-linejoin:miter;stroke-width:1.5;" x="338.688" xlink:href="#m78c0891d5d" y="30.334099"/>
    </g>
   </g>
   <g id="line2d_3">
    <path style="fill:none;stroke:#f5deb3;stroke-linecap:square;stroke-width:4;"/>
    <g/>
   </g>
   <g id="line2d_4">
    <path d="M 338.688 30.334099 
L 369.60768 35.706297 
" style="fill:none;stroke:#f5deb3;stroke-linecap:square;stroke-width:4;"/>
    <g>
     <use style="fill:#f5deb3;stroke:#f5deb3;stroke-linejoin:miter;stroke-width:1.5;" x="338.688" xlink:href="#m78c0891d5d" y="30.334099"/>
     <use style="fill:#f5deb3;stroke:#f5deb3;stroke-linejoin:miter;stroke-width:1.5;" x="369.60768" xlink:href="#m78c0891d5d" y="35.706297"/>
    </g>
   </g>
   <g id="matplotlib.axis_1">
    <g id="xtick_1">
     <g id="line2d_5">
      <path clip-path="url(#pa300a6decc)" d="M 57.6 298.944 
L 57.6 27.648 
" style="fill:none;stroke:#b0b0b0;stroke-linecap:square;stroke-width:0.8;"/>
     </g>
     <g id="line2d_6">
      <defs>
       <path d="M 0 0 
L 0 3.5 
" id="md43461a4ac" style="stroke:#000000;stroke-width:0.8;"/>
      </defs>
      <g>
       <use style="stroke:#000000;stroke-width:0.8;" x="57.6" xlink:href="#md43461a4ac" y="298.944"/>
      </g>
     </g>
     <g id="text_1">
      <!-- 0 -->
      <g transform="translate(51.2375 321.140875)scale(0.2 -0.2)">
       <defs>
        <path d="M 2034 4250 
Q 1547 4250 1301 3770 
Q 1056 3291 1056 2328 
Q 1056 1369 1301 889 
Q 1547 409 2034 409 
Q 2525 409 2770 889 
Q 3016 1369 3016 2328 
Q 3016 3291 2770 3770 
Q 2525 4250 2034 4250 
z
M 2034 4750 
Q 2819 4750 3233 4129 
Q 3647 3509 3647 2328 
Q 3647 1150 3233 529 
Q 2819 -91 2034 -91 
Q 1250 -91 836 529 
Q 422 1150 422 2328 
Q 422 3509 836 4129 
Q 1250 4750 2034 4750 
z
" id="DejaVuSans-30" transform="scale(0.015625)"/>
       </defs>
       <use xlink:href="#DejaVuSans-30"/>
      </g>
     </g>
    </g>
    <g id="xtick_2">
     <g id="line2d_7">
      <path clip-path="url(#pa300a6decc)" d="M 137.910857 298.944 
L 137.910857 27.648 
" style="fill:none;stroke:#b0b0b0;stroke-linecap:square;stroke-width:0.8;"/>
     </g>
     <g id="line2d_8">
      <g>
       <use style="stroke:#000000;stroke-width:0.8;" x="137.910857" xlink:href="#md43461a4ac" y="298.944"/>
      </g>
     </g>
     <g id="text_2">
      <!-- 2 -->
      <g transform="translate(131.548357 321.140875)scale(0.2 -0.2)">
       <defs>
        <path d="M 1228 531 
L 3431 531 
L 3431 0 
L 469 0 
L 469 531 
Q 828 903 1448 1529 
Q 2069 2156 2228 2338 
Q 2531 2678 2651 2914 
Q 2772 3150 2772 3378 
Q 2772 3750 2511 3984 
Q 2250 4219 1831 4219 
Q 1534 4219 1204 4116 
Q 875 4013 500 3803 
L 500 4441 
Q 881 4594 1212 4672 
Q 1544 4750 1819 4750 
Q 2544 4750 2975 4387 
Q 3406 4025 3406 3419 
Q 3406 3131 3298 2873 
Q 3191 2616 2906 2266 
Q 2828 2175 2409 1742 
Q 1991 1309 1228 531 
z
" id="DejaVuSans-32" transform="scale(0.015625)"/>
       </defs>
       <use xlink:href="#DejaVuSans-32"/>
      </g>
     </g>
    </g>
    <g id="xtick_3">
     <g id="line2d_9">
      <path clip-path="url(#pa300a6decc)" d="M 218.221714 298.944 
L 218.221714 27.648 
" style="fill:none;stroke:#b0b0b0;stroke-linecap:square;stroke-width:0.8;"/>
     </g>
     <g id="line2d_10">
      <g>
       <use style="stroke:#000000;stroke-width:0.8;" x="218.221714" xlink:href="#md43461a4ac" y="298.944"/>
      </g>
     </g>
     <g id="text_3">
      <!-- 4 -->
      <g transform="translate(211.859214 321.140875)scale(0.2 -0.2)">
       <defs>
        <path d="M 2419 4116 
L 825 1625 
L 2419 1625 
L 2419 4116 
z
M 2253 4666 
L 3047 4666 
L 3047 1625 
L 3713 1625 
L 3713 1100 
L 3047 1100 
L 3047 0 
L 2419 0 
L 2419 1100 
L 313 1100 
L 313 1709 
L 2253 4666 
z
" id="DejaVuSans-34" transform="scale(0.015625)"/>
       </defs>
       <use xlink:href="#DejaVuSans-34"/>
      </g>
     </g>
    </g>
    <g id="xtick_4">
     <g id="line2d_11">
      <path clip-path="url(#pa300a6decc)" d="M 298.532571 298.944 
L 298.532571 27.648 
" style="fill:none;stroke:#b0b0b0;stroke-linecap:square;stroke-width:0.8;"/>
     </g>
     <g id="line2d_12">
      <g>
       <use style="stroke:#000000;stroke-width:0.8;" x="298.532571" xlink:href="#md43461a4ac" y="298.944"/>
      </g>
     </g>
     <g id="text_4">
      <!-- 6 -->
      <g transform="translate(292.170071 321.140875)scale(0.2 -0.2)">
       <defs>
        <path d="M 2113 2584 
Q 1688 2584 1439 2293 
Q 1191 2003 1191 1497 
Q 1191 994 1439 701 
Q 1688 409 2113 409 
Q 2538 409 2786 701 
Q 3034 994 3034 1497 
Q 3034 2003 2786 2293 
Q 2538 2584 2113 2584 
z
M 3366 4563 
L 3366 3988 
Q 3128 4100 2886 4159 
Q 2644 4219 2406 4219 
Q 1781 4219 1451 3797 
Q 1122 3375 1075 2522 
Q 1259 2794 1537 2939 
Q 1816 3084 2150 3084 
Q 2853 3084 3261 2657 
Q 3669 2231 3669 1497 
Q 3669 778 3244 343 
Q 2819 -91 2113 -91 
Q 1303 -91 875 529 
Q 447 1150 447 2328 
Q 447 3434 972 4092 
Q 1497 4750 2381 4750 
Q 2619 4750 2861 4703 
Q 3103 4656 3366 4563 
z
" id="DejaVuSans-36" transform="scale(0.015625)"/>
       </defs>
       <use xlink:href="#DejaVuSans-36"/>
      </g>
     </g>
    </g>
    <g id="xtick_5">
     <g id="line2d_13">
      <path clip-path="url(#pa300a6decc)" d="M 97.755429 298.944 
L 97.755429 27.648 
" style="fill:none;stroke:#b0b0b0;stroke-linecap:square;stroke-width:0.8;"/>
     </g>
     <g id="line2d_14">
      <defs>
       <path d="M 0 0 
L 0 2 
" id="mdc1bd35984" style="stroke:#000000;stroke-width:0.6;"/>
      </defs>
      <g>
       <use style="stroke:#000000;stroke-width:0.6;" x="97.755429" xlink:href="#mdc1bd35984" y="298.944"/>
      </g>
     </g>
    </g>
    <g id="xtick_6">
     <g id="line2d_15">
      <path clip-path="url(#pa300a6decc)" d="M 178.066286 298.944 
L 178.066286 27.648 
" style="fill:none;stroke:#b0b0b0;stroke-linecap:square;stroke-width:0.8;"/>
     </g>
     <g id="line2d_16">
      <g>
       <use style="stroke:#000000;stroke-width:0.6;" x="178.066286" xlink:href="#mdc1bd35984" y="298.944"/>
      </g>
     </g>
    </g>
    <g id="xtick_7">
     <g id="line2d_17">
      <path clip-path="url(#pa300a6decc)" d="M 258.377143 298.944 
L 258.377143 27.648 
" style="fill:none;stroke:#b0b0b0;stroke-linecap:square;stroke-width:0.8;"/>
     </g>
     <g id="line2d_18">
      <g>
       <use style="stroke:#000000;stroke-width:0.6;" x="258.377143" xlink:href="#mdc1bd35984" y="298.944"/>
      </g>
     </g>
    </g>
    <g id="xtick_8">
     <g id="line2d_19">
      <path clip-path="url(#pa300a6decc)" d="M 338.688 298.944 
L 338.688 27.648 
" style="fill:none;stroke:#b0b0b0;stroke-linecap:square;stroke-width:0.8;"/>
     </g>
     <g id="line2d_20">
      <g>
       <use style="stroke:#000000;stroke-width:0.6;" x="338.688" xlink:href="#mdc1bd35984" y="298.944"/>
      </g>
     </g>
    </g>
    <g id="text_5">
     <!-- log10(# f-evals / dimension) -->
     <g transform="translate(77.764078 342.217594)scale(0.17 -0.17)">
      <defs>
       <path d="M 603 4863 
L 1178 4863 
L 1178 0 
L 603 0 
L 603 4863 
z
" id="DejaVuSans-6c" transform="scale(0.015625)"/>
       <path d="M 1959 3097 
Q 1497 3097 1228 2736 
Q 959 2375 959 1747 
Q 959 1119 1226 758 
Q 1494 397 1959 397 
Q 2419 397 2687 759 
Q 2956 1122 2956 1747 
Q 2956 2369 2687 2733 
Q 2419 3097 1959 3097 
z
M 1959 3584 
Q 2709 3584 3137 3096 
Q 3566 2609 3566 1747 
Q 3566 888 3137 398 
Q 2709 -91 1959 -91 
Q 1206 -91 779 398 
Q 353 888 353 1747 
Q 353 2609 779 3096 
Q 1206 3584 1959 3584 
z
" id="DejaVuSans-6f" transform="scale(0.015625)"/>
       <path d="M 2906 1791 
Q 2906 2416 2648 2759 
Q 2391 3103 1925 3103 
Q 1463 3103 1205 2759 
Q 947 2416 947 1791 
Q 947 1169 1205 825 
Q 1463 481 1925 481 
Q 2391 481 2648 825 
Q 2906 1169 2906 1791 
z
M 3481 434 
Q 3481 -459 3084 -895 
Q 2688 -1331 1869 -1331 
Q 1566 -1331 1297 -1286 
Q 1028 -1241 775 -1147 
L 775 -588 
Q 1028 -725 1275 -790 
Q 1522 -856 1778 -856 
Q 2344 -856 2625 -561 
Q 2906 -266 2906 331 
L 2906 616 
Q 2728 306 2450 153 
Q 2172 0 1784 0 
Q 1141 0 747 490 
Q 353 981 353 1791 
Q 353 2603 747 3093 
Q 1141 3584 1784 3584 
Q 2172 3584 2450 3431 
Q 2728 3278 2906 2969 
L 2906 3500 
L 3481 3500 
L 3481 434 
z
" id="DejaVuSans-67" transform="scale(0.015625)"/>
       <path d="M 794 531 
L 1825 531 
L 1825 4091 
L 703 3866 
L 703 4441 
L 1819 4666 
L 2450 4666 
L 2450 531 
L 3481 531 
L 3481 0 
L 794 0 
L 794 531 
z
" id="DejaVuSans-31" transform="scale(0.015625)"/>
       <path d="M 1984 4856 
Q 1566 4138 1362 3434 
Q 1159 2731 1159 2009 
Q 1159 1288 1364 580 
Q 1569 -128 1984 -844 
L 1484 -844 
Q 1016 -109 783 600 
Q 550 1309 550 2009 
Q 550 2706 781 3412 
Q 1013 4119 1484 4856 
L 1984 4856 
z
" id="DejaVuSans-28" transform="scale(0.015625)"/>
       <path d="M 3272 2816 
L 2363 2816 
L 2100 1772 
L 3016 1772 
L 3272 2816 
z
M 2803 4594 
L 2478 3297 
L 3391 3297 
L 3719 4594 
L 4219 4594 
L 3897 3297 
L 4872 3297 
L 4872 2816 
L 3775 2816 
L 3519 1772 
L 4513 1772 
L 4513 1294 
L 3397 1294 
L 3072 0 
L 2572 0 
L 2894 1294 
L 1978 1294 
L 1656 0 
L 1153 0 
L 1478 1294 
L 494 1294 
L 494 1772 
L 1594 1772 
L 1856 2816 
L 850 2816 
L 850 3297 
L 1978 3297 
L 2297 4594 
L 2803 4594 
z
" id="DejaVuSans-23" transform="scale(0.015625)"/>
       <path id="DejaVuSans-20" transform="scale(0.015625)"/>
       <path d="M 2375 4863 
L 2375 4384 
L 1825 4384 
Q 1516 4384 1395 4259 
Q 1275 4134 1275 3809 
L 1275 3500 
L 2222 3500 
L 2222 3053 
L 1275 3053 
L 1275 0 
L 697 0 
L 697 3053 
L 147 3053 
L 147 3500 
L 697 3500 
L 697 3744 
Q 697 4328 969 4595 
Q 1241 4863 1831 4863 
L 2375 4863 
z
" id="DejaVuSans-66" transform="scale(0.015625)"/>
       <path d="M 313 2009 
L 1997 2009 
L 1997 1497 
L 313 1497 
L 313 2009 
z
" id="DejaVuSans-2d" transform="scale(0.015625)"/>
       <path d="M 3597 1894 
L 3597 1613 
L 953 1613 
Q 991 1019 1311 708 
Q 1631 397 2203 397 
Q 2534 397 2845 478 
Q 3156 559 3463 722 
L 3463 178 
Q 3153 47 2828 -22 
Q 2503 -91 2169 -91 
Q 1331 -91 842 396 
Q 353 884 353 1716 
Q 353 2575 817 3079 
Q 1281 3584 2069 3584 
Q 2775 3584 3186 3129 
Q 3597 2675 3597 1894 
z
M 3022 2063 
Q 3016 2534 2758 2815 
Q 2500 3097 2075 3097 
Q 1594 3097 1305 2825 
Q 1016 2553 972 2059 
L 3022 2063 
z
" id="DejaVuSans-65" transform="scale(0.015625)"/>
       <path d="M 191 3500 
L 800 3500 
L 1894 563 
L 2988 3500 
L 3597 3500 
L 2284 0 
L 1503 0 
L 191 3500 
z
" id="DejaVuSans-76" transform="scale(0.015625)"/>
       <path d="M 2194 1759 
Q 1497 1759 1228 1600 
Q 959 1441 959 1056 
Q 959 750 1161 570 
Q 1363 391 1709 391 
Q 2188 391 2477 730 
Q 2766 1069 2766 1631 
L 2766 1759 
L 2194 1759 
z
M 3341 1997 
L 3341 0 
L 2766 0 
L 2766 531 
Q 2569 213 2275 61 
Q 1981 -91 1556 -91 
Q 1019 -91 701 211 
Q 384 513 384 1019 
Q 384 1609 779 1909 
Q 1175 2209 1959 2209 
L 2766 2209 
L 2766 2266 
Q 2766 2663 2505 2880 
Q 2244 3097 1772 3097 
Q 1472 3097 1187 3025 
Q 903 2953 641 2809 
L 641 3341 
Q 956 3463 1253 3523 
Q 1550 3584 1831 3584 
Q 2591 3584 2966 3190 
Q 3341 2797 3341 1997 
z
" id="DejaVuSans-61" transform="scale(0.015625)"/>
       <path d="M 2834 3397 
L 2834 2853 
Q 2591 2978 2328 3040 
Q 2066 3103 1784 3103 
Q 1356 3103 1142 2972 
Q 928 2841 928 2578 
Q 928 2378 1081 2264 
Q 1234 2150 1697 2047 
L 1894 2003 
Q 2506 1872 2764 1633 
Q 3022 1394 3022 966 
Q 3022 478 2636 193 
Q 2250 -91 1575 -91 
Q 1294 -91 989 -36 
Q 684 19 347 128 
L 347 722 
Q 666 556 975 473 
Q 1284 391 1588 391 
Q 1994 391 2212 530 
Q 2431 669 2431 922 
Q 2431 1156 2273 1281 
Q 2116 1406 1581 1522 
L 1381 1569 
Q 847 1681 609 1914 
Q 372 2147 372 2553 
Q 372 3047 722 3315 
Q 1072 3584 1716 3584 
Q 2034 3584 2315 3537 
Q 2597 3491 2834 3397 
z
" id="DejaVuSans-73" transform="scale(0.015625)"/>
       <path d="M 1625 4666 
L 2156 4666 
L 531 -594 
L 0 -594 
L 1625 4666 
z
" id="DejaVuSans-2f" transform="scale(0.015625)"/>
       <path d="M 2906 2969 
L 2906 4863 
L 3481 4863 
L 3481 0 
L 2906 0 
L 2906 525 
Q 2725 213 2448 61 
Q 2172 -91 1784 -91 
Q 1150 -91 751 415 
Q 353 922 353 1747 
Q 353 2572 751 3078 
Q 1150 3584 1784 3584 
Q 2172 3584 2448 3432 
Q 2725 3281 2906 2969 
z
M 947 1747 
Q 947 1113 1208 752 
Q 1469 391 1925 391 
Q 2381 391 2643 752 
Q 2906 1113 2906 1747 
Q 2906 2381 2643 2742 
Q 2381 3103 1925 3103 
Q 1469 3103 1208 2742 
Q 947 2381 947 1747 
z
" id="DejaVuSans-64" transform="scale(0.015625)"/>
       <path d="M 603 3500 
L 1178 3500 
L 1178 0 
L 603 0 
L 603 3500 
z
M 603 4863 
L 1178 4863 
L 1178 4134 
L 603 4134 
L 603 4863 
z
" id="DejaVuSans-69" transform="scale(0.015625)"/>
       <path d="M 3328 2828 
Q 3544 3216 3844 3400 
Q 4144 3584 4550 3584 
Q 5097 3584 5394 3201 
Q 5691 2819 5691 2113 
L 5691 0 
L 5113 0 
L 5113 2094 
Q 5113 2597 4934 2840 
Q 4756 3084 4391 3084 
Q 3944 3084 3684 2787 
Q 3425 2491 3425 1978 
L 3425 0 
L 2847 0 
L 2847 2094 
Q 2847 2600 2669 2842 
Q 2491 3084 2119 3084 
Q 1678 3084 1418 2786 
Q 1159 2488 1159 1978 
L 1159 0 
L 581 0 
L 581 3500 
L 1159 3500 
L 1159 2956 
Q 1356 3278 1631 3431 
Q 1906 3584 2284 3584 
Q 2666 3584 2933 3390 
Q 3200 3197 3328 2828 
z
" id="DejaVuSans-6d" transform="scale(0.015625)"/>
       <path d="M 3513 2113 
L 3513 0 
L 2938 0 
L 2938 2094 
Q 2938 2591 2744 2837 
Q 2550 3084 2163 3084 
Q 1697 3084 1428 2787 
Q 1159 2491 1159 1978 
L 1159 0 
L 581 0 
L 581 3500 
L 1159 3500 
L 1159 2956 
Q 1366 3272 1645 3428 
Q 1925 3584 2291 3584 
Q 2894 3584 3203 3211 
Q 3513 2838 3513 2113 
z
" id="DejaVuSans-6e" transform="scale(0.015625)"/>
       <path d="M 513 4856 
L 1013 4856 
Q 1481 4119 1714 3412 
Q 1947 2706 1947 2009 
Q 1947 1309 1714 600 
Q 1481 -109 1013 -844 
L 513 -844 
Q 928 -128 1133 580 
Q 1338 1288 1338 2009 
Q 1338 2731 1133 3434 
Q 928 4138 513 4856 
z
" id="DejaVuSans-29" transform="scale(0.015625)"/>
      </defs>
      <use xlink:href="#DejaVuSans-6c"/>
      <use x="27.783203" xlink:href="#DejaVuSans-6f"/>
      <use x="88.964844" xlink:href="#DejaVuSans-67"/>
      <use x="152.441406" xlink:href="#DejaVuSans-31"/>
      <use x="216.064453" xlink:href="#DejaVuSans-30"/>
      <use x="279.6875" xlink:href="#DejaVuSans-28"/>
      <use x="318.701172" xlink:href="#DejaVuSans-23"/>
      <use x="402.490234" xlink:href="#DejaVuSans-20"/>
      <use x="434.277344" xlink:href="#DejaVuSans-66"/>
      <use x="463.982422" xlink:href="#DejaVuSans-2d"/>
      <use x="500.066406" xlink:href="#DejaVuSans-65"/>
      <use x="561.589844" xlink:href="#DejaVuSans-76"/>
      <use x="620.769531" xlink:href="#DejaVuSans-61"/>
      <use x="682.048828" xlink:href="#DejaVuSans-6c"/>
      <use x="709.832031" xlink:href="#DejaVuSans-73"/>
      <use x="761.931641" xlink:href="#DejaVuSans-20"/>
      <use x="793.71875" xlink:href="#DejaVuSans-2f"/>
      <use x="827.410156" xlink:href="#DejaVuSans-20"/>
      <use x="859.197266" xlink:href="#DejaVuSans-64"/>
      <use x="922.673828" xlink:href="#DejaVuSans-69"/>
      <use x="950.457031" xlink:href="#DejaVuSans-6d"/>
      <use x="1047.869141" xlink:href="#DejaVuSans-65"/>
      <use x="1109.392578" xlink:href="#DejaVuSans-6e"/>
      <use x="1172.771484" xlink:href="#DejaVuSans-73"/>
      <use x="1224.871094" xlink:href="#DejaVuSans-69"/>
      <use x="1252.654297" xlink:href="#DejaVuSans-6f"/>
      <use x="1313.835938" xlink:href="#DejaVuSans-6e"/>
      <use x="1377.214844" xlink:href="#DejaVuSans-29"/>
     </g>
    </g>
   </g>
   <g id="matplotlib.axis_2">
    <g id="ytick_1">
     <g id="line2d_21">
      <path clip-path="url(#pa300a6decc)" d="M 57.6 298.944 
L 338.688 298.944 
" style="fill:none;stroke:#b0b0b0;stroke-linecap:square;stroke-width:0.8;"/>
     </g>
     <g id="line2d_22">
      <defs>
       <path d="M 0 0 
L -3.5 0 
" id="m38c06e00eb" style="stroke:#000000;stroke-width:0.8;"/>
      </defs>
      <g>
       <use style="stroke:#000000;stroke-width:0.8;" x="57.6" xlink:href="#m38c06e00eb" y="298.944"/>
      </g>
     </g>
     <g id="text_6">
      <!-- 0.0 -->
      <g transform="translate(25.155 305.02275)scale(0.16 -0.16)">
       <defs>
        <path d="M 684 794 
L 1344 794 
L 1344 0 
L 684 0 
L 684 794 
z
" id="DejaVuSans-2e" transform="scale(0.015625)"/>
       </defs>
       <use xlink:href="#DejaVuSans-30"/>
       <use x="63.623047" xlink:href="#DejaVuSans-2e"/>
       <use x="95.410156" xlink:href="#DejaVuSans-30"/>
      </g>
     </g>
    </g>
    <g id="ytick_2">
     <g id="line2d_23">
      <path clip-path="url(#pa300a6decc)" d="M 57.6 245.22202 
L 338.688 245.22202 
" style="fill:none;stroke:#b0b0b0;stroke-linecap:square;stroke-width:0.8;"/>
     </g>
     <g id="line2d_24">
      <g>
       <use style="stroke:#000000;stroke-width:0.8;" x="57.6" xlink:href="#m38c06e00eb" y="245.22202"/>
      </g>
     </g>
     <g id="text_7">
      <!-- 0.2 -->
      <g transform="translate(25.155 251.30077)scale(0.16 -0.16)">
       <use xlink:href="#DejaVuSans-30"/>
       <use x="63.623047" xlink:href="#DejaVuSans-2e"/>
       <use x="95.410156" xlink:href="#DejaVuSans-32"/>
      </g>
     </g>
    </g>
    <g id="ytick_3">
     <g id="line2d_25">
      <path clip-path="url(#pa300a6decc)" d="M 57.6 191.50004 
L 338.688 191.50004 
" style="fill:none;stroke:#b0b0b0;stroke-linecap:square;stroke-width:0.8;"/>
     </g>
     <g id="line2d_26">
      <g>
       <use style="stroke:#000000;stroke-width:0.8;" x="57.6" xlink:href="#m38c06e00eb" y="191.50004"/>
      </g>
     </g>
     <g id="text_8">
      <!-- 0.4 -->
      <g transform="translate(25.155 197.57879)scale(0.16 -0.16)">
       <use xlink:href="#DejaVuSans-30"/>
       <use x="63.623047" xlink:href="#DejaVuSans-2e"/>
       <use x="95.410156" xlink:href="#DejaVuSans-34"/>
      </g>
     </g>
    </g>
    <g id="ytick_4">
     <g id="line2d_27">
      <path clip-path="url(#pa300a6decc)" d="M 57.6 137.778059 
L 338.688 137.778059 
" style="fill:none;stroke:#b0b0b0;stroke-linecap:square;stroke-width:0.8;"/>
     </g>
     <g id="line2d_28">
      <g>
       <use style="stroke:#000000;stroke-width:0.8;" x="57.6" xlink:href="#m38c06e00eb" y="137.778059"/>
      </g>
     </g>
     <g id="text_9">
      <!-- 0.6 -->
      <g transform="translate(25.155 143.856809)scale(0.16 -0.16)">
       <use xlink:href="#DejaVuSans-30"/>
       <use x="63.623047" xlink:href="#DejaVuSans-2e"/>
       <use x="95.410156" xlink:href="#DejaVuSans-36"/>
      </g>
     </g>
    </g>
    <g id="ytick_5">
     <g id="line2d_29">
      <path clip-path="url(#pa300a6decc)" d="M 57.6 84.056079 
L 338.688 84.056079 
" style="fill:none;stroke:#b0b0b0;stroke-linecap:square;stroke-width:0.8;"/>
     </g>
     <g id="line2d_30">
      <g>
       <use style="stroke:#000000;stroke-width:0.8;" x="57.6" xlink:href="#m38c06e00eb" y="84.056079"/>
      </g>
     </g>
     <g id="text_10">
      <!-- 0.8 -->
      <g transform="translate(25.155 90.134829)scale(0.16 -0.16)">
       <defs>
        <path d="M 2034 2216 
Q 1584 2216 1326 1975 
Q 1069 1734 1069 1313 
Q 1069 891 1326 650 
Q 1584 409 2034 409 
Q 2484 409 2743 651 
Q 3003 894 3003 1313 
Q 3003 1734 2745 1975 
Q 2488 2216 2034 2216 
z
M 1403 2484 
Q 997 2584 770 2862 
Q 544 3141 544 3541 
Q 544 4100 942 4425 
Q 1341 4750 2034 4750 
Q 2731 4750 3128 4425 
Q 3525 4100 3525 3541 
Q 3525 3141 3298 2862 
Q 3072 2584 2669 2484 
Q 3125 2378 3379 2068 
Q 3634 1759 3634 1313 
Q 3634 634 3220 271 
Q 2806 -91 2034 -91 
Q 1263 -91 848 271 
Q 434 634 434 1313 
Q 434 1759 690 2068 
Q 947 2378 1403 2484 
z
M 1172 3481 
Q 1172 3119 1398 2916 
Q 1625 2713 2034 2713 
Q 2441 2713 2670 2916 
Q 2900 3119 2900 3481 
Q 2900 3844 2670 4047 
Q 2441 4250 2034 4250 
Q 1625 4250 1398 4047 
Q 1172 3844 1172 3481 
z
" id="DejaVuSans-38" transform="scale(0.015625)"/>
       </defs>
       <use xlink:href="#DejaVuSans-30"/>
       <use x="63.623047" xlink:href="#DejaVuSans-2e"/>
       <use x="95.410156" xlink:href="#DejaVuSans-38"/>
      </g>
     </g>
    </g>
    <g id="ytick_6">
     <g id="line2d_31">
      <path clip-path="url(#pa300a6decc)" d="M 57.6 30.334099 
L 338.688 30.334099 
" style="fill:none;stroke:#b0b0b0;stroke-linecap:square;stroke-width:0.8;"/>
     </g>
     <g id="line2d_32">
      <g>
       <use style="stroke:#000000;stroke-width:0.8;" x="57.6" xlink:href="#m38c06e00eb" y="30.334099"/>
      </g>
     </g>
     <g id="text_11">
      <!-- 1.0 -->
      <g transform="translate(25.155 36.412849)scale(0.16 -0.16)">
       <use xlink:href="#DejaVuSans-31"/>
       <use x="63.623047" xlink:href="#DejaVuSans-2e"/>
       <use x="95.410156" xlink:href="#DejaVuSans-30"/>
      </g>
     </g>
    </g>
    <g id="text_12">
     <!-- Fraction of function,target pairs -->
     <g transform="translate(17.619531 297.681)rotate(-90)scale(0.17 -0.17)">
      <defs>
       <path d="M 628 4666 
L 3309 4666 
L 3309 4134 
L 1259 4134 
L 1259 2759 
L 3109 2759 
L 3109 2228 
L 1259 2228 
L 1259 0 
L 628 0 
L 628 4666 
z
" id="DejaVuSans-46" transform="scale(0.015625)"/>
       <path d="M 2631 2963 
Q 2534 3019 2420 3045 
Q 2306 3072 2169 3072 
Q 1681 3072 1420 2755 
Q 1159 2438 1159 1844 
L 1159 0 
L 581 0 
L 581 3500 
L 1159 3500 
L 1159 2956 
Q 1341 3275 1631 3429 
Q 1922 3584 2338 3584 
Q 2397 3584 2469 3576 
Q 2541 3569 2628 3553 
L 2631 2963 
z
" id="DejaVuSans-72" transform="scale(0.015625)"/>
       <path d="M 3122 3366 
L 3122 2828 
Q 2878 2963 2633 3030 
Q 2388 3097 2138 3097 
Q 1578 3097 1268 2742 
Q 959 2388 959 1747 
Q 959 1106 1268 751 
Q 1578 397 2138 397 
Q 2388 397 2633 464 
Q 2878 531 3122 666 
L 3122 134 
Q 2881 22 2623 -34 
Q 2366 -91 2075 -91 
Q 1284 -91 818 406 
Q 353 903 353 1747 
Q 353 2603 823 3093 
Q 1294 3584 2113 3584 
Q 2378 3584 2631 3529 
Q 2884 3475 3122 3366 
z
" id="DejaVuSans-63" transform="scale(0.015625)"/>
       <path d="M 1172 4494 
L 1172 3500 
L 2356 3500 
L 2356 3053 
L 1172 3053 
L 1172 1153 
Q 1172 725 1289 603 
Q 1406 481 1766 481 
L 2356 481 
L 2356 0 
L 1766 0 
Q 1100 0 847 248 
Q 594 497 594 1153 
L 594 3053 
L 172 3053 
L 172 3500 
L 594 3500 
L 594 4494 
L 1172 4494 
z
" id="DejaVuSans-74" transform="scale(0.015625)"/>
       <path d="M 544 1381 
L 544 3500 
L 1119 3500 
L 1119 1403 
Q 1119 906 1312 657 
Q 1506 409 1894 409 
Q 2359 409 2629 706 
Q 2900 1003 2900 1516 
L 2900 3500 
L 3475 3500 
L 3475 0 
L 2900 0 
L 2900 538 
Q 2691 219 2414 64 
Q 2138 -91 1772 -91 
Q 1169 -91 856 284 
Q 544 659 544 1381 
z
M 1991 3584 
L 1991 3584 
z
" id="DejaVuSans-75" transform="scale(0.015625)"/>
       <path d="M 750 794 
L 1409 794 
L 1409 256 
L 897 -744 
L 494 -744 
L 750 256 
L 750 794 
z
" id="DejaVuSans-2c" transform="scale(0.015625)"/>
       <path d="M 1159 525 
L 1159 -1331 
L 581 -1331 
L 581 3500 
L 1159 3500 
L 1159 2969 
Q 1341 3281 1617 3432 
Q 1894 3584 2278 3584 
Q 2916 3584 3314 3078 
Q 3713 2572 3713 1747 
Q 3713 922 3314 415 
Q 2916 -91 2278 -91 
Q 1894 -91 1617 61 
Q 1341 213 1159 525 
z
M 3116 1747 
Q 3116 2381 2855 2742 
Q 2594 3103 2138 3103 
Q 1681 3103 1420 2742 
Q 1159 2381 1159 1747 
Q 1159 1113 1420 752 
Q 1681 391 2138 391 
Q 2594 391 2855 752 
Q 3116 1113 3116 1747 
z
" id="DejaVuSans-70" transform="scale(0.015625)"/>
      </defs>
      <use xlink:href="#DejaVuSans-46"/>
      <use x="50.269531" xlink:href="#DejaVuSans-72"/>
      <use x="91.382812" xlink:href="#DejaVuSans-61"/>
      <use x="152.662109" xlink:href="#DejaVuSans-63"/>
      <use x="207.642578" xlink:href="#DejaVuSans-74"/>
      <use x="246.851562" xlink:href="#DejaVuSans-69"/>
      <use x="274.634766" xlink:href="#DejaVuSans-6f"/>
      <use x="335.816406" xlink:href="#DejaVuSans-6e"/>
      <use x="399.195312" xlink:href="#DejaVuSans-20"/>
      <use x="430.982422" xlink:href="#DejaVuSans-6f"/>
      <use x="492.164062" xlink:href="#DejaVuSans-66"/>
      <use x="527.369141" xlink:href="#DejaVuSans-20"/>
      <use x="559.15625" xlink:href="#DejaVuSans-66"/>
      <use x="594.361328" xlink:href="#DejaVuSans-75"/>
      <use x="657.740234" xlink:href="#DejaVuSans-6e"/>
      <use x="721.119141" xlink:href="#DejaVuSans-63"/>
      <use x="776.099609" xlink:href="#DejaVuSans-74"/>
      <use x="815.308594" xlink:href="#DejaVuSans-69"/>
      <use x="843.091797" xlink:href="#DejaVuSans-6f"/>
      <use x="904.273438" xlink:href="#DejaVuSans-6e"/>
      <use x="967.652344" xlink:href="#DejaVuSans-2c"/>
      <use x="999.439453" xlink:href="#DejaVuSans-74"/>
      <use x="1038.648438" xlink:href="#DejaVuSans-61"/>
      <use x="1099.927734" xlink:href="#DejaVuSans-72"/>
      <use x="1139.291016" xlink:href="#DejaVuSans-67"/>
      <use x="1202.767578" xlink:href="#DejaVuSans-65"/>
      <use x="1264.291016" xlink:href="#DejaVuSans-74"/>
      <use x="1303.5" xlink:href="#DejaVuSans-20"/>
      <use x="1335.287109" xlink:href="#DejaVuSans-70"/>
      <use x="1398.763672" xlink:href="#DejaVuSans-61"/>
      <use x="1460.042969" xlink:href="#DejaVuSans-69"/>
      <use x="1487.826172" xlink:href="#DejaVuSans-72"/>
      <use x="1528.939453" xlink:href="#DejaVuSans-73"/>
     </g>
    </g>
   </g>
   <g id="line2d_33">
    <defs>
     <path d="M 0 1.5 
C 0.397805 1.5 0.77937 1.341951 1.06066 1.06066 
C 1.341951 0.77937 1.5 0.397805 1.5 0 
C 1.5 -0.397805 1.341951 -0.77937 1.06066 -1.06066 
C 0.77937 -1.341951 0.397805 -1.5 0 -1.5 
C -0.397805 -1.5 -0.77937 -1.341951 -1.06066 -1.06066 
C -1.341951 -0.77937 -1.5 -0.397805 -1.5 0 
C -1.5 0.397805 -1.341951 0.77937 -1.06066 1.06066 
C -0.77937 1.341951 -0.397805 1.5 0 1.5 
z
" id="mf07b37a2f1" style="stroke:#f5deb3;"/>
    </defs>
    <g>
     <use style="fill:#f5deb3;stroke:#f5deb3;" x="212.530584" xlink:href="#mf07b37a2f1" y="30.334099"/>
     <use style="fill:#f5deb3;stroke:#f5deb3;" x="212.530584" xlink:href="#mf07b37a2f1" y="30.334099"/>
    </g>
   </g>
   <g id="line2d_34">
    <defs>
     <path d="M 0 1.5 
C 0.397805 1.5 0.77937 1.341951 1.06066 1.06066 
C 1.341951 0.77937 1.5 0.397805 1.5 0 
C 1.5 -0.397805 1.341951 -0.77937 1.06066 -1.06066 
C 0.77937 -1.341951 0.397805 -1.5 0 -1.5 
C -0.397805 -1.5 -0.77937 -1.341951 -1.06066 -1.06066 
C -1.341951 -0.77937 -1.5 -0.397805 -1.5 0 
C -1.5 0.397805 -1.341951 0.77937 -1.06066 1.06066 
C -0.77937 1.341951 -0.397805 1.5 0 1.5 
z
" id="m1d62c9e3ad" style="stroke:#000080;"/>
    </defs>
    <g>
     <use style="fill:#000080;stroke:#000080;" x="209.059447" xlink:href="#m1d62c9e3ad" y="262.075974"/>
     <use style="fill:#000080;stroke:#000080;" x="209.059447" xlink:href="#m1d62c9e3ad" y="262.075974"/>
    </g>
   </g>
   <g id="line2d_35">
    <path d="M 17.444571 298.944 
L 17.444571 293.677139 
L 29.53256 293.677139 
L 29.53256 291.043709 
L 36.60358 291.043709 
L 36.60358 289.990337 
L 41.620548 289.990337 
L 41.620548 288.410278 
L 45.512012 288.410278 
L 45.512012 287.883592 
L 48.691568 287.883592 
L 48.691568 286.303534 
L 51.379845 286.303534 
L 51.379845 285.250162 
L 53.708537 285.250162 
L 53.708537 284.19679 
L 55.762588 284.19679 
L 55.762588 283.143418 
L 59.262141 283.143418 
L 59.262141 282.616732 
L 65.796525 282.616732 
L 65.796525 282.090045 
L 67.850577 282.090045 
L 67.850577 281.563359 
L 71.35013 281.563359 
L 71.35013 280.509987 
L 76.16779 280.509987 
L 76.16779 279.983301 
L 92.026554 279.983301 
L 92.026554 279.456615 
L 100.641881 279.456615 
L 100.641881 278.929929 
L 102.060491 278.929929 
L 102.060491 278.403243 
L 111.346294 278.403243 
L 111.346294 277.876557 
L 112.506763 277.876557 
L 112.506763 277.349871 
L 119.199476 277.349871 
L 119.199476 276.823185 
L 126.304457 276.823185 
L 126.304457 276.296499 
L 132.730358 276.296499 
L 132.730358 275.769812 
L 138.611599 275.769812 
L 138.611599 275.243126 
L 142.065403 275.243126 
L 142.065403 274.71644 
L 144.724207 274.71644 
L 144.724207 274.189754 
L 147.87818 274.189754 
L 147.87818 273.663068 
L 148.94759 273.663068 
L 148.94759 273.136382 
L 151.453659 273.136382 
L 151.453659 272.609696 
L 152.944315 272.609696 
L 152.944315 272.08301 
L 154.146519 272.08301 
L 154.146519 271.556324 
L 157.179966 271.556324 
L 157.179966 271.029638 
L 167.960895 271.029638 
L 167.960895 270.502952 
L 170.58055 270.502952 
L 170.58055 269.976266 
L 170.663398 269.976266 
L 170.663398 269.449579 
L 171.458184 269.449579 
L 171.458184 268.922893 
L 171.818705 268.922893 
L 171.818705 268.396207 
L 176.004603 268.396207 
L 176.004603 267.869521 
L 177.193782 267.869521 
L 177.193782 267.342835 
L 177.567431 267.342835 
L 177.567431 266.816149 
L 177.936755 266.816149 
L 177.936755 266.289463 
L 186.810013 266.289463 
L 186.810013 265.762777 
L 188.774874 265.762777 
L 188.774874 265.236091 
L 196.317921 265.236091 
L 196.317921 264.709405 
L 201.86011 264.709405 
L 201.86011 264.182719 
L 205.594986 264.182719 
L 205.594986 263.129347 
L 205.828676 263.129347 
L 205.828676 262.60266 
L 209.059447 262.60266 
L 209.059447 262.075974 
L 338.688 262.075974 
" style="fill:none;stroke:#000080;stroke-linecap:square;stroke-width:1.5;"/>
   </g>
   <g id="line2d_36">
    <defs>
     <path d="M 0 6 
C 1.591219 6 3.117479 5.367802 4.242641 4.242641 
C 5.367802 3.117479 6 1.591219 6 0 
C 6 -1.591219 5.367802 -3.117479 4.242641 -4.242641 
C 3.117479 -5.367802 1.591219 -6 0 -6 
C -1.591219 -6 -3.117479 -5.367802 -4.242641 -4.242641 
C -5.367802 -3.117479 -6 -1.591219 -6 0 
C -6 1.591219 -5.367802 3.117479 -4.242641 4.242641 
C -3.117479 5.367802 -1.591219 6 0 6 
z
" id="me1d9e7fe46" style="stroke:#000080;stroke-width:1.5;"/>
    </defs>
    <g>
     <use style="fill-opacity:0;stroke:#000080;stroke-width:1.5;" x="76.16779" xlink:href="#me1d9e7fe46" y="280.509987"/>
     <use style="fill-opacity:0;stroke:#000080;stroke-width:1.5;" x="154.146519" xlink:href="#me1d9e7fe46" y="271.556324"/>
     <use style="fill-opacity:0;stroke:#000080;stroke-width:1.5;" x="209.059447" xlink:href="#me1d9e7fe46" y="262.60266"/>
     <use style="fill-opacity:0;stroke:#000080;stroke-width:1.5;" x="209.059447" xlink:href="#me1d9e7fe46" y="262.075974"/>
     <use style="fill-opacity:0;stroke:#000080;stroke-width:1.5;" x="209.059447" xlink:href="#me1d9e7fe46" y="262.075974"/>
     <use style="fill-opacity:0;stroke:#000080;stroke-width:1.5;" x="338.688" xlink:href="#me1d9e7fe46" y="262.075974"/>
    </g>
   </g>
   <g id="line2d_37">
    <path style="fill:none;stroke:#000080;stroke-linecap:square;stroke-width:1.5;"/>
    <g/>
   </g>
   <g id="line2d_38">
    <path clip-path="url(#pa300a6decc)" d="M 178.066286 266.289463 
" style="fill:none;stroke:#000080;stroke-linecap:square;stroke-width:1.5;"/>
    <defs>
     <path d="M -12 12 
L 12 -12 
M -12 -12 
L 12 12 
" id="mc437102b39" style="stroke:#000080;"/>
    </defs>
    <g clip-path="url(#pa300a6decc)">
     <use style="fill:#000080;stroke:#000080;" x="178.066286" xlink:href="#mc437102b39" y="266.289463"/>
    </g>
   </g>
   <g id="line2d_39">
    <defs>
     <path d="M 0 1.5 
C 0.397805 1.5 0.77937 1.341951 1.06066 1.06066 
C 1.341951 0.77937 1.5 0.397805 1.5 0 
C 1.5 -0.397805 1.341951 -0.77937 1.06066 -1.06066 
C 0.77937 -1.341951 0.397805 -1.5 0 -1.5 
C -0.397805 -1.5 -0.77937 -1.341951 -1.06066 -1.06066 
C -1.341951 -0.77937 -1.5 -0.397805 -1.5 0 
C -1.5 0.397805 -1.341951 0.77937 -1.06066 1.06066 
C -0.77937 1.341951 -0.397805 1.5 0 1.5 
z
" id="mc98656c2cf" style="stroke:#ff00ff;"/>
    </defs>
    <g>
     <use style="fill:#ff00ff;stroke:#ff00ff;" x="226.063917" xlink:href="#mc98656c2cf" y="230.47481"/>
     <use style="fill:#ff00ff;stroke:#ff00ff;" x="226.063917" xlink:href="#mc98656c2cf" y="230.47481"/>
    </g>
   </g>
   <g id="line2d_40">
    <path d="M 17.444571 298.944 
L 17.444571 292.097081 
L 29.53256 292.097081 
L 29.53256 288.936964 
L 45.512012 288.936964 
L 45.512012 287.883592 
L 51.379845 287.883592 
L 51.379845 286.83022 
L 59.262141 286.83022 
L 59.262141 286.303534 
L 60.779557 286.303534 
L 60.779557 285.776848 
L 62.175444 285.776848 
L 62.175444 284.723476 
L 67.850577 284.723476 
L 67.850577 283.670104 
L 68.79347 283.670104 
L 68.79347 283.143418 
L 71.35013 283.143418 
L 71.35013 282.616732 
L 72.125336 282.616732 
L 72.125336 282.090045 
L 87.643811 282.090045 
L 87.643811 281.563359 
L 90.242884 281.563359 
L 90.242884 281.036673 
L 94.505975 281.036673 
L 94.505975 280.509987 
L 101.923711 280.509987 
L 101.923711 279.983301 
L 103.623262 279.983301 
L 103.623262 279.456615 
L 106.48859 279.456615 
L 106.48859 278.929929 
L 108.006005 278.929929 
L 108.006005 278.403243 
L 112.877038 278.403243 
L 112.877038 277.876557 
L 113.524343 277.876557 
L 113.524343 276.823185 
L 122.740699 276.823185 
L 122.740699 276.296499 
L 124.557288 276.296499 
L 124.557288 275.769812 
L 128.107907 275.769812 
L 128.107907 275.243126 
L 131.159516 275.243126 
L 131.159516 274.71644 
L 133.510666 274.71644 
L 133.510666 274.189754 
L 137.053015 274.189754 
L 137.053015 273.663068 
L 141.844124 273.663068 
L 141.844124 273.136382 
L 143.902815 273.136382 
L 143.902815 272.609696 
L 144.318346 272.609696 
L 144.318346 272.08301 
L 145.189903 272.08301 
L 145.189903 271.556324 
L 146.420639 271.556324 
L 146.420639 271.029638 
L 148.40198 271.029638 
L 148.40198 270.502952 
L 148.76137 270.502952 
L 148.76137 269.976266 
L 150.882897 269.976266 
L 150.882897 269.449579 
L 151.146137 269.449579 
L 151.146137 268.922893 
L 153.587744 268.922893 
L 153.587744 268.396207 
L 154.337936 268.396207 
L 154.337936 267.869521 
L 154.89331 267.869521 
L 154.89331 267.342835 
L 155.017994 267.342835 
L 155.017994 266.816149 
L 155.367568 266.816149 
L 155.367568 266.289463 
L 155.773004 266.289463 
L 155.773004 265.762777 
L 157.455057 265.762777 
L 157.455057 265.236091 
L 157.664184 265.236091 
L 157.697862 264.182719 
L 157.80408 264.182719 
L 157.80408 263.656033 
L 158.325678 263.656033 
L 158.325678 263.129347 
L 159.278248 263.129347 
L 159.278248 262.60266 
L 160.10837 262.60266 
L 160.10837 262.075974 
L 161.515149 262.075974 
L 161.515149 261.549288 
L 162.19549 261.549288 
L 162.19549 261.022602 
L 162.50469 261.022602 
L 162.50469 260.495916 
L 163.037069 260.495916 
L 163.037069 259.96923 
L 166.065276 259.96923 
L 166.068747 258.915858 
L 166.849082 258.915858 
L 166.849082 258.389172 
L 167.001045 258.389172 
L 167.001045 257.862486 
L 167.397779 257.862486 
L 167.397779 257.3358 
L 168.743139 257.3358 
L 168.743139 256.809114 
L 169.956045 256.809114 
L 169.956045 256.282427 
L 170.674059 256.282427 
L 170.674059 255.755741 
L 171.014438 255.755741 
L 171.014438 255.229055 
L 171.294385 255.229055 
L 171.294385 254.702369 
L 171.622982 254.702369 
L 171.622982 254.175683 
L 172.663747 254.175683 
L 172.663747 253.648997 
L 174.825234 253.648997 
L 174.825234 253.122311 
L 175.127122 253.122311 
L 175.127122 252.595625 
L 175.250528 252.595625 
L 175.250528 252.068939 
L 175.373067 252.068939 
L 175.373067 251.542253 
L 175.488687 251.542253 
L 175.488687 251.015567 
L 176.402401 251.015567 
L 176.402401 250.488881 
L 176.851262 250.488881 
L 176.851262 249.962195 
L 180.813259 249.962195 
L 180.813259 249.435508 
L 182.939663 249.435508 
L 182.939663 248.908822 
L 183.965233 248.908822 
L 183.965233 248.382136 
L 184.313624 248.382136 
L 184.313624 247.85545 
L 185.398098 247.85545 
L 185.484929 246.802078 
L 186.56643 246.802078 
L 186.56643 245.22202 
L 186.846944 245.22202 
L 186.846944 244.695334 
L 188.185575 244.695334 
L 188.185575 244.168648 
L 189.735094 244.168648 
L 189.735094 243.641962 
L 192.378782 243.641962 
L 192.378782 243.115275 
L 192.81238 243.115275 
L 192.81238 242.588589 
L 195.246505 242.588589 
L 195.246505 242.061903 
L 196.299541 242.061903 
L 196.407706 241.008531 
L 196.946963 241.008531 
L 196.946963 240.481845 
L 198.739367 240.481845 
L 198.739367 239.955159 
L 199.041592 239.955159 
L 199.041592 239.428473 
L 199.565318 239.428473 
L 199.565318 238.901787 
L 200.063402 238.901787 
L 200.063402 238.375101 
L 201.189617 238.375101 
L 201.189617 237.848415 
L 201.486704 237.848415 
L 201.486704 236.795043 
L 205.584191 236.795043 
L 205.647787 235.74167 
L 205.967261 235.74167 
L 205.967261 235.214984 
L 207.246038 235.214984 
L 207.246038 234.688298 
L 207.891362 234.688298 
L 207.891362 234.161612 
L 211.882818 234.161612 
L 211.882818 233.634926 
L 214.02813 233.634926 
L 214.02813 233.10824 
L 215.64836 233.10824 
L 215.64836 232.581554 
L 219.664651 232.581554 
L 219.664651 232.054868 
L 219.808386 232.054868 
L 219.808386 231.528182 
L 223.902824 231.528182 
L 223.902824 231.001496 
L 226.063917 231.001496 
L 226.063917 230.47481 
L 338.688 230.47481 
L 338.688 230.47481 
" style="fill:none;stroke:#ff00ff;stroke-linecap:square;stroke-width:1.5;"/>
   </g>
   <g id="line2d_41">
    <defs>
     <path d="M 0 8.485281 
L 5.091169 0 
L 0 -8.485281 
L -5.091169 0 
z
" id="mf6499d2a78" style="stroke:#ff00ff;stroke-linejoin:miter;stroke-width:1.5;"/>
    </defs>
    <g>
     <use style="fill-opacity:0;stroke:#ff00ff;stroke-linejoin:miter;stroke-width:1.5;" x="62.175444" xlink:href="#mf6499d2a78" y="285.776848"/>
     <use style="fill-opacity:0;stroke:#ff00ff;stroke-linejoin:miter;stroke-width:1.5;" x="151.146137" xlink:href="#mf6499d2a78" y="269.449579"/>
     <use style="fill-opacity:0;stroke:#ff00ff;stroke-linejoin:miter;stroke-width:1.5;" x="219.808386" xlink:href="#mf6499d2a78" y="232.054868"/>
     <use style="fill-opacity:0;stroke:#ff00ff;stroke-linejoin:miter;stroke-width:1.5;" x="226.063917" xlink:href="#mf6499d2a78" y="230.47481"/>
     <use style="fill-opacity:0;stroke:#ff00ff;stroke-linejoin:miter;stroke-width:1.5;" x="226.063917" xlink:href="#mf6499d2a78" y="230.47481"/>
     <use style="fill-opacity:0;stroke:#ff00ff;stroke-linejoin:miter;stroke-width:1.5;" x="338.688" xlink:href="#mf6499d2a78" y="230.47481"/>
    </g>
   </g>
   <g id="line2d_42">
    <path style="fill:none;stroke:#ff00ff;stroke-linecap:square;stroke-width:1.5;"/>
    <g/>
   </g>
   <g id="line2d_43">
    <path clip-path="url(#pa300a6decc)" d="M 178.066286 249.962195 
" style="fill:none;stroke:#ff00ff;stroke-linecap:square;stroke-width:1.5;"/>
    <defs>
     <path d="M -12 12 
L 12 -12 
M -12 -12 
L 12 12 
" id="md0b0bec4bd" style="stroke:#ff00ff;"/>
    </defs>
    <g clip-path="url(#pa300a6decc)">
     <use style="fill:#ff00ff;stroke:#ff00ff;" x="178.066286" xlink:href="#md0b0bec4bd" y="249.962195"/>
    </g>
   </g>
   <g id="line2d_44">
    <defs>
     <path d="M 0 1.5 
C 0.397805 1.5 0.77937 1.341951 1.06066 1.06066 
C 1.341951 0.77937 1.5 0.397805 1.5 0 
C 1.5 -0.397805 1.341951 -0.77937 1.06066 -1.06066 
C 0.77937 -1.341951 0.397805 -1.5 0 -1.5 
C -0.397805 -1.5 -0.77937 -1.341951 -1.06066 -1.06066 
C -1.341951 -0.77937 -1.5 -0.397805 -1.5 0 
C -1.5 0.397805 -1.341951 0.77937 -1.06066 1.06066 
C -0.77937 1.341951 -0.397805 1.5 0 1.5 
z
" id="m68123e706c" style="stroke:#ff7500;"/>
    </defs>
    <g>
     <use style="fill:#ff7500;stroke:#ff7500;" x="235.251652" xlink:href="#m68123e706c" y="241.008531"/>
     <use style="fill:#ff7500;stroke:#ff7500;" x="235.251652" xlink:href="#m68123e706c" y="241.008531"/>
    </g>
   </g>
   <g id="line2d_45">
    <path d="M 17.444571 298.944 
L 17.444571 293.150453 
L 29.53256 293.150453 
L 29.53256 290.517023 
L 36.60358 290.517023 
L 36.60358 289.463651 
L 41.620548 289.463651 
L 41.620548 288.410278 
L 48.691568 288.410278 
L 48.691568 287.883592 
L 51.379845 287.883592 
L 51.379845 286.303534 
L 53.708537 286.303534 
L 53.708537 285.776848 
L 57.6 285.776848 
L 57.6 285.250162 
L 59.262141 285.250162 
L 59.262141 284.723476 
L 65.796525 284.723476 
L 65.796525 283.670104 
L 71.35013 283.670104 
L 71.35013 283.143418 
L 74.921597 283.143418 
L 74.921597 282.616732 
L 76.16779 282.616732 
L 76.16779 282.090045 
L 76.759008 282.090045 
L 76.759008 281.563359 
L 103.498249 281.563359 
L 103.498249 280.509987 
L 104.474128 280.509987 
L 104.474128 279.983301 
L 106.06061 279.983301 
L 106.06061 279.456615 
L 109.31223 279.456615 
L 109.31223 278.929929 
L 109.668146 278.929929 
L 109.668146 278.403243 
L 116.797786 278.403243 
L 116.797786 277.876557 
L 119.301163 277.876557 
L 119.301163 277.349871 
L 127.067859 277.349871 
L 127.067859 276.823185 
L 129.002426 276.823185 
L 129.002426 276.296499 
L 135.056115 276.296499 
L 135.056115 275.769812 
L 143.678752 275.769812 
L 143.678752 275.243126 
L 149.797132 275.243126 
L 149.797132 274.71644 
L 152.383036 274.71644 
L 152.383036 274.189754 
L 153.395042 274.189754 
L 153.395042 273.663068 
L 153.904255 273.663068 
L 153.904255 273.136382 
L 155.804285 273.136382 
L 155.804285 272.609696 
L 156.658127 272.609696 
L 156.658127 272.08301 
L 157.2549 272.08301 
L 157.2549 271.556324 
L 157.84861 271.556324 
L 157.84861 271.029638 
L 159.486982 271.029638 
L 159.486982 270.502952 
L 161.27016 270.502952 
L 161.27016 269.976266 
L 162.423627 269.976266 
L 162.423627 269.449579 
L 162.669913 269.449579 
L 162.669913 268.922893 
L 162.841936 268.922893 
L 162.916926 267.869521 
L 163.597709 267.869521 
L 163.597709 267.342835 
L 163.94995 267.342835 
L 163.94995 266.816149 
L 164.516598 266.816149 
L 164.516598 266.289463 
L 165.472262 266.289463 
L 165.472262 265.762777 
L 165.700557 265.762777 
L 165.746566 264.709405 
L 166.520851 264.709405 
L 166.520851 264.182719 
L 167.413847 264.182719 
L 167.413847 263.656033 
L 169.236155 263.656033 
L 169.236155 263.129347 
L 169.86976 263.129347 
L 169.933819 262.075974 
L 170.280634 262.075974 
L 170.280634 261.549288 
L 170.788258 261.549288 
L 170.788258 261.022602 
L 171.050982 261.022602 
L 171.050982 260.495916 
L 171.402051 260.495916 
L 171.402051 259.96923 
L 171.781236 259.96923 
L 171.781236 259.442544 
L 172.181702 259.442544 
L 172.181702 258.915858 
L 172.568398 258.915858 
L 172.568398 258.389172 
L 173.431097 258.389172 
L 173.431097 257.862486 
L 175.387307 257.862486 
L 175.442125 256.282427 
L 176.873685 256.282427 
L 176.976088 255.229055 
L 177.841622 255.229055 
L 177.841622 254.702369 
L 177.99814 254.702369 
L 177.99814 254.175683 
L 185.404969 254.175683 
L 185.439282 253.122311 
L 186.692369 253.122311 
L 186.692369 252.595625 
L 186.892209 252.595625 
L 186.892209 252.068939 
L 187.138572 252.068939 
L 187.138572 251.015567 
L 187.45902 251.015567 
L 187.45902 250.488881 
L 187.683498 250.488881 
L 187.683498 249.962195 
L 194.22755 249.962195 
L 194.22755 249.435508 
L 194.40612 249.435508 
L 194.40612 248.382136 
L 195.617595 248.382136 
L 195.617595 247.85545 
L 195.812832 247.85545 
L 195.812832 247.328764 
L 196.377219 247.328764 
L 196.377219 246.802078 
L 200.171745 246.802078 
L 200.171745 246.275392 
L 202.225251 246.275392 
L 202.225251 245.748706 
L 205.629845 245.748706 
L 205.629845 244.695334 
L 211.330608 244.695334 
L 211.330608 244.168648 
L 211.643137 244.168648 
L 211.643137 243.641962 
L 211.991841 243.641962 
L 211.991841 243.115275 
L 213.764196 243.115275 
L 213.764196 242.588589 
L 218.214912 242.588589 
L 218.214912 242.061903 
L 223.911258 242.061903 
L 223.911258 241.535217 
L 235.251652 241.535217 
L 235.251652 241.008531 
L 338.688 241.008531 
L 338.688 241.008531 
" style="fill:none;stroke:#ff7500;stroke-linecap:square;stroke-width:1.5;"/>
   </g>
   <g id="line2d_46">
    <defs>
     <path d="M 0 -6 
L -1.347084 -1.854102 
L -5.706339 -1.854102 
L -2.179628 0.708204 
L -3.526712 4.854102 
L -0 2.291796 
L 3.526712 4.854102 
L 2.179628 0.708204 
L 5.706339 -1.854102 
L 1.347084 -1.854102 
z
" id="m76a63ea576" style="stroke:#ff7500;stroke-linejoin:bevel;stroke-width:1.5;"/>
    </defs>
    <g>
     <use style="fill-opacity:0;stroke:#ff7500;stroke-linejoin:bevel;stroke-width:1.5;" x="76.16779" xlink:href="#m76a63ea576" y="282.616732"/>
     <use style="fill-opacity:0;stroke:#ff7500;stroke-linejoin:bevel;stroke-width:1.5;" x="169.933819" xlink:href="#m76a63ea576" y="262.60266"/>
     <use style="fill-opacity:0;stroke:#ff7500;stroke-linejoin:bevel;stroke-width:1.5;" x="223.911258" xlink:href="#m76a63ea576" y="241.535217"/>
     <use style="fill-opacity:0;stroke:#ff7500;stroke-linejoin:bevel;stroke-width:1.5;" x="235.251652" xlink:href="#m76a63ea576" y="241.008531"/>
     <use style="fill-opacity:0;stroke:#ff7500;stroke-linejoin:bevel;stroke-width:1.5;" x="235.251652" xlink:href="#m76a63ea576" y="241.008531"/>
     <use style="fill-opacity:0;stroke:#ff7500;stroke-linejoin:bevel;stroke-width:1.5;" x="338.688" xlink:href="#m76a63ea576" y="241.008531"/>
    </g>
   </g>
   <g id="line2d_47">
    <path style="fill:none;stroke:#ff7500;stroke-linecap:square;stroke-width:1.5;"/>
    <g/>
   </g>
   <g id="line2d_48">
    <path clip-path="url(#pa300a6decc)" d="M 178.066286 254.175683 
" style="fill:none;stroke:#ff7500;stroke-linecap:square;stroke-width:1.5;"/>
    <defs>
     <path d="M -12 12 
L 12 -12 
M -12 -12 
L 12 12 
" id="mf6024f4e4a" style="stroke:#ff7500;"/>
    </defs>
    <g clip-path="url(#pa300a6decc)">
     <use style="fill:#ff7500;stroke:#ff7500;" x="178.066286" xlink:href="#mf6024f4e4a" y="254.175683"/>
    </g>
   </g>
   <g id="line2d_49">
    <defs>
     <path d="M 0 1.5 
C 0.397805 1.5 0.77937 1.341951 1.06066 1.06066 
C 1.341951 0.77937 1.5 0.397805 1.5 0 
C 1.5 -0.397805 1.341951 -0.77937 1.06066 -1.06066 
C 0.77937 -1.341951 0.397805 -1.5 0 -1.5 
C -0.397805 -1.5 -0.77937 -1.341951 -1.06066 -1.06066 
C -1.341951 -0.77937 -1.5 -0.397805 -1.5 0 
C -1.5 0.397805 -1.341951 0.77937 -1.06066 1.06066 
C -0.77937 1.341951 -0.397805 1.5 0 1.5 
z
" id="mba996812a8" style="stroke:#6495ed;"/>
    </defs>
    <g>
     <use style="fill:#6495ed;stroke:#6495ed;" x="230.294611" xlink:href="#mba996812a8" y="251.542253"/>
     <use style="fill:#6495ed;stroke:#6495ed;" x="230.294611" xlink:href="#mba996812a8" y="251.542253"/>
    </g>
   </g>
   <g id="line2d_50">
    <path d="M 17.444571 298.944 
L 17.444571 293.677139 
L 29.53256 293.677139 
L 29.53256 291.570395 
L 36.60358 291.570395 
L 36.60358 289.463651 
L 41.620548 289.463651 
L 41.620548 287.883592 
L 48.691568 287.883592 
L 48.691568 287.356906 
L 55.762588 287.356906 
L 55.762588 286.83022 
L 66.853775 286.83022 
L 66.853775 286.303534 
L 71.35013 286.303534 
L 71.35013 285.250162 
L 72.867545 285.250162 
L 72.867545 284.723476 
L 77.330839 284.723476 
L 77.330839 283.143418 
L 79.938565 283.143418 
L 79.938565 282.616732 
L 86.683608 282.616732 
L 86.683608 282.090045 
L 88.553893 282.090045 
L 88.553893 281.563359 
L 101.506816 281.563359 
L 101.506816 280.509987 
L 111.584648 280.509987 
L 111.584648 279.983301 
L 113.382559 279.983301 
L 113.382559 279.456615 
L 113.873839 279.456615 
L 113.873839 278.929929 
L 123.354102 278.929929 
L 123.354102 278.403243 
L 123.868806 278.403243 
L 123.868806 277.349871 
L 125.647598 277.349871 
L 125.647598 276.823185 
L 135.819708 276.823185 
L 135.858985 275.769812 
L 154.139643 275.769812 
L 154.139643 275.243126 
L 158.471118 275.243126 
L 158.471118 274.71644 
L 160.910098 274.71644 
L 160.910098 274.189754 
L 161.343109 274.189754 
L 161.343109 273.663068 
L 162.958448 273.663068 
L 162.958448 273.136382 
L 165.204517 273.136382 
L 165.204517 272.609696 
L 171.13163 272.609696 
L 171.13163 272.08301 
L 171.27895 272.08301 
L 171.27895 271.556324 
L 171.574971 271.556324 
L 171.574971 271.029638 
L 173.515065 271.029638 
L 173.515065 270.502952 
L 174.393615 270.502952 
L 174.393615 269.976266 
L 174.520166 269.976266 
L 174.520166 269.449579 
L 175.065089 269.449579 
L 175.065089 268.922893 
L 176.123923 268.922893 
L 176.230812 267.869521 
L 176.517133 267.869521 
L 176.600793 266.816149 
L 177.081585 266.816149 
L 177.081585 266.289463 
L 177.204779 266.289463 
L 177.204779 265.762777 
L 177.590744 265.762777 
L 177.590744 265.236091 
L 177.761946 265.236091 
L 177.781456 264.182719 
L 187.208917 264.182719 
L 187.208917 263.656033 
L 188.026714 263.656033 
L 188.026714 263.129347 
L 188.414443 263.129347 
L 188.414443 262.60266 
L 189.210121 262.60266 
L 189.210121 262.075974 
L 189.436917 262.075974 
L 189.436917 260.495916 
L 189.565461 260.495916 
L 189.565461 259.96923 
L 189.70112 259.96923 
L 189.70112 259.442544 
L 190.002768 259.442544 
L 190.002768 258.915858 
L 194.836708 258.915858 
L 194.836708 258.389172 
L 195.836139 258.389172 
L 195.836139 257.3358 
L 196.084901 257.3358 
L 196.084901 256.809114 
L 196.834969 256.809114 
L 196.924503 255.229055 
L 197.130867 255.229055 
L 197.130867 254.702369 
L 205.911888 254.702369 
L 205.911888 254.175683 
L 211.799594 254.175683 
L 211.799594 253.648997 
L 214.153659 253.648997 
L 214.153659 253.122311 
L 216.350748 253.122311 
L 216.350748 252.595625 
L 226.388895 252.595625 
L 226.388895 252.068939 
L 230.294611 252.068939 
L 230.294611 251.542253 
L 338.688 251.542253 
L 338.688 251.542253 
" style="fill:none;stroke:#6495ed;stroke-linecap:square;stroke-width:1.5;"/>
   </g>
   <g id="line2d_51">
    <defs>
     <path d="M -0 6 
L 6 -6 
L -6 -6 
z
" id="mc446d2bbfa" style="stroke:#6495ed;stroke-linejoin:miter;stroke-width:1.5;"/>
    </defs>
    <g>
     <use style="fill-opacity:0;stroke:#6495ed;stroke-linejoin:miter;stroke-width:1.5;" x="125.647598" xlink:href="#mc446d2bbfa" y="277.349871"/>
     <use style="fill-opacity:0;stroke:#6495ed;stroke-linejoin:miter;stroke-width:1.5;" x="194.836708" xlink:href="#mc446d2bbfa" y="258.389172"/>
     <use style="fill-opacity:0;stroke:#6495ed;stroke-linejoin:miter;stroke-width:1.5;" x="230.294611" xlink:href="#mc446d2bbfa" y="252.068939"/>
     <use style="fill-opacity:0;stroke:#6495ed;stroke-linejoin:miter;stroke-width:1.5;" x="230.294611" xlink:href="#mc446d2bbfa" y="251.542253"/>
     <use style="fill-opacity:0;stroke:#6495ed;stroke-linejoin:miter;stroke-width:1.5;" x="338.688" xlink:href="#mc446d2bbfa" y="251.542253"/>
    </g>
   </g>
   <g id="line2d_52">
    <path style="fill:none;stroke:#6495ed;stroke-linecap:square;stroke-width:1.5;"/>
    <g/>
   </g>
   <g id="line2d_53">
    <path clip-path="url(#pa300a6decc)" d="M 178.066286 264.182719 
" style="fill:none;stroke:#6495ed;stroke-linecap:square;stroke-width:1.5;"/>
    <defs>
     <path d="M -12 12 
L 12 -12 
M -12 -12 
L 12 12 
" id="m1b05c0d6d7" style="stroke:#6495ed;"/>
    </defs>
    <g clip-path="url(#pa300a6decc)">
     <use style="fill:#6495ed;stroke:#6495ed;" x="178.066286" xlink:href="#m1b05c0d6d7" y="264.182719"/>
    </g>
   </g>
   <g id="line2d_54">
    <defs>
     <path d="M 0 1.5 
C 0.397805 1.5 0.77937 1.341951 1.06066 1.06066 
C 1.341951 0.77937 1.5 0.397805 1.5 0 
C 1.5 -0.397805 1.341951 -0.77937 1.06066 -1.06066 
C 0.77937 -1.341951 0.397805 -1.5 0 -1.5 
C -0.397805 -1.5 -0.77937 -1.341951 -1.06066 -1.06066 
C -1.341951 -0.77937 -1.5 -0.397805 -1.5 0 
C -1.5 0.397805 -1.341951 0.77937 -1.06066 1.06066 
C -0.77937 1.341951 -0.397805 1.5 0 1.5 
z
" id="m24922f85c1" style="stroke:#ff0000;"/>
    </defs>
    <g>
     <use style="fill:#ff0000;stroke:#ff0000;" x="230.629553" xlink:href="#m24922f85c1" y="267.342835"/>
     <use style="fill:#ff0000;stroke:#ff0000;" x="230.629553" xlink:href="#m24922f85c1" y="267.342835"/>
    </g>
   </g>
   <g id="line2d_55">
    <path d="M 17.444571 298.944 
L 17.444571 295.257197 
L 29.53256 295.257197 
L 29.53256 290.517023 
L 36.60358 290.517023 
L 36.60358 288.936964 
L 41.620548 288.936964 
L 41.620548 287.883592 
L 45.512012 287.883592 
L 45.512012 287.356906 
L 53.708537 287.356906 
L 53.708537 286.83022 
L 55.762588 286.83022 
L 55.762588 286.303534 
L 60.779557 286.303534 
L 60.779557 285.250162 
L 66.853775 285.250162 
L 66.853775 284.723476 
L 67.850577 284.723476 
L 67.850577 284.19679 
L 68.79347 284.19679 
L 68.79347 283.670104 
L 72.867545 283.670104 
L 72.867545 282.616732 
L 77.884514 282.616732 
L 77.884514 282.090045 
L 78.421149 282.090045 
L 78.421149 281.563359 
L 79.938565 281.563359 
L 79.938565 281.036673 
L 97.403108 281.036673 
L 97.403108 280.509987 
L 99.258306 280.509987 
L 99.258306 279.983301 
L 117.259781 279.983301 
L 117.259781 279.456615 
L 124.216444 279.456615 
L 124.216444 278.929929 
L 134.106373 278.929929 
L 134.106373 278.403243 
L 137.053015 278.403243 
L 137.053015 277.349871 
L 138.661784 277.349871 
L 138.661784 276.823185 
L 139.793552 276.823185 
L 139.793552 276.296499 
L 142.472881 276.296499 
L 142.472881 275.769812 
L 145.564956 275.769812 
L 145.564956 275.243126 
L 147.729844 275.243126 
L 147.729844 274.71644 
L 152.818666 274.71644 
L 152.818666 274.189754 
L 159.507213 274.189754 
L 159.507213 273.663068 
L 160.736665 273.663068 
L 160.736665 273.136382 
L 165.017568 273.136382 
L 165.017568 272.609696 
L 171.668344 272.609696 
L 171.668344 272.08301 
L 179.908231 272.08301 
L 179.908231 271.556324 
L 185.005432 271.556324 
L 185.005432 271.029638 
L 190.965233 271.029638 
L 190.965233 270.502952 
L 193.966733 270.502952 
L 193.966733 269.976266 
L 203.78589 269.976266 
L 203.78589 269.449579 
L 204.252467 269.449579 
L 204.252467 268.922893 
L 209.587814 268.922893 
L 209.587814 268.396207 
L 213.178451 268.396207 
L 213.178451 267.869521 
L 230.629553 267.869521 
L 230.629553 267.342835 
L 338.688 267.342835 
" style="fill:none;stroke:#ff0000;stroke-linecap:square;stroke-width:1.5;"/>
   </g>
   <g id="line2d_56">
    <defs>
     <path d="M 0 -6 
L -5.196152 -3 
L -5.196152 3 
L -0 6 
L 5.196152 3 
L 5.196152 -3 
z
" id="m8565cd7f2d" style="stroke:#ff0000;stroke-linejoin:miter;stroke-width:1.5;"/>
    </defs>
    <g>
     <use style="fill-opacity:0;stroke:#ff0000;stroke-linejoin:miter;stroke-width:1.5;" x="117.259781" xlink:href="#m8565cd7f2d" y="279.456615"/>
     <use style="fill-opacity:0;stroke:#ff0000;stroke-linejoin:miter;stroke-width:1.5;" x="185.005432" xlink:href="#m8565cd7f2d" y="271.029638"/>
     <use style="fill-opacity:0;stroke:#ff0000;stroke-linejoin:miter;stroke-width:1.5;" x="230.629553" xlink:href="#m8565cd7f2d" y="267.869521"/>
     <use style="fill-opacity:0;stroke:#ff0000;stroke-linejoin:miter;stroke-width:1.5;" x="230.629553" xlink:href="#m8565cd7f2d" y="267.342835"/>
     <use style="fill-opacity:0;stroke:#ff0000;stroke-linejoin:miter;stroke-width:1.5;" x="230.629553" xlink:href="#m8565cd7f2d" y="267.342835"/>
     <use style="fill-opacity:0;stroke:#ff0000;stroke-linejoin:miter;stroke-width:1.5;" x="338.688" xlink:href="#m8565cd7f2d" y="267.342835"/>
    </g>
   </g>
   <g id="line2d_57">
    <path style="fill:none;stroke:#ff0000;stroke-linecap:square;stroke-width:1.5;"/>
    <g/>
   </g>
   <g id="line2d_58">
    <path clip-path="url(#pa300a6decc)" d="M 178.066286 272.08301 
" style="fill:none;stroke:#ff0000;stroke-linecap:square;stroke-width:1.5;"/>
    <defs>
     <path d="M -12 12 
L 12 -12 
M -12 -12 
L 12 12 
" id="m6a373118b3" style="stroke:#ff0000;"/>
    </defs>
    <g clip-path="url(#pa300a6decc)">
     <use style="fill:#ff0000;stroke:#ff0000;" x="178.066286" xlink:href="#m6a373118b3" y="272.08301"/>
    </g>
   </g>
   <g id="line2d_59">
    <defs>
     <path d="M 0 1.5 
C 0.397805 1.5 0.77937 1.341951 1.06066 1.06066 
C 1.341951 0.77937 1.5 0.397805 1.5 0 
C 1.5 -0.397805 1.341951 -0.77937 1.06066 -1.06066 
C 0.77937 -1.341951 0.397805 -1.5 0 -1.5 
C -0.397805 -1.5 -0.77937 -1.341951 -1.06066 -1.06066 
C -1.341951 -0.77937 -1.5 -0.397805 -1.5 0 
C -1.5 0.397805 -1.341951 0.77937 -1.06066 1.06066 
C -0.77937 1.341951 -0.397805 1.5 0 1.5 
z
" id="m2e7187c372" style="stroke:#9acd32;"/>
    </defs>
    <g>
     <use style="fill:#9acd32;stroke:#9acd32;" x="230.296967" xlink:href="#m2e7187c372" y="256.809114"/>
     <use style="fill:#9acd32;stroke:#9acd32;" x="230.296967" xlink:href="#m2e7187c372" y="256.809114"/>
    </g>
   </g>
   <g id="line2d_60">
    <path d="M 17.444571 298.944 
L 17.444571 296.837256 
L 29.53256 296.837256 
L 29.53256 292.623767 
L 36.60358 292.623767 
L 36.60358 292.097081 
L 41.620548 292.097081 
L 41.620548 291.043709 
L 45.512012 291.043709 
L 45.512012 289.463651 
L 51.379845 289.463651 
L 51.379845 288.410278 
L 53.708537 288.410278 
L 53.708537 287.883592 
L 57.6 287.883592 
L 57.6 286.303534 
L 63.467834 286.303534 
L 63.467834 285.250162 
L 66.853775 285.250162 
L 66.853775 284.723476 
L 67.850577 284.723476 
L 67.850577 284.19679 
L 69.687988 284.19679 
L 69.687988 283.670104 
L 74.921597 283.670104 
L 74.921597 282.616732 
L 76.759008 282.616732 
L 76.759008 282.090045 
L 86.351421 282.090045 
L 86.351421 281.563359 
L 87.643811 281.563359 
L 87.643811 280.509987 
L 92.73846 280.509987 
L 92.73846 279.983301 
L 95.526106 279.983301 
L 95.526106 278.929929 
L 99.097574 278.929929 
L 99.097574 278.403243 
L 109.668146 278.403243 
L 109.668146 277.349871 
L 110.274038 277.349871 
L 110.274038 276.823185 
L 119.602714 276.823185 
L 119.602714 276.296499 
L 127.067859 276.296499 
L 127.067859 275.769812 
L 132.494049 275.769812 
L 132.494049 275.243126 
L 138.049816 275.243126 
L 138.049816 274.71644 
L 143.221802 274.71644 
L 143.221802 274.189754 
L 144.402681 274.189754 
L 144.402681 273.663068 
L 150.224095 273.663068 
L 150.224095 272.609696 
L 152.199544 272.609696 
L 152.199544 272.08301 
L 152.833495 272.08301 
L 152.833495 271.556324 
L 153.70094 271.556324 
L 153.70094 271.029638 
L 153.778339 271.029638 
L 153.778339 270.502952 
L 153.883332 270.502952 
L 153.883332 269.976266 
L 162.462072 269.976266 
L 162.462072 269.449579 
L 166.679039 269.449579 
L 166.679039 268.922893 
L 167.010909 268.922893 
L 167.010909 268.396207 
L 171.250617 268.396207 
L 171.250617 267.869521 
L 171.343174 267.869521 
L 171.343174 267.342835 
L 173.401498 267.342835 
L 173.401498 266.816149 
L 174.220541 266.816149 
L 174.220541 266.289463 
L 174.925749 266.289463 
L 174.925749 265.762777 
L 175.236175 265.762777 
L 175.236175 265.236091 
L 185.488347 265.236091 
L 185.488347 264.709405 
L 187.077307 264.709405 
L 187.077307 264.182719 
L 187.114715 264.182719 
L 187.114715 263.129347 
L 188.800336 263.129347 
L 188.800336 262.60266 
L 195.804635 262.60266 
L 195.804635 261.549288 
L 196.334447 261.549288 
L 196.334447 261.022602 
L 197.140216 261.022602 
L 197.140216 260.495916 
L 202.178493 260.495916 
L 202.178493 259.96923 
L 208.872355 259.96923 
L 208.872355 259.442544 
L 211.965148 259.442544 
L 211.965148 258.915858 
L 221.056808 258.915858 
L 221.056808 257.862486 
L 225.275752 257.862486 
L 225.275752 257.3358 
L 230.296967 257.3358 
L 230.296967 256.809114 
L 338.688 256.809114 
" style="fill:none;stroke:#9acd32;stroke-linecap:square;stroke-width:1.5;"/>
   </g>
   <g id="line2d_61">
    <defs>
     <path d="M 0 -6 
L -6 6 
L 6 6 
z
" id="mcae6216b99" style="stroke:#9acd32;stroke-linejoin:miter;stroke-width:1.5;"/>
    </defs>
    <g>
     <use style="fill-opacity:0;stroke:#9acd32;stroke-linejoin:miter;stroke-width:1.5;" x="76.759008" xlink:href="#mcae6216b99" y="282.090045"/>
     <use style="fill-opacity:0;stroke:#9acd32;stroke-linejoin:miter;stroke-width:1.5;" x="153.883332" xlink:href="#mcae6216b99" y="270.502952"/>
     <use style="fill-opacity:0;stroke:#9acd32;stroke-linejoin:miter;stroke-width:1.5;" x="211.965148" xlink:href="#mcae6216b99" y="258.915858"/>
     <use style="fill-opacity:0;stroke:#9acd32;stroke-linejoin:miter;stroke-width:1.5;" x="230.296967" xlink:href="#mcae6216b99" y="256.809114"/>
     <use style="fill-opacity:0;stroke:#9acd32;stroke-linejoin:miter;stroke-width:1.5;" x="230.296967" xlink:href="#mcae6216b99" y="256.809114"/>
     <use style="fill-opacity:0;stroke:#9acd32;stroke-linejoin:miter;stroke-width:1.5;" x="338.688" xlink:href="#mcae6216b99" y="256.809114"/>
    </g>
   </g>
   <g id="line2d_62">
    <path style="fill:none;stroke:#9acd32;stroke-linecap:square;stroke-width:1.5;"/>
    <g/>
   </g>
   <g id="line2d_63">
    <path clip-path="url(#pa300a6decc)" d="M 178.066286 265.236091 
" style="fill:none;stroke:#9acd32;stroke-linecap:square;stroke-width:1.5;"/>
    <defs>
     <path d="M -12 12 
L 12 -12 
M -12 -12 
L 12 12 
" id="ma9fc962463" style="stroke:#9acd32;"/>
    </defs>
    <g clip-path="url(#pa300a6decc)">
     <use style="fill:#9acd32;stroke:#9acd32;" x="178.066286" xlink:href="#ma9fc962463" y="265.236091"/>
    </g>
   </g>
   <g id="line2d_64">
    <defs>
     <path d="M 0 1.5 
C 0.397805 1.5 0.77937 1.341951 1.06066 1.06066 
C 1.341951 0.77937 1.5 0.397805 1.5 0 
C 1.5 -0.397805 1.341951 -0.77937 1.06066 -1.06066 
C 0.77937 -1.341951 0.397805 -1.5 0 -1.5 
C -0.397805 -1.5 -0.77937 -1.341951 -1.06066 -1.06066 
C -1.341951 -0.77937 -1.5 -0.397805 -1.5 0 
C -1.5 0.397805 -1.341951 0.77937 -1.06066 1.06066 
C -0.77937 1.341951 -0.397805 1.5 0 1.5 
z
" id="m1064404edc" style="stroke:#00bfbf;"/>
    </defs>
    <g>
     <use style="fill:#00bfbf;stroke:#00bfbf;" x="240.07433" xlink:href="#m1064404edc" y="267.342835"/>
     <use style="fill:#00bfbf;stroke:#00bfbf;" x="240.07433" xlink:href="#m1064404edc" y="267.342835"/>
    </g>
   </g>
   <g id="line2d_65">
    <path d="M 17.444571 298.944 
L 17.444571 292.623767 
L 29.53256 292.623767 
L 29.53256 291.043709 
L 36.60358 291.043709 
L 36.60358 289.463651 
L 45.512012 289.463651 
L 45.512012 288.936964 
L 48.691568 288.936964 
L 48.691568 288.410278 
L 51.379845 288.410278 
L 51.379845 287.883592 
L 55.762588 287.883592 
L 55.762588 287.356906 
L 57.6 287.356906 
L 57.6 286.303534 
L 62.175444 286.303534 
L 62.175444 285.776848 
L 64.67102 285.776848 
L 64.67102 285.250162 
L 65.796525 285.250162 
L 65.796525 284.19679 
L 68.79347 284.19679 
L 68.79347 283.670104 
L 71.35013 283.670104 
L 71.35013 283.143418 
L 79.447285 283.143418 
L 79.447285 282.616732 
L 86.012784 282.616732 
L 86.012784 282.090045 
L 90.509138 282.090045 
L 90.509138 281.563359 
L 98.935347 281.563359 
L 98.935347 280.509987 
L 101.506816 280.509987 
L 101.506816 279.983301 
L 109.040444 279.983301 
L 109.040444 279.456615 
L 113.239614 279.456615 
L 113.239614 278.929929 
L 120.33454 278.929929 
L 120.33454 278.403243 
L 122.947573 278.403243 
L 122.947573 277.876557 
L 127.516689 277.876557 
L 127.516689 277.349871 
L 129.714332 277.349871 
L 129.714332 276.823185 
L 138.324456 276.823185 
L 138.324456 276.296499 
L 147.976374 276.296499 
L 147.976374 275.769812 
L 156.193695 275.769812 
L 156.193695 275.243126 
L 166.987883 275.243126 
L 166.987883 274.71644 
L 167.007622 274.71644 
L 167.007622 274.189754 
L 168.575653 274.189754 
L 168.575653 273.663068 
L 171.453088 273.663068 
L 171.453088 273.136382 
L 172.482136 273.136382 
L 172.482136 272.609696 
L 190.247326 272.609696 
L 190.247326 272.08301 
L 197.287384 272.08301 
L 197.287384 271.556324 
L 206.171006 271.556324 
L 206.171006 271.029638 
L 209.344355 271.029638 
L 209.344355 270.502952 
L 212.028197 270.502952 
L 212.028197 269.976266 
L 214.353561 269.976266 
L 214.353561 269.449579 
L 216.405024 269.449579 
L 216.405024 268.922893 
L 228.482655 268.922893 
L 228.482655 268.396207 
L 231.169452 268.396207 
L 231.169452 267.869521 
L 240.07433 267.869521 
L 240.07433 267.342835 
L 338.688 267.342835 
" style="fill:none;stroke:#00bfbf;stroke-linecap:square;stroke-width:1.5;"/>
   </g>
   <g id="line2d_66">
    <defs>
     <path d="M 0 -6 
L -5.706339 -1.854102 
L -3.526712 4.854102 
L 3.526712 4.854102 
L 5.706339 -1.854102 
z
" id="mbae1957748" style="stroke:#00bfbf;stroke-linejoin:miter;stroke-width:1.5;"/>
    </defs>
    <g>
     <use style="fill-opacity:0;stroke:#00bfbf;stroke-linejoin:miter;stroke-width:1.5;" x="71.35013" xlink:href="#mbae1957748" y="283.143418"/>
     <use style="fill-opacity:0;stroke:#00bfbf;stroke-linejoin:miter;stroke-width:1.5;" x="156.193695" xlink:href="#mbae1957748" y="275.769812"/>
     <use style="fill-opacity:0;stroke:#00bfbf;stroke-linejoin:miter;stroke-width:1.5;" x="228.482655" xlink:href="#mbae1957748" y="268.396207"/>
     <use style="fill-opacity:0;stroke:#00bfbf;stroke-linejoin:miter;stroke-width:1.5;" x="240.07433" xlink:href="#mbae1957748" y="267.869521"/>
     <use style="fill-opacity:0;stroke:#00bfbf;stroke-linejoin:miter;stroke-width:1.5;" x="240.07433" xlink:href="#mbae1957748" y="267.342835"/>
     <use style="fill-opacity:0;stroke:#00bfbf;stroke-linejoin:miter;stroke-width:1.5;" x="338.688" xlink:href="#mbae1957748" y="267.342835"/>
    </g>
   </g>
   <g id="line2d_67">
    <path style="fill:none;stroke:#00bfbf;stroke-linecap:square;stroke-width:1.5;"/>
    <g/>
   </g>
   <g id="line2d_68">
    <path clip-path="url(#pa300a6decc)" d="M 178.066286 272.609696 
" style="fill:none;stroke:#00bfbf;stroke-linecap:square;stroke-width:1.5;"/>
    <defs>
     <path d="M -12 12 
L 12 -12 
M -12 -12 
L 12 12 
" id="m64622acb5c" style="stroke:#00bfbf;"/>
    </defs>
    <g clip-path="url(#pa300a6decc)">
     <use style="fill:#00bfbf;stroke:#00bfbf;" x="178.066286" xlink:href="#m64622acb5c" y="272.609696"/>
    </g>
   </g>
   <g id="line2d_69">
    <path d="M 338.688 267.342835 
L 369.60768 293.571802 
" style="fill:none;stroke:#00bfbf;stroke-linecap:square;stroke-width:1.5;"/>
    <g>
     <use style="fill-opacity:0;stroke:#00bfbf;stroke-linejoin:miter;stroke-width:1.5;" x="338.688" xlink:href="#mbae1957748" y="267.342835"/>
     <use style="fill-opacity:0;stroke:#00bfbf;stroke-linejoin:miter;stroke-width:1.5;" x="369.60768" xlink:href="#mbae1957748" y="293.571802"/>
    </g>
   </g>
   <g id="line2d_70">
    <path d="M 338.688 267.342835 
L 369.60768 256.733873 
" style="fill:none;stroke:#ff0000;stroke-linecap:square;stroke-width:1.5;"/>
    <g>
     <use style="fill-opacity:0;stroke:#ff0000;stroke-linejoin:miter;stroke-width:1.5;" x="338.688" xlink:href="#m8565cd7f2d" y="267.342835"/>
     <use style="fill-opacity:0;stroke:#ff0000;stroke-linejoin:miter;stroke-width:1.5;" x="369.60768" xlink:href="#m8565cd7f2d" y="256.733873"/>
    </g>
   </g>
   <g id="line2d_71">
    <path d="M 338.688 262.075974 
L 369.60768 219.895943 
" style="fill:none;stroke:#000080;stroke-linecap:square;stroke-width:1.5;"/>
    <g>
     <use style="fill-opacity:0;stroke:#000080;stroke-width:1.5;" x="338.688" xlink:href="#me1d9e7fe46" y="262.075974"/>
     <use style="fill-opacity:0;stroke:#000080;stroke-width:1.5;" x="369.60768" xlink:href="#me1d9e7fe46" y="219.895943"/>
    </g>
   </g>
   <g id="line2d_72">
    <path d="M 338.688 256.809114 
L 369.60768 183.058014 
" style="fill:none;stroke:#9acd32;stroke-linecap:square;stroke-width:1.5;"/>
    <g>
     <use style="fill-opacity:0;stroke:#9acd32;stroke-linejoin:miter;stroke-width:1.5;" x="338.688" xlink:href="#mcae6216b99" y="256.809114"/>
     <use style="fill-opacity:0;stroke:#9acd32;stroke-linejoin:miter;stroke-width:1.5;" x="369.60768" xlink:href="#mcae6216b99" y="183.058014"/>
    </g>
   </g>
   <g id="line2d_73">
    <path d="M 338.688 251.542253 
L 369.60768 146.220085 
" style="fill:none;stroke:#6495ed;stroke-linecap:square;stroke-width:1.5;"/>
    <g>
     <use style="fill-opacity:0;stroke:#6495ed;stroke-linejoin:miter;stroke-width:1.5;" x="338.688" xlink:href="#mc446d2bbfa" y="251.542253"/>
     <use style="fill-opacity:0;stroke:#6495ed;stroke-linejoin:miter;stroke-width:1.5;" x="369.60768" xlink:href="#mc446d2bbfa" y="146.220085"/>
    </g>
   </g>
   <g id="line2d_74">
    <path d="M 338.688 241.008531 
L 369.60768 109.382156 
" style="fill:none;stroke:#ff7500;stroke-linecap:square;stroke-width:1.5;"/>
    <g>
     <use style="fill-opacity:0;stroke:#ff7500;stroke-linejoin:bevel;stroke-width:1.5;" x="338.688" xlink:href="#m76a63ea576" y="241.008531"/>
     <use style="fill-opacity:0;stroke:#ff7500;stroke-linejoin:bevel;stroke-width:1.5;" x="369.60768" xlink:href="#m76a63ea576" y="109.382156"/>
    </g>
   </g>
   <g id="line2d_75">
    <path d="M 338.688 230.47481 
L 369.60768 72.544226 
" style="fill:none;stroke:#ff00ff;stroke-linecap:square;stroke-width:1.5;"/>
    <g>
     <use style="fill-opacity:0;stroke:#ff00ff;stroke-linejoin:miter;stroke-width:1.5;" x="338.688" xlink:href="#mf6499d2a78" y="230.47481"/>
     <use style="fill-opacity:0;stroke:#ff00ff;stroke-linejoin:miter;stroke-width:1.5;" x="369.60768" xlink:href="#mf6499d2a78" y="72.544226"/>
    </g>
   </g>
   <g id="line2d_76">
    <path d="M 338.688 298.944 
L 338.688 30.334099 
" style="fill:none;stroke:#000000;stroke-linecap:square;stroke-width:1.5;"/>
   </g>
   <g id="patch_3">
    <path d="M 57.6 298.944 
L 57.6 27.648 
" style="fill:none;stroke:#000000;stroke-linecap:square;stroke-linejoin:miter;stroke-width:0.8;"/>
   </g>
   <g id="patch_4">
    <path d="M 338.688 298.944 
L 338.688 27.648 
" style="fill:none;stroke:#000000;stroke-linecap:square;stroke-linejoin:miter;stroke-width:0.8;"/>
   </g>
   <g id="patch_5">
    <path d="M 57.6 298.944 
L 338.688 298.944 
" style="fill:none;stroke:#000000;stroke-linecap:square;stroke-linejoin:miter;stroke-width:0.8;"/>
   </g>
   <g id="patch_6">
    <path d="M 57.6 27.648 
L 338.688 27.648 
" style="fill:none;stroke:#000000;stroke-linecap:square;stroke-linejoin:miter;stroke-width:0.8;"/>
   </g>
   <g id="text_13">
    <!-- DEAE -->
    <g transform="translate(375.22944 298.262739)scale(0.17 -0.17)">
     <defs>
      <path d="M 1259 4147 
L 1259 519 
L 2022 519 
Q 2988 519 3436 956 
Q 3884 1394 3884 2338 
Q 3884 3275 3436 3711 
Q 2988 4147 2022 4147 
L 1259 4147 
z
M 628 4666 
L 1925 4666 
Q 3281 4666 3915 4102 
Q 4550 3538 4550 2338 
Q 4550 1131 3912 565 
Q 3275 0 1925 0 
L 628 0 
L 628 4666 
z
" id="DejaVuSans-44" transform="scale(0.015625)"/>
      <path d="M 628 4666 
L 3578 4666 
L 3578 4134 
L 1259 4134 
L 1259 2753 
L 3481 2753 
L 3481 2222 
L 1259 2222 
L 1259 531 
L 3634 531 
L 3634 0 
L 628 0 
L 628 4666 
z
" id="DejaVuSans-45" transform="scale(0.015625)"/>
      <path d="M 2188 4044 
L 1331 1722 
L 3047 1722 
L 2188 4044 
z
M 1831 4666 
L 2547 4666 
L 4325 0 
L 3669 0 
L 3244 1197 
L 1141 1197 
L 716 0 
L 50 0 
L 1831 4666 
z
" id="DejaVuSans-41" transform="scale(0.015625)"/>
     </defs>
     <use xlink:href="#DejaVuSans-44"/>
     <use x="77.001953" xlink:href="#DejaVuSans-45"/>
     <use x="140.185547" xlink:href="#DejaVuSans-41"/>
     <use x="208.59375" xlink:href="#DejaVuSans-45"/>
    </g>
   </g>
   <g id="text_14">
    <!-- DE -->
    <g transform="translate(375.22944 261.42481)scale(0.17 -0.17)">
     <use xlink:href="#DejaVuSans-44"/>
     <use x="77.001953" xlink:href="#DejaVuSans-45"/>
    </g>
   </g>
   <g id="text_15">
    <!-- Bin GA -->
    <g transform="translate(375.22944 224.586881)scale(0.17 -0.17)">
     <defs>
      <path d="M 1259 2228 
L 1259 519 
L 2272 519 
Q 2781 519 3026 730 
Q 3272 941 3272 1375 
Q 3272 1813 3026 2020 
Q 2781 2228 2272 2228 
L 1259 2228 
z
M 1259 4147 
L 1259 2741 
L 2194 2741 
Q 2656 2741 2882 2914 
Q 3109 3088 3109 3444 
Q 3109 3797 2882 3972 
Q 2656 4147 2194 4147 
L 1259 4147 
z
M 628 4666 
L 2241 4666 
Q 2963 4666 3353 4366 
Q 3744 4066 3744 3513 
Q 3744 3084 3544 2831 
Q 3344 2578 2956 2516 
Q 3422 2416 3680 2098 
Q 3938 1781 3938 1306 
Q 3938 681 3513 340 
Q 3088 0 2303 0 
L 628 0 
L 628 4666 
z
" id="DejaVuSans-42" transform="scale(0.015625)"/>
      <path d="M 3809 666 
L 3809 1919 
L 2778 1919 
L 2778 2438 
L 4434 2438 
L 4434 434 
Q 4069 175 3628 42 
Q 3188 -91 2688 -91 
Q 1594 -91 976 548 
Q 359 1188 359 2328 
Q 359 3472 976 4111 
Q 1594 4750 2688 4750 
Q 3144 4750 3555 4637 
Q 3966 4525 4313 4306 
L 4313 3634 
Q 3963 3931 3569 4081 
Q 3175 4231 2741 4231 
Q 1884 4231 1454 3753 
Q 1025 3275 1025 2328 
Q 1025 1384 1454 906 
Q 1884 428 2741 428 
Q 3075 428 3337 486 
Q 3600 544 3809 666 
z
" id="DejaVuSans-47" transform="scale(0.015625)"/>
     </defs>
     <use xlink:href="#DejaVuSans-42"/>
     <use x="68.603516" xlink:href="#DejaVuSans-69"/>
     <use x="96.386719" xlink:href="#DejaVuSans-6e"/>
     <use x="159.765625" xlink:href="#DejaVuSans-20"/>
     <use x="191.552734" xlink:href="#DejaVuSans-47"/>
     <use x="269.042969" xlink:href="#DejaVuSans-41"/>
    </g>
   </g>
   <g id="text_16">
    <!-- JADE -->
    <g transform="translate(375.22944 187.748952)scale(0.17 -0.17)">
     <defs>
      <path d="M 628 4666 
L 1259 4666 
L 1259 325 
Q 1259 -519 939 -900 
Q 619 -1281 -91 -1281 
L -331 -1281 
L -331 -750 
L -134 -750 
Q 284 -750 456 -515 
Q 628 -281 628 325 
L 628 4666 
z
" id="DejaVuSans-4a" transform="scale(0.015625)"/>
     </defs>
     <use xlink:href="#DejaVuSans-4a"/>
     <use x="27.742188" xlink:href="#DejaVuSans-41"/>
     <use x="96.150391" xlink:href="#DejaVuSans-44"/>
     <use x="173.152344" xlink:href="#DejaVuSans-45"/>
    </g>
   </g>
   <g id="text_17">
    <!-- PSO EDA -->
    <g transform="translate(375.22944 150.911022)scale(0.17 -0.17)">
     <defs>
      <path d="M 1259 4147 
L 1259 2394 
L 2053 2394 
Q 2494 2394 2734 2622 
Q 2975 2850 2975 3272 
Q 2975 3691 2734 3919 
Q 2494 4147 2053 4147 
L 1259 4147 
z
M 628 4666 
L 2053 4666 
Q 2838 4666 3239 4311 
Q 3641 3956 3641 3272 
Q 3641 2581 3239 2228 
Q 2838 1875 2053 1875 
L 1259 1875 
L 1259 0 
L 628 0 
L 628 4666 
z
" id="DejaVuSans-50" transform="scale(0.015625)"/>
      <path d="M 3425 4513 
L 3425 3897 
Q 3066 4069 2747 4153 
Q 2428 4238 2131 4238 
Q 1616 4238 1336 4038 
Q 1056 3838 1056 3469 
Q 1056 3159 1242 3001 
Q 1428 2844 1947 2747 
L 2328 2669 
Q 3034 2534 3370 2195 
Q 3706 1856 3706 1288 
Q 3706 609 3251 259 
Q 2797 -91 1919 -91 
Q 1588 -91 1214 -16 
Q 841 59 441 206 
L 441 856 
Q 825 641 1194 531 
Q 1563 422 1919 422 
Q 2459 422 2753 634 
Q 3047 847 3047 1241 
Q 3047 1584 2836 1778 
Q 2625 1972 2144 2069 
L 1759 2144 
Q 1053 2284 737 2584 
Q 422 2884 422 3419 
Q 422 4038 858 4394 
Q 1294 4750 2059 4750 
Q 2388 4750 2728 4690 
Q 3069 4631 3425 4513 
z
" id="DejaVuSans-53" transform="scale(0.015625)"/>
      <path d="M 2522 4238 
Q 1834 4238 1429 3725 
Q 1025 3213 1025 2328 
Q 1025 1447 1429 934 
Q 1834 422 2522 422 
Q 3209 422 3611 934 
Q 4013 1447 4013 2328 
Q 4013 3213 3611 3725 
Q 3209 4238 2522 4238 
z
M 2522 4750 
Q 3503 4750 4090 4092 
Q 4678 3434 4678 2328 
Q 4678 1225 4090 567 
Q 3503 -91 2522 -91 
Q 1538 -91 948 565 
Q 359 1222 359 2328 
Q 359 3434 948 4092 
Q 1538 4750 2522 4750 
z
" id="DejaVuSans-4f" transform="scale(0.015625)"/>
     </defs>
     <use xlink:href="#DejaVuSans-50"/>
     <use x="60.302734" xlink:href="#DejaVuSans-53"/>
     <use x="123.779297" xlink:href="#DejaVuSans-4f"/>
     <use x="202.490234" xlink:href="#DejaVuSans-20"/>
     <use x="234.277344" xlink:href="#DejaVuSans-45"/>
     <use x="297.460938" xlink:href="#DejaVuSans-44"/>
     <use x="372.712891" xlink:href="#DejaVuSans-41"/>
    </g>
   </g>
   <g id="text_18">
    <!-- PSO Bound -->
    <g transform="translate(375.22944 114.073093)scale(0.17 -0.17)">
     <use xlink:href="#DejaVuSans-50"/>
     <use x="60.302734" xlink:href="#DejaVuSans-53"/>
     <use x="123.779297" xlink:href="#DejaVuSans-4f"/>
     <use x="202.490234" xlink:href="#DejaVuSans-20"/>
     <use x="234.277344" xlink:href="#DejaVuSans-42"/>
     <use x="302.880859" xlink:href="#DejaVuSans-6f"/>
     <use x="364.0625" xlink:href="#DejaVuSans-75"/>
     <use x="427.441406" xlink:href="#DejaVuSans-6e"/>
     <use x="490.820312" xlink:href="#DejaVuSans-64"/>
    </g>
   </g>
   <g id="text_19">
    <!-- PSO -->
    <g transform="translate(375.22944 77.235164)scale(0.17 -0.17)">
     <use xlink:href="#DejaVuSans-50"/>
     <use x="60.302734" xlink:href="#DejaVuSans-53"/>
     <use x="123.779297" xlink:href="#DejaVuSans-4f"/>
    </g>
   </g>
   <g id="text_20">
    <!-- best 2009 -->
    <g transform="translate(375.22944 40.397235)scale(0.17 -0.17)">
     <defs>
      <path d="M 3116 1747 
Q 3116 2381 2855 2742 
Q 2594 3103 2138 3103 
Q 1681 3103 1420 2742 
Q 1159 2381 1159 1747 
Q 1159 1113 1420 752 
Q 1681 391 2138 391 
Q 2594 391 2855 752 
Q 3116 1113 3116 1747 
z
M 1159 2969 
Q 1341 3281 1617 3432 
Q 1894 3584 2278 3584 
Q 2916 3584 3314 3078 
Q 3713 2572 3713 1747 
Q 3713 922 3314 415 
Q 2916 -91 2278 -91 
Q 1894 -91 1617 61 
Q 1341 213 1159 525 
L 1159 0 
L 581 0 
L 581 4863 
L 1159 4863 
L 1159 2969 
z
" id="DejaVuSans-62" transform="scale(0.015625)"/>
      <path d="M 703 97 
L 703 672 
Q 941 559 1184 500 
Q 1428 441 1663 441 
Q 2288 441 2617 861 
Q 2947 1281 2994 2138 
Q 2813 1869 2534 1725 
Q 2256 1581 1919 1581 
Q 1219 1581 811 2004 
Q 403 2428 403 3163 
Q 403 3881 828 4315 
Q 1253 4750 1959 4750 
Q 2769 4750 3195 4129 
Q 3622 3509 3622 2328 
Q 3622 1225 3098 567 
Q 2575 -91 1691 -91 
Q 1453 -91 1209 -44 
Q 966 3 703 97 
z
M 1959 2075 
Q 2384 2075 2632 2365 
Q 2881 2656 2881 3163 
Q 2881 3666 2632 3958 
Q 2384 4250 1959 4250 
Q 1534 4250 1286 3958 
Q 1038 3666 1038 3163 
Q 1038 2656 1286 2365 
Q 1534 2075 1959 2075 
z
" id="DejaVuSans-39" transform="scale(0.015625)"/>
     </defs>
     <use xlink:href="#DejaVuSans-62"/>
     <use x="63.476562" xlink:href="#DejaVuSans-65"/>
     <use x="125" xlink:href="#DejaVuSans-73"/>
     <use x="177.099609" xlink:href="#DejaVuSans-74"/>
     <use x="216.308594" xlink:href="#DejaVuSans-20"/>
     <use x="248.095703" xlink:href="#DejaVuSans-32"/>
     <use x="311.71875" xlink:href="#DejaVuSans-30"/>
     <use x="375.341797" xlink:href="#DejaVuSans-30"/>
     <use x="438.964844" xlink:href="#DejaVuSans-39"/>
    </g>
   </g>
   <g id="text_21">
    <!-- bbob f16, 10-D -->
    <g transform="translate(60.41088 38.111366)scale(0.102 -0.102)">
     <use xlink:href="#DejaVuSans-62"/>
     <use x="63.476562" xlink:href="#DejaVuSans-62"/>
     <use x="126.953125" xlink:href="#DejaVuSans-6f"/>
     <use x="188.134766" xlink:href="#DejaVuSans-62"/>
     <use x="251.611328" xlink:href="#DejaVuSans-20"/>
     <use x="283.398438" xlink:href="#DejaVuSans-66"/>
     <use x="318.603516" xlink:href="#DejaVuSans-31"/>
     <use x="382.226562" xlink:href="#DejaVuSans-36"/>
     <use x="445.849609" xlink:href="#DejaVuSans-2c"/>
     <use x="477.636719" xlink:href="#DejaVuSans-20"/>
     <use x="509.423828" xlink:href="#DejaVuSans-31"/>
     <use x="573.046875" xlink:href="#DejaVuSans-30"/>
     <use x="636.669922" xlink:href="#DejaVuSans-2d"/>
     <use x="672.753906" xlink:href="#DejaVuSans-44"/>
    </g>
    <!-- 51 targets: 100..1e-08 -->
    <g transform="translate(60.41088 49.533135)scale(0.102 -0.102)">
     <defs>
      <path d="M 691 4666 
L 3169 4666 
L 3169 4134 
L 1269 4134 
L 1269 2991 
Q 1406 3038 1543 3061 
Q 1681 3084 1819 3084 
Q 2600 3084 3056 2656 
Q 3513 2228 3513 1497 
Q 3513 744 3044 326 
Q 2575 -91 1722 -91 
Q 1428 -91 1123 -41 
Q 819 9 494 109 
L 494 744 
Q 775 591 1075 516 
Q 1375 441 1709 441 
Q 2250 441 2565 725 
Q 2881 1009 2881 1497 
Q 2881 1984 2565 2268 
Q 2250 2553 1709 2553 
Q 1456 2553 1204 2497 
Q 953 2441 691 2322 
L 691 4666 
z
" id="DejaVuSans-35" transform="scale(0.015625)"/>
      <path d="M 750 794 
L 1409 794 
L 1409 0 
L 750 0 
L 750 794 
z
M 750 3309 
L 1409 3309 
L 1409 2516 
L 750 2516 
L 750 3309 
z
" id="DejaVuSans-3a" transform="scale(0.015625)"/>
     </defs>
     <use xlink:href="#DejaVuSans-35"/>
     <use x="63.623047" xlink:href="#DejaVuSans-31"/>
     <use x="127.246094" xlink:href="#DejaVuSans-20"/>
     <use x="159.033203" xlink:href="#DejaVuSans-74"/>
     <use x="198.242188" xlink:href="#DejaVuSans-61"/>
     <use x="259.521484" xlink:href="#DejaVuSans-72"/>
     <use x="298.884766" xlink:href="#DejaVuSans-67"/>
     <use x="362.361328" xlink:href="#DejaVuSans-65"/>
     <use x="423.884766" xlink:href="#DejaVuSans-74"/>
     <use x="463.09375" xlink:href="#DejaVuSans-73"/>
     <use x="515.193359" xlink:href="#DejaVuSans-3a"/>
     <use x="548.884766" xlink:href="#DejaVuSans-20"/>
     <use x="580.671875" xlink:href="#DejaVuSans-31"/>
     <use x="644.294922" xlink:href="#DejaVuSans-30"/>
     <use x="707.917969" xlink:href="#DejaVuSans-30"/>
     <use x="771.541016" xlink:href="#DejaVuSans-2e"/>
     <use x="803.328125" xlink:href="#DejaVuSans-2e"/>
     <use x="835.115234" xlink:href="#DejaVuSans-31"/>
     <use x="898.738281" xlink:href="#DejaVuSans-65"/>
     <use x="960.261719" xlink:href="#DejaVuSans-2d"/>
     <use x="996.345703" xlink:href="#DejaVuSans-30"/>
     <use x="1059.96875" xlink:href="#DejaVuSans-38"/>
    </g>
    <!-- 15 instances -->
    <g transform="translate(60.41088 60.954904)scale(0.102 -0.102)">
     <use xlink:href="#DejaVuSans-31"/>
     <use x="63.623047" xlink:href="#DejaVuSans-35"/>
     <use x="127.246094" xlink:href="#DejaVuSans-20"/>
     <use x="159.033203" xlink:href="#DejaVuSans-69"/>
     <use x="186.816406" xlink:href="#DejaVuSans-6e"/>
     <use x="250.195312" xlink:href="#DejaVuSans-73"/>
     <use x="302.294922" xlink:href="#DejaVuSans-74"/>
     <use x="341.503906" xlink:href="#DejaVuSans-61"/>
     <use x="402.783203" xlink:href="#DejaVuSans-6e"/>
     <use x="466.162109" xlink:href="#DejaVuSans-63"/>
     <use x="521.142578" xlink:href="#DejaVuSans-65"/>
     <use x="582.666016" xlink:href="#DejaVuSans-73"/>
    </g>
   </g>
   <g id="text_22">
    <!-- v2.4 -->
    <g style="fill:#808080;" transform="translate(187.233062 294.151352)scale(0.1 -0.1)">
     <use xlink:href="#DejaVuSans-76"/>
     <use x="59.179688" xlink:href="#DejaVuSans-32"/>
     <use x="122.802734" xlink:href="#DejaVuSans-2e"/>
     <use x="154.589844" xlink:href="#DejaVuSans-34"/>
    </g>
   </g>
   <g id="text_23">
    <!-- 16 Weierstrass -->
    <g transform="translate(123.958062 21.648)scale(0.2 -0.2)">
     <defs>
      <path d="M 213 4666 
L 850 4666 
L 1831 722 
L 2809 4666 
L 3519 4666 
L 4500 722 
L 5478 4666 
L 6119 4666 
L 4947 0 
L 4153 0 
L 3169 4050 
L 2175 0 
L 1381 0 
L 213 4666 
z
" id="DejaVuSans-57" transform="scale(0.015625)"/>
     </defs>
     <use xlink:href="#DejaVuSans-31"/>
     <use x="63.623047" xlink:href="#DejaVuSans-36"/>
     <use x="127.246094" xlink:href="#DejaVuSans-20"/>
     <use x="159.033203" xlink:href="#DejaVuSans-57"/>
     <use x="252.035156" xlink:href="#DejaVuSans-65"/>
     <use x="313.558594" xlink:href="#DejaVuSans-69"/>
     <use x="341.341797" xlink:href="#DejaVuSans-65"/>
     <use x="402.865234" xlink:href="#DejaVuSans-72"/>
     <use x="443.978516" xlink:href="#DejaVuSans-73"/>
     <use x="496.078125" xlink:href="#DejaVuSans-74"/>
     <use x="535.287109" xlink:href="#DejaVuSans-72"/>
     <use x="576.400391" xlink:href="#DejaVuSans-61"/>
     <use x="637.679688" xlink:href="#DejaVuSans-73"/>
     <use x="689.779297" xlink:href="#DejaVuSans-73"/>
    </g>
   </g>
  </g>
 </g>
 <defs>
  <clipPath id="pa300a6decc">
   <rect height="271.296" width="281.088" x="57.6" y="27.648"/>
  </clipPath>
 </defs>
</svg>
