<?xml version="1.0" encoding="utf-8" standalone="no"?>
<!DOCTYPE svg PUBLIC "-//W3C//DTD SVG 1.1//EN"
  "http://www.w3.org/Graphics/SVG/1.1/DTD/svg11.dtd">
<svg height="345.6pt" version="1.1" viewBox="0 0 460.8 345.6" width="460.8pt" xmlns="http://www.w3.org/2000/svg" xmlns:xlink="http://www.w3.org/1999/xlink">
 <metadata>
  <rdf:RDF xmlns:cc="http://creativecommons.org/ns#" xmlns:dc="http://purl.org/dc/elements/1.1/" xmlns:rdf="http://www.w3.org/1999/02/22-rdf-syntax-ns#">
   <cc:Work>
    <dc:type rdf:resource="http://purl.org/dc/dcmitype/StillImage"/>
    <dc:date>2021-04-26T18:51:58.905394</dc:date>
    <dc:format>image/svg+xml</dc:format>
    <dc:creator>
     <cc:Agent>
      <dc:title>Matplotlib v3.4.1, https://matplotlib.org/</dc:title>
     </cc:Agent>
    </dc:creator>
   </cc:Work>
  </rdf:RDF>
 </metadata>
 <defs>
  <style type="text/css">*{stroke-linecap:butt;stroke-linejoin:round;}</style>
 </defs>
 <g id="figure_1">
  <g id="patch_1">
   <path d="M 0 345.6 
L 460.8 345.6 
L 460.8 0 
L 0 0 
z
" style="fill:#ffffff;"/>
  </g>
  <g id="axes_1">
   <g id="patch_2">
    <path d="M 0 293.76 
L 460.8 293.76 
L 460.8 3.456 
L 0 3.456 
z
" style="fill:#ffffff;"/>
   </g>
   <g id="matplotlib.axis_1">
    <g id="xtick_1">
     <g id="line2d_1">
      <path clip-path="url(#pd65e20fb3b)" d="M 97.848394 293.76 
L 97.848394 3.456 
" style="fill:none;stroke:#b0b0b0;stroke-linecap:square;stroke-width:0.8;"/>
     </g>
     <g id="line2d_2">
      <defs>
       <path d="M 0 0 
L 0 3.5 
" id="m8435de7c53" style="stroke:#000000;stroke-width:0.8;"/>
      </defs>
      <g>
       <use style="stroke:#000000;stroke-width:0.8;" x="97.848394" xlink:href="#m8435de7c53" y="293.76"/>
      </g>
     </g>
     <g id="text_1">
      <!-- -4 -->
      <g transform="translate(87.878082 315.956875)scale(0.2 -0.2)">
       <defs>
        <path d="M 313 2009 
L 1997 2009 
L 1997 1497 
L 313 1497 
L 313 2009 
z
" id="DejaVuSans-2d" transform="scale(0.015625)"/>
        <path d="M 2419 4116 
L 825 1625 
L 2419 1625 
L 2419 4116 
z
M 2253 4666 
L 3047 4666 
L 3047 1625 
L 3713 1625 
L 3713 1100 
L 3047 1100 
L 3047 0 
L 2419 0 
L 2419 1100 
L 313 1100 
L 313 1709 
L 2253 4666 
z
" id="DejaVuSans-34" transform="scale(0.015625)"/>
       </defs>
       <use xlink:href="#DejaVuSans-2d"/>
       <use x="36.083984" xlink:href="#DejaVuSans-34"/>
      </g>
     </g>
    </g>
    <g id="xtick_2">
     <g id="line2d_3">
      <path clip-path="url(#pd65e20fb3b)" d="M 195.802613 293.76 
L 195.802613 3.456 
" style="fill:none;stroke:#b0b0b0;stroke-linecap:square;stroke-width:0.8;"/>
     </g>
     <g id="line2d_4">
      <g>
       <use style="stroke:#000000;stroke-width:0.8;" x="195.802613" xlink:href="#m8435de7c53" y="293.76"/>
      </g>
     </g>
     <g id="text_2">
      <!-- 0 -->
      <g transform="translate(189.440113 315.956875)scale(0.2 -0.2)">
       <defs>
        <path d="M 2034 4250 
Q 1547 4250 1301 3770 
Q 1056 3291 1056 2328 
Q 1056 1369 1301 889 
Q 1547 409 2034 409 
Q 2525 409 2770 889 
Q 3016 1369 3016 2328 
Q 3016 3291 2770 3770 
Q 2525 4250 2034 4250 
z
M 2034 4750 
Q 2819 4750 3233 4129 
Q 3647 3509 3647 2328 
Q 3647 1150 3233 529 
Q 2819 -91 2034 -91 
Q 1250 -91 836 529 
Q 422 1150 422 2328 
Q 422 3509 836 4129 
Q 1250 4750 2034 4750 
z
" id="DejaVuSans-30" transform="scale(0.015625)"/>
       </defs>
       <use xlink:href="#DejaVuSans-30"/>
      </g>
     </g>
    </g>
    <g id="xtick_3">
     <g id="line2d_5">
      <path clip-path="url(#pd65e20fb3b)" d="M 293.756831 293.76 
L 293.756831 3.456 
" style="fill:none;stroke:#b0b0b0;stroke-linecap:square;stroke-width:0.8;"/>
     </g>
     <g id="line2d_6">
      <g>
       <use style="stroke:#000000;stroke-width:0.8;" x="293.756831" xlink:href="#m8435de7c53" y="293.76"/>
      </g>
     </g>
     <g id="text_3">
      <!-- 4 -->
      <g transform="translate(287.394331 315.956875)scale(0.2 -0.2)">
       <use xlink:href="#DejaVuSans-34"/>
      </g>
     </g>
    </g>
    <g id="xtick_4">
     <g id="line2d_7">
      <path clip-path="url(#pd65e20fb3b)" d="M 391.71105 293.76 
L 391.71105 3.456 
" style="fill:none;stroke:#b0b0b0;stroke-linecap:square;stroke-width:0.8;"/>
     </g>
     <g id="line2d_8">
      <g>
       <use style="stroke:#000000;stroke-width:0.8;" x="391.71105" xlink:href="#m8435de7c53" y="293.76"/>
      </g>
     </g>
     <g id="text_4">
      <!-- 8 -->
      <g transform="translate(385.34855 315.956875)scale(0.2 -0.2)">
       <defs>
        <path d="M 2034 2216 
Q 1584 2216 1326 1975 
Q 1069 1734 1069 1313 
Q 1069 891 1326 650 
Q 1584 409 2034 409 
Q 2484 409 2743 651 
Q 3003 894 3003 1313 
Q 3003 1734 2745 1975 
Q 2488 2216 2034 2216 
z
M 1403 2484 
Q 997 2584 770 2862 
Q 544 3141 544 3541 
Q 544 4100 942 4425 
Q 1341 4750 2034 4750 
Q 2731 4750 3128 4425 
Q 3525 4100 3525 3541 
Q 3525 3141 3298 2862 
Q 3072 2584 2669 2484 
Q 3125 2378 3379 2068 
Q 3634 1759 3634 1313 
Q 3634 634 3220 271 
Q 2806 -91 2034 -91 
Q 1263 -91 848 271 
Q 434 634 434 1313 
Q 434 1759 690 2068 
Q 947 2378 1403 2484 
z
M 1172 3481 
Q 1172 3119 1398 2916 
Q 1625 2713 2034 2713 
Q 2441 2713 2670 2916 
Q 2900 3119 2900 3481 
Q 2900 3844 2670 4047 
Q 2441 4250 2034 4250 
Q 1625 4250 1398 4047 
Q 1172 3844 1172 3481 
z
" id="DejaVuSans-38" transform="scale(0.015625)"/>
       </defs>
       <use xlink:href="#DejaVuSans-38"/>
      </g>
     </g>
    </g>
    <g id="text_5">
     <!-- log10 of Df -->
     <g transform="translate(175.214063 339.313125)scale(0.2 -0.2)">
      <defs>
       <path d="M 603 4863 
L 1178 4863 
L 1178 0 
L 603 0 
L 603 4863 
z
" id="DejaVuSans-6c" transform="scale(0.015625)"/>
       <path d="M 1959 3097 
Q 1497 3097 1228 2736 
Q 959 2375 959 1747 
Q 959 1119 1226 758 
Q 1494 397 1959 397 
Q 2419 397 2687 759 
Q 2956 1122 2956 1747 
Q 2956 2369 2687 2733 
Q 2419 3097 1959 3097 
z
M 1959 3584 
Q 2709 3584 3137 3096 
Q 3566 2609 3566 1747 
Q 3566 888 3137 398 
Q 2709 -91 1959 -91 
Q 1206 -91 779 398 
Q 353 888 353 1747 
Q 353 2609 779 3096 
Q 1206 3584 1959 3584 
z
" id="DejaVuSans-6f" transform="scale(0.015625)"/>
       <path d="M 2906 1791 
Q 2906 2416 2648 2759 
Q 2391 3103 1925 3103 
Q 1463 3103 1205 2759 
Q 947 2416 947 1791 
Q 947 1169 1205 825 
Q 1463 481 1925 481 
Q 2391 481 2648 825 
Q 2906 1169 2906 1791 
z
M 3481 434 
Q 3481 -459 3084 -895 
Q 2688 -1331 1869 -1331 
Q 1566 -1331 1297 -1286 
Q 1028 -1241 775 -1147 
L 775 -588 
Q 1028 -725 1275 -790 
Q 1522 -856 1778 -856 
Q 2344 -856 2625 -561 
Q 2906 -266 2906 331 
L 2906 616 
Q 2728 306 2450 153 
Q 2172 0 1784 0 
Q 1141 0 747 490 
Q 353 981 353 1791 
Q 353 2603 747 3093 
Q 1141 3584 1784 3584 
Q 2172 3584 2450 3431 
Q 2728 3278 2906 2969 
L 2906 3500 
L 3481 3500 
L 3481 434 
z
" id="DejaVuSans-67" transform="scale(0.015625)"/>
       <path d="M 794 531 
L 1825 531 
L 1825 4091 
L 703 3866 
L 703 4441 
L 1819 4666 
L 2450 4666 
L 2450 531 
L 3481 531 
L 3481 0 
L 794 0 
L 794 531 
z
" id="DejaVuSans-31" transform="scale(0.015625)"/>
       <path id="DejaVuSans-20" transform="scale(0.015625)"/>
       <path d="M 2375 4863 
L 2375 4384 
L 1825 4384 
Q 1516 4384 1395 4259 
Q 1275 4134 1275 3809 
L 1275 3500 
L 2222 3500 
L 2222 3053 
L 1275 3053 
L 1275 0 
L 697 0 
L 697 3053 
L 147 3053 
L 147 3500 
L 697 3500 
L 697 3744 
Q 697 4328 969 4595 
Q 1241 4863 1831 4863 
L 2375 4863 
z
" id="DejaVuSans-66" transform="scale(0.015625)"/>
       <path d="M 1259 4147 
L 1259 519 
L 2022 519 
Q 2988 519 3436 956 
Q 3884 1394 3884 2338 
Q 3884 3275 3436 3711 
Q 2988 4147 2022 4147 
L 1259 4147 
z
M 628 4666 
L 1925 4666 
Q 3281 4666 3915 4102 
Q 4550 3538 4550 2338 
Q 4550 1131 3912 565 
Q 3275 0 1925 0 
L 628 0 
L 628 4666 
z
" id="DejaVuSans-44" transform="scale(0.015625)"/>
      </defs>
      <use xlink:href="#DejaVuSans-6c"/>
      <use x="27.783203" xlink:href="#DejaVuSans-6f"/>
      <use x="88.964844" xlink:href="#DejaVuSans-67"/>
      <use x="152.441406" xlink:href="#DejaVuSans-31"/>
      <use x="216.064453" xlink:href="#DejaVuSans-30"/>
      <use x="279.6875" xlink:href="#DejaVuSans-20"/>
      <use x="311.474609" xlink:href="#DejaVuSans-6f"/>
      <use x="372.65625" xlink:href="#DejaVuSans-66"/>
      <use x="407.861328" xlink:href="#DejaVuSans-20"/>
      <use x="439.648438" xlink:href="#DejaVuSans-44"/>
      <use x="516.650391" xlink:href="#DejaVuSans-66"/>
     </g>
    </g>
   </g>
   <g id="matplotlib.axis_2">
    <g id="ytick_1">
     <g id="line2d_9">
      <path clip-path="url(#pd65e20fb3b)" d="M 0 293.76 
L 460.8 293.76 
" style="fill:none;stroke:#b0b0b0;stroke-linecap:square;stroke-width:0.8;"/>
     </g>
     <g id="line2d_10">
      <defs>
       <path d="M 0 0 
L -3.5 0 
" id="mbd4c5b53cb" style="stroke:#000000;stroke-width:0.8;"/>
      </defs>
      <g>
       <use style="stroke:#000000;stroke-width:0.8;" x="0" xlink:href="#mbd4c5b53cb" y="293.76"/>
      </g>
     </g>
    </g>
    <g id="ytick_2">
     <g id="line2d_11">
      <path clip-path="url(#pd65e20fb3b)" d="M 0 236.274059 
L 460.8 236.274059 
" style="fill:none;stroke:#b0b0b0;stroke-linecap:square;stroke-width:0.8;"/>
     </g>
     <g id="line2d_12">
      <g>
       <use style="stroke:#000000;stroke-width:0.8;" x="0" xlink:href="#mbd4c5b53cb" y="236.274059"/>
      </g>
     </g>
    </g>
    <g id="ytick_3">
     <g id="line2d_13">
      <path clip-path="url(#pd65e20fb3b)" d="M 0 178.788119 
L 460.8 178.788119 
" style="fill:none;stroke:#b0b0b0;stroke-linecap:square;stroke-width:0.8;"/>
     </g>
     <g id="line2d_14">
      <g>
       <use style="stroke:#000000;stroke-width:0.8;" x="0" xlink:href="#mbd4c5b53cb" y="178.788119"/>
      </g>
     </g>
    </g>
    <g id="ytick_4">
     <g id="line2d_15">
      <path clip-path="url(#pd65e20fb3b)" d="M 0 121.302178 
L 460.8 121.302178 
" style="fill:none;stroke:#b0b0b0;stroke-linecap:square;stroke-width:0.8;"/>
     </g>
     <g id="line2d_16">
      <g>
       <use style="stroke:#000000;stroke-width:0.8;" x="0" xlink:href="#mbd4c5b53cb" y="121.302178"/>
      </g>
     </g>
    </g>
    <g id="ytick_5">
     <g id="line2d_17">
      <path clip-path="url(#pd65e20fb3b)" d="M 0 63.816238 
L 460.8 63.816238 
" style="fill:none;stroke:#b0b0b0;stroke-linecap:square;stroke-width:0.8;"/>
     </g>
     <g id="line2d_18">
      <g>
       <use style="stroke:#000000;stroke-width:0.8;" x="0" xlink:href="#mbd4c5b53cb" y="63.816238"/>
      </g>
     </g>
    </g>
    <g id="ytick_6">
     <g id="line2d_19">
      <path clip-path="url(#pd65e20fb3b)" d="M 0 6.330297 
L 460.8 6.330297 
" style="fill:none;stroke:#b0b0b0;stroke-linecap:square;stroke-width:0.8;"/>
     </g>
     <g id="line2d_20">
      <g>
       <use style="stroke:#000000;stroke-width:0.8;" x="0" xlink:href="#mbd4c5b53cb" y="6.330297"/>
      </g>
     </g>
    </g>
   </g>
   <g id="line2d_21">
    <path clip-path="url(#pd65e20fb3b)" d="M 61.061959 293.76 
L 61.061959 289.927604 
L 75.293027 289.927604 
L 75.293027 286.095208 
L 90.239153 286.095208 
L 90.239153 282.262812 
L 96.606981 282.262812 
L 96.606981 278.430416 
L 96.838871 278.430416 
L 96.838871 274.59802 
L 99.292629 274.59802 
L 99.292629 270.765624 
L 103.542369 270.765624 
L 103.542369 266.933228 
L 103.781688 266.933228 
L 103.781688 263.100832 
L 107.635554 263.100832 
L 107.635554 259.268436 
L 114.825478 259.268436 
L 114.825478 255.43604 
L 117.065815 255.43604 
L 117.065815 251.603644 
L 124.870538 251.603644 
L 124.870538 247.771248 
L 125.177272 247.771248 
L 125.177272 243.938851 
L 130.943803 243.938851 
L 130.943803 240.106455 
L 132.671898 240.106455 
L 132.671898 236.274059 
L 135.454653 236.274059 
L 135.454653 232.441663 
L 136.776486 232.441663 
L 136.776486 228.609267 
L 137.052583 228.609267 
L 137.052583 224.776871 
L 137.210737 224.776871 
L 137.210737 220.944475 
L 138.121338 220.944475 
L 138.211141 213.279683 
L 139.651233 213.279683 
L 139.651233 209.447287 
L 139.859437 209.447287 
L 139.859437 205.614891 
L 141.141908 205.614891 
L 141.141908 201.782495 
L 141.311654 201.782495 
L 141.311654 197.950099 
L 141.94735 197.950099 
L 141.948002 190.285307 
L 142.225927 190.285307 
L 142.225927 186.452911 
L 142.519632 186.452911 
L 142.519632 182.620515 
L 143.42245 182.620515 
L 143.42245 178.788119 
L 144.004885 178.788119 
L 144.004885 174.955723 
L 145.515054 174.955723 
L 145.515054 171.123327 
L 146.128609 171.123327 
L 146.179131 163.458535 
L 146.539183 163.458535 
L 146.539183 159.626139 
L 147.016441 159.626139 
L 147.016441 155.793743 
L 148.130198 155.793743 
L 148.130198 151.961347 
L 148.322895 151.961347 
L 148.322895 148.12895 
L 148.942821 148.12895 
L 148.993409 140.464158 
L 150.348606 140.464158 
L 150.348606 136.631762 
L 150.835587 136.631762 
L 150.835587 132.799366 
L 151.346674 132.799366 
L 151.346674 128.96697 
L 151.94038 128.96697 
L 151.94038 125.134574 
L 156.645228 125.134574 
L 156.645228 121.302178 
L 158.85409 121.302178 
L 158.85409 117.469782 
L 164.078649 117.469782 
L 164.078649 113.637386 
L 167.659882 113.637386 
L 167.708399 105.972594 
L 169.898414 105.972594 
L 169.898414 102.140198 
L 173.533979 102.140198 
L 173.533979 98.307802 
L 175.927702 98.307802 
L 175.927702 94.475406 
L 176.067793 94.475406 
L 176.067793 90.64301 
L 177.741299 90.64301 
L 177.741299 86.810614 
L 179.33841 86.810614 
L 179.33841 82.978218 
L 180.681904 82.978218 
L 180.681904 79.145822 
L 180.924182 79.145822 
L 180.924182 75.313426 
L 181.213973 75.313426 
L 181.213973 71.48103 
L 182.637451 71.48103 
L 182.637451 67.648634 
L 183.020891 67.648634 
L 183.020891 63.816238 
L 184.020923 63.816238 
L 184.020923 59.983842 
L 184.80046 59.983842 
L 184.80046 56.151446 
L 186.39445 56.151446 
L 186.39445 52.31905 
L 189.979454 52.31905 
L 190.013449 44.654257 
L 191.2604 44.654257 
L 191.2604 40.821861 
L 191.788235 40.821861 
L 191.788235 36.989465 
L 194.766196 36.989465 
L 194.766196 33.157069 
L 194.96807 33.157069 
L 194.96807 29.324673 
L 195.748944 29.324673 
L 195.760358 17.827485 
L 203.120951 17.827485 
L 203.126004 6.330297 
L 203.126004 6.330297 
L 460.8 6.330297 
L 460.8 6.330297 
" style="fill:none;stroke:#ff0000;stroke-linecap:square;stroke-width:3;"/>
   </g>
   <g id="line2d_22">
    <path clip-path="url(#pd65e20fb3b)" d="M 216.132752 293.76 
L 216.132752 289.927604 
L 216.524849 289.927604 
L 216.524849 286.095208 
L 219.319187 286.095208 
L 219.319187 282.262812 
L 221.338676 282.262812 
L 221.374633 274.59802 
L 222.940765 274.59802 
L 222.940765 270.765624 
L 223.05579 270.765624 
L 223.11969 263.100832 
L 223.823296 263.100832 
L 223.823296 259.268436 
L 224.103316 259.268436 
L 224.103316 255.43604 
L 224.969719 255.43604 
L 224.969719 251.603644 
L 225.629575 251.603644 
L 225.629575 247.771248 
L 225.942727 247.771248 
L 225.942727 243.938851 
L 227.272848 243.938851 
L 227.272848 240.106455 
L 227.938354 240.106455 
L 227.938354 236.274059 
L 229.622705 236.274059 
L 229.622705 232.441663 
L 229.868488 232.441663 
L 229.878947 224.776871 
L 231.918019 224.776871 
L 231.965904 217.112079 
L 232.160367 217.112079 
L 232.160367 213.279683 
L 232.320708 213.279683 
L 232.320708 209.447287 
L 232.838508 209.447287 
L 232.930513 201.782495 
L 232.996261 201.782495 
L 232.996261 197.950099 
L 233.360476 197.950099 
L 233.360476 194.117703 
L 233.705613 194.117703 
L 233.810135 182.620515 
L 234.331298 182.620515 
L 234.331298 178.788119 
L 234.835427 178.788119 
L 234.835427 174.955723 
L 235.103328 174.955723 
L 235.1628 163.458535 
L 235.613823 163.458535 
L 235.613823 159.626139 
L 235.801347 159.626139 
L 235.801347 155.793743 
L 236.031784 155.793743 
L 236.031784 151.961347 
L 236.440437 151.961347 
L 236.440437 148.12895 
L 236.737931 148.12895 
L 236.737931 144.296554 
L 236.995502 144.296554 
L 237.099733 136.631762 
L 237.487627 136.631762 
L 237.487627 132.799366 
L 238.081837 132.799366 
L 238.081837 128.96697 
L 238.492714 128.96697 
L 238.492714 125.134574 
L 238.842496 125.134574 
L 238.842496 121.302178 
L 239.035194 121.302178 
L 239.035194 117.469782 
L 241.095701 117.469782 
L 241.095701 113.637386 
L 241.234627 113.637386 
L 241.234627 109.80499 
L 242.122708 109.80499 
L 242.122708 105.972594 
L 242.295207 105.972594 
L 242.295207 102.140198 
L 242.635475 102.140198 
L 242.654035 94.475406 
L 243.349549 94.475406 
L 243.349549 90.64301 
L 243.475104 90.64301 
L 243.475104 86.810614 
L 244.131137 86.810614 
L 244.206531 79.145822 
L 245.286377 79.145822 
L 245.286377 75.313426 
L 246.425527 75.313426 
L 246.425527 71.48103 
L 250.372506 71.48103 
L 250.372506 67.648634 
L 250.761875 67.648634 
L 250.761875 63.816238 
L 251.800941 63.816238 
L 251.800941 59.983842 
L 253.485867 59.983842 
L 253.485867 56.151446 
L 254.174551 56.151446 
L 254.174551 52.31905 
L 255.388355 52.31905 
L 255.388355 48.486653 
L 255.877054 48.486653 
L 255.877054 44.654257 
L 256.47902 44.654257 
L 256.47902 40.821861 
L 256.803179 40.821861 
L 256.803179 36.989465 
L 258.099622 36.989465 
L 258.200725 29.324673 
L 258.569013 29.324673 
L 258.674815 21.659881 
L 264.556627 21.659881 
L 264.556627 17.827485 
L 264.926651 17.827485 
L 264.926651 13.995089 
L 271.088044 13.995089 
L 271.088044 10.162693 
L 272.653093 10.162693 
L 272.653093 6.330297 
L 272.653093 6.330297 
L 460.8 6.330297 
L 460.8 6.330297 
" style="fill:none;stroke:#00bfbf;stroke-linecap:square;stroke-width:1.5;"/>
   </g>
   <g id="line2d_23">
    <path clip-path="url(#pd65e20fb3b)" d="M 216.132752 293.76 
L 216.132752 289.927604 
L 216.524849 289.927604 
L 216.524849 286.095208 
L 218.695431 286.095208 
L 218.695431 282.262812 
L 219.277311 282.262812 
L 219.277311 278.430416 
L 219.494207 278.430416 
L 219.494207 274.59802 
L 220.623973 274.59802 
L 220.623973 270.765624 
L 221.338676 270.765624 
L 221.398073 259.268436 
L 222.146533 259.268436 
L 222.146533 255.43604 
L 222.747649 255.43604 
L 222.747649 251.603644 
L 222.940765 251.603644 
L 222.940765 247.771248 
L 223.05579 247.771248 
L 223.11969 240.106455 
L 223.823296 240.106455 
L 223.823296 236.274059 
L 224.103316 236.274059 
L 224.103316 232.441663 
L 224.365264 232.441663 
L 224.365264 228.609267 
L 224.969719 228.609267 
L 225.028974 217.112079 
L 225.629575 217.112079 
L 225.662407 209.447287 
L 225.878555 209.447287 
L 225.878555 205.614891 
L 226.628635 205.614891 
L 226.628635 201.782495 
L 227.07857 201.782495 
L 227.07857 197.950099 
L 227.363068 197.950099 
L 227.363068 194.117703 
L 227.938354 194.117703 
L 227.938354 190.285307 
L 228.732873 190.285307 
L 228.732873 186.452911 
L 229.093872 186.452911 
L 229.093872 182.620515 
L 229.441872 182.620515 
L 229.441872 178.788119 
L 229.878947 178.788119 
L 229.878947 174.955723 
L 230.311044 174.955723 
L 230.311044 171.123327 
L 231.718508 171.123327 
L 231.718508 167.290931 
L 231.965904 167.290931 
L 232.027563 159.626139 
L 232.137892 159.626139 
L 232.137892 155.793743 
L 232.320708 155.793743 
L 232.428767 144.296554 
L 232.838508 144.296554 
L 232.838508 140.464158 
L 233.203733 140.464158 
L 233.203733 136.631762 
L 233.360476 136.631762 
L 233.360476 132.799366 
L 233.72174 132.799366 
L 233.72174 128.96697 
L 234.331298 128.96697 
L 234.331298 125.134574 
L 234.84239 125.134574 
L 234.84239 121.302178 
L 235.134139 121.302178 
L 235.134139 117.469782 
L 235.613823 117.469782 
L 235.613823 113.637386 
L 236.031784 113.637386 
L 236.031784 109.80499 
L 236.613484 109.80499 
L 236.613484 105.972594 
L 236.995502 105.972594 
L 236.995502 102.140198 
L 237.889555 102.140198 
L 237.889555 98.307802 
L 238.081837 98.307802 
L 238.081837 94.475406 
L 238.900448 94.475406 
L 238.900448 90.64301 
L 239.208808 90.64301 
L 239.208808 86.810614 
L 239.586124 86.810614 
L 239.586124 82.978218 
L 239.903776 82.978218 
L 239.903776 79.145822 
L 241.843715 79.145822 
L 241.843715 75.313426 
L 242.132325 75.313426 
L 242.215485 67.648634 
L 242.635475 67.648634 
L 242.635475 63.816238 
L 242.857345 63.816238 
L 242.857345 59.983842 
L 244.206531 59.983842 
L 244.206531 56.151446 
L 244.629783 56.151446 
L 244.629783 52.31905 
L 245.286377 52.31905 
L 245.286377 48.486653 
L 246.537938 48.486653 
L 246.537938 44.654257 
L 246.931586 44.654257 
L 246.931586 40.821861 
L 249.080556 40.821861 
L 249.080556 36.989465 
L 250.709181 36.989465 
L 250.709181 33.157069 
L 251.823177 33.157069 
L 251.823177 29.324673 
L 253.485867 29.324673 
L 253.485867 25.492277 
L 254.708568 25.492277 
L 254.708568 21.659881 
L 255.713996 21.659881 
L 255.713996 17.827485 
L 255.877054 17.827485 
L 255.877054 13.995089 
L 256.47902 13.995089 
L 256.47902 10.162693 
L 256.803179 10.162693 
L 256.803179 6.330297 
L 256.803179 6.330297 
L 460.8 6.330297 
L 460.8 6.330297 
" style="fill:none;stroke:#bf00bf;stroke-linecap:square;stroke-width:1.5;"/>
   </g>
   <g id="line2d_24">
    <path clip-path="url(#pd65e20fb3b)" d="M 212.838223 293.76 
L 212.838223 289.927604 
L 215.331464 289.927604 
L 215.331464 286.095208 
L 215.627064 286.095208 
L 215.627064 282.262812 
L 216.524849 282.262812 
L 216.524849 278.430416 
L 217.976661 278.430416 
L 217.976661 274.59802 
L 218.27508 274.59802 
L 218.27508 270.765624 
L 218.57786 270.765624 
L 218.57786 266.933228 
L 218.695431 266.933228 
L 218.695431 263.100832 
L 218.821419 263.100832 
L 218.821419 259.268436 
L 219.404891 259.268436 
L 219.494207 251.603644 
L 219.963368 251.603644 
L 219.963368 247.771248 
L 220.623973 247.771248 
L 220.731949 232.441663 
L 220.934691 232.441663 
L 220.934691 228.609267 
L 221.338676 228.609267 
L 221.398073 220.944475 
L 222.050549 220.944475 
L 222.146533 213.279683 
L 222.940765 213.279683 
L 222.965552 205.614891 
L 223.192537 205.614891 
L 223.192537 201.782495 
L 223.610403 201.782495 
L 223.610403 197.950099 
L 223.927852 197.950099 
L 224.031441 186.452911 
L 225.785509 186.452911 
L 225.785509 182.620515 
L 226.016094 182.620515 
L 226.016094 178.788119 
L 227.07857 178.788119 
L 227.150093 171.123327 
L 227.938354 171.123327 
L 227.938354 167.290931 
L 228.153202 167.290931 
L 228.153202 163.458535 
L 228.399674 163.458535 
L 228.399674 159.626139 
L 228.732873 159.626139 
L 228.732873 155.793743 
L 229.093872 155.793743 
L 229.093872 151.961347 
L 229.441872 151.961347 
L 229.441872 148.12895 
L 229.972113 148.12895 
L 229.972113 144.296554 
L 230.534577 144.296554 
L 230.543519 136.631762 
L 231.423803 136.631762 
L 231.459447 128.96697 
L 231.588094 128.96697 
L 231.588094 125.134574 
L 231.718508 125.134574 
L 231.718508 121.302178 
L 231.947669 121.302178 
L 231.947669 117.469782 
L 232.187478 117.469782 
L 232.187478 113.637386 
L 232.360188 113.637386 
L 232.428767 105.972594 
L 232.471351 105.972594 
L 232.471351 102.140198 
L 232.838508 102.140198 
L 232.838508 98.307802 
L 232.96996 98.307802 
L 232.96996 94.475406 
L 233.203733 94.475406 
L 233.203733 90.64301 
L 233.373999 90.64301 
L 233.373999 86.810614 
L 234.953402 86.810614 
L 235.042103 79.145822 
L 235.220566 79.145822 
L 235.220566 75.313426 
L 236.031784 75.313426 
L 236.031784 71.48103 
L 239.208808 71.48103 
L 239.208808 67.648634 
L 239.355377 67.648634 
L 239.355377 63.816238 
L 239.903776 63.816238 
L 239.903776 59.983842 
L 240.08942 59.983842 
L 240.08942 56.151446 
L 241.797694 56.151446 
L 241.797694 52.31905 
L 242.132325 52.31905 
L 242.132325 48.486653 
L 242.635475 48.486653 
L 242.635475 44.654257 
L 243.198298 44.654257 
L 243.198298 40.821861 
L 244.688728 40.821861 
L 244.688728 36.989465 
L 244.84629 36.989465 
L 244.84629 33.157069 
L 246.537938 33.157069 
L 246.537938 29.324673 
L 246.967473 29.324673 
L 246.967473 25.492277 
L 247.202651 25.492277 
L 247.202651 21.659881 
L 248.467664 21.659881 
L 248.467664 17.827485 
L 249.118116 17.827485 
L 249.118116 13.995089 
L 250.709181 13.995089 
L 250.709181 10.162693 
L 251.674228 10.162693 
L 251.674228 6.330297 
L 251.674228 6.330297 
L 460.8 6.330297 
L 460.8 6.330297 
" style="fill:none;stroke:#000000;stroke-linecap:square;stroke-width:1.5;"/>
   </g>
   <g id="line2d_25">
    <path clip-path="url(#pd65e20fb3b)" d="M 205.755189 293.76 
L 205.755189 289.927604 
L 206.482182 289.927604 
L 206.482182 286.095208 
L 208.73122 286.095208 
L 208.73122 282.262812 
L 209.056356 282.262812 
L 209.056356 278.430416 
L 210.854943 278.430416 
L 210.854943 274.59802 
L 211.55117 274.59802 
L 211.55117 270.765624 
L 211.739618 270.765624 
L 211.739618 266.933228 
L 213.168698 266.933228 
L 213.168698 263.100832 
L 214.201936 263.100832 
L 214.201936 259.268436 
L 214.536695 259.268436 
L 214.560794 251.603644 
L 214.718615 251.603644 
L 214.718615 247.771248 
L 214.939346 247.771248 
L 215.006895 240.106455 
L 215.331464 240.106455 
L 215.331464 236.274059 
L 216.178328 236.274059 
L 216.210593 228.609267 
L 216.296989 228.609267 
L 216.296989 224.776871 
L 218.209697 224.776871 
L 218.27508 217.112079 
L 219.150198 217.112079 
L 219.150198 213.279683 
L 219.494207 213.279683 
L 219.494207 209.447287 
L 219.901731 209.447287 
L 219.901731 205.614891 
L 220.084927 205.614891 
L 220.084927 201.782495 
L 220.20624 201.782495 
L 220.20624 197.950099 
L 220.4608 197.950099 
L 220.4608 194.117703 
L 220.623973 194.117703 
L 220.623973 190.285307 
L 221.074255 190.285307 
L 221.074255 186.452911 
L 221.398073 186.452911 
L 221.398073 182.620515 
L 222.724383 182.620515 
L 222.786748 174.955723 
L 222.891545 174.955723 
L 222.979605 167.290931 
L 223.192537 167.290931 
L 223.27315 159.626139 
L 223.93471 159.626139 
L 224.031441 151.961347 
L 224.126718 151.961347 
L 224.126718 148.12895 
L 226.093696 148.12895 
L 226.093696 144.296554 
L 226.900846 144.296554 
L 226.900846 140.464158 
L 227.057892 140.464158 
L 227.168086 132.799366 
L 227.938354 132.799366 
L 227.938354 128.96697 
L 228.399674 128.96697 
L 228.399674 125.134574 
L 228.842395 125.134574 
L 228.842395 121.302178 
L 228.983292 121.302178 
L 229.093872 113.637386 
L 229.441872 113.637386 
L 229.441872 109.80499 
L 229.961278 109.80499 
L 229.972113 102.140198 
L 230.226237 102.140198 
L 230.226237 98.307802 
L 231.423803 98.307802 
L 231.423803 94.475406 
L 231.547126 94.475406 
L 231.636888 82.978218 
L 231.981969 82.978218 
L 231.981969 79.145822 
L 232.471351 79.145822 
L 232.471351 75.313426 
L 232.595906 75.313426 
L 232.595906 71.48103 
L 232.96996 71.48103 
L 232.96996 67.648634 
L 233.719884 67.648634 
L 233.719884 63.816238 
L 236.48277 63.816238 
L 236.48277 59.983842 
L 238.030956 59.983842 
L 238.030956 56.151446 
L 239.103154 56.151446 
L 239.208808 48.486653 
L 239.876736 48.486653 
L 239.903776 40.821861 
L 241.564305 40.821861 
L 241.564305 36.989465 
L 241.797694 36.989465 
L 241.797694 33.157069 
L 242.085544 33.157069 
L 242.085544 29.324673 
L 242.288542 29.324673 
L 242.288542 25.492277 
L 242.635475 25.492277 
L 242.635475 21.659881 
L 242.861197 21.659881 
L 242.861197 17.827485 
L 243.152177 17.827485 
L 243.250387 10.162693 
L 244.268892 10.162693 
L 244.268892 6.330297 
L 244.268892 6.330297 
L 460.8 6.330297 
L 460.8 6.330297 
" style="fill:none;stroke:#00bfbf;stroke-linecap:square;stroke-width:1.5;"/>
   </g>
   <g id="line2d_26">
    <path clip-path="url(#pd65e20fb3b)" d="M 189.162236 293.76 
L 189.162236 289.927604 
L 196.22602 289.927604 
L 196.22602 286.095208 
L 196.960981 286.095208 
L 196.960981 282.262812 
L 197.758197 282.262812 
L 197.758197 278.430416 
L 199.823393 278.430416 
L 199.823393 274.59802 
L 200.323699 274.59802 
L 200.323699 270.765624 
L 200.649895 270.765624 
L 200.685376 263.100832 
L 201.351092 263.100832 
L 201.423927 255.43604 
L 201.718652 255.43604 
L 201.780727 247.771248 
L 202.529188 247.771248 
L 202.529188 243.938851 
L 202.957616 243.938851 
L 202.957616 240.106455 
L 203.251589 240.106455 
L 203.251589 236.274059 
L 203.396932 236.274059 
L 203.447146 228.609267 
L 204.889359 228.609267 
L 204.889359 224.776871 
L 205.224153 224.776871 
L 205.224153 220.944475 
L 205.598499 220.944475 
L 205.598499 217.112079 
L 206.191615 217.112079 
L 206.191615 213.279683 
L 206.791037 213.279683 
L 206.791037 209.447287 
L 208.360622 209.447287 
L 208.360622 205.614891 
L 209.012213 205.614891 
L 209.012213 201.782495 
L 209.330086 201.782495 
L 209.33497 194.117703 
L 210.453151 194.117703 
L 210.453151 190.285307 
L 210.909454 190.285307 
L 210.909454 186.452911 
L 211.430179 186.452911 
L 211.430179 182.620515 
L 211.602268 182.620515 
L 211.602268 178.788119 
L 211.714229 178.788119 
L 211.714229 174.955723 
L 212.862324 174.955723 
L 212.862324 171.123327 
L 213.80218 171.123327 
L 213.80218 167.290931 
L 213.971901 167.290931 
L 214.043876 159.626139 
L 214.493108 159.626139 
L 214.517976 151.961347 
L 215.282541 151.961347 
L 215.282541 148.12895 
L 216.052256 148.12895 
L 216.052256 144.296554 
L 216.443769 144.296554 
L 216.532017 136.631762 
L 216.855632 136.631762 
L 216.855632 132.799366 
L 217.730892 132.799366 
L 217.730892 128.96697 
L 217.929636 128.96697 
L 217.929636 125.134574 
L 218.260598 125.134574 
L 218.331625 117.469782 
L 218.423503 117.469782 
L 218.481001 109.80499 
L 219.074839 109.80499 
L 219.074839 105.972594 
L 219.428289 105.972594 
L 219.428289 102.140198 
L 219.92578 102.140198 
L 219.92578 98.307802 
L 220.494269 98.307802 
L 220.555562 90.64301 
L 220.702678 90.64301 
L 220.702678 86.810614 
L 221.137859 86.810614 
L 221.137859 82.978218 
L 221.288291 82.978218 
L 221.288291 79.145822 
L 221.903978 79.145822 
L 221.90719 71.48103 
L 222.198906 71.48103 
L 222.198906 67.648634 
L 224.973475 67.648634 
L 224.973475 63.816238 
L 226.093696 63.816238 
L 226.093696 59.983842 
L 226.448263 59.983842 
L 226.448263 56.151446 
L 228.399674 56.151446 
L 228.399674 52.31905 
L 231.033257 52.31905 
L 231.033257 48.486653 
L 231.245285 48.486653 
L 231.330781 40.821861 
L 233.149832 40.821861 
L 233.170897 33.157069 
L 233.74639 33.157069 
L 233.74639 29.324673 
L 234.07466 29.324673 
L 234.07466 25.492277 
L 234.546498 25.492277 
L 234.546498 21.659881 
L 234.716904 21.659881 
L 234.716904 17.827485 
L 235.212219 17.827485 
L 235.212219 13.995089 
L 235.71227 13.995089 
L 235.77376 6.330297 
L 235.77376 6.330297 
L 460.8 6.330297 
L 460.8 6.330297 
" style="fill:none;stroke:#bf00bf;stroke-linecap:square;stroke-width:1.5;"/>
   </g>
   <g id="line2d_27">
    <path clip-path="url(#pd65e20fb3b)" d="M 189.162236 293.76 
L 189.176243 286.095208 
L 189.813209 286.095208 
L 189.813209 282.262812 
L 191.026163 282.262812 
L 191.026163 278.430416 
L 192.193784 278.430416 
L 192.193784 274.59802 
L 192.457671 274.59802 
L 192.457671 270.765624 
L 192.598089 270.765624 
L 192.604267 263.100832 
L 193.027362 263.100832 
L 193.027362 259.268436 
L 193.311145 259.268436 
L 193.311145 255.43604 
L 194.894005 255.43604 
L 194.894005 251.603644 
L 195.803497 251.603644 
L 195.803497 247.771248 
L 196.960981 247.771248 
L 196.960981 243.938851 
L 197.175846 243.938851 
L 197.175846 240.106455 
L 197.331334 240.106455 
L 197.331334 236.274059 
L 197.618641 236.274059 
L 197.618641 232.441663 
L 198.573644 232.441663 
L 198.573644 228.609267 
L 198.758186 228.609267 
L 198.758186 224.776871 
L 200.499839 224.776871 
L 200.499839 220.944475 
L 200.71765 220.944475 
L 200.71765 217.112079 
L 201.355862 217.112079 
L 201.379773 205.614891 
L 201.804339 205.614891 
L 201.804339 201.782495 
L 201.973255 201.782495 
L 201.973255 197.950099 
L 202.529188 197.950099 
L 202.529188 194.117703 
L 203.350543 194.117703 
L 203.350543 190.285307 
L 203.758215 190.285307 
L 203.758215 186.452911 
L 203.947225 186.452911 
L 203.947225 182.620515 
L 204.413366 182.620515 
L 204.413366 178.788119 
L 204.996838 178.788119 
L 205.089495 171.123327 
L 205.526768 171.123327 
L 205.526768 167.290931 
L 205.666014 167.290931 
L 205.666014 163.458535 
L 206.069331 163.458535 
L 206.169994 151.961347 
L 206.285289 151.961347 
L 206.28979 144.296554 
L 206.480434 144.296554 
L 206.480434 140.464158 
L 207.014099 140.464158 
L 207.014099 136.631762 
L 207.176667 136.631762 
L 207.176667 132.799366 
L 207.315914 132.799366 
L 207.315914 128.96697 
L 207.551621 128.96697 
L 207.551621 125.134574 
L 209.056426 125.134574 
L 209.061067 117.469782 
L 209.641601 117.469782 
L 209.641601 113.637386 
L 209.947413 113.637386 
L 209.947413 109.80499 
L 210.240169 109.80499 
L 210.240169 105.972594 
L 210.735075 105.972594 
L 210.735075 102.140198 
L 210.859919 102.140198 
L 210.859919 98.307802 
L 211.602268 98.307802 
L 211.602268 94.475406 
L 212.474024 94.475406 
L 212.474024 90.64301 
L 212.911762 90.64301 
L 212.911762 86.810614 
L 213.403079 86.810614 
L 213.403079 82.978218 
L 213.835687 82.978218 
L 213.835687 79.145822 
L 214.234612 79.145822 
L 214.234612 75.313426 
L 214.409486 75.313426 
L 214.515811 67.648634 
L 215.27862 67.648634 
L 215.27862 63.816238 
L 217.717516 63.816238 
L 217.717516 59.983842 
L 221.055778 59.983842 
L 221.055778 56.151446 
L 223.872528 56.151446 
L 223.872528 52.31905 
L 224.808281 52.31905 
L 224.808281 48.486653 
L 224.973475 48.486653 
L 224.973475 44.654257 
L 225.438996 44.654257 
L 225.505347 36.989465 
L 225.84072 36.989465 
L 225.84072 33.157069 
L 226.16776 33.157069 
L 226.216307 25.492277 
L 226.448263 25.492277 
L 226.448263 21.659881 
L 228.063472 21.659881 
L 228.063472 17.827485 
L 229.829614 17.827485 
L 229.829614 13.995089 
L 230.899992 13.995089 
L 230.899992 10.162693 
L 231.06388 10.162693 
L 231.06388 6.330297 
L 231.06388 6.330297 
L 460.8 6.330297 
L 460.8 6.330297 
" style="fill:none;stroke:#000000;stroke-linecap:square;stroke-width:1.5;"/>
   </g>
   <g id="line2d_28">
    <path clip-path="url(#pd65e20fb3b)" d="M 61.061959 293.76 
L 61.061959 289.927604 
L 75.293027 289.927604 
L 75.293027 286.095208 
L 90.239153 286.095208 
L 90.239153 282.262812 
L 96.606981 282.262812 
L 96.606981 278.430416 
L 96.838871 278.430416 
L 96.838871 274.59802 
L 99.292629 274.59802 
L 99.292629 270.765624 
L 103.542369 270.765624 
L 103.542369 266.933228 
L 103.781688 266.933228 
L 103.781688 263.100832 
L 107.635554 263.100832 
L 107.635554 259.268436 
L 114.825478 259.268436 
L 114.825478 255.43604 
L 117.065815 255.43604 
L 117.065815 251.603644 
L 124.870538 251.603644 
L 124.870538 247.771248 
L 125.177272 247.771248 
L 125.177272 243.938851 
L 130.943803 243.938851 
L 130.943803 240.106455 
L 132.671898 240.106455 
L 132.671898 236.274059 
L 135.454653 236.274059 
L 135.454653 232.441663 
L 136.776486 232.441663 
L 136.776486 228.609267 
L 137.052583 228.609267 
L 137.052583 224.776871 
L 137.210737 224.776871 
L 137.210737 220.944475 
L 138.121338 220.944475 
L 138.211141 213.279683 
L 139.651233 213.279683 
L 139.651233 209.447287 
L 139.859437 209.447287 
L 139.859437 205.614891 
L 141.141908 205.614891 
L 141.141908 201.782495 
L 141.311654 201.782495 
L 141.311654 197.950099 
L 141.94735 197.950099 
L 141.948002 190.285307 
L 142.225927 190.285307 
L 142.225927 186.452911 
L 142.519632 186.452911 
L 142.519632 182.620515 
L 143.42245 182.620515 
L 143.42245 178.788119 
L 144.004885 178.788119 
L 144.004885 174.955723 
L 145.515054 174.955723 
L 145.515054 171.123327 
L 146.128609 171.123327 
L 146.179131 163.458535 
L 146.539183 163.458535 
L 146.539183 159.626139 
L 147.016441 159.626139 
L 147.016441 155.793743 
L 148.130198 155.793743 
L 148.130198 151.961347 
L 148.322895 151.961347 
L 148.322895 148.12895 
L 148.942821 148.12895 
L 148.993409 140.464158 
L 150.348606 140.464158 
L 150.348606 136.631762 
L 150.835587 136.631762 
L 150.835587 132.799366 
L 151.346674 132.799366 
L 151.346674 128.96697 
L 151.94038 128.96697 
L 151.94038 125.134574 
L 156.645228 125.134574 
L 156.645228 121.302178 
L 158.85409 121.302178 
L 158.85409 117.469782 
L 164.078649 117.469782 
L 164.078649 113.637386 
L 167.659882 113.637386 
L 167.708399 105.972594 
L 169.898414 105.972594 
L 169.898414 102.140198 
L 173.533979 102.140198 
L 173.533979 98.307802 
L 175.927702 98.307802 
L 175.927702 94.475406 
L 176.067793 94.475406 
L 176.067793 90.64301 
L 177.741299 90.64301 
L 177.741299 86.810614 
L 179.33841 86.810614 
L 179.33841 82.978218 
L 180.681904 82.978218 
L 180.681904 79.145822 
L 180.924182 79.145822 
L 180.924182 75.313426 
L 181.213973 75.313426 
L 181.213973 71.48103 
L 182.637451 71.48103 
L 182.637451 67.648634 
L 183.020891 67.648634 
L 183.020891 63.816238 
L 184.020923 63.816238 
L 184.020923 59.983842 
L 184.80046 59.983842 
L 184.80046 56.151446 
L 186.39445 56.151446 
L 186.39445 52.31905 
L 189.979454 52.31905 
L 190.013449 44.654257 
L 191.2604 44.654257 
L 191.2604 40.821861 
L 191.788235 40.821861 
L 191.788235 36.989465 
L 194.766196 36.989465 
L 194.766196 33.157069 
L 194.96807 33.157069 
L 194.96807 29.324673 
L 195.748944 29.324673 
L 195.760358 17.827485 
L 203.120951 17.827485 
L 203.126004 6.330297 
L 203.126004 6.330297 
L 460.8 6.330297 
L 460.8 6.330297 
" style="fill:none;stroke:#00bfbf;stroke-linecap:square;stroke-width:1.5;"/>
   </g>
   <g id="patch_3">
    <path d="M 0 293.76 
L 0 3.456 
" style="fill:none;stroke:#000000;stroke-linecap:square;stroke-linejoin:miter;stroke-width:0.8;"/>
   </g>
   <g id="patch_4">
    <path d="M 460.8 293.76 
L 460.8 3.456 
" style="fill:none;stroke:#000000;stroke-linecap:square;stroke-linejoin:miter;stroke-width:0.8;"/>
   </g>
   <g id="patch_5">
    <path d="M 0 293.76 
L 460.8 293.76 
" style="fill:none;stroke:#000000;stroke-linecap:square;stroke-linejoin:miter;stroke-width:0.8;"/>
   </g>
   <g id="patch_6">
    <path d="M 0 3.456 
L 460.8 3.456 
" style="fill:none;stroke:#000000;stroke-linecap:square;stroke-linejoin:miter;stroke-width:0.8;"/>
   </g>
   <g id="text_6">
    <!-- {f15-f19}, 5-D -->
    <g transform="translate(305.884 287.95392)scale(0.2 -0.2)">
     <defs>
      <path d="M 3272 -594 
L 3272 -1044 
L 3078 -1044 
Q 2300 -1044 2036 -812 
Q 1772 -581 1772 109 
L 1772 856 
Q 1772 1328 1603 1509 
Q 1434 1691 991 1691 
L 800 1691 
L 800 2138 
L 991 2138 
Q 1438 2138 1605 2317 
Q 1772 2497 1772 2963 
L 1772 3713 
Q 1772 4403 2036 4633 
Q 2300 4863 3078 4863 
L 3272 4863 
L 3272 4416 
L 3059 4416 
Q 2619 4416 2484 4278 
Q 2350 4141 2350 3700 
L 2350 2925 
Q 2350 2434 2208 2212 
Q 2066 1991 1722 1913 
Q 2069 1828 2209 1606 
Q 2350 1384 2350 897 
L 2350 122 
Q 2350 -319 2484 -456 
Q 2619 -594 3059 -594 
L 3272 -594 
z
" id="DejaVuSans-7b" transform="scale(0.015625)"/>
      <path d="M 691 4666 
L 3169 4666 
L 3169 4134 
L 1269 4134 
L 1269 2991 
Q 1406 3038 1543 3061 
Q 1681 3084 1819 3084 
Q 2600 3084 3056 2656 
Q 3513 2228 3513 1497 
Q 3513 744 3044 326 
Q 2575 -91 1722 -91 
Q 1428 -91 1123 -41 
Q 819 9 494 109 
L 494 744 
Q 775 591 1075 516 
Q 1375 441 1709 441 
Q 2250 441 2565 725 
Q 2881 1009 2881 1497 
Q 2881 1984 2565 2268 
Q 2250 2553 1709 2553 
Q 1456 2553 1204 2497 
Q 953 2441 691 2322 
L 691 4666 
z
" id="DejaVuSans-35" transform="scale(0.015625)"/>
      <path d="M 703 97 
L 703 672 
Q 941 559 1184 500 
Q 1428 441 1663 441 
Q 2288 441 2617 861 
Q 2947 1281 2994 2138 
Q 2813 1869 2534 1725 
Q 2256 1581 1919 1581 
Q 1219 1581 811 2004 
Q 403 2428 403 3163 
Q 403 3881 828 4315 
Q 1253 4750 1959 4750 
Q 2769 4750 3195 4129 
Q 3622 3509 3622 2328 
Q 3622 1225 3098 567 
Q 2575 -91 1691 -91 
Q 1453 -91 1209 -44 
Q 966 3 703 97 
z
M 1959 2075 
Q 2384 2075 2632 2365 
Q 2881 2656 2881 3163 
Q 2881 3666 2632 3958 
Q 2384 4250 1959 4250 
Q 1534 4250 1286 3958 
Q 1038 3666 1038 3163 
Q 1038 2656 1286 2365 
Q 1534 2075 1959 2075 
z
" id="DejaVuSans-39" transform="scale(0.015625)"/>
      <path d="M 800 -594 
L 1019 -594 
Q 1456 -594 1589 -459 
Q 1722 -325 1722 122 
L 1722 897 
Q 1722 1384 1862 1606 
Q 2003 1828 2350 1913 
Q 2003 1991 1862 2212 
Q 1722 2434 1722 2925 
L 1722 3700 
Q 1722 4144 1589 4280 
Q 1456 4416 1019 4416 
L 800 4416 
L 800 4863 
L 997 4863 
Q 1775 4863 2036 4633 
Q 2297 4403 2297 3713 
L 2297 2963 
Q 2297 2497 2465 2317 
Q 2634 2138 3078 2138 
L 3272 2138 
L 3272 1691 
L 3078 1691 
Q 2634 1691 2465 1509 
Q 2297 1328 2297 856 
L 2297 109 
Q 2297 -581 2036 -812 
Q 1775 -1044 997 -1044 
L 800 -1044 
L 800 -594 
z
" id="DejaVuSans-7d" transform="scale(0.015625)"/>
      <path d="M 750 794 
L 1409 794 
L 1409 256 
L 897 -744 
L 494 -744 
L 750 256 
L 750 794 
z
" id="DejaVuSans-2c" transform="scale(0.015625)"/>
     </defs>
     <use xlink:href="#DejaVuSans-7b"/>
     <use x="63.623047" xlink:href="#DejaVuSans-66"/>
     <use x="98.828125" xlink:href="#DejaVuSans-31"/>
     <use x="162.451172" xlink:href="#DejaVuSans-35"/>
     <use x="226.074219" xlink:href="#DejaVuSans-2d"/>
     <use x="262.158203" xlink:href="#DejaVuSans-66"/>
     <use x="297.363281" xlink:href="#DejaVuSans-31"/>
     <use x="360.986328" xlink:href="#DejaVuSans-39"/>
     <use x="424.609375" xlink:href="#DejaVuSans-7d"/>
     <use x="488.232422" xlink:href="#DejaVuSans-2c"/>
     <use x="520.019531" xlink:href="#DejaVuSans-20"/>
     <use x="551.806641" xlink:href="#DejaVuSans-35"/>
     <use x="615.429688" xlink:href="#DejaVuSans-2d"/>
     <use x="651.513672" xlink:href="#DejaVuSans-44"/>
    </g>
   </g>
   <g id="text_7">
    <!-- v2.4 -->
    <g style="fill:#808080;" transform="translate(219.489063 288.777272)scale(0.1 -0.1)">
     <defs>
      <path d="M 191 3500 
L 800 3500 
L 1894 563 
L 2988 3500 
L 3597 3500 
L 2284 0 
L 1503 0 
L 191 3500 
z
" id="DejaVuSans-76" transform="scale(0.015625)"/>
      <path d="M 1228 531 
L 3431 531 
L 3431 0 
L 469 0 
L 469 531 
Q 828 903 1448 1529 
Q 2069 2156 2228 2338 
Q 2531 2678 2651 2914 
Q 2772 3150 2772 3378 
Q 2772 3750 2511 3984 
Q 2250 4219 1831 4219 
Q 1534 4219 1204 4116 
Q 875 4013 500 3803 
L 500 4441 
Q 881 4594 1212 4672 
Q 1544 4750 1819 4750 
Q 2544 4750 2975 4387 
Q 3406 4025 3406 3419 
Q 3406 3131 3298 2873 
Q 3191 2616 2906 2266 
Q 2828 2175 2409 1742 
Q 1991 1309 1228 531 
z
" id="DejaVuSans-32" transform="scale(0.015625)"/>
      <path d="M 684 794 
L 1344 794 
L 1344 0 
L 684 0 
L 684 794 
z
" id="DejaVuSans-2e" transform="scale(0.015625)"/>
     </defs>
     <use xlink:href="#DejaVuSans-76"/>
     <use x="59.179688" xlink:href="#DejaVuSans-32"/>
     <use x="122.802734" xlink:href="#DejaVuSans-2e"/>
     <use x="154.589844" xlink:href="#DejaVuSans-34"/>
    </g>
   </g>
  </g>
 </g>
 <defs>
  <clipPath id="pd65e20fb3b">
   <rect height="290.304" width="460.8" x="0" y="3.456"/>
  </clipPath>
 </defs>
</svg>
