<?xml version="1.0" encoding="utf-8" standalone="no"?>
<!DOCTYPE svg PUBLIC "-//W3C//DTD SVG 1.1//EN"
  "http://www.w3.org/Graphics/SVG/1.1/DTD/svg11.dtd">
<svg height="345.6pt" version="1.1" viewBox="0 0 460.8 345.6" width="460.8pt" xmlns="http://www.w3.org/2000/svg" xmlns:xlink="http://www.w3.org/1999/xlink">
 <metadata>
  <rdf:RDF xmlns:cc="http://creativecommons.org/ns#" xmlns:dc="http://purl.org/dc/elements/1.1/" xmlns:rdf="http://www.w3.org/1999/02/22-rdf-syntax-ns#">
   <cc:Work>
    <dc:type rdf:resource="http://purl.org/dc/dcmitype/StillImage"/>
    <dc:date>2021-04-26T18:31:53.908857</dc:date>
    <dc:format>image/svg+xml</dc:format>
    <dc:creator>
     <cc:Agent>
      <dc:title>Matplotlib v3.4.1, https://matplotlib.org/</dc:title>
     </cc:Agent>
    </dc:creator>
   </cc:Work>
  </rdf:RDF>
 </metadata>
 <defs>
  <style type="text/css">*{stroke-linecap:butt;stroke-linejoin:round;}</style>
 </defs>
 <g id="figure_1">
  <g id="patch_1">
   <path d="M 0 345.6 
L 460.8 345.6 
L 460.8 0 
L 0 0 
z
" style="fill:#ffffff;"/>
  </g>
  <g id="axes_1">
   <g id="patch_2">
    <path d="M 57.6 298.944 
L 338.688 298.944 
L 338.688 27.648 
L 57.6 27.648 
z
" style="fill:#ffffff;"/>
   </g>
   <g id="line2d_1">
    <path d="M 102.772397 298.944 
L 102.772397 293.677139 
L 104.826449 293.677139 
L 104.826449 288.410278 
L 105.584798 288.410278 
L 105.584798 283.143418 
L 105.951954 283.143418 
L 105.951954 277.876557 
L 108.640231 277.876557 
L 108.640231 272.609696 
L 111.239304 272.609696 
L 111.239304 267.342835 
L 114.641021 267.342835 
L 114.641021 262.075974 
L 118.039942 262.075974 
L 118.039942 256.809114 
L 119.931767 256.809114 
L 119.931767 251.542253 
L 123.192626 251.542253 
L 123.192626 246.275392 
L 127.799239 246.275392 
L 127.799239 241.008531 
L 131.185181 241.008531 
L 131.185181 235.74167 
L 133.277185 235.74167 
L 133.277185 230.47481 
L 138.256201 230.47481 
L 138.256201 225.207949 
L 139.253002 225.207949 
L 139.253002 219.941088 
L 139.990725 219.941088 
L 139.990725 214.674227 
L 140.79731 214.674227 
L 140.79731 209.407366 
L 141.521035 209.407366 
L 141.521035 204.140506 
L 142.215919 204.140506 
L 142.215919 198.873645 
L 142.664255 198.873645 
L 142.664255 193.606784 
L 142.971369 193.606784 
L 142.971369 188.339923 
L 143.44331 188.339923 
L 143.44331 183.073062 
L 143.695448 183.073062 
L 143.695448 177.806202 
L 143.985075 177.806202 
L 143.985075 172.539341 
L 144.470655 172.539341 
L 144.470655 167.27248 
L 144.787023 167.27248 
L 144.787023 162.005619 
L 146.573414 162.005619 
L 146.573414 156.738758 
L 149.616841 156.738758 
L 149.616841 151.471897 
L 149.998846 151.471897 
L 149.998846 146.205037 
L 150.372662 146.205037 
L 150.372662 140.938176 
L 150.682827 140.938176 
L 150.682827 135.671315 
L 150.987572 135.671315 
L 150.987572 130.404454 
L 151.501723 130.404454 
L 151.501723 125.137593 
L 151.844975 125.137593 
L 151.844975 119.870733 
L 152.232818 119.870733 
L 152.232818 114.603872 
L 152.587184 114.603872 
L 152.587184 109.337011 
L 152.835965 109.337011 
L 152.835965 104.07015 
L 153.056874 104.07015 
L 153.056874 98.803289 
L 153.323128 98.803289 
L 153.323128 93.536429 
L 153.609024 93.536429 
L 153.609024 88.269568 
L 153.820412 88.269568 
L 153.820412 83.002707 
L 153.983071 83.002707 
L 153.983071 77.735846 
L 154.326601 77.735846 
L 154.326601 72.468985 
L 154.46214 72.468985 
L 154.46214 67.202125 
L 154.641235 67.202125 
L 154.641235 61.935264 
L 154.796449 61.935264 
L 154.796449 56.668403 
L 154.972161 56.668403 
L 154.972161 51.401542 
L 155.081089 51.401542 
L 155.081089 46.134681 
L 155.253971 46.134681 
L 155.253971 40.867821 
L 155.382516 40.867821 
L 155.382516 35.60096 
L 155.510121 35.60096 
L 155.510121 30.334099 
L 338.688 30.334099 
" style="fill:none;stroke:#f5deb3;stroke-linecap:square;stroke-width:4;"/>
   </g>
   <g id="line2d_2">
    <defs>
     <path d="M 0 7.778175 
L 7.778175 0 
L 0 -7.778175 
L -7.778175 0 
z
" id="mf89dad3ecd" style="stroke:#f5deb3;stroke-linejoin:miter;stroke-width:1.5;"/>
    </defs>
    <g>
     <use style="fill:#f5deb3;stroke:#f5deb3;stroke-linejoin:miter;stroke-width:1.5;" x="139.990725" xlink:href="#mf89dad3ecd" y="214.674227"/>
     <use style="fill:#f5deb3;stroke:#f5deb3;stroke-linejoin:miter;stroke-width:1.5;" x="153.056874" xlink:href="#mf89dad3ecd" y="104.07015"/>
     <use style="fill:#f5deb3;stroke:#f5deb3;stroke-linejoin:miter;stroke-width:1.5;" x="155.510121" xlink:href="#mf89dad3ecd" y="30.334099"/>
     <use style="fill:#f5deb3;stroke:#f5deb3;stroke-linejoin:miter;stroke-width:1.5;" x="155.510121" xlink:href="#mf89dad3ecd" y="30.334099"/>
     <use style="fill:#f5deb3;stroke:#f5deb3;stroke-linejoin:miter;stroke-width:1.5;" x="338.688" xlink:href="#mf89dad3ecd" y="30.334099"/>
    </g>
   </g>
   <g id="line2d_3">
    <path style="fill:none;stroke:#f5deb3;stroke-linecap:square;stroke-width:4;"/>
    <g/>
   </g>
   <g id="line2d_4">
    <path d="M 338.688 30.334099 
L 369.60768 35.706297 
" style="fill:none;stroke:#f5deb3;stroke-linecap:square;stroke-width:4;"/>
    <g>
     <use style="fill:#f5deb3;stroke:#f5deb3;stroke-linejoin:miter;stroke-width:1.5;" x="338.688" xlink:href="#mf89dad3ecd" y="30.334099"/>
     <use style="fill:#f5deb3;stroke:#f5deb3;stroke-linejoin:miter;stroke-width:1.5;" x="369.60768" xlink:href="#mf89dad3ecd" y="35.706297"/>
    </g>
   </g>
   <g id="matplotlib.axis_1">
    <g id="xtick_1">
     <g id="line2d_5">
      <path clip-path="url(#p1712903c6f)" d="M 57.6 298.944 
L 57.6 27.648 
" style="fill:none;stroke:#b0b0b0;stroke-linecap:square;stroke-width:0.8;"/>
     </g>
     <g id="line2d_6">
      <defs>
       <path d="M 0 0 
L 0 3.5 
" id="mfd1fafbfb5" style="stroke:#000000;stroke-width:0.8;"/>
      </defs>
      <g>
       <use style="stroke:#000000;stroke-width:0.8;" x="57.6" xlink:href="#mfd1fafbfb5" y="298.944"/>
      </g>
     </g>
     <g id="text_1">
      <!-- 0 -->
      <g transform="translate(51.2375 321.140875)scale(0.2 -0.2)">
       <defs>
        <path d="M 2034 4250 
Q 1547 4250 1301 3770 
Q 1056 3291 1056 2328 
Q 1056 1369 1301 889 
Q 1547 409 2034 409 
Q 2525 409 2770 889 
Q 3016 1369 3016 2328 
Q 3016 3291 2770 3770 
Q 2525 4250 2034 4250 
z
M 2034 4750 
Q 2819 4750 3233 4129 
Q 3647 3509 3647 2328 
Q 3647 1150 3233 529 
Q 2819 -91 2034 -91 
Q 1250 -91 836 529 
Q 422 1150 422 2328 
Q 422 3509 836 4129 
Q 1250 4750 2034 4750 
z
" id="DejaVuSans-30" transform="scale(0.015625)"/>
       </defs>
       <use xlink:href="#DejaVuSans-30"/>
      </g>
     </g>
    </g>
    <g id="xtick_2">
     <g id="line2d_7">
      <path clip-path="url(#p1712903c6f)" d="M 137.910857 298.944 
L 137.910857 27.648 
" style="fill:none;stroke:#b0b0b0;stroke-linecap:square;stroke-width:0.8;"/>
     </g>
     <g id="line2d_8">
      <g>
       <use style="stroke:#000000;stroke-width:0.8;" x="137.910857" xlink:href="#mfd1fafbfb5" y="298.944"/>
      </g>
     </g>
     <g id="text_2">
      <!-- 2 -->
      <g transform="translate(131.548357 321.140875)scale(0.2 -0.2)">
       <defs>
        <path d="M 1228 531 
L 3431 531 
L 3431 0 
L 469 0 
L 469 531 
Q 828 903 1448 1529 
Q 2069 2156 2228 2338 
Q 2531 2678 2651 2914 
Q 2772 3150 2772 3378 
Q 2772 3750 2511 3984 
Q 2250 4219 1831 4219 
Q 1534 4219 1204 4116 
Q 875 4013 500 3803 
L 500 4441 
Q 881 4594 1212 4672 
Q 1544 4750 1819 4750 
Q 2544 4750 2975 4387 
Q 3406 4025 3406 3419 
Q 3406 3131 3298 2873 
Q 3191 2616 2906 2266 
Q 2828 2175 2409 1742 
Q 1991 1309 1228 531 
z
" id="DejaVuSans-32" transform="scale(0.015625)"/>
       </defs>
       <use xlink:href="#DejaVuSans-32"/>
      </g>
     </g>
    </g>
    <g id="xtick_3">
     <g id="line2d_9">
      <path clip-path="url(#p1712903c6f)" d="M 218.221714 298.944 
L 218.221714 27.648 
" style="fill:none;stroke:#b0b0b0;stroke-linecap:square;stroke-width:0.8;"/>
     </g>
     <g id="line2d_10">
      <g>
       <use style="stroke:#000000;stroke-width:0.8;" x="218.221714" xlink:href="#mfd1fafbfb5" y="298.944"/>
      </g>
     </g>
     <g id="text_3">
      <!-- 4 -->
      <g transform="translate(211.859214 321.140875)scale(0.2 -0.2)">
       <defs>
        <path d="M 2419 4116 
L 825 1625 
L 2419 1625 
L 2419 4116 
z
M 2253 4666 
L 3047 4666 
L 3047 1625 
L 3713 1625 
L 3713 1100 
L 3047 1100 
L 3047 0 
L 2419 0 
L 2419 1100 
L 313 1100 
L 313 1709 
L 2253 4666 
z
" id="DejaVuSans-34" transform="scale(0.015625)"/>
       </defs>
       <use xlink:href="#DejaVuSans-34"/>
      </g>
     </g>
    </g>
    <g id="xtick_4">
     <g id="line2d_11">
      <path clip-path="url(#p1712903c6f)" d="M 298.532571 298.944 
L 298.532571 27.648 
" style="fill:none;stroke:#b0b0b0;stroke-linecap:square;stroke-width:0.8;"/>
     </g>
     <g id="line2d_12">
      <g>
       <use style="stroke:#000000;stroke-width:0.8;" x="298.532571" xlink:href="#mfd1fafbfb5" y="298.944"/>
      </g>
     </g>
     <g id="text_4">
      <!-- 6 -->
      <g transform="translate(292.170071 321.140875)scale(0.2 -0.2)">
       <defs>
        <path d="M 2113 2584 
Q 1688 2584 1439 2293 
Q 1191 2003 1191 1497 
Q 1191 994 1439 701 
Q 1688 409 2113 409 
Q 2538 409 2786 701 
Q 3034 994 3034 1497 
Q 3034 2003 2786 2293 
Q 2538 2584 2113 2584 
z
M 3366 4563 
L 3366 3988 
Q 3128 4100 2886 4159 
Q 2644 4219 2406 4219 
Q 1781 4219 1451 3797 
Q 1122 3375 1075 2522 
Q 1259 2794 1537 2939 
Q 1816 3084 2150 3084 
Q 2853 3084 3261 2657 
Q 3669 2231 3669 1497 
Q 3669 778 3244 343 
Q 2819 -91 2113 -91 
Q 1303 -91 875 529 
Q 447 1150 447 2328 
Q 447 3434 972 4092 
Q 1497 4750 2381 4750 
Q 2619 4750 2861 4703 
Q 3103 4656 3366 4563 
z
" id="DejaVuSans-36" transform="scale(0.015625)"/>
       </defs>
       <use xlink:href="#DejaVuSans-36"/>
      </g>
     </g>
    </g>
    <g id="xtick_5">
     <g id="line2d_13">
      <path clip-path="url(#p1712903c6f)" d="M 97.755429 298.944 
L 97.755429 27.648 
" style="fill:none;stroke:#b0b0b0;stroke-linecap:square;stroke-width:0.8;"/>
     </g>
     <g id="line2d_14">
      <defs>
       <path d="M 0 0 
L 0 2 
" id="mdcdec757df" style="stroke:#000000;stroke-width:0.6;"/>
      </defs>
      <g>
       <use style="stroke:#000000;stroke-width:0.6;" x="97.755429" xlink:href="#mdcdec757df" y="298.944"/>
      </g>
     </g>
    </g>
    <g id="xtick_6">
     <g id="line2d_15">
      <path clip-path="url(#p1712903c6f)" d="M 178.066286 298.944 
L 178.066286 27.648 
" style="fill:none;stroke:#b0b0b0;stroke-linecap:square;stroke-width:0.8;"/>
     </g>
     <g id="line2d_16">
      <g>
       <use style="stroke:#000000;stroke-width:0.6;" x="178.066286" xlink:href="#mdcdec757df" y="298.944"/>
      </g>
     </g>
    </g>
    <g id="xtick_7">
     <g id="line2d_17">
      <path clip-path="url(#p1712903c6f)" d="M 258.377143 298.944 
L 258.377143 27.648 
" style="fill:none;stroke:#b0b0b0;stroke-linecap:square;stroke-width:0.8;"/>
     </g>
     <g id="line2d_18">
      <g>
       <use style="stroke:#000000;stroke-width:0.6;" x="258.377143" xlink:href="#mdcdec757df" y="298.944"/>
      </g>
     </g>
    </g>
    <g id="xtick_8">
     <g id="line2d_19">
      <path clip-path="url(#p1712903c6f)" d="M 338.688 298.944 
L 338.688 27.648 
" style="fill:none;stroke:#b0b0b0;stroke-linecap:square;stroke-width:0.8;"/>
     </g>
     <g id="line2d_20">
      <g>
       <use style="stroke:#000000;stroke-width:0.6;" x="338.688" xlink:href="#mdcdec757df" y="298.944"/>
      </g>
     </g>
    </g>
    <g id="text_5">
     <!-- log10(# f-evals / dimension) -->
     <g transform="translate(77.764078 342.217594)scale(0.17 -0.17)">
      <defs>
       <path d="M 603 4863 
L 1178 4863 
L 1178 0 
L 603 0 
L 603 4863 
z
" id="DejaVuSans-6c" transform="scale(0.015625)"/>
       <path d="M 1959 3097 
Q 1497 3097 1228 2736 
Q 959 2375 959 1747 
Q 959 1119 1226 758 
Q 1494 397 1959 397 
Q 2419 397 2687 759 
Q 2956 1122 2956 1747 
Q 2956 2369 2687 2733 
Q 2419 3097 1959 3097 
z
M 1959 3584 
Q 2709 3584 3137 3096 
Q 3566 2609 3566 1747 
Q 3566 888 3137 398 
Q 2709 -91 1959 -91 
Q 1206 -91 779 398 
Q 353 888 353 1747 
Q 353 2609 779 3096 
Q 1206 3584 1959 3584 
z
" id="DejaVuSans-6f" transform="scale(0.015625)"/>
       <path d="M 2906 1791 
Q 2906 2416 2648 2759 
Q 2391 3103 1925 3103 
Q 1463 3103 1205 2759 
Q 947 2416 947 1791 
Q 947 1169 1205 825 
Q 1463 481 1925 481 
Q 2391 481 2648 825 
Q 2906 1169 2906 1791 
z
M 3481 434 
Q 3481 -459 3084 -895 
Q 2688 -1331 1869 -1331 
Q 1566 -1331 1297 -1286 
Q 1028 -1241 775 -1147 
L 775 -588 
Q 1028 -725 1275 -790 
Q 1522 -856 1778 -856 
Q 2344 -856 2625 -561 
Q 2906 -266 2906 331 
L 2906 616 
Q 2728 306 2450 153 
Q 2172 0 1784 0 
Q 1141 0 747 490 
Q 353 981 353 1791 
Q 353 2603 747 3093 
Q 1141 3584 1784 3584 
Q 2172 3584 2450 3431 
Q 2728 3278 2906 2969 
L 2906 3500 
L 3481 3500 
L 3481 434 
z
" id="DejaVuSans-67" transform="scale(0.015625)"/>
       <path d="M 794 531 
L 1825 531 
L 1825 4091 
L 703 3866 
L 703 4441 
L 1819 4666 
L 2450 4666 
L 2450 531 
L 3481 531 
L 3481 0 
L 794 0 
L 794 531 
z
" id="DejaVuSans-31" transform="scale(0.015625)"/>
       <path d="M 1984 4856 
Q 1566 4138 1362 3434 
Q 1159 2731 1159 2009 
Q 1159 1288 1364 580 
Q 1569 -128 1984 -844 
L 1484 -844 
Q 1016 -109 783 600 
Q 550 1309 550 2009 
Q 550 2706 781 3412 
Q 1013 4119 1484 4856 
L 1984 4856 
z
" id="DejaVuSans-28" transform="scale(0.015625)"/>
       <path d="M 3272 2816 
L 2363 2816 
L 2100 1772 
L 3016 1772 
L 3272 2816 
z
M 2803 4594 
L 2478 3297 
L 3391 3297 
L 3719 4594 
L 4219 4594 
L 3897 3297 
L 4872 3297 
L 4872 2816 
L 3775 2816 
L 3519 1772 
L 4513 1772 
L 4513 1294 
L 3397 1294 
L 3072 0 
L 2572 0 
L 2894 1294 
L 1978 1294 
L 1656 0 
L 1153 0 
L 1478 1294 
L 494 1294 
L 494 1772 
L 1594 1772 
L 1856 2816 
L 850 2816 
L 850 3297 
L 1978 3297 
L 2297 4594 
L 2803 4594 
z
" id="DejaVuSans-23" transform="scale(0.015625)"/>
       <path id="DejaVuSans-20" transform="scale(0.015625)"/>
       <path d="M 2375 4863 
L 2375 4384 
L 1825 4384 
Q 1516 4384 1395 4259 
Q 1275 4134 1275 3809 
L 1275 3500 
L 2222 3500 
L 2222 3053 
L 1275 3053 
L 1275 0 
L 697 0 
L 697 3053 
L 147 3053 
L 147 3500 
L 697 3500 
L 697 3744 
Q 697 4328 969 4595 
Q 1241 4863 1831 4863 
L 2375 4863 
z
" id="DejaVuSans-66" transform="scale(0.015625)"/>
       <path d="M 313 2009 
L 1997 2009 
L 1997 1497 
L 313 1497 
L 313 2009 
z
" id="DejaVuSans-2d" transform="scale(0.015625)"/>
       <path d="M 3597 1894 
L 3597 1613 
L 953 1613 
Q 991 1019 1311 708 
Q 1631 397 2203 397 
Q 2534 397 2845 478 
Q 3156 559 3463 722 
L 3463 178 
Q 3153 47 2828 -22 
Q 2503 -91 2169 -91 
Q 1331 -91 842 396 
Q 353 884 353 1716 
Q 353 2575 817 3079 
Q 1281 3584 2069 3584 
Q 2775 3584 3186 3129 
Q 3597 2675 3597 1894 
z
M 3022 2063 
Q 3016 2534 2758 2815 
Q 2500 3097 2075 3097 
Q 1594 3097 1305 2825 
Q 1016 2553 972 2059 
L 3022 2063 
z
" id="DejaVuSans-65" transform="scale(0.015625)"/>
       <path d="M 191 3500 
L 800 3500 
L 1894 563 
L 2988 3500 
L 3597 3500 
L 2284 0 
L 1503 0 
L 191 3500 
z
" id="DejaVuSans-76" transform="scale(0.015625)"/>
       <path d="M 2194 1759 
Q 1497 1759 1228 1600 
Q 959 1441 959 1056 
Q 959 750 1161 570 
Q 1363 391 1709 391 
Q 2188 391 2477 730 
Q 2766 1069 2766 1631 
L 2766 1759 
L 2194 1759 
z
M 3341 1997 
L 3341 0 
L 2766 0 
L 2766 531 
Q 2569 213 2275 61 
Q 1981 -91 1556 -91 
Q 1019 -91 701 211 
Q 384 513 384 1019 
Q 384 1609 779 1909 
Q 1175 2209 1959 2209 
L 2766 2209 
L 2766 2266 
Q 2766 2663 2505 2880 
Q 2244 3097 1772 3097 
Q 1472 3097 1187 3025 
Q 903 2953 641 2809 
L 641 3341 
Q 956 3463 1253 3523 
Q 1550 3584 1831 3584 
Q 2591 3584 2966 3190 
Q 3341 2797 3341 1997 
z
" id="DejaVuSans-61" transform="scale(0.015625)"/>
       <path d="M 2834 3397 
L 2834 2853 
Q 2591 2978 2328 3040 
Q 2066 3103 1784 3103 
Q 1356 3103 1142 2972 
Q 928 2841 928 2578 
Q 928 2378 1081 2264 
Q 1234 2150 1697 2047 
L 1894 2003 
Q 2506 1872 2764 1633 
Q 3022 1394 3022 966 
Q 3022 478 2636 193 
Q 2250 -91 1575 -91 
Q 1294 -91 989 -36 
Q 684 19 347 128 
L 347 722 
Q 666 556 975 473 
Q 1284 391 1588 391 
Q 1994 391 2212 530 
Q 2431 669 2431 922 
Q 2431 1156 2273 1281 
Q 2116 1406 1581 1522 
L 1381 1569 
Q 847 1681 609 1914 
Q 372 2147 372 2553 
Q 372 3047 722 3315 
Q 1072 3584 1716 3584 
Q 2034 3584 2315 3537 
Q 2597 3491 2834 3397 
z
" id="DejaVuSans-73" transform="scale(0.015625)"/>
       <path d="M 1625 4666 
L 2156 4666 
L 531 -594 
L 0 -594 
L 1625 4666 
z
" id="DejaVuSans-2f" transform="scale(0.015625)"/>
       <path d="M 2906 2969 
L 2906 4863 
L 3481 4863 
L 3481 0 
L 2906 0 
L 2906 525 
Q 2725 213 2448 61 
Q 2172 -91 1784 -91 
Q 1150 -91 751 415 
Q 353 922 353 1747 
Q 353 2572 751 3078 
Q 1150 3584 1784 3584 
Q 2172 3584 2448 3432 
Q 2725 3281 2906 2969 
z
M 947 1747 
Q 947 1113 1208 752 
Q 1469 391 1925 391 
Q 2381 391 2643 752 
Q 2906 1113 2906 1747 
Q 2906 2381 2643 2742 
Q 2381 3103 1925 3103 
Q 1469 3103 1208 2742 
Q 947 2381 947 1747 
z
" id="DejaVuSans-64" transform="scale(0.015625)"/>
       <path d="M 603 3500 
L 1178 3500 
L 1178 0 
L 603 0 
L 603 3500 
z
M 603 4863 
L 1178 4863 
L 1178 4134 
L 603 4134 
L 603 4863 
z
" id="DejaVuSans-69" transform="scale(0.015625)"/>
       <path d="M 3328 2828 
Q 3544 3216 3844 3400 
Q 4144 3584 4550 3584 
Q 5097 3584 5394 3201 
Q 5691 2819 5691 2113 
L 5691 0 
L 5113 0 
L 5113 2094 
Q 5113 2597 4934 2840 
Q 4756 3084 4391 3084 
Q 3944 3084 3684 2787 
Q 3425 2491 3425 1978 
L 3425 0 
L 2847 0 
L 2847 2094 
Q 2847 2600 2669 2842 
Q 2491 3084 2119 3084 
Q 1678 3084 1418 2786 
Q 1159 2488 1159 1978 
L 1159 0 
L 581 0 
L 581 3500 
L 1159 3500 
L 1159 2956 
Q 1356 3278 1631 3431 
Q 1906 3584 2284 3584 
Q 2666 3584 2933 3390 
Q 3200 3197 3328 2828 
z
" id="DejaVuSans-6d" transform="scale(0.015625)"/>
       <path d="M 3513 2113 
L 3513 0 
L 2938 0 
L 2938 2094 
Q 2938 2591 2744 2837 
Q 2550 3084 2163 3084 
Q 1697 3084 1428 2787 
Q 1159 2491 1159 1978 
L 1159 0 
L 581 0 
L 581 3500 
L 1159 3500 
L 1159 2956 
Q 1366 3272 1645 3428 
Q 1925 3584 2291 3584 
Q 2894 3584 3203 3211 
Q 3513 2838 3513 2113 
z
" id="DejaVuSans-6e" transform="scale(0.015625)"/>
       <path d="M 513 4856 
L 1013 4856 
Q 1481 4119 1714 3412 
Q 1947 2706 1947 2009 
Q 1947 1309 1714 600 
Q 1481 -109 1013 -844 
L 513 -844 
Q 928 -128 1133 580 
Q 1338 1288 1338 2009 
Q 1338 2731 1133 3434 
Q 928 4138 513 4856 
z
" id="DejaVuSans-29" transform="scale(0.015625)"/>
      </defs>
      <use xlink:href="#DejaVuSans-6c"/>
      <use x="27.783203" xlink:href="#DejaVuSans-6f"/>
      <use x="88.964844" xlink:href="#DejaVuSans-67"/>
      <use x="152.441406" xlink:href="#DejaVuSans-31"/>
      <use x="216.064453" xlink:href="#DejaVuSans-30"/>
      <use x="279.6875" xlink:href="#DejaVuSans-28"/>
      <use x="318.701172" xlink:href="#DejaVuSans-23"/>
      <use x="402.490234" xlink:href="#DejaVuSans-20"/>
      <use x="434.277344" xlink:href="#DejaVuSans-66"/>
      <use x="463.982422" xlink:href="#DejaVuSans-2d"/>
      <use x="500.066406" xlink:href="#DejaVuSans-65"/>
      <use x="561.589844" xlink:href="#DejaVuSans-76"/>
      <use x="620.769531" xlink:href="#DejaVuSans-61"/>
      <use x="682.048828" xlink:href="#DejaVuSans-6c"/>
      <use x="709.832031" xlink:href="#DejaVuSans-73"/>
      <use x="761.931641" xlink:href="#DejaVuSans-20"/>
      <use x="793.71875" xlink:href="#DejaVuSans-2f"/>
      <use x="827.410156" xlink:href="#DejaVuSans-20"/>
      <use x="859.197266" xlink:href="#DejaVuSans-64"/>
      <use x="922.673828" xlink:href="#DejaVuSans-69"/>
      <use x="950.457031" xlink:href="#DejaVuSans-6d"/>
      <use x="1047.869141" xlink:href="#DejaVuSans-65"/>
      <use x="1109.392578" xlink:href="#DejaVuSans-6e"/>
      <use x="1172.771484" xlink:href="#DejaVuSans-73"/>
      <use x="1224.871094" xlink:href="#DejaVuSans-69"/>
      <use x="1252.654297" xlink:href="#DejaVuSans-6f"/>
      <use x="1313.835938" xlink:href="#DejaVuSans-6e"/>
      <use x="1377.214844" xlink:href="#DejaVuSans-29"/>
     </g>
    </g>
   </g>
   <g id="matplotlib.axis_2">
    <g id="ytick_1">
     <g id="line2d_21">
      <path clip-path="url(#p1712903c6f)" d="M 57.6 298.944 
L 338.688 298.944 
" style="fill:none;stroke:#b0b0b0;stroke-linecap:square;stroke-width:0.8;"/>
     </g>
     <g id="line2d_22">
      <defs>
       <path d="M 0 0 
L -3.5 0 
" id="m3d34a1ad2a" style="stroke:#000000;stroke-width:0.8;"/>
      </defs>
      <g>
       <use style="stroke:#000000;stroke-width:0.8;" x="57.6" xlink:href="#m3d34a1ad2a" y="298.944"/>
      </g>
     </g>
     <g id="text_6">
      <!-- 0.0 -->
      <g transform="translate(25.155 305.02275)scale(0.16 -0.16)">
       <defs>
        <path d="M 684 794 
L 1344 794 
L 1344 0 
L 684 0 
L 684 794 
z
" id="DejaVuSans-2e" transform="scale(0.015625)"/>
       </defs>
       <use xlink:href="#DejaVuSans-30"/>
       <use x="63.623047" xlink:href="#DejaVuSans-2e"/>
       <use x="95.410156" xlink:href="#DejaVuSans-30"/>
      </g>
     </g>
    </g>
    <g id="ytick_2">
     <g id="line2d_23">
      <path clip-path="url(#p1712903c6f)" d="M 57.6 245.22202 
L 338.688 245.22202 
" style="fill:none;stroke:#b0b0b0;stroke-linecap:square;stroke-width:0.8;"/>
     </g>
     <g id="line2d_24">
      <g>
       <use style="stroke:#000000;stroke-width:0.8;" x="57.6" xlink:href="#m3d34a1ad2a" y="245.22202"/>
      </g>
     </g>
     <g id="text_7">
      <!-- 0.2 -->
      <g transform="translate(25.155 251.30077)scale(0.16 -0.16)">
       <use xlink:href="#DejaVuSans-30"/>
       <use x="63.623047" xlink:href="#DejaVuSans-2e"/>
       <use x="95.410156" xlink:href="#DejaVuSans-32"/>
      </g>
     </g>
    </g>
    <g id="ytick_3">
     <g id="line2d_25">
      <path clip-path="url(#p1712903c6f)" d="M 57.6 191.50004 
L 338.688 191.50004 
" style="fill:none;stroke:#b0b0b0;stroke-linecap:square;stroke-width:0.8;"/>
     </g>
     <g id="line2d_26">
      <g>
       <use style="stroke:#000000;stroke-width:0.8;" x="57.6" xlink:href="#m3d34a1ad2a" y="191.50004"/>
      </g>
     </g>
     <g id="text_8">
      <!-- 0.4 -->
      <g transform="translate(25.155 197.57879)scale(0.16 -0.16)">
       <use xlink:href="#DejaVuSans-30"/>
       <use x="63.623047" xlink:href="#DejaVuSans-2e"/>
       <use x="95.410156" xlink:href="#DejaVuSans-34"/>
      </g>
     </g>
    </g>
    <g id="ytick_4">
     <g id="line2d_27">
      <path clip-path="url(#p1712903c6f)" d="M 57.6 137.778059 
L 338.688 137.778059 
" style="fill:none;stroke:#b0b0b0;stroke-linecap:square;stroke-width:0.8;"/>
     </g>
     <g id="line2d_28">
      <g>
       <use style="stroke:#000000;stroke-width:0.8;" x="57.6" xlink:href="#m3d34a1ad2a" y="137.778059"/>
      </g>
     </g>
     <g id="text_9">
      <!-- 0.6 -->
      <g transform="translate(25.155 143.856809)scale(0.16 -0.16)">
       <use xlink:href="#DejaVuSans-30"/>
       <use x="63.623047" xlink:href="#DejaVuSans-2e"/>
       <use x="95.410156" xlink:href="#DejaVuSans-36"/>
      </g>
     </g>
    </g>
    <g id="ytick_5">
     <g id="line2d_29">
      <path clip-path="url(#p1712903c6f)" d="M 57.6 84.056079 
L 338.688 84.056079 
" style="fill:none;stroke:#b0b0b0;stroke-linecap:square;stroke-width:0.8;"/>
     </g>
     <g id="line2d_30">
      <g>
       <use style="stroke:#000000;stroke-width:0.8;" x="57.6" xlink:href="#m3d34a1ad2a" y="84.056079"/>
      </g>
     </g>
     <g id="text_10">
      <!-- 0.8 -->
      <g transform="translate(25.155 90.134829)scale(0.16 -0.16)">
       <defs>
        <path d="M 2034 2216 
Q 1584 2216 1326 1975 
Q 1069 1734 1069 1313 
Q 1069 891 1326 650 
Q 1584 409 2034 409 
Q 2484 409 2743 651 
Q 3003 894 3003 1313 
Q 3003 1734 2745 1975 
Q 2488 2216 2034 2216 
z
M 1403 2484 
Q 997 2584 770 2862 
Q 544 3141 544 3541 
Q 544 4100 942 4425 
Q 1341 4750 2034 4750 
Q 2731 4750 3128 4425 
Q 3525 4100 3525 3541 
Q 3525 3141 3298 2862 
Q 3072 2584 2669 2484 
Q 3125 2378 3379 2068 
Q 3634 1759 3634 1313 
Q 3634 634 3220 271 
Q 2806 -91 2034 -91 
Q 1263 -91 848 271 
Q 434 634 434 1313 
Q 434 1759 690 2068 
Q 947 2378 1403 2484 
z
M 1172 3481 
Q 1172 3119 1398 2916 
Q 1625 2713 2034 2713 
Q 2441 2713 2670 2916 
Q 2900 3119 2900 3481 
Q 2900 3844 2670 4047 
Q 2441 4250 2034 4250 
Q 1625 4250 1398 4047 
Q 1172 3844 1172 3481 
z
" id="DejaVuSans-38" transform="scale(0.015625)"/>
       </defs>
       <use xlink:href="#DejaVuSans-30"/>
       <use x="63.623047" xlink:href="#DejaVuSans-2e"/>
       <use x="95.410156" xlink:href="#DejaVuSans-38"/>
      </g>
     </g>
    </g>
    <g id="ytick_6">
     <g id="line2d_31">
      <path clip-path="url(#p1712903c6f)" d="M 57.6 30.334099 
L 338.688 30.334099 
" style="fill:none;stroke:#b0b0b0;stroke-linecap:square;stroke-width:0.8;"/>
     </g>
     <g id="line2d_32">
      <g>
       <use style="stroke:#000000;stroke-width:0.8;" x="57.6" xlink:href="#m3d34a1ad2a" y="30.334099"/>
      </g>
     </g>
     <g id="text_11">
      <!-- 1.0 -->
      <g transform="translate(25.155 36.412849)scale(0.16 -0.16)">
       <use xlink:href="#DejaVuSans-31"/>
       <use x="63.623047" xlink:href="#DejaVuSans-2e"/>
       <use x="95.410156" xlink:href="#DejaVuSans-30"/>
      </g>
     </g>
    </g>
    <g id="text_12">
     <!-- Fraction of function,target pairs -->
     <g transform="translate(17.619531 297.681)rotate(-90)scale(0.17 -0.17)">
      <defs>
       <path d="M 628 4666 
L 3309 4666 
L 3309 4134 
L 1259 4134 
L 1259 2759 
L 3109 2759 
L 3109 2228 
L 1259 2228 
L 1259 0 
L 628 0 
L 628 4666 
z
" id="DejaVuSans-46" transform="scale(0.015625)"/>
       <path d="M 2631 2963 
Q 2534 3019 2420 3045 
Q 2306 3072 2169 3072 
Q 1681 3072 1420 2755 
Q 1159 2438 1159 1844 
L 1159 0 
L 581 0 
L 581 3500 
L 1159 3500 
L 1159 2956 
Q 1341 3275 1631 3429 
Q 1922 3584 2338 3584 
Q 2397 3584 2469 3576 
Q 2541 3569 2628 3553 
L 2631 2963 
z
" id="DejaVuSans-72" transform="scale(0.015625)"/>
       <path d="M 3122 3366 
L 3122 2828 
Q 2878 2963 2633 3030 
Q 2388 3097 2138 3097 
Q 1578 3097 1268 2742 
Q 959 2388 959 1747 
Q 959 1106 1268 751 
Q 1578 397 2138 397 
Q 2388 397 2633 464 
Q 2878 531 3122 666 
L 3122 134 
Q 2881 22 2623 -34 
Q 2366 -91 2075 -91 
Q 1284 -91 818 406 
Q 353 903 353 1747 
Q 353 2603 823 3093 
Q 1294 3584 2113 3584 
Q 2378 3584 2631 3529 
Q 2884 3475 3122 3366 
z
" id="DejaVuSans-63" transform="scale(0.015625)"/>
       <path d="M 1172 4494 
L 1172 3500 
L 2356 3500 
L 2356 3053 
L 1172 3053 
L 1172 1153 
Q 1172 725 1289 603 
Q 1406 481 1766 481 
L 2356 481 
L 2356 0 
L 1766 0 
Q 1100 0 847 248 
Q 594 497 594 1153 
L 594 3053 
L 172 3053 
L 172 3500 
L 594 3500 
L 594 4494 
L 1172 4494 
z
" id="DejaVuSans-74" transform="scale(0.015625)"/>
       <path d="M 544 1381 
L 544 3500 
L 1119 3500 
L 1119 1403 
Q 1119 906 1312 657 
Q 1506 409 1894 409 
Q 2359 409 2629 706 
Q 2900 1003 2900 1516 
L 2900 3500 
L 3475 3500 
L 3475 0 
L 2900 0 
L 2900 538 
Q 2691 219 2414 64 
Q 2138 -91 1772 -91 
Q 1169 -91 856 284 
Q 544 659 544 1381 
z
M 1991 3584 
L 1991 3584 
z
" id="DejaVuSans-75" transform="scale(0.015625)"/>
       <path d="M 750 794 
L 1409 794 
L 1409 256 
L 897 -744 
L 494 -744 
L 750 256 
L 750 794 
z
" id="DejaVuSans-2c" transform="scale(0.015625)"/>
       <path d="M 1159 525 
L 1159 -1331 
L 581 -1331 
L 581 3500 
L 1159 3500 
L 1159 2969 
Q 1341 3281 1617 3432 
Q 1894 3584 2278 3584 
Q 2916 3584 3314 3078 
Q 3713 2572 3713 1747 
Q 3713 922 3314 415 
Q 2916 -91 2278 -91 
Q 1894 -91 1617 61 
Q 1341 213 1159 525 
z
M 3116 1747 
Q 3116 2381 2855 2742 
Q 2594 3103 2138 3103 
Q 1681 3103 1420 2742 
Q 1159 2381 1159 1747 
Q 1159 1113 1420 752 
Q 1681 391 2138 391 
Q 2594 391 2855 752 
Q 3116 1113 3116 1747 
z
" id="DejaVuSans-70" transform="scale(0.015625)"/>
      </defs>
      <use xlink:href="#DejaVuSans-46"/>
      <use x="50.269531" xlink:href="#DejaVuSans-72"/>
      <use x="91.382812" xlink:href="#DejaVuSans-61"/>
      <use x="152.662109" xlink:href="#DejaVuSans-63"/>
      <use x="207.642578" xlink:href="#DejaVuSans-74"/>
      <use x="246.851562" xlink:href="#DejaVuSans-69"/>
      <use x="274.634766" xlink:href="#DejaVuSans-6f"/>
      <use x="335.816406" xlink:href="#DejaVuSans-6e"/>
      <use x="399.195312" xlink:href="#DejaVuSans-20"/>
      <use x="430.982422" xlink:href="#DejaVuSans-6f"/>
      <use x="492.164062" xlink:href="#DejaVuSans-66"/>
      <use x="527.369141" xlink:href="#DejaVuSans-20"/>
      <use x="559.15625" xlink:href="#DejaVuSans-66"/>
      <use x="594.361328" xlink:href="#DejaVuSans-75"/>
      <use x="657.740234" xlink:href="#DejaVuSans-6e"/>
      <use x="721.119141" xlink:href="#DejaVuSans-63"/>
      <use x="776.099609" xlink:href="#DejaVuSans-74"/>
      <use x="815.308594" xlink:href="#DejaVuSans-69"/>
      <use x="843.091797" xlink:href="#DejaVuSans-6f"/>
      <use x="904.273438" xlink:href="#DejaVuSans-6e"/>
      <use x="967.652344" xlink:href="#DejaVuSans-2c"/>
      <use x="999.439453" xlink:href="#DejaVuSans-74"/>
      <use x="1038.648438" xlink:href="#DejaVuSans-61"/>
      <use x="1099.927734" xlink:href="#DejaVuSans-72"/>
      <use x="1139.291016" xlink:href="#DejaVuSans-67"/>
      <use x="1202.767578" xlink:href="#DejaVuSans-65"/>
      <use x="1264.291016" xlink:href="#DejaVuSans-74"/>
      <use x="1303.5" xlink:href="#DejaVuSans-20"/>
      <use x="1335.287109" xlink:href="#DejaVuSans-70"/>
      <use x="1398.763672" xlink:href="#DejaVuSans-61"/>
      <use x="1460.042969" xlink:href="#DejaVuSans-69"/>
      <use x="1487.826172" xlink:href="#DejaVuSans-72"/>
      <use x="1528.939453" xlink:href="#DejaVuSans-73"/>
     </g>
    </g>
   </g>
   <g id="line2d_33">
    <defs>
     <path d="M 0 1.5 
C 0.397805 1.5 0.77937 1.341951 1.06066 1.06066 
C 1.341951 0.77937 1.5 0.397805 1.5 0 
C 1.5 -0.397805 1.341951 -0.77937 1.06066 -1.06066 
C 0.77937 -1.341951 0.397805 -1.5 0 -1.5 
C -0.397805 -1.5 -0.77937 -1.341951 -1.06066 -1.06066 
C -1.341951 -0.77937 -1.5 -0.397805 -1.5 0 
C -1.5 0.397805 -1.341951 0.77937 -1.06066 1.06066 
C -0.77937 1.341951 -0.397805 1.5 0 1.5 
z
" id="m9ca7f9b449" style="stroke:#f5deb3;"/>
    </defs>
    <g>
     <use style="fill:#f5deb3;stroke:#f5deb3;" x="155.510121" xlink:href="#m9ca7f9b449" y="30.334099"/>
     <use style="fill:#f5deb3;stroke:#f5deb3;" x="155.510121" xlink:href="#m9ca7f9b449" y="30.334099"/>
    </g>
   </g>
   <g id="line2d_34">
    <defs>
     <path d="M 0 1.5 
C 0.397805 1.5 0.77937 1.341951 1.06066 1.06066 
C 1.341951 0.77937 1.5 0.397805 1.5 0 
C 1.5 -0.397805 1.341951 -0.77937 1.06066 -1.06066 
C 0.77937 -1.341951 0.397805 -1.5 0 -1.5 
C -0.397805 -1.5 -0.77937 -1.341951 -1.06066 -1.06066 
C -1.341951 -0.77937 -1.5 -0.397805 -1.5 0 
C -1.5 0.397805 -1.341951 0.77937 -1.06066 1.06066 
C -0.77937 1.341951 -0.397805 1.5 0 1.5 
z
" id="m03a60b9a11" style="stroke:#000080;"/>
    </defs>
    <g>
     <use style="fill:#000080;stroke:#000080;" x="307.100612" xlink:href="#m03a60b9a11" y="151.471897"/>
     <use style="fill:#000080;stroke:#000080;" x="307.100612" xlink:href="#m03a60b9a11" y="151.471897"/>
    </g>
   </g>
   <g id="line2d_35">
    <path d="M 158.447857 298.944 
L 158.447857 298.417314 
L 160.489968 298.417314 
L 160.489968 297.890628 
L 161.238149 297.890628 
L 161.238149 297.363942 
L 161.615474 297.363942 
L 161.615474 296.837256 
L 161.778945 296.837256 
L 161.778945 296.31057 
L 163.375071 296.31057 
L 163.375071 293.150453 
L 163.722532 293.150453 
L 163.722532 292.623767 
L 164.140886 292.623767 
L 164.140886 291.570395 
L 164.295217 291.570395 
L 164.295217 291.043709 
L 165.047026 291.043709 
L 165.047026 290.517023 
L 165.18141 290.517023 
L 165.18141 288.936964 
L 165.59035 288.936964 
L 165.59035 287.883592 
L 165.838222 287.883592 
L 165.838222 286.83022 
L 166.255117 286.83022 
L 166.255117 285.250162 
L 166.673454 285.250162 
L 166.740356 283.670104 
L 167.08199 283.670104 
L 167.08199 282.616732 
L 167.619287 282.616732 
L 167.619287 282.090045 
L 168.344733 282.090045 
L 168.344733 281.563359 
L 168.60668 281.563359 
L 168.616676 280.509987 
L 168.913944 280.509987 
L 169.011918 279.456615 
L 169.206229 279.456615 
L 169.206229 277.876557 
L 169.3984 277.876557 
L 169.3984 277.349871 
L 169.897641 277.349871 
L 169.981016 275.769812 
L 170.85519 275.769812 
L 170.85519 274.71644 
L 171.297814 274.71644 
L 171.297814 273.663068 
L 171.712752 273.663068 
L 171.712752 271.556324 
L 173.041565 271.556324 
L 173.041565 270.502952 
L 173.770522 270.502952 
L 173.770522 269.976266 
L 173.984866 269.976266 
L 173.984866 269.449579 
L 174.640854 269.449579 
L 174.640854 268.922893 
L 174.921573 268.922893 
L 174.921573 268.396207 
L 175.060255 268.396207 
L 175.060255 267.869521 
L 175.197844 267.869521 
L 175.197844 267.342835 
L 175.469807 267.342835 
L 175.469807 266.289463 
L 175.657689 266.289463 
L 175.737594 264.709405 
L 175.817135 264.709405 
L 175.817135 264.182719 
L 176.819447 264.182719 
L 176.819447 263.129347 
L 177.311941 263.129347 
L 177.311941 262.60266 
L 177.92621 262.60266 
L 177.92621 262.075974 
L 178.141693 262.075974 
L 178.141693 261.022602 
L 178.303009 261.022602 
L 178.303009 260.495916 
L 178.8617 260.495916 
L 178.8617 259.96923 
L 180.006287 259.96923 
L 180.006287 258.389172 
L 180.125504 258.389172 
L 180.125504 256.809114 
L 180.498578 256.809114 
L 180.498578 256.282427 
L 181.2119 256.282427 
L 181.2119 255.755741 
L 182.824109 255.755741 
L 182.824109 254.702369 
L 183.598738 254.702369 
L 183.598738 253.648997 
L 183.921659 253.648997 
L 183.921659 253.122311 
L 184.745395 253.122311 
L 184.745395 251.542253 
L 185.121797 251.542253 
L 185.121797 251.015567 
L 185.664074 251.015567 
L 185.664074 250.488881 
L 190.212308 250.488881 
L 190.212308 249.962195 
L 190.479659 249.962195 
L 190.479659 249.435508 
L 193.653034 249.435508 
L 193.653034 248.908822 
L 197.02064 248.908822 
L 197.02064 248.382136 
L 197.14372 248.382136 
L 197.14372 247.85545 
L 200.271936 247.85545 
L 200.271936 247.328764 
L 202.44598 247.328764 
L 202.44598 246.802078 
L 205.549722 246.802078 
L 205.549722 246.275392 
L 206.348643 246.275392 
L 206.348643 245.22202 
L 207.200274 245.22202 
L 207.200274 244.695334 
L 211.800266 244.695334 
L 211.800266 243.641962 
L 214.124862 243.641962 
L 214.124862 243.115275 
L 223.405301 243.115275 
L 223.405301 242.588589 
L 227.575053 242.588589 
L 227.678784 240.481845 
L 227.80876 240.481845 
L 227.889089 238.375101 
L 227.931113 238.375101 
L 228.02646 236.268356 
L 228.138415 236.268356 
L 228.150591 234.688298 
L 228.262081 234.688298 
L 228.262081 233.634926 
L 228.453227 233.634926 
L 228.535796 231.528182 
L 228.600995 231.528182 
L 228.677125 229.421437 
L 228.975229 229.421437 
L 228.975229 228.894751 
L 229.985535 228.894751 
L 229.985535 228.368065 
L 231.572545 228.368065 
L 231.572545 227.841379 
L 231.755422 227.841379 
L 231.755422 227.314693 
L 233.186054 227.314693 
L 233.186054 226.261321 
L 239.45199 226.261321 
L 239.45199 225.734635 
L 239.577834 225.734635 
L 239.649606 223.627891 
L 239.698536 223.627891 
L 239.797165 220.99446 
L 239.833734 220.99446 
L 239.935118 218.887716 
L 239.969061 218.887716 
L 239.969061 218.36103 
L 240.993736 218.36103 
L 240.993736 217.834344 
L 241.580408 217.834344 
L 241.580408 217.307658 
L 246.560252 217.307658 
L 246.63598 215.200913 
L 246.674687 215.200913 
L 246.744712 210.987425 
L 246.820209 210.987425 
L 246.92612 209.407366 
L 247.899005 209.407366 
L 247.899005 208.88068 
L 248.849306 208.88068 
L 248.849306 207.827308 
L 251.533524 207.827308 
L 251.599842 204.667192 
L 251.648902 204.667192 
L 251.705922 201.507075 
L 251.786015 201.507075 
L 251.831171 199.927017 
L 252.527227 199.927017 
L 252.582424 198.873645 
L 253.028326 198.873645 
L 253.028326 197.820273 
L 255.429927 197.820273 
L 255.487926 194.660156 
L 255.612548 194.660156 
L 255.618881 193.606784 
L 258.543358 193.606784 
L 258.570975 192.553412 
L 258.698534 192.553412 
L 258.728925 190.446667 
L 259.069003 190.446667 
L 259.069003 189.919981 
L 261.158744 189.919981 
L 261.243534 184.653121 
L 261.362825 184.653121 
L 261.362825 184.126434 
L 261.80613 184.126434 
L 261.80613 183.599748 
L 263.507663 183.599748 
L 263.539687 182.546376 
L 263.635708 182.546376 
L 263.635708 182.01969 
L 265.549596 182.01969 
L 265.601341 180.439632 
L 265.683471 180.439632 
L 265.683471 179.912946 
L 267.479119 179.912946 
L 267.494289 177.806202 
L 270.562317 177.806202 
L 270.626567 176.752829 
L 271.058298 176.752829 
L 271.141257 175.699457 
L 271.950747 175.699457 
L 271.957152 174.119399 
L 273.305042 174.119399 
L 273.305042 173.592713 
L 273.663062 173.592713 
L 273.663062 173.066027 
L 274.434386 173.066027 
L 274.439941 172.012655 
L 275.560249 172.012655 
L 275.603317 170.432596 
L 276.608007 170.432596 
L 276.608007 169.90591 
L 277.601002 169.90591 
L 277.601002 169.379224 
L 278.540488 169.379224 
L 278.581178 167.27248 
L 279.478233 167.27248 
L 279.478233 166.745794 
L 281.865312 166.745794 
L 281.903366 165.165736 
L 282.60178 165.165736 
L 282.641733 163.058991 
L 283.311743 163.058991 
L 283.311743 162.532305 
L 283.99714 162.532305 
L 283.99714 162.005619 
L 284.684765 162.005619 
L 284.684765 161.478933 
L 285.283114 161.478933 
L 285.283114 160.952247 
L 285.893645 160.952247 
L 285.893645 160.425561 
L 287.054098 160.425561 
L 287.079083 159.372189 
L 287.606596 159.372189 
L 287.606596 158.845503 
L 288.144658 158.845503 
L 288.144658 158.318817 
L 288.684486 158.318817 
L 288.684486 157.79213 
L 289.168629 157.79213 
L 289.168629 157.265444 
L 290.135795 157.265444 
L 290.158614 156.212072 
L 290.622201 156.212072 
L 290.622201 155.685386 
L 291.492853 155.685386 
L 291.492853 155.1587 
L 291.920673 155.1587 
L 291.944099 154.105328 
L 296.059471 154.105328 
L 296.059471 153.578642 
L 298.272423 153.578642 
L 298.272423 153.051956 
L 299.414302 153.051956 
L 299.414302 152.52527 
L 300.988072 152.52527 
L 300.988072 151.998584 
L 307.100612 151.998584 
L 307.100612 151.471897 
L 338.688 151.471897 
L 338.688 151.471897 
" style="fill:none;stroke:#000080;stroke-linecap:square;stroke-width:1.5;"/>
   </g>
   <g id="line2d_36">
    <defs>
     <path d="M 0 6 
C 1.591219 6 3.117479 5.367802 4.242641 4.242641 
C 5.367802 3.117479 6 1.591219 6 0 
C 6 -1.591219 5.367802 -3.117479 4.242641 -4.242641 
C 3.117479 -5.367802 1.591219 -6 0 -6 
C -1.591219 -6 -3.117479 -5.367802 -4.242641 -4.242641 
C -5.367802 -3.117479 -6 -1.591219 -6 0 
C -6 1.591219 -5.367802 3.117479 -4.242641 4.242641 
C -3.117479 5.367802 -1.591219 6 0 6 
z
" id="m8001bbbdce" style="stroke:#000080;stroke-width:1.5;"/>
    </defs>
    <g>
     <use style="fill-opacity:0;stroke:#000080;stroke-width:1.5;" x="214.124862" xlink:href="#m8001bbbdce" y="243.115275"/>
     <use style="fill-opacity:0;stroke:#000080;stroke-width:1.5;" x="271.141257" xlink:href="#m8001bbbdce" y="175.699457"/>
     <use style="fill-opacity:0;stroke:#000080;stroke-width:1.5;" x="307.100612" xlink:href="#m8001bbbdce" y="151.471897"/>
     <use style="fill-opacity:0;stroke:#000080;stroke-width:1.5;" x="338.688" xlink:href="#m8001bbbdce" y="151.471897"/>
    </g>
   </g>
   <g id="line2d_37">
    <path style="fill:none;stroke:#000080;stroke-linecap:square;stroke-width:1.5;"/>
    <g/>
   </g>
   <g id="line2d_38">
    <path clip-path="url(#p1712903c6f)" d="M 227.130146 242.588589 
" style="fill:none;stroke:#000080;stroke-linecap:square;stroke-width:1.5;"/>
    <defs>
     <path d="M -12 12 
L 12 -12 
M -12 -12 
L 12 12 
" id="m84d9ba2535" style="stroke:#000080;"/>
    </defs>
    <g clip-path="url(#p1712903c6f)">
     <use style="fill:#000080;stroke:#000080;" x="227.130146" xlink:href="#m84d9ba2535" y="242.588589"/>
    </g>
   </g>
   <g id="line2d_39">
    <defs>
     <path d="M 0 1.5 
C 0.397805 1.5 0.77937 1.341951 1.06066 1.06066 
C 1.341951 0.77937 1.5 0.397805 1.5 0 
C 1.5 -0.397805 1.341951 -0.77937 1.06066 -1.06066 
C 0.77937 -1.341951 0.397805 -1.5 0 -1.5 
C -0.397805 -1.5 -0.77937 -1.341951 -1.06066 -1.06066 
C -1.341951 -0.77937 -1.5 -0.397805 -1.5 0 
C -1.5 0.397805 -1.341951 0.77937 -1.06066 1.06066 
C -0.77937 1.341951 -0.397805 1.5 0 1.5 
z
" id="m7d3f8036ca" style="stroke:#ff00ff;"/>
    </defs>
    <g>
     <use style="fill:#ff00ff;stroke:#ff00ff;" x="291.992529" xlink:href="#m7d3f8036ca" y="188.339923"/>
     <use style="fill:#ff00ff;stroke:#ff00ff;" x="291.992529" xlink:href="#m7d3f8036ca" y="188.339923"/>
    </g>
   </g>
   <g id="line2d_40">
    <path d="M 145.174578 298.944 
L 145.174578 297.363942 
L 177.354379 297.363942 
L 177.354379 296.837256 
L 178.066286 296.837256 
L 178.066286 295.783884 
L 178.325932 295.783884 
L 178.325932 295.257197 
L 178.468527 295.257197 
L 178.468527 294.203825 
L 178.8617 294.203825 
L 178.8617 293.677139 
L 179.627729 293.677139 
L 179.627729 292.097081 
L 179.823292 292.097081 
L 179.823292 291.570395 
L 181.567424 291.570395 
L 181.567424 289.463651 
L 181.737795 289.463651 
L 181.737795 288.936964 
L 182.027367 288.936964 
L 182.092094 286.303534 
L 182.47549 286.303534 
L 182.525079 285.250162 
L 188.329776 285.250162 
L 188.336229 283.143418 
L 188.671702 283.143418 
L 188.671702 282.616732 
L 189.087576 282.616732 
L 189.087576 281.563359 
L 190.793482 281.563359 
L 190.815883 280.509987 
L 191.654485 280.509987 
L 191.654485 279.983301 
L 191.987325 279.983301 
L 191.987325 279.456615 
L 192.704987 279.456615 
L 192.704987 277.876557 
L 194.15006 277.876557 
L 194.15006 277.349871 
L 195.070677 277.349871 
L 195.070677 276.823185 
L 195.240861 276.823185 
L 195.240861 276.296499 
L 195.661311 276.296499 
L 195.661311 275.243126 
L 196.02626 275.243126 
L 196.02626 274.71644 
L 196.175067 274.71644 
L 196.214125 273.663068 
L 196.338933 273.663068 
L 196.338933 273.136382 
L 196.595948 273.136382 
L 196.595948 272.609696 
L 196.84527 272.609696 
L 196.94204 268.396207 
L 197.767096 268.396207 
L 197.767096 267.342835 
L 199.622156 267.342835 
L 199.622156 266.816149 
L 199.811962 266.816149 
L 199.885313 265.236091 
L 199.945099 265.236091 
L 199.945099 264.182719 
L 200.454837 264.182719 
L 200.454837 262.60266 
L 200.899943 262.60266 
L 200.899943 262.075974 
L 201.029732 262.075974 
L 201.029732 261.549288 
L 201.460581 261.549288 
L 201.460581 261.022602 
L 201.994914 261.022602 
L 201.994914 258.915858 
L 203.373217 258.915858 
L 203.373217 258.389172 
L 204.398069 258.389172 
L 204.398069 257.862486 
L 204.534949 257.862486 
L 204.585844 256.282427 
L 204.838116 256.282427 
L 204.838116 255.755741 
L 212.058766 255.755741 
L 212.058766 255.229055 
L 218.071088 255.229055 
L 218.071088 254.702369 
L 228.364416 254.702369 
L 228.400773 253.122311 
L 228.78531 253.122311 
L 228.78531 252.595625 
L 228.995299 252.595625 
L 228.995299 251.542253 
L 229.838939 251.542253 
L 229.838939 251.015567 
L 229.959162 251.015567 
L 230.06029 247.85545 
L 230.100342 247.85545 
L 230.100342 247.328764 
L 230.449527 247.328764 
L 230.449527 246.802078 
L 230.629667 246.802078 
L 230.73295 245.748706 
L 230.833933 245.748706 
L 230.833933 244.168648 
L 231.415032 244.168648 
L 231.415032 243.641962 
L 235.270339 243.641962 
L 235.270339 243.115275 
L 240.065345 243.115275 
L 240.065345 242.588589 
L 240.669899 242.588589 
L 240.76639 239.428473 
L 241.168171 239.428473 
L 241.168171 236.795043 
L 241.438651 236.795043 
L 241.491849 234.688298 
L 243.758934 234.688298 
L 243.758934 234.161612 
L 246.933293 234.161612 
L 246.933293 233.634926 
L 247.284031 233.634926 
L 247.336444 231.001496 
L 247.535335 231.001496 
L 247.613097 228.368065 
L 247.811859 228.368065 
L 247.81612 227.314693 
L 252.249007 227.314693 
L 252.308383 224.681263 
L 252.460434 224.681263 
L 252.48001 223.627891 
L 253.723897 223.627891 
L 253.723897 223.101204 
L 255.833476 223.101204 
L 255.833476 221.521146 
L 256.003949 221.521146 
L 256.003949 218.887716 
L 256.127066 218.887716 
L 256.127066 216.780971 
L 259.051675 216.780971 
L 259.051675 216.254285 
L 260.025644 216.254285 
L 260.025644 215.200913 
L 261.498763 215.200913 
L 261.52198 214.147541 
L 261.610436 214.147541 
L 261.645173 212.567483 
L 261.729219 212.567483 
L 261.736269 210.987425 
L 263.902441 210.987425 
L 263.982502 208.353994 
L 264.644865 208.353994 
L 264.644865 207.300622 
L 265.900737 207.300622 
L 265.900737 206.24725 
L 269.318872 206.24725 
L 269.377594 204.140506 
L 270.729016 204.140506 
L 270.729016 203.613819 
L 272.156604 203.613819 
L 272.224397 200.980389 
L 273.428046 200.980389 
L 273.491081 198.873645 
L 275.683317 198.873645 
L 275.778776 196.7669 
L 276.728795 196.7669 
L 276.78041 195.713528 
L 277.799349 195.713528 
L 277.799349 195.186842 
L 278.728488 195.186842 
L 278.728488 194.660156 
L 281.989406 194.660156 
L 281.989406 194.13347 
L 282.256202 194.13347 
L 282.256202 193.606784 
L 283.419355 193.606784 
L 283.419355 193.080098 
L 284.759338 193.080098 
L 284.759338 192.026726 
L 285.995079 192.026726 
L 285.995079 191.50004 
L 286.581593 191.50004 
L 286.581593 190.446667 
L 287.719058 190.446667 
L 287.719058 189.919981 
L 288.418275 189.919981 
L 288.418275 189.393295 
L 290.21313 189.393295 
L 290.21313 188.866609 
L 291.992529 188.866609 
L 291.992529 188.339923 
L 338.688 188.339923 
L 338.688 188.339923 
" style="fill:none;stroke:#ff00ff;stroke-linecap:square;stroke-width:1.5;"/>
   </g>
   <g id="line2d_41">
    <defs>
     <path d="M 0 8.485281 
L 5.091169 0 
L 0 -8.485281 
L -5.091169 0 
z
" id="m2913cbb769" style="stroke:#ff00ff;stroke-linejoin:miter;stroke-width:1.5;"/>
    </defs>
    <g>
     <use style="fill-opacity:0;stroke:#ff00ff;stroke-linejoin:miter;stroke-width:1.5;" x="195.240861" xlink:href="#m2913cbb769" y="276.296499"/>
     <use style="fill-opacity:0;stroke:#ff00ff;stroke-linejoin:miter;stroke-width:1.5;" x="235.270339" xlink:href="#m2913cbb769" y="243.641962"/>
     <use style="fill-opacity:0;stroke:#ff00ff;stroke-linejoin:miter;stroke-width:1.5;" x="276.728795" xlink:href="#m2913cbb769" y="196.240214"/>
     <use style="fill-opacity:0;stroke:#ff00ff;stroke-linejoin:miter;stroke-width:1.5;" x="291.992529" xlink:href="#m2913cbb769" y="188.339923"/>
     <use style="fill-opacity:0;stroke:#ff00ff;stroke-linejoin:miter;stroke-width:1.5;" x="338.688" xlink:href="#m2913cbb769" y="188.339923"/>
    </g>
   </g>
   <g id="line2d_42">
    <path style="fill:none;stroke:#ff00ff;stroke-linecap:square;stroke-width:1.5;"/>
    <g/>
   </g>
   <g id="line2d_43">
    <path clip-path="url(#p1712903c6f)" d="M 227.130146 254.702369 
" style="fill:none;stroke:#ff00ff;stroke-linecap:square;stroke-width:1.5;"/>
    <defs>
     <path d="M -12 12 
L 12 -12 
M -12 -12 
L 12 12 
" id="me342c994a9" style="stroke:#ff00ff;"/>
    </defs>
    <g clip-path="url(#p1712903c6f)">
     <use style="fill:#ff00ff;stroke:#ff00ff;" x="227.130146" xlink:href="#me342c994a9" y="254.702369"/>
    </g>
   </g>
   <g id="line2d_44">
    <defs>
     <path d="M 0 1.5 
C 0.397805 1.5 0.77937 1.341951 1.06066 1.06066 
C 1.341951 0.77937 1.5 0.397805 1.5 0 
C 1.5 -0.397805 1.341951 -0.77937 1.06066 -1.06066 
C 0.77937 -1.341951 0.397805 -1.5 0 -1.5 
C -0.397805 -1.5 -0.77937 -1.341951 -1.06066 -1.06066 
C -1.341951 -0.77937 -1.5 -0.397805 -1.5 0 
C -1.5 0.397805 -1.341951 0.77937 -1.06066 1.06066 
C -0.77937 1.341951 -0.397805 1.5 0 1.5 
z
" id="m126555c2e8" style="stroke:#ff7500;"/>
    </defs>
    <g>
     <use style="fill:#ff7500;stroke:#ff7500;" x="282.295228" xlink:href="#m126555c2e8" y="193.606784"/>
     <use style="fill:#ff7500;stroke:#ff7500;" x="282.295228" xlink:href="#m126555c2e8" y="193.606784"/>
    </g>
   </g>
   <g id="line2d_45">
    <path d="M 186.922321 298.944 
L 186.922321 298.417314 
L 187.316641 298.417314 
L 187.316641 297.890628 
L 190.06978 297.890628 
L 190.06978 297.363942 
L 192.228982 297.363942 
L 192.228982 296.31057 
L 194.67149 296.31057 
L 194.67149 295.783884 
L 196.42435 295.783884 
L 196.42435 295.257197 
L 196.587911 295.257197 
L 196.587911 294.730511 
L 197.34502 294.730511 
L 197.362331 292.097081 
L 197.948358 292.097081 
L 197.948358 291.570395 
L 198.998061 291.570395 
L 199.00856 289.990337 
L 199.931831 289.990337 
L 200.006334 288.410278 
L 200.28007 288.410278 
L 200.28007 287.883592 
L 201.172474 287.883592 
L 201.172474 284.723476 
L 201.425588 284.723476 
L 201.425588 284.19679 
L 201.639013 284.19679 
L 201.639013 283.670104 
L 202.976477 283.670104 
L 203.011276 281.563359 
L 203.138743 281.563359 
L 203.138743 281.036673 
L 203.523749 281.036673 
L 203.523749 279.456615 
L 203.876637 279.456615 
L 203.941357 278.403243 
L 204.113213 278.403243 
L 204.113213 277.876557 
L 204.552779 277.876557 
L 204.552779 276.296499 
L 204.776646 276.296499 
L 204.776646 275.243126 
L 205.547317 275.243126 
L 205.547317 274.71644 
L 205.89846 274.71644 
L 205.99365 273.136382 
L 206.110458 273.136382 
L 206.189442 272.08301 
L 206.285368 272.08301 
L 206.285368 271.556324 
L 206.553001 271.556324 
L 206.585885 269.449579 
L 206.69993 269.449579 
L 206.69993 268.922893 
L 207.049797 268.922893 
L 207.049797 268.396207 
L 207.52854 268.396207 
L 207.52854 267.869521 
L 207.723847 267.869521 
L 207.723847 267.342835 
L 208.051869 267.342835 
L 208.160887 265.236091 
L 208.263056 265.236091 
L 208.320584 263.656033 
L 208.794078 263.656033 
L 208.811038 261.022602 
L 208.975785 261.022602 
L 208.975785 259.96923 
L 209.328777 259.96923 
L 209.36359 257.862486 
L 210.070704 257.862486 
L 210.10592 256.809114 
L 210.22678 256.809114 
L 210.22678 256.282427 
L 210.70917 256.282427 
L 210.70917 255.755741 
L 210.895089 255.755741 
L 210.895089 255.229055 
L 211.076419 255.229055 
L 211.076419 254.702369 
L 211.206411 254.702369 
L 211.295708 252.068939 
L 211.393151 252.068939 
L 211.393151 251.542253 
L 211.598321 251.542253 
L 211.598321 251.015567 
L 211.743047 251.015567 
L 211.743047 250.488881 
L 211.872364 250.488881 
L 211.95416 247.85545 
L 212.487187 247.85545 
L 212.487187 247.328764 
L 212.747713 247.328764 
L 212.841349 245.22202 
L 213.165172 245.22202 
L 213.165172 244.695334 
L 213.746548 244.695334 
L 213.746548 244.168648 
L 214.146171 244.168648 
L 214.146171 243.641962 
L 214.486503 243.641962 
L 214.486503 243.115275 
L 215.426439 243.115275 
L 215.426439 242.588589 
L 215.577271 242.588589 
L 215.577271 241.535217 
L 216.300782 241.535217 
L 216.300782 240.481845 
L 216.418502 240.481845 
L 216.418502 239.955159 
L 216.944253 239.955159 
L 216.944253 239.428473 
L 217.221014 239.428473 
L 217.221014 238.375101 
L 219.048757 238.375101 
L 219.048757 237.848415 
L 219.555784 237.848415 
L 219.555784 237.321729 
L 220.850597 237.321729 
L 220.850597 236.795043 
L 222.600646 236.795043 
L 222.600646 236.268356 
L 225.488885 236.268356 
L 225.488885 235.74167 
L 231.137023 235.74167 
L 231.137023 235.214984 
L 231.673365 235.214984 
L 231.673365 234.688298 
L 232.276988 234.688298 
L 232.360912 233.10824 
L 232.976791 233.10824 
L 233.067598 231.001496 
L 233.169286 231.001496 
L 233.231343 228.894751 
L 233.3904 228.894751 
L 233.497977 224.681263 
L 233.779901 224.681263 
L 233.782521 223.627891 
L 234.325124 223.627891 
L 234.330203 222.047832 
L 234.640859 222.047832 
L 234.640859 221.521146 
L 235.838981 221.521146 
L 235.838981 220.99446 
L 236.359489 220.99446 
L 236.359489 220.467774 
L 238.416805 220.467774 
L 238.416805 219.941088 
L 241.082974 219.941088 
L 241.082974 219.414402 
L 241.27854 219.414402 
L 241.27854 218.887716 
L 241.917967 218.887716 
L 241.917967 218.36103 
L 242.053525 218.36103 
L 242.112271 217.307658 
L 242.627675 217.307658 
L 242.73762 216.254285 
L 243.374741 216.254285 
L 243.393694 214.674227 
L 243.567692 214.674227 
L 243.567692 214.147541 
L 245.778332 214.147541 
L 245.778332 213.094169 
L 247.992889 213.094169 
L 247.992889 212.567483 
L 248.270922 212.567483 
L 248.270922 212.040797 
L 248.558378 212.040797 
L 248.558378 211.514111 
L 248.798134 211.514111 
L 248.832634 210.460738 
L 249.03285 210.460738 
L 249.054889 209.407366 
L 249.180828 209.407366 
L 249.180828 208.88068 
L 249.305865 208.88068 
L 249.305865 208.353994 
L 253.128914 208.353994 
L 253.128914 207.827308 
L 253.262863 207.827308 
L 253.262863 207.300622 
L 253.403293 207.300622 
L 253.507974 206.24725 
L 253.616155 206.24725 
L 253.616155 204.667192 
L 253.923377 204.667192 
L 253.923377 204.140506 
L 256.980747 204.140506 
L 256.989436 203.087133 
L 259.475378 203.087133 
L 259.553964 201.507075 
L 259.801714 201.507075 
L 259.801714 200.980389 
L 262.149567 200.980389 
L 262.149567 200.453703 
L 262.36382 200.453703 
L 262.36382 199.400331 
L 262.608706 199.400331 
L 262.608706 198.873645 
L 266.512779 198.873645 
L 266.512779 198.346959 
L 271.269624 198.346959 
L 271.269624 197.820273 
L 272.442436 197.820273 
L 272.442436 197.293586 
L 272.604928 197.293586 
L 272.604928 196.7669 
L 276.059169 196.7669 
L 276.154696 194.660156 
L 278.152648 194.660156 
L 278.152648 194.13347 
L 282.295228 194.13347 
L 282.295228 193.606784 
L 338.688 193.606784 
L 338.688 193.606784 
" style="fill:none;stroke:#ff7500;stroke-linecap:square;stroke-width:1.5;"/>
   </g>
   <g id="line2d_46">
    <defs>
     <path d="M 0 -6 
L -1.347084 -1.854102 
L -5.706339 -1.854102 
L -2.179628 0.708204 
L -3.526712 4.854102 
L -0 2.291796 
L 3.526712 4.854102 
L 2.179628 0.708204 
L 5.706339 -1.854102 
L 1.347084 -1.854102 
z
" id="m5eddc735d3" style="stroke:#ff7500;stroke-linejoin:bevel;stroke-width:1.5;"/>
    </defs>
    <g>
     <use style="fill-opacity:0;stroke:#ff7500;stroke-linejoin:bevel;stroke-width:1.5;" x="222.600646" xlink:href="#m5eddc735d3" y="236.795043"/>
     <use style="fill-opacity:0;stroke:#ff7500;stroke-linejoin:bevel;stroke-width:1.5;" x="282.295228" xlink:href="#m5eddc735d3" y="194.13347"/>
     <use style="fill-opacity:0;stroke:#ff7500;stroke-linejoin:bevel;stroke-width:1.5;" x="282.295228" xlink:href="#m5eddc735d3" y="193.606784"/>
     <use style="fill-opacity:0;stroke:#ff7500;stroke-linejoin:bevel;stroke-width:1.5;" x="338.688" xlink:href="#m5eddc735d3" y="193.606784"/>
    </g>
   </g>
   <g id="line2d_47">
    <path style="fill:none;stroke:#ff7500;stroke-linecap:square;stroke-width:1.5;"/>
    <g/>
   </g>
   <g id="line2d_48">
    <path clip-path="url(#p1712903c6f)" d="M 227.130146 235.74167 
" style="fill:none;stroke:#ff7500;stroke-linecap:square;stroke-width:1.5;"/>
    <defs>
     <path d="M -12 12 
L 12 -12 
M -12 -12 
L 12 12 
" id="ma53fe0b0ae" style="stroke:#ff7500;"/>
    </defs>
    <g clip-path="url(#p1712903c6f)">
     <use style="fill:#ff7500;stroke:#ff7500;" x="227.130146" xlink:href="#ma53fe0b0ae" y="235.74167"/>
    </g>
   </g>
   <g id="line2d_49">
    <path d="M 338.688 193.606784 
L 369.60768 293.571802 
" style="fill:none;stroke:#ff7500;stroke-linecap:square;stroke-width:1.5;"/>
    <g>
     <use style="fill-opacity:0;stroke:#ff7500;stroke-linejoin:bevel;stroke-width:1.5;" x="338.688" xlink:href="#m5eddc735d3" y="193.606784"/>
     <use style="fill-opacity:0;stroke:#ff7500;stroke-linejoin:bevel;stroke-width:1.5;" x="369.60768" xlink:href="#m5eddc735d3" y="293.571802"/>
    </g>
   </g>
   <g id="line2d_50">
    <path d="M 338.688 188.339923 
L 369.60768 207.616634 
" style="fill:none;stroke:#ff00ff;stroke-linecap:square;stroke-width:1.5;"/>
    <g>
     <use style="fill-opacity:0;stroke:#ff00ff;stroke-linejoin:miter;stroke-width:1.5;" x="338.688" xlink:href="#m2913cbb769" y="188.339923"/>
     <use style="fill-opacity:0;stroke:#ff00ff;stroke-linejoin:miter;stroke-width:1.5;" x="369.60768" xlink:href="#m2913cbb769" y="207.616634"/>
    </g>
   </g>
   <g id="line2d_51">
    <path d="M 338.688 151.471897 
L 369.60768 121.661465 
" style="fill:none;stroke:#000080;stroke-linecap:square;stroke-width:1.5;"/>
    <g>
     <use style="fill-opacity:0;stroke:#000080;stroke-width:1.5;" x="338.688" xlink:href="#m8001bbbdce" y="151.471897"/>
     <use style="fill-opacity:0;stroke:#000080;stroke-width:1.5;" x="369.60768" xlink:href="#m8001bbbdce" y="121.661465"/>
    </g>
   </g>
   <g id="line2d_52">
    <path d="M 338.688 298.944 
L 338.688 30.334099 
" style="fill:none;stroke:#000000;stroke-linecap:square;stroke-width:1.5;"/>
   </g>
   <g id="patch_3">
    <path d="M 57.6 298.944 
L 57.6 27.648 
" style="fill:none;stroke:#000000;stroke-linecap:square;stroke-linejoin:miter;stroke-width:0.8;"/>
   </g>
   <g id="patch_4">
    <path d="M 338.688 298.944 
L 338.688 27.648 
" style="fill:none;stroke:#000000;stroke-linecap:square;stroke-linejoin:miter;stroke-width:0.8;"/>
   </g>
   <g id="patch_5">
    <path d="M 57.6 298.944 
L 338.688 298.944 
" style="fill:none;stroke:#000000;stroke-linecap:square;stroke-linejoin:miter;stroke-width:0.8;"/>
   </g>
   <g id="patch_6">
    <path d="M 57.6 27.648 
L 338.688 27.648 
" style="fill:none;stroke:#000000;stroke-linecap:square;stroke-linejoin:miter;stroke-width:0.8;"/>
   </g>
   <g id="text_13">
    <!-- PSO EDA -->
    <g transform="translate(375.22944 298.262739)scale(0.17 -0.17)">
     <defs>
      <path d="M 1259 4147 
L 1259 2394 
L 2053 2394 
Q 2494 2394 2734 2622 
Q 2975 2850 2975 3272 
Q 2975 3691 2734 3919 
Q 2494 4147 2053 4147 
L 1259 4147 
z
M 628 4666 
L 2053 4666 
Q 2838 4666 3239 4311 
Q 3641 3956 3641 3272 
Q 3641 2581 3239 2228 
Q 2838 1875 2053 1875 
L 1259 1875 
L 1259 0 
L 628 0 
L 628 4666 
z
" id="DejaVuSans-50" transform="scale(0.015625)"/>
      <path d="M 3425 4513 
L 3425 3897 
Q 3066 4069 2747 4153 
Q 2428 4238 2131 4238 
Q 1616 4238 1336 4038 
Q 1056 3838 1056 3469 
Q 1056 3159 1242 3001 
Q 1428 2844 1947 2747 
L 2328 2669 
Q 3034 2534 3370 2195 
Q 3706 1856 3706 1288 
Q 3706 609 3251 259 
Q 2797 -91 1919 -91 
Q 1588 -91 1214 -16 
Q 841 59 441 206 
L 441 856 
Q 825 641 1194 531 
Q 1563 422 1919 422 
Q 2459 422 2753 634 
Q 3047 847 3047 1241 
Q 3047 1584 2836 1778 
Q 2625 1972 2144 2069 
L 1759 2144 
Q 1053 2284 737 2584 
Q 422 2884 422 3419 
Q 422 4038 858 4394 
Q 1294 4750 2059 4750 
Q 2388 4750 2728 4690 
Q 3069 4631 3425 4513 
z
" id="DejaVuSans-53" transform="scale(0.015625)"/>
      <path d="M 2522 4238 
Q 1834 4238 1429 3725 
Q 1025 3213 1025 2328 
Q 1025 1447 1429 934 
Q 1834 422 2522 422 
Q 3209 422 3611 934 
Q 4013 1447 4013 2328 
Q 4013 3213 3611 3725 
Q 3209 4238 2522 4238 
z
M 2522 4750 
Q 3503 4750 4090 4092 
Q 4678 3434 4678 2328 
Q 4678 1225 4090 567 
Q 3503 -91 2522 -91 
Q 1538 -91 948 565 
Q 359 1222 359 2328 
Q 359 3434 948 4092 
Q 1538 4750 2522 4750 
z
" id="DejaVuSans-4f" transform="scale(0.015625)"/>
      <path d="M 628 4666 
L 3578 4666 
L 3578 4134 
L 1259 4134 
L 1259 2753 
L 3481 2753 
L 3481 2222 
L 1259 2222 
L 1259 531 
L 3634 531 
L 3634 0 
L 628 0 
L 628 4666 
z
" id="DejaVuSans-45" transform="scale(0.015625)"/>
      <path d="M 1259 4147 
L 1259 519 
L 2022 519 
Q 2988 519 3436 956 
Q 3884 1394 3884 2338 
Q 3884 3275 3436 3711 
Q 2988 4147 2022 4147 
L 1259 4147 
z
M 628 4666 
L 1925 4666 
Q 3281 4666 3915 4102 
Q 4550 3538 4550 2338 
Q 4550 1131 3912 565 
Q 3275 0 1925 0 
L 628 0 
L 628 4666 
z
" id="DejaVuSans-44" transform="scale(0.015625)"/>
      <path d="M 2188 4044 
L 1331 1722 
L 3047 1722 
L 2188 4044 
z
M 1831 4666 
L 2547 4666 
L 4325 0 
L 3669 0 
L 3244 1197 
L 1141 1197 
L 716 0 
L 50 0 
L 1831 4666 
z
" id="DejaVuSans-41" transform="scale(0.015625)"/>
     </defs>
     <use xlink:href="#DejaVuSans-50"/>
     <use x="60.302734" xlink:href="#DejaVuSans-53"/>
     <use x="123.779297" xlink:href="#DejaVuSans-4f"/>
     <use x="202.490234" xlink:href="#DejaVuSans-20"/>
     <use x="234.277344" xlink:href="#DejaVuSans-45"/>
     <use x="297.460938" xlink:href="#DejaVuSans-44"/>
     <use x="372.712891" xlink:href="#DejaVuSans-41"/>
    </g>
   </g>
   <g id="text_14">
    <!-- PSO Bound -->
    <g transform="translate(375.22944 212.307571)scale(0.17 -0.17)">
     <defs>
      <path d="M 1259 2228 
L 1259 519 
L 2272 519 
Q 2781 519 3026 730 
Q 3272 941 3272 1375 
Q 3272 1813 3026 2020 
Q 2781 2228 2272 2228 
L 1259 2228 
z
M 1259 4147 
L 1259 2741 
L 2194 2741 
Q 2656 2741 2882 2914 
Q 3109 3088 3109 3444 
Q 3109 3797 2882 3972 
Q 2656 4147 2194 4147 
L 1259 4147 
z
M 628 4666 
L 2241 4666 
Q 2963 4666 3353 4366 
Q 3744 4066 3744 3513 
Q 3744 3084 3544 2831 
Q 3344 2578 2956 2516 
Q 3422 2416 3680 2098 
Q 3938 1781 3938 1306 
Q 3938 681 3513 340 
Q 3088 0 2303 0 
L 628 0 
L 628 4666 
z
" id="DejaVuSans-42" transform="scale(0.015625)"/>
     </defs>
     <use xlink:href="#DejaVuSans-50"/>
     <use x="60.302734" xlink:href="#DejaVuSans-53"/>
     <use x="123.779297" xlink:href="#DejaVuSans-4f"/>
     <use x="202.490234" xlink:href="#DejaVuSans-20"/>
     <use x="234.277344" xlink:href="#DejaVuSans-42"/>
     <use x="302.880859" xlink:href="#DejaVuSans-6f"/>
     <use x="364.0625" xlink:href="#DejaVuSans-75"/>
     <use x="427.441406" xlink:href="#DejaVuSans-6e"/>
     <use x="490.820312" xlink:href="#DejaVuSans-64"/>
    </g>
   </g>
   <g id="text_15">
    <!-- PSO -->
    <g transform="translate(375.22944 126.352403)scale(0.17 -0.17)">
     <use xlink:href="#DejaVuSans-50"/>
     <use x="60.302734" xlink:href="#DejaVuSans-53"/>
     <use x="123.779297" xlink:href="#DejaVuSans-4f"/>
    </g>
   </g>
   <g id="text_16">
    <!-- best 2009 -->
    <g transform="translate(375.22944 40.397235)scale(0.17 -0.17)">
     <defs>
      <path d="M 3116 1747 
Q 3116 2381 2855 2742 
Q 2594 3103 2138 3103 
Q 1681 3103 1420 2742 
Q 1159 2381 1159 1747 
Q 1159 1113 1420 752 
Q 1681 391 2138 391 
Q 2594 391 2855 752 
Q 3116 1113 3116 1747 
z
M 1159 2969 
Q 1341 3281 1617 3432 
Q 1894 3584 2278 3584 
Q 2916 3584 3314 3078 
Q 3713 2572 3713 1747 
Q 3713 922 3314 415 
Q 2916 -91 2278 -91 
Q 1894 -91 1617 61 
Q 1341 213 1159 525 
L 1159 0 
L 581 0 
L 581 4863 
L 1159 4863 
L 1159 2969 
z
" id="DejaVuSans-62" transform="scale(0.015625)"/>
      <path d="M 703 97 
L 703 672 
Q 941 559 1184 500 
Q 1428 441 1663 441 
Q 2288 441 2617 861 
Q 2947 1281 2994 2138 
Q 2813 1869 2534 1725 
Q 2256 1581 1919 1581 
Q 1219 1581 811 2004 
Q 403 2428 403 3163 
Q 403 3881 828 4315 
Q 1253 4750 1959 4750 
Q 2769 4750 3195 4129 
Q 3622 3509 3622 2328 
Q 3622 1225 3098 567 
Q 2575 -91 1691 -91 
Q 1453 -91 1209 -44 
Q 966 3 703 97 
z
M 1959 2075 
Q 2384 2075 2632 2365 
Q 2881 2656 2881 3163 
Q 2881 3666 2632 3958 
Q 2384 4250 1959 4250 
Q 1534 4250 1286 3958 
Q 1038 3666 1038 3163 
Q 1038 2656 1286 2365 
Q 1534 2075 1959 2075 
z
" id="DejaVuSans-39" transform="scale(0.015625)"/>
     </defs>
     <use xlink:href="#DejaVuSans-62"/>
     <use x="63.476562" xlink:href="#DejaVuSans-65"/>
     <use x="125" xlink:href="#DejaVuSans-73"/>
     <use x="177.099609" xlink:href="#DejaVuSans-74"/>
     <use x="216.308594" xlink:href="#DejaVuSans-20"/>
     <use x="248.095703" xlink:href="#DejaVuSans-32"/>
     <use x="311.71875" xlink:href="#DejaVuSans-30"/>
     <use x="375.341797" xlink:href="#DejaVuSans-30"/>
     <use x="438.964844" xlink:href="#DejaVuSans-39"/>
    </g>
   </g>
   <g id="text_17">
    <!-- bbob f12, 3-D -->
    <g transform="translate(60.41088 38.111366)scale(0.102 -0.102)">
     <defs>
      <path d="M 2597 2516 
Q 3050 2419 3304 2112 
Q 3559 1806 3559 1356 
Q 3559 666 3084 287 
Q 2609 -91 1734 -91 
Q 1441 -91 1130 -33 
Q 819 25 488 141 
L 488 750 
Q 750 597 1062 519 
Q 1375 441 1716 441 
Q 2309 441 2620 675 
Q 2931 909 2931 1356 
Q 2931 1769 2642 2001 
Q 2353 2234 1838 2234 
L 1294 2234 
L 1294 2753 
L 1863 2753 
Q 2328 2753 2575 2939 
Q 2822 3125 2822 3475 
Q 2822 3834 2567 4026 
Q 2313 4219 1838 4219 
Q 1578 4219 1281 4162 
Q 984 4106 628 3988 
L 628 4550 
Q 988 4650 1302 4700 
Q 1616 4750 1894 4750 
Q 2613 4750 3031 4423 
Q 3450 4097 3450 3541 
Q 3450 3153 3228 2886 
Q 3006 2619 2597 2516 
z
" id="DejaVuSans-33" transform="scale(0.015625)"/>
     </defs>
     <use xlink:href="#DejaVuSans-62"/>
     <use x="63.476562" xlink:href="#DejaVuSans-62"/>
     <use x="126.953125" xlink:href="#DejaVuSans-6f"/>
     <use x="188.134766" xlink:href="#DejaVuSans-62"/>
     <use x="251.611328" xlink:href="#DejaVuSans-20"/>
     <use x="283.398438" xlink:href="#DejaVuSans-66"/>
     <use x="318.603516" xlink:href="#DejaVuSans-31"/>
     <use x="382.226562" xlink:href="#DejaVuSans-32"/>
     <use x="445.849609" xlink:href="#DejaVuSans-2c"/>
     <use x="477.636719" xlink:href="#DejaVuSans-20"/>
     <use x="509.423828" xlink:href="#DejaVuSans-33"/>
     <use x="573.046875" xlink:href="#DejaVuSans-2d"/>
     <use x="609.130859" xlink:href="#DejaVuSans-44"/>
    </g>
    <!-- 51 targets: 100..1e-08 -->
    <g transform="translate(60.41088 49.533135)scale(0.102 -0.102)">
     <defs>
      <path d="M 691 4666 
L 3169 4666 
L 3169 4134 
L 1269 4134 
L 1269 2991 
Q 1406 3038 1543 3061 
Q 1681 3084 1819 3084 
Q 2600 3084 3056 2656 
Q 3513 2228 3513 1497 
Q 3513 744 3044 326 
Q 2575 -91 1722 -91 
Q 1428 -91 1123 -41 
Q 819 9 494 109 
L 494 744 
Q 775 591 1075 516 
Q 1375 441 1709 441 
Q 2250 441 2565 725 
Q 2881 1009 2881 1497 
Q 2881 1984 2565 2268 
Q 2250 2553 1709 2553 
Q 1456 2553 1204 2497 
Q 953 2441 691 2322 
L 691 4666 
z
" id="DejaVuSans-35" transform="scale(0.015625)"/>
      <path d="M 750 794 
L 1409 794 
L 1409 0 
L 750 0 
L 750 794 
z
M 750 3309 
L 1409 3309 
L 1409 2516 
L 750 2516 
L 750 3309 
z
" id="DejaVuSans-3a" transform="scale(0.015625)"/>
     </defs>
     <use xlink:href="#DejaVuSans-35"/>
     <use x="63.623047" xlink:href="#DejaVuSans-31"/>
     <use x="127.246094" xlink:href="#DejaVuSans-20"/>
     <use x="159.033203" xlink:href="#DejaVuSans-74"/>
     <use x="198.242188" xlink:href="#DejaVuSans-61"/>
     <use x="259.521484" xlink:href="#DejaVuSans-72"/>
     <use x="298.884766" xlink:href="#DejaVuSans-67"/>
     <use x="362.361328" xlink:href="#DejaVuSans-65"/>
     <use x="423.884766" xlink:href="#DejaVuSans-74"/>
     <use x="463.09375" xlink:href="#DejaVuSans-73"/>
     <use x="515.193359" xlink:href="#DejaVuSans-3a"/>
     <use x="548.884766" xlink:href="#DejaVuSans-20"/>
     <use x="580.671875" xlink:href="#DejaVuSans-31"/>
     <use x="644.294922" xlink:href="#DejaVuSans-30"/>
     <use x="707.917969" xlink:href="#DejaVuSans-30"/>
     <use x="771.541016" xlink:href="#DejaVuSans-2e"/>
     <use x="803.328125" xlink:href="#DejaVuSans-2e"/>
     <use x="835.115234" xlink:href="#DejaVuSans-31"/>
     <use x="898.738281" xlink:href="#DejaVuSans-65"/>
     <use x="960.261719" xlink:href="#DejaVuSans-2d"/>
     <use x="996.345703" xlink:href="#DejaVuSans-30"/>
     <use x="1059.96875" xlink:href="#DejaVuSans-38"/>
    </g>
    <!-- 15 instances -->
    <g transform="translate(60.41088 60.954904)scale(0.102 -0.102)">
     <use xlink:href="#DejaVuSans-31"/>
     <use x="63.623047" xlink:href="#DejaVuSans-35"/>
     <use x="127.246094" xlink:href="#DejaVuSans-20"/>
     <use x="159.033203" xlink:href="#DejaVuSans-69"/>
     <use x="186.816406" xlink:href="#DejaVuSans-6e"/>
     <use x="250.195312" xlink:href="#DejaVuSans-73"/>
     <use x="302.294922" xlink:href="#DejaVuSans-74"/>
     <use x="341.503906" xlink:href="#DejaVuSans-61"/>
     <use x="402.783203" xlink:href="#DejaVuSans-6e"/>
     <use x="466.162109" xlink:href="#DejaVuSans-63"/>
     <use x="521.142578" xlink:href="#DejaVuSans-65"/>
     <use x="582.666016" xlink:href="#DejaVuSans-73"/>
    </g>
   </g>
   <g id="text_18">
    <!-- v2.4 -->
    <g style="fill:#808080;" transform="translate(187.233062 294.151352)scale(0.1 -0.1)">
     <use xlink:href="#DejaVuSans-76"/>
     <use x="59.179688" xlink:href="#DejaVuSans-32"/>
     <use x="122.802734" xlink:href="#DejaVuSans-2e"/>
     <use x="154.589844" xlink:href="#DejaVuSans-34"/>
    </g>
   </g>
   <g id="text_19">
    <!-- 12 Bent cigar -->
    <g transform="translate(130.926812 21.648)scale(0.2 -0.2)">
     <use xlink:href="#DejaVuSans-31"/>
     <use x="63.623047" xlink:href="#DejaVuSans-32"/>
     <use x="127.246094" xlink:href="#DejaVuSans-20"/>
     <use x="159.033203" xlink:href="#DejaVuSans-42"/>
     <use x="227.636719" xlink:href="#DejaVuSans-65"/>
     <use x="289.160156" xlink:href="#DejaVuSans-6e"/>
     <use x="352.539062" xlink:href="#DejaVuSans-74"/>
     <use x="391.748047" xlink:href="#DejaVuSans-20"/>
     <use x="423.535156" xlink:href="#DejaVuSans-63"/>
     <use x="478.515625" xlink:href="#DejaVuSans-69"/>
     <use x="506.298828" xlink:href="#DejaVuSans-67"/>
     <use x="569.775391" xlink:href="#DejaVuSans-61"/>
     <use x="631.054688" xlink:href="#DejaVuSans-72"/>
    </g>
   </g>
  </g>
 </g>
 <defs>
  <clipPath id="p1712903c6f">
   <rect height="271.296" width="281.088" x="57.6" y="27.648"/>
  </clipPath>
 </defs>
</svg>
