<?xml version="1.0" encoding="utf-8" standalone="no"?>
<!DOCTYPE svg PUBLIC "-//W3C//DTD SVG 1.1//EN"
  "http://www.w3.org/Graphics/SVG/1.1/DTD/svg11.dtd">
<svg height="345.6pt" version="1.1" viewBox="0 0 460.8 345.6" width="460.8pt" xmlns="http://www.w3.org/2000/svg" xmlns:xlink="http://www.w3.org/1999/xlink">
 <metadata>
  <rdf:RDF xmlns:cc="http://creativecommons.org/ns#" xmlns:dc="http://purl.org/dc/elements/1.1/" xmlns:rdf="http://www.w3.org/1999/02/22-rdf-syntax-ns#">
   <cc:Work>
    <dc:type rdf:resource="http://purl.org/dc/dcmitype/StillImage"/>
    <dc:date>2021-04-26T18:31:37.678415</dc:date>
    <dc:format>image/svg+xml</dc:format>
    <dc:creator>
     <cc:Agent>
      <dc:title>Matplotlib v3.4.1, https://matplotlib.org/</dc:title>
     </cc:Agent>
    </dc:creator>
   </cc:Work>
  </rdf:RDF>
 </metadata>
 <defs>
  <style type="text/css">*{stroke-linecap:butt;stroke-linejoin:round;}</style>
 </defs>
 <g id="figure_1">
  <g id="patch_1">
   <path d="M 0 345.6 
L 460.8 345.6 
L 460.8 0 
L 0 0 
z
" style="fill:#ffffff;"/>
  </g>
  <g id="axes_1">
   <g id="patch_2">
    <path d="M 57.6 298.944 
L 338.688 298.944 
L 338.688 27.648 
L 57.6 27.648 
z
" style="fill:#ffffff;"/>
   </g>
   <g id="line2d_1">
    <path d="M 29.53256 298.944 
L 29.53256 283.143418 
L 57.6 283.143418 
L 57.6 277.876557 
L 65.796525 277.876557 
L 65.796525 272.609696 
L 71.35013 272.609696 
L 71.35013 267.342835 
L 72.867545 267.342835 
L 72.867545 30.334099 
L 338.688 30.334099 
" style="fill:none;stroke:#f5deb3;stroke-linecap:square;stroke-width:4;"/>
   </g>
   <g id="line2d_2">
    <defs>
     <path d="M 0 7.778175 
L 7.778175 0 
L 0 -7.778175 
L -7.778175 0 
z
" id="m16005b4dc7" style="stroke:#f5deb3;stroke-linejoin:miter;stroke-width:1.5;"/>
    </defs>
    <g>
     <use style="fill:#f5deb3;stroke:#f5deb3;stroke-linejoin:miter;stroke-width:1.5;" x="71.35013" xlink:href="#m16005b4dc7" y="267.342835"/>
     <use style="fill:#f5deb3;stroke:#f5deb3;stroke-linejoin:miter;stroke-width:1.5;" x="72.867545" xlink:href="#m16005b4dc7" y="267.342835"/>
     <use style="fill:#f5deb3;stroke:#f5deb3;stroke-linejoin:miter;stroke-width:1.5;" x="72.867545" xlink:href="#m16005b4dc7" y="267.342835"/>
     <use style="fill:#f5deb3;stroke:#f5deb3;stroke-linejoin:miter;stroke-width:1.5;" x="72.867545" xlink:href="#m16005b4dc7" y="30.334099"/>
     <use style="fill:#f5deb3;stroke:#f5deb3;stroke-linejoin:miter;stroke-width:1.5;" x="72.867545" xlink:href="#m16005b4dc7" y="30.334099"/>
     <use style="fill:#f5deb3;stroke:#f5deb3;stroke-linejoin:miter;stroke-width:1.5;" x="338.688" xlink:href="#m16005b4dc7" y="30.334099"/>
    </g>
   </g>
   <g id="line2d_3">
    <path style="fill:none;stroke:#f5deb3;stroke-linecap:square;stroke-width:4;"/>
    <g/>
   </g>
   <g id="line2d_4">
    <path d="M 338.688 30.334099 
L 369.60768 35.706297 
" style="fill:none;stroke:#f5deb3;stroke-linecap:square;stroke-width:4;"/>
    <g>
     <use style="fill:#f5deb3;stroke:#f5deb3;stroke-linejoin:miter;stroke-width:1.5;" x="338.688" xlink:href="#m16005b4dc7" y="30.334099"/>
     <use style="fill:#f5deb3;stroke:#f5deb3;stroke-linejoin:miter;stroke-width:1.5;" x="369.60768" xlink:href="#m16005b4dc7" y="35.706297"/>
    </g>
   </g>
   <g id="matplotlib.axis_1">
    <g id="xtick_1">
     <g id="line2d_5">
      <path clip-path="url(#p5ba30727ef)" d="M 57.6 298.944 
L 57.6 27.648 
" style="fill:none;stroke:#b0b0b0;stroke-linecap:square;stroke-width:0.8;"/>
     </g>
     <g id="line2d_6">
      <defs>
       <path d="M 0 0 
L 0 3.5 
" id="ma76dffbb4b" style="stroke:#000000;stroke-width:0.8;"/>
      </defs>
      <g>
       <use style="stroke:#000000;stroke-width:0.8;" x="57.6" xlink:href="#ma76dffbb4b" y="298.944"/>
      </g>
     </g>
     <g id="text_1">
      <!-- 0 -->
      <g transform="translate(51.2375 321.140875)scale(0.2 -0.2)">
       <defs>
        <path d="M 2034 4250 
Q 1547 4250 1301 3770 
Q 1056 3291 1056 2328 
Q 1056 1369 1301 889 
Q 1547 409 2034 409 
Q 2525 409 2770 889 
Q 3016 1369 3016 2328 
Q 3016 3291 2770 3770 
Q 2525 4250 2034 4250 
z
M 2034 4750 
Q 2819 4750 3233 4129 
Q 3647 3509 3647 2328 
Q 3647 1150 3233 529 
Q 2819 -91 2034 -91 
Q 1250 -91 836 529 
Q 422 1150 422 2328 
Q 422 3509 836 4129 
Q 1250 4750 2034 4750 
z
" id="DejaVuSans-30" transform="scale(0.015625)"/>
       </defs>
       <use xlink:href="#DejaVuSans-30"/>
      </g>
     </g>
    </g>
    <g id="xtick_2">
     <g id="line2d_7">
      <path clip-path="url(#p5ba30727ef)" d="M 137.910857 298.944 
L 137.910857 27.648 
" style="fill:none;stroke:#b0b0b0;stroke-linecap:square;stroke-width:0.8;"/>
     </g>
     <g id="line2d_8">
      <g>
       <use style="stroke:#000000;stroke-width:0.8;" x="137.910857" xlink:href="#ma76dffbb4b" y="298.944"/>
      </g>
     </g>
     <g id="text_2">
      <!-- 2 -->
      <g transform="translate(131.548357 321.140875)scale(0.2 -0.2)">
       <defs>
        <path d="M 1228 531 
L 3431 531 
L 3431 0 
L 469 0 
L 469 531 
Q 828 903 1448 1529 
Q 2069 2156 2228 2338 
Q 2531 2678 2651 2914 
Q 2772 3150 2772 3378 
Q 2772 3750 2511 3984 
Q 2250 4219 1831 4219 
Q 1534 4219 1204 4116 
Q 875 4013 500 3803 
L 500 4441 
Q 881 4594 1212 4672 
Q 1544 4750 1819 4750 
Q 2544 4750 2975 4387 
Q 3406 4025 3406 3419 
Q 3406 3131 3298 2873 
Q 3191 2616 2906 2266 
Q 2828 2175 2409 1742 
Q 1991 1309 1228 531 
z
" id="DejaVuSans-32" transform="scale(0.015625)"/>
       </defs>
       <use xlink:href="#DejaVuSans-32"/>
      </g>
     </g>
    </g>
    <g id="xtick_3">
     <g id="line2d_9">
      <path clip-path="url(#p5ba30727ef)" d="M 218.221714 298.944 
L 218.221714 27.648 
" style="fill:none;stroke:#b0b0b0;stroke-linecap:square;stroke-width:0.8;"/>
     </g>
     <g id="line2d_10">
      <g>
       <use style="stroke:#000000;stroke-width:0.8;" x="218.221714" xlink:href="#ma76dffbb4b" y="298.944"/>
      </g>
     </g>
     <g id="text_3">
      <!-- 4 -->
      <g transform="translate(211.859214 321.140875)scale(0.2 -0.2)">
       <defs>
        <path d="M 2419 4116 
L 825 1625 
L 2419 1625 
L 2419 4116 
z
M 2253 4666 
L 3047 4666 
L 3047 1625 
L 3713 1625 
L 3713 1100 
L 3047 1100 
L 3047 0 
L 2419 0 
L 2419 1100 
L 313 1100 
L 313 1709 
L 2253 4666 
z
" id="DejaVuSans-34" transform="scale(0.015625)"/>
       </defs>
       <use xlink:href="#DejaVuSans-34"/>
      </g>
     </g>
    </g>
    <g id="xtick_4">
     <g id="line2d_11">
      <path clip-path="url(#p5ba30727ef)" d="M 298.532571 298.944 
L 298.532571 27.648 
" style="fill:none;stroke:#b0b0b0;stroke-linecap:square;stroke-width:0.8;"/>
     </g>
     <g id="line2d_12">
      <g>
       <use style="stroke:#000000;stroke-width:0.8;" x="298.532571" xlink:href="#ma76dffbb4b" y="298.944"/>
      </g>
     </g>
     <g id="text_4">
      <!-- 6 -->
      <g transform="translate(292.170071 321.140875)scale(0.2 -0.2)">
       <defs>
        <path d="M 2113 2584 
Q 1688 2584 1439 2293 
Q 1191 2003 1191 1497 
Q 1191 994 1439 701 
Q 1688 409 2113 409 
Q 2538 409 2786 701 
Q 3034 994 3034 1497 
Q 3034 2003 2786 2293 
Q 2538 2584 2113 2584 
z
M 3366 4563 
L 3366 3988 
Q 3128 4100 2886 4159 
Q 2644 4219 2406 4219 
Q 1781 4219 1451 3797 
Q 1122 3375 1075 2522 
Q 1259 2794 1537 2939 
Q 1816 3084 2150 3084 
Q 2853 3084 3261 2657 
Q 3669 2231 3669 1497 
Q 3669 778 3244 343 
Q 2819 -91 2113 -91 
Q 1303 -91 875 529 
Q 447 1150 447 2328 
Q 447 3434 972 4092 
Q 1497 4750 2381 4750 
Q 2619 4750 2861 4703 
Q 3103 4656 3366 4563 
z
" id="DejaVuSans-36" transform="scale(0.015625)"/>
       </defs>
       <use xlink:href="#DejaVuSans-36"/>
      </g>
     </g>
    </g>
    <g id="xtick_5">
     <g id="line2d_13">
      <path clip-path="url(#p5ba30727ef)" d="M 97.755429 298.944 
L 97.755429 27.648 
" style="fill:none;stroke:#b0b0b0;stroke-linecap:square;stroke-width:0.8;"/>
     </g>
     <g id="line2d_14">
      <defs>
       <path d="M 0 0 
L 0 2 
" id="m70cdc00637" style="stroke:#000000;stroke-width:0.6;"/>
      </defs>
      <g>
       <use style="stroke:#000000;stroke-width:0.6;" x="97.755429" xlink:href="#m70cdc00637" y="298.944"/>
      </g>
     </g>
    </g>
    <g id="xtick_6">
     <g id="line2d_15">
      <path clip-path="url(#p5ba30727ef)" d="M 178.066286 298.944 
L 178.066286 27.648 
" style="fill:none;stroke:#b0b0b0;stroke-linecap:square;stroke-width:0.8;"/>
     </g>
     <g id="line2d_16">
      <g>
       <use style="stroke:#000000;stroke-width:0.6;" x="178.066286" xlink:href="#m70cdc00637" y="298.944"/>
      </g>
     </g>
    </g>
    <g id="xtick_7">
     <g id="line2d_17">
      <path clip-path="url(#p5ba30727ef)" d="M 258.377143 298.944 
L 258.377143 27.648 
" style="fill:none;stroke:#b0b0b0;stroke-linecap:square;stroke-width:0.8;"/>
     </g>
     <g id="line2d_18">
      <g>
       <use style="stroke:#000000;stroke-width:0.6;" x="258.377143" xlink:href="#m70cdc00637" y="298.944"/>
      </g>
     </g>
    </g>
    <g id="xtick_8">
     <g id="line2d_19">
      <path clip-path="url(#p5ba30727ef)" d="M 338.688 298.944 
L 338.688 27.648 
" style="fill:none;stroke:#b0b0b0;stroke-linecap:square;stroke-width:0.8;"/>
     </g>
     <g id="line2d_20">
      <g>
       <use style="stroke:#000000;stroke-width:0.6;" x="338.688" xlink:href="#m70cdc00637" y="298.944"/>
      </g>
     </g>
    </g>
    <g id="text_5">
     <!-- log10(# f-evals / dimension) -->
     <g transform="translate(77.764078 342.217594)scale(0.17 -0.17)">
      <defs>
       <path d="M 603 4863 
L 1178 4863 
L 1178 0 
L 603 0 
L 603 4863 
z
" id="DejaVuSans-6c" transform="scale(0.015625)"/>
       <path d="M 1959 3097 
Q 1497 3097 1228 2736 
Q 959 2375 959 1747 
Q 959 1119 1226 758 
Q 1494 397 1959 397 
Q 2419 397 2687 759 
Q 2956 1122 2956 1747 
Q 2956 2369 2687 2733 
Q 2419 3097 1959 3097 
z
M 1959 3584 
Q 2709 3584 3137 3096 
Q 3566 2609 3566 1747 
Q 3566 888 3137 398 
Q 2709 -91 1959 -91 
Q 1206 -91 779 398 
Q 353 888 353 1747 
Q 353 2609 779 3096 
Q 1206 3584 1959 3584 
z
" id="DejaVuSans-6f" transform="scale(0.015625)"/>
       <path d="M 2906 1791 
Q 2906 2416 2648 2759 
Q 2391 3103 1925 3103 
Q 1463 3103 1205 2759 
Q 947 2416 947 1791 
Q 947 1169 1205 825 
Q 1463 481 1925 481 
Q 2391 481 2648 825 
Q 2906 1169 2906 1791 
z
M 3481 434 
Q 3481 -459 3084 -895 
Q 2688 -1331 1869 -1331 
Q 1566 -1331 1297 -1286 
Q 1028 -1241 775 -1147 
L 775 -588 
Q 1028 -725 1275 -790 
Q 1522 -856 1778 -856 
Q 2344 -856 2625 -561 
Q 2906 -266 2906 331 
L 2906 616 
Q 2728 306 2450 153 
Q 2172 0 1784 0 
Q 1141 0 747 490 
Q 353 981 353 1791 
Q 353 2603 747 3093 
Q 1141 3584 1784 3584 
Q 2172 3584 2450 3431 
Q 2728 3278 2906 2969 
L 2906 3500 
L 3481 3500 
L 3481 434 
z
" id="DejaVuSans-67" transform="scale(0.015625)"/>
       <path d="M 794 531 
L 1825 531 
L 1825 4091 
L 703 3866 
L 703 4441 
L 1819 4666 
L 2450 4666 
L 2450 531 
L 3481 531 
L 3481 0 
L 794 0 
L 794 531 
z
" id="DejaVuSans-31" transform="scale(0.015625)"/>
       <path d="M 1984 4856 
Q 1566 4138 1362 3434 
Q 1159 2731 1159 2009 
Q 1159 1288 1364 580 
Q 1569 -128 1984 -844 
L 1484 -844 
Q 1016 -109 783 600 
Q 550 1309 550 2009 
Q 550 2706 781 3412 
Q 1013 4119 1484 4856 
L 1984 4856 
z
" id="DejaVuSans-28" transform="scale(0.015625)"/>
       <path d="M 3272 2816 
L 2363 2816 
L 2100 1772 
L 3016 1772 
L 3272 2816 
z
M 2803 4594 
L 2478 3297 
L 3391 3297 
L 3719 4594 
L 4219 4594 
L 3897 3297 
L 4872 3297 
L 4872 2816 
L 3775 2816 
L 3519 1772 
L 4513 1772 
L 4513 1294 
L 3397 1294 
L 3072 0 
L 2572 0 
L 2894 1294 
L 1978 1294 
L 1656 0 
L 1153 0 
L 1478 1294 
L 494 1294 
L 494 1772 
L 1594 1772 
L 1856 2816 
L 850 2816 
L 850 3297 
L 1978 3297 
L 2297 4594 
L 2803 4594 
z
" id="DejaVuSans-23" transform="scale(0.015625)"/>
       <path id="DejaVuSans-20" transform="scale(0.015625)"/>
       <path d="M 2375 4863 
L 2375 4384 
L 1825 4384 
Q 1516 4384 1395 4259 
Q 1275 4134 1275 3809 
L 1275 3500 
L 2222 3500 
L 2222 3053 
L 1275 3053 
L 1275 0 
L 697 0 
L 697 3053 
L 147 3053 
L 147 3500 
L 697 3500 
L 697 3744 
Q 697 4328 969 4595 
Q 1241 4863 1831 4863 
L 2375 4863 
z
" id="DejaVuSans-66" transform="scale(0.015625)"/>
       <path d="M 313 2009 
L 1997 2009 
L 1997 1497 
L 313 1497 
L 313 2009 
z
" id="DejaVuSans-2d" transform="scale(0.015625)"/>
       <path d="M 3597 1894 
L 3597 1613 
L 953 1613 
Q 991 1019 1311 708 
Q 1631 397 2203 397 
Q 2534 397 2845 478 
Q 3156 559 3463 722 
L 3463 178 
Q 3153 47 2828 -22 
Q 2503 -91 2169 -91 
Q 1331 -91 842 396 
Q 353 884 353 1716 
Q 353 2575 817 3079 
Q 1281 3584 2069 3584 
Q 2775 3584 3186 3129 
Q 3597 2675 3597 1894 
z
M 3022 2063 
Q 3016 2534 2758 2815 
Q 2500 3097 2075 3097 
Q 1594 3097 1305 2825 
Q 1016 2553 972 2059 
L 3022 2063 
z
" id="DejaVuSans-65" transform="scale(0.015625)"/>
       <path d="M 191 3500 
L 800 3500 
L 1894 563 
L 2988 3500 
L 3597 3500 
L 2284 0 
L 1503 0 
L 191 3500 
z
" id="DejaVuSans-76" transform="scale(0.015625)"/>
       <path d="M 2194 1759 
Q 1497 1759 1228 1600 
Q 959 1441 959 1056 
Q 959 750 1161 570 
Q 1363 391 1709 391 
Q 2188 391 2477 730 
Q 2766 1069 2766 1631 
L 2766 1759 
L 2194 1759 
z
M 3341 1997 
L 3341 0 
L 2766 0 
L 2766 531 
Q 2569 213 2275 61 
Q 1981 -91 1556 -91 
Q 1019 -91 701 211 
Q 384 513 384 1019 
Q 384 1609 779 1909 
Q 1175 2209 1959 2209 
L 2766 2209 
L 2766 2266 
Q 2766 2663 2505 2880 
Q 2244 3097 1772 3097 
Q 1472 3097 1187 3025 
Q 903 2953 641 2809 
L 641 3341 
Q 956 3463 1253 3523 
Q 1550 3584 1831 3584 
Q 2591 3584 2966 3190 
Q 3341 2797 3341 1997 
z
" id="DejaVuSans-61" transform="scale(0.015625)"/>
       <path d="M 2834 3397 
L 2834 2853 
Q 2591 2978 2328 3040 
Q 2066 3103 1784 3103 
Q 1356 3103 1142 2972 
Q 928 2841 928 2578 
Q 928 2378 1081 2264 
Q 1234 2150 1697 2047 
L 1894 2003 
Q 2506 1872 2764 1633 
Q 3022 1394 3022 966 
Q 3022 478 2636 193 
Q 2250 -91 1575 -91 
Q 1294 -91 989 -36 
Q 684 19 347 128 
L 347 722 
Q 666 556 975 473 
Q 1284 391 1588 391 
Q 1994 391 2212 530 
Q 2431 669 2431 922 
Q 2431 1156 2273 1281 
Q 2116 1406 1581 1522 
L 1381 1569 
Q 847 1681 609 1914 
Q 372 2147 372 2553 
Q 372 3047 722 3315 
Q 1072 3584 1716 3584 
Q 2034 3584 2315 3537 
Q 2597 3491 2834 3397 
z
" id="DejaVuSans-73" transform="scale(0.015625)"/>
       <path d="M 1625 4666 
L 2156 4666 
L 531 -594 
L 0 -594 
L 1625 4666 
z
" id="DejaVuSans-2f" transform="scale(0.015625)"/>
       <path d="M 2906 2969 
L 2906 4863 
L 3481 4863 
L 3481 0 
L 2906 0 
L 2906 525 
Q 2725 213 2448 61 
Q 2172 -91 1784 -91 
Q 1150 -91 751 415 
Q 353 922 353 1747 
Q 353 2572 751 3078 
Q 1150 3584 1784 3584 
Q 2172 3584 2448 3432 
Q 2725 3281 2906 2969 
z
M 947 1747 
Q 947 1113 1208 752 
Q 1469 391 1925 391 
Q 2381 391 2643 752 
Q 2906 1113 2906 1747 
Q 2906 2381 2643 2742 
Q 2381 3103 1925 3103 
Q 1469 3103 1208 2742 
Q 947 2381 947 1747 
z
" id="DejaVuSans-64" transform="scale(0.015625)"/>
       <path d="M 603 3500 
L 1178 3500 
L 1178 0 
L 603 0 
L 603 3500 
z
M 603 4863 
L 1178 4863 
L 1178 4134 
L 603 4134 
L 603 4863 
z
" id="DejaVuSans-69" transform="scale(0.015625)"/>
       <path d="M 3328 2828 
Q 3544 3216 3844 3400 
Q 4144 3584 4550 3584 
Q 5097 3584 5394 3201 
Q 5691 2819 5691 2113 
L 5691 0 
L 5113 0 
L 5113 2094 
Q 5113 2597 4934 2840 
Q 4756 3084 4391 3084 
Q 3944 3084 3684 2787 
Q 3425 2491 3425 1978 
L 3425 0 
L 2847 0 
L 2847 2094 
Q 2847 2600 2669 2842 
Q 2491 3084 2119 3084 
Q 1678 3084 1418 2786 
Q 1159 2488 1159 1978 
L 1159 0 
L 581 0 
L 581 3500 
L 1159 3500 
L 1159 2956 
Q 1356 3278 1631 3431 
Q 1906 3584 2284 3584 
Q 2666 3584 2933 3390 
Q 3200 3197 3328 2828 
z
" id="DejaVuSans-6d" transform="scale(0.015625)"/>
       <path d="M 3513 2113 
L 3513 0 
L 2938 0 
L 2938 2094 
Q 2938 2591 2744 2837 
Q 2550 3084 2163 3084 
Q 1697 3084 1428 2787 
Q 1159 2491 1159 1978 
L 1159 0 
L 581 0 
L 581 3500 
L 1159 3500 
L 1159 2956 
Q 1366 3272 1645 3428 
Q 1925 3584 2291 3584 
Q 2894 3584 3203 3211 
Q 3513 2838 3513 2113 
z
" id="DejaVuSans-6e" transform="scale(0.015625)"/>
       <path d="M 513 4856 
L 1013 4856 
Q 1481 4119 1714 3412 
Q 1947 2706 1947 2009 
Q 1947 1309 1714 600 
Q 1481 -109 1013 -844 
L 513 -844 
Q 928 -128 1133 580 
Q 1338 1288 1338 2009 
Q 1338 2731 1133 3434 
Q 928 4138 513 4856 
z
" id="DejaVuSans-29" transform="scale(0.015625)"/>
      </defs>
      <use xlink:href="#DejaVuSans-6c"/>
      <use x="27.783203" xlink:href="#DejaVuSans-6f"/>
      <use x="88.964844" xlink:href="#DejaVuSans-67"/>
      <use x="152.441406" xlink:href="#DejaVuSans-31"/>
      <use x="216.064453" xlink:href="#DejaVuSans-30"/>
      <use x="279.6875" xlink:href="#DejaVuSans-28"/>
      <use x="318.701172" xlink:href="#DejaVuSans-23"/>
      <use x="402.490234" xlink:href="#DejaVuSans-20"/>
      <use x="434.277344" xlink:href="#DejaVuSans-66"/>
      <use x="463.982422" xlink:href="#DejaVuSans-2d"/>
      <use x="500.066406" xlink:href="#DejaVuSans-65"/>
      <use x="561.589844" xlink:href="#DejaVuSans-76"/>
      <use x="620.769531" xlink:href="#DejaVuSans-61"/>
      <use x="682.048828" xlink:href="#DejaVuSans-6c"/>
      <use x="709.832031" xlink:href="#DejaVuSans-73"/>
      <use x="761.931641" xlink:href="#DejaVuSans-20"/>
      <use x="793.71875" xlink:href="#DejaVuSans-2f"/>
      <use x="827.410156" xlink:href="#DejaVuSans-20"/>
      <use x="859.197266" xlink:href="#DejaVuSans-64"/>
      <use x="922.673828" xlink:href="#DejaVuSans-69"/>
      <use x="950.457031" xlink:href="#DejaVuSans-6d"/>
      <use x="1047.869141" xlink:href="#DejaVuSans-65"/>
      <use x="1109.392578" xlink:href="#DejaVuSans-6e"/>
      <use x="1172.771484" xlink:href="#DejaVuSans-73"/>
      <use x="1224.871094" xlink:href="#DejaVuSans-69"/>
      <use x="1252.654297" xlink:href="#DejaVuSans-6f"/>
      <use x="1313.835938" xlink:href="#DejaVuSans-6e"/>
      <use x="1377.214844" xlink:href="#DejaVuSans-29"/>
     </g>
    </g>
   </g>
   <g id="matplotlib.axis_2">
    <g id="ytick_1">
     <g id="line2d_21">
      <path clip-path="url(#p5ba30727ef)" d="M 57.6 298.944 
L 338.688 298.944 
" style="fill:none;stroke:#b0b0b0;stroke-linecap:square;stroke-width:0.8;"/>
     </g>
     <g id="line2d_22">
      <defs>
       <path d="M 0 0 
L -3.5 0 
" id="m2b92d5df2b" style="stroke:#000000;stroke-width:0.8;"/>
      </defs>
      <g>
       <use style="stroke:#000000;stroke-width:0.8;" x="57.6" xlink:href="#m2b92d5df2b" y="298.944"/>
      </g>
     </g>
     <g id="text_6">
      <!-- 0.0 -->
      <g transform="translate(25.155 305.02275)scale(0.16 -0.16)">
       <defs>
        <path d="M 684 794 
L 1344 794 
L 1344 0 
L 684 0 
L 684 794 
z
" id="DejaVuSans-2e" transform="scale(0.015625)"/>
       </defs>
       <use xlink:href="#DejaVuSans-30"/>
       <use x="63.623047" xlink:href="#DejaVuSans-2e"/>
       <use x="95.410156" xlink:href="#DejaVuSans-30"/>
      </g>
     </g>
    </g>
    <g id="ytick_2">
     <g id="line2d_23">
      <path clip-path="url(#p5ba30727ef)" d="M 57.6 245.22202 
L 338.688 245.22202 
" style="fill:none;stroke:#b0b0b0;stroke-linecap:square;stroke-width:0.8;"/>
     </g>
     <g id="line2d_24">
      <g>
       <use style="stroke:#000000;stroke-width:0.8;" x="57.6" xlink:href="#m2b92d5df2b" y="245.22202"/>
      </g>
     </g>
     <g id="text_7">
      <!-- 0.2 -->
      <g transform="translate(25.155 251.30077)scale(0.16 -0.16)">
       <use xlink:href="#DejaVuSans-30"/>
       <use x="63.623047" xlink:href="#DejaVuSans-2e"/>
       <use x="95.410156" xlink:href="#DejaVuSans-32"/>
      </g>
     </g>
    </g>
    <g id="ytick_3">
     <g id="line2d_25">
      <path clip-path="url(#p5ba30727ef)" d="M 57.6 191.50004 
L 338.688 191.50004 
" style="fill:none;stroke:#b0b0b0;stroke-linecap:square;stroke-width:0.8;"/>
     </g>
     <g id="line2d_26">
      <g>
       <use style="stroke:#000000;stroke-width:0.8;" x="57.6" xlink:href="#m2b92d5df2b" y="191.50004"/>
      </g>
     </g>
     <g id="text_8">
      <!-- 0.4 -->
      <g transform="translate(25.155 197.57879)scale(0.16 -0.16)">
       <use xlink:href="#DejaVuSans-30"/>
       <use x="63.623047" xlink:href="#DejaVuSans-2e"/>
       <use x="95.410156" xlink:href="#DejaVuSans-34"/>
      </g>
     </g>
    </g>
    <g id="ytick_4">
     <g id="line2d_27">
      <path clip-path="url(#p5ba30727ef)" d="M 57.6 137.778059 
L 338.688 137.778059 
" style="fill:none;stroke:#b0b0b0;stroke-linecap:square;stroke-width:0.8;"/>
     </g>
     <g id="line2d_28">
      <g>
       <use style="stroke:#000000;stroke-width:0.8;" x="57.6" xlink:href="#m2b92d5df2b" y="137.778059"/>
      </g>
     </g>
     <g id="text_9">
      <!-- 0.6 -->
      <g transform="translate(25.155 143.856809)scale(0.16 -0.16)">
       <use xlink:href="#DejaVuSans-30"/>
       <use x="63.623047" xlink:href="#DejaVuSans-2e"/>
       <use x="95.410156" xlink:href="#DejaVuSans-36"/>
      </g>
     </g>
    </g>
    <g id="ytick_5">
     <g id="line2d_29">
      <path clip-path="url(#p5ba30727ef)" d="M 57.6 84.056079 
L 338.688 84.056079 
" style="fill:none;stroke:#b0b0b0;stroke-linecap:square;stroke-width:0.8;"/>
     </g>
     <g id="line2d_30">
      <g>
       <use style="stroke:#000000;stroke-width:0.8;" x="57.6" xlink:href="#m2b92d5df2b" y="84.056079"/>
      </g>
     </g>
     <g id="text_10">
      <!-- 0.8 -->
      <g transform="translate(25.155 90.134829)scale(0.16 -0.16)">
       <defs>
        <path d="M 2034 2216 
Q 1584 2216 1326 1975 
Q 1069 1734 1069 1313 
Q 1069 891 1326 650 
Q 1584 409 2034 409 
Q 2484 409 2743 651 
Q 3003 894 3003 1313 
Q 3003 1734 2745 1975 
Q 2488 2216 2034 2216 
z
M 1403 2484 
Q 997 2584 770 2862 
Q 544 3141 544 3541 
Q 544 4100 942 4425 
Q 1341 4750 2034 4750 
Q 2731 4750 3128 4425 
Q 3525 4100 3525 3541 
Q 3525 3141 3298 2862 
Q 3072 2584 2669 2484 
Q 3125 2378 3379 2068 
Q 3634 1759 3634 1313 
Q 3634 634 3220 271 
Q 2806 -91 2034 -91 
Q 1263 -91 848 271 
Q 434 634 434 1313 
Q 434 1759 690 2068 
Q 947 2378 1403 2484 
z
M 1172 3481 
Q 1172 3119 1398 2916 
Q 1625 2713 2034 2713 
Q 2441 2713 2670 2916 
Q 2900 3119 2900 3481 
Q 2900 3844 2670 4047 
Q 2441 4250 2034 4250 
Q 1625 4250 1398 4047 
Q 1172 3844 1172 3481 
z
" id="DejaVuSans-38" transform="scale(0.015625)"/>
       </defs>
       <use xlink:href="#DejaVuSans-30"/>
       <use x="63.623047" xlink:href="#DejaVuSans-2e"/>
       <use x="95.410156" xlink:href="#DejaVuSans-38"/>
      </g>
     </g>
    </g>
    <g id="ytick_6">
     <g id="line2d_31">
      <path clip-path="url(#p5ba30727ef)" d="M 57.6 30.334099 
L 338.688 30.334099 
" style="fill:none;stroke:#b0b0b0;stroke-linecap:square;stroke-width:0.8;"/>
     </g>
     <g id="line2d_32">
      <g>
       <use style="stroke:#000000;stroke-width:0.8;" x="57.6" xlink:href="#m2b92d5df2b" y="30.334099"/>
      </g>
     </g>
     <g id="text_11">
      <!-- 1.0 -->
      <g transform="translate(25.155 36.412849)scale(0.16 -0.16)">
       <use xlink:href="#DejaVuSans-31"/>
       <use x="63.623047" xlink:href="#DejaVuSans-2e"/>
       <use x="95.410156" xlink:href="#DejaVuSans-30"/>
      </g>
     </g>
    </g>
    <g id="text_12">
     <!-- Fraction of function,target pairs -->
     <g transform="translate(17.619531 297.681)rotate(-90)scale(0.17 -0.17)">
      <defs>
       <path d="M 628 4666 
L 3309 4666 
L 3309 4134 
L 1259 4134 
L 1259 2759 
L 3109 2759 
L 3109 2228 
L 1259 2228 
L 1259 0 
L 628 0 
L 628 4666 
z
" id="DejaVuSans-46" transform="scale(0.015625)"/>
       <path d="M 2631 2963 
Q 2534 3019 2420 3045 
Q 2306 3072 2169 3072 
Q 1681 3072 1420 2755 
Q 1159 2438 1159 1844 
L 1159 0 
L 581 0 
L 581 3500 
L 1159 3500 
L 1159 2956 
Q 1341 3275 1631 3429 
Q 1922 3584 2338 3584 
Q 2397 3584 2469 3576 
Q 2541 3569 2628 3553 
L 2631 2963 
z
" id="DejaVuSans-72" transform="scale(0.015625)"/>
       <path d="M 3122 3366 
L 3122 2828 
Q 2878 2963 2633 3030 
Q 2388 3097 2138 3097 
Q 1578 3097 1268 2742 
Q 959 2388 959 1747 
Q 959 1106 1268 751 
Q 1578 397 2138 397 
Q 2388 397 2633 464 
Q 2878 531 3122 666 
L 3122 134 
Q 2881 22 2623 -34 
Q 2366 -91 2075 -91 
Q 1284 -91 818 406 
Q 353 903 353 1747 
Q 353 2603 823 3093 
Q 1294 3584 2113 3584 
Q 2378 3584 2631 3529 
Q 2884 3475 3122 3366 
z
" id="DejaVuSans-63" transform="scale(0.015625)"/>
       <path d="M 1172 4494 
L 1172 3500 
L 2356 3500 
L 2356 3053 
L 1172 3053 
L 1172 1153 
Q 1172 725 1289 603 
Q 1406 481 1766 481 
L 2356 481 
L 2356 0 
L 1766 0 
Q 1100 0 847 248 
Q 594 497 594 1153 
L 594 3053 
L 172 3053 
L 172 3500 
L 594 3500 
L 594 4494 
L 1172 4494 
z
" id="DejaVuSans-74" transform="scale(0.015625)"/>
       <path d="M 544 1381 
L 544 3500 
L 1119 3500 
L 1119 1403 
Q 1119 906 1312 657 
Q 1506 409 1894 409 
Q 2359 409 2629 706 
Q 2900 1003 2900 1516 
L 2900 3500 
L 3475 3500 
L 3475 0 
L 2900 0 
L 2900 538 
Q 2691 219 2414 64 
Q 2138 -91 1772 -91 
Q 1169 -91 856 284 
Q 544 659 544 1381 
z
M 1991 3584 
L 1991 3584 
z
" id="DejaVuSans-75" transform="scale(0.015625)"/>
       <path d="M 750 794 
L 1409 794 
L 1409 256 
L 897 -744 
L 494 -744 
L 750 256 
L 750 794 
z
" id="DejaVuSans-2c" transform="scale(0.015625)"/>
       <path d="M 1159 525 
L 1159 -1331 
L 581 -1331 
L 581 3500 
L 1159 3500 
L 1159 2969 
Q 1341 3281 1617 3432 
Q 1894 3584 2278 3584 
Q 2916 3584 3314 3078 
Q 3713 2572 3713 1747 
Q 3713 922 3314 415 
Q 2916 -91 2278 -91 
Q 1894 -91 1617 61 
Q 1341 213 1159 525 
z
M 3116 1747 
Q 3116 2381 2855 2742 
Q 2594 3103 2138 3103 
Q 1681 3103 1420 2742 
Q 1159 2381 1159 1747 
Q 1159 1113 1420 752 
Q 1681 391 2138 391 
Q 2594 391 2855 752 
Q 3116 1113 3116 1747 
z
" id="DejaVuSans-70" transform="scale(0.015625)"/>
      </defs>
      <use xlink:href="#DejaVuSans-46"/>
      <use x="50.269531" xlink:href="#DejaVuSans-72"/>
      <use x="91.382812" xlink:href="#DejaVuSans-61"/>
      <use x="152.662109" xlink:href="#DejaVuSans-63"/>
      <use x="207.642578" xlink:href="#DejaVuSans-74"/>
      <use x="246.851562" xlink:href="#DejaVuSans-69"/>
      <use x="274.634766" xlink:href="#DejaVuSans-6f"/>
      <use x="335.816406" xlink:href="#DejaVuSans-6e"/>
      <use x="399.195312" xlink:href="#DejaVuSans-20"/>
      <use x="430.982422" xlink:href="#DejaVuSans-6f"/>
      <use x="492.164062" xlink:href="#DejaVuSans-66"/>
      <use x="527.369141" xlink:href="#DejaVuSans-20"/>
      <use x="559.15625" xlink:href="#DejaVuSans-66"/>
      <use x="594.361328" xlink:href="#DejaVuSans-75"/>
      <use x="657.740234" xlink:href="#DejaVuSans-6e"/>
      <use x="721.119141" xlink:href="#DejaVuSans-63"/>
      <use x="776.099609" xlink:href="#DejaVuSans-74"/>
      <use x="815.308594" xlink:href="#DejaVuSans-69"/>
      <use x="843.091797" xlink:href="#DejaVuSans-6f"/>
      <use x="904.273438" xlink:href="#DejaVuSans-6e"/>
      <use x="967.652344" xlink:href="#DejaVuSans-2c"/>
      <use x="999.439453" xlink:href="#DejaVuSans-74"/>
      <use x="1038.648438" xlink:href="#DejaVuSans-61"/>
      <use x="1099.927734" xlink:href="#DejaVuSans-72"/>
      <use x="1139.291016" xlink:href="#DejaVuSans-67"/>
      <use x="1202.767578" xlink:href="#DejaVuSans-65"/>
      <use x="1264.291016" xlink:href="#DejaVuSans-74"/>
      <use x="1303.5" xlink:href="#DejaVuSans-20"/>
      <use x="1335.287109" xlink:href="#DejaVuSans-70"/>
      <use x="1398.763672" xlink:href="#DejaVuSans-61"/>
      <use x="1460.042969" xlink:href="#DejaVuSans-69"/>
      <use x="1487.826172" xlink:href="#DejaVuSans-72"/>
      <use x="1528.939453" xlink:href="#DejaVuSans-73"/>
     </g>
    </g>
   </g>
   <g id="line2d_33">
    <defs>
     <path d="M 0 1.5 
C 0.397805 1.5 0.77937 1.341951 1.06066 1.06066 
C 1.341951 0.77937 1.5 0.397805 1.5 0 
C 1.5 -0.397805 1.341951 -0.77937 1.06066 -1.06066 
C 0.77937 -1.341951 0.397805 -1.5 0 -1.5 
C -0.397805 -1.5 -0.77937 -1.341951 -1.06066 -1.06066 
C -1.341951 -0.77937 -1.5 -0.397805 -1.5 0 
C -1.5 0.397805 -1.341951 0.77937 -1.06066 1.06066 
C -0.77937 1.341951 -0.397805 1.5 0 1.5 
z
" id="mac537c7d8c" style="stroke:#f5deb3;"/>
    </defs>
    <g>
     <use style="fill:#f5deb3;stroke:#f5deb3;" x="72.867545" xlink:href="#mac537c7d8c" y="30.334099"/>
     <use style="fill:#f5deb3;stroke:#f5deb3;" x="72.867545" xlink:href="#mac537c7d8c" y="30.334099"/>
    </g>
   </g>
   <g id="line2d_34">
    <defs>
     <path d="M 0 1.5 
C 0.397805 1.5 0.77937 1.341951 1.06066 1.06066 
C 1.341951 0.77937 1.5 0.397805 1.5 0 
C 1.5 -0.397805 1.341951 -0.77937 1.06066 -1.06066 
C 0.77937 -1.341951 0.397805 -1.5 0 -1.5 
C -0.397805 -1.5 -0.77937 -1.341951 -1.06066 -1.06066 
C -1.341951 -0.77937 -1.5 -0.397805 -1.5 0 
C -1.5 0.397805 -1.341951 0.77937 -1.06066 1.06066 
C -0.77937 1.341951 -0.397805 1.5 0 1.5 
z
" id="m8fcd744720" style="stroke:#000080;"/>
    </defs>
    <g>
     <use style="fill:#000080;stroke:#000080;" x="184.262357" xlink:href="#m8fcd744720" y="30.334099"/>
     <use style="fill:#000080;stroke:#000080;" x="184.262357" xlink:href="#m8fcd744720" y="30.334099"/>
    </g>
   </g>
   <g id="line2d_35">
    <path d="M 29.53256 298.944 
L 29.53256 288.410278 
L 41.620548 288.410278 
L 41.620548 286.83022 
L 48.691568 286.83022 
L 48.691568 286.303534 
L 53.708537 286.303534 
L 53.708537 285.250162 
L 57.6 285.250162 
L 57.6 281.036673 
L 60.779557 281.036673 
L 60.779557 279.983301 
L 63.467834 279.983301 
L 63.467834 278.403243 
L 65.796525 278.403243 
L 65.796525 276.296499 
L 69.687988 276.296499 
L 69.687988 275.769812 
L 71.35013 275.769812 
L 71.35013 275.243126 
L 75.555822 275.243126 
L 75.555822 274.189754 
L 79.938565 274.189754 
L 79.938565 272.609696 
L 80.881459 272.609696 
L 80.881459 271.556324 
L 82.626842 271.556324 
L 82.626842 270.502952 
L 94.294587 270.502952 
L 94.294587 269.976266 
L 97.043522 269.976266 
L 97.043522 269.449579 
L 97.755429 269.449579 
L 97.755429 268.396207 
L 100.641881 268.396207 
L 100.641881 267.342835 
L 100.934985 267.342835 
L 100.934985 266.816149 
L 101.223245 266.816149 
L 101.223245 266.289463 
L 103.117741 266.289463 
L 103.117741 265.236091 
L 106.168594 265.236091 
L 106.168594 264.182719 
L 106.382575 264.182719 
L 106.382575 263.656033 
L 107.009204 263.656033 
L 107.009204 262.075974 
L 108.948899 262.075974 
L 108.948899 261.549288 
L 112.280765 261.549288 
L 112.280765 259.96923 
L 112.877038 259.96923 
L 112.877038 259.442544 
L 113.167699 259.442544 
L 113.167699 258.915858 
L 113.453595 258.915858 
L 113.453595 258.389172 
L 113.73488 258.389172 
L 113.73488 257.862486 
L 113.873839 257.862486 
L 113.873839 256.809114 
L 115.586238 256.809114 
L 115.586238 256.282427 
L 116.202531 256.282427 
L 116.202531 255.755741 
L 116.914437 255.755741 
L 116.914437 255.229055 
L 117.373392 255.229055 
L 117.373392 254.702369 
L 117.486268 254.702369 
L 117.486268 254.175683 
L 117.709852 254.175683 
L 117.709852 253.122311 
L 118.148599 253.122311 
L 118.148599 252.595625 
L 120.190611 252.595625 
L 120.190611 252.068939 
L 121.579085 252.068939 
L 121.579085 251.542253 
L 122.865118 251.542253 
L 122.865118 250.488881 
L 124.891598 250.488881 
L 124.891598 249.962195 
L 126.236468 249.962195 
L 126.236468 249.435508 
L 126.904721 249.435508 
L 126.904721 248.382136 
L 127.674226 248.382136 
L 127.674226 247.85545 
L 127.861412 247.85545 
L 127.861412 247.328764 
L 127.985095 247.328764 
L 127.985095 246.802078 
L 128.290519 246.802078 
L 128.290519 245.748706 
L 128.411207 245.748706 
L 128.411207 244.695334 
L 128.885774 244.695334 
L 128.885774 244.168648 
L 129.233413 244.168648 
L 129.233413 243.641962 
L 129.574256 243.641962 
L 129.574256 242.588589 
L 129.742212 242.588589 
L 129.742212 242.061903 
L 130.76994 242.061903 
L 130.822389 241.008531 
L 131.030622 241.008531 
L 131.133813 239.955159 
L 131.389151 239.955159 
L 131.389151 239.428473 
L 131.590764 239.428473 
L 131.690703 238.375101 
L 132.893889 238.375101 
L 132.986651 237.321729 
L 133.078923 237.321729 
L 133.078923 236.795043 
L 133.57787 236.795043 
L 133.57787 236.268356 
L 134.062938 236.268356 
L 134.062938 235.74167 
L 134.745246 235.74167 
L 134.828688 234.688298 
L 135.361539 234.688298 
L 135.401861 232.581554 
L 136.073445 232.581554 
L 136.073445 232.054868 
L 136.570107 232.054868 
L 136.645276 230.47481 
L 137.235245 230.47481 
L 137.343676 229.421437 
L 137.558536 229.421437 
L 137.558536 228.894751 
L 137.980475 228.894751 
L 137.980475 228.368065 
L 138.761723 228.368065 
L 138.761723 227.314693 
L 138.959898 227.314693 
L 138.959898 226.788007 
L 139.253002 226.788007 
L 139.253002 225.207949 
L 139.730821 225.207949 
L 139.730821 224.681263 
L 139.918342 224.681263 
L 139.918342 223.627891 
L 141.032186 223.627891 
L 141.119455 222.047832 
L 141.378673 222.047832 
L 141.378673 221.521146 
L 142.459451 221.521146 
L 142.539878 220.467774 
L 142.857929 220.467774 
L 142.857929 219.941088 
L 144.342484 219.941088 
L 144.390658 218.887716 
L 144.676946 218.887716 
L 144.676946 217.834344 
L 144.818346 217.834344 
L 144.818346 217.307658 
L 145.976095 217.307658 
L 145.976095 216.780971 
L 146.324022 216.780971 
L 146.345539 215.727599 
L 146.559258 215.727599 
L 146.559258 215.200913 
L 146.833235 215.200913 
L 146.833235 214.674227 
L 146.978997 214.674227 
L 146.978997 214.147541 
L 147.226074 214.147541 
L 147.246507 211.514111 
L 147.86833 211.514111 
L 147.86833 210.460738 
L 148.468742 210.460738 
L 148.468742 209.934052 
L 148.714503 209.934052 
L 148.714503 208.88068 
L 149.049169 208.88068 
L 149.049169 208.353994 
L 149.770648 208.353994 
L 149.770648 207.827308 
L 149.893895 207.827308 
L 149.911431 206.773936 
L 150.37835 206.773936 
L 150.37835 206.24725 
L 150.682827 206.24725 
L 150.682827 205.193878 
L 152.037389 205.193878 
L 152.052897 204.140506 
L 152.481628 204.140506 
L 152.481628 203.087133 
L 152.692105 203.087133 
L 152.692105 202.033761 
L 152.914832 202.033761 
L 152.914832 201.507075 
L 153.032466 201.507075 
L 153.032466 200.980389 
L 153.250915 200.980389 
L 153.250915 200.453703 
L 153.395042 200.453703 
L 153.395042 199.400331 
L 153.848404 199.400331 
L 153.848404 198.873645 
L 154.627867 198.873645 
L 154.627867 198.346959 
L 154.959044 198.346959 
L 154.959044 197.820273 
L 155.076745 197.820273 
L 155.076745 196.7669 
L 155.816782 196.7669 
L 155.816782 195.713528 
L 155.966049 195.713528 
L 155.966049 195.186842 
L 156.538679 195.186842 
L 156.598505 193.606784 
L 156.670026 193.606784 
L 156.670026 193.080098 
L 157.046598 193.080098 
L 157.046598 192.553412 
L 157.197287 192.553412 
L 157.300853 189.919981 
L 157.403807 189.919981 
L 157.460743 188.866609 
L 157.742664 188.866609 
L 157.742664 188.339923 
L 157.976006 188.339923 
L 158.053098 186.759865 
L 158.249784 186.759865 
L 158.347301 185.706493 
L 158.784773 185.706493 
L 158.784773 185.179807 
L 159.046236 185.179807 
L 159.046236 183.073062 
L 159.190962 183.073062 
L 159.190962 182.546376 
L 159.597964 182.546376 
L 159.708245 180.439632 
L 160.103486 180.439632 
L 160.123015 179.38626 
L 160.259108 179.38626 
L 160.259108 178.859574 
L 160.499521 178.859574 
L 160.499521 178.332888 
L 160.746084 178.332888 
L 160.746084 177.806202 
L 161.072584 177.806202 
L 161.072584 177.279515 
L 161.228992 177.279515 
L 161.256448 175.699457 
L 161.591568 175.699457 
L 161.591568 175.172771 
L 161.734513 175.172771 
L 161.734513 174.646085 
L 162.086834 174.646085 
L 162.165135 173.592713 
L 162.225793 173.592713 
L 162.268992 172.012655 
L 162.483394 172.012655 
L 162.483394 171.485969 
L 162.779197 171.485969 
L 162.821048 170.432596 
L 163.103002 170.432596 
L 163.103002 169.90591 
L 163.299319 169.90591 
L 163.299319 168.852538 
L 163.485404 168.852538 
L 163.517565 167.27248 
L 163.812276 167.27248 
L 163.812276 166.219108 
L 164.032036 166.219108 
L 164.117618 164.112363 
L 164.187328 164.112363 
L 164.187328 163.585677 
L 164.471025 163.585677 
L 164.524182 162.532305 
L 164.592289 162.532305 
L 164.614933 160.952247 
L 164.832318 160.952247 
L 164.832318 160.425561 
L 165.076435 160.425561 
L 165.09112 159.372189 
L 165.346138 159.372189 
L 165.346138 158.845503 
L 165.511714 158.845503 
L 165.511714 157.79213 
L 165.682828 157.79213 
L 165.774819 155.685386 
L 165.803027 155.685386 
L 165.838222 153.051956 
L 165.96434 153.051956 
L 165.96434 152.52527 
L 166.117256 152.52527 
L 166.193215 151.471897 
L 166.261982 151.471897 
L 166.289413 150.418525 
L 166.453099 150.418525 
L 166.453099 149.891839 
L 166.615263 149.891839 
L 166.668984 148.838467 
L 167.741609 148.838467 
L 167.82338 147.258409 
L 167.942207 147.258409 
L 167.942207 146.731723 
L 168.115857 146.731723 
L 168.146685 145.151665 
L 168.300012 145.151665 
L 168.409578 144.098292 
L 168.482242 144.098292 
L 168.494323 142.518234 
L 168.829244 142.518234 
L 168.829244 141.464862 
L 168.9532 141.464862 
L 168.9532 140.938176 
L 169.093793 140.938176 
L 169.093793 140.41149 
L 169.239048 140.41149 
L 169.256398 138.304745 
L 170.063995 138.304745 
L 170.152072 136.198001 
L 170.35949 136.198001 
L 170.35949 135.671315 
L 170.788258 135.671315 
L 170.883296 133.564571 
L 171.129034 133.564571 
L 171.139414 132.511199 
L 171.289242 132.511199 
L 171.340609 129.877768 
L 171.46837 129.877768 
L 171.473461 125.66428 
L 171.655755 125.66428 
L 171.655755 124.084221 
L 171.781236 124.084221 
L 171.781236 123.557535 
L 171.940545 123.557535 
L 171.940545 123.030849 
L 172.11314 123.030849 
L 172.22076 121.450791 
L 172.274322 121.450791 
L 172.366452 119.870733 
L 172.52532 119.870733 
L 172.52532 118.817361 
L 172.678005 118.817361 
L 172.720707 117.763988 
L 172.895172 117.763988 
L 172.895172 117.237302 
L 173.137453 117.237302 
L 173.137453 116.710616 
L 173.298652 116.710616 
L 173.298652 116.18393 
L 173.710926 116.18393 
L 173.777957 115.130558 
L 173.866933 115.130558 
L 173.866933 114.603872 
L 173.990742 114.603872 
L 173.990742 113.5505 
L 174.161738 113.5505 
L 174.205315 111.970441 
L 174.318106 111.970441 
L 174.326753 110.917069 
L 174.550061 110.917069 
L 174.660652 109.863697 
L 174.686074 109.863697 
L 174.686074 109.337011 
L 174.900675 109.337011 
L 175.000757 106.176895 
L 175.153934 106.176895 
L 175.236175 103.016778 
L 175.273058 103.016778 
L 175.330276 101.963406 
L 175.549233 101.963406 
L 175.653684 98.803289 
L 175.673699 98.803289 
L 175.757513 96.169859 
L 175.833 96.169859 
L 175.876553 94.063115 
L 176.018337 94.063115 
L 176.018337 93.536429 
L 176.1473 93.536429 
L 176.217244 92.483056 
L 176.267585 92.483056 
L 176.267585 91.95637 
L 176.387046 91.95637 
L 176.387046 90.902998 
L 176.574218 90.902998 
L 176.638688 89.849626 
L 176.785697 89.849626 
L 176.894213 87.742882 
L 176.93892 87.742882 
L 177.024289 85.109451 
L 177.050188 85.109451 
L 177.050188 84.582765 
L 177.245042 84.582765 
L 177.245042 84.056079 
L 177.376165 84.056079 
L 177.401547 81.949335 
L 177.491897 81.949335 
L 177.52071 80.895963 
L 177.876917 80.895963 
L 177.876917 80.369277 
L 177.992886 80.369277 
L 177.992886 79.842591 
L 178.201784 79.842591 
L 178.26052 78.789218 
L 178.363691 78.789218 
L 178.456026 76.155788 
L 178.50031 76.155788 
L 178.50031 75.629102 
L 178.683063 75.629102 
L 178.773727 72.468985 
L 179.029727 72.468985 
L 179.039625 71.415613 
L 179.23316 71.415613 
L 179.23316 70.888927 
L 179.366397 70.888927 
L 179.366397 70.362241 
L 179.562762 70.362241 
L 179.623476 68.255497 
L 179.67762 68.255497 
L 179.747441 65.09538 
L 179.854799 65.09538 
L 179.873676 63.515322 
L 180.042657 63.515322 
L 180.101725 61.935264 
L 180.210015 61.935264 
L 180.317637 59.301833 
L 180.384947 59.301833 
L 180.397157 57.195089 
L 180.672655 57.195089 
L 180.672655 56.668403 
L 180.801337 56.668403 
L 180.893522 53.508287 
L 180.932036 53.508287 
L 181.011755 52.454914 
L 181.044129 52.454914 
L 181.044129 51.928228 
L 181.155506 51.928228 
L 181.205103 50.34817 
L 181.448123 50.34817 
L 181.494031 49.294798 
L 181.631034 49.294798 
L 181.631034 48.768112 
L 181.924233 48.768112 
L 181.982843 46.134681 
L 182.063459 46.134681 
L 182.063459 45.607995 
L 182.190572 45.607995 
L 182.300357 42.974565 
L 182.349535 42.974565 
L 182.455616 40.867821 
L 182.469169 40.867821 
L 182.490833 39.814448 
L 182.706002 39.814448 
L 182.764712 38.761076 
L 182.929109 38.761076 
L 182.992333 37.181018 
L 183.065806 37.181018 
L 183.065806 35.60096 
L 183.323131 35.60096 
L 183.341183 34.020902 
L 183.525781 34.020902 
L 183.630033 31.914157 
L 184.082962 31.914157 
L 184.082962 30.860785 
L 184.262357 30.860785 
L 184.262357 30.334099 
L 338.688 30.334099 
L 338.688 30.334099 
" style="fill:none;stroke:#000080;stroke-linecap:square;stroke-width:1.5;"/>
   </g>
   <g id="line2d_36">
    <defs>
     <path d="M 0 6 
C 1.591219 6 3.117479 5.367802 4.242641 4.242641 
C 5.367802 3.117479 6 1.591219 6 0 
C 6 -1.591219 5.367802 -3.117479 4.242641 -4.242641 
C 3.117479 -5.367802 1.591219 -6 0 -6 
C -1.591219 -6 -3.117479 -5.367802 -4.242641 -4.242641 
C -5.367802 -3.117479 -6 -1.591219 -6 0 
C -6 1.591219 -5.367802 3.117479 -4.242641 4.242641 
C -3.117479 5.367802 -1.591219 6 0 6 
z
" id="m07f2c3ba7b" style="stroke:#000080;stroke-width:1.5;"/>
    </defs>
    <g>
     <use style="fill-opacity:0;stroke:#000080;stroke-width:1.5;" x="100.934985" xlink:href="#m07f2c3ba7b" y="267.342835"/>
     <use style="fill-opacity:0;stroke:#000080;stroke-width:1.5;" x="163.812276" xlink:href="#m07f2c3ba7b" y="167.27248"/>
     <use style="fill-opacity:0;stroke:#000080;stroke-width:1.5;" x="180.317637" xlink:href="#m07f2c3ba7b" y="59.301833"/>
     <use style="fill-opacity:0;stroke:#000080;stroke-width:1.5;" x="184.262357" xlink:href="#m07f2c3ba7b" y="30.334099"/>
     <use style="fill-opacity:0;stroke:#000080;stroke-width:1.5;" x="184.262357" xlink:href="#m07f2c3ba7b" y="30.334099"/>
     <use style="fill-opacity:0;stroke:#000080;stroke-width:1.5;" x="338.688" xlink:href="#m07f2c3ba7b" y="30.334099"/>
    </g>
   </g>
   <g id="line2d_37">
    <path style="fill:none;stroke:#000080;stroke-linecap:square;stroke-width:1.5;"/>
    <g/>
   </g>
   <g id="line2d_38">
    <defs>
     <path d="M 0 1.5 
C 0.397805 1.5 0.77937 1.341951 1.06066 1.06066 
C 1.341951 0.77937 1.5 0.397805 1.5 0 
C 1.5 -0.397805 1.341951 -0.77937 1.06066 -1.06066 
C 0.77937 -1.341951 0.397805 -1.5 0 -1.5 
C -0.397805 -1.5 -0.77937 -1.341951 -1.06066 -1.06066 
C -1.341951 -0.77937 -1.5 -0.397805 -1.5 0 
C -1.5 0.397805 -1.341951 0.77937 -1.06066 1.06066 
C -0.77937 1.341951 -0.397805 1.5 0 1.5 
z
" id="m6df02817b6" style="stroke:#ff00ff;"/>
    </defs>
    <g>
     <use style="fill:#ff00ff;stroke:#ff00ff;" x="197.526128" xlink:href="#m6df02817b6" y="30.334099"/>
     <use style="fill:#ff00ff;stroke:#ff00ff;" x="197.526128" xlink:href="#m6df02817b6" y="30.334099"/>
    </g>
   </g>
   <g id="line2d_39">
    <path d="M 29.53256 298.944 
L 29.53256 289.990337 
L 41.620548 289.990337 
L 41.620548 285.250162 
L 48.691568 285.250162 
L 48.691568 282.090045 
L 53.708537 282.090045 
L 53.708537 280.509987 
L 57.6 280.509987 
L 57.6 279.456615 
L 60.779557 279.456615 
L 60.779557 278.403243 
L 63.467834 278.403243 
L 63.467834 277.876557 
L 69.687988 277.876557 
L 69.687988 276.823185 
L 78.941764 276.823185 
L 78.941764 275.769812 
L 82.626842 275.769812 
L 82.626842 275.243126 
L 84.213325 275.243126 
L 84.213325 273.663068 
L 86.351421 273.663068 
L 86.351421 272.609696 
L 89.418828 272.609696 
L 89.418828 271.556324 
L 94.714831 271.556324 
L 94.714831 271.029638 
L 95.125186 271.029638 
L 95.125186 270.502952 
L 95.918017 270.502952 
L 95.918017 269.976266 
L 96.301313 269.976266 
L 96.301313 269.449579 
L 98.100772 269.449579 
L 98.100772 268.396207 
L 98.43941 268.396207 
L 98.43941 267.869521 
L 99.41757 267.869521 
L 99.41757 267.342835 
L 102.597126 267.342835 
L 102.597126 266.289463 
L 103.623262 266.289463 
L 103.623262 265.762777 
L 104.355088 265.762777 
L 104.355088 264.709405 
L 105.285403 264.709405 
L 105.285403 264.182719 
L 106.593963 264.182719 
L 106.593963 263.656033 
L 108.006005 263.656033 
L 108.006005 263.129347 
L 109.131511 263.129347 
L 109.131511 262.60266 
L 109.31223 262.60266 
L 109.31223 262.075974 
L 110.694282 262.075974 
L 110.694282 261.549288 
L 112.431755 261.549288 
L 112.431755 261.022602 
L 112.877038 261.022602 
L 112.877038 259.96923 
L 113.167699 259.96923 
L 113.167699 259.442544 
L 113.873839 259.442544 
L 113.873839 257.862486 
L 114.148479 257.862486 
L 114.148479 256.809114 
L 116.323218 256.809114 
L 116.323218 255.755741 
L 116.914437 255.755741 
L 116.914437 254.702369 
L 117.030313 254.702369 
L 117.030313 253.648997 
L 118.363901 253.648997 
L 118.363901 252.595625 
L 118.994305 252.595625 
L 118.994305 252.068939 
L 120.759333 252.068939 
L 120.759333 250.488881 
L 122.018385 250.488881 
L 122.018385 249.962195 
L 124.292765 249.962195 
L 124.368753 247.85545 
L 126.97016 247.85545 
L 126.97016 247.328764 
L 128.885774 247.328764 
L 128.885774 246.802078 
L 129.06046 246.802078 
L 129.06046 246.275392 
L 130.978796 246.275392 
L 130.978796 245.22202 
L 133.124876 245.22202 
L 133.124876 244.695334 
L 134.019394 244.695334 
L 134.019394 243.641962 
L 134.192921 243.641962 
L 134.192921 243.115275 
L 134.407429 243.115275 
L 134.407429 242.061903 
L 135.956794 242.061903 
L 135.956794 241.535217 
L 136.342635 241.535217 
L 136.342635 241.008531 
L 136.607732 241.008531 
L 136.607732 239.955159 
L 140.619053 239.955159 
L 140.619053 239.428473 
L 141.20629 239.428473 
L 141.20629 238.901787 
L 143.066785 238.901787 
L 143.066785 238.375101 
L 144.075117 238.375101 
L 144.075117 237.848415 
L 144.269971 237.848415 
L 144.269971 235.74167 
L 144.77134 235.74167 
L 144.77134 235.214984 
L 147.164632 235.214984 
L 147.164632 234.688298 
L 148.1808 234.688298 
L 148.1808 234.161612 
L 148.468742 234.161612 
L 148.506778 232.581554 
L 149.539426 232.581554 
L 149.539426 232.054868 
L 149.699829 232.054868 
L 149.699829 231.528182 
L 150.327083 231.528182 
L 150.327083 231.001496 
L 150.54816 231.001496 
L 150.54816 230.47481 
L 151.62925 230.47481 
L 151.62925 229.421437 
L 152.130233 229.421437 
L 152.130233 228.368065 
L 152.511852 228.368065 
L 152.511852 227.841379 
L 153.250915 227.841379 
L 153.250915 227.314693 
L 153.580644 227.314693 
L 153.580644 226.788007 
L 154.098334 226.788007 
L 154.098334 226.261321 
L 154.249325 226.261321 
L 154.249325 225.734635 
L 156.634302 225.734635 
L 156.634302 225.207949 
L 156.788581 225.207949 
L 156.788581 224.681263 
L 156.999969 224.681263 
L 156.999969 224.154577 
L 157.208825 224.154577 
L 157.208825 223.627891 
L 158.042106 223.627891 
L 158.042106 223.101204 
L 158.162642 223.101204 
L 158.162642 222.574518 
L 159.577838 222.574518 
L 159.577838 221.521146 
L 159.758143 221.521146 
L 159.758143 220.99446 
L 160.054568 220.99446 
L 160.054568 220.467774 
L 160.307457 220.467774 
L 160.307457 219.941088 
L 160.811875 219.941088 
L 160.886762 218.887716 
L 163.168687 218.887716 
L 163.168687 218.36103 
L 163.637643 218.36103 
L 163.637643 217.834344 
L 163.796472 217.834344 
L 163.796472 217.307658 
L 163.985177 217.307658 
L 163.985177 216.780971 
L 164.727712 216.780971 
L 164.727712 216.254285 
L 164.921483 216.254285 
L 165.010195 214.674227 
L 165.273656 214.674227 
L 165.280918 213.620855 
L 165.718267 213.620855 
L 165.718267 213.094169 
L 166.117256 213.094169 
L 166.117256 212.567483 
L 166.541125 212.567483 
L 166.541125 212.040797 
L 166.921925 212.040797 
L 166.974711 210.987425 
L 167.073257 210.987425 
L 167.073257 210.460738 
L 167.223287 210.460738 
L 167.223287 209.934052 
L 167.378477 209.934052 
L 167.378477 208.88068 
L 167.615054 208.88068 
L 167.615054 208.353994 
L 167.842196 208.353994 
L 167.873511 207.300622 
L 168.066419 207.300622 
L 168.066419 206.24725 
L 168.281683 206.24725 
L 168.281683 205.193878 
L 169.400311 205.193878 
L 169.400311 204.667192 
L 169.740933 204.667192 
L 169.740933 204.140506 
L 169.853011 204.140506 
L 169.853011 203.613819 
L 170.223309 203.613819 
L 170.316028 201.507075 
L 170.666063 201.507075 
L 170.666063 200.980389 
L 171.07183 200.980389 
L 171.07183 200.453703 
L 171.422484 200.453703 
L 171.49381 199.400331 
L 171.994974 199.400331 
L 171.994974 198.873645 
L 172.118046 198.873645 
L 172.118046 198.346959 
L 172.549266 198.346959 
L 172.549266 197.293586 
L 172.876395 197.293586 
L 172.965407 195.186842 
L 173.321559 195.186842 
L 173.321559 194.660156 
L 173.715403 194.660156 
L 173.715403 193.606784 
L 173.875806 193.606784 
L 173.897968 192.553412 
L 174.034747 192.553412 
L 174.100548 191.50004 
L 174.816832 191.50004 
L 174.917395 189.919981 
L 175.170413 189.919981 
L 175.268964 187.286551 
L 175.617599 187.286551 
L 175.725632 186.233179 
L 175.990858 186.233179 
L 175.990858 185.706493 
L 176.127822 185.706493 
L 176.127822 185.179807 
L 176.55521 185.179807 
L 176.593204 184.126434 
L 176.957514 184.126434 
L 176.957514 182.01969 
L 177.157076 182.01969 
L 177.157076 181.493004 
L 177.281564 181.493004 
L 177.365276 178.332888 
L 177.40517 178.332888 
L 177.40517 177.806202 
L 177.795631 177.806202 
L 177.795631 177.279515 
L 178.062798 177.279515 
L 178.062798 176.752829 
L 178.308742 176.752829 
L 178.346538 174.646085 
L 178.723416 174.646085 
L 178.813871 173.592713 
L 178.873915 173.592713 
L 178.97353 172.539341 
L 179.102185 172.539341 
L 179.102185 170.959282 
L 179.27877 170.959282 
L 179.382576 168.852538 
L 179.741105 168.852538 
L 179.794886 167.27248 
L 179.879964 167.27248 
L 179.883107 165.165736 
L 180.002125 165.165736 
L 180.079986 163.585677 
L 180.332958 163.585677 
L 180.342143 162.532305 
L 180.543017 162.532305 
L 180.543017 162.005619 
L 180.771496 162.005619 
L 180.771496 161.478933 
L 180.917233 161.478933 
L 180.937953 157.79213 
L 181.143816 157.79213 
L 181.178864 155.685386 
L 181.335714 155.685386 
L 181.335714 154.632014 
L 182.074549 154.632014 
L 182.099476 153.051956 
L 182.311297 153.051956 
L 182.335888 150.945211 
L 182.796652 150.945211 
L 182.796652 150.418525 
L 183.050088 150.418525 
L 183.146792 149.365153 
L 183.21183 149.365153 
L 183.245554 147.785095 
L 183.325711 147.785095 
L 183.35149 146.731723 
L 183.441416 146.731723 
L 183.528331 144.098292 
L 183.627498 144.098292 
L 183.627498 143.571606 
L 183.831675 143.571606 
L 183.876725 141.464862 
L 183.95155 141.464862 
L 183.988843 139.358118 
L 184.147068 139.358118 
L 184.193766 137.778059 
L 184.449604 137.778059 
L 184.555706 136.724687 
L 184.613309 136.724687 
L 184.613309 136.198001 
L 184.744603 136.198001 
L 184.744603 135.671315 
L 184.980815 135.671315 
L 184.990197 134.617943 
L 185.17679 134.617943 
L 185.26011 132.511199 
L 185.317738 132.511199 
L 185.317738 131.984513 
L 185.452989 131.984513 
L 185.544091 129.877768 
L 185.623418 129.877768 
L 185.643758 128.824396 
L 185.83693 128.824396 
L 185.83693 128.29771 
L 186.109546 128.29771 
L 186.109546 127.771024 
L 186.25627 127.771024 
L 186.25627 126.717652 
L 186.466528 126.717652 
L 186.546066 125.137593 
L 186.693433 125.137593 
L 186.782528 119.344047 
L 186.818461 119.344047 
L 186.921621 116.710616 
L 187.024175 116.710616 
L 187.099138 115.130558 
L 187.136499 115.130558 
L 187.188257 113.5505 
L 187.264577 113.5505 
L 187.309799 111.970441 
L 187.49765 111.970441 
L 187.49765 111.443755 
L 187.677469 111.443755 
L 187.677469 110.917069 
L 187.833553 110.917069 
L 187.833553 110.390383 
L 187.956631 110.390383 
L 188.041484 108.283639 
L 188.120049 108.283639 
L 188.182646 106.703581 
L 188.56123 106.703581 
L 188.658406 104.596836 
L 188.785252 104.596836 
L 188.881191 103.016778 
L 188.913054 103.016778 
L 188.95607 101.43672 
L 189.069645 101.43672 
L 189.175108 98.803289 
L 189.184329 98.803289 
L 189.243227 97.223231 
L 189.340341 97.223231 
L 189.433283 95.643173 
L 189.462339 95.643173 
L 189.563657 93.536429 
L 189.710961 93.536429 
L 189.789492 91.429684 
L 189.833955 91.429684 
L 189.876534 89.32294 
L 189.959616 89.32294 
L 190.049323 87.216196 
L 190.154274 87.216196 
L 190.242989 83.529393 
L 190.453394 83.529393 
L 190.504746 81.422649 
L 190.662985 81.422649 
L 190.771052 78.262532 
L 190.828191 78.262532 
L 190.918559 76.682474 
L 190.97189 76.682474 
L 191.064829 72.468985 
L 191.099554 72.468985 
L 191.099554 71.942299 
L 191.218088 71.942299 
L 191.319518 67.728811 
L 191.462477 67.728811 
L 191.548015 65.622066 
L 191.609087 65.622066 
L 191.67634 63.515322 
L 191.79738 63.515322 
L 191.865493 61.935264 
L 191.912857 61.935264 
L 191.912857 60.881892 
L 192.033838 60.881892 
L 192.143097 58.775147 
L 192.239301 58.775147 
L 192.291834 57.195089 
L 192.42554 57.195089 
L 192.436253 56.141717 
L 192.558228 56.141717 
L 192.635544 54.034973 
L 192.697452 54.034973 
L 192.792154 51.928228 
L 192.896778 51.928228 
L 192.959252 49.821484 
L 193.018544 49.821484 
L 193.127706 48.768112 
L 193.133587 48.768112 
L 193.148282 47.71474 
L 193.309108 47.71474 
L 193.407791 46.134681 
L 193.520303 46.134681 
L 193.551906 44.554623 
L 193.711914 44.554623 
L 193.794201 42.974565 
L 193.825313 42.974565 
L 193.843671 41.394507 
L 193.964631 41.394507 
L 194.066652 38.23439 
L 194.159765 38.23439 
L 194.222026 37.181018 
L 194.397918 37.181018 
L 194.397918 36.127646 
L 194.661168 36.127646 
L 194.661168 35.074274 
L 194.870008 35.074274 
L 194.965559 34.020902 
L 195.034244 34.020902 
L 195.139387 32.967529 
L 196.230134 32.967529 
L 196.230134 32.440843 
L 196.490363 32.440843 
L 196.490363 31.914157 
L 196.901423 31.914157 
L 196.901423 30.860785 
L 197.526128 30.860785 
L 197.526128 30.334099 
L 338.688 30.334099 
L 338.688 30.334099 
" style="fill:none;stroke:#ff00ff;stroke-linecap:square;stroke-width:1.5;"/>
   </g>
   <g id="line2d_40">
    <defs>
     <path d="M 0 8.485281 
L 5.091169 0 
L 0 -8.485281 
L -5.091169 0 
z
" id="m2a51488f3b" style="stroke:#ff00ff;stroke-linejoin:miter;stroke-width:1.5;"/>
    </defs>
    <g>
     <use style="fill-opacity:0;stroke:#ff00ff;stroke-linejoin:miter;stroke-width:1.5;" x="86.351421" xlink:href="#m2a51488f3b" y="272.609696"/>
     <use style="fill-opacity:0;stroke:#ff00ff;stroke-linejoin:miter;stroke-width:1.5;" x="160.886762" xlink:href="#m2a51488f3b" y="218.887716"/>
     <use style="fill-opacity:0;stroke:#ff00ff;stroke-linejoin:miter;stroke-width:1.5;" x="190.154274" xlink:href="#m2a51488f3b" y="87.216196"/>
     <use style="fill-opacity:0;stroke:#ff00ff;stroke-linejoin:miter;stroke-width:1.5;" x="197.526128" xlink:href="#m2a51488f3b" y="30.860785"/>
     <use style="fill-opacity:0;stroke:#ff00ff;stroke-linejoin:miter;stroke-width:1.5;" x="197.526128" xlink:href="#m2a51488f3b" y="30.334099"/>
     <use style="fill-opacity:0;stroke:#ff00ff;stroke-linejoin:miter;stroke-width:1.5;" x="338.688" xlink:href="#m2a51488f3b" y="30.334099"/>
    </g>
   </g>
   <g id="line2d_41">
    <path style="fill:none;stroke:#ff00ff;stroke-linecap:square;stroke-width:1.5;"/>
    <g/>
   </g>
   <g id="line2d_42">
    <defs>
     <path d="M 0 1.5 
C 0.397805 1.5 0.77937 1.341951 1.06066 1.06066 
C 1.341951 0.77937 1.5 0.397805 1.5 0 
C 1.5 -0.397805 1.341951 -0.77937 1.06066 -1.06066 
C 0.77937 -1.341951 0.397805 -1.5 0 -1.5 
C -0.397805 -1.5 -0.77937 -1.341951 -1.06066 -1.06066 
C -1.341951 -0.77937 -1.5 -0.397805 -1.5 0 
C -1.5 0.397805 -1.341951 0.77937 -1.06066 1.06066 
C -0.77937 1.341951 -0.397805 1.5 0 1.5 
z
" id="m0bc98920dd" style="stroke:#ff7500;"/>
    </defs>
    <g>
     <use style="fill:#ff7500;stroke:#ff7500;" x="258.330168" xlink:href="#m0bc98920dd" y="30.334099"/>
     <use style="fill:#ff7500;stroke:#ff7500;" x="258.330168" xlink:href="#m0bc98920dd" y="30.334099"/>
    </g>
   </g>
   <g id="line2d_43">
    <path d="M 29.53256 298.944 
L 29.53256 291.043709 
L 41.620548 291.043709 
L 41.620548 286.83022 
L 48.691568 286.83022 
L 48.691568 283.670104 
L 53.708537 283.670104 
L 53.708537 281.563359 
L 57.6 281.563359 
L 57.6 279.983301 
L 60.779557 279.983301 
L 60.779557 279.456615 
L 67.850577 279.456615 
L 67.850577 277.876557 
L 69.687988 277.876557 
L 69.687988 276.823185 
L 71.35013 276.823185 
L 71.35013 274.71644 
L 75.555822 274.71644 
L 75.555822 272.609696 
L 76.759008 272.609696 
L 76.759008 272.08301 
L 78.941764 272.08301 
L 78.941764 271.556324 
L 85.66744 271.556324 
L 85.66744 271.029638 
L 86.351421 271.029638 
L 86.351421 270.502952 
L 88.255778 270.502952 
L 88.255778 269.976266 
L 94.294587 269.976266 
L 94.294587 269.449579 
L 94.714831 269.449579 
L 94.714831 268.922893 
L 95.526106 268.922893 
L 95.526106 268.396207 
L 96.301313 268.396207 
L 96.301313 267.869521 
L 97.755429 267.869521 
L 97.755429 267.342835 
L 98.771596 267.342835 
L 98.771596 266.816149 
L 101.506816 266.816149 
L 101.506816 266.289463 
L 102.859376 266.289463 
L 102.859376 265.762777 
L 103.623262 265.762777 
L 103.623262 265.236091 
L 104.592361 265.236091 
L 104.592361 264.709405 
L 106.168594 264.709405 
L 106.168594 262.60266 
L 106.382575 262.60266 
L 106.382575 262.075974 
L 106.802819 262.075974 
L 106.802819 261.022602 
L 108.948899 261.022602 
L 108.948899 260.495916 
L 109.131511 260.495916 
L 109.131511 259.96923 
L 109.31223 259.96923 
L 109.31223 259.442544 
L 109.491096 259.442544 
L 109.491096 258.915858 
L 110.527398 258.915858 
L 110.527398 257.862486 
L 112.58145 257.862486 
L 112.58145 257.3358 
L 113.167699 257.3358 
L 113.167699 256.282427 
L 113.311233 256.282427 
L 113.311233 255.755741 
L 113.873839 255.755741 
L 113.873839 254.702369 
L 119.199476 254.702369 
L 119.199476 254.175683 
L 119.996839 254.175683 
L 120.093994 252.068939 
L 120.852343 252.068939 
L 120.852343 250.488881 
L 122.018385 250.488881 
L 122.018385 249.435508 
L 123.434283 249.435508 
L 123.434283 247.328764 
L 123.751369 247.328764 
L 123.751369 246.802078 
L 124.062793 246.802078 
L 124.139788 245.748706 
L 124.743806 245.748706 
L 124.743806 244.695334 
L 125.470548 244.695334 
L 125.470548 244.168648 
L 126.099688 244.168648 
L 126.099688 243.641962 
L 126.439646 243.641962 
L 126.439646 243.115275 
L 126.839037 243.115275 
L 126.839037 241.535217 
L 128.229861 241.535217 
L 128.229861 241.008531 
L 129.175952 241.008531 
L 129.175952 240.481845 
L 129.853291 240.481845 
L 129.853291 239.955159 
L 130.822389 239.955159 
L 130.822389 239.428473 
L 131.490249 239.428473 
L 131.490249 238.375101 
L 132.326708 238.375101 
L 132.326708 237.848415 
L 132.893889 237.848415 
L 132.940331 236.268356 
L 133.078923 236.268356 
L 133.078923 235.74167 
L 133.262014 235.74167 
L 133.262014 235.214984 
L 133.443203 235.214984 
L 133.443203 234.688298 
L 134.019394 234.688298 
L 134.019394 234.161612 
L 134.321942 234.161612 
L 134.321942 233.634926 
L 134.661403 233.634926 
L 134.661403 233.10824 
L 135.117629 233.10824 
L 135.117629 232.581554 
L 135.482227 232.581554 
L 135.482227 232.054868 
L 136.189322 232.054868 
L 136.189322 231.528182 
L 136.342635 231.528182 
L 136.342635 231.001496 
L 136.720123 231.001496 
L 136.720123 230.47481 
L 137.945701 230.47481 
L 138.01518 229.421437 
L 139.220677 229.421437 
L 139.220677 228.894751 
L 139.572998 228.894751 
L 139.572998 228.368065 
L 139.730821 228.368065 
L 139.730821 227.841379 
L 140.195896 227.841379 
L 140.195896 226.788007 
L 142.188649 226.788007 
L 142.188649 226.261321 
L 143.221802 226.261321 
L 143.221802 225.207949 
L 147.590249 225.207949 
L 147.590249 224.681263 
L 148.27731 224.681263 
L 148.27731 224.154577 
L 161.7078 224.154577 
L 161.7078 223.627891 
L 167.171249 223.627891 
L 167.171249 223.101204 
L 167.810825 223.101204 
L 167.810825 222.574518 
L 168.68052 222.574518 
L 168.68052 222.047832 
L 170.234242 222.047832 
L 170.234242 221.521146 
L 171.488725 221.521146 
L 171.54458 220.467774 
L 171.910786 220.467774 
L 171.910786 219.941088 
L 172.616138 219.941088 
L 172.616138 219.414402 
L 173.206721 219.414402 
L 173.206721 218.887716 
L 175.488687 218.887716 
L 175.597519 216.780971 
L 177.248698 216.780971 
L 177.248698 215.727599 
L 177.502707 215.727599 
L 177.502707 214.674227 
L 177.742414 214.674227 
L 177.742414 214.147541 
L 178.160204 214.147541 
L 178.160204 213.620855 
L 178.411629 213.620855 
L 178.411629 212.040797 
L 178.588541 212.040797 
L 178.666222 210.987425 
L 180.048884 210.987425 
L 180.048884 210.460738 
L 181.132117 210.460738 
L 181.132117 209.934052 
L 182.913267 209.934052 
L 182.913267 208.88068 
L 184.208487 208.88068 
L 184.237892 207.827308 
L 184.799215 207.827308 
L 184.799215 207.300622 
L 185.025336 207.300622 
L 185.025336 206.773936 
L 185.317738 206.773936 
L 185.402679 205.720564 
L 185.512259 205.720564 
L 185.512259 205.193878 
L 186.173205 205.193878 
L 186.173205 204.667192 
L 186.434179 204.667192 
L 186.434179 204.140506 
L 187.151006 204.140506 
L 187.241922 203.087133 
L 187.283092 203.087133 
L 187.283092 202.560447 
L 187.958609 202.560447 
L 187.958609 202.033761 
L 188.633687 202.033761 
L 188.633687 201.507075 
L 189.138176 201.507075 
L 189.204597 200.453703 
L 189.431465 200.453703 
L 189.431465 198.873645 
L 190.516707 198.873645 
L 190.52183 197.820273 
L 190.686682 197.820273 
L 190.686682 196.7669 
L 191.119366 196.7669 
L 191.119366 196.240214 
L 191.974238 196.240214 
L 191.974238 195.713528 
L 192.132202 195.713528 
L 192.132202 195.186842 
L 192.287205 195.186842 
L 192.287205 194.660156 
L 192.466827 194.660156 
L 192.466827 194.13347 
L 192.76665 194.13347 
L 192.76665 193.606784 
L 193.517427 193.606784 
L 193.517427 193.080098 
L 193.701956 193.080098 
L 193.734653 191.50004 
L 193.909881 191.50004 
L 193.971638 190.446667 
L 194.378766 190.446667 
L 194.378766 189.393295 
L 194.854032 189.393295 
L 194.954968 186.759865 
L 195.022375 186.759865 
L 195.022375 186.233179 
L 195.617595 186.233179 
L 195.646893 184.126434 
L 195.845579 184.126434 
L 195.845579 183.599748 
L 196.03456 183.599748 
L 196.136334 182.546376 
L 196.267022 182.546376 
L 196.267022 179.912946 
L 196.433274 179.912946 
L 196.456375 177.806202 
L 196.746765 177.806202 
L 196.746765 177.279515 
L 197.3631 177.279515 
L 197.3631 176.752829 
L 198.201932 176.752829 
L 198.201932 176.226143 
L 198.450788 176.226143 
L 198.450788 175.172771 
L 198.638344 175.172771 
L 198.638344 174.646085 
L 198.970733 174.646085 
L 199.060962 172.539341 
L 199.212042 172.539341 
L 199.212042 172.012655 
L 199.351537 172.012655 
L 199.433677 168.852538 
L 199.541919 168.852538 
L 199.541919 168.325852 
L 199.918553 168.325852 
L 199.952393 167.27248 
L 200.222729 167.27248 
L 200.289175 165.165736 
L 200.880784 165.165736 
L 200.966365 164.112363 
L 201.036585 164.112363 
L 201.127915 162.532305 
L 201.331215 162.532305 
L 201.331215 162.005619 
L 201.467571 162.005619 
L 201.467571 161.478933 
L 201.902394 161.478933 
L 201.986657 160.425561 
L 202.482139 160.425561 
L 202.482139 159.898875 
L 202.68479 159.898875 
L 202.712821 158.845503 
L 202.835458 158.845503 
L 202.835458 158.318817 
L 203.167708 158.318817 
L 203.167708 157.79213 
L 203.432772 157.79213 
L 203.532659 156.738758 
L 203.836894 156.738758 
L 203.836894 156.212072 
L 203.959014 156.212072 
L 204.048081 153.578642 
L 204.087346 153.578642 
L 204.131218 151.471897 
L 204.20851 151.471897 
L 204.20851 150.945211 
L 204.761308 150.945211 
L 204.80653 149.365153 
L 205.0138 149.365153 
L 205.0138 148.838467 
L 205.43199 148.838467 
L 205.439976 147.785095 
L 205.586711 147.785095 
L 205.682898 145.151665 
L 205.713652 145.151665 
L 205.713652 144.624978 
L 205.902701 144.624978 
L 205.91542 143.571606 
L 206.052619 143.571606 
L 206.063829 141.991548 
L 206.173442 141.991548 
L 206.237355 140.41149 
L 206.310705 140.41149 
L 206.310705 139.358118 
L 206.74781 139.358118 
L 206.811669 138.304745 
L 206.859912 138.304745 
L 206.914694 137.251373 
L 207.016451 137.251373 
L 207.016451 136.724687 
L 207.340353 136.724687 
L 207.422827 134.617943 
L 207.6462 134.617943 
L 207.655792 132.511199 
L 207.825647 132.511199 
L 207.887578 131.457826 
L 208.012037 131.457826 
L 208.030817 130.404454 
L 208.221847 130.404454 
L 208.277455 128.29771 
L 208.388142 128.29771 
L 208.388142 127.771024 
L 208.589868 127.771024 
L 208.589868 127.244338 
L 208.997108 127.244338 
L 209.073302 124.610907 
L 209.310376 124.610907 
L 209.36842 121.450791 
L 209.53968 121.450791 
L 209.551152 120.397419 
L 209.671729 120.397419 
L 209.684253 116.710616 
L 209.896361 116.710616 
L 209.955292 115.130558 
L 210.155842 115.130558 
L 210.229906 111.970441 
L 210.366702 111.970441 
L 210.400052 110.390383 
L 210.656504 110.390383 
L 210.767026 107.230267 
L 210.772373 107.230267 
L 210.871536 106.176895 
L 211.183972 106.176895 
L 211.183972 105.650209 
L 211.335268 105.650209 
L 211.335268 105.123522 
L 211.659913 105.123522 
L 211.701529 104.07015 
L 211.819241 104.07015 
L 211.819241 103.543464 
L 212.016501 103.543464 
L 212.124694 101.963406 
L 212.158799 101.963406 
L 212.205154 100.383348 
L 212.349346 100.383348 
L 212.349346 99.329976 
L 212.63324 99.329976 
L 212.63324 98.803289 
L 212.88419 98.803289 
L 212.88419 98.276603 
L 213.03652 98.276603 
L 213.03652 97.749917 
L 213.206606 97.749917 
L 213.206606 96.696545 
L 213.349702 96.696545 
L 213.349702 96.169859 
L 213.563762 96.169859 
L 213.598806 94.063115 
L 213.719779 94.063115 
L 213.812543 91.95637 
L 213.840815 91.95637 
L 213.902583 89.32294 
L 214.098078 89.32294 
L 214.20643 86.68951 
L 214.408986 86.68951 
L 214.482181 84.582765 
L 214.530952 84.582765 
L 214.628514 83.002707 
L 214.667044 83.002707 
L 214.749384 79.842591 
L 214.894767 79.842591 
L 214.894767 79.315904 
L 215.066973 79.315904 
L 215.157017 76.155788 
L 215.328312 76.155788 
L 215.405956 75.102416 
L 215.560621 75.102416 
L 215.654625 74.049044 
L 215.702244 74.049044 
L 215.785465 72.468985 
L 215.830328 72.468985 
L 215.905375 70.362241 
L 215.974944 70.362241 
L 216.08016 68.255497 
L 216.37655 68.255497 
L 216.400572 66.148752 
L 216.641658 66.148752 
L 216.655782 65.09538 
L 216.817192 65.09538 
L 216.891884 61.935264 
L 216.963633 61.935264 
L 217.049642 57.721775 
L 217.197481 57.721775 
L 217.23 55.615031 
L 217.340408 55.615031 
L 217.44137 52.454914 
L 217.490178 52.454914 
L 217.59498 50.34817 
L 217.616298 50.34817 
L 217.724295 48.241426 
L 217.746173 48.241426 
L 217.79628 45.607995 
L 217.91489 45.607995 
L 218.001643 44.027937 
L 218.09921 44.027937 
L 218.182257 42.974565 
L 229.183081 42.974565 
L 229.183081 42.447879 
L 229.41702 42.447879 
L 229.41702 41.394507 
L 229.834699 41.394507 
L 229.923895 39.814448 
L 229.999151 39.814448 
L 230.098283 37.181018 
L 230.200014 37.181018 
L 230.289985 35.60096 
L 237.240061 35.60096 
L 237.339984 32.967529 
L 242.078793 32.967529 
L 242.078793 32.440843 
L 246.195078 32.440843 
L 246.195078 31.914157 
L 249.341055 31.914157 
L 249.390349 30.860785 
L 258.330168 30.860785 
L 258.330168 30.334099 
L 338.688 30.334099 
L 338.688 30.334099 
" style="fill:none;stroke:#ff7500;stroke-linecap:square;stroke-width:1.5;"/>
   </g>
   <g id="line2d_44">
    <defs>
     <path d="M 0 -6 
L -1.347084 -1.854102 
L -5.706339 -1.854102 
L -2.179628 0.708204 
L -3.526712 4.854102 
L -0 2.291796 
L 3.526712 4.854102 
L 2.179628 0.708204 
L 5.706339 -1.854102 
L 1.347084 -1.854102 
z
" id="m0a3b6e7f0d" style="stroke:#ff7500;stroke-linejoin:bevel;stroke-width:1.5;"/>
    </defs>
    <g>
     <use style="fill-opacity:0;stroke:#ff7500;stroke-linejoin:bevel;stroke-width:1.5;" x="113.311233" xlink:href="#m0a3b6e7f0d" y="256.282427"/>
     <use style="fill-opacity:0;stroke:#ff7500;stroke-linejoin:bevel;stroke-width:1.5;" x="197.3631" xlink:href="#m0a3b6e7f0d" y="176.752829"/>
     <use style="fill-opacity:0;stroke:#ff7500;stroke-linejoin:bevel;stroke-width:1.5;" x="217.746173" xlink:href="#m0a3b6e7f0d" y="48.241426"/>
     <use style="fill-opacity:0;stroke:#ff7500;stroke-linejoin:bevel;stroke-width:1.5;" x="258.330168" xlink:href="#m0a3b6e7f0d" y="30.860785"/>
     <use style="fill-opacity:0;stroke:#ff7500;stroke-linejoin:bevel;stroke-width:1.5;" x="258.330168" xlink:href="#m0a3b6e7f0d" y="30.334099"/>
     <use style="fill-opacity:0;stroke:#ff7500;stroke-linejoin:bevel;stroke-width:1.5;" x="338.688" xlink:href="#m0a3b6e7f0d" y="30.334099"/>
    </g>
   </g>
   <g id="line2d_45">
    <path style="fill:none;stroke:#ff7500;stroke-linecap:square;stroke-width:1.5;"/>
    <g/>
   </g>
   <g id="line2d_46">
    <path clip-path="url(#p5ba30727ef)" d="M 218.221714 42.974565 
" style="fill:none;stroke:#ff7500;stroke-linecap:square;stroke-width:1.5;"/>
    <defs>
     <path d="M -12 12 
L 12 -12 
M -12 -12 
L 12 12 
" id="m65a5bf7827" style="stroke:#ff7500;"/>
    </defs>
    <g clip-path="url(#p5ba30727ef)">
     <use style="fill:#ff7500;stroke:#ff7500;" x="218.221714" xlink:href="#m65a5bf7827" y="42.974565"/>
    </g>
   </g>
   <g id="line2d_47">
    <path d="M 338.688 30.334099 
L 369.60768 293.571802 
" style="fill:none;stroke:#ff7500;stroke-linecap:square;stroke-width:1.5;"/>
    <g>
     <use style="fill-opacity:0;stroke:#ff7500;stroke-linejoin:bevel;stroke-width:1.5;" x="338.688" xlink:href="#m0a3b6e7f0d" y="30.334099"/>
     <use style="fill-opacity:0;stroke:#ff7500;stroke-linejoin:bevel;stroke-width:1.5;" x="369.60768" xlink:href="#m0a3b6e7f0d" y="293.571802"/>
    </g>
   </g>
   <g id="line2d_48">
    <path d="M 338.688 30.334099 
L 369.60768 207.616634 
" style="fill:none;stroke:#ff00ff;stroke-linecap:square;stroke-width:1.5;"/>
    <g>
     <use style="fill-opacity:0;stroke:#ff00ff;stroke-linejoin:miter;stroke-width:1.5;" x="338.688" xlink:href="#m2a51488f3b" y="30.334099"/>
     <use style="fill-opacity:0;stroke:#ff00ff;stroke-linejoin:miter;stroke-width:1.5;" x="369.60768" xlink:href="#m2a51488f3b" y="207.616634"/>
    </g>
   </g>
   <g id="line2d_49">
    <path d="M 338.688 30.334099 
L 369.60768 121.661465 
" style="fill:none;stroke:#000080;stroke-linecap:square;stroke-width:1.5;"/>
    <g>
     <use style="fill-opacity:0;stroke:#000080;stroke-width:1.5;" x="338.688" xlink:href="#m07f2c3ba7b" y="30.334099"/>
     <use style="fill-opacity:0;stroke:#000080;stroke-width:1.5;" x="369.60768" xlink:href="#m07f2c3ba7b" y="121.661465"/>
    </g>
   </g>
   <g id="line2d_50">
    <path d="M 338.688 298.944 
L 338.688 30.334099 
" style="fill:none;stroke:#000000;stroke-linecap:square;stroke-width:1.5;"/>
   </g>
   <g id="patch_3">
    <path d="M 57.6 298.944 
L 57.6 27.648 
" style="fill:none;stroke:#000000;stroke-linecap:square;stroke-linejoin:miter;stroke-width:0.8;"/>
   </g>
   <g id="patch_4">
    <path d="M 338.688 298.944 
L 338.688 27.648 
" style="fill:none;stroke:#000000;stroke-linecap:square;stroke-linejoin:miter;stroke-width:0.8;"/>
   </g>
   <g id="patch_5">
    <path d="M 57.6 298.944 
L 338.688 298.944 
" style="fill:none;stroke:#000000;stroke-linecap:square;stroke-linejoin:miter;stroke-width:0.8;"/>
   </g>
   <g id="patch_6">
    <path d="M 57.6 27.648 
L 338.688 27.648 
" style="fill:none;stroke:#000000;stroke-linecap:square;stroke-linejoin:miter;stroke-width:0.8;"/>
   </g>
   <g id="text_13">
    <!-- PSO EDA -->
    <g transform="translate(375.22944 298.262739)scale(0.17 -0.17)">
     <defs>
      <path d="M 1259 4147 
L 1259 2394 
L 2053 2394 
Q 2494 2394 2734 2622 
Q 2975 2850 2975 3272 
Q 2975 3691 2734 3919 
Q 2494 4147 2053 4147 
L 1259 4147 
z
M 628 4666 
L 2053 4666 
Q 2838 4666 3239 4311 
Q 3641 3956 3641 3272 
Q 3641 2581 3239 2228 
Q 2838 1875 2053 1875 
L 1259 1875 
L 1259 0 
L 628 0 
L 628 4666 
z
" id="DejaVuSans-50" transform="scale(0.015625)"/>
      <path d="M 3425 4513 
L 3425 3897 
Q 3066 4069 2747 4153 
Q 2428 4238 2131 4238 
Q 1616 4238 1336 4038 
Q 1056 3838 1056 3469 
Q 1056 3159 1242 3001 
Q 1428 2844 1947 2747 
L 2328 2669 
Q 3034 2534 3370 2195 
Q 3706 1856 3706 1288 
Q 3706 609 3251 259 
Q 2797 -91 1919 -91 
Q 1588 -91 1214 -16 
Q 841 59 441 206 
L 441 856 
Q 825 641 1194 531 
Q 1563 422 1919 422 
Q 2459 422 2753 634 
Q 3047 847 3047 1241 
Q 3047 1584 2836 1778 
Q 2625 1972 2144 2069 
L 1759 2144 
Q 1053 2284 737 2584 
Q 422 2884 422 3419 
Q 422 4038 858 4394 
Q 1294 4750 2059 4750 
Q 2388 4750 2728 4690 
Q 3069 4631 3425 4513 
z
" id="DejaVuSans-53" transform="scale(0.015625)"/>
      <path d="M 2522 4238 
Q 1834 4238 1429 3725 
Q 1025 3213 1025 2328 
Q 1025 1447 1429 934 
Q 1834 422 2522 422 
Q 3209 422 3611 934 
Q 4013 1447 4013 2328 
Q 4013 3213 3611 3725 
Q 3209 4238 2522 4238 
z
M 2522 4750 
Q 3503 4750 4090 4092 
Q 4678 3434 4678 2328 
Q 4678 1225 4090 567 
Q 3503 -91 2522 -91 
Q 1538 -91 948 565 
Q 359 1222 359 2328 
Q 359 3434 948 4092 
Q 1538 4750 2522 4750 
z
" id="DejaVuSans-4f" transform="scale(0.015625)"/>
      <path d="M 628 4666 
L 3578 4666 
L 3578 4134 
L 1259 4134 
L 1259 2753 
L 3481 2753 
L 3481 2222 
L 1259 2222 
L 1259 531 
L 3634 531 
L 3634 0 
L 628 0 
L 628 4666 
z
" id="DejaVuSans-45" transform="scale(0.015625)"/>
      <path d="M 1259 4147 
L 1259 519 
L 2022 519 
Q 2988 519 3436 956 
Q 3884 1394 3884 2338 
Q 3884 3275 3436 3711 
Q 2988 4147 2022 4147 
L 1259 4147 
z
M 628 4666 
L 1925 4666 
Q 3281 4666 3915 4102 
Q 4550 3538 4550 2338 
Q 4550 1131 3912 565 
Q 3275 0 1925 0 
L 628 0 
L 628 4666 
z
" id="DejaVuSans-44" transform="scale(0.015625)"/>
      <path d="M 2188 4044 
L 1331 1722 
L 3047 1722 
L 2188 4044 
z
M 1831 4666 
L 2547 4666 
L 4325 0 
L 3669 0 
L 3244 1197 
L 1141 1197 
L 716 0 
L 50 0 
L 1831 4666 
z
" id="DejaVuSans-41" transform="scale(0.015625)"/>
     </defs>
     <use xlink:href="#DejaVuSans-50"/>
     <use x="60.302734" xlink:href="#DejaVuSans-53"/>
     <use x="123.779297" xlink:href="#DejaVuSans-4f"/>
     <use x="202.490234" xlink:href="#DejaVuSans-20"/>
     <use x="234.277344" xlink:href="#DejaVuSans-45"/>
     <use x="297.460938" xlink:href="#DejaVuSans-44"/>
     <use x="372.712891" xlink:href="#DejaVuSans-41"/>
    </g>
   </g>
   <g id="text_14">
    <!-- PSO Bound -->
    <g transform="translate(375.22944 212.307571)scale(0.17 -0.17)">
     <defs>
      <path d="M 1259 2228 
L 1259 519 
L 2272 519 
Q 2781 519 3026 730 
Q 3272 941 3272 1375 
Q 3272 1813 3026 2020 
Q 2781 2228 2272 2228 
L 1259 2228 
z
M 1259 4147 
L 1259 2741 
L 2194 2741 
Q 2656 2741 2882 2914 
Q 3109 3088 3109 3444 
Q 3109 3797 2882 3972 
Q 2656 4147 2194 4147 
L 1259 4147 
z
M 628 4666 
L 2241 4666 
Q 2963 4666 3353 4366 
Q 3744 4066 3744 3513 
Q 3744 3084 3544 2831 
Q 3344 2578 2956 2516 
Q 3422 2416 3680 2098 
Q 3938 1781 3938 1306 
Q 3938 681 3513 340 
Q 3088 0 2303 0 
L 628 0 
L 628 4666 
z
" id="DejaVuSans-42" transform="scale(0.015625)"/>
     </defs>
     <use xlink:href="#DejaVuSans-50"/>
     <use x="60.302734" xlink:href="#DejaVuSans-53"/>
     <use x="123.779297" xlink:href="#DejaVuSans-4f"/>
     <use x="202.490234" xlink:href="#DejaVuSans-20"/>
     <use x="234.277344" xlink:href="#DejaVuSans-42"/>
     <use x="302.880859" xlink:href="#DejaVuSans-6f"/>
     <use x="364.0625" xlink:href="#DejaVuSans-75"/>
     <use x="427.441406" xlink:href="#DejaVuSans-6e"/>
     <use x="490.820312" xlink:href="#DejaVuSans-64"/>
    </g>
   </g>
   <g id="text_15">
    <!-- PSO -->
    <g transform="translate(375.22944 126.352403)scale(0.17 -0.17)">
     <use xlink:href="#DejaVuSans-50"/>
     <use x="60.302734" xlink:href="#DejaVuSans-53"/>
     <use x="123.779297" xlink:href="#DejaVuSans-4f"/>
    </g>
   </g>
   <g id="text_16">
    <!-- best 2009 -->
    <g transform="translate(375.22944 40.397235)scale(0.17 -0.17)">
     <defs>
      <path d="M 3116 1747 
Q 3116 2381 2855 2742 
Q 2594 3103 2138 3103 
Q 1681 3103 1420 2742 
Q 1159 2381 1159 1747 
Q 1159 1113 1420 752 
Q 1681 391 2138 391 
Q 2594 391 2855 752 
Q 3116 1113 3116 1747 
z
M 1159 2969 
Q 1341 3281 1617 3432 
Q 1894 3584 2278 3584 
Q 2916 3584 3314 3078 
Q 3713 2572 3713 1747 
Q 3713 922 3314 415 
Q 2916 -91 2278 -91 
Q 1894 -91 1617 61 
Q 1341 213 1159 525 
L 1159 0 
L 581 0 
L 581 4863 
L 1159 4863 
L 1159 2969 
z
" id="DejaVuSans-62" transform="scale(0.015625)"/>
      <path d="M 703 97 
L 703 672 
Q 941 559 1184 500 
Q 1428 441 1663 441 
Q 2288 441 2617 861 
Q 2947 1281 2994 2138 
Q 2813 1869 2534 1725 
Q 2256 1581 1919 1581 
Q 1219 1581 811 2004 
Q 403 2428 403 3163 
Q 403 3881 828 4315 
Q 1253 4750 1959 4750 
Q 2769 4750 3195 4129 
Q 3622 3509 3622 2328 
Q 3622 1225 3098 567 
Q 2575 -91 1691 -91 
Q 1453 -91 1209 -44 
Q 966 3 703 97 
z
M 1959 2075 
Q 2384 2075 2632 2365 
Q 2881 2656 2881 3163 
Q 2881 3666 2632 3958 
Q 2384 4250 1959 4250 
Q 1534 4250 1286 3958 
Q 1038 3666 1038 3163 
Q 1038 2656 1286 2365 
Q 1534 2075 1959 2075 
z
" id="DejaVuSans-39" transform="scale(0.015625)"/>
     </defs>
     <use xlink:href="#DejaVuSans-62"/>
     <use x="63.476562" xlink:href="#DejaVuSans-65"/>
     <use x="125" xlink:href="#DejaVuSans-73"/>
     <use x="177.099609" xlink:href="#DejaVuSans-74"/>
     <use x="216.308594" xlink:href="#DejaVuSans-20"/>
     <use x="248.095703" xlink:href="#DejaVuSans-32"/>
     <use x="311.71875" xlink:href="#DejaVuSans-30"/>
     <use x="375.341797" xlink:href="#DejaVuSans-30"/>
     <use x="438.964844" xlink:href="#DejaVuSans-39"/>
    </g>
   </g>
   <g id="text_17">
    <!-- bbob f1, 5-D -->
    <g transform="translate(60.41088 38.111366)scale(0.102 -0.102)">
     <defs>
      <path d="M 691 4666 
L 3169 4666 
L 3169 4134 
L 1269 4134 
L 1269 2991 
Q 1406 3038 1543 3061 
Q 1681 3084 1819 3084 
Q 2600 3084 3056 2656 
Q 3513 2228 3513 1497 
Q 3513 744 3044 326 
Q 2575 -91 1722 -91 
Q 1428 -91 1123 -41 
Q 819 9 494 109 
L 494 744 
Q 775 591 1075 516 
Q 1375 441 1709 441 
Q 2250 441 2565 725 
Q 2881 1009 2881 1497 
Q 2881 1984 2565 2268 
Q 2250 2553 1709 2553 
Q 1456 2553 1204 2497 
Q 953 2441 691 2322 
L 691 4666 
z
" id="DejaVuSans-35" transform="scale(0.015625)"/>
     </defs>
     <use xlink:href="#DejaVuSans-62"/>
     <use x="63.476562" xlink:href="#DejaVuSans-62"/>
     <use x="126.953125" xlink:href="#DejaVuSans-6f"/>
     <use x="188.134766" xlink:href="#DejaVuSans-62"/>
     <use x="251.611328" xlink:href="#DejaVuSans-20"/>
     <use x="283.398438" xlink:href="#DejaVuSans-66"/>
     <use x="318.603516" xlink:href="#DejaVuSans-31"/>
     <use x="382.226562" xlink:href="#DejaVuSans-2c"/>
     <use x="414.013672" xlink:href="#DejaVuSans-20"/>
     <use x="445.800781" xlink:href="#DejaVuSans-35"/>
     <use x="509.423828" xlink:href="#DejaVuSans-2d"/>
     <use x="545.507812" xlink:href="#DejaVuSans-44"/>
    </g>
    <!-- 51 targets: 100..1e-08 -->
    <g transform="translate(60.41088 49.533135)scale(0.102 -0.102)">
     <defs>
      <path d="M 750 794 
L 1409 794 
L 1409 0 
L 750 0 
L 750 794 
z
M 750 3309 
L 1409 3309 
L 1409 2516 
L 750 2516 
L 750 3309 
z
" id="DejaVuSans-3a" transform="scale(0.015625)"/>
     </defs>
     <use xlink:href="#DejaVuSans-35"/>
     <use x="63.623047" xlink:href="#DejaVuSans-31"/>
     <use x="127.246094" xlink:href="#DejaVuSans-20"/>
     <use x="159.033203" xlink:href="#DejaVuSans-74"/>
     <use x="198.242188" xlink:href="#DejaVuSans-61"/>
     <use x="259.521484" xlink:href="#DejaVuSans-72"/>
     <use x="298.884766" xlink:href="#DejaVuSans-67"/>
     <use x="362.361328" xlink:href="#DejaVuSans-65"/>
     <use x="423.884766" xlink:href="#DejaVuSans-74"/>
     <use x="463.09375" xlink:href="#DejaVuSans-73"/>
     <use x="515.193359" xlink:href="#DejaVuSans-3a"/>
     <use x="548.884766" xlink:href="#DejaVuSans-20"/>
     <use x="580.671875" xlink:href="#DejaVuSans-31"/>
     <use x="644.294922" xlink:href="#DejaVuSans-30"/>
     <use x="707.917969" xlink:href="#DejaVuSans-30"/>
     <use x="771.541016" xlink:href="#DejaVuSans-2e"/>
     <use x="803.328125" xlink:href="#DejaVuSans-2e"/>
     <use x="835.115234" xlink:href="#DejaVuSans-31"/>
     <use x="898.738281" xlink:href="#DejaVuSans-65"/>
     <use x="960.261719" xlink:href="#DejaVuSans-2d"/>
     <use x="996.345703" xlink:href="#DejaVuSans-30"/>
     <use x="1059.96875" xlink:href="#DejaVuSans-38"/>
    </g>
    <!-- 15 instances -->
    <g transform="translate(60.41088 60.954904)scale(0.102 -0.102)">
     <use xlink:href="#DejaVuSans-31"/>
     <use x="63.623047" xlink:href="#DejaVuSans-35"/>
     <use x="127.246094" xlink:href="#DejaVuSans-20"/>
     <use x="159.033203" xlink:href="#DejaVuSans-69"/>
     <use x="186.816406" xlink:href="#DejaVuSans-6e"/>
     <use x="250.195312" xlink:href="#DejaVuSans-73"/>
     <use x="302.294922" xlink:href="#DejaVuSans-74"/>
     <use x="341.503906" xlink:href="#DejaVuSans-61"/>
     <use x="402.783203" xlink:href="#DejaVuSans-6e"/>
     <use x="466.162109" xlink:href="#DejaVuSans-63"/>
     <use x="521.142578" xlink:href="#DejaVuSans-65"/>
     <use x="582.666016" xlink:href="#DejaVuSans-73"/>
    </g>
   </g>
   <g id="text_18">
    <!-- v2.4 -->
    <g style="fill:#808080;" transform="translate(187.233062 294.151352)scale(0.1 -0.1)">
     <use xlink:href="#DejaVuSans-76"/>
     <use x="59.179688" xlink:href="#DejaVuSans-32"/>
     <use x="122.802734" xlink:href="#DejaVuSans-2e"/>
     <use x="154.589844" xlink:href="#DejaVuSans-34"/>
    </g>
   </g>
   <g id="text_19">
    <!-- 1 Sphere -->
    <g transform="translate(153.376812 21.648)scale(0.2 -0.2)">
     <defs>
      <path d="M 3513 2113 
L 3513 0 
L 2938 0 
L 2938 2094 
Q 2938 2591 2744 2837 
Q 2550 3084 2163 3084 
Q 1697 3084 1428 2787 
Q 1159 2491 1159 1978 
L 1159 0 
L 581 0 
L 581 4863 
L 1159 4863 
L 1159 2956 
Q 1366 3272 1645 3428 
Q 1925 3584 2291 3584 
Q 2894 3584 3203 3211 
Q 3513 2838 3513 2113 
z
" id="DejaVuSans-68" transform="scale(0.015625)"/>
     </defs>
     <use xlink:href="#DejaVuSans-31"/>
     <use x="63.623047" xlink:href="#DejaVuSans-20"/>
     <use x="95.410156" xlink:href="#DejaVuSans-53"/>
     <use x="158.886719" xlink:href="#DejaVuSans-70"/>
     <use x="222.363281" xlink:href="#DejaVuSans-68"/>
     <use x="285.742188" xlink:href="#DejaVuSans-65"/>
     <use x="347.265625" xlink:href="#DejaVuSans-72"/>
     <use x="386.128906" xlink:href="#DejaVuSans-65"/>
    </g>
   </g>
  </g>
 </g>
 <defs>
  <clipPath id="p5ba30727ef">
   <rect height="271.296" width="281.088" x="57.6" y="27.648"/>
  </clipPath>
 </defs>
</svg>
