<?xml version="1.0" encoding="utf-8" standalone="no"?>
<!DOCTYPE svg PUBLIC "-//W3C//DTD SVG 1.1//EN"
  "http://www.w3.org/Graphics/SVG/1.1/DTD/svg11.dtd">
<svg height="345.6pt" version="1.1" viewBox="0 0 460.8 345.6" width="460.8pt" xmlns="http://www.w3.org/2000/svg" xmlns:xlink="http://www.w3.org/1999/xlink">
 <metadata>
  <rdf:RDF xmlns:cc="http://creativecommons.org/ns#" xmlns:dc="http://purl.org/dc/elements/1.1/" xmlns:rdf="http://www.w3.org/1999/02/22-rdf-syntax-ns#">
   <cc:Work>
    <dc:type rdf:resource="http://purl.org/dc/dcmitype/StillImage"/>
    <dc:date>2021-04-26T18:32:01.203657</dc:date>
    <dc:format>image/svg+xml</dc:format>
    <dc:creator>
     <cc:Agent>
      <dc:title>Matplotlib v3.4.1, https://matplotlib.org/</dc:title>
     </cc:Agent>
    </dc:creator>
   </cc:Work>
  </rdf:RDF>
 </metadata>
 <defs>
  <style type="text/css">*{stroke-linecap:butt;stroke-linejoin:round;}</style>
 </defs>
 <g id="figure_1">
  <g id="patch_1">
   <path d="M 0 345.6 
L 460.8 345.6 
L 460.8 0 
L 0 0 
z
" style="fill:#ffffff;"/>
  </g>
  <g id="axes_1">
   <g id="patch_2">
    <path d="M 57.6 298.944 
L 338.688 298.944 
L 338.688 27.648 
L 57.6 27.648 
z
" style="fill:#ffffff;"/>
   </g>
   <g id="line2d_1">
    <path d="M 17.444571 298.944 
L 17.444571 283.143418 
L 29.53256 283.143418 
L 29.53256 277.876557 
L 36.60358 277.876557 
L 36.60358 272.609696 
L 74.263433 272.609696 
L 74.263433 267.342835 
L 94.921215 267.342835 
L 94.921215 262.075974 
L 105.398279 262.075974 
L 105.398279 256.809114 
L 112.877038 256.809114 
L 112.877038 251.542253 
L 118.094355 251.542253 
L 118.094355 246.275392 
L 123.152022 246.275392 
L 123.152022 241.008531 
L 128.560901 241.008531 
L 128.560901 235.74167 
L 133.284766 235.74167 
L 133.284766 230.47481 
L 144.111818 230.47481 
L 144.111818 225.207949 
L 147.174888 225.207949 
L 147.174888 219.941088 
L 151.684751 219.941088 
L 151.684751 214.674227 
L 156.782672 214.674227 
L 156.782672 209.407366 
L 159.410906 209.407366 
L 159.410906 204.140506 
L 165.622417 204.140506 
L 165.622417 198.873645 
L 167.458761 198.873645 
L 167.458761 193.606784 
L 170.088811 193.606784 
L 170.088811 188.339923 
L 171.738674 188.339923 
L 171.738674 183.073062 
L 173.82695 183.073062 
L 173.82695 177.806202 
L 175.182762 177.806202 
L 175.182762 172.539341 
L 175.631641 172.539341 
L 175.631641 167.27248 
L 177.804485 167.27248 
L 177.804485 162.005619 
L 178.146322 162.005619 
L 178.146322 156.738758 
L 179.464856 156.738758 
L 179.464856 151.471897 
L 181.699134 151.471897 
L 181.699134 146.205037 
L 185.283184 146.205037 
L 185.283184 140.938176 
L 185.533866 140.938176 
L 185.533866 135.671315 
L 185.741734 135.671315 
L 185.741734 130.404454 
L 187.311852 130.404454 
L 187.311852 125.137593 
L 187.617063 125.137593 
L 187.617063 119.870733 
L 188.490389 119.870733 
L 188.490389 114.603872 
L 190.319165 114.603872 
L 190.319165 109.337011 
L 190.479089 109.337011 
L 190.479089 104.07015 
L 190.635015 104.07015 
L 190.635015 98.803289 
L 191.582595 98.803289 
L 191.582595 93.536429 
L 191.756066 93.536429 
L 191.756066 88.269568 
L 192.329591 88.269568 
L 192.329591 83.002707 
L 192.561266 83.002707 
L 192.561266 77.735846 
L 193.357068 77.735846 
L 193.357068 72.468985 
L 194.784633 72.468985 
L 194.784633 67.202125 
L 194.94967 67.202125 
L 194.94967 61.935264 
L 195.063879 61.935264 
L 195.063879 56.668403 
L 195.170153 56.668403 
L 195.170153 51.401542 
L 195.290728 51.401542 
L 195.290728 46.134681 
L 195.380776 46.134681 
L 195.380776 40.867821 
L 195.471648 40.867821 
L 195.471648 35.60096 
L 195.53517 35.60096 
L 195.53517 30.334099 
L 338.688 30.334099 
" style="fill:none;stroke:#f5deb3;stroke-linecap:square;stroke-width:4;"/>
   </g>
   <g id="line2d_2">
    <defs>
     <path d="M 0 7.778175 
L 7.778175 0 
L 0 -7.778175 
L -7.778175 0 
z
" id="m82be40a47c" style="stroke:#f5deb3;stroke-linejoin:miter;stroke-width:1.5;"/>
    </defs>
    <g>
     <use style="fill:#f5deb3;stroke:#f5deb3;stroke-linejoin:miter;stroke-width:1.5;" x="118.094355" xlink:href="#m82be40a47c" y="246.275392"/>
     <use style="fill:#f5deb3;stroke:#f5deb3;stroke-linejoin:miter;stroke-width:1.5;" x="179.464856" xlink:href="#m82be40a47c" y="151.471897"/>
     <use style="fill:#f5deb3;stroke:#f5deb3;stroke-linejoin:miter;stroke-width:1.5;" x="195.170153" xlink:href="#m82be40a47c" y="56.668403"/>
     <use style="fill:#f5deb3;stroke:#f5deb3;stroke-linejoin:miter;stroke-width:1.5;" x="195.53517" xlink:href="#m82be40a47c" y="30.334099"/>
     <use style="fill:#f5deb3;stroke:#f5deb3;stroke-linejoin:miter;stroke-width:1.5;" x="195.53517" xlink:href="#m82be40a47c" y="30.334099"/>
     <use style="fill:#f5deb3;stroke:#f5deb3;stroke-linejoin:miter;stroke-width:1.5;" x="338.688" xlink:href="#m82be40a47c" y="30.334099"/>
    </g>
   </g>
   <g id="line2d_3">
    <path style="fill:none;stroke:#f5deb3;stroke-linecap:square;stroke-width:4;"/>
    <g/>
   </g>
   <g id="line2d_4">
    <path d="M 338.688 30.334099 
L 369.60768 35.706297 
" style="fill:none;stroke:#f5deb3;stroke-linecap:square;stroke-width:4;"/>
    <g>
     <use style="fill:#f5deb3;stroke:#f5deb3;stroke-linejoin:miter;stroke-width:1.5;" x="338.688" xlink:href="#m82be40a47c" y="30.334099"/>
     <use style="fill:#f5deb3;stroke:#f5deb3;stroke-linejoin:miter;stroke-width:1.5;" x="369.60768" xlink:href="#m82be40a47c" y="35.706297"/>
    </g>
   </g>
   <g id="matplotlib.axis_1">
    <g id="xtick_1">
     <g id="line2d_5">
      <path clip-path="url(#pf773b0eb48)" d="M 57.6 298.944 
L 57.6 27.648 
" style="fill:none;stroke:#b0b0b0;stroke-linecap:square;stroke-width:0.8;"/>
     </g>
     <g id="line2d_6">
      <defs>
       <path d="M 0 0 
L 0 3.5 
" id="mff2257f80f" style="stroke:#000000;stroke-width:0.8;"/>
      </defs>
      <g>
       <use style="stroke:#000000;stroke-width:0.8;" x="57.6" xlink:href="#mff2257f80f" y="298.944"/>
      </g>
     </g>
     <g id="text_1">
      <!-- 0 -->
      <g transform="translate(51.2375 321.140875)scale(0.2 -0.2)">
       <defs>
        <path d="M 2034 4250 
Q 1547 4250 1301 3770 
Q 1056 3291 1056 2328 
Q 1056 1369 1301 889 
Q 1547 409 2034 409 
Q 2525 409 2770 889 
Q 3016 1369 3016 2328 
Q 3016 3291 2770 3770 
Q 2525 4250 2034 4250 
z
M 2034 4750 
Q 2819 4750 3233 4129 
Q 3647 3509 3647 2328 
Q 3647 1150 3233 529 
Q 2819 -91 2034 -91 
Q 1250 -91 836 529 
Q 422 1150 422 2328 
Q 422 3509 836 4129 
Q 1250 4750 2034 4750 
z
" id="DejaVuSans-30" transform="scale(0.015625)"/>
       </defs>
       <use xlink:href="#DejaVuSans-30"/>
      </g>
     </g>
    </g>
    <g id="xtick_2">
     <g id="line2d_7">
      <path clip-path="url(#pf773b0eb48)" d="M 137.910857 298.944 
L 137.910857 27.648 
" style="fill:none;stroke:#b0b0b0;stroke-linecap:square;stroke-width:0.8;"/>
     </g>
     <g id="line2d_8">
      <g>
       <use style="stroke:#000000;stroke-width:0.8;" x="137.910857" xlink:href="#mff2257f80f" y="298.944"/>
      </g>
     </g>
     <g id="text_2">
      <!-- 2 -->
      <g transform="translate(131.548357 321.140875)scale(0.2 -0.2)">
       <defs>
        <path d="M 1228 531 
L 3431 531 
L 3431 0 
L 469 0 
L 469 531 
Q 828 903 1448 1529 
Q 2069 2156 2228 2338 
Q 2531 2678 2651 2914 
Q 2772 3150 2772 3378 
Q 2772 3750 2511 3984 
Q 2250 4219 1831 4219 
Q 1534 4219 1204 4116 
Q 875 4013 500 3803 
L 500 4441 
Q 881 4594 1212 4672 
Q 1544 4750 1819 4750 
Q 2544 4750 2975 4387 
Q 3406 4025 3406 3419 
Q 3406 3131 3298 2873 
Q 3191 2616 2906 2266 
Q 2828 2175 2409 1742 
Q 1991 1309 1228 531 
z
" id="DejaVuSans-32" transform="scale(0.015625)"/>
       </defs>
       <use xlink:href="#DejaVuSans-32"/>
      </g>
     </g>
    </g>
    <g id="xtick_3">
     <g id="line2d_9">
      <path clip-path="url(#pf773b0eb48)" d="M 218.221714 298.944 
L 218.221714 27.648 
" style="fill:none;stroke:#b0b0b0;stroke-linecap:square;stroke-width:0.8;"/>
     </g>
     <g id="line2d_10">
      <g>
       <use style="stroke:#000000;stroke-width:0.8;" x="218.221714" xlink:href="#mff2257f80f" y="298.944"/>
      </g>
     </g>
     <g id="text_3">
      <!-- 4 -->
      <g transform="translate(211.859214 321.140875)scale(0.2 -0.2)">
       <defs>
        <path d="M 2419 4116 
L 825 1625 
L 2419 1625 
L 2419 4116 
z
M 2253 4666 
L 3047 4666 
L 3047 1625 
L 3713 1625 
L 3713 1100 
L 3047 1100 
L 3047 0 
L 2419 0 
L 2419 1100 
L 313 1100 
L 313 1709 
L 2253 4666 
z
" id="DejaVuSans-34" transform="scale(0.015625)"/>
       </defs>
       <use xlink:href="#DejaVuSans-34"/>
      </g>
     </g>
    </g>
    <g id="xtick_4">
     <g id="line2d_11">
      <path clip-path="url(#pf773b0eb48)" d="M 298.532571 298.944 
L 298.532571 27.648 
" style="fill:none;stroke:#b0b0b0;stroke-linecap:square;stroke-width:0.8;"/>
     </g>
     <g id="line2d_12">
      <g>
       <use style="stroke:#000000;stroke-width:0.8;" x="298.532571" xlink:href="#mff2257f80f" y="298.944"/>
      </g>
     </g>
     <g id="text_4">
      <!-- 6 -->
      <g transform="translate(292.170071 321.140875)scale(0.2 -0.2)">
       <defs>
        <path d="M 2113 2584 
Q 1688 2584 1439 2293 
Q 1191 2003 1191 1497 
Q 1191 994 1439 701 
Q 1688 409 2113 409 
Q 2538 409 2786 701 
Q 3034 994 3034 1497 
Q 3034 2003 2786 2293 
Q 2538 2584 2113 2584 
z
M 3366 4563 
L 3366 3988 
Q 3128 4100 2886 4159 
Q 2644 4219 2406 4219 
Q 1781 4219 1451 3797 
Q 1122 3375 1075 2522 
Q 1259 2794 1537 2939 
Q 1816 3084 2150 3084 
Q 2853 3084 3261 2657 
Q 3669 2231 3669 1497 
Q 3669 778 3244 343 
Q 2819 -91 2113 -91 
Q 1303 -91 875 529 
Q 447 1150 447 2328 
Q 447 3434 972 4092 
Q 1497 4750 2381 4750 
Q 2619 4750 2861 4703 
Q 3103 4656 3366 4563 
z
" id="DejaVuSans-36" transform="scale(0.015625)"/>
       </defs>
       <use xlink:href="#DejaVuSans-36"/>
      </g>
     </g>
    </g>
    <g id="xtick_5">
     <g id="line2d_13">
      <path clip-path="url(#pf773b0eb48)" d="M 97.755429 298.944 
L 97.755429 27.648 
" style="fill:none;stroke:#b0b0b0;stroke-linecap:square;stroke-width:0.8;"/>
     </g>
     <g id="line2d_14">
      <defs>
       <path d="M 0 0 
L 0 2 
" id="m3a1ffd6840" style="stroke:#000000;stroke-width:0.6;"/>
      </defs>
      <g>
       <use style="stroke:#000000;stroke-width:0.6;" x="97.755429" xlink:href="#m3a1ffd6840" y="298.944"/>
      </g>
     </g>
    </g>
    <g id="xtick_6">
     <g id="line2d_15">
      <path clip-path="url(#pf773b0eb48)" d="M 178.066286 298.944 
L 178.066286 27.648 
" style="fill:none;stroke:#b0b0b0;stroke-linecap:square;stroke-width:0.8;"/>
     </g>
     <g id="line2d_16">
      <g>
       <use style="stroke:#000000;stroke-width:0.6;" x="178.066286" xlink:href="#m3a1ffd6840" y="298.944"/>
      </g>
     </g>
    </g>
    <g id="xtick_7">
     <g id="line2d_17">
      <path clip-path="url(#pf773b0eb48)" d="M 258.377143 298.944 
L 258.377143 27.648 
" style="fill:none;stroke:#b0b0b0;stroke-linecap:square;stroke-width:0.8;"/>
     </g>
     <g id="line2d_18">
      <g>
       <use style="stroke:#000000;stroke-width:0.6;" x="258.377143" xlink:href="#m3a1ffd6840" y="298.944"/>
      </g>
     </g>
    </g>
    <g id="xtick_8">
     <g id="line2d_19">
      <path clip-path="url(#pf773b0eb48)" d="M 338.688 298.944 
L 338.688 27.648 
" style="fill:none;stroke:#b0b0b0;stroke-linecap:square;stroke-width:0.8;"/>
     </g>
     <g id="line2d_20">
      <g>
       <use style="stroke:#000000;stroke-width:0.6;" x="338.688" xlink:href="#m3a1ffd6840" y="298.944"/>
      </g>
     </g>
    </g>
    <g id="text_5">
     <!-- log10(# f-evals / dimension) -->
     <g transform="translate(77.764078 342.217594)scale(0.17 -0.17)">
      <defs>
       <path d="M 603 4863 
L 1178 4863 
L 1178 0 
L 603 0 
L 603 4863 
z
" id="DejaVuSans-6c" transform="scale(0.015625)"/>
       <path d="M 1959 3097 
Q 1497 3097 1228 2736 
Q 959 2375 959 1747 
Q 959 1119 1226 758 
Q 1494 397 1959 397 
Q 2419 397 2687 759 
Q 2956 1122 2956 1747 
Q 2956 2369 2687 2733 
Q 2419 3097 1959 3097 
z
M 1959 3584 
Q 2709 3584 3137 3096 
Q 3566 2609 3566 1747 
Q 3566 888 3137 398 
Q 2709 -91 1959 -91 
Q 1206 -91 779 398 
Q 353 888 353 1747 
Q 353 2609 779 3096 
Q 1206 3584 1959 3584 
z
" id="DejaVuSans-6f" transform="scale(0.015625)"/>
       <path d="M 2906 1791 
Q 2906 2416 2648 2759 
Q 2391 3103 1925 3103 
Q 1463 3103 1205 2759 
Q 947 2416 947 1791 
Q 947 1169 1205 825 
Q 1463 481 1925 481 
Q 2391 481 2648 825 
Q 2906 1169 2906 1791 
z
M 3481 434 
Q 3481 -459 3084 -895 
Q 2688 -1331 1869 -1331 
Q 1566 -1331 1297 -1286 
Q 1028 -1241 775 -1147 
L 775 -588 
Q 1028 -725 1275 -790 
Q 1522 -856 1778 -856 
Q 2344 -856 2625 -561 
Q 2906 -266 2906 331 
L 2906 616 
Q 2728 306 2450 153 
Q 2172 0 1784 0 
Q 1141 0 747 490 
Q 353 981 353 1791 
Q 353 2603 747 3093 
Q 1141 3584 1784 3584 
Q 2172 3584 2450 3431 
Q 2728 3278 2906 2969 
L 2906 3500 
L 3481 3500 
L 3481 434 
z
" id="DejaVuSans-67" transform="scale(0.015625)"/>
       <path d="M 794 531 
L 1825 531 
L 1825 4091 
L 703 3866 
L 703 4441 
L 1819 4666 
L 2450 4666 
L 2450 531 
L 3481 531 
L 3481 0 
L 794 0 
L 794 531 
z
" id="DejaVuSans-31" transform="scale(0.015625)"/>
       <path d="M 1984 4856 
Q 1566 4138 1362 3434 
Q 1159 2731 1159 2009 
Q 1159 1288 1364 580 
Q 1569 -128 1984 -844 
L 1484 -844 
Q 1016 -109 783 600 
Q 550 1309 550 2009 
Q 550 2706 781 3412 
Q 1013 4119 1484 4856 
L 1984 4856 
z
" id="DejaVuSans-28" transform="scale(0.015625)"/>
       <path d="M 3272 2816 
L 2363 2816 
L 2100 1772 
L 3016 1772 
L 3272 2816 
z
M 2803 4594 
L 2478 3297 
L 3391 3297 
L 3719 4594 
L 4219 4594 
L 3897 3297 
L 4872 3297 
L 4872 2816 
L 3775 2816 
L 3519 1772 
L 4513 1772 
L 4513 1294 
L 3397 1294 
L 3072 0 
L 2572 0 
L 2894 1294 
L 1978 1294 
L 1656 0 
L 1153 0 
L 1478 1294 
L 494 1294 
L 494 1772 
L 1594 1772 
L 1856 2816 
L 850 2816 
L 850 3297 
L 1978 3297 
L 2297 4594 
L 2803 4594 
z
" id="DejaVuSans-23" transform="scale(0.015625)"/>
       <path id="DejaVuSans-20" transform="scale(0.015625)"/>
       <path d="M 2375 4863 
L 2375 4384 
L 1825 4384 
Q 1516 4384 1395 4259 
Q 1275 4134 1275 3809 
L 1275 3500 
L 2222 3500 
L 2222 3053 
L 1275 3053 
L 1275 0 
L 697 0 
L 697 3053 
L 147 3053 
L 147 3500 
L 697 3500 
L 697 3744 
Q 697 4328 969 4595 
Q 1241 4863 1831 4863 
L 2375 4863 
z
" id="DejaVuSans-66" transform="scale(0.015625)"/>
       <path d="M 313 2009 
L 1997 2009 
L 1997 1497 
L 313 1497 
L 313 2009 
z
" id="DejaVuSans-2d" transform="scale(0.015625)"/>
       <path d="M 3597 1894 
L 3597 1613 
L 953 1613 
Q 991 1019 1311 708 
Q 1631 397 2203 397 
Q 2534 397 2845 478 
Q 3156 559 3463 722 
L 3463 178 
Q 3153 47 2828 -22 
Q 2503 -91 2169 -91 
Q 1331 -91 842 396 
Q 353 884 353 1716 
Q 353 2575 817 3079 
Q 1281 3584 2069 3584 
Q 2775 3584 3186 3129 
Q 3597 2675 3597 1894 
z
M 3022 2063 
Q 3016 2534 2758 2815 
Q 2500 3097 2075 3097 
Q 1594 3097 1305 2825 
Q 1016 2553 972 2059 
L 3022 2063 
z
" id="DejaVuSans-65" transform="scale(0.015625)"/>
       <path d="M 191 3500 
L 800 3500 
L 1894 563 
L 2988 3500 
L 3597 3500 
L 2284 0 
L 1503 0 
L 191 3500 
z
" id="DejaVuSans-76" transform="scale(0.015625)"/>
       <path d="M 2194 1759 
Q 1497 1759 1228 1600 
Q 959 1441 959 1056 
Q 959 750 1161 570 
Q 1363 391 1709 391 
Q 2188 391 2477 730 
Q 2766 1069 2766 1631 
L 2766 1759 
L 2194 1759 
z
M 3341 1997 
L 3341 0 
L 2766 0 
L 2766 531 
Q 2569 213 2275 61 
Q 1981 -91 1556 -91 
Q 1019 -91 701 211 
Q 384 513 384 1019 
Q 384 1609 779 1909 
Q 1175 2209 1959 2209 
L 2766 2209 
L 2766 2266 
Q 2766 2663 2505 2880 
Q 2244 3097 1772 3097 
Q 1472 3097 1187 3025 
Q 903 2953 641 2809 
L 641 3341 
Q 956 3463 1253 3523 
Q 1550 3584 1831 3584 
Q 2591 3584 2966 3190 
Q 3341 2797 3341 1997 
z
" id="DejaVuSans-61" transform="scale(0.015625)"/>
       <path d="M 2834 3397 
L 2834 2853 
Q 2591 2978 2328 3040 
Q 2066 3103 1784 3103 
Q 1356 3103 1142 2972 
Q 928 2841 928 2578 
Q 928 2378 1081 2264 
Q 1234 2150 1697 2047 
L 1894 2003 
Q 2506 1872 2764 1633 
Q 3022 1394 3022 966 
Q 3022 478 2636 193 
Q 2250 -91 1575 -91 
Q 1294 -91 989 -36 
Q 684 19 347 128 
L 347 722 
Q 666 556 975 473 
Q 1284 391 1588 391 
Q 1994 391 2212 530 
Q 2431 669 2431 922 
Q 2431 1156 2273 1281 
Q 2116 1406 1581 1522 
L 1381 1569 
Q 847 1681 609 1914 
Q 372 2147 372 2553 
Q 372 3047 722 3315 
Q 1072 3584 1716 3584 
Q 2034 3584 2315 3537 
Q 2597 3491 2834 3397 
z
" id="DejaVuSans-73" transform="scale(0.015625)"/>
       <path d="M 1625 4666 
L 2156 4666 
L 531 -594 
L 0 -594 
L 1625 4666 
z
" id="DejaVuSans-2f" transform="scale(0.015625)"/>
       <path d="M 2906 2969 
L 2906 4863 
L 3481 4863 
L 3481 0 
L 2906 0 
L 2906 525 
Q 2725 213 2448 61 
Q 2172 -91 1784 -91 
Q 1150 -91 751 415 
Q 353 922 353 1747 
Q 353 2572 751 3078 
Q 1150 3584 1784 3584 
Q 2172 3584 2448 3432 
Q 2725 3281 2906 2969 
z
M 947 1747 
Q 947 1113 1208 752 
Q 1469 391 1925 391 
Q 2381 391 2643 752 
Q 2906 1113 2906 1747 
Q 2906 2381 2643 2742 
Q 2381 3103 1925 3103 
Q 1469 3103 1208 2742 
Q 947 2381 947 1747 
z
" id="DejaVuSans-64" transform="scale(0.015625)"/>
       <path d="M 603 3500 
L 1178 3500 
L 1178 0 
L 603 0 
L 603 3500 
z
M 603 4863 
L 1178 4863 
L 1178 4134 
L 603 4134 
L 603 4863 
z
" id="DejaVuSans-69" transform="scale(0.015625)"/>
       <path d="M 3328 2828 
Q 3544 3216 3844 3400 
Q 4144 3584 4550 3584 
Q 5097 3584 5394 3201 
Q 5691 2819 5691 2113 
L 5691 0 
L 5113 0 
L 5113 2094 
Q 5113 2597 4934 2840 
Q 4756 3084 4391 3084 
Q 3944 3084 3684 2787 
Q 3425 2491 3425 1978 
L 3425 0 
L 2847 0 
L 2847 2094 
Q 2847 2600 2669 2842 
Q 2491 3084 2119 3084 
Q 1678 3084 1418 2786 
Q 1159 2488 1159 1978 
L 1159 0 
L 581 0 
L 581 3500 
L 1159 3500 
L 1159 2956 
Q 1356 3278 1631 3431 
Q 1906 3584 2284 3584 
Q 2666 3584 2933 3390 
Q 3200 3197 3328 2828 
z
" id="DejaVuSans-6d" transform="scale(0.015625)"/>
       <path d="M 3513 2113 
L 3513 0 
L 2938 0 
L 2938 2094 
Q 2938 2591 2744 2837 
Q 2550 3084 2163 3084 
Q 1697 3084 1428 2787 
Q 1159 2491 1159 1978 
L 1159 0 
L 581 0 
L 581 3500 
L 1159 3500 
L 1159 2956 
Q 1366 3272 1645 3428 
Q 1925 3584 2291 3584 
Q 2894 3584 3203 3211 
Q 3513 2838 3513 2113 
z
" id="DejaVuSans-6e" transform="scale(0.015625)"/>
       <path d="M 513 4856 
L 1013 4856 
Q 1481 4119 1714 3412 
Q 1947 2706 1947 2009 
Q 1947 1309 1714 600 
Q 1481 -109 1013 -844 
L 513 -844 
Q 928 -128 1133 580 
Q 1338 1288 1338 2009 
Q 1338 2731 1133 3434 
Q 928 4138 513 4856 
z
" id="DejaVuSans-29" transform="scale(0.015625)"/>
      </defs>
      <use xlink:href="#DejaVuSans-6c"/>
      <use x="27.783203" xlink:href="#DejaVuSans-6f"/>
      <use x="88.964844" xlink:href="#DejaVuSans-67"/>
      <use x="152.441406" xlink:href="#DejaVuSans-31"/>
      <use x="216.064453" xlink:href="#DejaVuSans-30"/>
      <use x="279.6875" xlink:href="#DejaVuSans-28"/>
      <use x="318.701172" xlink:href="#DejaVuSans-23"/>
      <use x="402.490234" xlink:href="#DejaVuSans-20"/>
      <use x="434.277344" xlink:href="#DejaVuSans-66"/>
      <use x="463.982422" xlink:href="#DejaVuSans-2d"/>
      <use x="500.066406" xlink:href="#DejaVuSans-65"/>
      <use x="561.589844" xlink:href="#DejaVuSans-76"/>
      <use x="620.769531" xlink:href="#DejaVuSans-61"/>
      <use x="682.048828" xlink:href="#DejaVuSans-6c"/>
      <use x="709.832031" xlink:href="#DejaVuSans-73"/>
      <use x="761.931641" xlink:href="#DejaVuSans-20"/>
      <use x="793.71875" xlink:href="#DejaVuSans-2f"/>
      <use x="827.410156" xlink:href="#DejaVuSans-20"/>
      <use x="859.197266" xlink:href="#DejaVuSans-64"/>
      <use x="922.673828" xlink:href="#DejaVuSans-69"/>
      <use x="950.457031" xlink:href="#DejaVuSans-6d"/>
      <use x="1047.869141" xlink:href="#DejaVuSans-65"/>
      <use x="1109.392578" xlink:href="#DejaVuSans-6e"/>
      <use x="1172.771484" xlink:href="#DejaVuSans-73"/>
      <use x="1224.871094" xlink:href="#DejaVuSans-69"/>
      <use x="1252.654297" xlink:href="#DejaVuSans-6f"/>
      <use x="1313.835938" xlink:href="#DejaVuSans-6e"/>
      <use x="1377.214844" xlink:href="#DejaVuSans-29"/>
     </g>
    </g>
   </g>
   <g id="matplotlib.axis_2">
    <g id="ytick_1">
     <g id="line2d_21">
      <path clip-path="url(#pf773b0eb48)" d="M 57.6 298.944 
L 338.688 298.944 
" style="fill:none;stroke:#b0b0b0;stroke-linecap:square;stroke-width:0.8;"/>
     </g>
     <g id="line2d_22">
      <defs>
       <path d="M 0 0 
L -3.5 0 
" id="m2bfe94c960" style="stroke:#000000;stroke-width:0.8;"/>
      </defs>
      <g>
       <use style="stroke:#000000;stroke-width:0.8;" x="57.6" xlink:href="#m2bfe94c960" y="298.944"/>
      </g>
     </g>
     <g id="text_6">
      <!-- 0.0 -->
      <g transform="translate(25.155 305.02275)scale(0.16 -0.16)">
       <defs>
        <path d="M 684 794 
L 1344 794 
L 1344 0 
L 684 0 
L 684 794 
z
" id="DejaVuSans-2e" transform="scale(0.015625)"/>
       </defs>
       <use xlink:href="#DejaVuSans-30"/>
       <use x="63.623047" xlink:href="#DejaVuSans-2e"/>
       <use x="95.410156" xlink:href="#DejaVuSans-30"/>
      </g>
     </g>
    </g>
    <g id="ytick_2">
     <g id="line2d_23">
      <path clip-path="url(#pf773b0eb48)" d="M 57.6 245.22202 
L 338.688 245.22202 
" style="fill:none;stroke:#b0b0b0;stroke-linecap:square;stroke-width:0.8;"/>
     </g>
     <g id="line2d_24">
      <g>
       <use style="stroke:#000000;stroke-width:0.8;" x="57.6" xlink:href="#m2bfe94c960" y="245.22202"/>
      </g>
     </g>
     <g id="text_7">
      <!-- 0.2 -->
      <g transform="translate(25.155 251.30077)scale(0.16 -0.16)">
       <use xlink:href="#DejaVuSans-30"/>
       <use x="63.623047" xlink:href="#DejaVuSans-2e"/>
       <use x="95.410156" xlink:href="#DejaVuSans-32"/>
      </g>
     </g>
    </g>
    <g id="ytick_3">
     <g id="line2d_25">
      <path clip-path="url(#pf773b0eb48)" d="M 57.6 191.50004 
L 338.688 191.50004 
" style="fill:none;stroke:#b0b0b0;stroke-linecap:square;stroke-width:0.8;"/>
     </g>
     <g id="line2d_26">
      <g>
       <use style="stroke:#000000;stroke-width:0.8;" x="57.6" xlink:href="#m2bfe94c960" y="191.50004"/>
      </g>
     </g>
     <g id="text_8">
      <!-- 0.4 -->
      <g transform="translate(25.155 197.57879)scale(0.16 -0.16)">
       <use xlink:href="#DejaVuSans-30"/>
       <use x="63.623047" xlink:href="#DejaVuSans-2e"/>
       <use x="95.410156" xlink:href="#DejaVuSans-34"/>
      </g>
     </g>
    </g>
    <g id="ytick_4">
     <g id="line2d_27">
      <path clip-path="url(#pf773b0eb48)" d="M 57.6 137.778059 
L 338.688 137.778059 
" style="fill:none;stroke:#b0b0b0;stroke-linecap:square;stroke-width:0.8;"/>
     </g>
     <g id="line2d_28">
      <g>
       <use style="stroke:#000000;stroke-width:0.8;" x="57.6" xlink:href="#m2bfe94c960" y="137.778059"/>
      </g>
     </g>
     <g id="text_9">
      <!-- 0.6 -->
      <g transform="translate(25.155 143.856809)scale(0.16 -0.16)">
       <use xlink:href="#DejaVuSans-30"/>
       <use x="63.623047" xlink:href="#DejaVuSans-2e"/>
       <use x="95.410156" xlink:href="#DejaVuSans-36"/>
      </g>
     </g>
    </g>
    <g id="ytick_5">
     <g id="line2d_29">
      <path clip-path="url(#pf773b0eb48)" d="M 57.6 84.056079 
L 338.688 84.056079 
" style="fill:none;stroke:#b0b0b0;stroke-linecap:square;stroke-width:0.8;"/>
     </g>
     <g id="line2d_30">
      <g>
       <use style="stroke:#000000;stroke-width:0.8;" x="57.6" xlink:href="#m2bfe94c960" y="84.056079"/>
      </g>
     </g>
     <g id="text_10">
      <!-- 0.8 -->
      <g transform="translate(25.155 90.134829)scale(0.16 -0.16)">
       <defs>
        <path d="M 2034 2216 
Q 1584 2216 1326 1975 
Q 1069 1734 1069 1313 
Q 1069 891 1326 650 
Q 1584 409 2034 409 
Q 2484 409 2743 651 
Q 3003 894 3003 1313 
Q 3003 1734 2745 1975 
Q 2488 2216 2034 2216 
z
M 1403 2484 
Q 997 2584 770 2862 
Q 544 3141 544 3541 
Q 544 4100 942 4425 
Q 1341 4750 2034 4750 
Q 2731 4750 3128 4425 
Q 3525 4100 3525 3541 
Q 3525 3141 3298 2862 
Q 3072 2584 2669 2484 
Q 3125 2378 3379 2068 
Q 3634 1759 3634 1313 
Q 3634 634 3220 271 
Q 2806 -91 2034 -91 
Q 1263 -91 848 271 
Q 434 634 434 1313 
Q 434 1759 690 2068 
Q 947 2378 1403 2484 
z
M 1172 3481 
Q 1172 3119 1398 2916 
Q 1625 2713 2034 2713 
Q 2441 2713 2670 2916 
Q 2900 3119 2900 3481 
Q 2900 3844 2670 4047 
Q 2441 4250 2034 4250 
Q 1625 4250 1398 4047 
Q 1172 3844 1172 3481 
z
" id="DejaVuSans-38" transform="scale(0.015625)"/>
       </defs>
       <use xlink:href="#DejaVuSans-30"/>
       <use x="63.623047" xlink:href="#DejaVuSans-2e"/>
       <use x="95.410156" xlink:href="#DejaVuSans-38"/>
      </g>
     </g>
    </g>
    <g id="ytick_6">
     <g id="line2d_31">
      <path clip-path="url(#pf773b0eb48)" d="M 57.6 30.334099 
L 338.688 30.334099 
" style="fill:none;stroke:#b0b0b0;stroke-linecap:square;stroke-width:0.8;"/>
     </g>
     <g id="line2d_32">
      <g>
       <use style="stroke:#000000;stroke-width:0.8;" x="57.6" xlink:href="#m2bfe94c960" y="30.334099"/>
      </g>
     </g>
     <g id="text_11">
      <!-- 1.0 -->
      <g transform="translate(25.155 36.412849)scale(0.16 -0.16)">
       <use xlink:href="#DejaVuSans-31"/>
       <use x="63.623047" xlink:href="#DejaVuSans-2e"/>
       <use x="95.410156" xlink:href="#DejaVuSans-30"/>
      </g>
     </g>
    </g>
    <g id="text_12">
     <!-- Fraction of function,target pairs -->
     <g transform="translate(17.619531 297.681)rotate(-90)scale(0.17 -0.17)">
      <defs>
       <path d="M 628 4666 
L 3309 4666 
L 3309 4134 
L 1259 4134 
L 1259 2759 
L 3109 2759 
L 3109 2228 
L 1259 2228 
L 1259 0 
L 628 0 
L 628 4666 
z
" id="DejaVuSans-46" transform="scale(0.015625)"/>
       <path d="M 2631 2963 
Q 2534 3019 2420 3045 
Q 2306 3072 2169 3072 
Q 1681 3072 1420 2755 
Q 1159 2438 1159 1844 
L 1159 0 
L 581 0 
L 581 3500 
L 1159 3500 
L 1159 2956 
Q 1341 3275 1631 3429 
Q 1922 3584 2338 3584 
Q 2397 3584 2469 3576 
Q 2541 3569 2628 3553 
L 2631 2963 
z
" id="DejaVuSans-72" transform="scale(0.015625)"/>
       <path d="M 3122 3366 
L 3122 2828 
Q 2878 2963 2633 3030 
Q 2388 3097 2138 3097 
Q 1578 3097 1268 2742 
Q 959 2388 959 1747 
Q 959 1106 1268 751 
Q 1578 397 2138 397 
Q 2388 397 2633 464 
Q 2878 531 3122 666 
L 3122 134 
Q 2881 22 2623 -34 
Q 2366 -91 2075 -91 
Q 1284 -91 818 406 
Q 353 903 353 1747 
Q 353 2603 823 3093 
Q 1294 3584 2113 3584 
Q 2378 3584 2631 3529 
Q 2884 3475 3122 3366 
z
" id="DejaVuSans-63" transform="scale(0.015625)"/>
       <path d="M 1172 4494 
L 1172 3500 
L 2356 3500 
L 2356 3053 
L 1172 3053 
L 1172 1153 
Q 1172 725 1289 603 
Q 1406 481 1766 481 
L 2356 481 
L 2356 0 
L 1766 0 
Q 1100 0 847 248 
Q 594 497 594 1153 
L 594 3053 
L 172 3053 
L 172 3500 
L 594 3500 
L 594 4494 
L 1172 4494 
z
" id="DejaVuSans-74" transform="scale(0.015625)"/>
       <path d="M 544 1381 
L 544 3500 
L 1119 3500 
L 1119 1403 
Q 1119 906 1312 657 
Q 1506 409 1894 409 
Q 2359 409 2629 706 
Q 2900 1003 2900 1516 
L 2900 3500 
L 3475 3500 
L 3475 0 
L 2900 0 
L 2900 538 
Q 2691 219 2414 64 
Q 2138 -91 1772 -91 
Q 1169 -91 856 284 
Q 544 659 544 1381 
z
M 1991 3584 
L 1991 3584 
z
" id="DejaVuSans-75" transform="scale(0.015625)"/>
       <path d="M 750 794 
L 1409 794 
L 1409 256 
L 897 -744 
L 494 -744 
L 750 256 
L 750 794 
z
" id="DejaVuSans-2c" transform="scale(0.015625)"/>
       <path d="M 1159 525 
L 1159 -1331 
L 581 -1331 
L 581 3500 
L 1159 3500 
L 1159 2969 
Q 1341 3281 1617 3432 
Q 1894 3584 2278 3584 
Q 2916 3584 3314 3078 
Q 3713 2572 3713 1747 
Q 3713 922 3314 415 
Q 2916 -91 2278 -91 
Q 1894 -91 1617 61 
Q 1341 213 1159 525 
z
M 3116 1747 
Q 3116 2381 2855 2742 
Q 2594 3103 2138 3103 
Q 1681 3103 1420 2742 
Q 1159 2381 1159 1747 
Q 1159 1113 1420 752 
Q 1681 391 2138 391 
Q 2594 391 2855 752 
Q 3116 1113 3116 1747 
z
" id="DejaVuSans-70" transform="scale(0.015625)"/>
      </defs>
      <use xlink:href="#DejaVuSans-46"/>
      <use x="50.269531" xlink:href="#DejaVuSans-72"/>
      <use x="91.382812" xlink:href="#DejaVuSans-61"/>
      <use x="152.662109" xlink:href="#DejaVuSans-63"/>
      <use x="207.642578" xlink:href="#DejaVuSans-74"/>
      <use x="246.851562" xlink:href="#DejaVuSans-69"/>
      <use x="274.634766" xlink:href="#DejaVuSans-6f"/>
      <use x="335.816406" xlink:href="#DejaVuSans-6e"/>
      <use x="399.195312" xlink:href="#DejaVuSans-20"/>
      <use x="430.982422" xlink:href="#DejaVuSans-6f"/>
      <use x="492.164062" xlink:href="#DejaVuSans-66"/>
      <use x="527.369141" xlink:href="#DejaVuSans-20"/>
      <use x="559.15625" xlink:href="#DejaVuSans-66"/>
      <use x="594.361328" xlink:href="#DejaVuSans-75"/>
      <use x="657.740234" xlink:href="#DejaVuSans-6e"/>
      <use x="721.119141" xlink:href="#DejaVuSans-63"/>
      <use x="776.099609" xlink:href="#DejaVuSans-74"/>
      <use x="815.308594" xlink:href="#DejaVuSans-69"/>
      <use x="843.091797" xlink:href="#DejaVuSans-6f"/>
      <use x="904.273438" xlink:href="#DejaVuSans-6e"/>
      <use x="967.652344" xlink:href="#DejaVuSans-2c"/>
      <use x="999.439453" xlink:href="#DejaVuSans-74"/>
      <use x="1038.648438" xlink:href="#DejaVuSans-61"/>
      <use x="1099.927734" xlink:href="#DejaVuSans-72"/>
      <use x="1139.291016" xlink:href="#DejaVuSans-67"/>
      <use x="1202.767578" xlink:href="#DejaVuSans-65"/>
      <use x="1264.291016" xlink:href="#DejaVuSans-74"/>
      <use x="1303.5" xlink:href="#DejaVuSans-20"/>
      <use x="1335.287109" xlink:href="#DejaVuSans-70"/>
      <use x="1398.763672" xlink:href="#DejaVuSans-61"/>
      <use x="1460.042969" xlink:href="#DejaVuSans-69"/>
      <use x="1487.826172" xlink:href="#DejaVuSans-72"/>
      <use x="1528.939453" xlink:href="#DejaVuSans-73"/>
     </g>
    </g>
   </g>
   <g id="line2d_33">
    <defs>
     <path d="M 0 1.5 
C 0.397805 1.5 0.77937 1.341951 1.06066 1.06066 
C 1.341951 0.77937 1.5 0.397805 1.5 0 
C 1.5 -0.397805 1.341951 -0.77937 1.06066 -1.06066 
C 0.77937 -1.341951 0.397805 -1.5 0 -1.5 
C -0.397805 -1.5 -0.77937 -1.341951 -1.06066 -1.06066 
C -1.341951 -0.77937 -1.5 -0.397805 -1.5 0 
C -1.5 0.397805 -1.341951 0.77937 -1.06066 1.06066 
C -0.77937 1.341951 -0.397805 1.5 0 1.5 
z
" id="mdfcbf89055" style="stroke:#f5deb3;"/>
    </defs>
    <g>
     <use style="fill:#f5deb3;stroke:#f5deb3;" x="195.53517" xlink:href="#mdfcbf89055" y="30.334099"/>
     <use style="fill:#f5deb3;stroke:#f5deb3;" x="195.53517" xlink:href="#mdfcbf89055" y="30.334099"/>
    </g>
   </g>
   <g id="line2d_34">
    <defs>
     <path d="M 0 1.5 
C 0.397805 1.5 0.77937 1.341951 1.06066 1.06066 
C 1.341951 0.77937 1.5 0.397805 1.5 0 
C 1.5 -0.397805 1.341951 -0.77937 1.06066 -1.06066 
C 0.77937 -1.341951 0.397805 -1.5 0 -1.5 
C -0.397805 -1.5 -0.77937 -1.341951 -1.06066 -1.06066 
C -1.341951 -0.77937 -1.5 -0.397805 -1.5 0 
C -1.5 0.397805 -1.341951 0.77937 -1.06066 1.06066 
C -0.77937 1.341951 -0.397805 1.5 0 1.5 
z
" id="m4639e81fe0" style="stroke:#000080;"/>
    </defs>
    <g>
     <use style="fill:#000080;stroke:#000080;" x="267.767058" xlink:href="#m4639e81fe0" y="198.873645"/>
     <use style="fill:#000080;stroke:#000080;" x="267.767058" xlink:href="#m4639e81fe0" y="198.873645"/>
    </g>
   </g>
   <g id="line2d_35">
    <path d="M 17.444571 298.944 
L 17.444571 286.303534 
L 29.53256 286.303534 
L 29.53256 284.723476 
L 36.60358 284.723476 
L 36.60358 281.563359 
L 41.620548 281.563359 
L 41.620548 281.036673 
L 45.512012 281.036673 
L 45.512012 278.929929 
L 48.691568 278.929929 
L 48.691568 278.403243 
L 51.379845 278.403243 
L 51.379845 277.349871 
L 53.708537 277.349871 
L 53.708537 276.823185 
L 55.762588 276.823185 
L 55.762588 276.296499 
L 57.6 276.296499 
L 57.6 275.243126 
L 60.779557 275.243126 
L 60.779557 274.189754 
L 62.175444 274.189754 
L 62.175444 273.663068 
L 63.467834 273.663068 
L 63.467834 272.609696 
L 81.775977 272.609696 
L 81.775977 272.08301 
L 83.438118 272.08301 
L 83.438118 271.556324 
L 84.213325 271.556324 
L 84.213325 271.029638 
L 84.588378 271.029638 
L 84.588378 269.976266 
L 85.66744 269.976266 
L 85.66744 269.449579 
L 87.009585 269.449579 
L 87.009585 268.922893 
L 92.267099 268.922893 
L 92.267099 267.869521 
L 97.755429 267.869521 
L 97.755429 267.342835 
L 101.506816 267.342835 
L 101.506816 266.816149 
L 102.859376 266.816149 
L 102.859376 266.289463 
L 103.372333 266.289463 
L 103.372333 265.762777 
L 106.275913 265.762777 
L 106.275913 265.236091 
L 106.802819 265.236091 
L 106.906317 264.182719 
L 107.712901 264.182719 
L 107.712901 263.656033 
L 111.266113 263.656033 
L 111.266113 263.129347 
L 113.311233 263.129347 
L 113.311233 262.60266 
L 118.256582 262.60266 
L 118.310324 261.549288 
L 118.786692 261.549288 
L 118.786692 261.022602 
L 120.045484 261.022602 
L 120.045484 260.495916 
L 121.974949 260.495916 
L 121.974949 259.96923 
L 123.553867 259.96923 
L 123.553867 259.442544 
L 125.506102 259.442544 
L 125.506102 258.915858 
L 126.839037 258.915858 
L 126.839037 257.862486 
L 127.389626 257.862486 
L 127.389626 257.3358 
L 129.31925 257.3358 
L 129.31925 256.809114 
L 132.541568 256.809114 
L 132.541568 255.755741 
L 132.753813 255.755741 
L 132.753813 255.229055 
L 134.492498 255.229055 
L 134.492498 254.702369 
L 135.562224 254.702369 
L 135.562224 254.175683 
L 136.645276 254.175683 
L 136.645276 253.648997 
L 136.96118 253.648997 
L 136.96118 253.122311 
L 138.101642 253.122311 
L 138.101642 252.595625 
L 140.529237 252.595625 
L 140.529237 252.068939 
L 141.061324 252.068939 
L 141.061324 251.542253 
L 141.704386 251.542253 
L 141.704386 251.015567 
L 141.955115 251.015567 
L 141.955115 250.488881 
L 144.794859 250.488881 
L 144.794859 249.962195 
L 145.384119 249.962195 
L 145.384119 249.435508 
L 146.129168 249.435508 
L 146.129168 248.908822 
L 147.429332 248.908822 
L 147.429332 248.382136 
L 148.430623 248.382136 
L 148.430623 247.85545 
L 148.78943 247.85545 
L 148.854728 246.802078 
L 149.849978 246.802078 
L 149.849978 246.275392 
L 150.858013 246.275392 
L 150.858013 245.748706 
L 152.944315 245.748706 
L 152.944315 245.22202 
L 153.185667 245.22202 
L 153.185667 244.695334 
L 153.59484 244.695334 
L 153.59484 244.168648 
L 154.09144 244.168648 
L 154.09144 243.641962 
L 156.514691 243.641962 
L 156.514691 243.115275 
L 156.717545 243.115275 
L 156.717545 242.588589 
L 156.92979 242.588589 
L 156.92979 242.061903 
L 159.542562 242.061903 
L 159.542562 241.535217 
L 159.862466 241.535217 
L 159.862466 241.008531 
L 160.825941 241.008531 
L 160.863394 239.955159 
L 160.942717 239.955159 
L 160.942717 239.428473 
L 161.7523 239.428473 
L 161.7523 238.901787 
L 162.887802 238.901787 
L 162.887802 238.375101 
L 163.053576 238.375101 
L 163.053576 237.848415 
L 163.457215 237.848415 
L 163.457215 237.321729 
L 164.984368 237.321729 
L 164.984368 236.795043 
L 165.533195 236.795043 
L 165.533195 236.268356 
L 166.885541 236.268356 
L 166.885541 235.74167 
L 167.086355 235.74167 
L 167.086355 235.214984 
L 168.177458 235.214984 
L 168.177458 234.688298 
L 170.086056 234.688298 
L 170.086056 234.161612 
L 171.419931 234.161612 
L 171.447991 233.10824 
L 171.54458 233.10824 
L 171.54458 232.581554 
L 172.658992 232.581554 
L 172.658992 232.054868 
L 174.485938 232.054868 
L 174.485938 231.528182 
L 176.425408 231.528182 
L 176.425408 231.001496 
L 176.871817 231.001496 
L 176.871817 230.47481 
L 178.483291 230.47481 
L 178.483291 229.948123 
L 179.295031 229.948123 
L 179.295031 229.421437 
L 180.977845 229.421437 
L 180.977845 228.894751 
L 181.124802 228.894751 
L 181.124802 228.368065 
L 181.422247 228.368065 
L 181.422247 227.841379 
L 183.069734 227.841379 
L 183.069734 227.314693 
L 184.079257 227.314693 
L 184.079257 226.788007 
L 206.772709 226.788007 
L 206.812005 225.734635 
L 207.320488 225.734635 
L 207.388131 224.154577 
L 207.53648 224.154577 
L 207.647159 223.101204 
L 207.950861 223.101204 
L 208.04864 221.521146 
L 208.211943 221.521146 
L 208.211943 220.99446 
L 208.370357 220.99446 
L 208.370357 220.467774 
L 208.520654 220.467774 
L 208.56986 219.414402 
L 208.724169 219.414402 
L 208.765308 218.36103 
L 209.833563 218.36103 
L 209.833563 217.834344 
L 210.253331 217.834344 
L 210.253331 217.307658 
L 210.47064 217.307658 
L 210.47064 216.780971 
L 212.283038 216.780971 
L 212.283038 216.254285 
L 218.727037 216.254285 
L 218.727037 215.727599 
L 218.937192 215.727599 
L 218.937192 215.200913 
L 219.116869 215.200913 
L 219.116869 214.674227 
L 219.229325 214.674227 
L 219.229325 214.147541 
L 219.374066 214.147541 
L 219.482286 212.040797 
L 219.740903 212.040797 
L 219.740903 211.514111 
L 220.185157 211.514111 
L 220.185157 210.987425 
L 220.402879 210.987425 
L 220.402879 210.460738 
L 220.877724 210.460738 
L 220.877724 209.934052 
L 221.566018 209.934052 
L 221.566018 209.407366 
L 225.919721 209.407366 
L 225.919721 208.88068 
L 226.444597 208.88068 
L 226.451669 207.827308 
L 226.776722 207.827308 
L 226.776722 206.773936 
L 230.896323 206.773936 
L 230.896323 206.24725 
L 231.31081 206.24725 
L 231.31081 205.720564 
L 231.434363 205.720564 
L 231.434363 205.193878 
L 231.688223 205.193878 
L 231.688223 204.667192 
L 235.013256 204.667192 
L 235.013256 204.140506 
L 237.744749 204.140506 
L 237.744749 203.613819 
L 237.915273 203.613819 
L 237.915273 203.087133 
L 238.138497 203.087133 
L 238.182634 202.033761 
L 238.311735 202.033761 
L 238.311735 201.507075 
L 240.470138 201.507075 
L 240.470138 200.980389 
L 246.495388 200.980389 
L 246.495388 200.453703 
L 262.453497 200.453703 
L 262.453497 199.927017 
L 264.410152 199.927017 
L 264.410152 199.400331 
L 267.767058 199.400331 
L 267.767058 198.873645 
L 338.688 198.873645 
L 338.688 198.873645 
" style="fill:none;stroke:#000080;stroke-linecap:square;stroke-width:1.5;"/>
   </g>
   <g id="line2d_36">
    <defs>
     <path d="M 0 6 
C 1.591219 6 3.117479 5.367802 4.242641 4.242641 
C 5.367802 3.117479 6 1.591219 6 0 
C 6 -1.591219 5.367802 -3.117479 4.242641 -4.242641 
C 3.117479 -5.367802 1.591219 -6 0 -6 
C -1.591219 -6 -3.117479 -5.367802 -4.242641 -4.242641 
C -5.367802 -3.117479 -6 -1.591219 -6 0 
C -6 1.591219 -5.367802 3.117479 -4.242641 4.242641 
C -3.117479 5.367802 -1.591219 6 0 6 
z
" id="md4a253828a" style="stroke:#000080;stroke-width:1.5;"/>
    </defs>
    <g>
     <use style="fill-opacity:0;stroke:#000080;stroke-width:1.5;" x="125.506102" xlink:href="#md4a253828a" y="258.915858"/>
     <use style="fill-opacity:0;stroke:#000080;stroke-width:1.5;" x="207.320488" xlink:href="#md4a253828a" y="225.207949"/>
     <use style="fill-opacity:0;stroke:#000080;stroke-width:1.5;" x="267.767058" xlink:href="#md4a253828a" y="199.400331"/>
     <use style="fill-opacity:0;stroke:#000080;stroke-width:1.5;" x="267.767058" xlink:href="#md4a253828a" y="198.873645"/>
     <use style="fill-opacity:0;stroke:#000080;stroke-width:1.5;" x="338.688" xlink:href="#md4a253828a" y="198.873645"/>
    </g>
   </g>
   <g id="line2d_37">
    <path style="fill:none;stroke:#000080;stroke-linecap:square;stroke-width:1.5;"/>
    <g/>
   </g>
   <g id="line2d_38">
    <path clip-path="url(#pf773b0eb48)" d="M 206.133726 226.788007 
" style="fill:none;stroke:#000080;stroke-linecap:square;stroke-width:1.5;"/>
    <defs>
     <path d="M -12 12 
L 12 -12 
M -12 -12 
L 12 12 
" id="m0f11afaecd" style="stroke:#000080;"/>
    </defs>
    <g clip-path="url(#pf773b0eb48)">
     <use style="fill:#000080;stroke:#000080;" x="206.133726" xlink:href="#m0f11afaecd" y="226.788007"/>
    </g>
   </g>
   <g id="line2d_39">
    <defs>
     <path d="M 0 1.5 
C 0.397805 1.5 0.77937 1.341951 1.06066 1.06066 
C 1.341951 0.77937 1.5 0.397805 1.5 0 
C 1.5 -0.397805 1.341951 -0.77937 1.06066 -1.06066 
C 0.77937 -1.341951 0.397805 -1.5 0 -1.5 
C -0.397805 -1.5 -0.77937 -1.341951 -1.06066 -1.06066 
C -1.341951 -0.77937 -1.5 -0.397805 -1.5 0 
C -1.5 0.397805 -1.341951 0.77937 -1.06066 1.06066 
C -0.77937 1.341951 -0.397805 1.5 0 1.5 
z
" id="me1e334a2b0" style="stroke:#ff00ff;"/>
    </defs>
    <g>
     <use style="fill:#ff00ff;stroke:#ff00ff;" x="275.496405" xlink:href="#me1e334a2b0" y="188.339923"/>
     <use style="fill:#ff00ff;stroke:#ff00ff;" x="275.496405" xlink:href="#me1e334a2b0" y="188.339923"/>
    </g>
   </g>
   <g id="line2d_40">
    <path d="M 17.444571 298.944 
L 17.444571 284.19679 
L 29.53256 284.19679 
L 29.53256 280.509987 
L 36.60358 280.509987 
L 36.60358 278.929929 
L 41.620548 278.929929 
L 41.620548 277.876557 
L 45.512012 277.876557 
L 45.512012 276.296499 
L 51.379845 276.296499 
L 51.379845 275.769812 
L 53.708537 275.769812 
L 53.708537 275.243126 
L 57.6 275.243126 
L 57.6 274.189754 
L 59.262141 274.189754 
L 59.262141 273.663068 
L 70.538854 273.663068 
L 70.538854 272.609696 
L 73.579452 272.609696 
L 73.579452 272.08301 
L 76.759008 272.08301 
L 76.759008 271.556324 
L 77.884514 271.556324 
L 77.884514 271.029638 
L 79.938565 271.029638 
L 79.938565 270.502952 
L 80.881459 270.502952 
L 80.881459 269.976266 
L 82.206598 269.976266 
L 82.206598 269.449579 
L 82.626842 269.449579 
L 82.626842 268.922893 
L 83.438118 268.922893 
L 83.438118 268.396207 
L 83.830028 268.396207 
L 83.830028 267.869521 
L 86.012784 267.869521 
L 86.012784 267.342835 
L 87.952479 267.342835 
L 87.952479 266.816149 
L 95.918017 266.816149 
L 95.918017 266.289463 
L 96.489848 266.289463 
L 96.489848 265.762777 
L 97.224242 265.762777 
L 97.224242 265.236091 
L 103.993014 265.236091 
L 103.993014 264.709405 
L 104.474128 264.709405 
L 104.474128 264.182719 
L 105.951954 264.182719 
L 105.951954 263.129347 
L 108.577836 263.129347 
L 108.577836 262.60266 
L 112.280765 262.60266 
L 112.280765 262.075974 
L 116.38325 262.075974 
L 116.38325 261.549288 
L 118.576578 261.549288 
L 118.576578 261.022602 
L 124.101333 261.022602 
L 124.101333 260.495916 
L 128.856489 260.495916 
L 128.856489 259.96923 
L 131.312942 259.96923 
L 131.312942 259.442544 
L 131.814826 259.442544 
L 131.814826 258.915858 
L 132.659801 258.915858 
L 132.659801 258.389172 
L 135.858985 258.389172 
L 135.858985 257.862486 
L 138.877599 257.862486 
L 138.877599 257.3358 
L 139.123342 257.3358 
L 139.123342 256.809114 
L 141.71841 256.809114 
L 141.71841 256.282427 
L 145.005114 256.282427 
L 145.005114 255.755741 
L 146.854132 255.755741 
L 146.854132 255.229055 
L 149.619812 255.229055 
L 149.619812 254.702369 
L 150.361278 254.702369 
L 150.361278 254.175683 
L 150.91602 254.175683 
L 150.94908 253.122311 
L 152.360205 253.122311 
L 152.360205 252.595625 
L 153.423725 252.595625 
L 153.423725 252.068939 
L 153.848404 252.068939 
L 153.848404 251.542253 
L 154.57429 251.542253 
L 154.57429 251.015567 
L 155.854218 251.015567 
L 155.854218 250.488881 
L 157.034952 250.488881 
L 157.034952 249.962195 
L 157.579705 249.962195 
L 157.579705 249.435508 
L 158.184468 249.435508 
L 158.184468 248.908822 
L 159.004665 248.908822 
L 159.004665 248.382136 
L 159.165206 248.382136 
L 159.165206 247.85545 
L 160.200913 247.85545 
L 160.200913 247.328764 
L 160.684769 247.328764 
L 160.684769 246.802078 
L 163.804376 246.802078 
L 163.89501 245.748706 
L 165.461488 245.748706 
L 165.461488 245.22202 
L 165.806549 245.22202 
L 165.806549 244.695334 
L 167.014197 244.695334 
L 167.014197 244.168648 
L 167.128854 244.168648 
L 167.128854 243.641962 
L 168.019943 243.641962 
L 168.019943 243.115275 
L 168.85588 243.115275 
L 168.85588 242.588589 
L 169.363007 242.588589 
L 169.363007 242.061903 
L 170.14658 242.061903 
L 170.14658 241.535217 
L 170.435289 241.535217 
L 170.435289 241.008531 
L 170.674059 241.008531 
L 170.674059 240.481845 
L 170.943744 240.481845 
L 170.943744 239.955159 
L 171.63055 239.955159 
L 171.703544 238.901787 
L 172.582734 238.901787 
L 172.582734 238.375101 
L 173.033033 238.375101 
L 173.033033 237.848415 
L 175.336395 237.848415 
L 175.354741 236.795043 
L 176.25985 236.795043 
L 176.25985 236.268356 
L 176.396644 236.268356 
L 176.396644 235.74167 
L 176.894213 235.74167 
L 176.894213 235.214984 
L 177.270615 235.214984 
L 177.270615 234.688298 
L 177.578194 234.688298 
L 177.578194 234.161612 
L 177.719303 234.161612 
L 177.809795 232.581554 
L 177.832787 232.581554 
L 177.832787 232.054868 
L 178.101129 232.054868 
L 178.101129 231.528182 
L 178.58177 231.528182 
L 178.58177 231.001496 
L 179.914506 231.001496 
L 179.914506 230.47481 
L 180.259296 230.47481 
L 180.259296 229.948123 
L 180.684666 229.948123 
L 180.684666 229.421437 
L 180.841542 229.421437 
L 180.841542 228.894751 
L 181.370378 228.894751 
L 181.370378 228.368065 
L 181.562667 228.368065 
L 181.562667 227.841379 
L 182.316765 227.841379 
L 182.316765 227.314693 
L 184.15445 227.314693 
L 184.15568 226.261321 
L 184.28801 226.261321 
L 184.28801 225.734635 
L 184.653996 225.734635 
L 184.653996 225.207949 
L 185.32809 225.207949 
L 185.434711 224.154577 
L 185.535002 224.154577 
L 185.535002 223.627891 
L 185.888232 223.627891 
L 185.91049 222.574518 
L 186.640183 222.574518 
L 186.640183 222.047832 
L 186.972973 222.047832 
L 186.972973 221.521146 
L 187.110562 221.521146 
L 187.193424 219.941088 
L 188.38841 219.941088 
L 188.38841 219.414402 
L 190.922731 219.414402 
L 190.992679 218.36103 
L 197.610486 218.36103 
L 197.610486 217.834344 
L 207.709089 217.834344 
L 207.709089 217.307658 
L 208.31566 217.307658 
L 208.31566 216.780971 
L 209.264967 216.780971 
L 209.264967 216.254285 
L 209.863442 216.254285 
L 209.863442 215.727599 
L 210.01207 215.727599 
L 210.01207 214.674227 
L 210.159165 214.674227 
L 210.159165 214.147541 
L 210.59882 214.147541 
L 210.638734 213.094169 
L 210.753383 213.094169 
L 210.827356 211.514111 
L 210.885353 211.514111 
L 210.890664 209.934052 
L 211.184755 209.934052 
L 211.19389 208.88068 
L 211.387475 208.88068 
L 211.387475 208.353994 
L 212.245245 208.353994 
L 212.245245 207.827308 
L 220.316023 207.827308 
L 220.350324 206.24725 
L 220.929463 206.24725 
L 220.929463 205.720564 
L 221.1191 205.720564 
L 221.1191 205.193878 
L 226.593924 205.193878 
L 226.658546 204.140506 
L 226.867779 204.140506 
L 226.867779 203.613819 
L 226.982123 203.613819 
L 227.001529 202.560447 
L 227.200667 202.560447 
L 227.200667 201.507075 
L 227.357633 201.507075 
L 227.357633 200.980389 
L 228.211277 200.980389 
L 228.211277 200.453703 
L 231.591838 200.453703 
L 231.591838 199.400331 
L 231.818499 199.400331 
L 231.868408 197.820273 
L 232.04312 197.820273 
L 232.04312 196.7669 
L 235.246397 196.7669 
L 235.246397 196.240214 
L 235.606816 196.240214 
L 235.606816 195.186842 
L 238.443716 195.186842 
L 238.443716 193.606784 
L 243.050539 193.606784 
L 243.13784 192.553412 
L 243.168401 192.553412 
L 243.168401 192.026726 
L 246.82765 192.026726 
L 246.82765 191.50004 
L 252.620513 191.50004 
L 252.620513 190.973354 
L 253.793178 190.973354 
L 253.793178 190.446667 
L 258.702899 190.446667 
L 258.702899 189.393295 
L 261.0981 189.393295 
L 261.0981 188.866609 
L 275.496405 188.866609 
L 275.496405 188.339923 
L 338.688 188.339923 
L 338.688 188.339923 
" style="fill:none;stroke:#ff00ff;stroke-linecap:square;stroke-width:1.5;"/>
   </g>
   <g id="line2d_41">
    <defs>
     <path d="M 0 8.485281 
L 5.091169 0 
L 0 -8.485281 
L -5.091169 0 
z
" id="me46dd48029" style="stroke:#ff00ff;stroke-linejoin:miter;stroke-width:1.5;"/>
    </defs>
    <g>
     <use style="fill-opacity:0;stroke:#ff00ff;stroke-linejoin:miter;stroke-width:1.5;" x="112.280765" xlink:href="#me46dd48029" y="262.60266"/>
     <use style="fill-opacity:0;stroke:#ff00ff;stroke-linejoin:miter;stroke-width:1.5;" x="197.610486" xlink:href="#me46dd48029" y="218.36103"/>
     <use style="fill-opacity:0;stroke:#ff00ff;stroke-linejoin:miter;stroke-width:1.5;" x="275.496405" xlink:href="#me46dd48029" y="188.866609"/>
     <use style="fill-opacity:0;stroke:#ff00ff;stroke-linejoin:miter;stroke-width:1.5;" x="275.496405" xlink:href="#me46dd48029" y="188.339923"/>
     <use style="fill-opacity:0;stroke:#ff00ff;stroke-linejoin:miter;stroke-width:1.5;" x="338.688" xlink:href="#me46dd48029" y="188.339923"/>
    </g>
   </g>
   <g id="line2d_42">
    <path style="fill:none;stroke:#ff00ff;stroke-linecap:square;stroke-width:1.5;"/>
    <g/>
   </g>
   <g id="line2d_43">
    <path clip-path="url(#pf773b0eb48)" d="M 206.133726 217.834344 
" style="fill:none;stroke:#ff00ff;stroke-linecap:square;stroke-width:1.5;"/>
    <defs>
     <path d="M -12 12 
L 12 -12 
M -12 -12 
L 12 12 
" id="mc72bc4e53c" style="stroke:#ff00ff;"/>
    </defs>
    <g clip-path="url(#pf773b0eb48)">
     <use style="fill:#ff00ff;stroke:#ff00ff;" x="206.133726" xlink:href="#mc72bc4e53c" y="217.834344"/>
    </g>
   </g>
   <g id="line2d_44">
    <defs>
     <path d="M 0 1.5 
C 0.397805 1.5 0.77937 1.341951 1.06066 1.06066 
C 1.341951 0.77937 1.5 0.397805 1.5 0 
C 1.5 -0.397805 1.341951 -0.77937 1.06066 -1.06066 
C 0.77937 -1.341951 0.397805 -1.5 0 -1.5 
C -0.397805 -1.5 -0.77937 -1.341951 -1.06066 -1.06066 
C -1.341951 -0.77937 -1.5 -0.397805 -1.5 0 
C -1.5 0.397805 -1.341951 0.77937 -1.06066 1.06066 
C -0.77937 1.341951 -0.397805 1.5 0 1.5 
z
" id="m8eee4eb380" style="stroke:#ff7500;"/>
    </defs>
    <g>
     <use style="fill:#ff7500;stroke:#ff7500;" x="262.258139" xlink:href="#m8eee4eb380" y="209.407366"/>
     <use style="fill:#ff7500;stroke:#ff7500;" x="262.258139" xlink:href="#m8eee4eb380" y="209.407366"/>
    </g>
   </g>
   <g id="line2d_45">
    <path d="M 17.444571 298.944 
L 17.444571 287.356906 
L 29.53256 287.356906 
L 29.53256 282.090045 
L 36.60358 282.090045 
L 36.60358 279.456615 
L 41.620548 279.456615 
L 41.620548 276.823185 
L 48.691568 276.823185 
L 48.691568 275.243126 
L 51.379845 275.243126 
L 51.379845 273.136382 
L 67.850577 273.136382 
L 67.850577 272.609696 
L 72.125336 272.609696 
L 72.125336 272.08301 
L 72.867545 272.08301 
L 72.867545 271.556324 
L 82.206598 271.556324 
L 82.206598 271.029638 
L 84.588378 271.029638 
L 84.588378 270.502952 
L 92.73846 270.502952 
L 92.73846 269.976266 
L 95.326798 269.976266 
L 95.326798 269.449579 
L 95.526106 269.449579 
L 95.526106 268.922893 
L 98.43941 268.922893 
L 98.43941 268.396207 
L 99.41757 268.396207 
L 99.41757 267.869521 
L 102.196206 267.869521 
L 102.196206 267.342835 
L 105.171792 267.342835 
L 105.171792 266.816149 
L 105.51043 266.816149 
L 105.51043 266.289463 
L 106.593963 266.289463 
L 106.593963 265.762777 
L 106.906317 265.762777 
L 106.906317 265.236091 
L 107.712901 265.236091 
L 107.712901 264.709405 
L 112.356423 264.709405 
L 112.356423 264.182719 
L 114.0117 264.182719 
L 114.0117 263.656033 
L 119.250393 263.656033 
L 119.250393 263.129347 
L 119.850084 263.129347 
L 119.850084 262.60266 
L 121.445108 262.60266 
L 121.445108 262.075974 
L 125.219619 262.075974 
L 125.219619 261.549288 
L 125.399222 261.549288 
L 125.399222 261.022602 
L 135.582166 261.022602 
L 135.582166 260.495916 
L 137.753193 260.495916 
L 137.753193 259.96923 
L 142.024126 259.96923 
L 142.024126 259.442544 
L 143.653678 259.442544 
L 143.653678 258.915858 
L 154.694607 258.915858 
L 154.694607 258.389172 
L 156.976607 258.389172 
L 156.976607 257.862486 
L 157.220355 257.862486 
L 157.220355 257.3358 
L 160.905434 257.3358 
L 160.905434 256.809114 
L 162.312084 256.809114 
L 162.312084 256.282427 
L 162.598085 256.282427 
L 162.598085 255.755741 
L 163.669525 255.755741 
L 163.669525 255.229055 
L 164.429145 255.229055 
L 164.429145 254.702369 
L 165.504548 254.702369 
L 165.504548 254.175683 
L 166.306535 254.175683 
L 166.306535 253.648997 
L 168.743139 253.648997 
L 168.743139 253.122311 
L 170.9621 253.122311 
L 170.9621 252.595625 
L 171.738674 252.595625 
L 171.738674 252.068939 
L 172.77512 252.068939 
L 172.77512 251.542253 
L 174.047927 251.542253 
L 174.047927 251.015567 
L 174.272644 251.015567 
L 174.272644 250.488881 
L 176.702921 250.488881 
L 176.702921 249.962195 
L 176.990933 249.962195 
L 176.990933 249.435508 
L 178.817212 249.435508 
L 178.817212 248.908822 
L 179.824868 248.908822 
L 179.824868 248.382136 
L 180.914271 248.382136 
L 180.914271 247.85545 
L 181.496896 247.85545 
L 181.496896 247.328764 
L 183.184543 247.328764 
L 183.264981 246.275392 
L 184.196221 246.275392 
L 184.196221 245.748706 
L 185.514535 245.748706 
L 185.514535 245.22202 
L 186.936309 245.22202 
L 186.936309 244.695334 
L 188.116129 244.695334 
L 188.116129 244.168648 
L 188.475034 244.168648 
L 188.475034 243.641962 
L 188.636541 243.641962 
L 188.636541 243.115275 
L 189.090974 243.115275 
L 189.090974 242.588589 
L 189.80996 242.588589 
L 189.80996 242.061903 
L 190.250795 242.061903 
L 190.280253 241.008531 
L 190.509019 241.008531 
L 190.509019 240.481845 
L 191.12514 240.481845 
L 191.12514 239.955159 
L 191.470564 239.955159 
L 191.470564 239.428473 
L 191.82434 239.428473 
L 191.934916 238.375101 
L 192.01739 238.375101 
L 192.01739 237.848415 
L 192.942168 237.848415 
L 192.942168 237.321729 
L 193.710492 237.321729 
L 193.710492 236.795043 
L 193.84861 236.795043 
L 193.869762 235.74167 
L 194.221336 235.74167 
L 194.249627 234.688298 
L 194.697493 234.688298 
L 194.697493 234.161612 
L 195.509532 234.161612 
L 195.556292 233.10824 
L 196.333835 233.10824 
L 196.333835 232.581554 
L 197.468897 232.581554 
L 197.468897 232.054868 
L 198.411187 232.054868 
L 198.411187 231.528182 
L 198.820721 231.528182 
L 198.820721 231.001496 
L 199.028491 231.001496 
L 199.089716 229.421437 
L 199.283995 229.421437 
L 199.283995 228.894751 
L 199.538865 228.894751 
L 199.538865 228.368065 
L 200.375276 228.368065 
L 200.438728 227.314693 
L 200.817977 227.314693 
L 200.882198 226.261321 
L 200.969649 226.261321 
L 200.969649 225.734635 
L 201.184522 225.734635 
L 201.184522 225.207949 
L 201.398154 225.207949 
L 201.398154 224.681263 
L 202.235722 224.681263 
L 202.235722 224.154577 
L 202.549952 224.154577 
L 202.549952 223.627891 
L 202.761979 223.627891 
L 202.772556 222.574518 
L 202.926663 222.574518 
L 202.926663 222.047832 
L 203.340907 222.047832 
L 203.439286 220.99446 
L 203.948738 220.99446 
L 203.948738 220.467774 
L 204.153113 220.467774 
L 204.153113 219.941088 
L 204.473294 219.941088 
L 204.473294 219.414402 
L 204.674302 219.414402 
L 204.752627 217.834344 
L 205.573389 217.834344 
L 205.573389 217.307658 
L 205.691128 217.307658 
L 205.793146 216.254285 
L 206.060677 216.254285 
L 206.060677 215.727599 
L 218.052256 215.727599 
L 218.052256 215.200913 
L 225.011922 215.200913 
L 225.011922 214.674227 
L 225.205319 214.674227 
L 225.205319 213.620855 
L 230.244183 213.620855 
L 230.291469 212.040797 
L 234.033222 212.040797 
L 234.033222 211.514111 
L 234.148769 211.514111 
L 234.148769 210.987425 
L 240.03159 210.987425 
L 240.03159 210.460738 
L 242.292916 210.460738 
L 242.292916 209.934052 
L 262.258139 209.934052 
L 262.258139 209.407366 
L 338.688 209.407366 
L 338.688 209.407366 
" style="fill:none;stroke:#ff7500;stroke-linecap:square;stroke-width:1.5;"/>
   </g>
   <g id="line2d_46">
    <defs>
     <path d="M 0 -6 
L -1.347084 -1.854102 
L -5.706339 -1.854102 
L -2.179628 0.708204 
L -3.526712 4.854102 
L -0 2.291796 
L 3.526712 4.854102 
L 2.179628 0.708204 
L 5.706339 -1.854102 
L 1.347084 -1.854102 
z
" id="medfb482d5d" style="stroke:#ff7500;stroke-linejoin:bevel;stroke-width:1.5;"/>
    </defs>
    <g>
     <use style="fill-opacity:0;stroke:#ff7500;stroke-linejoin:bevel;stroke-width:1.5;" x="114.0117" xlink:href="#medfb482d5d" y="264.182719"/>
     <use style="fill-opacity:0;stroke:#ff7500;stroke-linejoin:bevel;stroke-width:1.5;" x="183.184543" xlink:href="#medfb482d5d" y="246.802078"/>
     <use style="fill-opacity:0;stroke:#ff7500;stroke-linejoin:bevel;stroke-width:1.5;" x="262.258139" xlink:href="#medfb482d5d" y="209.934052"/>
     <use style="fill-opacity:0;stroke:#ff7500;stroke-linejoin:bevel;stroke-width:1.5;" x="262.258139" xlink:href="#medfb482d5d" y="209.407366"/>
     <use style="fill-opacity:0;stroke:#ff7500;stroke-linejoin:bevel;stroke-width:1.5;" x="262.258139" xlink:href="#medfb482d5d" y="209.407366"/>
     <use style="fill-opacity:0;stroke:#ff7500;stroke-linejoin:bevel;stroke-width:1.5;" x="338.688" xlink:href="#medfb482d5d" y="209.407366"/>
    </g>
   </g>
   <g id="line2d_47">
    <path style="fill:none;stroke:#ff7500;stroke-linecap:square;stroke-width:1.5;"/>
    <g/>
   </g>
   <g id="line2d_48">
    <path clip-path="url(#pf773b0eb48)" d="M 206.133726 215.727599 
" style="fill:none;stroke:#ff7500;stroke-linecap:square;stroke-width:1.5;"/>
    <defs>
     <path d="M -12 12 
L 12 -12 
M -12 -12 
L 12 12 
" id="md2978e8d1e" style="stroke:#ff7500;"/>
    </defs>
    <g clip-path="url(#pf773b0eb48)">
     <use style="fill:#ff7500;stroke:#ff7500;" x="206.133726" xlink:href="#md2978e8d1e" y="215.727599"/>
    </g>
   </g>
   <g id="line2d_49">
    <path d="M 338.688 209.407366 
L 369.60768 293.571802 
" style="fill:none;stroke:#ff7500;stroke-linecap:square;stroke-width:1.5;"/>
    <g>
     <use style="fill-opacity:0;stroke:#ff7500;stroke-linejoin:bevel;stroke-width:1.5;" x="338.688" xlink:href="#medfb482d5d" y="209.407366"/>
     <use style="fill-opacity:0;stroke:#ff7500;stroke-linejoin:bevel;stroke-width:1.5;" x="369.60768" xlink:href="#medfb482d5d" y="293.571802"/>
    </g>
   </g>
   <g id="line2d_50">
    <path d="M 338.688 198.873645 
L 369.60768 207.616634 
" style="fill:none;stroke:#000080;stroke-linecap:square;stroke-width:1.5;"/>
    <g>
     <use style="fill-opacity:0;stroke:#000080;stroke-width:1.5;" x="338.688" xlink:href="#md4a253828a" y="198.873645"/>
     <use style="fill-opacity:0;stroke:#000080;stroke-width:1.5;" x="369.60768" xlink:href="#md4a253828a" y="207.616634"/>
    </g>
   </g>
   <g id="line2d_51">
    <path d="M 338.688 188.339923 
L 369.60768 121.661465 
" style="fill:none;stroke:#ff00ff;stroke-linecap:square;stroke-width:1.5;"/>
    <g>
     <use style="fill-opacity:0;stroke:#ff00ff;stroke-linejoin:miter;stroke-width:1.5;" x="338.688" xlink:href="#me46dd48029" y="188.339923"/>
     <use style="fill-opacity:0;stroke:#ff00ff;stroke-linejoin:miter;stroke-width:1.5;" x="369.60768" xlink:href="#me46dd48029" y="121.661465"/>
    </g>
   </g>
   <g id="line2d_52">
    <path d="M 338.688 298.944 
L 338.688 30.334099 
" style="fill:none;stroke:#000000;stroke-linecap:square;stroke-width:1.5;"/>
   </g>
   <g id="patch_3">
    <path d="M 57.6 298.944 
L 57.6 27.648 
" style="fill:none;stroke:#000000;stroke-linecap:square;stroke-linejoin:miter;stroke-width:0.8;"/>
   </g>
   <g id="patch_4">
    <path d="M 338.688 298.944 
L 338.688 27.648 
" style="fill:none;stroke:#000000;stroke-linecap:square;stroke-linejoin:miter;stroke-width:0.8;"/>
   </g>
   <g id="patch_5">
    <path d="M 57.6 298.944 
L 338.688 298.944 
" style="fill:none;stroke:#000000;stroke-linecap:square;stroke-linejoin:miter;stroke-width:0.8;"/>
   </g>
   <g id="patch_6">
    <path d="M 57.6 27.648 
L 338.688 27.648 
" style="fill:none;stroke:#000000;stroke-linecap:square;stroke-linejoin:miter;stroke-width:0.8;"/>
   </g>
   <g id="text_13">
    <!-- PSO EDA -->
    <g transform="translate(375.22944 298.262739)scale(0.17 -0.17)">
     <defs>
      <path d="M 1259 4147 
L 1259 2394 
L 2053 2394 
Q 2494 2394 2734 2622 
Q 2975 2850 2975 3272 
Q 2975 3691 2734 3919 
Q 2494 4147 2053 4147 
L 1259 4147 
z
M 628 4666 
L 2053 4666 
Q 2838 4666 3239 4311 
Q 3641 3956 3641 3272 
Q 3641 2581 3239 2228 
Q 2838 1875 2053 1875 
L 1259 1875 
L 1259 0 
L 628 0 
L 628 4666 
z
" id="DejaVuSans-50" transform="scale(0.015625)"/>
      <path d="M 3425 4513 
L 3425 3897 
Q 3066 4069 2747 4153 
Q 2428 4238 2131 4238 
Q 1616 4238 1336 4038 
Q 1056 3838 1056 3469 
Q 1056 3159 1242 3001 
Q 1428 2844 1947 2747 
L 2328 2669 
Q 3034 2534 3370 2195 
Q 3706 1856 3706 1288 
Q 3706 609 3251 259 
Q 2797 -91 1919 -91 
Q 1588 -91 1214 -16 
Q 841 59 441 206 
L 441 856 
Q 825 641 1194 531 
Q 1563 422 1919 422 
Q 2459 422 2753 634 
Q 3047 847 3047 1241 
Q 3047 1584 2836 1778 
Q 2625 1972 2144 2069 
L 1759 2144 
Q 1053 2284 737 2584 
Q 422 2884 422 3419 
Q 422 4038 858 4394 
Q 1294 4750 2059 4750 
Q 2388 4750 2728 4690 
Q 3069 4631 3425 4513 
z
" id="DejaVuSans-53" transform="scale(0.015625)"/>
      <path d="M 2522 4238 
Q 1834 4238 1429 3725 
Q 1025 3213 1025 2328 
Q 1025 1447 1429 934 
Q 1834 422 2522 422 
Q 3209 422 3611 934 
Q 4013 1447 4013 2328 
Q 4013 3213 3611 3725 
Q 3209 4238 2522 4238 
z
M 2522 4750 
Q 3503 4750 4090 4092 
Q 4678 3434 4678 2328 
Q 4678 1225 4090 567 
Q 3503 -91 2522 -91 
Q 1538 -91 948 565 
Q 359 1222 359 2328 
Q 359 3434 948 4092 
Q 1538 4750 2522 4750 
z
" id="DejaVuSans-4f" transform="scale(0.015625)"/>
      <path d="M 628 4666 
L 3578 4666 
L 3578 4134 
L 1259 4134 
L 1259 2753 
L 3481 2753 
L 3481 2222 
L 1259 2222 
L 1259 531 
L 3634 531 
L 3634 0 
L 628 0 
L 628 4666 
z
" id="DejaVuSans-45" transform="scale(0.015625)"/>
      <path d="M 1259 4147 
L 1259 519 
L 2022 519 
Q 2988 519 3436 956 
Q 3884 1394 3884 2338 
Q 3884 3275 3436 3711 
Q 2988 4147 2022 4147 
L 1259 4147 
z
M 628 4666 
L 1925 4666 
Q 3281 4666 3915 4102 
Q 4550 3538 4550 2338 
Q 4550 1131 3912 565 
Q 3275 0 1925 0 
L 628 0 
L 628 4666 
z
" id="DejaVuSans-44" transform="scale(0.015625)"/>
      <path d="M 2188 4044 
L 1331 1722 
L 3047 1722 
L 2188 4044 
z
M 1831 4666 
L 2547 4666 
L 4325 0 
L 3669 0 
L 3244 1197 
L 1141 1197 
L 716 0 
L 50 0 
L 1831 4666 
z
" id="DejaVuSans-41" transform="scale(0.015625)"/>
     </defs>
     <use xlink:href="#DejaVuSans-50"/>
     <use x="60.302734" xlink:href="#DejaVuSans-53"/>
     <use x="123.779297" xlink:href="#DejaVuSans-4f"/>
     <use x="202.490234" xlink:href="#DejaVuSans-20"/>
     <use x="234.277344" xlink:href="#DejaVuSans-45"/>
     <use x="297.460938" xlink:href="#DejaVuSans-44"/>
     <use x="372.712891" xlink:href="#DejaVuSans-41"/>
    </g>
   </g>
   <g id="text_14">
    <!-- PSO -->
    <g transform="translate(375.22944 212.307571)scale(0.17 -0.17)">
     <use xlink:href="#DejaVuSans-50"/>
     <use x="60.302734" xlink:href="#DejaVuSans-53"/>
     <use x="123.779297" xlink:href="#DejaVuSans-4f"/>
    </g>
   </g>
   <g id="text_15">
    <!-- PSO Bound -->
    <g transform="translate(375.22944 126.352403)scale(0.17 -0.17)">
     <defs>
      <path d="M 1259 2228 
L 1259 519 
L 2272 519 
Q 2781 519 3026 730 
Q 3272 941 3272 1375 
Q 3272 1813 3026 2020 
Q 2781 2228 2272 2228 
L 1259 2228 
z
M 1259 4147 
L 1259 2741 
L 2194 2741 
Q 2656 2741 2882 2914 
Q 3109 3088 3109 3444 
Q 3109 3797 2882 3972 
Q 2656 4147 2194 4147 
L 1259 4147 
z
M 628 4666 
L 2241 4666 
Q 2963 4666 3353 4366 
Q 3744 4066 3744 3513 
Q 3744 3084 3544 2831 
Q 3344 2578 2956 2516 
Q 3422 2416 3680 2098 
Q 3938 1781 3938 1306 
Q 3938 681 3513 340 
Q 3088 0 2303 0 
L 628 0 
L 628 4666 
z
" id="DejaVuSans-42" transform="scale(0.015625)"/>
     </defs>
     <use xlink:href="#DejaVuSans-50"/>
     <use x="60.302734" xlink:href="#DejaVuSans-53"/>
     <use x="123.779297" xlink:href="#DejaVuSans-4f"/>
     <use x="202.490234" xlink:href="#DejaVuSans-20"/>
     <use x="234.277344" xlink:href="#DejaVuSans-42"/>
     <use x="302.880859" xlink:href="#DejaVuSans-6f"/>
     <use x="364.0625" xlink:href="#DejaVuSans-75"/>
     <use x="427.441406" xlink:href="#DejaVuSans-6e"/>
     <use x="490.820312" xlink:href="#DejaVuSans-64"/>
    </g>
   </g>
   <g id="text_16">
    <!-- best 2009 -->
    <g transform="translate(375.22944 40.397235)scale(0.17 -0.17)">
     <defs>
      <path d="M 3116 1747 
Q 3116 2381 2855 2742 
Q 2594 3103 2138 3103 
Q 1681 3103 1420 2742 
Q 1159 2381 1159 1747 
Q 1159 1113 1420 752 
Q 1681 391 2138 391 
Q 2594 391 2855 752 
Q 3116 1113 3116 1747 
z
M 1159 2969 
Q 1341 3281 1617 3432 
Q 1894 3584 2278 3584 
Q 2916 3584 3314 3078 
Q 3713 2572 3713 1747 
Q 3713 922 3314 415 
Q 2916 -91 2278 -91 
Q 1894 -91 1617 61 
Q 1341 213 1159 525 
L 1159 0 
L 581 0 
L 581 4863 
L 1159 4863 
L 1159 2969 
z
" id="DejaVuSans-62" transform="scale(0.015625)"/>
      <path d="M 703 97 
L 703 672 
Q 941 559 1184 500 
Q 1428 441 1663 441 
Q 2288 441 2617 861 
Q 2947 1281 2994 2138 
Q 2813 1869 2534 1725 
Q 2256 1581 1919 1581 
Q 1219 1581 811 2004 
Q 403 2428 403 3163 
Q 403 3881 828 4315 
Q 1253 4750 1959 4750 
Q 2769 4750 3195 4129 
Q 3622 3509 3622 2328 
Q 3622 1225 3098 567 
Q 2575 -91 1691 -91 
Q 1453 -91 1209 -44 
Q 966 3 703 97 
z
M 1959 2075 
Q 2384 2075 2632 2365 
Q 2881 2656 2881 3163 
Q 2881 3666 2632 3958 
Q 2384 4250 1959 4250 
Q 1534 4250 1286 3958 
Q 1038 3666 1038 3163 
Q 1038 2656 1286 2365 
Q 1534 2075 1959 2075 
z
" id="DejaVuSans-39" transform="scale(0.015625)"/>
     </defs>
     <use xlink:href="#DejaVuSans-62"/>
     <use x="63.476562" xlink:href="#DejaVuSans-65"/>
     <use x="125" xlink:href="#DejaVuSans-73"/>
     <use x="177.099609" xlink:href="#DejaVuSans-74"/>
     <use x="216.308594" xlink:href="#DejaVuSans-20"/>
     <use x="248.095703" xlink:href="#DejaVuSans-32"/>
     <use x="311.71875" xlink:href="#DejaVuSans-30"/>
     <use x="375.341797" xlink:href="#DejaVuSans-30"/>
     <use x="438.964844" xlink:href="#DejaVuSans-39"/>
    </g>
   </g>
   <g id="text_17">
    <!-- bbob f17, 10-D -->
    <g transform="translate(60.41088 38.111366)scale(0.102 -0.102)">
     <defs>
      <path d="M 525 4666 
L 3525 4666 
L 3525 4397 
L 1831 0 
L 1172 0 
L 2766 4134 
L 525 4134 
L 525 4666 
z
" id="DejaVuSans-37" transform="scale(0.015625)"/>
     </defs>
     <use xlink:href="#DejaVuSans-62"/>
     <use x="63.476562" xlink:href="#DejaVuSans-62"/>
     <use x="126.953125" xlink:href="#DejaVuSans-6f"/>
     <use x="188.134766" xlink:href="#DejaVuSans-62"/>
     <use x="251.611328" xlink:href="#DejaVuSans-20"/>
     <use x="283.398438" xlink:href="#DejaVuSans-66"/>
     <use x="318.603516" xlink:href="#DejaVuSans-31"/>
     <use x="382.226562" xlink:href="#DejaVuSans-37"/>
     <use x="445.849609" xlink:href="#DejaVuSans-2c"/>
     <use x="477.636719" xlink:href="#DejaVuSans-20"/>
     <use x="509.423828" xlink:href="#DejaVuSans-31"/>
     <use x="573.046875" xlink:href="#DejaVuSans-30"/>
     <use x="636.669922" xlink:href="#DejaVuSans-2d"/>
     <use x="672.753906" xlink:href="#DejaVuSans-44"/>
    </g>
    <!-- 51 targets: 100..1e-08 -->
    <g transform="translate(60.41088 49.533135)scale(0.102 -0.102)">
     <defs>
      <path d="M 691 4666 
L 3169 4666 
L 3169 4134 
L 1269 4134 
L 1269 2991 
Q 1406 3038 1543 3061 
Q 1681 3084 1819 3084 
Q 2600 3084 3056 2656 
Q 3513 2228 3513 1497 
Q 3513 744 3044 326 
Q 2575 -91 1722 -91 
Q 1428 -91 1123 -41 
Q 819 9 494 109 
L 494 744 
Q 775 591 1075 516 
Q 1375 441 1709 441 
Q 2250 441 2565 725 
Q 2881 1009 2881 1497 
Q 2881 1984 2565 2268 
Q 2250 2553 1709 2553 
Q 1456 2553 1204 2497 
Q 953 2441 691 2322 
L 691 4666 
z
" id="DejaVuSans-35" transform="scale(0.015625)"/>
      <path d="M 750 794 
L 1409 794 
L 1409 0 
L 750 0 
L 750 794 
z
M 750 3309 
L 1409 3309 
L 1409 2516 
L 750 2516 
L 750 3309 
z
" id="DejaVuSans-3a" transform="scale(0.015625)"/>
     </defs>
     <use xlink:href="#DejaVuSans-35"/>
     <use x="63.623047" xlink:href="#DejaVuSans-31"/>
     <use x="127.246094" xlink:href="#DejaVuSans-20"/>
     <use x="159.033203" xlink:href="#DejaVuSans-74"/>
     <use x="198.242188" xlink:href="#DejaVuSans-61"/>
     <use x="259.521484" xlink:href="#DejaVuSans-72"/>
     <use x="298.884766" xlink:href="#DejaVuSans-67"/>
     <use x="362.361328" xlink:href="#DejaVuSans-65"/>
     <use x="423.884766" xlink:href="#DejaVuSans-74"/>
     <use x="463.09375" xlink:href="#DejaVuSans-73"/>
     <use x="515.193359" xlink:href="#DejaVuSans-3a"/>
     <use x="548.884766" xlink:href="#DejaVuSans-20"/>
     <use x="580.671875" xlink:href="#DejaVuSans-31"/>
     <use x="644.294922" xlink:href="#DejaVuSans-30"/>
     <use x="707.917969" xlink:href="#DejaVuSans-30"/>
     <use x="771.541016" xlink:href="#DejaVuSans-2e"/>
     <use x="803.328125" xlink:href="#DejaVuSans-2e"/>
     <use x="835.115234" xlink:href="#DejaVuSans-31"/>
     <use x="898.738281" xlink:href="#DejaVuSans-65"/>
     <use x="960.261719" xlink:href="#DejaVuSans-2d"/>
     <use x="996.345703" xlink:href="#DejaVuSans-30"/>
     <use x="1059.96875" xlink:href="#DejaVuSans-38"/>
    </g>
    <!-- 15 instances -->
    <g transform="translate(60.41088 60.954904)scale(0.102 -0.102)">
     <use xlink:href="#DejaVuSans-31"/>
     <use x="63.623047" xlink:href="#DejaVuSans-35"/>
     <use x="127.246094" xlink:href="#DejaVuSans-20"/>
     <use x="159.033203" xlink:href="#DejaVuSans-69"/>
     <use x="186.816406" xlink:href="#DejaVuSans-6e"/>
     <use x="250.195312" xlink:href="#DejaVuSans-73"/>
     <use x="302.294922" xlink:href="#DejaVuSans-74"/>
     <use x="341.503906" xlink:href="#DejaVuSans-61"/>
     <use x="402.783203" xlink:href="#DejaVuSans-6e"/>
     <use x="466.162109" xlink:href="#DejaVuSans-63"/>
     <use x="521.142578" xlink:href="#DejaVuSans-65"/>
     <use x="582.666016" xlink:href="#DejaVuSans-73"/>
    </g>
   </g>
   <g id="text_18">
    <!-- v2.4 -->
    <g style="fill:#808080;" transform="translate(187.233062 294.151352)scale(0.1 -0.1)">
     <use xlink:href="#DejaVuSans-76"/>
     <use x="59.179688" xlink:href="#DejaVuSans-32"/>
     <use x="122.802734" xlink:href="#DejaVuSans-2e"/>
     <use x="154.589844" xlink:href="#DejaVuSans-34"/>
    </g>
   </g>
   <g id="text_19">
    <!-- 17 Schaffer F7, condition 10 -->
    <g transform="translate(56.836187 21.648)scale(0.2 -0.2)">
     <defs>
      <path d="M 3513 2113 
L 3513 0 
L 2938 0 
L 2938 2094 
Q 2938 2591 2744 2837 
Q 2550 3084 2163 3084 
Q 1697 3084 1428 2787 
Q 1159 2491 1159 1978 
L 1159 0 
L 581 0 
L 581 4863 
L 1159 4863 
L 1159 2956 
Q 1366 3272 1645 3428 
Q 1925 3584 2291 3584 
Q 2894 3584 3203 3211 
Q 3513 2838 3513 2113 
z
" id="DejaVuSans-68" transform="scale(0.015625)"/>
     </defs>
     <use xlink:href="#DejaVuSans-31"/>
     <use x="63.623047" xlink:href="#DejaVuSans-37"/>
     <use x="127.246094" xlink:href="#DejaVuSans-20"/>
     <use x="159.033203" xlink:href="#DejaVuSans-53"/>
     <use x="222.509766" xlink:href="#DejaVuSans-63"/>
     <use x="277.490234" xlink:href="#DejaVuSans-68"/>
     <use x="340.869141" xlink:href="#DejaVuSans-61"/>
     <use x="402.148438" xlink:href="#DejaVuSans-66"/>
     <use x="437.353516" xlink:href="#DejaVuSans-66"/>
     <use x="472.558594" xlink:href="#DejaVuSans-65"/>
     <use x="534.082031" xlink:href="#DejaVuSans-72"/>
     <use x="575.195312" xlink:href="#DejaVuSans-20"/>
     <use x="606.982422" xlink:href="#DejaVuSans-46"/>
     <use x="664.501953" xlink:href="#DejaVuSans-37"/>
     <use x="728.125" xlink:href="#DejaVuSans-2c"/>
     <use x="759.912109" xlink:href="#DejaVuSans-20"/>
     <use x="791.699219" xlink:href="#DejaVuSans-63"/>
     <use x="846.679688" xlink:href="#DejaVuSans-6f"/>
     <use x="907.861328" xlink:href="#DejaVuSans-6e"/>
     <use x="971.240234" xlink:href="#DejaVuSans-64"/>
     <use x="1034.716797" xlink:href="#DejaVuSans-69"/>
     <use x="1062.5" xlink:href="#DejaVuSans-74"/>
     <use x="1101.708984" xlink:href="#DejaVuSans-69"/>
     <use x="1129.492188" xlink:href="#DejaVuSans-6f"/>
     <use x="1190.673828" xlink:href="#DejaVuSans-6e"/>
     <use x="1254.052734" xlink:href="#DejaVuSans-20"/>
     <use x="1285.839844" xlink:href="#DejaVuSans-31"/>
     <use x="1349.462891" xlink:href="#DejaVuSans-30"/>
    </g>
   </g>
  </g>
 </g>
 <defs>
  <clipPath id="pf773b0eb48">
   <rect height="271.296" width="281.088" x="57.6" y="27.648"/>
  </clipPath>
 </defs>
</svg>
