<?xml version="1.0" encoding="utf-8" standalone="no"?>
<!DOCTYPE svg PUBLIC "-//W3C//DTD SVG 1.1//EN"
  "http://www.w3.org/Graphics/SVG/1.1/DTD/svg11.dtd">
<svg height="345.6pt" version="1.1" viewBox="0 0 460.8 345.6" width="460.8pt" xmlns="http://www.w3.org/2000/svg" xmlns:xlink="http://www.w3.org/1999/xlink">
 <metadata>
  <rdf:RDF xmlns:cc="http://creativecommons.org/ns#" xmlns:dc="http://purl.org/dc/elements/1.1/" xmlns:rdf="http://www.w3.org/1999/02/22-rdf-syntax-ns#">
   <cc:Work>
    <dc:type rdf:resource="http://purl.org/dc/dcmitype/StillImage"/>
    <dc:date>2021-04-26T18:31:37.889656</dc:date>
    <dc:format>image/svg+xml</dc:format>
    <dc:creator>
     <cc:Agent>
      <dc:title>Matplotlib v3.4.1, https://matplotlib.org/</dc:title>
     </cc:Agent>
    </dc:creator>
   </cc:Work>
  </rdf:RDF>
 </metadata>
 <defs>
  <style type="text/css">*{stroke-linecap:butt;stroke-linejoin:round;}</style>
 </defs>
 <g id="figure_1">
  <g id="patch_1">
   <path d="M 0 345.6 
L 460.8 345.6 
L 460.8 0 
L 0 0 
z
" style="fill:#ffffff;"/>
  </g>
  <g id="axes_1">
   <g id="patch_2">
    <path d="M 57.6 298.944 
L 338.688 298.944 
L 338.688 27.648 
L 57.6 27.648 
z
" style="fill:#ffffff;"/>
   </g>
   <g id="line2d_1">
    <path d="M 17.444571 298.944 
L 17.444571 293.677139 
L 36.60358 293.677139 
L 36.60358 288.410278 
L 53.708537 288.410278 
L 53.708537 283.143418 
L 65.796525 283.143418 
L 65.796525 277.876557 
L 71.35013 277.876557 
L 71.35013 251.542253 
L 72.125336 251.542253 
L 72.125336 30.334099 
L 338.688 30.334099 
" style="fill:none;stroke:#f5deb3;stroke-linecap:square;stroke-width:4;"/>
   </g>
   <g id="line2d_2">
    <defs>
     <path d="M 0 7.778175 
L 7.778175 0 
L 0 -7.778175 
L -7.778175 0 
z
" id="me9af2553d7" style="stroke:#f5deb3;stroke-linejoin:miter;stroke-width:1.5;"/>
    </defs>
    <g>
     <use style="fill:#f5deb3;stroke:#f5deb3;stroke-linejoin:miter;stroke-width:1.5;" x="71.35013" xlink:href="#me9af2553d7" y="251.542253"/>
     <use style="fill:#f5deb3;stroke:#f5deb3;stroke-linejoin:miter;stroke-width:1.5;" x="72.125336" xlink:href="#me9af2553d7" y="251.542253"/>
     <use style="fill:#f5deb3;stroke:#f5deb3;stroke-linejoin:miter;stroke-width:1.5;" x="72.125336" xlink:href="#me9af2553d7" y="251.542253"/>
     <use style="fill:#f5deb3;stroke:#f5deb3;stroke-linejoin:miter;stroke-width:1.5;" x="72.125336" xlink:href="#me9af2553d7" y="30.334099"/>
     <use style="fill:#f5deb3;stroke:#f5deb3;stroke-linejoin:miter;stroke-width:1.5;" x="72.125336" xlink:href="#me9af2553d7" y="30.334099"/>
     <use style="fill:#f5deb3;stroke:#f5deb3;stroke-linejoin:miter;stroke-width:1.5;" x="338.688" xlink:href="#me9af2553d7" y="30.334099"/>
    </g>
   </g>
   <g id="line2d_3">
    <path style="fill:none;stroke:#f5deb3;stroke-linecap:square;stroke-width:4;"/>
    <g/>
   </g>
   <g id="line2d_4">
    <path d="M 338.688 30.334099 
L 369.60768 35.706297 
" style="fill:none;stroke:#f5deb3;stroke-linecap:square;stroke-width:4;"/>
    <g>
     <use style="fill:#f5deb3;stroke:#f5deb3;stroke-linejoin:miter;stroke-width:1.5;" x="338.688" xlink:href="#me9af2553d7" y="30.334099"/>
     <use style="fill:#f5deb3;stroke:#f5deb3;stroke-linejoin:miter;stroke-width:1.5;" x="369.60768" xlink:href="#me9af2553d7" y="35.706297"/>
    </g>
   </g>
   <g id="matplotlib.axis_1">
    <g id="xtick_1">
     <g id="line2d_5">
      <path clip-path="url(#pce92769048)" d="M 57.6 298.944 
L 57.6 27.648 
" style="fill:none;stroke:#b0b0b0;stroke-linecap:square;stroke-width:0.8;"/>
     </g>
     <g id="line2d_6">
      <defs>
       <path d="M 0 0 
L 0 3.5 
" id="mcee0f0f7fa" style="stroke:#000000;stroke-width:0.8;"/>
      </defs>
      <g>
       <use style="stroke:#000000;stroke-width:0.8;" x="57.6" xlink:href="#mcee0f0f7fa" y="298.944"/>
      </g>
     </g>
     <g id="text_1">
      <!-- 0 -->
      <g transform="translate(51.2375 321.140875)scale(0.2 -0.2)">
       <defs>
        <path d="M 2034 4250 
Q 1547 4250 1301 3770 
Q 1056 3291 1056 2328 
Q 1056 1369 1301 889 
Q 1547 409 2034 409 
Q 2525 409 2770 889 
Q 3016 1369 3016 2328 
Q 3016 3291 2770 3770 
Q 2525 4250 2034 4250 
z
M 2034 4750 
Q 2819 4750 3233 4129 
Q 3647 3509 3647 2328 
Q 3647 1150 3233 529 
Q 2819 -91 2034 -91 
Q 1250 -91 836 529 
Q 422 1150 422 2328 
Q 422 3509 836 4129 
Q 1250 4750 2034 4750 
z
" id="DejaVuSans-30" transform="scale(0.015625)"/>
       </defs>
       <use xlink:href="#DejaVuSans-30"/>
      </g>
     </g>
    </g>
    <g id="xtick_2">
     <g id="line2d_7">
      <path clip-path="url(#pce92769048)" d="M 137.910857 298.944 
L 137.910857 27.648 
" style="fill:none;stroke:#b0b0b0;stroke-linecap:square;stroke-width:0.8;"/>
     </g>
     <g id="line2d_8">
      <g>
       <use style="stroke:#000000;stroke-width:0.8;" x="137.910857" xlink:href="#mcee0f0f7fa" y="298.944"/>
      </g>
     </g>
     <g id="text_2">
      <!-- 2 -->
      <g transform="translate(131.548357 321.140875)scale(0.2 -0.2)">
       <defs>
        <path d="M 1228 531 
L 3431 531 
L 3431 0 
L 469 0 
L 469 531 
Q 828 903 1448 1529 
Q 2069 2156 2228 2338 
Q 2531 2678 2651 2914 
Q 2772 3150 2772 3378 
Q 2772 3750 2511 3984 
Q 2250 4219 1831 4219 
Q 1534 4219 1204 4116 
Q 875 4013 500 3803 
L 500 4441 
Q 881 4594 1212 4672 
Q 1544 4750 1819 4750 
Q 2544 4750 2975 4387 
Q 3406 4025 3406 3419 
Q 3406 3131 3298 2873 
Q 3191 2616 2906 2266 
Q 2828 2175 2409 1742 
Q 1991 1309 1228 531 
z
" id="DejaVuSans-32" transform="scale(0.015625)"/>
       </defs>
       <use xlink:href="#DejaVuSans-32"/>
      </g>
     </g>
    </g>
    <g id="xtick_3">
     <g id="line2d_9">
      <path clip-path="url(#pce92769048)" d="M 218.221714 298.944 
L 218.221714 27.648 
" style="fill:none;stroke:#b0b0b0;stroke-linecap:square;stroke-width:0.8;"/>
     </g>
     <g id="line2d_10">
      <g>
       <use style="stroke:#000000;stroke-width:0.8;" x="218.221714" xlink:href="#mcee0f0f7fa" y="298.944"/>
      </g>
     </g>
     <g id="text_3">
      <!-- 4 -->
      <g transform="translate(211.859214 321.140875)scale(0.2 -0.2)">
       <defs>
        <path d="M 2419 4116 
L 825 1625 
L 2419 1625 
L 2419 4116 
z
M 2253 4666 
L 3047 4666 
L 3047 1625 
L 3713 1625 
L 3713 1100 
L 3047 1100 
L 3047 0 
L 2419 0 
L 2419 1100 
L 313 1100 
L 313 1709 
L 2253 4666 
z
" id="DejaVuSans-34" transform="scale(0.015625)"/>
       </defs>
       <use xlink:href="#DejaVuSans-34"/>
      </g>
     </g>
    </g>
    <g id="xtick_4">
     <g id="line2d_11">
      <path clip-path="url(#pce92769048)" d="M 298.532571 298.944 
L 298.532571 27.648 
" style="fill:none;stroke:#b0b0b0;stroke-linecap:square;stroke-width:0.8;"/>
     </g>
     <g id="line2d_12">
      <g>
       <use style="stroke:#000000;stroke-width:0.8;" x="298.532571" xlink:href="#mcee0f0f7fa" y="298.944"/>
      </g>
     </g>
     <g id="text_4">
      <!-- 6 -->
      <g transform="translate(292.170071 321.140875)scale(0.2 -0.2)">
       <defs>
        <path d="M 2113 2584 
Q 1688 2584 1439 2293 
Q 1191 2003 1191 1497 
Q 1191 994 1439 701 
Q 1688 409 2113 409 
Q 2538 409 2786 701 
Q 3034 994 3034 1497 
Q 3034 2003 2786 2293 
Q 2538 2584 2113 2584 
z
M 3366 4563 
L 3366 3988 
Q 3128 4100 2886 4159 
Q 2644 4219 2406 4219 
Q 1781 4219 1451 3797 
Q 1122 3375 1075 2522 
Q 1259 2794 1537 2939 
Q 1816 3084 2150 3084 
Q 2853 3084 3261 2657 
Q 3669 2231 3669 1497 
Q 3669 778 3244 343 
Q 2819 -91 2113 -91 
Q 1303 -91 875 529 
Q 447 1150 447 2328 
Q 447 3434 972 4092 
Q 1497 4750 2381 4750 
Q 2619 4750 2861 4703 
Q 3103 4656 3366 4563 
z
" id="DejaVuSans-36" transform="scale(0.015625)"/>
       </defs>
       <use xlink:href="#DejaVuSans-36"/>
      </g>
     </g>
    </g>
    <g id="xtick_5">
     <g id="line2d_13">
      <path clip-path="url(#pce92769048)" d="M 97.755429 298.944 
L 97.755429 27.648 
" style="fill:none;stroke:#b0b0b0;stroke-linecap:square;stroke-width:0.8;"/>
     </g>
     <g id="line2d_14">
      <defs>
       <path d="M 0 0 
L 0 2 
" id="mf18c686b36" style="stroke:#000000;stroke-width:0.6;"/>
      </defs>
      <g>
       <use style="stroke:#000000;stroke-width:0.6;" x="97.755429" xlink:href="#mf18c686b36" y="298.944"/>
      </g>
     </g>
    </g>
    <g id="xtick_6">
     <g id="line2d_15">
      <path clip-path="url(#pce92769048)" d="M 178.066286 298.944 
L 178.066286 27.648 
" style="fill:none;stroke:#b0b0b0;stroke-linecap:square;stroke-width:0.8;"/>
     </g>
     <g id="line2d_16">
      <g>
       <use style="stroke:#000000;stroke-width:0.6;" x="178.066286" xlink:href="#mf18c686b36" y="298.944"/>
      </g>
     </g>
    </g>
    <g id="xtick_7">
     <g id="line2d_17">
      <path clip-path="url(#pce92769048)" d="M 258.377143 298.944 
L 258.377143 27.648 
" style="fill:none;stroke:#b0b0b0;stroke-linecap:square;stroke-width:0.8;"/>
     </g>
     <g id="line2d_18">
      <g>
       <use style="stroke:#000000;stroke-width:0.6;" x="258.377143" xlink:href="#mf18c686b36" y="298.944"/>
      </g>
     </g>
    </g>
    <g id="xtick_8">
     <g id="line2d_19">
      <path clip-path="url(#pce92769048)" d="M 338.688 298.944 
L 338.688 27.648 
" style="fill:none;stroke:#b0b0b0;stroke-linecap:square;stroke-width:0.8;"/>
     </g>
     <g id="line2d_20">
      <g>
       <use style="stroke:#000000;stroke-width:0.6;" x="338.688" xlink:href="#mf18c686b36" y="298.944"/>
      </g>
     </g>
    </g>
    <g id="text_5">
     <!-- log10(# f-evals / dimension) -->
     <g transform="translate(77.764078 342.217594)scale(0.17 -0.17)">
      <defs>
       <path d="M 603 4863 
L 1178 4863 
L 1178 0 
L 603 0 
L 603 4863 
z
" id="DejaVuSans-6c" transform="scale(0.015625)"/>
       <path d="M 1959 3097 
Q 1497 3097 1228 2736 
Q 959 2375 959 1747 
Q 959 1119 1226 758 
Q 1494 397 1959 397 
Q 2419 397 2687 759 
Q 2956 1122 2956 1747 
Q 2956 2369 2687 2733 
Q 2419 3097 1959 3097 
z
M 1959 3584 
Q 2709 3584 3137 3096 
Q 3566 2609 3566 1747 
Q 3566 888 3137 398 
Q 2709 -91 1959 -91 
Q 1206 -91 779 398 
Q 353 888 353 1747 
Q 353 2609 779 3096 
Q 1206 3584 1959 3584 
z
" id="DejaVuSans-6f" transform="scale(0.015625)"/>
       <path d="M 2906 1791 
Q 2906 2416 2648 2759 
Q 2391 3103 1925 3103 
Q 1463 3103 1205 2759 
Q 947 2416 947 1791 
Q 947 1169 1205 825 
Q 1463 481 1925 481 
Q 2391 481 2648 825 
Q 2906 1169 2906 1791 
z
M 3481 434 
Q 3481 -459 3084 -895 
Q 2688 -1331 1869 -1331 
Q 1566 -1331 1297 -1286 
Q 1028 -1241 775 -1147 
L 775 -588 
Q 1028 -725 1275 -790 
Q 1522 -856 1778 -856 
Q 2344 -856 2625 -561 
Q 2906 -266 2906 331 
L 2906 616 
Q 2728 306 2450 153 
Q 2172 0 1784 0 
Q 1141 0 747 490 
Q 353 981 353 1791 
Q 353 2603 747 3093 
Q 1141 3584 1784 3584 
Q 2172 3584 2450 3431 
Q 2728 3278 2906 2969 
L 2906 3500 
L 3481 3500 
L 3481 434 
z
" id="DejaVuSans-67" transform="scale(0.015625)"/>
       <path d="M 794 531 
L 1825 531 
L 1825 4091 
L 703 3866 
L 703 4441 
L 1819 4666 
L 2450 4666 
L 2450 531 
L 3481 531 
L 3481 0 
L 794 0 
L 794 531 
z
" id="DejaVuSans-31" transform="scale(0.015625)"/>
       <path d="M 1984 4856 
Q 1566 4138 1362 3434 
Q 1159 2731 1159 2009 
Q 1159 1288 1364 580 
Q 1569 -128 1984 -844 
L 1484 -844 
Q 1016 -109 783 600 
Q 550 1309 550 2009 
Q 550 2706 781 3412 
Q 1013 4119 1484 4856 
L 1984 4856 
z
" id="DejaVuSans-28" transform="scale(0.015625)"/>
       <path d="M 3272 2816 
L 2363 2816 
L 2100 1772 
L 3016 1772 
L 3272 2816 
z
M 2803 4594 
L 2478 3297 
L 3391 3297 
L 3719 4594 
L 4219 4594 
L 3897 3297 
L 4872 3297 
L 4872 2816 
L 3775 2816 
L 3519 1772 
L 4513 1772 
L 4513 1294 
L 3397 1294 
L 3072 0 
L 2572 0 
L 2894 1294 
L 1978 1294 
L 1656 0 
L 1153 0 
L 1478 1294 
L 494 1294 
L 494 1772 
L 1594 1772 
L 1856 2816 
L 850 2816 
L 850 3297 
L 1978 3297 
L 2297 4594 
L 2803 4594 
z
" id="DejaVuSans-23" transform="scale(0.015625)"/>
       <path id="DejaVuSans-20" transform="scale(0.015625)"/>
       <path d="M 2375 4863 
L 2375 4384 
L 1825 4384 
Q 1516 4384 1395 4259 
Q 1275 4134 1275 3809 
L 1275 3500 
L 2222 3500 
L 2222 3053 
L 1275 3053 
L 1275 0 
L 697 0 
L 697 3053 
L 147 3053 
L 147 3500 
L 697 3500 
L 697 3744 
Q 697 4328 969 4595 
Q 1241 4863 1831 4863 
L 2375 4863 
z
" id="DejaVuSans-66" transform="scale(0.015625)"/>
       <path d="M 313 2009 
L 1997 2009 
L 1997 1497 
L 313 1497 
L 313 2009 
z
" id="DejaVuSans-2d" transform="scale(0.015625)"/>
       <path d="M 3597 1894 
L 3597 1613 
L 953 1613 
Q 991 1019 1311 708 
Q 1631 397 2203 397 
Q 2534 397 2845 478 
Q 3156 559 3463 722 
L 3463 178 
Q 3153 47 2828 -22 
Q 2503 -91 2169 -91 
Q 1331 -91 842 396 
Q 353 884 353 1716 
Q 353 2575 817 3079 
Q 1281 3584 2069 3584 
Q 2775 3584 3186 3129 
Q 3597 2675 3597 1894 
z
M 3022 2063 
Q 3016 2534 2758 2815 
Q 2500 3097 2075 3097 
Q 1594 3097 1305 2825 
Q 1016 2553 972 2059 
L 3022 2063 
z
" id="DejaVuSans-65" transform="scale(0.015625)"/>
       <path d="M 191 3500 
L 800 3500 
L 1894 563 
L 2988 3500 
L 3597 3500 
L 2284 0 
L 1503 0 
L 191 3500 
z
" id="DejaVuSans-76" transform="scale(0.015625)"/>
       <path d="M 2194 1759 
Q 1497 1759 1228 1600 
Q 959 1441 959 1056 
Q 959 750 1161 570 
Q 1363 391 1709 391 
Q 2188 391 2477 730 
Q 2766 1069 2766 1631 
L 2766 1759 
L 2194 1759 
z
M 3341 1997 
L 3341 0 
L 2766 0 
L 2766 531 
Q 2569 213 2275 61 
Q 1981 -91 1556 -91 
Q 1019 -91 701 211 
Q 384 513 384 1019 
Q 384 1609 779 1909 
Q 1175 2209 1959 2209 
L 2766 2209 
L 2766 2266 
Q 2766 2663 2505 2880 
Q 2244 3097 1772 3097 
Q 1472 3097 1187 3025 
Q 903 2953 641 2809 
L 641 3341 
Q 956 3463 1253 3523 
Q 1550 3584 1831 3584 
Q 2591 3584 2966 3190 
Q 3341 2797 3341 1997 
z
" id="DejaVuSans-61" transform="scale(0.015625)"/>
       <path d="M 2834 3397 
L 2834 2853 
Q 2591 2978 2328 3040 
Q 2066 3103 1784 3103 
Q 1356 3103 1142 2972 
Q 928 2841 928 2578 
Q 928 2378 1081 2264 
Q 1234 2150 1697 2047 
L 1894 2003 
Q 2506 1872 2764 1633 
Q 3022 1394 3022 966 
Q 3022 478 2636 193 
Q 2250 -91 1575 -91 
Q 1294 -91 989 -36 
Q 684 19 347 128 
L 347 722 
Q 666 556 975 473 
Q 1284 391 1588 391 
Q 1994 391 2212 530 
Q 2431 669 2431 922 
Q 2431 1156 2273 1281 
Q 2116 1406 1581 1522 
L 1381 1569 
Q 847 1681 609 1914 
Q 372 2147 372 2553 
Q 372 3047 722 3315 
Q 1072 3584 1716 3584 
Q 2034 3584 2315 3537 
Q 2597 3491 2834 3397 
z
" id="DejaVuSans-73" transform="scale(0.015625)"/>
       <path d="M 1625 4666 
L 2156 4666 
L 531 -594 
L 0 -594 
L 1625 4666 
z
" id="DejaVuSans-2f" transform="scale(0.015625)"/>
       <path d="M 2906 2969 
L 2906 4863 
L 3481 4863 
L 3481 0 
L 2906 0 
L 2906 525 
Q 2725 213 2448 61 
Q 2172 -91 1784 -91 
Q 1150 -91 751 415 
Q 353 922 353 1747 
Q 353 2572 751 3078 
Q 1150 3584 1784 3584 
Q 2172 3584 2448 3432 
Q 2725 3281 2906 2969 
z
M 947 1747 
Q 947 1113 1208 752 
Q 1469 391 1925 391 
Q 2381 391 2643 752 
Q 2906 1113 2906 1747 
Q 2906 2381 2643 2742 
Q 2381 3103 1925 3103 
Q 1469 3103 1208 2742 
Q 947 2381 947 1747 
z
" id="DejaVuSans-64" transform="scale(0.015625)"/>
       <path d="M 603 3500 
L 1178 3500 
L 1178 0 
L 603 0 
L 603 3500 
z
M 603 4863 
L 1178 4863 
L 1178 4134 
L 603 4134 
L 603 4863 
z
" id="DejaVuSans-69" transform="scale(0.015625)"/>
       <path d="M 3328 2828 
Q 3544 3216 3844 3400 
Q 4144 3584 4550 3584 
Q 5097 3584 5394 3201 
Q 5691 2819 5691 2113 
L 5691 0 
L 5113 0 
L 5113 2094 
Q 5113 2597 4934 2840 
Q 4756 3084 4391 3084 
Q 3944 3084 3684 2787 
Q 3425 2491 3425 1978 
L 3425 0 
L 2847 0 
L 2847 2094 
Q 2847 2600 2669 2842 
Q 2491 3084 2119 3084 
Q 1678 3084 1418 2786 
Q 1159 2488 1159 1978 
L 1159 0 
L 581 0 
L 581 3500 
L 1159 3500 
L 1159 2956 
Q 1356 3278 1631 3431 
Q 1906 3584 2284 3584 
Q 2666 3584 2933 3390 
Q 3200 3197 3328 2828 
z
" id="DejaVuSans-6d" transform="scale(0.015625)"/>
       <path d="M 3513 2113 
L 3513 0 
L 2938 0 
L 2938 2094 
Q 2938 2591 2744 2837 
Q 2550 3084 2163 3084 
Q 1697 3084 1428 2787 
Q 1159 2491 1159 1978 
L 1159 0 
L 581 0 
L 581 3500 
L 1159 3500 
L 1159 2956 
Q 1366 3272 1645 3428 
Q 1925 3584 2291 3584 
Q 2894 3584 3203 3211 
Q 3513 2838 3513 2113 
z
" id="DejaVuSans-6e" transform="scale(0.015625)"/>
       <path d="M 513 4856 
L 1013 4856 
Q 1481 4119 1714 3412 
Q 1947 2706 1947 2009 
Q 1947 1309 1714 600 
Q 1481 -109 1013 -844 
L 513 -844 
Q 928 -128 1133 580 
Q 1338 1288 1338 2009 
Q 1338 2731 1133 3434 
Q 928 4138 513 4856 
z
" id="DejaVuSans-29" transform="scale(0.015625)"/>
      </defs>
      <use xlink:href="#DejaVuSans-6c"/>
      <use x="27.783203" xlink:href="#DejaVuSans-6f"/>
      <use x="88.964844" xlink:href="#DejaVuSans-67"/>
      <use x="152.441406" xlink:href="#DejaVuSans-31"/>
      <use x="216.064453" xlink:href="#DejaVuSans-30"/>
      <use x="279.6875" xlink:href="#DejaVuSans-28"/>
      <use x="318.701172" xlink:href="#DejaVuSans-23"/>
      <use x="402.490234" xlink:href="#DejaVuSans-20"/>
      <use x="434.277344" xlink:href="#DejaVuSans-66"/>
      <use x="463.982422" xlink:href="#DejaVuSans-2d"/>
      <use x="500.066406" xlink:href="#DejaVuSans-65"/>
      <use x="561.589844" xlink:href="#DejaVuSans-76"/>
      <use x="620.769531" xlink:href="#DejaVuSans-61"/>
      <use x="682.048828" xlink:href="#DejaVuSans-6c"/>
      <use x="709.832031" xlink:href="#DejaVuSans-73"/>
      <use x="761.931641" xlink:href="#DejaVuSans-20"/>
      <use x="793.71875" xlink:href="#DejaVuSans-2f"/>
      <use x="827.410156" xlink:href="#DejaVuSans-20"/>
      <use x="859.197266" xlink:href="#DejaVuSans-64"/>
      <use x="922.673828" xlink:href="#DejaVuSans-69"/>
      <use x="950.457031" xlink:href="#DejaVuSans-6d"/>
      <use x="1047.869141" xlink:href="#DejaVuSans-65"/>
      <use x="1109.392578" xlink:href="#DejaVuSans-6e"/>
      <use x="1172.771484" xlink:href="#DejaVuSans-73"/>
      <use x="1224.871094" xlink:href="#DejaVuSans-69"/>
      <use x="1252.654297" xlink:href="#DejaVuSans-6f"/>
      <use x="1313.835938" xlink:href="#DejaVuSans-6e"/>
      <use x="1377.214844" xlink:href="#DejaVuSans-29"/>
     </g>
    </g>
   </g>
   <g id="matplotlib.axis_2">
    <g id="ytick_1">
     <g id="line2d_21">
      <path clip-path="url(#pce92769048)" d="M 57.6 298.944 
L 338.688 298.944 
" style="fill:none;stroke:#b0b0b0;stroke-linecap:square;stroke-width:0.8;"/>
     </g>
     <g id="line2d_22">
      <defs>
       <path d="M 0 0 
L -3.5 0 
" id="m0786fabba1" style="stroke:#000000;stroke-width:0.8;"/>
      </defs>
      <g>
       <use style="stroke:#000000;stroke-width:0.8;" x="57.6" xlink:href="#m0786fabba1" y="298.944"/>
      </g>
     </g>
     <g id="text_6">
      <!-- 0.0 -->
      <g transform="translate(25.155 305.02275)scale(0.16 -0.16)">
       <defs>
        <path d="M 684 794 
L 1344 794 
L 1344 0 
L 684 0 
L 684 794 
z
" id="DejaVuSans-2e" transform="scale(0.015625)"/>
       </defs>
       <use xlink:href="#DejaVuSans-30"/>
       <use x="63.623047" xlink:href="#DejaVuSans-2e"/>
       <use x="95.410156" xlink:href="#DejaVuSans-30"/>
      </g>
     </g>
    </g>
    <g id="ytick_2">
     <g id="line2d_23">
      <path clip-path="url(#pce92769048)" d="M 57.6 245.22202 
L 338.688 245.22202 
" style="fill:none;stroke:#b0b0b0;stroke-linecap:square;stroke-width:0.8;"/>
     </g>
     <g id="line2d_24">
      <g>
       <use style="stroke:#000000;stroke-width:0.8;" x="57.6" xlink:href="#m0786fabba1" y="245.22202"/>
      </g>
     </g>
     <g id="text_7">
      <!-- 0.2 -->
      <g transform="translate(25.155 251.30077)scale(0.16 -0.16)">
       <use xlink:href="#DejaVuSans-30"/>
       <use x="63.623047" xlink:href="#DejaVuSans-2e"/>
       <use x="95.410156" xlink:href="#DejaVuSans-32"/>
      </g>
     </g>
    </g>
    <g id="ytick_3">
     <g id="line2d_25">
      <path clip-path="url(#pce92769048)" d="M 57.6 191.50004 
L 338.688 191.50004 
" style="fill:none;stroke:#b0b0b0;stroke-linecap:square;stroke-width:0.8;"/>
     </g>
     <g id="line2d_26">
      <g>
       <use style="stroke:#000000;stroke-width:0.8;" x="57.6" xlink:href="#m0786fabba1" y="191.50004"/>
      </g>
     </g>
     <g id="text_8">
      <!-- 0.4 -->
      <g transform="translate(25.155 197.57879)scale(0.16 -0.16)">
       <use xlink:href="#DejaVuSans-30"/>
       <use x="63.623047" xlink:href="#DejaVuSans-2e"/>
       <use x="95.410156" xlink:href="#DejaVuSans-34"/>
      </g>
     </g>
    </g>
    <g id="ytick_4">
     <g id="line2d_27">
      <path clip-path="url(#pce92769048)" d="M 57.6 137.778059 
L 338.688 137.778059 
" style="fill:none;stroke:#b0b0b0;stroke-linecap:square;stroke-width:0.8;"/>
     </g>
     <g id="line2d_28">
      <g>
       <use style="stroke:#000000;stroke-width:0.8;" x="57.6" xlink:href="#m0786fabba1" y="137.778059"/>
      </g>
     </g>
     <g id="text_9">
      <!-- 0.6 -->
      <g transform="translate(25.155 143.856809)scale(0.16 -0.16)">
       <use xlink:href="#DejaVuSans-30"/>
       <use x="63.623047" xlink:href="#DejaVuSans-2e"/>
       <use x="95.410156" xlink:href="#DejaVuSans-36"/>
      </g>
     </g>
    </g>
    <g id="ytick_5">
     <g id="line2d_29">
      <path clip-path="url(#pce92769048)" d="M 57.6 84.056079 
L 338.688 84.056079 
" style="fill:none;stroke:#b0b0b0;stroke-linecap:square;stroke-width:0.8;"/>
     </g>
     <g id="line2d_30">
      <g>
       <use style="stroke:#000000;stroke-width:0.8;" x="57.6" xlink:href="#m0786fabba1" y="84.056079"/>
      </g>
     </g>
     <g id="text_10">
      <!-- 0.8 -->
      <g transform="translate(25.155 90.134829)scale(0.16 -0.16)">
       <defs>
        <path d="M 2034 2216 
Q 1584 2216 1326 1975 
Q 1069 1734 1069 1313 
Q 1069 891 1326 650 
Q 1584 409 2034 409 
Q 2484 409 2743 651 
Q 3003 894 3003 1313 
Q 3003 1734 2745 1975 
Q 2488 2216 2034 2216 
z
M 1403 2484 
Q 997 2584 770 2862 
Q 544 3141 544 3541 
Q 544 4100 942 4425 
Q 1341 4750 2034 4750 
Q 2731 4750 3128 4425 
Q 3525 4100 3525 3541 
Q 3525 3141 3298 2862 
Q 3072 2584 2669 2484 
Q 3125 2378 3379 2068 
Q 3634 1759 3634 1313 
Q 3634 634 3220 271 
Q 2806 -91 2034 -91 
Q 1263 -91 848 271 
Q 434 634 434 1313 
Q 434 1759 690 2068 
Q 947 2378 1403 2484 
z
M 1172 3481 
Q 1172 3119 1398 2916 
Q 1625 2713 2034 2713 
Q 2441 2713 2670 2916 
Q 2900 3119 2900 3481 
Q 2900 3844 2670 4047 
Q 2441 4250 2034 4250 
Q 1625 4250 1398 4047 
Q 1172 3844 1172 3481 
z
" id="DejaVuSans-38" transform="scale(0.015625)"/>
       </defs>
       <use xlink:href="#DejaVuSans-30"/>
       <use x="63.623047" xlink:href="#DejaVuSans-2e"/>
       <use x="95.410156" xlink:href="#DejaVuSans-38"/>
      </g>
     </g>
    </g>
    <g id="ytick_6">
     <g id="line2d_31">
      <path clip-path="url(#pce92769048)" d="M 57.6 30.334099 
L 338.688 30.334099 
" style="fill:none;stroke:#b0b0b0;stroke-linecap:square;stroke-width:0.8;"/>
     </g>
     <g id="line2d_32">
      <g>
       <use style="stroke:#000000;stroke-width:0.8;" x="57.6" xlink:href="#m0786fabba1" y="30.334099"/>
      </g>
     </g>
     <g id="text_11">
      <!-- 1.0 -->
      <g transform="translate(25.155 36.412849)scale(0.16 -0.16)">
       <use xlink:href="#DejaVuSans-31"/>
       <use x="63.623047" xlink:href="#DejaVuSans-2e"/>
       <use x="95.410156" xlink:href="#DejaVuSans-30"/>
      </g>
     </g>
    </g>
    <g id="text_12">
     <!-- Fraction of function,target pairs -->
     <g transform="translate(17.619531 297.681)rotate(-90)scale(0.17 -0.17)">
      <defs>
       <path d="M 628 4666 
L 3309 4666 
L 3309 4134 
L 1259 4134 
L 1259 2759 
L 3109 2759 
L 3109 2228 
L 1259 2228 
L 1259 0 
L 628 0 
L 628 4666 
z
" id="DejaVuSans-46" transform="scale(0.015625)"/>
       <path d="M 2631 2963 
Q 2534 3019 2420 3045 
Q 2306 3072 2169 3072 
Q 1681 3072 1420 2755 
Q 1159 2438 1159 1844 
L 1159 0 
L 581 0 
L 581 3500 
L 1159 3500 
L 1159 2956 
Q 1341 3275 1631 3429 
Q 1922 3584 2338 3584 
Q 2397 3584 2469 3576 
Q 2541 3569 2628 3553 
L 2631 2963 
z
" id="DejaVuSans-72" transform="scale(0.015625)"/>
       <path d="M 3122 3366 
L 3122 2828 
Q 2878 2963 2633 3030 
Q 2388 3097 2138 3097 
Q 1578 3097 1268 2742 
Q 959 2388 959 1747 
Q 959 1106 1268 751 
Q 1578 397 2138 397 
Q 2388 397 2633 464 
Q 2878 531 3122 666 
L 3122 134 
Q 2881 22 2623 -34 
Q 2366 -91 2075 -91 
Q 1284 -91 818 406 
Q 353 903 353 1747 
Q 353 2603 823 3093 
Q 1294 3584 2113 3584 
Q 2378 3584 2631 3529 
Q 2884 3475 3122 3366 
z
" id="DejaVuSans-63" transform="scale(0.015625)"/>
       <path d="M 1172 4494 
L 1172 3500 
L 2356 3500 
L 2356 3053 
L 1172 3053 
L 1172 1153 
Q 1172 725 1289 603 
Q 1406 481 1766 481 
L 2356 481 
L 2356 0 
L 1766 0 
Q 1100 0 847 248 
Q 594 497 594 1153 
L 594 3053 
L 172 3053 
L 172 3500 
L 594 3500 
L 594 4494 
L 1172 4494 
z
" id="DejaVuSans-74" transform="scale(0.015625)"/>
       <path d="M 544 1381 
L 544 3500 
L 1119 3500 
L 1119 1403 
Q 1119 906 1312 657 
Q 1506 409 1894 409 
Q 2359 409 2629 706 
Q 2900 1003 2900 1516 
L 2900 3500 
L 3475 3500 
L 3475 0 
L 2900 0 
L 2900 538 
Q 2691 219 2414 64 
Q 2138 -91 1772 -91 
Q 1169 -91 856 284 
Q 544 659 544 1381 
z
M 1991 3584 
L 1991 3584 
z
" id="DejaVuSans-75" transform="scale(0.015625)"/>
       <path d="M 750 794 
L 1409 794 
L 1409 256 
L 897 -744 
L 494 -744 
L 750 256 
L 750 794 
z
" id="DejaVuSans-2c" transform="scale(0.015625)"/>
       <path d="M 1159 525 
L 1159 -1331 
L 581 -1331 
L 581 3500 
L 1159 3500 
L 1159 2969 
Q 1341 3281 1617 3432 
Q 1894 3584 2278 3584 
Q 2916 3584 3314 3078 
Q 3713 2572 3713 1747 
Q 3713 922 3314 415 
Q 2916 -91 2278 -91 
Q 1894 -91 1617 61 
Q 1341 213 1159 525 
z
M 3116 1747 
Q 3116 2381 2855 2742 
Q 2594 3103 2138 3103 
Q 1681 3103 1420 2742 
Q 1159 2381 1159 1747 
Q 1159 1113 1420 752 
Q 1681 391 2138 391 
Q 2594 391 2855 752 
Q 3116 1113 3116 1747 
z
" id="DejaVuSans-70" transform="scale(0.015625)"/>
      </defs>
      <use xlink:href="#DejaVuSans-46"/>
      <use x="50.269531" xlink:href="#DejaVuSans-72"/>
      <use x="91.382812" xlink:href="#DejaVuSans-61"/>
      <use x="152.662109" xlink:href="#DejaVuSans-63"/>
      <use x="207.642578" xlink:href="#DejaVuSans-74"/>
      <use x="246.851562" xlink:href="#DejaVuSans-69"/>
      <use x="274.634766" xlink:href="#DejaVuSans-6f"/>
      <use x="335.816406" xlink:href="#DejaVuSans-6e"/>
      <use x="399.195312" xlink:href="#DejaVuSans-20"/>
      <use x="430.982422" xlink:href="#DejaVuSans-6f"/>
      <use x="492.164062" xlink:href="#DejaVuSans-66"/>
      <use x="527.369141" xlink:href="#DejaVuSans-20"/>
      <use x="559.15625" xlink:href="#DejaVuSans-66"/>
      <use x="594.361328" xlink:href="#DejaVuSans-75"/>
      <use x="657.740234" xlink:href="#DejaVuSans-6e"/>
      <use x="721.119141" xlink:href="#DejaVuSans-63"/>
      <use x="776.099609" xlink:href="#DejaVuSans-74"/>
      <use x="815.308594" xlink:href="#DejaVuSans-69"/>
      <use x="843.091797" xlink:href="#DejaVuSans-6f"/>
      <use x="904.273438" xlink:href="#DejaVuSans-6e"/>
      <use x="967.652344" xlink:href="#DejaVuSans-2c"/>
      <use x="999.439453" xlink:href="#DejaVuSans-74"/>
      <use x="1038.648438" xlink:href="#DejaVuSans-61"/>
      <use x="1099.927734" xlink:href="#DejaVuSans-72"/>
      <use x="1139.291016" xlink:href="#DejaVuSans-67"/>
      <use x="1202.767578" xlink:href="#DejaVuSans-65"/>
      <use x="1264.291016" xlink:href="#DejaVuSans-74"/>
      <use x="1303.5" xlink:href="#DejaVuSans-20"/>
      <use x="1335.287109" xlink:href="#DejaVuSans-70"/>
      <use x="1398.763672" xlink:href="#DejaVuSans-61"/>
      <use x="1460.042969" xlink:href="#DejaVuSans-69"/>
      <use x="1487.826172" xlink:href="#DejaVuSans-72"/>
      <use x="1528.939453" xlink:href="#DejaVuSans-73"/>
     </g>
    </g>
   </g>
   <g id="line2d_33">
    <defs>
     <path d="M 0 1.5 
C 0.397805 1.5 0.77937 1.341951 1.06066 1.06066 
C 1.341951 0.77937 1.5 0.397805 1.5 0 
C 1.5 -0.397805 1.341951 -0.77937 1.06066 -1.06066 
C 0.77937 -1.341951 0.397805 -1.5 0 -1.5 
C -0.397805 -1.5 -0.77937 -1.341951 -1.06066 -1.06066 
C -1.341951 -0.77937 -1.5 -0.397805 -1.5 0 
C -1.5 0.397805 -1.341951 0.77937 -1.06066 1.06066 
C -0.77937 1.341951 -0.397805 1.5 0 1.5 
z
" id="m207cb4d8f0" style="stroke:#f5deb3;"/>
    </defs>
    <g>
     <use style="fill:#f5deb3;stroke:#f5deb3;" x="72.125336" xlink:href="#m207cb4d8f0" y="30.334099"/>
     <use style="fill:#f5deb3;stroke:#f5deb3;" x="72.125336" xlink:href="#m207cb4d8f0" y="30.334099"/>
    </g>
   </g>
   <g id="line2d_34">
    <defs>
     <path d="M 0 1.5 
C 0.397805 1.5 0.77937 1.341951 1.06066 1.06066 
C 1.341951 0.77937 1.5 0.397805 1.5 0 
C 1.5 -0.397805 1.341951 -0.77937 1.06066 -1.06066 
C 0.77937 -1.341951 0.397805 -1.5 0 -1.5 
C -0.397805 -1.5 -0.77937 -1.341951 -1.06066 -1.06066 
C -1.341951 -0.77937 -1.5 -0.397805 -1.5 0 
C -1.5 0.397805 -1.341951 0.77937 -1.06066 1.06066 
C -0.77937 1.341951 -0.397805 1.5 0 1.5 
z
" id="meb7067aeb6" style="stroke:#000080;"/>
    </defs>
    <g>
     <use style="fill:#000080;stroke:#000080;" x="181.425124" xlink:href="#meb7067aeb6" y="30.334099"/>
     <use style="fill:#000080;stroke:#000080;" x="181.425124" xlink:href="#meb7067aeb6" y="30.334099"/>
    </g>
   </g>
   <g id="line2d_35">
    <path d="M 17.444571 298.944 
L 17.444571 297.363942 
L 29.53256 297.363942 
L 29.53256 295.783884 
L 36.60358 295.783884 
L 36.60358 294.730511 
L 45.512012 294.730511 
L 45.512012 292.623767 
L 48.691568 292.623767 
L 48.691568 292.097081 
L 51.379845 292.097081 
L 51.379845 290.517023 
L 53.708537 290.517023 
L 53.708537 289.990337 
L 57.6 289.990337 
L 57.6 289.463651 
L 67.850577 289.463651 
L 67.850577 288.936964 
L 71.35013 288.936964 
L 71.35013 288.410278 
L 73.579452 288.410278 
L 73.579452 287.883592 
L 77.884514 287.883592 
L 77.884514 287.356906 
L 79.447285 287.356906 
L 79.447285 286.83022 
L 82.626842 286.83022 
L 82.626842 286.303534 
L 84.955534 286.303534 
L 84.955534 285.250162 
L 85.315119 285.250162 
L 85.315119 284.723476 
L 86.683608 284.723476 
L 86.683608 284.19679 
L 88.553893 284.19679 
L 88.553893 283.670104 
L 92.969447 283.670104 
L 92.969447 283.143418 
L 93.863965 283.143418 
L 93.863965 282.616732 
L 95.526106 282.616732 
L 95.526106 282.090045 
L 96.110718 282.090045 
L 96.110718 281.563359 
L 97.224242 281.563359 
L 97.224242 281.036673 
L 98.771596 281.036673 
L 98.771596 280.509987 
L 99.258306 280.509987 
L 99.258306 279.983301 
L 99.886816 279.983301 
L 99.886816 278.929929 
L 101.223245 278.929929 
L 101.223245 278.403243 
L 102.330873 278.403243 
L 102.330873 277.876557 
L 102.989037 277.876557 
L 102.989037 277.349871 
L 103.870632 277.349871 
L 103.870632 276.823185 
L 104.23523 276.823185 
L 104.23523 276.296499 
L 104.474128 276.296499 
L 104.474128 275.769812 
L 104.709797 275.769812 
L 104.709797 275.243126 
L 104.826449 275.243126 
L 104.826449 274.71644 
L 107.90885 274.71644 
L 107.90885 274.189754 
L 108.102622 274.189754 
L 108.102622 273.663068 
L 108.948899 273.663068 
L 108.948899 272.609696 
L 110.443353 272.609696 
L 110.443353 272.08301 
L 110.694282 272.08301 
L 110.694282 271.556324 
L 111.104637 271.556324 
L 111.104637 271.029638 
L 111.974805 271.029638 
L 111.974805 270.502952 
L 112.128456 270.502952 
L 112.128456 269.976266 
L 113.382559 269.976266 
L 113.382559 269.449579 
L 114.816733 269.449579 
L 114.816733 268.922893 
L 114.947365 268.922893 
L 114.947365 268.396207 
L 115.33349 268.396207 
L 115.33349 267.869521 
L 115.897107 267.869521 
L 115.897107 267.342835 
L 116.019919 267.342835 
L 116.019919 266.816149 
L 116.443076 266.816149 
L 116.502698 265.762777 
L 116.739166 265.762777 
L 116.739166 264.709405 
L 117.030313 264.709405 
L 117.030313 264.182719 
L 117.654224 264.182719 
L 117.654224 262.60266 
L 118.310324 262.60266 
L 118.310324 262.075974 
L 118.942633 262.075974 
L 118.942633 261.549288 
L 121.036887 261.549288 
L 121.036887 261.022602 
L 121.974949 261.022602 
L 121.974949 260.495916 
L 122.148045 260.495916 
L 122.148045 259.96923 
L 122.44689 259.96923 
L 122.44689 259.442544 
L 123.029641 259.442544 
L 123.029641 258.915858 
L 123.192626 258.915858 
L 123.192626 258.389172 
L 123.434283 258.389172 
L 123.434283 257.862486 
L 124.024168 257.862486 
L 124.024168 256.809114 
L 124.368753 256.809114 
L 124.368753 256.282427 
L 124.706662 256.282427 
L 124.706662 255.229055 
L 125.647598 255.229055 
L 125.647598 254.175683 
L 125.787955 254.175683 
L 125.787955 253.648997 
L 126.70692 253.648997 
L 126.70692 253.122311 
L 127.261631 253.122311 
L 127.261631 252.068939 
L 127.579875 252.068939 
L 127.579875 251.542253 
L 128.797771 251.542253 
L 128.797771 251.015567 
L 129.204706 251.015567 
L 129.204706 250.488881 
L 129.88095 250.488881 
L 129.88095 249.962195 
L 130.425122 249.962195 
L 130.425122 249.435508 
L 130.874681 249.435508 
L 130.874681 248.908822 
L 131.439773 248.908822 
L 131.540579 246.802078 
L 131.790072 246.802078 
L 131.790072 246.275392 
L 133.307488 246.275392 
L 133.307488 245.748706 
L 133.57787 245.748706 
L 133.57787 245.22202 
L 133.711505 245.22202 
L 133.711505 244.695334 
L 134.084669 244.695334 
L 134.084669 244.168648 
L 134.682402 244.168648 
L 134.682402 243.641962 
L 134.891008 243.641962 
L 134.891008 243.115275 
L 136.437776 243.115275 
L 136.437776 242.588589 
L 136.701442 242.588589 
L 136.701442 242.061903 
L 136.979586 242.061903 
L 137.071324 240.481845 
L 137.70032 240.481845 
L 137.70032 239.955159 
L 139.058148 239.955159 
L 139.058148 239.428473 
L 139.253002 239.428473 
L 139.253002 238.901787 
L 139.397728 238.901787 
L 139.397728 237.848415 
L 140.559227 237.848415 
L 140.559227 236.268356 
L 141.017599 236.268356 
L 141.061324 235.214984 
L 142.051655 235.214984 
L 142.051655 234.161612 
L 142.392144 234.161612 
L 142.392144 233.634926 
L 143.247504 233.634926 
L 143.337167 232.581554 
L 143.40093 232.581554 
L 143.489809 231.528182 
L 144.282077 231.528182 
L 144.282077 231.001496 
L 144.605813 231.001496 
L 144.665111 229.948123 
L 144.783103 229.948123 
L 144.783103 229.421437 
L 144.91198 229.421437 
L 144.91198 228.894751 
L 145.189903 228.894751 
L 145.235796 227.841379 
L 145.372754 227.841379 
L 145.463466 226.788007 
L 145.910079 226.788007 
L 146.00901 225.734635 
L 146.259313 225.734635 
L 146.259313 224.681263 
L 146.749392 224.681263 
L 146.749392 224.154577 
L 147.174888 224.154577 
L 147.174888 223.627891 
L 147.439433 223.627891 
L 147.439433 222.574518 
L 147.61026 222.574518 
L 147.650212 221.521146 
L 147.818997 221.521146 
L 147.907696 219.941088 
L 148.836097 219.941088 
L 148.836097 219.414402 
L 149.012299 219.414402 
L 149.012299 218.887716 
L 149.350404 218.887716 
L 149.44067 217.307658 
L 149.557321 217.307658 
L 149.557321 216.780971 
L 149.805951 216.780971 
L 149.893895 215.727599 
L 150.607205 215.727599 
L 150.607205 215.200913 
L 151.080698 215.200913 
L 151.080698 214.147541 
L 151.203194 214.147541 
L 151.21133 213.094169 
L 151.453659 213.094169 
L 151.453659 212.567483 
L 152.245598 212.567483 
L 152.245598 212.040797 
L 152.39064 212.040797 
L 152.466496 210.460738 
L 152.885298 210.460738 
L 152.885298 209.934052 
L 153.017805 209.934052 
L 153.039792 208.88068 
L 153.207444 208.88068 
L 153.27261 207.300622 
L 153.516621 207.300622 
L 153.516621 206.773936 
L 153.637357 206.773936 
L 153.686831 205.720564 
L 153.925152 205.720564 
L 153.925152 205.193878 
L 154.46664 205.193878 
L 154.46664 204.667192 
L 154.667942 204.667192 
L 154.667942 203.613819 
L 155.102793 203.613819 
L 155.193657 202.033761 
L 155.258271 202.033761 
L 155.258271 201.507075 
L 155.685117 201.507075 
L 155.685117 200.980389 
L 156.046372 200.980389 
L 156.138594 199.400331 
L 156.230332 199.400331 
L 156.230332 198.873645 
L 156.376116 198.873645 
L 156.376116 198.346959 
L 156.598505 198.346959 
L 156.604476 197.293586 
L 156.723476 197.293586 
L 156.723476 196.7669 
L 156.859328 196.7669 
L 156.859328 196.240214 
L 157.087296 196.240214 
L 157.087296 195.713528 
L 157.340963 195.713528 
L 157.340963 194.660156 
L 157.759435 194.660156 
L 157.798506 193.606784 
L 158.107956 193.606784 
L 158.107956 193.080098 
L 158.433528 193.080098 
L 158.433528 192.553412 
L 158.694975 192.553412 
L 158.694975 192.026726 
L 159.030659 192.026726 
L 159.134248 190.973354 
L 159.17036 190.973354 
L 159.180664 189.393295 
L 159.288488 189.393295 
L 159.288488 188.866609 
L 159.436301 188.866609 
L 159.436301 188.339923 
L 159.552648 188.339923 
L 159.552648 187.813237 
L 159.877318 187.813237 
L 159.951391 186.759865 
L 160.059466 186.759865 
L 160.088825 185.706493 
L 160.249422 185.706493 
L 160.268789 184.126434 
L 160.394148 184.126434 
L 160.499521 183.073062 
L 160.722527 183.073062 
L 160.722527 182.546376 
L 161.049465 182.546376 
L 161.12334 179.912946 
L 161.210663 179.912946 
L 161.26102 178.332888 
L 161.429341 178.332888 
L 161.429341 177.806202 
L 161.703344 177.806202 
L 161.703344 177.279515 
L 162.012559 177.279515 
L 162.07375 176.226143 
L 162.521708 176.226143 
L 162.559939 175.172771 
L 162.724641 175.172771 
L 162.787576 174.119399 
L 162.850284 174.119399 
L 162.950152 173.066027 
L 163.004009 173.066027 
L 163.004009 172.539341 
L 163.180975 172.539341 
L 163.180975 172.012655 
L 163.356164 172.012655 
L 163.441086 170.959282 
L 163.748975 170.959282 
L 163.764822 169.90591 
L 164.164122 169.90591 
L 164.229793 167.799166 
L 164.50142 167.799166 
L 164.50142 167.27248 
L 164.626244 167.27248 
L 164.735204 166.219108 
L 164.753922 166.219108 
L 164.843488 165.165736 
L 165.013882 165.165736 
L 165.013882 164.63905 
L 165.407513 164.63905 
L 165.450706 163.585677 
L 165.714726 163.585677 
L 165.799503 160.952247 
L 165.995728 160.952247 
L 166.034014 159.898875 
L 166.162181 159.898875 
L 166.162181 159.372189 
L 166.361214 159.372189 
L 166.361214 158.845503 
L 166.493781 158.845503 
L 166.581603 156.738758 
L 166.712511 156.738758 
L 166.712511 156.212072 
L 167.030622 156.212072 
L 167.132118 155.1587 
L 167.145172 155.1587 
L 167.184273 153.578642 
L 167.336582 153.578642 
L 167.38813 152.52527 
L 167.497166 152.52527 
L 167.525915 150.945211 
L 167.719528 150.945211 
L 167.829655 148.838467 
L 167.864123 148.838467 
L 167.864123 148.311781 
L 168.010633 148.311781 
L 168.010633 147.785095 
L 168.254155 147.785095 
L 168.364009 145.678351 
L 168.436863 145.678351 
L 168.458054 143.571606 
L 168.787729 143.571606 
L 168.838127 141.464862 
L 168.947317 141.464862 
L 169.049979 139.884804 
L 169.07336 139.884804 
L 169.175285 138.831432 
L 169.189797 138.831432 
L 169.189797 138.304745 
L 169.348639 138.304745 
L 169.440395 137.251373 
L 169.51744 137.251373 
L 169.51744 136.724687 
L 169.715615 136.724687 
L 169.813865 135.144629 
L 169.858596 135.144629 
L 169.925477 133.037885 
L 169.981016 133.037885 
L 169.981016 132.511199 
L 170.174022 132.511199 
L 170.272457 130.404454 
L 170.286084 130.404454 
L 170.354063 128.29771 
L 170.486538 128.29771 
L 170.56447 126.717652 
L 170.607318 126.717652 
L 170.700684 125.66428 
L 170.798844 125.66428 
L 170.864857 124.084221 
L 170.983054 124.084221 
L 170.988289 123.030849 
L 171.250617 123.030849 
L 171.327782 121.977477 
L 171.422484 121.977477 
L 171.531901 120.397419 
L 171.534438 120.397419 
L 171.61036 118.817361 
L 171.653236 118.817361 
L 171.73366 117.237302 
L 171.791236 117.237302 
L 171.858583 116.18393 
L 171.925672 116.18393 
L 171.925672 115.657244 
L 172.330143 115.657244 
L 172.441252 114.077186 
L 172.477331 114.077186 
L 172.498943 113.023814 
L 172.857598 113.023814 
L 172.857598 112.497128 
L 173.058616 112.497128 
L 173.167503 110.917069 
L 173.206721 110.917069 
L 173.206721 110.390383 
L 173.326137 110.390383 
L 173.326137 109.863697 
L 173.487877 109.863697 
L 173.582852 107.230267 
L 173.630147 107.230267 
L 173.630147 106.703581 
L 173.889107 106.703581 
L 173.984132 105.123522 
L 174.036945 105.123522 
L 174.061097 103.543464 
L 174.161738 103.543464 
L 174.18354 102.490092 
L 174.296472 102.490092 
L 174.333234 100.910034 
L 174.408678 100.910034 
L 174.464511 98.803289 
L 174.59055 98.803289 
L 174.643683 97.749917 
L 174.717799 97.749917 
L 174.821034 96.696545 
L 174.842027 96.696545 
L 174.906947 95.116487 
L 175.089929 95.116487 
L 175.098201 93.536429 
L 175.289425 93.536429 
L 175.309863 90.902998 
L 175.478575 90.902998 
L 175.521004 88.269568 
L 175.5935 88.269568 
L 175.5935 87.742882 
L 175.801256 87.742882 
L 175.912107 86.162824 
L 175.927886 86.162824 
L 176.01049 84.056079 
L 176.057518 84.056079 
L 176.098563 81.949335 
L 176.178421 81.949335 
L 176.288839 79.315904 
L 176.348599 79.315904 
L 176.450298 76.682474 
L 176.501879 76.682474 
L 176.581815 75.102416 
L 176.725536 75.102416 
L 176.725536 74.57573 
L 176.881152 74.57573 
L 176.897943 72.995672 
L 177.013177 72.995672 
L 177.027991 71.942299 
L 177.158913 71.942299 
L 177.158913 71.415613 
L 177.408792 71.415613 
L 177.484686 70.362241 
L 177.554864 70.362241 
L 177.660498 66.675439 
L 177.689034 66.675439 
L 177.715744 63.515322 
L 177.899821 63.515322 
L 178.003391 61.408578 
L 178.061053 61.408578 
L 178.101129 60.355206 
L 178.187935 60.355206 
L 178.258795 58.775147 
L 178.42701 58.775147 
L 178.537693 57.195089 
L 178.549571 57.195089 
L 178.571608 56.141717 
L 178.716697 56.141717 
L 178.745235 54.561659 
L 178.857257 54.561659 
L 178.942047 51.928228 
L 178.980151 51.928228 
L 178.995038 50.34817 
L 179.097254 50.34817 
L 179.169433 47.71474 
L 179.234791 47.71474 
L 179.234791 47.188054 
L 179.460026 47.188054 
L 179.548351 44.554623 
L 179.586753 44.554623 
L 179.597938 42.447879 
L 179.77118 42.447879 
L 179.862667 40.867821 
L 179.96932 40.867821 
L 179.96932 40.341135 
L 180.124987 40.341135 
L 180.234673 38.23439 
L 180.316104 38.23439 
L 180.412408 35.60096 
L 180.439826 35.60096 
L 180.5006 34.547588 
L 180.577782 34.547588 
L 180.641088 33.494215 
L 180.866809 33.494215 
L 180.866809 32.967529 
L 181.073508 32.967529 
L 181.073508 32.440843 
L 181.277785 32.440843 
L 181.32125 30.860785 
L 181.425124 30.860785 
L 181.425124 30.334099 
L 338.688 30.334099 
L 338.688 30.334099 
" style="fill:none;stroke:#000080;stroke-linecap:square;stroke-width:1.5;"/>
   </g>
   <g id="line2d_36">
    <defs>
     <path d="M 0 6 
C 1.591219 6 3.117479 5.367802 4.242641 4.242641 
C 5.367802 3.117479 6 1.591219 6 0 
C 6 -1.591219 5.367802 -3.117479 4.242641 -4.242641 
C 3.117479 -5.367802 1.591219 -6 0 -6 
C -1.591219 -6 -3.117479 -5.367802 -4.242641 -4.242641 
C -5.367802 -3.117479 -6 -1.591219 -6 0 
C -6 1.591219 -5.367802 3.117479 -4.242641 4.242641 
C -3.117479 5.367802 -1.591219 6 0 6 
z
" id="m001682bdf7" style="stroke:#000080;stroke-width:1.5;"/>
    </defs>
    <g>
     <use style="fill-opacity:0;stroke:#000080;stroke-width:1.5;" x="104.826449" xlink:href="#m001682bdf7" y="274.71644"/>
     <use style="fill-opacity:0;stroke:#000080;stroke-width:1.5;" x="162.950152" xlink:href="#m001682bdf7" y="173.066027"/>
     <use style="fill-opacity:0;stroke:#000080;stroke-width:1.5;" x="181.425124" xlink:href="#m001682bdf7" y="30.860785"/>
     <use style="fill-opacity:0;stroke:#000080;stroke-width:1.5;" x="181.425124" xlink:href="#m001682bdf7" y="30.334099"/>
     <use style="fill-opacity:0;stroke:#000080;stroke-width:1.5;" x="181.425124" xlink:href="#m001682bdf7" y="30.334099"/>
     <use style="fill-opacity:0;stroke:#000080;stroke-width:1.5;" x="338.688" xlink:href="#m001682bdf7" y="30.334099"/>
    </g>
   </g>
   <g id="line2d_37">
    <path style="fill:none;stroke:#000080;stroke-linecap:square;stroke-width:1.5;"/>
    <g/>
   </g>
   <g id="line2d_38">
    <defs>
     <path d="M 0 1.5 
C 0.397805 1.5 0.77937 1.341951 1.06066 1.06066 
C 1.341951 0.77937 1.5 0.397805 1.5 0 
C 1.5 -0.397805 1.341951 -0.77937 1.06066 -1.06066 
C 0.77937 -1.341951 0.397805 -1.5 0 -1.5 
C -0.397805 -1.5 -0.77937 -1.341951 -1.06066 -1.06066 
C -1.341951 -0.77937 -1.5 -0.397805 -1.5 0 
C -1.5 0.397805 -1.341951 0.77937 -1.06066 1.06066 
C -0.77937 1.341951 -0.397805 1.5 0 1.5 
z
" id="m1146822a0e" style="stroke:#ff00ff;"/>
    </defs>
    <g>
     <use style="fill:#ff00ff;stroke:#ff00ff;" x="196.048869" xlink:href="#m1146822a0e" y="30.334099"/>
     <use style="fill:#ff00ff;stroke:#ff00ff;" x="196.048869" xlink:href="#m1146822a0e" y="30.334099"/>
    </g>
   </g>
   <g id="line2d_39">
    <path d="M 17.444571 298.944 
L 17.444571 297.363942 
L 29.53256 297.363942 
L 29.53256 295.783884 
L 41.620548 295.783884 
L 41.620548 294.730511 
L 45.512012 294.730511 
L 45.512012 294.203825 
L 48.691568 294.203825 
L 48.691568 293.677139 
L 51.379845 293.677139 
L 51.379845 292.097081 
L 63.467834 292.097081 
L 63.467834 291.570395 
L 64.67102 291.570395 
L 64.67102 289.463651 
L 69.687988 289.463651 
L 69.687988 288.936964 
L 72.867545 288.936964 
L 72.867545 288.410278 
L 75.555822 288.410278 
L 75.555822 287.356906 
L 76.16779 287.356906 
L 76.16779 286.83022 
L 82.626842 286.83022 
L 82.626842 286.303534 
L 83.438118 286.303534 
L 83.438118 285.776848 
L 84.955534 285.776848 
L 84.955534 285.250162 
L 85.66744 285.250162 
L 85.66744 284.723476 
L 87.952479 284.723476 
L 87.952479 284.19679 
L 88.846997 284.19679 
L 88.846997 282.616732 
L 89.135256 282.616732 
L 89.135256 282.090045 
L 89.697862 282.090045 
L 89.697862 281.036673 
L 94.921215 281.036673 
L 94.921215 280.509987 
L 95.125186 280.509987 
L 95.125186 279.983301 
L 95.526106 279.983301 
L 95.526106 278.929929 
L 99.41757 278.929929 
L 99.41757 278.403243 
L 99.575392 278.403243 
L 99.575392 277.876557 
L 102.330873 277.876557 
L 102.330873 277.349871 
L 102.464508 277.349871 
L 102.464508 276.823185 
L 103.623262 276.823185 
L 103.623262 276.296499 
L 103.870632 276.296499 
L 103.870632 275.769812 
L 104.114542 275.769812 
L 104.114542 275.243126 
L 108.483824 275.243126 
L 108.577836 274.189754 
L 109.040444 274.189754 
L 109.040444 273.136382 
L 109.222105 273.136382 
L 109.222105 272.609696 
L 110.61104 272.609696 
L 110.61104 272.08301 
L 111.74176 272.08301 
L 111.74176 271.556324 
L 114.882171 271.556324 
L 114.882171 271.029638 
L 118.734401 271.029638 
L 118.734401 270.502952 
L 118.942633 270.502952 
L 118.942633 269.976266 
L 119.80089 269.976266 
L 119.80089 269.449579 
L 120.286695 269.449579 
L 120.286695 268.922893 
L 121.445108 268.922893 
L 121.53454 267.869521 
L 121.623516 267.869521 
L 121.623516 267.342835 
L 122.018385 267.342835 
L 122.018385 266.816149 
L 122.362027 266.816149 
L 122.362027 266.289463 
L 122.699028 266.289463 
L 122.699028 265.762777 
L 126.50685 265.762777 
L 126.50685 265.236091 
L 128.856489 265.236091 
L 128.856489 264.709405 
L 129.175952 264.709405 
L 129.175952 264.182719 
L 130.952826 264.182719 
L 130.952826 263.129347 
L 133.19358 263.129347 
L 133.19358 262.60266 
L 133.644815 262.60266 
L 133.644815 261.549288 
L 133.800029 261.549288 
L 133.800029 261.022602 
L 133.975741 261.022602 
L 133.975741 260.495916 
L 134.932432 260.495916 
L 134.932432 259.96923 
L 137.875944 259.96923 
L 137.963097 258.915858 
L 140.64889 258.915858 
L 140.64889 258.389172 
L 141.591783 258.389172 
L 141.591783 257.862486 
L 142.962669 257.862486 
L 142.962669 257.3358 
L 143.989178 257.3358 
L 144.087359 256.282427 
L 144.221461 256.282427 
L 144.221461 255.755741 
L 144.865226 255.755741 
L 144.865226 255.229055 
L 145.270136 255.229055 
L 145.270136 254.702369 
L 145.531191 254.702369 
L 145.531191 254.175683 
L 147.459617 254.175683 
L 147.550159 253.122311 
L 147.888024 253.122311 
L 147.888024 252.595625 
L 148.306159 252.595625 
L 148.306159 252.068939 
L 148.780082 252.068939 
L 148.780082 251.542253 
L 149.067574 251.542253 
L 149.067574 251.015567 
L 150.309961 251.015567 
L 150.309961 250.488881 
L 151.421542 250.488881 
L 151.421542 249.962195 
L 152.207228 249.962195 
L 152.207228 249.435508 
L 153.537988 249.435508 
L 153.623196 248.382136 
L 153.651507 248.382136 
L 153.651507 247.85545 
L 153.778339 247.85545 
L 153.778339 247.328764 
L 154.056927 247.328764 
L 154.056927 246.802078 
L 154.978716 246.802078 
L 154.978716 246.275392 
L 155.180705 246.275392 
L 155.180705 245.748706 
L 157.046598 245.748706 
L 157.046598 245.22202 
L 157.174189 245.22202 
L 157.174189 244.168648 
L 157.781772 244.168648 
L 157.781772 243.641962 
L 158.086033 243.641962 
L 158.129851 242.588589 
L 158.726721 242.588589 
L 158.83738 240.481845 
L 159.476858 240.481845 
L 159.476858 239.955159 
L 160.074152 239.955159 
L 160.162007 238.901787 
L 160.398951 238.901787 
L 160.398951 238.375101 
L 161.058716 238.375101 
L 161.058716 237.848415 
L 161.201492 237.848415 
L 161.201492 237.321729 
L 161.338558 237.321729 
L 161.338558 236.795043 
L 161.7078 236.795043 
L 161.7078 236.268356 
L 161.990653 236.268356 
L 161.990653 235.74167 
L 163.01228 235.74167 
L 163.01228 235.214984 
L 163.477355 235.214984 
L 163.477355 234.688298 
L 163.926426 234.688298 
L 163.973442 232.581554 
L 164.195057 232.581554 
L 164.195057 232.054868 
L 164.383342 232.054868 
L 164.383342 231.001496 
L 164.716466 231.001496 
L 164.82114 229.421437 
L 164.969592 229.421437 
L 165.039666 228.368065 
L 165.120455 228.368065 
L 165.120455 227.841379 
L 165.597481 227.841379 
L 165.7041 226.788007 
L 166.068747 226.788007 
L 166.068747 226.261321 
L 166.330478 226.261321 
L 166.364626 225.207949 
L 166.608536 225.207949 
L 166.621987 224.154577 
L 167.132118 224.154577 
L 167.132118 223.101204 
L 167.265454 223.101204 
L 167.265454 222.574518 
L 167.567357 222.574518 
L 167.567357 222.047832 
L 168.152844 222.047832 
L 168.254155 220.467774 
L 168.448975 220.467774 
L 168.448975 219.941088 
L 168.566635 219.941088 
L 168.566635 219.414402 
L 168.870661 219.414402 
L 168.870661 218.887716 
L 169.105458 218.887716 
L 169.105458 218.36103 
L 169.241941 218.36103 
L 169.241941 217.834344 
L 169.394577 217.834344 
L 169.394577 217.307658 
L 169.958822 217.307658 
L 169.958822 216.780971 
L 170.288808 216.780971 
L 170.288808 216.254285 
L 170.967341 216.254285 
L 170.967341 215.727599 
L 171.118647 215.727599 
L 171.118647 215.200913 
L 171.263501 215.200913 
L 171.268652 214.147541 
L 171.491268 214.147541 
L 171.600256 213.094169 
L 171.696007 213.094169 
L 171.701032 212.040797 
L 172.174369 212.040797 
L 172.174369 211.514111 
L 172.608985 211.514111 
L 172.715968 210.460738 
L 173.220541 210.460738 
L 173.307818 208.353994 
L 173.392381 208.353994 
L 173.392381 207.827308 
L 173.569316 207.827308 
L 173.639141 206.773936 
L 173.753409 206.773936 
L 173.753409 206.24725 
L 174.115865 206.24725 
L 174.15301 204.667192 
L 174.348349 204.667192 
L 174.348349 204.140506 
L 174.611823 204.140506 
L 174.686074 200.980389 
L 174.726249 200.980389 
L 174.774759 199.927017 
L 174.992439 199.927017 
L 174.992439 199.400331 
L 175.106469 199.400331 
L 175.106469 198.873645 
L 175.523022 198.873645 
L 175.523022 197.820273 
L 175.753531 197.820273 
L 175.753531 197.293586 
L 175.921971 197.293586 
L 175.921971 196.7669 
L 176.100515 196.7669 
L 176.100515 196.240214 
L 176.240496 196.240214 
L 176.317781 195.186842 
L 176.429239 195.186842 
L 176.429239 194.660156 
L 176.682166 194.660156 
L 176.763161 193.606784 
L 176.849392 193.606784 
L 176.868082 192.553412 
L 177.072356 192.553412 
L 177.135015 190.973354 
L 177.290683 190.973354 
L 177.332567 188.866609 
L 177.448587 188.866609 
L 177.448587 188.339923 
L 177.592536 188.339923 
L 177.662282 186.759865 
L 177.731751 186.759865 
L 177.799173 185.179807 
L 177.88573 185.179807 
L 177.95958 183.599748 
L 178.034867 183.599748 
L 178.034867 183.073062 
L 178.346538 183.073062 
L 178.353401 182.01969 
L 178.488398 182.01969 
L 178.597002 178.859574 
L 178.720057 178.859574 
L 178.720057 178.332888 
L 178.930433 178.332888 
L 179.029727 177.279515 
L 179.046221 177.279515 
L 179.082454 176.226143 
L 179.252722 176.226143 
L 179.264123 175.172771 
L 179.371252 175.172771 
L 179.371252 174.646085 
L 179.722084 174.646085 
L 179.722084 174.119399 
L 179.867386 174.119399 
L 179.905092 172.539341 
L 180.037985 172.539341 
L 180.134283 171.485969 
L 180.180689 171.485969 
L 180.273132 168.852538 
L 180.391053 168.852538 
L 180.479353 167.27248 
L 180.714656 167.27248 
L 180.801337 165.165736 
L 180.85195 165.165736 
L 180.936474 163.585677 
L 181.076443 163.585677 
L 181.175946 162.005619 
L 181.221119 162.005619 
L 181.264725 159.898875 
L 181.353055 159.898875 
L 181.462482 157.79213 
L 181.488299 157.79213 
L 181.568375 155.685386 
L 181.608275 155.685386 
L 181.666536 154.105328 
L 181.76697 154.105328 
L 181.835947 152.52527 
L 181.899054 152.52527 
L 181.899054 151.471897 
L 182.04681 151.471897 
L 182.04681 150.945211 
L 182.1768 150.945211 
L 182.272975 149.365153 
L 182.319498 149.365153 
L 182.404016 148.311781 
L 182.496245 148.311781 
L 182.546224 144.098292 
L 182.616223 144.098292 
L 182.691294 139.884804 
L 182.793992 139.884804 
L 182.811271 138.304745 
L 182.92119 138.304745 
L 182.968651 137.251373 
L 183.057949 137.251373 
L 183.095893 134.617943 
L 183.200141 134.617943 
L 183.288264 133.037885 
L 183.338605 133.037885 
L 183.384945 131.457826 
L 183.519404 131.457826 
L 183.586883 130.404454 
L 183.637637 130.404454 
L 183.727364 128.824396 
L 183.806597 128.824396 
L 183.855466 127.771024 
L 183.935365 127.771024 
L 183.986359 126.717652 
L 184.066899 126.717652 
L 184.126136 124.610907 
L 184.186401 124.610907 
L 184.273356 122.504163 
L 184.325809 122.504163 
L 184.390243 119.344047 
L 184.443556 119.344047 
L 184.535259 117.237302 
L 184.567722 117.237302 
L 184.670722 109.863697 
L 184.752924 109.863697 
L 184.83474 108.810325 
L 184.916175 108.810325 
L 185.01246 106.176895 
L 185.069743 106.176895 
L 185.09307 104.07015 
L 185.188386 104.07015 
L 185.212713 102.490092 
L 185.446137 102.490092 
L 185.446137 101.963406 
L 185.644887 101.963406 
L 185.739488 97.749917 
L 185.794436 97.749917 
L 185.859254 94.589801 
L 185.975987 94.589801 
L 186.067712 91.429684 
L 186.108446 91.429684 
L 186.204948 87.216196 
L 186.263901 87.216196 
L 186.371467 84.582765 
L 186.408257 84.582765 
L 186.486985 82.476021 
L 186.543922 82.476021 
L 186.654043 77.20916 
L 186.664698 77.20916 
L 186.75076 76.155788 
L 186.787817 76.155788 
L 186.883796 70.888927 
L 187.018957 70.888927 
L 187.11679 68.782183 
L 187.136499 68.782183 
L 187.201688 66.148752 
L 187.287203 66.148752 
L 187.386613 61.408578 
L 187.477329 61.408578 
L 187.522003 58.775147 
L 187.643264 58.775147 
L 187.744676 56.668403 
L 187.770687 56.668403 
L 187.861421 54.561659 
L 187.930896 54.561659 
L 188.034593 51.928228 
L 188.048373 51.928228 
L 188.132782 50.34817 
L 188.188503 50.34817 
L 188.293595 45.607995 
L 188.344937 45.607995 
L 188.453899 41.921193 
L 188.485592 41.921193 
L 188.5746 40.341135 
L 188.669803 40.341135 
L 188.76449 38.761076 
L 188.909308 38.761076 
L 188.967274 37.707704 
L 189.085412 37.707704 
L 189.119681 36.127646 
L 189.39234 36.127646 
L 189.39234 35.60096 
L 189.513976 35.60096 
L 189.513976 35.074274 
L 189.626683 35.074274 
L 189.626683 34.547588 
L 189.98957 34.547588 
L 189.98957 34.020902 
L 190.471384 34.020902 
L 190.471384 33.494215 
L 190.968562 33.494215 
L 190.968562 32.967529 
L 193.423702 32.967529 
L 193.423702 32.440843 
L 193.575571 32.440843 
L 193.575571 31.914157 
L 195.597823 31.914157 
L 195.597823 31.387471 
L 195.940326 31.387471 
L 196.048869 30.334099 
L 338.688 30.334099 
L 338.688 30.334099 
" style="fill:none;stroke:#ff00ff;stroke-linecap:square;stroke-width:1.5;"/>
   </g>
   <g id="line2d_40">
    <defs>
     <path d="M 0 8.485281 
L 5.091169 0 
L 0 -8.485281 
L -5.091169 0 
z
" id="m0a87f2a771" style="stroke:#ff00ff;stroke-linejoin:miter;stroke-width:1.5;"/>
    </defs>
    <g>
     <use style="fill-opacity:0;stroke:#ff00ff;stroke-linejoin:miter;stroke-width:1.5;" x="130.952826" xlink:href="#m0a87f2a771" y="263.129347"/>
     <use style="fill-opacity:0;stroke:#ff00ff;stroke-linejoin:miter;stroke-width:1.5;" x="182.811271" xlink:href="#m0a87f2a771" y="138.831432"/>
     <use style="fill-opacity:0;stroke:#ff00ff;stroke-linejoin:miter;stroke-width:1.5;" x="196.048869" xlink:href="#m0a87f2a771" y="30.860785"/>
     <use style="fill-opacity:0;stroke:#ff00ff;stroke-linejoin:miter;stroke-width:1.5;" x="196.048869" xlink:href="#m0a87f2a771" y="30.334099"/>
     <use style="fill-opacity:0;stroke:#ff00ff;stroke-linejoin:miter;stroke-width:1.5;" x="196.048869" xlink:href="#m0a87f2a771" y="30.334099"/>
     <use style="fill-opacity:0;stroke:#ff00ff;stroke-linejoin:miter;stroke-width:1.5;" x="338.688" xlink:href="#m0a87f2a771" y="30.334099"/>
    </g>
   </g>
   <g id="line2d_41">
    <path style="fill:none;stroke:#ff00ff;stroke-linecap:square;stroke-width:1.5;"/>
    <g/>
   </g>
   <g id="line2d_42">
    <defs>
     <path d="M 0 1.5 
C 0.397805 1.5 0.77937 1.341951 1.06066 1.06066 
C 1.341951 0.77937 1.5 0.397805 1.5 0 
C 1.5 -0.397805 1.341951 -0.77937 1.06066 -1.06066 
C 0.77937 -1.341951 0.397805 -1.5 0 -1.5 
C -0.397805 -1.5 -0.77937 -1.341951 -1.06066 -1.06066 
C -1.341951 -0.77937 -1.5 -0.397805 -1.5 0 
C -1.5 0.397805 -1.341951 0.77937 -1.06066 1.06066 
C -0.77937 1.341951 -0.397805 1.5 0 1.5 
z
" id="m518ac96981" style="stroke:#ff7500;"/>
    </defs>
    <g>
     <use style="fill:#ff7500;stroke:#ff7500;" x="289.874838" xlink:href="#m518ac96981" y="172.539341"/>
     <use style="fill:#ff7500;stroke:#ff7500;" x="289.874838" xlink:href="#m518ac96981" y="172.539341"/>
    </g>
   </g>
   <g id="line2d_43">
    <path d="M 17.444571 298.944 
L 17.444571 297.363942 
L 29.53256 297.363942 
L 29.53256 295.783884 
L 36.60358 295.783884 
L 36.60358 294.730511 
L 41.620548 294.730511 
L 41.620548 293.150453 
L 45.512012 293.150453 
L 45.512012 292.623767 
L 53.708537 292.623767 
L 53.708537 291.043709 
L 62.175444 291.043709 
L 62.175444 290.517023 
L 63.467834 290.517023 
L 63.467834 289.463651 
L 68.79347 289.463651 
L 68.79347 288.936964 
L 72.125336 288.936964 
L 72.125336 288.410278 
L 76.16779 288.410278 
L 76.16779 287.883592 
L 76.759008 287.883592 
L 76.759008 287.356906 
L 82.626842 287.356906 
L 82.626842 286.83022 
L 83.438118 286.83022 
L 83.438118 286.303534 
L 84.213325 286.303534 
L 84.213325 285.776848 
L 85.315119 285.776848 
L 85.315119 285.250162 
L 87.329581 285.250162 
L 87.329581 284.723476 
L 88.255778 284.723476 
L 88.255778 284.19679 
L 88.553893 284.19679 
L 88.553893 283.670104 
L 88.846997 283.670104 
L 88.846997 283.143418 
L 90.242884 283.143418 
L 90.242884 282.616732 
L 90.509138 282.616732 
L 90.509138 282.090045 
L 91.782644 282.090045 
L 91.782644 281.036673 
L 96.301313 281.036673 
L 96.301313 280.509987 
L 98.43941 280.509987 
L 98.43941 279.983301 
L 98.935347 279.983301 
L 98.935347 279.456615 
L 99.097574 279.456615 
L 99.097574 278.929929 
L 101.079711 278.929929 
L 101.079711 278.403243 
L 101.365607 278.403243 
L 101.365607 277.876557 
L 101.923711 277.876557 
L 101.923711 276.823185 
L 102.196206 276.823185 
L 102.196206 276.296499 
L 103.623262 276.296499 
L 103.623262 275.243126 
L 106.168594 275.243126 
L 106.168594 274.189754 
L 108.006005 274.189754 
L 108.006005 273.663068 
L 111.023335 273.663068 
L 111.023335 273.136382 
L 114.216469 273.136382 
L 114.216469 272.609696 
L 114.351658 272.609696 
L 114.351658 272.08301 
L 115.269727 272.08301 
L 115.269727 271.029638 
L 117.145424 271.029638 
L 117.145424 269.976266 
L 123.394238 269.976266 
L 123.394238 268.922893 
L 124.330801 268.922893 
L 124.330801 268.396207 
L 126.573795 268.396207 
L 126.573795 267.869521 
L 130.263646 267.869521 
L 130.263646 267.342835 
L 134.47127 267.342835 
L 134.47127 266.816149 
L 140.752916 266.816149 
L 140.752916 266.289463 
L 148.752007 266.289463 
L 148.752007 265.762777 
L 151.84236 265.762777 
L 151.84236 265.236091 
L 154.794242 265.236091 
L 154.794242 264.709405 
L 158.983842 264.709405 
L 158.983842 264.182719 
L 161.53766 264.182719 
L 161.53766 263.656033 
L 162.517456 263.656033 
L 162.517456 263.129347 
L 163.517565 263.129347 
L 163.517565 262.60266 
L 166.537748 262.60266 
L 166.537748 262.075974 
L 168.42171 262.075974 
L 168.42171 261.549288 
L 169.087957 261.549288 
L 169.087957 261.022602 
L 170.039142 261.022602 
L 170.108089 259.96923 
L 170.553741 259.96923 
L 170.553741 259.442544 
L 170.822637 259.442544 
L 170.84376 258.389172 
L 171.516675 258.389172 
L 171.516675 257.862486 
L 173.00275 257.862486 
L 173.00275 257.3358 
L 173.284893 257.3358 
L 173.284893 256.809114 
L 174.575644 256.809114 
L 174.575644 256.282427 
L 176.29077 256.282427 
L 176.29077 255.755741 
L 176.838169 255.755741 
L 176.838169 255.229055 
L 177.963089 255.229055 
L 177.963089 254.702369 
L 178.503711 254.702369 
L 178.503711 253.648997 
L 178.74859 253.648997 
L 178.74859 253.122311 
L 179.498623 253.122311 
L 179.498623 252.595625 
L 179.988073 252.595625 
L 180.048884 251.542253 
L 180.340613 251.542253 
L 180.340613 251.015567 
L 180.74609 251.015567 
L 180.74609 250.488881 
L 181.216753 250.488881 
L 181.216753 249.962195 
L 181.559813 249.962195 
L 181.559813 249.435508 
L 181.728845 249.435508 
L 181.728845 248.908822 
L 183.204038 248.908822 
L 183.204038 248.382136 
L 183.574171 248.382136 
L 183.657898 246.802078 
L 183.713493 246.802078 
L 183.713493 246.275392 
L 184.576129 246.275392 
L 184.576129 245.748706 
L 185.157059 245.748706 
L 185.157059 245.22202 
L 185.344183 245.22202 
L 185.344183 244.695334 
L 186.295479 244.695334 
L 186.295479 244.168648 
L 186.543922 244.168648 
L 186.543922 243.641962 
L 186.768769 243.641962 
L 186.768769 243.115275 
L 187.243983 243.115275 
L 187.243983 242.588589 
L 187.830565 242.588589 
L 187.830565 242.061903 
L 188.084739 242.061903 
L 188.084739 241.535217 
L 188.567916 241.535217 
L 188.643199 240.481845 
L 188.922414 240.481845 
L 188.975673 239.428473 
L 189.920776 239.428473 
L 189.947267 238.375101 
L 190.221287 238.375101 
L 190.221287 237.848415 
L 191.517399 237.848415 
L 191.542379 236.795043 
L 192.045577 236.795043 
L 192.139985 235.214984 
L 192.696699 235.214984 
L 192.795152 234.161612 
L 193.632808 234.161612 
L 193.632808 233.634926 
L 193.781458 233.634926 
L 193.845082 232.054868 
L 194.026893 232.054868 
L 194.026893 231.528182 
L 194.302635 231.528182 
L 194.302635 231.001496 
L 194.72301 231.001496 
L 194.757197 229.421437 
L 194.95894 229.421437 
L 194.984078 228.368065 
L 195.818504 228.368065 
L 195.818504 227.841379 
L 196.16848 227.841379 
L 196.16848 227.314693 
L 196.410143 227.314693 
L 196.410143 226.788007 
L 196.551495 226.788007 
L 196.551495 226.261321 
L 196.719259 226.261321 
L 196.719259 225.734635 
L 196.882462 225.734635 
L 196.882462 225.207949 
L 197.01711 225.207949 
L 197.01711 224.681263 
L 197.161816 224.681263 
L 197.265358 223.101204 
L 197.564938 223.101204 
L 197.564938 222.574518 
L 197.775735 222.574518 
L 197.781366 221.521146 
L 198.283638 221.521146 
L 198.283638 220.99446 
L 198.781953 220.99446 
L 198.843518 219.941088 
L 198.968103 219.941088 
L 198.968103 219.414402 
L 199.116336 219.414402 
L 199.165295 218.36103 
L 199.286062 218.36103 
L 199.286062 217.834344 
L 199.409075 217.834344 
L 199.409075 217.307658 
L 199.552096 217.307658 
L 199.552096 216.780971 
L 199.711605 216.780971 
L 199.714126 215.727599 
L 199.829661 215.727599 
L 199.936476 214.674227 
L 200.026312 214.674227 
L 200.121597 213.094169 
L 200.329603 213.094169 
L 200.329603 212.567483 
L 200.462885 212.567483 
L 200.556301 210.987425 
L 200.590844 210.987425 
L 200.597552 209.407366 
L 201.069724 209.407366 
L 201.142781 207.827308 
L 201.289363 207.827308 
L 201.289363 206.773936 
L 201.455261 206.773936 
L 201.455261 206.24725 
L 201.853869 206.24725 
L 201.853869 205.720564 
L 202.237902 205.720564 
L 202.237902 205.193878 
L 202.485579 205.193878 
L 202.485579 204.140506 
L 202.775516 204.140506 
L 202.775516 203.613819 
L 203.119682 203.613819 
L 203.119682 203.087133 
L 203.332309 203.087133 
L 203.429921 201.507075 
L 203.570273 201.507075 
L 203.633588 200.453703 
L 203.910744 200.453703 
L 203.910744 199.927017 
L 204.10146 199.927017 
L 204.10146 199.400331 
L 204.355893 199.400331 
L 204.355893 198.873645 
L 204.502808 198.873645 
L 204.502808 198.346959 
L 204.945979 198.346959 
L 205.027556 197.293586 
L 205.087285 197.293586 
L 205.087285 196.7669 
L 205.346815 196.7669 
L 205.357029 195.713528 
L 205.562581 195.713528 
L 205.645635 194.13347 
L 205.834709 194.13347 
L 205.888558 192.553412 
L 215.305652 192.553412 
L 215.305652 192.026726 
L 215.76821 192.026726 
L 215.76821 190.973354 
L 217.355443 190.973354 
L 217.355443 190.446667 
L 217.701311 190.446667 
L 217.701311 189.919981 
L 217.832697 189.919981 
L 217.837689 188.866609 
L 223.362324 188.866609 
L 223.362324 188.339923 
L 223.695996 188.339923 
L 223.695996 187.813237 
L 225.13155 187.813237 
L 225.13155 186.759865 
L 228.882295 186.759865 
L 228.912551 185.706493 
L 233.260768 185.706493 
L 233.260768 185.179807 
L 234.021878 185.179807 
L 234.021878 184.126434 
L 237.252012 184.126434 
L 237.252012 183.599748 
L 239.402501 183.599748 
L 239.402501 183.073062 
L 239.941126 183.073062 
L 239.958735 182.01969 
L 242.285853 182.01969 
L 242.285853 181.493004 
L 247.456094 181.493004 
L 247.530117 180.439632 
L 249.00577 180.439632 
L 249.00577 179.912946 
L 249.428555 179.912946 
L 249.428555 178.859574 
L 251.769092 178.859574 
L 251.826923 177.806202 
L 252.998408 177.806202 
L 252.998408 177.279515 
L 259.793441 177.279515 
L 259.793441 176.752829 
L 260.57449 176.752829 
L 260.57449 176.226143 
L 264.080725 176.226143 
L 264.080725 175.699457 
L 265.264458 175.699457 
L 265.268218 174.646085 
L 265.845882 174.646085 
L 265.845882 174.119399 
L 269.428706 174.119399 
L 269.428706 173.592713 
L 269.905839 173.592713 
L 269.905839 173.066027 
L 289.874838 173.066027 
L 289.874838 172.539341 
L 338.688 172.539341 
L 338.688 172.539341 
" style="fill:none;stroke:#ff7500;stroke-linecap:square;stroke-width:1.5;"/>
   </g>
   <g id="line2d_44">
    <defs>
     <path d="M 0 -6 
L -1.347084 -1.854102 
L -5.706339 -1.854102 
L -2.179628 0.708204 
L -3.526712 4.854102 
L -0 2.291796 
L 3.526712 4.854102 
L 2.179628 0.708204 
L 5.706339 -1.854102 
L 1.347084 -1.854102 
z
" id="m0acdfbed96" style="stroke:#ff7500;stroke-linejoin:bevel;stroke-width:1.5;"/>
    </defs>
    <g>
     <use style="fill-opacity:0;stroke:#ff7500;stroke-linejoin:bevel;stroke-width:1.5;" x="114.351658" xlink:href="#m0acdfbed96" y="272.609696"/>
     <use style="fill-opacity:0;stroke:#ff7500;stroke-linejoin:bevel;stroke-width:1.5;" x="193.781458" xlink:href="#m0acdfbed96" y="232.581554"/>
     <use style="fill-opacity:0;stroke:#ff7500;stroke-linejoin:bevel;stroke-width:1.5;" x="247.530117" xlink:href="#m0acdfbed96" y="180.439632"/>
     <use style="fill-opacity:0;stroke:#ff7500;stroke-linejoin:bevel;stroke-width:1.5;" x="289.874838" xlink:href="#m0acdfbed96" y="172.539341"/>
     <use style="fill-opacity:0;stroke:#ff7500;stroke-linejoin:bevel;stroke-width:1.5;" x="289.874838" xlink:href="#m0acdfbed96" y="172.539341"/>
     <use style="fill-opacity:0;stroke:#ff7500;stroke-linejoin:bevel;stroke-width:1.5;" x="338.688" xlink:href="#m0acdfbed96" y="172.539341"/>
    </g>
   </g>
   <g id="line2d_45">
    <path style="fill:none;stroke:#ff7500;stroke-linecap:square;stroke-width:1.5;"/>
    <g/>
   </g>
   <g id="line2d_46">
    <path clip-path="url(#pce92769048)" d="M 206.133726 192.553412 
" style="fill:none;stroke:#ff7500;stroke-linecap:square;stroke-width:1.5;"/>
    <defs>
     <path d="M -12 12 
L 12 -12 
M -12 -12 
L 12 12 
" id="mee430b0276" style="stroke:#ff7500;"/>
    </defs>
    <g clip-path="url(#pce92769048)">
     <use style="fill:#ff7500;stroke:#ff7500;" x="206.133726" xlink:href="#mee430b0276" y="192.553412"/>
    </g>
   </g>
   <g id="line2d_47">
    <path d="M 338.688 172.539341 
L 369.60768 293.571802 
" style="fill:none;stroke:#ff7500;stroke-linecap:square;stroke-width:1.5;"/>
    <g>
     <use style="fill-opacity:0;stroke:#ff7500;stroke-linejoin:bevel;stroke-width:1.5;" x="338.688" xlink:href="#m0acdfbed96" y="172.539341"/>
     <use style="fill-opacity:0;stroke:#ff7500;stroke-linejoin:bevel;stroke-width:1.5;" x="369.60768" xlink:href="#m0acdfbed96" y="293.571802"/>
    </g>
   </g>
   <g id="line2d_48">
    <path d="M 338.688 30.334099 
L 369.60768 207.616634 
" style="fill:none;stroke:#ff00ff;stroke-linecap:square;stroke-width:1.5;"/>
    <g>
     <use style="fill-opacity:0;stroke:#ff00ff;stroke-linejoin:miter;stroke-width:1.5;" x="338.688" xlink:href="#m0a87f2a771" y="30.334099"/>
     <use style="fill-opacity:0;stroke:#ff00ff;stroke-linejoin:miter;stroke-width:1.5;" x="369.60768" xlink:href="#m0a87f2a771" y="207.616634"/>
    </g>
   </g>
   <g id="line2d_49">
    <path d="M 338.688 30.334099 
L 369.60768 121.661465 
" style="fill:none;stroke:#000080;stroke-linecap:square;stroke-width:1.5;"/>
    <g>
     <use style="fill-opacity:0;stroke:#000080;stroke-width:1.5;" x="338.688" xlink:href="#m001682bdf7" y="30.334099"/>
     <use style="fill-opacity:0;stroke:#000080;stroke-width:1.5;" x="369.60768" xlink:href="#m001682bdf7" y="121.661465"/>
    </g>
   </g>
   <g id="line2d_50">
    <path d="M 338.688 298.944 
L 338.688 30.334099 
" style="fill:none;stroke:#000000;stroke-linecap:square;stroke-width:1.5;"/>
   </g>
   <g id="patch_3">
    <path d="M 57.6 298.944 
L 57.6 27.648 
" style="fill:none;stroke:#000000;stroke-linecap:square;stroke-linejoin:miter;stroke-width:0.8;"/>
   </g>
   <g id="patch_4">
    <path d="M 338.688 298.944 
L 338.688 27.648 
" style="fill:none;stroke:#000000;stroke-linecap:square;stroke-linejoin:miter;stroke-width:0.8;"/>
   </g>
   <g id="patch_5">
    <path d="M 57.6 298.944 
L 338.688 298.944 
" style="fill:none;stroke:#000000;stroke-linecap:square;stroke-linejoin:miter;stroke-width:0.8;"/>
   </g>
   <g id="patch_6">
    <path d="M 57.6 27.648 
L 338.688 27.648 
" style="fill:none;stroke:#000000;stroke-linecap:square;stroke-linejoin:miter;stroke-width:0.8;"/>
   </g>
   <g id="text_13">
    <!-- PSO EDA -->
    <g transform="translate(375.22944 298.262739)scale(0.17 -0.17)">
     <defs>
      <path d="M 1259 4147 
L 1259 2394 
L 2053 2394 
Q 2494 2394 2734 2622 
Q 2975 2850 2975 3272 
Q 2975 3691 2734 3919 
Q 2494 4147 2053 4147 
L 1259 4147 
z
M 628 4666 
L 2053 4666 
Q 2838 4666 3239 4311 
Q 3641 3956 3641 3272 
Q 3641 2581 3239 2228 
Q 2838 1875 2053 1875 
L 1259 1875 
L 1259 0 
L 628 0 
L 628 4666 
z
" id="DejaVuSans-50" transform="scale(0.015625)"/>
      <path d="M 3425 4513 
L 3425 3897 
Q 3066 4069 2747 4153 
Q 2428 4238 2131 4238 
Q 1616 4238 1336 4038 
Q 1056 3838 1056 3469 
Q 1056 3159 1242 3001 
Q 1428 2844 1947 2747 
L 2328 2669 
Q 3034 2534 3370 2195 
Q 3706 1856 3706 1288 
Q 3706 609 3251 259 
Q 2797 -91 1919 -91 
Q 1588 -91 1214 -16 
Q 841 59 441 206 
L 441 856 
Q 825 641 1194 531 
Q 1563 422 1919 422 
Q 2459 422 2753 634 
Q 3047 847 3047 1241 
Q 3047 1584 2836 1778 
Q 2625 1972 2144 2069 
L 1759 2144 
Q 1053 2284 737 2584 
Q 422 2884 422 3419 
Q 422 4038 858 4394 
Q 1294 4750 2059 4750 
Q 2388 4750 2728 4690 
Q 3069 4631 3425 4513 
z
" id="DejaVuSans-53" transform="scale(0.015625)"/>
      <path d="M 2522 4238 
Q 1834 4238 1429 3725 
Q 1025 3213 1025 2328 
Q 1025 1447 1429 934 
Q 1834 422 2522 422 
Q 3209 422 3611 934 
Q 4013 1447 4013 2328 
Q 4013 3213 3611 3725 
Q 3209 4238 2522 4238 
z
M 2522 4750 
Q 3503 4750 4090 4092 
Q 4678 3434 4678 2328 
Q 4678 1225 4090 567 
Q 3503 -91 2522 -91 
Q 1538 -91 948 565 
Q 359 1222 359 2328 
Q 359 3434 948 4092 
Q 1538 4750 2522 4750 
z
" id="DejaVuSans-4f" transform="scale(0.015625)"/>
      <path d="M 628 4666 
L 3578 4666 
L 3578 4134 
L 1259 4134 
L 1259 2753 
L 3481 2753 
L 3481 2222 
L 1259 2222 
L 1259 531 
L 3634 531 
L 3634 0 
L 628 0 
L 628 4666 
z
" id="DejaVuSans-45" transform="scale(0.015625)"/>
      <path d="M 1259 4147 
L 1259 519 
L 2022 519 
Q 2988 519 3436 956 
Q 3884 1394 3884 2338 
Q 3884 3275 3436 3711 
Q 2988 4147 2022 4147 
L 1259 4147 
z
M 628 4666 
L 1925 4666 
Q 3281 4666 3915 4102 
Q 4550 3538 4550 2338 
Q 4550 1131 3912 565 
Q 3275 0 1925 0 
L 628 0 
L 628 4666 
z
" id="DejaVuSans-44" transform="scale(0.015625)"/>
      <path d="M 2188 4044 
L 1331 1722 
L 3047 1722 
L 2188 4044 
z
M 1831 4666 
L 2547 4666 
L 4325 0 
L 3669 0 
L 3244 1197 
L 1141 1197 
L 716 0 
L 50 0 
L 1831 4666 
z
" id="DejaVuSans-41" transform="scale(0.015625)"/>
     </defs>
     <use xlink:href="#DejaVuSans-50"/>
     <use x="60.302734" xlink:href="#DejaVuSans-53"/>
     <use x="123.779297" xlink:href="#DejaVuSans-4f"/>
     <use x="202.490234" xlink:href="#DejaVuSans-20"/>
     <use x="234.277344" xlink:href="#DejaVuSans-45"/>
     <use x="297.460938" xlink:href="#DejaVuSans-44"/>
     <use x="372.712891" xlink:href="#DejaVuSans-41"/>
    </g>
   </g>
   <g id="text_14">
    <!-- PSO Bound -->
    <g transform="translate(375.22944 212.307571)scale(0.17 -0.17)">
     <defs>
      <path d="M 1259 2228 
L 1259 519 
L 2272 519 
Q 2781 519 3026 730 
Q 3272 941 3272 1375 
Q 3272 1813 3026 2020 
Q 2781 2228 2272 2228 
L 1259 2228 
z
M 1259 4147 
L 1259 2741 
L 2194 2741 
Q 2656 2741 2882 2914 
Q 3109 3088 3109 3444 
Q 3109 3797 2882 3972 
Q 2656 4147 2194 4147 
L 1259 4147 
z
M 628 4666 
L 2241 4666 
Q 2963 4666 3353 4366 
Q 3744 4066 3744 3513 
Q 3744 3084 3544 2831 
Q 3344 2578 2956 2516 
Q 3422 2416 3680 2098 
Q 3938 1781 3938 1306 
Q 3938 681 3513 340 
Q 3088 0 2303 0 
L 628 0 
L 628 4666 
z
" id="DejaVuSans-42" transform="scale(0.015625)"/>
     </defs>
     <use xlink:href="#DejaVuSans-50"/>
     <use x="60.302734" xlink:href="#DejaVuSans-53"/>
     <use x="123.779297" xlink:href="#DejaVuSans-4f"/>
     <use x="202.490234" xlink:href="#DejaVuSans-20"/>
     <use x="234.277344" xlink:href="#DejaVuSans-42"/>
     <use x="302.880859" xlink:href="#DejaVuSans-6f"/>
     <use x="364.0625" xlink:href="#DejaVuSans-75"/>
     <use x="427.441406" xlink:href="#DejaVuSans-6e"/>
     <use x="490.820312" xlink:href="#DejaVuSans-64"/>
    </g>
   </g>
   <g id="text_15">
    <!-- PSO -->
    <g transform="translate(375.22944 126.352403)scale(0.17 -0.17)">
     <use xlink:href="#DejaVuSans-50"/>
     <use x="60.302734" xlink:href="#DejaVuSans-53"/>
     <use x="123.779297" xlink:href="#DejaVuSans-4f"/>
    </g>
   </g>
   <g id="text_16">
    <!-- best 2009 -->
    <g transform="translate(375.22944 40.397235)scale(0.17 -0.17)">
     <defs>
      <path d="M 3116 1747 
Q 3116 2381 2855 2742 
Q 2594 3103 2138 3103 
Q 1681 3103 1420 2742 
Q 1159 2381 1159 1747 
Q 1159 1113 1420 752 
Q 1681 391 2138 391 
Q 2594 391 2855 752 
Q 3116 1113 3116 1747 
z
M 1159 2969 
Q 1341 3281 1617 3432 
Q 1894 3584 2278 3584 
Q 2916 3584 3314 3078 
Q 3713 2572 3713 1747 
Q 3713 922 3314 415 
Q 2916 -91 2278 -91 
Q 1894 -91 1617 61 
Q 1341 213 1159 525 
L 1159 0 
L 581 0 
L 581 4863 
L 1159 4863 
L 1159 2969 
z
" id="DejaVuSans-62" transform="scale(0.015625)"/>
      <path d="M 703 97 
L 703 672 
Q 941 559 1184 500 
Q 1428 441 1663 441 
Q 2288 441 2617 861 
Q 2947 1281 2994 2138 
Q 2813 1869 2534 1725 
Q 2256 1581 1919 1581 
Q 1219 1581 811 2004 
Q 403 2428 403 3163 
Q 403 3881 828 4315 
Q 1253 4750 1959 4750 
Q 2769 4750 3195 4129 
Q 3622 3509 3622 2328 
Q 3622 1225 3098 567 
Q 2575 -91 1691 -91 
Q 1453 -91 1209 -44 
Q 966 3 703 97 
z
M 1959 2075 
Q 2384 2075 2632 2365 
Q 2881 2656 2881 3163 
Q 2881 3666 2632 3958 
Q 2384 4250 1959 4250 
Q 1534 4250 1286 3958 
Q 1038 3666 1038 3163 
Q 1038 2656 1286 2365 
Q 1534 2075 1959 2075 
z
" id="DejaVuSans-39" transform="scale(0.015625)"/>
     </defs>
     <use xlink:href="#DejaVuSans-62"/>
     <use x="63.476562" xlink:href="#DejaVuSans-65"/>
     <use x="125" xlink:href="#DejaVuSans-73"/>
     <use x="177.099609" xlink:href="#DejaVuSans-74"/>
     <use x="216.308594" xlink:href="#DejaVuSans-20"/>
     <use x="248.095703" xlink:href="#DejaVuSans-32"/>
     <use x="311.71875" xlink:href="#DejaVuSans-30"/>
     <use x="375.341797" xlink:href="#DejaVuSans-30"/>
     <use x="438.964844" xlink:href="#DejaVuSans-39"/>
    </g>
   </g>
   <g id="text_17">
    <!-- bbob f1, 10-D -->
    <g transform="translate(60.41088 38.111366)scale(0.102 -0.102)">
     <use xlink:href="#DejaVuSans-62"/>
     <use x="63.476562" xlink:href="#DejaVuSans-62"/>
     <use x="126.953125" xlink:href="#DejaVuSans-6f"/>
     <use x="188.134766" xlink:href="#DejaVuSans-62"/>
     <use x="251.611328" xlink:href="#DejaVuSans-20"/>
     <use x="283.398438" xlink:href="#DejaVuSans-66"/>
     <use x="318.603516" xlink:href="#DejaVuSans-31"/>
     <use x="382.226562" xlink:href="#DejaVuSans-2c"/>
     <use x="414.013672" xlink:href="#DejaVuSans-20"/>
     <use x="445.800781" xlink:href="#DejaVuSans-31"/>
     <use x="509.423828" xlink:href="#DejaVuSans-30"/>
     <use x="573.046875" xlink:href="#DejaVuSans-2d"/>
     <use x="609.130859" xlink:href="#DejaVuSans-44"/>
    </g>
    <!-- 51 targets: 100..1e-08 -->
    <g transform="translate(60.41088 49.533135)scale(0.102 -0.102)">
     <defs>
      <path d="M 691 4666 
L 3169 4666 
L 3169 4134 
L 1269 4134 
L 1269 2991 
Q 1406 3038 1543 3061 
Q 1681 3084 1819 3084 
Q 2600 3084 3056 2656 
Q 3513 2228 3513 1497 
Q 3513 744 3044 326 
Q 2575 -91 1722 -91 
Q 1428 -91 1123 -41 
Q 819 9 494 109 
L 494 744 
Q 775 591 1075 516 
Q 1375 441 1709 441 
Q 2250 441 2565 725 
Q 2881 1009 2881 1497 
Q 2881 1984 2565 2268 
Q 2250 2553 1709 2553 
Q 1456 2553 1204 2497 
Q 953 2441 691 2322 
L 691 4666 
z
" id="DejaVuSans-35" transform="scale(0.015625)"/>
      <path d="M 750 794 
L 1409 794 
L 1409 0 
L 750 0 
L 750 794 
z
M 750 3309 
L 1409 3309 
L 1409 2516 
L 750 2516 
L 750 3309 
z
" id="DejaVuSans-3a" transform="scale(0.015625)"/>
     </defs>
     <use xlink:href="#DejaVuSans-35"/>
     <use x="63.623047" xlink:href="#DejaVuSans-31"/>
     <use x="127.246094" xlink:href="#DejaVuSans-20"/>
     <use x="159.033203" xlink:href="#DejaVuSans-74"/>
     <use x="198.242188" xlink:href="#DejaVuSans-61"/>
     <use x="259.521484" xlink:href="#DejaVuSans-72"/>
     <use x="298.884766" xlink:href="#DejaVuSans-67"/>
     <use x="362.361328" xlink:href="#DejaVuSans-65"/>
     <use x="423.884766" xlink:href="#DejaVuSans-74"/>
     <use x="463.09375" xlink:href="#DejaVuSans-73"/>
     <use x="515.193359" xlink:href="#DejaVuSans-3a"/>
     <use x="548.884766" xlink:href="#DejaVuSans-20"/>
     <use x="580.671875" xlink:href="#DejaVuSans-31"/>
     <use x="644.294922" xlink:href="#DejaVuSans-30"/>
     <use x="707.917969" xlink:href="#DejaVuSans-30"/>
     <use x="771.541016" xlink:href="#DejaVuSans-2e"/>
     <use x="803.328125" xlink:href="#DejaVuSans-2e"/>
     <use x="835.115234" xlink:href="#DejaVuSans-31"/>
     <use x="898.738281" xlink:href="#DejaVuSans-65"/>
     <use x="960.261719" xlink:href="#DejaVuSans-2d"/>
     <use x="996.345703" xlink:href="#DejaVuSans-30"/>
     <use x="1059.96875" xlink:href="#DejaVuSans-38"/>
    </g>
    <!-- 15 instances -->
    <g transform="translate(60.41088 60.954904)scale(0.102 -0.102)">
     <use xlink:href="#DejaVuSans-31"/>
     <use x="63.623047" xlink:href="#DejaVuSans-35"/>
     <use x="127.246094" xlink:href="#DejaVuSans-20"/>
     <use x="159.033203" xlink:href="#DejaVuSans-69"/>
     <use x="186.816406" xlink:href="#DejaVuSans-6e"/>
     <use x="250.195312" xlink:href="#DejaVuSans-73"/>
     <use x="302.294922" xlink:href="#DejaVuSans-74"/>
     <use x="341.503906" xlink:href="#DejaVuSans-61"/>
     <use x="402.783203" xlink:href="#DejaVuSans-6e"/>
     <use x="466.162109" xlink:href="#DejaVuSans-63"/>
     <use x="521.142578" xlink:href="#DejaVuSans-65"/>
     <use x="582.666016" xlink:href="#DejaVuSans-73"/>
    </g>
   </g>
   <g id="text_18">
    <!-- v2.4 -->
    <g style="fill:#808080;" transform="translate(187.233062 294.151352)scale(0.1 -0.1)">
     <use xlink:href="#DejaVuSans-76"/>
     <use x="59.179688" xlink:href="#DejaVuSans-32"/>
     <use x="122.802734" xlink:href="#DejaVuSans-2e"/>
     <use x="154.589844" xlink:href="#DejaVuSans-34"/>
    </g>
   </g>
   <g id="text_19">
    <!-- 1 Sphere -->
    <g transform="translate(153.376812 21.648)scale(0.2 -0.2)">
     <defs>
      <path d="M 3513 2113 
L 3513 0 
L 2938 0 
L 2938 2094 
Q 2938 2591 2744 2837 
Q 2550 3084 2163 3084 
Q 1697 3084 1428 2787 
Q 1159 2491 1159 1978 
L 1159 0 
L 581 0 
L 581 4863 
L 1159 4863 
L 1159 2956 
Q 1366 3272 1645 3428 
Q 1925 3584 2291 3584 
Q 2894 3584 3203 3211 
Q 3513 2838 3513 2113 
z
" id="DejaVuSans-68" transform="scale(0.015625)"/>
     </defs>
     <use xlink:href="#DejaVuSans-31"/>
     <use x="63.623047" xlink:href="#DejaVuSans-20"/>
     <use x="95.410156" xlink:href="#DejaVuSans-53"/>
     <use x="158.886719" xlink:href="#DejaVuSans-70"/>
     <use x="222.363281" xlink:href="#DejaVuSans-68"/>
     <use x="285.742188" xlink:href="#DejaVuSans-65"/>
     <use x="347.265625" xlink:href="#DejaVuSans-72"/>
     <use x="386.128906" xlink:href="#DejaVuSans-65"/>
    </g>
   </g>
  </g>
 </g>
 <defs>
  <clipPath id="pce92769048">
   <rect height="271.296" width="281.088" x="57.6" y="27.648"/>
  </clipPath>
 </defs>
</svg>
