<?xml version="1.0" encoding="utf-8" standalone="no"?>
<!DOCTYPE svg PUBLIC "-//W3C//DTD SVG 1.1//EN"
  "http://www.w3.org/Graphics/SVG/1.1/DTD/svg11.dtd">
<svg height="345.6pt" version="1.1" viewBox="0 0 460.8 345.6" width="460.8pt" xmlns="http://www.w3.org/2000/svg" xmlns:xlink="http://www.w3.org/1999/xlink">
 <metadata>
  <rdf:RDF xmlns:cc="http://creativecommons.org/ns#" xmlns:dc="http://purl.org/dc/elements/1.1/" xmlns:rdf="http://www.w3.org/1999/02/22-rdf-syntax-ns#">
   <cc:Work>
    <dc:type rdf:resource="http://purl.org/dc/dcmitype/StillImage"/>
    <dc:date>2021-04-26T18:32:00.984144</dc:date>
    <dc:format>image/svg+xml</dc:format>
    <dc:creator>
     <cc:Agent>
      <dc:title>Matplotlib v3.4.1, https://matplotlib.org/</dc:title>
     </cc:Agent>
    </dc:creator>
   </cc:Work>
  </rdf:RDF>
 </metadata>
 <defs>
  <style type="text/css">*{stroke-linecap:butt;stroke-linejoin:round;}</style>
 </defs>
 <g id="figure_1">
  <g id="patch_1">
   <path d="M 0 345.6 
L 460.8 345.6 
L 460.8 0 
L 0 0 
z
" style="fill:#ffffff;"/>
  </g>
  <g id="axes_1">
   <g id="patch_2">
    <path d="M 57.6 298.944 
L 338.688 298.944 
L 338.688 27.648 
L 57.6 27.648 
z
" style="fill:#ffffff;"/>
   </g>
   <g id="line2d_1">
    <path d="M 29.53256 298.944 
L 29.53256 283.143418 
L 41.620548 283.143418 
L 41.620548 272.609696 
L 57.6 272.609696 
L 57.6 267.342835 
L 86.351421 267.342835 
L 86.351421 262.075974 
L 100.040467 262.075974 
L 100.040467 256.809114 
L 111.505558 256.809114 
L 111.505558 251.542253 
L 118.148599 251.542253 
L 118.148599 246.275392 
L 123.192626 246.275392 
L 123.192626 241.008531 
L 134.534878 241.008531 
L 134.534878 235.74167 
L 137.415591 235.74167 
L 137.415591 230.47481 
L 141.061324 230.47481 
L 141.061324 225.207949 
L 147.061745 225.207949 
L 147.061745 219.941088 
L 148.142046 219.941088 
L 148.142046 214.674227 
L 153.061751 214.674227 
L 153.061751 209.407366 
L 158.053098 209.407366 
L 158.053098 204.140506 
L 162.466339 204.140506 
L 162.466339 198.873645 
L 163.02881 198.873645 
L 163.02881 193.606784 
L 168.330516 193.606784 
L 168.330516 188.339923 
L 168.72825 188.339923 
L 168.72825 183.073062 
L 170.526891 183.073062 
L 170.526891 177.806202 
L 171.222237 177.806202 
L 171.222237 172.539341 
L 172.356777 172.539341 
L 172.356777 167.27248 
L 172.668501 167.27248 
L 172.668501 162.005619 
L 173.072554 162.005619 
L 173.072554 156.738758 
L 174.283479 156.738758 
L 174.283479 151.471897 
L 175.521004 151.471897 
L 175.521004 146.205037 
L 176.998351 146.205037 
L 176.998351 140.938176 
L 177.339841 140.938176 
L 177.339841 135.671315 
L 178.642617 135.671315 
L 178.642617 130.404454 
L 180.182234 130.404454 
L 180.182234 125.137593 
L 181.338605 125.137593 
L 181.338605 119.870733 
L 181.840161 119.870733 
L 181.840161 114.603872 
L 182.237315 114.603872 
L 182.237315 109.337011 
L 184.471359 109.337011 
L 184.471359 104.07015 
L 184.622891 104.07015 
L 184.622891 98.803289 
L 184.70651 98.803289 
L 184.70651 93.536429 
L 184.86547 93.536429 
L 184.86547 88.269568 
L 184.983161 88.269568 
L 184.983161 83.002707 
L 185.211555 83.002707 
L 185.211555 77.735846 
L 185.489487 77.735846 
L 185.489487 72.468985 
L 185.774272 72.468985 
L 185.774272 67.202125 
L 185.934942 67.202125 
L 185.934942 61.935264 
L 186.11834 61.935264 
L 186.11834 56.668403 
L 186.328086 56.668403 
L 186.328086 51.401542 
L 186.444969 51.401542 
L 186.444969 46.134681 
L 186.571785 46.134681 
L 186.571785 40.867821 
L 186.682796 40.867821 
L 186.682796 35.60096 
L 186.810013 35.60096 
L 186.810013 30.334099 
L 338.688 30.334099 
" style="fill:none;stroke:#f5deb3;stroke-linecap:square;stroke-width:4;"/>
   </g>
   <g id="line2d_2">
    <defs>
     <path d="M 0 7.778175 
L 7.778175 0 
L 0 -7.778175 
L -7.778175 0 
z
" id="mdc120d7b30" style="stroke:#f5deb3;stroke-linejoin:miter;stroke-width:1.5;"/>
    </defs>
    <g>
     <use style="fill:#f5deb3;stroke:#f5deb3;stroke-linejoin:miter;stroke-width:1.5;" x="168.72825" xlink:href="#mdc120d7b30" y="188.339923"/>
     <use style="fill:#f5deb3;stroke:#f5deb3;stroke-linejoin:miter;stroke-width:1.5;" x="184.70651" xlink:href="#mdc120d7b30" y="98.803289"/>
     <use style="fill:#f5deb3;stroke:#f5deb3;stroke-linejoin:miter;stroke-width:1.5;" x="186.810013" xlink:href="#mdc120d7b30" y="30.334099"/>
     <use style="fill:#f5deb3;stroke:#f5deb3;stroke-linejoin:miter;stroke-width:1.5;" x="186.810013" xlink:href="#mdc120d7b30" y="30.334099"/>
     <use style="fill:#f5deb3;stroke:#f5deb3;stroke-linejoin:miter;stroke-width:1.5;" x="338.688" xlink:href="#mdc120d7b30" y="30.334099"/>
    </g>
   </g>
   <g id="line2d_3">
    <path style="fill:none;stroke:#f5deb3;stroke-linecap:square;stroke-width:4;"/>
    <g/>
   </g>
   <g id="line2d_4">
    <path d="M 338.688 30.334099 
L 369.60768 35.706297 
" style="fill:none;stroke:#f5deb3;stroke-linecap:square;stroke-width:4;"/>
    <g>
     <use style="fill:#f5deb3;stroke:#f5deb3;stroke-linejoin:miter;stroke-width:1.5;" x="338.688" xlink:href="#mdc120d7b30" y="30.334099"/>
     <use style="fill:#f5deb3;stroke:#f5deb3;stroke-linejoin:miter;stroke-width:1.5;" x="369.60768" xlink:href="#mdc120d7b30" y="35.706297"/>
    </g>
   </g>
   <g id="matplotlib.axis_1">
    <g id="xtick_1">
     <g id="line2d_5">
      <path clip-path="url(#p3d5400cd72)" d="M 57.6 298.944 
L 57.6 27.648 
" style="fill:none;stroke:#b0b0b0;stroke-linecap:square;stroke-width:0.8;"/>
     </g>
     <g id="line2d_6">
      <defs>
       <path d="M 0 0 
L 0 3.5 
" id="me9679b6a5c" style="stroke:#000000;stroke-width:0.8;"/>
      </defs>
      <g>
       <use style="stroke:#000000;stroke-width:0.8;" x="57.6" xlink:href="#me9679b6a5c" y="298.944"/>
      </g>
     </g>
     <g id="text_1">
      <!-- 0 -->
      <g transform="translate(51.2375 321.140875)scale(0.2 -0.2)">
       <defs>
        <path d="M 2034 4250 
Q 1547 4250 1301 3770 
Q 1056 3291 1056 2328 
Q 1056 1369 1301 889 
Q 1547 409 2034 409 
Q 2525 409 2770 889 
Q 3016 1369 3016 2328 
Q 3016 3291 2770 3770 
Q 2525 4250 2034 4250 
z
M 2034 4750 
Q 2819 4750 3233 4129 
Q 3647 3509 3647 2328 
Q 3647 1150 3233 529 
Q 2819 -91 2034 -91 
Q 1250 -91 836 529 
Q 422 1150 422 2328 
Q 422 3509 836 4129 
Q 1250 4750 2034 4750 
z
" id="DejaVuSans-30" transform="scale(0.015625)"/>
       </defs>
       <use xlink:href="#DejaVuSans-30"/>
      </g>
     </g>
    </g>
    <g id="xtick_2">
     <g id="line2d_7">
      <path clip-path="url(#p3d5400cd72)" d="M 137.910857 298.944 
L 137.910857 27.648 
" style="fill:none;stroke:#b0b0b0;stroke-linecap:square;stroke-width:0.8;"/>
     </g>
     <g id="line2d_8">
      <g>
       <use style="stroke:#000000;stroke-width:0.8;" x="137.910857" xlink:href="#me9679b6a5c" y="298.944"/>
      </g>
     </g>
     <g id="text_2">
      <!-- 2 -->
      <g transform="translate(131.548357 321.140875)scale(0.2 -0.2)">
       <defs>
        <path d="M 1228 531 
L 3431 531 
L 3431 0 
L 469 0 
L 469 531 
Q 828 903 1448 1529 
Q 2069 2156 2228 2338 
Q 2531 2678 2651 2914 
Q 2772 3150 2772 3378 
Q 2772 3750 2511 3984 
Q 2250 4219 1831 4219 
Q 1534 4219 1204 4116 
Q 875 4013 500 3803 
L 500 4441 
Q 881 4594 1212 4672 
Q 1544 4750 1819 4750 
Q 2544 4750 2975 4387 
Q 3406 4025 3406 3419 
Q 3406 3131 3298 2873 
Q 3191 2616 2906 2266 
Q 2828 2175 2409 1742 
Q 1991 1309 1228 531 
z
" id="DejaVuSans-32" transform="scale(0.015625)"/>
       </defs>
       <use xlink:href="#DejaVuSans-32"/>
      </g>
     </g>
    </g>
    <g id="xtick_3">
     <g id="line2d_9">
      <path clip-path="url(#p3d5400cd72)" d="M 218.221714 298.944 
L 218.221714 27.648 
" style="fill:none;stroke:#b0b0b0;stroke-linecap:square;stroke-width:0.8;"/>
     </g>
     <g id="line2d_10">
      <g>
       <use style="stroke:#000000;stroke-width:0.8;" x="218.221714" xlink:href="#me9679b6a5c" y="298.944"/>
      </g>
     </g>
     <g id="text_3">
      <!-- 4 -->
      <g transform="translate(211.859214 321.140875)scale(0.2 -0.2)">
       <defs>
        <path d="M 2419 4116 
L 825 1625 
L 2419 1625 
L 2419 4116 
z
M 2253 4666 
L 3047 4666 
L 3047 1625 
L 3713 1625 
L 3713 1100 
L 3047 1100 
L 3047 0 
L 2419 0 
L 2419 1100 
L 313 1100 
L 313 1709 
L 2253 4666 
z
" id="DejaVuSans-34" transform="scale(0.015625)"/>
       </defs>
       <use xlink:href="#DejaVuSans-34"/>
      </g>
     </g>
    </g>
    <g id="xtick_4">
     <g id="line2d_11">
      <path clip-path="url(#p3d5400cd72)" d="M 298.532571 298.944 
L 298.532571 27.648 
" style="fill:none;stroke:#b0b0b0;stroke-linecap:square;stroke-width:0.8;"/>
     </g>
     <g id="line2d_12">
      <g>
       <use style="stroke:#000000;stroke-width:0.8;" x="298.532571" xlink:href="#me9679b6a5c" y="298.944"/>
      </g>
     </g>
     <g id="text_4">
      <!-- 6 -->
      <g transform="translate(292.170071 321.140875)scale(0.2 -0.2)">
       <defs>
        <path d="M 2113 2584 
Q 1688 2584 1439 2293 
Q 1191 2003 1191 1497 
Q 1191 994 1439 701 
Q 1688 409 2113 409 
Q 2538 409 2786 701 
Q 3034 994 3034 1497 
Q 3034 2003 2786 2293 
Q 2538 2584 2113 2584 
z
M 3366 4563 
L 3366 3988 
Q 3128 4100 2886 4159 
Q 2644 4219 2406 4219 
Q 1781 4219 1451 3797 
Q 1122 3375 1075 2522 
Q 1259 2794 1537 2939 
Q 1816 3084 2150 3084 
Q 2853 3084 3261 2657 
Q 3669 2231 3669 1497 
Q 3669 778 3244 343 
Q 2819 -91 2113 -91 
Q 1303 -91 875 529 
Q 447 1150 447 2328 
Q 447 3434 972 4092 
Q 1497 4750 2381 4750 
Q 2619 4750 2861 4703 
Q 3103 4656 3366 4563 
z
" id="DejaVuSans-36" transform="scale(0.015625)"/>
       </defs>
       <use xlink:href="#DejaVuSans-36"/>
      </g>
     </g>
    </g>
    <g id="xtick_5">
     <g id="line2d_13">
      <path clip-path="url(#p3d5400cd72)" d="M 97.755429 298.944 
L 97.755429 27.648 
" style="fill:none;stroke:#b0b0b0;stroke-linecap:square;stroke-width:0.8;"/>
     </g>
     <g id="line2d_14">
      <defs>
       <path d="M 0 0 
L 0 2 
" id="m13505314e2" style="stroke:#000000;stroke-width:0.6;"/>
      </defs>
      <g>
       <use style="stroke:#000000;stroke-width:0.6;" x="97.755429" xlink:href="#m13505314e2" y="298.944"/>
      </g>
     </g>
    </g>
    <g id="xtick_6">
     <g id="line2d_15">
      <path clip-path="url(#p3d5400cd72)" d="M 178.066286 298.944 
L 178.066286 27.648 
" style="fill:none;stroke:#b0b0b0;stroke-linecap:square;stroke-width:0.8;"/>
     </g>
     <g id="line2d_16">
      <g>
       <use style="stroke:#000000;stroke-width:0.6;" x="178.066286" xlink:href="#m13505314e2" y="298.944"/>
      </g>
     </g>
    </g>
    <g id="xtick_7">
     <g id="line2d_17">
      <path clip-path="url(#p3d5400cd72)" d="M 258.377143 298.944 
L 258.377143 27.648 
" style="fill:none;stroke:#b0b0b0;stroke-linecap:square;stroke-width:0.8;"/>
     </g>
     <g id="line2d_18">
      <g>
       <use style="stroke:#000000;stroke-width:0.6;" x="258.377143" xlink:href="#m13505314e2" y="298.944"/>
      </g>
     </g>
    </g>
    <g id="xtick_8">
     <g id="line2d_19">
      <path clip-path="url(#p3d5400cd72)" d="M 338.688 298.944 
L 338.688 27.648 
" style="fill:none;stroke:#b0b0b0;stroke-linecap:square;stroke-width:0.8;"/>
     </g>
     <g id="line2d_20">
      <g>
       <use style="stroke:#000000;stroke-width:0.6;" x="338.688" xlink:href="#m13505314e2" y="298.944"/>
      </g>
     </g>
    </g>
    <g id="text_5">
     <!-- log10(# f-evals / dimension) -->
     <g transform="translate(77.764078 342.217594)scale(0.17 -0.17)">
      <defs>
       <path d="M 603 4863 
L 1178 4863 
L 1178 0 
L 603 0 
L 603 4863 
z
" id="DejaVuSans-6c" transform="scale(0.015625)"/>
       <path d="M 1959 3097 
Q 1497 3097 1228 2736 
Q 959 2375 959 1747 
Q 959 1119 1226 758 
Q 1494 397 1959 397 
Q 2419 397 2687 759 
Q 2956 1122 2956 1747 
Q 2956 2369 2687 2733 
Q 2419 3097 1959 3097 
z
M 1959 3584 
Q 2709 3584 3137 3096 
Q 3566 2609 3566 1747 
Q 3566 888 3137 398 
Q 2709 -91 1959 -91 
Q 1206 -91 779 398 
Q 353 888 353 1747 
Q 353 2609 779 3096 
Q 1206 3584 1959 3584 
z
" id="DejaVuSans-6f" transform="scale(0.015625)"/>
       <path d="M 2906 1791 
Q 2906 2416 2648 2759 
Q 2391 3103 1925 3103 
Q 1463 3103 1205 2759 
Q 947 2416 947 1791 
Q 947 1169 1205 825 
Q 1463 481 1925 481 
Q 2391 481 2648 825 
Q 2906 1169 2906 1791 
z
M 3481 434 
Q 3481 -459 3084 -895 
Q 2688 -1331 1869 -1331 
Q 1566 -1331 1297 -1286 
Q 1028 -1241 775 -1147 
L 775 -588 
Q 1028 -725 1275 -790 
Q 1522 -856 1778 -856 
Q 2344 -856 2625 -561 
Q 2906 -266 2906 331 
L 2906 616 
Q 2728 306 2450 153 
Q 2172 0 1784 0 
Q 1141 0 747 490 
Q 353 981 353 1791 
Q 353 2603 747 3093 
Q 1141 3584 1784 3584 
Q 2172 3584 2450 3431 
Q 2728 3278 2906 2969 
L 2906 3500 
L 3481 3500 
L 3481 434 
z
" id="DejaVuSans-67" transform="scale(0.015625)"/>
       <path d="M 794 531 
L 1825 531 
L 1825 4091 
L 703 3866 
L 703 4441 
L 1819 4666 
L 2450 4666 
L 2450 531 
L 3481 531 
L 3481 0 
L 794 0 
L 794 531 
z
" id="DejaVuSans-31" transform="scale(0.015625)"/>
       <path d="M 1984 4856 
Q 1566 4138 1362 3434 
Q 1159 2731 1159 2009 
Q 1159 1288 1364 580 
Q 1569 -128 1984 -844 
L 1484 -844 
Q 1016 -109 783 600 
Q 550 1309 550 2009 
Q 550 2706 781 3412 
Q 1013 4119 1484 4856 
L 1984 4856 
z
" id="DejaVuSans-28" transform="scale(0.015625)"/>
       <path d="M 3272 2816 
L 2363 2816 
L 2100 1772 
L 3016 1772 
L 3272 2816 
z
M 2803 4594 
L 2478 3297 
L 3391 3297 
L 3719 4594 
L 4219 4594 
L 3897 3297 
L 4872 3297 
L 4872 2816 
L 3775 2816 
L 3519 1772 
L 4513 1772 
L 4513 1294 
L 3397 1294 
L 3072 0 
L 2572 0 
L 2894 1294 
L 1978 1294 
L 1656 0 
L 1153 0 
L 1478 1294 
L 494 1294 
L 494 1772 
L 1594 1772 
L 1856 2816 
L 850 2816 
L 850 3297 
L 1978 3297 
L 2297 4594 
L 2803 4594 
z
" id="DejaVuSans-23" transform="scale(0.015625)"/>
       <path id="DejaVuSans-20" transform="scale(0.015625)"/>
       <path d="M 2375 4863 
L 2375 4384 
L 1825 4384 
Q 1516 4384 1395 4259 
Q 1275 4134 1275 3809 
L 1275 3500 
L 2222 3500 
L 2222 3053 
L 1275 3053 
L 1275 0 
L 697 0 
L 697 3053 
L 147 3053 
L 147 3500 
L 697 3500 
L 697 3744 
Q 697 4328 969 4595 
Q 1241 4863 1831 4863 
L 2375 4863 
z
" id="DejaVuSans-66" transform="scale(0.015625)"/>
       <path d="M 313 2009 
L 1997 2009 
L 1997 1497 
L 313 1497 
L 313 2009 
z
" id="DejaVuSans-2d" transform="scale(0.015625)"/>
       <path d="M 3597 1894 
L 3597 1613 
L 953 1613 
Q 991 1019 1311 708 
Q 1631 397 2203 397 
Q 2534 397 2845 478 
Q 3156 559 3463 722 
L 3463 178 
Q 3153 47 2828 -22 
Q 2503 -91 2169 -91 
Q 1331 -91 842 396 
Q 353 884 353 1716 
Q 353 2575 817 3079 
Q 1281 3584 2069 3584 
Q 2775 3584 3186 3129 
Q 3597 2675 3597 1894 
z
M 3022 2063 
Q 3016 2534 2758 2815 
Q 2500 3097 2075 3097 
Q 1594 3097 1305 2825 
Q 1016 2553 972 2059 
L 3022 2063 
z
" id="DejaVuSans-65" transform="scale(0.015625)"/>
       <path d="M 191 3500 
L 800 3500 
L 1894 563 
L 2988 3500 
L 3597 3500 
L 2284 0 
L 1503 0 
L 191 3500 
z
" id="DejaVuSans-76" transform="scale(0.015625)"/>
       <path d="M 2194 1759 
Q 1497 1759 1228 1600 
Q 959 1441 959 1056 
Q 959 750 1161 570 
Q 1363 391 1709 391 
Q 2188 391 2477 730 
Q 2766 1069 2766 1631 
L 2766 1759 
L 2194 1759 
z
M 3341 1997 
L 3341 0 
L 2766 0 
L 2766 531 
Q 2569 213 2275 61 
Q 1981 -91 1556 -91 
Q 1019 -91 701 211 
Q 384 513 384 1019 
Q 384 1609 779 1909 
Q 1175 2209 1959 2209 
L 2766 2209 
L 2766 2266 
Q 2766 2663 2505 2880 
Q 2244 3097 1772 3097 
Q 1472 3097 1187 3025 
Q 903 2953 641 2809 
L 641 3341 
Q 956 3463 1253 3523 
Q 1550 3584 1831 3584 
Q 2591 3584 2966 3190 
Q 3341 2797 3341 1997 
z
" id="DejaVuSans-61" transform="scale(0.015625)"/>
       <path d="M 2834 3397 
L 2834 2853 
Q 2591 2978 2328 3040 
Q 2066 3103 1784 3103 
Q 1356 3103 1142 2972 
Q 928 2841 928 2578 
Q 928 2378 1081 2264 
Q 1234 2150 1697 2047 
L 1894 2003 
Q 2506 1872 2764 1633 
Q 3022 1394 3022 966 
Q 3022 478 2636 193 
Q 2250 -91 1575 -91 
Q 1294 -91 989 -36 
Q 684 19 347 128 
L 347 722 
Q 666 556 975 473 
Q 1284 391 1588 391 
Q 1994 391 2212 530 
Q 2431 669 2431 922 
Q 2431 1156 2273 1281 
Q 2116 1406 1581 1522 
L 1381 1569 
Q 847 1681 609 1914 
Q 372 2147 372 2553 
Q 372 3047 722 3315 
Q 1072 3584 1716 3584 
Q 2034 3584 2315 3537 
Q 2597 3491 2834 3397 
z
" id="DejaVuSans-73" transform="scale(0.015625)"/>
       <path d="M 1625 4666 
L 2156 4666 
L 531 -594 
L 0 -594 
L 1625 4666 
z
" id="DejaVuSans-2f" transform="scale(0.015625)"/>
       <path d="M 2906 2969 
L 2906 4863 
L 3481 4863 
L 3481 0 
L 2906 0 
L 2906 525 
Q 2725 213 2448 61 
Q 2172 -91 1784 -91 
Q 1150 -91 751 415 
Q 353 922 353 1747 
Q 353 2572 751 3078 
Q 1150 3584 1784 3584 
Q 2172 3584 2448 3432 
Q 2725 3281 2906 2969 
z
M 947 1747 
Q 947 1113 1208 752 
Q 1469 391 1925 391 
Q 2381 391 2643 752 
Q 2906 1113 2906 1747 
Q 2906 2381 2643 2742 
Q 2381 3103 1925 3103 
Q 1469 3103 1208 2742 
Q 947 2381 947 1747 
z
" id="DejaVuSans-64" transform="scale(0.015625)"/>
       <path d="M 603 3500 
L 1178 3500 
L 1178 0 
L 603 0 
L 603 3500 
z
M 603 4863 
L 1178 4863 
L 1178 4134 
L 603 4134 
L 603 4863 
z
" id="DejaVuSans-69" transform="scale(0.015625)"/>
       <path d="M 3328 2828 
Q 3544 3216 3844 3400 
Q 4144 3584 4550 3584 
Q 5097 3584 5394 3201 
Q 5691 2819 5691 2113 
L 5691 0 
L 5113 0 
L 5113 2094 
Q 5113 2597 4934 2840 
Q 4756 3084 4391 3084 
Q 3944 3084 3684 2787 
Q 3425 2491 3425 1978 
L 3425 0 
L 2847 0 
L 2847 2094 
Q 2847 2600 2669 2842 
Q 2491 3084 2119 3084 
Q 1678 3084 1418 2786 
Q 1159 2488 1159 1978 
L 1159 0 
L 581 0 
L 581 3500 
L 1159 3500 
L 1159 2956 
Q 1356 3278 1631 3431 
Q 1906 3584 2284 3584 
Q 2666 3584 2933 3390 
Q 3200 3197 3328 2828 
z
" id="DejaVuSans-6d" transform="scale(0.015625)"/>
       <path d="M 3513 2113 
L 3513 0 
L 2938 0 
L 2938 2094 
Q 2938 2591 2744 2837 
Q 2550 3084 2163 3084 
Q 1697 3084 1428 2787 
Q 1159 2491 1159 1978 
L 1159 0 
L 581 0 
L 581 3500 
L 1159 3500 
L 1159 2956 
Q 1366 3272 1645 3428 
Q 1925 3584 2291 3584 
Q 2894 3584 3203 3211 
Q 3513 2838 3513 2113 
z
" id="DejaVuSans-6e" transform="scale(0.015625)"/>
       <path d="M 513 4856 
L 1013 4856 
Q 1481 4119 1714 3412 
Q 1947 2706 1947 2009 
Q 1947 1309 1714 600 
Q 1481 -109 1013 -844 
L 513 -844 
Q 928 -128 1133 580 
Q 1338 1288 1338 2009 
Q 1338 2731 1133 3434 
Q 928 4138 513 4856 
z
" id="DejaVuSans-29" transform="scale(0.015625)"/>
      </defs>
      <use xlink:href="#DejaVuSans-6c"/>
      <use x="27.783203" xlink:href="#DejaVuSans-6f"/>
      <use x="88.964844" xlink:href="#DejaVuSans-67"/>
      <use x="152.441406" xlink:href="#DejaVuSans-31"/>
      <use x="216.064453" xlink:href="#DejaVuSans-30"/>
      <use x="279.6875" xlink:href="#DejaVuSans-28"/>
      <use x="318.701172" xlink:href="#DejaVuSans-23"/>
      <use x="402.490234" xlink:href="#DejaVuSans-20"/>
      <use x="434.277344" xlink:href="#DejaVuSans-66"/>
      <use x="463.982422" xlink:href="#DejaVuSans-2d"/>
      <use x="500.066406" xlink:href="#DejaVuSans-65"/>
      <use x="561.589844" xlink:href="#DejaVuSans-76"/>
      <use x="620.769531" xlink:href="#DejaVuSans-61"/>
      <use x="682.048828" xlink:href="#DejaVuSans-6c"/>
      <use x="709.832031" xlink:href="#DejaVuSans-73"/>
      <use x="761.931641" xlink:href="#DejaVuSans-20"/>
      <use x="793.71875" xlink:href="#DejaVuSans-2f"/>
      <use x="827.410156" xlink:href="#DejaVuSans-20"/>
      <use x="859.197266" xlink:href="#DejaVuSans-64"/>
      <use x="922.673828" xlink:href="#DejaVuSans-69"/>
      <use x="950.457031" xlink:href="#DejaVuSans-6d"/>
      <use x="1047.869141" xlink:href="#DejaVuSans-65"/>
      <use x="1109.392578" xlink:href="#DejaVuSans-6e"/>
      <use x="1172.771484" xlink:href="#DejaVuSans-73"/>
      <use x="1224.871094" xlink:href="#DejaVuSans-69"/>
      <use x="1252.654297" xlink:href="#DejaVuSans-6f"/>
      <use x="1313.835938" xlink:href="#DejaVuSans-6e"/>
      <use x="1377.214844" xlink:href="#DejaVuSans-29"/>
     </g>
    </g>
   </g>
   <g id="matplotlib.axis_2">
    <g id="ytick_1">
     <g id="line2d_21">
      <path clip-path="url(#p3d5400cd72)" d="M 57.6 298.944 
L 338.688 298.944 
" style="fill:none;stroke:#b0b0b0;stroke-linecap:square;stroke-width:0.8;"/>
     </g>
     <g id="line2d_22">
      <defs>
       <path d="M 0 0 
L -3.5 0 
" id="mf02129abbb" style="stroke:#000000;stroke-width:0.8;"/>
      </defs>
      <g>
       <use style="stroke:#000000;stroke-width:0.8;" x="57.6" xlink:href="#mf02129abbb" y="298.944"/>
      </g>
     </g>
     <g id="text_6">
      <!-- 0.0 -->
      <g transform="translate(25.155 305.02275)scale(0.16 -0.16)">
       <defs>
        <path d="M 684 794 
L 1344 794 
L 1344 0 
L 684 0 
L 684 794 
z
" id="DejaVuSans-2e" transform="scale(0.015625)"/>
       </defs>
       <use xlink:href="#DejaVuSans-30"/>
       <use x="63.623047" xlink:href="#DejaVuSans-2e"/>
       <use x="95.410156" xlink:href="#DejaVuSans-30"/>
      </g>
     </g>
    </g>
    <g id="ytick_2">
     <g id="line2d_23">
      <path clip-path="url(#p3d5400cd72)" d="M 57.6 245.22202 
L 338.688 245.22202 
" style="fill:none;stroke:#b0b0b0;stroke-linecap:square;stroke-width:0.8;"/>
     </g>
     <g id="line2d_24">
      <g>
       <use style="stroke:#000000;stroke-width:0.8;" x="57.6" xlink:href="#mf02129abbb" y="245.22202"/>
      </g>
     </g>
     <g id="text_7">
      <!-- 0.2 -->
      <g transform="translate(25.155 251.30077)scale(0.16 -0.16)">
       <use xlink:href="#DejaVuSans-30"/>
       <use x="63.623047" xlink:href="#DejaVuSans-2e"/>
       <use x="95.410156" xlink:href="#DejaVuSans-32"/>
      </g>
     </g>
    </g>
    <g id="ytick_3">
     <g id="line2d_25">
      <path clip-path="url(#p3d5400cd72)" d="M 57.6 191.50004 
L 338.688 191.50004 
" style="fill:none;stroke:#b0b0b0;stroke-linecap:square;stroke-width:0.8;"/>
     </g>
     <g id="line2d_26">
      <g>
       <use style="stroke:#000000;stroke-width:0.8;" x="57.6" xlink:href="#mf02129abbb" y="191.50004"/>
      </g>
     </g>
     <g id="text_8">
      <!-- 0.4 -->
      <g transform="translate(25.155 197.57879)scale(0.16 -0.16)">
       <use xlink:href="#DejaVuSans-30"/>
       <use x="63.623047" xlink:href="#DejaVuSans-2e"/>
       <use x="95.410156" xlink:href="#DejaVuSans-34"/>
      </g>
     </g>
    </g>
    <g id="ytick_4">
     <g id="line2d_27">
      <path clip-path="url(#p3d5400cd72)" d="M 57.6 137.778059 
L 338.688 137.778059 
" style="fill:none;stroke:#b0b0b0;stroke-linecap:square;stroke-width:0.8;"/>
     </g>
     <g id="line2d_28">
      <g>
       <use style="stroke:#000000;stroke-width:0.8;" x="57.6" xlink:href="#mf02129abbb" y="137.778059"/>
      </g>
     </g>
     <g id="text_9">
      <!-- 0.6 -->
      <g transform="translate(25.155 143.856809)scale(0.16 -0.16)">
       <use xlink:href="#DejaVuSans-30"/>
       <use x="63.623047" xlink:href="#DejaVuSans-2e"/>
       <use x="95.410156" xlink:href="#DejaVuSans-36"/>
      </g>
     </g>
    </g>
    <g id="ytick_5">
     <g id="line2d_29">
      <path clip-path="url(#p3d5400cd72)" d="M 57.6 84.056079 
L 338.688 84.056079 
" style="fill:none;stroke:#b0b0b0;stroke-linecap:square;stroke-width:0.8;"/>
     </g>
     <g id="line2d_30">
      <g>
       <use style="stroke:#000000;stroke-width:0.8;" x="57.6" xlink:href="#mf02129abbb" y="84.056079"/>
      </g>
     </g>
     <g id="text_10">
      <!-- 0.8 -->
      <g transform="translate(25.155 90.134829)scale(0.16 -0.16)">
       <defs>
        <path d="M 2034 2216 
Q 1584 2216 1326 1975 
Q 1069 1734 1069 1313 
Q 1069 891 1326 650 
Q 1584 409 2034 409 
Q 2484 409 2743 651 
Q 3003 894 3003 1313 
Q 3003 1734 2745 1975 
Q 2488 2216 2034 2216 
z
M 1403 2484 
Q 997 2584 770 2862 
Q 544 3141 544 3541 
Q 544 4100 942 4425 
Q 1341 4750 2034 4750 
Q 2731 4750 3128 4425 
Q 3525 4100 3525 3541 
Q 3525 3141 3298 2862 
Q 3072 2584 2669 2484 
Q 3125 2378 3379 2068 
Q 3634 1759 3634 1313 
Q 3634 634 3220 271 
Q 2806 -91 2034 -91 
Q 1263 -91 848 271 
Q 434 634 434 1313 
Q 434 1759 690 2068 
Q 947 2378 1403 2484 
z
M 1172 3481 
Q 1172 3119 1398 2916 
Q 1625 2713 2034 2713 
Q 2441 2713 2670 2916 
Q 2900 3119 2900 3481 
Q 2900 3844 2670 4047 
Q 2441 4250 2034 4250 
Q 1625 4250 1398 4047 
Q 1172 3844 1172 3481 
z
" id="DejaVuSans-38" transform="scale(0.015625)"/>
       </defs>
       <use xlink:href="#DejaVuSans-30"/>
       <use x="63.623047" xlink:href="#DejaVuSans-2e"/>
       <use x="95.410156" xlink:href="#DejaVuSans-38"/>
      </g>
     </g>
    </g>
    <g id="ytick_6">
     <g id="line2d_31">
      <path clip-path="url(#p3d5400cd72)" d="M 57.6 30.334099 
L 338.688 30.334099 
" style="fill:none;stroke:#b0b0b0;stroke-linecap:square;stroke-width:0.8;"/>
     </g>
     <g id="line2d_32">
      <g>
       <use style="stroke:#000000;stroke-width:0.8;" x="57.6" xlink:href="#mf02129abbb" y="30.334099"/>
      </g>
     </g>
     <g id="text_11">
      <!-- 1.0 -->
      <g transform="translate(25.155 36.412849)scale(0.16 -0.16)">
       <use xlink:href="#DejaVuSans-31"/>
       <use x="63.623047" xlink:href="#DejaVuSans-2e"/>
       <use x="95.410156" xlink:href="#DejaVuSans-30"/>
      </g>
     </g>
    </g>
    <g id="text_12">
     <!-- Fraction of function,target pairs -->
     <g transform="translate(17.619531 297.681)rotate(-90)scale(0.17 -0.17)">
      <defs>
       <path d="M 628 4666 
L 3309 4666 
L 3309 4134 
L 1259 4134 
L 1259 2759 
L 3109 2759 
L 3109 2228 
L 1259 2228 
L 1259 0 
L 628 0 
L 628 4666 
z
" id="DejaVuSans-46" transform="scale(0.015625)"/>
       <path d="M 2631 2963 
Q 2534 3019 2420 3045 
Q 2306 3072 2169 3072 
Q 1681 3072 1420 2755 
Q 1159 2438 1159 1844 
L 1159 0 
L 581 0 
L 581 3500 
L 1159 3500 
L 1159 2956 
Q 1341 3275 1631 3429 
Q 1922 3584 2338 3584 
Q 2397 3584 2469 3576 
Q 2541 3569 2628 3553 
L 2631 2963 
z
" id="DejaVuSans-72" transform="scale(0.015625)"/>
       <path d="M 3122 3366 
L 3122 2828 
Q 2878 2963 2633 3030 
Q 2388 3097 2138 3097 
Q 1578 3097 1268 2742 
Q 959 2388 959 1747 
Q 959 1106 1268 751 
Q 1578 397 2138 397 
Q 2388 397 2633 464 
Q 2878 531 3122 666 
L 3122 134 
Q 2881 22 2623 -34 
Q 2366 -91 2075 -91 
Q 1284 -91 818 406 
Q 353 903 353 1747 
Q 353 2603 823 3093 
Q 1294 3584 2113 3584 
Q 2378 3584 2631 3529 
Q 2884 3475 3122 3366 
z
" id="DejaVuSans-63" transform="scale(0.015625)"/>
       <path d="M 1172 4494 
L 1172 3500 
L 2356 3500 
L 2356 3053 
L 1172 3053 
L 1172 1153 
Q 1172 725 1289 603 
Q 1406 481 1766 481 
L 2356 481 
L 2356 0 
L 1766 0 
Q 1100 0 847 248 
Q 594 497 594 1153 
L 594 3053 
L 172 3053 
L 172 3500 
L 594 3500 
L 594 4494 
L 1172 4494 
z
" id="DejaVuSans-74" transform="scale(0.015625)"/>
       <path d="M 544 1381 
L 544 3500 
L 1119 3500 
L 1119 1403 
Q 1119 906 1312 657 
Q 1506 409 1894 409 
Q 2359 409 2629 706 
Q 2900 1003 2900 1516 
L 2900 3500 
L 3475 3500 
L 3475 0 
L 2900 0 
L 2900 538 
Q 2691 219 2414 64 
Q 2138 -91 1772 -91 
Q 1169 -91 856 284 
Q 544 659 544 1381 
z
M 1991 3584 
L 1991 3584 
z
" id="DejaVuSans-75" transform="scale(0.015625)"/>
       <path d="M 750 794 
L 1409 794 
L 1409 256 
L 897 -744 
L 494 -744 
L 750 256 
L 750 794 
z
" id="DejaVuSans-2c" transform="scale(0.015625)"/>
       <path d="M 1159 525 
L 1159 -1331 
L 581 -1331 
L 581 3500 
L 1159 3500 
L 1159 2969 
Q 1341 3281 1617 3432 
Q 1894 3584 2278 3584 
Q 2916 3584 3314 3078 
Q 3713 2572 3713 1747 
Q 3713 922 3314 415 
Q 2916 -91 2278 -91 
Q 1894 -91 1617 61 
Q 1341 213 1159 525 
z
M 3116 1747 
Q 3116 2381 2855 2742 
Q 2594 3103 2138 3103 
Q 1681 3103 1420 2742 
Q 1159 2381 1159 1747 
Q 1159 1113 1420 752 
Q 1681 391 2138 391 
Q 2594 391 2855 752 
Q 3116 1113 3116 1747 
z
" id="DejaVuSans-70" transform="scale(0.015625)"/>
      </defs>
      <use xlink:href="#DejaVuSans-46"/>
      <use x="50.269531" xlink:href="#DejaVuSans-72"/>
      <use x="91.382812" xlink:href="#DejaVuSans-61"/>
      <use x="152.662109" xlink:href="#DejaVuSans-63"/>
      <use x="207.642578" xlink:href="#DejaVuSans-74"/>
      <use x="246.851562" xlink:href="#DejaVuSans-69"/>
      <use x="274.634766" xlink:href="#DejaVuSans-6f"/>
      <use x="335.816406" xlink:href="#DejaVuSans-6e"/>
      <use x="399.195312" xlink:href="#DejaVuSans-20"/>
      <use x="430.982422" xlink:href="#DejaVuSans-6f"/>
      <use x="492.164062" xlink:href="#DejaVuSans-66"/>
      <use x="527.369141" xlink:href="#DejaVuSans-20"/>
      <use x="559.15625" xlink:href="#DejaVuSans-66"/>
      <use x="594.361328" xlink:href="#DejaVuSans-75"/>
      <use x="657.740234" xlink:href="#DejaVuSans-6e"/>
      <use x="721.119141" xlink:href="#DejaVuSans-63"/>
      <use x="776.099609" xlink:href="#DejaVuSans-74"/>
      <use x="815.308594" xlink:href="#DejaVuSans-69"/>
      <use x="843.091797" xlink:href="#DejaVuSans-6f"/>
      <use x="904.273438" xlink:href="#DejaVuSans-6e"/>
      <use x="967.652344" xlink:href="#DejaVuSans-2c"/>
      <use x="999.439453" xlink:href="#DejaVuSans-74"/>
      <use x="1038.648438" xlink:href="#DejaVuSans-61"/>
      <use x="1099.927734" xlink:href="#DejaVuSans-72"/>
      <use x="1139.291016" xlink:href="#DejaVuSans-67"/>
      <use x="1202.767578" xlink:href="#DejaVuSans-65"/>
      <use x="1264.291016" xlink:href="#DejaVuSans-74"/>
      <use x="1303.5" xlink:href="#DejaVuSans-20"/>
      <use x="1335.287109" xlink:href="#DejaVuSans-70"/>
      <use x="1398.763672" xlink:href="#DejaVuSans-61"/>
      <use x="1460.042969" xlink:href="#DejaVuSans-69"/>
      <use x="1487.826172" xlink:href="#DejaVuSans-72"/>
      <use x="1528.939453" xlink:href="#DejaVuSans-73"/>
     </g>
    </g>
   </g>
   <g id="line2d_33">
    <defs>
     <path d="M 0 1.5 
C 0.397805 1.5 0.77937 1.341951 1.06066 1.06066 
C 1.341951 0.77937 1.5 0.397805 1.5 0 
C 1.5 -0.397805 1.341951 -0.77937 1.06066 -1.06066 
C 0.77937 -1.341951 0.397805 -1.5 0 -1.5 
C -0.397805 -1.5 -0.77937 -1.341951 -1.06066 -1.06066 
C -1.341951 -0.77937 -1.5 -0.397805 -1.5 0 
C -1.5 0.397805 -1.341951 0.77937 -1.06066 1.06066 
C -0.77937 1.341951 -0.397805 1.5 0 1.5 
z
" id="mfcf4772c06" style="stroke:#f5deb3;"/>
    </defs>
    <g>
     <use style="fill:#f5deb3;stroke:#f5deb3;" x="186.810013" xlink:href="#mfcf4772c06" y="30.334099"/>
     <use style="fill:#f5deb3;stroke:#f5deb3;" x="186.810013" xlink:href="#mfcf4772c06" y="30.334099"/>
    </g>
   </g>
   <g id="line2d_34">
    <defs>
     <path d="M 0 1.5 
C 0.397805 1.5 0.77937 1.341951 1.06066 1.06066 
C 1.341951 0.77937 1.5 0.397805 1.5 0 
C 1.5 -0.397805 1.341951 -0.77937 1.06066 -1.06066 
C 0.77937 -1.341951 0.397805 -1.5 0 -1.5 
C -0.397805 -1.5 -0.77937 -1.341951 -1.06066 -1.06066 
C -1.341951 -0.77937 -1.5 -0.397805 -1.5 0 
C -1.5 0.397805 -1.341951 0.77937 -1.06066 1.06066 
C -0.77937 1.341951 -0.397805 1.5 0 1.5 
z
" id="m638ffebc70" style="stroke:#000080;"/>
    </defs>
    <g>
     <use style="fill:#000080;stroke:#000080;" x="289.432838" xlink:href="#m638ffebc70" y="93.536429"/>
     <use style="fill:#000080;stroke:#000080;" x="289.432838" xlink:href="#m638ffebc70" y="93.536429"/>
    </g>
   </g>
   <g id="line2d_35">
    <path d="M 29.53256 298.944 
L 29.53256 285.776848 
L 41.620548 285.776848 
L 41.620548 279.983301 
L 48.691568 279.983301 
L 48.691568 277.349871 
L 53.708537 277.349871 
L 53.708537 276.296499 
L 57.6 276.296499 
L 57.6 275.769812 
L 60.779557 275.769812 
L 60.779557 275.243126 
L 63.467834 275.243126 
L 63.467834 273.136382 
L 65.796525 273.136382 
L 65.796525 272.609696 
L 67.850577 272.609696 
L 67.850577 272.08301 
L 71.35013 272.08301 
L 71.35013 271.556324 
L 72.867545 271.556324 
L 72.867545 270.502952 
L 77.884514 270.502952 
L 77.884514 269.976266 
L 81.775977 269.976266 
L 81.775977 269.449579 
L 82.626842 269.449579 
L 82.626842 268.922893 
L 83.438118 268.922893 
L 83.438118 268.396207 
L 87.009585 268.396207 
L 87.009585 267.869521 
L 92.026554 267.869521 
L 92.026554 267.342835 
L 94.714831 267.342835 
L 94.714831 266.816149 
L 95.918017 266.816149 
L 95.918017 265.762777 
L 96.676366 265.762777 
L 96.676366 264.709405 
L 101.785851 264.709405 
L 101.785851 263.656033 
L 102.330873 263.656033 
L 102.330873 263.129347 
L 103.372333 263.129347 
L 103.372333 262.60266 
L 105.285403 262.60266 
L 105.285403 262.075974 
L 106.382575 262.075974 
L 106.382575 261.549288 
L 106.802819 261.549288 
L 106.802819 261.022602 
L 108.198707 261.022602 
L 108.198707 260.495916 
L 108.389302 260.495916 
L 108.389302 259.96923 
L 110.358901 259.96923 
L 110.358901 259.442544 
L 110.859585 259.442544 
L 110.859585 258.915858 
L 111.819788 258.915858 
L 111.819788 258.389172 
L 113.022974 258.389172 
L 113.022974 257.862486 
L 114.0117 257.862486 
L 114.0117 257.3358 
L 114.552496 257.3358 
L 114.552496 256.809114 
L 116.081002 256.809114 
L 116.081002 256.282427 
L 116.797786 256.282427 
L 116.797786 255.755741 
L 118.148599 255.755741 
L 118.148599 255.229055 
L 119.602714 255.229055 
L 119.602714 254.702369 
L 121.667835 254.702369 
L 121.667835 254.175683 
L 122.531342 254.175683 
L 122.531342 253.648997 
L 123.192626 253.648997 
L 123.192626 253.122311 
L 125.038147 253.122311 
L 125.038147 252.595625 
L 126.030894 252.595625 
L 126.030894 252.068939 
L 126.50685 252.068939 
L 126.50685 251.542253 
L 126.640485 251.542253 
L 126.640485 251.015567 
L 128.411207 251.015567 
L 128.411207 250.488881 
L 130.344571 250.488881 
L 130.344571 249.962195 
L 131.030622 249.962195 
L 131.030622 249.435508 
L 132.133473 249.435508 
L 132.230358 248.382136 
L 134.577155 248.382136 
L 134.577155 247.85545 
L 134.953107 247.85545 
L 134.953107 247.328764 
L 136.418789 247.328764 
L 136.418789 246.802078 
L 137.558536 246.802078 
L 137.558536 246.275392 
L 137.980475 246.275392 
L 137.980475 245.748706 
L 139.02546 245.748706 
L 139.02546 245.22202 
L 139.188293 245.22202 
L 139.188293 244.695334 
L 140.408758 244.695334 
L 140.408758 243.641962 
L 142.884173 243.641962 
L 142.884173 243.115275 
L 143.42637 243.115275 
L 143.42637 242.588589 
L 144.414696 242.588589 
L 144.414696 242.061903 
L 145.888018 242.061903 
L 145.888018 241.535217 
L 147.509976 241.535217 
L 147.509976 241.008531 
L 148.449693 241.008531 
L 148.449693 240.481845 
L 148.752007 240.481845 
L 148.752007 239.955159 
L 148.864037 239.955159 
L 148.864037 239.428473 
L 149.395596 239.428473 
L 149.395596 238.375101 
L 151.260066 238.375101 
L 151.260066 237.848415 
L 151.453659 237.848415 
L 151.453659 236.795043 
L 152.299175 236.795043 
L 152.299175 236.268356 
L 152.900071 236.268356 
L 152.900071 235.74167 
L 153.665645 235.74167 
L 153.665645 235.214984 
L 154.587699 235.214984 
L 154.587699 234.688298 
L 154.840544 234.688298 
L 154.840544 234.161612 
L 156.212023 234.161612 
L 156.212023 233.634926 
L 157.069866 233.634926 
L 157.069866 233.10824 
L 157.2549 233.10824 
L 157.2549 232.581554 
L 157.765022 232.581554 
L 157.765022 232.054868 
L 157.942862 232.054868 
L 157.942862 231.001496 
L 158.195371 231.001496 
L 158.271501 229.948123 
L 158.401243 229.948123 
L 158.401243 229.421437 
L 158.994256 229.421437 
L 158.994256 228.368065 
L 159.129083 228.368065 
L 159.129083 227.841379 
L 159.334496 227.841379 
L 159.334496 227.314693 
L 159.807898 227.314693 
L 159.887213 226.261321 
L 160.191194 226.261321 
L 160.278464 225.207949 
L 160.821253 225.207949 
L 160.821253 224.681263 
L 161.210663 224.681263 
L 161.210663 224.154577 
L 162.389382 224.154577 
L 162.389382 223.627891 
L 162.879471 223.627891 
L 162.879471 223.101204 
L 163.266752 223.101204 
L 163.2749 222.047832 
L 163.428979 222.047832 
L 163.469301 220.99446 
L 164.210504 220.99446 
L 164.256762 219.941088 
L 164.402441 219.941088 
L 164.402441 218.887716 
L 165.069087 218.887716 
L 165.069087 218.36103 
L 165.511714 218.36103 
L 165.511714 217.834344 
L 166.520851 217.834344 
L 166.520851 217.307658 
L 166.662278 217.307658 
L 166.662278 216.780971 
L 166.789256 216.780971 
L 166.789256 216.254285 
L 167.053592 216.254285 
L 167.053592 215.727599 
L 167.164734 215.727599 
L 167.164734 215.200913 
L 167.481174 215.200913 
L 167.481174 214.674227 
L 167.979563 214.674227 
L 167.979563 214.147541 
L 168.947317 214.147541 
L 168.947317 213.620855 
L 169.08212 213.620855 
L 169.08212 213.094169 
L 169.565775 213.094169 
L 169.656399 212.040797 
L 169.864179 212.040797 
L 169.864179 211.514111 
L 170.467674 211.514111 
L 170.467674 210.987425 
L 170.951613 210.987425 
L 170.951613 210.460738 
L 171.165339 210.460738 
L 171.222237 209.407366 
L 171.925672 209.407366 
L 171.970255 208.353994 
L 172.093501 208.353994 
L 172.093501 207.827308 
L 172.332566 207.827308 
L 172.342255 206.773936 
L 172.791647 206.773936 
L 172.791647 206.24725 
L 173.485609 206.24725 
L 173.567059 205.193878 
L 173.621148 205.193878 
L 173.621148 204.667192 
L 174.021557 204.667192 
L 174.021557 204.140506 
L 174.170462 204.140506 
L 174.170462 203.613819 
L 175.665696 203.613819 
L 175.773432 202.033761 
L 175.880507 202.033761 
L 175.880507 201.507075 
L 176.037938 201.507075 
L 176.037938 200.980389 
L 176.205606 200.980389 
L 176.209486 199.927017 
L 176.536182 199.927017 
L 176.536182 199.400331 
L 176.931477 199.400331 
L 176.931477 198.873645 
L 177.094497 198.873645 
L 177.094497 198.346959 
L 177.581781 198.346959 
L 177.581781 197.820273 
L 177.845155 197.820273 
L 177.845155 197.293586 
L 178.225994 197.293586 
L 178.225994 196.7669 
L 178.58177 196.7669 
L 178.58177 196.240214 
L 179.236422 196.240214 
L 179.236422 195.713528 
L 179.485767 195.713528 
L 179.485767 195.186842 
L 179.741105 195.186842 
L 179.741105 194.660156 
L 181.534102 194.660156 
L 181.599733 193.606784 
L 181.690637 193.606784 
L 181.786705 192.553412 
L 181.907451 192.553412 
L 181.907451 192.026726 
L 182.04681 192.026726 
L 182.04681 191.50004 
L 182.174044 191.50004 
L 182.24006 189.919981 
L 183.783996 189.919981 
L 183.783996 189.393295 
L 184.01614 189.393295 
L 184.01614 188.866609 
L 184.488261 188.866609 
L 184.488261 188.339923 
L 184.725567 188.339923 
L 184.725567 187.813237 
L 184.898504 187.813237 
L 184.898504 187.286551 
L 185.015972 187.286551 
L 185.015972 186.759865 
L 185.19534 186.759865 
L 185.19534 186.233179 
L 186.356296 186.233179 
L 186.356296 183.073062 
L 186.541776 183.073062 
L 186.561074 182.01969 
L 188.023758 182.01969 
L 188.023758 181.493004 
L 188.787138 181.493004 
L 188.787138 180.439632 
L 189.08634 180.439632 
L 189.08634 179.912946 
L 189.551024 179.912946 
L 189.6033 178.859574 
L 189.798394 178.859574 
L 189.798394 178.332888 
L 190.514999 178.332888 
L 190.514999 177.806202 
L 191.306463 177.806202 
L 191.306463 177.279515 
L 192.769652 177.279515 
L 192.769652 176.752829 
L 192.902737 176.752829 
L 192.902737 176.226143 
L 193.859189 176.226143 
L 193.859189 175.699457 
L 194.277183 175.699457 
L 194.277183 175.172771 
L 194.658474 175.172771 
L 194.658474 174.646085 
L 194.960264 174.646085 
L 194.999935 173.592713 
L 195.212612 173.592713 
L 195.212612 173.066027 
L 199.683859 173.066027 
L 199.683859 172.539341 
L 200.771079 172.539341 
L 200.771079 172.012655 
L 203.0349 172.012655 
L 203.0349 171.485969 
L 204.792976 171.485969 
L 204.792976 170.959282 
L 214.988222 170.959282 
L 214.988222 170.432596 
L 218.890261 170.432596 
L 218.890261 169.90591 
L 219.030342 169.90591 
L 219.030342 169.379224 
L 219.357898 169.379224 
L 219.434524 168.325852 
L 219.678773 168.325852 
L 219.783689 166.745794 
L 219.840361 166.745794 
L 219.840361 166.219108 
L 219.993536 166.219108 
L 219.993536 165.692422 
L 220.246288 165.692422 
L 220.326537 164.112363 
L 220.488386 164.112363 
L 220.597689 163.058991 
L 220.822977 163.058991 
L 220.822977 159.898875 
L 220.999945 159.898875 
L 220.999945 159.372189 
L 221.180729 159.372189 
L 221.2395 157.79213 
L 221.553489 157.79213 
L 221.553489 157.265444 
L 221.975633 157.265444 
L 221.975633 156.212072 
L 222.237459 156.212072 
L 222.308239 154.632014 
L 223.396058 154.632014 
L 223.396058 153.578642 
L 224.319716 153.578642 
L 224.319716 153.051956 
L 230.888902 153.051956 
L 230.888902 152.52527 
L 231.009104 152.52527 
L 231.108172 151.471897 
L 231.191599 151.471897 
L 231.191599 150.945211 
L 231.351353 150.945211 
L 231.383686 149.365153 
L 231.538123 149.365153 
L 231.562485 147.785095 
L 231.65879 147.785095 
L 231.65879 146.731723 
L 231.877416 146.731723 
L 231.939789 145.151665 
L 232.004947 145.151665 
L 232.004947 144.624978 
L 232.226491 144.624978 
L 232.287475 143.571606 
L 232.432909 143.571606 
L 232.467769 141.991548 
L 233.088082 141.991548 
L 233.088082 141.464862 
L 237.850093 141.464862 
L 237.850093 140.938176 
L 238.009167 140.938176 
L 238.009167 140.41149 
L 238.2122 140.41149 
L 238.302088 138.831432 
L 238.441364 138.831432 
L 238.472298 137.251373 
L 238.681697 137.251373 
L 238.723837 135.671315 
L 238.794523 135.671315 
L 238.851892 134.617943 
L 238.933553 134.617943 
L 238.933553 134.091257 
L 242.829589 134.091257 
L 242.929168 133.037885 
L 243.085277 133.037885 
L 243.185829 130.93114 
L 243.305184 130.93114 
L 243.414599 129.877768 
L 243.468641 129.877768 
L 243.575083 127.771024 
L 243.9311 127.771024 
L 243.9311 127.244338 
L 244.133397 127.244338 
L 244.133397 126.717652 
L 246.730933 126.717652 
L 246.841375 125.66428 
L 246.895829 125.66428 
L 246.922488 124.610907 
L 247.237341 124.610907 
L 247.237341 124.084221 
L 249.834104 124.084221 
L 249.834104 123.557535 
L 250.058422 123.557535 
L 250.153195 121.450791 
L 250.173194 121.450791 
L 250.173194 120.397419 
L 250.444854 120.397419 
L 250.444854 119.870733 
L 252.61947 119.870733 
L 252.63848 118.817361 
L 252.730764 118.817361 
L 252.802743 117.237302 
L 254.867317 117.237302 
L 254.945328 115.130558 
L 255.041203 115.130558 
L 255.041203 114.603872 
L 255.222862 114.603872 
L 255.222862 114.077186 
L 256.935079 114.077186 
L 257.023845 110.917069 
L 257.072853 110.917069 
L 257.072853 110.390383 
L 257.237941 110.390383 
L 257.237941 109.863697 
L 258.803238 109.863697 
L 258.803238 109.337011 
L 260.336253 109.337011 
L 260.445047 106.703581 
L 263.236878 106.703581 
L 263.236878 106.176895 
L 265.746642 106.176895 
L 265.8452 104.596836 
L 266.765531 104.596836 
L 266.801629 103.016778 
L 268.871457 103.016778 
L 268.871457 102.490092 
L 270.763754 102.490092 
L 270.763754 101.963406 
L 271.489951 101.963406 
L 271.525122 100.383348 
L 272.311893 100.383348 
L 272.326946 98.803289 
L 273.061376 98.803289 
L 273.061376 98.276603 
L 275.849319 98.276603 
L 275.849319 97.749917 
L 276.496659 97.749917 
L 276.496659 97.223231 
L 277.151425 97.223231 
L 277.151425 96.696545 
L 280.828764 96.696545 
L 280.828764 96.169859 
L 283.508861 96.169859 
L 283.508861 95.643173 
L 285.079008 95.643173 
L 285.079008 95.116487 
L 286.175395 95.116487 
L 286.175395 94.589801 
L 286.862834 94.589801 
L 286.862834 94.063115 
L 289.432838 94.063115 
L 289.432838 93.536429 
L 338.688 93.536429 
L 338.688 93.536429 
" style="fill:none;stroke:#000080;stroke-linecap:square;stroke-width:1.5;"/>
   </g>
   <g id="line2d_36">
    <defs>
     <path d="M 0 6 
C 1.591219 6 3.117479 5.367802 4.242641 4.242641 
C 5.367802 3.117479 6 1.591219 6 0 
C 6 -1.591219 5.367802 -3.117479 4.242641 -4.242641 
C 3.117479 -5.367802 1.591219 -6 0 -6 
C -1.591219 -6 -3.117479 -5.367802 -4.242641 -4.242641 
C -5.367802 -3.117479 -6 -1.591219 -6 0 
C -6 1.591219 -5.367802 3.117479 -4.242641 4.242641 
C -3.117479 5.367802 -1.591219 6 0 6 
z
" id="m70679826a9" style="stroke:#000080;stroke-width:1.5;"/>
    </defs>
    <g>
     <use style="fill-opacity:0;stroke:#000080;stroke-width:1.5;" x="83.438118" xlink:href="#m70679826a9" y="268.396207"/>
     <use style="fill-opacity:0;stroke:#000080;stroke-width:1.5;" x="161.210663" xlink:href="#m70679826a9" y="224.681263"/>
     <use style="fill-opacity:0;stroke:#000080;stroke-width:1.5;" x="214.988222" xlink:href="#m70679826a9" y="170.432596"/>
     <use style="fill-opacity:0;stroke:#000080;stroke-width:1.5;" x="260.445047" xlink:href="#m70679826a9" y="107.756953"/>
     <use style="fill-opacity:0;stroke:#000080;stroke-width:1.5;" x="289.432838" xlink:href="#m70679826a9" y="93.536429"/>
     <use style="fill-opacity:0;stroke:#000080;stroke-width:1.5;" x="338.688" xlink:href="#m70679826a9" y="93.536429"/>
    </g>
   </g>
   <g id="line2d_37">
    <path style="fill:none;stroke:#000080;stroke-linecap:square;stroke-width:1.5;"/>
    <g/>
   </g>
   <g id="line2d_38">
    <path clip-path="url(#p3d5400cd72)" d="M 218.221714 170.432596 
" style="fill:none;stroke:#000080;stroke-linecap:square;stroke-width:1.5;"/>
    <defs>
     <path d="M -12 12 
L 12 -12 
M -12 -12 
L 12 12 
" id="m230aba1ff8" style="stroke:#000080;"/>
    </defs>
    <g clip-path="url(#p3d5400cd72)">
     <use style="fill:#000080;stroke:#000080;" x="218.221714" xlink:href="#m230aba1ff8" y="170.432596"/>
    </g>
   </g>
   <g id="line2d_39">
    <defs>
     <path d="M 0 1.5 
C 0.397805 1.5 0.77937 1.341951 1.06066 1.06066 
C 1.341951 0.77937 1.5 0.397805 1.5 0 
C 1.5 -0.397805 1.341951 -0.77937 1.06066 -1.06066 
C 0.77937 -1.341951 0.397805 -1.5 0 -1.5 
C -0.397805 -1.5 -0.77937 -1.341951 -1.06066 -1.06066 
C -1.341951 -0.77937 -1.5 -0.397805 -1.5 0 
C -1.5 0.397805 -1.341951 0.77937 -1.06066 1.06066 
C -0.77937 1.341951 -0.397805 1.5 0 1.5 
z
" id="m45cc3dc61b" style="stroke:#ff00ff;"/>
    </defs>
    <g>
     <use style="fill:#ff00ff;stroke:#ff00ff;" x="293.715364" xlink:href="#m45cc3dc61b" y="51.401542"/>
     <use style="fill:#ff00ff;stroke:#ff00ff;" x="293.715364" xlink:href="#m45cc3dc61b" y="51.401542"/>
    </g>
   </g>
   <g id="line2d_40">
    <path d="M 29.53256 298.944 
L 29.53256 283.670104 
L 41.620548 283.670104 
L 41.620548 277.876557 
L 48.691568 277.876557 
L 48.691568 275.243126 
L 53.708537 275.243126 
L 53.708537 274.71644 
L 57.6 274.71644 
L 57.6 273.136382 
L 60.779557 273.136382 
L 60.779557 272.609696 
L 65.796525 272.609696 
L 65.796525 272.08301 
L 67.850577 272.08301 
L 67.850577 270.502952 
L 71.35013 270.502952 
L 71.35013 269.976266 
L 75.555822 269.976266 
L 75.555822 269.449579 
L 84.955534 269.449579 
L 84.955534 268.922893 
L 85.66744 268.922893 
L 85.66744 268.396207 
L 87.643811 268.396207 
L 87.643811 267.342835 
L 94.294587 267.342835 
L 94.294587 266.816149 
L 96.676366 266.816149 
L 96.676366 266.289463 
L 98.100772 266.289463 
L 98.100772 264.709405 
L 99.097574 264.709405 
L 99.097574 264.182719 
L 100.641881 264.182719 
L 100.641881 263.656033 
L 105.51043 263.656033 
L 105.51043 263.129347 
L 105.732589 263.129347 
L 105.732589 262.075974 
L 105.951954 262.075974 
L 105.951954 261.549288 
L 106.168594 261.549288 
L 106.168594 261.022602 
L 106.382575 261.022602 
L 106.382575 259.96923 
L 109.31223 259.96923 
L 109.31223 259.442544 
L 113.022974 259.442544 
L 113.022974 258.915858 
L 113.167699 258.915858 
L 113.167699 258.389172 
L 115.205729 258.389172 
L 115.205729 257.862486 
L 116.323218 257.862486 
L 116.323218 257.3358 
L 118.470564 257.3358 
L 118.470564 256.809114 
L 119.80089 256.809114 
L 119.80089 256.282427 
L 126.640485 256.282427 
L 126.640485 255.755741 
L 127.293718 255.755741 
L 127.293718 255.229055 
L 127.799239 255.229055 
L 127.799239 254.702369 
L 130.874681 254.702369 
L 130.874681 254.175683 
L 131.690703 254.175683 
L 131.690703 253.648997 
L 133.488207 253.648997 
L 133.488207 253.122311 
L 136.86886 253.122311 
L 136.86886 252.595625 
L 137.594091 252.595625 
L 137.594091 252.068939 
L 138.460171 252.068939 
L 138.460171 251.542253 
L 141.321401 251.542253 
L 141.321401 251.015567 
L 142.726112 251.015567 
L 142.726112 250.488881 
L 143.628567 250.488881 
L 143.628567 249.962195 
L 144.55823 249.962195 
L 144.55823 249.435508 
L 145.553708 249.435508 
L 145.598655 248.382136 
L 147.70997 248.382136 
L 147.70997 247.85545 
L 149.788308 247.85545 
L 149.788308 247.328764 
L 151.645126 247.328764 
L 151.645126 246.802078 
L 152.721966 246.802078 
L 152.721966 246.275392 
L 153.764292 246.275392 
L 153.764292 245.22202 
L 154.331136 245.22202 
L 154.331136 244.695334 
L 155.193657 244.695334 
L 155.193657 244.168648 
L 156.027868 244.168648 
L 156.027868 243.641962 
L 156.430472 243.641962 
L 156.430472 243.115275 
L 157.976006 243.115275 
L 157.976006 242.588589 
L 158.455018 242.588589 
L 158.455018 242.061903 
L 160.632719 242.061903 
L 160.632719 241.535217 
L 161.528659 241.535217 
L 161.636364 240.481845 
L 162.191157 240.481845 
L 162.191157 239.955159 
L 162.329291 239.955159 
L 162.329291 239.428473 
L 162.508946 239.428473 
L 162.508946 238.901787 
L 163.037069 238.901787 
L 163.037069 238.375101 
L 163.969529 238.375101 
L 163.969529 237.848415 
L 165.880363 237.848415 
L 165.880363 236.795043 
L 167.053592 236.795043 
L 167.053592 236.268356 
L 168.662588 236.268356 
L 168.662588 235.74167 
L 169.808266 235.74167 
L 169.808266 235.214984 
L 170.02532 235.214984 
L 170.02532 234.688298 
L 170.925369 234.688298 
L 170.925369 234.161612 
L 171.08745 234.161612 
L 171.08745 233.634926 
L 171.706056 233.634926 
L 171.806224 232.581554 
L 173.630147 232.581554 
L 173.630147 232.054868 
L 174.227062 232.054868 
L 174.227062 231.528182 
L 174.37854 231.528182 
L 174.37854 231.001496 
L 175.51293 231.001496 
L 175.51293 230.47481 
L 176.092705 230.47481 
L 176.092705 229.948123 
L 176.494247 229.948123 
L 176.494247 229.421437 
L 177.072356 229.421437 
L 177.072356 228.894751 
L 177.215769 228.894751 
L 177.303441 227.314693 
L 178.167141 227.314693 
L 178.167141 226.788007 
L 178.360262 226.788007 
L 178.415048 225.734635 
L 178.61222 225.734635 
L 178.61222 225.207949 
L 179.86424 225.207949 
L 179.86424 224.681263 
L 180.271595 224.681263 
L 180.271595 223.627891 
L 180.813259 223.627891 
L 180.813259 223.101204 
L 181.633877 223.101204 
L 181.633877 222.574518 
L 182.099476 222.574518 
L 182.099476 222.047832 
L 182.852407 222.047832 
L 182.852407 220.99446 
L 182.997592 220.99446 
L 183.039601 219.941088 
L 183.346337 219.941088 
L 183.369512 218.887716 
L 183.571627 218.887716 
L 183.571627 218.36103 
L 183.733666 218.36103 
L 183.733666 217.834344 
L 184.257467 217.834344 
L 184.257467 217.307658 
L 184.444766 217.307658 
L 184.444766 216.780971 
L 184.765993 216.780971 
L 184.856021 215.200913 
L 185.053396 215.200913 
L 185.053396 214.674227 
L 185.85256 214.674227 
L 185.85256 213.620855 
L 186.010302 213.620855 
L 186.010302 213.094169 
L 186.223529 213.094169 
L 186.3346 211.514111 
L 186.390954 211.514111 
L 186.390954 210.987425 
L 186.716811 210.987425 
L 186.774062 209.407366 
L 187.473262 209.407366 
L 187.473262 208.88068 
L 187.58476 208.88068 
L 187.58476 208.353994 
L 187.727648 208.353994 
L 187.791668 207.300622 
L 187.889244 207.300622 
L 187.962565 206.24725 
L 188.614649 206.24725 
L 188.614649 205.720564 
L 188.93551 205.720564 
L 188.93551 205.193878 
L 189.234037 205.193878 
L 189.234037 204.667192 
L 189.67694 204.667192 
L 189.67694 204.140506 
L 189.885391 204.140506 
L 189.885391 203.613819 
L 190.180414 203.613819 
L 190.180414 203.087133 
L 190.630773 203.087133 
L 190.668065 202.033761 
L 190.849989 202.033761 
L 190.955242 200.453703 
L 191.109463 200.453703 
L 191.109463 199.927017 
L 191.291765 199.927017 
L 191.365132 198.346959 
L 191.434951 198.346959 
L 191.527073 196.7669 
L 192.18661 196.7669 
L 192.18661 196.240214 
L 192.559747 196.240214 
L 192.624952 195.186842 
L 192.717036 195.186842 
L 192.726067 194.13347 
L 193.0555 194.13347 
L 193.142405 192.553412 
L 193.266852 192.553412 
L 193.266852 191.50004 
L 193.62209 191.50004 
L 193.701956 190.446667 
L 193.751687 190.446667 
L 193.751687 189.919981 
L 193.952011 189.919981 
L 193.952011 189.393295 
L 194.430702 189.393295 
L 194.430702 188.866609 
L 194.618018 188.866609 
L 194.618018 188.339923 
L 194.743128 188.339923 
L 194.743128 187.813237 
L 195.17996 187.813237 
L 195.239992 186.759865 
L 195.452353 186.759865 
L 195.475504 185.706493 
L 195.762331 185.706493 
L 195.836769 184.653121 
L 195.878265 184.653121 
L 195.878265 184.126434 
L 196.323432 184.126434 
L 196.434491 180.966318 
L 196.436924 180.966318 
L 196.436924 180.439632 
L 196.683317 180.439632 
L 196.775421 178.859574 
L 196.923912 178.859574 
L 196.965264 177.806202 
L 197.320369 177.806202 
L 197.320369 177.279515 
L 197.758829 177.279515 
L 197.758829 176.752829 
L 197.985127 176.752829 
L 197.985127 176.226143 
L 198.172226 176.226143 
L 198.26667 174.119399 
L 198.781421 174.119399 
L 198.886378 172.012655 
L 198.981249 172.012655 
L 198.981249 171.485969 
L 199.566334 171.485969 
L 199.571416 170.432596 
L 199.847676 170.432596 
L 199.847676 169.90591 
L 199.965314 169.90591 
L 199.965314 169.379224 
L 200.078216 169.379224 
L 200.078216 168.852538 
L 200.283322 168.852538 
L 200.283322 168.325852 
L 200.402913 168.325852 
L 200.402913 167.799166 
L 200.65495 167.799166 
L 200.65495 167.27248 
L 200.883612 167.27248 
L 200.883612 166.745794 
L 202.864931 166.745794 
L 202.864931 166.219108 
L 204.106162 166.219108 
L 204.106162 165.692422 
L 204.283133 165.692422 
L 204.283133 165.165736 
L 204.875644 165.165736 
L 204.875644 164.63905 
L 204.992215 164.63905 
L 204.992215 164.112363 
L 205.158986 164.112363 
L 205.182576 163.058991 
L 205.421093 163.058991 
L 205.484199 162.005619 
L 205.567265 162.005619 
L 205.567265 161.478933 
L 205.873695 161.478933 
L 205.873695 160.952247 
L 206.214457 160.952247 
L 206.226951 159.898875 
L 206.381685 159.898875 
L 206.381685 159.372189 
L 207.003183 159.372189 
L 207.003183 158.318817 
L 207.163708 158.318817 
L 207.163708 157.79213 
L 207.64556 157.79213 
L 207.64556 157.265444 
L 211.033985 157.265444 
L 211.033985 156.738758 
L 220.982091 156.738758 
L 221.029068 155.1587 
L 221.251231 155.1587 
L 221.251231 154.632014 
L 221.38295 154.632014 
L 221.38295 154.105328 
L 221.59608 154.105328 
L 221.59608 153.578642 
L 221.723518 153.578642 
L 221.723518 153.051956 
L 221.857112 153.051956 
L 221.960158 151.471897 
L 222.094472 151.471897 
L 222.094472 150.945211 
L 222.229146 150.945211 
L 222.254904 149.891839 
L 222.486402 149.891839 
L 222.59558 148.311781 
L 222.598837 148.311781 
L 222.688698 146.205037 
L 222.975466 146.205037 
L 223.040673 144.098292 
L 223.168786 144.098292 
L 223.204992 141.464862 
L 223.318893 141.464862 
L 223.367258 139.358118 
L 223.583513 139.358118 
L 223.583513 138.831432 
L 224.269734 138.831432 
L 224.269734 138.304745 
L 224.642724 138.304745 
L 224.642724 137.778059 
L 224.920472 137.778059 
L 224.93092 135.144629 
L 225.040727 135.144629 
L 225.105951 133.564571 
L 225.323865 133.564571 
L 225.323865 132.511199 
L 227.083556 132.511199 
L 227.083556 131.984513 
L 232.03625 131.984513 
L 232.03625 131.457826 
L 232.27891 131.457826 
L 232.298059 130.404454 
L 232.40695 130.404454 
L 232.40695 129.877768 
L 232.563047 129.877768 
L 232.57714 128.824396 
L 232.695871 128.824396 
L 232.695871 128.29771 
L 232.886461 128.29771 
L 232.986366 126.190966 
L 233.070823 126.190966 
L 233.177672 123.030849 
L 233.234539 123.030849 
L 233.287987 121.977477 
L 233.814074 121.977477 
L 233.814074 121.450791 
L 234.06095 121.450791 
L 234.149469 118.817361 
L 234.203119 118.817361 
L 234.203119 118.290674 
L 235.297567 118.290674 
L 235.297567 117.763988 
L 238.934404 117.763988 
L 238.969358 116.710616 
L 239.310527 116.710616 
L 239.322388 115.657244 
L 239.793385 115.657244 
L 239.816352 114.077186 
L 239.977678 114.077186 
L 240.082348 110.917069 
L 240.195894 110.917069 
L 240.195894 109.337011 
L 240.80331 109.337011 
L 240.80331 108.810325 
L 241.794622 108.810325 
L 241.794622 107.756953 
L 243.625949 107.756953 
L 243.625949 107.230267 
L 243.781367 107.230267 
L 243.864693 105.650209 
L 244.255556 105.650209 
L 244.34609 103.016778 
L 244.373984 103.016778 
L 244.462126 99.856662 
L 245.025524 99.856662 
L 245.025524 99.329976 
L 245.808379 99.329976 
L 245.808379 98.803289 
L 247.103708 98.803289 
L 247.103708 97.749917 
L 247.288401 97.749917 
L 247.362548 96.696545 
L 247.446893 96.696545 
L 247.446893 96.169859 
L 247.840857 96.169859 
L 247.927816 89.849626 
L 247.973983 89.849626 
L 248.047485 88.796254 
L 248.422147 88.796254 
L 248.422147 88.269568 
L 250.145368 88.269568 
L 250.145368 87.742882 
L 250.278837 87.742882 
L 250.281112 86.68951 
L 250.466553 86.68951 
L 250.484769 85.636137 
L 250.771196 85.636137 
L 250.871787 83.529393 
L 250.933041 83.529393 
L 250.985662 82.476021 
L 251.294487 82.476021 
L 251.294487 81.949335 
L 251.814935 81.949335 
L 251.814935 81.422649 
L 253.286355 81.422649 
L 253.366405 79.842591 
L 253.419506 79.842591 
L 253.419506 79.315904 
L 255.209775 79.315904 
L 255.239362 78.262532 
L 255.439341 78.262532 
L 255.548427 76.682474 
L 255.557613 76.682474 
L 255.595292 75.629102 
L 257.233398 75.629102 
L 257.233398 75.102416 
L 257.424372 75.102416 
L 257.458523 72.468985 
L 258.965618 72.468985 
L 258.965618 71.942299 
L 259.184172 71.942299 
L 259.184172 71.415613 
L 259.495377 71.415613 
L 259.495377 70.888927 
L 259.822391 70.888927 
L 259.822391 70.362241 
L 260.540324 70.362241 
L 260.590626 69.308869 
L 260.766383 69.308869 
L 260.86056 67.202125 
L 262.198233 67.202125 
L 262.246297 64.568694 
L 262.769239 64.568694 
L 262.769239 64.042008 
L 263.565739 64.042008 
L 263.619998 62.988636 
L 263.819058 62.988636 
L 263.819058 62.46195 
L 265.989386 62.46195 
L 265.989386 61.935264 
L 267.091184 61.935264 
L 267.091184 61.408578 
L 268.129064 61.408578 
L 268.129064 60.881892 
L 269.075649 60.881892 
L 269.105802 59.82852 
L 269.445373 59.82852 
L 269.445373 59.301833 
L 270.007251 59.301833 
L 270.007251 58.775147 
L 271.747072 58.775147 
L 271.747072 58.248461 
L 272.505009 58.248461 
L 272.524731 57.195089 
L 273.545614 57.195089 
L 273.545614 56.668403 
L 273.979542 56.668403 
L 273.979542 56.141717 
L 275.360728 56.141717 
L 275.360728 55.615031 
L 276.034937 55.615031 
L 276.034937 55.088345 
L 276.633603 55.088345 
L 276.633603 54.561659 
L 277.244632 54.561659 
L 277.244632 54.034973 
L 277.809332 54.034973 
L 277.809332 53.508287 
L 278.3885 53.508287 
L 278.3885 52.9816 
L 281.596094 52.9816 
L 281.596094 52.454914 
L 285.924331 52.454914 
L 285.924331 51.928228 
L 293.715364 51.928228 
L 293.715364 51.401542 
L 338.688 51.401542 
L 338.688 51.401542 
" style="fill:none;stroke:#ff00ff;stroke-linecap:square;stroke-width:1.5;"/>
   </g>
   <g id="line2d_41">
    <defs>
     <path d="M 0 8.485281 
L 5.091169 0 
L 0 -8.485281 
L -5.091169 0 
z
" id="m5cc7940476" style="stroke:#ff00ff;stroke-linejoin:miter;stroke-width:1.5;"/>
    </defs>
    <g>
     <use style="fill-opacity:0;stroke:#ff00ff;stroke-linejoin:miter;stroke-width:1.5;" x="75.555822" xlink:href="#m5cc7940476" y="269.976266"/>
     <use style="fill-opacity:0;stroke:#ff00ff;stroke-linejoin:miter;stroke-width:1.5;" x="156.430472" xlink:href="#m5cc7940476" y="243.115275"/>
     <use style="fill-opacity:0;stroke:#ff00ff;stroke-linejoin:miter;stroke-width:1.5;" x="207.64556" xlink:href="#m5cc7940476" y="157.265444"/>
     <use style="fill-opacity:0;stroke:#ff00ff;stroke-linejoin:miter;stroke-width:1.5;" x="262.246297" xlink:href="#m5cc7940476" y="65.09538"/>
     <use style="fill-opacity:0;stroke:#ff00ff;stroke-linejoin:miter;stroke-width:1.5;" x="293.715364" xlink:href="#m5cc7940476" y="51.401542"/>
     <use style="fill-opacity:0;stroke:#ff00ff;stroke-linejoin:miter;stroke-width:1.5;" x="338.688" xlink:href="#m5cc7940476" y="51.401542"/>
    </g>
   </g>
   <g id="line2d_42">
    <path style="fill:none;stroke:#ff00ff;stroke-linecap:square;stroke-width:1.5;"/>
    <g/>
   </g>
   <g id="line2d_43">
    <path clip-path="url(#p3d5400cd72)" d="M 218.221714 156.738758 
" style="fill:none;stroke:#ff00ff;stroke-linecap:square;stroke-width:1.5;"/>
    <defs>
     <path d="M -12 12 
L 12 -12 
M -12 -12 
L 12 12 
" id="md8312c27ac" style="stroke:#ff00ff;"/>
    </defs>
    <g clip-path="url(#p3d5400cd72)">
     <use style="fill:#ff00ff;stroke:#ff00ff;" x="218.221714" xlink:href="#md8312c27ac" y="156.738758"/>
    </g>
   </g>
   <g id="line2d_44">
    <defs>
     <path d="M 0 1.5 
C 0.397805 1.5 0.77937 1.341951 1.06066 1.06066 
C 1.341951 0.77937 1.5 0.397805 1.5 0 
C 1.5 -0.397805 1.341951 -0.77937 1.06066 -1.06066 
C 0.77937 -1.341951 0.397805 -1.5 0 -1.5 
C -0.397805 -1.5 -0.77937 -1.341951 -1.06066 -1.06066 
C -1.341951 -0.77937 -1.5 -0.397805 -1.5 0 
C -1.5 0.397805 -1.341951 0.77937 -1.06066 1.06066 
C -0.77937 1.341951 -0.397805 1.5 0 1.5 
z
" id="m0382dc2356" style="stroke:#ff7500;"/>
    </defs>
    <g>
     <use style="fill:#ff7500;stroke:#ff7500;" x="281.628608" xlink:href="#m0382dc2356" y="172.539341"/>
     <use style="fill:#ff7500;stroke:#ff7500;" x="281.628608" xlink:href="#m0382dc2356" y="172.539341"/>
    </g>
   </g>
   <g id="line2d_45">
    <path d="M 29.53256 298.944 
L 29.53256 279.456615 
L 41.620548 279.456615 
L 41.620548 275.243126 
L 48.691568 275.243126 
L 48.691568 274.189754 
L 53.708537 274.189754 
L 53.708537 273.663068 
L 57.6 273.663068 
L 57.6 272.08301 
L 65.796525 272.08301 
L 65.796525 271.556324 
L 71.35013 271.556324 
L 71.35013 271.029638 
L 72.867545 271.029638 
L 72.867545 269.976266 
L 74.263433 269.976266 
L 74.263433 269.449579 
L 80.881459 269.449579 
L 80.881459 268.922893 
L 89.972502 268.922893 
L 89.972502 268.396207 
L 92.026554 268.396207 
L 92.026554 267.869521 
L 93.422441 267.869521 
L 93.422441 267.342835 
L 95.526106 267.342835 
L 95.526106 266.816149 
L 95.918017 266.816149 
L 95.918017 265.236091 
L 96.301313 265.236091 
L 96.301313 264.182719 
L 96.676366 264.182719 
L 96.676366 263.656033 
L 97.043522 263.656033 
L 97.043522 263.129347 
L 98.43941 263.129347 
L 98.43941 262.60266 
L 98.771596 262.60266 
L 98.771596 262.075974 
L 102.060491 262.075974 
L 102.060491 261.549288 
L 104.592361 261.549288 
L 104.592361 261.022602 
L 104.826449 261.022602 
L 104.826449 260.495916 
L 105.51043 260.495916 
L 105.51043 259.96923 
L 107.414787 259.96923 
L 107.414787 259.442544 
L 107.811151 259.442544 
L 107.811151 258.915858 
L 109.131511 258.915858 
L 109.131511 257.862486 
L 113.73488 257.862486 
L 113.73488 257.3358 
L 118.786692 257.3358 
L 118.786692 256.809114 
L 120.093994 256.809114 
L 120.093994 256.282427 
L 121.400219 256.282427 
L 121.400219 255.755741 
L 125.612332 255.755741 
L 125.612332 255.229055 
L 127.611382 255.229055 
L 127.674226 254.175683 
L 128.229861 254.175683 
L 128.229861 253.648997 
L 129.06046 253.648997 
L 129.06046 253.122311 
L 130.874681 253.122311 
L 130.874681 252.595625 
L 131.389151 252.595625 
L 131.389151 251.542253 
L 131.740458 251.542253 
L 131.740458 251.015567 
L 132.133473 251.015567 
L 132.133473 250.488881 
L 132.986651 250.488881 
L 132.986651 249.962195 
L 134.192921 249.962195 
L 134.192921 249.435508 
L 138.594838 249.435508 
L 138.594838 248.908822 
L 141.885829 248.908822 
L 141.885829 248.382136 
L 142.857929 248.382136 
L 142.857929 247.85545 
L 151.724287 247.85545 
L 151.724287 247.328764 
L 153.523746 247.328764 
L 153.523746 246.802078 
L 155.55245 246.802078 
L 155.55245 246.275392 
L 163.533623 246.275392 
L 163.533623 244.695334 
L 168.82332 244.695334 
L 168.82332 244.168648 
L 169.023638 244.168648 
L 169.099626 243.115275 
L 174.196608 243.115275 
L 174.196608 242.061903 
L 175.071303 242.061903 
L 175.071303 241.535217 
L 177.908622 241.535217 
L 177.908622 241.008531 
L 179.275516 241.008531 
L 179.275516 240.481845 
L 182.442052 240.481845 
L 182.442052 239.428473 
L 183.8442 239.428473 
L 183.8442 238.901787 
L 186.595327 238.901787 
L 186.595327 238.375101 
L 187.138572 238.375101 
L 187.138572 237.848415 
L 188.096517 237.848415 
L 188.096517 237.321729 
L 189.025048 237.321729 
L 189.099313 235.74167 
L 190.197818 235.74167 
L 190.197818 235.214984 
L 190.518415 235.214984 
L 190.562763 233.634926 
L 192.216075 233.634926 
L 192.216075 233.10824 
L 192.344209 233.10824 
L 192.344209 232.581554 
L 193.23765 232.581554 
L 193.23765 232.054868 
L 194.322557 232.054868 
L 194.322557 231.528182 
L 194.937744 231.528182 
L 194.937744 229.948123 
L 195.05664 229.948123 
L 195.05664 229.421437 
L 195.629065 229.421437 
L 195.629065 228.894751 
L 196.297702 228.894751 
L 196.297702 228.368065 
L 196.462449 228.368065 
L 196.462449 227.841379 
L 196.688114 227.841379 
L 196.688114 227.314693 
L 197.037101 227.314693 
L 197.037101 226.788007 
L 197.629808 226.788007 
L 197.629808 226.261321 
L 198.577125 226.261321 
L 198.577125 225.734635 
L 199.68184 225.734635 
L 199.68184 225.207949 
L 200.5755 225.207949 
L 200.5755 224.681263 
L 200.881727 224.681263 
L 200.881727 224.154577 
L 201.335808 224.154577 
L 201.335808 223.627891 
L 201.738921 223.627891 
L 201.738921 223.101204 
L 202.008764 223.101204 
L 202.008764 222.574518 
L 202.701784 222.574518 
L 202.757747 220.99446 
L 202.949704 220.99446 
L 202.978985 219.414402 
L 203.207354 219.414402 
L 203.207354 218.887716 
L 204.142169 218.887716 
L 204.193702 217.834344 
L 204.271494 217.834344 
L 204.271494 216.780971 
L 205.363592 216.780971 
L 205.363592 216.254285 
L 205.48999 216.254285 
L 205.48999 215.200913 
L 205.6241 215.200913 
L 205.6241 214.674227 
L 206.027371 214.674227 
L 206.027371 214.147541 
L 206.221399 214.147541 
L 206.221399 213.620855 
L 206.391311 213.620855 
L 206.391311 213.094169 
L 207.655792 213.094169 
L 207.731699 211.514111 
L 207.985711 211.514111 
L 207.985711 210.987425 
L 208.352553 210.987425 
L 208.352553 209.934052 
L 208.661825 209.934052 
L 208.675698 208.88068 
L 209.053842 208.88068 
L 209.111569 207.827308 
L 210.218319 207.827308 
L 210.218319 207.300622 
L 210.515461 207.300622 
L 210.515461 206.773936 
L 210.649506 206.773936 
L 210.712926 205.720564 
L 210.801221 205.720564 
L 210.801221 205.193878 
L 211.073442 205.193878 
L 211.073442 204.667192 
L 211.251203 204.667192 
L 211.251203 203.613819 
L 211.411715 203.613819 
L 211.411715 203.087133 
L 211.718249 203.087133 
L 211.718249 202.560447 
L 211.920153 202.560447 
L 211.920153 202.033761 
L 212.416132 202.033761 
L 212.416132 201.507075 
L 212.850052 201.507075 
L 212.850052 200.980389 
L 213.126909 200.980389 
L 213.184272 199.927017 
L 213.35754 199.927017 
L 213.36261 198.873645 
L 213.790073 198.873645 
L 213.873964 197.820273 
L 214.178745 197.820273 
L 214.178745 197.293586 
L 214.363354 197.293586 
L 214.404211 196.240214 
L 214.48391 196.240214 
L 214.48391 195.713528 
L 214.775753 195.713528 
L 214.775753 194.660156 
L 214.984023 194.660156 
L 214.984023 194.13347 
L 215.096205 194.13347 
L 215.204768 192.026726 
L 215.332429 192.026726 
L 215.428896 190.973354 
L 215.781855 190.973354 
L 215.781855 190.446667 
L 216.028423 190.446667 
L 216.028423 189.919981 
L 216.667987 189.919981 
L 216.667987 189.393295 
L 216.853069 189.393295 
L 216.853069 188.866609 
L 217.044046 188.866609 
L 217.044046 187.286551 
L 217.210791 187.286551 
L 217.210791 186.759865 
L 217.32793 186.759865 
L 217.381083 185.706493 
L 217.48654 185.706493 
L 217.490178 184.653121 
L 217.63254 184.653121 
L 217.63254 184.126434 
L 217.799854 184.126434 
L 217.85622 183.073062 
L 217.968763 183.073062 
L 218.003056 182.01969 
L 229.811565 182.01969 
L 229.853147 180.439632 
L 236.996936 180.439632 
L 237.050217 178.859574 
L 242.217664 178.859574 
L 242.217664 178.332888 
L 246.059897 178.332888 
L 246.059897 177.806202 
L 252.125919 177.806202 
L 252.125919 177.279515 
L 254.342747 177.279515 
L 254.342747 176.752829 
L 256.412738 176.752829 
L 256.430257 175.699457 
L 258.262891 175.699457 
L 258.3554 174.646085 
L 261.461542 174.646085 
L 261.461542 173.592713 
L 276.90562 173.592713 
L 276.90562 173.066027 
L 281.628608 173.066027 
L 281.628608 172.539341 
L 338.688 172.539341 
L 338.688 172.539341 
" style="fill:none;stroke:#ff7500;stroke-linecap:square;stroke-width:1.5;"/>
   </g>
   <g id="line2d_46">
    <defs>
     <path d="M 0 -6 
L -1.347084 -1.854102 
L -5.706339 -1.854102 
L -2.179628 0.708204 
L -3.526712 4.854102 
L -0 2.291796 
L 3.526712 4.854102 
L 2.179628 0.708204 
L 5.706339 -1.854102 
L 1.347084 -1.854102 
z
" id="m78bb262f1f" style="stroke:#ff7500;stroke-linejoin:bevel;stroke-width:1.5;"/>
    </defs>
    <g>
     <use style="fill-opacity:0;stroke:#ff7500;stroke-linejoin:bevel;stroke-width:1.5;" x="102.060491" xlink:href="#m78bb262f1f" y="261.549288"/>
     <use style="fill-opacity:0;stroke:#ff7500;stroke-linejoin:bevel;stroke-width:1.5;" x="189.099313" xlink:href="#m78bb262f1f" y="236.268356"/>
     <use style="fill-opacity:0;stroke:#ff7500;stroke-linejoin:bevel;stroke-width:1.5;" x="237.050217" xlink:href="#m78bb262f1f" y="179.912946"/>
     <use style="fill-opacity:0;stroke:#ff7500;stroke-linejoin:bevel;stroke-width:1.5;" x="281.628608" xlink:href="#m78bb262f1f" y="173.066027"/>
     <use style="fill-opacity:0;stroke:#ff7500;stroke-linejoin:bevel;stroke-width:1.5;" x="281.628608" xlink:href="#m78bb262f1f" y="172.539341"/>
     <use style="fill-opacity:0;stroke:#ff7500;stroke-linejoin:bevel;stroke-width:1.5;" x="338.688" xlink:href="#m78bb262f1f" y="172.539341"/>
    </g>
   </g>
   <g id="line2d_47">
    <path style="fill:none;stroke:#ff7500;stroke-linecap:square;stroke-width:1.5;"/>
    <g/>
   </g>
   <g id="line2d_48">
    <path clip-path="url(#p3d5400cd72)" d="M 218.221714 182.01969 
" style="fill:none;stroke:#ff7500;stroke-linecap:square;stroke-width:1.5;"/>
    <defs>
     <path d="M -12 12 
L 12 -12 
M -12 -12 
L 12 12 
" id="md38b21b0cb" style="stroke:#ff7500;"/>
    </defs>
    <g clip-path="url(#p3d5400cd72)">
     <use style="fill:#ff7500;stroke:#ff7500;" x="218.221714" xlink:href="#md38b21b0cb" y="182.01969"/>
    </g>
   </g>
   <g id="line2d_49">
    <path d="M 338.688 172.539341 
L 369.60768 293.571802 
" style="fill:none;stroke:#ff7500;stroke-linecap:square;stroke-width:1.5;"/>
    <g>
     <use style="fill-opacity:0;stroke:#ff7500;stroke-linejoin:bevel;stroke-width:1.5;" x="338.688" xlink:href="#m78bb262f1f" y="172.539341"/>
     <use style="fill-opacity:0;stroke:#ff7500;stroke-linejoin:bevel;stroke-width:1.5;" x="369.60768" xlink:href="#m78bb262f1f" y="293.571802"/>
    </g>
   </g>
   <g id="line2d_50">
    <path d="M 338.688 93.536429 
L 369.60768 207.616634 
" style="fill:none;stroke:#000080;stroke-linecap:square;stroke-width:1.5;"/>
    <g>
     <use style="fill-opacity:0;stroke:#000080;stroke-width:1.5;" x="338.688" xlink:href="#m70679826a9" y="93.536429"/>
     <use style="fill-opacity:0;stroke:#000080;stroke-width:1.5;" x="369.60768" xlink:href="#m70679826a9" y="207.616634"/>
    </g>
   </g>
   <g id="line2d_51">
    <path d="M 338.688 51.401542 
L 369.60768 121.661465 
" style="fill:none;stroke:#ff00ff;stroke-linecap:square;stroke-width:1.5;"/>
    <g>
     <use style="fill-opacity:0;stroke:#ff00ff;stroke-linejoin:miter;stroke-width:1.5;" x="338.688" xlink:href="#m5cc7940476" y="51.401542"/>
     <use style="fill-opacity:0;stroke:#ff00ff;stroke-linejoin:miter;stroke-width:1.5;" x="369.60768" xlink:href="#m5cc7940476" y="121.661465"/>
    </g>
   </g>
   <g id="line2d_52">
    <path d="M 338.688 298.944 
L 338.688 30.334099 
" style="fill:none;stroke:#000000;stroke-linecap:square;stroke-width:1.5;"/>
   </g>
   <g id="patch_3">
    <path d="M 57.6 298.944 
L 57.6 27.648 
" style="fill:none;stroke:#000000;stroke-linecap:square;stroke-linejoin:miter;stroke-width:0.8;"/>
   </g>
   <g id="patch_4">
    <path d="M 338.688 298.944 
L 338.688 27.648 
" style="fill:none;stroke:#000000;stroke-linecap:square;stroke-linejoin:miter;stroke-width:0.8;"/>
   </g>
   <g id="patch_5">
    <path d="M 57.6 298.944 
L 338.688 298.944 
" style="fill:none;stroke:#000000;stroke-linecap:square;stroke-linejoin:miter;stroke-width:0.8;"/>
   </g>
   <g id="patch_6">
    <path d="M 57.6 27.648 
L 338.688 27.648 
" style="fill:none;stroke:#000000;stroke-linecap:square;stroke-linejoin:miter;stroke-width:0.8;"/>
   </g>
   <g id="text_13">
    <!-- PSO EDA -->
    <g transform="translate(375.22944 298.262739)scale(0.17 -0.17)">
     <defs>
      <path d="M 1259 4147 
L 1259 2394 
L 2053 2394 
Q 2494 2394 2734 2622 
Q 2975 2850 2975 3272 
Q 2975 3691 2734 3919 
Q 2494 4147 2053 4147 
L 1259 4147 
z
M 628 4666 
L 2053 4666 
Q 2838 4666 3239 4311 
Q 3641 3956 3641 3272 
Q 3641 2581 3239 2228 
Q 2838 1875 2053 1875 
L 1259 1875 
L 1259 0 
L 628 0 
L 628 4666 
z
" id="DejaVuSans-50" transform="scale(0.015625)"/>
      <path d="M 3425 4513 
L 3425 3897 
Q 3066 4069 2747 4153 
Q 2428 4238 2131 4238 
Q 1616 4238 1336 4038 
Q 1056 3838 1056 3469 
Q 1056 3159 1242 3001 
Q 1428 2844 1947 2747 
L 2328 2669 
Q 3034 2534 3370 2195 
Q 3706 1856 3706 1288 
Q 3706 609 3251 259 
Q 2797 -91 1919 -91 
Q 1588 -91 1214 -16 
Q 841 59 441 206 
L 441 856 
Q 825 641 1194 531 
Q 1563 422 1919 422 
Q 2459 422 2753 634 
Q 3047 847 3047 1241 
Q 3047 1584 2836 1778 
Q 2625 1972 2144 2069 
L 1759 2144 
Q 1053 2284 737 2584 
Q 422 2884 422 3419 
Q 422 4038 858 4394 
Q 1294 4750 2059 4750 
Q 2388 4750 2728 4690 
Q 3069 4631 3425 4513 
z
" id="DejaVuSans-53" transform="scale(0.015625)"/>
      <path d="M 2522 4238 
Q 1834 4238 1429 3725 
Q 1025 3213 1025 2328 
Q 1025 1447 1429 934 
Q 1834 422 2522 422 
Q 3209 422 3611 934 
Q 4013 1447 4013 2328 
Q 4013 3213 3611 3725 
Q 3209 4238 2522 4238 
z
M 2522 4750 
Q 3503 4750 4090 4092 
Q 4678 3434 4678 2328 
Q 4678 1225 4090 567 
Q 3503 -91 2522 -91 
Q 1538 -91 948 565 
Q 359 1222 359 2328 
Q 359 3434 948 4092 
Q 1538 4750 2522 4750 
z
" id="DejaVuSans-4f" transform="scale(0.015625)"/>
      <path d="M 628 4666 
L 3578 4666 
L 3578 4134 
L 1259 4134 
L 1259 2753 
L 3481 2753 
L 3481 2222 
L 1259 2222 
L 1259 531 
L 3634 531 
L 3634 0 
L 628 0 
L 628 4666 
z
" id="DejaVuSans-45" transform="scale(0.015625)"/>
      <path d="M 1259 4147 
L 1259 519 
L 2022 519 
Q 2988 519 3436 956 
Q 3884 1394 3884 2338 
Q 3884 3275 3436 3711 
Q 2988 4147 2022 4147 
L 1259 4147 
z
M 628 4666 
L 1925 4666 
Q 3281 4666 3915 4102 
Q 4550 3538 4550 2338 
Q 4550 1131 3912 565 
Q 3275 0 1925 0 
L 628 0 
L 628 4666 
z
" id="DejaVuSans-44" transform="scale(0.015625)"/>
      <path d="M 2188 4044 
L 1331 1722 
L 3047 1722 
L 2188 4044 
z
M 1831 4666 
L 2547 4666 
L 4325 0 
L 3669 0 
L 3244 1197 
L 1141 1197 
L 716 0 
L 50 0 
L 1831 4666 
z
" id="DejaVuSans-41" transform="scale(0.015625)"/>
     </defs>
     <use xlink:href="#DejaVuSans-50"/>
     <use x="60.302734" xlink:href="#DejaVuSans-53"/>
     <use x="123.779297" xlink:href="#DejaVuSans-4f"/>
     <use x="202.490234" xlink:href="#DejaVuSans-20"/>
     <use x="234.277344" xlink:href="#DejaVuSans-45"/>
     <use x="297.460938" xlink:href="#DejaVuSans-44"/>
     <use x="372.712891" xlink:href="#DejaVuSans-41"/>
    </g>
   </g>
   <g id="text_14">
    <!-- PSO -->
    <g transform="translate(375.22944 212.307571)scale(0.17 -0.17)">
     <use xlink:href="#DejaVuSans-50"/>
     <use x="60.302734" xlink:href="#DejaVuSans-53"/>
     <use x="123.779297" xlink:href="#DejaVuSans-4f"/>
    </g>
   </g>
   <g id="text_15">
    <!-- PSO Bound -->
    <g transform="translate(375.22944 126.352403)scale(0.17 -0.17)">
     <defs>
      <path d="M 1259 2228 
L 1259 519 
L 2272 519 
Q 2781 519 3026 730 
Q 3272 941 3272 1375 
Q 3272 1813 3026 2020 
Q 2781 2228 2272 2228 
L 1259 2228 
z
M 1259 4147 
L 1259 2741 
L 2194 2741 
Q 2656 2741 2882 2914 
Q 3109 3088 3109 3444 
Q 3109 3797 2882 3972 
Q 2656 4147 2194 4147 
L 1259 4147 
z
M 628 4666 
L 2241 4666 
Q 2963 4666 3353 4366 
Q 3744 4066 3744 3513 
Q 3744 3084 3544 2831 
Q 3344 2578 2956 2516 
Q 3422 2416 3680 2098 
Q 3938 1781 3938 1306 
Q 3938 681 3513 340 
Q 3088 0 2303 0 
L 628 0 
L 628 4666 
z
" id="DejaVuSans-42" transform="scale(0.015625)"/>
     </defs>
     <use xlink:href="#DejaVuSans-50"/>
     <use x="60.302734" xlink:href="#DejaVuSans-53"/>
     <use x="123.779297" xlink:href="#DejaVuSans-4f"/>
     <use x="202.490234" xlink:href="#DejaVuSans-20"/>
     <use x="234.277344" xlink:href="#DejaVuSans-42"/>
     <use x="302.880859" xlink:href="#DejaVuSans-6f"/>
     <use x="364.0625" xlink:href="#DejaVuSans-75"/>
     <use x="427.441406" xlink:href="#DejaVuSans-6e"/>
     <use x="490.820312" xlink:href="#DejaVuSans-64"/>
    </g>
   </g>
   <g id="text_16">
    <!-- best 2009 -->
    <g transform="translate(375.22944 40.397235)scale(0.17 -0.17)">
     <defs>
      <path d="M 3116 1747 
Q 3116 2381 2855 2742 
Q 2594 3103 2138 3103 
Q 1681 3103 1420 2742 
Q 1159 2381 1159 1747 
Q 1159 1113 1420 752 
Q 1681 391 2138 391 
Q 2594 391 2855 752 
Q 3116 1113 3116 1747 
z
M 1159 2969 
Q 1341 3281 1617 3432 
Q 1894 3584 2278 3584 
Q 2916 3584 3314 3078 
Q 3713 2572 3713 1747 
Q 3713 922 3314 415 
Q 2916 -91 2278 -91 
Q 1894 -91 1617 61 
Q 1341 213 1159 525 
L 1159 0 
L 581 0 
L 581 4863 
L 1159 4863 
L 1159 2969 
z
" id="DejaVuSans-62" transform="scale(0.015625)"/>
      <path d="M 703 97 
L 703 672 
Q 941 559 1184 500 
Q 1428 441 1663 441 
Q 2288 441 2617 861 
Q 2947 1281 2994 2138 
Q 2813 1869 2534 1725 
Q 2256 1581 1919 1581 
Q 1219 1581 811 2004 
Q 403 2428 403 3163 
Q 403 3881 828 4315 
Q 1253 4750 1959 4750 
Q 2769 4750 3195 4129 
Q 3622 3509 3622 2328 
Q 3622 1225 3098 567 
Q 2575 -91 1691 -91 
Q 1453 -91 1209 -44 
Q 966 3 703 97 
z
M 1959 2075 
Q 2384 2075 2632 2365 
Q 2881 2656 2881 3163 
Q 2881 3666 2632 3958 
Q 2384 4250 1959 4250 
Q 1534 4250 1286 3958 
Q 1038 3666 1038 3163 
Q 1038 2656 1286 2365 
Q 1534 2075 1959 2075 
z
" id="DejaVuSans-39" transform="scale(0.015625)"/>
     </defs>
     <use xlink:href="#DejaVuSans-62"/>
     <use x="63.476562" xlink:href="#DejaVuSans-65"/>
     <use x="125" xlink:href="#DejaVuSans-73"/>
     <use x="177.099609" xlink:href="#DejaVuSans-74"/>
     <use x="216.308594" xlink:href="#DejaVuSans-20"/>
     <use x="248.095703" xlink:href="#DejaVuSans-32"/>
     <use x="311.71875" xlink:href="#DejaVuSans-30"/>
     <use x="375.341797" xlink:href="#DejaVuSans-30"/>
     <use x="438.964844" xlink:href="#DejaVuSans-39"/>
    </g>
   </g>
   <g id="text_17">
    <!-- bbob f17, 5-D -->
    <g transform="translate(60.41088 38.111366)scale(0.102 -0.102)">
     <defs>
      <path d="M 525 4666 
L 3525 4666 
L 3525 4397 
L 1831 0 
L 1172 0 
L 2766 4134 
L 525 4134 
L 525 4666 
z
" id="DejaVuSans-37" transform="scale(0.015625)"/>
      <path d="M 691 4666 
L 3169 4666 
L 3169 4134 
L 1269 4134 
L 1269 2991 
Q 1406 3038 1543 3061 
Q 1681 3084 1819 3084 
Q 2600 3084 3056 2656 
Q 3513 2228 3513 1497 
Q 3513 744 3044 326 
Q 2575 -91 1722 -91 
Q 1428 -91 1123 -41 
Q 819 9 494 109 
L 494 744 
Q 775 591 1075 516 
Q 1375 441 1709 441 
Q 2250 441 2565 725 
Q 2881 1009 2881 1497 
Q 2881 1984 2565 2268 
Q 2250 2553 1709 2553 
Q 1456 2553 1204 2497 
Q 953 2441 691 2322 
L 691 4666 
z
" id="DejaVuSans-35" transform="scale(0.015625)"/>
     </defs>
     <use xlink:href="#DejaVuSans-62"/>
     <use x="63.476562" xlink:href="#DejaVuSans-62"/>
     <use x="126.953125" xlink:href="#DejaVuSans-6f"/>
     <use x="188.134766" xlink:href="#DejaVuSans-62"/>
     <use x="251.611328" xlink:href="#DejaVuSans-20"/>
     <use x="283.398438" xlink:href="#DejaVuSans-66"/>
     <use x="318.603516" xlink:href="#DejaVuSans-31"/>
     <use x="382.226562" xlink:href="#DejaVuSans-37"/>
     <use x="445.849609" xlink:href="#DejaVuSans-2c"/>
     <use x="477.636719" xlink:href="#DejaVuSans-20"/>
     <use x="509.423828" xlink:href="#DejaVuSans-35"/>
     <use x="573.046875" xlink:href="#DejaVuSans-2d"/>
     <use x="609.130859" xlink:href="#DejaVuSans-44"/>
    </g>
    <!-- 51 targets: 100..1e-08 -->
    <g transform="translate(60.41088 49.533135)scale(0.102 -0.102)">
     <defs>
      <path d="M 750 794 
L 1409 794 
L 1409 0 
L 750 0 
L 750 794 
z
M 750 3309 
L 1409 3309 
L 1409 2516 
L 750 2516 
L 750 3309 
z
" id="DejaVuSans-3a" transform="scale(0.015625)"/>
     </defs>
     <use xlink:href="#DejaVuSans-35"/>
     <use x="63.623047" xlink:href="#DejaVuSans-31"/>
     <use x="127.246094" xlink:href="#DejaVuSans-20"/>
     <use x="159.033203" xlink:href="#DejaVuSans-74"/>
     <use x="198.242188" xlink:href="#DejaVuSans-61"/>
     <use x="259.521484" xlink:href="#DejaVuSans-72"/>
     <use x="298.884766" xlink:href="#DejaVuSans-67"/>
     <use x="362.361328" xlink:href="#DejaVuSans-65"/>
     <use x="423.884766" xlink:href="#DejaVuSans-74"/>
     <use x="463.09375" xlink:href="#DejaVuSans-73"/>
     <use x="515.193359" xlink:href="#DejaVuSans-3a"/>
     <use x="548.884766" xlink:href="#DejaVuSans-20"/>
     <use x="580.671875" xlink:href="#DejaVuSans-31"/>
     <use x="644.294922" xlink:href="#DejaVuSans-30"/>
     <use x="707.917969" xlink:href="#DejaVuSans-30"/>
     <use x="771.541016" xlink:href="#DejaVuSans-2e"/>
     <use x="803.328125" xlink:href="#DejaVuSans-2e"/>
     <use x="835.115234" xlink:href="#DejaVuSans-31"/>
     <use x="898.738281" xlink:href="#DejaVuSans-65"/>
     <use x="960.261719" xlink:href="#DejaVuSans-2d"/>
     <use x="996.345703" xlink:href="#DejaVuSans-30"/>
     <use x="1059.96875" xlink:href="#DejaVuSans-38"/>
    </g>
    <!-- 15 instances -->
    <g transform="translate(60.41088 60.954904)scale(0.102 -0.102)">
     <use xlink:href="#DejaVuSans-31"/>
     <use x="63.623047" xlink:href="#DejaVuSans-35"/>
     <use x="127.246094" xlink:href="#DejaVuSans-20"/>
     <use x="159.033203" xlink:href="#DejaVuSans-69"/>
     <use x="186.816406" xlink:href="#DejaVuSans-6e"/>
     <use x="250.195312" xlink:href="#DejaVuSans-73"/>
     <use x="302.294922" xlink:href="#DejaVuSans-74"/>
     <use x="341.503906" xlink:href="#DejaVuSans-61"/>
     <use x="402.783203" xlink:href="#DejaVuSans-6e"/>
     <use x="466.162109" xlink:href="#DejaVuSans-63"/>
     <use x="521.142578" xlink:href="#DejaVuSans-65"/>
     <use x="582.666016" xlink:href="#DejaVuSans-73"/>
    </g>
   </g>
   <g id="text_18">
    <!-- v2.4 -->
    <g style="fill:#808080;" transform="translate(187.233062 294.151352)scale(0.1 -0.1)">
     <use xlink:href="#DejaVuSans-76"/>
     <use x="59.179688" xlink:href="#DejaVuSans-32"/>
     <use x="122.802734" xlink:href="#DejaVuSans-2e"/>
     <use x="154.589844" xlink:href="#DejaVuSans-34"/>
    </g>
   </g>
   <g id="text_19">
    <!-- 17 Schaffer F7, condition 10 -->
    <g transform="translate(56.836187 21.648)scale(0.2 -0.2)">
     <defs>
      <path d="M 3513 2113 
L 3513 0 
L 2938 0 
L 2938 2094 
Q 2938 2591 2744 2837 
Q 2550 3084 2163 3084 
Q 1697 3084 1428 2787 
Q 1159 2491 1159 1978 
L 1159 0 
L 581 0 
L 581 4863 
L 1159 4863 
L 1159 2956 
Q 1366 3272 1645 3428 
Q 1925 3584 2291 3584 
Q 2894 3584 3203 3211 
Q 3513 2838 3513 2113 
z
" id="DejaVuSans-68" transform="scale(0.015625)"/>
     </defs>
     <use xlink:href="#DejaVuSans-31"/>
     <use x="63.623047" xlink:href="#DejaVuSans-37"/>
     <use x="127.246094" xlink:href="#DejaVuSans-20"/>
     <use x="159.033203" xlink:href="#DejaVuSans-53"/>
     <use x="222.509766" xlink:href="#DejaVuSans-63"/>
     <use x="277.490234" xlink:href="#DejaVuSans-68"/>
     <use x="340.869141" xlink:href="#DejaVuSans-61"/>
     <use x="402.148438" xlink:href="#DejaVuSans-66"/>
     <use x="437.353516" xlink:href="#DejaVuSans-66"/>
     <use x="472.558594" xlink:href="#DejaVuSans-65"/>
     <use x="534.082031" xlink:href="#DejaVuSans-72"/>
     <use x="575.195312" xlink:href="#DejaVuSans-20"/>
     <use x="606.982422" xlink:href="#DejaVuSans-46"/>
     <use x="664.501953" xlink:href="#DejaVuSans-37"/>
     <use x="728.125" xlink:href="#DejaVuSans-2c"/>
     <use x="759.912109" xlink:href="#DejaVuSans-20"/>
     <use x="791.699219" xlink:href="#DejaVuSans-63"/>
     <use x="846.679688" xlink:href="#DejaVuSans-6f"/>
     <use x="907.861328" xlink:href="#DejaVuSans-6e"/>
     <use x="971.240234" xlink:href="#DejaVuSans-64"/>
     <use x="1034.716797" xlink:href="#DejaVuSans-69"/>
     <use x="1062.5" xlink:href="#DejaVuSans-74"/>
     <use x="1101.708984" xlink:href="#DejaVuSans-69"/>
     <use x="1129.492188" xlink:href="#DejaVuSans-6f"/>
     <use x="1190.673828" xlink:href="#DejaVuSans-6e"/>
     <use x="1254.052734" xlink:href="#DejaVuSans-20"/>
     <use x="1285.839844" xlink:href="#DejaVuSans-31"/>
     <use x="1349.462891" xlink:href="#DejaVuSans-30"/>
    </g>
   </g>
  </g>
 </g>
 <defs>
  <clipPath id="p3d5400cd72">
   <rect height="271.296" width="281.088" x="57.6" y="27.648"/>
  </clipPath>
 </defs>
</svg>
