<?xml version="1.0" encoding="utf-8" standalone="no"?>
<!DOCTYPE svg PUBLIC "-//W3C//DTD SVG 1.1//EN"
  "http://www.w3.org/Graphics/SVG/1.1/DTD/svg11.dtd">
<svg height="345.6pt" version="1.1" viewBox="0 0 460.8 345.6" width="460.8pt" xmlns="http://www.w3.org/2000/svg" xmlns:xlink="http://www.w3.org/1999/xlink">
 <metadata>
  <rdf:RDF xmlns:cc="http://creativecommons.org/ns#" xmlns:dc="http://purl.org/dc/elements/1.1/" xmlns:rdf="http://www.w3.org/1999/02/22-rdf-syntax-ns#">
   <cc:Work>
    <dc:type rdf:resource="http://purl.org/dc/dcmitype/StillImage"/>
    <dc:date>2021-04-26T18:31:38.092734</dc:date>
    <dc:format>image/svg+xml</dc:format>
    <dc:creator>
     <cc:Agent>
      <dc:title>Matplotlib v3.4.1, https://matplotlib.org/</dc:title>
     </cc:Agent>
    </dc:creator>
   </cc:Work>
  </rdf:RDF>
 </metadata>
 <defs>
  <style type="text/css">*{stroke-linecap:butt;stroke-linejoin:round;}</style>
 </defs>
 <g id="figure_1">
  <g id="patch_1">
   <path d="M 0 345.6 
L 460.8 345.6 
L 460.8 0 
L 0 0 
z
" style="fill:#ffffff;"/>
  </g>
  <g id="axes_1">
   <g id="patch_2">
    <path d="M 57.6 298.944 
L 338.688 298.944 
L 338.688 27.648 
L 57.6 27.648 
z
" style="fill:#ffffff;"/>
   </g>
   <g id="line2d_1">
    <path d="M 36.60358 298.944 
L 36.60358 293.677139 
L 60.779557 293.677139 
L 60.779557 288.410278 
L 70.538854 288.410278 
L 70.538854 277.876557 
L 70.949209 277.876557 
L 70.949209 30.334099 
L 338.688 30.334099 
" style="fill:none;stroke:#f5deb3;stroke-linecap:square;stroke-width:4;"/>
   </g>
   <g id="line2d_2">
    <defs>
     <path d="M 0 7.778175 
L 7.778175 0 
L 0 -7.778175 
L -7.778175 0 
z
" id="m72ee98da40" style="stroke:#f5deb3;stroke-linejoin:miter;stroke-width:1.5;"/>
    </defs>
    <g>
     <use style="fill:#f5deb3;stroke:#f5deb3;stroke-linejoin:miter;stroke-width:1.5;" x="70.538854" xlink:href="#m72ee98da40" y="277.876557"/>
     <use style="fill:#f5deb3;stroke:#f5deb3;stroke-linejoin:miter;stroke-width:1.5;" x="70.949209" xlink:href="#m72ee98da40" y="277.876557"/>
     <use style="fill:#f5deb3;stroke:#f5deb3;stroke-linejoin:miter;stroke-width:1.5;" x="70.949209" xlink:href="#m72ee98da40" y="277.876557"/>
     <use style="fill:#f5deb3;stroke:#f5deb3;stroke-linejoin:miter;stroke-width:1.5;" x="70.949209" xlink:href="#m72ee98da40" y="30.334099"/>
     <use style="fill:#f5deb3;stroke:#f5deb3;stroke-linejoin:miter;stroke-width:1.5;" x="70.949209" xlink:href="#m72ee98da40" y="30.334099"/>
     <use style="fill:#f5deb3;stroke:#f5deb3;stroke-linejoin:miter;stroke-width:1.5;" x="338.688" xlink:href="#m72ee98da40" y="30.334099"/>
    </g>
   </g>
   <g id="line2d_3">
    <path style="fill:none;stroke:#f5deb3;stroke-linecap:square;stroke-width:4;"/>
    <g/>
   </g>
   <g id="line2d_4">
    <path d="M 338.688 30.334099 
L 369.60768 35.706297 
" style="fill:none;stroke:#f5deb3;stroke-linecap:square;stroke-width:4;"/>
    <g>
     <use style="fill:#f5deb3;stroke:#f5deb3;stroke-linejoin:miter;stroke-width:1.5;" x="338.688" xlink:href="#m72ee98da40" y="30.334099"/>
     <use style="fill:#f5deb3;stroke:#f5deb3;stroke-linejoin:miter;stroke-width:1.5;" x="369.60768" xlink:href="#m72ee98da40" y="35.706297"/>
    </g>
   </g>
   <g id="matplotlib.axis_1">
    <g id="xtick_1">
     <g id="line2d_5">
      <path clip-path="url(#pdf7f98482e)" d="M 57.6 298.944 
L 57.6 27.648 
" style="fill:none;stroke:#b0b0b0;stroke-linecap:square;stroke-width:0.8;"/>
     </g>
     <g id="line2d_6">
      <defs>
       <path d="M 0 0 
L 0 3.5 
" id="m05006810bb" style="stroke:#000000;stroke-width:0.8;"/>
      </defs>
      <g>
       <use style="stroke:#000000;stroke-width:0.8;" x="57.6" xlink:href="#m05006810bb" y="298.944"/>
      </g>
     </g>
     <g id="text_1">
      <!-- 0 -->
      <g transform="translate(51.2375 321.140875)scale(0.2 -0.2)">
       <defs>
        <path d="M 2034 4250 
Q 1547 4250 1301 3770 
Q 1056 3291 1056 2328 
Q 1056 1369 1301 889 
Q 1547 409 2034 409 
Q 2525 409 2770 889 
Q 3016 1369 3016 2328 
Q 3016 3291 2770 3770 
Q 2525 4250 2034 4250 
z
M 2034 4750 
Q 2819 4750 3233 4129 
Q 3647 3509 3647 2328 
Q 3647 1150 3233 529 
Q 2819 -91 2034 -91 
Q 1250 -91 836 529 
Q 422 1150 422 2328 
Q 422 3509 836 4129 
Q 1250 4750 2034 4750 
z
" id="DejaVuSans-30" transform="scale(0.015625)"/>
       </defs>
       <use xlink:href="#DejaVuSans-30"/>
      </g>
     </g>
    </g>
    <g id="xtick_2">
     <g id="line2d_7">
      <path clip-path="url(#pdf7f98482e)" d="M 137.910857 298.944 
L 137.910857 27.648 
" style="fill:none;stroke:#b0b0b0;stroke-linecap:square;stroke-width:0.8;"/>
     </g>
     <g id="line2d_8">
      <g>
       <use style="stroke:#000000;stroke-width:0.8;" x="137.910857" xlink:href="#m05006810bb" y="298.944"/>
      </g>
     </g>
     <g id="text_2">
      <!-- 2 -->
      <g transform="translate(131.548357 321.140875)scale(0.2 -0.2)">
       <defs>
        <path d="M 1228 531 
L 3431 531 
L 3431 0 
L 469 0 
L 469 531 
Q 828 903 1448 1529 
Q 2069 2156 2228 2338 
Q 2531 2678 2651 2914 
Q 2772 3150 2772 3378 
Q 2772 3750 2511 3984 
Q 2250 4219 1831 4219 
Q 1534 4219 1204 4116 
Q 875 4013 500 3803 
L 500 4441 
Q 881 4594 1212 4672 
Q 1544 4750 1819 4750 
Q 2544 4750 2975 4387 
Q 3406 4025 3406 3419 
Q 3406 3131 3298 2873 
Q 3191 2616 2906 2266 
Q 2828 2175 2409 1742 
Q 1991 1309 1228 531 
z
" id="DejaVuSans-32" transform="scale(0.015625)"/>
       </defs>
       <use xlink:href="#DejaVuSans-32"/>
      </g>
     </g>
    </g>
    <g id="xtick_3">
     <g id="line2d_9">
      <path clip-path="url(#pdf7f98482e)" d="M 218.221714 298.944 
L 218.221714 27.648 
" style="fill:none;stroke:#b0b0b0;stroke-linecap:square;stroke-width:0.8;"/>
     </g>
     <g id="line2d_10">
      <g>
       <use style="stroke:#000000;stroke-width:0.8;" x="218.221714" xlink:href="#m05006810bb" y="298.944"/>
      </g>
     </g>
     <g id="text_3">
      <!-- 4 -->
      <g transform="translate(211.859214 321.140875)scale(0.2 -0.2)">
       <defs>
        <path d="M 2419 4116 
L 825 1625 
L 2419 1625 
L 2419 4116 
z
M 2253 4666 
L 3047 4666 
L 3047 1625 
L 3713 1625 
L 3713 1100 
L 3047 1100 
L 3047 0 
L 2419 0 
L 2419 1100 
L 313 1100 
L 313 1709 
L 2253 4666 
z
" id="DejaVuSans-34" transform="scale(0.015625)"/>
       </defs>
       <use xlink:href="#DejaVuSans-34"/>
      </g>
     </g>
    </g>
    <g id="xtick_4">
     <g id="line2d_11">
      <path clip-path="url(#pdf7f98482e)" d="M 298.532571 298.944 
L 298.532571 27.648 
" style="fill:none;stroke:#b0b0b0;stroke-linecap:square;stroke-width:0.8;"/>
     </g>
     <g id="line2d_12">
      <g>
       <use style="stroke:#000000;stroke-width:0.8;" x="298.532571" xlink:href="#m05006810bb" y="298.944"/>
      </g>
     </g>
     <g id="text_4">
      <!-- 6 -->
      <g transform="translate(292.170071 321.140875)scale(0.2 -0.2)">
       <defs>
        <path d="M 2113 2584 
Q 1688 2584 1439 2293 
Q 1191 2003 1191 1497 
Q 1191 994 1439 701 
Q 1688 409 2113 409 
Q 2538 409 2786 701 
Q 3034 994 3034 1497 
Q 3034 2003 2786 2293 
Q 2538 2584 2113 2584 
z
M 3366 4563 
L 3366 3988 
Q 3128 4100 2886 4159 
Q 2644 4219 2406 4219 
Q 1781 4219 1451 3797 
Q 1122 3375 1075 2522 
Q 1259 2794 1537 2939 
Q 1816 3084 2150 3084 
Q 2853 3084 3261 2657 
Q 3669 2231 3669 1497 
Q 3669 778 3244 343 
Q 2819 -91 2113 -91 
Q 1303 -91 875 529 
Q 447 1150 447 2328 
Q 447 3434 972 4092 
Q 1497 4750 2381 4750 
Q 2619 4750 2861 4703 
Q 3103 4656 3366 4563 
z
" id="DejaVuSans-36" transform="scale(0.015625)"/>
       </defs>
       <use xlink:href="#DejaVuSans-36"/>
      </g>
     </g>
    </g>
    <g id="xtick_5">
     <g id="line2d_13">
      <path clip-path="url(#pdf7f98482e)" d="M 97.755429 298.944 
L 97.755429 27.648 
" style="fill:none;stroke:#b0b0b0;stroke-linecap:square;stroke-width:0.8;"/>
     </g>
     <g id="line2d_14">
      <defs>
       <path d="M 0 0 
L 0 2 
" id="md06ed5a515" style="stroke:#000000;stroke-width:0.6;"/>
      </defs>
      <g>
       <use style="stroke:#000000;stroke-width:0.6;" x="97.755429" xlink:href="#md06ed5a515" y="298.944"/>
      </g>
     </g>
    </g>
    <g id="xtick_6">
     <g id="line2d_15">
      <path clip-path="url(#pdf7f98482e)" d="M 178.066286 298.944 
L 178.066286 27.648 
" style="fill:none;stroke:#b0b0b0;stroke-linecap:square;stroke-width:0.8;"/>
     </g>
     <g id="line2d_16">
      <g>
       <use style="stroke:#000000;stroke-width:0.6;" x="178.066286" xlink:href="#md06ed5a515" y="298.944"/>
      </g>
     </g>
    </g>
    <g id="xtick_7">
     <g id="line2d_17">
      <path clip-path="url(#pdf7f98482e)" d="M 258.377143 298.944 
L 258.377143 27.648 
" style="fill:none;stroke:#b0b0b0;stroke-linecap:square;stroke-width:0.8;"/>
     </g>
     <g id="line2d_18">
      <g>
       <use style="stroke:#000000;stroke-width:0.6;" x="258.377143" xlink:href="#md06ed5a515" y="298.944"/>
      </g>
     </g>
    </g>
    <g id="xtick_8">
     <g id="line2d_19">
      <path clip-path="url(#pdf7f98482e)" d="M 338.688 298.944 
L 338.688 27.648 
" style="fill:none;stroke:#b0b0b0;stroke-linecap:square;stroke-width:0.8;"/>
     </g>
     <g id="line2d_20">
      <g>
       <use style="stroke:#000000;stroke-width:0.6;" x="338.688" xlink:href="#md06ed5a515" y="298.944"/>
      </g>
     </g>
    </g>
    <g id="text_5">
     <!-- log10(# f-evals / dimension) -->
     <g transform="translate(77.764078 342.217594)scale(0.17 -0.17)">
      <defs>
       <path d="M 603 4863 
L 1178 4863 
L 1178 0 
L 603 0 
L 603 4863 
z
" id="DejaVuSans-6c" transform="scale(0.015625)"/>
       <path d="M 1959 3097 
Q 1497 3097 1228 2736 
Q 959 2375 959 1747 
Q 959 1119 1226 758 
Q 1494 397 1959 397 
Q 2419 397 2687 759 
Q 2956 1122 2956 1747 
Q 2956 2369 2687 2733 
Q 2419 3097 1959 3097 
z
M 1959 3584 
Q 2709 3584 3137 3096 
Q 3566 2609 3566 1747 
Q 3566 888 3137 398 
Q 2709 -91 1959 -91 
Q 1206 -91 779 398 
Q 353 888 353 1747 
Q 353 2609 779 3096 
Q 1206 3584 1959 3584 
z
" id="DejaVuSans-6f" transform="scale(0.015625)"/>
       <path d="M 2906 1791 
Q 2906 2416 2648 2759 
Q 2391 3103 1925 3103 
Q 1463 3103 1205 2759 
Q 947 2416 947 1791 
Q 947 1169 1205 825 
Q 1463 481 1925 481 
Q 2391 481 2648 825 
Q 2906 1169 2906 1791 
z
M 3481 434 
Q 3481 -459 3084 -895 
Q 2688 -1331 1869 -1331 
Q 1566 -1331 1297 -1286 
Q 1028 -1241 775 -1147 
L 775 -588 
Q 1028 -725 1275 -790 
Q 1522 -856 1778 -856 
Q 2344 -856 2625 -561 
Q 2906 -266 2906 331 
L 2906 616 
Q 2728 306 2450 153 
Q 2172 0 1784 0 
Q 1141 0 747 490 
Q 353 981 353 1791 
Q 353 2603 747 3093 
Q 1141 3584 1784 3584 
Q 2172 3584 2450 3431 
Q 2728 3278 2906 2969 
L 2906 3500 
L 3481 3500 
L 3481 434 
z
" id="DejaVuSans-67" transform="scale(0.015625)"/>
       <path d="M 794 531 
L 1825 531 
L 1825 4091 
L 703 3866 
L 703 4441 
L 1819 4666 
L 2450 4666 
L 2450 531 
L 3481 531 
L 3481 0 
L 794 0 
L 794 531 
z
" id="DejaVuSans-31" transform="scale(0.015625)"/>
       <path d="M 1984 4856 
Q 1566 4138 1362 3434 
Q 1159 2731 1159 2009 
Q 1159 1288 1364 580 
Q 1569 -128 1984 -844 
L 1484 -844 
Q 1016 -109 783 600 
Q 550 1309 550 2009 
Q 550 2706 781 3412 
Q 1013 4119 1484 4856 
L 1984 4856 
z
" id="DejaVuSans-28" transform="scale(0.015625)"/>
       <path d="M 3272 2816 
L 2363 2816 
L 2100 1772 
L 3016 1772 
L 3272 2816 
z
M 2803 4594 
L 2478 3297 
L 3391 3297 
L 3719 4594 
L 4219 4594 
L 3897 3297 
L 4872 3297 
L 4872 2816 
L 3775 2816 
L 3519 1772 
L 4513 1772 
L 4513 1294 
L 3397 1294 
L 3072 0 
L 2572 0 
L 2894 1294 
L 1978 1294 
L 1656 0 
L 1153 0 
L 1478 1294 
L 494 1294 
L 494 1772 
L 1594 1772 
L 1856 2816 
L 850 2816 
L 850 3297 
L 1978 3297 
L 2297 4594 
L 2803 4594 
z
" id="DejaVuSans-23" transform="scale(0.015625)"/>
       <path id="DejaVuSans-20" transform="scale(0.015625)"/>
       <path d="M 2375 4863 
L 2375 4384 
L 1825 4384 
Q 1516 4384 1395 4259 
Q 1275 4134 1275 3809 
L 1275 3500 
L 2222 3500 
L 2222 3053 
L 1275 3053 
L 1275 0 
L 697 0 
L 697 3053 
L 147 3053 
L 147 3500 
L 697 3500 
L 697 3744 
Q 697 4328 969 4595 
Q 1241 4863 1831 4863 
L 2375 4863 
z
" id="DejaVuSans-66" transform="scale(0.015625)"/>
       <path d="M 313 2009 
L 1997 2009 
L 1997 1497 
L 313 1497 
L 313 2009 
z
" id="DejaVuSans-2d" transform="scale(0.015625)"/>
       <path d="M 3597 1894 
L 3597 1613 
L 953 1613 
Q 991 1019 1311 708 
Q 1631 397 2203 397 
Q 2534 397 2845 478 
Q 3156 559 3463 722 
L 3463 178 
Q 3153 47 2828 -22 
Q 2503 -91 2169 -91 
Q 1331 -91 842 396 
Q 353 884 353 1716 
Q 353 2575 817 3079 
Q 1281 3584 2069 3584 
Q 2775 3584 3186 3129 
Q 3597 2675 3597 1894 
z
M 3022 2063 
Q 3016 2534 2758 2815 
Q 2500 3097 2075 3097 
Q 1594 3097 1305 2825 
Q 1016 2553 972 2059 
L 3022 2063 
z
" id="DejaVuSans-65" transform="scale(0.015625)"/>
       <path d="M 191 3500 
L 800 3500 
L 1894 563 
L 2988 3500 
L 3597 3500 
L 2284 0 
L 1503 0 
L 191 3500 
z
" id="DejaVuSans-76" transform="scale(0.015625)"/>
       <path d="M 2194 1759 
Q 1497 1759 1228 1600 
Q 959 1441 959 1056 
Q 959 750 1161 570 
Q 1363 391 1709 391 
Q 2188 391 2477 730 
Q 2766 1069 2766 1631 
L 2766 1759 
L 2194 1759 
z
M 3341 1997 
L 3341 0 
L 2766 0 
L 2766 531 
Q 2569 213 2275 61 
Q 1981 -91 1556 -91 
Q 1019 -91 701 211 
Q 384 513 384 1019 
Q 384 1609 779 1909 
Q 1175 2209 1959 2209 
L 2766 2209 
L 2766 2266 
Q 2766 2663 2505 2880 
Q 2244 3097 1772 3097 
Q 1472 3097 1187 3025 
Q 903 2953 641 2809 
L 641 3341 
Q 956 3463 1253 3523 
Q 1550 3584 1831 3584 
Q 2591 3584 2966 3190 
Q 3341 2797 3341 1997 
z
" id="DejaVuSans-61" transform="scale(0.015625)"/>
       <path d="M 2834 3397 
L 2834 2853 
Q 2591 2978 2328 3040 
Q 2066 3103 1784 3103 
Q 1356 3103 1142 2972 
Q 928 2841 928 2578 
Q 928 2378 1081 2264 
Q 1234 2150 1697 2047 
L 1894 2003 
Q 2506 1872 2764 1633 
Q 3022 1394 3022 966 
Q 3022 478 2636 193 
Q 2250 -91 1575 -91 
Q 1294 -91 989 -36 
Q 684 19 347 128 
L 347 722 
Q 666 556 975 473 
Q 1284 391 1588 391 
Q 1994 391 2212 530 
Q 2431 669 2431 922 
Q 2431 1156 2273 1281 
Q 2116 1406 1581 1522 
L 1381 1569 
Q 847 1681 609 1914 
Q 372 2147 372 2553 
Q 372 3047 722 3315 
Q 1072 3584 1716 3584 
Q 2034 3584 2315 3537 
Q 2597 3491 2834 3397 
z
" id="DejaVuSans-73" transform="scale(0.015625)"/>
       <path d="M 1625 4666 
L 2156 4666 
L 531 -594 
L 0 -594 
L 1625 4666 
z
" id="DejaVuSans-2f" transform="scale(0.015625)"/>
       <path d="M 2906 2969 
L 2906 4863 
L 3481 4863 
L 3481 0 
L 2906 0 
L 2906 525 
Q 2725 213 2448 61 
Q 2172 -91 1784 -91 
Q 1150 -91 751 415 
Q 353 922 353 1747 
Q 353 2572 751 3078 
Q 1150 3584 1784 3584 
Q 2172 3584 2448 3432 
Q 2725 3281 2906 2969 
z
M 947 1747 
Q 947 1113 1208 752 
Q 1469 391 1925 391 
Q 2381 391 2643 752 
Q 2906 1113 2906 1747 
Q 2906 2381 2643 2742 
Q 2381 3103 1925 3103 
Q 1469 3103 1208 2742 
Q 947 2381 947 1747 
z
" id="DejaVuSans-64" transform="scale(0.015625)"/>
       <path d="M 603 3500 
L 1178 3500 
L 1178 0 
L 603 0 
L 603 3500 
z
M 603 4863 
L 1178 4863 
L 1178 4134 
L 603 4134 
L 603 4863 
z
" id="DejaVuSans-69" transform="scale(0.015625)"/>
       <path d="M 3328 2828 
Q 3544 3216 3844 3400 
Q 4144 3584 4550 3584 
Q 5097 3584 5394 3201 
Q 5691 2819 5691 2113 
L 5691 0 
L 5113 0 
L 5113 2094 
Q 5113 2597 4934 2840 
Q 4756 3084 4391 3084 
Q 3944 3084 3684 2787 
Q 3425 2491 3425 1978 
L 3425 0 
L 2847 0 
L 2847 2094 
Q 2847 2600 2669 2842 
Q 2491 3084 2119 3084 
Q 1678 3084 1418 2786 
Q 1159 2488 1159 1978 
L 1159 0 
L 581 0 
L 581 3500 
L 1159 3500 
L 1159 2956 
Q 1356 3278 1631 3431 
Q 1906 3584 2284 3584 
Q 2666 3584 2933 3390 
Q 3200 3197 3328 2828 
z
" id="DejaVuSans-6d" transform="scale(0.015625)"/>
       <path d="M 3513 2113 
L 3513 0 
L 2938 0 
L 2938 2094 
Q 2938 2591 2744 2837 
Q 2550 3084 2163 3084 
Q 1697 3084 1428 2787 
Q 1159 2491 1159 1978 
L 1159 0 
L 581 0 
L 581 3500 
L 1159 3500 
L 1159 2956 
Q 1366 3272 1645 3428 
Q 1925 3584 2291 3584 
Q 2894 3584 3203 3211 
Q 3513 2838 3513 2113 
z
" id="DejaVuSans-6e" transform="scale(0.015625)"/>
       <path d="M 513 4856 
L 1013 4856 
Q 1481 4119 1714 3412 
Q 1947 2706 1947 2009 
Q 1947 1309 1714 600 
Q 1481 -109 1013 -844 
L 513 -844 
Q 928 -128 1133 580 
Q 1338 1288 1338 2009 
Q 1338 2731 1133 3434 
Q 928 4138 513 4856 
z
" id="DejaVuSans-29" transform="scale(0.015625)"/>
      </defs>
      <use xlink:href="#DejaVuSans-6c"/>
      <use x="27.783203" xlink:href="#DejaVuSans-6f"/>
      <use x="88.964844" xlink:href="#DejaVuSans-67"/>
      <use x="152.441406" xlink:href="#DejaVuSans-31"/>
      <use x="216.064453" xlink:href="#DejaVuSans-30"/>
      <use x="279.6875" xlink:href="#DejaVuSans-28"/>
      <use x="318.701172" xlink:href="#DejaVuSans-23"/>
      <use x="402.490234" xlink:href="#DejaVuSans-20"/>
      <use x="434.277344" xlink:href="#DejaVuSans-66"/>
      <use x="463.982422" xlink:href="#DejaVuSans-2d"/>
      <use x="500.066406" xlink:href="#DejaVuSans-65"/>
      <use x="561.589844" xlink:href="#DejaVuSans-76"/>
      <use x="620.769531" xlink:href="#DejaVuSans-61"/>
      <use x="682.048828" xlink:href="#DejaVuSans-6c"/>
      <use x="709.832031" xlink:href="#DejaVuSans-73"/>
      <use x="761.931641" xlink:href="#DejaVuSans-20"/>
      <use x="793.71875" xlink:href="#DejaVuSans-2f"/>
      <use x="827.410156" xlink:href="#DejaVuSans-20"/>
      <use x="859.197266" xlink:href="#DejaVuSans-64"/>
      <use x="922.673828" xlink:href="#DejaVuSans-69"/>
      <use x="950.457031" xlink:href="#DejaVuSans-6d"/>
      <use x="1047.869141" xlink:href="#DejaVuSans-65"/>
      <use x="1109.392578" xlink:href="#DejaVuSans-6e"/>
      <use x="1172.771484" xlink:href="#DejaVuSans-73"/>
      <use x="1224.871094" xlink:href="#DejaVuSans-69"/>
      <use x="1252.654297" xlink:href="#DejaVuSans-6f"/>
      <use x="1313.835938" xlink:href="#DejaVuSans-6e"/>
      <use x="1377.214844" xlink:href="#DejaVuSans-29"/>
     </g>
    </g>
   </g>
   <g id="matplotlib.axis_2">
    <g id="ytick_1">
     <g id="line2d_21">
      <path clip-path="url(#pdf7f98482e)" d="M 57.6 298.944 
L 338.688 298.944 
" style="fill:none;stroke:#b0b0b0;stroke-linecap:square;stroke-width:0.8;"/>
     </g>
     <g id="line2d_22">
      <defs>
       <path d="M 0 0 
L -3.5 0 
" id="m58e3517039" style="stroke:#000000;stroke-width:0.8;"/>
      </defs>
      <g>
       <use style="stroke:#000000;stroke-width:0.8;" x="57.6" xlink:href="#m58e3517039" y="298.944"/>
      </g>
     </g>
     <g id="text_6">
      <!-- 0.0 -->
      <g transform="translate(25.155 305.02275)scale(0.16 -0.16)">
       <defs>
        <path d="M 684 794 
L 1344 794 
L 1344 0 
L 684 0 
L 684 794 
z
" id="DejaVuSans-2e" transform="scale(0.015625)"/>
       </defs>
       <use xlink:href="#DejaVuSans-30"/>
       <use x="63.623047" xlink:href="#DejaVuSans-2e"/>
       <use x="95.410156" xlink:href="#DejaVuSans-30"/>
      </g>
     </g>
    </g>
    <g id="ytick_2">
     <g id="line2d_23">
      <path clip-path="url(#pdf7f98482e)" d="M 57.6 245.22202 
L 338.688 245.22202 
" style="fill:none;stroke:#b0b0b0;stroke-linecap:square;stroke-width:0.8;"/>
     </g>
     <g id="line2d_24">
      <g>
       <use style="stroke:#000000;stroke-width:0.8;" x="57.6" xlink:href="#m58e3517039" y="245.22202"/>
      </g>
     </g>
     <g id="text_7">
      <!-- 0.2 -->
      <g transform="translate(25.155 251.30077)scale(0.16 -0.16)">
       <use xlink:href="#DejaVuSans-30"/>
       <use x="63.623047" xlink:href="#DejaVuSans-2e"/>
       <use x="95.410156" xlink:href="#DejaVuSans-32"/>
      </g>
     </g>
    </g>
    <g id="ytick_3">
     <g id="line2d_25">
      <path clip-path="url(#pdf7f98482e)" d="M 57.6 191.50004 
L 338.688 191.50004 
" style="fill:none;stroke:#b0b0b0;stroke-linecap:square;stroke-width:0.8;"/>
     </g>
     <g id="line2d_26">
      <g>
       <use style="stroke:#000000;stroke-width:0.8;" x="57.6" xlink:href="#m58e3517039" y="191.50004"/>
      </g>
     </g>
     <g id="text_8">
      <!-- 0.4 -->
      <g transform="translate(25.155 197.57879)scale(0.16 -0.16)">
       <use xlink:href="#DejaVuSans-30"/>
       <use x="63.623047" xlink:href="#DejaVuSans-2e"/>
       <use x="95.410156" xlink:href="#DejaVuSans-34"/>
      </g>
     </g>
    </g>
    <g id="ytick_4">
     <g id="line2d_27">
      <path clip-path="url(#pdf7f98482e)" d="M 57.6 137.778059 
L 338.688 137.778059 
" style="fill:none;stroke:#b0b0b0;stroke-linecap:square;stroke-width:0.8;"/>
     </g>
     <g id="line2d_28">
      <g>
       <use style="stroke:#000000;stroke-width:0.8;" x="57.6" xlink:href="#m58e3517039" y="137.778059"/>
      </g>
     </g>
     <g id="text_9">
      <!-- 0.6 -->
      <g transform="translate(25.155 143.856809)scale(0.16 -0.16)">
       <use xlink:href="#DejaVuSans-30"/>
       <use x="63.623047" xlink:href="#DejaVuSans-2e"/>
       <use x="95.410156" xlink:href="#DejaVuSans-36"/>
      </g>
     </g>
    </g>
    <g id="ytick_5">
     <g id="line2d_29">
      <path clip-path="url(#pdf7f98482e)" d="M 57.6 84.056079 
L 338.688 84.056079 
" style="fill:none;stroke:#b0b0b0;stroke-linecap:square;stroke-width:0.8;"/>
     </g>
     <g id="line2d_30">
      <g>
       <use style="stroke:#000000;stroke-width:0.8;" x="57.6" xlink:href="#m58e3517039" y="84.056079"/>
      </g>
     </g>
     <g id="text_10">
      <!-- 0.8 -->
      <g transform="translate(25.155 90.134829)scale(0.16 -0.16)">
       <defs>
        <path d="M 2034 2216 
Q 1584 2216 1326 1975 
Q 1069 1734 1069 1313 
Q 1069 891 1326 650 
Q 1584 409 2034 409 
Q 2484 409 2743 651 
Q 3003 894 3003 1313 
Q 3003 1734 2745 1975 
Q 2488 2216 2034 2216 
z
M 1403 2484 
Q 997 2584 770 2862 
Q 544 3141 544 3541 
Q 544 4100 942 4425 
Q 1341 4750 2034 4750 
Q 2731 4750 3128 4425 
Q 3525 4100 3525 3541 
Q 3525 3141 3298 2862 
Q 3072 2584 2669 2484 
Q 3125 2378 3379 2068 
Q 3634 1759 3634 1313 
Q 3634 634 3220 271 
Q 2806 -91 2034 -91 
Q 1263 -91 848 271 
Q 434 634 434 1313 
Q 434 1759 690 2068 
Q 947 2378 1403 2484 
z
M 1172 3481 
Q 1172 3119 1398 2916 
Q 1625 2713 2034 2713 
Q 2441 2713 2670 2916 
Q 2900 3119 2900 3481 
Q 2900 3844 2670 4047 
Q 2441 4250 2034 4250 
Q 1625 4250 1398 4047 
Q 1172 3844 1172 3481 
z
" id="DejaVuSans-38" transform="scale(0.015625)"/>
       </defs>
       <use xlink:href="#DejaVuSans-30"/>
       <use x="63.623047" xlink:href="#DejaVuSans-2e"/>
       <use x="95.410156" xlink:href="#DejaVuSans-38"/>
      </g>
     </g>
    </g>
    <g id="ytick_6">
     <g id="line2d_31">
      <path clip-path="url(#pdf7f98482e)" d="M 57.6 30.334099 
L 338.688 30.334099 
" style="fill:none;stroke:#b0b0b0;stroke-linecap:square;stroke-width:0.8;"/>
     </g>
     <g id="line2d_32">
      <g>
       <use style="stroke:#000000;stroke-width:0.8;" x="57.6" xlink:href="#m58e3517039" y="30.334099"/>
      </g>
     </g>
     <g id="text_11">
      <!-- 1.0 -->
      <g transform="translate(25.155 36.412849)scale(0.16 -0.16)">
       <use xlink:href="#DejaVuSans-31"/>
       <use x="63.623047" xlink:href="#DejaVuSans-2e"/>
       <use x="95.410156" xlink:href="#DejaVuSans-30"/>
      </g>
     </g>
    </g>
    <g id="text_12">
     <!-- Fraction of function,target pairs -->
     <g transform="translate(17.619531 297.681)rotate(-90)scale(0.17 -0.17)">
      <defs>
       <path d="M 628 4666 
L 3309 4666 
L 3309 4134 
L 1259 4134 
L 1259 2759 
L 3109 2759 
L 3109 2228 
L 1259 2228 
L 1259 0 
L 628 0 
L 628 4666 
z
" id="DejaVuSans-46" transform="scale(0.015625)"/>
       <path d="M 2631 2963 
Q 2534 3019 2420 3045 
Q 2306 3072 2169 3072 
Q 1681 3072 1420 2755 
Q 1159 2438 1159 1844 
L 1159 0 
L 581 0 
L 581 3500 
L 1159 3500 
L 1159 2956 
Q 1341 3275 1631 3429 
Q 1922 3584 2338 3584 
Q 2397 3584 2469 3576 
Q 2541 3569 2628 3553 
L 2631 2963 
z
" id="DejaVuSans-72" transform="scale(0.015625)"/>
       <path d="M 3122 3366 
L 3122 2828 
Q 2878 2963 2633 3030 
Q 2388 3097 2138 3097 
Q 1578 3097 1268 2742 
Q 959 2388 959 1747 
Q 959 1106 1268 751 
Q 1578 397 2138 397 
Q 2388 397 2633 464 
Q 2878 531 3122 666 
L 3122 134 
Q 2881 22 2623 -34 
Q 2366 -91 2075 -91 
Q 1284 -91 818 406 
Q 353 903 353 1747 
Q 353 2603 823 3093 
Q 1294 3584 2113 3584 
Q 2378 3584 2631 3529 
Q 2884 3475 3122 3366 
z
" id="DejaVuSans-63" transform="scale(0.015625)"/>
       <path d="M 1172 4494 
L 1172 3500 
L 2356 3500 
L 2356 3053 
L 1172 3053 
L 1172 1153 
Q 1172 725 1289 603 
Q 1406 481 1766 481 
L 2356 481 
L 2356 0 
L 1766 0 
Q 1100 0 847 248 
Q 594 497 594 1153 
L 594 3053 
L 172 3053 
L 172 3500 
L 594 3500 
L 594 4494 
L 1172 4494 
z
" id="DejaVuSans-74" transform="scale(0.015625)"/>
       <path d="M 544 1381 
L 544 3500 
L 1119 3500 
L 1119 1403 
Q 1119 906 1312 657 
Q 1506 409 1894 409 
Q 2359 409 2629 706 
Q 2900 1003 2900 1516 
L 2900 3500 
L 3475 3500 
L 3475 0 
L 2900 0 
L 2900 538 
Q 2691 219 2414 64 
Q 2138 -91 1772 -91 
Q 1169 -91 856 284 
Q 544 659 544 1381 
z
M 1991 3584 
L 1991 3584 
z
" id="DejaVuSans-75" transform="scale(0.015625)"/>
       <path d="M 750 794 
L 1409 794 
L 1409 256 
L 897 -744 
L 494 -744 
L 750 256 
L 750 794 
z
" id="DejaVuSans-2c" transform="scale(0.015625)"/>
       <path d="M 1159 525 
L 1159 -1331 
L 581 -1331 
L 581 3500 
L 1159 3500 
L 1159 2969 
Q 1341 3281 1617 3432 
Q 1894 3584 2278 3584 
Q 2916 3584 3314 3078 
Q 3713 2572 3713 1747 
Q 3713 922 3314 415 
Q 2916 -91 2278 -91 
Q 1894 -91 1617 61 
Q 1341 213 1159 525 
z
M 3116 1747 
Q 3116 2381 2855 2742 
Q 2594 3103 2138 3103 
Q 1681 3103 1420 2742 
Q 1159 2381 1159 1747 
Q 1159 1113 1420 752 
Q 1681 391 2138 391 
Q 2594 391 2855 752 
Q 3116 1113 3116 1747 
z
" id="DejaVuSans-70" transform="scale(0.015625)"/>
      </defs>
      <use xlink:href="#DejaVuSans-46"/>
      <use x="50.269531" xlink:href="#DejaVuSans-72"/>
      <use x="91.382812" xlink:href="#DejaVuSans-61"/>
      <use x="152.662109" xlink:href="#DejaVuSans-63"/>
      <use x="207.642578" xlink:href="#DejaVuSans-74"/>
      <use x="246.851562" xlink:href="#DejaVuSans-69"/>
      <use x="274.634766" xlink:href="#DejaVuSans-6f"/>
      <use x="335.816406" xlink:href="#DejaVuSans-6e"/>
      <use x="399.195312" xlink:href="#DejaVuSans-20"/>
      <use x="430.982422" xlink:href="#DejaVuSans-6f"/>
      <use x="492.164062" xlink:href="#DejaVuSans-66"/>
      <use x="527.369141" xlink:href="#DejaVuSans-20"/>
      <use x="559.15625" xlink:href="#DejaVuSans-66"/>
      <use x="594.361328" xlink:href="#DejaVuSans-75"/>
      <use x="657.740234" xlink:href="#DejaVuSans-6e"/>
      <use x="721.119141" xlink:href="#DejaVuSans-63"/>
      <use x="776.099609" xlink:href="#DejaVuSans-74"/>
      <use x="815.308594" xlink:href="#DejaVuSans-69"/>
      <use x="843.091797" xlink:href="#DejaVuSans-6f"/>
      <use x="904.273438" xlink:href="#DejaVuSans-6e"/>
      <use x="967.652344" xlink:href="#DejaVuSans-2c"/>
      <use x="999.439453" xlink:href="#DejaVuSans-74"/>
      <use x="1038.648438" xlink:href="#DejaVuSans-61"/>
      <use x="1099.927734" xlink:href="#DejaVuSans-72"/>
      <use x="1139.291016" xlink:href="#DejaVuSans-67"/>
      <use x="1202.767578" xlink:href="#DejaVuSans-65"/>
      <use x="1264.291016" xlink:href="#DejaVuSans-74"/>
      <use x="1303.5" xlink:href="#DejaVuSans-20"/>
      <use x="1335.287109" xlink:href="#DejaVuSans-70"/>
      <use x="1398.763672" xlink:href="#DejaVuSans-61"/>
      <use x="1460.042969" xlink:href="#DejaVuSans-69"/>
      <use x="1487.826172" xlink:href="#DejaVuSans-72"/>
      <use x="1528.939453" xlink:href="#DejaVuSans-73"/>
     </g>
    </g>
   </g>
   <g id="line2d_33">
    <defs>
     <path d="M 0 1.5 
C 0.397805 1.5 0.77937 1.341951 1.06066 1.06066 
C 1.341951 0.77937 1.5 0.397805 1.5 0 
C 1.5 -0.397805 1.341951 -0.77937 1.06066 -1.06066 
C 0.77937 -1.341951 0.397805 -1.5 0 -1.5 
C -0.397805 -1.5 -0.77937 -1.341951 -1.06066 -1.06066 
C -1.341951 -0.77937 -1.5 -0.397805 -1.5 0 
C -1.5 0.397805 -1.341951 0.77937 -1.06066 1.06066 
C -0.77937 1.341951 -0.397805 1.5 0 1.5 
z
" id="mdb13f21640" style="stroke:#f5deb3;"/>
    </defs>
    <g>
     <use style="fill:#f5deb3;stroke:#f5deb3;" x="70.949209" xlink:href="#mdb13f21640" y="30.334099"/>
     <use style="fill:#f5deb3;stroke:#f5deb3;" x="70.949209" xlink:href="#mdb13f21640" y="30.334099"/>
    </g>
   </g>
   <g id="line2d_34">
    <defs>
     <path d="M 0 1.5 
C 0.397805 1.5 0.77937 1.341951 1.06066 1.06066 
C 1.341951 0.77937 1.5 0.397805 1.5 0 
C 1.5 -0.397805 1.341951 -0.77937 1.06066 -1.06066 
C 0.77937 -1.341951 0.397805 -1.5 0 -1.5 
C -0.397805 -1.5 -0.77937 -1.341951 -1.06066 -1.06066 
C -1.341951 -0.77937 -1.5 -0.397805 -1.5 0 
C -1.5 0.397805 -1.341951 0.77937 -1.06066 1.06066 
C -0.77937 1.341951 -0.397805 1.5 0 1.5 
z
" id="m83568f1f60" style="stroke:#000080;"/>
    </defs>
    <g>
     <use style="fill:#000080;stroke:#000080;" x="183.993188" xlink:href="#m83568f1f60" y="30.334099"/>
     <use style="fill:#000080;stroke:#000080;" x="183.993188" xlink:href="#m83568f1f60" y="30.334099"/>
    </g>
   </g>
   <g id="line2d_35">
    <path d="M 63.467834 298.944 
L 63.467834 298.417314 
L 73.924795 298.417314 
L 73.924795 297.890628 
L 76.16779 297.890628 
L 76.16779 297.363942 
L 81.775977 297.363942 
L 81.775977 296.837256 
L 83.830028 296.837256 
L 83.830028 296.31057 
L 86.182924 296.31057 
L 86.182924 295.783884 
L 86.683608 295.783884 
L 86.683608 295.257197 
L 87.952479 295.257197 
L 87.952479 294.730511 
L 89.558903 294.730511 
L 89.558903 293.677139 
L 89.697862 293.677139 
L 89.697862 293.150453 
L 90.242884 293.150453 
L 90.242884 292.623767 
L 91.157513 292.623767 
L 91.157513 292.097081 
L 91.782644 292.097081 
L 91.782644 291.570395 
L 95.624913 291.570395 
L 95.624913 291.043709 
L 96.206276 291.043709 
L 96.206276 289.463651 
L 96.676366 289.463651 
L 96.676366 288.936964 
L 101.992235 288.936964 
L 101.992235 288.410278 
L 103.181738 288.410278 
L 103.181738 287.883592 
L 103.747386 287.883592 
L 103.747386 287.356906 
L 104.355088 287.356906 
L 104.355088 286.303534 
L 104.474128 286.303534 
L 104.474128 285.776848 
L 106.222336 285.776848 
L 106.222336 284.723476 
L 108.054381 284.723476 
L 108.054381 284.19679 
L 108.902946 284.19679 
L 108.902946 283.670104 
L 109.040444 283.670104 
L 109.040444 283.143418 
L 110.900667 283.143418 
L 110.900667 282.616732 
L 112.242812 282.616732 
L 112.242812 282.090045 
L 113.453595 282.090045 
L 113.453595 281.563359 
L 113.769724 281.563359 
L 113.769724 281.036673 
L 114.351658 281.036673 
L 114.452366 279.983301 
L 114.914798 279.983301 
L 114.914798 279.456615 
L 116.081002 279.456615 
L 116.081002 278.929929 
L 117.087964 278.929929 
L 117.174084 277.876557 
L 117.288253 277.876557 
L 117.288253 277.349871 
L 117.68206 277.349871 
L 117.68206 276.823185 
L 118.121498 276.823185 
L 118.121498 276.296499 
L 118.864837 276.296499 
L 118.864837 275.769812 
L 119.751557 275.769812 
L 119.751557 275.243126 
L 121.059819 275.243126 
L 121.059819 274.71644 
L 121.53454 274.71644 
L 121.53454 274.189754 
L 122.148045 274.189754 
L 122.148045 273.663068 
L 122.362027 273.663068 
L 122.362027 273.136382 
L 122.844443 273.136382 
L 122.844443 272.609696 
L 123.131685 272.609696 
L 123.212892 271.556324 
L 123.770997 271.556324 
L 123.770997 271.029638 
L 125.165375 271.029638 
L 125.165375 270.502952 
L 126.082515 270.502952 
L 126.082515 269.976266 
L 126.822577 269.976266 
L 126.822577 269.449579 
L 127.373678 269.449579 
L 127.373678 268.922893 
L 128.107907 268.922893 
L 128.107907 268.396207 
L 128.426234 268.396207 
L 128.426234 267.869521 
L 129.219065 267.869521 
L 129.219065 267.342835 
L 129.602362 267.342835 
L 129.602362 266.816149 
L 129.894764 266.816149 
L 129.894764 266.289463 
L 130.783067 266.289463 
L 130.783067 265.762777 
L 131.197999 265.762777 
L 131.197999 265.236091 
L 132.612604 265.236091 
L 132.612604 264.709405 
L 132.742089 264.709405 
L 132.742089 264.182719 
L 133.589045 264.182719 
L 133.622529 263.129347 
L 133.844123 263.129347 
L 133.844123 262.60266 
L 134.797444 262.60266 
L 134.797444 262.075974 
L 135.452133 262.075974 
L 135.452133 261.549288 
L 135.829535 261.549288 
L 135.917737 259.96923 
L 136.083131 259.96923 
L 136.150782 258.915858 
L 136.237377 258.915858 
L 136.237377 258.389172 
L 136.466217 258.389172 
L 136.466217 257.862486 
L 137.893409 257.862486 
L 137.893409 257.3358 
L 138.460171 257.3358 
L 138.460171 256.809114 
L 139.461666 256.809114 
L 139.461666 255.755741 
L 139.675745 255.755741 
L 139.675745 255.229055 
L 140.149942 255.229055 
L 140.149942 254.702369 
L 140.363363 254.702369 
L 140.363363 254.175683 
L 140.633978 254.175683 
L 140.633978 253.648997 
L 141.364373 253.648997 
L 141.364373 253.122311 
L 141.683328 253.122311 
L 141.774395 252.068939 
L 142.243147 252.068939 
L 142.324576 251.015567 
L 142.599956 251.015567 
L 142.599956 250.488881 
L 142.916923 250.488881 
L 142.916923 249.962195 
L 143.445426 249.962195 
L 143.445426 249.435508 
L 143.896629 249.435508 
L 143.896629 248.382136 
L 144.209312 248.382136 
L 144.209312 247.85545 
L 144.587985 247.85545 
L 144.587985 247.328764 
L 144.952787 247.328764 
L 144.952787 246.802078 
L 145.161158 246.802078 
L 145.264418 245.748706 
L 146.052799 245.748706 
L 146.118279 244.695334 
L 146.474085 244.695334 
L 146.474085 244.168648 
L 146.749392 244.168648 
L 146.822776 243.115275 
L 147.092675 243.115275 
L 147.19026 242.061903 
L 147.282207 242.061903 
L 147.282207 241.535217 
L 147.550159 241.535217 
L 147.660186 239.955159 
L 148.473501 239.955159 
L 148.473501 239.428473 
L 148.629823 239.428473 
L 148.714503 238.375101 
L 149.127259 238.375101 
L 149.127259 237.848415 
L 149.735275 237.848415 
L 149.783895 236.795043 
L 150.193942 236.795043 
L 150.249899 235.214984 
L 150.352736 235.214984 
L 150.352736 234.688298 
L 150.611414 234.688298 
L 150.611414 234.161612 
L 151.413504 234.161612 
L 151.413504 233.634926 
L 151.846282 233.634926 
L 151.846282 233.10824 
L 152.060646 233.10824 
L 152.164923 232.054868 
L 152.241765 232.054868 
L 152.241765 231.528182 
L 152.379233 231.528182 
L 152.379233 231.001496 
L 152.545792 231.001496 
L 152.545792 230.47481 
L 152.680893 230.47481 
L 152.69584 228.894751 
L 152.840905 228.894751 
L 152.840905 228.368065 
L 153.061751 228.368065 
L 153.061751 227.841379 
L 153.22557 227.841379 
L 153.27261 226.788007 
L 153.7432 226.788007 
L 153.785358 225.734635 
L 153.987696 225.734635 
L 153.987696 225.207949 
L 154.125885 225.207949 
L 154.2117 224.154577 
L 154.314123 224.154577 
L 154.341335 223.101204 
L 154.611142 223.101204 
L 154.611142 222.574518 
L 154.727882 222.574518 
L 154.727882 222.047832 
L 155.063706 222.047832 
L 155.174226 220.467774 
L 155.580963 220.467774 
L 155.644161 219.414402 
L 155.863565 219.414402 
L 155.922644 217.834344 
L 156.163105 217.834344 
L 156.242527 216.254285 
L 156.457587 216.254285 
L 156.457587 215.727599 
L 156.800392 215.727599 
L 156.853444 214.674227 
L 156.970762 214.674227 
L 157.078583 213.094169 
L 157.249147 213.094169 
L 157.280763 211.514111 
L 157.392398 211.514111 
L 157.392398 210.987425 
L 157.525989 210.987425 
L 157.534482 209.934052 
L 157.80408 209.934052 
L 157.80408 209.407366 
L 158.086033 209.407366 
L 158.187194 208.353994 
L 158.222599 208.353994 
L 158.222599 207.827308 
L 158.395856 207.827308 
L 158.395856 207.300622 
L 159.098062 207.300622 
L 159.098062 206.773936 
L 159.273126 206.773936 
L 159.273126 206.24725 
L 159.413447 206.24725 
L 159.436301 205.193878 
L 159.700748 205.193878 
L 159.748174 203.087133 
L 159.892158 203.087133 
L 159.956318 202.033761 
L 160.37492 202.033761 
L 160.454097 200.980389 
L 160.556731 200.980389 
L 160.556731 200.453703 
L 160.748438 200.453703 
L 160.748438 199.927017 
L 161.042523 199.927017 
L 161.074895 198.873645 
L 161.208371 198.873645 
L 161.212956 197.820273 
L 161.483584 197.820273 
L 161.580351 195.713528 
L 161.638601 195.713528 
L 161.672119 194.13347 
L 161.765627 194.13347 
L 161.765627 193.606784 
L 161.891735 193.606784 
L 161.96872 192.553412 
L 162.284086 192.553412 
L 162.316387 190.973354 
L 162.447131 190.973354 
L 162.55145 189.393295 
L 163.094774 189.393295 
L 163.103002 188.339923 
L 163.372371 188.339923 
L 163.451168 187.286551 
L 163.629664 187.286551 
L 163.709295 185.706493 
L 163.77274 185.706493 
L 163.851722 184.126434 
L 163.90287 184.126434 
L 164.002763 183.073062 
L 164.162187 183.073062 
L 164.229793 180.966318 
L 164.277922 180.966318 
L 164.277922 180.439632 
L 164.594177 180.439632 
L 164.701462 178.859574 
L 164.744566 178.859574 
L 164.817412 177.279515 
L 164.982521 177.279515 
L 164.982521 176.752829 
L 165.153397 176.752829 
L 165.262757 175.699457 
L 165.295432 175.699457 
L 165.360599 174.646085 
L 165.77129 174.646085 
L 165.848767 173.592713 
L 165.885623 173.592713 
L 165.976553 172.012655 
L 166.273988 172.012655 
L 166.335605 169.90591 
L 166.456493 169.90591 
L 166.456493 169.379224 
L 166.807558 169.379224 
L 166.908703 167.799166 
L 166.956584 167.799166 
L 167.063428 166.219108 
L 167.181018 166.219108 
L 167.181018 165.692422 
L 167.3269 165.692422 
L 167.410635 164.112363 
L 167.493969 164.112363 
L 167.584861 162.532305 
L 167.749488 162.532305 
L 167.788832 161.478933 
L 167.960895 161.478933 
L 168.041647 160.425561 
L 168.077245 160.425561 
L 168.157462 158.845503 
L 168.374652 158.845503 
L 168.436863 157.79213 
L 168.507905 157.79213 
L 168.586168 156.738758 
L 168.644637 156.738758 
L 168.677533 155.685386 
L 168.870661 155.685386 
L 168.914927 154.632014 
L 169.131676 154.632014 
L 169.165119 153.051956 
L 169.312665 153.051956 
L 169.312665 152.52527 
L 169.621055 152.52527 
L 169.640856 151.471897 
L 169.847424 151.471897 
L 169.910173 148.838467 
L 169.96021 148.838467 
L 170.02532 147.258409 
L 170.114969 147.258409 
L 170.217839 145.151665 
L 170.35949 145.151665 
L 170.420426 144.098292 
L 170.548375 144.098292 
L 170.548375 143.571606 
L 170.692701 143.571606 
L 170.785611 141.991548 
L 170.85563 141.991548 
L 170.947679 140.938176 
L 170.989597 140.938176 
L 171.060106 139.358118 
L 171.213197 139.358118 
L 171.314944 137.251373 
L 171.345738 137.251373 
L 171.384153 136.198001 
L 171.505246 136.198001 
L 171.505246 135.671315 
L 171.746192 135.671315 
L 171.852358 133.564571 
L 172.002383 133.564571 
L 172.034451 131.984513 
L 172.118046 131.984513 
L 172.141332 130.404454 
L 172.281613 130.404454 
L 172.382163 128.29771 
L 172.405099 128.29771 
L 172.405099 127.771024 
L 172.546873 127.771024 
L 172.546873 127.244338 
L 172.691064 127.244338 
L 172.751483 124.610907 
L 172.912758 124.610907 
L 172.967743 123.557535 
L 173.077198 123.557535 
L 173.136296 122.504163 
L 173.276862 122.504163 
L 173.38668 120.924105 
L 173.401498 120.924105 
L 173.401498 120.397419 
L 173.519593 120.397419 
L 173.519593 119.870733 
L 173.658237 119.870733 
L 173.725471 118.290674 
L 173.774612 118.290674 
L 173.866933 116.18393 
L 173.899075 116.18393 
L 173.918996 114.603872 
L 174.057806 114.603872 
L 174.085216 113.5505 
L 174.232495 113.5505 
L 174.289977 111.443755 
L 174.369919 111.443755 
L 174.421578 109.337011 
L 174.559659 109.337011 
L 174.578839 108.283639 
L 174.725193 108.283639 
L 174.795808 106.176895 
L 174.899629 106.176895 
L 174.973708 105.123522 
L 175.074408 105.123522 
L 175.074408 104.596836 
L 175.206408 104.596836 
L 175.206408 104.07015 
L 175.331296 104.07015 
L 175.359833 102.490092 
L 175.456309 102.490092 
L 175.489698 101.43672 
L 175.577416 101.43672 
L 175.648677 99.856662 
L 175.747557 99.856662 
L 175.8538 98.276603 
L 175.862707 98.276603 
L 175.969237 96.696545 
L 176.04871 96.696545 
L 176.156059 95.116487 
L 176.198814 95.116487 
L 176.244369 94.063115 
L 176.323564 94.063115 
L 176.408155 91.429684 
L 176.446471 91.429684 
L 176.446471 90.902998 
L 176.622593 90.902998 
L 176.67839 88.796254 
L 176.781943 88.796254 
L 176.887684 87.742882 
L 176.899808 87.742882 
L 176.991861 86.68951 
L 177.112926 86.68951 
L 177.211191 84.056079 
L 177.256007 84.056079 
L 177.343477 82.476021 
L 177.409698 82.476021 
L 177.409698 81.949335 
L 177.597911 81.949335 
L 177.689925 79.842591 
L 177.713965 79.842591 
L 177.746855 78.262532 
L 177.8266 78.262532 
L 177.846921 77.20916 
L 178.017387 77.20916 
L 178.096778 75.629102 
L 178.130692 75.629102 
L 178.226858 72.468985 
L 178.368833 72.468985 
L 178.378258 71.415613 
L 178.656109 71.415613 
L 178.709976 70.362241 
L 178.824728 70.362241 
L 178.934582 67.728811 
L 179.018172 67.728811 
L 179.092322 66.148752 
L 179.189066 66.148752 
L 179.290154 62.988636 
L 179.30884 62.988636 
L 179.414082 60.881892 
L 179.456806 60.881892 
L 179.560361 58.775147 
L 179.637028 58.775147 
L 179.731597 56.668403 
L 179.764853 56.668403 
L 179.850076 55.088345 
L 179.884678 55.088345 
L 179.884678 54.561659 
L 180.013047 54.561659 
L 180.06522 53.508287 
L 180.179144 53.508287 
L 180.220807 51.401542 
L 180.312272 51.401542 
L 180.41698 49.294798 
L 180.445913 49.294798 
L 180.555873 47.71474 
L 180.56192 47.71474 
L 180.594385 46.661368 
L 180.740855 46.661368 
L 180.842286 44.027937 
L 180.863838 44.027937 
L 180.960126 40.867821 
L 180.98891 40.867821 
L 181.083045 38.761076 
L 181.10357 38.761076 
L 181.132849 37.707704 
L 181.218209 37.707704 
L 181.218209 37.181018 
L 181.358109 37.181018 
L 181.358109 36.654332 
L 181.631745 36.654332 
L 181.633167 35.60096 
L 181.929824 35.60096 
L 181.966118 34.547588 
L 182.071777 34.547588 
L 182.071777 34.020902 
L 182.772036 34.020902 
L 182.827206 32.967529 
L 183.106999 32.967529 
L 183.106999 32.440843 
L 183.456786 32.440843 
L 183.456786 31.914157 
L 183.647137 31.914157 
L 183.712232 30.860785 
L 183.993188 30.860785 
L 183.993188 30.334099 
L 338.688 30.334099 
L 338.688 30.334099 
" style="fill:none;stroke:#000080;stroke-linecap:square;stroke-width:1.5;"/>
   </g>
   <g id="line2d_36">
    <defs>
     <path d="M 0 6 
C 1.591219 6 3.117479 5.367802 4.242641 4.242641 
C 5.367802 3.117479 6 1.591219 6 0 
C 6 -1.591219 5.367802 -3.117479 4.242641 -4.242641 
C 3.117479 -5.367802 1.591219 -6 0 -6 
C -1.591219 -6 -3.117479 -5.367802 -4.242641 -4.242641 
C -5.367802 -3.117479 -6 -1.591219 -6 0 
C -6 1.591219 -5.367802 3.117479 -4.242641 4.242641 
C -3.117479 5.367802 -1.591219 6 0 6 
z
" id="m663e5844bb" style="stroke:#000080;stroke-width:1.5;"/>
    </defs>
    <g>
     <use style="fill-opacity:0;stroke:#000080;stroke-width:1.5;" x="171.763723" xlink:href="#m663e5844bb" y="134.617943"/>
     <use style="fill-opacity:0;stroke:#000080;stroke-width:1.5;" x="183.993188" xlink:href="#m663e5844bb" y="30.860785"/>
     <use style="fill-opacity:0;stroke:#000080;stroke-width:1.5;" x="183.993188" xlink:href="#m663e5844bb" y="30.334099"/>
     <use style="fill-opacity:0;stroke:#000080;stroke-width:1.5;" x="183.993188" xlink:href="#m663e5844bb" y="30.334099"/>
     <use style="fill-opacity:0;stroke:#000080;stroke-width:1.5;" x="338.688" xlink:href="#m663e5844bb" y="30.334099"/>
    </g>
   </g>
   <g id="line2d_37">
    <path style="fill:none;stroke:#000080;stroke-linecap:square;stroke-width:1.5;"/>
    <g/>
   </g>
   <g id="line2d_38">
    <defs>
     <path d="M 0 1.5 
C 0.397805 1.5 0.77937 1.341951 1.06066 1.06066 
C 1.341951 0.77937 1.5 0.397805 1.5 0 
C 1.5 -0.397805 1.341951 -0.77937 1.06066 -1.06066 
C 0.77937 -1.341951 0.397805 -1.5 0 -1.5 
C -0.397805 -1.5 -0.77937 -1.341951 -1.06066 -1.06066 
C -1.341951 -0.77937 -1.5 -0.397805 -1.5 0 
C -1.5 0.397805 -1.341951 0.77937 -1.06066 1.06066 
C -0.77937 1.341951 -0.397805 1.5 0 1.5 
z
" id="m6775defdb6" style="stroke:#ff00ff;"/>
    </defs>
    <g>
     <use style="fill:#ff00ff;stroke:#ff00ff;" x="193.848257" xlink:href="#m6775defdb6" y="30.334099"/>
     <use style="fill:#ff00ff;stroke:#ff00ff;" x="193.848257" xlink:href="#m6775defdb6" y="30.334099"/>
    </g>
   </g>
   <g id="line2d_39">
    <path d="M 71.35013 298.944 
L 71.35013 298.417314 
L 72.500389 298.417314 
L 72.500389 297.890628 
L 74.263433 297.890628 
L 74.263433 297.363942 
L 78.421149 297.363942 
L 78.421149 296.837256 
L 82.626842 296.837256 
L 82.626842 296.31057 
L 84.401859 296.31057 
L 84.401859 295.783884 
L 86.351421 295.783884 
L 86.351421 295.257197 
L 87.170317 295.257197 
L 87.170317 294.730511 
L 89.418828 294.730511 
L 89.418828 294.203825 
L 90.108217 294.203825 
L 90.108217 293.677139 
L 90.376519 293.677139 
L 90.376519 293.150453 
L 91.157513 293.150453 
L 91.157513 292.623767 
L 94.818328 292.623767 
L 94.818328 292.097081 
L 95.526106 292.097081 
L 95.526106 291.570395 
L 98.43941 291.570395 
L 98.43941 290.517023 
L 99.338119 290.517023 
L 99.338119 289.990337 
L 99.496659 289.990337 
L 99.496659 289.463651 
L 100.268435 289.463651 
L 100.268435 288.936964 
L 100.789049 288.936964 
L 100.789049 287.883592 
L 102.464508 287.883592 
L 102.464508 287.356906 
L 103.181738 287.356906 
L 103.181738 286.83022 
L 104.23523 286.83022 
L 104.23523 285.776848 
L 105.621863 285.776848 
L 105.621863 285.250162 
L 108.810674 285.250162 
L 108.810674 284.723476 
L 111.780817 284.723476 
L 111.780817 284.19679 
L 112.242812 284.19679 
L 112.242812 283.670104 
L 114.97987 283.670104 
L 114.97987 283.143418 
L 117.654224 283.143418 
L 117.654224 282.616732 
L 121.013926 282.616732 
L 121.013926 282.090045 
L 121.887753 282.090045 
L 121.887753 281.563359 
L 122.362027 281.563359 
L 122.362027 281.036673 
L 126.806101 281.036673 
L 126.806101 280.509987 
L 128.000494 280.509987 
L 128.000494 279.983301 
L 128.214663 279.983301 
L 128.214663 279.456615 
L 129.588315 279.456615 
L 129.588315 278.929929 
L 130.384893 278.929929 
L 130.384893 278.403243 
L 130.913797 278.403243 
L 130.913797 277.876557 
L 131.133813 277.876557 
L 131.133813 277.349871 
L 131.465029 277.349871 
L 131.465029 276.823185 
L 131.578231 276.823185 
L 131.578231 276.296499 
L 133.655948 276.296499 
L 133.655948 275.769812 
L 134.629858 275.769812 
L 134.629858 275.243126 
L 134.776584 275.243126 
L 134.776584 274.71644 
L 136.541835 274.71644 
L 136.541835 274.189754 
L 139.196394 274.189754 
L 139.196394 273.663068 
L 139.879441 273.663068 
L 139.879441 273.136382 
L 141.906643 273.136382 
L 141.906643 272.609696 
L 142.811906 272.609696 
L 142.811906 272.08301 
L 143.021311 272.08301 
L 143.021311 271.556324 
L 143.628567 271.556324 
L 143.628567 271.029638 
L 145.810583 271.029638 
L 145.810583 270.502952 
L 146.506074 270.502952 
L 146.506074 269.976266 
L 147.883103 269.976266 
L 147.883103 269.449579 
L 148.088619 269.449579 
L 148.088619 268.922893 
L 148.676918 268.922893 
L 148.742638 267.869521 
L 150.463462 267.869521 
L 150.463462 267.342835 
L 152.379233 267.342835 
L 152.379233 266.816149 
L 152.542024 266.816149 
L 152.542024 266.289463 
L 152.729424 266.289463 
L 152.729424 265.762777 
L 153.498795 265.762777 
L 153.509492 264.709405 
L 153.67271 264.709405 
L 153.67271 264.182719 
L 153.862384 264.182719 
L 153.862384 263.656033 
L 154.256157 263.656033 
L 154.341335 262.60266 
L 154.926208 262.60266 
L 154.926208 262.075974 
L 155.238912 262.075974 
L 155.238912 261.549288 
L 157.049508 261.549288 
L 157.049508 261.022602 
L 157.409509 261.022602 
L 157.435145 259.442544 
L 157.605092 259.442544 
L 157.605092 258.915858 
L 158.162642 258.915858 
L 158.162642 258.389172 
L 158.433528 258.389172 
L 158.433528 257.862486 
L 159.103236 257.862486 
L 159.103236 257.3358 
L 159.466728 257.3358 
L 159.570285 256.282427 
L 159.958781 256.282427 
L 160.064363 255.229055 
L 160.575759 255.229055 
L 160.575759 254.702369 
L 161.528659 254.702369 
L 161.61398 253.648997 
L 162.948077 253.648997 
L 162.948077 253.122311 
L 163.242288 253.122311 
L 163.242288 252.595625 
L 163.489428 252.595625 
L 163.489428 252.068939 
L 163.641632 252.068939 
L 163.641632 251.542253 
L 164.074879 251.542253 
L 164.074879 251.015567 
L 164.537446 251.015567 
L 164.537446 250.488881 
L 164.723964 250.488881 
L 164.723964 249.962195 
L 164.880672 249.962195 
L 164.947404 248.908822 
L 165.113126 248.908822 
L 165.113126 248.382136 
L 165.932896 248.382136 
L 165.932896 247.85545 
L 166.32706 247.85545 
L 166.32706 247.328764 
L 166.578233 247.328764 
L 166.596758 246.275392 
L 166.837465 246.275392 
L 166.837465 245.748706 
L 166.99611 245.748706 
L 167.105982 243.641962 
L 167.198914 243.641962 
L 167.211917 242.588589 
L 167.409028 242.588589 
L 167.409028 242.061903 
L 167.535487 242.061903 
L 167.535487 241.535217 
L 167.870382 241.535217 
L 167.878204 240.481845 
L 168.914927 240.481845 
L 169.020709 238.901787 
L 169.09671 238.901787 
L 169.09671 238.375101 
L 169.328503 238.375101 
L 169.328503 237.848415 
L 169.46183 237.848415 
L 169.554414 236.795043 
L 169.76902 236.795043 
L 169.820862 235.74167 
L 170.412314 235.74167 
L 170.412314 235.214984 
L 171.03533 235.214984 
L 171.03533 234.688298 
L 171.19769 234.688298 
L 171.19769 234.161612 
L 171.53317 234.161612 
L 171.53317 233.634926 
L 171.764974 233.634926 
L 171.793735 232.581554 
L 171.93311 232.581554 
L 171.93311 232.054868 
L 172.195138 232.054868 
L 172.200021 228.894751 
L 172.407511 228.894751 
L 172.500143 226.788007 
L 172.644719 226.788007 
L 172.746752 225.734635 
L 172.816408 225.734635 
L 172.816408 225.207949 
L 173.034197 225.207949 
L 173.084161 220.99446 
L 173.176739 220.99446 
L 173.221693 219.941088 
L 173.420857 219.941088 
L 173.420857 218.887716 
L 173.541081 218.887716 
L 173.640265 216.254285 
L 173.653746 216.254285 
L 173.747825 214.674227 
L 173.870261 214.674227 
L 173.926737 213.620855 
L 174.092884 213.620855 
L 174.109302 212.567483 
L 174.244441 212.567483 
L 174.332154 208.353994 
L 174.453788 208.353994 
L 174.515891 207.300622 
L 174.579904 207.300622 
L 174.68078 203.613819 
L 174.765278 203.613819 
L 174.859852 202.033761 
L 174.986197 202.033761 
L 175.078548 199.927017 
L 175.174531 199.927017 
L 175.217705 196.240214 
L 175.315989 196.240214 
L 175.417783 189.919981 
L 175.586465 189.919981 
L 175.688696 187.286551 
L 175.76249 187.286551 
L 175.76249 186.759865 
L 175.960384 186.759865 
L 176.045773 184.126434 
L 176.082938 184.126434 
L 176.181336 182.546376 
L 176.198814 182.546376 
L 176.265652 181.493004 
L 176.410073 181.493004 
L 176.496155 177.806202 
L 176.65666 177.806202 
L 176.765979 176.226143 
L 176.830682 176.226143 
L 176.916581 174.646085 
L 176.953797 174.646085 
L 176.98444 172.539341 
L 177.126734 172.539341 
L 177.181861 170.959282 
L 177.25692 170.959282 
L 177.336204 169.90591 
L 177.433223 169.90591 
L 177.483784 167.799166 
L 177.795631 167.799166 
L 177.865454 165.165736 
L 177.915659 165.165736 
L 177.971858 164.112363 
L 178.085458 164.112363 
L 178.180141 160.425561 
L 178.227722 160.425561 
L 178.331086 158.845503 
L 178.559745 158.845503 
L 178.608839 156.738758 
L 178.68138 156.738758 
L 178.751105 155.1587 
L 178.858923 155.1587 
L 178.942876 153.578642 
L 179.015695 153.578642 
L 179.121894 151.471897 
L 179.166158 151.471897 
L 179.229082 149.365153 
L 179.289341 149.365153 
L 179.392276 147.258409 
L 179.425378 147.258409 
L 179.493 145.151665 
L 179.582757 145.151665 
L 179.683979 143.571606 
L 179.701454 143.571606 
L 179.7514 142.518234 
L 179.816983 142.518234 
L 179.911369 138.831432 
L 179.995881 138.831432 
L 180.04577 136.724687 
L 180.135832 136.724687 
L 180.159821 135.671315 
L 180.301536 135.671315 
L 180.384183 133.037885 
L 180.503634 133.037885 
L 180.60268 131.984513 
L 180.659133 131.984513 
L 180.761786 130.404454 
L 180.809534 130.404454 
L 180.905381 128.29771 
L 180.921675 128.29771 
L 180.943129 125.66428 
L 181.035305 125.66428 
L 181.088178 124.084221 
L 181.148931 124.084221 
L 181.201461 123.030849 
L 181.316184 123.030849 
L 181.388406 120.924105 
L 181.47181 120.924105 
L 181.47181 120.397419 
L 181.708336 120.397419 
L 181.76838 117.763988 
L 181.894154 117.763988 
L 181.894154 117.237302 
L 182.046116 117.237302 
L 182.151983 115.657244 
L 182.231135 115.657244 
L 182.325646 112.497128 
L 182.393814 112.497128 
L 182.465104 108.810325 
L 182.582604 108.810325 
L 182.689957 106.703581 
L 182.801305 106.703581 
L 182.827206 105.123522 
L 182.92515 105.123522 
L 183.034356 100.910034 
L 183.062533 100.910034 
L 183.072351 99.856662 
L 183.176739 99.856662 
L 183.283739 96.696545 
L 183.32829 96.696545 
L 183.436931 94.589801 
L 183.459346 94.589801 
L 183.54044 92.483056 
L 183.579257 92.483056 
L 183.680031 90.376312 
L 183.693297 90.376312 
L 183.782111 89.32294 
L 183.852337 89.32294 
L 183.852337 88.796254 
L 184.020479 88.796254 
L 184.109496 86.68951 
L 184.180875 86.68951 
L 184.214004 85.636137 
L 184.354408 85.636137 
L 184.420555 84.582765 
L 184.534056 84.582765 
L 184.534056 84.056079 
L 184.653399 84.056079 
L 184.749358 81.949335 
L 185.024165 81.949335 
L 185.12393 80.895963 
L 185.168668 80.895963 
L 185.168668 80.369277 
L 185.288371 80.369277 
L 185.288371 79.842591 
L 185.673096 79.842591 
L 185.738927 77.735846 
L 185.808426 77.735846 
L 185.867061 75.102416 
L 186.160601 75.102416 
L 186.267715 74.049044 
L 186.315051 74.049044 
L 186.350332 72.995672 
L 186.434719 72.995672 
L 186.498817 70.362241 
L 186.699812 70.362241 
L 186.78623 68.782183 
L 186.891683 68.782183 
L 186.963553 67.728811 
L 187.058573 67.728811 
L 187.124054 65.09538 
L 187.274865 65.09538 
L 187.3462 61.935264 
L 187.511353 61.935264 
L 187.511353 61.408578 
L 187.862913 61.408578 
L 187.882789 59.82852 
L 187.981834 59.82852 
L 188.091119 57.721775 
L 188.095535 57.721775 
L 188.095535 57.195089 
L 188.710108 57.195089 
L 188.736611 56.141717 
L 188.82435 56.141717 
L 188.82435 55.615031 
L 188.949064 55.615031 
L 189.013881 53.508287 
L 189.10487 53.508287 
L 189.209661 50.874856 
L 189.29689 50.874856 
L 189.354953 48.768112 
L 189.462339 48.768112 
L 189.567264 47.188054 
L 189.632973 47.188054 
L 189.710067 45.607995 
L 189.99177 45.607995 
L 189.99177 45.081309 
L 190.155146 45.081309 
L 190.155146 44.554623 
L 190.403609 44.554623 
L 190.472669 43.501251 
L 190.559782 43.501251 
L 190.624408 42.447879 
L 190.779887 42.447879 
L 190.878453 40.341135 
L 190.936076 40.341135 
L 191.028376 39.287762 
L 191.058207 39.287762 
L 191.152335 35.074274 
L 191.181544 35.074274 
L 191.25824 33.494215 
L 191.626726 33.494215 
L 191.626726 32.967529 
L 191.755668 32.967529 
L 191.755668 32.440843 
L 192.853136 32.440843 
L 192.853136 31.914157 
L 193.010033 31.914157 
L 193.061405 30.860785 
L 193.848257 30.860785 
L 193.848257 30.334099 
L 338.688 30.334099 
L 338.688 30.334099 
" style="fill:none;stroke:#ff00ff;stroke-linecap:square;stroke-width:1.5;"/>
   </g>
   <g id="line2d_40">
    <defs>
     <path d="M 0 8.485281 
L 5.091169 0 
L 0 -8.485281 
L -5.091169 0 
z
" id="ma9d291546a" style="stroke:#ff00ff;stroke-linejoin:miter;stroke-width:1.5;"/>
    </defs>
    <g>
     <use style="fill-opacity:0;stroke:#ff00ff;stroke-linejoin:miter;stroke-width:1.5;" x="122.362027" xlink:href="#ma9d291546a" y="281.036673"/>
     <use style="fill-opacity:0;stroke:#ff00ff;stroke-linejoin:miter;stroke-width:1.5;" x="181.894154" xlink:href="#ma9d291546a" y="117.763988"/>
     <use style="fill-opacity:0;stroke:#ff00ff;stroke-linejoin:miter;stroke-width:1.5;" x="193.848257" xlink:href="#ma9d291546a" y="30.860785"/>
     <use style="fill-opacity:0;stroke:#ff00ff;stroke-linejoin:miter;stroke-width:1.5;" x="193.848257" xlink:href="#ma9d291546a" y="30.334099"/>
     <use style="fill-opacity:0;stroke:#ff00ff;stroke-linejoin:miter;stroke-width:1.5;" x="338.688" xlink:href="#ma9d291546a" y="30.334099"/>
    </g>
   </g>
   <g id="line2d_41">
    <path style="fill:none;stroke:#ff00ff;stroke-linecap:square;stroke-width:1.5;"/>
    <g/>
   </g>
   <g id="line2d_42">
    <path clip-path="url(#pdf7f98482e)" d="M 194.045737 30.334099 
" style="fill:none;stroke:#ff00ff;stroke-linecap:square;stroke-width:1.5;"/>
    <defs>
     <path d="M -12 12 
L 12 -12 
M -12 -12 
L 12 12 
" id="mf11b9d872e" style="stroke:#ff00ff;"/>
    </defs>
    <g clip-path="url(#pdf7f98482e)">
     <use style="fill:#ff00ff;stroke:#ff00ff;" x="194.045737" xlink:href="#mf11b9d872e" y="30.334099"/>
    </g>
   </g>
   <g id="line2d_43">
    <defs>
     <path d="M 0 1.5 
C 0.397805 1.5 0.77937 1.341951 1.06066 1.06066 
C 1.341951 0.77937 1.5 0.397805 1.5 0 
C 1.5 -0.397805 1.341951 -0.77937 1.06066 -1.06066 
C 0.77937 -1.341951 0.397805 -1.5 0 -1.5 
C -0.397805 -1.5 -0.77937 -1.341951 -1.06066 -1.06066 
C -1.341951 -0.77937 -1.5 -0.397805 -1.5 0 
C -1.5 0.397805 -1.341951 0.77937 -1.06066 1.06066 
C -0.77937 1.341951 -0.397805 1.5 0 1.5 
z
" id="m7a928e6e08" style="stroke:#ff7500;"/>
    </defs>
    <g>
     <use style="fill:#ff7500;stroke:#ff7500;" x="234.177956" xlink:href="#m7a928e6e08" y="219.941088"/>
     <use style="fill:#ff7500;stroke:#ff7500;" x="234.177956" xlink:href="#m7a928e6e08" y="219.941088"/>
    </g>
   </g>
   <g id="line2d_44">
    <path d="M 55.762588 298.944 
L 55.762588 298.417314 
L 63.467834 298.417314 
L 63.467834 297.890628 
L 71.74204 297.890628 
L 71.74204 297.363942 
L 79.447285 297.363942 
L 79.447285 296.837256 
L 80.650472 296.837256 
L 80.650472 296.31057 
L 84.588378 296.31057 
L 84.588378 295.783884 
L 89.135256 295.783884 
L 89.135256 295.257197 
L 89.835723 295.257197 
L 89.835723 294.730511 
L 90.640756 294.730511 
L 90.640756 294.203825 
L 92.969447 294.203825 
L 92.969447 293.677139 
L 93.644601 293.677139 
L 93.644601 293.150453 
L 96.489848 293.150453 
L 96.489848 292.623767 
L 102.12848 292.623767 
L 102.12848 292.097081 
L 103.870632 292.097081 
L 103.870632 291.570395 
L 105.114708 291.570395 
L 105.114708 291.043709 
L 105.398279 291.043709 
L 105.454445 289.990337 
L 112.803609 289.990337 
L 112.803609 289.463651 
L 122.233953 289.463651 
L 122.233953 288.936964 
L 128.987887 288.936964 
L 128.987887 288.410278 
L 130.7305 288.410278 
L 130.7305 287.883592 
L 131.99937 287.883592 
L 131.99937 287.356906 
L 133.589045 287.356906 
L 133.589045 286.83022 
L 135.209496 286.83022 
L 135.209496 286.303534 
L 136.246972 286.303534 
L 136.246972 285.776848 
L 147.665171 285.776848 
L 147.665171 285.250162 
L 149.016912 285.250162 
L 149.016912 284.723476 
L 149.60644 284.723476 
L 149.60644 284.19679 
L 150.484675 284.19679 
L 150.484675 283.670104 
L 152.367819 283.670104 
L 152.367819 283.143418 
L 154.180855 283.143418 
L 154.280049 281.563359 
L 157.182854 281.563359 
L 157.182854 281.036673 
L 158.724078 281.036673 
L 158.724078 280.509987 
L 160.225184 280.509987 
L 160.225184 279.983301 
L 163.589711 279.983301 
L 163.589711 279.456615 
L 164.33167 279.456615 
L 164.33167 278.929929 
L 164.601728 278.929929 
L 164.601728 278.403243 
L 165.46508 278.403243 
L 165.46508 277.876557 
L 167.249248 277.876557 
L 167.249248 277.349871 
L 168.516953 277.349871 
L 168.516953 276.823185 
L 169.205746 276.823185 
L 169.205746 276.296499 
L 170.871444 276.296499 
L 170.871444 275.769812 
L 171.460731 275.769812 
L 171.460731 275.243126 
L 171.718608 275.243126 
L 171.718608 274.71644 
L 171.999913 274.71644 
L 171.999913 274.189754 
L 172.138882 274.189754 
L 172.186589 273.136382 
L 174.587357 273.136382 
L 174.587357 272.609696 
L 174.746302 272.609696 
L 174.746302 272.08301 
L 175.389341 272.08301 
L 175.389341 271.556324 
L 175.624621 271.556324 
L 175.624621 271.029638 
L 175.901251 271.029638 
L 175.901251 270.502952 
L 176.633956 270.502952 
L 176.633956 269.976266 
L 178.049711 269.976266 
L 178.049711 269.449579 
L 178.637554 269.449579 
L 178.637554 268.922893 
L 178.909676 268.922893 
L 178.909676 268.396207 
L 179.576361 268.396207 
L 179.576361 267.869521 
L 180.45656 267.869521 
L 180.45656 267.342835 
L 180.591367 267.342835 
L 180.591367 266.816149 
L 180.713907 266.816149 
L 180.713907 266.289463 
L 181.251655 266.289463 
L 181.251655 265.762777 
L 181.381197 265.762777 
L 181.470375 264.182719 
L 181.628902 264.182719 
L 181.628902 263.656033 
L 181.871736 263.656033 
L 181.871736 263.129347 
L 182.258583 263.129347 
L 182.36726 262.075974 
L 183.55063 262.075974 
L 183.55063 261.549288 
L 184.346502 261.549288 
L 184.346502 261.022602 
L 184.470755 261.022602 
L 184.470755 260.495916 
L 184.658777 260.495916 
L 184.658777 259.96923 
L 184.887303 259.96923 
L 184.988438 258.915858 
L 185.014801 258.915858 
L 185.034694 257.862486 
L 186.407176 257.862486 
L 186.457908 256.809114 
L 186.662567 256.809114 
L 186.662567 256.282427 
L 186.848525 256.282427 
L 186.848525 255.755741 
L 187.082507 255.755741 
L 187.082507 255.229055 
L 187.504249 255.229055 
L 187.537714 254.175683 
L 187.740171 254.175683 
L 187.740171 253.648997 
L 187.953169 253.648997 
L 187.953169 253.122311 
L 188.19387 253.122311 
L 188.19387 252.595625 
L 188.351223 252.595625 
L 188.453899 251.542253 
L 188.590821 251.542253 
L 188.590821 251.015567 
L 188.722418 251.015567 
L 188.774874 249.962195 
L 189.140949 249.962195 
L 189.140949 249.435508 
L 189.371377 249.435508 
L 189.464607 247.85545 
L 190.008484 247.85545 
L 190.08569 246.802078 
L 190.247759 246.802078 
L 190.247759 246.275392 
L 190.525672 246.275392 
L 190.525672 245.748706 
L 191.168797 245.748706 
L 191.213986 244.168648 
L 191.388707 244.168648 
L 191.388707 243.641962 
L 191.677139 243.641962 
L 191.677139 243.115275 
L 191.833054 243.115275 
L 191.833054 242.588589 
L 191.962451 242.588589 
L 191.962451 242.061903 
L 192.245877 242.061903 
L 192.245877 241.535217 
L 192.412138 241.535217 
L 192.472554 240.481845 
L 192.718918 240.481845 
L 192.812006 239.428473 
L 192.919116 239.428473 
L 192.919116 238.901787 
L 193.058822 238.901787 
L 193.13763 237.848415 
L 193.585601 237.848415 
L 193.641377 236.268356 
L 193.696975 236.268356 
L 193.798093 235.214984 
L 193.812239 235.214984 
L 193.910935 232.581554 
L 193.964981 232.581554 
L 193.970587 231.528182 
L 205.364867 231.528182 
L 205.364867 231.001496 
L 205.855099 231.001496 
L 205.921423 228.368065 
L 206.022984 228.368065 
L 206.093394 226.261321 
L 213.01949 226.261321 
L 213.122588 225.207949 
L 217.841522 225.207949 
L 217.841522 224.681263 
L 218.160132 224.681263 
L 218.160132 224.154577 
L 222.00226 224.154577 
L 222.097056 222.047832 
L 225.216883 222.047832 
L 225.216883 221.521146 
L 227.961818 221.521146 
L 227.961818 220.99446 
L 232.3548 220.99446 
L 232.3548 220.467774 
L 234.177956 220.467774 
L 234.177956 219.941088 
L 338.688 219.941088 
L 338.688 219.941088 
" style="fill:none;stroke:#ff7500;stroke-linecap:square;stroke-width:1.5;"/>
   </g>
   <g id="line2d_45">
    <defs>
     <path d="M 0 -6 
L -1.347084 -1.854102 
L -5.706339 -1.854102 
L -2.179628 0.708204 
L -3.526712 4.854102 
L -0 2.291796 
L 3.526712 4.854102 
L 2.179628 0.708204 
L 5.706339 -1.854102 
L 1.347084 -1.854102 
z
" id="me6e65ea951" style="stroke:#ff7500;stroke-linejoin:bevel;stroke-width:1.5;"/>
    </defs>
    <g>
     <use style="fill-opacity:0;stroke:#ff7500;stroke-linejoin:bevel;stroke-width:1.5;" x="112.803609" xlink:href="#me6e65ea951" y="289.990337"/>
     <use style="fill-opacity:0;stroke:#ff7500;stroke-linejoin:bevel;stroke-width:1.5;" x="171.460731" xlink:href="#me6e65ea951" y="275.243126"/>
     <use style="fill-opacity:0;stroke:#ff7500;stroke-linejoin:bevel;stroke-width:1.5;" x="206.093394" xlink:href="#me6e65ea951" y="226.788007"/>
     <use style="fill-opacity:0;stroke:#ff7500;stroke-linejoin:bevel;stroke-width:1.5;" x="234.177956" xlink:href="#me6e65ea951" y="220.467774"/>
     <use style="fill-opacity:0;stroke:#ff7500;stroke-linejoin:bevel;stroke-width:1.5;" x="234.177956" xlink:href="#me6e65ea951" y="219.941088"/>
     <use style="fill-opacity:0;stroke:#ff7500;stroke-linejoin:bevel;stroke-width:1.5;" x="338.688" xlink:href="#me6e65ea951" y="219.941088"/>
    </g>
   </g>
   <g id="line2d_46">
    <path style="fill:none;stroke:#ff7500;stroke-linecap:square;stroke-width:1.5;"/>
    <g/>
   </g>
   <g id="line2d_47">
    <path clip-path="url(#pdf7f98482e)" d="M 194.045737 231.528182 
" style="fill:none;stroke:#ff7500;stroke-linecap:square;stroke-width:1.5;"/>
    <defs>
     <path d="M -12 12 
L 12 -12 
M -12 -12 
L 12 12 
" id="m25a71e3b6a" style="stroke:#ff7500;"/>
    </defs>
    <g clip-path="url(#pdf7f98482e)">
     <use style="fill:#ff7500;stroke:#ff7500;" x="194.045737" xlink:href="#m25a71e3b6a" y="231.528182"/>
    </g>
   </g>
   <g id="line2d_48">
    <path d="M 338.688 219.941088 
L 369.60768 293.571802 
" style="fill:none;stroke:#ff7500;stroke-linecap:square;stroke-width:1.5;"/>
    <g>
     <use style="fill-opacity:0;stroke:#ff7500;stroke-linejoin:bevel;stroke-width:1.5;" x="338.688" xlink:href="#me6e65ea951" y="219.941088"/>
     <use style="fill-opacity:0;stroke:#ff7500;stroke-linejoin:bevel;stroke-width:1.5;" x="369.60768" xlink:href="#me6e65ea951" y="293.571802"/>
    </g>
   </g>
   <g id="line2d_49">
    <path d="M 338.688 30.334099 
L 369.60768 207.616634 
" style="fill:none;stroke:#ff00ff;stroke-linecap:square;stroke-width:1.5;"/>
    <g>
     <use style="fill-opacity:0;stroke:#ff00ff;stroke-linejoin:miter;stroke-width:1.5;" x="338.688" xlink:href="#ma9d291546a" y="30.334099"/>
     <use style="fill-opacity:0;stroke:#ff00ff;stroke-linejoin:miter;stroke-width:1.5;" x="369.60768" xlink:href="#ma9d291546a" y="207.616634"/>
    </g>
   </g>
   <g id="line2d_50">
    <path d="M 338.688 30.334099 
L 369.60768 121.661465 
" style="fill:none;stroke:#000080;stroke-linecap:square;stroke-width:1.5;"/>
    <g>
     <use style="fill-opacity:0;stroke:#000080;stroke-width:1.5;" x="338.688" xlink:href="#m663e5844bb" y="30.334099"/>
     <use style="fill-opacity:0;stroke:#000080;stroke-width:1.5;" x="369.60768" xlink:href="#m663e5844bb" y="121.661465"/>
    </g>
   </g>
   <g id="line2d_51">
    <path d="M 338.688 298.944 
L 338.688 30.334099 
" style="fill:none;stroke:#000000;stroke-linecap:square;stroke-width:1.5;"/>
   </g>
   <g id="patch_3">
    <path d="M 57.6 298.944 
L 57.6 27.648 
" style="fill:none;stroke:#000000;stroke-linecap:square;stroke-linejoin:miter;stroke-width:0.8;"/>
   </g>
   <g id="patch_4">
    <path d="M 338.688 298.944 
L 338.688 27.648 
" style="fill:none;stroke:#000000;stroke-linecap:square;stroke-linejoin:miter;stroke-width:0.8;"/>
   </g>
   <g id="patch_5">
    <path d="M 57.6 298.944 
L 338.688 298.944 
" style="fill:none;stroke:#000000;stroke-linecap:square;stroke-linejoin:miter;stroke-width:0.8;"/>
   </g>
   <g id="patch_6">
    <path d="M 57.6 27.648 
L 338.688 27.648 
" style="fill:none;stroke:#000000;stroke-linecap:square;stroke-linejoin:miter;stroke-width:0.8;"/>
   </g>
   <g id="text_13">
    <!-- PSO EDA -->
    <g transform="translate(375.22944 298.262739)scale(0.17 -0.17)">
     <defs>
      <path d="M 1259 4147 
L 1259 2394 
L 2053 2394 
Q 2494 2394 2734 2622 
Q 2975 2850 2975 3272 
Q 2975 3691 2734 3919 
Q 2494 4147 2053 4147 
L 1259 4147 
z
M 628 4666 
L 2053 4666 
Q 2838 4666 3239 4311 
Q 3641 3956 3641 3272 
Q 3641 2581 3239 2228 
Q 2838 1875 2053 1875 
L 1259 1875 
L 1259 0 
L 628 0 
L 628 4666 
z
" id="DejaVuSans-50" transform="scale(0.015625)"/>
      <path d="M 3425 4513 
L 3425 3897 
Q 3066 4069 2747 4153 
Q 2428 4238 2131 4238 
Q 1616 4238 1336 4038 
Q 1056 3838 1056 3469 
Q 1056 3159 1242 3001 
Q 1428 2844 1947 2747 
L 2328 2669 
Q 3034 2534 3370 2195 
Q 3706 1856 3706 1288 
Q 3706 609 3251 259 
Q 2797 -91 1919 -91 
Q 1588 -91 1214 -16 
Q 841 59 441 206 
L 441 856 
Q 825 641 1194 531 
Q 1563 422 1919 422 
Q 2459 422 2753 634 
Q 3047 847 3047 1241 
Q 3047 1584 2836 1778 
Q 2625 1972 2144 2069 
L 1759 2144 
Q 1053 2284 737 2584 
Q 422 2884 422 3419 
Q 422 4038 858 4394 
Q 1294 4750 2059 4750 
Q 2388 4750 2728 4690 
Q 3069 4631 3425 4513 
z
" id="DejaVuSans-53" transform="scale(0.015625)"/>
      <path d="M 2522 4238 
Q 1834 4238 1429 3725 
Q 1025 3213 1025 2328 
Q 1025 1447 1429 934 
Q 1834 422 2522 422 
Q 3209 422 3611 934 
Q 4013 1447 4013 2328 
Q 4013 3213 3611 3725 
Q 3209 4238 2522 4238 
z
M 2522 4750 
Q 3503 4750 4090 4092 
Q 4678 3434 4678 2328 
Q 4678 1225 4090 567 
Q 3503 -91 2522 -91 
Q 1538 -91 948 565 
Q 359 1222 359 2328 
Q 359 3434 948 4092 
Q 1538 4750 2522 4750 
z
" id="DejaVuSans-4f" transform="scale(0.015625)"/>
      <path d="M 628 4666 
L 3578 4666 
L 3578 4134 
L 1259 4134 
L 1259 2753 
L 3481 2753 
L 3481 2222 
L 1259 2222 
L 1259 531 
L 3634 531 
L 3634 0 
L 628 0 
L 628 4666 
z
" id="DejaVuSans-45" transform="scale(0.015625)"/>
      <path d="M 1259 4147 
L 1259 519 
L 2022 519 
Q 2988 519 3436 956 
Q 3884 1394 3884 2338 
Q 3884 3275 3436 3711 
Q 2988 4147 2022 4147 
L 1259 4147 
z
M 628 4666 
L 1925 4666 
Q 3281 4666 3915 4102 
Q 4550 3538 4550 2338 
Q 4550 1131 3912 565 
Q 3275 0 1925 0 
L 628 0 
L 628 4666 
z
" id="DejaVuSans-44" transform="scale(0.015625)"/>
      <path d="M 2188 4044 
L 1331 1722 
L 3047 1722 
L 2188 4044 
z
M 1831 4666 
L 2547 4666 
L 4325 0 
L 3669 0 
L 3244 1197 
L 1141 1197 
L 716 0 
L 50 0 
L 1831 4666 
z
" id="DejaVuSans-41" transform="scale(0.015625)"/>
     </defs>
     <use xlink:href="#DejaVuSans-50"/>
     <use x="60.302734" xlink:href="#DejaVuSans-53"/>
     <use x="123.779297" xlink:href="#DejaVuSans-4f"/>
     <use x="202.490234" xlink:href="#DejaVuSans-20"/>
     <use x="234.277344" xlink:href="#DejaVuSans-45"/>
     <use x="297.460938" xlink:href="#DejaVuSans-44"/>
     <use x="372.712891" xlink:href="#DejaVuSans-41"/>
    </g>
   </g>
   <g id="text_14">
    <!-- PSO Bound -->
    <g transform="translate(375.22944 212.307571)scale(0.17 -0.17)">
     <defs>
      <path d="M 1259 2228 
L 1259 519 
L 2272 519 
Q 2781 519 3026 730 
Q 3272 941 3272 1375 
Q 3272 1813 3026 2020 
Q 2781 2228 2272 2228 
L 1259 2228 
z
M 1259 4147 
L 1259 2741 
L 2194 2741 
Q 2656 2741 2882 2914 
Q 3109 3088 3109 3444 
Q 3109 3797 2882 3972 
Q 2656 4147 2194 4147 
L 1259 4147 
z
M 628 4666 
L 2241 4666 
Q 2963 4666 3353 4366 
Q 3744 4066 3744 3513 
Q 3744 3084 3544 2831 
Q 3344 2578 2956 2516 
Q 3422 2416 3680 2098 
Q 3938 1781 3938 1306 
Q 3938 681 3513 340 
Q 3088 0 2303 0 
L 628 0 
L 628 4666 
z
" id="DejaVuSans-42" transform="scale(0.015625)"/>
     </defs>
     <use xlink:href="#DejaVuSans-50"/>
     <use x="60.302734" xlink:href="#DejaVuSans-53"/>
     <use x="123.779297" xlink:href="#DejaVuSans-4f"/>
     <use x="202.490234" xlink:href="#DejaVuSans-20"/>
     <use x="234.277344" xlink:href="#DejaVuSans-42"/>
     <use x="302.880859" xlink:href="#DejaVuSans-6f"/>
     <use x="364.0625" xlink:href="#DejaVuSans-75"/>
     <use x="427.441406" xlink:href="#DejaVuSans-6e"/>
     <use x="490.820312" xlink:href="#DejaVuSans-64"/>
    </g>
   </g>
   <g id="text_15">
    <!-- PSO -->
    <g transform="translate(375.22944 126.352403)scale(0.17 -0.17)">
     <use xlink:href="#DejaVuSans-50"/>
     <use x="60.302734" xlink:href="#DejaVuSans-53"/>
     <use x="123.779297" xlink:href="#DejaVuSans-4f"/>
    </g>
   </g>
   <g id="text_16">
    <!-- best 2009 -->
    <g transform="translate(375.22944 40.397235)scale(0.17 -0.17)">
     <defs>
      <path d="M 3116 1747 
Q 3116 2381 2855 2742 
Q 2594 3103 2138 3103 
Q 1681 3103 1420 2742 
Q 1159 2381 1159 1747 
Q 1159 1113 1420 752 
Q 1681 391 2138 391 
Q 2594 391 2855 752 
Q 3116 1113 3116 1747 
z
M 1159 2969 
Q 1341 3281 1617 3432 
Q 1894 3584 2278 3584 
Q 2916 3584 3314 3078 
Q 3713 2572 3713 1747 
Q 3713 922 3314 415 
Q 2916 -91 2278 -91 
Q 1894 -91 1617 61 
Q 1341 213 1159 525 
L 1159 0 
L 581 0 
L 581 4863 
L 1159 4863 
L 1159 2969 
z
" id="DejaVuSans-62" transform="scale(0.015625)"/>
      <path d="M 703 97 
L 703 672 
Q 941 559 1184 500 
Q 1428 441 1663 441 
Q 2288 441 2617 861 
Q 2947 1281 2994 2138 
Q 2813 1869 2534 1725 
Q 2256 1581 1919 1581 
Q 1219 1581 811 2004 
Q 403 2428 403 3163 
Q 403 3881 828 4315 
Q 1253 4750 1959 4750 
Q 2769 4750 3195 4129 
Q 3622 3509 3622 2328 
Q 3622 1225 3098 567 
Q 2575 -91 1691 -91 
Q 1453 -91 1209 -44 
Q 966 3 703 97 
z
M 1959 2075 
Q 2384 2075 2632 2365 
Q 2881 2656 2881 3163 
Q 2881 3666 2632 3958 
Q 2384 4250 1959 4250 
Q 1534 4250 1286 3958 
Q 1038 3666 1038 3163 
Q 1038 2656 1286 2365 
Q 1534 2075 1959 2075 
z
" id="DejaVuSans-39" transform="scale(0.015625)"/>
     </defs>
     <use xlink:href="#DejaVuSans-62"/>
     <use x="63.476562" xlink:href="#DejaVuSans-65"/>
     <use x="125" xlink:href="#DejaVuSans-73"/>
     <use x="177.099609" xlink:href="#DejaVuSans-74"/>
     <use x="216.308594" xlink:href="#DejaVuSans-20"/>
     <use x="248.095703" xlink:href="#DejaVuSans-32"/>
     <use x="311.71875" xlink:href="#DejaVuSans-30"/>
     <use x="375.341797" xlink:href="#DejaVuSans-30"/>
     <use x="438.964844" xlink:href="#DejaVuSans-39"/>
    </g>
   </g>
   <g id="text_17">
    <!-- bbob f1, 20-D -->
    <g transform="translate(60.41088 38.111366)scale(0.102 -0.102)">
     <use xlink:href="#DejaVuSans-62"/>
     <use x="63.476562" xlink:href="#DejaVuSans-62"/>
     <use x="126.953125" xlink:href="#DejaVuSans-6f"/>
     <use x="188.134766" xlink:href="#DejaVuSans-62"/>
     <use x="251.611328" xlink:href="#DejaVuSans-20"/>
     <use x="283.398438" xlink:href="#DejaVuSans-66"/>
     <use x="318.603516" xlink:href="#DejaVuSans-31"/>
     <use x="382.226562" xlink:href="#DejaVuSans-2c"/>
     <use x="414.013672" xlink:href="#DejaVuSans-20"/>
     <use x="445.800781" xlink:href="#DejaVuSans-32"/>
     <use x="509.423828" xlink:href="#DejaVuSans-30"/>
     <use x="573.046875" xlink:href="#DejaVuSans-2d"/>
     <use x="609.130859" xlink:href="#DejaVuSans-44"/>
    </g>
    <!-- 51 targets: 100..1e-08 -->
    <g transform="translate(60.41088 49.533135)scale(0.102 -0.102)">
     <defs>
      <path d="M 691 4666 
L 3169 4666 
L 3169 4134 
L 1269 4134 
L 1269 2991 
Q 1406 3038 1543 3061 
Q 1681 3084 1819 3084 
Q 2600 3084 3056 2656 
Q 3513 2228 3513 1497 
Q 3513 744 3044 326 
Q 2575 -91 1722 -91 
Q 1428 -91 1123 -41 
Q 819 9 494 109 
L 494 744 
Q 775 591 1075 516 
Q 1375 441 1709 441 
Q 2250 441 2565 725 
Q 2881 1009 2881 1497 
Q 2881 1984 2565 2268 
Q 2250 2553 1709 2553 
Q 1456 2553 1204 2497 
Q 953 2441 691 2322 
L 691 4666 
z
" id="DejaVuSans-35" transform="scale(0.015625)"/>
      <path d="M 750 794 
L 1409 794 
L 1409 0 
L 750 0 
L 750 794 
z
M 750 3309 
L 1409 3309 
L 1409 2516 
L 750 2516 
L 750 3309 
z
" id="DejaVuSans-3a" transform="scale(0.015625)"/>
     </defs>
     <use xlink:href="#DejaVuSans-35"/>
     <use x="63.623047" xlink:href="#DejaVuSans-31"/>
     <use x="127.246094" xlink:href="#DejaVuSans-20"/>
     <use x="159.033203" xlink:href="#DejaVuSans-74"/>
     <use x="198.242188" xlink:href="#DejaVuSans-61"/>
     <use x="259.521484" xlink:href="#DejaVuSans-72"/>
     <use x="298.884766" xlink:href="#DejaVuSans-67"/>
     <use x="362.361328" xlink:href="#DejaVuSans-65"/>
     <use x="423.884766" xlink:href="#DejaVuSans-74"/>
     <use x="463.09375" xlink:href="#DejaVuSans-73"/>
     <use x="515.193359" xlink:href="#DejaVuSans-3a"/>
     <use x="548.884766" xlink:href="#DejaVuSans-20"/>
     <use x="580.671875" xlink:href="#DejaVuSans-31"/>
     <use x="644.294922" xlink:href="#DejaVuSans-30"/>
     <use x="707.917969" xlink:href="#DejaVuSans-30"/>
     <use x="771.541016" xlink:href="#DejaVuSans-2e"/>
     <use x="803.328125" xlink:href="#DejaVuSans-2e"/>
     <use x="835.115234" xlink:href="#DejaVuSans-31"/>
     <use x="898.738281" xlink:href="#DejaVuSans-65"/>
     <use x="960.261719" xlink:href="#DejaVuSans-2d"/>
     <use x="996.345703" xlink:href="#DejaVuSans-30"/>
     <use x="1059.96875" xlink:href="#DejaVuSans-38"/>
    </g>
    <!-- 15 instances -->
    <g transform="translate(60.41088 60.954904)scale(0.102 -0.102)">
     <use xlink:href="#DejaVuSans-31"/>
     <use x="63.623047" xlink:href="#DejaVuSans-35"/>
     <use x="127.246094" xlink:href="#DejaVuSans-20"/>
     <use x="159.033203" xlink:href="#DejaVuSans-69"/>
     <use x="186.816406" xlink:href="#DejaVuSans-6e"/>
     <use x="250.195312" xlink:href="#DejaVuSans-73"/>
     <use x="302.294922" xlink:href="#DejaVuSans-74"/>
     <use x="341.503906" xlink:href="#DejaVuSans-61"/>
     <use x="402.783203" xlink:href="#DejaVuSans-6e"/>
     <use x="466.162109" xlink:href="#DejaVuSans-63"/>
     <use x="521.142578" xlink:href="#DejaVuSans-65"/>
     <use x="582.666016" xlink:href="#DejaVuSans-73"/>
    </g>
   </g>
   <g id="text_18">
    <!-- v2.4 -->
    <g style="fill:#808080;" transform="translate(187.233062 294.151352)scale(0.1 -0.1)">
     <use xlink:href="#DejaVuSans-76"/>
     <use x="59.179688" xlink:href="#DejaVuSans-32"/>
     <use x="122.802734" xlink:href="#DejaVuSans-2e"/>
     <use x="154.589844" xlink:href="#DejaVuSans-34"/>
    </g>
   </g>
   <g id="text_19">
    <!-- 1 Sphere -->
    <g transform="translate(153.376812 21.648)scale(0.2 -0.2)">
     <defs>
      <path d="M 3513 2113 
L 3513 0 
L 2938 0 
L 2938 2094 
Q 2938 2591 2744 2837 
Q 2550 3084 2163 3084 
Q 1697 3084 1428 2787 
Q 1159 2491 1159 1978 
L 1159 0 
L 581 0 
L 581 4863 
L 1159 4863 
L 1159 2956 
Q 1366 3272 1645 3428 
Q 1925 3584 2291 3584 
Q 2894 3584 3203 3211 
Q 3513 2838 3513 2113 
z
" id="DejaVuSans-68" transform="scale(0.015625)"/>
     </defs>
     <use xlink:href="#DejaVuSans-31"/>
     <use x="63.623047" xlink:href="#DejaVuSans-20"/>
     <use x="95.410156" xlink:href="#DejaVuSans-53"/>
     <use x="158.886719" xlink:href="#DejaVuSans-70"/>
     <use x="222.363281" xlink:href="#DejaVuSans-68"/>
     <use x="285.742188" xlink:href="#DejaVuSans-65"/>
     <use x="347.265625" xlink:href="#DejaVuSans-72"/>
     <use x="386.128906" xlink:href="#DejaVuSans-65"/>
    </g>
   </g>
  </g>
 </g>
 <defs>
  <clipPath id="pdf7f98482e">
   <rect height="271.296" width="281.088" x="57.6" y="27.648"/>
  </clipPath>
 </defs>
</svg>
