<?xml version="1.0" encoding="utf-8" standalone="no"?>
<!DOCTYPE svg PUBLIC "-//W3C//DTD SVG 1.1//EN"
  "http://www.w3.org/Graphics/SVG/1.1/DTD/svg11.dtd">
<svg height="345.6pt" version="1.1" viewBox="0 0 460.8 345.6" width="460.8pt" xmlns="http://www.w3.org/2000/svg" xmlns:xlink="http://www.w3.org/1999/xlink">
 <metadata>
  <rdf:RDF xmlns:cc="http://creativecommons.org/ns#" xmlns:dc="http://purl.org/dc/elements/1.1/" xmlns:rdf="http://www.w3.org/1999/02/22-rdf-syntax-ns#">
   <cc:Work>
    <dc:type rdf:resource="http://purl.org/dc/dcmitype/StillImage"/>
    <dc:date>2021-04-26T18:31:44.379782</dc:date>
    <dc:format>image/svg+xml</dc:format>
    <dc:creator>
     <cc:Agent>
      <dc:title>Matplotlib v3.4.1, https://matplotlib.org/</dc:title>
     </cc:Agent>
    </dc:creator>
   </cc:Work>
  </rdf:RDF>
 </metadata>
 <defs>
  <style type="text/css">*{stroke-linecap:butt;stroke-linejoin:round;}</style>
 </defs>
 <g id="figure_1">
  <g id="patch_1">
   <path d="M 0 345.6 
L 460.8 345.6 
L 460.8 0 
L 0 0 
z
" style="fill:#ffffff;"/>
  </g>
  <g id="axes_1">
   <g id="patch_2">
    <path d="M 57.6 298.944 
L 338.688 298.944 
L 338.688 27.648 
L 57.6 27.648 
z
" style="fill:#ffffff;"/>
   </g>
   <g id="line2d_1">
    <path d="M 74.704957 298.944 
L 74.704957 288.410278 
L 83.171864 288.410278 
L 83.171864 283.143418 
L 87.850195 283.143418 
L 87.850195 277.876557 
L 94.575872 277.876557 
L 94.575872 272.609696 
L 99.938184 272.609696 
L 99.938184 267.342835 
L 102.772397 267.342835 
L 102.772397 262.075974 
L 105.209745 262.075974 
L 105.209745 256.809114 
L 106.311539 256.809114 
L 106.311539 251.542253 
L 107.347841 251.542253 
L 107.347841 246.275392 
L 108.640231 246.275392 
L 108.640231 241.008531 
L 110.131676 241.008531 
L 110.131676 235.74167 
L 111.505558 235.74167 
L 111.505558 230.47481 
L 112.779064 230.47481 
L 112.779064 225.207949 
L 114.418861 225.207949 
L 114.418861 219.941088 
L 116.914437 219.941088 
L 116.914437 214.674227 
L 118.576578 214.674227 
L 118.576578 209.407366 
L 119.267333 209.407366 
L 119.267333 204.140506 
L 119.931767 204.140506 
L 119.931767 198.873645 
L 120.728219 198.873645 
L 120.728219 193.606784 
L 121.489881 193.606784 
L 121.489881 188.339923 
L 122.643312 188.339923 
L 122.643312 183.073062 
L 123.593547 183.073062 
L 123.593547 177.806202 
L 124.494669 177.806202 
L 124.494669 172.539341 
L 124.989434 172.539341 
L 124.989434 167.27248 
L 125.706218 167.27248 
L 125.706218 162.005619 
L 126.839037 162.005619 
L 126.839037 156.738758 
L 127.590383 156.738758 
L 127.590383 151.471897 
L 128.411207 151.471897 
L 128.411207 146.205037 
L 128.709321 146.205037 
L 128.709321 140.938176 
L 129.385722 140.938176 
L 129.385722 135.671315 
L 129.945319 135.671315 
L 129.945319 130.404454 
L 130.487516 130.404454 
L 130.487516 125.137593 
L 131.013364 125.137593 
L 131.013364 119.870733 
L 131.355321 119.870733 
L 131.355321 114.603872 
L 132.101058 114.603872 
L 132.101058 109.337011 
L 132.581068 109.337011 
L 132.581068 104.07015 
L 132.971225 104.07015 
L 132.971225 98.803289 
L 133.352844 98.803289 
L 133.352844 93.536429 
L 133.72629 93.536429 
L 133.72629 88.269568 
L 134.019394 88.269568 
L 134.019394 83.002707 
L 134.236034 83.002707 
L 134.236034 77.735846 
L 134.661403 77.735846 
L 134.661403 72.468985 
L 134.939326 72.468985 
L 134.939326 67.202125 
L 135.415281 67.202125 
L 135.415281 61.935264 
L 135.747468 61.935264 
L 135.747468 56.668403 
L 136.137916 56.668403 
L 136.137916 51.401542 
L 136.519813 51.401542 
L 136.519813 46.134681 
L 136.955041 46.134681 
L 136.955041 40.867821 
L 137.37967 40.867821 
L 137.37967 35.60096 
L 137.558536 35.60096 
L 137.558536 30.334099 
L 338.688 30.334099 
" style="fill:none;stroke:#f5deb3;stroke-linecap:square;stroke-width:4;"/>
   </g>
   <g id="line2d_2">
    <defs>
     <path d="M 0 7.778175 
L 7.778175 0 
L 0 -7.778175 
L -7.778175 0 
z
" id="m99d07ab5c9" style="stroke:#f5deb3;stroke-linejoin:miter;stroke-width:1.5;"/>
    </defs>
    <g>
     <use style="fill:#f5deb3;stroke:#f5deb3;stroke-linejoin:miter;stroke-width:1.5;" x="124.494669" xlink:href="#m99d07ab5c9" y="177.806202"/>
     <use style="fill:#f5deb3;stroke:#f5deb3;stroke-linejoin:miter;stroke-width:1.5;" x="136.519813" xlink:href="#m99d07ab5c9" y="51.401542"/>
     <use style="fill:#f5deb3;stroke:#f5deb3;stroke-linejoin:miter;stroke-width:1.5;" x="137.558536" xlink:href="#m99d07ab5c9" y="30.334099"/>
     <use style="fill:#f5deb3;stroke:#f5deb3;stroke-linejoin:miter;stroke-width:1.5;" x="137.558536" xlink:href="#m99d07ab5c9" y="30.334099"/>
     <use style="fill:#f5deb3;stroke:#f5deb3;stroke-linejoin:miter;stroke-width:1.5;" x="338.688" xlink:href="#m99d07ab5c9" y="30.334099"/>
    </g>
   </g>
   <g id="line2d_3">
    <path style="fill:none;stroke:#f5deb3;stroke-linecap:square;stroke-width:4;"/>
    <g/>
   </g>
   <g id="line2d_4">
    <path d="M 338.688 30.334099 
L 369.60768 35.706297 
" style="fill:none;stroke:#f5deb3;stroke-linecap:square;stroke-width:4;"/>
    <g>
     <use style="fill:#f5deb3;stroke:#f5deb3;stroke-linejoin:miter;stroke-width:1.5;" x="338.688" xlink:href="#m99d07ab5c9" y="30.334099"/>
     <use style="fill:#f5deb3;stroke:#f5deb3;stroke-linejoin:miter;stroke-width:1.5;" x="369.60768" xlink:href="#m99d07ab5c9" y="35.706297"/>
    </g>
   </g>
   <g id="matplotlib.axis_1">
    <g id="xtick_1">
     <g id="line2d_5">
      <path clip-path="url(#p49cecbe415)" d="M 57.6 298.944 
L 57.6 27.648 
" style="fill:none;stroke:#b0b0b0;stroke-linecap:square;stroke-width:0.8;"/>
     </g>
     <g id="line2d_6">
      <defs>
       <path d="M 0 0 
L 0 3.5 
" id="me9372ae2a8" style="stroke:#000000;stroke-width:0.8;"/>
      </defs>
      <g>
       <use style="stroke:#000000;stroke-width:0.8;" x="57.6" xlink:href="#me9372ae2a8" y="298.944"/>
      </g>
     </g>
     <g id="text_1">
      <!-- 0 -->
      <g transform="translate(51.2375 321.140875)scale(0.2 -0.2)">
       <defs>
        <path d="M 2034 4250 
Q 1547 4250 1301 3770 
Q 1056 3291 1056 2328 
Q 1056 1369 1301 889 
Q 1547 409 2034 409 
Q 2525 409 2770 889 
Q 3016 1369 3016 2328 
Q 3016 3291 2770 3770 
Q 2525 4250 2034 4250 
z
M 2034 4750 
Q 2819 4750 3233 4129 
Q 3647 3509 3647 2328 
Q 3647 1150 3233 529 
Q 2819 -91 2034 -91 
Q 1250 -91 836 529 
Q 422 1150 422 2328 
Q 422 3509 836 4129 
Q 1250 4750 2034 4750 
z
" id="DejaVuSans-30" transform="scale(0.015625)"/>
       </defs>
       <use xlink:href="#DejaVuSans-30"/>
      </g>
     </g>
    </g>
    <g id="xtick_2">
     <g id="line2d_7">
      <path clip-path="url(#p49cecbe415)" d="M 137.910857 298.944 
L 137.910857 27.648 
" style="fill:none;stroke:#b0b0b0;stroke-linecap:square;stroke-width:0.8;"/>
     </g>
     <g id="line2d_8">
      <g>
       <use style="stroke:#000000;stroke-width:0.8;" x="137.910857" xlink:href="#me9372ae2a8" y="298.944"/>
      </g>
     </g>
     <g id="text_2">
      <!-- 2 -->
      <g transform="translate(131.548357 321.140875)scale(0.2 -0.2)">
       <defs>
        <path d="M 1228 531 
L 3431 531 
L 3431 0 
L 469 0 
L 469 531 
Q 828 903 1448 1529 
Q 2069 2156 2228 2338 
Q 2531 2678 2651 2914 
Q 2772 3150 2772 3378 
Q 2772 3750 2511 3984 
Q 2250 4219 1831 4219 
Q 1534 4219 1204 4116 
Q 875 4013 500 3803 
L 500 4441 
Q 881 4594 1212 4672 
Q 1544 4750 1819 4750 
Q 2544 4750 2975 4387 
Q 3406 4025 3406 3419 
Q 3406 3131 3298 2873 
Q 3191 2616 2906 2266 
Q 2828 2175 2409 1742 
Q 1991 1309 1228 531 
z
" id="DejaVuSans-32" transform="scale(0.015625)"/>
       </defs>
       <use xlink:href="#DejaVuSans-32"/>
      </g>
     </g>
    </g>
    <g id="xtick_3">
     <g id="line2d_9">
      <path clip-path="url(#p49cecbe415)" d="M 218.221714 298.944 
L 218.221714 27.648 
" style="fill:none;stroke:#b0b0b0;stroke-linecap:square;stroke-width:0.8;"/>
     </g>
     <g id="line2d_10">
      <g>
       <use style="stroke:#000000;stroke-width:0.8;" x="218.221714" xlink:href="#me9372ae2a8" y="298.944"/>
      </g>
     </g>
     <g id="text_3">
      <!-- 4 -->
      <g transform="translate(211.859214 321.140875)scale(0.2 -0.2)">
       <defs>
        <path d="M 2419 4116 
L 825 1625 
L 2419 1625 
L 2419 4116 
z
M 2253 4666 
L 3047 4666 
L 3047 1625 
L 3713 1625 
L 3713 1100 
L 3047 1100 
L 3047 0 
L 2419 0 
L 2419 1100 
L 313 1100 
L 313 1709 
L 2253 4666 
z
" id="DejaVuSans-34" transform="scale(0.015625)"/>
       </defs>
       <use xlink:href="#DejaVuSans-34"/>
      </g>
     </g>
    </g>
    <g id="xtick_4">
     <g id="line2d_11">
      <path clip-path="url(#p49cecbe415)" d="M 298.532571 298.944 
L 298.532571 27.648 
" style="fill:none;stroke:#b0b0b0;stroke-linecap:square;stroke-width:0.8;"/>
     </g>
     <g id="line2d_12">
      <g>
       <use style="stroke:#000000;stroke-width:0.8;" x="298.532571" xlink:href="#me9372ae2a8" y="298.944"/>
      </g>
     </g>
     <g id="text_4">
      <!-- 6 -->
      <g transform="translate(292.170071 321.140875)scale(0.2 -0.2)">
       <defs>
        <path d="M 2113 2584 
Q 1688 2584 1439 2293 
Q 1191 2003 1191 1497 
Q 1191 994 1439 701 
Q 1688 409 2113 409 
Q 2538 409 2786 701 
Q 3034 994 3034 1497 
Q 3034 2003 2786 2293 
Q 2538 2584 2113 2584 
z
M 3366 4563 
L 3366 3988 
Q 3128 4100 2886 4159 
Q 2644 4219 2406 4219 
Q 1781 4219 1451 3797 
Q 1122 3375 1075 2522 
Q 1259 2794 1537 2939 
Q 1816 3084 2150 3084 
Q 2853 3084 3261 2657 
Q 3669 2231 3669 1497 
Q 3669 778 3244 343 
Q 2819 -91 2113 -91 
Q 1303 -91 875 529 
Q 447 1150 447 2328 
Q 447 3434 972 4092 
Q 1497 4750 2381 4750 
Q 2619 4750 2861 4703 
Q 3103 4656 3366 4563 
z
" id="DejaVuSans-36" transform="scale(0.015625)"/>
       </defs>
       <use xlink:href="#DejaVuSans-36"/>
      </g>
     </g>
    </g>
    <g id="xtick_5">
     <g id="line2d_13">
      <path clip-path="url(#p49cecbe415)" d="M 97.755429 298.944 
L 97.755429 27.648 
" style="fill:none;stroke:#b0b0b0;stroke-linecap:square;stroke-width:0.8;"/>
     </g>
     <g id="line2d_14">
      <defs>
       <path d="M 0 0 
L 0 2 
" id="m8acd072cf8" style="stroke:#000000;stroke-width:0.6;"/>
      </defs>
      <g>
       <use style="stroke:#000000;stroke-width:0.6;" x="97.755429" xlink:href="#m8acd072cf8" y="298.944"/>
      </g>
     </g>
    </g>
    <g id="xtick_6">
     <g id="line2d_15">
      <path clip-path="url(#p49cecbe415)" d="M 178.066286 298.944 
L 178.066286 27.648 
" style="fill:none;stroke:#b0b0b0;stroke-linecap:square;stroke-width:0.8;"/>
     </g>
     <g id="line2d_16">
      <g>
       <use style="stroke:#000000;stroke-width:0.6;" x="178.066286" xlink:href="#m8acd072cf8" y="298.944"/>
      </g>
     </g>
    </g>
    <g id="xtick_7">
     <g id="line2d_17">
      <path clip-path="url(#p49cecbe415)" d="M 258.377143 298.944 
L 258.377143 27.648 
" style="fill:none;stroke:#b0b0b0;stroke-linecap:square;stroke-width:0.8;"/>
     </g>
     <g id="line2d_18">
      <g>
       <use style="stroke:#000000;stroke-width:0.6;" x="258.377143" xlink:href="#m8acd072cf8" y="298.944"/>
      </g>
     </g>
    </g>
    <g id="xtick_8">
     <g id="line2d_19">
      <path clip-path="url(#p49cecbe415)" d="M 338.688 298.944 
L 338.688 27.648 
" style="fill:none;stroke:#b0b0b0;stroke-linecap:square;stroke-width:0.8;"/>
     </g>
     <g id="line2d_20">
      <g>
       <use style="stroke:#000000;stroke-width:0.6;" x="338.688" xlink:href="#m8acd072cf8" y="298.944"/>
      </g>
     </g>
    </g>
    <g id="text_5">
     <!-- log10(# f-evals / dimension) -->
     <g transform="translate(77.764078 342.217594)scale(0.17 -0.17)">
      <defs>
       <path d="M 603 4863 
L 1178 4863 
L 1178 0 
L 603 0 
L 603 4863 
z
" id="DejaVuSans-6c" transform="scale(0.015625)"/>
       <path d="M 1959 3097 
Q 1497 3097 1228 2736 
Q 959 2375 959 1747 
Q 959 1119 1226 758 
Q 1494 397 1959 397 
Q 2419 397 2687 759 
Q 2956 1122 2956 1747 
Q 2956 2369 2687 2733 
Q 2419 3097 1959 3097 
z
M 1959 3584 
Q 2709 3584 3137 3096 
Q 3566 2609 3566 1747 
Q 3566 888 3137 398 
Q 2709 -91 1959 -91 
Q 1206 -91 779 398 
Q 353 888 353 1747 
Q 353 2609 779 3096 
Q 1206 3584 1959 3584 
z
" id="DejaVuSans-6f" transform="scale(0.015625)"/>
       <path d="M 2906 1791 
Q 2906 2416 2648 2759 
Q 2391 3103 1925 3103 
Q 1463 3103 1205 2759 
Q 947 2416 947 1791 
Q 947 1169 1205 825 
Q 1463 481 1925 481 
Q 2391 481 2648 825 
Q 2906 1169 2906 1791 
z
M 3481 434 
Q 3481 -459 3084 -895 
Q 2688 -1331 1869 -1331 
Q 1566 -1331 1297 -1286 
Q 1028 -1241 775 -1147 
L 775 -588 
Q 1028 -725 1275 -790 
Q 1522 -856 1778 -856 
Q 2344 -856 2625 -561 
Q 2906 -266 2906 331 
L 2906 616 
Q 2728 306 2450 153 
Q 2172 0 1784 0 
Q 1141 0 747 490 
Q 353 981 353 1791 
Q 353 2603 747 3093 
Q 1141 3584 1784 3584 
Q 2172 3584 2450 3431 
Q 2728 3278 2906 2969 
L 2906 3500 
L 3481 3500 
L 3481 434 
z
" id="DejaVuSans-67" transform="scale(0.015625)"/>
       <path d="M 794 531 
L 1825 531 
L 1825 4091 
L 703 3866 
L 703 4441 
L 1819 4666 
L 2450 4666 
L 2450 531 
L 3481 531 
L 3481 0 
L 794 0 
L 794 531 
z
" id="DejaVuSans-31" transform="scale(0.015625)"/>
       <path d="M 1984 4856 
Q 1566 4138 1362 3434 
Q 1159 2731 1159 2009 
Q 1159 1288 1364 580 
Q 1569 -128 1984 -844 
L 1484 -844 
Q 1016 -109 783 600 
Q 550 1309 550 2009 
Q 550 2706 781 3412 
Q 1013 4119 1484 4856 
L 1984 4856 
z
" id="DejaVuSans-28" transform="scale(0.015625)"/>
       <path d="M 3272 2816 
L 2363 2816 
L 2100 1772 
L 3016 1772 
L 3272 2816 
z
M 2803 4594 
L 2478 3297 
L 3391 3297 
L 3719 4594 
L 4219 4594 
L 3897 3297 
L 4872 3297 
L 4872 2816 
L 3775 2816 
L 3519 1772 
L 4513 1772 
L 4513 1294 
L 3397 1294 
L 3072 0 
L 2572 0 
L 2894 1294 
L 1978 1294 
L 1656 0 
L 1153 0 
L 1478 1294 
L 494 1294 
L 494 1772 
L 1594 1772 
L 1856 2816 
L 850 2816 
L 850 3297 
L 1978 3297 
L 2297 4594 
L 2803 4594 
z
" id="DejaVuSans-23" transform="scale(0.015625)"/>
       <path id="DejaVuSans-20" transform="scale(0.015625)"/>
       <path d="M 2375 4863 
L 2375 4384 
L 1825 4384 
Q 1516 4384 1395 4259 
Q 1275 4134 1275 3809 
L 1275 3500 
L 2222 3500 
L 2222 3053 
L 1275 3053 
L 1275 0 
L 697 0 
L 697 3053 
L 147 3053 
L 147 3500 
L 697 3500 
L 697 3744 
Q 697 4328 969 4595 
Q 1241 4863 1831 4863 
L 2375 4863 
z
" id="DejaVuSans-66" transform="scale(0.015625)"/>
       <path d="M 313 2009 
L 1997 2009 
L 1997 1497 
L 313 1497 
L 313 2009 
z
" id="DejaVuSans-2d" transform="scale(0.015625)"/>
       <path d="M 3597 1894 
L 3597 1613 
L 953 1613 
Q 991 1019 1311 708 
Q 1631 397 2203 397 
Q 2534 397 2845 478 
Q 3156 559 3463 722 
L 3463 178 
Q 3153 47 2828 -22 
Q 2503 -91 2169 -91 
Q 1331 -91 842 396 
Q 353 884 353 1716 
Q 353 2575 817 3079 
Q 1281 3584 2069 3584 
Q 2775 3584 3186 3129 
Q 3597 2675 3597 1894 
z
M 3022 2063 
Q 3016 2534 2758 2815 
Q 2500 3097 2075 3097 
Q 1594 3097 1305 2825 
Q 1016 2553 972 2059 
L 3022 2063 
z
" id="DejaVuSans-65" transform="scale(0.015625)"/>
       <path d="M 191 3500 
L 800 3500 
L 1894 563 
L 2988 3500 
L 3597 3500 
L 2284 0 
L 1503 0 
L 191 3500 
z
" id="DejaVuSans-76" transform="scale(0.015625)"/>
       <path d="M 2194 1759 
Q 1497 1759 1228 1600 
Q 959 1441 959 1056 
Q 959 750 1161 570 
Q 1363 391 1709 391 
Q 2188 391 2477 730 
Q 2766 1069 2766 1631 
L 2766 1759 
L 2194 1759 
z
M 3341 1997 
L 3341 0 
L 2766 0 
L 2766 531 
Q 2569 213 2275 61 
Q 1981 -91 1556 -91 
Q 1019 -91 701 211 
Q 384 513 384 1019 
Q 384 1609 779 1909 
Q 1175 2209 1959 2209 
L 2766 2209 
L 2766 2266 
Q 2766 2663 2505 2880 
Q 2244 3097 1772 3097 
Q 1472 3097 1187 3025 
Q 903 2953 641 2809 
L 641 3341 
Q 956 3463 1253 3523 
Q 1550 3584 1831 3584 
Q 2591 3584 2966 3190 
Q 3341 2797 3341 1997 
z
" id="DejaVuSans-61" transform="scale(0.015625)"/>
       <path d="M 2834 3397 
L 2834 2853 
Q 2591 2978 2328 3040 
Q 2066 3103 1784 3103 
Q 1356 3103 1142 2972 
Q 928 2841 928 2578 
Q 928 2378 1081 2264 
Q 1234 2150 1697 2047 
L 1894 2003 
Q 2506 1872 2764 1633 
Q 3022 1394 3022 966 
Q 3022 478 2636 193 
Q 2250 -91 1575 -91 
Q 1294 -91 989 -36 
Q 684 19 347 128 
L 347 722 
Q 666 556 975 473 
Q 1284 391 1588 391 
Q 1994 391 2212 530 
Q 2431 669 2431 922 
Q 2431 1156 2273 1281 
Q 2116 1406 1581 1522 
L 1381 1569 
Q 847 1681 609 1914 
Q 372 2147 372 2553 
Q 372 3047 722 3315 
Q 1072 3584 1716 3584 
Q 2034 3584 2315 3537 
Q 2597 3491 2834 3397 
z
" id="DejaVuSans-73" transform="scale(0.015625)"/>
       <path d="M 1625 4666 
L 2156 4666 
L 531 -594 
L 0 -594 
L 1625 4666 
z
" id="DejaVuSans-2f" transform="scale(0.015625)"/>
       <path d="M 2906 2969 
L 2906 4863 
L 3481 4863 
L 3481 0 
L 2906 0 
L 2906 525 
Q 2725 213 2448 61 
Q 2172 -91 1784 -91 
Q 1150 -91 751 415 
Q 353 922 353 1747 
Q 353 2572 751 3078 
Q 1150 3584 1784 3584 
Q 2172 3584 2448 3432 
Q 2725 3281 2906 2969 
z
M 947 1747 
Q 947 1113 1208 752 
Q 1469 391 1925 391 
Q 2381 391 2643 752 
Q 2906 1113 2906 1747 
Q 2906 2381 2643 2742 
Q 2381 3103 1925 3103 
Q 1469 3103 1208 2742 
Q 947 2381 947 1747 
z
" id="DejaVuSans-64" transform="scale(0.015625)"/>
       <path d="M 603 3500 
L 1178 3500 
L 1178 0 
L 603 0 
L 603 3500 
z
M 603 4863 
L 1178 4863 
L 1178 4134 
L 603 4134 
L 603 4863 
z
" id="DejaVuSans-69" transform="scale(0.015625)"/>
       <path d="M 3328 2828 
Q 3544 3216 3844 3400 
Q 4144 3584 4550 3584 
Q 5097 3584 5394 3201 
Q 5691 2819 5691 2113 
L 5691 0 
L 5113 0 
L 5113 2094 
Q 5113 2597 4934 2840 
Q 4756 3084 4391 3084 
Q 3944 3084 3684 2787 
Q 3425 2491 3425 1978 
L 3425 0 
L 2847 0 
L 2847 2094 
Q 2847 2600 2669 2842 
Q 2491 3084 2119 3084 
Q 1678 3084 1418 2786 
Q 1159 2488 1159 1978 
L 1159 0 
L 581 0 
L 581 3500 
L 1159 3500 
L 1159 2956 
Q 1356 3278 1631 3431 
Q 1906 3584 2284 3584 
Q 2666 3584 2933 3390 
Q 3200 3197 3328 2828 
z
" id="DejaVuSans-6d" transform="scale(0.015625)"/>
       <path d="M 3513 2113 
L 3513 0 
L 2938 0 
L 2938 2094 
Q 2938 2591 2744 2837 
Q 2550 3084 2163 3084 
Q 1697 3084 1428 2787 
Q 1159 2491 1159 1978 
L 1159 0 
L 581 0 
L 581 3500 
L 1159 3500 
L 1159 2956 
Q 1366 3272 1645 3428 
Q 1925 3584 2291 3584 
Q 2894 3584 3203 3211 
Q 3513 2838 3513 2113 
z
" id="DejaVuSans-6e" transform="scale(0.015625)"/>
       <path d="M 513 4856 
L 1013 4856 
Q 1481 4119 1714 3412 
Q 1947 2706 1947 2009 
Q 1947 1309 1714 600 
Q 1481 -109 1013 -844 
L 513 -844 
Q 928 -128 1133 580 
Q 1338 1288 1338 2009 
Q 1338 2731 1133 3434 
Q 928 4138 513 4856 
z
" id="DejaVuSans-29" transform="scale(0.015625)"/>
      </defs>
      <use xlink:href="#DejaVuSans-6c"/>
      <use x="27.783203" xlink:href="#DejaVuSans-6f"/>
      <use x="88.964844" xlink:href="#DejaVuSans-67"/>
      <use x="152.441406" xlink:href="#DejaVuSans-31"/>
      <use x="216.064453" xlink:href="#DejaVuSans-30"/>
      <use x="279.6875" xlink:href="#DejaVuSans-28"/>
      <use x="318.701172" xlink:href="#DejaVuSans-23"/>
      <use x="402.490234" xlink:href="#DejaVuSans-20"/>
      <use x="434.277344" xlink:href="#DejaVuSans-66"/>
      <use x="463.982422" xlink:href="#DejaVuSans-2d"/>
      <use x="500.066406" xlink:href="#DejaVuSans-65"/>
      <use x="561.589844" xlink:href="#DejaVuSans-76"/>
      <use x="620.769531" xlink:href="#DejaVuSans-61"/>
      <use x="682.048828" xlink:href="#DejaVuSans-6c"/>
      <use x="709.832031" xlink:href="#DejaVuSans-73"/>
      <use x="761.931641" xlink:href="#DejaVuSans-20"/>
      <use x="793.71875" xlink:href="#DejaVuSans-2f"/>
      <use x="827.410156" xlink:href="#DejaVuSans-20"/>
      <use x="859.197266" xlink:href="#DejaVuSans-64"/>
      <use x="922.673828" xlink:href="#DejaVuSans-69"/>
      <use x="950.457031" xlink:href="#DejaVuSans-6d"/>
      <use x="1047.869141" xlink:href="#DejaVuSans-65"/>
      <use x="1109.392578" xlink:href="#DejaVuSans-6e"/>
      <use x="1172.771484" xlink:href="#DejaVuSans-73"/>
      <use x="1224.871094" xlink:href="#DejaVuSans-69"/>
      <use x="1252.654297" xlink:href="#DejaVuSans-6f"/>
      <use x="1313.835938" xlink:href="#DejaVuSans-6e"/>
      <use x="1377.214844" xlink:href="#DejaVuSans-29"/>
     </g>
    </g>
   </g>
   <g id="matplotlib.axis_2">
    <g id="ytick_1">
     <g id="line2d_21">
      <path clip-path="url(#p49cecbe415)" d="M 57.6 298.944 
L 338.688 298.944 
" style="fill:none;stroke:#b0b0b0;stroke-linecap:square;stroke-width:0.8;"/>
     </g>
     <g id="line2d_22">
      <defs>
       <path d="M 0 0 
L -3.5 0 
" id="m82ec693887" style="stroke:#000000;stroke-width:0.8;"/>
      </defs>
      <g>
       <use style="stroke:#000000;stroke-width:0.8;" x="57.6" xlink:href="#m82ec693887" y="298.944"/>
      </g>
     </g>
     <g id="text_6">
      <!-- 0.0 -->
      <g transform="translate(25.155 305.02275)scale(0.16 -0.16)">
       <defs>
        <path d="M 684 794 
L 1344 794 
L 1344 0 
L 684 0 
L 684 794 
z
" id="DejaVuSans-2e" transform="scale(0.015625)"/>
       </defs>
       <use xlink:href="#DejaVuSans-30"/>
       <use x="63.623047" xlink:href="#DejaVuSans-2e"/>
       <use x="95.410156" xlink:href="#DejaVuSans-30"/>
      </g>
     </g>
    </g>
    <g id="ytick_2">
     <g id="line2d_23">
      <path clip-path="url(#p49cecbe415)" d="M 57.6 245.22202 
L 338.688 245.22202 
" style="fill:none;stroke:#b0b0b0;stroke-linecap:square;stroke-width:0.8;"/>
     </g>
     <g id="line2d_24">
      <g>
       <use style="stroke:#000000;stroke-width:0.8;" x="57.6" xlink:href="#m82ec693887" y="245.22202"/>
      </g>
     </g>
     <g id="text_7">
      <!-- 0.2 -->
      <g transform="translate(25.155 251.30077)scale(0.16 -0.16)">
       <use xlink:href="#DejaVuSans-30"/>
       <use x="63.623047" xlink:href="#DejaVuSans-2e"/>
       <use x="95.410156" xlink:href="#DejaVuSans-32"/>
      </g>
     </g>
    </g>
    <g id="ytick_3">
     <g id="line2d_25">
      <path clip-path="url(#p49cecbe415)" d="M 57.6 191.50004 
L 338.688 191.50004 
" style="fill:none;stroke:#b0b0b0;stroke-linecap:square;stroke-width:0.8;"/>
     </g>
     <g id="line2d_26">
      <g>
       <use style="stroke:#000000;stroke-width:0.8;" x="57.6" xlink:href="#m82ec693887" y="191.50004"/>
      </g>
     </g>
     <g id="text_8">
      <!-- 0.4 -->
      <g transform="translate(25.155 197.57879)scale(0.16 -0.16)">
       <use xlink:href="#DejaVuSans-30"/>
       <use x="63.623047" xlink:href="#DejaVuSans-2e"/>
       <use x="95.410156" xlink:href="#DejaVuSans-34"/>
      </g>
     </g>
    </g>
    <g id="ytick_4">
     <g id="line2d_27">
      <path clip-path="url(#p49cecbe415)" d="M 57.6 137.778059 
L 338.688 137.778059 
" style="fill:none;stroke:#b0b0b0;stroke-linecap:square;stroke-width:0.8;"/>
     </g>
     <g id="line2d_28">
      <g>
       <use style="stroke:#000000;stroke-width:0.8;" x="57.6" xlink:href="#m82ec693887" y="137.778059"/>
      </g>
     </g>
     <g id="text_9">
      <!-- 0.6 -->
      <g transform="translate(25.155 143.856809)scale(0.16 -0.16)">
       <use xlink:href="#DejaVuSans-30"/>
       <use x="63.623047" xlink:href="#DejaVuSans-2e"/>
       <use x="95.410156" xlink:href="#DejaVuSans-36"/>
      </g>
     </g>
    </g>
    <g id="ytick_5">
     <g id="line2d_29">
      <path clip-path="url(#p49cecbe415)" d="M 57.6 84.056079 
L 338.688 84.056079 
" style="fill:none;stroke:#b0b0b0;stroke-linecap:square;stroke-width:0.8;"/>
     </g>
     <g id="line2d_30">
      <g>
       <use style="stroke:#000000;stroke-width:0.8;" x="57.6" xlink:href="#m82ec693887" y="84.056079"/>
      </g>
     </g>
     <g id="text_10">
      <!-- 0.8 -->
      <g transform="translate(25.155 90.134829)scale(0.16 -0.16)">
       <defs>
        <path d="M 2034 2216 
Q 1584 2216 1326 1975 
Q 1069 1734 1069 1313 
Q 1069 891 1326 650 
Q 1584 409 2034 409 
Q 2484 409 2743 651 
Q 3003 894 3003 1313 
Q 3003 1734 2745 1975 
Q 2488 2216 2034 2216 
z
M 1403 2484 
Q 997 2584 770 2862 
Q 544 3141 544 3541 
Q 544 4100 942 4425 
Q 1341 4750 2034 4750 
Q 2731 4750 3128 4425 
Q 3525 4100 3525 3541 
Q 3525 3141 3298 2862 
Q 3072 2584 2669 2484 
Q 3125 2378 3379 2068 
Q 3634 1759 3634 1313 
Q 3634 634 3220 271 
Q 2806 -91 2034 -91 
Q 1263 -91 848 271 
Q 434 634 434 1313 
Q 434 1759 690 2068 
Q 947 2378 1403 2484 
z
M 1172 3481 
Q 1172 3119 1398 2916 
Q 1625 2713 2034 2713 
Q 2441 2713 2670 2916 
Q 2900 3119 2900 3481 
Q 2900 3844 2670 4047 
Q 2441 4250 2034 4250 
Q 1625 4250 1398 4047 
Q 1172 3844 1172 3481 
z
" id="DejaVuSans-38" transform="scale(0.015625)"/>
       </defs>
       <use xlink:href="#DejaVuSans-30"/>
       <use x="63.623047" xlink:href="#DejaVuSans-2e"/>
       <use x="95.410156" xlink:href="#DejaVuSans-38"/>
      </g>
     </g>
    </g>
    <g id="ytick_6">
     <g id="line2d_31">
      <path clip-path="url(#p49cecbe415)" d="M 57.6 30.334099 
L 338.688 30.334099 
" style="fill:none;stroke:#b0b0b0;stroke-linecap:square;stroke-width:0.8;"/>
     </g>
     <g id="line2d_32">
      <g>
       <use style="stroke:#000000;stroke-width:0.8;" x="57.6" xlink:href="#m82ec693887" y="30.334099"/>
      </g>
     </g>
     <g id="text_11">
      <!-- 1.0 -->
      <g transform="translate(25.155 36.412849)scale(0.16 -0.16)">
       <use xlink:href="#DejaVuSans-31"/>
       <use x="63.623047" xlink:href="#DejaVuSans-2e"/>
       <use x="95.410156" xlink:href="#DejaVuSans-30"/>
      </g>
     </g>
    </g>
    <g id="text_12">
     <!-- Fraction of function,target pairs -->
     <g transform="translate(17.619531 297.681)rotate(-90)scale(0.17 -0.17)">
      <defs>
       <path d="M 628 4666 
L 3309 4666 
L 3309 4134 
L 1259 4134 
L 1259 2759 
L 3109 2759 
L 3109 2228 
L 1259 2228 
L 1259 0 
L 628 0 
L 628 4666 
z
" id="DejaVuSans-46" transform="scale(0.015625)"/>
       <path d="M 2631 2963 
Q 2534 3019 2420 3045 
Q 2306 3072 2169 3072 
Q 1681 3072 1420 2755 
Q 1159 2438 1159 1844 
L 1159 0 
L 581 0 
L 581 3500 
L 1159 3500 
L 1159 2956 
Q 1341 3275 1631 3429 
Q 1922 3584 2338 3584 
Q 2397 3584 2469 3576 
Q 2541 3569 2628 3553 
L 2631 2963 
z
" id="DejaVuSans-72" transform="scale(0.015625)"/>
       <path d="M 3122 3366 
L 3122 2828 
Q 2878 2963 2633 3030 
Q 2388 3097 2138 3097 
Q 1578 3097 1268 2742 
Q 959 2388 959 1747 
Q 959 1106 1268 751 
Q 1578 397 2138 397 
Q 2388 397 2633 464 
Q 2878 531 3122 666 
L 3122 134 
Q 2881 22 2623 -34 
Q 2366 -91 2075 -91 
Q 1284 -91 818 406 
Q 353 903 353 1747 
Q 353 2603 823 3093 
Q 1294 3584 2113 3584 
Q 2378 3584 2631 3529 
Q 2884 3475 3122 3366 
z
" id="DejaVuSans-63" transform="scale(0.015625)"/>
       <path d="M 1172 4494 
L 1172 3500 
L 2356 3500 
L 2356 3053 
L 1172 3053 
L 1172 1153 
Q 1172 725 1289 603 
Q 1406 481 1766 481 
L 2356 481 
L 2356 0 
L 1766 0 
Q 1100 0 847 248 
Q 594 497 594 1153 
L 594 3053 
L 172 3053 
L 172 3500 
L 594 3500 
L 594 4494 
L 1172 4494 
z
" id="DejaVuSans-74" transform="scale(0.015625)"/>
       <path d="M 544 1381 
L 544 3500 
L 1119 3500 
L 1119 1403 
Q 1119 906 1312 657 
Q 1506 409 1894 409 
Q 2359 409 2629 706 
Q 2900 1003 2900 1516 
L 2900 3500 
L 3475 3500 
L 3475 0 
L 2900 0 
L 2900 538 
Q 2691 219 2414 64 
Q 2138 -91 1772 -91 
Q 1169 -91 856 284 
Q 544 659 544 1381 
z
M 1991 3584 
L 1991 3584 
z
" id="DejaVuSans-75" transform="scale(0.015625)"/>
       <path d="M 750 794 
L 1409 794 
L 1409 256 
L 897 -744 
L 494 -744 
L 750 256 
L 750 794 
z
" id="DejaVuSans-2c" transform="scale(0.015625)"/>
       <path d="M 1159 525 
L 1159 -1331 
L 581 -1331 
L 581 3500 
L 1159 3500 
L 1159 2969 
Q 1341 3281 1617 3432 
Q 1894 3584 2278 3584 
Q 2916 3584 3314 3078 
Q 3713 2572 3713 1747 
Q 3713 922 3314 415 
Q 2916 -91 2278 -91 
Q 1894 -91 1617 61 
Q 1341 213 1159 525 
z
M 3116 1747 
Q 3116 2381 2855 2742 
Q 2594 3103 2138 3103 
Q 1681 3103 1420 2742 
Q 1159 2381 1159 1747 
Q 1159 1113 1420 752 
Q 1681 391 2138 391 
Q 2594 391 2855 752 
Q 3116 1113 3116 1747 
z
" id="DejaVuSans-70" transform="scale(0.015625)"/>
      </defs>
      <use xlink:href="#DejaVuSans-46"/>
      <use x="50.269531" xlink:href="#DejaVuSans-72"/>
      <use x="91.382812" xlink:href="#DejaVuSans-61"/>
      <use x="152.662109" xlink:href="#DejaVuSans-63"/>
      <use x="207.642578" xlink:href="#DejaVuSans-74"/>
      <use x="246.851562" xlink:href="#DejaVuSans-69"/>
      <use x="274.634766" xlink:href="#DejaVuSans-6f"/>
      <use x="335.816406" xlink:href="#DejaVuSans-6e"/>
      <use x="399.195312" xlink:href="#DejaVuSans-20"/>
      <use x="430.982422" xlink:href="#DejaVuSans-6f"/>
      <use x="492.164062" xlink:href="#DejaVuSans-66"/>
      <use x="527.369141" xlink:href="#DejaVuSans-20"/>
      <use x="559.15625" xlink:href="#DejaVuSans-66"/>
      <use x="594.361328" xlink:href="#DejaVuSans-75"/>
      <use x="657.740234" xlink:href="#DejaVuSans-6e"/>
      <use x="721.119141" xlink:href="#DejaVuSans-63"/>
      <use x="776.099609" xlink:href="#DejaVuSans-74"/>
      <use x="815.308594" xlink:href="#DejaVuSans-69"/>
      <use x="843.091797" xlink:href="#DejaVuSans-6f"/>
      <use x="904.273438" xlink:href="#DejaVuSans-6e"/>
      <use x="967.652344" xlink:href="#DejaVuSans-2c"/>
      <use x="999.439453" xlink:href="#DejaVuSans-74"/>
      <use x="1038.648438" xlink:href="#DejaVuSans-61"/>
      <use x="1099.927734" xlink:href="#DejaVuSans-72"/>
      <use x="1139.291016" xlink:href="#DejaVuSans-67"/>
      <use x="1202.767578" xlink:href="#DejaVuSans-65"/>
      <use x="1264.291016" xlink:href="#DejaVuSans-74"/>
      <use x="1303.5" xlink:href="#DejaVuSans-20"/>
      <use x="1335.287109" xlink:href="#DejaVuSans-70"/>
      <use x="1398.763672" xlink:href="#DejaVuSans-61"/>
      <use x="1460.042969" xlink:href="#DejaVuSans-69"/>
      <use x="1487.826172" xlink:href="#DejaVuSans-72"/>
      <use x="1528.939453" xlink:href="#DejaVuSans-73"/>
     </g>
    </g>
   </g>
   <g id="line2d_33">
    <defs>
     <path d="M 0 1.5 
C 0.397805 1.5 0.77937 1.341951 1.06066 1.06066 
C 1.341951 0.77937 1.5 0.397805 1.5 0 
C 1.5 -0.397805 1.341951 -0.77937 1.06066 -1.06066 
C 0.77937 -1.341951 0.397805 -1.5 0 -1.5 
C -0.397805 -1.5 -0.77937 -1.341951 -1.06066 -1.06066 
C -1.341951 -0.77937 -1.5 -0.397805 -1.5 0 
C -1.5 0.397805 -1.341951 0.77937 -1.06066 1.06066 
C -0.77937 1.341951 -0.397805 1.5 0 1.5 
z
" id="m209d996741" style="stroke:#f5deb3;"/>
    </defs>
    <g>
     <use style="fill:#f5deb3;stroke:#f5deb3;" x="137.558536" xlink:href="#m209d996741" y="30.334099"/>
     <use style="fill:#f5deb3;stroke:#f5deb3;" x="137.558536" xlink:href="#m209d996741" y="30.334099"/>
    </g>
   </g>
   <g id="line2d_34">
    <defs>
     <path d="M 0 1.5 
C 0.397805 1.5 0.77937 1.341951 1.06066 1.06066 
C 1.341951 0.77937 1.5 0.397805 1.5 0 
C 1.5 -0.397805 1.341951 -0.77937 1.06066 -1.06066 
C 0.77937 -1.341951 0.397805 -1.5 0 -1.5 
C -0.397805 -1.5 -0.77937 -1.341951 -1.06066 -1.06066 
C -1.341951 -0.77937 -1.5 -0.397805 -1.5 0 
C -1.5 0.397805 -1.341951 0.77937 -1.06066 1.06066 
C -0.77937 1.341951 -0.397805 1.5 0 1.5 
z
" id="mcc774b0831" style="stroke:#000080;"/>
    </defs>
    <g>
     <use style="fill:#000080;stroke:#000080;" x="201.699086" xlink:href="#mcc774b0831" y="30.334099"/>
     <use style="fill:#000080;stroke:#000080;" x="201.699086" xlink:href="#mcc774b0831" y="30.334099"/>
    </g>
   </g>
   <g id="line2d_35">
    <path d="M 38.440992 298.944 
L 38.440992 298.417314 
L 50.52898 298.417314 
L 50.52898 297.890628 
L 57.6 297.890628 
L 57.6 295.783884 
L 66.508432 295.783884 
L 66.508432 292.097081 
L 76.759008 292.097081 
L 76.759008 291.043709 
L 80.258561 291.043709 
L 80.258561 288.936964 
L 83.171864 288.936964 
L 83.171864 287.883592 
L 88.846997 287.883592 
L 88.846997 285.250162 
L 90.684409 285.250162 
L 90.684409 283.143418 
L 91.535274 283.143418 
L 91.535274 282.090045 
L 103.623262 282.090045 
L 103.623262 281.036673 
L 106.66386 281.036673 
L 106.66386 276.823185 
L 107.009204 276.823185 
L 107.009204 276.296499 
L 108.640231 276.296499 
L 108.640231 275.769812 
L 108.948899 275.769812 
L 108.948899 274.189754 
L 109.550313 274.189754 
L 109.550313 273.663068 
L 111.505558 273.663068 
L 111.505558 272.609696 
L 112.280765 272.609696 
L 112.280765 270.502952 
L 114.860386 270.502952 
L 114.860386 269.449579 
L 115.291007 269.449579 
L 115.291007 268.922893 
L 115.502395 268.922893 
L 115.502395 268.396207 
L 117.672786 268.396207 
L 117.672786 267.342835 
L 118.039942 267.342835 
L 118.039942 266.816149 
L 118.399528 266.816149 
L 118.399528 266.289463 
L 118.925375 266.289463 
L 118.925375 265.762777 
L 119.43583 265.762777 
L 119.43583 265.236091 
L 120.728219 265.236091 
L 120.728219 264.709405 
L 121.036887 264.709405 
L 121.036887 264.182719 
L 121.489881 264.182719 
L 121.489881 263.656033 
L 121.638301 263.656033 
L 121.638301 263.129347 
L 121.785469 263.129347 
L 121.785469 262.60266 
L 123.192626 262.60266 
L 123.192626 262.075974 
L 123.327293 262.075974 
L 123.327293 261.549288 
L 123.855796 261.549288 
L 123.855796 260.495916 
L 125.351508 260.495916 
L 125.351508 259.96923 
L 125.822869 259.96923 
L 125.822869 259.442544 
L 126.3947 259.442544 
L 126.3947 258.389172 
L 126.729009 258.389172 
L 126.729009 257.862486 
L 128.709321 257.862486 
L 128.709321 255.755741 
L 129.099042 255.755741 
L 129.099042 254.702369 
L 129.945319 254.702369 
L 129.945319 254.175683 
L 130.487516 254.175683 
L 130.487516 253.648997 
L 131.690703 253.648997 
L 131.690703 253.122311 
L 132.659801 253.122311 
L 132.659801 252.595625 
L 133.04822 252.595625 
L 133.04822 252.068939 
L 133.352844 252.068939 
L 133.428175 251.015567 
L 134.591225 251.015567 
L 134.591225 250.488881 
L 135.00812 250.488881 
L 135.00812 249.962195 
L 136.32991 249.962195 
L 136.32991 248.908822 
L 137.016339 248.908822 
L 137.016339 248.382136 
L 137.37967 248.382136 
L 137.37967 247.85545 
L 137.558536 247.85545 
L 137.558536 247.328764 
L 139.306744 247.328764 
L 139.306744 245.748706 
L 139.625765 245.748706 
L 139.625765 245.22202 
L 140.246813 245.22202 
L 140.246813 244.695334 
L 140.944478 244.695334 
L 140.944478 244.168648 
L 142.124852 244.168648 
L 142.124852 241.535217 
L 144.269971 241.535217 
L 144.269971 240.481845 
L 144.390658 240.481845 
L 144.390658 239.955159 
L 145.289185 239.955159 
L 145.289185 239.428473 
L 146.538004 239.428473 
L 146.538004 238.901787 
L 146.714338 238.901787 
L 146.714338 238.375101 
L 147.4697 238.375101 
L 147.4697 237.848415 
L 148.950676 237.848415 
L 148.950676 236.268356 
L 149.467659 236.268356 
L 149.467659 235.214984 
L 149.940618 235.214984 
L 149.940618 233.10824 
L 150.904986 233.10824 
L 150.904986 232.054868 
L 151.421542 232.054868 
L 151.421542 230.47481 
L 151.740076 230.47481 
L 151.740076 229.948123 
L 152.001148 229.948123 
L 152.001148 229.421437 
L 152.155936 229.421437 
L 152.155936 228.894751 
L 152.662192 228.894751 
L 152.662192 227.314693 
L 153.347132 227.314693 
L 153.347132 226.788007 
L 154.05232 226.788007 
L 154.05232 226.261321 
L 155.678822 226.261321 
L 155.678822 225.734635 
L 155.86668 225.734635 
L 155.86668 224.154577 
L 156.398281 224.154577 
L 156.398281 223.627891 
L 156.538679 223.627891 
L 156.618401 222.574518 
L 156.816128 222.574518 
L 156.816128 222.047832 
L 156.933697 222.047832 
L 157.031069 220.467774 
L 159.235515 220.467774 
L 159.235515 219.941088 
L 159.574482 219.941088 
L 159.574482 219.414402 
L 159.857512 219.414402 
L 159.857512 217.834344 
L 160.458086 217.834344 
L 160.458086 216.780971 
L 160.727241 216.780971 
L 160.774311 215.727599 
L 161.069504 215.727599 
L 161.069504 215.200913 
L 162.360793 215.200913 
L 162.360793 214.674227 
L 163.19871 214.674227 
L 163.19871 214.147541 
L 163.536298 214.147541 
L 163.536298 213.094169 
L 163.735759 213.094169 
L 163.735759 212.567483 
L 163.919885 212.567483 
L 163.932963 211.514111 
L 164.153799 211.514111 
L 164.231078 210.460738 
L 164.725213 210.460738 
L 164.725213 209.407366 
L 164.9363 209.407366 
L 164.9363 208.88068 
L 165.254276 208.88068 
L 165.254276 208.353994 
L 165.732422 208.353994 
L 165.732422 207.300622 
L 165.896723 207.300622 
L 165.896723 206.773936 
L 166.047915 206.773936 
L 166.047915 205.193878 
L 166.232216 205.193878 
L 166.232216 204.667192 
L 166.7626 204.667192 
L 166.7626 203.613819 
L 166.972515 203.613819 
L 167.027338 202.560447 
L 167.384913 202.560447 
L 167.384913 200.980389 
L 167.724788 200.980389 
L 167.745812 199.400331 
L 168.099393 199.400331 
L 168.140524 197.820273 
L 168.222494 197.820273 
L 168.242927 195.713528 
L 169.388841 195.713528 
L 169.388841 195.186842 
L 169.654516 195.186842 
L 169.710923 194.13347 
L 169.934746 194.13347 
L 170.017944 192.026726 
L 170.696249 192.026726 
L 170.696249 191.50004 
L 170.960352 191.50004 
L 170.960352 190.446667 
L 171.485334 190.446667 
L 171.485334 189.919981 
L 171.771231 189.919981 
L 171.871027 188.866609 
L 172.150719 188.866609 
L 172.20775 186.233179 
L 172.720707 186.233179 
L 172.791647 184.653121 
L 173.049317 184.653121 
L 173.049317 184.126434 
L 173.242018 184.126434 
L 173.272654 182.546376 
L 173.598631 182.546376 
L 173.598631 181.493004 
L 173.859536 181.493004 
L 173.859536 180.966318 
L 173.999552 180.966318 
L 174.00689 178.332888 
L 174.555749 178.332888 
L 174.555749 176.752829 
L 175.046437 176.752829 
L 175.136064 175.699457 
L 175.704345 175.699457 
L 175.704345 175.172771 
L 175.876553 175.172771 
L 175.883143 172.539341 
L 176.099213 172.539341 
L 176.099213 170.959282 
L 176.389606 170.959282 
L 176.434347 169.379224 
L 176.687829 169.379224 
L 176.687829 168.852538 
L 176.97485 168.852538 
L 176.97485 168.325852 
L 177.281564 168.325852 
L 177.281564 167.27248 
L 177.499105 167.27248 
L 177.499105 166.219108 
L 177.832198 166.219108 
L 177.902755 163.585677 
L 177.949635 163.585677 
L 178.048838 161.478933 
L 178.170609 161.478933 
L 178.228297 160.425561 
L 178.722297 160.425561 
L 178.8005 155.685386 
L 179.175434 155.685386 
L 179.175434 155.1587 
L 179.499694 155.1587 
L 179.499694 154.632014 
L 179.622413 154.632014 
L 179.728427 153.578642 
L 180.047846 153.578642 
L 180.047846 153.051956 
L 180.279789 153.051956 
L 180.320702 150.945211 
L 180.714656 150.945211 
L 180.794378 149.891839 
L 180.853932 149.891839 
L 180.937953 148.838467 
L 181.553151 148.838467 
L 181.64335 147.785095 
L 181.742504 147.785095 
L 181.742504 147.258409 
L 181.929824 147.258409 
L 181.929824 146.205037 
L 182.325874 146.205037 
L 182.362263 145.151665 
L 182.775365 145.151665 
L 182.775365 144.624978 
L 182.903579 144.624978 
L 182.903579 144.098292 
L 183.061441 144.098292 
L 183.157214 140.938176 
L 183.342901 140.938176 
L 183.424323 138.304745 
L 183.573323 138.304745 
L 183.649459 136.724687 
L 183.742064 136.724687 
L 183.830004 135.671315 
L 183.909189 135.671315 
L 183.983875 134.091257 
L 184.148709 134.091257 
L 184.165107 133.037885 
L 184.457665 133.037885 
L 184.457665 132.511199 
L 184.650012 132.511199 
L 184.701742 131.457826 
L 184.836318 131.457826 
L 184.836318 130.93114 
L 185.145055 130.93114 
L 185.172149 129.877768 
L 185.425565 129.877768 
L 185.501636 126.190966 
L 185.566037 126.190966 
L 185.581155 125.137593 
L 185.802645 125.137593 
L 185.821287 124.084221 
L 185.99924 124.084221 
L 186.058157 123.030849 
L 186.175396 123.030849 
L 186.280968 121.450791 
L 186.320845 121.450791 
L 186.320845 120.397419 
L 186.479451 120.397419 
L 186.540346 119.344047 
L 186.682796 119.344047 
L 186.682796 118.817361 
L 186.8487 118.817361 
L 186.897815 117.237302 
L 187.026957 117.237302 
L 187.051282 115.657244 
L 187.378095 115.657244 
L 187.486815 114.077186 
L 187.551048 114.077186 
L 187.648634 113.023814 
L 187.755686 113.023814 
L 187.755686 112.497128 
L 187.888582 112.497128 
L 187.888582 111.443755 
L 188.046733 111.443755 
L 188.105672 108.283639 
L 188.177438 108.283639 
L 188.252153 107.230267 
L 188.394199 107.230267 
L 188.458385 106.176895 
L 188.557408 106.176895 
L 188.662206 104.596836 
L 188.712791 104.596836 
L 188.810385 103.543464 
L 189.118447 103.543464 
L 189.195387 102.490092 
L 189.250575 102.490092 
L 189.323888 99.329976 
L 189.454474 99.329976 
L 189.508849 97.749917 
L 189.629079 97.749917 
L 189.629079 97.223231 
L 189.766327 97.223231 
L 189.86117 95.116487 
L 189.94962 95.116487 
L 189.94962 94.063115 
L 190.339308 94.063115 
L 190.339308 91.95637 
L 190.67258 91.95637 
L 190.67258 91.429684 
L 190.787877 91.429684 
L 190.787877 90.902998 
L 190.996833 90.902998 
L 190.996833 90.376312 
L 191.282504 90.376312 
L 191.364047 89.32294 
L 191.412791 89.32294 
L 191.496419 88.269568 
L 191.601063 88.269568 
L 191.657151 87.216196 
L 191.784679 87.216196 
L 191.866547 85.109451 
L 192.065646 85.109451 
L 192.156577 84.056079 
L 192.22382 84.056079 
L 192.277944 82.476021 
L 192.692427 82.476021 
L 192.767651 79.842591 
L 192.807638 79.842591 
L 192.867447 77.735846 
L 193.001272 77.735846 
L 193.001272 77.20916 
L 193.219618 77.20916 
L 193.278033 72.468985 
L 193.476154 72.468985 
L 193.476154 71.942299 
L 193.600635 71.942299 
L 193.643519 69.835555 
L 193.816362 69.835555 
L 193.839906 67.728811 
L 193.940786 67.728811 
L 193.940786 67.202125 
L 194.163923 67.202125 
L 194.230771 65.622066 
L 194.281313 65.622066 
L 194.391081 62.46195 
L 194.404753 62.46195 
L 194.504692 60.355206 
L 194.540892 60.355206 
L 194.540892 59.301833 
L 194.653535 59.301833 
L 194.653535 58.248461 
L 194.818922 58.248461 
L 194.845594 56.668403 
L 195.145064 56.668403 
L 195.145064 55.615031 
L 195.284231 55.615031 
L 195.362027 52.9816 
L 195.448063 52.9816 
L 195.448063 50.874856 
L 195.572064 50.874856 
L 195.633736 48.768112 
L 195.737447 48.768112 
L 195.783811 47.71474 
L 195.874078 47.71474 
L 195.874078 47.188054 
L 195.986779 47.188054 
L 195.986779 46.134681 
L 196.187411 46.134681 
L 196.193579 45.081309 
L 196.334855 45.081309 
L 196.334855 44.554623 
L 196.48915 44.554623 
L 196.531544 43.501251 
L 196.69211 43.501251 
L 196.69211 42.447879 
L 196.85319 42.447879 
L 196.85319 41.921193 
L 197.02848 41.921193 
L 197.106692 39.814448 
L 197.271737 39.814448 
L 197.314201 37.707704 
L 197.53641 37.707704 
L 197.637001 36.654332 
L 197.81212 36.654332 
L 197.864502 35.60096 
L 198.059543 35.60096 
L 198.136953 33.494215 
L 198.221342 33.494215 
L 198.221342 32.967529 
L 198.885674 32.967529 
L 198.885674 32.440843 
L 199.270732 32.440843 
L 199.270732 31.914157 
L 200.332036 31.914157 
L 200.332036 31.387471 
L 200.591163 31.387471 
L 200.591163 30.860785 
L 201.699086 30.860785 
L 201.699086 30.334099 
L 338.688 30.334099 
L 338.688 30.334099 
" style="fill:none;stroke:#000080;stroke-linecap:square;stroke-width:1.5;"/>
   </g>
   <g id="line2d_36">
    <defs>
     <path d="M 0 6 
C 1.591219 6 3.117479 5.367802 4.242641 4.242641 
C 5.367802 3.117479 6 1.591219 6 0 
C 6 -1.591219 5.367802 -3.117479 4.242641 -4.242641 
C 3.117479 -5.367802 1.591219 -6 0 -6 
C -1.591219 -6 -3.117479 -5.367802 -4.242641 -4.242641 
C -5.367802 -3.117479 -6 -1.591219 -6 0 
C -6 1.591219 -5.367802 3.117479 -4.242641 4.242641 
C -3.117479 5.367802 -1.591219 6 0 6 
z
" id="me24879f1b9" style="stroke:#000080;stroke-width:1.5;"/>
    </defs>
    <g>
     <use style="fill-opacity:0;stroke:#000080;stroke-width:1.5;" x="126.729009" xlink:href="#me24879f1b9" y="258.389172"/>
     <use style="fill-opacity:0;stroke:#000080;stroke-width:1.5;" x="178.048838" xlink:href="#me24879f1b9" y="161.478933"/>
     <use style="fill-opacity:0;stroke:#000080;stroke-width:1.5;" x="201.699086" xlink:href="#me24879f1b9" y="30.860785"/>
     <use style="fill-opacity:0;stroke:#000080;stroke-width:1.5;" x="201.699086" xlink:href="#me24879f1b9" y="30.334099"/>
     <use style="fill-opacity:0;stroke:#000080;stroke-width:1.5;" x="201.699086" xlink:href="#me24879f1b9" y="30.334099"/>
     <use style="fill-opacity:0;stroke:#000080;stroke-width:1.5;" x="338.688" xlink:href="#me24879f1b9" y="30.334099"/>
    </g>
   </g>
   <g id="line2d_37">
    <path style="fill:none;stroke:#000080;stroke-linecap:square;stroke-width:1.5;"/>
    <g/>
   </g>
   <g id="line2d_38">
    <defs>
     <path d="M 0 1.5 
C 0.397805 1.5 0.77937 1.341951 1.06066 1.06066 
C 1.341951 0.77937 1.5 0.397805 1.5 0 
C 1.5 -0.397805 1.341951 -0.77937 1.06066 -1.06066 
C 0.77937 -1.341951 0.397805 -1.5 0 -1.5 
C -0.397805 -1.5 -0.77937 -1.341951 -1.06066 -1.06066 
C -1.341951 -0.77937 -1.5 -0.397805 -1.5 0 
C -1.5 0.397805 -1.341951 0.77937 -1.06066 1.06066 
C -0.77937 1.341951 -0.397805 1.5 0 1.5 
z
" id="md16f6edb26" style="stroke:#ff00ff;"/>
    </defs>
    <g>
     <use style="fill:#ff00ff;stroke:#ff00ff;" x="217.491633" xlink:href="#md16f6edb26" y="30.334099"/>
     <use style="fill:#ff00ff;stroke:#ff00ff;" x="217.491633" xlink:href="#md16f6edb26" y="30.334099"/>
    </g>
   </g>
   <g id="line2d_39">
    <path d="M 38.440992 298.944 
L 38.440992 295.783884 
L 57.6 295.783884 
L 57.6 294.203825 
L 62.616969 294.203825 
L 62.616969 293.677139 
L 69.687988 293.677139 
L 69.687988 292.623767 
L 78.59642 292.623767 
L 78.59642 292.097081 
L 81.775977 292.097081 
L 81.775977 289.990337 
L 84.464254 289.990337 
L 84.464254 289.463651 
L 85.66744 289.463651 
L 85.66744 287.356906 
L 91.535274 287.356906 
L 91.535274 286.83022 
L 97.755429 286.83022 
L 97.755429 285.250162 
L 98.32726 285.250162 
L 98.32726 283.143418 
L 99.41757 283.143418 
L 99.41757 280.509987 
L 102.772397 280.509987 
L 102.772397 279.456615 
L 103.623262 279.456615 
L 103.623262 276.823185 
L 104.033617 276.823185 
L 104.033617 275.243126 
L 105.584798 275.243126 
L 105.584798 273.136382 
L 110.415248 273.136382 
L 110.415248 272.609696 
L 111.239304 272.609696 
L 111.239304 271.556324 
L 114.641021 271.556324 
L 114.641021 271.029638 
L 115.077025 271.029638 
L 115.077025 270.502952 
L 117.486268 270.502952 
L 117.486268 269.449579 
L 118.039942 269.449579 
L 118.039942 267.869521 
L 122.503236 267.869521 
L 122.503236 267.342835 
L 123.593547 267.342835 
L 123.593547 266.289463 
L 124.619683 266.289463 
L 124.619683 265.762777 
L 124.743806 265.762777 
L 124.743806 265.236091 
L 124.867052 265.236091 
L 124.867052 264.709405 
L 126.053856 264.709405 
L 126.053856 264.182719 
L 126.839037 264.182719 
L 126.839037 262.60266 
L 127.05703 262.60266 
L 127.165014 261.549288 
L 128.209594 261.549288 
L 128.209594 260.495916 
L 131.185181 260.495916 
L 131.185181 259.96923 
L 132.019755 259.96923 
L 132.019755 259.442544 
L 133.503183 259.442544 
L 133.503183 258.915858 
L 134.800918 258.915858 
L 134.800918 256.809114 
L 137.077422 256.809114 
L 137.077422 255.755741 
L 137.617753 255.755741 
L 137.617753 254.702369 
L 138.761723 254.702369 
L 138.761723 253.648997 
L 141.187031 253.648997 
L 141.187031 253.122311 
L 141.615302 253.122311 
L 141.615302 252.068939 
L 143.31586 252.068939 
L 143.31586 251.015567 
L 143.485587 251.015567 
L 143.485587 250.488881 
L 144.430703 250.488881 
L 144.430703 249.962195 
L 144.787023 249.962195 
L 144.787023 247.85545 
L 145.516164 247.85545 
L 145.516164 246.275392 
L 147.736463 246.275392 
L 147.736463 245.22202 
L 147.933891 245.22202 
L 147.933891 244.695334 
L 148.386046 244.695334 
L 148.386046 244.168648 
L 149.165411 244.168648 
L 149.226281 242.588589 
L 151.975216 242.588589 
L 151.975216 242.061903 
L 152.207228 242.061903 
L 152.207228 241.535217 
L 153.820412 241.535217 
L 153.820412 241.008531 
L 154.46214 241.008531 
L 154.46214 240.481845 
L 155.275461 240.481845 
L 155.275461 239.955159 
L 156.195732 239.955159 
L 156.195732 239.428473 
L 156.914157 239.428473 
L 156.914157 238.901787 
L 159.405822 238.901787 
L 159.405822 238.375101 
L 160.727241 238.375101 
L 160.727241 237.848415 
L 162.289115 237.848415 
L 162.289115 237.321729 
L 162.545789 237.321729 
L 162.545789 236.795043 
L 163.8937 236.795043 
L 163.8937 235.74167 
L 164.687696 235.74167 
L 164.687696 235.214984 
L 165.096013 235.214984 
L 165.096013 234.688298 
L 165.649687 234.688298 
L 165.649687 234.161612 
L 166.662278 234.161612 
L 166.662278 233.634926 
L 166.840232 233.634926 
L 166.840232 233.10824 
L 167.114699 233.10824 
L 167.114699 232.054868 
L 167.395635 232.054868 
L 167.395635 231.528182 
L 167.724788 231.528182 
L 167.724788 231.001496 
L 168.232714 231.001496 
L 168.232714 230.47481 
L 168.686493 230.47481 
L 168.726264 228.894751 
L 169.748427 228.894751 
L 169.748427 227.841379 
L 170.036379 227.841379 
L 170.137423 226.261321 
L 170.346825 226.261321 
L 170.40104 224.154577 
L 170.562682 224.154577 
L 170.562682 223.101204 
L 171.099589 223.101204 
L 171.099589 222.574518 
L 171.67086 222.574518 
L 171.67086 222.047832 
L 171.945501 222.047832 
L 171.945501 221.521146 
L 172.689086 221.521146 
L 172.689086 220.99446 
L 172.956059 220.99446 
L 172.956059 220.467774 
L 173.165193 220.467774 
L 173.165193 219.941088 
L 173.770522 219.941088 
L 173.770522 218.887716 
L 174.654998 218.887716 
L 174.654998 218.36103 
L 174.858804 218.36103 
L 174.858804 217.834344 
L 175.286698 217.834344 
L 175.286698 216.780971 
L 176.370396 216.780971 
L 176.370396 216.254285 
L 176.725536 216.254285 
L 176.725536 214.674227 
L 177.287644 214.674227 
L 177.311941 212.040797 
L 177.672393 212.040797 
L 177.672393 211.514111 
L 178.234056 211.514111 
L 178.234056 210.460738 
L 179.338318 210.460738 
L 179.338318 209.407366 
L 179.537135 209.407366 
L 179.537135 208.88068 
L 180.274668 208.88068 
L 180.274668 208.353994 
L 181.284554 208.353994 
L 181.284554 207.827308 
L 181.915844 207.827308 
L 181.915844 207.300622 
L 182.138181 207.300622 
L 182.138181 206.773936 
L 182.52958 206.773936 
L 182.52958 206.24725 
L 183.013357 206.24725 
L 183.013357 205.193878 
L 183.556359 205.193878 
L 183.556359 204.667192 
L 183.750459 204.667192 
L 183.830004 203.087133 
L 184.546087 203.087133 
L 184.546087 202.560447 
L 184.681864 202.560447 
L 184.709687 200.453703 
L 184.863896 200.453703 
L 184.863896 199.927017 
L 185.306995 199.927017 
L 185.306995 199.400331 
L 185.577377 199.400331 
L 185.577377 198.873645 
L 185.783983 198.873645 
L 185.783983 197.820273 
L 186.393118 197.820273 
L 186.393118 197.293586 
L 186.925819 197.293586 
L 187.026957 196.240214 
L 187.371278 196.240214 
L 187.459699 194.660156 
L 187.732324 194.660156 
L 187.838865 193.606784 
L 188.829211 193.606784 
L 188.829211 193.080098 
L 189.38171 193.080098 
L 189.451449 191.50004 
L 190.122273 191.50004 
L 190.122273 190.973354 
L 190.238361 190.973354 
L 190.339308 189.919981 
L 190.919115 189.919981 
L 190.935798 188.339923 
L 191.192364 188.339923 
L 191.206052 187.286551 
L 191.404676 187.286551 
L 191.404676 186.233179 
L 191.517936 186.233179 
L 191.517936 185.706493 
L 191.789972 185.706493 
L 191.789972 183.599748 
L 191.934916 183.599748 
L 192.003018 180.966318 
L 192.153986 180.966318 
L 192.153986 179.912946 
L 192.416351 179.912946 
L 192.518172 178.859574 
L 192.949351 178.859574 
L 193.045653 175.172771 
L 193.507358 175.172771 
L 193.581542 173.592713 
L 193.743172 173.592713 
L 193.743172 173.066027 
L 193.872815 173.066027 
L 193.872815 172.539341 
L 194.331709 172.539341 
L 194.402475 169.90591 
L 194.631064 169.90591 
L 194.631064 168.852538 
L 195.162521 168.852538 
L 195.227828 165.692422 
L 195.305876 165.692422 
L 195.379268 164.63905 
L 195.458787 164.63905 
L 195.458787 164.112363 
L 195.589099 164.112363 
L 195.657072 162.005619 
L 195.722669 162.005619 
L 195.722669 161.478933 
L 195.867796 161.478933 
L 195.953462 159.372189 
L 196.03456 159.372189 
L 196.08428 156.738758 
L 196.18124 156.738758 
L 196.18124 156.212072 
L 196.40405 156.212072 
L 196.430435 153.578642 
L 196.607997 153.578642 
L 196.607997 153.051956 
L 196.869019 153.051956 
L 196.869019 152.52527 
L 197.014757 152.52527 
L 197.014757 151.998584 
L 197.25627 151.998584 
L 197.25627 151.471897 
L 197.475393 151.471897 
L 197.557335 149.365153 
L 197.907412 149.365153 
L 198.007745 148.311781 
L 198.308968 148.311781 
L 198.374399 146.205037 
L 198.461261 146.205037 
L 198.466676 145.151665 
L 198.63191 145.151665 
L 198.687236 142.518234 
L 198.809755 142.518234 
L 198.809755 141.991548 
L 198.952491 141.991548 
L 199.057473 140.938176 
L 199.08362 140.938176 
L 199.109728 139.884804 
L 199.265561 139.884804 
L 199.265561 139.358118 
L 199.455856 139.358118 
L 199.455856 137.778059 
L 199.583269 137.778059 
L 199.672749 135.671315 
L 199.986497 135.671315 
L 200.072292 134.617943 
L 200.20183 134.617943 
L 200.270309 131.457826 
L 200.343382 131.457826 
L 200.417764 129.877768 
L 200.485402 129.877768 
L 200.57518 128.29771 
L 200.67086 128.29771 
L 200.697874 126.717652 
L 200.786568 126.717652 
L 200.885811 125.137593 
L 200.931306 125.137593 
L 200.931306 124.084221 
L 201.057752 124.084221 
L 201.104352 122.504163 
L 201.350804 122.504163 
L 201.350804 121.977477 
L 201.56665 121.977477 
L 201.658559 120.924105 
L 201.685588 120.924105 
L 201.793284 118.290674 
L 201.800738 118.290674 
L 201.833499 116.18393 
L 201.991965 116.18393 
L 202.037608 114.603872 
L 202.109511 114.603872 
L 202.109511 112.497128 
L 202.22336 112.497128 
L 202.324903 109.863697 
L 202.343696 109.863697 
L 202.437359 106.703581 
L 202.553378 106.703581 
L 202.616079 105.650209 
L 202.894074 105.650209 
L 202.954169 102.490092 
L 203.018228 102.490092 
L 203.120788 99.329976 
L 203.294041 99.329976 
L 203.335039 98.276603 
L 203.502131 98.276603 
L 203.557475 96.696545 
L 203.750472 96.696545 
L 203.839547 95.643173 
L 203.982178 95.643173 
L 204.079238 93.536429 
L 204.199159 93.536429 
L 204.271753 91.95637 
L 204.368505 91.95637 
L 204.440399 88.269568 
L 204.483904 88.269568 
L 204.542592 86.68951 
L 204.747718 86.68951 
L 204.747718 86.162824 
L 204.962897 86.162824 
L 205.021237 83.529393 
L 205.165624 83.529393 
L 205.231863 80.895963 
L 205.351436 80.895963 
L 205.351436 79.315904 
L 205.507594 79.315904 
L 205.591749 77.735846 
L 205.639655 77.735846 
L 205.687431 76.682474 
L 205.784964 76.682474 
L 205.809854 75.102416 
L 205.957281 75.102416 
L 206.043974 73.522358 
L 206.137213 73.522358 
L 206.137213 72.995672 
L 206.659366 72.995672 
L 206.762843 69.308869 
L 206.826648 69.308869 
L 206.870169 68.255497 
L 206.964649 68.255497 
L 206.964649 67.728811 
L 207.753538 67.728811 
L 207.797981 65.622066 
L 207.895987 65.622066 
L 207.997625 64.568694 
L 208.027897 64.568694 
L 208.118399 63.515322 
L 208.184677 63.515322 
L 208.229066 61.935264 
L 208.450351 61.935264 
L 208.531601 60.881892 
L 208.575117 60.881892 
L 208.633642 59.82852 
L 209.38676 59.82852 
L 209.450319 58.775147 
L 209.498317 58.775147 
L 209.498317 57.721775 
L 209.737286 57.721775 
L 209.775068 56.668403 
L 209.854145 56.668403 
L 209.885114 55.615031 
L 210.206541 55.615031 
L 210.206541 55.088345 
L 211.134992 55.088345 
L 211.194238 54.034973 
L 211.563442 54.034973 
L 211.563442 52.9816 
L 211.775886 52.9816 
L 211.886581 51.401542 
L 211.888252 51.401542 
L 211.888252 50.874856 
L 212.153695 50.874856 
L 212.251386 48.768112 
L 212.38269 48.768112 
L 212.38269 48.241426 
L 212.854798 48.241426 
L 212.931336 47.188054 
L 213.253508 47.188054 
L 213.270503 46.134681 
L 213.429613 46.134681 
L 213.429613 45.081309 
L 213.589558 45.081309 
L 213.589558 44.554623 
L 213.770575 44.554623 
L 213.849183 42.974565 
L 213.970514 42.974565 
L 213.978672 41.921193 
L 214.088797 41.921193 
L 214.18578 40.867821 
L 214.381042 40.867821 
L 214.381042 40.341135 
L 214.56339 40.341135 
L 214.56339 39.814448 
L 214.973661 39.814448 
L 214.977162 38.761076 
L 216.210989 38.761076 
L 216.210989 37.181018 
L 216.344858 37.181018 
L 216.344858 35.60096 
L 216.656036 35.60096 
L 216.748 34.547588 
L 216.995468 34.547588 
L 217.073872 31.914157 
L 217.443072 31.914157 
L 217.491633 30.334099 
L 338.688 30.334099 
L 338.688 30.334099 
" style="fill:none;stroke:#ff00ff;stroke-linecap:square;stroke-width:1.5;"/>
   </g>
   <g id="line2d_40">
    <defs>
     <path d="M 0 8.485281 
L 5.091169 0 
L 0 -8.485281 
L -5.091169 0 
z
" id="mb833ca0669" style="stroke:#ff00ff;stroke-linejoin:miter;stroke-width:1.5;"/>
    </defs>
    <g>
     <use style="fill-opacity:0;stroke:#ff00ff;stroke-linejoin:miter;stroke-width:1.5;" x="141.187031" xlink:href="#mb833ca0669" y="253.122311"/>
     <use style="fill-opacity:0;stroke:#ff00ff;stroke-linejoin:miter;stroke-width:1.5;" x="200.808671" xlink:href="#mb833ca0669" y="125.66428"/>
     <use style="fill-opacity:0;stroke:#ff00ff;stroke-linejoin:miter;stroke-width:1.5;" x="217.491633" xlink:href="#mb833ca0669" y="30.860785"/>
     <use style="fill-opacity:0;stroke:#ff00ff;stroke-linejoin:miter;stroke-width:1.5;" x="217.491633" xlink:href="#mb833ca0669" y="30.334099"/>
     <use style="fill-opacity:0;stroke:#ff00ff;stroke-linejoin:miter;stroke-width:1.5;" x="217.491633" xlink:href="#mb833ca0669" y="30.334099"/>
     <use style="fill-opacity:0;stroke:#ff00ff;stroke-linejoin:miter;stroke-width:1.5;" x="338.688" xlink:href="#mb833ca0669" y="30.334099"/>
    </g>
   </g>
   <g id="line2d_41">
    <path style="fill:none;stroke:#ff00ff;stroke-linecap:square;stroke-width:1.5;"/>
    <g/>
   </g>
   <g id="line2d_42">
    <defs>
     <path d="M 0 1.5 
C 0.397805 1.5 0.77937 1.341951 1.06066 1.06066 
C 1.341951 0.77937 1.5 0.397805 1.5 0 
C 1.5 -0.397805 1.341951 -0.77937 1.06066 -1.06066 
C 0.77937 -1.341951 0.397805 -1.5 0 -1.5 
C -0.397805 -1.5 -0.77937 -1.341951 -1.06066 -1.06066 
C -1.341951 -0.77937 -1.5 -0.397805 -1.5 0 
C -1.5 0.397805 -1.341951 0.77937 -1.06066 1.06066 
C -0.77937 1.341951 -0.397805 1.5 0 1.5 
z
" id="m283d460a58" style="stroke:#ff7500;"/>
    </defs>
    <g>
     <use style="fill:#ff7500;stroke:#ff7500;" x="214.980663" xlink:href="#m283d460a58" y="30.334099"/>
     <use style="fill:#ff7500;stroke:#ff7500;" x="214.980663" xlink:href="#m283d460a58" y="30.334099"/>
    </g>
   </g>
   <g id="line2d_43">
    <path d="M 38.440992 298.944 
L 38.440992 298.417314 
L 50.52898 298.417314 
L 50.52898 295.257197 
L 66.508432 295.257197 
L 66.508432 294.203825 
L 69.687988 294.203825 
L 69.687988 293.677139 
L 86.792945 293.677139 
L 86.792945 293.150453 
L 90.684409 293.150453 
L 90.684409 292.097081 
L 91.535274 292.097081 
L 91.535274 290.517023 
L 92.34655 290.517023 
L 92.34655 289.463651 
L 93.121756 289.463651 
L 93.121756 287.356906 
L 93.863965 287.356906 
L 93.863965 286.83022 
L 95.259853 286.83022 
L 95.259853 284.723476 
L 98.880934 284.723476 
L 98.880934 283.670104 
L 101.412804 283.670104 
L 101.412804 283.143418 
L 102.772397 283.143418 
L 102.772397 282.616732 
L 103.203018 282.616732 
L 103.203018 280.509987 
L 104.826449 280.509987 
L 104.826449 279.456615 
L 105.584798 279.456615 
L 105.584798 277.349871 
L 108.948899 277.349871 
L 108.948899 276.823185 
L 109.843417 276.823185 
L 109.843417 275.769812 
L 111.767808 275.769812 
L 111.767808 274.71644 
L 113.022974 274.71644 
L 113.022974 273.663068 
L 113.26352 273.663068 
L 113.26352 272.08301 
L 114.860386 272.08301 
L 114.860386 271.556324 
L 117.672786 271.556324 
L 117.672786 271.029638 
L 118.220662 271.029638 
L 118.220662 269.976266 
L 118.925375 269.976266 
L 118.925375 268.922893 
L 119.43583 268.922893 
L 119.43583 268.396207 
L 119.602714 268.396207 
L 119.602714 267.342835 
L 120.571812 267.342835 
L 120.571812 266.816149 
L 121.189196 266.816149 
L 121.189196 265.762777 
L 122.219665 265.762777 
L 122.219665 265.236091 
L 123.056911 265.236091 
L 123.056911 264.709405 
L 128.107907 264.709405 
L 128.107907 264.182719 
L 129.574256 264.182719 
L 129.574256 263.129347 
L 129.853291 263.129347 
L 129.853291 262.60266 
L 133.873458 262.60266 
L 133.873458 262.075974 
L 134.37898 262.075974 
L 134.37898 259.96923 
L 135.144899 259.96923 
L 135.144899 259.442544 
L 135.681535 259.442544 
L 135.681535 258.389172 
L 136.519813 258.389172 
L 136.519813 257.862486 
L 136.831795 257.862486 
L 136.831795 257.3358 
L 137.852629 257.3358 
L 137.852629 256.809114 
L 139.090775 256.809114 
L 139.090775 255.755741 
L 139.572998 255.755741 
L 139.572998 255.229055 
L 139.835248 255.229055 
L 139.835248 254.175683 
L 140.44901 254.175683 
L 140.44901 253.648997 
L 141.138789 253.648997 
L 141.235139 252.595625 
L 141.47371 252.595625 
L 141.521035 251.015567 
L 143.778691 251.015567 
L 143.778691 249.962195 
L 143.985075 249.962195 
L 143.985075 249.435508 
L 144.669057 249.435508 
L 144.708467 246.802078 
L 145.703082 246.802078 
L 145.703082 246.275392 
L 146.714338 246.275392 
L 146.714338 245.748706 
L 146.923612 245.748706 
L 146.923612 243.641962 
L 148.258051 243.641962 
L 148.258051 243.115275 
L 149.735275 243.115275 
L 149.735275 242.588589 
L 149.969756 242.588589 
L 149.969756 242.061903 
L 150.229833 242.061903 
L 150.229833 241.008531 
L 151.394733 241.008531 
L 151.394733 240.481845 
L 151.923236 240.481845 
L 151.923236 239.428473 
L 152.25837 239.428473 
L 152.25837 238.901787 
L 152.436193 238.901787 
L 152.436193 238.375101 
L 152.835965 238.375101 
L 152.835965 237.321729 
L 153.442821 237.321729 
L 153.442821 236.795043 
L 155.253971 236.795043 
L 155.318362 235.74167 
L 156.972711 235.74167 
L 156.972711 235.214984 
L 157.472107 235.214984 
L 157.472107 233.634926 
L 158.749613 233.634926 
L 158.749613 232.054868 
L 158.924708 232.054868 
L 158.924708 231.001496 
L 160.489968 231.001496 
L 160.489968 230.47481 
L 160.961329 230.47481 
L 160.961329 229.421437 
L 164.9363 229.421437 
L 164.9363 228.368065 
L 165.35096 228.368065 
L 165.35096 225.734635 
L 165.614109 225.734635 
L 165.614109 225.207949 
L 166.369174 225.207949 
L 166.369174 224.681263 
L 166.516342 224.681263 
L 166.516342 224.154577 
L 168.626667 224.154577 
L 168.626667 223.627891 
L 171.254912 223.627891 
L 171.254912 222.574518 
L 171.51075 222.574518 
L 171.51075 222.047832 
L 172.522125 222.047832 
L 172.522125 220.467774 
L 173.00275 220.467774 
L 173.00275 219.941088 
L 173.303236 219.941088 
L 173.38706 218.36103 
L 173.651125 218.36103 
L 173.718386 216.254285 
L 174.662065 216.254285 
L 174.662065 215.727599 
L 175.341154 215.727599 
L 175.341154 215.200913 
L 175.902897 215.200913 
L 175.902897 213.620855 
L 176.561548 213.620855 
L 176.561548 212.567483 
L 177.505109 212.567483 
L 177.523109 209.407366 
L 177.92621 209.407366 
L 177.92621 208.88068 
L 178.547874 208.88068 
L 178.547874 207.300622 
L 178.767027 207.300622 
L 178.767027 206.773936 
L 180.463148 206.773936 
L 180.463148 206.24725 
L 181.690637 206.24725 
L 181.690637 205.720564 
L 181.906518 205.720564 
L 181.906518 204.667192 
L 182.766488 204.667192 
L 182.766488 204.140506 
L 183.152872 204.140506 
L 183.230862 203.087133 
L 183.754654 203.087133 
L 183.754654 201.507075 
L 185.260879 201.507075 
L 185.260879 200.980389 
L 185.562255 200.980389 
L 185.664074 196.240214 
L 185.716636 196.240214 
L 185.76904 195.186842 
L 185.995551 195.186842 
L 185.995551 193.080098 
L 186.168092 193.080098 
L 186.168092 192.553412 
L 186.852213 192.553412 
L 186.852213 191.50004 
L 187.096367 191.50004 
L 187.096367 190.973354 
L 187.258402 190.973354 
L 187.289259 188.339923 
L 187.473262 188.339923 
L 187.547673 186.233179 
L 187.749014 186.233179 
L 187.749014 185.179807 
L 188.461588 185.179807 
L 188.461588 183.073062 
L 188.719104 183.073062 
L 188.719104 182.01969 
L 188.932393 182.01969 
L 188.969763 180.439632 
L 189.13078 180.439632 
L 189.13078 179.38626 
L 190.212308 179.38626 
L 190.212308 178.859574 
L 190.42251 178.859574 
L 190.42251 178.332888 
L 191.200578 178.332888 
L 191.200578 177.806202 
L 192.190231 177.806202 
L 192.190231 177.279515 
L 192.596676 177.279515 
L 192.637057 176.226143 
L 192.974094 176.226143 
L 193.016078 175.172771 
L 193.180566 175.172771 
L 193.268311 173.592713 
L 193.683923 173.592713 
L 193.759726 172.539341 
L 194.041086 172.539341 
L 194.041086 172.012655 
L 194.457066 172.012655 
L 194.463877 170.959282 
L 194.83004 170.959282 
L 194.86779 169.90591 
L 194.978348 169.90591 
L 194.978348 167.799166 
L 195.206086 167.799166 
L 195.266896 166.219108 
L 195.454498 166.219108 
L 195.465219 164.63905 
L 195.720557 164.63905 
L 195.777496 163.058991 
L 195.961797 163.058991 
L 195.961797 162.532305 
L 196.131796 162.532305 
L 196.131796 160.952247 
L 196.263336 160.952247 
L 196.263336 160.425561 
L 196.543638 160.425561 
L 196.644095 158.845503 
L 196.664117 158.845503 
L 196.664117 158.318817 
L 197.079358 158.318817 
L 197.079358 157.79213 
L 197.502114 157.79213 
L 197.502114 157.265444 
L 197.627536 157.265444 
L 197.669144 155.685386 
L 197.875706 155.685386 
L 197.94278 154.632014 
L 198.146145 154.632014 
L 198.225002 153.051956 
L 198.31807 153.051956 
L 198.405212 149.891839 
L 198.606866 149.891839 
L 198.606866 149.365153 
L 198.777876 149.365153 
L 198.799135 143.571606 
L 198.926146 143.571606 
L 199.033034 141.991548 
L 199.57311 141.991548 
L 199.57311 140.938176 
L 199.791903 140.938176 
L 199.901941 138.831432 
L 200.05912 138.831432 
L 200.05912 138.304745 
L 200.294701 138.304745 
L 200.294701 137.251373 
L 200.634245 137.251373 
L 200.73911 135.144629 
L 200.882669 135.144629 
L 200.925038 134.091257 
L 201.071745 134.091257 
L 201.071745 133.037885 
L 201.186375 133.037885 
L 201.186375 132.511199 
L 201.513696 132.511199 
L 201.5243 129.351082 
L 201.745501 129.351082 
L 201.761941 128.29771 
L 201.900319 128.29771 
L 201.972789 126.717652 
L 202.043489 126.717652 
L 202.146082 121.977477 
L 202.404274 121.977477 
L 202.404274 121.450791 
L 202.519082 121.450791 
L 202.526233 120.397419 
L 202.641664 120.397419 
L 202.704048 119.344047 
L 202.90527 119.344047 
L 202.90527 118.817361 
L 203.021008 118.817361 
L 203.119406 115.657244 
L 203.159437 115.657244 
L 203.159437 115.130558 
L 203.409953 115.130558 
L 203.439829 113.5505 
L 203.574986 113.5505 
L 203.574986 113.023814 
L 203.695739 113.023814 
L 203.706432 110.917069 
L 203.880607 110.917069 
L 203.979548 108.283639 
L 204.03471 108.283639 
L 204.136695 105.123522 
L 204.231604 105.123522 
L 204.231604 104.596836 
L 204.457046 104.596836 
L 204.508169 100.910034 
L 204.684665 100.910034 
L 204.702343 99.329976 
L 204.911845 99.329976 
L 205.021237 97.223231 
L 205.14964 97.223231 
L 205.14964 96.696545 
L 205.336839 96.696545 
L 205.336839 96.169859 
L 205.478647 96.169859 
L 205.537696 93.009743 
L 205.590549 93.009743 
L 205.591749 91.429684 
L 205.793265 91.429684 
L 205.851259 89.849626 
L 205.944357 89.849626 
L 205.985445 87.742882 
L 206.137213 87.742882 
L 206.137213 87.216196 
L 206.294586 87.216196 
L 206.294586 86.162824 
L 206.460823 86.162824 
L 206.465386 85.109451 
L 206.707807 85.109451 
L 206.763965 80.895963 
L 206.8434 80.895963 
L 206.909135 78.262532 
L 206.964649 78.262532 
L 207.025512 76.682474 
L 207.428441 76.682474 
L 207.480176 75.629102 
L 207.601369 75.629102 
L 207.707921 72.468985 
L 207.765189 72.468985 
L 207.862326 69.308869 
L 207.934826 69.308869 
L 207.947404 68.255497 
L 208.120474 68.255497 
L 208.214626 65.622066 
L 208.313403 65.622066 
L 208.398356 64.568694 
L 208.466631 64.568694 
L 208.484928 63.515322 
L 208.603395 63.515322 
L 208.649752 62.46195 
L 208.891621 62.46195 
L 208.920381 59.82852 
L 209.119408 59.82852 
L 209.126264 58.248461 
L 209.375179 58.248461 
L 209.421458 53.508287 
L 209.581518 53.508287 
L 209.651976 51.928228 
L 209.804293 51.928228 
L 209.897298 50.34817 
L 209.978622 50.34817 
L 209.978622 49.294798 
L 210.27544 49.294798 
L 210.27544 48.768112 
L 210.466016 48.768112 
L 210.574503 44.027937 
L 210.612315 44.027937 
L 210.612315 43.501251 
L 210.724367 43.501251 
L 210.724367 42.974565 
L 210.955154 42.974565 
L 210.955154 42.447879 
L 211.122769 42.447879 
L 211.128882 39.814448 
L 211.303489 39.814448 
L 211.303489 39.287762 
L 211.721119 39.287762 
L 211.721119 38.761076 
L 211.855623 38.761076 
L 211.932496 36.654332 
L 212.060422 36.654332 
L 212.128157 34.020902 
L 212.596681 34.020902 
L 212.596681 33.494215 
L 213.32678 33.494215 
L 213.32678 32.440843 
L 213.569076 32.440843 
L 213.569076 31.914157 
L 213.702914 31.914157 
L 213.702914 31.387471 
L 214.172587 31.387471 
L 214.172587 30.860785 
L 214.980663 30.860785 
L 214.980663 30.334099 
L 338.688 30.334099 
L 338.688 30.334099 
" style="fill:none;stroke:#ff7500;stroke-linecap:square;stroke-width:1.5;"/>
   </g>
   <g id="line2d_44">
    <defs>
     <path d="M 0 -6 
L -1.347084 -1.854102 
L -5.706339 -1.854102 
L -2.179628 0.708204 
L -3.526712 4.854102 
L -0 2.291796 
L 3.526712 4.854102 
L 2.179628 0.708204 
L 5.706339 -1.854102 
L 1.347084 -1.854102 
z
" id="m7eaa9cad89" style="stroke:#ff7500;stroke-linejoin:bevel;stroke-width:1.5;"/>
    </defs>
    <g>
     <use style="fill-opacity:0;stroke:#ff7500;stroke-linejoin:bevel;stroke-width:1.5;" x="121.189196" xlink:href="#m7eaa9cad89" y="266.816149"/>
     <use style="fill-opacity:0;stroke:#ff7500;stroke-linejoin:bevel;stroke-width:1.5;" x="196.644095" xlink:href="#m7eaa9cad89" y="159.898875"/>
     <use style="fill-opacity:0;stroke:#ff7500;stroke-linejoin:bevel;stroke-width:1.5;" x="214.980663" xlink:href="#m7eaa9cad89" y="30.860785"/>
     <use style="fill-opacity:0;stroke:#ff7500;stroke-linejoin:bevel;stroke-width:1.5;" x="214.980663" xlink:href="#m7eaa9cad89" y="30.334099"/>
     <use style="fill-opacity:0;stroke:#ff7500;stroke-linejoin:bevel;stroke-width:1.5;" x="214.980663" xlink:href="#m7eaa9cad89" y="30.334099"/>
     <use style="fill-opacity:0;stroke:#ff7500;stroke-linejoin:bevel;stroke-width:1.5;" x="338.688" xlink:href="#m7eaa9cad89" y="30.334099"/>
    </g>
   </g>
   <g id="line2d_45">
    <path style="fill:none;stroke:#ff7500;stroke-linecap:square;stroke-width:1.5;"/>
    <g/>
   </g>
   <g id="line2d_46">
    <path d="M 338.688 30.334099 
L 369.60768 293.571802 
" style="fill:none;stroke:#ff00ff;stroke-linecap:square;stroke-width:1.5;"/>
    <g>
     <use style="fill-opacity:0;stroke:#ff00ff;stroke-linejoin:miter;stroke-width:1.5;" x="338.688" xlink:href="#mb833ca0669" y="30.334099"/>
     <use style="fill-opacity:0;stroke:#ff00ff;stroke-linejoin:miter;stroke-width:1.5;" x="369.60768" xlink:href="#mb833ca0669" y="293.571802"/>
    </g>
   </g>
   <g id="line2d_47">
    <path d="M 338.688 30.334099 
L 369.60768 207.616634 
" style="fill:none;stroke:#ff7500;stroke-linecap:square;stroke-width:1.5;"/>
    <g>
     <use style="fill-opacity:0;stroke:#ff7500;stroke-linejoin:bevel;stroke-width:1.5;" x="338.688" xlink:href="#m7eaa9cad89" y="30.334099"/>
     <use style="fill-opacity:0;stroke:#ff7500;stroke-linejoin:bevel;stroke-width:1.5;" x="369.60768" xlink:href="#m7eaa9cad89" y="207.616634"/>
    </g>
   </g>
   <g id="line2d_48">
    <path d="M 338.688 30.334099 
L 369.60768 121.661465 
" style="fill:none;stroke:#000080;stroke-linecap:square;stroke-width:1.5;"/>
    <g>
     <use style="fill-opacity:0;stroke:#000080;stroke-width:1.5;" x="338.688" xlink:href="#me24879f1b9" y="30.334099"/>
     <use style="fill-opacity:0;stroke:#000080;stroke-width:1.5;" x="369.60768" xlink:href="#me24879f1b9" y="121.661465"/>
    </g>
   </g>
   <g id="line2d_49">
    <path d="M 338.688 298.944 
L 338.688 30.334099 
" style="fill:none;stroke:#000000;stroke-linecap:square;stroke-width:1.5;"/>
   </g>
   <g id="patch_3">
    <path d="M 57.6 298.944 
L 57.6 27.648 
" style="fill:none;stroke:#000000;stroke-linecap:square;stroke-linejoin:miter;stroke-width:0.8;"/>
   </g>
   <g id="patch_4">
    <path d="M 338.688 298.944 
L 338.688 27.648 
" style="fill:none;stroke:#000000;stroke-linecap:square;stroke-linejoin:miter;stroke-width:0.8;"/>
   </g>
   <g id="patch_5">
    <path d="M 57.6 298.944 
L 338.688 298.944 
" style="fill:none;stroke:#000000;stroke-linecap:square;stroke-linejoin:miter;stroke-width:0.8;"/>
   </g>
   <g id="patch_6">
    <path d="M 57.6 27.648 
L 338.688 27.648 
" style="fill:none;stroke:#000000;stroke-linecap:square;stroke-linejoin:miter;stroke-width:0.8;"/>
   </g>
   <g id="text_13">
    <!-- PSO Bound -->
    <g transform="translate(375.22944 298.262739)scale(0.17 -0.17)">
     <defs>
      <path d="M 1259 4147 
L 1259 2394 
L 2053 2394 
Q 2494 2394 2734 2622 
Q 2975 2850 2975 3272 
Q 2975 3691 2734 3919 
Q 2494 4147 2053 4147 
L 1259 4147 
z
M 628 4666 
L 2053 4666 
Q 2838 4666 3239 4311 
Q 3641 3956 3641 3272 
Q 3641 2581 3239 2228 
Q 2838 1875 2053 1875 
L 1259 1875 
L 1259 0 
L 628 0 
L 628 4666 
z
" id="DejaVuSans-50" transform="scale(0.015625)"/>
      <path d="M 3425 4513 
L 3425 3897 
Q 3066 4069 2747 4153 
Q 2428 4238 2131 4238 
Q 1616 4238 1336 4038 
Q 1056 3838 1056 3469 
Q 1056 3159 1242 3001 
Q 1428 2844 1947 2747 
L 2328 2669 
Q 3034 2534 3370 2195 
Q 3706 1856 3706 1288 
Q 3706 609 3251 259 
Q 2797 -91 1919 -91 
Q 1588 -91 1214 -16 
Q 841 59 441 206 
L 441 856 
Q 825 641 1194 531 
Q 1563 422 1919 422 
Q 2459 422 2753 634 
Q 3047 847 3047 1241 
Q 3047 1584 2836 1778 
Q 2625 1972 2144 2069 
L 1759 2144 
Q 1053 2284 737 2584 
Q 422 2884 422 3419 
Q 422 4038 858 4394 
Q 1294 4750 2059 4750 
Q 2388 4750 2728 4690 
Q 3069 4631 3425 4513 
z
" id="DejaVuSans-53" transform="scale(0.015625)"/>
      <path d="M 2522 4238 
Q 1834 4238 1429 3725 
Q 1025 3213 1025 2328 
Q 1025 1447 1429 934 
Q 1834 422 2522 422 
Q 3209 422 3611 934 
Q 4013 1447 4013 2328 
Q 4013 3213 3611 3725 
Q 3209 4238 2522 4238 
z
M 2522 4750 
Q 3503 4750 4090 4092 
Q 4678 3434 4678 2328 
Q 4678 1225 4090 567 
Q 3503 -91 2522 -91 
Q 1538 -91 948 565 
Q 359 1222 359 2328 
Q 359 3434 948 4092 
Q 1538 4750 2522 4750 
z
" id="DejaVuSans-4f" transform="scale(0.015625)"/>
      <path d="M 1259 2228 
L 1259 519 
L 2272 519 
Q 2781 519 3026 730 
Q 3272 941 3272 1375 
Q 3272 1813 3026 2020 
Q 2781 2228 2272 2228 
L 1259 2228 
z
M 1259 4147 
L 1259 2741 
L 2194 2741 
Q 2656 2741 2882 2914 
Q 3109 3088 3109 3444 
Q 3109 3797 2882 3972 
Q 2656 4147 2194 4147 
L 1259 4147 
z
M 628 4666 
L 2241 4666 
Q 2963 4666 3353 4366 
Q 3744 4066 3744 3513 
Q 3744 3084 3544 2831 
Q 3344 2578 2956 2516 
Q 3422 2416 3680 2098 
Q 3938 1781 3938 1306 
Q 3938 681 3513 340 
Q 3088 0 2303 0 
L 628 0 
L 628 4666 
z
" id="DejaVuSans-42" transform="scale(0.015625)"/>
     </defs>
     <use xlink:href="#DejaVuSans-50"/>
     <use x="60.302734" xlink:href="#DejaVuSans-53"/>
     <use x="123.779297" xlink:href="#DejaVuSans-4f"/>
     <use x="202.490234" xlink:href="#DejaVuSans-20"/>
     <use x="234.277344" xlink:href="#DejaVuSans-42"/>
     <use x="302.880859" xlink:href="#DejaVuSans-6f"/>
     <use x="364.0625" xlink:href="#DejaVuSans-75"/>
     <use x="427.441406" xlink:href="#DejaVuSans-6e"/>
     <use x="490.820312" xlink:href="#DejaVuSans-64"/>
    </g>
   </g>
   <g id="text_14">
    <!-- PSO EDA -->
    <g transform="translate(375.22944 212.307571)scale(0.17 -0.17)">
     <defs>
      <path d="M 628 4666 
L 3578 4666 
L 3578 4134 
L 1259 4134 
L 1259 2753 
L 3481 2753 
L 3481 2222 
L 1259 2222 
L 1259 531 
L 3634 531 
L 3634 0 
L 628 0 
L 628 4666 
z
" id="DejaVuSans-45" transform="scale(0.015625)"/>
      <path d="M 1259 4147 
L 1259 519 
L 2022 519 
Q 2988 519 3436 956 
Q 3884 1394 3884 2338 
Q 3884 3275 3436 3711 
Q 2988 4147 2022 4147 
L 1259 4147 
z
M 628 4666 
L 1925 4666 
Q 3281 4666 3915 4102 
Q 4550 3538 4550 2338 
Q 4550 1131 3912 565 
Q 3275 0 1925 0 
L 628 0 
L 628 4666 
z
" id="DejaVuSans-44" transform="scale(0.015625)"/>
      <path d="M 2188 4044 
L 1331 1722 
L 3047 1722 
L 2188 4044 
z
M 1831 4666 
L 2547 4666 
L 4325 0 
L 3669 0 
L 3244 1197 
L 1141 1197 
L 716 0 
L 50 0 
L 1831 4666 
z
" id="DejaVuSans-41" transform="scale(0.015625)"/>
     </defs>
     <use xlink:href="#DejaVuSans-50"/>
     <use x="60.302734" xlink:href="#DejaVuSans-53"/>
     <use x="123.779297" xlink:href="#DejaVuSans-4f"/>
     <use x="202.490234" xlink:href="#DejaVuSans-20"/>
     <use x="234.277344" xlink:href="#DejaVuSans-45"/>
     <use x="297.460938" xlink:href="#DejaVuSans-44"/>
     <use x="372.712891" xlink:href="#DejaVuSans-41"/>
    </g>
   </g>
   <g id="text_15">
    <!-- PSO -->
    <g transform="translate(375.22944 126.352403)scale(0.17 -0.17)">
     <use xlink:href="#DejaVuSans-50"/>
     <use x="60.302734" xlink:href="#DejaVuSans-53"/>
     <use x="123.779297" xlink:href="#DejaVuSans-4f"/>
    </g>
   </g>
   <g id="text_16">
    <!-- best 2009 -->
    <g transform="translate(375.22944 40.397235)scale(0.17 -0.17)">
     <defs>
      <path d="M 3116 1747 
Q 3116 2381 2855 2742 
Q 2594 3103 2138 3103 
Q 1681 3103 1420 2742 
Q 1159 2381 1159 1747 
Q 1159 1113 1420 752 
Q 1681 391 2138 391 
Q 2594 391 2855 752 
Q 3116 1113 3116 1747 
z
M 1159 2969 
Q 1341 3281 1617 3432 
Q 1894 3584 2278 3584 
Q 2916 3584 3314 3078 
Q 3713 2572 3713 1747 
Q 3713 922 3314 415 
Q 2916 -91 2278 -91 
Q 1894 -91 1617 61 
Q 1341 213 1159 525 
L 1159 0 
L 581 0 
L 581 4863 
L 1159 4863 
L 1159 2969 
z
" id="DejaVuSans-62" transform="scale(0.015625)"/>
      <path d="M 703 97 
L 703 672 
Q 941 559 1184 500 
Q 1428 441 1663 441 
Q 2288 441 2617 861 
Q 2947 1281 2994 2138 
Q 2813 1869 2534 1725 
Q 2256 1581 1919 1581 
Q 1219 1581 811 2004 
Q 403 2428 403 3163 
Q 403 3881 828 4315 
Q 1253 4750 1959 4750 
Q 2769 4750 3195 4129 
Q 3622 3509 3622 2328 
Q 3622 1225 3098 567 
Q 2575 -91 1691 -91 
Q 1453 -91 1209 -44 
Q 966 3 703 97 
z
M 1959 2075 
Q 2384 2075 2632 2365 
Q 2881 2656 2881 3163 
Q 2881 3666 2632 3958 
Q 2384 4250 1959 4250 
Q 1534 4250 1286 3958 
Q 1038 3666 1038 3163 
Q 1038 2656 1286 2365 
Q 1534 2075 1959 2075 
z
" id="DejaVuSans-39" transform="scale(0.015625)"/>
     </defs>
     <use xlink:href="#DejaVuSans-62"/>
     <use x="63.476562" xlink:href="#DejaVuSans-65"/>
     <use x="125" xlink:href="#DejaVuSans-73"/>
     <use x="177.099609" xlink:href="#DejaVuSans-74"/>
     <use x="216.308594" xlink:href="#DejaVuSans-20"/>
     <use x="248.095703" xlink:href="#DejaVuSans-32"/>
     <use x="311.71875" xlink:href="#DejaVuSans-30"/>
     <use x="375.341797" xlink:href="#DejaVuSans-30"/>
     <use x="438.964844" xlink:href="#DejaVuSans-39"/>
    </g>
   </g>
   <g id="text_17">
    <!-- bbob f6, 3-D -->
    <g transform="translate(60.41088 38.111366)scale(0.102 -0.102)">
     <defs>
      <path d="M 2597 2516 
Q 3050 2419 3304 2112 
Q 3559 1806 3559 1356 
Q 3559 666 3084 287 
Q 2609 -91 1734 -91 
Q 1441 -91 1130 -33 
Q 819 25 488 141 
L 488 750 
Q 750 597 1062 519 
Q 1375 441 1716 441 
Q 2309 441 2620 675 
Q 2931 909 2931 1356 
Q 2931 1769 2642 2001 
Q 2353 2234 1838 2234 
L 1294 2234 
L 1294 2753 
L 1863 2753 
Q 2328 2753 2575 2939 
Q 2822 3125 2822 3475 
Q 2822 3834 2567 4026 
Q 2313 4219 1838 4219 
Q 1578 4219 1281 4162 
Q 984 4106 628 3988 
L 628 4550 
Q 988 4650 1302 4700 
Q 1616 4750 1894 4750 
Q 2613 4750 3031 4423 
Q 3450 4097 3450 3541 
Q 3450 3153 3228 2886 
Q 3006 2619 2597 2516 
z
" id="DejaVuSans-33" transform="scale(0.015625)"/>
     </defs>
     <use xlink:href="#DejaVuSans-62"/>
     <use x="63.476562" xlink:href="#DejaVuSans-62"/>
     <use x="126.953125" xlink:href="#DejaVuSans-6f"/>
     <use x="188.134766" xlink:href="#DejaVuSans-62"/>
     <use x="251.611328" xlink:href="#DejaVuSans-20"/>
     <use x="283.398438" xlink:href="#DejaVuSans-66"/>
     <use x="318.603516" xlink:href="#DejaVuSans-36"/>
     <use x="382.226562" xlink:href="#DejaVuSans-2c"/>
     <use x="414.013672" xlink:href="#DejaVuSans-20"/>
     <use x="445.800781" xlink:href="#DejaVuSans-33"/>
     <use x="509.423828" xlink:href="#DejaVuSans-2d"/>
     <use x="545.507812" xlink:href="#DejaVuSans-44"/>
    </g>
    <!-- 51 targets: 100..1e-08 -->
    <g transform="translate(60.41088 49.533135)scale(0.102 -0.102)">
     <defs>
      <path d="M 691 4666 
L 3169 4666 
L 3169 4134 
L 1269 4134 
L 1269 2991 
Q 1406 3038 1543 3061 
Q 1681 3084 1819 3084 
Q 2600 3084 3056 2656 
Q 3513 2228 3513 1497 
Q 3513 744 3044 326 
Q 2575 -91 1722 -91 
Q 1428 -91 1123 -41 
Q 819 9 494 109 
L 494 744 
Q 775 591 1075 516 
Q 1375 441 1709 441 
Q 2250 441 2565 725 
Q 2881 1009 2881 1497 
Q 2881 1984 2565 2268 
Q 2250 2553 1709 2553 
Q 1456 2553 1204 2497 
Q 953 2441 691 2322 
L 691 4666 
z
" id="DejaVuSans-35" transform="scale(0.015625)"/>
      <path d="M 750 794 
L 1409 794 
L 1409 0 
L 750 0 
L 750 794 
z
M 750 3309 
L 1409 3309 
L 1409 2516 
L 750 2516 
L 750 3309 
z
" id="DejaVuSans-3a" transform="scale(0.015625)"/>
     </defs>
     <use xlink:href="#DejaVuSans-35"/>
     <use x="63.623047" xlink:href="#DejaVuSans-31"/>
     <use x="127.246094" xlink:href="#DejaVuSans-20"/>
     <use x="159.033203" xlink:href="#DejaVuSans-74"/>
     <use x="198.242188" xlink:href="#DejaVuSans-61"/>
     <use x="259.521484" xlink:href="#DejaVuSans-72"/>
     <use x="298.884766" xlink:href="#DejaVuSans-67"/>
     <use x="362.361328" xlink:href="#DejaVuSans-65"/>
     <use x="423.884766" xlink:href="#DejaVuSans-74"/>
     <use x="463.09375" xlink:href="#DejaVuSans-73"/>
     <use x="515.193359" xlink:href="#DejaVuSans-3a"/>
     <use x="548.884766" xlink:href="#DejaVuSans-20"/>
     <use x="580.671875" xlink:href="#DejaVuSans-31"/>
     <use x="644.294922" xlink:href="#DejaVuSans-30"/>
     <use x="707.917969" xlink:href="#DejaVuSans-30"/>
     <use x="771.541016" xlink:href="#DejaVuSans-2e"/>
     <use x="803.328125" xlink:href="#DejaVuSans-2e"/>
     <use x="835.115234" xlink:href="#DejaVuSans-31"/>
     <use x="898.738281" xlink:href="#DejaVuSans-65"/>
     <use x="960.261719" xlink:href="#DejaVuSans-2d"/>
     <use x="996.345703" xlink:href="#DejaVuSans-30"/>
     <use x="1059.96875" xlink:href="#DejaVuSans-38"/>
    </g>
    <!-- 15 instances -->
    <g transform="translate(60.41088 60.954904)scale(0.102 -0.102)">
     <use xlink:href="#DejaVuSans-31"/>
     <use x="63.623047" xlink:href="#DejaVuSans-35"/>
     <use x="127.246094" xlink:href="#DejaVuSans-20"/>
     <use x="159.033203" xlink:href="#DejaVuSans-69"/>
     <use x="186.816406" xlink:href="#DejaVuSans-6e"/>
     <use x="250.195312" xlink:href="#DejaVuSans-73"/>
     <use x="302.294922" xlink:href="#DejaVuSans-74"/>
     <use x="341.503906" xlink:href="#DejaVuSans-61"/>
     <use x="402.783203" xlink:href="#DejaVuSans-6e"/>
     <use x="466.162109" xlink:href="#DejaVuSans-63"/>
     <use x="521.142578" xlink:href="#DejaVuSans-65"/>
     <use x="582.666016" xlink:href="#DejaVuSans-73"/>
    </g>
   </g>
   <g id="text_18">
    <!-- v2.4 -->
    <g style="fill:#808080;" transform="translate(187.233062 294.151352)scale(0.1 -0.1)">
     <use xlink:href="#DejaVuSans-76"/>
     <use x="59.179688" xlink:href="#DejaVuSans-32"/>
     <use x="122.802734" xlink:href="#DejaVuSans-2e"/>
     <use x="154.589844" xlink:href="#DejaVuSans-34"/>
    </g>
   </g>
   <g id="text_19">
    <!-- 6 Attractive sector -->
    <g transform="translate(105.40025 21.648)scale(0.2 -0.2)">
     <use xlink:href="#DejaVuSans-36"/>
     <use x="63.623047" xlink:href="#DejaVuSans-20"/>
     <use x="95.410156" xlink:href="#DejaVuSans-41"/>
     <use x="162.068359" xlink:href="#DejaVuSans-74"/>
     <use x="201.277344" xlink:href="#DejaVuSans-74"/>
     <use x="240.486328" xlink:href="#DejaVuSans-72"/>
     <use x="281.599609" xlink:href="#DejaVuSans-61"/>
     <use x="342.878906" xlink:href="#DejaVuSans-63"/>
     <use x="397.859375" xlink:href="#DejaVuSans-74"/>
     <use x="437.068359" xlink:href="#DejaVuSans-69"/>
     <use x="464.851562" xlink:href="#DejaVuSans-76"/>
     <use x="524.03125" xlink:href="#DejaVuSans-65"/>
     <use x="585.554688" xlink:href="#DejaVuSans-20"/>
     <use x="617.341797" xlink:href="#DejaVuSans-73"/>
     <use x="669.441406" xlink:href="#DejaVuSans-65"/>
     <use x="730.964844" xlink:href="#DejaVuSans-63"/>
     <use x="785.945312" xlink:href="#DejaVuSans-74"/>
     <use x="825.154297" xlink:href="#DejaVuSans-6f"/>
     <use x="886.335938" xlink:href="#DejaVuSans-72"/>
    </g>
   </g>
  </g>
 </g>
 <defs>
  <clipPath id="p49cecbe415">
   <rect height="271.296" width="281.088" x="57.6" y="27.648"/>
  </clipPath>
 </defs>
</svg>
