<?xml version="1.0" encoding="utf-8" standalone="no"?>
<!DOCTYPE svg PUBLIC "-//W3C//DTD SVG 1.1//EN"
  "http://www.w3.org/Graphics/SVG/1.1/DTD/svg11.dtd">
<svg height="345.6pt" version="1.1" viewBox="0 0 460.8 345.6" width="460.8pt" xmlns="http://www.w3.org/2000/svg" xmlns:xlink="http://www.w3.org/1999/xlink">
 <metadata>
  <rdf:RDF xmlns:cc="http://creativecommons.org/ns#" xmlns:dc="http://purl.org/dc/elements/1.1/" xmlns:rdf="http://www.w3.org/1999/02/22-rdf-syntax-ns#">
   <cc:Work>
    <dc:type rdf:resource="http://purl.org/dc/dcmitype/StillImage"/>
    <dc:date>2021-04-26T18:31:49.672965</dc:date>
    <dc:format>image/svg+xml</dc:format>
    <dc:creator>
     <cc:Agent>
      <dc:title>Matplotlib v3.4.1, https://matplotlib.org/</dc:title>
     </cc:Agent>
    </dc:creator>
   </cc:Work>
  </rdf:RDF>
 </metadata>
 <defs>
  <style type="text/css">*{stroke-linecap:butt;stroke-linejoin:round;}</style>
 </defs>
 <g id="figure_1">
  <g id="patch_1">
   <path d="M 0 345.6 
L 460.8 345.6 
L 460.8 0 
L 0 0 
z
" style="fill:#ffffff;"/>
  </g>
  <g id="axes_1">
   <g id="patch_2">
    <path d="M 57.6 298.944 
L 338.688 298.944 
L 338.688 27.648 
L 57.6 27.648 
z
" style="fill:#ffffff;"/>
   </g>
   <g id="line2d_1">
    <path d="M 29.53256 298.944 
L 29.53256 283.143418 
L 81.775977 283.143418 
L 81.775977 277.876557 
L 86.351421 277.876557 
L 86.351421 272.609696 
L 91.535274 272.609696 
L 91.535274 267.342835 
L 97.043522 267.342835 
L 97.043522 262.075974 
L 101.506816 262.075974 
L 101.506816 256.809114 
L 103.870632 256.809114 
L 103.870632 251.542253 
L 111.023335 251.542253 
L 111.023335 246.275392 
L 114.0117 246.275392 
L 114.0117 241.008531 
L 118.470564 241.008531 
L 118.470564 235.74167 
L 119.996839 235.74167 
L 119.996839 230.47481 
L 121.310093 230.47481 
L 121.310093 225.207949 
L 122.782271 225.207949 
L 122.782271 219.941088 
L 123.111324 219.941088 
L 123.111324 214.674227 
L 123.829748 214.674227 
L 123.829748 209.407366 
L 124.743806 209.407366 
L 124.743806 204.140506 
L 125.038147 204.140506 
L 125.038147 198.873645 
L 126.236468 198.873645 
L 126.236468 193.606784 
L 126.70692 193.606784 
L 126.70692 188.339923 
L 127.229484 188.339923 
L 127.229484 183.073062 
L 127.611382 183.073062 
L 127.611382 172.539341 
L 128.590686 172.539341 
L 128.590686 167.27248 
L 129.002426 167.27248 
L 129.002426 162.005619 
L 129.233413 162.005619 
L 129.233413 156.738758 
L 130.182344 156.738758 
L 130.182344 140.938176 
L 130.344571 140.938176 
L 130.344571 125.137593 
L 130.398313 125.137593 
L 130.398313 119.870733 
L 130.505303 119.870733 
L 130.505303 114.603872 
L 130.926816 114.603872 
L 130.926816 109.337011 
L 131.082294 109.337011 
L 131.082294 104.07015 
L 131.185181 104.07015 
L 131.185181 98.803289 
L 131.389151 98.803289 
L 131.389151 93.536429 
L 131.439773 93.536429 
L 131.439773 88.269568 
L 131.938072 88.269568 
L 131.938072 83.002707 
L 131.987128 83.002707 
L 131.987128 72.468985 
L 132.181982 72.468985 
L 132.181982 67.202125 
L 132.470242 67.202125 
L 132.470242 61.935264 
L 132.612604 61.935264 
L 132.612604 56.668403 
L 132.80063 56.668403 
L 132.80063 30.334099 
L 338.688 30.334099 
" style="fill:none;stroke:#f5deb3;stroke-linecap:square;stroke-width:4;"/>
   </g>
   <g id="line2d_2">
    <defs>
     <path d="M 0 7.778175 
L 7.778175 0 
L 0 -7.778175 
L -7.778175 0 
z
" id="m9199e437ab" style="stroke:#f5deb3;stroke-linejoin:miter;stroke-width:1.5;"/>
    </defs>
    <g>
     <use style="fill:#f5deb3;stroke:#f5deb3;stroke-linejoin:miter;stroke-width:1.5;" x="101.506816" xlink:href="#m9199e437ab" y="262.075974"/>
     <use style="fill:#f5deb3;stroke:#f5deb3;stroke-linejoin:miter;stroke-width:1.5;" x="130.344571" xlink:href="#m9199e437ab" y="140.938176"/>
     <use style="fill:#f5deb3;stroke:#f5deb3;stroke-linejoin:miter;stroke-width:1.5;" x="132.80063" xlink:href="#m9199e437ab" y="56.668403"/>
     <use style="fill:#f5deb3;stroke:#f5deb3;stroke-linejoin:miter;stroke-width:1.5;" x="132.80063" xlink:href="#m9199e437ab" y="30.334099"/>
     <use style="fill:#f5deb3;stroke:#f5deb3;stroke-linejoin:miter;stroke-width:1.5;" x="132.80063" xlink:href="#m9199e437ab" y="30.334099"/>
     <use style="fill:#f5deb3;stroke:#f5deb3;stroke-linejoin:miter;stroke-width:1.5;" x="338.688" xlink:href="#m9199e437ab" y="30.334099"/>
    </g>
   </g>
   <g id="line2d_3">
    <path style="fill:none;stroke:#f5deb3;stroke-linecap:square;stroke-width:4;"/>
    <g/>
   </g>
   <g id="line2d_4">
    <path d="M 338.688 30.334099 
L 369.60768 35.706297 
" style="fill:none;stroke:#f5deb3;stroke-linecap:square;stroke-width:4;"/>
    <g>
     <use style="fill:#f5deb3;stroke:#f5deb3;stroke-linejoin:miter;stroke-width:1.5;" x="338.688" xlink:href="#m9199e437ab" y="30.334099"/>
     <use style="fill:#f5deb3;stroke:#f5deb3;stroke-linejoin:miter;stroke-width:1.5;" x="369.60768" xlink:href="#m9199e437ab" y="35.706297"/>
    </g>
   </g>
   <g id="matplotlib.axis_1">
    <g id="xtick_1">
     <g id="line2d_5">
      <path clip-path="url(#pce1ef4260d)" d="M 57.6 298.944 
L 57.6 27.648 
" style="fill:none;stroke:#b0b0b0;stroke-linecap:square;stroke-width:0.8;"/>
     </g>
     <g id="line2d_6">
      <defs>
       <path d="M 0 0 
L 0 3.5 
" id="m9dd179417a" style="stroke:#000000;stroke-width:0.8;"/>
      </defs>
      <g>
       <use style="stroke:#000000;stroke-width:0.8;" x="57.6" xlink:href="#m9dd179417a" y="298.944"/>
      </g>
     </g>
     <g id="text_1">
      <!-- 0 -->
      <g transform="translate(51.2375 321.140875)scale(0.2 -0.2)">
       <defs>
        <path d="M 2034 4250 
Q 1547 4250 1301 3770 
Q 1056 3291 1056 2328 
Q 1056 1369 1301 889 
Q 1547 409 2034 409 
Q 2525 409 2770 889 
Q 3016 1369 3016 2328 
Q 3016 3291 2770 3770 
Q 2525 4250 2034 4250 
z
M 2034 4750 
Q 2819 4750 3233 4129 
Q 3647 3509 3647 2328 
Q 3647 1150 3233 529 
Q 2819 -91 2034 -91 
Q 1250 -91 836 529 
Q 422 1150 422 2328 
Q 422 3509 836 4129 
Q 1250 4750 2034 4750 
z
" id="DejaVuSans-30" transform="scale(0.015625)"/>
       </defs>
       <use xlink:href="#DejaVuSans-30"/>
      </g>
     </g>
    </g>
    <g id="xtick_2">
     <g id="line2d_7">
      <path clip-path="url(#pce1ef4260d)" d="M 137.910857 298.944 
L 137.910857 27.648 
" style="fill:none;stroke:#b0b0b0;stroke-linecap:square;stroke-width:0.8;"/>
     </g>
     <g id="line2d_8">
      <g>
       <use style="stroke:#000000;stroke-width:0.8;" x="137.910857" xlink:href="#m9dd179417a" y="298.944"/>
      </g>
     </g>
     <g id="text_2">
      <!-- 2 -->
      <g transform="translate(131.548357 321.140875)scale(0.2 -0.2)">
       <defs>
        <path d="M 1228 531 
L 3431 531 
L 3431 0 
L 469 0 
L 469 531 
Q 828 903 1448 1529 
Q 2069 2156 2228 2338 
Q 2531 2678 2651 2914 
Q 2772 3150 2772 3378 
Q 2772 3750 2511 3984 
Q 2250 4219 1831 4219 
Q 1534 4219 1204 4116 
Q 875 4013 500 3803 
L 500 4441 
Q 881 4594 1212 4672 
Q 1544 4750 1819 4750 
Q 2544 4750 2975 4387 
Q 3406 4025 3406 3419 
Q 3406 3131 3298 2873 
Q 3191 2616 2906 2266 
Q 2828 2175 2409 1742 
Q 1991 1309 1228 531 
z
" id="DejaVuSans-32" transform="scale(0.015625)"/>
       </defs>
       <use xlink:href="#DejaVuSans-32"/>
      </g>
     </g>
    </g>
    <g id="xtick_3">
     <g id="line2d_9">
      <path clip-path="url(#pce1ef4260d)" d="M 218.221714 298.944 
L 218.221714 27.648 
" style="fill:none;stroke:#b0b0b0;stroke-linecap:square;stroke-width:0.8;"/>
     </g>
     <g id="line2d_10">
      <g>
       <use style="stroke:#000000;stroke-width:0.8;" x="218.221714" xlink:href="#m9dd179417a" y="298.944"/>
      </g>
     </g>
     <g id="text_3">
      <!-- 4 -->
      <g transform="translate(211.859214 321.140875)scale(0.2 -0.2)">
       <defs>
        <path d="M 2419 4116 
L 825 1625 
L 2419 1625 
L 2419 4116 
z
M 2253 4666 
L 3047 4666 
L 3047 1625 
L 3713 1625 
L 3713 1100 
L 3047 1100 
L 3047 0 
L 2419 0 
L 2419 1100 
L 313 1100 
L 313 1709 
L 2253 4666 
z
" id="DejaVuSans-34" transform="scale(0.015625)"/>
       </defs>
       <use xlink:href="#DejaVuSans-34"/>
      </g>
     </g>
    </g>
    <g id="xtick_4">
     <g id="line2d_11">
      <path clip-path="url(#pce1ef4260d)" d="M 298.532571 298.944 
L 298.532571 27.648 
" style="fill:none;stroke:#b0b0b0;stroke-linecap:square;stroke-width:0.8;"/>
     </g>
     <g id="line2d_12">
      <g>
       <use style="stroke:#000000;stroke-width:0.8;" x="298.532571" xlink:href="#m9dd179417a" y="298.944"/>
      </g>
     </g>
     <g id="text_4">
      <!-- 6 -->
      <g transform="translate(292.170071 321.140875)scale(0.2 -0.2)">
       <defs>
        <path d="M 2113 2584 
Q 1688 2584 1439 2293 
Q 1191 2003 1191 1497 
Q 1191 994 1439 701 
Q 1688 409 2113 409 
Q 2538 409 2786 701 
Q 3034 994 3034 1497 
Q 3034 2003 2786 2293 
Q 2538 2584 2113 2584 
z
M 3366 4563 
L 3366 3988 
Q 3128 4100 2886 4159 
Q 2644 4219 2406 4219 
Q 1781 4219 1451 3797 
Q 1122 3375 1075 2522 
Q 1259 2794 1537 2939 
Q 1816 3084 2150 3084 
Q 2853 3084 3261 2657 
Q 3669 2231 3669 1497 
Q 3669 778 3244 343 
Q 2819 -91 2113 -91 
Q 1303 -91 875 529 
Q 447 1150 447 2328 
Q 447 3434 972 4092 
Q 1497 4750 2381 4750 
Q 2619 4750 2861 4703 
Q 3103 4656 3366 4563 
z
" id="DejaVuSans-36" transform="scale(0.015625)"/>
       </defs>
       <use xlink:href="#DejaVuSans-36"/>
      </g>
     </g>
    </g>
    <g id="xtick_5">
     <g id="line2d_13">
      <path clip-path="url(#pce1ef4260d)" d="M 97.755429 298.944 
L 97.755429 27.648 
" style="fill:none;stroke:#b0b0b0;stroke-linecap:square;stroke-width:0.8;"/>
     </g>
     <g id="line2d_14">
      <defs>
       <path d="M 0 0 
L 0 2 
" id="m55b43a1c77" style="stroke:#000000;stroke-width:0.6;"/>
      </defs>
      <g>
       <use style="stroke:#000000;stroke-width:0.6;" x="97.755429" xlink:href="#m55b43a1c77" y="298.944"/>
      </g>
     </g>
    </g>
    <g id="xtick_6">
     <g id="line2d_15">
      <path clip-path="url(#pce1ef4260d)" d="M 178.066286 298.944 
L 178.066286 27.648 
" style="fill:none;stroke:#b0b0b0;stroke-linecap:square;stroke-width:0.8;"/>
     </g>
     <g id="line2d_16">
      <g>
       <use style="stroke:#000000;stroke-width:0.6;" x="178.066286" xlink:href="#m55b43a1c77" y="298.944"/>
      </g>
     </g>
    </g>
    <g id="xtick_7">
     <g id="line2d_17">
      <path clip-path="url(#pce1ef4260d)" d="M 258.377143 298.944 
L 258.377143 27.648 
" style="fill:none;stroke:#b0b0b0;stroke-linecap:square;stroke-width:0.8;"/>
     </g>
     <g id="line2d_18">
      <g>
       <use style="stroke:#000000;stroke-width:0.6;" x="258.377143" xlink:href="#m55b43a1c77" y="298.944"/>
      </g>
     </g>
    </g>
    <g id="xtick_8">
     <g id="line2d_19">
      <path clip-path="url(#pce1ef4260d)" d="M 338.688 298.944 
L 338.688 27.648 
" style="fill:none;stroke:#b0b0b0;stroke-linecap:square;stroke-width:0.8;"/>
     </g>
     <g id="line2d_20">
      <g>
       <use style="stroke:#000000;stroke-width:0.6;" x="338.688" xlink:href="#m55b43a1c77" y="298.944"/>
      </g>
     </g>
    </g>
    <g id="text_5">
     <!-- log10(# f-evals / dimension) -->
     <g transform="translate(77.764078 342.217594)scale(0.17 -0.17)">
      <defs>
       <path d="M 603 4863 
L 1178 4863 
L 1178 0 
L 603 0 
L 603 4863 
z
" id="DejaVuSans-6c" transform="scale(0.015625)"/>
       <path d="M 1959 3097 
Q 1497 3097 1228 2736 
Q 959 2375 959 1747 
Q 959 1119 1226 758 
Q 1494 397 1959 397 
Q 2419 397 2687 759 
Q 2956 1122 2956 1747 
Q 2956 2369 2687 2733 
Q 2419 3097 1959 3097 
z
M 1959 3584 
Q 2709 3584 3137 3096 
Q 3566 2609 3566 1747 
Q 3566 888 3137 398 
Q 2709 -91 1959 -91 
Q 1206 -91 779 398 
Q 353 888 353 1747 
Q 353 2609 779 3096 
Q 1206 3584 1959 3584 
z
" id="DejaVuSans-6f" transform="scale(0.015625)"/>
       <path d="M 2906 1791 
Q 2906 2416 2648 2759 
Q 2391 3103 1925 3103 
Q 1463 3103 1205 2759 
Q 947 2416 947 1791 
Q 947 1169 1205 825 
Q 1463 481 1925 481 
Q 2391 481 2648 825 
Q 2906 1169 2906 1791 
z
M 3481 434 
Q 3481 -459 3084 -895 
Q 2688 -1331 1869 -1331 
Q 1566 -1331 1297 -1286 
Q 1028 -1241 775 -1147 
L 775 -588 
Q 1028 -725 1275 -790 
Q 1522 -856 1778 -856 
Q 2344 -856 2625 -561 
Q 2906 -266 2906 331 
L 2906 616 
Q 2728 306 2450 153 
Q 2172 0 1784 0 
Q 1141 0 747 490 
Q 353 981 353 1791 
Q 353 2603 747 3093 
Q 1141 3584 1784 3584 
Q 2172 3584 2450 3431 
Q 2728 3278 2906 2969 
L 2906 3500 
L 3481 3500 
L 3481 434 
z
" id="DejaVuSans-67" transform="scale(0.015625)"/>
       <path d="M 794 531 
L 1825 531 
L 1825 4091 
L 703 3866 
L 703 4441 
L 1819 4666 
L 2450 4666 
L 2450 531 
L 3481 531 
L 3481 0 
L 794 0 
L 794 531 
z
" id="DejaVuSans-31" transform="scale(0.015625)"/>
       <path d="M 1984 4856 
Q 1566 4138 1362 3434 
Q 1159 2731 1159 2009 
Q 1159 1288 1364 580 
Q 1569 -128 1984 -844 
L 1484 -844 
Q 1016 -109 783 600 
Q 550 1309 550 2009 
Q 550 2706 781 3412 
Q 1013 4119 1484 4856 
L 1984 4856 
z
" id="DejaVuSans-28" transform="scale(0.015625)"/>
       <path d="M 3272 2816 
L 2363 2816 
L 2100 1772 
L 3016 1772 
L 3272 2816 
z
M 2803 4594 
L 2478 3297 
L 3391 3297 
L 3719 4594 
L 4219 4594 
L 3897 3297 
L 4872 3297 
L 4872 2816 
L 3775 2816 
L 3519 1772 
L 4513 1772 
L 4513 1294 
L 3397 1294 
L 3072 0 
L 2572 0 
L 2894 1294 
L 1978 1294 
L 1656 0 
L 1153 0 
L 1478 1294 
L 494 1294 
L 494 1772 
L 1594 1772 
L 1856 2816 
L 850 2816 
L 850 3297 
L 1978 3297 
L 2297 4594 
L 2803 4594 
z
" id="DejaVuSans-23" transform="scale(0.015625)"/>
       <path id="DejaVuSans-20" transform="scale(0.015625)"/>
       <path d="M 2375 4863 
L 2375 4384 
L 1825 4384 
Q 1516 4384 1395 4259 
Q 1275 4134 1275 3809 
L 1275 3500 
L 2222 3500 
L 2222 3053 
L 1275 3053 
L 1275 0 
L 697 0 
L 697 3053 
L 147 3053 
L 147 3500 
L 697 3500 
L 697 3744 
Q 697 4328 969 4595 
Q 1241 4863 1831 4863 
L 2375 4863 
z
" id="DejaVuSans-66" transform="scale(0.015625)"/>
       <path d="M 313 2009 
L 1997 2009 
L 1997 1497 
L 313 1497 
L 313 2009 
z
" id="DejaVuSans-2d" transform="scale(0.015625)"/>
       <path d="M 3597 1894 
L 3597 1613 
L 953 1613 
Q 991 1019 1311 708 
Q 1631 397 2203 397 
Q 2534 397 2845 478 
Q 3156 559 3463 722 
L 3463 178 
Q 3153 47 2828 -22 
Q 2503 -91 2169 -91 
Q 1331 -91 842 396 
Q 353 884 353 1716 
Q 353 2575 817 3079 
Q 1281 3584 2069 3584 
Q 2775 3584 3186 3129 
Q 3597 2675 3597 1894 
z
M 3022 2063 
Q 3016 2534 2758 2815 
Q 2500 3097 2075 3097 
Q 1594 3097 1305 2825 
Q 1016 2553 972 2059 
L 3022 2063 
z
" id="DejaVuSans-65" transform="scale(0.015625)"/>
       <path d="M 191 3500 
L 800 3500 
L 1894 563 
L 2988 3500 
L 3597 3500 
L 2284 0 
L 1503 0 
L 191 3500 
z
" id="DejaVuSans-76" transform="scale(0.015625)"/>
       <path d="M 2194 1759 
Q 1497 1759 1228 1600 
Q 959 1441 959 1056 
Q 959 750 1161 570 
Q 1363 391 1709 391 
Q 2188 391 2477 730 
Q 2766 1069 2766 1631 
L 2766 1759 
L 2194 1759 
z
M 3341 1997 
L 3341 0 
L 2766 0 
L 2766 531 
Q 2569 213 2275 61 
Q 1981 -91 1556 -91 
Q 1019 -91 701 211 
Q 384 513 384 1019 
Q 384 1609 779 1909 
Q 1175 2209 1959 2209 
L 2766 2209 
L 2766 2266 
Q 2766 2663 2505 2880 
Q 2244 3097 1772 3097 
Q 1472 3097 1187 3025 
Q 903 2953 641 2809 
L 641 3341 
Q 956 3463 1253 3523 
Q 1550 3584 1831 3584 
Q 2591 3584 2966 3190 
Q 3341 2797 3341 1997 
z
" id="DejaVuSans-61" transform="scale(0.015625)"/>
       <path d="M 2834 3397 
L 2834 2853 
Q 2591 2978 2328 3040 
Q 2066 3103 1784 3103 
Q 1356 3103 1142 2972 
Q 928 2841 928 2578 
Q 928 2378 1081 2264 
Q 1234 2150 1697 2047 
L 1894 2003 
Q 2506 1872 2764 1633 
Q 3022 1394 3022 966 
Q 3022 478 2636 193 
Q 2250 -91 1575 -91 
Q 1294 -91 989 -36 
Q 684 19 347 128 
L 347 722 
Q 666 556 975 473 
Q 1284 391 1588 391 
Q 1994 391 2212 530 
Q 2431 669 2431 922 
Q 2431 1156 2273 1281 
Q 2116 1406 1581 1522 
L 1381 1569 
Q 847 1681 609 1914 
Q 372 2147 372 2553 
Q 372 3047 722 3315 
Q 1072 3584 1716 3584 
Q 2034 3584 2315 3537 
Q 2597 3491 2834 3397 
z
" id="DejaVuSans-73" transform="scale(0.015625)"/>
       <path d="M 1625 4666 
L 2156 4666 
L 531 -594 
L 0 -594 
L 1625 4666 
z
" id="DejaVuSans-2f" transform="scale(0.015625)"/>
       <path d="M 2906 2969 
L 2906 4863 
L 3481 4863 
L 3481 0 
L 2906 0 
L 2906 525 
Q 2725 213 2448 61 
Q 2172 -91 1784 -91 
Q 1150 -91 751 415 
Q 353 922 353 1747 
Q 353 2572 751 3078 
Q 1150 3584 1784 3584 
Q 2172 3584 2448 3432 
Q 2725 3281 2906 2969 
z
M 947 1747 
Q 947 1113 1208 752 
Q 1469 391 1925 391 
Q 2381 391 2643 752 
Q 2906 1113 2906 1747 
Q 2906 2381 2643 2742 
Q 2381 3103 1925 3103 
Q 1469 3103 1208 2742 
Q 947 2381 947 1747 
z
" id="DejaVuSans-64" transform="scale(0.015625)"/>
       <path d="M 603 3500 
L 1178 3500 
L 1178 0 
L 603 0 
L 603 3500 
z
M 603 4863 
L 1178 4863 
L 1178 4134 
L 603 4134 
L 603 4863 
z
" id="DejaVuSans-69" transform="scale(0.015625)"/>
       <path d="M 3328 2828 
Q 3544 3216 3844 3400 
Q 4144 3584 4550 3584 
Q 5097 3584 5394 3201 
Q 5691 2819 5691 2113 
L 5691 0 
L 5113 0 
L 5113 2094 
Q 5113 2597 4934 2840 
Q 4756 3084 4391 3084 
Q 3944 3084 3684 2787 
Q 3425 2491 3425 1978 
L 3425 0 
L 2847 0 
L 2847 2094 
Q 2847 2600 2669 2842 
Q 2491 3084 2119 3084 
Q 1678 3084 1418 2786 
Q 1159 2488 1159 1978 
L 1159 0 
L 581 0 
L 581 3500 
L 1159 3500 
L 1159 2956 
Q 1356 3278 1631 3431 
Q 1906 3584 2284 3584 
Q 2666 3584 2933 3390 
Q 3200 3197 3328 2828 
z
" id="DejaVuSans-6d" transform="scale(0.015625)"/>
       <path d="M 3513 2113 
L 3513 0 
L 2938 0 
L 2938 2094 
Q 2938 2591 2744 2837 
Q 2550 3084 2163 3084 
Q 1697 3084 1428 2787 
Q 1159 2491 1159 1978 
L 1159 0 
L 581 0 
L 581 3500 
L 1159 3500 
L 1159 2956 
Q 1366 3272 1645 3428 
Q 1925 3584 2291 3584 
Q 2894 3584 3203 3211 
Q 3513 2838 3513 2113 
z
" id="DejaVuSans-6e" transform="scale(0.015625)"/>
       <path d="M 513 4856 
L 1013 4856 
Q 1481 4119 1714 3412 
Q 1947 2706 1947 2009 
Q 1947 1309 1714 600 
Q 1481 -109 1013 -844 
L 513 -844 
Q 928 -128 1133 580 
Q 1338 1288 1338 2009 
Q 1338 2731 1133 3434 
Q 928 4138 513 4856 
z
" id="DejaVuSans-29" transform="scale(0.015625)"/>
      </defs>
      <use xlink:href="#DejaVuSans-6c"/>
      <use x="27.783203" xlink:href="#DejaVuSans-6f"/>
      <use x="88.964844" xlink:href="#DejaVuSans-67"/>
      <use x="152.441406" xlink:href="#DejaVuSans-31"/>
      <use x="216.064453" xlink:href="#DejaVuSans-30"/>
      <use x="279.6875" xlink:href="#DejaVuSans-28"/>
      <use x="318.701172" xlink:href="#DejaVuSans-23"/>
      <use x="402.490234" xlink:href="#DejaVuSans-20"/>
      <use x="434.277344" xlink:href="#DejaVuSans-66"/>
      <use x="463.982422" xlink:href="#DejaVuSans-2d"/>
      <use x="500.066406" xlink:href="#DejaVuSans-65"/>
      <use x="561.589844" xlink:href="#DejaVuSans-76"/>
      <use x="620.769531" xlink:href="#DejaVuSans-61"/>
      <use x="682.048828" xlink:href="#DejaVuSans-6c"/>
      <use x="709.832031" xlink:href="#DejaVuSans-73"/>
      <use x="761.931641" xlink:href="#DejaVuSans-20"/>
      <use x="793.71875" xlink:href="#DejaVuSans-2f"/>
      <use x="827.410156" xlink:href="#DejaVuSans-20"/>
      <use x="859.197266" xlink:href="#DejaVuSans-64"/>
      <use x="922.673828" xlink:href="#DejaVuSans-69"/>
      <use x="950.457031" xlink:href="#DejaVuSans-6d"/>
      <use x="1047.869141" xlink:href="#DejaVuSans-65"/>
      <use x="1109.392578" xlink:href="#DejaVuSans-6e"/>
      <use x="1172.771484" xlink:href="#DejaVuSans-73"/>
      <use x="1224.871094" xlink:href="#DejaVuSans-69"/>
      <use x="1252.654297" xlink:href="#DejaVuSans-6f"/>
      <use x="1313.835938" xlink:href="#DejaVuSans-6e"/>
      <use x="1377.214844" xlink:href="#DejaVuSans-29"/>
     </g>
    </g>
   </g>
   <g id="matplotlib.axis_2">
    <g id="ytick_1">
     <g id="line2d_21">
      <path clip-path="url(#pce1ef4260d)" d="M 57.6 298.944 
L 338.688 298.944 
" style="fill:none;stroke:#b0b0b0;stroke-linecap:square;stroke-width:0.8;"/>
     </g>
     <g id="line2d_22">
      <defs>
       <path d="M 0 0 
L -3.5 0 
" id="m364e73c8b4" style="stroke:#000000;stroke-width:0.8;"/>
      </defs>
      <g>
       <use style="stroke:#000000;stroke-width:0.8;" x="57.6" xlink:href="#m364e73c8b4" y="298.944"/>
      </g>
     </g>
     <g id="text_6">
      <!-- 0.0 -->
      <g transform="translate(25.155 305.02275)scale(0.16 -0.16)">
       <defs>
        <path d="M 684 794 
L 1344 794 
L 1344 0 
L 684 0 
L 684 794 
z
" id="DejaVuSans-2e" transform="scale(0.015625)"/>
       </defs>
       <use xlink:href="#DejaVuSans-30"/>
       <use x="63.623047" xlink:href="#DejaVuSans-2e"/>
       <use x="95.410156" xlink:href="#DejaVuSans-30"/>
      </g>
     </g>
    </g>
    <g id="ytick_2">
     <g id="line2d_23">
      <path clip-path="url(#pce1ef4260d)" d="M 57.6 245.22202 
L 338.688 245.22202 
" style="fill:none;stroke:#b0b0b0;stroke-linecap:square;stroke-width:0.8;"/>
     </g>
     <g id="line2d_24">
      <g>
       <use style="stroke:#000000;stroke-width:0.8;" x="57.6" xlink:href="#m364e73c8b4" y="245.22202"/>
      </g>
     </g>
     <g id="text_7">
      <!-- 0.2 -->
      <g transform="translate(25.155 251.30077)scale(0.16 -0.16)">
       <use xlink:href="#DejaVuSans-30"/>
       <use x="63.623047" xlink:href="#DejaVuSans-2e"/>
       <use x="95.410156" xlink:href="#DejaVuSans-32"/>
      </g>
     </g>
    </g>
    <g id="ytick_3">
     <g id="line2d_25">
      <path clip-path="url(#pce1ef4260d)" d="M 57.6 191.50004 
L 338.688 191.50004 
" style="fill:none;stroke:#b0b0b0;stroke-linecap:square;stroke-width:0.8;"/>
     </g>
     <g id="line2d_26">
      <g>
       <use style="stroke:#000000;stroke-width:0.8;" x="57.6" xlink:href="#m364e73c8b4" y="191.50004"/>
      </g>
     </g>
     <g id="text_8">
      <!-- 0.4 -->
      <g transform="translate(25.155 197.57879)scale(0.16 -0.16)">
       <use xlink:href="#DejaVuSans-30"/>
       <use x="63.623047" xlink:href="#DejaVuSans-2e"/>
       <use x="95.410156" xlink:href="#DejaVuSans-34"/>
      </g>
     </g>
    </g>
    <g id="ytick_4">
     <g id="line2d_27">
      <path clip-path="url(#pce1ef4260d)" d="M 57.6 137.778059 
L 338.688 137.778059 
" style="fill:none;stroke:#b0b0b0;stroke-linecap:square;stroke-width:0.8;"/>
     </g>
     <g id="line2d_28">
      <g>
       <use style="stroke:#000000;stroke-width:0.8;" x="57.6" xlink:href="#m364e73c8b4" y="137.778059"/>
      </g>
     </g>
     <g id="text_9">
      <!-- 0.6 -->
      <g transform="translate(25.155 143.856809)scale(0.16 -0.16)">
       <use xlink:href="#DejaVuSans-30"/>
       <use x="63.623047" xlink:href="#DejaVuSans-2e"/>
       <use x="95.410156" xlink:href="#DejaVuSans-36"/>
      </g>
     </g>
    </g>
    <g id="ytick_5">
     <g id="line2d_29">
      <path clip-path="url(#pce1ef4260d)" d="M 57.6 84.056079 
L 338.688 84.056079 
" style="fill:none;stroke:#b0b0b0;stroke-linecap:square;stroke-width:0.8;"/>
     </g>
     <g id="line2d_30">
      <g>
       <use style="stroke:#000000;stroke-width:0.8;" x="57.6" xlink:href="#m364e73c8b4" y="84.056079"/>
      </g>
     </g>
     <g id="text_10">
      <!-- 0.8 -->
      <g transform="translate(25.155 90.134829)scale(0.16 -0.16)">
       <defs>
        <path d="M 2034 2216 
Q 1584 2216 1326 1975 
Q 1069 1734 1069 1313 
Q 1069 891 1326 650 
Q 1584 409 2034 409 
Q 2484 409 2743 651 
Q 3003 894 3003 1313 
Q 3003 1734 2745 1975 
Q 2488 2216 2034 2216 
z
M 1403 2484 
Q 997 2584 770 2862 
Q 544 3141 544 3541 
Q 544 4100 942 4425 
Q 1341 4750 2034 4750 
Q 2731 4750 3128 4425 
Q 3525 4100 3525 3541 
Q 3525 3141 3298 2862 
Q 3072 2584 2669 2484 
Q 3125 2378 3379 2068 
Q 3634 1759 3634 1313 
Q 3634 634 3220 271 
Q 2806 -91 2034 -91 
Q 1263 -91 848 271 
Q 434 634 434 1313 
Q 434 1759 690 2068 
Q 947 2378 1403 2484 
z
M 1172 3481 
Q 1172 3119 1398 2916 
Q 1625 2713 2034 2713 
Q 2441 2713 2670 2916 
Q 2900 3119 2900 3481 
Q 2900 3844 2670 4047 
Q 2441 4250 2034 4250 
Q 1625 4250 1398 4047 
Q 1172 3844 1172 3481 
z
" id="DejaVuSans-38" transform="scale(0.015625)"/>
       </defs>
       <use xlink:href="#DejaVuSans-30"/>
       <use x="63.623047" xlink:href="#DejaVuSans-2e"/>
       <use x="95.410156" xlink:href="#DejaVuSans-38"/>
      </g>
     </g>
    </g>
    <g id="ytick_6">
     <g id="line2d_31">
      <path clip-path="url(#pce1ef4260d)" d="M 57.6 30.334099 
L 338.688 30.334099 
" style="fill:none;stroke:#b0b0b0;stroke-linecap:square;stroke-width:0.8;"/>
     </g>
     <g id="line2d_32">
      <g>
       <use style="stroke:#000000;stroke-width:0.8;" x="57.6" xlink:href="#m364e73c8b4" y="30.334099"/>
      </g>
     </g>
     <g id="text_11">
      <!-- 1.0 -->
      <g transform="translate(25.155 36.412849)scale(0.16 -0.16)">
       <use xlink:href="#DejaVuSans-31"/>
       <use x="63.623047" xlink:href="#DejaVuSans-2e"/>
       <use x="95.410156" xlink:href="#DejaVuSans-30"/>
      </g>
     </g>
    </g>
    <g id="text_12">
     <!-- Fraction of function,target pairs -->
     <g transform="translate(17.619531 297.681)rotate(-90)scale(0.17 -0.17)">
      <defs>
       <path d="M 628 4666 
L 3309 4666 
L 3309 4134 
L 1259 4134 
L 1259 2759 
L 3109 2759 
L 3109 2228 
L 1259 2228 
L 1259 0 
L 628 0 
L 628 4666 
z
" id="DejaVuSans-46" transform="scale(0.015625)"/>
       <path d="M 2631 2963 
Q 2534 3019 2420 3045 
Q 2306 3072 2169 3072 
Q 1681 3072 1420 2755 
Q 1159 2438 1159 1844 
L 1159 0 
L 581 0 
L 581 3500 
L 1159 3500 
L 1159 2956 
Q 1341 3275 1631 3429 
Q 1922 3584 2338 3584 
Q 2397 3584 2469 3576 
Q 2541 3569 2628 3553 
L 2631 2963 
z
" id="DejaVuSans-72" transform="scale(0.015625)"/>
       <path d="M 3122 3366 
L 3122 2828 
Q 2878 2963 2633 3030 
Q 2388 3097 2138 3097 
Q 1578 3097 1268 2742 
Q 959 2388 959 1747 
Q 959 1106 1268 751 
Q 1578 397 2138 397 
Q 2388 397 2633 464 
Q 2878 531 3122 666 
L 3122 134 
Q 2881 22 2623 -34 
Q 2366 -91 2075 -91 
Q 1284 -91 818 406 
Q 353 903 353 1747 
Q 353 2603 823 3093 
Q 1294 3584 2113 3584 
Q 2378 3584 2631 3529 
Q 2884 3475 3122 3366 
z
" id="DejaVuSans-63" transform="scale(0.015625)"/>
       <path d="M 1172 4494 
L 1172 3500 
L 2356 3500 
L 2356 3053 
L 1172 3053 
L 1172 1153 
Q 1172 725 1289 603 
Q 1406 481 1766 481 
L 2356 481 
L 2356 0 
L 1766 0 
Q 1100 0 847 248 
Q 594 497 594 1153 
L 594 3053 
L 172 3053 
L 172 3500 
L 594 3500 
L 594 4494 
L 1172 4494 
z
" id="DejaVuSans-74" transform="scale(0.015625)"/>
       <path d="M 544 1381 
L 544 3500 
L 1119 3500 
L 1119 1403 
Q 1119 906 1312 657 
Q 1506 409 1894 409 
Q 2359 409 2629 706 
Q 2900 1003 2900 1516 
L 2900 3500 
L 3475 3500 
L 3475 0 
L 2900 0 
L 2900 538 
Q 2691 219 2414 64 
Q 2138 -91 1772 -91 
Q 1169 -91 856 284 
Q 544 659 544 1381 
z
M 1991 3584 
L 1991 3584 
z
" id="DejaVuSans-75" transform="scale(0.015625)"/>
       <path d="M 750 794 
L 1409 794 
L 1409 256 
L 897 -744 
L 494 -744 
L 750 256 
L 750 794 
z
" id="DejaVuSans-2c" transform="scale(0.015625)"/>
       <path d="M 1159 525 
L 1159 -1331 
L 581 -1331 
L 581 3500 
L 1159 3500 
L 1159 2969 
Q 1341 3281 1617 3432 
Q 1894 3584 2278 3584 
Q 2916 3584 3314 3078 
Q 3713 2572 3713 1747 
Q 3713 922 3314 415 
Q 2916 -91 2278 -91 
Q 1894 -91 1617 61 
Q 1341 213 1159 525 
z
M 3116 1747 
Q 3116 2381 2855 2742 
Q 2594 3103 2138 3103 
Q 1681 3103 1420 2742 
Q 1159 2381 1159 1747 
Q 1159 1113 1420 752 
Q 1681 391 2138 391 
Q 2594 391 2855 752 
Q 3116 1113 3116 1747 
z
" id="DejaVuSans-70" transform="scale(0.015625)"/>
      </defs>
      <use xlink:href="#DejaVuSans-46"/>
      <use x="50.269531" xlink:href="#DejaVuSans-72"/>
      <use x="91.382812" xlink:href="#DejaVuSans-61"/>
      <use x="152.662109" xlink:href="#DejaVuSans-63"/>
      <use x="207.642578" xlink:href="#DejaVuSans-74"/>
      <use x="246.851562" xlink:href="#DejaVuSans-69"/>
      <use x="274.634766" xlink:href="#DejaVuSans-6f"/>
      <use x="335.816406" xlink:href="#DejaVuSans-6e"/>
      <use x="399.195312" xlink:href="#DejaVuSans-20"/>
      <use x="430.982422" xlink:href="#DejaVuSans-6f"/>
      <use x="492.164062" xlink:href="#DejaVuSans-66"/>
      <use x="527.369141" xlink:href="#DejaVuSans-20"/>
      <use x="559.15625" xlink:href="#DejaVuSans-66"/>
      <use x="594.361328" xlink:href="#DejaVuSans-75"/>
      <use x="657.740234" xlink:href="#DejaVuSans-6e"/>
      <use x="721.119141" xlink:href="#DejaVuSans-63"/>
      <use x="776.099609" xlink:href="#DejaVuSans-74"/>
      <use x="815.308594" xlink:href="#DejaVuSans-69"/>
      <use x="843.091797" xlink:href="#DejaVuSans-6f"/>
      <use x="904.273438" xlink:href="#DejaVuSans-6e"/>
      <use x="967.652344" xlink:href="#DejaVuSans-2c"/>
      <use x="999.439453" xlink:href="#DejaVuSans-74"/>
      <use x="1038.648438" xlink:href="#DejaVuSans-61"/>
      <use x="1099.927734" xlink:href="#DejaVuSans-72"/>
      <use x="1139.291016" xlink:href="#DejaVuSans-67"/>
      <use x="1202.767578" xlink:href="#DejaVuSans-65"/>
      <use x="1264.291016" xlink:href="#DejaVuSans-74"/>
      <use x="1303.5" xlink:href="#DejaVuSans-20"/>
      <use x="1335.287109" xlink:href="#DejaVuSans-70"/>
      <use x="1398.763672" xlink:href="#DejaVuSans-61"/>
      <use x="1460.042969" xlink:href="#DejaVuSans-69"/>
      <use x="1487.826172" xlink:href="#DejaVuSans-72"/>
      <use x="1528.939453" xlink:href="#DejaVuSans-73"/>
     </g>
    </g>
   </g>
   <g id="line2d_33">
    <defs>
     <path d="M 0 1.5 
C 0.397805 1.5 0.77937 1.341951 1.06066 1.06066 
C 1.341951 0.77937 1.5 0.397805 1.5 0 
C 1.5 -0.397805 1.341951 -0.77937 1.06066 -1.06066 
C 0.77937 -1.341951 0.397805 -1.5 0 -1.5 
C -0.397805 -1.5 -0.77937 -1.341951 -1.06066 -1.06066 
C -1.341951 -0.77937 -1.5 -0.397805 -1.5 0 
C -1.5 0.397805 -1.341951 0.77937 -1.06066 1.06066 
C -0.77937 1.341951 -0.397805 1.5 0 1.5 
z
" id="m09f0911226" style="stroke:#f5deb3;"/>
    </defs>
    <g>
     <use style="fill:#f5deb3;stroke:#f5deb3;" x="132.80063" xlink:href="#m09f0911226" y="30.334099"/>
     <use style="fill:#f5deb3;stroke:#f5deb3;" x="132.80063" xlink:href="#m09f0911226" y="30.334099"/>
    </g>
   </g>
   <g id="line2d_34">
    <defs>
     <path d="M 0 1.5 
C 0.397805 1.5 0.77937 1.341951 1.06066 1.06066 
C 1.341951 0.77937 1.5 0.397805 1.5 0 
C 1.5 -0.397805 1.341951 -0.77937 1.06066 -1.06066 
C 0.77937 -1.341951 0.397805 -1.5 0 -1.5 
C -0.397805 -1.5 -0.77937 -1.341951 -1.06066 -1.06066 
C -1.341951 -0.77937 -1.5 -0.397805 -1.5 0 
C -1.5 0.397805 -1.341951 0.77937 -1.06066 1.06066 
C -0.77937 1.341951 -0.397805 1.5 0 1.5 
z
" id="m5b13726558" style="stroke:#000080;"/>
    </defs>
    <g>
     <use style="fill:#000080;stroke:#000080;" x="292.020191" xlink:href="#m5b13726558" y="146.205037"/>
     <use style="fill:#000080;stroke:#000080;" x="292.020191" xlink:href="#m5b13726558" y="146.205037"/>
    </g>
   </g>
   <g id="line2d_35">
    <path d="M 95.918017 298.944 
L 95.918017 298.417314 
L 112.72987 298.417314 
L 112.72987 297.890628 
L 113.311233 297.890628 
L 113.311233 297.363942 
L 113.73488 297.363942 
L 113.73488 296.31057 
L 116.202531 296.31057 
L 116.202531 295.783884 
L 118.256582 295.783884 
L 118.256582 295.257197 
L 119.89914 295.257197 
L 119.89914 294.730511 
L 120.382253 294.730511 
L 120.382253 294.203825 
L 123.829748 294.203825 
L 123.829748 293.150453 
L 124.669438 293.150453 
L 124.669438 292.623767 
L 126.904721 292.623767 
L 126.904721 292.097081 
L 128.944197 292.097081 
L 128.944197 291.570395 
L 131.740458 291.570395 
L 131.740458 291.043709 
L 133.844123 291.043709 
L 133.844123 289.990337 
L 134.236034 289.990337 
L 134.321942 288.936964 
L 134.745246 288.936964 
L 134.745246 288.410278 
L 135.361539 288.410278 
L 135.361539 287.883592 
L 135.562224 287.883592 
L 135.562224 287.356906 
L 136.86886 287.356906 
L 136.86886 286.83022 
L 138.118883 286.83022 
L 138.118883 286.303534 
L 138.324456 286.303534 
L 138.324456 285.776848 
L 139.445704 285.776848 
L 139.541262 284.723476 
L 139.636299 284.723476 
L 139.636299 283.670104 
L 139.9494 283.670104 
L 140.011351 282.090045 
L 140.348205 282.090045 
L 140.348205 281.563359 
L 141.090414 281.563359 
L 141.090414 281.036673 
L 141.46423 281.036673 
L 141.46423 280.509987 
L 141.69035 280.509987 
L 141.71841 278.929929 
L 141.858037 278.929929 
L 141.858037 278.403243 
L 142.910378 278.403243 
L 142.910378 277.876557 
L 143.502469 277.876557 
L 143.527762 276.823185 
L 143.828447 276.823185 
L 143.828447 276.296499 
L 144.390658 276.296499 
L 144.390658 275.769812 
L 145.212864 275.769812 
L 145.212864 274.71644 
L 145.621085 274.71644 
L 145.621085 273.663068 
L 145.732804 273.663068 
L 145.732804 272.609696 
L 146.107383 272.609696 
L 146.107383 272.08301 
L 146.324022 272.08301 
L 146.324022 271.556324 
L 146.559258 271.556324 
L 146.559258 271.029638 
L 146.916676 271.029638 
L 146.916676 270.502952 
L 147.185137 270.502952 
L 147.246507 269.449579 
L 147.690073 269.449579 
L 147.690073 268.922893 
L 147.86833 268.922893 
L 147.86833 268.396207 
L 148.258051 268.396207 
L 148.258051 267.869521 
L 148.826773 267.869521 
L 148.882639 266.816149 
L 149.085961 266.816149 
L 149.085961 266.289463 
L 149.232356 266.289463 
L 149.232356 265.762777 
L 150.766468 265.762777 
L 150.766468 265.236091 
L 151.324836 265.236091 
L 151.324836 264.709405 
L 152.526944 264.709405 
L 152.526944 264.182719 
L 152.944315 264.182719 
L 152.944315 263.656033 
L 153.207444 263.656033 
L 153.207444 263.129347 
L 153.820412 263.129347 
L 153.820412 262.60266 
L 154.19457 262.60266 
L 154.19457 262.075974 
L 155.128803 262.075974 
L 155.128803 261.549288 
L 155.653621 261.549288 
L 155.653621 260.495916 
L 157.517493 260.495916 
L 157.517493 259.96923 
L 157.675417 259.96923 
L 157.675417 259.442544 
L 157.809652 259.442544 
L 157.809652 258.915858 
L 158.206267 258.915858 
L 158.206267 258.389172 
L 158.358103 258.389172 
L 158.358103 257.862486 
L 159.035853 257.862486 
L 159.035853 256.809114 
L 159.62811 256.809114 
L 159.678237 255.755741 
L 160.191194 255.755741 
L 160.191194 255.229055 
L 161.6095 255.229055 
L 161.6095 254.702369 
L 163.02881 254.702369 
L 163.053576 253.648997 
L 165.200871 253.648997 
L 165.200871 253.122311 
L 166.089553 253.122311 
L 166.089553 252.595625 
L 166.487008 252.595625 
L 166.574863 251.015567 
L 167.242762 251.015567 
L 167.242762 250.488881 
L 168.281683 250.488881 
L 168.281683 249.962195 
L 168.674545 249.962195 
L 168.752066 248.908822 
L 169.394577 248.908822 
L 169.394577 248.382136 
L 170.435289 248.382136 
L 170.467674 247.328764 
L 171.366236 247.328764 
L 171.366236 246.802078 
L 172.753848 246.802078 
L 172.753848 246.275392 
L 173.091121 246.275392 
L 173.091121 245.748706 
L 173.261938 245.748706 
L 173.261938 245.22202 
L 173.580597 245.22202 
L 173.580597 244.695334 
L 173.715403 244.695334 
L 173.715403 244.168648 
L 174.736806 244.168648 
L 174.736806 243.641962 
L 175.211544 243.641962 
L 175.289425 242.588589 
L 177.459425 242.588589 
L 177.517111 241.008531 
L 178.442377 241.008531 
L 178.442377 240.481845 
L 178.830571 240.481845 
L 178.88723 238.901787 
L 179.346962 238.901787 
L 179.346962 238.375101 
L 180.424599 238.375101 
L 180.424599 237.848415 
L 180.57023 237.848415 
L 180.57023 237.321729 
L 180.705664 237.321729 
L 180.705664 236.795043 
L 181.901854 236.795043 
L 181.999553 235.74167 
L 182.697981 235.74167 
L 182.697981 235.214984 
L 182.963384 235.214984 
L 182.963384 234.688298 
L 183.56145 234.688298 
L 183.56145 234.161612 
L 184.47619 234.161612 
L 184.47619 233.634926 
L 184.99723 233.634926 
L 184.99723 233.10824 
L 185.430138 233.10824 
L 185.430138 232.581554 
L 185.616632 232.581554 
L 185.646016 231.528182 
L 185.941604 231.528182 
L 185.941604 231.001496 
L 186.648714 231.001496 
L 186.759237 229.948123 
L 187.204787 229.948123 
L 187.204787 229.421437 
L 190.180414 229.421437 
L 190.180414 228.894751 
L 190.412203 228.894751 
L 190.412203 228.368065 
L 190.695137 228.368065 
L 190.695137 227.841379 
L 190.875107 227.841379 
L 190.875107 227.314693 
L 191.076412 227.314693 
L 191.076412 226.788007 
L 191.605878 226.788007 
L 191.605878 226.261321 
L 191.741742 226.261321 
L 191.741742 225.734635 
L 193.342549 225.734635 
L 193.342549 225.207949 
L 193.510235 225.207949 
L 193.510235 224.681263 
L 193.907068 224.681263 
L 193.907068 224.154577 
L 194.665208 224.154577 
L 194.665208 223.627891 
L 195.303713 223.627891 
L 195.303713 223.101204 
L 195.61377 223.101204 
L 195.61377 222.574518 
L 196.17589 222.574518 
L 196.17589 222.047832 
L 196.391859 222.047832 
L 196.391859 221.521146 
L 198.780358 221.521146 
L 198.780358 220.99446 
L 199.34639 220.99446 
L 199.34639 220.467774 
L 199.795582 220.467774 
L 199.827658 219.414402 
L 200.381583 219.414402 
L 200.381583 218.887716 
L 202.343118 218.887716 
L 202.343118 218.36103 
L 202.570501 218.36103 
L 202.570501 217.834344 
L 203.251026 217.834344 
L 203.251026 217.307658 
L 203.692262 217.307658 
L 203.692262 216.780971 
L 204.063797 216.780971 
L 204.063797 216.254285 
L 204.632537 216.254285 
L 204.632537 215.727599 
L 205.360675 215.727599 
L 205.360675 215.200913 
L 205.547077 215.200913 
L 205.547077 214.674227 
L 206.034388 214.674227 
L 206.034388 214.147541 
L 207.11498 214.147541 
L 207.11498 213.620855 
L 208.266348 213.620855 
L 208.276222 212.567483 
L 209.263218 212.567483 
L 209.263218 212.040797 
L 209.937353 212.040797 
L 209.98664 210.460738 
L 210.485593 210.460738 
L 210.485593 209.934052 
L 210.688767 209.934052 
L 210.688767 209.407366 
L 210.840142 209.407366 
L 210.877914 208.353994 
L 211.820248 208.353994 
L 211.820248 207.827308 
L 212.064228 207.827308 
L 212.064228 207.300622 
L 212.267587 207.300622 
L 212.267587 206.773936 
L 212.503494 206.773936 
L 212.503494 206.24725 
L 212.742461 206.24725 
L 212.742461 205.720564 
L 213.165172 205.720564 
L 213.165172 205.193878 
L 213.546442 205.193878 
L 213.576513 204.140506 
L 213.757665 204.140506 
L 213.757665 203.613819 
L 213.928033 203.613819 
L 213.928033 203.087133 
L 215.00291 203.087133 
L 215.00291 202.560447 
L 215.114554 202.560447 
L 215.114554 202.033761 
L 215.27677 202.033761 
L 215.27677 201.507075 
L 216.151 201.507075 
L 216.259457 200.453703 
L 216.358706 200.453703 
L 216.358706 199.927017 
L 216.499024 199.927017 
L 216.499024 199.400331 
L 217.217443 199.400331 
L 217.217443 198.873645 
L 217.443194 198.873645 
L 217.546465 197.820273 
L 217.60799 197.820273 
L 217.60799 197.293586 
L 223.57787 197.293586 
L 223.57787 196.7669 
L 224.629686 196.7669 
L 224.629686 195.713528 
L 225.906369 195.713528 
L 225.906369 194.13347 
L 227.501322 194.13347 
L 227.501322 193.606784 
L 228.294672 193.606784 
L 228.294672 193.080098 
L 228.825232 193.080098 
L 228.89932 192.026726 
L 229.359842 192.026726 
L 229.359842 191.50004 
L 229.924786 191.50004 
L 229.924786 190.973354 
L 233.192608 190.973354 
L 233.192608 190.446667 
L 234.571932 190.446667 
L 234.571932 189.919981 
L 234.873606 189.919981 
L 234.873606 189.393295 
L 236.405246 189.393295 
L 236.405246 188.866609 
L 236.717433 188.866609 
L 236.781564 185.706493 
L 237.05235 185.706493 
L 237.05235 185.179807 
L 240.551946 185.179807 
L 240.551946 184.653121 
L 241.671246 184.653121 
L 241.706754 183.599748 
L 241.929227 183.599748 
L 241.929227 183.073062 
L 244.233516 183.073062 
L 244.233516 182.546376 
L 244.603461 182.546376 
L 244.658696 181.493004 
L 244.828517 181.493004 
L 244.828517 180.439632 
L 245.21944 180.439632 
L 245.21944 179.912946 
L 245.915395 179.912946 
L 245.915395 179.38626 
L 248.120803 179.38626 
L 248.120803 178.859574 
L 248.987792 178.859574 
L 248.987792 178.332888 
L 249.14022 178.332888 
L 249.14022 177.806202 
L 251.008135 177.806202 
L 251.008135 177.279515 
L 251.126307 177.279515 
L 251.126307 176.752829 
L 251.39966 176.752829 
L 251.39966 175.699457 
L 253.030427 175.699457 
L 253.030427 175.172771 
L 253.686632 175.172771 
L 253.686632 174.646085 
L 253.824836 174.646085 
L 253.824836 174.119399 
L 254.239893 174.119399 
L 254.253021 173.066027 
L 255.2275 173.066027 
L 255.2275 172.539341 
L 255.743412 172.539341 
L 255.743412 172.012655 
L 255.953563 172.012655 
L 255.953563 171.485969 
L 256.236022 171.485969 
L 256.236022 170.959282 
L 257.078678 170.959282 
L 257.078678 170.432596 
L 257.379594 170.432596 
L 257.379594 169.90591 
L 257.580961 169.90591 
L 257.580961 169.379224 
L 257.740861 169.379224 
L 257.850486 167.27248 
L 258.180791 167.27248 
L 258.180791 166.745794 
L 258.993112 166.745794 
L 258.993112 166.219108 
L 259.77861 166.219108 
L 259.77861 165.692422 
L 260.600147 165.692422 
L 260.600147 165.165736 
L 260.895765 165.165736 
L 260.895765 164.63905 
L 262.071507 164.63905 
L 262.071507 164.112363 
L 264.974748 164.112363 
L 264.974748 163.585677 
L 265.257384 163.585677 
L 265.257384 163.058991 
L 265.847723 163.058991 
L 265.861217 162.005619 
L 267.051058 162.005619 
L 267.051058 161.478933 
L 267.259452 161.478933 
L 267.259452 160.952247 
L 268.277099 160.952247 
L 268.277099 160.425561 
L 268.518909 160.425561 
L 268.518909 159.372189 
L 269.052707 159.372189 
L 269.156105 158.318817 
L 269.295409 158.318817 
L 269.295409 157.79213 
L 269.420172 157.79213 
L 269.467546 156.738758 
L 271.840928 156.738758 
L 271.840928 155.685386 
L 272.038296 155.685386 
L 272.038296 155.1587 
L 272.628683 155.1587 
L 272.628683 154.105328 
L 272.821906 154.105328 
L 272.821906 153.051956 
L 273.235955 153.051956 
L 273.235955 152.52527 
L 274.247868 152.52527 
L 274.247868 151.998584 
L 274.605599 151.998584 
L 274.605599 150.945211 
L 274.936043 150.945211 
L 274.936043 150.418525 
L 275.335897 150.418525 
L 275.335897 149.891839 
L 279.945189 149.891839 
L 279.945189 149.365153 
L 280.142921 149.365153 
L 280.142921 148.838467 
L 280.661388 148.838467 
L 280.661388 148.311781 
L 282.064123 148.311781 
L 282.064123 147.785095 
L 282.377092 147.785095 
L 282.377092 147.258409 
L 285.58611 147.258409 
L 285.58611 146.731723 
L 292.020191 146.731723 
L 292.020191 146.205037 
L 338.688 146.205037 
L 338.688 146.205037 
" style="fill:none;stroke:#000080;stroke-linecap:square;stroke-width:1.5;"/>
   </g>
   <g id="line2d_36">
    <defs>
     <path d="M 0 6 
C 1.591219 6 3.117479 5.367802 4.242641 4.242641 
C 5.367802 3.117479 6 1.591219 6 0 
C 6 -1.591219 5.367802 -3.117479 4.242641 -4.242641 
C 3.117479 -5.367802 1.591219 -6 0 -6 
C -1.591219 -6 -3.117479 -5.367802 -4.242641 -4.242641 
C -5.367802 -3.117479 -6 -1.591219 -6 0 
C -6 1.591219 -5.367802 3.117479 -4.242641 4.242641 
C -3.117479 5.367802 -1.591219 6 0 6 
z
" id="mae396d3cea" style="stroke:#000080;stroke-width:1.5;"/>
    </defs>
    <g>
     <use style="fill-opacity:0;stroke:#000080;stroke-width:1.5;" x="157.809652" xlink:href="#mae396d3cea" y="258.915858"/>
     <use style="fill-opacity:0;stroke:#000080;stroke-width:1.5;" x="223.57787" xlink:href="#mae396d3cea" y="197.293586"/>
     <use style="fill-opacity:0;stroke:#000080;stroke-width:1.5;" x="273.235955" xlink:href="#mae396d3cea" y="152.52527"/>
     <use style="fill-opacity:0;stroke:#000080;stroke-width:1.5;" x="292.020191" xlink:href="#mae396d3cea" y="146.205037"/>
     <use style="fill-opacity:0;stroke:#000080;stroke-width:1.5;" x="338.688" xlink:href="#mae396d3cea" y="146.205037"/>
    </g>
   </g>
   <g id="line2d_37">
    <path style="fill:none;stroke:#000080;stroke-linecap:square;stroke-width:1.5;"/>
    <g/>
   </g>
   <g id="line2d_38">
    <path clip-path="url(#pce1ef4260d)" d="M 218.221714 197.293586 
" style="fill:none;stroke:#000080;stroke-linecap:square;stroke-width:1.5;"/>
    <defs>
     <path d="M -12 12 
L 12 -12 
M -12 -12 
L 12 12 
" id="m7c3ceea504" style="stroke:#000080;"/>
    </defs>
    <g clip-path="url(#pce1ef4260d)">
     <use style="fill:#000080;stroke:#000080;" x="218.221714" xlink:href="#m7c3ceea504" y="197.293586"/>
    </g>
   </g>
   <g id="line2d_39">
    <defs>
     <path d="M 0 1.5 
C 0.397805 1.5 0.77937 1.341951 1.06066 1.06066 
C 1.341951 0.77937 1.5 0.397805 1.5 0 
C 1.5 -0.397805 1.341951 -0.77937 1.06066 -1.06066 
C 0.77937 -1.341951 0.397805 -1.5 0 -1.5 
C -0.397805 -1.5 -0.77937 -1.341951 -1.06066 -1.06066 
C -1.341951 -0.77937 -1.5 -0.397805 -1.5 0 
C -1.5 0.397805 -1.341951 0.77937 -1.06066 1.06066 
C -0.77937 1.341951 -0.397805 1.5 0 1.5 
z
" id="mcc439f6430" style="stroke:#ff00ff;"/>
    </defs>
    <g>
     <use style="fill:#ff00ff;stroke:#ff00ff;" x="273.299084" xlink:href="#mcc439f6430" y="219.941088"/>
     <use style="fill:#ff00ff;stroke:#ff00ff;" x="273.299084" xlink:href="#mcc439f6430" y="219.941088"/>
    </g>
   </g>
   <g id="line2d_40">
    <path d="M 112.877038 298.944 
L 112.877038 297.890628 
L 114.685115 297.890628 
L 114.685115 296.837256 
L 119.602714 296.837256 
L 119.602714 296.31057 
L 119.89914 296.31057 
L 119.89914 295.783884 
L 122.276749 295.783884 
L 122.276749 295.257197 
L 123.029641 295.257197 
L 123.029641 294.730511 
L 125.541584 294.730511 
L 125.541584 294.203825 
L 126.97016 294.203825 
L 126.97016 292.623767 
L 129.233413 292.623767 
L 129.233413 292.097081 
L 131.338382 292.097081 
L 131.338382 291.570395 
L 132.133473 291.570395 
L 132.133473 291.043709 
L 132.940331 291.043709 
L 132.940331 290.517023 
L 133.124876 290.517023 
L 133.124876 289.990337 
L 140.915143 289.990337 
L 140.915143 288.936964 
L 145.166911 288.936964 
L 145.166911 288.410278 
L 148.430623 288.410278 
L 148.430623 287.883592 
L 149.735275 287.883592 
L 149.735275 287.356906 
L 152.021866 287.356906 
L 152.021866 286.83022 
L 152.766663 286.83022 
L 152.796398 285.776848 
L 153.48095 285.776848 
L 153.48095 285.250162 
L 153.806399 285.250162 
L 153.806399 284.723476 
L 154.249325 284.723476 
L 154.249325 283.670104 
L 154.587699 283.670104 
L 154.587699 283.143418 
L 156.729404 283.143418 
L 156.764934 282.090045 
L 161.127947 282.090045 
L 161.127947 281.036673 
L 161.411222 281.036673 
L 161.411222 279.983301 
L 163.859601 279.983301 
L 163.859601 279.456615 
L 164.171861 279.456615 
L 164.171861 278.929929 
L 164.727712 278.929929 
L 164.727712 277.876557 
L 166.994465 277.876557 
L 166.994465 277.349871 
L 167.210292 277.349871 
L 167.210292 276.823185 
L 169.582803 276.823185 
L 169.582803 276.296499 
L 170.223309 276.296499 
L 170.223309 275.769812 
L 170.988289 275.769812 
L 170.988289 275.243126 
L 172.453287 275.243126 
L 172.453287 274.71644 
L 172.942027 274.71644 
L 172.942027 273.663068 
L 173.14208 273.663068 
L 173.14208 273.136382 
L 174.021557 273.136382 
L 174.021557 272.609696 
L 174.408678 272.609696 
L 174.408678 272.08301 
L 175.133313 272.08301 
L 175.133313 271.556324 
L 175.737594 271.556324 
L 175.737594 271.029638 
L 176.871817 271.029638 
L 176.871817 269.449579 
L 177.603284 269.449579 
L 177.660498 267.869521 
L 178.418467 267.869521 
L 178.418467 267.342835 
L 179.141581 267.342835 
L 179.141581 266.816149 
L 179.401971 266.816149 
L 179.401971 266.289463 
L 179.992759 266.289463 
L 179.992759 264.709405 
L 180.726638 264.709405 
L 180.798355 263.656033 
L 181.806419 263.656033 
L 181.806419 263.129347 
L 181.940999 263.129347 
L 181.940999 262.075974 
L 183.10504 262.075974 
L 183.183243 260.495916 
L 185.303924 260.495916 
L 185.35452 259.442544 
L 185.609844 259.442544 
L 185.609844 258.915858 
L 185.890459 258.915858 
L 185.890459 258.389172 
L 187.113676 258.389172 
L 187.113676 257.862486 
L 187.992201 257.862486 
L 187.992201 257.3358 
L 188.877439 257.3358 
L 188.877439 256.809114 
L 189.047361 256.809114 
L 189.047361 256.282427 
L 189.413278 256.282427 
L 189.413278 255.755741 
L 190.485935 255.755741 
L 190.485935 254.702369 
L 191.263968 254.702369 
L 191.263968 254.175683 
L 191.564107 254.175683 
L 191.564107 253.648997 
L 191.851259 253.648997 
L 191.851259 253.122311 
L 192.288748 253.122311 
L 192.288748 252.595625 
L 192.774155 252.595625 
L 192.774155 252.068939 
L 194.417049 252.068939 
L 194.417049 251.542253 
L 203.069029 251.542253 
L 203.069029 251.015567 
L 203.821768 251.015567 
L 203.821768 250.488881 
L 204.07165 250.488881 
L 204.07165 249.962195 
L 204.489015 249.962195 
L 204.489015 249.435508 
L 207.107725 249.435508 
L 207.118936 248.382136 
L 208.815624 248.382136 
L 208.815624 247.85545 
L 209.969294 247.85545 
L 209.969294 247.328764 
L 210.323417 247.328764 
L 210.323417 246.802078 
L 210.674794 246.802078 
L 210.674794 246.275392 
L 210.902874 246.275392 
L 210.910832 245.22202 
L 211.043463 245.22202 
L 211.043463 244.695334 
L 211.617688 244.695334 
L 211.617688 244.168648 
L 211.840879 244.168648 
L 211.840879 243.641962 
L 212.123704 243.641962 
L 212.123704 243.115275 
L 212.534934 243.115275 
L 212.534934 242.588589 
L 216.08568 242.588589 
L 216.08568 242.061903 
L 216.521724 242.061903 
L 216.600751 241.008531 
L 220.068053 241.008531 
L 220.068053 240.481845 
L 220.259016 240.481845 
L 220.259016 239.955159 
L 220.416263 239.955159 
L 220.416263 239.428473 
L 221.842098 239.428473 
L 221.842098 238.901787 
L 221.993342 238.901787 
L 221.993342 238.375101 
L 222.332504 238.375101 
L 222.332504 237.848415 
L 224.352385 237.848415 
L 224.352385 237.321729 
L 224.632102 237.321729 
L 224.632102 236.795043 
L 224.984017 236.795043 
L 224.984017 236.268356 
L 225.62736 236.268356 
L 225.62736 235.214984 
L 226.667145 235.214984 
L 226.667145 234.688298 
L 227.126727 234.688298 
L 227.126727 233.10824 
L 227.697093 233.10824 
L 227.697093 232.581554 
L 232.297281 232.581554 
L 232.297281 232.054868 
L 233.807797 232.054868 
L 233.807797 231.528182 
L 234.016592 231.528182 
L 234.016592 231.001496 
L 234.402711 231.001496 
L 234.402711 230.47481 
L 235.123502 230.47481 
L 235.123502 229.948123 
L 235.267014 229.948123 
L 235.299925 228.894751 
L 236.727092 228.894751 
L 236.832268 227.841379 
L 240.213198 227.841379 
L 240.213198 227.314693 
L 241.881061 227.314693 
L 241.881061 226.261321 
L 242.053021 226.261321 
L 242.053021 225.734635 
L 244.564 225.734635 
L 244.564 225.207949 
L 247.111562 225.207949 
L 247.111562 224.681263 
L 249.19664 224.681263 
L 249.19664 224.154577 
L 250.156716 224.154577 
L 250.156716 223.627891 
L 251.960869 223.627891 
L 251.960869 223.101204 
L 252.748353 223.101204 
L 252.748353 222.574518 
L 256.312005 222.574518 
L 256.312005 222.047832 
L 258.172324 222.047832 
L 258.172324 221.521146 
L 259.914736 221.521146 
L 259.914736 220.99446 
L 261.386185 220.99446 
L 261.386185 220.467774 
L 273.299084 220.467774 
L 273.299084 219.941088 
L 338.688 219.941088 
L 338.688 219.941088 
" style="fill:none;stroke:#ff00ff;stroke-linecap:square;stroke-width:1.5;"/>
   </g>
   <g id="line2d_41">
    <defs>
     <path d="M 0 8.485281 
L 5.091169 0 
L 0 -8.485281 
L -5.091169 0 
z
" id="m03ed78b142" style="stroke:#ff00ff;stroke-linejoin:miter;stroke-width:1.5;"/>
    </defs>
    <g>
     <use style="fill-opacity:0;stroke:#ff00ff;stroke-linejoin:miter;stroke-width:1.5;" x="156.764934" xlink:href="#m03ed78b142" y="282.616732"/>
     <use style="fill-opacity:0;stroke:#ff00ff;stroke-linejoin:miter;stroke-width:1.5;" x="233.807797" xlink:href="#m03ed78b142" y="231.528182"/>
     <use style="fill-opacity:0;stroke:#ff00ff;stroke-linejoin:miter;stroke-width:1.5;" x="273.299084" xlink:href="#m03ed78b142" y="220.467774"/>
     <use style="fill-opacity:0;stroke:#ff00ff;stroke-linejoin:miter;stroke-width:1.5;" x="273.299084" xlink:href="#m03ed78b142" y="219.941088"/>
     <use style="fill-opacity:0;stroke:#ff00ff;stroke-linejoin:miter;stroke-width:1.5;" x="338.688" xlink:href="#m03ed78b142" y="219.941088"/>
    </g>
   </g>
   <g id="line2d_42">
    <path style="fill:none;stroke:#ff00ff;stroke-linecap:square;stroke-width:1.5;"/>
    <g/>
   </g>
   <g id="line2d_43">
    <path clip-path="url(#pce1ef4260d)" d="M 218.221714 241.008531 
" style="fill:none;stroke:#ff00ff;stroke-linecap:square;stroke-width:1.5;"/>
    <defs>
     <path d="M -12 12 
L 12 -12 
M -12 -12 
L 12 12 
" id="m6f3cc824c0" style="stroke:#ff00ff;"/>
    </defs>
    <g clip-path="url(#pce1ef4260d)">
     <use style="fill:#ff00ff;stroke:#ff00ff;" x="218.221714" xlink:href="#m6f3cc824c0" y="241.008531"/>
    </g>
   </g>
   <g id="line2d_44">
    <defs>
     <path d="M 0 1.5 
C 0.397805 1.5 0.77937 1.341951 1.06066 1.06066 
C 1.341951 0.77937 1.5 0.397805 1.5 0 
C 1.5 -0.397805 1.341951 -0.77937 1.06066 -1.06066 
C 0.77937 -1.341951 0.397805 -1.5 0 -1.5 
C -0.397805 -1.5 -0.77937 -1.341951 -1.06066 -1.06066 
C -1.341951 -0.77937 -1.5 -0.397805 -1.5 0 
C -1.5 0.397805 -1.341951 0.77937 -1.06066 1.06066 
C -0.77937 1.341951 -0.397805 1.5 0 1.5 
z
" id="mfd680d02fb" style="stroke:#ff7500;"/>
    </defs>
    <g>
     <use style="fill:#ff7500;stroke:#ff7500;" x="284.929156" xlink:href="#mfd680d02fb" y="204.140506"/>
     <use style="fill:#ff7500;stroke:#ff7500;" x="284.929156" xlink:href="#mfd680d02fb" y="204.140506"/>
    </g>
   </g>
   <g id="line2d_45">
    <path d="M 111.974805 298.944 
L 111.974805 298.417314 
L 114.685115 298.417314 
L 114.685115 297.890628 
L 116.323218 297.890628 
L 116.323218 297.363942 
L 119.996839 297.363942 
L 119.996839 296.31057 
L 120.944859 296.31057 
L 120.944859 295.783884 
L 122.104932 295.783884 
L 122.104932 294.203825 
L 122.865118 294.203825 
L 122.865118 293.677139 
L 124.444412 293.677139 
L 124.519744 292.097081 
L 125.327602 292.097081 
L 125.327602 291.570395 
L 128.709321 291.570395 
L 128.768338 288.410278 
L 129.175952 288.410278 
L 129.175952 287.883592 
L 130.61164 287.883592 
L 130.61164 287.356906 
L 133.800029 287.356906 
L 133.800029 286.83022 
L 134.492498 286.83022 
L 134.492498 285.776848 
L 134.61933 285.776848 
L 134.61933 285.250162 
L 137.235245 285.250162 
L 137.235245 284.723476 
L 138.324456 284.723476 
L 138.324456 284.19679 
L 145.440832 284.19679 
L 145.440832 283.670104 
L 149.752971 283.670104 
L 149.841182 282.090045 
L 153.466662 282.090045 
L 153.466662 281.563359 
L 155.361158 281.563359 
L 155.361158 281.036673 
L 155.741666 281.036673 
L 155.741666 280.509987 
L 157.069866 280.509987 
L 157.069866 279.983301 
L 157.369557 279.983301 
L 157.369557 278.929929 
L 157.540141 278.929929 
L 157.540141 277.876557 
L 158.551397 277.876557 
L 158.551397 276.296499 
L 158.742573 276.296499 
L 158.742573 275.243126 
L 166.81587 275.243126 
L 166.81587 274.71644 
L 167.493969 274.71644 
L 167.506754 273.136382 
L 172.60183 273.136382 
L 172.60183 272.609696 
L 175.112667 272.609696 
L 175.112667 272.08301 
L 177.101871 272.08301 
L 177.101871 271.556324 
L 179.269007 271.556324 
L 179.269007 271.029638 
L 179.424571 271.029638 
L 179.424571 270.502952 
L 180.491498 270.502952 
L 180.491498 269.976266 
L 181.502625 269.976266 
L 181.502625 269.449579 
L 182.10501 269.449579 
L 182.10501 268.922893 
L 182.587988 268.922893 
L 182.587988 268.396207 
L 183.854214 268.396207 
L 183.854214 267.869521 
L 184.082962 267.869521 
L 184.082962 266.816149 
L 184.879635 266.816149 
L 184.879635 266.289463 
L 187.155149 266.289463 
L 187.155149 265.762777 
L 187.509831 265.762777 
L 187.509831 265.236091 
L 189.385963 265.236091 
L 189.385963 264.709405 
L 190.501327 264.709405 
L 190.6053 263.129347 
L 191.933341 263.129347 
L 191.933341 262.60266 
L 193.07911 262.60266 
L 193.07911 261.549288 
L 193.190826 261.549288 
L 193.190826 261.022602 
L 194.084758 261.022602 
L 194.084758 260.495916 
L 194.297822 260.495916 
L 194.388345 259.442544 
L 196.020862 259.442544 
L 196.020862 258.915858 
L 196.252276 258.915858 
L 196.253505 257.3358 
L 198.203031 257.3358 
L 198.203031 256.809114 
L 198.938094 256.809114 
L 198.938094 256.282427 
L 199.089193 256.282427 
L 199.089193 255.755741 
L 199.630261 255.755741 
L 199.734274 254.702369 
L 199.776509 254.702369 
L 199.776509 254.175683 
L 200.023837 254.175683 
L 200.104849 252.595625 
L 200.260869 252.595625 
L 200.260869 252.068939 
L 200.519765 252.068939 
L 200.556301 251.015567 
L 201.021629 251.015567 
L 201.021629 249.962195 
L 201.322945 249.962195 
L 201.322945 249.435508 
L 201.907728 249.435508 
L 201.907728 248.908822 
L 202.394193 248.908822 
L 202.394193 248.382136 
L 203.170189 248.382136 
L 203.170189 247.85545 
L 203.889336 247.85545 
L 203.889336 247.328764 
L 204.056727 247.328764 
L 204.056727 246.802078 
L 204.853137 246.802078 
L 204.853137 246.275392 
L 205.346815 246.275392 
L 205.346815 245.748706 
L 205.920364 245.748706 
L 205.920364 245.22202 
L 206.166481 245.22202 
L 206.223481 243.641962 
L 206.813682 243.641962 
L 206.813682 243.115275 
L 207.065455 243.115275 
L 207.103107 242.061903 
L 207.256833 242.061903 
L 207.366371 240.481845 
L 207.694743 240.481845 
L 207.778736 238.901787 
L 207.935455 238.901787 
L 207.935455 238.375101 
L 208.902734 238.375101 
L 208.950875 237.321729 
L 209.079195 237.321729 
L 209.079195 236.795043 
L 209.536811 236.795043 
L 209.536811 236.268356 
L 209.749574 236.268356 
L 209.749574 235.74167 
L 210.059754 235.74167 
L 210.059754 235.214984 
L 210.377644 235.214984 
L 210.377644 234.688298 
L 210.59882 234.688298 
L 210.59882 234.161612 
L 211.879055 234.161612 
L 211.98461 232.581554 
L 212.318058 232.581554 
L 212.318058 232.054868 
L 212.536383 232.054868 
L 212.536383 231.528182 
L 212.78491 231.528182 
L 212.78491 231.001496 
L 213.009264 231.001496 
L 213.009264 230.47481 
L 213.39944 230.47481 
L 213.42747 229.421437 
L 213.827358 229.421437 
L 213.840815 228.368065 
L 214.591186 228.368065 
L 214.591186 227.841379 
L 215.029736 227.841379 
L 215.040204 226.788007 
L 215.151195 226.788007 
L 215.151195 226.261321 
L 215.727614 226.261321 
L 215.812317 225.207949 
L 216.060431 225.207949 
L 216.109318 224.154577 
L 216.361423 224.154577 
L 216.361423 223.627891 
L 216.493633 223.627891 
L 216.493633 223.101204 
L 217.479627 223.101204 
L 217.571463 222.047832 
L 217.785197 222.047832 
L 217.869038 220.467774 
L 218.048557 220.467774 
L 218.048557 219.941088 
L 228.441454 219.941088 
L 228.444754 218.36103 
L 229.262521 218.36103 
L 229.262521 217.834344 
L 229.987608 217.834344 
L 229.987608 217.307658 
L 236.588338 217.307658 
L 236.588338 216.780971 
L 241.488573 216.780971 
L 241.488573 216.254285 
L 241.806803 216.254285 
L 241.806803 215.727599 
L 245.566927 215.727599 
L 245.566927 215.200913 
L 251.750078 215.200913 
L 251.750078 214.674227 
L 254.037805 214.674227 
L 254.037805 214.147541 
L 256.3645 214.147541 
L 256.3645 212.567483 
L 258.093306 212.567483 
L 258.093306 211.514111 
L 259.896044 211.514111 
L 259.973111 210.460738 
L 261.320491 210.460738 
L 261.320491 209.934052 
L 265.259452 209.934052 
L 265.343235 208.88068 
L 266.396812 208.88068 
L 266.475317 207.827308 
L 267.538368 207.827308 
L 267.538368 207.300622 
L 268.470603 207.300622 
L 268.470603 206.773936 
L 274.243613 206.773936 
L 274.243613 206.24725 
L 274.980117 206.24725 
L 274.980117 205.720564 
L 276.276833 205.720564 
L 276.276833 205.193878 
L 282.513846 205.193878 
L 282.513846 204.667192 
L 284.929156 204.667192 
L 284.929156 204.140506 
L 338.688 204.140506 
L 338.688 204.140506 
" style="fill:none;stroke:#ff7500;stroke-linecap:square;stroke-width:1.5;"/>
   </g>
   <g id="line2d_46">
    <defs>
     <path d="M 0 -6 
L -1.347084 -1.854102 
L -5.706339 -1.854102 
L -2.179628 0.708204 
L -3.526712 4.854102 
L -0 2.291796 
L 3.526712 4.854102 
L 2.179628 0.708204 
L 5.706339 -1.854102 
L 1.347084 -1.854102 
z
" id="mab39e4c068" style="stroke:#ff7500;stroke-linejoin:bevel;stroke-width:1.5;"/>
    </defs>
    <g>
     <use style="fill-opacity:0;stroke:#ff7500;stroke-linejoin:bevel;stroke-width:1.5;" x="153.466662" xlink:href="#mab39e4c068" y="281.563359"/>
     <use style="fill-opacity:0;stroke:#ff7500;stroke-linejoin:bevel;stroke-width:1.5;" x="209.079195" xlink:href="#mab39e4c068" y="237.321729"/>
     <use style="fill-opacity:0;stroke:#ff7500;stroke-linejoin:bevel;stroke-width:1.5;" x="268.470603" xlink:href="#mab39e4c068" y="207.300622"/>
     <use style="fill-opacity:0;stroke:#ff7500;stroke-linejoin:bevel;stroke-width:1.5;" x="284.929156" xlink:href="#mab39e4c068" y="204.140506"/>
     <use style="fill-opacity:0;stroke:#ff7500;stroke-linejoin:bevel;stroke-width:1.5;" x="338.688" xlink:href="#mab39e4c068" y="204.140506"/>
    </g>
   </g>
   <g id="line2d_47">
    <path style="fill:none;stroke:#ff7500;stroke-linecap:square;stroke-width:1.5;"/>
    <g/>
   </g>
   <g id="line2d_48">
    <path clip-path="url(#pce1ef4260d)" d="M 218.221714 219.941088 
" style="fill:none;stroke:#ff7500;stroke-linecap:square;stroke-width:1.5;"/>
    <defs>
     <path d="M -12 12 
L 12 -12 
M -12 -12 
L 12 12 
" id="m04c5003dca" style="stroke:#ff7500;"/>
    </defs>
    <g clip-path="url(#pce1ef4260d)">
     <use style="fill:#ff7500;stroke:#ff7500;" x="218.221714" xlink:href="#m04c5003dca" y="219.941088"/>
    </g>
   </g>
   <g id="line2d_49">
    <path d="M 338.688 219.941088 
L 369.60768 293.571802 
" style="fill:none;stroke:#ff00ff;stroke-linecap:square;stroke-width:1.5;"/>
    <g>
     <use style="fill-opacity:0;stroke:#ff00ff;stroke-linejoin:miter;stroke-width:1.5;" x="338.688" xlink:href="#m03ed78b142" y="219.941088"/>
     <use style="fill-opacity:0;stroke:#ff00ff;stroke-linejoin:miter;stroke-width:1.5;" x="369.60768" xlink:href="#m03ed78b142" y="293.571802"/>
    </g>
   </g>
   <g id="line2d_50">
    <path d="M 338.688 204.140506 
L 369.60768 207.616634 
" style="fill:none;stroke:#ff7500;stroke-linecap:square;stroke-width:1.5;"/>
    <g>
     <use style="fill-opacity:0;stroke:#ff7500;stroke-linejoin:bevel;stroke-width:1.5;" x="338.688" xlink:href="#mab39e4c068" y="204.140506"/>
     <use style="fill-opacity:0;stroke:#ff7500;stroke-linejoin:bevel;stroke-width:1.5;" x="369.60768" xlink:href="#mab39e4c068" y="207.616634"/>
    </g>
   </g>
   <g id="line2d_51">
    <path d="M 338.688 146.205037 
L 369.60768 121.661465 
" style="fill:none;stroke:#000080;stroke-linecap:square;stroke-width:1.5;"/>
    <g>
     <use style="fill-opacity:0;stroke:#000080;stroke-width:1.5;" x="338.688" xlink:href="#mae396d3cea" y="146.205037"/>
     <use style="fill-opacity:0;stroke:#000080;stroke-width:1.5;" x="369.60768" xlink:href="#mae396d3cea" y="121.661465"/>
    </g>
   </g>
   <g id="line2d_52">
    <path d="M 338.688 298.944 
L 338.688 30.334099 
" style="fill:none;stroke:#000000;stroke-linecap:square;stroke-width:1.5;"/>
   </g>
   <g id="patch_3">
    <path d="M 57.6 298.944 
L 57.6 27.648 
" style="fill:none;stroke:#000000;stroke-linecap:square;stroke-linejoin:miter;stroke-width:0.8;"/>
   </g>
   <g id="patch_4">
    <path d="M 338.688 298.944 
L 338.688 27.648 
" style="fill:none;stroke:#000000;stroke-linecap:square;stroke-linejoin:miter;stroke-width:0.8;"/>
   </g>
   <g id="patch_5">
    <path d="M 57.6 298.944 
L 338.688 298.944 
" style="fill:none;stroke:#000000;stroke-linecap:square;stroke-linejoin:miter;stroke-width:0.8;"/>
   </g>
   <g id="patch_6">
    <path d="M 57.6 27.648 
L 338.688 27.648 
" style="fill:none;stroke:#000000;stroke-linecap:square;stroke-linejoin:miter;stroke-width:0.8;"/>
   </g>
   <g id="text_13">
    <!-- PSO Bound -->
    <g transform="translate(375.22944 298.262739)scale(0.17 -0.17)">
     <defs>
      <path d="M 1259 4147 
L 1259 2394 
L 2053 2394 
Q 2494 2394 2734 2622 
Q 2975 2850 2975 3272 
Q 2975 3691 2734 3919 
Q 2494 4147 2053 4147 
L 1259 4147 
z
M 628 4666 
L 2053 4666 
Q 2838 4666 3239 4311 
Q 3641 3956 3641 3272 
Q 3641 2581 3239 2228 
Q 2838 1875 2053 1875 
L 1259 1875 
L 1259 0 
L 628 0 
L 628 4666 
z
" id="DejaVuSans-50" transform="scale(0.015625)"/>
      <path d="M 3425 4513 
L 3425 3897 
Q 3066 4069 2747 4153 
Q 2428 4238 2131 4238 
Q 1616 4238 1336 4038 
Q 1056 3838 1056 3469 
Q 1056 3159 1242 3001 
Q 1428 2844 1947 2747 
L 2328 2669 
Q 3034 2534 3370 2195 
Q 3706 1856 3706 1288 
Q 3706 609 3251 259 
Q 2797 -91 1919 -91 
Q 1588 -91 1214 -16 
Q 841 59 441 206 
L 441 856 
Q 825 641 1194 531 
Q 1563 422 1919 422 
Q 2459 422 2753 634 
Q 3047 847 3047 1241 
Q 3047 1584 2836 1778 
Q 2625 1972 2144 2069 
L 1759 2144 
Q 1053 2284 737 2584 
Q 422 2884 422 3419 
Q 422 4038 858 4394 
Q 1294 4750 2059 4750 
Q 2388 4750 2728 4690 
Q 3069 4631 3425 4513 
z
" id="DejaVuSans-53" transform="scale(0.015625)"/>
      <path d="M 2522 4238 
Q 1834 4238 1429 3725 
Q 1025 3213 1025 2328 
Q 1025 1447 1429 934 
Q 1834 422 2522 422 
Q 3209 422 3611 934 
Q 4013 1447 4013 2328 
Q 4013 3213 3611 3725 
Q 3209 4238 2522 4238 
z
M 2522 4750 
Q 3503 4750 4090 4092 
Q 4678 3434 4678 2328 
Q 4678 1225 4090 567 
Q 3503 -91 2522 -91 
Q 1538 -91 948 565 
Q 359 1222 359 2328 
Q 359 3434 948 4092 
Q 1538 4750 2522 4750 
z
" id="DejaVuSans-4f" transform="scale(0.015625)"/>
      <path d="M 1259 2228 
L 1259 519 
L 2272 519 
Q 2781 519 3026 730 
Q 3272 941 3272 1375 
Q 3272 1813 3026 2020 
Q 2781 2228 2272 2228 
L 1259 2228 
z
M 1259 4147 
L 1259 2741 
L 2194 2741 
Q 2656 2741 2882 2914 
Q 3109 3088 3109 3444 
Q 3109 3797 2882 3972 
Q 2656 4147 2194 4147 
L 1259 4147 
z
M 628 4666 
L 2241 4666 
Q 2963 4666 3353 4366 
Q 3744 4066 3744 3513 
Q 3744 3084 3544 2831 
Q 3344 2578 2956 2516 
Q 3422 2416 3680 2098 
Q 3938 1781 3938 1306 
Q 3938 681 3513 340 
Q 3088 0 2303 0 
L 628 0 
L 628 4666 
z
" id="DejaVuSans-42" transform="scale(0.015625)"/>
     </defs>
     <use xlink:href="#DejaVuSans-50"/>
     <use x="60.302734" xlink:href="#DejaVuSans-53"/>
     <use x="123.779297" xlink:href="#DejaVuSans-4f"/>
     <use x="202.490234" xlink:href="#DejaVuSans-20"/>
     <use x="234.277344" xlink:href="#DejaVuSans-42"/>
     <use x="302.880859" xlink:href="#DejaVuSans-6f"/>
     <use x="364.0625" xlink:href="#DejaVuSans-75"/>
     <use x="427.441406" xlink:href="#DejaVuSans-6e"/>
     <use x="490.820312" xlink:href="#DejaVuSans-64"/>
    </g>
   </g>
   <g id="text_14">
    <!-- PSO EDA -->
    <g transform="translate(375.22944 212.307571)scale(0.17 -0.17)">
     <defs>
      <path d="M 628 4666 
L 3578 4666 
L 3578 4134 
L 1259 4134 
L 1259 2753 
L 3481 2753 
L 3481 2222 
L 1259 2222 
L 1259 531 
L 3634 531 
L 3634 0 
L 628 0 
L 628 4666 
z
" id="DejaVuSans-45" transform="scale(0.015625)"/>
      <path d="M 1259 4147 
L 1259 519 
L 2022 519 
Q 2988 519 3436 956 
Q 3884 1394 3884 2338 
Q 3884 3275 3436 3711 
Q 2988 4147 2022 4147 
L 1259 4147 
z
M 628 4666 
L 1925 4666 
Q 3281 4666 3915 4102 
Q 4550 3538 4550 2338 
Q 4550 1131 3912 565 
Q 3275 0 1925 0 
L 628 0 
L 628 4666 
z
" id="DejaVuSans-44" transform="scale(0.015625)"/>
      <path d="M 2188 4044 
L 1331 1722 
L 3047 1722 
L 2188 4044 
z
M 1831 4666 
L 2547 4666 
L 4325 0 
L 3669 0 
L 3244 1197 
L 1141 1197 
L 716 0 
L 50 0 
L 1831 4666 
z
" id="DejaVuSans-41" transform="scale(0.015625)"/>
     </defs>
     <use xlink:href="#DejaVuSans-50"/>
     <use x="60.302734" xlink:href="#DejaVuSans-53"/>
     <use x="123.779297" xlink:href="#DejaVuSans-4f"/>
     <use x="202.490234" xlink:href="#DejaVuSans-20"/>
     <use x="234.277344" xlink:href="#DejaVuSans-45"/>
     <use x="297.460938" xlink:href="#DejaVuSans-44"/>
     <use x="372.712891" xlink:href="#DejaVuSans-41"/>
    </g>
   </g>
   <g id="text_15">
    <!-- PSO -->
    <g transform="translate(375.22944 126.352403)scale(0.17 -0.17)">
     <use xlink:href="#DejaVuSans-50"/>
     <use x="60.302734" xlink:href="#DejaVuSans-53"/>
     <use x="123.779297" xlink:href="#DejaVuSans-4f"/>
    </g>
   </g>
   <g id="text_16">
    <!-- best 2009 -->
    <g transform="translate(375.22944 40.397235)scale(0.17 -0.17)">
     <defs>
      <path d="M 3116 1747 
Q 3116 2381 2855 2742 
Q 2594 3103 2138 3103 
Q 1681 3103 1420 2742 
Q 1159 2381 1159 1747 
Q 1159 1113 1420 752 
Q 1681 391 2138 391 
Q 2594 391 2855 752 
Q 3116 1113 3116 1747 
z
M 1159 2969 
Q 1341 3281 1617 3432 
Q 1894 3584 2278 3584 
Q 2916 3584 3314 3078 
Q 3713 2572 3713 1747 
Q 3713 922 3314 415 
Q 2916 -91 2278 -91 
Q 1894 -91 1617 61 
Q 1341 213 1159 525 
L 1159 0 
L 581 0 
L 581 4863 
L 1159 4863 
L 1159 2969 
z
" id="DejaVuSans-62" transform="scale(0.015625)"/>
      <path d="M 703 97 
L 703 672 
Q 941 559 1184 500 
Q 1428 441 1663 441 
Q 2288 441 2617 861 
Q 2947 1281 2994 2138 
Q 2813 1869 2534 1725 
Q 2256 1581 1919 1581 
Q 1219 1581 811 2004 
Q 403 2428 403 3163 
Q 403 3881 828 4315 
Q 1253 4750 1959 4750 
Q 2769 4750 3195 4129 
Q 3622 3509 3622 2328 
Q 3622 1225 3098 567 
Q 2575 -91 1691 -91 
Q 1453 -91 1209 -44 
Q 966 3 703 97 
z
M 1959 2075 
Q 2384 2075 2632 2365 
Q 2881 2656 2881 3163 
Q 2881 3666 2632 3958 
Q 2384 4250 1959 4250 
Q 1534 4250 1286 3958 
Q 1038 3666 1038 3163 
Q 1038 2656 1286 2365 
Q 1534 2075 1959 2075 
z
" id="DejaVuSans-39" transform="scale(0.015625)"/>
     </defs>
     <use xlink:href="#DejaVuSans-62"/>
     <use x="63.476562" xlink:href="#DejaVuSans-65"/>
     <use x="125" xlink:href="#DejaVuSans-73"/>
     <use x="177.099609" xlink:href="#DejaVuSans-74"/>
     <use x="216.308594" xlink:href="#DejaVuSans-20"/>
     <use x="248.095703" xlink:href="#DejaVuSans-32"/>
     <use x="311.71875" xlink:href="#DejaVuSans-30"/>
     <use x="375.341797" xlink:href="#DejaVuSans-30"/>
     <use x="438.964844" xlink:href="#DejaVuSans-39"/>
    </g>
   </g>
   <g id="text_17">
    <!-- bbob f9, 5-D -->
    <g transform="translate(60.41088 38.111366)scale(0.102 -0.102)">
     <defs>
      <path d="M 691 4666 
L 3169 4666 
L 3169 4134 
L 1269 4134 
L 1269 2991 
Q 1406 3038 1543 3061 
Q 1681 3084 1819 3084 
Q 2600 3084 3056 2656 
Q 3513 2228 3513 1497 
Q 3513 744 3044 326 
Q 2575 -91 1722 -91 
Q 1428 -91 1123 -41 
Q 819 9 494 109 
L 494 744 
Q 775 591 1075 516 
Q 1375 441 1709 441 
Q 2250 441 2565 725 
Q 2881 1009 2881 1497 
Q 2881 1984 2565 2268 
Q 2250 2553 1709 2553 
Q 1456 2553 1204 2497 
Q 953 2441 691 2322 
L 691 4666 
z
" id="DejaVuSans-35" transform="scale(0.015625)"/>
     </defs>
     <use xlink:href="#DejaVuSans-62"/>
     <use x="63.476562" xlink:href="#DejaVuSans-62"/>
     <use x="126.953125" xlink:href="#DejaVuSans-6f"/>
     <use x="188.134766" xlink:href="#DejaVuSans-62"/>
     <use x="251.611328" xlink:href="#DejaVuSans-20"/>
     <use x="283.398438" xlink:href="#DejaVuSans-66"/>
     <use x="318.603516" xlink:href="#DejaVuSans-39"/>
     <use x="382.226562" xlink:href="#DejaVuSans-2c"/>
     <use x="414.013672" xlink:href="#DejaVuSans-20"/>
     <use x="445.800781" xlink:href="#DejaVuSans-35"/>
     <use x="509.423828" xlink:href="#DejaVuSans-2d"/>
     <use x="545.507812" xlink:href="#DejaVuSans-44"/>
    </g>
    <!-- 51 targets: 100..1e-08 -->
    <g transform="translate(60.41088 49.533135)scale(0.102 -0.102)">
     <defs>
      <path d="M 750 794 
L 1409 794 
L 1409 0 
L 750 0 
L 750 794 
z
M 750 3309 
L 1409 3309 
L 1409 2516 
L 750 2516 
L 750 3309 
z
" id="DejaVuSans-3a" transform="scale(0.015625)"/>
     </defs>
     <use xlink:href="#DejaVuSans-35"/>
     <use x="63.623047" xlink:href="#DejaVuSans-31"/>
     <use x="127.246094" xlink:href="#DejaVuSans-20"/>
     <use x="159.033203" xlink:href="#DejaVuSans-74"/>
     <use x="198.242188" xlink:href="#DejaVuSans-61"/>
     <use x="259.521484" xlink:href="#DejaVuSans-72"/>
     <use x="298.884766" xlink:href="#DejaVuSans-67"/>
     <use x="362.361328" xlink:href="#DejaVuSans-65"/>
     <use x="423.884766" xlink:href="#DejaVuSans-74"/>
     <use x="463.09375" xlink:href="#DejaVuSans-73"/>
     <use x="515.193359" xlink:href="#DejaVuSans-3a"/>
     <use x="548.884766" xlink:href="#DejaVuSans-20"/>
     <use x="580.671875" xlink:href="#DejaVuSans-31"/>
     <use x="644.294922" xlink:href="#DejaVuSans-30"/>
     <use x="707.917969" xlink:href="#DejaVuSans-30"/>
     <use x="771.541016" xlink:href="#DejaVuSans-2e"/>
     <use x="803.328125" xlink:href="#DejaVuSans-2e"/>
     <use x="835.115234" xlink:href="#DejaVuSans-31"/>
     <use x="898.738281" xlink:href="#DejaVuSans-65"/>
     <use x="960.261719" xlink:href="#DejaVuSans-2d"/>
     <use x="996.345703" xlink:href="#DejaVuSans-30"/>
     <use x="1059.96875" xlink:href="#DejaVuSans-38"/>
    </g>
    <!-- 15 instances -->
    <g transform="translate(60.41088 60.954904)scale(0.102 -0.102)">
     <use xlink:href="#DejaVuSans-31"/>
     <use x="63.623047" xlink:href="#DejaVuSans-35"/>
     <use x="127.246094" xlink:href="#DejaVuSans-20"/>
     <use x="159.033203" xlink:href="#DejaVuSans-69"/>
     <use x="186.816406" xlink:href="#DejaVuSans-6e"/>
     <use x="250.195312" xlink:href="#DejaVuSans-73"/>
     <use x="302.294922" xlink:href="#DejaVuSans-74"/>
     <use x="341.503906" xlink:href="#DejaVuSans-61"/>
     <use x="402.783203" xlink:href="#DejaVuSans-6e"/>
     <use x="466.162109" xlink:href="#DejaVuSans-63"/>
     <use x="521.142578" xlink:href="#DejaVuSans-65"/>
     <use x="582.666016" xlink:href="#DejaVuSans-73"/>
    </g>
   </g>
   <g id="text_18">
    <!-- v2.4 -->
    <g style="fill:#808080;" transform="translate(187.233062 294.151352)scale(0.1 -0.1)">
     <use xlink:href="#DejaVuSans-76"/>
     <use x="59.179688" xlink:href="#DejaVuSans-32"/>
     <use x="122.802734" xlink:href="#DejaVuSans-2e"/>
     <use x="154.589844" xlink:href="#DejaVuSans-34"/>
    </g>
   </g>
   <g id="text_19">
    <!-- 9 Rosenbrock rotated -->
    <g transform="translate(90.990875 21.648)scale(0.2 -0.2)">
     <defs>
      <path d="M 2841 2188 
Q 3044 2119 3236 1894 
Q 3428 1669 3622 1275 
L 4263 0 
L 3584 0 
L 2988 1197 
Q 2756 1666 2539 1819 
Q 2322 1972 1947 1972 
L 1259 1972 
L 1259 0 
L 628 0 
L 628 4666 
L 2053 4666 
Q 2853 4666 3247 4331 
Q 3641 3997 3641 3322 
Q 3641 2881 3436 2590 
Q 3231 2300 2841 2188 
z
M 1259 4147 
L 1259 2491 
L 2053 2491 
Q 2509 2491 2742 2702 
Q 2975 2913 2975 3322 
Q 2975 3731 2742 3939 
Q 2509 4147 2053 4147 
L 1259 4147 
z
" id="DejaVuSans-52" transform="scale(0.015625)"/>
      <path d="M 581 4863 
L 1159 4863 
L 1159 1991 
L 2875 3500 
L 3609 3500 
L 1753 1863 
L 3688 0 
L 2938 0 
L 1159 1709 
L 1159 0 
L 581 0 
L 581 4863 
z
" id="DejaVuSans-6b" transform="scale(0.015625)"/>
     </defs>
     <use xlink:href="#DejaVuSans-39"/>
     <use x="63.623047" xlink:href="#DejaVuSans-20"/>
     <use x="95.410156" xlink:href="#DejaVuSans-52"/>
     <use x="160.392578" xlink:href="#DejaVuSans-6f"/>
     <use x="221.574219" xlink:href="#DejaVuSans-73"/>
     <use x="273.673828" xlink:href="#DejaVuSans-65"/>
     <use x="335.197266" xlink:href="#DejaVuSans-6e"/>
     <use x="398.576172" xlink:href="#DejaVuSans-62"/>
     <use x="462.052734" xlink:href="#DejaVuSans-72"/>
     <use x="500.916016" xlink:href="#DejaVuSans-6f"/>
     <use x="562.097656" xlink:href="#DejaVuSans-63"/>
     <use x="617.078125" xlink:href="#DejaVuSans-6b"/>
     <use x="674.988281" xlink:href="#DejaVuSans-20"/>
     <use x="706.775391" xlink:href="#DejaVuSans-72"/>
     <use x="745.638672" xlink:href="#DejaVuSans-6f"/>
     <use x="806.820312" xlink:href="#DejaVuSans-74"/>
     <use x="846.029297" xlink:href="#DejaVuSans-61"/>
     <use x="907.308594" xlink:href="#DejaVuSans-74"/>
     <use x="946.517578" xlink:href="#DejaVuSans-65"/>
     <use x="1008.041016" xlink:href="#DejaVuSans-64"/>
    </g>
   </g>
  </g>
 </g>
 <defs>
  <clipPath id="pce1ef4260d">
   <rect height="271.296" width="281.088" x="57.6" y="27.648"/>
  </clipPath>
 </defs>
</svg>
