<?xml version="1.0" encoding="utf-8" standalone="no"?>
<!DOCTYPE svg PUBLIC "-//W3C//DTD SVG 1.1//EN"
  "http://www.w3.org/Graphics/SVG/1.1/DTD/svg11.dtd">
<svg height="345.6pt" version="1.1" viewBox="0 0 460.8 345.6" width="460.8pt" xmlns="http://www.w3.org/2000/svg" xmlns:xlink="http://www.w3.org/1999/xlink">
 <metadata>
  <rdf:RDF xmlns:cc="http://creativecommons.org/ns#" xmlns:dc="http://purl.org/dc/elements/1.1/" xmlns:rdf="http://www.w3.org/1999/02/22-rdf-syntax-ns#">
   <cc:Work>
    <dc:type rdf:resource="http://purl.org/dc/dcmitype/StillImage"/>
    <dc:date>2021-04-26T18:31:38.295812</dc:date>
    <dc:format>image/svg+xml</dc:format>
    <dc:creator>
     <cc:Agent>
      <dc:title>Matplotlib v3.4.1, https://matplotlib.org/</dc:title>
     </cc:Agent>
    </dc:creator>
   </cc:Work>
  </rdf:RDF>
 </metadata>
 <defs>
  <style type="text/css">*{stroke-linecap:butt;stroke-linejoin:round;}</style>
 </defs>
 <g id="figure_1">
  <g id="patch_1">
   <path d="M 0 345.6 
L 460.8 345.6 
L 460.8 0 
L 0 0 
z
" style="fill:#ffffff;"/>
  </g>
  <g id="axes_1">
   <g id="patch_2">
    <path d="M 57.6 298.944 
L 338.688 298.944 
L 338.688 27.648 
L 57.6 27.648 
z
" style="fill:#ffffff;"/>
   </g>
   <g id="line2d_1">
    <path d="M 70.329998 298.944 
L 70.329998 30.334099 
L 338.688 30.334099 
" style="fill:none;stroke:#f5deb3;stroke-linecap:square;stroke-width:4;"/>
   </g>
   <g id="line2d_2">
    <defs>
     <path d="M 0 7.778175 
L 7.778175 0 
L 0 -7.778175 
L -7.778175 0 
z
" id="m5d4d81e3db" style="stroke:#f5deb3;stroke-linejoin:miter;stroke-width:1.5;"/>
    </defs>
    <g>
     <use style="fill:#f5deb3;stroke:#f5deb3;stroke-linejoin:miter;stroke-width:1.5;" x="70.329998" xlink:href="#m5d4d81e3db" y="298.944"/>
     <use style="fill:#f5deb3;stroke:#f5deb3;stroke-linejoin:miter;stroke-width:1.5;" x="70.329998" xlink:href="#m5d4d81e3db" y="298.944"/>
     <use style="fill:#f5deb3;stroke:#f5deb3;stroke-linejoin:miter;stroke-width:1.5;" x="70.329998" xlink:href="#m5d4d81e3db" y="30.334099"/>
     <use style="fill:#f5deb3;stroke:#f5deb3;stroke-linejoin:miter;stroke-width:1.5;" x="70.329998" xlink:href="#m5d4d81e3db" y="30.334099"/>
     <use style="fill:#f5deb3;stroke:#f5deb3;stroke-linejoin:miter;stroke-width:1.5;" x="338.688" xlink:href="#m5d4d81e3db" y="30.334099"/>
    </g>
   </g>
   <g id="line2d_3">
    <path style="fill:none;stroke:#f5deb3;stroke-linecap:square;stroke-width:4;"/>
    <g/>
   </g>
   <g id="line2d_4">
    <path d="M 338.688 30.334099 
L 369.60768 35.706297 
" style="fill:none;stroke:#f5deb3;stroke-linecap:square;stroke-width:4;"/>
    <g>
     <use style="fill:#f5deb3;stroke:#f5deb3;stroke-linejoin:miter;stroke-width:1.5;" x="338.688" xlink:href="#m5d4d81e3db" y="30.334099"/>
     <use style="fill:#f5deb3;stroke:#f5deb3;stroke-linejoin:miter;stroke-width:1.5;" x="369.60768" xlink:href="#m5d4d81e3db" y="35.706297"/>
    </g>
   </g>
   <g id="matplotlib.axis_1">
    <g id="xtick_1">
     <g id="line2d_5">
      <path clip-path="url(#p6b1723390b)" d="M 57.6 298.944 
L 57.6 27.648 
" style="fill:none;stroke:#b0b0b0;stroke-linecap:square;stroke-width:0.8;"/>
     </g>
     <g id="line2d_6">
      <defs>
       <path d="M 0 0 
L 0 3.5 
" id="me8b5a8a79d" style="stroke:#000000;stroke-width:0.8;"/>
      </defs>
      <g>
       <use style="stroke:#000000;stroke-width:0.8;" x="57.6" xlink:href="#me8b5a8a79d" y="298.944"/>
      </g>
     </g>
     <g id="text_1">
      <!-- 0 -->
      <g transform="translate(51.2375 321.140875)scale(0.2 -0.2)">
       <defs>
        <path d="M 2034 4250 
Q 1547 4250 1301 3770 
Q 1056 3291 1056 2328 
Q 1056 1369 1301 889 
Q 1547 409 2034 409 
Q 2525 409 2770 889 
Q 3016 1369 3016 2328 
Q 3016 3291 2770 3770 
Q 2525 4250 2034 4250 
z
M 2034 4750 
Q 2819 4750 3233 4129 
Q 3647 3509 3647 2328 
Q 3647 1150 3233 529 
Q 2819 -91 2034 -91 
Q 1250 -91 836 529 
Q 422 1150 422 2328 
Q 422 3509 836 4129 
Q 1250 4750 2034 4750 
z
" id="DejaVuSans-30" transform="scale(0.015625)"/>
       </defs>
       <use xlink:href="#DejaVuSans-30"/>
      </g>
     </g>
    </g>
    <g id="xtick_2">
     <g id="line2d_7">
      <path clip-path="url(#p6b1723390b)" d="M 137.910857 298.944 
L 137.910857 27.648 
" style="fill:none;stroke:#b0b0b0;stroke-linecap:square;stroke-width:0.8;"/>
     </g>
     <g id="line2d_8">
      <g>
       <use style="stroke:#000000;stroke-width:0.8;" x="137.910857" xlink:href="#me8b5a8a79d" y="298.944"/>
      </g>
     </g>
     <g id="text_2">
      <!-- 2 -->
      <g transform="translate(131.548357 321.140875)scale(0.2 -0.2)">
       <defs>
        <path d="M 1228 531 
L 3431 531 
L 3431 0 
L 469 0 
L 469 531 
Q 828 903 1448 1529 
Q 2069 2156 2228 2338 
Q 2531 2678 2651 2914 
Q 2772 3150 2772 3378 
Q 2772 3750 2511 3984 
Q 2250 4219 1831 4219 
Q 1534 4219 1204 4116 
Q 875 4013 500 3803 
L 500 4441 
Q 881 4594 1212 4672 
Q 1544 4750 1819 4750 
Q 2544 4750 2975 4387 
Q 3406 4025 3406 3419 
Q 3406 3131 3298 2873 
Q 3191 2616 2906 2266 
Q 2828 2175 2409 1742 
Q 1991 1309 1228 531 
z
" id="DejaVuSans-32" transform="scale(0.015625)"/>
       </defs>
       <use xlink:href="#DejaVuSans-32"/>
      </g>
     </g>
    </g>
    <g id="xtick_3">
     <g id="line2d_9">
      <path clip-path="url(#p6b1723390b)" d="M 218.221714 298.944 
L 218.221714 27.648 
" style="fill:none;stroke:#b0b0b0;stroke-linecap:square;stroke-width:0.8;"/>
     </g>
     <g id="line2d_10">
      <g>
       <use style="stroke:#000000;stroke-width:0.8;" x="218.221714" xlink:href="#me8b5a8a79d" y="298.944"/>
      </g>
     </g>
     <g id="text_3">
      <!-- 4 -->
      <g transform="translate(211.859214 321.140875)scale(0.2 -0.2)">
       <defs>
        <path d="M 2419 4116 
L 825 1625 
L 2419 1625 
L 2419 4116 
z
M 2253 4666 
L 3047 4666 
L 3047 1625 
L 3713 1625 
L 3713 1100 
L 3047 1100 
L 3047 0 
L 2419 0 
L 2419 1100 
L 313 1100 
L 313 1709 
L 2253 4666 
z
" id="DejaVuSans-34" transform="scale(0.015625)"/>
       </defs>
       <use xlink:href="#DejaVuSans-34"/>
      </g>
     </g>
    </g>
    <g id="xtick_4">
     <g id="line2d_11">
      <path clip-path="url(#p6b1723390b)" d="M 298.532571 298.944 
L 298.532571 27.648 
" style="fill:none;stroke:#b0b0b0;stroke-linecap:square;stroke-width:0.8;"/>
     </g>
     <g id="line2d_12">
      <g>
       <use style="stroke:#000000;stroke-width:0.8;" x="298.532571" xlink:href="#me8b5a8a79d" y="298.944"/>
      </g>
     </g>
     <g id="text_4">
      <!-- 6 -->
      <g transform="translate(292.170071 321.140875)scale(0.2 -0.2)">
       <defs>
        <path d="M 2113 2584 
Q 1688 2584 1439 2293 
Q 1191 2003 1191 1497 
Q 1191 994 1439 701 
Q 1688 409 2113 409 
Q 2538 409 2786 701 
Q 3034 994 3034 1497 
Q 3034 2003 2786 2293 
Q 2538 2584 2113 2584 
z
M 3366 4563 
L 3366 3988 
Q 3128 4100 2886 4159 
Q 2644 4219 2406 4219 
Q 1781 4219 1451 3797 
Q 1122 3375 1075 2522 
Q 1259 2794 1537 2939 
Q 1816 3084 2150 3084 
Q 2853 3084 3261 2657 
Q 3669 2231 3669 1497 
Q 3669 778 3244 343 
Q 2819 -91 2113 -91 
Q 1303 -91 875 529 
Q 447 1150 447 2328 
Q 447 3434 972 4092 
Q 1497 4750 2381 4750 
Q 2619 4750 2861 4703 
Q 3103 4656 3366 4563 
z
" id="DejaVuSans-36" transform="scale(0.015625)"/>
       </defs>
       <use xlink:href="#DejaVuSans-36"/>
      </g>
     </g>
    </g>
    <g id="xtick_5">
     <g id="line2d_13">
      <path clip-path="url(#p6b1723390b)" d="M 97.755429 298.944 
L 97.755429 27.648 
" style="fill:none;stroke:#b0b0b0;stroke-linecap:square;stroke-width:0.8;"/>
     </g>
     <g id="line2d_14">
      <defs>
       <path d="M 0 0 
L 0 2 
" id="m6df9671f6d" style="stroke:#000000;stroke-width:0.6;"/>
      </defs>
      <g>
       <use style="stroke:#000000;stroke-width:0.6;" x="97.755429" xlink:href="#m6df9671f6d" y="298.944"/>
      </g>
     </g>
    </g>
    <g id="xtick_6">
     <g id="line2d_15">
      <path clip-path="url(#p6b1723390b)" d="M 178.066286 298.944 
L 178.066286 27.648 
" style="fill:none;stroke:#b0b0b0;stroke-linecap:square;stroke-width:0.8;"/>
     </g>
     <g id="line2d_16">
      <g>
       <use style="stroke:#000000;stroke-width:0.6;" x="178.066286" xlink:href="#m6df9671f6d" y="298.944"/>
      </g>
     </g>
    </g>
    <g id="xtick_7">
     <g id="line2d_17">
      <path clip-path="url(#p6b1723390b)" d="M 258.377143 298.944 
L 258.377143 27.648 
" style="fill:none;stroke:#b0b0b0;stroke-linecap:square;stroke-width:0.8;"/>
     </g>
     <g id="line2d_18">
      <g>
       <use style="stroke:#000000;stroke-width:0.6;" x="258.377143" xlink:href="#m6df9671f6d" y="298.944"/>
      </g>
     </g>
    </g>
    <g id="xtick_8">
     <g id="line2d_19">
      <path clip-path="url(#p6b1723390b)" d="M 338.688 298.944 
L 338.688 27.648 
" style="fill:none;stroke:#b0b0b0;stroke-linecap:square;stroke-width:0.8;"/>
     </g>
     <g id="line2d_20">
      <g>
       <use style="stroke:#000000;stroke-width:0.6;" x="338.688" xlink:href="#m6df9671f6d" y="298.944"/>
      </g>
     </g>
    </g>
    <g id="text_5">
     <!-- log10(# f-evals / dimension) -->
     <g transform="translate(77.764078 342.217594)scale(0.17 -0.17)">
      <defs>
       <path d="M 603 4863 
L 1178 4863 
L 1178 0 
L 603 0 
L 603 4863 
z
" id="DejaVuSans-6c" transform="scale(0.015625)"/>
       <path d="M 1959 3097 
Q 1497 3097 1228 2736 
Q 959 2375 959 1747 
Q 959 1119 1226 758 
Q 1494 397 1959 397 
Q 2419 397 2687 759 
Q 2956 1122 2956 1747 
Q 2956 2369 2687 2733 
Q 2419 3097 1959 3097 
z
M 1959 3584 
Q 2709 3584 3137 3096 
Q 3566 2609 3566 1747 
Q 3566 888 3137 398 
Q 2709 -91 1959 -91 
Q 1206 -91 779 398 
Q 353 888 353 1747 
Q 353 2609 779 3096 
Q 1206 3584 1959 3584 
z
" id="DejaVuSans-6f" transform="scale(0.015625)"/>
       <path d="M 2906 1791 
Q 2906 2416 2648 2759 
Q 2391 3103 1925 3103 
Q 1463 3103 1205 2759 
Q 947 2416 947 1791 
Q 947 1169 1205 825 
Q 1463 481 1925 481 
Q 2391 481 2648 825 
Q 2906 1169 2906 1791 
z
M 3481 434 
Q 3481 -459 3084 -895 
Q 2688 -1331 1869 -1331 
Q 1566 -1331 1297 -1286 
Q 1028 -1241 775 -1147 
L 775 -588 
Q 1028 -725 1275 -790 
Q 1522 -856 1778 -856 
Q 2344 -856 2625 -561 
Q 2906 -266 2906 331 
L 2906 616 
Q 2728 306 2450 153 
Q 2172 0 1784 0 
Q 1141 0 747 490 
Q 353 981 353 1791 
Q 353 2603 747 3093 
Q 1141 3584 1784 3584 
Q 2172 3584 2450 3431 
Q 2728 3278 2906 2969 
L 2906 3500 
L 3481 3500 
L 3481 434 
z
" id="DejaVuSans-67" transform="scale(0.015625)"/>
       <path d="M 794 531 
L 1825 531 
L 1825 4091 
L 703 3866 
L 703 4441 
L 1819 4666 
L 2450 4666 
L 2450 531 
L 3481 531 
L 3481 0 
L 794 0 
L 794 531 
z
" id="DejaVuSans-31" transform="scale(0.015625)"/>
       <path d="M 1984 4856 
Q 1566 4138 1362 3434 
Q 1159 2731 1159 2009 
Q 1159 1288 1364 580 
Q 1569 -128 1984 -844 
L 1484 -844 
Q 1016 -109 783 600 
Q 550 1309 550 2009 
Q 550 2706 781 3412 
Q 1013 4119 1484 4856 
L 1984 4856 
z
" id="DejaVuSans-28" transform="scale(0.015625)"/>
       <path d="M 3272 2816 
L 2363 2816 
L 2100 1772 
L 3016 1772 
L 3272 2816 
z
M 2803 4594 
L 2478 3297 
L 3391 3297 
L 3719 4594 
L 4219 4594 
L 3897 3297 
L 4872 3297 
L 4872 2816 
L 3775 2816 
L 3519 1772 
L 4513 1772 
L 4513 1294 
L 3397 1294 
L 3072 0 
L 2572 0 
L 2894 1294 
L 1978 1294 
L 1656 0 
L 1153 0 
L 1478 1294 
L 494 1294 
L 494 1772 
L 1594 1772 
L 1856 2816 
L 850 2816 
L 850 3297 
L 1978 3297 
L 2297 4594 
L 2803 4594 
z
" id="DejaVuSans-23" transform="scale(0.015625)"/>
       <path id="DejaVuSans-20" transform="scale(0.015625)"/>
       <path d="M 2375 4863 
L 2375 4384 
L 1825 4384 
Q 1516 4384 1395 4259 
Q 1275 4134 1275 3809 
L 1275 3500 
L 2222 3500 
L 2222 3053 
L 1275 3053 
L 1275 0 
L 697 0 
L 697 3053 
L 147 3053 
L 147 3500 
L 697 3500 
L 697 3744 
Q 697 4328 969 4595 
Q 1241 4863 1831 4863 
L 2375 4863 
z
" id="DejaVuSans-66" transform="scale(0.015625)"/>
       <path d="M 313 2009 
L 1997 2009 
L 1997 1497 
L 313 1497 
L 313 2009 
z
" id="DejaVuSans-2d" transform="scale(0.015625)"/>
       <path d="M 3597 1894 
L 3597 1613 
L 953 1613 
Q 991 1019 1311 708 
Q 1631 397 2203 397 
Q 2534 397 2845 478 
Q 3156 559 3463 722 
L 3463 178 
Q 3153 47 2828 -22 
Q 2503 -91 2169 -91 
Q 1331 -91 842 396 
Q 353 884 353 1716 
Q 353 2575 817 3079 
Q 1281 3584 2069 3584 
Q 2775 3584 3186 3129 
Q 3597 2675 3597 1894 
z
M 3022 2063 
Q 3016 2534 2758 2815 
Q 2500 3097 2075 3097 
Q 1594 3097 1305 2825 
Q 1016 2553 972 2059 
L 3022 2063 
z
" id="DejaVuSans-65" transform="scale(0.015625)"/>
       <path d="M 191 3500 
L 800 3500 
L 1894 563 
L 2988 3500 
L 3597 3500 
L 2284 0 
L 1503 0 
L 191 3500 
z
" id="DejaVuSans-76" transform="scale(0.015625)"/>
       <path d="M 2194 1759 
Q 1497 1759 1228 1600 
Q 959 1441 959 1056 
Q 959 750 1161 570 
Q 1363 391 1709 391 
Q 2188 391 2477 730 
Q 2766 1069 2766 1631 
L 2766 1759 
L 2194 1759 
z
M 3341 1997 
L 3341 0 
L 2766 0 
L 2766 531 
Q 2569 213 2275 61 
Q 1981 -91 1556 -91 
Q 1019 -91 701 211 
Q 384 513 384 1019 
Q 384 1609 779 1909 
Q 1175 2209 1959 2209 
L 2766 2209 
L 2766 2266 
Q 2766 2663 2505 2880 
Q 2244 3097 1772 3097 
Q 1472 3097 1187 3025 
Q 903 2953 641 2809 
L 641 3341 
Q 956 3463 1253 3523 
Q 1550 3584 1831 3584 
Q 2591 3584 2966 3190 
Q 3341 2797 3341 1997 
z
" id="DejaVuSans-61" transform="scale(0.015625)"/>
       <path d="M 2834 3397 
L 2834 2853 
Q 2591 2978 2328 3040 
Q 2066 3103 1784 3103 
Q 1356 3103 1142 2972 
Q 928 2841 928 2578 
Q 928 2378 1081 2264 
Q 1234 2150 1697 2047 
L 1894 2003 
Q 2506 1872 2764 1633 
Q 3022 1394 3022 966 
Q 3022 478 2636 193 
Q 2250 -91 1575 -91 
Q 1294 -91 989 -36 
Q 684 19 347 128 
L 347 722 
Q 666 556 975 473 
Q 1284 391 1588 391 
Q 1994 391 2212 530 
Q 2431 669 2431 922 
Q 2431 1156 2273 1281 
Q 2116 1406 1581 1522 
L 1381 1569 
Q 847 1681 609 1914 
Q 372 2147 372 2553 
Q 372 3047 722 3315 
Q 1072 3584 1716 3584 
Q 2034 3584 2315 3537 
Q 2597 3491 2834 3397 
z
" id="DejaVuSans-73" transform="scale(0.015625)"/>
       <path d="M 1625 4666 
L 2156 4666 
L 531 -594 
L 0 -594 
L 1625 4666 
z
" id="DejaVuSans-2f" transform="scale(0.015625)"/>
       <path d="M 2906 2969 
L 2906 4863 
L 3481 4863 
L 3481 0 
L 2906 0 
L 2906 525 
Q 2725 213 2448 61 
Q 2172 -91 1784 -91 
Q 1150 -91 751 415 
Q 353 922 353 1747 
Q 353 2572 751 3078 
Q 1150 3584 1784 3584 
Q 2172 3584 2448 3432 
Q 2725 3281 2906 2969 
z
M 947 1747 
Q 947 1113 1208 752 
Q 1469 391 1925 391 
Q 2381 391 2643 752 
Q 2906 1113 2906 1747 
Q 2906 2381 2643 2742 
Q 2381 3103 1925 3103 
Q 1469 3103 1208 2742 
Q 947 2381 947 1747 
z
" id="DejaVuSans-64" transform="scale(0.015625)"/>
       <path d="M 603 3500 
L 1178 3500 
L 1178 0 
L 603 0 
L 603 3500 
z
M 603 4863 
L 1178 4863 
L 1178 4134 
L 603 4134 
L 603 4863 
z
" id="DejaVuSans-69" transform="scale(0.015625)"/>
       <path d="M 3328 2828 
Q 3544 3216 3844 3400 
Q 4144 3584 4550 3584 
Q 5097 3584 5394 3201 
Q 5691 2819 5691 2113 
L 5691 0 
L 5113 0 
L 5113 2094 
Q 5113 2597 4934 2840 
Q 4756 3084 4391 3084 
Q 3944 3084 3684 2787 
Q 3425 2491 3425 1978 
L 3425 0 
L 2847 0 
L 2847 2094 
Q 2847 2600 2669 2842 
Q 2491 3084 2119 3084 
Q 1678 3084 1418 2786 
Q 1159 2488 1159 1978 
L 1159 0 
L 581 0 
L 581 3500 
L 1159 3500 
L 1159 2956 
Q 1356 3278 1631 3431 
Q 1906 3584 2284 3584 
Q 2666 3584 2933 3390 
Q 3200 3197 3328 2828 
z
" id="DejaVuSans-6d" transform="scale(0.015625)"/>
       <path d="M 3513 2113 
L 3513 0 
L 2938 0 
L 2938 2094 
Q 2938 2591 2744 2837 
Q 2550 3084 2163 3084 
Q 1697 3084 1428 2787 
Q 1159 2491 1159 1978 
L 1159 0 
L 581 0 
L 581 3500 
L 1159 3500 
L 1159 2956 
Q 1366 3272 1645 3428 
Q 1925 3584 2291 3584 
Q 2894 3584 3203 3211 
Q 3513 2838 3513 2113 
z
" id="DejaVuSans-6e" transform="scale(0.015625)"/>
       <path d="M 513 4856 
L 1013 4856 
Q 1481 4119 1714 3412 
Q 1947 2706 1947 2009 
Q 1947 1309 1714 600 
Q 1481 -109 1013 -844 
L 513 -844 
Q 928 -128 1133 580 
Q 1338 1288 1338 2009 
Q 1338 2731 1133 3434 
Q 928 4138 513 4856 
z
" id="DejaVuSans-29" transform="scale(0.015625)"/>
      </defs>
      <use xlink:href="#DejaVuSans-6c"/>
      <use x="27.783203" xlink:href="#DejaVuSans-6f"/>
      <use x="88.964844" xlink:href="#DejaVuSans-67"/>
      <use x="152.441406" xlink:href="#DejaVuSans-31"/>
      <use x="216.064453" xlink:href="#DejaVuSans-30"/>
      <use x="279.6875" xlink:href="#DejaVuSans-28"/>
      <use x="318.701172" xlink:href="#DejaVuSans-23"/>
      <use x="402.490234" xlink:href="#DejaVuSans-20"/>
      <use x="434.277344" xlink:href="#DejaVuSans-66"/>
      <use x="463.982422" xlink:href="#DejaVuSans-2d"/>
      <use x="500.066406" xlink:href="#DejaVuSans-65"/>
      <use x="561.589844" xlink:href="#DejaVuSans-76"/>
      <use x="620.769531" xlink:href="#DejaVuSans-61"/>
      <use x="682.048828" xlink:href="#DejaVuSans-6c"/>
      <use x="709.832031" xlink:href="#DejaVuSans-73"/>
      <use x="761.931641" xlink:href="#DejaVuSans-20"/>
      <use x="793.71875" xlink:href="#DejaVuSans-2f"/>
      <use x="827.410156" xlink:href="#DejaVuSans-20"/>
      <use x="859.197266" xlink:href="#DejaVuSans-64"/>
      <use x="922.673828" xlink:href="#DejaVuSans-69"/>
      <use x="950.457031" xlink:href="#DejaVuSans-6d"/>
      <use x="1047.869141" xlink:href="#DejaVuSans-65"/>
      <use x="1109.392578" xlink:href="#DejaVuSans-6e"/>
      <use x="1172.771484" xlink:href="#DejaVuSans-73"/>
      <use x="1224.871094" xlink:href="#DejaVuSans-69"/>
      <use x="1252.654297" xlink:href="#DejaVuSans-6f"/>
      <use x="1313.835938" xlink:href="#DejaVuSans-6e"/>
      <use x="1377.214844" xlink:href="#DejaVuSans-29"/>
     </g>
    </g>
   </g>
   <g id="matplotlib.axis_2">
    <g id="ytick_1">
     <g id="line2d_21">
      <path clip-path="url(#p6b1723390b)" d="M 57.6 298.944 
L 338.688 298.944 
" style="fill:none;stroke:#b0b0b0;stroke-linecap:square;stroke-width:0.8;"/>
     </g>
     <g id="line2d_22">
      <defs>
       <path d="M 0 0 
L -3.5 0 
" id="mfbf1a14f3a" style="stroke:#000000;stroke-width:0.8;"/>
      </defs>
      <g>
       <use style="stroke:#000000;stroke-width:0.8;" x="57.6" xlink:href="#mfbf1a14f3a" y="298.944"/>
      </g>
     </g>
     <g id="text_6">
      <!-- 0.0 -->
      <g transform="translate(25.155 305.02275)scale(0.16 -0.16)">
       <defs>
        <path d="M 684 794 
L 1344 794 
L 1344 0 
L 684 0 
L 684 794 
z
" id="DejaVuSans-2e" transform="scale(0.015625)"/>
       </defs>
       <use xlink:href="#DejaVuSans-30"/>
       <use x="63.623047" xlink:href="#DejaVuSans-2e"/>
       <use x="95.410156" xlink:href="#DejaVuSans-30"/>
      </g>
     </g>
    </g>
    <g id="ytick_2">
     <g id="line2d_23">
      <path clip-path="url(#p6b1723390b)" d="M 57.6 245.22202 
L 338.688 245.22202 
" style="fill:none;stroke:#b0b0b0;stroke-linecap:square;stroke-width:0.8;"/>
     </g>
     <g id="line2d_24">
      <g>
       <use style="stroke:#000000;stroke-width:0.8;" x="57.6" xlink:href="#mfbf1a14f3a" y="245.22202"/>
      </g>
     </g>
     <g id="text_7">
      <!-- 0.2 -->
      <g transform="translate(25.155 251.30077)scale(0.16 -0.16)">
       <use xlink:href="#DejaVuSans-30"/>
       <use x="63.623047" xlink:href="#DejaVuSans-2e"/>
       <use x="95.410156" xlink:href="#DejaVuSans-32"/>
      </g>
     </g>
    </g>
    <g id="ytick_3">
     <g id="line2d_25">
      <path clip-path="url(#p6b1723390b)" d="M 57.6 191.50004 
L 338.688 191.50004 
" style="fill:none;stroke:#b0b0b0;stroke-linecap:square;stroke-width:0.8;"/>
     </g>
     <g id="line2d_26">
      <g>
       <use style="stroke:#000000;stroke-width:0.8;" x="57.6" xlink:href="#mfbf1a14f3a" y="191.50004"/>
      </g>
     </g>
     <g id="text_8">
      <!-- 0.4 -->
      <g transform="translate(25.155 197.57879)scale(0.16 -0.16)">
       <use xlink:href="#DejaVuSans-30"/>
       <use x="63.623047" xlink:href="#DejaVuSans-2e"/>
       <use x="95.410156" xlink:href="#DejaVuSans-34"/>
      </g>
     </g>
    </g>
    <g id="ytick_4">
     <g id="line2d_27">
      <path clip-path="url(#p6b1723390b)" d="M 57.6 137.778059 
L 338.688 137.778059 
" style="fill:none;stroke:#b0b0b0;stroke-linecap:square;stroke-width:0.8;"/>
     </g>
     <g id="line2d_28">
      <g>
       <use style="stroke:#000000;stroke-width:0.8;" x="57.6" xlink:href="#mfbf1a14f3a" y="137.778059"/>
      </g>
     </g>
     <g id="text_9">
      <!-- 0.6 -->
      <g transform="translate(25.155 143.856809)scale(0.16 -0.16)">
       <use xlink:href="#DejaVuSans-30"/>
       <use x="63.623047" xlink:href="#DejaVuSans-2e"/>
       <use x="95.410156" xlink:href="#DejaVuSans-36"/>
      </g>
     </g>
    </g>
    <g id="ytick_5">
     <g id="line2d_29">
      <path clip-path="url(#p6b1723390b)" d="M 57.6 84.056079 
L 338.688 84.056079 
" style="fill:none;stroke:#b0b0b0;stroke-linecap:square;stroke-width:0.8;"/>
     </g>
     <g id="line2d_30">
      <g>
       <use style="stroke:#000000;stroke-width:0.8;" x="57.6" xlink:href="#mfbf1a14f3a" y="84.056079"/>
      </g>
     </g>
     <g id="text_10">
      <!-- 0.8 -->
      <g transform="translate(25.155 90.134829)scale(0.16 -0.16)">
       <defs>
        <path d="M 2034 2216 
Q 1584 2216 1326 1975 
Q 1069 1734 1069 1313 
Q 1069 891 1326 650 
Q 1584 409 2034 409 
Q 2484 409 2743 651 
Q 3003 894 3003 1313 
Q 3003 1734 2745 1975 
Q 2488 2216 2034 2216 
z
M 1403 2484 
Q 997 2584 770 2862 
Q 544 3141 544 3541 
Q 544 4100 942 4425 
Q 1341 4750 2034 4750 
Q 2731 4750 3128 4425 
Q 3525 4100 3525 3541 
Q 3525 3141 3298 2862 
Q 3072 2584 2669 2484 
Q 3125 2378 3379 2068 
Q 3634 1759 3634 1313 
Q 3634 634 3220 271 
Q 2806 -91 2034 -91 
Q 1263 -91 848 271 
Q 434 634 434 1313 
Q 434 1759 690 2068 
Q 947 2378 1403 2484 
z
M 1172 3481 
Q 1172 3119 1398 2916 
Q 1625 2713 2034 2713 
Q 2441 2713 2670 2916 
Q 2900 3119 2900 3481 
Q 2900 3844 2670 4047 
Q 2441 4250 2034 4250 
Q 1625 4250 1398 4047 
Q 1172 3844 1172 3481 
z
" id="DejaVuSans-38" transform="scale(0.015625)"/>
       </defs>
       <use xlink:href="#DejaVuSans-30"/>
       <use x="63.623047" xlink:href="#DejaVuSans-2e"/>
       <use x="95.410156" xlink:href="#DejaVuSans-38"/>
      </g>
     </g>
    </g>
    <g id="ytick_6">
     <g id="line2d_31">
      <path clip-path="url(#p6b1723390b)" d="M 57.6 30.334099 
L 338.688 30.334099 
" style="fill:none;stroke:#b0b0b0;stroke-linecap:square;stroke-width:0.8;"/>
     </g>
     <g id="line2d_32">
      <g>
       <use style="stroke:#000000;stroke-width:0.8;" x="57.6" xlink:href="#mfbf1a14f3a" y="30.334099"/>
      </g>
     </g>
     <g id="text_11">
      <!-- 1.0 -->
      <g transform="translate(25.155 36.412849)scale(0.16 -0.16)">
       <use xlink:href="#DejaVuSans-31"/>
       <use x="63.623047" xlink:href="#DejaVuSans-2e"/>
       <use x="95.410156" xlink:href="#DejaVuSans-30"/>
      </g>
     </g>
    </g>
    <g id="text_12">
     <!-- Fraction of function,target pairs -->
     <g transform="translate(17.619531 297.681)rotate(-90)scale(0.17 -0.17)">
      <defs>
       <path d="M 628 4666 
L 3309 4666 
L 3309 4134 
L 1259 4134 
L 1259 2759 
L 3109 2759 
L 3109 2228 
L 1259 2228 
L 1259 0 
L 628 0 
L 628 4666 
z
" id="DejaVuSans-46" transform="scale(0.015625)"/>
       <path d="M 2631 2963 
Q 2534 3019 2420 3045 
Q 2306 3072 2169 3072 
Q 1681 3072 1420 2755 
Q 1159 2438 1159 1844 
L 1159 0 
L 581 0 
L 581 3500 
L 1159 3500 
L 1159 2956 
Q 1341 3275 1631 3429 
Q 1922 3584 2338 3584 
Q 2397 3584 2469 3576 
Q 2541 3569 2628 3553 
L 2631 2963 
z
" id="DejaVuSans-72" transform="scale(0.015625)"/>
       <path d="M 3122 3366 
L 3122 2828 
Q 2878 2963 2633 3030 
Q 2388 3097 2138 3097 
Q 1578 3097 1268 2742 
Q 959 2388 959 1747 
Q 959 1106 1268 751 
Q 1578 397 2138 397 
Q 2388 397 2633 464 
Q 2878 531 3122 666 
L 3122 134 
Q 2881 22 2623 -34 
Q 2366 -91 2075 -91 
Q 1284 -91 818 406 
Q 353 903 353 1747 
Q 353 2603 823 3093 
Q 1294 3584 2113 3584 
Q 2378 3584 2631 3529 
Q 2884 3475 3122 3366 
z
" id="DejaVuSans-63" transform="scale(0.015625)"/>
       <path d="M 1172 4494 
L 1172 3500 
L 2356 3500 
L 2356 3053 
L 1172 3053 
L 1172 1153 
Q 1172 725 1289 603 
Q 1406 481 1766 481 
L 2356 481 
L 2356 0 
L 1766 0 
Q 1100 0 847 248 
Q 594 497 594 1153 
L 594 3053 
L 172 3053 
L 172 3500 
L 594 3500 
L 594 4494 
L 1172 4494 
z
" id="DejaVuSans-74" transform="scale(0.015625)"/>
       <path d="M 544 1381 
L 544 3500 
L 1119 3500 
L 1119 1403 
Q 1119 906 1312 657 
Q 1506 409 1894 409 
Q 2359 409 2629 706 
Q 2900 1003 2900 1516 
L 2900 3500 
L 3475 3500 
L 3475 0 
L 2900 0 
L 2900 538 
Q 2691 219 2414 64 
Q 2138 -91 1772 -91 
Q 1169 -91 856 284 
Q 544 659 544 1381 
z
M 1991 3584 
L 1991 3584 
z
" id="DejaVuSans-75" transform="scale(0.015625)"/>
       <path d="M 750 794 
L 1409 794 
L 1409 256 
L 897 -744 
L 494 -744 
L 750 256 
L 750 794 
z
" id="DejaVuSans-2c" transform="scale(0.015625)"/>
       <path d="M 1159 525 
L 1159 -1331 
L 581 -1331 
L 581 3500 
L 1159 3500 
L 1159 2969 
Q 1341 3281 1617 3432 
Q 1894 3584 2278 3584 
Q 2916 3584 3314 3078 
Q 3713 2572 3713 1747 
Q 3713 922 3314 415 
Q 2916 -91 2278 -91 
Q 1894 -91 1617 61 
Q 1341 213 1159 525 
z
M 3116 1747 
Q 3116 2381 2855 2742 
Q 2594 3103 2138 3103 
Q 1681 3103 1420 2742 
Q 1159 2381 1159 1747 
Q 1159 1113 1420 752 
Q 1681 391 2138 391 
Q 2594 391 2855 752 
Q 3116 1113 3116 1747 
z
" id="DejaVuSans-70" transform="scale(0.015625)"/>
      </defs>
      <use xlink:href="#DejaVuSans-46"/>
      <use x="50.269531" xlink:href="#DejaVuSans-72"/>
      <use x="91.382812" xlink:href="#DejaVuSans-61"/>
      <use x="152.662109" xlink:href="#DejaVuSans-63"/>
      <use x="207.642578" xlink:href="#DejaVuSans-74"/>
      <use x="246.851562" xlink:href="#DejaVuSans-69"/>
      <use x="274.634766" xlink:href="#DejaVuSans-6f"/>
      <use x="335.816406" xlink:href="#DejaVuSans-6e"/>
      <use x="399.195312" xlink:href="#DejaVuSans-20"/>
      <use x="430.982422" xlink:href="#DejaVuSans-6f"/>
      <use x="492.164062" xlink:href="#DejaVuSans-66"/>
      <use x="527.369141" xlink:href="#DejaVuSans-20"/>
      <use x="559.15625" xlink:href="#DejaVuSans-66"/>
      <use x="594.361328" xlink:href="#DejaVuSans-75"/>
      <use x="657.740234" xlink:href="#DejaVuSans-6e"/>
      <use x="721.119141" xlink:href="#DejaVuSans-63"/>
      <use x="776.099609" xlink:href="#DejaVuSans-74"/>
      <use x="815.308594" xlink:href="#DejaVuSans-69"/>
      <use x="843.091797" xlink:href="#DejaVuSans-6f"/>
      <use x="904.273438" xlink:href="#DejaVuSans-6e"/>
      <use x="967.652344" xlink:href="#DejaVuSans-2c"/>
      <use x="999.439453" xlink:href="#DejaVuSans-74"/>
      <use x="1038.648438" xlink:href="#DejaVuSans-61"/>
      <use x="1099.927734" xlink:href="#DejaVuSans-72"/>
      <use x="1139.291016" xlink:href="#DejaVuSans-67"/>
      <use x="1202.767578" xlink:href="#DejaVuSans-65"/>
      <use x="1264.291016" xlink:href="#DejaVuSans-74"/>
      <use x="1303.5" xlink:href="#DejaVuSans-20"/>
      <use x="1335.287109" xlink:href="#DejaVuSans-70"/>
      <use x="1398.763672" xlink:href="#DejaVuSans-61"/>
      <use x="1460.042969" xlink:href="#DejaVuSans-69"/>
      <use x="1487.826172" xlink:href="#DejaVuSans-72"/>
      <use x="1528.939453" xlink:href="#DejaVuSans-73"/>
     </g>
    </g>
   </g>
   <g id="line2d_33">
    <defs>
     <path d="M 0 1.5 
C 0.397805 1.5 0.77937 1.341951 1.06066 1.06066 
C 1.341951 0.77937 1.5 0.397805 1.5 0 
C 1.5 -0.397805 1.341951 -0.77937 1.06066 -1.06066 
C 0.77937 -1.341951 0.397805 -1.5 0 -1.5 
C -0.397805 -1.5 -0.77937 -1.341951 -1.06066 -1.06066 
C -1.341951 -0.77937 -1.5 -0.397805 -1.5 0 
C -1.5 0.397805 -1.341951 0.77937 -1.06066 1.06066 
C -0.77937 1.341951 -0.397805 1.5 0 1.5 
z
" id="m01c6f12d20" style="stroke:#f5deb3;"/>
    </defs>
    <g>
     <use style="fill:#f5deb3;stroke:#f5deb3;" x="70.329998" xlink:href="#m01c6f12d20" y="30.334099"/>
     <use style="fill:#f5deb3;stroke:#f5deb3;" x="70.329998" xlink:href="#m01c6f12d20" y="30.334099"/>
    </g>
   </g>
   <g id="line2d_34">
    <defs>
     <path d="M 0 1.5 
C 0.397805 1.5 0.77937 1.341951 1.06066 1.06066 
C 1.341951 0.77937 1.5 0.397805 1.5 0 
C 1.5 -0.397805 1.341951 -0.77937 1.06066 -1.06066 
C 0.77937 -1.341951 0.397805 -1.5 0 -1.5 
C -0.397805 -1.5 -0.77937 -1.341951 -1.06066 -1.06066 
C -1.341951 -0.77937 -1.5 -0.397805 -1.5 0 
C -1.5 0.397805 -1.341951 0.77937 -1.06066 1.06066 
C -0.77937 1.341951 -0.397805 1.5 0 1.5 
z
" id="m0e7b019690" style="stroke:#000080;"/>
    </defs>
    <g>
     <use style="fill:#000080;stroke:#000080;" x="246.276585" xlink:href="#m0e7b019690" y="40.867821"/>
     <use style="fill:#000080;stroke:#000080;" x="246.276585" xlink:href="#m0e7b019690" y="40.867821"/>
    </g>
   </g>
   <g id="line2d_35">
    <path d="M 93.478247 298.944 
L 93.478247 298.417314 
L 93.863965 298.417314 
L 93.863965 297.890628 
L 99.057158 297.890628 
L 99.057158 297.363942 
L 100.567829 297.363942 
L 100.567829 296.837256 
L 103.466855 296.837256 
L 103.466855 296.31057 
L 104.053884 296.31057 
L 104.053884 295.783884 
L 104.85549 295.783884 
L 104.85549 295.257197 
L 105.677314 295.257197 
L 105.677314 294.730511 
L 106.168594 294.730511 
L 106.168594 294.203825 
L 106.828751 294.203825 
L 106.828751 293.677139 
L 110.962109 293.677139 
L 110.962109 293.150453 
L 111.266113 293.150453 
L 111.266113 292.623767 
L 112.785203 292.623767 
L 112.785203 292.097081 
L 112.931907 292.097081 
L 112.986604 291.043709 
L 113.239614 291.043709 
L 113.239614 290.517023 
L 113.804498 290.517023 
L 113.804498 289.990337 
L 114.267288 289.990337 
L 114.267288 289.463651 
L 114.783921 289.463651 
L 114.783921 288.936964 
L 115.285689 288.936964 
L 115.285689 288.410278 
L 115.664476 288.410278 
L 115.664476 287.883592 
L 117.030313 287.883592 
L 117.030313 287.356906 
L 117.259781 287.356906 
L 117.259781 286.83022 
L 118.256582 286.83022 
L 118.256582 286.303534 
L 118.390628 286.303534 
L 118.390628 285.776848 
L 118.589785 285.776848 
L 118.589785 285.250162 
L 119.237678 285.250162 
L 119.237678 284.723476 
L 120.154442 284.723476 
L 120.154442 284.19679 
L 120.736003 284.19679 
L 120.736003 283.670104 
L 121.400219 283.670104 
L 121.400219 283.143418 
L 121.623516 283.143418 
L 121.623516 282.616732 
L 121.876822 282.616732 
L 121.876822 282.090045 
L 122.029227 282.090045 
L 122.029227 281.563359 
L 123.313873 281.563359 
L 123.313873 281.036673 
L 126.082515 281.036673 
L 126.082515 280.509987 
L 126.38063 280.509987 
L 126.38063 279.983301 
L 126.715207 279.983301 
L 126.715207 279.456615 
L 126.896524 279.456615 
L 126.896524 278.929929 
L 127.508774 278.929929 
L 127.587757 277.876557 
L 127.627114 277.876557 
L 127.627114 277.349871 
L 127.884669 277.349871 
L 127.884669 276.823185 
L 128.486215 276.823185 
L 128.486215 276.296499 
L 129.29783 276.296499 
L 129.29783 275.769812 
L 130.08018 275.769812 
L 130.08018 275.243126 
L 132.624415 275.243126 
L 132.624415 274.71644 
L 133.555497 274.71644 
L 133.555497 274.189754 
L 134.024843 274.189754 
L 134.024843 273.663068 
L 135.117629 273.663068 
L 135.117629 273.136382 
L 136.160425 273.136382 
L 136.237377 272.08301 
L 136.841068 272.08301 
L 136.841068 271.556324 
L 138.028177 271.556324 
L 138.101642 270.502952 
L 139.433722 270.502952 
L 139.433722 269.976266 
L 139.758293 269.976266 
L 139.758293 269.449579 
L 139.922227 269.449579 
L 140.030666 268.396207 
L 140.245542 268.396207 
L 140.245542 267.869521 
L 140.547987 267.869521 
L 140.547987 267.342835 
L 141.213507 267.342835 
L 141.213507 266.816149 
L 141.982752 266.816149 
L 141.982752 266.289463 
L 142.636569 266.289463 
L 142.636569 265.762777 
L 142.952877 265.762777 
L 142.952877 265.236091 
L 143.205718 265.236091 
L 143.205718 264.709405 
L 143.397747 264.709405 
L 143.397747 264.182719 
L 143.553018 264.182719 
L 143.644266 263.129347 
L 144.087359 263.129347 
L 144.087359 262.60266 
L 144.414696 262.60266 
L 144.414696 262.075974 
L 144.546314 262.075974 
L 144.546314 261.549288 
L 146.055533 261.549288 
L 146.148208 259.96923 
L 146.415286 259.96923 
L 146.415286 259.442544 
L 146.535345 259.442544 
L 146.535345 258.915858 
L 146.678334 258.915858 
L 146.678334 258.389172 
L 146.859353 258.389172 
L 146.859353 257.862486 
L 147.136399 257.862486 
L 147.136399 257.3358 
L 147.297484 257.3358 
L 147.302574 256.282427 
L 147.499916 256.282427 
L 147.60776 255.229055 
L 148.308561 255.229055 
L 148.358926 254.175683 
L 148.770728 254.175683 
L 148.836097 253.122311 
L 149.402364 253.122311 
L 149.402364 252.595625 
L 149.803746 252.595625 
L 149.803746 252.068939 
L 149.953007 252.068939 
L 150.020631 251.015567 
L 150.482555 251.015567 
L 150.558718 249.435508 
L 150.753948 249.435508 
L 150.753948 248.908822 
L 151.237746 248.908822 
L 151.237746 248.382136 
L 151.541675 248.382136 
L 151.541675 247.85545 
L 151.666931 247.85545 
L 151.702554 246.802078 
L 152.553325 246.802078 
L 152.553325 246.275392 
L 152.824228 246.275392 
L 152.824228 245.748706 
L 152.999462 245.748706 
L 152.999462 245.22202 
L 153.174769 245.22202 
L 153.174769 244.695334 
L 153.505927 244.695334 
L 153.505927 244.168648 
L 154.124164 244.168648 
L 154.124164 243.641962 
L 154.315825 243.641962 
L 154.315825 243.115275 
L 154.875189 243.115275 
L 154.875189 242.588589 
L 155.109299 242.588589 
L 155.151529 241.535217 
L 155.500053 241.535217 
L 155.500053 241.008531 
L 155.776134 241.008531 
L 155.776134 240.481845 
L 156.303376 240.481845 
L 156.338269 239.428473 
L 156.607461 239.428473 
L 156.673 237.848415 
L 156.739775 237.848415 
L 156.739775 237.321729 
L 156.854915 237.321729 
L 156.918066 236.268356 
L 157.053872 236.268356 
L 157.053872 235.74167 
L 157.593813 235.74167 
L 157.593813 235.214984 
L 157.887482 235.214984 
L 157.887482 234.688298 
L 158.183105 234.688298 
L 158.290482 233.634926 
L 158.371595 233.634926 
L 158.371595 233.10824 
L 158.788724 233.10824 
L 158.850507 231.528182 
L 159.269283 231.528182 
L 159.306394 230.47481 
L 159.484452 230.47481 
L 159.484452 229.948123 
L 159.624345 229.948123 
L 159.624345 229.421437 
L 159.861227 229.421437 
L 159.861227 228.894751 
L 160.064363 228.894751 
L 160.075375 227.841379 
L 160.354468 227.841379 
L 160.354468 227.314693 
L 160.65758 227.314693 
L 160.65758 226.788007 
L 160.802491 226.788007 
L 160.802491 226.261321 
L 160.931074 226.261321 
L 160.931074 225.734635 
L 161.165908 225.734635 
L 161.222121 224.154577 
L 161.386278 224.154577 
L 161.386278 223.627891 
L 161.499373 223.627891 
L 161.499373 223.101204 
L 162.050828 223.101204 
L 162.050828 222.574518 
L 162.252805 222.574518 
L 162.252805 222.047832 
L 162.406513 222.047832 
L 162.424696 220.99446 
L 162.547205 220.99446 
L 162.604435 219.941088 
L 162.696246 219.941088 
L 162.802228 218.36103 
L 162.935623 218.36103 
L 162.935623 217.834344 
L 163.272863 217.834344 
L 163.272863 217.307658 
L 163.54265 217.307658 
L 163.54265 216.780971 
L 163.752938 216.780971 
L 163.83694 215.727599 
L 163.90778 215.727599 
L 163.90778 215.200913 
L 164.040808 215.200913 
L 164.040808 214.674227 
L 164.221115 214.674227 
L 164.274077 212.567483 
L 164.878815 212.567483 
L 164.878815 212.040797 
L 165.130527 212.040797 
L 165.199047 210.460738 
L 165.328951 210.460738 
L 165.439018 209.407366 
L 165.509923 209.407366 
L 165.529617 208.353994 
L 165.683715 208.353994 
L 165.683715 207.827308 
L 165.963468 207.827308 
L 165.963468 207.300622 
L 166.171669 207.300622 
L 166.265413 205.193878 
L 166.46243 205.193878 
L 166.472604 204.140506 
L 166.595916 204.140506 
L 166.704986 202.033761 
L 166.765935 202.033761 
L 166.823349 200.453703 
L 166.914489 200.453703 
L 166.971417 199.400331 
L 167.038009 199.400331 
L 167.038009 198.873645 
L 167.287309 198.873645 
L 167.322864 197.820273 
L 167.443535 197.820273 
L 167.507553 196.7669 
L 167.635681 196.7669 
L 167.635681 196.240214 
L 167.833575 196.240214 
L 167.943765 194.13347 
L 168.039323 194.13347 
L 168.039323 193.606784 
L 168.346509 193.606784 
L 168.346509 193.080098 
L 168.559117 193.080098 
L 168.559117 192.553412 
L 168.748347 192.553412 
L 168.748347 192.026726 
L 168.894283 192.026726 
L 168.990655 190.973354 
L 169.033154 190.973354 
L 169.071899 189.919981 
L 169.181817 189.919981 
L 169.277339 188.866609 
L 169.345045 188.866609 
L 169.350076 187.813237 
L 169.523133 187.813237 
L 169.580676 185.706493 
L 169.815265 185.706493 
L 169.815265 185.179807 
L 169.939378 185.179807 
L 170.008027 183.599748 
L 170.052263 183.599748 
L 170.128032 182.01969 
L 170.219207 182.01969 
L 170.219207 181.493004 
L 170.445416 181.493004 
L 170.555083 179.912946 
L 170.616009 179.912946 
L 170.616009 179.38626 
L 170.74917 179.38626 
L 170.767069 177.806202 
L 170.96341 177.806202 
L 170.985671 176.752829 
L 171.295671 176.752829 
L 171.295671 176.226143 
L 171.522386 176.226143 
L 171.611622 175.172771 
L 171.652606 175.172771 
L 171.652606 174.646085 
L 171.97211 174.646085 
L 172.070151 172.539341 
L 172.156635 172.539341 
L 172.264595 170.959282 
L 172.308321 170.959282 
L 172.36887 169.90591 
L 172.527716 169.90591 
L 172.603022 167.799166 
L 172.68038 167.799166 
L 172.763306 166.745794 
L 172.843486 166.745794 
L 172.843486 166.219108 
L 173.143236 166.219108 
L 173.1877 165.165736 
L 173.28604 165.165736 
L 173.350722 163.585677 
L 173.452695 163.585677 
L 173.552381 162.532305 
L 173.574393 162.532305 
L 173.658799 161.478933 
L 173.780187 161.478933 
L 173.87137 160.425561 
L 173.985784 160.425561 
L 173.985784 159.898875 
L 174.170462 159.898875 
L 174.223802 158.845503 
L 174.302965 158.845503 
L 174.348349 157.79213 
L 174.435006 157.79213 
L 174.537789 156.212072 
L 174.586825 156.212072 
L 174.650579 153.578642 
L 174.758955 153.578642 
L 174.838355 151.998584 
L 174.928359 151.998584 
L 175.016862 150.945211 
L 175.042807 150.945211 
L 175.075961 149.891839 
L 175.154449 149.891839 
L 175.169384 148.838467 
L 175.312416 148.838467 
L 175.323134 147.785095 
L 175.442632 147.785095 
L 175.530083 146.205037 
L 175.685698 146.205037 
L 175.76249 144.098292 
L 175.857759 144.098292 
L 175.950543 142.518234 
L 176.039897 142.518234 
L 176.135616 140.41149 
L 176.161409 140.41149 
L 176.206091 139.358118 
L 176.319709 139.358118 
L 176.319709 138.831432 
L 176.518563 138.831432 
L 176.582764 137.778059 
L 176.641054 137.778059 
L 176.72224 136.198001 
L 176.785228 136.198001 
L 176.869016 134.617943 
L 176.954726 134.617943 
L 176.954726 134.091257 
L 177.070048 134.091257 
L 177.157994 131.457826 
L 177.266964 131.457826 
L 177.354834 130.404454 
L 177.393393 130.404454 
L 177.415129 129.351082 
L 177.566533 129.351082 
L 177.591192 128.29771 
L 177.736639 128.29771 
L 177.741526 127.244338 
L 177.891455 127.244338 
L 177.931044 126.190966 
L 178.035303 126.190966 
L 178.121133 124.084221 
L 178.242834 124.084221 
L 178.344393 121.450791 
L 178.400085 121.450791 
L 178.488398 117.763988 
L 178.525382 117.763988 
L 178.597847 116.18393 
L 178.780006 116.18393 
L 178.888893 115.130558 
L 179.068875 115.130558 
L 179.146499 112.497128 
L 179.262495 112.497128 
L 179.337237 110.390383 
L 179.393084 110.390383 
L 179.496615 108.283639 
L 179.515081 108.283639 
L 179.553957 107.230267 
L 179.630652 107.230267 
L 179.735956 105.123522 
L 179.826839 105.123522 
L 179.826839 104.596836 
L 179.958762 104.596836 
L 180.040321 102.490092 
L 180.08853 102.490092 
L 180.192657 100.383348 
L 180.207702 100.383348 
L 180.300386 96.169859 
L 180.545286 96.169859 
L 180.65312 94.589801 
L 180.869036 94.589801 
L 180.976369 92.483056 
L 181.02059 92.483056 
L 181.02059 91.95637 
L 181.136139 91.95637 
L 181.159888 89.32294 
L 181.306411 89.32294 
L 181.413613 87.216196 
L 181.510142 87.216196 
L 181.597953 85.636137 
L 181.636364 85.636137 
L 181.694532 84.056079 
L 181.765912 84.056079 
L 181.851745 81.422649 
L 181.882949 81.422649 
L 181.93157 80.369277 
L 185.020069 80.369277 
L 185.020069 79.842591 
L 185.34648 79.842591 
L 185.34648 79.315904 
L 186.183062 79.315904 
L 186.183062 78.789218 
L 186.496666 78.789218 
L 186.496666 78.262532 
L 186.771416 78.262532 
L 186.771416 77.735846 
L 187.673197 77.735846 
L 187.673197 77.20916 
L 187.881548 77.20916 
L 187.881548 76.682474 
L 189.353127 76.682474 
L 189.353127 76.155788 
L 189.966228 76.155788 
L 189.966228 75.629102 
L 190.52247 75.629102 
L 190.52247 75.102416 
L 190.652819 75.102416 
L 190.652819 74.57573 
L 190.942953 74.57573 
L 190.942953 74.049044 
L 191.221779 74.049044 
L 191.221779 73.522358 
L 191.558074 73.522358 
L 191.564509 72.468985 
L 191.799562 72.468985 
L 191.799562 71.942299 
L 191.946722 71.942299 
L 191.946722 71.415613 
L 192.661051 71.415613 
L 192.750128 69.308869 
L 192.810508 69.308869 
L 192.858551 68.255497 
L 193.012809 68.255497 
L 193.058822 67.202125 
L 193.213156 67.202125 
L 193.270134 66.148752 
L 193.364323 66.148752 
L 193.364323 65.622066 
L 193.505379 65.622066 
L 193.505379 65.09538 
L 193.718667 65.09538 
L 193.792609 62.988636 
L 193.833612 62.988636 
L 193.885785 61.408578 
L 193.950083 61.408578 
L 193.950083 60.881892 
L 195.93125 60.881892 
L 195.93125 60.355206 
L 200.303068 60.355206 
L 200.303068 59.82852 
L 200.43498 59.82852 
L 200.43498 59.301833 
L 200.569502 59.301833 
L 200.60354 57.721775 
L 200.685127 57.721775 
L 200.685127 57.195089 
L 200.834764 57.195089 
L 200.924097 55.088345 
L 200.948414 55.088345 
L 201.022447 53.508287 
L 205.670724 53.508287 
L 205.670724 52.9816 
L 205.816604 52.9816 
L 205.872722 51.928228 
L 205.973158 51.928228 
L 205.973158 50.874856 
L 209.434283 50.874856 
L 209.434283 50.34817 
L 209.619329 50.34817 
L 209.719074 49.294798 
L 209.902895 49.294798 
L 209.924378 48.241426 
L 213.157654 48.241426 
L 213.157654 47.71474 
L 215.772726 47.71474 
L 215.772726 47.188054 
L 218.061102 47.188054 
L 218.061102 46.661368 
L 218.218444 46.661368 
L 218.218444 46.134681 
L 221.903311 46.134681 
L 221.903311 45.607995 
L 222.049128 45.607995 
L 222.084938 44.027937 
L 223.636841 44.027937 
L 223.636841 43.501251 
L 225.283925 43.501251 
L 225.283925 42.974565 
L 226.62395 42.974565 
L 226.62395 42.447879 
L 227.935285 42.447879 
L 227.935285 41.921193 
L 241.262778 41.921193 
L 241.262778 41.394507 
L 246.276585 41.394507 
L 246.276585 40.867821 
L 338.688 40.867821 
L 338.688 40.867821 
" style="fill:none;stroke:#000080;stroke-linecap:square;stroke-width:1.5;"/>
   </g>
   <g id="line2d_36">
    <defs>
     <path d="M 0 6 
C 1.591219 6 3.117479 5.367802 4.242641 4.242641 
C 5.367802 3.117479 6 1.591219 6 0 
C 6 -1.591219 5.367802 -3.117479 4.242641 -4.242641 
C 3.117479 -5.367802 1.591219 -6 0 -6 
C -1.591219 -6 -3.117479 -5.367802 -4.242641 -4.242641 
C -5.367802 -3.117479 -6 -1.591219 -6 0 
C -6 1.591219 -5.367802 3.117479 -4.242641 4.242641 
C -3.117479 5.367802 -1.591219 6 0 6 
z
" id="m9f61665642" style="stroke:#000080;stroke-width:1.5;"/>
    </defs>
    <g>
     <use style="fill-opacity:0;stroke:#000080;stroke-width:1.5;" x="172.36887" xlink:href="#m9f61665642" y="170.432596"/>
     <use style="fill-opacity:0;stroke:#000080;stroke-width:1.5;" x="193.833612" xlink:href="#m9f61665642" y="62.46195"/>
     <use style="fill-opacity:0;stroke:#000080;stroke-width:1.5;" x="246.276585" xlink:href="#m9f61665642" y="40.867821"/>
     <use style="fill-opacity:0;stroke:#000080;stroke-width:1.5;" x="246.276585" xlink:href="#m9f61665642" y="40.867821"/>
     <use style="fill-opacity:0;stroke:#000080;stroke-width:1.5;" x="338.688" xlink:href="#m9f61665642" y="40.867821"/>
    </g>
   </g>
   <g id="line2d_37">
    <path style="fill:none;stroke:#000080;stroke-linecap:square;stroke-width:1.5;"/>
    <g/>
   </g>
   <g id="line2d_38">
    <path clip-path="url(#p6b1723390b)" d="M 181.957749 80.369277 
" style="fill:none;stroke:#000080;stroke-linecap:square;stroke-width:1.5;"/>
    <defs>
     <path d="M -12 12 
L 12 -12 
M -12 -12 
L 12 12 
" id="me5ab27ac51" style="stroke:#000080;"/>
    </defs>
    <g clip-path="url(#p6b1723390b)">
     <use style="fill:#000080;stroke:#000080;" x="181.957749" xlink:href="#me5ab27ac51" y="80.369277"/>
    </g>
   </g>
   <g id="line2d_39">
    <defs>
     <path d="M 0 1.5 
C 0.397805 1.5 0.77937 1.341951 1.06066 1.06066 
C 1.341951 0.77937 1.5 0.397805 1.5 0 
C 1.5 -0.397805 1.341951 -0.77937 1.06066 -1.06066 
C 0.77937 -1.341951 0.397805 -1.5 0 -1.5 
C -0.397805 -1.5 -0.77937 -1.341951 -1.06066 -1.06066 
C -1.341951 -0.77937 -1.5 -0.397805 -1.5 0 
C -1.5 0.397805 -1.341951 0.77937 -1.06066 1.06066 
C -0.77937 1.341951 -0.397805 1.5 0 1.5 
z
" id="me5756a3989" style="stroke:#ff00ff;"/>
    </defs>
    <g>
     <use style="fill:#ff00ff;stroke:#ff00ff;" x="232.359103" xlink:href="#me5756a3989" y="109.337011"/>
     <use style="fill:#ff00ff;stroke:#ff00ff;" x="232.359103" xlink:href="#me5756a3989" y="109.337011"/>
    </g>
   </g>
   <g id="line2d_40">
    <path d="M 107.314272 298.944 
L 107.314272 298.417314 
L 116.443076 298.417314 
L 116.443076 297.890628 
L 117.15976 297.890628 
L 117.15976 297.363942 
L 118.550135 297.363942 
L 118.550135 296.837256 
L 119.237678 296.837256 
L 119.237678 296.31057 
L 119.40226 296.31057 
L 119.40226 295.783884 
L 119.776241 295.783884 
L 119.776241 295.257197 
L 120.238719 295.257197 
L 120.238719 294.730511 
L 122.531342 294.730511 
L 122.531342 294.203825 
L 123.212892 294.203825 
L 123.212892 293.677139 
L 125.219619 293.677139 
L 125.219619 293.150453 
L 126.598834 293.150453 
L 126.623836 292.097081 
L 127.611382 292.097081 
L 127.611382 291.570395 
L 128.305651 291.570395 
L 128.305651 291.043709 
L 129.333516 291.043709 
L 129.333516 290.517023 
L 129.616397 290.517023 
L 129.616397 289.990337 
L 130.697564 289.990337 
L 130.697564 289.463651 
L 131.300208 289.463651 
L 131.300208 288.936964 
L 133.347181 288.936964 
L 133.347181 288.410278 
L 135.009836 288.410278 
L 135.009836 287.883592 
L 135.173827 287.883592 
L 135.173827 287.356906 
L 137.307607 287.356906 
L 137.307607 286.83022 
L 138.349983 286.83022 
L 138.383962 285.776848 
L 138.636709 285.776848 
L 138.636709 285.250162 
L 140.674955 285.250162 
L 140.674955 284.723476 
L 140.789919 284.723476 
L 140.789919 284.19679 
L 140.984732 284.19679 
L 140.984732 283.670104 
L 142.466167 283.670104 
L 142.57328 282.616732 
L 143.647403 282.616732 
L 143.647403 282.090045 
L 144.233601 282.090045 
L 144.233601 281.563359 
L 145.045704 281.563359 
L 145.045704 281.036673 
L 145.696573 281.036673 
L 145.696573 280.509987 
L 146.377764 280.509987 
L 146.377764 279.983301 
L 147.069483 279.983301 
L 147.069483 279.456615 
L 147.527567 279.456615 
L 147.527567 278.929929 
L 147.767046 278.929929 
L 147.767046 278.403243 
L 148.542361 278.403243 
L 148.575506 277.349871 
L 149.368495 277.349871 
L 149.368495 276.823185 
L 149.593058 276.823185 
L 149.593058 276.296499 
L 150.579816 276.296499 
L 150.579816 275.769812 
L 150.726789 275.769812 
L 150.726789 275.243126 
L 151.023238 275.243126 
L 151.031458 274.189754 
L 151.229622 274.189754 
L 151.229622 273.663068 
L 151.672873 273.663068 
L 151.672873 273.136382 
L 151.801125 273.136382 
L 151.801125 272.609696 
L 152.485409 272.609696 
L 152.485409 272.08301 
L 152.946156 272.08301 
L 152.946156 271.556324 
L 153.546883 271.556324 
L 153.546883 271.029638 
L 153.965137 271.029638 
L 154.0552 269.976266 
L 154.847148 269.976266 
L 154.847148 269.449579 
L 155.006547 269.449579 
L 155.006547 268.922893 
L 155.187182 268.922893 
L 155.187182 268.396207 
L 155.51277 268.396207 
L 155.51277 267.869521 
L 156.004712 267.869521 
L 156.020153 266.816149 
L 156.227282 266.816149 
L 156.227282 266.289463 
L 156.72644 266.289463 
L 156.72644 265.762777 
L 157.129348 265.762777 
L 157.129348 265.236091 
L 157.356695 265.236091 
L 157.356695 264.709405 
L 158.471118 264.709405 
L 158.523341 263.656033 
L 158.714823 263.656033 
L 158.714823 263.129347 
L 159.370195 263.129347 
L 159.370195 262.60266 
L 159.923034 262.60266 
L 159.923034 262.075974 
L 160.189979 262.075974 
L 160.189979 261.549288 
L 161.512896 261.549288 
L 161.512896 261.022602 
L 162.000514 261.022602 
L 162.000514 260.495916 
L 162.360435 260.495916 
L 162.43752 258.915858 
L 162.478066 258.915858 
L 162.51001 256.809114 
L 163.02158 256.809114 
L 163.02158 256.282427 
L 163.436042 256.282427 
L 163.443103 255.229055 
L 163.711281 255.229055 
L 163.808326 254.175683 
L 163.829051 254.175683 
L 163.829051 253.648997 
L 163.988109 253.648997 
L 164.084602 251.542253 
L 164.108884 251.542253 
L 164.108884 251.015567 
L 164.487179 251.015567 
L 164.529868 248.382136 
L 164.719278 248.382136 
L 164.82673 246.275392 
L 164.885315 246.275392 
L 164.885315 245.748706 
L 165.295432 245.748706 
L 165.405711 243.115275 
L 165.483928 243.115275 
L 165.483928 241.535217 
L 165.962595 241.535217 
L 166.016622 238.901787 
L 166.15355 238.901787 
L 166.154414 237.848415 
L 166.279131 237.848415 
L 166.279131 237.321729 
L 166.577391 237.321729 
L 166.577391 236.795043 
L 166.711675 236.795043 
L 166.768435 235.74167 
L 167.045392 235.74167 
L 167.096171 234.688298 
L 167.165548 234.688298 
L 167.215979 231.528182 
L 167.356736 231.528182 
L 167.436318 228.894751 
L 167.593606 228.894751 
L 167.593606 228.368065 
L 167.921939 228.368065 
L 167.921939 227.841379 
L 168.159001 227.841379 
L 168.244203 226.788007 
L 168.31527 226.788007 
L 168.31527 226.261321 
L 168.471664 226.261321 
L 168.471664 225.734635 
L 168.964959 225.734635 
L 169.064596 224.681263 
L 169.101813 224.681263 
L 169.146224 223.101204 
L 169.236878 223.101204 
L 169.306903 221.521146 
L 169.413205 221.521146 
L 169.50106 219.941088 
L 169.560806 219.941088 
L 169.572872 217.307658 
L 169.674749 217.307658 
L 169.783046 216.254285 
L 169.838341 216.254285 
L 169.937294 215.200913 
L 170.149326 215.200913 
L 170.210316 213.620855 
L 170.40555 213.620855 
L 170.40555 213.094169 
L 170.556424 213.094169 
L 170.56447 210.987425 
L 170.684048 210.987425 
L 170.777005 209.934052 
L 170.883954 209.934052 
L 170.978472 208.353994 
L 171.134874 208.353994 
L 171.134874 207.827308 
L 171.403968 207.827308 
L 171.403968 207.300622 
L 171.52429 207.300622 
L 171.560415 204.140506 
L 171.636855 204.140506 
L 171.726136 201.507075 
L 171.910786 201.507075 
L 171.936209 199.927017 
L 172.076299 199.927017 
L 172.136432 197.820273 
L 172.232338 197.820273 
L 172.232338 197.293586 
L 172.689284 197.293586 
L 172.766851 196.240214 
L 172.858185 196.240214 
L 172.968911 195.186842 
L 173.008578 195.186842 
L 173.08126 194.13347 
L 173.127039 194.13347 
L 173.159418 193.080098 
L 173.351865 193.080098 
L 173.39751 190.446667 
L 173.592434 190.446667 
L 173.676192 187.286551 
L 173.783531 187.286551 
L 173.875252 185.706493 
L 173.984132 185.706493 
L 174.054514 184.126434 
L 174.214017 184.126434 
L 174.309456 182.01969 
L 174.380694 182.01969 
L 174.380694 181.493004 
L 174.561791 181.493004 
L 174.561791 180.966318 
L 174.687661 180.966318 
L 174.754211 179.912946 
L 174.832583 179.912946 
L 174.904856 178.332888 
L 174.965898 178.332888 
L 175.01011 176.752829 
L 175.154449 176.752829 
L 175.154449 176.226143 
L 175.375611 176.226143 
L 175.375611 175.699457 
L 175.526553 175.699457 
L 175.557793 174.119399 
L 175.693692 174.119399 
L 175.763485 172.539341 
L 175.948574 172.539341 
L 176.055071 171.485969 
L 176.087334 171.485969 
L 176.102955 167.799166 
L 176.23178 167.799166 
L 176.3409 164.63905 
L 176.391846 164.63905 
L 176.444078 163.058991 
L 176.525232 163.058991 
L 176.595576 162.005619 
L 176.656187 162.005619 
L 176.72836 160.952247 
L 176.783351 160.952247 
L 176.808204 159.898875 
L 176.89468 159.898875 
L 176.93892 157.79213 
L 177.025677 157.79213 
L 177.131795 156.212072 
L 177.215769 156.212072 
L 177.323015 154.632014 
L 177.449491 154.632014 
L 177.449491 154.105328 
L 177.590296 154.105328 
L 177.697942 151.471897 
L 177.715744 151.471897 
L 177.715744 150.945211 
L 177.896739 150.945211 
L 177.896739 150.418525 
L 178.078925 150.418525 
L 178.167141 148.838467 
L 178.19789 148.838467 
L 178.260951 147.258409 
L 178.497332 147.258409 
L 178.534722 146.205037 
L 178.696104 146.205037 
L 178.807187 145.151665 
L 178.81763 145.151665 
L 178.906767 143.04492 
L 178.932922 143.04492 
L 178.972702 141.464862 
L 179.06764 141.464862 
L 179.06764 140.938176 
L 179.215618 140.938176 
L 179.317364 137.778059 
L 179.409238 137.778059 
L 179.509463 135.671315 
L 179.571163 135.671315 
L 179.571163 135.144629 
L 179.707804 135.144629 
L 179.707804 134.617943 
L 179.962282 134.617943 
L 180.064442 133.564571 
L 180.107544 133.564571 
L 180.215798 131.984513 
L 180.238908 131.984513 
L 180.308055 129.877768 
L 180.360118 129.877768 
L 180.439826 128.824396 
L 180.510835 128.824396 
L 180.566831 127.771024 
L 180.758797 127.771024 
L 180.758797 127.244338 
L 180.899453 127.244338 
L 180.975631 125.66428 
L 181.011018 125.66428 
L 181.064699 124.610907 
L 181.166094 124.610907 
L 181.239665 123.557535 
L 181.401374 123.557535 
L 181.506921 121.450791 
L 181.513362 121.450791 
L 181.513362 120.924105 
L 181.656958 120.924105 
L 181.719301 119.870733 
L 181.828218 119.870733 
L 181.876642 118.290674 
L 193.364142 118.290674 
L 193.364142 117.763988 
L 193.603319 117.763988 
L 193.654402 116.18393 
L 193.885081 116.18393 
L 193.983543 115.130558 
L 200.726194 115.130558 
L 200.726194 114.603872 
L 201.075319 114.603872 
L 201.075319 114.077186 
L 205.714277 114.077186 
L 205.820866 112.497128 
L 206.102656 112.497128 
L 206.102656 111.970441 
L 215.874577 111.970441 
L 215.874577 111.443755 
L 218.184398 111.443755 
L 218.184398 110.917069 
L 220.261964 110.917069 
L 220.261964 110.390383 
L 229.137234 110.390383 
L 229.137234 109.863697 
L 232.359103 109.863697 
L 232.359103 109.337011 
L 338.688 109.337011 
L 338.688 109.337011 
" style="fill:none;stroke:#ff00ff;stroke-linecap:square;stroke-width:1.5;"/>
   </g>
   <g id="line2d_41">
    <defs>
     <path d="M 0 8.485281 
L 5.091169 0 
L 0 -8.485281 
L -5.091169 0 
z
" id="m83c6a7df53" style="stroke:#ff00ff;stroke-linejoin:miter;stroke-width:1.5;"/>
    </defs>
    <g>
     <use style="fill-opacity:0;stroke:#ff00ff;stroke-linejoin:miter;stroke-width:1.5;" x="167.356736" xlink:href="#m83c6a7df53" y="231.528182"/>
     <use style="fill-opacity:0;stroke:#ff00ff;stroke-linejoin:miter;stroke-width:1.5;" x="179.707804" xlink:href="#m83c6a7df53" y="134.617943"/>
     <use style="fill-opacity:0;stroke:#ff00ff;stroke-linejoin:miter;stroke-width:1.5;" x="232.359103" xlink:href="#m83c6a7df53" y="109.337011"/>
     <use style="fill-opacity:0;stroke:#ff00ff;stroke-linejoin:miter;stroke-width:1.5;" x="232.359103" xlink:href="#m83c6a7df53" y="109.337011"/>
     <use style="fill-opacity:0;stroke:#ff00ff;stroke-linejoin:miter;stroke-width:1.5;" x="338.688" xlink:href="#m83c6a7df53" y="109.337011"/>
    </g>
   </g>
   <g id="line2d_42">
    <path style="fill:none;stroke:#ff00ff;stroke-linecap:square;stroke-width:1.5;"/>
    <g/>
   </g>
   <g id="line2d_43">
    <path clip-path="url(#p6b1723390b)" d="M 181.957749 118.290674 
" style="fill:none;stroke:#ff00ff;stroke-linecap:square;stroke-width:1.5;"/>
    <defs>
     <path d="M -12 12 
L 12 -12 
M -12 -12 
L 12 12 
" id="m41c9a35b3e" style="stroke:#ff00ff;"/>
    </defs>
    <g clip-path="url(#p6b1723390b)">
     <use style="fill:#ff00ff;stroke:#ff00ff;" x="181.957749" xlink:href="#m41c9a35b3e" y="118.290674"/>
    </g>
   </g>
   <g id="line2d_44">
    <defs>
     <path d="M 0 1.5 
C 0.397805 1.5 0.77937 1.341951 1.06066 1.06066 
C 1.341951 0.77937 1.5 0.397805 1.5 0 
C 1.5 -0.397805 1.341951 -0.77937 1.06066 -1.06066 
C 0.77937 -1.341951 0.397805 -1.5 0 -1.5 
C -0.397805 -1.5 -0.77937 -1.341951 -1.06066 -1.06066 
C -1.341951 -0.77937 -1.5 -0.397805 -1.5 0 
C -1.5 0.397805 -1.341951 0.77937 -1.06066 1.06066 
C -0.77937 1.341951 -0.397805 1.5 0 1.5 
z
" id="m8acb445030" style="stroke:#ff7500;"/>
    </defs>
    <g>
     <use style="fill:#ff7500;stroke:#ff7500;" x="225.292647" xlink:href="#m8acb445030" y="209.407366"/>
     <use style="fill:#ff7500;stroke:#ff7500;" x="225.292647" xlink:href="#m8acb445030" y="209.407366"/>
    </g>
   </g>
   <g id="line2d_45">
    <path d="M 142.174998 298.944 
L 142.174998 298.417314 
L 147.404054 298.417314 
L 147.404054 297.890628 
L 150.689114 297.890628 
L 150.689114 297.363942 
L 150.953209 297.363942 
L 150.953209 296.837256 
L 151.409483 296.837256 
L 151.409483 296.31057 
L 152.434298 296.31057 
L 152.434298 295.783884 
L 155.317826 295.783884 
L 155.317826 295.257197 
L 155.622068 295.257197 
L 155.622068 294.730511 
L 156.179936 294.730511 
L 156.179936 294.203825 
L 158.118907 294.203825 
L 158.118907 293.677139 
L 159.02936 293.677139 
L 159.02936 293.150453 
L 159.270564 293.150453 
L 159.270564 292.623767 
L 160.313491 292.623767 
L 160.313491 292.097081 
L 161.247301 292.097081 
L 161.247301 291.570395 
L 161.606139 291.570395 
L 161.606139 291.043709 
L 162.264677 291.043709 
L 162.264677 290.517023 
L 163.45016 290.517023 
L 163.45016 289.990337 
L 164.005693 289.990337 
L 164.106943 288.936964 
L 164.563944 288.936964 
L 164.627186 287.883592 
L 165.371436 287.883592 
L 165.371436 287.356906 
L 167.850814 287.356906 
L 167.850814 286.83022 
L 168.805533 286.83022 
L 168.810723 285.776848 
L 169.117843 285.776848 
L 169.117843 285.250162 
L 170.135591 285.250162 
L 170.135591 284.723476 
L 170.315348 284.723476 
L 170.315348 284.19679 
L 170.588585 284.19679 
L 170.588585 283.670104 
L 170.806779 283.670104 
L 170.806779 283.143418 
L 171.228046 283.143418 
L 171.228046 282.616732 
L 171.675893 282.616732 
L 171.675893 282.090045 
L 171.947978 282.090045 
L 171.947978 281.563359 
L 172.760351 281.563359 
L 172.760351 281.036673 
L 173.251598 281.036673 
L 173.251598 280.509987 
L 174.274269 280.509987 
L 174.304047 278.929929 
L 174.514822 278.929929 
L 174.514822 278.403243 
L 174.661712 278.403243 
L 174.661712 277.876557 
L 174.948702 277.876557 
L 174.948702 277.349871 
L 175.276639 277.349871 
L 175.276639 276.823185 
L 176.785697 276.823185 
L 176.785697 276.296499 
L 176.926358 276.296499 
L 176.926358 275.769812 
L 177.140532 275.769812 
L 177.247784 274.71644 
L 177.630126 274.71644 
L 177.672096 273.136382 
L 177.761946 273.136382 
L 177.83588 272.08301 
L 177.905982 272.08301 
L 177.905982 271.556324 
L 178.133298 271.556324 
L 178.133298 271.029638 
L 178.294118 271.029638 
L 178.294118 270.502952 
L 178.412484 270.502952 
L 178.412484 269.976266 
L 178.633334 269.976266 
L 178.633334 269.449579 
L 179.016933 269.449579 
L 179.016933 268.922893 
L 179.178434 268.922893 
L 179.178434 268.396207 
L 179.29625 268.396207 
L 179.29625 267.869521 
L 179.481346 267.869521 
L 179.592346 266.816149 
L 179.685966 266.816149 
L 179.736352 265.236091 
L 179.818955 265.236091 
L 179.911369 262.60266 
L 179.95172 262.60266 
L 180.056665 260.495916 
L 180.110646 260.495916 
L 180.199602 258.915858 
L 180.234673 258.915858 
L 180.237753 257.862486 
L 180.382275 257.862486 
L 180.470999 255.229055 
L 180.536207 255.229055 
L 180.634316 252.595625 
L 180.688792 252.595625 
L 180.771869 251.015567 
L 180.887218 251.015567 
L 180.969726 248.382136 
L 181.160253 248.382136 
L 181.271256 245.22202 
L 181.283224 245.22202 
L 181.364245 242.588589 
L 181.406054 242.588589 
L 181.510858 241.008531 
L 181.553746 241.008531 
L 181.591899 238.901787 
L 181.677527 238.901787 
L 181.770143 236.795043 
L 181.791284 236.795043 
L 181.866127 234.688298 
L 181.955656 234.688298 
L 181.956702 233.634926 
L 193.318201 233.634926 
L 193.356887 232.054868 
L 193.508437 232.054868 
L 193.558722 231.001496 
L 193.723465 231.001496 
L 193.829551 228.894751 
L 193.962703 228.894751 
L 194.045214 226.261321 
L 200.108298 226.261321 
L 200.108298 225.734635 
L 200.655666 225.734635 
L 200.655666 225.207949 
L 200.861801 225.207949 
L 200.91175 223.627891 
L 200.972931 223.627891 
L 201.080562 220.467774 
L 201.116408 220.467774 
L 201.116408 218.887716 
L 205.844198 218.887716 
L 205.952024 217.307658 
L 205.973334 217.307658 
L 206.027371 216.254285 
L 206.092258 216.254285 
L 206.092258 215.727599 
L 210.02498 215.727599 
L 210.02498 214.674227 
L 215.865098 214.674227 
L 215.892873 213.620855 
L 218.210288 213.620855 
L 218.210288 213.094169 
L 220.195243 213.094169 
L 220.275649 210.987425 
L 225.232377 210.987425 
L 225.292647 209.407366 
L 338.688 209.407366 
L 338.688 209.407366 
" style="fill:none;stroke:#ff7500;stroke-linecap:square;stroke-width:1.5;"/>
   </g>
   <g id="line2d_46">
    <defs>
     <path d="M 0 -6 
L -1.347084 -1.854102 
L -5.706339 -1.854102 
L -2.179628 0.708204 
L -3.526712 4.854102 
L -0 2.291796 
L 3.526712 4.854102 
L 2.179628 0.708204 
L 5.706339 -1.854102 
L 1.347084 -1.854102 
z
" id="m0870e35a40" style="stroke:#ff7500;stroke-linejoin:bevel;stroke-width:1.5;"/>
    </defs>
    <g>
     <use style="fill-opacity:0;stroke:#ff7500;stroke-linejoin:bevel;stroke-width:1.5;" x="179.896459" xlink:href="#m0870e35a40" y="264.182719"/>
     <use style="fill-opacity:0;stroke:#ff7500;stroke-linejoin:bevel;stroke-width:1.5;" x="218.210288" xlink:href="#m0870e35a40" y="213.620855"/>
     <use style="fill-opacity:0;stroke:#ff7500;stroke-linejoin:bevel;stroke-width:1.5;" x="225.292647" xlink:href="#m0870e35a40" y="209.934052"/>
     <use style="fill-opacity:0;stroke:#ff7500;stroke-linejoin:bevel;stroke-width:1.5;" x="225.292647" xlink:href="#m0870e35a40" y="209.407366"/>
     <use style="fill-opacity:0;stroke:#ff7500;stroke-linejoin:bevel;stroke-width:1.5;" x="338.688" xlink:href="#m0870e35a40" y="209.407366"/>
    </g>
   </g>
   <g id="line2d_47">
    <path style="fill:none;stroke:#ff7500;stroke-linecap:square;stroke-width:1.5;"/>
    <g/>
   </g>
   <g id="line2d_48">
    <path clip-path="url(#p6b1723390b)" d="M 181.957749 233.634926 
" style="fill:none;stroke:#ff7500;stroke-linecap:square;stroke-width:1.5;"/>
    <defs>
     <path d="M -12 12 
L 12 -12 
M -12 -12 
L 12 12 
" id="m49908d88ea" style="stroke:#ff7500;"/>
    </defs>
    <g clip-path="url(#p6b1723390b)">
     <use style="fill:#ff7500;stroke:#ff7500;" x="181.957749" xlink:href="#m49908d88ea" y="233.634926"/>
    </g>
   </g>
   <g id="line2d_49">
    <path d="M 338.688 209.407366 
L 369.60768 293.571802 
" style="fill:none;stroke:#ff7500;stroke-linecap:square;stroke-width:1.5;"/>
    <g>
     <use style="fill-opacity:0;stroke:#ff7500;stroke-linejoin:bevel;stroke-width:1.5;" x="338.688" xlink:href="#m0870e35a40" y="209.407366"/>
     <use style="fill-opacity:0;stroke:#ff7500;stroke-linejoin:bevel;stroke-width:1.5;" x="369.60768" xlink:href="#m0870e35a40" y="293.571802"/>
    </g>
   </g>
   <g id="line2d_50">
    <path d="M 338.688 109.337011 
L 369.60768 207.616634 
" style="fill:none;stroke:#ff00ff;stroke-linecap:square;stroke-width:1.5;"/>
    <g>
     <use style="fill-opacity:0;stroke:#ff00ff;stroke-linejoin:miter;stroke-width:1.5;" x="338.688" xlink:href="#m83c6a7df53" y="109.337011"/>
     <use style="fill-opacity:0;stroke:#ff00ff;stroke-linejoin:miter;stroke-width:1.5;" x="369.60768" xlink:href="#m83c6a7df53" y="207.616634"/>
    </g>
   </g>
   <g id="line2d_51">
    <path d="M 338.688 40.867821 
L 369.60768 121.661465 
" style="fill:none;stroke:#000080;stroke-linecap:square;stroke-width:1.5;"/>
    <g>
     <use style="fill-opacity:0;stroke:#000080;stroke-width:1.5;" x="338.688" xlink:href="#m9f61665642" y="40.867821"/>
     <use style="fill-opacity:0;stroke:#000080;stroke-width:1.5;" x="369.60768" xlink:href="#m9f61665642" y="121.661465"/>
    </g>
   </g>
   <g id="line2d_52">
    <path d="M 338.688 298.944 
L 338.688 30.334099 
" style="fill:none;stroke:#000000;stroke-linecap:square;stroke-width:1.5;"/>
   </g>
   <g id="patch_3">
    <path d="M 57.6 298.944 
L 57.6 27.648 
" style="fill:none;stroke:#000000;stroke-linecap:square;stroke-linejoin:miter;stroke-width:0.8;"/>
   </g>
   <g id="patch_4">
    <path d="M 338.688 298.944 
L 338.688 27.648 
" style="fill:none;stroke:#000000;stroke-linecap:square;stroke-linejoin:miter;stroke-width:0.8;"/>
   </g>
   <g id="patch_5">
    <path d="M 57.6 298.944 
L 338.688 298.944 
" style="fill:none;stroke:#000000;stroke-linecap:square;stroke-linejoin:miter;stroke-width:0.8;"/>
   </g>
   <g id="patch_6">
    <path d="M 57.6 27.648 
L 338.688 27.648 
" style="fill:none;stroke:#000000;stroke-linecap:square;stroke-linejoin:miter;stroke-width:0.8;"/>
   </g>
   <g id="text_13">
    <!-- PSO EDA -->
    <g transform="translate(375.22944 298.262739)scale(0.17 -0.17)">
     <defs>
      <path d="M 1259 4147 
L 1259 2394 
L 2053 2394 
Q 2494 2394 2734 2622 
Q 2975 2850 2975 3272 
Q 2975 3691 2734 3919 
Q 2494 4147 2053 4147 
L 1259 4147 
z
M 628 4666 
L 2053 4666 
Q 2838 4666 3239 4311 
Q 3641 3956 3641 3272 
Q 3641 2581 3239 2228 
Q 2838 1875 2053 1875 
L 1259 1875 
L 1259 0 
L 628 0 
L 628 4666 
z
" id="DejaVuSans-50" transform="scale(0.015625)"/>
      <path d="M 3425 4513 
L 3425 3897 
Q 3066 4069 2747 4153 
Q 2428 4238 2131 4238 
Q 1616 4238 1336 4038 
Q 1056 3838 1056 3469 
Q 1056 3159 1242 3001 
Q 1428 2844 1947 2747 
L 2328 2669 
Q 3034 2534 3370 2195 
Q 3706 1856 3706 1288 
Q 3706 609 3251 259 
Q 2797 -91 1919 -91 
Q 1588 -91 1214 -16 
Q 841 59 441 206 
L 441 856 
Q 825 641 1194 531 
Q 1563 422 1919 422 
Q 2459 422 2753 634 
Q 3047 847 3047 1241 
Q 3047 1584 2836 1778 
Q 2625 1972 2144 2069 
L 1759 2144 
Q 1053 2284 737 2584 
Q 422 2884 422 3419 
Q 422 4038 858 4394 
Q 1294 4750 2059 4750 
Q 2388 4750 2728 4690 
Q 3069 4631 3425 4513 
z
" id="DejaVuSans-53" transform="scale(0.015625)"/>
      <path d="M 2522 4238 
Q 1834 4238 1429 3725 
Q 1025 3213 1025 2328 
Q 1025 1447 1429 934 
Q 1834 422 2522 422 
Q 3209 422 3611 934 
Q 4013 1447 4013 2328 
Q 4013 3213 3611 3725 
Q 3209 4238 2522 4238 
z
M 2522 4750 
Q 3503 4750 4090 4092 
Q 4678 3434 4678 2328 
Q 4678 1225 4090 567 
Q 3503 -91 2522 -91 
Q 1538 -91 948 565 
Q 359 1222 359 2328 
Q 359 3434 948 4092 
Q 1538 4750 2522 4750 
z
" id="DejaVuSans-4f" transform="scale(0.015625)"/>
      <path d="M 628 4666 
L 3578 4666 
L 3578 4134 
L 1259 4134 
L 1259 2753 
L 3481 2753 
L 3481 2222 
L 1259 2222 
L 1259 531 
L 3634 531 
L 3634 0 
L 628 0 
L 628 4666 
z
" id="DejaVuSans-45" transform="scale(0.015625)"/>
      <path d="M 1259 4147 
L 1259 519 
L 2022 519 
Q 2988 519 3436 956 
Q 3884 1394 3884 2338 
Q 3884 3275 3436 3711 
Q 2988 4147 2022 4147 
L 1259 4147 
z
M 628 4666 
L 1925 4666 
Q 3281 4666 3915 4102 
Q 4550 3538 4550 2338 
Q 4550 1131 3912 565 
Q 3275 0 1925 0 
L 628 0 
L 628 4666 
z
" id="DejaVuSans-44" transform="scale(0.015625)"/>
      <path d="M 2188 4044 
L 1331 1722 
L 3047 1722 
L 2188 4044 
z
M 1831 4666 
L 2547 4666 
L 4325 0 
L 3669 0 
L 3244 1197 
L 1141 1197 
L 716 0 
L 50 0 
L 1831 4666 
z
" id="DejaVuSans-41" transform="scale(0.015625)"/>
     </defs>
     <use xlink:href="#DejaVuSans-50"/>
     <use x="60.302734" xlink:href="#DejaVuSans-53"/>
     <use x="123.779297" xlink:href="#DejaVuSans-4f"/>
     <use x="202.490234" xlink:href="#DejaVuSans-20"/>
     <use x="234.277344" xlink:href="#DejaVuSans-45"/>
     <use x="297.460938" xlink:href="#DejaVuSans-44"/>
     <use x="372.712891" xlink:href="#DejaVuSans-41"/>
    </g>
   </g>
   <g id="text_14">
    <!-- PSO Bound -->
    <g transform="translate(375.22944 212.307571)scale(0.17 -0.17)">
     <defs>
      <path d="M 1259 2228 
L 1259 519 
L 2272 519 
Q 2781 519 3026 730 
Q 3272 941 3272 1375 
Q 3272 1813 3026 2020 
Q 2781 2228 2272 2228 
L 1259 2228 
z
M 1259 4147 
L 1259 2741 
L 2194 2741 
Q 2656 2741 2882 2914 
Q 3109 3088 3109 3444 
Q 3109 3797 2882 3972 
Q 2656 4147 2194 4147 
L 1259 4147 
z
M 628 4666 
L 2241 4666 
Q 2963 4666 3353 4366 
Q 3744 4066 3744 3513 
Q 3744 3084 3544 2831 
Q 3344 2578 2956 2516 
Q 3422 2416 3680 2098 
Q 3938 1781 3938 1306 
Q 3938 681 3513 340 
Q 3088 0 2303 0 
L 628 0 
L 628 4666 
z
" id="DejaVuSans-42" transform="scale(0.015625)"/>
     </defs>
     <use xlink:href="#DejaVuSans-50"/>
     <use x="60.302734" xlink:href="#DejaVuSans-53"/>
     <use x="123.779297" xlink:href="#DejaVuSans-4f"/>
     <use x="202.490234" xlink:href="#DejaVuSans-20"/>
     <use x="234.277344" xlink:href="#DejaVuSans-42"/>
     <use x="302.880859" xlink:href="#DejaVuSans-6f"/>
     <use x="364.0625" xlink:href="#DejaVuSans-75"/>
     <use x="427.441406" xlink:href="#DejaVuSans-6e"/>
     <use x="490.820312" xlink:href="#DejaVuSans-64"/>
    </g>
   </g>
   <g id="text_15">
    <!-- PSO -->
    <g transform="translate(375.22944 126.352403)scale(0.17 -0.17)">
     <use xlink:href="#DejaVuSans-50"/>
     <use x="60.302734" xlink:href="#DejaVuSans-53"/>
     <use x="123.779297" xlink:href="#DejaVuSans-4f"/>
    </g>
   </g>
   <g id="text_16">
    <!-- best 2009 -->
    <g transform="translate(375.22944 40.397235)scale(0.17 -0.17)">
     <defs>
      <path d="M 3116 1747 
Q 3116 2381 2855 2742 
Q 2594 3103 2138 3103 
Q 1681 3103 1420 2742 
Q 1159 2381 1159 1747 
Q 1159 1113 1420 752 
Q 1681 391 2138 391 
Q 2594 391 2855 752 
Q 3116 1113 3116 1747 
z
M 1159 2969 
Q 1341 3281 1617 3432 
Q 1894 3584 2278 3584 
Q 2916 3584 3314 3078 
Q 3713 2572 3713 1747 
Q 3713 922 3314 415 
Q 2916 -91 2278 -91 
Q 1894 -91 1617 61 
Q 1341 213 1159 525 
L 1159 0 
L 581 0 
L 581 4863 
L 1159 4863 
L 1159 2969 
z
" id="DejaVuSans-62" transform="scale(0.015625)"/>
      <path d="M 703 97 
L 703 672 
Q 941 559 1184 500 
Q 1428 441 1663 441 
Q 2288 441 2617 861 
Q 2947 1281 2994 2138 
Q 2813 1869 2534 1725 
Q 2256 1581 1919 1581 
Q 1219 1581 811 2004 
Q 403 2428 403 3163 
Q 403 3881 828 4315 
Q 1253 4750 1959 4750 
Q 2769 4750 3195 4129 
Q 3622 3509 3622 2328 
Q 3622 1225 3098 567 
Q 2575 -91 1691 -91 
Q 1453 -91 1209 -44 
Q 966 3 703 97 
z
M 1959 2075 
Q 2384 2075 2632 2365 
Q 2881 2656 2881 3163 
Q 2881 3666 2632 3958 
Q 2384 4250 1959 4250 
Q 1534 4250 1286 3958 
Q 1038 3666 1038 3163 
Q 1038 2656 1286 2365 
Q 1534 2075 1959 2075 
z
" id="DejaVuSans-39" transform="scale(0.015625)"/>
     </defs>
     <use xlink:href="#DejaVuSans-62"/>
     <use x="63.476562" xlink:href="#DejaVuSans-65"/>
     <use x="125" xlink:href="#DejaVuSans-73"/>
     <use x="177.099609" xlink:href="#DejaVuSans-74"/>
     <use x="216.308594" xlink:href="#DejaVuSans-20"/>
     <use x="248.095703" xlink:href="#DejaVuSans-32"/>
     <use x="311.71875" xlink:href="#DejaVuSans-30"/>
     <use x="375.341797" xlink:href="#DejaVuSans-30"/>
     <use x="438.964844" xlink:href="#DejaVuSans-39"/>
    </g>
   </g>
   <g id="text_17">
    <!-- bbob f1, 40-D -->
    <g transform="translate(60.41088 38.111366)scale(0.102 -0.102)">
     <use xlink:href="#DejaVuSans-62"/>
     <use x="63.476562" xlink:href="#DejaVuSans-62"/>
     <use x="126.953125" xlink:href="#DejaVuSans-6f"/>
     <use x="188.134766" xlink:href="#DejaVuSans-62"/>
     <use x="251.611328" xlink:href="#DejaVuSans-20"/>
     <use x="283.398438" xlink:href="#DejaVuSans-66"/>
     <use x="318.603516" xlink:href="#DejaVuSans-31"/>
     <use x="382.226562" xlink:href="#DejaVuSans-2c"/>
     <use x="414.013672" xlink:href="#DejaVuSans-20"/>
     <use x="445.800781" xlink:href="#DejaVuSans-34"/>
     <use x="509.423828" xlink:href="#DejaVuSans-30"/>
     <use x="573.046875" xlink:href="#DejaVuSans-2d"/>
     <use x="609.130859" xlink:href="#DejaVuSans-44"/>
    </g>
    <!-- 51 targets: 100..1e-08 -->
    <g transform="translate(60.41088 49.533135)scale(0.102 -0.102)">
     <defs>
      <path d="M 691 4666 
L 3169 4666 
L 3169 4134 
L 1269 4134 
L 1269 2991 
Q 1406 3038 1543 3061 
Q 1681 3084 1819 3084 
Q 2600 3084 3056 2656 
Q 3513 2228 3513 1497 
Q 3513 744 3044 326 
Q 2575 -91 1722 -91 
Q 1428 -91 1123 -41 
Q 819 9 494 109 
L 494 744 
Q 775 591 1075 516 
Q 1375 441 1709 441 
Q 2250 441 2565 725 
Q 2881 1009 2881 1497 
Q 2881 1984 2565 2268 
Q 2250 2553 1709 2553 
Q 1456 2553 1204 2497 
Q 953 2441 691 2322 
L 691 4666 
z
" id="DejaVuSans-35" transform="scale(0.015625)"/>
      <path d="M 750 794 
L 1409 794 
L 1409 0 
L 750 0 
L 750 794 
z
M 750 3309 
L 1409 3309 
L 1409 2516 
L 750 2516 
L 750 3309 
z
" id="DejaVuSans-3a" transform="scale(0.015625)"/>
     </defs>
     <use xlink:href="#DejaVuSans-35"/>
     <use x="63.623047" xlink:href="#DejaVuSans-31"/>
     <use x="127.246094" xlink:href="#DejaVuSans-20"/>
     <use x="159.033203" xlink:href="#DejaVuSans-74"/>
     <use x="198.242188" xlink:href="#DejaVuSans-61"/>
     <use x="259.521484" xlink:href="#DejaVuSans-72"/>
     <use x="298.884766" xlink:href="#DejaVuSans-67"/>
     <use x="362.361328" xlink:href="#DejaVuSans-65"/>
     <use x="423.884766" xlink:href="#DejaVuSans-74"/>
     <use x="463.09375" xlink:href="#DejaVuSans-73"/>
     <use x="515.193359" xlink:href="#DejaVuSans-3a"/>
     <use x="548.884766" xlink:href="#DejaVuSans-20"/>
     <use x="580.671875" xlink:href="#DejaVuSans-31"/>
     <use x="644.294922" xlink:href="#DejaVuSans-30"/>
     <use x="707.917969" xlink:href="#DejaVuSans-30"/>
     <use x="771.541016" xlink:href="#DejaVuSans-2e"/>
     <use x="803.328125" xlink:href="#DejaVuSans-2e"/>
     <use x="835.115234" xlink:href="#DejaVuSans-31"/>
     <use x="898.738281" xlink:href="#DejaVuSans-65"/>
     <use x="960.261719" xlink:href="#DejaVuSans-2d"/>
     <use x="996.345703" xlink:href="#DejaVuSans-30"/>
     <use x="1059.96875" xlink:href="#DejaVuSans-38"/>
    </g>
    <!-- 15 instances -->
    <g transform="translate(60.41088 60.954904)scale(0.102 -0.102)">
     <use xlink:href="#DejaVuSans-31"/>
     <use x="63.623047" xlink:href="#DejaVuSans-35"/>
     <use x="127.246094" xlink:href="#DejaVuSans-20"/>
     <use x="159.033203" xlink:href="#DejaVuSans-69"/>
     <use x="186.816406" xlink:href="#DejaVuSans-6e"/>
     <use x="250.195312" xlink:href="#DejaVuSans-73"/>
     <use x="302.294922" xlink:href="#DejaVuSans-74"/>
     <use x="341.503906" xlink:href="#DejaVuSans-61"/>
     <use x="402.783203" xlink:href="#DejaVuSans-6e"/>
     <use x="466.162109" xlink:href="#DejaVuSans-63"/>
     <use x="521.142578" xlink:href="#DejaVuSans-65"/>
     <use x="582.666016" xlink:href="#DejaVuSans-73"/>
    </g>
   </g>
   <g id="text_18">
    <!-- v2.4 -->
    <g style="fill:#808080;" transform="translate(187.233062 294.151352)scale(0.1 -0.1)">
     <use xlink:href="#DejaVuSans-76"/>
     <use x="59.179688" xlink:href="#DejaVuSans-32"/>
     <use x="122.802734" xlink:href="#DejaVuSans-2e"/>
     <use x="154.589844" xlink:href="#DejaVuSans-34"/>
    </g>
   </g>
   <g id="text_19">
    <!-- 1 Sphere -->
    <g transform="translate(153.376812 21.648)scale(0.2 -0.2)">
     <defs>
      <path d="M 3513 2113 
L 3513 0 
L 2938 0 
L 2938 2094 
Q 2938 2591 2744 2837 
Q 2550 3084 2163 3084 
Q 1697 3084 1428 2787 
Q 1159 2491 1159 1978 
L 1159 0 
L 581 0 
L 581 4863 
L 1159 4863 
L 1159 2956 
Q 1366 3272 1645 3428 
Q 1925 3584 2291 3584 
Q 2894 3584 3203 3211 
Q 3513 2838 3513 2113 
z
" id="DejaVuSans-68" transform="scale(0.015625)"/>
     </defs>
     <use xlink:href="#DejaVuSans-31"/>
     <use x="63.623047" xlink:href="#DejaVuSans-20"/>
     <use x="95.410156" xlink:href="#DejaVuSans-53"/>
     <use x="158.886719" xlink:href="#DejaVuSans-70"/>
     <use x="222.363281" xlink:href="#DejaVuSans-68"/>
     <use x="285.742188" xlink:href="#DejaVuSans-65"/>
     <use x="347.265625" xlink:href="#DejaVuSans-72"/>
     <use x="386.128906" xlink:href="#DejaVuSans-65"/>
    </g>
   </g>
  </g>
 </g>
 <defs>
  <clipPath id="p6b1723390b">
   <rect height="271.296" width="281.088" x="57.6" y="27.648"/>
  </clipPath>
 </defs>
</svg>
