<?xml version="1.0" encoding="utf-8" standalone="no"?>
<!DOCTYPE svg PUBLIC "-//W3C//DTD SVG 1.1//EN"
  "http://www.w3.org/Graphics/SVG/1.1/DTD/svg11.dtd">
<svg height="345.6pt" version="1.1" viewBox="0 0 460.8 345.6" width="460.8pt" xmlns="http://www.w3.org/2000/svg" xmlns:xlink="http://www.w3.org/1999/xlink">
 <metadata>
  <rdf:RDF xmlns:cc="http://creativecommons.org/ns#" xmlns:dc="http://purl.org/dc/elements/1.1/" xmlns:rdf="http://www.w3.org/1999/02/22-rdf-syntax-ns#">
   <cc:Work>
    <dc:type rdf:resource="http://purl.org/dc/dcmitype/StillImage"/>
    <dc:date>2021-04-26T18:31:41.813184</dc:date>
    <dc:format>image/svg+xml</dc:format>
    <dc:creator>
     <cc:Agent>
      <dc:title>Matplotlib v3.4.1, https://matplotlib.org/</dc:title>
     </cc:Agent>
    </dc:creator>
   </cc:Work>
  </rdf:RDF>
 </metadata>
 <defs>
  <style type="text/css">*{stroke-linecap:butt;stroke-linejoin:round;}</style>
 </defs>
 <g id="figure_1">
  <g id="patch_1">
   <path d="M 0 345.6 
L 460.8 345.6 
L 460.8 0 
L 0 0 
z
" style="fill:#ffffff;"/>
  </g>
  <g id="axes_1">
   <g id="patch_2">
    <path d="M 57.6 298.944 
L 338.688 298.944 
L 338.688 27.648 
L 57.6 27.648 
z
" style="fill:#ffffff;"/>
   </g>
   <g id="line2d_1">
    <path d="M 97.403108 298.944 
L 97.403108 293.677139 
L 103.498249 293.677139 
L 103.498249 288.410278 
L 135.158519 288.410278 
L 135.158519 283.143418 
L 144.282077 283.143418 
L 144.282077 277.876557 
L 147.759612 277.876557 
L 147.759612 272.609696 
L 151.928441 272.609696 
L 151.928441 267.342835 
L 154.873541 267.342835 
L 154.873541 262.075974 
L 157.613546 262.075974 
L 157.613546 256.809114 
L 160.321935 256.809114 
L 160.321935 251.542253 
L 160.326759 251.542253 
L 160.326759 246.275392 
L 160.37492 246.275392 
L 160.37492 241.008531 
L 160.509069 241.008531 
L 160.509069 235.74167 
L 160.518612 235.74167 
L 160.518612 230.47481 
L 160.528149 230.47481 
L 160.528149 225.207949 
L 160.537682 225.207949 
L 160.537682 214.674227 
L 160.55197 214.674227 
L 160.55197 209.407366 
L 160.613753 209.407366 
L 160.613753 204.140506 
L 160.670589 204.140506 
L 160.670589 198.873645 
L 160.694216 198.873645 
L 160.694216 193.606784 
L 160.703658 193.606784 
L 160.703658 188.339923 
L 160.736665 188.339923 
L 160.736665 177.806202 
L 160.741375 177.806202 
L 160.741375 172.539341 
L 160.760203 172.539341 
L 160.760203 162.005619 
L 160.886762 162.005619 
L 160.886762 146.205037 
L 160.891432 146.205037 
L 160.891432 130.404454 
L 160.900768 130.404454 
L 160.900768 119.870733 
L 160.905434 119.870733 
L 160.905434 114.603872 
L 160.933404 114.603872 
L 160.933404 109.337011 
L 160.993852 109.337011 
L 160.993852 104.07015 
L 160.998493 104.07015 
L 160.998493 98.803289 
L 161.044837 98.803289 
L 161.044837 93.536429 
L 161.058716 93.536429 
L 161.058716 83.002707 
L 161.067963 83.002707 
L 161.067963 77.735846 
L 161.072584 77.735846 
L 161.072584 72.468985 
L 196.492788 72.468985 
L 196.492788 61.935264 
L 196.493394 61.935264 
L 196.493394 56.668403 
L 196.494 56.668403 
L 196.494 46.134681 
L 196.494606 46.134681 
L 196.494606 40.867821 
L 196.495213 40.867821 
L 196.495213 30.334099 
L 338.688 30.334099 
" style="fill:none;stroke:#f5deb3;stroke-linecap:square;stroke-width:4;"/>
   </g>
   <g id="line2d_2">
    <defs>
     <path d="M 0 7.778175 
L 7.778175 0 
L 0 -7.778175 
L -7.778175 0 
z
" id="m4d7d2986ed" style="stroke:#f5deb3;stroke-linejoin:miter;stroke-width:1.5;"/>
    </defs>
    <g>
     <use style="fill:#f5deb3;stroke:#f5deb3;stroke-linejoin:miter;stroke-width:1.5;" x="160.55197" xlink:href="#m4d7d2986ed" y="214.674227"/>
     <use style="fill:#f5deb3;stroke:#f5deb3;stroke-linejoin:miter;stroke-width:1.5;" x="161.072584" xlink:href="#m4d7d2986ed" y="72.468985"/>
     <use style="fill:#f5deb3;stroke:#f5deb3;stroke-linejoin:miter;stroke-width:1.5;" x="196.495213" xlink:href="#m4d7d2986ed" y="40.867821"/>
     <use style="fill:#f5deb3;stroke:#f5deb3;stroke-linejoin:miter;stroke-width:1.5;" x="196.495213" xlink:href="#m4d7d2986ed" y="30.334099"/>
     <use style="fill:#f5deb3;stroke:#f5deb3;stroke-linejoin:miter;stroke-width:1.5;" x="338.688" xlink:href="#m4d7d2986ed" y="30.334099"/>
    </g>
   </g>
   <g id="line2d_3">
    <path style="fill:none;stroke:#f5deb3;stroke-linecap:square;stroke-width:4;"/>
    <g/>
   </g>
   <g id="line2d_4">
    <path d="M 338.688 30.334099 
L 369.60768 35.706297 
" style="fill:none;stroke:#f5deb3;stroke-linecap:square;stroke-width:4;"/>
    <g>
     <use style="fill:#f5deb3;stroke:#f5deb3;stroke-linejoin:miter;stroke-width:1.5;" x="338.688" xlink:href="#m4d7d2986ed" y="30.334099"/>
     <use style="fill:#f5deb3;stroke:#f5deb3;stroke-linejoin:miter;stroke-width:1.5;" x="369.60768" xlink:href="#m4d7d2986ed" y="35.706297"/>
    </g>
   </g>
   <g id="matplotlib.axis_1">
    <g id="xtick_1">
     <g id="line2d_5">
      <path clip-path="url(#pd8ef9243be)" d="M 57.6 298.944 
L 57.6 27.648 
" style="fill:none;stroke:#b0b0b0;stroke-linecap:square;stroke-width:0.8;"/>
     </g>
     <g id="line2d_6">
      <defs>
       <path d="M 0 0 
L 0 3.5 
" id="m7631322c3b" style="stroke:#000000;stroke-width:0.8;"/>
      </defs>
      <g>
       <use style="stroke:#000000;stroke-width:0.8;" x="57.6" xlink:href="#m7631322c3b" y="298.944"/>
      </g>
     </g>
     <g id="text_1">
      <!-- 0 -->
      <g transform="translate(51.2375 321.140875)scale(0.2 -0.2)">
       <defs>
        <path d="M 2034 4250 
Q 1547 4250 1301 3770 
Q 1056 3291 1056 2328 
Q 1056 1369 1301 889 
Q 1547 409 2034 409 
Q 2525 409 2770 889 
Q 3016 1369 3016 2328 
Q 3016 3291 2770 3770 
Q 2525 4250 2034 4250 
z
M 2034 4750 
Q 2819 4750 3233 4129 
Q 3647 3509 3647 2328 
Q 3647 1150 3233 529 
Q 2819 -91 2034 -91 
Q 1250 -91 836 529 
Q 422 1150 422 2328 
Q 422 3509 836 4129 
Q 1250 4750 2034 4750 
z
" id="DejaVuSans-30" transform="scale(0.015625)"/>
       </defs>
       <use xlink:href="#DejaVuSans-30"/>
      </g>
     </g>
    </g>
    <g id="xtick_2">
     <g id="line2d_7">
      <path clip-path="url(#pd8ef9243be)" d="M 137.910857 298.944 
L 137.910857 27.648 
" style="fill:none;stroke:#b0b0b0;stroke-linecap:square;stroke-width:0.8;"/>
     </g>
     <g id="line2d_8">
      <g>
       <use style="stroke:#000000;stroke-width:0.8;" x="137.910857" xlink:href="#m7631322c3b" y="298.944"/>
      </g>
     </g>
     <g id="text_2">
      <!-- 2 -->
      <g transform="translate(131.548357 321.140875)scale(0.2 -0.2)">
       <defs>
        <path d="M 1228 531 
L 3431 531 
L 3431 0 
L 469 0 
L 469 531 
Q 828 903 1448 1529 
Q 2069 2156 2228 2338 
Q 2531 2678 2651 2914 
Q 2772 3150 2772 3378 
Q 2772 3750 2511 3984 
Q 2250 4219 1831 4219 
Q 1534 4219 1204 4116 
Q 875 4013 500 3803 
L 500 4441 
Q 881 4594 1212 4672 
Q 1544 4750 1819 4750 
Q 2544 4750 2975 4387 
Q 3406 4025 3406 3419 
Q 3406 3131 3298 2873 
Q 3191 2616 2906 2266 
Q 2828 2175 2409 1742 
Q 1991 1309 1228 531 
z
" id="DejaVuSans-32" transform="scale(0.015625)"/>
       </defs>
       <use xlink:href="#DejaVuSans-32"/>
      </g>
     </g>
    </g>
    <g id="xtick_3">
     <g id="line2d_9">
      <path clip-path="url(#pd8ef9243be)" d="M 218.221714 298.944 
L 218.221714 27.648 
" style="fill:none;stroke:#b0b0b0;stroke-linecap:square;stroke-width:0.8;"/>
     </g>
     <g id="line2d_10">
      <g>
       <use style="stroke:#000000;stroke-width:0.8;" x="218.221714" xlink:href="#m7631322c3b" y="298.944"/>
      </g>
     </g>
     <g id="text_3">
      <!-- 4 -->
      <g transform="translate(211.859214 321.140875)scale(0.2 -0.2)">
       <defs>
        <path d="M 2419 4116 
L 825 1625 
L 2419 1625 
L 2419 4116 
z
M 2253 4666 
L 3047 4666 
L 3047 1625 
L 3713 1625 
L 3713 1100 
L 3047 1100 
L 3047 0 
L 2419 0 
L 2419 1100 
L 313 1100 
L 313 1709 
L 2253 4666 
z
" id="DejaVuSans-34" transform="scale(0.015625)"/>
       </defs>
       <use xlink:href="#DejaVuSans-34"/>
      </g>
     </g>
    </g>
    <g id="xtick_4">
     <g id="line2d_11">
      <path clip-path="url(#pd8ef9243be)" d="M 298.532571 298.944 
L 298.532571 27.648 
" style="fill:none;stroke:#b0b0b0;stroke-linecap:square;stroke-width:0.8;"/>
     </g>
     <g id="line2d_12">
      <g>
       <use style="stroke:#000000;stroke-width:0.8;" x="298.532571" xlink:href="#m7631322c3b" y="298.944"/>
      </g>
     </g>
     <g id="text_4">
      <!-- 6 -->
      <g transform="translate(292.170071 321.140875)scale(0.2 -0.2)">
       <defs>
        <path d="M 2113 2584 
Q 1688 2584 1439 2293 
Q 1191 2003 1191 1497 
Q 1191 994 1439 701 
Q 1688 409 2113 409 
Q 2538 409 2786 701 
Q 3034 994 3034 1497 
Q 3034 2003 2786 2293 
Q 2538 2584 2113 2584 
z
M 3366 4563 
L 3366 3988 
Q 3128 4100 2886 4159 
Q 2644 4219 2406 4219 
Q 1781 4219 1451 3797 
Q 1122 3375 1075 2522 
Q 1259 2794 1537 2939 
Q 1816 3084 2150 3084 
Q 2853 3084 3261 2657 
Q 3669 2231 3669 1497 
Q 3669 778 3244 343 
Q 2819 -91 2113 -91 
Q 1303 -91 875 529 
Q 447 1150 447 2328 
Q 447 3434 972 4092 
Q 1497 4750 2381 4750 
Q 2619 4750 2861 4703 
Q 3103 4656 3366 4563 
z
" id="DejaVuSans-36" transform="scale(0.015625)"/>
       </defs>
       <use xlink:href="#DejaVuSans-36"/>
      </g>
     </g>
    </g>
    <g id="xtick_5">
     <g id="line2d_13">
      <path clip-path="url(#pd8ef9243be)" d="M 97.755429 298.944 
L 97.755429 27.648 
" style="fill:none;stroke:#b0b0b0;stroke-linecap:square;stroke-width:0.8;"/>
     </g>
     <g id="line2d_14">
      <defs>
       <path d="M 0 0 
L 0 2 
" id="m05abd73389" style="stroke:#000000;stroke-width:0.6;"/>
      </defs>
      <g>
       <use style="stroke:#000000;stroke-width:0.6;" x="97.755429" xlink:href="#m05abd73389" y="298.944"/>
      </g>
     </g>
    </g>
    <g id="xtick_6">
     <g id="line2d_15">
      <path clip-path="url(#pd8ef9243be)" d="M 178.066286 298.944 
L 178.066286 27.648 
" style="fill:none;stroke:#b0b0b0;stroke-linecap:square;stroke-width:0.8;"/>
     </g>
     <g id="line2d_16">
      <g>
       <use style="stroke:#000000;stroke-width:0.6;" x="178.066286" xlink:href="#m05abd73389" y="298.944"/>
      </g>
     </g>
    </g>
    <g id="xtick_7">
     <g id="line2d_17">
      <path clip-path="url(#pd8ef9243be)" d="M 258.377143 298.944 
L 258.377143 27.648 
" style="fill:none;stroke:#b0b0b0;stroke-linecap:square;stroke-width:0.8;"/>
     </g>
     <g id="line2d_18">
      <g>
       <use style="stroke:#000000;stroke-width:0.6;" x="258.377143" xlink:href="#m05abd73389" y="298.944"/>
      </g>
     </g>
    </g>
    <g id="xtick_8">
     <g id="line2d_19">
      <path clip-path="url(#pd8ef9243be)" d="M 338.688 298.944 
L 338.688 27.648 
" style="fill:none;stroke:#b0b0b0;stroke-linecap:square;stroke-width:0.8;"/>
     </g>
     <g id="line2d_20">
      <g>
       <use style="stroke:#000000;stroke-width:0.6;" x="338.688" xlink:href="#m05abd73389" y="298.944"/>
      </g>
     </g>
    </g>
    <g id="text_5">
     <!-- log10(# f-evals / dimension) -->
     <g transform="translate(77.764078 342.217594)scale(0.17 -0.17)">
      <defs>
       <path d="M 603 4863 
L 1178 4863 
L 1178 0 
L 603 0 
L 603 4863 
z
" id="DejaVuSans-6c" transform="scale(0.015625)"/>
       <path d="M 1959 3097 
Q 1497 3097 1228 2736 
Q 959 2375 959 1747 
Q 959 1119 1226 758 
Q 1494 397 1959 397 
Q 2419 397 2687 759 
Q 2956 1122 2956 1747 
Q 2956 2369 2687 2733 
Q 2419 3097 1959 3097 
z
M 1959 3584 
Q 2709 3584 3137 3096 
Q 3566 2609 3566 1747 
Q 3566 888 3137 398 
Q 2709 -91 1959 -91 
Q 1206 -91 779 398 
Q 353 888 353 1747 
Q 353 2609 779 3096 
Q 1206 3584 1959 3584 
z
" id="DejaVuSans-6f" transform="scale(0.015625)"/>
       <path d="M 2906 1791 
Q 2906 2416 2648 2759 
Q 2391 3103 1925 3103 
Q 1463 3103 1205 2759 
Q 947 2416 947 1791 
Q 947 1169 1205 825 
Q 1463 481 1925 481 
Q 2391 481 2648 825 
Q 2906 1169 2906 1791 
z
M 3481 434 
Q 3481 -459 3084 -895 
Q 2688 -1331 1869 -1331 
Q 1566 -1331 1297 -1286 
Q 1028 -1241 775 -1147 
L 775 -588 
Q 1028 -725 1275 -790 
Q 1522 -856 1778 -856 
Q 2344 -856 2625 -561 
Q 2906 -266 2906 331 
L 2906 616 
Q 2728 306 2450 153 
Q 2172 0 1784 0 
Q 1141 0 747 490 
Q 353 981 353 1791 
Q 353 2603 747 3093 
Q 1141 3584 1784 3584 
Q 2172 3584 2450 3431 
Q 2728 3278 2906 2969 
L 2906 3500 
L 3481 3500 
L 3481 434 
z
" id="DejaVuSans-67" transform="scale(0.015625)"/>
       <path d="M 794 531 
L 1825 531 
L 1825 4091 
L 703 3866 
L 703 4441 
L 1819 4666 
L 2450 4666 
L 2450 531 
L 3481 531 
L 3481 0 
L 794 0 
L 794 531 
z
" id="DejaVuSans-31" transform="scale(0.015625)"/>
       <path d="M 1984 4856 
Q 1566 4138 1362 3434 
Q 1159 2731 1159 2009 
Q 1159 1288 1364 580 
Q 1569 -128 1984 -844 
L 1484 -844 
Q 1016 -109 783 600 
Q 550 1309 550 2009 
Q 550 2706 781 3412 
Q 1013 4119 1484 4856 
L 1984 4856 
z
" id="DejaVuSans-28" transform="scale(0.015625)"/>
       <path d="M 3272 2816 
L 2363 2816 
L 2100 1772 
L 3016 1772 
L 3272 2816 
z
M 2803 4594 
L 2478 3297 
L 3391 3297 
L 3719 4594 
L 4219 4594 
L 3897 3297 
L 4872 3297 
L 4872 2816 
L 3775 2816 
L 3519 1772 
L 4513 1772 
L 4513 1294 
L 3397 1294 
L 3072 0 
L 2572 0 
L 2894 1294 
L 1978 1294 
L 1656 0 
L 1153 0 
L 1478 1294 
L 494 1294 
L 494 1772 
L 1594 1772 
L 1856 2816 
L 850 2816 
L 850 3297 
L 1978 3297 
L 2297 4594 
L 2803 4594 
z
" id="DejaVuSans-23" transform="scale(0.015625)"/>
       <path id="DejaVuSans-20" transform="scale(0.015625)"/>
       <path d="M 2375 4863 
L 2375 4384 
L 1825 4384 
Q 1516 4384 1395 4259 
Q 1275 4134 1275 3809 
L 1275 3500 
L 2222 3500 
L 2222 3053 
L 1275 3053 
L 1275 0 
L 697 0 
L 697 3053 
L 147 3053 
L 147 3500 
L 697 3500 
L 697 3744 
Q 697 4328 969 4595 
Q 1241 4863 1831 4863 
L 2375 4863 
z
" id="DejaVuSans-66" transform="scale(0.015625)"/>
       <path d="M 313 2009 
L 1997 2009 
L 1997 1497 
L 313 1497 
L 313 2009 
z
" id="DejaVuSans-2d" transform="scale(0.015625)"/>
       <path d="M 3597 1894 
L 3597 1613 
L 953 1613 
Q 991 1019 1311 708 
Q 1631 397 2203 397 
Q 2534 397 2845 478 
Q 3156 559 3463 722 
L 3463 178 
Q 3153 47 2828 -22 
Q 2503 -91 2169 -91 
Q 1331 -91 842 396 
Q 353 884 353 1716 
Q 353 2575 817 3079 
Q 1281 3584 2069 3584 
Q 2775 3584 3186 3129 
Q 3597 2675 3597 1894 
z
M 3022 2063 
Q 3016 2534 2758 2815 
Q 2500 3097 2075 3097 
Q 1594 3097 1305 2825 
Q 1016 2553 972 2059 
L 3022 2063 
z
" id="DejaVuSans-65" transform="scale(0.015625)"/>
       <path d="M 191 3500 
L 800 3500 
L 1894 563 
L 2988 3500 
L 3597 3500 
L 2284 0 
L 1503 0 
L 191 3500 
z
" id="DejaVuSans-76" transform="scale(0.015625)"/>
       <path d="M 2194 1759 
Q 1497 1759 1228 1600 
Q 959 1441 959 1056 
Q 959 750 1161 570 
Q 1363 391 1709 391 
Q 2188 391 2477 730 
Q 2766 1069 2766 1631 
L 2766 1759 
L 2194 1759 
z
M 3341 1997 
L 3341 0 
L 2766 0 
L 2766 531 
Q 2569 213 2275 61 
Q 1981 -91 1556 -91 
Q 1019 -91 701 211 
Q 384 513 384 1019 
Q 384 1609 779 1909 
Q 1175 2209 1959 2209 
L 2766 2209 
L 2766 2266 
Q 2766 2663 2505 2880 
Q 2244 3097 1772 3097 
Q 1472 3097 1187 3025 
Q 903 2953 641 2809 
L 641 3341 
Q 956 3463 1253 3523 
Q 1550 3584 1831 3584 
Q 2591 3584 2966 3190 
Q 3341 2797 3341 1997 
z
" id="DejaVuSans-61" transform="scale(0.015625)"/>
       <path d="M 2834 3397 
L 2834 2853 
Q 2591 2978 2328 3040 
Q 2066 3103 1784 3103 
Q 1356 3103 1142 2972 
Q 928 2841 928 2578 
Q 928 2378 1081 2264 
Q 1234 2150 1697 2047 
L 1894 2003 
Q 2506 1872 2764 1633 
Q 3022 1394 3022 966 
Q 3022 478 2636 193 
Q 2250 -91 1575 -91 
Q 1294 -91 989 -36 
Q 684 19 347 128 
L 347 722 
Q 666 556 975 473 
Q 1284 391 1588 391 
Q 1994 391 2212 530 
Q 2431 669 2431 922 
Q 2431 1156 2273 1281 
Q 2116 1406 1581 1522 
L 1381 1569 
Q 847 1681 609 1914 
Q 372 2147 372 2553 
Q 372 3047 722 3315 
Q 1072 3584 1716 3584 
Q 2034 3584 2315 3537 
Q 2597 3491 2834 3397 
z
" id="DejaVuSans-73" transform="scale(0.015625)"/>
       <path d="M 1625 4666 
L 2156 4666 
L 531 -594 
L 0 -594 
L 1625 4666 
z
" id="DejaVuSans-2f" transform="scale(0.015625)"/>
       <path d="M 2906 2969 
L 2906 4863 
L 3481 4863 
L 3481 0 
L 2906 0 
L 2906 525 
Q 2725 213 2448 61 
Q 2172 -91 1784 -91 
Q 1150 -91 751 415 
Q 353 922 353 1747 
Q 353 2572 751 3078 
Q 1150 3584 1784 3584 
Q 2172 3584 2448 3432 
Q 2725 3281 2906 2969 
z
M 947 1747 
Q 947 1113 1208 752 
Q 1469 391 1925 391 
Q 2381 391 2643 752 
Q 2906 1113 2906 1747 
Q 2906 2381 2643 2742 
Q 2381 3103 1925 3103 
Q 1469 3103 1208 2742 
Q 947 2381 947 1747 
z
" id="DejaVuSans-64" transform="scale(0.015625)"/>
       <path d="M 603 3500 
L 1178 3500 
L 1178 0 
L 603 0 
L 603 3500 
z
M 603 4863 
L 1178 4863 
L 1178 4134 
L 603 4134 
L 603 4863 
z
" id="DejaVuSans-69" transform="scale(0.015625)"/>
       <path d="M 3328 2828 
Q 3544 3216 3844 3400 
Q 4144 3584 4550 3584 
Q 5097 3584 5394 3201 
Q 5691 2819 5691 2113 
L 5691 0 
L 5113 0 
L 5113 2094 
Q 5113 2597 4934 2840 
Q 4756 3084 4391 3084 
Q 3944 3084 3684 2787 
Q 3425 2491 3425 1978 
L 3425 0 
L 2847 0 
L 2847 2094 
Q 2847 2600 2669 2842 
Q 2491 3084 2119 3084 
Q 1678 3084 1418 2786 
Q 1159 2488 1159 1978 
L 1159 0 
L 581 0 
L 581 3500 
L 1159 3500 
L 1159 2956 
Q 1356 3278 1631 3431 
Q 1906 3584 2284 3584 
Q 2666 3584 2933 3390 
Q 3200 3197 3328 2828 
z
" id="DejaVuSans-6d" transform="scale(0.015625)"/>
       <path d="M 3513 2113 
L 3513 0 
L 2938 0 
L 2938 2094 
Q 2938 2591 2744 2837 
Q 2550 3084 2163 3084 
Q 1697 3084 1428 2787 
Q 1159 2491 1159 1978 
L 1159 0 
L 581 0 
L 581 3500 
L 1159 3500 
L 1159 2956 
Q 1366 3272 1645 3428 
Q 1925 3584 2291 3584 
Q 2894 3584 3203 3211 
Q 3513 2838 3513 2113 
z
" id="DejaVuSans-6e" transform="scale(0.015625)"/>
       <path d="M 513 4856 
L 1013 4856 
Q 1481 4119 1714 3412 
Q 1947 2706 1947 2009 
Q 1947 1309 1714 600 
Q 1481 -109 1013 -844 
L 513 -844 
Q 928 -128 1133 580 
Q 1338 1288 1338 2009 
Q 1338 2731 1133 3434 
Q 928 4138 513 4856 
z
" id="DejaVuSans-29" transform="scale(0.015625)"/>
      </defs>
      <use xlink:href="#DejaVuSans-6c"/>
      <use x="27.783203" xlink:href="#DejaVuSans-6f"/>
      <use x="88.964844" xlink:href="#DejaVuSans-67"/>
      <use x="152.441406" xlink:href="#DejaVuSans-31"/>
      <use x="216.064453" xlink:href="#DejaVuSans-30"/>
      <use x="279.6875" xlink:href="#DejaVuSans-28"/>
      <use x="318.701172" xlink:href="#DejaVuSans-23"/>
      <use x="402.490234" xlink:href="#DejaVuSans-20"/>
      <use x="434.277344" xlink:href="#DejaVuSans-66"/>
      <use x="463.982422" xlink:href="#DejaVuSans-2d"/>
      <use x="500.066406" xlink:href="#DejaVuSans-65"/>
      <use x="561.589844" xlink:href="#DejaVuSans-76"/>
      <use x="620.769531" xlink:href="#DejaVuSans-61"/>
      <use x="682.048828" xlink:href="#DejaVuSans-6c"/>
      <use x="709.832031" xlink:href="#DejaVuSans-73"/>
      <use x="761.931641" xlink:href="#DejaVuSans-20"/>
      <use x="793.71875" xlink:href="#DejaVuSans-2f"/>
      <use x="827.410156" xlink:href="#DejaVuSans-20"/>
      <use x="859.197266" xlink:href="#DejaVuSans-64"/>
      <use x="922.673828" xlink:href="#DejaVuSans-69"/>
      <use x="950.457031" xlink:href="#DejaVuSans-6d"/>
      <use x="1047.869141" xlink:href="#DejaVuSans-65"/>
      <use x="1109.392578" xlink:href="#DejaVuSans-6e"/>
      <use x="1172.771484" xlink:href="#DejaVuSans-73"/>
      <use x="1224.871094" xlink:href="#DejaVuSans-69"/>
      <use x="1252.654297" xlink:href="#DejaVuSans-6f"/>
      <use x="1313.835938" xlink:href="#DejaVuSans-6e"/>
      <use x="1377.214844" xlink:href="#DejaVuSans-29"/>
     </g>
    </g>
   </g>
   <g id="matplotlib.axis_2">
    <g id="ytick_1">
     <g id="line2d_21">
      <path clip-path="url(#pd8ef9243be)" d="M 57.6 298.944 
L 338.688 298.944 
" style="fill:none;stroke:#b0b0b0;stroke-linecap:square;stroke-width:0.8;"/>
     </g>
     <g id="line2d_22">
      <defs>
       <path d="M 0 0 
L -3.5 0 
" id="m353eac416a" style="stroke:#000000;stroke-width:0.8;"/>
      </defs>
      <g>
       <use style="stroke:#000000;stroke-width:0.8;" x="57.6" xlink:href="#m353eac416a" y="298.944"/>
      </g>
     </g>
     <g id="text_6">
      <!-- 0.0 -->
      <g transform="translate(25.155 305.02275)scale(0.16 -0.16)">
       <defs>
        <path d="M 684 794 
L 1344 794 
L 1344 0 
L 684 0 
L 684 794 
z
" id="DejaVuSans-2e" transform="scale(0.015625)"/>
       </defs>
       <use xlink:href="#DejaVuSans-30"/>
       <use x="63.623047" xlink:href="#DejaVuSans-2e"/>
       <use x="95.410156" xlink:href="#DejaVuSans-30"/>
      </g>
     </g>
    </g>
    <g id="ytick_2">
     <g id="line2d_23">
      <path clip-path="url(#pd8ef9243be)" d="M 57.6 245.22202 
L 338.688 245.22202 
" style="fill:none;stroke:#b0b0b0;stroke-linecap:square;stroke-width:0.8;"/>
     </g>
     <g id="line2d_24">
      <g>
       <use style="stroke:#000000;stroke-width:0.8;" x="57.6" xlink:href="#m353eac416a" y="245.22202"/>
      </g>
     </g>
     <g id="text_7">
      <!-- 0.2 -->
      <g transform="translate(25.155 251.30077)scale(0.16 -0.16)">
       <use xlink:href="#DejaVuSans-30"/>
       <use x="63.623047" xlink:href="#DejaVuSans-2e"/>
       <use x="95.410156" xlink:href="#DejaVuSans-32"/>
      </g>
     </g>
    </g>
    <g id="ytick_3">
     <g id="line2d_25">
      <path clip-path="url(#pd8ef9243be)" d="M 57.6 191.50004 
L 338.688 191.50004 
" style="fill:none;stroke:#b0b0b0;stroke-linecap:square;stroke-width:0.8;"/>
     </g>
     <g id="line2d_26">
      <g>
       <use style="stroke:#000000;stroke-width:0.8;" x="57.6" xlink:href="#m353eac416a" y="191.50004"/>
      </g>
     </g>
     <g id="text_8">
      <!-- 0.4 -->
      <g transform="translate(25.155 197.57879)scale(0.16 -0.16)">
       <use xlink:href="#DejaVuSans-30"/>
       <use x="63.623047" xlink:href="#DejaVuSans-2e"/>
       <use x="95.410156" xlink:href="#DejaVuSans-34"/>
      </g>
     </g>
    </g>
    <g id="ytick_4">
     <g id="line2d_27">
      <path clip-path="url(#pd8ef9243be)" d="M 57.6 137.778059 
L 338.688 137.778059 
" style="fill:none;stroke:#b0b0b0;stroke-linecap:square;stroke-width:0.8;"/>
     </g>
     <g id="line2d_28">
      <g>
       <use style="stroke:#000000;stroke-width:0.8;" x="57.6" xlink:href="#m353eac416a" y="137.778059"/>
      </g>
     </g>
     <g id="text_9">
      <!-- 0.6 -->
      <g transform="translate(25.155 143.856809)scale(0.16 -0.16)">
       <use xlink:href="#DejaVuSans-30"/>
       <use x="63.623047" xlink:href="#DejaVuSans-2e"/>
       <use x="95.410156" xlink:href="#DejaVuSans-36"/>
      </g>
     </g>
    </g>
    <g id="ytick_5">
     <g id="line2d_29">
      <path clip-path="url(#pd8ef9243be)" d="M 57.6 84.056079 
L 338.688 84.056079 
" style="fill:none;stroke:#b0b0b0;stroke-linecap:square;stroke-width:0.8;"/>
     </g>
     <g id="line2d_30">
      <g>
       <use style="stroke:#000000;stroke-width:0.8;" x="57.6" xlink:href="#m353eac416a" y="84.056079"/>
      </g>
     </g>
     <g id="text_10">
      <!-- 0.8 -->
      <g transform="translate(25.155 90.134829)scale(0.16 -0.16)">
       <defs>
        <path d="M 2034 2216 
Q 1584 2216 1326 1975 
Q 1069 1734 1069 1313 
Q 1069 891 1326 650 
Q 1584 409 2034 409 
Q 2484 409 2743 651 
Q 3003 894 3003 1313 
Q 3003 1734 2745 1975 
Q 2488 2216 2034 2216 
z
M 1403 2484 
Q 997 2584 770 2862 
Q 544 3141 544 3541 
Q 544 4100 942 4425 
Q 1341 4750 2034 4750 
Q 2731 4750 3128 4425 
Q 3525 4100 3525 3541 
Q 3525 3141 3298 2862 
Q 3072 2584 2669 2484 
Q 3125 2378 3379 2068 
Q 3634 1759 3634 1313 
Q 3634 634 3220 271 
Q 2806 -91 2034 -91 
Q 1263 -91 848 271 
Q 434 634 434 1313 
Q 434 1759 690 2068 
Q 947 2378 1403 2484 
z
M 1172 3481 
Q 1172 3119 1398 2916 
Q 1625 2713 2034 2713 
Q 2441 2713 2670 2916 
Q 2900 3119 2900 3481 
Q 2900 3844 2670 4047 
Q 2441 4250 2034 4250 
Q 1625 4250 1398 4047 
Q 1172 3844 1172 3481 
z
" id="DejaVuSans-38" transform="scale(0.015625)"/>
       </defs>
       <use xlink:href="#DejaVuSans-30"/>
       <use x="63.623047" xlink:href="#DejaVuSans-2e"/>
       <use x="95.410156" xlink:href="#DejaVuSans-38"/>
      </g>
     </g>
    </g>
    <g id="ytick_6">
     <g id="line2d_31">
      <path clip-path="url(#pd8ef9243be)" d="M 57.6 30.334099 
L 338.688 30.334099 
" style="fill:none;stroke:#b0b0b0;stroke-linecap:square;stroke-width:0.8;"/>
     </g>
     <g id="line2d_32">
      <g>
       <use style="stroke:#000000;stroke-width:0.8;" x="57.6" xlink:href="#m353eac416a" y="30.334099"/>
      </g>
     </g>
     <g id="text_11">
      <!-- 1.0 -->
      <g transform="translate(25.155 36.412849)scale(0.16 -0.16)">
       <use xlink:href="#DejaVuSans-31"/>
       <use x="63.623047" xlink:href="#DejaVuSans-2e"/>
       <use x="95.410156" xlink:href="#DejaVuSans-30"/>
      </g>
     </g>
    </g>
    <g id="text_12">
     <!-- Fraction of function,target pairs -->
     <g transform="translate(17.619531 297.681)rotate(-90)scale(0.17 -0.17)">
      <defs>
       <path d="M 628 4666 
L 3309 4666 
L 3309 4134 
L 1259 4134 
L 1259 2759 
L 3109 2759 
L 3109 2228 
L 1259 2228 
L 1259 0 
L 628 0 
L 628 4666 
z
" id="DejaVuSans-46" transform="scale(0.015625)"/>
       <path d="M 2631 2963 
Q 2534 3019 2420 3045 
Q 2306 3072 2169 3072 
Q 1681 3072 1420 2755 
Q 1159 2438 1159 1844 
L 1159 0 
L 581 0 
L 581 3500 
L 1159 3500 
L 1159 2956 
Q 1341 3275 1631 3429 
Q 1922 3584 2338 3584 
Q 2397 3584 2469 3576 
Q 2541 3569 2628 3553 
L 2631 2963 
z
" id="DejaVuSans-72" transform="scale(0.015625)"/>
       <path d="M 3122 3366 
L 3122 2828 
Q 2878 2963 2633 3030 
Q 2388 3097 2138 3097 
Q 1578 3097 1268 2742 
Q 959 2388 959 1747 
Q 959 1106 1268 751 
Q 1578 397 2138 397 
Q 2388 397 2633 464 
Q 2878 531 3122 666 
L 3122 134 
Q 2881 22 2623 -34 
Q 2366 -91 2075 -91 
Q 1284 -91 818 406 
Q 353 903 353 1747 
Q 353 2603 823 3093 
Q 1294 3584 2113 3584 
Q 2378 3584 2631 3529 
Q 2884 3475 3122 3366 
z
" id="DejaVuSans-63" transform="scale(0.015625)"/>
       <path d="M 1172 4494 
L 1172 3500 
L 2356 3500 
L 2356 3053 
L 1172 3053 
L 1172 1153 
Q 1172 725 1289 603 
Q 1406 481 1766 481 
L 2356 481 
L 2356 0 
L 1766 0 
Q 1100 0 847 248 
Q 594 497 594 1153 
L 594 3053 
L 172 3053 
L 172 3500 
L 594 3500 
L 594 4494 
L 1172 4494 
z
" id="DejaVuSans-74" transform="scale(0.015625)"/>
       <path d="M 544 1381 
L 544 3500 
L 1119 3500 
L 1119 1403 
Q 1119 906 1312 657 
Q 1506 409 1894 409 
Q 2359 409 2629 706 
Q 2900 1003 2900 1516 
L 2900 3500 
L 3475 3500 
L 3475 0 
L 2900 0 
L 2900 538 
Q 2691 219 2414 64 
Q 2138 -91 1772 -91 
Q 1169 -91 856 284 
Q 544 659 544 1381 
z
M 1991 3584 
L 1991 3584 
z
" id="DejaVuSans-75" transform="scale(0.015625)"/>
       <path d="M 750 794 
L 1409 794 
L 1409 256 
L 897 -744 
L 494 -744 
L 750 256 
L 750 794 
z
" id="DejaVuSans-2c" transform="scale(0.015625)"/>
       <path d="M 1159 525 
L 1159 -1331 
L 581 -1331 
L 581 3500 
L 1159 3500 
L 1159 2969 
Q 1341 3281 1617 3432 
Q 1894 3584 2278 3584 
Q 2916 3584 3314 3078 
Q 3713 2572 3713 1747 
Q 3713 922 3314 415 
Q 2916 -91 2278 -91 
Q 1894 -91 1617 61 
Q 1341 213 1159 525 
z
M 3116 1747 
Q 3116 2381 2855 2742 
Q 2594 3103 2138 3103 
Q 1681 3103 1420 2742 
Q 1159 2381 1159 1747 
Q 1159 1113 1420 752 
Q 1681 391 2138 391 
Q 2594 391 2855 752 
Q 3116 1113 3116 1747 
z
" id="DejaVuSans-70" transform="scale(0.015625)"/>
      </defs>
      <use xlink:href="#DejaVuSans-46"/>
      <use x="50.269531" xlink:href="#DejaVuSans-72"/>
      <use x="91.382812" xlink:href="#DejaVuSans-61"/>
      <use x="152.662109" xlink:href="#DejaVuSans-63"/>
      <use x="207.642578" xlink:href="#DejaVuSans-74"/>
      <use x="246.851562" xlink:href="#DejaVuSans-69"/>
      <use x="274.634766" xlink:href="#DejaVuSans-6f"/>
      <use x="335.816406" xlink:href="#DejaVuSans-6e"/>
      <use x="399.195312" xlink:href="#DejaVuSans-20"/>
      <use x="430.982422" xlink:href="#DejaVuSans-6f"/>
      <use x="492.164062" xlink:href="#DejaVuSans-66"/>
      <use x="527.369141" xlink:href="#DejaVuSans-20"/>
      <use x="559.15625" xlink:href="#DejaVuSans-66"/>
      <use x="594.361328" xlink:href="#DejaVuSans-75"/>
      <use x="657.740234" xlink:href="#DejaVuSans-6e"/>
      <use x="721.119141" xlink:href="#DejaVuSans-63"/>
      <use x="776.099609" xlink:href="#DejaVuSans-74"/>
      <use x="815.308594" xlink:href="#DejaVuSans-69"/>
      <use x="843.091797" xlink:href="#DejaVuSans-6f"/>
      <use x="904.273438" xlink:href="#DejaVuSans-6e"/>
      <use x="967.652344" xlink:href="#DejaVuSans-2c"/>
      <use x="999.439453" xlink:href="#DejaVuSans-74"/>
      <use x="1038.648438" xlink:href="#DejaVuSans-61"/>
      <use x="1099.927734" xlink:href="#DejaVuSans-72"/>
      <use x="1139.291016" xlink:href="#DejaVuSans-67"/>
      <use x="1202.767578" xlink:href="#DejaVuSans-65"/>
      <use x="1264.291016" xlink:href="#DejaVuSans-74"/>
      <use x="1303.5" xlink:href="#DejaVuSans-20"/>
      <use x="1335.287109" xlink:href="#DejaVuSans-70"/>
      <use x="1398.763672" xlink:href="#DejaVuSans-61"/>
      <use x="1460.042969" xlink:href="#DejaVuSans-69"/>
      <use x="1487.826172" xlink:href="#DejaVuSans-72"/>
      <use x="1528.939453" xlink:href="#DejaVuSans-73"/>
     </g>
    </g>
   </g>
   <g id="line2d_33">
    <defs>
     <path d="M 0 1.5 
C 0.397805 1.5 0.77937 1.341951 1.06066 1.06066 
C 1.341951 0.77937 1.5 0.397805 1.5 0 
C 1.5 -0.397805 1.341951 -0.77937 1.06066 -1.06066 
C 0.77937 -1.341951 0.397805 -1.5 0 -1.5 
C -0.397805 -1.5 -0.77937 -1.341951 -1.06066 -1.06066 
C -1.341951 -0.77937 -1.5 -0.397805 -1.5 0 
C -1.5 0.397805 -1.341951 0.77937 -1.06066 1.06066 
C -0.77937 1.341951 -0.397805 1.5 0 1.5 
z
" id="m1742a305e1" style="stroke:#f5deb3;"/>
    </defs>
    <g>
     <use style="fill:#f5deb3;stroke:#f5deb3;" x="196.495213" xlink:href="#m1742a305e1" y="30.334099"/>
     <use style="fill:#f5deb3;stroke:#f5deb3;" x="196.495213" xlink:href="#m1742a305e1" y="30.334099"/>
    </g>
   </g>
   <g id="line2d_34">
    <defs>
     <path d="M 0 1.5 
C 0.397805 1.5 0.77937 1.341951 1.06066 1.06066 
C 1.341951 0.77937 1.5 0.397805 1.5 0 
C 1.5 -0.397805 1.341951 -0.77937 1.06066 -1.06066 
C 0.77937 -1.341951 0.397805 -1.5 0 -1.5 
C -0.397805 -1.5 -0.77937 -1.341951 -1.06066 -1.06066 
C -1.341951 -0.77937 -1.5 -0.397805 -1.5 0 
C -1.5 0.397805 -1.341951 0.77937 -1.06066 1.06066 
C -0.77937 1.341951 -0.397805 1.5 0 1.5 
z
" id="m9243660a81" style="stroke:#000080;"/>
    </defs>
    <g>
     <use style="fill:#000080;stroke:#000080;" x="293.608925" xlink:href="#m9243660a81" y="241.008531"/>
     <use style="fill:#000080;stroke:#000080;" x="293.608925" xlink:href="#m9243660a81" y="241.008531"/>
    </g>
   </g>
   <g id="line2d_35">
    <path d="M 114.418861 298.944 
L 114.418861 298.417314 
L 122.44689 298.417314 
L 122.44689 297.890628 
L 128.827155 297.890628 
L 128.827155 297.363942 
L 130.127931 297.363942 
L 130.127931 296.837256 
L 131.082294 296.837256 
L 131.082294 296.31057 
L 132.181982 296.31057 
L 132.181982 295.783884 
L 132.659801 295.783884 
L 132.753813 294.730511 
L 134.019394 294.730511 
L 134.019394 294.203825 
L 135.582166 294.203825 
L 135.582166 293.677139 
L 137.664982 293.677139 
L 137.664982 293.150453 
L 141.563518 293.150453 
L 141.563518 292.623767 
L 141.80232 292.623767 
L 141.80232 292.097081 
L 142.33811 292.097081 
L 142.33811 291.570395 
L 143.51512 291.570395 
L 143.51512 291.043709 
L 148.478259 291.043709 
L 148.478259 290.517023 
L 150.249899 290.517023 
L 150.249899 289.990337 
L 152.329717 289.990337 
L 152.405838 288.410278 
L 153.200188 288.410278 
L 153.243677 287.356906 
L 153.665645 287.356906 
L 153.665645 286.83022 
L 155.488919 286.83022 
L 155.501643 285.776848 
L 156.829885 285.776848 
L 156.829885 285.250162 
L 157.346685 285.250162 
L 157.346685 284.723476 
L 157.953917 284.723476 
L 157.953917 284.19679 
L 158.211713 284.19679 
L 158.211713 283.670104 
L 158.641936 283.670104 
L 158.641936 283.143418 
L 158.884591 283.143418 
L 158.884591 282.616732 
L 159.673231 282.616732 
L 159.673231 282.090045 
L 160.069258 282.090045 
L 160.069258 281.563359 
L 160.312284 281.563359 
L 160.341221 280.509987 
L 161.178543 280.509987 
L 161.178543 279.983301 
L 161.470039 279.983301 
L 161.470039 279.456615 
L 163.760861 279.456615 
L 163.760861 278.929929 
L 163.922502 278.929929 
L 163.922502 278.403243 
L 164.272154 278.403243 
L 164.272154 277.876557 
L 167.020769 277.876557 
L 167.020769 276.823185 
L 167.381695 276.823185 
L 167.381695 276.296499 
L 167.87664 276.296499 
L 167.87664 275.769812 
L 168.041647 275.769812 
L 168.041647 275.243126 
L 168.159001 275.243126 
L 168.159001 274.71644 
L 168.27557 274.71644 
L 168.27557 274.189754 
L 168.427772 274.189754 
L 168.427772 273.663068 
L 168.979647 273.663068 
L 168.979647 273.136382 
L 170.494616 273.136382 
L 170.494616 272.609696 
L 173.344436 272.609696 
L 173.344436 272.08301 
L 174.757901 272.08301 
L 174.757901 271.556324 
L 175.350666 271.556324 
L 175.350666 271.029638 
L 176.905401 271.029638 
L 176.905401 270.502952 
L 178.085458 270.502952 
L 178.085458 269.976266 
L 178.44579 269.976266 
L 178.44579 269.449579 
L 180.477835 269.449579 
L 180.477835 268.922893 
L 180.991122 268.922893 
L 180.991122 268.396207 
L 182.023198 268.396207 
L 182.023198 267.869521 
L 183.284386 267.869521 
L 183.284386 267.342835 
L 184.519607 267.342835 
L 184.519607 266.816149 
L 185.55204 266.816149 
L 185.55204 266.289463 
L 190.39931 266.289463 
L 190.39931 265.762777 
L 191.4017 265.762777 
L 191.4017 265.236091 
L 193.785707 265.236091 
L 193.785707 264.709405 
L 195.148557 264.709405 
L 195.148557 264.182719 
L 199.123637 264.182719 
L 199.123637 263.656033 
L 200.950879 263.656033 
L 200.950879 263.129347 
L 201.065993 263.129347 
L 201.065993 262.60266 
L 201.749687 262.60266 
L 201.749687 262.075974 
L 202.347452 262.075974 
L 202.347452 261.549288 
L 207.647479 261.549288 
L 207.647479 261.022602 
L 208.380785 261.022602 
L 208.380785 260.495916 
L 209.889051 260.495916 
L 209.889051 259.96923 
L 210.038298 259.96923 
L 210.08174 258.915858 
L 212.367164 258.915858 
L 212.367164 258.389172 
L 213.580155 258.389172 
L 213.580155 257.862486 
L 215.066555 257.862486 
L 215.066555 257.3358 
L 215.822125 257.3358 
L 215.822125 256.809114 
L 216.431132 256.809114 
L 216.431132 256.282427 
L 219.697852 256.282427 
L 219.697852 255.755741 
L 220.28305 255.755741 
L 220.28305 255.229055 
L 223.730235 255.229055 
L 223.730235 254.702369 
L 226.693665 254.702369 
L 226.693665 254.175683 
L 230.789171 254.175683 
L 230.789171 253.648997 
L 231.327022 253.648997 
L 231.370809 252.068939 
L 232.335053 252.068939 
L 232.335053 251.542253 
L 233.280561 251.542253 
L 233.280561 251.015567 
L 233.506835 251.015567 
L 233.506835 249.962195 
L 234.992203 249.962195 
L 234.992203 249.435508 
L 236.616967 249.435508 
L 236.616967 248.908822 
L 238.095252 248.908822 
L 238.095252 248.382136 
L 242.936314 248.382136 
L 242.936314 247.85545 
L 244.069421 247.85545 
L 244.069421 247.328764 
L 249.091014 247.328764 
L 249.091014 246.802078 
L 251.833751 246.802078 
L 251.833751 246.275392 
L 253.131789 246.275392 
L 253.131789 245.748706 
L 256.349618 245.748706 
L 256.349618 245.22202 
L 257.245033 245.22202 
L 257.245033 244.168648 
L 260.665883 244.168648 
L 260.665883 243.641962 
L 261.738095 243.641962 
L 261.738095 243.115275 
L 262.131934 243.115275 
L 262.131934 242.588589 
L 264.084107 242.588589 
L 264.084107 242.061903 
L 266.160594 242.061903 
L 266.160594 241.535217 
L 293.608925 241.535217 
L 293.608925 241.008531 
L 338.688 241.008531 
L 338.688 241.008531 
" style="fill:none;stroke:#000080;stroke-linecap:square;stroke-width:1.5;"/>
   </g>
   <g id="line2d_36">
    <defs>
     <path d="M 0 6 
C 1.591219 6 3.117479 5.367802 4.242641 4.242641 
C 5.367802 3.117479 6 1.591219 6 0 
C 6 -1.591219 5.367802 -3.117479 4.242641 -4.242641 
C 3.117479 -5.367802 1.591219 -6 0 -6 
C -1.591219 -6 -3.117479 -5.367802 -4.242641 -4.242641 
C -5.367802 -3.117479 -6 -1.591219 -6 0 
C -6 1.591219 -5.367802 3.117479 -4.242641 4.242641 
C -3.117479 5.367802 -1.591219 6 0 6 
z
" id="m62789262de" style="stroke:#000080;stroke-width:1.5;"/>
    </defs>
    <g>
     <use style="fill-opacity:0;stroke:#000080;stroke-width:1.5;" x="176.905401" xlink:href="#m62789262de" y="270.502952"/>
     <use style="fill-opacity:0;stroke:#000080;stroke-width:1.5;" x="226.693665" xlink:href="#m62789262de" y="254.175683"/>
     <use style="fill-opacity:0;stroke:#000080;stroke-width:1.5;" x="293.608925" xlink:href="#m62789262de" y="241.535217"/>
     <use style="fill-opacity:0;stroke:#000080;stroke-width:1.5;" x="293.608925" xlink:href="#m62789262de" y="241.008531"/>
     <use style="fill-opacity:0;stroke:#000080;stroke-width:1.5;" x="338.688" xlink:href="#m62789262de" y="241.008531"/>
    </g>
   </g>
   <g id="line2d_37">
    <path style="fill:none;stroke:#000080;stroke-linecap:square;stroke-width:1.5;"/>
    <g/>
   </g>
   <g id="line2d_38">
    <path clip-path="url(#pd8ef9243be)" d="M 206.133726 261.549288 
" style="fill:none;stroke:#000080;stroke-linecap:square;stroke-width:1.5;"/>
    <defs>
     <path d="M -12 12 
L 12 -12 
M -12 -12 
L 12 12 
" id="m8ddd416240" style="stroke:#000080;"/>
    </defs>
    <g clip-path="url(#pd8ef9243be)">
     <use style="fill:#000080;stroke:#000080;" x="206.133726" xlink:href="#m8ddd416240" y="261.549288"/>
    </g>
   </g>
   <g id="line2d_39">
    <defs>
     <path d="M 0 1.5 
C 0.397805 1.5 0.77937 1.341951 1.06066 1.06066 
C 1.341951 0.77937 1.5 0.397805 1.5 0 
C 1.5 -0.397805 1.341951 -0.77937 1.06066 -1.06066 
C 0.77937 -1.341951 0.397805 -1.5 0 -1.5 
C -0.397805 -1.5 -0.77937 -1.341951 -1.06066 -1.06066 
C -1.341951 -0.77937 -1.5 -0.397805 -1.5 0 
C -1.5 0.397805 -1.341951 0.77937 -1.06066 1.06066 
C -0.77937 1.341951 -0.397805 1.5 0 1.5 
z
" id="m4ab1832def" style="stroke:#ff00ff;"/>
    </defs>
    <g>
     <use style="fill:#ff00ff;stroke:#ff00ff;" x="272.061299" xlink:href="#m4ab1832def" y="30.334099"/>
     <use style="fill:#ff00ff;stroke:#ff00ff;" x="272.061299" xlink:href="#m4ab1832def" y="30.334099"/>
    </g>
   </g>
   <g id="line2d_40">
    <path d="M 112.506763 298.944 
L 112.506763 298.417314 
L 143.311596 298.417314 
L 143.311596 297.890628 
L 148.554206 297.890628 
L 148.554206 297.363942 
L 149.104327 297.363942 
L 149.104327 296.837256 
L 152.826082 296.837256 
L 152.826082 296.31057 
L 154.873541 296.31057 
L 154.873541 295.783884 
L 156.199806 295.783884 
L 156.199806 295.257197 
L 156.562634 295.257197 
L 156.562634 294.730511 
L 157.61918 294.730511 
L 157.61918 294.203825 
L 157.870833 294.203825 
L 157.870833 293.677139 
L 159.466728 293.677139 
L 159.466728 293.150453 
L 165.497378 293.150453 
L 165.576079 292.097081 
L 166.692436 292.097081 
L 166.692436 291.570395 
L 167.109252 291.570395 
L 167.161475 290.517023 
L 168.303064 290.517023 
L 168.303064 289.990337 
L 170.65273 289.990337 
L 170.65273 289.463651 
L 170.822637 289.463651 
L 170.822637 288.936964 
L 174.263971 288.936964 
L 174.263971 288.410278 
L 175.311905 288.410278 
L 175.311905 287.883592 
L 175.994786 287.883592 
L 175.994786 287.356906 
L 176.313925 287.356906 
L 176.313925 286.83022 
L 176.568518 286.83022 
L 176.568518 286.303534 
L 177.488292 286.303534 
L 177.488292 285.776848 
L 177.945538 285.776848 
L 177.945538 285.250162 
L 178.44579 285.250162 
L 178.44579 284.723476 
L 180.41698 284.723476 
L 180.427645 283.670104 
L 180.55058 283.670104 
L 180.55058 283.143418 
L 181.724604 283.143418 
L 181.724604 282.616732 
L 181.886451 282.616732 
L 181.985629 281.036673 
L 182.259268 281.036673 
L 182.259268 280.509987 
L 182.455616 280.509987 
L 182.455616 279.983301 
L 182.667199 279.983301 
L 182.667199 279.456615 
L 183.144185 279.456615 
L 183.144185 278.929929 
L 185.068576 278.929929 
L 185.068576 278.403243 
L 185.258955 278.403243 
L 185.345331 277.349871 
L 185.659561 277.349871 
L 185.659561 276.823185 
L 185.944935 276.823185 
L 185.944935 276.296499 
L 186.578209 276.296499 
L 186.5857 275.243126 
L 187.530114 275.243126 
L 187.530114 274.71644 
L 188.09161 274.71644 
L 188.09161 274.189754 
L 189.157575 274.189754 
L 189.157575 273.663068 
L 190.588298 273.663068 
L 190.588298 273.136382 
L 191.266423 273.136382 
L 191.266423 272.609696 
L 191.759248 272.609696 
L 191.863912 271.556324 
L 192.166421 271.556324 
L 192.166421 271.029638 
L 192.328051 271.029638 
L 192.328051 270.502952 
L 193.011884 270.502952 
L 193.011884 269.976266 
L 193.74814 269.976266 
L 193.74814 269.449579 
L 194.00593 269.449579 
L 194.00593 268.922893 
L 194.221336 268.922893 
L 194.221336 268.396207 
L 194.626792 268.396207 
L 194.626792 267.869521 
L 194.739777 267.869521 
L 194.739777 267.342835 
L 195.025013 267.342835 
L 195.034903 266.289463 
L 195.507608 266.289463 
L 195.508891 265.236091 
L 195.637345 265.236091 
L 195.637345 264.709405 
L 195.982826 264.709405 
L 196.025222 263.656033 
L 197.06235 263.656033 
L 197.06235 263.129347 
L 197.308224 263.129347 
L 197.308224 262.60266 
L 197.486659 262.60266 
L 197.595696 261.549288 
L 198.104924 261.549288 
L 198.104924 261.022602 
L 198.319162 261.022602 
L 198.319162 260.495916 
L 198.497867 260.495916 
L 198.497867 259.96923 
L 198.878449 259.96923 
L 198.878449 259.442544 
L 199.0709 259.442544 
L 199.083969 258.389172 
L 199.676285 258.389172 
L 199.754399 257.3358 
L 199.986167 257.3358 
L 199.986167 256.809114 
L 200.377217 256.809114 
L 200.438244 255.755741 
L 200.725481 255.755741 
L 200.725481 255.229055 
L 200.844922 255.229055 
L 200.935849 252.595625 
L 200.99917 252.595625 
L 201.054796 249.435508 
L 201.165983 249.435508 
L 201.267708 248.382136 
L 201.58658 248.382136 
L 201.58658 247.85545 
L 201.784186 247.85545 
L 201.8757 243.115275 
L 201.96718 243.115275 
L 202.013182 239.428473 
L 202.149589 239.428473 
L 202.252723 234.688298 
L 202.261 234.688298 
L 202.331845 231.528182 
L 202.427872 231.528182 
L 202.452873 230.47481 
L 202.568789 230.47481 
L 202.613233 228.368065 
L 202.708152 228.368065 
L 202.792844 227.314693 
L 202.839671 227.314693 
L 202.839671 226.788007 
L 202.99653 226.788007 
L 203.064454 225.734635 
L 203.146609 225.734635 
L 203.221374 223.627891 
L 203.270765 223.627891 
L 203.342954 222.047832 
L 203.386287 222.047832 
L 203.488065 219.941088 
L 203.596918 219.941088 
L 203.596918 219.414402 
L 203.828139 219.414402 
L 203.917874 218.36103 
L 203.943203 218.36103 
L 204.051618 216.780971 
L 204.094796 216.780971 
L 204.178102 213.620855 
L 204.206562 213.620855 
L 204.298639 210.987425 
L 204.405259 210.987425 
L 204.461013 206.24725 
L 204.640898 206.24725 
L 204.734118 203.087133 
L 204.820074 203.087133 
L 204.905983 197.820273 
L 204.978805 197.820273 
L 205.010452 196.240214 
L 205.156404 196.240214 
L 205.218268 193.080098 
L 205.294558 193.080098 
L 205.365779 191.50004 
L 205.439613 191.50004 
L 205.439613 190.973354 
L 205.622304 190.973354 
L 205.650655 189.919981 
L 205.797413 189.919981 
L 205.906235 186.233179 
L 205.912242 186.233179 
L 205.983803 183.599748 
L 206.032283 183.599748 
L 206.082029 182.546376 
L 215.131843 182.546376 
L 215.131843 182.01969 
L 215.41743 182.01969 
L 215.41743 181.493004 
L 215.778846 181.493004 
L 215.842725 176.752829 
L 215.912146 176.752829 
L 215.914136 174.646085 
L 216.095927 174.646085 
L 216.182197 173.592713 
L 216.219989 173.592713 
L 216.301561 169.379224 
L 216.343175 169.379224 
L 216.424174 163.585677 
L 216.533447 163.585677 
L 216.631154 161.478933 
L 216.652347 161.478933 
L 216.709308 159.372189 
L 216.775748 159.372189 
L 216.882094 156.738758 
L 216.902044 156.738758 
L 216.999397 154.632014 
L 217.106995 154.632014 
L 217.11796 153.578642 
L 217.232031 153.578642 
L 217.328298 148.311781 
L 217.382913 148.311781 
L 217.436628 145.151665 
L 217.531594 145.151665 
L 217.618645 143.04492 
L 217.663899 143.04492 
L 217.769992 139.358118 
L 217.807178 139.358118 
L 217.88558 137.251373 
L 217.983796 137.251373 
L 218.074781 136.198001 
L 218.10834 136.198001 
L 218.111324 134.091257 
L 223.414195 134.091257 
L 223.414195 133.564571 
L 223.702747 133.564571 
L 223.788757 129.877768 
L 223.959892 129.877768 
L 224.01152 126.717652 
L 224.08307 126.717652 
L 224.189785 121.977477 
L 224.196348 121.977477 
L 224.264678 119.870733 
L 224.328442 119.870733 
L 224.430739 118.817361 
L 224.453079 118.817361 
L 224.487448 117.763988 
L 224.584945 117.763988 
L 224.681178 111.443755 
L 224.735399 111.443755 
L 224.838566 108.283639 
L 224.856217 108.283639 
L 224.959977 103.543464 
L 224.983425 103.543464 
L 225.040491 101.43672 
L 225.194917 101.43672 
L 225.217233 99.856662 
L 229.131008 99.856662 
L 229.171823 98.276603 
L 229.355974 98.276603 
L 229.458454 95.116487 
L 229.489099 95.116487 
L 229.514306 94.063115 
L 229.625931 94.063115 
L 229.709251 92.483056 
L 229.811027 92.483056 
L 229.921577 88.796254 
L 229.96103 88.796254 
L 230.070459 85.109451 
L 230.091044 85.109451 
L 230.120863 84.056079 
L 230.272343 84.056079 
L 230.272343 83.529393 
L 233.26467 83.529393 
L 233.288134 82.476021 
L 233.443786 82.476021 
L 233.551639 78.262532 
L 233.611847 78.262532 
L 233.710994 76.155788 
L 233.818139 76.155788 
L 233.928386 72.468985 
L 233.957413 72.468985 
L 234.067488 69.308869 
L 234.092706 69.308869 
L 234.162128 66.675439 
L 236.603843 66.675439 
L 236.644336 64.568694 
L 236.751879 64.568694 
L 236.841144 62.46195 
L 236.882765 62.46195 
L 236.935024 60.881892 
L 237.065258 60.881892 
L 237.069638 59.82852 
L 237.231445 59.82852 
L 237.247092 58.775147 
L 239.604822 58.775147 
L 239.667954 57.721775 
L 239.72842 57.721775 
L 239.802697 56.141717 
L 239.848272 56.141717 
L 239.927166 55.088345 
L 241.8183 55.088345 
L 241.823618 54.034973 
L 241.998328 54.034973 
L 242.019237 52.9816 
L 242.176958 52.9816 
L 242.26838 50.874856 
L 243.950415 50.874856 
L 244.035043 49.821484 
L 244.079084 49.821484 
L 244.079084 49.294798 
L 244.242069 49.294798 
L 244.242069 48.768112 
L 244.368066 48.768112 
L 244.435148 47.71474 
L 245.934983 47.71474 
L 246.033089 46.661368 
L 246.255813 46.661368 
L 246.255813 46.134681 
L 247.631719 46.134681 
L 247.718664 45.081309 
L 247.779932 45.081309 
L 247.786623 43.501251 
L 249.199444 43.501251 
L 249.207589 42.447879 
L 249.313863 42.447879 
L 249.316003 41.394507 
L 250.669425 41.394507 
L 250.682036 39.814448 
L 251.925585 39.814448 
L 252.024345 37.707704 
L 252.068922 37.707704 
L 252.068922 37.181018 
L 253.159354 37.181018 
L 253.189882 36.127646 
L 254.3053 36.127646 
L 254.371274 35.074274 
L 255.354391 35.074274 
L 255.354391 34.547588 
L 256.363364 34.547588 
L 256.363364 34.020902 
L 257.321867 34.020902 
L 257.321867 33.494215 
L 258.226745 33.494215 
L 258.283101 32.440843 
L 260.732744 32.440843 
L 260.732744 31.914157 
L 262.837012 31.914157 
L 262.837012 31.387471 
L 263.54114 31.387471 
L 263.54114 30.860785 
L 272.061299 30.860785 
L 272.061299 30.334099 
L 338.688 30.334099 
L 338.688 30.334099 
" style="fill:none;stroke:#ff00ff;stroke-linecap:square;stroke-width:1.5;"/>
   </g>
   <g id="line2d_41">
    <defs>
     <path d="M 0 8.485281 
L 5.091169 0 
L 0 -8.485281 
L -5.091169 0 
z
" id="m0dd9135ff7" style="stroke:#ff00ff;stroke-linejoin:miter;stroke-width:1.5;"/>
    </defs>
    <g>
     <use style="fill-opacity:0;stroke:#ff00ff;stroke-linejoin:miter;stroke-width:1.5;" x="206.082029" xlink:href="#m0dd9135ff7" y="182.546376"/>
     <use style="fill-opacity:0;stroke:#ff00ff;stroke-linejoin:miter;stroke-width:1.5;" x="244.242069" xlink:href="#m0dd9135ff7" y="48.768112"/>
     <use style="fill-opacity:0;stroke:#ff00ff;stroke-linejoin:miter;stroke-width:1.5;" x="272.061299" xlink:href="#m0dd9135ff7" y="30.334099"/>
     <use style="fill-opacity:0;stroke:#ff00ff;stroke-linejoin:miter;stroke-width:1.5;" x="272.061299" xlink:href="#m0dd9135ff7" y="30.334099"/>
     <use style="fill-opacity:0;stroke:#ff00ff;stroke-linejoin:miter;stroke-width:1.5;" x="338.688" xlink:href="#m0dd9135ff7" y="30.334099"/>
    </g>
   </g>
   <g id="line2d_42">
    <path style="fill:none;stroke:#ff00ff;stroke-linecap:square;stroke-width:1.5;"/>
    <g/>
   </g>
   <g id="line2d_43">
    <path clip-path="url(#pd8ef9243be)" d="M 206.133726 182.546376 
" style="fill:none;stroke:#ff00ff;stroke-linecap:square;stroke-width:1.5;"/>
    <defs>
     <path d="M -12 12 
L 12 -12 
M -12 -12 
L 12 12 
" id="mcdfc9e5970" style="stroke:#ff00ff;"/>
    </defs>
    <g clip-path="url(#pd8ef9243be)">
     <use style="fill:#ff00ff;stroke:#ff00ff;" x="206.133726" xlink:href="#mcdfc9e5970" y="182.546376"/>
    </g>
   </g>
   <g id="line2d_44">
    <defs>
     <path d="M 0 1.5 
C 0.397805 1.5 0.77937 1.341951 1.06066 1.06066 
C 1.341951 0.77937 1.5 0.397805 1.5 0 
C 1.5 -0.397805 1.341951 -0.77937 1.06066 -1.06066 
C 0.77937 -1.341951 0.397805 -1.5 0 -1.5 
C -0.397805 -1.5 -0.77937 -1.341951 -1.06066 -1.06066 
C -1.341951 -0.77937 -1.5 -0.397805 -1.5 0 
C -1.5 0.397805 -1.341951 0.77937 -1.06066 1.06066 
C -0.77937 1.341951 -0.397805 1.5 0 1.5 
z
" id="mf26b8a5055" style="stroke:#ff7500;"/>
    </defs>
    <g>
     <use style="fill:#ff7500;stroke:#ff7500;" x="234.085896" xlink:href="#mf26b8a5055" y="262.075974"/>
     <use style="fill:#ff7500;stroke:#ff7500;" x="234.085896" xlink:href="#mf26b8a5055" y="262.075974"/>
    </g>
   </g>
   <g id="line2d_45">
    <path d="M 165.693467 298.944 
L 165.693467 298.417314 
L 166.374858 298.417314 
L 166.374858 297.890628 
L 169.023638 297.890628 
L 169.023638 297.363942 
L 169.534515 297.363942 
L 169.534515 296.837256 
L 171.399496 296.837256 
L 171.399496 296.31057 
L 171.531901 296.31057 
L 171.531901 295.783884 
L 176.566617 295.783884 
L 176.566617 295.257197 
L 176.847522 295.257197 
L 176.847522 294.730511 
L 177.274266 294.730511 
L 177.274266 294.203825 
L 177.689034 294.203825 
L 177.689034 293.677139 
L 179.80436 293.677139 
L 179.80436 293.150453 
L 183.159819 293.150453 
L 183.159819 292.623767 
L 184.524425 292.623767 
L 184.524425 292.097081 
L 184.925592 292.097081 
L 184.925592 291.570395 
L 186.606017 291.570395 
L 186.613497 290.517023 
L 187.321087 290.517023 
L 187.321087 289.990337 
L 189.205518 289.990337 
L 189.205518 289.463651 
L 189.83662 289.463651 
L 189.920776 288.410278 
L 190.193469 288.410278 
L 190.193469 287.883592 
L 191.423604 287.883592 
L 191.423604 287.356906 
L 192.482857 287.356906 
L 192.482857 286.83022 
L 193.076161 286.83022 
L 193.076161 286.303534 
L 193.551906 286.303534 
L 193.551906 285.776848 
L 194.15422 285.776848 
L 194.15422 285.250162 
L 194.348628 285.250162 
L 194.348628 284.723476 
L 194.586262 284.723476 
L 194.673285 283.670104 
L 194.961588 283.670104 
L 195.051373 282.616732 
L 195.300467 282.616732 
L 195.300467 282.090045 
L 196.738399 282.090045 
L 196.738399 281.563359 
L 197.407452 281.563359 
L 197.407452 281.036673 
L 197.777424 281.036673 
L 197.868984 279.983301 
L 198.413903 279.983301 
L 198.413903 279.456615 
L 198.985453 279.456615 
L 199.054682 278.403243 
L 199.135103 278.403243 
L 199.135103 277.876557 
L 199.371594 277.876557 
L 199.371594 277.349871 
L 199.646965 277.349871 
L 199.646965 276.823185 
L 200.046598 276.823185 
L 200.142755 275.769812 
L 200.215874 275.769812 
L 200.215874 275.243126 
L 200.647785 275.243126 
L 200.647785 274.71644 
L 200.767758 274.71644 
L 200.820815 273.136382 
L 202.292329 273.136382 
L 202.292329 272.609696 
L 202.932112 272.609696 
L 202.932112 272.08301 
L 204.155458 272.08301 
L 204.155458 271.556324 
L 204.31839 271.556324 
L 204.31839 271.029638 
L 204.445266 271.029638 
L 204.445266 270.502952 
L 204.780165 270.502952 
L 204.780165 269.976266 
L 204.949339 269.976266 
L 204.949339 269.449579 
L 205.105423 269.449579 
L 205.20503 268.396207 
L 205.468987 268.396207 
L 205.549602 267.342835 
L 205.685403 267.342835 
L 205.770369 266.289463 
L 205.988024 266.289463 
L 205.988024 265.762777 
L 215.278215 265.762777 
L 215.278215 265.236091 
L 217.230369 265.236091 
L 217.260616 264.182719 
L 217.397911 264.182719 
L 217.397911 263.656033 
L 218.149016 263.656033 
L 218.149016 263.129347 
L 224.956659 263.129347 
L 224.956659 262.60266 
L 234.085896 262.60266 
L 234.085896 262.075974 
L 338.688 262.075974 
L 338.688 262.075974 
" style="fill:none;stroke:#ff7500;stroke-linecap:square;stroke-width:1.5;"/>
   </g>
   <g id="line2d_46">
    <defs>
     <path d="M 0 -6 
L -1.347084 -1.854102 
L -5.706339 -1.854102 
L -2.179628 0.708204 
L -3.526712 4.854102 
L -0 2.291796 
L 3.526712 4.854102 
L 2.179628 0.708204 
L 5.706339 -1.854102 
L 1.347084 -1.854102 
z
" id="m438eea5fec" style="stroke:#ff7500;stroke-linejoin:bevel;stroke-width:1.5;"/>
    </defs>
    <g>
     <use style="fill-opacity:0;stroke:#ff7500;stroke-linejoin:bevel;stroke-width:1.5;" x="234.085896" xlink:href="#m438eea5fec" y="262.60266"/>
     <use style="fill-opacity:0;stroke:#ff7500;stroke-linejoin:bevel;stroke-width:1.5;" x="234.085896" xlink:href="#m438eea5fec" y="262.075974"/>
     <use style="fill-opacity:0;stroke:#ff7500;stroke-linejoin:bevel;stroke-width:1.5;" x="234.085896" xlink:href="#m438eea5fec" y="262.075974"/>
     <use style="fill-opacity:0;stroke:#ff7500;stroke-linejoin:bevel;stroke-width:1.5;" x="338.688" xlink:href="#m438eea5fec" y="262.075974"/>
    </g>
   </g>
   <g id="line2d_47">
    <path style="fill:none;stroke:#ff7500;stroke-linecap:square;stroke-width:1.5;"/>
    <g/>
   </g>
   <g id="line2d_48">
    <path clip-path="url(#pd8ef9243be)" d="M 206.133726 265.762777 
" style="fill:none;stroke:#ff7500;stroke-linecap:square;stroke-width:1.5;"/>
    <defs>
     <path d="M -12 12 
L 12 -12 
M -12 -12 
L 12 12 
" id="md582b5b5f8" style="stroke:#ff7500;"/>
    </defs>
    <g clip-path="url(#pd8ef9243be)">
     <use style="fill:#ff7500;stroke:#ff7500;" x="206.133726" xlink:href="#md582b5b5f8" y="265.762777"/>
    </g>
   </g>
   <g id="line2d_49">
    <path d="M 338.688 262.075974 
L 369.60768 293.571802 
" style="fill:none;stroke:#ff7500;stroke-linecap:square;stroke-width:1.5;"/>
    <g>
     <use style="fill-opacity:0;stroke:#ff7500;stroke-linejoin:bevel;stroke-width:1.5;" x="338.688" xlink:href="#m438eea5fec" y="262.075974"/>
     <use style="fill-opacity:0;stroke:#ff7500;stroke-linejoin:bevel;stroke-width:1.5;" x="369.60768" xlink:href="#m438eea5fec" y="293.571802"/>
    </g>
   </g>
   <g id="line2d_50">
    <path d="M 338.688 241.008531 
L 369.60768 207.616634 
" style="fill:none;stroke:#000080;stroke-linecap:square;stroke-width:1.5;"/>
    <g>
     <use style="fill-opacity:0;stroke:#000080;stroke-width:1.5;" x="338.688" xlink:href="#m62789262de" y="241.008531"/>
     <use style="fill-opacity:0;stroke:#000080;stroke-width:1.5;" x="369.60768" xlink:href="#m62789262de" y="207.616634"/>
    </g>
   </g>
   <g id="line2d_51">
    <path d="M 338.688 30.334099 
L 369.60768 121.661465 
" style="fill:none;stroke:#ff00ff;stroke-linecap:square;stroke-width:1.5;"/>
    <g>
     <use style="fill-opacity:0;stroke:#ff00ff;stroke-linejoin:miter;stroke-width:1.5;" x="338.688" xlink:href="#m0dd9135ff7" y="30.334099"/>
     <use style="fill-opacity:0;stroke:#ff00ff;stroke-linejoin:miter;stroke-width:1.5;" x="369.60768" xlink:href="#m0dd9135ff7" y="121.661465"/>
    </g>
   </g>
   <g id="line2d_52">
    <path d="M 338.688 298.944 
L 338.688 30.334099 
" style="fill:none;stroke:#000000;stroke-linecap:square;stroke-width:1.5;"/>
   </g>
   <g id="patch_3">
    <path d="M 57.6 298.944 
L 57.6 27.648 
" style="fill:none;stroke:#000000;stroke-linecap:square;stroke-linejoin:miter;stroke-width:0.8;"/>
   </g>
   <g id="patch_4">
    <path d="M 338.688 298.944 
L 338.688 27.648 
" style="fill:none;stroke:#000000;stroke-linecap:square;stroke-linejoin:miter;stroke-width:0.8;"/>
   </g>
   <g id="patch_5">
    <path d="M 57.6 298.944 
L 338.688 298.944 
" style="fill:none;stroke:#000000;stroke-linecap:square;stroke-linejoin:miter;stroke-width:0.8;"/>
   </g>
   <g id="patch_6">
    <path d="M 57.6 27.648 
L 338.688 27.648 
" style="fill:none;stroke:#000000;stroke-linecap:square;stroke-linejoin:miter;stroke-width:0.8;"/>
   </g>
   <g id="text_13">
    <!-- PSO EDA -->
    <g transform="translate(375.22944 298.262739)scale(0.17 -0.17)">
     <defs>
      <path d="M 1259 4147 
L 1259 2394 
L 2053 2394 
Q 2494 2394 2734 2622 
Q 2975 2850 2975 3272 
Q 2975 3691 2734 3919 
Q 2494 4147 2053 4147 
L 1259 4147 
z
M 628 4666 
L 2053 4666 
Q 2838 4666 3239 4311 
Q 3641 3956 3641 3272 
Q 3641 2581 3239 2228 
Q 2838 1875 2053 1875 
L 1259 1875 
L 1259 0 
L 628 0 
L 628 4666 
z
" id="DejaVuSans-50" transform="scale(0.015625)"/>
      <path d="M 3425 4513 
L 3425 3897 
Q 3066 4069 2747 4153 
Q 2428 4238 2131 4238 
Q 1616 4238 1336 4038 
Q 1056 3838 1056 3469 
Q 1056 3159 1242 3001 
Q 1428 2844 1947 2747 
L 2328 2669 
Q 3034 2534 3370 2195 
Q 3706 1856 3706 1288 
Q 3706 609 3251 259 
Q 2797 -91 1919 -91 
Q 1588 -91 1214 -16 
Q 841 59 441 206 
L 441 856 
Q 825 641 1194 531 
Q 1563 422 1919 422 
Q 2459 422 2753 634 
Q 3047 847 3047 1241 
Q 3047 1584 2836 1778 
Q 2625 1972 2144 2069 
L 1759 2144 
Q 1053 2284 737 2584 
Q 422 2884 422 3419 
Q 422 4038 858 4394 
Q 1294 4750 2059 4750 
Q 2388 4750 2728 4690 
Q 3069 4631 3425 4513 
z
" id="DejaVuSans-53" transform="scale(0.015625)"/>
      <path d="M 2522 4238 
Q 1834 4238 1429 3725 
Q 1025 3213 1025 2328 
Q 1025 1447 1429 934 
Q 1834 422 2522 422 
Q 3209 422 3611 934 
Q 4013 1447 4013 2328 
Q 4013 3213 3611 3725 
Q 3209 4238 2522 4238 
z
M 2522 4750 
Q 3503 4750 4090 4092 
Q 4678 3434 4678 2328 
Q 4678 1225 4090 567 
Q 3503 -91 2522 -91 
Q 1538 -91 948 565 
Q 359 1222 359 2328 
Q 359 3434 948 4092 
Q 1538 4750 2522 4750 
z
" id="DejaVuSans-4f" transform="scale(0.015625)"/>
      <path d="M 628 4666 
L 3578 4666 
L 3578 4134 
L 1259 4134 
L 1259 2753 
L 3481 2753 
L 3481 2222 
L 1259 2222 
L 1259 531 
L 3634 531 
L 3634 0 
L 628 0 
L 628 4666 
z
" id="DejaVuSans-45" transform="scale(0.015625)"/>
      <path d="M 1259 4147 
L 1259 519 
L 2022 519 
Q 2988 519 3436 956 
Q 3884 1394 3884 2338 
Q 3884 3275 3436 3711 
Q 2988 4147 2022 4147 
L 1259 4147 
z
M 628 4666 
L 1925 4666 
Q 3281 4666 3915 4102 
Q 4550 3538 4550 2338 
Q 4550 1131 3912 565 
Q 3275 0 1925 0 
L 628 0 
L 628 4666 
z
" id="DejaVuSans-44" transform="scale(0.015625)"/>
      <path d="M 2188 4044 
L 1331 1722 
L 3047 1722 
L 2188 4044 
z
M 1831 4666 
L 2547 4666 
L 4325 0 
L 3669 0 
L 3244 1197 
L 1141 1197 
L 716 0 
L 50 0 
L 1831 4666 
z
" id="DejaVuSans-41" transform="scale(0.015625)"/>
     </defs>
     <use xlink:href="#DejaVuSans-50"/>
     <use x="60.302734" xlink:href="#DejaVuSans-53"/>
     <use x="123.779297" xlink:href="#DejaVuSans-4f"/>
     <use x="202.490234" xlink:href="#DejaVuSans-20"/>
     <use x="234.277344" xlink:href="#DejaVuSans-45"/>
     <use x="297.460938" xlink:href="#DejaVuSans-44"/>
     <use x="372.712891" xlink:href="#DejaVuSans-41"/>
    </g>
   </g>
   <g id="text_14">
    <!-- PSO -->
    <g transform="translate(375.22944 212.307571)scale(0.17 -0.17)">
     <use xlink:href="#DejaVuSans-50"/>
     <use x="60.302734" xlink:href="#DejaVuSans-53"/>
     <use x="123.779297" xlink:href="#DejaVuSans-4f"/>
    </g>
   </g>
   <g id="text_15">
    <!-- PSO Bound -->
    <g transform="translate(375.22944 126.352403)scale(0.17 -0.17)">
     <defs>
      <path d="M 1259 2228 
L 1259 519 
L 2272 519 
Q 2781 519 3026 730 
Q 3272 941 3272 1375 
Q 3272 1813 3026 2020 
Q 2781 2228 2272 2228 
L 1259 2228 
z
M 1259 4147 
L 1259 2741 
L 2194 2741 
Q 2656 2741 2882 2914 
Q 3109 3088 3109 3444 
Q 3109 3797 2882 3972 
Q 2656 4147 2194 4147 
L 1259 4147 
z
M 628 4666 
L 2241 4666 
Q 2963 4666 3353 4366 
Q 3744 4066 3744 3513 
Q 3744 3084 3544 2831 
Q 3344 2578 2956 2516 
Q 3422 2416 3680 2098 
Q 3938 1781 3938 1306 
Q 3938 681 3513 340 
Q 3088 0 2303 0 
L 628 0 
L 628 4666 
z
" id="DejaVuSans-42" transform="scale(0.015625)"/>
     </defs>
     <use xlink:href="#DejaVuSans-50"/>
     <use x="60.302734" xlink:href="#DejaVuSans-53"/>
     <use x="123.779297" xlink:href="#DejaVuSans-4f"/>
     <use x="202.490234" xlink:href="#DejaVuSans-20"/>
     <use x="234.277344" xlink:href="#DejaVuSans-42"/>
     <use x="302.880859" xlink:href="#DejaVuSans-6f"/>
     <use x="364.0625" xlink:href="#DejaVuSans-75"/>
     <use x="427.441406" xlink:href="#DejaVuSans-6e"/>
     <use x="490.820312" xlink:href="#DejaVuSans-64"/>
    </g>
   </g>
   <g id="text_16">
    <!-- best 2009 -->
    <g transform="translate(375.22944 40.397235)scale(0.17 -0.17)">
     <defs>
      <path d="M 3116 1747 
Q 3116 2381 2855 2742 
Q 2594 3103 2138 3103 
Q 1681 3103 1420 2742 
Q 1159 2381 1159 1747 
Q 1159 1113 1420 752 
Q 1681 391 2138 391 
Q 2594 391 2855 752 
Q 3116 1113 3116 1747 
z
M 1159 2969 
Q 1341 3281 1617 3432 
Q 1894 3584 2278 3584 
Q 2916 3584 3314 3078 
Q 3713 2572 3713 1747 
Q 3713 922 3314 415 
Q 2916 -91 2278 -91 
Q 1894 -91 1617 61 
Q 1341 213 1159 525 
L 1159 0 
L 581 0 
L 581 4863 
L 1159 4863 
L 1159 2969 
z
" id="DejaVuSans-62" transform="scale(0.015625)"/>
      <path d="M 703 97 
L 703 672 
Q 941 559 1184 500 
Q 1428 441 1663 441 
Q 2288 441 2617 861 
Q 2947 1281 2994 2138 
Q 2813 1869 2534 1725 
Q 2256 1581 1919 1581 
Q 1219 1581 811 2004 
Q 403 2428 403 3163 
Q 403 3881 828 4315 
Q 1253 4750 1959 4750 
Q 2769 4750 3195 4129 
Q 3622 3509 3622 2328 
Q 3622 1225 3098 567 
Q 2575 -91 1691 -91 
Q 1453 -91 1209 -44 
Q 966 3 703 97 
z
M 1959 2075 
Q 2384 2075 2632 2365 
Q 2881 2656 2881 3163 
Q 2881 3666 2632 3958 
Q 2384 4250 1959 4250 
Q 1534 4250 1286 3958 
Q 1038 3666 1038 3163 
Q 1038 2656 1286 2365 
Q 1534 2075 1959 2075 
z
" id="DejaVuSans-39" transform="scale(0.015625)"/>
     </defs>
     <use xlink:href="#DejaVuSans-62"/>
     <use x="63.476562" xlink:href="#DejaVuSans-65"/>
     <use x="125" xlink:href="#DejaVuSans-73"/>
     <use x="177.099609" xlink:href="#DejaVuSans-74"/>
     <use x="216.308594" xlink:href="#DejaVuSans-20"/>
     <use x="248.095703" xlink:href="#DejaVuSans-32"/>
     <use x="311.71875" xlink:href="#DejaVuSans-30"/>
     <use x="375.341797" xlink:href="#DejaVuSans-30"/>
     <use x="438.964844" xlink:href="#DejaVuSans-39"/>
    </g>
   </g>
   <g id="text_17">
    <!-- bbob f4, 10-D -->
    <g transform="translate(60.41088 38.111366)scale(0.102 -0.102)">
     <use xlink:href="#DejaVuSans-62"/>
     <use x="63.476562" xlink:href="#DejaVuSans-62"/>
     <use x="126.953125" xlink:href="#DejaVuSans-6f"/>
     <use x="188.134766" xlink:href="#DejaVuSans-62"/>
     <use x="251.611328" xlink:href="#DejaVuSans-20"/>
     <use x="283.398438" xlink:href="#DejaVuSans-66"/>
     <use x="318.603516" xlink:href="#DejaVuSans-34"/>
     <use x="382.226562" xlink:href="#DejaVuSans-2c"/>
     <use x="414.013672" xlink:href="#DejaVuSans-20"/>
     <use x="445.800781" xlink:href="#DejaVuSans-31"/>
     <use x="509.423828" xlink:href="#DejaVuSans-30"/>
     <use x="573.046875" xlink:href="#DejaVuSans-2d"/>
     <use x="609.130859" xlink:href="#DejaVuSans-44"/>
    </g>
    <!-- 51 targets: 100..1e-08 -->
    <g transform="translate(60.41088 49.533135)scale(0.102 -0.102)">
     <defs>
      <path d="M 691 4666 
L 3169 4666 
L 3169 4134 
L 1269 4134 
L 1269 2991 
Q 1406 3038 1543 3061 
Q 1681 3084 1819 3084 
Q 2600 3084 3056 2656 
Q 3513 2228 3513 1497 
Q 3513 744 3044 326 
Q 2575 -91 1722 -91 
Q 1428 -91 1123 -41 
Q 819 9 494 109 
L 494 744 
Q 775 591 1075 516 
Q 1375 441 1709 441 
Q 2250 441 2565 725 
Q 2881 1009 2881 1497 
Q 2881 1984 2565 2268 
Q 2250 2553 1709 2553 
Q 1456 2553 1204 2497 
Q 953 2441 691 2322 
L 691 4666 
z
" id="DejaVuSans-35" transform="scale(0.015625)"/>
      <path d="M 750 794 
L 1409 794 
L 1409 0 
L 750 0 
L 750 794 
z
M 750 3309 
L 1409 3309 
L 1409 2516 
L 750 2516 
L 750 3309 
z
" id="DejaVuSans-3a" transform="scale(0.015625)"/>
     </defs>
     <use xlink:href="#DejaVuSans-35"/>
     <use x="63.623047" xlink:href="#DejaVuSans-31"/>
     <use x="127.246094" xlink:href="#DejaVuSans-20"/>
     <use x="159.033203" xlink:href="#DejaVuSans-74"/>
     <use x="198.242188" xlink:href="#DejaVuSans-61"/>
     <use x="259.521484" xlink:href="#DejaVuSans-72"/>
     <use x="298.884766" xlink:href="#DejaVuSans-67"/>
     <use x="362.361328" xlink:href="#DejaVuSans-65"/>
     <use x="423.884766" xlink:href="#DejaVuSans-74"/>
     <use x="463.09375" xlink:href="#DejaVuSans-73"/>
     <use x="515.193359" xlink:href="#DejaVuSans-3a"/>
     <use x="548.884766" xlink:href="#DejaVuSans-20"/>
     <use x="580.671875" xlink:href="#DejaVuSans-31"/>
     <use x="644.294922" xlink:href="#DejaVuSans-30"/>
     <use x="707.917969" xlink:href="#DejaVuSans-30"/>
     <use x="771.541016" xlink:href="#DejaVuSans-2e"/>
     <use x="803.328125" xlink:href="#DejaVuSans-2e"/>
     <use x="835.115234" xlink:href="#DejaVuSans-31"/>
     <use x="898.738281" xlink:href="#DejaVuSans-65"/>
     <use x="960.261719" xlink:href="#DejaVuSans-2d"/>
     <use x="996.345703" xlink:href="#DejaVuSans-30"/>
     <use x="1059.96875" xlink:href="#DejaVuSans-38"/>
    </g>
    <!-- 15 instances -->
    <g transform="translate(60.41088 60.954904)scale(0.102 -0.102)">
     <use xlink:href="#DejaVuSans-31"/>
     <use x="63.623047" xlink:href="#DejaVuSans-35"/>
     <use x="127.246094" xlink:href="#DejaVuSans-20"/>
     <use x="159.033203" xlink:href="#DejaVuSans-69"/>
     <use x="186.816406" xlink:href="#DejaVuSans-6e"/>
     <use x="250.195312" xlink:href="#DejaVuSans-73"/>
     <use x="302.294922" xlink:href="#DejaVuSans-74"/>
     <use x="341.503906" xlink:href="#DejaVuSans-61"/>
     <use x="402.783203" xlink:href="#DejaVuSans-6e"/>
     <use x="466.162109" xlink:href="#DejaVuSans-63"/>
     <use x="521.142578" xlink:href="#DejaVuSans-65"/>
     <use x="582.666016" xlink:href="#DejaVuSans-73"/>
    </g>
   </g>
   <g id="text_18">
    <!-- v2.4 -->
    <g style="fill:#808080;" transform="translate(187.233062 294.151352)scale(0.1 -0.1)">
     <use xlink:href="#DejaVuSans-76"/>
     <use x="59.179688" xlink:href="#DejaVuSans-32"/>
     <use x="122.802734" xlink:href="#DejaVuSans-2e"/>
     <use x="154.589844" xlink:href="#DejaVuSans-34"/>
    </g>
   </g>
   <g id="text_19">
    <!-- 4 Skew Rastrigin-Bueche separ -->
    <g transform="translate(43.269 21.648)scale(0.2 -0.2)">
     <defs>
      <path d="M 581 4863 
L 1159 4863 
L 1159 1991 
L 2875 3500 
L 3609 3500 
L 1753 1863 
L 3688 0 
L 2938 0 
L 1159 1709 
L 1159 0 
L 581 0 
L 581 4863 
z
" id="DejaVuSans-6b" transform="scale(0.015625)"/>
      <path d="M 269 3500 
L 844 3500 
L 1563 769 
L 2278 3500 
L 2956 3500 
L 3675 769 
L 4391 3500 
L 4966 3500 
L 4050 0 
L 3372 0 
L 2619 2869 
L 1863 0 
L 1184 0 
L 269 3500 
z
" id="DejaVuSans-77" transform="scale(0.015625)"/>
      <path d="M 2841 2188 
Q 3044 2119 3236 1894 
Q 3428 1669 3622 1275 
L 4263 0 
L 3584 0 
L 2988 1197 
Q 2756 1666 2539 1819 
Q 2322 1972 1947 1972 
L 1259 1972 
L 1259 0 
L 628 0 
L 628 4666 
L 2053 4666 
Q 2853 4666 3247 4331 
Q 3641 3997 3641 3322 
Q 3641 2881 3436 2590 
Q 3231 2300 2841 2188 
z
M 1259 4147 
L 1259 2491 
L 2053 2491 
Q 2509 2491 2742 2702 
Q 2975 2913 2975 3322 
Q 2975 3731 2742 3939 
Q 2509 4147 2053 4147 
L 1259 4147 
z
" id="DejaVuSans-52" transform="scale(0.015625)"/>
      <path d="M 3513 2113 
L 3513 0 
L 2938 0 
L 2938 2094 
Q 2938 2591 2744 2837 
Q 2550 3084 2163 3084 
Q 1697 3084 1428 2787 
Q 1159 2491 1159 1978 
L 1159 0 
L 581 0 
L 581 4863 
L 1159 4863 
L 1159 2956 
Q 1366 3272 1645 3428 
Q 1925 3584 2291 3584 
Q 2894 3584 3203 3211 
Q 3513 2838 3513 2113 
z
" id="DejaVuSans-68" transform="scale(0.015625)"/>
     </defs>
     <use xlink:href="#DejaVuSans-34"/>
     <use x="63.623047" xlink:href="#DejaVuSans-20"/>
     <use x="95.410156" xlink:href="#DejaVuSans-53"/>
     <use x="158.886719" xlink:href="#DejaVuSans-6b"/>
     <use x="213.171875" xlink:href="#DejaVuSans-65"/>
     <use x="274.695312" xlink:href="#DejaVuSans-77"/>
     <use x="356.482422" xlink:href="#DejaVuSans-20"/>
     <use x="388.269531" xlink:href="#DejaVuSans-52"/>
     <use x="455.501953" xlink:href="#DejaVuSans-61"/>
     <use x="516.78125" xlink:href="#DejaVuSans-73"/>
     <use x="568.880859" xlink:href="#DejaVuSans-74"/>
     <use x="608.089844" xlink:href="#DejaVuSans-72"/>
     <use x="649.203125" xlink:href="#DejaVuSans-69"/>
     <use x="676.986328" xlink:href="#DejaVuSans-67"/>
     <use x="740.462891" xlink:href="#DejaVuSans-69"/>
     <use x="768.246094" xlink:href="#DejaVuSans-6e"/>
     <use x="831.625" xlink:href="#DejaVuSans-2d"/>
     <use x="864.083984" xlink:href="#DejaVuSans-42"/>
     <use x="932.6875" xlink:href="#DejaVuSans-75"/>
     <use x="996.066406" xlink:href="#DejaVuSans-65"/>
     <use x="1057.589844" xlink:href="#DejaVuSans-63"/>
     <use x="1112.570312" xlink:href="#DejaVuSans-68"/>
     <use x="1175.949219" xlink:href="#DejaVuSans-65"/>
     <use x="1237.472656" xlink:href="#DejaVuSans-20"/>
     <use x="1269.259766" xlink:href="#DejaVuSans-73"/>
     <use x="1321.359375" xlink:href="#DejaVuSans-65"/>
     <use x="1382.882812" xlink:href="#DejaVuSans-70"/>
     <use x="1446.359375" xlink:href="#DejaVuSans-61"/>
     <use x="1507.638672" xlink:href="#DejaVuSans-72"/>
    </g>
   </g>
  </g>
 </g>
 <defs>
  <clipPath id="pd8ef9243be">
   <rect height="271.296" width="281.088" x="57.6" y="27.648"/>
  </clipPath>
 </defs>
</svg>
