<?xml version="1.0" encoding="utf-8" standalone="no"?>
<!DOCTYPE svg PUBLIC "-//W3C//DTD SVG 1.1//EN"
  "http://www.w3.org/Graphics/SVG/1.1/DTD/svg11.dtd">
<svg height="345.6pt" version="1.1" viewBox="0 0 460.8 345.6" width="460.8pt" xmlns="http://www.w3.org/2000/svg" xmlns:xlink="http://www.w3.org/1999/xlink">
 <metadata>
  <rdf:RDF xmlns:cc="http://creativecommons.org/ns#" xmlns:dc="http://purl.org/dc/elements/1.1/" xmlns:rdf="http://www.w3.org/1999/02/22-rdf-syntax-ns#">
   <cc:Work>
    <dc:type rdf:resource="http://purl.org/dc/dcmitype/StillImage"/>
    <dc:date>2021-04-26T18:31:48.041604</dc:date>
    <dc:format>image/svg+xml</dc:format>
    <dc:creator>
     <cc:Agent>
      <dc:title>Matplotlib v3.4.1, https://matplotlib.org/</dc:title>
     </cc:Agent>
    </dc:creator>
   </cc:Work>
  </rdf:RDF>
 </metadata>
 <defs>
  <style type="text/css">*{stroke-linecap:butt;stroke-linejoin:round;}</style>
 </defs>
 <g id="figure_1">
  <g id="patch_1">
   <path d="M 0 345.6 
L 460.8 345.6 
L 460.8 0 
L 0 0 
z
" style="fill:#ffffff;"/>
  </g>
  <g id="axes_1">
   <g id="patch_2">
    <path d="M 57.6 298.944 
L 338.688 298.944 
L 338.688 27.648 
L 57.6 27.648 
z
" style="fill:#ffffff;"/>
   </g>
   <g id="line2d_1">
    <path d="M 95.526106 298.944 
L 95.526106 293.677139 
L 99.097574 293.677139 
L 99.097574 288.410278 
L 100.934985 288.410278 
L 100.934985 283.143418 
L 102.060491 283.143418 
L 102.060491 277.876557 
L 103.372333 277.876557 
L 103.372333 272.609696 
L 104.355088 272.609696 
L 104.355088 267.342835 
L 106.168594 267.342835 
L 106.168594 262.075974 
L 115.077025 262.075974 
L 115.077025 256.809114 
L 124.817858 256.809114 
L 124.817858 251.542253 
L 126.372183 251.542253 
L 126.372183 246.275392 
L 127.357715 246.275392 
L 127.357715 241.008531 
L 128.350967 241.008531 
L 128.350967 235.74167 
L 129.233413 235.74167 
L 129.233413 230.47481 
L 129.853291 230.47481 
L 129.853291 225.207949 
L 130.61164 225.207949 
L 130.61164 219.941088 
L 130.978796 219.941088 
L 130.978796 214.674227 
L 131.389151 214.674227 
L 131.389151 209.407366 
L 131.888878 209.407366 
L 131.888878 204.140506 
L 132.230358 204.140506 
L 132.230358 198.873645 
L 132.422528 198.873645 
L 132.422528 193.606784 
L 132.753813 193.606784 
L 132.753813 188.339923 
L 132.986651 188.339923 
L 132.986651 183.073062 
L 133.170708 183.073062 
L 133.170708 177.806202 
L 133.352844 177.806202 
L 133.352844 172.539341 
L 133.57787 172.539341 
L 133.57787 167.27248 
L 133.622529 167.27248 
L 133.622529 162.005619 
L 133.755823 162.005619 
L 133.755823 156.738758 
L 133.844123 156.738758 
L 133.844123 151.471897 
L 133.931979 151.471897 
L 133.931979 146.205037 
L 133.975741 146.205037 
L 133.975741 140.938176 
L 134.062938 140.938176 
L 134.062938 135.671315 
L 134.236034 135.671315 
L 134.236034 130.404454 
L 134.364738 130.404454 
L 134.364738 125.137593 
L 134.407429 125.137593 
L 134.407429 119.870733 
L 134.450015 119.870733 
L 134.450015 109.337011 
L 134.534878 109.337011 
L 134.534878 104.07015 
L 134.61933 104.07015 
L 134.61933 93.536429 
L 134.661403 93.536429 
L 134.661403 83.002707 
L 134.745246 83.002707 
L 134.745246 77.735846 
L 134.787017 77.735846 
L 134.787017 72.468985 
L 134.870259 72.468985 
L 134.870259 67.202125 
L 134.911732 67.202125 
L 134.911732 61.935264 
L 134.953107 61.935264 
L 134.953107 56.668403 
L 134.994383 56.668403 
L 134.994383 51.401542 
L 135.035562 51.401542 
L 135.035562 30.334099 
L 338.688 30.334099 
" style="fill:none;stroke:#f5deb3;stroke-linecap:square;stroke-width:4;"/>
   </g>
   <g id="line2d_2">
    <defs>
     <path d="M 0 7.778175 
L 7.778175 0 
L 0 -7.778175 
L -7.778175 0 
z
" id="mb064c16f3a" style="stroke:#f5deb3;stroke-linejoin:miter;stroke-width:1.5;"/>
    </defs>
    <g>
     <use style="fill:#f5deb3;stroke:#f5deb3;stroke-linejoin:miter;stroke-width:1.5;" x="133.844123" xlink:href="#mb064c16f3a" y="151.471897"/>
     <use style="fill:#f5deb3;stroke:#f5deb3;stroke-linejoin:miter;stroke-width:1.5;" x="135.035562" xlink:href="#mb064c16f3a" y="51.401542"/>
     <use style="fill:#f5deb3;stroke:#f5deb3;stroke-linejoin:miter;stroke-width:1.5;" x="135.035562" xlink:href="#mb064c16f3a" y="30.334099"/>
     <use style="fill:#f5deb3;stroke:#f5deb3;stroke-linejoin:miter;stroke-width:1.5;" x="135.035562" xlink:href="#mb064c16f3a" y="30.334099"/>
     <use style="fill:#f5deb3;stroke:#f5deb3;stroke-linejoin:miter;stroke-width:1.5;" x="338.688" xlink:href="#mb064c16f3a" y="30.334099"/>
    </g>
   </g>
   <g id="line2d_3">
    <path style="fill:none;stroke:#f5deb3;stroke-linecap:square;stroke-width:4;"/>
    <g/>
   </g>
   <g id="line2d_4">
    <path d="M 338.688 30.334099 
L 369.60768 35.706297 
" style="fill:none;stroke:#f5deb3;stroke-linecap:square;stroke-width:4;"/>
    <g>
     <use style="fill:#f5deb3;stroke:#f5deb3;stroke-linejoin:miter;stroke-width:1.5;" x="338.688" xlink:href="#mb064c16f3a" y="30.334099"/>
     <use style="fill:#f5deb3;stroke:#f5deb3;stroke-linejoin:miter;stroke-width:1.5;" x="369.60768" xlink:href="#mb064c16f3a" y="35.706297"/>
    </g>
   </g>
   <g id="matplotlib.axis_1">
    <g id="xtick_1">
     <g id="line2d_5">
      <path clip-path="url(#p13488bfca6)" d="M 57.6 298.944 
L 57.6 27.648 
" style="fill:none;stroke:#b0b0b0;stroke-linecap:square;stroke-width:0.8;"/>
     </g>
     <g id="line2d_6">
      <defs>
       <path d="M 0 0 
L 0 3.5 
" id="m4377d43a99" style="stroke:#000000;stroke-width:0.8;"/>
      </defs>
      <g>
       <use style="stroke:#000000;stroke-width:0.8;" x="57.6" xlink:href="#m4377d43a99" y="298.944"/>
      </g>
     </g>
     <g id="text_1">
      <!-- 0 -->
      <g transform="translate(51.2375 321.140875)scale(0.2 -0.2)">
       <defs>
        <path d="M 2034 4250 
Q 1547 4250 1301 3770 
Q 1056 3291 1056 2328 
Q 1056 1369 1301 889 
Q 1547 409 2034 409 
Q 2525 409 2770 889 
Q 3016 1369 3016 2328 
Q 3016 3291 2770 3770 
Q 2525 4250 2034 4250 
z
M 2034 4750 
Q 2819 4750 3233 4129 
Q 3647 3509 3647 2328 
Q 3647 1150 3233 529 
Q 2819 -91 2034 -91 
Q 1250 -91 836 529 
Q 422 1150 422 2328 
Q 422 3509 836 4129 
Q 1250 4750 2034 4750 
z
" id="DejaVuSans-30" transform="scale(0.015625)"/>
       </defs>
       <use xlink:href="#DejaVuSans-30"/>
      </g>
     </g>
    </g>
    <g id="xtick_2">
     <g id="line2d_7">
      <path clip-path="url(#p13488bfca6)" d="M 137.910857 298.944 
L 137.910857 27.648 
" style="fill:none;stroke:#b0b0b0;stroke-linecap:square;stroke-width:0.8;"/>
     </g>
     <g id="line2d_8">
      <g>
       <use style="stroke:#000000;stroke-width:0.8;" x="137.910857" xlink:href="#m4377d43a99" y="298.944"/>
      </g>
     </g>
     <g id="text_2">
      <!-- 2 -->
      <g transform="translate(131.548357 321.140875)scale(0.2 -0.2)">
       <defs>
        <path d="M 1228 531 
L 3431 531 
L 3431 0 
L 469 0 
L 469 531 
Q 828 903 1448 1529 
Q 2069 2156 2228 2338 
Q 2531 2678 2651 2914 
Q 2772 3150 2772 3378 
Q 2772 3750 2511 3984 
Q 2250 4219 1831 4219 
Q 1534 4219 1204 4116 
Q 875 4013 500 3803 
L 500 4441 
Q 881 4594 1212 4672 
Q 1544 4750 1819 4750 
Q 2544 4750 2975 4387 
Q 3406 4025 3406 3419 
Q 3406 3131 3298 2873 
Q 3191 2616 2906 2266 
Q 2828 2175 2409 1742 
Q 1991 1309 1228 531 
z
" id="DejaVuSans-32" transform="scale(0.015625)"/>
       </defs>
       <use xlink:href="#DejaVuSans-32"/>
      </g>
     </g>
    </g>
    <g id="xtick_3">
     <g id="line2d_9">
      <path clip-path="url(#p13488bfca6)" d="M 218.221714 298.944 
L 218.221714 27.648 
" style="fill:none;stroke:#b0b0b0;stroke-linecap:square;stroke-width:0.8;"/>
     </g>
     <g id="line2d_10">
      <g>
       <use style="stroke:#000000;stroke-width:0.8;" x="218.221714" xlink:href="#m4377d43a99" y="298.944"/>
      </g>
     </g>
     <g id="text_3">
      <!-- 4 -->
      <g transform="translate(211.859214 321.140875)scale(0.2 -0.2)">
       <defs>
        <path d="M 2419 4116 
L 825 1625 
L 2419 1625 
L 2419 4116 
z
M 2253 4666 
L 3047 4666 
L 3047 1625 
L 3713 1625 
L 3713 1100 
L 3047 1100 
L 3047 0 
L 2419 0 
L 2419 1100 
L 313 1100 
L 313 1709 
L 2253 4666 
z
" id="DejaVuSans-34" transform="scale(0.015625)"/>
       </defs>
       <use xlink:href="#DejaVuSans-34"/>
      </g>
     </g>
    </g>
    <g id="xtick_4">
     <g id="line2d_11">
      <path clip-path="url(#p13488bfca6)" d="M 298.532571 298.944 
L 298.532571 27.648 
" style="fill:none;stroke:#b0b0b0;stroke-linecap:square;stroke-width:0.8;"/>
     </g>
     <g id="line2d_12">
      <g>
       <use style="stroke:#000000;stroke-width:0.8;" x="298.532571" xlink:href="#m4377d43a99" y="298.944"/>
      </g>
     </g>
     <g id="text_4">
      <!-- 6 -->
      <g transform="translate(292.170071 321.140875)scale(0.2 -0.2)">
       <defs>
        <path d="M 2113 2584 
Q 1688 2584 1439 2293 
Q 1191 2003 1191 1497 
Q 1191 994 1439 701 
Q 1688 409 2113 409 
Q 2538 409 2786 701 
Q 3034 994 3034 1497 
Q 3034 2003 2786 2293 
Q 2538 2584 2113 2584 
z
M 3366 4563 
L 3366 3988 
Q 3128 4100 2886 4159 
Q 2644 4219 2406 4219 
Q 1781 4219 1451 3797 
Q 1122 3375 1075 2522 
Q 1259 2794 1537 2939 
Q 1816 3084 2150 3084 
Q 2853 3084 3261 2657 
Q 3669 2231 3669 1497 
Q 3669 778 3244 343 
Q 2819 -91 2113 -91 
Q 1303 -91 875 529 
Q 447 1150 447 2328 
Q 447 3434 972 4092 
Q 1497 4750 2381 4750 
Q 2619 4750 2861 4703 
Q 3103 4656 3366 4563 
z
" id="DejaVuSans-36" transform="scale(0.015625)"/>
       </defs>
       <use xlink:href="#DejaVuSans-36"/>
      </g>
     </g>
    </g>
    <g id="xtick_5">
     <g id="line2d_13">
      <path clip-path="url(#p13488bfca6)" d="M 97.755429 298.944 
L 97.755429 27.648 
" style="fill:none;stroke:#b0b0b0;stroke-linecap:square;stroke-width:0.8;"/>
     </g>
     <g id="line2d_14">
      <defs>
       <path d="M 0 0 
L 0 2 
" id="m0eb55ac94e" style="stroke:#000000;stroke-width:0.6;"/>
      </defs>
      <g>
       <use style="stroke:#000000;stroke-width:0.6;" x="97.755429" xlink:href="#m0eb55ac94e" y="298.944"/>
      </g>
     </g>
    </g>
    <g id="xtick_6">
     <g id="line2d_15">
      <path clip-path="url(#p13488bfca6)" d="M 178.066286 298.944 
L 178.066286 27.648 
" style="fill:none;stroke:#b0b0b0;stroke-linecap:square;stroke-width:0.8;"/>
     </g>
     <g id="line2d_16">
      <g>
       <use style="stroke:#000000;stroke-width:0.6;" x="178.066286" xlink:href="#m0eb55ac94e" y="298.944"/>
      </g>
     </g>
    </g>
    <g id="xtick_7">
     <g id="line2d_17">
      <path clip-path="url(#p13488bfca6)" d="M 258.377143 298.944 
L 258.377143 27.648 
" style="fill:none;stroke:#b0b0b0;stroke-linecap:square;stroke-width:0.8;"/>
     </g>
     <g id="line2d_18">
      <g>
       <use style="stroke:#000000;stroke-width:0.6;" x="258.377143" xlink:href="#m0eb55ac94e" y="298.944"/>
      </g>
     </g>
    </g>
    <g id="xtick_8">
     <g id="line2d_19">
      <path clip-path="url(#p13488bfca6)" d="M 338.688 298.944 
L 338.688 27.648 
" style="fill:none;stroke:#b0b0b0;stroke-linecap:square;stroke-width:0.8;"/>
     </g>
     <g id="line2d_20">
      <g>
       <use style="stroke:#000000;stroke-width:0.6;" x="338.688" xlink:href="#m0eb55ac94e" y="298.944"/>
      </g>
     </g>
    </g>
    <g id="text_5">
     <!-- log10(# f-evals / dimension) -->
     <g transform="translate(77.764078 342.217594)scale(0.17 -0.17)">
      <defs>
       <path d="M 603 4863 
L 1178 4863 
L 1178 0 
L 603 0 
L 603 4863 
z
" id="DejaVuSans-6c" transform="scale(0.015625)"/>
       <path d="M 1959 3097 
Q 1497 3097 1228 2736 
Q 959 2375 959 1747 
Q 959 1119 1226 758 
Q 1494 397 1959 397 
Q 2419 397 2687 759 
Q 2956 1122 2956 1747 
Q 2956 2369 2687 2733 
Q 2419 3097 1959 3097 
z
M 1959 3584 
Q 2709 3584 3137 3096 
Q 3566 2609 3566 1747 
Q 3566 888 3137 398 
Q 2709 -91 1959 -91 
Q 1206 -91 779 398 
Q 353 888 353 1747 
Q 353 2609 779 3096 
Q 1206 3584 1959 3584 
z
" id="DejaVuSans-6f" transform="scale(0.015625)"/>
       <path d="M 2906 1791 
Q 2906 2416 2648 2759 
Q 2391 3103 1925 3103 
Q 1463 3103 1205 2759 
Q 947 2416 947 1791 
Q 947 1169 1205 825 
Q 1463 481 1925 481 
Q 2391 481 2648 825 
Q 2906 1169 2906 1791 
z
M 3481 434 
Q 3481 -459 3084 -895 
Q 2688 -1331 1869 -1331 
Q 1566 -1331 1297 -1286 
Q 1028 -1241 775 -1147 
L 775 -588 
Q 1028 -725 1275 -790 
Q 1522 -856 1778 -856 
Q 2344 -856 2625 -561 
Q 2906 -266 2906 331 
L 2906 616 
Q 2728 306 2450 153 
Q 2172 0 1784 0 
Q 1141 0 747 490 
Q 353 981 353 1791 
Q 353 2603 747 3093 
Q 1141 3584 1784 3584 
Q 2172 3584 2450 3431 
Q 2728 3278 2906 2969 
L 2906 3500 
L 3481 3500 
L 3481 434 
z
" id="DejaVuSans-67" transform="scale(0.015625)"/>
       <path d="M 794 531 
L 1825 531 
L 1825 4091 
L 703 3866 
L 703 4441 
L 1819 4666 
L 2450 4666 
L 2450 531 
L 3481 531 
L 3481 0 
L 794 0 
L 794 531 
z
" id="DejaVuSans-31" transform="scale(0.015625)"/>
       <path d="M 1984 4856 
Q 1566 4138 1362 3434 
Q 1159 2731 1159 2009 
Q 1159 1288 1364 580 
Q 1569 -128 1984 -844 
L 1484 -844 
Q 1016 -109 783 600 
Q 550 1309 550 2009 
Q 550 2706 781 3412 
Q 1013 4119 1484 4856 
L 1984 4856 
z
" id="DejaVuSans-28" transform="scale(0.015625)"/>
       <path d="M 3272 2816 
L 2363 2816 
L 2100 1772 
L 3016 1772 
L 3272 2816 
z
M 2803 4594 
L 2478 3297 
L 3391 3297 
L 3719 4594 
L 4219 4594 
L 3897 3297 
L 4872 3297 
L 4872 2816 
L 3775 2816 
L 3519 1772 
L 4513 1772 
L 4513 1294 
L 3397 1294 
L 3072 0 
L 2572 0 
L 2894 1294 
L 1978 1294 
L 1656 0 
L 1153 0 
L 1478 1294 
L 494 1294 
L 494 1772 
L 1594 1772 
L 1856 2816 
L 850 2816 
L 850 3297 
L 1978 3297 
L 2297 4594 
L 2803 4594 
z
" id="DejaVuSans-23" transform="scale(0.015625)"/>
       <path id="DejaVuSans-20" transform="scale(0.015625)"/>
       <path d="M 2375 4863 
L 2375 4384 
L 1825 4384 
Q 1516 4384 1395 4259 
Q 1275 4134 1275 3809 
L 1275 3500 
L 2222 3500 
L 2222 3053 
L 1275 3053 
L 1275 0 
L 697 0 
L 697 3053 
L 147 3053 
L 147 3500 
L 697 3500 
L 697 3744 
Q 697 4328 969 4595 
Q 1241 4863 1831 4863 
L 2375 4863 
z
" id="DejaVuSans-66" transform="scale(0.015625)"/>
       <path d="M 313 2009 
L 1997 2009 
L 1997 1497 
L 313 1497 
L 313 2009 
z
" id="DejaVuSans-2d" transform="scale(0.015625)"/>
       <path d="M 3597 1894 
L 3597 1613 
L 953 1613 
Q 991 1019 1311 708 
Q 1631 397 2203 397 
Q 2534 397 2845 478 
Q 3156 559 3463 722 
L 3463 178 
Q 3153 47 2828 -22 
Q 2503 -91 2169 -91 
Q 1331 -91 842 396 
Q 353 884 353 1716 
Q 353 2575 817 3079 
Q 1281 3584 2069 3584 
Q 2775 3584 3186 3129 
Q 3597 2675 3597 1894 
z
M 3022 2063 
Q 3016 2534 2758 2815 
Q 2500 3097 2075 3097 
Q 1594 3097 1305 2825 
Q 1016 2553 972 2059 
L 3022 2063 
z
" id="DejaVuSans-65" transform="scale(0.015625)"/>
       <path d="M 191 3500 
L 800 3500 
L 1894 563 
L 2988 3500 
L 3597 3500 
L 2284 0 
L 1503 0 
L 191 3500 
z
" id="DejaVuSans-76" transform="scale(0.015625)"/>
       <path d="M 2194 1759 
Q 1497 1759 1228 1600 
Q 959 1441 959 1056 
Q 959 750 1161 570 
Q 1363 391 1709 391 
Q 2188 391 2477 730 
Q 2766 1069 2766 1631 
L 2766 1759 
L 2194 1759 
z
M 3341 1997 
L 3341 0 
L 2766 0 
L 2766 531 
Q 2569 213 2275 61 
Q 1981 -91 1556 -91 
Q 1019 -91 701 211 
Q 384 513 384 1019 
Q 384 1609 779 1909 
Q 1175 2209 1959 2209 
L 2766 2209 
L 2766 2266 
Q 2766 2663 2505 2880 
Q 2244 3097 1772 3097 
Q 1472 3097 1187 3025 
Q 903 2953 641 2809 
L 641 3341 
Q 956 3463 1253 3523 
Q 1550 3584 1831 3584 
Q 2591 3584 2966 3190 
Q 3341 2797 3341 1997 
z
" id="DejaVuSans-61" transform="scale(0.015625)"/>
       <path d="M 2834 3397 
L 2834 2853 
Q 2591 2978 2328 3040 
Q 2066 3103 1784 3103 
Q 1356 3103 1142 2972 
Q 928 2841 928 2578 
Q 928 2378 1081 2264 
Q 1234 2150 1697 2047 
L 1894 2003 
Q 2506 1872 2764 1633 
Q 3022 1394 3022 966 
Q 3022 478 2636 193 
Q 2250 -91 1575 -91 
Q 1294 -91 989 -36 
Q 684 19 347 128 
L 347 722 
Q 666 556 975 473 
Q 1284 391 1588 391 
Q 1994 391 2212 530 
Q 2431 669 2431 922 
Q 2431 1156 2273 1281 
Q 2116 1406 1581 1522 
L 1381 1569 
Q 847 1681 609 1914 
Q 372 2147 372 2553 
Q 372 3047 722 3315 
Q 1072 3584 1716 3584 
Q 2034 3584 2315 3537 
Q 2597 3491 2834 3397 
z
" id="DejaVuSans-73" transform="scale(0.015625)"/>
       <path d="M 1625 4666 
L 2156 4666 
L 531 -594 
L 0 -594 
L 1625 4666 
z
" id="DejaVuSans-2f" transform="scale(0.015625)"/>
       <path d="M 2906 2969 
L 2906 4863 
L 3481 4863 
L 3481 0 
L 2906 0 
L 2906 525 
Q 2725 213 2448 61 
Q 2172 -91 1784 -91 
Q 1150 -91 751 415 
Q 353 922 353 1747 
Q 353 2572 751 3078 
Q 1150 3584 1784 3584 
Q 2172 3584 2448 3432 
Q 2725 3281 2906 2969 
z
M 947 1747 
Q 947 1113 1208 752 
Q 1469 391 1925 391 
Q 2381 391 2643 752 
Q 2906 1113 2906 1747 
Q 2906 2381 2643 2742 
Q 2381 3103 1925 3103 
Q 1469 3103 1208 2742 
Q 947 2381 947 1747 
z
" id="DejaVuSans-64" transform="scale(0.015625)"/>
       <path d="M 603 3500 
L 1178 3500 
L 1178 0 
L 603 0 
L 603 3500 
z
M 603 4863 
L 1178 4863 
L 1178 4134 
L 603 4134 
L 603 4863 
z
" id="DejaVuSans-69" transform="scale(0.015625)"/>
       <path d="M 3328 2828 
Q 3544 3216 3844 3400 
Q 4144 3584 4550 3584 
Q 5097 3584 5394 3201 
Q 5691 2819 5691 2113 
L 5691 0 
L 5113 0 
L 5113 2094 
Q 5113 2597 4934 2840 
Q 4756 3084 4391 3084 
Q 3944 3084 3684 2787 
Q 3425 2491 3425 1978 
L 3425 0 
L 2847 0 
L 2847 2094 
Q 2847 2600 2669 2842 
Q 2491 3084 2119 3084 
Q 1678 3084 1418 2786 
Q 1159 2488 1159 1978 
L 1159 0 
L 581 0 
L 581 3500 
L 1159 3500 
L 1159 2956 
Q 1356 3278 1631 3431 
Q 1906 3584 2284 3584 
Q 2666 3584 2933 3390 
Q 3200 3197 3328 2828 
z
" id="DejaVuSans-6d" transform="scale(0.015625)"/>
       <path d="M 3513 2113 
L 3513 0 
L 2938 0 
L 2938 2094 
Q 2938 2591 2744 2837 
Q 2550 3084 2163 3084 
Q 1697 3084 1428 2787 
Q 1159 2491 1159 1978 
L 1159 0 
L 581 0 
L 581 3500 
L 1159 3500 
L 1159 2956 
Q 1366 3272 1645 3428 
Q 1925 3584 2291 3584 
Q 2894 3584 3203 3211 
Q 3513 2838 3513 2113 
z
" id="DejaVuSans-6e" transform="scale(0.015625)"/>
       <path d="M 513 4856 
L 1013 4856 
Q 1481 4119 1714 3412 
Q 1947 2706 1947 2009 
Q 1947 1309 1714 600 
Q 1481 -109 1013 -844 
L 513 -844 
Q 928 -128 1133 580 
Q 1338 1288 1338 2009 
Q 1338 2731 1133 3434 
Q 928 4138 513 4856 
z
" id="DejaVuSans-29" transform="scale(0.015625)"/>
      </defs>
      <use xlink:href="#DejaVuSans-6c"/>
      <use x="27.783203" xlink:href="#DejaVuSans-6f"/>
      <use x="88.964844" xlink:href="#DejaVuSans-67"/>
      <use x="152.441406" xlink:href="#DejaVuSans-31"/>
      <use x="216.064453" xlink:href="#DejaVuSans-30"/>
      <use x="279.6875" xlink:href="#DejaVuSans-28"/>
      <use x="318.701172" xlink:href="#DejaVuSans-23"/>
      <use x="402.490234" xlink:href="#DejaVuSans-20"/>
      <use x="434.277344" xlink:href="#DejaVuSans-66"/>
      <use x="463.982422" xlink:href="#DejaVuSans-2d"/>
      <use x="500.066406" xlink:href="#DejaVuSans-65"/>
      <use x="561.589844" xlink:href="#DejaVuSans-76"/>
      <use x="620.769531" xlink:href="#DejaVuSans-61"/>
      <use x="682.048828" xlink:href="#DejaVuSans-6c"/>
      <use x="709.832031" xlink:href="#DejaVuSans-73"/>
      <use x="761.931641" xlink:href="#DejaVuSans-20"/>
      <use x="793.71875" xlink:href="#DejaVuSans-2f"/>
      <use x="827.410156" xlink:href="#DejaVuSans-20"/>
      <use x="859.197266" xlink:href="#DejaVuSans-64"/>
      <use x="922.673828" xlink:href="#DejaVuSans-69"/>
      <use x="950.457031" xlink:href="#DejaVuSans-6d"/>
      <use x="1047.869141" xlink:href="#DejaVuSans-65"/>
      <use x="1109.392578" xlink:href="#DejaVuSans-6e"/>
      <use x="1172.771484" xlink:href="#DejaVuSans-73"/>
      <use x="1224.871094" xlink:href="#DejaVuSans-69"/>
      <use x="1252.654297" xlink:href="#DejaVuSans-6f"/>
      <use x="1313.835938" xlink:href="#DejaVuSans-6e"/>
      <use x="1377.214844" xlink:href="#DejaVuSans-29"/>
     </g>
    </g>
   </g>
   <g id="matplotlib.axis_2">
    <g id="ytick_1">
     <g id="line2d_21">
      <path clip-path="url(#p13488bfca6)" d="M 57.6 298.944 
L 338.688 298.944 
" style="fill:none;stroke:#b0b0b0;stroke-linecap:square;stroke-width:0.8;"/>
     </g>
     <g id="line2d_22">
      <defs>
       <path d="M 0 0 
L -3.5 0 
" id="m6f567d5df1" style="stroke:#000000;stroke-width:0.8;"/>
      </defs>
      <g>
       <use style="stroke:#000000;stroke-width:0.8;" x="57.6" xlink:href="#m6f567d5df1" y="298.944"/>
      </g>
     </g>
     <g id="text_6">
      <!-- 0.0 -->
      <g transform="translate(25.155 305.02275)scale(0.16 -0.16)">
       <defs>
        <path d="M 684 794 
L 1344 794 
L 1344 0 
L 684 0 
L 684 794 
z
" id="DejaVuSans-2e" transform="scale(0.015625)"/>
       </defs>
       <use xlink:href="#DejaVuSans-30"/>
       <use x="63.623047" xlink:href="#DejaVuSans-2e"/>
       <use x="95.410156" xlink:href="#DejaVuSans-30"/>
      </g>
     </g>
    </g>
    <g id="ytick_2">
     <g id="line2d_23">
      <path clip-path="url(#p13488bfca6)" d="M 57.6 245.22202 
L 338.688 245.22202 
" style="fill:none;stroke:#b0b0b0;stroke-linecap:square;stroke-width:0.8;"/>
     </g>
     <g id="line2d_24">
      <g>
       <use style="stroke:#000000;stroke-width:0.8;" x="57.6" xlink:href="#m6f567d5df1" y="245.22202"/>
      </g>
     </g>
     <g id="text_7">
      <!-- 0.2 -->
      <g transform="translate(25.155 251.30077)scale(0.16 -0.16)">
       <use xlink:href="#DejaVuSans-30"/>
       <use x="63.623047" xlink:href="#DejaVuSans-2e"/>
       <use x="95.410156" xlink:href="#DejaVuSans-32"/>
      </g>
     </g>
    </g>
    <g id="ytick_3">
     <g id="line2d_25">
      <path clip-path="url(#p13488bfca6)" d="M 57.6 191.50004 
L 338.688 191.50004 
" style="fill:none;stroke:#b0b0b0;stroke-linecap:square;stroke-width:0.8;"/>
     </g>
     <g id="line2d_26">
      <g>
       <use style="stroke:#000000;stroke-width:0.8;" x="57.6" xlink:href="#m6f567d5df1" y="191.50004"/>
      </g>
     </g>
     <g id="text_8">
      <!-- 0.4 -->
      <g transform="translate(25.155 197.57879)scale(0.16 -0.16)">
       <use xlink:href="#DejaVuSans-30"/>
       <use x="63.623047" xlink:href="#DejaVuSans-2e"/>
       <use x="95.410156" xlink:href="#DejaVuSans-34"/>
      </g>
     </g>
    </g>
    <g id="ytick_4">
     <g id="line2d_27">
      <path clip-path="url(#p13488bfca6)" d="M 57.6 137.778059 
L 338.688 137.778059 
" style="fill:none;stroke:#b0b0b0;stroke-linecap:square;stroke-width:0.8;"/>
     </g>
     <g id="line2d_28">
      <g>
       <use style="stroke:#000000;stroke-width:0.8;" x="57.6" xlink:href="#m6f567d5df1" y="137.778059"/>
      </g>
     </g>
     <g id="text_9">
      <!-- 0.6 -->
      <g transform="translate(25.155 143.856809)scale(0.16 -0.16)">
       <use xlink:href="#DejaVuSans-30"/>
       <use x="63.623047" xlink:href="#DejaVuSans-2e"/>
       <use x="95.410156" xlink:href="#DejaVuSans-36"/>
      </g>
     </g>
    </g>
    <g id="ytick_5">
     <g id="line2d_29">
      <path clip-path="url(#p13488bfca6)" d="M 57.6 84.056079 
L 338.688 84.056079 
" style="fill:none;stroke:#b0b0b0;stroke-linecap:square;stroke-width:0.8;"/>
     </g>
     <g id="line2d_30">
      <g>
       <use style="stroke:#000000;stroke-width:0.8;" x="57.6" xlink:href="#m6f567d5df1" y="84.056079"/>
      </g>
     </g>
     <g id="text_10">
      <!-- 0.8 -->
      <g transform="translate(25.155 90.134829)scale(0.16 -0.16)">
       <defs>
        <path d="M 2034 2216 
Q 1584 2216 1326 1975 
Q 1069 1734 1069 1313 
Q 1069 891 1326 650 
Q 1584 409 2034 409 
Q 2484 409 2743 651 
Q 3003 894 3003 1313 
Q 3003 1734 2745 1975 
Q 2488 2216 2034 2216 
z
M 1403 2484 
Q 997 2584 770 2862 
Q 544 3141 544 3541 
Q 544 4100 942 4425 
Q 1341 4750 2034 4750 
Q 2731 4750 3128 4425 
Q 3525 4100 3525 3541 
Q 3525 3141 3298 2862 
Q 3072 2584 2669 2484 
Q 3125 2378 3379 2068 
Q 3634 1759 3634 1313 
Q 3634 634 3220 271 
Q 2806 -91 2034 -91 
Q 1263 -91 848 271 
Q 434 634 434 1313 
Q 434 1759 690 2068 
Q 947 2378 1403 2484 
z
M 1172 3481 
Q 1172 3119 1398 2916 
Q 1625 2713 2034 2713 
Q 2441 2713 2670 2916 
Q 2900 3119 2900 3481 
Q 2900 3844 2670 4047 
Q 2441 4250 2034 4250 
Q 1625 4250 1398 4047 
Q 1172 3844 1172 3481 
z
" id="DejaVuSans-38" transform="scale(0.015625)"/>
       </defs>
       <use xlink:href="#DejaVuSans-30"/>
       <use x="63.623047" xlink:href="#DejaVuSans-2e"/>
       <use x="95.410156" xlink:href="#DejaVuSans-38"/>
      </g>
     </g>
    </g>
    <g id="ytick_6">
     <g id="line2d_31">
      <path clip-path="url(#p13488bfca6)" d="M 57.6 30.334099 
L 338.688 30.334099 
" style="fill:none;stroke:#b0b0b0;stroke-linecap:square;stroke-width:0.8;"/>
     </g>
     <g id="line2d_32">
      <g>
       <use style="stroke:#000000;stroke-width:0.8;" x="57.6" xlink:href="#m6f567d5df1" y="30.334099"/>
      </g>
     </g>
     <g id="text_11">
      <!-- 1.0 -->
      <g transform="translate(25.155 36.412849)scale(0.16 -0.16)">
       <use xlink:href="#DejaVuSans-31"/>
       <use x="63.623047" xlink:href="#DejaVuSans-2e"/>
       <use x="95.410156" xlink:href="#DejaVuSans-30"/>
      </g>
     </g>
    </g>
    <g id="text_12">
     <!-- Fraction of function,target pairs -->
     <g transform="translate(17.619531 297.681)rotate(-90)scale(0.17 -0.17)">
      <defs>
       <path d="M 628 4666 
L 3309 4666 
L 3309 4134 
L 1259 4134 
L 1259 2759 
L 3109 2759 
L 3109 2228 
L 1259 2228 
L 1259 0 
L 628 0 
L 628 4666 
z
" id="DejaVuSans-46" transform="scale(0.015625)"/>
       <path d="M 2631 2963 
Q 2534 3019 2420 3045 
Q 2306 3072 2169 3072 
Q 1681 3072 1420 2755 
Q 1159 2438 1159 1844 
L 1159 0 
L 581 0 
L 581 3500 
L 1159 3500 
L 1159 2956 
Q 1341 3275 1631 3429 
Q 1922 3584 2338 3584 
Q 2397 3584 2469 3576 
Q 2541 3569 2628 3553 
L 2631 2963 
z
" id="DejaVuSans-72" transform="scale(0.015625)"/>
       <path d="M 3122 3366 
L 3122 2828 
Q 2878 2963 2633 3030 
Q 2388 3097 2138 3097 
Q 1578 3097 1268 2742 
Q 959 2388 959 1747 
Q 959 1106 1268 751 
Q 1578 397 2138 397 
Q 2388 397 2633 464 
Q 2878 531 3122 666 
L 3122 134 
Q 2881 22 2623 -34 
Q 2366 -91 2075 -91 
Q 1284 -91 818 406 
Q 353 903 353 1747 
Q 353 2603 823 3093 
Q 1294 3584 2113 3584 
Q 2378 3584 2631 3529 
Q 2884 3475 3122 3366 
z
" id="DejaVuSans-63" transform="scale(0.015625)"/>
       <path d="M 1172 4494 
L 1172 3500 
L 2356 3500 
L 2356 3053 
L 1172 3053 
L 1172 1153 
Q 1172 725 1289 603 
Q 1406 481 1766 481 
L 2356 481 
L 2356 0 
L 1766 0 
Q 1100 0 847 248 
Q 594 497 594 1153 
L 594 3053 
L 172 3053 
L 172 3500 
L 594 3500 
L 594 4494 
L 1172 4494 
z
" id="DejaVuSans-74" transform="scale(0.015625)"/>
       <path d="M 544 1381 
L 544 3500 
L 1119 3500 
L 1119 1403 
Q 1119 906 1312 657 
Q 1506 409 1894 409 
Q 2359 409 2629 706 
Q 2900 1003 2900 1516 
L 2900 3500 
L 3475 3500 
L 3475 0 
L 2900 0 
L 2900 538 
Q 2691 219 2414 64 
Q 2138 -91 1772 -91 
Q 1169 -91 856 284 
Q 544 659 544 1381 
z
M 1991 3584 
L 1991 3584 
z
" id="DejaVuSans-75" transform="scale(0.015625)"/>
       <path d="M 750 794 
L 1409 794 
L 1409 256 
L 897 -744 
L 494 -744 
L 750 256 
L 750 794 
z
" id="DejaVuSans-2c" transform="scale(0.015625)"/>
       <path d="M 1159 525 
L 1159 -1331 
L 581 -1331 
L 581 3500 
L 1159 3500 
L 1159 2969 
Q 1341 3281 1617 3432 
Q 1894 3584 2278 3584 
Q 2916 3584 3314 3078 
Q 3713 2572 3713 1747 
Q 3713 922 3314 415 
Q 2916 -91 2278 -91 
Q 1894 -91 1617 61 
Q 1341 213 1159 525 
z
M 3116 1747 
Q 3116 2381 2855 2742 
Q 2594 3103 2138 3103 
Q 1681 3103 1420 2742 
Q 1159 2381 1159 1747 
Q 1159 1113 1420 752 
Q 1681 391 2138 391 
Q 2594 391 2855 752 
Q 3116 1113 3116 1747 
z
" id="DejaVuSans-70" transform="scale(0.015625)"/>
      </defs>
      <use xlink:href="#DejaVuSans-46"/>
      <use x="50.269531" xlink:href="#DejaVuSans-72"/>
      <use x="91.382812" xlink:href="#DejaVuSans-61"/>
      <use x="152.662109" xlink:href="#DejaVuSans-63"/>
      <use x="207.642578" xlink:href="#DejaVuSans-74"/>
      <use x="246.851562" xlink:href="#DejaVuSans-69"/>
      <use x="274.634766" xlink:href="#DejaVuSans-6f"/>
      <use x="335.816406" xlink:href="#DejaVuSans-6e"/>
      <use x="399.195312" xlink:href="#DejaVuSans-20"/>
      <use x="430.982422" xlink:href="#DejaVuSans-6f"/>
      <use x="492.164062" xlink:href="#DejaVuSans-66"/>
      <use x="527.369141" xlink:href="#DejaVuSans-20"/>
      <use x="559.15625" xlink:href="#DejaVuSans-66"/>
      <use x="594.361328" xlink:href="#DejaVuSans-75"/>
      <use x="657.740234" xlink:href="#DejaVuSans-6e"/>
      <use x="721.119141" xlink:href="#DejaVuSans-63"/>
      <use x="776.099609" xlink:href="#DejaVuSans-74"/>
      <use x="815.308594" xlink:href="#DejaVuSans-69"/>
      <use x="843.091797" xlink:href="#DejaVuSans-6f"/>
      <use x="904.273438" xlink:href="#DejaVuSans-6e"/>
      <use x="967.652344" xlink:href="#DejaVuSans-2c"/>
      <use x="999.439453" xlink:href="#DejaVuSans-74"/>
      <use x="1038.648438" xlink:href="#DejaVuSans-61"/>
      <use x="1099.927734" xlink:href="#DejaVuSans-72"/>
      <use x="1139.291016" xlink:href="#DejaVuSans-67"/>
      <use x="1202.767578" xlink:href="#DejaVuSans-65"/>
      <use x="1264.291016" xlink:href="#DejaVuSans-74"/>
      <use x="1303.5" xlink:href="#DejaVuSans-20"/>
      <use x="1335.287109" xlink:href="#DejaVuSans-70"/>
      <use x="1398.763672" xlink:href="#DejaVuSans-61"/>
      <use x="1460.042969" xlink:href="#DejaVuSans-69"/>
      <use x="1487.826172" xlink:href="#DejaVuSans-72"/>
      <use x="1528.939453" xlink:href="#DejaVuSans-73"/>
     </g>
    </g>
   </g>
   <g id="line2d_33">
    <defs>
     <path d="M 0 1.5 
C 0.397805 1.5 0.77937 1.341951 1.06066 1.06066 
C 1.341951 0.77937 1.5 0.397805 1.5 0 
C 1.5 -0.397805 1.341951 -0.77937 1.06066 -1.06066 
C 0.77937 -1.341951 0.397805 -1.5 0 -1.5 
C -0.397805 -1.5 -0.77937 -1.341951 -1.06066 -1.06066 
C -1.341951 -0.77937 -1.5 -0.397805 -1.5 0 
C -1.5 0.397805 -1.341951 0.77937 -1.06066 1.06066 
C -0.77937 1.341951 -0.397805 1.5 0 1.5 
z
" id="m66766785ae" style="stroke:#f5deb3;"/>
    </defs>
    <g>
     <use style="fill:#f5deb3;stroke:#f5deb3;" x="135.035562" xlink:href="#m66766785ae" y="30.334099"/>
     <use style="fill:#f5deb3;stroke:#f5deb3;" x="135.035562" xlink:href="#m66766785ae" y="30.334099"/>
    </g>
   </g>
   <g id="line2d_34">
    <defs>
     <path d="M 0 1.5 
C 0.397805 1.5 0.77937 1.341951 1.06066 1.06066 
C 1.341951 0.77937 1.5 0.397805 1.5 0 
C 1.5 -0.397805 1.341951 -0.77937 1.06066 -1.06066 
C 0.77937 -1.341951 0.397805 -1.5 0 -1.5 
C -0.397805 -1.5 -0.77937 -1.341951 -1.06066 -1.06066 
C -1.341951 -0.77937 -1.5 -0.397805 -1.5 0 
C -1.5 0.397805 -1.341951 0.77937 -1.06066 1.06066 
C -0.77937 1.341951 -0.397805 1.5 0 1.5 
z
" id="md7760c7d7b" style="stroke:#000080;"/>
    </defs>
    <g>
     <use style="fill:#000080;stroke:#000080;" x="265.416837" xlink:href="#md7760c7d7b" y="198.873645"/>
     <use style="fill:#000080;stroke:#000080;" x="265.416837" xlink:href="#md7760c7d7b" y="198.873645"/>
    </g>
   </g>
   <g id="line2d_35">
    <path d="M 109.491096 298.944 
L 109.491096 297.890628 
L 116.680349 297.890628 
L 116.680349 297.363942 
L 118.576578 297.363942 
L 118.576578 296.837256 
L 122.018385 296.837256 
L 122.018385 296.31057 
L 125.470548 296.31057 
L 125.470548 295.257197 
L 125.752972 295.257197 
L 125.752972 294.203825 
L 126.372183 294.203825 
L 126.372183 293.150453 
L 127.48501 293.150453 
L 127.48501 292.623767 
L 129.290685 292.623767 
L 129.290685 290.517023 
L 130.558552 290.517023 
L 130.558552 289.990337 
L 131.287464 289.990337 
L 131.287464 288.936964 
L 132.422528 288.936964 
L 132.422528 288.410278 
L 132.753813 288.410278 
L 132.753813 287.883592 
L 134.149701 287.883592 
L 134.149701 286.83022 
L 134.321942 286.83022 
L 134.321942 286.303534 
L 134.745246 286.303534 
L 134.745246 285.250162 
L 135.839358 285.250162 
L 135.839358 284.19679 
L 137.343676 284.19679 
L 137.37967 282.616732 
L 137.558536 282.616732 
L 137.558536 281.563359 
L 139.381706 281.563359 
L 139.381706 281.036673 
L 139.509467 281.036673 
L 139.541262 278.929929 
L 140.708409 278.929929 
L 140.79731 277.876557 
L 141.549369 277.876557 
L 141.549369 276.296499 
L 142.778958 276.296499 
L 142.778958 275.769812 
L 144.172816 275.769812 
L 144.172816 275.243126 
L 144.582038 275.243126 
L 144.582038 274.71644 
L 144.77134 274.71644 
L 144.77134 274.189754 
L 145.327221 274.189754 
L 145.327221 273.663068 
L 146.08557 273.663068 
L 146.08557 272.609696 
L 146.324022 272.609696 
L 146.324022 272.08301 
L 147.12355 272.08301 
L 147.12355 271.556324 
L 147.769524 271.556324 
L 147.769524 271.029638 
L 148.025265 271.029638 
L 148.025265 270.502952 
L 148.373289 270.502952 
L 148.373289 269.449579 
L 149.25057 269.449579 
L 149.25057 268.922893 
L 150.849711 268.922893 
L 150.899466 267.869521 
L 151.453659 267.869521 
L 151.453659 267.342835 
L 152.283884 267.342835 
L 152.283884 266.816149 
L 152.405838 266.816149 
L 152.405838 266.289463 
L 153.452361 266.289463 
L 153.452361 265.762777 
L 155.603109 265.762777 
L 155.603109 265.236091 
L 156.077167 265.236091 
L 156.101764 264.182719 
L 156.988292 264.182719 
L 156.988292 263.656033 
L 157.139484 263.656033 
L 157.139484 263.129347 
L 157.266399 263.129347 
L 157.358125 262.075974 
L 157.652944 262.075974 
L 157.652944 261.549288 
L 158.336493 261.549288 
L 158.336493 261.022602 
L 159.129083 261.022602 
L 159.180664 259.96923 
L 159.252621 259.96923 
L 159.252621 259.442544 
L 159.39565 259.442544 
L 159.39565 258.915858 
L 159.567767 258.915858 
L 159.567767 258.389172 
L 160.210625 258.389172 
L 160.210625 257.862486 
L 161.146363 257.862486 
L 161.146363 257.3358 
L 161.867469 257.3358 
L 161.867469 256.809114 
L 162.449267 256.809114 
L 162.449267 256.282427 
L 162.812686 256.282427 
L 162.812686 255.755741 
L 164.295217 255.755741 
L 164.295217 255.229055 
L 166.131092 255.229055 
L 166.131092 254.702369 
L 167.829655 254.702369 
L 167.829655 254.175683 
L 169.105458 254.175683 
L 169.105458 253.648997 
L 169.388841 253.648997 
L 169.388841 253.122311 
L 171.350865 253.122311 
L 171.361114 252.068939 
L 172.52532 252.068939 
L 172.52532 251.542253 
L 173.09576 251.542253 
L 173.105034 250.488881 
L 173.426547 250.488881 
L 173.462916 249.435508 
L 174.074257 249.435508 
L 174.074257 248.908822 
L 176.09661 248.908822 
L 176.09661 248.382136 
L 176.562816 248.382136 
L 176.661386 246.802078 
L 177.855749 246.802078 
L 177.855749 246.275392 
L 179.652162 246.275392 
L 179.652162 245.748706 
L 180.191499 245.748706 
L 180.20076 244.695334 
L 180.485426 244.695334 
L 180.485426 244.168648 
L 180.934995 244.168648 
L 180.934995 243.641962 
L 181.733085 243.641962 
L 181.733085 243.115275 
L 183.063188 243.115275 
L 183.063188 242.588589 
L 183.622426 242.588589 
L 183.622426 242.061903 
L 185.382055 242.061903 
L 185.382055 241.535217 
L 185.598525 241.535217 
L 185.598525 241.008531 
L 185.888232 241.008531 
L 185.888232 240.481845 
L 186.138111 240.481845 
L 186.138111 239.955159 
L 188.017846 239.955159 
L 188.017846 239.428473 
L 188.545937 239.428473 
L 188.545937 238.901787 
L 189.442368 238.901787 
L 189.442368 238.375101 
L 190.201297 238.375101 
L 190.201297 237.848415 
L 192.322662 237.848415 
L 192.322662 237.321729 
L 193.577721 237.321729 
L 193.577721 236.795043 
L 195.019737 236.795043 
L 195.019737 236.268356 
L 195.39434 236.268356 
L 195.39434 235.74167 
L 195.704073 235.74167 
L 195.704073 235.214984 
L 195.892076 235.214984 
L 195.892076 234.688298 
L 196.249817 234.688298 
L 196.355235 233.634926 
L 197.249692 233.634926 
L 197.249692 233.10824 
L 197.997367 233.10824 
L 198.048456 232.054868 
L 198.314794 232.054868 
L 198.314794 231.528182 
L 199.131976 231.528182 
L 199.131976 231.001496 
L 199.780526 231.001496 
L 199.780526 230.47481 
L 200.794781 230.47481 
L 200.842088 229.421437 
L 202.108339 229.421437 
L 202.108339 228.894751 
L 202.746738 228.894751 
L 202.746738 228.368065 
L 203.110559 228.368065 
L 203.112218 227.314693 
L 203.839281 227.314693 
L 203.839281 226.788007 
L 204.375194 226.788007 
L 204.375194 226.261321 
L 205.631999 226.261321 
L 205.631999 225.734635 
L 205.89068 225.734635 
L 205.89068 225.207949 
L 206.513231 225.207949 
L 206.513231 224.681263 
L 207.736154 224.681263 
L 207.773657 223.627891 
L 208.020803 223.627891 
L 208.020803 223.101204 
L 208.517612 223.101204 
L 208.60622 222.047832 
L 208.676904 222.047832 
L 208.676904 221.521146 
L 209.52418 221.521146 
L 209.52418 220.99446 
L 210.634962 220.99446 
L 210.634962 220.467774 
L 211.500141 220.467774 
L 211.577402 219.414402 
L 211.843393 219.414402 
L 211.843393 218.887716 
L 213.475156 218.887716 
L 213.475156 218.36103 
L 214.013929 218.36103 
L 214.013929 217.834344 
L 214.194131 217.834344 
L 214.194131 217.307658 
L 215.341071 217.307658 
L 215.341071 216.780971 
L 216.5098 216.780971 
L 216.618731 215.727599 
L 216.904301 215.727599 
L 216.904301 215.200913 
L 217.087278 215.200913 
L 217.087278 214.674227 
L 218.037281 214.674227 
L 218.072847 213.094169 
L 219.86482 213.094169 
L 219.86482 212.567483 
L 220.40211 212.567483 
L 220.40211 211.514111 
L 222.39137 211.514111 
L 222.39137 210.987425 
L 222.802792 210.987425 
L 222.802792 210.460738 
L 224.102249 210.460738 
L 224.102249 209.934052 
L 226.832265 209.934052 
L 226.832265 209.407366 
L 229.474743 209.407366 
L 229.474743 208.88068 
L 229.713492 208.88068 
L 229.713492 208.353994 
L 230.21773 208.353994 
L 230.21773 207.827308 
L 234.56961 207.827308 
L 234.56961 207.300622 
L 235.199161 207.300622 
L 235.199161 206.773936 
L 236.828548 206.773936 
L 236.828548 205.720564 
L 237.324128 205.720564 
L 237.324128 204.667192 
L 242.279928 204.667192 
L 242.355262 203.613819 
L 245.541388 203.613819 
L 245.541388 203.087133 
L 249.138561 203.087133 
L 249.138561 202.560447 
L 249.390291 202.560447 
L 249.440437 201.507075 
L 251.626161 201.507075 
L 251.626161 200.980389 
L 259.859977 200.980389 
L 259.859977 200.453703 
L 261.517534 200.453703 
L 261.517534 199.927017 
L 262.916437 199.927017 
L 262.916437 199.400331 
L 265.416837 199.400331 
L 265.416837 198.873645 
L 338.688 198.873645 
L 338.688 198.873645 
" style="fill:none;stroke:#000080;stroke-linecap:square;stroke-width:1.5;"/>
   </g>
   <g id="line2d_36">
    <defs>
     <path d="M 0 6 
C 1.591219 6 3.117479 5.367802 4.242641 4.242641 
C 5.367802 3.117479 6 1.591219 6 0 
C 6 -1.591219 5.367802 -3.117479 4.242641 -4.242641 
C 3.117479 -5.367802 1.591219 -6 0 -6 
C -1.591219 -6 -3.117479 -5.367802 -4.242641 -4.242641 
C -5.367802 -3.117479 -6 -1.591219 -6 0 
C -6 1.591219 -5.367802 3.117479 -4.242641 4.242641 
C -3.117479 5.367802 -1.591219 6 0 6 
z
" id="mf14ebe3789" style="stroke:#000080;stroke-width:1.5;"/>
    </defs>
    <g>
     <use style="fill-opacity:0;stroke:#000080;stroke-width:1.5;" x="169.388841" xlink:href="#mf14ebe3789" y="253.648997"/>
     <use style="fill-opacity:0;stroke:#000080;stroke-width:1.5;" x="224.102249" xlink:href="#mf14ebe3789" y="209.934052"/>
     <use style="fill-opacity:0;stroke:#000080;stroke-width:1.5;" x="265.416837" xlink:href="#mf14ebe3789" y="199.400331"/>
     <use style="fill-opacity:0;stroke:#000080;stroke-width:1.5;" x="265.416837" xlink:href="#mf14ebe3789" y="198.873645"/>
     <use style="fill-opacity:0;stroke:#000080;stroke-width:1.5;" x="338.688" xlink:href="#mf14ebe3789" y="198.873645"/>
    </g>
   </g>
   <g id="line2d_37">
    <path style="fill:none;stroke:#000080;stroke-linecap:square;stroke-width:1.5;"/>
    <g/>
   </g>
   <g id="line2d_38">
    <path clip-path="url(#p13488bfca6)" d="M 218.221714 213.094169 
" style="fill:none;stroke:#000080;stroke-linecap:square;stroke-width:1.5;"/>
    <defs>
     <path d="M -12 12 
L 12 -12 
M -12 -12 
L 12 12 
" id="mf9f0c9ee3d" style="stroke:#000080;"/>
    </defs>
    <g clip-path="url(#p13488bfca6)">
     <use style="fill:#000080;stroke:#000080;" x="218.221714" xlink:href="#mf9f0c9ee3d" y="213.094169"/>
    </g>
   </g>
   <g id="line2d_39">
    <defs>
     <path d="M 0 1.5 
C 0.397805 1.5 0.77937 1.341951 1.06066 1.06066 
C 1.341951 0.77937 1.5 0.397805 1.5 0 
C 1.5 -0.397805 1.341951 -0.77937 1.06066 -1.06066 
C 0.77937 -1.341951 0.397805 -1.5 0 -1.5 
C -0.397805 -1.5 -0.77937 -1.341951 -1.06066 -1.06066 
C -1.341951 -0.77937 -1.5 -0.397805 -1.5 0 
C -1.5 0.397805 -1.341951 0.77937 -1.06066 1.06066 
C -0.77937 1.341951 -0.397805 1.5 0 1.5 
z
" id="m4f524d52f5" style="stroke:#ff00ff;"/>
    </defs>
    <g>
     <use style="fill:#ff00ff;stroke:#ff00ff;" x="281.880888" xlink:href="#m4f524d52f5" y="198.873645"/>
     <use style="fill:#ff00ff;stroke:#ff00ff;" x="281.880888" xlink:href="#m4f524d52f5" y="198.873645"/>
    </g>
   </g>
   <g id="line2d_40">
    <path d="M 116.443076 298.944 
L 116.443076 298.417314 
L 121.579085 298.417314 
L 121.579085 297.890628 
L 122.531342 297.890628 
L 122.531342 296.31057 
L 135.076644 296.31057 
L 135.076644 295.783884 
L 137.52291 295.783884 
L 137.52291 294.730511 
L 138.861092 294.730511 
L 138.861092 294.203825 
L 139.058148 294.203825 
L 139.058148 293.677139 
L 139.793552 293.677139 
L 139.793552 292.097081 
L 140.348205 292.097081 
L 140.348205 291.570395 
L 142.673105 291.570395 
L 142.673105 290.517023 
L 148.005725 290.517023 
L 148.005725 289.990337 
L 149.122675 289.990337 
L 149.122675 289.463651 
L 149.770648 289.463651 
L 149.770648 288.936964 
L 150.292822 288.936964 
L 150.37835 287.356906 
L 150.598782 287.356906 
L 150.598782 286.83022 
L 151.015013 286.83022 
L 151.015013 286.303534 
L 151.21133 286.303534 
L 151.21133 285.776848 
L 153.59484 285.776848 
L 153.59484 285.250162 
L 153.722083 285.250162 
L 153.722083 284.19679 
L 155.102793 284.19679 
L 155.102793 282.090045 
L 155.373976 282.090045 
L 155.399584 281.036673 
L 156.333721 281.036673 
L 156.333721 278.929929 
L 156.610446 278.929929 
L 156.658127 277.876557 
L 157.61918 277.876557 
L 157.61918 277.349871 
L 159.466728 277.349871 
L 159.51732 275.243126 
L 160.422949 275.243126 
L 160.422949 274.71644 
L 161.447441 274.71644 
L 161.447441 273.663068 
L 164.039833 273.663068 
L 164.039833 273.136382 
L 165.425523 273.136382 
L 165.425523 272.609696 
L 165.76776 272.609696 
L 165.76776 272.08301 
L 166.96153 272.08301 
L 166.96153 271.556324 
L 167.268694 271.556324 
L 167.268694 270.502952 
L 168.115857 270.502952 
L 168.115857 269.976266 
L 168.391365 269.976266 
L 168.427772 268.922893 
L 168.698434 268.922893 
L 168.793666 267.869521 
L 168.870661 267.869521 
L 168.906082 266.816149 
L 170.234242 266.816149 
L 170.234242 266.289463 
L 171.361114 266.289463 
L 171.361114 265.762777 
L 171.473461 265.762777 
L 171.473461 265.236091 
L 171.80123 265.236091 
L 171.80123 264.709405 
L 172.264595 264.709405 
L 172.264595 263.656033 
L 173.858056 263.656033 
L 173.858056 263.129347 
L 174.287811 263.129347 
L 174.292142 262.075974 
L 174.460223 262.075974 
L 174.460223 261.549288 
L 175.533108 261.549288 
L 175.533108 260.495916 
L 176.037938 260.495916 
L 176.037938 259.96923 
L 176.390886 259.96923 
L 176.390886 259.442544 
L 176.74812 259.442544 
L 176.823193 258.389172 
L 177.270615 258.389172 
L 177.270615 257.862486 
L 177.40517 257.862486 
L 177.40517 257.3358 
L 177.806255 257.3358 
L 177.820411 256.282427 
L 178.135904 256.282427 
L 178.135904 255.755741 
L 178.456026 255.755741 
L 178.456026 255.229055 
L 178.810529 255.229055 
L 178.810529 254.702369 
L 179.617095 254.702369 
L 179.617095 254.175683 
L 179.923915 254.175683 
L 179.923915 253.648997 
L 180.259296 253.648997 
L 180.259296 253.122311 
L 181.865425 253.122311 
L 181.865425 252.595625 
L 182.080091 252.595625 
L 182.080091 252.068939 
L 183.008104 252.068939 
L 183.008104 251.542253 
L 183.315389 251.542253 
L 183.315389 251.015567 
L 183.675606 251.015567 
L 183.675606 250.488881 
L 183.931628 250.488881 
L 183.931628 249.962195 
L 184.124904 249.962195 
L 184.124904 249.435508 
L 187.274865 249.435508 
L 187.274865 248.908822 
L 187.501711 248.908822 
L 187.524031 247.85545 
L 189.973718 247.85545 
L 189.973718 247.328764 
L 201.732637 247.328764 
L 201.732637 246.802078 
L 202.363912 246.802078 
L 202.363912 246.275392 
L 204.162488 246.275392 
L 204.162488 244.695334 
L 204.275374 244.695334 
L 204.275374 244.168648 
L 205.314676 244.168648 
L 205.314676 243.641962 
L 205.462464 243.641962 
L 205.462464 243.115275 
L 205.69077 243.115275 
L 205.69077 242.588589 
L 210.798552 242.588589 
L 210.798552 242.061903 
L 211.187626 242.061903 
L 211.187626 241.535217 
L 211.743047 241.535217 
L 211.789005 240.481845 
L 212.008534 240.481845 
L 212.008534 239.955159 
L 212.958399 239.955159 
L 212.958399 239.428473 
L 213.340937 239.428473 
L 213.340937 238.901787 
L 213.556927 238.901787 
L 213.556927 238.375101 
L 215.267269 238.375101 
L 215.331194 237.321729 
L 215.43258 237.321729 
L 215.43258 236.795043 
L 215.715538 236.795043 
L 215.817522 235.74167 
L 220.395645 235.74167 
L 220.395645 235.214984 
L 220.726263 235.214984 
L 220.726263 234.688298 
L 224.124392 234.688298 
L 224.124392 234.161612 
L 224.603823 234.161612 
L 224.664674 232.581554 
L 224.965072 232.581554 
L 224.965072 232.054868 
L 225.089962 232.054868 
L 225.089962 231.528182 
L 227.144928 231.528182 
L 227.144928 231.001496 
L 227.369507 231.001496 
L 227.478362 229.948123 
L 228.645818 229.948123 
L 228.645818 229.421437 
L 228.894971 229.421437 
L 228.894971 228.894751 
L 231.430521 228.894751 
L 231.430521 228.368065 
L 234.005308 228.368065 
L 234.11347 226.788007 
L 235.900555 226.788007 
L 235.900555 226.261321 
L 236.289288 226.261321 
L 236.289288 225.734635 
L 236.584687 225.734635 
L 236.584687 225.207949 
L 237.243929 225.207949 
L 237.243929 224.681263 
L 240.006405 224.681263 
L 240.046663 223.101204 
L 242.938047 223.101204 
L 242.938047 222.574518 
L 244.362614 222.574518 
L 244.434372 221.521146 
L 245.252044 221.521146 
L 245.252044 220.99446 
L 245.642523 220.99446 
L 245.642523 220.467774 
L 246.207207 220.467774 
L 246.207207 219.941088 
L 247.782237 219.941088 
L 247.782237 219.414402 
L 247.896227 219.414402 
L 247.896227 218.36103 
L 249.009769 218.36103 
L 249.009769 217.834344 
L 249.400448 217.834344 
L 249.400448 217.307658 
L 250.721656 217.307658 
L 250.721656 216.780971 
L 251.422542 216.780971 
L 251.422542 216.254285 
L 253.319808 216.254285 
L 253.330991 215.200913 
L 253.844748 215.200913 
L 253.844748 214.674227 
L 255.517183 214.674227 
L 255.517183 214.147541 
L 255.971189 214.147541 
L 255.971189 213.620855 
L 256.795101 213.620855 
L 256.795101 213.094169 
L 258.103229 213.094169 
L 258.103229 212.567483 
L 259.139658 212.567483 
L 259.139658 212.040797 
L 259.575501 212.040797 
L 259.575501 211.514111 
L 259.79045 211.514111 
L 259.79045 210.987425 
L 260.733841 210.987425 
L 260.785836 209.934052 
L 261.328738 209.934052 
L 261.328738 209.407366 
L 262.742267 209.407366 
L 262.742267 208.88068 
L 264.049764 208.88068 
L 264.049764 208.353994 
L 264.851555 208.353994 
L 264.851555 207.300622 
L 265.266033 207.300622 
L 265.266033 206.773936 
L 266.005879 206.773936 
L 266.005879 206.24725 
L 267.470314 206.24725 
L 267.470314 205.720564 
L 268.131975 205.720564 
L 268.131975 205.193878 
L 269.093713 205.193878 
L 269.093713 204.667192 
L 270.012389 204.667192 
L 270.0196 203.613819 
L 270.885082 203.613819 
L 270.885082 203.087133 
L 271.722717 203.087133 
L 271.722717 202.560447 
L 271.896923 202.560447 
L 271.896923 202.033761 
L 273.2605 202.033761 
L 273.2605 201.507075 
L 274.689021 201.507075 
L 274.698874 200.453703 
L 276.015894 200.453703 
L 276.015894 199.927017 
L 281.402922 199.927017 
L 281.402922 199.400331 
L 281.880888 199.400331 
L 281.880888 198.873645 
L 338.688 198.873645 
L 338.688 198.873645 
" style="fill:none;stroke:#ff00ff;stroke-linecap:square;stroke-width:1.5;"/>
   </g>
   <g id="line2d_41">
    <defs>
     <path d="M 0 8.485281 
L 5.091169 0 
L 0 -8.485281 
L -5.091169 0 
z
" id="m117fa2d970" style="stroke:#ff00ff;stroke-linejoin:miter;stroke-width:1.5;"/>
    </defs>
    <g>
     <use style="fill-opacity:0;stroke:#ff00ff;stroke-linejoin:miter;stroke-width:1.5;" x="164.039833" xlink:href="#m117fa2d970" y="273.663068"/>
     <use style="fill-opacity:0;stroke:#ff00ff;stroke-linejoin:miter;stroke-width:1.5;" x="228.894971" xlink:href="#m117fa2d970" y="228.894751"/>
     <use style="fill-opacity:0;stroke:#ff00ff;stroke-linejoin:miter;stroke-width:1.5;" x="281.880888" xlink:href="#m117fa2d970" y="199.400331"/>
     <use style="fill-opacity:0;stroke:#ff00ff;stroke-linejoin:miter;stroke-width:1.5;" x="281.880888" xlink:href="#m117fa2d970" y="198.873645"/>
     <use style="fill-opacity:0;stroke:#ff00ff;stroke-linejoin:miter;stroke-width:1.5;" x="338.688" xlink:href="#m117fa2d970" y="198.873645"/>
    </g>
   </g>
   <g id="line2d_42">
    <path style="fill:none;stroke:#ff00ff;stroke-linecap:square;stroke-width:1.5;"/>
    <g/>
   </g>
   <g id="line2d_43">
    <path clip-path="url(#p13488bfca6)" d="M 218.221714 235.74167 
" style="fill:none;stroke:#ff00ff;stroke-linecap:square;stroke-width:1.5;"/>
    <defs>
     <path d="M -12 12 
L 12 -12 
M -12 -12 
L 12 12 
" id="m5ad145b579" style="stroke:#ff00ff;"/>
    </defs>
    <g clip-path="url(#p13488bfca6)">
     <use style="fill:#ff00ff;stroke:#ff00ff;" x="218.221714" xlink:href="#m5ad145b579" y="235.74167"/>
    </g>
   </g>
   <g id="line2d_44">
    <defs>
     <path d="M 0 1.5 
C 0.397805 1.5 0.77937 1.341951 1.06066 1.06066 
C 1.341951 0.77937 1.5 0.397805 1.5 0 
C 1.5 -0.397805 1.341951 -0.77937 1.06066 -1.06066 
C 0.77937 -1.341951 0.397805 -1.5 0 -1.5 
C -0.397805 -1.5 -0.77937 -1.341951 -1.06066 -1.06066 
C -1.341951 -0.77937 -1.5 -0.397805 -1.5 0 
C -1.5 0.397805 -1.341951 0.77937 -1.06066 1.06066 
C -0.77937 1.341951 -0.397805 1.5 0 1.5 
z
" id="mbf829a821a" style="stroke:#ff7500;"/>
    </defs>
    <g>
     <use style="fill:#ff7500;stroke:#ff7500;" x="282.109485" xlink:href="#mbf829a821a" y="219.941088"/>
     <use style="fill:#ff7500;stroke:#ff7500;" x="282.109485" xlink:href="#mbf829a821a" y="219.941088"/>
    </g>
   </g>
   <g id="line2d_45">
    <path d="M 100.040467 298.944 
L 100.040467 298.417314 
L 114.685115 298.417314 
L 114.685115 297.363942 
L 116.914437 297.363942 
L 116.914437 296.837256 
L 120.093994 296.837256 
L 120.093994 295.257197 
L 120.665825 295.257197 
L 120.665825 294.730511 
L 125.038147 294.730511 
L 125.038147 294.203825 
L 127.799239 294.203825 
L 127.799239 293.150453 
L 128.168991 293.150453 
L 128.168991 292.623767 
L 131.133813 292.623767 
L 131.185181 291.570395 
L 132.278599 291.570395 
L 132.278599 291.043709 
L 132.986651 291.043709 
L 132.986651 289.990337 
L 133.667073 289.990337 
L 133.667073 288.936964 
L 134.019394 288.936964 
L 134.019394 288.410278 
L 136.073445 288.410278 
L 136.073445 287.883592 
L 136.720123 287.883592 
L 136.720123 286.83022 
L 136.942755 286.83022 
L 136.942755 286.303534 
L 137.70032 286.303534 
L 137.770782 284.723476 
L 138.084384 284.723476 
L 138.084384 283.670104 
L 138.527635 283.670104 
L 138.527635 283.143418 
L 139.793552 283.143418 
L 139.793552 282.616732 
L 140.708409 282.616732 
L 140.708409 281.036673 
L 141.148448 281.036673 
L 141.148448 280.509987 
L 141.577657 280.509987 
L 141.577657 279.983301 
L 145.508645 279.983301 
L 145.508645 278.929929 
L 149.752971 278.929929 
L 149.752971 278.403243 
L 159.108409 278.403243 
L 159.108409 277.349871 
L 160.811875 277.349871 
L 160.811875 276.296499 
L 163.828065 276.296499 
L 163.938192 275.243126 
L 172.049233 275.243126 
L 172.049233 274.71644 
L 172.467718 274.71644 
L 172.467718 274.189754 
L 172.758578 274.189754 
L 172.852895 273.136382 
L 175.058874 273.136382 
L 175.058874 272.609696 
L 176.25985 272.609696 
L 176.25985 272.08301 
L 179.703042 272.08301 
L 179.703042 271.556324 
L 181.052948 271.556324 
L 181.052948 270.502952 
L 181.280686 270.502952 
L 181.390568 269.449579 
L 181.988415 269.449579 
L 181.988415 268.922893 
L 182.116074 268.922893 
L 182.116074 268.396207 
L 183.705922 268.396207 
L 183.773941 267.342835 
L 183.961503 267.342835 
L 183.961503 265.762777 
L 184.132295 265.762777 
L 184.132295 265.236091 
L 184.962035 265.236091 
L 184.962035 264.182719 
L 185.17679 264.182719 
L 185.276265 262.60266 
L 189.389607 262.60266 
L 189.389607 262.075974 
L 191.572148 262.075974 
L 191.572148 261.549288 
L 193.544729 261.549288 
L 193.544729 261.022602 
L 194.122302 261.022602 
L 194.122302 260.495916 
L 194.449797 260.495916 
L 194.449797 259.96923 
L 194.585586 259.96923 
L 194.585586 259.442544 
L 194.765901 259.442544 
L 194.765901 258.915858 
L 195.376252 258.915858 
L 195.376252 258.389172 
L 195.537091 258.389172 
L 195.537091 257.862486 
L 196.848042 257.862486 
L 196.848042 257.3358 
L 197.70349 257.3358 
L 197.70349 256.809114 
L 198.219512 256.809114 
L 198.219512 256.282427 
L 198.405212 256.282427 
L 198.419332 254.702369 
L 199.420355 254.702369 
L 199.420355 254.175683 
L 199.707068 254.175683 
L 199.707068 253.648997 
L 200.439695 253.648997 
L 200.439695 253.122311 
L 200.563983 253.122311 
L 200.563983 252.595625 
L 201.517636 252.595625 
L 201.535805 251.542253 
L 201.718266 251.542253 
L 201.718266 251.015567 
L 202.964769 251.015567 
L 202.964769 250.488881 
L 203.737939 250.488881 
L 203.737939 249.962195 
L 204.00321 249.962195 
L 204.098324 248.908822 
L 204.167955 248.908822 
L 204.167955 248.382136 
L 204.659885 248.382136 
L 204.659885 247.85545 
L 204.809541 247.85545 
L 204.809541 247.328764 
L 205.259756 247.328764 
L 205.259756 246.802078 
L 205.375253 246.802078 
L 205.375253 246.275392 
L 205.642765 246.275392 
L 205.642765 245.748706 
L 206.294816 245.748706 
L 206.294816 245.22202 
L 206.429074 245.22202 
L 206.429074 244.695334 
L 207.961857 244.695334 
L 207.961857 244.168648 
L 208.149291 244.168648 
L 208.149291 243.641962 
L 208.421212 243.641962 
L 208.421212 243.115275 
L 208.742498 243.115275 
L 208.742498 242.588589 
L 209.73199 242.588589 
L 209.73199 242.061903 
L 210.003411 242.061903 
L 210.003411 241.535217 
L 210.255809 241.535217 
L 210.303107 239.955159 
L 211.666517 239.955159 
L 211.765788 238.375101 
L 212.481209 238.375101 
L 212.481209 237.848415 
L 212.662049 237.848415 
L 212.662049 237.321729 
L 212.843881 237.321729 
L 212.843881 236.795043 
L 212.994679 236.795043 
L 212.994679 236.268356 
L 213.16424 236.268356 
L 213.16424 235.74167 
L 213.40036 235.74167 
L 213.40036 235.214984 
L 214.460125 235.214984 
L 214.541292 233.634926 
L 215.038948 233.634926 
L 215.105382 232.581554 
L 215.571994 232.581554 
L 215.571994 232.054868 
L 216.429586 232.054868 
L 216.507876 230.47481 
L 216.553224 230.47481 
L 216.553224 229.948123 
L 216.685136 229.948123 
L 216.685136 229.421437 
L 216.856464 229.421437 
L 216.856464 228.894751 
L 217.953185 228.894751 
L 217.953185 228.368065 
L 218.139206 228.368065 
L 218.194837 227.314693 
L 229.558332 227.314693 
L 229.558332 226.261321 
L 230.268497 226.261321 
L 230.268497 225.207949 
L 236.93741 225.207949 
L 236.93741 224.681263 
L 245.992479 224.681263 
L 245.992479 224.154577 
L 248.949087 224.154577 
L 248.949087 223.627891 
L 249.454987 223.627891 
L 249.454987 223.101204 
L 258.36891 223.101204 
L 258.36891 222.574518 
L 261.549839 222.574518 
L 261.549839 222.047832 
L 265.442674 222.047832 
L 265.442674 221.521146 
L 270.461015 221.521146 
L 270.461015 220.99446 
L 275.695691 220.99446 
L 275.695691 220.467774 
L 282.109485 220.467774 
L 282.109485 219.941088 
L 338.688 219.941088 
L 338.688 219.941088 
" style="fill:none;stroke:#ff7500;stroke-linecap:square;stroke-width:1.5;"/>
   </g>
   <g id="line2d_46">
    <defs>
     <path d="M 0 -6 
L -1.347084 -1.854102 
L -5.706339 -1.854102 
L -2.179628 0.708204 
L -3.526712 4.854102 
L -0 2.291796 
L 3.526712 4.854102 
L 2.179628 0.708204 
L 5.706339 -1.854102 
L 1.347084 -1.854102 
z
" id="m38f1c7a3d6" style="stroke:#ff7500;stroke-linejoin:bevel;stroke-width:1.5;"/>
    </defs>
    <g>
     <use style="fill-opacity:0;stroke:#ff7500;stroke-linejoin:bevel;stroke-width:1.5;" x="163.938192" xlink:href="#m38f1c7a3d6" y="275.769812"/>
     <use style="fill-opacity:0;stroke:#ff7500;stroke-linejoin:bevel;stroke-width:1.5;" x="248.949087" xlink:href="#m38f1c7a3d6" y="223.627891"/>
     <use style="fill-opacity:0;stroke:#ff7500;stroke-linejoin:bevel;stroke-width:1.5;" x="282.109485" xlink:href="#m38f1c7a3d6" y="220.467774"/>
     <use style="fill-opacity:0;stroke:#ff7500;stroke-linejoin:bevel;stroke-width:1.5;" x="282.109485" xlink:href="#m38f1c7a3d6" y="219.941088"/>
     <use style="fill-opacity:0;stroke:#ff7500;stroke-linejoin:bevel;stroke-width:1.5;" x="338.688" xlink:href="#m38f1c7a3d6" y="219.941088"/>
    </g>
   </g>
   <g id="line2d_47">
    <path style="fill:none;stroke:#ff7500;stroke-linecap:square;stroke-width:1.5;"/>
    <g/>
   </g>
   <g id="line2d_48">
    <path clip-path="url(#p13488bfca6)" d="M 218.221714 227.314693 
" style="fill:none;stroke:#ff7500;stroke-linecap:square;stroke-width:1.5;"/>
    <defs>
     <path d="M -12 12 
L 12 -12 
M -12 -12 
L 12 12 
" id="m6556207f14" style="stroke:#ff7500;"/>
    </defs>
    <g clip-path="url(#p13488bfca6)">
     <use style="fill:#ff7500;stroke:#ff7500;" x="218.221714" xlink:href="#m6556207f14" y="227.314693"/>
    </g>
   </g>
   <g id="line2d_49">
    <path d="M 338.688 219.941088 
L 369.60768 293.571802 
" style="fill:none;stroke:#ff7500;stroke-linecap:square;stroke-width:1.5;"/>
    <g>
     <use style="fill-opacity:0;stroke:#ff7500;stroke-linejoin:bevel;stroke-width:1.5;" x="338.688" xlink:href="#m38f1c7a3d6" y="219.941088"/>
     <use style="fill-opacity:0;stroke:#ff7500;stroke-linejoin:bevel;stroke-width:1.5;" x="369.60768" xlink:href="#m38f1c7a3d6" y="293.571802"/>
    </g>
   </g>
   <g id="line2d_50">
    <path d="M 338.688 198.873645 
L 369.60768 207.616634 
" style="fill:none;stroke:#ff00ff;stroke-linecap:square;stroke-width:1.5;"/>
    <g>
     <use style="fill-opacity:0;stroke:#ff00ff;stroke-linejoin:miter;stroke-width:1.5;" x="338.688" xlink:href="#m117fa2d970" y="198.873645"/>
     <use style="fill-opacity:0;stroke:#ff00ff;stroke-linejoin:miter;stroke-width:1.5;" x="369.60768" xlink:href="#m117fa2d970" y="207.616634"/>
    </g>
   </g>
   <g id="line2d_51">
    <path d="M 338.688 198.873645 
L 369.60768 121.661465 
" style="fill:none;stroke:#000080;stroke-linecap:square;stroke-width:1.5;"/>
    <g>
     <use style="fill-opacity:0;stroke:#000080;stroke-width:1.5;" x="338.688" xlink:href="#mf14ebe3789" y="198.873645"/>
     <use style="fill-opacity:0;stroke:#000080;stroke-width:1.5;" x="369.60768" xlink:href="#mf14ebe3789" y="121.661465"/>
    </g>
   </g>
   <g id="line2d_52">
    <path d="M 338.688 298.944 
L 338.688 30.334099 
" style="fill:none;stroke:#000000;stroke-linecap:square;stroke-width:1.5;"/>
   </g>
   <g id="patch_3">
    <path d="M 57.6 298.944 
L 57.6 27.648 
" style="fill:none;stroke:#000000;stroke-linecap:square;stroke-linejoin:miter;stroke-width:0.8;"/>
   </g>
   <g id="patch_4">
    <path d="M 338.688 298.944 
L 338.688 27.648 
" style="fill:none;stroke:#000000;stroke-linecap:square;stroke-linejoin:miter;stroke-width:0.8;"/>
   </g>
   <g id="patch_5">
    <path d="M 57.6 298.944 
L 338.688 298.944 
" style="fill:none;stroke:#000000;stroke-linecap:square;stroke-linejoin:miter;stroke-width:0.8;"/>
   </g>
   <g id="patch_6">
    <path d="M 57.6 27.648 
L 338.688 27.648 
" style="fill:none;stroke:#000000;stroke-linecap:square;stroke-linejoin:miter;stroke-width:0.8;"/>
   </g>
   <g id="text_13">
    <!-- PSO EDA -->
    <g transform="translate(375.22944 298.262739)scale(0.17 -0.17)">
     <defs>
      <path d="M 1259 4147 
L 1259 2394 
L 2053 2394 
Q 2494 2394 2734 2622 
Q 2975 2850 2975 3272 
Q 2975 3691 2734 3919 
Q 2494 4147 2053 4147 
L 1259 4147 
z
M 628 4666 
L 2053 4666 
Q 2838 4666 3239 4311 
Q 3641 3956 3641 3272 
Q 3641 2581 3239 2228 
Q 2838 1875 2053 1875 
L 1259 1875 
L 1259 0 
L 628 0 
L 628 4666 
z
" id="DejaVuSans-50" transform="scale(0.015625)"/>
      <path d="M 3425 4513 
L 3425 3897 
Q 3066 4069 2747 4153 
Q 2428 4238 2131 4238 
Q 1616 4238 1336 4038 
Q 1056 3838 1056 3469 
Q 1056 3159 1242 3001 
Q 1428 2844 1947 2747 
L 2328 2669 
Q 3034 2534 3370 2195 
Q 3706 1856 3706 1288 
Q 3706 609 3251 259 
Q 2797 -91 1919 -91 
Q 1588 -91 1214 -16 
Q 841 59 441 206 
L 441 856 
Q 825 641 1194 531 
Q 1563 422 1919 422 
Q 2459 422 2753 634 
Q 3047 847 3047 1241 
Q 3047 1584 2836 1778 
Q 2625 1972 2144 2069 
L 1759 2144 
Q 1053 2284 737 2584 
Q 422 2884 422 3419 
Q 422 4038 858 4394 
Q 1294 4750 2059 4750 
Q 2388 4750 2728 4690 
Q 3069 4631 3425 4513 
z
" id="DejaVuSans-53" transform="scale(0.015625)"/>
      <path d="M 2522 4238 
Q 1834 4238 1429 3725 
Q 1025 3213 1025 2328 
Q 1025 1447 1429 934 
Q 1834 422 2522 422 
Q 3209 422 3611 934 
Q 4013 1447 4013 2328 
Q 4013 3213 3611 3725 
Q 3209 4238 2522 4238 
z
M 2522 4750 
Q 3503 4750 4090 4092 
Q 4678 3434 4678 2328 
Q 4678 1225 4090 567 
Q 3503 -91 2522 -91 
Q 1538 -91 948 565 
Q 359 1222 359 2328 
Q 359 3434 948 4092 
Q 1538 4750 2522 4750 
z
" id="DejaVuSans-4f" transform="scale(0.015625)"/>
      <path d="M 628 4666 
L 3578 4666 
L 3578 4134 
L 1259 4134 
L 1259 2753 
L 3481 2753 
L 3481 2222 
L 1259 2222 
L 1259 531 
L 3634 531 
L 3634 0 
L 628 0 
L 628 4666 
z
" id="DejaVuSans-45" transform="scale(0.015625)"/>
      <path d="M 1259 4147 
L 1259 519 
L 2022 519 
Q 2988 519 3436 956 
Q 3884 1394 3884 2338 
Q 3884 3275 3436 3711 
Q 2988 4147 2022 4147 
L 1259 4147 
z
M 628 4666 
L 1925 4666 
Q 3281 4666 3915 4102 
Q 4550 3538 4550 2338 
Q 4550 1131 3912 565 
Q 3275 0 1925 0 
L 628 0 
L 628 4666 
z
" id="DejaVuSans-44" transform="scale(0.015625)"/>
      <path d="M 2188 4044 
L 1331 1722 
L 3047 1722 
L 2188 4044 
z
M 1831 4666 
L 2547 4666 
L 4325 0 
L 3669 0 
L 3244 1197 
L 1141 1197 
L 716 0 
L 50 0 
L 1831 4666 
z
" id="DejaVuSans-41" transform="scale(0.015625)"/>
     </defs>
     <use xlink:href="#DejaVuSans-50"/>
     <use x="60.302734" xlink:href="#DejaVuSans-53"/>
     <use x="123.779297" xlink:href="#DejaVuSans-4f"/>
     <use x="202.490234" xlink:href="#DejaVuSans-20"/>
     <use x="234.277344" xlink:href="#DejaVuSans-45"/>
     <use x="297.460938" xlink:href="#DejaVuSans-44"/>
     <use x="372.712891" xlink:href="#DejaVuSans-41"/>
    </g>
   </g>
   <g id="text_14">
    <!-- PSO Bound -->
    <g transform="translate(375.22944 212.307571)scale(0.17 -0.17)">
     <defs>
      <path d="M 1259 2228 
L 1259 519 
L 2272 519 
Q 2781 519 3026 730 
Q 3272 941 3272 1375 
Q 3272 1813 3026 2020 
Q 2781 2228 2272 2228 
L 1259 2228 
z
M 1259 4147 
L 1259 2741 
L 2194 2741 
Q 2656 2741 2882 2914 
Q 3109 3088 3109 3444 
Q 3109 3797 2882 3972 
Q 2656 4147 2194 4147 
L 1259 4147 
z
M 628 4666 
L 2241 4666 
Q 2963 4666 3353 4366 
Q 3744 4066 3744 3513 
Q 3744 3084 3544 2831 
Q 3344 2578 2956 2516 
Q 3422 2416 3680 2098 
Q 3938 1781 3938 1306 
Q 3938 681 3513 340 
Q 3088 0 2303 0 
L 628 0 
L 628 4666 
z
" id="DejaVuSans-42" transform="scale(0.015625)"/>
     </defs>
     <use xlink:href="#DejaVuSans-50"/>
     <use x="60.302734" xlink:href="#DejaVuSans-53"/>
     <use x="123.779297" xlink:href="#DejaVuSans-4f"/>
     <use x="202.490234" xlink:href="#DejaVuSans-20"/>
     <use x="234.277344" xlink:href="#DejaVuSans-42"/>
     <use x="302.880859" xlink:href="#DejaVuSans-6f"/>
     <use x="364.0625" xlink:href="#DejaVuSans-75"/>
     <use x="427.441406" xlink:href="#DejaVuSans-6e"/>
     <use x="490.820312" xlink:href="#DejaVuSans-64"/>
    </g>
   </g>
   <g id="text_15">
    <!-- PSO -->
    <g transform="translate(375.22944 126.352403)scale(0.17 -0.17)">
     <use xlink:href="#DejaVuSans-50"/>
     <use x="60.302734" xlink:href="#DejaVuSans-53"/>
     <use x="123.779297" xlink:href="#DejaVuSans-4f"/>
    </g>
   </g>
   <g id="text_16">
    <!-- best 2009 -->
    <g transform="translate(375.22944 40.397235)scale(0.17 -0.17)">
     <defs>
      <path d="M 3116 1747 
Q 3116 2381 2855 2742 
Q 2594 3103 2138 3103 
Q 1681 3103 1420 2742 
Q 1159 2381 1159 1747 
Q 1159 1113 1420 752 
Q 1681 391 2138 391 
Q 2594 391 2855 752 
Q 3116 1113 3116 1747 
z
M 1159 2969 
Q 1341 3281 1617 3432 
Q 1894 3584 2278 3584 
Q 2916 3584 3314 3078 
Q 3713 2572 3713 1747 
Q 3713 922 3314 415 
Q 2916 -91 2278 -91 
Q 1894 -91 1617 61 
Q 1341 213 1159 525 
L 1159 0 
L 581 0 
L 581 4863 
L 1159 4863 
L 1159 2969 
z
" id="DejaVuSans-62" transform="scale(0.015625)"/>
      <path d="M 703 97 
L 703 672 
Q 941 559 1184 500 
Q 1428 441 1663 441 
Q 2288 441 2617 861 
Q 2947 1281 2994 2138 
Q 2813 1869 2534 1725 
Q 2256 1581 1919 1581 
Q 1219 1581 811 2004 
Q 403 2428 403 3163 
Q 403 3881 828 4315 
Q 1253 4750 1959 4750 
Q 2769 4750 3195 4129 
Q 3622 3509 3622 2328 
Q 3622 1225 3098 567 
Q 2575 -91 1691 -91 
Q 1453 -91 1209 -44 
Q 966 3 703 97 
z
M 1959 2075 
Q 2384 2075 2632 2365 
Q 2881 2656 2881 3163 
Q 2881 3666 2632 3958 
Q 2384 4250 1959 4250 
Q 1534 4250 1286 3958 
Q 1038 3666 1038 3163 
Q 1038 2656 1286 2365 
Q 1534 2075 1959 2075 
z
" id="DejaVuSans-39" transform="scale(0.015625)"/>
     </defs>
     <use xlink:href="#DejaVuSans-62"/>
     <use x="63.476562" xlink:href="#DejaVuSans-65"/>
     <use x="125" xlink:href="#DejaVuSans-73"/>
     <use x="177.099609" xlink:href="#DejaVuSans-74"/>
     <use x="216.308594" xlink:href="#DejaVuSans-20"/>
     <use x="248.095703" xlink:href="#DejaVuSans-32"/>
     <use x="311.71875" xlink:href="#DejaVuSans-30"/>
     <use x="375.341797" xlink:href="#DejaVuSans-30"/>
     <use x="438.964844" xlink:href="#DejaVuSans-39"/>
    </g>
   </g>
   <g id="text_17">
    <!-- bbob f8, 5-D -->
    <g transform="translate(60.41088 38.111366)scale(0.102 -0.102)">
     <defs>
      <path d="M 691 4666 
L 3169 4666 
L 3169 4134 
L 1269 4134 
L 1269 2991 
Q 1406 3038 1543 3061 
Q 1681 3084 1819 3084 
Q 2600 3084 3056 2656 
Q 3513 2228 3513 1497 
Q 3513 744 3044 326 
Q 2575 -91 1722 -91 
Q 1428 -91 1123 -41 
Q 819 9 494 109 
L 494 744 
Q 775 591 1075 516 
Q 1375 441 1709 441 
Q 2250 441 2565 725 
Q 2881 1009 2881 1497 
Q 2881 1984 2565 2268 
Q 2250 2553 1709 2553 
Q 1456 2553 1204 2497 
Q 953 2441 691 2322 
L 691 4666 
z
" id="DejaVuSans-35" transform="scale(0.015625)"/>
     </defs>
     <use xlink:href="#DejaVuSans-62"/>
     <use x="63.476562" xlink:href="#DejaVuSans-62"/>
     <use x="126.953125" xlink:href="#DejaVuSans-6f"/>
     <use x="188.134766" xlink:href="#DejaVuSans-62"/>
     <use x="251.611328" xlink:href="#DejaVuSans-20"/>
     <use x="283.398438" xlink:href="#DejaVuSans-66"/>
     <use x="318.603516" xlink:href="#DejaVuSans-38"/>
     <use x="382.226562" xlink:href="#DejaVuSans-2c"/>
     <use x="414.013672" xlink:href="#DejaVuSans-20"/>
     <use x="445.800781" xlink:href="#DejaVuSans-35"/>
     <use x="509.423828" xlink:href="#DejaVuSans-2d"/>
     <use x="545.507812" xlink:href="#DejaVuSans-44"/>
    </g>
    <!-- 51 targets: 100..1e-08 -->
    <g transform="translate(60.41088 49.533135)scale(0.102 -0.102)">
     <defs>
      <path d="M 750 794 
L 1409 794 
L 1409 0 
L 750 0 
L 750 794 
z
M 750 3309 
L 1409 3309 
L 1409 2516 
L 750 2516 
L 750 3309 
z
" id="DejaVuSans-3a" transform="scale(0.015625)"/>
     </defs>
     <use xlink:href="#DejaVuSans-35"/>
     <use x="63.623047" xlink:href="#DejaVuSans-31"/>
     <use x="127.246094" xlink:href="#DejaVuSans-20"/>
     <use x="159.033203" xlink:href="#DejaVuSans-74"/>
     <use x="198.242188" xlink:href="#DejaVuSans-61"/>
     <use x="259.521484" xlink:href="#DejaVuSans-72"/>
     <use x="298.884766" xlink:href="#DejaVuSans-67"/>
     <use x="362.361328" xlink:href="#DejaVuSans-65"/>
     <use x="423.884766" xlink:href="#DejaVuSans-74"/>
     <use x="463.09375" xlink:href="#DejaVuSans-73"/>
     <use x="515.193359" xlink:href="#DejaVuSans-3a"/>
     <use x="548.884766" xlink:href="#DejaVuSans-20"/>
     <use x="580.671875" xlink:href="#DejaVuSans-31"/>
     <use x="644.294922" xlink:href="#DejaVuSans-30"/>
     <use x="707.917969" xlink:href="#DejaVuSans-30"/>
     <use x="771.541016" xlink:href="#DejaVuSans-2e"/>
     <use x="803.328125" xlink:href="#DejaVuSans-2e"/>
     <use x="835.115234" xlink:href="#DejaVuSans-31"/>
     <use x="898.738281" xlink:href="#DejaVuSans-65"/>
     <use x="960.261719" xlink:href="#DejaVuSans-2d"/>
     <use x="996.345703" xlink:href="#DejaVuSans-30"/>
     <use x="1059.96875" xlink:href="#DejaVuSans-38"/>
    </g>
    <!-- 15 instances -->
    <g transform="translate(60.41088 60.954904)scale(0.102 -0.102)">
     <use xlink:href="#DejaVuSans-31"/>
     <use x="63.623047" xlink:href="#DejaVuSans-35"/>
     <use x="127.246094" xlink:href="#DejaVuSans-20"/>
     <use x="159.033203" xlink:href="#DejaVuSans-69"/>
     <use x="186.816406" xlink:href="#DejaVuSans-6e"/>
     <use x="250.195312" xlink:href="#DejaVuSans-73"/>
     <use x="302.294922" xlink:href="#DejaVuSans-74"/>
     <use x="341.503906" xlink:href="#DejaVuSans-61"/>
     <use x="402.783203" xlink:href="#DejaVuSans-6e"/>
     <use x="466.162109" xlink:href="#DejaVuSans-63"/>
     <use x="521.142578" xlink:href="#DejaVuSans-65"/>
     <use x="582.666016" xlink:href="#DejaVuSans-73"/>
    </g>
   </g>
   <g id="text_18">
    <!-- v2.4 -->
    <g style="fill:#808080;" transform="translate(187.233062 294.151352)scale(0.1 -0.1)">
     <use xlink:href="#DejaVuSans-76"/>
     <use x="59.179688" xlink:href="#DejaVuSans-32"/>
     <use x="122.802734" xlink:href="#DejaVuSans-2e"/>
     <use x="154.589844" xlink:href="#DejaVuSans-34"/>
    </g>
   </g>
   <g id="text_19">
    <!-- 8 Rosenbrock original -->
    <g transform="translate(90.08775 21.648)scale(0.2 -0.2)">
     <defs>
      <path d="M 2841 2188 
Q 3044 2119 3236 1894 
Q 3428 1669 3622 1275 
L 4263 0 
L 3584 0 
L 2988 1197 
Q 2756 1666 2539 1819 
Q 2322 1972 1947 1972 
L 1259 1972 
L 1259 0 
L 628 0 
L 628 4666 
L 2053 4666 
Q 2853 4666 3247 4331 
Q 3641 3997 3641 3322 
Q 3641 2881 3436 2590 
Q 3231 2300 2841 2188 
z
M 1259 4147 
L 1259 2491 
L 2053 2491 
Q 2509 2491 2742 2702 
Q 2975 2913 2975 3322 
Q 2975 3731 2742 3939 
Q 2509 4147 2053 4147 
L 1259 4147 
z
" id="DejaVuSans-52" transform="scale(0.015625)"/>
      <path d="M 581 4863 
L 1159 4863 
L 1159 1991 
L 2875 3500 
L 3609 3500 
L 1753 1863 
L 3688 0 
L 2938 0 
L 1159 1709 
L 1159 0 
L 581 0 
L 581 4863 
z
" id="DejaVuSans-6b" transform="scale(0.015625)"/>
     </defs>
     <use xlink:href="#DejaVuSans-38"/>
     <use x="63.623047" xlink:href="#DejaVuSans-20"/>
     <use x="95.410156" xlink:href="#DejaVuSans-52"/>
     <use x="160.392578" xlink:href="#DejaVuSans-6f"/>
     <use x="221.574219" xlink:href="#DejaVuSans-73"/>
     <use x="273.673828" xlink:href="#DejaVuSans-65"/>
     <use x="335.197266" xlink:href="#DejaVuSans-6e"/>
     <use x="398.576172" xlink:href="#DejaVuSans-62"/>
     <use x="462.052734" xlink:href="#DejaVuSans-72"/>
     <use x="500.916016" xlink:href="#DejaVuSans-6f"/>
     <use x="562.097656" xlink:href="#DejaVuSans-63"/>
     <use x="617.078125" xlink:href="#DejaVuSans-6b"/>
     <use x="674.988281" xlink:href="#DejaVuSans-20"/>
     <use x="706.775391" xlink:href="#DejaVuSans-6f"/>
     <use x="767.957031" xlink:href="#DejaVuSans-72"/>
     <use x="809.070312" xlink:href="#DejaVuSans-69"/>
     <use x="836.853516" xlink:href="#DejaVuSans-67"/>
     <use x="900.330078" xlink:href="#DejaVuSans-69"/>
     <use x="928.113281" xlink:href="#DejaVuSans-6e"/>
     <use x="991.492188" xlink:href="#DejaVuSans-61"/>
     <use x="1052.771484" xlink:href="#DejaVuSans-6c"/>
    </g>
   </g>
  </g>
 </g>
 <defs>
  <clipPath id="p13488bfca6">
   <rect height="271.296" width="281.088" x="57.6" y="27.648"/>
  </clipPath>
 </defs>
</svg>
