<?xml version="1.0" encoding="utf-8" standalone="no"?>
<!DOCTYPE svg PUBLIC "-//W3C//DTD SVG 1.1//EN"
  "http://www.w3.org/Graphics/SVG/1.1/DTD/svg11.dtd">
<svg height="345.6pt" version="1.1" viewBox="0 0 460.8 345.6" width="460.8pt" xmlns="http://www.w3.org/2000/svg" xmlns:xlink="http://www.w3.org/1999/xlink">
 <metadata>
  <rdf:RDF xmlns:cc="http://creativecommons.org/ns#" xmlns:dc="http://purl.org/dc/elements/1.1/" xmlns:rdf="http://www.w3.org/1999/02/22-rdf-syntax-ns#">
   <cc:Work>
    <dc:type rdf:resource="http://purl.org/dc/dcmitype/StillImage"/>
    <dc:date>2021-04-19T22:04:36.382390</dc:date>
    <dc:format>image/svg+xml</dc:format>
    <dc:creator>
     <cc:Agent>
      <dc:title>Matplotlib v3.4.1, https://matplotlib.org/</dc:title>
     </cc:Agent>
    </dc:creator>
   </cc:Work>
  </rdf:RDF>
 </metadata>
 <defs>
  <style type="text/css">*{stroke-linecap:butt;stroke-linejoin:round;}</style>
 </defs>
 <g id="figure_1">
  <g id="patch_1">
   <path d="M 0 345.6 
L 460.8 345.6 
L 460.8 0 
L 0 0 
z
" style="fill:#ffffff;"/>
  </g>
  <g id="axes_1">
   <g id="patch_2">
    <path d="M 0 293.76 
L 460.8 293.76 
L 460.8 3.456 
L 0 3.456 
z
" style="fill:#ffffff;"/>
   </g>
   <g id="matplotlib.axis_1">
    <g id="xtick_1">
     <g id="line2d_1">
      <path clip-path="url(#p72e56508b7)" d="M 99.959916 293.76 
L 99.959916 3.456 
" style="fill:none;stroke:#b0b0b0;stroke-linecap:square;stroke-width:0.8;"/>
     </g>
     <g id="line2d_2">
      <defs>
       <path d="M 0 0 
L 0 3.5 
" id="m8c17524800" style="stroke:#000000;stroke-width:0.8;"/>
      </defs>
      <g>
       <use style="stroke:#000000;stroke-width:0.8;" x="99.959916" xlink:href="#m8c17524800" y="293.76"/>
      </g>
     </g>
     <g id="text_1">
      <!-- -4 -->
      <g transform="translate(89.989603 315.956875)scale(0.2 -0.2)">
       <defs>
        <path d="M 313 2009 
L 1997 2009 
L 1997 1497 
L 313 1497 
L 313 2009 
z
" id="DejaVuSans-2d" transform="scale(0.015625)"/>
        <path d="M 2419 4116 
L 825 1625 
L 2419 1625 
L 2419 4116 
z
M 2253 4666 
L 3047 4666 
L 3047 1625 
L 3713 1625 
L 3713 1100 
L 3047 1100 
L 3047 0 
L 2419 0 
L 2419 1100 
L 313 1100 
L 313 1709 
L 2253 4666 
z
" id="DejaVuSans-34" transform="scale(0.015625)"/>
       </defs>
       <use xlink:href="#DejaVuSans-2d"/>
       <use x="36.083984" xlink:href="#DejaVuSans-34"/>
      </g>
     </g>
    </g>
    <g id="xtick_2">
     <g id="line2d_3">
      <path clip-path="url(#p72e56508b7)" d="M 200.027939 293.76 
L 200.027939 3.456 
" style="fill:none;stroke:#b0b0b0;stroke-linecap:square;stroke-width:0.8;"/>
     </g>
     <g id="line2d_4">
      <g>
       <use style="stroke:#000000;stroke-width:0.8;" x="200.027939" xlink:href="#m8c17524800" y="293.76"/>
      </g>
     </g>
     <g id="text_2">
      <!-- 0 -->
      <g transform="translate(193.665439 315.956875)scale(0.2 -0.2)">
       <defs>
        <path d="M 2034 4250 
Q 1547 4250 1301 3770 
Q 1056 3291 1056 2328 
Q 1056 1369 1301 889 
Q 1547 409 2034 409 
Q 2525 409 2770 889 
Q 3016 1369 3016 2328 
Q 3016 3291 2770 3770 
Q 2525 4250 2034 4250 
z
M 2034 4750 
Q 2819 4750 3233 4129 
Q 3647 3509 3647 2328 
Q 3647 1150 3233 529 
Q 2819 -91 2034 -91 
Q 1250 -91 836 529 
Q 422 1150 422 2328 
Q 422 3509 836 4129 
Q 1250 4750 2034 4750 
z
" id="DejaVuSans-30" transform="scale(0.015625)"/>
       </defs>
       <use xlink:href="#DejaVuSans-30"/>
      </g>
     </g>
    </g>
    <g id="xtick_3">
     <g id="line2d_5">
      <path clip-path="url(#p72e56508b7)" d="M 300.095962 293.76 
L 300.095962 3.456 
" style="fill:none;stroke:#b0b0b0;stroke-linecap:square;stroke-width:0.8;"/>
     </g>
     <g id="line2d_6">
      <g>
       <use style="stroke:#000000;stroke-width:0.8;" x="300.095962" xlink:href="#m8c17524800" y="293.76"/>
      </g>
     </g>
     <g id="text_3">
      <!-- 4 -->
      <g transform="translate(293.733462 315.956875)scale(0.2 -0.2)">
       <use xlink:href="#DejaVuSans-34"/>
      </g>
     </g>
    </g>
    <g id="xtick_4">
     <g id="line2d_7">
      <path clip-path="url(#p72e56508b7)" d="M 400.163986 293.76 
L 400.163986 3.456 
" style="fill:none;stroke:#b0b0b0;stroke-linecap:square;stroke-width:0.8;"/>
     </g>
     <g id="line2d_8">
      <g>
       <use style="stroke:#000000;stroke-width:0.8;" x="400.163986" xlink:href="#m8c17524800" y="293.76"/>
      </g>
     </g>
     <g id="text_4">
      <!-- 8 -->
      <g transform="translate(393.801486 315.956875)scale(0.2 -0.2)">
       <defs>
        <path d="M 2034 2216 
Q 1584 2216 1326 1975 
Q 1069 1734 1069 1313 
Q 1069 891 1326 650 
Q 1584 409 2034 409 
Q 2484 409 2743 651 
Q 3003 894 3003 1313 
Q 3003 1734 2745 1975 
Q 2488 2216 2034 2216 
z
M 1403 2484 
Q 997 2584 770 2862 
Q 544 3141 544 3541 
Q 544 4100 942 4425 
Q 1341 4750 2034 4750 
Q 2731 4750 3128 4425 
Q 3525 4100 3525 3541 
Q 3525 3141 3298 2862 
Q 3072 2584 2669 2484 
Q 3125 2378 3379 2068 
Q 3634 1759 3634 1313 
Q 3634 634 3220 271 
Q 2806 -91 2034 -91 
Q 1263 -91 848 271 
Q 434 634 434 1313 
Q 434 1759 690 2068 
Q 947 2378 1403 2484 
z
M 1172 3481 
Q 1172 3119 1398 2916 
Q 1625 2713 2034 2713 
Q 2441 2713 2670 2916 
Q 2900 3119 2900 3481 
Q 2900 3844 2670 4047 
Q 2441 4250 2034 4250 
Q 1625 4250 1398 4047 
Q 1172 3844 1172 3481 
z
" id="DejaVuSans-38" transform="scale(0.015625)"/>
       </defs>
       <use xlink:href="#DejaVuSans-38"/>
      </g>
     </g>
    </g>
    <g id="text_5">
     <!-- log10 of Df -->
     <g transform="translate(175.214063 339.313125)scale(0.2 -0.2)">
      <defs>
       <path d="M 603 4863 
L 1178 4863 
L 1178 0 
L 603 0 
L 603 4863 
z
" id="DejaVuSans-6c" transform="scale(0.015625)"/>
       <path d="M 1959 3097 
Q 1497 3097 1228 2736 
Q 959 2375 959 1747 
Q 959 1119 1226 758 
Q 1494 397 1959 397 
Q 2419 397 2687 759 
Q 2956 1122 2956 1747 
Q 2956 2369 2687 2733 
Q 2419 3097 1959 3097 
z
M 1959 3584 
Q 2709 3584 3137 3096 
Q 3566 2609 3566 1747 
Q 3566 888 3137 398 
Q 2709 -91 1959 -91 
Q 1206 -91 779 398 
Q 353 888 353 1747 
Q 353 2609 779 3096 
Q 1206 3584 1959 3584 
z
" id="DejaVuSans-6f" transform="scale(0.015625)"/>
       <path d="M 2906 1791 
Q 2906 2416 2648 2759 
Q 2391 3103 1925 3103 
Q 1463 3103 1205 2759 
Q 947 2416 947 1791 
Q 947 1169 1205 825 
Q 1463 481 1925 481 
Q 2391 481 2648 825 
Q 2906 1169 2906 1791 
z
M 3481 434 
Q 3481 -459 3084 -895 
Q 2688 -1331 1869 -1331 
Q 1566 -1331 1297 -1286 
Q 1028 -1241 775 -1147 
L 775 -588 
Q 1028 -725 1275 -790 
Q 1522 -856 1778 -856 
Q 2344 -856 2625 -561 
Q 2906 -266 2906 331 
L 2906 616 
Q 2728 306 2450 153 
Q 2172 0 1784 0 
Q 1141 0 747 490 
Q 353 981 353 1791 
Q 353 2603 747 3093 
Q 1141 3584 1784 3584 
Q 2172 3584 2450 3431 
Q 2728 3278 2906 2969 
L 2906 3500 
L 3481 3500 
L 3481 434 
z
" id="DejaVuSans-67" transform="scale(0.015625)"/>
       <path d="M 794 531 
L 1825 531 
L 1825 4091 
L 703 3866 
L 703 4441 
L 1819 4666 
L 2450 4666 
L 2450 531 
L 3481 531 
L 3481 0 
L 794 0 
L 794 531 
z
" id="DejaVuSans-31" transform="scale(0.015625)"/>
       <path id="DejaVuSans-20" transform="scale(0.015625)"/>
       <path d="M 2375 4863 
L 2375 4384 
L 1825 4384 
Q 1516 4384 1395 4259 
Q 1275 4134 1275 3809 
L 1275 3500 
L 2222 3500 
L 2222 3053 
L 1275 3053 
L 1275 0 
L 697 0 
L 697 3053 
L 147 3053 
L 147 3500 
L 697 3500 
L 697 3744 
Q 697 4328 969 4595 
Q 1241 4863 1831 4863 
L 2375 4863 
z
" id="DejaVuSans-66" transform="scale(0.015625)"/>
       <path d="M 1259 4147 
L 1259 519 
L 2022 519 
Q 2988 519 3436 956 
Q 3884 1394 3884 2338 
Q 3884 3275 3436 3711 
Q 2988 4147 2022 4147 
L 1259 4147 
z
M 628 4666 
L 1925 4666 
Q 3281 4666 3915 4102 
Q 4550 3538 4550 2338 
Q 4550 1131 3912 565 
Q 3275 0 1925 0 
L 628 0 
L 628 4666 
z
" id="DejaVuSans-44" transform="scale(0.015625)"/>
      </defs>
      <use xlink:href="#DejaVuSans-6c"/>
      <use x="27.783203" xlink:href="#DejaVuSans-6f"/>
      <use x="88.964844" xlink:href="#DejaVuSans-67"/>
      <use x="152.441406" xlink:href="#DejaVuSans-31"/>
      <use x="216.064453" xlink:href="#DejaVuSans-30"/>
      <use x="279.6875" xlink:href="#DejaVuSans-20"/>
      <use x="311.474609" xlink:href="#DejaVuSans-6f"/>
      <use x="372.65625" xlink:href="#DejaVuSans-66"/>
      <use x="407.861328" xlink:href="#DejaVuSans-20"/>
      <use x="439.648438" xlink:href="#DejaVuSans-44"/>
      <use x="516.650391" xlink:href="#DejaVuSans-66"/>
     </g>
    </g>
   </g>
   <g id="matplotlib.axis_2">
    <g id="ytick_1">
     <g id="line2d_9">
      <path clip-path="url(#p72e56508b7)" d="M 0 293.76 
L 460.8 293.76 
" style="fill:none;stroke:#b0b0b0;stroke-linecap:square;stroke-width:0.8;"/>
     </g>
     <g id="line2d_10">
      <defs>
       <path d="M 0 0 
L -3.5 0 
" id="m8c2811ec64" style="stroke:#000000;stroke-width:0.8;"/>
      </defs>
      <g>
       <use style="stroke:#000000;stroke-width:0.8;" x="0" xlink:href="#m8c2811ec64" y="293.76"/>
      </g>
     </g>
    </g>
    <g id="ytick_2">
     <g id="line2d_11">
      <path clip-path="url(#p72e56508b7)" d="M 0 236.274059 
L 460.8 236.274059 
" style="fill:none;stroke:#b0b0b0;stroke-linecap:square;stroke-width:0.8;"/>
     </g>
     <g id="line2d_12">
      <g>
       <use style="stroke:#000000;stroke-width:0.8;" x="0" xlink:href="#m8c2811ec64" y="236.274059"/>
      </g>
     </g>
    </g>
    <g id="ytick_3">
     <g id="line2d_13">
      <path clip-path="url(#p72e56508b7)" d="M 0 178.788119 
L 460.8 178.788119 
" style="fill:none;stroke:#b0b0b0;stroke-linecap:square;stroke-width:0.8;"/>
     </g>
     <g id="line2d_14">
      <g>
       <use style="stroke:#000000;stroke-width:0.8;" x="0" xlink:href="#m8c2811ec64" y="178.788119"/>
      </g>
     </g>
    </g>
    <g id="ytick_4">
     <g id="line2d_15">
      <path clip-path="url(#p72e56508b7)" d="M 0 121.302178 
L 460.8 121.302178 
" style="fill:none;stroke:#b0b0b0;stroke-linecap:square;stroke-width:0.8;"/>
     </g>
     <g id="line2d_16">
      <g>
       <use style="stroke:#000000;stroke-width:0.8;" x="0" xlink:href="#m8c2811ec64" y="121.302178"/>
      </g>
     </g>
    </g>
    <g id="ytick_5">
     <g id="line2d_17">
      <path clip-path="url(#p72e56508b7)" d="M 0 63.816238 
L 460.8 63.816238 
" style="fill:none;stroke:#b0b0b0;stroke-linecap:square;stroke-width:0.8;"/>
     </g>
     <g id="line2d_18">
      <g>
       <use style="stroke:#000000;stroke-width:0.8;" x="0" xlink:href="#m8c2811ec64" y="63.816238"/>
      </g>
     </g>
    </g>
    <g id="ytick_6">
     <g id="line2d_19">
      <path clip-path="url(#p72e56508b7)" d="M 0 6.330297 
L 460.8 6.330297 
" style="fill:none;stroke:#b0b0b0;stroke-linecap:square;stroke-width:0.8;"/>
     </g>
     <g id="line2d_20">
      <g>
       <use style="stroke:#000000;stroke-width:0.8;" x="0" xlink:href="#m8c2811ec64" y="6.330297"/>
      </g>
     </g>
    </g>
   </g>
   <g id="line2d_21">
    <path clip-path="url(#p72e56508b7)" d="M -1 94.475406 
L -0.986012 94.475406 
L -0.986012 90.64301 
L -0.448352 90.64301 
L -0.448352 86.810614 
L -0.279685 86.810614 
L -0.207864 75.313426 
L 199.973032 75.313426 
L 199.973032 33.157069 
L 207.503901 33.157069 
L 207.503901 21.659881 
L 211.909177 21.659881 
L 211.909177 13.995089 
L 217.459158 13.995089 
L 217.459158 6.330297 
L 217.459158 6.330297 
L 460.8 6.330297 
L 460.8 6.330297 
" style="fill:none;stroke:#ff0000;stroke-linecap:square;stroke-width:3;"/>
   </g>
   <g id="line2d_22">
    <path clip-path="url(#p72e56508b7)" d="M 213.590334 293.76 
L 213.590334 289.927604 
L 230.033257 289.927604 
L 230.033257 286.095208 
L 230.980417 286.095208 
L 230.980417 282.262812 
L 231.835558 282.262812 
L 231.882156 274.59802 
L 235.582467 274.59802 
L 235.582467 270.765624 
L 237.979947 270.765624 
L 237.979947 266.933228 
L 238.985202 266.933228 
L 238.985202 263.100832 
L 242.196139 263.100832 
L 242.196139 259.268436 
L 243.330504 259.268436 
L 243.330504 255.43604 
L 243.546486 255.43604 
L 243.581818 247.771248 
L 243.663563 247.771248 
L 243.663563 243.938851 
L 243.92851 243.938851 
L 243.930682 236.274059 
L 244.17868 236.274059 
L 244.17868 232.441663 
L 244.662362 232.441663 
L 244.662362 228.609267 
L 245.008476 228.609267 
L 245.008476 224.776871 
L 245.741642 224.776871 
L 245.741642 220.944475 
L 246.566382 220.944475 
L 246.566382 217.112079 
L 247.681997 217.112079 
L 247.681997 213.279683 
L 247.989539 213.279683 
L 247.997017 205.614891 
L 248.612402 205.614891 
L 248.612402 201.782495 
L 249.90908 201.782495 
L 249.90908 197.950099 
L 251.536457 197.950099 
L 251.646273 190.285307 
L 252.301518 190.285307 
L 252.301518 186.452911 
L 252.720299 186.452911 
L 252.720299 182.620515 
L 253.923095 182.620515 
L 253.923095 178.788119 
L 254.649207 178.788119 
L 254.649207 174.955723 
L 255.000885 174.955723 
L 255.000885 171.123327 
L 255.328265 171.123327 
L 255.328265 167.290931 
L 256.687391 167.290931 
L 256.687391 163.458535 
L 257.63906 163.458535 
L 257.63906 159.626139 
L 257.795052 159.626139 
L 257.795052 155.793743 
L 258.268994 155.793743 
L 258.339854 148.12895 
L 259.301642 148.12895 
L 259.301642 144.296554 
L 259.497544 144.296554 
L 259.497544 140.464158 
L 259.653465 140.464158 
L 259.653465 136.631762 
L 260.633007 136.631762 
L 260.654778 128.96697 
L 260.786138 128.96697 
L 260.786138 125.134574 
L 261.73354 125.134574 
L 261.73354 121.302178 
L 262.354034 121.302178 
L 262.354034 117.469782 
L 265.49399 117.469782 
L 265.49399 113.637386 
L 265.782164 113.637386 
L 265.858628 102.140198 
L 266.337453 102.140198 
L 266.337453 98.307802 
L 268.94524 98.307802 
L 268.94524 94.475406 
L 270.267432 94.475406 
L 270.267432 90.64301 
L 273.2926 90.64301 
L 273.2926 86.810614 
L 274.338724 86.810614 
L 274.338724 82.978218 
L 275.345493 82.978218 
L 275.345493 79.145822 
L 276.407652 79.145822 
L 276.407652 75.313426 
L 278.801527 75.313426 
L 278.801527 71.48103 
L 287.497868 71.48103 
L 287.497868 67.648634 
L 290.39374 67.648634 
L 290.39374 63.816238 
L 340.067592 63.816238 
L 340.067592 59.983842 
L 354.74337 59.983842 
L 354.74337 56.151446 
L 357.231849 56.151446 
L 357.231849 52.31905 
L 359.049223 52.31905 
L 359.049223 48.486653 
L 359.363913 48.486653 
L 359.363913 44.654257 
L 360.606831 44.654257 
L 360.606831 40.821861 
L 362.493797 40.821861 
L 362.493797 36.989465 
L 368.325302 36.989465 
L 368.325302 33.157069 
L 370.320682 33.157069 
L 370.320682 29.324673 
L 370.728359 29.324673 
L 370.728359 25.492277 
L 374.67537 25.492277 
L 374.67537 21.659881 
L 378.10942 21.659881 
L 378.10942 17.827485 
L 379.056661 17.827485 
L 379.056661 13.995089 
L 382.31186 13.995089 
L 382.31186 10.162693 
L 385.713341 10.162693 
L 385.713341 6.330297 
L 385.713341 6.330297 
L 460.8 6.330297 
L 460.8 6.330297 
" style="fill:none;stroke:#00bfbf;stroke-linecap:square;stroke-width:1.5;"/>
   </g>
   <g id="line2d_23">
    <path clip-path="url(#p72e56508b7)" d="M 213.590334 293.76 
L 213.590334 289.927604 
L 223.878816 289.927604 
L 223.878816 286.095208 
L 230.033257 286.095208 
L 230.033257 282.262812 
L 230.980417 282.262812 
L 230.980417 278.430416 
L 231.835558 278.430416 
L 231.882156 270.765624 
L 233.47927 270.765624 
L 233.47927 266.933228 
L 234.941396 266.933228 
L 235.009487 259.268436 
L 235.582467 259.268436 
L 235.582467 255.43604 
L 237.979947 255.43604 
L 237.979947 251.603644 
L 238.985202 251.603644 
L 238.985202 247.771248 
L 239.90361 247.771248 
L 239.90361 243.938851 
L 240.365532 243.938851 
L 240.365532 240.106455 
L 241.137537 240.106455 
L 241.137537 236.274059 
L 243.330504 236.274059 
L 243.330504 232.441663 
L 243.546486 232.441663 
L 243.581818 224.776871 
L 243.663563 224.776871 
L 243.663563 220.944475 
L 243.92851 220.944475 
L 243.970048 213.279683 
L 244.17426 213.279683 
L 244.17426 209.447287 
L 245.658262 209.447287 
L 245.658262 205.614891 
L 245.805936 205.614891 
L 245.911932 197.950099 
L 245.977066 197.950099 
L 245.977066 194.117703 
L 246.818385 194.117703 
L 246.818385 190.285307 
L 247.55628 190.285307 
L 247.55628 186.452911 
L 248.178348 186.452911 
L 248.178348 182.620515 
L 248.7732 182.620515 
L 248.7732 178.788119 
L 249.100477 178.788119 
L 249.175937 171.123327 
L 250.079192 171.123327 
L 250.079192 167.290931 
L 251.721637 167.290931 
L 251.721637 163.458535 
L 252.301518 163.458535 
L 252.301518 159.626139 
L 252.47308 159.626139 
L 252.47308 155.793743 
L 252.68633 155.793743 
L 252.68633 151.961347 
L 253.476979 151.961347 
L 253.476979 148.12895 
L 255.36143 148.12895 
L 255.36143 144.296554 
L 256.687391 144.296554 
L 256.735358 136.631762 
L 257.271543 136.631762 
L 257.271543 132.799366 
L 257.609834 132.799366 
L 257.63906 125.134574 
L 257.795052 125.134574 
L 257.795052 121.302178 
L 258.268994 121.302178 
L 258.339854 113.637386 
L 258.624454 113.637386 
L 258.624454 109.80499 
L 259.871896 109.80499 
L 259.906221 102.140198 
L 260.633007 102.140198 
L 260.654778 94.475406 
L 260.786138 94.475406 
L 260.786138 90.64301 
L 262.354034 90.64301 
L 262.354034 86.810614 
L 264.340985 86.810614 
L 264.340985 82.978218 
L 266.951897 82.978218 
L 267.024342 75.313426 
L 267.356112 75.313426 
L 267.356112 71.48103 
L 271.182175 71.48103 
L 271.182175 67.648634 
L 278.801527 67.648634 
L 278.801527 63.816238 
L 314.666534 63.816238 
L 314.666534 59.983842 
L 327.927125 59.983842 
L 327.927125 56.151446 
L 336.086185 56.151446 
L 336.086185 52.31905 
L 337.904078 52.31905 
L 337.904078 48.486653 
L 339.108695 48.486653 
L 339.108695 44.654257 
L 340.845355 44.654257 
L 340.845355 40.821861 
L 342.085717 40.821861 
L 342.189097 33.157069 
L 342.929404 33.157069 
L 342.929404 29.324673 
L 348.457882 29.324673 
L 348.457882 25.492277 
L 352.35033 25.492277 
L 352.35033 21.659881 
L 355.239416 21.659881 
L 355.300711 13.995089 
L 356.5767 13.995089 
L 356.5767 10.162693 
L 359.260795 10.162693 
L 359.260795 6.330297 
L 359.260795 6.330297 
L 460.8 6.330297 
L 460.8 6.330297 
" style="fill:none;stroke:#bf00bf;stroke-linecap:square;stroke-width:1.5;"/>
   </g>
   <g id="line2d_24">
    <path clip-path="url(#p72e56508b7)" d="M 213.590334 293.76 
L 213.590334 289.927604 
L 218.730498 289.927604 
L 218.730498 286.095208 
L 223.878816 286.095208 
L 223.878816 282.262812 
L 229.036223 282.262812 
L 229.036223 278.430416 
L 230.033257 278.430416 
L 230.033257 274.59802 
L 230.980417 274.59802 
L 230.980417 270.765624 
L 231.82524 270.765624 
L 231.882156 259.268436 
L 232.00422 259.268436 
L 232.00422 255.43604 
L 233.47927 255.43604 
L 233.484951 247.771248 
L 235.009487 247.771248 
L 235.009487 243.938851 
L 235.582467 243.938851 
L 235.582467 240.106455 
L 236.015768 240.106455 
L 236.015768 236.274059 
L 237.38082 236.274059 
L 237.38082 232.441663 
L 237.746195 232.441663 
L 237.746195 228.609267 
L 238.117862 228.609267 
L 238.117862 224.776871 
L 239.25456 224.776871 
L 239.25456 220.944475 
L 239.89392 220.944475 
L 239.89392 217.112079 
L 240.365532 217.112079 
L 240.365532 213.279683 
L 241.137537 213.279683 
L 241.137537 209.447287 
L 242.234495 209.447287 
L 242.234495 205.614891 
L 242.443893 205.614891 
L 242.443893 201.782495 
L 242.683692 201.782495 
L 242.683692 197.950099 
L 243.789688 197.950099 
L 243.789688 194.117703 
L 243.92851 194.117703 
L 243.92851 190.285307 
L 244.17426 190.285307 
L 244.17426 186.452911 
L 244.899979 186.452911 
L 244.899979 182.620515 
L 245.180598 182.620515 
L 245.180598 178.788119 
L 245.805936 178.788119 
L 245.805936 174.955723 
L 245.977066 174.955723 
L 245.977066 171.123327 
L 246.818385 171.123327 
L 246.818385 167.290931 
L 247.402989 167.290931 
L 247.402989 163.458535 
L 248.796845 163.458535 
L 248.796845 159.626139 
L 248.969386 159.626139 
L 248.969386 155.793743 
L 250.717409 155.793743 
L 250.717409 151.961347 
L 251.53006 151.961347 
L 251.53006 148.12895 
L 251.721637 148.12895 
L 251.721637 144.296554 
L 252.47308 144.296554 
L 252.47308 140.464158 
L 252.68633 140.464158 
L 252.68633 136.631762 
L 253.476979 136.631762 
L 253.476979 132.799366 
L 254.059158 132.799366 
L 254.059158 128.96697 
L 255.459839 128.96697 
L 255.459839 125.134574 
L 255.627351 125.134574 
L 255.627351 121.302178 
L 255.738699 121.302178 
L 255.738699 117.469782 
L 256.735358 117.469782 
L 256.773068 109.80499 
L 256.926717 109.80499 
L 256.926717 105.972594 
L 257.271543 105.972594 
L 257.271543 102.140198 
L 257.609834 102.140198 
L 257.63906 94.475406 
L 257.795052 94.475406 
L 257.813736 86.810614 
L 258.557278 86.810614 
L 258.557278 82.978218 
L 258.840888 82.978218 
L 258.840888 79.145822 
L 259.738093 79.145822 
L 259.738093 75.313426 
L 260.654778 75.313426 
L 260.654778 71.48103 
L 261.994922 71.48103 
L 261.994922 67.648634 
L 265.048683 67.648634 
L 265.048683 63.816238 
L 305.028744 63.816238 
L 305.028744 59.983842 
L 313.564146 59.983842 
L 313.564146 56.151446 
L 314.666534 56.151446 
L 314.666534 52.31905 
L 325.628557 52.31905 
L 325.628557 48.486653 
L 325.964754 48.486653 
L 325.964754 44.654257 
L 330.127183 44.654257 
L 330.127183 40.821861 
L 338.810216 40.821861 
L 338.810216 36.989465 
L 339.108695 36.989465 
L 339.108695 33.157069 
L 340.845355 33.157069 
L 340.845355 29.324673 
L 341.481624 29.324673 
L 341.481624 25.492277 
L 341.917739 25.492277 
L 341.917739 21.659881 
L 342.085717 21.659881 
L 342.085717 17.827485 
L 342.929404 17.827485 
L 342.929404 13.995089 
L 343.819005 13.995089 
L 343.819005 10.162693 
L 350.507413 10.162693 
L 350.507413 6.330297 
L 350.507413 6.330297 
L 460.8 6.330297 
L 460.8 6.330297 
" style="fill:none;stroke:#000000;stroke-linecap:square;stroke-width:1.5;"/>
   </g>
   <g id="line2d_25">
    <path clip-path="url(#p72e56508b7)" d="M 211.467137 293.76 
L 211.467137 289.927604 
L 213.469238 289.927604 
L 213.469238 286.095208 
L 213.590334 286.095208 
L 213.590334 282.262812 
L 215.096554 282.262812 
L 215.096554 278.430416 
L 220.082067 278.430416 
L 220.082067 274.59802 
L 222.580078 274.59802 
L 222.580078 270.765624 
L 224.521962 270.765624 
L 224.521962 266.933228 
L 225.701256 266.933228 
L 225.701256 263.100832 
L 226.10536 263.100832 
L 226.119077 255.43604 
L 227.73041 255.43604 
L 227.73041 251.603644 
L 228.357314 251.603644 
L 228.357314 247.771248 
L 228.783722 247.771248 
L 228.783722 243.938851 
L 230.020252 243.938851 
L 230.020252 240.106455 
L 230.770958 240.106455 
L 230.770958 236.274059 
L 231.828993 236.274059 
L 231.841658 228.609267 
L 232.00422 228.609267 
L 232.02803 220.944475 
L 233.448713 220.944475 
L 233.508696 209.447287 
L 233.96598 209.447287 
L 233.96598 205.614891 
L 234.546697 205.614891 
L 234.546697 201.782495 
L 235.340049 201.782495 
L 235.340049 197.950099 
L 236.348226 197.950099 
L 236.348226 194.117703 
L 237.493328 194.117703 
L 237.493328 190.285307 
L 238.263339 190.285307 
L 238.263339 186.452911 
L 238.610325 186.452911 
L 238.610325 182.620515 
L 238.940618 182.620515 
L 238.940618 178.788119 
L 239.059221 178.788119 
L 239.059221 174.955723 
L 242.587622 174.955723 
L 242.688779 167.290931 
L 244.606843 167.290931 
L 244.606843 163.458535 
L 244.937818 163.458535 
L 244.937818 159.626139 
L 245.062951 159.626139 
L 245.062951 155.793743 
L 245.315692 155.793743 
L 245.315692 151.961347 
L 245.591091 151.961347 
L 245.591091 148.12895 
L 245.803481 148.12895 
L 245.803481 144.296554 
L 245.977066 144.296554 
L 245.977066 140.464158 
L 246.399596 140.464158 
L 246.399596 136.631762 
L 246.596007 136.631762 
L 246.596007 132.799366 
L 246.818385 132.799366 
L 246.818385 128.96697 
L 247.069138 128.96697 
L 247.069138 125.134574 
L 247.279442 125.134574 
L 247.279442 121.302178 
L 248.185547 121.302178 
L 248.277631 113.637386 
L 249.45015 113.637386 
L 249.45015 109.80499 
L 250.470004 109.80499 
L 250.470004 105.972594 
L 250.700083 105.972594 
L 250.700083 102.140198 
L 251.059788 102.140198 
L 251.059788 98.307802 
L 251.472263 98.307802 
L 251.472263 94.475406 
L 251.859048 94.475406 
L 251.859048 90.64301 
L 253.178642 90.64301 
L 253.185273 82.978218 
L 253.627601 82.978218 
L 253.627601 79.145822 
L 253.782385 79.145822 
L 253.782385 75.313426 
L 254.485246 75.313426 
L 254.485246 71.48103 
L 255.494336 71.48103 
L 255.494336 67.648634 
L 255.738699 67.648634 
L 255.738699 63.816238 
L 295.313748 63.816238 
L 295.313748 59.983842 
L 305.028744 59.983842 
L 305.028744 56.151446 
L 311.241804 56.151446 
L 311.241804 52.31905 
L 314.666534 52.31905 
L 314.666534 48.486653 
L 323.669303 48.486653 
L 323.669303 44.654257 
L 323.942749 44.654257 
L 323.942749 40.821861 
L 325.628557 40.821861 
L 325.628557 36.989465 
L 325.964754 36.989465 
L 325.964754 33.157069 
L 328.200156 33.157069 
L 328.200156 29.324673 
L 328.821915 29.324673 
L 328.821915 25.492277 
L 330.127183 25.492277 
L 330.127183 21.659881 
L 331.079852 21.659881 
L 331.079852 17.827485 
L 335.596741 17.827485 
L 335.596741 13.995089 
L 339.512329 13.995089 
L 339.512329 10.162693 
L 342.222959 10.162693 
L 342.222959 6.330297 
L 342.222959 6.330297 
L 460.8 6.330297 
L 460.8 6.330297 
" style="fill:none;stroke:#00bfbf;stroke-linecap:square;stroke-width:1.5;"/>
   </g>
   <g id="line2d_26">
    <path clip-path="url(#p72e56508b7)" d="M -1 236.274059 
L 169.471368 236.274059 
L 169.471368 232.441663 
L 169.761318 232.441663 
L 169.761318 228.609267 
L 178.090042 228.609267 
L 178.090042 224.776871 
L 179.619971 224.776871 
L 179.675017 217.112079 
L 184.590209 217.112079 
L 184.590209 213.279683 
L 187.14061 213.279683 
L 187.209419 205.614891 
L 188.547875 205.614891 
L 188.547875 201.782495 
L 189.241228 201.782495 
L 189.241228 197.950099 
L 190.814018 197.950099 
L 190.814018 194.117703 
L 191.231169 194.117703 
L 191.231169 190.285307 
L 193.676449 190.285307 
L 193.676449 186.452911 
L 195.534421 186.452911 
L 195.534421 182.620515 
L 196.301415 182.620515 
L 196.301415 178.788119 
L 221.807699 178.788119 
L 221.807699 174.955723 
L 231.74907 174.955723 
L 231.74907 171.123327 
L 232.698264 171.123327 
L 232.698264 167.290931 
L 232.828223 167.290931 
L 232.889547 159.626139 
L 233.032001 159.626139 
L 233.063766 151.961347 
L 233.211699 151.961347 
L 233.211699 148.12895 
L 233.429597 148.12895 
L 233.508812 140.464158 
L 233.6442 140.464158 
L 233.6442 136.631762 
L 234.737168 136.631762 
L 234.737168 132.799366 
L 235.892949 132.799366 
L 235.96129 125.134574 
L 236.026193 125.134574 
L 236.032109 117.469782 
L 236.633048 117.469782 
L 236.633048 113.637386 
L 236.997378 113.637386 
L 236.997378 109.80499 
L 237.493257 109.80499 
L 237.493257 105.972594 
L 238.554236 105.972594 
L 238.554236 102.140198 
L 238.754304 102.140198 
L 238.774212 94.475406 
L 239.038075 94.475406 
L 239.038075 90.64301 
L 239.193108 90.64301 
L 239.193108 86.810614 
L 239.313102 86.810614 
L 239.313102 82.978218 
L 240.644026 82.978218 
L 240.644026 79.145822 
L 241.632936 79.145822 
L 241.632936 75.313426 
L 241.855716 75.313426 
L 241.855716 71.48103 
L 242.148678 71.48103 
L 242.148678 67.648634 
L 243.484809 67.648634 
L 243.484809 63.816238 
L 257.763956 63.816238 
L 257.763956 59.983842 
L 275.288625 59.983842 
L 275.288625 56.151446 
L 276.080395 56.151446 
L 276.080395 52.31905 
L 280.638439 52.31905 
L 280.638439 48.486653 
L 289.268586 48.486653 
L 289.268586 44.654257 
L 291.025093 44.654257 
L 291.025093 40.821861 
L 291.409894 40.821861 
L 291.409894 36.989465 
L 291.585875 36.989465 
L 291.585875 33.157069 
L 292.868647 33.157069 
L 292.868647 29.324673 
L 293.906606 29.324673 
L 293.906606 25.492277 
L 294.752318 25.492277 
L 294.752318 21.659881 
L 296.983999 21.659881 
L 297.040175 13.995089 
L 297.391651 13.995089 
L 297.486918 6.330297 
L 297.486918 6.330297 
L 460.8 6.330297 
L 460.8 6.330297 
" style="fill:none;stroke:#bf00bf;stroke-linecap:square;stroke-width:1.5;"/>
   </g>
   <g id="line2d_27">
    <path clip-path="url(#p72e56508b7)" d="M -1 236.274059 
L 10.244078 236.274059 
L 10.244078 232.441663 
L 23.472134 232.441663 
L 23.472134 228.609267 
L 26.273641 228.609267 
L 26.273641 224.776871 
L 27.669205 224.776871 
L 27.669205 220.944475 
L 27.892142 220.944475 
L 27.892142 217.112079 
L 32.495232 217.112079 
L 32.495232 213.279683 
L 39.016998 213.279683 
L 39.016998 209.447287 
L 40.340124 209.447287 
L 40.340124 205.614891 
L 40.922439 205.614891 
L 40.922439 201.782495 
L 45.604729 201.782495 
L 45.604729 197.950099 
L 47.289667 197.950099 
L 47.289667 194.117703 
L 49.614948 194.117703 
L 49.614948 190.285307 
L 50.184141 190.285307 
L 50.184141 186.452911 
L 50.630827 186.452911 
L 50.630827 182.620515 
L 58.949415 182.620515 
L 58.949415 178.788119 
L 132.15277 178.788119 
L 132.231927 171.123327 
L 135.919892 171.123327 
L 135.919892 167.290931 
L 138.931009 167.290931 
L 138.931009 163.458535 
L 140.045271 163.458535 
L 140.045271 159.626139 
L 140.829177 159.626139 
L 140.829177 155.793743 
L 142.721011 155.793743 
L 142.721011 151.961347 
L 146.19677 151.961347 
L 146.19677 148.12895 
L 147.186241 148.12895 
L 147.186241 144.296554 
L 148.152669 144.296554 
L 148.152669 140.464158 
L 150.249532 140.464158 
L 150.249532 136.631762 
L 150.488441 136.631762 
L 150.488441 132.799366 
L 150.730698 132.799366 
L 150.730698 128.96697 
L 157.271836 128.96697 
L 157.271836 125.134574 
L 167.610226 125.134574 
L 167.610226 121.302178 
L 184.635498 121.302178 
L 184.635498 117.469782 
L 201.27391 117.469782 
L 201.355543 109.80499 
L 201.872543 109.80499 
L 201.872543 105.972594 
L 207.566276 105.972594 
L 207.578504 98.307802 
L 207.718852 98.307802 
L 207.755936 90.64301 
L 209.075972 90.64301 
L 209.075972 86.810614 
L 209.470679 86.810614 
L 209.570418 79.145822 
L 209.951682 79.145822 
L 209.951682 75.313426 
L 210.390881 75.313426 
L 210.390881 71.48103 
L 210.568918 71.48103 
L 210.568918 67.648634 
L 210.815738 67.648634 
L 210.815738 63.816238 
L 211.789552 63.816238 
L 211.789552 59.983842 
L 211.925348 59.983842 
L 211.925348 56.151446 
L 212.048698 56.151446 
L 212.048698 52.31905 
L 212.166011 52.31905 
L 212.166011 48.486653 
L 214.062199 48.486653 
L 214.062199 44.654257 
L 215.093704 44.654257 
L 215.171514 36.989465 
L 215.213743 36.989465 
L 215.213743 33.157069 
L 215.535826 33.157069 
L 215.535826 29.324673 
L 218.204474 29.324673 
L 218.204474 25.492277 
L 219.150577 25.492277 
L 219.150577 21.659881 
L 219.824995 21.659881 
L 219.824995 17.827485 
L 221.126006 17.827485 
L 221.126006 13.995089 
L 222.347968 13.995089 
L 222.347968 10.162693 
L 223.865059 10.162693 
L 223.865059 6.330297 
L 223.865059 6.330297 
L 460.8 6.330297 
L 460.8 6.330297 
" style="fill:none;stroke:#000000;stroke-linecap:square;stroke-width:1.5;"/>
   </g>
   <g id="line2d_28">
    <path clip-path="url(#p72e56508b7)" d="M -1 94.475406 
L -0.986012 94.475406 
L -0.986012 90.64301 
L -0.448352 90.64301 
L -0.448352 86.810614 
L -0.279685 86.810614 
L -0.207864 75.313426 
L 199.973032 75.313426 
L 199.973032 33.157069 
L 207.503901 33.157069 
L 207.503901 21.659881 
L 211.909177 21.659881 
L 211.909177 13.995089 
L 217.459158 13.995089 
L 217.459158 6.330297 
L 217.459158 6.330297 
L 460.8 6.330297 
L 460.8 6.330297 
" style="fill:none;stroke:#00bfbf;stroke-linecap:square;stroke-width:1.5;"/>
   </g>
   <g id="patch_3">
    <path d="M 0 293.76 
L 0 3.456 
" style="fill:none;stroke:#000000;stroke-linecap:square;stroke-linejoin:miter;stroke-width:0.8;"/>
   </g>
   <g id="patch_4">
    <path d="M 460.8 293.76 
L 460.8 3.456 
" style="fill:none;stroke:#000000;stroke-linecap:square;stroke-linejoin:miter;stroke-width:0.8;"/>
   </g>
   <g id="patch_5">
    <path d="M 0 293.76 
L 460.8 293.76 
" style="fill:none;stroke:#000000;stroke-linecap:square;stroke-linejoin:miter;stroke-width:0.8;"/>
   </g>
   <g id="patch_6">
    <path d="M 0 3.456 
L 460.8 3.456 
" style="fill:none;stroke:#000000;stroke-linecap:square;stroke-linejoin:miter;stroke-width:0.8;"/>
   </g>
   <g id="text_6">
    <!-- {f1-f5}, 5-D -->
    <g transform="translate(331.334 287.95392)scale(0.2 -0.2)">
     <defs>
      <path d="M 3272 -594 
L 3272 -1044 
L 3078 -1044 
Q 2300 -1044 2036 -812 
Q 1772 -581 1772 109 
L 1772 856 
Q 1772 1328 1603 1509 
Q 1434 1691 991 1691 
L 800 1691 
L 800 2138 
L 991 2138 
Q 1438 2138 1605 2317 
Q 1772 2497 1772 2963 
L 1772 3713 
Q 1772 4403 2036 4633 
Q 2300 4863 3078 4863 
L 3272 4863 
L 3272 4416 
L 3059 4416 
Q 2619 4416 2484 4278 
Q 2350 4141 2350 3700 
L 2350 2925 
Q 2350 2434 2208 2212 
Q 2066 1991 1722 1913 
Q 2069 1828 2209 1606 
Q 2350 1384 2350 897 
L 2350 122 
Q 2350 -319 2484 -456 
Q 2619 -594 3059 -594 
L 3272 -594 
z
" id="DejaVuSans-7b" transform="scale(0.015625)"/>
      <path d="M 691 4666 
L 3169 4666 
L 3169 4134 
L 1269 4134 
L 1269 2991 
Q 1406 3038 1543 3061 
Q 1681 3084 1819 3084 
Q 2600 3084 3056 2656 
Q 3513 2228 3513 1497 
Q 3513 744 3044 326 
Q 2575 -91 1722 -91 
Q 1428 -91 1123 -41 
Q 819 9 494 109 
L 494 744 
Q 775 591 1075 516 
Q 1375 441 1709 441 
Q 2250 441 2565 725 
Q 2881 1009 2881 1497 
Q 2881 1984 2565 2268 
Q 2250 2553 1709 2553 
Q 1456 2553 1204 2497 
Q 953 2441 691 2322 
L 691 4666 
z
" id="DejaVuSans-35" transform="scale(0.015625)"/>
      <path d="M 800 -594 
L 1019 -594 
Q 1456 -594 1589 -459 
Q 1722 -325 1722 122 
L 1722 897 
Q 1722 1384 1862 1606 
Q 2003 1828 2350 1913 
Q 2003 1991 1862 2212 
Q 1722 2434 1722 2925 
L 1722 3700 
Q 1722 4144 1589 4280 
Q 1456 4416 1019 4416 
L 800 4416 
L 800 4863 
L 997 4863 
Q 1775 4863 2036 4633 
Q 2297 4403 2297 3713 
L 2297 2963 
Q 2297 2497 2465 2317 
Q 2634 2138 3078 2138 
L 3272 2138 
L 3272 1691 
L 3078 1691 
Q 2634 1691 2465 1509 
Q 2297 1328 2297 856 
L 2297 109 
Q 2297 -581 2036 -812 
Q 1775 -1044 997 -1044 
L 800 -1044 
L 800 -594 
z
" id="DejaVuSans-7d" transform="scale(0.015625)"/>
      <path d="M 750 794 
L 1409 794 
L 1409 256 
L 897 -744 
L 494 -744 
L 750 256 
L 750 794 
z
" id="DejaVuSans-2c" transform="scale(0.015625)"/>
     </defs>
     <use xlink:href="#DejaVuSans-7b"/>
     <use x="63.623047" xlink:href="#DejaVuSans-66"/>
     <use x="98.828125" xlink:href="#DejaVuSans-31"/>
     <use x="162.451172" xlink:href="#DejaVuSans-2d"/>
     <use x="198.535156" xlink:href="#DejaVuSans-66"/>
     <use x="233.740234" xlink:href="#DejaVuSans-35"/>
     <use x="297.363281" xlink:href="#DejaVuSans-7d"/>
     <use x="360.986328" xlink:href="#DejaVuSans-2c"/>
     <use x="392.773438" xlink:href="#DejaVuSans-20"/>
     <use x="424.560547" xlink:href="#DejaVuSans-35"/>
     <use x="488.183594" xlink:href="#DejaVuSans-2d"/>
     <use x="524.267578" xlink:href="#DejaVuSans-44"/>
    </g>
   </g>
   <g id="text_7">
    <!-- v2.4 -->
    <g style="fill:#808080;" transform="translate(219.489063 288.777272)scale(0.1 -0.1)">
     <defs>
      <path d="M 191 3500 
L 800 3500 
L 1894 563 
L 2988 3500 
L 3597 3500 
L 2284 0 
L 1503 0 
L 191 3500 
z
" id="DejaVuSans-76" transform="scale(0.015625)"/>
      <path d="M 1228 531 
L 3431 531 
L 3431 0 
L 469 0 
L 469 531 
Q 828 903 1448 1529 
Q 2069 2156 2228 2338 
Q 2531 2678 2651 2914 
Q 2772 3150 2772 3378 
Q 2772 3750 2511 3984 
Q 2250 4219 1831 4219 
Q 1534 4219 1204 4116 
Q 875 4013 500 3803 
L 500 4441 
Q 881 4594 1212 4672 
Q 1544 4750 1819 4750 
Q 2544 4750 2975 4387 
Q 3406 4025 3406 3419 
Q 3406 3131 3298 2873 
Q 3191 2616 2906 2266 
Q 2828 2175 2409 1742 
Q 1991 1309 1228 531 
z
" id="DejaVuSans-32" transform="scale(0.015625)"/>
      <path d="M 684 794 
L 1344 794 
L 1344 0 
L 684 0 
L 684 794 
z
" id="DejaVuSans-2e" transform="scale(0.015625)"/>
     </defs>
     <use xlink:href="#DejaVuSans-76"/>
     <use x="59.179688" xlink:href="#DejaVuSans-32"/>
     <use x="122.802734" xlink:href="#DejaVuSans-2e"/>
     <use x="154.589844" xlink:href="#DejaVuSans-34"/>
    </g>
   </g>
  </g>
 </g>
 <defs>
  <clipPath id="p72e56508b7">
   <rect height="290.304" width="460.8" x="0" y="3.456"/>
  </clipPath>
 </defs>
</svg>
