<?xml version="1.0" encoding="utf-8" standalone="no"?>
<!DOCTYPE svg PUBLIC "-//W3C//DTD SVG 1.1//EN"
  "http://www.w3.org/Graphics/SVG/1.1/DTD/svg11.dtd">
<svg height="345.6pt" version="1.1" viewBox="0 0 460.8 345.6" width="460.8pt" xmlns="http://www.w3.org/2000/svg" xmlns:xlink="http://www.w3.org/1999/xlink">
 <metadata>
  <rdf:RDF xmlns:cc="http://creativecommons.org/ns#" xmlns:dc="http://purl.org/dc/elements/1.1/" xmlns:rdf="http://www.w3.org/1999/02/22-rdf-syntax-ns#">
   <cc:Work>
    <dc:type rdf:resource="http://purl.org/dc/dcmitype/StillImage"/>
    <dc:date>2021-04-19T22:04:38.780028</dc:date>
    <dc:format>image/svg+xml</dc:format>
    <dc:creator>
     <cc:Agent>
      <dc:title>Matplotlib v3.4.1, https://matplotlib.org/</dc:title>
     </cc:Agent>
    </dc:creator>
   </cc:Work>
  </rdf:RDF>
 </metadata>
 <defs>
  <style type="text/css">*{stroke-linecap:butt;stroke-linejoin:round;}</style>
 </defs>
 <g id="figure_1">
  <g id="patch_1">
   <path d="M 0 345.6 
L 460.8 345.6 
L 460.8 0 
L 0 0 
z
" style="fill:#ffffff;"/>
  </g>
  <g id="axes_1">
   <g id="patch_2">
    <path d="M 62.208 293.76 
L 460.8 293.76 
L 460.8 3.456 
L 62.208 3.456 
z
" style="fill:#ffffff;"/>
   </g>
   <g id="line2d_1">
    <path clip-path="url(#pde0f7ec065)" d="M 206.992135 293.76 
L 206.992135 289.927604 
L 206.992135 289.927604 
L 206.992135 286.095208 
L 206.992135 286.095208 
L 206.992135 282.262812 
L 206.992135 282.262812 
L 206.992135 278.430416 
L 206.992135 278.430416 
L 206.992135 274.59802 
L 206.992135 274.59802 
L 206.992135 270.765624 
L 206.992135 270.765624 
L 206.992135 266.933228 
L 206.992135 266.933228 
L 206.992135 263.100832 
L 206.992135 263.100832 
L 206.992135 259.268436 
L 206.992135 259.268436 
L 206.992135 255.43604 
L 206.992135 255.43604 
L 206.992135 251.603644 
L 206.992135 251.603644 
L 206.992135 247.771248 
L 206.992135 247.771248 
L 206.992135 243.938851 
L 206.992135 243.938851 
L 206.992135 240.106455 
L 206.992135 240.106455 
L 206.992135 236.274059 
L 212.87688 236.274059 
L 212.87688 232.441663 
L 215.582533 232.441663 
L 215.582533 228.609267 
L 215.582533 228.609267 
L 215.582533 224.776871 
L 218.151707 224.776871 
L 218.151707 220.944475 
L 218.151707 220.944475 
L 218.151707 217.112079 
L 218.151707 217.112079 
L 218.151707 213.279683 
L 218.151707 213.279683 
L 218.151707 209.447287 
L 220.597512 209.447287 
L 220.597512 205.614891 
L 220.597512 205.614891 
L 220.597512 201.782495 
L 220.597512 201.782495 
L 220.597512 197.950099 
L 222.931255 197.950099 
L 222.931255 194.117703 
L 222.931255 194.117703 
L 222.931255 190.285307 
L 222.931255 190.285307 
L 222.931255 186.452911 
L 222.931255 186.452911 
L 222.931255 182.620515 
L 225.162757 182.620515 
L 225.162757 178.788119 
L 376.526302 178.788119 
L 376.526302 174.955723 
L 377.413602 174.955723 
L 377.413602 171.123327 
L 378.06908 171.123327 
L 378.06908 167.290931 
L 378.393683 167.290931 
L 378.393683 163.458535 
L 378.716231 163.458535 
L 378.716231 159.626139 
L 379.881736 159.626139 
L 379.881736 155.793743 
L 413.633754 155.793743 
L 413.633754 151.961347 
L 414.06397 151.961347 
L 414.06397 148.12895 
L 414.490584 148.12895 
L 414.490584 144.296554 
L 433.514308 144.296554 
L 433.514308 140.464158 
L 435.731783 140.464158 
L 435.731783 136.631762 
L 435.79341 136.631762 
L 435.79341 132.799366 
L 447.38159 132.799366 
L 447.38159 128.96697 
L 447.38159 128.96697 
L 447.38159 128.96697 
L 460.8 128.96697 
" style="fill:none;stroke:#f5deb3;stroke-linecap:square;stroke-width:1.5;"/>
   </g>
   <g id="line2d_2">
    <path clip-path="url(#pde0f7ec065)" d="M 374.371558 293.76 
L 374.371558 282.262812 
L 374.371558 282.262812 
L 374.371558 270.765624 
L 374.377116 270.765624 
L 374.377116 259.268436 
L 374.377116 259.268436 
L 374.377116 247.771248 
L 374.377116 247.771248 
L 374.377116 236.274059 
L 461.8 236.274059 
" style="fill:none;stroke:#f5deb3;stroke-linecap:square;stroke-width:1.5;"/>
   </g>
   <g id="line2d_3">
    <path clip-path="url(#pde0f7ec065)" d="M 187.292311 293.76 
L 187.292311 289.927604 
L 187.292311 289.927604 
L 187.292311 286.095208 
L 187.292311 286.095208 
L 187.292311 282.262812 
L 187.292311 282.262812 
L 187.292311 278.430416 
L 187.510489 278.430416 
L 187.510489 274.59802 
L 187.727736 274.59802 
L 187.727736 270.765624 
L 187.727736 270.765624 
L 187.727736 266.933228 
L 187.727736 266.933228 
L 187.727736 263.100832 
L 187.727736 263.100832 
L 187.727736 259.268436 
L 187.727736 259.268436 
L 187.727736 255.43604 
L 187.727736 255.43604 
L 187.727736 251.603644 
L 187.727736 251.603644 
L 187.727736 247.771248 
L 187.727736 247.771248 
L 187.727736 243.938851 
L 187.727736 243.938851 
L 187.727736 240.106455 
L 187.944061 240.106455 
L 187.944061 236.274059 
L 188.159472 236.274059 
L 188.159472 232.441663 
L 188.587579 232.441663 
L 188.587579 228.609267 
L 190.67576 228.609267 
L 190.67576 224.776871 
L 191.487642 224.776871 
L 191.487642 220.944475 
L 193.07359 220.944475 
L 193.07359 217.112079 
L 193.07359 217.112079 
L 193.07359 213.279683 
L 193.655819 213.279683 
L 193.655819 209.447287 
L 193.848426 209.447287 
L 193.848426 205.614891 
L 194.040308 205.614891 
L 194.040308 201.782495 
L 194.989022 201.782495 
L 194.989022 197.950099 
L 195.176663 197.950099 
L 195.176663 194.117703 
L 195.735475 194.117703 
L 195.735475 190.285307 
L 197.376047 190.285307 
L 197.376047 186.452911 
L 200.168225 186.452911 
L 200.168225 182.620515 
L 202.329326 182.620515 
L 202.329326 178.788119 
L 202.329326 178.788119 
L 202.329326 178.788119 
L 460.8 178.788119 
" style="fill:none;stroke:#f5deb3;stroke-linecap:square;stroke-width:1.5;"/>
   </g>
   <g id="line2d_4">
    <path clip-path="url(#pde0f7ec065)" d="M 150.426301 293.76 
L 150.426301 289.927604 
L 151.320087 289.927604 
L 151.320087 286.095208 
L 152.632035 286.095208 
L 152.632035 282.262812 
L 154.330341 282.262812 
L 154.330341 278.430416 
L 155.973854 278.430416 
L 155.973854 274.59802 
L 161.703987 274.59802 
L 161.703987 270.765624 
L 161.703987 270.765624 
L 161.703987 266.933228 
L 162.064021 266.933228 
L 162.064021 263.100832 
L 164.515431 263.100832 
L 164.515431 259.268436 
L 164.515431 259.268436 
L 164.515431 255.43604 
L 167.50326 255.43604 
L 167.50326 251.603644 
L 170.932012 251.603644 
L 170.932012 247.771248 
L 171.531366 247.771248 
L 171.531366 243.938851 
L 172.709325 243.938851 
L 172.709325 240.106455 
L 193.07359 240.106455 
L 193.07359 236.274059 
L 285.638778 236.274059 
L 285.638778 232.441663 
L 287.933683 232.441663 
L 287.933683 228.609267 
L 288.266161 228.609267 
L 288.266161 224.776871 
L 288.656312 224.776871 
L 288.656312 220.944475 
L 289.221211 220.944475 
L 289.221211 217.112079 
L 290.534662 217.112079 
L 290.534662 213.279683 
L 290.707258 213.279683 
L 290.707258 209.447287 
L 290.793337 209.447287 
L 290.793337 205.614891 
L 290.879271 205.614891 
L 290.879271 201.782495 
L 291.193128 201.782495 
L 291.193128 197.950099 
L 291.363511 197.950099 
L 291.363511 194.117703 
L 291.420179 194.117703 
L 291.420179 190.285307 
L 292.706442 190.285307 
L 292.706442 186.452911 
L 292.926862 186.452911 
L 292.926862 182.620515 
L 293.1737 182.620515 
L 293.1737 178.788119 
L 404.427702 178.788119 
L 404.427702 174.955723 
L 404.430783 174.955723 
L 404.430783 171.123327 
L 405.037163 171.123327 
L 405.037163 167.290931 
L 406.07679 167.290931 
L 406.07679 163.458535 
L 406.602042 163.458535 
L 406.602042 159.626139 
L 407.110242 159.626139 
L 407.110242 155.793743 
L 407.156988 155.793743 
L 407.156988 151.961347 
L 407.288232 151.961347 
L 407.288232 148.12895 
L 407.323174 148.12895 
L 407.323174 144.296554 
L 407.398798 144.296554 
L 407.398798 140.464158 
L 407.49172 140.464158 
L 407.49172 136.631762 
L 408.183285 136.631762 
L 408.183285 132.799366 
L 408.701533 132.799366 
L 408.701533 128.96697 
L 409.147205 128.96697 
L 409.147205 125.134574 
L 410.357186 125.134574 
L 410.357186 121.302178 
L 410.357186 121.302178 
L 410.357186 121.302178 
L 460.8 121.302178 
" style="fill:none;stroke:#f5deb3;stroke-linecap:square;stroke-width:1.5;"/>
   </g>
   <g id="line2d_5">
    <path clip-path="url(#pde0f7ec065)" d="M 364.51094 293.76 
L 364.51094 289.927604 
L 364.665837 289.927604 
L 364.665837 286.095208 
L 365.127725 286.095208 
L 365.127725 282.262812 
L 365.578857 282.262812 
L 365.578857 278.430416 
L 365.618472 278.430416 
L 365.618472 274.59802 
L 365.980179 274.59802 
L 365.980179 270.765624 
L 366.365357 270.765624 
L 366.365357 266.933228 
L 367.592685 266.933228 
L 367.592685 263.100832 
L 368.280069 263.100832 
L 368.280069 259.268436 
L 368.915016 259.268436 
L 368.915016 255.43604 
L 369.401407 255.43604 
L 369.401407 251.603644 
L 371.449189 251.603644 
L 371.449189 247.771248 
L 372.104207 247.771248 
L 372.104207 243.938851 
L 373.332813 243.938851 
L 373.332813 240.106455 
L 389.573289 240.106455 
L 389.573289 236.274059 
L 389.573289 236.274059 
L 389.573289 236.274059 
L 460.8 236.274059 
" style="fill:none;stroke:#f5deb3;stroke-linecap:square;stroke-width:1.5;"/>
   </g>
   <g id="line2d_6"/>
   <g id="line2d_7">
    <path clip-path="url(#pde0f7ec065)" d="M 186.187181 293.76 
L 186.187181 289.927604 
L 196.653418 289.927604 
L 196.653418 286.095208 
L 197.555114 286.095208 
L 197.555114 282.262812 
L 198.265153 282.262812 
L 198.265153 278.430416 
L 198.441128 278.430416 
L 198.441128 274.59802 
L 198.965432 274.59802 
L 198.965432 270.765624 
L 199.827458 270.765624 
L 199.827458 266.933228 
L 199.827458 266.933228 
L 199.827458 263.100832 
L 200.168225 263.100832 
L 200.168225 259.268436 
L 204.714059 259.268436 
L 204.714059 255.43604 
L 206.244038 255.43604 
L 206.244038 251.603644 
L 207.582803 251.603644 
L 207.582803 247.771248 
L 208.887285 247.771248 
L 208.887285 243.938851 
L 216.081992 243.938851 
L 216.081992 240.106455 
L 216.081992 240.106455 
L 216.081992 236.274059 
L 311.15244 236.274059 
L 311.15244 232.441663 
L 311.782925 232.441663 
L 311.782925 228.609267 
L 313.05801 228.609267 
L 313.05801 224.776871 
L 313.371856 224.776871 
L 313.371856 220.944475 
L 313.518882 220.944475 
L 313.518882 217.112079 
L 313.756898 217.112079 
L 313.756898 213.279683 
L 313.884602 213.279683 
L 313.884602 209.447287 
L 314.211519 209.447287 
L 314.211519 205.614891 
L 314.22962 205.614891 
L 314.22962 201.782495 
L 314.984101 201.782495 
L 314.984101 197.950099 
L 315.480951 197.950099 
L 315.480951 194.117703 
L 315.955511 194.117703 
L 315.955511 190.285307 
L 317.199807 190.285307 
L 317.199807 186.452911 
L 317.658693 186.452911 
L 317.658693 182.620515 
L 317.895016 182.620515 
L 317.895016 178.788119 
L 415.921801 178.788119 
L 415.921801 174.955723 
L 416.379517 174.955723 
L 416.379517 171.123327 
L 418.113843 171.123327 
L 418.113843 167.290931 
L 418.458881 167.290931 
L 418.458881 163.458535 
L 418.975568 163.458535 
L 418.975568 159.626139 
L 419.257298 159.626139 
L 419.257298 155.793743 
L 419.429722 155.793743 
L 419.429722 151.961347 
L 419.961695 151.961347 
L 419.961695 148.12895 
L 421.23571 148.12895 
L 421.23571 144.296554 
L 421.676829 144.296554 
L 421.676829 140.464158 
L 424.076804 140.464158 
L 424.076804 136.631762 
L 461.8 136.631762 
" style="fill:none;stroke:#f5deb3;stroke-linecap:square;stroke-width:1.5;"/>
   </g>
   <g id="line2d_8">
    <path clip-path="url(#pde0f7ec065)" d="M 390.289935 293.76 
L 390.289935 289.927604 
L 391.875323 289.927604 
L 391.879264 282.262812 
L 392.158348 282.262812 
L 392.158348 278.430416 
L 393.89629 278.430416 
L 393.89629 274.59802 
L 394.678273 274.59802 
L 394.678273 270.765624 
L 396.094766 270.765624 
L 396.094766 266.933228 
L 396.521143 266.933228 
L 396.521143 263.100832 
L 396.951117 263.100832 
L 396.951117 259.268436 
L 397.77576 259.268436 
L 397.77576 255.43604 
L 400.17585 255.43604 
L 400.17585 251.603644 
L 401.101807 251.603644 
L 401.101807 247.771248 
L 402.365375 247.771248 
L 402.365375 243.938851 
L 402.745738 243.938851 
L 402.745738 240.106455 
L 406.613849 240.106455 
L 406.613849 236.274059 
L 461.8 236.274059 
L 461.8 236.274059 
" style="fill:none;stroke:#f5deb3;stroke-linecap:square;stroke-width:1.5;"/>
   </g>
   <g id="line2d_9">
    <path clip-path="url(#pde0f7ec065)" d="M 181.017871 293.76 
L 181.017871 289.927604 
L 182.720232 289.927604 
L 182.720232 286.095208 
L 185.963249 286.095208 
L 185.963249 282.262812 
L 186.853131 282.262812 
L 186.853131 278.430416 
L 187.073194 278.430416 
L 187.073194 274.59802 
L 187.727736 274.59802 
L 187.727736 270.765624 
L 189.012119 270.765624 
L 189.012119 266.933228 
L 189.223069 266.933228 
L 189.223069 263.100832 
L 190.470752 263.100832 
L 190.470752 259.268436 
L 194.421916 259.268436 
L 194.421916 255.43604 
L 195.363616 255.43604 
L 195.363616 251.603644 
L 198.965432 251.603644 
L 198.965432 247.771248 
L 200.168225 247.771248 
L 200.168225 243.938851 
L 202.329326 243.938851 
L 202.329326 240.106455 
L 204.088965 240.106455 
L 204.088965 236.274059 
L 307.938838 236.274059 
L 307.938838 232.441663 
L 310.611294 232.441663 
L 310.611294 228.609267 
L 310.940532 228.609267 
L 310.940532 224.776871 
L 311.420872 224.776871 
L 311.420872 220.944475 
L 311.630795 220.944475 
L 311.630795 217.112079 
L 312.480677 217.112079 
L 312.480677 213.279683 
L 312.536834 213.279683 
L 312.536834 209.447287 
L 313.02096 209.447287 
L 313.02096 205.614891 
L 313.408653 205.614891 
L 313.408653 201.782495 
L 313.92103 201.782495 
L 313.92103 197.950099 
L 314.175299 197.950099 
L 314.175299 194.117703 
L 314.608257 194.117703 
L 314.608257 190.285307 
L 315.268608 190.285307 
L 315.268608 186.452911 
L 315.339488 186.452911 
L 315.339488 182.620515 
L 318.481073 182.620515 
L 318.481073 178.788119 
L 410.766907 178.788119 
L 410.766907 174.955723 
L 410.829441 174.955723 
L 410.829441 171.123327 
L 412.050997 171.123327 
L 412.050997 167.290931 
L 412.191402 167.290931 
L 412.191402 163.458535 
L 412.310311 163.458535 
L 412.310311 159.626139 
L 412.947666 159.626139 
L 412.947666 155.793743 
L 412.986749 155.793743 
L 412.986749 151.961347 
L 413.497273 151.961347 
L 413.497273 148.12895 
L 413.590017 148.12895 
L 413.590017 144.296554 
L 413.872358 144.296554 
L 413.872358 140.464158 
L 415.088902 140.464158 
L 415.088902 136.631762 
L 415.133869 136.631762 
L 415.133869 132.799366 
L 415.305874 132.799366 
L 415.305874 128.96697 
L 415.623425 128.96697 
L 415.623425 125.134574 
L 415.81843 125.134574 
L 415.81843 121.302178 
L 415.81843 121.302178 
L 415.81843 121.302178 
L 460.8 121.302178 
" style="fill:none;stroke:#f5deb3;stroke-linecap:square;stroke-width:1.5;"/>
   </g>
   <g id="line2d_10">
    <path clip-path="url(#pde0f7ec065)" d="M 219.679568 293.76 
L 219.679568 289.927604 
L 221.275275 289.927604 
L 221.275275 286.095208 
L 228.287929 286.095208 
L 228.287929 282.262812 
L 228.287929 282.262812 
L 228.287929 278.430416 
L 232.056336 278.430416 
L 232.056336 274.59802 
L 237.965841 274.59802 
L 237.965841 270.765624 
L 242.00624 270.765624 
L 242.00624 266.933228 
L 380.318817 266.933228 
L 380.318817 263.100832 
L 380.442307 263.100832 
L 380.442307 259.268436 
L 380.624524 259.268436 
L 380.624524 255.43604 
L 380.815888 255.43604 
L 380.815888 251.603644 
L 380.830579 251.603644 
L 380.830579 247.771248 
L 381.506639 247.771248 
L 381.506639 243.938851 
L 382.073602 243.938851 
L 382.073602 240.106455 
L 415.541745 240.106455 
L 415.541745 236.274059 
L 461.8 236.274059 
" style="fill:none;stroke:#f5deb3;stroke-linecap:square;stroke-width:1.5;"/>
   </g>
   <g id="line2d_11">
    <path clip-path="url(#pde0f7ec065)" d="M 142.120331 293.76 
L 142.120331 289.927604 
L 149.973458 289.927604 
L 149.973458 286.095208 
L 151.320087 286.095208 
L 151.320087 282.262812 
L 152.198462 282.262812 
L 152.198462 278.430416 
L 153.488265 278.430416 
L 153.488265 274.59802 
L 154.746217 274.59802 
L 154.746217 270.765624 
L 157.95638 270.765624 
L 157.95638 266.933228 
L 161.341392 266.933228 
L 161.341392 263.100832 
L 161.703987 263.100832 
L 161.703987 259.268436 
L 163.826982 259.268436 
L 163.826982 255.43604 
L 168.14408 255.43604 
L 168.14408 251.603644 
L 172.709325 251.603644 
L 172.709325 247.771248 
L 172.999608 247.771248 
L 172.999608 243.938851 
L 181.754431 243.938851 
L 181.754431 240.106455 
L 189.223069 240.106455 
L 189.223069 236.274059 
L 276.679338 236.274059 
L 276.679338 232.441663 
L 277.392911 232.441663 
L 277.392911 228.609267 
L 278.572575 228.609267 
L 278.572575 224.776871 
L 278.681781 224.776871 
L 278.681781 220.944475 
L 279.974311 220.944475 
L 279.974311 217.112079 
L 280.25714 217.112079 
L 280.25714 213.279683 
L 281.303981 213.279683 
L 281.303981 209.447287 
L 281.785242 209.447287 
L 281.785242 205.614891 
L 281.88778 205.614891 
L 281.88778 201.782495 
L 282.901971 201.782495 
L 282.901971 197.950099 
L 283.268839 197.950099 
L 283.268839 194.117703 
L 283.534003 194.117703 
L 283.534003 190.285307 
L 284.256167 190.285307 
L 284.256167 186.452911 
L 285.128691 186.452911 
L 285.128691 182.620515 
L 286.018019 182.620515 
L 286.018019 178.788119 
L 286.018019 178.788119 
L 286.018019 178.788119 
L 460.8 178.788119 
" style="fill:none;stroke:#f5deb3;stroke-linecap:square;stroke-width:1.5;"/>
   </g>
   <g id="line2d_12">
    <path clip-path="url(#pde0f7ec065)" d="M 101.204366 293.76 
L 101.204366 289.927604 
L 101.204366 289.927604 
L 101.204366 286.095208 
L 101.204366 286.095208 
L 101.204366 282.262812 
L 101.204366 282.262812 
L 101.204366 278.430416 
L 101.204366 278.430416 
L 101.204366 274.59802 
L 101.204366 274.59802 
L 101.204366 270.765624 
L 101.204366 270.765624 
L 101.204366 266.933228 
L 101.204366 266.933228 
L 101.204366 263.100832 
L 101.204366 263.100832 
L 101.204366 259.268436 
L 101.204366 259.268436 
L 101.204366 255.43604 
L 101.204366 255.43604 
L 101.204366 251.603644 
L 101.204366 251.603644 
L 101.204366 247.771248 
L 101.204366 247.771248 
L 101.204366 243.938851 
L 101.204366 243.938851 
L 101.204366 240.106455 
L 101.204366 240.106455 
L 101.204366 236.274059 
L 135.920543 236.274059 
L 135.920543 232.441663 
L 147.168466 232.441663 
L 147.168466 228.609267 
L 147.168466 228.609267 
L 147.168466 224.776871 
L 147.168466 224.776871 
L 147.168466 220.944475 
L 147.168466 220.944475 
L 147.168466 217.112079 
L 147.168466 217.112079 
L 147.168466 213.279683 
L 147.168466 213.279683 
L 147.168466 209.447287 
L 147.168466 209.447287 
L 147.168466 205.614891 
L 147.168466 205.614891 
L 147.168466 201.782495 
L 147.168466 201.782495 
L 147.168466 197.950099 
L 156.37658 197.950099 
L 156.37658 194.117703 
L 156.37658 194.117703 
L 156.37658 190.285307 
L 156.37658 190.285307 
L 156.37658 186.452911 
L 156.37658 186.452911 
L 156.37658 182.620515 
L 170.932012 182.620515 
L 170.932012 178.788119 
L 372.417035 178.788119 
L 372.417035 174.955723 
L 374.204545 174.955723 
L 374.204545 171.123327 
L 377.051043 171.123327 
L 377.051043 167.290931 
L 383.756084 167.290931 
L 383.756084 163.458535 
L 383.876138 163.458535 
L 383.876138 159.626139 
L 384.649668 159.626139 
L 384.649668 155.793743 
L 385.670526 155.793743 
L 385.670526 151.961347 
L 385.874926 151.961347 
L 385.874926 148.12895 
L 386.153542 148.12895 
L 386.153542 144.296554 
L 386.413093 144.296554 
L 386.413093 140.464158 
L 386.614541 140.464158 
L 386.614541 136.631762 
L 386.706243 136.631762 
L 386.706243 132.799366 
L 386.797779 132.799366 
L 386.797779 128.96697 
L 386.889152 128.96697 
L 386.889152 125.134574 
L 390.159642 125.134574 
L 390.159642 121.302178 
L 390.159642 121.302178 
L 390.159642 121.302178 
L 460.8 121.302178 
" style="fill:none;stroke:#f5deb3;stroke-linecap:square;stroke-width:1.5;"/>
   </g>
   <g id="line2d_13">
    <path clip-path="url(#pde0f7ec065)" d="M 293.064142 293.76 
L 293.064142 289.927604 
L 293.064142 289.927604 
L 293.064142 286.095208 
L 293.880141 286.095208 
L 293.880141 282.262812 
L 293.880141 282.262812 
L 293.880141 278.430416 
L 295.106494 278.430416 
L 295.106494 274.59802 
L 295.238031 274.59802 
L 295.238031 270.765624 
L 295.238031 270.765624 
L 295.238031 266.933228 
L 295.238031 266.933228 
L 295.238031 263.100832 
L 295.942524 263.100832 
L 295.942524 259.268436 
L 298.024253 259.268436 
L 298.024253 255.43604 
L 298.024253 255.43604 
L 298.024253 251.603644 
L 298.024253 251.603644 
L 298.024253 247.771248 
L 298.123657 247.771248 
L 298.123657 243.938851 
L 298.123657 243.938851 
L 298.123657 240.106455 
L 298.123657 240.106455 
L 298.123657 236.274059 
L 298.123657 236.274059 
L 298.123657 236.274059 
L 460.8 236.274059 
" style="fill:none;stroke:#f5deb3;stroke-linecap:square;stroke-width:1.5;"/>
   </g>
   <g id="line2d_14">
    <path clip-path="url(#pde0f7ec065)" d="M 168.461492 293.76 
L 168.461492 289.927604 
L 170.019549 289.927604 
L 170.019549 286.095208 
L 170.932012 286.095208 
L 170.932012 282.262812 
L 172.12375 282.262812 
L 172.12375 278.430416 
L 172.417379 278.430416 
L 172.417379 274.59802 
L 172.417379 274.59802 
L 172.417379 270.765624 
L 172.709325 270.765624 
L 172.709325 266.933228 
L 172.999608 266.933228 
L 172.999608 263.100832 
L 173.575258 263.100832 
L 173.575258 259.268436 
L 173.575258 259.268436 
L 173.575258 255.43604 
L 173.575258 255.43604 
L 173.575258 251.603644 
L 173.575258 251.603644 
L 173.575258 247.771248 
L 173.860662 247.771248 
L 173.860662 243.938851 
L 174.144476 243.938851 
L 174.144476 240.106455 
L 174.144476 240.106455 
L 174.144476 236.274059 
L 245.818968 236.274059 
L 245.818968 232.441663 
L 246.848185 232.441663 
L 246.848185 228.609267 
L 248.321058 228.609267 
L 248.321058 224.776871 
L 248.846264 224.776871 
L 248.846264 220.944475 
L 249.301419 220.944475 
L 249.301419 217.112079 
L 251.703713 217.112079 
L 251.703713 213.279683 
L 251.88863 213.279683 
L 251.88863 209.447287 
L 252.011535 209.447287 
L 252.011535 205.614891 
L 252.500215 205.614891 
L 252.500215 201.782495 
L 253.224557 201.782495 
L 253.224557 197.950099 
L 253.404044 197.950099 
L 253.404044 194.117703 
L 253.523352 194.117703 
L 253.523352 190.285307 
L 254.759501 190.285307 
L 254.759501 186.452911 
L 255.107246 186.452911 
L 255.107246 182.620515 
L 255.337765 182.620515 
L 255.337765 178.788119 
L 264.231607 178.788119 
L 264.231607 174.955723 
L 267.277472 174.955723 
L 267.277472 171.123327 
L 267.640067 171.123327 
L 267.640067 167.290931 
L 269.10908 167.290931 
L 269.10908 163.458535 
L 269.502475 163.458535 
L 269.502475 159.626139 
L 269.979203 159.626139 
L 269.979203 155.793743 
L 270.792278 155.793743 
L 270.792278 151.961347 
L 271.676095 151.961347 
L 271.676095 148.12895 
L 272.05023 148.12895 
L 272.05023 144.296554 
L 274.08016 144.296554 
L 274.08016 140.464158 
L 280.397968 140.464158 
L 280.397968 136.631762 
L 282.801456 136.631762 
L 282.801456 132.799366 
L 286.394458 132.799366 
L 286.394458 128.96697 
L 461.8 128.96697 
" style="fill:none;stroke:#f5deb3;stroke-linecap:square;stroke-width:1.5;"/>
   </g>
   <g id="line2d_15"/>
   <g id="line2d_16">
    <path clip-path="url(#pde0f7ec065)" d="M 303.780842 293.76 
L 303.780842 289.927604 
L 304.201233 289.927604 
L 304.201233 286.095208 
L 305.161655 286.095208 
L 305.161655 282.262812 
L 305.592295 282.262812 
L 305.592295 278.430416 
L 309.392186 278.430416 
L 309.392186 274.59802 
L 312.611615 274.59802 
L 312.611615 270.765624 
L 314.662119 270.765624 
L 314.662119 266.933228 
L 316.234659 266.933228 
L 316.234659 263.100832 
L 316.994523 263.100832 
L 316.994523 259.268436 
L 317.250999 259.268436 
L 317.250999 255.43604 
L 318.213997 255.43604 
L 318.213997 251.603644 
L 318.580866 251.603644 
L 318.580866 247.771248 
L 321.878093 247.771248 
L 321.878093 243.938851 
L 322.880515 243.938851 
L 322.880515 240.106455 
L 332.936713 240.106455 
L 332.936713 236.274059 
L 389.873459 236.274059 
L 389.873459 232.441663 
L 390.525245 232.441663 
L 390.525245 228.609267 
L 393.527469 228.609267 
L 393.527469 224.776871 
L 394.446435 224.776871 
L 394.446435 220.944475 
L 394.659616 220.944475 
L 394.659616 217.112079 
L 395.271736 217.112079 
L 395.271736 213.279683 
L 396.409474 213.279683 
L 396.409474 209.447287 
L 397.518829 209.447287 
L 397.518829 205.614891 
L 398.41421 205.614891 
L 398.41421 201.782495 
L 399.058453 201.782495 
L 399.058453 197.950099 
L 401.459038 197.950099 
L 401.459038 194.117703 
L 402.262606 194.117703 
L 402.262606 190.285307 
L 403.707846 190.285307 
L 403.707846 186.452911 
L 404.440025 186.452911 
L 404.440025 182.620515 
L 404.593806 182.620515 
L 404.593806 178.788119 
L 412.77796 178.788119 
L 412.77796 174.955723 
L 413.654323 174.955723 
L 413.654323 171.123327 
L 415.003857 171.123327 
L 415.003857 167.290931 
L 415.48226 167.290931 
L 415.48226 163.458535 
L 415.94884 163.458535 
L 415.94884 159.626139 
L 416.159739 159.626139 
L 416.159739 155.793743 
L 416.328321 155.793743 
L 416.425794 148.12895 
L 416.90556 148.12895 
L 416.90556 144.296554 
L 417.473948 144.296554 
L 417.473948 140.464158 
L 418.149158 140.464158 
L 418.149158 136.631762 
L 418.283133 136.631762 
L 418.283133 132.799366 
L 419.09584 132.799366 
L 419.09584 128.96697 
L 419.307936 128.96697 
L 419.307936 125.134574 
L 420.04793 125.134574 
L 420.04793 121.302178 
L 424.131246 121.302178 
L 424.131246 117.469782 
L 461.8 117.469782 
L 461.8 117.469782 
" style="fill:none;stroke:#f5deb3;stroke-linecap:square;stroke-width:1.5;"/>
   </g>
   <g id="line2d_17">
    <path clip-path="url(#pde0f7ec065)" d="M 328.52675 293.76 
L 328.52675 289.927604 
L 334.419198 289.927604 
L 334.419198 286.095208 
L 334.419198 286.095208 
L 334.419198 282.262812 
L 334.540813 282.262812 
L 334.540813 278.430416 
L 337.053004 278.430416 
L 337.053004 274.59802 
L 349.396661 274.59802 
L 349.396661 270.765624 
L 355.002301 270.765624 
L 355.002301 266.933228 
L 358.829925 266.933228 
L 358.829925 263.100832 
L 360.3674 263.100832 
L 360.3674 259.268436 
L 360.673768 259.268436 
L 360.673768 255.43604 
L 367.267851 255.43604 
L 367.267851 251.603644 
L 369.676403 251.603644 
L 369.676403 247.771248 
L 372.865534 247.771248 
L 372.865534 243.938851 
L 382.605962 243.938851 
L 382.605962 240.106455 
L 387.253012 240.106455 
L 387.253012 236.274059 
L 461.8 236.274059 
" style="fill:none;stroke:#f5deb3;stroke-linecap:square;stroke-width:1.5;"/>
   </g>
   <g id="line2d_18">
    <path clip-path="url(#pde0f7ec065)" d="M 101.204366 293.76 
L 101.204366 289.927604 
L 101.204366 289.927604 
L 101.204366 286.095208 
L 101.204366 286.095208 
L 101.204366 282.262812 
L 101.204366 282.262812 
L 101.204366 278.430416 
L 101.204366 278.430416 
L 101.204366 274.59802 
L 101.204366 274.59802 
L 101.204366 270.765624 
L 101.204366 270.765624 
L 101.204366 266.933228 
L 101.204366 266.933228 
L 101.204366 263.100832 
L 102.375555 263.100832 
L 102.375555 259.268436 
L 102.375555 259.268436 
L 102.375555 255.43604 
L 102.375555 255.43604 
L 102.375555 251.603644 
L 102.375555 251.603644 
L 102.375555 247.771248 
L 102.375555 247.771248 
L 102.375555 243.938851 
L 102.375555 243.938851 
L 102.375555 240.106455 
L 104.640127 240.106455 
L 104.640127 236.274059 
L 105.735749 236.274059 
L 105.735749 232.441663 
L 105.735749 232.441663 
L 105.735749 228.609267 
L 108.88796 228.609267 
L 108.88796 224.776871 
L 109.896795 224.776871 
L 109.896795 220.944475 
L 111.85644 220.944475 
L 111.85644 217.112079 
L 117.320008 217.112079 
L 117.320008 213.279683 
L 118.176238 213.279683 
L 118.176238 209.447287 
L 118.176238 209.447287 
L 118.176238 205.614891 
L 120.661828 205.614891 
L 120.661828 201.782495 
L 130.884893 201.782495 
L 130.884893 197.950099 
L 131.542251 197.950099 
L 131.542251 194.117703 
L 131.542251 194.117703 
L 131.542251 190.285307 
L 135.317643 190.285307 
L 135.317643 186.452911 
L 136.516392 186.452911 
L 136.516392 182.620515 
L 138.263231 182.620515 
L 138.263231 178.788119 
L 461.8 178.788119 
" style="fill:none;stroke:#f5deb3;stroke-linecap:square;stroke-width:1.5;"/>
   </g>
   <g id="line2d_19">
    <path clip-path="url(#pde0f7ec065)" d="M 375.639541 293.76 
L 375.639541 289.927604 
L 382.083157 289.927604 
L 382.083157 286.095208 
L 385.191877 286.095208 
L 385.191877 282.262812 
L 386.627652 282.262812 
L 386.627652 278.430416 
L 388.02832 278.430416 
L 388.02832 274.59802 
L 389.229837 274.59802 
L 389.229837 270.765624 
L 394.251173 270.765624 
L 394.251173 266.933228 
L 394.258697 266.933228 
L 394.258697 263.100832 
L 396.636158 263.100832 
L 396.636158 259.268436 
L 397.754692 259.268436 
L 397.754692 255.43604 
L 397.779271 255.43604 
L 397.779271 251.603644 
L 397.786292 251.603644 
L 397.786292 247.771248 
L 397.793311 247.771248 
L 397.793311 243.938851 
L 399.910575 243.938851 
L 399.910575 240.106455 
L 409.850052 240.106455 
L 409.850052 236.274059 
L 461.8 236.274059 
" style="fill:none;stroke:#f5deb3;stroke-linecap:square;stroke-width:1.5;"/>
   </g>
   <g id="line2d_20">
    <path clip-path="url(#pde0f7ec065)" d="M 166.19692 293.76 
L 166.19692 289.927604 
L 172.709325 289.927604 
L 172.709325 286.095208 
L 173.288246 286.095208 
L 173.288246 282.262812 
L 177.166329 282.262812 
L 177.166329 278.430416 
L 184.598583 278.430416 
L 184.598583 274.59802 
L 187.510489 274.59802 
L 187.510489 270.765624 
L 188.800291 270.765624 
L 188.800291 266.933228 
L 189.43315 266.933228 
L 189.43315 263.100832 
L 195.176663 263.100832 
L 195.176663 259.268436 
L 197.555114 259.268436 
L 197.555114 255.43604 
L 199.139008 255.43604 
L 199.139008 251.603644 
L 201.508946 251.603644 
L 201.508946 247.771248 
L 203.773519 247.771248 
L 203.773519 243.938851 
L 207.288325 243.938851 
L 207.288325 240.106455 
L 215.957586 240.106455 
L 215.957586 236.274059 
L 284.839507 236.274059 
L 284.839507 232.441663 
L 286.018019 232.441663 
L 286.018019 228.609267 
L 288.236025 228.609267 
L 288.236025 224.776871 
L 288.745924 224.776871 
L 288.745924 220.944475 
L 292.151183 220.944475 
L 292.151183 217.112079 
L 294.256514 217.112079 
L 294.256514 213.279683 
L 294.256514 213.279683 
L 294.256514 209.447287 
L 294.523659 209.447287 
L 294.523659 205.614891 
L 294.523659 205.614891 
L 294.523659 201.782495 
L 294.656708 201.782495 
L 294.656708 197.950099 
L 295.053783 197.950099 
L 295.053783 194.117703 
L 297.774891 194.117703 
L 297.774891 190.285307 
L 298.346609 190.285307 
L 298.346609 186.452911 
L 299.856546 186.452911 
L 299.856546 182.620515 
L 307.196314 182.620515 
L 307.196314 178.788119 
L 385.795041 178.788119 
L 385.795041 174.955723 
L 386.140309 174.955723 
L 386.140309 171.123327 
L 390.212614 171.123327 
L 390.212614 167.290931 
L 394.875624 167.290931 
L 394.875624 163.458535 
L 395.909375 163.458535 
L 395.909375 159.626139 
L 396.003973 159.626139 
L 396.003973 155.793743 
L 396.134665 155.793743 
L 396.134665 151.961347 
L 396.362572 151.961347 
L 396.362572 148.12895 
L 399.362234 148.12895 
L 399.362234 144.296554 
L 447.410752 144.296554 
L 447.410752 140.464158 
L 453.739317 140.464158 
L 453.739317 136.631762 
L 457.452308 136.631762 
L 457.452308 132.799366 
L 461.8 132.799366 
" style="fill:none;stroke:#f5deb3;stroke-linecap:square;stroke-width:1.5;"/>
   </g>
   <g id="line2d_21">
    <path clip-path="url(#pde0f7ec065)" d="M 357.345628 293.76 
L 357.438706 263.100832 
L 357.461949 263.100832 
L 357.500663 255.43604 
L 357.909239 255.43604 
L 357.909239 251.603644 
L 358.656194 251.603644 
L 358.656194 247.771248 
L 363.302875 247.771248 
L 363.302875 243.938851 
L 364.833672 243.938851 
L 364.940797 155.793743 
L 364.947485 155.793743 
L 364.947485 128.96697 
L 365.10773 128.96697 
L 365.194319 90.64301 
L 365.220932 90.64301 
L 365.30733 48.486653 
L 366.3133 48.486653 
L 366.3133 44.654257 
L 366.592484 44.654257 
L 366.592484 40.821861 
L 366.837938 40.821861 
L 366.837938 36.989465 
L 368.778734 36.989465 
L 368.778734 33.157069 
L 374.243564 33.157069 
L 374.243564 29.324673 
L 374.243564 29.324673 
L 460.8 29.324673 
L 460.8 29.324673 
" style="fill:none;stroke:#f5deb3;stroke-linecap:square;stroke-width:1.5;"/>
   </g>
   <g id="line2d_22">
    <path clip-path="url(#pde0f7ec065)" d="M 190.264915 293.76 
L 190.264915 289.927604 
L 194.040308 289.927604 
L 194.040308 286.095208 
L 199.139008 286.095208 
L 199.139008 282.262812 
L 202.166304 282.262812 
L 202.166304 278.430416 
L 205.78985 278.430416 
L 205.78985 274.59802 
L 209.172689 274.59802 
L 209.172689 270.765624 
L 209.314793 270.765624 
L 209.314793 266.933228 
L 210.019431 266.933228 
L 210.019431 263.100832 
L 211.263727 263.100832 
L 211.263727 259.268436 
L 211.671829 259.268436 
L 211.671829 255.43604 
L 215.330954 255.43604 
L 215.330954 251.603644 
L 215.582533 251.603644 
L 215.582533 247.771248 
L 216.4534 247.771248 
L 216.4534 243.938851 
L 220.824436 243.938851 
L 220.824436 240.106455 
L 237.803855 240.106455 
L 237.803855 236.274059 
L 289.07316 236.274059 
L 289.07316 232.441663 
L 298.173286 232.441663 
L 298.173286 228.609267 
L 298.173286 228.609267 
L 298.173286 224.776871 
L 298.985266 224.776871 
L 298.985266 220.944475 
L 299.76047 220.944475 
L 299.76047 217.112079 
L 300.547734 217.112079 
L 300.547734 213.279683 
L 303.625082 213.279683 
L 303.625082 209.447287 
L 303.891808 209.447287 
L 303.891808 205.614891 
L 304.179194 205.614891 
L 304.179194 201.782495 
L 304.923241 201.782495 
L 304.923241 197.950099 
L 306.569168 197.950099 
L 306.569168 194.117703 
L 310.533516 194.117703 
L 310.533516 190.285307 
L 310.901908 190.285307 
L 310.901908 186.452911 
L 313.205943 186.452911 
L 313.205943 182.620515 
L 316.28683 182.620515 
L 316.28683 178.788119 
L 332.609741 178.788119 
L 332.609741 174.955723 
L 334.867731 174.955723 
L 334.867731 171.123327 
L 339.634307 171.123327 
L 339.634307 167.290931 
L 340.006646 167.290931 
L 340.006646 163.458535 
L 340.397944 163.458535 
L 340.397944 159.626139 
L 342.829366 159.626139 
L 342.829366 155.793743 
L 343.158639 155.793743 
L 343.158639 151.961347 
L 343.820992 151.961347 
L 343.820992 148.12895 
L 343.982721 148.12895 
L 343.982721 144.296554 
L 344.083541 144.296554 
L 344.083541 140.464158 
L 344.274552 140.464158 
L 344.274552 136.631762 
L 344.853246 136.631762 
L 344.853246 132.799366 
L 347.303391 132.799366 
L 347.303391 128.96697 
L 350.081699 128.96697 
L 350.081699 125.134574 
L 353.626341 125.134574 
L 353.626341 121.302178 
L 353.626341 121.302178 
L 353.626341 121.302178 
L 460.8 121.302178 
" style="fill:none;stroke:#f5deb3;stroke-linecap:square;stroke-width:1.5;"/>
   </g>
   <g id="line2d_23">
    <path clip-path="url(#pde0f7ec065)" d="M 242.155419 293.76 
L 242.155419 289.927604 
L 250.831781 289.927604 
L 250.831781 286.095208 
L 252.682268 286.095208 
L 252.682268 282.262812 
L 253.582902 282.262812 
L 253.582902 278.430416 
L 255.107246 278.430416 
L 255.107246 274.59802 
L 257.532289 274.59802 
L 257.532289 270.765624 
L 259.477384 270.765624 
L 259.477384 266.933228 
L 270.834714 266.933228 
L 270.834714 263.100832 
L 416.237991 263.100832 
L 416.237991 259.268436 
L 418.80392 259.268436 
L 418.80392 255.43604 
L 418.90837 255.43604 
L 418.90837 251.603644 
L 419.672425 251.603644 
L 419.672425 247.771248 
L 420.97142 247.771248 
L 420.97142 243.938851 
L 421.155901 243.938851 
L 421.155901 240.106455 
L 422.528337 240.106455 
L 422.528337 236.274059 
L 422.569354 236.274059 
L 422.569354 232.441663 
L 422.902741 232.441663 
L 422.902741 228.609267 
L 423.080371 228.609267 
L 423.080371 224.776871 
L 423.656069 224.776871 
L 423.656069 220.944475 
L 424.047466 220.944475 
L 424.047466 217.112079 
L 426.74195 217.112079 
L 426.74195 213.279683 
L 428.581258 213.279683 
L 428.581258 209.447287 
L 439.28635 209.447287 
L 439.28635 205.614891 
L 440.809845 205.614891 
L 440.809845 201.782495 
L 441.940632 201.782495 
L 441.940632 197.950099 
L 442.509883 197.950099 
L 442.509883 194.117703 
L 443.571099 194.117703 
L 443.571099 190.285307 
L 445.785635 190.285307 
L 445.785635 186.452911 
L 445.847163 186.452911 
L 445.847163 182.620515 
L 447.235529 182.620515 
L 447.235529 178.788119 
L 447.235529 178.788119 
L 447.235529 178.788119 
L 460.8 178.788119 
" style="fill:none;stroke:#f5deb3;stroke-linecap:square;stroke-width:1.5;"/>
   </g>
   <g id="line2d_24">
    <path clip-path="url(#pde0f7ec065)" d="M 297.574519 293.76 
L 297.574519 289.927604 
L 304.157145 289.927604 
L 304.157145 286.095208 
L 314.715924 286.095208 
L 314.715924 282.262812 
L 314.769673 282.262812 
L 314.769673 278.430416 
L 314.787576 278.430416 
L 314.787576 274.59802 
L 317.74322 274.59802 
L 317.74322 270.765624 
L 319.617061 270.765624 
L 319.617061 266.933228 
L 319.714656 266.933228 
L 319.714656 263.100832 
L 323.998227 263.100832 
L 323.998227 259.268436 
L 324.251571 259.268436 
L 324.251571 255.43604 
L 328.073663 255.43604 
L 328.073663 251.603644 
L 328.17011 251.603644 
L 328.17011 247.771248 
L 331.85989 247.771248 
L 331.85989 243.938851 
L 335.372136 243.938851 
L 335.372136 240.106455 
L 335.419915 240.106455 
L 335.419915 236.274059 
L 416.450133 236.274059 
L 416.450133 232.441663 
L 418.738822 232.441663 
L 418.738822 228.609267 
L 419.945794 228.609267 
L 419.945794 224.776871 
L 423.054728 224.776871 
L 423.054728 220.944475 
L 424.308822 220.944475 
L 424.308822 217.112079 
L 425.035622 217.112079 
L 425.035622 213.279683 
L 426.248474 213.279683 
L 426.248474 209.447287 
L 426.712117 209.447287 
L 426.712117 205.614891 
L 427.745989 205.614891 
L 427.745989 201.782495 
L 429.198844 201.782495 
L 429.198844 197.950099 
L 429.40494 197.950099 
L 429.40494 194.117703 
L 429.44078 194.117703 
L 429.44078 190.285307 
L 429.585768 190.285307 
L 429.585768 186.452911 
L 431.670989 186.452911 
L 431.670989 182.620515 
L 436.361185 182.620515 
L 436.361185 178.788119 
L 437.573025 178.788119 
L 437.573025 174.955723 
L 439.115092 174.955723 
L 439.115092 171.123327 
L 440.536075 171.123327 
L 440.536075 167.290931 
L 441.409693 167.290931 
L 441.409693 163.458535 
L 443.400776 163.458535 
L 443.400776 159.626139 
L 444.102723 159.626139 
L 444.102723 155.793743 
L 444.593857 155.793743 
L 444.593857 151.961347 
L 445.368021 151.961347 
L 445.368021 148.12895 
L 446.871214 148.12895 
L 446.871214 144.296554 
L 447.715948 144.296554 
L 447.715948 140.464158 
L 448.426238 140.464158 
L 448.426238 136.631762 
L 449.89104 136.631762 
L 449.89104 132.799366 
L 454.866679 132.799366 
L 454.866679 128.96697 
L 456.303483 128.96697 
L 456.303483 125.134574 
L 457.468627 125.134574 
L 457.468627 121.302178 
L 457.468627 121.302178 
L 457.468627 121.302178 
L 460.8 121.302178 
" style="fill:none;stroke:#f5deb3;stroke-linecap:square;stroke-width:1.5;"/>
   </g>
   <g id="line2d_25">
    <path clip-path="url(#pde0f7ec065)" d="M 247.790382 293.76 
L 247.790382 289.927604 
L 250.894559 289.927604 
L 250.894559 286.095208 
L 251.518123 286.095208 
L 251.518123 282.262812 
L 252.500215 282.262812 
L 252.500215 278.430416 
L 264.038085 278.430416 
L 264.038085 274.59802 
L 265.330312 274.59802 
L 265.330312 270.765624 
L 265.613075 270.765624 
L 265.613075 266.933228 
L 269.240549 266.933228 
L 269.240549 263.100832 
L 276.185281 263.100832 
L 276.185281 259.268436 
L 280.887823 259.268436 
L 280.887823 255.43604 
L 281.956025 255.43604 
L 281.956025 251.603644 
L 286.892088 251.603644 
L 286.892088 247.771248 
L 287.690511 247.771248 
L 287.690511 243.938851 
L 290.907884 243.938851 
L 290.907884 240.106455 
L 360.176816 240.106455 
L 360.176816 236.274059 
L 461.8 236.274059 
" style="fill:none;stroke:#f5deb3;stroke-linecap:square;stroke-width:1.5;"/>
   </g>
   <g id="line2d_26">
    <path clip-path="url(#pde0f7ec065)" d="M 286.143808 293.76 
L 286.143808 289.927604 
L 286.953951 289.927604 
L 286.953951 286.095208 
L 289.838372 286.095208 
L 289.838372 282.262812 
L 290.534662 282.262812 
L 290.534662 278.430416 
L 290.649791 278.430416 
L 290.649791 274.59802 
L 290.907884 274.59802 
L 290.907884 270.765624 
L 290.93648 270.765624 
L 290.93648 266.933228 
L 291.702577 266.933228 
L 291.702577 263.100832 
L 291.702577 263.100832 
L 291.702577 259.268436 
L 292.678822 259.268436 
L 292.678822 255.43604 
L 293.663816 255.43604 
L 293.663816 251.603644 
L 294.176096 251.603644 
L 294.176096 247.771248 
L 295.343017 247.771248 
L 295.343017 243.938851 
L 295.578448 243.938851 
L 295.578448 240.106455 
L 308.30608 240.106455 
L 308.30608 236.274059 
L 359.860046 236.274059 
L 359.860046 232.441663 
L 365.02767 232.441663 
L 365.02767 228.609267 
L 371.154029 228.609267 
L 371.154029 224.776871 
L 371.537405 224.776871 
L 371.537405 220.944475 
L 371.993679 220.944475 
L 371.993679 217.112079 
L 372.3419 217.112079 
L 372.3419 213.279683 
L 372.75091 213.279683 
L 372.75091 209.447287 
L 373.082611 209.447287 
L 373.082611 205.614891 
L 376.130511 205.614891 
L 376.130511 201.782495 
L 376.18954 201.782495 
L 376.18954 197.950099 
L 376.57423 197.950099 
L 376.57423 194.117703 
L 378.032885 194.117703 
L 378.032885 190.285307 
L 378.074248 190.285307 
L 378.074248 186.452911 
L 381.771687 186.452911 
L 381.771687 182.620515 
L 382.092711 182.620515 
L 382.092711 178.788119 
L 411.78769 178.788119 
L 411.78769 174.955723 
L 414.300573 174.955723 
L 414.300573 171.123327 
L 414.414664 171.123327 
L 414.414664 167.290931 
L 414.805703 167.290931 
L 414.805703 163.458535 
L 414.85092 163.458535 
L 414.85092 159.626139 
L 416.469596 159.626139 
L 416.469596 155.793743 
L 417.035625 155.793743 
L 417.035625 151.961347 
L 417.220516 151.961347 
L 417.220516 148.12895 
L 417.237291 148.12895 
L 417.237291 144.296554 
L 417.352171 144.296554 
L 417.352171 140.464158 
L 419.724934 140.464158 
L 419.724934 136.631762 
L 421.434686 136.631762 
L 421.434686 132.799366 
L 421.935308 132.799366 
L 421.935308 128.96697 
L 434.485037 128.96697 
L 434.485037 125.134574 
L 461.8 125.134574 
" style="fill:none;stroke:#f5deb3;stroke-linecap:square;stroke-width:1.5;"/>
   </g>
   <g id="line2d_27">
    <path clip-path="url(#pde0f7ec065)" d="M 243.768185 293.76 
L 243.768185 289.927604 
L 243.768185 289.927604 
L 243.768185 286.095208 
L 247.321461 286.095208 
L 247.321461 282.262812 
L 248.780908 282.262812 
L 248.780908 278.430416 
L 250.705992 278.430416 
L 250.705992 274.59802 
L 260.630498 274.59802 
L 260.630498 270.765624 
L 265.706982 270.765624 
L 265.706982 266.933228 
L 265.753871 266.933228 
L 265.753871 263.100832 
L 266.0343 263.100832 
L 266.0343 259.268436 
L 268.179167 259.268436 
L 268.179167 255.43604 
L 271.759474 255.43604 
L 271.759474 251.603644 
L 276.754923 251.603644 
L 276.754923 247.771248 
L 280.573457 247.771248 
L 280.573457 243.938851 
L 280.957419 243.938851 
L 280.957419 240.106455 
L 285.000367 240.106455 
L 285.000367 236.274059 
L 298.024253 236.274059 
L 298.024253 232.441663 
L 302.017725 232.441663 
L 302.017725 228.609267 
L 302.224303 228.609267 
L 302.224303 224.776871 
L 302.452857 224.776871 
L 302.452857 220.944475 
L 302.589498 220.944475 
L 302.589498 217.112079 
L 302.725774 217.112079 
L 302.725774 213.279683 
L 302.725774 213.279683 
L 302.725774 209.447287 
L 302.884304 209.447287 
L 302.884304 205.614891 
L 303.222357 205.614891 
L 303.222357 201.782495 
L 303.379351 201.782495 
L 303.379351 197.950099 
L 303.602792 197.950099 
L 303.602792 194.117703 
L 304.727343 194.117703 
L 304.727343 190.285307 
L 304.770941 190.285307 
L 304.770941 186.452911 
L 305.204883 186.452911 
L 305.204883 182.620515 
L 306.125527 182.620515 
L 306.125527 178.788119 
L 461.8 178.788119 
" style="fill:none;stroke:#f5deb3;stroke-linecap:square;stroke-width:1.5;"/>
   </g>
   <g id="line2d_28">
    <path clip-path="url(#pde0f7ec065)" d="M 213.403443 293.76 
L 213.403443 289.927604 
L 213.534237 289.927604 
L 213.534237 286.095208 
L 213.664697 286.095208 
L 213.664697 282.262812 
L 213.794823 282.262812 
L 213.794823 278.430416 
L 218.744781 278.430416 
L 218.744781 274.59802 
L 218.744781 274.59802 
L 218.744781 270.765624 
L 218.744781 270.765624 
L 218.744781 266.933228 
L 218.744781 266.933228 
L 218.744781 263.100832 
L 218.862571 263.100832 
L 218.862571 259.268436 
L 223.578863 259.268436 
L 223.578863 255.43604 
L 223.578863 255.43604 
L 223.578863 251.603644 
L 223.899606 251.603644 
L 223.899606 247.771248 
L 228.483118 247.771248 
L 228.483118 243.938851 
L 232.147065 243.938851 
L 232.147065 240.106455 
L 239.636302 240.106455 
L 239.636302 236.274059 
L 389.93492 236.274059 
L 389.93492 232.441663 
L 390.098452 232.441663 
L 390.098452 228.609267 
L 390.220758 228.609267 
L 390.220758 224.776871 
L 390.334646 224.776871 
L 390.334646 220.944475 
L 390.403668 220.944475 
L 390.403668 217.112079 
L 391.096801 217.112079 
L 391.096801 213.279683 
L 391.423958 213.279683 
L 391.423958 209.447287 
L 391.503434 209.447287 
L 391.503434 205.614891 
L 391.523284 205.614891 
L 391.523284 201.782495 
L 392.154428 201.782495 
L 392.154428 197.950099 
L 392.240602 197.950099 
L 392.240602 194.117703 
L 392.905485 194.117703 
L 392.905485 190.285307 
L 393.485475 190.285307 
L 393.485475 186.452911 
L 393.759719 186.452911 
L 393.759719 182.620515 
L 394.017379 182.620515 
L 394.017379 178.788119 
L 411.501567 178.788119 
L 411.501567 174.955723 
L 413.584869 174.955723 
L 413.584869 171.123327 
L 413.73395 171.123327 
L 413.73395 167.290931 
L 414.536081 167.290931 
L 414.536081 163.458535 
L 414.581538 163.458535 
L 414.581538 159.626139 
L 415.201244 159.626139 
L 415.201244 155.793743 
L 415.576413 155.793743 
L 415.576413 151.961347 
L 415.667922 151.961347 
L 415.667922 148.12895 
L 415.714849 148.12895 
L 415.714849 144.296554 
L 416.044588 144.296554 
L 416.044588 140.464158 
L 416.056851 140.464158 
L 416.056851 136.631762 
L 416.379517 136.631762 
L 416.379517 132.799366 
L 416.608056 132.799366 
L 416.608056 128.96697 
L 417.356952 128.96697 
L 417.356952 125.134574 
L 420.696798 125.134574 
L 420.696798 121.302178 
L 420.696798 121.302178 
L 420.696798 121.302178 
L 460.8 121.302178 
" style="fill:none;stroke:#f5deb3;stroke-linecap:square;stroke-width:1.5;"/>
   </g>
   <g id="line2d_29">
    <path clip-path="url(#pde0f7ec065)" d="M 97.520027 293.76 
L 97.520027 289.927604 
L 97.520027 289.927604 
L 97.520027 286.095208 
L 97.520027 286.095208 
L 97.520027 282.262812 
L 97.520027 282.262812 
L 97.520027 278.430416 
L 97.520027 278.430416 
L 97.520027 274.59802 
L 97.520027 274.59802 
L 97.520027 270.765624 
L 98.777979 270.765624 
L 98.777979 266.933228 
L 98.777979 266.933228 
L 98.777979 263.100832 
L 98.777979 263.100832 
L 98.777979 259.268436 
L 98.777979 259.268436 
L 98.777979 255.43604 
L 98.777979 255.43604 
L 98.777979 251.603644 
L 98.777979 251.603644 
L 98.777979 247.771248 
L 98.777979 247.771248 
L 98.777979 243.938851 
L 98.777979 243.938851 
L 98.777979 240.106455 
L 98.777979 240.106455 
L 98.777979 236.274059 
L 123.031766 236.274059 
L 123.031766 232.441663 
L 123.031766 232.441663 
L 123.031766 228.609267 
L 123.031766 228.609267 
L 123.031766 224.776871 
L 208.1667 224.776871 
L 208.1667 220.944475 
L 208.1667 220.944475 
L 208.1667 217.112079 
L 208.1667 217.112079 
L 208.1667 213.279683 
L 208.887285 213.279683 
L 208.887285 209.447287 
L 208.887285 209.447287 
L 208.887285 205.614891 
L 208.887285 205.614891 
L 208.887285 201.782495 
L 209.456503 201.782495 
L 209.456503 197.950099 
L 209.456503 197.950099 
L 209.456503 194.117703 
L 209.456503 194.117703 
L 209.456503 190.285307 
L 209.738744 190.285307 
L 209.738744 186.452911 
L 209.738744 186.452911 
L 209.738744 182.620515 
L 209.738744 182.620515 
L 209.738744 178.788119 
L 209.738744 178.788119 
L 209.738744 178.788119 
L 460.8 178.788119 
" style="fill:none;stroke:#f5deb3;stroke-linecap:square;stroke-width:1.5;"/>
   </g>
   <g id="line2d_30">
    <path clip-path="url(#pde0f7ec065)" d="M 209.597819 293.76 
L 209.597819 289.927604 
L 209.597819 289.927604 
L 209.597819 286.095208 
L 210.298579 286.095208 
L 210.298579 282.262812 
L 211.536158 282.262812 
L 211.536158 278.430416 
L 212.076688 278.430416 
L 212.076688 274.59802 
L 212.076688 274.59802 
L 212.076688 270.765624 
L 212.87688 270.765624 
L 212.87688 266.933228 
L 213.140842 266.933228 
L 213.140842 263.100832 
L 213.272311 263.100832 
L 213.272311 259.268436 
L 213.403443 259.268436 
L 213.403443 255.43604 
L 213.794823 255.43604 
L 213.794823 251.603644 
L 214.568679 251.603644 
L 214.568679 247.771248 
L 215.204698 247.771248 
L 215.204698 243.938851 
L 215.330954 243.938851 
L 215.330954 240.106455 
L 216.4534 240.106455 
L 216.4534 236.274059 
L 216.699509 236.274059 
L 216.699509 232.441663 
L 217.066458 232.441663 
L 217.066458 228.609267 
L 217.91253 228.609267 
L 217.91253 224.776871 
L 218.270875 224.776871 
L 218.270875 220.944475 
L 218.744781 220.944475 
L 218.744781 217.112079 
L 219.563653 217.112079 
L 219.563653 213.279683 
L 219.910609 213.279683 
L 219.910609 209.447287 
L 221.050354 209.447287 
L 221.050354 205.614891 
L 222.275308 205.614891 
L 222.275308 201.782495 
L 222.604337 201.782495 
L 222.604337 197.950099 
L 222.822515 197.950099 
L 222.822515 194.117703 
L 223.686002 194.117703 
L 223.686002 190.285307 
L 224.324146 190.285307 
L 224.324146 186.452911 
L 224.535096 186.452911 
L 224.535096 182.620515 
L 235.818754 182.620515 
L 235.818754 178.788119 
L 239.714497 178.788119 
L 239.714497 174.955723 
L 239.714497 174.955723 
L 239.714497 171.123327 
L 239.714497 171.123327 
L 239.714497 167.290931 
L 239.714497 167.290931 
L 239.714497 163.458535 
L 239.714497 163.458535 
L 239.714497 159.626139 
L 239.714497 159.626139 
L 239.714497 155.793743 
L 239.714497 155.793743 
L 239.714497 151.961347 
L 239.714497 151.961347 
L 239.714497 148.12895 
L 239.714497 148.12895 
L 239.714497 144.296554 
L 239.714497 144.296554 
L 239.714497 140.464158 
L 239.714497 140.464158 
L 239.714497 136.631762 
L 239.714497 136.631762 
L 239.714497 132.799366 
L 239.714497 132.799366 
L 239.714497 128.96697 
L 239.714497 128.96697 
L 239.714497 125.134574 
L 239.714497 125.134574 
L 239.714497 121.302178 
L 239.714497 121.302178 
L 239.714497 121.302178 
L 460.8 121.302178 
" style="fill:none;stroke:#f5deb3;stroke-linecap:square;stroke-width:1.5;"/>
   </g>
   <g id="matplotlib.axis_1">
    <g id="xtick_1">
     <g id="line2d_31">
      <path clip-path="url(#pde0f7ec065)" d="M 179.512013 293.76 
L 179.512013 3.456 
" style="fill:none;stroke:#b0b0b0;stroke-linecap:square;stroke-width:0.8;"/>
     </g>
     <g id="line2d_32">
      <defs>
       <path d="M 0 0 
L 0 3.5 
" id="me4a1e025e7" style="stroke:#000000;stroke-width:0.8;"/>
      </defs>
      <g>
       <use style="stroke:#000000;stroke-width:0.8;" x="179.512013" xlink:href="#me4a1e025e7" y="293.76"/>
      </g>
     </g>
     <g id="text_1">
      <!-- 1 -->
      <g transform="translate(173.149513 315.956875)scale(0.2 -0.2)">
       <defs>
        <path d="M 794 531 
L 1825 531 
L 1825 4091 
L 703 3866 
L 703 4441 
L 1819 4666 
L 2450 4666 
L 2450 531 
L 3481 531 
L 3481 0 
L 794 0 
L 794 531 
z
" id="DejaVuSans-31" transform="scale(0.015625)"/>
       </defs>
       <use xlink:href="#DejaVuSans-31"/>
      </g>
     </g>
    </g>
    <g id="xtick_2">
     <g id="line2d_33">
      <path clip-path="url(#pde0f7ec065)" d="M 414.12004 293.76 
L 414.12004 3.456 
" style="fill:none;stroke:#b0b0b0;stroke-linecap:square;stroke-width:0.8;"/>
     </g>
     <g id="line2d_34">
      <g>
       <use style="stroke:#000000;stroke-width:0.8;" x="414.12004" xlink:href="#me4a1e025e7" y="293.76"/>
      </g>
     </g>
     <g id="text_2">
      <!-- 3 -->
      <g transform="translate(407.75754 315.956875)scale(0.2 -0.2)">
       <defs>
        <path d="M 2597 2516 
Q 3050 2419 3304 2112 
Q 3559 1806 3559 1356 
Q 3559 666 3084 287 
Q 2609 -91 1734 -91 
Q 1441 -91 1130 -33 
Q 819 25 488 141 
L 488 750 
Q 750 597 1062 519 
Q 1375 441 1716 441 
Q 2309 441 2620 675 
Q 2931 909 2931 1356 
Q 2931 1769 2642 2001 
Q 2353 2234 1838 2234 
L 1294 2234 
L 1294 2753 
L 1863 2753 
Q 2328 2753 2575 2939 
Q 2822 3125 2822 3475 
Q 2822 3834 2567 4026 
Q 2313 4219 1838 4219 
Q 1578 4219 1281 4162 
Q 984 4106 628 3988 
L 628 4550 
Q 988 4650 1302 4700 
Q 1616 4750 1894 4750 
Q 2613 4750 3031 4423 
Q 3450 4097 3450 3541 
Q 3450 3153 3228 2886 
Q 3006 2619 2597 2516 
z
" id="DejaVuSans-33" transform="scale(0.015625)"/>
       </defs>
       <use xlink:href="#DejaVuSans-33"/>
      </g>
     </g>
    </g>
    <g id="xtick_3">
     <g id="line2d_35">
      <path clip-path="url(#pde0f7ec065)" d="M 97.520027 293.76 
L 97.520027 3.456 
" style="fill:none;stroke:#b0b0b0;stroke-linecap:square;stroke-width:0.8;"/>
     </g>
     <g id="line2d_36">
      <defs>
       <path d="M 0 0 
L 0 2 
" id="m0fa4e578ab" style="stroke:#000000;stroke-width:0.6;"/>
      </defs>
      <g>
       <use style="stroke:#000000;stroke-width:0.6;" x="97.520027" xlink:href="#m0fa4e578ab" y="293.76"/>
      </g>
     </g>
    </g>
    <g id="xtick_4">
     <g id="line2d_37">
      <path clip-path="url(#pde0f7ec065)" d="M 118.176238 293.76 
L 118.176238 3.456 
" style="fill:none;stroke:#b0b0b0;stroke-linecap:square;stroke-width:0.8;"/>
     </g>
     <g id="line2d_38">
      <g>
       <use style="stroke:#000000;stroke-width:0.6;" x="118.176238" xlink:href="#m0fa4e578ab" y="293.76"/>
      </g>
     </g>
    </g>
    <g id="xtick_5">
     <g id="line2d_39">
      <path clip-path="url(#pde0f7ec065)" d="M 132.832053 293.76 
L 132.832053 3.456 
" style="fill:none;stroke:#b0b0b0;stroke-linecap:square;stroke-width:0.8;"/>
     </g>
     <g id="line2d_40">
      <g>
       <use style="stroke:#000000;stroke-width:0.6;" x="132.832053" xlink:href="#m0fa4e578ab" y="293.76"/>
      </g>
     </g>
    </g>
    <g id="xtick_6">
     <g id="line2d_41">
      <path clip-path="url(#pde0f7ec065)" d="M 144.199987 293.76 
L 144.199987 3.456 
" style="fill:none;stroke:#b0b0b0;stroke-linecap:square;stroke-width:0.8;"/>
     </g>
     <g id="line2d_42">
      <g>
       <use style="stroke:#000000;stroke-width:0.6;" x="144.199987" xlink:href="#m0fa4e578ab" y="293.76"/>
      </g>
     </g>
    </g>
    <g id="xtick_7">
     <g id="line2d_43">
      <path clip-path="url(#pde0f7ec065)" d="M 153.488265 293.76 
L 153.488265 3.456 
" style="fill:none;stroke:#b0b0b0;stroke-linecap:square;stroke-width:0.8;"/>
     </g>
     <g id="line2d_44">
      <g>
       <use style="stroke:#000000;stroke-width:0.6;" x="153.488265" xlink:href="#m0fa4e578ab" y="293.76"/>
      </g>
     </g>
    </g>
    <g id="xtick_8">
     <g id="line2d_45">
      <path clip-path="url(#pde0f7ec065)" d="M 161.341392 293.76 
L 161.341392 3.456 
" style="fill:none;stroke:#b0b0b0;stroke-linecap:square;stroke-width:0.8;"/>
     </g>
     <g id="line2d_46">
      <g>
       <use style="stroke:#000000;stroke-width:0.6;" x="161.341392" xlink:href="#m0fa4e578ab" y="293.76"/>
      </g>
     </g>
    </g>
    <g id="xtick_9">
     <g id="line2d_47">
      <path clip-path="url(#pde0f7ec065)" d="M 168.14408 293.76 
L 168.14408 3.456 
" style="fill:none;stroke:#b0b0b0;stroke-linecap:square;stroke-width:0.8;"/>
     </g>
     <g id="line2d_48">
      <g>
       <use style="stroke:#000000;stroke-width:0.6;" x="168.14408" xlink:href="#m0fa4e578ab" y="293.76"/>
      </g>
     </g>
    </g>
    <g id="xtick_10">
     <g id="line2d_49">
      <path clip-path="url(#pde0f7ec065)" d="M 174.144476 293.76 
L 174.144476 3.456 
" style="fill:none;stroke:#b0b0b0;stroke-linecap:square;stroke-width:0.8;"/>
     </g>
     <g id="line2d_50">
      <g>
       <use style="stroke:#000000;stroke-width:0.6;" x="174.144476" xlink:href="#m0fa4e578ab" y="293.76"/>
      </g>
     </g>
    </g>
    <g id="xtick_11">
     <g id="line2d_51">
      <path clip-path="url(#pde0f7ec065)" d="M 214.82404 293.76 
L 214.82404 3.456 
" style="fill:none;stroke:#b0b0b0;stroke-linecap:square;stroke-width:0.8;"/>
     </g>
     <g id="line2d_52">
      <g>
       <use style="stroke:#000000;stroke-width:0.6;" x="214.82404" xlink:href="#m0fa4e578ab" y="293.76"/>
      </g>
     </g>
    </g>
    <g id="xtick_12">
     <g id="line2d_53">
      <path clip-path="url(#pde0f7ec065)" d="M 235.480251 293.76 
L 235.480251 3.456 
" style="fill:none;stroke:#b0b0b0;stroke-linecap:square;stroke-width:0.8;"/>
     </g>
     <g id="line2d_54">
      <g>
       <use style="stroke:#000000;stroke-width:0.6;" x="235.480251" xlink:href="#m0fa4e578ab" y="293.76"/>
      </g>
     </g>
    </g>
    <g id="xtick_13">
     <g id="line2d_55">
      <path clip-path="url(#pde0f7ec065)" d="M 250.136067 293.76 
L 250.136067 3.456 
" style="fill:none;stroke:#b0b0b0;stroke-linecap:square;stroke-width:0.8;"/>
     </g>
     <g id="line2d_56">
      <g>
       <use style="stroke:#000000;stroke-width:0.6;" x="250.136067" xlink:href="#m0fa4e578ab" y="293.76"/>
      </g>
     </g>
    </g>
    <g id="xtick_14">
     <g id="line2d_57">
      <path clip-path="url(#pde0f7ec065)" d="M 261.504 293.76 
L 261.504 3.456 
" style="fill:none;stroke:#b0b0b0;stroke-linecap:square;stroke-width:0.8;"/>
     </g>
     <g id="line2d_58">
      <g>
       <use style="stroke:#000000;stroke-width:0.6;" x="261.504" xlink:href="#m0fa4e578ab" y="293.76"/>
      </g>
     </g>
    </g>
    <g id="xtick_15">
     <g id="line2d_59">
      <path clip-path="url(#pde0f7ec065)" d="M 270.792278 293.76 
L 270.792278 3.456 
" style="fill:none;stroke:#b0b0b0;stroke-linecap:square;stroke-width:0.8;"/>
     </g>
     <g id="line2d_60">
      <g>
       <use style="stroke:#000000;stroke-width:0.6;" x="270.792278" xlink:href="#m0fa4e578ab" y="293.76"/>
      </g>
     </g>
    </g>
    <g id="xtick_16">
     <g id="line2d_61">
      <path clip-path="url(#pde0f7ec065)" d="M 278.645405 293.76 
L 278.645405 3.456 
" style="fill:none;stroke:#b0b0b0;stroke-linecap:square;stroke-width:0.8;"/>
     </g>
     <g id="line2d_62">
      <g>
       <use style="stroke:#000000;stroke-width:0.6;" x="278.645405" xlink:href="#m0fa4e578ab" y="293.76"/>
      </g>
     </g>
    </g>
    <g id="xtick_17">
     <g id="line2d_63">
      <path clip-path="url(#pde0f7ec065)" d="M 285.448093 293.76 
L 285.448093 3.456 
" style="fill:none;stroke:#b0b0b0;stroke-linecap:square;stroke-width:0.8;"/>
     </g>
     <g id="line2d_64">
      <g>
       <use style="stroke:#000000;stroke-width:0.6;" x="285.448093" xlink:href="#m0fa4e578ab" y="293.76"/>
      </g>
     </g>
    </g>
    <g id="xtick_18">
     <g id="line2d_65">
      <path clip-path="url(#pde0f7ec065)" d="M 291.448489 293.76 
L 291.448489 3.456 
" style="fill:none;stroke:#b0b0b0;stroke-linecap:square;stroke-width:0.8;"/>
     </g>
     <g id="line2d_66">
      <g>
       <use style="stroke:#000000;stroke-width:0.6;" x="291.448489" xlink:href="#m0fa4e578ab" y="293.76"/>
      </g>
     </g>
    </g>
    <g id="xtick_19">
     <g id="line2d_67">
      <path clip-path="url(#pde0f7ec065)" d="M 332.128053 293.76 
L 332.128053 3.456 
" style="fill:none;stroke:#b0b0b0;stroke-linecap:square;stroke-width:0.8;"/>
     </g>
     <g id="line2d_68">
      <g>
       <use style="stroke:#000000;stroke-width:0.6;" x="332.128053" xlink:href="#m0fa4e578ab" y="293.76"/>
      </g>
     </g>
    </g>
    <g id="xtick_20">
     <g id="line2d_69">
      <path clip-path="url(#pde0f7ec065)" d="M 352.784265 293.76 
L 352.784265 3.456 
" style="fill:none;stroke:#b0b0b0;stroke-linecap:square;stroke-width:0.8;"/>
     </g>
     <g id="line2d_70">
      <g>
       <use style="stroke:#000000;stroke-width:0.6;" x="352.784265" xlink:href="#m0fa4e578ab" y="293.76"/>
      </g>
     </g>
    </g>
    <g id="xtick_21">
     <g id="line2d_71">
      <path clip-path="url(#pde0f7ec065)" d="M 367.44008 293.76 
L 367.44008 3.456 
" style="fill:none;stroke:#b0b0b0;stroke-linecap:square;stroke-width:0.8;"/>
     </g>
     <g id="line2d_72">
      <g>
       <use style="stroke:#000000;stroke-width:0.6;" x="367.44008" xlink:href="#m0fa4e578ab" y="293.76"/>
      </g>
     </g>
    </g>
    <g id="xtick_22">
     <g id="line2d_73">
      <path clip-path="url(#pde0f7ec065)" d="M 378.808013 293.76 
L 378.808013 3.456 
" style="fill:none;stroke:#b0b0b0;stroke-linecap:square;stroke-width:0.8;"/>
     </g>
     <g id="line2d_74">
      <g>
       <use style="stroke:#000000;stroke-width:0.6;" x="378.808013" xlink:href="#m0fa4e578ab" y="293.76"/>
      </g>
     </g>
    </g>
    <g id="xtick_23">
     <g id="line2d_75">
      <path clip-path="url(#pde0f7ec065)" d="M 388.096291 293.76 
L 388.096291 3.456 
" style="fill:none;stroke:#b0b0b0;stroke-linecap:square;stroke-width:0.8;"/>
     </g>
     <g id="line2d_76">
      <g>
       <use style="stroke:#000000;stroke-width:0.6;" x="388.096291" xlink:href="#m0fa4e578ab" y="293.76"/>
      </g>
     </g>
    </g>
    <g id="xtick_24">
     <g id="line2d_77">
      <path clip-path="url(#pde0f7ec065)" d="M 395.949418 293.76 
L 395.949418 3.456 
" style="fill:none;stroke:#b0b0b0;stroke-linecap:square;stroke-width:0.8;"/>
     </g>
     <g id="line2d_78">
      <g>
       <use style="stroke:#000000;stroke-width:0.6;" x="395.949418" xlink:href="#m0fa4e578ab" y="293.76"/>
      </g>
     </g>
    </g>
    <g id="xtick_25">
     <g id="line2d_79">
      <path clip-path="url(#pde0f7ec065)" d="M 402.752106 293.76 
L 402.752106 3.456 
" style="fill:none;stroke:#b0b0b0;stroke-linecap:square;stroke-width:0.8;"/>
     </g>
     <g id="line2d_80">
      <g>
       <use style="stroke:#000000;stroke-width:0.6;" x="402.752106" xlink:href="#m0fa4e578ab" y="293.76"/>
      </g>
     </g>
    </g>
    <g id="xtick_26">
     <g id="line2d_81">
      <path clip-path="url(#pde0f7ec065)" d="M 408.752503 293.76 
L 408.752503 3.456 
" style="fill:none;stroke:#b0b0b0;stroke-linecap:square;stroke-width:0.8;"/>
     </g>
     <g id="line2d_82">
      <g>
       <use style="stroke:#000000;stroke-width:0.6;" x="408.752503" xlink:href="#m0fa4e578ab" y="293.76"/>
      </g>
     </g>
    </g>
    <g id="xtick_27">
     <g id="line2d_83">
      <path clip-path="url(#pde0f7ec065)" d="M 449.432067 293.76 
L 449.432067 3.456 
" style="fill:none;stroke:#b0b0b0;stroke-linecap:square;stroke-width:0.8;"/>
     </g>
     <g id="line2d_84">
      <g>
       <use style="stroke:#000000;stroke-width:0.6;" x="449.432067" xlink:href="#m0fa4e578ab" y="293.76"/>
      </g>
     </g>
    </g>
    <g id="text_3">
     <!-- log10 of FEvals / DIM -->
     <g transform="translate(156.430563 339.313125)scale(0.2 -0.2)">
      <defs>
       <path d="M 603 4863 
L 1178 4863 
L 1178 0 
L 603 0 
L 603 4863 
z
" id="DejaVuSans-6c" transform="scale(0.015625)"/>
       <path d="M 1959 3097 
Q 1497 3097 1228 2736 
Q 959 2375 959 1747 
Q 959 1119 1226 758 
Q 1494 397 1959 397 
Q 2419 397 2687 759 
Q 2956 1122 2956 1747 
Q 2956 2369 2687 2733 
Q 2419 3097 1959 3097 
z
M 1959 3584 
Q 2709 3584 3137 3096 
Q 3566 2609 3566 1747 
Q 3566 888 3137 398 
Q 2709 -91 1959 -91 
Q 1206 -91 779 398 
Q 353 888 353 1747 
Q 353 2609 779 3096 
Q 1206 3584 1959 3584 
z
" id="DejaVuSans-6f" transform="scale(0.015625)"/>
       <path d="M 2906 1791 
Q 2906 2416 2648 2759 
Q 2391 3103 1925 3103 
Q 1463 3103 1205 2759 
Q 947 2416 947 1791 
Q 947 1169 1205 825 
Q 1463 481 1925 481 
Q 2391 481 2648 825 
Q 2906 1169 2906 1791 
z
M 3481 434 
Q 3481 -459 3084 -895 
Q 2688 -1331 1869 -1331 
Q 1566 -1331 1297 -1286 
Q 1028 -1241 775 -1147 
L 775 -588 
Q 1028 -725 1275 -790 
Q 1522 -856 1778 -856 
Q 2344 -856 2625 -561 
Q 2906 -266 2906 331 
L 2906 616 
Q 2728 306 2450 153 
Q 2172 0 1784 0 
Q 1141 0 747 490 
Q 353 981 353 1791 
Q 353 2603 747 3093 
Q 1141 3584 1784 3584 
Q 2172 3584 2450 3431 
Q 2728 3278 2906 2969 
L 2906 3500 
L 3481 3500 
L 3481 434 
z
" id="DejaVuSans-67" transform="scale(0.015625)"/>
       <path d="M 2034 4250 
Q 1547 4250 1301 3770 
Q 1056 3291 1056 2328 
Q 1056 1369 1301 889 
Q 1547 409 2034 409 
Q 2525 409 2770 889 
Q 3016 1369 3016 2328 
Q 3016 3291 2770 3770 
Q 2525 4250 2034 4250 
z
M 2034 4750 
Q 2819 4750 3233 4129 
Q 3647 3509 3647 2328 
Q 3647 1150 3233 529 
Q 2819 -91 2034 -91 
Q 1250 -91 836 529 
Q 422 1150 422 2328 
Q 422 3509 836 4129 
Q 1250 4750 2034 4750 
z
" id="DejaVuSans-30" transform="scale(0.015625)"/>
       <path id="DejaVuSans-20" transform="scale(0.015625)"/>
       <path d="M 2375 4863 
L 2375 4384 
L 1825 4384 
Q 1516 4384 1395 4259 
Q 1275 4134 1275 3809 
L 1275 3500 
L 2222 3500 
L 2222 3053 
L 1275 3053 
L 1275 0 
L 697 0 
L 697 3053 
L 147 3053 
L 147 3500 
L 697 3500 
L 697 3744 
Q 697 4328 969 4595 
Q 1241 4863 1831 4863 
L 2375 4863 
z
" id="DejaVuSans-66" transform="scale(0.015625)"/>
       <path d="M 628 4666 
L 3309 4666 
L 3309 4134 
L 1259 4134 
L 1259 2759 
L 3109 2759 
L 3109 2228 
L 1259 2228 
L 1259 0 
L 628 0 
L 628 4666 
z
" id="DejaVuSans-46" transform="scale(0.015625)"/>
       <path d="M 628 4666 
L 3578 4666 
L 3578 4134 
L 1259 4134 
L 1259 2753 
L 3481 2753 
L 3481 2222 
L 1259 2222 
L 1259 531 
L 3634 531 
L 3634 0 
L 628 0 
L 628 4666 
z
" id="DejaVuSans-45" transform="scale(0.015625)"/>
       <path d="M 191 3500 
L 800 3500 
L 1894 563 
L 2988 3500 
L 3597 3500 
L 2284 0 
L 1503 0 
L 191 3500 
z
" id="DejaVuSans-76" transform="scale(0.015625)"/>
       <path d="M 2194 1759 
Q 1497 1759 1228 1600 
Q 959 1441 959 1056 
Q 959 750 1161 570 
Q 1363 391 1709 391 
Q 2188 391 2477 730 
Q 2766 1069 2766 1631 
L 2766 1759 
L 2194 1759 
z
M 3341 1997 
L 3341 0 
L 2766 0 
L 2766 531 
Q 2569 213 2275 61 
Q 1981 -91 1556 -91 
Q 1019 -91 701 211 
Q 384 513 384 1019 
Q 384 1609 779 1909 
Q 1175 2209 1959 2209 
L 2766 2209 
L 2766 2266 
Q 2766 2663 2505 2880 
Q 2244 3097 1772 3097 
Q 1472 3097 1187 3025 
Q 903 2953 641 2809 
L 641 3341 
Q 956 3463 1253 3523 
Q 1550 3584 1831 3584 
Q 2591 3584 2966 3190 
Q 3341 2797 3341 1997 
z
" id="DejaVuSans-61" transform="scale(0.015625)"/>
       <path d="M 2834 3397 
L 2834 2853 
Q 2591 2978 2328 3040 
Q 2066 3103 1784 3103 
Q 1356 3103 1142 2972 
Q 928 2841 928 2578 
Q 928 2378 1081 2264 
Q 1234 2150 1697 2047 
L 1894 2003 
Q 2506 1872 2764 1633 
Q 3022 1394 3022 966 
Q 3022 478 2636 193 
Q 2250 -91 1575 -91 
Q 1294 -91 989 -36 
Q 684 19 347 128 
L 347 722 
Q 666 556 975 473 
Q 1284 391 1588 391 
Q 1994 391 2212 530 
Q 2431 669 2431 922 
Q 2431 1156 2273 1281 
Q 2116 1406 1581 1522 
L 1381 1569 
Q 847 1681 609 1914 
Q 372 2147 372 2553 
Q 372 3047 722 3315 
Q 1072 3584 1716 3584 
Q 2034 3584 2315 3537 
Q 2597 3491 2834 3397 
z
" id="DejaVuSans-73" transform="scale(0.015625)"/>
       <path d="M 1625 4666 
L 2156 4666 
L 531 -594 
L 0 -594 
L 1625 4666 
z
" id="DejaVuSans-2f" transform="scale(0.015625)"/>
       <path d="M 1259 4147 
L 1259 519 
L 2022 519 
Q 2988 519 3436 956 
Q 3884 1394 3884 2338 
Q 3884 3275 3436 3711 
Q 2988 4147 2022 4147 
L 1259 4147 
z
M 628 4666 
L 1925 4666 
Q 3281 4666 3915 4102 
Q 4550 3538 4550 2338 
Q 4550 1131 3912 565 
Q 3275 0 1925 0 
L 628 0 
L 628 4666 
z
" id="DejaVuSans-44" transform="scale(0.015625)"/>
       <path d="M 628 4666 
L 1259 4666 
L 1259 0 
L 628 0 
L 628 4666 
z
" id="DejaVuSans-49" transform="scale(0.015625)"/>
       <path d="M 628 4666 
L 1569 4666 
L 2759 1491 
L 3956 4666 
L 4897 4666 
L 4897 0 
L 4281 0 
L 4281 4097 
L 3078 897 
L 2444 897 
L 1241 4097 
L 1241 0 
L 628 0 
L 628 4666 
z
" id="DejaVuSans-4d" transform="scale(0.015625)"/>
      </defs>
      <use xlink:href="#DejaVuSans-6c"/>
      <use x="27.783203" xlink:href="#DejaVuSans-6f"/>
      <use x="88.964844" xlink:href="#DejaVuSans-67"/>
      <use x="152.441406" xlink:href="#DejaVuSans-31"/>
      <use x="216.064453" xlink:href="#DejaVuSans-30"/>
      <use x="279.6875" xlink:href="#DejaVuSans-20"/>
      <use x="311.474609" xlink:href="#DejaVuSans-6f"/>
      <use x="372.65625" xlink:href="#DejaVuSans-66"/>
      <use x="407.861328" xlink:href="#DejaVuSans-20"/>
      <use x="439.648438" xlink:href="#DejaVuSans-46"/>
      <use x="497.167969" xlink:href="#DejaVuSans-45"/>
      <use x="560.351562" xlink:href="#DejaVuSans-76"/>
      <use x="619.53125" xlink:href="#DejaVuSans-61"/>
      <use x="680.810547" xlink:href="#DejaVuSans-6c"/>
      <use x="708.59375" xlink:href="#DejaVuSans-73"/>
      <use x="760.693359" xlink:href="#DejaVuSans-20"/>
      <use x="792.480469" xlink:href="#DejaVuSans-2f"/>
      <use x="826.171875" xlink:href="#DejaVuSans-20"/>
      <use x="857.958984" xlink:href="#DejaVuSans-44"/>
      <use x="934.960938" xlink:href="#DejaVuSans-49"/>
      <use x="964.453125" xlink:href="#DejaVuSans-4d"/>
     </g>
    </g>
   </g>
   <g id="matplotlib.axis_2">
    <g id="ytick_1">
     <g id="line2d_85">
      <path clip-path="url(#pde0f7ec065)" d="M 62.208 293.76 
L 460.8 293.76 
" style="fill:none;stroke:#b0b0b0;stroke-linecap:square;stroke-width:0.8;"/>
     </g>
     <g id="line2d_86">
      <defs>
       <path d="M 0 0 
L -3.5 0 
" id="m1ae1becb5b" style="stroke:#000000;stroke-width:0.8;"/>
      </defs>
      <g>
       <use style="stroke:#000000;stroke-width:0.8;" x="62.208" xlink:href="#m1ae1becb5b" y="293.76"/>
      </g>
     </g>
     <g id="text_4">
      <!-- 0.0 -->
      <g transform="translate(29.763 299.83875)scale(0.16 -0.16)">
       <defs>
        <path d="M 684 794 
L 1344 794 
L 1344 0 
L 684 0 
L 684 794 
z
" id="DejaVuSans-2e" transform="scale(0.015625)"/>
       </defs>
       <use xlink:href="#DejaVuSans-30"/>
       <use x="63.623047" xlink:href="#DejaVuSans-2e"/>
       <use x="95.410156" xlink:href="#DejaVuSans-30"/>
      </g>
     </g>
    </g>
    <g id="ytick_2">
     <g id="line2d_87">
      <path clip-path="url(#pde0f7ec065)" d="M 62.208 236.274059 
L 460.8 236.274059 
" style="fill:none;stroke:#b0b0b0;stroke-linecap:square;stroke-width:0.8;"/>
     </g>
     <g id="line2d_88">
      <g>
       <use style="stroke:#000000;stroke-width:0.8;" x="62.208" xlink:href="#m1ae1becb5b" y="236.274059"/>
      </g>
     </g>
     <g id="text_5">
      <!-- 0.2 -->
      <g transform="translate(29.763 242.352809)scale(0.16 -0.16)">
       <defs>
        <path d="M 1228 531 
L 3431 531 
L 3431 0 
L 469 0 
L 469 531 
Q 828 903 1448 1529 
Q 2069 2156 2228 2338 
Q 2531 2678 2651 2914 
Q 2772 3150 2772 3378 
Q 2772 3750 2511 3984 
Q 2250 4219 1831 4219 
Q 1534 4219 1204 4116 
Q 875 4013 500 3803 
L 500 4441 
Q 881 4594 1212 4672 
Q 1544 4750 1819 4750 
Q 2544 4750 2975 4387 
Q 3406 4025 3406 3419 
Q 3406 3131 3298 2873 
Q 3191 2616 2906 2266 
Q 2828 2175 2409 1742 
Q 1991 1309 1228 531 
z
" id="DejaVuSans-32" transform="scale(0.015625)"/>
       </defs>
       <use xlink:href="#DejaVuSans-30"/>
       <use x="63.623047" xlink:href="#DejaVuSans-2e"/>
       <use x="95.410156" xlink:href="#DejaVuSans-32"/>
      </g>
     </g>
    </g>
    <g id="ytick_3">
     <g id="line2d_89">
      <path clip-path="url(#pde0f7ec065)" d="M 62.208 178.788119 
L 460.8 178.788119 
" style="fill:none;stroke:#b0b0b0;stroke-linecap:square;stroke-width:0.8;"/>
     </g>
     <g id="line2d_90">
      <g>
       <use style="stroke:#000000;stroke-width:0.8;" x="62.208" xlink:href="#m1ae1becb5b" y="178.788119"/>
      </g>
     </g>
     <g id="text_6">
      <!-- 0.4 -->
      <g transform="translate(29.763 184.866869)scale(0.16 -0.16)">
       <defs>
        <path d="M 2419 4116 
L 825 1625 
L 2419 1625 
L 2419 4116 
z
M 2253 4666 
L 3047 4666 
L 3047 1625 
L 3713 1625 
L 3713 1100 
L 3047 1100 
L 3047 0 
L 2419 0 
L 2419 1100 
L 313 1100 
L 313 1709 
L 2253 4666 
z
" id="DejaVuSans-34" transform="scale(0.015625)"/>
       </defs>
       <use xlink:href="#DejaVuSans-30"/>
       <use x="63.623047" xlink:href="#DejaVuSans-2e"/>
       <use x="95.410156" xlink:href="#DejaVuSans-34"/>
      </g>
     </g>
    </g>
    <g id="ytick_4">
     <g id="line2d_91">
      <path clip-path="url(#pde0f7ec065)" d="M 62.208 121.302178 
L 460.8 121.302178 
" style="fill:none;stroke:#b0b0b0;stroke-linecap:square;stroke-width:0.8;"/>
     </g>
     <g id="line2d_92">
      <g>
       <use style="stroke:#000000;stroke-width:0.8;" x="62.208" xlink:href="#m1ae1becb5b" y="121.302178"/>
      </g>
     </g>
     <g id="text_7">
      <!-- 0.6 -->
      <g transform="translate(29.763 127.380928)scale(0.16 -0.16)">
       <defs>
        <path d="M 2113 2584 
Q 1688 2584 1439 2293 
Q 1191 2003 1191 1497 
Q 1191 994 1439 701 
Q 1688 409 2113 409 
Q 2538 409 2786 701 
Q 3034 994 3034 1497 
Q 3034 2003 2786 2293 
Q 2538 2584 2113 2584 
z
M 3366 4563 
L 3366 3988 
Q 3128 4100 2886 4159 
Q 2644 4219 2406 4219 
Q 1781 4219 1451 3797 
Q 1122 3375 1075 2522 
Q 1259 2794 1537 2939 
Q 1816 3084 2150 3084 
Q 2853 3084 3261 2657 
Q 3669 2231 3669 1497 
Q 3669 778 3244 343 
Q 2819 -91 2113 -91 
Q 1303 -91 875 529 
Q 447 1150 447 2328 
Q 447 3434 972 4092 
Q 1497 4750 2381 4750 
Q 2619 4750 2861 4703 
Q 3103 4656 3366 4563 
z
" id="DejaVuSans-36" transform="scale(0.015625)"/>
       </defs>
       <use xlink:href="#DejaVuSans-30"/>
       <use x="63.623047" xlink:href="#DejaVuSans-2e"/>
       <use x="95.410156" xlink:href="#DejaVuSans-36"/>
      </g>
     </g>
    </g>
    <g id="ytick_5">
     <g id="line2d_93">
      <path clip-path="url(#pde0f7ec065)" d="M 62.208 63.816238 
L 460.8 63.816238 
" style="fill:none;stroke:#b0b0b0;stroke-linecap:square;stroke-width:0.8;"/>
     </g>
     <g id="line2d_94">
      <g>
       <use style="stroke:#000000;stroke-width:0.8;" x="62.208" xlink:href="#m1ae1becb5b" y="63.816238"/>
      </g>
     </g>
     <g id="text_8">
      <!-- 0.8 -->
      <g transform="translate(29.763 69.894988)scale(0.16 -0.16)">
       <defs>
        <path d="M 2034 2216 
Q 1584 2216 1326 1975 
Q 1069 1734 1069 1313 
Q 1069 891 1326 650 
Q 1584 409 2034 409 
Q 2484 409 2743 651 
Q 3003 894 3003 1313 
Q 3003 1734 2745 1975 
Q 2488 2216 2034 2216 
z
M 1403 2484 
Q 997 2584 770 2862 
Q 544 3141 544 3541 
Q 544 4100 942 4425 
Q 1341 4750 2034 4750 
Q 2731 4750 3128 4425 
Q 3525 4100 3525 3541 
Q 3525 3141 3298 2862 
Q 3072 2584 2669 2484 
Q 3125 2378 3379 2068 
Q 3634 1759 3634 1313 
Q 3634 634 3220 271 
Q 2806 -91 2034 -91 
Q 1263 -91 848 271 
Q 434 634 434 1313 
Q 434 1759 690 2068 
Q 947 2378 1403 2484 
z
M 1172 3481 
Q 1172 3119 1398 2916 
Q 1625 2713 2034 2713 
Q 2441 2713 2670 2916 
Q 2900 3119 2900 3481 
Q 2900 3844 2670 4047 
Q 2441 4250 2034 4250 
Q 1625 4250 1398 4047 
Q 1172 3844 1172 3481 
z
" id="DejaVuSans-38" transform="scale(0.015625)"/>
       </defs>
       <use xlink:href="#DejaVuSans-30"/>
       <use x="63.623047" xlink:href="#DejaVuSans-2e"/>
       <use x="95.410156" xlink:href="#DejaVuSans-38"/>
      </g>
     </g>
    </g>
    <g id="ytick_6">
     <g id="line2d_95">
      <path clip-path="url(#pde0f7ec065)" d="M 62.208 6.330297 
L 460.8 6.330297 
" style="fill:none;stroke:#b0b0b0;stroke-linecap:square;stroke-width:0.8;"/>
     </g>
     <g id="line2d_96">
      <g>
       <use style="stroke:#000000;stroke-width:0.8;" x="62.208" xlink:href="#m1ae1becb5b" y="6.330297"/>
      </g>
     </g>
     <g id="text_9">
      <!-- 1.0 -->
      <g transform="translate(29.763 12.409047)scale(0.16 -0.16)">
       <use xlink:href="#DejaVuSans-31"/>
       <use x="63.623047" xlink:href="#DejaVuSans-2e"/>
       <use x="95.410156" xlink:href="#DejaVuSans-30"/>
      </g>
     </g>
    </g>
    <g id="text_10">
     <!-- proportion of trials -->
     <g transform="translate(21.603625 241.61425)rotate(-90)scale(0.2 -0.2)">
      <defs>
       <path d="M 1159 525 
L 1159 -1331 
L 581 -1331 
L 581 3500 
L 1159 3500 
L 1159 2969 
Q 1341 3281 1617 3432 
Q 1894 3584 2278 3584 
Q 2916 3584 3314 3078 
Q 3713 2572 3713 1747 
Q 3713 922 3314 415 
Q 2916 -91 2278 -91 
Q 1894 -91 1617 61 
Q 1341 213 1159 525 
z
M 3116 1747 
Q 3116 2381 2855 2742 
Q 2594 3103 2138 3103 
Q 1681 3103 1420 2742 
Q 1159 2381 1159 1747 
Q 1159 1113 1420 752 
Q 1681 391 2138 391 
Q 2594 391 2855 752 
Q 3116 1113 3116 1747 
z
" id="DejaVuSans-70" transform="scale(0.015625)"/>
       <path d="M 2631 2963 
Q 2534 3019 2420 3045 
Q 2306 3072 2169 3072 
Q 1681 3072 1420 2755 
Q 1159 2438 1159 1844 
L 1159 0 
L 581 0 
L 581 3500 
L 1159 3500 
L 1159 2956 
Q 1341 3275 1631 3429 
Q 1922 3584 2338 3584 
Q 2397 3584 2469 3576 
Q 2541 3569 2628 3553 
L 2631 2963 
z
" id="DejaVuSans-72" transform="scale(0.015625)"/>
       <path d="M 1172 4494 
L 1172 3500 
L 2356 3500 
L 2356 3053 
L 1172 3053 
L 1172 1153 
Q 1172 725 1289 603 
Q 1406 481 1766 481 
L 2356 481 
L 2356 0 
L 1766 0 
Q 1100 0 847 248 
Q 594 497 594 1153 
L 594 3053 
L 172 3053 
L 172 3500 
L 594 3500 
L 594 4494 
L 1172 4494 
z
" id="DejaVuSans-74" transform="scale(0.015625)"/>
       <path d="M 603 3500 
L 1178 3500 
L 1178 0 
L 603 0 
L 603 3500 
z
M 603 4863 
L 1178 4863 
L 1178 4134 
L 603 4134 
L 603 4863 
z
" id="DejaVuSans-69" transform="scale(0.015625)"/>
       <path d="M 3513 2113 
L 3513 0 
L 2938 0 
L 2938 2094 
Q 2938 2591 2744 2837 
Q 2550 3084 2163 3084 
Q 1697 3084 1428 2787 
Q 1159 2491 1159 1978 
L 1159 0 
L 581 0 
L 581 3500 
L 1159 3500 
L 1159 2956 
Q 1366 3272 1645 3428 
Q 1925 3584 2291 3584 
Q 2894 3584 3203 3211 
Q 3513 2838 3513 2113 
z
" id="DejaVuSans-6e" transform="scale(0.015625)"/>
      </defs>
      <use xlink:href="#DejaVuSans-70"/>
      <use x="63.476562" xlink:href="#DejaVuSans-72"/>
      <use x="102.339844" xlink:href="#DejaVuSans-6f"/>
      <use x="163.521484" xlink:href="#DejaVuSans-70"/>
      <use x="226.998047" xlink:href="#DejaVuSans-6f"/>
      <use x="288.179688" xlink:href="#DejaVuSans-72"/>
      <use x="329.292969" xlink:href="#DejaVuSans-74"/>
      <use x="368.501953" xlink:href="#DejaVuSans-69"/>
      <use x="396.285156" xlink:href="#DejaVuSans-6f"/>
      <use x="457.466797" xlink:href="#DejaVuSans-6e"/>
      <use x="520.845703" xlink:href="#DejaVuSans-20"/>
      <use x="552.632812" xlink:href="#DejaVuSans-6f"/>
      <use x="613.814453" xlink:href="#DejaVuSans-66"/>
      <use x="649.019531" xlink:href="#DejaVuSans-20"/>
      <use x="680.806641" xlink:href="#DejaVuSans-74"/>
      <use x="720.015625" xlink:href="#DejaVuSans-72"/>
      <use x="761.128906" xlink:href="#DejaVuSans-69"/>
      <use x="788.912109" xlink:href="#DejaVuSans-61"/>
      <use x="850.191406" xlink:href="#DejaVuSans-6c"/>
      <use x="877.974609" xlink:href="#DejaVuSans-73"/>
     </g>
    </g>
   </g>
   <g id="line2d_97">
    <path clip-path="url(#pde0f7ec065)" d="M 198.441128 293.76 
L 198.441128 289.927604 
L 205.637549 289.927604 
L 205.637549 286.095208 
L 214.951242 286.095208 
L 214.951242 282.262812 
L 220.369572 282.262812 
L 220.369572 278.430416 
L 220.597512 278.430416 
L 220.597512 274.59802 
L 224.324146 274.59802 
L 224.324146 270.765624 
L 236.405775 270.765624 
L 236.405775 266.933228 
L 244.909846 266.933228 
L 244.909846 263.100832 
L 245.401388 263.100832 
L 245.401388 259.268436 
L 247.723657 259.268436 
L 247.723657 255.43604 
L 252.682268 255.43604 
L 252.682268 251.603644 
L 255.049453 251.603644 
L 255.049453 247.771248 
L 260.370709 247.771248 
L 260.370709 243.938851 
L 263.502079 243.938851 
L 263.502079 240.106455 
L 263.843826 240.106455 
L 263.843826 236.274059 
L 264.855523 236.274059 
L 264.855523 232.441663 
L 267.730314 232.441663 
L 267.730314 228.609267 
L 268.313056 228.609267 
L 268.313056 224.776871 
L 269.021244 224.776871 
L 269.021244 220.944475 
L 274.239113 220.944475 
L 274.239113 217.112079 
L 274.948328 217.112079 
L 274.948328 213.279683 
L 280.748344 213.279683 
L 280.748344 209.447287 
L 289.633481 209.447287 
L 289.633481 205.614891 
L 385.236801 205.614891 
L 385.236801 201.782495 
L 391.30451 201.782495 
L 391.30451 197.950099 
L 400.745366 197.950099 
L 400.745366 194.117703 
L 409.766887 194.117703 
L 409.766887 190.285307 
L 411.766353 190.285307 
L 411.766353 186.452911 
L 412.48421 186.452911 
L 412.48421 182.620515 
L 427.283833 182.620515 
L 427.283833 178.788119 
L 428.435302 178.788119 
L 428.435302 174.955723 
L 430.828401 174.955723 
L 430.828401 171.123327 
L 441.172098 171.123327 
L 441.172098 167.290931 
L 442.921108 167.290931 
L 442.921108 163.458535 
L 448.43533 163.458535 
L 448.43533 159.626139 
L 450.342163 159.626139 
L 450.342163 155.793743 
L 459.448504 155.793743 
L 459.448504 151.961347 
L 459.448504 151.961347 
L 459.448504 151.961347 
L 460.8 151.961347 
" style="fill:none;stroke:#000000;stroke-linecap:square;stroke-width:1.5;"/>
   </g>
   <g id="line2d_98">
    <path clip-path="url(#pde0f7ec065)" style="fill:none;stroke:#000000;stroke-linecap:square;stroke-width:1.5;"/>
   </g>
   <g id="line2d_99">
    <path clip-path="url(#pde0f7ec065)" d="M 221.833271 293.76 
L 221.833271 289.927604 
L 235.818754 289.927604 
L 235.818754 286.095208 
L 237.47833 286.095208 
L 237.47833 282.262812 
L 239.16459 282.262812 
L 239.16459 278.430416 
L 247.656844 278.430416 
L 247.656844 274.59802 
L 248.122702 274.59802 
L 248.122702 270.765624 
L 257.311511 270.765624 
L 257.311511 266.933228 
L 263.551041 266.933228 
L 263.551041 263.100832 
L 332.000533 263.100832 
L 332.000533 259.268436 
L 342.549877 259.268436 
L 342.549877 255.43604 
L 342.72603 255.43604 
L 342.72603 251.603644 
L 344.334723 251.603644 
L 344.334723 247.771248 
L 344.743998 247.771248 
L 344.743998 243.938851 
L 344.97216 243.938851 
L 344.97216 240.106455 
L 345.767646 240.106455 
L 345.767646 236.274059 
L 347.037956 236.274059 
L 347.037956 232.441663 
L 347.858215 232.441663 
L 347.858215 228.609267 
L 351.459616 228.609267 
L 351.459616 224.776871 
L 353.459036 224.776871 
L 353.459036 220.944475 
L 353.818066 220.944475 
L 353.818066 217.112079 
L 355.98451 217.112079 
L 355.98451 213.279683 
L 357.662944 213.279683 
L 357.662944 209.447287 
L 362.32663 209.447287 
L 362.32663 205.614891 
L 399.772354 205.614891 
L 399.772354 201.782495 
L 404.630644 201.782495 
L 404.630644 197.950099 
L 416.267305 197.950099 
L 416.267305 194.117703 
L 417.462021 194.117703 
L 417.462021 190.285307 
L 422.489448 190.285307 
L 422.489448 186.452911 
L 422.515377 186.452911 
L 422.515377 182.620515 
L 432.441234 182.620515 
L 432.441234 178.788119 
L 434.505527 178.788119 
L 434.505527 174.955723 
L 436.356246 174.955723 
L 436.356246 171.123327 
L 443.265831 171.123327 
L 443.265831 167.290931 
L 448.926489 167.290931 
L 448.926489 163.458535 
L 452.671369 163.458535 
L 452.671369 159.626139 
L 452.671369 159.626139 
L 452.671369 159.626139 
L 460.8 159.626139 
" style="fill:none;stroke:#00bfbf;stroke-linecap:square;stroke-width:1.5;"/>
   </g>
   <g id="line2d_100">
    <path clip-path="url(#pde0f7ec065)" style="fill:none;stroke:#00bfbf;stroke-linecap:square;stroke-width:1.5;"/>
   </g>
   <g id="line2d_101">
    <path clip-path="url(#pde0f7ec065)" d="M 224.218342 293.76 
L 224.218342 289.927604 
L 238.847672 289.927604 
L 238.847672 286.095208 
L 242.304162 286.095208 
L 242.304162 282.262812 
L 249.752543 282.262812 
L 249.752543 278.430416 
L 252.682268 278.430416 
L 252.682268 274.59802 
L 252.863673 274.59802 
L 252.863673 270.765624 
L 257.311511 270.765624 
L 257.311511 266.933228 
L 269.284297 266.933228 
L 269.284297 263.100832 
L 382.240563 263.100832 
L 382.240563 259.268436 
L 382.917089 259.268436 
L 382.917089 255.43604 
L 384.862721 255.43604 
L 384.862721 251.603644 
L 386.197627 251.603644 
L 386.197627 247.771248 
L 387.601432 247.771248 
L 387.601432 243.938851 
L 389.532032 243.938851 
L 389.532032 240.106455 
L 390.436117 240.106455 
L 390.436117 236.274059 
L 392.513826 236.274059 
L 392.513826 232.441663 
L 392.626591 232.441663 
L 392.626591 228.609267 
L 393.055918 228.609267 
L 393.055918 224.776871 
L 394.465171 224.776871 
L 394.465171 220.944475 
L 395.120319 220.944475 
L 395.120319 217.112079 
L 396.149165 217.112079 
L 396.149165 213.279683 
L 398.993366 213.279683 
L 398.993366 209.447287 
L 405.079766 209.447287 
L 405.079766 205.614891 
L 423.664518 205.614891 
L 423.664518 201.782495 
L 424.202351 201.782495 
L 424.202351 197.950099 
L 432.576168 197.950099 
L 432.576168 194.117703 
L 435.081005 194.117703 
L 435.081005 190.285307 
L 437.432986 190.285307 
L 437.432986 186.452911 
L 438.852418 186.452911 
L 438.852418 182.620515 
L 443.167988 182.620515 
L 443.167988 178.788119 
L 445.369401 178.788119 
L 445.369401 174.955723 
L 448.229709 174.955723 
L 448.229709 171.123327 
L 453.021537 171.123327 
L 453.021537 167.290931 
L 456.286787 167.290931 
L 456.286787 163.458535 
L 456.286787 163.458535 
L 456.286787 163.458535 
L 460.8 163.458535 
" style="fill:none;stroke:#bf00bf;stroke-linecap:square;stroke-width:1.5;"/>
   </g>
   <g id="line2d_102">
    <path clip-path="url(#pde0f7ec065)" style="fill:none;stroke:#bf00bf;stroke-linecap:square;stroke-width:1.5;"/>
   </g>
   <g id="line2d_103">
    <path clip-path="url(#pde0f7ec065)" d="M 224.218342 293.76 
L 224.218342 289.927604 
L 238.847672 289.927604 
L 238.847672 286.095208 
L 242.304162 286.095208 
L 242.304162 282.262812 
L 249.752543 282.262812 
L 249.752543 278.430416 
L 252.682268 278.430416 
L 252.682268 274.59802 
L 252.863673 274.59802 
L 252.863673 270.765624 
L 257.311511 270.765624 
L 257.311511 266.933228 
L 269.284297 266.933228 
L 269.284297 263.100832 
L 415.056402 263.100832 
L 415.056402 259.268436 
L 416.233104 259.268436 
L 416.233104 255.43604 
L 419.683844 255.43604 
L 419.683844 251.603644 
L 420.120436 251.603644 
L 420.120436 247.771248 
L 420.244815 247.771248 
L 420.244815 243.938851 
L 420.247074 243.938851 
L 420.247074 240.106455 
L 420.350863 240.106455 
L 420.350863 236.274059 
L 422.168564 236.274059 
L 422.168564 232.441663 
L 422.268515 232.441663 
L 422.268515 228.609267 
L 423.15509 228.609267 
L 423.15509 224.776871 
L 423.904723 224.776871 
L 423.904723 220.944475 
L 425.214177 220.944475 
L 425.214177 217.112079 
L 425.70758 217.112079 
L 425.70758 213.279683 
L 426.924539 213.279683 
L 426.924539 209.447287 
L 428.726797 209.447287 
L 428.726797 205.614891 
L 441.472269 205.614891 
L 441.472269 201.782495 
L 445.074751 201.782495 
L 445.074751 197.950099 
L 445.964544 197.950099 
L 445.964544 194.117703 
L 449.898613 194.117703 
L 449.898613 190.285307 
L 450.856249 190.285307 
L 450.856249 186.452911 
L 454.51172 186.452911 
L 454.51172 182.620515 
L 457.105114 182.620515 
L 457.105114 178.788119 
L 460.103433 178.788119 
L 460.103433 174.955723 
L 460.211774 174.955723 
L 460.211774 171.123327 
L 460.211774 171.123327 
L 460.211774 171.123327 
L 460.8 171.123327 
" style="fill:none;stroke:#ff0000;stroke-linecap:square;stroke-width:3;"/>
   </g>
   <g id="line2d_104">
    <path clip-path="url(#pde0f7ec065)" style="fill:none;stroke:#ff0000;stroke-linecap:square;stroke-width:3;"/>
   </g>
   <g id="line2d_105">
    <path clip-path="url(#pde0f7ec065)" d="M 460.8 293.76 
L 460.8 3.456 
" style="fill:none;stroke:#000000;stroke-linecap:square;stroke-width:1.5;"/>
   </g>
   <g id="patch_3">
    <path d="M 62.208 293.76 
L 62.208 3.456 
" style="fill:none;stroke:#000000;stroke-linecap:square;stroke-linejoin:miter;stroke-width:0.8;"/>
   </g>
   <g id="patch_4">
    <path d="M 460.8 293.76 
L 460.8 3.456 
" style="fill:none;stroke:#000000;stroke-linecap:square;stroke-linejoin:miter;stroke-width:0.8;"/>
   </g>
   <g id="patch_5">
    <path d="M 62.208 293.76 
L 460.8 293.76 
" style="fill:none;stroke:#000000;stroke-linecap:square;stroke-linejoin:miter;stroke-width:0.8;"/>
   </g>
   <g id="patch_6">
    <path d="M 62.208 3.456 
L 460.8 3.456 
" style="fill:none;stroke:#000000;stroke-linecap:square;stroke-linejoin:miter;stroke-width:0.8;"/>
   </g>
   <g id="text_11">
    <!-- {f1-f5}, 20-D -->
    <g transform="translate(195.0165 24.458955)scale(0.2 -0.2)">
     <defs>
      <path d="M 3272 -594 
L 3272 -1044 
L 3078 -1044 
Q 2300 -1044 2036 -812 
Q 1772 -581 1772 109 
L 1772 856 
Q 1772 1328 1603 1509 
Q 1434 1691 991 1691 
L 800 1691 
L 800 2138 
L 991 2138 
Q 1438 2138 1605 2317 
Q 1772 2497 1772 2963 
L 1772 3713 
Q 1772 4403 2036 4633 
Q 2300 4863 3078 4863 
L 3272 4863 
L 3272 4416 
L 3059 4416 
Q 2619 4416 2484 4278 
Q 2350 4141 2350 3700 
L 2350 2925 
Q 2350 2434 2208 2212 
Q 2066 1991 1722 1913 
Q 2069 1828 2209 1606 
Q 2350 1384 2350 897 
L 2350 122 
Q 2350 -319 2484 -456 
Q 2619 -594 3059 -594 
L 3272 -594 
z
" id="DejaVuSans-7b" transform="scale(0.015625)"/>
      <path d="M 313 2009 
L 1997 2009 
L 1997 1497 
L 313 1497 
L 313 2009 
z
" id="DejaVuSans-2d" transform="scale(0.015625)"/>
      <path d="M 691 4666 
L 3169 4666 
L 3169 4134 
L 1269 4134 
L 1269 2991 
Q 1406 3038 1543 3061 
Q 1681 3084 1819 3084 
Q 2600 3084 3056 2656 
Q 3513 2228 3513 1497 
Q 3513 744 3044 326 
Q 2575 -91 1722 -91 
Q 1428 -91 1123 -41 
Q 819 9 494 109 
L 494 744 
Q 775 591 1075 516 
Q 1375 441 1709 441 
Q 2250 441 2565 725 
Q 2881 1009 2881 1497 
Q 2881 1984 2565 2268 
Q 2250 2553 1709 2553 
Q 1456 2553 1204 2497 
Q 953 2441 691 2322 
L 691 4666 
z
" id="DejaVuSans-35" transform="scale(0.015625)"/>
      <path d="M 800 -594 
L 1019 -594 
Q 1456 -594 1589 -459 
Q 1722 -325 1722 122 
L 1722 897 
Q 1722 1384 1862 1606 
Q 2003 1828 2350 1913 
Q 2003 1991 1862 2212 
Q 1722 2434 1722 2925 
L 1722 3700 
Q 1722 4144 1589 4280 
Q 1456 4416 1019 4416 
L 800 4416 
L 800 4863 
L 997 4863 
Q 1775 4863 2036 4633 
Q 2297 4403 2297 3713 
L 2297 2963 
Q 2297 2497 2465 2317 
Q 2634 2138 3078 2138 
L 3272 2138 
L 3272 1691 
L 3078 1691 
Q 2634 1691 2465 1509 
Q 2297 1328 2297 856 
L 2297 109 
Q 2297 -581 2036 -812 
Q 1775 -1044 997 -1044 
L 800 -1044 
L 800 -594 
z
" id="DejaVuSans-7d" transform="scale(0.015625)"/>
      <path d="M 750 794 
L 1409 794 
L 1409 256 
L 897 -744 
L 494 -744 
L 750 256 
L 750 794 
z
" id="DejaVuSans-2c" transform="scale(0.015625)"/>
     </defs>
     <use xlink:href="#DejaVuSans-7b"/>
     <use x="63.623047" xlink:href="#DejaVuSans-66"/>
     <use x="98.828125" xlink:href="#DejaVuSans-31"/>
     <use x="162.451172" xlink:href="#DejaVuSans-2d"/>
     <use x="198.535156" xlink:href="#DejaVuSans-66"/>
     <use x="233.740234" xlink:href="#DejaVuSans-35"/>
     <use x="297.363281" xlink:href="#DejaVuSans-7d"/>
     <use x="360.986328" xlink:href="#DejaVuSans-2c"/>
     <use x="392.773438" xlink:href="#DejaVuSans-20"/>
     <use x="424.560547" xlink:href="#DejaVuSans-32"/>
     <use x="488.183594" xlink:href="#DejaVuSans-30"/>
     <use x="551.806641" xlink:href="#DejaVuSans-2d"/>
     <use x="587.890625" xlink:href="#DejaVuSans-44"/>
    </g>
   </g>
   <g id="text_12">
    <!-- absolute targets -->
    <g transform="translate(62.208 609.166194)scale(0.14 -0.14)">
     <defs>
      <path d="M 3116 1747 
Q 3116 2381 2855 2742 
Q 2594 3103 2138 3103 
Q 1681 3103 1420 2742 
Q 1159 2381 1159 1747 
Q 1159 1113 1420 752 
Q 1681 391 2138 391 
Q 2594 391 2855 752 
Q 3116 1113 3116 1747 
z
M 1159 2969 
Q 1341 3281 1617 3432 
Q 1894 3584 2278 3584 
Q 2916 3584 3314 3078 
Q 3713 2572 3713 1747 
Q 3713 922 3314 415 
Q 2916 -91 2278 -91 
Q 1894 -91 1617 61 
Q 1341 213 1159 525 
L 1159 0 
L 581 0 
L 581 4863 
L 1159 4863 
L 1159 2969 
z
" id="DejaVuSans-62" transform="scale(0.015625)"/>
      <path d="M 544 1381 
L 544 3500 
L 1119 3500 
L 1119 1403 
Q 1119 906 1312 657 
Q 1506 409 1894 409 
Q 2359 409 2629 706 
Q 2900 1003 2900 1516 
L 2900 3500 
L 3475 3500 
L 3475 0 
L 2900 0 
L 2900 538 
Q 2691 219 2414 64 
Q 2138 -91 1772 -91 
Q 1169 -91 856 284 
Q 544 659 544 1381 
z
M 1991 3584 
L 1991 3584 
z
" id="DejaVuSans-75" transform="scale(0.015625)"/>
      <path d="M 3597 1894 
L 3597 1613 
L 953 1613 
Q 991 1019 1311 708 
Q 1631 397 2203 397 
Q 2534 397 2845 478 
Q 3156 559 3463 722 
L 3463 178 
Q 3153 47 2828 -22 
Q 2503 -91 2169 -91 
Q 1331 -91 842 396 
Q 353 884 353 1716 
Q 353 2575 817 3079 
Q 1281 3584 2069 3584 
Q 2775 3584 3186 3129 
Q 3597 2675 3597 1894 
z
M 3022 2063 
Q 3016 2534 2758 2815 
Q 2500 3097 2075 3097 
Q 1594 3097 1305 2825 
Q 1016 2553 972 2059 
L 3022 2063 
z
" id="DejaVuSans-65" transform="scale(0.015625)"/>
     </defs>
     <use xlink:href="#DejaVuSans-61"/>
     <use x="61.279297" xlink:href="#DejaVuSans-62"/>
     <use x="124.755859" xlink:href="#DejaVuSans-73"/>
     <use x="176.855469" xlink:href="#DejaVuSans-6f"/>
     <use x="238.037109" xlink:href="#DejaVuSans-6c"/>
     <use x="265.820312" xlink:href="#DejaVuSans-75"/>
     <use x="329.199219" xlink:href="#DejaVuSans-74"/>
     <use x="368.408203" xlink:href="#DejaVuSans-65"/>
     <use x="429.931641" xlink:href="#DejaVuSans-20"/>
     <use x="461.71875" xlink:href="#DejaVuSans-74"/>
     <use x="500.927734" xlink:href="#DejaVuSans-61"/>
     <use x="562.207031" xlink:href="#DejaVuSans-72"/>
     <use x="601.570312" xlink:href="#DejaVuSans-67"/>
     <use x="665.046875" xlink:href="#DejaVuSans-65"/>
     <use x="726.570312" xlink:href="#DejaVuSans-74"/>
     <use x="765.779297" xlink:href="#DejaVuSans-73"/>
    </g>
   </g>
   <g id="text_13">
    <!-- v2.4 -->
    <g style="fill:#808080;" transform="translate(250.593063 288.777272)scale(0.1 -0.1)">
     <use xlink:href="#DejaVuSans-76"/>
     <use x="59.179688" xlink:href="#DejaVuSans-32"/>
     <use x="122.802734" xlink:href="#DejaVuSans-2e"/>
     <use x="154.589844" xlink:href="#DejaVuSans-34"/>
    </g>
   </g>
   <g id="legend_1">
    <g id="patch_7">
     <path d="M 76.208 136.881 
L 205.429875 136.881 
Q 209.429875 136.881 209.429875 132.881 
L 209.429875 17.456 
Q 209.429875 13.456 205.429875 13.456 
L 76.208 13.456 
Q 72.208 13.456 72.208 17.456 
L 72.208 132.881 
Q 72.208 136.881 76.208 136.881 
z
" style="fill:#ffffff;opacity:0.2;stroke:#cccccc;stroke-linejoin:miter;"/>
    </g>
    <g id="line2d_106">
     <path d="M 80.208 29.652875 
L 120.208 29.652875 
" style="fill:none;stroke:#000000;stroke-linecap:square;stroke-width:1.5;"/>
    </g>
    <g id="line2d_107"/>
    <g id="text_14">
     <!-- 1: 4/5 -->
     <g transform="translate(136.208 36.652875)scale(0.2 -0.2)">
      <defs>
       <path d="M 750 794 
L 1409 794 
L 1409 0 
L 750 0 
L 750 794 
z
M 750 3309 
L 1409 3309 
L 1409 2516 
L 750 2516 
L 750 3309 
z
" id="DejaVuSans-3a" transform="scale(0.015625)"/>
      </defs>
      <use xlink:href="#DejaVuSans-31"/>
      <use x="63.623047" xlink:href="#DejaVuSans-3a"/>
      <use x="97.314453" xlink:href="#DejaVuSans-20"/>
      <use x="129.101562" xlink:href="#DejaVuSans-34"/>
      <use x="192.724609" xlink:href="#DejaVuSans-2f"/>
      <use x="226.416016" xlink:href="#DejaVuSans-35"/>
     </g>
    </g>
    <g id="line2d_108">
     <path d="M 80.208 59.009125 
L 120.208 59.009125 
" style="fill:none;stroke:#00bfbf;stroke-linecap:square;stroke-width:1.5;"/>
    </g>
    <g id="line2d_109"/>
    <g id="text_15">
     <!-- -1: 3/5 -->
     <g transform="translate(136.208 66.009125)scale(0.2 -0.2)">
      <use xlink:href="#DejaVuSans-2d"/>
      <use x="36.083984" xlink:href="#DejaVuSans-31"/>
      <use x="99.707031" xlink:href="#DejaVuSans-3a"/>
      <use x="133.398438" xlink:href="#DejaVuSans-20"/>
      <use x="165.185547" xlink:href="#DejaVuSans-33"/>
      <use x="228.808594" xlink:href="#DejaVuSans-2f"/>
      <use x="262.5" xlink:href="#DejaVuSans-35"/>
     </g>
    </g>
    <g id="line2d_110">
     <path d="M 80.208 88.365375 
L 120.208 88.365375 
" style="fill:none;stroke:#bf00bf;stroke-linecap:square;stroke-width:1.5;"/>
    </g>
    <g id="line2d_111"/>
    <g id="text_16">
     <!-- -4: 3/5 -->
     <g transform="translate(136.208 95.365375)scale(0.2 -0.2)">
      <use xlink:href="#DejaVuSans-2d"/>
      <use x="36.083984" xlink:href="#DejaVuSans-34"/>
      <use x="99.707031" xlink:href="#DejaVuSans-3a"/>
      <use x="133.398438" xlink:href="#DejaVuSans-20"/>
      <use x="165.185547" xlink:href="#DejaVuSans-33"/>
      <use x="228.808594" xlink:href="#DejaVuSans-2f"/>
      <use x="262.5" xlink:href="#DejaVuSans-35"/>
     </g>
    </g>
    <g id="line2d_112">
     <path d="M 80.208 117.721625 
L 120.208 117.721625 
" style="fill:none;stroke:#ff0000;stroke-linecap:square;stroke-width:3;"/>
    </g>
    <g id="line2d_113"/>
    <g id="text_17">
     <!-- -8: 3/5 -->
     <g transform="translate(136.208 124.721625)scale(0.2 -0.2)">
      <use xlink:href="#DejaVuSans-2d"/>
      <use x="36.083984" xlink:href="#DejaVuSans-38"/>
      <use x="99.707031" xlink:href="#DejaVuSans-3a"/>
      <use x="133.398438" xlink:href="#DejaVuSans-20"/>
      <use x="165.185547" xlink:href="#DejaVuSans-33"/>
      <use x="228.808594" xlink:href="#DejaVuSans-2f"/>
      <use x="262.5" xlink:href="#DejaVuSans-35"/>
     </g>
    </g>
   </g>
  </g>
 </g>
 <defs>
  <clipPath id="pde0f7ec065">
   <rect height="290.304" width="398.592" x="62.208" y="3.456"/>
  </clipPath>
 </defs>
</svg>
