<?xml version="1.0" encoding="utf-8" standalone="no"?>
<!DOCTYPE svg PUBLIC "-//W3C//DTD SVG 1.1//EN"
  "http://www.w3.org/Graphics/SVG/1.1/DTD/svg11.dtd">
<svg height="345.6pt" version="1.1" viewBox="0 0 460.8 345.6" width="460.8pt" xmlns="http://www.w3.org/2000/svg" xmlns:xlink="http://www.w3.org/1999/xlink">
 <metadata>
  <rdf:RDF xmlns:cc="http://creativecommons.org/ns#" xmlns:dc="http://purl.org/dc/elements/1.1/" xmlns:rdf="http://www.w3.org/1999/02/22-rdf-syntax-ns#">
   <cc:Work>
    <dc:type rdf:resource="http://purl.org/dc/dcmitype/StillImage"/>
    <dc:date>2021-04-26T18:31:30.205885</dc:date>
    <dc:format>image/svg+xml</dc:format>
    <dc:creator>
     <cc:Agent>
      <dc:title>Matplotlib v3.4.1, https://matplotlib.org/</dc:title>
     </cc:Agent>
    </dc:creator>
   </cc:Work>
  </rdf:RDF>
 </metadata>
 <defs>
  <style type="text/css">*{stroke-linecap:butt;stroke-linejoin:round;}</style>
 </defs>
 <g id="figure_1">
  <g id="patch_1">
   <path d="M 0 345.6 
L 460.8 345.6 
L 460.8 0 
L 0 0 
z
" style="fill:#ffffff;"/>
  </g>
  <g id="axes_1">
   <g id="patch_2">
    <path d="M 57.6 298.944 
L 338.688 298.944 
L 338.688 3.456 
L 57.6 3.456 
z
" style="fill:#ffffff;"/>
   </g>
   <g id="line2d_1">
    <path d="M 5.356583 298.944 
L 5.356583 290.912876 
L 24.515591 290.912876 
L 24.515591 289.765573 
L 64.079801 289.765573 
L 64.079801 288.618269 
L 67.850577 288.618269 
L 67.850577 287.470966 
L 71.74204 287.470966 
L 71.74204 286.323662 
L 78.941764 286.323662 
L 78.941764 285.176359 
L 79.694655 285.176359 
L 79.694655 284.029055 
L 80.416384 284.029055 
L 80.416384 282.881752 
L 80.650472 282.881752 
L 80.650472 281.734448 
L 81.109427 281.734448 
L 81.109427 280.587145 
L 81.334453 280.587145 
L 81.334453 279.439842 
L 81.775977 279.439842 
L 81.775977 278.292538 
L 82.206598 278.292538 
L 82.206598 277.145235 
L 83.037197 277.145235 
L 83.037197 275.997931 
L 84.401859 275.997931 
L 84.401859 274.850628 
L 85.840967 274.850628 
L 85.840967 273.703324 
L 88.553893 273.703324 
L 88.553893 272.556021 
L 93.310291 272.556021 
L 93.310291 271.408718 
L 100.268435 271.408718 
L 100.268435 270.261414 
L 101.646892 270.261414 
L 101.646892 269.114111 
L 105.171792 269.114111 
L 105.171792 267.966807 
L 112.128456 267.966807 
L 112.128456 266.819504 
L 112.544146 266.819504 
L 112.544146 265.6722 
L 114.882171 265.6722 
L 114.882171 264.524897 
L 115.742365 264.524897 
L 115.742365 263.377593 
L 124.330801 263.377593 
L 124.330801 262.23029 
L 127.389626 262.23029 
L 127.389626 261.082987 
L 129.276384 261.082987 
L 129.276384 259.935683 
L 134.171324 259.935683 
L 134.171324 258.78838 
L 138.110264 258.78838 
L 138.110264 257.641076 
L 142.051655 257.641076 
L 142.051655 256.493773 
L 143.691276 256.493773 
L 143.772462 254.199166 
L 150.129152 254.199166 
L 150.129152 253.051863 
L 155.678822 253.051863 
L 155.678822 251.904559 
L 155.804285 251.904559 
L 155.804285 250.757256 
L 158.053098 250.757256 
L 158.053098 249.609952 
L 158.575409 249.609952 
L 158.575409 248.462649 
L 158.805835 248.462649 
L 158.805835 247.315345 
L 165.776583 247.315345 
L 165.776583 246.168042 
L 171.738674 246.168042 
L 171.836163 243.873435 
L 171.867295 243.873435 
L 171.973965 240.431525 
L 172.008554 240.431525 
L 172.083673 236.989614 
L 172.12908 236.989614 
L 172.23782 234.695008 
L 172.275537 234.695008 
L 172.316811 232.400401 
L 172.485739 232.400401 
L 172.556443 230.105794 
L 172.629243 230.105794 
L 172.629243 228.95849 
L 172.791647 228.95849 
L 172.897518 225.51658 
L 173.017898 225.51658 
L 173.017898 224.369277 
L 173.149017 224.369277 
L 173.149017 223.221973 
L 173.260789 223.221973 
L 173.311255 220.927366 
L 173.524119 220.927366 
L 173.524119 219.780063 
L 173.661605 219.780063 
L 173.696368 217.485456 
L 174.144277 217.485456 
L 174.144277 216.338153 
L 174.326753 216.338153 
L 174.326753 215.190849 
L 174.447351 215.190849 
L 174.447351 214.043546 
L 174.706173 214.043546 
L 174.706173 212.896242 
L 174.890216 212.896242 
L 174.890216 211.748939 
L 175.719647 211.748939 
L 175.826061 206.012422 
L 175.842908 206.012422 
L 175.924929 200.275904 
L 175.966287 200.275904 
L 175.966287 199.128601 
L 180.43602 199.128601 
L 180.43602 197.981298 
L 180.623777 197.981298 
L 180.718401 194.539387 
L 180.872006 194.539387 
L 180.937214 192.24478 
L 181.033099 192.24478 
L 181.094776 189.950174 
L 181.196361 189.950174 
L 181.196361 188.80287 
L 181.363884 188.80287 
L 181.442376 185.36096 
L 181.821892 185.36096 
L 181.921437 181.91905 
L 182.216021 181.91905 
L 182.27914 179.624443 
L 182.353627 179.624443 
L 182.353627 178.477139 
L 182.516524 178.477139 
L 182.516524 177.329836 
L 182.736049 177.329836 
L 182.772702 175.035229 
L 182.856382 175.035229 
L 182.92317 172.740622 
L 183.036323 172.740622 
L 183.036323 171.593319 
L 183.20079 171.593319 
L 183.20079 170.446015 
L 186.059443 170.446015 
L 186.059443 169.298712 
L 188.853028 169.298712 
L 188.941587 165.856801 
L 189.095607 165.856801 
L 189.095607 164.709498 
L 192.648397 164.709498 
L 192.648397 163.562195 
L 192.833705 163.562195 
L 192.833705 162.414891 
L 196.305363 162.414891 
L 196.305363 161.267588 
L 199.268233 161.267588 
L 199.268233 160.120284 
L 202.101748 160.120284 
L 202.101748 158.972981 
L 203.361568 158.972981 
L 203.393635 156.678374 
L 205.433079 156.678374 
L 205.433079 155.53107 
L 211.314419 155.53107 
L 211.384894 145.20534 
L 214.985702 145.20534 
L 214.985702 144.058036 
L 215.365534 144.058036 
L 215.365534 142.910733 
L 222.216668 142.910733 
L 222.216668 141.763429 
L 224.454421 141.763429 
L 224.454421 140.616126 
L 228.737521 140.616126 
L 228.737521 139.468822 
L 231.904653 139.468822 
L 231.904653 138.321519 
L 232.727212 138.321519 
L 232.727212 137.174215 
L 232.844212 137.174215 
L 232.844212 136.026912 
L 233.67814 136.026912 
L 233.67814 134.879609 
L 233.807583 134.879609 
L 233.807583 133.732305 
L 233.96901 133.732305 
L 233.96901 132.585002 
L 234.130744 132.585002 
L 234.130744 131.437698 
L 234.263904 131.437698 
L 234.263904 130.290395 
L 234.445549 130.290395 
L 234.546954 127.995788 
L 234.669823 127.995788 
L 234.669823 126.848485 
L 234.787685 126.848485 
L 234.787685 125.701181 
L 236.858463 125.701181 
L 236.858463 124.553878 
L 242.506694 124.553878 
L 242.581251 122.259271 
L 242.636192 122.259271 
L 242.694325 119.964664 
L 242.749232 119.964664 
L 242.806266 117.670057 
L 242.864897 117.670057 
L 242.927434 115.37545 
L 242.983573 115.37545 
L 243.092485 111.93354 
L 243.150518 111.93354 
L 243.256548 108.49163 
L 243.307791 108.49163 
L 243.403224 105.049719 
L 243.469194 105.049719 
L 243.469194 103.902416 
L 247.73941 103.902416 
L 247.73941 102.755112 
L 251.356454 102.755112 
L 251.356454 101.607809 
L 251.695599 101.607809 
L 251.695599 100.460506 
L 259.451274 100.460506 
L 259.451274 99.313202 
L 262.755012 99.313202 
L 262.755012 98.165899 
L 266.01376 98.165899 
L 266.119954 95.871292 
L 267.938773 95.871292 
L 268.001025 93.576685 
L 275.980498 93.576685 
L 276.077603 87.840168 
L 276.094391 87.840168 
L 276.199851 78.66174 
L 276.218488 78.66174 
L 276.317702 69.483313 
L 276.332567 69.483313 
L 276.431242 60.304885 
L 276.444246 60.304885 
L 276.516938 53.421065 
L 281.381166 53.421065 
L 281.381166 52.273761 
L 288.057808 52.273761 
L 288.057808 51.126458 
L 296.024733 51.126458 
L 296.024733 49.979154 
L 306.043877 49.979154 
L 306.043877 48.831851 
L 315.173834 48.831851 
L 315.21585 6.381624 
L 338.688 6.381624 
L 338.688 6.381624 
" style="fill:none;stroke:#f5deb3;stroke-linecap:square;stroke-width:4;"/>
   </g>
   <g id="line2d_2">
    <defs>
     <path d="M 0 7.778175 
L 7.778175 0 
L 0 -7.778175 
L -7.778175 0 
z
" id="md38a452974" style="stroke:#f5deb3;stroke-linejoin:miter;stroke-width:1.5;"/>
    </defs>
    <g>
     <use style="fill:#f5deb3;stroke:#f5deb3;stroke-linejoin:miter;stroke-width:1.5;" x="165.776583" xlink:href="#md38a452974" y="247.315345"/>
     <use style="fill:#f5deb3;stroke:#f5deb3;stroke-linejoin:miter;stroke-width:1.5;" x="211.367334" xlink:href="#md38a452974" y="147.499946"/>
     <use style="fill:#f5deb3;stroke:#f5deb3;stroke-linejoin:miter;stroke-width:1.5;" x="276.473565" xlink:href="#md38a452974" y="56.862975"/>
     <use style="fill:#f5deb3;stroke:#f5deb3;stroke-linejoin:miter;stroke-width:1.5;" x="315.21585" xlink:href="#md38a452974" y="6.381624"/>
     <use style="fill:#f5deb3;stroke:#f5deb3;stroke-linejoin:miter;stroke-width:1.5;" x="315.21585" xlink:href="#md38a452974" y="6.381624"/>
     <use style="fill:#f5deb3;stroke:#f5deb3;stroke-linejoin:miter;stroke-width:1.5;" x="338.688" xlink:href="#md38a452974" y="6.381624"/>
    </g>
   </g>
   <g id="line2d_3">
    <path style="fill:none;stroke:#f5deb3;stroke-linecap:square;stroke-width:4;"/>
    <g/>
   </g>
   <g id="line2d_4">
    <path d="M 338.688 6.381624 
L 369.60768 12.232871 
" style="fill:none;stroke:#f5deb3;stroke-linecap:square;stroke-width:4;"/>
    <g>
     <use style="fill:#f5deb3;stroke:#f5deb3;stroke-linejoin:miter;stroke-width:1.5;" x="338.688" xlink:href="#md38a452974" y="6.381624"/>
     <use style="fill:#f5deb3;stroke:#f5deb3;stroke-linejoin:miter;stroke-width:1.5;" x="369.60768" xlink:href="#md38a452974" y="12.232871"/>
    </g>
   </g>
   <g id="matplotlib.axis_1">
    <g id="xtick_1">
     <g id="line2d_5">
      <path clip-path="url(#p44460509ba)" d="M 57.6 298.944 
L 57.6 3.456 
" style="fill:none;stroke:#b0b0b0;stroke-linecap:square;stroke-width:0.8;"/>
     </g>
     <g id="line2d_6">
      <defs>
       <path d="M 0 0 
L 0 3.5 
" id="m3558484112" style="stroke:#000000;stroke-width:0.8;"/>
      </defs>
      <g>
       <use style="stroke:#000000;stroke-width:0.8;" x="57.6" xlink:href="#m3558484112" y="298.944"/>
      </g>
     </g>
     <g id="text_1">
      <!-- 0 -->
      <g transform="translate(51.2375 321.140875)scale(0.2 -0.2)">
       <defs>
        <path d="M 2034 4250 
Q 1547 4250 1301 3770 
Q 1056 3291 1056 2328 
Q 1056 1369 1301 889 
Q 1547 409 2034 409 
Q 2525 409 2770 889 
Q 3016 1369 3016 2328 
Q 3016 3291 2770 3770 
Q 2525 4250 2034 4250 
z
M 2034 4750 
Q 2819 4750 3233 4129 
Q 3647 3509 3647 2328 
Q 3647 1150 3233 529 
Q 2819 -91 2034 -91 
Q 1250 -91 836 529 
Q 422 1150 422 2328 
Q 422 3509 836 4129 
Q 1250 4750 2034 4750 
z
" id="DejaVuSans-30" transform="scale(0.015625)"/>
       </defs>
       <use xlink:href="#DejaVuSans-30"/>
      </g>
     </g>
    </g>
    <g id="xtick_2">
     <g id="line2d_7">
      <path clip-path="url(#p44460509ba)" d="M 137.910857 298.944 
L 137.910857 3.456 
" style="fill:none;stroke:#b0b0b0;stroke-linecap:square;stroke-width:0.8;"/>
     </g>
     <g id="line2d_8">
      <g>
       <use style="stroke:#000000;stroke-width:0.8;" x="137.910857" xlink:href="#m3558484112" y="298.944"/>
      </g>
     </g>
     <g id="text_2">
      <!-- 2 -->
      <g transform="translate(131.548357 321.140875)scale(0.2 -0.2)">
       <defs>
        <path d="M 1228 531 
L 3431 531 
L 3431 0 
L 469 0 
L 469 531 
Q 828 903 1448 1529 
Q 2069 2156 2228 2338 
Q 2531 2678 2651 2914 
Q 2772 3150 2772 3378 
Q 2772 3750 2511 3984 
Q 2250 4219 1831 4219 
Q 1534 4219 1204 4116 
Q 875 4013 500 3803 
L 500 4441 
Q 881 4594 1212 4672 
Q 1544 4750 1819 4750 
Q 2544 4750 2975 4387 
Q 3406 4025 3406 3419 
Q 3406 3131 3298 2873 
Q 3191 2616 2906 2266 
Q 2828 2175 2409 1742 
Q 1991 1309 1228 531 
z
" id="DejaVuSans-32" transform="scale(0.015625)"/>
       </defs>
       <use xlink:href="#DejaVuSans-32"/>
      </g>
     </g>
    </g>
    <g id="xtick_3">
     <g id="line2d_9">
      <path clip-path="url(#p44460509ba)" d="M 218.221714 298.944 
L 218.221714 3.456 
" style="fill:none;stroke:#b0b0b0;stroke-linecap:square;stroke-width:0.8;"/>
     </g>
     <g id="line2d_10">
      <g>
       <use style="stroke:#000000;stroke-width:0.8;" x="218.221714" xlink:href="#m3558484112" y="298.944"/>
      </g>
     </g>
     <g id="text_3">
      <!-- 4 -->
      <g transform="translate(211.859214 321.140875)scale(0.2 -0.2)">
       <defs>
        <path d="M 2419 4116 
L 825 1625 
L 2419 1625 
L 2419 4116 
z
M 2253 4666 
L 3047 4666 
L 3047 1625 
L 3713 1625 
L 3713 1100 
L 3047 1100 
L 3047 0 
L 2419 0 
L 2419 1100 
L 313 1100 
L 313 1709 
L 2253 4666 
z
" id="DejaVuSans-34" transform="scale(0.015625)"/>
       </defs>
       <use xlink:href="#DejaVuSans-34"/>
      </g>
     </g>
    </g>
    <g id="xtick_4">
     <g id="line2d_11">
      <path clip-path="url(#p44460509ba)" d="M 298.532571 298.944 
L 298.532571 3.456 
" style="fill:none;stroke:#b0b0b0;stroke-linecap:square;stroke-width:0.8;"/>
     </g>
     <g id="line2d_12">
      <g>
       <use style="stroke:#000000;stroke-width:0.8;" x="298.532571" xlink:href="#m3558484112" y="298.944"/>
      </g>
     </g>
     <g id="text_4">
      <!-- 6 -->
      <g transform="translate(292.170071 321.140875)scale(0.2 -0.2)">
       <defs>
        <path d="M 2113 2584 
Q 1688 2584 1439 2293 
Q 1191 2003 1191 1497 
Q 1191 994 1439 701 
Q 1688 409 2113 409 
Q 2538 409 2786 701 
Q 3034 994 3034 1497 
Q 3034 2003 2786 2293 
Q 2538 2584 2113 2584 
z
M 3366 4563 
L 3366 3988 
Q 3128 4100 2886 4159 
Q 2644 4219 2406 4219 
Q 1781 4219 1451 3797 
Q 1122 3375 1075 2522 
Q 1259 2794 1537 2939 
Q 1816 3084 2150 3084 
Q 2853 3084 3261 2657 
Q 3669 2231 3669 1497 
Q 3669 778 3244 343 
Q 2819 -91 2113 -91 
Q 1303 -91 875 529 
Q 447 1150 447 2328 
Q 447 3434 972 4092 
Q 1497 4750 2381 4750 
Q 2619 4750 2861 4703 
Q 3103 4656 3366 4563 
z
" id="DejaVuSans-36" transform="scale(0.015625)"/>
       </defs>
       <use xlink:href="#DejaVuSans-36"/>
      </g>
     </g>
    </g>
    <g id="xtick_5">
     <g id="line2d_13">
      <path clip-path="url(#p44460509ba)" d="M 97.755429 298.944 
L 97.755429 3.456 
" style="fill:none;stroke:#b0b0b0;stroke-linecap:square;stroke-width:0.8;"/>
     </g>
     <g id="line2d_14">
      <defs>
       <path d="M 0 0 
L 0 2 
" id="mcec9a95904" style="stroke:#000000;stroke-width:0.6;"/>
      </defs>
      <g>
       <use style="stroke:#000000;stroke-width:0.6;" x="97.755429" xlink:href="#mcec9a95904" y="298.944"/>
      </g>
     </g>
    </g>
    <g id="xtick_6">
     <g id="line2d_15">
      <path clip-path="url(#p44460509ba)" d="M 178.066286 298.944 
L 178.066286 3.456 
" style="fill:none;stroke:#b0b0b0;stroke-linecap:square;stroke-width:0.8;"/>
     </g>
     <g id="line2d_16">
      <g>
       <use style="stroke:#000000;stroke-width:0.6;" x="178.066286" xlink:href="#mcec9a95904" y="298.944"/>
      </g>
     </g>
    </g>
    <g id="xtick_7">
     <g id="line2d_17">
      <path clip-path="url(#p44460509ba)" d="M 258.377143 298.944 
L 258.377143 3.456 
" style="fill:none;stroke:#b0b0b0;stroke-linecap:square;stroke-width:0.8;"/>
     </g>
     <g id="line2d_18">
      <g>
       <use style="stroke:#000000;stroke-width:0.6;" x="258.377143" xlink:href="#mcec9a95904" y="298.944"/>
      </g>
     </g>
    </g>
    <g id="xtick_8">
     <g id="line2d_19">
      <path clip-path="url(#p44460509ba)" d="M 338.688 298.944 
L 338.688 3.456 
" style="fill:none;stroke:#b0b0b0;stroke-linecap:square;stroke-width:0.8;"/>
     </g>
     <g id="line2d_20">
      <g>
       <use style="stroke:#000000;stroke-width:0.6;" x="338.688" xlink:href="#mcec9a95904" y="298.944"/>
      </g>
     </g>
    </g>
    <g id="text_5">
     <!-- log10(# f-evals / dimension) -->
     <g transform="translate(77.764078 342.217594)scale(0.17 -0.17)">
      <defs>
       <path d="M 603 4863 
L 1178 4863 
L 1178 0 
L 603 0 
L 603 4863 
z
" id="DejaVuSans-6c" transform="scale(0.015625)"/>
       <path d="M 1959 3097 
Q 1497 3097 1228 2736 
Q 959 2375 959 1747 
Q 959 1119 1226 758 
Q 1494 397 1959 397 
Q 2419 397 2687 759 
Q 2956 1122 2956 1747 
Q 2956 2369 2687 2733 
Q 2419 3097 1959 3097 
z
M 1959 3584 
Q 2709 3584 3137 3096 
Q 3566 2609 3566 1747 
Q 3566 888 3137 398 
Q 2709 -91 1959 -91 
Q 1206 -91 779 398 
Q 353 888 353 1747 
Q 353 2609 779 3096 
Q 1206 3584 1959 3584 
z
" id="DejaVuSans-6f" transform="scale(0.015625)"/>
       <path d="M 2906 1791 
Q 2906 2416 2648 2759 
Q 2391 3103 1925 3103 
Q 1463 3103 1205 2759 
Q 947 2416 947 1791 
Q 947 1169 1205 825 
Q 1463 481 1925 481 
Q 2391 481 2648 825 
Q 2906 1169 2906 1791 
z
M 3481 434 
Q 3481 -459 3084 -895 
Q 2688 -1331 1869 -1331 
Q 1566 -1331 1297 -1286 
Q 1028 -1241 775 -1147 
L 775 -588 
Q 1028 -725 1275 -790 
Q 1522 -856 1778 -856 
Q 2344 -856 2625 -561 
Q 2906 -266 2906 331 
L 2906 616 
Q 2728 306 2450 153 
Q 2172 0 1784 0 
Q 1141 0 747 490 
Q 353 981 353 1791 
Q 353 2603 747 3093 
Q 1141 3584 1784 3584 
Q 2172 3584 2450 3431 
Q 2728 3278 2906 2969 
L 2906 3500 
L 3481 3500 
L 3481 434 
z
" id="DejaVuSans-67" transform="scale(0.015625)"/>
       <path d="M 794 531 
L 1825 531 
L 1825 4091 
L 703 3866 
L 703 4441 
L 1819 4666 
L 2450 4666 
L 2450 531 
L 3481 531 
L 3481 0 
L 794 0 
L 794 531 
z
" id="DejaVuSans-31" transform="scale(0.015625)"/>
       <path d="M 1984 4856 
Q 1566 4138 1362 3434 
Q 1159 2731 1159 2009 
Q 1159 1288 1364 580 
Q 1569 -128 1984 -844 
L 1484 -844 
Q 1016 -109 783 600 
Q 550 1309 550 2009 
Q 550 2706 781 3412 
Q 1013 4119 1484 4856 
L 1984 4856 
z
" id="DejaVuSans-28" transform="scale(0.015625)"/>
       <path d="M 3272 2816 
L 2363 2816 
L 2100 1772 
L 3016 1772 
L 3272 2816 
z
M 2803 4594 
L 2478 3297 
L 3391 3297 
L 3719 4594 
L 4219 4594 
L 3897 3297 
L 4872 3297 
L 4872 2816 
L 3775 2816 
L 3519 1772 
L 4513 1772 
L 4513 1294 
L 3397 1294 
L 3072 0 
L 2572 0 
L 2894 1294 
L 1978 1294 
L 1656 0 
L 1153 0 
L 1478 1294 
L 494 1294 
L 494 1772 
L 1594 1772 
L 1856 2816 
L 850 2816 
L 850 3297 
L 1978 3297 
L 2297 4594 
L 2803 4594 
z
" id="DejaVuSans-23" transform="scale(0.015625)"/>
       <path id="DejaVuSans-20" transform="scale(0.015625)"/>
       <path d="M 2375 4863 
L 2375 4384 
L 1825 4384 
Q 1516 4384 1395 4259 
Q 1275 4134 1275 3809 
L 1275 3500 
L 2222 3500 
L 2222 3053 
L 1275 3053 
L 1275 0 
L 697 0 
L 697 3053 
L 147 3053 
L 147 3500 
L 697 3500 
L 697 3744 
Q 697 4328 969 4595 
Q 1241 4863 1831 4863 
L 2375 4863 
z
" id="DejaVuSans-66" transform="scale(0.015625)"/>
       <path d="M 313 2009 
L 1997 2009 
L 1997 1497 
L 313 1497 
L 313 2009 
z
" id="DejaVuSans-2d" transform="scale(0.015625)"/>
       <path d="M 3597 1894 
L 3597 1613 
L 953 1613 
Q 991 1019 1311 708 
Q 1631 397 2203 397 
Q 2534 397 2845 478 
Q 3156 559 3463 722 
L 3463 178 
Q 3153 47 2828 -22 
Q 2503 -91 2169 -91 
Q 1331 -91 842 396 
Q 353 884 353 1716 
Q 353 2575 817 3079 
Q 1281 3584 2069 3584 
Q 2775 3584 3186 3129 
Q 3597 2675 3597 1894 
z
M 3022 2063 
Q 3016 2534 2758 2815 
Q 2500 3097 2075 3097 
Q 1594 3097 1305 2825 
Q 1016 2553 972 2059 
L 3022 2063 
z
" id="DejaVuSans-65" transform="scale(0.015625)"/>
       <path d="M 191 3500 
L 800 3500 
L 1894 563 
L 2988 3500 
L 3597 3500 
L 2284 0 
L 1503 0 
L 191 3500 
z
" id="DejaVuSans-76" transform="scale(0.015625)"/>
       <path d="M 2194 1759 
Q 1497 1759 1228 1600 
Q 959 1441 959 1056 
Q 959 750 1161 570 
Q 1363 391 1709 391 
Q 2188 391 2477 730 
Q 2766 1069 2766 1631 
L 2766 1759 
L 2194 1759 
z
M 3341 1997 
L 3341 0 
L 2766 0 
L 2766 531 
Q 2569 213 2275 61 
Q 1981 -91 1556 -91 
Q 1019 -91 701 211 
Q 384 513 384 1019 
Q 384 1609 779 1909 
Q 1175 2209 1959 2209 
L 2766 2209 
L 2766 2266 
Q 2766 2663 2505 2880 
Q 2244 3097 1772 3097 
Q 1472 3097 1187 3025 
Q 903 2953 641 2809 
L 641 3341 
Q 956 3463 1253 3523 
Q 1550 3584 1831 3584 
Q 2591 3584 2966 3190 
Q 3341 2797 3341 1997 
z
" id="DejaVuSans-61" transform="scale(0.015625)"/>
       <path d="M 2834 3397 
L 2834 2853 
Q 2591 2978 2328 3040 
Q 2066 3103 1784 3103 
Q 1356 3103 1142 2972 
Q 928 2841 928 2578 
Q 928 2378 1081 2264 
Q 1234 2150 1697 2047 
L 1894 2003 
Q 2506 1872 2764 1633 
Q 3022 1394 3022 966 
Q 3022 478 2636 193 
Q 2250 -91 1575 -91 
Q 1294 -91 989 -36 
Q 684 19 347 128 
L 347 722 
Q 666 556 975 473 
Q 1284 391 1588 391 
Q 1994 391 2212 530 
Q 2431 669 2431 922 
Q 2431 1156 2273 1281 
Q 2116 1406 1581 1522 
L 1381 1569 
Q 847 1681 609 1914 
Q 372 2147 372 2553 
Q 372 3047 722 3315 
Q 1072 3584 1716 3584 
Q 2034 3584 2315 3537 
Q 2597 3491 2834 3397 
z
" id="DejaVuSans-73" transform="scale(0.015625)"/>
       <path d="M 1625 4666 
L 2156 4666 
L 531 -594 
L 0 -594 
L 1625 4666 
z
" id="DejaVuSans-2f" transform="scale(0.015625)"/>
       <path d="M 2906 2969 
L 2906 4863 
L 3481 4863 
L 3481 0 
L 2906 0 
L 2906 525 
Q 2725 213 2448 61 
Q 2172 -91 1784 -91 
Q 1150 -91 751 415 
Q 353 922 353 1747 
Q 353 2572 751 3078 
Q 1150 3584 1784 3584 
Q 2172 3584 2448 3432 
Q 2725 3281 2906 2969 
z
M 947 1747 
Q 947 1113 1208 752 
Q 1469 391 1925 391 
Q 2381 391 2643 752 
Q 2906 1113 2906 1747 
Q 2906 2381 2643 2742 
Q 2381 3103 1925 3103 
Q 1469 3103 1208 2742 
Q 947 2381 947 1747 
z
" id="DejaVuSans-64" transform="scale(0.015625)"/>
       <path d="M 603 3500 
L 1178 3500 
L 1178 0 
L 603 0 
L 603 3500 
z
M 603 4863 
L 1178 4863 
L 1178 4134 
L 603 4134 
L 603 4863 
z
" id="DejaVuSans-69" transform="scale(0.015625)"/>
       <path d="M 3328 2828 
Q 3544 3216 3844 3400 
Q 4144 3584 4550 3584 
Q 5097 3584 5394 3201 
Q 5691 2819 5691 2113 
L 5691 0 
L 5113 0 
L 5113 2094 
Q 5113 2597 4934 2840 
Q 4756 3084 4391 3084 
Q 3944 3084 3684 2787 
Q 3425 2491 3425 1978 
L 3425 0 
L 2847 0 
L 2847 2094 
Q 2847 2600 2669 2842 
Q 2491 3084 2119 3084 
Q 1678 3084 1418 2786 
Q 1159 2488 1159 1978 
L 1159 0 
L 581 0 
L 581 3500 
L 1159 3500 
L 1159 2956 
Q 1356 3278 1631 3431 
Q 1906 3584 2284 3584 
Q 2666 3584 2933 3390 
Q 3200 3197 3328 2828 
z
" id="DejaVuSans-6d" transform="scale(0.015625)"/>
       <path d="M 3513 2113 
L 3513 0 
L 2938 0 
L 2938 2094 
Q 2938 2591 2744 2837 
Q 2550 3084 2163 3084 
Q 1697 3084 1428 2787 
Q 1159 2491 1159 1978 
L 1159 0 
L 581 0 
L 581 3500 
L 1159 3500 
L 1159 2956 
Q 1366 3272 1645 3428 
Q 1925 3584 2291 3584 
Q 2894 3584 3203 3211 
Q 3513 2838 3513 2113 
z
" id="DejaVuSans-6e" transform="scale(0.015625)"/>
       <path d="M 513 4856 
L 1013 4856 
Q 1481 4119 1714 3412 
Q 1947 2706 1947 2009 
Q 1947 1309 1714 600 
Q 1481 -109 1013 -844 
L 513 -844 
Q 928 -128 1133 580 
Q 1338 1288 1338 2009 
Q 1338 2731 1133 3434 
Q 928 4138 513 4856 
z
" id="DejaVuSans-29" transform="scale(0.015625)"/>
      </defs>
      <use xlink:href="#DejaVuSans-6c"/>
      <use x="27.783203" xlink:href="#DejaVuSans-6f"/>
      <use x="88.964844" xlink:href="#DejaVuSans-67"/>
      <use x="152.441406" xlink:href="#DejaVuSans-31"/>
      <use x="216.064453" xlink:href="#DejaVuSans-30"/>
      <use x="279.6875" xlink:href="#DejaVuSans-28"/>
      <use x="318.701172" xlink:href="#DejaVuSans-23"/>
      <use x="402.490234" xlink:href="#DejaVuSans-20"/>
      <use x="434.277344" xlink:href="#DejaVuSans-66"/>
      <use x="463.982422" xlink:href="#DejaVuSans-2d"/>
      <use x="500.066406" xlink:href="#DejaVuSans-65"/>
      <use x="561.589844" xlink:href="#DejaVuSans-76"/>
      <use x="620.769531" xlink:href="#DejaVuSans-61"/>
      <use x="682.048828" xlink:href="#DejaVuSans-6c"/>
      <use x="709.832031" xlink:href="#DejaVuSans-73"/>
      <use x="761.931641" xlink:href="#DejaVuSans-20"/>
      <use x="793.71875" xlink:href="#DejaVuSans-2f"/>
      <use x="827.410156" xlink:href="#DejaVuSans-20"/>
      <use x="859.197266" xlink:href="#DejaVuSans-64"/>
      <use x="922.673828" xlink:href="#DejaVuSans-69"/>
      <use x="950.457031" xlink:href="#DejaVuSans-6d"/>
      <use x="1047.869141" xlink:href="#DejaVuSans-65"/>
      <use x="1109.392578" xlink:href="#DejaVuSans-6e"/>
      <use x="1172.771484" xlink:href="#DejaVuSans-73"/>
      <use x="1224.871094" xlink:href="#DejaVuSans-69"/>
      <use x="1252.654297" xlink:href="#DejaVuSans-6f"/>
      <use x="1313.835938" xlink:href="#DejaVuSans-6e"/>
      <use x="1377.214844" xlink:href="#DejaVuSans-29"/>
     </g>
    </g>
   </g>
   <g id="matplotlib.axis_2">
    <g id="ytick_1">
     <g id="line2d_21">
      <path clip-path="url(#p44460509ba)" d="M 57.6 298.944 
L 338.688 298.944 
" style="fill:none;stroke:#b0b0b0;stroke-linecap:square;stroke-width:0.8;"/>
     </g>
     <g id="line2d_22">
      <defs>
       <path d="M 0 0 
L -3.5 0 
" id="mc8bcff15ac" style="stroke:#000000;stroke-width:0.8;"/>
      </defs>
      <g>
       <use style="stroke:#000000;stroke-width:0.8;" x="57.6" xlink:href="#mc8bcff15ac" y="298.944"/>
      </g>
     </g>
     <g id="text_6">
      <!-- 0.0 -->
      <g transform="translate(25.155 305.02275)scale(0.16 -0.16)">
       <defs>
        <path d="M 684 794 
L 1344 794 
L 1344 0 
L 684 0 
L 684 794 
z
" id="DejaVuSans-2e" transform="scale(0.015625)"/>
       </defs>
       <use xlink:href="#DejaVuSans-30"/>
       <use x="63.623047" xlink:href="#DejaVuSans-2e"/>
       <use x="95.410156" xlink:href="#DejaVuSans-30"/>
      </g>
     </g>
    </g>
    <g id="ytick_2">
     <g id="line2d_23">
      <path clip-path="url(#p44460509ba)" d="M 57.6 240.431525 
L 338.688 240.431525 
" style="fill:none;stroke:#b0b0b0;stroke-linecap:square;stroke-width:0.8;"/>
     </g>
     <g id="line2d_24">
      <g>
       <use style="stroke:#000000;stroke-width:0.8;" x="57.6" xlink:href="#mc8bcff15ac" y="240.431525"/>
      </g>
     </g>
     <g id="text_7">
      <!-- 0.2 -->
      <g transform="translate(25.155 246.510275)scale(0.16 -0.16)">
       <use xlink:href="#DejaVuSans-30"/>
       <use x="63.623047" xlink:href="#DejaVuSans-2e"/>
       <use x="95.410156" xlink:href="#DejaVuSans-32"/>
      </g>
     </g>
    </g>
    <g id="ytick_3">
     <g id="line2d_25">
      <path clip-path="url(#p44460509ba)" d="M 57.6 181.91905 
L 338.688 181.91905 
" style="fill:none;stroke:#b0b0b0;stroke-linecap:square;stroke-width:0.8;"/>
     </g>
     <g id="line2d_26">
      <g>
       <use style="stroke:#000000;stroke-width:0.8;" x="57.6" xlink:href="#mc8bcff15ac" y="181.91905"/>
      </g>
     </g>
     <g id="text_8">
      <!-- 0.4 -->
      <g transform="translate(25.155 187.9978)scale(0.16 -0.16)">
       <use xlink:href="#DejaVuSans-30"/>
       <use x="63.623047" xlink:href="#DejaVuSans-2e"/>
       <use x="95.410156" xlink:href="#DejaVuSans-34"/>
      </g>
     </g>
    </g>
    <g id="ytick_4">
     <g id="line2d_27">
      <path clip-path="url(#p44460509ba)" d="M 57.6 123.406574 
L 338.688 123.406574 
" style="fill:none;stroke:#b0b0b0;stroke-linecap:square;stroke-width:0.8;"/>
     </g>
     <g id="line2d_28">
      <g>
       <use style="stroke:#000000;stroke-width:0.8;" x="57.6" xlink:href="#mc8bcff15ac" y="123.406574"/>
      </g>
     </g>
     <g id="text_9">
      <!-- 0.6 -->
      <g transform="translate(25.155 129.485324)scale(0.16 -0.16)">
       <use xlink:href="#DejaVuSans-30"/>
       <use x="63.623047" xlink:href="#DejaVuSans-2e"/>
       <use x="95.410156" xlink:href="#DejaVuSans-36"/>
      </g>
     </g>
    </g>
    <g id="ytick_5">
     <g id="line2d_29">
      <path clip-path="url(#p44460509ba)" d="M 57.6 64.894099 
L 338.688 64.894099 
" style="fill:none;stroke:#b0b0b0;stroke-linecap:square;stroke-width:0.8;"/>
     </g>
     <g id="line2d_30">
      <g>
       <use style="stroke:#000000;stroke-width:0.8;" x="57.6" xlink:href="#mc8bcff15ac" y="64.894099"/>
      </g>
     </g>
     <g id="text_10">
      <!-- 0.8 -->
      <g transform="translate(25.155 70.972849)scale(0.16 -0.16)">
       <defs>
        <path d="M 2034 2216 
Q 1584 2216 1326 1975 
Q 1069 1734 1069 1313 
Q 1069 891 1326 650 
Q 1584 409 2034 409 
Q 2484 409 2743 651 
Q 3003 894 3003 1313 
Q 3003 1734 2745 1975 
Q 2488 2216 2034 2216 
z
M 1403 2484 
Q 997 2584 770 2862 
Q 544 3141 544 3541 
Q 544 4100 942 4425 
Q 1341 4750 2034 4750 
Q 2731 4750 3128 4425 
Q 3525 4100 3525 3541 
Q 3525 3141 3298 2862 
Q 3072 2584 2669 2484 
Q 3125 2378 3379 2068 
Q 3634 1759 3634 1313 
Q 3634 634 3220 271 
Q 2806 -91 2034 -91 
Q 1263 -91 848 271 
Q 434 634 434 1313 
Q 434 1759 690 2068 
Q 947 2378 1403 2484 
z
M 1172 3481 
Q 1172 3119 1398 2916 
Q 1625 2713 2034 2713 
Q 2441 2713 2670 2916 
Q 2900 3119 2900 3481 
Q 2900 3844 2670 4047 
Q 2441 4250 2034 4250 
Q 1625 4250 1398 4047 
Q 1172 3844 1172 3481 
z
" id="DejaVuSans-38" transform="scale(0.015625)"/>
       </defs>
       <use xlink:href="#DejaVuSans-30"/>
       <use x="63.623047" xlink:href="#DejaVuSans-2e"/>
       <use x="95.410156" xlink:href="#DejaVuSans-38"/>
      </g>
     </g>
    </g>
    <g id="ytick_6">
     <g id="line2d_31">
      <path clip-path="url(#p44460509ba)" d="M 57.6 6.381624 
L 338.688 6.381624 
" style="fill:none;stroke:#b0b0b0;stroke-linecap:square;stroke-width:0.8;"/>
     </g>
     <g id="line2d_32">
      <g>
       <use style="stroke:#000000;stroke-width:0.8;" x="57.6" xlink:href="#mc8bcff15ac" y="6.381624"/>
      </g>
     </g>
     <g id="text_11">
      <!-- 1.0 -->
      <g transform="translate(25.155 12.460374)scale(0.16 -0.16)">
       <use xlink:href="#DejaVuSans-31"/>
       <use x="63.623047" xlink:href="#DejaVuSans-2e"/>
       <use x="95.410156" xlink:href="#DejaVuSans-30"/>
      </g>
     </g>
    </g>
    <g id="text_12">
     <!-- Fraction of function,target pairs -->
     <g transform="translate(17.619531 285.585)rotate(-90)scale(0.17 -0.17)">
      <defs>
       <path d="M 628 4666 
L 3309 4666 
L 3309 4134 
L 1259 4134 
L 1259 2759 
L 3109 2759 
L 3109 2228 
L 1259 2228 
L 1259 0 
L 628 0 
L 628 4666 
z
" id="DejaVuSans-46" transform="scale(0.015625)"/>
       <path d="M 2631 2963 
Q 2534 3019 2420 3045 
Q 2306 3072 2169 3072 
Q 1681 3072 1420 2755 
Q 1159 2438 1159 1844 
L 1159 0 
L 581 0 
L 581 3500 
L 1159 3500 
L 1159 2956 
Q 1341 3275 1631 3429 
Q 1922 3584 2338 3584 
Q 2397 3584 2469 3576 
Q 2541 3569 2628 3553 
L 2631 2963 
z
" id="DejaVuSans-72" transform="scale(0.015625)"/>
       <path d="M 3122 3366 
L 3122 2828 
Q 2878 2963 2633 3030 
Q 2388 3097 2138 3097 
Q 1578 3097 1268 2742 
Q 959 2388 959 1747 
Q 959 1106 1268 751 
Q 1578 397 2138 397 
Q 2388 397 2633 464 
Q 2878 531 3122 666 
L 3122 134 
Q 2881 22 2623 -34 
Q 2366 -91 2075 -91 
Q 1284 -91 818 406 
Q 353 903 353 1747 
Q 353 2603 823 3093 
Q 1294 3584 2113 3584 
Q 2378 3584 2631 3529 
Q 2884 3475 3122 3366 
z
" id="DejaVuSans-63" transform="scale(0.015625)"/>
       <path d="M 1172 4494 
L 1172 3500 
L 2356 3500 
L 2356 3053 
L 1172 3053 
L 1172 1153 
Q 1172 725 1289 603 
Q 1406 481 1766 481 
L 2356 481 
L 2356 0 
L 1766 0 
Q 1100 0 847 248 
Q 594 497 594 1153 
L 594 3053 
L 172 3053 
L 172 3500 
L 594 3500 
L 594 4494 
L 1172 4494 
z
" id="DejaVuSans-74" transform="scale(0.015625)"/>
       <path d="M 544 1381 
L 544 3500 
L 1119 3500 
L 1119 1403 
Q 1119 906 1312 657 
Q 1506 409 1894 409 
Q 2359 409 2629 706 
Q 2900 1003 2900 1516 
L 2900 3500 
L 3475 3500 
L 3475 0 
L 2900 0 
L 2900 538 
Q 2691 219 2414 64 
Q 2138 -91 1772 -91 
Q 1169 -91 856 284 
Q 544 659 544 1381 
z
M 1991 3584 
L 1991 3584 
z
" id="DejaVuSans-75" transform="scale(0.015625)"/>
       <path d="M 750 794 
L 1409 794 
L 1409 256 
L 897 -744 
L 494 -744 
L 750 256 
L 750 794 
z
" id="DejaVuSans-2c" transform="scale(0.015625)"/>
       <path d="M 1159 525 
L 1159 -1331 
L 581 -1331 
L 581 3500 
L 1159 3500 
L 1159 2969 
Q 1341 3281 1617 3432 
Q 1894 3584 2278 3584 
Q 2916 3584 3314 3078 
Q 3713 2572 3713 1747 
Q 3713 922 3314 415 
Q 2916 -91 2278 -91 
Q 1894 -91 1617 61 
Q 1341 213 1159 525 
z
M 3116 1747 
Q 3116 2381 2855 2742 
Q 2594 3103 2138 3103 
Q 1681 3103 1420 2742 
Q 1159 2381 1159 1747 
Q 1159 1113 1420 752 
Q 1681 391 2138 391 
Q 2594 391 2855 752 
Q 3116 1113 3116 1747 
z
" id="DejaVuSans-70" transform="scale(0.015625)"/>
      </defs>
      <use xlink:href="#DejaVuSans-46"/>
      <use x="50.269531" xlink:href="#DejaVuSans-72"/>
      <use x="91.382812" xlink:href="#DejaVuSans-61"/>
      <use x="152.662109" xlink:href="#DejaVuSans-63"/>
      <use x="207.642578" xlink:href="#DejaVuSans-74"/>
      <use x="246.851562" xlink:href="#DejaVuSans-69"/>
      <use x="274.634766" xlink:href="#DejaVuSans-6f"/>
      <use x="335.816406" xlink:href="#DejaVuSans-6e"/>
      <use x="399.195312" xlink:href="#DejaVuSans-20"/>
      <use x="430.982422" xlink:href="#DejaVuSans-6f"/>
      <use x="492.164062" xlink:href="#DejaVuSans-66"/>
      <use x="527.369141" xlink:href="#DejaVuSans-20"/>
      <use x="559.15625" xlink:href="#DejaVuSans-66"/>
      <use x="594.361328" xlink:href="#DejaVuSans-75"/>
      <use x="657.740234" xlink:href="#DejaVuSans-6e"/>
      <use x="721.119141" xlink:href="#DejaVuSans-63"/>
      <use x="776.099609" xlink:href="#DejaVuSans-74"/>
      <use x="815.308594" xlink:href="#DejaVuSans-69"/>
      <use x="843.091797" xlink:href="#DejaVuSans-6f"/>
      <use x="904.273438" xlink:href="#DejaVuSans-6e"/>
      <use x="967.652344" xlink:href="#DejaVuSans-2c"/>
      <use x="999.439453" xlink:href="#DejaVuSans-74"/>
      <use x="1038.648438" xlink:href="#DejaVuSans-61"/>
      <use x="1099.927734" xlink:href="#DejaVuSans-72"/>
      <use x="1139.291016" xlink:href="#DejaVuSans-67"/>
      <use x="1202.767578" xlink:href="#DejaVuSans-65"/>
      <use x="1264.291016" xlink:href="#DejaVuSans-74"/>
      <use x="1303.5" xlink:href="#DejaVuSans-20"/>
      <use x="1335.287109" xlink:href="#DejaVuSans-70"/>
      <use x="1398.763672" xlink:href="#DejaVuSans-61"/>
      <use x="1460.042969" xlink:href="#DejaVuSans-69"/>
      <use x="1487.826172" xlink:href="#DejaVuSans-72"/>
      <use x="1528.939453" xlink:href="#DejaVuSans-73"/>
     </g>
    </g>
   </g>
   <g id="line2d_33">
    <defs>
     <path d="M 0 1.5 
C 0.397805 1.5 0.77937 1.341951 1.06066 1.06066 
C 1.341951 0.77937 1.5 0.397805 1.5 0 
C 1.5 -0.397805 1.341951 -0.77937 1.06066 -1.06066 
C 0.77937 -1.341951 0.397805 -1.5 0 -1.5 
C -0.397805 -1.5 -0.77937 -1.341951 -1.06066 -1.06066 
C -1.341951 -0.77937 -1.5 -0.397805 -1.5 0 
C -1.5 0.397805 -1.341951 0.77937 -1.06066 1.06066 
C -0.77937 1.341951 -0.397805 1.5 0 1.5 
z
" id="m2908b8ee01" style="stroke:#f5deb3;"/>
    </defs>
    <g>
     <use style="fill:#f5deb3;stroke:#f5deb3;" x="315.21585" xlink:href="#m2908b8ee01" y="6.381624"/>
     <use style="fill:#f5deb3;stroke:#f5deb3;" x="315.21585" xlink:href="#m2908b8ee01" y="6.381624"/>
    </g>
   </g>
   <g id="line2d_34">
    <defs>
     <path d="M 0 1.5 
C 0.397805 1.5 0.77937 1.341951 1.06066 1.06066 
C 1.341951 0.77937 1.5 0.397805 1.5 0 
C 1.5 -0.397805 1.341951 -0.77937 1.06066 -1.06066 
C 0.77937 -1.341951 0.397805 -1.5 0 -1.5 
C -0.397805 -1.5 -0.77937 -1.341951 -1.06066 -1.06066 
C -1.341951 -0.77937 -1.5 -0.397805 -1.5 0 
C -1.5 0.397805 -1.341951 0.77937 -1.06066 1.06066 
C -0.77937 1.341951 -0.397805 1.5 0 1.5 
z
" id="m33735ed4e1" style="stroke:#000080;"/>
    </defs>
    <g>
     <use style="fill:#000080;stroke:#000080;" x="268.115829" xlink:href="#m33735ed4e1" y="234.695008"/>
     <use style="fill:#000080;stroke:#000080;" x="268.115829" xlink:href="#m33735ed4e1" y="234.695008"/>
    </g>
   </g>
   <g id="line2d_35">
    <path d="M 5.356583 298.944 
L 5.356583 291.371797 
L 17.444571 291.371797 
L 17.444571 290.568685 
L 24.515591 290.568685 
L 24.515591 290.453955 
L 29.53256 290.453955 
L 29.53256 290.224494 
L 33.424023 290.224494 
L 33.424023 290.109764 
L 39.291857 290.109764 
L 39.291857 289.995033 
L 47.174153 289.995033 
L 47.174153 289.880303 
L 51.379845 289.880303 
L 51.379845 289.765573 
L 58.450865 289.765573 
L 58.450865 289.650842 
L 60.779557 289.650842 
L 60.779557 289.536112 
L 61.491463 289.536112 
L 61.491463 289.421381 
L 62.175444 289.421381 
L 62.175444 289.306651 
L 73.227131 289.306651 
L 73.227131 289.191921 
L 74.263433 289.191921 
L 74.263433 289.07719 
L 78.421149 289.07719 
L 78.421149 288.84773 
L 79.196356 288.84773 
L 79.196356 288.732999 
L 86.012784 288.732999 
L 86.012784 288.618269 
L 91.157513 288.618269 
L 91.157513 288.503539 
L 93.754628 288.503539 
L 93.754628 288.388808 
L 94.714831 288.388808 
L 94.714831 288.274078 
L 95.125186 288.274078 
L 95.125186 288.159348 
L 95.526106 288.159348 
L 95.526106 288.044617 
L 95.918017 288.044617 
L 95.918017 287.929887 
L 96.395835 287.929887 
L 96.395835 287.815157 
L 98.935347 287.815157 
L 98.935347 287.700426 
L 100.789049 287.700426 
L 100.789049 287.585696 
L 101.294571 287.585696 
L 101.294571 287.470966 
L 102.060491 287.470966 
L 102.060491 287.356235 
L 102.859376 287.356235 
L 102.859376 287.241505 
L 103.747386 287.241505 
L 103.747386 287.126775 
L 103.93193 287.126775 
L 103.93193 286.897314 
L 104.23523 286.897314 
L 104.23523 286.782584 
L 104.533344 286.782584 
L 104.533344 286.667853 
L 104.884483 286.667853 
L 104.884483 286.553123 
L 105.566235 286.553123 
L 105.566235 286.438393 
L 106.114686 286.438393 
L 106.114686 286.323662 
L 106.593963 286.323662 
L 106.593963 286.208932 
L 108.102622 286.208932 
L 108.198707 285.979471 
L 108.530893 285.979471 
L 108.577836 285.75001 
L 109.930396 285.75001 
L 109.930396 285.63528 
L 110.188761 285.63528 
L 110.188761 285.52055 
L 110.859585 285.52055 
L 110.859585 285.405819 
L 111.145147 285.405819 
L 111.145147 285.291089 
L 111.74176 285.291089 
L 111.74176 285.176359 
L 112.051799 285.176359 
L 112.051799 285.061628 
L 112.166658 285.061628 
L 112.166658 284.946898 
L 112.72987 284.946898 
L 112.766778 284.717437 
L 113.059268 284.717437 
L 113.095487 284.487977 
L 113.629929 284.487977 
L 113.629929 284.373246 
L 113.942906 284.373246 
L 113.942906 284.258516 
L 114.250364 284.258516 
L 114.250364 284.029055 
L 114.882171 284.029055 
L 114.97987 283.684864 
L 115.10929 283.684864 
L 115.10929 283.570134 
L 115.397021 283.570134 
L 115.397021 283.455404 
L 115.804426 283.455404 
L 115.804426 283.340673 
L 115.989297 283.340673 
L 115.989297 283.225943 
L 116.202531 283.225943 
L 116.202531 283.111213 
L 116.680349 283.111213 
L 116.680349 282.996482 
L 117.486268 282.996482 
L 117.514373 282.767022 
L 117.765302 282.767022 
L 117.792962 282.537561 
L 118.012672 282.537561 
L 118.121498 282.19337 
L 118.390628 282.19337 
L 118.390628 282.078639 
L 118.994305 282.078639 
L 118.994305 281.734448 
L 119.250393 281.734448 
L 119.250393 281.619718 
L 119.427443 281.619718 
L 119.427443 281.504988 
L 119.751557 281.504988 
L 119.825504 281.275527 
L 120.142369 281.275527 
L 120.142369 281.160797 
L 121.953191 281.160797 
L 122.061712 280.931336 
L 122.40451 280.931336 
L 122.40451 280.816606 
L 122.594413 280.816606 
L 122.594413 280.701875 
L 122.782271 280.701875 
L 122.823744 280.472415 
L 123.07053 280.472415 
L 123.111324 280.128224 
L 123.212892 280.128224 
L 123.313873 279.325111 
L 123.790603 279.325111 
L 123.790603 279.210381 
L 124.101333 279.210381 
L 124.101333 279.095651 
L 124.482119 279.095651 
L 124.519744 278.86619 
L 124.594752 278.86619 
L 124.594752 278.75146 
L 124.743806 278.75146 
L 124.743806 278.636729 
L 124.873192 278.636729 
L 124.873192 278.521999 
L 125.892487 278.521999 
L 125.909848 278.292538 
L 126.030894 278.292538 
L 126.030894 278.177808 
L 126.151107 278.177808 
L 126.151107 278.063077 
L 126.456471 278.063077 
L 126.456471 277.948347 
L 127.051614 277.948347 
L 127.148859 277.604156 
L 127.197279 277.604156 
L 127.261631 277.374695 
L 127.373678 277.374695 
L 127.373678 276.915774 
L 127.705564 276.915774 
L 127.814803 276.456853 
L 128.000494 276.456853 
L 128.000494 276.342122 
L 128.15374 276.342122 
L 128.15374 276.227392 
L 128.275374 276.227392 
L 128.381113 275.768471 
L 128.471239 275.768471 
L 128.471239 275.65374 
L 128.753602 275.65374 
L 128.753602 275.42428 
L 129.016952 275.42428 
L 129.118302 274.965358 
L 129.47553 274.965358 
L 129.532014 274.391706 
L 129.991152 274.391706 
L 129.991152 273.932785 
L 130.127931 273.932785 
L 130.127931 273.818055 
L 130.304155 273.818055 
L 130.304155 273.588594 
L 130.796184 273.588594 
L 130.796184 273.359133 
L 131.146669 273.359133 
L 131.236397 273.129673 
L 131.338382 273.129673 
L 131.338382 273.014942 
L 131.628308 273.014942 
L 131.640805 272.785482 
L 131.777682 272.785482 
L 131.876558 272.32656 
L 132.374684 272.32656 
L 132.458325 271.408718 
L 133.032848 271.408718 
L 133.078923 270.605605 
L 133.216421 270.605605 
L 133.318838 270.146684 
L 133.454465 270.146684 
L 133.454465 270.031953 
L 133.667073 270.031953 
L 133.733678 269.458302 
L 133.953874 269.458302 
L 133.953874 269.343571 
L 134.117215 269.343571 
L 134.182126 268.88465 
L 134.268299 268.88465 
L 134.354049 268.540459 
L 134.587709 268.540459 
L 134.587709 268.425729 
L 135.107392 268.425729 
L 135.138086 268.196268 
L 135.311005 268.196268 
L 135.39179 267.966807 
L 135.780341 267.966807 
L 135.858985 267.507886 
L 136.054058 267.507886 
L 136.160425 267.278425 
L 136.294869 267.278425 
L 136.294869 267.163695 
L 137.016339 267.163695 
L 137.089613 266.934234 
L 137.153477 266.934234 
L 137.153477 266.819504 
L 137.70032 266.819504 
L 137.709143 266.590043 
L 138.075748 266.590043 
L 138.075748 266.475313 
L 138.561269 266.475313 
L 138.561269 266.360582 
L 138.720151 266.360582 
L 138.720151 266.245852 
L 140.180592 266.245852 
L 140.188245 266.016391 
L 140.47663 266.016391 
L 140.47663 265.901661 
L 140.715835 265.901661 
L 140.738093 265.55747 
L 141.71841 265.55747 
L 141.71841 265.44274 
L 142.044777 265.44274 
L 142.044777 265.328009 
L 142.22273 265.328009 
L 142.311031 264.983818 
L 143.099194 264.983818 
L 143.099194 264.869088 
L 143.508796 264.869088 
L 143.508796 264.754358 
L 144.13014 264.754358 
L 144.13014 264.639627 
L 144.993499 264.639627 
L 145.063071 264.410167 
L 145.446493 264.410167 
L 145.446493 264.295436 
L 146.54332 264.295436 
L 146.54332 264.180706 
L 147.464659 264.180706 
L 147.464659 264.065976 
L 147.833811 264.065976 
L 147.833811 263.951245 
L 148.059407 263.951245 
L 148.059407 263.836515 
L 148.392421 263.836515 
L 148.392421 263.721785 
L 148.975352 263.721785 
L 148.975352 263.607054 
L 149.521512 263.607054 
L 149.521512 263.492324 
L 149.744125 263.492324 
L 149.757392 263.262863 
L 150.18963 263.262863 
L 150.18963 263.148133 
L 151.716387 263.148133 
L 151.716387 263.033402 
L 151.959639 263.033402 
L 151.959639 262.918672 
L 152.310635 262.918672 
L 152.310635 262.803942 
L 152.647216 262.803942 
L 152.647216 262.689211 
L 153.753749 262.689211 
L 153.753749 262.574481 
L 153.921671 262.574481 
L 153.921671 262.459751 
L 154.070741 262.459751 
L 154.070741 262.34502 
L 154.341335 262.34502 
L 154.341335 262.23029 
L 154.830632 262.23029 
L 154.830632 262.11556 
L 156.132461 262.11556 
L 156.218128 261.886099 
L 156.882847 261.886099 
L 156.970762 261.656638 
L 157.406658 261.656638 
L 157.406658 261.541908 
L 157.976006 261.541908 
L 157.976006 261.427178 
L 158.866247 261.427178 
L 158.866247 261.312447 
L 159.105823 261.312447 
L 159.105823 261.197717 
L 159.469261 261.197717 
L 159.469261 261.082987 
L 160.675317 261.082987 
L 160.675317 260.968256 
L 161.26102 260.968256 
L 161.26102 260.853526 
L 162.032251 260.853526 
L 162.032251 260.738796 
L 162.808504 260.738796 
L 162.808504 260.624065 
L 163.107115 260.624065 
L 163.107115 260.509335 
L 163.653591 260.509335 
L 163.653591 260.394605 
L 164.308656 260.394605 
L 164.308656 260.279874 
L 164.949254 260.279874 
L 164.949254 260.165144 
L 165.061737 260.165144 
L 165.105794 259.935683 
L 165.712956 259.935683 
L 165.712956 259.820953 
L 166.049652 259.820953 
L 166.049652 259.706222 
L 168.036999 259.706222 
L 168.047843 259.476762 
L 168.47922 259.476762 
L 168.47922 259.362031 
L 168.737185 259.362031 
L 168.737185 259.247301 
L 170.230143 259.247301 
L 170.230143 259.132571 
L 170.615341 259.132571 
L 170.615341 259.01784 
L 171.988797 259.01784 
L 171.988797 258.90311 
L 172.852895 258.90311 
L 172.852895 258.78838 
L 173.098079 258.78838 
L 173.098079 258.673649 
L 174.306211 258.673649 
L 174.306211 258.558919 
L 174.625636 258.558919 
L 174.625636 258.444189 
L 179.023125 258.444189 
L 179.023125 258.329458 
L 179.220923 258.329458 
L 179.220923 258.214728 
L 179.956024 258.214728 
L 179.956024 258.099998 
L 183.002191 258.099998 
L 183.002191 257.985267 
L 185.588332 257.985267 
L 185.693941 257.755807 
L 188.29893 257.755807 
L 188.29893 257.641076 
L 190.498335 257.641076 
L 190.498335 257.526346 
L 190.730605 257.526346 
L 190.730605 257.411616 
L 194.234107 257.411616 
L 194.251006 257.067425 
L 194.353426 257.067425 
L 194.404753 256.837964 
L 194.512731 256.837964 
L 194.596403 256.493773 
L 194.655107 256.493773 
L 194.755188 256.149582 
L 194.8187 256.149582 
L 194.846705 255.805391 
L 195.021386 255.805391 
L 195.066511 255.4612 
L 195.194008 255.4612 
L 195.250737 255.231739 
L 195.436258 255.231739 
L 195.540933 254.887548 
L 195.737025 254.887548 
L 195.737025 254.772818 
L 195.932815 254.772818 
L 195.932815 254.658087 
L 196.295556 254.658087 
L 196.295556 254.543357 
L 196.626557 254.543357 
L 196.626557 254.428627 
L 196.832591 254.428627 
L 196.832591 254.313896 
L 198.088888 254.313896 
L 198.088888 254.084436 
L 200.47471 254.084436 
L 200.47471 253.969705 
L 200.90622 253.969705 
L 200.90622 253.854975 
L 204.450069 253.854975 
L 204.450069 253.740245 
L 204.899246 253.740245 
L 204.899246 253.396054 
L 206.2841 253.396054 
L 206.296371 253.051863 
L 206.399729 253.051863 
L 206.411232 252.707672 
L 206.539148 252.707672 
L 206.649549 252.36348 
L 206.71731 252.36348 
L 206.71731 252.24875 
L 206.897343 252.24875 
L 207.006335 252.019289 
L 207.102777 252.019289 
L 207.102777 251.675098 
L 207.271707 251.675098 
L 207.294891 251.216177 
L 207.432866 251.216177 
L 207.432866 251.101447 
L 207.802366 251.101447 
L 207.802366 250.986716 
L 209.476446 250.986716 
L 209.511109 250.757256 
L 210.239142 250.757256 
L 210.239142 250.642525 
L 211.680226 250.642525 
L 211.680226 250.527795 
L 212.717372 250.527795 
L 212.717372 250.413065 
L 213.393345 250.413065 
L 213.393345 250.298334 
L 213.695606 250.298334 
L 213.695606 250.183604 
L 213.961351 250.183604 
L 213.961351 250.068874 
L 214.334719 250.068874 
L 214.334719 249.954143 
L 214.516076 249.954143 
L 214.516076 249.839413 
L 214.984968 249.839413 
L 214.984968 249.724683 
L 215.502834 249.724683 
L 215.527376 249.495222 
L 215.803104 249.495222 
L 215.803104 249.380492 
L 216.952664 249.380492 
L 216.952664 249.265761 
L 217.400196 249.265761 
L 217.400196 249.036301 
L 218.36984 249.036301 
L 218.41819 248.577379 
L 220.064366 248.577379 
L 220.064366 248.462649 
L 220.718557 248.462649 
L 220.718557 248.233188 
L 221.105433 248.233188 
L 221.105433 248.003727 
L 221.459088 248.003727 
L 221.459088 247.774267 
L 221.62982 247.774267 
L 221.62982 247.659536 
L 222.293885 247.659536 
L 222.321341 247.315345 
L 222.464812 247.315345 
L 222.464812 247.200615 
L 223.202961 247.200615 
L 223.202961 247.085885 
L 223.528028 247.085885 
L 223.543523 246.856424 
L 223.718151 246.856424 
L 223.718151 246.741694 
L 224.333786 246.741694 
L 224.333786 246.626963 
L 224.547128 246.626963 
L 224.547128 246.512233 
L 225.680371 246.512233 
L 225.680371 246.397503 
L 226.145925 246.397503 
L 226.205551 246.168042 
L 226.492688 246.168042 
L 226.542541 245.938581 
L 226.640261 245.938581 
L 226.640261 245.709121 
L 226.771222 245.709121 
L 226.771222 245.59439 
L 227.162327 245.59439 
L 227.162327 245.47966 
L 227.637129 245.47966 
L 227.637129 245.36493 
L 228.158336 245.36493 
L 228.158336 245.250199 
L 228.714843 245.250199 
L 228.714843 245.135469 
L 229.451219 245.135469 
L 229.451219 245.020738 
L 229.59548 245.020738 
L 229.59548 244.906008 
L 229.753508 244.906008 
L 229.753508 244.791278 
L 229.903781 244.791278 
L 229.903781 244.676547 
L 230.12853 244.676547 
L 230.12853 244.561817 
L 230.440096 244.561817 
L 230.46496 244.332356 
L 230.998756 244.332356 
L 230.998756 244.217626 
L 231.255354 244.217626 
L 231.255354 244.102896 
L 231.430153 244.102896 
L 231.430153 243.873435 
L 231.602771 243.873435 
L 231.602771 243.758705 
L 232.003404 243.758705 
L 232.003404 243.643974 
L 232.93716 243.643974 
L 232.977576 243.414514 
L 233.632147 243.414514 
L 233.632147 243.299783 
L 234.056379 243.299783 
L 234.056379 243.185053 
L 234.325482 243.185053 
L 234.377869 242.955592 
L 234.718072 242.955592 
L 234.754569 242.726132 
L 234.922936 242.726132 
L 234.961745 242.496671 
L 235.243177 242.496671 
L 235.346791 242.15248 
L 235.569031 242.15248 
L 235.569031 242.03775 
L 235.731732 242.03775 
L 235.731732 241.923019 
L 235.976358 241.923019 
L 235.976358 241.808289 
L 237.180949 241.808289 
L 237.180949 241.693559 
L 237.984253 241.693559 
L 238.067498 241.234637 
L 238.395876 241.234637 
L 238.395876 241.119907 
L 238.592285 241.119907 
L 238.592285 241.005176 
L 238.872317 241.005176 
L 238.872317 240.890446 
L 239.664461 240.890446 
L 239.664461 240.775716 
L 239.965703 240.775716 
L 239.965703 240.660985 
L 240.157888 240.660985 
L 240.157888 240.546255 
L 240.593407 240.546255 
L 240.593407 240.316794 
L 240.942699 240.316794 
L 240.942699 240.202064 
L 241.175795 240.202064 
L 241.175795 239.972603 
L 241.34185 239.972603 
L 241.34185 239.857873 
L 241.823753 239.857873 
L 241.823753 239.743143 
L 242.044236 239.743143 
L 242.044236 239.628412 
L 242.475493 239.628412 
L 242.475493 239.513682 
L 242.722549 239.513682 
L 242.745621 239.284221 
L 242.852286 239.284221 
L 242.915292 239.054761 
L 243.122477 239.054761 
L 243.122477 238.94003 
L 243.528176 238.94003 
L 243.528176 238.8253 
L 244.86097 238.8253 
L 244.86097 238.71057 
L 245.135034 238.71057 
L 245.135034 238.481109 
L 245.318582 238.481109 
L 245.318582 238.366379 
L 246.127918 238.366379 
L 246.216911 238.136918 
L 246.653773 238.136918 
L 246.653773 238.022188 
L 248.771967 238.022188 
L 248.771967 237.907457 
L 248.969273 237.907457 
L 248.969273 237.792727 
L 249.18722 237.792727 
L 249.285277 237.563266 
L 251.217082 237.563266 
L 251.217082 237.448536 
L 251.796645 237.448536 
L 251.808341 237.219075 
L 251.955892 237.219075 
L 251.955892 237.104345 
L 252.418206 237.104345 
L 252.418206 236.989614 
L 252.686568 236.989614 
L 252.686568 236.874884 
L 253.714475 236.874884 
L 253.773353 236.645423 
L 254.772613 236.645423 
L 254.772613 236.530693 
L 255.770093 236.530693 
L 255.770093 236.415963 
L 255.980215 236.415963 
L 255.980215 236.301232 
L 256.383524 236.301232 
L 256.383524 236.186502 
L 257.051236 236.186502 
L 257.051236 236.071772 
L 257.226404 236.071772 
L 257.265983 235.842311 
L 258.171397 235.842311 
L 258.171397 235.727581 
L 258.607066 235.727581 
L 258.607066 235.61285 
L 260.975769 235.61285 
L 260.975769 235.49812 
L 261.308768 235.49812 
L 261.308768 235.38339 
L 262.086993 235.38339 
L 262.170412 235.153929 
L 262.906688 235.153929 
L 262.906688 235.039199 
L 263.808473 235.039199 
L 263.808473 234.924468 
L 264.064219 234.924468 
L 264.064219 234.809738 
L 268.115829 234.809738 
L 268.115829 234.695008 
L 338.688 234.695008 
L 338.688 234.695008 
" style="fill:none;stroke:#000080;stroke-linecap:square;stroke-width:1.5;"/>
   </g>
   <g id="line2d_36">
    <defs>
     <path d="M 0 6 
C 1.591219 6 3.117479 5.367802 4.242641 4.242641 
C 5.367802 3.117479 6 1.591219 6 0 
C 6 -1.591219 5.367802 -3.117479 4.242641 -4.242641 
C 3.117479 -5.367802 1.591219 -6 0 -6 
C -1.591219 -6 -3.117479 -5.367802 -4.242641 -4.242641 
C -5.367802 -3.117479 -6 -1.591219 -6 0 
C -6 1.591219 -5.367802 3.117479 -4.242641 4.242641 
C -3.117479 5.367802 -1.591219 6 0 6 
z
" id="mc16711f113" style="stroke:#000080;stroke-width:1.5;"/>
    </defs>
    <g>
     <use style="fill-opacity:0;stroke:#000080;stroke-width:1.5;" x="137.153477" xlink:href="#mc16711f113" y="266.819504"/>
     <use style="fill-opacity:0;stroke:#000080;stroke-width:1.5;" x="200.90622" xlink:href="#mc16711f113" y="253.854975"/>
     <use style="fill-opacity:0;stroke:#000080;stroke-width:1.5;" x="268.115829" xlink:href="#mc16711f113" y="234.809738"/>
     <use style="fill-opacity:0;stroke:#000080;stroke-width:1.5;" x="268.115829" xlink:href="#mc16711f113" y="234.695008"/>
     <use style="fill-opacity:0;stroke:#000080;stroke-width:1.5;" x="338.688" xlink:href="#mc16711f113" y="234.695008"/>
    </g>
   </g>
   <g id="line2d_37">
    <path style="fill:none;stroke:#000080;stroke-linecap:square;stroke-width:1.5;"/>
    <g/>
   </g>
   <g id="line2d_38">
    <path clip-path="url(#p44460509ba)" d="M 194.045737 257.411616 
" style="fill:none;stroke:#000080;stroke-linecap:square;stroke-width:1.5;"/>
    <defs>
     <path d="M -12 12 
L 12 -12 
M -12 -12 
L 12 12 
" id="m441b1c40da" style="stroke:#000080;"/>
    </defs>
    <g clip-path="url(#p44460509ba)">
     <use style="fill:#000080;stroke:#000080;" x="194.045737" xlink:href="#m441b1c40da" y="257.411616"/>
    </g>
   </g>
   <g id="line2d_39">
    <defs>
     <path d="M 0 1.5 
C 0.397805 1.5 0.77937 1.341951 1.06066 1.06066 
C 1.341951 0.77937 1.5 0.397805 1.5 0 
C 1.5 -0.397805 1.341951 -0.77937 1.06066 -1.06066 
C 0.77937 -1.341951 0.397805 -1.5 0 -1.5 
C -0.397805 -1.5 -0.77937 -1.341951 -1.06066 -1.06066 
C -1.341951 -0.77937 -1.5 -0.397805 -1.5 0 
C -1.5 0.397805 -1.341951 0.77937 -1.06066 1.06066 
C -0.77937 1.341951 -0.397805 1.5 0 1.5 
z
" id="mac6b1cde73" style="stroke:#ff00ff;"/>
    </defs>
    <g>
     <use style="fill:#ff00ff;stroke:#ff00ff;" x="255.634226" xlink:href="#mac6b1cde73" y="245.020738"/>
     <use style="fill:#ff00ff;stroke:#ff00ff;" x="255.634226" xlink:href="#mac6b1cde73" y="245.020738"/>
    </g>
   </g>
   <g id="line2d_40">
    <path d="M 5.356583 298.944 
L 5.356583 291.257067 
L 17.444571 291.257067 
L 17.444571 290.683415 
L 24.515591 290.683415 
L 24.515591 290.453955 
L 29.53256 290.453955 
L 29.53256 290.224494 
L 39.291857 290.224494 
L 39.291857 290.109764 
L 41.620548 290.109764 
L 41.620548 289.880303 
L 43.6746 289.880303 
L 43.6746 289.765573 
L 52.583031 289.765573 
L 52.583031 289.650842 
L 54.765787 289.650842 
L 54.765787 289.536112 
L 56.705482 289.536112 
L 56.705482 289.421381 
L 60.779557 289.421381 
L 60.779557 289.306651 
L 63.467834 289.306651 
L 63.467834 289.191921 
L 65.242851 289.191921 
L 65.242851 289.07719 
L 72.125336 289.07719 
L 72.125336 288.96246 
L 74.263433 288.96246 
L 74.263433 288.84773 
L 74.595619 288.84773 
L 74.595619 288.732999 
L 74.921597 288.732999 
L 74.921597 288.618269 
L 82.206598 288.618269 
L 82.206598 288.503539 
L 84.588378 288.503539 
L 84.588378 288.388808 
L 90.376519 288.388808 
L 90.376519 288.274078 
L 90.771388 288.274078 
L 90.771388 288.159348 
L 92.147241 288.159348 
L 92.147241 288.044617 
L 97.928955 288.044617 
L 97.928955 287.929887 
L 104.053884 287.929887 
L 104.053884 287.700426 
L 104.474128 287.700426 
L 104.474128 287.585696 
L 107.009204 287.585696 
L 107.009204 287.470966 
L 107.364602 287.470966 
L 107.364602 287.356235 
L 109.71213 287.356235 
L 109.71213 287.241505 
L 110.443353 287.241505 
L 110.443353 287.126775 
L 112.766778 287.126775 
L 112.766778 287.012044 
L 113.27546 287.012044 
L 113.27546 286.897314 
L 113.594805 286.897314 
L 113.629929 286.667853 
L 115.012316 286.667853 
L 115.012316 286.553123 
L 115.742365 286.553123 
L 115.742365 286.323662 
L 117.514373 286.323662 
L 117.514373 286.208932 
L 118.121498 286.208932 
L 118.121498 286.094202 
L 118.337133 286.094202 
L 118.337133 285.979471 
L 118.734401 285.979471 
L 118.734401 285.864741 
L 118.994305 285.864741 
L 118.994305 285.75001 
L 121.151244 285.75001 
L 121.151244 285.63528 
L 121.556827 285.63528 
L 121.579085 285.405819 
L 123.533993 285.405819 
L 123.533993 285.291089 
L 124.178158 285.291089 
L 124.178158 285.176359 
L 124.650796 285.176359 
L 124.650796 285.061628 
L 124.780872 285.061628 
L 124.836322 284.832168 
L 125.309651 284.832168 
L 125.309651 284.717437 
L 125.434921 284.717437 
L 125.488334 284.487977 
L 125.594671 284.487977 
L 125.700364 284.143786 
L 125.752972 284.143786 
L 125.752972 284.029055 
L 126.405947 284.029055 
L 126.405947 283.914325 
L 127.293718 283.914325 
L 127.293718 283.799595 
L 128.45625 283.799595 
L 128.45625 283.684864 
L 129.546106 283.684864 
L 129.588315 283.455404 
L 129.728278 283.455404 
L 129.728278 283.340673 
L 131.120948 283.340673 
L 131.120948 283.225943 
L 131.477644 283.225943 
L 131.477644 283.111213 
L 132.470242 283.111213 
L 132.470242 282.996482 
L 133.078923 282.996482 
L 133.078923 282.881752 
L 133.22783 282.881752 
L 133.33018 282.652291 
L 133.622529 282.652291 
L 133.622529 282.537561 
L 134.513701 282.537561 
L 134.61933 282.3081 
L 134.724323 282.3081 
L 134.724323 282.19337 
L 134.911732 282.19337 
L 134.911732 282.078639 
L 136.504067 282.078639 
L 136.504067 281.963909 
L 136.757427 281.963909 
L 136.757427 281.849179 
L 136.979586 281.849179 
L 136.979586 281.734448 
L 137.271464 281.734448 
L 137.271464 281.619718 
L 137.664982 281.619718 
L 137.664982 281.504988 
L 138.179093 281.504988 
L 138.179093 281.390257 
L 138.619973 281.390257 
L 138.619973 281.275527 
L 138.861092 281.275527 
L 138.861092 281.160797 
L 139.918342 281.160797 
L 139.918342 281.046066 
L 140.900458 281.046066 
L 140.900458 280.931336 
L 141.184622 280.931336 
L 141.184622 280.816606 
L 141.421504 280.816606 
L 141.421504 280.701875 
L 142.236344 280.701875 
L 142.236344 280.587145 
L 142.765762 280.587145 
L 142.765762 280.357684 
L 142.923465 280.357684 
L 143.027814 280.013493 
L 143.285988 280.013493 
L 143.285988 279.898763 
L 143.49614 279.898763 
L 143.49614 279.784033 
L 143.666219 279.784033 
L 143.666219 279.669302 
L 143.853271 279.669302 
L 143.853271 279.554572 
L 144.099593 279.554572 
L 144.099593 279.439842 
L 144.724207 279.439842 
L 144.806606 279.210381 
L 145.821666 279.210381 
L 145.821666 279.095651 
L 145.943118 279.095651 
L 145.943118 278.98092 
L 146.280909 278.98092 
L 146.280909 278.86619 
L 146.452726 278.86619 
L 146.452726 278.636729 
L 146.801841 278.636729 
L 146.828006 278.063077 
L 147.087524 278.063077 
L 147.087524 277.948347 
L 147.236294 277.948347 
L 147.33308 277.259965 
L 147.47474 277.259965 
L 147.47474 277.145235 
L 147.605259 277.145235 
L 147.605259 277.030504 
L 147.804169 277.030504 
L 147.804169 276.915774 
L 148.015498 276.915774 
L 148.122637 276.571583 
L 148.358926 276.571583 
L 148.411533 275.997931 
L 148.554206 275.997931 
L 148.554206 275.883201 
L 148.705114 275.883201 
L 148.705114 275.65374 
L 148.938326 275.65374 
L 148.938326 275.53901 
L 149.195872 275.53901 
L 149.195872 275.080089 
L 149.998846 275.080089 
L 150.098834 274.735897 
L 150.518562 274.735897 
L 150.560829 274.506437 
L 150.687018 274.506437 
L 150.695399 274.276976 
L 150.816462 274.276976 
L 150.903606 274.047515 
L 151.223527 274.047515 
L 151.300575 273.129673 
L 151.377285 273.129673 
L 151.377285 273.014942 
L 151.724287 273.014942 
L 151.724287 272.900212 
L 151.936246 272.900212 
L 151.994669 272.556021 
L 152.141804 272.556021 
L 152.141804 272.0971 
L 152.306816 272.0971 
L 152.306816 271.867639 
L 152.613473 271.867639 
L 152.64347 271.408718 
L 152.733151 271.408718 
L 152.766663 271.064526 
L 153.014138 271.064526 
L 153.014138 270.949796 
L 153.127464 270.949796 
L 153.131107 270.605605 
L 153.423725 270.605605 
L 153.459513 270.146684 
L 153.587744 270.146684 
L 153.587744 269.917223 
L 154.067288 269.917223 
L 154.067288 269.802493 
L 154.432862 269.802493 
L 154.432862 269.687762 
L 154.731206 269.687762 
L 154.731206 269.573032 
L 154.873541 269.573032 
L 154.886723 269.343571 
L 155.527065 269.343571 
L 155.527065 269.228841 
L 155.747938 269.228841 
L 155.747938 269.114111 
L 155.975336 269.114111 
L 155.975336 268.99938 
L 156.160043 268.99938 
L 156.236431 268.76992 
L 156.373091 268.76992 
L 156.418408 268.540459 
L 156.532685 268.540459 
L 156.532685 268.425729 
L 157.017469 268.425729 
L 157.017469 268.310998 
L 157.557108 268.310998 
L 157.574059 268.081538 
L 157.920731 268.081538 
L 157.920731 267.966807 
L 158.094258 267.966807 
L 158.17083 267.737347 
L 158.996859 267.737347 
L 158.996859 267.622616 
L 159.308951 267.622616 
L 159.308951 267.507886 
L 159.758143 267.507886 
L 159.758143 267.393156 
L 160.949699 267.393156 
L 160.949699 267.278425 
L 161.481327 267.278425 
L 161.481327 267.163695 
L 162.286241 267.163695 
L 162.286241 267.048964 
L 162.720437 267.048964 
L 162.720437 266.934234 
L 163.2749 266.934234 
L 163.337912 266.704773 
L 163.796472 266.704773 
L 163.796472 266.590043 
L 164.094319 266.590043 
L 164.144761 266.360582 
L 165.825912 266.360582 
L 165.825912 266.245852 
L 166.020101 266.245852 
L 166.020101 266.131122 
L 166.405516 266.131122 
L 166.470061 265.786931 
L 166.941739 265.786931 
L 166.941739 265.6722 
L 167.25087 265.6722 
L 167.25087 265.55747 
L 168.152844 265.55747 
L 168.152844 265.44274 
L 168.491304 265.44274 
L 168.491304 265.328009 
L 168.686493 265.328009 
L 168.752066 265.098549 
L 168.988454 265.098549 
L 168.988454 264.983818 
L 169.436104 264.983818 
L 169.436104 264.869088 
L 170.094321 264.869088 
L 170.204158 264.639627 
L 170.292894 264.639627 
L 170.396077 264.065976 
L 170.792229 264.065976 
L 170.806779 263.836515 
L 171.435242 263.836515 
L 171.435242 263.721785 
L 171.597729 263.721785 
L 171.598993 263.492324 
L 171.890917 263.492324 
L 171.890917 263.377593 
L 172.066461 263.377593 
L 172.066461 263.262863 
L 172.179258 263.262863 
L 172.179258 263.148133 
L 172.655425 263.148133 
L 172.746752 262.918672 
L 173.393521 262.918672 
L 173.393521 262.803942 
L 173.808037 262.803942 
L 173.808037 262.689211 
L 174.184629 262.689211 
L 174.184629 262.574481 
L 174.364529 262.574481 
L 174.364529 262.459751 
L 174.525508 262.459751 
L 174.526577 261.886099 
L 174.839929 261.886099 
L 174.869281 261.656638 
L 175.601537 261.656638 
L 175.652683 261.427178 
L 175.870621 261.427178 
L 175.870621 261.312447 
L 176.191048 261.312447 
L 176.191048 261.197717 
L 176.327418 261.197717 
L 176.327418 261.082987 
L 176.994643 261.082987 
L 176.994643 260.968256 
L 177.11753 260.968256 
L 177.11753 260.853526 
L 178.776239 260.853526 
L 178.776239 260.738796 
L 180.253913 260.738796 
L 180.253913 260.624065 
L 180.670402 260.624065 
L 180.670402 260.509335 
L 182.130585 260.509335 
L 182.130585 260.394605 
L 182.534755 260.394605 
L 182.534755 260.279874 
L 182.891461 260.279874 
L 182.891461 260.165144 
L 183.665489 260.165144 
L 183.665489 260.050414 
L 185.065658 260.050414 
L 185.065658 259.935683 
L 185.217342 259.935683 
L 185.217342 259.820953 
L 185.870963 259.820953 
L 185.870963 259.706222 
L 186.606017 259.706222 
L 186.606017 259.591492 
L 187.034084 259.591492 
L 187.137535 259.362031 
L 187.839529 259.362031 
L 187.839529 259.247301 
L 188.078847 259.247301 
L 188.078847 259.132571 
L 190.508592 259.132571 
L 190.508592 259.01784 
L 190.725964 259.01784 
L 190.725964 258.90311 
L 190.941078 258.90311 
L 190.941078 258.78838 
L 192.412522 258.78838 
L 192.440843 258.558919 
L 194.757532 258.558919 
L 194.757532 258.444189 
L 194.943708 258.444189 
L 194.943708 258.214728 
L 195.079993 258.214728 
L 195.079993 258.099998 
L 195.440444 258.099998 
L 195.440444 257.985267 
L 195.800851 257.985267 
L 195.800851 257.755807 
L 195.926867 257.755807 
L 196.016502 257.182155 
L 196.067205 257.182155 
L 196.067205 257.067425 
L 196.661716 257.067425 
L 196.72285 256.837964 
L 196.802838 256.837964 
L 196.909416 256.493773 
L 197.307356 256.493773 
L 197.307356 256.379043 
L 198.365236 256.379043 
L 198.365236 256.264312 
L 198.799223 256.264312 
L 198.889813 255.920121 
L 199.058345 255.920121 
L 199.058345 255.805391 
L 200.195785 255.805391 
L 200.195785 255.69066 
L 201.17456 255.69066 
L 201.17456 255.57593 
L 202.521013 255.57593 
L 202.521013 255.4612 
L 204.046705 255.4612 
L 204.046705 255.231739 
L 205.483475 255.231739 
L 205.483475 255.117009 
L 206.58849 255.117009 
L 206.58849 254.887548 
L 206.919196 254.887548 
L 206.919196 254.772818 
L 207.400299 254.772818 
L 207.453735 254.199166 
L 207.632763 254.199166 
L 207.632763 254.084436 
L 208.235302 254.084436 
L 208.235302 253.854975 
L 208.671929 253.854975 
L 208.723417 253.396054 
L 210.692662 253.396054 
L 210.692662 253.281323 
L 211.433349 253.281323 
L 211.433349 253.166593 
L 212.230006 253.166593 
L 212.230006 253.051863 
L 212.68602 253.051863 
L 212.68602 252.937132 
L 213.736815 252.937132 
L 213.809624 252.707672 
L 213.864116 252.707672 
L 213.922232 252.36348 
L 213.980377 252.36348 
L 214.080728 252.019289 
L 215.114971 252.019289 
L 215.21223 251.675098 
L 217.495815 251.675098 
L 217.495815 251.560368 
L 218.450579 251.560368 
L 218.450579 251.445638 
L 218.913407 251.445638 
L 218.974645 251.216177 
L 219.457528 251.216177 
L 219.457528 251.101447 
L 219.673639 251.101447 
L 219.673639 250.757256 
L 220.137331 250.757256 
L 220.137331 250.642525 
L 220.918485 250.642525 
L 220.918485 250.527795 
L 221.308086 250.527795 
L 221.308086 250.413065 
L 222.354533 250.413065 
L 222.354533 250.298334 
L 222.547201 250.298334 
L 222.628323 250.068874 
L 222.984427 250.068874 
L 222.984427 249.954143 
L 224.429517 249.954143 
L 224.429517 249.839413 
L 226.021764 249.839413 
L 226.021764 249.724683 
L 226.288819 249.724683 
L 226.325347 249.495222 
L 227.243758 249.495222 
L 227.243758 249.380492 
L 228.317657 249.380492 
L 228.41523 249.036301 
L 229.810893 249.036301 
L 229.810893 248.92157 
L 229.95053 248.92157 
L 229.95053 248.80684 
L 230.490264 248.80684 
L 230.490264 248.692109 
L 231.020911 248.692109 
L 231.020911 248.577379 
L 232.62615 248.577379 
L 232.706172 248.347918 
L 233.02402 248.347918 
L 233.058911 248.118458 
L 233.489877 248.118458 
L 233.489877 248.003727 
L 233.614048 248.003727 
L 233.614048 247.888997 
L 233.914422 247.888997 
L 233.914422 247.774267 
L 234.293072 247.774267 
L 234.361116 247.544806 
L 235.501957 247.544806 
L 235.501957 247.430076 
L 237.126975 247.430076 
L 237.126975 247.315345 
L 237.638164 247.315345 
L 237.638164 247.200615 
L 237.878251 247.200615 
L 237.878251 247.085885 
L 238.471342 247.085885 
L 238.471342 246.971154 
L 240.932009 246.971154 
L 240.932009 246.856424 
L 241.454068 246.856424 
L 241.454068 246.741694 
L 241.671337 246.741694 
L 241.671337 246.626963 
L 242.591128 246.626963 
L 242.591128 246.512233 
L 244.168725 246.512233 
L 244.168725 246.397503 
L 244.623792 246.397503 
L 244.623792 246.168042 
L 245.542553 246.168042 
L 245.542553 246.053312 
L 246.444075 246.053312 
L 246.444075 245.938581 
L 246.995474 245.938581 
L 246.995474 245.823851 
L 247.252959 245.823851 
L 247.252959 245.709121 
L 248.092189 245.709121 
L 248.092189 245.59439 
L 248.848784 245.59439 
L 248.848784 245.47966 
L 250.669153 245.47966 
L 250.669153 245.36493 
L 252.976554 245.36493 
L 252.976554 245.250199 
L 253.259118 245.250199 
L 253.259118 245.135469 
L 255.634226 245.135469 
L 255.634226 245.020738 
L 338.688 245.020738 
L 338.688 245.020738 
" style="fill:none;stroke:#ff00ff;stroke-linecap:square;stroke-width:1.5;"/>
   </g>
   <g id="line2d_41">
    <defs>
     <path d="M 0 8.485281 
L 5.091169 0 
L 0 -8.485281 
L -5.091169 0 
z
" id="m16a0fa352a" style="stroke:#ff00ff;stroke-linejoin:miter;stroke-width:1.5;"/>
    </defs>
    <g>
     <use style="fill-opacity:0;stroke:#ff00ff;stroke-linejoin:miter;stroke-width:1.5;" x="97.928955" xlink:href="#m16a0fa352a" y="288.044617"/>
     <use style="fill-opacity:0;stroke:#ff00ff;stroke-linejoin:miter;stroke-width:1.5;" x="183.665489" xlink:href="#m16a0fa352a" y="260.050414"/>
     <use style="fill-opacity:0;stroke:#ff00ff;stroke-linejoin:miter;stroke-width:1.5;" x="248.092189" xlink:href="#m16a0fa352a" y="245.709121"/>
     <use style="fill-opacity:0;stroke:#ff00ff;stroke-linejoin:miter;stroke-width:1.5;" x="255.634226" xlink:href="#m16a0fa352a" y="245.020738"/>
     <use style="fill-opacity:0;stroke:#ff00ff;stroke-linejoin:miter;stroke-width:1.5;" x="255.634226" xlink:href="#m16a0fa352a" y="245.020738"/>
     <use style="fill-opacity:0;stroke:#ff00ff;stroke-linejoin:miter;stroke-width:1.5;" x="338.688" xlink:href="#m16a0fa352a" y="245.020738"/>
    </g>
   </g>
   <g id="line2d_42">
    <path style="fill:none;stroke:#ff00ff;stroke-linecap:square;stroke-width:1.5;"/>
    <g/>
   </g>
   <g id="line2d_43">
    <path clip-path="url(#p44460509ba)" d="M 194.045737 258.558919 
" style="fill:none;stroke:#ff00ff;stroke-linecap:square;stroke-width:1.5;"/>
    <defs>
     <path d="M -12 12 
L 12 -12 
M -12 -12 
L 12 12 
" id="m4dfa49546c" style="stroke:#ff00ff;"/>
    </defs>
    <g clip-path="url(#p44460509ba)">
     <use style="fill:#ff00ff;stroke:#ff00ff;" x="194.045737" xlink:href="#m4dfa49546c" y="258.558919"/>
    </g>
   </g>
   <g id="line2d_44">
    <defs>
     <path d="M 0 1.5 
C 0.397805 1.5 0.77937 1.341951 1.06066 1.06066 
C 1.341951 0.77937 1.5 0.397805 1.5 0 
C 1.5 -0.397805 1.341951 -0.77937 1.06066 -1.06066 
C 0.77937 -1.341951 0.397805 -1.5 0 -1.5 
C -0.397805 -1.5 -0.77937 -1.341951 -1.06066 -1.06066 
C -1.341951 -0.77937 -1.5 -0.397805 -1.5 0 
C -1.5 0.397805 -1.341951 0.77937 -1.06066 1.06066 
C -0.77937 1.341951 -0.397805 1.5 0 1.5 
z
" id="mbcf5a3c7e6" style="stroke:#ff7500;"/>
    </defs>
    <g>
     <use style="fill:#ff7500;stroke:#ff7500;" x="267.562937" xlink:href="#mbcf5a3c7e6" y="236.989614"/>
     <use style="fill:#ff7500;stroke:#ff7500;" x="267.562937" xlink:href="#mbcf5a3c7e6" y="236.989614"/>
    </g>
   </g>
   <g id="line2d_45">
    <path d="M 5.356583 298.944 
L 5.356583 290.912876 
L 17.444571 290.912876 
L 17.444571 289.995033 
L 36.60358 289.995033 
L 36.60358 289.650842 
L 50.087456 289.650842 
L 50.087456 289.536112 
L 62.175444 289.536112 
L 62.175444 289.421381 
L 67.359297 289.421381 
L 67.359297 289.306651 
L 68.328395 289.306651 
L 68.328395 289.191921 
L 70.11861 289.191921 
L 70.11861 289.07719 
L 75.555822 289.07719 
L 75.555822 288.96246 
L 76.16779 288.96246 
L 76.16779 288.84773 
L 76.465904 288.84773 
L 76.465904 288.732999 
L 83.438118 288.732999 
L 83.438118 288.618269 
L 90.901048 288.618269 
L 90.901048 288.503539 
L 93.197415 288.503539 
L 93.197415 288.388808 
L 94.610715 288.388808 
L 94.610715 288.274078 
L 101.785851 288.274078 
L 101.785851 288.159348 
L 104.23523 288.159348 
L 104.23523 288.044617 
L 110.77713 288.044617 
L 110.77713 287.929887 
L 117.930605 287.929887 
L 117.930605 287.815157 
L 128.783061 287.815157 
L 128.783061 287.700426 
L 129.46138 287.700426 
L 129.46138 287.585696 
L 129.756136 287.585696 
L 129.756136 287.470966 
L 130.290663 287.470966 
L 130.290663 287.356235 
L 132.036046 287.356235 
L 132.036046 287.241505 
L 132.278599 287.241505 
L 132.278599 287.126775 
L 133.931979 287.126775 
L 133.931979 287.012044 
L 134.787017 287.012044 
L 134.787017 286.897314 
L 136.237377 286.897314 
L 136.237377 286.782584 
L 137.007158 286.782584 
L 137.007158 286.667853 
L 137.307607 286.667853 
L 137.307607 286.553123 
L 137.963097 286.553123 
L 137.963097 286.438393 
L 138.670134 286.438393 
L 138.670134 286.323662 
L 140.363363 286.323662 
L 140.363363 286.208932 
L 141.061324 286.208932 
L 141.061324 286.094202 
L 141.20629 286.094202 
L 141.20629 285.979471 
L 141.392962 285.979471 
L 141.392962 285.864741 
L 142.290693 285.864741 
L 142.290693 285.75001 
L 142.439286 285.75001 
L 142.439286 285.63528 
L 145.581813 285.63528 
L 145.581813 285.52055 
L 145.738371 285.52055 
L 145.738371 285.405819 
L 146.205204 285.405819 
L 146.205204 285.291089 
L 147.220962 285.291089 
L 147.220962 285.176359 
L 148.122637 285.176359 
L 148.122637 285.061628 
L 148.672214 285.061628 
L 148.672214 284.946898 
L 149.223242 284.946898 
L 149.223242 284.832168 
L 150.029338 284.832168 
L 150.029338 284.717437 
L 150.314243 284.717437 
L 150.335638 284.487977 
L 150.924291 284.487977 
L 150.924291 284.373246 
L 151.497722 284.373246 
L 151.569588 284.143786 
L 152.052897 284.143786 
L 152.052897 284.029055 
L 153.757264 284.029055 
L 153.757264 283.914325 
L 153.872861 283.914325 
L 153.93907 283.684864 
L 154.074192 283.684864 
L 154.074192 283.570134 
L 156.457587 283.570134 
L 156.457587 283.455404 
L 156.667052 283.455404 
L 156.667052 283.340673 
L 157.133693 283.340673 
L 157.133693 283.225943 
L 158.317562 283.225943 
L 158.317562 283.111213 
L 158.949951 283.111213 
L 158.949951 282.996482 
L 159.650685 282.996482 
L 159.743188 282.767022 
L 160.312284 282.767022 
L 160.312284 282.652291 
L 160.601888 282.652291 
L 160.601888 282.537561 
L 160.858717 282.537561 
L 160.905434 282.3081 
L 161.081824 282.3081 
L 161.081824 282.19337 
L 162.376523 282.19337 
L 162.438588 281.963909 
L 162.517456 281.963909 
L 162.517456 281.849179 
L 163.272863 281.849179 
L 163.272863 281.734448 
L 163.408783 281.734448 
L 163.408783 281.619718 
L 163.893045 281.619718 
L 163.893045 281.504988 
L 164.030086 281.504988 
L 164.030086 281.390257 
L 164.264459 281.390257 
L 164.264459 281.275527 
L 164.710841 281.275527 
L 164.710841 281.160797 
L 165.230021 281.160797 
L 165.230021 281.046066 
L 165.711185 281.046066 
L 165.714726 280.816606 
L 166.279131 280.816606 
L 166.357802 280.587145 
L 166.677363 280.587145 
L 166.677363 280.357684 
L 167.17939 280.357684 
L 167.17939 280.242954 
L 168.088065 280.242954 
L 168.088065 280.128224 
L 168.474687 280.128224 
L 168.474687 280.013493 
L 168.626667 280.013493 
L 168.626667 279.898763 
L 168.839608 279.898763 
L 168.839608 279.784033 
L 169.00019 279.784033 
L 169.086498 279.554572 
L 169.256398 279.554572 
L 169.315546 279.325111 
L 169.809666 279.325111 
L 169.841835 279.095651 
L 170.35949 279.095651 
L 170.35949 278.98092 
L 171.972728 278.98092 
L 171.972728 278.86619 
L 172.450881 278.86619 
L 172.528914 278.521999 
L 172.689877 278.521999 
L 172.689877 278.407268 
L 173.128197 278.407268 
L 173.128197 278.292538 
L 173.41175 278.292538 
L 173.41175 278.063077 
L 173.618898 278.063077 
L 173.63352 277.374695 
L 173.798016 277.374695 
L 173.859166 277.030504 
L 174.151919 277.030504 
L 174.151919 276.915774 
L 174.288894 276.915774 
L 174.362373 276.571583 
L 174.55646 276.571583 
L 174.55646 276.456853 
L 174.770546 276.456853 
L 174.770546 276.342122 
L 174.977872 276.342122 
L 174.977872 276.227392 
L 175.198187 276.227392 
L 175.198187 276.112662 
L 175.433001 276.112662 
L 175.433001 275.997931 
L 175.581438 275.997931 
L 175.581438 275.53901 
L 175.769454 275.53901 
L 175.85677 274.850628 
L 175.957432 274.850628 
L 176.01049 274.621167 
L 176.110272 274.621167 
L 176.182307 273.473864 
L 176.473242 273.473864 
L 176.536182 272.900212 
L 176.781943 272.900212 
L 176.868082 272.556021 
L 176.98444 272.556021 
L 177.084352 271.867639 
L 177.128575 271.867639 
L 177.202031 271.638178 
L 177.50721 271.638178 
L 177.615816 271.293987 
L 177.645319 271.293987 
L 177.645319 271.179257 
L 177.768156 271.179257 
L 177.768156 271.064526 
L 177.968351 271.064526 
L 178.027003 270.835066 
L 178.113308 270.835066 
L 178.113308 270.720335 
L 178.261382 270.720335 
L 178.371404 270.490875 
L 178.480736 270.490875 
L 178.480736 270.376144 
L 178.59531 270.376144 
L 178.692319 269.458302 
L 178.877244 269.458302 
L 178.877244 269.228841 
L 179.044573 269.228841 
L 179.044573 269.114111 
L 179.301531 269.114111 
L 179.301531 268.88465 
L 179.483356 268.88465 
L 179.57796 268.081538 
L 179.617095 268.081538 
L 179.724463 267.737347 
L 179.781457 267.737347 
L 179.781457 267.507886 
L 179.932536 267.507886 
L 180.024741 266.704773 
L 180.138155 266.704773 
L 180.22389 266.360582 
L 180.280045 266.360582 
L 180.280045 266.245852 
L 180.572496 266.245852 
L 180.572496 266.131122 
L 180.994808 266.131122 
L 180.994808 266.016391 
L 181.261095 266.016391 
L 181.261095 265.901661 
L 181.471092 265.901661 
L 181.564094 265.328009 
L 181.858411 265.328009 
L 181.93192 265.098549 
L 182.570486 265.098549 
L 182.570486 264.983818 
L 182.690625 264.983818 
L 182.690625 264.869088 
L 183.395226 264.869088 
L 183.395226 264.754358 
L 183.642071 264.754358 
L 183.642071 264.639627 
L 183.75822 264.639627 
L 183.75822 264.524897 
L 184.074932 264.524897 
L 184.074932 264.410167 
L 184.231157 264.410167 
L 184.231157 264.295436 
L 184.572527 264.295436 
L 184.631271 264.065976 
L 185.26415 264.065976 
L 185.269343 263.836515 
L 185.471818 263.836515 
L 185.527614 263.607054 
L 185.860927 263.607054 
L 185.860927 263.492324 
L 185.975987 263.492324 
L 185.975987 263.377593 
L 186.381755 263.377593 
L 186.423923 263.033402 
L 186.564823 263.033402 
L 186.564823 262.918672 
L 186.986049 262.918672 
L 187.057531 262.689211 
L 187.30672 262.689211 
L 187.30672 262.574481 
L 187.585771 262.574481 
L 187.647795 262.34502 
L 187.769188 262.34502 
L 187.769188 262.23029 
L 188.056242 262.23029 
L 188.084739 262.000829 
L 188.604169 262.000829 
L 188.604169 261.886099 
L 188.726677 261.886099 
L 188.726677 261.771369 
L 189.454626 261.771369 
L 189.494517 261.427178 
L 189.873432 261.427178 
L 189.873432 261.312447 
L 190.431094 261.312447 
L 190.431094 261.197717 
L 190.690064 261.197717 
L 190.725964 260.968256 
L 190.972722 260.968256 
L 191.012612 260.738796 
L 191.137095 260.738796 
L 191.137095 260.624065 
L 191.428873 260.624065 
L 191.428873 260.509335 
L 191.971488 260.509335 
L 192.033055 260.279874 
L 192.136872 260.279874 
L 192.136872 260.165144 
L 192.684636 260.165144 
L 192.684636 260.050414 
L 192.823607 260.050414 
L 192.829218 259.706222 
L 193.34037 259.706222 
L 193.371938 259.362031 
L 193.500522 259.362031 
L 193.500522 259.247301 
L 196.951097 259.247301 
L 196.951097 259.132571 
L 197.69557 259.132571 
L 197.766721 258.90311 
L 198.538889 258.90311 
L 198.646919 258.444189 
L 199.611259 258.444189 
L 199.611259 257.870537 
L 200.370908 257.870537 
L 200.370908 257.755807 
L 200.769893 257.755807 
L 200.769893 257.641076 
L 200.987461 257.641076 
L 200.987461 257.526346 
L 201.441344 257.526346 
L 201.467115 257.182155 
L 201.737799 257.182155 
L 201.737799 257.067425 
L 201.851417 257.067425 
L 201.851417 256.952694 
L 201.996166 256.952694 
L 202.054216 256.379043 
L 202.289937 256.379043 
L 202.289937 256.264312 
L 202.517151 256.264312 
L 202.517151 256.149582 
L 202.719398 256.149582 
L 202.719398 255.920121 
L 202.958703 255.920121 
L 202.987342 255.69066 
L 203.435215 255.69066 
L 203.435215 255.57593 
L 203.624327 255.57593 
L 203.659333 255.231739 
L 203.988819 255.231739 
L 204.006166 254.772818 
L 204.109492 254.772818 
L 204.172054 254.543357 
L 204.552715 254.543357 
L 204.552715 254.428627 
L 204.874332 254.428627 
L 204.874332 254.313896 
L 205.113006 254.313896 
L 205.113006 254.199166 
L 205.536071 254.199166 
L 205.536071 254.084436 
L 205.784608 254.084436 
L 205.831515 253.625514 
L 206.123434 253.625514 
L 206.123434 253.510784 
L 207.646839 253.510784 
L 207.646839 253.396054 
L 208.559089 253.396054 
L 208.585626 253.166593 
L 208.979044 253.166593 
L 208.979044 253.051863 
L 209.296998 253.051863 
L 209.296998 252.937132 
L 209.655349 252.937132 
L 209.655349 252.707672 
L 210.149471 252.707672 
L 210.149471 252.592941 
L 210.58045 252.592941 
L 210.58045 252.24875 
L 211.004333 252.24875 
L 211.060431 252.019289 
L 211.134163 252.019289 
L 211.153528 251.789829 
L 211.594752 251.789829 
L 211.605459 251.330907 
L 211.86864 251.330907 
L 211.86864 251.216177 
L 212.25114 251.216177 
L 212.351665 250.986716 
L 212.530946 250.986716 
L 212.530946 250.757256 
L 212.762744 250.757256 
L 212.829514 250.183604 
L 212.983026 250.183604 
L 213.003855 249.954143 
L 213.197885 249.954143 
L 213.197885 249.609952 
L 214.227932 249.609952 
L 214.227932 249.495222 
L 214.920812 249.495222 
L 214.920812 249.265761 
L 215.629654 249.265761 
L 215.629654 249.151031 
L 215.758673 249.151031 
L 215.824326 248.80684 
L 215.981886 248.80684 
L 216.032872 248.577379 
L 216.23651 248.577379 
L 216.283153 248.347918 
L 216.507011 248.347918 
L 216.507011 248.233188 
L 216.630485 248.233188 
L 216.706359 248.003727 
L 216.851466 248.003727 
L 216.851466 247.888997 
L 217.012112 247.888997 
L 217.012112 247.659536 
L 217.182216 247.659536 
L 217.292375 247.085885 
L 217.38584 247.085885 
L 217.449119 246.856424 
L 217.585848 246.856424 
L 217.585848 246.741694 
L 217.891268 246.741694 
L 217.891268 246.626963 
L 218.055689 246.626963 
L 218.055689 246.512233 
L 219.788232 246.512233 
L 219.788232 246.397503 
L 220.586424 246.397503 
L 220.586424 246.282772 
L 220.763084 246.282772 
L 220.852022 246.053312 
L 220.911611 246.053312 
L 220.911611 245.938581 
L 221.171307 245.938581 
L 221.171307 245.709121 
L 221.447714 245.709121 
L 221.447714 245.59439 
L 221.568969 245.59439 
L 221.568969 245.47966 
L 221.849323 245.47966 
L 221.849323 245.135469 
L 223.731634 245.135469 
L 223.731634 245.020738 
L 224.131787 245.020738 
L 224.22721 244.676547 
L 224.73996 244.676547 
L 224.73996 244.561817 
L 224.959089 244.561817 
L 224.959089 244.447087 
L 225.073134 244.447087 
L 225.182227 243.873435 
L 226.547302 243.873435 
L 226.547302 243.758705 
L 226.899775 243.758705 
L 226.904281 243.529244 
L 227.027441 243.529244 
L 227.071749 243.299783 
L 227.39462 243.299783 
L 227.456039 242.955592 
L 227.812333 242.955592 
L 227.886334 242.726132 
L 228.893316 242.726132 
L 228.893316 242.611401 
L 229.061787 242.611401 
L 229.061787 242.496671 
L 229.516725 242.496671 
L 229.516725 242.381941 
L 229.715387 242.381941 
L 229.801648 241.923019 
L 229.839581 241.923019 
L 229.839581 241.693559 
L 230.060069 241.693559 
L 230.13976 241.464098 
L 230.30713 241.464098 
L 230.30713 241.349368 
L 232.084005 241.349368 
L 232.161688 241.119907 
L 232.711529 241.119907 
L 232.711529 241.005176 
L 233.826088 241.005176 
L 233.826088 240.890446 
L 233.956458 240.890446 
L 233.956458 240.775716 
L 234.141141 240.775716 
L 234.199108 240.431525 
L 235.262551 240.431525 
L 235.262551 240.316794 
L 235.43875 240.316794 
L 235.43875 240.202064 
L 235.743868 240.202064 
L 235.803117 239.972603 
L 236.44936 239.972603 
L 236.44936 239.857873 
L 237.177039 239.857873 
L 237.177039 239.743143 
L 237.330717 239.743143 
L 237.330717 239.628412 
L 238.1319 239.628412 
L 238.1319 239.513682 
L 239.620294 239.513682 
L 239.652805 239.284221 
L 241.023032 239.284221 
L 241.023032 239.169491 
L 241.481682 239.169491 
L 241.481682 239.054761 
L 242.106922 239.054761 
L 242.106922 238.94003 
L 242.356333 238.94003 
L 242.396405 238.71057 
L 243.181411 238.71057 
L 243.181411 238.595839 
L 243.375174 238.595839 
L 243.375174 238.481109 
L 244.414985 238.481109 
L 244.414985 238.366379 
L 245.150102 238.366379 
L 245.221961 238.136918 
L 246.254555 238.136918 
L 246.256076 237.907457 
L 248.524742 237.907457 
L 248.524742 237.792727 
L 252.87763 237.792727 
L 252.87763 237.677997 
L 253.931341 237.677997 
L 253.931341 237.563266 
L 255.542324 237.563266 
L 255.542324 237.448536 
L 259.303118 237.448536 
L 259.303118 237.219075 
L 259.711729 237.219075 
L 259.711729 237.104345 
L 267.562937 237.104345 
L 267.562937 236.989614 
L 338.688 236.989614 
L 338.688 236.989614 
" style="fill:none;stroke:#ff7500;stroke-linecap:square;stroke-width:1.5;"/>
   </g>
   <g id="line2d_46">
    <defs>
     <path d="M 0 -6 
L -1.347084 -1.854102 
L -5.706339 -1.854102 
L -2.179628 0.708204 
L -3.526712 4.854102 
L -0 2.291796 
L 3.526712 4.854102 
L 2.179628 0.708204 
L 5.706339 -1.854102 
L 1.347084 -1.854102 
z
" id="mb4769d29a7" style="stroke:#ff7500;stroke-linejoin:bevel;stroke-width:1.5;"/>
    </defs>
    <g>
     <use style="fill-opacity:0;stroke:#ff7500;stroke-linejoin:bevel;stroke-width:1.5;" x="67.359297" xlink:href="#mb4769d29a7" y="289.421381"/>
     <use style="fill-opacity:0;stroke:#ff7500;stroke-linejoin:bevel;stroke-width:1.5;" x="137.007158" xlink:href="#mb4769d29a7" y="286.667853"/>
     <use style="fill-opacity:0;stroke:#ff7500;stroke-linejoin:bevel;stroke-width:1.5;" x="202.719398" xlink:href="#mb4769d29a7" y="256.149582"/>
     <use style="fill-opacity:0;stroke:#ff7500;stroke-linejoin:bevel;stroke-width:1.5;" x="267.562937" xlink:href="#mb4769d29a7" y="237.104345"/>
     <use style="fill-opacity:0;stroke:#ff7500;stroke-linejoin:bevel;stroke-width:1.5;" x="267.562937" xlink:href="#mb4769d29a7" y="236.989614"/>
     <use style="fill-opacity:0;stroke:#ff7500;stroke-linejoin:bevel;stroke-width:1.5;" x="338.688" xlink:href="#mb4769d29a7" y="236.989614"/>
    </g>
   </g>
   <g id="line2d_47">
    <path style="fill:none;stroke:#ff7500;stroke-linecap:square;stroke-width:1.5;"/>
    <g/>
   </g>
   <g id="line2d_48">
    <path clip-path="url(#p44460509ba)" d="M 194.045737 259.247301 
" style="fill:none;stroke:#ff7500;stroke-linecap:square;stroke-width:1.5;"/>
    <defs>
     <path d="M -12 12 
L 12 -12 
M -12 -12 
L 12 12 
" id="mab37609d03" style="stroke:#ff7500;"/>
    </defs>
    <g clip-path="url(#p44460509ba)">
     <use style="fill:#ff7500;stroke:#ff7500;" x="194.045737" xlink:href="#mab37609d03" y="259.247301"/>
    </g>
   </g>
   <g id="line2d_49">
    <path d="M 338.688 245.020738 
L 369.60768 293.092752 
" style="fill:none;stroke:#ff00ff;stroke-linecap:square;stroke-width:1.5;"/>
    <g>
     <use style="fill-opacity:0;stroke:#ff00ff;stroke-linejoin:miter;stroke-width:1.5;" x="338.688" xlink:href="#m16a0fa352a" y="245.020738"/>
     <use style="fill-opacity:0;stroke:#ff00ff;stroke-linejoin:miter;stroke-width:1.5;" x="369.60768" xlink:href="#m16a0fa352a" y="293.092752"/>
    </g>
   </g>
   <g id="line2d_50">
    <path d="M 338.688 236.989614 
L 369.60768 199.472792 
" style="fill:none;stroke:#ff7500;stroke-linecap:square;stroke-width:1.5;"/>
    <g>
     <use style="fill-opacity:0;stroke:#ff7500;stroke-linejoin:bevel;stroke-width:1.5;" x="338.688" xlink:href="#mb4769d29a7" y="236.989614"/>
     <use style="fill-opacity:0;stroke:#ff7500;stroke-linejoin:bevel;stroke-width:1.5;" x="369.60768" xlink:href="#mb4769d29a7" y="199.472792"/>
    </g>
   </g>
   <g id="line2d_51">
    <path d="M 338.688 234.695008 
L 369.60768 105.852832 
" style="fill:none;stroke:#000080;stroke-linecap:square;stroke-width:1.5;"/>
    <g>
     <use style="fill-opacity:0;stroke:#000080;stroke-width:1.5;" x="338.688" xlink:href="#mc16711f113" y="234.695008"/>
     <use style="fill-opacity:0;stroke:#000080;stroke-width:1.5;" x="369.60768" xlink:href="#mc16711f113" y="105.852832"/>
    </g>
   </g>
   <g id="line2d_52">
    <path d="M 338.688 298.944 
L 338.688 6.381624 
" style="fill:none;stroke:#000000;stroke-linecap:square;stroke-width:1.5;"/>
   </g>
   <g id="patch_3">
    <path d="M 57.6 298.944 
L 57.6 3.456 
" style="fill:none;stroke:#000000;stroke-linecap:square;stroke-linejoin:miter;stroke-width:0.8;"/>
   </g>
   <g id="patch_4">
    <path d="M 338.688 298.944 
L 338.688 3.456 
" style="fill:none;stroke:#000000;stroke-linecap:square;stroke-linejoin:miter;stroke-width:0.8;"/>
   </g>
   <g id="patch_5">
    <path d="M 57.6 298.944 
L 338.688 298.944 
" style="fill:none;stroke:#000000;stroke-linecap:square;stroke-linejoin:miter;stroke-width:0.8;"/>
   </g>
   <g id="patch_6">
    <path d="M 57.6 3.456 
L 338.688 3.456 
" style="fill:none;stroke:#000000;stroke-linecap:square;stroke-linejoin:miter;stroke-width:0.8;"/>
   </g>
   <g id="text_13">
    <!-- PSO Bound -->
    <g transform="translate(375.22944 297.78369)scale(0.17 -0.17)">
     <defs>
      <path d="M 1259 4147 
L 1259 2394 
L 2053 2394 
Q 2494 2394 2734 2622 
Q 2975 2850 2975 3272 
Q 2975 3691 2734 3919 
Q 2494 4147 2053 4147 
L 1259 4147 
z
M 628 4666 
L 2053 4666 
Q 2838 4666 3239 4311 
Q 3641 3956 3641 3272 
Q 3641 2581 3239 2228 
Q 2838 1875 2053 1875 
L 1259 1875 
L 1259 0 
L 628 0 
L 628 4666 
z
" id="DejaVuSans-50" transform="scale(0.015625)"/>
      <path d="M 3425 4513 
L 3425 3897 
Q 3066 4069 2747 4153 
Q 2428 4238 2131 4238 
Q 1616 4238 1336 4038 
Q 1056 3838 1056 3469 
Q 1056 3159 1242 3001 
Q 1428 2844 1947 2747 
L 2328 2669 
Q 3034 2534 3370 2195 
Q 3706 1856 3706 1288 
Q 3706 609 3251 259 
Q 2797 -91 1919 -91 
Q 1588 -91 1214 -16 
Q 841 59 441 206 
L 441 856 
Q 825 641 1194 531 
Q 1563 422 1919 422 
Q 2459 422 2753 634 
Q 3047 847 3047 1241 
Q 3047 1584 2836 1778 
Q 2625 1972 2144 2069 
L 1759 2144 
Q 1053 2284 737 2584 
Q 422 2884 422 3419 
Q 422 4038 858 4394 
Q 1294 4750 2059 4750 
Q 2388 4750 2728 4690 
Q 3069 4631 3425 4513 
z
" id="DejaVuSans-53" transform="scale(0.015625)"/>
      <path d="M 2522 4238 
Q 1834 4238 1429 3725 
Q 1025 3213 1025 2328 
Q 1025 1447 1429 934 
Q 1834 422 2522 422 
Q 3209 422 3611 934 
Q 4013 1447 4013 2328 
Q 4013 3213 3611 3725 
Q 3209 4238 2522 4238 
z
M 2522 4750 
Q 3503 4750 4090 4092 
Q 4678 3434 4678 2328 
Q 4678 1225 4090 567 
Q 3503 -91 2522 -91 
Q 1538 -91 948 565 
Q 359 1222 359 2328 
Q 359 3434 948 4092 
Q 1538 4750 2522 4750 
z
" id="DejaVuSans-4f" transform="scale(0.015625)"/>
      <path d="M 1259 2228 
L 1259 519 
L 2272 519 
Q 2781 519 3026 730 
Q 3272 941 3272 1375 
Q 3272 1813 3026 2020 
Q 2781 2228 2272 2228 
L 1259 2228 
z
M 1259 4147 
L 1259 2741 
L 2194 2741 
Q 2656 2741 2882 2914 
Q 3109 3088 3109 3444 
Q 3109 3797 2882 3972 
Q 2656 4147 2194 4147 
L 1259 4147 
z
M 628 4666 
L 2241 4666 
Q 2963 4666 3353 4366 
Q 3744 4066 3744 3513 
Q 3744 3084 3544 2831 
Q 3344 2578 2956 2516 
Q 3422 2416 3680 2098 
Q 3938 1781 3938 1306 
Q 3938 681 3513 340 
Q 3088 0 2303 0 
L 628 0 
L 628 4666 
z
" id="DejaVuSans-42" transform="scale(0.015625)"/>
     </defs>
     <use xlink:href="#DejaVuSans-50"/>
     <use x="60.302734" xlink:href="#DejaVuSans-53"/>
     <use x="123.779297" xlink:href="#DejaVuSans-4f"/>
     <use x="202.490234" xlink:href="#DejaVuSans-20"/>
     <use x="234.277344" xlink:href="#DejaVuSans-42"/>
     <use x="302.880859" xlink:href="#DejaVuSans-6f"/>
     <use x="364.0625" xlink:href="#DejaVuSans-75"/>
     <use x="427.441406" xlink:href="#DejaVuSans-6e"/>
     <use x="490.820312" xlink:href="#DejaVuSans-64"/>
    </g>
   </g>
   <g id="text_14">
    <!-- PSO EDA -->
    <g transform="translate(375.22944 204.16373)scale(0.17 -0.17)">
     <defs>
      <path d="M 628 4666 
L 3578 4666 
L 3578 4134 
L 1259 4134 
L 1259 2753 
L 3481 2753 
L 3481 2222 
L 1259 2222 
L 1259 531 
L 3634 531 
L 3634 0 
L 628 0 
L 628 4666 
z
" id="DejaVuSans-45" transform="scale(0.015625)"/>
      <path d="M 1259 4147 
L 1259 519 
L 2022 519 
Q 2988 519 3436 956 
Q 3884 1394 3884 2338 
Q 3884 3275 3436 3711 
Q 2988 4147 2022 4147 
L 1259 4147 
z
M 628 4666 
L 1925 4666 
Q 3281 4666 3915 4102 
Q 4550 3538 4550 2338 
Q 4550 1131 3912 565 
Q 3275 0 1925 0 
L 628 0 
L 628 4666 
z
" id="DejaVuSans-44" transform="scale(0.015625)"/>
      <path d="M 2188 4044 
L 1331 1722 
L 3047 1722 
L 2188 4044 
z
M 1831 4666 
L 2547 4666 
L 4325 0 
L 3669 0 
L 3244 1197 
L 1141 1197 
L 716 0 
L 50 0 
L 1831 4666 
z
" id="DejaVuSans-41" transform="scale(0.015625)"/>
     </defs>
     <use xlink:href="#DejaVuSans-50"/>
     <use x="60.302734" xlink:href="#DejaVuSans-53"/>
     <use x="123.779297" xlink:href="#DejaVuSans-4f"/>
     <use x="202.490234" xlink:href="#DejaVuSans-20"/>
     <use x="234.277344" xlink:href="#DejaVuSans-45"/>
     <use x="297.460938" xlink:href="#DejaVuSans-44"/>
     <use x="372.712891" xlink:href="#DejaVuSans-41"/>
    </g>
   </g>
   <g id="text_15">
    <!-- PSO -->
    <g transform="translate(375.22944 110.543769)scale(0.17 -0.17)">
     <use xlink:href="#DejaVuSans-50"/>
     <use x="60.302734" xlink:href="#DejaVuSans-53"/>
     <use x="123.779297" xlink:href="#DejaVuSans-4f"/>
    </g>
   </g>
   <g id="text_16">
    <!-- best 2009 -->
    <g transform="translate(375.22944 16.923809)scale(0.17 -0.17)">
     <defs>
      <path d="M 3116 1747 
Q 3116 2381 2855 2742 
Q 2594 3103 2138 3103 
Q 1681 3103 1420 2742 
Q 1159 2381 1159 1747 
Q 1159 1113 1420 752 
Q 1681 391 2138 391 
Q 2594 391 2855 752 
Q 3116 1113 3116 1747 
z
M 1159 2969 
Q 1341 3281 1617 3432 
Q 1894 3584 2278 3584 
Q 2916 3584 3314 3078 
Q 3713 2572 3713 1747 
Q 3713 922 3314 415 
Q 2916 -91 2278 -91 
Q 1894 -91 1617 61 
Q 1341 213 1159 525 
L 1159 0 
L 581 0 
L 581 4863 
L 1159 4863 
L 1159 2969 
z
" id="DejaVuSans-62" transform="scale(0.015625)"/>
      <path d="M 703 97 
L 703 672 
Q 941 559 1184 500 
Q 1428 441 1663 441 
Q 2288 441 2617 861 
Q 2947 1281 2994 2138 
Q 2813 1869 2534 1725 
Q 2256 1581 1919 1581 
Q 1219 1581 811 2004 
Q 403 2428 403 3163 
Q 403 3881 828 4315 
Q 1253 4750 1959 4750 
Q 2769 4750 3195 4129 
Q 3622 3509 3622 2328 
Q 3622 1225 3098 567 
Q 2575 -91 1691 -91 
Q 1453 -91 1209 -44 
Q 966 3 703 97 
z
M 1959 2075 
Q 2384 2075 2632 2365 
Q 2881 2656 2881 3163 
Q 2881 3666 2632 3958 
Q 2384 4250 1959 4250 
Q 1534 4250 1286 3958 
Q 1038 3666 1038 3163 
Q 1038 2656 1286 2365 
Q 1534 2075 1959 2075 
z
" id="DejaVuSans-39" transform="scale(0.015625)"/>
     </defs>
     <use xlink:href="#DejaVuSans-62"/>
     <use x="63.476562" xlink:href="#DejaVuSans-65"/>
     <use x="125" xlink:href="#DejaVuSans-73"/>
     <use x="177.099609" xlink:href="#DejaVuSans-74"/>
     <use x="216.308594" xlink:href="#DejaVuSans-20"/>
     <use x="248.095703" xlink:href="#DejaVuSans-32"/>
     <use x="311.71875" xlink:href="#DejaVuSans-30"/>
     <use x="375.341797" xlink:href="#DejaVuSans-30"/>
     <use x="438.964844" xlink:href="#DejaVuSans-39"/>
    </g>
   </g>
   <g id="text_17">
    <!-- bbob f20-f24, 20-D -->
    <g transform="translate(60.41088 14.161286)scale(0.102 -0.102)">
     <use xlink:href="#DejaVuSans-62"/>
     <use x="63.476562" xlink:href="#DejaVuSans-62"/>
     <use x="126.953125" xlink:href="#DejaVuSans-6f"/>
     <use x="188.134766" xlink:href="#DejaVuSans-62"/>
     <use x="251.611328" xlink:href="#DejaVuSans-20"/>
     <use x="283.398438" xlink:href="#DejaVuSans-66"/>
     <use x="318.603516" xlink:href="#DejaVuSans-32"/>
     <use x="382.226562" xlink:href="#DejaVuSans-30"/>
     <use x="445.849609" xlink:href="#DejaVuSans-2d"/>
     <use x="481.933594" xlink:href="#DejaVuSans-66"/>
     <use x="517.138672" xlink:href="#DejaVuSans-32"/>
     <use x="580.761719" xlink:href="#DejaVuSans-34"/>
     <use x="644.384766" xlink:href="#DejaVuSans-2c"/>
     <use x="676.171875" xlink:href="#DejaVuSans-20"/>
     <use x="707.958984" xlink:href="#DejaVuSans-32"/>
     <use x="771.582031" xlink:href="#DejaVuSans-30"/>
     <use x="835.205078" xlink:href="#DejaVuSans-2d"/>
     <use x="871.289062" xlink:href="#DejaVuSans-44"/>
    </g>
    <!-- 51 targets: 100..1e-08 -->
    <g transform="translate(60.41088 25.583055)scale(0.102 -0.102)">
     <defs>
      <path d="M 691 4666 
L 3169 4666 
L 3169 4134 
L 1269 4134 
L 1269 2991 
Q 1406 3038 1543 3061 
Q 1681 3084 1819 3084 
Q 2600 3084 3056 2656 
Q 3513 2228 3513 1497 
Q 3513 744 3044 326 
Q 2575 -91 1722 -91 
Q 1428 -91 1123 -41 
Q 819 9 494 109 
L 494 744 
Q 775 591 1075 516 
Q 1375 441 1709 441 
Q 2250 441 2565 725 
Q 2881 1009 2881 1497 
Q 2881 1984 2565 2268 
Q 2250 2553 1709 2553 
Q 1456 2553 1204 2497 
Q 953 2441 691 2322 
L 691 4666 
z
" id="DejaVuSans-35" transform="scale(0.015625)"/>
      <path d="M 750 794 
L 1409 794 
L 1409 0 
L 750 0 
L 750 794 
z
M 750 3309 
L 1409 3309 
L 1409 2516 
L 750 2516 
L 750 3309 
z
" id="DejaVuSans-3a" transform="scale(0.015625)"/>
     </defs>
     <use xlink:href="#DejaVuSans-35"/>
     <use x="63.623047" xlink:href="#DejaVuSans-31"/>
     <use x="127.246094" xlink:href="#DejaVuSans-20"/>
     <use x="159.033203" xlink:href="#DejaVuSans-74"/>
     <use x="198.242188" xlink:href="#DejaVuSans-61"/>
     <use x="259.521484" xlink:href="#DejaVuSans-72"/>
     <use x="298.884766" xlink:href="#DejaVuSans-67"/>
     <use x="362.361328" xlink:href="#DejaVuSans-65"/>
     <use x="423.884766" xlink:href="#DejaVuSans-74"/>
     <use x="463.09375" xlink:href="#DejaVuSans-73"/>
     <use x="515.193359" xlink:href="#DejaVuSans-3a"/>
     <use x="548.884766" xlink:href="#DejaVuSans-20"/>
     <use x="580.671875" xlink:href="#DejaVuSans-31"/>
     <use x="644.294922" xlink:href="#DejaVuSans-30"/>
     <use x="707.917969" xlink:href="#DejaVuSans-30"/>
     <use x="771.541016" xlink:href="#DejaVuSans-2e"/>
     <use x="803.328125" xlink:href="#DejaVuSans-2e"/>
     <use x="835.115234" xlink:href="#DejaVuSans-31"/>
     <use x="898.738281" xlink:href="#DejaVuSans-65"/>
     <use x="960.261719" xlink:href="#DejaVuSans-2d"/>
     <use x="996.345703" xlink:href="#DejaVuSans-30"/>
     <use x="1059.96875" xlink:href="#DejaVuSans-38"/>
    </g>
    <!-- 15 instances -->
    <g transform="translate(60.41088 37.004824)scale(0.102 -0.102)">
     <use xlink:href="#DejaVuSans-31"/>
     <use x="63.623047" xlink:href="#DejaVuSans-35"/>
     <use x="127.246094" xlink:href="#DejaVuSans-20"/>
     <use x="159.033203" xlink:href="#DejaVuSans-69"/>
     <use x="186.816406" xlink:href="#DejaVuSans-6e"/>
     <use x="250.195312" xlink:href="#DejaVuSans-73"/>
     <use x="302.294922" xlink:href="#DejaVuSans-74"/>
     <use x="341.503906" xlink:href="#DejaVuSans-61"/>
     <use x="402.783203" xlink:href="#DejaVuSans-6e"/>
     <use x="466.162109" xlink:href="#DejaVuSans-63"/>
     <use x="521.142578" xlink:href="#DejaVuSans-65"/>
     <use x="582.666016" xlink:href="#DejaVuSans-73"/>
    </g>
   </g>
   <g id="text_18">
    <!-- v2.4 -->
    <g style="fill:#808080;" transform="translate(187.233062 293.909432)scale(0.1 -0.1)">
     <use xlink:href="#DejaVuSans-76"/>
     <use x="59.179688" xlink:href="#DejaVuSans-32"/>
     <use x="122.802734" xlink:href="#DejaVuSans-2e"/>
     <use x="154.589844" xlink:href="#DejaVuSans-34"/>
    </g>
   </g>
  </g>
 </g>
 <defs>
  <clipPath id="p44460509ba">
   <rect height="295.488" width="281.088" x="57.6" y="3.456"/>
  </clipPath>
 </defs>
</svg>
