<?xml version="1.0" encoding="utf-8" standalone="no"?>
<!DOCTYPE svg PUBLIC "-//W3C//DTD SVG 1.1//EN"
  "http://www.w3.org/Graphics/SVG/1.1/DTD/svg11.dtd">
<svg height="345.6pt" version="1.1" viewBox="0 0 460.8 345.6" width="460.8pt" xmlns="http://www.w3.org/2000/svg" xmlns:xlink="http://www.w3.org/1999/xlink">
 <metadata>
  <rdf:RDF xmlns:cc="http://creativecommons.org/ns#" xmlns:dc="http://purl.org/dc/elements/1.1/" xmlns:rdf="http://www.w3.org/1999/02/22-rdf-syntax-ns#">
   <cc:Work>
    <dc:type rdf:resource="http://purl.org/dc/dcmitype/StillImage"/>
    <dc:date>2021-04-26T19:19:14.862573</dc:date>
    <dc:format>image/svg+xml</dc:format>
    <dc:creator>
     <cc:Agent>
      <dc:title>Matplotlib v3.4.1, https://matplotlib.org/</dc:title>
     </cc:Agent>
    </dc:creator>
   </cc:Work>
  </rdf:RDF>
 </metadata>
 <defs>
  <style type="text/css">*{stroke-linecap:butt;stroke-linejoin:round;}</style>
 </defs>
 <g id="figure_1">
  <g id="patch_1">
   <path d="M 0 345.6 
L 460.8 345.6 
L 460.8 0 
L 0 0 
z
" style="fill:#ffffff;"/>
  </g>
  <g id="axes_1">
   <g id="patch_2">
    <path d="M 57.6 298.944 
L 338.688 298.944 
L 338.688 27.648 
L 57.6 27.648 
z
" style="fill:#ffffff;"/>
   </g>
   <g id="line2d_1">
    <path d="M 68.328395 298.944 
L 68.328395 293.677139 
L 69.246464 293.677139 
L 69.246464 288.410278 
L 70.11861 288.410278 
L 70.11861 30.334099 
L 338.688 30.334099 
" style="fill:none;stroke:#f5deb3;stroke-linecap:square;stroke-width:4;"/>
   </g>
   <g id="line2d_2">
    <defs>
     <path d="M 0 7.778175 
L 7.778175 0 
L 0 -7.778175 
L -7.778175 0 
z
" id="mabd148f320" style="stroke:#f5deb3;stroke-linejoin:miter;stroke-width:1.5;"/>
    </defs>
    <g>
     <use style="fill:#f5deb3;stroke:#f5deb3;stroke-linejoin:miter;stroke-width:1.5;" x="70.11861" xlink:href="#mabd148f320" y="288.410278"/>
     <use style="fill:#f5deb3;stroke:#f5deb3;stroke-linejoin:miter;stroke-width:1.5;" x="70.11861" xlink:href="#mabd148f320" y="288.410278"/>
     <use style="fill:#f5deb3;stroke:#f5deb3;stroke-linejoin:miter;stroke-width:1.5;" x="70.11861" xlink:href="#mabd148f320" y="30.334099"/>
     <use style="fill:#f5deb3;stroke:#f5deb3;stroke-linejoin:miter;stroke-width:1.5;" x="70.11861" xlink:href="#mabd148f320" y="30.334099"/>
     <use style="fill:#f5deb3;stroke:#f5deb3;stroke-linejoin:miter;stroke-width:1.5;" x="338.688" xlink:href="#mabd148f320" y="30.334099"/>
    </g>
   </g>
   <g id="line2d_3">
    <path style="fill:none;stroke:#f5deb3;stroke-linecap:square;stroke-width:4;"/>
    <g/>
   </g>
   <g id="line2d_4">
    <path d="M 338.688 30.334099 
L 369.60768 35.706297 
" style="fill:none;stroke:#f5deb3;stroke-linecap:square;stroke-width:4;"/>
    <g>
     <use style="fill:#f5deb3;stroke:#f5deb3;stroke-linejoin:miter;stroke-width:1.5;" x="338.688" xlink:href="#mabd148f320" y="30.334099"/>
     <use style="fill:#f5deb3;stroke:#f5deb3;stroke-linejoin:miter;stroke-width:1.5;" x="369.60768" xlink:href="#mabd148f320" y="35.706297"/>
    </g>
   </g>
   <g id="matplotlib.axis_1">
    <g id="xtick_1">
     <g id="line2d_5">
      <path clip-path="url(#pcd28cbde43)" d="M 57.6 298.944 
L 57.6 27.648 
" style="fill:none;stroke:#b0b0b0;stroke-linecap:square;stroke-width:0.8;"/>
     </g>
     <g id="line2d_6">
      <defs>
       <path d="M 0 0 
L 0 3.5 
" id="m5b0484cdee" style="stroke:#000000;stroke-width:0.8;"/>
      </defs>
      <g>
       <use style="stroke:#000000;stroke-width:0.8;" x="57.6" xlink:href="#m5b0484cdee" y="298.944"/>
      </g>
     </g>
     <g id="text_1">
      <!-- 0 -->
      <g transform="translate(51.2375 321.140875)scale(0.2 -0.2)">
       <defs>
        <path d="M 2034 4250 
Q 1547 4250 1301 3770 
Q 1056 3291 1056 2328 
Q 1056 1369 1301 889 
Q 1547 409 2034 409 
Q 2525 409 2770 889 
Q 3016 1369 3016 2328 
Q 3016 3291 2770 3770 
Q 2525 4250 2034 4250 
z
M 2034 4750 
Q 2819 4750 3233 4129 
Q 3647 3509 3647 2328 
Q 3647 1150 3233 529 
Q 2819 -91 2034 -91 
Q 1250 -91 836 529 
Q 422 1150 422 2328 
Q 422 3509 836 4129 
Q 1250 4750 2034 4750 
z
" id="DejaVuSans-30" transform="scale(0.015625)"/>
       </defs>
       <use xlink:href="#DejaVuSans-30"/>
      </g>
     </g>
    </g>
    <g id="xtick_2">
     <g id="line2d_7">
      <path clip-path="url(#pcd28cbde43)" d="M 137.910857 298.944 
L 137.910857 27.648 
" style="fill:none;stroke:#b0b0b0;stroke-linecap:square;stroke-width:0.8;"/>
     </g>
     <g id="line2d_8">
      <g>
       <use style="stroke:#000000;stroke-width:0.8;" x="137.910857" xlink:href="#m5b0484cdee" y="298.944"/>
      </g>
     </g>
     <g id="text_2">
      <!-- 2 -->
      <g transform="translate(131.548357 321.140875)scale(0.2 -0.2)">
       <defs>
        <path d="M 1228 531 
L 3431 531 
L 3431 0 
L 469 0 
L 469 531 
Q 828 903 1448 1529 
Q 2069 2156 2228 2338 
Q 2531 2678 2651 2914 
Q 2772 3150 2772 3378 
Q 2772 3750 2511 3984 
Q 2250 4219 1831 4219 
Q 1534 4219 1204 4116 
Q 875 4013 500 3803 
L 500 4441 
Q 881 4594 1212 4672 
Q 1544 4750 1819 4750 
Q 2544 4750 2975 4387 
Q 3406 4025 3406 3419 
Q 3406 3131 3298 2873 
Q 3191 2616 2906 2266 
Q 2828 2175 2409 1742 
Q 1991 1309 1228 531 
z
" id="DejaVuSans-32" transform="scale(0.015625)"/>
       </defs>
       <use xlink:href="#DejaVuSans-32"/>
      </g>
     </g>
    </g>
    <g id="xtick_3">
     <g id="line2d_9">
      <path clip-path="url(#pcd28cbde43)" d="M 218.221714 298.944 
L 218.221714 27.648 
" style="fill:none;stroke:#b0b0b0;stroke-linecap:square;stroke-width:0.8;"/>
     </g>
     <g id="line2d_10">
      <g>
       <use style="stroke:#000000;stroke-width:0.8;" x="218.221714" xlink:href="#m5b0484cdee" y="298.944"/>
      </g>
     </g>
     <g id="text_3">
      <!-- 4 -->
      <g transform="translate(211.859214 321.140875)scale(0.2 -0.2)">
       <defs>
        <path d="M 2419 4116 
L 825 1625 
L 2419 1625 
L 2419 4116 
z
M 2253 4666 
L 3047 4666 
L 3047 1625 
L 3713 1625 
L 3713 1100 
L 3047 1100 
L 3047 0 
L 2419 0 
L 2419 1100 
L 313 1100 
L 313 1709 
L 2253 4666 
z
" id="DejaVuSans-34" transform="scale(0.015625)"/>
       </defs>
       <use xlink:href="#DejaVuSans-34"/>
      </g>
     </g>
    </g>
    <g id="xtick_4">
     <g id="line2d_11">
      <path clip-path="url(#pcd28cbde43)" d="M 298.532571 298.944 
L 298.532571 27.648 
" style="fill:none;stroke:#b0b0b0;stroke-linecap:square;stroke-width:0.8;"/>
     </g>
     <g id="line2d_12">
      <g>
       <use style="stroke:#000000;stroke-width:0.8;" x="298.532571" xlink:href="#m5b0484cdee" y="298.944"/>
      </g>
     </g>
     <g id="text_4">
      <!-- 6 -->
      <g transform="translate(292.170071 321.140875)scale(0.2 -0.2)">
       <defs>
        <path d="M 2113 2584 
Q 1688 2584 1439 2293 
Q 1191 2003 1191 1497 
Q 1191 994 1439 701 
Q 1688 409 2113 409 
Q 2538 409 2786 701 
Q 3034 994 3034 1497 
Q 3034 2003 2786 2293 
Q 2538 2584 2113 2584 
z
M 3366 4563 
L 3366 3988 
Q 3128 4100 2886 4159 
Q 2644 4219 2406 4219 
Q 1781 4219 1451 3797 
Q 1122 3375 1075 2522 
Q 1259 2794 1537 2939 
Q 1816 3084 2150 3084 
Q 2853 3084 3261 2657 
Q 3669 2231 3669 1497 
Q 3669 778 3244 343 
Q 2819 -91 2113 -91 
Q 1303 -91 875 529 
Q 447 1150 447 2328 
Q 447 3434 972 4092 
Q 1497 4750 2381 4750 
Q 2619 4750 2861 4703 
Q 3103 4656 3366 4563 
z
" id="DejaVuSans-36" transform="scale(0.015625)"/>
       </defs>
       <use xlink:href="#DejaVuSans-36"/>
      </g>
     </g>
    </g>
    <g id="xtick_5">
     <g id="line2d_13">
      <path clip-path="url(#pcd28cbde43)" d="M 97.755429 298.944 
L 97.755429 27.648 
" style="fill:none;stroke:#b0b0b0;stroke-linecap:square;stroke-width:0.8;"/>
     </g>
     <g id="line2d_14">
      <defs>
       <path d="M 0 0 
L 0 2 
" id="mbe965aa627" style="stroke:#000000;stroke-width:0.6;"/>
      </defs>
      <g>
       <use style="stroke:#000000;stroke-width:0.6;" x="97.755429" xlink:href="#mbe965aa627" y="298.944"/>
      </g>
     </g>
    </g>
    <g id="xtick_6">
     <g id="line2d_15">
      <path clip-path="url(#pcd28cbde43)" d="M 178.066286 298.944 
L 178.066286 27.648 
" style="fill:none;stroke:#b0b0b0;stroke-linecap:square;stroke-width:0.8;"/>
     </g>
     <g id="line2d_16">
      <g>
       <use style="stroke:#000000;stroke-width:0.6;" x="178.066286" xlink:href="#mbe965aa627" y="298.944"/>
      </g>
     </g>
    </g>
    <g id="xtick_7">
     <g id="line2d_17">
      <path clip-path="url(#pcd28cbde43)" d="M 258.377143 298.944 
L 258.377143 27.648 
" style="fill:none;stroke:#b0b0b0;stroke-linecap:square;stroke-width:0.8;"/>
     </g>
     <g id="line2d_18">
      <g>
       <use style="stroke:#000000;stroke-width:0.6;" x="258.377143" xlink:href="#mbe965aa627" y="298.944"/>
      </g>
     </g>
    </g>
    <g id="xtick_8">
     <g id="line2d_19">
      <path clip-path="url(#pcd28cbde43)" d="M 338.688 298.944 
L 338.688 27.648 
" style="fill:none;stroke:#b0b0b0;stroke-linecap:square;stroke-width:0.8;"/>
     </g>
     <g id="line2d_20">
      <g>
       <use style="stroke:#000000;stroke-width:0.6;" x="338.688" xlink:href="#mbe965aa627" y="298.944"/>
      </g>
     </g>
    </g>
    <g id="text_5">
     <!-- log10(# f-evals / dimension) -->
     <g transform="translate(77.764078 342.217594)scale(0.17 -0.17)">
      <defs>
       <path d="M 603 4863 
L 1178 4863 
L 1178 0 
L 603 0 
L 603 4863 
z
" id="DejaVuSans-6c" transform="scale(0.015625)"/>
       <path d="M 1959 3097 
Q 1497 3097 1228 2736 
Q 959 2375 959 1747 
Q 959 1119 1226 758 
Q 1494 397 1959 397 
Q 2419 397 2687 759 
Q 2956 1122 2956 1747 
Q 2956 2369 2687 2733 
Q 2419 3097 1959 3097 
z
M 1959 3584 
Q 2709 3584 3137 3096 
Q 3566 2609 3566 1747 
Q 3566 888 3137 398 
Q 2709 -91 1959 -91 
Q 1206 -91 779 398 
Q 353 888 353 1747 
Q 353 2609 779 3096 
Q 1206 3584 1959 3584 
z
" id="DejaVuSans-6f" transform="scale(0.015625)"/>
       <path d="M 2906 1791 
Q 2906 2416 2648 2759 
Q 2391 3103 1925 3103 
Q 1463 3103 1205 2759 
Q 947 2416 947 1791 
Q 947 1169 1205 825 
Q 1463 481 1925 481 
Q 2391 481 2648 825 
Q 2906 1169 2906 1791 
z
M 3481 434 
Q 3481 -459 3084 -895 
Q 2688 -1331 1869 -1331 
Q 1566 -1331 1297 -1286 
Q 1028 -1241 775 -1147 
L 775 -588 
Q 1028 -725 1275 -790 
Q 1522 -856 1778 -856 
Q 2344 -856 2625 -561 
Q 2906 -266 2906 331 
L 2906 616 
Q 2728 306 2450 153 
Q 2172 0 1784 0 
Q 1141 0 747 490 
Q 353 981 353 1791 
Q 353 2603 747 3093 
Q 1141 3584 1784 3584 
Q 2172 3584 2450 3431 
Q 2728 3278 2906 2969 
L 2906 3500 
L 3481 3500 
L 3481 434 
z
" id="DejaVuSans-67" transform="scale(0.015625)"/>
       <path d="M 794 531 
L 1825 531 
L 1825 4091 
L 703 3866 
L 703 4441 
L 1819 4666 
L 2450 4666 
L 2450 531 
L 3481 531 
L 3481 0 
L 794 0 
L 794 531 
z
" id="DejaVuSans-31" transform="scale(0.015625)"/>
       <path d="M 1984 4856 
Q 1566 4138 1362 3434 
Q 1159 2731 1159 2009 
Q 1159 1288 1364 580 
Q 1569 -128 1984 -844 
L 1484 -844 
Q 1016 -109 783 600 
Q 550 1309 550 2009 
Q 550 2706 781 3412 
Q 1013 4119 1484 4856 
L 1984 4856 
z
" id="DejaVuSans-28" transform="scale(0.015625)"/>
       <path d="M 3272 2816 
L 2363 2816 
L 2100 1772 
L 3016 1772 
L 3272 2816 
z
M 2803 4594 
L 2478 3297 
L 3391 3297 
L 3719 4594 
L 4219 4594 
L 3897 3297 
L 4872 3297 
L 4872 2816 
L 3775 2816 
L 3519 1772 
L 4513 1772 
L 4513 1294 
L 3397 1294 
L 3072 0 
L 2572 0 
L 2894 1294 
L 1978 1294 
L 1656 0 
L 1153 0 
L 1478 1294 
L 494 1294 
L 494 1772 
L 1594 1772 
L 1856 2816 
L 850 2816 
L 850 3297 
L 1978 3297 
L 2297 4594 
L 2803 4594 
z
" id="DejaVuSans-23" transform="scale(0.015625)"/>
       <path id="DejaVuSans-20" transform="scale(0.015625)"/>
       <path d="M 2375 4863 
L 2375 4384 
L 1825 4384 
Q 1516 4384 1395 4259 
Q 1275 4134 1275 3809 
L 1275 3500 
L 2222 3500 
L 2222 3053 
L 1275 3053 
L 1275 0 
L 697 0 
L 697 3053 
L 147 3053 
L 147 3500 
L 697 3500 
L 697 3744 
Q 697 4328 969 4595 
Q 1241 4863 1831 4863 
L 2375 4863 
z
" id="DejaVuSans-66" transform="scale(0.015625)"/>
       <path d="M 313 2009 
L 1997 2009 
L 1997 1497 
L 313 1497 
L 313 2009 
z
" id="DejaVuSans-2d" transform="scale(0.015625)"/>
       <path d="M 3597 1894 
L 3597 1613 
L 953 1613 
Q 991 1019 1311 708 
Q 1631 397 2203 397 
Q 2534 397 2845 478 
Q 3156 559 3463 722 
L 3463 178 
Q 3153 47 2828 -22 
Q 2503 -91 2169 -91 
Q 1331 -91 842 396 
Q 353 884 353 1716 
Q 353 2575 817 3079 
Q 1281 3584 2069 3584 
Q 2775 3584 3186 3129 
Q 3597 2675 3597 1894 
z
M 3022 2063 
Q 3016 2534 2758 2815 
Q 2500 3097 2075 3097 
Q 1594 3097 1305 2825 
Q 1016 2553 972 2059 
L 3022 2063 
z
" id="DejaVuSans-65" transform="scale(0.015625)"/>
       <path d="M 191 3500 
L 800 3500 
L 1894 563 
L 2988 3500 
L 3597 3500 
L 2284 0 
L 1503 0 
L 191 3500 
z
" id="DejaVuSans-76" transform="scale(0.015625)"/>
       <path d="M 2194 1759 
Q 1497 1759 1228 1600 
Q 959 1441 959 1056 
Q 959 750 1161 570 
Q 1363 391 1709 391 
Q 2188 391 2477 730 
Q 2766 1069 2766 1631 
L 2766 1759 
L 2194 1759 
z
M 3341 1997 
L 3341 0 
L 2766 0 
L 2766 531 
Q 2569 213 2275 61 
Q 1981 -91 1556 -91 
Q 1019 -91 701 211 
Q 384 513 384 1019 
Q 384 1609 779 1909 
Q 1175 2209 1959 2209 
L 2766 2209 
L 2766 2266 
Q 2766 2663 2505 2880 
Q 2244 3097 1772 3097 
Q 1472 3097 1187 3025 
Q 903 2953 641 2809 
L 641 3341 
Q 956 3463 1253 3523 
Q 1550 3584 1831 3584 
Q 2591 3584 2966 3190 
Q 3341 2797 3341 1997 
z
" id="DejaVuSans-61" transform="scale(0.015625)"/>
       <path d="M 2834 3397 
L 2834 2853 
Q 2591 2978 2328 3040 
Q 2066 3103 1784 3103 
Q 1356 3103 1142 2972 
Q 928 2841 928 2578 
Q 928 2378 1081 2264 
Q 1234 2150 1697 2047 
L 1894 2003 
Q 2506 1872 2764 1633 
Q 3022 1394 3022 966 
Q 3022 478 2636 193 
Q 2250 -91 1575 -91 
Q 1294 -91 989 -36 
Q 684 19 347 128 
L 347 722 
Q 666 556 975 473 
Q 1284 391 1588 391 
Q 1994 391 2212 530 
Q 2431 669 2431 922 
Q 2431 1156 2273 1281 
Q 2116 1406 1581 1522 
L 1381 1569 
Q 847 1681 609 1914 
Q 372 2147 372 2553 
Q 372 3047 722 3315 
Q 1072 3584 1716 3584 
Q 2034 3584 2315 3537 
Q 2597 3491 2834 3397 
z
" id="DejaVuSans-73" transform="scale(0.015625)"/>
       <path d="M 1625 4666 
L 2156 4666 
L 531 -594 
L 0 -594 
L 1625 4666 
z
" id="DejaVuSans-2f" transform="scale(0.015625)"/>
       <path d="M 2906 2969 
L 2906 4863 
L 3481 4863 
L 3481 0 
L 2906 0 
L 2906 525 
Q 2725 213 2448 61 
Q 2172 -91 1784 -91 
Q 1150 -91 751 415 
Q 353 922 353 1747 
Q 353 2572 751 3078 
Q 1150 3584 1784 3584 
Q 2172 3584 2448 3432 
Q 2725 3281 2906 2969 
z
M 947 1747 
Q 947 1113 1208 752 
Q 1469 391 1925 391 
Q 2381 391 2643 752 
Q 2906 1113 2906 1747 
Q 2906 2381 2643 2742 
Q 2381 3103 1925 3103 
Q 1469 3103 1208 2742 
Q 947 2381 947 1747 
z
" id="DejaVuSans-64" transform="scale(0.015625)"/>
       <path d="M 603 3500 
L 1178 3500 
L 1178 0 
L 603 0 
L 603 3500 
z
M 603 4863 
L 1178 4863 
L 1178 4134 
L 603 4134 
L 603 4863 
z
" id="DejaVuSans-69" transform="scale(0.015625)"/>
       <path d="M 3328 2828 
Q 3544 3216 3844 3400 
Q 4144 3584 4550 3584 
Q 5097 3584 5394 3201 
Q 5691 2819 5691 2113 
L 5691 0 
L 5113 0 
L 5113 2094 
Q 5113 2597 4934 2840 
Q 4756 3084 4391 3084 
Q 3944 3084 3684 2787 
Q 3425 2491 3425 1978 
L 3425 0 
L 2847 0 
L 2847 2094 
Q 2847 2600 2669 2842 
Q 2491 3084 2119 3084 
Q 1678 3084 1418 2786 
Q 1159 2488 1159 1978 
L 1159 0 
L 581 0 
L 581 3500 
L 1159 3500 
L 1159 2956 
Q 1356 3278 1631 3431 
Q 1906 3584 2284 3584 
Q 2666 3584 2933 3390 
Q 3200 3197 3328 2828 
z
" id="DejaVuSans-6d" transform="scale(0.015625)"/>
       <path d="M 3513 2113 
L 3513 0 
L 2938 0 
L 2938 2094 
Q 2938 2591 2744 2837 
Q 2550 3084 2163 3084 
Q 1697 3084 1428 2787 
Q 1159 2491 1159 1978 
L 1159 0 
L 581 0 
L 581 3500 
L 1159 3500 
L 1159 2956 
Q 1366 3272 1645 3428 
Q 1925 3584 2291 3584 
Q 2894 3584 3203 3211 
Q 3513 2838 3513 2113 
z
" id="DejaVuSans-6e" transform="scale(0.015625)"/>
       <path d="M 513 4856 
L 1013 4856 
Q 1481 4119 1714 3412 
Q 1947 2706 1947 2009 
Q 1947 1309 1714 600 
Q 1481 -109 1013 -844 
L 513 -844 
Q 928 -128 1133 580 
Q 1338 1288 1338 2009 
Q 1338 2731 1133 3434 
Q 928 4138 513 4856 
z
" id="DejaVuSans-29" transform="scale(0.015625)"/>
      </defs>
      <use xlink:href="#DejaVuSans-6c"/>
      <use x="27.783203" xlink:href="#DejaVuSans-6f"/>
      <use x="88.964844" xlink:href="#DejaVuSans-67"/>
      <use x="152.441406" xlink:href="#DejaVuSans-31"/>
      <use x="216.064453" xlink:href="#DejaVuSans-30"/>
      <use x="279.6875" xlink:href="#DejaVuSans-28"/>
      <use x="318.701172" xlink:href="#DejaVuSans-23"/>
      <use x="402.490234" xlink:href="#DejaVuSans-20"/>
      <use x="434.277344" xlink:href="#DejaVuSans-66"/>
      <use x="463.982422" xlink:href="#DejaVuSans-2d"/>
      <use x="500.066406" xlink:href="#DejaVuSans-65"/>
      <use x="561.589844" xlink:href="#DejaVuSans-76"/>
      <use x="620.769531" xlink:href="#DejaVuSans-61"/>
      <use x="682.048828" xlink:href="#DejaVuSans-6c"/>
      <use x="709.832031" xlink:href="#DejaVuSans-73"/>
      <use x="761.931641" xlink:href="#DejaVuSans-20"/>
      <use x="793.71875" xlink:href="#DejaVuSans-2f"/>
      <use x="827.410156" xlink:href="#DejaVuSans-20"/>
      <use x="859.197266" xlink:href="#DejaVuSans-64"/>
      <use x="922.673828" xlink:href="#DejaVuSans-69"/>
      <use x="950.457031" xlink:href="#DejaVuSans-6d"/>
      <use x="1047.869141" xlink:href="#DejaVuSans-65"/>
      <use x="1109.392578" xlink:href="#DejaVuSans-6e"/>
      <use x="1172.771484" xlink:href="#DejaVuSans-73"/>
      <use x="1224.871094" xlink:href="#DejaVuSans-69"/>
      <use x="1252.654297" xlink:href="#DejaVuSans-6f"/>
      <use x="1313.835938" xlink:href="#DejaVuSans-6e"/>
      <use x="1377.214844" xlink:href="#DejaVuSans-29"/>
     </g>
    </g>
   </g>
   <g id="matplotlib.axis_2">
    <g id="ytick_1">
     <g id="line2d_21">
      <path clip-path="url(#pcd28cbde43)" d="M 57.6 298.944 
L 338.688 298.944 
" style="fill:none;stroke:#b0b0b0;stroke-linecap:square;stroke-width:0.8;"/>
     </g>
     <g id="line2d_22">
      <defs>
       <path d="M 0 0 
L -3.5 0 
" id="mf082100f72" style="stroke:#000000;stroke-width:0.8;"/>
      </defs>
      <g>
       <use style="stroke:#000000;stroke-width:0.8;" x="57.6" xlink:href="#mf082100f72" y="298.944"/>
      </g>
     </g>
     <g id="text_6">
      <!-- 0.0 -->
      <g transform="translate(25.155 305.02275)scale(0.16 -0.16)">
       <defs>
        <path d="M 684 794 
L 1344 794 
L 1344 0 
L 684 0 
L 684 794 
z
" id="DejaVuSans-2e" transform="scale(0.015625)"/>
       </defs>
       <use xlink:href="#DejaVuSans-30"/>
       <use x="63.623047" xlink:href="#DejaVuSans-2e"/>
       <use x="95.410156" xlink:href="#DejaVuSans-30"/>
      </g>
     </g>
    </g>
    <g id="ytick_2">
     <g id="line2d_23">
      <path clip-path="url(#pcd28cbde43)" d="M 57.6 245.22202 
L 338.688 245.22202 
" style="fill:none;stroke:#b0b0b0;stroke-linecap:square;stroke-width:0.8;"/>
     </g>
     <g id="line2d_24">
      <g>
       <use style="stroke:#000000;stroke-width:0.8;" x="57.6" xlink:href="#mf082100f72" y="245.22202"/>
      </g>
     </g>
     <g id="text_7">
      <!-- 0.2 -->
      <g transform="translate(25.155 251.30077)scale(0.16 -0.16)">
       <use xlink:href="#DejaVuSans-30"/>
       <use x="63.623047" xlink:href="#DejaVuSans-2e"/>
       <use x="95.410156" xlink:href="#DejaVuSans-32"/>
      </g>
     </g>
    </g>
    <g id="ytick_3">
     <g id="line2d_25">
      <path clip-path="url(#pcd28cbde43)" d="M 57.6 191.50004 
L 338.688 191.50004 
" style="fill:none;stroke:#b0b0b0;stroke-linecap:square;stroke-width:0.8;"/>
     </g>
     <g id="line2d_26">
      <g>
       <use style="stroke:#000000;stroke-width:0.8;" x="57.6" xlink:href="#mf082100f72" y="191.50004"/>
      </g>
     </g>
     <g id="text_8">
      <!-- 0.4 -->
      <g transform="translate(25.155 197.57879)scale(0.16 -0.16)">
       <use xlink:href="#DejaVuSans-30"/>
       <use x="63.623047" xlink:href="#DejaVuSans-2e"/>
       <use x="95.410156" xlink:href="#DejaVuSans-34"/>
      </g>
     </g>
    </g>
    <g id="ytick_4">
     <g id="line2d_27">
      <path clip-path="url(#pcd28cbde43)" d="M 57.6 137.778059 
L 338.688 137.778059 
" style="fill:none;stroke:#b0b0b0;stroke-linecap:square;stroke-width:0.8;"/>
     </g>
     <g id="line2d_28">
      <g>
       <use style="stroke:#000000;stroke-width:0.8;" x="57.6" xlink:href="#mf082100f72" y="137.778059"/>
      </g>
     </g>
     <g id="text_9">
      <!-- 0.6 -->
      <g transform="translate(25.155 143.856809)scale(0.16 -0.16)">
       <use xlink:href="#DejaVuSans-30"/>
       <use x="63.623047" xlink:href="#DejaVuSans-2e"/>
       <use x="95.410156" xlink:href="#DejaVuSans-36"/>
      </g>
     </g>
    </g>
    <g id="ytick_5">
     <g id="line2d_29">
      <path clip-path="url(#pcd28cbde43)" d="M 57.6 84.056079 
L 338.688 84.056079 
" style="fill:none;stroke:#b0b0b0;stroke-linecap:square;stroke-width:0.8;"/>
     </g>
     <g id="line2d_30">
      <g>
       <use style="stroke:#000000;stroke-width:0.8;" x="57.6" xlink:href="#mf082100f72" y="84.056079"/>
      </g>
     </g>
     <g id="text_10">
      <!-- 0.8 -->
      <g transform="translate(25.155 90.134829)scale(0.16 -0.16)">
       <defs>
        <path d="M 2034 2216 
Q 1584 2216 1326 1975 
Q 1069 1734 1069 1313 
Q 1069 891 1326 650 
Q 1584 409 2034 409 
Q 2484 409 2743 651 
Q 3003 894 3003 1313 
Q 3003 1734 2745 1975 
Q 2488 2216 2034 2216 
z
M 1403 2484 
Q 997 2584 770 2862 
Q 544 3141 544 3541 
Q 544 4100 942 4425 
Q 1341 4750 2034 4750 
Q 2731 4750 3128 4425 
Q 3525 4100 3525 3541 
Q 3525 3141 3298 2862 
Q 3072 2584 2669 2484 
Q 3125 2378 3379 2068 
Q 3634 1759 3634 1313 
Q 3634 634 3220 271 
Q 2806 -91 2034 -91 
Q 1263 -91 848 271 
Q 434 634 434 1313 
Q 434 1759 690 2068 
Q 947 2378 1403 2484 
z
M 1172 3481 
Q 1172 3119 1398 2916 
Q 1625 2713 2034 2713 
Q 2441 2713 2670 2916 
Q 2900 3119 2900 3481 
Q 2900 3844 2670 4047 
Q 2441 4250 2034 4250 
Q 1625 4250 1398 4047 
Q 1172 3844 1172 3481 
z
" id="DejaVuSans-38" transform="scale(0.015625)"/>
       </defs>
       <use xlink:href="#DejaVuSans-30"/>
       <use x="63.623047" xlink:href="#DejaVuSans-2e"/>
       <use x="95.410156" xlink:href="#DejaVuSans-38"/>
      </g>
     </g>
    </g>
    <g id="ytick_6">
     <g id="line2d_31">
      <path clip-path="url(#pcd28cbde43)" d="M 57.6 30.334099 
L 338.688 30.334099 
" style="fill:none;stroke:#b0b0b0;stroke-linecap:square;stroke-width:0.8;"/>
     </g>
     <g id="line2d_32">
      <g>
       <use style="stroke:#000000;stroke-width:0.8;" x="57.6" xlink:href="#mf082100f72" y="30.334099"/>
      </g>
     </g>
     <g id="text_11">
      <!-- 1.0 -->
      <g transform="translate(25.155 36.412849)scale(0.16 -0.16)">
       <use xlink:href="#DejaVuSans-31"/>
       <use x="63.623047" xlink:href="#DejaVuSans-2e"/>
       <use x="95.410156" xlink:href="#DejaVuSans-30"/>
      </g>
     </g>
    </g>
    <g id="text_12">
     <!-- Fraction of function,target pairs -->
     <g transform="translate(17.619531 297.681)rotate(-90)scale(0.17 -0.17)">
      <defs>
       <path d="M 628 4666 
L 3309 4666 
L 3309 4134 
L 1259 4134 
L 1259 2759 
L 3109 2759 
L 3109 2228 
L 1259 2228 
L 1259 0 
L 628 0 
L 628 4666 
z
" id="DejaVuSans-46" transform="scale(0.015625)"/>
       <path d="M 2631 2963 
Q 2534 3019 2420 3045 
Q 2306 3072 2169 3072 
Q 1681 3072 1420 2755 
Q 1159 2438 1159 1844 
L 1159 0 
L 581 0 
L 581 3500 
L 1159 3500 
L 1159 2956 
Q 1341 3275 1631 3429 
Q 1922 3584 2338 3584 
Q 2397 3584 2469 3576 
Q 2541 3569 2628 3553 
L 2631 2963 
z
" id="DejaVuSans-72" transform="scale(0.015625)"/>
       <path d="M 3122 3366 
L 3122 2828 
Q 2878 2963 2633 3030 
Q 2388 3097 2138 3097 
Q 1578 3097 1268 2742 
Q 959 2388 959 1747 
Q 959 1106 1268 751 
Q 1578 397 2138 397 
Q 2388 397 2633 464 
Q 2878 531 3122 666 
L 3122 134 
Q 2881 22 2623 -34 
Q 2366 -91 2075 -91 
Q 1284 -91 818 406 
Q 353 903 353 1747 
Q 353 2603 823 3093 
Q 1294 3584 2113 3584 
Q 2378 3584 2631 3529 
Q 2884 3475 3122 3366 
z
" id="DejaVuSans-63" transform="scale(0.015625)"/>
       <path d="M 1172 4494 
L 1172 3500 
L 2356 3500 
L 2356 3053 
L 1172 3053 
L 1172 1153 
Q 1172 725 1289 603 
Q 1406 481 1766 481 
L 2356 481 
L 2356 0 
L 1766 0 
Q 1100 0 847 248 
Q 594 497 594 1153 
L 594 3053 
L 172 3053 
L 172 3500 
L 594 3500 
L 594 4494 
L 1172 4494 
z
" id="DejaVuSans-74" transform="scale(0.015625)"/>
       <path d="M 544 1381 
L 544 3500 
L 1119 3500 
L 1119 1403 
Q 1119 906 1312 657 
Q 1506 409 1894 409 
Q 2359 409 2629 706 
Q 2900 1003 2900 1516 
L 2900 3500 
L 3475 3500 
L 3475 0 
L 2900 0 
L 2900 538 
Q 2691 219 2414 64 
Q 2138 -91 1772 -91 
Q 1169 -91 856 284 
Q 544 659 544 1381 
z
M 1991 3584 
L 1991 3584 
z
" id="DejaVuSans-75" transform="scale(0.015625)"/>
       <path d="M 750 794 
L 1409 794 
L 1409 256 
L 897 -744 
L 494 -744 
L 750 256 
L 750 794 
z
" id="DejaVuSans-2c" transform="scale(0.015625)"/>
       <path d="M 1159 525 
L 1159 -1331 
L 581 -1331 
L 581 3500 
L 1159 3500 
L 1159 2969 
Q 1341 3281 1617 3432 
Q 1894 3584 2278 3584 
Q 2916 3584 3314 3078 
Q 3713 2572 3713 1747 
Q 3713 922 3314 415 
Q 2916 -91 2278 -91 
Q 1894 -91 1617 61 
Q 1341 213 1159 525 
z
M 3116 1747 
Q 3116 2381 2855 2742 
Q 2594 3103 2138 3103 
Q 1681 3103 1420 2742 
Q 1159 2381 1159 1747 
Q 1159 1113 1420 752 
Q 1681 391 2138 391 
Q 2594 391 2855 752 
Q 3116 1113 3116 1747 
z
" id="DejaVuSans-70" transform="scale(0.015625)"/>
      </defs>
      <use xlink:href="#DejaVuSans-46"/>
      <use x="50.269531" xlink:href="#DejaVuSans-72"/>
      <use x="91.382812" xlink:href="#DejaVuSans-61"/>
      <use x="152.662109" xlink:href="#DejaVuSans-63"/>
      <use x="207.642578" xlink:href="#DejaVuSans-74"/>
      <use x="246.851562" xlink:href="#DejaVuSans-69"/>
      <use x="274.634766" xlink:href="#DejaVuSans-6f"/>
      <use x="335.816406" xlink:href="#DejaVuSans-6e"/>
      <use x="399.195312" xlink:href="#DejaVuSans-20"/>
      <use x="430.982422" xlink:href="#DejaVuSans-6f"/>
      <use x="492.164062" xlink:href="#DejaVuSans-66"/>
      <use x="527.369141" xlink:href="#DejaVuSans-20"/>
      <use x="559.15625" xlink:href="#DejaVuSans-66"/>
      <use x="594.361328" xlink:href="#DejaVuSans-75"/>
      <use x="657.740234" xlink:href="#DejaVuSans-6e"/>
      <use x="721.119141" xlink:href="#DejaVuSans-63"/>
      <use x="776.099609" xlink:href="#DejaVuSans-74"/>
      <use x="815.308594" xlink:href="#DejaVuSans-69"/>
      <use x="843.091797" xlink:href="#DejaVuSans-6f"/>
      <use x="904.273438" xlink:href="#DejaVuSans-6e"/>
      <use x="967.652344" xlink:href="#DejaVuSans-2c"/>
      <use x="999.439453" xlink:href="#DejaVuSans-74"/>
      <use x="1038.648438" xlink:href="#DejaVuSans-61"/>
      <use x="1099.927734" xlink:href="#DejaVuSans-72"/>
      <use x="1139.291016" xlink:href="#DejaVuSans-67"/>
      <use x="1202.767578" xlink:href="#DejaVuSans-65"/>
      <use x="1264.291016" xlink:href="#DejaVuSans-74"/>
      <use x="1303.5" xlink:href="#DejaVuSans-20"/>
      <use x="1335.287109" xlink:href="#DejaVuSans-70"/>
      <use x="1398.763672" xlink:href="#DejaVuSans-61"/>
      <use x="1460.042969" xlink:href="#DejaVuSans-69"/>
      <use x="1487.826172" xlink:href="#DejaVuSans-72"/>
      <use x="1528.939453" xlink:href="#DejaVuSans-73"/>
     </g>
    </g>
   </g>
   <g id="line2d_33">
    <defs>
     <path d="M 0 1.5 
C 0.397805 1.5 0.77937 1.341951 1.06066 1.06066 
C 1.341951 0.77937 1.5 0.397805 1.5 0 
C 1.5 -0.397805 1.341951 -0.77937 1.06066 -1.06066 
C 0.77937 -1.341951 0.397805 -1.5 0 -1.5 
C -0.397805 -1.5 -0.77937 -1.341951 -1.06066 -1.06066 
C -1.341951 -0.77937 -1.5 -0.397805 -1.5 0 
C -1.5 0.397805 -1.341951 0.77937 -1.06066 1.06066 
C -0.77937 1.341951 -0.397805 1.5 0 1.5 
z
" id="m9d35d4fdf5" style="stroke:#f5deb3;"/>
    </defs>
    <g>
     <use style="fill:#f5deb3;stroke:#f5deb3;" x="70.11861" xlink:href="#m9d35d4fdf5" y="30.334099"/>
     <use style="fill:#f5deb3;stroke:#f5deb3;" x="70.11861" xlink:href="#m9d35d4fdf5" y="30.334099"/>
    </g>
   </g>
   <g id="line2d_34">
    <defs>
     <path d="M 0 1.5 
C 0.397805 1.5 0.77937 1.341951 1.06066 1.06066 
C 1.341951 0.77937 1.5 0.397805 1.5 0 
C 1.5 -0.397805 1.341951 -0.77937 1.06066 -1.06066 
C 0.77937 -1.341951 0.397805 -1.5 0 -1.5 
C -0.397805 -1.5 -0.77937 -1.341951 -1.06066 -1.06066 
C -1.341951 -0.77937 -1.5 -0.397805 -1.5 0 
C -1.5 0.397805 -1.341951 0.77937 -1.06066 1.06066 
C -0.77937 1.341951 -0.397805 1.5 0 1.5 
z
" id="m3b895cd2ae" style="stroke:#000080;"/>
    </defs>
    <g>
     <use style="fill:#000080;stroke:#000080;" x="185.551473" xlink:href="#m3b895cd2ae" y="30.334099"/>
     <use style="fill:#000080;stroke:#000080;" x="185.551473" xlink:href="#m3b895cd2ae" y="30.334099"/>
    </g>
   </g>
   <g id="line2d_35">
    <path d="M 149.60644 298.944 
L 149.60644 298.417314 
L 152.822374 298.417314 
L 152.822374 297.890628 
L 153.138392 297.890628 
L 153.138392 297.363942 
L 153.438049 297.363942 
L 153.438049 296.837256 
L 155.164502 296.837256 
L 155.164502 296.31057 
L 155.457066 296.31057 
L 155.457066 295.783884 
L 155.773004 295.783884 
L 155.773004 295.257197 
L 157.249147 295.257197 
L 157.249147 294.730511 
L 157.84027 294.730511 
L 157.85139 293.677139 
L 158.673779 293.677139 
L 158.673779 293.150453 
L 159.738201 293.150453 
L 159.738201 292.623767 
L 160.656397 292.623767 
L 160.656397 292.097081 
L 160.8961 292.097081 
L 160.8961 291.570395 
L 161.051778 291.570395 
L 161.051778 291.043709 
L 161.454223 291.043709 
L 161.454223 290.517023 
L 162.171644 290.517023 
L 162.258202 289.463651 
L 162.449267 289.463651 
L 162.515329 288.410278 
L 165.897891 288.410278 
L 165.897891 287.883592 
L 166.044441 287.883592 
L 166.044441 287.356906 
L 166.222474 287.356906 
L 166.267128 286.303534 
L 166.65557 286.303534 
L 166.65557 285.776848 
L 166.782596 285.776848 
L 166.812546 284.723476 
L 167.167992 284.723476 
L 167.167992 284.19679 
L 167.643609 284.19679 
L 167.643609 283.670104 
L 167.956225 283.670104 
L 167.956225 283.143418 
L 168.65511 283.143418 
L 168.65511 282.616732 
L 169.914348 282.616732 
L 169.968535 281.036673 
L 170.254725 281.036673 
L 170.254725 280.509987 
L 170.695362 280.509987 
L 170.695362 279.983301 
L 170.891192 279.983301 
L 170.913546 278.929929 
L 171.118647 278.929929 
L 171.118647 278.403243 
L 171.441618 278.403243 
L 171.441618 277.876557 
L 172.173147 277.876557 
L 172.173147 277.349871 
L 172.357987 277.349871 
L 172.357987 276.823185 
L 173.289481 276.823185 
L 173.347865 275.243126 
L 173.541081 275.243126 
L 173.618898 273.136382 
L 174.15301 273.136382 
L 174.15301 272.609696 
L 174.337554 272.609696 
L 174.372075 271.556324 
L 174.624574 271.556324 
L 174.701943 270.502952 
L 174.780023 270.502952 
L 174.780023 269.976266 
L 174.995558 269.976266 
L 174.995558 269.449579 
L 175.314968 269.449579 
L 175.314968 268.922893 
L 175.539157 268.922893 
L 175.539157 268.396207 
L 175.715657 268.396207 
L 175.821103 266.816149 
L 176.226936 266.816149 
L 176.268552 265.762777 
L 176.52666 265.762777 
L 176.52666 265.236091 
L 176.820383 265.236091 
L 176.820383 264.709405 
L 176.992788 264.709405 
L 176.992788 264.182719 
L 177.113846 264.182719 
L 177.113846 263.656033 
L 177.24687 263.656033 
L 177.271528 262.075974 
L 177.59164 262.075974 
L 177.648891 261.022602 
L 177.816873 261.022602 
L 177.816873 260.495916 
L 177.983252 260.495916 
L 177.983252 259.96923 
L 178.156735 259.96923 
L 178.200919 257.862486 
L 178.570761 257.862486 
L 178.621513 256.809114 
L 178.729293 256.809114 
L 178.729293 256.282427 
L 179.007435 256.282427 
L 179.007435 255.755741 
L 179.179252 255.755741 
L 179.273889 254.702369 
L 179.324261 254.702369 
L 179.324261 253.648997 
L 179.699072 253.648997 
L 179.699072 253.122311 
L 179.852438 253.122311 
L 179.852438 252.595625 
L 180.027079 252.595625 
L 180.099397 251.015567 
L 180.302303 251.015567 
L 180.396394 249.435508 
L 180.704165 249.435508 
L 180.812514 246.275392 
L 180.889814 246.275392 
L 180.940172 244.695334 
L 181.07204 244.695334 
L 181.096242 243.641962 
L 181.226212 243.641962 
L 181.317632 241.535217 
L 181.466788 241.535217 
L 181.504773 240.481845 
L 181.726017 240.481845 
L 181.733792 239.428473 
L 182.000249 239.428473 
L 182.021113 238.375101 
L 182.134728 238.375101 
L 182.238688 233.10824 
L 182.369304 233.10824 
L 182.465782 215.200913 
L 182.506387 215.200913 
L 182.604128 213.094169 
L 182.624953 213.094169 
L 182.668539 198.873645 
L 182.75805 198.873645 
L 182.851081 169.379224 
L 182.911286 169.379224 
L 182.911286 168.325852 
L 183.24037 168.325852 
L 183.334093 165.165736 
L 183.368869 165.165736 
L 183.475978 154.105328 
L 183.523231 154.105328 
L 183.539803 153.051956 
L 183.667387 153.051956 
L 183.750668 139.884804 
L 183.809734 139.884804 
L 183.907317 137.778059 
L 183.933497 137.778059 
L 183.939102 136.724687 
L 184.349543 136.724687 
L 184.447185 108.283639 
L 184.584531 108.283639 
L 184.584531 107.230267 
L 184.857793 107.230267 
L 184.942647 80.369277 
L 185.062739 80.369277 
L 185.10414 79.315904 
L 185.228912 79.315904 
L 185.228912 69.835555 
L 185.464973 69.835555 
L 185.551473 30.334099 
L 338.688 30.334099 
L 338.688 30.334099 
" style="fill:none;stroke:#000080;stroke-linecap:square;stroke-width:1.5;"/>
   </g>
   <g id="line2d_36">
    <defs>
     <path d="M 0 6 
C 1.591219 6 3.117479 5.367802 4.242641 4.242641 
C 5.367802 3.117479 6 1.591219 6 0 
C 6 -1.591219 5.367802 -3.117479 4.242641 -4.242641 
C 3.117479 -5.367802 1.591219 -6 0 -6 
C -1.591219 -6 -3.117479 -5.367802 -4.242641 -4.242641 
C -5.367802 -3.117479 -6 -1.591219 -6 0 
C -6 1.591219 -5.367802 3.117479 -4.242641 4.242641 
C -3.117479 5.367802 -1.591219 6 0 6 
z
" id="md8f254525d" style="stroke:#000080;stroke-width:1.5;"/>
    </defs>
    <g>
     <use style="fill-opacity:0;stroke:#000080;stroke-width:1.5;" x="184.857793" xlink:href="#md8f254525d" y="107.230267"/>
     <use style="fill-opacity:0;stroke:#000080;stroke-width:1.5;" x="185.551473" xlink:href="#md8f254525d" y="43.501251"/>
     <use style="fill-opacity:0;stroke:#000080;stroke-width:1.5;" x="185.551473" xlink:href="#md8f254525d" y="30.334099"/>
     <use style="fill-opacity:0;stroke:#000080;stroke-width:1.5;" x="185.551473" xlink:href="#md8f254525d" y="30.334099"/>
     <use style="fill-opacity:0;stroke:#000080;stroke-width:1.5;" x="338.688" xlink:href="#md8f254525d" y="30.334099"/>
    </g>
   </g>
   <g id="line2d_37">
    <path style="fill:none;stroke:#000080;stroke-linecap:square;stroke-width:1.5;"/>
    <g/>
   </g>
   <g id="line2d_38">
    <defs>
     <path d="M 0 1.5 
C 0.397805 1.5 0.77937 1.341951 1.06066 1.06066 
C 1.341951 0.77937 1.5 0.397805 1.5 0 
C 1.5 -0.397805 1.341951 -0.77937 1.06066 -1.06066 
C 0.77937 -1.341951 0.397805 -1.5 0 -1.5 
C -0.397805 -1.5 -0.77937 -1.341951 -1.06066 -1.06066 
C -1.341951 -0.77937 -1.5 -0.397805 -1.5 0 
C -1.5 0.397805 -1.341951 0.77937 -1.06066 1.06066 
C -0.77937 1.341951 -0.397805 1.5 0 1.5 
z
" id="m56b478e2b7" style="stroke:#ff00ff;"/>
    </defs>
    <g>
     <use style="fill:#ff00ff;stroke:#ff00ff;" x="136.112156" xlink:href="#m56b478e2b7" y="30.334099"/>
     <use style="fill:#ff00ff;stroke:#ff00ff;" x="136.112156" xlink:href="#m56b478e2b7" y="30.334099"/>
    </g>
   </g>
   <g id="line2d_39">
    <path d="M 105.057436 298.944 
L 105.057436 298.417314 
L 105.171792 298.417314 
L 105.171792 297.890628 
L 107.06042 297.890628 
L 107.06042 297.363942 
L 110.145965 297.363942 
L 110.145965 296.837256 
L 110.485426 296.837256 
L 110.485426 296.31057 
L 111.185562 296.31057 
L 111.185562 295.783884 
L 111.780817 295.783884 
L 111.780817 295.257197 
L 111.936179 295.257197 
L 111.936179 294.730511 
L 113.769724 294.730511 
L 113.769724 294.203825 
L 114.045996 294.203825 
L 114.045996 293.677139 
L 114.216469 293.677139 
L 114.216469 293.150453 
L 114.385292 293.150453 
L 114.385292 292.623767 
L 114.751048 292.623767 
L 114.751048 292.097081 
L 115.077025 292.097081 
L 115.077025 291.570395 
L 115.554844 291.570395 
L 115.586238 290.517023 
L 116.943478 290.517023 
L 116.972471 289.463651 
L 117.174084 289.463651 
L 117.231262 288.410278 
L 117.373392 288.410278 
L 117.429921 287.356906 
L 117.737599 287.356906 
L 117.792962 286.303534 
L 117.958004 286.303534 
L 117.958004 285.776848 
L 118.91674 285.776848 
L 118.91674 284.723476 
L 119.65247 284.723476 
L 119.751557 282.616732 
L 119.89914 282.616732 
L 119.923616 281.036673 
L 120.665825 281.036673 
L 120.665825 280.509987 
L 121.174025 280.509987 
L 121.174025 279.983301 
L 121.974949 279.983301 
L 122.061712 278.403243 
L 122.255364 278.403243 
L 122.298108 276.296499 
L 123.172336 276.296499 
L 123.172336 275.769812 
L 124.004823 275.769812 
L 124.082074 272.08301 
L 124.216444 272.08301 
L 124.216444 271.556324 
L 124.330801 271.556324 
L 124.330801 270.502952 
L 124.557288 270.502952 
L 124.650796 268.396207 
L 125.840299 268.396207 
L 125.927192 251.015567 
L 125.996395 251.015567 
L 126.013653 234.688298 
L 126.202373 234.688298 
L 126.270496 233.10824 
L 126.490073 233.10824 
L 126.590491 232.054868 
L 127.500856 232.054868 
L 127.5641 212.567483 
L 127.627114 212.567483 
L 127.627114 212.040797 
L 127.814803 212.040797 
L 127.907896 195.713528 
L 128.168991 195.713528 
L 128.168991 179.912946 
L 128.486215 179.912946 
L 128.486215 166.219108 
L 129.147151 166.219108 
L 129.161557 151.471897 
L 129.31925 151.471897 
L 129.31925 150.418525 
L 130.571839 150.418525 
L 130.571839 149.891839 
L 130.939826 149.891839 
L 130.939826 149.365153 
L 131.715598 149.365153 
L 131.715598 135.671315 
L 131.876558 135.671315 
L 131.987128 125.66428 
L 132.036046 125.66428 
L 132.072645 109.337011 
L 132.157744 109.337011 
L 132.157744 95.116487 
L 132.67158 95.116487 
L 132.67158 93.536429 
L 132.940331 93.536429 
L 133.009765 79.842591 
L 133.124876 79.842591 
L 133.124876 62.46195 
L 134.12805 62.46195 
L 134.12805 61.935264 
L 135.492247 61.935264 
L 135.492247 46.134681 
L 136.112156 46.134681 
L 136.112156 30.334099 
L 338.688 30.334099 
L 338.688 30.334099 
" style="fill:none;stroke:#ff00ff;stroke-linecap:square;stroke-width:1.5;"/>
   </g>
   <g id="line2d_40">
    <defs>
     <path d="M 0 8.485281 
L 5.091169 0 
L 0 -8.485281 
L -5.091169 0 
z
" id="mc162afca11" style="stroke:#ff00ff;stroke-linejoin:miter;stroke-width:1.5;"/>
    </defs>
    <g>
     <use style="fill-opacity:0;stroke:#ff00ff;stroke-linejoin:miter;stroke-width:1.5;" x="129.147151" xlink:href="#mc162afca11" y="165.692422"/>
     <use style="fill-opacity:0;stroke:#ff00ff;stroke-linejoin:miter;stroke-width:1.5;" x="136.112156" xlink:href="#mc162afca11" y="46.134681"/>
     <use style="fill-opacity:0;stroke:#ff00ff;stroke-linejoin:miter;stroke-width:1.5;" x="136.112156" xlink:href="#mc162afca11" y="30.334099"/>
     <use style="fill-opacity:0;stroke:#ff00ff;stroke-linejoin:miter;stroke-width:1.5;" x="136.112156" xlink:href="#mc162afca11" y="30.334099"/>
     <use style="fill-opacity:0;stroke:#ff00ff;stroke-linejoin:miter;stroke-width:1.5;" x="338.688" xlink:href="#mc162afca11" y="30.334099"/>
    </g>
   </g>
   <g id="line2d_41">
    <path style="fill:none;stroke:#ff00ff;stroke-linecap:square;stroke-width:1.5;"/>
    <g/>
   </g>
   <g id="line2d_42">
    <defs>
     <path d="M 0 1.5 
C 0.397805 1.5 0.77937 1.341951 1.06066 1.06066 
C 1.341951 0.77937 1.5 0.397805 1.5 0 
C 1.5 -0.397805 1.341951 -0.77937 1.06066 -1.06066 
C 0.77937 -1.341951 0.397805 -1.5 0 -1.5 
C -0.397805 -1.5 -0.77937 -1.341951 -1.06066 -1.06066 
C -1.341951 -0.77937 -1.5 -0.397805 -1.5 0 
C -1.5 0.397805 -1.341951 0.77937 -1.06066 1.06066 
C -0.77937 1.341951 -0.397805 1.5 0 1.5 
z
" id="ma8d2ab1c78" style="stroke:#ff7500;"/>
    </defs>
    <g>
     <use style="fill:#ff7500;stroke:#ff7500;" x="144.038338" xlink:href="#ma8d2ab1c78" y="30.334099"/>
     <use style="fill:#ff7500;stroke:#ff7500;" x="144.038338" xlink:href="#ma8d2ab1c78" y="30.334099"/>
    </g>
   </g>
   <g id="line2d_43">
    <path d="M 100.040467 298.944 
L 100.040467 298.417314 
L 106.114686 298.417314 
L 106.114686 297.890628 
L 106.541356 297.890628 
L 106.541356 297.363942 
L 109.930396 297.363942 
L 109.973724 295.783884 
L 110.145965 295.783884 
L 110.145965 295.257197 
L 110.77713 295.257197 
L 110.77713 294.730511 
L 113.769724 294.730511 
L 113.873839 293.150453 
L 115.0447 293.150453 
L 115.0447 292.623767 
L 115.269727 292.623767 
L 115.269727 292.097081 
L 116.943478 292.097081 
L 117.030313 290.517023 
L 117.087964 290.517023 
L 117.087964 289.990337 
L 117.514373 289.990337 
L 117.598418 288.936964 
L 119.62761 288.936964 
L 119.62761 288.410278 
L 119.751557 288.410278 
L 119.751557 287.883592 
L 119.89914 287.883592 
L 119.89914 287.356906 
L 120.166507 287.356906 
L 120.166507 286.83022 
L 120.286695 286.83022 
L 120.286695 286.303534 
L 120.759333 286.303534 
L 120.759333 285.776848 
L 121.151244 285.776848 
L 121.151244 285.250162 
L 121.512225 285.250162 
L 121.512225 283.670104 
L 121.974949 283.670104 
L 122.018385 280.509987 
L 122.31944 280.509987 
L 122.31944 279.983301 
L 124.024168 279.983301 
L 124.062793 248.908822 
L 124.158984 248.908822 
L 124.178158 247.328764 
L 124.292765 247.328764 
L 124.292765 245.748706 
L 124.425528 245.748706 
L 124.425528 245.22202 
L 124.538526 245.22202 
L 124.538526 244.695334 
L 124.891598 244.695334 
L 124.891598 244.168648 
L 125.092787 244.168648 
L 125.092787 243.115275 
L 125.840299 243.115275 
L 125.840299 242.588589 
L 125.97912 242.588589 
L 125.97912 242.061903 
L 126.151107 242.061903 
L 126.151107 229.948123 
L 126.70692 229.948123 
L 126.70692 229.421437 
L 126.904721 229.421437 
L 126.904721 228.894751 
L 127.116504 228.894751 
L 127.116504 228.368065 
L 127.500856 228.368065 
L 127.595635 226.261321 
L 128.15374 226.261321 
L 128.15374 225.207949 
L 128.381113 225.207949 
L 128.381113 224.681263 
L 128.973336 224.681263 
L 129.06046 210.460738 
L 129.089405 210.460738 
L 129.089405 209.407366 
L 129.204706 209.407366 
L 129.304973 208.353994 
L 129.433047 208.353994 
L 129.433047 207.827308 
L 129.588315 207.827308 
L 129.588315 207.300622 
L 129.811719 207.300622 
L 129.811719 192.553412 
L 130.155159 192.553412 
L 130.155159 192.026726 
L 130.411722 192.026726 
L 130.465258 177.806202 
L 130.585116 177.806202 
L 130.664567 145.678351 
L 131.172353 145.678351 
L 131.172353 145.151665 
L 131.703155 145.151665 
L 131.777682 143.04492 
L 131.814826 143.04492 
L 131.814826 141.464862 
L 132.67158 141.464862 
L 132.777237 138.831432 
L 132.963507 138.831432 
L 132.998212 111.443755 
L 133.899085 111.443755 
L 133.94293 97.223231 
L 134.03029 97.223231 
L 134.04118 83.002707 
L 135.097149 83.002707 
L 135.097149 82.476021 
L 136.112156 82.476021 
L 136.112156 81.949335 
L 136.504067 81.949335 
L 136.504067 81.422649 
L 137.053015 81.422649 
L 137.053015 80.369277 
L 137.298578 80.369277 
L 137.298578 79.842591 
L 137.744392 79.842591 
L 137.744392 64.568694 
L 137.963097 64.568694 
L 137.963097 64.042008 
L 138.221972 64.042008 
L 138.221972 61.408578 
L 138.811478 61.408578 
L 138.811478 47.71474 
L 141.162927 47.71474 
L 141.162927 47.188054 
L 142.499711 47.188054 
L 142.499711 45.081309 
L 143.40093 45.081309 
L 143.40093 43.501251 
L 144.038338 43.501251 
L 144.038338 30.334099 
L 338.688 30.334099 
L 338.688 30.334099 
" style="fill:none;stroke:#ff7500;stroke-linecap:square;stroke-width:1.5;"/>
   </g>
   <g id="line2d_44">
    <defs>
     <path d="M 0 -6 
L -1.347084 -1.854102 
L -5.706339 -1.854102 
L -2.179628 0.708204 
L -3.526712 4.854102 
L -0 2.291796 
L 3.526712 4.854102 
L 2.179628 0.708204 
L 5.706339 -1.854102 
L 1.347084 -1.854102 
z
" id="m14a3ed7d4a" style="stroke:#ff7500;stroke-linejoin:bevel;stroke-width:1.5;"/>
    </defs>
    <g>
     <use style="fill-opacity:0;stroke:#ff7500;stroke-linejoin:bevel;stroke-width:1.5;" x="132.998212" xlink:href="#m14a3ed7d4a" y="125.137593"/>
     <use style="fill-opacity:0;stroke:#ff7500;stroke-linejoin:bevel;stroke-width:1.5;" x="144.038338" xlink:href="#m14a3ed7d4a" y="43.501251"/>
     <use style="fill-opacity:0;stroke:#ff7500;stroke-linejoin:bevel;stroke-width:1.5;" x="144.038338" xlink:href="#m14a3ed7d4a" y="30.334099"/>
     <use style="fill-opacity:0;stroke:#ff7500;stroke-linejoin:bevel;stroke-width:1.5;" x="144.038338" xlink:href="#m14a3ed7d4a" y="30.334099"/>
     <use style="fill-opacity:0;stroke:#ff7500;stroke-linejoin:bevel;stroke-width:1.5;" x="338.688" xlink:href="#m14a3ed7d4a" y="30.334099"/>
    </g>
   </g>
   <g id="line2d_45">
    <path style="fill:none;stroke:#ff7500;stroke-linecap:square;stroke-width:1.5;"/>
    <g/>
   </g>
   <g id="line2d_46">
    <defs>
     <path d="M 0 1.5 
C 0.397805 1.5 0.77937 1.341951 1.06066 1.06066 
C 1.341951 0.77937 1.5 0.397805 1.5 0 
C 1.5 -0.397805 1.341951 -0.77937 1.06066 -1.06066 
C 0.77937 -1.341951 0.397805 -1.5 0 -1.5 
C -0.397805 -1.5 -0.77937 -1.341951 -1.06066 -1.06066 
C -1.341951 -0.77937 -1.5 -0.397805 -1.5 0 
C -1.5 0.397805 -1.341951 0.77937 -1.06066 1.06066 
C -0.77937 1.341951 -0.397805 1.5 0 1.5 
z
" id="m90e9da78d2" style="stroke:#6495ed;"/>
    </defs>
    <g>
     <use style="fill:#6495ed;stroke:#6495ed;" x="142.499711" xlink:href="#m90e9da78d2" y="30.334099"/>
     <use style="fill:#6495ed;stroke:#6495ed;" x="142.499711" xlink:href="#m90e9da78d2" y="30.334099"/>
    </g>
   </g>
   <g id="line2d_47">
    <path d="M 113.769724 298.944 
L 113.769724 298.417314 
L 117.001416 298.417314 
L 117.001416 297.890628 
L 119.62761 297.890628 
L 119.65247 296.31057 
L 119.89914 296.31057 
L 119.89914 295.783884 
L 121.996681 295.783884 
L 121.996681 294.730511 
L 122.699028 294.730511 
L 122.699028 294.203825 
L 124.004823 294.203825 
L 124.024168 293.150453 
L 124.158984 293.150453 
L 124.158984 292.623767 
L 124.387699 292.623767 
L 124.387699 292.097081 
L 125.038147 292.097081 
L 125.038147 291.570395 
L 125.840299 291.570395 
L 125.944518 290.517023 
L 125.97912 290.517023 
L 126.065325 289.463651 
L 127.595635 289.463651 
L 127.595635 288.410278 
L 127.721211 288.410278 
L 127.721211 287.883592 
L 127.938816 287.883592 
L 127.938816 286.83022 
L 129.031467 286.83022 
L 129.074938 285.776848 
L 129.433047 285.776848 
L 129.433047 285.250162 
L 130.411722 285.250162 
L 130.505303 283.143418 
L 130.717333 283.143418 
L 130.717333 282.616732 
L 131.703155 282.616732 
L 131.765283 278.929929 
L 132.121324 278.929929 
L 132.121324 278.403243 
L 132.905511 278.403243 
L 132.940331 276.296499 
L 133.090422 276.296499 
L 133.090422 275.769812 
L 133.216421 275.769812 
L 133.216421 274.71644 
L 133.352844 274.71644 
L 133.352844 274.189754 
L 134.03029 274.189754 
L 134.052062 273.136382 
L 134.236034 273.136382 
L 134.289776 272.08301 
L 135.086899 272.08301 
L 135.086899 271.029638 
L 135.209496 271.029638 
L 135.290751 268.922893 
L 135.927509 268.922893 
L 135.927509 268.396207 
L 136.083131 268.396207 
L 136.13148 265.236091 
L 136.227776 265.236091 
L 136.227776 264.182719 
L 137.025515 264.182719 
L 137.126135 258.915858 
L 137.343676 258.915858 
L 137.343676 243.115275 
L 137.919575 243.115275 
L 137.989158 208.88068 
L 138.110264 208.88068 
L 138.204833 192.553412 
L 138.33297 192.553412 
L 138.33297 192.026726 
L 138.552866 192.026726 
L 138.552866 191.50004 
L 138.770025 191.50004 
L 138.778323 189.393295 
L 139.074469 189.393295 
L 139.074469 188.866609 
L 139.580923 188.866609 
L 139.636299 129.877768 
L 139.722963 129.877768 
L 139.762215 115.657244 
L 140.393639 115.657244 
L 140.499195 99.329976 
L 140.529237 99.329976 
L 140.529237 98.803289 
L 141.097679 98.803289 
L 141.170161 84.582765 
L 141.235139 84.582765 
L 141.235139 83.002707 
L 141.414373 83.002707 
L 141.435758 79.842591 
L 141.858037 79.842591 
L 141.871938 57.195089 
L 142.493007 57.195089 
L 142.499711 30.334099 
L 338.688 30.334099 
L 338.688 30.334099 
" style="fill:none;stroke:#6495ed;stroke-linecap:square;stroke-width:1.5;"/>
   </g>
   <g id="line2d_48">
    <defs>
     <path d="M -0 6 
L 6 -6 
L -6 -6 
z
" id="m23eac62559" style="stroke:#6495ed;stroke-linejoin:miter;stroke-width:1.5;"/>
    </defs>
    <g>
     <use style="fill-opacity:0;stroke:#6495ed;stroke-linejoin:miter;stroke-width:1.5;" x="138.204833" xlink:href="#m23eac62559" y="207.827308"/>
     <use style="fill-opacity:0;stroke:#6495ed;stroke-linejoin:miter;stroke-width:1.5;" x="142.499711" xlink:href="#m23eac62559" y="43.501251"/>
     <use style="fill-opacity:0;stroke:#6495ed;stroke-linejoin:miter;stroke-width:1.5;" x="142.499711" xlink:href="#m23eac62559" y="30.334099"/>
     <use style="fill-opacity:0;stroke:#6495ed;stroke-linejoin:miter;stroke-width:1.5;" x="142.499711" xlink:href="#m23eac62559" y="30.334099"/>
     <use style="fill-opacity:0;stroke:#6495ed;stroke-linejoin:miter;stroke-width:1.5;" x="338.688" xlink:href="#m23eac62559" y="30.334099"/>
    </g>
   </g>
   <g id="line2d_49">
    <path style="fill:none;stroke:#6495ed;stroke-linecap:square;stroke-width:1.5;"/>
    <g/>
   </g>
   <g id="line2d_50">
    <defs>
     <path d="M 0 1.5 
C 0.397805 1.5 0.77937 1.341951 1.06066 1.06066 
C 1.341951 0.77937 1.5 0.397805 1.5 0 
C 1.5 -0.397805 1.341951 -0.77937 1.06066 -1.06066 
C 0.77937 -1.341951 0.397805 -1.5 0 -1.5 
C -0.397805 -1.5 -0.77937 -1.341951 -1.06066 -1.06066 
C -1.341951 -0.77937 -1.5 -0.397805 -1.5 0 
C -1.5 0.397805 -1.341951 0.77937 -1.06066 1.06066 
C -0.77937 1.341951 -0.397805 1.5 0 1.5 
z
" id="m045d03133b" style="stroke:#ff0000;"/>
    </defs>
    <g>
     <use style="fill:#ff0000;stroke:#ff0000;" x="232.385482" xlink:href="#m045d03133b" y="30.334099"/>
     <use style="fill:#ff0000;stroke:#ff0000;" x="232.385482" xlink:href="#m045d03133b" y="30.334099"/>
    </g>
   </g>
   <g id="line2d_51">
    <path d="M 89.835723 298.944 
L 89.835723 298.417314 
L 93.863965 298.417314 
L 93.972622 297.363942 
L 94.610715 297.363942 
L 94.714831 296.31057 
L 94.818328 296.31057 
L 94.818328 295.783884 
L 95.918017 295.783884 
L 95.918017 295.257197 
L 97.755429 295.257197 
L 97.842408 294.203825 
L 97.928955 294.203825 
L 97.928955 293.677139 
L 98.100772 293.677139 
L 98.100772 292.623767 
L 99.258306 292.623767 
L 99.338119 291.570395 
L 99.575392 291.570395 
L 99.575392 291.043709 
L 99.963811 291.043709 
L 99.963811 290.517023 
L 101.007498 290.517023 
L 101.007498 289.463651 
L 101.71651 289.463651 
L 101.71651 288.936964 
L 101.992235 288.936964 
L 101.992235 288.410278 
L 103.685435 288.410278 
L 103.685435 287.883592 
L 103.809118 287.883592 
L 103.870632 286.303534 
L 103.93193 286.303534 
L 103.93193 285.776848 
L 104.592361 285.776848 
L 104.592361 284.19679 
L 105.621863 284.19679 
L 105.621863 283.670104 
L 106.06061 283.670104 
L 106.06061 283.143418 
L 106.275913 283.143418 
L 106.275913 282.616732 
L 106.435663 282.616732 
L 106.48859 281.563359 
L 107.263796 281.563359 
L 107.263796 281.036673 
L 108.054381 281.036673 
L 108.102622 279.456615 
L 108.198707 279.456615 
L 108.198707 278.929929 
L 108.341848 278.929929 
L 108.341848 278.403243 
L 108.483824 278.403243 
L 108.483824 277.876557 
L 109.886961 277.876557 
L 109.930396 276.296499 
L 110.016944 276.296499 
L 110.103064 275.243126 
L 110.145965 275.243126 
L 110.231452 274.189754 
L 110.859585 274.189754 
L 110.859585 272.609696 
L 111.663381 272.609696 
L 111.663381 272.08301 
L 111.780817 272.08301 
L 111.780817 271.556324 
L 111.974805 271.556324 
L 111.974805 270.502952 
L 112.877038 270.502952 
L 112.877038 269.976266 
L 113.059268 269.976266 
L 113.095487 241.535217 
L 113.453595 241.535217 
L 113.453595 241.008531 
L 113.594805 241.008531 
L 113.594805 240.481845 
L 114.452366 240.481845 
L 114.519183 238.375101 
L 114.618932 238.375101 
L 114.618932 237.321729 
L 114.914798 237.321729 
L 114.914798 236.795043 
L 115.10929 236.795043 
L 115.10929 234.161612 
L 115.711251 234.161612 
L 115.804426 222.047832 
L 115.897107 222.047832 
L 115.897107 221.521146 
L 116.943478 221.521146 
L 116.972471 210.460738 
L 117.202696 210.460738 
L 117.202696 209.934052 
L 118.06717 209.934052 
L 118.06717 207.827308 
L 118.523652 207.827308 
L 118.523652 207.300622 
L 118.864837 207.300622 
L 118.864837 206.773936 
L 119.122819 206.773936 
L 119.148409 205.193878 
L 119.301163 205.193878 
L 119.301163 204.667192 
L 119.502775 204.667192 
L 119.502775 204.140506 
L 119.923616 204.140506 
L 119.923616 203.613819 
L 120.286695 203.613819 
L 120.286695 203.087133 
L 120.782632 203.087133 
L 120.782632 202.560447 
L 121.105591 202.560447 
L 121.105591 202.033761 
L 121.219499 202.033761 
L 121.219499 200.980389 
L 122.040062 200.980389 
L 122.104932 198.346959 
L 123.293723 198.346959 
L 123.293723 197.820273 
L 123.731719 197.820273 
L 123.770997 196.7669 
L 123.849288 196.7669 
L 123.849288 186.233179 
L 124.387699 186.233179 
L 124.387699 177.806202 
L 126.70692 177.806202 
L 126.70692 177.279515 
L 127.197279 177.279515 
L 127.277682 176.226143 
L 127.814803 176.226143 
L 127.87692 159.372189 
L 129.031467 159.372189 
L 129.132732 146.731723 
L 194.157686 146.731723 
L 194.268232 107.230267 
L 194.282001 107.230267 
L 194.364046 97.223231 
L 194.420122 97.223231 
L 194.462402 83.529393 
L 206.203691 83.529393 
L 206.293606 64.568694 
L 206.321923 64.568694 
L 206.343302 56.141717 
L 213.24307 56.141717 
L 213.344743 43.501251 
L 218.258646 43.501251 
L 218.326817 34.547588 
L 222.16945 34.547588 
L 222.19731 32.967529 
L 225.327694 32.967529 
L 225.344568 31.914157 
L 228.026841 31.914157 
L 228.026841 31.387471 
L 230.340021 31.387471 
L 230.340021 30.860785 
L 232.385482 30.860785 
L 232.385482 30.334099 
L 338.688 30.334099 
L 338.688 30.334099 
" style="fill:none;stroke:#ff0000;stroke-linecap:square;stroke-width:1.5;"/>
   </g>
   <g id="line2d_52">
    <defs>
     <path d="M 0 -6 
L -5.196152 -3 
L -5.196152 3 
L -0 6 
L 5.196152 3 
L 5.196152 -3 
z
" id="mb15a087b99" style="stroke:#ff0000;stroke-linejoin:miter;stroke-width:1.5;"/>
    </defs>
    <g>
     <use style="fill-opacity:0;stroke:#ff0000;stroke-linejoin:miter;stroke-width:1.5;" x="127.87692" xlink:href="#mb15a087b99" y="174.119399"/>
     <use style="fill-opacity:0;stroke:#ff0000;stroke-linejoin:miter;stroke-width:1.5;" x="194.213047" xlink:href="#mb15a087b99" y="136.198001"/>
     <use style="fill-opacity:0;stroke:#ff0000;stroke-linejoin:miter;stroke-width:1.5;" x="232.385482" xlink:href="#mb15a087b99" y="30.860785"/>
     <use style="fill-opacity:0;stroke:#ff0000;stroke-linejoin:miter;stroke-width:1.5;" x="232.385482" xlink:href="#mb15a087b99" y="30.334099"/>
     <use style="fill-opacity:0;stroke:#ff0000;stroke-linejoin:miter;stroke-width:1.5;" x="338.688" xlink:href="#mb15a087b99" y="30.334099"/>
    </g>
   </g>
   <g id="line2d_53">
    <path style="fill:none;stroke:#ff0000;stroke-linecap:square;stroke-width:1.5;"/>
    <g/>
   </g>
   <g id="line2d_54">
    <path clip-path="url(#pcd28cbde43)" d="M 194.045737 146.731723 
" style="fill:none;stroke:#ff0000;stroke-linecap:square;stroke-width:1.5;"/>
    <defs>
     <path d="M -12 12 
L 12 -12 
M -12 -12 
L 12 12 
" id="m58f9c47e91" style="stroke:#ff0000;"/>
    </defs>
    <g clip-path="url(#pcd28cbde43)">
     <use style="fill:#ff0000;stroke:#ff0000;" x="194.045737" xlink:href="#m58f9c47e91" y="146.731723"/>
    </g>
   </g>
   <g id="line2d_55">
    <defs>
     <path d="M 0 1.5 
C 0.397805 1.5 0.77937 1.341951 1.06066 1.06066 
C 1.341951 0.77937 1.5 0.397805 1.5 0 
C 1.5 -0.397805 1.341951 -0.77937 1.06066 -1.06066 
C 0.77937 -1.341951 0.397805 -1.5 0 -1.5 
C -0.397805 -1.5 -0.77937 -1.341951 -1.06066 -1.06066 
C -1.341951 -0.77937 -1.5 -0.397805 -1.5 0 
C -1.5 0.397805 -1.341951 0.77937 -1.06066 1.06066 
C -0.77937 1.341951 -0.397805 1.5 0 1.5 
z
" id="mb129b8495d" style="stroke:#9acd32;"/>
    </defs>
    <g>
     <use style="fill:#9acd32;stroke:#9acd32;" x="185.529319" xlink:href="#mb129b8495d" y="30.334099"/>
     <use style="fill:#9acd32;stroke:#9acd32;" x="185.529319" xlink:href="#mb129b8495d" y="30.334099"/>
    </g>
   </g>
   <g id="line2d_56">
    <path d="M 89.277618 298.944 
L 89.277618 298.417314 
L 89.835723 298.417314 
L 89.835723 297.890628 
L 89.972502 297.890628 
L 89.972502 297.363942 
L 92.026554 297.363942 
L 92.026554 296.837256 
L 93.972622 296.837256 
L 94.080605 294.730511 
L 94.294587 294.730511 
L 94.294587 293.150453 
L 94.714831 293.150453 
L 94.818328 292.097081 
L 95.226283 292.097081 
L 95.226283 291.570395 
L 95.426737 291.570395 
L 95.426737 291.043709 
L 95.624913 291.043709 
L 95.624913 290.517023 
L 96.489848 290.517023 
L 96.489848 289.990337 
L 97.842408 289.990337 
L 97.928955 288.410278 
L 98.43941 288.410278 
L 98.43941 287.883592 
L 98.771596 287.883592 
L 98.771596 287.356906 
L 101.007498 287.356906 
L 101.007498 286.303534 
L 101.151625 286.303534 
L 101.151625 285.250162 
L 101.365607 285.250162 
L 101.365607 284.723476 
L 101.923711 284.723476 
L 101.923711 284.19679 
L 103.117741 284.19679 
L 103.117741 283.670104 
L 103.685435 283.670104 
L 103.685435 283.143418 
L 103.870632 283.143418 
L 103.93193 282.090045 
L 104.114542 282.090045 
L 104.17499 281.036673 
L 104.709797 281.036673 
L 104.709797 280.509987 
L 104.999975 280.509987 
L 104.999975 279.983301 
L 106.006367 279.983301 
L 106.006367 279.456615 
L 106.168594 279.456615 
L 106.168594 278.403243 
L 106.382575 278.403243 
L 106.435663 265.762777 
L 106.541356 265.762777 
L 106.593963 264.709405 
L 106.906317 264.709405 
L 107.009204 263.656033 
L 107.614095 263.656033 
L 107.614095 263.129347 
L 108.054381 263.129347 
L 108.102622 262.075974 
L 108.577836 262.075974 
L 108.577836 261.549288 
L 108.764355 261.549288 
L 108.764355 261.022602 
L 108.948899 261.022602 
L 108.948899 260.495916 
L 109.357119 260.495916 
L 109.357119 259.96923 
L 110.016944 259.96923 
L 110.016944 259.442544 
L 110.231452 259.442544 
L 110.231452 258.915858 
L 111.545148 258.915858 
L 111.545148 258.389172 
L 111.663381 258.389172 
L 111.74176 257.3358 
L 111.780817 257.3358 
L 111.819788 256.282427 
L 111.897469 256.282427 
L 111.897469 255.755741 
L 113.095487 255.755741 
L 113.13163 254.702369 
L 113.27546 254.702369 
L 113.382559 253.122311 
L 113.418114 253.122311 
L 113.418114 252.068939 
L 113.769724 252.068939 
L 113.769724 251.542253 
L 114.080224 251.542253 
L 114.080224 251.015567 
L 114.452366 251.015567 
L 114.485807 249.962195 
L 114.618932 249.962195 
L 114.652055 245.22202 
L 114.947365 245.22202 
L 114.947365 244.695334 
L 115.33349 244.695334 
L 115.33349 244.168648 
L 115.742365 244.168648 
L 115.804426 212.040797 
L 117.145424 212.040797 
L 117.202696 210.987425 
L 117.875678 210.987425 
L 117.875678 210.460738 
L 118.094355 210.460738 
L 118.094355 209.407366 
L 118.576578 209.407366 
L 118.576578 207.827308 
L 118.734401 207.827308 
L 118.734401 195.713528 
L 119.199476 195.713528 
L 119.199476 195.186842 
L 120.190611 195.186842 
L 120.190611 192.553412 
L 120.453579 192.553412 
L 120.453579 192.026726 
L 121.264855 192.026726 
L 121.355214 180.966318 
L 122.80302 180.966318 
L 122.80302 180.439632 
L 122.968126 180.439632 
L 122.968126 179.912946 
L 123.152022 179.912946 
L 123.152022 179.38626 
L 123.652898 179.38626 
L 123.652898 165.692422 
L 166.260266 165.692422 
L 166.328769 164.63905 
L 166.449704 164.63905 
L 166.534369 131.457826 
L 166.596758 131.457826 
L 166.670661 129.351082 
L 166.730894 129.351082 
L 166.802568 125.66428 
L 166.859033 125.66428 
L 166.931835 91.95637 
L 166.986237 91.95637 
L 166.997755 77.735846 
L 178.34568 77.735846 
L 178.447497 62.988636 
L 178.484993 62.988636 
L 178.551267 46.661368 
L 185.441567 46.661368 
L 185.529319 30.334099 
L 338.688 30.334099 
L 338.688 30.334099 
" style="fill:none;stroke:#9acd32;stroke-linecap:square;stroke-width:1.5;"/>
   </g>
   <g id="line2d_57">
    <defs>
     <path d="M 0 -6 
L -6 6 
L 6 6 
z
" id="mdf2b55a069" style="stroke:#9acd32;stroke-linejoin:miter;stroke-width:1.5;"/>
    </defs>
    <g>
     <use style="fill-opacity:0;stroke:#9acd32;stroke-linejoin:miter;stroke-width:1.5;" x="123.652898" xlink:href="#mdf2b55a069" y="179.38626"/>
     <use style="fill-opacity:0;stroke:#9acd32;stroke-linejoin:miter;stroke-width:1.5;" x="166.997755" xlink:href="#mdf2b55a069" y="90.376312"/>
     <use style="fill-opacity:0;stroke:#9acd32;stroke-linejoin:miter;stroke-width:1.5;" x="185.529319" xlink:href="#mdf2b55a069" y="30.334099"/>
     <use style="fill-opacity:0;stroke:#9acd32;stroke-linejoin:miter;stroke-width:1.5;" x="185.529319" xlink:href="#mdf2b55a069" y="30.334099"/>
     <use style="fill-opacity:0;stroke:#9acd32;stroke-linejoin:miter;stroke-width:1.5;" x="338.688" xlink:href="#mdf2b55a069" y="30.334099"/>
    </g>
   </g>
   <g id="line2d_58">
    <path style="fill:none;stroke:#9acd32;stroke-linecap:square;stroke-width:1.5;"/>
    <g/>
   </g>
   <g id="line2d_59">
    <defs>
     <path d="M 0 1.5 
C 0.397805 1.5 0.77937 1.341951 1.06066 1.06066 
C 1.341951 0.77937 1.5 0.397805 1.5 0 
C 1.5 -0.397805 1.341951 -0.77937 1.06066 -1.06066 
C 0.77937 -1.341951 0.397805 -1.5 0 -1.5 
C -0.397805 -1.5 -0.77937 -1.341951 -1.06066 -1.06066 
C -1.341951 -0.77937 -1.5 -0.397805 -1.5 0 
C -1.5 0.397805 -1.341951 0.77937 -1.06066 1.06066 
C -0.77937 1.341951 -0.397805 1.5 0 1.5 
z
" id="mb434278316" style="stroke:#00bfbf;"/>
    </defs>
    <g>
     <use style="fill:#00bfbf;stroke:#00bfbf;" x="213.889286" xlink:href="#mb434278316" y="30.334099"/>
     <use style="fill:#00bfbf;stroke:#00bfbf;" x="213.889286" xlink:href="#mb434278316" y="30.334099"/>
    </g>
   </g>
   <g id="line2d_60">
    <path d="M 90.509138 298.944 
L 90.509138 298.417314 
L 95.023499 298.417314 
L 95.023499 297.890628 
L 97.842408 297.890628 
L 97.842408 297.363942 
L 98.015075 297.363942 
L 98.015075 296.837256 
L 98.771596 296.837256 
L 98.771596 296.31057 
L 101.079711 296.31057 
L 101.151625 295.257197 
L 101.506816 295.257197 
L 101.506816 294.730511 
L 101.854917 294.730511 
L 101.854917 294.203825 
L 103.372333 294.203825 
L 103.372333 293.677139 
L 103.498249 293.677139 
L 103.498249 293.150453 
L 103.993014 293.150453 
L 103.993014 292.623767 
L 104.23523 292.623767 
L 104.23523 292.097081 
L 104.884483 292.097081 
L 104.884483 291.570395 
L 106.06061 291.570395 
L 106.06061 291.043709 
L 106.750839 291.043709 
L 106.750839 290.517023 
L 107.860069 290.517023 
L 107.860069 289.463651 
L 108.198707 289.463651 
L 108.198707 288.936964 
L 108.624653 288.936964 
L 108.624653 288.410278 
L 109.535528 288.410278 
L 109.535528 287.883592 
L 110.016944 287.883592 
L 110.016944 287.356906 
L 110.443353 287.356906 
L 110.443353 286.83022 
L 111.702614 286.83022 
L 111.702614 286.303534 
L 112.204777 286.303534 
L 112.204777 285.776848 
L 112.469299 285.776848 
L 112.469299 284.723476 
L 113.095487 284.723476 
L 113.095487 284.19679 
L 113.55961 284.19679 
L 113.55961 283.670104 
L 113.839203 283.670104 
L 113.839203 283.143418 
L 114.317959 283.143418 
L 114.317959 282.616732 
L 114.816733 282.616732 
L 114.816733 282.090045 
L 115.10929 282.090045 
L 115.10929 281.563359 
L 115.269727 281.563359 
L 115.269727 281.036673 
L 115.680082 281.036673 
L 115.680082 279.983301 
L 115.835374 279.983301 
L 115.835374 279.456615 
L 116.38325 279.456615 
L 116.38325 278.929929 
L 116.709783 278.929929 
L 116.709783 278.403243 
L 116.827022 278.403243 
L 116.885347 276.823185 
L 117.820578 276.823185 
L 117.820578 276.296499 
L 118.06717 276.296499 
L 118.06717 260.495916 
L 118.390628 260.495916 
L 118.390628 259.96923 
L 118.602981 259.96923 
L 118.602981 259.442544 
L 119.199476 259.442544 
L 119.275797 257.862486 
L 119.326492 257.862486 
L 119.351785 255.755741 
L 120.166507 255.755741 
L 120.214681 253.648997 
L 120.689249 253.648997 
L 120.689249 253.122311 
L 121.036887 253.122311 
L 121.128432 252.068939 
L 121.151244 252.068939 
L 121.196777 249.962195 
L 121.264855 249.962195 
L 121.264855 237.321729 
L 121.467509 237.321729 
L 121.467509 236.795043 
L 121.712041 236.795043 
L 121.712041 235.74167 
L 122.040062 235.74167 
L 122.040062 235.214984 
L 122.212516 235.214984 
L 122.212516 233.634926 
L 122.468041 233.634926 
L 122.489167 232.581554 
L 122.678156 232.581554 
L 122.740699 217.834344 
L 122.968126 217.834344 
L 122.968126 217.307658 
L 123.494177 217.307658 
L 123.494177 216.780971 
L 123.613353 216.780971 
L 123.613353 215.727599 
L 123.731719 215.727599 
L 123.829748 214.674227 
L 124.387699 214.674227 
L 124.387699 203.613819 
L 125.147256 203.613819 
L 125.147256 200.453703 
L 125.291682 200.453703 
L 125.399222 198.873645 
L 125.927192 198.873645 
L 126.013653 192.553412 
L 126.355276 192.553412 
L 126.355276 192.026726 
L 126.47328 192.026726 
L 126.47328 191.50004 
L 126.640485 191.50004 
L 126.740043 165.165736 
L 127.923363 165.165736 
L 127.969682 163.585677 
L 128.061954 163.585677 
L 128.077285 151.471897 
L 128.381113 151.471897 
L 128.381113 150.418525 
L 128.531065 150.418525 
L 128.635269 138.831432 
L 129.233413 138.831432 
L 129.290685 125.137593 
L 129.602362 125.137593 
L 129.700375 124.084221 
L 129.853291 124.084221 
L 129.853291 123.030849 
L 130.073348 123.030849 
L 130.073348 122.504163 
L 130.371462 122.504163 
L 130.371462 121.977477 
L 130.756803 121.977477 
L 130.822389 120.924105 
L 130.939826 120.924105 
L 130.939826 107.756953 
L 131.962617 107.756953 
L 131.99937 106.176895 
L 132.194089 106.176895 
L 132.194089 91.95637 
L 132.683351 91.95637 
L 132.683351 91.429684 
L 132.905511 91.429684 
L 132.905511 90.376312 
L 133.22783 90.376312 
L 133.307488 89.32294 
L 134.052062 89.32294 
L 134.062938 88.269568 
L 134.182126 88.269568 
L 134.182126 76.682474 
L 134.640379 76.682474 
L 134.640379 76.155788 
L 136.428285 76.155788 
L 136.428285 75.629102 
L 137.451437 75.629102 
L 137.451437 75.102416 
L 137.805906 75.102416 
L 137.805906 74.57573 
L 137.997836 74.57573 
L 137.997836 73.522358 
L 138.885846 73.522358 
L 138.885846 72.468985 
L 139.863856 72.468985 
L 139.863856 67.728811 
L 140.042245 67.728811 
L 140.042245 60.881892 
L 156.027868 60.881892 
L 156.129394 59.82852 
L 156.251668 59.82852 
L 156.251668 57.195089 
L 156.394253 57.195089 
L 156.484659 56.141717 
L 156.604476 56.141717 
L 156.616413 55.088345 
L 156.735331 55.088345 
L 156.735331 54.561659 
L 157.084392 54.561659 
L 157.084392 45.607995 
L 194.235142 45.607995 
L 194.335597 41.394507 
L 194.352398 41.394507 
L 194.450819 37.181018 
L 194.464785 37.181018 
L 194.541231 35.074274 
L 194.816697 35.074274 
L 194.816697 34.547588 
L 195.974084 34.547588 
L 195.974084 34.020902 
L 206.245155 34.020902 
L 206.330892 31.387471 
L 206.41312 31.387471 
L 206.41312 30.860785 
L 213.889286 30.860785 
L 213.889286 30.334099 
L 338.688 30.334099 
L 338.688 30.334099 
" style="fill:none;stroke:#00bfbf;stroke-linecap:square;stroke-width:1.5;"/>
   </g>
   <g id="line2d_61">
    <defs>
     <path d="M 0 -6 
L -5.706339 -1.854102 
L -3.526712 4.854102 
L 3.526712 4.854102 
L 5.706339 -1.854102 
z
" id="md973eac878" style="stroke:#00bfbf;stroke-linejoin:miter;stroke-width:1.5;"/>
    </defs>
    <g>
     <use style="fill-opacity:0;stroke:#00bfbf;stroke-linejoin:miter;stroke-width:1.5;" x="131.99937" xlink:href="#md973eac878" y="106.176895"/>
     <use style="fill-opacity:0;stroke:#00bfbf;stroke-linejoin:miter;stroke-width:1.5;" x="213.889286" xlink:href="#md973eac878" y="30.860785"/>
     <use style="fill-opacity:0;stroke:#00bfbf;stroke-linejoin:miter;stroke-width:1.5;" x="213.889286" xlink:href="#md973eac878" y="30.334099"/>
     <use style="fill-opacity:0;stroke:#00bfbf;stroke-linejoin:miter;stroke-width:1.5;" x="213.889286" xlink:href="#md973eac878" y="30.334099"/>
     <use style="fill-opacity:0;stroke:#00bfbf;stroke-linejoin:miter;stroke-width:1.5;" x="338.688" xlink:href="#md973eac878" y="30.334099"/>
    </g>
   </g>
   <g id="line2d_62">
    <path style="fill:none;stroke:#00bfbf;stroke-linecap:square;stroke-width:1.5;"/>
    <g/>
   </g>
   <g id="line2d_63">
    <path clip-path="url(#pcd28cbde43)" d="M 194.045737 45.607995 
" style="fill:none;stroke:#00bfbf;stroke-linecap:square;stroke-width:1.5;"/>
    <defs>
     <path d="M -12 12 
L 12 -12 
M -12 -12 
L 12 12 
" id="m57c60aaef7" style="stroke:#00bfbf;"/>
    </defs>
    <g clip-path="url(#pcd28cbde43)">
     <use style="fill:#00bfbf;stroke:#00bfbf;" x="194.045737" xlink:href="#m57c60aaef7" y="45.607995"/>
    </g>
   </g>
   <g id="line2d_64">
    <path d="M 338.688 30.334099 
L 369.60768 293.571802 
" style="fill:none;stroke:#ff0000;stroke-linecap:square;stroke-width:1.5;"/>
    <g>
     <use style="fill-opacity:0;stroke:#ff0000;stroke-linejoin:miter;stroke-width:1.5;" x="338.688" xlink:href="#mb15a087b99" y="30.334099"/>
     <use style="fill-opacity:0;stroke:#ff0000;stroke-linejoin:miter;stroke-width:1.5;" x="369.60768" xlink:href="#mb15a087b99" y="293.571802"/>
    </g>
   </g>
   <g id="line2d_65">
    <path d="M 338.688 30.334099 
L 369.60768 256.733873 
" style="fill:none;stroke:#00bfbf;stroke-linecap:square;stroke-width:1.5;"/>
    <g>
     <use style="fill-opacity:0;stroke:#00bfbf;stroke-linejoin:miter;stroke-width:1.5;" x="338.688" xlink:href="#md973eac878" y="30.334099"/>
     <use style="fill-opacity:0;stroke:#00bfbf;stroke-linejoin:miter;stroke-width:1.5;" x="369.60768" xlink:href="#md973eac878" y="256.733873"/>
    </g>
   </g>
   <g id="line2d_66">
    <path d="M 338.688 30.334099 
L 369.60768 219.895943 
" style="fill:none;stroke:#000080;stroke-linecap:square;stroke-width:1.5;"/>
    <g>
     <use style="fill-opacity:0;stroke:#000080;stroke-width:1.5;" x="338.688" xlink:href="#md8f254525d" y="30.334099"/>
     <use style="fill-opacity:0;stroke:#000080;stroke-width:1.5;" x="369.60768" xlink:href="#md8f254525d" y="219.895943"/>
    </g>
   </g>
   <g id="line2d_67">
    <path d="M 338.688 30.334099 
L 369.60768 183.058014 
" style="fill:none;stroke:#9acd32;stroke-linecap:square;stroke-width:1.5;"/>
    <g>
     <use style="fill-opacity:0;stroke:#9acd32;stroke-linejoin:miter;stroke-width:1.5;" x="338.688" xlink:href="#mdf2b55a069" y="30.334099"/>
     <use style="fill-opacity:0;stroke:#9acd32;stroke-linejoin:miter;stroke-width:1.5;" x="369.60768" xlink:href="#mdf2b55a069" y="183.058014"/>
    </g>
   </g>
   <g id="line2d_68">
    <path d="M 338.688 30.334099 
L 369.60768 146.220085 
" style="fill:none;stroke:#ff7500;stroke-linecap:square;stroke-width:1.5;"/>
    <g>
     <use style="fill-opacity:0;stroke:#ff7500;stroke-linejoin:bevel;stroke-width:1.5;" x="338.688" xlink:href="#m14a3ed7d4a" y="30.334099"/>
     <use style="fill-opacity:0;stroke:#ff7500;stroke-linejoin:bevel;stroke-width:1.5;" x="369.60768" xlink:href="#m14a3ed7d4a" y="146.220085"/>
    </g>
   </g>
   <g id="line2d_69">
    <path d="M 338.688 30.334099 
L 369.60768 109.382156 
" style="fill:none;stroke:#6495ed;stroke-linecap:square;stroke-width:1.5;"/>
    <g>
     <use style="fill-opacity:0;stroke:#6495ed;stroke-linejoin:miter;stroke-width:1.5;" x="338.688" xlink:href="#m23eac62559" y="30.334099"/>
     <use style="fill-opacity:0;stroke:#6495ed;stroke-linejoin:miter;stroke-width:1.5;" x="369.60768" xlink:href="#m23eac62559" y="109.382156"/>
    </g>
   </g>
   <g id="line2d_70">
    <path d="M 338.688 30.334099 
L 369.60768 72.544226 
" style="fill:none;stroke:#ff00ff;stroke-linecap:square;stroke-width:1.5;"/>
    <g>
     <use style="fill-opacity:0;stroke:#ff00ff;stroke-linejoin:miter;stroke-width:1.5;" x="338.688" xlink:href="#mc162afca11" y="30.334099"/>
     <use style="fill-opacity:0;stroke:#ff00ff;stroke-linejoin:miter;stroke-width:1.5;" x="369.60768" xlink:href="#mc162afca11" y="72.544226"/>
    </g>
   </g>
   <g id="line2d_71">
    <path d="M 338.688 298.944 
L 338.688 30.334099 
" style="fill:none;stroke:#000000;stroke-linecap:square;stroke-width:1.5;"/>
   </g>
   <g id="patch_3">
    <path d="M 57.6 298.944 
L 57.6 27.648 
" style="fill:none;stroke:#000000;stroke-linecap:square;stroke-linejoin:miter;stroke-width:0.8;"/>
   </g>
   <g id="patch_4">
    <path d="M 338.688 298.944 
L 338.688 27.648 
" style="fill:none;stroke:#000000;stroke-linecap:square;stroke-linejoin:miter;stroke-width:0.8;"/>
   </g>
   <g id="patch_5">
    <path d="M 57.6 298.944 
L 338.688 298.944 
" style="fill:none;stroke:#000000;stroke-linecap:square;stroke-linejoin:miter;stroke-width:0.8;"/>
   </g>
   <g id="patch_6">
    <path d="M 57.6 27.648 
L 338.688 27.648 
" style="fill:none;stroke:#000000;stroke-linecap:square;stroke-linejoin:miter;stroke-width:0.8;"/>
   </g>
   <g id="text_13">
    <!-- PSO -->
    <g transform="translate(375.22944 298.262739)scale(0.17 -0.17)">
     <defs>
      <path d="M 1259 4147 
L 1259 2394 
L 2053 2394 
Q 2494 2394 2734 2622 
Q 2975 2850 2975 3272 
Q 2975 3691 2734 3919 
Q 2494 4147 2053 4147 
L 1259 4147 
z
M 628 4666 
L 2053 4666 
Q 2838 4666 3239 4311 
Q 3641 3956 3641 3272 
Q 3641 2581 3239 2228 
Q 2838 1875 2053 1875 
L 1259 1875 
L 1259 0 
L 628 0 
L 628 4666 
z
" id="DejaVuSans-50" transform="scale(0.015625)"/>
      <path d="M 3425 4513 
L 3425 3897 
Q 3066 4069 2747 4153 
Q 2428 4238 2131 4238 
Q 1616 4238 1336 4038 
Q 1056 3838 1056 3469 
Q 1056 3159 1242 3001 
Q 1428 2844 1947 2747 
L 2328 2669 
Q 3034 2534 3370 2195 
Q 3706 1856 3706 1288 
Q 3706 609 3251 259 
Q 2797 -91 1919 -91 
Q 1588 -91 1214 -16 
Q 841 59 441 206 
L 441 856 
Q 825 641 1194 531 
Q 1563 422 1919 422 
Q 2459 422 2753 634 
Q 3047 847 3047 1241 
Q 3047 1584 2836 1778 
Q 2625 1972 2144 2069 
L 1759 2144 
Q 1053 2284 737 2584 
Q 422 2884 422 3419 
Q 422 4038 858 4394 
Q 1294 4750 2059 4750 
Q 2388 4750 2728 4690 
Q 3069 4631 3425 4513 
z
" id="DejaVuSans-53" transform="scale(0.015625)"/>
      <path d="M 2522 4238 
Q 1834 4238 1429 3725 
Q 1025 3213 1025 2328 
Q 1025 1447 1429 934 
Q 1834 422 2522 422 
Q 3209 422 3611 934 
Q 4013 1447 4013 2328 
Q 4013 3213 3611 3725 
Q 3209 4238 2522 4238 
z
M 2522 4750 
Q 3503 4750 4090 4092 
Q 4678 3434 4678 2328 
Q 4678 1225 4090 567 
Q 3503 -91 2522 -91 
Q 1538 -91 948 565 
Q 359 1222 359 2328 
Q 359 3434 948 4092 
Q 1538 4750 2522 4750 
z
" id="DejaVuSans-4f" transform="scale(0.015625)"/>
     </defs>
     <use xlink:href="#DejaVuSans-50"/>
     <use x="60.302734" xlink:href="#DejaVuSans-53"/>
     <use x="123.779297" xlink:href="#DejaVuSans-4f"/>
    </g>
   </g>
   <g id="text_14">
    <!-- PSO EDA -->
    <g transform="translate(375.22944 261.42481)scale(0.17 -0.17)">
     <defs>
      <path d="M 628 4666 
L 3578 4666 
L 3578 4134 
L 1259 4134 
L 1259 2753 
L 3481 2753 
L 3481 2222 
L 1259 2222 
L 1259 531 
L 3634 531 
L 3634 0 
L 628 0 
L 628 4666 
z
" id="DejaVuSans-45" transform="scale(0.015625)"/>
      <path d="M 1259 4147 
L 1259 519 
L 2022 519 
Q 2988 519 3436 956 
Q 3884 1394 3884 2338 
Q 3884 3275 3436 3711 
Q 2988 4147 2022 4147 
L 1259 4147 
z
M 628 4666 
L 1925 4666 
Q 3281 4666 3915 4102 
Q 4550 3538 4550 2338 
Q 4550 1131 3912 565 
Q 3275 0 1925 0 
L 628 0 
L 628 4666 
z
" id="DejaVuSans-44" transform="scale(0.015625)"/>
      <path d="M 2188 4044 
L 1331 1722 
L 3047 1722 
L 2188 4044 
z
M 1831 4666 
L 2547 4666 
L 4325 0 
L 3669 0 
L 3244 1197 
L 1141 1197 
L 716 0 
L 50 0 
L 1831 4666 
z
" id="DejaVuSans-41" transform="scale(0.015625)"/>
     </defs>
     <use xlink:href="#DejaVuSans-50"/>
     <use x="60.302734" xlink:href="#DejaVuSans-53"/>
     <use x="123.779297" xlink:href="#DejaVuSans-4f"/>
     <use x="202.490234" xlink:href="#DejaVuSans-20"/>
     <use x="234.277344" xlink:href="#DejaVuSans-45"/>
     <use x="297.460938" xlink:href="#DejaVuSans-44"/>
     <use x="372.712891" xlink:href="#DejaVuSans-41"/>
    </g>
   </g>
   <g id="text_15">
    <!-- Bin GA -->
    <g transform="translate(375.22944 224.586881)scale(0.17 -0.17)">
     <defs>
      <path d="M 1259 2228 
L 1259 519 
L 2272 519 
Q 2781 519 3026 730 
Q 3272 941 3272 1375 
Q 3272 1813 3026 2020 
Q 2781 2228 2272 2228 
L 1259 2228 
z
M 1259 4147 
L 1259 2741 
L 2194 2741 
Q 2656 2741 2882 2914 
Q 3109 3088 3109 3444 
Q 3109 3797 2882 3972 
Q 2656 4147 2194 4147 
L 1259 4147 
z
M 628 4666 
L 2241 4666 
Q 2963 4666 3353 4366 
Q 3744 4066 3744 3513 
Q 3744 3084 3544 2831 
Q 3344 2578 2956 2516 
Q 3422 2416 3680 2098 
Q 3938 1781 3938 1306 
Q 3938 681 3513 340 
Q 3088 0 2303 0 
L 628 0 
L 628 4666 
z
" id="DejaVuSans-42" transform="scale(0.015625)"/>
      <path d="M 3809 666 
L 3809 1919 
L 2778 1919 
L 2778 2438 
L 4434 2438 
L 4434 434 
Q 4069 175 3628 42 
Q 3188 -91 2688 -91 
Q 1594 -91 976 548 
Q 359 1188 359 2328 
Q 359 3472 976 4111 
Q 1594 4750 2688 4750 
Q 3144 4750 3555 4637 
Q 3966 4525 4313 4306 
L 4313 3634 
Q 3963 3931 3569 4081 
Q 3175 4231 2741 4231 
Q 1884 4231 1454 3753 
Q 1025 3275 1025 2328 
Q 1025 1384 1454 906 
Q 1884 428 2741 428 
Q 3075 428 3337 486 
Q 3600 544 3809 666 
z
" id="DejaVuSans-47" transform="scale(0.015625)"/>
     </defs>
     <use xlink:href="#DejaVuSans-42"/>
     <use x="68.603516" xlink:href="#DejaVuSans-69"/>
     <use x="96.386719" xlink:href="#DejaVuSans-6e"/>
     <use x="159.765625" xlink:href="#DejaVuSans-20"/>
     <use x="191.552734" xlink:href="#DejaVuSans-47"/>
     <use x="269.042969" xlink:href="#DejaVuSans-41"/>
    </g>
   </g>
   <g id="text_16">
    <!-- PSO Bound -->
    <g transform="translate(375.22944 187.748952)scale(0.17 -0.17)">
     <use xlink:href="#DejaVuSans-50"/>
     <use x="60.302734" xlink:href="#DejaVuSans-53"/>
     <use x="123.779297" xlink:href="#DejaVuSans-4f"/>
     <use x="202.490234" xlink:href="#DejaVuSans-20"/>
     <use x="234.277344" xlink:href="#DejaVuSans-42"/>
     <use x="302.880859" xlink:href="#DejaVuSans-6f"/>
     <use x="364.0625" xlink:href="#DejaVuSans-75"/>
     <use x="427.441406" xlink:href="#DejaVuSans-6e"/>
     <use x="490.820312" xlink:href="#DejaVuSans-64"/>
    </g>
   </g>
   <g id="text_17">
    <!-- DEAE -->
    <g transform="translate(375.22944 150.911022)scale(0.17 -0.17)">
     <use xlink:href="#DejaVuSans-44"/>
     <use x="77.001953" xlink:href="#DejaVuSans-45"/>
     <use x="140.185547" xlink:href="#DejaVuSans-41"/>
     <use x="208.59375" xlink:href="#DejaVuSans-45"/>
    </g>
   </g>
   <g id="text_18">
    <!-- JADE -->
    <g transform="translate(375.22944 114.073093)scale(0.17 -0.17)">
     <defs>
      <path d="M 628 4666 
L 1259 4666 
L 1259 325 
Q 1259 -519 939 -900 
Q 619 -1281 -91 -1281 
L -331 -1281 
L -331 -750 
L -134 -750 
Q 284 -750 456 -515 
Q 628 -281 628 325 
L 628 4666 
z
" id="DejaVuSans-4a" transform="scale(0.015625)"/>
     </defs>
     <use xlink:href="#DejaVuSans-4a"/>
     <use x="27.742188" xlink:href="#DejaVuSans-41"/>
     <use x="96.150391" xlink:href="#DejaVuSans-44"/>
     <use x="173.152344" xlink:href="#DejaVuSans-45"/>
    </g>
   </g>
   <g id="text_19">
    <!-- DE -->
    <g transform="translate(375.22944 77.235164)scale(0.17 -0.17)">
     <use xlink:href="#DejaVuSans-44"/>
     <use x="77.001953" xlink:href="#DejaVuSans-45"/>
    </g>
   </g>
   <g id="text_20">
    <!-- best 2009 -->
    <g transform="translate(375.22944 40.397235)scale(0.17 -0.17)">
     <defs>
      <path d="M 3116 1747 
Q 3116 2381 2855 2742 
Q 2594 3103 2138 3103 
Q 1681 3103 1420 2742 
Q 1159 2381 1159 1747 
Q 1159 1113 1420 752 
Q 1681 391 2138 391 
Q 2594 391 2855 752 
Q 3116 1113 3116 1747 
z
M 1159 2969 
Q 1341 3281 1617 3432 
Q 1894 3584 2278 3584 
Q 2916 3584 3314 3078 
Q 3713 2572 3713 1747 
Q 3713 922 3314 415 
Q 2916 -91 2278 -91 
Q 1894 -91 1617 61 
Q 1341 213 1159 525 
L 1159 0 
L 581 0 
L 581 4863 
L 1159 4863 
L 1159 2969 
z
" id="DejaVuSans-62" transform="scale(0.015625)"/>
      <path d="M 703 97 
L 703 672 
Q 941 559 1184 500 
Q 1428 441 1663 441 
Q 2288 441 2617 861 
Q 2947 1281 2994 2138 
Q 2813 1869 2534 1725 
Q 2256 1581 1919 1581 
Q 1219 1581 811 2004 
Q 403 2428 403 3163 
Q 403 3881 828 4315 
Q 1253 4750 1959 4750 
Q 2769 4750 3195 4129 
Q 3622 3509 3622 2328 
Q 3622 1225 3098 567 
Q 2575 -91 1691 -91 
Q 1453 -91 1209 -44 
Q 966 3 703 97 
z
M 1959 2075 
Q 2384 2075 2632 2365 
Q 2881 2656 2881 3163 
Q 2881 3666 2632 3958 
Q 2384 4250 1959 4250 
Q 1534 4250 1286 3958 
Q 1038 3666 1038 3163 
Q 1038 2656 1286 2365 
Q 1534 2075 1959 2075 
z
" id="DejaVuSans-39" transform="scale(0.015625)"/>
     </defs>
     <use xlink:href="#DejaVuSans-62"/>
     <use x="63.476562" xlink:href="#DejaVuSans-65"/>
     <use x="125" xlink:href="#DejaVuSans-73"/>
     <use x="177.099609" xlink:href="#DejaVuSans-74"/>
     <use x="216.308594" xlink:href="#DejaVuSans-20"/>
     <use x="248.095703" xlink:href="#DejaVuSans-32"/>
     <use x="311.71875" xlink:href="#DejaVuSans-30"/>
     <use x="375.341797" xlink:href="#DejaVuSans-30"/>
     <use x="438.964844" xlink:href="#DejaVuSans-39"/>
    </g>
   </g>
   <g id="text_21">
    <!-- bbob f5, 20-D -->
    <g transform="translate(60.41088 38.111366)scale(0.102 -0.102)">
     <defs>
      <path d="M 691 4666 
L 3169 4666 
L 3169 4134 
L 1269 4134 
L 1269 2991 
Q 1406 3038 1543 3061 
Q 1681 3084 1819 3084 
Q 2600 3084 3056 2656 
Q 3513 2228 3513 1497 
Q 3513 744 3044 326 
Q 2575 -91 1722 -91 
Q 1428 -91 1123 -41 
Q 819 9 494 109 
L 494 744 
Q 775 591 1075 516 
Q 1375 441 1709 441 
Q 2250 441 2565 725 
Q 2881 1009 2881 1497 
Q 2881 1984 2565 2268 
Q 2250 2553 1709 2553 
Q 1456 2553 1204 2497 
Q 953 2441 691 2322 
L 691 4666 
z
" id="DejaVuSans-35" transform="scale(0.015625)"/>
     </defs>
     <use xlink:href="#DejaVuSans-62"/>
     <use x="63.476562" xlink:href="#DejaVuSans-62"/>
     <use x="126.953125" xlink:href="#DejaVuSans-6f"/>
     <use x="188.134766" xlink:href="#DejaVuSans-62"/>
     <use x="251.611328" xlink:href="#DejaVuSans-20"/>
     <use x="283.398438" xlink:href="#DejaVuSans-66"/>
     <use x="318.603516" xlink:href="#DejaVuSans-35"/>
     <use x="382.226562" xlink:href="#DejaVuSans-2c"/>
     <use x="414.013672" xlink:href="#DejaVuSans-20"/>
     <use x="445.800781" xlink:href="#DejaVuSans-32"/>
     <use x="509.423828" xlink:href="#DejaVuSans-30"/>
     <use x="573.046875" xlink:href="#DejaVuSans-2d"/>
     <use x="609.130859" xlink:href="#DejaVuSans-44"/>
    </g>
    <!-- 51 targets: 100..1e-08 -->
    <g transform="translate(60.41088 49.533135)scale(0.102 -0.102)">
     <defs>
      <path d="M 750 794 
L 1409 794 
L 1409 0 
L 750 0 
L 750 794 
z
M 750 3309 
L 1409 3309 
L 1409 2516 
L 750 2516 
L 750 3309 
z
" id="DejaVuSans-3a" transform="scale(0.015625)"/>
     </defs>
     <use xlink:href="#DejaVuSans-35"/>
     <use x="63.623047" xlink:href="#DejaVuSans-31"/>
     <use x="127.246094" xlink:href="#DejaVuSans-20"/>
     <use x="159.033203" xlink:href="#DejaVuSans-74"/>
     <use x="198.242188" xlink:href="#DejaVuSans-61"/>
     <use x="259.521484" xlink:href="#DejaVuSans-72"/>
     <use x="298.884766" xlink:href="#DejaVuSans-67"/>
     <use x="362.361328" xlink:href="#DejaVuSans-65"/>
     <use x="423.884766" xlink:href="#DejaVuSans-74"/>
     <use x="463.09375" xlink:href="#DejaVuSans-73"/>
     <use x="515.193359" xlink:href="#DejaVuSans-3a"/>
     <use x="548.884766" xlink:href="#DejaVuSans-20"/>
     <use x="580.671875" xlink:href="#DejaVuSans-31"/>
     <use x="644.294922" xlink:href="#DejaVuSans-30"/>
     <use x="707.917969" xlink:href="#DejaVuSans-30"/>
     <use x="771.541016" xlink:href="#DejaVuSans-2e"/>
     <use x="803.328125" xlink:href="#DejaVuSans-2e"/>
     <use x="835.115234" xlink:href="#DejaVuSans-31"/>
     <use x="898.738281" xlink:href="#DejaVuSans-65"/>
     <use x="960.261719" xlink:href="#DejaVuSans-2d"/>
     <use x="996.345703" xlink:href="#DejaVuSans-30"/>
     <use x="1059.96875" xlink:href="#DejaVuSans-38"/>
    </g>
    <!-- 15 instances -->
    <g transform="translate(60.41088 60.954904)scale(0.102 -0.102)">
     <use xlink:href="#DejaVuSans-31"/>
     <use x="63.623047" xlink:href="#DejaVuSans-35"/>
     <use x="127.246094" xlink:href="#DejaVuSans-20"/>
     <use x="159.033203" xlink:href="#DejaVuSans-69"/>
     <use x="186.816406" xlink:href="#DejaVuSans-6e"/>
     <use x="250.195312" xlink:href="#DejaVuSans-73"/>
     <use x="302.294922" xlink:href="#DejaVuSans-74"/>
     <use x="341.503906" xlink:href="#DejaVuSans-61"/>
     <use x="402.783203" xlink:href="#DejaVuSans-6e"/>
     <use x="466.162109" xlink:href="#DejaVuSans-63"/>
     <use x="521.142578" xlink:href="#DejaVuSans-65"/>
     <use x="582.666016" xlink:href="#DejaVuSans-73"/>
    </g>
   </g>
   <g id="text_22">
    <!-- v2.4 -->
    <g style="fill:#808080;" transform="translate(187.233062 294.151352)scale(0.1 -0.1)">
     <use xlink:href="#DejaVuSans-76"/>
     <use x="59.179688" xlink:href="#DejaVuSans-32"/>
     <use x="122.802734" xlink:href="#DejaVuSans-2e"/>
     <use x="154.589844" xlink:href="#DejaVuSans-34"/>
    </g>
   </g>
   <g id="text_23">
    <!-- 5 Linear slope -->
    <g transform="translate(127.73775 21.648)scale(0.2 -0.2)">
     <defs>
      <path d="M 628 4666 
L 1259 4666 
L 1259 531 
L 3531 531 
L 3531 0 
L 628 0 
L 628 4666 
z
" id="DejaVuSans-4c" transform="scale(0.015625)"/>
     </defs>
     <use xlink:href="#DejaVuSans-35"/>
     <use x="63.623047" xlink:href="#DejaVuSans-20"/>
     <use x="95.410156" xlink:href="#DejaVuSans-4c"/>
     <use x="151.123047" xlink:href="#DejaVuSans-69"/>
     <use x="178.90625" xlink:href="#DejaVuSans-6e"/>
     <use x="242.285156" xlink:href="#DejaVuSans-65"/>
     <use x="303.808594" xlink:href="#DejaVuSans-61"/>
     <use x="365.087891" xlink:href="#DejaVuSans-72"/>
     <use x="406.201172" xlink:href="#DejaVuSans-20"/>
     <use x="437.988281" xlink:href="#DejaVuSans-73"/>
     <use x="490.087891" xlink:href="#DejaVuSans-6c"/>
     <use x="517.871094" xlink:href="#DejaVuSans-6f"/>
     <use x="579.052734" xlink:href="#DejaVuSans-70"/>
     <use x="642.529297" xlink:href="#DejaVuSans-65"/>
    </g>
   </g>
  </g>
 </g>
 <defs>
  <clipPath id="pcd28cbde43">
   <rect height="271.296" width="281.088" x="57.6" y="27.648"/>
  </clipPath>
 </defs>
</svg>
