<?xml version="1.0" encoding="utf-8" standalone="no"?>
<!DOCTYPE svg PUBLIC "-//W3C//DTD SVG 1.1//EN"
  "http://www.w3.org/Graphics/SVG/1.1/DTD/svg11.dtd">
<svg height="345.6pt" version="1.1" viewBox="0 0 460.8 345.6" width="460.8pt" xmlns="http://www.w3.org/2000/svg" xmlns:xlink="http://www.w3.org/1999/xlink">
 <metadata>
  <rdf:RDF xmlns:cc="http://creativecommons.org/ns#" xmlns:dc="http://purl.org/dc/elements/1.1/" xmlns:rdf="http://www.w3.org/1999/02/22-rdf-syntax-ns#">
   <cc:Work>
    <dc:type rdf:resource="http://purl.org/dc/dcmitype/StillImage"/>
    <dc:date>2021-04-26T19:19:16.583658</dc:date>
    <dc:format>image/svg+xml</dc:format>
    <dc:creator>
     <cc:Agent>
      <dc:title>Matplotlib v3.4.1, https://matplotlib.org/</dc:title>
     </cc:Agent>
    </dc:creator>
   </cc:Work>
  </rdf:RDF>
 </metadata>
 <defs>
  <style type="text/css">*{stroke-linecap:butt;stroke-linejoin:round;}</style>
 </defs>
 <g id="figure_1">
  <g id="patch_1">
   <path d="M 0 345.6 
L 460.8 345.6 
L 460.8 0 
L 0 0 
z
" style="fill:#ffffff;"/>
  </g>
  <g id="axes_1">
   <g id="patch_2">
    <path d="M 57.6 298.944 
L 338.688 298.944 
L 338.688 27.648 
L 57.6 27.648 
z
" style="fill:#ffffff;"/>
   </g>
   <g id="line2d_1">
    <path d="M 114.418861 298.944 
L 114.418861 293.677139 
L 118.012672 293.677139 
L 118.012672 288.410278 
L 121.623516 288.410278 
L 121.623516 283.143418 
L 124.101333 283.143418 
L 124.101333 277.876557 
L 127.132689 277.876557 
L 127.132689 272.609696 
L 130.344571 272.609696 
L 130.344571 267.342835 
L 132.636218 267.342835 
L 132.636218 262.075974 
L 134.513701 262.075974 
L 134.513701 256.809114 
L 136.776048 256.809114 
L 136.776048 251.542253 
L 138.358484 251.542253 
L 138.358484 246.275392 
L 140.671233 246.275392 
L 140.671233 241.008531 
L 142.586623 241.008531 
L 142.586623 235.74167 
L 143.809805 235.74167 
L 143.809805 230.47481 
L 145.120836 230.47481 
L 145.120836 225.207949 
L 146.052799 225.207949 
L 146.052799 219.941088 
L 147.231185 219.941088 
L 147.231185 214.674227 
L 148.368502 214.674227 
L 148.368502 209.407366 
L 149.200437 209.407366 
L 149.200437 204.140506 
L 149.690956 204.140506 
L 149.690956 198.873645 
L 150.339914 198.873645 
L 150.339914 193.606784 
L 151.0766 193.606784 
L 151.0766 188.339923 
L 152.149514 188.339923 
L 152.149514 183.073062 
L 153.243677 183.073062 
L 153.243677 177.806202 
L 153.711515 177.806202 
L 153.711515 172.539341 
L 154.167129 172.539341 
L 154.167129 167.27248 
L 154.641235 167.27248 
L 154.641235 162.005619 
L 155.04413 162.005619 
L 155.04413 156.738758 
L 155.596784 156.738758 
L 155.596784 151.471897 
L 156.120189 151.471897 
L 156.120189 146.205037 
L 156.397275 146.205037 
L 156.397275 140.938176 
L 156.941506 140.938176 
L 156.941506 135.671315 
L 157.63607 135.671315 
L 157.63607 130.404454 
L 158.086033 130.404454 
L 158.086033 125.137593 
L 158.449648 125.137593 
L 158.449648 119.870733 
L 158.721434 119.870733 
L 158.721434 114.603872 
L 159.066985 114.603872 
L 159.066985 109.337011 
L 159.454056 109.337011 
L 159.454056 104.07015 
L 159.738201 104.07015 
L 159.738201 98.803289 
L 160.186333 98.803289 
L 160.186333 93.536429 
L 160.776661 93.536429 
L 160.776661 88.269568 
L 161.233571 88.269568 
L 161.233571 83.002707 
L 161.667653 83.002707 
L 161.667653 77.735846 
L 161.984076 77.735846 
L 161.984076 72.468985 
L 162.243086 72.468985 
L 162.243086 67.202125 
L 162.585379 67.202125 
L 162.585379 61.935264 
L 162.956374 61.935264 
L 162.956374 56.668403 
L 163.115337 56.668403 
L 163.115337 51.401542 
L 163.557683 51.401542 
L 163.557683 46.134681 
L 163.973442 46.134681 
L 163.973442 40.867821 
L 164.471025 40.867821 
L 164.471025 35.60096 
L 164.858371 35.60096 
L 164.858371 30.334099 
L 338.688 30.334099 
" style="fill:none;stroke:#f5deb3;stroke-linecap:square;stroke-width:4;"/>
   </g>
   <g id="line2d_2">
    <defs>
     <path d="M 0 7.778175 
L 7.778175 0 
L 0 -7.778175 
L -7.778175 0 
z
" id="m6f06492efe" style="stroke:#f5deb3;stroke-linejoin:miter;stroke-width:1.5;"/>
    </defs>
    <g>
     <use style="fill:#f5deb3;stroke:#f5deb3;stroke-linejoin:miter;stroke-width:1.5;" x="136.776048" xlink:href="#m6f06492efe" y="256.809114"/>
     <use style="fill:#f5deb3;stroke:#f5deb3;stroke-linejoin:miter;stroke-width:1.5;" x="158.721434" xlink:href="#m6f06492efe" y="119.870733"/>
     <use style="fill:#f5deb3;stroke:#f5deb3;stroke-linejoin:miter;stroke-width:1.5;" x="164.858371" xlink:href="#m6f06492efe" y="35.60096"/>
     <use style="fill:#f5deb3;stroke:#f5deb3;stroke-linejoin:miter;stroke-width:1.5;" x="164.858371" xlink:href="#m6f06492efe" y="30.334099"/>
     <use style="fill:#f5deb3;stroke:#f5deb3;stroke-linejoin:miter;stroke-width:1.5;" x="338.688" xlink:href="#m6f06492efe" y="30.334099"/>
    </g>
   </g>
   <g id="line2d_3">
    <path style="fill:none;stroke:#f5deb3;stroke-linecap:square;stroke-width:4;"/>
    <g/>
   </g>
   <g id="line2d_4">
    <path d="M 338.688 30.334099 
L 369.60768 35.706297 
" style="fill:none;stroke:#f5deb3;stroke-linecap:square;stroke-width:4;"/>
    <g>
     <use style="fill:#f5deb3;stroke:#f5deb3;stroke-linejoin:miter;stroke-width:1.5;" x="338.688" xlink:href="#m6f06492efe" y="30.334099"/>
     <use style="fill:#f5deb3;stroke:#f5deb3;stroke-linejoin:miter;stroke-width:1.5;" x="369.60768" xlink:href="#m6f06492efe" y="35.706297"/>
    </g>
   </g>
   <g id="matplotlib.axis_1">
    <g id="xtick_1">
     <g id="line2d_5">
      <path clip-path="url(#pd4b10b0194)" d="M 57.6 298.944 
L 57.6 27.648 
" style="fill:none;stroke:#b0b0b0;stroke-linecap:square;stroke-width:0.8;"/>
     </g>
     <g id="line2d_6">
      <defs>
       <path d="M 0 0 
L 0 3.5 
" id="m3970cde5f1" style="stroke:#000000;stroke-width:0.8;"/>
      </defs>
      <g>
       <use style="stroke:#000000;stroke-width:0.8;" x="57.6" xlink:href="#m3970cde5f1" y="298.944"/>
      </g>
     </g>
     <g id="text_1">
      <!-- 0 -->
      <g transform="translate(51.2375 321.140875)scale(0.2 -0.2)">
       <defs>
        <path d="M 2034 4250 
Q 1547 4250 1301 3770 
Q 1056 3291 1056 2328 
Q 1056 1369 1301 889 
Q 1547 409 2034 409 
Q 2525 409 2770 889 
Q 3016 1369 3016 2328 
Q 3016 3291 2770 3770 
Q 2525 4250 2034 4250 
z
M 2034 4750 
Q 2819 4750 3233 4129 
Q 3647 3509 3647 2328 
Q 3647 1150 3233 529 
Q 2819 -91 2034 -91 
Q 1250 -91 836 529 
Q 422 1150 422 2328 
Q 422 3509 836 4129 
Q 1250 4750 2034 4750 
z
" id="DejaVuSans-30" transform="scale(0.015625)"/>
       </defs>
       <use xlink:href="#DejaVuSans-30"/>
      </g>
     </g>
    </g>
    <g id="xtick_2">
     <g id="line2d_7">
      <path clip-path="url(#pd4b10b0194)" d="M 137.910857 298.944 
L 137.910857 27.648 
" style="fill:none;stroke:#b0b0b0;stroke-linecap:square;stroke-width:0.8;"/>
     </g>
     <g id="line2d_8">
      <g>
       <use style="stroke:#000000;stroke-width:0.8;" x="137.910857" xlink:href="#m3970cde5f1" y="298.944"/>
      </g>
     </g>
     <g id="text_2">
      <!-- 2 -->
      <g transform="translate(131.548357 321.140875)scale(0.2 -0.2)">
       <defs>
        <path d="M 1228 531 
L 3431 531 
L 3431 0 
L 469 0 
L 469 531 
Q 828 903 1448 1529 
Q 2069 2156 2228 2338 
Q 2531 2678 2651 2914 
Q 2772 3150 2772 3378 
Q 2772 3750 2511 3984 
Q 2250 4219 1831 4219 
Q 1534 4219 1204 4116 
Q 875 4013 500 3803 
L 500 4441 
Q 881 4594 1212 4672 
Q 1544 4750 1819 4750 
Q 2544 4750 2975 4387 
Q 3406 4025 3406 3419 
Q 3406 3131 3298 2873 
Q 3191 2616 2906 2266 
Q 2828 2175 2409 1742 
Q 1991 1309 1228 531 
z
" id="DejaVuSans-32" transform="scale(0.015625)"/>
       </defs>
       <use xlink:href="#DejaVuSans-32"/>
      </g>
     </g>
    </g>
    <g id="xtick_3">
     <g id="line2d_9">
      <path clip-path="url(#pd4b10b0194)" d="M 218.221714 298.944 
L 218.221714 27.648 
" style="fill:none;stroke:#b0b0b0;stroke-linecap:square;stroke-width:0.8;"/>
     </g>
     <g id="line2d_10">
      <g>
       <use style="stroke:#000000;stroke-width:0.8;" x="218.221714" xlink:href="#m3970cde5f1" y="298.944"/>
      </g>
     </g>
     <g id="text_3">
      <!-- 4 -->
      <g transform="translate(211.859214 321.140875)scale(0.2 -0.2)">
       <defs>
        <path d="M 2419 4116 
L 825 1625 
L 2419 1625 
L 2419 4116 
z
M 2253 4666 
L 3047 4666 
L 3047 1625 
L 3713 1625 
L 3713 1100 
L 3047 1100 
L 3047 0 
L 2419 0 
L 2419 1100 
L 313 1100 
L 313 1709 
L 2253 4666 
z
" id="DejaVuSans-34" transform="scale(0.015625)"/>
       </defs>
       <use xlink:href="#DejaVuSans-34"/>
      </g>
     </g>
    </g>
    <g id="xtick_4">
     <g id="line2d_11">
      <path clip-path="url(#pd4b10b0194)" d="M 298.532571 298.944 
L 298.532571 27.648 
" style="fill:none;stroke:#b0b0b0;stroke-linecap:square;stroke-width:0.8;"/>
     </g>
     <g id="line2d_12">
      <g>
       <use style="stroke:#000000;stroke-width:0.8;" x="298.532571" xlink:href="#m3970cde5f1" y="298.944"/>
      </g>
     </g>
     <g id="text_4">
      <!-- 6 -->
      <g transform="translate(292.170071 321.140875)scale(0.2 -0.2)">
       <defs>
        <path d="M 2113 2584 
Q 1688 2584 1439 2293 
Q 1191 2003 1191 1497 
Q 1191 994 1439 701 
Q 1688 409 2113 409 
Q 2538 409 2786 701 
Q 3034 994 3034 1497 
Q 3034 2003 2786 2293 
Q 2538 2584 2113 2584 
z
M 3366 4563 
L 3366 3988 
Q 3128 4100 2886 4159 
Q 2644 4219 2406 4219 
Q 1781 4219 1451 3797 
Q 1122 3375 1075 2522 
Q 1259 2794 1537 2939 
Q 1816 3084 2150 3084 
Q 2853 3084 3261 2657 
Q 3669 2231 3669 1497 
Q 3669 778 3244 343 
Q 2819 -91 2113 -91 
Q 1303 -91 875 529 
Q 447 1150 447 2328 
Q 447 3434 972 4092 
Q 1497 4750 2381 4750 
Q 2619 4750 2861 4703 
Q 3103 4656 3366 4563 
z
" id="DejaVuSans-36" transform="scale(0.015625)"/>
       </defs>
       <use xlink:href="#DejaVuSans-36"/>
      </g>
     </g>
    </g>
    <g id="xtick_5">
     <g id="line2d_13">
      <path clip-path="url(#pd4b10b0194)" d="M 97.755429 298.944 
L 97.755429 27.648 
" style="fill:none;stroke:#b0b0b0;stroke-linecap:square;stroke-width:0.8;"/>
     </g>
     <g id="line2d_14">
      <defs>
       <path d="M 0 0 
L 0 2 
" id="m2906482d42" style="stroke:#000000;stroke-width:0.6;"/>
      </defs>
      <g>
       <use style="stroke:#000000;stroke-width:0.6;" x="97.755429" xlink:href="#m2906482d42" y="298.944"/>
      </g>
     </g>
    </g>
    <g id="xtick_6">
     <g id="line2d_15">
      <path clip-path="url(#pd4b10b0194)" d="M 178.066286 298.944 
L 178.066286 27.648 
" style="fill:none;stroke:#b0b0b0;stroke-linecap:square;stroke-width:0.8;"/>
     </g>
     <g id="line2d_16">
      <g>
       <use style="stroke:#000000;stroke-width:0.6;" x="178.066286" xlink:href="#m2906482d42" y="298.944"/>
      </g>
     </g>
    </g>
    <g id="xtick_7">
     <g id="line2d_17">
      <path clip-path="url(#pd4b10b0194)" d="M 258.377143 298.944 
L 258.377143 27.648 
" style="fill:none;stroke:#b0b0b0;stroke-linecap:square;stroke-width:0.8;"/>
     </g>
     <g id="line2d_18">
      <g>
       <use style="stroke:#000000;stroke-width:0.6;" x="258.377143" xlink:href="#m2906482d42" y="298.944"/>
      </g>
     </g>
    </g>
    <g id="xtick_8">
     <g id="line2d_19">
      <path clip-path="url(#pd4b10b0194)" d="M 338.688 298.944 
L 338.688 27.648 
" style="fill:none;stroke:#b0b0b0;stroke-linecap:square;stroke-width:0.8;"/>
     </g>
     <g id="line2d_20">
      <g>
       <use style="stroke:#000000;stroke-width:0.6;" x="338.688" xlink:href="#m2906482d42" y="298.944"/>
      </g>
     </g>
    </g>
    <g id="text_5">
     <!-- log10(# f-evals / dimension) -->
     <g transform="translate(77.764078 342.217594)scale(0.17 -0.17)">
      <defs>
       <path d="M 603 4863 
L 1178 4863 
L 1178 0 
L 603 0 
L 603 4863 
z
" id="DejaVuSans-6c" transform="scale(0.015625)"/>
       <path d="M 1959 3097 
Q 1497 3097 1228 2736 
Q 959 2375 959 1747 
Q 959 1119 1226 758 
Q 1494 397 1959 397 
Q 2419 397 2687 759 
Q 2956 1122 2956 1747 
Q 2956 2369 2687 2733 
Q 2419 3097 1959 3097 
z
M 1959 3584 
Q 2709 3584 3137 3096 
Q 3566 2609 3566 1747 
Q 3566 888 3137 398 
Q 2709 -91 1959 -91 
Q 1206 -91 779 398 
Q 353 888 353 1747 
Q 353 2609 779 3096 
Q 1206 3584 1959 3584 
z
" id="DejaVuSans-6f" transform="scale(0.015625)"/>
       <path d="M 2906 1791 
Q 2906 2416 2648 2759 
Q 2391 3103 1925 3103 
Q 1463 3103 1205 2759 
Q 947 2416 947 1791 
Q 947 1169 1205 825 
Q 1463 481 1925 481 
Q 2391 481 2648 825 
Q 2906 1169 2906 1791 
z
M 3481 434 
Q 3481 -459 3084 -895 
Q 2688 -1331 1869 -1331 
Q 1566 -1331 1297 -1286 
Q 1028 -1241 775 -1147 
L 775 -588 
Q 1028 -725 1275 -790 
Q 1522 -856 1778 -856 
Q 2344 -856 2625 -561 
Q 2906 -266 2906 331 
L 2906 616 
Q 2728 306 2450 153 
Q 2172 0 1784 0 
Q 1141 0 747 490 
Q 353 981 353 1791 
Q 353 2603 747 3093 
Q 1141 3584 1784 3584 
Q 2172 3584 2450 3431 
Q 2728 3278 2906 2969 
L 2906 3500 
L 3481 3500 
L 3481 434 
z
" id="DejaVuSans-67" transform="scale(0.015625)"/>
       <path d="M 794 531 
L 1825 531 
L 1825 4091 
L 703 3866 
L 703 4441 
L 1819 4666 
L 2450 4666 
L 2450 531 
L 3481 531 
L 3481 0 
L 794 0 
L 794 531 
z
" id="DejaVuSans-31" transform="scale(0.015625)"/>
       <path d="M 1984 4856 
Q 1566 4138 1362 3434 
Q 1159 2731 1159 2009 
Q 1159 1288 1364 580 
Q 1569 -128 1984 -844 
L 1484 -844 
Q 1016 -109 783 600 
Q 550 1309 550 2009 
Q 550 2706 781 3412 
Q 1013 4119 1484 4856 
L 1984 4856 
z
" id="DejaVuSans-28" transform="scale(0.015625)"/>
       <path d="M 3272 2816 
L 2363 2816 
L 2100 1772 
L 3016 1772 
L 3272 2816 
z
M 2803 4594 
L 2478 3297 
L 3391 3297 
L 3719 4594 
L 4219 4594 
L 3897 3297 
L 4872 3297 
L 4872 2816 
L 3775 2816 
L 3519 1772 
L 4513 1772 
L 4513 1294 
L 3397 1294 
L 3072 0 
L 2572 0 
L 2894 1294 
L 1978 1294 
L 1656 0 
L 1153 0 
L 1478 1294 
L 494 1294 
L 494 1772 
L 1594 1772 
L 1856 2816 
L 850 2816 
L 850 3297 
L 1978 3297 
L 2297 4594 
L 2803 4594 
z
" id="DejaVuSans-23" transform="scale(0.015625)"/>
       <path id="DejaVuSans-20" transform="scale(0.015625)"/>
       <path d="M 2375 4863 
L 2375 4384 
L 1825 4384 
Q 1516 4384 1395 4259 
Q 1275 4134 1275 3809 
L 1275 3500 
L 2222 3500 
L 2222 3053 
L 1275 3053 
L 1275 0 
L 697 0 
L 697 3053 
L 147 3053 
L 147 3500 
L 697 3500 
L 697 3744 
Q 697 4328 969 4595 
Q 1241 4863 1831 4863 
L 2375 4863 
z
" id="DejaVuSans-66" transform="scale(0.015625)"/>
       <path d="M 313 2009 
L 1997 2009 
L 1997 1497 
L 313 1497 
L 313 2009 
z
" id="DejaVuSans-2d" transform="scale(0.015625)"/>
       <path d="M 3597 1894 
L 3597 1613 
L 953 1613 
Q 991 1019 1311 708 
Q 1631 397 2203 397 
Q 2534 397 2845 478 
Q 3156 559 3463 722 
L 3463 178 
Q 3153 47 2828 -22 
Q 2503 -91 2169 -91 
Q 1331 -91 842 396 
Q 353 884 353 1716 
Q 353 2575 817 3079 
Q 1281 3584 2069 3584 
Q 2775 3584 3186 3129 
Q 3597 2675 3597 1894 
z
M 3022 2063 
Q 3016 2534 2758 2815 
Q 2500 3097 2075 3097 
Q 1594 3097 1305 2825 
Q 1016 2553 972 2059 
L 3022 2063 
z
" id="DejaVuSans-65" transform="scale(0.015625)"/>
       <path d="M 191 3500 
L 800 3500 
L 1894 563 
L 2988 3500 
L 3597 3500 
L 2284 0 
L 1503 0 
L 191 3500 
z
" id="DejaVuSans-76" transform="scale(0.015625)"/>
       <path d="M 2194 1759 
Q 1497 1759 1228 1600 
Q 959 1441 959 1056 
Q 959 750 1161 570 
Q 1363 391 1709 391 
Q 2188 391 2477 730 
Q 2766 1069 2766 1631 
L 2766 1759 
L 2194 1759 
z
M 3341 1997 
L 3341 0 
L 2766 0 
L 2766 531 
Q 2569 213 2275 61 
Q 1981 -91 1556 -91 
Q 1019 -91 701 211 
Q 384 513 384 1019 
Q 384 1609 779 1909 
Q 1175 2209 1959 2209 
L 2766 2209 
L 2766 2266 
Q 2766 2663 2505 2880 
Q 2244 3097 1772 3097 
Q 1472 3097 1187 3025 
Q 903 2953 641 2809 
L 641 3341 
Q 956 3463 1253 3523 
Q 1550 3584 1831 3584 
Q 2591 3584 2966 3190 
Q 3341 2797 3341 1997 
z
" id="DejaVuSans-61" transform="scale(0.015625)"/>
       <path d="M 2834 3397 
L 2834 2853 
Q 2591 2978 2328 3040 
Q 2066 3103 1784 3103 
Q 1356 3103 1142 2972 
Q 928 2841 928 2578 
Q 928 2378 1081 2264 
Q 1234 2150 1697 2047 
L 1894 2003 
Q 2506 1872 2764 1633 
Q 3022 1394 3022 966 
Q 3022 478 2636 193 
Q 2250 -91 1575 -91 
Q 1294 -91 989 -36 
Q 684 19 347 128 
L 347 722 
Q 666 556 975 473 
Q 1284 391 1588 391 
Q 1994 391 2212 530 
Q 2431 669 2431 922 
Q 2431 1156 2273 1281 
Q 2116 1406 1581 1522 
L 1381 1569 
Q 847 1681 609 1914 
Q 372 2147 372 2553 
Q 372 3047 722 3315 
Q 1072 3584 1716 3584 
Q 2034 3584 2315 3537 
Q 2597 3491 2834 3397 
z
" id="DejaVuSans-73" transform="scale(0.015625)"/>
       <path d="M 1625 4666 
L 2156 4666 
L 531 -594 
L 0 -594 
L 1625 4666 
z
" id="DejaVuSans-2f" transform="scale(0.015625)"/>
       <path d="M 2906 2969 
L 2906 4863 
L 3481 4863 
L 3481 0 
L 2906 0 
L 2906 525 
Q 2725 213 2448 61 
Q 2172 -91 1784 -91 
Q 1150 -91 751 415 
Q 353 922 353 1747 
Q 353 2572 751 3078 
Q 1150 3584 1784 3584 
Q 2172 3584 2448 3432 
Q 2725 3281 2906 2969 
z
M 947 1747 
Q 947 1113 1208 752 
Q 1469 391 1925 391 
Q 2381 391 2643 752 
Q 2906 1113 2906 1747 
Q 2906 2381 2643 2742 
Q 2381 3103 1925 3103 
Q 1469 3103 1208 2742 
Q 947 2381 947 1747 
z
" id="DejaVuSans-64" transform="scale(0.015625)"/>
       <path d="M 603 3500 
L 1178 3500 
L 1178 0 
L 603 0 
L 603 3500 
z
M 603 4863 
L 1178 4863 
L 1178 4134 
L 603 4134 
L 603 4863 
z
" id="DejaVuSans-69" transform="scale(0.015625)"/>
       <path d="M 3328 2828 
Q 3544 3216 3844 3400 
Q 4144 3584 4550 3584 
Q 5097 3584 5394 3201 
Q 5691 2819 5691 2113 
L 5691 0 
L 5113 0 
L 5113 2094 
Q 5113 2597 4934 2840 
Q 4756 3084 4391 3084 
Q 3944 3084 3684 2787 
Q 3425 2491 3425 1978 
L 3425 0 
L 2847 0 
L 2847 2094 
Q 2847 2600 2669 2842 
Q 2491 3084 2119 3084 
Q 1678 3084 1418 2786 
Q 1159 2488 1159 1978 
L 1159 0 
L 581 0 
L 581 3500 
L 1159 3500 
L 1159 2956 
Q 1356 3278 1631 3431 
Q 1906 3584 2284 3584 
Q 2666 3584 2933 3390 
Q 3200 3197 3328 2828 
z
" id="DejaVuSans-6d" transform="scale(0.015625)"/>
       <path d="M 3513 2113 
L 3513 0 
L 2938 0 
L 2938 2094 
Q 2938 2591 2744 2837 
Q 2550 3084 2163 3084 
Q 1697 3084 1428 2787 
Q 1159 2491 1159 1978 
L 1159 0 
L 581 0 
L 581 3500 
L 1159 3500 
L 1159 2956 
Q 1366 3272 1645 3428 
Q 1925 3584 2291 3584 
Q 2894 3584 3203 3211 
Q 3513 2838 3513 2113 
z
" id="DejaVuSans-6e" transform="scale(0.015625)"/>
       <path d="M 513 4856 
L 1013 4856 
Q 1481 4119 1714 3412 
Q 1947 2706 1947 2009 
Q 1947 1309 1714 600 
Q 1481 -109 1013 -844 
L 513 -844 
Q 928 -128 1133 580 
Q 1338 1288 1338 2009 
Q 1338 2731 1133 3434 
Q 928 4138 513 4856 
z
" id="DejaVuSans-29" transform="scale(0.015625)"/>
      </defs>
      <use xlink:href="#DejaVuSans-6c"/>
      <use x="27.783203" xlink:href="#DejaVuSans-6f"/>
      <use x="88.964844" xlink:href="#DejaVuSans-67"/>
      <use x="152.441406" xlink:href="#DejaVuSans-31"/>
      <use x="216.064453" xlink:href="#DejaVuSans-30"/>
      <use x="279.6875" xlink:href="#DejaVuSans-28"/>
      <use x="318.701172" xlink:href="#DejaVuSans-23"/>
      <use x="402.490234" xlink:href="#DejaVuSans-20"/>
      <use x="434.277344" xlink:href="#DejaVuSans-66"/>
      <use x="463.982422" xlink:href="#DejaVuSans-2d"/>
      <use x="500.066406" xlink:href="#DejaVuSans-65"/>
      <use x="561.589844" xlink:href="#DejaVuSans-76"/>
      <use x="620.769531" xlink:href="#DejaVuSans-61"/>
      <use x="682.048828" xlink:href="#DejaVuSans-6c"/>
      <use x="709.832031" xlink:href="#DejaVuSans-73"/>
      <use x="761.931641" xlink:href="#DejaVuSans-20"/>
      <use x="793.71875" xlink:href="#DejaVuSans-2f"/>
      <use x="827.410156" xlink:href="#DejaVuSans-20"/>
      <use x="859.197266" xlink:href="#DejaVuSans-64"/>
      <use x="922.673828" xlink:href="#DejaVuSans-69"/>
      <use x="950.457031" xlink:href="#DejaVuSans-6d"/>
      <use x="1047.869141" xlink:href="#DejaVuSans-65"/>
      <use x="1109.392578" xlink:href="#DejaVuSans-6e"/>
      <use x="1172.771484" xlink:href="#DejaVuSans-73"/>
      <use x="1224.871094" xlink:href="#DejaVuSans-69"/>
      <use x="1252.654297" xlink:href="#DejaVuSans-6f"/>
      <use x="1313.835938" xlink:href="#DejaVuSans-6e"/>
      <use x="1377.214844" xlink:href="#DejaVuSans-29"/>
     </g>
    </g>
   </g>
   <g id="matplotlib.axis_2">
    <g id="ytick_1">
     <g id="line2d_21">
      <path clip-path="url(#pd4b10b0194)" d="M 57.6 298.944 
L 338.688 298.944 
" style="fill:none;stroke:#b0b0b0;stroke-linecap:square;stroke-width:0.8;"/>
     </g>
     <g id="line2d_22">
      <defs>
       <path d="M 0 0 
L -3.5 0 
" id="m7a92b93c33" style="stroke:#000000;stroke-width:0.8;"/>
      </defs>
      <g>
       <use style="stroke:#000000;stroke-width:0.8;" x="57.6" xlink:href="#m7a92b93c33" y="298.944"/>
      </g>
     </g>
     <g id="text_6">
      <!-- 0.0 -->
      <g transform="translate(25.155 305.02275)scale(0.16 -0.16)">
       <defs>
        <path d="M 684 794 
L 1344 794 
L 1344 0 
L 684 0 
L 684 794 
z
" id="DejaVuSans-2e" transform="scale(0.015625)"/>
       </defs>
       <use xlink:href="#DejaVuSans-30"/>
       <use x="63.623047" xlink:href="#DejaVuSans-2e"/>
       <use x="95.410156" xlink:href="#DejaVuSans-30"/>
      </g>
     </g>
    </g>
    <g id="ytick_2">
     <g id="line2d_23">
      <path clip-path="url(#pd4b10b0194)" d="M 57.6 245.22202 
L 338.688 245.22202 
" style="fill:none;stroke:#b0b0b0;stroke-linecap:square;stroke-width:0.8;"/>
     </g>
     <g id="line2d_24">
      <g>
       <use style="stroke:#000000;stroke-width:0.8;" x="57.6" xlink:href="#m7a92b93c33" y="245.22202"/>
      </g>
     </g>
     <g id="text_7">
      <!-- 0.2 -->
      <g transform="translate(25.155 251.30077)scale(0.16 -0.16)">
       <use xlink:href="#DejaVuSans-30"/>
       <use x="63.623047" xlink:href="#DejaVuSans-2e"/>
       <use x="95.410156" xlink:href="#DejaVuSans-32"/>
      </g>
     </g>
    </g>
    <g id="ytick_3">
     <g id="line2d_25">
      <path clip-path="url(#pd4b10b0194)" d="M 57.6 191.50004 
L 338.688 191.50004 
" style="fill:none;stroke:#b0b0b0;stroke-linecap:square;stroke-width:0.8;"/>
     </g>
     <g id="line2d_26">
      <g>
       <use style="stroke:#000000;stroke-width:0.8;" x="57.6" xlink:href="#m7a92b93c33" y="191.50004"/>
      </g>
     </g>
     <g id="text_8">
      <!-- 0.4 -->
      <g transform="translate(25.155 197.57879)scale(0.16 -0.16)">
       <use xlink:href="#DejaVuSans-30"/>
       <use x="63.623047" xlink:href="#DejaVuSans-2e"/>
       <use x="95.410156" xlink:href="#DejaVuSans-34"/>
      </g>
     </g>
    </g>
    <g id="ytick_4">
     <g id="line2d_27">
      <path clip-path="url(#pd4b10b0194)" d="M 57.6 137.778059 
L 338.688 137.778059 
" style="fill:none;stroke:#b0b0b0;stroke-linecap:square;stroke-width:0.8;"/>
     </g>
     <g id="line2d_28">
      <g>
       <use style="stroke:#000000;stroke-width:0.8;" x="57.6" xlink:href="#m7a92b93c33" y="137.778059"/>
      </g>
     </g>
     <g id="text_9">
      <!-- 0.6 -->
      <g transform="translate(25.155 143.856809)scale(0.16 -0.16)">
       <use xlink:href="#DejaVuSans-30"/>
       <use x="63.623047" xlink:href="#DejaVuSans-2e"/>
       <use x="95.410156" xlink:href="#DejaVuSans-36"/>
      </g>
     </g>
    </g>
    <g id="ytick_5">
     <g id="line2d_29">
      <path clip-path="url(#pd4b10b0194)" d="M 57.6 84.056079 
L 338.688 84.056079 
" style="fill:none;stroke:#b0b0b0;stroke-linecap:square;stroke-width:0.8;"/>
     </g>
     <g id="line2d_30">
      <g>
       <use style="stroke:#000000;stroke-width:0.8;" x="57.6" xlink:href="#m7a92b93c33" y="84.056079"/>
      </g>
     </g>
     <g id="text_10">
      <!-- 0.8 -->
      <g transform="translate(25.155 90.134829)scale(0.16 -0.16)">
       <defs>
        <path d="M 2034 2216 
Q 1584 2216 1326 1975 
Q 1069 1734 1069 1313 
Q 1069 891 1326 650 
Q 1584 409 2034 409 
Q 2484 409 2743 651 
Q 3003 894 3003 1313 
Q 3003 1734 2745 1975 
Q 2488 2216 2034 2216 
z
M 1403 2484 
Q 997 2584 770 2862 
Q 544 3141 544 3541 
Q 544 4100 942 4425 
Q 1341 4750 2034 4750 
Q 2731 4750 3128 4425 
Q 3525 4100 3525 3541 
Q 3525 3141 3298 2862 
Q 3072 2584 2669 2484 
Q 3125 2378 3379 2068 
Q 3634 1759 3634 1313 
Q 3634 634 3220 271 
Q 2806 -91 2034 -91 
Q 1263 -91 848 271 
Q 434 634 434 1313 
Q 434 1759 690 2068 
Q 947 2378 1403 2484 
z
M 1172 3481 
Q 1172 3119 1398 2916 
Q 1625 2713 2034 2713 
Q 2441 2713 2670 2916 
Q 2900 3119 2900 3481 
Q 2900 3844 2670 4047 
Q 2441 4250 2034 4250 
Q 1625 4250 1398 4047 
Q 1172 3844 1172 3481 
z
" id="DejaVuSans-38" transform="scale(0.015625)"/>
       </defs>
       <use xlink:href="#DejaVuSans-30"/>
       <use x="63.623047" xlink:href="#DejaVuSans-2e"/>
       <use x="95.410156" xlink:href="#DejaVuSans-38"/>
      </g>
     </g>
    </g>
    <g id="ytick_6">
     <g id="line2d_31">
      <path clip-path="url(#pd4b10b0194)" d="M 57.6 30.334099 
L 338.688 30.334099 
" style="fill:none;stroke:#b0b0b0;stroke-linecap:square;stroke-width:0.8;"/>
     </g>
     <g id="line2d_32">
      <g>
       <use style="stroke:#000000;stroke-width:0.8;" x="57.6" xlink:href="#m7a92b93c33" y="30.334099"/>
      </g>
     </g>
     <g id="text_11">
      <!-- 1.0 -->
      <g transform="translate(25.155 36.412849)scale(0.16 -0.16)">
       <use xlink:href="#DejaVuSans-31"/>
       <use x="63.623047" xlink:href="#DejaVuSans-2e"/>
       <use x="95.410156" xlink:href="#DejaVuSans-30"/>
      </g>
     </g>
    </g>
    <g id="text_12">
     <!-- Fraction of function,target pairs -->
     <g transform="translate(17.619531 297.681)rotate(-90)scale(0.17 -0.17)">
      <defs>
       <path d="M 628 4666 
L 3309 4666 
L 3309 4134 
L 1259 4134 
L 1259 2759 
L 3109 2759 
L 3109 2228 
L 1259 2228 
L 1259 0 
L 628 0 
L 628 4666 
z
" id="DejaVuSans-46" transform="scale(0.015625)"/>
       <path d="M 2631 2963 
Q 2534 3019 2420 3045 
Q 2306 3072 2169 3072 
Q 1681 3072 1420 2755 
Q 1159 2438 1159 1844 
L 1159 0 
L 581 0 
L 581 3500 
L 1159 3500 
L 1159 2956 
Q 1341 3275 1631 3429 
Q 1922 3584 2338 3584 
Q 2397 3584 2469 3576 
Q 2541 3569 2628 3553 
L 2631 2963 
z
" id="DejaVuSans-72" transform="scale(0.015625)"/>
       <path d="M 3122 3366 
L 3122 2828 
Q 2878 2963 2633 3030 
Q 2388 3097 2138 3097 
Q 1578 3097 1268 2742 
Q 959 2388 959 1747 
Q 959 1106 1268 751 
Q 1578 397 2138 397 
Q 2388 397 2633 464 
Q 2878 531 3122 666 
L 3122 134 
Q 2881 22 2623 -34 
Q 2366 -91 2075 -91 
Q 1284 -91 818 406 
Q 353 903 353 1747 
Q 353 2603 823 3093 
Q 1294 3584 2113 3584 
Q 2378 3584 2631 3529 
Q 2884 3475 3122 3366 
z
" id="DejaVuSans-63" transform="scale(0.015625)"/>
       <path d="M 1172 4494 
L 1172 3500 
L 2356 3500 
L 2356 3053 
L 1172 3053 
L 1172 1153 
Q 1172 725 1289 603 
Q 1406 481 1766 481 
L 2356 481 
L 2356 0 
L 1766 0 
Q 1100 0 847 248 
Q 594 497 594 1153 
L 594 3053 
L 172 3053 
L 172 3500 
L 594 3500 
L 594 4494 
L 1172 4494 
z
" id="DejaVuSans-74" transform="scale(0.015625)"/>
       <path d="M 544 1381 
L 544 3500 
L 1119 3500 
L 1119 1403 
Q 1119 906 1312 657 
Q 1506 409 1894 409 
Q 2359 409 2629 706 
Q 2900 1003 2900 1516 
L 2900 3500 
L 3475 3500 
L 3475 0 
L 2900 0 
L 2900 538 
Q 2691 219 2414 64 
Q 2138 -91 1772 -91 
Q 1169 -91 856 284 
Q 544 659 544 1381 
z
M 1991 3584 
L 1991 3584 
z
" id="DejaVuSans-75" transform="scale(0.015625)"/>
       <path d="M 750 794 
L 1409 794 
L 1409 256 
L 897 -744 
L 494 -744 
L 750 256 
L 750 794 
z
" id="DejaVuSans-2c" transform="scale(0.015625)"/>
       <path d="M 1159 525 
L 1159 -1331 
L 581 -1331 
L 581 3500 
L 1159 3500 
L 1159 2969 
Q 1341 3281 1617 3432 
Q 1894 3584 2278 3584 
Q 2916 3584 3314 3078 
Q 3713 2572 3713 1747 
Q 3713 922 3314 415 
Q 2916 -91 2278 -91 
Q 1894 -91 1617 61 
Q 1341 213 1159 525 
z
M 3116 1747 
Q 3116 2381 2855 2742 
Q 2594 3103 2138 3103 
Q 1681 3103 1420 2742 
Q 1159 2381 1159 1747 
Q 1159 1113 1420 752 
Q 1681 391 2138 391 
Q 2594 391 2855 752 
Q 3116 1113 3116 1747 
z
" id="DejaVuSans-70" transform="scale(0.015625)"/>
      </defs>
      <use xlink:href="#DejaVuSans-46"/>
      <use x="50.269531" xlink:href="#DejaVuSans-72"/>
      <use x="91.382812" xlink:href="#DejaVuSans-61"/>
      <use x="152.662109" xlink:href="#DejaVuSans-63"/>
      <use x="207.642578" xlink:href="#DejaVuSans-74"/>
      <use x="246.851562" xlink:href="#DejaVuSans-69"/>
      <use x="274.634766" xlink:href="#DejaVuSans-6f"/>
      <use x="335.816406" xlink:href="#DejaVuSans-6e"/>
      <use x="399.195312" xlink:href="#DejaVuSans-20"/>
      <use x="430.982422" xlink:href="#DejaVuSans-6f"/>
      <use x="492.164062" xlink:href="#DejaVuSans-66"/>
      <use x="527.369141" xlink:href="#DejaVuSans-20"/>
      <use x="559.15625" xlink:href="#DejaVuSans-66"/>
      <use x="594.361328" xlink:href="#DejaVuSans-75"/>
      <use x="657.740234" xlink:href="#DejaVuSans-6e"/>
      <use x="721.119141" xlink:href="#DejaVuSans-63"/>
      <use x="776.099609" xlink:href="#DejaVuSans-74"/>
      <use x="815.308594" xlink:href="#DejaVuSans-69"/>
      <use x="843.091797" xlink:href="#DejaVuSans-6f"/>
      <use x="904.273438" xlink:href="#DejaVuSans-6e"/>
      <use x="967.652344" xlink:href="#DejaVuSans-2c"/>
      <use x="999.439453" xlink:href="#DejaVuSans-74"/>
      <use x="1038.648438" xlink:href="#DejaVuSans-61"/>
      <use x="1099.927734" xlink:href="#DejaVuSans-72"/>
      <use x="1139.291016" xlink:href="#DejaVuSans-67"/>
      <use x="1202.767578" xlink:href="#DejaVuSans-65"/>
      <use x="1264.291016" xlink:href="#DejaVuSans-74"/>
      <use x="1303.5" xlink:href="#DejaVuSans-20"/>
      <use x="1335.287109" xlink:href="#DejaVuSans-70"/>
      <use x="1398.763672" xlink:href="#DejaVuSans-61"/>
      <use x="1460.042969" xlink:href="#DejaVuSans-69"/>
      <use x="1487.826172" xlink:href="#DejaVuSans-72"/>
      <use x="1528.939453" xlink:href="#DejaVuSans-73"/>
     </g>
    </g>
   </g>
   <g id="line2d_33">
    <defs>
     <path d="M 0 1.5 
C 0.397805 1.5 0.77937 1.341951 1.06066 1.06066 
C 1.341951 0.77937 1.5 0.397805 1.5 0 
C 1.5 -0.397805 1.341951 -0.77937 1.06066 -1.06066 
C 0.77937 -1.341951 0.397805 -1.5 0 -1.5 
C -0.397805 -1.5 -0.77937 -1.341951 -1.06066 -1.06066 
C -1.341951 -0.77937 -1.5 -0.397805 -1.5 0 
C -1.5 0.397805 -1.341951 0.77937 -1.06066 1.06066 
C -0.77937 1.341951 -0.397805 1.5 0 1.5 
z
" id="m16b5e7e9f4" style="stroke:#f5deb3;"/>
    </defs>
    <g>
     <use style="fill:#f5deb3;stroke:#f5deb3;" x="164.858371" xlink:href="#m16b5e7e9f4" y="30.334099"/>
     <use style="fill:#f5deb3;stroke:#f5deb3;" x="164.858371" xlink:href="#m16b5e7e9f4" y="30.334099"/>
    </g>
   </g>
   <g id="line2d_34">
    <defs>
     <path d="M 0 1.5 
C 0.397805 1.5 0.77937 1.341951 1.06066 1.06066 
C 1.341951 0.77937 1.5 0.397805 1.5 0 
C 1.5 -0.397805 1.341951 -0.77937 1.06066 -1.06066 
C 0.77937 -1.341951 0.397805 -1.5 0 -1.5 
C -0.397805 -1.5 -0.77937 -1.341951 -1.06066 -1.06066 
C -1.341951 -0.77937 -1.5 -0.397805 -1.5 0 
C -1.5 0.397805 -1.341951 0.77937 -1.06066 1.06066 
C -0.77937 1.341951 -0.397805 1.5 0 1.5 
z
" id="m1b71c219cb" style="stroke:#000080;"/>
    </defs>
    <g>
     <use style="fill:#000080;stroke:#000080;" x="235.831284" xlink:href="#m1b71c219cb" y="272.609696"/>
     <use style="fill:#000080;stroke:#000080;" x="235.831284" xlink:href="#m1b71c219cb" y="272.609696"/>
    </g>
   </g>
   <g id="line2d_35">
    <path d="M 164.387164 298.944 
L 164.387164 298.417314 
L 166.475147 298.417314 
L 166.475147 297.890628 
L 169.05875 297.890628 
L 169.05875 297.363942 
L 175.417783 297.363942 
L 175.417783 296.837256 
L 176.401441 296.837256 
L 176.401441 296.31057 
L 177.211191 296.31057 
L 177.211191 295.783884 
L 177.404264 295.783884 
L 177.404264 295.257197 
L 177.843388 295.257197 
L 177.843388 294.730511 
L 178.230313 294.730511 
L 178.230313 294.203825 
L 179.069287 294.203825 
L 179.069287 293.677139 
L 180.107931 293.677139 
L 180.107931 293.150453 
L 180.44363 293.150453 
L 180.44363 292.623767 
L 180.590613 292.623767 
L 180.590613 292.097081 
L 182.033619 292.097081 
L 182.033619 291.570395 
L 182.209146 291.570395 
L 182.209146 291.043709 
L 182.490156 291.043709 
L 182.490156 290.517023 
L 182.679251 290.517023 
L 182.679251 289.990337 
L 183.248793 289.990337 
L 183.248793 289.463651 
L 183.553176 289.463651 
L 183.553176 288.936964 
L 184.462902 288.936964 
L 184.462902 288.410278 
L 184.93618 288.410278 
L 184.93618 287.883592 
L 185.39867 287.883592 
L 185.39867 287.356906 
L 185.478089 287.356906 
L 185.478089 286.83022 
L 185.534434 286.83022 
L 185.534434 286.303534 
L 185.925499 286.303534 
L 185.925499 285.776848 
L 186.4509 285.776848 
L 186.4509 285.250162 
L 186.968787 285.250162 
L 186.968787 284.723476 
L 187.003817 284.723476 
L 187.003817 284.19679 
L 188.462068 284.19679 
L 188.462068 283.670104 
L 188.748902 283.670104 
L 188.748902 283.143418 
L 188.841751 283.143418 
L 188.841751 282.616732 
L 189.539286 282.616732 
L 189.539286 282.090045 
L 189.633422 282.090045 
L 189.633422 281.563359 
L 190.351957 281.563359 
L 190.351957 281.036673 
L 190.402749 281.036673 
L 190.402749 280.509987 
L 190.525245 280.509987 
L 190.525245 279.983301 
L 191.159333 279.983301 
L 191.159333 279.456615 
L 192.82211 279.456615 
L 192.82211 278.929929 
L 193.460892 278.929929 
L 193.460892 278.403243 
L 193.849315 278.403243 
L 193.849315 277.876557 
L 202.406074 277.876557 
L 202.406074 277.349871 
L 210.695616 277.349871 
L 210.695616 276.823185 
L 213.027009 276.823185 
L 213.027009 276.296499 
L 218.094204 276.296499 
L 218.094204 275.769812 
L 221.591265 275.769812 
L 221.591265 275.243126 
L 222.015734 275.243126 
L 222.015734 274.71644 
L 227.917867 274.71644 
L 227.917867 274.189754 
L 229.993869 274.189754 
L 229.993869 273.136382 
L 235.831284 273.136382 
L 235.831284 272.609696 
L 338.688 272.609696 
" style="fill:none;stroke:#000080;stroke-linecap:square;stroke-width:1.5;"/>
   </g>
   <g id="line2d_36">
    <defs>
     <path d="M 0 6 
C 1.591219 6 3.117479 5.367802 4.242641 4.242641 
C 5.367802 3.117479 6 1.591219 6 0 
C 6 -1.591219 5.367802 -3.117479 4.242641 -4.242641 
C 3.117479 -5.367802 1.591219 -6 0 -6 
C -1.591219 -6 -3.117479 -5.367802 -4.242641 -4.242641 
C -5.367802 -3.117479 -6 -1.591219 -6 0 
C -6 1.591219 -5.367802 3.117479 -4.242641 4.242641 
C -3.117479 5.367802 -1.591219 6 0 6 
z
" id="mc79cb1e157" style="stroke:#000080;stroke-width:1.5;"/>
    </defs>
    <g>
     <use style="fill-opacity:0;stroke:#000080;stroke-width:1.5;" x="235.831284" xlink:href="#mc79cb1e157" y="273.136382"/>
     <use style="fill-opacity:0;stroke:#000080;stroke-width:1.5;" x="235.831284" xlink:href="#mc79cb1e157" y="272.609696"/>
     <use style="fill-opacity:0;stroke:#000080;stroke-width:1.5;" x="235.831284" xlink:href="#mc79cb1e157" y="272.609696"/>
     <use style="fill-opacity:0;stroke:#000080;stroke-width:1.5;" x="338.688" xlink:href="#mc79cb1e157" y="272.609696"/>
    </g>
   </g>
   <g id="line2d_37">
    <path style="fill:none;stroke:#000080;stroke-linecap:square;stroke-width:1.5;"/>
    <g/>
   </g>
   <g id="line2d_38">
    <path clip-path="url(#pd4b10b0194)" d="M 194.068045 277.876557 
" style="fill:none;stroke:#000080;stroke-linecap:square;stroke-width:1.5;"/>
    <defs>
     <path d="M -12 12 
L 12 -12 
M -12 -12 
L 12 12 
" id="m3f4a6de2fa" style="stroke:#000080;"/>
    </defs>
    <g clip-path="url(#pd4b10b0194)">
     <use style="fill:#000080;stroke:#000080;" x="194.068045" xlink:href="#m3f4a6de2fa" y="277.876557"/>
    </g>
   </g>
   <g id="line2d_39">
    <defs>
     <path d="M 0 1.5 
C 0.397805 1.5 0.77937 1.341951 1.06066 1.06066 
C 1.341951 0.77937 1.5 0.397805 1.5 0 
C 1.5 -0.397805 1.341951 -0.77937 1.06066 -1.06066 
C 0.77937 -1.341951 0.397805 -1.5 0 -1.5 
C -0.397805 -1.5 -0.77937 -1.341951 -1.06066 -1.06066 
C -1.341951 -0.77937 -1.5 -0.397805 -1.5 0 
C -1.5 0.397805 -1.341951 0.77937 -1.06066 1.06066 
C -0.77937 1.341951 -0.397805 1.5 0 1.5 
z
" id="mefdcd1119c" style="stroke:#ff00ff;"/>
    </defs>
    <g>
     <use style="fill:#ff00ff;stroke:#ff00ff;" x="241.155722" xlink:href="#mefdcd1119c" y="272.609696"/>
     <use style="fill:#ff00ff;stroke:#ff00ff;" x="241.155722" xlink:href="#mefdcd1119c" y="272.609696"/>
    </g>
   </g>
   <g id="line2d_40">
    <path d="M 180.284652 298.944 
L 180.284652 298.417314 
L 180.662891 298.417314 
L 180.662891 297.890628 
L 181.964026 297.890628 
L 181.964026 297.363942 
L 182.509091 297.363942 
L 182.509091 296.837256 
L 182.647095 296.837256 
L 182.647095 296.31057 
L 183.493234 296.31057 
L 183.493234 295.783884 
L 183.686981 295.783884 
L 183.686981 295.257197 
L 184.144607 295.257197 
L 184.144607 294.730511 
L 184.387209 294.730511 
L 184.387209 294.203825 
L 184.963209 294.203825 
L 184.963209 293.677139 
L 185.431853 293.677139 
L 185.431853 293.150453 
L 185.653354 293.150453 
L 185.653354 292.623767 
L 186.429322 292.623767 
L 186.429322 292.097081 
L 186.826378 292.097081 
L 186.826378 291.570395 
L 187.475296 291.570395 
L 187.475296 291.043709 
L 188.24502 291.043709 
L 188.24502 290.517023 
L 188.3188 290.517023 
L 188.3188 289.990337 
L 188.365721 289.990337 
L 188.365721 289.463651 
L 188.844101 289.463651 
L 188.844101 288.936964 
L 188.940653 288.936964 
L 188.940653 288.410278 
L 189.266639 288.410278 
L 189.266639 287.883592 
L 189.307419 287.883592 
L 189.307419 287.356906 
L 189.50357 287.356906 
L 189.50357 286.83022 
L 189.535221 286.83022 
L 189.535221 286.303534 
L 189.628031 286.303534 
L 189.628031 285.776848 
L 189.803733 285.776848 
L 189.803733 285.250162 
L 191.006385 285.250162 
L 191.006385 284.723476 
L 191.335822 284.723476 
L 191.335822 284.19679 
L 191.4159 284.19679 
L 191.4159 283.670104 
L 191.501667 283.670104 
L 191.501667 283.143418 
L 191.777133 283.143418 
L 191.777133 282.616732 
L 192.054572 282.616732 
L 192.054572 282.090045 
L 192.530097 282.090045 
L 192.530097 281.563359 
L 192.593138 281.563359 
L 192.593138 281.036673 
L 192.821362 281.036673 
L 192.821362 280.509987 
L 193.909529 280.509987 
L 193.909529 279.983301 
L 205.036287 279.983301 
L 205.036287 279.456615 
L 205.1289 279.456615 
L 205.1289 278.929929 
L 205.240676 278.929929 
L 205.240676 278.403243 
L 205.620688 278.403243 
L 205.620688 277.876557 
L 211.977627 277.876557 
L 211.977627 277.349871 
L 212.249298 277.349871 
L 212.249298 276.823185 
L 212.371433 276.823185 
L 212.371433 276.296499 
L 212.541336 276.296499 
L 212.541336 275.769812 
L 217.510081 275.769812 
L 217.510081 275.243126 
L 217.967082 275.243126 
L 217.967082 274.71644 
L 225.123393 274.71644 
L 225.123393 274.189754 
L 227.628741 274.189754 
L 227.628741 273.663068 
L 227.835963 273.663068 
L 227.835963 273.136382 
L 241.155722 273.136382 
L 241.155722 272.609696 
L 338.688 272.609696 
" style="fill:none;stroke:#ff00ff;stroke-linecap:square;stroke-width:1.5;"/>
   </g>
   <g id="line2d_41">
    <defs>
     <path d="M 0 8.485281 
L 5.091169 0 
L 0 -8.485281 
L -5.091169 0 
z
" id="m60a49bbfdc" style="stroke:#ff00ff;stroke-linejoin:miter;stroke-width:1.5;"/>
    </defs>
    <g>
     <use style="fill-opacity:0;stroke:#ff00ff;stroke-linejoin:miter;stroke-width:1.5;" x="241.155722" xlink:href="#m60a49bbfdc" y="273.136382"/>
     <use style="fill-opacity:0;stroke:#ff00ff;stroke-linejoin:miter;stroke-width:1.5;" x="241.155722" xlink:href="#m60a49bbfdc" y="272.609696"/>
     <use style="fill-opacity:0;stroke:#ff00ff;stroke-linejoin:miter;stroke-width:1.5;" x="241.155722" xlink:href="#m60a49bbfdc" y="272.609696"/>
     <use style="fill-opacity:0;stroke:#ff00ff;stroke-linejoin:miter;stroke-width:1.5;" x="338.688" xlink:href="#m60a49bbfdc" y="272.609696"/>
    </g>
   </g>
   <g id="line2d_42">
    <path style="fill:none;stroke:#ff00ff;stroke-linecap:square;stroke-width:1.5;"/>
    <g/>
   </g>
   <g id="line2d_43">
    <path clip-path="url(#pd4b10b0194)" d="M 194.045737 279.983301 
" style="fill:none;stroke:#ff00ff;stroke-linecap:square;stroke-width:1.5;"/>
    <defs>
     <path d="M -12 12 
L 12 -12 
M -12 -12 
L 12 12 
" id="m9b058ea1d5" style="stroke:#ff00ff;"/>
    </defs>
    <g clip-path="url(#pd4b10b0194)">
     <use style="fill:#ff00ff;stroke:#ff00ff;" x="194.045737" xlink:href="#m9b058ea1d5" y="279.983301"/>
    </g>
   </g>
   <g id="line2d_44">
    <defs>
     <path d="M 0 1.5 
C 0.397805 1.5 0.77937 1.341951 1.06066 1.06066 
C 1.341951 0.77937 1.5 0.397805 1.5 0 
C 1.5 -0.397805 1.341951 -0.77937 1.06066 -1.06066 
C 0.77937 -1.341951 0.397805 -1.5 0 -1.5 
C -0.397805 -1.5 -0.77937 -1.341951 -1.06066 -1.06066 
C -1.341951 -0.77937 -1.5 -0.397805 -1.5 0 
C -1.5 0.397805 -1.341951 0.77937 -1.06066 1.06066 
C -0.77937 1.341951 -0.397805 1.5 0 1.5 
z
" id="mee2523699c" style="stroke:#ff7500;"/>
    </defs>
    <g>
     <use style="fill:#ff7500;stroke:#ff7500;" x="244.444649" xlink:href="#mee2523699c" y="219.941088"/>
     <use style="fill:#ff7500;stroke:#ff7500;" x="244.444649" xlink:href="#mee2523699c" y="219.941088"/>
    </g>
   </g>
   <g id="line2d_45">
    <path d="M 161.649781 298.944 
L 161.649781 298.417314 
L 165.993986 298.417314 
L 165.993986 297.890628 
L 166.350975 297.890628 
L 166.350975 297.363942 
L 167.501961 297.363942 
L 167.501961 296.837256 
L 167.664203 296.837256 
L 167.664203 296.31057 
L 171.27895 296.31057 
L 171.357271 295.257197 
L 171.854849 295.257197 
L 171.854849 294.730511 
L 172.582734 294.730511 
L 172.582734 294.203825 
L 173.284893 294.203825 
L 173.284893 293.677139 
L 173.509405 293.677139 
L 173.509405 293.150453 
L 173.846953 293.150453 
L 173.846953 292.623767 
L 173.970903 292.623767 
L 173.970903 292.097081 
L 174.090693 292.097081 
L 174.090693 291.570395 
L 174.957042 291.570395 
L 175.026726 290.517023 
L 175.592495 290.517023 
L 175.6747 289.463651 
L 175.941681 289.463651 
L 176.040877 287.883592 
L 176.088799 287.883592 
L 176.088799 287.356906 
L 176.367833 287.356906 
L 176.367833 286.83022 
L 176.918444 286.83022 
L 176.920306 285.776848 
L 177.45491 285.776848 
L 177.45491 285.250162 
L 177.817757 285.250162 
L 177.817757 284.723476 
L 178.088942 284.723476 
L 178.119395 283.670104 
L 178.254483 283.670104 
L 178.254483 283.143418 
L 178.599539 283.143418 
L 178.599539 282.616732 
L 178.756973 282.616732 
L 178.756973 282.090045 
L 179.084921 282.090045 
L 179.101363 281.036673 
L 179.426991 281.036673 
L 179.426991 280.509987 
L 180.121112 280.509987 
L 180.121112 279.983301 
L 180.677911 279.983301 
L 180.677911 279.456615 
L 180.954216 279.456615 
L 181.027949 277.349871 
L 181.32125 277.349871 
L 181.404974 276.296499 
L 181.535531 276.296499 
L 181.613256 275.243126 
L 181.684969 275.243126 
L 181.684969 274.71644 
L 182.037091 274.71644 
L 182.037091 274.189754 
L 182.167842 274.189754 
L 182.177489 273.136382 
L 182.312664 273.136382 
L 182.312664 272.609696 
L 182.441373 272.609696 
L 182.443408 271.556324 
L 182.709344 271.556324 
L 182.78202 269.976266 
L 183.237129 269.976266 
L 183.237129 269.449579 
L 183.751298 269.449579 
L 183.817259 267.869521 
L 184.120591 267.869521 
L 184.123056 266.816149 
L 184.310577 266.816149 
L 184.321545 265.762777 
L 185.133236 265.762777 
L 185.133236 265.236091 
L 185.253759 265.236091 
L 185.326365 264.182719 
L 185.483219 264.182719 
L 185.483219 263.129347 
L 185.601922 263.129347 
L 185.601922 262.60266 
L 185.914939 262.60266 
L 185.939384 261.549288 
L 186.31016 261.549288 
L 186.31016 261.022602 
L 186.614565 261.022602 
L 186.614565 260.495916 
L 187.010083 260.495916 
L 187.010083 259.96923 
L 187.524538 259.96923 
L 187.524538 259.442544 
L 187.876332 259.442544 
L 187.976401 258.389172 
L 188.129844 258.389172 
L 188.129844 257.862486 
L 188.285832 257.862486 
L 188.32219 256.809114 
L 188.417333 256.809114 
L 188.512438 255.755741 
L 188.582713 255.755741 
L 188.582713 255.229055 
L 188.964941 255.229055 
L 189.036673 253.122311 
L 189.274894 253.122311 
L 189.361342 251.542253 
L 189.448725 251.542253 
L 189.448725 251.015567 
L 189.642853 251.015567 
L 189.642853 250.488881 
L 189.903977 250.488881 
L 189.903977 249.962195 
L 190.162556 249.962195 
L 190.235613 248.908822 
L 190.333843 248.908822 
L 190.421222 247.85545 
L 190.71288 247.85545 
L 190.797124 246.802078 
L 191.174143 246.802078 
L 191.255784 245.22202 
L 191.296666 245.22202 
L 191.296666 244.695334 
L 191.423604 244.695334 
L 191.499245 243.641962 
L 191.541977 243.641962 
L 191.60307 242.588589 
L 191.736567 242.588589 
L 191.821963 241.535217 
L 192.016998 241.535217 
L 192.016998 241.008531 
L 192.132591 241.008531 
L 192.226531 239.955159 
L 192.248197 239.955159 
L 192.334593 238.375101 
L 192.367265 238.375101 
L 192.477897 236.268356 
L 192.556329 236.268356 
L 192.556329 235.74167 
L 192.669545 235.74167 
L 192.706494 233.634926 
L 192.862844 233.634926 
L 192.862844 233.10824 
L 193.151586 233.10824 
L 193.151586 232.581554 
L 193.300738 232.581554 
L 193.300738 232.054868 
L 193.479277 232.054868 
L 193.58381 231.001496 
L 193.628164 231.001496 
L 193.714758 228.894751 
L 193.917612 228.894751 
L 193.942541 227.841379 
L 204.813303 227.841379 
L 204.871895 226.788007 
L 205.404917 226.788007 
L 205.404917 226.261321 
L 205.765204 226.261321 
L 205.765204 225.734635 
L 205.95916 225.734635 
L 205.95916 225.207949 
L 212.697634 225.207949 
L 212.697634 224.681263 
L 213.162142 224.681263 
L 213.162142 224.154577 
L 218.118255 224.154577 
L 218.189771 223.101204 
L 222.087628 223.101204 
L 222.087628 222.574518 
L 225.271445 222.574518 
L 225.271445 222.047832 
L 232.321112 222.047832 
L 232.321112 221.521146 
L 241.246613 221.521146 
L 241.246613 220.99446 
L 243.44743 220.99446 
L 243.44743 220.467774 
L 244.444649 220.467774 
L 244.444649 219.941088 
L 338.688 219.941088 
L 338.688 219.941088 
" style="fill:none;stroke:#ff7500;stroke-linecap:square;stroke-width:1.5;"/>
   </g>
   <g id="line2d_46">
    <defs>
     <path d="M 0 -6 
L -1.347084 -1.854102 
L -5.706339 -1.854102 
L -2.179628 0.708204 
L -3.526712 4.854102 
L -0 2.291796 
L 3.526712 4.854102 
L 2.179628 0.708204 
L 5.706339 -1.854102 
L 1.347084 -1.854102 
z
" id="m14933ac687" style="stroke:#ff7500;stroke-linejoin:bevel;stroke-width:1.5;"/>
    </defs>
    <g>
     <use style="fill-opacity:0;stroke:#ff7500;stroke-linejoin:bevel;stroke-width:1.5;" x="213.162142" xlink:href="#m14933ac687" y="224.154577"/>
     <use style="fill-opacity:0;stroke:#ff7500;stroke-linejoin:bevel;stroke-width:1.5;" x="244.444649" xlink:href="#m14933ac687" y="219.941088"/>
     <use style="fill-opacity:0;stroke:#ff7500;stroke-linejoin:bevel;stroke-width:1.5;" x="244.444649" xlink:href="#m14933ac687" y="219.941088"/>
     <use style="fill-opacity:0;stroke:#ff7500;stroke-linejoin:bevel;stroke-width:1.5;" x="338.688" xlink:href="#m14933ac687" y="219.941088"/>
    </g>
   </g>
   <g id="line2d_47">
    <path style="fill:none;stroke:#ff7500;stroke-linecap:square;stroke-width:1.5;"/>
    <g/>
   </g>
   <g id="line2d_48">
    <path clip-path="url(#pd4b10b0194)" d="M 194.045737 227.841379 
" style="fill:none;stroke:#ff7500;stroke-linecap:square;stroke-width:1.5;"/>
    <defs>
     <path d="M -12 12 
L 12 -12 
M -12 -12 
L 12 12 
" id="m3c7debde97" style="stroke:#ff7500;"/>
    </defs>
    <g clip-path="url(#pd4b10b0194)">
     <use style="fill:#ff7500;stroke:#ff7500;" x="194.045737" xlink:href="#m3c7debde97" y="227.841379"/>
    </g>
   </g>
   <g id="line2d_49">
    <defs>
     <path d="M 0 1.5 
C 0.397805 1.5 0.77937 1.341951 1.06066 1.06066 
C 1.341951 0.77937 1.5 0.397805 1.5 0 
C 1.5 -0.397805 1.341951 -0.77937 1.06066 -1.06066 
C 0.77937 -1.341951 0.397805 -1.5 0 -1.5 
C -0.397805 -1.5 -0.77937 -1.341951 -1.06066 -1.06066 
C -1.341951 -0.77937 -1.5 -0.397805 -1.5 0 
C -1.5 0.397805 -1.341951 0.77937 -1.06066 1.06066 
C -0.77937 1.341951 -0.397805 1.5 0 1.5 
z
" id="m6a328e32b7" style="stroke:#6495ed;"/>
    </defs>
    <g>
     <use style="fill:#6495ed;stroke:#6495ed;" x="259.22388" xlink:href="#m6a328e32b7" y="88.269568"/>
     <use style="fill:#6495ed;stroke:#6495ed;" x="259.22388" xlink:href="#m6a328e32b7" y="88.269568"/>
    </g>
   </g>
   <g id="line2d_50">
    <path d="M 148.539991 298.944 
L 148.539991 298.417314 
L 153.612568 298.417314 
L 153.612568 297.890628 
L 155.235683 297.890628 
L 155.235683 297.363942 
L 155.603109 297.363942 
L 155.603109 296.837256 
L 156.080243 296.837256 
L 156.080243 296.31057 
L 156.215076 296.31057 
L 156.215076 295.783884 
L 156.484659 295.783884 
L 156.496678 294.730511 
L 157.366699 294.730511 
L 157.366699 294.203825 
L 157.647321 294.203825 
L 157.661375 293.150453 
L 158.306735 293.150453 
L 158.306735 292.623767 
L 158.538043 292.623767 
L 158.538043 292.097081 
L 158.734649 292.097081 
L 158.750493 291.043709 
L 159.512268 291.043709 
L 159.512268 290.517023 
L 159.760634 290.517023 
L 159.760634 289.990337 
L 160.007969 289.990337 
L 160.007969 289.463651 
L 160.750792 289.463651 
L 160.750792 288.936964 
L 161.224411 288.936964 
L 161.272444 287.883592 
L 161.427077 287.883592 
L 161.427077 287.356906 
L 161.880709 287.356906 
L 161.880709 286.83022 
L 162.089014 286.83022 
L 162.089014 286.303534 
L 162.305627 286.303534 
L 162.307779 285.250162 
L 162.542958 285.250162 
L 162.542958 284.723476 
L 162.941851 284.723476 
L 162.946002 283.670104 
L 163.750957 283.670104 
L 163.754919 282.616732 
L 164.348911 282.616732 
L 164.348911 282.090045 
L 164.815548 282.090045 
L 164.908508 279.983301 
L 165.459691 279.983301 
L 165.459691 279.456615 
L 165.811832 279.456615 
L 165.887376 278.403243 
L 165.980041 278.403243 
L 166.047915 277.349871 
L 166.15355 277.349871 
L 166.15355 276.296499 
L 166.517469 276.296499 
L 166.517469 275.769812 
L 166.687413 275.769812 
L 166.687413 275.243126 
L 167.322057 275.243126 
L 167.339809 274.189754 
L 167.801403 274.189754 
L 167.801403 273.663068 
L 168.114314 273.663068 
L 168.120485 272.609696 
L 168.462592 272.609696 
L 168.462592 272.08301 
L 168.598178 272.08301 
L 168.637152 271.029638 
L 168.71782 271.029638 
L 168.722291 269.449579 
L 169.013383 269.449579 
L 169.013383 268.922893 
L 169.178188 268.922893 
L 169.178188 268.396207 
L 169.608314 268.396207 
L 169.608314 267.869521 
L 169.871155 267.869521 
L 169.871155 267.342835 
L 170.284722 267.342835 
L 170.371694 264.709405 
L 170.560447 264.709405 
L 170.560447 264.182719 
L 170.692701 264.182719 
L 170.692701 263.656033 
L 170.954235 263.656033 
L 170.954235 263.129347 
L 171.231272 263.129347 
L 171.231272 262.60266 
L 171.343174 262.60266 
L 171.343174 262.075974 
L 171.472189 262.075974 
L 171.472189 261.549288 
L 171.597729 261.549288 
L 171.597729 261.022602 
L 171.762471 261.022602 
L 171.762471 260.495916 
L 172.100868 260.495916 
L 172.100868 259.96923 
L 172.442456 259.96923 
L 172.442456 259.442544 
L 172.701741 259.442544 
L 172.701741 258.915858 
L 172.937347 258.915858 
L 172.957228 257.862486 
L 173.05048 257.862486 
L 173.05048 257.3358 
L 173.283746 257.3358 
L 173.289481 256.282427 
L 173.622273 256.282427 
L 173.623398 255.229055 
L 173.741122 255.229055 
L 173.741122 254.702369 
L 174.175913 254.702369 
L 174.175913 254.175683 
L 174.321349 254.175683 
L 174.395768 252.595625 
L 174.499851 252.595625 
L 174.499851 252.068939 
L 174.712515 252.068939 
L 174.818933 250.488881 
L 175.031915 250.488881 
L 175.031915 249.962195 
L 175.23515 249.962195 
L 175.23515 249.435508 
L 175.638658 249.435508 
L 175.641664 248.382136 
L 175.942666 248.382136 
L 175.942666 247.85545 
L 176.067299 247.85545 
L 176.142433 246.802078 
L 176.23178 246.802078 
L 176.23178 246.275392 
L 176.422533 246.275392 
L 176.519039 244.695334 
L 176.637742 244.695334 
L 176.707635 243.641962 
L 177.10832 243.641962 
L 177.10832 243.115275 
L 177.360736 243.115275 
L 177.360736 242.588589 
L 177.538694 242.588589 
L 177.539593 241.535217 
L 177.716634 241.535217 
L 177.747743 239.955159 
L 178.068901 239.955159 
L 178.157602 238.901787 
L 178.22513 238.901787 
L 178.329368 237.321729 
L 178.715017 237.321729 
L 178.715017 236.795043 
L 178.834743 236.795043 
L 178.840583 234.688298 
L 179.094788 234.688298 
L 179.094788 234.161612 
L 179.251907 234.161612 
L 179.333183 232.581554 
L 179.67285 232.581554 
L 179.67285 232.054868 
L 179.987292 232.054868 
L 180.043435 231.001496 
L 180.121887 231.001496 
L 180.206931 228.894751 
L 180.352089 228.894751 
L 180.352089 228.368065 
L 180.506666 228.368065 
L 180.580802 227.314693 
L 180.67716 227.314693 
L 180.73487 225.734635 
L 180.79239 225.734635 
L 180.880912 224.681263 
L 181.027213 224.681263 
L 181.100639 223.101204 
L 181.195632 223.101204 
L 181.195632 222.574518 
L 181.392009 222.574518 
L 181.392009 222.047832 
L 181.534816 222.047832 
L 181.60614 220.99446 
L 181.750742 220.99446 
L 181.750742 220.467774 
L 181.959841 220.467774 
L 182.028062 218.887716 
L 182.079399 218.887716 
L 182.100168 216.780971 
L 182.307879 216.780971 
L 182.380202 215.727599 
L 182.579239 215.727599 
L 182.651118 214.674227 
L 182.77603 214.674227 
L 182.782685 213.620855 
L 182.913267 213.620855 
L 182.984443 212.040797 
L 183.170884 212.040797 
L 183.17804 210.987425 
L 183.366939 210.987425 
L 183.437572 209.934052 
L 183.809734 209.934052 
L 183.811615 208.353994 
L 183.996912 208.353994 
L 184.061335 206.773936 
L 184.120591 206.773936 
L 184.183332 204.140506 
L 184.328244 204.140506 
L 184.328244 203.613819 
L 184.546688 203.613819 
L 184.611512 202.033761 
L 184.670125 202.033761 
L 184.748169 199.400331 
L 184.787951 199.400331 
L 184.828825 198.346959 
L 185.204608 198.346959 
L 185.253759 197.293586 
L 185.375175 197.293586 
L 185.483219 195.713528 
L 185.544091 195.713528 
L 185.546363 194.660156 
L 185.657869 194.660156 
L 185.766984 193.606784 
L 185.773151 193.606784 
L 185.87765 192.026726 
L 186.051722 192.026726 
L 186.051722 191.50004 
L 186.208775 191.50004 
L 186.242635 190.446667 
L 186.372009 190.446667 
L 186.377965 188.866609 
L 186.535876 188.866609 
L 186.641249 186.759865 
L 186.754469 186.759865 
L 186.754469 186.233179 
L 186.957793 186.233179 
L 187.010083 184.126434 
L 187.122498 184.126434 
L 187.218722 182.01969 
L 187.628657 182.01969 
L 187.676967 180.439632 
L 187.777684 180.439632 
L 187.878319 178.332888 
L 187.89917 178.332888 
L 187.975907 177.279515 
L 188.028192 177.279515 
L 188.028192 176.752829 
L 188.272238 176.752829 
L 188.375862 175.699457 
L 188.406252 175.699457 
L 188.416851 174.119399 
L 188.522973 174.119399 
L 188.613696 172.539341 
L 188.700633 172.539341 
L 188.730935 171.485969 
L 188.84739 171.485969 
L 188.936445 168.852538 
L 189.029234 168.852538 
L 189.123844 167.27248 
L 189.351758 167.27248 
L 189.442822 165.165736 
L 189.495422 165.165736 
L 189.587994 162.005619 
L 189.668425 162.005619 
L 189.758301 160.952247 
L 189.986489 160.952247 
L 190.023426 159.898875 
L 190.115866 159.898875 
L 190.198253 158.318817 
L 190.285014 158.318817 
L 190.377802 156.738758 
L 190.500045 156.738758 
L 190.512009 155.1587 
L 190.629924 155.1587 
L 190.715413 153.578642 
L 190.754632 153.578642 
L 190.757159 152.52527 
L 191.011782 152.52527 
L 191.095837 150.418525 
L 191.171265 150.418525 
L 191.254556 148.311781 
L 191.295032 148.311781 
L 191.337044 147.258409 
L 191.426847 147.258409 
L 191.456409 146.205037 
L 191.540769 146.205037 
L 191.625123 143.571606 
L 191.657551 143.571606 
L 191.737363 142.518234 
L 191.777133 142.518234 
L 191.821171 140.41149 
L 191.8959 140.41149 
L 191.897872 139.358118 
L 192.038143 139.358118 
L 192.131424 137.778059 
L 192.170305 137.778059 
L 192.170305 137.251373 
L 192.324587 137.251373 
L 192.403326 136.198001 
L 192.461098 136.198001 
L 192.565443 134.617943 
L 192.592001 134.617943 
L 192.667658 131.457826 
L 192.70574 131.457826 
L 192.718542 130.404454 
L 192.931389 130.404454 
L 193.013734 128.824396 
L 193.078004 128.824396 
L 193.118145 127.244338 
L 193.224859 127.244338 
L 193.297825 125.137593 
L 193.37085 125.137593 
L 193.480718 123.030849 
L 193.482159 123.030849 
L 193.586675 121.450791 
L 193.622448 121.450791 
L 193.730391 119.344047 
L 193.801985 119.344047 
L 193.906717 117.237302 
L 193.941137 117.237302 
L 194.021305 115.130558 
L 204.541446 115.130558 
L 204.541446 114.603872 
L 205.056889 114.603872 
L 205.056889 113.5505 
L 205.239391 113.5505 
L 205.313213 111.970441 
L 205.585451 111.970441 
L 205.585451 111.443755 
L 205.799547 111.443755 
L 205.870863 109.337011 
L 205.976766 109.337011 
L 206.046836 106.703581 
L 206.116801 106.703581 
L 206.121514 104.596836 
L 212.757497 104.596836 
L 212.769421 103.543464 
L 213.100263 103.543464 
L 213.136249 102.490092 
L 217.816283 102.490092 
L 217.816283 101.963406 
L 218.02053 101.963406 
L 218.082166 99.856662 
L 218.143411 99.856662 
L 218.195623 97.749917 
L 221.7469 97.749917 
L 221.78959 96.696545 
L 221.922116 96.696545 
L 222.001278 95.643173 
L 225.124919 95.643173 
L 225.124919 95.116487 
L 225.240571 95.116487 
L 225.240571 94.589801 
L 227.720172 94.589801 
L 227.720172 94.063115 
L 227.901607 94.063115 
L 227.95623 93.009743 
L 230.288021 93.009743 
L 230.288021 92.483056 
L 232.298059 92.483056 
L 232.298059 91.95637 
L 234.183823 91.95637 
L 234.183823 91.429684 
L 238.763271 91.429684 
L 238.763271 90.902998 
L 240.046663 90.902998 
L 240.056613 89.849626 
L 244.434372 89.849626 
L 244.434372 89.32294 
L 253.926413 89.32294 
L 253.926413 88.796254 
L 259.22388 88.796254 
L 259.22388 88.269568 
L 338.688 88.269568 
L 338.688 88.269568 
" style="fill:none;stroke:#6495ed;stroke-linecap:square;stroke-width:1.5;"/>
   </g>
   <g id="line2d_51">
    <defs>
     <path d="M -0 6 
L 6 -6 
L -6 -6 
z
" id="m5b980944c3" style="stroke:#6495ed;stroke-linejoin:miter;stroke-width:1.5;"/>
    </defs>
    <g>
     <use style="fill-opacity:0;stroke:#6495ed;stroke-linejoin:miter;stroke-width:1.5;" x="181.392009" xlink:href="#m5b980944c3" y="222.574518"/>
     <use style="fill-opacity:0;stroke:#6495ed;stroke-linejoin:miter;stroke-width:1.5;" x="218.195623" xlink:href="#m5b980944c3" y="98.276603"/>
     <use style="fill-opacity:0;stroke:#6495ed;stroke-linejoin:miter;stroke-width:1.5;" x="259.22388" xlink:href="#m5b980944c3" y="88.796254"/>
     <use style="fill-opacity:0;stroke:#6495ed;stroke-linejoin:miter;stroke-width:1.5;" x="259.22388" xlink:href="#m5b980944c3" y="88.269568"/>
     <use style="fill-opacity:0;stroke:#6495ed;stroke-linejoin:miter;stroke-width:1.5;" x="338.688" xlink:href="#m5b980944c3" y="88.269568"/>
    </g>
   </g>
   <g id="line2d_52">
    <path style="fill:none;stroke:#6495ed;stroke-linecap:square;stroke-width:1.5;"/>
    <g/>
   </g>
   <g id="line2d_53">
    <path clip-path="url(#pd4b10b0194)" d="M 194.045737 115.130558 
" style="fill:none;stroke:#6495ed;stroke-linecap:square;stroke-width:1.5;"/>
    <defs>
     <path d="M -12 12 
L 12 -12 
M -12 -12 
L 12 12 
" id="med3be1c359" style="stroke:#6495ed;"/>
    </defs>
    <g clip-path="url(#pd4b10b0194)">
     <use style="fill:#6495ed;stroke:#6495ed;" x="194.045737" xlink:href="#med3be1c359" y="115.130558"/>
    </g>
   </g>
   <g id="line2d_54">
    <defs>
     <path d="M 0 1.5 
C 0.397805 1.5 0.77937 1.341951 1.06066 1.06066 
C 1.341951 0.77937 1.5 0.397805 1.5 0 
C 1.5 -0.397805 1.341951 -0.77937 1.06066 -1.06066 
C 0.77937 -1.341951 0.397805 -1.5 0 -1.5 
C -0.397805 -1.5 -0.77937 -1.341951 -1.06066 -1.06066 
C -1.341951 -0.77937 -1.5 -0.397805 -1.5 0 
C -1.5 0.397805 -1.341951 0.77937 -1.06066 1.06066 
C -0.77937 1.341951 -0.397805 1.5 0 1.5 
z
" id="m020e77c7c7" style="stroke:#ff0000;"/>
    </defs>
    <g>
     <use style="fill:#ff0000;stroke:#ff0000;" x="267.068797" xlink:href="#m020e77c7c7" y="219.941088"/>
     <use style="fill:#ff0000;stroke:#ff0000;" x="267.068797" xlink:href="#m020e77c7c7" y="219.941088"/>
    </g>
   </g>
   <g id="line2d_55">
    <path d="M 134.073807 298.944 
L 134.073807 298.417314 
L 134.973757 298.417314 
L 134.973757 297.890628 
L 136.738785 297.890628 
L 136.738785 297.363942 
L 139.341588 297.363942 
L 139.405733 296.31057 
L 139.980403 296.31057 
L 139.980403 295.783884 
L 140.596643 295.783884 
L 140.596643 295.257197 
L 142.405626 295.257197 
L 142.405626 294.730511 
L 143.94605 294.730511 
L 143.94605 294.203825 
L 145.138129 294.203825 
L 145.138129 293.677139 
L 147.2005 293.677139 
L 147.2005 293.150453 
L 147.704998 293.150453 
L 147.704998 292.623767 
L 150.425213 292.623767 
L 150.425213 292.097081 
L 151.039674 292.097081 
L 151.039674 291.570395 
L 151.21133 291.570395 
L 151.21133 291.043709 
L 151.449647 291.043709 
L 151.449647 290.517023 
L 151.672873 290.517023 
L 151.672873 289.990337 
L 152.583425 289.990337 
L 152.583425 289.463651 
L 155.561959 289.463651 
L 155.561959 288.936964 
L 156.687861 288.936964 
L 156.687861 288.410278 
L 157.644509 288.410278 
L 157.644509 287.883592 
L 159.474326 287.883592 
L 159.555169 286.83022 
L 161.796686 286.83022 
L 161.796686 286.303534 
L 162.230118 286.303534 
L 162.230118 285.776848 
L 163.735097 285.776848 
L 163.735097 285.250162 
L 164.575287 285.250162 
L 164.575287 284.723476 
L 167.323672 284.723476 
L 167.323672 284.19679 
L 167.649948 284.19679 
L 167.649948 283.670104 
L 169.406043 283.670104 
L 169.406043 283.143418 
L 170.798844 283.143418 
L 170.798844 282.616732 
L 171.220946 282.616732 
L 171.220946 282.090045 
L 172.801084 282.090045 
L 172.801084 281.563359 
L 175.616595 281.563359 
L 175.616595 281.036673 
L 176.064365 281.036673 
L 176.064365 280.509987 
L 176.311997 280.509987 
L 176.311997 279.983301 
L 176.78382 279.983301 
L 176.78382 279.456615 
L 177.111084 279.456615 
L 177.186447 278.403243 
L 177.614921 278.403243 
L 177.614921 277.876557 
L 178.210434 277.876557 
L 178.210434 277.349871 
L 179.454391 277.349871 
L 179.454391 276.823185 
L 182.653129 276.823185 
L 182.653129 276.296499 
L 185.812341 276.296499 
L 185.812341 275.769812 
L 185.959359 275.769812 
L 185.959359 275.243126 
L 187.461564 275.243126 
L 187.461564 274.71644 
L 187.824088 274.71644 
L 187.902147 273.663068 
L 189.792609 273.663068 
L 189.885834 272.609696 
L 190.378233 272.609696 
L 190.378233 272.08301 
L 191.06938 272.08301 
L 191.06938 271.556324 
L 193.75417 271.556324 
L 193.75417 271.029638 
L 193.957271 271.029638 
L 193.997888 269.976266 
L 195.480645 269.976266 
L 195.480645 269.449579 
L 195.649438 269.449579 
L 195.649438 268.922893 
L 195.981577 268.922893 
L 195.981577 268.396207 
L 196.146232 268.396207 
L 196.146232 267.869521 
L 196.565688 267.869521 
L 196.636481 265.762777 
L 197.845438 265.762777 
L 197.845438 265.236091 
L 198.127019 265.236091 
L 198.127019 264.709405 
L 199.364654 264.709405 
L 199.430091 263.656033 
L 199.52486 263.656033 
L 199.556674 262.60266 
L 199.785798 262.60266 
L 199.785798 262.075974 
L 199.954878 262.075974 
L 199.954878 261.549288 
L 200.321574 261.549288 
L 200.321574 260.495916 
L 201.618691 260.495916 
L 201.618691 259.96923 
L 202.555091 259.96923 
L 202.555091 259.442544 
L 203.998086 259.442544 
L 203.998086 258.389172 
L 204.396206 258.389172 
L 204.396206 257.862486 
L 205.988552 257.862486 
L 206.089549 256.809114 
L 206.425987 256.809114 
L 206.425987 256.282427 
L 207.012638 256.282427 
L 207.012638 255.755741 
L 207.707814 255.755741 
L 207.746014 254.702369 
L 208.136858 254.702369 
L 208.136858 253.648997 
L 209.736813 253.648997 
L 209.736813 253.122311 
L 210.867283 253.122311 
L 210.867283 252.595625 
L 211.273686 252.595625 
L 211.366947 251.542253 
L 211.89899 251.542253 
L 211.89899 250.488881 
L 212.267955 250.488881 
L 212.267955 249.962195 
L 213.108097 249.962195 
L 213.188811 248.908822 
L 215.228491 248.908822 
L 215.228491 248.382136 
L 216.498639 248.382136 
L 216.524031 246.802078 
L 216.793833 246.802078 
L 216.793833 246.275392 
L 217.374585 246.275392 
L 217.374585 245.748706 
L 217.606545 245.748706 
L 217.606545 244.695334 
L 218.19964 244.695334 
L 218.19964 244.168648 
L 220.444687 244.168648 
L 220.444687 243.641962 
L 221.033892 243.641962 
L 221.033892 242.588589 
L 221.356817 242.588589 
L 221.356817 242.061903 
L 222.103618 242.061903 
L 222.103618 241.535217 
L 223.355374 241.535217 
L 223.355374 241.008531 
L 223.495194 241.008531 
L 223.495194 240.481845 
L 224.179502 240.481845 
L 224.179502 239.955159 
L 224.652074 239.955159 
L 224.732578 238.375101 
L 224.885042 238.375101 
L 224.885042 237.848415 
L 226.270746 237.848415 
L 226.270746 237.321729 
L 226.655912 237.321729 
L 226.655912 236.795043 
L 227.444122 236.795043 
L 227.444122 235.214984 
L 227.585675 235.214984 
L 227.585675 234.161612 
L 229.799808 234.161612 
L 229.840835 233.10824 
L 230.004831 233.10824 
L 230.004831 232.581554 
L 231.62955 232.581554 
L 231.62955 232.054868 
L 232.358444 232.054868 
L 232.358444 231.001496 
L 233.643963 231.001496 
L 233.643963 230.47481 
L 234.196387 230.47481 
L 234.196387 229.948123 
L 235.837001 229.948123 
L 235.837001 229.421437 
L 237.102894 229.421437 
L 237.102894 228.894751 
L 239.872452 228.894751 
L 239.872452 228.368065 
L 240.835383 228.368065 
L 240.919794 226.788007 
L 241.110251 226.788007 
L 241.110251 226.261321 
L 242.225833 226.261321 
L 242.225833 225.734635 
L 243.293239 225.734635 
L 243.293239 225.207949 
L 244.449088 225.207949 
L 244.449088 224.681263 
L 247.949123 224.681263 
L 247.949123 224.154577 
L 251.385148 224.154577 
L 251.385148 223.627891 
L 252.640867 223.627891 
L 252.674347 222.574518 
L 255.020867 222.574518 
L 255.020867 222.047832 
L 256.538404 222.047832 
L 256.538404 221.521146 
L 257.41047 221.521146 
L 257.41047 220.99446 
L 260.733849 220.99446 
L 260.733849 220.467774 
L 267.068797 220.467774 
L 267.068797 219.941088 
L 338.688 219.941088 
L 338.688 219.941088 
" style="fill:none;stroke:#ff0000;stroke-linecap:square;stroke-width:1.5;"/>
   </g>
   <g id="line2d_56">
    <defs>
     <path d="M 0 -6 
L -5.196152 -3 
L -5.196152 3 
L -0 6 
L 5.196152 3 
L 5.196152 -3 
z
" id="mf4d3c0897b" style="stroke:#ff0000;stroke-linejoin:miter;stroke-width:1.5;"/>
    </defs>
    <g>
     <use style="fill-opacity:0;stroke:#ff0000;stroke-linejoin:miter;stroke-width:1.5;" x="205.988552" xlink:href="#mf4d3c0897b" y="257.3358"/>
     <use style="fill-opacity:0;stroke:#ff0000;stroke-linejoin:miter;stroke-width:1.5;" x="257.41047" xlink:href="#mf4d3c0897b" y="221.521146"/>
     <use style="fill-opacity:0;stroke:#ff0000;stroke-linejoin:miter;stroke-width:1.5;" x="267.068797" xlink:href="#mf4d3c0897b" y="219.941088"/>
     <use style="fill-opacity:0;stroke:#ff0000;stroke-linejoin:miter;stroke-width:1.5;" x="267.068797" xlink:href="#mf4d3c0897b" y="219.941088"/>
     <use style="fill-opacity:0;stroke:#ff0000;stroke-linejoin:miter;stroke-width:1.5;" x="338.688" xlink:href="#mf4d3c0897b" y="219.941088"/>
    </g>
   </g>
   <g id="line2d_57">
    <path style="fill:none;stroke:#ff0000;stroke-linecap:square;stroke-width:1.5;"/>
    <g/>
   </g>
   <g id="line2d_58">
    <path clip-path="url(#pd4b10b0194)" d="M 194.045737 269.976266 
" style="fill:none;stroke:#ff0000;stroke-linecap:square;stroke-width:1.5;"/>
    <defs>
     <path d="M -12 12 
L 12 -12 
M -12 -12 
L 12 12 
" id="m8dd18ba934" style="stroke:#ff0000;"/>
    </defs>
    <g clip-path="url(#pd4b10b0194)">
     <use style="fill:#ff0000;stroke:#ff0000;" x="194.045737" xlink:href="#m8dd18ba934" y="269.976266"/>
    </g>
   </g>
   <g id="line2d_59">
    <defs>
     <path d="M 0 1.5 
C 0.397805 1.5 0.77937 1.341951 1.06066 1.06066 
C 1.341951 0.77937 1.5 0.397805 1.5 0 
C 1.5 -0.397805 1.341951 -0.77937 1.06066 -1.06066 
C 0.77937 -1.341951 0.397805 -1.5 0 -1.5 
C -0.397805 -1.5 -0.77937 -1.341951 -1.06066 -1.06066 
C -1.341951 -0.77937 -1.5 -0.397805 -1.5 0 
C -1.5 0.397805 -1.341951 0.77937 -1.06066 1.06066 
C -0.77937 1.341951 -0.397805 1.5 0 1.5 
z
" id="m5501cea00a" style="stroke:#9acd32;"/>
    </defs>
    <g>
     <use style="fill:#9acd32;stroke:#9acd32;" x="243.29326" xlink:href="#m5501cea00a" y="241.008531"/>
     <use style="fill:#9acd32;stroke:#9acd32;" x="243.29326" xlink:href="#m5501cea00a" y="241.008531"/>
    </g>
   </g>
   <g id="line2d_60">
    <path d="M 152.736878 298.944 
L 152.736878 298.417314 
L 158.401243 298.417314 
L 158.401243 297.890628 
L 160.280882 297.890628 
L 160.280882 297.363942 
L 166.309958 297.363942 
L 166.309958 296.837256 
L 166.470061 296.837256 
L 166.470061 296.31057 
L 167.921939 296.31057 
L 167.921939 295.783884 
L 171.195104 295.783884 
L 171.195104 295.257197 
L 172.866999 295.257197 
L 172.965407 294.203825 
L 173.616647 294.203825 
L 173.616647 293.677139 
L 173.832509 293.677139 
L 173.832509 293.150453 
L 174.324591 293.150453 
L 174.430173 292.097081 
L 174.934099 292.097081 
L 174.934099 291.570395 
L 177.23407 291.570395 
L 177.23407 291.043709 
L 177.705065 291.043709 
L 177.705065 290.517023 
L 178.407354 290.517023 
L 178.407354 289.990337 
L 178.544481 289.990337 
L 178.544481 289.463651 
L 179.446336 289.463651 
L 179.446336 288.936964 
L 180.012267 288.936964 
L 180.012267 288.410278 
L 180.461881 288.410278 
L 180.461881 287.883592 
L 180.742351 287.883592 
L 180.742351 287.356906 
L 181.085979 287.356906 
L 181.146739 286.303534 
L 182.696644 286.303534 
L 182.696644 285.776848 
L 183.611644 285.776848 
L 183.637637 284.723476 
L 183.826036 284.723476 
L 183.932874 283.670104 
L 184.540072 283.670104 
L 184.540072 283.143418 
L 184.755301 283.143418 
L 184.755301 282.616732 
L 185.13091 282.616732 
L 185.13091 282.090045 
L 185.244518 282.090045 
L 185.244518 281.563359 
L 185.395807 281.563359 
L 185.395807 281.036673 
L 185.758011 281.036673 
L 185.758011 280.509987 
L 185.917718 280.509987 
L 185.917718 279.983301 
L 186.505805 279.983301 
L 186.505805 279.456615 
L 187.13598 279.456615 
L 187.19704 278.403243 
L 187.434069 278.403243 
L 187.434069 277.876557 
L 187.876829 277.876557 
L 187.968496 276.823185 
L 188.29796 276.823185 
L 188.29796 276.296499 
L 188.457744 276.296499 
L 188.457744 275.769812 
L 188.920075 275.769812 
L 188.920075 275.243126 
L 189.222543 275.243126 
L 189.222543 274.71644 
L 189.465968 274.71644 
L 189.545608 273.663068 
L 189.613196 273.663068 
L 189.613196 273.136382 
L 189.777468 273.136382 
L 189.865456 271.556324 
L 190.002768 271.556324 
L 190.002768 271.029638 
L 190.193469 271.029638 
L 190.193469 270.502952 
L 190.570853 270.502952 
L 190.570853 269.976266 
L 191.069794 269.976266 
L 191.080547 268.922893 
L 191.235307 268.922893 
L 191.338267 267.869521 
L 191.633136 267.869521 
L 191.652751 266.816149 
L 191.903789 266.816149 
L 191.903789 266.289463 
L 192.029532 266.289463 
L 192.031098 265.236091 
L 192.309181 265.236091 
L 192.309181 264.709405 
L 192.549489 264.709405 
L 192.657841 263.656033 
L 193.566969 263.656033 
L 193.566969 263.129347 
L 200.632253 263.129347 
L 200.632253 262.60266 
L 200.850589 262.60266 
L 200.850589 262.075974 
L 201.762016 262.075974 
L 201.762016 261.549288 
L 202.477624 261.549288 
L 202.477624 261.022602 
L 203.562595 261.022602 
L 203.562595 260.495916 
L 204.229141 260.495916 
L 204.229141 259.96923 
L 204.48269 259.96923 
L 204.48269 259.442544 
L 204.709156 259.442544 
L 204.714076 258.389172 
L 204.83248 258.389172 
L 204.83248 257.3358 
L 205.154744 257.3358 
L 205.154744 256.809114 
L 205.342253 256.809114 
L 205.401644 255.755741 
L 205.453581 255.755741 
L 205.453581 255.229055 
L 205.840917 255.229055 
L 205.840917 254.175683 
L 212.121601 254.175683 
L 212.121601 253.648997 
L 212.268078 253.648997 
L 212.268078 253.122311 
L 212.519583 253.122311 
L 212.519583 252.595625 
L 213.010087 252.595625 
L 213.010087 252.068939 
L 217.255456 252.068939 
L 217.255456 251.542253 
L 217.915866 251.542253 
L 218.024851 250.488881 
L 220.967719 250.488881 
L 220.967719 249.962195 
L 221.312249 249.962195 
L 221.312249 249.435508 
L 221.471396 249.435508 
L 221.471396 248.908822 
L 221.705319 248.908822 
L 221.705319 248.382136 
L 221.844294 248.382136 
L 221.844294 247.85545 
L 224.953518 247.85545 
L 224.953518 247.328764 
L 225.068954 247.328764 
L 225.089433 246.275392 
L 227.404974 246.275392 
L 227.404974 245.748706 
L 227.897852 245.748706 
L 227.897852 245.22202 
L 230.211549 245.22202 
L 230.211549 244.695334 
L 232.276534 244.695334 
L 232.276534 243.115275 
L 235.679098 243.115275 
L 235.679098 242.588589 
L 238.564878 242.588589 
L 238.564878 242.061903 
L 241.219906 242.061903 
L 241.219906 241.535217 
L 243.29326 241.535217 
L 243.29326 241.008531 
L 338.688 241.008531 
L 338.688 241.008531 
" style="fill:none;stroke:#9acd32;stroke-linecap:square;stroke-width:1.5;"/>
   </g>
   <g id="line2d_61">
    <defs>
     <path d="M 0 -6 
L -6 6 
L 6 6 
z
" id="mc8e6866fd9" style="stroke:#9acd32;stroke-linejoin:miter;stroke-width:1.5;"/>
    </defs>
    <g>
     <use style="fill-opacity:0;stroke:#9acd32;stroke-linejoin:miter;stroke-width:1.5;" x="184.755301" xlink:href="#mc8e6866fd9" y="282.616732"/>
     <use style="fill-opacity:0;stroke:#9acd32;stroke-linejoin:miter;stroke-width:1.5;" x="238.564878" xlink:href="#mc8e6866fd9" y="242.061903"/>
     <use style="fill-opacity:0;stroke:#9acd32;stroke-linejoin:miter;stroke-width:1.5;" x="243.29326" xlink:href="#mc8e6866fd9" y="241.008531"/>
     <use style="fill-opacity:0;stroke:#9acd32;stroke-linejoin:miter;stroke-width:1.5;" x="338.688" xlink:href="#mc8e6866fd9" y="241.008531"/>
    </g>
   </g>
   <g id="line2d_62">
    <path style="fill:none;stroke:#9acd32;stroke-linecap:square;stroke-width:1.5;"/>
    <g/>
   </g>
   <g id="line2d_63">
    <path clip-path="url(#pd4b10b0194)" d="M 194.045737 263.129347 
" style="fill:none;stroke:#9acd32;stroke-linecap:square;stroke-width:1.5;"/>
    <defs>
     <path d="M -12 12 
L 12 -12 
M -12 -12 
L 12 12 
" id="m4c0c3155b5" style="stroke:#9acd32;"/>
    </defs>
    <g clip-path="url(#pd4b10b0194)">
     <use style="fill:#9acd32;stroke:#9acd32;" x="194.045737" xlink:href="#m4c0c3155b5" y="263.129347"/>
    </g>
   </g>
   <g id="line2d_64">
    <defs>
     <path d="M 0 1.5 
C 0.397805 1.5 0.77937 1.341951 1.06066 1.06066 
C 1.341951 0.77937 1.5 0.397805 1.5 0 
C 1.5 -0.397805 1.341951 -0.77937 1.06066 -1.06066 
C 0.77937 -1.341951 0.397805 -1.5 0 -1.5 
C -0.397805 -1.5 -0.77937 -1.341951 -1.06066 -1.06066 
C -1.341951 -0.77937 -1.5 -0.397805 -1.5 0 
C -1.5 0.397805 -1.341951 0.77937 -1.06066 1.06066 
C -0.77937 1.341951 -0.397805 1.5 0 1.5 
z
" id="maa9c143942" style="stroke:#00bfbf;"/>
    </defs>
    <g>
     <use style="fill:#00bfbf;stroke:#00bfbf;" x="234.144781" xlink:href="#maa9c143942" y="256.809114"/>
     <use style="fill:#00bfbf;stroke:#00bfbf;" x="234.144781" xlink:href="#maa9c143942" y="256.809114"/>
    </g>
   </g>
   <g id="line2d_65">
    <path d="M 171.590146 298.944 
L 171.590146 298.417314 
L 175.127122 298.417314 
L 175.127122 297.890628 
L 175.327216 297.890628 
L 175.327216 297.363942 
L 176.233718 297.363942 
L 176.233718 296.837256 
L 176.627328 296.837256 
L 176.627328 296.31057 
L 177.032617 296.31057 
L 177.032617 295.783884 
L 178.473071 295.783884 
L 178.473071 295.257197 
L 178.656952 295.257197 
L 178.656952 294.730511 
L 179.706217 294.730511 
L 179.789358 293.677139 
L 180.172963 293.677139 
L 180.172963 293.150453 
L 180.472518 293.150453 
L 180.472518 292.623767 
L 180.793881 292.623767 
L 180.793881 292.097081 
L 181.154776 292.097081 
L 181.154776 291.570395 
L 181.344386 291.570395 
L 181.344386 291.043709 
L 182.296252 291.043709 
L 182.296252 290.517023 
L 183.015983 290.517023 
L 183.015983 289.990337 
L 183.271451 289.990337 
L 183.271451 289.463651 
L 184.003117 289.463651 
L 184.003117 288.936964 
L 184.322154 288.936964 
L 184.393277 287.356906 
L 184.652203 287.356906 
L 184.701146 286.303534 
L 185.037033 286.303534 
L 185.037033 285.776848 
L 185.392943 285.776848 
L 185.442139 284.723476 
L 185.898252 284.723476 
L 185.899365 283.670104 
L 186.425003 283.670104 
L 186.479451 282.616732 
L 186.913223 282.616732 
L 186.913223 282.090045 
L 187.208401 282.090045 
L 187.208401 281.563359 
L 187.594861 281.563359 
L 187.594861 281.036673 
L 187.80614 281.036673 
L 187.80614 280.509987 
L 188.060667 280.509987 
L 188.060667 279.983301 
L 188.320738 279.983301 
L 188.320738 279.456615 
L 189.013881 279.456615 
L 189.013881 278.929929 
L 189.616344 278.929929 
L 189.616344 278.403243 
L 189.80907 278.403243 
L 189.839283 277.349871 
L 190.154274 277.349871 
L 190.154274 276.823185 
L 190.385118 276.823185 
L 190.385118 276.296499 
L 190.533779 276.296499 
L 190.533779 275.769812 
L 190.888488 275.769812 
L 190.888488 275.243126 
L 191.268468 275.243126 
L 191.268468 274.71644 
L 191.75368 274.71644 
L 191.75368 274.189754 
L 191.951049 274.189754 
L 192.016998 273.136382 
L 192.138429 273.136382 
L 192.235819 271.556324 
L 192.25013 271.556324 
L 192.263656 270.502952 
L 192.380317 270.502952 
L 192.380317 269.976266 
L 193.107474 269.976266 
L 193.212059 268.396207 
L 193.318565 268.396207 
L 193.371575 267.342835 
L 193.476755 267.342835 
L 193.476755 266.816149 
L 202.531951 266.816149 
L 202.531951 266.289463 
L 204.161512 266.289463 
L 204.161512 265.762777 
L 204.446227 265.762777 
L 204.446227 265.236091 
L 205.265439 265.236091 
L 205.320889 263.656033 
L 205.684866 263.656033 
L 205.684866 263.129347 
L 205.799902 263.129347 
L 205.851555 261.549288 
L 212.906794 261.549288 
L 212.931966 260.495916 
L 217.820031 260.495916 
L 217.820031 259.96923 
L 222.000224 259.96923 
L 222.000224 259.442544 
L 230.110018 259.442544 
L 230.20791 258.389172 
L 230.239193 258.389172 
L 230.239193 257.862486 
L 234.041601 257.862486 
L 234.144781 256.809114 
L 338.688 256.809114 
L 338.688 256.809114 
" style="fill:none;stroke:#00bfbf;stroke-linecap:square;stroke-width:1.5;"/>
   </g>
   <g id="line2d_66">
    <defs>
     <path d="M 0 -6 
L -5.706339 -1.854102 
L -3.526712 4.854102 
L 3.526712 4.854102 
L 5.706339 -1.854102 
z
" id="mbda79b1fad" style="stroke:#00bfbf;stroke-linejoin:miter;stroke-width:1.5;"/>
    </defs>
    <g>
     <use style="fill-opacity:0;stroke:#00bfbf;stroke-linejoin:miter;stroke-width:1.5;" x="234.144781" xlink:href="#mbda79b1fad" y="257.3358"/>
     <use style="fill-opacity:0;stroke:#00bfbf;stroke-linejoin:miter;stroke-width:1.5;" x="234.144781" xlink:href="#mbda79b1fad" y="256.809114"/>
     <use style="fill-opacity:0;stroke:#00bfbf;stroke-linejoin:miter;stroke-width:1.5;" x="234.144781" xlink:href="#mbda79b1fad" y="256.809114"/>
     <use style="fill-opacity:0;stroke:#00bfbf;stroke-linejoin:miter;stroke-width:1.5;" x="338.688" xlink:href="#mbda79b1fad" y="256.809114"/>
    </g>
   </g>
   <g id="line2d_67">
    <path style="fill:none;stroke:#00bfbf;stroke-linecap:square;stroke-width:1.5;"/>
    <g/>
   </g>
   <g id="line2d_68">
    <path clip-path="url(#pd4b10b0194)" d="M 194.045737 266.816149 
" style="fill:none;stroke:#00bfbf;stroke-linecap:square;stroke-width:1.5;"/>
    <defs>
     <path d="M -12 12 
L 12 -12 
M -12 -12 
L 12 12 
" id="m702f85fc7b" style="stroke:#00bfbf;"/>
    </defs>
    <g clip-path="url(#pd4b10b0194)">
     <use style="fill:#00bfbf;stroke:#00bfbf;" x="194.045737" xlink:href="#m702f85fc7b" y="266.816149"/>
    </g>
   </g>
   <g id="line2d_69">
    <path d="M 338.688 272.609696 
L 369.60768 293.571802 
" style="fill:none;stroke:#ff00ff;stroke-linecap:square;stroke-width:1.5;"/>
    <g>
     <use style="fill-opacity:0;stroke:#ff00ff;stroke-linejoin:miter;stroke-width:1.5;" x="338.688" xlink:href="#m60a49bbfdc" y="272.609696"/>
     <use style="fill-opacity:0;stroke:#ff00ff;stroke-linejoin:miter;stroke-width:1.5;" x="369.60768" xlink:href="#m60a49bbfdc" y="293.571802"/>
    </g>
   </g>
   <g id="line2d_70">
    <path d="M 338.688 272.609696 
L 369.60768 256.733873 
" style="fill:none;stroke:#000080;stroke-linecap:square;stroke-width:1.5;"/>
    <g>
     <use style="fill-opacity:0;stroke:#000080;stroke-width:1.5;" x="338.688" xlink:href="#mc79cb1e157" y="272.609696"/>
     <use style="fill-opacity:0;stroke:#000080;stroke-width:1.5;" x="369.60768" xlink:href="#mc79cb1e157" y="256.733873"/>
    </g>
   </g>
   <g id="line2d_71">
    <path d="M 338.688 256.809114 
L 369.60768 219.895943 
" style="fill:none;stroke:#00bfbf;stroke-linecap:square;stroke-width:1.5;"/>
    <g>
     <use style="fill-opacity:0;stroke:#00bfbf;stroke-linejoin:miter;stroke-width:1.5;" x="338.688" xlink:href="#mbda79b1fad" y="256.809114"/>
     <use style="fill-opacity:0;stroke:#00bfbf;stroke-linejoin:miter;stroke-width:1.5;" x="369.60768" xlink:href="#mbda79b1fad" y="219.895943"/>
    </g>
   </g>
   <g id="line2d_72">
    <path d="M 338.688 241.008531 
L 369.60768 183.058014 
" style="fill:none;stroke:#9acd32;stroke-linecap:square;stroke-width:1.5;"/>
    <g>
     <use style="fill-opacity:0;stroke:#9acd32;stroke-linejoin:miter;stroke-width:1.5;" x="338.688" xlink:href="#mc8e6866fd9" y="241.008531"/>
     <use style="fill-opacity:0;stroke:#9acd32;stroke-linejoin:miter;stroke-width:1.5;" x="369.60768" xlink:href="#mc8e6866fd9" y="183.058014"/>
    </g>
   </g>
   <g id="line2d_73">
    <path d="M 338.688 219.941088 
L 369.60768 146.220085 
" style="fill:none;stroke:#ff0000;stroke-linecap:square;stroke-width:1.5;"/>
    <g>
     <use style="fill-opacity:0;stroke:#ff0000;stroke-linejoin:miter;stroke-width:1.5;" x="338.688" xlink:href="#mf4d3c0897b" y="219.941088"/>
     <use style="fill-opacity:0;stroke:#ff0000;stroke-linejoin:miter;stroke-width:1.5;" x="369.60768" xlink:href="#mf4d3c0897b" y="146.220085"/>
    </g>
   </g>
   <g id="line2d_74">
    <path d="M 338.688 219.941088 
L 369.60768 109.382156 
" style="fill:none;stroke:#ff7500;stroke-linecap:square;stroke-width:1.5;"/>
    <g>
     <use style="fill-opacity:0;stroke:#ff7500;stroke-linejoin:bevel;stroke-width:1.5;" x="338.688" xlink:href="#m14933ac687" y="219.941088"/>
     <use style="fill-opacity:0;stroke:#ff7500;stroke-linejoin:bevel;stroke-width:1.5;" x="369.60768" xlink:href="#m14933ac687" y="109.382156"/>
    </g>
   </g>
   <g id="line2d_75">
    <path d="M 338.688 88.269568 
L 369.60768 72.544226 
" style="fill:none;stroke:#6495ed;stroke-linecap:square;stroke-width:1.5;"/>
    <g>
     <use style="fill-opacity:0;stroke:#6495ed;stroke-linejoin:miter;stroke-width:1.5;" x="338.688" xlink:href="#m5b980944c3" y="88.269568"/>
     <use style="fill-opacity:0;stroke:#6495ed;stroke-linejoin:miter;stroke-width:1.5;" x="369.60768" xlink:href="#m5b980944c3" y="72.544226"/>
    </g>
   </g>
   <g id="line2d_76">
    <path d="M 338.688 298.944 
L 338.688 30.334099 
" style="fill:none;stroke:#000000;stroke-linecap:square;stroke-width:1.5;"/>
   </g>
   <g id="patch_3">
    <path d="M 57.6 298.944 
L 57.6 27.648 
" style="fill:none;stroke:#000000;stroke-linecap:square;stroke-linejoin:miter;stroke-width:0.8;"/>
   </g>
   <g id="patch_4">
    <path d="M 338.688 298.944 
L 338.688 27.648 
" style="fill:none;stroke:#000000;stroke-linecap:square;stroke-linejoin:miter;stroke-width:0.8;"/>
   </g>
   <g id="patch_5">
    <path d="M 57.6 298.944 
L 338.688 298.944 
" style="fill:none;stroke:#000000;stroke-linecap:square;stroke-linejoin:miter;stroke-width:0.8;"/>
   </g>
   <g id="patch_6">
    <path d="M 57.6 27.648 
L 338.688 27.648 
" style="fill:none;stroke:#000000;stroke-linecap:square;stroke-linejoin:miter;stroke-width:0.8;"/>
   </g>
   <g id="text_13">
    <!-- DE -->
    <g transform="translate(375.22944 298.262739)scale(0.17 -0.17)">
     <defs>
      <path d="M 1259 4147 
L 1259 519 
L 2022 519 
Q 2988 519 3436 956 
Q 3884 1394 3884 2338 
Q 3884 3275 3436 3711 
Q 2988 4147 2022 4147 
L 1259 4147 
z
M 628 4666 
L 1925 4666 
Q 3281 4666 3915 4102 
Q 4550 3538 4550 2338 
Q 4550 1131 3912 565 
Q 3275 0 1925 0 
L 628 0 
L 628 4666 
z
" id="DejaVuSans-44" transform="scale(0.015625)"/>
      <path d="M 628 4666 
L 3578 4666 
L 3578 4134 
L 1259 4134 
L 1259 2753 
L 3481 2753 
L 3481 2222 
L 1259 2222 
L 1259 531 
L 3634 531 
L 3634 0 
L 628 0 
L 628 4666 
z
" id="DejaVuSans-45" transform="scale(0.015625)"/>
     </defs>
     <use xlink:href="#DejaVuSans-44"/>
     <use x="77.001953" xlink:href="#DejaVuSans-45"/>
    </g>
   </g>
   <g id="text_14">
    <!-- Bin GA -->
    <g transform="translate(375.22944 261.42481)scale(0.17 -0.17)">
     <defs>
      <path d="M 1259 2228 
L 1259 519 
L 2272 519 
Q 2781 519 3026 730 
Q 3272 941 3272 1375 
Q 3272 1813 3026 2020 
Q 2781 2228 2272 2228 
L 1259 2228 
z
M 1259 4147 
L 1259 2741 
L 2194 2741 
Q 2656 2741 2882 2914 
Q 3109 3088 3109 3444 
Q 3109 3797 2882 3972 
Q 2656 4147 2194 4147 
L 1259 4147 
z
M 628 4666 
L 2241 4666 
Q 2963 4666 3353 4366 
Q 3744 4066 3744 3513 
Q 3744 3084 3544 2831 
Q 3344 2578 2956 2516 
Q 3422 2416 3680 2098 
Q 3938 1781 3938 1306 
Q 3938 681 3513 340 
Q 3088 0 2303 0 
L 628 0 
L 628 4666 
z
" id="DejaVuSans-42" transform="scale(0.015625)"/>
      <path d="M 3809 666 
L 3809 1919 
L 2778 1919 
L 2778 2438 
L 4434 2438 
L 4434 434 
Q 4069 175 3628 42 
Q 3188 -91 2688 -91 
Q 1594 -91 976 548 
Q 359 1188 359 2328 
Q 359 3472 976 4111 
Q 1594 4750 2688 4750 
Q 3144 4750 3555 4637 
Q 3966 4525 4313 4306 
L 4313 3634 
Q 3963 3931 3569 4081 
Q 3175 4231 2741 4231 
Q 1884 4231 1454 3753 
Q 1025 3275 1025 2328 
Q 1025 1384 1454 906 
Q 1884 428 2741 428 
Q 3075 428 3337 486 
Q 3600 544 3809 666 
z
" id="DejaVuSans-47" transform="scale(0.015625)"/>
      <path d="M 2188 4044 
L 1331 1722 
L 3047 1722 
L 2188 4044 
z
M 1831 4666 
L 2547 4666 
L 4325 0 
L 3669 0 
L 3244 1197 
L 1141 1197 
L 716 0 
L 50 0 
L 1831 4666 
z
" id="DejaVuSans-41" transform="scale(0.015625)"/>
     </defs>
     <use xlink:href="#DejaVuSans-42"/>
     <use x="68.603516" xlink:href="#DejaVuSans-69"/>
     <use x="96.386719" xlink:href="#DejaVuSans-6e"/>
     <use x="159.765625" xlink:href="#DejaVuSans-20"/>
     <use x="191.552734" xlink:href="#DejaVuSans-47"/>
     <use x="269.042969" xlink:href="#DejaVuSans-41"/>
    </g>
   </g>
   <g id="text_15">
    <!-- PSO EDA -->
    <g transform="translate(375.22944 224.586881)scale(0.17 -0.17)">
     <defs>
      <path d="M 1259 4147 
L 1259 2394 
L 2053 2394 
Q 2494 2394 2734 2622 
Q 2975 2850 2975 3272 
Q 2975 3691 2734 3919 
Q 2494 4147 2053 4147 
L 1259 4147 
z
M 628 4666 
L 2053 4666 
Q 2838 4666 3239 4311 
Q 3641 3956 3641 3272 
Q 3641 2581 3239 2228 
Q 2838 1875 2053 1875 
L 1259 1875 
L 1259 0 
L 628 0 
L 628 4666 
z
" id="DejaVuSans-50" transform="scale(0.015625)"/>
      <path d="M 3425 4513 
L 3425 3897 
Q 3066 4069 2747 4153 
Q 2428 4238 2131 4238 
Q 1616 4238 1336 4038 
Q 1056 3838 1056 3469 
Q 1056 3159 1242 3001 
Q 1428 2844 1947 2747 
L 2328 2669 
Q 3034 2534 3370 2195 
Q 3706 1856 3706 1288 
Q 3706 609 3251 259 
Q 2797 -91 1919 -91 
Q 1588 -91 1214 -16 
Q 841 59 441 206 
L 441 856 
Q 825 641 1194 531 
Q 1563 422 1919 422 
Q 2459 422 2753 634 
Q 3047 847 3047 1241 
Q 3047 1584 2836 1778 
Q 2625 1972 2144 2069 
L 1759 2144 
Q 1053 2284 737 2584 
Q 422 2884 422 3419 
Q 422 4038 858 4394 
Q 1294 4750 2059 4750 
Q 2388 4750 2728 4690 
Q 3069 4631 3425 4513 
z
" id="DejaVuSans-53" transform="scale(0.015625)"/>
      <path d="M 2522 4238 
Q 1834 4238 1429 3725 
Q 1025 3213 1025 2328 
Q 1025 1447 1429 934 
Q 1834 422 2522 422 
Q 3209 422 3611 934 
Q 4013 1447 4013 2328 
Q 4013 3213 3611 3725 
Q 3209 4238 2522 4238 
z
M 2522 4750 
Q 3503 4750 4090 4092 
Q 4678 3434 4678 2328 
Q 4678 1225 4090 567 
Q 3503 -91 2522 -91 
Q 1538 -91 948 565 
Q 359 1222 359 2328 
Q 359 3434 948 4092 
Q 1538 4750 2522 4750 
z
" id="DejaVuSans-4f" transform="scale(0.015625)"/>
     </defs>
     <use xlink:href="#DejaVuSans-50"/>
     <use x="60.302734" xlink:href="#DejaVuSans-53"/>
     <use x="123.779297" xlink:href="#DejaVuSans-4f"/>
     <use x="202.490234" xlink:href="#DejaVuSans-20"/>
     <use x="234.277344" xlink:href="#DejaVuSans-45"/>
     <use x="297.460938" xlink:href="#DejaVuSans-44"/>
     <use x="372.712891" xlink:href="#DejaVuSans-41"/>
    </g>
   </g>
   <g id="text_16">
    <!-- PSO Bound -->
    <g transform="translate(375.22944 187.748952)scale(0.17 -0.17)">
     <use xlink:href="#DejaVuSans-50"/>
     <use x="60.302734" xlink:href="#DejaVuSans-53"/>
     <use x="123.779297" xlink:href="#DejaVuSans-4f"/>
     <use x="202.490234" xlink:href="#DejaVuSans-20"/>
     <use x="234.277344" xlink:href="#DejaVuSans-42"/>
     <use x="302.880859" xlink:href="#DejaVuSans-6f"/>
     <use x="364.0625" xlink:href="#DejaVuSans-75"/>
     <use x="427.441406" xlink:href="#DejaVuSans-6e"/>
     <use x="490.820312" xlink:href="#DejaVuSans-64"/>
    </g>
   </g>
   <g id="text_17">
    <!-- PSO -->
    <g transform="translate(375.22944 150.911022)scale(0.17 -0.17)">
     <use xlink:href="#DejaVuSans-50"/>
     <use x="60.302734" xlink:href="#DejaVuSans-53"/>
     <use x="123.779297" xlink:href="#DejaVuSans-4f"/>
    </g>
   </g>
   <g id="text_18">
    <!-- DEAE -->
    <g transform="translate(375.22944 114.073093)scale(0.17 -0.17)">
     <use xlink:href="#DejaVuSans-44"/>
     <use x="77.001953" xlink:href="#DejaVuSans-45"/>
     <use x="140.185547" xlink:href="#DejaVuSans-41"/>
     <use x="208.59375" xlink:href="#DejaVuSans-45"/>
    </g>
   </g>
   <g id="text_19">
    <!-- JADE -->
    <g transform="translate(375.22944 77.235164)scale(0.17 -0.17)">
     <defs>
      <path d="M 628 4666 
L 1259 4666 
L 1259 325 
Q 1259 -519 939 -900 
Q 619 -1281 -91 -1281 
L -331 -1281 
L -331 -750 
L -134 -750 
Q 284 -750 456 -515 
Q 628 -281 628 325 
L 628 4666 
z
" id="DejaVuSans-4a" transform="scale(0.015625)"/>
     </defs>
     <use xlink:href="#DejaVuSans-4a"/>
     <use x="27.742188" xlink:href="#DejaVuSans-41"/>
     <use x="96.150391" xlink:href="#DejaVuSans-44"/>
     <use x="173.152344" xlink:href="#DejaVuSans-45"/>
    </g>
   </g>
   <g id="text_20">
    <!-- best 2009 -->
    <g transform="translate(375.22944 40.397235)scale(0.17 -0.17)">
     <defs>
      <path d="M 3116 1747 
Q 3116 2381 2855 2742 
Q 2594 3103 2138 3103 
Q 1681 3103 1420 2742 
Q 1159 2381 1159 1747 
Q 1159 1113 1420 752 
Q 1681 391 2138 391 
Q 2594 391 2855 752 
Q 3116 1113 3116 1747 
z
M 1159 2969 
Q 1341 3281 1617 3432 
Q 1894 3584 2278 3584 
Q 2916 3584 3314 3078 
Q 3713 2572 3713 1747 
Q 3713 922 3314 415 
Q 2916 -91 2278 -91 
Q 1894 -91 1617 61 
Q 1341 213 1159 525 
L 1159 0 
L 581 0 
L 581 4863 
L 1159 4863 
L 1159 2969 
z
" id="DejaVuSans-62" transform="scale(0.015625)"/>
      <path d="M 703 97 
L 703 672 
Q 941 559 1184 500 
Q 1428 441 1663 441 
Q 2288 441 2617 861 
Q 2947 1281 2994 2138 
Q 2813 1869 2534 1725 
Q 2256 1581 1919 1581 
Q 1219 1581 811 2004 
Q 403 2428 403 3163 
Q 403 3881 828 4315 
Q 1253 4750 1959 4750 
Q 2769 4750 3195 4129 
Q 3622 3509 3622 2328 
Q 3622 1225 3098 567 
Q 2575 -91 1691 -91 
Q 1453 -91 1209 -44 
Q 966 3 703 97 
z
M 1959 2075 
Q 2384 2075 2632 2365 
Q 2881 2656 2881 3163 
Q 2881 3666 2632 3958 
Q 2384 4250 1959 4250 
Q 1534 4250 1286 3958 
Q 1038 3666 1038 3163 
Q 1038 2656 1286 2365 
Q 1534 2075 1959 2075 
z
" id="DejaVuSans-39" transform="scale(0.015625)"/>
     </defs>
     <use xlink:href="#DejaVuSans-62"/>
     <use x="63.476562" xlink:href="#DejaVuSans-65"/>
     <use x="125" xlink:href="#DejaVuSans-73"/>
     <use x="177.099609" xlink:href="#DejaVuSans-74"/>
     <use x="216.308594" xlink:href="#DejaVuSans-20"/>
     <use x="248.095703" xlink:href="#DejaVuSans-32"/>
     <use x="311.71875" xlink:href="#DejaVuSans-30"/>
     <use x="375.341797" xlink:href="#DejaVuSans-30"/>
     <use x="438.964844" xlink:href="#DejaVuSans-39"/>
    </g>
   </g>
   <g id="text_21">
    <!-- bbob f6, 20-D -->
    <g transform="translate(60.41088 38.111366)scale(0.102 -0.102)">
     <use xlink:href="#DejaVuSans-62"/>
     <use x="63.476562" xlink:href="#DejaVuSans-62"/>
     <use x="126.953125" xlink:href="#DejaVuSans-6f"/>
     <use x="188.134766" xlink:href="#DejaVuSans-62"/>
     <use x="251.611328" xlink:href="#DejaVuSans-20"/>
     <use x="283.398438" xlink:href="#DejaVuSans-66"/>
     <use x="318.603516" xlink:href="#DejaVuSans-36"/>
     <use x="382.226562" xlink:href="#DejaVuSans-2c"/>
     <use x="414.013672" xlink:href="#DejaVuSans-20"/>
     <use x="445.800781" xlink:href="#DejaVuSans-32"/>
     <use x="509.423828" xlink:href="#DejaVuSans-30"/>
     <use x="573.046875" xlink:href="#DejaVuSans-2d"/>
     <use x="609.130859" xlink:href="#DejaVuSans-44"/>
    </g>
    <!-- 51 targets: 100..1e-08 -->
    <g transform="translate(60.41088 49.533135)scale(0.102 -0.102)">
     <defs>
      <path d="M 691 4666 
L 3169 4666 
L 3169 4134 
L 1269 4134 
L 1269 2991 
Q 1406 3038 1543 3061 
Q 1681 3084 1819 3084 
Q 2600 3084 3056 2656 
Q 3513 2228 3513 1497 
Q 3513 744 3044 326 
Q 2575 -91 1722 -91 
Q 1428 -91 1123 -41 
Q 819 9 494 109 
L 494 744 
Q 775 591 1075 516 
Q 1375 441 1709 441 
Q 2250 441 2565 725 
Q 2881 1009 2881 1497 
Q 2881 1984 2565 2268 
Q 2250 2553 1709 2553 
Q 1456 2553 1204 2497 
Q 953 2441 691 2322 
L 691 4666 
z
" id="DejaVuSans-35" transform="scale(0.015625)"/>
      <path d="M 750 794 
L 1409 794 
L 1409 0 
L 750 0 
L 750 794 
z
M 750 3309 
L 1409 3309 
L 1409 2516 
L 750 2516 
L 750 3309 
z
" id="DejaVuSans-3a" transform="scale(0.015625)"/>
     </defs>
     <use xlink:href="#DejaVuSans-35"/>
     <use x="63.623047" xlink:href="#DejaVuSans-31"/>
     <use x="127.246094" xlink:href="#DejaVuSans-20"/>
     <use x="159.033203" xlink:href="#DejaVuSans-74"/>
     <use x="198.242188" xlink:href="#DejaVuSans-61"/>
     <use x="259.521484" xlink:href="#DejaVuSans-72"/>
     <use x="298.884766" xlink:href="#DejaVuSans-67"/>
     <use x="362.361328" xlink:href="#DejaVuSans-65"/>
     <use x="423.884766" xlink:href="#DejaVuSans-74"/>
     <use x="463.09375" xlink:href="#DejaVuSans-73"/>
     <use x="515.193359" xlink:href="#DejaVuSans-3a"/>
     <use x="548.884766" xlink:href="#DejaVuSans-20"/>
     <use x="580.671875" xlink:href="#DejaVuSans-31"/>
     <use x="644.294922" xlink:href="#DejaVuSans-30"/>
     <use x="707.917969" xlink:href="#DejaVuSans-30"/>
     <use x="771.541016" xlink:href="#DejaVuSans-2e"/>
     <use x="803.328125" xlink:href="#DejaVuSans-2e"/>
     <use x="835.115234" xlink:href="#DejaVuSans-31"/>
     <use x="898.738281" xlink:href="#DejaVuSans-65"/>
     <use x="960.261719" xlink:href="#DejaVuSans-2d"/>
     <use x="996.345703" xlink:href="#DejaVuSans-30"/>
     <use x="1059.96875" xlink:href="#DejaVuSans-38"/>
    </g>
    <!-- 15 instances -->
    <g transform="translate(60.41088 60.954904)scale(0.102 -0.102)">
     <use xlink:href="#DejaVuSans-31"/>
     <use x="63.623047" xlink:href="#DejaVuSans-35"/>
     <use x="127.246094" xlink:href="#DejaVuSans-20"/>
     <use x="159.033203" xlink:href="#DejaVuSans-69"/>
     <use x="186.816406" xlink:href="#DejaVuSans-6e"/>
     <use x="250.195312" xlink:href="#DejaVuSans-73"/>
     <use x="302.294922" xlink:href="#DejaVuSans-74"/>
     <use x="341.503906" xlink:href="#DejaVuSans-61"/>
     <use x="402.783203" xlink:href="#DejaVuSans-6e"/>
     <use x="466.162109" xlink:href="#DejaVuSans-63"/>
     <use x="521.142578" xlink:href="#DejaVuSans-65"/>
     <use x="582.666016" xlink:href="#DejaVuSans-73"/>
    </g>
   </g>
   <g id="text_22">
    <!-- v2.4 -->
    <g style="fill:#808080;" transform="translate(187.233062 294.151352)scale(0.1 -0.1)">
     <use xlink:href="#DejaVuSans-76"/>
     <use x="59.179688" xlink:href="#DejaVuSans-32"/>
     <use x="122.802734" xlink:href="#DejaVuSans-2e"/>
     <use x="154.589844" xlink:href="#DejaVuSans-34"/>
    </g>
   </g>
   <g id="text_23">
    <!-- 6 Attractive sector -->
    <g transform="translate(105.40025 21.648)scale(0.2 -0.2)">
     <use xlink:href="#DejaVuSans-36"/>
     <use x="63.623047" xlink:href="#DejaVuSans-20"/>
     <use x="95.410156" xlink:href="#DejaVuSans-41"/>
     <use x="162.068359" xlink:href="#DejaVuSans-74"/>
     <use x="201.277344" xlink:href="#DejaVuSans-74"/>
     <use x="240.486328" xlink:href="#DejaVuSans-72"/>
     <use x="281.599609" xlink:href="#DejaVuSans-61"/>
     <use x="342.878906" xlink:href="#DejaVuSans-63"/>
     <use x="397.859375" xlink:href="#DejaVuSans-74"/>
     <use x="437.068359" xlink:href="#DejaVuSans-69"/>
     <use x="464.851562" xlink:href="#DejaVuSans-76"/>
     <use x="524.03125" xlink:href="#DejaVuSans-65"/>
     <use x="585.554688" xlink:href="#DejaVuSans-20"/>
     <use x="617.341797" xlink:href="#DejaVuSans-73"/>
     <use x="669.441406" xlink:href="#DejaVuSans-65"/>
     <use x="730.964844" xlink:href="#DejaVuSans-63"/>
     <use x="785.945312" xlink:href="#DejaVuSans-74"/>
     <use x="825.154297" xlink:href="#DejaVuSans-6f"/>
     <use x="886.335938" xlink:href="#DejaVuSans-72"/>
    </g>
   </g>
  </g>
 </g>
 <defs>
  <clipPath id="pd4b10b0194">
   <rect height="271.296" width="281.088" x="57.6" y="27.648"/>
  </clipPath>
 </defs>
</svg>
