<?xml version="1.0" encoding="utf-8" standalone="no"?>
<!DOCTYPE svg PUBLIC "-//W3C//DTD SVG 1.1//EN"
  "http://www.w3.org/Graphics/SVG/1.1/DTD/svg11.dtd">
<svg height="345.6pt" version="1.1" viewBox="0 0 460.8 345.6" width="460.8pt" xmlns="http://www.w3.org/2000/svg" xmlns:xlink="http://www.w3.org/1999/xlink">
 <metadata>
  <rdf:RDF xmlns:cc="http://creativecommons.org/ns#" xmlns:dc="http://purl.org/dc/elements/1.1/" xmlns:rdf="http://www.w3.org/1999/02/22-rdf-syntax-ns#">
   <cc:Work>
    <dc:type rdf:resource="http://purl.org/dc/dcmitype/StillImage"/>
    <dc:date>2021-04-26T18:50:10.784997</dc:date>
    <dc:format>image/svg+xml</dc:format>
    <dc:creator>
     <cc:Agent>
      <dc:title>Matplotlib v3.4.1, https://matplotlib.org/</dc:title>
     </cc:Agent>
    </dc:creator>
   </cc:Work>
  </rdf:RDF>
 </metadata>
 <defs>
  <style type="text/css">*{stroke-linecap:butt;stroke-linejoin:round;}</style>
 </defs>
 <g id="figure_1">
  <g id="patch_1">
   <path d="M 0 345.6 
L 460.8 345.6 
L 460.8 0 
L 0 0 
z
" style="fill:#ffffff;"/>
  </g>
  <g id="axes_1">
   <g id="patch_2">
    <path d="M 22.78 315.44 
L 453.192 315.44 
L 453.192 27.72 
L 22.78 27.72 
z
" style="fill:#ffffff;"/>
   </g>
   <g id="line2d_1">
    <path clip-path="url(#p60a241e596)" d="M 36.868282 159.24343 
L 91.085051 154.017549 
L 159.390103 147.989675 
L 252.074282 137.064817 
L 344.758461 126.19136 
L 437.442641 100.585445 
" style="fill:none;stroke:#f5deb3;stroke-linecap:square;stroke-width:10;"/>
    <defs>
     <path d="M 0 17.67767 
L 10.606602 0 
L 0 -17.67767 
L -10.606602 0 
z
" id="m1fe6cae6f7" style="stroke:#000000;stroke-linejoin:miter;"/>
    </defs>
    <g clip-path="url(#p60a241e596)">
     <use style="fill:#f5deb3;stroke:#000000;stroke-linejoin:miter;" x="36.868282" xlink:href="#m1fe6cae6f7" y="159.24343"/>
     <use style="fill:#f5deb3;stroke:#000000;stroke-linejoin:miter;" x="91.085051" xlink:href="#m1fe6cae6f7" y="154.017549"/>
     <use style="fill:#f5deb3;stroke:#000000;stroke-linejoin:miter;" x="159.390103" xlink:href="#m1fe6cae6f7" y="147.989675"/>
     <use style="fill:#f5deb3;stroke:#000000;stroke-linejoin:miter;" x="252.074282" xlink:href="#m1fe6cae6f7" y="137.064817"/>
     <use style="fill:#f5deb3;stroke:#000000;stroke-linejoin:miter;" x="344.758461" xlink:href="#m1fe6cae6f7" y="126.19136"/>
     <use style="fill:#f5deb3;stroke:#000000;stroke-linejoin:miter;" x="437.442641" xlink:href="#m1fe6cae6f7" y="100.585445"/>
    </g>
   </g>
   <g id="line2d_2">
    <defs>
     <path d="M -15 0 
L 15 0 
M 0 15 
L 0 -15 
" id="m367becdefb" style="stroke:#000000;stroke-width:5;"/>
    </defs>
    <g clip-path="url(#p60a241e596)">
     <use style="stroke:#000000;stroke-width:5;" x="437.442641" xlink:href="#m367becdefb" y="181.980027"/>
    </g>
   </g>
   <g id="line2d_3">
    <defs>
     <path d="M -15 0 
L 15 0 
M 0 15 
L 0 -15 
" id="m84b3072182" style="stroke:#ff0000;stroke-width:5;"/>
    </defs>
    <g clip-path="url(#p60a241e596)">
     <use style="fill:#ff0000;stroke:#ff0000;stroke-width:5;" x="91.085051" xlink:href="#m84b3072182" y="120.850481"/>
    </g>
   </g>
   <g id="line2d_4">
    <defs>
     <path d="M -15 0 
L 15 0 
M 0 15 
L 0 -15 
" id="m0c67de5eba" style="stroke:#00bfbf;stroke-width:5;"/>
    </defs>
    <g clip-path="url(#p60a241e596)">
     <use style="fill:#00bfbf;stroke:#00bfbf;stroke-width:5;" x="252.074282" xlink:href="#m0c67de5eba" y="157.385172"/>
    </g>
   </g>
   <g id="line2d_5">
    <defs>
     <path d="M -15 0 
L 15 0 
M 0 15 
L 0 -15 
" id="m8f7a0881b7" style="stroke:#0000ff;stroke-width:5;"/>
    </defs>
    <g clip-path="url(#p60a241e596)">
     <use style="fill:#0000ff;stroke:#0000ff;stroke-width:5;" x="344.758461" xlink:href="#m8f7a0881b7" y="166.237276"/>
    </g>
   </g>
   <g id="line2d_6">
    <defs>
     <path d="M -15 0 
L 15 0 
M 0 15 
L 0 -15 
" id="ma6383096ab" style="stroke:#008000;stroke-width:5;"/>
    </defs>
    <g clip-path="url(#p60a241e596)">
     <use style="fill:#008000;stroke:#008000;stroke-width:5;" x="159.390103" xlink:href="#ma6383096ab" y="145.525644"/>
    </g>
   </g>
   <g id="matplotlib.axis_1">
    <g id="xtick_1">
     <g id="line2d_7">
      <defs>
       <path d="M 0 0 
L 0 3.5 
" id="m0314a898cc" style="stroke:#000000;stroke-width:0.8;"/>
      </defs>
      <g>
       <use style="stroke:#000000;stroke-width:0.8;" x="36.868282" xlink:href="#m0314a898cc" y="315.44"/>
      </g>
     </g>
     <g id="text_1">
      <!-- 2 -->
      <g transform="translate(30.505782 337.636875)scale(0.2 -0.2)">
       <defs>
        <path d="M 1228 531 
L 3431 531 
L 3431 0 
L 469 0 
L 469 531 
Q 828 903 1448 1529 
Q 2069 2156 2228 2338 
Q 2531 2678 2651 2914 
Q 2772 3150 2772 3378 
Q 2772 3750 2511 3984 
Q 2250 4219 1831 4219 
Q 1534 4219 1204 4116 
Q 875 4013 500 3803 
L 500 4441 
Q 881 4594 1212 4672 
Q 1544 4750 1819 4750 
Q 2544 4750 2975 4387 
Q 3406 4025 3406 3419 
Q 3406 3131 3298 2873 
Q 3191 2616 2906 2266 
Q 2828 2175 2409 1742 
Q 1991 1309 1228 531 
z
" id="DejaVuSans-32" transform="scale(0.015625)"/>
       </defs>
       <use xlink:href="#DejaVuSans-32"/>
      </g>
     </g>
    </g>
    <g id="xtick_2">
     <g id="line2d_8">
      <g>
       <use style="stroke:#000000;stroke-width:0.8;" x="91.085051" xlink:href="#m0314a898cc" y="315.44"/>
      </g>
     </g>
     <g id="text_2">
      <!-- 3 -->
      <g transform="translate(84.722551 337.636875)scale(0.2 -0.2)">
       <defs>
        <path d="M 2597 2516 
Q 3050 2419 3304 2112 
Q 3559 1806 3559 1356 
Q 3559 666 3084 287 
Q 2609 -91 1734 -91 
Q 1441 -91 1130 -33 
Q 819 25 488 141 
L 488 750 
Q 750 597 1062 519 
Q 1375 441 1716 441 
Q 2309 441 2620 675 
Q 2931 909 2931 1356 
Q 2931 1769 2642 2001 
Q 2353 2234 1838 2234 
L 1294 2234 
L 1294 2753 
L 1863 2753 
Q 2328 2753 2575 2939 
Q 2822 3125 2822 3475 
Q 2822 3834 2567 4026 
Q 2313 4219 1838 4219 
Q 1578 4219 1281 4162 
Q 984 4106 628 3988 
L 628 4550 
Q 988 4650 1302 4700 
Q 1616 4750 1894 4750 
Q 2613 4750 3031 4423 
Q 3450 4097 3450 3541 
Q 3450 3153 3228 2886 
Q 3006 2619 2597 2516 
z
" id="DejaVuSans-33" transform="scale(0.015625)"/>
       </defs>
       <use xlink:href="#DejaVuSans-33"/>
      </g>
     </g>
    </g>
    <g id="xtick_3">
     <g id="line2d_9">
      <g>
       <use style="stroke:#000000;stroke-width:0.8;" x="159.390103" xlink:href="#m0314a898cc" y="315.44"/>
      </g>
     </g>
     <g id="text_3">
      <!-- 5 -->
      <g transform="translate(153.027603 337.636875)scale(0.2 -0.2)">
       <defs>
        <path d="M 691 4666 
L 3169 4666 
L 3169 4134 
L 1269 4134 
L 1269 2991 
Q 1406 3038 1543 3061 
Q 1681 3084 1819 3084 
Q 2600 3084 3056 2656 
Q 3513 2228 3513 1497 
Q 3513 744 3044 326 
Q 2575 -91 1722 -91 
Q 1428 -91 1123 -41 
Q 819 9 494 109 
L 494 744 
Q 775 591 1075 516 
Q 1375 441 1709 441 
Q 2250 441 2565 725 
Q 2881 1009 2881 1497 
Q 2881 1984 2565 2268 
Q 2250 2553 1709 2553 
Q 1456 2553 1204 2497 
Q 953 2441 691 2322 
L 691 4666 
z
" id="DejaVuSans-35" transform="scale(0.015625)"/>
       </defs>
       <use xlink:href="#DejaVuSans-35"/>
      </g>
     </g>
    </g>
    <g id="xtick_4">
     <g id="line2d_10">
      <g>
       <use style="stroke:#000000;stroke-width:0.8;" x="252.074282" xlink:href="#m0314a898cc" y="315.44"/>
      </g>
     </g>
     <g id="text_4">
      <!-- 10 -->
      <g transform="translate(239.349282 337.636875)scale(0.2 -0.2)">
       <defs>
        <path d="M 794 531 
L 1825 531 
L 1825 4091 
L 703 3866 
L 703 4441 
L 1819 4666 
L 2450 4666 
L 2450 531 
L 3481 531 
L 3481 0 
L 794 0 
L 794 531 
z
" id="DejaVuSans-31" transform="scale(0.015625)"/>
        <path d="M 2034 4250 
Q 1547 4250 1301 3770 
Q 1056 3291 1056 2328 
Q 1056 1369 1301 889 
Q 1547 409 2034 409 
Q 2525 409 2770 889 
Q 3016 1369 3016 2328 
Q 3016 3291 2770 3770 
Q 2525 4250 2034 4250 
z
M 2034 4750 
Q 2819 4750 3233 4129 
Q 3647 3509 3647 2328 
Q 3647 1150 3233 529 
Q 2819 -91 2034 -91 
Q 1250 -91 836 529 
Q 422 1150 422 2328 
Q 422 3509 836 4129 
Q 1250 4750 2034 4750 
z
" id="DejaVuSans-30" transform="scale(0.015625)"/>
       </defs>
       <use xlink:href="#DejaVuSans-31"/>
       <use x="63.623047" xlink:href="#DejaVuSans-30"/>
      </g>
     </g>
    </g>
    <g id="xtick_5">
     <g id="line2d_11">
      <g>
       <use style="stroke:#000000;stroke-width:0.8;" x="344.758461" xlink:href="#m0314a898cc" y="315.44"/>
      </g>
     </g>
     <g id="text_5">
      <!-- 20 -->
      <g transform="translate(332.033461 337.636875)scale(0.2 -0.2)">
       <use xlink:href="#DejaVuSans-32"/>
       <use x="63.623047" xlink:href="#DejaVuSans-30"/>
      </g>
     </g>
    </g>
    <g id="xtick_6">
     <g id="line2d_12">
      <g>
       <use style="stroke:#000000;stroke-width:0.8;" x="437.442641" xlink:href="#m0314a898cc" y="315.44"/>
      </g>
     </g>
     <g id="text_6">
      <!-- 40 -->
      <g transform="translate(424.717641 337.636875)scale(0.2 -0.2)">
       <defs>
        <path d="M 2419 4116 
L 825 1625 
L 2419 1625 
L 2419 4116 
z
M 2253 4666 
L 3047 4666 
L 3047 1625 
L 3713 1625 
L 3713 1100 
L 3047 1100 
L 3047 0 
L 2419 0 
L 2419 1100 
L 313 1100 
L 313 1709 
L 2253 4666 
z
" id="DejaVuSans-34" transform="scale(0.015625)"/>
       </defs>
       <use xlink:href="#DejaVuSans-34"/>
       <use x="63.623047" xlink:href="#DejaVuSans-30"/>
      </g>
     </g>
    </g>
    <g id="xtick_7">
     <g id="line2d_13">
      <defs>
       <path d="M 0 0 
L 0 2 
" id="ma02584f06d" style="stroke:#000000;stroke-width:0.6;"/>
      </defs>
      <g>
       <use style="stroke:#000000;stroke-width:0.6;" x="129.552461" xlink:href="#ma02584f06d" y="315.44"/>
      </g>
     </g>
    </g>
    <g id="xtick_8">
     <g id="line2d_14">
      <g>
       <use style="stroke:#000000;stroke-width:0.6;" x="183.769231" xlink:href="#ma02584f06d" y="315.44"/>
      </g>
     </g>
    </g>
    <g id="xtick_9">
     <g id="line2d_15">
      <g>
       <use style="stroke:#000000;stroke-width:0.6;" x="204.38149" xlink:href="#ma02584f06d" y="315.44"/>
      </g>
     </g>
    </g>
    <g id="xtick_10">
     <g id="line2d_16">
      <g>
       <use style="stroke:#000000;stroke-width:0.6;" x="222.236641" xlink:href="#ma02584f06d" y="315.44"/>
      </g>
     </g>
    </g>
    <g id="xtick_11">
     <g id="line2d_17">
      <g>
       <use style="stroke:#000000;stroke-width:0.6;" x="237.986" xlink:href="#ma02584f06d" y="315.44"/>
      </g>
     </g>
    </g>
    <g id="xtick_12">
     <g id="line2d_18">
      <g>
       <use style="stroke:#000000;stroke-width:0.6;" x="398.975231" xlink:href="#ma02584f06d" y="315.44"/>
      </g>
     </g>
    </g>
   </g>
   <g id="matplotlib.axis_2">
    <g id="ytick_1">
     <g id="line2d_19">
      <path clip-path="url(#p60a241e596)" d="M 22.78 306.15871 
L 453.192 306.15871 
" style="fill:none;stroke:#b0b0b0;stroke-linecap:square;stroke-width:0.8;"/>
     </g>
     <g id="line2d_20">
      <defs>
       <path d="M 0 0 
L -3.5 0 
" id="m62fed141f9" style="stroke:#000000;stroke-width:0.8;"/>
      </defs>
      <g>
       <use style="stroke:#000000;stroke-width:0.8;" x="22.78" xlink:href="#m62fed141f9" y="306.15871"/>
      </g>
     </g>
     <g id="text_7">
      <!-- 0 -->
      <g transform="translate(3.055 313.757148)scale(0.2 -0.2)">
       <use xlink:href="#DejaVuSans-30"/>
      </g>
     </g>
    </g>
    <g id="ytick_2">
     <g id="line2d_21">
      <path clip-path="url(#p60a241e596)" d="M 22.78 259.752262 
L 453.192 259.752262 
" style="fill:none;stroke:#b0b0b0;stroke-linecap:square;stroke-width:0.8;"/>
     </g>
     <g id="line2d_22">
      <g>
       <use style="stroke:#000000;stroke-width:0.8;" x="22.78" xlink:href="#m62fed141f9" y="259.752262"/>
      </g>
     </g>
     <g id="text_8">
      <!-- 1 -->
      <g transform="translate(3.055 267.350699)scale(0.2 -0.2)">
       <use xlink:href="#DejaVuSans-31"/>
      </g>
     </g>
    </g>
    <g id="ytick_3">
     <g id="line2d_23">
      <path clip-path="url(#p60a241e596)" d="M 22.78 213.345814 
L 453.192 213.345814 
" style="fill:none;stroke:#b0b0b0;stroke-linecap:square;stroke-width:0.8;"/>
     </g>
     <g id="line2d_24">
      <g>
       <use style="stroke:#000000;stroke-width:0.8;" x="22.78" xlink:href="#m62fed141f9" y="213.345814"/>
      </g>
     </g>
     <g id="text_9">
      <!-- 2 -->
      <g transform="translate(3.055 220.944251)scale(0.2 -0.2)">
       <use xlink:href="#DejaVuSans-32"/>
      </g>
     </g>
    </g>
    <g id="ytick_4">
     <g id="line2d_25">
      <path clip-path="url(#p60a241e596)" d="M 22.78 166.939365 
L 453.192 166.939365 
" style="fill:none;stroke:#b0b0b0;stroke-linecap:square;stroke-width:0.8;"/>
     </g>
     <g id="line2d_26">
      <g>
       <use style="stroke:#000000;stroke-width:0.8;" x="22.78" xlink:href="#m62fed141f9" y="166.939365"/>
      </g>
     </g>
     <g id="text_10">
      <!-- 3 -->
      <g transform="translate(3.055 174.537803)scale(0.2 -0.2)">
       <use xlink:href="#DejaVuSans-33"/>
      </g>
     </g>
    </g>
    <g id="ytick_5">
     <g id="line2d_27">
      <path clip-path="url(#p60a241e596)" d="M 22.78 120.532917 
L 453.192 120.532917 
" style="fill:none;stroke:#b0b0b0;stroke-linecap:square;stroke-width:0.8;"/>
     </g>
     <g id="line2d_28">
      <g>
       <use style="stroke:#000000;stroke-width:0.8;" x="22.78" xlink:href="#m62fed141f9" y="120.532917"/>
      </g>
     </g>
     <g id="text_11">
      <!-- 4 -->
      <g transform="translate(3.055 128.131354)scale(0.2 -0.2)">
       <use xlink:href="#DejaVuSans-34"/>
      </g>
     </g>
    </g>
    <g id="ytick_6">
     <g id="line2d_29">
      <path clip-path="url(#p60a241e596)" d="M 22.78 74.126469 
L 453.192 74.126469 
" style="fill:none;stroke:#b0b0b0;stroke-linecap:square;stroke-width:0.8;"/>
     </g>
     <g id="line2d_30">
      <g>
       <use style="stroke:#000000;stroke-width:0.8;" x="22.78" xlink:href="#m62fed141f9" y="74.126469"/>
      </g>
     </g>
     <g id="text_12">
      <!-- 5 -->
      <g transform="translate(3.055 81.724906)scale(0.2 -0.2)">
       <use xlink:href="#DejaVuSans-35"/>
      </g>
     </g>
    </g>
    <g id="ytick_7">
     <g id="line2d_31">
      <path clip-path="url(#p60a241e596)" d="M 22.78 27.72002 
L 453.192 27.72002 
" style="fill:none;stroke:#b0b0b0;stroke-linecap:square;stroke-width:0.8;"/>
     </g>
     <g id="line2d_32">
      <g>
       <use style="stroke:#000000;stroke-width:0.8;" x="22.78" xlink:href="#m62fed141f9" y="27.72002"/>
      </g>
     </g>
     <g id="text_13">
      <!-- 6 -->
      <g transform="translate(3.055 35.318458)scale(0.2 -0.2)">
       <defs>
        <path d="M 2113 2584 
Q 1688 2584 1439 2293 
Q 1191 2003 1191 1497 
Q 1191 994 1439 701 
Q 1688 409 2113 409 
Q 2538 409 2786 701 
Q 3034 994 3034 1497 
Q 3034 2003 2786 2293 
Q 2538 2584 2113 2584 
z
M 3366 4563 
L 3366 3988 
Q 3128 4100 2886 4159 
Q 2644 4219 2406 4219 
Q 1781 4219 1451 3797 
Q 1122 3375 1075 2522 
Q 1259 2794 1537 2939 
Q 1816 3084 2150 3084 
Q 2853 3084 3261 2657 
Q 3669 2231 3669 1497 
Q 3669 778 3244 343 
Q 2819 -91 2113 -91 
Q 1303 -91 875 529 
Q 447 1150 447 2328 
Q 447 3434 972 4092 
Q 1497 4750 2381 4750 
Q 2619 4750 2861 4703 
Q 3103 4656 3366 4563 
z
" id="DejaVuSans-36" transform="scale(0.015625)"/>
       </defs>
       <use xlink:href="#DejaVuSans-36"/>
      </g>
     </g>
    </g>
   </g>
   <g id="line2d_33">
    <path clip-path="url(#p60a241e596)" d="M 33.682182 259.752262 
L 35.912452 251.247359 
L 33.682182 236.949911 
L 40.054382 236.949911 
L 37.824112 251.247359 
L 40.054382 259.752262 
L 33.682182 259.752262 
" style="fill:none;stroke:#000000;stroke-linecap:square;"/>
   </g>
   <g id="line2d_34">
    <path clip-path="url(#p60a241e596)" d="M 33.682182 259.752262 
L 40.054382 259.752262 
L 40.054382 236.949911 
L 33.682182 236.949911 
L 33.682182 259.752262 
" style="fill:none;"/>
    <defs>
     <path d="M 0 3 
C 0.795609 3 1.55874 2.683901 2.12132 2.12132 
C 2.683901 1.55874 3 0.795609 3 0 
C 3 -0.795609 2.683901 -1.55874 2.12132 -2.12132 
C 1.55874 -2.683901 0.795609 -3 0 -3 
C -0.795609 -3 -1.55874 -2.683901 -2.12132 -2.12132 
C -2.683901 -1.55874 -3 -0.795609 -3 0 
C -3 0.795609 -2.683901 1.55874 -2.12132 2.12132 
C -1.55874 2.683901 -0.795609 3 0 3 
z
" id="m83fb100e2f" style="stroke:#000000;stroke-width:2;"/>
    </defs>
    <g clip-path="url(#p60a241e596)">
     <use style="stroke:#000000;stroke-width:2;" x="33.682182" xlink:href="#m83fb100e2f" y="259.752262"/>
     <use style="stroke:#000000;stroke-width:2;" x="40.054382" xlink:href="#m83fb100e2f" y="259.752262"/>
     <use style="stroke:#000000;stroke-width:2;" x="40.054382" xlink:href="#m83fb100e2f" y="236.949911"/>
     <use style="stroke:#000000;stroke-width:2;" x="33.682182" xlink:href="#m83fb100e2f" y="236.949911"/>
     <use style="stroke:#000000;stroke-width:2;" x="33.682182" xlink:href="#m83fb100e2f" y="259.752262"/>
    </g>
   </g>
   <g id="line2d_35">
    <path clip-path="url(#p60a241e596)" d="M 33.682182 251.247359 
L 40.054382 251.247359 
" style="fill:none;stroke:#000000;stroke-linecap:square;stroke-width:2;"/>
   </g>
   <g id="line2d_36">
    <path clip-path="url(#p60a241e596)" d="M 87.898951 259.752262 
L 90.129221 252.033411 
L 87.898951 233.936239 
L 94.271152 233.936239 
L 92.040881 252.033411 
L 94.271152 259.752262 
L 87.898951 259.752262 
" style="fill:none;stroke:#000000;stroke-linecap:square;"/>
   </g>
   <g id="line2d_37">
    <path clip-path="url(#p60a241e596)" d="M 87.898951 259.752262 
L 94.271152 259.752262 
L 94.271152 233.936239 
L 87.898951 233.936239 
L 87.898951 259.752262 
" style="fill:none;"/>
    <g clip-path="url(#p60a241e596)">
     <use style="stroke:#000000;stroke-width:2;" x="87.898951" xlink:href="#m83fb100e2f" y="259.752262"/>
     <use style="stroke:#000000;stroke-width:2;" x="94.271152" xlink:href="#m83fb100e2f" y="259.752262"/>
     <use style="stroke:#000000;stroke-width:2;" x="94.271152" xlink:href="#m83fb100e2f" y="233.936239"/>
     <use style="stroke:#000000;stroke-width:2;" x="87.898951" xlink:href="#m83fb100e2f" y="233.936239"/>
     <use style="stroke:#000000;stroke-width:2;" x="87.898951" xlink:href="#m83fb100e2f" y="259.752262"/>
    </g>
   </g>
   <g id="line2d_38">
    <path clip-path="url(#p60a241e596)" d="M 87.898951 252.033411 
L 94.271152 252.033411 
" style="fill:none;stroke:#000000;stroke-linecap:square;stroke-width:2;"/>
   </g>
   <g id="line2d_39">
    <path clip-path="url(#p60a241e596)" d="M 156.204002 246.816297 
L 158.434273 230.68603 
L 156.204002 218.45694 
L 162.576203 218.45694 
L 160.345933 230.68603 
L 162.576203 246.816297 
L 156.204002 246.816297 
" style="fill:none;stroke:#000000;stroke-linecap:square;"/>
   </g>
   <g id="line2d_40">
    <path clip-path="url(#p60a241e596)" d="M 156.204002 246.816297 
L 162.576203 246.816297 
L 162.576203 218.45694 
L 156.204002 218.45694 
L 156.204002 246.816297 
" style="fill:none;"/>
    <g clip-path="url(#p60a241e596)">
     <use style="stroke:#000000;stroke-width:2;" x="156.204002" xlink:href="#m83fb100e2f" y="246.816297"/>
     <use style="stroke:#000000;stroke-width:2;" x="162.576203" xlink:href="#m83fb100e2f" y="246.816297"/>
     <use style="stroke:#000000;stroke-width:2;" x="162.576203" xlink:href="#m83fb100e2f" y="218.45694"/>
     <use style="stroke:#000000;stroke-width:2;" x="156.204002" xlink:href="#m83fb100e2f" y="218.45694"/>
     <use style="stroke:#000000;stroke-width:2;" x="156.204002" xlink:href="#m83fb100e2f" y="246.816297"/>
    </g>
   </g>
   <g id="line2d_41">
    <path clip-path="url(#p60a241e596)" d="M 156.204002 230.68603 
L 162.576203 230.68603 
" style="fill:none;stroke:#000000;stroke-linecap:square;stroke-width:2;"/>
   </g>
   <g id="line2d_42">
    <path clip-path="url(#p60a241e596)" d="M 248.888182 206.449692 
L 251.118452 202.51562 
L 248.888182 194.814441 
L 255.260382 194.814441 
L 253.030112 202.51562 
L 255.260382 206.449692 
L 248.888182 206.449692 
" style="fill:none;stroke:#000000;stroke-linecap:square;"/>
   </g>
   <g id="line2d_43">
    <path clip-path="url(#p60a241e596)" d="M 248.888182 206.449692 
L 255.260382 206.449692 
L 255.260382 194.814441 
L 248.888182 194.814441 
L 248.888182 206.449692 
" style="fill:none;"/>
    <g clip-path="url(#p60a241e596)">
     <use style="stroke:#000000;stroke-width:2;" x="248.888182" xlink:href="#m83fb100e2f" y="206.449692"/>
     <use style="stroke:#000000;stroke-width:2;" x="255.260382" xlink:href="#m83fb100e2f" y="206.449692"/>
     <use style="stroke:#000000;stroke-width:2;" x="255.260382" xlink:href="#m83fb100e2f" y="194.814441"/>
     <use style="stroke:#000000;stroke-width:2;" x="248.888182" xlink:href="#m83fb100e2f" y="194.814441"/>
     <use style="stroke:#000000;stroke-width:2;" x="248.888182" xlink:href="#m83fb100e2f" y="206.449692"/>
    </g>
   </g>
   <g id="line2d_44">
    <path clip-path="url(#p60a241e596)" d="M 248.888182 202.51562 
L 255.260382 202.51562 
" style="fill:none;stroke:#000000;stroke-linecap:square;stroke-width:2;"/>
   </g>
   <g id="line2d_45">
    <path clip-path="url(#p60a241e596)" d="M 341.572361 197.717986 
L 343.802631 189.352248 
L 341.572361 186.538474 
L 347.944562 186.538474 
L 345.714291 189.352248 
L 347.944562 197.717986 
L 341.572361 197.717986 
" style="fill:none;stroke:#000000;stroke-linecap:square;"/>
   </g>
   <g id="line2d_46">
    <path clip-path="url(#p60a241e596)" d="M 341.572361 197.717986 
L 347.944562 197.717986 
L 347.944562 186.538474 
L 341.572361 186.538474 
L 341.572361 197.717986 
" style="fill:none;"/>
    <g clip-path="url(#p60a241e596)">
     <use style="stroke:#000000;stroke-width:2;" x="341.572361" xlink:href="#m83fb100e2f" y="197.717986"/>
     <use style="stroke:#000000;stroke-width:2;" x="347.944562" xlink:href="#m83fb100e2f" y="197.717986"/>
     <use style="stroke:#000000;stroke-width:2;" x="347.944562" xlink:href="#m83fb100e2f" y="186.538474"/>
     <use style="stroke:#000000;stroke-width:2;" x="341.572361" xlink:href="#m83fb100e2f" y="186.538474"/>
     <use style="stroke:#000000;stroke-width:2;" x="341.572361" xlink:href="#m83fb100e2f" y="197.717986"/>
    </g>
   </g>
   <g id="line2d_47">
    <path clip-path="url(#p60a241e596)" d="M 341.572361 189.352248 
L 347.944562 189.352248 
" style="fill:none;stroke:#000000;stroke-linecap:square;stroke-width:2;"/>
   </g>
   <g id="line2d_48">
    <path clip-path="url(#p60a241e596)" d="M 434.25654 176.364341 
L 436.486811 155.031029 
L 434.25654 145.079969 
L 440.628741 145.079969 
L 438.398471 155.031029 
L 440.628741 176.364341 
L 434.25654 176.364341 
" style="fill:none;stroke:#000000;stroke-linecap:square;"/>
   </g>
   <g id="line2d_49">
    <path clip-path="url(#p60a241e596)" d="M 434.25654 176.364341 
L 440.628741 176.364341 
L 440.628741 145.079969 
L 434.25654 145.079969 
L 434.25654 176.364341 
" style="fill:none;"/>
    <g clip-path="url(#p60a241e596)">
     <use style="stroke:#000000;stroke-width:2;" x="434.25654" xlink:href="#m83fb100e2f" y="176.364341"/>
     <use style="stroke:#000000;stroke-width:2;" x="440.628741" xlink:href="#m83fb100e2f" y="176.364341"/>
     <use style="stroke:#000000;stroke-width:2;" x="440.628741" xlink:href="#m83fb100e2f" y="145.079969"/>
     <use style="stroke:#000000;stroke-width:2;" x="434.25654" xlink:href="#m83fb100e2f" y="145.079969"/>
     <use style="stroke:#000000;stroke-width:2;" x="434.25654" xlink:href="#m83fb100e2f" y="176.364341"/>
    </g>
   </g>
   <g id="line2d_50">
    <path clip-path="url(#p60a241e596)" d="M 434.25654 155.031029 
L 440.628741 155.031029 
" style="fill:none;stroke:#000000;stroke-linecap:square;stroke-width:2;"/>
   </g>
   <g id="line2d_51">
    <path clip-path="url(#p60a241e596)" d="M 36.868282 244.356245 
L 91.085051 246.053057 
" style="fill:none;stroke:#000000;stroke-linecap:square;stroke-width:4;"/>
   </g>
   <g id="line2d_52">
    <path clip-path="url(#p60a241e596)" d="M 91.085051 246.053057 
L 159.390103 224.342821 
" style="fill:none;stroke:#000000;stroke-linecap:square;stroke-width:4;"/>
   </g>
   <g id="line2d_53">
    <path clip-path="url(#p60a241e596)" d="M 159.390103 224.342821 
L 252.074282 199.505481 
" style="fill:none;stroke:#000000;stroke-linecap:square;stroke-width:4;"/>
   </g>
   <g id="line2d_54">
    <path clip-path="url(#p60a241e596)" d="M 252.074282 199.505481 
L 344.758461 188.122324 
" style="fill:none;stroke:#000000;stroke-linecap:square;stroke-width:4;"/>
   </g>
   <g id="line2d_55">
    <path clip-path="url(#p60a241e596)" d="M 344.758461 188.122324 
L 437.442641 153.827369 
" style="fill:none;stroke:#000000;stroke-linecap:square;stroke-width:4;"/>
   </g>
   <g id="line2d_56">
    <path clip-path="url(#p60a241e596)" d="M 36.868282 244.356245 
L 91.085051 246.053057 
L 159.390103 224.342821 
L 252.074282 199.505481 
L 344.758461 188.122324 
L 437.442641 153.827369 
" style="fill:none;"/>
    <defs>
     <path d="M 0 10 
C 2.652031 10 5.195799 8.946337 7.071068 7.071068 
C 8.946337 5.195799 10 2.652031 10 0 
C 10 -2.652031 8.946337 -5.195799 7.071068 -7.071068 
C 5.195799 -8.946337 2.652031 -10 0 -10 
C -2.652031 -10 -5.195799 -8.946337 -7.071068 -7.071068 
C -8.946337 -5.195799 -10 -2.652031 -10 0 
C -10 2.652031 -8.946337 5.195799 -7.071068 7.071068 
C -5.195799 8.946337 -2.652031 10 0 10 
z
" id="m439f347563" style="stroke:#000000;stroke-width:2;"/>
    </defs>
    <g clip-path="url(#p60a241e596)">
     <use style="stroke:#000000;stroke-width:2;" x="36.868282" xlink:href="#m439f347563" y="244.356245"/>
     <use style="stroke:#000000;stroke-width:2;" x="91.085051" xlink:href="#m439f347563" y="246.053057"/>
     <use style="stroke:#000000;stroke-width:2;" x="159.390103" xlink:href="#m439f347563" y="224.342821"/>
     <use style="stroke:#000000;stroke-width:2;" x="252.074282" xlink:href="#m439f347563" y="199.505481"/>
     <use style="stroke:#000000;stroke-width:2;" x="344.758461" xlink:href="#m439f347563" y="188.122324"/>
     <use style="stroke:#000000;stroke-width:2;" x="437.442641" xlink:href="#m439f347563" y="153.827369"/>
    </g>
   </g>
   <g id="line2d_57">
    <path clip-path="url(#p60a241e596)" d="M 32.620148 216.385508 
L 35.593842 203.999688 
L 32.620148 188.011358 
L 41.116416 188.011358 
L 38.142722 203.999688 
L 41.116416 216.385508 
L 32.620148 216.385508 
" style="fill:none;stroke:#0000ff;stroke-linecap:square;"/>
   </g>
   <g id="line2d_58">
    <path clip-path="url(#p60a241e596)" d="M 32.620148 216.385508 
L 41.116416 216.385508 
L 41.116416 188.011358 
L 32.620148 188.011358 
L 32.620148 216.385508 
" style="fill:none;"/>
    <defs>
     <path d="M 0 1.5 
C 0.397805 1.5 0.77937 1.341951 1.06066 1.06066 
C 1.341951 0.77937 1.5 0.397805 1.5 0 
C 1.5 -0.397805 1.341951 -0.77937 1.06066 -1.06066 
C 0.77937 -1.341951 0.397805 -1.5 0 -1.5 
C -0.397805 -1.5 -0.77937 -1.341951 -1.06066 -1.06066 
C -1.341951 -0.77937 -1.5 -0.397805 -1.5 0 
C -1.5 0.397805 -1.341951 0.77937 -1.06066 1.06066 
C -0.77937 1.341951 -0.397805 1.5 0 1.5 
z
" id="m600e499ff8" style="stroke:#0000ff;"/>
    </defs>
    <g clip-path="url(#p60a241e596)">
     <use style="fill:#0000ff;stroke:#0000ff;" x="32.620148" xlink:href="#m600e499ff8" y="216.385508"/>
     <use style="fill:#0000ff;stroke:#0000ff;" x="41.116416" xlink:href="#m600e499ff8" y="216.385508"/>
     <use style="fill:#0000ff;stroke:#0000ff;" x="41.116416" xlink:href="#m600e499ff8" y="188.011358"/>
     <use style="fill:#0000ff;stroke:#0000ff;" x="32.620148" xlink:href="#m600e499ff8" y="188.011358"/>
     <use style="fill:#0000ff;stroke:#0000ff;" x="32.620148" xlink:href="#m600e499ff8" y="216.385508"/>
    </g>
   </g>
   <g id="line2d_59">
    <path clip-path="url(#p60a241e596)" d="M 32.620148 203.999688 
L 41.116416 203.999688 
" style="fill:none;stroke:#0000ff;stroke-linecap:square;stroke-width:2;"/>
   </g>
   <g id="line2d_60">
    <path clip-path="url(#p60a241e596)" d="M 86.836918 189.181891 
L 89.810611 175.385068 
L 86.836918 168.329852 
L 95.333185 168.329852 
L 92.359491 175.385068 
L 95.333185 189.181891 
L 86.836918 189.181891 
" style="fill:none;stroke:#0000ff;stroke-linecap:square;"/>
   </g>
   <g id="line2d_61">
    <path clip-path="url(#p60a241e596)" d="M 86.836918 189.181891 
L 95.333185 189.181891 
L 95.333185 168.329852 
L 86.836918 168.329852 
L 86.836918 189.181891 
" style="fill:none;"/>
    <g clip-path="url(#p60a241e596)">
     <use style="fill:#0000ff;stroke:#0000ff;" x="86.836918" xlink:href="#m600e499ff8" y="189.181891"/>
     <use style="fill:#0000ff;stroke:#0000ff;" x="95.333185" xlink:href="#m600e499ff8" y="189.181891"/>
     <use style="fill:#0000ff;stroke:#0000ff;" x="95.333185" xlink:href="#m600e499ff8" y="168.329852"/>
     <use style="fill:#0000ff;stroke:#0000ff;" x="86.836918" xlink:href="#m600e499ff8" y="168.329852"/>
     <use style="fill:#0000ff;stroke:#0000ff;" x="86.836918" xlink:href="#m600e499ff8" y="189.181891"/>
    </g>
   </g>
   <g id="line2d_62">
    <path clip-path="url(#p60a241e596)" d="M 86.836918 175.385068 
L 95.333185 175.385068 
" style="fill:none;stroke:#0000ff;stroke-linecap:square;stroke-width:2;"/>
   </g>
   <g id="line2d_63">
    <path clip-path="url(#p60a241e596)" d="M 155.141969 173.315223 
L 158.115662 165.208082 
L 155.141969 162.074651 
L 163.638236 162.074651 
L 160.664543 165.208082 
L 163.638236 173.315223 
L 155.141969 173.315223 
" style="fill:none;stroke:#0000ff;stroke-linecap:square;"/>
   </g>
   <g id="line2d_64">
    <path clip-path="url(#p60a241e596)" d="M 155.141969 173.315223 
L 163.638236 173.315223 
L 163.638236 162.074651 
L 155.141969 162.074651 
L 155.141969 173.315223 
" style="fill:none;"/>
    <g clip-path="url(#p60a241e596)">
     <use style="fill:#0000ff;stroke:#0000ff;" x="155.141969" xlink:href="#m600e499ff8" y="173.315223"/>
     <use style="fill:#0000ff;stroke:#0000ff;" x="163.638236" xlink:href="#m600e499ff8" y="173.315223"/>
     <use style="fill:#0000ff;stroke:#0000ff;" x="163.638236" xlink:href="#m600e499ff8" y="162.074651"/>
     <use style="fill:#0000ff;stroke:#0000ff;" x="155.141969" xlink:href="#m600e499ff8" y="162.074651"/>
     <use style="fill:#0000ff;stroke:#0000ff;" x="155.141969" xlink:href="#m600e499ff8" y="173.315223"/>
    </g>
   </g>
   <g id="line2d_65">
    <path clip-path="url(#p60a241e596)" d="M 155.141969 165.208082 
L 163.638236 165.208082 
" style="fill:none;stroke:#0000ff;stroke-linecap:square;stroke-width:2;"/>
   </g>
   <g id="line2d_66">
    <path clip-path="url(#p60a241e596)" d="M 247.826148 167.544933 
L 250.799842 163.457224 
L 247.826148 160.185453 
L 256.322416 160.185453 
L 253.348722 163.457224 
L 256.322416 167.544933 
L 247.826148 167.544933 
" style="fill:none;stroke:#0000ff;stroke-linecap:square;"/>
   </g>
   <g id="line2d_67">
    <path clip-path="url(#p60a241e596)" d="M 247.826148 167.544933 
L 256.322416 167.544933 
L 256.322416 160.185453 
L 247.826148 160.185453 
L 247.826148 167.544933 
" style="fill:none;"/>
    <g clip-path="url(#p60a241e596)">
     <use style="fill:#0000ff;stroke:#0000ff;" x="247.826148" xlink:href="#m600e499ff8" y="167.544933"/>
     <use style="fill:#0000ff;stroke:#0000ff;" x="256.322416" xlink:href="#m600e499ff8" y="167.544933"/>
     <use style="fill:#0000ff;stroke:#0000ff;" x="256.322416" xlink:href="#m600e499ff8" y="160.185453"/>
     <use style="fill:#0000ff;stroke:#0000ff;" x="247.826148" xlink:href="#m600e499ff8" y="160.185453"/>
     <use style="fill:#0000ff;stroke:#0000ff;" x="247.826148" xlink:href="#m600e499ff8" y="167.544933"/>
    </g>
   </g>
   <g id="line2d_68">
    <path clip-path="url(#p60a241e596)" d="M 247.826148 163.457224 
L 256.322416 163.457224 
" style="fill:none;stroke:#0000ff;stroke-linecap:square;stroke-width:2;"/>
   </g>
   <g id="line2d_69">
    <path clip-path="url(#p60a241e596)" d="M 340.510328 130.709403 
L 343.484021 118.589049 
L 340.510328 105.635989 
L 349.006595 105.635989 
L 346.032901 118.589049 
L 349.006595 130.709403 
L 340.510328 130.709403 
" style="fill:none;stroke:#0000ff;stroke-linecap:square;"/>
   </g>
   <g id="line2d_70">
    <path clip-path="url(#p60a241e596)" d="M 340.510328 130.709403 
L 349.006595 130.709403 
L 349.006595 105.635989 
L 340.510328 105.635989 
L 340.510328 130.709403 
" style="fill:none;"/>
    <g clip-path="url(#p60a241e596)">
     <use style="fill:#0000ff;stroke:#0000ff;" x="340.510328" xlink:href="#m600e499ff8" y="130.709403"/>
     <use style="fill:#0000ff;stroke:#0000ff;" x="349.006595" xlink:href="#m600e499ff8" y="130.709403"/>
     <use style="fill:#0000ff;stroke:#0000ff;" x="349.006595" xlink:href="#m600e499ff8" y="105.635989"/>
     <use style="fill:#0000ff;stroke:#0000ff;" x="340.510328" xlink:href="#m600e499ff8" y="105.635989"/>
     <use style="fill:#0000ff;stroke:#0000ff;" x="340.510328" xlink:href="#m600e499ff8" y="130.709403"/>
    </g>
   </g>
   <g id="line2d_71">
    <path clip-path="url(#p60a241e596)" d="M 340.510328 118.589049 
L 349.006595 118.589049 
" style="fill:none;stroke:#0000ff;stroke-linecap:square;stroke-width:2;"/>
   </g>
   <g id="line2d_72">
    <path clip-path="url(#p60a241e596)" d="M 36.868282 194.319659 
L 91.085051 154.303131 
" style="fill:none;stroke:#0000ff;stroke-linecap:square;stroke-width:4;"/>
   </g>
   <g id="line2d_73">
    <path clip-path="url(#p60a241e596)" d="M 91.085051 154.303131 
L 159.390103 164.275526 
" style="fill:none;stroke:#0000ff;stroke-linecap:square;stroke-width:4;"/>
   </g>
   <g id="line2d_74">
    <path clip-path="url(#p60a241e596)" d="M 159.390103 164.275526 
L 252.074282 149.012428 
" style="fill:none;stroke:#0000ff;stroke-linecap:square;stroke-width:4;"/>
   </g>
   <g id="line2d_75">
    <path clip-path="url(#p60a241e596)" d="M 252.074282 149.012428 
L 344.758461 118.575084 
" style="fill:none;stroke:#0000ff;stroke-linecap:square;stroke-width:4;"/>
   </g>
   <g id="line2d_76">
    <path clip-path="url(#p60a241e596)" d="M 36.868282 194.319659 
L 91.085051 154.303131 
L 159.390103 164.275526 
L 252.074282 149.012428 
L 344.758461 118.575084 
" style="fill:none;"/>
    <defs>
     <path d="M 0 5 
C 1.326016 5 2.597899 4.473168 3.535534 3.535534 
C 4.473168 2.597899 5 1.326016 5 0 
C 5 -1.326016 4.473168 -2.597899 3.535534 -3.535534 
C 2.597899 -4.473168 1.326016 -5 0 -5 
C -1.326016 -5 -2.597899 -4.473168 -3.535534 -3.535534 
C -4.473168 -2.597899 -5 -1.326016 -5 0 
C -5 1.326016 -4.473168 2.597899 -3.535534 3.535534 
C -2.597899 4.473168 -1.326016 5 0 5 
z
" id="m4779517178" style="stroke:#0000ff;"/>
    </defs>
    <g clip-path="url(#p60a241e596)">
     <use style="fill:#0000ff;stroke:#0000ff;" x="36.868282" xlink:href="#m4779517178" y="194.319659"/>
     <use style="fill:#0000ff;stroke:#0000ff;" x="91.085051" xlink:href="#m4779517178" y="154.303131"/>
     <use style="fill:#0000ff;stroke:#0000ff;" x="159.390103" xlink:href="#m4779517178" y="164.275526"/>
     <use style="fill:#0000ff;stroke:#0000ff;" x="252.074282" xlink:href="#m4779517178" y="149.012428"/>
     <use style="fill:#0000ff;stroke:#0000ff;" x="344.758461" xlink:href="#m4779517178" y="118.575084"/>
    </g>
   </g>
   <g id="line2d_77">
    <path clip-path="url(#p60a241e596)" d="M 31.558115 159.597324 
L 35.275232 152.934394 
L 31.558115 147.814135 
L 42.178449 147.814135 
L 38.461332 152.934394 
L 42.178449 159.597324 
L 31.558115 159.597324 
" style="fill:none;stroke:#00bfbf;stroke-linecap:square;"/>
   </g>
   <g id="line2d_78">
    <path clip-path="url(#p60a241e596)" d="M 31.558115 159.597324 
L 42.178449 159.597324 
L 42.178449 147.814135 
L 31.558115 147.814135 
L 31.558115 159.597324 
" style="fill:none;"/>
    <defs>
     <path d="M -0 3 
L 3 -3 
L -3 -3 
z
" id="m83e3092bf4" style="stroke:#00bfbf;stroke-linejoin:miter;stroke-width:2;"/>
    </defs>
    <g clip-path="url(#p60a241e596)">
     <use style="fill:#00bfbf;stroke:#00bfbf;stroke-linejoin:miter;stroke-width:2;" x="31.558115" xlink:href="#m83e3092bf4" y="159.597324"/>
     <use style="fill:#00bfbf;stroke:#00bfbf;stroke-linejoin:miter;stroke-width:2;" x="42.178449" xlink:href="#m83e3092bf4" y="159.597324"/>
     <use style="fill:#00bfbf;stroke:#00bfbf;stroke-linejoin:miter;stroke-width:2;" x="42.178449" xlink:href="#m83e3092bf4" y="147.814135"/>
     <use style="fill:#00bfbf;stroke:#00bfbf;stroke-linejoin:miter;stroke-width:2;" x="31.558115" xlink:href="#m83e3092bf4" y="147.814135"/>
     <use style="fill:#00bfbf;stroke:#00bfbf;stroke-linejoin:miter;stroke-width:2;" x="31.558115" xlink:href="#m83e3092bf4" y="159.597324"/>
    </g>
   </g>
   <g id="line2d_79">
    <path clip-path="url(#p60a241e596)" d="M 31.558115 152.934394 
L 42.178449 152.934394 
" style="fill:none;stroke:#00bfbf;stroke-linecap:square;stroke-width:2;"/>
   </g>
   <g id="line2d_80">
    <path clip-path="url(#p60a241e596)" d="M 85.774884 151.353346 
L 89.492001 148.824783 
L 85.774884 108.499394 
L 96.395219 108.499394 
L 92.678101 148.824783 
L 96.395219 151.353346 
L 85.774884 151.353346 
" style="fill:none;stroke:#00bfbf;stroke-linecap:square;"/>
   </g>
   <g id="line2d_81">
    <path clip-path="url(#p60a241e596)" d="M 85.774884 151.353346 
L 96.395219 151.353346 
L 96.395219 108.499394 
L 85.774884 108.499394 
L 85.774884 151.353346 
" style="fill:none;"/>
    <g clip-path="url(#p60a241e596)">
     <use style="fill:#00bfbf;stroke:#00bfbf;stroke-linejoin:miter;stroke-width:2;" x="85.774884" xlink:href="#m83e3092bf4" y="151.353346"/>
     <use style="fill:#00bfbf;stroke:#00bfbf;stroke-linejoin:miter;stroke-width:2;" x="96.395219" xlink:href="#m83e3092bf4" y="151.353346"/>
     <use style="fill:#00bfbf;stroke:#00bfbf;stroke-linejoin:miter;stroke-width:2;" x="96.395219" xlink:href="#m83e3092bf4" y="108.499394"/>
     <use style="fill:#00bfbf;stroke:#00bfbf;stroke-linejoin:miter;stroke-width:2;" x="85.774884" xlink:href="#m83e3092bf4" y="108.499394"/>
     <use style="fill:#00bfbf;stroke:#00bfbf;stroke-linejoin:miter;stroke-width:2;" x="85.774884" xlink:href="#m83e3092bf4" y="151.353346"/>
    </g>
   </g>
   <g id="line2d_82">
    <path clip-path="url(#p60a241e596)" d="M 85.774884 148.824783 
L 96.395219 148.824783 
" style="fill:none;stroke:#00bfbf;stroke-linecap:square;stroke-width:2;"/>
   </g>
   <g id="line2d_83">
    <path clip-path="url(#p60a241e596)" d="M 154.079935 152.51725 
L 157.797052 146.698606 
L 154.079935 104.206762 
L 164.70027 104.206762 
L 160.983153 146.698606 
L 164.70027 152.51725 
L 154.079935 152.51725 
" style="fill:none;stroke:#00bfbf;stroke-linecap:square;"/>
   </g>
   <g id="line2d_84">
    <path clip-path="url(#p60a241e596)" d="M 154.079935 152.51725 
L 164.70027 152.51725 
L 164.70027 104.206762 
L 154.079935 104.206762 
L 154.079935 152.51725 
" style="fill:none;"/>
    <g clip-path="url(#p60a241e596)">
     <use style="fill:#00bfbf;stroke:#00bfbf;stroke-linejoin:miter;stroke-width:2;" x="154.079935" xlink:href="#m83e3092bf4" y="152.51725"/>
     <use style="fill:#00bfbf;stroke:#00bfbf;stroke-linejoin:miter;stroke-width:2;" x="164.70027" xlink:href="#m83e3092bf4" y="152.51725"/>
     <use style="fill:#00bfbf;stroke:#00bfbf;stroke-linejoin:miter;stroke-width:2;" x="164.70027" xlink:href="#m83e3092bf4" y="104.206762"/>
     <use style="fill:#00bfbf;stroke:#00bfbf;stroke-linejoin:miter;stroke-width:2;" x="154.079935" xlink:href="#m83e3092bf4" y="104.206762"/>
     <use style="fill:#00bfbf;stroke:#00bfbf;stroke-linejoin:miter;stroke-width:2;" x="154.079935" xlink:href="#m83e3092bf4" y="152.51725"/>
    </g>
   </g>
   <g id="line2d_85">
    <path clip-path="url(#p60a241e596)" d="M 154.079935 146.698606 
L 164.70027 146.698606 
" style="fill:none;stroke:#00bfbf;stroke-linecap:square;stroke-width:2;"/>
   </g>
   <g id="line2d_86">
    <path clip-path="url(#p60a241e596)" d="M 246.764115 117.53036 
L 250.481232 87.458837 
L 246.764115 74.822271 
L 257.384449 74.822271 
L 253.667332 87.458837 
L 257.384449 117.53036 
L 246.764115 117.53036 
" style="fill:none;stroke:#00bfbf;stroke-linecap:square;"/>
   </g>
   <g id="line2d_87">
    <path clip-path="url(#p60a241e596)" d="M 246.764115 117.53036 
L 257.384449 117.53036 
L 257.384449 74.822271 
L 246.764115 74.822271 
L 246.764115 117.53036 
" style="fill:none;"/>
    <g clip-path="url(#p60a241e596)">
     <use style="fill:#00bfbf;stroke:#00bfbf;stroke-linejoin:miter;stroke-width:2;" x="246.764115" xlink:href="#m83e3092bf4" y="117.53036"/>
     <use style="fill:#00bfbf;stroke:#00bfbf;stroke-linejoin:miter;stroke-width:2;" x="257.384449" xlink:href="#m83e3092bf4" y="117.53036"/>
     <use style="fill:#00bfbf;stroke:#00bfbf;stroke-linejoin:miter;stroke-width:2;" x="257.384449" xlink:href="#m83e3092bf4" y="74.822271"/>
     <use style="fill:#00bfbf;stroke:#00bfbf;stroke-linejoin:miter;stroke-width:2;" x="246.764115" xlink:href="#m83e3092bf4" y="74.822271"/>
     <use style="fill:#00bfbf;stroke:#00bfbf;stroke-linejoin:miter;stroke-width:2;" x="246.764115" xlink:href="#m83e3092bf4" y="117.53036"/>
    </g>
   </g>
   <g id="line2d_88">
    <path clip-path="url(#p60a241e596)" d="M 246.764115 87.458837 
L 257.384449 87.458837 
" style="fill:none;stroke:#00bfbf;stroke-linecap:square;stroke-width:2;"/>
   </g>
   <g id="line2d_89">
    <path clip-path="url(#p60a241e596)" d="M 36.868282 154.466568 
L 91.085051 124.228702 
" style="fill:none;stroke:#00bfbf;stroke-linecap:square;stroke-width:4;"/>
   </g>
   <g id="line2d_90">
    <path clip-path="url(#p60a241e596)" d="M 91.085051 124.228702 
L 159.390103 114.404007 
" style="fill:none;stroke:#00bfbf;stroke-linecap:square;stroke-width:4;"/>
   </g>
   <g id="line2d_91">
    <path clip-path="url(#p60a241e596)" d="M 159.390103 114.404007 
L 252.074282 80.85761 
" style="fill:none;stroke:#00bfbf;stroke-linecap:square;stroke-width:4;"/>
   </g>
   <g id="line2d_92">
    <path clip-path="url(#p60a241e596)" d="M 36.868282 154.466568 
L 91.085051 124.228702 
L 159.390103 114.404007 
L 252.074282 80.85761 
" style="fill:none;"/>
    <defs>
     <path d="M -0 10 
L 10 -10 
L -10 -10 
z
" id="m2fc770b793" style="stroke:#000000;stroke-linejoin:miter;stroke-width:2;"/>
    </defs>
    <g clip-path="url(#p60a241e596)">
     <use style="fill:#00bfbf;stroke:#000000;stroke-linejoin:miter;stroke-width:2;" x="36.868282" xlink:href="#m2fc770b793" y="154.466568"/>
     <use style="fill:#00bfbf;stroke:#000000;stroke-linejoin:miter;stroke-width:2;" x="91.085051" xlink:href="#m2fc770b793" y="124.228702"/>
     <use style="fill:#00bfbf;stroke:#000000;stroke-linejoin:miter;stroke-width:2;" x="159.390103" xlink:href="#m2fc770b793" y="114.404007"/>
     <use style="fill:#00bfbf;stroke:#000000;stroke-linejoin:miter;stroke-width:2;" x="252.074282" xlink:href="#m2fc770b793" y="80.85761"/>
    </g>
   </g>
   <g id="line2d_93">
    <path clip-path="url(#p60a241e596)" d="M 30.496081 140.696814 
L 34.956622 136.446627 
L 30.496081 134.402131 
L 43.240483 134.402131 
L 38.779942 136.446627 
L 43.240483 140.696814 
L 30.496081 140.696814 
" style="fill:none;stroke:#008000;stroke-linecap:square;"/>
   </g>
   <g id="line2d_94">
    <path clip-path="url(#p60a241e596)" d="M 30.496081 140.696814 
L 43.240483 140.696814 
L 43.240483 134.402131 
L 30.496081 134.402131 
L 30.496081 140.696814 
" style="fill:none;"/>
    <defs>
     <path d="M 0 1.5 
C 0.397805 1.5 0.77937 1.341951 1.06066 1.06066 
C 1.341951 0.77937 1.5 0.397805 1.5 0 
C 1.5 -0.397805 1.341951 -0.77937 1.06066 -1.06066 
C 0.77937 -1.341951 0.397805 -1.5 0 -1.5 
C -0.397805 -1.5 -0.77937 -1.341951 -1.06066 -1.06066 
C -1.341951 -0.77937 -1.5 -0.397805 -1.5 0 
C -1.5 0.397805 -1.341951 0.77937 -1.06066 1.06066 
C -0.77937 1.341951 -0.397805 1.5 0 1.5 
z
" id="mdf495b01f5" style="stroke:#008000;"/>
    </defs>
    <g clip-path="url(#p60a241e596)">
     <use style="fill:#008000;stroke:#008000;" x="30.496081" xlink:href="#mdf495b01f5" y="140.696814"/>
     <use style="fill:#008000;stroke:#008000;" x="43.240483" xlink:href="#mdf495b01f5" y="140.696814"/>
     <use style="fill:#008000;stroke:#008000;" x="43.240483" xlink:href="#mdf495b01f5" y="134.402131"/>
     <use style="fill:#008000;stroke:#008000;" x="30.496081" xlink:href="#mdf495b01f5" y="134.402131"/>
     <use style="fill:#008000;stroke:#008000;" x="30.496081" xlink:href="#mdf495b01f5" y="140.696814"/>
    </g>
   </g>
   <g id="line2d_95">
    <path clip-path="url(#p60a241e596)" d="M 30.496081 136.446627 
L 43.240483 136.446627 
" style="fill:none;stroke:#008000;stroke-linecap:square;stroke-width:2;"/>
   </g>
   <g id="line2d_96">
    <path clip-path="url(#p60a241e596)" d="M 84.712851 140.511313 
L 89.173391 135.186599 
L 84.712851 105.935845 
L 97.457252 105.935845 
L 92.996711 135.186599 
L 97.457252 140.511313 
L 84.712851 140.511313 
" style="fill:none;stroke:#008000;stroke-linecap:square;"/>
   </g>
   <g id="line2d_97">
    <path clip-path="url(#p60a241e596)" d="M 84.712851 140.511313 
L 97.457252 140.511313 
L 97.457252 105.935845 
L 84.712851 105.935845 
L 84.712851 140.511313 
" style="fill:none;"/>
    <g clip-path="url(#p60a241e596)">
     <use style="fill:#008000;stroke:#008000;" x="84.712851" xlink:href="#mdf495b01f5" y="140.511313"/>
     <use style="fill:#008000;stroke:#008000;" x="97.457252" xlink:href="#mdf495b01f5" y="140.511313"/>
     <use style="fill:#008000;stroke:#008000;" x="97.457252" xlink:href="#mdf495b01f5" y="105.935845"/>
     <use style="fill:#008000;stroke:#008000;" x="84.712851" xlink:href="#mdf495b01f5" y="105.935845"/>
     <use style="fill:#008000;stroke:#008000;" x="84.712851" xlink:href="#mdf495b01f5" y="140.511313"/>
    </g>
   </g>
   <g id="line2d_98">
    <path clip-path="url(#p60a241e596)" d="M 84.712851 135.186599 
L 97.457252 135.186599 
" style="fill:none;stroke:#008000;stroke-linecap:square;stroke-width:2;"/>
   </g>
   <g id="line2d_99">
    <path clip-path="url(#p60a241e596)" d="M 153.017902 103.985113 
L 157.478442 91.092821 
L 153.017902 77.811375 
L 165.762303 77.811375 
L 161.301763 91.092821 
L 165.762303 103.985113 
L 153.017902 103.985113 
" style="fill:none;stroke:#008000;stroke-linecap:square;"/>
   </g>
   <g id="line2d_100">
    <path clip-path="url(#p60a241e596)" d="M 153.017902 103.985113 
L 165.762303 103.985113 
L 165.762303 77.811375 
L 153.017902 77.811375 
L 153.017902 103.985113 
" style="fill:none;"/>
    <g clip-path="url(#p60a241e596)">
     <use style="fill:#008000;stroke:#008000;" x="153.017902" xlink:href="#mdf495b01f5" y="103.985113"/>
     <use style="fill:#008000;stroke:#008000;" x="165.762303" xlink:href="#mdf495b01f5" y="103.985113"/>
     <use style="fill:#008000;stroke:#008000;" x="165.762303" xlink:href="#mdf495b01f5" y="77.811375"/>
     <use style="fill:#008000;stroke:#008000;" x="153.017902" xlink:href="#mdf495b01f5" y="77.811375"/>
     <use style="fill:#008000;stroke:#008000;" x="153.017902" xlink:href="#mdf495b01f5" y="103.985113"/>
    </g>
   </g>
   <g id="line2d_101">
    <path clip-path="url(#p60a241e596)" d="M 153.017902 91.092821 
L 165.762303 91.092821 
" style="fill:none;stroke:#008000;stroke-linecap:square;stroke-width:2;"/>
   </g>
   <g id="line2d_102">
    <path clip-path="url(#p60a241e596)" d="M 36.868282 136.359884 
L 91.085051 116.771307 
" style="fill:none;stroke:#008000;stroke-linecap:square;stroke-width:4;"/>
   </g>
   <g id="line2d_103">
    <path clip-path="url(#p60a241e596)" d="M 91.085051 116.771307 
L 159.390103 91.149461 
" style="fill:none;stroke:#008000;stroke-linecap:square;stroke-width:4;"/>
   </g>
   <g id="line2d_104">
    <path clip-path="url(#p60a241e596)" d="M 36.868282 136.359884 
L 91.085051 116.771307 
L 159.390103 91.149461 
" style="fill:none;"/>
    <defs>
     <path d="M 0 5 
C 1.326016 5 2.597899 4.473168 3.535534 3.535534 
C 4.473168 2.597899 5 1.326016 5 0 
C 5 -1.326016 4.473168 -2.597899 3.535534 -3.535534 
C 2.597899 -4.473168 1.326016 -5 0 -5 
C -1.326016 -5 -2.597899 -4.473168 -3.535534 -3.535534 
C -4.473168 -2.597899 -5 -1.326016 -5 0 
C -5 1.326016 -4.473168 2.597899 -3.535534 3.535534 
C -2.597899 4.473168 -1.326016 5 0 5 
z
" id="m4f3462db8d" style="stroke:#008000;"/>
    </defs>
    <g clip-path="url(#p60a241e596)">
     <use style="fill:#008000;stroke:#008000;" x="36.868282" xlink:href="#m4f3462db8d" y="136.359884"/>
     <use style="fill:#008000;stroke:#008000;" x="91.085051" xlink:href="#m4f3462db8d" y="116.771307"/>
     <use style="fill:#008000;stroke:#008000;" x="159.390103" xlink:href="#m4f3462db8d" y="91.149461"/>
    </g>
   </g>
   <g id="line2d_105">
    <path clip-path="url(#p60a241e596)" d="M 29.434048 136.034711 
L 34.638012 134.878992 
L 29.434048 129.511677 
L 44.302516 129.511677 
L 39.098552 134.878992 
L 44.302516 136.034711 
L 29.434048 136.034711 
" style="fill:none;stroke:#bfbf00;stroke-linecap:square;"/>
   </g>
   <g id="line2d_106">
    <path clip-path="url(#p60a241e596)" d="M 29.434048 136.034711 
L 44.302516 136.034711 
L 44.302516 129.511677 
L 29.434048 129.511677 
L 29.434048 136.034711 
" style="fill:none;"/>
    <defs>
     <path d="M 0 -3 
L -3 3 
L 3 3 
z
" id="mfdbe4aca64" style="stroke:#bfbf00;stroke-linejoin:miter;stroke-width:2;"/>
    </defs>
    <g clip-path="url(#p60a241e596)">
     <use style="fill:#bfbf00;stroke:#bfbf00;stroke-linejoin:miter;stroke-width:2;" x="29.434048" xlink:href="#mfdbe4aca64" y="136.034711"/>
     <use style="fill:#bfbf00;stroke:#bfbf00;stroke-linejoin:miter;stroke-width:2;" x="44.302516" xlink:href="#mfdbe4aca64" y="136.034711"/>
     <use style="fill:#bfbf00;stroke:#bfbf00;stroke-linejoin:miter;stroke-width:2;" x="44.302516" xlink:href="#mfdbe4aca64" y="129.511677"/>
     <use style="fill:#bfbf00;stroke:#bfbf00;stroke-linejoin:miter;stroke-width:2;" x="29.434048" xlink:href="#mfdbe4aca64" y="129.511677"/>
     <use style="fill:#bfbf00;stroke:#bfbf00;stroke-linejoin:miter;stroke-width:2;" x="29.434048" xlink:href="#mfdbe4aca64" y="136.034711"/>
    </g>
   </g>
   <g id="line2d_107">
    <path clip-path="url(#p60a241e596)" d="M 29.434048 134.878992 
L 44.302516 134.878992 
" style="fill:none;stroke:#bfbf00;stroke-linecap:square;stroke-width:2;"/>
   </g>
   <g id="line2d_108">
    <path clip-path="url(#p60a241e596)" d="M 83.650817 134.388766 
L 88.854781 94.009867 
L 83.650817 93.380348 
L 98.519285 93.380348 
L 93.315322 94.009867 
L 98.519285 134.388766 
L 83.650817 134.388766 
" style="fill:none;stroke:#bfbf00;stroke-linecap:square;"/>
   </g>
   <g id="line2d_109">
    <path clip-path="url(#p60a241e596)" d="M 83.650817 134.388766 
L 98.519285 134.388766 
L 98.519285 93.380348 
L 83.650817 93.380348 
L 83.650817 134.388766 
" style="fill:none;"/>
    <g clip-path="url(#p60a241e596)">
     <use style="fill:#bfbf00;stroke:#bfbf00;stroke-linejoin:miter;stroke-width:2;" x="83.650817" xlink:href="#mfdbe4aca64" y="134.388766"/>
     <use style="fill:#bfbf00;stroke:#bfbf00;stroke-linejoin:miter;stroke-width:2;" x="98.519285" xlink:href="#mfdbe4aca64" y="134.388766"/>
     <use style="fill:#bfbf00;stroke:#bfbf00;stroke-linejoin:miter;stroke-width:2;" x="98.519285" xlink:href="#mfdbe4aca64" y="93.380348"/>
     <use style="fill:#bfbf00;stroke:#bfbf00;stroke-linejoin:miter;stroke-width:2;" x="83.650817" xlink:href="#mfdbe4aca64" y="93.380348"/>
     <use style="fill:#bfbf00;stroke:#bfbf00;stroke-linejoin:miter;stroke-width:2;" x="83.650817" xlink:href="#mfdbe4aca64" y="134.388766"/>
    </g>
   </g>
   <g id="line2d_110">
    <path clip-path="url(#p60a241e596)" d="M 83.650817 94.009867 
L 98.519285 94.009867 
" style="fill:none;stroke:#bfbf00;stroke-linecap:square;stroke-width:2;"/>
   </g>
   <g id="line2d_111">
    <path clip-path="url(#p60a241e596)" d="M 36.868282 130.601001 
L 91.085051 87.881964 
" style="fill:none;stroke:#bfbf00;stroke-linecap:square;stroke-width:4;"/>
   </g>
   <g id="line2d_112">
    <path clip-path="url(#p60a241e596)" d="M 36.868282 130.601001 
L 91.085051 87.881964 
" style="fill:none;"/>
    <defs>
     <path d="M 0 -10 
L -10 10 
L 10 10 
z
" id="mc48dc92177" style="stroke:#000000;stroke-linejoin:miter;stroke-width:2;"/>
    </defs>
    <g clip-path="url(#p60a241e596)">
     <use style="fill:#bfbf00;stroke:#000000;stroke-linejoin:miter;stroke-width:2;" x="36.868282" xlink:href="#mc48dc92177" y="130.601001"/>
     <use style="fill:#bfbf00;stroke:#000000;stroke-linejoin:miter;stroke-width:2;" x="91.085051" xlink:href="#mc48dc92177" y="87.881964"/>
    </g>
   </g>
   <g id="line2d_113">
    <path clip-path="url(#p60a241e596)" d="M 28.372014 125.571453 
L 34.319402 119.986654 
L 28.372014 116.805561 
L 45.364549 116.805561 
L 39.417162 119.986654 
L 45.364549 125.571453 
L 28.372014 125.571453 
" style="fill:none;stroke:#bf00bf;stroke-linecap:square;"/>
   </g>
   <g id="line2d_114">
    <path clip-path="url(#p60a241e596)" d="M 28.372014 125.571453 
L 45.364549 125.571453 
L 45.364549 116.805561 
L 28.372014 116.805561 
L 28.372014 125.571453 
" style="fill:none;"/>
    <defs>
     <path d="M 0 1.5 
C 0.397805 1.5 0.77937 1.341951 1.06066 1.06066 
C 1.341951 0.77937 1.5 0.397805 1.5 0 
C 1.5 -0.397805 1.341951 -0.77937 1.06066 -1.06066 
C 0.77937 -1.341951 0.397805 -1.5 0 -1.5 
C -0.397805 -1.5 -0.77937 -1.341951 -1.06066 -1.06066 
C -1.341951 -0.77937 -1.5 -0.397805 -1.5 0 
C -1.5 0.397805 -1.341951 0.77937 -1.06066 1.06066 
C -0.77937 1.341951 -0.397805 1.5 0 1.5 
z
" id="ma0c0838a65" style="stroke:#bf00bf;"/>
    </defs>
    <g clip-path="url(#p60a241e596)">
     <use style="fill:#bf00bf;stroke:#bf00bf;" x="28.372014" xlink:href="#ma0c0838a65" y="125.571453"/>
     <use style="fill:#bf00bf;stroke:#bf00bf;" x="45.364549" xlink:href="#ma0c0838a65" y="125.571453"/>
     <use style="fill:#bf00bf;stroke:#bf00bf;" x="45.364549" xlink:href="#ma0c0838a65" y="116.805561"/>
     <use style="fill:#bf00bf;stroke:#bf00bf;" x="28.372014" xlink:href="#ma0c0838a65" y="116.805561"/>
     <use style="fill:#bf00bf;stroke:#bf00bf;" x="28.372014" xlink:href="#ma0c0838a65" y="125.571453"/>
    </g>
   </g>
   <g id="line2d_115">
    <path clip-path="url(#p60a241e596)" d="M 28.372014 119.986654 
L 45.364549 119.986654 
" style="fill:none;stroke:#bf00bf;stroke-linecap:square;stroke-width:2;"/>
   </g>
   <g id="line2d_116">
    <path clip-path="url(#p60a241e596)" d="M 82.588784 125.447618 
L 88.536171 102.470908 
L 82.588784 92.012728 
L 99.581319 92.012728 
L 93.633932 102.470908 
L 99.581319 125.447618 
L 82.588784 125.447618 
" style="fill:none;stroke:#bf00bf;stroke-linecap:square;"/>
   </g>
   <g id="line2d_117">
    <path clip-path="url(#p60a241e596)" d="M 82.588784 125.447618 
L 99.581319 125.447618 
L 99.581319 92.012728 
L 82.588784 92.012728 
L 82.588784 125.447618 
" style="fill:none;"/>
    <g clip-path="url(#p60a241e596)">
     <use style="fill:#bf00bf;stroke:#bf00bf;" x="82.588784" xlink:href="#ma0c0838a65" y="125.447618"/>
     <use style="fill:#bf00bf;stroke:#bf00bf;" x="99.581319" xlink:href="#ma0c0838a65" y="125.447618"/>
     <use style="fill:#bf00bf;stroke:#bf00bf;" x="99.581319" xlink:href="#ma0c0838a65" y="92.012728"/>
     <use style="fill:#bf00bf;stroke:#bf00bf;" x="82.588784" xlink:href="#ma0c0838a65" y="92.012728"/>
     <use style="fill:#bf00bf;stroke:#bf00bf;" x="82.588784" xlink:href="#ma0c0838a65" y="125.447618"/>
    </g>
   </g>
   <g id="line2d_118">
    <path clip-path="url(#p60a241e596)" d="M 82.588784 102.470908 
L 99.581319 102.470908 
" style="fill:none;stroke:#bf00bf;stroke-linecap:square;stroke-width:2;"/>
   </g>
   <g id="line2d_119">
    <path clip-path="url(#p60a241e596)" d="M 36.868282 119.894901 
L 91.085051 86.80248 
" style="fill:none;stroke:#bf00bf;stroke-linecap:square;stroke-width:4;"/>
   </g>
   <g id="line2d_120">
    <path clip-path="url(#p60a241e596)" d="M 36.868282 119.894901 
L 91.085051 86.80248 
" style="fill:none;"/>
    <defs>
     <path d="M 0 5 
C 1.326016 5 2.597899 4.473168 3.535534 3.535534 
C 4.473168 2.597899 5 1.326016 5 0 
C 5 -1.326016 4.473168 -2.597899 3.535534 -3.535534 
C 2.597899 -4.473168 1.326016 -5 0 -5 
C -1.326016 -5 -2.597899 -4.473168 -3.535534 -3.535534 
C -4.473168 -2.597899 -5 -1.326016 -5 0 
C -5 1.326016 -4.473168 2.597899 -3.535534 3.535534 
C -2.597899 4.473168 -1.326016 5 0 5 
z
" id="mf57dc78ee4" style="stroke:#bf00bf;"/>
    </defs>
    <g clip-path="url(#p60a241e596)">
     <use style="fill:#bf00bf;stroke:#bf00bf;" x="36.868282" xlink:href="#mf57dc78ee4" y="119.894901"/>
     <use style="fill:#bf00bf;stroke:#bf00bf;" x="91.085051" xlink:href="#mf57dc78ee4" y="86.80248"/>
    </g>
   </g>
   <g id="line2d_121">
    <path clip-path="url(#p60a241e596)" d="M 27.309981 117.607781 
L 34.000792 115.29527 
L 27.309981 112.351072 
L 46.426583 112.351072 
L 39.735772 115.29527 
L 46.426583 117.607781 
L 27.309981 117.607781 
" style="fill:none;stroke:#ff0000;stroke-linecap:square;"/>
   </g>
   <g id="line2d_122">
    <path clip-path="url(#p60a241e596)" d="M 27.309981 117.607781 
L 46.426583 117.607781 
L 46.426583 112.351072 
L 27.309981 112.351072 
L 27.309981 117.607781 
" style="fill:none;"/>
    <defs>
     <path d="M 0 3 
C 0.795609 3 1.55874 2.683901 2.12132 2.12132 
C 2.683901 1.55874 3 0.795609 3 0 
C 3 -0.795609 2.683901 -1.55874 2.12132 -2.12132 
C 1.55874 -2.683901 0.795609 -3 0 -3 
C -0.795609 -3 -1.55874 -2.683901 -2.12132 -2.12132 
C -2.683901 -1.55874 -3 -0.795609 -3 0 
C -3 0.795609 -2.683901 1.55874 -2.12132 2.12132 
C -1.55874 2.683901 -0.795609 3 0 3 
z
" id="m434986426b" style="stroke:#ff0000;stroke-width:2;"/>
    </defs>
    <g clip-path="url(#p60a241e596)">
     <use style="fill:#ff0000;stroke:#ff0000;stroke-width:2;" x="27.309981" xlink:href="#m434986426b" y="117.607781"/>
     <use style="fill:#ff0000;stroke:#ff0000;stroke-width:2;" x="46.426583" xlink:href="#m434986426b" y="117.607781"/>
     <use style="fill:#ff0000;stroke:#ff0000;stroke-width:2;" x="46.426583" xlink:href="#m434986426b" y="112.351072"/>
     <use style="fill:#ff0000;stroke:#ff0000;stroke-width:2;" x="27.309981" xlink:href="#m434986426b" y="112.351072"/>
     <use style="fill:#ff0000;stroke:#ff0000;stroke-width:2;" x="27.309981" xlink:href="#m434986426b" y="117.607781"/>
    </g>
   </g>
   <g id="line2d_123">
    <path clip-path="url(#p60a241e596)" d="M 27.309981 115.29527 
L 46.426583 115.29527 
" style="fill:none;stroke:#ff0000;stroke-linecap:square;stroke-width:2;"/>
   </g>
   <g id="line2d_124">
    <path clip-path="url(#p60a241e596)" d="M 81.52675 75.550742 
L 88.217561 63.649442 
L 81.52675 40.02045 
L 100.643352 40.02045 
L 93.952542 63.649442 
L 100.643352 75.550742 
L 81.52675 75.550742 
" style="fill:none;stroke:#ff0000;stroke-linecap:square;"/>
   </g>
   <g id="line2d_125">
    <path clip-path="url(#p60a241e596)" d="M 81.52675 75.550742 
L 100.643352 75.550742 
L 100.643352 40.02045 
L 81.52675 40.02045 
L 81.52675 75.550742 
" style="fill:none;"/>
    <g clip-path="url(#p60a241e596)">
     <use style="fill:#ff0000;stroke:#ff0000;stroke-width:2;" x="81.52675" xlink:href="#m434986426b" y="75.550742"/>
     <use style="fill:#ff0000;stroke:#ff0000;stroke-width:2;" x="100.643352" xlink:href="#m434986426b" y="75.550742"/>
     <use style="fill:#ff0000;stroke:#ff0000;stroke-width:2;" x="100.643352" xlink:href="#m434986426b" y="40.02045"/>
     <use style="fill:#ff0000;stroke:#ff0000;stroke-width:2;" x="81.52675" xlink:href="#m434986426b" y="40.02045"/>
     <use style="fill:#ff0000;stroke:#ff0000;stroke-width:2;" x="81.52675" xlink:href="#m434986426b" y="75.550742"/>
    </g>
   </g>
   <g id="line2d_126">
    <path clip-path="url(#p60a241e596)" d="M 81.52675 63.649442 
L 100.643352 63.649442 
" style="fill:none;stroke:#ff0000;stroke-linecap:square;stroke-width:2;"/>
   </g>
   <g id="line2d_127">
    <path clip-path="url(#p60a241e596)" d="M 36.868282 112.873103 
L 91.085051 56.217176 
" style="fill:none;stroke:#ff0000;stroke-linecap:square;stroke-width:4;"/>
   </g>
   <g id="line2d_128">
    <path clip-path="url(#p60a241e596)" d="M 36.868282 112.873103 
L 91.085051 56.217176 
" style="fill:none;"/>
    <defs>
     <path d="M 0 10 
C 2.652031 10 5.195799 8.946337 7.071068 7.071068 
C 8.946337 5.195799 10 2.652031 10 0 
C 10 -2.652031 8.946337 -5.195799 7.071068 -7.071068 
C 5.195799 -8.946337 2.652031 -10 0 -10 
C -2.652031 -10 -5.195799 -8.946337 -7.071068 -7.071068 
C -8.946337 -5.195799 -10 -2.652031 -10 0 
C -10 2.652031 -8.946337 5.195799 -7.071068 7.071068 
C -5.195799 8.946337 -2.652031 10 0 10 
z
" id="m413eed9685" style="stroke:#000000;stroke-width:2;"/>
    </defs>
    <g clip-path="url(#p60a241e596)">
     <use style="fill:#ff0000;stroke:#000000;stroke-width:2;" x="36.868282" xlink:href="#m413eed9685" y="112.873103"/>
     <use style="fill:#ff0000;stroke:#000000;stroke-width:2;" x="91.085051" xlink:href="#m413eed9685" y="56.217176"/>
    </g>
   </g>
   <g id="line2d_129"/>
   <g id="line2d_130"/>
   <g id="line2d_131"/>
   <g id="line2d_132"/>
   <g id="line2d_133"/>
   <g id="line2d_134"/>
   <g id="line2d_135"/>
   <g id="line2d_136">
    <defs>
     <path d="M -10 10 
L 10 -10 
M -10 -10 
L 10 10 
" id="md54516768b" style="stroke:#ff0000;"/>
    </defs>
    <g clip-path="url(#p60a241e596)">
     <use style="fill:#ff0000;stroke:#ff0000;" x="36.868282" xlink:href="#md54516768b" y="106.399594"/>
     <use style="fill:#ff0000;stroke:#ff0000;" x="91.085051" xlink:href="#md54516768b" y="110.237704"/>
     <use style="fill:#ff0000;stroke:#ff0000;" x="159.390103" xlink:href="#md54516768b" y="120.532917"/>
     <use style="fill:#ff0000;stroke:#ff0000;" x="252.074282" xlink:href="#md54516768b" y="134.50265"/>
     <use style="fill:#ff0000;stroke:#ff0000;" x="344.758461" xlink:href="#md54516768b" y="148.472383"/>
     <use style="fill:#ff0000;stroke:#ff0000;" x="437.442641" xlink:href="#md54516768b" y="162.442116"/>
    </g>
   </g>
   <g id="line2d_137">
    <path clip-path="url(#p60a241e596)" d="M 76.444975 346.6 
L 461.8 288.517738 
" style="fill:none;stroke:#000000;stroke-dasharray:0.5,0.825;stroke-dashoffset:0;stroke-width:0.5;"/>
   </g>
   <g id="line2d_138">
    <path clip-path="url(#p60a241e596)" d="M -1 265.459922 
L 461.8 195.704841 
" style="fill:none;stroke:#000000;stroke-dasharray:0.5,0.825;stroke-dashoffset:0;stroke-width:0.5;"/>
   </g>
   <g id="line2d_139">
    <path clip-path="url(#p60a241e596)" d="M -1 172.647025 
L 461.8 102.891945 
" style="fill:none;stroke:#000000;stroke-dasharray:0.5,0.825;stroke-dashoffset:0;stroke-width:0.5;"/>
   </g>
   <g id="line2d_140">
    <path clip-path="url(#p60a241e596)" d="M -1 79.834129 
L 461.8 10.079048 
" style="fill:none;stroke:#000000;stroke-dasharray:0.5,0.825;stroke-dashoffset:0;stroke-width:0.5;"/>
   </g>
   <g id="line2d_141">
    <path clip-path="url(#p60a241e596)" style="fill:none;stroke:#000000;stroke-dasharray:0.5,0.825;stroke-dashoffset:0;stroke-width:0.5;"/>
   </g>
   <g id="patch_3">
    <path d="M 22.78 315.44 
L 22.78 27.72 
" style="fill:none;stroke:#000000;stroke-linecap:square;stroke-linejoin:miter;stroke-width:0.8;"/>
   </g>
   <g id="patch_4">
    <path d="M 453.192 315.44 
L 453.192 27.72 
" style="fill:none;stroke:#000000;stroke-linecap:square;stroke-linejoin:miter;stroke-width:0.8;"/>
   </g>
   <g id="patch_5">
    <path d="M 22.78 315.44 
L 453.192 315.44 
" style="fill:none;stroke:#000000;stroke-linecap:square;stroke-linejoin:miter;stroke-width:0.8;"/>
   </g>
   <g id="patch_6">
    <path d="M 22.78 27.72 
L 453.192 27.72 
" style="fill:none;stroke:#000000;stroke-linecap:square;stroke-linejoin:miter;stroke-width:0.8;"/>
   </g>
   <g id="text_14">
    <!-- 7 -->
    <g transform="translate(432.034516 142.12013)scale(0.17 -0.17)">
     <defs>
      <path d="M 525 4666 
L 3525 4666 
L 3525 4397 
L 1831 0 
L 1172 0 
L 2766 4134 
L 525 4134 
L 525 4666 
z
" id="DejaVuSans-37" transform="scale(0.015625)"/>
     </defs>
     <use xlink:href="#DejaVuSans-37"/>
    </g>
   </g>
   <g id="text_15">
    <!-- 1 -->
    <g transform="translate(85.676926 44.509937)scale(0.17 -0.17)">
     <use xlink:href="#DejaVuSans-31"/>
    </g>
   </g>
   <g id="text_16">
    <!-- 1 -->
    <g transform="translate(246.666157 69.150372)scale(0.17 -0.17)">
     <use xlink:href="#DejaVuSans-31"/>
    </g>
   </g>
   <g id="text_17">
    <!-- 3 -->
    <g transform="translate(339.350336 106.867845)scale(0.17 -0.17)">
     <use xlink:href="#DejaVuSans-33"/>
    </g>
   </g>
   <g id="text_18">
    <!-- 3 -->
    <g transform="translate(153.981978 79.442223)scale(0.17 -0.17)">
     <use xlink:href="#DejaVuSans-33"/>
    </g>
   </g>
   <g id="text_19">
    <!-- 15 instances -->
    <g transform="translate(22.78 296.8515)scale(0.14 -0.14)">
     <defs>
      <path id="DejaVuSans-20" transform="scale(0.015625)"/>
      <path d="M 603 3500 
L 1178 3500 
L 1178 0 
L 603 0 
L 603 3500 
z
M 603 4863 
L 1178 4863 
L 1178 4134 
L 603 4134 
L 603 4863 
z
" id="DejaVuSans-69" transform="scale(0.015625)"/>
      <path d="M 3513 2113 
L 3513 0 
L 2938 0 
L 2938 2094 
Q 2938 2591 2744 2837 
Q 2550 3084 2163 3084 
Q 1697 3084 1428 2787 
Q 1159 2491 1159 1978 
L 1159 0 
L 581 0 
L 581 3500 
L 1159 3500 
L 1159 2956 
Q 1366 3272 1645 3428 
Q 1925 3584 2291 3584 
Q 2894 3584 3203 3211 
Q 3513 2838 3513 2113 
z
" id="DejaVuSans-6e" transform="scale(0.015625)"/>
      <path d="M 2834 3397 
L 2834 2853 
Q 2591 2978 2328 3040 
Q 2066 3103 1784 3103 
Q 1356 3103 1142 2972 
Q 928 2841 928 2578 
Q 928 2378 1081 2264 
Q 1234 2150 1697 2047 
L 1894 2003 
Q 2506 1872 2764 1633 
Q 3022 1394 3022 966 
Q 3022 478 2636 193 
Q 2250 -91 1575 -91 
Q 1294 -91 989 -36 
Q 684 19 347 128 
L 347 722 
Q 666 556 975 473 
Q 1284 391 1588 391 
Q 1994 391 2212 530 
Q 2431 669 2431 922 
Q 2431 1156 2273 1281 
Q 2116 1406 1581 1522 
L 1381 1569 
Q 847 1681 609 1914 
Q 372 2147 372 2553 
Q 372 3047 722 3315 
Q 1072 3584 1716 3584 
Q 2034 3584 2315 3537 
Q 2597 3491 2834 3397 
z
" id="DejaVuSans-73" transform="scale(0.015625)"/>
      <path d="M 1172 4494 
L 1172 3500 
L 2356 3500 
L 2356 3053 
L 1172 3053 
L 1172 1153 
Q 1172 725 1289 603 
Q 1406 481 1766 481 
L 2356 481 
L 2356 0 
L 1766 0 
Q 1100 0 847 248 
Q 594 497 594 1153 
L 594 3053 
L 172 3053 
L 172 3500 
L 594 3500 
L 594 4494 
L 1172 4494 
z
" id="DejaVuSans-74" transform="scale(0.015625)"/>
      <path d="M 2194 1759 
Q 1497 1759 1228 1600 
Q 959 1441 959 1056 
Q 959 750 1161 570 
Q 1363 391 1709 391 
Q 2188 391 2477 730 
Q 2766 1069 2766 1631 
L 2766 1759 
L 2194 1759 
z
M 3341 1997 
L 3341 0 
L 2766 0 
L 2766 531 
Q 2569 213 2275 61 
Q 1981 -91 1556 -91 
Q 1019 -91 701 211 
Q 384 513 384 1019 
Q 384 1609 779 1909 
Q 1175 2209 1959 2209 
L 2766 2209 
L 2766 2266 
Q 2766 2663 2505 2880 
Q 2244 3097 1772 3097 
Q 1472 3097 1187 3025 
Q 903 2953 641 2809 
L 641 3341 
Q 956 3463 1253 3523 
Q 1550 3584 1831 3584 
Q 2591 3584 2966 3190 
Q 3341 2797 3341 1997 
z
" id="DejaVuSans-61" transform="scale(0.015625)"/>
      <path d="M 3122 3366 
L 3122 2828 
Q 2878 2963 2633 3030 
Q 2388 3097 2138 3097 
Q 1578 3097 1268 2742 
Q 959 2388 959 1747 
Q 959 1106 1268 751 
Q 1578 397 2138 397 
Q 2388 397 2633 464 
Q 2878 531 3122 666 
L 3122 134 
Q 2881 22 2623 -34 
Q 2366 -91 2075 -91 
Q 1284 -91 818 406 
Q 353 903 353 1747 
Q 353 2603 823 3093 
Q 1294 3584 2113 3584 
Q 2378 3584 2631 3529 
Q 2884 3475 3122 3366 
z
" id="DejaVuSans-63" transform="scale(0.015625)"/>
      <path d="M 3597 1894 
L 3597 1613 
L 953 1613 
Q 991 1019 1311 708 
Q 1631 397 2203 397 
Q 2534 397 2845 478 
Q 3156 559 3463 722 
L 3463 178 
Q 3153 47 2828 -22 
Q 2503 -91 2169 -91 
Q 1331 -91 842 396 
Q 353 884 353 1716 
Q 353 2575 817 3079 
Q 1281 3584 2069 3584 
Q 2775 3584 3186 3129 
Q 3597 2675 3597 1894 
z
M 3022 2063 
Q 3016 2534 2758 2815 
Q 2500 3097 2075 3097 
Q 1594 3097 1305 2825 
Q 1016 2553 972 2059 
L 3022 2063 
z
" id="DejaVuSans-65" transform="scale(0.015625)"/>
     </defs>
     <use xlink:href="#DejaVuSans-31"/>
     <use x="63.623047" xlink:href="#DejaVuSans-35"/>
     <use x="127.246094" xlink:href="#DejaVuSans-20"/>
     <use x="159.033203" xlink:href="#DejaVuSans-69"/>
     <use x="186.816406" xlink:href="#DejaVuSans-6e"/>
     <use x="250.195312" xlink:href="#DejaVuSans-73"/>
     <use x="302.294922" xlink:href="#DejaVuSans-74"/>
     <use x="341.503906" xlink:href="#DejaVuSans-61"/>
     <use x="402.783203" xlink:href="#DejaVuSans-6e"/>
     <use x="466.162109" xlink:href="#DejaVuSans-63"/>
     <use x="521.142578" xlink:href="#DejaVuSans-65"/>
     <use x="582.666016" xlink:href="#DejaVuSans-73"/>
    </g>
    <!-- absolute targets -->
    <g transform="translate(22.78 312.528437)scale(0.14 -0.14)">
     <defs>
      <path d="M 3116 1747 
Q 3116 2381 2855 2742 
Q 2594 3103 2138 3103 
Q 1681 3103 1420 2742 
Q 1159 2381 1159 1747 
Q 1159 1113 1420 752 
Q 1681 391 2138 391 
Q 2594 391 2855 752 
Q 3116 1113 3116 1747 
z
M 1159 2969 
Q 1341 3281 1617 3432 
Q 1894 3584 2278 3584 
Q 2916 3584 3314 3078 
Q 3713 2572 3713 1747 
Q 3713 922 3314 415 
Q 2916 -91 2278 -91 
Q 1894 -91 1617 61 
Q 1341 213 1159 525 
L 1159 0 
L 581 0 
L 581 4863 
L 1159 4863 
L 1159 2969 
z
" id="DejaVuSans-62" transform="scale(0.015625)"/>
      <path d="M 1959 3097 
Q 1497 3097 1228 2736 
Q 959 2375 959 1747 
Q 959 1119 1226 758 
Q 1494 397 1959 397 
Q 2419 397 2687 759 
Q 2956 1122 2956 1747 
Q 2956 2369 2687 2733 
Q 2419 3097 1959 3097 
z
M 1959 3584 
Q 2709 3584 3137 3096 
Q 3566 2609 3566 1747 
Q 3566 888 3137 398 
Q 2709 -91 1959 -91 
Q 1206 -91 779 398 
Q 353 888 353 1747 
Q 353 2609 779 3096 
Q 1206 3584 1959 3584 
z
" id="DejaVuSans-6f" transform="scale(0.015625)"/>
      <path d="M 603 4863 
L 1178 4863 
L 1178 0 
L 603 0 
L 603 4863 
z
" id="DejaVuSans-6c" transform="scale(0.015625)"/>
      <path d="M 544 1381 
L 544 3500 
L 1119 3500 
L 1119 1403 
Q 1119 906 1312 657 
Q 1506 409 1894 409 
Q 2359 409 2629 706 
Q 2900 1003 2900 1516 
L 2900 3500 
L 3475 3500 
L 3475 0 
L 2900 0 
L 2900 538 
Q 2691 219 2414 64 
Q 2138 -91 1772 -91 
Q 1169 -91 856 284 
Q 544 659 544 1381 
z
M 1991 3584 
L 1991 3584 
z
" id="DejaVuSans-75" transform="scale(0.015625)"/>
      <path d="M 2631 2963 
Q 2534 3019 2420 3045 
Q 2306 3072 2169 3072 
Q 1681 3072 1420 2755 
Q 1159 2438 1159 1844 
L 1159 0 
L 581 0 
L 581 3500 
L 1159 3500 
L 1159 2956 
Q 1341 3275 1631 3429 
Q 1922 3584 2338 3584 
Q 2397 3584 2469 3576 
Q 2541 3569 2628 3553 
L 2631 2963 
z
" id="DejaVuSans-72" transform="scale(0.015625)"/>
      <path d="M 2906 1791 
Q 2906 2416 2648 2759 
Q 2391 3103 1925 3103 
Q 1463 3103 1205 2759 
Q 947 2416 947 1791 
Q 947 1169 1205 825 
Q 1463 481 1925 481 
Q 2391 481 2648 825 
Q 2906 1169 2906 1791 
z
M 3481 434 
Q 3481 -459 3084 -895 
Q 2688 -1331 1869 -1331 
Q 1566 -1331 1297 -1286 
Q 1028 -1241 775 -1147 
L 775 -588 
Q 1028 -725 1275 -790 
Q 1522 -856 1778 -856 
Q 2344 -856 2625 -561 
Q 2906 -266 2906 331 
L 2906 616 
Q 2728 306 2450 153 
Q 2172 0 1784 0 
Q 1141 0 747 490 
Q 353 981 353 1791 
Q 353 2603 747 3093 
Q 1141 3584 1784 3584 
Q 2172 3584 2450 3431 
Q 2728 3278 2906 2969 
L 2906 3500 
L 3481 3500 
L 3481 434 
z
" id="DejaVuSans-67" transform="scale(0.015625)"/>
     </defs>
     <use xlink:href="#DejaVuSans-61"/>
     <use x="61.279297" xlink:href="#DejaVuSans-62"/>
     <use x="124.755859" xlink:href="#DejaVuSans-73"/>
     <use x="176.855469" xlink:href="#DejaVuSans-6f"/>
     <use x="238.037109" xlink:href="#DejaVuSans-6c"/>
     <use x="265.820312" xlink:href="#DejaVuSans-75"/>
     <use x="329.199219" xlink:href="#DejaVuSans-74"/>
     <use x="368.408203" xlink:href="#DejaVuSans-65"/>
     <use x="429.931641" xlink:href="#DejaVuSans-20"/>
     <use x="461.71875" xlink:href="#DejaVuSans-74"/>
     <use x="500.927734" xlink:href="#DejaVuSans-61"/>
     <use x="562.207031" xlink:href="#DejaVuSans-72"/>
     <use x="601.570312" xlink:href="#DejaVuSans-67"/>
     <use x="665.046875" xlink:href="#DejaVuSans-65"/>
     <use x="726.570312" xlink:href="#DejaVuSans-74"/>
     <use x="765.779297" xlink:href="#DejaVuSans-73"/>
    </g>
   </g>
   <g id="text_20">
    <!-- v2.4 -->
    <g style="fill:#808080;" transform="translate(227.075063 310.483113)scale(0.1 -0.1)">
     <defs>
      <path d="M 191 3500 
L 800 3500 
L 1894 563 
L 2988 3500 
L 3597 3500 
L 2284 0 
L 1503 0 
L 191 3500 
z
" id="DejaVuSans-76" transform="scale(0.015625)"/>
      <path d="M 684 794 
L 1344 794 
L 1344 0 
L 684 0 
L 684 794 
z
" id="DejaVuSans-2e" transform="scale(0.015625)"/>
     </defs>
     <use xlink:href="#DejaVuSans-76"/>
     <use x="59.179688" xlink:href="#DejaVuSans-32"/>
     <use x="122.802734" xlink:href="#DejaVuSans-2e"/>
     <use x="154.589844" xlink:href="#DejaVuSans-34"/>
    </g>
   </g>
   <g id="text_21">
    <!-- 18 Schaffer F7, condition 1000 -->
    <g transform="translate(53.146625 21.72)scale(0.24 -0.24)">
     <defs>
      <path d="M 2034 2216 
Q 1584 2216 1326 1975 
Q 1069 1734 1069 1313 
Q 1069 891 1326 650 
Q 1584 409 2034 409 
Q 2484 409 2743 651 
Q 3003 894 3003 1313 
Q 3003 1734 2745 1975 
Q 2488 2216 2034 2216 
z
M 1403 2484 
Q 997 2584 770 2862 
Q 544 3141 544 3541 
Q 544 4100 942 4425 
Q 1341 4750 2034 4750 
Q 2731 4750 3128 4425 
Q 3525 4100 3525 3541 
Q 3525 3141 3298 2862 
Q 3072 2584 2669 2484 
Q 3125 2378 3379 2068 
Q 3634 1759 3634 1313 
Q 3634 634 3220 271 
Q 2806 -91 2034 -91 
Q 1263 -91 848 271 
Q 434 634 434 1313 
Q 434 1759 690 2068 
Q 947 2378 1403 2484 
z
M 1172 3481 
Q 1172 3119 1398 2916 
Q 1625 2713 2034 2713 
Q 2441 2713 2670 2916 
Q 2900 3119 2900 3481 
Q 2900 3844 2670 4047 
Q 2441 4250 2034 4250 
Q 1625 4250 1398 4047 
Q 1172 3844 1172 3481 
z
" id="DejaVuSans-38" transform="scale(0.015625)"/>
      <path d="M 3425 4513 
L 3425 3897 
Q 3066 4069 2747 4153 
Q 2428 4238 2131 4238 
Q 1616 4238 1336 4038 
Q 1056 3838 1056 3469 
Q 1056 3159 1242 3001 
Q 1428 2844 1947 2747 
L 2328 2669 
Q 3034 2534 3370 2195 
Q 3706 1856 3706 1288 
Q 3706 609 3251 259 
Q 2797 -91 1919 -91 
Q 1588 -91 1214 -16 
Q 841 59 441 206 
L 441 856 
Q 825 641 1194 531 
Q 1563 422 1919 422 
Q 2459 422 2753 634 
Q 3047 847 3047 1241 
Q 3047 1584 2836 1778 
Q 2625 1972 2144 2069 
L 1759 2144 
Q 1053 2284 737 2584 
Q 422 2884 422 3419 
Q 422 4038 858 4394 
Q 1294 4750 2059 4750 
Q 2388 4750 2728 4690 
Q 3069 4631 3425 4513 
z
" id="DejaVuSans-53" transform="scale(0.015625)"/>
      <path d="M 3513 2113 
L 3513 0 
L 2938 0 
L 2938 2094 
Q 2938 2591 2744 2837 
Q 2550 3084 2163 3084 
Q 1697 3084 1428 2787 
Q 1159 2491 1159 1978 
L 1159 0 
L 581 0 
L 581 4863 
L 1159 4863 
L 1159 2956 
Q 1366 3272 1645 3428 
Q 1925 3584 2291 3584 
Q 2894 3584 3203 3211 
Q 3513 2838 3513 2113 
z
" id="DejaVuSans-68" transform="scale(0.015625)"/>
      <path d="M 2375 4863 
L 2375 4384 
L 1825 4384 
Q 1516 4384 1395 4259 
Q 1275 4134 1275 3809 
L 1275 3500 
L 2222 3500 
L 2222 3053 
L 1275 3053 
L 1275 0 
L 697 0 
L 697 3053 
L 147 3053 
L 147 3500 
L 697 3500 
L 697 3744 
Q 697 4328 969 4595 
Q 1241 4863 1831 4863 
L 2375 4863 
z
" id="DejaVuSans-66" transform="scale(0.015625)"/>
      <path d="M 628 4666 
L 3309 4666 
L 3309 4134 
L 1259 4134 
L 1259 2759 
L 3109 2759 
L 3109 2228 
L 1259 2228 
L 1259 0 
L 628 0 
L 628 4666 
z
" id="DejaVuSans-46" transform="scale(0.015625)"/>
      <path d="M 750 794 
L 1409 794 
L 1409 256 
L 897 -744 
L 494 -744 
L 750 256 
L 750 794 
z
" id="DejaVuSans-2c" transform="scale(0.015625)"/>
      <path d="M 2906 2969 
L 2906 4863 
L 3481 4863 
L 3481 0 
L 2906 0 
L 2906 525 
Q 2725 213 2448 61 
Q 2172 -91 1784 -91 
Q 1150 -91 751 415 
Q 353 922 353 1747 
Q 353 2572 751 3078 
Q 1150 3584 1784 3584 
Q 2172 3584 2448 3432 
Q 2725 3281 2906 2969 
z
M 947 1747 
Q 947 1113 1208 752 
Q 1469 391 1925 391 
Q 2381 391 2643 752 
Q 2906 1113 2906 1747 
Q 2906 2381 2643 2742 
Q 2381 3103 1925 3103 
Q 1469 3103 1208 2742 
Q 947 2381 947 1747 
z
" id="DejaVuSans-64" transform="scale(0.015625)"/>
     </defs>
     <use xlink:href="#DejaVuSans-31"/>
     <use x="63.623047" xlink:href="#DejaVuSans-38"/>
     <use x="127.246094" xlink:href="#DejaVuSans-20"/>
     <use x="159.033203" xlink:href="#DejaVuSans-53"/>
     <use x="222.509766" xlink:href="#DejaVuSans-63"/>
     <use x="277.490234" xlink:href="#DejaVuSans-68"/>
     <use x="340.869141" xlink:href="#DejaVuSans-61"/>
     <use x="402.148438" xlink:href="#DejaVuSans-66"/>
     <use x="437.353516" xlink:href="#DejaVuSans-66"/>
     <use x="472.558594" xlink:href="#DejaVuSans-65"/>
     <use x="534.082031" xlink:href="#DejaVuSans-72"/>
     <use x="575.195312" xlink:href="#DejaVuSans-20"/>
     <use x="606.982422" xlink:href="#DejaVuSans-46"/>
     <use x="664.501953" xlink:href="#DejaVuSans-37"/>
     <use x="728.125" xlink:href="#DejaVuSans-2c"/>
     <use x="759.912109" xlink:href="#DejaVuSans-20"/>
     <use x="791.699219" xlink:href="#DejaVuSans-63"/>
     <use x="846.679688" xlink:href="#DejaVuSans-6f"/>
     <use x="907.861328" xlink:href="#DejaVuSans-6e"/>
     <use x="971.240234" xlink:href="#DejaVuSans-64"/>
     <use x="1034.716797" xlink:href="#DejaVuSans-69"/>
     <use x="1062.5" xlink:href="#DejaVuSans-74"/>
     <use x="1101.708984" xlink:href="#DejaVuSans-69"/>
     <use x="1129.492188" xlink:href="#DejaVuSans-6f"/>
     <use x="1190.673828" xlink:href="#DejaVuSans-6e"/>
     <use x="1254.052734" xlink:href="#DejaVuSans-20"/>
     <use x="1285.839844" xlink:href="#DejaVuSans-31"/>
     <use x="1349.462891" xlink:href="#DejaVuSans-30"/>
     <use x="1413.085938" xlink:href="#DejaVuSans-30"/>
     <use x="1476.708984" xlink:href="#DejaVuSans-30"/>
    </g>
   </g>
  </g>
 </g>
 <defs>
  <clipPath id="p60a241e596">
   <rect height="287.72" width="430.412" x="22.78" y="27.72"/>
  </clipPath>
 </defs>
</svg>
