<?xml version="1.0" encoding="utf-8" standalone="no"?>
<!DOCTYPE svg PUBLIC "-//W3C//DTD SVG 1.1//EN"
  "http://www.w3.org/Graphics/SVG/1.1/DTD/svg11.dtd">
<svg height="345.6pt" version="1.1" viewBox="0 0 460.8 345.6" width="460.8pt" xmlns="http://www.w3.org/2000/svg" xmlns:xlink="http://www.w3.org/1999/xlink">
 <metadata>
  <rdf:RDF xmlns:cc="http://creativecommons.org/ns#" xmlns:dc="http://purl.org/dc/elements/1.1/" xmlns:rdf="http://www.w3.org/1999/02/22-rdf-syntax-ns#">
   <cc:Work>
    <dc:type rdf:resource="http://purl.org/dc/dcmitype/StillImage"/>
    <dc:date>2021-04-30T23:04:32.864056</dc:date>
    <dc:format>image/svg+xml</dc:format>
    <dc:creator>
     <cc:Agent>
      <dc:title>Matplotlib v3.4.1, https://matplotlib.org/</dc:title>
     </cc:Agent>
    </dc:creator>
   </cc:Work>
  </rdf:RDF>
 </metadata>
 <defs>
  <style type="text/css">*{stroke-linecap:butt;stroke-linejoin:round;}</style>
 </defs>
 <g id="figure_1">
  <g id="patch_1">
   <path d="M 0 345.6 
L 460.8 345.6 
L 460.8 0 
L 0 0 
z
" style="fill:#ffffff;"/>
  </g>
  <g id="axes_1">
   <g id="patch_2">
    <path d="M 57.6 298.944 
L 338.688 298.944 
L 338.688 3.456 
L 57.6 3.456 
z
" style="fill:#ffffff;"/>
   </g>
   <g id="matplotlib.axis_1">
    <g id="xtick_1">
     <g id="line2d_1">
      <path clip-path="url(#p8dd1b75e65)" d="M 57.6 298.944 
L 57.6 3.456 
" style="fill:none;stroke:#b0b0b0;stroke-linecap:square;stroke-width:0.8;"/>
     </g>
     <g id="line2d_2">
      <defs>
       <path d="M 0 0 
L 0 3.5 
" id="me65fdac29d" style="stroke:#000000;stroke-width:0.8;"/>
      </defs>
      <g>
       <use style="stroke:#000000;stroke-width:0.8;" x="57.6" xlink:href="#me65fdac29d" y="298.944"/>
      </g>
     </g>
     <g id="text_1">
      <!-- 0 -->
      <g transform="translate(51.2375 321.140875)scale(0.2 -0.2)">
       <defs>
        <path d="M 2034 4250 
Q 1547 4250 1301 3770 
Q 1056 3291 1056 2328 
Q 1056 1369 1301 889 
Q 1547 409 2034 409 
Q 2525 409 2770 889 
Q 3016 1369 3016 2328 
Q 3016 3291 2770 3770 
Q 2525 4250 2034 4250 
z
M 2034 4750 
Q 2819 4750 3233 4129 
Q 3647 3509 3647 2328 
Q 3647 1150 3233 529 
Q 2819 -91 2034 -91 
Q 1250 -91 836 529 
Q 422 1150 422 2328 
Q 422 3509 836 4129 
Q 1250 4750 2034 4750 
z
" id="DejaVuSans-30" transform="scale(0.015625)"/>
       </defs>
       <use xlink:href="#DejaVuSans-30"/>
      </g>
     </g>
    </g>
    <g id="xtick_2">
     <g id="line2d_3">
      <path clip-path="url(#p8dd1b75e65)" d="M 137.910857 298.944 
L 137.910857 3.456 
" style="fill:none;stroke:#b0b0b0;stroke-linecap:square;stroke-width:0.8;"/>
     </g>
     <g id="line2d_4">
      <g>
       <use style="stroke:#000000;stroke-width:0.8;" x="137.910857" xlink:href="#me65fdac29d" y="298.944"/>
      </g>
     </g>
     <g id="text_2">
      <!-- 2 -->
      <g transform="translate(131.548357 321.140875)scale(0.2 -0.2)">
       <defs>
        <path d="M 1228 531 
L 3431 531 
L 3431 0 
L 469 0 
L 469 531 
Q 828 903 1448 1529 
Q 2069 2156 2228 2338 
Q 2531 2678 2651 2914 
Q 2772 3150 2772 3378 
Q 2772 3750 2511 3984 
Q 2250 4219 1831 4219 
Q 1534 4219 1204 4116 
Q 875 4013 500 3803 
L 500 4441 
Q 881 4594 1212 4672 
Q 1544 4750 1819 4750 
Q 2544 4750 2975 4387 
Q 3406 4025 3406 3419 
Q 3406 3131 3298 2873 
Q 3191 2616 2906 2266 
Q 2828 2175 2409 1742 
Q 1991 1309 1228 531 
z
" id="DejaVuSans-32" transform="scale(0.015625)"/>
       </defs>
       <use xlink:href="#DejaVuSans-32"/>
      </g>
     </g>
    </g>
    <g id="xtick_3">
     <g id="line2d_5">
      <path clip-path="url(#p8dd1b75e65)" d="M 218.221714 298.944 
L 218.221714 3.456 
" style="fill:none;stroke:#b0b0b0;stroke-linecap:square;stroke-width:0.8;"/>
     </g>
     <g id="line2d_6">
      <g>
       <use style="stroke:#000000;stroke-width:0.8;" x="218.221714" xlink:href="#me65fdac29d" y="298.944"/>
      </g>
     </g>
     <g id="text_3">
      <!-- 4 -->
      <g transform="translate(211.859214 321.140875)scale(0.2 -0.2)">
       <defs>
        <path d="M 2419 4116 
L 825 1625 
L 2419 1625 
L 2419 4116 
z
M 2253 4666 
L 3047 4666 
L 3047 1625 
L 3713 1625 
L 3713 1100 
L 3047 1100 
L 3047 0 
L 2419 0 
L 2419 1100 
L 313 1100 
L 313 1709 
L 2253 4666 
z
" id="DejaVuSans-34" transform="scale(0.015625)"/>
       </defs>
       <use xlink:href="#DejaVuSans-34"/>
      </g>
     </g>
    </g>
    <g id="xtick_4">
     <g id="line2d_7">
      <path clip-path="url(#p8dd1b75e65)" d="M 298.532571 298.944 
L 298.532571 3.456 
" style="fill:none;stroke:#b0b0b0;stroke-linecap:square;stroke-width:0.8;"/>
     </g>
     <g id="line2d_8">
      <g>
       <use style="stroke:#000000;stroke-width:0.8;" x="298.532571" xlink:href="#me65fdac29d" y="298.944"/>
      </g>
     </g>
     <g id="text_4">
      <!-- 6 -->
      <g transform="translate(292.170071 321.140875)scale(0.2 -0.2)">
       <defs>
        <path d="M 2113 2584 
Q 1688 2584 1439 2293 
Q 1191 2003 1191 1497 
Q 1191 994 1439 701 
Q 1688 409 2113 409 
Q 2538 409 2786 701 
Q 3034 994 3034 1497 
Q 3034 2003 2786 2293 
Q 2538 2584 2113 2584 
z
M 3366 4563 
L 3366 3988 
Q 3128 4100 2886 4159 
Q 2644 4219 2406 4219 
Q 1781 4219 1451 3797 
Q 1122 3375 1075 2522 
Q 1259 2794 1537 2939 
Q 1816 3084 2150 3084 
Q 2853 3084 3261 2657 
Q 3669 2231 3669 1497 
Q 3669 778 3244 343 
Q 2819 -91 2113 -91 
Q 1303 -91 875 529 
Q 447 1150 447 2328 
Q 447 3434 972 4092 
Q 1497 4750 2381 4750 
Q 2619 4750 2861 4703 
Q 3103 4656 3366 4563 
z
" id="DejaVuSans-36" transform="scale(0.015625)"/>
       </defs>
       <use xlink:href="#DejaVuSans-36"/>
      </g>
     </g>
    </g>
    <g id="xtick_5">
     <g id="line2d_9">
      <path clip-path="url(#p8dd1b75e65)" d="M 97.755429 298.944 
L 97.755429 3.456 
" style="fill:none;stroke:#b0b0b0;stroke-linecap:square;stroke-width:0.8;"/>
     </g>
     <g id="line2d_10">
      <defs>
       <path d="M 0 0 
L 0 2 
" id="me3d99a0311" style="stroke:#000000;stroke-width:0.6;"/>
      </defs>
      <g>
       <use style="stroke:#000000;stroke-width:0.6;" x="97.755429" xlink:href="#me3d99a0311" y="298.944"/>
      </g>
     </g>
    </g>
    <g id="xtick_6">
     <g id="line2d_11">
      <path clip-path="url(#p8dd1b75e65)" d="M 178.066286 298.944 
L 178.066286 3.456 
" style="fill:none;stroke:#b0b0b0;stroke-linecap:square;stroke-width:0.8;"/>
     </g>
     <g id="line2d_12">
      <g>
       <use style="stroke:#000000;stroke-width:0.6;" x="178.066286" xlink:href="#me3d99a0311" y="298.944"/>
      </g>
     </g>
    </g>
    <g id="xtick_7">
     <g id="line2d_13">
      <path clip-path="url(#p8dd1b75e65)" d="M 258.377143 298.944 
L 258.377143 3.456 
" style="fill:none;stroke:#b0b0b0;stroke-linecap:square;stroke-width:0.8;"/>
     </g>
     <g id="line2d_14">
      <g>
       <use style="stroke:#000000;stroke-width:0.6;" x="258.377143" xlink:href="#me3d99a0311" y="298.944"/>
      </g>
     </g>
    </g>
    <g id="xtick_8">
     <g id="line2d_15">
      <path clip-path="url(#p8dd1b75e65)" d="M 338.688 298.944 
L 338.688 3.456 
" style="fill:none;stroke:#b0b0b0;stroke-linecap:square;stroke-width:0.8;"/>
     </g>
     <g id="line2d_16">
      <g>
       <use style="stroke:#000000;stroke-width:0.6;" x="338.688" xlink:href="#me3d99a0311" y="298.944"/>
      </g>
     </g>
    </g>
    <g id="text_5">
     <!-- log10(# f-evals / dimension) -->
     <g transform="translate(77.764078 342.217594)scale(0.17 -0.17)">
      <defs>
       <path d="M 603 4863 
L 1178 4863 
L 1178 0 
L 603 0 
L 603 4863 
z
" id="DejaVuSans-6c" transform="scale(0.015625)"/>
       <path d="M 1959 3097 
Q 1497 3097 1228 2736 
Q 959 2375 959 1747 
Q 959 1119 1226 758 
Q 1494 397 1959 397 
Q 2419 397 2687 759 
Q 2956 1122 2956 1747 
Q 2956 2369 2687 2733 
Q 2419 3097 1959 3097 
z
M 1959 3584 
Q 2709 3584 3137 3096 
Q 3566 2609 3566 1747 
Q 3566 888 3137 398 
Q 2709 -91 1959 -91 
Q 1206 -91 779 398 
Q 353 888 353 1747 
Q 353 2609 779 3096 
Q 1206 3584 1959 3584 
z
" id="DejaVuSans-6f" transform="scale(0.015625)"/>
       <path d="M 2906 1791 
Q 2906 2416 2648 2759 
Q 2391 3103 1925 3103 
Q 1463 3103 1205 2759 
Q 947 2416 947 1791 
Q 947 1169 1205 825 
Q 1463 481 1925 481 
Q 2391 481 2648 825 
Q 2906 1169 2906 1791 
z
M 3481 434 
Q 3481 -459 3084 -895 
Q 2688 -1331 1869 -1331 
Q 1566 -1331 1297 -1286 
Q 1028 -1241 775 -1147 
L 775 -588 
Q 1028 -725 1275 -790 
Q 1522 -856 1778 -856 
Q 2344 -856 2625 -561 
Q 2906 -266 2906 331 
L 2906 616 
Q 2728 306 2450 153 
Q 2172 0 1784 0 
Q 1141 0 747 490 
Q 353 981 353 1791 
Q 353 2603 747 3093 
Q 1141 3584 1784 3584 
Q 2172 3584 2450 3431 
Q 2728 3278 2906 2969 
L 2906 3500 
L 3481 3500 
L 3481 434 
z
" id="DejaVuSans-67" transform="scale(0.015625)"/>
       <path d="M 794 531 
L 1825 531 
L 1825 4091 
L 703 3866 
L 703 4441 
L 1819 4666 
L 2450 4666 
L 2450 531 
L 3481 531 
L 3481 0 
L 794 0 
L 794 531 
z
" id="DejaVuSans-31" transform="scale(0.015625)"/>
       <path d="M 1984 4856 
Q 1566 4138 1362 3434 
Q 1159 2731 1159 2009 
Q 1159 1288 1364 580 
Q 1569 -128 1984 -844 
L 1484 -844 
Q 1016 -109 783 600 
Q 550 1309 550 2009 
Q 550 2706 781 3412 
Q 1013 4119 1484 4856 
L 1984 4856 
z
" id="DejaVuSans-28" transform="scale(0.015625)"/>
       <path d="M 3272 2816 
L 2363 2816 
L 2100 1772 
L 3016 1772 
L 3272 2816 
z
M 2803 4594 
L 2478 3297 
L 3391 3297 
L 3719 4594 
L 4219 4594 
L 3897 3297 
L 4872 3297 
L 4872 2816 
L 3775 2816 
L 3519 1772 
L 4513 1772 
L 4513 1294 
L 3397 1294 
L 3072 0 
L 2572 0 
L 2894 1294 
L 1978 1294 
L 1656 0 
L 1153 0 
L 1478 1294 
L 494 1294 
L 494 1772 
L 1594 1772 
L 1856 2816 
L 850 2816 
L 850 3297 
L 1978 3297 
L 2297 4594 
L 2803 4594 
z
" id="DejaVuSans-23" transform="scale(0.015625)"/>
       <path id="DejaVuSans-20" transform="scale(0.015625)"/>
       <path d="M 2375 4863 
L 2375 4384 
L 1825 4384 
Q 1516 4384 1395 4259 
Q 1275 4134 1275 3809 
L 1275 3500 
L 2222 3500 
L 2222 3053 
L 1275 3053 
L 1275 0 
L 697 0 
L 697 3053 
L 147 3053 
L 147 3500 
L 697 3500 
L 697 3744 
Q 697 4328 969 4595 
Q 1241 4863 1831 4863 
L 2375 4863 
z
" id="DejaVuSans-66" transform="scale(0.015625)"/>
       <path d="M 313 2009 
L 1997 2009 
L 1997 1497 
L 313 1497 
L 313 2009 
z
" id="DejaVuSans-2d" transform="scale(0.015625)"/>
       <path d="M 3597 1894 
L 3597 1613 
L 953 1613 
Q 991 1019 1311 708 
Q 1631 397 2203 397 
Q 2534 397 2845 478 
Q 3156 559 3463 722 
L 3463 178 
Q 3153 47 2828 -22 
Q 2503 -91 2169 -91 
Q 1331 -91 842 396 
Q 353 884 353 1716 
Q 353 2575 817 3079 
Q 1281 3584 2069 3584 
Q 2775 3584 3186 3129 
Q 3597 2675 3597 1894 
z
M 3022 2063 
Q 3016 2534 2758 2815 
Q 2500 3097 2075 3097 
Q 1594 3097 1305 2825 
Q 1016 2553 972 2059 
L 3022 2063 
z
" id="DejaVuSans-65" transform="scale(0.015625)"/>
       <path d="M 191 3500 
L 800 3500 
L 1894 563 
L 2988 3500 
L 3597 3500 
L 2284 0 
L 1503 0 
L 191 3500 
z
" id="DejaVuSans-76" transform="scale(0.015625)"/>
       <path d="M 2194 1759 
Q 1497 1759 1228 1600 
Q 959 1441 959 1056 
Q 959 750 1161 570 
Q 1363 391 1709 391 
Q 2188 391 2477 730 
Q 2766 1069 2766 1631 
L 2766 1759 
L 2194 1759 
z
M 3341 1997 
L 3341 0 
L 2766 0 
L 2766 531 
Q 2569 213 2275 61 
Q 1981 -91 1556 -91 
Q 1019 -91 701 211 
Q 384 513 384 1019 
Q 384 1609 779 1909 
Q 1175 2209 1959 2209 
L 2766 2209 
L 2766 2266 
Q 2766 2663 2505 2880 
Q 2244 3097 1772 3097 
Q 1472 3097 1187 3025 
Q 903 2953 641 2809 
L 641 3341 
Q 956 3463 1253 3523 
Q 1550 3584 1831 3584 
Q 2591 3584 2966 3190 
Q 3341 2797 3341 1997 
z
" id="DejaVuSans-61" transform="scale(0.015625)"/>
       <path d="M 2834 3397 
L 2834 2853 
Q 2591 2978 2328 3040 
Q 2066 3103 1784 3103 
Q 1356 3103 1142 2972 
Q 928 2841 928 2578 
Q 928 2378 1081 2264 
Q 1234 2150 1697 2047 
L 1894 2003 
Q 2506 1872 2764 1633 
Q 3022 1394 3022 966 
Q 3022 478 2636 193 
Q 2250 -91 1575 -91 
Q 1294 -91 989 -36 
Q 684 19 347 128 
L 347 722 
Q 666 556 975 473 
Q 1284 391 1588 391 
Q 1994 391 2212 530 
Q 2431 669 2431 922 
Q 2431 1156 2273 1281 
Q 2116 1406 1581 1522 
L 1381 1569 
Q 847 1681 609 1914 
Q 372 2147 372 2553 
Q 372 3047 722 3315 
Q 1072 3584 1716 3584 
Q 2034 3584 2315 3537 
Q 2597 3491 2834 3397 
z
" id="DejaVuSans-73" transform="scale(0.015625)"/>
       <path d="M 1625 4666 
L 2156 4666 
L 531 -594 
L 0 -594 
L 1625 4666 
z
" id="DejaVuSans-2f" transform="scale(0.015625)"/>
       <path d="M 2906 2969 
L 2906 4863 
L 3481 4863 
L 3481 0 
L 2906 0 
L 2906 525 
Q 2725 213 2448 61 
Q 2172 -91 1784 -91 
Q 1150 -91 751 415 
Q 353 922 353 1747 
Q 353 2572 751 3078 
Q 1150 3584 1784 3584 
Q 2172 3584 2448 3432 
Q 2725 3281 2906 2969 
z
M 947 1747 
Q 947 1113 1208 752 
Q 1469 391 1925 391 
Q 2381 391 2643 752 
Q 2906 1113 2906 1747 
Q 2906 2381 2643 2742 
Q 2381 3103 1925 3103 
Q 1469 3103 1208 2742 
Q 947 2381 947 1747 
z
" id="DejaVuSans-64" transform="scale(0.015625)"/>
       <path d="M 603 3500 
L 1178 3500 
L 1178 0 
L 603 0 
L 603 3500 
z
M 603 4863 
L 1178 4863 
L 1178 4134 
L 603 4134 
L 603 4863 
z
" id="DejaVuSans-69" transform="scale(0.015625)"/>
       <path d="M 3328 2828 
Q 3544 3216 3844 3400 
Q 4144 3584 4550 3584 
Q 5097 3584 5394 3201 
Q 5691 2819 5691 2113 
L 5691 0 
L 5113 0 
L 5113 2094 
Q 5113 2597 4934 2840 
Q 4756 3084 4391 3084 
Q 3944 3084 3684 2787 
Q 3425 2491 3425 1978 
L 3425 0 
L 2847 0 
L 2847 2094 
Q 2847 2600 2669 2842 
Q 2491 3084 2119 3084 
Q 1678 3084 1418 2786 
Q 1159 2488 1159 1978 
L 1159 0 
L 581 0 
L 581 3500 
L 1159 3500 
L 1159 2956 
Q 1356 3278 1631 3431 
Q 1906 3584 2284 3584 
Q 2666 3584 2933 3390 
Q 3200 3197 3328 2828 
z
" id="DejaVuSans-6d" transform="scale(0.015625)"/>
       <path d="M 3513 2113 
L 3513 0 
L 2938 0 
L 2938 2094 
Q 2938 2591 2744 2837 
Q 2550 3084 2163 3084 
Q 1697 3084 1428 2787 
Q 1159 2491 1159 1978 
L 1159 0 
L 581 0 
L 581 3500 
L 1159 3500 
L 1159 2956 
Q 1366 3272 1645 3428 
Q 1925 3584 2291 3584 
Q 2894 3584 3203 3211 
Q 3513 2838 3513 2113 
z
" id="DejaVuSans-6e" transform="scale(0.015625)"/>
       <path d="M 513 4856 
L 1013 4856 
Q 1481 4119 1714 3412 
Q 1947 2706 1947 2009 
Q 1947 1309 1714 600 
Q 1481 -109 1013 -844 
L 513 -844 
Q 928 -128 1133 580 
Q 1338 1288 1338 2009 
Q 1338 2731 1133 3434 
Q 928 4138 513 4856 
z
" id="DejaVuSans-29" transform="scale(0.015625)"/>
      </defs>
      <use xlink:href="#DejaVuSans-6c"/>
      <use x="27.783203" xlink:href="#DejaVuSans-6f"/>
      <use x="88.964844" xlink:href="#DejaVuSans-67"/>
      <use x="152.441406" xlink:href="#DejaVuSans-31"/>
      <use x="216.064453" xlink:href="#DejaVuSans-30"/>
      <use x="279.6875" xlink:href="#DejaVuSans-28"/>
      <use x="318.701172" xlink:href="#DejaVuSans-23"/>
      <use x="402.490234" xlink:href="#DejaVuSans-20"/>
      <use x="434.277344" xlink:href="#DejaVuSans-66"/>
      <use x="463.982422" xlink:href="#DejaVuSans-2d"/>
      <use x="500.066406" xlink:href="#DejaVuSans-65"/>
      <use x="561.589844" xlink:href="#DejaVuSans-76"/>
      <use x="620.769531" xlink:href="#DejaVuSans-61"/>
      <use x="682.048828" xlink:href="#DejaVuSans-6c"/>
      <use x="709.832031" xlink:href="#DejaVuSans-73"/>
      <use x="761.931641" xlink:href="#DejaVuSans-20"/>
      <use x="793.71875" xlink:href="#DejaVuSans-2f"/>
      <use x="827.410156" xlink:href="#DejaVuSans-20"/>
      <use x="859.197266" xlink:href="#DejaVuSans-64"/>
      <use x="922.673828" xlink:href="#DejaVuSans-69"/>
      <use x="950.457031" xlink:href="#DejaVuSans-6d"/>
      <use x="1047.869141" xlink:href="#DejaVuSans-65"/>
      <use x="1109.392578" xlink:href="#DejaVuSans-6e"/>
      <use x="1172.771484" xlink:href="#DejaVuSans-73"/>
      <use x="1224.871094" xlink:href="#DejaVuSans-69"/>
      <use x="1252.654297" xlink:href="#DejaVuSans-6f"/>
      <use x="1313.835938" xlink:href="#DejaVuSans-6e"/>
      <use x="1377.214844" xlink:href="#DejaVuSans-29"/>
     </g>
    </g>
   </g>
   <g id="matplotlib.axis_2">
    <g id="ytick_1">
     <g id="line2d_17">
      <path clip-path="url(#p8dd1b75e65)" d="M 57.6 298.944 
L 338.688 298.944 
" style="fill:none;stroke:#b0b0b0;stroke-linecap:square;stroke-width:0.8;"/>
     </g>
     <g id="line2d_18">
      <defs>
       <path d="M 0 0 
L -3.5 0 
" id="m32c14bd57b" style="stroke:#000000;stroke-width:0.8;"/>
      </defs>
      <g>
       <use style="stroke:#000000;stroke-width:0.8;" x="57.6" xlink:href="#m32c14bd57b" y="298.944"/>
      </g>
     </g>
     <g id="text_6">
      <!-- 0.0 -->
      <g transform="translate(25.155 305.02275)scale(0.16 -0.16)">
       <defs>
        <path d="M 684 794 
L 1344 794 
L 1344 0 
L 684 0 
L 684 794 
z
" id="DejaVuSans-2e" transform="scale(0.015625)"/>
       </defs>
       <use xlink:href="#DejaVuSans-30"/>
       <use x="63.623047" xlink:href="#DejaVuSans-2e"/>
       <use x="95.410156" xlink:href="#DejaVuSans-30"/>
      </g>
     </g>
    </g>
    <g id="ytick_2">
     <g id="line2d_19">
      <path clip-path="url(#p8dd1b75e65)" d="M 57.6 240.431525 
L 338.688 240.431525 
" style="fill:none;stroke:#b0b0b0;stroke-linecap:square;stroke-width:0.8;"/>
     </g>
     <g id="line2d_20">
      <g>
       <use style="stroke:#000000;stroke-width:0.8;" x="57.6" xlink:href="#m32c14bd57b" y="240.431525"/>
      </g>
     </g>
     <g id="text_7">
      <!-- 0.2 -->
      <g transform="translate(25.155 246.510275)scale(0.16 -0.16)">
       <use xlink:href="#DejaVuSans-30"/>
       <use x="63.623047" xlink:href="#DejaVuSans-2e"/>
       <use x="95.410156" xlink:href="#DejaVuSans-32"/>
      </g>
     </g>
    </g>
    <g id="ytick_3">
     <g id="line2d_21">
      <path clip-path="url(#p8dd1b75e65)" d="M 57.6 181.91905 
L 338.688 181.91905 
" style="fill:none;stroke:#b0b0b0;stroke-linecap:square;stroke-width:0.8;"/>
     </g>
     <g id="line2d_22">
      <g>
       <use style="stroke:#000000;stroke-width:0.8;" x="57.6" xlink:href="#m32c14bd57b" y="181.91905"/>
      </g>
     </g>
     <g id="text_8">
      <!-- 0.4 -->
      <g transform="translate(25.155 187.9978)scale(0.16 -0.16)">
       <use xlink:href="#DejaVuSans-30"/>
       <use x="63.623047" xlink:href="#DejaVuSans-2e"/>
       <use x="95.410156" xlink:href="#DejaVuSans-34"/>
      </g>
     </g>
    </g>
    <g id="ytick_4">
     <g id="line2d_23">
      <path clip-path="url(#p8dd1b75e65)" d="M 57.6 123.406574 
L 338.688 123.406574 
" style="fill:none;stroke:#b0b0b0;stroke-linecap:square;stroke-width:0.8;"/>
     </g>
     <g id="line2d_24">
      <g>
       <use style="stroke:#000000;stroke-width:0.8;" x="57.6" xlink:href="#m32c14bd57b" y="123.406574"/>
      </g>
     </g>
     <g id="text_9">
      <!-- 0.6 -->
      <g transform="translate(25.155 129.485324)scale(0.16 -0.16)">
       <use xlink:href="#DejaVuSans-30"/>
       <use x="63.623047" xlink:href="#DejaVuSans-2e"/>
       <use x="95.410156" xlink:href="#DejaVuSans-36"/>
      </g>
     </g>
    </g>
    <g id="ytick_5">
     <g id="line2d_25">
      <path clip-path="url(#p8dd1b75e65)" d="M 57.6 64.894099 
L 338.688 64.894099 
" style="fill:none;stroke:#b0b0b0;stroke-linecap:square;stroke-width:0.8;"/>
     </g>
     <g id="line2d_26">
      <g>
       <use style="stroke:#000000;stroke-width:0.8;" x="57.6" xlink:href="#m32c14bd57b" y="64.894099"/>
      </g>
     </g>
     <g id="text_10">
      <!-- 0.8 -->
      <g transform="translate(25.155 70.972849)scale(0.16 -0.16)">
       <defs>
        <path d="M 2034 2216 
Q 1584 2216 1326 1975 
Q 1069 1734 1069 1313 
Q 1069 891 1326 650 
Q 1584 409 2034 409 
Q 2484 409 2743 651 
Q 3003 894 3003 1313 
Q 3003 1734 2745 1975 
Q 2488 2216 2034 2216 
z
M 1403 2484 
Q 997 2584 770 2862 
Q 544 3141 544 3541 
Q 544 4100 942 4425 
Q 1341 4750 2034 4750 
Q 2731 4750 3128 4425 
Q 3525 4100 3525 3541 
Q 3525 3141 3298 2862 
Q 3072 2584 2669 2484 
Q 3125 2378 3379 2068 
Q 3634 1759 3634 1313 
Q 3634 634 3220 271 
Q 2806 -91 2034 -91 
Q 1263 -91 848 271 
Q 434 634 434 1313 
Q 434 1759 690 2068 
Q 947 2378 1403 2484 
z
M 1172 3481 
Q 1172 3119 1398 2916 
Q 1625 2713 2034 2713 
Q 2441 2713 2670 2916 
Q 2900 3119 2900 3481 
Q 2900 3844 2670 4047 
Q 2441 4250 2034 4250 
Q 1625 4250 1398 4047 
Q 1172 3844 1172 3481 
z
" id="DejaVuSans-38" transform="scale(0.015625)"/>
       </defs>
       <use xlink:href="#DejaVuSans-30"/>
       <use x="63.623047" xlink:href="#DejaVuSans-2e"/>
       <use x="95.410156" xlink:href="#DejaVuSans-38"/>
      </g>
     </g>
    </g>
    <g id="ytick_6">
     <g id="line2d_27">
      <path clip-path="url(#p8dd1b75e65)" d="M 57.6 6.381624 
L 338.688 6.381624 
" style="fill:none;stroke:#b0b0b0;stroke-linecap:square;stroke-width:0.8;"/>
     </g>
     <g id="line2d_28">
      <g>
       <use style="stroke:#000000;stroke-width:0.8;" x="57.6" xlink:href="#m32c14bd57b" y="6.381624"/>
      </g>
     </g>
     <g id="text_11">
      <!-- 1.0 -->
      <g transform="translate(25.155 12.460374)scale(0.16 -0.16)">
       <use xlink:href="#DejaVuSans-31"/>
       <use x="63.623047" xlink:href="#DejaVuSans-2e"/>
       <use x="95.410156" xlink:href="#DejaVuSans-30"/>
      </g>
     </g>
    </g>
    <g id="text_12">
     <!-- Fraction of function,target pairs -->
     <g transform="translate(17.619531 285.585)rotate(-90)scale(0.17 -0.17)">
      <defs>
       <path d="M 628 4666 
L 3309 4666 
L 3309 4134 
L 1259 4134 
L 1259 2759 
L 3109 2759 
L 3109 2228 
L 1259 2228 
L 1259 0 
L 628 0 
L 628 4666 
z
" id="DejaVuSans-46" transform="scale(0.015625)"/>
       <path d="M 2631 2963 
Q 2534 3019 2420 3045 
Q 2306 3072 2169 3072 
Q 1681 3072 1420 2755 
Q 1159 2438 1159 1844 
L 1159 0 
L 581 0 
L 581 3500 
L 1159 3500 
L 1159 2956 
Q 1341 3275 1631 3429 
Q 1922 3584 2338 3584 
Q 2397 3584 2469 3576 
Q 2541 3569 2628 3553 
L 2631 2963 
z
" id="DejaVuSans-72" transform="scale(0.015625)"/>
       <path d="M 3122 3366 
L 3122 2828 
Q 2878 2963 2633 3030 
Q 2388 3097 2138 3097 
Q 1578 3097 1268 2742 
Q 959 2388 959 1747 
Q 959 1106 1268 751 
Q 1578 397 2138 397 
Q 2388 397 2633 464 
Q 2878 531 3122 666 
L 3122 134 
Q 2881 22 2623 -34 
Q 2366 -91 2075 -91 
Q 1284 -91 818 406 
Q 353 903 353 1747 
Q 353 2603 823 3093 
Q 1294 3584 2113 3584 
Q 2378 3584 2631 3529 
Q 2884 3475 3122 3366 
z
" id="DejaVuSans-63" transform="scale(0.015625)"/>
       <path d="M 1172 4494 
L 1172 3500 
L 2356 3500 
L 2356 3053 
L 1172 3053 
L 1172 1153 
Q 1172 725 1289 603 
Q 1406 481 1766 481 
L 2356 481 
L 2356 0 
L 1766 0 
Q 1100 0 847 248 
Q 594 497 594 1153 
L 594 3053 
L 172 3053 
L 172 3500 
L 594 3500 
L 594 4494 
L 1172 4494 
z
" id="DejaVuSans-74" transform="scale(0.015625)"/>
       <path d="M 544 1381 
L 544 3500 
L 1119 3500 
L 1119 1403 
Q 1119 906 1312 657 
Q 1506 409 1894 409 
Q 2359 409 2629 706 
Q 2900 1003 2900 1516 
L 2900 3500 
L 3475 3500 
L 3475 0 
L 2900 0 
L 2900 538 
Q 2691 219 2414 64 
Q 2138 -91 1772 -91 
Q 1169 -91 856 284 
Q 544 659 544 1381 
z
M 1991 3584 
L 1991 3584 
z
" id="DejaVuSans-75" transform="scale(0.015625)"/>
       <path d="M 750 794 
L 1409 794 
L 1409 256 
L 897 -744 
L 494 -744 
L 750 256 
L 750 794 
z
" id="DejaVuSans-2c" transform="scale(0.015625)"/>
       <path d="M 1159 525 
L 1159 -1331 
L 581 -1331 
L 581 3500 
L 1159 3500 
L 1159 2969 
Q 1341 3281 1617 3432 
Q 1894 3584 2278 3584 
Q 2916 3584 3314 3078 
Q 3713 2572 3713 1747 
Q 3713 922 3314 415 
Q 2916 -91 2278 -91 
Q 1894 -91 1617 61 
Q 1341 213 1159 525 
z
M 3116 1747 
Q 3116 2381 2855 2742 
Q 2594 3103 2138 3103 
Q 1681 3103 1420 2742 
Q 1159 2381 1159 1747 
Q 1159 1113 1420 752 
Q 1681 391 2138 391 
Q 2594 391 2855 752 
Q 3116 1113 3116 1747 
z
" id="DejaVuSans-70" transform="scale(0.015625)"/>
      </defs>
      <use xlink:href="#DejaVuSans-46"/>
      <use x="50.269531" xlink:href="#DejaVuSans-72"/>
      <use x="91.382812" xlink:href="#DejaVuSans-61"/>
      <use x="152.662109" xlink:href="#DejaVuSans-63"/>
      <use x="207.642578" xlink:href="#DejaVuSans-74"/>
      <use x="246.851562" xlink:href="#DejaVuSans-69"/>
      <use x="274.634766" xlink:href="#DejaVuSans-6f"/>
      <use x="335.816406" xlink:href="#DejaVuSans-6e"/>
      <use x="399.195312" xlink:href="#DejaVuSans-20"/>
      <use x="430.982422" xlink:href="#DejaVuSans-6f"/>
      <use x="492.164062" xlink:href="#DejaVuSans-66"/>
      <use x="527.369141" xlink:href="#DejaVuSans-20"/>
      <use x="559.15625" xlink:href="#DejaVuSans-66"/>
      <use x="594.361328" xlink:href="#DejaVuSans-75"/>
      <use x="657.740234" xlink:href="#DejaVuSans-6e"/>
      <use x="721.119141" xlink:href="#DejaVuSans-63"/>
      <use x="776.099609" xlink:href="#DejaVuSans-74"/>
      <use x="815.308594" xlink:href="#DejaVuSans-69"/>
      <use x="843.091797" xlink:href="#DejaVuSans-6f"/>
      <use x="904.273438" xlink:href="#DejaVuSans-6e"/>
      <use x="967.652344" xlink:href="#DejaVuSans-2c"/>
      <use x="999.439453" xlink:href="#DejaVuSans-74"/>
      <use x="1038.648438" xlink:href="#DejaVuSans-61"/>
      <use x="1099.927734" xlink:href="#DejaVuSans-72"/>
      <use x="1139.291016" xlink:href="#DejaVuSans-67"/>
      <use x="1202.767578" xlink:href="#DejaVuSans-65"/>
      <use x="1264.291016" xlink:href="#DejaVuSans-74"/>
      <use x="1303.5" xlink:href="#DejaVuSans-20"/>
      <use x="1335.287109" xlink:href="#DejaVuSans-70"/>
      <use x="1398.763672" xlink:href="#DejaVuSans-61"/>
      <use x="1460.042969" xlink:href="#DejaVuSans-69"/>
      <use x="1487.826172" xlink:href="#DejaVuSans-72"/>
      <use x="1528.939453" xlink:href="#DejaVuSans-73"/>
     </g>
    </g>
   </g>
   <g id="line2d_29">
    <defs>
     <path d="M 0 1.5 
C 0.397805 1.5 0.77937 1.341951 1.06066 1.06066 
C 1.341951 0.77937 1.5 0.397805 1.5 0 
C 1.5 -0.397805 1.341951 -0.77937 1.06066 -1.06066 
C 0.77937 -1.341951 0.397805 -1.5 0 -1.5 
C -0.397805 -1.5 -0.77937 -1.341951 -1.06066 -1.06066 
C -1.341951 -0.77937 -1.5 -0.397805 -1.5 0 
C -1.5 0.397805 -1.341951 0.77937 -1.06066 1.06066 
C -0.77937 1.341951 -0.397805 1.5 0 1.5 
z
" id="m475cfd8624" style="stroke:#000080;"/>
    </defs>
    <g>
     <use style="fill:#000080;stroke:#000080;" x="164.202782" xlink:href="#m475cfd8624" y="247.315345"/>
     <use style="fill:#000080;stroke:#000080;" x="164.202782" xlink:href="#m475cfd8624" y="247.315345"/>
    </g>
   </g>
   <g id="line2d_30">
    <path d="M 105.732589 298.944 
L 105.732589 295.50209 
L 119.751557 295.50209 
L 119.751557 294.928438 
L 124.062793 294.928438 
L 124.062793 292.060179 
L 124.101333 292.060179 
L 124.101333 289.191921 
L 124.254646 289.191921 
L 124.254646 285.176359 
L 124.594752 285.176359 
L 124.594752 284.602707 
L 124.669438 284.602707 
L 124.669438 282.881752 
L 124.817858 282.881752 
L 124.817858 280.587145 
L 125.927192 280.587145 
L 125.927192 279.439842 
L 127.54831 279.439842 
L 127.54831 275.997931 
L 127.705564 275.997931 
L 127.705564 271.408718 
L 127.861412 271.408718 
L 127.861412 269.687762 
L 127.892415 269.687762 
L 127.892415 267.393156 
L 128.138476 267.393156 
L 128.138476 264.524897 
L 129.06046 264.524897 
L 129.06046 263.951245 
L 129.204706 263.951245 
L 129.204706 263.377593 
L 129.714332 263.377593 
L 129.714332 259.935683 
L 130.558552 259.935683 
L 130.558552 259.362031 
L 131.814826 259.362031 
L 131.814826 258.214728 
L 132.206187 258.214728 
L 132.206187 257.067425 
L 133.101914 257.067425 
L 133.101914 256.493773 
L 134.062938 256.493773 
L 134.062938 255.920121 
L 134.171324 255.920121 
L 134.171324 254.199166 
L 134.870259 254.199166 
L 134.870259 253.625514 
L 137.016339 253.625514 
L 137.016339 253.051863 
L 148.61095 253.051863 
L 148.61095 252.478211 
L 153.559329 252.478211 
L 153.559329 251.904559 
L 154.008494 251.904559 
L 154.008494 251.330907 
L 154.029268 251.330907 
L 154.029268 250.757256 
L 154.601099 250.757256 
L 154.601099 250.183604 
L 156.634302 250.183604 
L 156.634302 249.609952 
L 157.403807 249.609952 
L 157.403807 249.036301 
L 157.820792 249.036301 
L 157.820792 248.462649 
L 160.788407 248.462649 
L 160.788407 247.888997 
L 164.202782 247.888997 
L 164.202782 247.315345 
L 338.688 247.315345 
" style="fill:none;stroke:#000080;stroke-linecap:square;stroke-width:1.5;"/>
   </g>
   <g id="line2d_31">
    <defs>
     <path d="M 0 6 
C 1.591219 6 3.117479 5.367802 4.242641 4.242641 
C 5.367802 3.117479 6 1.591219 6 0 
C 6 -1.591219 5.367802 -3.117479 4.242641 -4.242641 
C 3.117479 -5.367802 1.591219 -6 0 -6 
C -1.591219 -6 -3.117479 -5.367802 -4.242641 -4.242641 
C -5.367802 -3.117479 -6 -1.591219 -6 0 
C -6 1.591219 -5.367802 3.117479 -4.242641 4.242641 
C -3.117479 5.367802 -1.591219 6 0 6 
z
" id="m83e80ea814" style="stroke:#000080;stroke-width:1.5;"/>
    </defs>
    <g>
     <use style="fill-opacity:0;stroke:#000080;stroke-width:1.5;" x="124.101333" xlink:href="#m83e80ea814" y="292.060179"/>
     <use style="fill-opacity:0;stroke:#000080;stroke-width:1.5;" x="129.714332" xlink:href="#m83e80ea814" y="263.377593"/>
     <use style="fill-opacity:0;stroke:#000080;stroke-width:1.5;" x="164.202782" xlink:href="#m83e80ea814" y="247.888997"/>
     <use style="fill-opacity:0;stroke:#000080;stroke-width:1.5;" x="164.202782" xlink:href="#m83e80ea814" y="247.315345"/>
     <use style="fill-opacity:0;stroke:#000080;stroke-width:1.5;" x="338.688" xlink:href="#m83e80ea814" y="247.315345"/>
    </g>
   </g>
   <g id="line2d_32">
    <path style="fill:none;stroke:#000080;stroke-linecap:square;stroke-width:1.5;"/>
    <g/>
   </g>
   <g id="line2d_33">
    <path clip-path="url(#p8dd1b75e65)" d="M 165.978297 247.315345 
" style="fill:none;stroke:#000080;stroke-linecap:square;stroke-width:1.5;"/>
    <defs>
     <path d="M -12 12 
L 12 -12 
M -12 -12 
L 12 12 
" id="m1c00f60a08" style="stroke:#000080;"/>
    </defs>
    <g clip-path="url(#p8dd1b75e65)">
     <use style="fill:#000080;stroke:#000080;" x="165.978297" xlink:href="#m1c00f60a08" y="247.315345"/>
    </g>
   </g>
   <g id="line2d_34">
    <defs>
     <path d="M 0 1.5 
C 0.397805 1.5 0.77937 1.341951 1.06066 1.06066 
C 1.341951 0.77937 1.5 0.397805 1.5 0 
C 1.5 -0.397805 1.341951 -0.77937 1.06066 -1.06066 
C 0.77937 -1.341951 0.397805 -1.5 0 -1.5 
C -0.397805 -1.5 -0.77937 -1.341951 -1.06066 -1.06066 
C -1.341951 -0.77937 -1.5 -0.397805 -1.5 0 
C -1.5 0.397805 -1.341951 0.77937 -1.06066 1.06066 
C -0.77937 1.341951 -0.397805 1.5 0 1.5 
z
" id="m111fac4f60" style="stroke:#ff00ff;"/>
    </defs>
    <g>
     <use style="fill:#ff00ff;stroke:#ff00ff;" x="230.292342" xlink:href="#m111fac4f60" y="23.591175"/>
     <use style="fill:#ff00ff;stroke:#ff00ff;" x="230.292342" xlink:href="#m111fac4f60" y="23.591175"/>
    </g>
   </g>
   <g id="line2d_35">
    <path d="M 17.444571 298.944 
L 17.444571 292.633831 
L 29.53256 292.633831 
L 29.53256 292.060179 
L 41.620548 292.060179 
L 41.620548 291.486528 
L 57.6 291.486528 
L 57.6 290.912876 
L 72.867545 290.912876 
L 72.867545 290.339224 
L 82.626842 290.339224 
L 82.626842 289.191921 
L 86.012784 289.191921 
L 86.012784 288.044617 
L 86.351421 288.044617 
L 86.351421 287.470966 
L 87.009585 287.470966 
L 87.009585 286.897314 
L 102.464508 286.897314 
L 102.464508 286.323662 
L 104.942325 286.323662 
L 104.942325 285.75001 
L 105.732589 285.75001 
L 105.732589 285.176359 
L 107.009204 285.176359 
L 107.009204 284.029055 
L 107.514726 284.029055 
L 107.514726 283.455404 
L 110.016944 283.455404 
L 110.016944 282.881752 
L 116.202531 282.881752 
L 116.202531 282.3081 
L 117.030313 282.3081 
L 117.030313 281.734448 
L 124.024168 281.734448 
L 124.024168 281.160797 
L 126.202373 281.160797 
L 126.202373 280.587145 
L 126.372183 280.587145 
L 126.372183 280.013493 
L 126.773103 280.013493 
L 126.773103 279.439842 
L 129.031467 279.439842 
L 129.089405 277.145235 
L 131.414481 277.145235 
L 131.414481 276.571583 
L 134.257551 276.571583 
L 134.257551 275.997931 
L 135.117629 275.997931 
L 135.117629 275.42428 
L 135.240011 275.42428 
L 135.240011 274.850628 
L 136.13148 274.850628 
L 136.170062 273.129673 
L 137.997836 273.129673 
L 137.997836 272.556021 
L 140.708409 272.556021 
L 140.708409 271.408718 
L 141.133958 271.408718 
L 141.133958 270.835066 
L 141.392962 270.835066 
L 141.392962 270.261414 
L 141.913576 270.261414 
L 141.913576 269.114111 
L 143.170282 269.114111 
L 143.273169 267.393156 
L 143.791143 267.393156 
L 143.791143 266.819504 
L 144.474645 266.819504 
L 144.474645 265.098549 
L 146.129168 265.098549 
L 146.129168 264.524897 
L 146.420639 264.524897 
L 146.420639 263.951245 
L 146.749392 263.951245 
L 146.749392 262.803942 
L 147.185137 262.803942 
L 147.266916 261.656638 
L 147.297484 261.656638 
L 147.297484 261.082987 
L 147.680117 261.082987 
L 147.680117 260.509335 
L 148.17112 260.509335 
L 148.17112 259.362031 
L 148.430623 259.362031 
L 148.430623 258.78838 
L 148.752007 258.78838 
L 148.752007 258.214728 
L 149.566262 258.214728 
L 149.566262 257.641076 
L 149.946449 257.641076 
L 150.033689 256.493773 
L 150.437972 256.493773 
L 150.437972 255.920121 
L 151.284383 255.920121 
L 151.284383 255.346469 
L 151.676833 255.346469 
L 151.676833 254.772818 
L 151.803091 254.772818 
L 151.803091 254.199166 
L 152.060646 254.199166 
L 152.068392 253.051863 
L 152.474064 253.051863 
L 152.474064 252.478211 
L 152.662192 252.478211 
L 152.751777 251.330907 
L 152.900071 251.330907 
L 152.981099 249.609952 
L 153.221946 249.609952 
L 153.221946 249.036301 
L 153.601933 249.036301 
L 153.601933 248.462649 
L 154.587699 248.462649 
L 154.641235 246.168042 
L 154.952482 246.168042 
L 154.952482 245.59439 
L 155.219531 245.59439 
L 155.219531 245.020738 
L 155.514359 245.020738 
L 155.596784 242.726132 
L 156.120189 242.726132 
L 156.120189 242.15248 
L 156.496678 242.15248 
L 156.532685 239.284221 
L 156.794487 239.284221 
L 156.794487 238.71057 
L 156.941506 238.71057 
L 156.941506 238.136918 
L 157.081488 238.136918 
L 157.133693 236.415963 
L 157.477787 236.415963 
L 157.477787 235.842311 
L 157.686643 235.842311 
L 157.686643 235.268659 
L 158.014595 235.268659 
L 158.053098 234.121356 
L 158.206267 234.121356 
L 158.217157 232.974052 
L 158.742573 232.974052 
L 158.742573 232.400401 
L 159.262876 232.400401 
L 159.278248 230.679446 
L 159.592935 230.679446 
L 159.592935 229.532142 
L 159.887213 229.532142 
L 159.916863 228.384839 
L 160.064363 228.384839 
L 160.064363 227.811187 
L 160.297798 227.811187 
L 160.297798 227.237535 
L 160.494745 227.237535 
L 160.494745 226.663884 
L 160.764907 226.663884 
L 160.793103 224.942928 
L 160.965979 224.942928 
L 161.06334 223.221973 
L 161.118732 223.221973 
L 161.118732 222.648321 
L 161.233571 222.648321 
L 161.233571 222.07467 
L 161.442917 222.07467 
L 161.524156 218.632759 
L 161.738962 218.632759 
L 161.738962 218.059108 
L 162.130378 218.059108 
L 162.130378 216.911804 
L 162.320689 216.911804 
L 162.397949 214.617197 
L 162.829407 214.617197 
L 162.829407 213.469894 
L 162.991595 213.469894 
L 162.991595 212.896242 
L 163.217788 212.896242 
L 163.217788 212.322591 
L 163.577708 212.322591 
L 163.601707 210.027984 
L 163.780654 210.027984 
L 163.780654 208.307029 
L 163.94995 208.307029 
L 163.973442 206.586073 
L 164.348911 206.586073 
L 164.364222 205.43877 
L 164.527973 205.43877 
L 164.527973 204.865118 
L 164.716466 204.865118 
L 164.727712 203.144163 
L 164.902945 203.144163 
L 164.902945 202.570511 
L 165.083779 202.570511 
L 165.171671 197.981298 
L 165.255488 197.981298 
L 165.255488 197.407646 
L 165.43632 197.407646 
L 165.457894 196.260342 
L 165.629535 196.260342 
L 165.629535 195.686691 
L 165.810071 195.686691 
L 165.810071 194.539387 
L 171.972728 194.539387 
L 171.972728 193.965736 
L 172.491742 193.965736 
L 172.491742 192.818432 
L 172.678005 192.818432 
L 172.678005 190.523825 
L 172.819942 190.523825 
L 172.819942 189.950174 
L 173.303236 189.950174 
L 173.410611 188.229218 
L 173.503742 188.229218 
L 173.515065 185.36096 
L 173.636893 185.36096 
L 173.636893 184.213656 
L 174.289977 184.213656 
L 174.289977 183.066353 
L 174.53512 183.066353 
L 174.609697 181.345398 
L 174.821034 181.345398 
L 174.846223 180.198094 
L 175.036065 180.198094 
L 175.036065 179.624443 
L 175.164235 179.624443 
L 175.164235 178.477139 
L 175.358815 178.477139 
L 175.358815 177.903487 
L 175.545203 177.903487 
L 175.653684 176.756184 
L 175.665696 176.756184 
L 175.749548 175.035229 
L 175.85479 175.035229 
L 175.94562 173.887925 
L 175.981034 173.887925 
L 176.053603 171.019667 
L 176.139511 171.019667 
L 176.24824 168.72506 
L 176.333197 168.72506 
L 176.367833 167.004105 
L 176.562816 167.004105 
L 176.636795 165.28315 
L 176.836297 165.28315 
L 176.918444 163.562195 
L 177.002059 163.562195 
L 177.081585 161.267588 
L 177.173603 161.267588 
L 177.277915 157.252026 
L 177.44678 157.252026 
L 177.452201 155.53107 
L 177.624761 155.53107 
L 177.708626 152.662812 
L 177.808025 152.662812 
L 177.808025 152.08916 
L 177.982376 152.08916 
L 177.982376 151.515508 
L 181.606852 151.515508 
L 181.606852 150.941857 
L 181.735911 150.941857 
L 181.764149 149.220902 
L 182.312664 149.220902 
L 182.312664 148.073598 
L 182.644413 148.073598 
L 182.692632 146.352643 
L 182.864331 146.352643 
L 182.910626 144.631688 
L 183.441416 144.631688 
L 183.497705 141.189778 
L 183.566539 141.189778 
L 183.64777 137.747867 
L 183.752557 137.747867 
L 183.815378 135.45326 
L 183.946572 135.45326 
L 184.023578 133.732305 
L 184.197448 133.732305 
L 184.197448 132.585002 
L 184.313624 132.585002 
L 184.373246 130.290395 
L 184.487054 130.290395 
L 184.54729 129.143091 
L 184.615705 129.143091 
L 184.615705 127.995788 
L 184.729137 127.995788 
L 184.786171 126.274833 
L 184.899683 126.274833 
L 184.899683 125.701181 
L 185.021825 125.701181 
L 185.081411 123.980226 
L 187.667416 123.980226 
L 187.667416 123.406574 
L 188.079829 123.406574 
L 188.162131 122.259271 
L 188.228474 122.259271 
L 188.228474 121.685619 
L 188.385516 121.685619 
L 188.385516 121.111967 
L 188.702054 121.111967 
L 188.763545 118.817361 
L 188.898067 118.817361 
L 188.989661 116.522754 
L 189.029699 116.522754 
L 189.029699 114.801798 
L 189.142797 114.801798 
L 189.217483 113.080843 
L 189.26618 113.080843 
L 189.30925 111.359888 
L 189.407819 111.359888 
L 189.418736 110.212585 
L 189.550122 110.212585 
L 189.630277 106.770674 
L 189.668873 106.770674 
L 189.674252 105.049719 
L 189.806402 105.049719 
L 189.806402 104.476068 
L 190.067735 104.476068 
L 190.11237 103.328764 
L 192.132202 103.328764 
L 192.132202 102.755112 
L 192.287205 102.755112 
L 192.287205 102.181461 
L 192.522486 102.181461 
L 192.522486 101.607809 
L 192.893797 101.607809 
L 192.942168 100.460506 
L 193.341096 100.460506 
L 193.341096 99.886854 
L 193.45981 99.886854 
L 193.564101 97.592247 
L 193.627807 97.592247 
L 193.627807 97.018595 
L 193.765161 97.018595 
L 193.876103 95.29764 
L 193.903552 95.29764 
L 194.012222 92.429381 
L 195.607393 92.429381 
L 195.607393 91.282078 
L 195.870099 91.282078 
L 195.870099 90.708426 
L 196.028958 90.708426 
L 196.028958 90.134775 
L 196.148705 90.134775 
L 196.148705 89.561123 
L 196.397956 89.561123 
L 196.45759 87.840168 
L 196.518837 87.840168 
L 196.557536 86.692864 
L 196.640088 86.692864 
L 196.731224 84.971909 
L 196.761696 84.971909 
L 196.851012 83.824606 
L 196.903199 83.824606 
L 196.991796 79.809044 
L 197.084047 79.809044 
L 197.139632 76.367133 
L 198.758544 76.367133 
L 198.758544 75.21983 
L 198.893247 75.21983 
L 198.993859 74.072526 
L 199.413178 74.072526 
L 199.413178 73.498875 
L 199.593252 73.498875 
L 199.689917 71.77792 
L 199.792572 71.77792 
L 199.889638 69.483313 
L 201.669676 69.483313 
L 201.780157 67.762358 
L 201.832904 67.762358 
L 201.832904 67.188706 
L 202.001251 67.188706 
L 202.111414 65.467751 
L 202.153533 65.467751 
L 202.221323 64.320447 
L 203.259253 64.320447 
L 203.259253 63.746796 
L 203.630368 63.746796 
L 203.630368 63.173144 
L 203.864724 63.173144 
L 203.925793 60.304885 
L 204.047688 60.304885 
L 204.065368 58.58393 
L 204.202276 58.58393 
L 204.277702 55.715672 
L 205.65675 55.715672 
L 205.749344 53.994716 
L 205.784964 53.994716 
L 205.784964 53.421065 
L 205.908002 53.421065 
L 205.994002 51.126458 
L 207.069752 51.126458 
L 207.069752 50.552806 
L 207.28265 50.552806 
L 207.324072 48.831851 
L 207.493302 48.831851 
L 207.493302 48.258199 
L 207.668892 48.258199 
L 207.764448 45.389941 
L 208.541326 45.389941 
L 208.648846 44.242637 
L 208.993556 44.242637 
L 208.993556 43.668985 
L 209.127146 43.668985 
L 209.127146 43.095334 
L 209.268756 43.095334 
L 209.299326 41.94803 
L 210.537422 41.94803 
L 210.644121 39.079772 
L 210.696287 39.079772 
L 210.696287 38.50612 
L 211.764273 38.50612 
L 211.853446 36.785165 
L 211.941165 36.785165 
L 211.951912 35.06421 
L 213.146518 35.06421 
L 213.158412 33.916906 
L 214.190835 33.916906 
L 214.190835 33.343255 
L 216.277597 33.343255 
L 216.3457 32.195951 
L 217.226123 32.195951 
L 217.282715 31.048648 
L 218.186976 31.048648 
L 218.213341 29.901344 
L 218.914748 29.901344 
L 218.914748 29.327692 
L 220.384249 29.327692 
L 220.384249 28.754041 
L 220.651782 28.754041 
L 220.651782 28.180389 
L 221.343189 28.180389 
L 221.343189 27.606737 
L 222.66979 27.606737 
L 222.66979 27.033086 
L 223.37868 27.033086 
L 223.37868 26.459434 
L 224.587367 26.459434 
L 224.587367 25.885782 
L 225.287153 25.885782 
L 225.287153 25.31213 
L 226.396536 25.31213 
L 226.396536 24.738479 
L 227.455063 24.738479 
L 227.455063 24.164827 
L 230.292342 24.164827 
L 230.292342 23.591175 
L 338.688 23.591175 
L 338.688 23.591175 
" style="fill:none;stroke:#ff00ff;stroke-linecap:square;stroke-width:1.5;"/>
   </g>
   <g id="line2d_36">
    <defs>
     <path d="M 0 8.485281 
L 5.091169 0 
L 0 -8.485281 
L -5.091169 0 
z
" id="m2e4d7aed51" style="stroke:#ff00ff;stroke-linejoin:miter;stroke-width:1.5;"/>
    </defs>
    <g>
     <use style="fill-opacity:0;stroke:#ff00ff;stroke-linejoin:miter;stroke-width:1.5;" x="140.708409" xlink:href="#m2e4d7aed51" y="272.556021"/>
     <use style="fill-opacity:0;stroke:#ff00ff;stroke-linejoin:miter;stroke-width:1.5;" x="177.270615" xlink:href="#m2e4d7aed51" y="159.546632"/>
     <use style="fill-opacity:0;stroke:#ff00ff;stroke-linejoin:miter;stroke-width:1.5;" x="211.853446" xlink:href="#m2e4d7aed51" y="37.932468"/>
     <use style="fill-opacity:0;stroke:#ff00ff;stroke-linejoin:miter;stroke-width:1.5;" x="230.292342" xlink:href="#m2e4d7aed51" y="23.591175"/>
     <use style="fill-opacity:0;stroke:#ff00ff;stroke-linejoin:miter;stroke-width:1.5;" x="230.292342" xlink:href="#m2e4d7aed51" y="23.591175"/>
     <use style="fill-opacity:0;stroke:#ff00ff;stroke-linejoin:miter;stroke-width:1.5;" x="338.688" xlink:href="#m2e4d7aed51" y="23.591175"/>
    </g>
   </g>
   <g id="line2d_37">
    <path style="fill:none;stroke:#ff00ff;stroke-linecap:square;stroke-width:1.5;"/>
    <g/>
   </g>
   <g id="line2d_38">
    <path clip-path="url(#p8dd1b75e65)" d="M 165.978297 194.539387 
" style="fill:none;stroke:#ff00ff;stroke-linecap:square;stroke-width:1.5;"/>
    <defs>
     <path d="M -12 12 
L 12 -12 
M -12 -12 
L 12 12 
" id="mdd790a54dd" style="stroke:#ff00ff;"/>
    </defs>
    <g clip-path="url(#p8dd1b75e65)">
     <use style="fill:#ff00ff;stroke:#ff00ff;" x="165.978297" xlink:href="#mdd790a54dd" y="194.539387"/>
    </g>
   </g>
   <g id="line2d_39">
    <defs>
     <path d="M 0 1.5 
C 0.397805 1.5 0.77937 1.341951 1.06066 1.06066 
C 1.341951 0.77937 1.5 0.397805 1.5 0 
C 1.5 -0.397805 1.341951 -0.77937 1.06066 -1.06066 
C 0.77937 -1.341951 0.397805 -1.5 0 -1.5 
C -0.397805 -1.5 -0.77937 -1.341951 -1.06066 -1.06066 
C -1.341951 -0.77937 -1.5 -0.397805 -1.5 0 
C -1.5 0.397805 -1.341951 0.77937 -1.06066 1.06066 
C -0.77937 1.341951 -0.397805 1.5 0 1.5 
z
" id="m54c6ca0fa3" style="stroke:#ff7500;"/>
    </defs>
    <g>
     <use style="fill:#ff7500;stroke:#ff7500;" x="229.830666" xlink:href="#m54c6ca0fa3" y="212.896242"/>
     <use style="fill:#ff7500;stroke:#ff7500;" x="229.830666" xlink:href="#m54c6ca0fa3" y="212.896242"/>
    </g>
   </g>
   <g id="line2d_40">
    <path d="M 17.444571 298.944 
L 17.444571 293.207483 
L 66.853775 293.207483 
L 66.853775 292.633831 
L 79.938565 292.633831 
L 79.938565 292.060179 
L 88.255778 292.060179 
L 88.255778 291.486528 
L 98.270913 291.486528 
L 98.270913 290.912876 
L 102.597126 290.912876 
L 102.597126 290.339224 
L 110.274038 290.339224 
L 110.274038 289.765573 
L 115.835374 289.765573 
L 115.835374 289.191921 
L 124.024168 289.191921 
L 124.024168 287.470966 
L 124.292765 287.470966 
L 124.292765 286.897314 
L 124.706662 286.897314 
L 124.706662 285.75001 
L 125.541584 285.75001 
L 125.541584 285.176359 
L 126.50685 285.176359 
L 126.50685 284.602707 
L 127.325746 284.602707 
L 127.325746 284.029055 
L 130.425122 284.029055 
L 130.425122 283.455404 
L 130.585116 283.455404 
L 130.638123 282.3081 
L 131.490249 282.3081 
L 131.490249 281.734448 
L 131.938072 281.734448 
L 131.938072 281.160797 
L 132.446401 281.160797 
L 132.446401 280.587145 
L 133.19358 280.587145 
L 133.19358 280.013493 
L 134.04118 280.013493 
L 134.149701 278.86619 
L 136.092812 278.86619 
L 136.092812 278.292538 
L 137.107884 278.292538 
L 137.107884 277.718886 
L 138.324456 277.718886 
L 138.324456 277.145235 
L 139.636299 277.145235 
L 139.636299 276.571583 
L 140.454035 276.571583 
L 140.454035 275.997931 
L 140.678675 275.997931 
L 140.678675 275.42428 
L 141.090414 275.42428 
L 141.090414 274.850628 
L 141.648175 274.850628 
L 141.648175 274.276976 
L 141.858037 274.276976 
L 141.858037 273.129673 
L 142.07914 273.129673 
L 142.07914 272.556021 
L 143.540394 272.556021 
L 143.540394 271.982369 
L 143.816021 271.982369 
L 143.816021 271.408718 
L 143.927534 271.408718 
L 143.989178 269.687762 
L 144.099593 269.687762 
L 144.099593 269.114111 
L 144.402681 269.114111 
L 144.402681 268.540459 
L 145.304409 268.540459 
L 145.304409 267.966807 
L 146.140051 267.966807 
L 146.140051 267.393156 
L 147.570215 267.393156 
L 147.570215 266.819504 
L 147.70997 266.819504 
L 147.70997 266.245852 
L 147.848613 266.245852 
L 147.848613 265.6722 
L 148.658095 265.6722 
L 148.695721 264.524897 
L 149.566262 264.524897 
L 149.60198 263.377593 
L 150.505862 263.377593 
L 150.505862 262.803942 
L 150.799813 262.803942 
L 150.899466 261.656638 
L 150.924291 261.656638 
L 150.924291 261.082987 
L 151.692666 261.082987 
L 151.692666 260.509335 
L 152.594699 260.509335 
L 152.594699 259.935683 
L 152.981099 259.935683 
L 152.981099 259.362031 
L 153.200188 259.362031 
L 153.200188 258.78838 
L 154.262987 258.78838 
L 154.262987 257.641076 
L 154.674612 257.641076 
L 154.674612 257.067425 
L 156.193695 257.067425 
L 156.193695 256.493773 
L 157.714676 256.493773 
L 157.714676 255.920121 
L 159.025463 255.920121 
L 159.025463 255.346469 
L 159.817832 255.346469 
L 159.817832 254.772818 
L 160.594766 254.772818 
L 160.594766 254.199166 
L 163.89501 254.199166 
L 163.89501 253.625514 
L 164.452001 253.625514 
L 164.452001 252.478211 
L 164.780093 252.478211 
L 164.780093 251.904559 
L 169.880918 251.904559 
L 169.880918 251.330907 
L 170.23151 251.330907 
L 170.316028 249.609952 
L 170.354063 249.609952 
L 170.354063 249.036301 
L 171.129034 249.036301 
L 171.129034 248.462649 
L 171.473461 248.462649 
L 171.473461 247.888997 
L 171.673377 247.888997 
L 171.73366 246.741694 
L 172.115593 246.741694 
L 172.115593 246.168042 
L 173.851395 246.168042 
L 173.851395 245.59439 
L 174.067679 245.59439 
L 174.067679 245.020738 
L 174.419429 245.020738 
L 174.419429 243.873435 
L 175.256675 243.873435 
L 175.256675 242.15248 
L 177.055732 242.15248 
L 177.055732 241.578828 
L 180.369672 241.578828 
L 180.369672 241.005176 
L 180.546043 241.005176 
L 180.546043 240.431525 
L 181.399213 240.431525 
L 181.399213 239.857873 
L 181.539819 239.857873 
L 181.539819 239.284221 
L 181.765559 239.284221 
L 181.765559 238.71057 
L 182.106394 238.71057 
L 182.106394 238.136918 
L 182.575873 238.136918 
L 182.575873 236.989614 
L 184.746981 236.989614 
L 184.746981 236.415963 
L 186.047861 236.415963 
L 186.047861 235.842311 
L 188.426 235.842311 
L 188.426 235.268659 
L 188.805989 235.268659 
L 188.805989 234.121356 
L 192.291063 234.121356 
L 192.291063 233.547704 
L 193.750978 233.547704 
L 193.750978 232.974052 
L 195.627154 232.974052 
L 195.627154 232.400401 
L 196.338117 232.400401 
L 196.338117 231.826749 
L 197.031224 231.826749 
L 197.031224 230.679446 
L 198.552901 230.679446 
L 198.552901 230.105794 
L 199.703538 230.105794 
L 199.703538 229.532142 
L 201.057596 229.532142 
L 201.057596 228.95849 
L 201.581147 228.95849 
L 201.581147 228.384839 
L 202.058623 228.384839 
L 202.096913 227.237535 
L 203.709906 227.237535 
L 203.709906 226.090232 
L 207.317555 226.090232 
L 207.317555 224.942928 
L 207.662503 224.942928 
L 207.662503 224.369277 
L 210.305304 224.369277 
L 210.305304 223.795625 
L 210.59639 223.795625 
L 210.59639 223.221973 
L 211.896859 223.221973 
L 211.896859 222.07467 
L 213.107045 222.07467 
L 213.107045 221.501018 
L 214.238673 221.501018 
L 214.238673 220.927366 
L 215.301323 220.927366 
L 215.301323 220.353715 
L 216.302924 220.353715 
L 216.302924 219.780063 
L 217.266144 219.780063 
L 217.266144 219.206411 
L 218.14849 219.206411 
L 218.14849 218.632759 
L 219.002849 218.632759 
L 219.017351 216.911804 
L 221.340272 216.911804 
L 221.340272 216.338153 
L 223.401112 216.338153 
L 223.412382 215.190849 
L 225.827171 215.190849 
L 225.827171 214.617197 
L 228.431649 214.617197 
L 228.431649 214.043546 
L 228.910567 214.043546 
L 228.910567 213.469894 
L 229.830666 213.469894 
L 229.830666 212.896242 
L 338.688 212.896242 
L 338.688 212.896242 
" style="fill:none;stroke:#ff7500;stroke-linecap:square;stroke-width:1.5;"/>
   </g>
   <g id="line2d_41">
    <defs>
     <path d="M 0 -6 
L -1.347084 -1.854102 
L -5.706339 -1.854102 
L -2.179628 0.708204 
L -3.526712 4.854102 
L -0 2.291796 
L 3.526712 4.854102 
L 2.179628 0.708204 
L 5.706339 -1.854102 
L 1.347084 -1.854102 
z
" id="m98fb662e01" style="stroke:#ff7500;stroke-linejoin:bevel;stroke-width:1.5;"/>
    </defs>
    <g>
     <use style="fill-opacity:0;stroke:#ff7500;stroke-linejoin:bevel;stroke-width:1.5;" x="153.200188" xlink:href="#m98fb662e01" y="259.362031"/>
     <use style="fill-opacity:0;stroke:#ff7500;stroke-linejoin:bevel;stroke-width:1.5;" x="203.709906" xlink:href="#m98fb662e01" y="226.090232"/>
     <use style="fill-opacity:0;stroke:#ff7500;stroke-linejoin:bevel;stroke-width:1.5;" x="229.830666" xlink:href="#m98fb662e01" y="213.469894"/>
     <use style="fill-opacity:0;stroke:#ff7500;stroke-linejoin:bevel;stroke-width:1.5;" x="229.830666" xlink:href="#m98fb662e01" y="212.896242"/>
     <use style="fill-opacity:0;stroke:#ff7500;stroke-linejoin:bevel;stroke-width:1.5;" x="338.688" xlink:href="#m98fb662e01" y="212.896242"/>
    </g>
   </g>
   <g id="line2d_42">
    <path style="fill:none;stroke:#ff7500;stroke-linecap:square;stroke-width:1.5;"/>
    <g/>
   </g>
   <g id="line2d_43">
    <path clip-path="url(#p8dd1b75e65)" d="M 165.978297 251.904559 
" style="fill:none;stroke:#ff7500;stroke-linecap:square;stroke-width:1.5;"/>
    <defs>
     <path d="M -12 12 
L 12 -12 
M -12 -12 
L 12 12 
" id="madbca55bc6" style="stroke:#ff7500;"/>
    </defs>
    <g clip-path="url(#p8dd1b75e65)">
     <use style="fill:#ff7500;stroke:#ff7500;" x="165.978297" xlink:href="#madbca55bc6" y="251.904559"/>
    </g>
   </g>
   <g id="line2d_44">
    <defs>
     <path d="M 0 1.5 
C 0.397805 1.5 0.77937 1.341951 1.06066 1.06066 
C 1.341951 0.77937 1.5 0.397805 1.5 0 
C 1.5 -0.397805 1.341951 -0.77937 1.06066 -1.06066 
C 0.77937 -1.341951 0.397805 -1.5 0 -1.5 
C -0.397805 -1.5 -0.77937 -1.341951 -1.06066 -1.06066 
C -1.341951 -0.77937 -1.5 -0.397805 -1.5 0 
C -1.5 0.397805 -1.341951 0.77937 -1.06066 1.06066 
C -0.77937 1.341951 -0.397805 1.5 0 1.5 
z
" id="m0b47c3dfe9" style="stroke:#6495ed;"/>
    </defs>
    <g>
     <use style="fill:#6495ed;stroke:#6495ed;" x="224.569683" xlink:href="#m0b47c3dfe9" y="241.578828"/>
     <use style="fill:#6495ed;stroke:#6495ed;" x="224.569683" xlink:href="#m0b47c3dfe9" y="241.578828"/>
    </g>
   </g>
   <g id="line2d_45">
    <path d="M 17.444571 298.944 
L 17.444571 272.556021 
L 29.53256 272.556021 
L 29.53256 270.835066 
L 36.60358 270.835066 
L 36.60358 267.393156 
L 41.620548 267.393156 
L 41.620548 266.245852 
L 45.512012 266.245852 
L 45.512012 264.524897 
L 48.691568 264.524897 
L 48.691568 263.951245 
L 53.708537 263.951245 
L 53.708537 262.803942 
L 55.762588 262.803942 
L 55.762588 261.656638 
L 62.175444 261.656638 
L 62.175444 261.082987 
L 67.850577 261.082987 
L 67.850577 260.509335 
L 68.79347 260.509335 
L 68.79347 259.935683 
L 70.538854 259.935683 
L 70.538854 259.362031 
L 75.555822 259.362031 
L 75.555822 258.78838 
L 84.213325 258.78838 
L 84.213325 258.214728 
L 87.643811 258.214728 
L 87.643811 257.641076 
L 97.928955 257.641076 
L 97.928955 256.493773 
L 114.418861 256.493773 
L 114.418861 255.920121 
L 114.751048 255.920121 
L 114.751048 255.346469 
L 118.890808 255.346469 
L 118.890808 254.772818 
L 119.250393 254.772818 
L 119.250393 254.199166 
L 119.751557 254.199166 
L 119.751557 253.625514 
L 120.898662 253.625514 
L 120.898662 253.051863 
L 122.782271 253.051863 
L 122.782271 252.478211 
L 131.108073 252.478211 
L 131.108073 251.904559 
L 133.689303 251.904559 
L 133.689303 251.330907 
L 136.20856 251.330907 
L 136.20856 250.757256 
L 154.473387 250.757256 
L 154.473387 250.183604 
L 158.530025 250.183604 
L 158.530025 249.609952 
L 159.32939 249.609952 
L 159.32939 249.036301 
L 161.681046 249.036301 
L 161.681046 247.888997 
L 171.903338 247.888997 
L 171.903338 247.315345 
L 175.056802 247.315345 
L 175.056802 246.741694 
L 183.81914 246.741694 
L 183.81914 246.168042 
L 189.175108 246.168042 
L 189.175108 245.020738 
L 199.360797 245.020738 
L 199.360797 243.873435 
L 201.759551 243.873435 
L 201.759551 243.299783 
L 211.727363 243.299783 
L 211.727363 242.726132 
L 221.241847 242.726132 
L 221.241847 242.15248 
L 224.569683 242.15248 
L 224.569683 241.578828 
L 338.688 241.578828 
" style="fill:none;stroke:#6495ed;stroke-linecap:square;stroke-width:1.5;"/>
   </g>
   <g id="line2d_46">
    <defs>
     <path d="M -0 6 
L 6 -6 
L -6 -6 
z
" id="m4df0c7a958" style="stroke:#6495ed;stroke-linejoin:miter;stroke-width:1.5;"/>
    </defs>
    <g>
     <use style="fill-opacity:0;stroke:#6495ed;stroke-linejoin:miter;stroke-width:1.5;" x="122.782271" xlink:href="#m4df0c7a958" y="252.478211"/>
     <use style="fill-opacity:0;stroke:#6495ed;stroke-linejoin:miter;stroke-width:1.5;" x="201.759551" xlink:href="#m4df0c7a958" y="243.873435"/>
     <use style="fill-opacity:0;stroke:#6495ed;stroke-linejoin:miter;stroke-width:1.5;" x="224.569683" xlink:href="#m4df0c7a958" y="242.15248"/>
     <use style="fill-opacity:0;stroke:#6495ed;stroke-linejoin:miter;stroke-width:1.5;" x="224.569683" xlink:href="#m4df0c7a958" y="241.578828"/>
     <use style="fill-opacity:0;stroke:#6495ed;stroke-linejoin:miter;stroke-width:1.5;" x="338.688" xlink:href="#m4df0c7a958" y="241.578828"/>
    </g>
   </g>
   <g id="line2d_47">
    <path style="fill:none;stroke:#6495ed;stroke-linecap:square;stroke-width:1.5;"/>
    <g/>
   </g>
   <g id="line2d_48">
    <path clip-path="url(#p8dd1b75e65)" d="M 165.978297 247.888997 
" style="fill:none;stroke:#6495ed;stroke-linecap:square;stroke-width:1.5;"/>
    <defs>
     <path d="M -12 12 
L 12 -12 
M -12 -12 
L 12 12 
" id="mbf50a128eb" style="stroke:#6495ed;"/>
    </defs>
    <g clip-path="url(#p8dd1b75e65)">
     <use style="fill:#6495ed;stroke:#6495ed;" x="165.978297" xlink:href="#mbf50a128eb" y="247.888997"/>
    </g>
   </g>
   <g id="line2d_49">
    <defs>
     <path d="M 0 1.5 
C 0.397805 1.5 0.77937 1.341951 1.06066 1.06066 
C 1.341951 0.77937 1.5 0.397805 1.5 0 
C 1.5 -0.397805 1.341951 -0.77937 1.06066 -1.06066 
C 0.77937 -1.341951 0.397805 -1.5 0 -1.5 
C -0.397805 -1.5 -0.77937 -1.341951 -1.06066 -1.06066 
C -1.341951 -0.77937 -1.5 -0.397805 -1.5 0 
C -1.5 0.397805 -1.341951 0.77937 -1.06066 1.06066 
C -0.77937 1.341951 -0.397805 1.5 0 1.5 
z
" id="m786bd14989" style="stroke:#ff0000;"/>
    </defs>
    <g>
     <use style="fill:#ff0000;stroke:#ff0000;" x="172.012256" xlink:href="#m786bd14989" y="287.470966"/>
     <use style="fill:#ff0000;stroke:#ff0000;" x="172.012256" xlink:href="#m786bd14989" y="287.470966"/>
    </g>
   </g>
   <g id="line2d_50">
    <path d="M 107.213174 298.944 
L 107.213174 298.370348 
L 113.873839 298.370348 
L 113.873839 297.796697 
L 127.54831 297.796697 
L 127.54831 297.223045 
L 131.888878 297.223045 
L 131.888878 296.649393 
L 135.097149 296.649393 
L 135.097149 296.075741 
L 135.482227 296.075741 
L 135.482227 295.50209 
L 138.426341 295.50209 
L 138.426341 294.928438 
L 139.413734 294.928438 
L 139.413734 294.354786 
L 139.840453 294.354786 
L 139.840453 293.781135 
L 141.002999 293.781135 
L 141.002999 293.207483 
L 143.502469 293.207483 
L 143.502469 292.633831 
L 151.645126 292.633831 
L 151.645126 292.060179 
L 156.812195 292.060179 
L 156.812195 291.486528 
L 157.837488 291.486528 
L 157.837488 290.912876 
L 159.426147 290.912876 
L 159.426147 290.339224 
L 160.297798 290.339224 
L 160.297798 289.765573 
L 160.933404 289.765573 
L 160.933404 289.191921 
L 162.363654 289.191921 
L 162.363654 288.618269 
L 164.37952 288.618269 
L 164.37952 288.044617 
L 172.012256 288.044617 
L 172.012256 287.470966 
L 338.688 287.470966 
" style="fill:none;stroke:#ff0000;stroke-linecap:square;stroke-width:1.5;"/>
   </g>
   <g id="line2d_51">
    <defs>
     <path d="M 0 -6 
L -5.196152 -3 
L -5.196152 3 
L -0 6 
L 5.196152 3 
L 5.196152 -3 
z
" id="m2f43c4d8f2" style="stroke:#ff0000;stroke-linejoin:miter;stroke-width:1.5;"/>
    </defs>
    <g>
     <use style="fill-opacity:0;stroke:#ff0000;stroke-linejoin:miter;stroke-width:1.5;" x="172.012256" xlink:href="#m2f43c4d8f2" y="288.044617"/>
     <use style="fill-opacity:0;stroke:#ff0000;stroke-linejoin:miter;stroke-width:1.5;" x="172.012256" xlink:href="#m2f43c4d8f2" y="288.044617"/>
     <use style="fill-opacity:0;stroke:#ff0000;stroke-linejoin:miter;stroke-width:1.5;" x="172.012256" xlink:href="#m2f43c4d8f2" y="287.470966"/>
     <use style="fill-opacity:0;stroke:#ff0000;stroke-linejoin:miter;stroke-width:1.5;" x="172.012256" xlink:href="#m2f43c4d8f2" y="287.470966"/>
     <use style="fill-opacity:0;stroke:#ff0000;stroke-linejoin:miter;stroke-width:1.5;" x="338.688" xlink:href="#m2f43c4d8f2" y="287.470966"/>
    </g>
   </g>
   <g id="line2d_52">
    <path style="fill:none;stroke:#ff0000;stroke-linecap:square;stroke-width:1.5;"/>
    <g/>
   </g>
   <g id="line2d_53">
    <path clip-path="url(#p8dd1b75e65)" d="M 165.978297 288.044617 
" style="fill:none;stroke:#ff0000;stroke-linecap:square;stroke-width:1.5;"/>
    <defs>
     <path d="M -12 12 
L 12 -12 
M -12 -12 
L 12 12 
" id="mdc9a440048" style="stroke:#ff0000;"/>
    </defs>
    <g clip-path="url(#p8dd1b75e65)">
     <use style="fill:#ff0000;stroke:#ff0000;" x="165.978297" xlink:href="#mdc9a440048" y="288.044617"/>
    </g>
   </g>
   <g id="line2d_54">
    <path d="M 338.688 287.470966 
L 369.60768 293.092752 
" style="fill:none;stroke:#ff0000;stroke-linecap:square;stroke-width:1.5;"/>
    <g>
     <use style="fill-opacity:0;stroke:#ff0000;stroke-linejoin:miter;stroke-width:1.5;" x="338.688" xlink:href="#m2f43c4d8f2" y="287.470966"/>
     <use style="fill-opacity:0;stroke:#ff0000;stroke-linejoin:miter;stroke-width:1.5;" x="369.60768" xlink:href="#m2f43c4d8f2" y="293.092752"/>
    </g>
   </g>
   <g id="line2d_55">
    <path d="M 338.688 247.315345 
L 369.60768 222.877782 
" style="fill:none;stroke:#000080;stroke-linecap:square;stroke-width:1.5;"/>
    <g>
     <use style="fill-opacity:0;stroke:#000080;stroke-width:1.5;" x="338.688" xlink:href="#m83e80ea814" y="247.315345"/>
     <use style="fill-opacity:0;stroke:#000080;stroke-width:1.5;" x="369.60768" xlink:href="#m83e80ea814" y="222.877782"/>
    </g>
   </g>
   <g id="line2d_56">
    <path d="M 338.688 241.578828 
L 369.60768 152.662812 
" style="fill:none;stroke:#6495ed;stroke-linecap:square;stroke-width:1.5;"/>
    <g>
     <use style="fill-opacity:0;stroke:#6495ed;stroke-linejoin:miter;stroke-width:1.5;" x="338.688" xlink:href="#m4df0c7a958" y="241.578828"/>
     <use style="fill-opacity:0;stroke:#6495ed;stroke-linejoin:miter;stroke-width:1.5;" x="369.60768" xlink:href="#m4df0c7a958" y="152.662812"/>
    </g>
   </g>
   <g id="line2d_57">
    <path d="M 338.688 212.896242 
L 369.60768 82.447842 
" style="fill:none;stroke:#ff7500;stroke-linecap:square;stroke-width:1.5;"/>
    <g>
     <use style="fill-opacity:0;stroke:#ff7500;stroke-linejoin:bevel;stroke-width:1.5;" x="338.688" xlink:href="#m98fb662e01" y="212.896242"/>
     <use style="fill-opacity:0;stroke:#ff7500;stroke-linejoin:bevel;stroke-width:1.5;" x="369.60768" xlink:href="#m98fb662e01" y="82.447842"/>
    </g>
   </g>
   <g id="line2d_58">
    <path d="M 338.688 23.591175 
L 369.60768 12.232871 
" style="fill:none;stroke:#ff00ff;stroke-linecap:square;stroke-width:1.5;"/>
    <g>
     <use style="fill-opacity:0;stroke:#ff00ff;stroke-linejoin:miter;stroke-width:1.5;" x="338.688" xlink:href="#m2e4d7aed51" y="23.591175"/>
     <use style="fill-opacity:0;stroke:#ff00ff;stroke-linejoin:miter;stroke-width:1.5;" x="369.60768" xlink:href="#m2e4d7aed51" y="12.232871"/>
    </g>
   </g>
   <g id="line2d_59">
    <path d="M 338.688 298.944 
L 338.688 6.381624 
" style="fill:none;stroke:#000000;stroke-linecap:square;stroke-width:1.5;"/>
   </g>
   <g id="patch_3">
    <path d="M 57.6 298.944 
L 57.6 3.456 
" style="fill:none;stroke:#000000;stroke-linecap:square;stroke-linejoin:miter;stroke-width:0.8;"/>
   </g>
   <g id="patch_4">
    <path d="M 338.688 298.944 
L 338.688 3.456 
" style="fill:none;stroke:#000000;stroke-linecap:square;stroke-linejoin:miter;stroke-width:0.8;"/>
   </g>
   <g id="patch_5">
    <path d="M 57.6 298.944 
L 338.688 298.944 
" style="fill:none;stroke:#000000;stroke-linecap:square;stroke-linejoin:miter;stroke-width:0.8;"/>
   </g>
   <g id="patch_6">
    <path d="M 57.6 3.456 
L 338.688 3.456 
" style="fill:none;stroke:#000000;stroke-linecap:square;stroke-linejoin:miter;stroke-width:0.8;"/>
   </g>
   <g id="text_13">
    <!-- f24 -->
    <g transform="translate(375.22944 297.78369)scale(0.17 -0.17)">
     <use xlink:href="#DejaVuSans-66"/>
     <use x="35.205078" xlink:href="#DejaVuSans-32"/>
     <use x="98.828125" xlink:href="#DejaVuSans-34"/>
    </g>
   </g>
   <g id="text_14">
    <!-- f20 -->
    <g transform="translate(375.22944 227.56872)scale(0.17 -0.17)">
     <use xlink:href="#DejaVuSans-66"/>
     <use x="35.205078" xlink:href="#DejaVuSans-32"/>
     <use x="98.828125" xlink:href="#DejaVuSans-30"/>
    </g>
   </g>
   <g id="text_15">
    <!-- f23 -->
    <g transform="translate(375.22944 157.353749)scale(0.17 -0.17)">
     <defs>
      <path d="M 2597 2516 
Q 3050 2419 3304 2112 
Q 3559 1806 3559 1356 
Q 3559 666 3084 287 
Q 2609 -91 1734 -91 
Q 1441 -91 1130 -33 
Q 819 25 488 141 
L 488 750 
Q 750 597 1062 519 
Q 1375 441 1716 441 
Q 2309 441 2620 675 
Q 2931 909 2931 1356 
Q 2931 1769 2642 2001 
Q 2353 2234 1838 2234 
L 1294 2234 
L 1294 2753 
L 1863 2753 
Q 2328 2753 2575 2939 
Q 2822 3125 2822 3475 
Q 2822 3834 2567 4026 
Q 2313 4219 1838 4219 
Q 1578 4219 1281 4162 
Q 984 4106 628 3988 
L 628 4550 
Q 988 4650 1302 4700 
Q 1616 4750 1894 4750 
Q 2613 4750 3031 4423 
Q 3450 4097 3450 3541 
Q 3450 3153 3228 2886 
Q 3006 2619 2597 2516 
z
" id="DejaVuSans-33" transform="scale(0.015625)"/>
     </defs>
     <use xlink:href="#DejaVuSans-66"/>
     <use x="35.205078" xlink:href="#DejaVuSans-32"/>
     <use x="98.828125" xlink:href="#DejaVuSans-33"/>
    </g>
   </g>
   <g id="text_16">
    <!-- f22 -->
    <g transform="translate(375.22944 87.138779)scale(0.17 -0.17)">
     <use xlink:href="#DejaVuSans-66"/>
     <use x="35.205078" xlink:href="#DejaVuSans-32"/>
     <use x="98.828125" xlink:href="#DejaVuSans-32"/>
    </g>
   </g>
   <g id="text_17">
    <!-- f21 -->
    <g transform="translate(375.22944 16.923809)scale(0.17 -0.17)">
     <use xlink:href="#DejaVuSans-66"/>
     <use x="35.205078" xlink:href="#DejaVuSans-32"/>
     <use x="98.828125" xlink:href="#DejaVuSans-31"/>
    </g>
   </g>
   <g id="text_18">
    <!-- bbob -->
    <g transform="translate(60.41088 14.161286)scale(0.102 -0.102)">
     <defs>
      <path d="M 3116 1747 
Q 3116 2381 2855 2742 
Q 2594 3103 2138 3103 
Q 1681 3103 1420 2742 
Q 1159 2381 1159 1747 
Q 1159 1113 1420 752 
Q 1681 391 2138 391 
Q 2594 391 2855 752 
Q 3116 1113 3116 1747 
z
M 1159 2969 
Q 1341 3281 1617 3432 
Q 1894 3584 2278 3584 
Q 2916 3584 3314 3078 
Q 3713 2572 3713 1747 
Q 3713 922 3314 415 
Q 2916 -91 2278 -91 
Q 1894 -91 1617 61 
Q 1341 213 1159 525 
L 1159 0 
L 581 0 
L 581 4863 
L 1159 4863 
L 1159 2969 
z
" id="DejaVuSans-62" transform="scale(0.015625)"/>
     </defs>
     <use xlink:href="#DejaVuSans-62"/>
     <use x="63.476562" xlink:href="#DejaVuSans-62"/>
     <use x="126.953125" xlink:href="#DejaVuSans-6f"/>
     <use x="188.134766" xlink:href="#DejaVuSans-62"/>
    </g>
    <!-- Weak structure functions, 10-D -->
    <g transform="translate(60.41088 25.583055)scale(0.102 -0.102)">
     <defs>
      <path d="M 213 4666 
L 850 4666 
L 1831 722 
L 2809 4666 
L 3519 4666 
L 4500 722 
L 5478 4666 
L 6119 4666 
L 4947 0 
L 4153 0 
L 3169 4050 
L 2175 0 
L 1381 0 
L 213 4666 
z
" id="DejaVuSans-57" transform="scale(0.015625)"/>
      <path d="M 581 4863 
L 1159 4863 
L 1159 1991 
L 2875 3500 
L 3609 3500 
L 1753 1863 
L 3688 0 
L 2938 0 
L 1159 1709 
L 1159 0 
L 581 0 
L 581 4863 
z
" id="DejaVuSans-6b" transform="scale(0.015625)"/>
      <path d="M 1259 4147 
L 1259 519 
L 2022 519 
Q 2988 519 3436 956 
Q 3884 1394 3884 2338 
Q 3884 3275 3436 3711 
Q 2988 4147 2022 4147 
L 1259 4147 
z
M 628 4666 
L 1925 4666 
Q 3281 4666 3915 4102 
Q 4550 3538 4550 2338 
Q 4550 1131 3912 565 
Q 3275 0 1925 0 
L 628 0 
L 628 4666 
z
" id="DejaVuSans-44" transform="scale(0.015625)"/>
     </defs>
     <use xlink:href="#DejaVuSans-57"/>
     <use x="93.001953" xlink:href="#DejaVuSans-65"/>
     <use x="154.525391" xlink:href="#DejaVuSans-61"/>
     <use x="215.804688" xlink:href="#DejaVuSans-6b"/>
     <use x="273.714844" xlink:href="#DejaVuSans-20"/>
     <use x="305.501953" xlink:href="#DejaVuSans-73"/>
     <use x="357.601562" xlink:href="#DejaVuSans-74"/>
     <use x="396.810547" xlink:href="#DejaVuSans-72"/>
     <use x="437.923828" xlink:href="#DejaVuSans-75"/>
     <use x="501.302734" xlink:href="#DejaVuSans-63"/>
     <use x="556.283203" xlink:href="#DejaVuSans-74"/>
     <use x="595.492188" xlink:href="#DejaVuSans-75"/>
     <use x="658.871094" xlink:href="#DejaVuSans-72"/>
     <use x="697.734375" xlink:href="#DejaVuSans-65"/>
     <use x="759.257812" xlink:href="#DejaVuSans-20"/>
     <use x="791.044922" xlink:href="#DejaVuSans-66"/>
     <use x="826.25" xlink:href="#DejaVuSans-75"/>
     <use x="889.628906" xlink:href="#DejaVuSans-6e"/>
     <use x="953.007812" xlink:href="#DejaVuSans-63"/>
     <use x="1007.988281" xlink:href="#DejaVuSans-74"/>
     <use x="1047.197266" xlink:href="#DejaVuSans-69"/>
     <use x="1074.980469" xlink:href="#DejaVuSans-6f"/>
     <use x="1136.162109" xlink:href="#DejaVuSans-6e"/>
     <use x="1199.541016" xlink:href="#DejaVuSans-73"/>
     <use x="1251.640625" xlink:href="#DejaVuSans-2c"/>
     <use x="1283.427734" xlink:href="#DejaVuSans-20"/>
     <use x="1315.214844" xlink:href="#DejaVuSans-31"/>
     <use x="1378.837891" xlink:href="#DejaVuSans-30"/>
     <use x="1442.460938" xlink:href="#DejaVuSans-2d"/>
     <use x="1478.544922" xlink:href="#DejaVuSans-44"/>
    </g>
    <!-- 51 targets: 100..1e-08 -->
    <g transform="translate(60.41088 37.004824)scale(0.102 -0.102)">
     <defs>
      <path d="M 691 4666 
L 3169 4666 
L 3169 4134 
L 1269 4134 
L 1269 2991 
Q 1406 3038 1543 3061 
Q 1681 3084 1819 3084 
Q 2600 3084 3056 2656 
Q 3513 2228 3513 1497 
Q 3513 744 3044 326 
Q 2575 -91 1722 -91 
Q 1428 -91 1123 -41 
Q 819 9 494 109 
L 494 744 
Q 775 591 1075 516 
Q 1375 441 1709 441 
Q 2250 441 2565 725 
Q 2881 1009 2881 1497 
Q 2881 1984 2565 2268 
Q 2250 2553 1709 2553 
Q 1456 2553 1204 2497 
Q 953 2441 691 2322 
L 691 4666 
z
" id="DejaVuSans-35" transform="scale(0.015625)"/>
      <path d="M 750 794 
L 1409 794 
L 1409 0 
L 750 0 
L 750 794 
z
M 750 3309 
L 1409 3309 
L 1409 2516 
L 750 2516 
L 750 3309 
z
" id="DejaVuSans-3a" transform="scale(0.015625)"/>
     </defs>
     <use xlink:href="#DejaVuSans-35"/>
     <use x="63.623047" xlink:href="#DejaVuSans-31"/>
     <use x="127.246094" xlink:href="#DejaVuSans-20"/>
     <use x="159.033203" xlink:href="#DejaVuSans-74"/>
     <use x="198.242188" xlink:href="#DejaVuSans-61"/>
     <use x="259.521484" xlink:href="#DejaVuSans-72"/>
     <use x="298.884766" xlink:href="#DejaVuSans-67"/>
     <use x="362.361328" xlink:href="#DejaVuSans-65"/>
     <use x="423.884766" xlink:href="#DejaVuSans-74"/>
     <use x="463.09375" xlink:href="#DejaVuSans-73"/>
     <use x="515.193359" xlink:href="#DejaVuSans-3a"/>
     <use x="548.884766" xlink:href="#DejaVuSans-20"/>
     <use x="580.671875" xlink:href="#DejaVuSans-31"/>
     <use x="644.294922" xlink:href="#DejaVuSans-30"/>
     <use x="707.917969" xlink:href="#DejaVuSans-30"/>
     <use x="771.541016" xlink:href="#DejaVuSans-2e"/>
     <use x="803.328125" xlink:href="#DejaVuSans-2e"/>
     <use x="835.115234" xlink:href="#DejaVuSans-31"/>
     <use x="898.738281" xlink:href="#DejaVuSans-65"/>
     <use x="960.261719" xlink:href="#DejaVuSans-2d"/>
     <use x="996.345703" xlink:href="#DejaVuSans-30"/>
     <use x="1059.96875" xlink:href="#DejaVuSans-38"/>
    </g>
    <!-- 15 instances -->
    <g transform="translate(60.41088 48.426593)scale(0.102 -0.102)">
     <use xlink:href="#DejaVuSans-31"/>
     <use x="63.623047" xlink:href="#DejaVuSans-35"/>
     <use x="127.246094" xlink:href="#DejaVuSans-20"/>
     <use x="159.033203" xlink:href="#DejaVuSans-69"/>
     <use x="186.816406" xlink:href="#DejaVuSans-6e"/>
     <use x="250.195312" xlink:href="#DejaVuSans-73"/>
     <use x="302.294922" xlink:href="#DejaVuSans-74"/>
     <use x="341.503906" xlink:href="#DejaVuSans-61"/>
     <use x="402.783203" xlink:href="#DejaVuSans-6e"/>
     <use x="466.162109" xlink:href="#DejaVuSans-63"/>
     <use x="521.142578" xlink:href="#DejaVuSans-65"/>
     <use x="582.666016" xlink:href="#DejaVuSans-73"/>
    </g>
   </g>
   <g id="text_19">
    <!-- v2.4 -->
    <g style="fill:#808080;" transform="translate(187.233062 293.909432)scale(0.1 -0.1)">
     <use xlink:href="#DejaVuSans-76"/>
     <use x="59.179688" xlink:href="#DejaVuSans-32"/>
     <use x="122.802734" xlink:href="#DejaVuSans-2e"/>
     <use x="154.589844" xlink:href="#DejaVuSans-34"/>
    </g>
   </g>
  </g>
 </g>
 <defs>
  <clipPath id="p8dd1b75e65">
   <rect height="295.488" width="281.088" x="57.6" y="3.456"/>
  </clipPath>
 </defs>
</svg>
