<?xml version="1.0" encoding="utf-8" standalone="no"?>
<!DOCTYPE svg PUBLIC "-//W3C//DTD SVG 1.1//EN"
  "http://www.w3.org/Graphics/SVG/1.1/DTD/svg11.dtd">
<svg height="345.6pt" version="1.1" viewBox="0 0 460.8 345.6" width="460.8pt" xmlns="http://www.w3.org/2000/svg" xmlns:xlink="http://www.w3.org/1999/xlink">
 <metadata>
  <rdf:RDF xmlns:cc="http://creativecommons.org/ns#" xmlns:dc="http://purl.org/dc/elements/1.1/" xmlns:rdf="http://www.w3.org/1999/02/22-rdf-syntax-ns#">
   <cc:Work>
    <dc:type rdf:resource="http://purl.org/dc/dcmitype/StillImage"/>
    <dc:date>2021-04-30T23:04:32.120323</dc:date>
    <dc:format>image/svg+xml</dc:format>
    <dc:creator>
     <cc:Agent>
      <dc:title>Matplotlib v3.4.1, https://matplotlib.org/</dc:title>
     </cc:Agent>
    </dc:creator>
   </cc:Work>
  </rdf:RDF>
 </metadata>
 <defs>
  <style type="text/css">*{stroke-linecap:butt;stroke-linejoin:round;}</style>
 </defs>
 <g id="figure_1">
  <g id="patch_1">
   <path d="M 0 345.6 
L 460.8 345.6 
L 460.8 0 
L 0 0 
z
" style="fill:#ffffff;"/>
  </g>
  <g id="axes_1">
   <g id="patch_2">
    <path d="M 57.6 298.944 
L 338.688 298.944 
L 338.688 3.456 
L 57.6 3.456 
z
" style="fill:#ffffff;"/>
   </g>
   <g id="matplotlib.axis_1">
    <g id="xtick_1">
     <g id="line2d_1">
      <path clip-path="url(#pbbe79e6236)" d="M 57.6 298.944 
L 57.6 3.456 
" style="fill:none;stroke:#b0b0b0;stroke-linecap:square;stroke-width:0.8;"/>
     </g>
     <g id="line2d_2">
      <defs>
       <path d="M 0 0 
L 0 3.5 
" id="m87e9422ddd" style="stroke:#000000;stroke-width:0.8;"/>
      </defs>
      <g>
       <use style="stroke:#000000;stroke-width:0.8;" x="57.6" xlink:href="#m87e9422ddd" y="298.944"/>
      </g>
     </g>
     <g id="text_1">
      <!-- 0 -->
      <g transform="translate(51.2375 321.140875)scale(0.2 -0.2)">
       <defs>
        <path d="M 2034 4250 
Q 1547 4250 1301 3770 
Q 1056 3291 1056 2328 
Q 1056 1369 1301 889 
Q 1547 409 2034 409 
Q 2525 409 2770 889 
Q 3016 1369 3016 2328 
Q 3016 3291 2770 3770 
Q 2525 4250 2034 4250 
z
M 2034 4750 
Q 2819 4750 3233 4129 
Q 3647 3509 3647 2328 
Q 3647 1150 3233 529 
Q 2819 -91 2034 -91 
Q 1250 -91 836 529 
Q 422 1150 422 2328 
Q 422 3509 836 4129 
Q 1250 4750 2034 4750 
z
" id="DejaVuSans-30" transform="scale(0.015625)"/>
       </defs>
       <use xlink:href="#DejaVuSans-30"/>
      </g>
     </g>
    </g>
    <g id="xtick_2">
     <g id="line2d_3">
      <path clip-path="url(#pbbe79e6236)" d="M 137.910857 298.944 
L 137.910857 3.456 
" style="fill:none;stroke:#b0b0b0;stroke-linecap:square;stroke-width:0.8;"/>
     </g>
     <g id="line2d_4">
      <g>
       <use style="stroke:#000000;stroke-width:0.8;" x="137.910857" xlink:href="#m87e9422ddd" y="298.944"/>
      </g>
     </g>
     <g id="text_2">
      <!-- 2 -->
      <g transform="translate(131.548357 321.140875)scale(0.2 -0.2)">
       <defs>
        <path d="M 1228 531 
L 3431 531 
L 3431 0 
L 469 0 
L 469 531 
Q 828 903 1448 1529 
Q 2069 2156 2228 2338 
Q 2531 2678 2651 2914 
Q 2772 3150 2772 3378 
Q 2772 3750 2511 3984 
Q 2250 4219 1831 4219 
Q 1534 4219 1204 4116 
Q 875 4013 500 3803 
L 500 4441 
Q 881 4594 1212 4672 
Q 1544 4750 1819 4750 
Q 2544 4750 2975 4387 
Q 3406 4025 3406 3419 
Q 3406 3131 3298 2873 
Q 3191 2616 2906 2266 
Q 2828 2175 2409 1742 
Q 1991 1309 1228 531 
z
" id="DejaVuSans-32" transform="scale(0.015625)"/>
       </defs>
       <use xlink:href="#DejaVuSans-32"/>
      </g>
     </g>
    </g>
    <g id="xtick_3">
     <g id="line2d_5">
      <path clip-path="url(#pbbe79e6236)" d="M 218.221714 298.944 
L 218.221714 3.456 
" style="fill:none;stroke:#b0b0b0;stroke-linecap:square;stroke-width:0.8;"/>
     </g>
     <g id="line2d_6">
      <g>
       <use style="stroke:#000000;stroke-width:0.8;" x="218.221714" xlink:href="#m87e9422ddd" y="298.944"/>
      </g>
     </g>
     <g id="text_3">
      <!-- 4 -->
      <g transform="translate(211.859214 321.140875)scale(0.2 -0.2)">
       <defs>
        <path d="M 2419 4116 
L 825 1625 
L 2419 1625 
L 2419 4116 
z
M 2253 4666 
L 3047 4666 
L 3047 1625 
L 3713 1625 
L 3713 1100 
L 3047 1100 
L 3047 0 
L 2419 0 
L 2419 1100 
L 313 1100 
L 313 1709 
L 2253 4666 
z
" id="DejaVuSans-34" transform="scale(0.015625)"/>
       </defs>
       <use xlink:href="#DejaVuSans-34"/>
      </g>
     </g>
    </g>
    <g id="xtick_4">
     <g id="line2d_7">
      <path clip-path="url(#pbbe79e6236)" d="M 298.532571 298.944 
L 298.532571 3.456 
" style="fill:none;stroke:#b0b0b0;stroke-linecap:square;stroke-width:0.8;"/>
     </g>
     <g id="line2d_8">
      <g>
       <use style="stroke:#000000;stroke-width:0.8;" x="298.532571" xlink:href="#m87e9422ddd" y="298.944"/>
      </g>
     </g>
     <g id="text_4">
      <!-- 6 -->
      <g transform="translate(292.170071 321.140875)scale(0.2 -0.2)">
       <defs>
        <path d="M 2113 2584 
Q 1688 2584 1439 2293 
Q 1191 2003 1191 1497 
Q 1191 994 1439 701 
Q 1688 409 2113 409 
Q 2538 409 2786 701 
Q 3034 994 3034 1497 
Q 3034 2003 2786 2293 
Q 2538 2584 2113 2584 
z
M 3366 4563 
L 3366 3988 
Q 3128 4100 2886 4159 
Q 2644 4219 2406 4219 
Q 1781 4219 1451 3797 
Q 1122 3375 1075 2522 
Q 1259 2794 1537 2939 
Q 1816 3084 2150 3084 
Q 2853 3084 3261 2657 
Q 3669 2231 3669 1497 
Q 3669 778 3244 343 
Q 2819 -91 2113 -91 
Q 1303 -91 875 529 
Q 447 1150 447 2328 
Q 447 3434 972 4092 
Q 1497 4750 2381 4750 
Q 2619 4750 2861 4703 
Q 3103 4656 3366 4563 
z
" id="DejaVuSans-36" transform="scale(0.015625)"/>
       </defs>
       <use xlink:href="#DejaVuSans-36"/>
      </g>
     </g>
    </g>
    <g id="xtick_5">
     <g id="line2d_9">
      <path clip-path="url(#pbbe79e6236)" d="M 97.755429 298.944 
L 97.755429 3.456 
" style="fill:none;stroke:#b0b0b0;stroke-linecap:square;stroke-width:0.8;"/>
     </g>
     <g id="line2d_10">
      <defs>
       <path d="M 0 0 
L 0 2 
" id="m8ed00ff402" style="stroke:#000000;stroke-width:0.6;"/>
      </defs>
      <g>
       <use style="stroke:#000000;stroke-width:0.6;" x="97.755429" xlink:href="#m8ed00ff402" y="298.944"/>
      </g>
     </g>
    </g>
    <g id="xtick_6">
     <g id="line2d_11">
      <path clip-path="url(#pbbe79e6236)" d="M 178.066286 298.944 
L 178.066286 3.456 
" style="fill:none;stroke:#b0b0b0;stroke-linecap:square;stroke-width:0.8;"/>
     </g>
     <g id="line2d_12">
      <g>
       <use style="stroke:#000000;stroke-width:0.6;" x="178.066286" xlink:href="#m8ed00ff402" y="298.944"/>
      </g>
     </g>
    </g>
    <g id="xtick_7">
     <g id="line2d_13">
      <path clip-path="url(#pbbe79e6236)" d="M 258.377143 298.944 
L 258.377143 3.456 
" style="fill:none;stroke:#b0b0b0;stroke-linecap:square;stroke-width:0.8;"/>
     </g>
     <g id="line2d_14">
      <g>
       <use style="stroke:#000000;stroke-width:0.6;" x="258.377143" xlink:href="#m8ed00ff402" y="298.944"/>
      </g>
     </g>
    </g>
    <g id="xtick_8">
     <g id="line2d_15">
      <path clip-path="url(#pbbe79e6236)" d="M 338.688 298.944 
L 338.688 3.456 
" style="fill:none;stroke:#b0b0b0;stroke-linecap:square;stroke-width:0.8;"/>
     </g>
     <g id="line2d_16">
      <g>
       <use style="stroke:#000000;stroke-width:0.6;" x="338.688" xlink:href="#m8ed00ff402" y="298.944"/>
      </g>
     </g>
    </g>
    <g id="text_5">
     <!-- log10(# f-evals / dimension) -->
     <g transform="translate(77.764078 342.217594)scale(0.17 -0.17)">
      <defs>
       <path d="M 603 4863 
L 1178 4863 
L 1178 0 
L 603 0 
L 603 4863 
z
" id="DejaVuSans-6c" transform="scale(0.015625)"/>
       <path d="M 1959 3097 
Q 1497 3097 1228 2736 
Q 959 2375 959 1747 
Q 959 1119 1226 758 
Q 1494 397 1959 397 
Q 2419 397 2687 759 
Q 2956 1122 2956 1747 
Q 2956 2369 2687 2733 
Q 2419 3097 1959 3097 
z
M 1959 3584 
Q 2709 3584 3137 3096 
Q 3566 2609 3566 1747 
Q 3566 888 3137 398 
Q 2709 -91 1959 -91 
Q 1206 -91 779 398 
Q 353 888 353 1747 
Q 353 2609 779 3096 
Q 1206 3584 1959 3584 
z
" id="DejaVuSans-6f" transform="scale(0.015625)"/>
       <path d="M 2906 1791 
Q 2906 2416 2648 2759 
Q 2391 3103 1925 3103 
Q 1463 3103 1205 2759 
Q 947 2416 947 1791 
Q 947 1169 1205 825 
Q 1463 481 1925 481 
Q 2391 481 2648 825 
Q 2906 1169 2906 1791 
z
M 3481 434 
Q 3481 -459 3084 -895 
Q 2688 -1331 1869 -1331 
Q 1566 -1331 1297 -1286 
Q 1028 -1241 775 -1147 
L 775 -588 
Q 1028 -725 1275 -790 
Q 1522 -856 1778 -856 
Q 2344 -856 2625 -561 
Q 2906 -266 2906 331 
L 2906 616 
Q 2728 306 2450 153 
Q 2172 0 1784 0 
Q 1141 0 747 490 
Q 353 981 353 1791 
Q 353 2603 747 3093 
Q 1141 3584 1784 3584 
Q 2172 3584 2450 3431 
Q 2728 3278 2906 2969 
L 2906 3500 
L 3481 3500 
L 3481 434 
z
" id="DejaVuSans-67" transform="scale(0.015625)"/>
       <path d="M 794 531 
L 1825 531 
L 1825 4091 
L 703 3866 
L 703 4441 
L 1819 4666 
L 2450 4666 
L 2450 531 
L 3481 531 
L 3481 0 
L 794 0 
L 794 531 
z
" id="DejaVuSans-31" transform="scale(0.015625)"/>
       <path d="M 1984 4856 
Q 1566 4138 1362 3434 
Q 1159 2731 1159 2009 
Q 1159 1288 1364 580 
Q 1569 -128 1984 -844 
L 1484 -844 
Q 1016 -109 783 600 
Q 550 1309 550 2009 
Q 550 2706 781 3412 
Q 1013 4119 1484 4856 
L 1984 4856 
z
" id="DejaVuSans-28" transform="scale(0.015625)"/>
       <path d="M 3272 2816 
L 2363 2816 
L 2100 1772 
L 3016 1772 
L 3272 2816 
z
M 2803 4594 
L 2478 3297 
L 3391 3297 
L 3719 4594 
L 4219 4594 
L 3897 3297 
L 4872 3297 
L 4872 2816 
L 3775 2816 
L 3519 1772 
L 4513 1772 
L 4513 1294 
L 3397 1294 
L 3072 0 
L 2572 0 
L 2894 1294 
L 1978 1294 
L 1656 0 
L 1153 0 
L 1478 1294 
L 494 1294 
L 494 1772 
L 1594 1772 
L 1856 2816 
L 850 2816 
L 850 3297 
L 1978 3297 
L 2297 4594 
L 2803 4594 
z
" id="DejaVuSans-23" transform="scale(0.015625)"/>
       <path id="DejaVuSans-20" transform="scale(0.015625)"/>
       <path d="M 2375 4863 
L 2375 4384 
L 1825 4384 
Q 1516 4384 1395 4259 
Q 1275 4134 1275 3809 
L 1275 3500 
L 2222 3500 
L 2222 3053 
L 1275 3053 
L 1275 0 
L 697 0 
L 697 3053 
L 147 3053 
L 147 3500 
L 697 3500 
L 697 3744 
Q 697 4328 969 4595 
Q 1241 4863 1831 4863 
L 2375 4863 
z
" id="DejaVuSans-66" transform="scale(0.015625)"/>
       <path d="M 313 2009 
L 1997 2009 
L 1997 1497 
L 313 1497 
L 313 2009 
z
" id="DejaVuSans-2d" transform="scale(0.015625)"/>
       <path d="M 3597 1894 
L 3597 1613 
L 953 1613 
Q 991 1019 1311 708 
Q 1631 397 2203 397 
Q 2534 397 2845 478 
Q 3156 559 3463 722 
L 3463 178 
Q 3153 47 2828 -22 
Q 2503 -91 2169 -91 
Q 1331 -91 842 396 
Q 353 884 353 1716 
Q 353 2575 817 3079 
Q 1281 3584 2069 3584 
Q 2775 3584 3186 3129 
Q 3597 2675 3597 1894 
z
M 3022 2063 
Q 3016 2534 2758 2815 
Q 2500 3097 2075 3097 
Q 1594 3097 1305 2825 
Q 1016 2553 972 2059 
L 3022 2063 
z
" id="DejaVuSans-65" transform="scale(0.015625)"/>
       <path d="M 191 3500 
L 800 3500 
L 1894 563 
L 2988 3500 
L 3597 3500 
L 2284 0 
L 1503 0 
L 191 3500 
z
" id="DejaVuSans-76" transform="scale(0.015625)"/>
       <path d="M 2194 1759 
Q 1497 1759 1228 1600 
Q 959 1441 959 1056 
Q 959 750 1161 570 
Q 1363 391 1709 391 
Q 2188 391 2477 730 
Q 2766 1069 2766 1631 
L 2766 1759 
L 2194 1759 
z
M 3341 1997 
L 3341 0 
L 2766 0 
L 2766 531 
Q 2569 213 2275 61 
Q 1981 -91 1556 -91 
Q 1019 -91 701 211 
Q 384 513 384 1019 
Q 384 1609 779 1909 
Q 1175 2209 1959 2209 
L 2766 2209 
L 2766 2266 
Q 2766 2663 2505 2880 
Q 2244 3097 1772 3097 
Q 1472 3097 1187 3025 
Q 903 2953 641 2809 
L 641 3341 
Q 956 3463 1253 3523 
Q 1550 3584 1831 3584 
Q 2591 3584 2966 3190 
Q 3341 2797 3341 1997 
z
" id="DejaVuSans-61" transform="scale(0.015625)"/>
       <path d="M 2834 3397 
L 2834 2853 
Q 2591 2978 2328 3040 
Q 2066 3103 1784 3103 
Q 1356 3103 1142 2972 
Q 928 2841 928 2578 
Q 928 2378 1081 2264 
Q 1234 2150 1697 2047 
L 1894 2003 
Q 2506 1872 2764 1633 
Q 3022 1394 3022 966 
Q 3022 478 2636 193 
Q 2250 -91 1575 -91 
Q 1294 -91 989 -36 
Q 684 19 347 128 
L 347 722 
Q 666 556 975 473 
Q 1284 391 1588 391 
Q 1994 391 2212 530 
Q 2431 669 2431 922 
Q 2431 1156 2273 1281 
Q 2116 1406 1581 1522 
L 1381 1569 
Q 847 1681 609 1914 
Q 372 2147 372 2553 
Q 372 3047 722 3315 
Q 1072 3584 1716 3584 
Q 2034 3584 2315 3537 
Q 2597 3491 2834 3397 
z
" id="DejaVuSans-73" transform="scale(0.015625)"/>
       <path d="M 1625 4666 
L 2156 4666 
L 531 -594 
L 0 -594 
L 1625 4666 
z
" id="DejaVuSans-2f" transform="scale(0.015625)"/>
       <path d="M 2906 2969 
L 2906 4863 
L 3481 4863 
L 3481 0 
L 2906 0 
L 2906 525 
Q 2725 213 2448 61 
Q 2172 -91 1784 -91 
Q 1150 -91 751 415 
Q 353 922 353 1747 
Q 353 2572 751 3078 
Q 1150 3584 1784 3584 
Q 2172 3584 2448 3432 
Q 2725 3281 2906 2969 
z
M 947 1747 
Q 947 1113 1208 752 
Q 1469 391 1925 391 
Q 2381 391 2643 752 
Q 2906 1113 2906 1747 
Q 2906 2381 2643 2742 
Q 2381 3103 1925 3103 
Q 1469 3103 1208 2742 
Q 947 2381 947 1747 
z
" id="DejaVuSans-64" transform="scale(0.015625)"/>
       <path d="M 603 3500 
L 1178 3500 
L 1178 0 
L 603 0 
L 603 3500 
z
M 603 4863 
L 1178 4863 
L 1178 4134 
L 603 4134 
L 603 4863 
z
" id="DejaVuSans-69" transform="scale(0.015625)"/>
       <path d="M 3328 2828 
Q 3544 3216 3844 3400 
Q 4144 3584 4550 3584 
Q 5097 3584 5394 3201 
Q 5691 2819 5691 2113 
L 5691 0 
L 5113 0 
L 5113 2094 
Q 5113 2597 4934 2840 
Q 4756 3084 4391 3084 
Q 3944 3084 3684 2787 
Q 3425 2491 3425 1978 
L 3425 0 
L 2847 0 
L 2847 2094 
Q 2847 2600 2669 2842 
Q 2491 3084 2119 3084 
Q 1678 3084 1418 2786 
Q 1159 2488 1159 1978 
L 1159 0 
L 581 0 
L 581 3500 
L 1159 3500 
L 1159 2956 
Q 1356 3278 1631 3431 
Q 1906 3584 2284 3584 
Q 2666 3584 2933 3390 
Q 3200 3197 3328 2828 
z
" id="DejaVuSans-6d" transform="scale(0.015625)"/>
       <path d="M 3513 2113 
L 3513 0 
L 2938 0 
L 2938 2094 
Q 2938 2591 2744 2837 
Q 2550 3084 2163 3084 
Q 1697 3084 1428 2787 
Q 1159 2491 1159 1978 
L 1159 0 
L 581 0 
L 581 3500 
L 1159 3500 
L 1159 2956 
Q 1366 3272 1645 3428 
Q 1925 3584 2291 3584 
Q 2894 3584 3203 3211 
Q 3513 2838 3513 2113 
z
" id="DejaVuSans-6e" transform="scale(0.015625)"/>
       <path d="M 513 4856 
L 1013 4856 
Q 1481 4119 1714 3412 
Q 1947 2706 1947 2009 
Q 1947 1309 1714 600 
Q 1481 -109 1013 -844 
L 513 -844 
Q 928 -128 1133 580 
Q 1338 1288 1338 2009 
Q 1338 2731 1133 3434 
Q 928 4138 513 4856 
z
" id="DejaVuSans-29" transform="scale(0.015625)"/>
      </defs>
      <use xlink:href="#DejaVuSans-6c"/>
      <use x="27.783203" xlink:href="#DejaVuSans-6f"/>
      <use x="88.964844" xlink:href="#DejaVuSans-67"/>
      <use x="152.441406" xlink:href="#DejaVuSans-31"/>
      <use x="216.064453" xlink:href="#DejaVuSans-30"/>
      <use x="279.6875" xlink:href="#DejaVuSans-28"/>
      <use x="318.701172" xlink:href="#DejaVuSans-23"/>
      <use x="402.490234" xlink:href="#DejaVuSans-20"/>
      <use x="434.277344" xlink:href="#DejaVuSans-66"/>
      <use x="463.982422" xlink:href="#DejaVuSans-2d"/>
      <use x="500.066406" xlink:href="#DejaVuSans-65"/>
      <use x="561.589844" xlink:href="#DejaVuSans-76"/>
      <use x="620.769531" xlink:href="#DejaVuSans-61"/>
      <use x="682.048828" xlink:href="#DejaVuSans-6c"/>
      <use x="709.832031" xlink:href="#DejaVuSans-73"/>
      <use x="761.931641" xlink:href="#DejaVuSans-20"/>
      <use x="793.71875" xlink:href="#DejaVuSans-2f"/>
      <use x="827.410156" xlink:href="#DejaVuSans-20"/>
      <use x="859.197266" xlink:href="#DejaVuSans-64"/>
      <use x="922.673828" xlink:href="#DejaVuSans-69"/>
      <use x="950.457031" xlink:href="#DejaVuSans-6d"/>
      <use x="1047.869141" xlink:href="#DejaVuSans-65"/>
      <use x="1109.392578" xlink:href="#DejaVuSans-6e"/>
      <use x="1172.771484" xlink:href="#DejaVuSans-73"/>
      <use x="1224.871094" xlink:href="#DejaVuSans-69"/>
      <use x="1252.654297" xlink:href="#DejaVuSans-6f"/>
      <use x="1313.835938" xlink:href="#DejaVuSans-6e"/>
      <use x="1377.214844" xlink:href="#DejaVuSans-29"/>
     </g>
    </g>
   </g>
   <g id="matplotlib.axis_2">
    <g id="ytick_1">
     <g id="line2d_17">
      <path clip-path="url(#pbbe79e6236)" d="M 57.6 298.944 
L 338.688 298.944 
" style="fill:none;stroke:#b0b0b0;stroke-linecap:square;stroke-width:0.8;"/>
     </g>
     <g id="line2d_18">
      <defs>
       <path d="M 0 0 
L -3.5 0 
" id="m3e6f2d0085" style="stroke:#000000;stroke-width:0.8;"/>
      </defs>
      <g>
       <use style="stroke:#000000;stroke-width:0.8;" x="57.6" xlink:href="#m3e6f2d0085" y="298.944"/>
      </g>
     </g>
     <g id="text_6">
      <!-- 0.0 -->
      <g transform="translate(25.155 305.02275)scale(0.16 -0.16)">
       <defs>
        <path d="M 684 794 
L 1344 794 
L 1344 0 
L 684 0 
L 684 794 
z
" id="DejaVuSans-2e" transform="scale(0.015625)"/>
       </defs>
       <use xlink:href="#DejaVuSans-30"/>
       <use x="63.623047" xlink:href="#DejaVuSans-2e"/>
       <use x="95.410156" xlink:href="#DejaVuSans-30"/>
      </g>
     </g>
    </g>
    <g id="ytick_2">
     <g id="line2d_19">
      <path clip-path="url(#pbbe79e6236)" d="M 57.6 240.431525 
L 338.688 240.431525 
" style="fill:none;stroke:#b0b0b0;stroke-linecap:square;stroke-width:0.8;"/>
     </g>
     <g id="line2d_20">
      <g>
       <use style="stroke:#000000;stroke-width:0.8;" x="57.6" xlink:href="#m3e6f2d0085" y="240.431525"/>
      </g>
     </g>
     <g id="text_7">
      <!-- 0.2 -->
      <g transform="translate(25.155 246.510275)scale(0.16 -0.16)">
       <use xlink:href="#DejaVuSans-30"/>
       <use x="63.623047" xlink:href="#DejaVuSans-2e"/>
       <use x="95.410156" xlink:href="#DejaVuSans-32"/>
      </g>
     </g>
    </g>
    <g id="ytick_3">
     <g id="line2d_21">
      <path clip-path="url(#pbbe79e6236)" d="M 57.6 181.91905 
L 338.688 181.91905 
" style="fill:none;stroke:#b0b0b0;stroke-linecap:square;stroke-width:0.8;"/>
     </g>
     <g id="line2d_22">
      <g>
       <use style="stroke:#000000;stroke-width:0.8;" x="57.6" xlink:href="#m3e6f2d0085" y="181.91905"/>
      </g>
     </g>
     <g id="text_8">
      <!-- 0.4 -->
      <g transform="translate(25.155 187.9978)scale(0.16 -0.16)">
       <use xlink:href="#DejaVuSans-30"/>
       <use x="63.623047" xlink:href="#DejaVuSans-2e"/>
       <use x="95.410156" xlink:href="#DejaVuSans-34"/>
      </g>
     </g>
    </g>
    <g id="ytick_4">
     <g id="line2d_23">
      <path clip-path="url(#pbbe79e6236)" d="M 57.6 123.406574 
L 338.688 123.406574 
" style="fill:none;stroke:#b0b0b0;stroke-linecap:square;stroke-width:0.8;"/>
     </g>
     <g id="line2d_24">
      <g>
       <use style="stroke:#000000;stroke-width:0.8;" x="57.6" xlink:href="#m3e6f2d0085" y="123.406574"/>
      </g>
     </g>
     <g id="text_9">
      <!-- 0.6 -->
      <g transform="translate(25.155 129.485324)scale(0.16 -0.16)">
       <use xlink:href="#DejaVuSans-30"/>
       <use x="63.623047" xlink:href="#DejaVuSans-2e"/>
       <use x="95.410156" xlink:href="#DejaVuSans-36"/>
      </g>
     </g>
    </g>
    <g id="ytick_5">
     <g id="line2d_25">
      <path clip-path="url(#pbbe79e6236)" d="M 57.6 64.894099 
L 338.688 64.894099 
" style="fill:none;stroke:#b0b0b0;stroke-linecap:square;stroke-width:0.8;"/>
     </g>
     <g id="line2d_26">
      <g>
       <use style="stroke:#000000;stroke-width:0.8;" x="57.6" xlink:href="#m3e6f2d0085" y="64.894099"/>
      </g>
     </g>
     <g id="text_10">
      <!-- 0.8 -->
      <g transform="translate(25.155 70.972849)scale(0.16 -0.16)">
       <defs>
        <path d="M 2034 2216 
Q 1584 2216 1326 1975 
Q 1069 1734 1069 1313 
Q 1069 891 1326 650 
Q 1584 409 2034 409 
Q 2484 409 2743 651 
Q 3003 894 3003 1313 
Q 3003 1734 2745 1975 
Q 2488 2216 2034 2216 
z
M 1403 2484 
Q 997 2584 770 2862 
Q 544 3141 544 3541 
Q 544 4100 942 4425 
Q 1341 4750 2034 4750 
Q 2731 4750 3128 4425 
Q 3525 4100 3525 3541 
Q 3525 3141 3298 2862 
Q 3072 2584 2669 2484 
Q 3125 2378 3379 2068 
Q 3634 1759 3634 1313 
Q 3634 634 3220 271 
Q 2806 -91 2034 -91 
Q 1263 -91 848 271 
Q 434 634 434 1313 
Q 434 1759 690 2068 
Q 947 2378 1403 2484 
z
M 1172 3481 
Q 1172 3119 1398 2916 
Q 1625 2713 2034 2713 
Q 2441 2713 2670 2916 
Q 2900 3119 2900 3481 
Q 2900 3844 2670 4047 
Q 2441 4250 2034 4250 
Q 1625 4250 1398 4047 
Q 1172 3844 1172 3481 
z
" id="DejaVuSans-38" transform="scale(0.015625)"/>
       </defs>
       <use xlink:href="#DejaVuSans-30"/>
       <use x="63.623047" xlink:href="#DejaVuSans-2e"/>
       <use x="95.410156" xlink:href="#DejaVuSans-38"/>
      </g>
     </g>
    </g>
    <g id="ytick_6">
     <g id="line2d_27">
      <path clip-path="url(#pbbe79e6236)" d="M 57.6 6.381624 
L 338.688 6.381624 
" style="fill:none;stroke:#b0b0b0;stroke-linecap:square;stroke-width:0.8;"/>
     </g>
     <g id="line2d_28">
      <g>
       <use style="stroke:#000000;stroke-width:0.8;" x="57.6" xlink:href="#m3e6f2d0085" y="6.381624"/>
      </g>
     </g>
     <g id="text_11">
      <!-- 1.0 -->
      <g transform="translate(25.155 12.460374)scale(0.16 -0.16)">
       <use xlink:href="#DejaVuSans-31"/>
       <use x="63.623047" xlink:href="#DejaVuSans-2e"/>
       <use x="95.410156" xlink:href="#DejaVuSans-30"/>
      </g>
     </g>
    </g>
    <g id="text_12">
     <!-- Fraction of function,target pairs -->
     <g transform="translate(17.619531 285.585)rotate(-90)scale(0.17 -0.17)">
      <defs>
       <path d="M 628 4666 
L 3309 4666 
L 3309 4134 
L 1259 4134 
L 1259 2759 
L 3109 2759 
L 3109 2228 
L 1259 2228 
L 1259 0 
L 628 0 
L 628 4666 
z
" id="DejaVuSans-46" transform="scale(0.015625)"/>
       <path d="M 2631 2963 
Q 2534 3019 2420 3045 
Q 2306 3072 2169 3072 
Q 1681 3072 1420 2755 
Q 1159 2438 1159 1844 
L 1159 0 
L 581 0 
L 581 3500 
L 1159 3500 
L 1159 2956 
Q 1341 3275 1631 3429 
Q 1922 3584 2338 3584 
Q 2397 3584 2469 3576 
Q 2541 3569 2628 3553 
L 2631 2963 
z
" id="DejaVuSans-72" transform="scale(0.015625)"/>
       <path d="M 3122 3366 
L 3122 2828 
Q 2878 2963 2633 3030 
Q 2388 3097 2138 3097 
Q 1578 3097 1268 2742 
Q 959 2388 959 1747 
Q 959 1106 1268 751 
Q 1578 397 2138 397 
Q 2388 397 2633 464 
Q 2878 531 3122 666 
L 3122 134 
Q 2881 22 2623 -34 
Q 2366 -91 2075 -91 
Q 1284 -91 818 406 
Q 353 903 353 1747 
Q 353 2603 823 3093 
Q 1294 3584 2113 3584 
Q 2378 3584 2631 3529 
Q 2884 3475 3122 3366 
z
" id="DejaVuSans-63" transform="scale(0.015625)"/>
       <path d="M 1172 4494 
L 1172 3500 
L 2356 3500 
L 2356 3053 
L 1172 3053 
L 1172 1153 
Q 1172 725 1289 603 
Q 1406 481 1766 481 
L 2356 481 
L 2356 0 
L 1766 0 
Q 1100 0 847 248 
Q 594 497 594 1153 
L 594 3053 
L 172 3053 
L 172 3500 
L 594 3500 
L 594 4494 
L 1172 4494 
z
" id="DejaVuSans-74" transform="scale(0.015625)"/>
       <path d="M 544 1381 
L 544 3500 
L 1119 3500 
L 1119 1403 
Q 1119 906 1312 657 
Q 1506 409 1894 409 
Q 2359 409 2629 706 
Q 2900 1003 2900 1516 
L 2900 3500 
L 3475 3500 
L 3475 0 
L 2900 0 
L 2900 538 
Q 2691 219 2414 64 
Q 2138 -91 1772 -91 
Q 1169 -91 856 284 
Q 544 659 544 1381 
z
M 1991 3584 
L 1991 3584 
z
" id="DejaVuSans-75" transform="scale(0.015625)"/>
       <path d="M 750 794 
L 1409 794 
L 1409 256 
L 897 -744 
L 494 -744 
L 750 256 
L 750 794 
z
" id="DejaVuSans-2c" transform="scale(0.015625)"/>
       <path d="M 1159 525 
L 1159 -1331 
L 581 -1331 
L 581 3500 
L 1159 3500 
L 1159 2969 
Q 1341 3281 1617 3432 
Q 1894 3584 2278 3584 
Q 2916 3584 3314 3078 
Q 3713 2572 3713 1747 
Q 3713 922 3314 415 
Q 2916 -91 2278 -91 
Q 1894 -91 1617 61 
Q 1341 213 1159 525 
z
M 3116 1747 
Q 3116 2381 2855 2742 
Q 2594 3103 2138 3103 
Q 1681 3103 1420 2742 
Q 1159 2381 1159 1747 
Q 1159 1113 1420 752 
Q 1681 391 2138 391 
Q 2594 391 2855 752 
Q 3116 1113 3116 1747 
z
" id="DejaVuSans-70" transform="scale(0.015625)"/>
      </defs>
      <use xlink:href="#DejaVuSans-46"/>
      <use x="50.269531" xlink:href="#DejaVuSans-72"/>
      <use x="91.382812" xlink:href="#DejaVuSans-61"/>
      <use x="152.662109" xlink:href="#DejaVuSans-63"/>
      <use x="207.642578" xlink:href="#DejaVuSans-74"/>
      <use x="246.851562" xlink:href="#DejaVuSans-69"/>
      <use x="274.634766" xlink:href="#DejaVuSans-6f"/>
      <use x="335.816406" xlink:href="#DejaVuSans-6e"/>
      <use x="399.195312" xlink:href="#DejaVuSans-20"/>
      <use x="430.982422" xlink:href="#DejaVuSans-6f"/>
      <use x="492.164062" xlink:href="#DejaVuSans-66"/>
      <use x="527.369141" xlink:href="#DejaVuSans-20"/>
      <use x="559.15625" xlink:href="#DejaVuSans-66"/>
      <use x="594.361328" xlink:href="#DejaVuSans-75"/>
      <use x="657.740234" xlink:href="#DejaVuSans-6e"/>
      <use x="721.119141" xlink:href="#DejaVuSans-63"/>
      <use x="776.099609" xlink:href="#DejaVuSans-74"/>
      <use x="815.308594" xlink:href="#DejaVuSans-69"/>
      <use x="843.091797" xlink:href="#DejaVuSans-6f"/>
      <use x="904.273438" xlink:href="#DejaVuSans-6e"/>
      <use x="967.652344" xlink:href="#DejaVuSans-2c"/>
      <use x="999.439453" xlink:href="#DejaVuSans-74"/>
      <use x="1038.648438" xlink:href="#DejaVuSans-61"/>
      <use x="1099.927734" xlink:href="#DejaVuSans-72"/>
      <use x="1139.291016" xlink:href="#DejaVuSans-67"/>
      <use x="1202.767578" xlink:href="#DejaVuSans-65"/>
      <use x="1264.291016" xlink:href="#DejaVuSans-74"/>
      <use x="1303.5" xlink:href="#DejaVuSans-20"/>
      <use x="1335.287109" xlink:href="#DejaVuSans-70"/>
      <use x="1398.763672" xlink:href="#DejaVuSans-61"/>
      <use x="1460.042969" xlink:href="#DejaVuSans-69"/>
      <use x="1487.826172" xlink:href="#DejaVuSans-72"/>
      <use x="1528.939453" xlink:href="#DejaVuSans-73"/>
     </g>
    </g>
   </g>
   <g id="line2d_29">
    <defs>
     <path d="M 0 1.5 
C 0.397805 1.5 0.77937 1.341951 1.06066 1.06066 
C 1.341951 0.77937 1.5 0.397805 1.5 0 
C 1.5 -0.397805 1.341951 -0.77937 1.06066 -1.06066 
C 0.77937 -1.341951 0.397805 -1.5 0 -1.5 
C -0.397805 -1.5 -0.77937 -1.341951 -1.06066 -1.06066 
C -1.341951 -0.77937 -1.5 -0.397805 -1.5 0 
C -1.5 0.397805 -1.341951 0.77937 -1.06066 1.06066 
C -0.77937 1.341951 -0.397805 1.5 0 1.5 
z
" id="m66b07e66af" style="stroke:#000080;"/>
    </defs>
    <g>
     <use style="fill:#000080;stroke:#000080;" x="165.475853" xlink:href="#m66b07e66af" y="6.381624"/>
     <use style="fill:#000080;stroke:#000080;" x="165.475853" xlink:href="#m66b07e66af" y="6.381624"/>
    </g>
   </g>
   <g id="line2d_30">
    <path d="M 29.53256 298.944 
L 29.53256 290.339224 
L 41.620548 290.339224 
L 41.620548 285.176359 
L 48.691568 285.176359 
L 48.691568 281.734448 
L 53.708537 281.734448 
L 53.708537 280.013493 
L 57.6 280.013493 
L 57.6 279.439842 
L 60.779557 279.439842 
L 60.779557 277.145235 
L 63.467834 277.145235 
L 63.467834 276.571583 
L 65.796525 276.571583 
L 65.796525 274.850628 
L 67.850577 274.850628 
L 67.850577 274.276976 
L 69.687988 274.276976 
L 69.687988 273.129673 
L 74.263433 273.129673 
L 74.263433 272.556021 
L 75.555822 272.556021 
L 75.555822 270.835066 
L 77.884514 270.835066 
L 77.884514 270.261414 
L 82.626842 270.261414 
L 82.626842 269.687762 
L 86.351421 269.687762 
L 86.351421 269.114111 
L 88.846997 269.114111 
L 88.846997 267.966807 
L 89.418828 267.966807 
L 89.418828 266.819504 
L 92.504372 266.819504 
L 92.504372 266.245852 
L 95.125186 266.245852 
L 95.125186 265.6722 
L 95.526106 265.6722 
L 95.526106 264.524897 
L 100.343767 264.524897 
L 100.343767 263.951245 
L 102.597126 263.951245 
L 102.597126 263.377593 
L 105.057436 263.377593 
L 105.057436 262.803942 
L 105.285403 262.803942 
L 105.285403 262.23029 
L 105.51043 262.23029 
L 105.51043 261.082987 
L 107.811151 261.082987 
L 107.811151 260.509335 
L 110.188761 260.509335 
L 110.188761 258.214728 
L 113.453595 258.214728 
L 113.453595 257.641076 
L 114.0117 257.641076 
L 114.0117 257.067425 
L 114.148479 257.067425 
L 114.148479 255.920121 
L 114.284194 255.920121 
L 114.284194 255.346469 
L 115.077025 255.346469 
L 115.077025 254.772818 
L 117.030313 254.772818 
L 117.030313 254.199166 
L 117.259781 254.199166 
L 117.259781 253.625514 
L 117.709852 253.625514 
L 117.709852 253.051863 
L 118.148599 253.051863 
L 118.148599 252.478211 
L 118.470564 252.478211 
L 118.470564 251.330907 
L 119.702083 251.330907 
L 119.80089 249.609952 
L 120.286695 249.609952 
L 120.286695 249.036301 
L 122.018385 249.036301 
L 122.018385 248.462649 
L 122.191052 248.462649 
L 122.191052 247.888997 
L 122.44689 247.888997 
L 122.44689 247.315345 
L 122.865118 247.315345 
L 122.947573 245.59439 
L 124.062793 245.59439 
L 124.139788 241.578828 
L 124.444412 241.578828 
L 124.444412 241.005176 
L 125.961828 241.005176 
L 125.961828 240.431525 
L 126.099688 240.431525 
L 126.168212 239.284221 
L 127.923363 239.284221 
L 127.923363 236.989614 
L 129.06046 236.989614 
L 129.118302 235.268659 
L 129.233413 235.268659 
L 129.233413 234.121356 
L 129.51791 234.121356 
L 129.51791 232.974052 
L 130.45189 232.974052 
L 130.505303 231.253097 
L 130.61164 231.253097 
L 130.61164 230.679446 
L 130.978796 230.679446 
L 130.978796 229.532142 
L 131.590764 229.532142 
L 131.590764 228.95849 
L 131.790072 228.95849 
L 131.790072 227.811187 
L 132.986651 227.811187 
L 132.986651 225.51658 
L 134.062938 225.51658 
L 134.062938 224.942928 
L 134.192921 224.942928 
L 134.279041 223.221973 
L 134.534878 223.221973 
L 134.534878 222.07467 
L 134.911732 222.07467 
L 134.911732 221.501018 
L 135.117629 221.501018 
L 135.117629 220.927366 
L 135.839358 220.927366 
L 135.839358 219.780063 
L 136.112156 219.780063 
L 136.112156 219.206411 
L 136.227776 219.206411 
L 136.266147 216.911804 
L 136.831795 216.911804 
L 136.831795 216.338153 
L 137.053015 216.338153 
L 137.089613 214.043546 
L 137.198951 214.043546 
L 137.198951 212.896242 
L 137.451437 212.896242 
L 137.451437 212.322591 
L 137.980475 212.322591 
L 137.980475 211.748939 
L 138.794909 211.748939 
L 138.861092 210.601635 
L 139.02546 210.601635 
L 139.090775 208.88068 
L 139.477614 208.88068 
L 139.477614 208.307029 
L 139.69937 208.307029 
L 139.69937 206.586073 
L 139.824833 206.586073 
L 139.824833 205.43877 
L 140.195896 205.43877 
L 140.195896 204.865118 
L 140.469102 204.865118 
L 140.529237 201.99686 
L 141.119455 201.99686 
L 141.148448 199.702253 
L 141.235139 199.702253 
L 141.235139 196.833994 
L 141.350061 196.833994 
L 141.435758 195.113039 
L 141.830201 195.113039 
L 141.913576 191.671129 
L 141.968939 191.671129 
L 141.968939 191.097477 
L 142.133981 191.097477 
L 142.133981 190.523825 
L 142.270332 190.523825 
L 142.378651 189.376522 
L 142.405626 189.376522 
L 142.51311 187.655567 
L 143.170282 187.655567 
L 143.221802 184.213656 
L 143.324386 184.213656 
L 143.324386 183.640005 
L 143.803587 183.640005 
L 143.828447 182.492701 
L 144.318346 182.492701 
L 144.318346 181.345398 
L 145.166911 181.345398 
L 145.189903 180.198094 
L 145.598655 180.198094 
L 145.598655 178.477139 
L 145.799493 178.477139 
L 145.799493 177.903487 
L 145.998045 177.903487 
L 145.998045 177.329836 
L 146.259313 177.329836 
L 146.259313 176.756184 
L 146.580487 176.756184 
L 146.686244 175.608881 
L 146.728368 175.608881 
L 146.791364 174.461577 
L 146.895853 174.461577 
L 146.937474 173.314274 
L 147.185137 173.314274 
L 147.185137 172.740622 
L 147.48985 172.740622 
L 147.48985 172.16697 
L 147.690073 172.16697 
L 147.690073 171.593319 
L 147.828875 171.593319 
L 147.907696 169.872363 
L 147.946974 169.872363 
L 148.025265 168.72506 
L 148.23877 168.72506 
L 148.23877 168.151408 
L 148.54473 168.151408 
L 148.601505 167.004105 
L 148.676918 167.004105 
L 148.714503 165.856801 
L 148.78943 165.856801 
L 148.78943 165.28315 
L 149.122675 165.28315 
L 149.214124 162.414891 
L 149.268764 162.414891 
L 149.359452 160.693936 
L 149.575199 160.693936 
L 149.664311 157.825677 
L 149.699829 157.825677 
L 149.699829 157.252026 
L 149.911431 157.252026 
L 150.016276 156.104722 
L 150.051085 156.104722 
L 150.068464 153.810115 
L 150.206871 153.810115 
L 150.275665 152.662812 
L 150.446473 152.662812 
L 150.49739 149.220902 
L 150.799813 149.220902 
L 150.799813 148.64725 
L 150.932558 148.64725 
L 150.965587 146.352643 
L 151.080698 146.352643 
L 151.080698 144.631688 
L 151.276281 144.631688 
L 151.276281 144.058036 
L 151.437608 144.058036 
L 151.437608 142.910733 
L 151.581536 142.910733 
L 151.676833 140.616126 
L 151.740076 140.616126 
L 151.818809 138.321519 
L 151.897188 138.321519 
L 151.897188 137.747867 
L 152.068392 137.747867 
L 152.145659 135.45326 
L 152.481628 135.45326 
L 152.496747 133.732305 
L 152.826082 133.732305 
L 152.826082 133.158653 
L 153.221946 133.158653 
L 153.250915 131.437698 
L 153.380683 131.437698 
L 153.380683 130.864047 
L 153.552218 130.864047 
L 153.580644 125.127529 
L 153.679772 125.127529 
L 153.679772 124.553878 
L 153.918189 124.553878 
L 153.918189 122.259271 
L 154.043103 122.259271 
L 154.043103 121.685619 
L 154.290278 121.685619 
L 154.290278 120.538316 
L 154.520548 120.538316 
L 154.627867 116.522754 
L 154.800864 116.522754 
L 154.800864 115.949102 
L 154.985269 115.949102 
L 154.985269 115.37545 
L 155.258271 115.37545 
L 155.34833 111.359888 
L 155.373976 111.359888 
L 155.373976 110.786236 
L 155.539762 110.786236 
L 155.603109 109.638933 
L 155.653621 109.638933 
L 155.653621 109.065281 
L 155.891575 109.065281 
L 155.928852 106.197023 
L 156.027868 106.197023 
L 156.027868 105.623371 
L 156.187581 105.623371 
L 156.224231 104.476068 
L 156.32159 104.476068 
L 156.32159 103.902416 
L 156.466616 103.902416 
L 156.574599 101.034157 
L 156.681918 101.034157 
L 156.788581 99.886854 
L 156.800392 99.886854 
L 156.894595 97.592247 
L 157.081488 97.592247 
L 157.15106 95.29764 
L 157.369557 95.29764 
L 157.415209 93.576685 
L 157.540141 93.576685 
L 157.540141 93.003033 
L 157.652944 93.003033 
L 157.686643 90.134775 
L 157.854169 90.134775 
L 157.942862 86.119213 
L 158.031107 86.119213 
L 158.075062 84.971909 
L 158.228039 84.971909 
L 158.271501 83.250954 
L 158.508628 83.250954 
L 158.51933 81.529999 
L 158.689678 81.529999 
L 158.774233 79.809044 
L 158.805835 79.809044 
L 158.858379 78.66174 
L 159.004665 78.66174 
L 159.015067 77.514437 
L 159.139412 77.514437 
L 159.139412 76.940785 
L 159.293606 76.940785 
L 159.375289 73.498875 
L 159.51732 73.498875 
L 159.567767 70.630616 
L 159.788013 70.630616 
L 159.807898 68.909661 
L 159.906985 68.909661 
L 159.956318 66.041402 
L 160.025151 66.041402 
L 160.054568 64.320447 
L 160.200913 64.320447 
L 160.297798 61.452189 
L 160.509069 61.452189 
L 160.575759 59.157582 
L 160.736665 59.157582 
L 160.764907 55.14202 
L 160.849359 55.14202 
L 160.849359 53.994716 
L 160.998493 53.994716 
L 161.017045 51.700109 
L 161.127947 51.700109 
L 161.146363 49.405503 
L 161.329454 49.405503 
L 161.429341 48.258199 
L 161.447441 48.258199 
L 161.501628 46.537244 
L 161.582595 46.537244 
L 161.681046 44.242637 
L 161.876297 44.242637 
L 161.973109 41.374379 
L 162.121678 41.374379 
L 162.199823 38.50612 
L 162.243086 38.50612 
L 162.346481 34.490558 
L 162.457805 34.490558 
L 162.457805 33.916906 
L 162.610782 33.916906 
L 162.610782 33.343255 
L 162.745644 33.343255 
L 162.79595 31.622299 
L 162.921083 31.622299 
L 162.987455 25.31213 
L 163.037069 25.31213 
L 163.037069 24.164827 
L 163.152289 24.164827 
L 163.152289 23.017524 
L 163.356164 23.017524 
L 163.461244 20.149265 
L 163.66156 20.149265 
L 163.7569 17.854658 
L 163.804376 17.854658 
L 163.84384 15.560051 
L 164.086545 15.560051 
L 164.086545 14.9864 
L 164.341251 14.9864 
L 164.356568 12.691793 
L 164.53934 12.691793 
L 164.630012 10.970838 
L 164.720216 10.970838 
L 164.765143 9.823534 
L 165.127781 9.823534 
L 165.127781 9.249882 
L 165.367825 9.249882 
L 165.475853 6.381624 
L 338.688 6.381624 
L 338.688 6.381624 
" style="fill:none;stroke:#000080;stroke-linecap:square;stroke-width:1.5;"/>
   </g>
   <g id="line2d_31">
    <defs>
     <path d="M 0 6 
C 1.591219 6 3.117479 5.367802 4.242641 4.242641 
C 5.367802 3.117479 6 1.591219 6 0 
C 6 -1.591219 5.367802 -3.117479 4.242641 -4.242641 
C 3.117479 -5.367802 1.591219 -6 0 -6 
C -1.591219 -6 -3.117479 -5.367802 -4.242641 -4.242641 
C -5.367802 -3.117479 -6 -1.591219 -6 0 
C -6 1.591219 -5.367802 3.117479 -4.242641 4.242641 
C -3.117479 5.367802 -1.591219 6 0 6 
z
" id="me168fd207f" style="stroke:#000080;stroke-width:1.5;"/>
    </defs>
    <g>
     <use style="fill-opacity:0;stroke:#000080;stroke-width:1.5;" x="127.923363" xlink:href="#me168fd207f" y="239.284221"/>
     <use style="fill-opacity:0;stroke:#000080;stroke-width:1.5;" x="156.32159" xlink:href="#me168fd207f" y="103.902416"/>
     <use style="fill-opacity:0;stroke:#000080;stroke-width:1.5;" x="165.475853" xlink:href="#me168fd207f" y="6.955275"/>
     <use style="fill-opacity:0;stroke:#000080;stroke-width:1.5;" x="165.475853" xlink:href="#me168fd207f" y="6.381624"/>
     <use style="fill-opacity:0;stroke:#000080;stroke-width:1.5;" x="165.475853" xlink:href="#me168fd207f" y="6.381624"/>
     <use style="fill-opacity:0;stroke:#000080;stroke-width:1.5;" x="338.688" xlink:href="#me168fd207f" y="6.381624"/>
    </g>
   </g>
   <g id="line2d_32">
    <path style="fill:none;stroke:#000080;stroke-linecap:square;stroke-width:1.5;"/>
    <g/>
   </g>
   <g id="line2d_33">
    <defs>
     <path d="M 0 1.5 
C 0.397805 1.5 0.77937 1.341951 1.06066 1.06066 
C 1.341951 0.77937 1.5 0.397805 1.5 0 
C 1.5 -0.397805 1.341951 -0.77937 1.06066 -1.06066 
C 0.77937 -1.341951 0.397805 -1.5 0 -1.5 
C -0.397805 -1.5 -0.77937 -1.341951 -1.06066 -1.06066 
C -1.341951 -0.77937 -1.5 -0.397805 -1.5 0 
C -1.5 0.397805 -1.341951 0.77937 -1.06066 1.06066 
C -0.77937 1.341951 -0.397805 1.5 0 1.5 
z
" id="m1faed396ca" style="stroke:#ff00ff;"/>
    </defs>
    <g>
     <use style="fill:#ff00ff;stroke:#ff00ff;" x="171.453088" xlink:href="#m1faed396ca" y="6.381624"/>
     <use style="fill:#ff00ff;stroke:#ff00ff;" x="171.453088" xlink:href="#m1faed396ca" y="6.381624"/>
    </g>
   </g>
   <g id="line2d_34">
    <path d="M 136.304433 298.944 
L 136.304433 298.370348 
L 141.148448 298.370348 
L 141.148448 297.796697 
L 142.024126 297.796697 
L 142.024126 297.223045 
L 142.215919 297.223045 
L 142.215919 296.649393 
L 142.566605 296.649393 
L 142.566605 296.075741 
L 142.726112 296.075741 
L 142.726112 295.50209 
L 143.170282 295.50209 
L 143.170282 294.928438 
L 143.502469 294.928438 
L 143.527762 293.207483 
L 143.678752 293.207483 
L 143.703791 292.060179 
L 144.075117 292.060179 
L 144.075117 291.486528 
L 145.02832 291.486528 
L 145.02832 288.618269 
L 145.576196 288.618269 
L 145.576196 287.470966 
L 146.194362 287.470966 
L 146.216039 286.323662 
L 146.345539 286.323662 
L 146.345539 285.75001 
L 146.474085 285.75001 
L 146.474085 285.176359 
L 146.686244 285.176359 
L 146.686244 284.602707 
L 146.937474 284.602707 
L 146.937474 284.029055 
L 147.185137 284.029055 
L 147.287301 282.3081 
L 147.4697 282.3081 
L 147.4697 281.734448 
L 147.70997 281.734448 
L 147.769524 279.439842 
L 147.907696 279.439842 
L 147.907696 278.86619 
L 148.1808 278.86619 
L 148.23877 277.718886 
L 148.296548 277.718886 
L 148.296548 277.145235 
L 148.676918 277.145235 
L 148.714503 274.276976 
L 149.122675 274.276976 
L 149.195872 271.982369 
L 149.664311 271.982369 
L 149.770648 270.261414 
L 149.823575 270.261414 
L 149.823575 267.393156 
L 150.016276 267.393156 
L 150.068464 265.6722 
L 150.172372 265.6722 
L 150.172372 265.098549 
L 150.327083 265.098549 
L 150.327083 264.524897 
L 150.463462 264.524897 
L 150.531253 262.803942 
L 150.632448 262.803942 
L 150.632448 262.23029 
L 150.882897 262.23029 
L 150.965587 259.362031 
L 151.015013 259.362031 
L 151.015013 257.641076 
L 151.324836 257.641076 
L 151.357131 256.493773 
L 151.62925 256.493773 
L 151.708484 253.625514 
L 151.771612 253.625514 
L 151.834513 252.478211 
L 151.928441 252.478211 
L 151.928441 251.904559 
L 152.052897 251.904559 
L 152.09934 249.036301 
L 152.26858 249.036301 
L 152.26858 248.462649 
L 152.421022 248.462649 
L 152.511852 245.020738 
L 152.542024 245.020738 
L 152.542024 243.873435 
L 152.692105 243.873435 
L 152.692105 243.299783 
L 152.885298 243.299783 
L 152.885298 242.15248 
L 153.003132 242.15248 
L 153.003132 241.005176 
L 153.192929 241.005176 
L 153.265382 237.563266 
L 153.351929 237.563266 
L 153.351929 236.989614 
L 153.566437 236.989614 
L 153.637357 234.695008 
L 153.834414 234.695008 
L 153.932113 231.826749 
L 154.070741 231.826749 
L 154.070741 231.253097 
L 154.249325 231.253097 
L 154.249325 230.105794 
L 154.385464 230.105794 
L 154.385464 229.532142 
L 154.587699 229.532142 
L 154.68128 228.384839 
L 154.734529 228.384839 
L 154.747816 227.237535 
L 154.85375 227.237535 
L 154.945917 225.51658 
L 154.998366 225.51658 
L 154.998366 224.369277 
L 155.28405 224.369277 
L 155.28405 222.07467 
L 155.399584 222.07467 
L 155.437927 220.927366 
L 155.565128 220.927366 
L 155.666226 217.485456 
L 155.879132 217.485456 
L 155.928852 214.043546 
L 156.382164 214.043546 
L 156.49067 212.322591 
L 156.502685 212.322591 
L 156.610446 207.159725 
L 156.658127 207.159725 
L 156.705677 205.43877 
L 156.788581 205.43877 
L 156.812195 204.291467 
L 157.104709 204.291467 
L 157.174189 201.99686 
L 157.369557 201.99686 
L 157.44937 200.275904 
L 157.517493 200.275904 
L 157.517493 199.702253 
L 157.652944 199.702253 
L 157.753847 193.965736 
L 157.953917 193.965736 
L 157.976006 191.671129 
L 158.28235 191.671129 
L 158.293192 189.950174 
L 158.476481 189.950174 
L 158.562073 183.640005 
L 158.647247 183.640005 
L 158.710855 181.91905 
L 158.774233 181.91905 
L 158.774233 181.345398 
L 158.9003 181.345398 
L 159.004665 179.624443 
L 159.446449 179.624443 
L 159.51732 177.903487 
L 159.557689 177.903487 
L 159.597964 175.035229 
L 159.778062 175.035229 
L 159.857512 173.314274 
L 160.103486 173.314274 
L 160.103486 171.593319 
L 160.249422 171.593319 
L 160.31711 165.856801 
L 160.442124 165.856801 
L 160.537682 163.562195 
L 160.556731 163.562195 
L 160.556731 162.988543 
L 160.736665 162.988543 
L 160.764907 161.267588 
L 160.858717 161.267588 
L 160.886762 160.120284 
L 160.970627 160.120284 
L 160.979921 158.399329 
L 161.081824 158.399329 
L 161.118732 156.678374 
L 161.201492 156.678374 
L 161.26559 154.383767 
L 161.474555 154.383767 
L 161.582595 149.794553 
L 161.64531 149.794553 
L 161.654251 148.64725 
L 161.814408 148.64725 
L 161.920369 143.484384 
L 161.981883 143.484384 
L 161.981883 142.910733 
L 162.095552 142.910733 
L 162.095552 142.337081 
L 162.208484 142.337081 
L 162.208484 141.763429 
L 162.337888 141.763429 
L 162.372234 138.895171 
L 162.474869 138.895171 
L 162.52596 136.600564 
L 162.737246 136.600564 
L 162.787576 134.305957 
L 162.946002 134.305957 
L 163.053576 128.56944 
L 163.086542 128.56944 
L 163.168687 126.274833 
L 163.209614 126.274833 
L 163.209614 125.701181 
L 163.372371 125.701181 
L 163.461244 123.980226 
L 163.517565 123.980226 
L 163.589711 122.259271 
L 163.709295 122.259271 
L 163.780654 118.243709 
L 163.953867 118.243709 
L 164.008622 115.37545 
L 164.148635 115.37545 
L 164.202782 111.93354 
L 164.348911 111.93354 
L 164.455807 108.49163 
L 164.531763 108.49163 
L 164.531763 107.917978 
L 164.787563 107.917978 
L 164.891812 106.197023 
L 164.906654 106.197023 
L 164.943704 99.313202 
L 165.054383 99.313202 
L 165.127781 97.018595 
L 165.208163 97.018595 
L 165.317182 95.29764 
L 165.382267 95.29764 
L 165.483031 90.708426 
L 165.497378 90.708426 
L 165.54035 88.987471 
L 165.647318 88.987471 
L 165.668633 86.692864 
L 165.76776 86.692864 
L 165.873346 84.398257 
L 165.929399 84.398257 
L 166.027059 81.529999 
L 166.040966 81.529999 
L 166.040966 80.956347 
L 166.165632 80.956347 
L 166.165632 80.382695 
L 166.337313 80.382695 
L 166.385083 78.088089 
L 166.473452 78.088089 
L 166.581603 74.646178 
L 166.668984 74.646178 
L 166.682389 73.498875 
L 166.835805 73.498875 
L 166.915315 71.77792 
L 166.994465 71.77792 
L 167.06015 68.336009 
L 167.151695 68.336009 
L 167.236273 64.894099 
L 167.346259 64.894099 
L 167.359153 63.173144 
L 167.487573 63.173144 
L 167.538677 59.157582 
L 167.621403 59.157582 
L 167.710056 54.568368 
L 167.735303 54.568368 
L 167.817104 52.847413 
L 167.848464 52.847413 
L 167.848464 52.273761 
L 167.960895 52.273761 
L 168.029248 49.405503 
L 168.115857 49.405503 
L 168.202038 47.684547 
L 168.269454 47.684547 
L 168.348793 44.242637 
L 168.433833 44.242637 
L 168.518461 39.653423 
L 168.578658 39.653423 
L 168.632659 37.358817 
L 168.722291 37.358817 
L 168.746115 33.916906 
L 168.870661 33.916906 
L 168.882476 31.048648 
L 169.029495 31.048648 
L 169.029495 30.474996 
L 169.157854 30.474996 
L 169.192698 28.180389 
L 169.314106 28.180389 
L 169.36588 26.459434 
L 169.440395 26.459434 
L 169.514592 23.591175 
L 169.571453 23.591175 
L 169.650749 20.149265 
L 169.886494 20.149265 
L 169.886494 19.001962 
L 170.168537 19.001962 
L 170.206895 14.9864 
L 170.288808 14.9864 
L 170.354063 13.265444 
L 170.435289 13.265444 
L 170.435289 12.691793 
L 170.591263 12.691793 
L 170.591263 12.118141 
L 170.740545 12.118141 
L 170.804134 10.970838 
L 171.050982 10.970838 
L 171.113451 9.823534 
L 171.361114 9.823534 
L 171.453088 6.381624 
L 338.688 6.381624 
L 338.688 6.381624 
" style="fill:none;stroke:#ff00ff;stroke-linecap:square;stroke-width:1.5;"/>
   </g>
   <g id="line2d_35">
    <defs>
     <path d="M 0 8.485281 
L 5.091169 0 
L 0 -8.485281 
L -5.091169 0 
z
" id="m09d40373c9" style="stroke:#ff00ff;stroke-linejoin:miter;stroke-width:1.5;"/>
    </defs>
    <g>
     <use style="fill-opacity:0;stroke:#ff00ff;stroke-linejoin:miter;stroke-width:1.5;" x="155.928852" xlink:href="#m09d40373c9" y="215.764501"/>
     <use style="fill-opacity:0;stroke:#ff00ff;stroke-linejoin:miter;stroke-width:1.5;" x="167.848464" xlink:href="#m09d40373c9" y="52.273761"/>
     <use style="fill-opacity:0;stroke:#ff00ff;stroke-linejoin:miter;stroke-width:1.5;" x="171.453088" xlink:href="#m09d40373c9" y="6.381624"/>
     <use style="fill-opacity:0;stroke:#ff00ff;stroke-linejoin:miter;stroke-width:1.5;" x="171.453088" xlink:href="#m09d40373c9" y="6.381624"/>
     <use style="fill-opacity:0;stroke:#ff00ff;stroke-linejoin:miter;stroke-width:1.5;" x="338.688" xlink:href="#m09d40373c9" y="6.381624"/>
    </g>
   </g>
   <g id="line2d_36">
    <path style="fill:none;stroke:#ff00ff;stroke-linecap:square;stroke-width:1.5;"/>
    <g/>
   </g>
   <g id="line2d_37">
    <defs>
     <path d="M 0 1.5 
C 0.397805 1.5 0.77937 1.341951 1.06066 1.06066 
C 1.341951 0.77937 1.5 0.397805 1.5 0 
C 1.5 -0.397805 1.341951 -0.77937 1.06066 -1.06066 
C 0.77937 -1.341951 0.397805 -1.5 0 -1.5 
C -0.397805 -1.5 -0.77937 -1.341951 -1.06066 -1.06066 
C -1.341951 -0.77937 -1.5 -0.397805 -1.5 0 
C -1.5 0.397805 -1.341951 0.77937 -1.06066 1.06066 
C -0.77937 1.341951 -0.397805 1.5 0 1.5 
z
" id="mf0c3367a42" style="stroke:#ff7500;"/>
    </defs>
    <g>
     <use style="fill:#ff7500;stroke:#ff7500;" x="229.369415" xlink:href="#mf0c3367a42" y="247.315345"/>
     <use style="fill:#ff7500;stroke:#ff7500;" x="229.369415" xlink:href="#mf0c3367a42" y="247.315345"/>
    </g>
   </g>
   <g id="line2d_38">
    <path d="M 29.53256 298.944 
L 29.53256 298.370348 
L 60.779557 298.370348 
L 60.779557 297.796697 
L 72.867545 297.796697 
L 72.867545 297.223045 
L 86.351421 297.223045 
L 86.351421 296.649393 
L 87.009585 296.649393 
L 87.009585 296.075741 
L 87.643811 296.075741 
L 87.643811 294.928438 
L 89.418828 294.928438 
L 89.418828 293.781135 
L 90.509138 293.781135 
L 90.509138 293.207483 
L 96.301313 293.207483 
L 96.301313 292.633831 
L 98.100772 292.633831 
L 98.100772 291.486528 
L 100.343767 291.486528 
L 100.343767 290.912876 
L 100.641881 290.912876 
L 100.641881 290.339224 
L 106.382575 290.339224 
L 106.382575 289.765573 
L 108.764355 289.765573 
L 108.764355 289.191921 
L 110.358901 289.191921 
L 110.358901 288.044617 
L 114.552496 288.044617 
L 114.552496 287.470966 
L 117.820578 287.470966 
L 117.820578 286.897314 
L 118.256582 286.897314 
L 118.256582 286.323662 
L 119.89914 286.323662 
L 119.89914 285.75001 
L 121.128432 285.75001 
L 121.128432 285.176359 
L 121.489881 285.176359 
L 121.489881 284.602707 
L 124.292765 284.602707 
L 124.292765 284.029055 
L 126.50685 284.029055 
L 126.50685 283.455404 
L 127.923363 283.455404 
L 127.923363 282.881752 
L 131.185181 282.881752 
L 131.185181 282.3081 
L 131.439773 282.3081 
L 131.439773 281.734448 
L 131.839545 281.734448 
L 131.839545 281.160797 
L 132.422528 281.160797 
L 132.422528 280.587145 
L 133.078923 280.587145 
L 133.078923 280.013493 
L 133.888106 280.013493 
L 133.888106 279.439842 
L 136.227776 279.439842 
L 136.227776 278.86619 
L 137.162581 278.86619 
L 137.162581 278.292538 
L 140.011351 278.292538 
L 140.011351 277.718886 
L 140.973763 277.718886 
L 140.973763 277.145235 
L 141.71841 277.145235 
L 141.71841 276.571583 
L 142.270332 276.571583 
L 142.270332 275.997931 
L 143.451774 275.997931 
L 143.451774 274.850628 
L 145.281568 274.850628 
L 145.281568 274.276976 
L 147.4697 274.276976 
L 147.4697 273.703324 
L 147.70997 273.703324 
L 147.70997 273.129673 
L 148.23877 273.129673 
L 148.23877 272.556021 
L 148.54473 272.556021 
L 148.54473 271.982369 
L 149.359452 271.982369 
L 149.359452 271.408718 
L 150.068464 271.408718 
L 150.068464 270.261414 
L 152.083873 270.261414 
L 152.083873 269.687762 
L 155.590458 269.687762 
L 155.590458 269.114111 
L 156.187581 269.114111 
L 156.187581 268.540459 
L 156.574599 268.540459 
L 156.574599 267.966807 
L 156.953214 267.966807 
L 156.953214 267.393156 
L 157.104709 267.393156 
L 157.104709 266.819504 
L 159.797958 266.819504 
L 159.797958 266.245852 
L 160.566247 266.245852 
L 160.566247 265.6722 
L 162.095552 265.6722 
L 162.130378 264.524897 
L 163.356164 264.524897 
L 163.356164 263.951245 
L 165.171671 263.951245 
L 165.171671 263.377593 
L 165.454301 263.377593 
L 165.454301 262.803942 
L 167.164734 262.803942 
L 167.164734 262.23029 
L 168.140524 262.23029 
L 168.140524 261.656638 
L 169.250616 261.656638 
L 169.250616 261.082987 
L 170.9621 261.082987 
L 170.9621 260.509335 
L 171.49381 260.509335 
L 171.49381 259.935683 
L 173.109669 259.935683 
L 173.109669 259.362031 
L 173.625648 259.362031 
L 173.625648 258.78838 
L 174.18354 258.78838 
L 174.18354 258.214728 
L 177.266964 258.214728 
L 177.266964 257.067425 
L 185.54182 257.067425 
L 185.54182 255.346469 
L 189.398715 255.346469 
L 189.398715 254.772818 
L 189.759193 254.772818 
L 189.759193 253.625514 
L 194.28957 253.625514 
L 194.28957 253.051863 
L 196.725243 253.051863 
L 196.725243 252.478211 
L 196.962903 252.478211 
L 196.962903 251.904559 
L 202.045841 251.904559 
L 202.045841 251.330907 
L 204.432197 251.330907 
L 204.432197 250.757256 
L 205.95916 250.757256 
L 205.95916 250.183604 
L 209.167933 250.183604 
L 209.167933 249.609952 
L 211.789005 249.609952 
L 211.789005 249.036301 
L 216.219207 249.036301 
L 216.219207 248.462649 
L 219.804724 248.462649 
L 219.804724 247.888997 
L 229.369415 247.888997 
L 229.369415 247.315345 
L 338.688 247.315345 
L 338.688 247.315345 
" style="fill:none;stroke:#ff7500;stroke-linecap:square;stroke-width:1.5;"/>
   </g>
   <g id="line2d_39">
    <defs>
     <path d="M 0 -6 
L -1.347084 -1.854102 
L -5.706339 -1.854102 
L -2.179628 0.708204 
L -3.526712 4.854102 
L -0 2.291796 
L 3.526712 4.854102 
L 2.179628 0.708204 
L 5.706339 -1.854102 
L 1.347084 -1.854102 
z
" id="m690df6f891" style="stroke:#ff7500;stroke-linejoin:bevel;stroke-width:1.5;"/>
    </defs>
    <g>
     <use style="fill-opacity:0;stroke:#ff7500;stroke-linejoin:bevel;stroke-width:1.5;" x="114.552496" xlink:href="#m690df6f891" y="288.044617"/>
     <use style="fill-opacity:0;stroke:#ff7500;stroke-linejoin:bevel;stroke-width:1.5;" x="163.356164" xlink:href="#m690df6f891" y="263.951245"/>
     <use style="fill-opacity:0;stroke:#ff7500;stroke-linejoin:bevel;stroke-width:1.5;" x="229.369415" xlink:href="#m690df6f891" y="247.888997"/>
     <use style="fill-opacity:0;stroke:#ff7500;stroke-linejoin:bevel;stroke-width:1.5;" x="229.369415" xlink:href="#m690df6f891" y="247.315345"/>
     <use style="fill-opacity:0;stroke:#ff7500;stroke-linejoin:bevel;stroke-width:1.5;" x="229.369415" xlink:href="#m690df6f891" y="247.315345"/>
     <use style="fill-opacity:0;stroke:#ff7500;stroke-linejoin:bevel;stroke-width:1.5;" x="338.688" xlink:href="#m690df6f891" y="247.315345"/>
    </g>
   </g>
   <g id="line2d_40">
    <path style="fill:none;stroke:#ff7500;stroke-linecap:square;stroke-width:1.5;"/>
    <g/>
   </g>
   <g id="line2d_41">
    <path clip-path="url(#pbbe79e6236)" d="M 178.066286 257.067425 
" style="fill:none;stroke:#ff7500;stroke-linecap:square;stroke-width:1.5;"/>
    <defs>
     <path d="M -12 12 
L 12 -12 
M -12 -12 
L 12 12 
" id="m68beedde08" style="stroke:#ff7500;"/>
    </defs>
    <g clip-path="url(#pbbe79e6236)">
     <use style="fill:#ff7500;stroke:#ff7500;" x="178.066286" xlink:href="#m68beedde08" y="257.067425"/>
    </g>
   </g>
   <g id="line2d_42">
    <defs>
     <path d="M 0 1.5 
C 0.397805 1.5 0.77937 1.341951 1.06066 1.06066 
C 1.341951 0.77937 1.5 0.397805 1.5 0 
C 1.5 -0.397805 1.341951 -0.77937 1.06066 -1.06066 
C 0.77937 -1.341951 0.397805 -1.5 0 -1.5 
C -0.397805 -1.5 -0.77937 -1.341951 -1.06066 -1.06066 
C -1.341951 -0.77937 -1.5 -0.397805 -1.5 0 
C -1.5 0.397805 -1.341951 0.77937 -1.06066 1.06066 
C -0.77937 1.341951 -0.397805 1.5 0 1.5 
z
" id="mda8d82c9db" style="stroke:#6495ed;"/>
    </defs>
    <g>
     <use style="fill:#6495ed;stroke:#6495ed;" x="246.594444" xlink:href="#mda8d82c9db" y="253.051863"/>
     <use style="fill:#6495ed;stroke:#6495ed;" x="246.594444" xlink:href="#mda8d82c9db" y="253.051863"/>
    </g>
   </g>
   <g id="line2d_43">
    <path d="M 82.626842 298.944 
L 82.626842 298.370348 
L 86.351421 298.370348 
L 86.351421 297.796697 
L 91.535274 297.796697 
L 91.535274 297.223045 
L 102.859376 297.223045 
L 102.859376 296.649393 
L 105.057436 296.649393 
L 105.057436 296.075741 
L 105.732589 296.075741 
L 105.732589 295.50209 
L 110.188761 295.50209 
L 110.188761 294.928438 
L 114.685115 294.928438 
L 114.685115 294.354786 
L 115.205729 294.354786 
L 115.205729 293.781135 
L 117.145424 293.781135 
L 117.145424 293.207483 
L 117.259781 293.207483 
L 117.259781 292.060179 
L 121.400219 292.060179 
L 121.400219 291.486528 
L 121.667835 291.486528 
L 121.667835 290.912876 
L 122.018385 290.912876 
L 122.018385 289.765573 
L 123.751369 289.765573 
L 123.751369 289.191921 
L 125.892487 289.191921 
L 125.892487 288.618269 
L 126.030894 288.618269 
L 126.099688 287.470966 
L 126.372183 287.470966 
L 126.372183 286.897314 
L 127.54831 286.897314 
L 127.54831 286.323662 
L 128.107907 286.323662 
L 128.107907 285.75001 
L 129.404667 285.75001 
L 129.404667 285.176359 
L 130.558552 285.176359 
L 130.558552 284.602707 
L 131.185181 284.602707 
L 131.185181 284.029055 
L 132.612604 284.029055 
L 132.612604 283.455404 
L 134.407429 283.455404 
L 134.492498 281.734448 
L 134.61933 281.734448 
L 134.61933 281.160797 
L 135.361539 281.160797 
L 135.361539 280.587145 
L 138.794909 280.587145 
L 138.794909 280.013493 
L 140.378508 280.013493 
L 140.378508 279.439842 
L 141.858037 279.439842 
L 141.858037 278.86619 
L 143.976867 278.86619 
L 143.976867 278.292538 
L 145.120836 278.292538 
L 145.120836 277.718886 
L 145.576196 277.718886 
L 145.576196 277.145235 
L 146.538004 277.145235 
L 146.538004 276.571583 
L 148.161434 276.571583 
L 148.1808 275.42428 
L 149.593058 275.42428 
L 149.593058 274.850628 
L 150.016276 274.850628 
L 150.016276 274.276976 
L 150.51433 274.276976 
L 150.51433 273.703324 
L 152.283884 273.703324 
L 152.283884 273.129673 
L 153.120174 273.129673 
L 153.120174 272.556021 
L 155.245367 272.556021 
L 155.245367 271.982369 
L 155.641006 271.982369 
L 155.641006 271.408718 
L 157.415209 271.408718 
L 157.415209 270.835066 
L 158.668475 270.835066 
L 158.668475 270.261414 
L 159.405822 270.261414 
L 159.405822 269.687762 
L 160.278464 269.687762 
L 160.278464 269.114111 
L 162.104265 269.114111 
L 162.112973 267.966807 
L 162.854457 267.966807 
L 162.854457 267.393156 
L 165.461488 267.393156 
L 165.461488 266.819504 
L 167.960895 266.819504 
L 167.960895 266.245852 
L 168.722291 266.245852 
L 168.722291 265.6722 
L 171.024887 265.6722 
L 171.024887 265.098549 
L 172.62567 265.098549 
L 172.62567 264.524897 
L 172.946705 264.524897 
L 172.946705 263.951245 
L 174.074257 263.951245 
L 174.087407 262.803942 
L 175.896315 262.803942 
L 175.896315 262.23029 
L 177.175439 262.23029 
L 177.175439 261.656638 
L 185.257801 261.656638 
L 185.257801 260.509335 
L 187.477329 260.509335 
L 187.477329 259.935683 
L 189.103018 259.935683 
L 189.103018 259.362031 
L 195.487068 259.362031 
L 195.487068 258.78838 
L 196.531544 258.78838 
L 196.531544 258.214728 
L 199.840672 258.214728 
L 199.840672 257.641076 
L 201.096283 257.641076 
L 201.096283 257.067425 
L 221.230404 257.067425 
L 221.230404 256.493773 
L 222.639494 256.493773 
L 222.639494 255.920121 
L 226.290246 255.920121 
L 226.290246 254.772818 
L 227.355051 254.772818 
L 227.355051 254.199166 
L 231.878851 254.199166 
L 231.878851 253.625514 
L 246.594444 253.625514 
L 246.594444 253.051863 
L 338.688 253.051863 
L 338.688 253.051863 
" style="fill:none;stroke:#6495ed;stroke-linecap:square;stroke-width:1.5;"/>
   </g>
   <g id="line2d_44">
    <defs>
     <path d="M -0 6 
L 6 -6 
L -6 -6 
z
" id="m8910301543" style="stroke:#6495ed;stroke-linejoin:miter;stroke-width:1.5;"/>
    </defs>
    <g>
     <use style="fill-opacity:0;stroke:#6495ed;stroke-linejoin:miter;stroke-width:1.5;" x="189.103018" xlink:href="#m8910301543" y="259.362031"/>
     <use style="fill-opacity:0;stroke:#6495ed;stroke-linejoin:miter;stroke-width:1.5;" x="246.594444" xlink:href="#m8910301543" y="253.625514"/>
     <use style="fill-opacity:0;stroke:#6495ed;stroke-linejoin:miter;stroke-width:1.5;" x="246.594444" xlink:href="#m8910301543" y="253.051863"/>
     <use style="fill-opacity:0;stroke:#6495ed;stroke-linejoin:miter;stroke-width:1.5;" x="246.594444" xlink:href="#m8910301543" y="253.051863"/>
     <use style="fill-opacity:0;stroke:#6495ed;stroke-linejoin:miter;stroke-width:1.5;" x="338.688" xlink:href="#m8910301543" y="253.051863"/>
    </g>
   </g>
   <g id="line2d_45">
    <path style="fill:none;stroke:#6495ed;stroke-linecap:square;stroke-width:1.5;"/>
    <g/>
   </g>
   <g id="line2d_46">
    <path clip-path="url(#pbbe79e6236)" d="M 178.066286 261.656638 
" style="fill:none;stroke:#6495ed;stroke-linecap:square;stroke-width:1.5;"/>
    <defs>
     <path d="M -12 12 
L 12 -12 
M -12 -12 
L 12 12 
" id="m8e70cf6cef" style="stroke:#6495ed;"/>
    </defs>
    <g clip-path="url(#pbbe79e6236)">
     <use style="fill:#6495ed;stroke:#6495ed;" x="178.066286" xlink:href="#m8e70cf6cef" y="261.656638"/>
    </g>
   </g>
   <g id="line2d_47">
    <defs>
     <path d="M 0 1.5 
C 0.397805 1.5 0.77937 1.341951 1.06066 1.06066 
C 1.341951 0.77937 1.5 0.397805 1.5 0 
C 1.5 -0.397805 1.341951 -0.77937 1.06066 -1.06066 
C 0.77937 -1.341951 0.397805 -1.5 0 -1.5 
C -0.397805 -1.5 -0.77937 -1.341951 -1.06066 -1.06066 
C -1.341951 -0.77937 -1.5 -0.397805 -1.5 0 
C -1.5 0.397805 -1.341951 0.77937 -1.06066 1.06066 
C -0.77937 1.341951 -0.397805 1.5 0 1.5 
z
" id="m8a8b74f226" style="stroke:#ff0000;"/>
    </defs>
    <g>
     <use style="fill:#ff0000;stroke:#ff0000;" x="128.168991" xlink:href="#m8a8b74f226" y="6.381624"/>
     <use style="fill:#ff0000;stroke:#ff0000;" x="128.168991" xlink:href="#m8a8b74f226" y="6.381624"/>
    </g>
   </g>
   <g id="line2d_48">
    <path d="M 29.53256 298.944 
L 29.53256 293.781135 
L 41.620548 293.781135 
L 41.620548 291.486528 
L 48.691568 291.486528 
L 48.691568 288.044617 
L 53.708537 288.044617 
L 53.708537 286.897314 
L 60.779557 286.897314 
L 60.779557 286.323662 
L 67.850577 286.323662 
L 67.850577 285.75001 
L 71.35013 285.75001 
L 71.35013 284.602707 
L 74.263433 284.602707 
L 74.263433 284.029055 
L 78.941764 284.029055 
L 78.941764 283.455404 
L 87.009585 283.455404 
L 87.009585 282.3081 
L 87.643811 282.3081 
L 87.643811 281.734448 
L 88.255778 281.734448 
L 88.255778 280.587145 
L 88.846997 280.587145 
L 88.846997 279.439842 
L 90.509138 279.439842 
L 90.509138 278.292538 
L 91.029752 278.292538 
L 91.029752 277.718886 
L 91.535274 277.718886 
L 91.535274 276.571583 
L 93.863965 276.571583 
L 93.863965 275.997931 
L 94.714831 275.997931 
L 94.714831 275.42428 
L 97.755429 275.42428 
L 97.755429 274.850628 
L 98.100772 274.850628 
L 98.100772 268.540459 
L 98.43941 268.540459 
L 98.43941 267.393156 
L 99.41757 267.393156 
L 99.41757 266.245852 
L 99.731799 266.245852 
L 99.731799 263.951245 
L 100.040467 263.951245 
L 100.040467 263.377593 
L 100.641881 263.377593 
L 100.641881 258.214728 
L 100.934985 258.214728 
L 100.934985 257.641076 
L 101.785851 257.641076 
L 101.785851 256.493773 
L 102.859376 256.493773 
L 102.859376 255.346469 
L 105.057436 255.346469 
L 105.057436 220.927366 
L 105.285403 220.927366 
L 105.285403 200.849556 
L 105.51043 200.849556 
L 105.51043 197.981298 
L 105.732589 197.981298 
L 105.732589 195.686691 
L 105.951954 195.686691 
L 105.951954 167.577757 
L 106.168594 167.577757 
L 106.168594 167.004105 
L 106.382575 167.004105 
L 106.382575 136.600564 
L 107.213174 136.600564 
L 107.213174 136.026912 
L 108.006005 136.026912 
L 108.006005 119.964664 
L 110.016944 119.964664 
L 110.016944 105.049719 
L 110.188761 105.049719 
L 110.188761 103.902416 
L 111.974805 103.902416 
L 111.974805 102.755112 
L 112.128456 102.755112 
L 112.128456 101.607809 
L 113.022974 101.607809 
L 113.022974 101.034157 
L 113.167699 101.034157 
L 113.167699 99.313202 
L 114.0117 99.313202 
L 114.0117 98.73955 
L 114.816733 98.73955 
L 114.816733 83.250954 
L 115.711251 83.250954 
L 115.711251 70.056964 
L 116.081002 70.056964 
L 116.081002 41.374379 
L 116.323218 41.374379 
L 116.323218 23.591175 
L 118.039942 23.591175 
L 118.039942 23.017524 
L 122.191052 23.017524 
L 122.191052 22.443872 
L 126.573795 22.443872 
L 126.573795 21.87022 
L 128.168991 21.87022 
L 128.168991 6.381624 
L 338.688 6.381624 
" style="fill:none;stroke:#ff0000;stroke-linecap:square;stroke-width:1.5;"/>
   </g>
   <g id="line2d_49">
    <defs>
     <path d="M 0 -6 
L -5.196152 -3 
L -5.196152 3 
L -0 6 
L 5.196152 3 
L 5.196152 -3 
z
" id="mc5a8ae0f64" style="stroke:#ff0000;stroke-linejoin:miter;stroke-width:1.5;"/>
    </defs>
    <g>
     <use style="fill-opacity:0;stroke:#ff0000;stroke-linejoin:miter;stroke-width:1.5;" x="105.057436" xlink:href="#mc5a8ae0f64" y="255.346469"/>
     <use style="fill-opacity:0;stroke:#ff0000;stroke-linejoin:miter;stroke-width:1.5;" x="115.711251" xlink:href="#mc5a8ae0f64" y="70.056964"/>
     <use style="fill-opacity:0;stroke:#ff0000;stroke-linejoin:miter;stroke-width:1.5;" x="128.168991" xlink:href="#mc5a8ae0f64" y="21.87022"/>
     <use style="fill-opacity:0;stroke:#ff0000;stroke-linejoin:miter;stroke-width:1.5;" x="128.168991" xlink:href="#mc5a8ae0f64" y="6.381624"/>
     <use style="fill-opacity:0;stroke:#ff0000;stroke-linejoin:miter;stroke-width:1.5;" x="128.168991" xlink:href="#mc5a8ae0f64" y="6.381624"/>
     <use style="fill-opacity:0;stroke:#ff0000;stroke-linejoin:miter;stroke-width:1.5;" x="338.688" xlink:href="#mc5a8ae0f64" y="6.381624"/>
    </g>
   </g>
   <g id="line2d_50">
    <path style="fill:none;stroke:#ff0000;stroke-linecap:square;stroke-width:1.5;"/>
    <g/>
   </g>
   <g id="line2d_51">
    <path d="M 338.688 253.051863 
L 369.60768 293.092752 
" style="fill:none;stroke:#6495ed;stroke-linecap:square;stroke-width:1.5;"/>
    <g>
     <use style="fill-opacity:0;stroke:#6495ed;stroke-linejoin:miter;stroke-width:1.5;" x="338.688" xlink:href="#m8910301543" y="253.051863"/>
     <use style="fill-opacity:0;stroke:#6495ed;stroke-linejoin:miter;stroke-width:1.5;" x="369.60768" xlink:href="#m8910301543" y="293.092752"/>
    </g>
   </g>
   <g id="line2d_52">
    <path d="M 338.688 247.315345 
L 369.60768 222.877782 
" style="fill:none;stroke:#ff7500;stroke-linecap:square;stroke-width:1.5;"/>
    <g>
     <use style="fill-opacity:0;stroke:#ff7500;stroke-linejoin:bevel;stroke-width:1.5;" x="338.688" xlink:href="#m690df6f891" y="247.315345"/>
     <use style="fill-opacity:0;stroke:#ff7500;stroke-linejoin:bevel;stroke-width:1.5;" x="369.60768" xlink:href="#m690df6f891" y="222.877782"/>
    </g>
   </g>
   <g id="line2d_53">
    <path d="M 338.688 6.381624 
L 369.60768 152.662812 
" style="fill:none;stroke:#ff00ff;stroke-linecap:square;stroke-width:1.5;"/>
    <g>
     <use style="fill-opacity:0;stroke:#ff00ff;stroke-linejoin:miter;stroke-width:1.5;" x="338.688" xlink:href="#m09d40373c9" y="6.381624"/>
     <use style="fill-opacity:0;stroke:#ff00ff;stroke-linejoin:miter;stroke-width:1.5;" x="369.60768" xlink:href="#m09d40373c9" y="152.662812"/>
    </g>
   </g>
   <g id="line2d_54">
    <path d="M 338.688 6.381624 
L 369.60768 82.447842 
" style="fill:none;stroke:#000080;stroke-linecap:square;stroke-width:1.5;"/>
    <g>
     <use style="fill-opacity:0;stroke:#000080;stroke-width:1.5;" x="338.688" xlink:href="#me168fd207f" y="6.381624"/>
     <use style="fill-opacity:0;stroke:#000080;stroke-width:1.5;" x="369.60768" xlink:href="#me168fd207f" y="82.447842"/>
    </g>
   </g>
   <g id="line2d_55">
    <path d="M 338.688 6.381624 
L 369.60768 12.232871 
" style="fill:none;stroke:#ff0000;stroke-linecap:square;stroke-width:1.5;"/>
    <g>
     <use style="fill-opacity:0;stroke:#ff0000;stroke-linejoin:miter;stroke-width:1.5;" x="338.688" xlink:href="#mc5a8ae0f64" y="6.381624"/>
     <use style="fill-opacity:0;stroke:#ff0000;stroke-linejoin:miter;stroke-width:1.5;" x="369.60768" xlink:href="#mc5a8ae0f64" y="12.232871"/>
    </g>
   </g>
   <g id="line2d_56">
    <path d="M 338.688 298.944 
L 338.688 6.381624 
" style="fill:none;stroke:#000000;stroke-linecap:square;stroke-width:1.5;"/>
   </g>
   <g id="patch_3">
    <path d="M 57.6 298.944 
L 57.6 3.456 
" style="fill:none;stroke:#000000;stroke-linecap:square;stroke-linejoin:miter;stroke-width:0.8;"/>
   </g>
   <g id="patch_4">
    <path d="M 338.688 298.944 
L 338.688 3.456 
" style="fill:none;stroke:#000000;stroke-linecap:square;stroke-linejoin:miter;stroke-width:0.8;"/>
   </g>
   <g id="patch_5">
    <path d="M 57.6 298.944 
L 338.688 298.944 
" style="fill:none;stroke:#000000;stroke-linecap:square;stroke-linejoin:miter;stroke-width:0.8;"/>
   </g>
   <g id="patch_6">
    <path d="M 57.6 3.456 
L 338.688 3.456 
" style="fill:none;stroke:#000000;stroke-linecap:square;stroke-linejoin:miter;stroke-width:0.8;"/>
   </g>
   <g id="text_13">
    <!-- f4 -->
    <g transform="translate(375.22944 297.78369)scale(0.17 -0.17)">
     <use xlink:href="#DejaVuSans-66"/>
     <use x="35.205078" xlink:href="#DejaVuSans-34"/>
    </g>
   </g>
   <g id="text_14">
    <!-- f3 -->
    <g transform="translate(375.22944 227.56872)scale(0.17 -0.17)">
     <defs>
      <path d="M 2597 2516 
Q 3050 2419 3304 2112 
Q 3559 1806 3559 1356 
Q 3559 666 3084 287 
Q 2609 -91 1734 -91 
Q 1441 -91 1130 -33 
Q 819 25 488 141 
L 488 750 
Q 750 597 1062 519 
Q 1375 441 1716 441 
Q 2309 441 2620 675 
Q 2931 909 2931 1356 
Q 2931 1769 2642 2001 
Q 2353 2234 1838 2234 
L 1294 2234 
L 1294 2753 
L 1863 2753 
Q 2328 2753 2575 2939 
Q 2822 3125 2822 3475 
Q 2822 3834 2567 4026 
Q 2313 4219 1838 4219 
Q 1578 4219 1281 4162 
Q 984 4106 628 3988 
L 628 4550 
Q 988 4650 1302 4700 
Q 1616 4750 1894 4750 
Q 2613 4750 3031 4423 
Q 3450 4097 3450 3541 
Q 3450 3153 3228 2886 
Q 3006 2619 2597 2516 
z
" id="DejaVuSans-33" transform="scale(0.015625)"/>
     </defs>
     <use xlink:href="#DejaVuSans-66"/>
     <use x="35.205078" xlink:href="#DejaVuSans-33"/>
    </g>
   </g>
   <g id="text_15">
    <!-- f2 -->
    <g transform="translate(375.22944 157.353749)scale(0.17 -0.17)">
     <use xlink:href="#DejaVuSans-66"/>
     <use x="35.205078" xlink:href="#DejaVuSans-32"/>
    </g>
   </g>
   <g id="text_16">
    <!-- f1 -->
    <g transform="translate(375.22944 87.138779)scale(0.17 -0.17)">
     <use xlink:href="#DejaVuSans-66"/>
     <use x="35.205078" xlink:href="#DejaVuSans-31"/>
    </g>
   </g>
   <g id="text_17">
    <!-- f5 -->
    <g transform="translate(375.22944 16.923809)scale(0.17 -0.17)">
     <defs>
      <path d="M 691 4666 
L 3169 4666 
L 3169 4134 
L 1269 4134 
L 1269 2991 
Q 1406 3038 1543 3061 
Q 1681 3084 1819 3084 
Q 2600 3084 3056 2656 
Q 3513 2228 3513 1497 
Q 3513 744 3044 326 
Q 2575 -91 1722 -91 
Q 1428 -91 1123 -41 
Q 819 9 494 109 
L 494 744 
Q 775 591 1075 516 
Q 1375 441 1709 441 
Q 2250 441 2565 725 
Q 2881 1009 2881 1497 
Q 2881 1984 2565 2268 
Q 2250 2553 1709 2553 
Q 1456 2553 1204 2497 
Q 953 2441 691 2322 
L 691 4666 
z
" id="DejaVuSans-35" transform="scale(0.015625)"/>
     </defs>
     <use xlink:href="#DejaVuSans-66"/>
     <use x="35.205078" xlink:href="#DejaVuSans-35"/>
    </g>
   </g>
   <g id="text_18">
    <!-- bbob -->
    <g transform="translate(60.41088 14.161286)scale(0.102 -0.102)">
     <defs>
      <path d="M 3116 1747 
Q 3116 2381 2855 2742 
Q 2594 3103 2138 3103 
Q 1681 3103 1420 2742 
Q 1159 2381 1159 1747 
Q 1159 1113 1420 752 
Q 1681 391 2138 391 
Q 2594 391 2855 752 
Q 3116 1113 3116 1747 
z
M 1159 2969 
Q 1341 3281 1617 3432 
Q 1894 3584 2278 3584 
Q 2916 3584 3314 3078 
Q 3713 2572 3713 1747 
Q 3713 922 3314 415 
Q 2916 -91 2278 -91 
Q 1894 -91 1617 61 
Q 1341 213 1159 525 
L 1159 0 
L 581 0 
L 581 4863 
L 1159 4863 
L 1159 2969 
z
" id="DejaVuSans-62" transform="scale(0.015625)"/>
     </defs>
     <use xlink:href="#DejaVuSans-62"/>
     <use x="63.476562" xlink:href="#DejaVuSans-62"/>
     <use x="126.953125" xlink:href="#DejaVuSans-6f"/>
     <use x="188.134766" xlink:href="#DejaVuSans-62"/>
    </g>
    <!-- Separable functions, 5-D -->
    <g transform="translate(60.41088 25.583055)scale(0.102 -0.102)">
     <defs>
      <path d="M 3425 4513 
L 3425 3897 
Q 3066 4069 2747 4153 
Q 2428 4238 2131 4238 
Q 1616 4238 1336 4038 
Q 1056 3838 1056 3469 
Q 1056 3159 1242 3001 
Q 1428 2844 1947 2747 
L 2328 2669 
Q 3034 2534 3370 2195 
Q 3706 1856 3706 1288 
Q 3706 609 3251 259 
Q 2797 -91 1919 -91 
Q 1588 -91 1214 -16 
Q 841 59 441 206 
L 441 856 
Q 825 641 1194 531 
Q 1563 422 1919 422 
Q 2459 422 2753 634 
Q 3047 847 3047 1241 
Q 3047 1584 2836 1778 
Q 2625 1972 2144 2069 
L 1759 2144 
Q 1053 2284 737 2584 
Q 422 2884 422 3419 
Q 422 4038 858 4394 
Q 1294 4750 2059 4750 
Q 2388 4750 2728 4690 
Q 3069 4631 3425 4513 
z
" id="DejaVuSans-53" transform="scale(0.015625)"/>
      <path d="M 1259 4147 
L 1259 519 
L 2022 519 
Q 2988 519 3436 956 
Q 3884 1394 3884 2338 
Q 3884 3275 3436 3711 
Q 2988 4147 2022 4147 
L 1259 4147 
z
M 628 4666 
L 1925 4666 
Q 3281 4666 3915 4102 
Q 4550 3538 4550 2338 
Q 4550 1131 3912 565 
Q 3275 0 1925 0 
L 628 0 
L 628 4666 
z
" id="DejaVuSans-44" transform="scale(0.015625)"/>
     </defs>
     <use xlink:href="#DejaVuSans-53"/>
     <use x="63.476562" xlink:href="#DejaVuSans-65"/>
     <use x="125" xlink:href="#DejaVuSans-70"/>
     <use x="188.476562" xlink:href="#DejaVuSans-61"/>
     <use x="249.755859" xlink:href="#DejaVuSans-72"/>
     <use x="290.869141" xlink:href="#DejaVuSans-61"/>
     <use x="352.148438" xlink:href="#DejaVuSans-62"/>
     <use x="415.625" xlink:href="#DejaVuSans-6c"/>
     <use x="443.408203" xlink:href="#DejaVuSans-65"/>
     <use x="504.931641" xlink:href="#DejaVuSans-20"/>
     <use x="536.71875" xlink:href="#DejaVuSans-66"/>
     <use x="571.923828" xlink:href="#DejaVuSans-75"/>
     <use x="635.302734" xlink:href="#DejaVuSans-6e"/>
     <use x="698.681641" xlink:href="#DejaVuSans-63"/>
     <use x="753.662109" xlink:href="#DejaVuSans-74"/>
     <use x="792.871094" xlink:href="#DejaVuSans-69"/>
     <use x="820.654297" xlink:href="#DejaVuSans-6f"/>
     <use x="881.835938" xlink:href="#DejaVuSans-6e"/>
     <use x="945.214844" xlink:href="#DejaVuSans-73"/>
     <use x="997.314453" xlink:href="#DejaVuSans-2c"/>
     <use x="1029.101562" xlink:href="#DejaVuSans-20"/>
     <use x="1060.888672" xlink:href="#DejaVuSans-35"/>
     <use x="1124.511719" xlink:href="#DejaVuSans-2d"/>
     <use x="1160.595703" xlink:href="#DejaVuSans-44"/>
    </g>
    <!-- 51 targets: 100..1e-08 -->
    <g transform="translate(60.41088 37.004824)scale(0.102 -0.102)">
     <defs>
      <path d="M 750 794 
L 1409 794 
L 1409 0 
L 750 0 
L 750 794 
z
M 750 3309 
L 1409 3309 
L 1409 2516 
L 750 2516 
L 750 3309 
z
" id="DejaVuSans-3a" transform="scale(0.015625)"/>
     </defs>
     <use xlink:href="#DejaVuSans-35"/>
     <use x="63.623047" xlink:href="#DejaVuSans-31"/>
     <use x="127.246094" xlink:href="#DejaVuSans-20"/>
     <use x="159.033203" xlink:href="#DejaVuSans-74"/>
     <use x="198.242188" xlink:href="#DejaVuSans-61"/>
     <use x="259.521484" xlink:href="#DejaVuSans-72"/>
     <use x="298.884766" xlink:href="#DejaVuSans-67"/>
     <use x="362.361328" xlink:href="#DejaVuSans-65"/>
     <use x="423.884766" xlink:href="#DejaVuSans-74"/>
     <use x="463.09375" xlink:href="#DejaVuSans-73"/>
     <use x="515.193359" xlink:href="#DejaVuSans-3a"/>
     <use x="548.884766" xlink:href="#DejaVuSans-20"/>
     <use x="580.671875" xlink:href="#DejaVuSans-31"/>
     <use x="644.294922" xlink:href="#DejaVuSans-30"/>
     <use x="707.917969" xlink:href="#DejaVuSans-30"/>
     <use x="771.541016" xlink:href="#DejaVuSans-2e"/>
     <use x="803.328125" xlink:href="#DejaVuSans-2e"/>
     <use x="835.115234" xlink:href="#DejaVuSans-31"/>
     <use x="898.738281" xlink:href="#DejaVuSans-65"/>
     <use x="960.261719" xlink:href="#DejaVuSans-2d"/>
     <use x="996.345703" xlink:href="#DejaVuSans-30"/>
     <use x="1059.96875" xlink:href="#DejaVuSans-38"/>
    </g>
    <!-- 15 instances -->
    <g transform="translate(60.41088 48.426593)scale(0.102 -0.102)">
     <use xlink:href="#DejaVuSans-31"/>
     <use x="63.623047" xlink:href="#DejaVuSans-35"/>
     <use x="127.246094" xlink:href="#DejaVuSans-20"/>
     <use x="159.033203" xlink:href="#DejaVuSans-69"/>
     <use x="186.816406" xlink:href="#DejaVuSans-6e"/>
     <use x="250.195312" xlink:href="#DejaVuSans-73"/>
     <use x="302.294922" xlink:href="#DejaVuSans-74"/>
     <use x="341.503906" xlink:href="#DejaVuSans-61"/>
     <use x="402.783203" xlink:href="#DejaVuSans-6e"/>
     <use x="466.162109" xlink:href="#DejaVuSans-63"/>
     <use x="521.142578" xlink:href="#DejaVuSans-65"/>
     <use x="582.666016" xlink:href="#DejaVuSans-73"/>
    </g>
   </g>
   <g id="text_19">
    <!-- v2.4 -->
    <g style="fill:#808080;" transform="translate(187.233062 293.909432)scale(0.1 -0.1)">
     <use xlink:href="#DejaVuSans-76"/>
     <use x="59.179688" xlink:href="#DejaVuSans-32"/>
     <use x="122.802734" xlink:href="#DejaVuSans-2e"/>
     <use x="154.589844" xlink:href="#DejaVuSans-34"/>
    </g>
   </g>
  </g>
 </g>
 <defs>
  <clipPath id="pbbe79e6236">
   <rect height="295.488" width="281.088" x="57.6" y="3.456"/>
  </clipPath>
 </defs>
</svg>
