<?xml version="1.0" encoding="utf-8" standalone="no"?>
<!DOCTYPE svg PUBLIC "-//W3C//DTD SVG 1.1//EN"
  "http://www.w3.org/Graphics/SVG/1.1/DTD/svg11.dtd">
<svg height="345.6pt" version="1.1" viewBox="0 0 460.8 345.6" width="460.8pt" xmlns="http://www.w3.org/2000/svg" xmlns:xlink="http://www.w3.org/1999/xlink">
 <metadata>
  <rdf:RDF xmlns:cc="http://creativecommons.org/ns#" xmlns:dc="http://purl.org/dc/elements/1.1/" xmlns:rdf="http://www.w3.org/1999/02/22-rdf-syntax-ns#">
   <cc:Work>
    <dc:type rdf:resource="http://purl.org/dc/dcmitype/StillImage"/>
    <dc:date>2021-04-28T13:32:20.820522</dc:date>
    <dc:format>image/svg+xml</dc:format>
    <dc:creator>
     <cc:Agent>
      <dc:title>Matplotlib v3.4.1, https://matplotlib.org/</dc:title>
     </cc:Agent>
    </dc:creator>
   </cc:Work>
  </rdf:RDF>
 </metadata>
 <defs>
  <style type="text/css">*{stroke-linecap:butt;stroke-linejoin:round;}</style>
 </defs>
 <g id="figure_1">
  <g id="patch_1">
   <path d="M 0 345.6 
L 460.8 345.6 
L 460.8 0 
L 0 0 
z
" style="fill:#ffffff;"/>
  </g>
  <g id="axes_1">
   <g id="patch_2">
    <path d="M 57.6 298.944 
L 338.688 298.944 
L 338.688 3.456 
L 57.6 3.456 
z
" style="fill:#ffffff;"/>
   </g>
   <g id="matplotlib.axis_1">
    <g id="xtick_1">
     <g id="line2d_1">
      <path clip-path="url(#pdefd062621)" d="M 57.6 298.944 
L 57.6 3.456 
" style="fill:none;stroke:#b0b0b0;stroke-linecap:square;stroke-width:0.8;"/>
     </g>
     <g id="line2d_2">
      <defs>
       <path d="M 0 0 
L 0 3.5 
" id="m8269faddfa" style="stroke:#000000;stroke-width:0.8;"/>
      </defs>
      <g>
       <use style="stroke:#000000;stroke-width:0.8;" x="57.6" xlink:href="#m8269faddfa" y="298.944"/>
      </g>
     </g>
     <g id="text_1">
      <!-- 0 -->
      <g transform="translate(51.2375 321.140875)scale(0.2 -0.2)">
       <defs>
        <path d="M 2034 4250 
Q 1547 4250 1301 3770 
Q 1056 3291 1056 2328 
Q 1056 1369 1301 889 
Q 1547 409 2034 409 
Q 2525 409 2770 889 
Q 3016 1369 3016 2328 
Q 3016 3291 2770 3770 
Q 2525 4250 2034 4250 
z
M 2034 4750 
Q 2819 4750 3233 4129 
Q 3647 3509 3647 2328 
Q 3647 1150 3233 529 
Q 2819 -91 2034 -91 
Q 1250 -91 836 529 
Q 422 1150 422 2328 
Q 422 3509 836 4129 
Q 1250 4750 2034 4750 
z
" id="DejaVuSans-30" transform="scale(0.015625)"/>
       </defs>
       <use xlink:href="#DejaVuSans-30"/>
      </g>
     </g>
    </g>
    <g id="xtick_2">
     <g id="line2d_3">
      <path clip-path="url(#pdefd062621)" d="M 137.910857 298.944 
L 137.910857 3.456 
" style="fill:none;stroke:#b0b0b0;stroke-linecap:square;stroke-width:0.8;"/>
     </g>
     <g id="line2d_4">
      <g>
       <use style="stroke:#000000;stroke-width:0.8;" x="137.910857" xlink:href="#m8269faddfa" y="298.944"/>
      </g>
     </g>
     <g id="text_2">
      <!-- 2 -->
      <g transform="translate(131.548357 321.140875)scale(0.2 -0.2)">
       <defs>
        <path d="M 1228 531 
L 3431 531 
L 3431 0 
L 469 0 
L 469 531 
Q 828 903 1448 1529 
Q 2069 2156 2228 2338 
Q 2531 2678 2651 2914 
Q 2772 3150 2772 3378 
Q 2772 3750 2511 3984 
Q 2250 4219 1831 4219 
Q 1534 4219 1204 4116 
Q 875 4013 500 3803 
L 500 4441 
Q 881 4594 1212 4672 
Q 1544 4750 1819 4750 
Q 2544 4750 2975 4387 
Q 3406 4025 3406 3419 
Q 3406 3131 3298 2873 
Q 3191 2616 2906 2266 
Q 2828 2175 2409 1742 
Q 1991 1309 1228 531 
z
" id="DejaVuSans-32" transform="scale(0.015625)"/>
       </defs>
       <use xlink:href="#DejaVuSans-32"/>
      </g>
     </g>
    </g>
    <g id="xtick_3">
     <g id="line2d_5">
      <path clip-path="url(#pdefd062621)" d="M 218.221714 298.944 
L 218.221714 3.456 
" style="fill:none;stroke:#b0b0b0;stroke-linecap:square;stroke-width:0.8;"/>
     </g>
     <g id="line2d_6">
      <g>
       <use style="stroke:#000000;stroke-width:0.8;" x="218.221714" xlink:href="#m8269faddfa" y="298.944"/>
      </g>
     </g>
     <g id="text_3">
      <!-- 4 -->
      <g transform="translate(211.859214 321.140875)scale(0.2 -0.2)">
       <defs>
        <path d="M 2419 4116 
L 825 1625 
L 2419 1625 
L 2419 4116 
z
M 2253 4666 
L 3047 4666 
L 3047 1625 
L 3713 1625 
L 3713 1100 
L 3047 1100 
L 3047 0 
L 2419 0 
L 2419 1100 
L 313 1100 
L 313 1709 
L 2253 4666 
z
" id="DejaVuSans-34" transform="scale(0.015625)"/>
       </defs>
       <use xlink:href="#DejaVuSans-34"/>
      </g>
     </g>
    </g>
    <g id="xtick_4">
     <g id="line2d_7">
      <path clip-path="url(#pdefd062621)" d="M 298.532571 298.944 
L 298.532571 3.456 
" style="fill:none;stroke:#b0b0b0;stroke-linecap:square;stroke-width:0.8;"/>
     </g>
     <g id="line2d_8">
      <g>
       <use style="stroke:#000000;stroke-width:0.8;" x="298.532571" xlink:href="#m8269faddfa" y="298.944"/>
      </g>
     </g>
     <g id="text_4">
      <!-- 6 -->
      <g transform="translate(292.170071 321.140875)scale(0.2 -0.2)">
       <defs>
        <path d="M 2113 2584 
Q 1688 2584 1439 2293 
Q 1191 2003 1191 1497 
Q 1191 994 1439 701 
Q 1688 409 2113 409 
Q 2538 409 2786 701 
Q 3034 994 3034 1497 
Q 3034 2003 2786 2293 
Q 2538 2584 2113 2584 
z
M 3366 4563 
L 3366 3988 
Q 3128 4100 2886 4159 
Q 2644 4219 2406 4219 
Q 1781 4219 1451 3797 
Q 1122 3375 1075 2522 
Q 1259 2794 1537 2939 
Q 1816 3084 2150 3084 
Q 2853 3084 3261 2657 
Q 3669 2231 3669 1497 
Q 3669 778 3244 343 
Q 2819 -91 2113 -91 
Q 1303 -91 875 529 
Q 447 1150 447 2328 
Q 447 3434 972 4092 
Q 1497 4750 2381 4750 
Q 2619 4750 2861 4703 
Q 3103 4656 3366 4563 
z
" id="DejaVuSans-36" transform="scale(0.015625)"/>
       </defs>
       <use xlink:href="#DejaVuSans-36"/>
      </g>
     </g>
    </g>
    <g id="xtick_5">
     <g id="line2d_9">
      <path clip-path="url(#pdefd062621)" d="M 97.755429 298.944 
L 97.755429 3.456 
" style="fill:none;stroke:#b0b0b0;stroke-linecap:square;stroke-width:0.8;"/>
     </g>
     <g id="line2d_10">
      <defs>
       <path d="M 0 0 
L 0 2 
" id="m3e91ed43cb" style="stroke:#000000;stroke-width:0.6;"/>
      </defs>
      <g>
       <use style="stroke:#000000;stroke-width:0.6;" x="97.755429" xlink:href="#m3e91ed43cb" y="298.944"/>
      </g>
     </g>
    </g>
    <g id="xtick_6">
     <g id="line2d_11">
      <path clip-path="url(#pdefd062621)" d="M 178.066286 298.944 
L 178.066286 3.456 
" style="fill:none;stroke:#b0b0b0;stroke-linecap:square;stroke-width:0.8;"/>
     </g>
     <g id="line2d_12">
      <g>
       <use style="stroke:#000000;stroke-width:0.6;" x="178.066286" xlink:href="#m3e91ed43cb" y="298.944"/>
      </g>
     </g>
    </g>
    <g id="xtick_7">
     <g id="line2d_13">
      <path clip-path="url(#pdefd062621)" d="M 258.377143 298.944 
L 258.377143 3.456 
" style="fill:none;stroke:#b0b0b0;stroke-linecap:square;stroke-width:0.8;"/>
     </g>
     <g id="line2d_14">
      <g>
       <use style="stroke:#000000;stroke-width:0.6;" x="258.377143" xlink:href="#m3e91ed43cb" y="298.944"/>
      </g>
     </g>
    </g>
    <g id="xtick_8">
     <g id="line2d_15">
      <path clip-path="url(#pdefd062621)" d="M 338.688 298.944 
L 338.688 3.456 
" style="fill:none;stroke:#b0b0b0;stroke-linecap:square;stroke-width:0.8;"/>
     </g>
     <g id="line2d_16">
      <g>
       <use style="stroke:#000000;stroke-width:0.6;" x="338.688" xlink:href="#m3e91ed43cb" y="298.944"/>
      </g>
     </g>
    </g>
    <g id="text_5">
     <!-- log10(# f-evals / dimension) -->
     <g transform="translate(77.764078 342.217594)scale(0.17 -0.17)">
      <defs>
       <path d="M 603 4863 
L 1178 4863 
L 1178 0 
L 603 0 
L 603 4863 
z
" id="DejaVuSans-6c" transform="scale(0.015625)"/>
       <path d="M 1959 3097 
Q 1497 3097 1228 2736 
Q 959 2375 959 1747 
Q 959 1119 1226 758 
Q 1494 397 1959 397 
Q 2419 397 2687 759 
Q 2956 1122 2956 1747 
Q 2956 2369 2687 2733 
Q 2419 3097 1959 3097 
z
M 1959 3584 
Q 2709 3584 3137 3096 
Q 3566 2609 3566 1747 
Q 3566 888 3137 398 
Q 2709 -91 1959 -91 
Q 1206 -91 779 398 
Q 353 888 353 1747 
Q 353 2609 779 3096 
Q 1206 3584 1959 3584 
z
" id="DejaVuSans-6f" transform="scale(0.015625)"/>
       <path d="M 2906 1791 
Q 2906 2416 2648 2759 
Q 2391 3103 1925 3103 
Q 1463 3103 1205 2759 
Q 947 2416 947 1791 
Q 947 1169 1205 825 
Q 1463 481 1925 481 
Q 2391 481 2648 825 
Q 2906 1169 2906 1791 
z
M 3481 434 
Q 3481 -459 3084 -895 
Q 2688 -1331 1869 -1331 
Q 1566 -1331 1297 -1286 
Q 1028 -1241 775 -1147 
L 775 -588 
Q 1028 -725 1275 -790 
Q 1522 -856 1778 -856 
Q 2344 -856 2625 -561 
Q 2906 -266 2906 331 
L 2906 616 
Q 2728 306 2450 153 
Q 2172 0 1784 0 
Q 1141 0 747 490 
Q 353 981 353 1791 
Q 353 2603 747 3093 
Q 1141 3584 1784 3584 
Q 2172 3584 2450 3431 
Q 2728 3278 2906 2969 
L 2906 3500 
L 3481 3500 
L 3481 434 
z
" id="DejaVuSans-67" transform="scale(0.015625)"/>
       <path d="M 794 531 
L 1825 531 
L 1825 4091 
L 703 3866 
L 703 4441 
L 1819 4666 
L 2450 4666 
L 2450 531 
L 3481 531 
L 3481 0 
L 794 0 
L 794 531 
z
" id="DejaVuSans-31" transform="scale(0.015625)"/>
       <path d="M 1984 4856 
Q 1566 4138 1362 3434 
Q 1159 2731 1159 2009 
Q 1159 1288 1364 580 
Q 1569 -128 1984 -844 
L 1484 -844 
Q 1016 -109 783 600 
Q 550 1309 550 2009 
Q 550 2706 781 3412 
Q 1013 4119 1484 4856 
L 1984 4856 
z
" id="DejaVuSans-28" transform="scale(0.015625)"/>
       <path d="M 3272 2816 
L 2363 2816 
L 2100 1772 
L 3016 1772 
L 3272 2816 
z
M 2803 4594 
L 2478 3297 
L 3391 3297 
L 3719 4594 
L 4219 4594 
L 3897 3297 
L 4872 3297 
L 4872 2816 
L 3775 2816 
L 3519 1772 
L 4513 1772 
L 4513 1294 
L 3397 1294 
L 3072 0 
L 2572 0 
L 2894 1294 
L 1978 1294 
L 1656 0 
L 1153 0 
L 1478 1294 
L 494 1294 
L 494 1772 
L 1594 1772 
L 1856 2816 
L 850 2816 
L 850 3297 
L 1978 3297 
L 2297 4594 
L 2803 4594 
z
" id="DejaVuSans-23" transform="scale(0.015625)"/>
       <path id="DejaVuSans-20" transform="scale(0.015625)"/>
       <path d="M 2375 4863 
L 2375 4384 
L 1825 4384 
Q 1516 4384 1395 4259 
Q 1275 4134 1275 3809 
L 1275 3500 
L 2222 3500 
L 2222 3053 
L 1275 3053 
L 1275 0 
L 697 0 
L 697 3053 
L 147 3053 
L 147 3500 
L 697 3500 
L 697 3744 
Q 697 4328 969 4595 
Q 1241 4863 1831 4863 
L 2375 4863 
z
" id="DejaVuSans-66" transform="scale(0.015625)"/>
       <path d="M 313 2009 
L 1997 2009 
L 1997 1497 
L 313 1497 
L 313 2009 
z
" id="DejaVuSans-2d" transform="scale(0.015625)"/>
       <path d="M 3597 1894 
L 3597 1613 
L 953 1613 
Q 991 1019 1311 708 
Q 1631 397 2203 397 
Q 2534 397 2845 478 
Q 3156 559 3463 722 
L 3463 178 
Q 3153 47 2828 -22 
Q 2503 -91 2169 -91 
Q 1331 -91 842 396 
Q 353 884 353 1716 
Q 353 2575 817 3079 
Q 1281 3584 2069 3584 
Q 2775 3584 3186 3129 
Q 3597 2675 3597 1894 
z
M 3022 2063 
Q 3016 2534 2758 2815 
Q 2500 3097 2075 3097 
Q 1594 3097 1305 2825 
Q 1016 2553 972 2059 
L 3022 2063 
z
" id="DejaVuSans-65" transform="scale(0.015625)"/>
       <path d="M 191 3500 
L 800 3500 
L 1894 563 
L 2988 3500 
L 3597 3500 
L 2284 0 
L 1503 0 
L 191 3500 
z
" id="DejaVuSans-76" transform="scale(0.015625)"/>
       <path d="M 2194 1759 
Q 1497 1759 1228 1600 
Q 959 1441 959 1056 
Q 959 750 1161 570 
Q 1363 391 1709 391 
Q 2188 391 2477 730 
Q 2766 1069 2766 1631 
L 2766 1759 
L 2194 1759 
z
M 3341 1997 
L 3341 0 
L 2766 0 
L 2766 531 
Q 2569 213 2275 61 
Q 1981 -91 1556 -91 
Q 1019 -91 701 211 
Q 384 513 384 1019 
Q 384 1609 779 1909 
Q 1175 2209 1959 2209 
L 2766 2209 
L 2766 2266 
Q 2766 2663 2505 2880 
Q 2244 3097 1772 3097 
Q 1472 3097 1187 3025 
Q 903 2953 641 2809 
L 641 3341 
Q 956 3463 1253 3523 
Q 1550 3584 1831 3584 
Q 2591 3584 2966 3190 
Q 3341 2797 3341 1997 
z
" id="DejaVuSans-61" transform="scale(0.015625)"/>
       <path d="M 2834 3397 
L 2834 2853 
Q 2591 2978 2328 3040 
Q 2066 3103 1784 3103 
Q 1356 3103 1142 2972 
Q 928 2841 928 2578 
Q 928 2378 1081 2264 
Q 1234 2150 1697 2047 
L 1894 2003 
Q 2506 1872 2764 1633 
Q 3022 1394 3022 966 
Q 3022 478 2636 193 
Q 2250 -91 1575 -91 
Q 1294 -91 989 -36 
Q 684 19 347 128 
L 347 722 
Q 666 556 975 473 
Q 1284 391 1588 391 
Q 1994 391 2212 530 
Q 2431 669 2431 922 
Q 2431 1156 2273 1281 
Q 2116 1406 1581 1522 
L 1381 1569 
Q 847 1681 609 1914 
Q 372 2147 372 2553 
Q 372 3047 722 3315 
Q 1072 3584 1716 3584 
Q 2034 3584 2315 3537 
Q 2597 3491 2834 3397 
z
" id="DejaVuSans-73" transform="scale(0.015625)"/>
       <path d="M 1625 4666 
L 2156 4666 
L 531 -594 
L 0 -594 
L 1625 4666 
z
" id="DejaVuSans-2f" transform="scale(0.015625)"/>
       <path d="M 2906 2969 
L 2906 4863 
L 3481 4863 
L 3481 0 
L 2906 0 
L 2906 525 
Q 2725 213 2448 61 
Q 2172 -91 1784 -91 
Q 1150 -91 751 415 
Q 353 922 353 1747 
Q 353 2572 751 3078 
Q 1150 3584 1784 3584 
Q 2172 3584 2448 3432 
Q 2725 3281 2906 2969 
z
M 947 1747 
Q 947 1113 1208 752 
Q 1469 391 1925 391 
Q 2381 391 2643 752 
Q 2906 1113 2906 1747 
Q 2906 2381 2643 2742 
Q 2381 3103 1925 3103 
Q 1469 3103 1208 2742 
Q 947 2381 947 1747 
z
" id="DejaVuSans-64" transform="scale(0.015625)"/>
       <path d="M 603 3500 
L 1178 3500 
L 1178 0 
L 603 0 
L 603 3500 
z
M 603 4863 
L 1178 4863 
L 1178 4134 
L 603 4134 
L 603 4863 
z
" id="DejaVuSans-69" transform="scale(0.015625)"/>
       <path d="M 3328 2828 
Q 3544 3216 3844 3400 
Q 4144 3584 4550 3584 
Q 5097 3584 5394 3201 
Q 5691 2819 5691 2113 
L 5691 0 
L 5113 0 
L 5113 2094 
Q 5113 2597 4934 2840 
Q 4756 3084 4391 3084 
Q 3944 3084 3684 2787 
Q 3425 2491 3425 1978 
L 3425 0 
L 2847 0 
L 2847 2094 
Q 2847 2600 2669 2842 
Q 2491 3084 2119 3084 
Q 1678 3084 1418 2786 
Q 1159 2488 1159 1978 
L 1159 0 
L 581 0 
L 581 3500 
L 1159 3500 
L 1159 2956 
Q 1356 3278 1631 3431 
Q 1906 3584 2284 3584 
Q 2666 3584 2933 3390 
Q 3200 3197 3328 2828 
z
" id="DejaVuSans-6d" transform="scale(0.015625)"/>
       <path d="M 3513 2113 
L 3513 0 
L 2938 0 
L 2938 2094 
Q 2938 2591 2744 2837 
Q 2550 3084 2163 3084 
Q 1697 3084 1428 2787 
Q 1159 2491 1159 1978 
L 1159 0 
L 581 0 
L 581 3500 
L 1159 3500 
L 1159 2956 
Q 1366 3272 1645 3428 
Q 1925 3584 2291 3584 
Q 2894 3584 3203 3211 
Q 3513 2838 3513 2113 
z
" id="DejaVuSans-6e" transform="scale(0.015625)"/>
       <path d="M 513 4856 
L 1013 4856 
Q 1481 4119 1714 3412 
Q 1947 2706 1947 2009 
Q 1947 1309 1714 600 
Q 1481 -109 1013 -844 
L 513 -844 
Q 928 -128 1133 580 
Q 1338 1288 1338 2009 
Q 1338 2731 1133 3434 
Q 928 4138 513 4856 
z
" id="DejaVuSans-29" transform="scale(0.015625)"/>
      </defs>
      <use xlink:href="#DejaVuSans-6c"/>
      <use x="27.783203" xlink:href="#DejaVuSans-6f"/>
      <use x="88.964844" xlink:href="#DejaVuSans-67"/>
      <use x="152.441406" xlink:href="#DejaVuSans-31"/>
      <use x="216.064453" xlink:href="#DejaVuSans-30"/>
      <use x="279.6875" xlink:href="#DejaVuSans-28"/>
      <use x="318.701172" xlink:href="#DejaVuSans-23"/>
      <use x="402.490234" xlink:href="#DejaVuSans-20"/>
      <use x="434.277344" xlink:href="#DejaVuSans-66"/>
      <use x="463.982422" xlink:href="#DejaVuSans-2d"/>
      <use x="500.066406" xlink:href="#DejaVuSans-65"/>
      <use x="561.589844" xlink:href="#DejaVuSans-76"/>
      <use x="620.769531" xlink:href="#DejaVuSans-61"/>
      <use x="682.048828" xlink:href="#DejaVuSans-6c"/>
      <use x="709.832031" xlink:href="#DejaVuSans-73"/>
      <use x="761.931641" xlink:href="#DejaVuSans-20"/>
      <use x="793.71875" xlink:href="#DejaVuSans-2f"/>
      <use x="827.410156" xlink:href="#DejaVuSans-20"/>
      <use x="859.197266" xlink:href="#DejaVuSans-64"/>
      <use x="922.673828" xlink:href="#DejaVuSans-69"/>
      <use x="950.457031" xlink:href="#DejaVuSans-6d"/>
      <use x="1047.869141" xlink:href="#DejaVuSans-65"/>
      <use x="1109.392578" xlink:href="#DejaVuSans-6e"/>
      <use x="1172.771484" xlink:href="#DejaVuSans-73"/>
      <use x="1224.871094" xlink:href="#DejaVuSans-69"/>
      <use x="1252.654297" xlink:href="#DejaVuSans-6f"/>
      <use x="1313.835938" xlink:href="#DejaVuSans-6e"/>
      <use x="1377.214844" xlink:href="#DejaVuSans-29"/>
     </g>
    </g>
   </g>
   <g id="matplotlib.axis_2">
    <g id="ytick_1">
     <g id="line2d_17">
      <path clip-path="url(#pdefd062621)" d="M 57.6 298.944 
L 338.688 298.944 
" style="fill:none;stroke:#b0b0b0;stroke-linecap:square;stroke-width:0.8;"/>
     </g>
     <g id="line2d_18">
      <defs>
       <path d="M 0 0 
L -3.5 0 
" id="m4f9fcc18e3" style="stroke:#000000;stroke-width:0.8;"/>
      </defs>
      <g>
       <use style="stroke:#000000;stroke-width:0.8;" x="57.6" xlink:href="#m4f9fcc18e3" y="298.944"/>
      </g>
     </g>
     <g id="text_6">
      <!-- 0.0 -->
      <g transform="translate(25.155 305.02275)scale(0.16 -0.16)">
       <defs>
        <path d="M 684 794 
L 1344 794 
L 1344 0 
L 684 0 
L 684 794 
z
" id="DejaVuSans-2e" transform="scale(0.015625)"/>
       </defs>
       <use xlink:href="#DejaVuSans-30"/>
       <use x="63.623047" xlink:href="#DejaVuSans-2e"/>
       <use x="95.410156" xlink:href="#DejaVuSans-30"/>
      </g>
     </g>
    </g>
    <g id="ytick_2">
     <g id="line2d_19">
      <path clip-path="url(#pdefd062621)" d="M 57.6 240.431525 
L 338.688 240.431525 
" style="fill:none;stroke:#b0b0b0;stroke-linecap:square;stroke-width:0.8;"/>
     </g>
     <g id="line2d_20">
      <g>
       <use style="stroke:#000000;stroke-width:0.8;" x="57.6" xlink:href="#m4f9fcc18e3" y="240.431525"/>
      </g>
     </g>
     <g id="text_7">
      <!-- 0.2 -->
      <g transform="translate(25.155 246.510275)scale(0.16 -0.16)">
       <use xlink:href="#DejaVuSans-30"/>
       <use x="63.623047" xlink:href="#DejaVuSans-2e"/>
       <use x="95.410156" xlink:href="#DejaVuSans-32"/>
      </g>
     </g>
    </g>
    <g id="ytick_3">
     <g id="line2d_21">
      <path clip-path="url(#pdefd062621)" d="M 57.6 181.91905 
L 338.688 181.91905 
" style="fill:none;stroke:#b0b0b0;stroke-linecap:square;stroke-width:0.8;"/>
     </g>
     <g id="line2d_22">
      <g>
       <use style="stroke:#000000;stroke-width:0.8;" x="57.6" xlink:href="#m4f9fcc18e3" y="181.91905"/>
      </g>
     </g>
     <g id="text_8">
      <!-- 0.4 -->
      <g transform="translate(25.155 187.9978)scale(0.16 -0.16)">
       <use xlink:href="#DejaVuSans-30"/>
       <use x="63.623047" xlink:href="#DejaVuSans-2e"/>
       <use x="95.410156" xlink:href="#DejaVuSans-34"/>
      </g>
     </g>
    </g>
    <g id="ytick_4">
     <g id="line2d_23">
      <path clip-path="url(#pdefd062621)" d="M 57.6 123.406574 
L 338.688 123.406574 
" style="fill:none;stroke:#b0b0b0;stroke-linecap:square;stroke-width:0.8;"/>
     </g>
     <g id="line2d_24">
      <g>
       <use style="stroke:#000000;stroke-width:0.8;" x="57.6" xlink:href="#m4f9fcc18e3" y="123.406574"/>
      </g>
     </g>
     <g id="text_9">
      <!-- 0.6 -->
      <g transform="translate(25.155 129.485324)scale(0.16 -0.16)">
       <use xlink:href="#DejaVuSans-30"/>
       <use x="63.623047" xlink:href="#DejaVuSans-2e"/>
       <use x="95.410156" xlink:href="#DejaVuSans-36"/>
      </g>
     </g>
    </g>
    <g id="ytick_5">
     <g id="line2d_25">
      <path clip-path="url(#pdefd062621)" d="M 57.6 64.894099 
L 338.688 64.894099 
" style="fill:none;stroke:#b0b0b0;stroke-linecap:square;stroke-width:0.8;"/>
     </g>
     <g id="line2d_26">
      <g>
       <use style="stroke:#000000;stroke-width:0.8;" x="57.6" xlink:href="#m4f9fcc18e3" y="64.894099"/>
      </g>
     </g>
     <g id="text_10">
      <!-- 0.8 -->
      <g transform="translate(25.155 70.972849)scale(0.16 -0.16)">
       <defs>
        <path d="M 2034 2216 
Q 1584 2216 1326 1975 
Q 1069 1734 1069 1313 
Q 1069 891 1326 650 
Q 1584 409 2034 409 
Q 2484 409 2743 651 
Q 3003 894 3003 1313 
Q 3003 1734 2745 1975 
Q 2488 2216 2034 2216 
z
M 1403 2484 
Q 997 2584 770 2862 
Q 544 3141 544 3541 
Q 544 4100 942 4425 
Q 1341 4750 2034 4750 
Q 2731 4750 3128 4425 
Q 3525 4100 3525 3541 
Q 3525 3141 3298 2862 
Q 3072 2584 2669 2484 
Q 3125 2378 3379 2068 
Q 3634 1759 3634 1313 
Q 3634 634 3220 271 
Q 2806 -91 2034 -91 
Q 1263 -91 848 271 
Q 434 634 434 1313 
Q 434 1759 690 2068 
Q 947 2378 1403 2484 
z
M 1172 3481 
Q 1172 3119 1398 2916 
Q 1625 2713 2034 2713 
Q 2441 2713 2670 2916 
Q 2900 3119 2900 3481 
Q 2900 3844 2670 4047 
Q 2441 4250 2034 4250 
Q 1625 4250 1398 4047 
Q 1172 3844 1172 3481 
z
" id="DejaVuSans-38" transform="scale(0.015625)"/>
       </defs>
       <use xlink:href="#DejaVuSans-30"/>
       <use x="63.623047" xlink:href="#DejaVuSans-2e"/>
       <use x="95.410156" xlink:href="#DejaVuSans-38"/>
      </g>
     </g>
    </g>
    <g id="ytick_6">
     <g id="line2d_27">
      <path clip-path="url(#pdefd062621)" d="M 57.6 6.381624 
L 338.688 6.381624 
" style="fill:none;stroke:#b0b0b0;stroke-linecap:square;stroke-width:0.8;"/>
     </g>
     <g id="line2d_28">
      <g>
       <use style="stroke:#000000;stroke-width:0.8;" x="57.6" xlink:href="#m4f9fcc18e3" y="6.381624"/>
      </g>
     </g>
     <g id="text_11">
      <!-- 1.0 -->
      <g transform="translate(25.155 12.460374)scale(0.16 -0.16)">
       <use xlink:href="#DejaVuSans-31"/>
       <use x="63.623047" xlink:href="#DejaVuSans-2e"/>
       <use x="95.410156" xlink:href="#DejaVuSans-30"/>
      </g>
     </g>
    </g>
    <g id="text_12">
     <!-- Fraction of function,target pairs -->
     <g transform="translate(17.619531 285.585)rotate(-90)scale(0.17 -0.17)">
      <defs>
       <path d="M 628 4666 
L 3309 4666 
L 3309 4134 
L 1259 4134 
L 1259 2759 
L 3109 2759 
L 3109 2228 
L 1259 2228 
L 1259 0 
L 628 0 
L 628 4666 
z
" id="DejaVuSans-46" transform="scale(0.015625)"/>
       <path d="M 2631 2963 
Q 2534 3019 2420 3045 
Q 2306 3072 2169 3072 
Q 1681 3072 1420 2755 
Q 1159 2438 1159 1844 
L 1159 0 
L 581 0 
L 581 3500 
L 1159 3500 
L 1159 2956 
Q 1341 3275 1631 3429 
Q 1922 3584 2338 3584 
Q 2397 3584 2469 3576 
Q 2541 3569 2628 3553 
L 2631 2963 
z
" id="DejaVuSans-72" transform="scale(0.015625)"/>
       <path d="M 3122 3366 
L 3122 2828 
Q 2878 2963 2633 3030 
Q 2388 3097 2138 3097 
Q 1578 3097 1268 2742 
Q 959 2388 959 1747 
Q 959 1106 1268 751 
Q 1578 397 2138 397 
Q 2388 397 2633 464 
Q 2878 531 3122 666 
L 3122 134 
Q 2881 22 2623 -34 
Q 2366 -91 2075 -91 
Q 1284 -91 818 406 
Q 353 903 353 1747 
Q 353 2603 823 3093 
Q 1294 3584 2113 3584 
Q 2378 3584 2631 3529 
Q 2884 3475 3122 3366 
z
" id="DejaVuSans-63" transform="scale(0.015625)"/>
       <path d="M 1172 4494 
L 1172 3500 
L 2356 3500 
L 2356 3053 
L 1172 3053 
L 1172 1153 
Q 1172 725 1289 603 
Q 1406 481 1766 481 
L 2356 481 
L 2356 0 
L 1766 0 
Q 1100 0 847 248 
Q 594 497 594 1153 
L 594 3053 
L 172 3053 
L 172 3500 
L 594 3500 
L 594 4494 
L 1172 4494 
z
" id="DejaVuSans-74" transform="scale(0.015625)"/>
       <path d="M 544 1381 
L 544 3500 
L 1119 3500 
L 1119 1403 
Q 1119 906 1312 657 
Q 1506 409 1894 409 
Q 2359 409 2629 706 
Q 2900 1003 2900 1516 
L 2900 3500 
L 3475 3500 
L 3475 0 
L 2900 0 
L 2900 538 
Q 2691 219 2414 64 
Q 2138 -91 1772 -91 
Q 1169 -91 856 284 
Q 544 659 544 1381 
z
M 1991 3584 
L 1991 3584 
z
" id="DejaVuSans-75" transform="scale(0.015625)"/>
       <path d="M 750 794 
L 1409 794 
L 1409 256 
L 897 -744 
L 494 -744 
L 750 256 
L 750 794 
z
" id="DejaVuSans-2c" transform="scale(0.015625)"/>
       <path d="M 1159 525 
L 1159 -1331 
L 581 -1331 
L 581 3500 
L 1159 3500 
L 1159 2969 
Q 1341 3281 1617 3432 
Q 1894 3584 2278 3584 
Q 2916 3584 3314 3078 
Q 3713 2572 3713 1747 
Q 3713 922 3314 415 
Q 2916 -91 2278 -91 
Q 1894 -91 1617 61 
Q 1341 213 1159 525 
z
M 3116 1747 
Q 3116 2381 2855 2742 
Q 2594 3103 2138 3103 
Q 1681 3103 1420 2742 
Q 1159 2381 1159 1747 
Q 1159 1113 1420 752 
Q 1681 391 2138 391 
Q 2594 391 2855 752 
Q 3116 1113 3116 1747 
z
" id="DejaVuSans-70" transform="scale(0.015625)"/>
      </defs>
      <use xlink:href="#DejaVuSans-46"/>
      <use x="50.269531" xlink:href="#DejaVuSans-72"/>
      <use x="91.382812" xlink:href="#DejaVuSans-61"/>
      <use x="152.662109" xlink:href="#DejaVuSans-63"/>
      <use x="207.642578" xlink:href="#DejaVuSans-74"/>
      <use x="246.851562" xlink:href="#DejaVuSans-69"/>
      <use x="274.634766" xlink:href="#DejaVuSans-6f"/>
      <use x="335.816406" xlink:href="#DejaVuSans-6e"/>
      <use x="399.195312" xlink:href="#DejaVuSans-20"/>
      <use x="430.982422" xlink:href="#DejaVuSans-6f"/>
      <use x="492.164062" xlink:href="#DejaVuSans-66"/>
      <use x="527.369141" xlink:href="#DejaVuSans-20"/>
      <use x="559.15625" xlink:href="#DejaVuSans-66"/>
      <use x="594.361328" xlink:href="#DejaVuSans-75"/>
      <use x="657.740234" xlink:href="#DejaVuSans-6e"/>
      <use x="721.119141" xlink:href="#DejaVuSans-63"/>
      <use x="776.099609" xlink:href="#DejaVuSans-74"/>
      <use x="815.308594" xlink:href="#DejaVuSans-69"/>
      <use x="843.091797" xlink:href="#DejaVuSans-6f"/>
      <use x="904.273438" xlink:href="#DejaVuSans-6e"/>
      <use x="967.652344" xlink:href="#DejaVuSans-2c"/>
      <use x="999.439453" xlink:href="#DejaVuSans-74"/>
      <use x="1038.648438" xlink:href="#DejaVuSans-61"/>
      <use x="1099.927734" xlink:href="#DejaVuSans-72"/>
      <use x="1139.291016" xlink:href="#DejaVuSans-67"/>
      <use x="1202.767578" xlink:href="#DejaVuSans-65"/>
      <use x="1264.291016" xlink:href="#DejaVuSans-74"/>
      <use x="1303.5" xlink:href="#DejaVuSans-20"/>
      <use x="1335.287109" xlink:href="#DejaVuSans-70"/>
      <use x="1398.763672" xlink:href="#DejaVuSans-61"/>
      <use x="1460.042969" xlink:href="#DejaVuSans-69"/>
      <use x="1487.826172" xlink:href="#DejaVuSans-72"/>
      <use x="1528.939453" xlink:href="#DejaVuSans-73"/>
     </g>
    </g>
   </g>
   <g id="line2d_29">
    <defs>
     <path d="M 0 1.5 
C 0.397805 1.5 0.77937 1.341951 1.06066 1.06066 
C 1.341951 0.77937 1.5 0.397805 1.5 0 
C 1.5 -0.397805 1.341951 -0.77937 1.06066 -1.06066 
C 0.77937 -1.341951 0.397805 -1.5 0 -1.5 
C -0.397805 -1.5 -0.77937 -1.341951 -1.06066 -1.06066 
C -1.341951 -0.77937 -1.5 -0.397805 -1.5 0 
C -1.5 0.397805 -1.341951 0.77937 -1.06066 1.06066 
C -0.77937 1.341951 -0.397805 1.5 0 1.5 
z
" id="m6357adc34b" style="stroke:#000080;"/>
    </defs>
    <g>
     <use style="fill:#000080;stroke:#000080;" x="162.030064" xlink:href="#m6357adc34b" y="247.315345"/>
     <use style="fill:#000080;stroke:#000080;" x="162.030064" xlink:href="#m6357adc34b" y="247.315345"/>
    </g>
   </g>
   <g id="line2d_30">
    <path d="M 122.531342 298.944 
L 122.531342 297.223045 
L 124.101333 297.223045 
L 124.101333 294.928438 
L 124.519744 294.928438 
L 124.519744 292.060179 
L 124.706662 292.060179 
L 124.706662 289.765573 
L 125.927192 289.765573 
L 125.927192 289.191921 
L 125.996395 289.191921 
L 125.996395 288.618269 
L 126.099688 288.618269 
L 126.099688 288.044617 
L 127.48501 288.044617 
L 127.48501 284.602707 
L 127.516689 284.602707 
L 127.516689 282.881752 
L 127.642832 282.881752 
L 127.642832 281.734448 
L 128.350967 281.734448 
L 128.350967 281.160797 
L 130.45189 281.160797 
L 130.45189 280.587145 
L 130.478617 280.587145 
L 130.478617 278.86619 
L 132.011604 278.86619 
L 132.011604 277.145235 
L 132.084827 277.145235 
L 132.084827 276.571583 
L 132.30267 276.571583 
L 132.30267 272.556021 
L 132.917126 272.556021 
L 132.917126 271.982369 
L 132.963507 271.982369 
L 132.963507 271.408718 
L 132.986651 271.408718 
L 132.986651 270.835066 
L 133.032848 270.835066 
L 133.032848 268.540459 
L 133.0559 268.540459 
L 133.0559 265.098549 
L 133.888106 265.098549 
L 133.888106 263.951245 
L 134.364738 263.951245 
L 134.364738 262.803942 
L 134.534878 262.803942 
L 134.534878 262.23029 
L 135.097149 262.23029 
L 135.097149 261.082987 
L 135.341343 261.082987 
L 135.341343 260.509335 
L 137.928288 260.509335 
L 137.928288 259.935683 
L 138.049816 259.935683 
L 138.049816 256.493773 
L 138.794909 256.493773 
L 138.794909 253.625514 
L 138.861092 253.625514 
L 138.861092 253.051863 
L 140.363363 253.051863 
L 140.363363 252.478211 
L 141.104941 252.478211 
L 141.104941 251.904559 
L 147.287301 251.904559 
L 147.287301 251.330907 
L 149.205001 251.330907 
L 149.205001 250.757256 
L 150.051085 250.757256 
L 150.051085 250.183604 
L 150.590355 250.183604 
L 150.590355 249.609952 
L 158.694975 249.609952 
L 158.694975 249.036301 
L 159.728221 249.036301 
L 159.728221 248.462649 
L 160.571004 248.462649 
L 160.571004 247.888997 
L 162.030064 247.888997 
L 162.030064 247.315345 
L 338.688 247.315345 
" style="fill:none;stroke:#000080;stroke-linecap:square;stroke-width:1.5;"/>
   </g>
   <g id="line2d_31">
    <defs>
     <path d="M 0 6 
C 1.591219 6 3.117479 5.367802 4.242641 4.242641 
C 5.367802 3.117479 6 1.591219 6 0 
C 6 -1.591219 5.367802 -3.117479 4.242641 -4.242641 
C 3.117479 -5.367802 1.591219 -6 0 -6 
C -1.591219 -6 -3.117479 -5.367802 -4.242641 -4.242641 
C -5.367802 -3.117479 -6 -1.591219 -6 0 
C -6 1.591219 -5.367802 3.117479 -4.242641 4.242641 
C -3.117479 5.367802 -1.591219 6 0 6 
z
" id="me69fdc595e" style="stroke:#000080;stroke-width:1.5;"/>
    </defs>
    <g>
     <use style="fill-opacity:0;stroke:#000080;stroke-width:1.5;" x="130.478617" xlink:href="#me69fdc595e" y="280.587145"/>
     <use style="fill-opacity:0;stroke:#000080;stroke-width:1.5;" x="137.928288" xlink:href="#me69fdc595e" y="259.935683"/>
     <use style="fill-opacity:0;stroke:#000080;stroke-width:1.5;" x="162.030064" xlink:href="#me69fdc595e" y="247.888997"/>
     <use style="fill-opacity:0;stroke:#000080;stroke-width:1.5;" x="162.030064" xlink:href="#me69fdc595e" y="247.315345"/>
     <use style="fill-opacity:0;stroke:#000080;stroke-width:1.5;" x="338.688" xlink:href="#me69fdc595e" y="247.315345"/>
    </g>
   </g>
   <g id="line2d_32">
    <path style="fill:none;stroke:#000080;stroke-linecap:square;stroke-width:1.5;"/>
    <g/>
   </g>
   <g id="line2d_33">
    <path clip-path="url(#pdefd062621)" d="M 165.978297 247.315345 
" style="fill:none;stroke:#000080;stroke-linecap:square;stroke-width:1.5;"/>
    <defs>
     <path d="M -12 12 
L 12 -12 
M -12 -12 
L 12 12 
" id="m6182578521" style="stroke:#000080;"/>
    </defs>
    <g clip-path="url(#pdefd062621)">
     <use style="fill:#000080;stroke:#000080;" x="165.978297" xlink:href="#m6182578521" y="247.315345"/>
    </g>
   </g>
   <g id="line2d_34">
    <defs>
     <path d="M 0 1.5 
C 0.397805 1.5 0.77937 1.341951 1.06066 1.06066 
C 1.341951 0.77937 1.5 0.397805 1.5 0 
C 1.5 -0.397805 1.341951 -0.77937 1.06066 -1.06066 
C 0.77937 -1.341951 0.397805 -1.5 0 -1.5 
C -0.397805 -1.5 -0.77937 -1.341951 -1.06066 -1.06066 
C -1.341951 -0.77937 -1.5 -0.397805 -1.5 0 
C -1.5 0.397805 -1.341951 0.77937 -1.06066 1.06066 
C -0.77937 1.341951 -0.397805 1.5 0 1.5 
z
" id="m98a18660a8" style="stroke:#ff00ff;"/>
    </defs>
    <g>
     <use style="fill:#ff00ff;stroke:#ff00ff;" x="236.475126" xlink:href="#m98a18660a8" y="12.118141"/>
     <use style="fill:#ff00ff;stroke:#ff00ff;" x="236.475126" xlink:href="#m98a18660a8" y="12.118141"/>
    </g>
   </g>
   <g id="line2d_35">
    <path d="M 17.444571 298.944 
L 17.444571 293.207483 
L 48.691568 293.207483 
L 48.691568 292.633831 
L 59.262141 292.633831 
L 59.262141 292.060179 
L 63.467834 292.060179 
L 63.467834 291.486528 
L 82.206598 291.486528 
L 82.206598 290.912876 
L 82.626842 290.912876 
L 82.626842 290.339224 
L 87.009585 290.339224 
L 87.009585 289.765573 
L 87.329581 289.765573 
L 87.329581 289.191921 
L 94.080605 289.191921 
L 94.080605 288.618269 
L 99.575392 288.618269 
L 99.575392 288.044617 
L 109.491096 288.044617 
L 109.491096 287.470966 
L 109.930396 287.470966 
L 109.930396 286.897314 
L 112.128456 286.897314 
L 112.204777 285.75001 
L 113.804498 285.75001 
L 113.804498 285.176359 
L 113.942906 285.176359 
L 113.942906 284.602707 
L 115.835374 284.602707 
L 115.835374 284.029055 
L 116.972471 284.029055 
L 116.972471 283.455404 
L 118.256582 283.455404 
L 118.256582 282.881752 
L 120.093994 282.881752 
L 120.093994 282.3081 
L 121.800118 282.3081 
L 121.800118 281.734448 
L 121.931406 281.734448 
L 121.931406 281.160797 
L 122.740699 281.160797 
L 122.740699 280.587145 
L 124.594752 280.587145 
L 124.594752 280.013493 
L 127.389626 280.013493 
L 127.389626 279.439842 
L 128.560901 279.439842 
L 128.560901 278.86619 
L 133.009765 278.86619 
L 133.009765 277.718886 
L 134.870259 277.718886 
L 134.870259 277.145235 
L 135.117629 277.145235 
L 135.117629 276.571583 
L 135.361539 276.571583 
L 135.361539 275.997931 
L 135.740886 275.997931 
L 135.800036 274.850628 
L 136.170062 274.850628 
L 136.266147 273.703324 
L 136.79465 273.703324 
L 136.79465 273.129673 
L 137.928288 273.129673 
L 137.928288 272.556021 
L 139.69937 272.556021 
L 139.69937 271.982369 
L 140.378508 271.982369 
L 140.378508 271.408718 
L 142.499711 271.408718 
L 142.499711 270.261414 
L 143.157379 270.261414 
L 143.221802 269.114111 
L 143.451774 269.114111 
L 143.451774 268.540459 
L 143.87806 268.540459 
L 143.87806 267.966807 
L 144.402681 267.966807 
L 144.426702 266.819504 
L 146.205204 266.819504 
L 146.216039 265.098549 
L 146.506074 265.098549 
L 146.506074 264.524897 
L 146.906268 264.524897 
L 146.906268 263.951245 
L 147.215849 263.951245 
L 147.215849 262.803942 
L 148.1808 262.803942 
L 148.1808 262.23029 
L 149.159312 262.23029 
L 149.159312 261.656638 
L 149.593058 261.656638 
L 149.664311 260.509335 
L 150.539708 260.509335 
L 150.590355 259.362031 
L 150.866312 259.362031 
L 150.866312 257.641076 
L 151.324836 257.641076 
L 151.324836 257.067425 
L 151.501723 257.067425 
L 151.501723 256.493773 
L 152.060646 256.493773 
L 152.068392 255.346469 
L 152.443774 255.346469 
L 152.443774 254.199166 
L 152.602211 254.199166 
L 152.602211 253.625514 
L 152.826082 253.625514 
L 152.914832 252.478211 
L 152.959038 252.478211 
L 152.995791 251.330907 
L 153.214697 251.330907 
L 153.214697 250.757256 
L 154.283459 250.757256 
L 154.290278 249.609952 
L 154.580996 249.609952 
L 154.580996 248.462649 
L 155.017994 248.462649 
L 155.017994 247.888997 
L 155.238912 247.888997 
L 155.245367 246.741694 
L 155.412374 246.741694 
L 155.412374 246.168042 
L 156.077167 246.168042 
L 156.077167 245.59439 
L 156.400295 245.59439 
L 156.424441 243.873435 
L 156.747178 243.873435 
L 156.841668 242.726132 
L 157.11051 242.726132 
L 157.185742 239.284221 
L 157.249147 239.284221 
L 157.249147 238.71057 
L 157.398103 238.71057 
L 157.426604 237.563266 
L 157.770607 237.563266 
L 157.86528 235.842311 
L 157.926266 235.842311 
L 157.926266 235.268659 
L 158.287772 235.268659 
L 158.287772 234.695008 
L 158.556736 234.695008 
L 158.583406 233.547704 
L 158.753132 233.547704 
L 158.811096 232.400401 
L 159.015067 232.400401 
L 159.07735 230.679446 
L 159.206397 230.679446 
L 159.273126 226.663884 
L 159.370195 226.663884 
L 159.370195 226.090232 
L 159.527421 226.090232 
L 159.587904 224.942928 
L 159.763125 224.942928 
L 159.763125 224.369277 
L 159.897102 224.369277 
L 159.897102 223.221973 
L 160.030058 223.221973 
L 160.030058 222.648321 
L 160.268789 222.648321 
L 160.268789 221.501018 
L 160.537682 221.501018 
L 160.537682 220.353715 
L 160.755498 220.353715 
L 160.755498 219.780063 
L 160.975275 219.780063 
L 161.072584 217.485456 
L 161.127947 217.485456 
L 161.238149 215.764501 
L 161.338558 215.764501 
L 161.338558 215.190849 
L 161.47907 215.190849 
L 161.47907 214.617197 
L 161.977497 214.617197 
L 161.977497 214.043546 
L 162.52596 214.043546 
L 162.52596 212.896242 
L 162.690982 212.896242 
L 162.787576 209.454332 
L 162.941851 209.454332 
L 162.970886 207.733377 
L 163.250446 207.733377 
L 163.35211 206.012422 
L 163.372371 206.012422 
L 163.372371 205.43877 
L 163.58171 205.43877 
L 163.58171 203.717815 
L 163.776697 203.717815 
L 163.776697 203.144163 
L 164.012526 203.144163 
L 164.012526 202.570511 
L 164.152508 202.570511 
L 164.152508 201.423208 
L 164.345081 201.423208 
L 164.371873 198.554949 
L 164.5507 198.554949 
L 164.5507 197.981298 
L 164.723964 197.981298 
L 164.723964 197.407646 
L 164.91407 197.407646 
L 164.947404 196.260342 
L 165.09112 196.260342 
L 165.120455 193.965736 
L 165.277287 193.965736 
L 165.335285 191.097477 
L 165.46508 191.097477 
L 165.479442 189.950174 
L 165.693467 189.950174 
L 165.693467 187.081915 
L 165.813593 187.081915 
L 165.838222 185.934612 
L 170.16305 185.934612 
L 170.16305 185.36096 
L 170.84376 185.36096 
L 170.84376 184.787308 
L 171.345738 184.787308 
L 171.345738 183.640005 
L 171.600256 183.640005 
L 171.61036 182.492701 
L 172.098413 182.492701 
L 172.098413 181.345398 
L 172.460504 181.345398 
L 172.460504 180.771746 
L 172.58751 180.771746 
L 172.58751 180.198094 
L 172.701741 180.198094 
L 172.730183 179.050791 
L 173.282599 179.050791 
L 173.282599 177.903487 
L 173.524119 177.903487 
L 173.524119 176.182532 
L 173.751176 176.182532 
L 173.858056 173.887925 
L 173.935579 173.887925 
L 173.935579 172.740622 
L 174.190075 172.740622 
L 174.190075 172.16697 
L 174.440911 172.16697 
L 174.47737 169.872363 
L 174.641561 169.872363 
L 174.641561 169.298712 
L 174.929925 169.298712 
L 175.03399 165.856801 
L 175.137439 165.856801 
L 175.162175 164.135846 
L 175.289425 164.135846 
L 175.289425 162.988543 
L 175.444152 162.988543 
L 175.444152 161.841239 
L 175.55729 161.841239 
L 175.55729 161.267588 
L 175.85677 161.267588 
L 175.900264 160.120284 
L 176.133667 160.120284 
L 176.135616 157.252026 
L 176.331271 157.252026 
L 176.331271 156.678374 
L 176.499971 156.678374 
L 176.574218 153.810115 
L 176.614066 153.810115 
L 176.614066 152.662812 
L 176.866214 152.662812 
L 176.899808 150.368205 
L 177.276091 150.368205 
L 177.367091 148.64725 
L 177.450394 148.64725 
L 177.450394 148.073598 
L 177.578194 148.073598 
L 177.642639 145.20534 
L 177.719303 145.20534 
L 177.811565 141.189778 
L 177.924452 141.189778 
L 177.996389 136.600564 
L 181.102837 136.600564 
L 181.102837 136.026912 
L 181.39345 136.026912 
L 181.473961 134.305957 
L 181.505489 134.305957 
L 181.608275 131.437698 
L 181.677882 131.437698 
L 181.677882 130.864047 
L 182.235942 130.864047 
L 182.246923 129.716743 
L 182.408095 129.716743 
L 182.447478 127.995788 
L 182.589333 127.995788 
L 182.589333 127.422136 
L 182.724704 127.422136 
L 182.828533 125.701181 
L 182.930429 125.701181 
L 182.930429 125.127529 
L 183.110264 125.127529 
L 183.158516 123.980226 
L 183.24037 123.980226 
L 183.24037 121.685619 
L 183.433726 121.685619 
L 183.433726 120.538316 
L 183.563995 120.538316 
L 183.623694 119.391012 
L 183.695823 119.391012 
L 183.762623 116.522754 
L 183.872975 116.522754 
L 183.874225 115.37545 
L 184.10888 115.37545 
L 184.182718 112.507192 
L 184.368386 112.507192 
L 184.374461 111.359888 
L 184.549695 111.359888 
L 184.618101 109.065281 
L 184.674304 109.065281 
L 184.674304 108.49163 
L 184.800401 108.49163 
L 184.906752 106.197023 
L 184.972601 106.197023 
L 184.972601 105.623371 
L 185.090739 105.623371 
L 185.090739 105.049719 
L 187.576675 105.049719 
L 187.677469 103.902416 
L 188.024744 103.902416 
L 188.131803 102.181461 
L 188.139635 102.181461 
L 188.210937 100.460506 
L 188.435626 100.460506 
L 188.451977 99.313202 
L 188.667904 99.313202 
L 188.70395 95.29764 
L 188.821056 95.29764 
L 188.821056 94.723988 
L 189.031559 94.723988 
L 189.06222 93.003033 
L 189.215643 93.003033 
L 189.236794 91.282078 
L 189.424193 91.282078 
L 189.424193 90.708426 
L 189.580786 90.708426 
L 189.629379 88.987471 
L 189.760085 88.987471 
L 189.766327 87.840168 
L 189.936675 87.840168 
L 190.027379 85.545561 
L 190.083502 85.545561 
L 190.083502 84.971909 
L 191.897083 84.971909 
L 191.897083 84.398257 
L 192.014255 84.398257 
L 192.093235 82.677302 
L 192.324972 82.677302 
L 192.368034 81.529999 
L 192.44696 81.529999 
L 192.44696 80.956347 
L 192.697452 80.956347 
L 192.755386 79.809044 
L 192.893797 79.809044 
L 192.941425 78.66174 
L 193.177633 78.66174 
L 193.233997 77.514437 
L 193.298189 77.514437 
L 193.298189 76.940785 
L 193.435987 76.940785 
L 193.479277 75.21983 
L 193.592046 75.21983 
L 193.669911 74.072526 
L 193.907771 74.072526 
L 194.017812 70.056964 
L 195.358146 70.056964 
L 195.358146 69.483313 
L 195.839916 69.483313 
L 195.908383 68.336009 
L 196.098549 68.336009 
L 196.098549 67.762358 
L 196.263951 67.762358 
L 196.347901 64.320447 
L 196.394298 64.320447 
L 196.394298 62.599492 
L 196.532754 62.599492 
L 196.604584 61.452189 
L 196.718661 61.452189 
L 196.718661 60.304885 
L 196.845072 60.304885 
L 196.912671 59.157582 
L 196.991796 59.157582 
L 196.991796 58.58393 
L 197.119758 58.58393 
L 197.202026 56.289323 
L 198.514071 56.289323 
L 198.57013 55.14202 
L 198.65174 55.14202 
L 198.731904 53.421065 
L 198.967051 53.421065 
L 198.967051 52.847413 
L 199.131976 52.847413 
L 199.164255 51.126458 
L 199.256595 51.126458 
L 199.256595 50.552806 
L 199.480222 50.552806 
L 199.590715 47.684547 
L 199.79207 47.684547 
L 199.873165 45.389941 
L 201.212757 45.389941 
L 201.212757 44.816289 
L 201.532173 44.816289 
L 201.554863 43.668985 
L 201.704782 43.668985 
L 201.789556 42.521682 
L 201.863674 42.521682 
L 201.949898 40.800727 
L 202.049368 40.800727 
L 202.049368 40.227075 
L 202.163171 40.227075 
L 202.224815 39.079772 
L 203.15861 39.079772 
L 203.15861 38.50612 
L 204.122218 38.50612 
L 204.226028 36.785165 
L 205.315041 36.785165 
L 205.351923 35.637861 
L 205.607932 35.637861 
L 205.607932 35.06421 
L 206.037194 35.06421 
L 206.105451 31.048648 
L 207.278077 31.048648 
L 207.278077 30.474996 
L 207.421531 30.474996 
L 207.421531 29.901344 
L 207.653554 29.901344 
L 207.73329 28.180389 
L 208.724169 28.180389 
L 208.816521 27.033086 
L 208.880103 27.033086 
L 208.880103 26.459434 
L 209.035837 26.459434 
L 209.118918 25.31213 
L 209.255929 25.31213 
L 209.289724 23.591175 
L 210.053348 23.591175 
L 210.053348 23.017524 
L 210.513833 23.017524 
L 210.575314 21.87022 
L 210.660541 21.87022 
L 210.660541 21.296568 
L 211.421248 21.296568 
L 211.421248 20.722917 
L 211.956408 20.722917 
L 211.956408 20.149265 
L 212.829157 20.149265 
L 212.829157 19.575613 
L 213.042154 19.575613 
L 213.042154 19.001962 
L 213.162608 19.001962 
L 213.162608 18.42831 
L 214.29075 18.42831 
L 214.29075 17.854658 
L 215.350326 17.854658 
L 215.350326 17.281006 
L 217.208943 17.281006 
L 217.293938 14.9864 
L 222.087907 14.9864 
L 222.087907 14.412748 
L 225.844189 14.412748 
L 225.844189 13.839096 
L 228.454746 13.839096 
L 228.454746 13.265444 
L 229.851984 13.265444 
L 229.851984 12.691793 
L 236.475126 12.691793 
L 236.475126 12.118141 
L 338.688 12.118141 
L 338.688 12.118141 
" style="fill:none;stroke:#ff00ff;stroke-linecap:square;stroke-width:1.5;"/>
   </g>
   <g id="line2d_36">
    <defs>
     <path d="M 0 8.485281 
L 5.091169 0 
L 0 -8.485281 
L -5.091169 0 
z
" id="mf90cca3bf0" style="stroke:#ff00ff;stroke-linejoin:miter;stroke-width:1.5;"/>
    </defs>
    <g>
     <use style="fill-opacity:0;stroke:#ff00ff;stroke-linejoin:miter;stroke-width:1.5;" x="99.575392" xlink:href="#mf90cca3bf0" y="288.618269"/>
     <use style="fill-opacity:0;stroke:#ff00ff;stroke-linejoin:miter;stroke-width:1.5;" x="152.959038" xlink:href="#mf90cca3bf0" y="251.904559"/>
     <use style="fill-opacity:0;stroke:#ff00ff;stroke-linejoin:miter;stroke-width:1.5;" x="193.298189" xlink:href="#mf90cca3bf0" y="76.940785"/>
     <use style="fill-opacity:0;stroke:#ff00ff;stroke-linejoin:miter;stroke-width:1.5;" x="236.475126" xlink:href="#mf90cca3bf0" y="12.691793"/>
     <use style="fill-opacity:0;stroke:#ff00ff;stroke-linejoin:miter;stroke-width:1.5;" x="236.475126" xlink:href="#mf90cca3bf0" y="12.118141"/>
     <use style="fill-opacity:0;stroke:#ff00ff;stroke-linejoin:miter;stroke-width:1.5;" x="338.688" xlink:href="#mf90cca3bf0" y="12.118141"/>
    </g>
   </g>
   <g id="line2d_37">
    <path style="fill:none;stroke:#ff00ff;stroke-linecap:square;stroke-width:1.5;"/>
    <g/>
   </g>
   <g id="line2d_38">
    <path clip-path="url(#pdefd062621)" d="M 165.978297 185.934612 
" style="fill:none;stroke:#ff00ff;stroke-linecap:square;stroke-width:1.5;"/>
    <defs>
     <path d="M -12 12 
L 12 -12 
M -12 -12 
L 12 12 
" id="m4d717c57e8" style="stroke:#ff00ff;"/>
    </defs>
    <g clip-path="url(#pdefd062621)">
     <use style="fill:#ff00ff;stroke:#ff00ff;" x="165.978297" xlink:href="#m4d717c57e8" y="185.934612"/>
    </g>
   </g>
   <g id="line2d_39">
    <defs>
     <path d="M 0 1.5 
C 0.397805 1.5 0.77937 1.341951 1.06066 1.06066 
C 1.341951 0.77937 1.5 0.397805 1.5 0 
C 1.5 -0.397805 1.341951 -0.77937 1.06066 -1.06066 
C 0.77937 -1.341951 0.397805 -1.5 0 -1.5 
C -0.397805 -1.5 -0.77937 -1.341951 -1.06066 -1.06066 
C -1.341951 -0.77937 -1.5 -0.397805 -1.5 0 
C -1.5 0.397805 -1.341951 0.77937 -1.06066 1.06066 
C -0.77937 1.341951 -0.397805 1.5 0 1.5 
z
" id="mce3e4c9192" style="stroke:#ff7500;"/>
    </defs>
    <g>
     <use style="fill:#ff7500;stroke:#ff7500;" x="232.719733" xlink:href="#mce3e4c9192" y="149.794553"/>
     <use style="fill:#ff7500;stroke:#ff7500;" x="232.719733" xlink:href="#mce3e4c9192" y="149.794553"/>
    </g>
   </g>
   <g id="line2d_40">
    <path d="M 17.444571 298.944 
L 17.444571 293.207483 
L 48.691568 293.207483 
L 48.691568 292.633831 
L 67.850577 292.633831 
L 67.850577 292.060179 
L 72.867545 292.060179 
L 72.867545 291.486528 
L 73.579452 291.486528 
L 73.579452 290.912876 
L 78.941764 290.912876 
L 78.941764 290.339224 
L 80.416384 290.339224 
L 80.416384 289.765573 
L 97.928955 289.765573 
L 97.928955 289.191921 
L 98.270913 289.191921 
L 98.270913 287.470966 
L 100.192776 287.470966 
L 100.192776 286.897314 
L 110.188761 286.897314 
L 110.188761 286.323662 
L 110.694282 286.323662 
L 110.694282 285.75001 
L 113.804498 285.75001 
L 113.804498 284.602707 
L 117.087964 284.602707 
L 117.087964 284.029055 
L 117.875678 284.029055 
L 117.875678 283.455404 
L 118.523652 283.455404 
L 118.523652 282.881752 
L 119.751557 282.881752 
L 119.751557 281.734448 
L 120.190611 281.734448 
L 120.190611 280.587145 
L 125.110962 280.587145 
L 125.110962 280.013493 
L 127.516689 280.013493 
L 127.516689 279.439842 
L 129.574256 279.439842 
L 129.574256 278.86619 
L 130.505303 278.86619 
L 130.505303 278.292538 
L 130.717333 278.292538 
L 130.717333 277.718886 
L 131.030622 277.718886 
L 131.030622 277.145235 
L 131.790072 277.145235 
L 131.790072 276.571583 
L 132.517825 276.571583 
L 132.517825 275.997931 
L 132.986651 275.997931 
L 132.986651 275.42428 
L 135.158519 275.42428 
L 135.158519 274.850628 
L 135.995765 274.850628 
L 135.995765 273.703324 
L 136.227776 273.703324 
L 136.227776 273.129673 
L 139.840453 273.129673 
L 139.840453 272.556021 
L 139.980403 272.556021 
L 140.057671 271.408718 
L 140.393639 271.408718 
L 140.393639 270.835066 
L 141.104941 270.835066 
L 141.104941 270.261414 
L 141.235139 270.261414 
L 141.235139 269.687762 
L 141.830201 269.687762 
L 141.871938 268.540459 
L 142.188649 268.540459 
L 142.188649 267.966807 
L 142.51311 267.966807 
L 142.51311 266.819504 
L 143.157379 266.819504 
L 143.157379 266.245852 
L 143.349938 266.245852 
L 143.349938 265.6722 
L 143.93988 265.6722 
L 143.93988 265.098549 
L 144.099593 265.098549 
L 144.099593 264.524897 
L 144.414696 264.524897 
L 144.414696 263.951245 
L 144.888619 263.951245 
L 144.888619 263.377593 
L 145.005114 263.377593 
L 145.005114 262.803942 
L 145.564956 262.803942 
L 145.564956 262.23029 
L 145.755062 262.23029 
L 145.799493 260.509335 
L 146.161795 260.509335 
L 146.161795 259.935683 
L 148.45922 259.935683 
L 148.45922 259.362031 
L 148.686322 259.362031 
L 148.686322 258.78838 
L 150.024985 258.78838 
L 150.024985 258.214728 
L 150.146453 258.214728 
L 150.146453 257.641076 
L 150.47195 257.641076 
L 150.54816 256.493773 
L 151.243836 256.493773 
L 151.276281 255.346469 
L 152.481628 255.346469 
L 152.481628 254.772818 
L 153.59484 254.772818 
L 153.59484 254.199166 
L 153.729125 254.199166 
L 153.729125 253.625514 
L 154.063835 253.625514 
L 154.063835 253.051863 
L 154.607795 253.051863 
L 154.607795 252.478211 
L 154.919633 252.478211 
L 154.919633 251.904559 
L 155.238912 251.904559 
L 155.238912 251.330907 
L 155.872907 251.330907 
L 155.872907 250.757256 
L 156.040206 250.757256 
L 156.040206 249.609952 
L 156.315521 249.609952 
L 156.315521 249.036301 
L 157.380981 249.036301 
L 157.380981 248.462649 
L 157.942862 248.462649 
L 157.94839 247.315345 
L 159.283369 247.315345 
L 159.283369 246.741694 
L 160.746084 246.741694 
L 160.746084 245.59439 
L 161.663187 245.59439 
L 161.663187 245.020738 
L 162.117326 245.020738 
L 162.117326 244.447087 
L 162.55145 244.447087 
L 162.559939 243.299783 
L 162.958448 243.299783 
L 162.958448 242.726132 
L 163.152289 242.726132 
L 163.152289 241.578828 
L 164.256762 241.578828 
L 164.348911 240.431525 
L 164.675172 240.431525 
L 164.675172 239.284221 
L 164.91407 239.284221 
L 164.917777 238.136918 
L 165.102127 238.136918 
L 165.102127 236.989614 
L 165.295432 236.989614 
L 165.295432 236.415963 
L 171.095254 236.415963 
L 171.095254 235.842311 
L 171.853604 235.842311 
L 171.853604 235.268659 
L 171.982619 235.268659 
L 171.982619 234.121356 
L 175.338435 234.121356 
L 175.338435 232.974052 
L 176.041856 232.974052 
L 176.041856 232.400401 
L 176.4369 232.400401 
L 176.440729 230.679446 
L 176.621646 230.679446 
L 176.710463 228.384839 
L 176.80258 228.384839 
L 176.80258 227.811187 
L 177.265139 227.811187 
L 177.270615 226.663884 
L 177.426892 226.663884 
L 177.426892 226.090232 
L 177.728195 226.090232 
L 177.728195 225.51658 
L 181.925631 225.51658 
L 181.925631 224.942928 
L 182.37271 224.942928 
L 182.37271 224.369277 
L 182.84843 224.369277 
L 182.84843 223.795625 
L 183.56145 223.795625 
L 183.56145 223.221973 
L 183.814124 223.221973 
L 183.814124 222.07467 
L 184.245235 222.07467 
L 184.245235 221.501018 
L 184.713659 221.501018 
L 184.713659 220.353715 
L 184.850112 220.353715 
L 184.850112 219.780063 
L 185.080244 219.780063 
L 185.080244 219.206411 
L 187.376391 219.206411 
L 187.376391 218.632759 
L 188.985932 218.632759 
L 188.985932 218.059108 
L 189.26618 218.059108 
L 189.26618 217.485456 
L 189.417827 217.485456 
L 189.489536 215.190849 
L 189.533865 215.190849 
L 189.533865 214.617197 
L 189.758301 214.617197 
L 189.837508 213.469894 
L 189.939324 213.469894 
L 189.986048 212.322591 
L 190.111496 212.322591 
L 190.111496 211.748939 
L 193.117409 211.748939 
L 193.117409 211.175287 
L 193.263934 211.175287 
L 193.338917 210.027984 
L 193.515989 210.027984 
L 193.515989 209.454332 
L 193.731812 209.454332 
L 193.792786 206.586073 
L 193.873989 206.586073 
L 193.911287 204.291467 
L 195.130868 204.291467 
L 195.130868 203.717815 
L 196.638284 203.717815 
L 196.638284 203.144163 
L 196.784962 203.144163 
L 196.784962 202.570511 
L 197.082289 202.570511 
L 197.113324 199.128601 
L 199.358739 199.128601 
L 199.358739 198.554949 
L 199.536829 198.554949 
L 199.536829 197.407646 
L 199.733267 197.407646 
L 199.817641 194.539387 
L 199.889139 194.539387 
L 199.889139 193.965736 
L 201.667874 193.965736 
L 201.667874 193.392084 
L 201.877926 193.392084 
L 201.934817 191.097477 
L 202.135119 191.097477 
L 202.220886 189.376522 
L 203.786689 189.376522 
L 203.786689 188.80287 
L 204.003998 188.80287 
L 204.003998 187.655567 
L 204.121435 187.655567 
L 204.221747 185.36096 
L 205.842868 185.36096 
L 205.842868 184.213656 
L 205.977469 184.213656 
L 205.977469 183.640005 
L 207.510715 183.640005 
L 207.531652 182.492701 
L 207.681344 182.492701 
L 207.734881 180.198094 
L 208.99178 180.198094 
L 209.094506 177.903487 
L 209.208332 177.903487 
L 209.257387 176.756184 
L 210.41261 176.756184 
L 210.41261 176.182532 
L 210.612315 176.182532 
L 210.696018 174.461577 
L 211.675658 174.461577 
L 211.7524 172.740622 
L 211.989348 172.740622 
L 211.989348 172.16697 
L 214.166427 172.16697 
L 214.166427 171.593319 
L 214.288347 171.593319 
L 214.288347 170.446015 
L 215.119555 170.446015 
L 215.119555 169.872363 
L 215.243496 169.872363 
L 215.348064 168.72506 
L 215.377445 168.72506 
L 215.377445 168.151408 
L 216.238757 168.151408 
L 216.347059 165.856801 
L 217.198405 165.856801 
L 217.198405 165.28315 
L 217.318199 165.28315 
L 217.318199 164.709498 
L 217.994224 164.709498 
L 217.994224 164.135846 
L 218.15882 164.135846 
L 218.188199 162.414891 
L 219.040662 162.414891 
L 219.064439 161.267588 
L 219.826688 161.267588 
L 219.826688 160.693936 
L 220.604384 160.693936 
L 220.621869 159.546632 
L 221.348875 159.546632 
L 221.36563 158.399329 
L 222.008507 158.399329 
L 222.08637 157.252026 
L 222.696526 157.252026 
L 222.737225 156.104722 
L 223.448992 156.104722 
L 223.448992 155.53107 
L 224.059003 155.53107 
L 224.059003 154.957419 
L 224.672024 154.957419 
L 224.672024 154.383767 
L 225.836978 154.383767 
L 225.836978 153.810115 
L 227.450338 153.810115 
L 227.450338 153.236464 
L 227.956579 153.236464 
L 227.956579 152.662812 
L 228.926999 152.662812 
L 228.926999 152.08916 
L 230.288327 152.08916 
L 230.288327 151.515508 
L 231.14021 151.515508 
L 231.144616 150.368205 
L 232.719733 150.368205 
L 232.719733 149.794553 
L 338.688 149.794553 
L 338.688 149.794553 
" style="fill:none;stroke:#ff7500;stroke-linecap:square;stroke-width:1.5;"/>
   </g>
   <g id="line2d_41">
    <defs>
     <path d="M 0 -6 
L -1.347084 -1.854102 
L -5.706339 -1.854102 
L -2.179628 0.708204 
L -3.526712 4.854102 
L -0 2.291796 
L 3.526712 4.854102 
L 2.179628 0.708204 
L 5.706339 -1.854102 
L 1.347084 -1.854102 
z
" id="m7cbac1f166" style="stroke:#ff7500;stroke-linejoin:bevel;stroke-width:1.5;"/>
    </defs>
    <g>
     <use style="fill-opacity:0;stroke:#ff7500;stroke-linejoin:bevel;stroke-width:1.5;" x="159.283369" xlink:href="#m7cbac1f166" y="247.315345"/>
     <use style="fill-opacity:0;stroke:#ff7500;stroke-linejoin:bevel;stroke-width:1.5;" x="211.989348" xlink:href="#m7cbac1f166" y="172.16697"/>
     <use style="fill-opacity:0;stroke:#ff7500;stroke-linejoin:bevel;stroke-width:1.5;" x="232.719733" xlink:href="#m7cbac1f166" y="150.368205"/>
     <use style="fill-opacity:0;stroke:#ff7500;stroke-linejoin:bevel;stroke-width:1.5;" x="232.719733" xlink:href="#m7cbac1f166" y="149.794553"/>
     <use style="fill-opacity:0;stroke:#ff7500;stroke-linejoin:bevel;stroke-width:1.5;" x="338.688" xlink:href="#m7cbac1f166" y="149.794553"/>
    </g>
   </g>
   <g id="line2d_42">
    <path style="fill:none;stroke:#ff7500;stroke-linecap:square;stroke-width:1.5;"/>
    <g/>
   </g>
   <g id="line2d_43">
    <path clip-path="url(#pdefd062621)" d="M 165.978297 236.415963 
" style="fill:none;stroke:#ff7500;stroke-linecap:square;stroke-width:1.5;"/>
    <defs>
     <path d="M -12 12 
L 12 -12 
M -12 -12 
L 12 12 
" id="m4754fe7326" style="stroke:#ff7500;"/>
    </defs>
    <g clip-path="url(#pdefd062621)">
     <use style="fill:#ff7500;stroke:#ff7500;" x="165.978297" xlink:href="#m4754fe7326" y="236.415963"/>
    </g>
   </g>
   <g id="line2d_44">
    <defs>
     <path d="M 0 1.5 
C 0.397805 1.5 0.77937 1.341951 1.06066 1.06066 
C 1.341951 0.77937 1.5 0.397805 1.5 0 
C 1.5 -0.397805 1.341951 -0.77937 1.06066 -1.06066 
C 0.77937 -1.341951 0.397805 -1.5 0 -1.5 
C -0.397805 -1.5 -0.77937 -1.341951 -1.06066 -1.06066 
C -1.341951 -0.77937 -1.5 -0.397805 -1.5 0 
C -1.5 0.397805 -1.341951 0.77937 -1.06066 1.06066 
C -0.77937 1.341951 -0.397805 1.5 0 1.5 
z
" id="mde48b9c3f8" style="stroke:#6495ed;"/>
    </defs>
    <g>
     <use style="fill:#6495ed;stroke:#6495ed;" x="174.261802" xlink:href="#mde48b9c3f8" y="247.315345"/>
     <use style="fill:#6495ed;stroke:#6495ed;" x="174.261802" xlink:href="#mde48b9c3f8" y="247.315345"/>
    </g>
   </g>
   <g id="line2d_45">
    <path d="M 17.444571 298.944 
L 17.444571 271.982369 
L 29.53256 271.982369 
L 29.53256 267.966807 
L 36.60358 267.966807 
L 36.60358 267.393156 
L 41.620548 267.393156 
L 41.620548 266.819504 
L 45.512012 266.819504 
L 45.512012 265.098549 
L 51.379845 265.098549 
L 51.379845 264.524897 
L 55.762588 264.524897 
L 55.762588 263.951245 
L 59.262141 263.951245 
L 59.262141 263.377593 
L 62.175444 263.377593 
L 62.175444 262.23029 
L 72.125336 262.23029 
L 72.125336 261.656638 
L 72.867545 261.656638 
L 72.867545 261.082987 
L 75.555822 261.082987 
L 75.555822 260.509335 
L 79.447285 260.509335 
L 79.447285 259.935683 
L 82.626842 259.935683 
L 82.626842 258.78838 
L 84.588378 258.78838 
L 84.588378 258.214728 
L 93.197415 258.214728 
L 93.197415 257.641076 
L 97.755429 257.641076 
L 97.755429 257.067425 
L 98.935347 257.067425 
L 98.935347 256.493773 
L 109.31223 256.493773 
L 109.31223 255.920121 
L 115.077025 255.920121 
L 115.077025 255.346469 
L 119.148409 255.346469 
L 119.148409 254.772818 
L 124.406624 254.772818 
L 124.406624 254.199166 
L 139.317473 254.199166 
L 139.317473 253.625514 
L 141.148448 253.625514 
L 141.148448 253.051863 
L 142.33811 253.051863 
L 142.33811 252.478211 
L 144.233601 252.478211 
L 144.233601 251.904559 
L 147.459617 251.904559 
L 147.459617 251.330907 
L 151.047887 251.330907 
L 151.047887 250.757256 
L 157.300853 250.757256 
L 157.300853 250.183604 
L 158.009087 250.183604 
L 158.009087 249.609952 
L 159.247491 249.609952 
L 159.247491 249.036301 
L 165.468672 249.036301 
L 165.468672 248.462649 
L 170.38389 248.462649 
L 170.38389 247.888997 
L 174.261802 247.888997 
L 174.261802 247.315345 
L 338.688 247.315345 
" style="fill:none;stroke:#6495ed;stroke-linecap:square;stroke-width:1.5;"/>
   </g>
   <g id="line2d_46">
    <defs>
     <path d="M -0 6 
L 6 -6 
L -6 -6 
z
" id="m785a1b157f" style="stroke:#6495ed;stroke-linejoin:miter;stroke-width:1.5;"/>
    </defs>
    <g>
     <use style="fill-opacity:0;stroke:#6495ed;stroke-linejoin:miter;stroke-width:1.5;" x="97.755429" xlink:href="#m785a1b157f" y="257.641076"/>
     <use style="fill-opacity:0;stroke:#6495ed;stroke-linejoin:miter;stroke-width:1.5;" x="165.468672" xlink:href="#m785a1b157f" y="249.036301"/>
     <use style="fill-opacity:0;stroke:#6495ed;stroke-linejoin:miter;stroke-width:1.5;" x="174.261802" xlink:href="#m785a1b157f" y="247.888997"/>
     <use style="fill-opacity:0;stroke:#6495ed;stroke-linejoin:miter;stroke-width:1.5;" x="174.261802" xlink:href="#m785a1b157f" y="247.315345"/>
     <use style="fill-opacity:0;stroke:#6495ed;stroke-linejoin:miter;stroke-width:1.5;" x="174.261802" xlink:href="#m785a1b157f" y="247.315345"/>
     <use style="fill-opacity:0;stroke:#6495ed;stroke-linejoin:miter;stroke-width:1.5;" x="338.688" xlink:href="#m785a1b157f" y="247.315345"/>
    </g>
   </g>
   <g id="line2d_47">
    <path style="fill:none;stroke:#6495ed;stroke-linecap:square;stroke-width:1.5;"/>
    <g/>
   </g>
   <g id="line2d_48">
    <path clip-path="url(#pdefd062621)" d="M 165.978297 248.462649 
" style="fill:none;stroke:#6495ed;stroke-linecap:square;stroke-width:1.5;"/>
    <defs>
     <path d="M -12 12 
L 12 -12 
M -12 -12 
L 12 12 
" id="m98bf5d2dd4" style="stroke:#6495ed;"/>
    </defs>
    <g clip-path="url(#pdefd062621)">
     <use style="fill:#6495ed;stroke:#6495ed;" x="165.978297" xlink:href="#m98bf5d2dd4" y="248.462649"/>
    </g>
   </g>
   <g id="line2d_49">
    <defs>
     <path d="M 0 1.5 
C 0.397805 1.5 0.77937 1.341951 1.06066 1.06066 
C 1.341951 0.77937 1.5 0.397805 1.5 0 
C 1.5 -0.397805 1.341951 -0.77937 1.06066 -1.06066 
C 0.77937 -1.341951 0.397805 -1.5 0 -1.5 
C -0.397805 -1.5 -0.77937 -1.341951 -1.06066 -1.06066 
C -1.341951 -0.77937 -1.5 -0.397805 -1.5 0 
C -1.5 0.397805 -1.341951 0.77937 -1.06066 1.06066 
C -0.77937 1.341951 -0.397805 1.5 0 1.5 
z
" id="me4e4ee3217" style="stroke:#ff0000;"/>
    </defs>
    <g>
     <use style="fill:#ff0000;stroke:#ff0000;" x="211.685047" xlink:href="#me4e4ee3217" y="281.734448"/>
     <use style="fill:#ff0000;stroke:#ff0000;" x="211.685047" xlink:href="#me4e4ee3217" y="281.734448"/>
    </g>
   </g>
   <g id="line2d_50">
    <path d="M 122.061712 298.944 
L 122.061712 298.370348 
L 123.273551 298.370348 
L 123.273551 297.796697 
L 129.347769 297.796697 
L 129.347769 297.223045 
L 131.26195 297.223045 
L 131.26195 296.649393 
L 132.206187 296.649393 
L 132.206187 296.075741 
L 132.374684 296.075741 
L 132.374684 295.50209 
L 133.488207 295.50209 
L 133.488207 294.928438 
L 134.062938 294.928438 
L 134.062938 294.354786 
L 136.20856 294.354786 
L 136.20856 293.781135 
L 139.730821 293.781135 
L 139.730821 293.207483 
L 141.844124 293.207483 
L 141.844124 292.633831 
L 142.526499 292.633831 
L 142.526499 292.060179 
L 147.56019 292.060179 
L 147.56019 291.486528 
L 149.332295 291.486528 
L 149.332295 290.912876 
L 151.755852 290.912876 
L 151.755852 290.339224 
L 157.420907 290.339224 
L 157.420907 289.765573 
L 158.422772 289.765573 
L 158.422772 289.191921 
L 158.76896 289.191921 
L 158.76896 288.618269 
L 158.874111 288.618269 
L 158.874111 288.044617 
L 160.919424 288.044617 
L 160.919424 287.470966 
L 174.831533 287.470966 
L 174.831533 286.897314 
L 177.931484 286.897314 
L 177.931484 285.75001 
L 189.020396 285.75001 
L 189.020396 285.176359 
L 193.144609 285.176359 
L 193.144609 284.602707 
L 193.991941 284.602707 
L 193.991941 284.029055 
L 201.684537 284.029055 
L 201.684537 283.455404 
L 205.688982 283.455404 
L 205.688982 282.881752 
L 207.771435 282.881752 
L 207.771435 282.3081 
L 211.685047 282.3081 
L 211.685047 281.734448 
L 338.688 281.734448 
" style="fill:none;stroke:#ff0000;stroke-linecap:square;stroke-width:1.5;"/>
   </g>
   <g id="line2d_51">
    <defs>
     <path d="M 0 -6 
L -5.196152 -3 
L -5.196152 3 
L -0 6 
L 5.196152 3 
L 5.196152 -3 
z
" id="m4a89fb6d6d" style="stroke:#ff0000;stroke-linejoin:miter;stroke-width:1.5;"/>
    </defs>
    <g>
     <use style="fill-opacity:0;stroke:#ff0000;stroke-linejoin:miter;stroke-width:1.5;" x="160.919424" xlink:href="#m4a89fb6d6d" y="287.470966"/>
     <use style="fill-opacity:0;stroke:#ff0000;stroke-linejoin:miter;stroke-width:1.5;" x="211.685047" xlink:href="#m4a89fb6d6d" y="282.3081"/>
     <use style="fill-opacity:0;stroke:#ff0000;stroke-linejoin:miter;stroke-width:1.5;" x="211.685047" xlink:href="#m4a89fb6d6d" y="281.734448"/>
     <use style="fill-opacity:0;stroke:#ff0000;stroke-linejoin:miter;stroke-width:1.5;" x="211.685047" xlink:href="#m4a89fb6d6d" y="281.734448"/>
     <use style="fill-opacity:0;stroke:#ff0000;stroke-linejoin:miter;stroke-width:1.5;" x="338.688" xlink:href="#m4a89fb6d6d" y="281.734448"/>
    </g>
   </g>
   <g id="line2d_52">
    <path style="fill:none;stroke:#ff0000;stroke-linecap:square;stroke-width:1.5;"/>
    <g/>
   </g>
   <g id="line2d_53">
    <path clip-path="url(#pdefd062621)" d="M 165.978297 287.470966 
" style="fill:none;stroke:#ff0000;stroke-linecap:square;stroke-width:1.5;"/>
    <defs>
     <path d="M -12 12 
L 12 -12 
M -12 -12 
L 12 12 
" id="m2b6f220a4e" style="stroke:#ff0000;"/>
    </defs>
    <g clip-path="url(#pdefd062621)">
     <use style="fill:#ff0000;stroke:#ff0000;" x="165.978297" xlink:href="#m2b6f220a4e" y="287.470966"/>
    </g>
   </g>
   <g id="line2d_54">
    <path d="M 338.688 281.734448 
L 369.60768 293.092752 
" style="fill:none;stroke:#ff0000;stroke-linecap:square;stroke-width:1.5;"/>
    <g>
     <use style="fill-opacity:0;stroke:#ff0000;stroke-linejoin:miter;stroke-width:1.5;" x="338.688" xlink:href="#m4a89fb6d6d" y="281.734448"/>
     <use style="fill-opacity:0;stroke:#ff0000;stroke-linejoin:miter;stroke-width:1.5;" x="369.60768" xlink:href="#m4a89fb6d6d" y="293.092752"/>
    </g>
   </g>
   <g id="line2d_55">
    <path d="M 338.688 247.315345 
L 369.60768 222.877782 
" style="fill:none;stroke:#6495ed;stroke-linecap:square;stroke-width:1.5;"/>
    <g>
     <use style="fill-opacity:0;stroke:#6495ed;stroke-linejoin:miter;stroke-width:1.5;" x="338.688" xlink:href="#m785a1b157f" y="247.315345"/>
     <use style="fill-opacity:0;stroke:#6495ed;stroke-linejoin:miter;stroke-width:1.5;" x="369.60768" xlink:href="#m785a1b157f" y="222.877782"/>
    </g>
   </g>
   <g id="line2d_56">
    <path d="M 338.688 247.315345 
L 369.60768 152.662812 
" style="fill:none;stroke:#000080;stroke-linecap:square;stroke-width:1.5;"/>
    <g>
     <use style="fill-opacity:0;stroke:#000080;stroke-width:1.5;" x="338.688" xlink:href="#me69fdc595e" y="247.315345"/>
     <use style="fill-opacity:0;stroke:#000080;stroke-width:1.5;" x="369.60768" xlink:href="#me69fdc595e" y="152.662812"/>
    </g>
   </g>
   <g id="line2d_57">
    <path d="M 338.688 149.794553 
L 369.60768 82.447842 
" style="fill:none;stroke:#ff7500;stroke-linecap:square;stroke-width:1.5;"/>
    <g>
     <use style="fill-opacity:0;stroke:#ff7500;stroke-linejoin:bevel;stroke-width:1.5;" x="338.688" xlink:href="#m7cbac1f166" y="149.794553"/>
     <use style="fill-opacity:0;stroke:#ff7500;stroke-linejoin:bevel;stroke-width:1.5;" x="369.60768" xlink:href="#m7cbac1f166" y="82.447842"/>
    </g>
   </g>
   <g id="line2d_58">
    <path d="M 338.688 12.118141 
L 369.60768 12.232871 
" style="fill:none;stroke:#ff00ff;stroke-linecap:square;stroke-width:1.5;"/>
    <g>
     <use style="fill-opacity:0;stroke:#ff00ff;stroke-linejoin:miter;stroke-width:1.5;" x="338.688" xlink:href="#mf90cca3bf0" y="12.118141"/>
     <use style="fill-opacity:0;stroke:#ff00ff;stroke-linejoin:miter;stroke-width:1.5;" x="369.60768" xlink:href="#mf90cca3bf0" y="12.232871"/>
    </g>
   </g>
   <g id="line2d_59">
    <path d="M 338.688 298.944 
L 338.688 6.381624 
" style="fill:none;stroke:#000000;stroke-linecap:square;stroke-width:1.5;"/>
   </g>
   <g id="patch_3">
    <path d="M 57.6 298.944 
L 57.6 3.456 
" style="fill:none;stroke:#000000;stroke-linecap:square;stroke-linejoin:miter;stroke-width:0.8;"/>
   </g>
   <g id="patch_4">
    <path d="M 338.688 298.944 
L 338.688 3.456 
" style="fill:none;stroke:#000000;stroke-linecap:square;stroke-linejoin:miter;stroke-width:0.8;"/>
   </g>
   <g id="patch_5">
    <path d="M 57.6 298.944 
L 338.688 298.944 
" style="fill:none;stroke:#000000;stroke-linecap:square;stroke-linejoin:miter;stroke-width:0.8;"/>
   </g>
   <g id="patch_6">
    <path d="M 57.6 3.456 
L 338.688 3.456 
" style="fill:none;stroke:#000000;stroke-linecap:square;stroke-linejoin:miter;stroke-width:0.8;"/>
   </g>
   <g id="text_13">
    <!-- f24 -->
    <g transform="translate(375.22944 297.78369)scale(0.17 -0.17)">
     <use xlink:href="#DejaVuSans-66"/>
     <use x="35.205078" xlink:href="#DejaVuSans-32"/>
     <use x="98.828125" xlink:href="#DejaVuSans-34"/>
    </g>
   </g>
   <g id="text_14">
    <!-- f23 -->
    <g transform="translate(375.22944 227.56872)scale(0.17 -0.17)">
     <defs>
      <path d="M 2597 2516 
Q 3050 2419 3304 2112 
Q 3559 1806 3559 1356 
Q 3559 666 3084 287 
Q 2609 -91 1734 -91 
Q 1441 -91 1130 -33 
Q 819 25 488 141 
L 488 750 
Q 750 597 1062 519 
Q 1375 441 1716 441 
Q 2309 441 2620 675 
Q 2931 909 2931 1356 
Q 2931 1769 2642 2001 
Q 2353 2234 1838 2234 
L 1294 2234 
L 1294 2753 
L 1863 2753 
Q 2328 2753 2575 2939 
Q 2822 3125 2822 3475 
Q 2822 3834 2567 4026 
Q 2313 4219 1838 4219 
Q 1578 4219 1281 4162 
Q 984 4106 628 3988 
L 628 4550 
Q 988 4650 1302 4700 
Q 1616 4750 1894 4750 
Q 2613 4750 3031 4423 
Q 3450 4097 3450 3541 
Q 3450 3153 3228 2886 
Q 3006 2619 2597 2516 
z
" id="DejaVuSans-33" transform="scale(0.015625)"/>
     </defs>
     <use xlink:href="#DejaVuSans-66"/>
     <use x="35.205078" xlink:href="#DejaVuSans-32"/>
     <use x="98.828125" xlink:href="#DejaVuSans-33"/>
    </g>
   </g>
   <g id="text_15">
    <!-- f20 -->
    <g transform="translate(375.22944 157.353749)scale(0.17 -0.17)">
     <use xlink:href="#DejaVuSans-66"/>
     <use x="35.205078" xlink:href="#DejaVuSans-32"/>
     <use x="98.828125" xlink:href="#DejaVuSans-30"/>
    </g>
   </g>
   <g id="text_16">
    <!-- f22 -->
    <g transform="translate(375.22944 87.138779)scale(0.17 -0.17)">
     <use xlink:href="#DejaVuSans-66"/>
     <use x="35.205078" xlink:href="#DejaVuSans-32"/>
     <use x="98.828125" xlink:href="#DejaVuSans-32"/>
    </g>
   </g>
   <g id="text_17">
    <!-- f21 -->
    <g transform="translate(375.22944 16.923809)scale(0.17 -0.17)">
     <use xlink:href="#DejaVuSans-66"/>
     <use x="35.205078" xlink:href="#DejaVuSans-32"/>
     <use x="98.828125" xlink:href="#DejaVuSans-31"/>
    </g>
   </g>
   <g id="text_18">
    <!-- bbob -->
    <g transform="translate(60.41088 14.161286)scale(0.102 -0.102)">
     <defs>
      <path d="M 3116 1747 
Q 3116 2381 2855 2742 
Q 2594 3103 2138 3103 
Q 1681 3103 1420 2742 
Q 1159 2381 1159 1747 
Q 1159 1113 1420 752 
Q 1681 391 2138 391 
Q 2594 391 2855 752 
Q 3116 1113 3116 1747 
z
M 1159 2969 
Q 1341 3281 1617 3432 
Q 1894 3584 2278 3584 
Q 2916 3584 3314 3078 
Q 3713 2572 3713 1747 
Q 3713 922 3314 415 
Q 2916 -91 2278 -91 
Q 1894 -91 1617 61 
Q 1341 213 1159 525 
L 1159 0 
L 581 0 
L 581 4863 
L 1159 4863 
L 1159 2969 
z
" id="DejaVuSans-62" transform="scale(0.015625)"/>
     </defs>
     <use xlink:href="#DejaVuSans-62"/>
     <use x="63.476562" xlink:href="#DejaVuSans-62"/>
     <use x="126.953125" xlink:href="#DejaVuSans-6f"/>
     <use x="188.134766" xlink:href="#DejaVuSans-62"/>
    </g>
    <!-- Weak structure functions, 10-D -->
    <g transform="translate(60.41088 25.583055)scale(0.102 -0.102)">
     <defs>
      <path d="M 213 4666 
L 850 4666 
L 1831 722 
L 2809 4666 
L 3519 4666 
L 4500 722 
L 5478 4666 
L 6119 4666 
L 4947 0 
L 4153 0 
L 3169 4050 
L 2175 0 
L 1381 0 
L 213 4666 
z
" id="DejaVuSans-57" transform="scale(0.015625)"/>
      <path d="M 581 4863 
L 1159 4863 
L 1159 1991 
L 2875 3500 
L 3609 3500 
L 1753 1863 
L 3688 0 
L 2938 0 
L 1159 1709 
L 1159 0 
L 581 0 
L 581 4863 
z
" id="DejaVuSans-6b" transform="scale(0.015625)"/>
      <path d="M 1259 4147 
L 1259 519 
L 2022 519 
Q 2988 519 3436 956 
Q 3884 1394 3884 2338 
Q 3884 3275 3436 3711 
Q 2988 4147 2022 4147 
L 1259 4147 
z
M 628 4666 
L 1925 4666 
Q 3281 4666 3915 4102 
Q 4550 3538 4550 2338 
Q 4550 1131 3912 565 
Q 3275 0 1925 0 
L 628 0 
L 628 4666 
z
" id="DejaVuSans-44" transform="scale(0.015625)"/>
     </defs>
     <use xlink:href="#DejaVuSans-57"/>
     <use x="93.001953" xlink:href="#DejaVuSans-65"/>
     <use x="154.525391" xlink:href="#DejaVuSans-61"/>
     <use x="215.804688" xlink:href="#DejaVuSans-6b"/>
     <use x="273.714844" xlink:href="#DejaVuSans-20"/>
     <use x="305.501953" xlink:href="#DejaVuSans-73"/>
     <use x="357.601562" xlink:href="#DejaVuSans-74"/>
     <use x="396.810547" xlink:href="#DejaVuSans-72"/>
     <use x="437.923828" xlink:href="#DejaVuSans-75"/>
     <use x="501.302734" xlink:href="#DejaVuSans-63"/>
     <use x="556.283203" xlink:href="#DejaVuSans-74"/>
     <use x="595.492188" xlink:href="#DejaVuSans-75"/>
     <use x="658.871094" xlink:href="#DejaVuSans-72"/>
     <use x="697.734375" xlink:href="#DejaVuSans-65"/>
     <use x="759.257812" xlink:href="#DejaVuSans-20"/>
     <use x="791.044922" xlink:href="#DejaVuSans-66"/>
     <use x="826.25" xlink:href="#DejaVuSans-75"/>
     <use x="889.628906" xlink:href="#DejaVuSans-6e"/>
     <use x="953.007812" xlink:href="#DejaVuSans-63"/>
     <use x="1007.988281" xlink:href="#DejaVuSans-74"/>
     <use x="1047.197266" xlink:href="#DejaVuSans-69"/>
     <use x="1074.980469" xlink:href="#DejaVuSans-6f"/>
     <use x="1136.162109" xlink:href="#DejaVuSans-6e"/>
     <use x="1199.541016" xlink:href="#DejaVuSans-73"/>
     <use x="1251.640625" xlink:href="#DejaVuSans-2c"/>
     <use x="1283.427734" xlink:href="#DejaVuSans-20"/>
     <use x="1315.214844" xlink:href="#DejaVuSans-31"/>
     <use x="1378.837891" xlink:href="#DejaVuSans-30"/>
     <use x="1442.460938" xlink:href="#DejaVuSans-2d"/>
     <use x="1478.544922" xlink:href="#DejaVuSans-44"/>
    </g>
    <!-- 51 targets: 100..1e-08 -->
    <g transform="translate(60.41088 37.004824)scale(0.102 -0.102)">
     <defs>
      <path d="M 691 4666 
L 3169 4666 
L 3169 4134 
L 1269 4134 
L 1269 2991 
Q 1406 3038 1543 3061 
Q 1681 3084 1819 3084 
Q 2600 3084 3056 2656 
Q 3513 2228 3513 1497 
Q 3513 744 3044 326 
Q 2575 -91 1722 -91 
Q 1428 -91 1123 -41 
Q 819 9 494 109 
L 494 744 
Q 775 591 1075 516 
Q 1375 441 1709 441 
Q 2250 441 2565 725 
Q 2881 1009 2881 1497 
Q 2881 1984 2565 2268 
Q 2250 2553 1709 2553 
Q 1456 2553 1204 2497 
Q 953 2441 691 2322 
L 691 4666 
z
" id="DejaVuSans-35" transform="scale(0.015625)"/>
      <path d="M 750 794 
L 1409 794 
L 1409 0 
L 750 0 
L 750 794 
z
M 750 3309 
L 1409 3309 
L 1409 2516 
L 750 2516 
L 750 3309 
z
" id="DejaVuSans-3a" transform="scale(0.015625)"/>
     </defs>
     <use xlink:href="#DejaVuSans-35"/>
     <use x="63.623047" xlink:href="#DejaVuSans-31"/>
     <use x="127.246094" xlink:href="#DejaVuSans-20"/>
     <use x="159.033203" xlink:href="#DejaVuSans-74"/>
     <use x="198.242188" xlink:href="#DejaVuSans-61"/>
     <use x="259.521484" xlink:href="#DejaVuSans-72"/>
     <use x="298.884766" xlink:href="#DejaVuSans-67"/>
     <use x="362.361328" xlink:href="#DejaVuSans-65"/>
     <use x="423.884766" xlink:href="#DejaVuSans-74"/>
     <use x="463.09375" xlink:href="#DejaVuSans-73"/>
     <use x="515.193359" xlink:href="#DejaVuSans-3a"/>
     <use x="548.884766" xlink:href="#DejaVuSans-20"/>
     <use x="580.671875" xlink:href="#DejaVuSans-31"/>
     <use x="644.294922" xlink:href="#DejaVuSans-30"/>
     <use x="707.917969" xlink:href="#DejaVuSans-30"/>
     <use x="771.541016" xlink:href="#DejaVuSans-2e"/>
     <use x="803.328125" xlink:href="#DejaVuSans-2e"/>
     <use x="835.115234" xlink:href="#DejaVuSans-31"/>
     <use x="898.738281" xlink:href="#DejaVuSans-65"/>
     <use x="960.261719" xlink:href="#DejaVuSans-2d"/>
     <use x="996.345703" xlink:href="#DejaVuSans-30"/>
     <use x="1059.96875" xlink:href="#DejaVuSans-38"/>
    </g>
    <!-- 15 instances -->
    <g transform="translate(60.41088 48.426593)scale(0.102 -0.102)">
     <use xlink:href="#DejaVuSans-31"/>
     <use x="63.623047" xlink:href="#DejaVuSans-35"/>
     <use x="127.246094" xlink:href="#DejaVuSans-20"/>
     <use x="159.033203" xlink:href="#DejaVuSans-69"/>
     <use x="186.816406" xlink:href="#DejaVuSans-6e"/>
     <use x="250.195312" xlink:href="#DejaVuSans-73"/>
     <use x="302.294922" xlink:href="#DejaVuSans-74"/>
     <use x="341.503906" xlink:href="#DejaVuSans-61"/>
     <use x="402.783203" xlink:href="#DejaVuSans-6e"/>
     <use x="466.162109" xlink:href="#DejaVuSans-63"/>
     <use x="521.142578" xlink:href="#DejaVuSans-65"/>
     <use x="582.666016" xlink:href="#DejaVuSans-73"/>
    </g>
   </g>
   <g id="text_19">
    <!-- v2.4 -->
    <g style="fill:#808080;" transform="translate(187.233062 293.909432)scale(0.1 -0.1)">
     <use xlink:href="#DejaVuSans-76"/>
     <use x="59.179688" xlink:href="#DejaVuSans-32"/>
     <use x="122.802734" xlink:href="#DejaVuSans-2e"/>
     <use x="154.589844" xlink:href="#DejaVuSans-34"/>
    </g>
   </g>
  </g>
 </g>
 <defs>
  <clipPath id="pdefd062621">
   <rect height="295.488" width="281.088" x="57.6" y="3.456"/>
  </clipPath>
 </defs>
</svg>
