<?xml version="1.0" encoding="utf-8" standalone="no"?>
<!DOCTYPE svg PUBLIC "-//W3C//DTD SVG 1.1//EN"
  "http://www.w3.org/Graphics/SVG/1.1/DTD/svg11.dtd">
<svg height="345.6pt" version="1.1" viewBox="0 0 460.8 345.6" width="460.8pt" xmlns="http://www.w3.org/2000/svg" xmlns:xlink="http://www.w3.org/1999/xlink">
 <metadata>
  <rdf:RDF xmlns:cc="http://creativecommons.org/ns#" xmlns:dc="http://purl.org/dc/elements/1.1/" xmlns:rdf="http://www.w3.org/1999/02/22-rdf-syntax-ns#">
   <cc:Work>
    <dc:type rdf:resource="http://purl.org/dc/dcmitype/StillImage"/>
    <dc:date>2021-04-26T19:00:21.027864</dc:date>
    <dc:format>image/svg+xml</dc:format>
    <dc:creator>
     <cc:Agent>
      <dc:title>Matplotlib v3.4.1, https://matplotlib.org/</dc:title>
     </cc:Agent>
    </dc:creator>
   </cc:Work>
  </rdf:RDF>
 </metadata>
 <defs>
  <style type="text/css">*{stroke-linecap:butt;stroke-linejoin:round;}</style>
 </defs>
 <g id="figure_1">
  <g id="patch_1">
   <path d="M 0 345.6 
L 460.8 345.6 
L 460.8 0 
L 0 0 
z
" style="fill:#ffffff;"/>
  </g>
  <g id="axes_1">
   <g id="patch_2">
    <path d="M 62.208 293.76 
L 460.8 293.76 
L 460.8 3.456 
L 62.208 3.456 
z
" style="fill:#ffffff;"/>
   </g>
   <g id="line2d_1">
    <path clip-path="url(#pf8482d08a9)" d="M 329.858494 293.76 
L 329.858494 288.969505 
L 333.885397 288.969505 
L 333.885397 284.17901 
L 335.411053 284.17901 
L 335.411053 279.388515 
L 335.411053 279.388515 
L 335.411053 274.59802 
L 336.15708 274.59802 
L 336.15708 269.807525 
L 336.403347 269.807525 
L 336.403347 265.01703 
L 336.648429 265.01703 
L 336.648429 260.226535 
L 337.856458 260.226535 
L 337.856458 255.43604 
L 338.567758 255.43604 
L 338.567758 250.645545 
L 338.802668 250.645545 
L 338.802668 245.85505 
L 338.802668 245.85505 
L 338.802668 241.064554 
L 339.036499 241.064554 
L 339.036499 236.274059 
L 339.036499 236.274059 
L 339.036499 231.483564 
L 339.73162 231.483564 
L 339.73162 226.693069 
L 339.73162 226.693069 
L 339.73162 221.902574 
L 341.317604 221.902574 
L 341.317604 217.112079 
L 341.761817 217.112079 
L 341.761817 212.321584 
L 341.98248 212.321584 
L 341.98248 207.531089 
L 342.20219 207.531089 
L 342.20219 202.740594 
L 342.420957 202.740594 
L 342.420957 197.950099 
L 343.071676 197.950099 
L 343.071676 193.159604 
L 343.071676 193.159604 
L 343.071676 188.369109 
L 343.286748 188.369109 
L 343.286748 183.578614 
L 347.010398 183.578614 
L 347.010398 178.788119 
L 348.967214 178.788119 
L 348.967214 173.997624 
L 349.349715 173.997624 
L 349.349715 169.207129 
L 372.642747 169.207129 
L 372.642747 164.416634 
L 376.84116 164.416634 
L 376.84116 159.626139 
L 381.377092 159.626139 
L 381.377092 154.835644 
L 391.421807 154.835644 
L 391.421807 150.045149 
L 391.421807 150.045149 
L 391.421807 150.045149 
L 460.8 150.045149 
" style="fill:none;stroke:#f5deb3;stroke-linecap:square;stroke-width:1.5;"/>
   </g>
   <g id="line2d_2"/>
   <g id="line2d_3">
    <path clip-path="url(#pf8482d08a9)" d="M 330.676658 293.76 
L 330.676658 288.969505 
L 339.236075 288.969505 
L 339.236075 284.17901 
L 343.388845 284.17901 
L 343.388845 279.388515 
L 350.025689 279.388515 
L 350.025689 274.59802 
L 350.825192 274.59802 
L 350.825192 269.807525 
L 351.237774 269.807525 
L 351.237774 265.01703 
L 351.272734 265.01703 
L 351.272734 260.226535 
L 351.412333 260.226535 
L 351.412333 255.43604 
L 352.566694 255.43604 
L 352.566694 250.645545 
L 353.394668 250.645545 
L 353.394668 245.85505 
L 353.628781 245.85505 
L 353.628781 241.064554 
L 354.052455 241.064554 
L 354.052455 236.274059 
L 354.316502 236.274059 
L 354.316502 231.483564 
L 354.3823 231.483564 
L 354.3823 226.693069 
L 354.423381 226.693069 
L 354.423381 221.902574 
L 354.464429 221.902574 
L 354.464429 217.112079 
L 354.59556 217.112079 
L 354.59556 212.321584 
L 356.821669 212.321584 
L 356.821669 207.531089 
L 357.606932 207.531089 
L 357.606932 202.740594 
L 358.357471 202.740594 
L 358.357471 197.950099 
L 358.992104 197.950099 
L 358.992104 193.159604 
L 360.260105 193.159604 
L 360.260105 188.369109 
L 360.835414 188.369109 
L 360.835414 183.578614 
L 370.069042 183.578614 
L 370.069042 178.788119 
L 371.014659 178.788119 
L 371.014659 173.997624 
L 371.586617 173.997624 
L 371.586617 169.207129 
L 372.47016 169.207129 
L 372.47016 164.416634 
L 372.556527 164.416634 
L 372.556527 159.626139 
L 372.591032 159.626139 
L 372.591032 154.835644 
L 374.337198 154.835644 
L 374.337198 150.045149 
L 374.509121 150.045149 
L 374.509121 145.254653 
L 375.82625 145.254653 
L 375.82625 140.464158 
L 376.618546 140.464158 
L 376.618546 135.673663 
L 376.761767 135.673663 
L 376.761767 130.883168 
L 377.711616 130.883168 
L 377.711616 126.092673 
L 378.408711 126.092673 
L 378.408711 121.302178 
L 379.969262 121.302178 
L 379.969262 116.511683 
L 383.033544 116.511683 
L 383.033544 111.721188 
L 385.510698 111.721188 
L 385.510698 106.930693 
L 394.567941 106.930693 
L 394.567941 102.140198 
L 398.206499 102.140198 
L 398.206499 97.349703 
L 398.45276 97.349703 
L 398.45276 92.559208 
L 399.828436 92.559208 
L 399.828436 87.768713 
L 400.237672 87.768713 
L 400.237672 82.978218 
L 400.842124 82.978218 
L 400.842124 78.187723 
L 400.842124 78.187723 
L 400.842124 78.187723 
L 460.8 78.187723 
" style="fill:none;stroke:#f5deb3;stroke-linecap:square;stroke-width:1.5;"/>
   </g>
   <g id="line2d_4">
    <path clip-path="url(#pf8482d08a9)" d="M 395.657823 293.76 
L 395.657823 288.969505 
L 401.651146 288.969505 
L 401.651146 284.17901 
L 405.266445 284.17901 
L 405.266445 279.388515 
L 405.898154 279.388515 
L 405.898154 274.59802 
L 410.061157 274.59802 
L 410.061157 269.807525 
L 410.085946 269.807525 
L 410.085946 265.01703 
L 412.216122 265.01703 
L 412.216122 260.226535 
L 413.132124 260.226535 
L 413.132124 255.43604 
L 413.15287 255.43604 
L 413.15287 250.645545 
L 413.702142 250.645545 
L 413.702142 245.85505 
L 414.420354 245.85505 
L 414.420354 241.064554 
L 414.918646 241.064554 
L 414.918646 236.274059 
L 416.409254 236.274059 
L 416.409254 231.483564 
L 416.936719 231.483564 
L 416.936719 226.693069 
L 417.167275 226.693069 
L 417.167275 221.902574 
L 420.07551 221.902574 
L 420.07551 217.112079 
L 421.723353 217.112079 
L 421.723353 212.321584 
L 422.417587 212.321584 
L 422.417587 207.531089 
L 422.875921 207.531089 
L 422.875921 202.740594 
L 426.803479 202.740594 
L 426.803479 197.950099 
L 437.569491 197.950099 
L 437.569491 193.159604 
L 441.262672 193.159604 
L 441.262672 188.369109 
L 445.759853 188.369109 
L 445.759853 183.578614 
L 448.762859 183.578614 
L 448.762859 178.788119 
L 450.597933 178.788119 
L 450.597933 173.997624 
L 454.551216 173.997624 
L 454.551216 169.207129 
L 458.692655 169.207129 
L 458.692655 164.416634 
L 461.8 164.416634 
" style="fill:none;stroke:#f5deb3;stroke-linecap:square;stroke-width:1.5;"/>
   </g>
   <g id="line2d_5"/>
   <g id="line2d_6"/>
   <g id="line2d_7">
    <path clip-path="url(#pf8482d08a9)" d="M 376.127489 293.76 
L 376.127489 288.969505 
L 376.692859 288.969505 
L 376.692859 284.17901 
L 379.066026 284.17901 
L 379.066026 279.388515 
L 379.794883 279.388515 
L 379.794883 274.59802 
L 380.202494 274.59802 
L 380.202494 269.807525 
L 380.552809 269.807525 
L 380.552809 265.01703 
L 381.444781 265.01703 
L 381.444781 260.226535 
L 381.873001 260.226535 
L 381.873001 255.43604 
L 382.250113 255.43604 
L 382.250113 250.645545 
L 383.57857 250.645545 
L 383.57857 245.85505 
L 383.652652 245.85505 
L 383.652652 241.064554 
L 384.751147 241.064554 
L 384.751147 236.274059 
L 386.57462 236.274059 
L 386.57462 231.483564 
L 386.77519 231.483564 
L 386.77519 226.693069 
L 389.163924 226.693069 
L 389.163924 221.902574 
L 415.501321 221.902574 
L 415.501321 217.112079 
L 417.91182 217.112079 
L 417.91182 212.321584 
L 418.564104 212.321584 
L 418.564104 207.531089 
L 419.860049 207.531089 
L 419.860049 202.740594 
L 420.012101 202.740594 
L 420.012101 197.950099 
L 420.839253 197.950099 
L 420.839253 193.159604 
L 421.101662 193.159604 
L 421.101662 188.369109 
L 423.238792 188.369109 
L 423.238792 183.578614 
L 423.727763 183.578614 
L 423.727763 178.788119 
L 424.889902 178.788119 
L 424.889902 173.997624 
L 424.998918 173.997624 
L 424.998918 169.207129 
L 425.126151 169.207129 
L 425.126151 164.416634 
L 425.197836 164.416634 
L 425.197836 159.626139 
L 427.119804 159.626139 
L 427.119804 154.835644 
L 428.090046 154.835644 
L 428.090046 150.045149 
L 428.392739 150.045149 
L 428.392739 145.254653 
L 429.973059 145.254653 
L 429.973059 140.464158 
L 430.188772 140.464158 
L 430.188772 135.673663 
L 430.863458 135.673663 
L 430.863458 130.883168 
L 431.03713 130.883168 
L 431.03713 126.092673 
L 431.619616 126.092673 
L 431.619616 121.302178 
L 432.405593 121.302178 
L 432.405593 116.511683 
L 433.477972 116.511683 
L 433.477972 111.721188 
L 433.743442 111.721188 
L 433.743442 106.930693 
L 435.068974 106.930693 
L 435.068974 102.140198 
L 435.512177 102.140198 
L 435.512177 97.349703 
L 435.840406 97.349703 
L 435.840406 92.559208 
L 436.621595 92.559208 
L 436.621595 87.768713 
L 461.8 87.768713 
" style="fill:none;stroke:#f5deb3;stroke-linecap:square;stroke-width:1.5;"/>
   </g>
   <g id="line2d_8">
    <path clip-path="url(#pf8482d08a9)" style="fill:none;stroke:#f5deb3;stroke-linecap:square;stroke-width:1.5;"/>
   </g>
   <g id="line2d_9">
    <path clip-path="url(#pf8482d08a9)" d="M 374.862233 293.76 
L 374.862233 288.969505 
L 377.856985 288.969505 
L 377.856985 284.17901 
L 378.038115 284.17901 
L 378.038115 279.388515 
L 380.429733 279.388515 
L 380.429733 274.59802 
L 380.78339 274.59802 
L 380.78339 269.807525 
L 380.886079 269.807525 
L 380.886079 265.01703 
L 381.246294 265.01703 
L 381.246294 260.226535 
L 381.75788 260.226535 
L 381.75788 255.43604 
L 382.671643 255.43604 
L 382.671643 250.645545 
L 382.859964 250.645545 
L 382.859964 245.85505 
L 383.295139 245.85505 
L 383.295139 241.064554 
L 385.372218 241.064554 
L 385.372218 236.274059 
L 385.888482 236.274059 
L 385.888482 231.483564 
L 387.173978 231.483564 
L 387.173978 226.693069 
L 390.057095 226.693069 
L 390.057095 221.902574 
L 391.230782 221.902574 
L 391.230782 217.112079 
L 410.872873 217.112079 
L 410.872873 212.321584 
L 411.159473 212.321584 
L 411.159473 207.531089 
L 411.839739 207.531089 
L 411.839739 202.740594 
L 411.845059 202.740594 
L 411.845059 197.950099 
L 412.629053 197.950099 
L 412.629053 193.159604 
L 412.746794 193.159604 
L 412.746794 188.369109 
L 414.141404 188.369109 
L 414.141404 183.578614 
L 414.649973 183.578614 
L 414.649973 178.788119 
L 414.75309 178.788119 
L 414.75309 173.997624 
L 414.853491 173.997624 
L 414.853491 169.207129 
L 414.911133 169.207129 
L 414.911133 164.416634 
L 415.101137 164.416634 
L 415.101137 159.626139 
L 415.424511 159.626139 
L 415.424511 154.835644 
L 416.13857 154.835644 
L 416.13857 150.045149 
L 416.29969 150.045149 
L 416.29969 145.254653 
L 417.035313 145.254653 
L 417.035313 140.464158 
L 417.63478 140.464158 
L 417.63478 135.673663 
L 418.243699 135.673663 
L 418.243699 130.883168 
L 418.285911 130.883168 
L 418.285911 126.092673 
L 418.799032 126.092673 
L 418.799032 121.302178 
L 419.488226 121.302178 
L 419.488226 116.511683 
L 420.990636 116.511683 
L 420.990636 111.721188 
L 421.66635 111.721188 
L 421.66635 106.930693 
L 422.890914 106.930693 
L 422.890914 102.140198 
L 423.588535 102.140198 
L 423.588535 97.349703 
L 426.038198 97.349703 
L 426.038198 92.559208 
L 427.064589 92.559208 
L 427.064589 87.768713 
L 427.11192 87.768713 
L 427.11192 82.978218 
L 435.997936 82.978218 
L 435.997936 78.187723 
L 438.567803 78.187723 
L 438.567803 73.397228 
L 440.377091 73.397228 
L 440.377091 68.606733 
L 440.672488 68.606733 
L 440.672488 63.816238 
L 441.059208 63.816238 
L 441.059208 59.025743 
L 441.361119 59.025743 
L 441.361119 54.235248 
L 443.268176 54.235248 
L 443.268176 49.444752 
L 444.030398 49.444752 
L 444.030398 44.654257 
L 445.422481 44.654257 
L 445.422481 39.863762 
L 446.494029 39.863762 
L 446.494029 35.073267 
L 448.134001 35.073267 
L 448.134001 30.282772 
L 449.621547 30.282772 
L 449.621547 25.492277 
L 449.960003 25.492277 
L 449.960003 20.701782 
L 450.933689 20.701782 
L 450.933689 15.911287 
L 451.076733 15.911287 
L 451.076733 11.120792 
L 460.070396 11.120792 
L 460.070396 6.330297 
L 460.070396 6.330297 
L 460.070396 6.330297 
L 460.8 6.330297 
" style="fill:none;stroke:#f5deb3;stroke-linecap:square;stroke-width:1.5;"/>
   </g>
   <g id="line2d_10">
    <path clip-path="url(#pf8482d08a9)" style="fill:none;stroke:#f5deb3;stroke-linecap:square;stroke-width:1.5;"/>
   </g>
   <g id="line2d_11">
    <path clip-path="url(#pf8482d08a9)" d="M 388.788841 293.76 
L 388.788841 288.969505 
L 392.851427 288.969505 
L 392.851427 284.17901 
L 398.597878 284.17901 
L 398.597878 279.388515 
L 407.196864 279.388515 
L 407.196864 274.59802 
L 408.434846 274.59802 
L 408.434846 269.807525 
L 409.079258 269.807525 
L 409.079258 265.01703 
L 413.426957 265.01703 
L 413.426957 260.226535 
L 413.493961 260.226535 
L 413.493961 255.43604 
L 414.212554 255.43604 
L 414.212554 250.645545 
L 428.390817 250.645545 
L 428.390817 245.85505 
L 429.112326 245.85505 
L 429.112326 241.064554 
L 432.8848 241.064554 
L 432.8848 236.274059 
L 435.213774 236.274059 
L 435.213774 231.483564 
L 452.584832 231.483564 
L 452.584832 226.693069 
L 461.8 226.693069 
" style="fill:none;stroke:#f5deb3;stroke-linecap:square;stroke-width:1.5;"/>
   </g>
   <g id="line2d_12">
    <path clip-path="url(#pf8482d08a9)" d="M 333.811594 293.76 
L 333.811594 288.969505 
L 340.124615 288.969505 
L 340.124615 284.17901 
L 340.352469 284.17901 
L 340.352469 279.388515 
L 342.358548 279.388515 
L 342.358548 274.59802 
L 342.793814 274.59802 
L 342.793814 269.807525 
L 343.653344 269.807525 
L 343.653344 265.01703 
L 344.288604 265.01703 
L 344.288604 260.226535 
L 344.288604 260.226535 
L 344.288604 255.43604 
L 344.707752 255.43604 
L 344.707752 250.645545 
L 344.707752 250.645545 
L 344.707752 245.85505 
L 344.91604 245.85505 
L 344.91604 241.064554 
L 345.123479 241.064554 
L 345.123479 236.274059 
L 345.330077 236.274059 
L 345.330077 231.483564 
L 345.53584 231.483564 
L 345.53584 226.693069 
L 345.53584 226.693069 
L 345.53584 221.902574 
L 346.14819 221.902574 
L 346.14819 217.112079 
L 346.14819 217.112079 
L 346.14819 212.321584 
L 346.14819 212.321584 
L 346.14819 207.531089 
L 346.753265 207.531089 
L 346.753265 202.740594 
L 346.753265 202.740594 
L 346.753265 197.950099 
L 346.753265 197.950099 
L 346.753265 193.159604 
L 347.351236 193.159604 
L 347.351236 188.369109 
L 347.54901 188.369109 
L 347.54901 183.578614 
L 350.983597 183.578614 
L 350.983597 178.788119 
L 356.89996 178.788119 
L 356.89996 173.997624 
L 378.633866 173.997624 
L 378.633866 169.207129 
L 382.254869 169.207129 
L 382.254869 164.416634 
L 382.751765 164.416634 
L 382.751765 159.626139 
L 383.341711 159.626139 
L 383.341711 154.835644 
L 395.923961 154.835644 
L 395.923961 150.045149 
L 395.923961 150.045149 
L 395.923961 150.045149 
L 460.8 150.045149 
" style="fill:none;stroke:#f5deb3;stroke-linecap:square;stroke-width:1.5;"/>
   </g>
   <g id="line2d_13"/>
   <g id="line2d_14"/>
   <g id="line2d_15"/>
   <g id="line2d_16">
    <path clip-path="url(#pf8482d08a9)" style="fill:none;stroke:#f5deb3;stroke-linecap:square;stroke-width:1.5;"/>
   </g>
   <g id="line2d_17">
    <path clip-path="url(#pf8482d08a9)" style="fill:none;stroke:#f5deb3;stroke-linecap:square;stroke-width:1.5;"/>
   </g>
   <g id="line2d_18">
    <path clip-path="url(#pf8482d08a9)" d="M 302.64108 293.76 
L 302.64108 288.969505 
L 314.206514 288.969505 
L 314.206514 284.17901 
L 314.405096 284.17901 
L 314.405096 279.388515 
L 315.174026 279.388515 
L 315.174026 274.59802 
L 315.457202 274.59802 
L 315.457202 269.807525 
L 318.853635 269.807525 
L 318.853635 265.01703 
L 318.96908 265.01703 
L 318.96908 260.226535 
L 319.084265 260.226535 
L 319.084265 255.43604 
L 319.149968 255.43604 
L 319.149968 250.645545 
L 319.688807 250.645545 
L 319.688807 245.85505 
L 320.093257 245.85505 
L 320.093257 241.064554 
L 320.254142 241.064554 
L 320.254142 236.274059 
L 320.302308 236.274059 
L 320.302308 231.483564 
L 320.54246 231.483564 
L 320.54246 226.693069 
L 320.940215 226.693069 
L 320.940215 221.902574 
L 321.130039 221.902574 
L 321.130039 217.112079 
L 322.531612 217.112079 
L 322.531612 212.321584 
L 322.959906 212.321584 
L 322.959906 207.531089 
L 322.990361 207.531089 
L 322.990361 202.740594 
L 323.066419 202.740594 
L 323.066419 197.950099 
L 324.164127 197.950099 
L 324.164127 193.159604 
L 326.943152 193.159604 
L 326.943152 188.369109 
L 327.294098 188.369109 
L 327.294098 183.578614 
L 333.589542 183.578614 
L 333.589542 178.788119 
L 351.551551 178.788119 
L 351.551551 173.997624 
L 357.227475 173.997624 
L 357.227475 169.207129 
L 359.425733 169.207129 
L 359.425733 164.416634 
L 360.690379 164.416634 
L 360.690379 159.626139 
L 362.795831 159.626139 
L 362.795831 154.835644 
L 363.260562 154.835644 
L 363.260562 150.045149 
L 364.157143 150.045149 
L 364.157143 145.254653 
L 364.697012 145.254653 
L 364.697012 140.464158 
L 365.943624 140.464158 
L 365.943624 135.673663 
L 368.217509 135.673663 
L 368.217509 130.883168 
L 373.829145 130.883168 
L 373.829145 126.092673 
L 376.116761 126.092673 
L 376.116761 121.302178 
L 379.504591 121.302178 
L 379.504591 116.511683 
L 380.063676 116.511683 
L 380.063676 111.721188 
L 384.291748 111.721188 
L 384.291748 106.930693 
L 384.710378 106.930693 
L 384.710378 102.140198 
L 386.979309 102.140198 
L 386.979309 97.349703 
L 395.080688 97.349703 
L 395.080688 92.559208 
L 409.86518 92.559208 
L 409.86518 87.768713 
L 412.41643 87.768713 
L 412.41643 82.978218 
L 421.150436 82.978218 
L 421.150436 78.187723 
L 421.150436 78.187723 
L 421.150436 78.187723 
L 460.8 78.187723 
" style="fill:none;stroke:#f5deb3;stroke-linecap:square;stroke-width:1.5;"/>
   </g>
   <g id="line2d_19"/>
   <g id="line2d_20">
    <path clip-path="url(#pf8482d08a9)" d="M 405.850299 293.76 
L 405.850299 288.969505 
L 410.843039 288.969505 
L 410.843039 284.17901 
L 416.285064 284.17901 
L 416.285064 279.388515 
L 421.532363 279.388515 
L 421.532363 274.59802 
L 424.017651 274.59802 
L 424.017651 269.807525 
L 425.917262 269.807525 
L 425.917262 265.01703 
L 428.338887 265.01703 
L 428.338887 260.226535 
L 429.420326 260.226535 
L 429.420326 255.43604 
L 431.137407 255.43604 
L 431.137407 250.645545 
L 431.610594 250.645545 
L 431.610594 245.85505 
L 431.887745 245.85505 
L 431.887745 241.064554 
L 435.923377 241.064554 
L 435.923377 236.274059 
L 435.991313 236.274059 
L 435.991313 231.483564 
L 438.017017 231.483564 
L 438.017017 226.693069 
L 438.72341 226.693069 
L 438.72341 221.902574 
L 440.003506 221.902574 
L 440.003506 217.112079 
L 442.545358 217.112079 
L 442.545358 212.321584 
L 442.729928 212.321584 
L 442.729928 207.531089 
L 445.510467 207.531089 
L 445.510467 202.740594 
L 449.350937 202.740594 
L 449.350937 197.950099 
L 456.181167 197.950099 
L 456.181167 193.159604 
L 459.187569 193.159604 
L 459.187569 188.369109 
L 461.8 188.369109 
" style="fill:none;stroke:#f5deb3;stroke-linecap:square;stroke-width:1.5;"/>
   </g>
   <g id="line2d_21"/>
   <g id="line2d_22">
    <path clip-path="url(#pf8482d08a9)" d="M 411.519485 293.76 
L 411.519485 288.969505 
L 411.826435 288.969505 
L 411.826435 284.17901 
L 413.496537 284.17901 
L 413.496537 279.388515 
L 414.627309 279.388515 
L 414.627309 274.59802 
L 415.126085 274.59802 
L 415.126085 269.807525 
L 415.235711 269.807525 
L 415.235711 265.01703 
L 415.802486 265.01703 
L 415.802486 260.226535 
L 416.294816 260.226535 
L 416.294816 255.43604 
L 416.994456 255.43604 
L 416.994456 250.645545 
L 417.501644 250.645545 
L 417.501644 245.85505 
L 418.622356 245.85505 
L 418.622356 241.064554 
L 419.764501 241.064554 
L 419.764501 236.274059 
L 419.885044 236.274059 
L 419.885044 231.483564 
L 421.457528 231.483564 
L 421.457528 226.693069 
L 421.830608 226.693069 
L 421.830608 221.902574 
L 422.547113 221.902574 
L 422.547113 217.112079 
L 422.583752 217.112079 
L 422.583752 212.321584 
L 422.903762 212.321584 
L 422.903762 207.531089 
L 423.954772 207.531089 
L 423.954772 202.740594 
L 425.046155 202.740594 
L 425.046155 197.950099 
L 425.546624 197.950099 
L 425.546624 193.159604 
L 426.086492 193.159604 
L 426.086492 188.369109 
L 426.952001 188.369109 
L 426.952001 183.578614 
L 429.006078 183.578614 
L 429.006078 178.788119 
L 430.427592 178.788119 
L 430.427592 173.997624 
L 431.592545 173.997624 
L 431.592545 169.207129 
L 431.597961 169.207129 
L 431.597961 164.416634 
L 435.612369 164.416634 
L 435.612369 159.626139 
L 436.854937 159.626139 
L 436.854937 154.835644 
L 438.376969 154.835644 
L 438.376969 150.045149 
L 456.928713 150.045149 
L 456.928713 145.254653 
L 460.683882 145.254653 
L 460.683882 140.464158 
L 461.781451 140.464158 
L 461.781451 135.673663 
L 461.8 135.673663 
" style="fill:none;stroke:#f5deb3;stroke-linecap:square;stroke-width:1.5;"/>
   </g>
   <g id="line2d_23">
    <path clip-path="url(#pf8482d08a9)" style="fill:none;stroke:#f5deb3;stroke-linecap:square;stroke-width:1.5;"/>
   </g>
   <g id="line2d_24">
    <path clip-path="url(#pf8482d08a9)" d="M 388.161732 293.76 
L 388.161732 288.969505 
L 399.558289 288.969505 
L 399.558289 284.17901 
L 401.566588 284.17901 
L 401.566588 279.388515 
L 403.985235 279.388515 
L 403.985235 274.59802 
L 404.031773 274.59802 
L 404.031773 269.807525 
L 404.990253 269.807525 
L 404.990253 265.01703 
L 405.954924 265.01703 
L 405.954924 260.226535 
L 410.412575 260.226535 
L 410.412575 255.43604 
L 411.500741 255.43604 
L 411.500741 250.645545 
L 411.887603 250.645545 
L 411.887603 245.85505 
L 413.207287 245.85505 
L 413.207287 241.064554 
L 413.761101 241.064554 
L 413.761101 236.274059 
L 413.781592 236.274059 
L 413.781592 231.483564 
L 416.13857 231.483564 
L 416.13857 226.693069 
L 416.355719 226.693069 
L 416.355719 221.902574 
L 461.8 221.902574 
" style="fill:none;stroke:#f5deb3;stroke-linecap:square;stroke-width:1.5;"/>
   </g>
   <g id="line2d_25">
    <path clip-path="url(#pf8482d08a9)" style="fill:none;stroke:#f5deb3;stroke-linecap:square;stroke-width:1.5;"/>
   </g>
   <g id="line2d_26">
    <path clip-path="url(#pf8482d08a9)" d="M 430.556718 293.76 
L 430.556718 288.969505 
L 435.555618 288.969505 
L 435.555618 284.17901 
L 437.257097 284.17901 
L 437.257097 279.388515 
L 438.649595 279.388515 
L 438.649595 274.59802 
L 439.153175 274.59802 
L 439.153175 269.807525 
L 440.272154 269.807525 
L 440.272154 265.01703 
L 440.525761 265.01703 
L 440.525761 260.226535 
L 442.178599 260.226535 
L 442.178599 255.43604 
L 444.563545 255.43604 
L 444.563545 250.645545 
L 445.031581 250.645545 
L 445.031581 245.85505 
L 447.201831 245.85505 
L 447.201831 241.064554 
L 448.801503 241.064554 
L 448.801503 236.274059 
L 450.965785 236.274059 
L 450.965785 231.483564 
L 451.234111 231.483564 
L 451.234111 226.693069 
L 453.423106 226.693069 
L 453.423106 221.902574 
L 453.444269 221.902574 
L 453.444269 217.112079 
L 454.849397 217.112079 
L 454.849397 212.321584 
L 455.826802 212.321584 
L 455.826802 207.531089 
L 457.047134 207.531089 
L 457.047134 202.740594 
L 461.362568 202.740594 
L 461.362568 197.950099 
L 461.8 197.950099 
" style="fill:none;stroke:#f5deb3;stroke-linecap:square;stroke-width:1.5;"/>
   </g>
   <g id="line2d_27">
    <path clip-path="url(#pf8482d08a9)" d="M 380.988561 293.76 
L 380.988561 288.969505 
L 383.888073 288.969505 
L 383.888073 284.17901 
L 386.766486 284.17901 
L 386.766486 279.388515 
L 386.99231 279.388515 
L 386.99231 274.59802 
L 389.089128 274.59802 
L 389.089128 269.807525 
L 389.643327 269.807525 
L 389.643327 265.01703 
L 391.900196 265.01703 
L 391.900196 260.226535 
L 392.452047 260.226535 
L 392.452047 255.43604 
L 392.533729 255.43604 
L 392.533729 250.645545 
L 392.595874 250.645545 
L 392.595874 245.85505 
L 393.374011 245.85505 
L 393.374011 241.064554 
L 395.478399 241.064554 
L 395.478399 236.274059 
L 395.854826 236.274059 
L 395.854826 231.483564 
L 396.506053 231.483564 
L 396.506053 226.693069 
L 396.513243 226.693069 
L 396.513243 221.902574 
L 396.860711 221.902574 
L 396.860711 217.112079 
L 396.999749 217.112079 
L 396.999749 212.321584 
L 397.552139 212.321584 
L 397.552139 207.531089 
L 397.710375 207.531089 
L 397.710375 202.740594 
L 398.00444 202.740594 
L 398.00444 197.950099 
L 398.053286 197.950099 
L 398.053286 193.159604 
L 398.154319 193.159604 
L 398.154319 188.369109 
L 398.677172 188.369109 
L 398.677172 183.578614 
L 398.821652 183.578614 
L 398.821652 178.788119 
L 399.371728 178.788119 
L 399.371728 173.997624 
L 400.970722 173.997624 
L 400.970722 169.207129 
L 401.514483 169.207129 
L 401.514483 164.416634 
L 401.641396 164.416634 
L 401.641396 159.626139 
L 401.903979 159.626139 
L 401.903979 154.835644 
L 402.441119 154.835644 
L 402.441119 150.045149 
L 404.504051 150.045149 
L 404.504051 145.254653 
L 405.544159 145.254653 
L 405.544159 140.464158 
L 405.70046 140.464158 
L 405.70046 135.673663 
L 406.710778 135.673663 
L 406.710778 130.883168 
L 407.048017 130.883168 
L 407.048017 126.092673 
L 410.826759 126.092673 
L 410.826759 121.302178 
L 410.916237 121.302178 
L 410.916237 116.511683 
L 411.564977 116.511683 
L 411.564977 111.721188 
L 437.461818 111.721188 
L 437.461818 106.930693 
L 438.668452 106.930693 
L 438.668452 102.140198 
L 452.53699 102.140198 
L 452.53699 97.349703 
L 453.637856 97.349703 
L 453.637856 92.559208 
L 459.601738 92.559208 
L 459.601738 87.768713 
L 461.8 87.768713 
" style="fill:none;stroke:#f5deb3;stroke-linecap:square;stroke-width:1.5;"/>
   </g>
   <g id="line2d_28">
    <path clip-path="url(#pf8482d08a9)" d="M 358.052463 293.76 
L 358.052463 288.969505 
L 360.755696 288.969505 
L 360.755696 284.17901 
L 362.009374 284.17901 
L 362.009374 279.388515 
L 362.649292 279.388515 
L 362.649292 274.59802 
L 365.383772 274.59802 
L 365.383772 269.807525 
L 365.647999 269.807525 
L 365.647999 265.01703 
L 366.139759 265.01703 
L 366.139759 260.226535 
L 366.607424 260.226535 
L 366.607424 255.43604 
L 432.029336 255.43604 
L 432.029336 250.645545 
L 432.10624 250.645545 
L 432.10624 245.85505 
L 432.348708 245.85505 
L 432.348708 241.064554 
L 432.504987 241.064554 
L 432.504987 236.274059 
L 432.99029 236.274059 
L 432.99029 231.483564 
L 446.410425 231.483564 
L 446.410425 226.693069 
L 448.576955 226.693069 
L 448.576955 221.902574 
L 448.935245 221.902574 
L 448.935245 217.112079 
L 449.043011 217.112079 
L 449.043011 212.321584 
L 449.205511 212.321584 
L 449.205511 207.531089 
L 449.754419 207.531089 
L 449.754419 202.740594 
L 450.54321 202.740594 
L 450.54321 197.950099 
L 451.19604 197.950099 
L 451.19604 193.159604 
L 451.474156 193.159604 
L 451.474156 188.369109 
L 452.186375 188.369109 
L 452.186375 183.578614 
L 452.769796 183.578614 
L 452.769796 178.788119 
L 452.875699 178.788119 
L 452.875699 173.997624 
L 452.920849 173.997624 
L 452.920849 169.207129 
L 453.694034 169.207129 
L 453.694034 164.416634 
L 454.068142 164.416634 
L 454.068142 159.626139 
L 454.119208 159.626139 
L 454.119208 154.835644 
L 454.33798 154.835644 
L 454.33798 150.045149 
L 455.346673 150.045149 
L 455.346673 145.254653 
L 455.712253 145.254653 
L 455.712253 140.464158 
L 455.863807 140.464158 
L 455.863807 135.673663 
L 455.951166 135.673663 
L 455.951166 130.883168 
L 455.985845 130.883168 
L 455.985845 126.092673 
L 457.044943 126.092673 
L 457.044943 121.302178 
L 457.510485 121.302178 
L 457.510485 116.511683 
L 457.585316 116.511683 
L 457.585316 111.721188 
L 457.663282 111.721188 
L 457.663282 106.930693 
L 457.789724 106.930693 
L 457.789724 102.140198 
L 457.929849 102.140198 
L 457.929849 97.349703 
L 458.50994 97.349703 
L 458.50994 92.559208 
L 460.520461 92.559208 
L 460.520461 87.768713 
L 461.8 87.768713 
" style="fill:none;stroke:#f5deb3;stroke-linecap:square;stroke-width:1.5;"/>
   </g>
   <g id="line2d_29">
    <path clip-path="url(#pf8482d08a9)" d="M 310.764584 293.76 
L 310.764584 288.969505 
L 310.764584 288.969505 
L 310.764584 284.17901 
L 310.764584 284.17901 
L 310.764584 279.388515 
L 325.500186 279.388515 
L 325.500186 274.59802 
L 325.500186 274.59802 
L 325.500186 269.807525 
L 325.500186 269.807525 
L 325.500186 265.01703 
L 349.404124 265.01703 
L 349.404124 260.226535 
L 349.404124 260.226535 
L 349.404124 255.43604 
L 349.404124 255.43604 
L 349.404124 250.645545 
L 350.26686 250.645545 
L 350.26686 245.85505 
L 350.26686 245.85505 
L 350.26686 241.064554 
L 350.26686 241.064554 
L 350.26686 236.274059 
L 365.70068 236.274059 
L 365.70068 231.483564 
L 365.70068 231.483564 
L 365.70068 226.693069 
L 365.70068 226.693069 
L 365.70068 221.902574 
L 367.720198 221.902574 
L 367.720198 217.112079 
L 367.720198 217.112079 
L 367.720198 212.321584 
L 367.720198 212.321584 
L 367.720198 207.531089 
L 368.148553 207.531089 
L 368.148553 202.740594 
L 368.148553 202.740594 
L 368.148553 197.950099 
L 368.148553 197.950099 
L 368.148553 193.159604 
L 369.57737 193.159604 
L 369.57737 188.369109 
L 369.57737 188.369109 
L 369.57737 183.578614 
L 369.57737 183.578614 
L 369.57737 178.788119 
L 369.650511 178.788119 
L 369.650511 173.997624 
L 369.650511 173.997624 
L 369.650511 169.207129 
L 369.650511 169.207129 
L 369.650511 164.416634 
L 395.949408 164.416634 
L 395.949408 159.626139 
L 395.949408 159.626139 
L 395.949408 154.835644 
L 395.949408 154.835644 
L 395.949408 150.045149 
L 395.949408 150.045149 
L 395.949408 150.045149 
L 460.8 150.045149 
" style="fill:none;stroke:#f5deb3;stroke-linecap:square;stroke-width:1.5;"/>
   </g>
   <g id="line2d_30"/>
   <g id="matplotlib.axis_1">
    <g id="xtick_1">
     <g id="line2d_31">
      <path clip-path="url(#pf8482d08a9)" d="M 179.492838 293.76 
L 179.492838 3.456 
" style="fill:none;stroke:#b0b0b0;stroke-linecap:square;stroke-width:0.8;"/>
     </g>
     <g id="line2d_32">
      <defs>
       <path d="M 0 0 
L 0 3.5 
" id="m97662953c8" style="stroke:#000000;stroke-width:0.8;"/>
      </defs>
      <g>
       <use style="stroke:#000000;stroke-width:0.8;" x="179.492838" xlink:href="#m97662953c8" y="293.76"/>
      </g>
     </g>
     <g id="text_1">
      <!-- 1 -->
      <g transform="translate(173.130338 315.956875)scale(0.2 -0.2)">
       <defs>
        <path d="M 794 531 
L 1825 531 
L 1825 4091 
L 703 3866 
L 703 4441 
L 1819 4666 
L 2450 4666 
L 2450 531 
L 3481 531 
L 3481 0 
L 794 0 
L 794 531 
z
" id="DejaVuSans-31" transform="scale(0.015625)"/>
       </defs>
       <use xlink:href="#DejaVuSans-31"/>
      </g>
     </g>
    </g>
    <g id="xtick_2">
     <g id="line2d_33">
      <path clip-path="url(#pf8482d08a9)" d="M 414.062514 293.76 
L 414.062514 3.456 
" style="fill:none;stroke:#b0b0b0;stroke-linecap:square;stroke-width:0.8;"/>
     </g>
     <g id="line2d_34">
      <g>
       <use style="stroke:#000000;stroke-width:0.8;" x="414.062514" xlink:href="#m97662953c8" y="293.76"/>
      </g>
     </g>
     <g id="text_2">
      <!-- 3 -->
      <g transform="translate(407.700014 315.956875)scale(0.2 -0.2)">
       <defs>
        <path d="M 2597 2516 
Q 3050 2419 3304 2112 
Q 3559 1806 3559 1356 
Q 3559 666 3084 287 
Q 2609 -91 1734 -91 
Q 1441 -91 1130 -33 
Q 819 25 488 141 
L 488 750 
Q 750 597 1062 519 
Q 1375 441 1716 441 
Q 2309 441 2620 675 
Q 2931 909 2931 1356 
Q 2931 1769 2642 2001 
Q 2353 2234 1838 2234 
L 1294 2234 
L 1294 2753 
L 1863 2753 
Q 2328 2753 2575 2939 
Q 2822 3125 2822 3475 
Q 2822 3834 2567 4026 
Q 2313 4219 1838 4219 
Q 1578 4219 1281 4162 
Q 984 4106 628 3988 
L 628 4550 
Q 988 4650 1302 4700 
Q 1616 4750 1894 4750 
Q 2613 4750 3031 4423 
Q 3450 4097 3450 3541 
Q 3450 3153 3228 2886 
Q 3006 2619 2597 2516 
z
" id="DejaVuSans-33" transform="scale(0.015625)"/>
       </defs>
       <use xlink:href="#DejaVuSans-33"/>
      </g>
     </g>
    </g>
    <g id="xtick_3">
     <g id="line2d_35">
      <path clip-path="url(#pf8482d08a9)" d="M 97.514254 293.76 
L 97.514254 3.456 
" style="fill:none;stroke:#b0b0b0;stroke-linecap:square;stroke-width:0.8;"/>
     </g>
     <g id="line2d_36">
      <defs>
       <path d="M 0 0 
L 0 2 
" id="m805e7032b8" style="stroke:#000000;stroke-width:0.6;"/>
      </defs>
      <g>
       <use style="stroke:#000000;stroke-width:0.6;" x="97.514254" xlink:href="#m805e7032b8" y="293.76"/>
      </g>
     </g>
    </g>
    <g id="xtick_4">
     <g id="line2d_37">
      <path clip-path="url(#pf8482d08a9)" d="M 118.167089 293.76 
L 118.167089 3.456 
" style="fill:none;stroke:#b0b0b0;stroke-linecap:square;stroke-width:0.8;"/>
     </g>
     <g id="line2d_38">
      <g>
       <use style="stroke:#000000;stroke-width:0.6;" x="118.167089" xlink:href="#m805e7032b8" y="293.76"/>
      </g>
     </g>
    </g>
    <g id="xtick_5">
     <g id="line2d_39">
      <path clip-path="url(#pf8482d08a9)" d="M 132.820509 293.76 
L 132.820509 3.456 
" style="fill:none;stroke:#b0b0b0;stroke-linecap:square;stroke-width:0.8;"/>
     </g>
     <g id="line2d_40">
      <g>
       <use style="stroke:#000000;stroke-width:0.6;" x="132.820509" xlink:href="#m805e7032b8" y="293.76"/>
      </g>
     </g>
    </g>
    <g id="xtick_6">
     <g id="line2d_41">
      <path clip-path="url(#pf8482d08a9)" d="M 144.186584 293.76 
L 144.186584 3.456 
" style="fill:none;stroke:#b0b0b0;stroke-linecap:square;stroke-width:0.8;"/>
     </g>
     <g id="line2d_42">
      <g>
       <use style="stroke:#000000;stroke-width:0.6;" x="144.186584" xlink:href="#m805e7032b8" y="293.76"/>
      </g>
     </g>
    </g>
    <g id="xtick_7">
     <g id="line2d_43">
      <path clip-path="url(#pf8482d08a9)" d="M 153.473343 293.76 
L 153.473343 3.456 
" style="fill:none;stroke:#b0b0b0;stroke-linecap:square;stroke-width:0.8;"/>
     </g>
     <g id="line2d_44">
      <g>
       <use style="stroke:#000000;stroke-width:0.6;" x="153.473343" xlink:href="#m805e7032b8" y="293.76"/>
      </g>
     </g>
    </g>
    <g id="xtick_8">
     <g id="line2d_45">
      <path clip-path="url(#pf8482d08a9)" d="M 161.325187 293.76 
L 161.325187 3.456 
" style="fill:none;stroke:#b0b0b0;stroke-linecap:square;stroke-width:0.8;"/>
     </g>
     <g id="line2d_46">
      <g>
       <use style="stroke:#000000;stroke-width:0.6;" x="161.325187" xlink:href="#m805e7032b8" y="293.76"/>
      </g>
     </g>
    </g>
    <g id="xtick_9">
     <g id="line2d_47">
      <path clip-path="url(#pf8482d08a9)" d="M 168.126763 293.76 
L 168.126763 3.456 
" style="fill:none;stroke:#b0b0b0;stroke-linecap:square;stroke-width:0.8;"/>
     </g>
     <g id="line2d_48">
      <g>
       <use style="stroke:#000000;stroke-width:0.6;" x="168.126763" xlink:href="#m805e7032b8" y="293.76"/>
      </g>
     </g>
    </g>
    <g id="xtick_10">
     <g id="line2d_49">
      <path clip-path="url(#pf8482d08a9)" d="M 174.126178 293.76 
L 174.126178 3.456 
" style="fill:none;stroke:#b0b0b0;stroke-linecap:square;stroke-width:0.8;"/>
     </g>
     <g id="line2d_50">
      <g>
       <use style="stroke:#000000;stroke-width:0.6;" x="174.126178" xlink:href="#m805e7032b8" y="293.76"/>
      </g>
     </g>
    </g>
    <g id="xtick_11">
     <g id="line2d_51">
      <path clip-path="url(#pf8482d08a9)" d="M 214.799092 293.76 
L 214.799092 3.456 
" style="fill:none;stroke:#b0b0b0;stroke-linecap:square;stroke-width:0.8;"/>
     </g>
     <g id="line2d_52">
      <g>
       <use style="stroke:#000000;stroke-width:0.6;" x="214.799092" xlink:href="#m805e7032b8" y="293.76"/>
      </g>
     </g>
    </g>
    <g id="xtick_12">
     <g id="line2d_53">
      <path clip-path="url(#pf8482d08a9)" d="M 235.451927 293.76 
L 235.451927 3.456 
" style="fill:none;stroke:#b0b0b0;stroke-linecap:square;stroke-width:0.8;"/>
     </g>
     <g id="line2d_54">
      <g>
       <use style="stroke:#000000;stroke-width:0.6;" x="235.451927" xlink:href="#m805e7032b8" y="293.76"/>
      </g>
     </g>
    </g>
    <g id="xtick_13">
     <g id="line2d_55">
      <path clip-path="url(#pf8482d08a9)" d="M 250.105347 293.76 
L 250.105347 3.456 
" style="fill:none;stroke:#b0b0b0;stroke-linecap:square;stroke-width:0.8;"/>
     </g>
     <g id="line2d_56">
      <g>
       <use style="stroke:#000000;stroke-width:0.6;" x="250.105347" xlink:href="#m805e7032b8" y="293.76"/>
      </g>
     </g>
    </g>
    <g id="xtick_14">
     <g id="line2d_57">
      <path clip-path="url(#pf8482d08a9)" d="M 261.471422 293.76 
L 261.471422 3.456 
" style="fill:none;stroke:#b0b0b0;stroke-linecap:square;stroke-width:0.8;"/>
     </g>
     <g id="line2d_58">
      <g>
       <use style="stroke:#000000;stroke-width:0.6;" x="261.471422" xlink:href="#m805e7032b8" y="293.76"/>
      </g>
     </g>
    </g>
    <g id="xtick_15">
     <g id="line2d_59">
      <path clip-path="url(#pf8482d08a9)" d="M 270.758181 293.76 
L 270.758181 3.456 
" style="fill:none;stroke:#b0b0b0;stroke-linecap:square;stroke-width:0.8;"/>
     </g>
     <g id="line2d_60">
      <g>
       <use style="stroke:#000000;stroke-width:0.6;" x="270.758181" xlink:href="#m805e7032b8" y="293.76"/>
      </g>
     </g>
    </g>
    <g id="xtick_16">
     <g id="line2d_61">
      <path clip-path="url(#pf8482d08a9)" d="M 278.610025 293.76 
L 278.610025 3.456 
" style="fill:none;stroke:#b0b0b0;stroke-linecap:square;stroke-width:0.8;"/>
     </g>
     <g id="line2d_62">
      <g>
       <use style="stroke:#000000;stroke-width:0.6;" x="278.610025" xlink:href="#m805e7032b8" y="293.76"/>
      </g>
     </g>
    </g>
    <g id="xtick_17">
     <g id="line2d_63">
      <path clip-path="url(#pf8482d08a9)" d="M 285.411601 293.76 
L 285.411601 3.456 
" style="fill:none;stroke:#b0b0b0;stroke-linecap:square;stroke-width:0.8;"/>
     </g>
     <g id="line2d_64">
      <g>
       <use style="stroke:#000000;stroke-width:0.6;" x="285.411601" xlink:href="#m805e7032b8" y="293.76"/>
      </g>
     </g>
    </g>
    <g id="xtick_18">
     <g id="line2d_65">
      <path clip-path="url(#pf8482d08a9)" d="M 291.411016 293.76 
L 291.411016 3.456 
" style="fill:none;stroke:#b0b0b0;stroke-linecap:square;stroke-width:0.8;"/>
     </g>
     <g id="line2d_66">
      <g>
       <use style="stroke:#000000;stroke-width:0.6;" x="291.411016" xlink:href="#m805e7032b8" y="293.76"/>
      </g>
     </g>
    </g>
    <g id="xtick_19">
     <g id="line2d_67">
      <path clip-path="url(#pf8482d08a9)" d="M 332.08393 293.76 
L 332.08393 3.456 
" style="fill:none;stroke:#b0b0b0;stroke-linecap:square;stroke-width:0.8;"/>
     </g>
     <g id="line2d_68">
      <g>
       <use style="stroke:#000000;stroke-width:0.6;" x="332.08393" xlink:href="#m805e7032b8" y="293.76"/>
      </g>
     </g>
    </g>
    <g id="xtick_20">
     <g id="line2d_69">
      <path clip-path="url(#pf8482d08a9)" d="M 352.736765 293.76 
L 352.736765 3.456 
" style="fill:none;stroke:#b0b0b0;stroke-linecap:square;stroke-width:0.8;"/>
     </g>
     <g id="line2d_70">
      <g>
       <use style="stroke:#000000;stroke-width:0.6;" x="352.736765" xlink:href="#m805e7032b8" y="293.76"/>
      </g>
     </g>
    </g>
    <g id="xtick_21">
     <g id="line2d_71">
      <path clip-path="url(#pf8482d08a9)" d="M 367.390185 293.76 
L 367.390185 3.456 
" style="fill:none;stroke:#b0b0b0;stroke-linecap:square;stroke-width:0.8;"/>
     </g>
     <g id="line2d_72">
      <g>
       <use style="stroke:#000000;stroke-width:0.6;" x="367.390185" xlink:href="#m805e7032b8" y="293.76"/>
      </g>
     </g>
    </g>
    <g id="xtick_22">
     <g id="line2d_73">
      <path clip-path="url(#pf8482d08a9)" d="M 378.75626 293.76 
L 378.75626 3.456 
" style="fill:none;stroke:#b0b0b0;stroke-linecap:square;stroke-width:0.8;"/>
     </g>
     <g id="line2d_74">
      <g>
       <use style="stroke:#000000;stroke-width:0.6;" x="378.75626" xlink:href="#m805e7032b8" y="293.76"/>
      </g>
     </g>
    </g>
    <g id="xtick_23">
     <g id="line2d_75">
      <path clip-path="url(#pf8482d08a9)" d="M 388.043019 293.76 
L 388.043019 3.456 
" style="fill:none;stroke:#b0b0b0;stroke-linecap:square;stroke-width:0.8;"/>
     </g>
     <g id="line2d_76">
      <g>
       <use style="stroke:#000000;stroke-width:0.6;" x="388.043019" xlink:href="#m805e7032b8" y="293.76"/>
      </g>
     </g>
    </g>
    <g id="xtick_24">
     <g id="line2d_77">
      <path clip-path="url(#pf8482d08a9)" d="M 395.894863 293.76 
L 395.894863 3.456 
" style="fill:none;stroke:#b0b0b0;stroke-linecap:square;stroke-width:0.8;"/>
     </g>
     <g id="line2d_78">
      <g>
       <use style="stroke:#000000;stroke-width:0.6;" x="395.894863" xlink:href="#m805e7032b8" y="293.76"/>
      </g>
     </g>
    </g>
    <g id="xtick_25">
     <g id="line2d_79">
      <path clip-path="url(#pf8482d08a9)" d="M 402.696439 293.76 
L 402.696439 3.456 
" style="fill:none;stroke:#b0b0b0;stroke-linecap:square;stroke-width:0.8;"/>
     </g>
     <g id="line2d_80">
      <g>
       <use style="stroke:#000000;stroke-width:0.6;" x="402.696439" xlink:href="#m805e7032b8" y="293.76"/>
      </g>
     </g>
    </g>
    <g id="xtick_26">
     <g id="line2d_81">
      <path clip-path="url(#pf8482d08a9)" d="M 408.695854 293.76 
L 408.695854 3.456 
" style="fill:none;stroke:#b0b0b0;stroke-linecap:square;stroke-width:0.8;"/>
     </g>
     <g id="line2d_82">
      <g>
       <use style="stroke:#000000;stroke-width:0.6;" x="408.695854" xlink:href="#m805e7032b8" y="293.76"/>
      </g>
     </g>
    </g>
    <g id="xtick_27">
     <g id="line2d_83">
      <path clip-path="url(#pf8482d08a9)" d="M 449.368768 293.76 
L 449.368768 3.456 
" style="fill:none;stroke:#b0b0b0;stroke-linecap:square;stroke-width:0.8;"/>
     </g>
     <g id="line2d_84">
      <g>
       <use style="stroke:#000000;stroke-width:0.6;" x="449.368768" xlink:href="#m805e7032b8" y="293.76"/>
      </g>
     </g>
    </g>
    <g id="text_3">
     <!-- log10 of FEvals / DIM -->
     <g transform="translate(156.430563 339.313125)scale(0.2 -0.2)">
      <defs>
       <path d="M 603 4863 
L 1178 4863 
L 1178 0 
L 603 0 
L 603 4863 
z
" id="DejaVuSans-6c" transform="scale(0.015625)"/>
       <path d="M 1959 3097 
Q 1497 3097 1228 2736 
Q 959 2375 959 1747 
Q 959 1119 1226 758 
Q 1494 397 1959 397 
Q 2419 397 2687 759 
Q 2956 1122 2956 1747 
Q 2956 2369 2687 2733 
Q 2419 3097 1959 3097 
z
M 1959 3584 
Q 2709 3584 3137 3096 
Q 3566 2609 3566 1747 
Q 3566 888 3137 398 
Q 2709 -91 1959 -91 
Q 1206 -91 779 398 
Q 353 888 353 1747 
Q 353 2609 779 3096 
Q 1206 3584 1959 3584 
z
" id="DejaVuSans-6f" transform="scale(0.015625)"/>
       <path d="M 2906 1791 
Q 2906 2416 2648 2759 
Q 2391 3103 1925 3103 
Q 1463 3103 1205 2759 
Q 947 2416 947 1791 
Q 947 1169 1205 825 
Q 1463 481 1925 481 
Q 2391 481 2648 825 
Q 2906 1169 2906 1791 
z
M 3481 434 
Q 3481 -459 3084 -895 
Q 2688 -1331 1869 -1331 
Q 1566 -1331 1297 -1286 
Q 1028 -1241 775 -1147 
L 775 -588 
Q 1028 -725 1275 -790 
Q 1522 -856 1778 -856 
Q 2344 -856 2625 -561 
Q 2906 -266 2906 331 
L 2906 616 
Q 2728 306 2450 153 
Q 2172 0 1784 0 
Q 1141 0 747 490 
Q 353 981 353 1791 
Q 353 2603 747 3093 
Q 1141 3584 1784 3584 
Q 2172 3584 2450 3431 
Q 2728 3278 2906 2969 
L 2906 3500 
L 3481 3500 
L 3481 434 
z
" id="DejaVuSans-67" transform="scale(0.015625)"/>
       <path d="M 2034 4250 
Q 1547 4250 1301 3770 
Q 1056 3291 1056 2328 
Q 1056 1369 1301 889 
Q 1547 409 2034 409 
Q 2525 409 2770 889 
Q 3016 1369 3016 2328 
Q 3016 3291 2770 3770 
Q 2525 4250 2034 4250 
z
M 2034 4750 
Q 2819 4750 3233 4129 
Q 3647 3509 3647 2328 
Q 3647 1150 3233 529 
Q 2819 -91 2034 -91 
Q 1250 -91 836 529 
Q 422 1150 422 2328 
Q 422 3509 836 4129 
Q 1250 4750 2034 4750 
z
" id="DejaVuSans-30" transform="scale(0.015625)"/>
       <path id="DejaVuSans-20" transform="scale(0.015625)"/>
       <path d="M 2375 4863 
L 2375 4384 
L 1825 4384 
Q 1516 4384 1395 4259 
Q 1275 4134 1275 3809 
L 1275 3500 
L 2222 3500 
L 2222 3053 
L 1275 3053 
L 1275 0 
L 697 0 
L 697 3053 
L 147 3053 
L 147 3500 
L 697 3500 
L 697 3744 
Q 697 4328 969 4595 
Q 1241 4863 1831 4863 
L 2375 4863 
z
" id="DejaVuSans-66" transform="scale(0.015625)"/>
       <path d="M 628 4666 
L 3309 4666 
L 3309 4134 
L 1259 4134 
L 1259 2759 
L 3109 2759 
L 3109 2228 
L 1259 2228 
L 1259 0 
L 628 0 
L 628 4666 
z
" id="DejaVuSans-46" transform="scale(0.015625)"/>
       <path d="M 628 4666 
L 3578 4666 
L 3578 4134 
L 1259 4134 
L 1259 2753 
L 3481 2753 
L 3481 2222 
L 1259 2222 
L 1259 531 
L 3634 531 
L 3634 0 
L 628 0 
L 628 4666 
z
" id="DejaVuSans-45" transform="scale(0.015625)"/>
       <path d="M 191 3500 
L 800 3500 
L 1894 563 
L 2988 3500 
L 3597 3500 
L 2284 0 
L 1503 0 
L 191 3500 
z
" id="DejaVuSans-76" transform="scale(0.015625)"/>
       <path d="M 2194 1759 
Q 1497 1759 1228 1600 
Q 959 1441 959 1056 
Q 959 750 1161 570 
Q 1363 391 1709 391 
Q 2188 391 2477 730 
Q 2766 1069 2766 1631 
L 2766 1759 
L 2194 1759 
z
M 3341 1997 
L 3341 0 
L 2766 0 
L 2766 531 
Q 2569 213 2275 61 
Q 1981 -91 1556 -91 
Q 1019 -91 701 211 
Q 384 513 384 1019 
Q 384 1609 779 1909 
Q 1175 2209 1959 2209 
L 2766 2209 
L 2766 2266 
Q 2766 2663 2505 2880 
Q 2244 3097 1772 3097 
Q 1472 3097 1187 3025 
Q 903 2953 641 2809 
L 641 3341 
Q 956 3463 1253 3523 
Q 1550 3584 1831 3584 
Q 2591 3584 2966 3190 
Q 3341 2797 3341 1997 
z
" id="DejaVuSans-61" transform="scale(0.015625)"/>
       <path d="M 2834 3397 
L 2834 2853 
Q 2591 2978 2328 3040 
Q 2066 3103 1784 3103 
Q 1356 3103 1142 2972 
Q 928 2841 928 2578 
Q 928 2378 1081 2264 
Q 1234 2150 1697 2047 
L 1894 2003 
Q 2506 1872 2764 1633 
Q 3022 1394 3022 966 
Q 3022 478 2636 193 
Q 2250 -91 1575 -91 
Q 1294 -91 989 -36 
Q 684 19 347 128 
L 347 722 
Q 666 556 975 473 
Q 1284 391 1588 391 
Q 1994 391 2212 530 
Q 2431 669 2431 922 
Q 2431 1156 2273 1281 
Q 2116 1406 1581 1522 
L 1381 1569 
Q 847 1681 609 1914 
Q 372 2147 372 2553 
Q 372 3047 722 3315 
Q 1072 3584 1716 3584 
Q 2034 3584 2315 3537 
Q 2597 3491 2834 3397 
z
" id="DejaVuSans-73" transform="scale(0.015625)"/>
       <path d="M 1625 4666 
L 2156 4666 
L 531 -594 
L 0 -594 
L 1625 4666 
z
" id="DejaVuSans-2f" transform="scale(0.015625)"/>
       <path d="M 1259 4147 
L 1259 519 
L 2022 519 
Q 2988 519 3436 956 
Q 3884 1394 3884 2338 
Q 3884 3275 3436 3711 
Q 2988 4147 2022 4147 
L 1259 4147 
z
M 628 4666 
L 1925 4666 
Q 3281 4666 3915 4102 
Q 4550 3538 4550 2338 
Q 4550 1131 3912 565 
Q 3275 0 1925 0 
L 628 0 
L 628 4666 
z
" id="DejaVuSans-44" transform="scale(0.015625)"/>
       <path d="M 628 4666 
L 1259 4666 
L 1259 0 
L 628 0 
L 628 4666 
z
" id="DejaVuSans-49" transform="scale(0.015625)"/>
       <path d="M 628 4666 
L 1569 4666 
L 2759 1491 
L 3956 4666 
L 4897 4666 
L 4897 0 
L 4281 0 
L 4281 4097 
L 3078 897 
L 2444 897 
L 1241 4097 
L 1241 0 
L 628 0 
L 628 4666 
z
" id="DejaVuSans-4d" transform="scale(0.015625)"/>
      </defs>
      <use xlink:href="#DejaVuSans-6c"/>
      <use x="27.783203" xlink:href="#DejaVuSans-6f"/>
      <use x="88.964844" xlink:href="#DejaVuSans-67"/>
      <use x="152.441406" xlink:href="#DejaVuSans-31"/>
      <use x="216.064453" xlink:href="#DejaVuSans-30"/>
      <use x="279.6875" xlink:href="#DejaVuSans-20"/>
      <use x="311.474609" xlink:href="#DejaVuSans-6f"/>
      <use x="372.65625" xlink:href="#DejaVuSans-66"/>
      <use x="407.861328" xlink:href="#DejaVuSans-20"/>
      <use x="439.648438" xlink:href="#DejaVuSans-46"/>
      <use x="497.167969" xlink:href="#DejaVuSans-45"/>
      <use x="560.351562" xlink:href="#DejaVuSans-76"/>
      <use x="619.53125" xlink:href="#DejaVuSans-61"/>
      <use x="680.810547" xlink:href="#DejaVuSans-6c"/>
      <use x="708.59375" xlink:href="#DejaVuSans-73"/>
      <use x="760.693359" xlink:href="#DejaVuSans-20"/>
      <use x="792.480469" xlink:href="#DejaVuSans-2f"/>
      <use x="826.171875" xlink:href="#DejaVuSans-20"/>
      <use x="857.958984" xlink:href="#DejaVuSans-44"/>
      <use x="934.960938" xlink:href="#DejaVuSans-49"/>
      <use x="964.453125" xlink:href="#DejaVuSans-4d"/>
     </g>
    </g>
   </g>
   <g id="matplotlib.axis_2">
    <g id="ytick_1">
     <g id="line2d_85">
      <path clip-path="url(#pf8482d08a9)" d="M 62.208 293.76 
L 460.8 293.76 
" style="fill:none;stroke:#b0b0b0;stroke-linecap:square;stroke-width:0.8;"/>
     </g>
     <g id="line2d_86">
      <defs>
       <path d="M 0 0 
L -3.5 0 
" id="mdd46cd15c8" style="stroke:#000000;stroke-width:0.8;"/>
      </defs>
      <g>
       <use style="stroke:#000000;stroke-width:0.8;" x="62.208" xlink:href="#mdd46cd15c8" y="293.76"/>
      </g>
     </g>
     <g id="text_4">
      <!-- 0.0 -->
      <g transform="translate(29.763 299.83875)scale(0.16 -0.16)">
       <defs>
        <path d="M 684 794 
L 1344 794 
L 1344 0 
L 684 0 
L 684 794 
z
" id="DejaVuSans-2e" transform="scale(0.015625)"/>
       </defs>
       <use xlink:href="#DejaVuSans-30"/>
       <use x="63.623047" xlink:href="#DejaVuSans-2e"/>
       <use x="95.410156" xlink:href="#DejaVuSans-30"/>
      </g>
     </g>
    </g>
    <g id="ytick_2">
     <g id="line2d_87">
      <path clip-path="url(#pf8482d08a9)" d="M 62.208 236.274059 
L 460.8 236.274059 
" style="fill:none;stroke:#b0b0b0;stroke-linecap:square;stroke-width:0.8;"/>
     </g>
     <g id="line2d_88">
      <g>
       <use style="stroke:#000000;stroke-width:0.8;" x="62.208" xlink:href="#mdd46cd15c8" y="236.274059"/>
      </g>
     </g>
     <g id="text_5">
      <!-- 0.2 -->
      <g transform="translate(29.763 242.352809)scale(0.16 -0.16)">
       <defs>
        <path d="M 1228 531 
L 3431 531 
L 3431 0 
L 469 0 
L 469 531 
Q 828 903 1448 1529 
Q 2069 2156 2228 2338 
Q 2531 2678 2651 2914 
Q 2772 3150 2772 3378 
Q 2772 3750 2511 3984 
Q 2250 4219 1831 4219 
Q 1534 4219 1204 4116 
Q 875 4013 500 3803 
L 500 4441 
Q 881 4594 1212 4672 
Q 1544 4750 1819 4750 
Q 2544 4750 2975 4387 
Q 3406 4025 3406 3419 
Q 3406 3131 3298 2873 
Q 3191 2616 2906 2266 
Q 2828 2175 2409 1742 
Q 1991 1309 1228 531 
z
" id="DejaVuSans-32" transform="scale(0.015625)"/>
       </defs>
       <use xlink:href="#DejaVuSans-30"/>
       <use x="63.623047" xlink:href="#DejaVuSans-2e"/>
       <use x="95.410156" xlink:href="#DejaVuSans-32"/>
      </g>
     </g>
    </g>
    <g id="ytick_3">
     <g id="line2d_89">
      <path clip-path="url(#pf8482d08a9)" d="M 62.208 178.788119 
L 460.8 178.788119 
" style="fill:none;stroke:#b0b0b0;stroke-linecap:square;stroke-width:0.8;"/>
     </g>
     <g id="line2d_90">
      <g>
       <use style="stroke:#000000;stroke-width:0.8;" x="62.208" xlink:href="#mdd46cd15c8" y="178.788119"/>
      </g>
     </g>
     <g id="text_6">
      <!-- 0.4 -->
      <g transform="translate(29.763 184.866869)scale(0.16 -0.16)">
       <defs>
        <path d="M 2419 4116 
L 825 1625 
L 2419 1625 
L 2419 4116 
z
M 2253 4666 
L 3047 4666 
L 3047 1625 
L 3713 1625 
L 3713 1100 
L 3047 1100 
L 3047 0 
L 2419 0 
L 2419 1100 
L 313 1100 
L 313 1709 
L 2253 4666 
z
" id="DejaVuSans-34" transform="scale(0.015625)"/>
       </defs>
       <use xlink:href="#DejaVuSans-30"/>
       <use x="63.623047" xlink:href="#DejaVuSans-2e"/>
       <use x="95.410156" xlink:href="#DejaVuSans-34"/>
      </g>
     </g>
    </g>
    <g id="ytick_4">
     <g id="line2d_91">
      <path clip-path="url(#pf8482d08a9)" d="M 62.208 121.302178 
L 460.8 121.302178 
" style="fill:none;stroke:#b0b0b0;stroke-linecap:square;stroke-width:0.8;"/>
     </g>
     <g id="line2d_92">
      <g>
       <use style="stroke:#000000;stroke-width:0.8;" x="62.208" xlink:href="#mdd46cd15c8" y="121.302178"/>
      </g>
     </g>
     <g id="text_7">
      <!-- 0.6 -->
      <g transform="translate(29.763 127.380928)scale(0.16 -0.16)">
       <defs>
        <path d="M 2113 2584 
Q 1688 2584 1439 2293 
Q 1191 2003 1191 1497 
Q 1191 994 1439 701 
Q 1688 409 2113 409 
Q 2538 409 2786 701 
Q 3034 994 3034 1497 
Q 3034 2003 2786 2293 
Q 2538 2584 2113 2584 
z
M 3366 4563 
L 3366 3988 
Q 3128 4100 2886 4159 
Q 2644 4219 2406 4219 
Q 1781 4219 1451 3797 
Q 1122 3375 1075 2522 
Q 1259 2794 1537 2939 
Q 1816 3084 2150 3084 
Q 2853 3084 3261 2657 
Q 3669 2231 3669 1497 
Q 3669 778 3244 343 
Q 2819 -91 2113 -91 
Q 1303 -91 875 529 
Q 447 1150 447 2328 
Q 447 3434 972 4092 
Q 1497 4750 2381 4750 
Q 2619 4750 2861 4703 
Q 3103 4656 3366 4563 
z
" id="DejaVuSans-36" transform="scale(0.015625)"/>
       </defs>
       <use xlink:href="#DejaVuSans-30"/>
       <use x="63.623047" xlink:href="#DejaVuSans-2e"/>
       <use x="95.410156" xlink:href="#DejaVuSans-36"/>
      </g>
     </g>
    </g>
    <g id="ytick_5">
     <g id="line2d_93">
      <path clip-path="url(#pf8482d08a9)" d="M 62.208 63.816238 
L 460.8 63.816238 
" style="fill:none;stroke:#b0b0b0;stroke-linecap:square;stroke-width:0.8;"/>
     </g>
     <g id="line2d_94">
      <g>
       <use style="stroke:#000000;stroke-width:0.8;" x="62.208" xlink:href="#mdd46cd15c8" y="63.816238"/>
      </g>
     </g>
     <g id="text_8">
      <!-- 0.8 -->
      <g transform="translate(29.763 69.894988)scale(0.16 -0.16)">
       <defs>
        <path d="M 2034 2216 
Q 1584 2216 1326 1975 
Q 1069 1734 1069 1313 
Q 1069 891 1326 650 
Q 1584 409 2034 409 
Q 2484 409 2743 651 
Q 3003 894 3003 1313 
Q 3003 1734 2745 1975 
Q 2488 2216 2034 2216 
z
M 1403 2484 
Q 997 2584 770 2862 
Q 544 3141 544 3541 
Q 544 4100 942 4425 
Q 1341 4750 2034 4750 
Q 2731 4750 3128 4425 
Q 3525 4100 3525 3541 
Q 3525 3141 3298 2862 
Q 3072 2584 2669 2484 
Q 3125 2378 3379 2068 
Q 3634 1759 3634 1313 
Q 3634 634 3220 271 
Q 2806 -91 2034 -91 
Q 1263 -91 848 271 
Q 434 634 434 1313 
Q 434 1759 690 2068 
Q 947 2378 1403 2484 
z
M 1172 3481 
Q 1172 3119 1398 2916 
Q 1625 2713 2034 2713 
Q 2441 2713 2670 2916 
Q 2900 3119 2900 3481 
Q 2900 3844 2670 4047 
Q 2441 4250 2034 4250 
Q 1625 4250 1398 4047 
Q 1172 3844 1172 3481 
z
" id="DejaVuSans-38" transform="scale(0.015625)"/>
       </defs>
       <use xlink:href="#DejaVuSans-30"/>
       <use x="63.623047" xlink:href="#DejaVuSans-2e"/>
       <use x="95.410156" xlink:href="#DejaVuSans-38"/>
      </g>
     </g>
    </g>
    <g id="ytick_6">
     <g id="line2d_95">
      <path clip-path="url(#pf8482d08a9)" d="M 62.208 6.330297 
L 460.8 6.330297 
" style="fill:none;stroke:#b0b0b0;stroke-linecap:square;stroke-width:0.8;"/>
     </g>
     <g id="line2d_96">
      <g>
       <use style="stroke:#000000;stroke-width:0.8;" x="62.208" xlink:href="#mdd46cd15c8" y="6.330297"/>
      </g>
     </g>
     <g id="text_9">
      <!-- 1.0 -->
      <g transform="translate(29.763 12.409047)scale(0.16 -0.16)">
       <use xlink:href="#DejaVuSans-31"/>
       <use x="63.623047" xlink:href="#DejaVuSans-2e"/>
       <use x="95.410156" xlink:href="#DejaVuSans-30"/>
      </g>
     </g>
    </g>
    <g id="text_10">
     <!-- proportion of trials -->
     <g transform="translate(21.603625 241.61425)rotate(-90)scale(0.2 -0.2)">
      <defs>
       <path d="M 1159 525 
L 1159 -1331 
L 581 -1331 
L 581 3500 
L 1159 3500 
L 1159 2969 
Q 1341 3281 1617 3432 
Q 1894 3584 2278 3584 
Q 2916 3584 3314 3078 
Q 3713 2572 3713 1747 
Q 3713 922 3314 415 
Q 2916 -91 2278 -91 
Q 1894 -91 1617 61 
Q 1341 213 1159 525 
z
M 3116 1747 
Q 3116 2381 2855 2742 
Q 2594 3103 2138 3103 
Q 1681 3103 1420 2742 
Q 1159 2381 1159 1747 
Q 1159 1113 1420 752 
Q 1681 391 2138 391 
Q 2594 391 2855 752 
Q 3116 1113 3116 1747 
z
" id="DejaVuSans-70" transform="scale(0.015625)"/>
       <path d="M 2631 2963 
Q 2534 3019 2420 3045 
Q 2306 3072 2169 3072 
Q 1681 3072 1420 2755 
Q 1159 2438 1159 1844 
L 1159 0 
L 581 0 
L 581 3500 
L 1159 3500 
L 1159 2956 
Q 1341 3275 1631 3429 
Q 1922 3584 2338 3584 
Q 2397 3584 2469 3576 
Q 2541 3569 2628 3553 
L 2631 2963 
z
" id="DejaVuSans-72" transform="scale(0.015625)"/>
       <path d="M 1172 4494 
L 1172 3500 
L 2356 3500 
L 2356 3053 
L 1172 3053 
L 1172 1153 
Q 1172 725 1289 603 
Q 1406 481 1766 481 
L 2356 481 
L 2356 0 
L 1766 0 
Q 1100 0 847 248 
Q 594 497 594 1153 
L 594 3053 
L 172 3053 
L 172 3500 
L 594 3500 
L 594 4494 
L 1172 4494 
z
" id="DejaVuSans-74" transform="scale(0.015625)"/>
       <path d="M 603 3500 
L 1178 3500 
L 1178 0 
L 603 0 
L 603 3500 
z
M 603 4863 
L 1178 4863 
L 1178 4134 
L 603 4134 
L 603 4863 
z
" id="DejaVuSans-69" transform="scale(0.015625)"/>
       <path d="M 3513 2113 
L 3513 0 
L 2938 0 
L 2938 2094 
Q 2938 2591 2744 2837 
Q 2550 3084 2163 3084 
Q 1697 3084 1428 2787 
Q 1159 2491 1159 1978 
L 1159 0 
L 581 0 
L 581 3500 
L 1159 3500 
L 1159 2956 
Q 1366 3272 1645 3428 
Q 1925 3584 2291 3584 
Q 2894 3584 3203 3211 
Q 3513 2838 3513 2113 
z
" id="DejaVuSans-6e" transform="scale(0.015625)"/>
      </defs>
      <use xlink:href="#DejaVuSans-70"/>
      <use x="63.476562" xlink:href="#DejaVuSans-72"/>
      <use x="102.339844" xlink:href="#DejaVuSans-6f"/>
      <use x="163.521484" xlink:href="#DejaVuSans-70"/>
      <use x="226.998047" xlink:href="#DejaVuSans-6f"/>
      <use x="288.179688" xlink:href="#DejaVuSans-72"/>
      <use x="329.292969" xlink:href="#DejaVuSans-74"/>
      <use x="368.501953" xlink:href="#DejaVuSans-69"/>
      <use x="396.285156" xlink:href="#DejaVuSans-6f"/>
      <use x="457.466797" xlink:href="#DejaVuSans-6e"/>
      <use x="520.845703" xlink:href="#DejaVuSans-20"/>
      <use x="552.632812" xlink:href="#DejaVuSans-6f"/>
      <use x="613.814453" xlink:href="#DejaVuSans-66"/>
      <use x="649.019531" xlink:href="#DejaVuSans-20"/>
      <use x="680.806641" xlink:href="#DejaVuSans-74"/>
      <use x="720.015625" xlink:href="#DejaVuSans-72"/>
      <use x="761.128906" xlink:href="#DejaVuSans-69"/>
      <use x="788.912109" xlink:href="#DejaVuSans-61"/>
      <use x="850.191406" xlink:href="#DejaVuSans-6c"/>
      <use x="877.974609" xlink:href="#DejaVuSans-73"/>
     </g>
    </g>
   </g>
   <g id="line2d_97">
    <path clip-path="url(#pf8482d08a9)" d="M 424.232947 293.76 
L 424.232947 288.969505 
L 425.044102 288.969505 
L 425.044102 284.17901 
L 427.853584 284.17901 
L 427.853584 279.388515 
L 428.777656 279.388515 
L 428.777656 274.59802 
L 434.552092 274.59802 
L 434.552092 269.807525 
L 435.396711 269.807525 
L 435.396711 265.01703 
L 442.376188 265.01703 
L 442.376188 260.226535 
L 443.275353 260.226535 
L 443.275353 255.43604 
L 445.287455 255.43604 
L 445.287455 250.645545 
L 446.368572 250.645545 
L 446.368572 245.85505 
L 446.368572 245.85505 
L 446.368572 245.85505 
L 460.8 245.85505 
" style="fill:none;stroke:#000000;stroke-linecap:square;stroke-width:1.5;"/>
   </g>
   <g id="line2d_98">
    <path clip-path="url(#pf8482d08a9)" style="fill:none;stroke:#000000;stroke-linecap:square;stroke-width:1.5;"/>
   </g>
   <g id="line2d_99"/>
   <g id="line2d_100"/>
   <g id="line2d_101"/>
   <g id="line2d_102">
    <path clip-path="url(#pf8482d08a9)" d="M 460.8 293.76 
L 460.8 3.456 
" style="fill:none;stroke:#000000;stroke-linecap:square;stroke-width:1.5;"/>
   </g>
   <g id="patch_3">
    <path d="M 62.208 293.76 
L 62.208 3.456 
" style="fill:none;stroke:#000000;stroke-linecap:square;stroke-linejoin:miter;stroke-width:0.8;"/>
   </g>
   <g id="patch_4">
    <path d="M 460.8 293.76 
L 460.8 3.456 
" style="fill:none;stroke:#000000;stroke-linecap:square;stroke-linejoin:miter;stroke-width:0.8;"/>
   </g>
   <g id="patch_5">
    <path d="M 62.208 293.76 
L 460.8 293.76 
" style="fill:none;stroke:#000000;stroke-linecap:square;stroke-linejoin:miter;stroke-width:0.8;"/>
   </g>
   <g id="patch_6">
    <path d="M 62.208 3.456 
L 460.8 3.456 
" style="fill:none;stroke:#000000;stroke-linecap:square;stroke-linejoin:miter;stroke-width:0.8;"/>
   </g>
   <g id="text_11">
    <!-- {f6-f9}, 20-D -->
    <g transform="translate(195.0165 24.458955)scale(0.2 -0.2)">
     <defs>
      <path d="M 3272 -594 
L 3272 -1044 
L 3078 -1044 
Q 2300 -1044 2036 -812 
Q 1772 -581 1772 109 
L 1772 856 
Q 1772 1328 1603 1509 
Q 1434 1691 991 1691 
L 800 1691 
L 800 2138 
L 991 2138 
Q 1438 2138 1605 2317 
Q 1772 2497 1772 2963 
L 1772 3713 
Q 1772 4403 2036 4633 
Q 2300 4863 3078 4863 
L 3272 4863 
L 3272 4416 
L 3059 4416 
Q 2619 4416 2484 4278 
Q 2350 4141 2350 3700 
L 2350 2925 
Q 2350 2434 2208 2212 
Q 2066 1991 1722 1913 
Q 2069 1828 2209 1606 
Q 2350 1384 2350 897 
L 2350 122 
Q 2350 -319 2484 -456 
Q 2619 -594 3059 -594 
L 3272 -594 
z
" id="DejaVuSans-7b" transform="scale(0.015625)"/>
      <path d="M 313 2009 
L 1997 2009 
L 1997 1497 
L 313 1497 
L 313 2009 
z
" id="DejaVuSans-2d" transform="scale(0.015625)"/>
      <path d="M 703 97 
L 703 672 
Q 941 559 1184 500 
Q 1428 441 1663 441 
Q 2288 441 2617 861 
Q 2947 1281 2994 2138 
Q 2813 1869 2534 1725 
Q 2256 1581 1919 1581 
Q 1219 1581 811 2004 
Q 403 2428 403 3163 
Q 403 3881 828 4315 
Q 1253 4750 1959 4750 
Q 2769 4750 3195 4129 
Q 3622 3509 3622 2328 
Q 3622 1225 3098 567 
Q 2575 -91 1691 -91 
Q 1453 -91 1209 -44 
Q 966 3 703 97 
z
M 1959 2075 
Q 2384 2075 2632 2365 
Q 2881 2656 2881 3163 
Q 2881 3666 2632 3958 
Q 2384 4250 1959 4250 
Q 1534 4250 1286 3958 
Q 1038 3666 1038 3163 
Q 1038 2656 1286 2365 
Q 1534 2075 1959 2075 
z
" id="DejaVuSans-39" transform="scale(0.015625)"/>
      <path d="M 800 -594 
L 1019 -594 
Q 1456 -594 1589 -459 
Q 1722 -325 1722 122 
L 1722 897 
Q 1722 1384 1862 1606 
Q 2003 1828 2350 1913 
Q 2003 1991 1862 2212 
Q 1722 2434 1722 2925 
L 1722 3700 
Q 1722 4144 1589 4280 
Q 1456 4416 1019 4416 
L 800 4416 
L 800 4863 
L 997 4863 
Q 1775 4863 2036 4633 
Q 2297 4403 2297 3713 
L 2297 2963 
Q 2297 2497 2465 2317 
Q 2634 2138 3078 2138 
L 3272 2138 
L 3272 1691 
L 3078 1691 
Q 2634 1691 2465 1509 
Q 2297 1328 2297 856 
L 2297 109 
Q 2297 -581 2036 -812 
Q 1775 -1044 997 -1044 
L 800 -1044 
L 800 -594 
z
" id="DejaVuSans-7d" transform="scale(0.015625)"/>
      <path d="M 750 794 
L 1409 794 
L 1409 256 
L 897 -744 
L 494 -744 
L 750 256 
L 750 794 
z
" id="DejaVuSans-2c" transform="scale(0.015625)"/>
     </defs>
     <use xlink:href="#DejaVuSans-7b"/>
     <use x="63.623047" xlink:href="#DejaVuSans-66"/>
     <use x="98.828125" xlink:href="#DejaVuSans-36"/>
     <use x="162.451172" xlink:href="#DejaVuSans-2d"/>
     <use x="198.535156" xlink:href="#DejaVuSans-66"/>
     <use x="233.740234" xlink:href="#DejaVuSans-39"/>
     <use x="297.363281" xlink:href="#DejaVuSans-7d"/>
     <use x="360.986328" xlink:href="#DejaVuSans-2c"/>
     <use x="392.773438" xlink:href="#DejaVuSans-20"/>
     <use x="424.560547" xlink:href="#DejaVuSans-32"/>
     <use x="488.183594" xlink:href="#DejaVuSans-30"/>
     <use x="551.806641" xlink:href="#DejaVuSans-2d"/>
     <use x="587.890625" xlink:href="#DejaVuSans-44"/>
    </g>
   </g>
   <g id="text_12">
    <!-- absolute targets -->
    <g transform="translate(62.208 609.932673)scale(0.14 -0.14)">
     <defs>
      <path d="M 3116 1747 
Q 3116 2381 2855 2742 
Q 2594 3103 2138 3103 
Q 1681 3103 1420 2742 
Q 1159 2381 1159 1747 
Q 1159 1113 1420 752 
Q 1681 391 2138 391 
Q 2594 391 2855 752 
Q 3116 1113 3116 1747 
z
M 1159 2969 
Q 1341 3281 1617 3432 
Q 1894 3584 2278 3584 
Q 2916 3584 3314 3078 
Q 3713 2572 3713 1747 
Q 3713 922 3314 415 
Q 2916 -91 2278 -91 
Q 1894 -91 1617 61 
Q 1341 213 1159 525 
L 1159 0 
L 581 0 
L 581 4863 
L 1159 4863 
L 1159 2969 
z
" id="DejaVuSans-62" transform="scale(0.015625)"/>
      <path d="M 544 1381 
L 544 3500 
L 1119 3500 
L 1119 1403 
Q 1119 906 1312 657 
Q 1506 409 1894 409 
Q 2359 409 2629 706 
Q 2900 1003 2900 1516 
L 2900 3500 
L 3475 3500 
L 3475 0 
L 2900 0 
L 2900 538 
Q 2691 219 2414 64 
Q 2138 -91 1772 -91 
Q 1169 -91 856 284 
Q 544 659 544 1381 
z
M 1991 3584 
L 1991 3584 
z
" id="DejaVuSans-75" transform="scale(0.015625)"/>
      <path d="M 3597 1894 
L 3597 1613 
L 953 1613 
Q 991 1019 1311 708 
Q 1631 397 2203 397 
Q 2534 397 2845 478 
Q 3156 559 3463 722 
L 3463 178 
Q 3153 47 2828 -22 
Q 2503 -91 2169 -91 
Q 1331 -91 842 396 
Q 353 884 353 1716 
Q 353 2575 817 3079 
Q 1281 3584 2069 3584 
Q 2775 3584 3186 3129 
Q 3597 2675 3597 1894 
z
M 3022 2063 
Q 3016 2534 2758 2815 
Q 2500 3097 2075 3097 
Q 1594 3097 1305 2825 
Q 1016 2553 972 2059 
L 3022 2063 
z
" id="DejaVuSans-65" transform="scale(0.015625)"/>
     </defs>
     <use xlink:href="#DejaVuSans-61"/>
     <use x="61.279297" xlink:href="#DejaVuSans-62"/>
     <use x="124.755859" xlink:href="#DejaVuSans-73"/>
     <use x="176.855469" xlink:href="#DejaVuSans-6f"/>
     <use x="238.037109" xlink:href="#DejaVuSans-6c"/>
     <use x="265.820312" xlink:href="#DejaVuSans-75"/>
     <use x="329.199219" xlink:href="#DejaVuSans-74"/>
     <use x="368.408203" xlink:href="#DejaVuSans-65"/>
     <use x="429.931641" xlink:href="#DejaVuSans-20"/>
     <use x="461.71875" xlink:href="#DejaVuSans-74"/>
     <use x="500.927734" xlink:href="#DejaVuSans-61"/>
     <use x="562.207031" xlink:href="#DejaVuSans-72"/>
     <use x="601.570312" xlink:href="#DejaVuSans-67"/>
     <use x="665.046875" xlink:href="#DejaVuSans-65"/>
     <use x="726.570312" xlink:href="#DejaVuSans-74"/>
     <use x="765.779297" xlink:href="#DejaVuSans-73"/>
    </g>
   </g>
   <g id="text_13">
    <!-- v2.4 -->
    <g style="fill:#808080;" transform="translate(250.593063 288.777272)scale(0.1 -0.1)">
     <use xlink:href="#DejaVuSans-76"/>
     <use x="59.179688" xlink:href="#DejaVuSans-32"/>
     <use x="122.802734" xlink:href="#DejaVuSans-2e"/>
     <use x="154.589844" xlink:href="#DejaVuSans-34"/>
    </g>
   </g>
   <g id="legend_1">
    <g id="patch_7">
     <path d="M 76.208 136.881 
L 205.429875 136.881 
Q 209.429875 136.881 209.429875 132.881 
L 209.429875 17.456 
Q 209.429875 13.456 205.429875 13.456 
L 76.208 13.456 
Q 72.208 13.456 72.208 17.456 
L 72.208 132.881 
Q 72.208 136.881 76.208 136.881 
z
" style="fill:#ffffff;opacity:0.2;stroke:#cccccc;stroke-linejoin:miter;"/>
    </g>
    <g id="line2d_103">
     <path d="M 80.208 29.652875 
L 120.208 29.652875 
" style="fill:none;stroke:#000000;stroke-linecap:square;stroke-width:1.5;"/>
    </g>
    <g id="line2d_104"/>
    <g id="text_14">
     <!-- 1: 1/4 -->
     <g transform="translate(136.208 36.652875)scale(0.2 -0.2)">
      <defs>
       <path d="M 750 794 
L 1409 794 
L 1409 0 
L 750 0 
L 750 794 
z
M 750 3309 
L 1409 3309 
L 1409 2516 
L 750 2516 
L 750 3309 
z
" id="DejaVuSans-3a" transform="scale(0.015625)"/>
      </defs>
      <use xlink:href="#DejaVuSans-31"/>
      <use x="63.623047" xlink:href="#DejaVuSans-3a"/>
      <use x="97.314453" xlink:href="#DejaVuSans-20"/>
      <use x="129.101562" xlink:href="#DejaVuSans-31"/>
      <use x="192.724609" xlink:href="#DejaVuSans-2f"/>
      <use x="226.416016" xlink:href="#DejaVuSans-34"/>
     </g>
    </g>
    <g id="line2d_105">
     <path d="M 80.208 59.009125 
L 120.208 59.009125 
" style="fill:none;stroke:#00bfbf;stroke-linecap:square;stroke-width:1.5;"/>
    </g>
    <g id="line2d_106"/>
    <g id="text_15">
     <!-- -1: 0/4 -->
     <g transform="translate(136.208 66.009125)scale(0.2 -0.2)">
      <use xlink:href="#DejaVuSans-2d"/>
      <use x="36.083984" xlink:href="#DejaVuSans-31"/>
      <use x="99.707031" xlink:href="#DejaVuSans-3a"/>
      <use x="133.398438" xlink:href="#DejaVuSans-20"/>
      <use x="165.185547" xlink:href="#DejaVuSans-30"/>
      <use x="228.808594" xlink:href="#DejaVuSans-2f"/>
      <use x="262.5" xlink:href="#DejaVuSans-34"/>
     </g>
    </g>
    <g id="line2d_107">
     <path d="M 80.208 88.365375 
L 120.208 88.365375 
" style="fill:none;stroke:#bf00bf;stroke-linecap:square;stroke-width:1.5;"/>
    </g>
    <g id="line2d_108"/>
    <g id="text_16">
     <!-- -4: 0/4 -->
     <g transform="translate(136.208 95.365375)scale(0.2 -0.2)">
      <use xlink:href="#DejaVuSans-2d"/>
      <use x="36.083984" xlink:href="#DejaVuSans-34"/>
      <use x="99.707031" xlink:href="#DejaVuSans-3a"/>
      <use x="133.398438" xlink:href="#DejaVuSans-20"/>
      <use x="165.185547" xlink:href="#DejaVuSans-30"/>
      <use x="228.808594" xlink:href="#DejaVuSans-2f"/>
      <use x="262.5" xlink:href="#DejaVuSans-34"/>
     </g>
    </g>
    <g id="line2d_109">
     <path d="M 80.208 117.721625 
L 120.208 117.721625 
" style="fill:none;stroke:#ff0000;stroke-linecap:square;stroke-width:3;"/>
    </g>
    <g id="line2d_110"/>
    <g id="text_17">
     <!-- -8: 0/4 -->
     <g transform="translate(136.208 124.721625)scale(0.2 -0.2)">
      <use xlink:href="#DejaVuSans-2d"/>
      <use x="36.083984" xlink:href="#DejaVuSans-38"/>
      <use x="99.707031" xlink:href="#DejaVuSans-3a"/>
      <use x="133.398438" xlink:href="#DejaVuSans-20"/>
      <use x="165.185547" xlink:href="#DejaVuSans-30"/>
      <use x="228.808594" xlink:href="#DejaVuSans-2f"/>
      <use x="262.5" xlink:href="#DejaVuSans-34"/>
     </g>
    </g>
   </g>
  </g>
 </g>
 <defs>
  <clipPath id="pf8482d08a9">
   <rect height="290.304" width="398.592" x="62.208" y="3.456"/>
  </clipPath>
 </defs>
</svg>
