<?xml version="1.0" encoding="utf-8" standalone="no"?>
<!DOCTYPE svg PUBLIC "-//W3C//DTD SVG 1.1//EN"
  "http://www.w3.org/Graphics/SVG/1.1/DTD/svg11.dtd">
<svg height="345.6pt" version="1.1" viewBox="0 0 460.8 345.6" width="460.8pt" xmlns="http://www.w3.org/2000/svg" xmlns:xlink="http://www.w3.org/1999/xlink">
 <metadata>
  <rdf:RDF xmlns:cc="http://creativecommons.org/ns#" xmlns:dc="http://purl.org/dc/elements/1.1/" xmlns:rdf="http://www.w3.org/1999/02/22-rdf-syntax-ns#">
   <cc:Work>
    <dc:type rdf:resource="http://purl.org/dc/dcmitype/StillImage"/>
    <dc:date>2021-04-26T19:00:20.342076</dc:date>
    <dc:format>image/svg+xml</dc:format>
    <dc:creator>
     <cc:Agent>
      <dc:title>Matplotlib v3.4.1, https://matplotlib.org/</dc:title>
     </cc:Agent>
    </dc:creator>
   </cc:Work>
  </rdf:RDF>
 </metadata>
 <defs>
  <style type="text/css">*{stroke-linecap:butt;stroke-linejoin:round;}</style>
 </defs>
 <g id="figure_1">
  <g id="patch_1">
   <path d="M 0 345.6 
L 460.8 345.6 
L 460.8 0 
L 0 0 
z
" style="fill:#ffffff;"/>
  </g>
  <g id="axes_1">
   <g id="patch_2">
    <path d="M 62.208 293.76 
L 460.8 293.76 
L 460.8 3.456 
L 62.208 3.456 
z
" style="fill:#ffffff;"/>
   </g>
   <g id="line2d_1"/>
   <g id="line2d_2"/>
   <g id="line2d_3"/>
   <g id="line2d_4">
    <path clip-path="url(#pc43dd87e7d)" d="M 403.159123 293.76 
L 403.184355 286.095208 
L 404.316282 286.095208 
L 404.316282 282.262812 
L 405.127019 282.262812 
L 405.127019 278.430416 
L 405.66143 278.430416 
L 405.66143 274.59802 
L 406.160559 274.59802 
L 406.205152 266.933228 
L 406.344626 266.933228 
L 406.344626 263.100832 
L 407.214346 263.100832 
L 407.275489 251.603644 
L 409.255892 251.603644 
L 409.255892 247.771248 
L 409.923223 247.771248 
L 409.923223 243.938851 
L 411.000149 243.938851 
L 411.000149 240.106455 
L 411.186427 240.106455 
L 411.186427 236.274059 
L 412.311103 236.274059 
L 412.311103 232.441663 
L 413.059447 232.441663 
L 413.059447 228.609267 
L 414.146489 228.609267 
L 414.146489 224.776871 
L 414.395058 224.776871 
L 414.395058 220.944475 
L 415.046209 220.944475 
L 415.046209 217.112079 
L 415.632374 217.112079 
L 415.632374 213.279683 
L 418.053309 213.279683 
L 418.100385 205.614891 
L 419.946343 205.614891 
L 419.946343 201.782495 
L 421.453122 201.782495 
L 421.453122 197.950099 
L 423.170684 197.950099 
L 423.253679 190.285307 
L 424.126458 190.285307 
L 424.126458 186.452911 
L 424.553157 186.452911 
L 424.553157 182.620515 
L 428.436932 182.620515 
L 428.436932 178.788119 
L 431.379082 178.788119 
L 431.379082 174.955723 
L 432.316683 174.955723 
L 432.316683 171.123327 
L 432.556383 171.123327 
L 432.556383 167.290931 
L 433.904132 167.290931 
L 433.904132 163.458535 
L 434.45491 163.458535 
L 434.45491 159.626139 
L 435.93664 159.626139 
L 435.93664 155.793743 
L 436.232498 155.793743 
L 436.242386 148.12895 
L 436.557771 148.12895 
L 436.557771 144.296554 
L 437.071006 144.296554 
L 437.071006 140.464158 
L 437.182742 140.464158 
L 437.182742 136.631762 
L 437.644886 136.631762 
L 437.644886 132.799366 
L 438.169554 132.799366 
L 438.226637 125.134574 
L 438.787715 125.134574 
L 438.787715 121.302178 
L 439.727279 121.302178 
L 439.727279 117.469782 
L 441.860854 117.469782 
L 441.860854 113.637386 
L 445.049604 113.637386 
L 445.049604 109.80499 
L 454.938513 109.80499 
L 454.938513 105.972594 
L 455.65263 105.972594 
L 455.65263 102.140198 
L 455.795383 102.140198 
L 455.795383 98.307802 
L 456.296891 98.307802 
L 456.296891 94.475406 
L 460.033227 94.475406 
L 460.033227 90.64301 
L 461.8 90.64301 
L 461.8 90.64301 
" style="fill:none;stroke:#f5deb3;stroke-linecap:square;stroke-width:1.5;"/>
   </g>
   <g id="line2d_5"/>
   <g id="line2d_6"/>
   <g id="line2d_7">
    <path clip-path="url(#pc43dd87e7d)" d="M 401.92984 293.76 
L 401.987979 286.095208 
L 402.091173 286.095208 
L 402.091173 282.262812 
L 402.373885 282.262812 
L 402.373885 278.430416 
L 402.82362 278.430416 
L 402.82362 274.59802 
L 403.108623 274.59802 
L 403.108623 270.765624 
L 403.476758 270.765624 
L 403.476758 266.933228 
L 403.723832 266.933228 
L 403.77996 259.268436 
L 404.374841 259.268436 
L 404.424103 251.603644 
L 404.491759 251.603644 
L 404.590008 243.938851 
L 406.666625 243.938851 
L 406.666625 240.106455 
L 416.29969 240.106455 
L 416.29969 236.274059 
L 416.525863 236.274059 
L 416.525863 232.441663 
L 416.770359 232.441663 
L 416.770359 228.609267 
L 417.372933 228.609267 
L 417.372933 224.776871 
L 417.542097 224.776871 
L 417.587271 217.112079 
L 418.140366 217.112079 
L 418.140366 213.279683 
L 419.256462 213.279683 
L 419.256462 209.447287 
L 419.930458 209.447287 
L 419.930458 205.614891 
L 421.325197 205.614891 
L 421.424477 197.950099 
L 422.268223 197.950099 
L 422.268223 194.117703 
L 422.976503 194.117703 
L 422.976503 190.285307 
L 423.285564 190.285307 
L 423.285564 186.452911 
L 425.160982 186.452911 
L 425.160982 182.620515 
L 425.81424 182.620515 
L 425.864767 174.955723 
L 427.553523 174.955723 
L 427.553523 171.123327 
L 427.869123 171.123327 
L 427.869123 167.290931 
L 428.647761 167.290931 
L 428.647761 163.458535 
L 429.307168 163.458535 
L 429.307168 159.626139 
L 431.035305 159.626139 
L 431.035305 155.793743 
L 431.230215 155.793743 
L 431.230215 151.961347 
L 431.770949 151.961347 
L 431.770949 148.12895 
L 433.943794 148.12895 
L 433.943794 144.296554 
L 434.947428 144.296554 
L 434.947428 140.464158 
L 435.393361 140.464158 
L 435.393361 136.631762 
L 437.59517 136.631762 
L 437.59517 132.799366 
L 438.193346 132.799366 
L 438.266241 125.134574 
L 440.237127 125.134574 
L 440.237127 121.302178 
L 441.299985 121.302178 
L 441.299985 117.469782 
L 453.450146 117.469782 
L 453.450146 113.637386 
L 461.8 113.637386 
L 461.8 113.637386 
" style="fill:none;stroke:#f5deb3;stroke-linecap:square;stroke-width:1.5;"/>
   </g>
   <g id="line2d_8"/>
   <g id="line2d_9">
    <path clip-path="url(#pc43dd87e7d)" d="M 399.700294 293.76 
L 399.700294 289.927604 
L 400.137344 289.927604 
L 400.137344 286.095208 
L 400.367802 286.095208 
L 400.367802 282.262812 
L 400.60054 282.262812 
L 400.60054 278.430416 
L 401.059561 278.430416 
L 401.059561 274.59802 
L 401.328423 274.59802 
L 401.328423 270.765624 
L 401.806884 270.765624 
L 401.806884 266.933228 
L 401.984751 266.933228 
L 401.984751 263.100832 
L 402.190944 263.100832 
L 402.232725 255.43604 
L 402.357864 255.43604 
L 402.460313 243.938851 
L 402.469907 243.938851 
L 402.469907 240.106455 
L 403.023289 240.106455 
L 403.023289 236.274059 
L 406.539841 236.274059 
L 406.539841 232.441663 
L 411.471273 232.441663 
L 411.471273 228.609267 
L 412.08391 228.609267 
L 412.179137 217.112079 
L 412.474268 217.112079 
L 412.474268 213.279683 
L 412.594988 213.279683 
L 412.594988 209.447287 
L 412.827747 209.447287 
L 412.890332 197.950099 
L 413.023069 197.950099 
L 413.023069 194.117703 
L 413.199517 194.117703 
L 413.199517 190.285307 
L 413.96054 190.285307 
L 413.96054 186.452911 
L 414.237941 186.452911 
L 414.237941 182.620515 
L 414.758115 182.620515 
L 414.758115 178.788119 
L 414.93367 178.788119 
L 414.93367 174.955723 
L 415.36 174.955723 
L 415.36 171.123327 
L 416.642205 171.123327 
L 416.642205 167.290931 
L 416.888554 167.290931 
L 416.888554 163.458535 
L 418.112147 163.458535 
L 418.112147 159.626139 
L 419.307035 159.626139 
L 419.307035 155.793743 
L 420.120755 155.793743 
L 420.120755 151.961347 
L 420.326111 151.961347 
L 420.326111 148.12895 
L 420.72095 148.12895 
L 420.794642 140.464158 
L 420.903868 140.464158 
L 420.903868 136.631762 
L 421.371552 136.631762 
L 421.371552 132.799366 
L 421.760589 132.799366 
L 421.841539 125.134574 
L 421.883058 125.134574 
L 421.883058 121.302178 
L 422.224847 121.302178 
L 422.283396 113.637386 
L 422.521234 113.637386 
L 422.521234 109.80499 
L 422.781579 109.80499 
L 422.781579 105.972594 
L 423.061949 105.972594 
L 423.061949 102.140198 
L 428.18278 102.140198 
L 428.232941 94.475406 
L 432.893599 94.475406 
L 432.893599 90.64301 
L 433.455352 90.64301 
L 433.455352 86.810614 
L 438.831583 86.810614 
L 438.831583 82.978218 
L 441.964044 82.978218 
L 442.062616 75.313426 
L 447.047463 75.313426 
L 447.047463 71.48103 
L 448.978892 71.48103 
L 448.978892 67.648634 
L 453.856368 67.648634 
L 453.856368 63.816238 
L 457.840429 63.816238 
L 457.840429 59.983842 
L 461.8 59.983842 
L 461.8 59.983842 
" style="fill:none;stroke:#f5deb3;stroke-linecap:square;stroke-width:1.5;"/>
   </g>
   <g id="line2d_10"/>
   <g id="line2d_11">
    <path clip-path="url(#pc43dd87e7d)" style="fill:none;stroke:#f5deb3;stroke-linecap:square;stroke-width:1.5;"/>
   </g>
   <g id="line2d_12">
    <path clip-path="url(#pc43dd87e7d)" style="fill:none;stroke:#f5deb3;stroke-linecap:square;stroke-width:1.5;"/>
   </g>
   <g id="line2d_13"/>
   <g id="line2d_14"/>
   <g id="line2d_15"/>
   <g id="line2d_16">
    <path clip-path="url(#pc43dd87e7d)" style="fill:none;stroke:#f5deb3;stroke-linecap:square;stroke-width:1.5;"/>
   </g>
   <g id="line2d_17">
    <path clip-path="url(#pc43dd87e7d)" style="fill:none;stroke:#f5deb3;stroke-linecap:square;stroke-width:1.5;"/>
   </g>
   <g id="line2d_18">
    <path clip-path="url(#pc43dd87e7d)" d="M 371.304389 293.76 
L 371.304389 289.927604 
L 378.990029 289.927604 
L 378.990029 286.095208 
L 380.895848 286.095208 
L 380.895848 282.262812 
L 382.069066 282.262812 
L 382.069066 278.430416 
L 382.473153 278.430416 
L 382.473153 274.59802 
L 384.787359 274.59802 
L 384.787359 270.765624 
L 391.310463 270.765624 
L 391.310463 266.933228 
L 397.060237 266.933228 
L 397.060237 263.100832 
L 397.358069 263.100832 
L 397.358069 259.268436 
L 397.425195 259.268436 
L 397.425195 255.43604 
L 403.658271 255.43604 
L 403.658271 251.603644 
L 409.501596 251.603644 
L 409.501596 247.771248 
L 413.088011 247.771248 
L 413.088011 243.938851 
L 417.020897 243.938851 
L 417.020897 240.106455 
L 426.684348 240.106455 
L 426.684348 236.274059 
L 461.8 236.274059 
" style="fill:none;stroke:#f5deb3;stroke-linecap:square;stroke-width:1.5;"/>
   </g>
   <g id="line2d_19"/>
   <g id="line2d_20"/>
   <g id="line2d_21"/>
   <g id="line2d_22"/>
   <g id="line2d_23"/>
   <g id="line2d_24">
    <path clip-path="url(#pc43dd87e7d)" d="M 425.593356 293.76 
L 425.593356 289.927604 
L 427.275268 289.927604 
L 427.275268 286.095208 
L 428.419644 286.095208 
L 428.419644 282.262812 
L 429.280729 282.262812 
L 429.280729 278.430416 
L 430.038241 278.430416 
L 430.038241 274.59802 
L 432.636033 274.59802 
L 432.636033 270.765624 
L 433.44839 270.765624 
L 433.44839 266.933228 
L 433.948965 266.933228 
L 434.02819 259.268436 
L 434.967706 259.268436 
L 434.967706 255.43604 
L 435.996281 255.43604 
L 435.996281 251.603644 
L 437.465036 251.603644 
L 437.530948 243.938851 
L 438.225053 243.938851 
L 438.244067 236.274059 
L 439.164067 236.274059 
L 439.164067 232.441663 
L 440.43479 232.441663 
L 440.512126 224.776871 
L 440.791676 224.776871 
L 440.812769 217.112079 
L 442.111097 217.112079 
L 442.111097 213.279683 
L 442.488544 213.279683 
L 442.488544 209.447287 
L 443.26387 209.447287 
L 443.304049 201.782495 
L 443.415811 201.782495 
L 443.415811 197.950099 
L 443.84907 197.950099 
L 443.84907 194.117703 
L 444.955262 194.117703 
L 444.955262 190.285307 
L 445.074547 190.285307 
L 445.158987 182.620515 
L 445.684618 182.620515 
L 445.684618 178.788119 
L 445.927705 178.788119 
L 445.927705 174.955723 
L 447.705584 174.955723 
L 447.705584 171.123327 
L 448.409839 171.123327 
L 448.409839 167.290931 
L 448.901842 167.290931 
L 448.901842 163.458535 
L 449.13648 163.458535 
L 449.13648 159.626139 
L 449.294857 159.626139 
L 449.294857 155.793743 
L 449.77211 155.793743 
L 449.77211 151.961347 
L 452.156244 151.961347 
L 452.17553 144.296554 
L 452.889961 144.296554 
L 452.889961 140.464158 
L 454.033295 140.464158 
L 454.033295 136.631762 
L 455.246924 136.631762 
L 455.322887 128.96697 
L 455.909745 128.96697 
L 455.909745 125.134574 
L 456.538615 125.134574 
L 456.538615 121.302178 
L 461.8 121.302178 
L 461.8 121.302178 
" style="fill:none;stroke:#f5deb3;stroke-linecap:square;stroke-width:1.5;"/>
   </g>
   <g id="line2d_25"/>
   <g id="line2d_26">
    <path clip-path="url(#pc43dd87e7d)" d="M 432.052598 293.76 
L 432.052598 289.927604 
L 453.556991 289.927604 
L 453.556991 286.095208 
L 453.665953 286.095208 
L 453.665953 282.262812 
L 459.913275 282.262812 
L 459.913275 278.430416 
L 461.8 278.430416 
" style="fill:none;stroke:#f5deb3;stroke-linecap:square;stroke-width:1.5;"/>
   </g>
   <g id="line2d_27">
    <path clip-path="url(#pc43dd87e7d)" d="M 393.435141 293.76 
L 393.435141 289.927604 
L 393.743488 289.927604 
L 393.743488 286.095208 
L 394.264559 286.095208 
L 394.264559 282.262812 
L 395.283614 282.262812 
L 395.283614 278.430416 
L 396.380076 278.430416 
L 396.380076 274.59802 
L 401.589367 274.59802 
L 401.589367 270.765624 
L 404.325532 270.765624 
L 404.325532 266.933228 
L 406.089128 266.933228 
L 406.089128 263.100832 
L 410.519167 263.100832 
L 410.519167 259.268436 
L 410.883718 259.268436 
L 410.883718 255.43604 
L 418.424029 255.43604 
L 418.424029 251.603644 
L 419.492804 251.603644 
L 419.492804 247.771248 
L 422.261719 247.771248 
L 422.261719 243.938851 
L 424.52413 243.938851 
L 424.52413 240.106455 
L 426.40329 240.106455 
L 426.40329 236.274059 
L 461.8 236.274059 
" style="fill:none;stroke:#f5deb3;stroke-linecap:square;stroke-width:1.5;"/>
   </g>
   <g id="line2d_28">
    <path clip-path="url(#pc43dd87e7d)" d="M 400.013334 293.76 
L 400.103858 286.095208 
L 400.281085 286.095208 
L 400.281085 282.262812 
L 400.70327 282.262812 
L 400.776051 274.59802 
L 401.135117 274.59802 
L 401.135117 270.765624 
L 401.334963 270.765624 
L 401.334963 266.933228 
L 402.171649 266.933228 
L 402.171649 263.100832 
L 402.325806 263.100832 
L 402.393104 255.43604 
L 403.310325 255.43604 
L 403.310325 251.603644 
L 403.798655 251.603644 
L 403.798655 247.771248 
L 404.497905 247.771248 
L 404.596143 236.274059 
L 404.801216 236.274059 
L 404.801216 232.441663 
L 405.190717 232.441663 
L 405.190717 228.609267 
L 405.901144 228.609267 
L 405.901144 224.776871 
L 406.528031 224.776871 
L 406.528031 220.944475 
L 406.737251 220.944475 
L 406.737251 217.112079 
L 407.773533 217.112079 
L 407.773533 213.279683 
L 408.175353 213.279683 
L 408.175353 209.447287 
L 408.831503 209.447287 
L 408.831503 205.614891 
L 409.283872 205.614891 
L 409.283872 201.782495 
L 410.028087 201.782495 
L 410.028087 197.950099 
L 411.658509 197.950099 
L 411.711879 190.285307 
L 412.205558 190.285307 
L 412.205558 186.452911 
L 412.387487 186.452911 
L 412.387487 182.620515 
L 413.30561 182.620515 
L 413.30561 178.788119 
L 414.559258 178.788119 
L 414.614714 171.123327 
L 415.414592 171.123327 
L 415.518649 155.793743 
L 416.784847 155.793743 
L 416.784847 151.961347 
L 417.107335 151.961347 
L 417.107335 148.12895 
L 417.615782 148.12895 
L 417.615782 144.296554 
L 418.036822 144.296554 
L 418.036822 140.464158 
L 418.603723 140.464158 
L 418.620027 132.799366 
L 420.061929 132.799366 
L 420.061929 128.96697 
L 420.765625 128.96697 
L 420.765625 125.134574 
L 422.609599 125.134574 
L 422.609599 121.302178 
L 432.949878 121.302178 
L 432.949878 117.469782 
L 433.545772 117.469782 
L 433.545772 113.637386 
L 434.896698 113.637386 
L 434.896698 109.80499 
L 435.510505 109.80499 
L 435.510505 105.972594 
L 435.767279 105.972594 
L 435.767279 102.140198 
L 436.789774 102.140198 
L 436.789774 98.307802 
L 437.15038 98.307802 
L 437.15038 94.475406 
L 437.772963 94.475406 
L 437.772963 90.64301 
L 438.668452 90.64301 
L 438.668452 86.810614 
L 439.009802 86.810614 
L 439.009802 82.978218 
L 440.580266 82.978218 
L 440.580266 79.145822 
L 443.204978 79.145822 
L 443.204978 75.313426 
L 443.400065 75.313426 
L 443.400065 71.48103 
L 448.128782 71.48103 
L 448.128782 67.648634 
L 449.363674 67.648634 
L 449.363674 63.816238 
L 454.567316 63.816238 
L 454.567316 59.983842 
L 456.311338 59.983842 
L 456.311338 56.151446 
L 461.8 56.151446 
L 461.8 56.151446 
" style="fill:none;stroke:#f5deb3;stroke-linecap:square;stroke-width:1.5;"/>
   </g>
   <g id="line2d_29"/>
   <g id="line2d_30"/>
   <g id="matplotlib.axis_1">
    <g id="xtick_1">
     <g id="line2d_31">
      <path clip-path="url(#pc43dd87e7d)" d="M 62.208 293.76 
L 62.208 3.456 
" style="fill:none;stroke:#b0b0b0;stroke-linecap:square;stroke-width:0.8;"/>
     </g>
     <g id="line2d_32">
      <defs>
       <path d="M 0 0 
L 0 3.5 
" id="m2aa500a00f" style="stroke:#000000;stroke-width:0.8;"/>
      </defs>
      <g>
       <use style="stroke:#000000;stroke-width:0.8;" x="62.208" xlink:href="#m2aa500a00f" y="293.76"/>
      </g>
     </g>
     <g id="text_1">
      <!-- 0 -->
      <g transform="translate(55.8455 315.956875)scale(0.2 -0.2)">
       <defs>
        <path d="M 2034 4250 
Q 1547 4250 1301 3770 
Q 1056 3291 1056 2328 
Q 1056 1369 1301 889 
Q 1547 409 2034 409 
Q 2525 409 2770 889 
Q 3016 1369 3016 2328 
Q 3016 3291 2770 3770 
Q 2525 4250 2034 4250 
z
M 2034 4750 
Q 2819 4750 3233 4129 
Q 3647 3509 3647 2328 
Q 3647 1150 3233 529 
Q 2819 -91 2034 -91 
Q 1250 -91 836 529 
Q 422 1150 422 2328 
Q 422 3509 836 4129 
Q 1250 4750 2034 4750 
z
" id="DejaVuSans-30" transform="scale(0.015625)"/>
       </defs>
       <use xlink:href="#DejaVuSans-30"/>
      </g>
     </g>
    </g>
    <g id="xtick_2">
     <g id="line2d_33">
      <path clip-path="url(#pc43dd87e7d)" d="M 296.777676 293.76 
L 296.777676 3.456 
" style="fill:none;stroke:#b0b0b0;stroke-linecap:square;stroke-width:0.8;"/>
     </g>
     <g id="line2d_34">
      <g>
       <use style="stroke:#000000;stroke-width:0.8;" x="296.777676" xlink:href="#m2aa500a00f" y="293.76"/>
      </g>
     </g>
     <g id="text_2">
      <!-- 2 -->
      <g transform="translate(290.415176 315.956875)scale(0.2 -0.2)">
       <defs>
        <path d="M 1228 531 
L 3431 531 
L 3431 0 
L 469 0 
L 469 531 
Q 828 903 1448 1529 
Q 2069 2156 2228 2338 
Q 2531 2678 2651 2914 
Q 2772 3150 2772 3378 
Q 2772 3750 2511 3984 
Q 2250 4219 1831 4219 
Q 1534 4219 1204 4116 
Q 875 4013 500 3803 
L 500 4441 
Q 881 4594 1212 4672 
Q 1544 4750 1819 4750 
Q 2544 4750 2975 4387 
Q 3406 4025 3406 3419 
Q 3406 3131 3298 2873 
Q 3191 2616 2906 2266 
Q 2828 2175 2409 1742 
Q 1991 1309 1228 531 
z
" id="DejaVuSans-32" transform="scale(0.015625)"/>
       </defs>
       <use xlink:href="#DejaVuSans-32"/>
      </g>
     </g>
    </g>
    <g id="xtick_3">
     <g id="line2d_35">
      <path clip-path="url(#pc43dd87e7d)" d="M 97.514254 293.76 
L 97.514254 3.456 
" style="fill:none;stroke:#b0b0b0;stroke-linecap:square;stroke-width:0.8;"/>
     </g>
     <g id="line2d_36">
      <defs>
       <path d="M 0 0 
L 0 2 
" id="m82b0d590d3" style="stroke:#000000;stroke-width:0.6;"/>
      </defs>
      <g>
       <use style="stroke:#000000;stroke-width:0.6;" x="97.514254" xlink:href="#m82b0d590d3" y="293.76"/>
      </g>
     </g>
    </g>
    <g id="xtick_4">
     <g id="line2d_37">
      <path clip-path="url(#pc43dd87e7d)" d="M 118.167089 293.76 
L 118.167089 3.456 
" style="fill:none;stroke:#b0b0b0;stroke-linecap:square;stroke-width:0.8;"/>
     </g>
     <g id="line2d_38">
      <g>
       <use style="stroke:#000000;stroke-width:0.6;" x="118.167089" xlink:href="#m82b0d590d3" y="293.76"/>
      </g>
     </g>
    </g>
    <g id="xtick_5">
     <g id="line2d_39">
      <path clip-path="url(#pc43dd87e7d)" d="M 132.820509 293.76 
L 132.820509 3.456 
" style="fill:none;stroke:#b0b0b0;stroke-linecap:square;stroke-width:0.8;"/>
     </g>
     <g id="line2d_40">
      <g>
       <use style="stroke:#000000;stroke-width:0.6;" x="132.820509" xlink:href="#m82b0d590d3" y="293.76"/>
      </g>
     </g>
    </g>
    <g id="xtick_6">
     <g id="line2d_41">
      <path clip-path="url(#pc43dd87e7d)" d="M 144.186584 293.76 
L 144.186584 3.456 
" style="fill:none;stroke:#b0b0b0;stroke-linecap:square;stroke-width:0.8;"/>
     </g>
     <g id="line2d_42">
      <g>
       <use style="stroke:#000000;stroke-width:0.6;" x="144.186584" xlink:href="#m82b0d590d3" y="293.76"/>
      </g>
     </g>
    </g>
    <g id="xtick_7">
     <g id="line2d_43">
      <path clip-path="url(#pc43dd87e7d)" d="M 153.473343 293.76 
L 153.473343 3.456 
" style="fill:none;stroke:#b0b0b0;stroke-linecap:square;stroke-width:0.8;"/>
     </g>
     <g id="line2d_44">
      <g>
       <use style="stroke:#000000;stroke-width:0.6;" x="153.473343" xlink:href="#m82b0d590d3" y="293.76"/>
      </g>
     </g>
    </g>
    <g id="xtick_8">
     <g id="line2d_45">
      <path clip-path="url(#pc43dd87e7d)" d="M 161.325187 293.76 
L 161.325187 3.456 
" style="fill:none;stroke:#b0b0b0;stroke-linecap:square;stroke-width:0.8;"/>
     </g>
     <g id="line2d_46">
      <g>
       <use style="stroke:#000000;stroke-width:0.6;" x="161.325187" xlink:href="#m82b0d590d3" y="293.76"/>
      </g>
     </g>
    </g>
    <g id="xtick_9">
     <g id="line2d_47">
      <path clip-path="url(#pc43dd87e7d)" d="M 168.126763 293.76 
L 168.126763 3.456 
" style="fill:none;stroke:#b0b0b0;stroke-linecap:square;stroke-width:0.8;"/>
     </g>
     <g id="line2d_48">
      <g>
       <use style="stroke:#000000;stroke-width:0.6;" x="168.126763" xlink:href="#m82b0d590d3" y="293.76"/>
      </g>
     </g>
    </g>
    <g id="xtick_10">
     <g id="line2d_49">
      <path clip-path="url(#pc43dd87e7d)" d="M 174.126178 293.76 
L 174.126178 3.456 
" style="fill:none;stroke:#b0b0b0;stroke-linecap:square;stroke-width:0.8;"/>
     </g>
     <g id="line2d_50">
      <g>
       <use style="stroke:#000000;stroke-width:0.6;" x="174.126178" xlink:href="#m82b0d590d3" y="293.76"/>
      </g>
     </g>
    </g>
    <g id="xtick_11">
     <g id="line2d_51">
      <path clip-path="url(#pc43dd87e7d)" d="M 214.799092 293.76 
L 214.799092 3.456 
" style="fill:none;stroke:#b0b0b0;stroke-linecap:square;stroke-width:0.8;"/>
     </g>
     <g id="line2d_52">
      <g>
       <use style="stroke:#000000;stroke-width:0.6;" x="214.799092" xlink:href="#m82b0d590d3" y="293.76"/>
      </g>
     </g>
    </g>
    <g id="xtick_12">
     <g id="line2d_53">
      <path clip-path="url(#pc43dd87e7d)" d="M 235.451927 293.76 
L 235.451927 3.456 
" style="fill:none;stroke:#b0b0b0;stroke-linecap:square;stroke-width:0.8;"/>
     </g>
     <g id="line2d_54">
      <g>
       <use style="stroke:#000000;stroke-width:0.6;" x="235.451927" xlink:href="#m82b0d590d3" y="293.76"/>
      </g>
     </g>
    </g>
    <g id="xtick_13">
     <g id="line2d_55">
      <path clip-path="url(#pc43dd87e7d)" d="M 250.105347 293.76 
L 250.105347 3.456 
" style="fill:none;stroke:#b0b0b0;stroke-linecap:square;stroke-width:0.8;"/>
     </g>
     <g id="line2d_56">
      <g>
       <use style="stroke:#000000;stroke-width:0.6;" x="250.105347" xlink:href="#m82b0d590d3" y="293.76"/>
      </g>
     </g>
    </g>
    <g id="xtick_14">
     <g id="line2d_57">
      <path clip-path="url(#pc43dd87e7d)" d="M 261.471422 293.76 
L 261.471422 3.456 
" style="fill:none;stroke:#b0b0b0;stroke-linecap:square;stroke-width:0.8;"/>
     </g>
     <g id="line2d_58">
      <g>
       <use style="stroke:#000000;stroke-width:0.6;" x="261.471422" xlink:href="#m82b0d590d3" y="293.76"/>
      </g>
     </g>
    </g>
    <g id="xtick_15">
     <g id="line2d_59">
      <path clip-path="url(#pc43dd87e7d)" d="M 270.758181 293.76 
L 270.758181 3.456 
" style="fill:none;stroke:#b0b0b0;stroke-linecap:square;stroke-width:0.8;"/>
     </g>
     <g id="line2d_60">
      <g>
       <use style="stroke:#000000;stroke-width:0.6;" x="270.758181" xlink:href="#m82b0d590d3" y="293.76"/>
      </g>
     </g>
    </g>
    <g id="xtick_16">
     <g id="line2d_61">
      <path clip-path="url(#pc43dd87e7d)" d="M 278.610025 293.76 
L 278.610025 3.456 
" style="fill:none;stroke:#b0b0b0;stroke-linecap:square;stroke-width:0.8;"/>
     </g>
     <g id="line2d_62">
      <g>
       <use style="stroke:#000000;stroke-width:0.6;" x="278.610025" xlink:href="#m82b0d590d3" y="293.76"/>
      </g>
     </g>
    </g>
    <g id="xtick_17">
     <g id="line2d_63">
      <path clip-path="url(#pc43dd87e7d)" d="M 285.411601 293.76 
L 285.411601 3.456 
" style="fill:none;stroke:#b0b0b0;stroke-linecap:square;stroke-width:0.8;"/>
     </g>
     <g id="line2d_64">
      <g>
       <use style="stroke:#000000;stroke-width:0.6;" x="285.411601" xlink:href="#m82b0d590d3" y="293.76"/>
      </g>
     </g>
    </g>
    <g id="xtick_18">
     <g id="line2d_65">
      <path clip-path="url(#pc43dd87e7d)" d="M 291.411016 293.76 
L 291.411016 3.456 
" style="fill:none;stroke:#b0b0b0;stroke-linecap:square;stroke-width:0.8;"/>
     </g>
     <g id="line2d_66">
      <g>
       <use style="stroke:#000000;stroke-width:0.6;" x="291.411016" xlink:href="#m82b0d590d3" y="293.76"/>
      </g>
     </g>
    </g>
    <g id="xtick_19">
     <g id="line2d_67">
      <path clip-path="url(#pc43dd87e7d)" d="M 332.08393 293.76 
L 332.08393 3.456 
" style="fill:none;stroke:#b0b0b0;stroke-linecap:square;stroke-width:0.8;"/>
     </g>
     <g id="line2d_68">
      <g>
       <use style="stroke:#000000;stroke-width:0.6;" x="332.08393" xlink:href="#m82b0d590d3" y="293.76"/>
      </g>
     </g>
    </g>
    <g id="xtick_20">
     <g id="line2d_69">
      <path clip-path="url(#pc43dd87e7d)" d="M 352.736765 293.76 
L 352.736765 3.456 
" style="fill:none;stroke:#b0b0b0;stroke-linecap:square;stroke-width:0.8;"/>
     </g>
     <g id="line2d_70">
      <g>
       <use style="stroke:#000000;stroke-width:0.6;" x="352.736765" xlink:href="#m82b0d590d3" y="293.76"/>
      </g>
     </g>
    </g>
    <g id="xtick_21">
     <g id="line2d_71">
      <path clip-path="url(#pc43dd87e7d)" d="M 367.390185 293.76 
L 367.390185 3.456 
" style="fill:none;stroke:#b0b0b0;stroke-linecap:square;stroke-width:0.8;"/>
     </g>
     <g id="line2d_72">
      <g>
       <use style="stroke:#000000;stroke-width:0.6;" x="367.390185" xlink:href="#m82b0d590d3" y="293.76"/>
      </g>
     </g>
    </g>
    <g id="xtick_22">
     <g id="line2d_73">
      <path clip-path="url(#pc43dd87e7d)" d="M 378.75626 293.76 
L 378.75626 3.456 
" style="fill:none;stroke:#b0b0b0;stroke-linecap:square;stroke-width:0.8;"/>
     </g>
     <g id="line2d_74">
      <g>
       <use style="stroke:#000000;stroke-width:0.6;" x="378.75626" xlink:href="#m82b0d590d3" y="293.76"/>
      </g>
     </g>
    </g>
    <g id="xtick_23">
     <g id="line2d_75">
      <path clip-path="url(#pc43dd87e7d)" d="M 388.043019 293.76 
L 388.043019 3.456 
" style="fill:none;stroke:#b0b0b0;stroke-linecap:square;stroke-width:0.8;"/>
     </g>
     <g id="line2d_76">
      <g>
       <use style="stroke:#000000;stroke-width:0.6;" x="388.043019" xlink:href="#m82b0d590d3" y="293.76"/>
      </g>
     </g>
    </g>
    <g id="xtick_24">
     <g id="line2d_77">
      <path clip-path="url(#pc43dd87e7d)" d="M 395.894863 293.76 
L 395.894863 3.456 
" style="fill:none;stroke:#b0b0b0;stroke-linecap:square;stroke-width:0.8;"/>
     </g>
     <g id="line2d_78">
      <g>
       <use style="stroke:#000000;stroke-width:0.6;" x="395.894863" xlink:href="#m82b0d590d3" y="293.76"/>
      </g>
     </g>
    </g>
    <g id="xtick_25">
     <g id="line2d_79">
      <path clip-path="url(#pc43dd87e7d)" d="M 402.696439 293.76 
L 402.696439 3.456 
" style="fill:none;stroke:#b0b0b0;stroke-linecap:square;stroke-width:0.8;"/>
     </g>
     <g id="line2d_80">
      <g>
       <use style="stroke:#000000;stroke-width:0.6;" x="402.696439" xlink:href="#m82b0d590d3" y="293.76"/>
      </g>
     </g>
    </g>
    <g id="xtick_26">
     <g id="line2d_81">
      <path clip-path="url(#pc43dd87e7d)" d="M 408.695854 293.76 
L 408.695854 3.456 
" style="fill:none;stroke:#b0b0b0;stroke-linecap:square;stroke-width:0.8;"/>
     </g>
     <g id="line2d_82">
      <g>
       <use style="stroke:#000000;stroke-width:0.6;" x="408.695854" xlink:href="#m82b0d590d3" y="293.76"/>
      </g>
     </g>
    </g>
    <g id="xtick_27">
     <g id="line2d_83">
      <path clip-path="url(#pc43dd87e7d)" d="M 449.368768 293.76 
L 449.368768 3.456 
" style="fill:none;stroke:#b0b0b0;stroke-linecap:square;stroke-width:0.8;"/>
     </g>
     <g id="line2d_84">
      <g>
       <use style="stroke:#000000;stroke-width:0.6;" x="449.368768" xlink:href="#m82b0d590d3" y="293.76"/>
      </g>
     </g>
    </g>
    <g id="text_3">
     <!-- log10 of FEvals / DIM -->
     <g transform="translate(156.430563 339.313125)scale(0.2 -0.2)">
      <defs>
       <path d="M 603 4863 
L 1178 4863 
L 1178 0 
L 603 0 
L 603 4863 
z
" id="DejaVuSans-6c" transform="scale(0.015625)"/>
       <path d="M 1959 3097 
Q 1497 3097 1228 2736 
Q 959 2375 959 1747 
Q 959 1119 1226 758 
Q 1494 397 1959 397 
Q 2419 397 2687 759 
Q 2956 1122 2956 1747 
Q 2956 2369 2687 2733 
Q 2419 3097 1959 3097 
z
M 1959 3584 
Q 2709 3584 3137 3096 
Q 3566 2609 3566 1747 
Q 3566 888 3137 398 
Q 2709 -91 1959 -91 
Q 1206 -91 779 398 
Q 353 888 353 1747 
Q 353 2609 779 3096 
Q 1206 3584 1959 3584 
z
" id="DejaVuSans-6f" transform="scale(0.015625)"/>
       <path d="M 2906 1791 
Q 2906 2416 2648 2759 
Q 2391 3103 1925 3103 
Q 1463 3103 1205 2759 
Q 947 2416 947 1791 
Q 947 1169 1205 825 
Q 1463 481 1925 481 
Q 2391 481 2648 825 
Q 2906 1169 2906 1791 
z
M 3481 434 
Q 3481 -459 3084 -895 
Q 2688 -1331 1869 -1331 
Q 1566 -1331 1297 -1286 
Q 1028 -1241 775 -1147 
L 775 -588 
Q 1028 -725 1275 -790 
Q 1522 -856 1778 -856 
Q 2344 -856 2625 -561 
Q 2906 -266 2906 331 
L 2906 616 
Q 2728 306 2450 153 
Q 2172 0 1784 0 
Q 1141 0 747 490 
Q 353 981 353 1791 
Q 353 2603 747 3093 
Q 1141 3584 1784 3584 
Q 2172 3584 2450 3431 
Q 2728 3278 2906 2969 
L 2906 3500 
L 3481 3500 
L 3481 434 
z
" id="DejaVuSans-67" transform="scale(0.015625)"/>
       <path d="M 794 531 
L 1825 531 
L 1825 4091 
L 703 3866 
L 703 4441 
L 1819 4666 
L 2450 4666 
L 2450 531 
L 3481 531 
L 3481 0 
L 794 0 
L 794 531 
z
" id="DejaVuSans-31" transform="scale(0.015625)"/>
       <path id="DejaVuSans-20" transform="scale(0.015625)"/>
       <path d="M 2375 4863 
L 2375 4384 
L 1825 4384 
Q 1516 4384 1395 4259 
Q 1275 4134 1275 3809 
L 1275 3500 
L 2222 3500 
L 2222 3053 
L 1275 3053 
L 1275 0 
L 697 0 
L 697 3053 
L 147 3053 
L 147 3500 
L 697 3500 
L 697 3744 
Q 697 4328 969 4595 
Q 1241 4863 1831 4863 
L 2375 4863 
z
" id="DejaVuSans-66" transform="scale(0.015625)"/>
       <path d="M 628 4666 
L 3309 4666 
L 3309 4134 
L 1259 4134 
L 1259 2759 
L 3109 2759 
L 3109 2228 
L 1259 2228 
L 1259 0 
L 628 0 
L 628 4666 
z
" id="DejaVuSans-46" transform="scale(0.015625)"/>
       <path d="M 628 4666 
L 3578 4666 
L 3578 4134 
L 1259 4134 
L 1259 2753 
L 3481 2753 
L 3481 2222 
L 1259 2222 
L 1259 531 
L 3634 531 
L 3634 0 
L 628 0 
L 628 4666 
z
" id="DejaVuSans-45" transform="scale(0.015625)"/>
       <path d="M 191 3500 
L 800 3500 
L 1894 563 
L 2988 3500 
L 3597 3500 
L 2284 0 
L 1503 0 
L 191 3500 
z
" id="DejaVuSans-76" transform="scale(0.015625)"/>
       <path d="M 2194 1759 
Q 1497 1759 1228 1600 
Q 959 1441 959 1056 
Q 959 750 1161 570 
Q 1363 391 1709 391 
Q 2188 391 2477 730 
Q 2766 1069 2766 1631 
L 2766 1759 
L 2194 1759 
z
M 3341 1997 
L 3341 0 
L 2766 0 
L 2766 531 
Q 2569 213 2275 61 
Q 1981 -91 1556 -91 
Q 1019 -91 701 211 
Q 384 513 384 1019 
Q 384 1609 779 1909 
Q 1175 2209 1959 2209 
L 2766 2209 
L 2766 2266 
Q 2766 2663 2505 2880 
Q 2244 3097 1772 3097 
Q 1472 3097 1187 3025 
Q 903 2953 641 2809 
L 641 3341 
Q 956 3463 1253 3523 
Q 1550 3584 1831 3584 
Q 2591 3584 2966 3190 
Q 3341 2797 3341 1997 
z
" id="DejaVuSans-61" transform="scale(0.015625)"/>
       <path d="M 2834 3397 
L 2834 2853 
Q 2591 2978 2328 3040 
Q 2066 3103 1784 3103 
Q 1356 3103 1142 2972 
Q 928 2841 928 2578 
Q 928 2378 1081 2264 
Q 1234 2150 1697 2047 
L 1894 2003 
Q 2506 1872 2764 1633 
Q 3022 1394 3022 966 
Q 3022 478 2636 193 
Q 2250 -91 1575 -91 
Q 1294 -91 989 -36 
Q 684 19 347 128 
L 347 722 
Q 666 556 975 473 
Q 1284 391 1588 391 
Q 1994 391 2212 530 
Q 2431 669 2431 922 
Q 2431 1156 2273 1281 
Q 2116 1406 1581 1522 
L 1381 1569 
Q 847 1681 609 1914 
Q 372 2147 372 2553 
Q 372 3047 722 3315 
Q 1072 3584 1716 3584 
Q 2034 3584 2315 3537 
Q 2597 3491 2834 3397 
z
" id="DejaVuSans-73" transform="scale(0.015625)"/>
       <path d="M 1625 4666 
L 2156 4666 
L 531 -594 
L 0 -594 
L 1625 4666 
z
" id="DejaVuSans-2f" transform="scale(0.015625)"/>
       <path d="M 1259 4147 
L 1259 519 
L 2022 519 
Q 2988 519 3436 956 
Q 3884 1394 3884 2338 
Q 3884 3275 3436 3711 
Q 2988 4147 2022 4147 
L 1259 4147 
z
M 628 4666 
L 1925 4666 
Q 3281 4666 3915 4102 
Q 4550 3538 4550 2338 
Q 4550 1131 3912 565 
Q 3275 0 1925 0 
L 628 0 
L 628 4666 
z
" id="DejaVuSans-44" transform="scale(0.015625)"/>
       <path d="M 628 4666 
L 1259 4666 
L 1259 0 
L 628 0 
L 628 4666 
z
" id="DejaVuSans-49" transform="scale(0.015625)"/>
       <path d="M 628 4666 
L 1569 4666 
L 2759 1491 
L 3956 4666 
L 4897 4666 
L 4897 0 
L 4281 0 
L 4281 4097 
L 3078 897 
L 2444 897 
L 1241 4097 
L 1241 0 
L 628 0 
L 628 4666 
z
" id="DejaVuSans-4d" transform="scale(0.015625)"/>
      </defs>
      <use xlink:href="#DejaVuSans-6c"/>
      <use x="27.783203" xlink:href="#DejaVuSans-6f"/>
      <use x="88.964844" xlink:href="#DejaVuSans-67"/>
      <use x="152.441406" xlink:href="#DejaVuSans-31"/>
      <use x="216.064453" xlink:href="#DejaVuSans-30"/>
      <use x="279.6875" xlink:href="#DejaVuSans-20"/>
      <use x="311.474609" xlink:href="#DejaVuSans-6f"/>
      <use x="372.65625" xlink:href="#DejaVuSans-66"/>
      <use x="407.861328" xlink:href="#DejaVuSans-20"/>
      <use x="439.648438" xlink:href="#DejaVuSans-46"/>
      <use x="497.167969" xlink:href="#DejaVuSans-45"/>
      <use x="560.351562" xlink:href="#DejaVuSans-76"/>
      <use x="619.53125" xlink:href="#DejaVuSans-61"/>
      <use x="680.810547" xlink:href="#DejaVuSans-6c"/>
      <use x="708.59375" xlink:href="#DejaVuSans-73"/>
      <use x="760.693359" xlink:href="#DejaVuSans-20"/>
      <use x="792.480469" xlink:href="#DejaVuSans-2f"/>
      <use x="826.171875" xlink:href="#DejaVuSans-20"/>
      <use x="857.958984" xlink:href="#DejaVuSans-44"/>
      <use x="934.960938" xlink:href="#DejaVuSans-49"/>
      <use x="964.453125" xlink:href="#DejaVuSans-4d"/>
     </g>
    </g>
   </g>
   <g id="matplotlib.axis_2">
    <g id="ytick_1">
     <g id="line2d_85">
      <path clip-path="url(#pc43dd87e7d)" d="M 62.208 293.76 
L 460.8 293.76 
" style="fill:none;stroke:#b0b0b0;stroke-linecap:square;stroke-width:0.8;"/>
     </g>
     <g id="line2d_86">
      <defs>
       <path d="M 0 0 
L -3.5 0 
" id="mdcbb980e1f" style="stroke:#000000;stroke-width:0.8;"/>
      </defs>
      <g>
       <use style="stroke:#000000;stroke-width:0.8;" x="62.208" xlink:href="#mdcbb980e1f" y="293.76"/>
      </g>
     </g>
     <g id="text_4">
      <!-- 0.0 -->
      <g transform="translate(29.763 299.83875)scale(0.16 -0.16)">
       <defs>
        <path d="M 684 794 
L 1344 794 
L 1344 0 
L 684 0 
L 684 794 
z
" id="DejaVuSans-2e" transform="scale(0.015625)"/>
       </defs>
       <use xlink:href="#DejaVuSans-30"/>
       <use x="63.623047" xlink:href="#DejaVuSans-2e"/>
       <use x="95.410156" xlink:href="#DejaVuSans-30"/>
      </g>
     </g>
    </g>
    <g id="ytick_2">
     <g id="line2d_87">
      <path clip-path="url(#pc43dd87e7d)" d="M 62.208 236.274059 
L 460.8 236.274059 
" style="fill:none;stroke:#b0b0b0;stroke-linecap:square;stroke-width:0.8;"/>
     </g>
     <g id="line2d_88">
      <g>
       <use style="stroke:#000000;stroke-width:0.8;" x="62.208" xlink:href="#mdcbb980e1f" y="236.274059"/>
      </g>
     </g>
     <g id="text_5">
      <!-- 0.2 -->
      <g transform="translate(29.763 242.352809)scale(0.16 -0.16)">
       <use xlink:href="#DejaVuSans-30"/>
       <use x="63.623047" xlink:href="#DejaVuSans-2e"/>
       <use x="95.410156" xlink:href="#DejaVuSans-32"/>
      </g>
     </g>
    </g>
    <g id="ytick_3">
     <g id="line2d_89">
      <path clip-path="url(#pc43dd87e7d)" d="M 62.208 178.788119 
L 460.8 178.788119 
" style="fill:none;stroke:#b0b0b0;stroke-linecap:square;stroke-width:0.8;"/>
     </g>
     <g id="line2d_90">
      <g>
       <use style="stroke:#000000;stroke-width:0.8;" x="62.208" xlink:href="#mdcbb980e1f" y="178.788119"/>
      </g>
     </g>
     <g id="text_6">
      <!-- 0.4 -->
      <g transform="translate(29.763 184.866869)scale(0.16 -0.16)">
       <defs>
        <path d="M 2419 4116 
L 825 1625 
L 2419 1625 
L 2419 4116 
z
M 2253 4666 
L 3047 4666 
L 3047 1625 
L 3713 1625 
L 3713 1100 
L 3047 1100 
L 3047 0 
L 2419 0 
L 2419 1100 
L 313 1100 
L 313 1709 
L 2253 4666 
z
" id="DejaVuSans-34" transform="scale(0.015625)"/>
       </defs>
       <use xlink:href="#DejaVuSans-30"/>
       <use x="63.623047" xlink:href="#DejaVuSans-2e"/>
       <use x="95.410156" xlink:href="#DejaVuSans-34"/>
      </g>
     </g>
    </g>
    <g id="ytick_4">
     <g id="line2d_91">
      <path clip-path="url(#pc43dd87e7d)" d="M 62.208 121.302178 
L 460.8 121.302178 
" style="fill:none;stroke:#b0b0b0;stroke-linecap:square;stroke-width:0.8;"/>
     </g>
     <g id="line2d_92">
      <g>
       <use style="stroke:#000000;stroke-width:0.8;" x="62.208" xlink:href="#mdcbb980e1f" y="121.302178"/>
      </g>
     </g>
     <g id="text_7">
      <!-- 0.6 -->
      <g transform="translate(29.763 127.380928)scale(0.16 -0.16)">
       <defs>
        <path d="M 2113 2584 
Q 1688 2584 1439 2293 
Q 1191 2003 1191 1497 
Q 1191 994 1439 701 
Q 1688 409 2113 409 
Q 2538 409 2786 701 
Q 3034 994 3034 1497 
Q 3034 2003 2786 2293 
Q 2538 2584 2113 2584 
z
M 3366 4563 
L 3366 3988 
Q 3128 4100 2886 4159 
Q 2644 4219 2406 4219 
Q 1781 4219 1451 3797 
Q 1122 3375 1075 2522 
Q 1259 2794 1537 2939 
Q 1816 3084 2150 3084 
Q 2853 3084 3261 2657 
Q 3669 2231 3669 1497 
Q 3669 778 3244 343 
Q 2819 -91 2113 -91 
Q 1303 -91 875 529 
Q 447 1150 447 2328 
Q 447 3434 972 4092 
Q 1497 4750 2381 4750 
Q 2619 4750 2861 4703 
Q 3103 4656 3366 4563 
z
" id="DejaVuSans-36" transform="scale(0.015625)"/>
       </defs>
       <use xlink:href="#DejaVuSans-30"/>
       <use x="63.623047" xlink:href="#DejaVuSans-2e"/>
       <use x="95.410156" xlink:href="#DejaVuSans-36"/>
      </g>
     </g>
    </g>
    <g id="ytick_5">
     <g id="line2d_93">
      <path clip-path="url(#pc43dd87e7d)" d="M 62.208 63.816238 
L 460.8 63.816238 
" style="fill:none;stroke:#b0b0b0;stroke-linecap:square;stroke-width:0.8;"/>
     </g>
     <g id="line2d_94">
      <g>
       <use style="stroke:#000000;stroke-width:0.8;" x="62.208" xlink:href="#mdcbb980e1f" y="63.816238"/>
      </g>
     </g>
     <g id="text_8">
      <!-- 0.8 -->
      <g transform="translate(29.763 69.894988)scale(0.16 -0.16)">
       <defs>
        <path d="M 2034 2216 
Q 1584 2216 1326 1975 
Q 1069 1734 1069 1313 
Q 1069 891 1326 650 
Q 1584 409 2034 409 
Q 2484 409 2743 651 
Q 3003 894 3003 1313 
Q 3003 1734 2745 1975 
Q 2488 2216 2034 2216 
z
M 1403 2484 
Q 997 2584 770 2862 
Q 544 3141 544 3541 
Q 544 4100 942 4425 
Q 1341 4750 2034 4750 
Q 2731 4750 3128 4425 
Q 3525 4100 3525 3541 
Q 3525 3141 3298 2862 
Q 3072 2584 2669 2484 
Q 3125 2378 3379 2068 
Q 3634 1759 3634 1313 
Q 3634 634 3220 271 
Q 2806 -91 2034 -91 
Q 1263 -91 848 271 
Q 434 634 434 1313 
Q 434 1759 690 2068 
Q 947 2378 1403 2484 
z
M 1172 3481 
Q 1172 3119 1398 2916 
Q 1625 2713 2034 2713 
Q 2441 2713 2670 2916 
Q 2900 3119 2900 3481 
Q 2900 3844 2670 4047 
Q 2441 4250 2034 4250 
Q 1625 4250 1398 4047 
Q 1172 3844 1172 3481 
z
" id="DejaVuSans-38" transform="scale(0.015625)"/>
       </defs>
       <use xlink:href="#DejaVuSans-30"/>
       <use x="63.623047" xlink:href="#DejaVuSans-2e"/>
       <use x="95.410156" xlink:href="#DejaVuSans-38"/>
      </g>
     </g>
    </g>
    <g id="ytick_6">
     <g id="line2d_95">
      <path clip-path="url(#pc43dd87e7d)" d="M 62.208 6.330297 
L 460.8 6.330297 
" style="fill:none;stroke:#b0b0b0;stroke-linecap:square;stroke-width:0.8;"/>
     </g>
     <g id="line2d_96">
      <g>
       <use style="stroke:#000000;stroke-width:0.8;" x="62.208" xlink:href="#mdcbb980e1f" y="6.330297"/>
      </g>
     </g>
     <g id="text_9">
      <!-- 1.0 -->
      <g transform="translate(29.763 12.409047)scale(0.16 -0.16)">
       <use xlink:href="#DejaVuSans-31"/>
       <use x="63.623047" xlink:href="#DejaVuSans-2e"/>
       <use x="95.410156" xlink:href="#DejaVuSans-30"/>
      </g>
     </g>
    </g>
    <g id="text_10">
     <!-- proportion of trials -->
     <g transform="translate(21.603625 241.61425)rotate(-90)scale(0.2 -0.2)">
      <defs>
       <path d="M 1159 525 
L 1159 -1331 
L 581 -1331 
L 581 3500 
L 1159 3500 
L 1159 2969 
Q 1341 3281 1617 3432 
Q 1894 3584 2278 3584 
Q 2916 3584 3314 3078 
Q 3713 2572 3713 1747 
Q 3713 922 3314 415 
Q 2916 -91 2278 -91 
Q 1894 -91 1617 61 
Q 1341 213 1159 525 
z
M 3116 1747 
Q 3116 2381 2855 2742 
Q 2594 3103 2138 3103 
Q 1681 3103 1420 2742 
Q 1159 2381 1159 1747 
Q 1159 1113 1420 752 
Q 1681 391 2138 391 
Q 2594 391 2855 752 
Q 3116 1113 3116 1747 
z
" id="DejaVuSans-70" transform="scale(0.015625)"/>
       <path d="M 2631 2963 
Q 2534 3019 2420 3045 
Q 2306 3072 2169 3072 
Q 1681 3072 1420 2755 
Q 1159 2438 1159 1844 
L 1159 0 
L 581 0 
L 581 3500 
L 1159 3500 
L 1159 2956 
Q 1341 3275 1631 3429 
Q 1922 3584 2338 3584 
Q 2397 3584 2469 3576 
Q 2541 3569 2628 3553 
L 2631 2963 
z
" id="DejaVuSans-72" transform="scale(0.015625)"/>
       <path d="M 1172 4494 
L 1172 3500 
L 2356 3500 
L 2356 3053 
L 1172 3053 
L 1172 1153 
Q 1172 725 1289 603 
Q 1406 481 1766 481 
L 2356 481 
L 2356 0 
L 1766 0 
Q 1100 0 847 248 
Q 594 497 594 1153 
L 594 3053 
L 172 3053 
L 172 3500 
L 594 3500 
L 594 4494 
L 1172 4494 
z
" id="DejaVuSans-74" transform="scale(0.015625)"/>
       <path d="M 603 3500 
L 1178 3500 
L 1178 0 
L 603 0 
L 603 3500 
z
M 603 4863 
L 1178 4863 
L 1178 4134 
L 603 4134 
L 603 4863 
z
" id="DejaVuSans-69" transform="scale(0.015625)"/>
       <path d="M 3513 2113 
L 3513 0 
L 2938 0 
L 2938 2094 
Q 2938 2591 2744 2837 
Q 2550 3084 2163 3084 
Q 1697 3084 1428 2787 
Q 1159 2491 1159 1978 
L 1159 0 
L 581 0 
L 581 3500 
L 1159 3500 
L 1159 2956 
Q 1366 3272 1645 3428 
Q 1925 3584 2291 3584 
Q 2894 3584 3203 3211 
Q 3513 2838 3513 2113 
z
" id="DejaVuSans-6e" transform="scale(0.015625)"/>
      </defs>
      <use xlink:href="#DejaVuSans-70"/>
      <use x="63.476562" xlink:href="#DejaVuSans-72"/>
      <use x="102.339844" xlink:href="#DejaVuSans-6f"/>
      <use x="163.521484" xlink:href="#DejaVuSans-70"/>
      <use x="226.998047" xlink:href="#DejaVuSans-6f"/>
      <use x="288.179688" xlink:href="#DejaVuSans-72"/>
      <use x="329.292969" xlink:href="#DejaVuSans-74"/>
      <use x="368.501953" xlink:href="#DejaVuSans-69"/>
      <use x="396.285156" xlink:href="#DejaVuSans-6f"/>
      <use x="457.466797" xlink:href="#DejaVuSans-6e"/>
      <use x="520.845703" xlink:href="#DejaVuSans-20"/>
      <use x="552.632812" xlink:href="#DejaVuSans-6f"/>
      <use x="613.814453" xlink:href="#DejaVuSans-66"/>
      <use x="649.019531" xlink:href="#DejaVuSans-20"/>
      <use x="680.806641" xlink:href="#DejaVuSans-74"/>
      <use x="720.015625" xlink:href="#DejaVuSans-72"/>
      <use x="761.128906" xlink:href="#DejaVuSans-69"/>
      <use x="788.912109" xlink:href="#DejaVuSans-61"/>
      <use x="850.191406" xlink:href="#DejaVuSans-6c"/>
      <use x="877.974609" xlink:href="#DejaVuSans-73"/>
     </g>
    </g>
   </g>
   <g id="line2d_97">
    <path clip-path="url(#pc43dd87e7d)" d="M 327.656535 293.76 
L 327.656535 289.927604 
L 334.835226 289.927604 
L 334.835226 286.095208 
L 338.241568 286.095208 
L 338.241568 282.262812 
L 339.047607 282.262812 
L 339.047607 278.430416 
L 339.632896 278.430416 
L 339.632896 274.59802 
L 339.852024 274.59802 
L 339.852024 270.765624 
L 341.593049 270.765624 
L 341.593049 266.933228 
L 350.48028 266.933228 
L 350.48028 263.100832 
L 350.604363 263.100832 
L 350.604363 259.268436 
L 350.745804 259.268436 
L 350.745804 255.43604 
L 355.092422 255.43604 
L 355.092422 251.603644 
L 355.181507 251.603644 
L 355.181507 247.771248 
L 355.912564 247.771248 
L 355.912564 243.938851 
L 356.72756 243.938851 
L 356.72756 240.106455 
L 357.001559 240.106455 
L 357.001559 236.274059 
L 357.001559 236.274059 
L 357.001559 236.274059 
L 460.8 236.274059 
" style="fill:none;stroke:#000000;stroke-linecap:square;stroke-width:1.5;"/>
   </g>
   <g id="line2d_98">
    <path clip-path="url(#pc43dd87e7d)" style="fill:none;stroke:#000000;stroke-linecap:square;stroke-width:1.5;"/>
   </g>
   <g id="line2d_99">
    <path clip-path="url(#pc43dd87e7d)" d="M 443.688453 293.76 
L 443.688453 289.927604 
L 443.851908 289.927604 
L 443.851908 286.095208 
L 444.239258 286.095208 
L 444.239258 282.262812 
L 444.280082 282.262812 
L 444.280082 278.430416 
L 445.189407 278.430416 
L 445.189407 274.59802 
L 447.427218 274.59802 
L 447.427218 270.765624 
L 447.476141 270.765624 
L 447.476141 266.933228 
L 447.626582 266.933228 
L 447.626582 263.100832 
L 448.566607 263.100832 
L 448.566607 259.268436 
L 451.640057 259.268436 
L 451.640057 255.43604 
L 451.967824 255.43604 
L 451.967824 251.603644 
L 451.967824 251.603644 
L 451.967824 247.771248 
L 452.732857 247.771248 
L 452.732857 243.938851 
L 454.186445 243.938851 
L 454.186445 240.106455 
L 457.14998 240.106455 
L 457.14998 236.274059 
L 457.14998 236.274059 
L 457.14998 236.274059 
L 460.8 236.274059 
" style="fill:none;stroke:#00bfbf;stroke-linecap:square;stroke-width:1.5;"/>
   </g>
   <g id="line2d_100">
    <path clip-path="url(#pc43dd87e7d)" style="fill:none;stroke:#00bfbf;stroke-linecap:square;stroke-width:1.5;"/>
   </g>
   <g id="line2d_101"/>
   <g id="line2d_102"/>
   <g id="line2d_103">
    <path clip-path="url(#pc43dd87e7d)" d="M 460.8 293.76 
L 460.8 3.456 
" style="fill:none;stroke:#000000;stroke-linecap:square;stroke-width:1.5;"/>
   </g>
   <g id="patch_3">
    <path d="M 62.208 293.76 
L 62.208 3.456 
" style="fill:none;stroke:#000000;stroke-linecap:square;stroke-linejoin:miter;stroke-width:0.8;"/>
   </g>
   <g id="patch_4">
    <path d="M 460.8 293.76 
L 460.8 3.456 
" style="fill:none;stroke:#000000;stroke-linecap:square;stroke-linejoin:miter;stroke-width:0.8;"/>
   </g>
   <g id="patch_5">
    <path d="M 62.208 293.76 
L 460.8 293.76 
" style="fill:none;stroke:#000000;stroke-linecap:square;stroke-linejoin:miter;stroke-width:0.8;"/>
   </g>
   <g id="patch_6">
    <path d="M 62.208 3.456 
L 460.8 3.456 
" style="fill:none;stroke:#000000;stroke-linecap:square;stroke-linejoin:miter;stroke-width:0.8;"/>
   </g>
   <g id="text_11">
    <!-- {f10-f14}, 20-D -->
    <g transform="translate(182.2915 24.458955)scale(0.2 -0.2)">
     <defs>
      <path d="M 3272 -594 
L 3272 -1044 
L 3078 -1044 
Q 2300 -1044 2036 -812 
Q 1772 -581 1772 109 
L 1772 856 
Q 1772 1328 1603 1509 
Q 1434 1691 991 1691 
L 800 1691 
L 800 2138 
L 991 2138 
Q 1438 2138 1605 2317 
Q 1772 2497 1772 2963 
L 1772 3713 
Q 1772 4403 2036 4633 
Q 2300 4863 3078 4863 
L 3272 4863 
L 3272 4416 
L 3059 4416 
Q 2619 4416 2484 4278 
Q 2350 4141 2350 3700 
L 2350 2925 
Q 2350 2434 2208 2212 
Q 2066 1991 1722 1913 
Q 2069 1828 2209 1606 
Q 2350 1384 2350 897 
L 2350 122 
Q 2350 -319 2484 -456 
Q 2619 -594 3059 -594 
L 3272 -594 
z
" id="DejaVuSans-7b" transform="scale(0.015625)"/>
      <path d="M 313 2009 
L 1997 2009 
L 1997 1497 
L 313 1497 
L 313 2009 
z
" id="DejaVuSans-2d" transform="scale(0.015625)"/>
      <path d="M 800 -594 
L 1019 -594 
Q 1456 -594 1589 -459 
Q 1722 -325 1722 122 
L 1722 897 
Q 1722 1384 1862 1606 
Q 2003 1828 2350 1913 
Q 2003 1991 1862 2212 
Q 1722 2434 1722 2925 
L 1722 3700 
Q 1722 4144 1589 4280 
Q 1456 4416 1019 4416 
L 800 4416 
L 800 4863 
L 997 4863 
Q 1775 4863 2036 4633 
Q 2297 4403 2297 3713 
L 2297 2963 
Q 2297 2497 2465 2317 
Q 2634 2138 3078 2138 
L 3272 2138 
L 3272 1691 
L 3078 1691 
Q 2634 1691 2465 1509 
Q 2297 1328 2297 856 
L 2297 109 
Q 2297 -581 2036 -812 
Q 1775 -1044 997 -1044 
L 800 -1044 
L 800 -594 
z
" id="DejaVuSans-7d" transform="scale(0.015625)"/>
      <path d="M 750 794 
L 1409 794 
L 1409 256 
L 897 -744 
L 494 -744 
L 750 256 
L 750 794 
z
" id="DejaVuSans-2c" transform="scale(0.015625)"/>
     </defs>
     <use xlink:href="#DejaVuSans-7b"/>
     <use x="63.623047" xlink:href="#DejaVuSans-66"/>
     <use x="98.828125" xlink:href="#DejaVuSans-31"/>
     <use x="162.451172" xlink:href="#DejaVuSans-30"/>
     <use x="226.074219" xlink:href="#DejaVuSans-2d"/>
     <use x="262.158203" xlink:href="#DejaVuSans-66"/>
     <use x="297.363281" xlink:href="#DejaVuSans-31"/>
     <use x="360.986328" xlink:href="#DejaVuSans-34"/>
     <use x="424.609375" xlink:href="#DejaVuSans-7d"/>
     <use x="488.232422" xlink:href="#DejaVuSans-2c"/>
     <use x="520.019531" xlink:href="#DejaVuSans-20"/>
     <use x="551.806641" xlink:href="#DejaVuSans-32"/>
     <use x="615.429688" xlink:href="#DejaVuSans-30"/>
     <use x="679.052734" xlink:href="#DejaVuSans-2d"/>
     <use x="715.136719" xlink:href="#DejaVuSans-44"/>
    </g>
   </g>
   <g id="text_12">
    <!-- absolute targets -->
    <g transform="translate(62.208 609.932673)scale(0.14 -0.14)">
     <defs>
      <path d="M 3116 1747 
Q 3116 2381 2855 2742 
Q 2594 3103 2138 3103 
Q 1681 3103 1420 2742 
Q 1159 2381 1159 1747 
Q 1159 1113 1420 752 
Q 1681 391 2138 391 
Q 2594 391 2855 752 
Q 3116 1113 3116 1747 
z
M 1159 2969 
Q 1341 3281 1617 3432 
Q 1894 3584 2278 3584 
Q 2916 3584 3314 3078 
Q 3713 2572 3713 1747 
Q 3713 922 3314 415 
Q 2916 -91 2278 -91 
Q 1894 -91 1617 61 
Q 1341 213 1159 525 
L 1159 0 
L 581 0 
L 581 4863 
L 1159 4863 
L 1159 2969 
z
" id="DejaVuSans-62" transform="scale(0.015625)"/>
      <path d="M 544 1381 
L 544 3500 
L 1119 3500 
L 1119 1403 
Q 1119 906 1312 657 
Q 1506 409 1894 409 
Q 2359 409 2629 706 
Q 2900 1003 2900 1516 
L 2900 3500 
L 3475 3500 
L 3475 0 
L 2900 0 
L 2900 538 
Q 2691 219 2414 64 
Q 2138 -91 1772 -91 
Q 1169 -91 856 284 
Q 544 659 544 1381 
z
M 1991 3584 
L 1991 3584 
z
" id="DejaVuSans-75" transform="scale(0.015625)"/>
      <path d="M 3597 1894 
L 3597 1613 
L 953 1613 
Q 991 1019 1311 708 
Q 1631 397 2203 397 
Q 2534 397 2845 478 
Q 3156 559 3463 722 
L 3463 178 
Q 3153 47 2828 -22 
Q 2503 -91 2169 -91 
Q 1331 -91 842 396 
Q 353 884 353 1716 
Q 353 2575 817 3079 
Q 1281 3584 2069 3584 
Q 2775 3584 3186 3129 
Q 3597 2675 3597 1894 
z
M 3022 2063 
Q 3016 2534 2758 2815 
Q 2500 3097 2075 3097 
Q 1594 3097 1305 2825 
Q 1016 2553 972 2059 
L 3022 2063 
z
" id="DejaVuSans-65" transform="scale(0.015625)"/>
     </defs>
     <use xlink:href="#DejaVuSans-61"/>
     <use x="61.279297" xlink:href="#DejaVuSans-62"/>
     <use x="124.755859" xlink:href="#DejaVuSans-73"/>
     <use x="176.855469" xlink:href="#DejaVuSans-6f"/>
     <use x="238.037109" xlink:href="#DejaVuSans-6c"/>
     <use x="265.820312" xlink:href="#DejaVuSans-75"/>
     <use x="329.199219" xlink:href="#DejaVuSans-74"/>
     <use x="368.408203" xlink:href="#DejaVuSans-65"/>
     <use x="429.931641" xlink:href="#DejaVuSans-20"/>
     <use x="461.71875" xlink:href="#DejaVuSans-74"/>
     <use x="500.927734" xlink:href="#DejaVuSans-61"/>
     <use x="562.207031" xlink:href="#DejaVuSans-72"/>
     <use x="601.570312" xlink:href="#DejaVuSans-67"/>
     <use x="665.046875" xlink:href="#DejaVuSans-65"/>
     <use x="726.570312" xlink:href="#DejaVuSans-74"/>
     <use x="765.779297" xlink:href="#DejaVuSans-73"/>
    </g>
   </g>
   <g id="text_13">
    <!-- v2.4 -->
    <g style="fill:#808080;" transform="translate(250.593063 288.777272)scale(0.1 -0.1)">
     <use xlink:href="#DejaVuSans-76"/>
     <use x="59.179688" xlink:href="#DejaVuSans-32"/>
     <use x="122.802734" xlink:href="#DejaVuSans-2e"/>
     <use x="154.589844" xlink:href="#DejaVuSans-34"/>
    </g>
   </g>
   <g id="legend_1">
    <g id="patch_7">
     <path d="M 76.208 136.881 
L 205.429875 136.881 
Q 209.429875 136.881 209.429875 132.881 
L 209.429875 17.456 
Q 209.429875 13.456 205.429875 13.456 
L 76.208 13.456 
Q 72.208 13.456 72.208 17.456 
L 72.208 132.881 
Q 72.208 136.881 76.208 136.881 
z
" style="fill:#ffffff;opacity:0.2;stroke:#cccccc;stroke-linejoin:miter;"/>
    </g>
    <g id="line2d_104">
     <path d="M 80.208 29.652875 
L 120.208 29.652875 
" style="fill:none;stroke:#000000;stroke-linecap:square;stroke-width:1.5;"/>
    </g>
    <g id="line2d_105"/>
    <g id="text_14">
     <!-- 1: 1/5 -->
     <g transform="translate(136.208 36.652875)scale(0.2 -0.2)">
      <defs>
       <path d="M 750 794 
L 1409 794 
L 1409 0 
L 750 0 
L 750 794 
z
M 750 3309 
L 1409 3309 
L 1409 2516 
L 750 2516 
L 750 3309 
z
" id="DejaVuSans-3a" transform="scale(0.015625)"/>
       <path d="M 691 4666 
L 3169 4666 
L 3169 4134 
L 1269 4134 
L 1269 2991 
Q 1406 3038 1543 3061 
Q 1681 3084 1819 3084 
Q 2600 3084 3056 2656 
Q 3513 2228 3513 1497 
Q 3513 744 3044 326 
Q 2575 -91 1722 -91 
Q 1428 -91 1123 -41 
Q 819 9 494 109 
L 494 744 
Q 775 591 1075 516 
Q 1375 441 1709 441 
Q 2250 441 2565 725 
Q 2881 1009 2881 1497 
Q 2881 1984 2565 2268 
Q 2250 2553 1709 2553 
Q 1456 2553 1204 2497 
Q 953 2441 691 2322 
L 691 4666 
z
" id="DejaVuSans-35" transform="scale(0.015625)"/>
      </defs>
      <use xlink:href="#DejaVuSans-31"/>
      <use x="63.623047" xlink:href="#DejaVuSans-3a"/>
      <use x="97.314453" xlink:href="#DejaVuSans-20"/>
      <use x="129.101562" xlink:href="#DejaVuSans-31"/>
      <use x="192.724609" xlink:href="#DejaVuSans-2f"/>
      <use x="226.416016" xlink:href="#DejaVuSans-35"/>
     </g>
    </g>
    <g id="line2d_106">
     <path d="M 80.208 59.009125 
L 120.208 59.009125 
" style="fill:none;stroke:#00bfbf;stroke-linecap:square;stroke-width:1.5;"/>
    </g>
    <g id="line2d_107"/>
    <g id="text_15">
     <!-- -1: 1/5 -->
     <g transform="translate(136.208 66.009125)scale(0.2 -0.2)">
      <use xlink:href="#DejaVuSans-2d"/>
      <use x="36.083984" xlink:href="#DejaVuSans-31"/>
      <use x="99.707031" xlink:href="#DejaVuSans-3a"/>
      <use x="133.398438" xlink:href="#DejaVuSans-20"/>
      <use x="165.185547" xlink:href="#DejaVuSans-31"/>
      <use x="228.808594" xlink:href="#DejaVuSans-2f"/>
      <use x="262.5" xlink:href="#DejaVuSans-35"/>
     </g>
    </g>
    <g id="line2d_108">
     <path d="M 80.208 88.365375 
L 120.208 88.365375 
" style="fill:none;stroke:#bf00bf;stroke-linecap:square;stroke-width:1.5;"/>
    </g>
    <g id="line2d_109"/>
    <g id="text_16">
     <!-- -4: 0/5 -->
     <g transform="translate(136.208 95.365375)scale(0.2 -0.2)">
      <use xlink:href="#DejaVuSans-2d"/>
      <use x="36.083984" xlink:href="#DejaVuSans-34"/>
      <use x="99.707031" xlink:href="#DejaVuSans-3a"/>
      <use x="133.398438" xlink:href="#DejaVuSans-20"/>
      <use x="165.185547" xlink:href="#DejaVuSans-30"/>
      <use x="228.808594" xlink:href="#DejaVuSans-2f"/>
      <use x="262.5" xlink:href="#DejaVuSans-35"/>
     </g>
    </g>
    <g id="line2d_110">
     <path d="M 80.208 117.721625 
L 120.208 117.721625 
" style="fill:none;stroke:#ff0000;stroke-linecap:square;stroke-width:3;"/>
    </g>
    <g id="line2d_111"/>
    <g id="text_17">
     <!-- -8: 0/5 -->
     <g transform="translate(136.208 124.721625)scale(0.2 -0.2)">
      <use xlink:href="#DejaVuSans-2d"/>
      <use x="36.083984" xlink:href="#DejaVuSans-38"/>
      <use x="99.707031" xlink:href="#DejaVuSans-3a"/>
      <use x="133.398438" xlink:href="#DejaVuSans-20"/>
      <use x="165.185547" xlink:href="#DejaVuSans-30"/>
      <use x="228.808594" xlink:href="#DejaVuSans-2f"/>
      <use x="262.5" xlink:href="#DejaVuSans-35"/>
     </g>
    </g>
   </g>
  </g>
 </g>
 <defs>
  <clipPath id="pc43dd87e7d">
   <rect height="290.304" width="398.592" x="62.208" y="3.456"/>
  </clipPath>
 </defs>
</svg>
