<?xml version="1.0" encoding="utf-8" standalone="no"?>
<!DOCTYPE svg PUBLIC "-//W3C//DTD SVG 1.1//EN"
  "http://www.w3.org/Graphics/SVG/1.1/DTD/svg11.dtd">
<svg height="345.6pt" version="1.1" viewBox="0 0 460.8 345.6" width="460.8pt" xmlns="http://www.w3.org/2000/svg" xmlns:xlink="http://www.w3.org/1999/xlink">
 <metadata>
  <rdf:RDF xmlns:cc="http://creativecommons.org/ns#" xmlns:dc="http://purl.org/dc/elements/1.1/" xmlns:rdf="http://www.w3.org/1999/02/22-rdf-syntax-ns#">
   <cc:Work>
    <dc:type rdf:resource="http://purl.org/dc/dcmitype/StillImage"/>
    <dc:date>2021-04-25T03:18:38.406511</dc:date>
    <dc:format>image/svg+xml</dc:format>
    <dc:creator>
     <cc:Agent>
      <dc:title>Matplotlib v3.4.1, https://matplotlib.org/</dc:title>
     </cc:Agent>
    </dc:creator>
   </cc:Work>
  </rdf:RDF>
 </metadata>
 <defs>
  <style type="text/css">*{stroke-linecap:butt;stroke-linejoin:round;}</style>
 </defs>
 <g id="figure_1">
  <g id="patch_1">
   <path d="M 0 345.6 
L 460.8 345.6 
L 460.8 0 
L 0 0 
z
" style="fill:#ffffff;"/>
  </g>
  <g id="axes_1">
   <g id="patch_2">
    <path d="M 57.6 298.944 
L 338.688 298.944 
L 338.688 27.648 
L 57.6 27.648 
z
" style="fill:#ffffff;"/>
   </g>
   <g id="line2d_1">
    <path d="M 91.284345 298.944 
L 91.284345 293.677139 
L 104.474128 293.677139 
L 104.474128 288.410278 
L 121.400219 288.410278 
L 121.400219 283.143418 
L 140.026805 283.143418 
L 140.026805 277.876557 
L 144.111818 277.876557 
L 144.111818 272.609696 
L 147.56019 272.609696 
L 147.56019 267.342835 
L 149.25057 267.342835 
L 149.25057 262.075974 
L 153.946025 262.075974 
L 153.946025 256.809114 
L 160.191194 256.809114 
L 160.191194 251.542253 
L 160.196054 251.542253 
L 160.196054 246.275392 
L 160.249422 246.275392 
L 160.249422 241.008531 
L 160.273627 241.008531 
L 160.273627 235.74167 
L 160.283299 235.74167 
L 160.283299 230.47481 
L 160.288133 230.47481 
L 160.288133 225.207949 
L 160.292966 225.207949 
L 160.292966 214.674227 
L 160.302628 214.674227 
L 160.302628 209.407366 
L 160.418152 209.407366 
L 160.418152 204.140506 
L 160.422949 204.140506 
L 160.422949 188.339923 
L 160.427745 188.339923 
L 160.427745 172.539341 
L 160.442124 172.539341 
L 160.442124 167.27248 
L 160.451703 167.27248 
L 160.451703 151.471897 
L 160.456491 151.471897 
L 160.456491 135.671315 
L 160.461277 135.671315 
L 160.461277 125.137593 
L 160.470846 125.137593 
L 160.470846 109.337011 
L 160.475629 109.337011 
L 160.475629 88.269568 
L 160.48519 88.269568 
L 160.48519 83.002707 
L 160.489968 83.002707 
L 160.489968 61.935264 
L 160.494745 61.935264 
L 160.494745 56.668403 
L 160.499521 56.668403 
L 160.499521 51.401542 
L 160.504296 51.401542 
L 160.504296 35.60096 
L 160.513841 35.60096 
L 160.513841 30.334099 
L 338.688 30.334099 
" style="fill:none;stroke:#f5deb3;stroke-linecap:square;stroke-width:4;"/>
   </g>
   <g id="line2d_2">
    <defs>
     <path d="M 0 7.778175 
L 7.778175 0 
L 0 -7.778175 
L -7.778175 0 
z
" id="mccdbf36be6" style="stroke:#f5deb3;stroke-linejoin:miter;stroke-width:1.5;"/>
    </defs>
    <g>
     <use style="fill:#f5deb3;stroke:#f5deb3;stroke-linejoin:miter;stroke-width:1.5;" x="160.292966" xlink:href="#mccdbf36be6" y="225.207949"/>
     <use style="fill:#f5deb3;stroke:#f5deb3;stroke-linejoin:miter;stroke-width:1.5;" x="160.470846" xlink:href="#mccdbf36be6" y="125.137593"/>
     <use style="fill:#f5deb3;stroke:#f5deb3;stroke-linejoin:miter;stroke-width:1.5;" x="160.513841" xlink:href="#mccdbf36be6" y="30.334099"/>
     <use style="fill:#f5deb3;stroke:#f5deb3;stroke-linejoin:miter;stroke-width:1.5;" x="160.513841" xlink:href="#mccdbf36be6" y="30.334099"/>
     <use style="fill:#f5deb3;stroke:#f5deb3;stroke-linejoin:miter;stroke-width:1.5;" x="338.688" xlink:href="#mccdbf36be6" y="30.334099"/>
    </g>
   </g>
   <g id="line2d_3">
    <path style="fill:none;stroke:#f5deb3;stroke-linecap:square;stroke-width:4;"/>
    <g/>
   </g>
   <g id="line2d_4">
    <path d="M 338.688 30.334099 
L 369.60768 35.706297 
" style="fill:none;stroke:#f5deb3;stroke-linecap:square;stroke-width:4;"/>
    <g>
     <use style="fill:#f5deb3;stroke:#f5deb3;stroke-linejoin:miter;stroke-width:1.5;" x="338.688" xlink:href="#mccdbf36be6" y="30.334099"/>
     <use style="fill:#f5deb3;stroke:#f5deb3;stroke-linejoin:miter;stroke-width:1.5;" x="369.60768" xlink:href="#mccdbf36be6" y="35.706297"/>
    </g>
   </g>
   <g id="matplotlib.axis_1">
    <g id="xtick_1">
     <g id="line2d_5">
      <path clip-path="url(#pbb99f5d262)" d="M 57.6 298.944 
L 57.6 27.648 
" style="fill:none;stroke:#b0b0b0;stroke-linecap:square;stroke-width:0.8;"/>
     </g>
     <g id="line2d_6">
      <defs>
       <path d="M 0 0 
L 0 3.5 
" id="md2a53d7e49" style="stroke:#000000;stroke-width:0.8;"/>
      </defs>
      <g>
       <use style="stroke:#000000;stroke-width:0.8;" x="57.6" xlink:href="#md2a53d7e49" y="298.944"/>
      </g>
     </g>
     <g id="text_1">
      <!-- 0 -->
      <g transform="translate(51.2375 321.140875)scale(0.2 -0.2)">
       <defs>
        <path d="M 2034 4250 
Q 1547 4250 1301 3770 
Q 1056 3291 1056 2328 
Q 1056 1369 1301 889 
Q 1547 409 2034 409 
Q 2525 409 2770 889 
Q 3016 1369 3016 2328 
Q 3016 3291 2770 3770 
Q 2525 4250 2034 4250 
z
M 2034 4750 
Q 2819 4750 3233 4129 
Q 3647 3509 3647 2328 
Q 3647 1150 3233 529 
Q 2819 -91 2034 -91 
Q 1250 -91 836 529 
Q 422 1150 422 2328 
Q 422 3509 836 4129 
Q 1250 4750 2034 4750 
z
" id="DejaVuSans-30" transform="scale(0.015625)"/>
       </defs>
       <use xlink:href="#DejaVuSans-30"/>
      </g>
     </g>
    </g>
    <g id="xtick_2">
     <g id="line2d_7">
      <path clip-path="url(#pbb99f5d262)" d="M 137.910857 298.944 
L 137.910857 27.648 
" style="fill:none;stroke:#b0b0b0;stroke-linecap:square;stroke-width:0.8;"/>
     </g>
     <g id="line2d_8">
      <g>
       <use style="stroke:#000000;stroke-width:0.8;" x="137.910857" xlink:href="#md2a53d7e49" y="298.944"/>
      </g>
     </g>
     <g id="text_2">
      <!-- 2 -->
      <g transform="translate(131.548357 321.140875)scale(0.2 -0.2)">
       <defs>
        <path d="M 1228 531 
L 3431 531 
L 3431 0 
L 469 0 
L 469 531 
Q 828 903 1448 1529 
Q 2069 2156 2228 2338 
Q 2531 2678 2651 2914 
Q 2772 3150 2772 3378 
Q 2772 3750 2511 3984 
Q 2250 4219 1831 4219 
Q 1534 4219 1204 4116 
Q 875 4013 500 3803 
L 500 4441 
Q 881 4594 1212 4672 
Q 1544 4750 1819 4750 
Q 2544 4750 2975 4387 
Q 3406 4025 3406 3419 
Q 3406 3131 3298 2873 
Q 3191 2616 2906 2266 
Q 2828 2175 2409 1742 
Q 1991 1309 1228 531 
z
" id="DejaVuSans-32" transform="scale(0.015625)"/>
       </defs>
       <use xlink:href="#DejaVuSans-32"/>
      </g>
     </g>
    </g>
    <g id="xtick_3">
     <g id="line2d_9">
      <path clip-path="url(#pbb99f5d262)" d="M 218.221714 298.944 
L 218.221714 27.648 
" style="fill:none;stroke:#b0b0b0;stroke-linecap:square;stroke-width:0.8;"/>
     </g>
     <g id="line2d_10">
      <g>
       <use style="stroke:#000000;stroke-width:0.8;" x="218.221714" xlink:href="#md2a53d7e49" y="298.944"/>
      </g>
     </g>
     <g id="text_3">
      <!-- 4 -->
      <g transform="translate(211.859214 321.140875)scale(0.2 -0.2)">
       <defs>
        <path d="M 2419 4116 
L 825 1625 
L 2419 1625 
L 2419 4116 
z
M 2253 4666 
L 3047 4666 
L 3047 1625 
L 3713 1625 
L 3713 1100 
L 3047 1100 
L 3047 0 
L 2419 0 
L 2419 1100 
L 313 1100 
L 313 1709 
L 2253 4666 
z
" id="DejaVuSans-34" transform="scale(0.015625)"/>
       </defs>
       <use xlink:href="#DejaVuSans-34"/>
      </g>
     </g>
    </g>
    <g id="xtick_4">
     <g id="line2d_11">
      <path clip-path="url(#pbb99f5d262)" d="M 298.532571 298.944 
L 298.532571 27.648 
" style="fill:none;stroke:#b0b0b0;stroke-linecap:square;stroke-width:0.8;"/>
     </g>
     <g id="line2d_12">
      <g>
       <use style="stroke:#000000;stroke-width:0.8;" x="298.532571" xlink:href="#md2a53d7e49" y="298.944"/>
      </g>
     </g>
     <g id="text_4">
      <!-- 6 -->
      <g transform="translate(292.170071 321.140875)scale(0.2 -0.2)">
       <defs>
        <path d="M 2113 2584 
Q 1688 2584 1439 2293 
Q 1191 2003 1191 1497 
Q 1191 994 1439 701 
Q 1688 409 2113 409 
Q 2538 409 2786 701 
Q 3034 994 3034 1497 
Q 3034 2003 2786 2293 
Q 2538 2584 2113 2584 
z
M 3366 4563 
L 3366 3988 
Q 3128 4100 2886 4159 
Q 2644 4219 2406 4219 
Q 1781 4219 1451 3797 
Q 1122 3375 1075 2522 
Q 1259 2794 1537 2939 
Q 1816 3084 2150 3084 
Q 2853 3084 3261 2657 
Q 3669 2231 3669 1497 
Q 3669 778 3244 343 
Q 2819 -91 2113 -91 
Q 1303 -91 875 529 
Q 447 1150 447 2328 
Q 447 3434 972 4092 
Q 1497 4750 2381 4750 
Q 2619 4750 2861 4703 
Q 3103 4656 3366 4563 
z
" id="DejaVuSans-36" transform="scale(0.015625)"/>
       </defs>
       <use xlink:href="#DejaVuSans-36"/>
      </g>
     </g>
    </g>
    <g id="xtick_5">
     <g id="line2d_13">
      <path clip-path="url(#pbb99f5d262)" d="M 97.755429 298.944 
L 97.755429 27.648 
" style="fill:none;stroke:#b0b0b0;stroke-linecap:square;stroke-width:0.8;"/>
     </g>
     <g id="line2d_14">
      <defs>
       <path d="M 0 0 
L 0 2 
" id="mc16a252a55" style="stroke:#000000;stroke-width:0.6;"/>
      </defs>
      <g>
       <use style="stroke:#000000;stroke-width:0.6;" x="97.755429" xlink:href="#mc16a252a55" y="298.944"/>
      </g>
     </g>
    </g>
    <g id="xtick_6">
     <g id="line2d_15">
      <path clip-path="url(#pbb99f5d262)" d="M 178.066286 298.944 
L 178.066286 27.648 
" style="fill:none;stroke:#b0b0b0;stroke-linecap:square;stroke-width:0.8;"/>
     </g>
     <g id="line2d_16">
      <g>
       <use style="stroke:#000000;stroke-width:0.6;" x="178.066286" xlink:href="#mc16a252a55" y="298.944"/>
      </g>
     </g>
    </g>
    <g id="xtick_7">
     <g id="line2d_17">
      <path clip-path="url(#pbb99f5d262)" d="M 258.377143 298.944 
L 258.377143 27.648 
" style="fill:none;stroke:#b0b0b0;stroke-linecap:square;stroke-width:0.8;"/>
     </g>
     <g id="line2d_18">
      <g>
       <use style="stroke:#000000;stroke-width:0.6;" x="258.377143" xlink:href="#mc16a252a55" y="298.944"/>
      </g>
     </g>
    </g>
    <g id="xtick_8">
     <g id="line2d_19">
      <path clip-path="url(#pbb99f5d262)" d="M 338.688 298.944 
L 338.688 27.648 
" style="fill:none;stroke:#b0b0b0;stroke-linecap:square;stroke-width:0.8;"/>
     </g>
     <g id="line2d_20">
      <g>
       <use style="stroke:#000000;stroke-width:0.6;" x="338.688" xlink:href="#mc16a252a55" y="298.944"/>
      </g>
     </g>
    </g>
    <g id="text_5">
     <!-- log10(# f-evals / dimension) -->
     <g transform="translate(77.764078 342.217594)scale(0.17 -0.17)">
      <defs>
       <path d="M 603 4863 
L 1178 4863 
L 1178 0 
L 603 0 
L 603 4863 
z
" id="DejaVuSans-6c" transform="scale(0.015625)"/>
       <path d="M 1959 3097 
Q 1497 3097 1228 2736 
Q 959 2375 959 1747 
Q 959 1119 1226 758 
Q 1494 397 1959 397 
Q 2419 397 2687 759 
Q 2956 1122 2956 1747 
Q 2956 2369 2687 2733 
Q 2419 3097 1959 3097 
z
M 1959 3584 
Q 2709 3584 3137 3096 
Q 3566 2609 3566 1747 
Q 3566 888 3137 398 
Q 2709 -91 1959 -91 
Q 1206 -91 779 398 
Q 353 888 353 1747 
Q 353 2609 779 3096 
Q 1206 3584 1959 3584 
z
" id="DejaVuSans-6f" transform="scale(0.015625)"/>
       <path d="M 2906 1791 
Q 2906 2416 2648 2759 
Q 2391 3103 1925 3103 
Q 1463 3103 1205 2759 
Q 947 2416 947 1791 
Q 947 1169 1205 825 
Q 1463 481 1925 481 
Q 2391 481 2648 825 
Q 2906 1169 2906 1791 
z
M 3481 434 
Q 3481 -459 3084 -895 
Q 2688 -1331 1869 -1331 
Q 1566 -1331 1297 -1286 
Q 1028 -1241 775 -1147 
L 775 -588 
Q 1028 -725 1275 -790 
Q 1522 -856 1778 -856 
Q 2344 -856 2625 -561 
Q 2906 -266 2906 331 
L 2906 616 
Q 2728 306 2450 153 
Q 2172 0 1784 0 
Q 1141 0 747 490 
Q 353 981 353 1791 
Q 353 2603 747 3093 
Q 1141 3584 1784 3584 
Q 2172 3584 2450 3431 
Q 2728 3278 2906 2969 
L 2906 3500 
L 3481 3500 
L 3481 434 
z
" id="DejaVuSans-67" transform="scale(0.015625)"/>
       <path d="M 794 531 
L 1825 531 
L 1825 4091 
L 703 3866 
L 703 4441 
L 1819 4666 
L 2450 4666 
L 2450 531 
L 3481 531 
L 3481 0 
L 794 0 
L 794 531 
z
" id="DejaVuSans-31" transform="scale(0.015625)"/>
       <path d="M 1984 4856 
Q 1566 4138 1362 3434 
Q 1159 2731 1159 2009 
Q 1159 1288 1364 580 
Q 1569 -128 1984 -844 
L 1484 -844 
Q 1016 -109 783 600 
Q 550 1309 550 2009 
Q 550 2706 781 3412 
Q 1013 4119 1484 4856 
L 1984 4856 
z
" id="DejaVuSans-28" transform="scale(0.015625)"/>
       <path d="M 3272 2816 
L 2363 2816 
L 2100 1772 
L 3016 1772 
L 3272 2816 
z
M 2803 4594 
L 2478 3297 
L 3391 3297 
L 3719 4594 
L 4219 4594 
L 3897 3297 
L 4872 3297 
L 4872 2816 
L 3775 2816 
L 3519 1772 
L 4513 1772 
L 4513 1294 
L 3397 1294 
L 3072 0 
L 2572 0 
L 2894 1294 
L 1978 1294 
L 1656 0 
L 1153 0 
L 1478 1294 
L 494 1294 
L 494 1772 
L 1594 1772 
L 1856 2816 
L 850 2816 
L 850 3297 
L 1978 3297 
L 2297 4594 
L 2803 4594 
z
" id="DejaVuSans-23" transform="scale(0.015625)"/>
       <path id="DejaVuSans-20" transform="scale(0.015625)"/>
       <path d="M 2375 4863 
L 2375 4384 
L 1825 4384 
Q 1516 4384 1395 4259 
Q 1275 4134 1275 3809 
L 1275 3500 
L 2222 3500 
L 2222 3053 
L 1275 3053 
L 1275 0 
L 697 0 
L 697 3053 
L 147 3053 
L 147 3500 
L 697 3500 
L 697 3744 
Q 697 4328 969 4595 
Q 1241 4863 1831 4863 
L 2375 4863 
z
" id="DejaVuSans-66" transform="scale(0.015625)"/>
       <path d="M 313 2009 
L 1997 2009 
L 1997 1497 
L 313 1497 
L 313 2009 
z
" id="DejaVuSans-2d" transform="scale(0.015625)"/>
       <path d="M 3597 1894 
L 3597 1613 
L 953 1613 
Q 991 1019 1311 708 
Q 1631 397 2203 397 
Q 2534 397 2845 478 
Q 3156 559 3463 722 
L 3463 178 
Q 3153 47 2828 -22 
Q 2503 -91 2169 -91 
Q 1331 -91 842 396 
Q 353 884 353 1716 
Q 353 2575 817 3079 
Q 1281 3584 2069 3584 
Q 2775 3584 3186 3129 
Q 3597 2675 3597 1894 
z
M 3022 2063 
Q 3016 2534 2758 2815 
Q 2500 3097 2075 3097 
Q 1594 3097 1305 2825 
Q 1016 2553 972 2059 
L 3022 2063 
z
" id="DejaVuSans-65" transform="scale(0.015625)"/>
       <path d="M 191 3500 
L 800 3500 
L 1894 563 
L 2988 3500 
L 3597 3500 
L 2284 0 
L 1503 0 
L 191 3500 
z
" id="DejaVuSans-76" transform="scale(0.015625)"/>
       <path d="M 2194 1759 
Q 1497 1759 1228 1600 
Q 959 1441 959 1056 
Q 959 750 1161 570 
Q 1363 391 1709 391 
Q 2188 391 2477 730 
Q 2766 1069 2766 1631 
L 2766 1759 
L 2194 1759 
z
M 3341 1997 
L 3341 0 
L 2766 0 
L 2766 531 
Q 2569 213 2275 61 
Q 1981 -91 1556 -91 
Q 1019 -91 701 211 
Q 384 513 384 1019 
Q 384 1609 779 1909 
Q 1175 2209 1959 2209 
L 2766 2209 
L 2766 2266 
Q 2766 2663 2505 2880 
Q 2244 3097 1772 3097 
Q 1472 3097 1187 3025 
Q 903 2953 641 2809 
L 641 3341 
Q 956 3463 1253 3523 
Q 1550 3584 1831 3584 
Q 2591 3584 2966 3190 
Q 3341 2797 3341 1997 
z
" id="DejaVuSans-61" transform="scale(0.015625)"/>
       <path d="M 2834 3397 
L 2834 2853 
Q 2591 2978 2328 3040 
Q 2066 3103 1784 3103 
Q 1356 3103 1142 2972 
Q 928 2841 928 2578 
Q 928 2378 1081 2264 
Q 1234 2150 1697 2047 
L 1894 2003 
Q 2506 1872 2764 1633 
Q 3022 1394 3022 966 
Q 3022 478 2636 193 
Q 2250 -91 1575 -91 
Q 1294 -91 989 -36 
Q 684 19 347 128 
L 347 722 
Q 666 556 975 473 
Q 1284 391 1588 391 
Q 1994 391 2212 530 
Q 2431 669 2431 922 
Q 2431 1156 2273 1281 
Q 2116 1406 1581 1522 
L 1381 1569 
Q 847 1681 609 1914 
Q 372 2147 372 2553 
Q 372 3047 722 3315 
Q 1072 3584 1716 3584 
Q 2034 3584 2315 3537 
Q 2597 3491 2834 3397 
z
" id="DejaVuSans-73" transform="scale(0.015625)"/>
       <path d="M 1625 4666 
L 2156 4666 
L 531 -594 
L 0 -594 
L 1625 4666 
z
" id="DejaVuSans-2f" transform="scale(0.015625)"/>
       <path d="M 2906 2969 
L 2906 4863 
L 3481 4863 
L 3481 0 
L 2906 0 
L 2906 525 
Q 2725 213 2448 61 
Q 2172 -91 1784 -91 
Q 1150 -91 751 415 
Q 353 922 353 1747 
Q 353 2572 751 3078 
Q 1150 3584 1784 3584 
Q 2172 3584 2448 3432 
Q 2725 3281 2906 2969 
z
M 947 1747 
Q 947 1113 1208 752 
Q 1469 391 1925 391 
Q 2381 391 2643 752 
Q 2906 1113 2906 1747 
Q 2906 2381 2643 2742 
Q 2381 3103 1925 3103 
Q 1469 3103 1208 2742 
Q 947 2381 947 1747 
z
" id="DejaVuSans-64" transform="scale(0.015625)"/>
       <path d="M 603 3500 
L 1178 3500 
L 1178 0 
L 603 0 
L 603 3500 
z
M 603 4863 
L 1178 4863 
L 1178 4134 
L 603 4134 
L 603 4863 
z
" id="DejaVuSans-69" transform="scale(0.015625)"/>
       <path d="M 3328 2828 
Q 3544 3216 3844 3400 
Q 4144 3584 4550 3584 
Q 5097 3584 5394 3201 
Q 5691 2819 5691 2113 
L 5691 0 
L 5113 0 
L 5113 2094 
Q 5113 2597 4934 2840 
Q 4756 3084 4391 3084 
Q 3944 3084 3684 2787 
Q 3425 2491 3425 1978 
L 3425 0 
L 2847 0 
L 2847 2094 
Q 2847 2600 2669 2842 
Q 2491 3084 2119 3084 
Q 1678 3084 1418 2786 
Q 1159 2488 1159 1978 
L 1159 0 
L 581 0 
L 581 3500 
L 1159 3500 
L 1159 2956 
Q 1356 3278 1631 3431 
Q 1906 3584 2284 3584 
Q 2666 3584 2933 3390 
Q 3200 3197 3328 2828 
z
" id="DejaVuSans-6d" transform="scale(0.015625)"/>
       <path d="M 3513 2113 
L 3513 0 
L 2938 0 
L 2938 2094 
Q 2938 2591 2744 2837 
Q 2550 3084 2163 3084 
Q 1697 3084 1428 2787 
Q 1159 2491 1159 1978 
L 1159 0 
L 581 0 
L 581 3500 
L 1159 3500 
L 1159 2956 
Q 1366 3272 1645 3428 
Q 1925 3584 2291 3584 
Q 2894 3584 3203 3211 
Q 3513 2838 3513 2113 
z
" id="DejaVuSans-6e" transform="scale(0.015625)"/>
       <path d="M 513 4856 
L 1013 4856 
Q 1481 4119 1714 3412 
Q 1947 2706 1947 2009 
Q 1947 1309 1714 600 
Q 1481 -109 1013 -844 
L 513 -844 
Q 928 -128 1133 580 
Q 1338 1288 1338 2009 
Q 1338 2731 1133 3434 
Q 928 4138 513 4856 
z
" id="DejaVuSans-29" transform="scale(0.015625)"/>
      </defs>
      <use xlink:href="#DejaVuSans-6c"/>
      <use x="27.783203" xlink:href="#DejaVuSans-6f"/>
      <use x="88.964844" xlink:href="#DejaVuSans-67"/>
      <use x="152.441406" xlink:href="#DejaVuSans-31"/>
      <use x="216.064453" xlink:href="#DejaVuSans-30"/>
      <use x="279.6875" xlink:href="#DejaVuSans-28"/>
      <use x="318.701172" xlink:href="#DejaVuSans-23"/>
      <use x="402.490234" xlink:href="#DejaVuSans-20"/>
      <use x="434.277344" xlink:href="#DejaVuSans-66"/>
      <use x="463.982422" xlink:href="#DejaVuSans-2d"/>
      <use x="500.066406" xlink:href="#DejaVuSans-65"/>
      <use x="561.589844" xlink:href="#DejaVuSans-76"/>
      <use x="620.769531" xlink:href="#DejaVuSans-61"/>
      <use x="682.048828" xlink:href="#DejaVuSans-6c"/>
      <use x="709.832031" xlink:href="#DejaVuSans-73"/>
      <use x="761.931641" xlink:href="#DejaVuSans-20"/>
      <use x="793.71875" xlink:href="#DejaVuSans-2f"/>
      <use x="827.410156" xlink:href="#DejaVuSans-20"/>
      <use x="859.197266" xlink:href="#DejaVuSans-64"/>
      <use x="922.673828" xlink:href="#DejaVuSans-69"/>
      <use x="950.457031" xlink:href="#DejaVuSans-6d"/>
      <use x="1047.869141" xlink:href="#DejaVuSans-65"/>
      <use x="1109.392578" xlink:href="#DejaVuSans-6e"/>
      <use x="1172.771484" xlink:href="#DejaVuSans-73"/>
      <use x="1224.871094" xlink:href="#DejaVuSans-69"/>
      <use x="1252.654297" xlink:href="#DejaVuSans-6f"/>
      <use x="1313.835938" xlink:href="#DejaVuSans-6e"/>
      <use x="1377.214844" xlink:href="#DejaVuSans-29"/>
     </g>
    </g>
   </g>
   <g id="matplotlib.axis_2">
    <g id="ytick_1">
     <g id="line2d_21">
      <path clip-path="url(#pbb99f5d262)" d="M 57.6 298.944 
L 338.688 298.944 
" style="fill:none;stroke:#b0b0b0;stroke-linecap:square;stroke-width:0.8;"/>
     </g>
     <g id="line2d_22">
      <defs>
       <path d="M 0 0 
L -3.5 0 
" id="m4f8fd05a1d" style="stroke:#000000;stroke-width:0.8;"/>
      </defs>
      <g>
       <use style="stroke:#000000;stroke-width:0.8;" x="57.6" xlink:href="#m4f8fd05a1d" y="298.944"/>
      </g>
     </g>
     <g id="text_6">
      <!-- 0.0 -->
      <g transform="translate(25.155 305.02275)scale(0.16 -0.16)">
       <defs>
        <path d="M 684 794 
L 1344 794 
L 1344 0 
L 684 0 
L 684 794 
z
" id="DejaVuSans-2e" transform="scale(0.015625)"/>
       </defs>
       <use xlink:href="#DejaVuSans-30"/>
       <use x="63.623047" xlink:href="#DejaVuSans-2e"/>
       <use x="95.410156" xlink:href="#DejaVuSans-30"/>
      </g>
     </g>
    </g>
    <g id="ytick_2">
     <g id="line2d_23">
      <path clip-path="url(#pbb99f5d262)" d="M 57.6 245.22202 
L 338.688 245.22202 
" style="fill:none;stroke:#b0b0b0;stroke-linecap:square;stroke-width:0.8;"/>
     </g>
     <g id="line2d_24">
      <g>
       <use style="stroke:#000000;stroke-width:0.8;" x="57.6" xlink:href="#m4f8fd05a1d" y="245.22202"/>
      </g>
     </g>
     <g id="text_7">
      <!-- 0.2 -->
      <g transform="translate(25.155 251.30077)scale(0.16 -0.16)">
       <use xlink:href="#DejaVuSans-30"/>
       <use x="63.623047" xlink:href="#DejaVuSans-2e"/>
       <use x="95.410156" xlink:href="#DejaVuSans-32"/>
      </g>
     </g>
    </g>
    <g id="ytick_3">
     <g id="line2d_25">
      <path clip-path="url(#pbb99f5d262)" d="M 57.6 191.50004 
L 338.688 191.50004 
" style="fill:none;stroke:#b0b0b0;stroke-linecap:square;stroke-width:0.8;"/>
     </g>
     <g id="line2d_26">
      <g>
       <use style="stroke:#000000;stroke-width:0.8;" x="57.6" xlink:href="#m4f8fd05a1d" y="191.50004"/>
      </g>
     </g>
     <g id="text_8">
      <!-- 0.4 -->
      <g transform="translate(25.155 197.57879)scale(0.16 -0.16)">
       <use xlink:href="#DejaVuSans-30"/>
       <use x="63.623047" xlink:href="#DejaVuSans-2e"/>
       <use x="95.410156" xlink:href="#DejaVuSans-34"/>
      </g>
     </g>
    </g>
    <g id="ytick_4">
     <g id="line2d_27">
      <path clip-path="url(#pbb99f5d262)" d="M 57.6 137.778059 
L 338.688 137.778059 
" style="fill:none;stroke:#b0b0b0;stroke-linecap:square;stroke-width:0.8;"/>
     </g>
     <g id="line2d_28">
      <g>
       <use style="stroke:#000000;stroke-width:0.8;" x="57.6" xlink:href="#m4f8fd05a1d" y="137.778059"/>
      </g>
     </g>
     <g id="text_9">
      <!-- 0.6 -->
      <g transform="translate(25.155 143.856809)scale(0.16 -0.16)">
       <use xlink:href="#DejaVuSans-30"/>
       <use x="63.623047" xlink:href="#DejaVuSans-2e"/>
       <use x="95.410156" xlink:href="#DejaVuSans-36"/>
      </g>
     </g>
    </g>
    <g id="ytick_5">
     <g id="line2d_29">
      <path clip-path="url(#pbb99f5d262)" d="M 57.6 84.056079 
L 338.688 84.056079 
" style="fill:none;stroke:#b0b0b0;stroke-linecap:square;stroke-width:0.8;"/>
     </g>
     <g id="line2d_30">
      <g>
       <use style="stroke:#000000;stroke-width:0.8;" x="57.6" xlink:href="#m4f8fd05a1d" y="84.056079"/>
      </g>
     </g>
     <g id="text_10">
      <!-- 0.8 -->
      <g transform="translate(25.155 90.134829)scale(0.16 -0.16)">
       <defs>
        <path d="M 2034 2216 
Q 1584 2216 1326 1975 
Q 1069 1734 1069 1313 
Q 1069 891 1326 650 
Q 1584 409 2034 409 
Q 2484 409 2743 651 
Q 3003 894 3003 1313 
Q 3003 1734 2745 1975 
Q 2488 2216 2034 2216 
z
M 1403 2484 
Q 997 2584 770 2862 
Q 544 3141 544 3541 
Q 544 4100 942 4425 
Q 1341 4750 2034 4750 
Q 2731 4750 3128 4425 
Q 3525 4100 3525 3541 
Q 3525 3141 3298 2862 
Q 3072 2584 2669 2484 
Q 3125 2378 3379 2068 
Q 3634 1759 3634 1313 
Q 3634 634 3220 271 
Q 2806 -91 2034 -91 
Q 1263 -91 848 271 
Q 434 634 434 1313 
Q 434 1759 690 2068 
Q 947 2378 1403 2484 
z
M 1172 3481 
Q 1172 3119 1398 2916 
Q 1625 2713 2034 2713 
Q 2441 2713 2670 2916 
Q 2900 3119 2900 3481 
Q 2900 3844 2670 4047 
Q 2441 4250 2034 4250 
Q 1625 4250 1398 4047 
Q 1172 3844 1172 3481 
z
" id="DejaVuSans-38" transform="scale(0.015625)"/>
       </defs>
       <use xlink:href="#DejaVuSans-30"/>
       <use x="63.623047" xlink:href="#DejaVuSans-2e"/>
       <use x="95.410156" xlink:href="#DejaVuSans-38"/>
      </g>
     </g>
    </g>
    <g id="ytick_6">
     <g id="line2d_31">
      <path clip-path="url(#pbb99f5d262)" d="M 57.6 30.334099 
L 338.688 30.334099 
" style="fill:none;stroke:#b0b0b0;stroke-linecap:square;stroke-width:0.8;"/>
     </g>
     <g id="line2d_32">
      <g>
       <use style="stroke:#000000;stroke-width:0.8;" x="57.6" xlink:href="#m4f8fd05a1d" y="30.334099"/>
      </g>
     </g>
     <g id="text_11">
      <!-- 1.0 -->
      <g transform="translate(25.155 36.412849)scale(0.16 -0.16)">
       <use xlink:href="#DejaVuSans-31"/>
       <use x="63.623047" xlink:href="#DejaVuSans-2e"/>
       <use x="95.410156" xlink:href="#DejaVuSans-30"/>
      </g>
     </g>
    </g>
    <g id="text_12">
     <!-- Fraction of function,target pairs -->
     <g transform="translate(17.619531 297.681)rotate(-90)scale(0.17 -0.17)">
      <defs>
       <path d="M 628 4666 
L 3309 4666 
L 3309 4134 
L 1259 4134 
L 1259 2759 
L 3109 2759 
L 3109 2228 
L 1259 2228 
L 1259 0 
L 628 0 
L 628 4666 
z
" id="DejaVuSans-46" transform="scale(0.015625)"/>
       <path d="M 2631 2963 
Q 2534 3019 2420 3045 
Q 2306 3072 2169 3072 
Q 1681 3072 1420 2755 
Q 1159 2438 1159 1844 
L 1159 0 
L 581 0 
L 581 3500 
L 1159 3500 
L 1159 2956 
Q 1341 3275 1631 3429 
Q 1922 3584 2338 3584 
Q 2397 3584 2469 3576 
Q 2541 3569 2628 3553 
L 2631 2963 
z
" id="DejaVuSans-72" transform="scale(0.015625)"/>
       <path d="M 3122 3366 
L 3122 2828 
Q 2878 2963 2633 3030 
Q 2388 3097 2138 3097 
Q 1578 3097 1268 2742 
Q 959 2388 959 1747 
Q 959 1106 1268 751 
Q 1578 397 2138 397 
Q 2388 397 2633 464 
Q 2878 531 3122 666 
L 3122 134 
Q 2881 22 2623 -34 
Q 2366 -91 2075 -91 
Q 1284 -91 818 406 
Q 353 903 353 1747 
Q 353 2603 823 3093 
Q 1294 3584 2113 3584 
Q 2378 3584 2631 3529 
Q 2884 3475 3122 3366 
z
" id="DejaVuSans-63" transform="scale(0.015625)"/>
       <path d="M 1172 4494 
L 1172 3500 
L 2356 3500 
L 2356 3053 
L 1172 3053 
L 1172 1153 
Q 1172 725 1289 603 
Q 1406 481 1766 481 
L 2356 481 
L 2356 0 
L 1766 0 
Q 1100 0 847 248 
Q 594 497 594 1153 
L 594 3053 
L 172 3053 
L 172 3500 
L 594 3500 
L 594 4494 
L 1172 4494 
z
" id="DejaVuSans-74" transform="scale(0.015625)"/>
       <path d="M 544 1381 
L 544 3500 
L 1119 3500 
L 1119 1403 
Q 1119 906 1312 657 
Q 1506 409 1894 409 
Q 2359 409 2629 706 
Q 2900 1003 2900 1516 
L 2900 3500 
L 3475 3500 
L 3475 0 
L 2900 0 
L 2900 538 
Q 2691 219 2414 64 
Q 2138 -91 1772 -91 
Q 1169 -91 856 284 
Q 544 659 544 1381 
z
M 1991 3584 
L 1991 3584 
z
" id="DejaVuSans-75" transform="scale(0.015625)"/>
       <path d="M 750 794 
L 1409 794 
L 1409 256 
L 897 -744 
L 494 -744 
L 750 256 
L 750 794 
z
" id="DejaVuSans-2c" transform="scale(0.015625)"/>
       <path d="M 1159 525 
L 1159 -1331 
L 581 -1331 
L 581 3500 
L 1159 3500 
L 1159 2969 
Q 1341 3281 1617 3432 
Q 1894 3584 2278 3584 
Q 2916 3584 3314 3078 
Q 3713 2572 3713 1747 
Q 3713 922 3314 415 
Q 2916 -91 2278 -91 
Q 1894 -91 1617 61 
Q 1341 213 1159 525 
z
M 3116 1747 
Q 3116 2381 2855 2742 
Q 2594 3103 2138 3103 
Q 1681 3103 1420 2742 
Q 1159 2381 1159 1747 
Q 1159 1113 1420 752 
Q 1681 391 2138 391 
Q 2594 391 2855 752 
Q 3116 1113 3116 1747 
z
" id="DejaVuSans-70" transform="scale(0.015625)"/>
      </defs>
      <use xlink:href="#DejaVuSans-46"/>
      <use x="50.269531" xlink:href="#DejaVuSans-72"/>
      <use x="91.382812" xlink:href="#DejaVuSans-61"/>
      <use x="152.662109" xlink:href="#DejaVuSans-63"/>
      <use x="207.642578" xlink:href="#DejaVuSans-74"/>
      <use x="246.851562" xlink:href="#DejaVuSans-69"/>
      <use x="274.634766" xlink:href="#DejaVuSans-6f"/>
      <use x="335.816406" xlink:href="#DejaVuSans-6e"/>
      <use x="399.195312" xlink:href="#DejaVuSans-20"/>
      <use x="430.982422" xlink:href="#DejaVuSans-6f"/>
      <use x="492.164062" xlink:href="#DejaVuSans-66"/>
      <use x="527.369141" xlink:href="#DejaVuSans-20"/>
      <use x="559.15625" xlink:href="#DejaVuSans-66"/>
      <use x="594.361328" xlink:href="#DejaVuSans-75"/>
      <use x="657.740234" xlink:href="#DejaVuSans-6e"/>
      <use x="721.119141" xlink:href="#DejaVuSans-63"/>
      <use x="776.099609" xlink:href="#DejaVuSans-74"/>
      <use x="815.308594" xlink:href="#DejaVuSans-69"/>
      <use x="843.091797" xlink:href="#DejaVuSans-6f"/>
      <use x="904.273438" xlink:href="#DejaVuSans-6e"/>
      <use x="967.652344" xlink:href="#DejaVuSans-2c"/>
      <use x="999.439453" xlink:href="#DejaVuSans-74"/>
      <use x="1038.648438" xlink:href="#DejaVuSans-61"/>
      <use x="1099.927734" xlink:href="#DejaVuSans-72"/>
      <use x="1139.291016" xlink:href="#DejaVuSans-67"/>
      <use x="1202.767578" xlink:href="#DejaVuSans-65"/>
      <use x="1264.291016" xlink:href="#DejaVuSans-74"/>
      <use x="1303.5" xlink:href="#DejaVuSans-20"/>
      <use x="1335.287109" xlink:href="#DejaVuSans-70"/>
      <use x="1398.763672" xlink:href="#DejaVuSans-61"/>
      <use x="1460.042969" xlink:href="#DejaVuSans-69"/>
      <use x="1487.826172" xlink:href="#DejaVuSans-72"/>
      <use x="1528.939453" xlink:href="#DejaVuSans-73"/>
     </g>
    </g>
   </g>
   <g id="line2d_33">
    <defs>
     <path d="M 0 1.5 
C 0.397805 1.5 0.77937 1.341951 1.06066 1.06066 
C 1.341951 0.77937 1.5 0.397805 1.5 0 
C 1.5 -0.397805 1.341951 -0.77937 1.06066 -1.06066 
C 0.77937 -1.341951 0.397805 -1.5 0 -1.5 
C -0.397805 -1.5 -0.77937 -1.341951 -1.06066 -1.06066 
C -1.341951 -0.77937 -1.5 -0.397805 -1.5 0 
C -1.5 0.397805 -1.341951 0.77937 -1.06066 1.06066 
C -0.77937 1.341951 -0.397805 1.5 0 1.5 
z
" id="ma4cd0619da" style="stroke:#f5deb3;"/>
    </defs>
    <g>
     <use style="fill:#f5deb3;stroke:#f5deb3;" x="160.513841" xlink:href="#ma4cd0619da" y="30.334099"/>
     <use style="fill:#f5deb3;stroke:#f5deb3;" x="160.513841" xlink:href="#ma4cd0619da" y="30.334099"/>
    </g>
   </g>
   <g id="line2d_34">
    <defs>
     <path d="M 0 1.5 
C 0.397805 1.5 0.77937 1.341951 1.06066 1.06066 
C 1.341951 0.77937 1.5 0.397805 1.5 0 
C 1.5 -0.397805 1.341951 -0.77937 1.06066 -1.06066 
C 0.77937 -1.341951 0.397805 -1.5 0 -1.5 
C -0.397805 -1.5 -0.77937 -1.341951 -1.06066 -1.06066 
C -1.341951 -0.77937 -1.5 -0.397805 -1.5 0 
C -1.5 0.397805 -1.341951 0.77937 -1.06066 1.06066 
C -0.77937 1.341951 -0.397805 1.5 0 1.5 
z
" id="mf47124f8a3" style="stroke:#000080;"/>
    </defs>
    <g>
     <use style="fill:#000080;stroke:#000080;" x="275.280922" xlink:href="#mf47124f8a3" y="241.008531"/>
     <use style="fill:#000080;stroke:#000080;" x="275.280922" xlink:href="#mf47124f8a3" y="241.008531"/>
    </g>
   </g>
   <g id="line2d_35">
    <path d="M 117.598418 298.944 
L 117.598418 298.417314 
L 118.148599 298.417314 
L 118.148599 297.890628 
L 120.286695 297.890628 
L 120.286695 297.363942 
L 124.254646 297.363942 
L 124.254646 296.837256 
L 126.304457 296.837256 
L 126.304457 296.31057 
L 128.077285 296.31057 
L 128.077285 295.783884 
L 129.347769 295.783884 
L 129.347769 295.257197 
L 130.018593 295.257197 
L 130.018593 294.730511 
L 130.848555 294.730511 
L 130.848555 294.203825 
L 134.386096 294.203825 
L 134.386096 293.677139 
L 136.905847 293.677139 
L 136.905847 293.150453 
L 139.285267 293.150453 
L 139.285267 292.623767 
L 139.9494 292.623767 
L 139.9494 292.097081 
L 140.973763 292.097081 
L 140.973763 291.570395 
L 142.215919 291.570395 
L 142.215919 291.043709 
L 142.949611 291.043709 
L 142.949611 290.517023 
L 147.409112 290.517023 
L 147.409112 289.990337 
L 147.86833 289.990337 
L 147.86833 289.463651 
L 148.083753 289.463651 
L 148.083753 288.936964 
L 149.664311 288.936964 
L 149.664311 288.410278 
L 152.00633 288.410278 
L 152.00633 287.883592 
L 153.40939 287.883592 
L 153.40939 287.356906 
L 155.659924 287.356906 
L 155.659924 286.83022 
L 156.034038 286.83022 
L 156.034038 286.303534 
L 156.442528 286.303534 
L 156.442528 285.776848 
L 158.583406 285.776848 
L 158.620675 284.723476 
L 159.941533 284.723476 
L 159.995685 283.670104 
L 160.882091 283.670104 
L 160.882091 283.143418 
L 162.191157 283.143418 
L 162.286241 282.090045 
L 162.542958 282.090045 
L 162.542958 281.563359 
L 164.032036 281.563359 
L 164.032036 281.036673 
L 164.686444 281.036673 
L 164.686444 280.509987 
L 165.266391 280.509987 
L 165.266391 279.456615 
L 165.9084 279.456615 
L 165.9084 278.929929 
L 166.279131 278.929929 
L 166.279131 278.403243 
L 169.551573 278.403243 
L 169.62813 277.349871 
L 169.687442 277.349871 
L 169.687442 276.823185 
L 170.138339 276.823185 
L 170.138339 276.296499 
L 170.348634 276.296499 
L 170.348634 275.769812 
L 171.118647 275.769812 
L 171.118647 275.243126 
L 171.350865 275.243126 
L 171.350865 274.71644 
L 171.920711 274.71644 
L 171.920711 274.189754 
L 172.515733 274.189754 
L 172.515733 273.663068 
L 176.501879 273.663068 
L 176.501879 273.136382 
L 177.336204 273.136382 
L 177.336204 272.609696 
L 178.696525 272.609696 
L 178.696525 272.08301 
L 178.948679 272.08301 
L 178.948679 271.556324 
L 180.14667 271.556324 
L 180.14667 271.029638 
L 180.520307 271.029638 
L 180.530908 269.976266 
L 183.702136 269.976266 
L 183.702136 269.449579 
L 184.147068 269.449579 
L 184.147068 268.922893 
L 184.368386 268.922893 
L 184.368386 268.396207 
L 186.313964 268.396207 
L 186.313964 267.869521 
L 186.811069 267.869521 
L 186.811069 267.342835 
L 191.689121 267.342835 
L 191.704286 266.289463 
L 192.002495 266.289463 
L 192.04323 265.236091 
L 192.745619 265.236091 
L 192.745619 264.709405 
L 196.335671 264.709405 
L 196.335671 264.182719 
L 199.38598 264.182719 
L 199.494518 263.129347 
L 199.886145 263.129347 
L 199.886145 262.60266 
L 200.444045 262.60266 
L 200.444045 262.075974 
L 201.043592 262.075974 
L 201.121407 260.495916 
L 201.245564 260.495916 
L 201.245564 259.96923 
L 207.682301 259.96923 
L 207.682301 259.442544 
L 208.41295 259.442544 
L 208.502395 258.389172 
L 210.485593 258.389172 
L 210.534712 257.3358 
L 212.387645 257.3358 
L 212.387645 256.809114 
L 212.562458 256.809114 
L 212.562458 256.282427 
L 214.001937 256.282427 
L 214.001937 255.229055 
L 215.216167 255.229055 
L 215.216167 254.702369 
L 226.886358 254.702369 
L 226.886358 254.175683 
L 227.708636 254.175683 
L 227.708636 253.648997 
L 228.851512 253.648997 
L 228.851512 253.122311 
L 233.04453 253.122311 
L 233.04453 252.595625 
L 238.963838 252.595625 
L 238.963838 252.068939 
L 239.449133 252.068939 
L 239.449133 251.015567 
L 245.720424 251.015567 
L 245.796794 249.962195 
L 247.25616 249.962195 
L 247.25616 249.435508 
L 248.996067 249.435508 
L 248.996067 248.908822 
L 250.428769 248.908822 
L 250.428769 248.382136 
L 251.613161 248.382136 
L 251.613161 247.85545 
L 254.179587 247.85545 
L 254.179587 247.328764 
L 255.254992 247.328764 
L 255.254992 246.802078 
L 256.226062 246.802078 
L 256.226062 246.275392 
L 257.083562 246.275392 
L 257.083562 245.748706 
L 258.095096 245.748706 
L 258.1327 244.168648 
L 258.959496 244.168648 
L 258.995284 243.115275 
L 264.070725 243.115275 
L 264.070725 242.588589 
L 265.285582 242.588589 
L 265.285582 242.061903 
L 272.796621 242.061903 
L 272.796621 241.535217 
L 275.280922 241.535217 
L 275.280922 241.008531 
L 338.688 241.008531 
L 338.688 241.008531 
" style="fill:none;stroke:#000080;stroke-linecap:square;stroke-width:1.5;"/>
   </g>
   <g id="line2d_36">
    <defs>
     <path d="M 0 6 
C 1.591219 6 3.117479 5.367802 4.242641 4.242641 
C 5.367802 3.117479 6 1.591219 6 0 
C 6 -1.591219 5.367802 -3.117479 4.242641 -4.242641 
C 3.117479 -5.367802 1.591219 -6 0 -6 
C -1.591219 -6 -3.117479 -5.367802 -4.242641 -4.242641 
C -5.367802 -3.117479 -6 -1.591219 -6 0 
C -6 1.591219 -5.367802 3.117479 -4.242641 4.242641 
C -3.117479 5.367802 -1.591219 6 0 6 
z
" id="m6b55a9b501" style="stroke:#000080;stroke-width:1.5;"/>
    </defs>
    <g>
     <use style="fill-opacity:0;stroke:#000080;stroke-width:1.5;" x="156.442528" xlink:href="#m6b55a9b501" y="286.303534"/>
     <use style="fill-opacity:0;stroke:#000080;stroke-width:1.5;" x="208.502395" xlink:href="#m6b55a9b501" y="258.389172"/>
     <use style="fill-opacity:0;stroke:#000080;stroke-width:1.5;" x="258.995284" xlink:href="#m6b55a9b501" y="243.115275"/>
     <use style="fill-opacity:0;stroke:#000080;stroke-width:1.5;" x="275.280922" xlink:href="#m6b55a9b501" y="241.008531"/>
     <use style="fill-opacity:0;stroke:#000080;stroke-width:1.5;" x="338.688" xlink:href="#m6b55a9b501" y="241.008531"/>
    </g>
   </g>
   <g id="line2d_37">
    <path style="fill:none;stroke:#000080;stroke-linecap:square;stroke-width:1.5;"/>
    <g/>
   </g>
   <g id="line2d_38">
    <path clip-path="url(#pbb99f5d262)" d="M 206.133726 259.96923 
" style="fill:none;stroke:#000080;stroke-linecap:square;stroke-width:1.5;"/>
    <defs>
     <path d="M -12 12 
L 12 -12 
M -12 -12 
L 12 12 
" id="mc1cd7c2d82" style="stroke:#000080;"/>
    </defs>
    <g clip-path="url(#pbb99f5d262)">
     <use style="fill:#000080;stroke:#000080;" x="206.133726" xlink:href="#mc1cd7c2d82" y="259.96923"/>
    </g>
   </g>
   <g id="line2d_39">
    <defs>
     <path d="M 0 1.5 
C 0.397805 1.5 0.77937 1.341951 1.06066 1.06066 
C 1.341951 0.77937 1.5 0.397805 1.5 0 
C 1.5 -0.397805 1.341951 -0.77937 1.06066 -1.06066 
C 0.77937 -1.341951 0.397805 -1.5 0 -1.5 
C -0.397805 -1.5 -0.77937 -1.341951 -1.06066 -1.06066 
C -1.341951 -0.77937 -1.5 -0.397805 -1.5 0 
C -1.5 0.397805 -1.341951 0.77937 -1.06066 1.06066 
C -0.77937 1.341951 -0.397805 1.5 0 1.5 
z
" id="m1a8cdb55e5" style="stroke:#ff00ff;"/>
    </defs>
    <g>
     <use style="fill:#ff00ff;stroke:#ff00ff;" x="242.23017" xlink:href="#m1a8cdb55e5" y="30.334099"/>
     <use style="fill:#ff00ff;stroke:#ff00ff;" x="242.23017" xlink:href="#m1a8cdb55e5" y="30.334099"/>
    </g>
   </g>
   <g id="line2d_40">
    <path d="M 112.506763 298.944 
L 112.506763 298.417314 
L 115.958621 298.417314 
L 115.958621 297.890628 
L 117.709852 297.890628 
L 117.709852 297.363942 
L 122.31944 297.363942 
L 122.31944 296.837256 
L 130.505303 296.837256 
L 130.505303 296.31057 
L 136.86886 296.31057 
L 136.887363 295.257197 
L 138.89409 295.257197 
L 138.89409 294.730511 
L 139.317473 294.730511 
L 139.317473 294.203825 
L 143.196061 294.203825 
L 143.196061 293.677139 
L 146.738883 293.677139 
L 146.738883 293.150453 
L 150.181003 293.150453 
L 150.181003 292.623767 
L 151.219462 292.623767 
L 151.219462 292.097081 
L 151.517715 292.097081 
L 151.517715 291.570395 
L 152.811246 291.570395 
L 152.811246 291.043709 
L 157.540141 291.043709 
L 157.540141 290.517023 
L 158.73729 290.517023 
L 158.73729 289.990337 
L 162.879471 289.990337 
L 162.879471 289.463651 
L 167.086355 289.463651 
L 167.086355 288.936964 
L 169.026567 288.936964 
L 169.026567 288.410278 
L 169.557255 288.410278 
L 169.636615 287.356906 
L 169.883706 287.356906 
L 169.883706 286.83022 
L 171.590146 286.83022 
L 171.590146 286.303534 
L 171.778735 286.303534 
L 171.778735 285.776848 
L 173.333002 285.776848 
L 173.412888 284.723476 
L 174.220541 284.723476 
L 174.220541 284.19679 
L 174.485938 284.19679 
L 174.485938 283.670104 
L 176.511414 283.670104 
L 176.511414 283.143418 
L 176.883019 283.143418 
L 176.883019 282.616732 
L 177.142371 282.616732 
L 177.142371 282.090045 
L 177.314369 282.090045 
L 177.314369 281.563359 
L 177.612236 281.563359 
L 177.612236 281.036673 
L 177.754846 281.036673 
L 177.765495 279.983301 
L 178.372261 279.983301 
L 178.413339 278.929929 
L 179.260866 278.929929 
L 179.260866 278.403243 
L 179.553156 278.403243 
L 179.553156 277.876557 
L 180.092412 277.876557 
L 180.20076 276.296499 
L 181.045599 276.296499 
L 181.095509 275.243126 
L 181.360275 275.243126 
L 181.39345 274.189754 
L 182.440695 274.189754 
L 182.440695 273.663068 
L 182.793992 273.663068 
L 182.793992 273.136382 
L 183.107652 273.136382 
L 183.107652 272.609696 
L 183.289557 272.609696 
L 183.289557 272.08301 
L 183.465745 272.08301 
L 183.465745 271.556324 
L 183.71097 271.556324 
L 183.71097 271.029638 
L 184.874915 271.029638 
L 184.874915 270.502952 
L 185.17911 270.502952 
L 185.17911 269.976266 
L 185.956031 269.976266 
L 185.956031 269.449579 
L 186.503118 269.449579 
L 186.503118 268.922893 
L 186.782528 268.922893 
L 186.840618 267.342835 
L 187.208917 267.342835 
L 187.208917 266.816149 
L 188.057226 266.816149 
L 188.057226 266.289463 
L 189.665286 266.289463 
L 189.665286 265.762777 
L 190.087003 265.762777 
L 190.161249 264.182719 
L 190.40189 264.182719 
L 190.437959 263.129347 
L 191.158922 263.129347 
L 191.158922 262.60266 
L 192.593138 262.60266 
L 192.593138 262.075974 
L 193.18936 262.075974 
L 193.195953 261.022602 
L 194.073618 261.022602 
L 194.073618 260.495916 
L 194.321184 260.495916 
L 194.321184 259.96923 
L 194.457293 259.96923 
L 194.457293 257.862486 
L 194.756527 257.862486 
L 194.756527 252.595625 
L 195.169499 252.595625 
L 195.220439 251.015567 
L 195.606755 251.015567 
L 195.692652 248.908822 
L 195.839916 248.908822 
L 195.839916 248.382136 
L 195.980328 248.382136 
L 195.980328 247.85545 
L 196.095448 247.85545 
L 196.199951 246.275392 
L 196.207347 246.275392 
L 196.259036 245.22202 
L 196.332612 245.22202 
L 196.393689 243.641962 
L 196.523679 243.641962 
L 196.523679 243.115275 
L 196.645497 243.115275 
L 196.749155 242.061903 
L 197.101034 242.061903 
L 197.101034 241.535217 
L 197.250853 241.535217 
L 197.333084 240.481845 
L 197.421253 240.481845 
L 197.46087 239.428473 
L 197.755446 239.428473 
L 197.755446 238.901787 
L 197.936084 238.901787 
L 198.012931 237.848415 
L 198.070622 237.848415 
L 198.070622 237.321729 
L 198.3508 237.321729 
L 198.353524 236.268356 
L 198.549129 236.268356 
L 198.620108 234.688298 
L 198.669408 234.688298 
L 198.711631 233.634926 
L 198.860463 233.634926 
L 198.966525 231.001496 
L 199.169456 231.001496 
L 199.22967 229.421437 
L 199.360797 229.421437 
L 199.471025 226.261321 
L 199.494518 226.261321 
L 199.604921 224.681263 
L 199.627222 224.681263 
L 199.688907 223.627891 
L 199.766965 223.627891 
L 199.870168 220.99446 
L 199.886145 220.99446 
L 199.982693 216.780971 
L 200.008481 216.780971 
L 200.090058 214.674227 
L 200.127996 214.674227 
L 200.236919 212.567483 
L 200.324737 212.567483 
L 200.417442 208.353994 
L 200.479776 208.353994 
L 200.588447 206.773936 
L 200.599469 206.773936 
L 200.697874 203.087133 
L 200.773925 203.087133 
L 200.811353 202.033761 
L 200.928799 202.033761 
L 200.928799 201.507075 
L 201.151137 201.507075 
L 201.248795 198.346959 
L 201.267247 198.346959 
L 201.31559 197.293586 
L 201.395408 197.293586 
L 201.501722 193.606784 
L 201.52536 193.606784 
L 201.63495 189.919981 
L 201.657507 189.919981 
L 201.768513 185.706493 
L 201.791793 185.706493 
L 201.867684 183.599748 
L 201.915726 183.599748 
L 202.004787 180.439632 
L 202.052894 180.439632 
L 202.139505 179.38626 
L 202.193364 179.38626 
L 202.293633 177.279515 
L 202.330543 177.279515 
L 202.435203 174.119399 
L 202.522944 174.119399 
L 202.605549 172.539341 
L 202.663949 172.539341 
L 202.764095 170.432596 
L 202.882171 170.432596 
L 202.986506 168.325852 
L 203.018645 168.325852 
L 203.102676 166.745794 
L 203.151576 166.745794 
L 203.183412 165.692422 
L 203.495776 165.692422 
L 203.495776 165.165736 
L 203.620299 165.165736 
L 203.644856 164.112363 
L 203.850417 164.112363 
L 203.850417 163.585677 
L 204.746207 163.585677 
L 204.746207 160.425561 
L 204.858767 160.425561 
L 204.903737 152.52527 
L 204.996311 152.52527 
L 205.100243 146.205037 
L 205.126499 146.205037 
L 205.14275 144.098292 
L 205.242879 144.098292 
L 205.307729 142.518234 
L 205.363592 142.518234 
L 205.4679 136.724687 
L 205.502652 136.724687 
L 205.613682 131.457826 
L 205.629127 131.457826 
L 205.714367 127.771024 
L 205.744708 127.771024 
L 205.801324 125.66428 
L 205.924601 125.66428 
L 205.924601 124.610907 
L 206.06733 124.610907 
L 206.06733 124.084221 
L 213.343013 124.084221 
L 213.444909 122.504163 
L 213.614257 122.504163 
L 213.614257 121.977477 
L 213.916206 121.977477 
L 213.916206 121.450791 
L 214.070442 121.450791 
L 214.166867 118.817361 
L 214.37075 118.817361 
L 214.463154 116.710616 
L 214.931451 116.710616 
L 214.97226 115.130558 
L 215.162006 115.130558 
L 215.253629 112.497128 
L 215.376213 112.497128 
L 215.460388 109.337011 
L 215.563465 109.337011 
L 215.673204 104.596836 
L 215.714732 104.596836 
L 215.714732 104.07015 
L 215.910951 104.07015 
L 216.020906 100.383348 
L 216.04147 100.383348 
L 216.151786 97.223231 
L 216.175334 97.223231 
L 216.2577 93.536429 
L 216.362587 93.536429 
L 216.424947 89.849626 
L 216.492478 89.849626 
L 216.572979 87.742882 
L 216.608405 87.742882 
L 216.719005 85.109451 
L 217.541751 85.109451 
L 217.605642 83.529393 
L 217.675059 83.529393 
L 217.729318 79.842591 
L 217.855686 79.842591 
L 217.957966 76.682474 
L 217.97124 76.682474 
L 218.02829 73.522358 
L 218.117465 73.522358 
L 218.146739 72.468985 
L 222.196269 72.468985 
L 222.257672 69.835555 
L 222.354533 69.835555 
L 222.354533 69.308869 
L 222.608739 69.308869 
L 222.608739 68.782183 
L 222.931592 68.782183 
L 222.931592 68.255497 
L 223.19503 68.255497 
L 223.265432 67.202125 
L 223.381534 67.202125 
L 223.442271 65.622066 
L 223.578512 65.622066 
L 223.578512 65.09538 
L 223.692555 65.09538 
L 223.692555 64.568694 
L 223.81649 64.568694 
L 223.900431 62.988636 
L 223.944198 62.988636 
L 224.014272 59.82852 
L 224.120289 59.82852 
L 224.194119 57.721775 
L 224.240243 57.721775 
L 224.314921 56.141717 
L 224.842384 56.141717 
L 224.942312 52.9816 
L 224.963414 52.9816 
L 225.064302 50.874856 
L 225.091373 50.874856 
L 225.182636 47.71474 
L 225.223304 47.71474 
L 225.223304 47.188054 
L 228.040403 47.188054 
L 228.084344 46.134681 
L 228.270871 46.134681 
L 228.336415 45.081309 
L 228.616055 45.081309 
L 228.616055 44.554623 
L 228.927282 44.554623 
L 228.937379 42.974565 
L 229.243993 42.974565 
L 229.34971 41.394507 
L 229.434082 41.394507 
L 229.434082 40.867821 
L 230.003056 40.867821 
L 230.063297 39.814448 
L 230.131966 39.814448 
L 230.131966 38.761076 
L 233.178634 38.761076 
L 233.252962 37.181018 
L 233.353872 37.181018 
L 233.441891 35.60096 
L 233.615527 35.60096 
L 233.631318 34.547588 
L 234.076835 34.547588 
L 234.076835 34.020902 
L 236.907152 34.020902 
L 236.907152 33.494215 
L 237.174598 33.494215 
L 237.221357 32.440843 
L 239.62308 32.440843 
L 239.62308 31.914157 
L 239.925056 31.914157 
L 239.925056 31.387471 
L 242.046394 31.387471 
L 242.046394 30.860785 
L 242.23017 30.860785 
L 242.23017 30.334099 
L 338.688 30.334099 
L 338.688 30.334099 
" style="fill:none;stroke:#ff00ff;stroke-linecap:square;stroke-width:1.5;"/>
   </g>
   <g id="line2d_41">
    <defs>
     <path d="M 0 8.485281 
L 5.091169 0 
L 0 -8.485281 
L -5.091169 0 
z
" id="m9e35ac415e" style="stroke:#ff00ff;stroke-linejoin:miter;stroke-width:1.5;"/>
    </defs>
    <g>
     <use style="fill-opacity:0;stroke:#ff00ff;stroke-linejoin:miter;stroke-width:1.5;" x="167.086355" xlink:href="#m9e35ac415e" y="288.936964"/>
     <use style="fill-opacity:0;stroke:#ff00ff;stroke-linejoin:miter;stroke-width:1.5;" x="213.916206" xlink:href="#m9e35ac415e" y="121.450791"/>
     <use style="fill-opacity:0;stroke:#ff00ff;stroke-linejoin:miter;stroke-width:1.5;" x="242.23017" xlink:href="#m9e35ac415e" y="30.860785"/>
     <use style="fill-opacity:0;stroke:#ff00ff;stroke-linejoin:miter;stroke-width:1.5;" x="242.23017" xlink:href="#m9e35ac415e" y="30.334099"/>
     <use style="fill-opacity:0;stroke:#ff00ff;stroke-linejoin:miter;stroke-width:1.5;" x="338.688" xlink:href="#m9e35ac415e" y="30.334099"/>
    </g>
   </g>
   <g id="line2d_42">
    <path style="fill:none;stroke:#ff00ff;stroke-linecap:square;stroke-width:1.5;"/>
    <g/>
   </g>
   <g id="line2d_43">
    <path clip-path="url(#pbb99f5d262)" d="M 206.133726 124.084221 
" style="fill:none;stroke:#ff00ff;stroke-linecap:square;stroke-width:1.5;"/>
    <defs>
     <path d="M -12 12 
L 12 -12 
M -12 -12 
L 12 12 
" id="m6d21bce752" style="stroke:#ff00ff;"/>
    </defs>
    <g clip-path="url(#pbb99f5d262)">
     <use style="fill:#ff00ff;stroke:#ff00ff;" x="206.133726" xlink:href="#m6d21bce752" y="124.084221"/>
    </g>
   </g>
   <g id="line2d_44">
    <defs>
     <path d="M 0 1.5 
C 0.397805 1.5 0.77937 1.341951 1.06066 1.06066 
C 1.341951 0.77937 1.5 0.397805 1.5 0 
C 1.5 -0.397805 1.341951 -0.77937 1.06066 -1.06066 
C 0.77937 -1.341951 0.397805 -1.5 0 -1.5 
C -0.397805 -1.5 -0.77937 -1.341951 -1.06066 -1.06066 
C -1.341951 -0.77937 -1.5 -0.397805 -1.5 0 
C -1.5 0.397805 -1.341951 0.77937 -1.06066 1.06066 
C -0.77937 1.341951 -0.397805 1.5 0 1.5 
z
" id="m808a551394" style="stroke:#ff7500;"/>
    </defs>
    <g>
     <use style="fill:#ff7500;stroke:#ff7500;" x="267.610266" xlink:href="#m808a551394" y="246.275392"/>
     <use style="fill:#ff7500;stroke:#ff7500;" x="267.610266" xlink:href="#m808a551394" y="246.275392"/>
    </g>
   </g>
   <g id="line2d_45">
    <path d="M 121.310093 298.944 
L 121.310093 298.417314 
L 122.191052 298.417314 
L 122.191052 297.890628 
L 129.630422 297.890628 
L 129.630422 297.363942 
L 158.449648 297.363942 
L 158.449648 296.837256 
L 160.069258 296.837256 
L 160.069258 296.31057 
L 161.370386 296.31057 
L 161.370386 295.783884 
L 163.879282 295.783884 
L 163.879282 295.257197 
L 165.995728 295.257197 
L 165.995728 294.730511 
L 166.134549 294.730511 
L 166.134549 294.203825 
L 167.346259 294.203825 
L 167.346259 293.677139 
L 170.050192 293.677139 
L 170.050192 293.150453 
L 172.883439 293.150453 
L 172.883439 292.623767 
L 175.415753 292.623767 
L 175.415753 292.097081 
L 177.558456 292.097081 
L 177.558456 291.570395 
L 177.728195 291.570395 
L 177.728195 291.043709 
L 178.738525 291.043709 
L 178.745235 289.990337 
L 180.711659 289.990337 
L 180.711659 289.463651 
L 181.494031 289.463651 
L 181.494031 288.936964 
L 181.961934 288.936964 
L 181.961934 288.410278 
L 183.469583 288.410278 
L 183.469583 287.883592 
L 183.690771 287.883592 
L 183.690771 287.356906 
L 186.58249 287.356906 
L 186.58249 286.303534 
L 186.765592 286.303534 
L 186.765592 285.776848 
L 188.38455 285.776848 
L 188.38455 285.250162 
L 188.522016 285.250162 
L 188.522016 284.723476 
L 188.875562 284.723476 
L 188.875562 284.19679 
L 190.517561 284.19679 
L 190.517561 283.670104 
L 191.404947 283.670104 
L 191.404947 283.143418 
L 191.536741 283.143418 
L 191.536741 282.616732 
L 191.829886 282.616732 
L 191.829886 282.090045 
L 192.521725 282.090045 
L 192.521725 281.563359 
L 192.926555 281.563359 
L 192.926555 281.036673 
L 193.197418 281.036673 
L 193.197418 280.509987 
L 193.449707 280.509987 
L 193.449707 279.983301 
L 194.049922 279.983301 
L 194.049922 279.456615 
L 194.285442 279.456615 
L 194.330794 278.403243 
L 194.509674 278.403243 
L 194.509674 277.876557 
L 194.667228 277.876557 
L 194.757867 276.296499 
L 194.821369 276.296499 
L 194.821369 275.769812 
L 195.373021 275.769812 
L 195.373021 275.243126 
L 196.066273 275.243126 
L 196.098549 274.189754 
L 196.421712 274.189754 
L 196.421712 273.663068 
L 197.661019 273.663068 
L 197.75601 272.609696 
L 197.783056 272.609696 
L 197.783056 272.08301 
L 197.943896 272.08301 
L 197.943896 271.556324 
L 198.191486 271.556324 
L 198.199733 270.502952 
L 198.309878 270.502952 
L 198.309878 269.976266 
L 198.610446 269.976266 
L 198.610446 269.449579 
L 198.811701 269.449579 
L 198.858345 268.396207 
L 199.281929 268.396207 
L 199.281929 267.869521 
L 199.476135 267.869521 
L 199.476135 267.342835 
L 199.926023 267.342835 
L 199.926023 266.816149 
L 201.048728 266.816149 
L 201.153457 265.762777 
L 201.190544 265.762777 
L 201.190544 265.236091 
L 201.584316 265.236091 
L 201.584316 264.709405 
L 202.361314 264.709405 
L 202.455027 263.656033 
L 202.530665 263.656033 
L 202.530665 263.129347 
L 202.661396 263.129347 
L 202.661396 262.60266 
L 202.77467 262.60266 
L 202.77467 262.075974 
L 203.093958 262.075974 
L 203.117194 261.022602 
L 203.556127 261.022602 
L 203.556127 260.495916 
L 203.685841 260.495916 
L 203.775911 258.915858 
L 204.222137 258.915858 
L 204.222137 258.389172 
L 204.689086 258.389172 
L 204.689086 257.862486 
L 204.806906 257.862486 
L 204.82233 256.809114 
L 205.046498 256.809114 
L 205.046498 256.282427 
L 205.193254 256.282427 
L 205.193254 255.755741 
L 205.417459 255.755741 
L 205.417459 255.229055 
L 206.002087 255.229055 
L 206.049115 254.175683 
L 216.094942 254.175683 
L 216.094942 253.648997 
L 218.00023 253.648997 
L 218.00023 253.122311 
L 224.172437 253.122311 
L 224.172437 252.595625 
L 224.475146 252.595625 
L 224.475146 252.068939 
L 225.057232 252.068939 
L 225.057232 251.015567 
L 229.476298 251.015567 
L 229.476298 250.488881 
L 230.133375 250.488881 
L 230.133375 249.962195 
L 236.97672 249.962195 
L 236.97672 249.435508 
L 239.96846 249.435508 
L 239.96846 248.908822 
L 249.431992 248.908822 
L 249.431992 248.382136 
L 250.766043 248.382136 
L 250.766043 247.85545 
L 252.106791 247.85545 
L 252.106791 247.328764 
L 253.274792 247.328764 
L 253.274792 246.802078 
L 267.610266 246.802078 
L 267.610266 246.275392 
L 338.688 246.275392 
L 338.688 246.275392 
" style="fill:none;stroke:#ff7500;stroke-linecap:square;stroke-width:1.5;"/>
   </g>
   <g id="line2d_46">
    <defs>
     <path d="M 0 -6 
L -1.347084 -1.854102 
L -5.706339 -1.854102 
L -2.179628 0.708204 
L -3.526712 4.854102 
L -0 2.291796 
L 3.526712 4.854102 
L 2.179628 0.708204 
L 5.706339 -1.854102 
L 1.347084 -1.854102 
z
" id="m27aa4b7dca" style="stroke:#ff7500;stroke-linejoin:bevel;stroke-width:1.5;"/>
    </defs>
    <g>
     <use style="fill-opacity:0;stroke:#ff7500;stroke-linejoin:bevel;stroke-width:1.5;" x="167.346259" xlink:href="#m27aa4b7dca" y="294.203825"/>
     <use style="fill-opacity:0;stroke:#ff7500;stroke-linejoin:bevel;stroke-width:1.5;" x="206.049115" xlink:href="#m27aa4b7dca" y="254.702369"/>
     <use style="fill-opacity:0;stroke:#ff7500;stroke-linejoin:bevel;stroke-width:1.5;" x="267.610266" xlink:href="#m27aa4b7dca" y="246.802078"/>
     <use style="fill-opacity:0;stroke:#ff7500;stroke-linejoin:bevel;stroke-width:1.5;" x="267.610266" xlink:href="#m27aa4b7dca" y="246.275392"/>
     <use style="fill-opacity:0;stroke:#ff7500;stroke-linejoin:bevel;stroke-width:1.5;" x="338.688" xlink:href="#m27aa4b7dca" y="246.275392"/>
    </g>
   </g>
   <g id="line2d_47">
    <path style="fill:none;stroke:#ff7500;stroke-linecap:square;stroke-width:1.5;"/>
    <g/>
   </g>
   <g id="line2d_48">
    <path clip-path="url(#pbb99f5d262)" d="M 206.133726 254.175683 
" style="fill:none;stroke:#ff7500;stroke-linecap:square;stroke-width:1.5;"/>
    <defs>
     <path d="M -12 12 
L 12 -12 
M -12 -12 
L 12 12 
" id="m0866f01438" style="stroke:#ff7500;"/>
    </defs>
    <g clip-path="url(#pbb99f5d262)">
     <use style="fill:#ff7500;stroke:#ff7500;" x="206.133726" xlink:href="#m0866f01438" y="254.175683"/>
    </g>
   </g>
   <g id="line2d_49">
    <path d="M 338.688 246.275392 
L 369.60768 293.571802 
" style="fill:none;stroke:#ff7500;stroke-linecap:square;stroke-width:1.5;"/>
    <g>
     <use style="fill-opacity:0;stroke:#ff7500;stroke-linejoin:bevel;stroke-width:1.5;" x="338.688" xlink:href="#m27aa4b7dca" y="246.275392"/>
     <use style="fill-opacity:0;stroke:#ff7500;stroke-linejoin:bevel;stroke-width:1.5;" x="369.60768" xlink:href="#m27aa4b7dca" y="293.571802"/>
    </g>
   </g>
   <g id="line2d_50">
    <path d="M 338.688 241.008531 
L 369.60768 207.616634 
" style="fill:none;stroke:#000080;stroke-linecap:square;stroke-width:1.5;"/>
    <g>
     <use style="fill-opacity:0;stroke:#000080;stroke-width:1.5;" x="338.688" xlink:href="#m6b55a9b501" y="241.008531"/>
     <use style="fill-opacity:0;stroke:#000080;stroke-width:1.5;" x="369.60768" xlink:href="#m6b55a9b501" y="207.616634"/>
    </g>
   </g>
   <g id="line2d_51">
    <path d="M 338.688 30.334099 
L 369.60768 121.661465 
" style="fill:none;stroke:#ff00ff;stroke-linecap:square;stroke-width:1.5;"/>
    <g>
     <use style="fill-opacity:0;stroke:#ff00ff;stroke-linejoin:miter;stroke-width:1.5;" x="338.688" xlink:href="#m9e35ac415e" y="30.334099"/>
     <use style="fill-opacity:0;stroke:#ff00ff;stroke-linejoin:miter;stroke-width:1.5;" x="369.60768" xlink:href="#m9e35ac415e" y="121.661465"/>
    </g>
   </g>
   <g id="line2d_52">
    <path d="M 338.688 298.944 
L 338.688 30.334099 
" style="fill:none;stroke:#000000;stroke-linecap:square;stroke-width:1.5;"/>
   </g>
   <g id="patch_3">
    <path d="M 57.6 298.944 
L 57.6 27.648 
" style="fill:none;stroke:#000000;stroke-linecap:square;stroke-linejoin:miter;stroke-width:0.8;"/>
   </g>
   <g id="patch_4">
    <path d="M 338.688 298.944 
L 338.688 27.648 
" style="fill:none;stroke:#000000;stroke-linecap:square;stroke-linejoin:miter;stroke-width:0.8;"/>
   </g>
   <g id="patch_5">
    <path d="M 57.6 298.944 
L 338.688 298.944 
" style="fill:none;stroke:#000000;stroke-linecap:square;stroke-linejoin:miter;stroke-width:0.8;"/>
   </g>
   <g id="patch_6">
    <path d="M 57.6 27.648 
L 338.688 27.648 
" style="fill:none;stroke:#000000;stroke-linecap:square;stroke-linejoin:miter;stroke-width:0.8;"/>
   </g>
   <g id="text_13">
    <!-- PSO EDA -->
    <g transform="translate(375.22944 298.262739)scale(0.17 -0.17)">
     <defs>
      <path d="M 1259 4147 
L 1259 2394 
L 2053 2394 
Q 2494 2394 2734 2622 
Q 2975 2850 2975 3272 
Q 2975 3691 2734 3919 
Q 2494 4147 2053 4147 
L 1259 4147 
z
M 628 4666 
L 2053 4666 
Q 2838 4666 3239 4311 
Q 3641 3956 3641 3272 
Q 3641 2581 3239 2228 
Q 2838 1875 2053 1875 
L 1259 1875 
L 1259 0 
L 628 0 
L 628 4666 
z
" id="DejaVuSans-50" transform="scale(0.015625)"/>
      <path d="M 3425 4513 
L 3425 3897 
Q 3066 4069 2747 4153 
Q 2428 4238 2131 4238 
Q 1616 4238 1336 4038 
Q 1056 3838 1056 3469 
Q 1056 3159 1242 3001 
Q 1428 2844 1947 2747 
L 2328 2669 
Q 3034 2534 3370 2195 
Q 3706 1856 3706 1288 
Q 3706 609 3251 259 
Q 2797 -91 1919 -91 
Q 1588 -91 1214 -16 
Q 841 59 441 206 
L 441 856 
Q 825 641 1194 531 
Q 1563 422 1919 422 
Q 2459 422 2753 634 
Q 3047 847 3047 1241 
Q 3047 1584 2836 1778 
Q 2625 1972 2144 2069 
L 1759 2144 
Q 1053 2284 737 2584 
Q 422 2884 422 3419 
Q 422 4038 858 4394 
Q 1294 4750 2059 4750 
Q 2388 4750 2728 4690 
Q 3069 4631 3425 4513 
z
" id="DejaVuSans-53" transform="scale(0.015625)"/>
      <path d="M 2522 4238 
Q 1834 4238 1429 3725 
Q 1025 3213 1025 2328 
Q 1025 1447 1429 934 
Q 1834 422 2522 422 
Q 3209 422 3611 934 
Q 4013 1447 4013 2328 
Q 4013 3213 3611 3725 
Q 3209 4238 2522 4238 
z
M 2522 4750 
Q 3503 4750 4090 4092 
Q 4678 3434 4678 2328 
Q 4678 1225 4090 567 
Q 3503 -91 2522 -91 
Q 1538 -91 948 565 
Q 359 1222 359 2328 
Q 359 3434 948 4092 
Q 1538 4750 2522 4750 
z
" id="DejaVuSans-4f" transform="scale(0.015625)"/>
      <path d="M 628 4666 
L 3578 4666 
L 3578 4134 
L 1259 4134 
L 1259 2753 
L 3481 2753 
L 3481 2222 
L 1259 2222 
L 1259 531 
L 3634 531 
L 3634 0 
L 628 0 
L 628 4666 
z
" id="DejaVuSans-45" transform="scale(0.015625)"/>
      <path d="M 1259 4147 
L 1259 519 
L 2022 519 
Q 2988 519 3436 956 
Q 3884 1394 3884 2338 
Q 3884 3275 3436 3711 
Q 2988 4147 2022 4147 
L 1259 4147 
z
M 628 4666 
L 1925 4666 
Q 3281 4666 3915 4102 
Q 4550 3538 4550 2338 
Q 4550 1131 3912 565 
Q 3275 0 1925 0 
L 628 0 
L 628 4666 
z
" id="DejaVuSans-44" transform="scale(0.015625)"/>
      <path d="M 2188 4044 
L 1331 1722 
L 3047 1722 
L 2188 4044 
z
M 1831 4666 
L 2547 4666 
L 4325 0 
L 3669 0 
L 3244 1197 
L 1141 1197 
L 716 0 
L 50 0 
L 1831 4666 
z
" id="DejaVuSans-41" transform="scale(0.015625)"/>
     </defs>
     <use xlink:href="#DejaVuSans-50"/>
     <use x="60.302734" xlink:href="#DejaVuSans-53"/>
     <use x="123.779297" xlink:href="#DejaVuSans-4f"/>
     <use x="202.490234" xlink:href="#DejaVuSans-20"/>
     <use x="234.277344" xlink:href="#DejaVuSans-45"/>
     <use x="297.460938" xlink:href="#DejaVuSans-44"/>
     <use x="372.712891" xlink:href="#DejaVuSans-41"/>
    </g>
   </g>
   <g id="text_14">
    <!-- PSO -->
    <g transform="translate(375.22944 212.307571)scale(0.17 -0.17)">
     <use xlink:href="#DejaVuSans-50"/>
     <use x="60.302734" xlink:href="#DejaVuSans-53"/>
     <use x="123.779297" xlink:href="#DejaVuSans-4f"/>
    </g>
   </g>
   <g id="text_15">
    <!-- PSO Bound -->
    <g transform="translate(375.22944 126.352403)scale(0.17 -0.17)">
     <defs>
      <path d="M 1259 2228 
L 1259 519 
L 2272 519 
Q 2781 519 3026 730 
Q 3272 941 3272 1375 
Q 3272 1813 3026 2020 
Q 2781 2228 2272 2228 
L 1259 2228 
z
M 1259 4147 
L 1259 2741 
L 2194 2741 
Q 2656 2741 2882 2914 
Q 3109 3088 3109 3444 
Q 3109 3797 2882 3972 
Q 2656 4147 2194 4147 
L 1259 4147 
z
M 628 4666 
L 2241 4666 
Q 2963 4666 3353 4366 
Q 3744 4066 3744 3513 
Q 3744 3084 3544 2831 
Q 3344 2578 2956 2516 
Q 3422 2416 3680 2098 
Q 3938 1781 3938 1306 
Q 3938 681 3513 340 
Q 3088 0 2303 0 
L 628 0 
L 628 4666 
z
" id="DejaVuSans-42" transform="scale(0.015625)"/>
     </defs>
     <use xlink:href="#DejaVuSans-50"/>
     <use x="60.302734" xlink:href="#DejaVuSans-53"/>
     <use x="123.779297" xlink:href="#DejaVuSans-4f"/>
     <use x="202.490234" xlink:href="#DejaVuSans-20"/>
     <use x="234.277344" xlink:href="#DejaVuSans-42"/>
     <use x="302.880859" xlink:href="#DejaVuSans-6f"/>
     <use x="364.0625" xlink:href="#DejaVuSans-75"/>
     <use x="427.441406" xlink:href="#DejaVuSans-6e"/>
     <use x="490.820312" xlink:href="#DejaVuSans-64"/>
    </g>
   </g>
   <g id="text_16">
    <!-- best 2009 -->
    <g transform="translate(375.22944 40.397235)scale(0.17 -0.17)">
     <defs>
      <path d="M 3116 1747 
Q 3116 2381 2855 2742 
Q 2594 3103 2138 3103 
Q 1681 3103 1420 2742 
Q 1159 2381 1159 1747 
Q 1159 1113 1420 752 
Q 1681 391 2138 391 
Q 2594 391 2855 752 
Q 3116 1113 3116 1747 
z
M 1159 2969 
Q 1341 3281 1617 3432 
Q 1894 3584 2278 3584 
Q 2916 3584 3314 3078 
Q 3713 2572 3713 1747 
Q 3713 922 3314 415 
Q 2916 -91 2278 -91 
Q 1894 -91 1617 61 
Q 1341 213 1159 525 
L 1159 0 
L 581 0 
L 581 4863 
L 1159 4863 
L 1159 2969 
z
" id="DejaVuSans-62" transform="scale(0.015625)"/>
      <path d="M 703 97 
L 703 672 
Q 941 559 1184 500 
Q 1428 441 1663 441 
Q 2288 441 2617 861 
Q 2947 1281 2994 2138 
Q 2813 1869 2534 1725 
Q 2256 1581 1919 1581 
Q 1219 1581 811 2004 
Q 403 2428 403 3163 
Q 403 3881 828 4315 
Q 1253 4750 1959 4750 
Q 2769 4750 3195 4129 
Q 3622 3509 3622 2328 
Q 3622 1225 3098 567 
Q 2575 -91 1691 -91 
Q 1453 -91 1209 -44 
Q 966 3 703 97 
z
M 1959 2075 
Q 2384 2075 2632 2365 
Q 2881 2656 2881 3163 
Q 2881 3666 2632 3958 
Q 2384 4250 1959 4250 
Q 1534 4250 1286 3958 
Q 1038 3666 1038 3163 
Q 1038 2656 1286 2365 
Q 1534 2075 1959 2075 
z
" id="DejaVuSans-39" transform="scale(0.015625)"/>
     </defs>
     <use xlink:href="#DejaVuSans-62"/>
     <use x="63.476562" xlink:href="#DejaVuSans-65"/>
     <use x="125" xlink:href="#DejaVuSans-73"/>
     <use x="177.099609" xlink:href="#DejaVuSans-74"/>
     <use x="216.308594" xlink:href="#DejaVuSans-20"/>
     <use x="248.095703" xlink:href="#DejaVuSans-32"/>
     <use x="311.71875" xlink:href="#DejaVuSans-30"/>
     <use x="375.341797" xlink:href="#DejaVuSans-30"/>
     <use x="438.964844" xlink:href="#DejaVuSans-39"/>
    </g>
   </g>
   <g id="text_17">
    <!-- bbob f3, 10-D -->
    <g transform="translate(60.41088 38.111366)scale(0.102 -0.102)">
     <defs>
      <path d="M 2597 2516 
Q 3050 2419 3304 2112 
Q 3559 1806 3559 1356 
Q 3559 666 3084 287 
Q 2609 -91 1734 -91 
Q 1441 -91 1130 -33 
Q 819 25 488 141 
L 488 750 
Q 750 597 1062 519 
Q 1375 441 1716 441 
Q 2309 441 2620 675 
Q 2931 909 2931 1356 
Q 2931 1769 2642 2001 
Q 2353 2234 1838 2234 
L 1294 2234 
L 1294 2753 
L 1863 2753 
Q 2328 2753 2575 2939 
Q 2822 3125 2822 3475 
Q 2822 3834 2567 4026 
Q 2313 4219 1838 4219 
Q 1578 4219 1281 4162 
Q 984 4106 628 3988 
L 628 4550 
Q 988 4650 1302 4700 
Q 1616 4750 1894 4750 
Q 2613 4750 3031 4423 
Q 3450 4097 3450 3541 
Q 3450 3153 3228 2886 
Q 3006 2619 2597 2516 
z
" id="DejaVuSans-33" transform="scale(0.015625)"/>
     </defs>
     <use xlink:href="#DejaVuSans-62"/>
     <use x="63.476562" xlink:href="#DejaVuSans-62"/>
     <use x="126.953125" xlink:href="#DejaVuSans-6f"/>
     <use x="188.134766" xlink:href="#DejaVuSans-62"/>
     <use x="251.611328" xlink:href="#DejaVuSans-20"/>
     <use x="283.398438" xlink:href="#DejaVuSans-66"/>
     <use x="318.603516" xlink:href="#DejaVuSans-33"/>
     <use x="382.226562" xlink:href="#DejaVuSans-2c"/>
     <use x="414.013672" xlink:href="#DejaVuSans-20"/>
     <use x="445.800781" xlink:href="#DejaVuSans-31"/>
     <use x="509.423828" xlink:href="#DejaVuSans-30"/>
     <use x="573.046875" xlink:href="#DejaVuSans-2d"/>
     <use x="609.130859" xlink:href="#DejaVuSans-44"/>
    </g>
    <!-- 51 targets: 100..1e-08 -->
    <g transform="translate(60.41088 49.533135)scale(0.102 -0.102)">
     <defs>
      <path d="M 691 4666 
L 3169 4666 
L 3169 4134 
L 1269 4134 
L 1269 2991 
Q 1406 3038 1543 3061 
Q 1681 3084 1819 3084 
Q 2600 3084 3056 2656 
Q 3513 2228 3513 1497 
Q 3513 744 3044 326 
Q 2575 -91 1722 -91 
Q 1428 -91 1123 -41 
Q 819 9 494 109 
L 494 744 
Q 775 591 1075 516 
Q 1375 441 1709 441 
Q 2250 441 2565 725 
Q 2881 1009 2881 1497 
Q 2881 1984 2565 2268 
Q 2250 2553 1709 2553 
Q 1456 2553 1204 2497 
Q 953 2441 691 2322 
L 691 4666 
z
" id="DejaVuSans-35" transform="scale(0.015625)"/>
      <path d="M 750 794 
L 1409 794 
L 1409 0 
L 750 0 
L 750 794 
z
M 750 3309 
L 1409 3309 
L 1409 2516 
L 750 2516 
L 750 3309 
z
" id="DejaVuSans-3a" transform="scale(0.015625)"/>
     </defs>
     <use xlink:href="#DejaVuSans-35"/>
     <use x="63.623047" xlink:href="#DejaVuSans-31"/>
     <use x="127.246094" xlink:href="#DejaVuSans-20"/>
     <use x="159.033203" xlink:href="#DejaVuSans-74"/>
     <use x="198.242188" xlink:href="#DejaVuSans-61"/>
     <use x="259.521484" xlink:href="#DejaVuSans-72"/>
     <use x="298.884766" xlink:href="#DejaVuSans-67"/>
     <use x="362.361328" xlink:href="#DejaVuSans-65"/>
     <use x="423.884766" xlink:href="#DejaVuSans-74"/>
     <use x="463.09375" xlink:href="#DejaVuSans-73"/>
     <use x="515.193359" xlink:href="#DejaVuSans-3a"/>
     <use x="548.884766" xlink:href="#DejaVuSans-20"/>
     <use x="580.671875" xlink:href="#DejaVuSans-31"/>
     <use x="644.294922" xlink:href="#DejaVuSans-30"/>
     <use x="707.917969" xlink:href="#DejaVuSans-30"/>
     <use x="771.541016" xlink:href="#DejaVuSans-2e"/>
     <use x="803.328125" xlink:href="#DejaVuSans-2e"/>
     <use x="835.115234" xlink:href="#DejaVuSans-31"/>
     <use x="898.738281" xlink:href="#DejaVuSans-65"/>
     <use x="960.261719" xlink:href="#DejaVuSans-2d"/>
     <use x="996.345703" xlink:href="#DejaVuSans-30"/>
     <use x="1059.96875" xlink:href="#DejaVuSans-38"/>
    </g>
    <!-- 15 instances -->
    <g transform="translate(60.41088 60.954904)scale(0.102 -0.102)">
     <use xlink:href="#DejaVuSans-31"/>
     <use x="63.623047" xlink:href="#DejaVuSans-35"/>
     <use x="127.246094" xlink:href="#DejaVuSans-20"/>
     <use x="159.033203" xlink:href="#DejaVuSans-69"/>
     <use x="186.816406" xlink:href="#DejaVuSans-6e"/>
     <use x="250.195312" xlink:href="#DejaVuSans-73"/>
     <use x="302.294922" xlink:href="#DejaVuSans-74"/>
     <use x="341.503906" xlink:href="#DejaVuSans-61"/>
     <use x="402.783203" xlink:href="#DejaVuSans-6e"/>
     <use x="466.162109" xlink:href="#DejaVuSans-63"/>
     <use x="521.142578" xlink:href="#DejaVuSans-65"/>
     <use x="582.666016" xlink:href="#DejaVuSans-73"/>
    </g>
   </g>
   <g id="text_18">
    <!-- v2.4 -->
    <g style="fill:#808080;" transform="translate(187.233062 294.151352)scale(0.1 -0.1)">
     <use xlink:href="#DejaVuSans-76"/>
     <use x="59.179688" xlink:href="#DejaVuSans-32"/>
     <use x="122.802734" xlink:href="#DejaVuSans-2e"/>
     <use x="154.589844" xlink:href="#DejaVuSans-34"/>
    </g>
   </g>
   <g id="text_19">
    <!-- 3 Rastrigin separable -->
    <g transform="translate(91.733062 21.648)scale(0.2 -0.2)">
     <defs>
      <path d="M 2841 2188 
Q 3044 2119 3236 1894 
Q 3428 1669 3622 1275 
L 4263 0 
L 3584 0 
L 2988 1197 
Q 2756 1666 2539 1819 
Q 2322 1972 1947 1972 
L 1259 1972 
L 1259 0 
L 628 0 
L 628 4666 
L 2053 4666 
Q 2853 4666 3247 4331 
Q 3641 3997 3641 3322 
Q 3641 2881 3436 2590 
Q 3231 2300 2841 2188 
z
M 1259 4147 
L 1259 2491 
L 2053 2491 
Q 2509 2491 2742 2702 
Q 2975 2913 2975 3322 
Q 2975 3731 2742 3939 
Q 2509 4147 2053 4147 
L 1259 4147 
z
" id="DejaVuSans-52" transform="scale(0.015625)"/>
     </defs>
     <use xlink:href="#DejaVuSans-33"/>
     <use x="63.623047" xlink:href="#DejaVuSans-20"/>
     <use x="95.410156" xlink:href="#DejaVuSans-52"/>
     <use x="162.642578" xlink:href="#DejaVuSans-61"/>
     <use x="223.921875" xlink:href="#DejaVuSans-73"/>
     <use x="276.021484" xlink:href="#DejaVuSans-74"/>
     <use x="315.230469" xlink:href="#DejaVuSans-72"/>
     <use x="356.34375" xlink:href="#DejaVuSans-69"/>
     <use x="384.126953" xlink:href="#DejaVuSans-67"/>
     <use x="447.603516" xlink:href="#DejaVuSans-69"/>
     <use x="475.386719" xlink:href="#DejaVuSans-6e"/>
     <use x="538.765625" xlink:href="#DejaVuSans-20"/>
     <use x="570.552734" xlink:href="#DejaVuSans-73"/>
     <use x="622.652344" xlink:href="#DejaVuSans-65"/>
     <use x="684.175781" xlink:href="#DejaVuSans-70"/>
     <use x="747.652344" xlink:href="#DejaVuSans-61"/>
     <use x="808.931641" xlink:href="#DejaVuSans-72"/>
     <use x="850.044922" xlink:href="#DejaVuSans-61"/>
     <use x="911.324219" xlink:href="#DejaVuSans-62"/>
     <use x="974.800781" xlink:href="#DejaVuSans-6c"/>
     <use x="1002.583984" xlink:href="#DejaVuSans-65"/>
    </g>
   </g>
  </g>
 </g>
 <defs>
  <clipPath id="pbb99f5d262">
   <rect height="271.296" width="281.088" x="57.6" y="27.648"/>
  </clipPath>
 </defs>
</svg>
