<?xml version="1.0" encoding="utf-8" standalone="no"?>
<!DOCTYPE svg PUBLIC "-//W3C//DTD SVG 1.1//EN"
  "http://www.w3.org/Graphics/SVG/1.1/DTD/svg11.dtd">
<svg height="345.6pt" version="1.1" viewBox="0 0 460.8 345.6" width="460.8pt" xmlns="http://www.w3.org/2000/svg" xmlns:xlink="http://www.w3.org/1999/xlink">
 <metadata>
  <rdf:RDF xmlns:cc="http://creativecommons.org/ns#" xmlns:dc="http://purl.org/dc/elements/1.1/" xmlns:rdf="http://www.w3.org/1999/02/22-rdf-syntax-ns#">
   <cc:Work>
    <dc:type rdf:resource="http://purl.org/dc/dcmitype/StillImage"/>
    <dc:date>2021-04-25T03:18:35.396996</dc:date>
    <dc:format>image/svg+xml</dc:format>
    <dc:creator>
     <cc:Agent>
      <dc:title>Matplotlib v3.4.1, https://matplotlib.org/</dc:title>
     </cc:Agent>
    </dc:creator>
   </cc:Work>
  </rdf:RDF>
 </metadata>
 <defs>
  <style type="text/css">*{stroke-linecap:butt;stroke-linejoin:round;}</style>
 </defs>
 <g id="figure_1">
  <g id="patch_1">
   <path d="M 0 345.6 
L 460.8 345.6 
L 460.8 0 
L 0 0 
z
" style="fill:#ffffff;"/>
  </g>
  <g id="axes_1">
   <g id="patch_2">
    <path d="M 57.6 298.944 
L 338.688 298.944 
L 338.688 27.648 
L 57.6 27.648 
z
" style="fill:#ffffff;"/>
   </g>
   <g id="line2d_1">
    <path d="M 38.440992 298.944 
L 38.440992 277.876557 
L 57.6 277.876557 
L 57.6 272.609696 
L 62.616969 272.609696 
L 62.616969 262.075974 
L 66.508432 262.075974 
L 66.508432 256.809114 
L 69.687988 256.809114 
L 69.687988 251.542253 
L 74.704957 251.542253 
L 74.704957 30.334099 
L 338.688 30.334099 
" style="fill:none;stroke:#f5deb3;stroke-linecap:square;stroke-width:4;"/>
   </g>
   <g id="line2d_2">
    <defs>
     <path d="M 0 7.778175 
L 7.778175 0 
L 0 -7.778175 
L -7.778175 0 
z
" id="m8f9f05cd05" style="stroke:#f5deb3;stroke-linejoin:miter;stroke-width:1.5;"/>
    </defs>
    <g>
     <use style="fill:#f5deb3;stroke:#f5deb3;stroke-linejoin:miter;stroke-width:1.5;" x="69.687988" xlink:href="#m8f9f05cd05" y="251.542253"/>
     <use style="fill:#f5deb3;stroke:#f5deb3;stroke-linejoin:miter;stroke-width:1.5;" x="74.704957" xlink:href="#m8f9f05cd05" y="251.542253"/>
     <use style="fill:#f5deb3;stroke:#f5deb3;stroke-linejoin:miter;stroke-width:1.5;" x="74.704957" xlink:href="#m8f9f05cd05" y="30.334099"/>
     <use style="fill:#f5deb3;stroke:#f5deb3;stroke-linejoin:miter;stroke-width:1.5;" x="74.704957" xlink:href="#m8f9f05cd05" y="30.334099"/>
     <use style="fill:#f5deb3;stroke:#f5deb3;stroke-linejoin:miter;stroke-width:1.5;" x="74.704957" xlink:href="#m8f9f05cd05" y="30.334099"/>
     <use style="fill:#f5deb3;stroke:#f5deb3;stroke-linejoin:miter;stroke-width:1.5;" x="338.688" xlink:href="#m8f9f05cd05" y="30.334099"/>
    </g>
   </g>
   <g id="line2d_3">
    <path style="fill:none;stroke:#f5deb3;stroke-linecap:square;stroke-width:4;"/>
    <g/>
   </g>
   <g id="line2d_4">
    <path d="M 338.688 30.334099 
L 369.60768 35.706297 
" style="fill:none;stroke:#f5deb3;stroke-linecap:square;stroke-width:4;"/>
    <g>
     <use style="fill:#f5deb3;stroke:#f5deb3;stroke-linejoin:miter;stroke-width:1.5;" x="338.688" xlink:href="#m8f9f05cd05" y="30.334099"/>
     <use style="fill:#f5deb3;stroke:#f5deb3;stroke-linejoin:miter;stroke-width:1.5;" x="369.60768" xlink:href="#m8f9f05cd05" y="35.706297"/>
    </g>
   </g>
   <g id="matplotlib.axis_1">
    <g id="xtick_1">
     <g id="line2d_5">
      <path clip-path="url(#ped1df1d65d)" d="M 57.6 298.944 
L 57.6 27.648 
" style="fill:none;stroke:#b0b0b0;stroke-linecap:square;stroke-width:0.8;"/>
     </g>
     <g id="line2d_6">
      <defs>
       <path d="M 0 0 
L 0 3.5 
" id="m2a30658089" style="stroke:#000000;stroke-width:0.8;"/>
      </defs>
      <g>
       <use style="stroke:#000000;stroke-width:0.8;" x="57.6" xlink:href="#m2a30658089" y="298.944"/>
      </g>
     </g>
     <g id="text_1">
      <!-- 0 -->
      <g transform="translate(51.2375 321.140875)scale(0.2 -0.2)">
       <defs>
        <path d="M 2034 4250 
Q 1547 4250 1301 3770 
Q 1056 3291 1056 2328 
Q 1056 1369 1301 889 
Q 1547 409 2034 409 
Q 2525 409 2770 889 
Q 3016 1369 3016 2328 
Q 3016 3291 2770 3770 
Q 2525 4250 2034 4250 
z
M 2034 4750 
Q 2819 4750 3233 4129 
Q 3647 3509 3647 2328 
Q 3647 1150 3233 529 
Q 2819 -91 2034 -91 
Q 1250 -91 836 529 
Q 422 1150 422 2328 
Q 422 3509 836 4129 
Q 1250 4750 2034 4750 
z
" id="DejaVuSans-30" transform="scale(0.015625)"/>
       </defs>
       <use xlink:href="#DejaVuSans-30"/>
      </g>
     </g>
    </g>
    <g id="xtick_2">
     <g id="line2d_7">
      <path clip-path="url(#ped1df1d65d)" d="M 137.910857 298.944 
L 137.910857 27.648 
" style="fill:none;stroke:#b0b0b0;stroke-linecap:square;stroke-width:0.8;"/>
     </g>
     <g id="line2d_8">
      <g>
       <use style="stroke:#000000;stroke-width:0.8;" x="137.910857" xlink:href="#m2a30658089" y="298.944"/>
      </g>
     </g>
     <g id="text_2">
      <!-- 2 -->
      <g transform="translate(131.548357 321.140875)scale(0.2 -0.2)">
       <defs>
        <path d="M 1228 531 
L 3431 531 
L 3431 0 
L 469 0 
L 469 531 
Q 828 903 1448 1529 
Q 2069 2156 2228 2338 
Q 2531 2678 2651 2914 
Q 2772 3150 2772 3378 
Q 2772 3750 2511 3984 
Q 2250 4219 1831 4219 
Q 1534 4219 1204 4116 
Q 875 4013 500 3803 
L 500 4441 
Q 881 4594 1212 4672 
Q 1544 4750 1819 4750 
Q 2544 4750 2975 4387 
Q 3406 4025 3406 3419 
Q 3406 3131 3298 2873 
Q 3191 2616 2906 2266 
Q 2828 2175 2409 1742 
Q 1991 1309 1228 531 
z
" id="DejaVuSans-32" transform="scale(0.015625)"/>
       </defs>
       <use xlink:href="#DejaVuSans-32"/>
      </g>
     </g>
    </g>
    <g id="xtick_3">
     <g id="line2d_9">
      <path clip-path="url(#ped1df1d65d)" d="M 218.221714 298.944 
L 218.221714 27.648 
" style="fill:none;stroke:#b0b0b0;stroke-linecap:square;stroke-width:0.8;"/>
     </g>
     <g id="line2d_10">
      <g>
       <use style="stroke:#000000;stroke-width:0.8;" x="218.221714" xlink:href="#m2a30658089" y="298.944"/>
      </g>
     </g>
     <g id="text_3">
      <!-- 4 -->
      <g transform="translate(211.859214 321.140875)scale(0.2 -0.2)">
       <defs>
        <path d="M 2419 4116 
L 825 1625 
L 2419 1625 
L 2419 4116 
z
M 2253 4666 
L 3047 4666 
L 3047 1625 
L 3713 1625 
L 3713 1100 
L 3047 1100 
L 3047 0 
L 2419 0 
L 2419 1100 
L 313 1100 
L 313 1709 
L 2253 4666 
z
" id="DejaVuSans-34" transform="scale(0.015625)"/>
       </defs>
       <use xlink:href="#DejaVuSans-34"/>
      </g>
     </g>
    </g>
    <g id="xtick_4">
     <g id="line2d_11">
      <path clip-path="url(#ped1df1d65d)" d="M 298.532571 298.944 
L 298.532571 27.648 
" style="fill:none;stroke:#b0b0b0;stroke-linecap:square;stroke-width:0.8;"/>
     </g>
     <g id="line2d_12">
      <g>
       <use style="stroke:#000000;stroke-width:0.8;" x="298.532571" xlink:href="#m2a30658089" y="298.944"/>
      </g>
     </g>
     <g id="text_4">
      <!-- 6 -->
      <g transform="translate(292.170071 321.140875)scale(0.2 -0.2)">
       <defs>
        <path d="M 2113 2584 
Q 1688 2584 1439 2293 
Q 1191 2003 1191 1497 
Q 1191 994 1439 701 
Q 1688 409 2113 409 
Q 2538 409 2786 701 
Q 3034 994 3034 1497 
Q 3034 2003 2786 2293 
Q 2538 2584 2113 2584 
z
M 3366 4563 
L 3366 3988 
Q 3128 4100 2886 4159 
Q 2644 4219 2406 4219 
Q 1781 4219 1451 3797 
Q 1122 3375 1075 2522 
Q 1259 2794 1537 2939 
Q 1816 3084 2150 3084 
Q 2853 3084 3261 2657 
Q 3669 2231 3669 1497 
Q 3669 778 3244 343 
Q 2819 -91 2113 -91 
Q 1303 -91 875 529 
Q 447 1150 447 2328 
Q 447 3434 972 4092 
Q 1497 4750 2381 4750 
Q 2619 4750 2861 4703 
Q 3103 4656 3366 4563 
z
" id="DejaVuSans-36" transform="scale(0.015625)"/>
       </defs>
       <use xlink:href="#DejaVuSans-36"/>
      </g>
     </g>
    </g>
    <g id="xtick_5">
     <g id="line2d_13">
      <path clip-path="url(#ped1df1d65d)" d="M 97.755429 298.944 
L 97.755429 27.648 
" style="fill:none;stroke:#b0b0b0;stroke-linecap:square;stroke-width:0.8;"/>
     </g>
     <g id="line2d_14">
      <defs>
       <path d="M 0 0 
L 0 2 
" id="m879a6e73c4" style="stroke:#000000;stroke-width:0.6;"/>
      </defs>
      <g>
       <use style="stroke:#000000;stroke-width:0.6;" x="97.755429" xlink:href="#m879a6e73c4" y="298.944"/>
      </g>
     </g>
    </g>
    <g id="xtick_6">
     <g id="line2d_15">
      <path clip-path="url(#ped1df1d65d)" d="M 178.066286 298.944 
L 178.066286 27.648 
" style="fill:none;stroke:#b0b0b0;stroke-linecap:square;stroke-width:0.8;"/>
     </g>
     <g id="line2d_16">
      <g>
       <use style="stroke:#000000;stroke-width:0.6;" x="178.066286" xlink:href="#m879a6e73c4" y="298.944"/>
      </g>
     </g>
    </g>
    <g id="xtick_7">
     <g id="line2d_17">
      <path clip-path="url(#ped1df1d65d)" d="M 258.377143 298.944 
L 258.377143 27.648 
" style="fill:none;stroke:#b0b0b0;stroke-linecap:square;stroke-width:0.8;"/>
     </g>
     <g id="line2d_18">
      <g>
       <use style="stroke:#000000;stroke-width:0.6;" x="258.377143" xlink:href="#m879a6e73c4" y="298.944"/>
      </g>
     </g>
    </g>
    <g id="xtick_8">
     <g id="line2d_19">
      <path clip-path="url(#ped1df1d65d)" d="M 338.688 298.944 
L 338.688 27.648 
" style="fill:none;stroke:#b0b0b0;stroke-linecap:square;stroke-width:0.8;"/>
     </g>
     <g id="line2d_20">
      <g>
       <use style="stroke:#000000;stroke-width:0.6;" x="338.688" xlink:href="#m879a6e73c4" y="298.944"/>
      </g>
     </g>
    </g>
    <g id="text_5">
     <!-- log10(# f-evals / dimension) -->
     <g transform="translate(77.764078 342.217594)scale(0.17 -0.17)">
      <defs>
       <path d="M 603 4863 
L 1178 4863 
L 1178 0 
L 603 0 
L 603 4863 
z
" id="DejaVuSans-6c" transform="scale(0.015625)"/>
       <path d="M 1959 3097 
Q 1497 3097 1228 2736 
Q 959 2375 959 1747 
Q 959 1119 1226 758 
Q 1494 397 1959 397 
Q 2419 397 2687 759 
Q 2956 1122 2956 1747 
Q 2956 2369 2687 2733 
Q 2419 3097 1959 3097 
z
M 1959 3584 
Q 2709 3584 3137 3096 
Q 3566 2609 3566 1747 
Q 3566 888 3137 398 
Q 2709 -91 1959 -91 
Q 1206 -91 779 398 
Q 353 888 353 1747 
Q 353 2609 779 3096 
Q 1206 3584 1959 3584 
z
" id="DejaVuSans-6f" transform="scale(0.015625)"/>
       <path d="M 2906 1791 
Q 2906 2416 2648 2759 
Q 2391 3103 1925 3103 
Q 1463 3103 1205 2759 
Q 947 2416 947 1791 
Q 947 1169 1205 825 
Q 1463 481 1925 481 
Q 2391 481 2648 825 
Q 2906 1169 2906 1791 
z
M 3481 434 
Q 3481 -459 3084 -895 
Q 2688 -1331 1869 -1331 
Q 1566 -1331 1297 -1286 
Q 1028 -1241 775 -1147 
L 775 -588 
Q 1028 -725 1275 -790 
Q 1522 -856 1778 -856 
Q 2344 -856 2625 -561 
Q 2906 -266 2906 331 
L 2906 616 
Q 2728 306 2450 153 
Q 2172 0 1784 0 
Q 1141 0 747 490 
Q 353 981 353 1791 
Q 353 2603 747 3093 
Q 1141 3584 1784 3584 
Q 2172 3584 2450 3431 
Q 2728 3278 2906 2969 
L 2906 3500 
L 3481 3500 
L 3481 434 
z
" id="DejaVuSans-67" transform="scale(0.015625)"/>
       <path d="M 794 531 
L 1825 531 
L 1825 4091 
L 703 3866 
L 703 4441 
L 1819 4666 
L 2450 4666 
L 2450 531 
L 3481 531 
L 3481 0 
L 794 0 
L 794 531 
z
" id="DejaVuSans-31" transform="scale(0.015625)"/>
       <path d="M 1984 4856 
Q 1566 4138 1362 3434 
Q 1159 2731 1159 2009 
Q 1159 1288 1364 580 
Q 1569 -128 1984 -844 
L 1484 -844 
Q 1016 -109 783 600 
Q 550 1309 550 2009 
Q 550 2706 781 3412 
Q 1013 4119 1484 4856 
L 1984 4856 
z
" id="DejaVuSans-28" transform="scale(0.015625)"/>
       <path d="M 3272 2816 
L 2363 2816 
L 2100 1772 
L 3016 1772 
L 3272 2816 
z
M 2803 4594 
L 2478 3297 
L 3391 3297 
L 3719 4594 
L 4219 4594 
L 3897 3297 
L 4872 3297 
L 4872 2816 
L 3775 2816 
L 3519 1772 
L 4513 1772 
L 4513 1294 
L 3397 1294 
L 3072 0 
L 2572 0 
L 2894 1294 
L 1978 1294 
L 1656 0 
L 1153 0 
L 1478 1294 
L 494 1294 
L 494 1772 
L 1594 1772 
L 1856 2816 
L 850 2816 
L 850 3297 
L 1978 3297 
L 2297 4594 
L 2803 4594 
z
" id="DejaVuSans-23" transform="scale(0.015625)"/>
       <path id="DejaVuSans-20" transform="scale(0.015625)"/>
       <path d="M 2375 4863 
L 2375 4384 
L 1825 4384 
Q 1516 4384 1395 4259 
Q 1275 4134 1275 3809 
L 1275 3500 
L 2222 3500 
L 2222 3053 
L 1275 3053 
L 1275 0 
L 697 0 
L 697 3053 
L 147 3053 
L 147 3500 
L 697 3500 
L 697 3744 
Q 697 4328 969 4595 
Q 1241 4863 1831 4863 
L 2375 4863 
z
" id="DejaVuSans-66" transform="scale(0.015625)"/>
       <path d="M 313 2009 
L 1997 2009 
L 1997 1497 
L 313 1497 
L 313 2009 
z
" id="DejaVuSans-2d" transform="scale(0.015625)"/>
       <path d="M 3597 1894 
L 3597 1613 
L 953 1613 
Q 991 1019 1311 708 
Q 1631 397 2203 397 
Q 2534 397 2845 478 
Q 3156 559 3463 722 
L 3463 178 
Q 3153 47 2828 -22 
Q 2503 -91 2169 -91 
Q 1331 -91 842 396 
Q 353 884 353 1716 
Q 353 2575 817 3079 
Q 1281 3584 2069 3584 
Q 2775 3584 3186 3129 
Q 3597 2675 3597 1894 
z
M 3022 2063 
Q 3016 2534 2758 2815 
Q 2500 3097 2075 3097 
Q 1594 3097 1305 2825 
Q 1016 2553 972 2059 
L 3022 2063 
z
" id="DejaVuSans-65" transform="scale(0.015625)"/>
       <path d="M 191 3500 
L 800 3500 
L 1894 563 
L 2988 3500 
L 3597 3500 
L 2284 0 
L 1503 0 
L 191 3500 
z
" id="DejaVuSans-76" transform="scale(0.015625)"/>
       <path d="M 2194 1759 
Q 1497 1759 1228 1600 
Q 959 1441 959 1056 
Q 959 750 1161 570 
Q 1363 391 1709 391 
Q 2188 391 2477 730 
Q 2766 1069 2766 1631 
L 2766 1759 
L 2194 1759 
z
M 3341 1997 
L 3341 0 
L 2766 0 
L 2766 531 
Q 2569 213 2275 61 
Q 1981 -91 1556 -91 
Q 1019 -91 701 211 
Q 384 513 384 1019 
Q 384 1609 779 1909 
Q 1175 2209 1959 2209 
L 2766 2209 
L 2766 2266 
Q 2766 2663 2505 2880 
Q 2244 3097 1772 3097 
Q 1472 3097 1187 3025 
Q 903 2953 641 2809 
L 641 3341 
Q 956 3463 1253 3523 
Q 1550 3584 1831 3584 
Q 2591 3584 2966 3190 
Q 3341 2797 3341 1997 
z
" id="DejaVuSans-61" transform="scale(0.015625)"/>
       <path d="M 2834 3397 
L 2834 2853 
Q 2591 2978 2328 3040 
Q 2066 3103 1784 3103 
Q 1356 3103 1142 2972 
Q 928 2841 928 2578 
Q 928 2378 1081 2264 
Q 1234 2150 1697 2047 
L 1894 2003 
Q 2506 1872 2764 1633 
Q 3022 1394 3022 966 
Q 3022 478 2636 193 
Q 2250 -91 1575 -91 
Q 1294 -91 989 -36 
Q 684 19 347 128 
L 347 722 
Q 666 556 975 473 
Q 1284 391 1588 391 
Q 1994 391 2212 530 
Q 2431 669 2431 922 
Q 2431 1156 2273 1281 
Q 2116 1406 1581 1522 
L 1381 1569 
Q 847 1681 609 1914 
Q 372 2147 372 2553 
Q 372 3047 722 3315 
Q 1072 3584 1716 3584 
Q 2034 3584 2315 3537 
Q 2597 3491 2834 3397 
z
" id="DejaVuSans-73" transform="scale(0.015625)"/>
       <path d="M 1625 4666 
L 2156 4666 
L 531 -594 
L 0 -594 
L 1625 4666 
z
" id="DejaVuSans-2f" transform="scale(0.015625)"/>
       <path d="M 2906 2969 
L 2906 4863 
L 3481 4863 
L 3481 0 
L 2906 0 
L 2906 525 
Q 2725 213 2448 61 
Q 2172 -91 1784 -91 
Q 1150 -91 751 415 
Q 353 922 353 1747 
Q 353 2572 751 3078 
Q 1150 3584 1784 3584 
Q 2172 3584 2448 3432 
Q 2725 3281 2906 2969 
z
M 947 1747 
Q 947 1113 1208 752 
Q 1469 391 1925 391 
Q 2381 391 2643 752 
Q 2906 1113 2906 1747 
Q 2906 2381 2643 2742 
Q 2381 3103 1925 3103 
Q 1469 3103 1208 2742 
Q 947 2381 947 1747 
z
" id="DejaVuSans-64" transform="scale(0.015625)"/>
       <path d="M 603 3500 
L 1178 3500 
L 1178 0 
L 603 0 
L 603 3500 
z
M 603 4863 
L 1178 4863 
L 1178 4134 
L 603 4134 
L 603 4863 
z
" id="DejaVuSans-69" transform="scale(0.015625)"/>
       <path d="M 3328 2828 
Q 3544 3216 3844 3400 
Q 4144 3584 4550 3584 
Q 5097 3584 5394 3201 
Q 5691 2819 5691 2113 
L 5691 0 
L 5113 0 
L 5113 2094 
Q 5113 2597 4934 2840 
Q 4756 3084 4391 3084 
Q 3944 3084 3684 2787 
Q 3425 2491 3425 1978 
L 3425 0 
L 2847 0 
L 2847 2094 
Q 2847 2600 2669 2842 
Q 2491 3084 2119 3084 
Q 1678 3084 1418 2786 
Q 1159 2488 1159 1978 
L 1159 0 
L 581 0 
L 581 3500 
L 1159 3500 
L 1159 2956 
Q 1356 3278 1631 3431 
Q 1906 3584 2284 3584 
Q 2666 3584 2933 3390 
Q 3200 3197 3328 2828 
z
" id="DejaVuSans-6d" transform="scale(0.015625)"/>
       <path d="M 3513 2113 
L 3513 0 
L 2938 0 
L 2938 2094 
Q 2938 2591 2744 2837 
Q 2550 3084 2163 3084 
Q 1697 3084 1428 2787 
Q 1159 2491 1159 1978 
L 1159 0 
L 581 0 
L 581 3500 
L 1159 3500 
L 1159 2956 
Q 1366 3272 1645 3428 
Q 1925 3584 2291 3584 
Q 2894 3584 3203 3211 
Q 3513 2838 3513 2113 
z
" id="DejaVuSans-6e" transform="scale(0.015625)"/>
       <path d="M 513 4856 
L 1013 4856 
Q 1481 4119 1714 3412 
Q 1947 2706 1947 2009 
Q 1947 1309 1714 600 
Q 1481 -109 1013 -844 
L 513 -844 
Q 928 -128 1133 580 
Q 1338 1288 1338 2009 
Q 1338 2731 1133 3434 
Q 928 4138 513 4856 
z
" id="DejaVuSans-29" transform="scale(0.015625)"/>
      </defs>
      <use xlink:href="#DejaVuSans-6c"/>
      <use x="27.783203" xlink:href="#DejaVuSans-6f"/>
      <use x="88.964844" xlink:href="#DejaVuSans-67"/>
      <use x="152.441406" xlink:href="#DejaVuSans-31"/>
      <use x="216.064453" xlink:href="#DejaVuSans-30"/>
      <use x="279.6875" xlink:href="#DejaVuSans-28"/>
      <use x="318.701172" xlink:href="#DejaVuSans-23"/>
      <use x="402.490234" xlink:href="#DejaVuSans-20"/>
      <use x="434.277344" xlink:href="#DejaVuSans-66"/>
      <use x="463.982422" xlink:href="#DejaVuSans-2d"/>
      <use x="500.066406" xlink:href="#DejaVuSans-65"/>
      <use x="561.589844" xlink:href="#DejaVuSans-76"/>
      <use x="620.769531" xlink:href="#DejaVuSans-61"/>
      <use x="682.048828" xlink:href="#DejaVuSans-6c"/>
      <use x="709.832031" xlink:href="#DejaVuSans-73"/>
      <use x="761.931641" xlink:href="#DejaVuSans-20"/>
      <use x="793.71875" xlink:href="#DejaVuSans-2f"/>
      <use x="827.410156" xlink:href="#DejaVuSans-20"/>
      <use x="859.197266" xlink:href="#DejaVuSans-64"/>
      <use x="922.673828" xlink:href="#DejaVuSans-69"/>
      <use x="950.457031" xlink:href="#DejaVuSans-6d"/>
      <use x="1047.869141" xlink:href="#DejaVuSans-65"/>
      <use x="1109.392578" xlink:href="#DejaVuSans-6e"/>
      <use x="1172.771484" xlink:href="#DejaVuSans-73"/>
      <use x="1224.871094" xlink:href="#DejaVuSans-69"/>
      <use x="1252.654297" xlink:href="#DejaVuSans-6f"/>
      <use x="1313.835938" xlink:href="#DejaVuSans-6e"/>
      <use x="1377.214844" xlink:href="#DejaVuSans-29"/>
     </g>
    </g>
   </g>
   <g id="matplotlib.axis_2">
    <g id="ytick_1">
     <g id="line2d_21">
      <path clip-path="url(#ped1df1d65d)" d="M 57.6 298.944 
L 338.688 298.944 
" style="fill:none;stroke:#b0b0b0;stroke-linecap:square;stroke-width:0.8;"/>
     </g>
     <g id="line2d_22">
      <defs>
       <path d="M 0 0 
L -3.5 0 
" id="m4c5643db6a" style="stroke:#000000;stroke-width:0.8;"/>
      </defs>
      <g>
       <use style="stroke:#000000;stroke-width:0.8;" x="57.6" xlink:href="#m4c5643db6a" y="298.944"/>
      </g>
     </g>
     <g id="text_6">
      <!-- 0.0 -->
      <g transform="translate(25.155 305.02275)scale(0.16 -0.16)">
       <defs>
        <path d="M 684 794 
L 1344 794 
L 1344 0 
L 684 0 
L 684 794 
z
" id="DejaVuSans-2e" transform="scale(0.015625)"/>
       </defs>
       <use xlink:href="#DejaVuSans-30"/>
       <use x="63.623047" xlink:href="#DejaVuSans-2e"/>
       <use x="95.410156" xlink:href="#DejaVuSans-30"/>
      </g>
     </g>
    </g>
    <g id="ytick_2">
     <g id="line2d_23">
      <path clip-path="url(#ped1df1d65d)" d="M 57.6 245.22202 
L 338.688 245.22202 
" style="fill:none;stroke:#b0b0b0;stroke-linecap:square;stroke-width:0.8;"/>
     </g>
     <g id="line2d_24">
      <g>
       <use style="stroke:#000000;stroke-width:0.8;" x="57.6" xlink:href="#m4c5643db6a" y="245.22202"/>
      </g>
     </g>
     <g id="text_7">
      <!-- 0.2 -->
      <g transform="translate(25.155 251.30077)scale(0.16 -0.16)">
       <use xlink:href="#DejaVuSans-30"/>
       <use x="63.623047" xlink:href="#DejaVuSans-2e"/>
       <use x="95.410156" xlink:href="#DejaVuSans-32"/>
      </g>
     </g>
    </g>
    <g id="ytick_3">
     <g id="line2d_25">
      <path clip-path="url(#ped1df1d65d)" d="M 57.6 191.50004 
L 338.688 191.50004 
" style="fill:none;stroke:#b0b0b0;stroke-linecap:square;stroke-width:0.8;"/>
     </g>
     <g id="line2d_26">
      <g>
       <use style="stroke:#000000;stroke-width:0.8;" x="57.6" xlink:href="#m4c5643db6a" y="191.50004"/>
      </g>
     </g>
     <g id="text_8">
      <!-- 0.4 -->
      <g transform="translate(25.155 197.57879)scale(0.16 -0.16)">
       <use xlink:href="#DejaVuSans-30"/>
       <use x="63.623047" xlink:href="#DejaVuSans-2e"/>
       <use x="95.410156" xlink:href="#DejaVuSans-34"/>
      </g>
     </g>
    </g>
    <g id="ytick_4">
     <g id="line2d_27">
      <path clip-path="url(#ped1df1d65d)" d="M 57.6 137.778059 
L 338.688 137.778059 
" style="fill:none;stroke:#b0b0b0;stroke-linecap:square;stroke-width:0.8;"/>
     </g>
     <g id="line2d_28">
      <g>
       <use style="stroke:#000000;stroke-width:0.8;" x="57.6" xlink:href="#m4c5643db6a" y="137.778059"/>
      </g>
     </g>
     <g id="text_9">
      <!-- 0.6 -->
      <g transform="translate(25.155 143.856809)scale(0.16 -0.16)">
       <use xlink:href="#DejaVuSans-30"/>
       <use x="63.623047" xlink:href="#DejaVuSans-2e"/>
       <use x="95.410156" xlink:href="#DejaVuSans-36"/>
      </g>
     </g>
    </g>
    <g id="ytick_5">
     <g id="line2d_29">
      <path clip-path="url(#ped1df1d65d)" d="M 57.6 84.056079 
L 338.688 84.056079 
" style="fill:none;stroke:#b0b0b0;stroke-linecap:square;stroke-width:0.8;"/>
     </g>
     <g id="line2d_30">
      <g>
       <use style="stroke:#000000;stroke-width:0.8;" x="57.6" xlink:href="#m4c5643db6a" y="84.056079"/>
      </g>
     </g>
     <g id="text_10">
      <!-- 0.8 -->
      <g transform="translate(25.155 90.134829)scale(0.16 -0.16)">
       <defs>
        <path d="M 2034 2216 
Q 1584 2216 1326 1975 
Q 1069 1734 1069 1313 
Q 1069 891 1326 650 
Q 1584 409 2034 409 
Q 2484 409 2743 651 
Q 3003 894 3003 1313 
Q 3003 1734 2745 1975 
Q 2488 2216 2034 2216 
z
M 1403 2484 
Q 997 2584 770 2862 
Q 544 3141 544 3541 
Q 544 4100 942 4425 
Q 1341 4750 2034 4750 
Q 2731 4750 3128 4425 
Q 3525 4100 3525 3541 
Q 3525 3141 3298 2862 
Q 3072 2584 2669 2484 
Q 3125 2378 3379 2068 
Q 3634 1759 3634 1313 
Q 3634 634 3220 271 
Q 2806 -91 2034 -91 
Q 1263 -91 848 271 
Q 434 634 434 1313 
Q 434 1759 690 2068 
Q 947 2378 1403 2484 
z
M 1172 3481 
Q 1172 3119 1398 2916 
Q 1625 2713 2034 2713 
Q 2441 2713 2670 2916 
Q 2900 3119 2900 3481 
Q 2900 3844 2670 4047 
Q 2441 4250 2034 4250 
Q 1625 4250 1398 4047 
Q 1172 3844 1172 3481 
z
" id="DejaVuSans-38" transform="scale(0.015625)"/>
       </defs>
       <use xlink:href="#DejaVuSans-30"/>
       <use x="63.623047" xlink:href="#DejaVuSans-2e"/>
       <use x="95.410156" xlink:href="#DejaVuSans-38"/>
      </g>
     </g>
    </g>
    <g id="ytick_6">
     <g id="line2d_31">
      <path clip-path="url(#ped1df1d65d)" d="M 57.6 30.334099 
L 338.688 30.334099 
" style="fill:none;stroke:#b0b0b0;stroke-linecap:square;stroke-width:0.8;"/>
     </g>
     <g id="line2d_32">
      <g>
       <use style="stroke:#000000;stroke-width:0.8;" x="57.6" xlink:href="#m4c5643db6a" y="30.334099"/>
      </g>
     </g>
     <g id="text_11">
      <!-- 1.0 -->
      <g transform="translate(25.155 36.412849)scale(0.16 -0.16)">
       <use xlink:href="#DejaVuSans-31"/>
       <use x="63.623047" xlink:href="#DejaVuSans-2e"/>
       <use x="95.410156" xlink:href="#DejaVuSans-30"/>
      </g>
     </g>
    </g>
    <g id="text_12">
     <!-- Fraction of function,target pairs -->
     <g transform="translate(17.619531 297.681)rotate(-90)scale(0.17 -0.17)">
      <defs>
       <path d="M 628 4666 
L 3309 4666 
L 3309 4134 
L 1259 4134 
L 1259 2759 
L 3109 2759 
L 3109 2228 
L 1259 2228 
L 1259 0 
L 628 0 
L 628 4666 
z
" id="DejaVuSans-46" transform="scale(0.015625)"/>
       <path d="M 2631 2963 
Q 2534 3019 2420 3045 
Q 2306 3072 2169 3072 
Q 1681 3072 1420 2755 
Q 1159 2438 1159 1844 
L 1159 0 
L 581 0 
L 581 3500 
L 1159 3500 
L 1159 2956 
Q 1341 3275 1631 3429 
Q 1922 3584 2338 3584 
Q 2397 3584 2469 3576 
Q 2541 3569 2628 3553 
L 2631 2963 
z
" id="DejaVuSans-72" transform="scale(0.015625)"/>
       <path d="M 3122 3366 
L 3122 2828 
Q 2878 2963 2633 3030 
Q 2388 3097 2138 3097 
Q 1578 3097 1268 2742 
Q 959 2388 959 1747 
Q 959 1106 1268 751 
Q 1578 397 2138 397 
Q 2388 397 2633 464 
Q 2878 531 3122 666 
L 3122 134 
Q 2881 22 2623 -34 
Q 2366 -91 2075 -91 
Q 1284 -91 818 406 
Q 353 903 353 1747 
Q 353 2603 823 3093 
Q 1294 3584 2113 3584 
Q 2378 3584 2631 3529 
Q 2884 3475 3122 3366 
z
" id="DejaVuSans-63" transform="scale(0.015625)"/>
       <path d="M 1172 4494 
L 1172 3500 
L 2356 3500 
L 2356 3053 
L 1172 3053 
L 1172 1153 
Q 1172 725 1289 603 
Q 1406 481 1766 481 
L 2356 481 
L 2356 0 
L 1766 0 
Q 1100 0 847 248 
Q 594 497 594 1153 
L 594 3053 
L 172 3053 
L 172 3500 
L 594 3500 
L 594 4494 
L 1172 4494 
z
" id="DejaVuSans-74" transform="scale(0.015625)"/>
       <path d="M 544 1381 
L 544 3500 
L 1119 3500 
L 1119 1403 
Q 1119 906 1312 657 
Q 1506 409 1894 409 
Q 2359 409 2629 706 
Q 2900 1003 2900 1516 
L 2900 3500 
L 3475 3500 
L 3475 0 
L 2900 0 
L 2900 538 
Q 2691 219 2414 64 
Q 2138 -91 1772 -91 
Q 1169 -91 856 284 
Q 544 659 544 1381 
z
M 1991 3584 
L 1991 3584 
z
" id="DejaVuSans-75" transform="scale(0.015625)"/>
       <path d="M 750 794 
L 1409 794 
L 1409 256 
L 897 -744 
L 494 -744 
L 750 256 
L 750 794 
z
" id="DejaVuSans-2c" transform="scale(0.015625)"/>
       <path d="M 1159 525 
L 1159 -1331 
L 581 -1331 
L 581 3500 
L 1159 3500 
L 1159 2969 
Q 1341 3281 1617 3432 
Q 1894 3584 2278 3584 
Q 2916 3584 3314 3078 
Q 3713 2572 3713 1747 
Q 3713 922 3314 415 
Q 2916 -91 2278 -91 
Q 1894 -91 1617 61 
Q 1341 213 1159 525 
z
M 3116 1747 
Q 3116 2381 2855 2742 
Q 2594 3103 2138 3103 
Q 1681 3103 1420 2742 
Q 1159 2381 1159 1747 
Q 1159 1113 1420 752 
Q 1681 391 2138 391 
Q 2594 391 2855 752 
Q 3116 1113 3116 1747 
z
" id="DejaVuSans-70" transform="scale(0.015625)"/>
      </defs>
      <use xlink:href="#DejaVuSans-46"/>
      <use x="50.269531" xlink:href="#DejaVuSans-72"/>
      <use x="91.382812" xlink:href="#DejaVuSans-61"/>
      <use x="152.662109" xlink:href="#DejaVuSans-63"/>
      <use x="207.642578" xlink:href="#DejaVuSans-74"/>
      <use x="246.851562" xlink:href="#DejaVuSans-69"/>
      <use x="274.634766" xlink:href="#DejaVuSans-6f"/>
      <use x="335.816406" xlink:href="#DejaVuSans-6e"/>
      <use x="399.195312" xlink:href="#DejaVuSans-20"/>
      <use x="430.982422" xlink:href="#DejaVuSans-6f"/>
      <use x="492.164062" xlink:href="#DejaVuSans-66"/>
      <use x="527.369141" xlink:href="#DejaVuSans-20"/>
      <use x="559.15625" xlink:href="#DejaVuSans-66"/>
      <use x="594.361328" xlink:href="#DejaVuSans-75"/>
      <use x="657.740234" xlink:href="#DejaVuSans-6e"/>
      <use x="721.119141" xlink:href="#DejaVuSans-63"/>
      <use x="776.099609" xlink:href="#DejaVuSans-74"/>
      <use x="815.308594" xlink:href="#DejaVuSans-69"/>
      <use x="843.091797" xlink:href="#DejaVuSans-6f"/>
      <use x="904.273438" xlink:href="#DejaVuSans-6e"/>
      <use x="967.652344" xlink:href="#DejaVuSans-2c"/>
      <use x="999.439453" xlink:href="#DejaVuSans-74"/>
      <use x="1038.648438" xlink:href="#DejaVuSans-61"/>
      <use x="1099.927734" xlink:href="#DejaVuSans-72"/>
      <use x="1139.291016" xlink:href="#DejaVuSans-67"/>
      <use x="1202.767578" xlink:href="#DejaVuSans-65"/>
      <use x="1264.291016" xlink:href="#DejaVuSans-74"/>
      <use x="1303.5" xlink:href="#DejaVuSans-20"/>
      <use x="1335.287109" xlink:href="#DejaVuSans-70"/>
      <use x="1398.763672" xlink:href="#DejaVuSans-61"/>
      <use x="1460.042969" xlink:href="#DejaVuSans-69"/>
      <use x="1487.826172" xlink:href="#DejaVuSans-72"/>
      <use x="1528.939453" xlink:href="#DejaVuSans-73"/>
     </g>
    </g>
   </g>
   <g id="line2d_33">
    <defs>
     <path d="M 0 1.5 
C 0.397805 1.5 0.77937 1.341951 1.06066 1.06066 
C 1.341951 0.77937 1.5 0.397805 1.5 0 
C 1.5 -0.397805 1.341951 -0.77937 1.06066 -1.06066 
C 0.77937 -1.341951 0.397805 -1.5 0 -1.5 
C -0.397805 -1.5 -0.77937 -1.341951 -1.06066 -1.06066 
C -1.341951 -0.77937 -1.5 -0.397805 -1.5 0 
C -1.5 0.397805 -1.341951 0.77937 -1.06066 1.06066 
C -0.77937 1.341951 -0.397805 1.5 0 1.5 
z
" id="m499505af87" style="stroke:#f5deb3;"/>
    </defs>
    <g>
     <use style="fill:#f5deb3;stroke:#f5deb3;" x="74.704957" xlink:href="#m499505af87" y="30.334099"/>
     <use style="fill:#f5deb3;stroke:#f5deb3;" x="74.704957" xlink:href="#m499505af87" y="30.334099"/>
    </g>
   </g>
   <g id="line2d_34">
    <defs>
     <path d="M 0 1.5 
C 0.397805 1.5 0.77937 1.341951 1.06066 1.06066 
C 1.341951 0.77937 1.5 0.397805 1.5 0 
C 1.5 -0.397805 1.341951 -0.77937 1.06066 -1.06066 
C 0.77937 -1.341951 0.397805 -1.5 0 -1.5 
C -0.397805 -1.5 -0.77937 -1.341951 -1.06066 -1.06066 
C -1.341951 -0.77937 -1.5 -0.397805 -1.5 0 
C -1.5 0.397805 -1.341951 0.77937 -1.06066 1.06066 
C -0.77937 1.341951 -0.397805 1.5 0 1.5 
z
" id="m9d75761fa9" style="stroke:#000080;"/>
    </defs>
    <g>
     <use style="fill:#000080;stroke:#000080;" x="188.848017" xlink:href="#m9d75761fa9" y="30.334099"/>
     <use style="fill:#000080;stroke:#000080;" x="188.848017" xlink:href="#m9d75761fa9" y="30.334099"/>
    </g>
   </g>
   <g id="line2d_35">
    <path d="M 38.440992 298.944 
L 38.440992 283.143418 
L 50.52898 283.143418 
L 50.52898 278.929929 
L 57.6 278.929929 
L 57.6 275.243126 
L 62.616969 275.243126 
L 62.616969 273.136382 
L 72.376266 273.136382 
L 72.376266 269.449579 
L 74.704957 269.449579 
L 74.704957 267.342835 
L 80.258561 267.342835 
L 80.258561 264.182719 
L 83.171864 264.182719 
L 83.171864 260.495916 
L 85.66744 260.495916 
L 85.66744 259.442544 
L 86.792945 259.442544 
L 86.792945 256.809114 
L 88.846997 256.809114 
L 88.846997 255.755741 
L 91.535274 255.755741 
L 91.535274 254.702369 
L 93.121756 254.702369 
L 93.121756 253.122311 
L 94.575872 253.122311 
L 94.575872 252.595625 
L 95.259853 252.595625 
L 95.259853 252.068939 
L 100.934985 252.068939 
L 100.934985 251.015567 
L 101.877879 251.015567 
L 101.877879 250.488881 
L 102.772397 250.488881 
L 102.772397 249.962195 
L 103.203018 249.962195 
L 103.203018 249.435508 
L 103.623262 249.435508 
L 103.623262 246.802078 
L 104.826449 246.802078 
L 104.826449 246.275392 
L 109.843417 246.275392 
L 109.843417 243.641962 
L 115.077025 243.641962 
L 115.077025 242.588589 
L 115.502395 242.588589 
L 115.502395 241.535217 
L 116.121606 241.535217 
L 116.121606 240.481845 
L 119.267333 240.481845 
L 119.267333 239.428473 
L 119.602714 239.428473 
L 119.602714 238.375101 
L 120.093994 238.375101 
L 120.093994 237.848415 
L 120.41399 237.848415 
L 120.41399 234.161612 
L 121.036887 234.161612 
L 121.036887 233.634926 
L 121.340187 233.634926 
L 121.340187 233.10824 
L 122.219665 233.10824 
L 122.219665 232.054868 
L 123.327293 232.054868 
L 123.327293 231.528182 
L 123.725164 231.528182 
L 123.725164 228.894751 
L 124.114161 228.894751 
L 124.114161 228.368065 
L 124.368753 228.368065 
L 124.368753 227.841379 
L 124.989434 227.841379 
L 124.989434 227.314693 
L 125.822869 227.314693 
L 125.822869 226.788007 
L 126.839037 226.788007 
L 126.839037 226.261321 
L 127.165014 226.261321 
L 127.272333 225.207949 
L 127.378995 225.207949 
L 127.378995 224.681263 
L 128.005624 224.681263 
L 128.005624 224.154577 
L 128.310692 224.154577 
L 128.310692 223.627891 
L 128.610515 223.627891 
L 128.610515 223.101204 
L 129.480244 223.101204 
L 129.480244 222.574518 
L 129.667765 222.574518 
L 129.760775 220.467774 
L 131.355321 220.467774 
L 131.439773 218.887716 
L 131.856005 218.887716 
L 131.856005 218.36103 
L 135.548916 218.36103 
L 135.548916 214.674227 
L 136.393441 214.674227 
L 136.393441 213.620855 
L 137.439497 213.620855 
L 137.439497 209.934052 
L 138.199116 209.934052 
L 138.199116 209.407366 
L 141.47371 209.407366 
L 141.47371 208.88068 
L 141.615302 208.88068 
L 141.615302 207.300622 
L 142.033307 207.300622 
L 142.033307 206.773936 
L 142.170445 206.773936 
L 142.170445 206.24725 
L 145.961446 206.24725 
L 145.961446 205.720564 
L 146.107383 205.720564 
L 146.179895 204.667192 
L 147.027314 204.667192 
L 147.027314 204.140506 
L 147.536775 204.140506 
L 147.536775 203.087133 
L 148.129109 203.087133 
L 148.129109 202.560447 
L 148.826773 202.560447 
L 148.919783 199.400331 
L 149.073705 199.400331 
L 149.073705 198.873645 
L 149.764758 198.873645 
L 149.764758 198.346959 
L 151.660987 198.346959 
L 151.68739 196.240214 
L 151.844975 196.240214 
L 151.897188 194.660156 
L 152.360205 194.660156 
L 152.360205 192.026726 
L 152.612222 192.026726 
L 152.612222 191.50004 
L 153.129893 191.50004 
L 153.129893 189.393295 
L 153.867041 189.393295 
L 153.867041 188.866609 
L 154.029268 188.866609 
L 154.029268 188.339923 
L 154.144227 188.339923 
L 154.144227 187.813237 
L 155.6368 187.813237 
L 155.6368 187.286551 
L 156.031982 187.286551 
L 156.031982 186.759865 
L 156.216093 186.759865 
L 156.216093 186.233179 
L 156.933697 186.233179 
L 156.953214 183.599748 
L 157.509937 183.599748 
L 157.509937 183.073062 
L 157.772468 183.073062 
L 157.772468 180.966318 
L 158.122556 180.966318 
L 158.231665 179.912946 
L 158.376091 179.912946 
L 158.376091 178.859574 
L 158.83738 178.859574 
L 158.872364 176.752829 
L 158.959517 176.752829 
L 158.959517 175.699457 
L 159.149734 175.699457 
L 159.149734 174.646085 
L 159.26971 174.646085 
L 159.26971 172.539341 
L 159.741526 172.539341 
L 159.741526 171.485969 
L 160.103486 171.485969 
L 160.168498 168.852538 
L 160.474035 168.852538 
L 160.474035 166.745794 
L 160.821253 166.745794 
L 160.86807 165.692422 
L 161.131018 165.692422 
L 161.131018 165.165736 
L 161.253399 165.165736 
L 161.283861 163.585677 
L 161.838011 163.585677 
L 161.838011 163.058991 
L 161.999419 163.058991 
L 161.999419 162.532305 
L 162.115875 162.532305 
L 162.115875 161.478933 
L 162.231559 161.478933 
L 162.231559 160.952247 
L 163.157756 160.952247 
L 163.239567 159.898875 
L 163.696049 159.898875 
L 163.696049 159.372189 
L 164.384616 159.372189 
L 164.39735 157.79213 
L 164.562052 157.79213 
L 164.637547 155.685386 
L 164.675172 155.685386 
L 164.712717 154.105328 
L 165.55465 154.105328 
L 165.55465 153.578642 
L 165.697012 153.578642 
L 165.697012 152.52527 
L 165.93173 152.52527 
L 166.001534 151.471897 
L 166.695783 151.471897 
L 166.695783 150.945211 
L 166.829163 150.945211 
L 166.829163 150.418525 
L 167.038282 150.418525 
L 167.038282 149.891839 
L 167.288118 149.891839 
L 167.288118 149.365153 
L 167.40635 149.365153 
L 167.40635 148.838467 
L 167.693205 148.838467 
L 167.756314 147.258409 
L 167.913096 147.258409 
L 167.933895 145.151665 
L 168.253135 145.151665 
L 168.253135 144.624978 
L 168.466121 144.624978 
L 168.576655 143.04492 
L 169.041203 143.04492 
L 169.138466 141.464862 
L 169.94401 141.464862 
L 170.017944 140.41149 
L 170.091567 140.41149 
L 170.18316 138.831432 
L 170.29244 138.831432 
L 170.301516 137.251373 
L 170.446091 137.251373 
L 170.446091 136.724687 
L 170.571619 136.724687 
L 170.678499 135.671315 
L 170.793552 135.671315 
L 170.793552 135.144629 
L 171.073566 135.144629 
L 171.073566 134.617943 
L 171.366236 134.617943 
L 171.391826 132.511199 
L 171.56147 132.511199 
L 171.56147 131.984513 
L 171.737838 131.984513 
L 171.796233 129.877768 
L 171.854434 129.877768 
L 171.854434 129.351082 
L 172.20775 129.351082 
L 172.248373 126.717652 
L 172.353551 126.717652 
L 172.377733 125.66428 
L 172.673253 125.66428 
L 172.673253 125.137593 
L 172.807372 125.137593 
L 172.807372 124.610907 
L 172.924861 124.610907 
L 173.026049 123.557535 
L 173.057066 123.557535 
L 173.103489 120.397419 
L 173.265 120.397419 
L 173.265 119.870733 
L 173.613646 119.870733 
L 173.636143 118.290674 
L 173.948098 118.290674 
L 173.948098 117.237302 
L 174.087407 117.237302 
L 174.182087 116.18393 
L 174.26903 116.18393 
L 174.26903 114.603872 
L 174.448781 114.603872 
L 174.448781 114.077186 
L 174.584164 114.077186 
L 174.605444 112.497128 
L 174.774759 112.497128 
L 174.83783 110.390383 
L 175.307139 110.390383 
L 175.402213 107.756953 
L 175.803903 107.756953 
L 175.803903 107.230267 
L 176.440729 107.230267 
L 176.440729 106.703581 
L 176.643735 106.703581 
L 176.643735 106.176895 
L 176.844405 106.176895 
L 176.844405 105.123522 
L 176.97485 105.123522 
L 177.048955 101.963406 
L 177.128882 101.963406 
L 177.226752 100.383348 
L 177.475067 100.383348 
L 177.576999 98.276603 
L 177.672393 98.276603 
L 177.696161 95.643173 
L 177.838089 95.643173 
L 177.838089 95.116487 
L 177.990551 95.116487 
L 177.990551 94.063115 
L 178.130113 94.063115 
L 178.130113 93.536429 
L 178.519578 93.536429 
L 178.621232 92.483056 
L 178.822779 92.483056 
L 178.911614 90.902998 
L 178.977944 90.902998 
L 179.055012 89.32294 
L 179.153601 89.32294 
L 179.262495 87.742882 
L 179.365318 87.742882 
L 179.397663 84.582765 
L 179.563829 84.582765 
L 179.563829 84.056079 
L 179.849552 84.056079 
L 179.870531 82.476021 
L 179.980262 82.476021 
L 180.05822 78.262532 
L 180.264422 78.262532 
L 180.264422 77.735846 
L 180.518792 77.735846 
L 180.518792 77.20916 
L 180.759545 77.20916 
L 180.844021 75.629102 
L 180.873738 75.629102 
L 180.873738 74.049044 
L 181.065678 74.049044 
L 181.065678 73.522358 
L 181.260369 73.522358 
L 181.279719 69.835555 
L 181.472049 69.835555 
L 181.472049 69.308869 
L 181.633877 69.308869 
L 181.742504 66.675439 
L 181.957749 66.675439 
L 182.045885 65.622066 
L 182.115152 65.622066 
L 182.165775 64.568694 
L 182.229991 64.568694 
L 182.284846 61.408578 
L 182.430288 61.408578 
L 182.52958 59.301833 
L 182.623834 59.301833 
L 182.623834 58.775147 
L 182.824109 58.775147 
L 182.88595 57.721775 
L 183.131146 57.721775 
L 183.157214 55.615031 
L 183.312807 55.615031 
L 183.312807 55.088345 
L 183.441416 55.088345 
L 183.543625 54.034973 
L 183.577561 54.034973 
L 183.581799 52.9816 
L 183.691613 52.9816 
L 183.721061 51.401542 
L 184.012834 51.401542 
L 184.066487 50.34817 
L 184.214209 50.34817 
L 184.324185 48.768112 
L 184.380937 48.768112 
L 184.380937 47.71474 
L 184.509968 47.71474 
L 184.509968 47.188054 
L 184.638052 47.188054 
L 184.705715 45.081309 
L 184.796844 45.081309 
L 184.883568 42.447879 
L 185.210783 42.447879 
L 185.226213 40.867821 
L 185.395043 40.867821 
L 185.490246 36.654332 
L 185.524393 36.654332 
L 185.524393 36.127646 
L 185.821287 36.127646 
L 185.821287 35.60096 
L 186.094879 35.60096 
L 186.094879 35.074274 
L 186.504551 35.074274 
L 186.504551 34.547588 
L 186.625955 34.547588 
L 186.686342 33.494215 
L 186.981692 33.494215 
L 186.981692 32.440843 
L 187.527411 32.440843 
L 187.527411 31.914157 
L 188.190455 31.914157 
L 188.190455 31.387471 
L 188.608298 31.387471 
L 188.608298 30.860785 
L 188.848017 30.860785 
L 188.848017 30.334099 
L 338.688 30.334099 
L 338.688 30.334099 
" style="fill:none;stroke:#000080;stroke-linecap:square;stroke-width:1.5;"/>
   </g>
   <g id="line2d_36">
    <defs>
     <path d="M 0 6 
C 1.591219 6 3.117479 5.367802 4.242641 4.242641 
C 5.367802 3.117479 6 1.591219 6 0 
C 6 -1.591219 5.367802 -3.117479 4.242641 -4.242641 
C 3.117479 -5.367802 1.591219 -6 0 -6 
C -1.591219 -6 -3.117479 -5.367802 -4.242641 -4.242641 
C -5.367802 -3.117479 -6 -1.591219 -6 0 
C -6 1.591219 -5.367802 3.117479 -4.242641 4.242641 
C -3.117479 5.367802 -1.591219 6 0 6 
z
" id="m838a741f92" style="stroke:#000080;stroke-width:1.5;"/>
    </defs>
    <g>
     <use style="fill-opacity:0;stroke:#000080;stroke-width:1.5;" x="137.439497" xlink:href="#m838a741f92" y="213.620855"/>
     <use style="fill-opacity:0;stroke:#000080;stroke-width:1.5;" x="178.977944" xlink:href="#m838a741f92" y="90.902998"/>
     <use style="fill-opacity:0;stroke:#000080;stroke-width:1.5;" x="188.848017" xlink:href="#m838a741f92" y="30.860785"/>
     <use style="fill-opacity:0;stroke:#000080;stroke-width:1.5;" x="188.848017" xlink:href="#m838a741f92" y="30.334099"/>
     <use style="fill-opacity:0;stroke:#000080;stroke-width:1.5;" x="188.848017" xlink:href="#m838a741f92" y="30.334099"/>
     <use style="fill-opacity:0;stroke:#000080;stroke-width:1.5;" x="338.688" xlink:href="#m838a741f92" y="30.334099"/>
    </g>
   </g>
   <g id="line2d_37">
    <path style="fill:none;stroke:#000080;stroke-linecap:square;stroke-width:1.5;"/>
    <g/>
   </g>
   <g id="line2d_38">
    <defs>
     <path d="M 0 1.5 
C 0.397805 1.5 0.77937 1.341951 1.06066 1.06066 
C 1.341951 0.77937 1.5 0.397805 1.5 0 
C 1.5 -0.397805 1.341951 -0.77937 1.06066 -1.06066 
C 0.77937 -1.341951 0.397805 -1.5 0 -1.5 
C -0.397805 -1.5 -0.77937 -1.341951 -1.06066 -1.06066 
C -1.341951 -0.77937 -1.5 -0.397805 -1.5 0 
C -1.5 0.397805 -1.341951 0.77937 -1.06066 1.06066 
C -0.77937 1.341951 -0.397805 1.5 0 1.5 
z
" id="m2c3b4cbb30" style="stroke:#ff00ff;"/>
    </defs>
    <g>
     <use style="fill:#ff00ff;stroke:#ff00ff;" x="202.463208" xlink:href="#m2c3b4cbb30" y="30.334099"/>
     <use style="fill:#ff00ff;stroke:#ff00ff;" x="202.463208" xlink:href="#m2c3b4cbb30" y="30.334099"/>
    </g>
   </g>
   <g id="line2d_39">
    <path d="M 38.440992 298.944 
L 38.440992 279.983301 
L 50.52898 279.983301 
L 50.52898 275.243126 
L 57.6 275.243126 
L 57.6 273.663068 
L 62.616969 273.663068 
L 62.616969 267.869521 
L 66.508432 267.869521 
L 66.508432 265.762777 
L 74.704957 265.762777 
L 74.704957 263.656033 
L 76.759008 263.656033 
L 76.759008 262.60266 
L 78.59642 262.60266 
L 78.59642 261.549288 
L 80.258561 261.549288 
L 80.258561 260.495916 
L 81.775977 260.495916 
L 81.775977 259.96923 
L 85.66744 259.96923 
L 85.66744 258.915858 
L 88.846997 258.915858 
L 88.846997 258.389172 
L 91.535274 258.389172 
L 91.535274 257.862486 
L 93.863965 257.862486 
L 93.863965 257.3358 
L 98.32726 257.3358 
L 98.32726 255.755741 
L 98.880934 255.755741 
L 98.880934 254.702369 
L 100.934985 254.702369 
L 100.934985 252.068939 
L 101.877879 252.068939 
L 101.877879 251.542253 
L 103.203018 251.542253 
L 103.203018 249.435508 
L 103.623262 249.435508 
L 103.623262 248.382136 
L 105.951954 248.382136 
L 105.951954 247.85545 
L 108.948899 247.85545 
L 108.948899 247.328764 
L 110.968922 247.328764 
L 110.968922 246.275392 
L 113.022974 246.275392 
L 113.022974 244.695334 
L 113.26352 244.695334 
L 113.26352 243.641962 
L 118.039942 243.641962 
L 118.039942 243.115275 
L 119.43583 243.115275 
L 119.43583 242.588589 
L 120.254726 242.588589 
L 120.254726 241.008531 
L 122.503236 241.008531 
L 122.503236 240.481845 
L 122.920132 240.481845 
L 122.920132 238.375101 
L 123.985457 238.375101 
L 123.985457 236.795043 
L 124.494669 236.795043 
L 124.494669 236.268356 
L 124.867052 236.268356 
L 124.867052 234.688298 
L 126.168212 234.688298 
L 126.168212 233.634926 
L 126.3947 233.634926 
L 126.3947 233.10824 
L 127.590383 233.10824 
L 127.590383 232.581554 
L 128.209594 232.581554 
L 128.209594 231.528182 
L 128.807571 231.528182 
L 128.807571 230.47481 
L 129.290685 230.47481 
L 129.290685 229.948123 
L 129.853291 229.948123 
L 129.853291 226.261321 
L 131.77355 226.261321 
L 131.77355 225.734635 
L 133.652238 225.734635 
L 133.652238 224.681263 
L 135.813153 224.681263 
L 135.813153 224.154577 
L 137.259399 224.154577 
L 137.259399 223.627891 
L 139.360321 223.627891 
L 139.360321 223.101204 
L 141.848763 223.101204 
L 141.848763 222.047832 
L 142.033307 222.047832 
L 142.033307 220.99446 
L 143.058132 220.99446 
L 143.058132 219.414402 
L 143.569835 219.414402 
L 143.569835 218.36103 
L 145.289185 218.36103 
L 145.289185 217.834344 
L 147.4697 217.834344 
L 147.4697 215.200913 
L 149.256637 215.200913 
L 149.256637 214.674227 
L 150.51433 214.674227 
L 150.51433 213.620855 
L 151.151579 213.620855 
L 151.205907 211.514111 
L 151.421542 211.514111 
L 151.421542 208.353994 
L 152.436193 208.353994 
L 152.436193 207.300622 
L 152.786492 207.300622 
L 152.786492 206.24725 
L 153.726778 206.24725 
L 153.726778 205.720564 
L 155.081089 205.720564 
L 155.081089 203.087133 
L 155.55245 203.087133 
L 155.55245 202.560447 
L 155.720743 202.560447 
L 155.720743 202.033761 
L 156.134506 202.033761 
L 156.134506 201.507075 
L 156.558644 201.507075 
L 156.558644 200.453703 
L 158.554957 200.453703 
L 158.554957 199.927017 
L 159.84099 199.927017 
L 159.84099 199.400331 
L 161.495615 199.400331 
L 161.495615 198.873645 
L 163.669525 198.873645 
L 163.669525 197.820273 
L 163.788565 197.820273 
L 163.788565 197.293586 
L 164.700211 197.293586 
L 164.76265 196.240214 
L 165.744209 196.240214 
L 165.744209 195.713528 
L 166.595075 195.713528 
L 166.595075 193.606784 
L 166.784816 193.606784 
L 166.851294 192.553412 
L 167.016388 192.553412 
L 167.016388 192.026726 
L 168.536542 192.026726 
L 168.536542 191.50004 
L 168.972794 191.50004 
L 168.972794 190.973354 
L 169.512694 190.973354 
L 169.512694 190.446667 
L 169.925477 190.446667 
L 169.925477 189.919981 
L 170.063995 189.919981 
L 170.174022 185.706493 
L 170.625141 185.706493 
L 170.625141 185.179807 
L 171.151517 185.179807 
L 171.151517 184.653121 
L 171.536129 184.653121 
L 171.536129 184.126434 
L 172.425997 184.126434 
L 172.425997 183.073062 
L 172.807372 183.073062 
L 172.807372 182.546376 
L 173.057066 182.546376 
L 173.057066 180.966318 
L 173.303236 180.966318 
L 173.303236 179.912946 
L 174.690307 179.912946 
L 174.732584 176.752829 
L 174.865789 176.752829 
L 174.886729 174.646085 
L 175.046437 174.646085 
L 175.046437 174.119399 
L 175.429282 174.119399 
L 175.510238 173.066027 
L 175.630972 173.066027 
L 175.711 172.012655 
L 176.338333 172.012655 
L 176.338333 170.959282 
L 176.712976 170.959282 
L 176.712976 169.90591 
L 177.690222 169.90591 
L 177.690222 167.799166 
L 178.199477 167.799166 
L 178.199477 167.27248 
L 178.411629 167.27248 
L 178.411629 166.745794 
L 178.694282 166.745794 
L 178.767027 164.63905 
L 178.8617 164.63905 
L 178.8617 164.112363 
L 179.429948 164.112363 
L 179.429948 162.532305 
L 180.243911 162.532305 
L 180.243911 159.898875 
L 180.468214 159.898875 
L 180.488462 158.318817 
L 180.594385 158.318817 
L 180.594385 157.79213 
L 180.754563 157.79213 
L 180.804318 155.1587 
L 180.923155 155.1587 
L 180.952739 154.105328 
L 181.495941 154.105328 
L 181.495941 153.051956 
L 181.610173 153.051956 
L 181.610173 151.998584 
L 181.728374 151.998584 
L 181.728374 151.471897 
L 182.312209 151.471897 
L 182.389504 150.418525 
L 182.574526 150.418525 
L 182.673003 148.311781 
L 182.70422 148.311781 
L 182.70422 147.258409 
L 183.518129 147.258409 
L 183.518129 146.205037 
L 183.909189 146.205037 
L 183.909189 145.678351 
L 184.082962 145.678351 
L 184.124083 144.098292 
L 184.685842 144.098292 
L 184.745395 142.518234 
L 184.852082 142.518234 
L 184.903218 139.358118 
L 185.295477 139.358118 
L 185.310832 137.778059 
L 185.85851 137.778059 
L 185.954922 135.671315 
L 186.465092 135.671315 
L 186.465092 134.617943 
L 186.897815 134.617943 
L 186.897815 134.091257 
L 187.030434 134.091257 
L 187.030434 133.564571 
L 187.261833 133.564571 
L 187.316641 129.877768 
L 187.473262 129.877768 
L 187.486815 127.244338 
L 187.881962 127.244338 
L 187.881962 126.717652 
L 188.004042 126.717652 
L 188.013903 124.084221 
L 188.235938 124.084221 
L 188.235938 123.557535 
L 188.633687 123.557535 
L 188.633687 121.977477 
L 188.756934 121.977477 
L 188.769525 120.924105 
L 188.876188 120.924105 
L 188.876188 119.870733 
L 189.025668 119.870733 
L 189.124615 117.763988 
L 189.247514 117.763988 
L 189.250575 116.18393 
L 189.378671 116.18393 
L 189.402964 114.077186 
L 189.551024 114.077186 
L 189.611098 111.970441 
L 189.878896 111.970441 
L 189.981939 110.390383 
L 189.993677 110.390383 
L 190.084377 107.756953 
L 190.287465 107.756953 
L 190.287465 105.123522 
L 190.416784 105.123522 
L 190.471099 104.07015 
L 190.966343 104.07015 
L 191.046612 101.43672 
L 191.09625 101.43672 
L 191.159471 100.383348 
L 191.290676 100.383348 
L 191.296121 99.329976 
L 191.539426 99.329976 
L 191.643813 98.276603 
L 192.125454 98.276603 
L 192.179883 95.643173 
L 192.277944 95.643173 
L 192.370337 94.589801 
L 192.687401 94.589801 
L 192.787656 91.429684 
L 193.00374 91.429684 
L 193.006208 90.376312 
L 193.119371 90.376312 
L 193.224494 88.269568 
L 193.396693 88.269568 
L 193.476154 86.68951 
L 193.550471 86.68951 
L 193.550471 86.162824 
L 193.705276 86.162824 
L 193.762089 83.529393 
L 193.917378 83.529393 
L 193.917378 83.002707 
L 194.03178 83.002707 
L 194.136187 75.629102 
L 194.288194 75.629102 
L 194.384241 74.57573 
L 194.567993 74.57573 
L 194.642303 73.522358 
L 194.765455 73.522358 
L 194.874444 70.888927 
L 194.969529 70.888927 
L 194.969529 68.782183 
L 195.269064 68.782183 
L 195.362027 67.728811 
L 195.430889 67.728811 
L 195.53154 62.988636 
L 195.586971 62.988636 
L 195.586971 62.46195 
L 195.785916 62.46195 
L 195.830053 60.881892 
L 195.961797 60.881892 
L 196.055294 55.615031 
L 196.269478 55.615031 
L 196.330776 54.561659 
L 196.393892 54.561659 
L 196.393892 54.034973 
L 196.616026 54.034973 
L 196.616026 53.508287 
L 196.741985 53.508287 
L 196.835365 50.874856 
L 196.857148 50.874856 
L 196.900633 49.294798 
L 196.989242 49.294798 
L 197.0226 46.661368 
L 197.163177 46.661368 
L 197.163177 46.134681 
L 197.346944 46.134681 
L 197.346944 45.607995 
L 197.555434 45.607995 
L 197.555434 45.081309 
L 197.704998 45.081309 
L 197.708768 43.501251 
L 197.881305 43.501251 
L 197.881305 42.974565 
L 198.050304 42.974565 
L 198.101976 41.394507 
L 198.3508 41.394507 
L 198.445007 39.814448 
L 198.46848 39.814448 
L 198.567439 38.23439 
L 198.845107 38.23439 
L 198.845107 37.181018 
L 199.001561 37.181018 
L 199.001561 36.654332 
L 199.194743 36.654332 
L 199.201665 34.547588 
L 199.339526 34.547588 
L 199.339526 32.440843 
L 199.679483 32.440843 
L 199.679483 31.914157 
L 201.398154 31.914157 
L 201.398154 31.387471 
L 202.463208 31.387471 
L 202.463208 30.334099 
L 338.688 30.334099 
L 338.688 30.334099 
" style="fill:none;stroke:#ff00ff;stroke-linecap:square;stroke-width:1.5;"/>
   </g>
   <g id="line2d_40">
    <defs>
     <path d="M 0 8.485281 
L 5.091169 0 
L 0 -8.485281 
L -5.091169 0 
z
" id="m2c2337bb98" style="stroke:#ff00ff;stroke-linejoin:miter;stroke-width:1.5;"/>
    </defs>
    <g>
     <use style="fill-opacity:0;stroke:#ff00ff;stroke-linejoin:miter;stroke-width:1.5;" x="66.508432" xlink:href="#m2c2337bb98" y="267.869521"/>
     <use style="fill-opacity:0;stroke:#ff00ff;stroke-linejoin:miter;stroke-width:1.5;" x="151.421542" xlink:href="#m2c2337bb98" y="208.353994"/>
     <use style="fill-opacity:0;stroke:#ff00ff;stroke-linejoin:miter;stroke-width:1.5;" x="189.378671" xlink:href="#m2c2337bb98" y="115.657244"/>
     <use style="fill-opacity:0;stroke:#ff00ff;stroke-linejoin:miter;stroke-width:1.5;" x="202.463208" xlink:href="#m2c2337bb98" y="31.387471"/>
     <use style="fill-opacity:0;stroke:#ff00ff;stroke-linejoin:miter;stroke-width:1.5;" x="202.463208" xlink:href="#m2c2337bb98" y="30.334099"/>
     <use style="fill-opacity:0;stroke:#ff00ff;stroke-linejoin:miter;stroke-width:1.5;" x="338.688" xlink:href="#m2c2337bb98" y="30.334099"/>
    </g>
   </g>
   <g id="line2d_41">
    <path style="fill:none;stroke:#ff00ff;stroke-linecap:square;stroke-width:1.5;"/>
    <g/>
   </g>
   <g id="line2d_42">
    <defs>
     <path d="M 0 1.5 
C 0.397805 1.5 0.77937 1.341951 1.06066 1.06066 
C 1.341951 0.77937 1.5 0.397805 1.5 0 
C 1.5 -0.397805 1.341951 -0.77937 1.06066 -1.06066 
C 0.77937 -1.341951 0.397805 -1.5 0 -1.5 
C -0.397805 -1.5 -0.77937 -1.341951 -1.06066 -1.06066 
C -1.341951 -0.77937 -1.5 -0.397805 -1.5 0 
C -1.5 0.397805 -1.341951 0.77937 -1.06066 1.06066 
C -0.77937 1.341951 -0.397805 1.5 0 1.5 
z
" id="mbccc60ed9f" style="stroke:#ff7500;"/>
    </defs>
    <g>
     <use style="fill:#ff7500;stroke:#ff7500;" x="194.509221" xlink:href="#mbccc60ed9f" y="30.334099"/>
     <use style="fill:#ff7500;stroke:#ff7500;" x="194.509221" xlink:href="#mbccc60ed9f" y="30.334099"/>
    </g>
   </g>
   <g id="line2d_43">
    <path d="M 38.440992 298.944 
L 38.440992 286.303534 
L 50.52898 286.303534 
L 50.52898 275.243126 
L 57.6 275.243126 
L 57.6 274.71644 
L 62.616969 274.71644 
L 62.616969 273.663068 
L 66.508432 273.663068 
L 66.508432 272.609696 
L 69.687988 272.609696 
L 69.687988 271.029638 
L 72.376266 271.029638 
L 72.376266 266.816149 
L 74.704957 266.816149 
L 74.704957 266.289463 
L 76.759008 266.289463 
L 76.759008 264.709405 
L 78.59642 264.709405 
L 78.59642 262.075974 
L 80.258561 262.075974 
L 80.258561 261.549288 
L 84.464254 261.549288 
L 84.464254 260.495916 
L 85.66744 260.495916 
L 85.66744 258.389172 
L 87.850195 258.389172 
L 87.850195 257.3358 
L 90.684409 257.3358 
L 90.684409 254.702369 
L 93.121756 254.702369 
L 93.121756 254.175683 
L 94.575872 254.175683 
L 94.575872 253.122311 
L 95.918017 253.122311 
L 95.918017 252.595625 
L 98.32726 252.595625 
L 98.32726 252.068939 
L 100.934985 252.068939 
L 100.934985 251.542253 
L 101.877879 251.542253 
L 101.877879 251.015567 
L 104.033617 251.015567 
L 104.033617 249.962195 
L 106.66386 249.962195 
L 106.66386 249.435508 
L 108.006005 249.435508 
L 108.006005 248.382136 
L 108.640231 248.382136 
L 108.640231 247.85545 
L 108.948899 247.85545 
L 108.948899 247.328764 
L 110.131676 247.328764 
L 110.131676 245.748706 
L 110.968922 245.748706 
L 110.968922 244.695334 
L 113.26352 244.695334 
L 113.26352 243.641962 
L 115.502395 243.641962 
L 115.502395 243.115275 
L 115.711251 243.115275 
L 115.711251 242.588589 
L 115.917635 242.588589 
L 115.917635 242.061903 
L 116.323218 242.061903 
L 116.323218 241.535217 
L 116.522527 241.535217 
L 116.522527 241.008531 
L 116.719583 241.008531 
L 116.719583 240.481845 
L 117.672786 240.481845 
L 117.672786 238.901787 
L 118.925375 238.901787 
L 118.925375 237.848415 
L 119.602714 237.848415 
L 119.602714 237.321729 
L 120.254726 237.321729 
L 120.254726 236.795043 
L 120.728219 236.795043 
L 120.728219 236.268356 
L 121.036887 236.268356 
L 121.036887 235.74167 
L 121.189196 235.74167 
L 121.189196 235.214984 
L 121.785469 235.214984 
L 121.785469 234.688298 
L 122.503236 234.688298 
L 122.503236 234.161612 
L 123.056911 234.161612 
L 123.056911 233.634926 
L 123.855796 233.634926 
L 123.855796 232.054868 
L 125.470548 232.054868 
L 125.470548 230.47481 
L 126.50685 230.47481 
L 126.50685 228.368065 
L 126.839037 228.368065 
L 126.839037 227.841379 
L 127.272333 227.841379 
L 127.272333 227.314693 
L 127.48501 227.314693 
L 127.48501 225.207949 
L 128.411207 225.207949 
L 128.411207 224.154577 
L 129.099042 224.154577 
L 129.099042 223.627891 
L 130.30865 223.627891 
L 130.30865 222.574518 
L 130.664567 222.574518 
L 130.752422 220.99446 
L 131.013364 220.99446 
L 131.099484 219.941088 
L 131.185181 219.941088 
L 131.185181 219.414402 
L 131.355321 219.414402 
L 131.355321 218.36103 
L 131.523818 218.36103 
L 131.523818 217.834344 
L 131.690703 217.834344 
L 131.690703 216.254285 
L 132.181982 216.254285 
L 132.181982 215.200913 
L 132.971225 215.200913 
L 132.971225 214.674227 
L 134.591225 214.674227 
L 134.591225 213.620855 
L 134.800918 213.620855 
L 134.800918 212.567483 
L 135.076644 212.567483 
L 135.076644 212.040797 
L 135.212889 212.040797 
L 135.280614 210.460738 
L 135.348078 210.460738 
L 135.348078 209.934052 
L 135.482227 209.934052 
L 135.482227 208.88068 
L 136.137916 208.88068 
L 136.137916 208.353994 
L 136.707671 208.353994 
L 136.707671 207.827308 
L 136.955041 207.827308 
L 136.955041 207.300622 
L 137.794206 207.300622 
L 137.794206 206.773936 
L 139.090775 206.773936 
L 139.090775 206.24725 
L 139.306744 206.24725 
L 139.306744 204.140506 
L 140.042245 204.140506 
L 140.042245 202.560447 
L 140.64889 202.560447 
L 140.64889 200.980389 
L 141.090414 200.980389 
L 141.090414 199.927017 
L 141.426256 199.927017 
L 141.426256 197.820273 
L 141.568232 197.820273 
L 141.568232 196.240214 
L 141.755753 196.240214 
L 141.848763 194.13347 
L 142.927826 194.13347 
L 142.927826 193.080098 
L 143.101352 193.080098 
L 143.101352 192.553412 
L 143.527762 192.553412 
L 143.611807 191.50004 
L 143.820164 191.50004 
L 143.861538 188.866609 
L 144.390658 188.866609 
L 144.390658 187.813237 
L 145.403044 187.813237 
L 145.403044 186.759865 
L 146.819289 186.759865 
L 146.819289 186.233179 
L 146.992815 186.233179 
L 146.992815 185.706493 
L 147.300877 185.706493 
L 147.334773 183.599748 
L 147.436066 183.599748 
L 147.536775 179.912946 
L 147.901141 179.912946 
L 147.96658 176.752829 
L 148.258051 176.752829 
L 148.258051 176.226143 
L 149.043029 176.226143 
L 149.043029 175.699457 
L 149.587107 175.699457 
L 149.587107 175.172771 
L 150.143571 175.172771 
L 150.143571 174.646085 
L 150.87737 174.646085 
L 150.87737 174.119399 
L 151.340991 174.119399 
L 151.394733 171.485969 
L 152.027042 171.485969 
L 152.027042 170.959282 
L 152.283884 170.959282 
L 152.283884 169.90591 
L 152.536999 169.90591 
L 152.536999 169.379224 
L 152.662192 169.379224 
L 152.662192 168.852538 
L 154.075343 168.852538 
L 154.075343 164.112363 
L 154.212841 164.112363 
L 154.212841 163.585677 
L 154.77436 163.585677 
L 154.77436 163.058991 
L 155.573575 163.058991 
L 155.573575 162.532305 
L 156.256744 162.532305 
L 156.256744 162.005619 
L 156.992185 162.005619 
L 156.992185 159.898875 
L 157.566527 159.898875 
L 157.566527 158.845503 
L 158.140788 158.845503 
L 158.140788 158.318817 
L 158.465753 158.318817 
L 158.465753 157.265444 
L 159.524055 157.265444 
L 159.524055 156.738758 
L 160.152267 156.738758 
L 160.152267 156.212072 
L 161.084903 156.212072 
L 161.084903 154.632014 
L 161.808503 154.632014 
L 161.808503 154.105328 
L 162.531628 154.105328 
L 162.531628 153.051956 
L 162.882249 153.051956 
L 162.882249 151.998584 
L 164.371873 151.998584 
L 164.371873 151.471897 
L 165.096013 151.471897 
L 165.096013 150.945211 
L 165.849938 150.945211 
L 165.896723 149.365153 
L 166.48249 149.365153 
L 166.48249 148.838467 
L 166.994465 148.838467 
L 166.994465 148.311781 
L 167.384913 148.311781 
L 167.384913 147.785095 
L 167.933895 147.785095 
L 167.933895 147.258409 
L 168.11997 147.258409 
L 168.11997 146.731723 
L 168.283721 146.731723 
L 168.283721 145.678351 
L 168.845033 145.678351 
L 168.845033 145.151665 
L 169.264103 145.151665 
L 169.264103 144.624978 
L 169.3984 144.624978 
L 169.3984 144.098292 
L 169.550626 144.098292 
L 169.616809 143.04492 
L 169.841835 143.04492 
L 169.851149 141.991548 
L 169.962523 141.991548 
L 170.036379 139.884804 
L 170.767069 139.884804 
L 170.767069 139.358118 
L 170.934121 139.358118 
L 170.934121 137.251373 
L 171.082245 137.251373 
L 171.082245 136.198001 
L 171.712752 136.198001 
L 171.712752 135.671315 
L 171.846131 135.671315 
L 171.846131 135.144629 
L 172.313173 135.144629 
L 172.313173 134.617943 
L 173.172891 134.617943 
L 173.234351 133.037885 
L 174.48451 133.037885 
L 174.48451 132.511199 
L 174.711458 132.511199 
L 174.732584 130.404454 
L 174.914609 130.404454 
L 174.914609 129.877768 
L 175.293514 129.877768 
L 175.293514 128.824396 
L 175.449557 128.824396 
L 175.449557 128.29771 
L 175.664362 128.29771 
L 175.6777 127.244338 
L 176.053603 127.244338 
L 176.066647 124.610907 
L 176.274029 124.610907 
L 176.274029 124.084221 
L 176.517133 124.084221 
L 176.517133 123.557535 
L 176.844405 123.557535 
L 176.850639 121.977477 
L 176.956275 121.977477 
L 176.956275 121.450791 
L 177.122746 121.450791 
L 177.122746 120.924105 
L 177.324077 120.924105 
L 177.414828 118.817361 
L 177.475067 118.817361 
L 177.582976 117.237302 
L 177.642639 117.237302 
L 177.642639 115.130558 
L 178.457163 115.130558 
L 178.457163 114.603872 
L 179.065994 114.603872 
L 179.093418 113.5505 
L 179.601132 113.5505 
L 179.601132 112.497128 
L 179.92287 112.497128 
L 179.92287 111.970441 
L 180.07377 111.970441 
L 180.120337 110.917069 
L 180.207959 110.917069 
L 180.310483 109.863697 
L 180.483402 109.863697 
L 180.564187 108.283639 
L 180.714656 108.283639 
L 180.764525 107.230267 
L 180.888578 107.230267 
L 180.888578 105.650209 
L 181.016664 105.650209 
L 181.060783 101.963406 
L 181.472049 101.963406 
L 181.472049 101.43672 
L 181.619658 101.43672 
L 181.619658 100.910034 
L 182.031998 100.910034 
L 182.128973 99.329976 
L 182.202498 99.329976 
L 182.284846 97.749917 
L 182.403109 97.749917 
L 182.403109 96.169859 
L 182.520577 96.169859 
L 182.520577 95.116487 
L 183.222213 95.116487 
L 183.222213 94.589801 
L 183.449956 94.589801 
L 183.449956 94.063115 
L 183.581799 94.063115 
L 183.581799 93.536429 
L 183.946572 93.536429 
L 183.979734 92.483056 
L 184.082962 92.483056 
L 184.12819 91.429684 
L 184.283534 91.429684 
L 184.283534 90.902998 
L 184.566121 90.902998 
L 184.642039 88.269568 
L 184.922846 88.269568 
L 184.922846 87.742882 
L 185.106275 87.742882 
L 185.13343 84.582765 
L 185.237776 84.582765 
L 185.237776 84.056079 
L 185.387404 84.056079 
L 185.387404 83.529393 
L 185.622664 83.529393 
L 185.622664 83.002707 
L 185.783983 83.002707 
L 185.787717 79.315904 
L 186.164438 79.315904 
L 186.23736 72.995672 
L 186.324466 72.995672 
L 186.324466 71.415613 
L 186.547496 71.415613 
L 186.547496 69.835555 
L 186.957269 69.835555 
L 186.999115 68.782183 
L 187.268693 68.782183 
L 187.268693 68.255497 
L 187.405339 68.255497 
L 187.449519 67.202125 
L 187.53079 67.202125 
L 187.53079 65.622066 
L 188.219708 65.622066 
L 188.219708 65.09538 
L 188.407055 65.09538 
L 188.448772 62.988636 
L 188.923038 62.988636 
L 189.016363 61.408578 
L 189.041166 61.408578 
L 189.140025 59.301833 
L 189.466572 59.301833 
L 189.508849 55.615031 
L 189.757409 55.615031 
L 189.757409 55.088345 
L 190.107707 55.088345 
L 190.151367 52.9816 
L 190.241253 52.9816 
L 190.287465 50.874856 
L 190.3623 50.874856 
L 190.3623 50.34817 
L 190.633035 50.34817 
L 190.652819 48.241426 
L 190.84105 48.241426 
L 190.84105 47.71474 
L 191.09625 47.71474 
L 191.09625 46.134681 
L 191.24432 46.134681 
L 191.24978 45.081309 
L 191.466791 45.081309 
L 191.466791 42.447879 
L 191.797909 42.447879 
L 191.848094 39.814448 
L 192.172118 39.814448 
L 192.197988 38.23439 
L 192.467336 38.23439 
L 192.467336 37.707704 
L 192.969148 37.707704 
L 192.979039 36.654332 
L 193.226931 36.654332 
L 193.285321 34.020902 
L 193.700533 34.020902 
L 193.700533 32.967529 
L 193.832847 32.967529 
L 193.832847 31.914157 
L 194.509221 31.914157 
L 194.509221 30.334099 
L 338.688 30.334099 
L 338.688 30.334099 
" style="fill:none;stroke:#ff7500;stroke-linecap:square;stroke-width:1.5;"/>
   </g>
   <g id="line2d_44">
    <defs>
     <path d="M 0 -6 
L -1.347084 -1.854102 
L -5.706339 -1.854102 
L -2.179628 0.708204 
L -3.526712 4.854102 
L -0 2.291796 
L 3.526712 4.854102 
L 2.179628 0.708204 
L 5.706339 -1.854102 
L 1.347084 -1.854102 
z
" id="m8a859a6b7b" style="stroke:#ff7500;stroke-linejoin:bevel;stroke-width:1.5;"/>
    </defs>
    <g>
     <use style="fill-opacity:0;stroke:#ff7500;stroke-linejoin:bevel;stroke-width:1.5;" x="139.306744" xlink:href="#m8a859a6b7b" y="206.24725"/>
     <use style="fill-opacity:0;stroke:#ff7500;stroke-linejoin:bevel;stroke-width:1.5;" x="180.564187" xlink:href="#m8a859a6b7b" y="108.283639"/>
     <use style="fill-opacity:0;stroke:#ff7500;stroke-linejoin:bevel;stroke-width:1.5;" x="194.509221" xlink:href="#m8a859a6b7b" y="31.914157"/>
     <use style="fill-opacity:0;stroke:#ff7500;stroke-linejoin:bevel;stroke-width:1.5;" x="194.509221" xlink:href="#m8a859a6b7b" y="30.334099"/>
     <use style="fill-opacity:0;stroke:#ff7500;stroke-linejoin:bevel;stroke-width:1.5;" x="194.509221" xlink:href="#m8a859a6b7b" y="30.334099"/>
     <use style="fill-opacity:0;stroke:#ff7500;stroke-linejoin:bevel;stroke-width:1.5;" x="338.688" xlink:href="#m8a859a6b7b" y="30.334099"/>
    </g>
   </g>
   <g id="line2d_45">
    <path style="fill:none;stroke:#ff7500;stroke-linecap:square;stroke-width:1.5;"/>
    <g/>
   </g>
   <g id="line2d_46">
    <path d="M 338.688 30.334099 
L 369.60768 293.571802 
" style="fill:none;stroke:#ff00ff;stroke-linecap:square;stroke-width:1.5;"/>
    <g>
     <use style="fill-opacity:0;stroke:#ff00ff;stroke-linejoin:miter;stroke-width:1.5;" x="338.688" xlink:href="#m2c2337bb98" y="30.334099"/>
     <use style="fill-opacity:0;stroke:#ff00ff;stroke-linejoin:miter;stroke-width:1.5;" x="369.60768" xlink:href="#m2c2337bb98" y="293.571802"/>
    </g>
   </g>
   <g id="line2d_47">
    <path d="M 338.688 30.334099 
L 369.60768 207.616634 
" style="fill:none;stroke:#ff7500;stroke-linecap:square;stroke-width:1.5;"/>
    <g>
     <use style="fill-opacity:0;stroke:#ff7500;stroke-linejoin:bevel;stroke-width:1.5;" x="338.688" xlink:href="#m8a859a6b7b" y="30.334099"/>
     <use style="fill-opacity:0;stroke:#ff7500;stroke-linejoin:bevel;stroke-width:1.5;" x="369.60768" xlink:href="#m8a859a6b7b" y="207.616634"/>
    </g>
   </g>
   <g id="line2d_48">
    <path d="M 338.688 30.334099 
L 369.60768 121.661465 
" style="fill:none;stroke:#000080;stroke-linecap:square;stroke-width:1.5;"/>
    <g>
     <use style="fill-opacity:0;stroke:#000080;stroke-width:1.5;" x="338.688" xlink:href="#m838a741f92" y="30.334099"/>
     <use style="fill-opacity:0;stroke:#000080;stroke-width:1.5;" x="369.60768" xlink:href="#m838a741f92" y="121.661465"/>
    </g>
   </g>
   <g id="line2d_49">
    <path d="M 338.688 298.944 
L 338.688 30.334099 
" style="fill:none;stroke:#000000;stroke-linecap:square;stroke-width:1.5;"/>
   </g>
   <g id="patch_3">
    <path d="M 57.6 298.944 
L 57.6 27.648 
" style="fill:none;stroke:#000000;stroke-linecap:square;stroke-linejoin:miter;stroke-width:0.8;"/>
   </g>
   <g id="patch_4">
    <path d="M 338.688 298.944 
L 338.688 27.648 
" style="fill:none;stroke:#000000;stroke-linecap:square;stroke-linejoin:miter;stroke-width:0.8;"/>
   </g>
   <g id="patch_5">
    <path d="M 57.6 298.944 
L 338.688 298.944 
" style="fill:none;stroke:#000000;stroke-linecap:square;stroke-linejoin:miter;stroke-width:0.8;"/>
   </g>
   <g id="patch_6">
    <path d="M 57.6 27.648 
L 338.688 27.648 
" style="fill:none;stroke:#000000;stroke-linecap:square;stroke-linejoin:miter;stroke-width:0.8;"/>
   </g>
   <g id="text_13">
    <!-- PSO Bound -->
    <g transform="translate(375.22944 298.262739)scale(0.17 -0.17)">
     <defs>
      <path d="M 1259 4147 
L 1259 2394 
L 2053 2394 
Q 2494 2394 2734 2622 
Q 2975 2850 2975 3272 
Q 2975 3691 2734 3919 
Q 2494 4147 2053 4147 
L 1259 4147 
z
M 628 4666 
L 2053 4666 
Q 2838 4666 3239 4311 
Q 3641 3956 3641 3272 
Q 3641 2581 3239 2228 
Q 2838 1875 2053 1875 
L 1259 1875 
L 1259 0 
L 628 0 
L 628 4666 
z
" id="DejaVuSans-50" transform="scale(0.015625)"/>
      <path d="M 3425 4513 
L 3425 3897 
Q 3066 4069 2747 4153 
Q 2428 4238 2131 4238 
Q 1616 4238 1336 4038 
Q 1056 3838 1056 3469 
Q 1056 3159 1242 3001 
Q 1428 2844 1947 2747 
L 2328 2669 
Q 3034 2534 3370 2195 
Q 3706 1856 3706 1288 
Q 3706 609 3251 259 
Q 2797 -91 1919 -91 
Q 1588 -91 1214 -16 
Q 841 59 441 206 
L 441 856 
Q 825 641 1194 531 
Q 1563 422 1919 422 
Q 2459 422 2753 634 
Q 3047 847 3047 1241 
Q 3047 1584 2836 1778 
Q 2625 1972 2144 2069 
L 1759 2144 
Q 1053 2284 737 2584 
Q 422 2884 422 3419 
Q 422 4038 858 4394 
Q 1294 4750 2059 4750 
Q 2388 4750 2728 4690 
Q 3069 4631 3425 4513 
z
" id="DejaVuSans-53" transform="scale(0.015625)"/>
      <path d="M 2522 4238 
Q 1834 4238 1429 3725 
Q 1025 3213 1025 2328 
Q 1025 1447 1429 934 
Q 1834 422 2522 422 
Q 3209 422 3611 934 
Q 4013 1447 4013 2328 
Q 4013 3213 3611 3725 
Q 3209 4238 2522 4238 
z
M 2522 4750 
Q 3503 4750 4090 4092 
Q 4678 3434 4678 2328 
Q 4678 1225 4090 567 
Q 3503 -91 2522 -91 
Q 1538 -91 948 565 
Q 359 1222 359 2328 
Q 359 3434 948 4092 
Q 1538 4750 2522 4750 
z
" id="DejaVuSans-4f" transform="scale(0.015625)"/>
      <path d="M 1259 2228 
L 1259 519 
L 2272 519 
Q 2781 519 3026 730 
Q 3272 941 3272 1375 
Q 3272 1813 3026 2020 
Q 2781 2228 2272 2228 
L 1259 2228 
z
M 1259 4147 
L 1259 2741 
L 2194 2741 
Q 2656 2741 2882 2914 
Q 3109 3088 3109 3444 
Q 3109 3797 2882 3972 
Q 2656 4147 2194 4147 
L 1259 4147 
z
M 628 4666 
L 2241 4666 
Q 2963 4666 3353 4366 
Q 3744 4066 3744 3513 
Q 3744 3084 3544 2831 
Q 3344 2578 2956 2516 
Q 3422 2416 3680 2098 
Q 3938 1781 3938 1306 
Q 3938 681 3513 340 
Q 3088 0 2303 0 
L 628 0 
L 628 4666 
z
" id="DejaVuSans-42" transform="scale(0.015625)"/>
     </defs>
     <use xlink:href="#DejaVuSans-50"/>
     <use x="60.302734" xlink:href="#DejaVuSans-53"/>
     <use x="123.779297" xlink:href="#DejaVuSans-4f"/>
     <use x="202.490234" xlink:href="#DejaVuSans-20"/>
     <use x="234.277344" xlink:href="#DejaVuSans-42"/>
     <use x="302.880859" xlink:href="#DejaVuSans-6f"/>
     <use x="364.0625" xlink:href="#DejaVuSans-75"/>
     <use x="427.441406" xlink:href="#DejaVuSans-6e"/>
     <use x="490.820312" xlink:href="#DejaVuSans-64"/>
    </g>
   </g>
   <g id="text_14">
    <!-- PSO EDA -->
    <g transform="translate(375.22944 212.307571)scale(0.17 -0.17)">
     <defs>
      <path d="M 628 4666 
L 3578 4666 
L 3578 4134 
L 1259 4134 
L 1259 2753 
L 3481 2753 
L 3481 2222 
L 1259 2222 
L 1259 531 
L 3634 531 
L 3634 0 
L 628 0 
L 628 4666 
z
" id="DejaVuSans-45" transform="scale(0.015625)"/>
      <path d="M 1259 4147 
L 1259 519 
L 2022 519 
Q 2988 519 3436 956 
Q 3884 1394 3884 2338 
Q 3884 3275 3436 3711 
Q 2988 4147 2022 4147 
L 1259 4147 
z
M 628 4666 
L 1925 4666 
Q 3281 4666 3915 4102 
Q 4550 3538 4550 2338 
Q 4550 1131 3912 565 
Q 3275 0 1925 0 
L 628 0 
L 628 4666 
z
" id="DejaVuSans-44" transform="scale(0.015625)"/>
      <path d="M 2188 4044 
L 1331 1722 
L 3047 1722 
L 2188 4044 
z
M 1831 4666 
L 2547 4666 
L 4325 0 
L 3669 0 
L 3244 1197 
L 1141 1197 
L 716 0 
L 50 0 
L 1831 4666 
z
" id="DejaVuSans-41" transform="scale(0.015625)"/>
     </defs>
     <use xlink:href="#DejaVuSans-50"/>
     <use x="60.302734" xlink:href="#DejaVuSans-53"/>
     <use x="123.779297" xlink:href="#DejaVuSans-4f"/>
     <use x="202.490234" xlink:href="#DejaVuSans-20"/>
     <use x="234.277344" xlink:href="#DejaVuSans-45"/>
     <use x="297.460938" xlink:href="#DejaVuSans-44"/>
     <use x="372.712891" xlink:href="#DejaVuSans-41"/>
    </g>
   </g>
   <g id="text_15">
    <!-- PSO -->
    <g transform="translate(375.22944 126.352403)scale(0.17 -0.17)">
     <use xlink:href="#DejaVuSans-50"/>
     <use x="60.302734" xlink:href="#DejaVuSans-53"/>
     <use x="123.779297" xlink:href="#DejaVuSans-4f"/>
    </g>
   </g>
   <g id="text_16">
    <!-- best 2009 -->
    <g transform="translate(375.22944 40.397235)scale(0.17 -0.17)">
     <defs>
      <path d="M 3116 1747 
Q 3116 2381 2855 2742 
Q 2594 3103 2138 3103 
Q 1681 3103 1420 2742 
Q 1159 2381 1159 1747 
Q 1159 1113 1420 752 
Q 1681 391 2138 391 
Q 2594 391 2855 752 
Q 3116 1113 3116 1747 
z
M 1159 2969 
Q 1341 3281 1617 3432 
Q 1894 3584 2278 3584 
Q 2916 3584 3314 3078 
Q 3713 2572 3713 1747 
Q 3713 922 3314 415 
Q 2916 -91 2278 -91 
Q 1894 -91 1617 61 
Q 1341 213 1159 525 
L 1159 0 
L 581 0 
L 581 4863 
L 1159 4863 
L 1159 2969 
z
" id="DejaVuSans-62" transform="scale(0.015625)"/>
      <path d="M 703 97 
L 703 672 
Q 941 559 1184 500 
Q 1428 441 1663 441 
Q 2288 441 2617 861 
Q 2947 1281 2994 2138 
Q 2813 1869 2534 1725 
Q 2256 1581 1919 1581 
Q 1219 1581 811 2004 
Q 403 2428 403 3163 
Q 403 3881 828 4315 
Q 1253 4750 1959 4750 
Q 2769 4750 3195 4129 
Q 3622 3509 3622 2328 
Q 3622 1225 3098 567 
Q 2575 -91 1691 -91 
Q 1453 -91 1209 -44 
Q 966 3 703 97 
z
M 1959 2075 
Q 2384 2075 2632 2365 
Q 2881 2656 2881 3163 
Q 2881 3666 2632 3958 
Q 2384 4250 1959 4250 
Q 1534 4250 1286 3958 
Q 1038 3666 1038 3163 
Q 1038 2656 1286 2365 
Q 1534 2075 1959 2075 
z
" id="DejaVuSans-39" transform="scale(0.015625)"/>
     </defs>
     <use xlink:href="#DejaVuSans-62"/>
     <use x="63.476562" xlink:href="#DejaVuSans-65"/>
     <use x="125" xlink:href="#DejaVuSans-73"/>
     <use x="177.099609" xlink:href="#DejaVuSans-74"/>
     <use x="216.308594" xlink:href="#DejaVuSans-20"/>
     <use x="248.095703" xlink:href="#DejaVuSans-32"/>
     <use x="311.71875" xlink:href="#DejaVuSans-30"/>
     <use x="375.341797" xlink:href="#DejaVuSans-30"/>
     <use x="438.964844" xlink:href="#DejaVuSans-39"/>
    </g>
   </g>
   <g id="text_17">
    <!-- bbob f1, 3-D -->
    <g transform="translate(60.41088 38.111366)scale(0.102 -0.102)">
     <defs>
      <path d="M 2597 2516 
Q 3050 2419 3304 2112 
Q 3559 1806 3559 1356 
Q 3559 666 3084 287 
Q 2609 -91 1734 -91 
Q 1441 -91 1130 -33 
Q 819 25 488 141 
L 488 750 
Q 750 597 1062 519 
Q 1375 441 1716 441 
Q 2309 441 2620 675 
Q 2931 909 2931 1356 
Q 2931 1769 2642 2001 
Q 2353 2234 1838 2234 
L 1294 2234 
L 1294 2753 
L 1863 2753 
Q 2328 2753 2575 2939 
Q 2822 3125 2822 3475 
Q 2822 3834 2567 4026 
Q 2313 4219 1838 4219 
Q 1578 4219 1281 4162 
Q 984 4106 628 3988 
L 628 4550 
Q 988 4650 1302 4700 
Q 1616 4750 1894 4750 
Q 2613 4750 3031 4423 
Q 3450 4097 3450 3541 
Q 3450 3153 3228 2886 
Q 3006 2619 2597 2516 
z
" id="DejaVuSans-33" transform="scale(0.015625)"/>
     </defs>
     <use xlink:href="#DejaVuSans-62"/>
     <use x="63.476562" xlink:href="#DejaVuSans-62"/>
     <use x="126.953125" xlink:href="#DejaVuSans-6f"/>
     <use x="188.134766" xlink:href="#DejaVuSans-62"/>
     <use x="251.611328" xlink:href="#DejaVuSans-20"/>
     <use x="283.398438" xlink:href="#DejaVuSans-66"/>
     <use x="318.603516" xlink:href="#DejaVuSans-31"/>
     <use x="382.226562" xlink:href="#DejaVuSans-2c"/>
     <use x="414.013672" xlink:href="#DejaVuSans-20"/>
     <use x="445.800781" xlink:href="#DejaVuSans-33"/>
     <use x="509.423828" xlink:href="#DejaVuSans-2d"/>
     <use x="545.507812" xlink:href="#DejaVuSans-44"/>
    </g>
    <!-- 51 targets: 100..1e-08 -->
    <g transform="translate(60.41088 49.533135)scale(0.102 -0.102)">
     <defs>
      <path d="M 691 4666 
L 3169 4666 
L 3169 4134 
L 1269 4134 
L 1269 2991 
Q 1406 3038 1543 3061 
Q 1681 3084 1819 3084 
Q 2600 3084 3056 2656 
Q 3513 2228 3513 1497 
Q 3513 744 3044 326 
Q 2575 -91 1722 -91 
Q 1428 -91 1123 -41 
Q 819 9 494 109 
L 494 744 
Q 775 591 1075 516 
Q 1375 441 1709 441 
Q 2250 441 2565 725 
Q 2881 1009 2881 1497 
Q 2881 1984 2565 2268 
Q 2250 2553 1709 2553 
Q 1456 2553 1204 2497 
Q 953 2441 691 2322 
L 691 4666 
z
" id="DejaVuSans-35" transform="scale(0.015625)"/>
      <path d="M 750 794 
L 1409 794 
L 1409 0 
L 750 0 
L 750 794 
z
M 750 3309 
L 1409 3309 
L 1409 2516 
L 750 2516 
L 750 3309 
z
" id="DejaVuSans-3a" transform="scale(0.015625)"/>
     </defs>
     <use xlink:href="#DejaVuSans-35"/>
     <use x="63.623047" xlink:href="#DejaVuSans-31"/>
     <use x="127.246094" xlink:href="#DejaVuSans-20"/>
     <use x="159.033203" xlink:href="#DejaVuSans-74"/>
     <use x="198.242188" xlink:href="#DejaVuSans-61"/>
     <use x="259.521484" xlink:href="#DejaVuSans-72"/>
     <use x="298.884766" xlink:href="#DejaVuSans-67"/>
     <use x="362.361328" xlink:href="#DejaVuSans-65"/>
     <use x="423.884766" xlink:href="#DejaVuSans-74"/>
     <use x="463.09375" xlink:href="#DejaVuSans-73"/>
     <use x="515.193359" xlink:href="#DejaVuSans-3a"/>
     <use x="548.884766" xlink:href="#DejaVuSans-20"/>
     <use x="580.671875" xlink:href="#DejaVuSans-31"/>
     <use x="644.294922" xlink:href="#DejaVuSans-30"/>
     <use x="707.917969" xlink:href="#DejaVuSans-30"/>
     <use x="771.541016" xlink:href="#DejaVuSans-2e"/>
     <use x="803.328125" xlink:href="#DejaVuSans-2e"/>
     <use x="835.115234" xlink:href="#DejaVuSans-31"/>
     <use x="898.738281" xlink:href="#DejaVuSans-65"/>
     <use x="960.261719" xlink:href="#DejaVuSans-2d"/>
     <use x="996.345703" xlink:href="#DejaVuSans-30"/>
     <use x="1059.96875" xlink:href="#DejaVuSans-38"/>
    </g>
    <!-- 15 instances -->
    <g transform="translate(60.41088 60.954904)scale(0.102 -0.102)">
     <use xlink:href="#DejaVuSans-31"/>
     <use x="63.623047" xlink:href="#DejaVuSans-35"/>
     <use x="127.246094" xlink:href="#DejaVuSans-20"/>
     <use x="159.033203" xlink:href="#DejaVuSans-69"/>
     <use x="186.816406" xlink:href="#DejaVuSans-6e"/>
     <use x="250.195312" xlink:href="#DejaVuSans-73"/>
     <use x="302.294922" xlink:href="#DejaVuSans-74"/>
     <use x="341.503906" xlink:href="#DejaVuSans-61"/>
     <use x="402.783203" xlink:href="#DejaVuSans-6e"/>
     <use x="466.162109" xlink:href="#DejaVuSans-63"/>
     <use x="521.142578" xlink:href="#DejaVuSans-65"/>
     <use x="582.666016" xlink:href="#DejaVuSans-73"/>
    </g>
   </g>
   <g id="text_18">
    <!-- v2.4 -->
    <g style="fill:#808080;" transform="translate(187.233062 294.151352)scale(0.1 -0.1)">
     <use xlink:href="#DejaVuSans-76"/>
     <use x="59.179688" xlink:href="#DejaVuSans-32"/>
     <use x="122.802734" xlink:href="#DejaVuSans-2e"/>
     <use x="154.589844" xlink:href="#DejaVuSans-34"/>
    </g>
   </g>
   <g id="text_19">
    <!-- 1 Sphere -->
    <g transform="translate(153.376812 21.648)scale(0.2 -0.2)">
     <defs>
      <path d="M 3513 2113 
L 3513 0 
L 2938 0 
L 2938 2094 
Q 2938 2591 2744 2837 
Q 2550 3084 2163 3084 
Q 1697 3084 1428 2787 
Q 1159 2491 1159 1978 
L 1159 0 
L 581 0 
L 581 4863 
L 1159 4863 
L 1159 2956 
Q 1366 3272 1645 3428 
Q 1925 3584 2291 3584 
Q 2894 3584 3203 3211 
Q 3513 2838 3513 2113 
z
" id="DejaVuSans-68" transform="scale(0.015625)"/>
     </defs>
     <use xlink:href="#DejaVuSans-31"/>
     <use x="63.623047" xlink:href="#DejaVuSans-20"/>
     <use x="95.410156" xlink:href="#DejaVuSans-53"/>
     <use x="158.886719" xlink:href="#DejaVuSans-70"/>
     <use x="222.363281" xlink:href="#DejaVuSans-68"/>
     <use x="285.742188" xlink:href="#DejaVuSans-65"/>
     <use x="347.265625" xlink:href="#DejaVuSans-72"/>
     <use x="386.128906" xlink:href="#DejaVuSans-65"/>
    </g>
   </g>
  </g>
 </g>
 <defs>
  <clipPath id="ped1df1d65d">
   <rect height="271.296" width="281.088" x="57.6" y="27.648"/>
  </clipPath>
 </defs>
</svg>
