<?xml version="1.0" encoding="utf-8" standalone="no"?>
<!DOCTYPE svg PUBLIC "-//W3C//DTD SVG 1.1//EN"
  "http://www.w3.org/Graphics/SVG/1.1/DTD/svg11.dtd">
<svg height="345.6pt" version="1.1" viewBox="0 0 460.8 345.6" width="460.8pt" xmlns="http://www.w3.org/2000/svg" xmlns:xlink="http://www.w3.org/1999/xlink">
 <metadata>
  <rdf:RDF xmlns:cc="http://creativecommons.org/ns#" xmlns:dc="http://purl.org/dc/elements/1.1/" xmlns:rdf="http://www.w3.org/1999/02/22-rdf-syntax-ns#">
   <cc:Work>
    <dc:type rdf:resource="http://purl.org/dc/dcmitype/StillImage"/>
    <dc:date>2021-04-25T03:18:56.378543</dc:date>
    <dc:format>image/svg+xml</dc:format>
    <dc:creator>
     <cc:Agent>
      <dc:title>Matplotlib v3.4.1, https://matplotlib.org/</dc:title>
     </cc:Agent>
    </dc:creator>
   </cc:Work>
  </rdf:RDF>
 </metadata>
 <defs>
  <style type="text/css">*{stroke-linecap:butt;stroke-linejoin:round;}</style>
 </defs>
 <g id="figure_1">
  <g id="patch_1">
   <path d="M 0 345.6 
L 460.8 345.6 
L 460.8 0 
L 0 0 
z
" style="fill:#ffffff;"/>
  </g>
  <g id="axes_1">
   <g id="patch_2">
    <path d="M 57.6 298.944 
L 338.688 298.944 
L 338.688 27.648 
L 57.6 27.648 
z
" style="fill:#ffffff;"/>
   </g>
   <g id="line2d_1">
    <path d="M 17.444571 298.944 
L 17.444571 283.143418 
L 29.53256 283.143418 
L 29.53256 277.876557 
L 36.60358 277.876557 
L 36.60358 272.609696 
L 74.263433 272.609696 
L 74.263433 267.342835 
L 94.921215 267.342835 
L 94.921215 262.075974 
L 105.398279 262.075974 
L 105.398279 256.809114 
L 112.877038 256.809114 
L 112.877038 251.542253 
L 118.094355 251.542253 
L 118.094355 246.275392 
L 123.152022 246.275392 
L 123.152022 241.008531 
L 128.560901 241.008531 
L 128.560901 235.74167 
L 133.284766 235.74167 
L 133.284766 230.47481 
L 144.111818 230.47481 
L 144.111818 225.207949 
L 147.174888 225.207949 
L 147.174888 219.941088 
L 151.684751 219.941088 
L 151.684751 214.674227 
L 156.782672 214.674227 
L 156.782672 209.407366 
L 159.410906 209.407366 
L 159.410906 204.140506 
L 165.622417 204.140506 
L 165.622417 198.873645 
L 167.458761 198.873645 
L 167.458761 193.606784 
L 170.088811 193.606784 
L 170.088811 188.339923 
L 171.738674 188.339923 
L 171.738674 183.073062 
L 173.82695 183.073062 
L 173.82695 177.806202 
L 175.182762 177.806202 
L 175.182762 172.539341 
L 175.631641 172.539341 
L 175.631641 167.27248 
L 177.804485 167.27248 
L 177.804485 162.005619 
L 178.146322 162.005619 
L 178.146322 156.738758 
L 179.464856 156.738758 
L 179.464856 151.471897 
L 181.699134 151.471897 
L 181.699134 146.205037 
L 185.283184 146.205037 
L 185.283184 140.938176 
L 185.533866 140.938176 
L 185.533866 135.671315 
L 185.741734 135.671315 
L 185.741734 130.404454 
L 187.311852 130.404454 
L 187.311852 125.137593 
L 187.617063 125.137593 
L 187.617063 119.870733 
L 188.490389 119.870733 
L 188.490389 114.603872 
L 190.319165 114.603872 
L 190.319165 109.337011 
L 190.479089 109.337011 
L 190.479089 104.07015 
L 190.635015 104.07015 
L 190.635015 98.803289 
L 191.582595 98.803289 
L 191.582595 93.536429 
L 191.756066 93.536429 
L 191.756066 88.269568 
L 192.329591 88.269568 
L 192.329591 83.002707 
L 192.561266 83.002707 
L 192.561266 77.735846 
L 193.357068 77.735846 
L 193.357068 72.468985 
L 194.784633 72.468985 
L 194.784633 67.202125 
L 194.94967 67.202125 
L 194.94967 61.935264 
L 195.063879 61.935264 
L 195.063879 56.668403 
L 195.170153 56.668403 
L 195.170153 51.401542 
L 195.290728 51.401542 
L 195.290728 46.134681 
L 195.380776 46.134681 
L 195.380776 40.867821 
L 195.471648 40.867821 
L 195.471648 35.60096 
L 195.53517 35.60096 
L 195.53517 30.334099 
L 338.688 30.334099 
" style="fill:none;stroke:#f5deb3;stroke-linecap:square;stroke-width:4;"/>
   </g>
   <g id="line2d_2">
    <defs>
     <path d="M 0 7.778175 
L 7.778175 0 
L 0 -7.778175 
L -7.778175 0 
z
" id="m984379eb4c" style="stroke:#f5deb3;stroke-linejoin:miter;stroke-width:1.5;"/>
    </defs>
    <g>
     <use style="fill:#f5deb3;stroke:#f5deb3;stroke-linejoin:miter;stroke-width:1.5;" x="118.094355" xlink:href="#m984379eb4c" y="251.542253"/>
     <use style="fill:#f5deb3;stroke:#f5deb3;stroke-linejoin:miter;stroke-width:1.5;" x="175.631641" xlink:href="#m984379eb4c" y="167.27248"/>
     <use style="fill:#f5deb3;stroke:#f5deb3;stroke-linejoin:miter;stroke-width:1.5;" x="195.53517" xlink:href="#m984379eb4c" y="35.60096"/>
     <use style="fill:#f5deb3;stroke:#f5deb3;stroke-linejoin:miter;stroke-width:1.5;" x="195.53517" xlink:href="#m984379eb4c" y="30.334099"/>
     <use style="fill:#f5deb3;stroke:#f5deb3;stroke-linejoin:miter;stroke-width:1.5;" x="195.53517" xlink:href="#m984379eb4c" y="30.334099"/>
     <use style="fill:#f5deb3;stroke:#f5deb3;stroke-linejoin:miter;stroke-width:1.5;" x="338.688" xlink:href="#m984379eb4c" y="30.334099"/>
    </g>
   </g>
   <g id="line2d_3">
    <path style="fill:none;stroke:#f5deb3;stroke-linecap:square;stroke-width:4;"/>
    <g/>
   </g>
   <g id="line2d_4">
    <path d="M 338.688 30.334099 
L 369.60768 35.706297 
" style="fill:none;stroke:#f5deb3;stroke-linecap:square;stroke-width:4;"/>
    <g>
     <use style="fill:#f5deb3;stroke:#f5deb3;stroke-linejoin:miter;stroke-width:1.5;" x="338.688" xlink:href="#m984379eb4c" y="30.334099"/>
     <use style="fill:#f5deb3;stroke:#f5deb3;stroke-linejoin:miter;stroke-width:1.5;" x="369.60768" xlink:href="#m984379eb4c" y="35.706297"/>
    </g>
   </g>
   <g id="matplotlib.axis_1">
    <g id="xtick_1">
     <g id="line2d_5">
      <path clip-path="url(#p45066005d9)" d="M 57.6 298.944 
L 57.6 27.648 
" style="fill:none;stroke:#b0b0b0;stroke-linecap:square;stroke-width:0.8;"/>
     </g>
     <g id="line2d_6">
      <defs>
       <path d="M 0 0 
L 0 3.5 
" id="m3c4a0d84df" style="stroke:#000000;stroke-width:0.8;"/>
      </defs>
      <g>
       <use style="stroke:#000000;stroke-width:0.8;" x="57.6" xlink:href="#m3c4a0d84df" y="298.944"/>
      </g>
     </g>
     <g id="text_1">
      <!-- 0 -->
      <g transform="translate(51.2375 321.140875)scale(0.2 -0.2)">
       <defs>
        <path d="M 2034 4250 
Q 1547 4250 1301 3770 
Q 1056 3291 1056 2328 
Q 1056 1369 1301 889 
Q 1547 409 2034 409 
Q 2525 409 2770 889 
Q 3016 1369 3016 2328 
Q 3016 3291 2770 3770 
Q 2525 4250 2034 4250 
z
M 2034 4750 
Q 2819 4750 3233 4129 
Q 3647 3509 3647 2328 
Q 3647 1150 3233 529 
Q 2819 -91 2034 -91 
Q 1250 -91 836 529 
Q 422 1150 422 2328 
Q 422 3509 836 4129 
Q 1250 4750 2034 4750 
z
" id="DejaVuSans-30" transform="scale(0.015625)"/>
       </defs>
       <use xlink:href="#DejaVuSans-30"/>
      </g>
     </g>
    </g>
    <g id="xtick_2">
     <g id="line2d_7">
      <path clip-path="url(#p45066005d9)" d="M 137.910857 298.944 
L 137.910857 27.648 
" style="fill:none;stroke:#b0b0b0;stroke-linecap:square;stroke-width:0.8;"/>
     </g>
     <g id="line2d_8">
      <g>
       <use style="stroke:#000000;stroke-width:0.8;" x="137.910857" xlink:href="#m3c4a0d84df" y="298.944"/>
      </g>
     </g>
     <g id="text_2">
      <!-- 2 -->
      <g transform="translate(131.548357 321.140875)scale(0.2 -0.2)">
       <defs>
        <path d="M 1228 531 
L 3431 531 
L 3431 0 
L 469 0 
L 469 531 
Q 828 903 1448 1529 
Q 2069 2156 2228 2338 
Q 2531 2678 2651 2914 
Q 2772 3150 2772 3378 
Q 2772 3750 2511 3984 
Q 2250 4219 1831 4219 
Q 1534 4219 1204 4116 
Q 875 4013 500 3803 
L 500 4441 
Q 881 4594 1212 4672 
Q 1544 4750 1819 4750 
Q 2544 4750 2975 4387 
Q 3406 4025 3406 3419 
Q 3406 3131 3298 2873 
Q 3191 2616 2906 2266 
Q 2828 2175 2409 1742 
Q 1991 1309 1228 531 
z
" id="DejaVuSans-32" transform="scale(0.015625)"/>
       </defs>
       <use xlink:href="#DejaVuSans-32"/>
      </g>
     </g>
    </g>
    <g id="xtick_3">
     <g id="line2d_9">
      <path clip-path="url(#p45066005d9)" d="M 218.221714 298.944 
L 218.221714 27.648 
" style="fill:none;stroke:#b0b0b0;stroke-linecap:square;stroke-width:0.8;"/>
     </g>
     <g id="line2d_10">
      <g>
       <use style="stroke:#000000;stroke-width:0.8;" x="218.221714" xlink:href="#m3c4a0d84df" y="298.944"/>
      </g>
     </g>
     <g id="text_3">
      <!-- 4 -->
      <g transform="translate(211.859214 321.140875)scale(0.2 -0.2)">
       <defs>
        <path d="M 2419 4116 
L 825 1625 
L 2419 1625 
L 2419 4116 
z
M 2253 4666 
L 3047 4666 
L 3047 1625 
L 3713 1625 
L 3713 1100 
L 3047 1100 
L 3047 0 
L 2419 0 
L 2419 1100 
L 313 1100 
L 313 1709 
L 2253 4666 
z
" id="DejaVuSans-34" transform="scale(0.015625)"/>
       </defs>
       <use xlink:href="#DejaVuSans-34"/>
      </g>
     </g>
    </g>
    <g id="xtick_4">
     <g id="line2d_11">
      <path clip-path="url(#p45066005d9)" d="M 298.532571 298.944 
L 298.532571 27.648 
" style="fill:none;stroke:#b0b0b0;stroke-linecap:square;stroke-width:0.8;"/>
     </g>
     <g id="line2d_12">
      <g>
       <use style="stroke:#000000;stroke-width:0.8;" x="298.532571" xlink:href="#m3c4a0d84df" y="298.944"/>
      </g>
     </g>
     <g id="text_4">
      <!-- 6 -->
      <g transform="translate(292.170071 321.140875)scale(0.2 -0.2)">
       <defs>
        <path d="M 2113 2584 
Q 1688 2584 1439 2293 
Q 1191 2003 1191 1497 
Q 1191 994 1439 701 
Q 1688 409 2113 409 
Q 2538 409 2786 701 
Q 3034 994 3034 1497 
Q 3034 2003 2786 2293 
Q 2538 2584 2113 2584 
z
M 3366 4563 
L 3366 3988 
Q 3128 4100 2886 4159 
Q 2644 4219 2406 4219 
Q 1781 4219 1451 3797 
Q 1122 3375 1075 2522 
Q 1259 2794 1537 2939 
Q 1816 3084 2150 3084 
Q 2853 3084 3261 2657 
Q 3669 2231 3669 1497 
Q 3669 778 3244 343 
Q 2819 -91 2113 -91 
Q 1303 -91 875 529 
Q 447 1150 447 2328 
Q 447 3434 972 4092 
Q 1497 4750 2381 4750 
Q 2619 4750 2861 4703 
Q 3103 4656 3366 4563 
z
" id="DejaVuSans-36" transform="scale(0.015625)"/>
       </defs>
       <use xlink:href="#DejaVuSans-36"/>
      </g>
     </g>
    </g>
    <g id="xtick_5">
     <g id="line2d_13">
      <path clip-path="url(#p45066005d9)" d="M 97.755429 298.944 
L 97.755429 27.648 
" style="fill:none;stroke:#b0b0b0;stroke-linecap:square;stroke-width:0.8;"/>
     </g>
     <g id="line2d_14">
      <defs>
       <path d="M 0 0 
L 0 2 
" id="mee5cf57612" style="stroke:#000000;stroke-width:0.6;"/>
      </defs>
      <g>
       <use style="stroke:#000000;stroke-width:0.6;" x="97.755429" xlink:href="#mee5cf57612" y="298.944"/>
      </g>
     </g>
    </g>
    <g id="xtick_6">
     <g id="line2d_15">
      <path clip-path="url(#p45066005d9)" d="M 178.066286 298.944 
L 178.066286 27.648 
" style="fill:none;stroke:#b0b0b0;stroke-linecap:square;stroke-width:0.8;"/>
     </g>
     <g id="line2d_16">
      <g>
       <use style="stroke:#000000;stroke-width:0.6;" x="178.066286" xlink:href="#mee5cf57612" y="298.944"/>
      </g>
     </g>
    </g>
    <g id="xtick_7">
     <g id="line2d_17">
      <path clip-path="url(#p45066005d9)" d="M 258.377143 298.944 
L 258.377143 27.648 
" style="fill:none;stroke:#b0b0b0;stroke-linecap:square;stroke-width:0.8;"/>
     </g>
     <g id="line2d_18">
      <g>
       <use style="stroke:#000000;stroke-width:0.6;" x="258.377143" xlink:href="#mee5cf57612" y="298.944"/>
      </g>
     </g>
    </g>
    <g id="xtick_8">
     <g id="line2d_19">
      <path clip-path="url(#p45066005d9)" d="M 338.688 298.944 
L 338.688 27.648 
" style="fill:none;stroke:#b0b0b0;stroke-linecap:square;stroke-width:0.8;"/>
     </g>
     <g id="line2d_20">
      <g>
       <use style="stroke:#000000;stroke-width:0.6;" x="338.688" xlink:href="#mee5cf57612" y="298.944"/>
      </g>
     </g>
    </g>
    <g id="text_5">
     <!-- log10(# f-evals / dimension) -->
     <g transform="translate(77.764078 342.217594)scale(0.17 -0.17)">
      <defs>
       <path d="M 603 4863 
L 1178 4863 
L 1178 0 
L 603 0 
L 603 4863 
z
" id="DejaVuSans-6c" transform="scale(0.015625)"/>
       <path d="M 1959 3097 
Q 1497 3097 1228 2736 
Q 959 2375 959 1747 
Q 959 1119 1226 758 
Q 1494 397 1959 397 
Q 2419 397 2687 759 
Q 2956 1122 2956 1747 
Q 2956 2369 2687 2733 
Q 2419 3097 1959 3097 
z
M 1959 3584 
Q 2709 3584 3137 3096 
Q 3566 2609 3566 1747 
Q 3566 888 3137 398 
Q 2709 -91 1959 -91 
Q 1206 -91 779 398 
Q 353 888 353 1747 
Q 353 2609 779 3096 
Q 1206 3584 1959 3584 
z
" id="DejaVuSans-6f" transform="scale(0.015625)"/>
       <path d="M 2906 1791 
Q 2906 2416 2648 2759 
Q 2391 3103 1925 3103 
Q 1463 3103 1205 2759 
Q 947 2416 947 1791 
Q 947 1169 1205 825 
Q 1463 481 1925 481 
Q 2391 481 2648 825 
Q 2906 1169 2906 1791 
z
M 3481 434 
Q 3481 -459 3084 -895 
Q 2688 -1331 1869 -1331 
Q 1566 -1331 1297 -1286 
Q 1028 -1241 775 -1147 
L 775 -588 
Q 1028 -725 1275 -790 
Q 1522 -856 1778 -856 
Q 2344 -856 2625 -561 
Q 2906 -266 2906 331 
L 2906 616 
Q 2728 306 2450 153 
Q 2172 0 1784 0 
Q 1141 0 747 490 
Q 353 981 353 1791 
Q 353 2603 747 3093 
Q 1141 3584 1784 3584 
Q 2172 3584 2450 3431 
Q 2728 3278 2906 2969 
L 2906 3500 
L 3481 3500 
L 3481 434 
z
" id="DejaVuSans-67" transform="scale(0.015625)"/>
       <path d="M 794 531 
L 1825 531 
L 1825 4091 
L 703 3866 
L 703 4441 
L 1819 4666 
L 2450 4666 
L 2450 531 
L 3481 531 
L 3481 0 
L 794 0 
L 794 531 
z
" id="DejaVuSans-31" transform="scale(0.015625)"/>
       <path d="M 1984 4856 
Q 1566 4138 1362 3434 
Q 1159 2731 1159 2009 
Q 1159 1288 1364 580 
Q 1569 -128 1984 -844 
L 1484 -844 
Q 1016 -109 783 600 
Q 550 1309 550 2009 
Q 550 2706 781 3412 
Q 1013 4119 1484 4856 
L 1984 4856 
z
" id="DejaVuSans-28" transform="scale(0.015625)"/>
       <path d="M 3272 2816 
L 2363 2816 
L 2100 1772 
L 3016 1772 
L 3272 2816 
z
M 2803 4594 
L 2478 3297 
L 3391 3297 
L 3719 4594 
L 4219 4594 
L 3897 3297 
L 4872 3297 
L 4872 2816 
L 3775 2816 
L 3519 1772 
L 4513 1772 
L 4513 1294 
L 3397 1294 
L 3072 0 
L 2572 0 
L 2894 1294 
L 1978 1294 
L 1656 0 
L 1153 0 
L 1478 1294 
L 494 1294 
L 494 1772 
L 1594 1772 
L 1856 2816 
L 850 2816 
L 850 3297 
L 1978 3297 
L 2297 4594 
L 2803 4594 
z
" id="DejaVuSans-23" transform="scale(0.015625)"/>
       <path id="DejaVuSans-20" transform="scale(0.015625)"/>
       <path d="M 2375 4863 
L 2375 4384 
L 1825 4384 
Q 1516 4384 1395 4259 
Q 1275 4134 1275 3809 
L 1275 3500 
L 2222 3500 
L 2222 3053 
L 1275 3053 
L 1275 0 
L 697 0 
L 697 3053 
L 147 3053 
L 147 3500 
L 697 3500 
L 697 3744 
Q 697 4328 969 4595 
Q 1241 4863 1831 4863 
L 2375 4863 
z
" id="DejaVuSans-66" transform="scale(0.015625)"/>
       <path d="M 313 2009 
L 1997 2009 
L 1997 1497 
L 313 1497 
L 313 2009 
z
" id="DejaVuSans-2d" transform="scale(0.015625)"/>
       <path d="M 3597 1894 
L 3597 1613 
L 953 1613 
Q 991 1019 1311 708 
Q 1631 397 2203 397 
Q 2534 397 2845 478 
Q 3156 559 3463 722 
L 3463 178 
Q 3153 47 2828 -22 
Q 2503 -91 2169 -91 
Q 1331 -91 842 396 
Q 353 884 353 1716 
Q 353 2575 817 3079 
Q 1281 3584 2069 3584 
Q 2775 3584 3186 3129 
Q 3597 2675 3597 1894 
z
M 3022 2063 
Q 3016 2534 2758 2815 
Q 2500 3097 2075 3097 
Q 1594 3097 1305 2825 
Q 1016 2553 972 2059 
L 3022 2063 
z
" id="DejaVuSans-65" transform="scale(0.015625)"/>
       <path d="M 191 3500 
L 800 3500 
L 1894 563 
L 2988 3500 
L 3597 3500 
L 2284 0 
L 1503 0 
L 191 3500 
z
" id="DejaVuSans-76" transform="scale(0.015625)"/>
       <path d="M 2194 1759 
Q 1497 1759 1228 1600 
Q 959 1441 959 1056 
Q 959 750 1161 570 
Q 1363 391 1709 391 
Q 2188 391 2477 730 
Q 2766 1069 2766 1631 
L 2766 1759 
L 2194 1759 
z
M 3341 1997 
L 3341 0 
L 2766 0 
L 2766 531 
Q 2569 213 2275 61 
Q 1981 -91 1556 -91 
Q 1019 -91 701 211 
Q 384 513 384 1019 
Q 384 1609 779 1909 
Q 1175 2209 1959 2209 
L 2766 2209 
L 2766 2266 
Q 2766 2663 2505 2880 
Q 2244 3097 1772 3097 
Q 1472 3097 1187 3025 
Q 903 2953 641 2809 
L 641 3341 
Q 956 3463 1253 3523 
Q 1550 3584 1831 3584 
Q 2591 3584 2966 3190 
Q 3341 2797 3341 1997 
z
" id="DejaVuSans-61" transform="scale(0.015625)"/>
       <path d="M 2834 3397 
L 2834 2853 
Q 2591 2978 2328 3040 
Q 2066 3103 1784 3103 
Q 1356 3103 1142 2972 
Q 928 2841 928 2578 
Q 928 2378 1081 2264 
Q 1234 2150 1697 2047 
L 1894 2003 
Q 2506 1872 2764 1633 
Q 3022 1394 3022 966 
Q 3022 478 2636 193 
Q 2250 -91 1575 -91 
Q 1294 -91 989 -36 
Q 684 19 347 128 
L 347 722 
Q 666 556 975 473 
Q 1284 391 1588 391 
Q 1994 391 2212 530 
Q 2431 669 2431 922 
Q 2431 1156 2273 1281 
Q 2116 1406 1581 1522 
L 1381 1569 
Q 847 1681 609 1914 
Q 372 2147 372 2553 
Q 372 3047 722 3315 
Q 1072 3584 1716 3584 
Q 2034 3584 2315 3537 
Q 2597 3491 2834 3397 
z
" id="DejaVuSans-73" transform="scale(0.015625)"/>
       <path d="M 1625 4666 
L 2156 4666 
L 531 -594 
L 0 -594 
L 1625 4666 
z
" id="DejaVuSans-2f" transform="scale(0.015625)"/>
       <path d="M 2906 2969 
L 2906 4863 
L 3481 4863 
L 3481 0 
L 2906 0 
L 2906 525 
Q 2725 213 2448 61 
Q 2172 -91 1784 -91 
Q 1150 -91 751 415 
Q 353 922 353 1747 
Q 353 2572 751 3078 
Q 1150 3584 1784 3584 
Q 2172 3584 2448 3432 
Q 2725 3281 2906 2969 
z
M 947 1747 
Q 947 1113 1208 752 
Q 1469 391 1925 391 
Q 2381 391 2643 752 
Q 2906 1113 2906 1747 
Q 2906 2381 2643 2742 
Q 2381 3103 1925 3103 
Q 1469 3103 1208 2742 
Q 947 2381 947 1747 
z
" id="DejaVuSans-64" transform="scale(0.015625)"/>
       <path d="M 603 3500 
L 1178 3500 
L 1178 0 
L 603 0 
L 603 3500 
z
M 603 4863 
L 1178 4863 
L 1178 4134 
L 603 4134 
L 603 4863 
z
" id="DejaVuSans-69" transform="scale(0.015625)"/>
       <path d="M 3328 2828 
Q 3544 3216 3844 3400 
Q 4144 3584 4550 3584 
Q 5097 3584 5394 3201 
Q 5691 2819 5691 2113 
L 5691 0 
L 5113 0 
L 5113 2094 
Q 5113 2597 4934 2840 
Q 4756 3084 4391 3084 
Q 3944 3084 3684 2787 
Q 3425 2491 3425 1978 
L 3425 0 
L 2847 0 
L 2847 2094 
Q 2847 2600 2669 2842 
Q 2491 3084 2119 3084 
Q 1678 3084 1418 2786 
Q 1159 2488 1159 1978 
L 1159 0 
L 581 0 
L 581 3500 
L 1159 3500 
L 1159 2956 
Q 1356 3278 1631 3431 
Q 1906 3584 2284 3584 
Q 2666 3584 2933 3390 
Q 3200 3197 3328 2828 
z
" id="DejaVuSans-6d" transform="scale(0.015625)"/>
       <path d="M 3513 2113 
L 3513 0 
L 2938 0 
L 2938 2094 
Q 2938 2591 2744 2837 
Q 2550 3084 2163 3084 
Q 1697 3084 1428 2787 
Q 1159 2491 1159 1978 
L 1159 0 
L 581 0 
L 581 3500 
L 1159 3500 
L 1159 2956 
Q 1366 3272 1645 3428 
Q 1925 3584 2291 3584 
Q 2894 3584 3203 3211 
Q 3513 2838 3513 2113 
z
" id="DejaVuSans-6e" transform="scale(0.015625)"/>
       <path d="M 513 4856 
L 1013 4856 
Q 1481 4119 1714 3412 
Q 1947 2706 1947 2009 
Q 1947 1309 1714 600 
Q 1481 -109 1013 -844 
L 513 -844 
Q 928 -128 1133 580 
Q 1338 1288 1338 2009 
Q 1338 2731 1133 3434 
Q 928 4138 513 4856 
z
" id="DejaVuSans-29" transform="scale(0.015625)"/>
      </defs>
      <use xlink:href="#DejaVuSans-6c"/>
      <use x="27.783203" xlink:href="#DejaVuSans-6f"/>
      <use x="88.964844" xlink:href="#DejaVuSans-67"/>
      <use x="152.441406" xlink:href="#DejaVuSans-31"/>
      <use x="216.064453" xlink:href="#DejaVuSans-30"/>
      <use x="279.6875" xlink:href="#DejaVuSans-28"/>
      <use x="318.701172" xlink:href="#DejaVuSans-23"/>
      <use x="402.490234" xlink:href="#DejaVuSans-20"/>
      <use x="434.277344" xlink:href="#DejaVuSans-66"/>
      <use x="463.982422" xlink:href="#DejaVuSans-2d"/>
      <use x="500.066406" xlink:href="#DejaVuSans-65"/>
      <use x="561.589844" xlink:href="#DejaVuSans-76"/>
      <use x="620.769531" xlink:href="#DejaVuSans-61"/>
      <use x="682.048828" xlink:href="#DejaVuSans-6c"/>
      <use x="709.832031" xlink:href="#DejaVuSans-73"/>
      <use x="761.931641" xlink:href="#DejaVuSans-20"/>
      <use x="793.71875" xlink:href="#DejaVuSans-2f"/>
      <use x="827.410156" xlink:href="#DejaVuSans-20"/>
      <use x="859.197266" xlink:href="#DejaVuSans-64"/>
      <use x="922.673828" xlink:href="#DejaVuSans-69"/>
      <use x="950.457031" xlink:href="#DejaVuSans-6d"/>
      <use x="1047.869141" xlink:href="#DejaVuSans-65"/>
      <use x="1109.392578" xlink:href="#DejaVuSans-6e"/>
      <use x="1172.771484" xlink:href="#DejaVuSans-73"/>
      <use x="1224.871094" xlink:href="#DejaVuSans-69"/>
      <use x="1252.654297" xlink:href="#DejaVuSans-6f"/>
      <use x="1313.835938" xlink:href="#DejaVuSans-6e"/>
      <use x="1377.214844" xlink:href="#DejaVuSans-29"/>
     </g>
    </g>
   </g>
   <g id="matplotlib.axis_2">
    <g id="ytick_1">
     <g id="line2d_21">
      <path clip-path="url(#p45066005d9)" d="M 57.6 298.944 
L 338.688 298.944 
" style="fill:none;stroke:#b0b0b0;stroke-linecap:square;stroke-width:0.8;"/>
     </g>
     <g id="line2d_22">
      <defs>
       <path d="M 0 0 
L -3.5 0 
" id="m687eb79bbb" style="stroke:#000000;stroke-width:0.8;"/>
      </defs>
      <g>
       <use style="stroke:#000000;stroke-width:0.8;" x="57.6" xlink:href="#m687eb79bbb" y="298.944"/>
      </g>
     </g>
     <g id="text_6">
      <!-- 0.0 -->
      <g transform="translate(25.155 305.02275)scale(0.16 -0.16)">
       <defs>
        <path d="M 684 794 
L 1344 794 
L 1344 0 
L 684 0 
L 684 794 
z
" id="DejaVuSans-2e" transform="scale(0.015625)"/>
       </defs>
       <use xlink:href="#DejaVuSans-30"/>
       <use x="63.623047" xlink:href="#DejaVuSans-2e"/>
       <use x="95.410156" xlink:href="#DejaVuSans-30"/>
      </g>
     </g>
    </g>
    <g id="ytick_2">
     <g id="line2d_23">
      <path clip-path="url(#p45066005d9)" d="M 57.6 245.22202 
L 338.688 245.22202 
" style="fill:none;stroke:#b0b0b0;stroke-linecap:square;stroke-width:0.8;"/>
     </g>
     <g id="line2d_24">
      <g>
       <use style="stroke:#000000;stroke-width:0.8;" x="57.6" xlink:href="#m687eb79bbb" y="245.22202"/>
      </g>
     </g>
     <g id="text_7">
      <!-- 0.2 -->
      <g transform="translate(25.155 251.30077)scale(0.16 -0.16)">
       <use xlink:href="#DejaVuSans-30"/>
       <use x="63.623047" xlink:href="#DejaVuSans-2e"/>
       <use x="95.410156" xlink:href="#DejaVuSans-32"/>
      </g>
     </g>
    </g>
    <g id="ytick_3">
     <g id="line2d_25">
      <path clip-path="url(#p45066005d9)" d="M 57.6 191.50004 
L 338.688 191.50004 
" style="fill:none;stroke:#b0b0b0;stroke-linecap:square;stroke-width:0.8;"/>
     </g>
     <g id="line2d_26">
      <g>
       <use style="stroke:#000000;stroke-width:0.8;" x="57.6" xlink:href="#m687eb79bbb" y="191.50004"/>
      </g>
     </g>
     <g id="text_8">
      <!-- 0.4 -->
      <g transform="translate(25.155 197.57879)scale(0.16 -0.16)">
       <use xlink:href="#DejaVuSans-30"/>
       <use x="63.623047" xlink:href="#DejaVuSans-2e"/>
       <use x="95.410156" xlink:href="#DejaVuSans-34"/>
      </g>
     </g>
    </g>
    <g id="ytick_4">
     <g id="line2d_27">
      <path clip-path="url(#p45066005d9)" d="M 57.6 137.778059 
L 338.688 137.778059 
" style="fill:none;stroke:#b0b0b0;stroke-linecap:square;stroke-width:0.8;"/>
     </g>
     <g id="line2d_28">
      <g>
       <use style="stroke:#000000;stroke-width:0.8;" x="57.6" xlink:href="#m687eb79bbb" y="137.778059"/>
      </g>
     </g>
     <g id="text_9">
      <!-- 0.6 -->
      <g transform="translate(25.155 143.856809)scale(0.16 -0.16)">
       <use xlink:href="#DejaVuSans-30"/>
       <use x="63.623047" xlink:href="#DejaVuSans-2e"/>
       <use x="95.410156" xlink:href="#DejaVuSans-36"/>
      </g>
     </g>
    </g>
    <g id="ytick_5">
     <g id="line2d_29">
      <path clip-path="url(#p45066005d9)" d="M 57.6 84.056079 
L 338.688 84.056079 
" style="fill:none;stroke:#b0b0b0;stroke-linecap:square;stroke-width:0.8;"/>
     </g>
     <g id="line2d_30">
      <g>
       <use style="stroke:#000000;stroke-width:0.8;" x="57.6" xlink:href="#m687eb79bbb" y="84.056079"/>
      </g>
     </g>
     <g id="text_10">
      <!-- 0.8 -->
      <g transform="translate(25.155 90.134829)scale(0.16 -0.16)">
       <defs>
        <path d="M 2034 2216 
Q 1584 2216 1326 1975 
Q 1069 1734 1069 1313 
Q 1069 891 1326 650 
Q 1584 409 2034 409 
Q 2484 409 2743 651 
Q 3003 894 3003 1313 
Q 3003 1734 2745 1975 
Q 2488 2216 2034 2216 
z
M 1403 2484 
Q 997 2584 770 2862 
Q 544 3141 544 3541 
Q 544 4100 942 4425 
Q 1341 4750 2034 4750 
Q 2731 4750 3128 4425 
Q 3525 4100 3525 3541 
Q 3525 3141 3298 2862 
Q 3072 2584 2669 2484 
Q 3125 2378 3379 2068 
Q 3634 1759 3634 1313 
Q 3634 634 3220 271 
Q 2806 -91 2034 -91 
Q 1263 -91 848 271 
Q 434 634 434 1313 
Q 434 1759 690 2068 
Q 947 2378 1403 2484 
z
M 1172 3481 
Q 1172 3119 1398 2916 
Q 1625 2713 2034 2713 
Q 2441 2713 2670 2916 
Q 2900 3119 2900 3481 
Q 2900 3844 2670 4047 
Q 2441 4250 2034 4250 
Q 1625 4250 1398 4047 
Q 1172 3844 1172 3481 
z
" id="DejaVuSans-38" transform="scale(0.015625)"/>
       </defs>
       <use xlink:href="#DejaVuSans-30"/>
       <use x="63.623047" xlink:href="#DejaVuSans-2e"/>
       <use x="95.410156" xlink:href="#DejaVuSans-38"/>
      </g>
     </g>
    </g>
    <g id="ytick_6">
     <g id="line2d_31">
      <path clip-path="url(#p45066005d9)" d="M 57.6 30.334099 
L 338.688 30.334099 
" style="fill:none;stroke:#b0b0b0;stroke-linecap:square;stroke-width:0.8;"/>
     </g>
     <g id="line2d_32">
      <g>
       <use style="stroke:#000000;stroke-width:0.8;" x="57.6" xlink:href="#m687eb79bbb" y="30.334099"/>
      </g>
     </g>
     <g id="text_11">
      <!-- 1.0 -->
      <g transform="translate(25.155 36.412849)scale(0.16 -0.16)">
       <use xlink:href="#DejaVuSans-31"/>
       <use x="63.623047" xlink:href="#DejaVuSans-2e"/>
       <use x="95.410156" xlink:href="#DejaVuSans-30"/>
      </g>
     </g>
    </g>
    <g id="text_12">
     <!-- Fraction of function,target pairs -->
     <g transform="translate(17.619531 297.681)rotate(-90)scale(0.17 -0.17)">
      <defs>
       <path d="M 628 4666 
L 3309 4666 
L 3309 4134 
L 1259 4134 
L 1259 2759 
L 3109 2759 
L 3109 2228 
L 1259 2228 
L 1259 0 
L 628 0 
L 628 4666 
z
" id="DejaVuSans-46" transform="scale(0.015625)"/>
       <path d="M 2631 2963 
Q 2534 3019 2420 3045 
Q 2306 3072 2169 3072 
Q 1681 3072 1420 2755 
Q 1159 2438 1159 1844 
L 1159 0 
L 581 0 
L 581 3500 
L 1159 3500 
L 1159 2956 
Q 1341 3275 1631 3429 
Q 1922 3584 2338 3584 
Q 2397 3584 2469 3576 
Q 2541 3569 2628 3553 
L 2631 2963 
z
" id="DejaVuSans-72" transform="scale(0.015625)"/>
       <path d="M 3122 3366 
L 3122 2828 
Q 2878 2963 2633 3030 
Q 2388 3097 2138 3097 
Q 1578 3097 1268 2742 
Q 959 2388 959 1747 
Q 959 1106 1268 751 
Q 1578 397 2138 397 
Q 2388 397 2633 464 
Q 2878 531 3122 666 
L 3122 134 
Q 2881 22 2623 -34 
Q 2366 -91 2075 -91 
Q 1284 -91 818 406 
Q 353 903 353 1747 
Q 353 2603 823 3093 
Q 1294 3584 2113 3584 
Q 2378 3584 2631 3529 
Q 2884 3475 3122 3366 
z
" id="DejaVuSans-63" transform="scale(0.015625)"/>
       <path d="M 1172 4494 
L 1172 3500 
L 2356 3500 
L 2356 3053 
L 1172 3053 
L 1172 1153 
Q 1172 725 1289 603 
Q 1406 481 1766 481 
L 2356 481 
L 2356 0 
L 1766 0 
Q 1100 0 847 248 
Q 594 497 594 1153 
L 594 3053 
L 172 3053 
L 172 3500 
L 594 3500 
L 594 4494 
L 1172 4494 
z
" id="DejaVuSans-74" transform="scale(0.015625)"/>
       <path d="M 544 1381 
L 544 3500 
L 1119 3500 
L 1119 1403 
Q 1119 906 1312 657 
Q 1506 409 1894 409 
Q 2359 409 2629 706 
Q 2900 1003 2900 1516 
L 2900 3500 
L 3475 3500 
L 3475 0 
L 2900 0 
L 2900 538 
Q 2691 219 2414 64 
Q 2138 -91 1772 -91 
Q 1169 -91 856 284 
Q 544 659 544 1381 
z
M 1991 3584 
L 1991 3584 
z
" id="DejaVuSans-75" transform="scale(0.015625)"/>
       <path d="M 750 794 
L 1409 794 
L 1409 256 
L 897 -744 
L 494 -744 
L 750 256 
L 750 794 
z
" id="DejaVuSans-2c" transform="scale(0.015625)"/>
       <path d="M 1159 525 
L 1159 -1331 
L 581 -1331 
L 581 3500 
L 1159 3500 
L 1159 2969 
Q 1341 3281 1617 3432 
Q 1894 3584 2278 3584 
Q 2916 3584 3314 3078 
Q 3713 2572 3713 1747 
Q 3713 922 3314 415 
Q 2916 -91 2278 -91 
Q 1894 -91 1617 61 
Q 1341 213 1159 525 
z
M 3116 1747 
Q 3116 2381 2855 2742 
Q 2594 3103 2138 3103 
Q 1681 3103 1420 2742 
Q 1159 2381 1159 1747 
Q 1159 1113 1420 752 
Q 1681 391 2138 391 
Q 2594 391 2855 752 
Q 3116 1113 3116 1747 
z
" id="DejaVuSans-70" transform="scale(0.015625)"/>
      </defs>
      <use xlink:href="#DejaVuSans-46"/>
      <use x="50.269531" xlink:href="#DejaVuSans-72"/>
      <use x="91.382812" xlink:href="#DejaVuSans-61"/>
      <use x="152.662109" xlink:href="#DejaVuSans-63"/>
      <use x="207.642578" xlink:href="#DejaVuSans-74"/>
      <use x="246.851562" xlink:href="#DejaVuSans-69"/>
      <use x="274.634766" xlink:href="#DejaVuSans-6f"/>
      <use x="335.816406" xlink:href="#DejaVuSans-6e"/>
      <use x="399.195312" xlink:href="#DejaVuSans-20"/>
      <use x="430.982422" xlink:href="#DejaVuSans-6f"/>
      <use x="492.164062" xlink:href="#DejaVuSans-66"/>
      <use x="527.369141" xlink:href="#DejaVuSans-20"/>
      <use x="559.15625" xlink:href="#DejaVuSans-66"/>
      <use x="594.361328" xlink:href="#DejaVuSans-75"/>
      <use x="657.740234" xlink:href="#DejaVuSans-6e"/>
      <use x="721.119141" xlink:href="#DejaVuSans-63"/>
      <use x="776.099609" xlink:href="#DejaVuSans-74"/>
      <use x="815.308594" xlink:href="#DejaVuSans-69"/>
      <use x="843.091797" xlink:href="#DejaVuSans-6f"/>
      <use x="904.273438" xlink:href="#DejaVuSans-6e"/>
      <use x="967.652344" xlink:href="#DejaVuSans-2c"/>
      <use x="999.439453" xlink:href="#DejaVuSans-74"/>
      <use x="1038.648438" xlink:href="#DejaVuSans-61"/>
      <use x="1099.927734" xlink:href="#DejaVuSans-72"/>
      <use x="1139.291016" xlink:href="#DejaVuSans-67"/>
      <use x="1202.767578" xlink:href="#DejaVuSans-65"/>
      <use x="1264.291016" xlink:href="#DejaVuSans-74"/>
      <use x="1303.5" xlink:href="#DejaVuSans-20"/>
      <use x="1335.287109" xlink:href="#DejaVuSans-70"/>
      <use x="1398.763672" xlink:href="#DejaVuSans-61"/>
      <use x="1460.042969" xlink:href="#DejaVuSans-69"/>
      <use x="1487.826172" xlink:href="#DejaVuSans-72"/>
      <use x="1528.939453" xlink:href="#DejaVuSans-73"/>
     </g>
    </g>
   </g>
   <g id="line2d_33">
    <defs>
     <path d="M 0 1.5 
C 0.397805 1.5 0.77937 1.341951 1.06066 1.06066 
C 1.341951 0.77937 1.5 0.397805 1.5 0 
C 1.5 -0.397805 1.341951 -0.77937 1.06066 -1.06066 
C 0.77937 -1.341951 0.397805 -1.5 0 -1.5 
C -0.397805 -1.5 -0.77937 -1.341951 -1.06066 -1.06066 
C -1.341951 -0.77937 -1.5 -0.397805 -1.5 0 
C -1.5 0.397805 -1.341951 0.77937 -1.06066 1.06066 
C -0.77937 1.341951 -0.397805 1.5 0 1.5 
z
" id="m0b19144de4" style="stroke:#f5deb3;"/>
    </defs>
    <g>
     <use style="fill:#f5deb3;stroke:#f5deb3;" x="195.53517" xlink:href="#m0b19144de4" y="30.334099"/>
     <use style="fill:#f5deb3;stroke:#f5deb3;" x="195.53517" xlink:href="#m0b19144de4" y="30.334099"/>
    </g>
   </g>
   <g id="line2d_34">
    <defs>
     <path d="M 0 1.5 
C 0.397805 1.5 0.77937 1.341951 1.06066 1.06066 
C 1.341951 0.77937 1.5 0.397805 1.5 0 
C 1.5 -0.397805 1.341951 -0.77937 1.06066 -1.06066 
C 0.77937 -1.341951 0.397805 -1.5 0 -1.5 
C -0.397805 -1.5 -0.77937 -1.341951 -1.06066 -1.06066 
C -1.341951 -0.77937 -1.5 -0.397805 -1.5 0 
C -1.5 0.397805 -1.341951 0.77937 -1.06066 1.06066 
C -0.77937 1.341951 -0.397805 1.5 0 1.5 
z
" id="m1bb80699d8" style="stroke:#000080;"/>
    </defs>
    <g>
     <use style="fill:#000080;stroke:#000080;" x="277.626734" xlink:href="#m1bb80699d8" y="198.873645"/>
     <use style="fill:#000080;stroke:#000080;" x="277.626734" xlink:href="#m1bb80699d8" y="198.873645"/>
    </g>
   </g>
   <g id="line2d_35">
    <path d="M 17.444571 298.944 
L 17.444571 288.410278 
L 29.53256 288.410278 
L 29.53256 284.723476 
L 36.60358 284.723476 
L 36.60358 282.090045 
L 41.620548 282.090045 
L 41.620548 281.036673 
L 45.512012 281.036673 
L 45.512012 279.983301 
L 48.691568 279.983301 
L 48.691568 277.876557 
L 51.379845 277.876557 
L 51.379845 276.823185 
L 55.762588 276.823185 
L 55.762588 276.296499 
L 57.6 276.296499 
L 57.6 275.243126 
L 60.779557 275.243126 
L 60.779557 273.663068 
L 71.35013 273.663068 
L 71.35013 273.136382 
L 72.125336 273.136382 
L 72.125336 272.08301 
L 74.921597 272.08301 
L 74.921597 271.556324 
L 83.830028 271.556324 
L 83.830028 271.029638 
L 84.213325 271.029638 
L 84.213325 270.502952 
L 85.66744 270.502952 
L 85.66744 269.976266 
L 86.683608 269.976266 
L 86.683608 269.449579 
L 89.418828 269.449579 
L 89.418828 268.922893 
L 91.535274 268.922893 
L 91.535274 268.396207 
L 93.422441 268.396207 
L 93.422441 267.869521 
L 96.110718 267.869521 
L 96.110718 267.342835 
L 97.224242 267.342835 
L 97.224242 266.816149 
L 101.506816 266.816149 
L 101.506816 266.289463 
L 101.646892 266.289463 
L 101.646892 265.762777 
L 102.859376 265.762777 
L 102.859376 265.236091 
L 106.906317 265.236091 
L 106.906317 264.709405 
L 107.213174 264.709405 
L 107.213174 264.182719 
L 114.284194 264.182719 
L 114.284194 263.656033 
L 114.552496 263.656033 
L 114.552496 263.129347 
L 114.685115 263.129347 
L 114.685115 262.075974 
L 115.711251 262.075974 
L 115.711251 261.549288 
L 115.897107 261.549288 
L 115.897107 261.022602 
L 116.38325 261.022602 
L 116.38325 260.495916 
L 116.914437 260.495916 
L 116.914437 259.96923 
L 119.148409 259.96923 
L 119.199476 258.915858 
L 120.524615 258.915858 
L 120.524615 258.389172 
L 120.8059 258.389172 
L 120.8059 257.862486 
L 122.988655 257.862486 
L 122.988655 257.3358 
L 124.854767 257.3358 
L 124.854767 256.809114 
L 127.197279 256.809114 
L 127.197279 256.282427 
L 127.54831 256.282427 
L 127.54831 255.755741 
L 128.107907 255.755741 
L 128.107907 254.702369 
L 129.118302 254.702369 
L 129.118302 254.175683 
L 129.686407 254.175683 
L 129.686407 253.648997 
L 132.398622 253.648997 
L 132.398622 253.122311 
L 133.147807 253.122311 
L 133.147807 252.595625 
L 134.745246 252.595625 
L 134.745246 252.068939 
L 135.219673 252.068939 
L 135.219673 251.542253 
L 138.460171 251.542253 
L 138.460171 251.015567 
L 139.887228 251.015567 
L 139.887228 250.488881 
L 140.959126 250.488881 
L 140.959126 249.962195 
L 141.307054 249.962195 
L 141.364373 248.908822 
L 142.686372 248.908822 
L 142.686372 248.382136 
L 143.066785 248.382136 
L 143.157379 246.802078 
L 145.429504 246.802078 
L 145.429504 246.275392 
L 145.910079 246.275392 
L 145.910079 245.748706 
L 146.812312 245.748706 
L 146.812312 245.22202 
L 147.670154 245.22202 
L 147.670154 244.695334 
L 147.858474 244.695334 
L 147.858474 244.168648 
L 148.87334 244.168648 
L 148.87334 243.641962 
L 150.120495 243.641962 
L 150.120495 243.115275 
L 150.741418 243.115275 
L 150.741418 242.588589 
L 152.161072 242.588589 
L 152.161072 242.061903 
L 152.639723 242.061903 
L 152.639723 241.535217 
L 153.580644 241.535217 
L 153.658577 240.481845 
L 153.792374 240.481845 
L 153.827414 239.428473 
L 155.050658 239.428473 
L 155.050658 238.901787 
L 155.399584 238.901787 
L 155.399584 238.375101 
L 156.953214 238.375101 
L 156.953214 237.848415 
L 158.064083 237.848415 
L 158.064083 237.321729 
L 158.978632 237.321729 
L 159.025463 236.268356 
L 160.689494 236.268356 
L 160.689494 235.74167 
L 160.900768 235.74167 
L 160.900768 235.214984 
L 161.040208 235.214984 
L 161.040208 234.688298 
L 161.977497 234.688298 
L 161.977497 234.161612 
L 163.090659 234.161612 
L 163.090659 233.634926 
L 163.780654 233.634926 
L 163.780654 233.10824 
L 163.992995 233.10824 
L 163.992995 232.581554 
L 164.53934 232.581554 
L 164.53934 232.054868 
L 167.004334 232.054868 
L 167.004334 231.528182 
L 167.602347 231.528182 
L 167.602347 231.001496 
L 169.368752 231.001496 
L 169.368752 230.47481 
L 169.721245 230.47481 
L 169.819463 229.421437 
L 171.237722 229.421437 
L 171.237722 228.894751 
L 172.286472 228.894751 
L 172.286472 228.368065 
L 173.695248 228.368065 
L 173.695248 227.841379 
L 173.822502 227.841379 
L 173.87137 226.788007 
L 174.315944 226.788007 
L 174.315944 226.261321 
L 175.529074 226.261321 
L 175.529074 225.734635 
L 175.783374 225.734635 
L 175.783374 225.207949 
L 175.919999 225.207949 
L 175.919999 224.681263 
L 176.390886 224.681263 
L 176.390886 224.154577 
L 177.640852 224.154577 
L 177.640852 223.627891 
L 178.250169 223.627891 
L 178.250169 223.101204 
L 180.441348 223.101204 
L 180.441348 222.574518 
L 180.774482 222.574518 
L 180.774482 222.047832 
L 182.567792 222.047832 
L 182.567792 221.521146 
L 185.84698 221.521146 
L 185.84698 220.99446 
L 188.233342 220.99446 
L 188.233342 220.467774 
L 191.830678 220.467774 
L 191.830678 219.941088 
L 206.264032 219.941088 
L 206.264032 219.414402 
L 206.490008 219.414402 
L 206.490008 218.887716 
L 206.655981 218.887716 
L 206.662412 217.834344 
L 207.467795 217.834344 
L 207.467795 217.307658 
L 207.66985 217.307658 
L 207.66985 216.780971 
L 207.949918 216.780971 
L 207.949918 216.254285 
L 208.473444 216.254285 
L 208.473444 215.200913 
L 208.680521 215.200913 
L 208.680521 214.674227 
L 209.344065 214.674227 
L 209.344065 214.147541 
L 209.591819 214.147541 
L 209.591819 213.094169 
L 210.179366 213.094169 
L 210.179366 212.567483 
L 212.497199 212.567483 
L 212.497199 211.514111 
L 218.64672 211.514111 
L 218.745493 210.460738 
L 219.541562 210.460738 
L 219.541562 209.934052 
L 219.738026 209.934052 
L 219.738026 209.407366 
L 219.900652 209.407366 
L 219.900652 208.88068 
L 220.344612 208.88068 
L 220.344612 207.827308 
L 221.692103 207.827308 
L 221.692103 207.300622 
L 226.600397 207.300622 
L 226.600397 206.24725 
L 231.084333 206.24725 
L 231.084333 205.720564 
L 231.621383 205.720564 
L 231.621383 205.193878 
L 235.08157 205.193878 
L 235.08157 204.667192 
L 235.258284 204.667192 
L 235.258284 204.140506 
L 237.830616 204.140506 
L 237.830616 203.613819 
L 238.266045 203.613819 
L 238.266045 203.087133 
L 240.702362 203.087133 
L 240.702362 202.560447 
L 245.046923 202.560447 
L 245.046923 201.507075 
L 248.439761 201.507075 
L 248.439761 200.453703 
L 254.733704 200.453703 
L 254.733704 199.927017 
L 255.860553 199.927017 
L 255.860553 199.400331 
L 277.626734 199.400331 
L 277.626734 198.873645 
L 338.688 198.873645 
L 338.688 198.873645 
" style="fill:none;stroke:#000080;stroke-linecap:square;stroke-width:1.5;"/>
   </g>
   <g id="line2d_36">
    <defs>
     <path d="M 0 6 
C 1.591219 6 3.117479 5.367802 4.242641 4.242641 
C 5.367802 3.117479 6 1.591219 6 0 
C 6 -1.591219 5.367802 -3.117479 4.242641 -4.242641 
C 3.117479 -5.367802 1.591219 -6 0 -6 
C -1.591219 -6 -3.117479 -5.367802 -4.242641 -4.242641 
C -5.367802 -3.117479 -6 -1.591219 -6 0 
C -6 1.591219 -5.367802 3.117479 -4.242641 4.242641 
C -3.117479 5.367802 -1.591219 6 0 6 
z
" id="m264efb3f63" style="stroke:#000080;stroke-width:1.5;"/>
    </defs>
    <g>
     <use style="fill-opacity:0;stroke:#000080;stroke-width:1.5;" x="116.914437" xlink:href="#m264efb3f63" y="260.495916"/>
     <use style="fill-opacity:0;stroke:#000080;stroke-width:1.5;" x="182.567792" xlink:href="#m264efb3f63" y="222.047832"/>
     <use style="fill-opacity:0;stroke:#000080;stroke-width:1.5;" x="255.860553" xlink:href="#m264efb3f63" y="199.927017"/>
     <use style="fill-opacity:0;stroke:#000080;stroke-width:1.5;" x="277.626734" xlink:href="#m264efb3f63" y="198.873645"/>
     <use style="fill-opacity:0;stroke:#000080;stroke-width:1.5;" x="338.688" xlink:href="#m264efb3f63" y="198.873645"/>
    </g>
   </g>
   <g id="line2d_37">
    <path style="fill:none;stroke:#000080;stroke-linecap:square;stroke-width:1.5;"/>
    <g/>
   </g>
   <g id="line2d_38">
    <path clip-path="url(#p45066005d9)" d="M 206.133726 219.941088 
" style="fill:none;stroke:#000080;stroke-linecap:square;stroke-width:1.5;"/>
    <defs>
     <path d="M -12 12 
L 12 -12 
M -12 -12 
L 12 12 
" id="m7d677a8086" style="stroke:#000080;"/>
    </defs>
    <g clip-path="url(#p45066005d9)">
     <use style="fill:#000080;stroke:#000080;" x="206.133726" xlink:href="#m7d677a8086" y="219.941088"/>
    </g>
   </g>
   <g id="line2d_39">
    <defs>
     <path d="M 0 1.5 
C 0.397805 1.5 0.77937 1.341951 1.06066 1.06066 
C 1.341951 0.77937 1.5 0.397805 1.5 0 
C 1.5 -0.397805 1.341951 -0.77937 1.06066 -1.06066 
C 0.77937 -1.341951 0.397805 -1.5 0 -1.5 
C -0.397805 -1.5 -0.77937 -1.341951 -1.06066 -1.06066 
C -1.341951 -0.77937 -1.5 -0.397805 -1.5 0 
C -1.5 0.397805 -1.341951 0.77937 -1.06066 1.06066 
C -0.77937 1.341951 -0.397805 1.5 0 1.5 
z
" id="m00f26d1a57" style="stroke:#ff00ff;"/>
    </defs>
    <g>
     <use style="fill:#ff00ff;stroke:#ff00ff;" x="263.203707" xlink:href="#m00f26d1a57" y="188.339923"/>
     <use style="fill:#ff00ff;stroke:#ff00ff;" x="263.203707" xlink:href="#m00f26d1a57" y="188.339923"/>
    </g>
   </g>
   <g id="line2d_40">
    <path d="M 17.444571 298.944 
L 17.444571 283.670104 
L 29.53256 283.670104 
L 29.53256 280.509987 
L 36.60358 280.509987 
L 36.60358 277.876557 
L 41.620548 277.876557 
L 41.620548 277.349871 
L 45.512012 277.349871 
L 45.512012 276.296499 
L 51.379845 276.296499 
L 51.379845 275.243126 
L 53.708537 275.243126 
L 53.708537 274.71644 
L 57.6 274.71644 
L 57.6 273.136382 
L 59.262141 273.136382 
L 59.262141 272.609696 
L 70.538854 272.609696 
L 70.538854 272.08301 
L 73.579452 272.08301 
L 73.579452 271.556324 
L 77.884514 271.556324 
L 77.884514 271.029638 
L 82.206598 271.029638 
L 82.206598 270.502952 
L 82.626842 270.502952 
L 82.626842 269.976266 
L 83.438118 269.976266 
L 83.438118 269.449579 
L 83.830028 269.449579 
L 83.830028 268.922893 
L 86.012784 268.922893 
L 86.012784 268.396207 
L 87.952479 268.396207 
L 87.952479 267.869521 
L 89.972502 267.869521 
L 89.972502 267.342835 
L 95.723163 267.342835 
L 95.723163 266.816149 
L 95.918017 266.816149 
L 95.918017 266.289463 
L 97.755429 266.289463 
L 97.755429 265.762777 
L 100.192776 265.762777 
L 100.192776 265.236091 
L 105.951954 265.236091 
L 105.951954 263.656033 
L 108.577836 263.656033 
L 108.577836 263.129347 
L 110.77713 263.129347 
L 110.77713 262.60266 
L 112.280765 262.60266 
L 112.280765 262.075974 
L 116.38325 262.075974 
L 116.38325 261.022602 
L 118.576578 261.022602 
L 118.576578 260.495916 
L 120.571812 260.495916 
L 120.571812 259.96923 
L 124.101333 259.96923 
L 124.101333 259.442544 
L 127.293718 259.442544 
L 127.293718 258.915858 
L 131.312942 258.915858 
L 131.312942 258.389172 
L 135.858985 258.389172 
L 135.858985 257.862486 
L 138.527635 257.862486 
L 138.527635 257.3358 
L 139.123342 257.3358 
L 139.123342 256.809114 
L 140.165274 256.809114 
L 140.165274 256.282427 
L 141.506851 256.282427 
L 141.506851 255.755741 
L 145.005114 255.755741 
L 145.005114 255.229055 
L 146.854132 255.229055 
L 146.854132 254.702369 
L 149.619812 254.702369 
L 149.619812 254.175683 
L 150.361278 254.175683 
L 150.361278 253.648997 
L 150.94908 253.648997 
L 150.94908 253.122311 
L 152.360205 253.122311 
L 152.360205 252.595625 
L 153.848404 252.595625 
L 153.848404 252.068939 
L 155.854218 252.068939 
L 155.854218 251.542253 
L 156.580579 251.542253 
L 156.580579 251.015567 
L 157.034952 251.015567 
L 157.034952 250.488881 
L 158.184468 250.488881 
L 158.184468 249.962195 
L 159.07735 249.962195 
L 159.165206 248.908822 
L 160.200913 248.908822 
L 160.200913 248.382136 
L 163.804376 248.382136 
L 163.89501 247.328764 
L 165.461488 247.328764 
L 165.461488 246.802078 
L 165.806549 246.802078 
L 165.806549 246.275392 
L 166.615263 246.275392 
L 166.615263 245.748706 
L 167.014197 245.748706 
L 167.014197 245.22202 
L 168.019943 245.22202 
L 168.019943 244.695334 
L 170.435289 244.695334 
L 170.435289 244.168648 
L 170.988289 244.168648 
L 170.988289 243.641962 
L 171.63055 243.641962 
L 171.703544 242.588589 
L 172.196359 242.588589 
L 172.196359 242.061903 
L 172.582734 242.061903 
L 172.582734 241.535217 
L 173.033033 241.535217 
L 173.033033 241.008531 
L 174.410829 241.008531 
L 174.410829 240.481845 
L 175.025688 240.481845 
L 175.025688 239.955159 
L 175.336395 239.955159 
L 175.442125 237.848415 
L 176.890483 237.848415 
L 176.925892 236.795043 
L 177.270615 236.795043 
L 177.270615 236.268356 
L 177.578194 236.268356 
L 177.578194 235.74167 
L 177.719303 235.74167 
L 177.774364 234.688298 
L 179.057758 234.688298 
L 179.057758 234.161612 
L 179.200509 234.161612 
L 179.200509 233.634926 
L 179.914506 233.634926 
L 179.914506 233.10824 
L 180.841542 233.10824 
L 180.853437 232.054868 
L 181.13358 232.054868 
L 181.13358 231.528182 
L 181.370378 231.528182 
L 181.370378 231.001496 
L 181.562667 231.001496 
L 181.562667 230.47481 
L 181.892054 230.47481 
L 181.892054 229.948123 
L 182.316765 229.948123 
L 182.316765 229.421437 
L 182.555663 229.421437 
L 182.617566 228.368065 
L 183.728625 228.368065 
L 183.728625 227.841379 
L 184.15445 227.841379 
L 184.15445 227.314693 
L 184.28801 227.314693 
L 184.28801 226.788007 
L 184.47619 226.788007 
L 184.47619 226.261321 
L 184.653996 226.261321 
L 184.653996 225.734635 
L 184.830008 225.734635 
L 184.830008 225.207949 
L 185.643758 225.207949 
L 185.643758 224.681263 
L 185.888232 224.681263 
L 185.91049 223.627891 
L 186.640183 223.627891 
L 186.640183 223.101204 
L 186.972973 223.101204 
L 186.972973 222.574518 
L 187.193424 222.574518 
L 187.193424 222.047832 
L 187.667416 222.047832 
L 187.667416 221.521146 
L 187.903139 221.521146 
L 187.903139 220.99446 
L 188.38841 220.99446 
L 188.38841 220.467774 
L 188.981269 220.467774 
L 188.981269 219.941088 
L 189.126156 219.941088 
L 189.126156 219.414402 
L 190.922731 219.414402 
L 190.992679 218.36103 
L 195.597185 218.36103 
L 195.597185 217.834344 
L 197.610486 217.834344 
L 197.610486 217.307658 
L 206.949678 217.307658 
L 206.949678 216.780971 
L 208.401316 216.780971 
L 208.462156 215.727599 
L 208.56895 215.727599 
L 208.56895 215.200913 
L 209.270795 215.200913 
L 209.270795 214.674227 
L 209.507517 214.674227 
L 209.507517 214.147541 
L 210.146423 214.147541 
L 210.146423 213.620855 
L 210.394043 213.620855 
L 210.394043 213.094169 
L 210.638734 213.094169 
L 210.638734 212.567483 
L 210.778253 212.567483 
L 210.778253 212.040797 
L 211.184755 212.040797 
L 211.19389 210.460738 
L 211.515006 210.460738 
L 211.515006 209.934052 
L 212.224596 209.934052 
L 212.245245 208.353994 
L 219.780499 208.353994 
L 219.780499 207.827308 
L 219.931352 207.827308 
L 219.931352 207.300622 
L 220.350324 207.300622 
L 220.446529 205.720564 
L 220.533961 205.720564 
L 220.596776 204.140506 
L 220.725961 204.140506 
L 220.761878 203.087133 
L 222.434705 203.087133 
L 222.434705 202.560447 
L 226.982123 202.560447 
L 227.001529 201.507075 
L 227.225244 201.507075 
L 227.276785 200.453703 
L 227.567674 200.453703 
L 227.567674 199.927017 
L 231.402697 199.927017 
L 231.402697 199.400331 
L 232.04975 199.400331 
L 232.04975 198.873645 
L 235.234304 198.873645 
L 235.262026 197.820273 
L 236.010191 197.820273 
L 236.010191 197.293586 
L 238.256041 197.293586 
L 238.360768 195.186842 
L 238.443716 195.186842 
L 238.443716 194.13347 
L 240.888137 194.13347 
L 240.984047 193.080098 
L 243.200949 193.080098 
L 243.289408 192.026726 
L 245.033247 192.026726 
L 245.033247 191.50004 
L 246.795764 191.50004 
L 246.795764 190.973354 
L 251.363274 190.973354 
L 251.363274 190.446667 
L 252.620513 190.446667 
L 252.620513 189.919981 
L 255.925546 189.919981 
L 255.925546 189.393295 
L 256.90131 189.393295 
L 256.90131 188.866609 
L 263.203707 188.866609 
L 263.203707 188.339923 
L 338.688 188.339923 
L 338.688 188.339923 
" style="fill:none;stroke:#ff00ff;stroke-linecap:square;stroke-width:1.5;"/>
   </g>
   <g id="line2d_41">
    <defs>
     <path d="M 0 8.485281 
L 5.091169 0 
L 0 -8.485281 
L -5.091169 0 
z
" id="medecada9af" style="stroke:#ff00ff;stroke-linejoin:miter;stroke-width:1.5;"/>
    </defs>
    <g>
     <use style="fill-opacity:0;stroke:#ff00ff;stroke-linejoin:miter;stroke-width:1.5;" x="95.918017" xlink:href="#medecada9af" y="266.816149"/>
     <use style="fill-opacity:0;stroke:#ff00ff;stroke-linejoin:miter;stroke-width:1.5;" x="160.200913" xlink:href="#medecada9af" y="248.382136"/>
     <use style="fill-opacity:0;stroke:#ff00ff;stroke-linejoin:miter;stroke-width:1.5;" x="222.434705" xlink:href="#medecada9af" y="203.087133"/>
     <use style="fill-opacity:0;stroke:#ff00ff;stroke-linejoin:miter;stroke-width:1.5;" x="263.203707" xlink:href="#medecada9af" y="188.866609"/>
     <use style="fill-opacity:0;stroke:#ff00ff;stroke-linejoin:miter;stroke-width:1.5;" x="263.203707" xlink:href="#medecada9af" y="188.339923"/>
     <use style="fill-opacity:0;stroke:#ff00ff;stroke-linejoin:miter;stroke-width:1.5;" x="338.688" xlink:href="#medecada9af" y="188.339923"/>
    </g>
   </g>
   <g id="line2d_42">
    <path style="fill:none;stroke:#ff00ff;stroke-linecap:square;stroke-width:1.5;"/>
    <g/>
   </g>
   <g id="line2d_43">
    <path clip-path="url(#p45066005d9)" d="M 206.133726 217.307658 
" style="fill:none;stroke:#ff00ff;stroke-linecap:square;stroke-width:1.5;"/>
    <defs>
     <path d="M -12 12 
L 12 -12 
M -12 -12 
L 12 12 
" id="m2be2f91af6" style="stroke:#ff00ff;"/>
    </defs>
    <g clip-path="url(#p45066005d9)">
     <use style="fill:#ff00ff;stroke:#ff00ff;" x="206.133726" xlink:href="#m2be2f91af6" y="217.307658"/>
    </g>
   </g>
   <g id="line2d_44">
    <defs>
     <path d="M 0 1.5 
C 0.397805 1.5 0.77937 1.341951 1.06066 1.06066 
C 1.341951 0.77937 1.5 0.397805 1.5 0 
C 1.5 -0.397805 1.341951 -0.77937 1.06066 -1.06066 
C 0.77937 -1.341951 0.397805 -1.5 0 -1.5 
C -0.397805 -1.5 -0.77937 -1.341951 -1.06066 -1.06066 
C -1.341951 -0.77937 -1.5 -0.397805 -1.5 0 
C -1.5 0.397805 -1.341951 0.77937 -1.06066 1.06066 
C -0.77937 1.341951 -0.397805 1.5 0 1.5 
z
" id="mf0dc552f44" style="stroke:#ff7500;"/>
    </defs>
    <g>
     <use style="fill:#ff7500;stroke:#ff7500;" x="254.404529" xlink:href="#mf0dc552f44" y="209.407366"/>
     <use style="fill:#ff7500;stroke:#ff7500;" x="254.404529" xlink:href="#mf0dc552f44" y="209.407366"/>
    </g>
   </g>
   <g id="line2d_45">
    <path d="M 17.444571 298.944 
L 17.444571 288.410278 
L 29.53256 288.410278 
L 29.53256 282.616732 
L 36.60358 282.616732 
L 36.60358 281.563359 
L 41.620548 281.563359 
L 41.620548 277.876557 
L 45.512012 277.876557 
L 45.512012 276.296499 
L 48.691568 276.296499 
L 48.691568 275.769812 
L 53.708537 275.769812 
L 53.708537 275.243126 
L 57.6 275.243126 
L 57.6 274.71644 
L 62.175444 274.71644 
L 62.175444 274.189754 
L 65.796525 274.189754 
L 65.796525 273.663068 
L 72.125336 273.663068 
L 72.125336 273.136382 
L 72.867545 273.136382 
L 72.867545 272.609696 
L 82.626842 272.609696 
L 82.626842 272.08301 
L 83.037197 272.08301 
L 83.037197 271.556324 
L 86.012784 271.556324 
L 86.012784 271.029638 
L 86.683608 271.029638 
L 86.683608 270.502952 
L 90.509138 270.502952 
L 90.509138 269.976266 
L 92.026554 269.976266 
L 92.026554 269.449579 
L 94.921215 269.449579 
L 94.921215 268.922893 
L 95.326798 268.922893 
L 95.326798 268.396207 
L 96.676366 268.396207 
L 96.676366 267.869521 
L 97.043522 267.869521 
L 97.043522 267.342835 
L 97.224242 267.342835 
L 97.224242 266.816149 
L 100.789049 266.816149 
L 100.789049 266.289463 
L 103.498249 266.289463 
L 103.498249 265.762777 
L 109.131511 265.762777 
L 109.131511 265.236091 
L 110.443353 265.236091 
L 110.443353 264.709405 
L 117.373392 264.709405 
L 117.373392 264.182719 
L 120.852343 264.182719 
L 120.852343 263.656033 
L 126.405947 263.656033 
L 126.405947 263.129347 
L 128.077285 263.129347 
L 128.077285 262.60266 
L 129.46138 262.60266 
L 129.46138 262.075974 
L 130.664567 262.075974 
L 130.664567 261.549288 
L 131.814826 261.549288 
L 131.814826 261.022602 
L 142.699628 261.022602 
L 142.699628 260.495916 
L 142.871056 260.495916 
L 142.871056 259.96923 
L 145.888018 259.96923 
L 145.888018 259.442544 
L 150.581924 259.442544 
L 150.581924 258.915858 
L 153.098289 258.915858 
L 153.098289 258.389172 
L 153.580644 258.389172 
L 153.580644 257.862486 
L 155.922644 257.862486 
L 155.922644 257.3358 
L 157.174189 257.3358 
L 157.174189 256.809114 
L 157.815223 256.809114 
L 157.815223 256.282427 
L 163.725178 256.282427 
L 163.725178 255.755741 
L 165.131442 255.755741 
L 165.131442 255.229055 
L 166.568121 255.229055 
L 166.568121 254.702369 
L 171.074434 254.702369 
L 171.074434 254.175683 
L 173.044666 254.175683 
L 173.125882 253.122311 
L 173.298652 253.122311 
L 173.298652 252.595625 
L 173.757875 252.595625 
L 173.757875 252.068939 
L 174.220541 252.068939 
L 174.220541 251.542253 
L 176.670834 251.542253 
L 176.770676 250.488881 
L 176.959372 250.488881 
L 176.959372 249.962195 
L 178.988423 249.962195 
L 178.988423 249.435508 
L 179.747441 249.435508 
L 179.747441 248.908822 
L 180.451998 248.908822 
L 180.451998 248.382136 
L 181.085245 248.382136 
L 181.085245 247.85545 
L 181.827515 247.85545 
L 181.827515 247.328764 
L 182.691294 247.328764 
L 182.691294 246.802078 
L 184.26358 246.802078 
L 184.26358 246.275392 
L 185.209239 246.275392 
L 185.209239 245.748706 
L 186.239907 245.748706 
L 186.239907 245.22202 
L 187.031477 245.22202 
L 187.031477 244.695334 
L 187.145826 244.695334 
L 187.145826 244.168648 
L 188.767322 244.168648 
L 188.767322 243.641962 
L 188.987797 243.641962 
L 188.987797 243.115275 
L 189.399626 243.115275 
L 189.399626 242.588589 
L 189.965787 242.588589 
L 189.965787 242.061903 
L 190.589149 242.061903 
L 190.589149 241.535217 
L 190.753368 241.535217 
L 190.753368 241.008531 
L 191.348855 241.008531 
L 191.348855 240.481845 
L 192.73359 240.481845 
L 192.73359 239.955159 
L 192.857991 239.955159 
L 192.857991 239.428473 
L 193.436709 239.428473 
L 193.436709 238.901787 
L 193.559081 238.901787 
L 193.559081 238.375101 
L 193.682736 238.375101 
L 193.682736 237.848415 
L 193.861304 237.848415 
L 193.861304 237.321729 
L 194.111186 237.321729 
L 194.111186 236.795043 
L 194.356167 236.795043 
L 194.356167 236.268356 
L 194.92581 236.268356 
L 194.92581 235.74167 
L 195.208697 235.74167 
L 195.208697 235.214984 
L 195.380776 235.214984 
L 195.405958 234.161612 
L 195.69646 234.161612 
L 195.75158 233.10824 
L 196.428407 233.10824 
L 196.428407 232.581554 
L 196.568404 232.581554 
L 196.568404 232.054868 
L 196.719858 232.054868 
L 196.719858 231.528182 
L 197.480931 231.528182 
L 197.480931 231.001496 
L 198.430185 231.001496 
L 198.430185 230.47481 
L 199.264871 230.47481 
L 199.264871 229.948123 
L 199.690926 229.948123 
L 199.756913 228.894751 
L 200.096962 228.894751 
L 200.102384 227.841379 
L 200.422766 227.841379 
L 200.422766 227.314693 
L 200.630579 227.314693 
L 200.630579 226.788007 
L 200.994956 226.788007 
L 200.994956 226.261321 
L 201.138136 226.261321 
L 201.245102 225.207949 
L 201.27923 225.207949 
L 201.370218 224.154577 
L 202.340084 224.154577 
L 202.340084 223.627891 
L 202.622194 223.627891 
L 202.622194 223.101204 
L 202.885533 223.101204 
L 202.885533 222.574518 
L 203.02198 222.574518 
L 203.127557 221.521146 
L 203.373626 221.521146 
L 203.373626 220.99446 
L 203.638821 220.99446 
L 203.638821 220.467774 
L 204.006363 220.467774 
L 204.052404 219.414402 
L 204.293989 219.414402 
L 204.293989 218.887716 
L 204.787702 218.887716 
L 204.787702 218.36103 
L 204.973586 218.36103 
L 205.021609 216.780971 
L 205.283209 216.780971 
L 205.283209 216.254285 
L 205.450498 216.254285 
L 205.450498 215.727599 
L 205.688266 215.727599 
L 205.737574 214.674227 
L 205.910829 214.674227 
L 205.910829 214.147541 
L 217.561685 214.147541 
L 217.65129 213.094169 
L 217.942379 213.094169 
L 218.024763 212.040797 
L 224.855502 212.040797 
L 224.914532 210.987425 
L 234.11298 210.987425 
L 234.11298 210.460738 
L 237.163477 210.460738 
L 237.163477 209.934052 
L 254.404529 209.934052 
L 254.404529 209.407366 
L 338.688 209.407366 
L 338.688 209.407366 
" style="fill:none;stroke:#ff7500;stroke-linecap:square;stroke-width:1.5;"/>
   </g>
   <g id="line2d_46">
    <defs>
     <path d="M 0 -6 
L -1.347084 -1.854102 
L -5.706339 -1.854102 
L -2.179628 0.708204 
L -3.526712 4.854102 
L -0 2.291796 
L 3.526712 4.854102 
L 2.179628 0.708204 
L 5.706339 -1.854102 
L 1.347084 -1.854102 
z
" id="maa54f19e60" style="stroke:#ff7500;stroke-linejoin:bevel;stroke-width:1.5;"/>
    </defs>
    <g>
     <use style="fill-opacity:0;stroke:#ff7500;stroke-linejoin:bevel;stroke-width:1.5;" x="62.175444" xlink:href="#maa54f19e60" y="274.189754"/>
     <use style="fill-opacity:0;stroke:#ff7500;stroke-linejoin:bevel;stroke-width:1.5;" x="131.814826" xlink:href="#maa54f19e60" y="261.022602"/>
     <use style="fill-opacity:0;stroke:#ff7500;stroke-linejoin:bevel;stroke-width:1.5;" x="193.861304" xlink:href="#maa54f19e60" y="237.321729"/>
     <use style="fill-opacity:0;stroke:#ff7500;stroke-linejoin:bevel;stroke-width:1.5;" x="254.404529" xlink:href="#maa54f19e60" y="209.934052"/>
     <use style="fill-opacity:0;stroke:#ff7500;stroke-linejoin:bevel;stroke-width:1.5;" x="254.404529" xlink:href="#maa54f19e60" y="209.407366"/>
     <use style="fill-opacity:0;stroke:#ff7500;stroke-linejoin:bevel;stroke-width:1.5;" x="338.688" xlink:href="#maa54f19e60" y="209.407366"/>
    </g>
   </g>
   <g id="line2d_47">
    <path style="fill:none;stroke:#ff7500;stroke-linecap:square;stroke-width:1.5;"/>
    <g/>
   </g>
   <g id="line2d_48">
    <path clip-path="url(#p45066005d9)" d="M 206.133726 214.147541 
" style="fill:none;stroke:#ff7500;stroke-linecap:square;stroke-width:1.5;"/>
    <defs>
     <path d="M -12 12 
L 12 -12 
M -12 -12 
L 12 12 
" id="m01096139f5" style="stroke:#ff7500;"/>
    </defs>
    <g clip-path="url(#p45066005d9)">
     <use style="fill:#ff7500;stroke:#ff7500;" x="206.133726" xlink:href="#m01096139f5" y="214.147541"/>
    </g>
   </g>
   <g id="line2d_49">
    <path d="M 338.688 209.407366 
L 369.60768 293.571802 
" style="fill:none;stroke:#ff7500;stroke-linecap:square;stroke-width:1.5;"/>
    <g>
     <use style="fill-opacity:0;stroke:#ff7500;stroke-linejoin:bevel;stroke-width:1.5;" x="338.688" xlink:href="#maa54f19e60" y="209.407366"/>
     <use style="fill-opacity:0;stroke:#ff7500;stroke-linejoin:bevel;stroke-width:1.5;" x="369.60768" xlink:href="#maa54f19e60" y="293.571802"/>
    </g>
   </g>
   <g id="line2d_50">
    <path d="M 338.688 198.873645 
L 369.60768 207.616634 
" style="fill:none;stroke:#000080;stroke-linecap:square;stroke-width:1.5;"/>
    <g>
     <use style="fill-opacity:0;stroke:#000080;stroke-width:1.5;" x="338.688" xlink:href="#m264efb3f63" y="198.873645"/>
     <use style="fill-opacity:0;stroke:#000080;stroke-width:1.5;" x="369.60768" xlink:href="#m264efb3f63" y="207.616634"/>
    </g>
   </g>
   <g id="line2d_51">
    <path d="M 338.688 188.339923 
L 369.60768 121.661465 
" style="fill:none;stroke:#ff00ff;stroke-linecap:square;stroke-width:1.5;"/>
    <g>
     <use style="fill-opacity:0;stroke:#ff00ff;stroke-linejoin:miter;stroke-width:1.5;" x="338.688" xlink:href="#medecada9af" y="188.339923"/>
     <use style="fill-opacity:0;stroke:#ff00ff;stroke-linejoin:miter;stroke-width:1.5;" x="369.60768" xlink:href="#medecada9af" y="121.661465"/>
    </g>
   </g>
   <g id="line2d_52">
    <path d="M 338.688 298.944 
L 338.688 30.334099 
" style="fill:none;stroke:#000000;stroke-linecap:square;stroke-width:1.5;"/>
   </g>
   <g id="patch_3">
    <path d="M 57.6 298.944 
L 57.6 27.648 
" style="fill:none;stroke:#000000;stroke-linecap:square;stroke-linejoin:miter;stroke-width:0.8;"/>
   </g>
   <g id="patch_4">
    <path d="M 338.688 298.944 
L 338.688 27.648 
" style="fill:none;stroke:#000000;stroke-linecap:square;stroke-linejoin:miter;stroke-width:0.8;"/>
   </g>
   <g id="patch_5">
    <path d="M 57.6 298.944 
L 338.688 298.944 
" style="fill:none;stroke:#000000;stroke-linecap:square;stroke-linejoin:miter;stroke-width:0.8;"/>
   </g>
   <g id="patch_6">
    <path d="M 57.6 27.648 
L 338.688 27.648 
" style="fill:none;stroke:#000000;stroke-linecap:square;stroke-linejoin:miter;stroke-width:0.8;"/>
   </g>
   <g id="text_13">
    <!-- PSO EDA -->
    <g transform="translate(375.22944 298.262739)scale(0.17 -0.17)">
     <defs>
      <path d="M 1259 4147 
L 1259 2394 
L 2053 2394 
Q 2494 2394 2734 2622 
Q 2975 2850 2975 3272 
Q 2975 3691 2734 3919 
Q 2494 4147 2053 4147 
L 1259 4147 
z
M 628 4666 
L 2053 4666 
Q 2838 4666 3239 4311 
Q 3641 3956 3641 3272 
Q 3641 2581 3239 2228 
Q 2838 1875 2053 1875 
L 1259 1875 
L 1259 0 
L 628 0 
L 628 4666 
z
" id="DejaVuSans-50" transform="scale(0.015625)"/>
      <path d="M 3425 4513 
L 3425 3897 
Q 3066 4069 2747 4153 
Q 2428 4238 2131 4238 
Q 1616 4238 1336 4038 
Q 1056 3838 1056 3469 
Q 1056 3159 1242 3001 
Q 1428 2844 1947 2747 
L 2328 2669 
Q 3034 2534 3370 2195 
Q 3706 1856 3706 1288 
Q 3706 609 3251 259 
Q 2797 -91 1919 -91 
Q 1588 -91 1214 -16 
Q 841 59 441 206 
L 441 856 
Q 825 641 1194 531 
Q 1563 422 1919 422 
Q 2459 422 2753 634 
Q 3047 847 3047 1241 
Q 3047 1584 2836 1778 
Q 2625 1972 2144 2069 
L 1759 2144 
Q 1053 2284 737 2584 
Q 422 2884 422 3419 
Q 422 4038 858 4394 
Q 1294 4750 2059 4750 
Q 2388 4750 2728 4690 
Q 3069 4631 3425 4513 
z
" id="DejaVuSans-53" transform="scale(0.015625)"/>
      <path d="M 2522 4238 
Q 1834 4238 1429 3725 
Q 1025 3213 1025 2328 
Q 1025 1447 1429 934 
Q 1834 422 2522 422 
Q 3209 422 3611 934 
Q 4013 1447 4013 2328 
Q 4013 3213 3611 3725 
Q 3209 4238 2522 4238 
z
M 2522 4750 
Q 3503 4750 4090 4092 
Q 4678 3434 4678 2328 
Q 4678 1225 4090 567 
Q 3503 -91 2522 -91 
Q 1538 -91 948 565 
Q 359 1222 359 2328 
Q 359 3434 948 4092 
Q 1538 4750 2522 4750 
z
" id="DejaVuSans-4f" transform="scale(0.015625)"/>
      <path d="M 628 4666 
L 3578 4666 
L 3578 4134 
L 1259 4134 
L 1259 2753 
L 3481 2753 
L 3481 2222 
L 1259 2222 
L 1259 531 
L 3634 531 
L 3634 0 
L 628 0 
L 628 4666 
z
" id="DejaVuSans-45" transform="scale(0.015625)"/>
      <path d="M 1259 4147 
L 1259 519 
L 2022 519 
Q 2988 519 3436 956 
Q 3884 1394 3884 2338 
Q 3884 3275 3436 3711 
Q 2988 4147 2022 4147 
L 1259 4147 
z
M 628 4666 
L 1925 4666 
Q 3281 4666 3915 4102 
Q 4550 3538 4550 2338 
Q 4550 1131 3912 565 
Q 3275 0 1925 0 
L 628 0 
L 628 4666 
z
" id="DejaVuSans-44" transform="scale(0.015625)"/>
      <path d="M 2188 4044 
L 1331 1722 
L 3047 1722 
L 2188 4044 
z
M 1831 4666 
L 2547 4666 
L 4325 0 
L 3669 0 
L 3244 1197 
L 1141 1197 
L 716 0 
L 50 0 
L 1831 4666 
z
" id="DejaVuSans-41" transform="scale(0.015625)"/>
     </defs>
     <use xlink:href="#DejaVuSans-50"/>
     <use x="60.302734" xlink:href="#DejaVuSans-53"/>
     <use x="123.779297" xlink:href="#DejaVuSans-4f"/>
     <use x="202.490234" xlink:href="#DejaVuSans-20"/>
     <use x="234.277344" xlink:href="#DejaVuSans-45"/>
     <use x="297.460938" xlink:href="#DejaVuSans-44"/>
     <use x="372.712891" xlink:href="#DejaVuSans-41"/>
    </g>
   </g>
   <g id="text_14">
    <!-- PSO -->
    <g transform="translate(375.22944 212.307571)scale(0.17 -0.17)">
     <use xlink:href="#DejaVuSans-50"/>
     <use x="60.302734" xlink:href="#DejaVuSans-53"/>
     <use x="123.779297" xlink:href="#DejaVuSans-4f"/>
    </g>
   </g>
   <g id="text_15">
    <!-- PSO Bound -->
    <g transform="translate(375.22944 126.352403)scale(0.17 -0.17)">
     <defs>
      <path d="M 1259 2228 
L 1259 519 
L 2272 519 
Q 2781 519 3026 730 
Q 3272 941 3272 1375 
Q 3272 1813 3026 2020 
Q 2781 2228 2272 2228 
L 1259 2228 
z
M 1259 4147 
L 1259 2741 
L 2194 2741 
Q 2656 2741 2882 2914 
Q 3109 3088 3109 3444 
Q 3109 3797 2882 3972 
Q 2656 4147 2194 4147 
L 1259 4147 
z
M 628 4666 
L 2241 4666 
Q 2963 4666 3353 4366 
Q 3744 4066 3744 3513 
Q 3744 3084 3544 2831 
Q 3344 2578 2956 2516 
Q 3422 2416 3680 2098 
Q 3938 1781 3938 1306 
Q 3938 681 3513 340 
Q 3088 0 2303 0 
L 628 0 
L 628 4666 
z
" id="DejaVuSans-42" transform="scale(0.015625)"/>
     </defs>
     <use xlink:href="#DejaVuSans-50"/>
     <use x="60.302734" xlink:href="#DejaVuSans-53"/>
     <use x="123.779297" xlink:href="#DejaVuSans-4f"/>
     <use x="202.490234" xlink:href="#DejaVuSans-20"/>
     <use x="234.277344" xlink:href="#DejaVuSans-42"/>
     <use x="302.880859" xlink:href="#DejaVuSans-6f"/>
     <use x="364.0625" xlink:href="#DejaVuSans-75"/>
     <use x="427.441406" xlink:href="#DejaVuSans-6e"/>
     <use x="490.820312" xlink:href="#DejaVuSans-64"/>
    </g>
   </g>
   <g id="text_16">
    <!-- best 2009 -->
    <g transform="translate(375.22944 40.397235)scale(0.17 -0.17)">
     <defs>
      <path d="M 3116 1747 
Q 3116 2381 2855 2742 
Q 2594 3103 2138 3103 
Q 1681 3103 1420 2742 
Q 1159 2381 1159 1747 
Q 1159 1113 1420 752 
Q 1681 391 2138 391 
Q 2594 391 2855 752 
Q 3116 1113 3116 1747 
z
M 1159 2969 
Q 1341 3281 1617 3432 
Q 1894 3584 2278 3584 
Q 2916 3584 3314 3078 
Q 3713 2572 3713 1747 
Q 3713 922 3314 415 
Q 2916 -91 2278 -91 
Q 1894 -91 1617 61 
Q 1341 213 1159 525 
L 1159 0 
L 581 0 
L 581 4863 
L 1159 4863 
L 1159 2969 
z
" id="DejaVuSans-62" transform="scale(0.015625)"/>
      <path d="M 703 97 
L 703 672 
Q 941 559 1184 500 
Q 1428 441 1663 441 
Q 2288 441 2617 861 
Q 2947 1281 2994 2138 
Q 2813 1869 2534 1725 
Q 2256 1581 1919 1581 
Q 1219 1581 811 2004 
Q 403 2428 403 3163 
Q 403 3881 828 4315 
Q 1253 4750 1959 4750 
Q 2769 4750 3195 4129 
Q 3622 3509 3622 2328 
Q 3622 1225 3098 567 
Q 2575 -91 1691 -91 
Q 1453 -91 1209 -44 
Q 966 3 703 97 
z
M 1959 2075 
Q 2384 2075 2632 2365 
Q 2881 2656 2881 3163 
Q 2881 3666 2632 3958 
Q 2384 4250 1959 4250 
Q 1534 4250 1286 3958 
Q 1038 3666 1038 3163 
Q 1038 2656 1286 2365 
Q 1534 2075 1959 2075 
z
" id="DejaVuSans-39" transform="scale(0.015625)"/>
     </defs>
     <use xlink:href="#DejaVuSans-62"/>
     <use x="63.476562" xlink:href="#DejaVuSans-65"/>
     <use x="125" xlink:href="#DejaVuSans-73"/>
     <use x="177.099609" xlink:href="#DejaVuSans-74"/>
     <use x="216.308594" xlink:href="#DejaVuSans-20"/>
     <use x="248.095703" xlink:href="#DejaVuSans-32"/>
     <use x="311.71875" xlink:href="#DejaVuSans-30"/>
     <use x="375.341797" xlink:href="#DejaVuSans-30"/>
     <use x="438.964844" xlink:href="#DejaVuSans-39"/>
    </g>
   </g>
   <g id="text_17">
    <!-- bbob f17, 10-D -->
    <g transform="translate(60.41088 38.111366)scale(0.102 -0.102)">
     <defs>
      <path d="M 525 4666 
L 3525 4666 
L 3525 4397 
L 1831 0 
L 1172 0 
L 2766 4134 
L 525 4134 
L 525 4666 
z
" id="DejaVuSans-37" transform="scale(0.015625)"/>
     </defs>
     <use xlink:href="#DejaVuSans-62"/>
     <use x="63.476562" xlink:href="#DejaVuSans-62"/>
     <use x="126.953125" xlink:href="#DejaVuSans-6f"/>
     <use x="188.134766" xlink:href="#DejaVuSans-62"/>
     <use x="251.611328" xlink:href="#DejaVuSans-20"/>
     <use x="283.398438" xlink:href="#DejaVuSans-66"/>
     <use x="318.603516" xlink:href="#DejaVuSans-31"/>
     <use x="382.226562" xlink:href="#DejaVuSans-37"/>
     <use x="445.849609" xlink:href="#DejaVuSans-2c"/>
     <use x="477.636719" xlink:href="#DejaVuSans-20"/>
     <use x="509.423828" xlink:href="#DejaVuSans-31"/>
     <use x="573.046875" xlink:href="#DejaVuSans-30"/>
     <use x="636.669922" xlink:href="#DejaVuSans-2d"/>
     <use x="672.753906" xlink:href="#DejaVuSans-44"/>
    </g>
    <!-- 51 targets: 100..1e-08 -->
    <g transform="translate(60.41088 49.533135)scale(0.102 -0.102)">
     <defs>
      <path d="M 691 4666 
L 3169 4666 
L 3169 4134 
L 1269 4134 
L 1269 2991 
Q 1406 3038 1543 3061 
Q 1681 3084 1819 3084 
Q 2600 3084 3056 2656 
Q 3513 2228 3513 1497 
Q 3513 744 3044 326 
Q 2575 -91 1722 -91 
Q 1428 -91 1123 -41 
Q 819 9 494 109 
L 494 744 
Q 775 591 1075 516 
Q 1375 441 1709 441 
Q 2250 441 2565 725 
Q 2881 1009 2881 1497 
Q 2881 1984 2565 2268 
Q 2250 2553 1709 2553 
Q 1456 2553 1204 2497 
Q 953 2441 691 2322 
L 691 4666 
z
" id="DejaVuSans-35" transform="scale(0.015625)"/>
      <path d="M 750 794 
L 1409 794 
L 1409 0 
L 750 0 
L 750 794 
z
M 750 3309 
L 1409 3309 
L 1409 2516 
L 750 2516 
L 750 3309 
z
" id="DejaVuSans-3a" transform="scale(0.015625)"/>
     </defs>
     <use xlink:href="#DejaVuSans-35"/>
     <use x="63.623047" xlink:href="#DejaVuSans-31"/>
     <use x="127.246094" xlink:href="#DejaVuSans-20"/>
     <use x="159.033203" xlink:href="#DejaVuSans-74"/>
     <use x="198.242188" xlink:href="#DejaVuSans-61"/>
     <use x="259.521484" xlink:href="#DejaVuSans-72"/>
     <use x="298.884766" xlink:href="#DejaVuSans-67"/>
     <use x="362.361328" xlink:href="#DejaVuSans-65"/>
     <use x="423.884766" xlink:href="#DejaVuSans-74"/>
     <use x="463.09375" xlink:href="#DejaVuSans-73"/>
     <use x="515.193359" xlink:href="#DejaVuSans-3a"/>
     <use x="548.884766" xlink:href="#DejaVuSans-20"/>
     <use x="580.671875" xlink:href="#DejaVuSans-31"/>
     <use x="644.294922" xlink:href="#DejaVuSans-30"/>
     <use x="707.917969" xlink:href="#DejaVuSans-30"/>
     <use x="771.541016" xlink:href="#DejaVuSans-2e"/>
     <use x="803.328125" xlink:href="#DejaVuSans-2e"/>
     <use x="835.115234" xlink:href="#DejaVuSans-31"/>
     <use x="898.738281" xlink:href="#DejaVuSans-65"/>
     <use x="960.261719" xlink:href="#DejaVuSans-2d"/>
     <use x="996.345703" xlink:href="#DejaVuSans-30"/>
     <use x="1059.96875" xlink:href="#DejaVuSans-38"/>
    </g>
    <!-- 15 instances -->
    <g transform="translate(60.41088 60.954904)scale(0.102 -0.102)">
     <use xlink:href="#DejaVuSans-31"/>
     <use x="63.623047" xlink:href="#DejaVuSans-35"/>
     <use x="127.246094" xlink:href="#DejaVuSans-20"/>
     <use x="159.033203" xlink:href="#DejaVuSans-69"/>
     <use x="186.816406" xlink:href="#DejaVuSans-6e"/>
     <use x="250.195312" xlink:href="#DejaVuSans-73"/>
     <use x="302.294922" xlink:href="#DejaVuSans-74"/>
     <use x="341.503906" xlink:href="#DejaVuSans-61"/>
     <use x="402.783203" xlink:href="#DejaVuSans-6e"/>
     <use x="466.162109" xlink:href="#DejaVuSans-63"/>
     <use x="521.142578" xlink:href="#DejaVuSans-65"/>
     <use x="582.666016" xlink:href="#DejaVuSans-73"/>
    </g>
   </g>
   <g id="text_18">
    <!-- v2.4 -->
    <g style="fill:#808080;" transform="translate(187.233062 294.151352)scale(0.1 -0.1)">
     <use xlink:href="#DejaVuSans-76"/>
     <use x="59.179688" xlink:href="#DejaVuSans-32"/>
     <use x="122.802734" xlink:href="#DejaVuSans-2e"/>
     <use x="154.589844" xlink:href="#DejaVuSans-34"/>
    </g>
   </g>
   <g id="text_19">
    <!-- 17 Schaffer F7, condition 10 -->
    <g transform="translate(56.836187 21.648)scale(0.2 -0.2)">
     <defs>
      <path d="M 3513 2113 
L 3513 0 
L 2938 0 
L 2938 2094 
Q 2938 2591 2744 2837 
Q 2550 3084 2163 3084 
Q 1697 3084 1428 2787 
Q 1159 2491 1159 1978 
L 1159 0 
L 581 0 
L 581 4863 
L 1159 4863 
L 1159 2956 
Q 1366 3272 1645 3428 
Q 1925 3584 2291 3584 
Q 2894 3584 3203 3211 
Q 3513 2838 3513 2113 
z
" id="DejaVuSans-68" transform="scale(0.015625)"/>
     </defs>
     <use xlink:href="#DejaVuSans-31"/>
     <use x="63.623047" xlink:href="#DejaVuSans-37"/>
     <use x="127.246094" xlink:href="#DejaVuSans-20"/>
     <use x="159.033203" xlink:href="#DejaVuSans-53"/>
     <use x="222.509766" xlink:href="#DejaVuSans-63"/>
     <use x="277.490234" xlink:href="#DejaVuSans-68"/>
     <use x="340.869141" xlink:href="#DejaVuSans-61"/>
     <use x="402.148438" xlink:href="#DejaVuSans-66"/>
     <use x="437.353516" xlink:href="#DejaVuSans-66"/>
     <use x="472.558594" xlink:href="#DejaVuSans-65"/>
     <use x="534.082031" xlink:href="#DejaVuSans-72"/>
     <use x="575.195312" xlink:href="#DejaVuSans-20"/>
     <use x="606.982422" xlink:href="#DejaVuSans-46"/>
     <use x="664.501953" xlink:href="#DejaVuSans-37"/>
     <use x="728.125" xlink:href="#DejaVuSans-2c"/>
     <use x="759.912109" xlink:href="#DejaVuSans-20"/>
     <use x="791.699219" xlink:href="#DejaVuSans-63"/>
     <use x="846.679688" xlink:href="#DejaVuSans-6f"/>
     <use x="907.861328" xlink:href="#DejaVuSans-6e"/>
     <use x="971.240234" xlink:href="#DejaVuSans-64"/>
     <use x="1034.716797" xlink:href="#DejaVuSans-69"/>
     <use x="1062.5" xlink:href="#DejaVuSans-74"/>
     <use x="1101.708984" xlink:href="#DejaVuSans-69"/>
     <use x="1129.492188" xlink:href="#DejaVuSans-6f"/>
     <use x="1190.673828" xlink:href="#DejaVuSans-6e"/>
     <use x="1254.052734" xlink:href="#DejaVuSans-20"/>
     <use x="1285.839844" xlink:href="#DejaVuSans-31"/>
     <use x="1349.462891" xlink:href="#DejaVuSans-30"/>
    </g>
   </g>
  </g>
 </g>
 <defs>
  <clipPath id="p45066005d9">
   <rect height="271.296" width="281.088" x="57.6" y="27.648"/>
  </clipPath>
 </defs>
</svg>
