<?xml version="1.0" encoding="utf-8" standalone="no"?>
<!DOCTYPE svg PUBLIC "-//W3C//DTD SVG 1.1//EN"
  "http://www.w3.org/Graphics/SVG/1.1/DTD/svg11.dtd">
<svg height="345.6pt" version="1.1" viewBox="0 0 460.8 345.6" width="460.8pt" xmlns="http://www.w3.org/2000/svg" xmlns:xlink="http://www.w3.org/1999/xlink">
 <metadata>
  <rdf:RDF xmlns:cc="http://creativecommons.org/ns#" xmlns:dc="http://purl.org/dc/elements/1.1/" xmlns:rdf="http://www.w3.org/1999/02/22-rdf-syntax-ns#">
   <cc:Work>
    <dc:type rdf:resource="http://purl.org/dc/dcmitype/StillImage"/>
    <dc:date>2021-04-25T03:19:01.873456</dc:date>
    <dc:format>image/svg+xml</dc:format>
    <dc:creator>
     <cc:Agent>
      <dc:title>Matplotlib v3.4.1, https://matplotlib.org/</dc:title>
     </cc:Agent>
    </dc:creator>
   </cc:Work>
  </rdf:RDF>
 </metadata>
 <defs>
  <style type="text/css">*{stroke-linecap:butt;stroke-linejoin:round;}</style>
 </defs>
 <g id="figure_1">
  <g id="patch_1">
   <path d="M 0 345.6 
L 460.8 345.6 
L 460.8 0 
L 0 0 
z
" style="fill:#ffffff;"/>
  </g>
  <g id="axes_1">
   <g id="patch_2">
    <path d="M 57.6 298.944 
L 338.688 298.944 
L 338.688 27.648 
L 57.6 27.648 
z
" style="fill:#ffffff;"/>
   </g>
   <g id="line2d_1">
    <path d="M 5.356583 298.944 
L 5.356583 293.677139 
L 67.850577 293.677139 
L 67.850577 288.410278 
L 81.109427 288.410278 
L 81.109427 283.143418 
L 84.401859 283.143418 
L 84.401859 277.876557 
L 112.128456 277.876557 
L 112.128456 272.609696 
L 115.742365 272.609696 
L 115.742365 267.342835 
L 124.330801 267.342835 
L 124.330801 262.075974 
L 127.389626 262.075974 
L 127.389626 256.809114 
L 138.110264 256.809114 
L 138.110264 251.542253 
L 158.053098 251.542253 
L 158.053098 246.275392 
L 158.575409 246.275392 
L 158.575409 241.008531 
L 171.738674 241.008531 
L 171.738674 235.74167 
L 171.836163 235.74167 
L 171.836163 230.47481 
L 171.867295 230.47481 
L 171.867295 225.207949 
L 171.909545 225.207949 
L 171.909545 219.941088 
L 171.973965 219.941088 
L 171.973965 214.674227 
L 172.008554 214.674227 
L 172.008554 209.407366 
L 172.04677 209.407366 
L 172.04677 204.140506 
L 172.083673 204.140506 
L 172.083673 198.873645 
L 172.12908 198.873645 
L 172.12908 193.606784 
L 172.23782 193.606784 
L 172.23782 188.339923 
L 172.275537 188.339923 
L 172.275537 183.073062 
L 172.316811 183.073062 
L 172.316811 177.806202 
L 172.485739 177.806202 
L 172.485739 172.539341 
L 172.556443 172.539341 
L 172.556443 167.27248 
L 172.629243 167.27248 
L 172.629243 162.005619 
L 172.791647 162.005619 
L 172.791647 156.738758 
L 172.835249 156.738758 
L 172.835249 151.471897 
L 172.897518 151.471897 
L 172.897518 146.205037 
L 173.017898 146.205037 
L 173.017898 140.938176 
L 173.149017 140.938176 
L 173.149017 135.671315 
L 173.260789 135.671315 
L 173.260789 130.404454 
L 173.311255 130.404454 
L 173.311255 125.137593 
L 173.524119 125.137593 
L 173.524119 119.870733 
L 173.661605 119.870733 
L 173.661605 114.603872 
L 173.696368 114.603872 
L 173.696368 109.337011 
L 174.144277 109.337011 
L 174.144277 104.07015 
L 174.326753 104.07015 
L 174.326753 98.803289 
L 174.447351 98.803289 
L 174.447351 93.536429 
L 174.706173 93.536429 
L 174.706173 88.269568 
L 174.890216 88.269568 
L 174.890216 83.002707 
L 175.719647 83.002707 
L 175.719647 77.735846 
L 175.742576 77.735846 
L 175.742576 72.468985 
L 175.76647 72.468985 
L 175.76647 67.202125 
L 175.803242 67.202125 
L 175.803242 61.935264 
L 175.826061 61.935264 
L 175.826061 56.668403 
L 175.842908 56.668403 
L 175.842908 51.401542 
L 175.889401 51.401542 
L 175.889401 46.134681 
L 175.900264 46.134681 
L 175.900264 40.867821 
L 175.914081 40.867821 
L 175.914081 35.60096 
L 175.966287 35.60096 
L 175.966287 30.334099 
L 338.688 30.334099 
" style="fill:none;stroke:#f5deb3;stroke-linecap:square;stroke-width:4;"/>
   </g>
   <g id="line2d_2">
    <defs>
     <path d="M 0 7.778175 
L 7.778175 0 
L 0 -7.778175 
L -7.778175 0 
z
" id="m788b0a0e60" style="stroke:#f5deb3;stroke-linejoin:miter;stroke-width:1.5;"/>
    </defs>
    <g>
     <use style="fill:#f5deb3;stroke:#f5deb3;stroke-linejoin:miter;stroke-width:1.5;" x="84.401859" xlink:href="#m788b0a0e60" y="277.876557"/>
     <use style="fill:#f5deb3;stroke:#f5deb3;stroke-linejoin:miter;stroke-width:1.5;" x="172.556443" xlink:href="#m788b0a0e60" y="167.27248"/>
     <use style="fill:#f5deb3;stroke:#f5deb3;stroke-linejoin:miter;stroke-width:1.5;" x="175.914081" xlink:href="#m788b0a0e60" y="40.867821"/>
     <use style="fill:#f5deb3;stroke:#f5deb3;stroke-linejoin:miter;stroke-width:1.5;" x="175.966287" xlink:href="#m788b0a0e60" y="30.334099"/>
     <use style="fill:#f5deb3;stroke:#f5deb3;stroke-linejoin:miter;stroke-width:1.5;" x="175.966287" xlink:href="#m788b0a0e60" y="30.334099"/>
     <use style="fill:#f5deb3;stroke:#f5deb3;stroke-linejoin:miter;stroke-width:1.5;" x="338.688" xlink:href="#m788b0a0e60" y="30.334099"/>
    </g>
   </g>
   <g id="line2d_3">
    <path style="fill:none;stroke:#f5deb3;stroke-linecap:square;stroke-width:4;"/>
    <g/>
   </g>
   <g id="line2d_4">
    <path d="M 338.688 30.334099 
L 369.60768 35.706297 
" style="fill:none;stroke:#f5deb3;stroke-linecap:square;stroke-width:4;"/>
    <g>
     <use style="fill:#f5deb3;stroke:#f5deb3;stroke-linejoin:miter;stroke-width:1.5;" x="338.688" xlink:href="#m788b0a0e60" y="30.334099"/>
     <use style="fill:#f5deb3;stroke:#f5deb3;stroke-linejoin:miter;stroke-width:1.5;" x="369.60768" xlink:href="#m788b0a0e60" y="35.706297"/>
    </g>
   </g>
   <g id="matplotlib.axis_1">
    <g id="xtick_1">
     <g id="line2d_5">
      <path clip-path="url(#p767d034ffc)" d="M 57.6 298.944 
L 57.6 27.648 
" style="fill:none;stroke:#b0b0b0;stroke-linecap:square;stroke-width:0.8;"/>
     </g>
     <g id="line2d_6">
      <defs>
       <path d="M 0 0 
L 0 3.5 
" id="mef560b6e75" style="stroke:#000000;stroke-width:0.8;"/>
      </defs>
      <g>
       <use style="stroke:#000000;stroke-width:0.8;" x="57.6" xlink:href="#mef560b6e75" y="298.944"/>
      </g>
     </g>
     <g id="text_1">
      <!-- 0 -->
      <g transform="translate(51.2375 321.140875)scale(0.2 -0.2)">
       <defs>
        <path d="M 2034 4250 
Q 1547 4250 1301 3770 
Q 1056 3291 1056 2328 
Q 1056 1369 1301 889 
Q 1547 409 2034 409 
Q 2525 409 2770 889 
Q 3016 1369 3016 2328 
Q 3016 3291 2770 3770 
Q 2525 4250 2034 4250 
z
M 2034 4750 
Q 2819 4750 3233 4129 
Q 3647 3509 3647 2328 
Q 3647 1150 3233 529 
Q 2819 -91 2034 -91 
Q 1250 -91 836 529 
Q 422 1150 422 2328 
Q 422 3509 836 4129 
Q 1250 4750 2034 4750 
z
" id="DejaVuSans-30" transform="scale(0.015625)"/>
       </defs>
       <use xlink:href="#DejaVuSans-30"/>
      </g>
     </g>
    </g>
    <g id="xtick_2">
     <g id="line2d_7">
      <path clip-path="url(#p767d034ffc)" d="M 137.910857 298.944 
L 137.910857 27.648 
" style="fill:none;stroke:#b0b0b0;stroke-linecap:square;stroke-width:0.8;"/>
     </g>
     <g id="line2d_8">
      <g>
       <use style="stroke:#000000;stroke-width:0.8;" x="137.910857" xlink:href="#mef560b6e75" y="298.944"/>
      </g>
     </g>
     <g id="text_2">
      <!-- 2 -->
      <g transform="translate(131.548357 321.140875)scale(0.2 -0.2)">
       <defs>
        <path d="M 1228 531 
L 3431 531 
L 3431 0 
L 469 0 
L 469 531 
Q 828 903 1448 1529 
Q 2069 2156 2228 2338 
Q 2531 2678 2651 2914 
Q 2772 3150 2772 3378 
Q 2772 3750 2511 3984 
Q 2250 4219 1831 4219 
Q 1534 4219 1204 4116 
Q 875 4013 500 3803 
L 500 4441 
Q 881 4594 1212 4672 
Q 1544 4750 1819 4750 
Q 2544 4750 2975 4387 
Q 3406 4025 3406 3419 
Q 3406 3131 3298 2873 
Q 3191 2616 2906 2266 
Q 2828 2175 2409 1742 
Q 1991 1309 1228 531 
z
" id="DejaVuSans-32" transform="scale(0.015625)"/>
       </defs>
       <use xlink:href="#DejaVuSans-32"/>
      </g>
     </g>
    </g>
    <g id="xtick_3">
     <g id="line2d_9">
      <path clip-path="url(#p767d034ffc)" d="M 218.221714 298.944 
L 218.221714 27.648 
" style="fill:none;stroke:#b0b0b0;stroke-linecap:square;stroke-width:0.8;"/>
     </g>
     <g id="line2d_10">
      <g>
       <use style="stroke:#000000;stroke-width:0.8;" x="218.221714" xlink:href="#mef560b6e75" y="298.944"/>
      </g>
     </g>
     <g id="text_3">
      <!-- 4 -->
      <g transform="translate(211.859214 321.140875)scale(0.2 -0.2)">
       <defs>
        <path d="M 2419 4116 
L 825 1625 
L 2419 1625 
L 2419 4116 
z
M 2253 4666 
L 3047 4666 
L 3047 1625 
L 3713 1625 
L 3713 1100 
L 3047 1100 
L 3047 0 
L 2419 0 
L 2419 1100 
L 313 1100 
L 313 1709 
L 2253 4666 
z
" id="DejaVuSans-34" transform="scale(0.015625)"/>
       </defs>
       <use xlink:href="#DejaVuSans-34"/>
      </g>
     </g>
    </g>
    <g id="xtick_4">
     <g id="line2d_11">
      <path clip-path="url(#p767d034ffc)" d="M 298.532571 298.944 
L 298.532571 27.648 
" style="fill:none;stroke:#b0b0b0;stroke-linecap:square;stroke-width:0.8;"/>
     </g>
     <g id="line2d_12">
      <g>
       <use style="stroke:#000000;stroke-width:0.8;" x="298.532571" xlink:href="#mef560b6e75" y="298.944"/>
      </g>
     </g>
     <g id="text_4">
      <!-- 6 -->
      <g transform="translate(292.170071 321.140875)scale(0.2 -0.2)">
       <defs>
        <path d="M 2113 2584 
Q 1688 2584 1439 2293 
Q 1191 2003 1191 1497 
Q 1191 994 1439 701 
Q 1688 409 2113 409 
Q 2538 409 2786 701 
Q 3034 994 3034 1497 
Q 3034 2003 2786 2293 
Q 2538 2584 2113 2584 
z
M 3366 4563 
L 3366 3988 
Q 3128 4100 2886 4159 
Q 2644 4219 2406 4219 
Q 1781 4219 1451 3797 
Q 1122 3375 1075 2522 
Q 1259 2794 1537 2939 
Q 1816 3084 2150 3084 
Q 2853 3084 3261 2657 
Q 3669 2231 3669 1497 
Q 3669 778 3244 343 
Q 2819 -91 2113 -91 
Q 1303 -91 875 529 
Q 447 1150 447 2328 
Q 447 3434 972 4092 
Q 1497 4750 2381 4750 
Q 2619 4750 2861 4703 
Q 3103 4656 3366 4563 
z
" id="DejaVuSans-36" transform="scale(0.015625)"/>
       </defs>
       <use xlink:href="#DejaVuSans-36"/>
      </g>
     </g>
    </g>
    <g id="xtick_5">
     <g id="line2d_13">
      <path clip-path="url(#p767d034ffc)" d="M 97.755429 298.944 
L 97.755429 27.648 
" style="fill:none;stroke:#b0b0b0;stroke-linecap:square;stroke-width:0.8;"/>
     </g>
     <g id="line2d_14">
      <defs>
       <path d="M 0 0 
L 0 2 
" id="m8a41589944" style="stroke:#000000;stroke-width:0.6;"/>
      </defs>
      <g>
       <use style="stroke:#000000;stroke-width:0.6;" x="97.755429" xlink:href="#m8a41589944" y="298.944"/>
      </g>
     </g>
    </g>
    <g id="xtick_6">
     <g id="line2d_15">
      <path clip-path="url(#p767d034ffc)" d="M 178.066286 298.944 
L 178.066286 27.648 
" style="fill:none;stroke:#b0b0b0;stroke-linecap:square;stroke-width:0.8;"/>
     </g>
     <g id="line2d_16">
      <g>
       <use style="stroke:#000000;stroke-width:0.6;" x="178.066286" xlink:href="#m8a41589944" y="298.944"/>
      </g>
     </g>
    </g>
    <g id="xtick_7">
     <g id="line2d_17">
      <path clip-path="url(#p767d034ffc)" d="M 258.377143 298.944 
L 258.377143 27.648 
" style="fill:none;stroke:#b0b0b0;stroke-linecap:square;stroke-width:0.8;"/>
     </g>
     <g id="line2d_18">
      <g>
       <use style="stroke:#000000;stroke-width:0.6;" x="258.377143" xlink:href="#m8a41589944" y="298.944"/>
      </g>
     </g>
    </g>
    <g id="xtick_8">
     <g id="line2d_19">
      <path clip-path="url(#p767d034ffc)" d="M 338.688 298.944 
L 338.688 27.648 
" style="fill:none;stroke:#b0b0b0;stroke-linecap:square;stroke-width:0.8;"/>
     </g>
     <g id="line2d_20">
      <g>
       <use style="stroke:#000000;stroke-width:0.6;" x="338.688" xlink:href="#m8a41589944" y="298.944"/>
      </g>
     </g>
    </g>
    <g id="text_5">
     <!-- log10(# f-evals / dimension) -->
     <g transform="translate(77.764078 342.217594)scale(0.17 -0.17)">
      <defs>
       <path d="M 603 4863 
L 1178 4863 
L 1178 0 
L 603 0 
L 603 4863 
z
" id="DejaVuSans-6c" transform="scale(0.015625)"/>
       <path d="M 1959 3097 
Q 1497 3097 1228 2736 
Q 959 2375 959 1747 
Q 959 1119 1226 758 
Q 1494 397 1959 397 
Q 2419 397 2687 759 
Q 2956 1122 2956 1747 
Q 2956 2369 2687 2733 
Q 2419 3097 1959 3097 
z
M 1959 3584 
Q 2709 3584 3137 3096 
Q 3566 2609 3566 1747 
Q 3566 888 3137 398 
Q 2709 -91 1959 -91 
Q 1206 -91 779 398 
Q 353 888 353 1747 
Q 353 2609 779 3096 
Q 1206 3584 1959 3584 
z
" id="DejaVuSans-6f" transform="scale(0.015625)"/>
       <path d="M 2906 1791 
Q 2906 2416 2648 2759 
Q 2391 3103 1925 3103 
Q 1463 3103 1205 2759 
Q 947 2416 947 1791 
Q 947 1169 1205 825 
Q 1463 481 1925 481 
Q 2391 481 2648 825 
Q 2906 1169 2906 1791 
z
M 3481 434 
Q 3481 -459 3084 -895 
Q 2688 -1331 1869 -1331 
Q 1566 -1331 1297 -1286 
Q 1028 -1241 775 -1147 
L 775 -588 
Q 1028 -725 1275 -790 
Q 1522 -856 1778 -856 
Q 2344 -856 2625 -561 
Q 2906 -266 2906 331 
L 2906 616 
Q 2728 306 2450 153 
Q 2172 0 1784 0 
Q 1141 0 747 490 
Q 353 981 353 1791 
Q 353 2603 747 3093 
Q 1141 3584 1784 3584 
Q 2172 3584 2450 3431 
Q 2728 3278 2906 2969 
L 2906 3500 
L 3481 3500 
L 3481 434 
z
" id="DejaVuSans-67" transform="scale(0.015625)"/>
       <path d="M 794 531 
L 1825 531 
L 1825 4091 
L 703 3866 
L 703 4441 
L 1819 4666 
L 2450 4666 
L 2450 531 
L 3481 531 
L 3481 0 
L 794 0 
L 794 531 
z
" id="DejaVuSans-31" transform="scale(0.015625)"/>
       <path d="M 1984 4856 
Q 1566 4138 1362 3434 
Q 1159 2731 1159 2009 
Q 1159 1288 1364 580 
Q 1569 -128 1984 -844 
L 1484 -844 
Q 1016 -109 783 600 
Q 550 1309 550 2009 
Q 550 2706 781 3412 
Q 1013 4119 1484 4856 
L 1984 4856 
z
" id="DejaVuSans-28" transform="scale(0.015625)"/>
       <path d="M 3272 2816 
L 2363 2816 
L 2100 1772 
L 3016 1772 
L 3272 2816 
z
M 2803 4594 
L 2478 3297 
L 3391 3297 
L 3719 4594 
L 4219 4594 
L 3897 3297 
L 4872 3297 
L 4872 2816 
L 3775 2816 
L 3519 1772 
L 4513 1772 
L 4513 1294 
L 3397 1294 
L 3072 0 
L 2572 0 
L 2894 1294 
L 1978 1294 
L 1656 0 
L 1153 0 
L 1478 1294 
L 494 1294 
L 494 1772 
L 1594 1772 
L 1856 2816 
L 850 2816 
L 850 3297 
L 1978 3297 
L 2297 4594 
L 2803 4594 
z
" id="DejaVuSans-23" transform="scale(0.015625)"/>
       <path id="DejaVuSans-20" transform="scale(0.015625)"/>
       <path d="M 2375 4863 
L 2375 4384 
L 1825 4384 
Q 1516 4384 1395 4259 
Q 1275 4134 1275 3809 
L 1275 3500 
L 2222 3500 
L 2222 3053 
L 1275 3053 
L 1275 0 
L 697 0 
L 697 3053 
L 147 3053 
L 147 3500 
L 697 3500 
L 697 3744 
Q 697 4328 969 4595 
Q 1241 4863 1831 4863 
L 2375 4863 
z
" id="DejaVuSans-66" transform="scale(0.015625)"/>
       <path d="M 313 2009 
L 1997 2009 
L 1997 1497 
L 313 1497 
L 313 2009 
z
" id="DejaVuSans-2d" transform="scale(0.015625)"/>
       <path d="M 3597 1894 
L 3597 1613 
L 953 1613 
Q 991 1019 1311 708 
Q 1631 397 2203 397 
Q 2534 397 2845 478 
Q 3156 559 3463 722 
L 3463 178 
Q 3153 47 2828 -22 
Q 2503 -91 2169 -91 
Q 1331 -91 842 396 
Q 353 884 353 1716 
Q 353 2575 817 3079 
Q 1281 3584 2069 3584 
Q 2775 3584 3186 3129 
Q 3597 2675 3597 1894 
z
M 3022 2063 
Q 3016 2534 2758 2815 
Q 2500 3097 2075 3097 
Q 1594 3097 1305 2825 
Q 1016 2553 972 2059 
L 3022 2063 
z
" id="DejaVuSans-65" transform="scale(0.015625)"/>
       <path d="M 191 3500 
L 800 3500 
L 1894 563 
L 2988 3500 
L 3597 3500 
L 2284 0 
L 1503 0 
L 191 3500 
z
" id="DejaVuSans-76" transform="scale(0.015625)"/>
       <path d="M 2194 1759 
Q 1497 1759 1228 1600 
Q 959 1441 959 1056 
Q 959 750 1161 570 
Q 1363 391 1709 391 
Q 2188 391 2477 730 
Q 2766 1069 2766 1631 
L 2766 1759 
L 2194 1759 
z
M 3341 1997 
L 3341 0 
L 2766 0 
L 2766 531 
Q 2569 213 2275 61 
Q 1981 -91 1556 -91 
Q 1019 -91 701 211 
Q 384 513 384 1019 
Q 384 1609 779 1909 
Q 1175 2209 1959 2209 
L 2766 2209 
L 2766 2266 
Q 2766 2663 2505 2880 
Q 2244 3097 1772 3097 
Q 1472 3097 1187 3025 
Q 903 2953 641 2809 
L 641 3341 
Q 956 3463 1253 3523 
Q 1550 3584 1831 3584 
Q 2591 3584 2966 3190 
Q 3341 2797 3341 1997 
z
" id="DejaVuSans-61" transform="scale(0.015625)"/>
       <path d="M 2834 3397 
L 2834 2853 
Q 2591 2978 2328 3040 
Q 2066 3103 1784 3103 
Q 1356 3103 1142 2972 
Q 928 2841 928 2578 
Q 928 2378 1081 2264 
Q 1234 2150 1697 2047 
L 1894 2003 
Q 2506 1872 2764 1633 
Q 3022 1394 3022 966 
Q 3022 478 2636 193 
Q 2250 -91 1575 -91 
Q 1294 -91 989 -36 
Q 684 19 347 128 
L 347 722 
Q 666 556 975 473 
Q 1284 391 1588 391 
Q 1994 391 2212 530 
Q 2431 669 2431 922 
Q 2431 1156 2273 1281 
Q 2116 1406 1581 1522 
L 1381 1569 
Q 847 1681 609 1914 
Q 372 2147 372 2553 
Q 372 3047 722 3315 
Q 1072 3584 1716 3584 
Q 2034 3584 2315 3537 
Q 2597 3491 2834 3397 
z
" id="DejaVuSans-73" transform="scale(0.015625)"/>
       <path d="M 1625 4666 
L 2156 4666 
L 531 -594 
L 0 -594 
L 1625 4666 
z
" id="DejaVuSans-2f" transform="scale(0.015625)"/>
       <path d="M 2906 2969 
L 2906 4863 
L 3481 4863 
L 3481 0 
L 2906 0 
L 2906 525 
Q 2725 213 2448 61 
Q 2172 -91 1784 -91 
Q 1150 -91 751 415 
Q 353 922 353 1747 
Q 353 2572 751 3078 
Q 1150 3584 1784 3584 
Q 2172 3584 2448 3432 
Q 2725 3281 2906 2969 
z
M 947 1747 
Q 947 1113 1208 752 
Q 1469 391 1925 391 
Q 2381 391 2643 752 
Q 2906 1113 2906 1747 
Q 2906 2381 2643 2742 
Q 2381 3103 1925 3103 
Q 1469 3103 1208 2742 
Q 947 2381 947 1747 
z
" id="DejaVuSans-64" transform="scale(0.015625)"/>
       <path d="M 603 3500 
L 1178 3500 
L 1178 0 
L 603 0 
L 603 3500 
z
M 603 4863 
L 1178 4863 
L 1178 4134 
L 603 4134 
L 603 4863 
z
" id="DejaVuSans-69" transform="scale(0.015625)"/>
       <path d="M 3328 2828 
Q 3544 3216 3844 3400 
Q 4144 3584 4550 3584 
Q 5097 3584 5394 3201 
Q 5691 2819 5691 2113 
L 5691 0 
L 5113 0 
L 5113 2094 
Q 5113 2597 4934 2840 
Q 4756 3084 4391 3084 
Q 3944 3084 3684 2787 
Q 3425 2491 3425 1978 
L 3425 0 
L 2847 0 
L 2847 2094 
Q 2847 2600 2669 2842 
Q 2491 3084 2119 3084 
Q 1678 3084 1418 2786 
Q 1159 2488 1159 1978 
L 1159 0 
L 581 0 
L 581 3500 
L 1159 3500 
L 1159 2956 
Q 1356 3278 1631 3431 
Q 1906 3584 2284 3584 
Q 2666 3584 2933 3390 
Q 3200 3197 3328 2828 
z
" id="DejaVuSans-6d" transform="scale(0.015625)"/>
       <path d="M 3513 2113 
L 3513 0 
L 2938 0 
L 2938 2094 
Q 2938 2591 2744 2837 
Q 2550 3084 2163 3084 
Q 1697 3084 1428 2787 
Q 1159 2491 1159 1978 
L 1159 0 
L 581 0 
L 581 3500 
L 1159 3500 
L 1159 2956 
Q 1366 3272 1645 3428 
Q 1925 3584 2291 3584 
Q 2894 3584 3203 3211 
Q 3513 2838 3513 2113 
z
" id="DejaVuSans-6e" transform="scale(0.015625)"/>
       <path d="M 513 4856 
L 1013 4856 
Q 1481 4119 1714 3412 
Q 1947 2706 1947 2009 
Q 1947 1309 1714 600 
Q 1481 -109 1013 -844 
L 513 -844 
Q 928 -128 1133 580 
Q 1338 1288 1338 2009 
Q 1338 2731 1133 3434 
Q 928 4138 513 4856 
z
" id="DejaVuSans-29" transform="scale(0.015625)"/>
      </defs>
      <use xlink:href="#DejaVuSans-6c"/>
      <use x="27.783203" xlink:href="#DejaVuSans-6f"/>
      <use x="88.964844" xlink:href="#DejaVuSans-67"/>
      <use x="152.441406" xlink:href="#DejaVuSans-31"/>
      <use x="216.064453" xlink:href="#DejaVuSans-30"/>
      <use x="279.6875" xlink:href="#DejaVuSans-28"/>
      <use x="318.701172" xlink:href="#DejaVuSans-23"/>
      <use x="402.490234" xlink:href="#DejaVuSans-20"/>
      <use x="434.277344" xlink:href="#DejaVuSans-66"/>
      <use x="463.982422" xlink:href="#DejaVuSans-2d"/>
      <use x="500.066406" xlink:href="#DejaVuSans-65"/>
      <use x="561.589844" xlink:href="#DejaVuSans-76"/>
      <use x="620.769531" xlink:href="#DejaVuSans-61"/>
      <use x="682.048828" xlink:href="#DejaVuSans-6c"/>
      <use x="709.832031" xlink:href="#DejaVuSans-73"/>
      <use x="761.931641" xlink:href="#DejaVuSans-20"/>
      <use x="793.71875" xlink:href="#DejaVuSans-2f"/>
      <use x="827.410156" xlink:href="#DejaVuSans-20"/>
      <use x="859.197266" xlink:href="#DejaVuSans-64"/>
      <use x="922.673828" xlink:href="#DejaVuSans-69"/>
      <use x="950.457031" xlink:href="#DejaVuSans-6d"/>
      <use x="1047.869141" xlink:href="#DejaVuSans-65"/>
      <use x="1109.392578" xlink:href="#DejaVuSans-6e"/>
      <use x="1172.771484" xlink:href="#DejaVuSans-73"/>
      <use x="1224.871094" xlink:href="#DejaVuSans-69"/>
      <use x="1252.654297" xlink:href="#DejaVuSans-6f"/>
      <use x="1313.835938" xlink:href="#DejaVuSans-6e"/>
      <use x="1377.214844" xlink:href="#DejaVuSans-29"/>
     </g>
    </g>
   </g>
   <g id="matplotlib.axis_2">
    <g id="ytick_1">
     <g id="line2d_21">
      <path clip-path="url(#p767d034ffc)" d="M 57.6 298.944 
L 338.688 298.944 
" style="fill:none;stroke:#b0b0b0;stroke-linecap:square;stroke-width:0.8;"/>
     </g>
     <g id="line2d_22">
      <defs>
       <path d="M 0 0 
L -3.5 0 
" id="m8a7b178185" style="stroke:#000000;stroke-width:0.8;"/>
      </defs>
      <g>
       <use style="stroke:#000000;stroke-width:0.8;" x="57.6" xlink:href="#m8a7b178185" y="298.944"/>
      </g>
     </g>
     <g id="text_6">
      <!-- 0.0 -->
      <g transform="translate(25.155 305.02275)scale(0.16 -0.16)">
       <defs>
        <path d="M 684 794 
L 1344 794 
L 1344 0 
L 684 0 
L 684 794 
z
" id="DejaVuSans-2e" transform="scale(0.015625)"/>
       </defs>
       <use xlink:href="#DejaVuSans-30"/>
       <use x="63.623047" xlink:href="#DejaVuSans-2e"/>
       <use x="95.410156" xlink:href="#DejaVuSans-30"/>
      </g>
     </g>
    </g>
    <g id="ytick_2">
     <g id="line2d_23">
      <path clip-path="url(#p767d034ffc)" d="M 57.6 245.22202 
L 338.688 245.22202 
" style="fill:none;stroke:#b0b0b0;stroke-linecap:square;stroke-width:0.8;"/>
     </g>
     <g id="line2d_24">
      <g>
       <use style="stroke:#000000;stroke-width:0.8;" x="57.6" xlink:href="#m8a7b178185" y="245.22202"/>
      </g>
     </g>
     <g id="text_7">
      <!-- 0.2 -->
      <g transform="translate(25.155 251.30077)scale(0.16 -0.16)">
       <use xlink:href="#DejaVuSans-30"/>
       <use x="63.623047" xlink:href="#DejaVuSans-2e"/>
       <use x="95.410156" xlink:href="#DejaVuSans-32"/>
      </g>
     </g>
    </g>
    <g id="ytick_3">
     <g id="line2d_25">
      <path clip-path="url(#p767d034ffc)" d="M 57.6 191.50004 
L 338.688 191.50004 
" style="fill:none;stroke:#b0b0b0;stroke-linecap:square;stroke-width:0.8;"/>
     </g>
     <g id="line2d_26">
      <g>
       <use style="stroke:#000000;stroke-width:0.8;" x="57.6" xlink:href="#m8a7b178185" y="191.50004"/>
      </g>
     </g>
     <g id="text_8">
      <!-- 0.4 -->
      <g transform="translate(25.155 197.57879)scale(0.16 -0.16)">
       <use xlink:href="#DejaVuSans-30"/>
       <use x="63.623047" xlink:href="#DejaVuSans-2e"/>
       <use x="95.410156" xlink:href="#DejaVuSans-34"/>
      </g>
     </g>
    </g>
    <g id="ytick_4">
     <g id="line2d_27">
      <path clip-path="url(#p767d034ffc)" d="M 57.6 137.778059 
L 338.688 137.778059 
" style="fill:none;stroke:#b0b0b0;stroke-linecap:square;stroke-width:0.8;"/>
     </g>
     <g id="line2d_28">
      <g>
       <use style="stroke:#000000;stroke-width:0.8;" x="57.6" xlink:href="#m8a7b178185" y="137.778059"/>
      </g>
     </g>
     <g id="text_9">
      <!-- 0.6 -->
      <g transform="translate(25.155 143.856809)scale(0.16 -0.16)">
       <use xlink:href="#DejaVuSans-30"/>
       <use x="63.623047" xlink:href="#DejaVuSans-2e"/>
       <use x="95.410156" xlink:href="#DejaVuSans-36"/>
      </g>
     </g>
    </g>
    <g id="ytick_5">
     <g id="line2d_29">
      <path clip-path="url(#p767d034ffc)" d="M 57.6 84.056079 
L 338.688 84.056079 
" style="fill:none;stroke:#b0b0b0;stroke-linecap:square;stroke-width:0.8;"/>
     </g>
     <g id="line2d_30">
      <g>
       <use style="stroke:#000000;stroke-width:0.8;" x="57.6" xlink:href="#m8a7b178185" y="84.056079"/>
      </g>
     </g>
     <g id="text_10">
      <!-- 0.8 -->
      <g transform="translate(25.155 90.134829)scale(0.16 -0.16)">
       <defs>
        <path d="M 2034 2216 
Q 1584 2216 1326 1975 
Q 1069 1734 1069 1313 
Q 1069 891 1326 650 
Q 1584 409 2034 409 
Q 2484 409 2743 651 
Q 3003 894 3003 1313 
Q 3003 1734 2745 1975 
Q 2488 2216 2034 2216 
z
M 1403 2484 
Q 997 2584 770 2862 
Q 544 3141 544 3541 
Q 544 4100 942 4425 
Q 1341 4750 2034 4750 
Q 2731 4750 3128 4425 
Q 3525 4100 3525 3541 
Q 3525 3141 3298 2862 
Q 3072 2584 2669 2484 
Q 3125 2378 3379 2068 
Q 3634 1759 3634 1313 
Q 3634 634 3220 271 
Q 2806 -91 2034 -91 
Q 1263 -91 848 271 
Q 434 634 434 1313 
Q 434 1759 690 2068 
Q 947 2378 1403 2484 
z
M 1172 3481 
Q 1172 3119 1398 2916 
Q 1625 2713 2034 2713 
Q 2441 2713 2670 2916 
Q 2900 3119 2900 3481 
Q 2900 3844 2670 4047 
Q 2441 4250 2034 4250 
Q 1625 4250 1398 4047 
Q 1172 3844 1172 3481 
z
" id="DejaVuSans-38" transform="scale(0.015625)"/>
       </defs>
       <use xlink:href="#DejaVuSans-30"/>
       <use x="63.623047" xlink:href="#DejaVuSans-2e"/>
       <use x="95.410156" xlink:href="#DejaVuSans-38"/>
      </g>
     </g>
    </g>
    <g id="ytick_6">
     <g id="line2d_31">
      <path clip-path="url(#p767d034ffc)" d="M 57.6 30.334099 
L 338.688 30.334099 
" style="fill:none;stroke:#b0b0b0;stroke-linecap:square;stroke-width:0.8;"/>
     </g>
     <g id="line2d_32">
      <g>
       <use style="stroke:#000000;stroke-width:0.8;" x="57.6" xlink:href="#m8a7b178185" y="30.334099"/>
      </g>
     </g>
     <g id="text_11">
      <!-- 1.0 -->
      <g transform="translate(25.155 36.412849)scale(0.16 -0.16)">
       <use xlink:href="#DejaVuSans-31"/>
       <use x="63.623047" xlink:href="#DejaVuSans-2e"/>
       <use x="95.410156" xlink:href="#DejaVuSans-30"/>
      </g>
     </g>
    </g>
    <g id="text_12">
     <!-- Fraction of function,target pairs -->
     <g transform="translate(17.619531 297.681)rotate(-90)scale(0.17 -0.17)">
      <defs>
       <path d="M 628 4666 
L 3309 4666 
L 3309 4134 
L 1259 4134 
L 1259 2759 
L 3109 2759 
L 3109 2228 
L 1259 2228 
L 1259 0 
L 628 0 
L 628 4666 
z
" id="DejaVuSans-46" transform="scale(0.015625)"/>
       <path d="M 2631 2963 
Q 2534 3019 2420 3045 
Q 2306 3072 2169 3072 
Q 1681 3072 1420 2755 
Q 1159 2438 1159 1844 
L 1159 0 
L 581 0 
L 581 3500 
L 1159 3500 
L 1159 2956 
Q 1341 3275 1631 3429 
Q 1922 3584 2338 3584 
Q 2397 3584 2469 3576 
Q 2541 3569 2628 3553 
L 2631 2963 
z
" id="DejaVuSans-72" transform="scale(0.015625)"/>
       <path d="M 3122 3366 
L 3122 2828 
Q 2878 2963 2633 3030 
Q 2388 3097 2138 3097 
Q 1578 3097 1268 2742 
Q 959 2388 959 1747 
Q 959 1106 1268 751 
Q 1578 397 2138 397 
Q 2388 397 2633 464 
Q 2878 531 3122 666 
L 3122 134 
Q 2881 22 2623 -34 
Q 2366 -91 2075 -91 
Q 1284 -91 818 406 
Q 353 903 353 1747 
Q 353 2603 823 3093 
Q 1294 3584 2113 3584 
Q 2378 3584 2631 3529 
Q 2884 3475 3122 3366 
z
" id="DejaVuSans-63" transform="scale(0.015625)"/>
       <path d="M 1172 4494 
L 1172 3500 
L 2356 3500 
L 2356 3053 
L 1172 3053 
L 1172 1153 
Q 1172 725 1289 603 
Q 1406 481 1766 481 
L 2356 481 
L 2356 0 
L 1766 0 
Q 1100 0 847 248 
Q 594 497 594 1153 
L 594 3053 
L 172 3053 
L 172 3500 
L 594 3500 
L 594 4494 
L 1172 4494 
z
" id="DejaVuSans-74" transform="scale(0.015625)"/>
       <path d="M 544 1381 
L 544 3500 
L 1119 3500 
L 1119 1403 
Q 1119 906 1312 657 
Q 1506 409 1894 409 
Q 2359 409 2629 706 
Q 2900 1003 2900 1516 
L 2900 3500 
L 3475 3500 
L 3475 0 
L 2900 0 
L 2900 538 
Q 2691 219 2414 64 
Q 2138 -91 1772 -91 
Q 1169 -91 856 284 
Q 544 659 544 1381 
z
M 1991 3584 
L 1991 3584 
z
" id="DejaVuSans-75" transform="scale(0.015625)"/>
       <path d="M 750 794 
L 1409 794 
L 1409 256 
L 897 -744 
L 494 -744 
L 750 256 
L 750 794 
z
" id="DejaVuSans-2c" transform="scale(0.015625)"/>
       <path d="M 1159 525 
L 1159 -1331 
L 581 -1331 
L 581 3500 
L 1159 3500 
L 1159 2969 
Q 1341 3281 1617 3432 
Q 1894 3584 2278 3584 
Q 2916 3584 3314 3078 
Q 3713 2572 3713 1747 
Q 3713 922 3314 415 
Q 2916 -91 2278 -91 
Q 1894 -91 1617 61 
Q 1341 213 1159 525 
z
M 3116 1747 
Q 3116 2381 2855 2742 
Q 2594 3103 2138 3103 
Q 1681 3103 1420 2742 
Q 1159 2381 1159 1747 
Q 1159 1113 1420 752 
Q 1681 391 2138 391 
Q 2594 391 2855 752 
Q 3116 1113 3116 1747 
z
" id="DejaVuSans-70" transform="scale(0.015625)"/>
      </defs>
      <use xlink:href="#DejaVuSans-46"/>
      <use x="50.269531" xlink:href="#DejaVuSans-72"/>
      <use x="91.382812" xlink:href="#DejaVuSans-61"/>
      <use x="152.662109" xlink:href="#DejaVuSans-63"/>
      <use x="207.642578" xlink:href="#DejaVuSans-74"/>
      <use x="246.851562" xlink:href="#DejaVuSans-69"/>
      <use x="274.634766" xlink:href="#DejaVuSans-6f"/>
      <use x="335.816406" xlink:href="#DejaVuSans-6e"/>
      <use x="399.195312" xlink:href="#DejaVuSans-20"/>
      <use x="430.982422" xlink:href="#DejaVuSans-6f"/>
      <use x="492.164062" xlink:href="#DejaVuSans-66"/>
      <use x="527.369141" xlink:href="#DejaVuSans-20"/>
      <use x="559.15625" xlink:href="#DejaVuSans-66"/>
      <use x="594.361328" xlink:href="#DejaVuSans-75"/>
      <use x="657.740234" xlink:href="#DejaVuSans-6e"/>
      <use x="721.119141" xlink:href="#DejaVuSans-63"/>
      <use x="776.099609" xlink:href="#DejaVuSans-74"/>
      <use x="815.308594" xlink:href="#DejaVuSans-69"/>
      <use x="843.091797" xlink:href="#DejaVuSans-6f"/>
      <use x="904.273438" xlink:href="#DejaVuSans-6e"/>
      <use x="967.652344" xlink:href="#DejaVuSans-2c"/>
      <use x="999.439453" xlink:href="#DejaVuSans-74"/>
      <use x="1038.648438" xlink:href="#DejaVuSans-61"/>
      <use x="1099.927734" xlink:href="#DejaVuSans-72"/>
      <use x="1139.291016" xlink:href="#DejaVuSans-67"/>
      <use x="1202.767578" xlink:href="#DejaVuSans-65"/>
      <use x="1264.291016" xlink:href="#DejaVuSans-74"/>
      <use x="1303.5" xlink:href="#DejaVuSans-20"/>
      <use x="1335.287109" xlink:href="#DejaVuSans-70"/>
      <use x="1398.763672" xlink:href="#DejaVuSans-61"/>
      <use x="1460.042969" xlink:href="#DejaVuSans-69"/>
      <use x="1487.826172" xlink:href="#DejaVuSans-72"/>
      <use x="1528.939453" xlink:href="#DejaVuSans-73"/>
     </g>
    </g>
   </g>
   <g id="line2d_33">
    <defs>
     <path d="M 0 1.5 
C 0.397805 1.5 0.77937 1.341951 1.06066 1.06066 
C 1.341951 0.77937 1.5 0.397805 1.5 0 
C 1.5 -0.397805 1.341951 -0.77937 1.06066 -1.06066 
C 0.77937 -1.341951 0.397805 -1.5 0 -1.5 
C -0.397805 -1.5 -0.77937 -1.341951 -1.06066 -1.06066 
C -1.341951 -0.77937 -1.5 -0.397805 -1.5 0 
C -1.5 0.397805 -1.341951 0.77937 -1.06066 1.06066 
C -0.77937 1.341951 -0.397805 1.5 0 1.5 
z
" id="mcd9cb7d176" style="stroke:#f5deb3;"/>
    </defs>
    <g>
     <use style="fill:#f5deb3;stroke:#f5deb3;" x="175.966287" xlink:href="#mcd9cb7d176" y="30.334099"/>
     <use style="fill:#f5deb3;stroke:#f5deb3;" x="175.966287" xlink:href="#mcd9cb7d176" y="30.334099"/>
    </g>
   </g>
   <g id="line2d_34">
    <defs>
     <path d="M 0 1.5 
C 0.397805 1.5 0.77937 1.341951 1.06066 1.06066 
C 1.341951 0.77937 1.5 0.397805 1.5 0 
C 1.5 -0.397805 1.341951 -0.77937 1.06066 -1.06066 
C 0.77937 -1.341951 0.397805 -1.5 0 -1.5 
C -0.397805 -1.5 -0.77937 -1.341951 -1.06066 -1.06066 
C -1.341951 -0.77937 -1.5 -0.397805 -1.5 0 
C -1.5 0.397805 -1.341951 0.77937 -1.06066 1.06066 
C -0.77937 1.341951 -0.397805 1.5 0 1.5 
z
" id="m3d47b105ed" style="stroke:#000080;"/>
    </defs>
    <g>
     <use style="fill:#000080;stroke:#000080;" x="275.425297" xlink:href="#m3d47b105ed" y="30.334099"/>
     <use style="fill:#000080;stroke:#000080;" x="275.425297" xlink:href="#m3d47b105ed" y="30.334099"/>
    </g>
   </g>
   <g id="line2d_35">
    <path d="M 5.356583 298.944 
L 5.356583 293.677139 
L 101.294571 293.677139 
L 101.294571 293.150453 
L 102.196206 293.150453 
L 102.196206 292.623767 
L 103.993014 292.623767 
L 103.993014 292.097081 
L 106.006367 292.097081 
L 106.006367 291.570395 
L 107.263796 291.570395 
L 107.364602 290.517023 
L 107.614095 290.517023 
L 107.614095 289.990337 
L 108.717912 289.990337 
L 108.717912 289.463651 
L 108.902946 289.463651 
L 108.902946 288.936964 
L 109.222105 288.936964 
L 109.222105 288.410278 
L 109.446552 288.410278 
L 109.446552 287.883592 
L 112.128456 287.883592 
L 112.128456 287.356906 
L 112.469299 287.356906 
L 112.469299 286.83022 
L 112.986604 286.83022 
L 112.986604 286.303534 
L 113.55961 286.303534 
L 113.55961 285.776848 
L 114.351658 285.776848 
L 114.351658 285.250162 
L 117.030313 285.250162 
L 117.030313 284.723476 
L 117.654224 284.723476 
L 117.68206 283.670104 
L 119.577783 283.670104 
L 119.577783 283.143418 
L 119.996839 283.143418 
L 119.996839 282.616732 
L 120.33454 282.616732 
L 120.33454 282.090045 
L 120.453579 282.090045 
L 120.524615 281.036673 
L 120.595363 281.036673 
L 120.595363 280.509987 
L 121.196777 280.509987 
L 121.264855 279.456615 
L 121.865885 279.456615 
L 121.953191 278.403243 
L 123.652898 278.403243 
L 123.652898 277.876557 
L 124.406624 277.876557 
L 124.406624 277.349871 
L 124.594752 277.349871 
L 124.594752 276.823185 
L 124.799375 276.823185 
L 124.799375 276.296499 
L 125.219619 276.296499 
L 125.219619 275.769812 
L 125.434921 275.769812 
L 125.434921 275.243126 
L 125.840299 275.243126 
L 125.840299 274.71644 
L 127.245565 274.71644 
L 127.245565 274.189754 
L 128.635269 274.189754 
L 128.635269 273.663068 
L 128.768338 273.663068 
L 128.768338 273.136382 
L 129.002426 273.136382 
L 129.002426 272.609696 
L 129.686407 272.609696 
L 129.756136 271.556324 
L 131.363785 271.556324 
L 131.363785 271.029638 
L 131.502845 271.029638 
L 131.502845 270.502952 
L 132.023829 270.502952 
L 132.023829 269.976266 
L 133.844123 269.976266 
L 133.94293 268.922893 
L 134.311226 268.922893 
L 134.37542 267.869521 
L 135.076644 267.869521 
L 135.076644 267.342835 
L 135.341343 267.342835 
L 135.381712 266.289463 
L 135.542259 266.289463 
L 135.542259 265.762777 
L 138.256201 265.762777 
L 138.256201 265.236091 
L 138.510793 265.236091 
L 138.510793 264.709405 
L 139.972658 264.709405 
L 139.972658 264.182719 
L 140.760323 264.182719 
L 140.760323 263.656033 
L 142.174998 263.656033 
L 142.174998 263.129347 
L 142.546564 263.129347 
L 142.546564 262.60266 
L 142.75916 262.60266 
L 142.864493 261.549288 
L 143.822235 261.549288 
L 143.822235 261.022602 
L 146.415286 261.022602 
L 146.415286 260.495916 
L 146.953057 260.495916 
L 146.963437 259.442544 
L 148.582601 259.442544 
L 148.582601 258.915858 
L 149.305096 258.915858 
L 149.305096 258.389172 
L 151.728236 258.389172 
L 151.728236 257.862486 
L 154.470014 257.862486 
L 154.470014 257.3358 
L 154.694607 257.3358 
L 154.694607 256.809114 
L 159.342152 256.809114 
L 159.342152 256.282427 
L 159.59545 256.282427 
L 159.59545 255.755741 
L 159.941533 255.755741 
L 159.941533 255.229055 
L 160.208198 255.229055 
L 160.208198 254.702369 
L 163.360217 254.702369 
L 163.360217 254.175683 
L 164.701462 254.175683 
L 164.701462 253.648997 
L 168.295431 253.648997 
L 168.295431 253.122311 
L 169.254953 253.122311 
L 169.254953 252.595625 
L 169.946325 252.595625 
L 169.946325 252.068939 
L 170.265639 252.068939 
L 170.265639 251.015567 
L 170.960789 251.015567 
L 170.960789 250.488881 
L 171.179581 250.488881 
L 171.179581 249.962195 
L 171.393105 249.962195 
L 171.393105 249.435508 
L 172.217102 249.435508 
L 172.217102 248.908822 
L 174.16392 248.908822 
L 174.16392 248.382136 
L 174.769492 248.382136 
L 174.769492 247.85545 
L 175.049547 247.85545 
L 175.049547 247.328764 
L 175.518986 247.328764 
L 175.518986 246.802078 
L 175.792317 246.802078 
L 175.792317 246.275392 
L 177.598807 246.275392 
L 177.598807 245.748706 
L 194.203717 245.748706 
L 194.312255 244.695334 
L 194.5663 244.695334 
L 194.635561 243.115275 
L 194.720997 243.115275 
L 194.808019 241.535217 
L 194.84837 241.535217 
L 194.943377 238.901787 
L 195.28683 238.901787 
L 195.28683 238.375101 
L 195.431748 238.375101 
L 195.522035 237.321729 
L 195.782549 237.321729 
L 195.782549 236.795043 
L 196.310878 236.795043 
L 196.386676 234.688298 
L 196.475501 234.688298 
L 196.542731 233.634926 
L 196.704592 233.634926 
L 196.815341 232.581554 
L 197.018875 232.581554 
L 197.018875 231.528182 
L 197.337416 231.528182 
L 197.337416 231.001496 
L 197.815961 231.001496 
L 197.815961 229.421437 
L 198.017098 229.421437 
L 198.017098 228.894751 
L 198.432626 228.894751 
L 198.487055 226.788007 
L 198.96179 226.788007 
L 198.96179 226.261321 
L 199.103553 226.261321 
L 199.103553 225.734635 
L 199.29355 225.734635 
L 199.29355 225.207949 
L 199.427273 225.207949 
L 199.427273 224.154577 
L 206.432845 224.154577 
L 206.474624 222.047832 
L 206.573532 222.047832 
L 206.573532 221.521146 
L 206.692669 221.521146 
L 206.692669 220.99446 
L 207.286731 220.99446 
L 207.325701 218.887716 
L 207.426875 218.887716 
L 207.513776 217.834344 
L 207.743311 217.834344 
L 207.743311 217.307658 
L 207.974416 217.307658 
L 208.019708 216.254285 
L 208.312428 216.254285 
L 208.363759 213.094169 
L 208.46475 213.094169 
L 208.46475 212.567483 
L 208.764408 212.567483 
L 208.845356 210.987425 
L 208.913741 210.987425 
L 208.954288 209.407366 
L 209.031259 209.407366 
L 209.031259 208.88068 
L 209.236235 208.88068 
L 209.236235 208.353994 
L 213.403578 208.353994 
L 213.499179 205.720564 
L 213.559661 205.720564 
L 213.579358 204.667192 
L 213.795581 204.667192 
L 213.795581 204.140506 
L 213.992939 204.140506 
L 214.07741 202.033761 
L 214.136805 202.033761 
L 214.177646 200.980389 
L 214.372382 200.980389 
L 214.372382 200.453703 
L 214.554102 200.453703 
L 214.554102 199.400331 
L 214.814172 199.400331 
L 214.838856 198.346959 
L 214.97121 198.346959 
L 215.030469 197.293586 
L 218.371051 197.293586 
L 218.443004 195.186842 
L 218.488576 195.186842 
L 218.553717 194.13347 
L 218.602669 194.13347 
L 218.602669 193.606784 
L 218.807744 193.606784 
L 218.880272 192.026726 
L 219.104688 192.026726 
L 219.190188 190.446667 
L 219.302502 190.446667 
L 219.302502 189.919981 
L 219.521016 189.919981 
L 219.608611 188.866609 
L 219.688956 188.866609 
L 219.73059 187.813237 
L 219.841871 187.813237 
L 219.841871 187.286551 
L 222.290433 187.286551 
L 222.379283 186.233179 
L 222.409074 186.233179 
L 222.474653 184.653121 
L 222.626968 184.653121 
L 222.678369 183.073062 
L 222.823097 183.073062 
L 222.872922 181.493004 
L 223.028697 181.493004 
L 223.028697 180.966318 
L 223.160248 180.966318 
L 223.248904 179.38626 
L 223.330542 179.38626 
L 223.330542 178.859574 
L 225.422118 178.859574 
L 225.471095 177.279515 
L 225.547627 177.279515 
L 225.547627 176.226143 
L 225.699179 176.226143 
L 225.785968 174.119399 
L 225.824803 174.119399 
L 225.845935 172.539341 
L 226.00771 172.539341 
L 226.116007 168.852538 
L 226.128922 168.852538 
L 226.198323 167.799166 
L 226.389387 167.799166 
L 226.389387 167.27248 
L 228.09197 167.27248 
L 228.192877 164.112363 
L 228.329969 164.112363 
L 228.438057 162.532305 
L 228.60678 162.532305 
L 228.689027 160.425561 
L 228.760074 160.425561 
L 228.859141 158.318817 
L 230.420699 158.318817 
L 230.501221 155.1587 
L 230.536502 155.1587 
L 230.64209 153.578642 
L 230.665088 153.578642 
L 230.68093 151.998584 
L 230.858468 151.998584 
L 230.930772 149.891839 
L 231.016935 149.891839 
L 231.05875 148.311781 
L 232.462452 148.311781 
L 232.565499 144.624978 
L 232.639926 144.624978 
L 232.734497 142.518234 
L 232.843646 142.518234 
L 232.953203 139.358118 
L 233.003821 139.358118 
L 233.102464 136.724687 
L 234.261958 136.724687 
L 234.314397 135.671315 
L 234.446168 135.671315 
L 234.522351 134.617943 
L 234.559738 134.617943 
L 234.67057 131.984513 
L 234.750142 131.984513 
L 234.769227 130.93114 
L 235.944101 130.93114 
L 235.966275 129.877768 
L 236.078694 129.877768 
L 236.081826 128.29771 
L 236.280219 128.29771 
L 236.388732 125.66428 
L 236.402848 125.66428 
L 236.411238 124.610907 
L 237.438004 124.610907 
L 237.470131 120.397419 
L 237.58826 120.397419 
L 237.58826 119.870733 
L 237.701315 119.870733 
L 237.791512 117.763988 
L 237.847659 117.763988 
L 237.862962 116.710616 
L 238.844999 116.710616 
L 238.916527 114.077186 
L 238.961688 114.077186 
L 239.072749 111.443755 
L 239.138806 111.443755 
L 239.200425 110.390383 
L 240.112444 110.390383 
L 240.149954 109.337011 
L 240.351238 109.337011 
L 240.401516 107.756953 
L 240.476637 107.756953 
L 240.513591 106.703581 
L 241.343749 106.703581 
L 241.430396 105.650209 
L 241.512051 105.650209 
L 241.567008 104.07015 
L 241.62824 104.07015 
L 241.719156 103.016778 
L 242.435711 103.016778 
L 242.511459 101.963406 
L 242.548217 101.963406 
L 242.622661 99.856662 
L 242.674232 99.856662 
L 242.760615 97.749917 
L 243.542492 97.749917 
L 243.630621 95.643173 
L 243.700776 95.643173 
L 243.811445 92.483056 
L 244.494977 92.483056 
L 244.595987 90.902998 
L 244.638099 90.902998 
L 244.638099 90.376312 
L 244.75886 90.376312 
L 244.75886 89.849626 
L 245.472992 89.849626 
L 245.551906 88.269568 
L 245.5978 88.269568 
L 245.690995 86.68951 
L 245.709033 86.68951 
L 245.713954 85.636137 
L 246.342854 85.636137 
L 246.450486 84.056079 
L 246.456965 84.056079 
L 246.540243 80.895963 
L 246.625451 80.895963 
L 246.625451 80.369277 
L 247.182387 80.369277 
L 247.263731 78.789218 
L 247.323936 78.789218 
L 247.365122 77.735846 
L 247.986677 77.735846 
L 248.072898 75.629102 
L 248.15285 75.629102 
L 248.15285 75.102416 
L 248.856523 75.102416 
L 248.856523 74.57573 
L 248.979768 74.57573 
L 248.979768 74.049044 
L 249.678202 74.049044 
L 249.749407 72.468985 
L 250.280544 72.468985 
L 250.379004 69.308869 
L 250.406308 69.308869 
L 250.406308 68.782183 
L 250.905921 68.782183 
L 250.959238 67.728811 
L 251.032214 67.728811 
L 251.081662 65.622066 
L 251.7091 65.622066 
L 251.748076 64.042008 
L 252.272378 64.042008 
L 252.358637 61.935264 
L 252.90233 61.935264 
L 252.966936 60.355206 
L 253.395993 60.355206 
L 253.505534 58.775147 
L 253.516138 58.775147 
L 253.545093 56.668403 
L 253.951639 56.668403 
L 254.048481 55.088345 
L 254.072694 55.088345 
L 254.081085 53.508287 
L 254.624498 53.508287 
L 254.624498 52.9816 
L 255.04076 52.9816 
L 255.04076 52.454914 
L 255.156944 52.454914 
L 255.204023 51.401542 
L 255.576309 51.401542 
L 255.659699 50.34817 
L 256.073884 50.34817 
L 256.073884 49.821484 
L 256.219827 49.821484 
L 256.219827 49.294798 
L 256.556639 49.294798 
L 256.640076 47.71474 
L 257.084106 47.71474 
L 257.108458 46.661368 
L 257.200137 46.661368 
L 257.200137 46.134681 
L 257.506051 46.134681 
L 257.571147 45.081309 
L 258.037461 45.081309 
L 258.037461 44.554623 
L 258.415615 44.554623 
L 258.415615 44.027937 
L 258.945728 44.027937 
L 258.972622 42.974565 
L 259.259901 42.974565 
L 259.356007 41.921193 
L 259.69889 41.921193 
L 259.69889 41.394507 
L 260.161485 41.394507 
L 260.165577 40.341135 
L 260.450979 40.341135 
L 260.550689 38.761076 
L 261.240192 38.761076 
L 261.284178 37.707704 
L 262.044472 37.707704 
L 262.044472 37.181018 
L 263.033338 37.181018 
L 263.041615 36.127646 
L 263.335353 36.127646 
L 263.335353 35.60096 
L 264.643577 35.60096 
L 264.643577 35.074274 
L 264.923759 35.074274 
L 264.923759 34.547588 
L 265.195418 34.547588 
L 265.195418 34.020902 
L 265.495968 34.020902 
L 265.495968 33.494215 
L 265.801603 33.494215 
L 265.801603 32.967529 
L 266.360549 32.967529 
L 266.360549 32.440843 
L 267.463702 32.440843 
L 267.463702 31.914157 
L 268.88382 31.914157 
L 268.88382 31.387471 
L 273.497539 31.387471 
L 273.497539 30.860785 
L 275.425297 30.860785 
L 275.425297 30.334099 
L 338.688 30.334099 
L 338.688 30.334099 
" style="fill:none;stroke:#000080;stroke-linecap:square;stroke-width:1.5;"/>
   </g>
   <g id="line2d_36">
    <defs>
     <path d="M 0 6 
C 1.591219 6 3.117479 5.367802 4.242641 4.242641 
C 5.367802 3.117479 6 1.591219 6 0 
C 6 -1.591219 5.367802 -3.117479 4.242641 -4.242641 
C 3.117479 -5.367802 1.591219 -6 0 -6 
C -1.591219 -6 -3.117479 -5.367802 -4.242641 -4.242641 
C -5.367802 -3.117479 -6 -1.591219 -6 0 
C -6 1.591219 -5.367802 3.117479 -4.242641 4.242641 
C -3.117479 5.367802 -1.591219 6 0 6 
z
" id="m608b48212a" style="stroke:#000080;stroke-width:1.5;"/>
    </defs>
    <g>
     <use style="fill-opacity:0;stroke:#000080;stroke-width:1.5;" x="125.434921" xlink:href="#m608b48212a" y="275.243126"/>
     <use style="fill-opacity:0;stroke:#000080;stroke-width:1.5;" x="199.427273" xlink:href="#m608b48212a" y="224.154577"/>
     <use style="fill-opacity:0;stroke:#000080;stroke-width:1.5;" x="241.567008" xlink:href="#m608b48212a" y="104.596836"/>
     <use style="fill-opacity:0;stroke:#000080;stroke-width:1.5;" x="275.425297" xlink:href="#m608b48212a" y="30.334099"/>
     <use style="fill-opacity:0;stroke:#000080;stroke-width:1.5;" x="275.425297" xlink:href="#m608b48212a" y="30.334099"/>
     <use style="fill-opacity:0;stroke:#000080;stroke-width:1.5;" x="338.688" xlink:href="#m608b48212a" y="30.334099"/>
    </g>
   </g>
   <g id="line2d_37">
    <path style="fill:none;stroke:#000080;stroke-linecap:square;stroke-width:1.5;"/>
    <g/>
   </g>
   <g id="line2d_38">
    <path clip-path="url(#p767d034ffc)" d="M 194.045737 245.748706 
" style="fill:none;stroke:#000080;stroke-linecap:square;stroke-width:1.5;"/>
    <defs>
     <path d="M -12 12 
L 12 -12 
M -12 -12 
L 12 12 
" id="mdc363bc1be" style="stroke:#000080;"/>
    </defs>
    <g clip-path="url(#p767d034ffc)">
     <use style="fill:#000080;stroke:#000080;" x="194.045737" xlink:href="#mdc363bc1be" y="245.748706"/>
    </g>
   </g>
   <g id="line2d_39">
    <defs>
     <path d="M 0 1.5 
C 0.397805 1.5 0.77937 1.341951 1.06066 1.06066 
C 1.341951 0.77937 1.5 0.397805 1.5 0 
C 1.5 -0.397805 1.341951 -0.77937 1.06066 -1.06066 
C 0.77937 -1.341951 0.397805 -1.5 0 -1.5 
C -0.397805 -1.5 -0.77937 -1.341951 -1.06066 -1.06066 
C -1.341951 -0.77937 -1.5 -0.397805 -1.5 0 
C -1.5 0.397805 -1.341951 0.77937 -1.06066 1.06066 
C -0.77937 1.341951 -0.397805 1.5 0 1.5 
z
" id="me5493a6801" style="stroke:#ff00ff;"/>
    </defs>
    <g>
     <use style="fill:#ff00ff;stroke:#ff00ff;" x="274.560908" xlink:href="#me5493a6801" y="241.008531"/>
     <use style="fill:#ff00ff;stroke:#ff00ff;" x="274.560908" xlink:href="#me5493a6801" y="241.008531"/>
    </g>
   </g>
   <g id="line2d_40">
    <path d="M 5.356583 298.944 
L 5.356583 293.677139 
L 90.376519 293.677139 
L 90.376519 293.150453 
L 92.147241 293.150453 
L 92.147241 292.623767 
L 104.053884 292.623767 
L 104.053884 292.097081 
L 104.295262 292.097081 
L 104.295262 291.570395 
L 104.474128 291.570395 
L 104.474128 291.043709 
L 107.712901 291.043709 
L 107.712901 290.517023 
L 113.27546 290.517023 
L 113.27546 289.990337 
L 115.012316 289.990337 
L 115.012316 289.463651 
L 115.4287 289.463651 
L 115.523393 287.883592 
L 117.288253 287.883592 
L 117.288253 287.356906 
L 120.990934 287.356906 
L 120.990934 286.83022 
L 123.751369 286.83022 
L 123.751369 286.303534 
L 124.178158 286.303534 
L 124.178158 285.776848 
L 124.650796 285.776848 
L 124.650796 285.250162 
L 124.836322 285.250162 
L 124.836322 284.723476 
L 128.885774 284.723476 
L 128.885774 284.19679 
L 129.546106 284.19679 
L 129.546106 283.670104 
L 129.728278 283.670104 
L 129.728278 283.143418 
L 130.250122 283.143418 
L 130.250122 282.616732 
L 131.477644 282.616732 
L 131.477644 282.090045 
L 133.22783 282.090045 
L 133.22783 281.563359 
L 133.622529 281.563359 
L 133.622529 281.036673 
L 134.859876 281.036673 
L 134.859876 280.509987 
L 136.352172 280.509987 
L 136.352172 279.983301 
L 137.271464 279.983301 
L 137.352682 278.929929 
L 137.664982 278.929929 
L 137.664982 278.403243 
L 138.861092 278.403243 
L 138.861092 277.876557 
L 139.236847 277.876557 
L 139.236847 277.349871 
L 139.918342 277.349871 
L 139.918342 276.823185 
L 141.830201 276.823185 
L 141.830201 276.296499 
L 142.969195 276.296499 
L 142.969195 275.769812 
L 144.154539 275.769812 
L 144.154539 275.243126 
L 145.298702 275.243126 
L 145.298702 274.71644 
L 146.569876 274.71644 
L 146.569876 274.189754 
L 147.47474 274.189754 
L 147.47474 273.663068 
L 147.804169 273.663068 
L 147.804169 273.136382 
L 147.995947 273.136382 
L 147.995947 272.609696 
L 150.543935 272.609696 
L 150.543935 272.08301 
L 152.613473 272.08301 
L 152.613473 271.556324 
L 153.452361 271.556324 
L 153.452361 271.029638 
L 154.067288 271.029638 
L 154.067288 270.502952 
L 154.731206 270.502952 
L 154.731206 269.976266 
L 154.873541 269.976266 
L 154.886723 268.922893 
L 155.527065 268.922893 
L 155.527065 268.396207 
L 156.236431 268.396207 
L 156.236431 267.869521 
L 157.017469 267.869521 
L 157.017469 267.342835 
L 157.574059 267.342835 
L 157.574059 266.816149 
L 158.17083 266.816149 
L 158.17083 266.289463 
L 159.758143 266.289463 
L 159.758143 265.762777 
L 161.037893 265.762777 
L 161.037893 265.236091 
L 161.201492 265.236091 
L 161.201492 264.709405 
L 162.680451 264.709405 
L 162.720437 263.656033 
L 163.103002 263.656033 
L 163.103002 263.129347 
L 163.796472 263.129347 
L 163.796472 262.60266 
L 164.094319 262.60266 
L 164.094319 262.075974 
L 168.752066 262.075974 
L 168.752066 261.549288 
L 170.292894 261.549288 
L 170.292894 261.022602 
L 176.499971 261.022602 
L 176.499971 260.495916 
L 194.476699 260.495916 
L 194.476699 259.96923 
L 195.428849 259.96923 
L 195.428849 259.442544 
L 195.595589 259.442544 
L 195.595589 258.915858 
L 195.842118 258.915858 
L 195.842118 257.862486 
L 196.016502 257.862486 
L 196.076831 256.809114 
L 196.239055 256.809114 
L 196.239055 256.282427 
L 196.493091 256.282427 
L 196.493091 255.755741 
L 196.717165 255.755741 
L 196.717165 255.229055 
L 198.022652 255.229055 
L 198.022652 254.702369 
L 207.214103 254.702369 
L 207.214103 254.175683 
L 213.886714 254.175683 
L 213.886714 253.648997 
L 214.080728 253.648997 
L 214.080728 253.122311 
L 215.114971 253.122311 
L 215.114971 250.488881 
L 218.796442 250.488881 
L 218.796442 249.962195 
L 218.982911 249.962195 
L 218.982911 249.435508 
L 222.72477 249.435508 
L 222.72477 248.908822 
L 225.597796 248.908822 
L 225.597796 248.382136 
L 225.803872 248.382136 
L 225.803872 247.85545 
L 231.050771 247.85545 
L 231.050771 247.328764 
L 234.509643 247.328764 
L 234.509643 246.802078 
L 234.642231 246.802078 
L 234.642231 246.275392 
L 237.638164 246.275392 
L 237.638164 245.748706 
L 237.878251 245.748706 
L 237.878251 245.22202 
L 240.289896 245.22202 
L 240.289896 244.695334 
L 242.772161 244.695334 
L 242.772161 243.641962 
L 243.637058 243.641962 
L 243.637058 243.115275 
L 255.634226 243.115275 
L 255.634226 242.588589 
L 257.101461 242.588589 
L 257.101461 242.061903 
L 258.090221 242.061903 
L 258.090221 241.535217 
L 274.560908 241.535217 
L 274.560908 241.008531 
L 338.688 241.008531 
L 338.688 241.008531 
" style="fill:none;stroke:#ff00ff;stroke-linecap:square;stroke-width:1.5;"/>
   </g>
   <g id="line2d_41">
    <defs>
     <path d="M 0 8.485281 
L 5.091169 0 
L 0 -8.485281 
L -5.091169 0 
z
" id="m12e3859332" style="stroke:#ff00ff;stroke-linejoin:miter;stroke-width:1.5;"/>
    </defs>
    <g>
     <use style="fill-opacity:0;stroke:#ff00ff;stroke-linejoin:miter;stroke-width:1.5;" x="146.569876" xlink:href="#m12e3859332" y="274.189754"/>
     <use style="fill-opacity:0;stroke:#ff00ff;stroke-linejoin:miter;stroke-width:1.5;" x="214.080728" xlink:href="#m12e3859332" y="253.648997"/>
     <use style="fill-opacity:0;stroke:#ff00ff;stroke-linejoin:miter;stroke-width:1.5;" x="274.560908" xlink:href="#m12e3859332" y="241.535217"/>
     <use style="fill-opacity:0;stroke:#ff00ff;stroke-linejoin:miter;stroke-width:1.5;" x="274.560908" xlink:href="#m12e3859332" y="241.008531"/>
     <use style="fill-opacity:0;stroke:#ff00ff;stroke-linejoin:miter;stroke-width:1.5;" x="338.688" xlink:href="#m12e3859332" y="241.008531"/>
    </g>
   </g>
   <g id="line2d_42">
    <path style="fill:none;stroke:#ff00ff;stroke-linecap:square;stroke-width:1.5;"/>
    <g/>
   </g>
   <g id="line2d_43">
    <path clip-path="url(#p767d034ffc)" d="M 194.045737 260.495916 
" style="fill:none;stroke:#ff00ff;stroke-linecap:square;stroke-width:1.5;"/>
    <defs>
     <path d="M -12 12 
L 12 -12 
M -12 -12 
L 12 12 
" id="md3e9b294fb" style="stroke:#ff00ff;"/>
    </defs>
    <g clip-path="url(#p767d034ffc)">
     <use style="fill:#ff00ff;stroke:#ff00ff;" x="194.045737" xlink:href="#md3e9b294fb" y="260.495916"/>
    </g>
   </g>
   <g id="line2d_44">
    <defs>
     <path d="M 0 1.5 
C 0.397805 1.5 0.77937 1.341951 1.06066 1.06066 
C 1.341951 0.77937 1.5 0.397805 1.5 0 
C 1.5 -0.397805 1.341951 -0.77937 1.06066 -1.06066 
C 0.77937 -1.341951 0.397805 -1.5 0 -1.5 
C -0.397805 -1.5 -0.77937 -1.341951 -1.06066 -1.06066 
C -1.341951 -0.77937 -1.5 -0.397805 -1.5 0 
C -1.5 0.397805 -1.341951 0.77937 -1.06066 1.06066 
C -0.77937 1.341951 -0.397805 1.5 0 1.5 
z
" id="mc31b275e4c" style="stroke:#ff7500;"/>
    </defs>
    <g>
     <use style="fill:#ff7500;stroke:#ff7500;" x="264.819843" xlink:href="#mc31b275e4c" y="193.606784"/>
     <use style="fill:#ff7500;stroke:#ff7500;" x="264.819843" xlink:href="#mc31b275e4c" y="193.606784"/>
    </g>
   </g>
   <g id="line2d_45">
    <path d="M 5.356583 298.944 
L 5.356583 293.677139 
L 133.611375 293.677139 
L 133.611375 293.150453 
L 137.171681 293.150453 
L 137.171681 292.623767 
L 140.841591 292.623767 
L 140.841591 292.097081 
L 140.981076 292.097081 
L 140.981076 291.570395 
L 142.127135 291.570395 
L 142.127135 291.043709 
L 142.519806 291.043709 
L 142.519806 290.517023 
L 146.628157 290.517023 
L 146.628157 289.990337 
L 146.94267 289.990337 
L 146.94267 289.463651 
L 147.724877 289.463651 
L 147.724877 288.936964 
L 151.461678 288.936964 
L 151.461678 288.410278 
L 155.625226 288.410278 
L 155.625226 287.883592 
L 156.187581 287.883592 
L 156.187581 287.356906 
L 156.613429 287.356906 
L 156.613429 286.83022 
L 157.040776 286.83022 
L 157.040776 286.303534 
L 157.641697 286.303534 
L 157.641697 285.776848 
L 157.84861 285.776848 
L 157.84861 285.250162 
L 158.540715 285.250162 
L 158.540715 284.723476 
L 160.379729 284.723476 
L 160.379729 284.19679 
L 161.652016 284.19679 
L 161.652016 283.670104 
L 161.871884 283.670104 
L 161.907159 282.616732 
L 162.154281 282.616732 
L 162.154281 282.090045 
L 162.44286 282.090045 
L 162.44286 281.563359 
L 165.430922 281.563359 
L 165.430922 281.036673 
L 166.318511 281.036673 
L 166.318511 280.509987 
L 167.901647 280.509987 
L 167.901647 279.983301 
L 168.456541 279.983301 
L 168.46864 278.929929 
L 169.292487 278.929929 
L 169.292487 277.876557 
L 170.821316 277.876557 
L 170.821316 277.349871 
L 170.96996 277.349871 
L 170.96996 276.823185 
L 171.944262 276.823185 
L 171.944262 276.296499 
L 172.104551 276.296499 
L 172.104551 275.769812 
L 172.284043 275.769812 
L 172.365243 274.189754 
L 173.948834 274.189754 
L 173.948834 273.663068 
L 174.432321 273.663068 
L 174.432321 273.136382 
L 175.838945 273.136382 
L 175.934785 272.08301 
L 177.002986 272.08301 
L 177.069587 271.029638 
L 177.726417 271.029638 
L 177.769043 269.976266 
L 179.111221 269.976266 
L 179.153055 268.396207 
L 180.265447 268.396207 
L 180.265447 267.869521 
L 181.109429 267.869521 
L 181.160618 266.816149 
L 182.393133 266.816149 
L 182.393133 266.289463 
L 182.677243 266.289463 
L 182.677243 265.762777 
L 183.505367 265.762777 
L 183.505367 265.236091 
L 183.829795 265.236091 
L 183.829795 264.709405 
L 184.62349 264.709405 
L 184.62349 264.182719 
L 184.965558 264.182719 
L 184.965558 263.656033 
L 185.406113 263.656033 
L 185.406113 263.129347 
L 186.030748 263.129347 
L 186.030748 262.60266 
L 187.212014 262.60266 
L 187.212014 262.075974 
L 188.026222 262.075974 
L 188.026222 261.549288 
L 188.29408 261.549288 
L 188.29408 261.022602 
L 189.614546 261.022602 
L 189.614546 260.495916 
L 190.627803 260.495916 
L 190.73187 259.442544 
L 191.099554 259.442544 
L 191.099554 258.915858 
L 191.269695 258.915858 
L 191.269695 258.389172 
L 191.511349 258.389172 
L 191.525864 257.3358 
L 191.751691 257.3358 
L 191.751691 256.809114 
L 192.561266 256.809114 
L 192.599582 254.702369 
L 196.604584 254.702369 
L 196.604584 254.175683 
L 197.823264 254.175683 
L 197.823264 253.648997 
L 200.570702 253.648997 
L 200.570702 253.122311 
L 200.881727 253.122311 
L 200.981838 251.542253 
L 201.263097 251.542253 
L 201.263097 251.015567 
L 201.989975 251.015567 
L 201.989975 250.488881 
L 202.265572 250.488881 
L 202.265572 249.962195 
L 202.58269 249.962195 
L 202.58269 249.435508 
L 202.908418 249.435508 
L 202.908418 248.908822 
L 203.049475 248.908822 
L 203.049475 247.328764 
L 204.058495 247.328764 
L 204.058495 246.802078 
L 204.50836 246.802078 
L 204.555388 245.748706 
L 204.912531 245.748706 
L 204.912531 245.22202 
L 205.024397 245.22202 
L 205.024397 244.695334 
L 208.473139 244.695334 
L 208.473139 244.168648 
L 209.159724 244.168648 
L 209.159724 243.641962 
L 209.491845 243.641962 
L 209.491845 242.588589 
L 209.884551 242.588589 
L 209.884551 242.061903 
L 210.090777 242.061903 
L 210.090777 241.535217 
L 210.41602 241.535217 
L 210.41602 241.008531 
L 211.210322 241.008531 
L 211.210322 240.481845 
L 212.138171 240.481845 
L 212.168548 238.901787 
L 212.473088 238.901787 
L 212.473088 238.375101 
L 212.723827 238.375101 
L 212.723827 237.848415 
L 216.355795 237.848415 
L 216.355795 237.321729 
L 216.951726 237.321729 
L 216.951726 236.268356 
L 217.214949 236.268356 
L 217.214949 235.74167 
L 217.450395 235.74167 
L 217.450395 235.214984 
L 217.621804 235.214984 
L 217.621804 234.161612 
L 217.871262 234.161612 
L 217.871262 232.054868 
L 219.800264 232.054868 
L 219.800264 231.528182 
L 220.493975 231.528182 
L 220.493975 231.001496 
L 221.064144 231.001496 
L 221.064144 230.47481 
L 221.498875 230.47481 
L 221.498875 229.948123 
L 221.826859 229.948123 
L 221.833381 228.894751 
L 223.954056 228.894751 
L 223.954056 228.368065 
L 224.78233 228.368065 
L 224.78233 227.841379 
L 225.059884 227.841379 
L 225.059884 227.314693 
L 226.960529 227.314693 
L 226.960529 226.788007 
L 227.154021 226.788007 
L 227.154021 226.261321 
L 227.531871 226.261321 
L 227.531871 225.734635 
L 227.671195 225.734635 
L 227.781616 224.154577 
L 229.362374 224.154577 
L 229.375166 223.101204 
L 229.588257 223.101204 
L 229.686267 222.047832 
L 229.813584 222.047832 
L 229.917341 220.99446 
L 229.928307 220.99446 
L 229.928307 220.467774 
L 230.135357 220.467774 
L 230.135357 219.941088 
L 231.723959 219.941088 
L 231.723959 218.887716 
L 232.208866 218.887716 
L 232.208866 218.36103 
L 233.447464 218.36103 
L 233.447464 217.834344 
L 233.704213 217.834344 
L 233.704213 217.307658 
L 233.887986 217.307658 
L 233.887986 216.780971 
L 234.061829 216.780971 
L 234.061829 216.254285 
L 235.666789 216.254285 
L 235.736683 215.200913 
L 237.05155 215.200913 
L 237.05155 214.674227 
L 237.264686 214.674227 
L 237.264686 214.147541 
L 238.61047 214.147541 
L 238.669527 212.567483 
L 239.533986 212.567483 
L 239.533986 212.040797 
L 239.660406 212.040797 
L 239.660406 211.514111 
L 240.773355 211.514111 
L 240.773355 210.987425 
L 240.891132 210.987425 
L 240.891132 210.460738 
L 241.128289 210.460738 
L 241.128289 209.934052 
L 241.930459 209.934052 
L 242.040699 208.88068 
L 242.208036 208.88068 
L 242.208036 208.353994 
L 243.015542 208.353994 
L 243.015542 207.827308 
L 243.223231 207.827308 
L 243.223231 207.300622 
L 243.373113 207.300622 
L 243.373113 206.773936 
L 245.094499 206.773936 
L 245.094499 206.24725 
L 245.916375 206.24725 
L 245.916375 205.720564 
L 247.692391 205.720564 
L 247.692391 205.193878 
L 248.478935 205.193878 
L 248.555535 204.140506 
L 248.666058 204.140506 
L 248.666058 203.613819 
L 250.05602 203.613819 
L 250.125016 202.560447 
L 250.645777 202.560447 
L 250.645777 202.033761 
L 251.312095 202.033761 
L 251.312095 201.507075 
L 252.045783 201.507075 
L 252.045783 200.980389 
L 252.633499 200.980389 
L 252.633499 200.453703 
L 253.748664 200.453703 
L 253.748664 199.927017 
L 253.887179 199.927017 
L 253.887179 199.400331 
L 254.308097 199.400331 
L 254.308097 198.873645 
L 255.962008 198.873645 
L 255.962008 198.346959 
L 256.430696 198.346959 
L 256.430696 197.820273 
L 257.287419 197.820273 
L 257.287419 197.293586 
L 257.855851 197.293586 
L 257.855851 196.7669 
L 258.191749 196.7669 
L 258.191749 196.240214 
L 258.755257 196.240214 
L 258.755257 195.713528 
L 259.092871 195.713528 
L 259.092871 195.186842 
L 259.547124 195.186842 
L 259.547124 194.660156 
L 261.49371 194.660156 
L 261.49371 194.13347 
L 264.819843 194.13347 
L 264.819843 193.606784 
L 338.688 193.606784 
L 338.688 193.606784 
" style="fill:none;stroke:#ff7500;stroke-linecap:square;stroke-width:1.5;"/>
   </g>
   <g id="line2d_46">
    <defs>
     <path d="M 0 -6 
L -1.347084 -1.854102 
L -5.706339 -1.854102 
L -2.179628 0.708204 
L -3.526712 4.854102 
L -0 2.291796 
L 3.526712 4.854102 
L 2.179628 0.708204 
L 5.706339 -1.854102 
L 1.347084 -1.854102 
z
" id="m6ac8114794" style="stroke:#ff7500;stroke-linejoin:bevel;stroke-width:1.5;"/>
    </defs>
    <g>
     <use style="fill-opacity:0;stroke:#ff7500;stroke-linejoin:bevel;stroke-width:1.5;" x="142.519806" xlink:href="#m6ac8114794" y="290.517023"/>
     <use style="fill-opacity:0;stroke:#ff7500;stroke-linejoin:bevel;stroke-width:1.5;" x="186.030748" xlink:href="#m6ac8114794" y="262.60266"/>
     <use style="fill-opacity:0;stroke:#ff7500;stroke-linejoin:bevel;stroke-width:1.5;" x="250.125016" xlink:href="#m6ac8114794" y="203.087133"/>
     <use style="fill-opacity:0;stroke:#ff7500;stroke-linejoin:bevel;stroke-width:1.5;" x="264.819843" xlink:href="#m6ac8114794" y="193.606784"/>
     <use style="fill-opacity:0;stroke:#ff7500;stroke-linejoin:bevel;stroke-width:1.5;" x="264.819843" xlink:href="#m6ac8114794" y="193.606784"/>
     <use style="fill-opacity:0;stroke:#ff7500;stroke-linejoin:bevel;stroke-width:1.5;" x="338.688" xlink:href="#m6ac8114794" y="193.606784"/>
    </g>
   </g>
   <g id="line2d_47">
    <path style="fill:none;stroke:#ff7500;stroke-linecap:square;stroke-width:1.5;"/>
    <g/>
   </g>
   <g id="line2d_48">
    <path clip-path="url(#p767d034ffc)" d="M 194.045737 254.702369 
" style="fill:none;stroke:#ff7500;stroke-linecap:square;stroke-width:1.5;"/>
    <defs>
     <path d="M -12 12 
L 12 -12 
M -12 -12 
L 12 12 
" id="mabf74223d8" style="stroke:#ff7500;"/>
    </defs>
    <g clip-path="url(#p767d034ffc)">
     <use style="fill:#ff7500;stroke:#ff7500;" x="194.045737" xlink:href="#mabf74223d8" y="254.702369"/>
    </g>
   </g>
   <g id="line2d_49">
    <path d="M 338.688 241.008531 
L 369.60768 293.571802 
" style="fill:none;stroke:#ff00ff;stroke-linecap:square;stroke-width:1.5;"/>
    <g>
     <use style="fill-opacity:0;stroke:#ff00ff;stroke-linejoin:miter;stroke-width:1.5;" x="338.688" xlink:href="#m12e3859332" y="241.008531"/>
     <use style="fill-opacity:0;stroke:#ff00ff;stroke-linejoin:miter;stroke-width:1.5;" x="369.60768" xlink:href="#m12e3859332" y="293.571802"/>
    </g>
   </g>
   <g id="line2d_50">
    <path d="M 338.688 193.606784 
L 369.60768 207.616634 
" style="fill:none;stroke:#ff7500;stroke-linecap:square;stroke-width:1.5;"/>
    <g>
     <use style="fill-opacity:0;stroke:#ff7500;stroke-linejoin:bevel;stroke-width:1.5;" x="338.688" xlink:href="#m6ac8114794" y="193.606784"/>
     <use style="fill-opacity:0;stroke:#ff7500;stroke-linejoin:bevel;stroke-width:1.5;" x="369.60768" xlink:href="#m6ac8114794" y="207.616634"/>
    </g>
   </g>
   <g id="line2d_51">
    <path d="M 338.688 30.334099 
L 369.60768 121.661465 
" style="fill:none;stroke:#000080;stroke-linecap:square;stroke-width:1.5;"/>
    <g>
     <use style="fill-opacity:0;stroke:#000080;stroke-width:1.5;" x="338.688" xlink:href="#m608b48212a" y="30.334099"/>
     <use style="fill-opacity:0;stroke:#000080;stroke-width:1.5;" x="369.60768" xlink:href="#m608b48212a" y="121.661465"/>
    </g>
   </g>
   <g id="line2d_52">
    <path d="M 338.688 298.944 
L 338.688 30.334099 
" style="fill:none;stroke:#000000;stroke-linecap:square;stroke-width:1.5;"/>
   </g>
   <g id="patch_3">
    <path d="M 57.6 298.944 
L 57.6 27.648 
" style="fill:none;stroke:#000000;stroke-linecap:square;stroke-linejoin:miter;stroke-width:0.8;"/>
   </g>
   <g id="patch_4">
    <path d="M 338.688 298.944 
L 338.688 27.648 
" style="fill:none;stroke:#000000;stroke-linecap:square;stroke-linejoin:miter;stroke-width:0.8;"/>
   </g>
   <g id="patch_5">
    <path d="M 57.6 298.944 
L 338.688 298.944 
" style="fill:none;stroke:#000000;stroke-linecap:square;stroke-linejoin:miter;stroke-width:0.8;"/>
   </g>
   <g id="patch_6">
    <path d="M 57.6 27.648 
L 338.688 27.648 
" style="fill:none;stroke:#000000;stroke-linecap:square;stroke-linejoin:miter;stroke-width:0.8;"/>
   </g>
   <g id="text_13">
    <!-- PSO Bound -->
    <g transform="translate(375.22944 298.262739)scale(0.17 -0.17)">
     <defs>
      <path d="M 1259 4147 
L 1259 2394 
L 2053 2394 
Q 2494 2394 2734 2622 
Q 2975 2850 2975 3272 
Q 2975 3691 2734 3919 
Q 2494 4147 2053 4147 
L 1259 4147 
z
M 628 4666 
L 2053 4666 
Q 2838 4666 3239 4311 
Q 3641 3956 3641 3272 
Q 3641 2581 3239 2228 
Q 2838 1875 2053 1875 
L 1259 1875 
L 1259 0 
L 628 0 
L 628 4666 
z
" id="DejaVuSans-50" transform="scale(0.015625)"/>
      <path d="M 3425 4513 
L 3425 3897 
Q 3066 4069 2747 4153 
Q 2428 4238 2131 4238 
Q 1616 4238 1336 4038 
Q 1056 3838 1056 3469 
Q 1056 3159 1242 3001 
Q 1428 2844 1947 2747 
L 2328 2669 
Q 3034 2534 3370 2195 
Q 3706 1856 3706 1288 
Q 3706 609 3251 259 
Q 2797 -91 1919 -91 
Q 1588 -91 1214 -16 
Q 841 59 441 206 
L 441 856 
Q 825 641 1194 531 
Q 1563 422 1919 422 
Q 2459 422 2753 634 
Q 3047 847 3047 1241 
Q 3047 1584 2836 1778 
Q 2625 1972 2144 2069 
L 1759 2144 
Q 1053 2284 737 2584 
Q 422 2884 422 3419 
Q 422 4038 858 4394 
Q 1294 4750 2059 4750 
Q 2388 4750 2728 4690 
Q 3069 4631 3425 4513 
z
" id="DejaVuSans-53" transform="scale(0.015625)"/>
      <path d="M 2522 4238 
Q 1834 4238 1429 3725 
Q 1025 3213 1025 2328 
Q 1025 1447 1429 934 
Q 1834 422 2522 422 
Q 3209 422 3611 934 
Q 4013 1447 4013 2328 
Q 4013 3213 3611 3725 
Q 3209 4238 2522 4238 
z
M 2522 4750 
Q 3503 4750 4090 4092 
Q 4678 3434 4678 2328 
Q 4678 1225 4090 567 
Q 3503 -91 2522 -91 
Q 1538 -91 948 565 
Q 359 1222 359 2328 
Q 359 3434 948 4092 
Q 1538 4750 2522 4750 
z
" id="DejaVuSans-4f" transform="scale(0.015625)"/>
      <path d="M 1259 2228 
L 1259 519 
L 2272 519 
Q 2781 519 3026 730 
Q 3272 941 3272 1375 
Q 3272 1813 3026 2020 
Q 2781 2228 2272 2228 
L 1259 2228 
z
M 1259 4147 
L 1259 2741 
L 2194 2741 
Q 2656 2741 2882 2914 
Q 3109 3088 3109 3444 
Q 3109 3797 2882 3972 
Q 2656 4147 2194 4147 
L 1259 4147 
z
M 628 4666 
L 2241 4666 
Q 2963 4666 3353 4366 
Q 3744 4066 3744 3513 
Q 3744 3084 3544 2831 
Q 3344 2578 2956 2516 
Q 3422 2416 3680 2098 
Q 3938 1781 3938 1306 
Q 3938 681 3513 340 
Q 3088 0 2303 0 
L 628 0 
L 628 4666 
z
" id="DejaVuSans-42" transform="scale(0.015625)"/>
     </defs>
     <use xlink:href="#DejaVuSans-50"/>
     <use x="60.302734" xlink:href="#DejaVuSans-53"/>
     <use x="123.779297" xlink:href="#DejaVuSans-4f"/>
     <use x="202.490234" xlink:href="#DejaVuSans-20"/>
     <use x="234.277344" xlink:href="#DejaVuSans-42"/>
     <use x="302.880859" xlink:href="#DejaVuSans-6f"/>
     <use x="364.0625" xlink:href="#DejaVuSans-75"/>
     <use x="427.441406" xlink:href="#DejaVuSans-6e"/>
     <use x="490.820312" xlink:href="#DejaVuSans-64"/>
    </g>
   </g>
   <g id="text_14">
    <!-- PSO EDA -->
    <g transform="translate(375.22944 212.307571)scale(0.17 -0.17)">
     <defs>
      <path d="M 628 4666 
L 3578 4666 
L 3578 4134 
L 1259 4134 
L 1259 2753 
L 3481 2753 
L 3481 2222 
L 1259 2222 
L 1259 531 
L 3634 531 
L 3634 0 
L 628 0 
L 628 4666 
z
" id="DejaVuSans-45" transform="scale(0.015625)"/>
      <path d="M 1259 4147 
L 1259 519 
L 2022 519 
Q 2988 519 3436 956 
Q 3884 1394 3884 2338 
Q 3884 3275 3436 3711 
Q 2988 4147 2022 4147 
L 1259 4147 
z
M 628 4666 
L 1925 4666 
Q 3281 4666 3915 4102 
Q 4550 3538 4550 2338 
Q 4550 1131 3912 565 
Q 3275 0 1925 0 
L 628 0 
L 628 4666 
z
" id="DejaVuSans-44" transform="scale(0.015625)"/>
      <path d="M 2188 4044 
L 1331 1722 
L 3047 1722 
L 2188 4044 
z
M 1831 4666 
L 2547 4666 
L 4325 0 
L 3669 0 
L 3244 1197 
L 1141 1197 
L 716 0 
L 50 0 
L 1831 4666 
z
" id="DejaVuSans-41" transform="scale(0.015625)"/>
     </defs>
     <use xlink:href="#DejaVuSans-50"/>
     <use x="60.302734" xlink:href="#DejaVuSans-53"/>
     <use x="123.779297" xlink:href="#DejaVuSans-4f"/>
     <use x="202.490234" xlink:href="#DejaVuSans-20"/>
     <use x="234.277344" xlink:href="#DejaVuSans-45"/>
     <use x="297.460938" xlink:href="#DejaVuSans-44"/>
     <use x="372.712891" xlink:href="#DejaVuSans-41"/>
    </g>
   </g>
   <g id="text_15">
    <!-- PSO -->
    <g transform="translate(375.22944 126.352403)scale(0.17 -0.17)">
     <use xlink:href="#DejaVuSans-50"/>
     <use x="60.302734" xlink:href="#DejaVuSans-53"/>
     <use x="123.779297" xlink:href="#DejaVuSans-4f"/>
    </g>
   </g>
   <g id="text_16">
    <!-- best 2009 -->
    <g transform="translate(375.22944 40.397235)scale(0.17 -0.17)">
     <defs>
      <path d="M 3116 1747 
Q 3116 2381 2855 2742 
Q 2594 3103 2138 3103 
Q 1681 3103 1420 2742 
Q 1159 2381 1159 1747 
Q 1159 1113 1420 752 
Q 1681 391 2138 391 
Q 2594 391 2855 752 
Q 3116 1113 3116 1747 
z
M 1159 2969 
Q 1341 3281 1617 3432 
Q 1894 3584 2278 3584 
Q 2916 3584 3314 3078 
Q 3713 2572 3713 1747 
Q 3713 922 3314 415 
Q 2916 -91 2278 -91 
Q 1894 -91 1617 61 
Q 1341 213 1159 525 
L 1159 0 
L 581 0 
L 581 4863 
L 1159 4863 
L 1159 2969 
z
" id="DejaVuSans-62" transform="scale(0.015625)"/>
      <path d="M 703 97 
L 703 672 
Q 941 559 1184 500 
Q 1428 441 1663 441 
Q 2288 441 2617 861 
Q 2947 1281 2994 2138 
Q 2813 1869 2534 1725 
Q 2256 1581 1919 1581 
Q 1219 1581 811 2004 
Q 403 2428 403 3163 
Q 403 3881 828 4315 
Q 1253 4750 1959 4750 
Q 2769 4750 3195 4129 
Q 3622 3509 3622 2328 
Q 3622 1225 3098 567 
Q 2575 -91 1691 -91 
Q 1453 -91 1209 -44 
Q 966 3 703 97 
z
M 1959 2075 
Q 2384 2075 2632 2365 
Q 2881 2656 2881 3163 
Q 2881 3666 2632 3958 
Q 2384 4250 1959 4250 
Q 1534 4250 1286 3958 
Q 1038 3666 1038 3163 
Q 1038 2656 1286 2365 
Q 1534 2075 1959 2075 
z
" id="DejaVuSans-39" transform="scale(0.015625)"/>
     </defs>
     <use xlink:href="#DejaVuSans-62"/>
     <use x="63.476562" xlink:href="#DejaVuSans-65"/>
     <use x="125" xlink:href="#DejaVuSans-73"/>
     <use x="177.099609" xlink:href="#DejaVuSans-74"/>
     <use x="216.308594" xlink:href="#DejaVuSans-20"/>
     <use x="248.095703" xlink:href="#DejaVuSans-32"/>
     <use x="311.71875" xlink:href="#DejaVuSans-30"/>
     <use x="375.341797" xlink:href="#DejaVuSans-30"/>
     <use x="438.964844" xlink:href="#DejaVuSans-39"/>
    </g>
   </g>
   <g id="text_17">
    <!-- bbob f21, 20-D -->
    <g transform="translate(60.41088 38.111366)scale(0.102 -0.102)">
     <use xlink:href="#DejaVuSans-62"/>
     <use x="63.476562" xlink:href="#DejaVuSans-62"/>
     <use x="126.953125" xlink:href="#DejaVuSans-6f"/>
     <use x="188.134766" xlink:href="#DejaVuSans-62"/>
     <use x="251.611328" xlink:href="#DejaVuSans-20"/>
     <use x="283.398438" xlink:href="#DejaVuSans-66"/>
     <use x="318.603516" xlink:href="#DejaVuSans-32"/>
     <use x="382.226562" xlink:href="#DejaVuSans-31"/>
     <use x="445.849609" xlink:href="#DejaVuSans-2c"/>
     <use x="477.636719" xlink:href="#DejaVuSans-20"/>
     <use x="509.423828" xlink:href="#DejaVuSans-32"/>
     <use x="573.046875" xlink:href="#DejaVuSans-30"/>
     <use x="636.669922" xlink:href="#DejaVuSans-2d"/>
     <use x="672.753906" xlink:href="#DejaVuSans-44"/>
    </g>
    <!-- 51 targets: 100..1e-08 -->
    <g transform="translate(60.41088 49.533135)scale(0.102 -0.102)">
     <defs>
      <path d="M 691 4666 
L 3169 4666 
L 3169 4134 
L 1269 4134 
L 1269 2991 
Q 1406 3038 1543 3061 
Q 1681 3084 1819 3084 
Q 2600 3084 3056 2656 
Q 3513 2228 3513 1497 
Q 3513 744 3044 326 
Q 2575 -91 1722 -91 
Q 1428 -91 1123 -41 
Q 819 9 494 109 
L 494 744 
Q 775 591 1075 516 
Q 1375 441 1709 441 
Q 2250 441 2565 725 
Q 2881 1009 2881 1497 
Q 2881 1984 2565 2268 
Q 2250 2553 1709 2553 
Q 1456 2553 1204 2497 
Q 953 2441 691 2322 
L 691 4666 
z
" id="DejaVuSans-35" transform="scale(0.015625)"/>
      <path d="M 750 794 
L 1409 794 
L 1409 0 
L 750 0 
L 750 794 
z
M 750 3309 
L 1409 3309 
L 1409 2516 
L 750 2516 
L 750 3309 
z
" id="DejaVuSans-3a" transform="scale(0.015625)"/>
     </defs>
     <use xlink:href="#DejaVuSans-35"/>
     <use x="63.623047" xlink:href="#DejaVuSans-31"/>
     <use x="127.246094" xlink:href="#DejaVuSans-20"/>
     <use x="159.033203" xlink:href="#DejaVuSans-74"/>
     <use x="198.242188" xlink:href="#DejaVuSans-61"/>
     <use x="259.521484" xlink:href="#DejaVuSans-72"/>
     <use x="298.884766" xlink:href="#DejaVuSans-67"/>
     <use x="362.361328" xlink:href="#DejaVuSans-65"/>
     <use x="423.884766" xlink:href="#DejaVuSans-74"/>
     <use x="463.09375" xlink:href="#DejaVuSans-73"/>
     <use x="515.193359" xlink:href="#DejaVuSans-3a"/>
     <use x="548.884766" xlink:href="#DejaVuSans-20"/>
     <use x="580.671875" xlink:href="#DejaVuSans-31"/>
     <use x="644.294922" xlink:href="#DejaVuSans-30"/>
     <use x="707.917969" xlink:href="#DejaVuSans-30"/>
     <use x="771.541016" xlink:href="#DejaVuSans-2e"/>
     <use x="803.328125" xlink:href="#DejaVuSans-2e"/>
     <use x="835.115234" xlink:href="#DejaVuSans-31"/>
     <use x="898.738281" xlink:href="#DejaVuSans-65"/>
     <use x="960.261719" xlink:href="#DejaVuSans-2d"/>
     <use x="996.345703" xlink:href="#DejaVuSans-30"/>
     <use x="1059.96875" xlink:href="#DejaVuSans-38"/>
    </g>
    <!-- 15 instances -->
    <g transform="translate(60.41088 60.954904)scale(0.102 -0.102)">
     <use xlink:href="#DejaVuSans-31"/>
     <use x="63.623047" xlink:href="#DejaVuSans-35"/>
     <use x="127.246094" xlink:href="#DejaVuSans-20"/>
     <use x="159.033203" xlink:href="#DejaVuSans-69"/>
     <use x="186.816406" xlink:href="#DejaVuSans-6e"/>
     <use x="250.195312" xlink:href="#DejaVuSans-73"/>
     <use x="302.294922" xlink:href="#DejaVuSans-74"/>
     <use x="341.503906" xlink:href="#DejaVuSans-61"/>
     <use x="402.783203" xlink:href="#DejaVuSans-6e"/>
     <use x="466.162109" xlink:href="#DejaVuSans-63"/>
     <use x="521.142578" xlink:href="#DejaVuSans-65"/>
     <use x="582.666016" xlink:href="#DejaVuSans-73"/>
    </g>
   </g>
   <g id="text_18">
    <!-- v2.4 -->
    <g style="fill:#808080;" transform="translate(187.233062 294.151352)scale(0.1 -0.1)">
     <use xlink:href="#DejaVuSans-76"/>
     <use x="59.179688" xlink:href="#DejaVuSans-32"/>
     <use x="122.802734" xlink:href="#DejaVuSans-2e"/>
     <use x="154.589844" xlink:href="#DejaVuSans-34"/>
    </g>
   </g>
   <g id="text_19">
    <!-- 21 Gallagher 101 peaks -->
    <g transform="translate(78.6565 21.648)scale(0.2 -0.2)">
     <defs>
      <path d="M 3809 666 
L 3809 1919 
L 2778 1919 
L 2778 2438 
L 4434 2438 
L 4434 434 
Q 4069 175 3628 42 
Q 3188 -91 2688 -91 
Q 1594 -91 976 548 
Q 359 1188 359 2328 
Q 359 3472 976 4111 
Q 1594 4750 2688 4750 
Q 3144 4750 3555 4637 
Q 3966 4525 4313 4306 
L 4313 3634 
Q 3963 3931 3569 4081 
Q 3175 4231 2741 4231 
Q 1884 4231 1454 3753 
Q 1025 3275 1025 2328 
Q 1025 1384 1454 906 
Q 1884 428 2741 428 
Q 3075 428 3337 486 
Q 3600 544 3809 666 
z
" id="DejaVuSans-47" transform="scale(0.015625)"/>
      <path d="M 3513 2113 
L 3513 0 
L 2938 0 
L 2938 2094 
Q 2938 2591 2744 2837 
Q 2550 3084 2163 3084 
Q 1697 3084 1428 2787 
Q 1159 2491 1159 1978 
L 1159 0 
L 581 0 
L 581 4863 
L 1159 4863 
L 1159 2956 
Q 1366 3272 1645 3428 
Q 1925 3584 2291 3584 
Q 2894 3584 3203 3211 
Q 3513 2838 3513 2113 
z
" id="DejaVuSans-68" transform="scale(0.015625)"/>
      <path d="M 581 4863 
L 1159 4863 
L 1159 1991 
L 2875 3500 
L 3609 3500 
L 1753 1863 
L 3688 0 
L 2938 0 
L 1159 1709 
L 1159 0 
L 581 0 
L 581 4863 
z
" id="DejaVuSans-6b" transform="scale(0.015625)"/>
     </defs>
     <use xlink:href="#DejaVuSans-32"/>
     <use x="63.623047" xlink:href="#DejaVuSans-31"/>
     <use x="127.246094" xlink:href="#DejaVuSans-20"/>
     <use x="159.033203" xlink:href="#DejaVuSans-47"/>
     <use x="236.523438" xlink:href="#DejaVuSans-61"/>
     <use x="297.802734" xlink:href="#DejaVuSans-6c"/>
     <use x="325.585938" xlink:href="#DejaVuSans-6c"/>
     <use x="353.369141" xlink:href="#DejaVuSans-61"/>
     <use x="414.648438" xlink:href="#DejaVuSans-67"/>
     <use x="478.125" xlink:href="#DejaVuSans-68"/>
     <use x="541.503906" xlink:href="#DejaVuSans-65"/>
     <use x="603.027344" xlink:href="#DejaVuSans-72"/>
     <use x="644.140625" xlink:href="#DejaVuSans-20"/>
     <use x="675.927734" xlink:href="#DejaVuSans-31"/>
     <use x="739.550781" xlink:href="#DejaVuSans-30"/>
     <use x="803.173828" xlink:href="#DejaVuSans-31"/>
     <use x="866.796875" xlink:href="#DejaVuSans-20"/>
     <use x="898.583984" xlink:href="#DejaVuSans-70"/>
     <use x="962.060547" xlink:href="#DejaVuSans-65"/>
     <use x="1023.583984" xlink:href="#DejaVuSans-61"/>
     <use x="1084.863281" xlink:href="#DejaVuSans-6b"/>
     <use x="1142.773438" xlink:href="#DejaVuSans-73"/>
    </g>
   </g>
  </g>
 </g>
 <defs>
  <clipPath id="p767d034ffc">
   <rect height="271.296" width="281.088" x="57.6" y="27.648"/>
  </clipPath>
 </defs>
</svg>
