<?xml version="1.0" encoding="utf-8" standalone="no"?>
<!DOCTYPE svg PUBLIC "-//W3C//DTD SVG 1.1//EN"
  "http://www.w3.org/Graphics/SVG/1.1/DTD/svg11.dtd">
<svg height="345.6pt" version="1.1" viewBox="0 0 460.8 345.6" width="460.8pt" xmlns="http://www.w3.org/2000/svg" xmlns:xlink="http://www.w3.org/1999/xlink">
 <metadata>
  <rdf:RDF xmlns:cc="http://creativecommons.org/ns#" xmlns:dc="http://purl.org/dc/elements/1.1/" xmlns:rdf="http://www.w3.org/1999/02/22-rdf-syntax-ns#">
   <cc:Work>
    <dc:type rdf:resource="http://purl.org/dc/dcmitype/StillImage"/>
    <dc:date>2021-04-25T03:18:58.784479</dc:date>
    <dc:format>image/svg+xml</dc:format>
    <dc:creator>
     <cc:Agent>
      <dc:title>Matplotlib v3.4.1, https://matplotlib.org/</dc:title>
     </cc:Agent>
    </dc:creator>
   </cc:Work>
  </rdf:RDF>
 </metadata>
 <defs>
  <style type="text/css">*{stroke-linecap:butt;stroke-linejoin:round;}</style>
 </defs>
 <g id="figure_1">
  <g id="patch_1">
   <path d="M 0 345.6 
L 460.8 345.6 
L 460.8 0 
L 0 0 
z
" style="fill:#ffffff;"/>
  </g>
  <g id="axes_1">
   <g id="patch_2">
    <path d="M 57.6 298.944 
L 338.688 298.944 
L 338.688 27.648 
L 57.6 27.648 
z
" style="fill:#ffffff;"/>
   </g>
   <g id="line2d_1">
    <path d="M 29.53256 298.944 
L 29.53256 225.207949 
L 119.301163 225.207949 
L 119.301163 219.941088 
L 125.255688 219.941088 
L 125.255688 214.674227 
L 143.144465 214.674227 
L 143.144465 209.407366 
L 169.605481 209.407366 
L 169.605481 204.140506 
L 177.876917 204.140506 
L 177.876917 198.873645 
L 186.971927 198.873645 
L 186.971927 193.606784 
L 231.136968 193.606784 
L 231.136968 188.339923 
L 233.471375 188.339923 
L 233.471375 183.073062 
L 233.490858 183.073062 
L 233.490858 177.806202 
L 233.509013 177.806202 
L 233.509013 172.539341 
L 233.535992 172.539341 
L 233.535992 167.27248 
L 233.552797 167.27248 
L 233.552797 162.005619 
L 233.56322 162.005619 
L 233.56322 156.738758 
L 233.578263 156.738758 
L 233.578263 151.471897 
L 233.584624 151.471897 
L 233.584624 146.205037 
L 233.593438 146.205037 
L 233.593438 140.938176 
L 233.611342 140.938176 
L 233.611342 135.671315 
L 233.623316 135.671315 
L 233.623316 130.404454 
L 233.633697 130.404454 
L 233.633697 125.137593 
L 233.638596 125.137593 
L 233.638596 119.870733 
L 233.647239 119.870733 
L 233.647239 114.603872 
L 233.655015 114.603872 
L 233.655015 109.337011 
L 233.662498 109.337011 
L 233.662498 104.07015 
L 233.683494 104.07015 
L 233.683494 98.803289 
L 233.695562 98.803289 
L 233.695562 93.536429 
L 233.701306 93.536429 
L 233.701306 88.269568 
L 233.708196 88.269568 
L 233.708196 83.002707 
L 233.719673 83.002707 
L 233.719673 77.735846 
L 233.735729 77.735846 
L 233.735729 72.468985 
L 233.752485 72.468985 
L 233.752485 67.202125 
L 233.765793 67.202125 
L 233.765793 61.935264 
L 233.780092 61.935264 
L 233.780092 56.668403 
L 233.791093 56.668403 
L 233.791093 51.401542 
L 233.800803 51.401542 
L 233.800803 46.134681 
L 233.811649 46.134681 
L 233.811649 40.867821 
L 233.824769 40.867821 
L 233.824769 35.60096 
L 233.834746 35.60096 
L 233.834746 30.334099 
L 338.688 30.334099 
" style="fill:none;stroke:#f5deb3;stroke-linecap:square;stroke-width:4;"/>
   </g>
   <g id="line2d_2">
    <defs>
     <path d="M 0 7.778175 
L 7.778175 0 
L 0 -7.778175 
L -7.778175 0 
z
" id="mb1dac229e3" style="stroke:#f5deb3;stroke-linejoin:miter;stroke-width:1.5;"/>
    </defs>
    <g>
     <use style="fill:#f5deb3;stroke:#f5deb3;stroke-linejoin:miter;stroke-width:1.5;" x="177.876917" xlink:href="#mb1dac229e3" y="204.140506"/>
     <use style="fill:#f5deb3;stroke:#f5deb3;stroke-linejoin:miter;stroke-width:1.5;" x="233.578263" xlink:href="#mb1dac229e3" y="151.471897"/>
     <use style="fill:#f5deb3;stroke:#f5deb3;stroke-linejoin:miter;stroke-width:1.5;" x="233.834746" xlink:href="#mb1dac229e3" y="30.334099"/>
     <use style="fill:#f5deb3;stroke:#f5deb3;stroke-linejoin:miter;stroke-width:1.5;" x="233.834746" xlink:href="#mb1dac229e3" y="30.334099"/>
     <use style="fill:#f5deb3;stroke:#f5deb3;stroke-linejoin:miter;stroke-width:1.5;" x="338.688" xlink:href="#mb1dac229e3" y="30.334099"/>
    </g>
   </g>
   <g id="line2d_3">
    <path style="fill:none;stroke:#f5deb3;stroke-linecap:square;stroke-width:4;"/>
    <g/>
   </g>
   <g id="line2d_4">
    <path d="M 338.688 30.334099 
L 369.60768 35.706297 
" style="fill:none;stroke:#f5deb3;stroke-linecap:square;stroke-width:4;"/>
    <g>
     <use style="fill:#f5deb3;stroke:#f5deb3;stroke-linejoin:miter;stroke-width:1.5;" x="338.688" xlink:href="#mb1dac229e3" y="30.334099"/>
     <use style="fill:#f5deb3;stroke:#f5deb3;stroke-linejoin:miter;stroke-width:1.5;" x="369.60768" xlink:href="#mb1dac229e3" y="35.706297"/>
    </g>
   </g>
   <g id="matplotlib.axis_1">
    <g id="xtick_1">
     <g id="line2d_5">
      <path clip-path="url(#p752c8ca1f1)" d="M 57.6 298.944 
L 57.6 27.648 
" style="fill:none;stroke:#b0b0b0;stroke-linecap:square;stroke-width:0.8;"/>
     </g>
     <g id="line2d_6">
      <defs>
       <path d="M 0 0 
L 0 3.5 
" id="m4daadf8c46" style="stroke:#000000;stroke-width:0.8;"/>
      </defs>
      <g>
       <use style="stroke:#000000;stroke-width:0.8;" x="57.6" xlink:href="#m4daadf8c46" y="298.944"/>
      </g>
     </g>
     <g id="text_1">
      <!-- 0 -->
      <g transform="translate(51.2375 321.140875)scale(0.2 -0.2)">
       <defs>
        <path d="M 2034 4250 
Q 1547 4250 1301 3770 
Q 1056 3291 1056 2328 
Q 1056 1369 1301 889 
Q 1547 409 2034 409 
Q 2525 409 2770 889 
Q 3016 1369 3016 2328 
Q 3016 3291 2770 3770 
Q 2525 4250 2034 4250 
z
M 2034 4750 
Q 2819 4750 3233 4129 
Q 3647 3509 3647 2328 
Q 3647 1150 3233 529 
Q 2819 -91 2034 -91 
Q 1250 -91 836 529 
Q 422 1150 422 2328 
Q 422 3509 836 4129 
Q 1250 4750 2034 4750 
z
" id="DejaVuSans-30" transform="scale(0.015625)"/>
       </defs>
       <use xlink:href="#DejaVuSans-30"/>
      </g>
     </g>
    </g>
    <g id="xtick_2">
     <g id="line2d_7">
      <path clip-path="url(#p752c8ca1f1)" d="M 137.910857 298.944 
L 137.910857 27.648 
" style="fill:none;stroke:#b0b0b0;stroke-linecap:square;stroke-width:0.8;"/>
     </g>
     <g id="line2d_8">
      <g>
       <use style="stroke:#000000;stroke-width:0.8;" x="137.910857" xlink:href="#m4daadf8c46" y="298.944"/>
      </g>
     </g>
     <g id="text_2">
      <!-- 2 -->
      <g transform="translate(131.548357 321.140875)scale(0.2 -0.2)">
       <defs>
        <path d="M 1228 531 
L 3431 531 
L 3431 0 
L 469 0 
L 469 531 
Q 828 903 1448 1529 
Q 2069 2156 2228 2338 
Q 2531 2678 2651 2914 
Q 2772 3150 2772 3378 
Q 2772 3750 2511 3984 
Q 2250 4219 1831 4219 
Q 1534 4219 1204 4116 
Q 875 4013 500 3803 
L 500 4441 
Q 881 4594 1212 4672 
Q 1544 4750 1819 4750 
Q 2544 4750 2975 4387 
Q 3406 4025 3406 3419 
Q 3406 3131 3298 2873 
Q 3191 2616 2906 2266 
Q 2828 2175 2409 1742 
Q 1991 1309 1228 531 
z
" id="DejaVuSans-32" transform="scale(0.015625)"/>
       </defs>
       <use xlink:href="#DejaVuSans-32"/>
      </g>
     </g>
    </g>
    <g id="xtick_3">
     <g id="line2d_9">
      <path clip-path="url(#p752c8ca1f1)" d="M 218.221714 298.944 
L 218.221714 27.648 
" style="fill:none;stroke:#b0b0b0;stroke-linecap:square;stroke-width:0.8;"/>
     </g>
     <g id="line2d_10">
      <g>
       <use style="stroke:#000000;stroke-width:0.8;" x="218.221714" xlink:href="#m4daadf8c46" y="298.944"/>
      </g>
     </g>
     <g id="text_3">
      <!-- 4 -->
      <g transform="translate(211.859214 321.140875)scale(0.2 -0.2)">
       <defs>
        <path d="M 2419 4116 
L 825 1625 
L 2419 1625 
L 2419 4116 
z
M 2253 4666 
L 3047 4666 
L 3047 1625 
L 3713 1625 
L 3713 1100 
L 3047 1100 
L 3047 0 
L 2419 0 
L 2419 1100 
L 313 1100 
L 313 1709 
L 2253 4666 
z
" id="DejaVuSans-34" transform="scale(0.015625)"/>
       </defs>
       <use xlink:href="#DejaVuSans-34"/>
      </g>
     </g>
    </g>
    <g id="xtick_4">
     <g id="line2d_11">
      <path clip-path="url(#p752c8ca1f1)" d="M 298.532571 298.944 
L 298.532571 27.648 
" style="fill:none;stroke:#b0b0b0;stroke-linecap:square;stroke-width:0.8;"/>
     </g>
     <g id="line2d_12">
      <g>
       <use style="stroke:#000000;stroke-width:0.8;" x="298.532571" xlink:href="#m4daadf8c46" y="298.944"/>
      </g>
     </g>
     <g id="text_4">
      <!-- 6 -->
      <g transform="translate(292.170071 321.140875)scale(0.2 -0.2)">
       <defs>
        <path d="M 2113 2584 
Q 1688 2584 1439 2293 
Q 1191 2003 1191 1497 
Q 1191 994 1439 701 
Q 1688 409 2113 409 
Q 2538 409 2786 701 
Q 3034 994 3034 1497 
Q 3034 2003 2786 2293 
Q 2538 2584 2113 2584 
z
M 3366 4563 
L 3366 3988 
Q 3128 4100 2886 4159 
Q 2644 4219 2406 4219 
Q 1781 4219 1451 3797 
Q 1122 3375 1075 2522 
Q 1259 2794 1537 2939 
Q 1816 3084 2150 3084 
Q 2853 3084 3261 2657 
Q 3669 2231 3669 1497 
Q 3669 778 3244 343 
Q 2819 -91 2113 -91 
Q 1303 -91 875 529 
Q 447 1150 447 2328 
Q 447 3434 972 4092 
Q 1497 4750 2381 4750 
Q 2619 4750 2861 4703 
Q 3103 4656 3366 4563 
z
" id="DejaVuSans-36" transform="scale(0.015625)"/>
       </defs>
       <use xlink:href="#DejaVuSans-36"/>
      </g>
     </g>
    </g>
    <g id="xtick_5">
     <g id="line2d_13">
      <path clip-path="url(#p752c8ca1f1)" d="M 97.755429 298.944 
L 97.755429 27.648 
" style="fill:none;stroke:#b0b0b0;stroke-linecap:square;stroke-width:0.8;"/>
     </g>
     <g id="line2d_14">
      <defs>
       <path d="M 0 0 
L 0 2 
" id="ma0b13a3b5e" style="stroke:#000000;stroke-width:0.6;"/>
      </defs>
      <g>
       <use style="stroke:#000000;stroke-width:0.6;" x="97.755429" xlink:href="#ma0b13a3b5e" y="298.944"/>
      </g>
     </g>
    </g>
    <g id="xtick_6">
     <g id="line2d_15">
      <path clip-path="url(#p752c8ca1f1)" d="M 178.066286 298.944 
L 178.066286 27.648 
" style="fill:none;stroke:#b0b0b0;stroke-linecap:square;stroke-width:0.8;"/>
     </g>
     <g id="line2d_16">
      <g>
       <use style="stroke:#000000;stroke-width:0.6;" x="178.066286" xlink:href="#ma0b13a3b5e" y="298.944"/>
      </g>
     </g>
    </g>
    <g id="xtick_7">
     <g id="line2d_17">
      <path clip-path="url(#p752c8ca1f1)" d="M 258.377143 298.944 
L 258.377143 27.648 
" style="fill:none;stroke:#b0b0b0;stroke-linecap:square;stroke-width:0.8;"/>
     </g>
     <g id="line2d_18">
      <g>
       <use style="stroke:#000000;stroke-width:0.6;" x="258.377143" xlink:href="#ma0b13a3b5e" y="298.944"/>
      </g>
     </g>
    </g>
    <g id="xtick_8">
     <g id="line2d_19">
      <path clip-path="url(#p752c8ca1f1)" d="M 338.688 298.944 
L 338.688 27.648 
" style="fill:none;stroke:#b0b0b0;stroke-linecap:square;stroke-width:0.8;"/>
     </g>
     <g id="line2d_20">
      <g>
       <use style="stroke:#000000;stroke-width:0.6;" x="338.688" xlink:href="#ma0b13a3b5e" y="298.944"/>
      </g>
     </g>
    </g>
    <g id="text_5">
     <!-- log10(# f-evals / dimension) -->
     <g transform="translate(77.764078 342.217594)scale(0.17 -0.17)">
      <defs>
       <path d="M 603 4863 
L 1178 4863 
L 1178 0 
L 603 0 
L 603 4863 
z
" id="DejaVuSans-6c" transform="scale(0.015625)"/>
       <path d="M 1959 3097 
Q 1497 3097 1228 2736 
Q 959 2375 959 1747 
Q 959 1119 1226 758 
Q 1494 397 1959 397 
Q 2419 397 2687 759 
Q 2956 1122 2956 1747 
Q 2956 2369 2687 2733 
Q 2419 3097 1959 3097 
z
M 1959 3584 
Q 2709 3584 3137 3096 
Q 3566 2609 3566 1747 
Q 3566 888 3137 398 
Q 2709 -91 1959 -91 
Q 1206 -91 779 398 
Q 353 888 353 1747 
Q 353 2609 779 3096 
Q 1206 3584 1959 3584 
z
" id="DejaVuSans-6f" transform="scale(0.015625)"/>
       <path d="M 2906 1791 
Q 2906 2416 2648 2759 
Q 2391 3103 1925 3103 
Q 1463 3103 1205 2759 
Q 947 2416 947 1791 
Q 947 1169 1205 825 
Q 1463 481 1925 481 
Q 2391 481 2648 825 
Q 2906 1169 2906 1791 
z
M 3481 434 
Q 3481 -459 3084 -895 
Q 2688 -1331 1869 -1331 
Q 1566 -1331 1297 -1286 
Q 1028 -1241 775 -1147 
L 775 -588 
Q 1028 -725 1275 -790 
Q 1522 -856 1778 -856 
Q 2344 -856 2625 -561 
Q 2906 -266 2906 331 
L 2906 616 
Q 2728 306 2450 153 
Q 2172 0 1784 0 
Q 1141 0 747 490 
Q 353 981 353 1791 
Q 353 2603 747 3093 
Q 1141 3584 1784 3584 
Q 2172 3584 2450 3431 
Q 2728 3278 2906 2969 
L 2906 3500 
L 3481 3500 
L 3481 434 
z
" id="DejaVuSans-67" transform="scale(0.015625)"/>
       <path d="M 794 531 
L 1825 531 
L 1825 4091 
L 703 3866 
L 703 4441 
L 1819 4666 
L 2450 4666 
L 2450 531 
L 3481 531 
L 3481 0 
L 794 0 
L 794 531 
z
" id="DejaVuSans-31" transform="scale(0.015625)"/>
       <path d="M 1984 4856 
Q 1566 4138 1362 3434 
Q 1159 2731 1159 2009 
Q 1159 1288 1364 580 
Q 1569 -128 1984 -844 
L 1484 -844 
Q 1016 -109 783 600 
Q 550 1309 550 2009 
Q 550 2706 781 3412 
Q 1013 4119 1484 4856 
L 1984 4856 
z
" id="DejaVuSans-28" transform="scale(0.015625)"/>
       <path d="M 3272 2816 
L 2363 2816 
L 2100 1772 
L 3016 1772 
L 3272 2816 
z
M 2803 4594 
L 2478 3297 
L 3391 3297 
L 3719 4594 
L 4219 4594 
L 3897 3297 
L 4872 3297 
L 4872 2816 
L 3775 2816 
L 3519 1772 
L 4513 1772 
L 4513 1294 
L 3397 1294 
L 3072 0 
L 2572 0 
L 2894 1294 
L 1978 1294 
L 1656 0 
L 1153 0 
L 1478 1294 
L 494 1294 
L 494 1772 
L 1594 1772 
L 1856 2816 
L 850 2816 
L 850 3297 
L 1978 3297 
L 2297 4594 
L 2803 4594 
z
" id="DejaVuSans-23" transform="scale(0.015625)"/>
       <path id="DejaVuSans-20" transform="scale(0.015625)"/>
       <path d="M 2375 4863 
L 2375 4384 
L 1825 4384 
Q 1516 4384 1395 4259 
Q 1275 4134 1275 3809 
L 1275 3500 
L 2222 3500 
L 2222 3053 
L 1275 3053 
L 1275 0 
L 697 0 
L 697 3053 
L 147 3053 
L 147 3500 
L 697 3500 
L 697 3744 
Q 697 4328 969 4595 
Q 1241 4863 1831 4863 
L 2375 4863 
z
" id="DejaVuSans-66" transform="scale(0.015625)"/>
       <path d="M 313 2009 
L 1997 2009 
L 1997 1497 
L 313 1497 
L 313 2009 
z
" id="DejaVuSans-2d" transform="scale(0.015625)"/>
       <path d="M 3597 1894 
L 3597 1613 
L 953 1613 
Q 991 1019 1311 708 
Q 1631 397 2203 397 
Q 2534 397 2845 478 
Q 3156 559 3463 722 
L 3463 178 
Q 3153 47 2828 -22 
Q 2503 -91 2169 -91 
Q 1331 -91 842 396 
Q 353 884 353 1716 
Q 353 2575 817 3079 
Q 1281 3584 2069 3584 
Q 2775 3584 3186 3129 
Q 3597 2675 3597 1894 
z
M 3022 2063 
Q 3016 2534 2758 2815 
Q 2500 3097 2075 3097 
Q 1594 3097 1305 2825 
Q 1016 2553 972 2059 
L 3022 2063 
z
" id="DejaVuSans-65" transform="scale(0.015625)"/>
       <path d="M 191 3500 
L 800 3500 
L 1894 563 
L 2988 3500 
L 3597 3500 
L 2284 0 
L 1503 0 
L 191 3500 
z
" id="DejaVuSans-76" transform="scale(0.015625)"/>
       <path d="M 2194 1759 
Q 1497 1759 1228 1600 
Q 959 1441 959 1056 
Q 959 750 1161 570 
Q 1363 391 1709 391 
Q 2188 391 2477 730 
Q 2766 1069 2766 1631 
L 2766 1759 
L 2194 1759 
z
M 3341 1997 
L 3341 0 
L 2766 0 
L 2766 531 
Q 2569 213 2275 61 
Q 1981 -91 1556 -91 
Q 1019 -91 701 211 
Q 384 513 384 1019 
Q 384 1609 779 1909 
Q 1175 2209 1959 2209 
L 2766 2209 
L 2766 2266 
Q 2766 2663 2505 2880 
Q 2244 3097 1772 3097 
Q 1472 3097 1187 3025 
Q 903 2953 641 2809 
L 641 3341 
Q 956 3463 1253 3523 
Q 1550 3584 1831 3584 
Q 2591 3584 2966 3190 
Q 3341 2797 3341 1997 
z
" id="DejaVuSans-61" transform="scale(0.015625)"/>
       <path d="M 2834 3397 
L 2834 2853 
Q 2591 2978 2328 3040 
Q 2066 3103 1784 3103 
Q 1356 3103 1142 2972 
Q 928 2841 928 2578 
Q 928 2378 1081 2264 
Q 1234 2150 1697 2047 
L 1894 2003 
Q 2506 1872 2764 1633 
Q 3022 1394 3022 966 
Q 3022 478 2636 193 
Q 2250 -91 1575 -91 
Q 1294 -91 989 -36 
Q 684 19 347 128 
L 347 722 
Q 666 556 975 473 
Q 1284 391 1588 391 
Q 1994 391 2212 530 
Q 2431 669 2431 922 
Q 2431 1156 2273 1281 
Q 2116 1406 1581 1522 
L 1381 1569 
Q 847 1681 609 1914 
Q 372 2147 372 2553 
Q 372 3047 722 3315 
Q 1072 3584 1716 3584 
Q 2034 3584 2315 3537 
Q 2597 3491 2834 3397 
z
" id="DejaVuSans-73" transform="scale(0.015625)"/>
       <path d="M 1625 4666 
L 2156 4666 
L 531 -594 
L 0 -594 
L 1625 4666 
z
" id="DejaVuSans-2f" transform="scale(0.015625)"/>
       <path d="M 2906 2969 
L 2906 4863 
L 3481 4863 
L 3481 0 
L 2906 0 
L 2906 525 
Q 2725 213 2448 61 
Q 2172 -91 1784 -91 
Q 1150 -91 751 415 
Q 353 922 353 1747 
Q 353 2572 751 3078 
Q 1150 3584 1784 3584 
Q 2172 3584 2448 3432 
Q 2725 3281 2906 2969 
z
M 947 1747 
Q 947 1113 1208 752 
Q 1469 391 1925 391 
Q 2381 391 2643 752 
Q 2906 1113 2906 1747 
Q 2906 2381 2643 2742 
Q 2381 3103 1925 3103 
Q 1469 3103 1208 2742 
Q 947 2381 947 1747 
z
" id="DejaVuSans-64" transform="scale(0.015625)"/>
       <path d="M 603 3500 
L 1178 3500 
L 1178 0 
L 603 0 
L 603 3500 
z
M 603 4863 
L 1178 4863 
L 1178 4134 
L 603 4134 
L 603 4863 
z
" id="DejaVuSans-69" transform="scale(0.015625)"/>
       <path d="M 3328 2828 
Q 3544 3216 3844 3400 
Q 4144 3584 4550 3584 
Q 5097 3584 5394 3201 
Q 5691 2819 5691 2113 
L 5691 0 
L 5113 0 
L 5113 2094 
Q 5113 2597 4934 2840 
Q 4756 3084 4391 3084 
Q 3944 3084 3684 2787 
Q 3425 2491 3425 1978 
L 3425 0 
L 2847 0 
L 2847 2094 
Q 2847 2600 2669 2842 
Q 2491 3084 2119 3084 
Q 1678 3084 1418 2786 
Q 1159 2488 1159 1978 
L 1159 0 
L 581 0 
L 581 3500 
L 1159 3500 
L 1159 2956 
Q 1356 3278 1631 3431 
Q 1906 3584 2284 3584 
Q 2666 3584 2933 3390 
Q 3200 3197 3328 2828 
z
" id="DejaVuSans-6d" transform="scale(0.015625)"/>
       <path d="M 3513 2113 
L 3513 0 
L 2938 0 
L 2938 2094 
Q 2938 2591 2744 2837 
Q 2550 3084 2163 3084 
Q 1697 3084 1428 2787 
Q 1159 2491 1159 1978 
L 1159 0 
L 581 0 
L 581 3500 
L 1159 3500 
L 1159 2956 
Q 1366 3272 1645 3428 
Q 1925 3584 2291 3584 
Q 2894 3584 3203 3211 
Q 3513 2838 3513 2113 
z
" id="DejaVuSans-6e" transform="scale(0.015625)"/>
       <path d="M 513 4856 
L 1013 4856 
Q 1481 4119 1714 3412 
Q 1947 2706 1947 2009 
Q 1947 1309 1714 600 
Q 1481 -109 1013 -844 
L 513 -844 
Q 928 -128 1133 580 
Q 1338 1288 1338 2009 
Q 1338 2731 1133 3434 
Q 928 4138 513 4856 
z
" id="DejaVuSans-29" transform="scale(0.015625)"/>
      </defs>
      <use xlink:href="#DejaVuSans-6c"/>
      <use x="27.783203" xlink:href="#DejaVuSans-6f"/>
      <use x="88.964844" xlink:href="#DejaVuSans-67"/>
      <use x="152.441406" xlink:href="#DejaVuSans-31"/>
      <use x="216.064453" xlink:href="#DejaVuSans-30"/>
      <use x="279.6875" xlink:href="#DejaVuSans-28"/>
      <use x="318.701172" xlink:href="#DejaVuSans-23"/>
      <use x="402.490234" xlink:href="#DejaVuSans-20"/>
      <use x="434.277344" xlink:href="#DejaVuSans-66"/>
      <use x="463.982422" xlink:href="#DejaVuSans-2d"/>
      <use x="500.066406" xlink:href="#DejaVuSans-65"/>
      <use x="561.589844" xlink:href="#DejaVuSans-76"/>
      <use x="620.769531" xlink:href="#DejaVuSans-61"/>
      <use x="682.048828" xlink:href="#DejaVuSans-6c"/>
      <use x="709.832031" xlink:href="#DejaVuSans-73"/>
      <use x="761.931641" xlink:href="#DejaVuSans-20"/>
      <use x="793.71875" xlink:href="#DejaVuSans-2f"/>
      <use x="827.410156" xlink:href="#DejaVuSans-20"/>
      <use x="859.197266" xlink:href="#DejaVuSans-64"/>
      <use x="922.673828" xlink:href="#DejaVuSans-69"/>
      <use x="950.457031" xlink:href="#DejaVuSans-6d"/>
      <use x="1047.869141" xlink:href="#DejaVuSans-65"/>
      <use x="1109.392578" xlink:href="#DejaVuSans-6e"/>
      <use x="1172.771484" xlink:href="#DejaVuSans-73"/>
      <use x="1224.871094" xlink:href="#DejaVuSans-69"/>
      <use x="1252.654297" xlink:href="#DejaVuSans-6f"/>
      <use x="1313.835938" xlink:href="#DejaVuSans-6e"/>
      <use x="1377.214844" xlink:href="#DejaVuSans-29"/>
     </g>
    </g>
   </g>
   <g id="matplotlib.axis_2">
    <g id="ytick_1">
     <g id="line2d_21">
      <path clip-path="url(#p752c8ca1f1)" d="M 57.6 298.944 
L 338.688 298.944 
" style="fill:none;stroke:#b0b0b0;stroke-linecap:square;stroke-width:0.8;"/>
     </g>
     <g id="line2d_22">
      <defs>
       <path d="M 0 0 
L -3.5 0 
" id="mb0bcffa0ef" style="stroke:#000000;stroke-width:0.8;"/>
      </defs>
      <g>
       <use style="stroke:#000000;stroke-width:0.8;" x="57.6" xlink:href="#mb0bcffa0ef" y="298.944"/>
      </g>
     </g>
     <g id="text_6">
      <!-- 0.0 -->
      <g transform="translate(25.155 305.02275)scale(0.16 -0.16)">
       <defs>
        <path d="M 684 794 
L 1344 794 
L 1344 0 
L 684 0 
L 684 794 
z
" id="DejaVuSans-2e" transform="scale(0.015625)"/>
       </defs>
       <use xlink:href="#DejaVuSans-30"/>
       <use x="63.623047" xlink:href="#DejaVuSans-2e"/>
       <use x="95.410156" xlink:href="#DejaVuSans-30"/>
      </g>
     </g>
    </g>
    <g id="ytick_2">
     <g id="line2d_23">
      <path clip-path="url(#p752c8ca1f1)" d="M 57.6 245.22202 
L 338.688 245.22202 
" style="fill:none;stroke:#b0b0b0;stroke-linecap:square;stroke-width:0.8;"/>
     </g>
     <g id="line2d_24">
      <g>
       <use style="stroke:#000000;stroke-width:0.8;" x="57.6" xlink:href="#mb0bcffa0ef" y="245.22202"/>
      </g>
     </g>
     <g id="text_7">
      <!-- 0.2 -->
      <g transform="translate(25.155 251.30077)scale(0.16 -0.16)">
       <use xlink:href="#DejaVuSans-30"/>
       <use x="63.623047" xlink:href="#DejaVuSans-2e"/>
       <use x="95.410156" xlink:href="#DejaVuSans-32"/>
      </g>
     </g>
    </g>
    <g id="ytick_3">
     <g id="line2d_25">
      <path clip-path="url(#p752c8ca1f1)" d="M 57.6 191.50004 
L 338.688 191.50004 
" style="fill:none;stroke:#b0b0b0;stroke-linecap:square;stroke-width:0.8;"/>
     </g>
     <g id="line2d_26">
      <g>
       <use style="stroke:#000000;stroke-width:0.8;" x="57.6" xlink:href="#mb0bcffa0ef" y="191.50004"/>
      </g>
     </g>
     <g id="text_8">
      <!-- 0.4 -->
      <g transform="translate(25.155 197.57879)scale(0.16 -0.16)">
       <use xlink:href="#DejaVuSans-30"/>
       <use x="63.623047" xlink:href="#DejaVuSans-2e"/>
       <use x="95.410156" xlink:href="#DejaVuSans-34"/>
      </g>
     </g>
    </g>
    <g id="ytick_4">
     <g id="line2d_27">
      <path clip-path="url(#p752c8ca1f1)" d="M 57.6 137.778059 
L 338.688 137.778059 
" style="fill:none;stroke:#b0b0b0;stroke-linecap:square;stroke-width:0.8;"/>
     </g>
     <g id="line2d_28">
      <g>
       <use style="stroke:#000000;stroke-width:0.8;" x="57.6" xlink:href="#mb0bcffa0ef" y="137.778059"/>
      </g>
     </g>
     <g id="text_9">
      <!-- 0.6 -->
      <g transform="translate(25.155 143.856809)scale(0.16 -0.16)">
       <use xlink:href="#DejaVuSans-30"/>
       <use x="63.623047" xlink:href="#DejaVuSans-2e"/>
       <use x="95.410156" xlink:href="#DejaVuSans-36"/>
      </g>
     </g>
    </g>
    <g id="ytick_5">
     <g id="line2d_29">
      <path clip-path="url(#p752c8ca1f1)" d="M 57.6 84.056079 
L 338.688 84.056079 
" style="fill:none;stroke:#b0b0b0;stroke-linecap:square;stroke-width:0.8;"/>
     </g>
     <g id="line2d_30">
      <g>
       <use style="stroke:#000000;stroke-width:0.8;" x="57.6" xlink:href="#mb0bcffa0ef" y="84.056079"/>
      </g>
     </g>
     <g id="text_10">
      <!-- 0.8 -->
      <g transform="translate(25.155 90.134829)scale(0.16 -0.16)">
       <defs>
        <path d="M 2034 2216 
Q 1584 2216 1326 1975 
Q 1069 1734 1069 1313 
Q 1069 891 1326 650 
Q 1584 409 2034 409 
Q 2484 409 2743 651 
Q 3003 894 3003 1313 
Q 3003 1734 2745 1975 
Q 2488 2216 2034 2216 
z
M 1403 2484 
Q 997 2584 770 2862 
Q 544 3141 544 3541 
Q 544 4100 942 4425 
Q 1341 4750 2034 4750 
Q 2731 4750 3128 4425 
Q 3525 4100 3525 3541 
Q 3525 3141 3298 2862 
Q 3072 2584 2669 2484 
Q 3125 2378 3379 2068 
Q 3634 1759 3634 1313 
Q 3634 634 3220 271 
Q 2806 -91 2034 -91 
Q 1263 -91 848 271 
Q 434 634 434 1313 
Q 434 1759 690 2068 
Q 947 2378 1403 2484 
z
M 1172 3481 
Q 1172 3119 1398 2916 
Q 1625 2713 2034 2713 
Q 2441 2713 2670 2916 
Q 2900 3119 2900 3481 
Q 2900 3844 2670 4047 
Q 2441 4250 2034 4250 
Q 1625 4250 1398 4047 
Q 1172 3844 1172 3481 
z
" id="DejaVuSans-38" transform="scale(0.015625)"/>
       </defs>
       <use xlink:href="#DejaVuSans-30"/>
       <use x="63.623047" xlink:href="#DejaVuSans-2e"/>
       <use x="95.410156" xlink:href="#DejaVuSans-38"/>
      </g>
     </g>
    </g>
    <g id="ytick_6">
     <g id="line2d_31">
      <path clip-path="url(#p752c8ca1f1)" d="M 57.6 30.334099 
L 338.688 30.334099 
" style="fill:none;stroke:#b0b0b0;stroke-linecap:square;stroke-width:0.8;"/>
     </g>
     <g id="line2d_32">
      <g>
       <use style="stroke:#000000;stroke-width:0.8;" x="57.6" xlink:href="#mb0bcffa0ef" y="30.334099"/>
      </g>
     </g>
     <g id="text_11">
      <!-- 1.0 -->
      <g transform="translate(25.155 36.412849)scale(0.16 -0.16)">
       <use xlink:href="#DejaVuSans-31"/>
       <use x="63.623047" xlink:href="#DejaVuSans-2e"/>
       <use x="95.410156" xlink:href="#DejaVuSans-30"/>
      </g>
     </g>
    </g>
    <g id="text_12">
     <!-- Fraction of function,target pairs -->
     <g transform="translate(17.619531 297.681)rotate(-90)scale(0.17 -0.17)">
      <defs>
       <path d="M 628 4666 
L 3309 4666 
L 3309 4134 
L 1259 4134 
L 1259 2759 
L 3109 2759 
L 3109 2228 
L 1259 2228 
L 1259 0 
L 628 0 
L 628 4666 
z
" id="DejaVuSans-46" transform="scale(0.015625)"/>
       <path d="M 2631 2963 
Q 2534 3019 2420 3045 
Q 2306 3072 2169 3072 
Q 1681 3072 1420 2755 
Q 1159 2438 1159 1844 
L 1159 0 
L 581 0 
L 581 3500 
L 1159 3500 
L 1159 2956 
Q 1341 3275 1631 3429 
Q 1922 3584 2338 3584 
Q 2397 3584 2469 3576 
Q 2541 3569 2628 3553 
L 2631 2963 
z
" id="DejaVuSans-72" transform="scale(0.015625)"/>
       <path d="M 3122 3366 
L 3122 2828 
Q 2878 2963 2633 3030 
Q 2388 3097 2138 3097 
Q 1578 3097 1268 2742 
Q 959 2388 959 1747 
Q 959 1106 1268 751 
Q 1578 397 2138 397 
Q 2388 397 2633 464 
Q 2878 531 3122 666 
L 3122 134 
Q 2881 22 2623 -34 
Q 2366 -91 2075 -91 
Q 1284 -91 818 406 
Q 353 903 353 1747 
Q 353 2603 823 3093 
Q 1294 3584 2113 3584 
Q 2378 3584 2631 3529 
Q 2884 3475 3122 3366 
z
" id="DejaVuSans-63" transform="scale(0.015625)"/>
       <path d="M 1172 4494 
L 1172 3500 
L 2356 3500 
L 2356 3053 
L 1172 3053 
L 1172 1153 
Q 1172 725 1289 603 
Q 1406 481 1766 481 
L 2356 481 
L 2356 0 
L 1766 0 
Q 1100 0 847 248 
Q 594 497 594 1153 
L 594 3053 
L 172 3053 
L 172 3500 
L 594 3500 
L 594 4494 
L 1172 4494 
z
" id="DejaVuSans-74" transform="scale(0.015625)"/>
       <path d="M 544 1381 
L 544 3500 
L 1119 3500 
L 1119 1403 
Q 1119 906 1312 657 
Q 1506 409 1894 409 
Q 2359 409 2629 706 
Q 2900 1003 2900 1516 
L 2900 3500 
L 3475 3500 
L 3475 0 
L 2900 0 
L 2900 538 
Q 2691 219 2414 64 
Q 2138 -91 1772 -91 
Q 1169 -91 856 284 
Q 544 659 544 1381 
z
M 1991 3584 
L 1991 3584 
z
" id="DejaVuSans-75" transform="scale(0.015625)"/>
       <path d="M 750 794 
L 1409 794 
L 1409 256 
L 897 -744 
L 494 -744 
L 750 256 
L 750 794 
z
" id="DejaVuSans-2c" transform="scale(0.015625)"/>
       <path d="M 1159 525 
L 1159 -1331 
L 581 -1331 
L 581 3500 
L 1159 3500 
L 1159 2969 
Q 1341 3281 1617 3432 
Q 1894 3584 2278 3584 
Q 2916 3584 3314 3078 
Q 3713 2572 3713 1747 
Q 3713 922 3314 415 
Q 2916 -91 2278 -91 
Q 1894 -91 1617 61 
Q 1341 213 1159 525 
z
M 3116 1747 
Q 3116 2381 2855 2742 
Q 2594 3103 2138 3103 
Q 1681 3103 1420 2742 
Q 1159 2381 1159 1747 
Q 1159 1113 1420 752 
Q 1681 391 2138 391 
Q 2594 391 2855 752 
Q 3116 1113 3116 1747 
z
" id="DejaVuSans-70" transform="scale(0.015625)"/>
      </defs>
      <use xlink:href="#DejaVuSans-46"/>
      <use x="50.269531" xlink:href="#DejaVuSans-72"/>
      <use x="91.382812" xlink:href="#DejaVuSans-61"/>
      <use x="152.662109" xlink:href="#DejaVuSans-63"/>
      <use x="207.642578" xlink:href="#DejaVuSans-74"/>
      <use x="246.851562" xlink:href="#DejaVuSans-69"/>
      <use x="274.634766" xlink:href="#DejaVuSans-6f"/>
      <use x="335.816406" xlink:href="#DejaVuSans-6e"/>
      <use x="399.195312" xlink:href="#DejaVuSans-20"/>
      <use x="430.982422" xlink:href="#DejaVuSans-6f"/>
      <use x="492.164062" xlink:href="#DejaVuSans-66"/>
      <use x="527.369141" xlink:href="#DejaVuSans-20"/>
      <use x="559.15625" xlink:href="#DejaVuSans-66"/>
      <use x="594.361328" xlink:href="#DejaVuSans-75"/>
      <use x="657.740234" xlink:href="#DejaVuSans-6e"/>
      <use x="721.119141" xlink:href="#DejaVuSans-63"/>
      <use x="776.099609" xlink:href="#DejaVuSans-74"/>
      <use x="815.308594" xlink:href="#DejaVuSans-69"/>
      <use x="843.091797" xlink:href="#DejaVuSans-6f"/>
      <use x="904.273438" xlink:href="#DejaVuSans-6e"/>
      <use x="967.652344" xlink:href="#DejaVuSans-2c"/>
      <use x="999.439453" xlink:href="#DejaVuSans-74"/>
      <use x="1038.648438" xlink:href="#DejaVuSans-61"/>
      <use x="1099.927734" xlink:href="#DejaVuSans-72"/>
      <use x="1139.291016" xlink:href="#DejaVuSans-67"/>
      <use x="1202.767578" xlink:href="#DejaVuSans-65"/>
      <use x="1264.291016" xlink:href="#DejaVuSans-74"/>
      <use x="1303.5" xlink:href="#DejaVuSans-20"/>
      <use x="1335.287109" xlink:href="#DejaVuSans-70"/>
      <use x="1398.763672" xlink:href="#DejaVuSans-61"/>
      <use x="1460.042969" xlink:href="#DejaVuSans-69"/>
      <use x="1487.826172" xlink:href="#DejaVuSans-72"/>
      <use x="1528.939453" xlink:href="#DejaVuSans-73"/>
     </g>
    </g>
   </g>
   <g id="line2d_33">
    <defs>
     <path d="M 0 1.5 
C 0.397805 1.5 0.77937 1.341951 1.06066 1.06066 
C 1.341951 0.77937 1.5 0.397805 1.5 0 
C 1.5 -0.397805 1.341951 -0.77937 1.06066 -1.06066 
C 0.77937 -1.341951 0.397805 -1.5 0 -1.5 
C -0.397805 -1.5 -0.77937 -1.341951 -1.06066 -1.06066 
C -1.341951 -0.77937 -1.5 -0.397805 -1.5 0 
C -1.5 0.397805 -1.341951 0.77937 -1.06066 1.06066 
C -0.77937 1.341951 -0.397805 1.5 0 1.5 
z
" id="m3ee5cfa730" style="stroke:#f5deb3;"/>
    </defs>
    <g>
     <use style="fill:#f5deb3;stroke:#f5deb3;" x="233.834746" xlink:href="#m3ee5cfa730" y="30.334099"/>
     <use style="fill:#f5deb3;stroke:#f5deb3;" x="233.834746" xlink:href="#m3ee5cfa730" y="30.334099"/>
    </g>
   </g>
   <g id="line2d_34">
    <defs>
     <path d="M 0 1.5 
C 0.397805 1.5 0.77937 1.341951 1.06066 1.06066 
C 1.341951 0.77937 1.5 0.397805 1.5 0 
C 1.5 -0.397805 1.341951 -0.77937 1.06066 -1.06066 
C 0.77937 -1.341951 0.397805 -1.5 0 -1.5 
C -0.397805 -1.5 -0.77937 -1.341951 -1.06066 -1.06066 
C -1.341951 -0.77937 -1.5 -0.397805 -1.5 0 
C -1.5 0.397805 -1.341951 0.77937 -1.06066 1.06066 
C -0.77937 1.341951 -0.397805 1.5 0 1.5 
z
" id="m2d145d9b55" style="stroke:#000080;"/>
    </defs>
    <g>
     <use style="fill:#000080;stroke:#000080;" x="284.094433" xlink:href="#m2d145d9b55" y="209.407366"/>
     <use style="fill:#000080;stroke:#000080;" x="284.094433" xlink:href="#m2d145d9b55" y="209.407366"/>
    </g>
   </g>
   <g id="line2d_35">
    <path d="M 29.53256 298.944 
L 29.53256 291.043709 
L 41.620548 291.043709 
L 41.620548 281.563359 
L 48.691568 281.563359 
L 48.691568 278.929929 
L 53.708537 278.929929 
L 53.708537 276.296499 
L 57.6 276.296499 
L 57.6 275.243126 
L 60.779557 275.243126 
L 60.779557 274.71644 
L 69.687988 274.71644 
L 69.687988 274.189754 
L 71.35013 274.189754 
L 71.35013 273.663068 
L 72.867545 273.663068 
L 72.867545 273.136382 
L 74.263433 273.136382 
L 74.263433 272.609696 
L 75.555822 272.609696 
L 75.555822 272.08301 
L 84.213325 272.08301 
L 84.213325 271.556324 
L 84.955534 271.556324 
L 84.955534 271.029638 
L 92.026554 271.029638 
L 92.026554 270.502952 
L 93.422441 270.502952 
L 93.422441 269.976266 
L 93.863965 269.976266 
L 93.863965 269.449579 
L 95.125186 269.449579 
L 95.125186 268.922893 
L 95.526106 268.922893 
L 95.526106 268.396207 
L 95.918017 268.396207 
L 95.918017 267.869521 
L 97.755429 267.869521 
L 97.755429 267.342835 
L 99.097574 267.342835 
L 99.097574 266.816149 
L 102.060491 266.816149 
L 102.060491 265.236091 
L 102.859376 265.236091 
L 102.859376 264.709405 
L 107.009204 264.709405 
L 107.009204 264.182719 
L 107.614095 264.182719 
L 107.614095 263.129347 
L 108.764355 263.129347 
L 108.764355 262.60266 
L 112.58145 262.60266 
L 112.58145 262.075974 
L 117.259781 262.075974 
L 117.259781 261.549288 
L 118.039942 261.549288 
L 118.039942 261.022602 
L 118.470564 261.022602 
L 118.470564 260.495916 
L 119.702083 260.495916 
L 119.702083 259.442544 
L 121.219499 259.442544 
L 121.219499 258.915858 
L 125.399222 258.915858 
L 125.399222 258.389172 
L 127.54831 258.389172 
L 127.54831 257.862486 
L 128.107907 257.862486 
L 128.107907 257.3358 
L 129.233413 257.3358 
L 129.233413 256.809114 
L 130.664567 256.809114 
L 130.664567 256.282427 
L 131.439773 256.282427 
L 131.439773 255.755741 
L 132.036046 255.755741 
L 132.036046 255.229055 
L 137.415591 255.229055 
L 137.415591 254.702369 
L 139.887228 254.702369 
L 139.887228 254.175683 
L 140.973763 254.175683 
L 140.973763 253.648997 
L 141.321401 253.648997 
L 141.321401 253.122311 
L 141.577657 253.122311 
L 141.577657 252.068939 
L 143.927534 252.068939 
L 143.927534 251.542253 
L 147.164632 251.542253 
L 147.164632 251.015567 
L 148.044783 251.015567 
L 148.044783 250.488881 
L 148.658095 250.488881 
L 148.658095 249.962195 
L 151.597455 249.962195 
L 151.597455 249.435508 
L 154.208275 249.435508 
L 154.208275 248.908822 
L 154.412564 248.908822 
L 154.412564 248.382136 
L 155.916435 248.382136 
L 155.916435 247.85545 
L 156.634302 247.85545 
L 156.634302 247.328764 
L 157.162628 247.328764 
L 157.162628 246.802078 
L 159.837683 246.802078 
L 159.867418 245.22202 
L 163.914652 245.22202 
L 163.914652 244.695334 
L 165.97132 244.695334 
L 165.97132 244.168648 
L 167.653117 244.168648 
L 167.653117 242.588589 
L 168.858837 242.588589 
L 168.858837 241.535217 
L 173.132825 241.535217 
L 173.132825 241.008531 
L 174.174823 241.008531 
L 174.174823 240.481845 
L 175.009071 240.481845 
L 175.009071 239.955159 
L 176.24824 239.955159 
L 176.24824 239.428473 
L 176.642473 239.428473 
L 176.642473 238.901787 
L 178.68643 238.901787 
L 178.68643 238.375101 
L 179.766435 238.375101 
L 179.766435 237.848415 
L 179.933319 237.848415 
L 179.933319 237.321729 
L 180.145122 237.321729 
L 180.145122 236.268356 
L 182.88154 236.268356 
L 182.88154 235.74167 
L 183.050088 235.74167 
L 183.050088 235.214984 
L 183.17804 235.214984 
L 183.17804 234.688298 
L 183.705922 234.688298 
L 183.705922 234.161612 
L 184.264802 234.161612 
L 184.264802 233.634926 
L 184.704126 233.634926 
L 184.704126 233.10824 
L 189.278104 233.10824 
L 189.278104 232.581554 
L 190.625681 232.581554 
L 190.625681 232.054868 
L 190.98686 232.054868 
L 190.98686 231.528182 
L 192.096356 231.528182 
L 192.096356 231.001496 
L 193.192291 231.001496 
L 193.192291 230.47481 
L 194.566639 230.47481 
L 194.566639 229.948123 
L 194.935093 229.948123 
L 195.006538 228.894751 
L 197.664987 228.894751 
L 197.664987 228.368065 
L 200.271611 228.368065 
L 200.271611 227.841379 
L 201.866793 227.841379 
L 201.866793 227.314693 
L 202.113611 227.314693 
L 202.113611 226.788007 
L 203.491312 226.788007 
L 203.491312 226.261321 
L 205.080617 226.261321 
L 205.080617 225.734635 
L 205.879359 225.734635 
L 205.879359 225.207949 
L 206.669516 225.207949 
L 206.669516 224.681263 
L 208.307041 224.681263 
L 208.307041 224.154577 
L 211.016595 224.154577 
L 211.016595 223.627891 
L 213.20149 223.627891 
L 213.20149 223.101204 
L 216.590031 223.101204 
L 216.590031 222.574518 
L 222.825575 222.574518 
L 222.825575 222.047832 
L 224.052887 222.047832 
L 224.052887 221.521146 
L 226.047669 221.521146 
L 226.147364 220.467774 
L 227.436464 220.467774 
L 227.436464 219.941088 
L 229.512937 219.941088 
L 229.512937 218.887716 
L 231.84407 218.887716 
L 231.84407 218.36103 
L 232.763118 218.36103 
L 232.763118 217.834344 
L 233.42724 217.834344 
L 233.42724 217.307658 
L 235.293243 217.307658 
L 235.379259 216.254285 
L 235.51875 216.254285 
L 235.51875 215.727599 
L 241.020178 215.727599 
L 241.020178 215.200913 
L 243.667507 215.200913 
L 243.667507 214.674227 
L 244.741298 214.674227 
L 244.741298 214.147541 
L 247.603763 214.147541 
L 247.603763 213.620855 
L 251.383208 213.620855 
L 251.383208 213.094169 
L 253.810521 213.094169 
L 253.810521 212.567483 
L 259.550867 212.567483 
L 259.550867 212.040797 
L 263.469999 212.040797 
L 263.469999 211.514111 
L 263.862378 211.514111 
L 263.862378 210.987425 
L 271.884774 210.987425 
L 271.884774 210.460738 
L 281.518619 210.460738 
L 281.518619 209.934052 
L 284.094433 209.934052 
L 284.094433 209.407366 
L 338.688 209.407366 
L 338.688 209.407366 
" style="fill:none;stroke:#000080;stroke-linecap:square;stroke-width:1.5;"/>
   </g>
   <g id="line2d_36">
    <defs>
     <path d="M 0 6 
C 1.591219 6 3.117479 5.367802 4.242641 4.242641 
C 5.367802 3.117479 6 1.591219 6 0 
C 6 -1.591219 5.367802 -3.117479 4.242641 -4.242641 
C 3.117479 -5.367802 1.591219 -6 0 -6 
C -1.591219 -6 -3.117479 -5.367802 -4.242641 -4.242641 
C -5.367802 -3.117479 -6 -1.591219 -6 0 
C -6 1.591219 -5.367802 3.117479 -4.242641 4.242641 
C -3.117479 5.367802 -1.591219 6 0 6 
z
" id="mfa3d6f905c" style="stroke:#000080;stroke-width:1.5;"/>
    </defs>
    <g>
     <use style="fill-opacity:0;stroke:#000080;stroke-width:1.5;" x="131.439773" xlink:href="#mfa3d6f905c" y="255.755741"/>
     <use style="fill-opacity:0;stroke:#000080;stroke-width:1.5;" x="197.664987" xlink:href="#mfa3d6f905c" y="228.368065"/>
     <use style="fill-opacity:0;stroke:#000080;stroke-width:1.5;" x="259.550867" xlink:href="#mfa3d6f905c" y="212.040797"/>
     <use style="fill-opacity:0;stroke:#000080;stroke-width:1.5;" x="284.094433" xlink:href="#mfa3d6f905c" y="209.407366"/>
     <use style="fill-opacity:0;stroke:#000080;stroke-width:1.5;" x="284.094433" xlink:href="#mfa3d6f905c" y="209.407366"/>
     <use style="fill-opacity:0;stroke:#000080;stroke-width:1.5;" x="338.688" xlink:href="#mfa3d6f905c" y="209.407366"/>
    </g>
   </g>
   <g id="line2d_37">
    <path style="fill:none;stroke:#000080;stroke-linecap:square;stroke-width:1.5;"/>
    <g/>
   </g>
   <g id="line2d_38">
    <path clip-path="url(#p752c8ca1f1)" d="M 218.221714 222.574518 
" style="fill:none;stroke:#000080;stroke-linecap:square;stroke-width:1.5;"/>
    <defs>
     <path d="M -12 12 
L 12 -12 
M -12 -12 
L 12 12 
" id="m7bc33d385c" style="stroke:#000080;"/>
    </defs>
    <g clip-path="url(#p752c8ca1f1)">
     <use style="fill:#000080;stroke:#000080;" x="218.221714" xlink:href="#m7bc33d385c" y="222.574518"/>
    </g>
   </g>
   <g id="line2d_39">
    <defs>
     <path d="M 0 1.5 
C 0.397805 1.5 0.77937 1.341951 1.06066 1.06066 
C 1.341951 0.77937 1.5 0.397805 1.5 0 
C 1.5 -0.397805 1.341951 -0.77937 1.06066 -1.06066 
C 0.77937 -1.341951 0.397805 -1.5 0 -1.5 
C -0.397805 -1.5 -0.77937 -1.341951 -1.06066 -1.06066 
C -1.341951 -0.77937 -1.5 -0.397805 -1.5 0 
C -1.5 0.397805 -1.341951 0.77937 -1.06066 1.06066 
C -0.77937 1.341951 -0.397805 1.5 0 1.5 
z
" id="m657354e674" style="stroke:#ff00ff;"/>
    </defs>
    <g>
     <use style="fill:#ff00ff;stroke:#ff00ff;" x="289.49571" xlink:href="#m657354e674" y="167.27248"/>
     <use style="fill:#ff00ff;stroke:#ff00ff;" x="289.49571" xlink:href="#m657354e674" y="167.27248"/>
    </g>
   </g>
   <g id="line2d_40">
    <path d="M 29.53256 298.944 
L 29.53256 286.303534 
L 41.620548 286.303534 
L 41.620548 281.563359 
L 48.691568 281.563359 
L 48.691568 278.929929 
L 53.708537 278.929929 
L 53.708537 276.823185 
L 60.779557 276.823185 
L 60.779557 275.769812 
L 63.467834 275.769812 
L 63.467834 275.243126 
L 65.796525 275.243126 
L 65.796525 274.71644 
L 67.850577 274.71644 
L 67.850577 274.189754 
L 72.867545 274.189754 
L 72.867545 273.663068 
L 75.555822 273.663068 
L 75.555822 272.609696 
L 76.759008 272.609696 
L 76.759008 272.08301 
L 77.884514 272.08301 
L 77.884514 271.556324 
L 79.938565 271.556324 
L 79.938565 271.029638 
L 80.881459 271.029638 
L 80.881459 269.976266 
L 85.66744 269.976266 
L 85.66744 269.449579 
L 90.509138 269.449579 
L 90.509138 268.922893 
L 95.526106 268.922893 
L 95.526106 268.396207 
L 95.918017 268.396207 
L 95.918017 267.869521 
L 98.100772 267.869521 
L 98.100772 267.342835 
L 101.506816 267.342835 
L 101.506816 266.816149 
L 104.592361 266.816149 
L 104.592361 266.289463 
L 106.802819 266.289463 
L 106.802819 265.762777 
L 107.009204 265.762777 
L 107.009204 265.236091 
L 109.131511 265.236091 
L 109.131511 264.709405 
L 110.016944 264.709405 
L 110.016944 264.182719 
L 110.527398 264.182719 
L 110.527398 263.656033 
L 111.185562 263.656033 
L 111.185562 263.129347 
L 115.205729 263.129347 
L 115.205729 262.60266 
L 116.202531 262.60266 
L 116.202531 261.549288 
L 117.030313 261.549288 
L 117.030313 261.022602 
L 117.373392 261.022602 
L 117.373392 260.495916 
L 119.996839 260.495916 
L 119.996839 259.442544 
L 121.579085 259.442544 
L 121.579085 258.915858 
L 122.104932 258.915858 
L 122.104932 258.389172 
L 122.531342 258.389172 
L 122.615387 257.3358 
L 122.782271 257.3358 
L 122.782271 256.809114 
L 125.612332 256.809114 
L 125.612332 256.282427 
L 126.773103 256.282427 
L 126.773103 255.755741 
L 128.350967 255.755741 
L 128.350967 255.229055 
L 130.290663 255.229055 
L 130.290663 254.175683 
L 132.181982 254.175683 
L 132.181982 253.648997 
L 139.381706 253.648997 
L 139.381706 253.122311 
L 143.273169 253.122311 
L 143.273169 252.595625 
L 144.414696 252.595625 
L 144.414696 252.068939 
L 146.791364 252.068939 
L 146.791364 251.542253 
L 148.993835 251.542253 
L 148.993835 251.015567 
L 156.175347 251.015567 
L 156.175347 250.488881 
L 158.962994 250.488881 
L 158.962994 249.962195 
L 164.592289 249.962195 
L 164.592289 249.435508 
L 169.210094 249.435508 
L 169.210094 248.908822 
L 172.16214 248.908822 
L 172.16214 247.85545 
L 172.361615 247.85545 
L 172.361615 247.328764 
L 172.6066 247.328764 
L 172.6066 246.802078 
L 176.830682 246.802078 
L 176.830682 246.275392 
L 177.92621 246.275392 
L 177.92621 245.748706 
L 178.325932 245.748706 
L 178.325932 245.22202 
L 178.642617 245.22202 
L 178.642617 244.695334 
L 181.814861 244.695334 
L 181.814861 244.168648 
L 184.043395 244.168648 
L 184.097777 243.115275 
L 186.096346 243.115275 
L 186.124933 242.061903 
L 186.909022 242.061903 
L 186.909022 241.535217 
L 189.290935 241.535217 
L 189.290935 241.008531 
L 191.488344 241.008531 
L 191.488344 240.481845 
L 192.344209 240.481845 
L 192.344209 239.955159 
L 192.844544 239.955159 
L 192.844544 239.428473 
L 193.770123 239.428473 
L 193.770123 238.901787 
L 194.871339 238.901787 
L 194.871339 237.321729 
L 196.394298 237.321729 
L 196.394298 236.795043 
L 197.328461 236.795043 
L 197.328461 236.268356 
L 197.476921 236.268356 
L 197.476921 235.74167 
L 198.552362 235.74167 
L 198.552362 235.214984 
L 201.377091 235.214984 
L 201.377091 234.688298 
L 201.604678 234.688298 
L 201.604678 233.634926 
L 203.315098 233.634926 
L 203.315098 233.10824 
L 204.080285 233.10824 
L 204.129653 232.054868 
L 204.237308 232.054868 
L 204.237308 231.528182 
L 204.497445 231.528182 
L 204.497445 231.001496 
L 204.787702 231.001496 
L 204.787702 230.47481 
L 205.138319 230.47481 
L 205.138319 229.948123 
L 205.367965 229.948123 
L 205.418186 228.894751 
L 205.582391 228.894751 
L 205.582391 228.368065 
L 205.855985 228.368065 
L 205.953522 227.314693 
L 206.390623 227.314693 
L 206.390623 226.788007 
L 206.537104 226.788007 
L 206.537104 226.261321 
L 207.148577 226.261321 
L 207.148577 225.734635 
L 207.545489 225.734635 
L 207.545489 225.207949 
L 207.82628 225.207949 
L 207.82628 224.681263 
L 208.080175 224.681263 
L 208.127527 223.101204 
L 208.312582 223.101204 
L 208.312582 222.047832 
L 208.474969 222.047832 
L 208.474969 221.521146 
L 208.843714 221.521146 
L 208.843714 220.99446 
L 209.140948 220.99446 
L 209.147991 219.414402 
L 209.558606 219.414402 
L 209.558606 218.887716 
L 209.672868 218.887716 
L 209.672868 218.36103 
L 209.879487 218.36103 
L 209.879487 217.834344 
L 210.21556 217.834344 
L 210.21556 217.307658 
L 212.020484 217.307658 
L 212.020484 216.780971 
L 214.939873 216.780971 
L 214.939873 216.254285 
L 215.478767 216.254285 
L 215.478767 215.727599 
L 223.909747 215.727599 
L 223.909747 215.200913 
L 224.503634 215.200913 
L 224.503634 214.674227 
L 224.855502 214.674227 
L 224.855502 214.147541 
L 225.073252 214.147541 
L 225.110886 213.094169 
L 225.875363 213.094169 
L 225.982974 210.987425 
L 226.160864 210.987425 
L 226.24363 209.934052 
L 226.356439 209.934052 
L 226.356439 209.407366 
L 226.553955 209.407366 
L 226.632726 208.353994 
L 227.135307 208.353994 
L 227.135307 207.300622 
L 227.483284 207.300622 
L 227.483284 206.24725 
L 228.992102 206.24725 
L 228.992102 205.720564 
L 233.818353 205.720564 
L 233.818353 205.193878 
L 234.069808 205.193878 
L 234.165274 203.087133 
L 234.252849 203.087133 
L 234.252849 202.033761 
L 234.408916 202.033761 
L 234.408916 201.507075 
L 234.608224 201.507075 
L 234.618579 199.927017 
L 235.329897 199.927017 
L 235.329897 199.400331 
L 236.513474 199.400331 
L 236.513474 198.873645 
L 240.105932 198.873645 
L 240.105932 198.346959 
L 240.217645 198.346959 
L 240.277813 197.293586 
L 240.360722 197.293586 
L 240.368168 195.186842 
L 241.751331 195.186842 
L 241.751331 194.13347 
L 244.240107 194.13347 
L 244.240107 193.606784 
L 244.391337 193.606784 
L 244.391337 193.080098 
L 244.567465 193.080098 
L 244.567465 192.026726 
L 244.681812 192.026726 
L 244.681812 191.50004 
L 245.773997 191.50004 
L 245.773997 190.973354 
L 248.192376 190.973354 
L 248.192376 190.446667 
L 250.814193 190.446667 
L 250.814193 189.919981 
L 251.026327 189.919981 
L 251.068806 188.339923 
L 253.323956 188.339923 
L 253.323956 187.813237 
L 253.457932 187.813237 
L 253.457932 187.286551 
L 254.165494 187.286551 
L 254.165494 186.759865 
L 257.59067 186.759865 
L 257.622604 185.179807 
L 259.354704 185.179807 
L 259.354704 184.653121 
L 259.5583 184.653121 
L 259.5583 184.126434 
L 260.878308 184.126434 
L 260.930206 182.01969 
L 262.339558 182.01969 
L 262.352892 180.966318 
L 263.665129 180.966318 
L 263.709372 179.38626 
L 264.92867 179.38626 
L 264.92867 178.859574 
L 266.086294 178.859574 
L 266.105921 176.752829 
L 267.154807 176.752829 
L 267.172593 175.699457 
L 268.178403 175.699457 
L 268.212568 173.592713 
L 271.760515 173.592713 
L 271.760515 173.066027 
L 272.55183 173.066027 
L 272.55183 172.539341 
L 273.315308 172.539341 
L 273.321823 171.485969 
L 274.743306 171.485969 
L 274.743306 170.959282 
L 275.406266 170.959282 
L 275.406266 170.432596 
L 276.051022 170.432596 
L 276.051022 169.90591 
L 278.964076 169.90591 
L 278.964076 169.379224 
L 279.482476 169.379224 
L 279.482476 168.852538 
L 285.93171 168.852538 
L 285.93171 168.325852 
L 288.594653 168.325852 
L 288.594653 167.799166 
L 289.49571 167.799166 
L 289.49571 167.27248 
L 338.688 167.27248 
L 338.688 167.27248 
" style="fill:none;stroke:#ff00ff;stroke-linecap:square;stroke-width:1.5;"/>
   </g>
   <g id="line2d_41">
    <defs>
     <path d="M 0 8.485281 
L 5.091169 0 
L 0 -8.485281 
L -5.091169 0 
z
" id="mfb062b3a9e" style="stroke:#ff00ff;stroke-linejoin:miter;stroke-width:1.5;"/>
    </defs>
    <g>
     <use style="fill-opacity:0;stroke:#ff00ff;stroke-linejoin:miter;stroke-width:1.5;" x="117.373392" xlink:href="#mfb062b3a9e" y="260.495916"/>
     <use style="fill-opacity:0;stroke:#ff00ff;stroke-linejoin:miter;stroke-width:1.5;" x="172.6066" xlink:href="#mfb062b3a9e" y="247.328764"/>
     <use style="fill-opacity:0;stroke:#ff00ff;stroke-linejoin:miter;stroke-width:1.5;" x="253.323956" xlink:href="#mfb062b3a9e" y="187.813237"/>
     <use style="fill-opacity:0;stroke:#ff00ff;stroke-linejoin:miter;stroke-width:1.5;" x="289.49571" xlink:href="#mfb062b3a9e" y="167.799166"/>
     <use style="fill-opacity:0;stroke:#ff00ff;stroke-linejoin:miter;stroke-width:1.5;" x="289.49571" xlink:href="#mfb062b3a9e" y="167.27248"/>
     <use style="fill-opacity:0;stroke:#ff00ff;stroke-linejoin:miter;stroke-width:1.5;" x="338.688" xlink:href="#mfb062b3a9e" y="167.27248"/>
    </g>
   </g>
   <g id="line2d_42">
    <path style="fill:none;stroke:#ff00ff;stroke-linecap:square;stroke-width:1.5;"/>
    <g/>
   </g>
   <g id="line2d_43">
    <path clip-path="url(#p752c8ca1f1)" d="M 218.221714 215.727599 
" style="fill:none;stroke:#ff00ff;stroke-linecap:square;stroke-width:1.5;"/>
    <defs>
     <path d="M -12 12 
L 12 -12 
M -12 -12 
L 12 12 
" id="m63fab235bb" style="stroke:#ff00ff;"/>
    </defs>
    <g clip-path="url(#p752c8ca1f1)">
     <use style="fill:#ff00ff;stroke:#ff00ff;" x="218.221714" xlink:href="#m63fab235bb" y="215.727599"/>
    </g>
   </g>
   <g id="line2d_44">
    <defs>
     <path d="M 0 1.5 
C 0.397805 1.5 0.77937 1.341951 1.06066 1.06066 
C 1.341951 0.77937 1.5 0.397805 1.5 0 
C 1.5 -0.397805 1.341951 -0.77937 1.06066 -1.06066 
C 0.77937 -1.341951 0.397805 -1.5 0 -1.5 
C -0.397805 -1.5 -0.77937 -1.341951 -1.06066 -1.06066 
C -1.341951 -0.77937 -1.5 -0.397805 -1.5 0 
C -1.5 0.397805 -1.341951 0.77937 -1.06066 1.06066 
C -0.77937 1.341951 -0.397805 1.5 0 1.5 
z
" id="m01f8e1a9dd" style="stroke:#ff7500;"/>
    </defs>
    <g>
     <use style="fill:#ff7500;stroke:#ff7500;" x="283.360632" xlink:href="#m01f8e1a9dd" y="214.674227"/>
     <use style="fill:#ff7500;stroke:#ff7500;" x="283.360632" xlink:href="#m01f8e1a9dd" y="214.674227"/>
    </g>
   </g>
   <g id="line2d_45">
    <path d="M 29.53256 298.944 
L 29.53256 286.303534 
L 41.620548 286.303534 
L 41.620548 279.456615 
L 48.691568 279.456615 
L 48.691568 278.403243 
L 53.708537 278.403243 
L 53.708537 276.823185 
L 60.779557 276.823185 
L 60.779557 276.296499 
L 63.467834 276.296499 
L 63.467834 274.189754 
L 65.796525 274.189754 
L 65.796525 273.136382 
L 67.850577 273.136382 
L 67.850577 272.609696 
L 74.263433 272.609696 
L 74.263433 272.08301 
L 76.759008 272.08301 
L 76.759008 271.556324 
L 80.881459 271.556324 
L 80.881459 271.029638 
L 86.351421 271.029638 
L 86.351421 269.976266 
L 89.418828 269.976266 
L 89.418828 269.449579 
L 94.294587 269.449579 
L 94.294587 268.922893 
L 97.403108 268.922893 
L 97.403108 268.396207 
L 97.755429 268.396207 
L 97.755429 267.342835 
L 98.43941 267.342835 
L 98.43941 264.709405 
L 98.771596 264.709405 
L 98.771596 264.182719 
L 101.785851 264.182719 
L 101.785851 262.60266 
L 105.057436 262.60266 
L 105.057436 260.495916 
L 106.593963 260.495916 
L 106.593963 259.442544 
L 108.389302 259.442544 
L 108.389302 258.915858 
L 108.764355 258.915858 
L 108.764355 258.389172 
L 111.346294 258.389172 
L 111.346294 257.862486 
L 116.202531 257.862486 
L 116.202531 256.282427 
L 123.907776 256.282427 
L 123.907776 255.755741 
L 130.664567 255.755741 
L 130.664567 255.229055 
L 132.374684 255.229055 
L 132.374684 254.702369 
L 134.994383 254.702369 
L 134.994383 254.175683 
L 138.118883 254.175683 
L 138.118883 253.648997 
L 152.542024 253.648997 
L 152.542024 253.122311 
L 154.290278 253.122311 
L 154.290278 252.595625 
L 154.587699 252.595625 
L 154.587699 251.542253 
L 155.232454 251.542253 
L 155.232454 251.015567 
L 155.691409 251.015567 
L 155.691409 250.488881 
L 157.392398 250.488881 
L 157.392398 249.962195 
L 158.107956 249.962195 
L 158.107956 249.435508 
L 161.238149 249.435508 
L 161.238149 248.908822 
L 162.712026 248.908822 
L 162.712026 248.382136 
L 168.306117 248.382136 
L 168.306117 247.85545 
L 170.634045 247.85545 
L 170.634045 247.328764 
L 172.308321 247.328764 
L 172.308321 246.802078 
L 175.415753 246.802078 
L 175.440098 245.748706 
L 176.120024 245.748706 
L 176.120024 245.22202 
L 176.317781 245.22202 
L 176.317781 244.695334 
L 179.597938 244.695334 
L 179.597938 244.168648 
L 182.03848 244.168648 
L 182.03848 243.641962 
L 182.376797 243.641962 
L 182.376797 243.115275 
L 183.538528 243.115275 
L 183.538528 242.588589 
L 183.678135 242.588589 
L 183.678135 242.061903 
L 184.594129 242.061903 
L 184.594129 241.535217 
L 185.848096 241.535217 
L 185.848096 241.008531 
L 187.461055 241.008531 
L 187.461055 239.955159 
L 188.345904 239.955159 
L 188.345904 239.428473 
L 189.002707 239.428473 
L 189.002707 238.375101 
L 190.625681 238.375101 
L 190.625681 237.848415 
L 191.653951 237.848415 
L 191.653951 237.321729 
L 193.751687 237.321729 
L 193.751687 236.795043 
L 194.919176 236.795043 
L 194.919176 236.268356 
L 195.088209 236.268356 
L 195.088209 235.74167 
L 195.612495 235.74167 
L 195.612495 235.214984 
L 198.024041 235.214984 
L 198.024041 234.161612 
L 199.018004 234.161612 
L 199.018004 233.634926 
L 201.873919 233.634926 
L 201.873919 233.10824 
L 204.653812 233.10824 
L 204.653812 232.581554 
L 206.300344 232.581554 
L 206.300344 232.054868 
L 206.627524 232.054868 
L 206.73164 231.001496 
L 210.034116 231.001496 
L 210.137554 229.948123 
L 213.19265 229.948123 
L 213.302133 228.894751 
L 216.301171 228.894751 
L 216.301171 228.368065 
L 217.109597 228.368065 
L 217.109597 227.841379 
L 218.215435 227.841379 
L 218.215435 227.314693 
L 222.873189 227.314693 
L 222.873189 226.788007 
L 225.458892 226.788007 
L 225.458892 226.261321 
L 226.731924 226.261321 
L 226.731924 225.734635 
L 228.773506 225.734635 
L 228.773506 225.207949 
L 229.375856 225.207949 
L 229.375856 223.627891 
L 230.306563 223.627891 
L 230.306563 223.101204 
L 236.129762 223.101204 
L 236.129762 222.574518 
L 241.937018 222.574518 
L 241.937018 222.047832 
L 242.12624 222.047832 
L 242.12624 220.99446 
L 245.105589 220.99446 
L 245.105589 220.467774 
L 245.921594 220.467774 
L 245.921594 219.414402 
L 249.162952 219.414402 
L 249.162952 218.887716 
L 254.11413 218.887716 
L 254.11413 218.36103 
L 254.256864 218.36103 
L 254.256864 217.834344 
L 258.080539 217.834344 
L 258.080539 217.307658 
L 259.769853 217.307658 
L 259.769853 216.780971 
L 261.40449 216.780971 
L 261.40449 216.254285 
L 272.823231 216.254285 
L 272.823231 215.727599 
L 274.2837 215.727599 
L 274.2837 215.200913 
L 283.360632 215.200913 
L 283.360632 214.674227 
L 338.688 214.674227 
L 338.688 214.674227 
" style="fill:none;stroke:#ff7500;stroke-linecap:square;stroke-width:1.5;"/>
   </g>
   <g id="line2d_46">
    <defs>
     <path d="M 0 -6 
L -1.347084 -1.854102 
L -5.706339 -1.854102 
L -2.179628 0.708204 
L -3.526712 4.854102 
L -0 2.291796 
L 3.526712 4.854102 
L 2.179628 0.708204 
L 5.706339 -1.854102 
L 1.347084 -1.854102 
z
" id="m20510602cb" style="stroke:#ff7500;stroke-linejoin:bevel;stroke-width:1.5;"/>
    </defs>
    <g>
     <use style="fill-opacity:0;stroke:#ff7500;stroke-linejoin:bevel;stroke-width:1.5;" x="105.057436" xlink:href="#m20510602cb" y="260.495916"/>
     <use style="fill-opacity:0;stroke:#ff7500;stroke-linejoin:bevel;stroke-width:1.5;" x="162.712026" xlink:href="#m20510602cb" y="248.382136"/>
     <use style="fill-opacity:0;stroke:#ff7500;stroke-linejoin:bevel;stroke-width:1.5;" x="230.306563" xlink:href="#m20510602cb" y="223.627891"/>
     <use style="fill-opacity:0;stroke:#ff7500;stroke-linejoin:bevel;stroke-width:1.5;" x="283.360632" xlink:href="#m20510602cb" y="215.200913"/>
     <use style="fill-opacity:0;stroke:#ff7500;stroke-linejoin:bevel;stroke-width:1.5;" x="283.360632" xlink:href="#m20510602cb" y="214.674227"/>
     <use style="fill-opacity:0;stroke:#ff7500;stroke-linejoin:bevel;stroke-width:1.5;" x="338.688" xlink:href="#m20510602cb" y="214.674227"/>
    </g>
   </g>
   <g id="line2d_47">
    <path style="fill:none;stroke:#ff7500;stroke-linecap:square;stroke-width:1.5;"/>
    <g/>
   </g>
   <g id="line2d_48">
    <path clip-path="url(#p752c8ca1f1)" d="M 218.221714 227.314693 
" style="fill:none;stroke:#ff7500;stroke-linecap:square;stroke-width:1.5;"/>
    <defs>
     <path d="M -12 12 
L 12 -12 
M -12 -12 
L 12 12 
" id="ma7cd888b57" style="stroke:#ff7500;"/>
    </defs>
    <g clip-path="url(#p752c8ca1f1)">
     <use style="fill:#ff7500;stroke:#ff7500;" x="218.221714" xlink:href="#ma7cd888b57" y="227.314693"/>
    </g>
   </g>
   <g id="line2d_49">
    <path d="M 338.688 214.674227 
L 369.60768 293.571802 
" style="fill:none;stroke:#ff7500;stroke-linecap:square;stroke-width:1.5;"/>
    <g>
     <use style="fill-opacity:0;stroke:#ff7500;stroke-linejoin:bevel;stroke-width:1.5;" x="338.688" xlink:href="#m20510602cb" y="214.674227"/>
     <use style="fill-opacity:0;stroke:#ff7500;stroke-linejoin:bevel;stroke-width:1.5;" x="369.60768" xlink:href="#m20510602cb" y="293.571802"/>
    </g>
   </g>
   <g id="line2d_50">
    <path d="M 338.688 209.407366 
L 369.60768 207.616634 
" style="fill:none;stroke:#000080;stroke-linecap:square;stroke-width:1.5;"/>
    <g>
     <use style="fill-opacity:0;stroke:#000080;stroke-width:1.5;" x="338.688" xlink:href="#mfa3d6f905c" y="209.407366"/>
     <use style="fill-opacity:0;stroke:#000080;stroke-width:1.5;" x="369.60768" xlink:href="#mfa3d6f905c" y="207.616634"/>
    </g>
   </g>
   <g id="line2d_51">
    <path d="M 338.688 167.27248 
L 369.60768 121.661465 
" style="fill:none;stroke:#ff00ff;stroke-linecap:square;stroke-width:1.5;"/>
    <g>
     <use style="fill-opacity:0;stroke:#ff00ff;stroke-linejoin:miter;stroke-width:1.5;" x="338.688" xlink:href="#mfb062b3a9e" y="167.27248"/>
     <use style="fill-opacity:0;stroke:#ff00ff;stroke-linejoin:miter;stroke-width:1.5;" x="369.60768" xlink:href="#mfb062b3a9e" y="121.661465"/>
    </g>
   </g>
   <g id="line2d_52">
    <path d="M 338.688 298.944 
L 338.688 30.334099 
" style="fill:none;stroke:#000000;stroke-linecap:square;stroke-width:1.5;"/>
   </g>
   <g id="patch_3">
    <path d="M 57.6 298.944 
L 57.6 27.648 
" style="fill:none;stroke:#000000;stroke-linecap:square;stroke-linejoin:miter;stroke-width:0.8;"/>
   </g>
   <g id="patch_4">
    <path d="M 338.688 298.944 
L 338.688 27.648 
" style="fill:none;stroke:#000000;stroke-linecap:square;stroke-linejoin:miter;stroke-width:0.8;"/>
   </g>
   <g id="patch_5">
    <path d="M 57.6 298.944 
L 338.688 298.944 
" style="fill:none;stroke:#000000;stroke-linecap:square;stroke-linejoin:miter;stroke-width:0.8;"/>
   </g>
   <g id="patch_6">
    <path d="M 57.6 27.648 
L 338.688 27.648 
" style="fill:none;stroke:#000000;stroke-linecap:square;stroke-linejoin:miter;stroke-width:0.8;"/>
   </g>
   <g id="text_13">
    <!-- PSO EDA -->
    <g transform="translate(375.22944 298.262739)scale(0.17 -0.17)">
     <defs>
      <path d="M 1259 4147 
L 1259 2394 
L 2053 2394 
Q 2494 2394 2734 2622 
Q 2975 2850 2975 3272 
Q 2975 3691 2734 3919 
Q 2494 4147 2053 4147 
L 1259 4147 
z
M 628 4666 
L 2053 4666 
Q 2838 4666 3239 4311 
Q 3641 3956 3641 3272 
Q 3641 2581 3239 2228 
Q 2838 1875 2053 1875 
L 1259 1875 
L 1259 0 
L 628 0 
L 628 4666 
z
" id="DejaVuSans-50" transform="scale(0.015625)"/>
      <path d="M 3425 4513 
L 3425 3897 
Q 3066 4069 2747 4153 
Q 2428 4238 2131 4238 
Q 1616 4238 1336 4038 
Q 1056 3838 1056 3469 
Q 1056 3159 1242 3001 
Q 1428 2844 1947 2747 
L 2328 2669 
Q 3034 2534 3370 2195 
Q 3706 1856 3706 1288 
Q 3706 609 3251 259 
Q 2797 -91 1919 -91 
Q 1588 -91 1214 -16 
Q 841 59 441 206 
L 441 856 
Q 825 641 1194 531 
Q 1563 422 1919 422 
Q 2459 422 2753 634 
Q 3047 847 3047 1241 
Q 3047 1584 2836 1778 
Q 2625 1972 2144 2069 
L 1759 2144 
Q 1053 2284 737 2584 
Q 422 2884 422 3419 
Q 422 4038 858 4394 
Q 1294 4750 2059 4750 
Q 2388 4750 2728 4690 
Q 3069 4631 3425 4513 
z
" id="DejaVuSans-53" transform="scale(0.015625)"/>
      <path d="M 2522 4238 
Q 1834 4238 1429 3725 
Q 1025 3213 1025 2328 
Q 1025 1447 1429 934 
Q 1834 422 2522 422 
Q 3209 422 3611 934 
Q 4013 1447 4013 2328 
Q 4013 3213 3611 3725 
Q 3209 4238 2522 4238 
z
M 2522 4750 
Q 3503 4750 4090 4092 
Q 4678 3434 4678 2328 
Q 4678 1225 4090 567 
Q 3503 -91 2522 -91 
Q 1538 -91 948 565 
Q 359 1222 359 2328 
Q 359 3434 948 4092 
Q 1538 4750 2522 4750 
z
" id="DejaVuSans-4f" transform="scale(0.015625)"/>
      <path d="M 628 4666 
L 3578 4666 
L 3578 4134 
L 1259 4134 
L 1259 2753 
L 3481 2753 
L 3481 2222 
L 1259 2222 
L 1259 531 
L 3634 531 
L 3634 0 
L 628 0 
L 628 4666 
z
" id="DejaVuSans-45" transform="scale(0.015625)"/>
      <path d="M 1259 4147 
L 1259 519 
L 2022 519 
Q 2988 519 3436 956 
Q 3884 1394 3884 2338 
Q 3884 3275 3436 3711 
Q 2988 4147 2022 4147 
L 1259 4147 
z
M 628 4666 
L 1925 4666 
Q 3281 4666 3915 4102 
Q 4550 3538 4550 2338 
Q 4550 1131 3912 565 
Q 3275 0 1925 0 
L 628 0 
L 628 4666 
z
" id="DejaVuSans-44" transform="scale(0.015625)"/>
      <path d="M 2188 4044 
L 1331 1722 
L 3047 1722 
L 2188 4044 
z
M 1831 4666 
L 2547 4666 
L 4325 0 
L 3669 0 
L 3244 1197 
L 1141 1197 
L 716 0 
L 50 0 
L 1831 4666 
z
" id="DejaVuSans-41" transform="scale(0.015625)"/>
     </defs>
     <use xlink:href="#DejaVuSans-50"/>
     <use x="60.302734" xlink:href="#DejaVuSans-53"/>
     <use x="123.779297" xlink:href="#DejaVuSans-4f"/>
     <use x="202.490234" xlink:href="#DejaVuSans-20"/>
     <use x="234.277344" xlink:href="#DejaVuSans-45"/>
     <use x="297.460938" xlink:href="#DejaVuSans-44"/>
     <use x="372.712891" xlink:href="#DejaVuSans-41"/>
    </g>
   </g>
   <g id="text_14">
    <!-- PSO -->
    <g transform="translate(375.22944 212.307571)scale(0.17 -0.17)">
     <use xlink:href="#DejaVuSans-50"/>
     <use x="60.302734" xlink:href="#DejaVuSans-53"/>
     <use x="123.779297" xlink:href="#DejaVuSans-4f"/>
    </g>
   </g>
   <g id="text_15">
    <!-- PSO Bound -->
    <g transform="translate(375.22944 126.352403)scale(0.17 -0.17)">
     <defs>
      <path d="M 1259 2228 
L 1259 519 
L 2272 519 
Q 2781 519 3026 730 
Q 3272 941 3272 1375 
Q 3272 1813 3026 2020 
Q 2781 2228 2272 2228 
L 1259 2228 
z
M 1259 4147 
L 1259 2741 
L 2194 2741 
Q 2656 2741 2882 2914 
Q 3109 3088 3109 3444 
Q 3109 3797 2882 3972 
Q 2656 4147 2194 4147 
L 1259 4147 
z
M 628 4666 
L 2241 4666 
Q 2963 4666 3353 4366 
Q 3744 4066 3744 3513 
Q 3744 3084 3544 2831 
Q 3344 2578 2956 2516 
Q 3422 2416 3680 2098 
Q 3938 1781 3938 1306 
Q 3938 681 3513 340 
Q 3088 0 2303 0 
L 628 0 
L 628 4666 
z
" id="DejaVuSans-42" transform="scale(0.015625)"/>
     </defs>
     <use xlink:href="#DejaVuSans-50"/>
     <use x="60.302734" xlink:href="#DejaVuSans-53"/>
     <use x="123.779297" xlink:href="#DejaVuSans-4f"/>
     <use x="202.490234" xlink:href="#DejaVuSans-20"/>
     <use x="234.277344" xlink:href="#DejaVuSans-42"/>
     <use x="302.880859" xlink:href="#DejaVuSans-6f"/>
     <use x="364.0625" xlink:href="#DejaVuSans-75"/>
     <use x="427.441406" xlink:href="#DejaVuSans-6e"/>
     <use x="490.820312" xlink:href="#DejaVuSans-64"/>
    </g>
   </g>
   <g id="text_16">
    <!-- best 2009 -->
    <g transform="translate(375.22944 40.397235)scale(0.17 -0.17)">
     <defs>
      <path d="M 3116 1747 
Q 3116 2381 2855 2742 
Q 2594 3103 2138 3103 
Q 1681 3103 1420 2742 
Q 1159 2381 1159 1747 
Q 1159 1113 1420 752 
Q 1681 391 2138 391 
Q 2594 391 2855 752 
Q 3116 1113 3116 1747 
z
M 1159 2969 
Q 1341 3281 1617 3432 
Q 1894 3584 2278 3584 
Q 2916 3584 3314 3078 
Q 3713 2572 3713 1747 
Q 3713 922 3314 415 
Q 2916 -91 2278 -91 
Q 1894 -91 1617 61 
Q 1341 213 1159 525 
L 1159 0 
L 581 0 
L 581 4863 
L 1159 4863 
L 1159 2969 
z
" id="DejaVuSans-62" transform="scale(0.015625)"/>
      <path d="M 703 97 
L 703 672 
Q 941 559 1184 500 
Q 1428 441 1663 441 
Q 2288 441 2617 861 
Q 2947 1281 2994 2138 
Q 2813 1869 2534 1725 
Q 2256 1581 1919 1581 
Q 1219 1581 811 2004 
Q 403 2428 403 3163 
Q 403 3881 828 4315 
Q 1253 4750 1959 4750 
Q 2769 4750 3195 4129 
Q 3622 3509 3622 2328 
Q 3622 1225 3098 567 
Q 2575 -91 1691 -91 
Q 1453 -91 1209 -44 
Q 966 3 703 97 
z
M 1959 2075 
Q 2384 2075 2632 2365 
Q 2881 2656 2881 3163 
Q 2881 3666 2632 3958 
Q 2384 4250 1959 4250 
Q 1534 4250 1286 3958 
Q 1038 3666 1038 3163 
Q 1038 2656 1286 2365 
Q 1534 2075 1959 2075 
z
" id="DejaVuSans-39" transform="scale(0.015625)"/>
     </defs>
     <use xlink:href="#DejaVuSans-62"/>
     <use x="63.476562" xlink:href="#DejaVuSans-65"/>
     <use x="125" xlink:href="#DejaVuSans-73"/>
     <use x="177.099609" xlink:href="#DejaVuSans-74"/>
     <use x="216.308594" xlink:href="#DejaVuSans-20"/>
     <use x="248.095703" xlink:href="#DejaVuSans-32"/>
     <use x="311.71875" xlink:href="#DejaVuSans-30"/>
     <use x="375.341797" xlink:href="#DejaVuSans-30"/>
     <use x="438.964844" xlink:href="#DejaVuSans-39"/>
    </g>
   </g>
   <g id="text_17">
    <!-- bbob f19, 5-D -->
    <g transform="translate(60.41088 38.111366)scale(0.102 -0.102)">
     <defs>
      <path d="M 691 4666 
L 3169 4666 
L 3169 4134 
L 1269 4134 
L 1269 2991 
Q 1406 3038 1543 3061 
Q 1681 3084 1819 3084 
Q 2600 3084 3056 2656 
Q 3513 2228 3513 1497 
Q 3513 744 3044 326 
Q 2575 -91 1722 -91 
Q 1428 -91 1123 -41 
Q 819 9 494 109 
L 494 744 
Q 775 591 1075 516 
Q 1375 441 1709 441 
Q 2250 441 2565 725 
Q 2881 1009 2881 1497 
Q 2881 1984 2565 2268 
Q 2250 2553 1709 2553 
Q 1456 2553 1204 2497 
Q 953 2441 691 2322 
L 691 4666 
z
" id="DejaVuSans-35" transform="scale(0.015625)"/>
     </defs>
     <use xlink:href="#DejaVuSans-62"/>
     <use x="63.476562" xlink:href="#DejaVuSans-62"/>
     <use x="126.953125" xlink:href="#DejaVuSans-6f"/>
     <use x="188.134766" xlink:href="#DejaVuSans-62"/>
     <use x="251.611328" xlink:href="#DejaVuSans-20"/>
     <use x="283.398438" xlink:href="#DejaVuSans-66"/>
     <use x="318.603516" xlink:href="#DejaVuSans-31"/>
     <use x="382.226562" xlink:href="#DejaVuSans-39"/>
     <use x="445.849609" xlink:href="#DejaVuSans-2c"/>
     <use x="477.636719" xlink:href="#DejaVuSans-20"/>
     <use x="509.423828" xlink:href="#DejaVuSans-35"/>
     <use x="573.046875" xlink:href="#DejaVuSans-2d"/>
     <use x="609.130859" xlink:href="#DejaVuSans-44"/>
    </g>
    <!-- 51 targets: 100..1e-08 -->
    <g transform="translate(60.41088 49.533135)scale(0.102 -0.102)">
     <defs>
      <path d="M 750 794 
L 1409 794 
L 1409 0 
L 750 0 
L 750 794 
z
M 750 3309 
L 1409 3309 
L 1409 2516 
L 750 2516 
L 750 3309 
z
" id="DejaVuSans-3a" transform="scale(0.015625)"/>
     </defs>
     <use xlink:href="#DejaVuSans-35"/>
     <use x="63.623047" xlink:href="#DejaVuSans-31"/>
     <use x="127.246094" xlink:href="#DejaVuSans-20"/>
     <use x="159.033203" xlink:href="#DejaVuSans-74"/>
     <use x="198.242188" xlink:href="#DejaVuSans-61"/>
     <use x="259.521484" xlink:href="#DejaVuSans-72"/>
     <use x="298.884766" xlink:href="#DejaVuSans-67"/>
     <use x="362.361328" xlink:href="#DejaVuSans-65"/>
     <use x="423.884766" xlink:href="#DejaVuSans-74"/>
     <use x="463.09375" xlink:href="#DejaVuSans-73"/>
     <use x="515.193359" xlink:href="#DejaVuSans-3a"/>
     <use x="548.884766" xlink:href="#DejaVuSans-20"/>
     <use x="580.671875" xlink:href="#DejaVuSans-31"/>
     <use x="644.294922" xlink:href="#DejaVuSans-30"/>
     <use x="707.917969" xlink:href="#DejaVuSans-30"/>
     <use x="771.541016" xlink:href="#DejaVuSans-2e"/>
     <use x="803.328125" xlink:href="#DejaVuSans-2e"/>
     <use x="835.115234" xlink:href="#DejaVuSans-31"/>
     <use x="898.738281" xlink:href="#DejaVuSans-65"/>
     <use x="960.261719" xlink:href="#DejaVuSans-2d"/>
     <use x="996.345703" xlink:href="#DejaVuSans-30"/>
     <use x="1059.96875" xlink:href="#DejaVuSans-38"/>
    </g>
    <!-- 15 instances -->
    <g transform="translate(60.41088 60.954904)scale(0.102 -0.102)">
     <use xlink:href="#DejaVuSans-31"/>
     <use x="63.623047" xlink:href="#DejaVuSans-35"/>
     <use x="127.246094" xlink:href="#DejaVuSans-20"/>
     <use x="159.033203" xlink:href="#DejaVuSans-69"/>
     <use x="186.816406" xlink:href="#DejaVuSans-6e"/>
     <use x="250.195312" xlink:href="#DejaVuSans-73"/>
     <use x="302.294922" xlink:href="#DejaVuSans-74"/>
     <use x="341.503906" xlink:href="#DejaVuSans-61"/>
     <use x="402.783203" xlink:href="#DejaVuSans-6e"/>
     <use x="466.162109" xlink:href="#DejaVuSans-63"/>
     <use x="521.142578" xlink:href="#DejaVuSans-65"/>
     <use x="582.666016" xlink:href="#DejaVuSans-73"/>
    </g>
   </g>
   <g id="text_18">
    <!-- v2.4 -->
    <g style="fill:#808080;" transform="translate(187.233062 294.151352)scale(0.1 -0.1)">
     <use xlink:href="#DejaVuSans-76"/>
     <use x="59.179688" xlink:href="#DejaVuSans-32"/>
     <use x="122.802734" xlink:href="#DejaVuSans-2e"/>
     <use x="154.589844" xlink:href="#DejaVuSans-34"/>
    </g>
   </g>
   <g id="text_19">
    <!-- 19 Griewank-Rosenbrock F8F2 -->
    <g transform="translate(46.042437 21.648)scale(0.2 -0.2)">
     <defs>
      <path d="M 3809 666 
L 3809 1919 
L 2778 1919 
L 2778 2438 
L 4434 2438 
L 4434 434 
Q 4069 175 3628 42 
Q 3188 -91 2688 -91 
Q 1594 -91 976 548 
Q 359 1188 359 2328 
Q 359 3472 976 4111 
Q 1594 4750 2688 4750 
Q 3144 4750 3555 4637 
Q 3966 4525 4313 4306 
L 4313 3634 
Q 3963 3931 3569 4081 
Q 3175 4231 2741 4231 
Q 1884 4231 1454 3753 
Q 1025 3275 1025 2328 
Q 1025 1384 1454 906 
Q 1884 428 2741 428 
Q 3075 428 3337 486 
Q 3600 544 3809 666 
z
" id="DejaVuSans-47" transform="scale(0.015625)"/>
      <path d="M 269 3500 
L 844 3500 
L 1563 769 
L 2278 3500 
L 2956 3500 
L 3675 769 
L 4391 3500 
L 4966 3500 
L 4050 0 
L 3372 0 
L 2619 2869 
L 1863 0 
L 1184 0 
L 269 3500 
z
" id="DejaVuSans-77" transform="scale(0.015625)"/>
      <path d="M 581 4863 
L 1159 4863 
L 1159 1991 
L 2875 3500 
L 3609 3500 
L 1753 1863 
L 3688 0 
L 2938 0 
L 1159 1709 
L 1159 0 
L 581 0 
L 581 4863 
z
" id="DejaVuSans-6b" transform="scale(0.015625)"/>
      <path d="M 2841 2188 
Q 3044 2119 3236 1894 
Q 3428 1669 3622 1275 
L 4263 0 
L 3584 0 
L 2988 1197 
Q 2756 1666 2539 1819 
Q 2322 1972 1947 1972 
L 1259 1972 
L 1259 0 
L 628 0 
L 628 4666 
L 2053 4666 
Q 2853 4666 3247 4331 
Q 3641 3997 3641 3322 
Q 3641 2881 3436 2590 
Q 3231 2300 2841 2188 
z
M 1259 4147 
L 1259 2491 
L 2053 2491 
Q 2509 2491 2742 2702 
Q 2975 2913 2975 3322 
Q 2975 3731 2742 3939 
Q 2509 4147 2053 4147 
L 1259 4147 
z
" id="DejaVuSans-52" transform="scale(0.015625)"/>
     </defs>
     <use xlink:href="#DejaVuSans-31"/>
     <use x="63.623047" xlink:href="#DejaVuSans-39"/>
     <use x="127.246094" xlink:href="#DejaVuSans-20"/>
     <use x="159.033203" xlink:href="#DejaVuSans-47"/>
     <use x="236.523438" xlink:href="#DejaVuSans-72"/>
     <use x="277.636719" xlink:href="#DejaVuSans-69"/>
     <use x="305.419922" xlink:href="#DejaVuSans-65"/>
     <use x="366.943359" xlink:href="#DejaVuSans-77"/>
     <use x="448.730469" xlink:href="#DejaVuSans-61"/>
     <use x="510.009766" xlink:href="#DejaVuSans-6e"/>
     <use x="573.388672" xlink:href="#DejaVuSans-6b"/>
     <use x="631.298828" xlink:href="#DejaVuSans-2d"/>
     <use x="667.382812" xlink:href="#DejaVuSans-52"/>
     <use x="732.365234" xlink:href="#DejaVuSans-6f"/>
     <use x="793.546875" xlink:href="#DejaVuSans-73"/>
     <use x="845.646484" xlink:href="#DejaVuSans-65"/>
     <use x="907.169922" xlink:href="#DejaVuSans-6e"/>
     <use x="970.548828" xlink:href="#DejaVuSans-62"/>
     <use x="1034.025391" xlink:href="#DejaVuSans-72"/>
     <use x="1072.888672" xlink:href="#DejaVuSans-6f"/>
     <use x="1134.070312" xlink:href="#DejaVuSans-63"/>
     <use x="1189.050781" xlink:href="#DejaVuSans-6b"/>
     <use x="1246.960938" xlink:href="#DejaVuSans-20"/>
     <use x="1278.748047" xlink:href="#DejaVuSans-46"/>
     <use x="1336.267578" xlink:href="#DejaVuSans-38"/>
     <use x="1399.890625" xlink:href="#DejaVuSans-46"/>
     <use x="1457.410156" xlink:href="#DejaVuSans-32"/>
    </g>
   </g>
  </g>
 </g>
 <defs>
  <clipPath id="p752c8ca1f1">
   <rect height="271.296" width="281.088" x="57.6" y="27.648"/>
  </clipPath>
 </defs>
</svg>
