<?xml version="1.0" encoding="utf-8" standalone="no"?>
<!DOCTYPE svg PUBLIC "-//W3C//DTD SVG 1.1//EN"
  "http://www.w3.org/Graphics/SVG/1.1/DTD/svg11.dtd">
<svg height="345.6pt" version="1.1" viewBox="0 0 460.8 345.6" width="460.8pt" xmlns="http://www.w3.org/2000/svg" xmlns:xlink="http://www.w3.org/1999/xlink">
 <metadata>
  <rdf:RDF xmlns:cc="http://creativecommons.org/ns#" xmlns:dc="http://purl.org/dc/elements/1.1/" xmlns:rdf="http://www.w3.org/1999/02/22-rdf-syntax-ns#">
   <cc:Work>
    <dc:type rdf:resource="http://purl.org/dc/dcmitype/StillImage"/>
    <dc:date>2021-04-25T03:19:00.981713</dc:date>
    <dc:format>image/svg+xml</dc:format>
    <dc:creator>
     <cc:Agent>
      <dc:title>Matplotlib v3.4.1, https://matplotlib.org/</dc:title>
     </cc:Agent>
    </dc:creator>
   </cc:Work>
  </rdf:RDF>
 </metadata>
 <defs>
  <style type="text/css">*{stroke-linecap:butt;stroke-linejoin:round;}</style>
 </defs>
 <g id="figure_1">
  <g id="patch_1">
   <path d="M 0 345.6 
L 460.8 345.6 
L 460.8 0 
L 0 0 
z
" style="fill:#ffffff;"/>
  </g>
  <g id="axes_1">
   <g id="patch_2">
    <path d="M 57.6 298.944 
L 338.688 298.944 
L 338.688 27.648 
L 57.6 27.648 
z
" style="fill:#ffffff;"/>
   </g>
   <g id="line2d_1">
    <path d="M 45.512012 298.944 
L 45.512012 272.609696 
L 57.6 272.609696 
L 57.6 267.342835 
L 64.67102 267.342835 
L 64.67102 262.075974 
L 73.579452 262.075974 
L 73.579452 256.809114 
L 81.775977 256.809114 
L 81.775977 251.542253 
L 104.826449 251.542253 
L 104.826449 246.275392 
L 114.080224 246.275392 
L 114.080224 241.008531 
L 119.602714 241.008531 
L 119.602714 235.74167 
L 126.673734 235.74167 
L 126.673734 230.47481 
L 127.954256 230.47481 
L 127.954256 225.207949 
L 131.565689 225.207949 
L 131.565689 219.941088 
L 135.482227 219.941088 
L 135.482227 214.674227 
L 136.831795 214.674227 
L 136.831795 204.140506 
L 137.647286 204.140506 
L 137.647286 198.873645 
L 140.11924 198.873645 
L 140.11924 193.606784 
L 143.527762 193.606784 
L 143.527762 188.339923 
L 143.778691 188.339923 
L 143.778691 177.806202 
L 144.390658 177.806202 
L 144.390658 162.005619 
L 144.570138 162.005619 
L 144.570138 156.738758 
L 144.923649 156.738758 
L 144.923649 146.205037 
L 145.327221 146.205037 
L 145.327221 140.938176 
L 145.384119 140.938176 
L 145.384119 135.671315 
L 146.107383 135.671315 
L 146.107383 130.404454 
L 146.161795 130.404454 
L 146.161795 125.137593 
L 146.216039 125.137593 
L 146.216039 119.870733 
L 146.270114 119.870733 
L 146.270114 114.603872 
L 146.324022 114.603872 
L 146.324022 104.07015 
L 146.377764 104.07015 
L 146.377764 93.536429 
L 146.431341 93.536429 
L 146.431341 83.002707 
L 146.484754 83.002707 
L 146.484754 77.735846 
L 146.538004 77.735846 
L 146.538004 72.468985 
L 146.591092 72.468985 
L 146.591092 61.935264 
L 146.644018 61.935264 
L 146.644018 56.668403 
L 146.696785 56.668403 
L 146.696785 51.401542 
L 146.749392 51.401542 
L 146.749392 35.60096 
L 146.906268 35.60096 
L 146.906268 30.334099 
L 338.688 30.334099 
" style="fill:none;stroke:#f5deb3;stroke-linecap:square;stroke-width:4;"/>
   </g>
   <g id="line2d_2">
    <defs>
     <path d="M 0 7.778175 
L 7.778175 0 
L 0 -7.778175 
L -7.778175 0 
z
" id="m6d875959b4" style="stroke:#f5deb3;stroke-linejoin:miter;stroke-width:1.5;"/>
    </defs>
    <g>
     <use style="fill:#f5deb3;stroke:#f5deb3;stroke-linejoin:miter;stroke-width:1.5;" x="104.826449" xlink:href="#m6d875959b4" y="246.275392"/>
     <use style="fill:#f5deb3;stroke:#f5deb3;stroke-linejoin:miter;stroke-width:1.5;" x="146.161795" xlink:href="#m6d875959b4" y="130.404454"/>
     <use style="fill:#f5deb3;stroke:#f5deb3;stroke-linejoin:miter;stroke-width:1.5;" x="146.906268" xlink:href="#m6d875959b4" y="35.60096"/>
     <use style="fill:#f5deb3;stroke:#f5deb3;stroke-linejoin:miter;stroke-width:1.5;" x="146.906268" xlink:href="#m6d875959b4" y="30.334099"/>
     <use style="fill:#f5deb3;stroke:#f5deb3;stroke-linejoin:miter;stroke-width:1.5;" x="146.906268" xlink:href="#m6d875959b4" y="30.334099"/>
     <use style="fill:#f5deb3;stroke:#f5deb3;stroke-linejoin:miter;stroke-width:1.5;" x="338.688" xlink:href="#m6d875959b4" y="30.334099"/>
    </g>
   </g>
   <g id="line2d_3">
    <path style="fill:none;stroke:#f5deb3;stroke-linecap:square;stroke-width:4;"/>
    <g/>
   </g>
   <g id="line2d_4">
    <path d="M 338.688 30.334099 
L 369.60768 35.706297 
" style="fill:none;stroke:#f5deb3;stroke-linecap:square;stroke-width:4;"/>
    <g>
     <use style="fill:#f5deb3;stroke:#f5deb3;stroke-linejoin:miter;stroke-width:1.5;" x="338.688" xlink:href="#m6d875959b4" y="30.334099"/>
     <use style="fill:#f5deb3;stroke:#f5deb3;stroke-linejoin:miter;stroke-width:1.5;" x="369.60768" xlink:href="#m6d875959b4" y="35.706297"/>
    </g>
   </g>
   <g id="matplotlib.axis_1">
    <g id="xtick_1">
     <g id="line2d_5">
      <path clip-path="url(#p2a016cd819)" d="M 57.6 298.944 
L 57.6 27.648 
" style="fill:none;stroke:#b0b0b0;stroke-linecap:square;stroke-width:0.8;"/>
     </g>
     <g id="line2d_6">
      <defs>
       <path d="M 0 0 
L 0 3.5 
" id="me594d25a4e" style="stroke:#000000;stroke-width:0.8;"/>
      </defs>
      <g>
       <use style="stroke:#000000;stroke-width:0.8;" x="57.6" xlink:href="#me594d25a4e" y="298.944"/>
      </g>
     </g>
     <g id="text_1">
      <!-- 0 -->
      <g transform="translate(51.2375 321.140875)scale(0.2 -0.2)">
       <defs>
        <path d="M 2034 4250 
Q 1547 4250 1301 3770 
Q 1056 3291 1056 2328 
Q 1056 1369 1301 889 
Q 1547 409 2034 409 
Q 2525 409 2770 889 
Q 3016 1369 3016 2328 
Q 3016 3291 2770 3770 
Q 2525 4250 2034 4250 
z
M 2034 4750 
Q 2819 4750 3233 4129 
Q 3647 3509 3647 2328 
Q 3647 1150 3233 529 
Q 2819 -91 2034 -91 
Q 1250 -91 836 529 
Q 422 1150 422 2328 
Q 422 3509 836 4129 
Q 1250 4750 2034 4750 
z
" id="DejaVuSans-30" transform="scale(0.015625)"/>
       </defs>
       <use xlink:href="#DejaVuSans-30"/>
      </g>
     </g>
    </g>
    <g id="xtick_2">
     <g id="line2d_7">
      <path clip-path="url(#p2a016cd819)" d="M 137.910857 298.944 
L 137.910857 27.648 
" style="fill:none;stroke:#b0b0b0;stroke-linecap:square;stroke-width:0.8;"/>
     </g>
     <g id="line2d_8">
      <g>
       <use style="stroke:#000000;stroke-width:0.8;" x="137.910857" xlink:href="#me594d25a4e" y="298.944"/>
      </g>
     </g>
     <g id="text_2">
      <!-- 2 -->
      <g transform="translate(131.548357 321.140875)scale(0.2 -0.2)">
       <defs>
        <path d="M 1228 531 
L 3431 531 
L 3431 0 
L 469 0 
L 469 531 
Q 828 903 1448 1529 
Q 2069 2156 2228 2338 
Q 2531 2678 2651 2914 
Q 2772 3150 2772 3378 
Q 2772 3750 2511 3984 
Q 2250 4219 1831 4219 
Q 1534 4219 1204 4116 
Q 875 4013 500 3803 
L 500 4441 
Q 881 4594 1212 4672 
Q 1544 4750 1819 4750 
Q 2544 4750 2975 4387 
Q 3406 4025 3406 3419 
Q 3406 3131 3298 2873 
Q 3191 2616 2906 2266 
Q 2828 2175 2409 1742 
Q 1991 1309 1228 531 
z
" id="DejaVuSans-32" transform="scale(0.015625)"/>
       </defs>
       <use xlink:href="#DejaVuSans-32"/>
      </g>
     </g>
    </g>
    <g id="xtick_3">
     <g id="line2d_9">
      <path clip-path="url(#p2a016cd819)" d="M 218.221714 298.944 
L 218.221714 27.648 
" style="fill:none;stroke:#b0b0b0;stroke-linecap:square;stroke-width:0.8;"/>
     </g>
     <g id="line2d_10">
      <g>
       <use style="stroke:#000000;stroke-width:0.8;" x="218.221714" xlink:href="#me594d25a4e" y="298.944"/>
      </g>
     </g>
     <g id="text_3">
      <!-- 4 -->
      <g transform="translate(211.859214 321.140875)scale(0.2 -0.2)">
       <defs>
        <path d="M 2419 4116 
L 825 1625 
L 2419 1625 
L 2419 4116 
z
M 2253 4666 
L 3047 4666 
L 3047 1625 
L 3713 1625 
L 3713 1100 
L 3047 1100 
L 3047 0 
L 2419 0 
L 2419 1100 
L 313 1100 
L 313 1709 
L 2253 4666 
z
" id="DejaVuSans-34" transform="scale(0.015625)"/>
       </defs>
       <use xlink:href="#DejaVuSans-34"/>
      </g>
     </g>
    </g>
    <g id="xtick_4">
     <g id="line2d_11">
      <path clip-path="url(#p2a016cd819)" d="M 298.532571 298.944 
L 298.532571 27.648 
" style="fill:none;stroke:#b0b0b0;stroke-linecap:square;stroke-width:0.8;"/>
     </g>
     <g id="line2d_12">
      <g>
       <use style="stroke:#000000;stroke-width:0.8;" x="298.532571" xlink:href="#me594d25a4e" y="298.944"/>
      </g>
     </g>
     <g id="text_4">
      <!-- 6 -->
      <g transform="translate(292.170071 321.140875)scale(0.2 -0.2)">
       <defs>
        <path d="M 2113 2584 
Q 1688 2584 1439 2293 
Q 1191 2003 1191 1497 
Q 1191 994 1439 701 
Q 1688 409 2113 409 
Q 2538 409 2786 701 
Q 3034 994 3034 1497 
Q 3034 2003 2786 2293 
Q 2538 2584 2113 2584 
z
M 3366 4563 
L 3366 3988 
Q 3128 4100 2886 4159 
Q 2644 4219 2406 4219 
Q 1781 4219 1451 3797 
Q 1122 3375 1075 2522 
Q 1259 2794 1537 2939 
Q 1816 3084 2150 3084 
Q 2853 3084 3261 2657 
Q 3669 2231 3669 1497 
Q 3669 778 3244 343 
Q 2819 -91 2113 -91 
Q 1303 -91 875 529 
Q 447 1150 447 2328 
Q 447 3434 972 4092 
Q 1497 4750 2381 4750 
Q 2619 4750 2861 4703 
Q 3103 4656 3366 4563 
z
" id="DejaVuSans-36" transform="scale(0.015625)"/>
       </defs>
       <use xlink:href="#DejaVuSans-36"/>
      </g>
     </g>
    </g>
    <g id="xtick_5">
     <g id="line2d_13">
      <path clip-path="url(#p2a016cd819)" d="M 97.755429 298.944 
L 97.755429 27.648 
" style="fill:none;stroke:#b0b0b0;stroke-linecap:square;stroke-width:0.8;"/>
     </g>
     <g id="line2d_14">
      <defs>
       <path d="M 0 0 
L 0 2 
" id="m65ca2e3f13" style="stroke:#000000;stroke-width:0.6;"/>
      </defs>
      <g>
       <use style="stroke:#000000;stroke-width:0.6;" x="97.755429" xlink:href="#m65ca2e3f13" y="298.944"/>
      </g>
     </g>
    </g>
    <g id="xtick_6">
     <g id="line2d_15">
      <path clip-path="url(#p2a016cd819)" d="M 178.066286 298.944 
L 178.066286 27.648 
" style="fill:none;stroke:#b0b0b0;stroke-linecap:square;stroke-width:0.8;"/>
     </g>
     <g id="line2d_16">
      <g>
       <use style="stroke:#000000;stroke-width:0.6;" x="178.066286" xlink:href="#m65ca2e3f13" y="298.944"/>
      </g>
     </g>
    </g>
    <g id="xtick_7">
     <g id="line2d_17">
      <path clip-path="url(#p2a016cd819)" d="M 258.377143 298.944 
L 258.377143 27.648 
" style="fill:none;stroke:#b0b0b0;stroke-linecap:square;stroke-width:0.8;"/>
     </g>
     <g id="line2d_18">
      <g>
       <use style="stroke:#000000;stroke-width:0.6;" x="258.377143" xlink:href="#m65ca2e3f13" y="298.944"/>
      </g>
     </g>
    </g>
    <g id="xtick_8">
     <g id="line2d_19">
      <path clip-path="url(#p2a016cd819)" d="M 338.688 298.944 
L 338.688 27.648 
" style="fill:none;stroke:#b0b0b0;stroke-linecap:square;stroke-width:0.8;"/>
     </g>
     <g id="line2d_20">
      <g>
       <use style="stroke:#000000;stroke-width:0.6;" x="338.688" xlink:href="#m65ca2e3f13" y="298.944"/>
      </g>
     </g>
    </g>
    <g id="text_5">
     <!-- log10(# f-evals / dimension) -->
     <g transform="translate(77.764078 342.217594)scale(0.17 -0.17)">
      <defs>
       <path d="M 603 4863 
L 1178 4863 
L 1178 0 
L 603 0 
L 603 4863 
z
" id="DejaVuSans-6c" transform="scale(0.015625)"/>
       <path d="M 1959 3097 
Q 1497 3097 1228 2736 
Q 959 2375 959 1747 
Q 959 1119 1226 758 
Q 1494 397 1959 397 
Q 2419 397 2687 759 
Q 2956 1122 2956 1747 
Q 2956 2369 2687 2733 
Q 2419 3097 1959 3097 
z
M 1959 3584 
Q 2709 3584 3137 3096 
Q 3566 2609 3566 1747 
Q 3566 888 3137 398 
Q 2709 -91 1959 -91 
Q 1206 -91 779 398 
Q 353 888 353 1747 
Q 353 2609 779 3096 
Q 1206 3584 1959 3584 
z
" id="DejaVuSans-6f" transform="scale(0.015625)"/>
       <path d="M 2906 1791 
Q 2906 2416 2648 2759 
Q 2391 3103 1925 3103 
Q 1463 3103 1205 2759 
Q 947 2416 947 1791 
Q 947 1169 1205 825 
Q 1463 481 1925 481 
Q 2391 481 2648 825 
Q 2906 1169 2906 1791 
z
M 3481 434 
Q 3481 -459 3084 -895 
Q 2688 -1331 1869 -1331 
Q 1566 -1331 1297 -1286 
Q 1028 -1241 775 -1147 
L 775 -588 
Q 1028 -725 1275 -790 
Q 1522 -856 1778 -856 
Q 2344 -856 2625 -561 
Q 2906 -266 2906 331 
L 2906 616 
Q 2728 306 2450 153 
Q 2172 0 1784 0 
Q 1141 0 747 490 
Q 353 981 353 1791 
Q 353 2603 747 3093 
Q 1141 3584 1784 3584 
Q 2172 3584 2450 3431 
Q 2728 3278 2906 2969 
L 2906 3500 
L 3481 3500 
L 3481 434 
z
" id="DejaVuSans-67" transform="scale(0.015625)"/>
       <path d="M 794 531 
L 1825 531 
L 1825 4091 
L 703 3866 
L 703 4441 
L 1819 4666 
L 2450 4666 
L 2450 531 
L 3481 531 
L 3481 0 
L 794 0 
L 794 531 
z
" id="DejaVuSans-31" transform="scale(0.015625)"/>
       <path d="M 1984 4856 
Q 1566 4138 1362 3434 
Q 1159 2731 1159 2009 
Q 1159 1288 1364 580 
Q 1569 -128 1984 -844 
L 1484 -844 
Q 1016 -109 783 600 
Q 550 1309 550 2009 
Q 550 2706 781 3412 
Q 1013 4119 1484 4856 
L 1984 4856 
z
" id="DejaVuSans-28" transform="scale(0.015625)"/>
       <path d="M 3272 2816 
L 2363 2816 
L 2100 1772 
L 3016 1772 
L 3272 2816 
z
M 2803 4594 
L 2478 3297 
L 3391 3297 
L 3719 4594 
L 4219 4594 
L 3897 3297 
L 4872 3297 
L 4872 2816 
L 3775 2816 
L 3519 1772 
L 4513 1772 
L 4513 1294 
L 3397 1294 
L 3072 0 
L 2572 0 
L 2894 1294 
L 1978 1294 
L 1656 0 
L 1153 0 
L 1478 1294 
L 494 1294 
L 494 1772 
L 1594 1772 
L 1856 2816 
L 850 2816 
L 850 3297 
L 1978 3297 
L 2297 4594 
L 2803 4594 
z
" id="DejaVuSans-23" transform="scale(0.015625)"/>
       <path id="DejaVuSans-20" transform="scale(0.015625)"/>
       <path d="M 2375 4863 
L 2375 4384 
L 1825 4384 
Q 1516 4384 1395 4259 
Q 1275 4134 1275 3809 
L 1275 3500 
L 2222 3500 
L 2222 3053 
L 1275 3053 
L 1275 0 
L 697 0 
L 697 3053 
L 147 3053 
L 147 3500 
L 697 3500 
L 697 3744 
Q 697 4328 969 4595 
Q 1241 4863 1831 4863 
L 2375 4863 
z
" id="DejaVuSans-66" transform="scale(0.015625)"/>
       <path d="M 313 2009 
L 1997 2009 
L 1997 1497 
L 313 1497 
L 313 2009 
z
" id="DejaVuSans-2d" transform="scale(0.015625)"/>
       <path d="M 3597 1894 
L 3597 1613 
L 953 1613 
Q 991 1019 1311 708 
Q 1631 397 2203 397 
Q 2534 397 2845 478 
Q 3156 559 3463 722 
L 3463 178 
Q 3153 47 2828 -22 
Q 2503 -91 2169 -91 
Q 1331 -91 842 396 
Q 353 884 353 1716 
Q 353 2575 817 3079 
Q 1281 3584 2069 3584 
Q 2775 3584 3186 3129 
Q 3597 2675 3597 1894 
z
M 3022 2063 
Q 3016 2534 2758 2815 
Q 2500 3097 2075 3097 
Q 1594 3097 1305 2825 
Q 1016 2553 972 2059 
L 3022 2063 
z
" id="DejaVuSans-65" transform="scale(0.015625)"/>
       <path d="M 191 3500 
L 800 3500 
L 1894 563 
L 2988 3500 
L 3597 3500 
L 2284 0 
L 1503 0 
L 191 3500 
z
" id="DejaVuSans-76" transform="scale(0.015625)"/>
       <path d="M 2194 1759 
Q 1497 1759 1228 1600 
Q 959 1441 959 1056 
Q 959 750 1161 570 
Q 1363 391 1709 391 
Q 2188 391 2477 730 
Q 2766 1069 2766 1631 
L 2766 1759 
L 2194 1759 
z
M 3341 1997 
L 3341 0 
L 2766 0 
L 2766 531 
Q 2569 213 2275 61 
Q 1981 -91 1556 -91 
Q 1019 -91 701 211 
Q 384 513 384 1019 
Q 384 1609 779 1909 
Q 1175 2209 1959 2209 
L 2766 2209 
L 2766 2266 
Q 2766 2663 2505 2880 
Q 2244 3097 1772 3097 
Q 1472 3097 1187 3025 
Q 903 2953 641 2809 
L 641 3341 
Q 956 3463 1253 3523 
Q 1550 3584 1831 3584 
Q 2591 3584 2966 3190 
Q 3341 2797 3341 1997 
z
" id="DejaVuSans-61" transform="scale(0.015625)"/>
       <path d="M 2834 3397 
L 2834 2853 
Q 2591 2978 2328 3040 
Q 2066 3103 1784 3103 
Q 1356 3103 1142 2972 
Q 928 2841 928 2578 
Q 928 2378 1081 2264 
Q 1234 2150 1697 2047 
L 1894 2003 
Q 2506 1872 2764 1633 
Q 3022 1394 3022 966 
Q 3022 478 2636 193 
Q 2250 -91 1575 -91 
Q 1294 -91 989 -36 
Q 684 19 347 128 
L 347 722 
Q 666 556 975 473 
Q 1284 391 1588 391 
Q 1994 391 2212 530 
Q 2431 669 2431 922 
Q 2431 1156 2273 1281 
Q 2116 1406 1581 1522 
L 1381 1569 
Q 847 1681 609 1914 
Q 372 2147 372 2553 
Q 372 3047 722 3315 
Q 1072 3584 1716 3584 
Q 2034 3584 2315 3537 
Q 2597 3491 2834 3397 
z
" id="DejaVuSans-73" transform="scale(0.015625)"/>
       <path d="M 1625 4666 
L 2156 4666 
L 531 -594 
L 0 -594 
L 1625 4666 
z
" id="DejaVuSans-2f" transform="scale(0.015625)"/>
       <path d="M 2906 2969 
L 2906 4863 
L 3481 4863 
L 3481 0 
L 2906 0 
L 2906 525 
Q 2725 213 2448 61 
Q 2172 -91 1784 -91 
Q 1150 -91 751 415 
Q 353 922 353 1747 
Q 353 2572 751 3078 
Q 1150 3584 1784 3584 
Q 2172 3584 2448 3432 
Q 2725 3281 2906 2969 
z
M 947 1747 
Q 947 1113 1208 752 
Q 1469 391 1925 391 
Q 2381 391 2643 752 
Q 2906 1113 2906 1747 
Q 2906 2381 2643 2742 
Q 2381 3103 1925 3103 
Q 1469 3103 1208 2742 
Q 947 2381 947 1747 
z
" id="DejaVuSans-64" transform="scale(0.015625)"/>
       <path d="M 603 3500 
L 1178 3500 
L 1178 0 
L 603 0 
L 603 3500 
z
M 603 4863 
L 1178 4863 
L 1178 4134 
L 603 4134 
L 603 4863 
z
" id="DejaVuSans-69" transform="scale(0.015625)"/>
       <path d="M 3328 2828 
Q 3544 3216 3844 3400 
Q 4144 3584 4550 3584 
Q 5097 3584 5394 3201 
Q 5691 2819 5691 2113 
L 5691 0 
L 5113 0 
L 5113 2094 
Q 5113 2597 4934 2840 
Q 4756 3084 4391 3084 
Q 3944 3084 3684 2787 
Q 3425 2491 3425 1978 
L 3425 0 
L 2847 0 
L 2847 2094 
Q 2847 2600 2669 2842 
Q 2491 3084 2119 3084 
Q 1678 3084 1418 2786 
Q 1159 2488 1159 1978 
L 1159 0 
L 581 0 
L 581 3500 
L 1159 3500 
L 1159 2956 
Q 1356 3278 1631 3431 
Q 1906 3584 2284 3584 
Q 2666 3584 2933 3390 
Q 3200 3197 3328 2828 
z
" id="DejaVuSans-6d" transform="scale(0.015625)"/>
       <path d="M 3513 2113 
L 3513 0 
L 2938 0 
L 2938 2094 
Q 2938 2591 2744 2837 
Q 2550 3084 2163 3084 
Q 1697 3084 1428 2787 
Q 1159 2491 1159 1978 
L 1159 0 
L 581 0 
L 581 3500 
L 1159 3500 
L 1159 2956 
Q 1366 3272 1645 3428 
Q 1925 3584 2291 3584 
Q 2894 3584 3203 3211 
Q 3513 2838 3513 2113 
z
" id="DejaVuSans-6e" transform="scale(0.015625)"/>
       <path d="M 513 4856 
L 1013 4856 
Q 1481 4119 1714 3412 
Q 1947 2706 1947 2009 
Q 1947 1309 1714 600 
Q 1481 -109 1013 -844 
L 513 -844 
Q 928 -128 1133 580 
Q 1338 1288 1338 2009 
Q 1338 2731 1133 3434 
Q 928 4138 513 4856 
z
" id="DejaVuSans-29" transform="scale(0.015625)"/>
      </defs>
      <use xlink:href="#DejaVuSans-6c"/>
      <use x="27.783203" xlink:href="#DejaVuSans-6f"/>
      <use x="88.964844" xlink:href="#DejaVuSans-67"/>
      <use x="152.441406" xlink:href="#DejaVuSans-31"/>
      <use x="216.064453" xlink:href="#DejaVuSans-30"/>
      <use x="279.6875" xlink:href="#DejaVuSans-28"/>
      <use x="318.701172" xlink:href="#DejaVuSans-23"/>
      <use x="402.490234" xlink:href="#DejaVuSans-20"/>
      <use x="434.277344" xlink:href="#DejaVuSans-66"/>
      <use x="463.982422" xlink:href="#DejaVuSans-2d"/>
      <use x="500.066406" xlink:href="#DejaVuSans-65"/>
      <use x="561.589844" xlink:href="#DejaVuSans-76"/>
      <use x="620.769531" xlink:href="#DejaVuSans-61"/>
      <use x="682.048828" xlink:href="#DejaVuSans-6c"/>
      <use x="709.832031" xlink:href="#DejaVuSans-73"/>
      <use x="761.931641" xlink:href="#DejaVuSans-20"/>
      <use x="793.71875" xlink:href="#DejaVuSans-2f"/>
      <use x="827.410156" xlink:href="#DejaVuSans-20"/>
      <use x="859.197266" xlink:href="#DejaVuSans-64"/>
      <use x="922.673828" xlink:href="#DejaVuSans-69"/>
      <use x="950.457031" xlink:href="#DejaVuSans-6d"/>
      <use x="1047.869141" xlink:href="#DejaVuSans-65"/>
      <use x="1109.392578" xlink:href="#DejaVuSans-6e"/>
      <use x="1172.771484" xlink:href="#DejaVuSans-73"/>
      <use x="1224.871094" xlink:href="#DejaVuSans-69"/>
      <use x="1252.654297" xlink:href="#DejaVuSans-6f"/>
      <use x="1313.835938" xlink:href="#DejaVuSans-6e"/>
      <use x="1377.214844" xlink:href="#DejaVuSans-29"/>
     </g>
    </g>
   </g>
   <g id="matplotlib.axis_2">
    <g id="ytick_1">
     <g id="line2d_21">
      <path clip-path="url(#p2a016cd819)" d="M 57.6 298.944 
L 338.688 298.944 
" style="fill:none;stroke:#b0b0b0;stroke-linecap:square;stroke-width:0.8;"/>
     </g>
     <g id="line2d_22">
      <defs>
       <path d="M 0 0 
L -3.5 0 
" id="m01762db068" style="stroke:#000000;stroke-width:0.8;"/>
      </defs>
      <g>
       <use style="stroke:#000000;stroke-width:0.8;" x="57.6" xlink:href="#m01762db068" y="298.944"/>
      </g>
     </g>
     <g id="text_6">
      <!-- 0.0 -->
      <g transform="translate(25.155 305.02275)scale(0.16 -0.16)">
       <defs>
        <path d="M 684 794 
L 1344 794 
L 1344 0 
L 684 0 
L 684 794 
z
" id="DejaVuSans-2e" transform="scale(0.015625)"/>
       </defs>
       <use xlink:href="#DejaVuSans-30"/>
       <use x="63.623047" xlink:href="#DejaVuSans-2e"/>
       <use x="95.410156" xlink:href="#DejaVuSans-30"/>
      </g>
     </g>
    </g>
    <g id="ytick_2">
     <g id="line2d_23">
      <path clip-path="url(#p2a016cd819)" d="M 57.6 245.22202 
L 338.688 245.22202 
" style="fill:none;stroke:#b0b0b0;stroke-linecap:square;stroke-width:0.8;"/>
     </g>
     <g id="line2d_24">
      <g>
       <use style="stroke:#000000;stroke-width:0.8;" x="57.6" xlink:href="#m01762db068" y="245.22202"/>
      </g>
     </g>
     <g id="text_7">
      <!-- 0.2 -->
      <g transform="translate(25.155 251.30077)scale(0.16 -0.16)">
       <use xlink:href="#DejaVuSans-30"/>
       <use x="63.623047" xlink:href="#DejaVuSans-2e"/>
       <use x="95.410156" xlink:href="#DejaVuSans-32"/>
      </g>
     </g>
    </g>
    <g id="ytick_3">
     <g id="line2d_25">
      <path clip-path="url(#p2a016cd819)" d="M 57.6 191.50004 
L 338.688 191.50004 
" style="fill:none;stroke:#b0b0b0;stroke-linecap:square;stroke-width:0.8;"/>
     </g>
     <g id="line2d_26">
      <g>
       <use style="stroke:#000000;stroke-width:0.8;" x="57.6" xlink:href="#m01762db068" y="191.50004"/>
      </g>
     </g>
     <g id="text_8">
      <!-- 0.4 -->
      <g transform="translate(25.155 197.57879)scale(0.16 -0.16)">
       <use xlink:href="#DejaVuSans-30"/>
       <use x="63.623047" xlink:href="#DejaVuSans-2e"/>
       <use x="95.410156" xlink:href="#DejaVuSans-34"/>
      </g>
     </g>
    </g>
    <g id="ytick_4">
     <g id="line2d_27">
      <path clip-path="url(#p2a016cd819)" d="M 57.6 137.778059 
L 338.688 137.778059 
" style="fill:none;stroke:#b0b0b0;stroke-linecap:square;stroke-width:0.8;"/>
     </g>
     <g id="line2d_28">
      <g>
       <use style="stroke:#000000;stroke-width:0.8;" x="57.6" xlink:href="#m01762db068" y="137.778059"/>
      </g>
     </g>
     <g id="text_9">
      <!-- 0.6 -->
      <g transform="translate(25.155 143.856809)scale(0.16 -0.16)">
       <use xlink:href="#DejaVuSans-30"/>
       <use x="63.623047" xlink:href="#DejaVuSans-2e"/>
       <use x="95.410156" xlink:href="#DejaVuSans-36"/>
      </g>
     </g>
    </g>
    <g id="ytick_5">
     <g id="line2d_29">
      <path clip-path="url(#p2a016cd819)" d="M 57.6 84.056079 
L 338.688 84.056079 
" style="fill:none;stroke:#b0b0b0;stroke-linecap:square;stroke-width:0.8;"/>
     </g>
     <g id="line2d_30">
      <g>
       <use style="stroke:#000000;stroke-width:0.8;" x="57.6" xlink:href="#m01762db068" y="84.056079"/>
      </g>
     </g>
     <g id="text_10">
      <!-- 0.8 -->
      <g transform="translate(25.155 90.134829)scale(0.16 -0.16)">
       <defs>
        <path d="M 2034 2216 
Q 1584 2216 1326 1975 
Q 1069 1734 1069 1313 
Q 1069 891 1326 650 
Q 1584 409 2034 409 
Q 2484 409 2743 651 
Q 3003 894 3003 1313 
Q 3003 1734 2745 1975 
Q 2488 2216 2034 2216 
z
M 1403 2484 
Q 997 2584 770 2862 
Q 544 3141 544 3541 
Q 544 4100 942 4425 
Q 1341 4750 2034 4750 
Q 2731 4750 3128 4425 
Q 3525 4100 3525 3541 
Q 3525 3141 3298 2862 
Q 3072 2584 2669 2484 
Q 3125 2378 3379 2068 
Q 3634 1759 3634 1313 
Q 3634 634 3220 271 
Q 2806 -91 2034 -91 
Q 1263 -91 848 271 
Q 434 634 434 1313 
Q 434 1759 690 2068 
Q 947 2378 1403 2484 
z
M 1172 3481 
Q 1172 3119 1398 2916 
Q 1625 2713 2034 2713 
Q 2441 2713 2670 2916 
Q 2900 3119 2900 3481 
Q 2900 3844 2670 4047 
Q 2441 4250 2034 4250 
Q 1625 4250 1398 4047 
Q 1172 3844 1172 3481 
z
" id="DejaVuSans-38" transform="scale(0.015625)"/>
       </defs>
       <use xlink:href="#DejaVuSans-30"/>
       <use x="63.623047" xlink:href="#DejaVuSans-2e"/>
       <use x="95.410156" xlink:href="#DejaVuSans-38"/>
      </g>
     </g>
    </g>
    <g id="ytick_6">
     <g id="line2d_31">
      <path clip-path="url(#p2a016cd819)" d="M 57.6 30.334099 
L 338.688 30.334099 
" style="fill:none;stroke:#b0b0b0;stroke-linecap:square;stroke-width:0.8;"/>
     </g>
     <g id="line2d_32">
      <g>
       <use style="stroke:#000000;stroke-width:0.8;" x="57.6" xlink:href="#m01762db068" y="30.334099"/>
      </g>
     </g>
     <g id="text_11">
      <!-- 1.0 -->
      <g transform="translate(25.155 36.412849)scale(0.16 -0.16)">
       <use xlink:href="#DejaVuSans-31"/>
       <use x="63.623047" xlink:href="#DejaVuSans-2e"/>
       <use x="95.410156" xlink:href="#DejaVuSans-30"/>
      </g>
     </g>
    </g>
    <g id="text_12">
     <!-- Fraction of function,target pairs -->
     <g transform="translate(17.619531 297.681)rotate(-90)scale(0.17 -0.17)">
      <defs>
       <path d="M 628 4666 
L 3309 4666 
L 3309 4134 
L 1259 4134 
L 1259 2759 
L 3109 2759 
L 3109 2228 
L 1259 2228 
L 1259 0 
L 628 0 
L 628 4666 
z
" id="DejaVuSans-46" transform="scale(0.015625)"/>
       <path d="M 2631 2963 
Q 2534 3019 2420 3045 
Q 2306 3072 2169 3072 
Q 1681 3072 1420 2755 
Q 1159 2438 1159 1844 
L 1159 0 
L 581 0 
L 581 3500 
L 1159 3500 
L 1159 2956 
Q 1341 3275 1631 3429 
Q 1922 3584 2338 3584 
Q 2397 3584 2469 3576 
Q 2541 3569 2628 3553 
L 2631 2963 
z
" id="DejaVuSans-72" transform="scale(0.015625)"/>
       <path d="M 3122 3366 
L 3122 2828 
Q 2878 2963 2633 3030 
Q 2388 3097 2138 3097 
Q 1578 3097 1268 2742 
Q 959 2388 959 1747 
Q 959 1106 1268 751 
Q 1578 397 2138 397 
Q 2388 397 2633 464 
Q 2878 531 3122 666 
L 3122 134 
Q 2881 22 2623 -34 
Q 2366 -91 2075 -91 
Q 1284 -91 818 406 
Q 353 903 353 1747 
Q 353 2603 823 3093 
Q 1294 3584 2113 3584 
Q 2378 3584 2631 3529 
Q 2884 3475 3122 3366 
z
" id="DejaVuSans-63" transform="scale(0.015625)"/>
       <path d="M 1172 4494 
L 1172 3500 
L 2356 3500 
L 2356 3053 
L 1172 3053 
L 1172 1153 
Q 1172 725 1289 603 
Q 1406 481 1766 481 
L 2356 481 
L 2356 0 
L 1766 0 
Q 1100 0 847 248 
Q 594 497 594 1153 
L 594 3053 
L 172 3053 
L 172 3500 
L 594 3500 
L 594 4494 
L 1172 4494 
z
" id="DejaVuSans-74" transform="scale(0.015625)"/>
       <path d="M 544 1381 
L 544 3500 
L 1119 3500 
L 1119 1403 
Q 1119 906 1312 657 
Q 1506 409 1894 409 
Q 2359 409 2629 706 
Q 2900 1003 2900 1516 
L 2900 3500 
L 3475 3500 
L 3475 0 
L 2900 0 
L 2900 538 
Q 2691 219 2414 64 
Q 2138 -91 1772 -91 
Q 1169 -91 856 284 
Q 544 659 544 1381 
z
M 1991 3584 
L 1991 3584 
z
" id="DejaVuSans-75" transform="scale(0.015625)"/>
       <path d="M 750 794 
L 1409 794 
L 1409 256 
L 897 -744 
L 494 -744 
L 750 256 
L 750 794 
z
" id="DejaVuSans-2c" transform="scale(0.015625)"/>
       <path d="M 1159 525 
L 1159 -1331 
L 581 -1331 
L 581 3500 
L 1159 3500 
L 1159 2969 
Q 1341 3281 1617 3432 
Q 1894 3584 2278 3584 
Q 2916 3584 3314 3078 
Q 3713 2572 3713 1747 
Q 3713 922 3314 415 
Q 2916 -91 2278 -91 
Q 1894 -91 1617 61 
Q 1341 213 1159 525 
z
M 3116 1747 
Q 3116 2381 2855 2742 
Q 2594 3103 2138 3103 
Q 1681 3103 1420 2742 
Q 1159 2381 1159 1747 
Q 1159 1113 1420 752 
Q 1681 391 2138 391 
Q 2594 391 2855 752 
Q 3116 1113 3116 1747 
z
" id="DejaVuSans-70" transform="scale(0.015625)"/>
      </defs>
      <use xlink:href="#DejaVuSans-46"/>
      <use x="50.269531" xlink:href="#DejaVuSans-72"/>
      <use x="91.382812" xlink:href="#DejaVuSans-61"/>
      <use x="152.662109" xlink:href="#DejaVuSans-63"/>
      <use x="207.642578" xlink:href="#DejaVuSans-74"/>
      <use x="246.851562" xlink:href="#DejaVuSans-69"/>
      <use x="274.634766" xlink:href="#DejaVuSans-6f"/>
      <use x="335.816406" xlink:href="#DejaVuSans-6e"/>
      <use x="399.195312" xlink:href="#DejaVuSans-20"/>
      <use x="430.982422" xlink:href="#DejaVuSans-6f"/>
      <use x="492.164062" xlink:href="#DejaVuSans-66"/>
      <use x="527.369141" xlink:href="#DejaVuSans-20"/>
      <use x="559.15625" xlink:href="#DejaVuSans-66"/>
      <use x="594.361328" xlink:href="#DejaVuSans-75"/>
      <use x="657.740234" xlink:href="#DejaVuSans-6e"/>
      <use x="721.119141" xlink:href="#DejaVuSans-63"/>
      <use x="776.099609" xlink:href="#DejaVuSans-74"/>
      <use x="815.308594" xlink:href="#DejaVuSans-69"/>
      <use x="843.091797" xlink:href="#DejaVuSans-6f"/>
      <use x="904.273438" xlink:href="#DejaVuSans-6e"/>
      <use x="967.652344" xlink:href="#DejaVuSans-2c"/>
      <use x="999.439453" xlink:href="#DejaVuSans-74"/>
      <use x="1038.648438" xlink:href="#DejaVuSans-61"/>
      <use x="1099.927734" xlink:href="#DejaVuSans-72"/>
      <use x="1139.291016" xlink:href="#DejaVuSans-67"/>
      <use x="1202.767578" xlink:href="#DejaVuSans-65"/>
      <use x="1264.291016" xlink:href="#DejaVuSans-74"/>
      <use x="1303.5" xlink:href="#DejaVuSans-20"/>
      <use x="1335.287109" xlink:href="#DejaVuSans-70"/>
      <use x="1398.763672" xlink:href="#DejaVuSans-61"/>
      <use x="1460.042969" xlink:href="#DejaVuSans-69"/>
      <use x="1487.826172" xlink:href="#DejaVuSans-72"/>
      <use x="1528.939453" xlink:href="#DejaVuSans-73"/>
     </g>
    </g>
   </g>
   <g id="line2d_33">
    <defs>
     <path d="M 0 1.5 
C 0.397805 1.5 0.77937 1.341951 1.06066 1.06066 
C 1.341951 0.77937 1.5 0.397805 1.5 0 
C 1.5 -0.397805 1.341951 -0.77937 1.06066 -1.06066 
C 0.77937 -1.341951 0.397805 -1.5 0 -1.5 
C -0.397805 -1.5 -0.77937 -1.341951 -1.06066 -1.06066 
C -1.341951 -0.77937 -1.5 -0.397805 -1.5 0 
C -1.5 0.397805 -1.341951 0.77937 -1.06066 1.06066 
C -0.77937 1.341951 -0.397805 1.5 0 1.5 
z
" id="m7e1263e5fd" style="stroke:#f5deb3;"/>
    </defs>
    <g>
     <use style="fill:#f5deb3;stroke:#f5deb3;" x="146.906268" xlink:href="#m7e1263e5fd" y="30.334099"/>
     <use style="fill:#f5deb3;stroke:#f5deb3;" x="146.906268" xlink:href="#m7e1263e5fd" y="30.334099"/>
    </g>
   </g>
   <g id="line2d_34">
    <defs>
     <path d="M 0 1.5 
C 0.397805 1.5 0.77937 1.341951 1.06066 1.06066 
C 1.341951 0.77937 1.5 0.397805 1.5 0 
C 1.5 -0.397805 1.341951 -0.77937 1.06066 -1.06066 
C 0.77937 -1.341951 0.397805 -1.5 0 -1.5 
C -0.397805 -1.5 -0.77937 -1.341951 -1.06066 -1.06066 
C -1.341951 -0.77937 -1.5 -0.397805 -1.5 0 
C -1.5 0.397805 -1.341951 0.77937 -1.06066 1.06066 
C -0.77937 1.341951 -0.397805 1.5 0 1.5 
z
" id="m1c69782c45" style="stroke:#000080;"/>
    </defs>
    <g>
     <use style="fill:#000080;stroke:#000080;" x="180.389527" xlink:href="#m1c69782c45" y="30.334099"/>
     <use style="fill:#000080;stroke:#000080;" x="180.389527" xlink:href="#m1c69782c45" y="30.334099"/>
    </g>
   </g>
   <g id="line2d_35">
    <path d="M 45.512012 298.944 
L 45.512012 275.243126 
L 57.6 275.243126 
L 57.6 264.182719 
L 64.67102 264.182719 
L 64.67102 262.60266 
L 69.687988 262.60266 
L 69.687988 258.389172 
L 76.759008 258.389172 
L 76.759008 257.862486 
L 79.447285 257.862486 
L 79.447285 255.755741 
L 81.775977 255.755741 
L 81.775977 255.229055 
L 83.830028 255.229055 
L 83.830028 253.122311 
L 87.329581 253.122311 
L 87.329581 251.542253 
L 88.846997 251.542253 
L 88.846997 251.015567 
L 92.73846 251.015567 
L 92.73846 249.435508 
L 94.921215 249.435508 
L 94.921215 248.908822 
L 95.918017 248.908822 
L 95.918017 244.695334 
L 99.41757 244.695334 
L 99.41757 241.008531 
L 101.646892 241.008531 
L 101.646892 238.375101 
L 102.330873 238.375101 
L 102.330873 237.848415 
L 103.623262 237.848415 
L 103.623262 232.581554 
L 104.826449 232.581554 
L 104.826449 232.054868 
L 111.104637 232.054868 
L 111.104637 231.528182 
L 113.73488 231.528182 
L 113.73488 230.47481 
L 114.080224 230.47481 
L 114.080224 226.788007 
L 114.418861 226.788007 
L 114.418861 224.154577 
L 117.486268 224.154577 
L 117.486268 223.627891 
L 118.039942 223.627891 
L 118.039942 223.101204 
L 122.148045 223.101204 
L 122.148045 222.574518 
L 122.988655 222.574518 
L 122.988655 222.047832 
L 124.368753 222.047832 
L 124.368753 220.99446 
L 125.470548 220.99446 
L 125.470548 218.887716 
L 126.673734 218.887716 
L 126.673734 217.307658 
L 128.260216 217.307658 
L 128.260216 216.254285 
L 128.709321 216.254285 
L 128.709321 214.147541 
L 129.147151 214.147541 
L 129.147151 213.094169 
L 129.991152 213.094169 
L 129.991152 212.567483 
L 130.263646 212.567483 
L 130.263646 210.987425 
L 132.659801 210.987425 
L 132.659801 210.460738 
L 133.57787 210.460738 
L 133.57787 208.88068 
L 134.450015 208.88068 
L 134.450015 207.300622 
L 134.661403 207.300622 
L 134.661403 203.613819 
L 135.178927 203.613819 
L 135.280614 197.820273 
L 135.582166 197.820273 
L 135.582166 195.713528 
L 136.361705 195.713528 
L 136.361705 195.186842 
L 137.107884 195.186842 
L 137.107884 194.13347 
L 137.37967 194.13347 
L 137.37967 192.026726 
L 138.84457 192.026726 
L 138.84457 191.50004 
L 139.009092 191.50004 
L 139.009092 190.446667 
L 139.413734 190.446667 
L 139.413734 189.919981 
L 139.572998 189.919981 
L 139.652088 187.813237 
L 139.8092 187.813237 
L 139.8092 186.759865 
L 141.378673 186.759865 
L 141.378673 186.233179 
L 141.732423 186.233179 
L 141.732423 182.01969 
L 142.351634 182.01969 
L 142.351634 178.859574 
L 142.686372 178.859574 
L 142.686372 178.332888 
L 143.464461 178.332888 
L 143.464461 177.806202 
L 144.087359 177.806202 
L 144.087359 177.279515 
L 144.629556 177.279515 
L 144.688773 171.485969 
L 144.806606 171.485969 
L 144.806606 170.959282 
L 147.96658 170.959282 
L 147.96658 169.379224 
L 148.449693 169.379224 
L 148.449693 167.27248 
L 148.87334 167.27248 
L 148.87334 163.585677 
L 149.15016 163.585677 
L 149.15016 163.058991 
L 149.60198 163.058991 
L 149.60198 160.952247 
L 150.556607 160.952247 
L 150.556607 160.425561 
L 151.581536 160.425561 
L 151.581536 159.372189 
L 151.779487 159.372189 
L 151.858043 157.265444 
L 153.395042 157.265444 
L 153.395042 153.051956 
L 153.715038 153.051956 
L 153.715038 150.945211 
L 154.029268 150.945211 
L 154.029268 150.418525 
L 154.201424 150.418525 
L 154.201424 147.258409 
L 154.337936 147.258409 
L 154.337936 146.731723 
L 154.906477 146.731723 
L 154.906477 144.098292 
L 155.928852 144.098292 
L 155.928852 143.571606 
L 156.266892 143.571606 
L 156.357959 141.991548 
L 156.38821 141.991548 
L 156.38821 141.464862 
L 156.923929 141.464862 
L 156.98245 134.617943 
L 157.725877 134.617943 
L 157.725877 132.511199 
L 158.140788 132.511199 
L 158.140788 129.351082 
L 158.412011 129.351082 
L 158.412011 128.824396 
L 158.732007 128.824396 
L 158.732007 122.504163 
L 159.278248 122.504163 
L 159.278248 121.450791 
L 160.703658 121.450791 
L 160.727241 119.344047 
L 161.283861 119.344047 
L 161.283861 115.130558 
L 161.555647 115.130558 
L 161.555647 110.390383 
L 162.896128 110.390383 
L 162.896128 108.810325 
L 163.225959 108.810325 
L 163.225959 107.756953 
L 163.669525 107.756953 
L 163.669525 106.176895 
L 163.906798 106.176895 
L 163.985177 105.123522 
L 164.390984 105.123522 
L 164.390984 104.596836 
L 165.500963 104.596836 
L 165.500963 101.963406 
L 165.785402 101.963406 
L 165.855793 98.803289 
L 166.186323 98.803289 
L 166.186323 98.276603 
L 166.578233 98.276603 
L 166.578233 96.169859 
L 166.845764 96.169859 
L 166.845764 95.643173 
L 167.288118 95.643173 
L 167.288118 91.429684 
L 167.782543 91.429684 
L 167.782543 90.376312 
L 168.506396 90.376312 
L 168.536542 86.68951 
L 168.760989 86.68951 
L 168.86475 85.109451 
L 169.417501 85.109451 
L 169.446113 83.002707 
L 169.897641 83.002707 
L 169.897641 79.842591 
L 170.296979 79.842591 
L 170.296979 79.315904 
L 170.647393 79.315904 
L 170.674059 74.57573 
L 170.938496 74.57573 
L 171.043158 71.415613 
L 171.134225 71.415613 
L 171.18605 69.308869 
L 171.8212 69.308869 
L 171.8212 64.568694 
L 171.982619 64.568694 
L 171.982619 62.988636 
L 172.325296 62.988636 
L 172.325296 62.46195 
L 172.744386 62.46195 
L 172.744386 61.935264 
L 172.862299 61.935264 
L 172.944366 58.248461 
L 173.188276 58.248461 
L 173.211329 57.195089 
L 173.710926 57.195089 
L 173.710926 55.088345 
L 174.12024 55.088345 
L 174.12024 52.9816 
L 174.637316 52.9816 
L 174.66913 48.768112 
L 174.963293 48.768112 
L 175.004915 45.081309 
L 175.486665 45.081309 
L 175.486665 44.554623 
L 175.747557 44.554623 
L 175.747557 42.974565 
L 176.507601 42.974565 
L 176.507601 41.394507 
L 176.772554 41.394507 
L 176.772554 40.867821 
L 178.833909 40.867821 
L 178.833909 38.761076 
L 179.712566 38.761076 
L 179.712566 31.914157 
L 179.839052 31.914157 
L 179.839052 30.860785 
L 180.389527 30.860785 
L 180.389527 30.334099 
L 338.688 30.334099 
L 338.688 30.334099 
" style="fill:none;stroke:#000080;stroke-linecap:square;stroke-width:1.5;"/>
   </g>
   <g id="line2d_36">
    <defs>
     <path d="M 0 6 
C 1.591219 6 3.117479 5.367802 4.242641 4.242641 
C 5.367802 3.117479 6 1.591219 6 0 
C 6 -1.591219 5.367802 -3.117479 4.242641 -4.242641 
C 3.117479 -5.367802 1.591219 -6 0 -6 
C -1.591219 -6 -3.117479 -5.367802 -4.242641 -4.242641 
C -5.367802 -3.117479 -6 -1.591219 -6 0 
C -6 1.591219 -5.367802 3.117479 -4.242641 4.242641 
C -3.117479 5.367802 -1.591219 6 0 6 
z
" id="mb2ee5336a1" style="stroke:#000080;stroke-width:1.5;"/>
    </defs>
    <g>
     <use style="fill-opacity:0;stroke:#000080;stroke-width:1.5;" x="122.148045" xlink:href="#mb2ee5336a1" y="222.574518"/>
     <use style="fill-opacity:0;stroke:#000080;stroke-width:1.5;" x="161.283861" xlink:href="#mb2ee5336a1" y="115.130558"/>
     <use style="fill-opacity:0;stroke:#000080;stroke-width:1.5;" x="180.389527" xlink:href="#mb2ee5336a1" y="30.860785"/>
     <use style="fill-opacity:0;stroke:#000080;stroke-width:1.5;" x="180.389527" xlink:href="#mb2ee5336a1" y="30.334099"/>
     <use style="fill-opacity:0;stroke:#000080;stroke-width:1.5;" x="180.389527" xlink:href="#mb2ee5336a1" y="30.334099"/>
     <use style="fill-opacity:0;stroke:#000080;stroke-width:1.5;" x="338.688" xlink:href="#mb2ee5336a1" y="30.334099"/>
    </g>
   </g>
   <g id="line2d_37">
    <path style="fill:none;stroke:#000080;stroke-linecap:square;stroke-width:1.5;"/>
    <g/>
   </g>
   <g id="line2d_38">
    <defs>
     <path d="M 0 1.5 
C 0.397805 1.5 0.77937 1.341951 1.06066 1.06066 
C 1.341951 0.77937 1.5 0.397805 1.5 0 
C 1.5 -0.397805 1.341951 -0.77937 1.06066 -1.06066 
C 0.77937 -1.341951 0.397805 -1.5 0 -1.5 
C -0.397805 -1.5 -0.77937 -1.341951 -1.06066 -1.06066 
C -1.341951 -0.77937 -1.5 -0.397805 -1.5 0 
C -1.5 0.397805 -1.341951 0.77937 -1.06066 1.06066 
C -0.77937 1.341951 -0.397805 1.5 0 1.5 
z
" id="m0dbd93e5d3" style="stroke:#ff00ff;"/>
    </defs>
    <g>
     <use style="fill:#ff00ff;stroke:#ff00ff;" x="195.622056" xlink:href="#m0dbd93e5d3" y="30.334099"/>
     <use style="fill:#ff00ff;stroke:#ff00ff;" x="195.622056" xlink:href="#m0dbd93e5d3" y="30.334099"/>
    </g>
   </g>
   <g id="line2d_39">
    <path d="M 45.512012 298.944 
L 45.512012 268.922893 
L 57.6 268.922893 
L 57.6 263.656033 
L 64.67102 263.656033 
L 64.67102 258.389172 
L 73.579452 258.389172 
L 73.579452 255.755741 
L 76.759008 255.755741 
L 76.759008 253.648997 
L 79.447285 253.648997 
L 79.447285 252.068939 
L 81.775977 252.068939 
L 81.775977 251.542253 
L 83.830028 251.542253 
L 83.830028 251.015567 
L 85.66744 251.015567 
L 85.66744 249.962195 
L 87.329581 249.962195 
L 87.329581 246.275392 
L 88.846997 246.275392 
L 88.846997 245.748706 
L 91.535274 245.748706 
L 91.535274 245.22202 
L 92.73846 245.22202 
L 92.73846 243.641962 
L 93.863965 243.641962 
L 93.863965 241.008531 
L 94.921215 241.008531 
L 94.921215 239.428473 
L 98.606294 239.428473 
L 98.606294 238.901787 
L 102.330873 238.901787 
L 102.330873 236.795043 
L 103.623262 236.795043 
L 103.623262 235.74167 
L 106.48859 235.74167 
L 106.48859 234.688298 
L 110.274038 234.688298 
L 110.274038 232.581554 
L 110.694282 232.581554 
L 110.694282 232.054868 
L 111.897469 232.054868 
L 111.897469 229.948123 
L 112.280765 229.948123 
L 112.280765 227.314693 
L 115.077025 227.314693 
L 115.077025 226.261321 
L 115.397021 226.261321 
L 115.397021 223.101204 
L 115.711251 223.101204 
L 115.711251 222.574518 
L 116.621333 222.574518 
L 116.621333 221.521146 
L 117.202696 221.521146 
L 117.202696 219.941088 
L 118.039942 219.941088 
L 118.039942 219.414402 
L 118.310324 219.414402 
L 118.310324 218.36103 
L 121.036887 218.36103 
L 121.036887 215.200913 
L 121.931406 215.200913 
L 121.931406 214.147541 
L 124.368753 214.147541 
L 124.368753 211.514111 
L 128.260216 211.514111 
L 128.260216 210.987425 
L 129.853291 210.987425 
L 129.853291 207.300622 
L 131.439773 207.300622 
L 131.439773 205.720564 
L 133.124876 205.720564 
L 133.124876 205.193878 
L 135.482227 205.193878 
L 135.482227 203.087133 
L 136.645276 203.087133 
L 136.738785 201.507075 
L 139.964909 201.507075 
L 139.964909 198.346959 
L 140.195896 198.346959 
L 140.195896 195.713528 
L 145.270136 195.713528 
L 145.270136 194.13347 
L 145.777292 194.13347 
L 145.777292 190.446667 
L 146.906268 190.446667 
L 146.906268 188.339923 
L 147.86833 188.339923 
L 147.917524 186.759865 
L 148.87334 186.759865 
L 148.87334 185.706493 
L 150.640855 185.706493 
L 150.724698 183.599748 
L 150.891184 183.599748 
L 150.891184 183.073062 
L 151.858043 183.073062 
L 151.858043 181.493004 
L 152.885298 181.493004 
L 152.885298 179.38626 
L 153.430889 179.38626 
L 153.430889 178.332888 
L 153.750233 178.332888 
L 153.750233 173.066027 
L 154.337936 173.066027 
L 154.337936 170.959282 
L 154.641235 170.959282 
L 154.674612 168.852538 
L 155.135299 168.852538 
L 155.135299 167.799166 
L 156.508689 167.799166 
L 156.508689 166.745794 
L 157.1279 166.745794 
L 157.1279 165.165736 
L 157.753847 165.165736 
L 157.753847 163.585677 
L 158.811096 163.585677 
L 158.863624 160.425561 
L 159.252621 160.425561 
L 159.252621 158.318817 
L 159.380382 158.318817 
L 159.380382 157.79213 
L 161.12334 157.79213 
L 161.12334 156.212072 
L 161.352206 156.212072 
L 161.352206 153.051956 
L 161.64531 153.051956 
L 161.64531 152.52527 
L 162.152109 152.52527 
L 162.152109 146.205037 
L 162.346481 146.205037 
L 162.346481 139.358118 
L 162.875305 139.358118 
L 162.875305 138.304745 
L 164.991751 138.304745 
L 164.991751 135.144629 
L 165.714726 135.144629 
L 165.714726 131.984513 
L 166.527611 131.984513 
L 166.527611 130.404454 
L 167.687935 130.404454 
L 167.687935 125.66428 
L 167.84533 125.66428 
L 167.87664 121.977477 
L 169.403177 121.977477 
L 169.431813 118.290674 
L 169.729685 118.290674 
L 169.729685 117.763988 
L 169.967148 117.763988 
L 169.967148 117.237302 
L 170.51345 117.237302 
L 170.51345 115.130558 
L 170.912232 115.130558 
L 170.912232 113.5505 
L 173.107351 113.5505 
L 173.176739 104.596836 
L 174.109302 104.596836 
L 174.12024 102.490092 
L 174.369919 102.490092 
L 174.369919 100.910034 
L 174.932012 100.910034 
L 174.932012 98.803289 
L 175.436043 98.803289 
L 175.436043 97.223231 
L 175.62763 97.223231 
L 175.62763 96.696545 
L 175.886437 96.696545 
L 175.886437 95.643173 
L 176.85687 95.643173 
L 176.85687 94.063115 
L 176.996497 94.063115 
L 176.996497 92.483056 
L 178.368833 92.483056 
L 178.368833 90.902998 
L 178.56483 90.902998 
L 178.56483 85.109451 
L 178.792138 85.109451 
L 178.792138 84.056079 
L 181.929824 84.056079 
L 181.929824 83.002707 
L 182.43255 83.002707 
L 182.43255 79.842591 
L 182.861682 79.842591 
L 182.861682 77.735846 
L 183.299894 77.735846 
L 183.299894 76.682474 
L 183.771427 76.682474 
L 183.796556 69.835555 
L 183.884222 69.835555 
L 183.884222 68.255497 
L 184.891431 68.255497 
L 184.891431 64.042008 
L 185.003089 64.042008 
L 185.003089 63.515322 
L 185.67535 63.515322 
L 185.67535 62.46195 
L 186.613497 62.46195 
L 186.613497 61.408578 
L 187.046072 61.408578 
L 187.046072 59.301833 
L 187.574653 59.301833 
L 187.574653 58.248461 
L 187.760688 58.248461 
L 187.760688 57.195089 
L 188.048373 57.195089 
L 188.087684 54.561659 
L 188.312018 54.561659 
L 188.379724 52.9816 
L 188.538286 52.9816 
L 188.538286 51.401542 
L 188.652705 51.401542 
L 188.652705 49.294798 
L 188.991525 49.294798 
L 189.038067 47.71474 
L 189.116905 47.71474 
L 189.116905 46.661368 
L 189.748486 46.661368 
L 189.748486 44.554623 
L 190.014199 44.554623 
L 190.03177 42.447879 
L 190.310526 42.447879 
L 190.310526 41.921193 
L 191.10038 41.921193 
L 191.10038 41.394507 
L 191.346412 41.394507 
L 191.346412 40.341135 
L 191.637141 40.341135 
L 191.709072 37.707704 
L 192.308796 37.707704 
L 192.308796 37.181018 
L 192.580245 37.181018 
L 192.580245 36.654332 
L 192.704987 36.654332 
L 192.765149 35.60096 
L 192.825103 35.60096 
L 192.825103 33.494215 
L 193.033336 33.494215 
L 193.033336 32.967529 
L 193.778625 32.967529 
L 193.778625 32.440843 
L 195.371728 32.440843 
L 195.371728 31.387471 
L 195.622056 31.387471 
L 195.622056 30.334099 
L 338.688 30.334099 
L 338.688 30.334099 
" style="fill:none;stroke:#ff00ff;stroke-linecap:square;stroke-width:1.5;"/>
   </g>
   <g id="line2d_40">
    <defs>
     <path d="M 0 8.485281 
L 5.091169 0 
L 0 -8.485281 
L -5.091169 0 
z
" id="mf8204f5b41" style="stroke:#ff00ff;stroke-linejoin:miter;stroke-width:1.5;"/>
    </defs>
    <g>
     <use style="fill-opacity:0;stroke:#ff00ff;stroke-linejoin:miter;stroke-width:1.5;" x="139.964909" xlink:href="#mf8204f5b41" y="198.346959"/>
     <use style="fill-opacity:0;stroke:#ff00ff;stroke-linejoin:miter;stroke-width:1.5;" x="183.771427" xlink:href="#mf8204f5b41" y="76.155788"/>
     <use style="fill-opacity:0;stroke:#ff00ff;stroke-linejoin:miter;stroke-width:1.5;" x="195.622056" xlink:href="#mf8204f5b41" y="31.387471"/>
     <use style="fill-opacity:0;stroke:#ff00ff;stroke-linejoin:miter;stroke-width:1.5;" x="195.622056" xlink:href="#mf8204f5b41" y="30.334099"/>
     <use style="fill-opacity:0;stroke:#ff00ff;stroke-linejoin:miter;stroke-width:1.5;" x="195.622056" xlink:href="#mf8204f5b41" y="30.334099"/>
     <use style="fill-opacity:0;stroke:#ff00ff;stroke-linejoin:miter;stroke-width:1.5;" x="338.688" xlink:href="#mf8204f5b41" y="30.334099"/>
    </g>
   </g>
   <g id="line2d_41">
    <path style="fill:none;stroke:#ff00ff;stroke-linecap:square;stroke-width:1.5;"/>
    <g/>
   </g>
   <g id="line2d_42">
    <defs>
     <path d="M 0 1.5 
C 0.397805 1.5 0.77937 1.341951 1.06066 1.06066 
C 1.341951 0.77937 1.5 0.397805 1.5 0 
C 1.5 -0.397805 1.341951 -0.77937 1.06066 -1.06066 
C 0.77937 -1.341951 0.397805 -1.5 0 -1.5 
C -0.397805 -1.5 -0.77937 -1.341951 -1.06066 -1.06066 
C -1.341951 -0.77937 -1.5 -0.397805 -1.5 0 
C -1.5 0.397805 -1.341951 0.77937 -1.06066 1.06066 
C -0.77937 1.341951 -0.397805 1.5 0 1.5 
z
" id="m78b9fb2232" style="stroke:#ff7500;"/>
    </defs>
    <g>
     <use style="fill:#ff7500;stroke:#ff7500;" x="193.474953" xlink:href="#m78b9fb2232" y="30.334099"/>
     <use style="fill:#ff7500;stroke:#ff7500;" x="193.474953" xlink:href="#m78b9fb2232" y="30.334099"/>
    </g>
   </g>
   <g id="line2d_43">
    <path d="M 45.512012 298.944 
L 45.512012 272.08301 
L 57.6 272.08301 
L 57.6 268.396207 
L 64.67102 268.396207 
L 64.67102 266.816149 
L 69.687988 266.816149 
L 69.687988 262.075974 
L 73.579452 262.075974 
L 73.579452 261.022602 
L 76.759008 261.022602 
L 76.759008 259.442544 
L 81.775977 259.442544 
L 81.775977 258.389172 
L 83.830028 258.389172 
L 83.830028 256.282427 
L 85.66744 256.282427 
L 85.66744 253.122311 
L 92.73846 253.122311 
L 92.73846 252.595625 
L 94.921215 252.595625 
L 94.921215 250.488881 
L 99.41757 250.488881 
L 99.41757 248.908822 
L 100.192776 248.908822 
L 100.192776 244.168648 
L 100.934985 244.168648 
L 100.934985 243.641962 
L 101.646892 243.641962 
L 101.646892 242.061903 
L 102.330873 242.061903 
L 102.330873 241.008531 
L 104.23523 241.008531 
L 104.23523 240.481845 
L 105.398279 240.481845 
L 105.398279 239.955159 
L 105.951954 239.955159 
L 105.951954 238.375101 
L 106.48859 238.375101 
L 106.48859 237.321729 
L 108.948899 237.321729 
L 108.948899 236.268356 
L 118.039942 236.268356 
L 118.039942 231.528182 
L 118.576578 231.528182 
L 118.576578 231.001496 
L 123.790603 231.001496 
L 123.790603 228.368065 
L 126.50685 228.368065 
L 126.50685 226.261321 
L 128.260216 226.261321 
L 128.260216 225.734635 
L 128.560901 225.734635 
L 128.560901 224.154577 
L 129.574256 224.154577 
L 129.574256 223.627891 
L 131.938072 223.627891 
L 131.938072 223.101204 
L 132.422528 223.101204 
L 132.422528 222.574518 
L 133.124876 222.574518 
L 133.124876 221.521146 
L 134.236034 221.521146 
L 134.236034 218.36103 
L 134.973757 218.36103 
L 134.973757 216.254285 
L 135.178927 216.254285 
L 135.178927 213.620855 
L 135.482227 213.620855 
L 135.482227 211.514111 
L 136.738785 211.514111 
L 136.738785 208.353994 
L 138.594838 208.353994 
L 138.594838 207.827308 
L 140.11924 207.827308 
L 140.11924 207.300622 
L 143.590833 207.300622 
L 143.590833 204.667192 
L 144.510517 204.667192 
L 144.510517 201.507075 
L 146.324022 201.507075 
L 146.324022 200.980389 
L 147.769524 200.980389 
L 147.769524 197.820273 
L 148.497276 197.820273 
L 148.497276 196.7669 
L 150.682827 196.7669 
L 150.682827 195.186842 
L 152.474064 195.186842 
L 152.474064 194.13347 
L 153.430889 194.13347 
L 153.430889 193.080098 
L 154.029268 193.080098 
L 154.029268 190.973354 
L 154.77436 190.973354 
L 154.77436 189.919981 
L 158.358103 189.919981 
L 158.412011 187.813237 
L 158.863624 187.813237 
L 158.968208 178.332888 
L 161.420284 178.332888 
L 161.420284 177.806202 
L 162.581141 177.806202 
L 162.581141 176.752829 
L 165.284547 176.752829 
L 165.284547 175.172771 
L 166.255117 175.172771 
L 166.255117 169.379224 
L 167.010909 169.379224 
L 167.010909 164.112363 
L 168.86475 164.112363 
L 168.86475 163.058991 
L 169.715615 163.058991 
L 169.715615 160.425561 
L 170.727268 160.425561 
L 170.727268 156.212072 
L 171.211906 156.212072 
L 171.211906 154.632014 
L 171.83367 154.632014 
L 171.83367 153.051956 
L 172.056618 153.051956 
L 172.056618 152.52527 
L 172.62567 152.52527 
L 172.62567 148.311781 
L 172.803442 148.311781 
L 172.83878 142.518234 
L 173.026049 142.518234 
L 173.026049 141.464862 
L 174.261802 141.464862 
L 174.369919 134.617943 
L 174.402224 134.617943 
L 174.402224 132.511199 
L 176.363988 132.511199 
L 176.363988 131.984513 
L 177.390674 131.984513 
L 177.417845 126.717652 
L 177.687252 126.717652 
L 177.687252 124.610907 
L 178.022633 124.610907 
L 178.022633 123.557535 
L 178.144586 123.557535 
L 178.144586 119.870733 
L 178.394524 119.870733 
L 178.462846 117.763988 
L 178.825562 117.763988 
L 178.825562 117.237302 
L 179.262495 117.237302 
L 179.262495 114.077186 
L 179.712566 114.077186 
L 179.712566 113.023814 
L 179.9098 113.023814 
L 179.9098 112.497128 
L 180.159048 112.497128 
L 180.159048 107.230267 
L 180.305371 107.230267 
L 180.351324 103.543464 
L 180.503634 103.543464 
L 180.503634 101.43672 
L 180.804318 101.43672 
L 180.804318 99.856662 
L 181.063231 99.856662 
L 181.063231 98.803289 
L 181.245843 98.803289 
L 181.245843 97.749917 
L 181.455304 97.749917 
L 181.469658 95.116487 
L 181.747212 95.116487 
L 181.747212 94.063115 
L 182.282564 94.063115 
L 182.282564 93.009743 
L 182.398576 93.009743 
L 182.425761 90.376312 
L 182.594715 90.376312 
L 182.594715 89.849626 
L 182.92779 89.849626 
L 182.92779 89.32294 
L 183.046156 89.32294 
L 183.046156 87.216196 
L 183.215724 87.216196 
L 183.215724 83.529393 
L 183.396511 83.529393 
L 183.396511 81.949335 
L 184.119975 81.949335 
L 184.119975 79.842591 
L 184.382961 79.842591 
L 184.431454 73.522358 
L 184.719614 73.522358 
L 184.719614 69.835555 
L 184.944411 69.835555 
L 184.944411 69.308869 
L 185.17795 69.308869 
L 185.270497 67.728811 
L 186.197291 67.728811 
L 186.197291 66.675439 
L 186.328086 66.675439 
L 186.328086 64.568694 
L 186.490213 64.568694 
L 186.490213 64.042008 
L 186.82585 64.042008 
L 186.868012 62.988636 
L 186.972973 62.988636 
L 187.051282 56.668403 
L 187.12924 56.668403 
L 187.12924 56.141717 
L 187.294396 56.141717 
L 187.294396 53.508287 
L 187.427443 53.508287 
L 187.468177 48.768112 
L 187.805641 48.768112 
L 187.805641 48.241426 
L 188.058209 48.241426 
L 188.058209 47.71474 
L 188.480794 47.71474 
L 188.480794 44.027937 
L 189.227601 44.027937 
L 189.227601 43.501251 
L 189.401447 43.501251 
L 189.401447 42.974565 
L 190.049323 42.974565 
L 190.101878 39.814448 
L 190.21086 39.814448 
L 190.21086 36.127646 
L 190.745784 36.127646 
L 190.745784 34.547588 
L 191.443861 34.547588 
L 191.443861 34.020902 
L 192.052617 34.020902 
L 192.150098 31.914157 
L 193.474953 31.914157 
L 193.474953 30.334099 
L 338.688 30.334099 
L 338.688 30.334099 
" style="fill:none;stroke:#ff7500;stroke-linecap:square;stroke-width:1.5;"/>
   </g>
   <g id="line2d_44">
    <defs>
     <path d="M 0 -6 
L -1.347084 -1.854102 
L -5.706339 -1.854102 
L -2.179628 0.708204 
L -3.526712 4.854102 
L -0 2.291796 
L 3.526712 4.854102 
L 2.179628 0.708204 
L 5.706339 -1.854102 
L 1.347084 -1.854102 
z
" id="m806e051fb3" style="stroke:#ff7500;stroke-linejoin:bevel;stroke-width:1.5;"/>
    </defs>
    <g>
     <use style="fill-opacity:0;stroke:#ff7500;stroke-linejoin:bevel;stroke-width:1.5;" x="135.482227" xlink:href="#m806e051fb3" y="211.514111"/>
     <use style="fill-opacity:0;stroke:#ff7500;stroke-linejoin:bevel;stroke-width:1.5;" x="180.305371" xlink:href="#m806e051fb3" y="107.230267"/>
     <use style="fill-opacity:0;stroke:#ff7500;stroke-linejoin:bevel;stroke-width:1.5;" x="193.474953" xlink:href="#m806e051fb3" y="31.914157"/>
     <use style="fill-opacity:0;stroke:#ff7500;stroke-linejoin:bevel;stroke-width:1.5;" x="193.474953" xlink:href="#m806e051fb3" y="30.334099"/>
     <use style="fill-opacity:0;stroke:#ff7500;stroke-linejoin:bevel;stroke-width:1.5;" x="193.474953" xlink:href="#m806e051fb3" y="30.334099"/>
     <use style="fill-opacity:0;stroke:#ff7500;stroke-linejoin:bevel;stroke-width:1.5;" x="338.688" xlink:href="#m806e051fb3" y="30.334099"/>
    </g>
   </g>
   <g id="line2d_45">
    <path style="fill:none;stroke:#ff7500;stroke-linecap:square;stroke-width:1.5;"/>
    <g/>
   </g>
   <g id="line2d_46">
    <path d="M 338.688 30.334099 
L 369.60768 293.571802 
" style="fill:none;stroke:#ff00ff;stroke-linecap:square;stroke-width:1.5;"/>
    <g>
     <use style="fill-opacity:0;stroke:#ff00ff;stroke-linejoin:miter;stroke-width:1.5;" x="338.688" xlink:href="#mf8204f5b41" y="30.334099"/>
     <use style="fill-opacity:0;stroke:#ff00ff;stroke-linejoin:miter;stroke-width:1.5;" x="369.60768" xlink:href="#mf8204f5b41" y="293.571802"/>
    </g>
   </g>
   <g id="line2d_47">
    <path d="M 338.688 30.334099 
L 369.60768 207.616634 
" style="fill:none;stroke:#ff7500;stroke-linecap:square;stroke-width:1.5;"/>
    <g>
     <use style="fill-opacity:0;stroke:#ff7500;stroke-linejoin:bevel;stroke-width:1.5;" x="338.688" xlink:href="#m806e051fb3" y="30.334099"/>
     <use style="fill-opacity:0;stroke:#ff7500;stroke-linejoin:bevel;stroke-width:1.5;" x="369.60768" xlink:href="#m806e051fb3" y="207.616634"/>
    </g>
   </g>
   <g id="line2d_48">
    <path d="M 338.688 30.334099 
L 369.60768 121.661465 
" style="fill:none;stroke:#000080;stroke-linecap:square;stroke-width:1.5;"/>
    <g>
     <use style="fill-opacity:0;stroke:#000080;stroke-width:1.5;" x="338.688" xlink:href="#mb2ee5336a1" y="30.334099"/>
     <use style="fill-opacity:0;stroke:#000080;stroke-width:1.5;" x="369.60768" xlink:href="#mb2ee5336a1" y="121.661465"/>
    </g>
   </g>
   <g id="line2d_49">
    <path d="M 338.688 298.944 
L 338.688 30.334099 
" style="fill:none;stroke:#000000;stroke-linecap:square;stroke-width:1.5;"/>
   </g>
   <g id="patch_3">
    <path d="M 57.6 298.944 
L 57.6 27.648 
" style="fill:none;stroke:#000000;stroke-linecap:square;stroke-linejoin:miter;stroke-width:0.8;"/>
   </g>
   <g id="patch_4">
    <path d="M 338.688 298.944 
L 338.688 27.648 
" style="fill:none;stroke:#000000;stroke-linecap:square;stroke-linejoin:miter;stroke-width:0.8;"/>
   </g>
   <g id="patch_5">
    <path d="M 57.6 298.944 
L 338.688 298.944 
" style="fill:none;stroke:#000000;stroke-linecap:square;stroke-linejoin:miter;stroke-width:0.8;"/>
   </g>
   <g id="patch_6">
    <path d="M 57.6 27.648 
L 338.688 27.648 
" style="fill:none;stroke:#000000;stroke-linecap:square;stroke-linejoin:miter;stroke-width:0.8;"/>
   </g>
   <g id="text_13">
    <!-- PSO Bound -->
    <g transform="translate(375.22944 298.262739)scale(0.17 -0.17)">
     <defs>
      <path d="M 1259 4147 
L 1259 2394 
L 2053 2394 
Q 2494 2394 2734 2622 
Q 2975 2850 2975 3272 
Q 2975 3691 2734 3919 
Q 2494 4147 2053 4147 
L 1259 4147 
z
M 628 4666 
L 2053 4666 
Q 2838 4666 3239 4311 
Q 3641 3956 3641 3272 
Q 3641 2581 3239 2228 
Q 2838 1875 2053 1875 
L 1259 1875 
L 1259 0 
L 628 0 
L 628 4666 
z
" id="DejaVuSans-50" transform="scale(0.015625)"/>
      <path d="M 3425 4513 
L 3425 3897 
Q 3066 4069 2747 4153 
Q 2428 4238 2131 4238 
Q 1616 4238 1336 4038 
Q 1056 3838 1056 3469 
Q 1056 3159 1242 3001 
Q 1428 2844 1947 2747 
L 2328 2669 
Q 3034 2534 3370 2195 
Q 3706 1856 3706 1288 
Q 3706 609 3251 259 
Q 2797 -91 1919 -91 
Q 1588 -91 1214 -16 
Q 841 59 441 206 
L 441 856 
Q 825 641 1194 531 
Q 1563 422 1919 422 
Q 2459 422 2753 634 
Q 3047 847 3047 1241 
Q 3047 1584 2836 1778 
Q 2625 1972 2144 2069 
L 1759 2144 
Q 1053 2284 737 2584 
Q 422 2884 422 3419 
Q 422 4038 858 4394 
Q 1294 4750 2059 4750 
Q 2388 4750 2728 4690 
Q 3069 4631 3425 4513 
z
" id="DejaVuSans-53" transform="scale(0.015625)"/>
      <path d="M 2522 4238 
Q 1834 4238 1429 3725 
Q 1025 3213 1025 2328 
Q 1025 1447 1429 934 
Q 1834 422 2522 422 
Q 3209 422 3611 934 
Q 4013 1447 4013 2328 
Q 4013 3213 3611 3725 
Q 3209 4238 2522 4238 
z
M 2522 4750 
Q 3503 4750 4090 4092 
Q 4678 3434 4678 2328 
Q 4678 1225 4090 567 
Q 3503 -91 2522 -91 
Q 1538 -91 948 565 
Q 359 1222 359 2328 
Q 359 3434 948 4092 
Q 1538 4750 2522 4750 
z
" id="DejaVuSans-4f" transform="scale(0.015625)"/>
      <path d="M 1259 2228 
L 1259 519 
L 2272 519 
Q 2781 519 3026 730 
Q 3272 941 3272 1375 
Q 3272 1813 3026 2020 
Q 2781 2228 2272 2228 
L 1259 2228 
z
M 1259 4147 
L 1259 2741 
L 2194 2741 
Q 2656 2741 2882 2914 
Q 3109 3088 3109 3444 
Q 3109 3797 2882 3972 
Q 2656 4147 2194 4147 
L 1259 4147 
z
M 628 4666 
L 2241 4666 
Q 2963 4666 3353 4366 
Q 3744 4066 3744 3513 
Q 3744 3084 3544 2831 
Q 3344 2578 2956 2516 
Q 3422 2416 3680 2098 
Q 3938 1781 3938 1306 
Q 3938 681 3513 340 
Q 3088 0 2303 0 
L 628 0 
L 628 4666 
z
" id="DejaVuSans-42" transform="scale(0.015625)"/>
     </defs>
     <use xlink:href="#DejaVuSans-50"/>
     <use x="60.302734" xlink:href="#DejaVuSans-53"/>
     <use x="123.779297" xlink:href="#DejaVuSans-4f"/>
     <use x="202.490234" xlink:href="#DejaVuSans-20"/>
     <use x="234.277344" xlink:href="#DejaVuSans-42"/>
     <use x="302.880859" xlink:href="#DejaVuSans-6f"/>
     <use x="364.0625" xlink:href="#DejaVuSans-75"/>
     <use x="427.441406" xlink:href="#DejaVuSans-6e"/>
     <use x="490.820312" xlink:href="#DejaVuSans-64"/>
    </g>
   </g>
   <g id="text_14">
    <!-- PSO EDA -->
    <g transform="translate(375.22944 212.307571)scale(0.17 -0.17)">
     <defs>
      <path d="M 628 4666 
L 3578 4666 
L 3578 4134 
L 1259 4134 
L 1259 2753 
L 3481 2753 
L 3481 2222 
L 1259 2222 
L 1259 531 
L 3634 531 
L 3634 0 
L 628 0 
L 628 4666 
z
" id="DejaVuSans-45" transform="scale(0.015625)"/>
      <path d="M 1259 4147 
L 1259 519 
L 2022 519 
Q 2988 519 3436 956 
Q 3884 1394 3884 2338 
Q 3884 3275 3436 3711 
Q 2988 4147 2022 4147 
L 1259 4147 
z
M 628 4666 
L 1925 4666 
Q 3281 4666 3915 4102 
Q 4550 3538 4550 2338 
Q 4550 1131 3912 565 
Q 3275 0 1925 0 
L 628 0 
L 628 4666 
z
" id="DejaVuSans-44" transform="scale(0.015625)"/>
      <path d="M 2188 4044 
L 1331 1722 
L 3047 1722 
L 2188 4044 
z
M 1831 4666 
L 2547 4666 
L 4325 0 
L 3669 0 
L 3244 1197 
L 1141 1197 
L 716 0 
L 50 0 
L 1831 4666 
z
" id="DejaVuSans-41" transform="scale(0.015625)"/>
     </defs>
     <use xlink:href="#DejaVuSans-50"/>
     <use x="60.302734" xlink:href="#DejaVuSans-53"/>
     <use x="123.779297" xlink:href="#DejaVuSans-4f"/>
     <use x="202.490234" xlink:href="#DejaVuSans-20"/>
     <use x="234.277344" xlink:href="#DejaVuSans-45"/>
     <use x="297.460938" xlink:href="#DejaVuSans-44"/>
     <use x="372.712891" xlink:href="#DejaVuSans-41"/>
    </g>
   </g>
   <g id="text_15">
    <!-- PSO -->
    <g transform="translate(375.22944 126.352403)scale(0.17 -0.17)">
     <use xlink:href="#DejaVuSans-50"/>
     <use x="60.302734" xlink:href="#DejaVuSans-53"/>
     <use x="123.779297" xlink:href="#DejaVuSans-4f"/>
    </g>
   </g>
   <g id="text_16">
    <!-- best 2009 -->
    <g transform="translate(375.22944 40.397235)scale(0.17 -0.17)">
     <defs>
      <path d="M 3116 1747 
Q 3116 2381 2855 2742 
Q 2594 3103 2138 3103 
Q 1681 3103 1420 2742 
Q 1159 2381 1159 1747 
Q 1159 1113 1420 752 
Q 1681 391 2138 391 
Q 2594 391 2855 752 
Q 3116 1113 3116 1747 
z
M 1159 2969 
Q 1341 3281 1617 3432 
Q 1894 3584 2278 3584 
Q 2916 3584 3314 3078 
Q 3713 2572 3713 1747 
Q 3713 922 3314 415 
Q 2916 -91 2278 -91 
Q 1894 -91 1617 61 
Q 1341 213 1159 525 
L 1159 0 
L 581 0 
L 581 4863 
L 1159 4863 
L 1159 2969 
z
" id="DejaVuSans-62" transform="scale(0.015625)"/>
      <path d="M 703 97 
L 703 672 
Q 941 559 1184 500 
Q 1428 441 1663 441 
Q 2288 441 2617 861 
Q 2947 1281 2994 2138 
Q 2813 1869 2534 1725 
Q 2256 1581 1919 1581 
Q 1219 1581 811 2004 
Q 403 2428 403 3163 
Q 403 3881 828 4315 
Q 1253 4750 1959 4750 
Q 2769 4750 3195 4129 
Q 3622 3509 3622 2328 
Q 3622 1225 3098 567 
Q 2575 -91 1691 -91 
Q 1453 -91 1209 -44 
Q 966 3 703 97 
z
M 1959 2075 
Q 2384 2075 2632 2365 
Q 2881 2656 2881 3163 
Q 2881 3666 2632 3958 
Q 2384 4250 1959 4250 
Q 1534 4250 1286 3958 
Q 1038 3666 1038 3163 
Q 1038 2656 1286 2365 
Q 1534 2075 1959 2075 
z
" id="DejaVuSans-39" transform="scale(0.015625)"/>
     </defs>
     <use xlink:href="#DejaVuSans-62"/>
     <use x="63.476562" xlink:href="#DejaVuSans-65"/>
     <use x="125" xlink:href="#DejaVuSans-73"/>
     <use x="177.099609" xlink:href="#DejaVuSans-74"/>
     <use x="216.308594" xlink:href="#DejaVuSans-20"/>
     <use x="248.095703" xlink:href="#DejaVuSans-32"/>
     <use x="311.71875" xlink:href="#DejaVuSans-30"/>
     <use x="375.341797" xlink:href="#DejaVuSans-30"/>
     <use x="438.964844" xlink:href="#DejaVuSans-39"/>
    </g>
   </g>
   <g id="text_17">
    <!-- bbob f21, 2-D -->
    <g transform="translate(60.41088 38.111366)scale(0.102 -0.102)">
     <use xlink:href="#DejaVuSans-62"/>
     <use x="63.476562" xlink:href="#DejaVuSans-62"/>
     <use x="126.953125" xlink:href="#DejaVuSans-6f"/>
     <use x="188.134766" xlink:href="#DejaVuSans-62"/>
     <use x="251.611328" xlink:href="#DejaVuSans-20"/>
     <use x="283.398438" xlink:href="#DejaVuSans-66"/>
     <use x="318.603516" xlink:href="#DejaVuSans-32"/>
     <use x="382.226562" xlink:href="#DejaVuSans-31"/>
     <use x="445.849609" xlink:href="#DejaVuSans-2c"/>
     <use x="477.636719" xlink:href="#DejaVuSans-20"/>
     <use x="509.423828" xlink:href="#DejaVuSans-32"/>
     <use x="573.046875" xlink:href="#DejaVuSans-2d"/>
     <use x="609.130859" xlink:href="#DejaVuSans-44"/>
    </g>
    <!-- 51 targets: 100..1e-08 -->
    <g transform="translate(60.41088 49.533135)scale(0.102 -0.102)">
     <defs>
      <path d="M 691 4666 
L 3169 4666 
L 3169 4134 
L 1269 4134 
L 1269 2991 
Q 1406 3038 1543 3061 
Q 1681 3084 1819 3084 
Q 2600 3084 3056 2656 
Q 3513 2228 3513 1497 
Q 3513 744 3044 326 
Q 2575 -91 1722 -91 
Q 1428 -91 1123 -41 
Q 819 9 494 109 
L 494 744 
Q 775 591 1075 516 
Q 1375 441 1709 441 
Q 2250 441 2565 725 
Q 2881 1009 2881 1497 
Q 2881 1984 2565 2268 
Q 2250 2553 1709 2553 
Q 1456 2553 1204 2497 
Q 953 2441 691 2322 
L 691 4666 
z
" id="DejaVuSans-35" transform="scale(0.015625)"/>
      <path d="M 750 794 
L 1409 794 
L 1409 0 
L 750 0 
L 750 794 
z
M 750 3309 
L 1409 3309 
L 1409 2516 
L 750 2516 
L 750 3309 
z
" id="DejaVuSans-3a" transform="scale(0.015625)"/>
     </defs>
     <use xlink:href="#DejaVuSans-35"/>
     <use x="63.623047" xlink:href="#DejaVuSans-31"/>
     <use x="127.246094" xlink:href="#DejaVuSans-20"/>
     <use x="159.033203" xlink:href="#DejaVuSans-74"/>
     <use x="198.242188" xlink:href="#DejaVuSans-61"/>
     <use x="259.521484" xlink:href="#DejaVuSans-72"/>
     <use x="298.884766" xlink:href="#DejaVuSans-67"/>
     <use x="362.361328" xlink:href="#DejaVuSans-65"/>
     <use x="423.884766" xlink:href="#DejaVuSans-74"/>
     <use x="463.09375" xlink:href="#DejaVuSans-73"/>
     <use x="515.193359" xlink:href="#DejaVuSans-3a"/>
     <use x="548.884766" xlink:href="#DejaVuSans-20"/>
     <use x="580.671875" xlink:href="#DejaVuSans-31"/>
     <use x="644.294922" xlink:href="#DejaVuSans-30"/>
     <use x="707.917969" xlink:href="#DejaVuSans-30"/>
     <use x="771.541016" xlink:href="#DejaVuSans-2e"/>
     <use x="803.328125" xlink:href="#DejaVuSans-2e"/>
     <use x="835.115234" xlink:href="#DejaVuSans-31"/>
     <use x="898.738281" xlink:href="#DejaVuSans-65"/>
     <use x="960.261719" xlink:href="#DejaVuSans-2d"/>
     <use x="996.345703" xlink:href="#DejaVuSans-30"/>
     <use x="1059.96875" xlink:href="#DejaVuSans-38"/>
    </g>
    <!-- 15 instances -->
    <g transform="translate(60.41088 60.954904)scale(0.102 -0.102)">
     <use xlink:href="#DejaVuSans-31"/>
     <use x="63.623047" xlink:href="#DejaVuSans-35"/>
     <use x="127.246094" xlink:href="#DejaVuSans-20"/>
     <use x="159.033203" xlink:href="#DejaVuSans-69"/>
     <use x="186.816406" xlink:href="#DejaVuSans-6e"/>
     <use x="250.195312" xlink:href="#DejaVuSans-73"/>
     <use x="302.294922" xlink:href="#DejaVuSans-74"/>
     <use x="341.503906" xlink:href="#DejaVuSans-61"/>
     <use x="402.783203" xlink:href="#DejaVuSans-6e"/>
     <use x="466.162109" xlink:href="#DejaVuSans-63"/>
     <use x="521.142578" xlink:href="#DejaVuSans-65"/>
     <use x="582.666016" xlink:href="#DejaVuSans-73"/>
    </g>
   </g>
   <g id="text_18">
    <!-- v2.4 -->
    <g style="fill:#808080;" transform="translate(187.233062 294.151352)scale(0.1 -0.1)">
     <use xlink:href="#DejaVuSans-76"/>
     <use x="59.179688" xlink:href="#DejaVuSans-32"/>
     <use x="122.802734" xlink:href="#DejaVuSans-2e"/>
     <use x="154.589844" xlink:href="#DejaVuSans-34"/>
    </g>
   </g>
   <g id="text_19">
    <!-- 21 Gallagher 101 peaks -->
    <g transform="translate(78.6565 21.648)scale(0.2 -0.2)">
     <defs>
      <path d="M 3809 666 
L 3809 1919 
L 2778 1919 
L 2778 2438 
L 4434 2438 
L 4434 434 
Q 4069 175 3628 42 
Q 3188 -91 2688 -91 
Q 1594 -91 976 548 
Q 359 1188 359 2328 
Q 359 3472 976 4111 
Q 1594 4750 2688 4750 
Q 3144 4750 3555 4637 
Q 3966 4525 4313 4306 
L 4313 3634 
Q 3963 3931 3569 4081 
Q 3175 4231 2741 4231 
Q 1884 4231 1454 3753 
Q 1025 3275 1025 2328 
Q 1025 1384 1454 906 
Q 1884 428 2741 428 
Q 3075 428 3337 486 
Q 3600 544 3809 666 
z
" id="DejaVuSans-47" transform="scale(0.015625)"/>
      <path d="M 3513 2113 
L 3513 0 
L 2938 0 
L 2938 2094 
Q 2938 2591 2744 2837 
Q 2550 3084 2163 3084 
Q 1697 3084 1428 2787 
Q 1159 2491 1159 1978 
L 1159 0 
L 581 0 
L 581 4863 
L 1159 4863 
L 1159 2956 
Q 1366 3272 1645 3428 
Q 1925 3584 2291 3584 
Q 2894 3584 3203 3211 
Q 3513 2838 3513 2113 
z
" id="DejaVuSans-68" transform="scale(0.015625)"/>
      <path d="M 581 4863 
L 1159 4863 
L 1159 1991 
L 2875 3500 
L 3609 3500 
L 1753 1863 
L 3688 0 
L 2938 0 
L 1159 1709 
L 1159 0 
L 581 0 
L 581 4863 
z
" id="DejaVuSans-6b" transform="scale(0.015625)"/>
     </defs>
     <use xlink:href="#DejaVuSans-32"/>
     <use x="63.623047" xlink:href="#DejaVuSans-31"/>
     <use x="127.246094" xlink:href="#DejaVuSans-20"/>
     <use x="159.033203" xlink:href="#DejaVuSans-47"/>
     <use x="236.523438" xlink:href="#DejaVuSans-61"/>
     <use x="297.802734" xlink:href="#DejaVuSans-6c"/>
     <use x="325.585938" xlink:href="#DejaVuSans-6c"/>
     <use x="353.369141" xlink:href="#DejaVuSans-61"/>
     <use x="414.648438" xlink:href="#DejaVuSans-67"/>
     <use x="478.125" xlink:href="#DejaVuSans-68"/>
     <use x="541.503906" xlink:href="#DejaVuSans-65"/>
     <use x="603.027344" xlink:href="#DejaVuSans-72"/>
     <use x="644.140625" xlink:href="#DejaVuSans-20"/>
     <use x="675.927734" xlink:href="#DejaVuSans-31"/>
     <use x="739.550781" xlink:href="#DejaVuSans-30"/>
     <use x="803.173828" xlink:href="#DejaVuSans-31"/>
     <use x="866.796875" xlink:href="#DejaVuSans-20"/>
     <use x="898.583984" xlink:href="#DejaVuSans-70"/>
     <use x="962.060547" xlink:href="#DejaVuSans-65"/>
     <use x="1023.583984" xlink:href="#DejaVuSans-61"/>
     <use x="1084.863281" xlink:href="#DejaVuSans-6b"/>
     <use x="1142.773438" xlink:href="#DejaVuSans-73"/>
    </g>
   </g>
  </g>
 </g>
 <defs>
  <clipPath id="p2a016cd819">
   <rect height="271.296" width="281.088" x="57.6" y="27.648"/>
  </clipPath>
 </defs>
</svg>
