<?xml version="1.0" encoding="utf-8" standalone="no"?>
<!DOCTYPE svg PUBLIC "-//W3C//DTD SVG 1.1//EN"
  "http://www.w3.org/Graphics/SVG/1.1/DTD/svg11.dtd">
<svg height="345.6pt" version="1.1" viewBox="0 0 460.8 345.6" width="460.8pt" xmlns="http://www.w3.org/2000/svg" xmlns:xlink="http://www.w3.org/1999/xlink">
 <metadata>
  <rdf:RDF xmlns:cc="http://creativecommons.org/ns#" xmlns:dc="http://purl.org/dc/elements/1.1/" xmlns:rdf="http://www.w3.org/1999/02/22-rdf-syntax-ns#">
   <cc:Work>
    <dc:type rdf:resource="http://purl.org/dc/dcmitype/StillImage"/>
    <dc:date>2021-04-25T03:18:52.157686</dc:date>
    <dc:format>image/svg+xml</dc:format>
    <dc:creator>
     <cc:Agent>
      <dc:title>Matplotlib v3.4.1, https://matplotlib.org/</dc:title>
     </cc:Agent>
    </dc:creator>
   </cc:Work>
  </rdf:RDF>
 </metadata>
 <defs>
  <style type="text/css">*{stroke-linecap:butt;stroke-linejoin:round;}</style>
 </defs>
 <g id="figure_1">
  <g id="patch_1">
   <path d="M 0 345.6 
L 460.8 345.6 
L 460.8 0 
L 0 0 
z
" style="fill:#ffffff;"/>
  </g>
  <g id="axes_1">
   <g id="patch_2">
    <path d="M 57.6 298.944 
L 338.688 298.944 
L 338.688 27.648 
L 57.6 27.648 
z
" style="fill:#ffffff;"/>
   </g>
   <g id="line2d_1">
    <path d="M 38.440992 298.944 
L 38.440992 272.609696 
L 50.52898 272.609696 
L 50.52898 267.342835 
L 62.616969 267.342835 
L 62.616969 262.075974 
L 69.687988 262.075974 
L 69.687988 256.809114 
L 78.59642 256.809114 
L 78.59642 251.542253 
L 84.464254 251.542253 
L 84.464254 246.275392 
L 87.850195 246.275392 
L 87.850195 241.008531 
L 89.78989 241.008531 
L 89.78989 235.74167 
L 93.121756 235.74167 
L 93.121756 230.47481 
L 93.863965 230.47481 
L 93.863965 225.207949 
L 95.918017 225.207949 
L 95.918017 219.941088 
L 96.552242 219.941088 
L 96.552242 214.674227 
L 98.32726 214.674227 
L 98.32726 209.407366 
L 98.880934 209.407366 
L 98.880934 204.140506 
L 99.938184 204.140506 
L 99.938184 198.873645 
L 102.330873 198.873645 
L 102.330873 193.606784 
L 104.033617 193.606784 
L 104.033617 188.339923 
L 105.584798 188.339923 
L 105.584798 183.073062 
L 107.680028 183.073062 
L 107.680028 177.806202 
L 109.550313 177.806202 
L 109.550313 172.539341 
L 111.505558 172.539341 
L 111.505558 167.27248 
L 112.779064 167.27248 
L 112.779064 162.005619 
L 114.860386 162.005619 
L 114.860386 156.738758 
L 115.711251 156.738758 
L 115.711251 151.471897 
L 116.522527 151.471897 
L 116.522527 146.205037 
L 116.914437 146.205037 
L 116.914437 140.938176 
L 117.297733 140.938176 
L 117.297733 135.671315 
L 118.039942 135.671315 
L 118.039942 130.404454 
L 119.097192 130.404454 
L 119.097192 125.137593 
L 119.602714 125.137593 
L 119.602714 119.870733 
L 120.093994 119.870733 
L 120.093994 114.603872 
L 120.41399 114.603872 
L 120.41399 109.337011 
L 121.189196 109.337011 
L 121.189196 104.07015 
L 124.989434 104.07015 
L 124.989434 98.803289 
L 126.948374 98.803289 
L 126.948374 93.536429 
L 127.48501 93.536429 
L 127.48501 88.269568 
L 128.005624 88.269568 
L 128.005624 83.002707 
L 128.310692 83.002707 
L 128.310692 77.735846 
L 128.709321 77.735846 
L 128.709321 72.468985 
L 129.480244 72.468985 
L 129.480244 67.202125 
L 129.853291 67.202125 
L 129.853291 61.935264 
L 130.30865 61.935264 
L 130.30865 56.668403 
L 130.664567 56.668403 
L 130.664567 51.401542 
L 131.439773 51.401542 
L 131.439773 46.134681 
L 131.77355 46.134681 
L 131.77355 40.867821 
L 132.101058 40.867821 
L 132.101058 35.60096 
L 132.501978 35.60096 
L 132.501978 30.334099 
L 338.688 30.334099 
" style="fill:none;stroke:#f5deb3;stroke-linecap:square;stroke-width:4;"/>
   </g>
   <g id="line2d_2">
    <defs>
     <path d="M 0 7.778175 
L 7.778175 0 
L 0 -7.778175 
L -7.778175 0 
z
" id="m7818260d0a" style="stroke:#f5deb3;stroke-linejoin:miter;stroke-width:1.5;"/>
    </defs>
    <g>
     <use style="fill:#f5deb3;stroke:#f5deb3;stroke-linejoin:miter;stroke-width:1.5;" x="84.464254" xlink:href="#m7818260d0a" y="251.542253"/>
     <use style="fill:#f5deb3;stroke:#f5deb3;stroke-linejoin:miter;stroke-width:1.5;" x="112.779064" xlink:href="#m7818260d0a" y="162.005619"/>
     <use style="fill:#f5deb3;stroke:#f5deb3;stroke-linejoin:miter;stroke-width:1.5;" x="131.77355" xlink:href="#m7818260d0a" y="40.867821"/>
     <use style="fill:#f5deb3;stroke:#f5deb3;stroke-linejoin:miter;stroke-width:1.5;" x="132.501978" xlink:href="#m7818260d0a" y="30.334099"/>
     <use style="fill:#f5deb3;stroke:#f5deb3;stroke-linejoin:miter;stroke-width:1.5;" x="132.501978" xlink:href="#m7818260d0a" y="30.334099"/>
     <use style="fill:#f5deb3;stroke:#f5deb3;stroke-linejoin:miter;stroke-width:1.5;" x="338.688" xlink:href="#m7818260d0a" y="30.334099"/>
    </g>
   </g>
   <g id="line2d_3">
    <path style="fill:none;stroke:#f5deb3;stroke-linecap:square;stroke-width:4;"/>
    <g/>
   </g>
   <g id="line2d_4">
    <path d="M 338.688 30.334099 
L 369.60768 35.706297 
" style="fill:none;stroke:#f5deb3;stroke-linecap:square;stroke-width:4;"/>
    <g>
     <use style="fill:#f5deb3;stroke:#f5deb3;stroke-linejoin:miter;stroke-width:1.5;" x="338.688" xlink:href="#m7818260d0a" y="30.334099"/>
     <use style="fill:#f5deb3;stroke:#f5deb3;stroke-linejoin:miter;stroke-width:1.5;" x="369.60768" xlink:href="#m7818260d0a" y="35.706297"/>
    </g>
   </g>
   <g id="matplotlib.axis_1">
    <g id="xtick_1">
     <g id="line2d_5">
      <path clip-path="url(#p390c42ef9b)" d="M 57.6 298.944 
L 57.6 27.648 
" style="fill:none;stroke:#b0b0b0;stroke-linecap:square;stroke-width:0.8;"/>
     </g>
     <g id="line2d_6">
      <defs>
       <path d="M 0 0 
L 0 3.5 
" id="m6477049e3c" style="stroke:#000000;stroke-width:0.8;"/>
      </defs>
      <g>
       <use style="stroke:#000000;stroke-width:0.8;" x="57.6" xlink:href="#m6477049e3c" y="298.944"/>
      </g>
     </g>
     <g id="text_1">
      <!-- 0 -->
      <g transform="translate(51.2375 321.140875)scale(0.2 -0.2)">
       <defs>
        <path d="M 2034 4250 
Q 1547 4250 1301 3770 
Q 1056 3291 1056 2328 
Q 1056 1369 1301 889 
Q 1547 409 2034 409 
Q 2525 409 2770 889 
Q 3016 1369 3016 2328 
Q 3016 3291 2770 3770 
Q 2525 4250 2034 4250 
z
M 2034 4750 
Q 2819 4750 3233 4129 
Q 3647 3509 3647 2328 
Q 3647 1150 3233 529 
Q 2819 -91 2034 -91 
Q 1250 -91 836 529 
Q 422 1150 422 2328 
Q 422 3509 836 4129 
Q 1250 4750 2034 4750 
z
" id="DejaVuSans-30" transform="scale(0.015625)"/>
       </defs>
       <use xlink:href="#DejaVuSans-30"/>
      </g>
     </g>
    </g>
    <g id="xtick_2">
     <g id="line2d_7">
      <path clip-path="url(#p390c42ef9b)" d="M 137.910857 298.944 
L 137.910857 27.648 
" style="fill:none;stroke:#b0b0b0;stroke-linecap:square;stroke-width:0.8;"/>
     </g>
     <g id="line2d_8">
      <g>
       <use style="stroke:#000000;stroke-width:0.8;" x="137.910857" xlink:href="#m6477049e3c" y="298.944"/>
      </g>
     </g>
     <g id="text_2">
      <!-- 2 -->
      <g transform="translate(131.548357 321.140875)scale(0.2 -0.2)">
       <defs>
        <path d="M 1228 531 
L 3431 531 
L 3431 0 
L 469 0 
L 469 531 
Q 828 903 1448 1529 
Q 2069 2156 2228 2338 
Q 2531 2678 2651 2914 
Q 2772 3150 2772 3378 
Q 2772 3750 2511 3984 
Q 2250 4219 1831 4219 
Q 1534 4219 1204 4116 
Q 875 4013 500 3803 
L 500 4441 
Q 881 4594 1212 4672 
Q 1544 4750 1819 4750 
Q 2544 4750 2975 4387 
Q 3406 4025 3406 3419 
Q 3406 3131 3298 2873 
Q 3191 2616 2906 2266 
Q 2828 2175 2409 1742 
Q 1991 1309 1228 531 
z
" id="DejaVuSans-32" transform="scale(0.015625)"/>
       </defs>
       <use xlink:href="#DejaVuSans-32"/>
      </g>
     </g>
    </g>
    <g id="xtick_3">
     <g id="line2d_9">
      <path clip-path="url(#p390c42ef9b)" d="M 218.221714 298.944 
L 218.221714 27.648 
" style="fill:none;stroke:#b0b0b0;stroke-linecap:square;stroke-width:0.8;"/>
     </g>
     <g id="line2d_10">
      <g>
       <use style="stroke:#000000;stroke-width:0.8;" x="218.221714" xlink:href="#m6477049e3c" y="298.944"/>
      </g>
     </g>
     <g id="text_3">
      <!-- 4 -->
      <g transform="translate(211.859214 321.140875)scale(0.2 -0.2)">
       <defs>
        <path d="M 2419 4116 
L 825 1625 
L 2419 1625 
L 2419 4116 
z
M 2253 4666 
L 3047 4666 
L 3047 1625 
L 3713 1625 
L 3713 1100 
L 3047 1100 
L 3047 0 
L 2419 0 
L 2419 1100 
L 313 1100 
L 313 1709 
L 2253 4666 
z
" id="DejaVuSans-34" transform="scale(0.015625)"/>
       </defs>
       <use xlink:href="#DejaVuSans-34"/>
      </g>
     </g>
    </g>
    <g id="xtick_4">
     <g id="line2d_11">
      <path clip-path="url(#p390c42ef9b)" d="M 298.532571 298.944 
L 298.532571 27.648 
" style="fill:none;stroke:#b0b0b0;stroke-linecap:square;stroke-width:0.8;"/>
     </g>
     <g id="line2d_12">
      <g>
       <use style="stroke:#000000;stroke-width:0.8;" x="298.532571" xlink:href="#m6477049e3c" y="298.944"/>
      </g>
     </g>
     <g id="text_4">
      <!-- 6 -->
      <g transform="translate(292.170071 321.140875)scale(0.2 -0.2)">
       <defs>
        <path d="M 2113 2584 
Q 1688 2584 1439 2293 
Q 1191 2003 1191 1497 
Q 1191 994 1439 701 
Q 1688 409 2113 409 
Q 2538 409 2786 701 
Q 3034 994 3034 1497 
Q 3034 2003 2786 2293 
Q 2538 2584 2113 2584 
z
M 3366 4563 
L 3366 3988 
Q 3128 4100 2886 4159 
Q 2644 4219 2406 4219 
Q 1781 4219 1451 3797 
Q 1122 3375 1075 2522 
Q 1259 2794 1537 2939 
Q 1816 3084 2150 3084 
Q 2853 3084 3261 2657 
Q 3669 2231 3669 1497 
Q 3669 778 3244 343 
Q 2819 -91 2113 -91 
Q 1303 -91 875 529 
Q 447 1150 447 2328 
Q 447 3434 972 4092 
Q 1497 4750 2381 4750 
Q 2619 4750 2861 4703 
Q 3103 4656 3366 4563 
z
" id="DejaVuSans-36" transform="scale(0.015625)"/>
       </defs>
       <use xlink:href="#DejaVuSans-36"/>
      </g>
     </g>
    </g>
    <g id="xtick_5">
     <g id="line2d_13">
      <path clip-path="url(#p390c42ef9b)" d="M 97.755429 298.944 
L 97.755429 27.648 
" style="fill:none;stroke:#b0b0b0;stroke-linecap:square;stroke-width:0.8;"/>
     </g>
     <g id="line2d_14">
      <defs>
       <path d="M 0 0 
L 0 2 
" id="m8a44147ab1" style="stroke:#000000;stroke-width:0.6;"/>
      </defs>
      <g>
       <use style="stroke:#000000;stroke-width:0.6;" x="97.755429" xlink:href="#m8a44147ab1" y="298.944"/>
      </g>
     </g>
    </g>
    <g id="xtick_6">
     <g id="line2d_15">
      <path clip-path="url(#p390c42ef9b)" d="M 178.066286 298.944 
L 178.066286 27.648 
" style="fill:none;stroke:#b0b0b0;stroke-linecap:square;stroke-width:0.8;"/>
     </g>
     <g id="line2d_16">
      <g>
       <use style="stroke:#000000;stroke-width:0.6;" x="178.066286" xlink:href="#m8a44147ab1" y="298.944"/>
      </g>
     </g>
    </g>
    <g id="xtick_7">
     <g id="line2d_17">
      <path clip-path="url(#p390c42ef9b)" d="M 258.377143 298.944 
L 258.377143 27.648 
" style="fill:none;stroke:#b0b0b0;stroke-linecap:square;stroke-width:0.8;"/>
     </g>
     <g id="line2d_18">
      <g>
       <use style="stroke:#000000;stroke-width:0.6;" x="258.377143" xlink:href="#m8a44147ab1" y="298.944"/>
      </g>
     </g>
    </g>
    <g id="xtick_8">
     <g id="line2d_19">
      <path clip-path="url(#p390c42ef9b)" d="M 338.688 298.944 
L 338.688 27.648 
" style="fill:none;stroke:#b0b0b0;stroke-linecap:square;stroke-width:0.8;"/>
     </g>
     <g id="line2d_20">
      <g>
       <use style="stroke:#000000;stroke-width:0.6;" x="338.688" xlink:href="#m8a44147ab1" y="298.944"/>
      </g>
     </g>
    </g>
    <g id="text_5">
     <!-- log10(# f-evals / dimension) -->
     <g transform="translate(77.764078 342.217594)scale(0.17 -0.17)">
      <defs>
       <path d="M 603 4863 
L 1178 4863 
L 1178 0 
L 603 0 
L 603 4863 
z
" id="DejaVuSans-6c" transform="scale(0.015625)"/>
       <path d="M 1959 3097 
Q 1497 3097 1228 2736 
Q 959 2375 959 1747 
Q 959 1119 1226 758 
Q 1494 397 1959 397 
Q 2419 397 2687 759 
Q 2956 1122 2956 1747 
Q 2956 2369 2687 2733 
Q 2419 3097 1959 3097 
z
M 1959 3584 
Q 2709 3584 3137 3096 
Q 3566 2609 3566 1747 
Q 3566 888 3137 398 
Q 2709 -91 1959 -91 
Q 1206 -91 779 398 
Q 353 888 353 1747 
Q 353 2609 779 3096 
Q 1206 3584 1959 3584 
z
" id="DejaVuSans-6f" transform="scale(0.015625)"/>
       <path d="M 2906 1791 
Q 2906 2416 2648 2759 
Q 2391 3103 1925 3103 
Q 1463 3103 1205 2759 
Q 947 2416 947 1791 
Q 947 1169 1205 825 
Q 1463 481 1925 481 
Q 2391 481 2648 825 
Q 2906 1169 2906 1791 
z
M 3481 434 
Q 3481 -459 3084 -895 
Q 2688 -1331 1869 -1331 
Q 1566 -1331 1297 -1286 
Q 1028 -1241 775 -1147 
L 775 -588 
Q 1028 -725 1275 -790 
Q 1522 -856 1778 -856 
Q 2344 -856 2625 -561 
Q 2906 -266 2906 331 
L 2906 616 
Q 2728 306 2450 153 
Q 2172 0 1784 0 
Q 1141 0 747 490 
Q 353 981 353 1791 
Q 353 2603 747 3093 
Q 1141 3584 1784 3584 
Q 2172 3584 2450 3431 
Q 2728 3278 2906 2969 
L 2906 3500 
L 3481 3500 
L 3481 434 
z
" id="DejaVuSans-67" transform="scale(0.015625)"/>
       <path d="M 794 531 
L 1825 531 
L 1825 4091 
L 703 3866 
L 703 4441 
L 1819 4666 
L 2450 4666 
L 2450 531 
L 3481 531 
L 3481 0 
L 794 0 
L 794 531 
z
" id="DejaVuSans-31" transform="scale(0.015625)"/>
       <path d="M 1984 4856 
Q 1566 4138 1362 3434 
Q 1159 2731 1159 2009 
Q 1159 1288 1364 580 
Q 1569 -128 1984 -844 
L 1484 -844 
Q 1016 -109 783 600 
Q 550 1309 550 2009 
Q 550 2706 781 3412 
Q 1013 4119 1484 4856 
L 1984 4856 
z
" id="DejaVuSans-28" transform="scale(0.015625)"/>
       <path d="M 3272 2816 
L 2363 2816 
L 2100 1772 
L 3016 1772 
L 3272 2816 
z
M 2803 4594 
L 2478 3297 
L 3391 3297 
L 3719 4594 
L 4219 4594 
L 3897 3297 
L 4872 3297 
L 4872 2816 
L 3775 2816 
L 3519 1772 
L 4513 1772 
L 4513 1294 
L 3397 1294 
L 3072 0 
L 2572 0 
L 2894 1294 
L 1978 1294 
L 1656 0 
L 1153 0 
L 1478 1294 
L 494 1294 
L 494 1772 
L 1594 1772 
L 1856 2816 
L 850 2816 
L 850 3297 
L 1978 3297 
L 2297 4594 
L 2803 4594 
z
" id="DejaVuSans-23" transform="scale(0.015625)"/>
       <path id="DejaVuSans-20" transform="scale(0.015625)"/>
       <path d="M 2375 4863 
L 2375 4384 
L 1825 4384 
Q 1516 4384 1395 4259 
Q 1275 4134 1275 3809 
L 1275 3500 
L 2222 3500 
L 2222 3053 
L 1275 3053 
L 1275 0 
L 697 0 
L 697 3053 
L 147 3053 
L 147 3500 
L 697 3500 
L 697 3744 
Q 697 4328 969 4595 
Q 1241 4863 1831 4863 
L 2375 4863 
z
" id="DejaVuSans-66" transform="scale(0.015625)"/>
       <path d="M 313 2009 
L 1997 2009 
L 1997 1497 
L 313 1497 
L 313 2009 
z
" id="DejaVuSans-2d" transform="scale(0.015625)"/>
       <path d="M 3597 1894 
L 3597 1613 
L 953 1613 
Q 991 1019 1311 708 
Q 1631 397 2203 397 
Q 2534 397 2845 478 
Q 3156 559 3463 722 
L 3463 178 
Q 3153 47 2828 -22 
Q 2503 -91 2169 -91 
Q 1331 -91 842 396 
Q 353 884 353 1716 
Q 353 2575 817 3079 
Q 1281 3584 2069 3584 
Q 2775 3584 3186 3129 
Q 3597 2675 3597 1894 
z
M 3022 2063 
Q 3016 2534 2758 2815 
Q 2500 3097 2075 3097 
Q 1594 3097 1305 2825 
Q 1016 2553 972 2059 
L 3022 2063 
z
" id="DejaVuSans-65" transform="scale(0.015625)"/>
       <path d="M 191 3500 
L 800 3500 
L 1894 563 
L 2988 3500 
L 3597 3500 
L 2284 0 
L 1503 0 
L 191 3500 
z
" id="DejaVuSans-76" transform="scale(0.015625)"/>
       <path d="M 2194 1759 
Q 1497 1759 1228 1600 
Q 959 1441 959 1056 
Q 959 750 1161 570 
Q 1363 391 1709 391 
Q 2188 391 2477 730 
Q 2766 1069 2766 1631 
L 2766 1759 
L 2194 1759 
z
M 3341 1997 
L 3341 0 
L 2766 0 
L 2766 531 
Q 2569 213 2275 61 
Q 1981 -91 1556 -91 
Q 1019 -91 701 211 
Q 384 513 384 1019 
Q 384 1609 779 1909 
Q 1175 2209 1959 2209 
L 2766 2209 
L 2766 2266 
Q 2766 2663 2505 2880 
Q 2244 3097 1772 3097 
Q 1472 3097 1187 3025 
Q 903 2953 641 2809 
L 641 3341 
Q 956 3463 1253 3523 
Q 1550 3584 1831 3584 
Q 2591 3584 2966 3190 
Q 3341 2797 3341 1997 
z
" id="DejaVuSans-61" transform="scale(0.015625)"/>
       <path d="M 2834 3397 
L 2834 2853 
Q 2591 2978 2328 3040 
Q 2066 3103 1784 3103 
Q 1356 3103 1142 2972 
Q 928 2841 928 2578 
Q 928 2378 1081 2264 
Q 1234 2150 1697 2047 
L 1894 2003 
Q 2506 1872 2764 1633 
Q 3022 1394 3022 966 
Q 3022 478 2636 193 
Q 2250 -91 1575 -91 
Q 1294 -91 989 -36 
Q 684 19 347 128 
L 347 722 
Q 666 556 975 473 
Q 1284 391 1588 391 
Q 1994 391 2212 530 
Q 2431 669 2431 922 
Q 2431 1156 2273 1281 
Q 2116 1406 1581 1522 
L 1381 1569 
Q 847 1681 609 1914 
Q 372 2147 372 2553 
Q 372 3047 722 3315 
Q 1072 3584 1716 3584 
Q 2034 3584 2315 3537 
Q 2597 3491 2834 3397 
z
" id="DejaVuSans-73" transform="scale(0.015625)"/>
       <path d="M 1625 4666 
L 2156 4666 
L 531 -594 
L 0 -594 
L 1625 4666 
z
" id="DejaVuSans-2f" transform="scale(0.015625)"/>
       <path d="M 2906 2969 
L 2906 4863 
L 3481 4863 
L 3481 0 
L 2906 0 
L 2906 525 
Q 2725 213 2448 61 
Q 2172 -91 1784 -91 
Q 1150 -91 751 415 
Q 353 922 353 1747 
Q 353 2572 751 3078 
Q 1150 3584 1784 3584 
Q 2172 3584 2448 3432 
Q 2725 3281 2906 2969 
z
M 947 1747 
Q 947 1113 1208 752 
Q 1469 391 1925 391 
Q 2381 391 2643 752 
Q 2906 1113 2906 1747 
Q 2906 2381 2643 2742 
Q 2381 3103 1925 3103 
Q 1469 3103 1208 2742 
Q 947 2381 947 1747 
z
" id="DejaVuSans-64" transform="scale(0.015625)"/>
       <path d="M 603 3500 
L 1178 3500 
L 1178 0 
L 603 0 
L 603 3500 
z
M 603 4863 
L 1178 4863 
L 1178 4134 
L 603 4134 
L 603 4863 
z
" id="DejaVuSans-69" transform="scale(0.015625)"/>
       <path d="M 3328 2828 
Q 3544 3216 3844 3400 
Q 4144 3584 4550 3584 
Q 5097 3584 5394 3201 
Q 5691 2819 5691 2113 
L 5691 0 
L 5113 0 
L 5113 2094 
Q 5113 2597 4934 2840 
Q 4756 3084 4391 3084 
Q 3944 3084 3684 2787 
Q 3425 2491 3425 1978 
L 3425 0 
L 2847 0 
L 2847 2094 
Q 2847 2600 2669 2842 
Q 2491 3084 2119 3084 
Q 1678 3084 1418 2786 
Q 1159 2488 1159 1978 
L 1159 0 
L 581 0 
L 581 3500 
L 1159 3500 
L 1159 2956 
Q 1356 3278 1631 3431 
Q 1906 3584 2284 3584 
Q 2666 3584 2933 3390 
Q 3200 3197 3328 2828 
z
" id="DejaVuSans-6d" transform="scale(0.015625)"/>
       <path d="M 3513 2113 
L 3513 0 
L 2938 0 
L 2938 2094 
Q 2938 2591 2744 2837 
Q 2550 3084 2163 3084 
Q 1697 3084 1428 2787 
Q 1159 2491 1159 1978 
L 1159 0 
L 581 0 
L 581 3500 
L 1159 3500 
L 1159 2956 
Q 1366 3272 1645 3428 
Q 1925 3584 2291 3584 
Q 2894 3584 3203 3211 
Q 3513 2838 3513 2113 
z
" id="DejaVuSans-6e" transform="scale(0.015625)"/>
       <path d="M 513 4856 
L 1013 4856 
Q 1481 4119 1714 3412 
Q 1947 2706 1947 2009 
Q 1947 1309 1714 600 
Q 1481 -109 1013 -844 
L 513 -844 
Q 928 -128 1133 580 
Q 1338 1288 1338 2009 
Q 1338 2731 1133 3434 
Q 928 4138 513 4856 
z
" id="DejaVuSans-29" transform="scale(0.015625)"/>
      </defs>
      <use xlink:href="#DejaVuSans-6c"/>
      <use x="27.783203" xlink:href="#DejaVuSans-6f"/>
      <use x="88.964844" xlink:href="#DejaVuSans-67"/>
      <use x="152.441406" xlink:href="#DejaVuSans-31"/>
      <use x="216.064453" xlink:href="#DejaVuSans-30"/>
      <use x="279.6875" xlink:href="#DejaVuSans-28"/>
      <use x="318.701172" xlink:href="#DejaVuSans-23"/>
      <use x="402.490234" xlink:href="#DejaVuSans-20"/>
      <use x="434.277344" xlink:href="#DejaVuSans-66"/>
      <use x="463.982422" xlink:href="#DejaVuSans-2d"/>
      <use x="500.066406" xlink:href="#DejaVuSans-65"/>
      <use x="561.589844" xlink:href="#DejaVuSans-76"/>
      <use x="620.769531" xlink:href="#DejaVuSans-61"/>
      <use x="682.048828" xlink:href="#DejaVuSans-6c"/>
      <use x="709.832031" xlink:href="#DejaVuSans-73"/>
      <use x="761.931641" xlink:href="#DejaVuSans-20"/>
      <use x="793.71875" xlink:href="#DejaVuSans-2f"/>
      <use x="827.410156" xlink:href="#DejaVuSans-20"/>
      <use x="859.197266" xlink:href="#DejaVuSans-64"/>
      <use x="922.673828" xlink:href="#DejaVuSans-69"/>
      <use x="950.457031" xlink:href="#DejaVuSans-6d"/>
      <use x="1047.869141" xlink:href="#DejaVuSans-65"/>
      <use x="1109.392578" xlink:href="#DejaVuSans-6e"/>
      <use x="1172.771484" xlink:href="#DejaVuSans-73"/>
      <use x="1224.871094" xlink:href="#DejaVuSans-69"/>
      <use x="1252.654297" xlink:href="#DejaVuSans-6f"/>
      <use x="1313.835938" xlink:href="#DejaVuSans-6e"/>
      <use x="1377.214844" xlink:href="#DejaVuSans-29"/>
     </g>
    </g>
   </g>
   <g id="matplotlib.axis_2">
    <g id="ytick_1">
     <g id="line2d_21">
      <path clip-path="url(#p390c42ef9b)" d="M 57.6 298.944 
L 338.688 298.944 
" style="fill:none;stroke:#b0b0b0;stroke-linecap:square;stroke-width:0.8;"/>
     </g>
     <g id="line2d_22">
      <defs>
       <path d="M 0 0 
L -3.5 0 
" id="m3e1c3b2c93" style="stroke:#000000;stroke-width:0.8;"/>
      </defs>
      <g>
       <use style="stroke:#000000;stroke-width:0.8;" x="57.6" xlink:href="#m3e1c3b2c93" y="298.944"/>
      </g>
     </g>
     <g id="text_6">
      <!-- 0.0 -->
      <g transform="translate(25.155 305.02275)scale(0.16 -0.16)">
       <defs>
        <path d="M 684 794 
L 1344 794 
L 1344 0 
L 684 0 
L 684 794 
z
" id="DejaVuSans-2e" transform="scale(0.015625)"/>
       </defs>
       <use xlink:href="#DejaVuSans-30"/>
       <use x="63.623047" xlink:href="#DejaVuSans-2e"/>
       <use x="95.410156" xlink:href="#DejaVuSans-30"/>
      </g>
     </g>
    </g>
    <g id="ytick_2">
     <g id="line2d_23">
      <path clip-path="url(#p390c42ef9b)" d="M 57.6 245.22202 
L 338.688 245.22202 
" style="fill:none;stroke:#b0b0b0;stroke-linecap:square;stroke-width:0.8;"/>
     </g>
     <g id="line2d_24">
      <g>
       <use style="stroke:#000000;stroke-width:0.8;" x="57.6" xlink:href="#m3e1c3b2c93" y="245.22202"/>
      </g>
     </g>
     <g id="text_7">
      <!-- 0.2 -->
      <g transform="translate(25.155 251.30077)scale(0.16 -0.16)">
       <use xlink:href="#DejaVuSans-30"/>
       <use x="63.623047" xlink:href="#DejaVuSans-2e"/>
       <use x="95.410156" xlink:href="#DejaVuSans-32"/>
      </g>
     </g>
    </g>
    <g id="ytick_3">
     <g id="line2d_25">
      <path clip-path="url(#p390c42ef9b)" d="M 57.6 191.50004 
L 338.688 191.50004 
" style="fill:none;stroke:#b0b0b0;stroke-linecap:square;stroke-width:0.8;"/>
     </g>
     <g id="line2d_26">
      <g>
       <use style="stroke:#000000;stroke-width:0.8;" x="57.6" xlink:href="#m3e1c3b2c93" y="191.50004"/>
      </g>
     </g>
     <g id="text_8">
      <!-- 0.4 -->
      <g transform="translate(25.155 197.57879)scale(0.16 -0.16)">
       <use xlink:href="#DejaVuSans-30"/>
       <use x="63.623047" xlink:href="#DejaVuSans-2e"/>
       <use x="95.410156" xlink:href="#DejaVuSans-34"/>
      </g>
     </g>
    </g>
    <g id="ytick_4">
     <g id="line2d_27">
      <path clip-path="url(#p390c42ef9b)" d="M 57.6 137.778059 
L 338.688 137.778059 
" style="fill:none;stroke:#b0b0b0;stroke-linecap:square;stroke-width:0.8;"/>
     </g>
     <g id="line2d_28">
      <g>
       <use style="stroke:#000000;stroke-width:0.8;" x="57.6" xlink:href="#m3e1c3b2c93" y="137.778059"/>
      </g>
     </g>
     <g id="text_9">
      <!-- 0.6 -->
      <g transform="translate(25.155 143.856809)scale(0.16 -0.16)">
       <use xlink:href="#DejaVuSans-30"/>
       <use x="63.623047" xlink:href="#DejaVuSans-2e"/>
       <use x="95.410156" xlink:href="#DejaVuSans-36"/>
      </g>
     </g>
    </g>
    <g id="ytick_5">
     <g id="line2d_29">
      <path clip-path="url(#p390c42ef9b)" d="M 57.6 84.056079 
L 338.688 84.056079 
" style="fill:none;stroke:#b0b0b0;stroke-linecap:square;stroke-width:0.8;"/>
     </g>
     <g id="line2d_30">
      <g>
       <use style="stroke:#000000;stroke-width:0.8;" x="57.6" xlink:href="#m3e1c3b2c93" y="84.056079"/>
      </g>
     </g>
     <g id="text_10">
      <!-- 0.8 -->
      <g transform="translate(25.155 90.134829)scale(0.16 -0.16)">
       <defs>
        <path d="M 2034 2216 
Q 1584 2216 1326 1975 
Q 1069 1734 1069 1313 
Q 1069 891 1326 650 
Q 1584 409 2034 409 
Q 2484 409 2743 651 
Q 3003 894 3003 1313 
Q 3003 1734 2745 1975 
Q 2488 2216 2034 2216 
z
M 1403 2484 
Q 997 2584 770 2862 
Q 544 3141 544 3541 
Q 544 4100 942 4425 
Q 1341 4750 2034 4750 
Q 2731 4750 3128 4425 
Q 3525 4100 3525 3541 
Q 3525 3141 3298 2862 
Q 3072 2584 2669 2484 
Q 3125 2378 3379 2068 
Q 3634 1759 3634 1313 
Q 3634 634 3220 271 
Q 2806 -91 2034 -91 
Q 1263 -91 848 271 
Q 434 634 434 1313 
Q 434 1759 690 2068 
Q 947 2378 1403 2484 
z
M 1172 3481 
Q 1172 3119 1398 2916 
Q 1625 2713 2034 2713 
Q 2441 2713 2670 2916 
Q 2900 3119 2900 3481 
Q 2900 3844 2670 4047 
Q 2441 4250 2034 4250 
Q 1625 4250 1398 4047 
Q 1172 3844 1172 3481 
z
" id="DejaVuSans-38" transform="scale(0.015625)"/>
       </defs>
       <use xlink:href="#DejaVuSans-30"/>
       <use x="63.623047" xlink:href="#DejaVuSans-2e"/>
       <use x="95.410156" xlink:href="#DejaVuSans-38"/>
      </g>
     </g>
    </g>
    <g id="ytick_6">
     <g id="line2d_31">
      <path clip-path="url(#p390c42ef9b)" d="M 57.6 30.334099 
L 338.688 30.334099 
" style="fill:none;stroke:#b0b0b0;stroke-linecap:square;stroke-width:0.8;"/>
     </g>
     <g id="line2d_32">
      <g>
       <use style="stroke:#000000;stroke-width:0.8;" x="57.6" xlink:href="#m3e1c3b2c93" y="30.334099"/>
      </g>
     </g>
     <g id="text_11">
      <!-- 1.0 -->
      <g transform="translate(25.155 36.412849)scale(0.16 -0.16)">
       <use xlink:href="#DejaVuSans-31"/>
       <use x="63.623047" xlink:href="#DejaVuSans-2e"/>
       <use x="95.410156" xlink:href="#DejaVuSans-30"/>
      </g>
     </g>
    </g>
    <g id="text_12">
     <!-- Fraction of function,target pairs -->
     <g transform="translate(17.619531 297.681)rotate(-90)scale(0.17 -0.17)">
      <defs>
       <path d="M 628 4666 
L 3309 4666 
L 3309 4134 
L 1259 4134 
L 1259 2759 
L 3109 2759 
L 3109 2228 
L 1259 2228 
L 1259 0 
L 628 0 
L 628 4666 
z
" id="DejaVuSans-46" transform="scale(0.015625)"/>
       <path d="M 2631 2963 
Q 2534 3019 2420 3045 
Q 2306 3072 2169 3072 
Q 1681 3072 1420 2755 
Q 1159 2438 1159 1844 
L 1159 0 
L 581 0 
L 581 3500 
L 1159 3500 
L 1159 2956 
Q 1341 3275 1631 3429 
Q 1922 3584 2338 3584 
Q 2397 3584 2469 3576 
Q 2541 3569 2628 3553 
L 2631 2963 
z
" id="DejaVuSans-72" transform="scale(0.015625)"/>
       <path d="M 3122 3366 
L 3122 2828 
Q 2878 2963 2633 3030 
Q 2388 3097 2138 3097 
Q 1578 3097 1268 2742 
Q 959 2388 959 1747 
Q 959 1106 1268 751 
Q 1578 397 2138 397 
Q 2388 397 2633 464 
Q 2878 531 3122 666 
L 3122 134 
Q 2881 22 2623 -34 
Q 2366 -91 2075 -91 
Q 1284 -91 818 406 
Q 353 903 353 1747 
Q 353 2603 823 3093 
Q 1294 3584 2113 3584 
Q 2378 3584 2631 3529 
Q 2884 3475 3122 3366 
z
" id="DejaVuSans-63" transform="scale(0.015625)"/>
       <path d="M 1172 4494 
L 1172 3500 
L 2356 3500 
L 2356 3053 
L 1172 3053 
L 1172 1153 
Q 1172 725 1289 603 
Q 1406 481 1766 481 
L 2356 481 
L 2356 0 
L 1766 0 
Q 1100 0 847 248 
Q 594 497 594 1153 
L 594 3053 
L 172 3053 
L 172 3500 
L 594 3500 
L 594 4494 
L 1172 4494 
z
" id="DejaVuSans-74" transform="scale(0.015625)"/>
       <path d="M 544 1381 
L 544 3500 
L 1119 3500 
L 1119 1403 
Q 1119 906 1312 657 
Q 1506 409 1894 409 
Q 2359 409 2629 706 
Q 2900 1003 2900 1516 
L 2900 3500 
L 3475 3500 
L 3475 0 
L 2900 0 
L 2900 538 
Q 2691 219 2414 64 
Q 2138 -91 1772 -91 
Q 1169 -91 856 284 
Q 544 659 544 1381 
z
M 1991 3584 
L 1991 3584 
z
" id="DejaVuSans-75" transform="scale(0.015625)"/>
       <path d="M 750 794 
L 1409 794 
L 1409 256 
L 897 -744 
L 494 -744 
L 750 256 
L 750 794 
z
" id="DejaVuSans-2c" transform="scale(0.015625)"/>
       <path d="M 1159 525 
L 1159 -1331 
L 581 -1331 
L 581 3500 
L 1159 3500 
L 1159 2969 
Q 1341 3281 1617 3432 
Q 1894 3584 2278 3584 
Q 2916 3584 3314 3078 
Q 3713 2572 3713 1747 
Q 3713 922 3314 415 
Q 2916 -91 2278 -91 
Q 1894 -91 1617 61 
Q 1341 213 1159 525 
z
M 3116 1747 
Q 3116 2381 2855 2742 
Q 2594 3103 2138 3103 
Q 1681 3103 1420 2742 
Q 1159 2381 1159 1747 
Q 1159 1113 1420 752 
Q 1681 391 2138 391 
Q 2594 391 2855 752 
Q 3116 1113 3116 1747 
z
" id="DejaVuSans-70" transform="scale(0.015625)"/>
      </defs>
      <use xlink:href="#DejaVuSans-46"/>
      <use x="50.269531" xlink:href="#DejaVuSans-72"/>
      <use x="91.382812" xlink:href="#DejaVuSans-61"/>
      <use x="152.662109" xlink:href="#DejaVuSans-63"/>
      <use x="207.642578" xlink:href="#DejaVuSans-74"/>
      <use x="246.851562" xlink:href="#DejaVuSans-69"/>
      <use x="274.634766" xlink:href="#DejaVuSans-6f"/>
      <use x="335.816406" xlink:href="#DejaVuSans-6e"/>
      <use x="399.195312" xlink:href="#DejaVuSans-20"/>
      <use x="430.982422" xlink:href="#DejaVuSans-6f"/>
      <use x="492.164062" xlink:href="#DejaVuSans-66"/>
      <use x="527.369141" xlink:href="#DejaVuSans-20"/>
      <use x="559.15625" xlink:href="#DejaVuSans-66"/>
      <use x="594.361328" xlink:href="#DejaVuSans-75"/>
      <use x="657.740234" xlink:href="#DejaVuSans-6e"/>
      <use x="721.119141" xlink:href="#DejaVuSans-63"/>
      <use x="776.099609" xlink:href="#DejaVuSans-74"/>
      <use x="815.308594" xlink:href="#DejaVuSans-69"/>
      <use x="843.091797" xlink:href="#DejaVuSans-6f"/>
      <use x="904.273438" xlink:href="#DejaVuSans-6e"/>
      <use x="967.652344" xlink:href="#DejaVuSans-2c"/>
      <use x="999.439453" xlink:href="#DejaVuSans-74"/>
      <use x="1038.648438" xlink:href="#DejaVuSans-61"/>
      <use x="1099.927734" xlink:href="#DejaVuSans-72"/>
      <use x="1139.291016" xlink:href="#DejaVuSans-67"/>
      <use x="1202.767578" xlink:href="#DejaVuSans-65"/>
      <use x="1264.291016" xlink:href="#DejaVuSans-74"/>
      <use x="1303.5" xlink:href="#DejaVuSans-20"/>
      <use x="1335.287109" xlink:href="#DejaVuSans-70"/>
      <use x="1398.763672" xlink:href="#DejaVuSans-61"/>
      <use x="1460.042969" xlink:href="#DejaVuSans-69"/>
      <use x="1487.826172" xlink:href="#DejaVuSans-72"/>
      <use x="1528.939453" xlink:href="#DejaVuSans-73"/>
     </g>
    </g>
   </g>
   <g id="line2d_33">
    <defs>
     <path d="M 0 1.5 
C 0.397805 1.5 0.77937 1.341951 1.06066 1.06066 
C 1.341951 0.77937 1.5 0.397805 1.5 0 
C 1.5 -0.397805 1.341951 -0.77937 1.06066 -1.06066 
C 0.77937 -1.341951 0.397805 -1.5 0 -1.5 
C -0.397805 -1.5 -0.77937 -1.341951 -1.06066 -1.06066 
C -1.341951 -0.77937 -1.5 -0.397805 -1.5 0 
C -1.5 0.397805 -1.341951 0.77937 -1.06066 1.06066 
C -0.77937 1.341951 -0.397805 1.5 0 1.5 
z
" id="m1f003dfa8f" style="stroke:#f5deb3;"/>
    </defs>
    <g>
     <use style="fill:#f5deb3;stroke:#f5deb3;" x="132.501978" xlink:href="#m1f003dfa8f" y="30.334099"/>
     <use style="fill:#f5deb3;stroke:#f5deb3;" x="132.501978" xlink:href="#m1f003dfa8f" y="30.334099"/>
    </g>
   </g>
   <g id="line2d_34">
    <defs>
     <path d="M 0 1.5 
C 0.397805 1.5 0.77937 1.341951 1.06066 1.06066 
C 1.341951 0.77937 1.5 0.397805 1.5 0 
C 1.5 -0.397805 1.341951 -0.77937 1.06066 -1.06066 
C 0.77937 -1.341951 0.397805 -1.5 0 -1.5 
C -0.397805 -1.5 -0.77937 -1.341951 -1.06066 -1.06066 
C -1.341951 -0.77937 -1.5 -0.397805 -1.5 0 
C -1.5 0.397805 -1.341951 0.77937 -1.06066 1.06066 
C -0.77937 1.341951 -0.397805 1.5 0 1.5 
z
" id="m172530bfb0" style="stroke:#000080;"/>
    </defs>
    <g>
     <use style="fill:#000080;stroke:#000080;" x="289.362398" xlink:href="#m172530bfb0" y="35.60096"/>
     <use style="fill:#000080;stroke:#000080;" x="289.362398" xlink:href="#m172530bfb0" y="35.60096"/>
    </g>
   </g>
   <g id="line2d_35">
    <path d="M 38.440992 298.944 
L 38.440992 278.929929 
L 50.52898 278.929929 
L 50.52898 275.243126 
L 57.6 275.243126 
L 57.6 269.449579 
L 62.616969 269.449579 
L 62.616969 267.342835 
L 66.508432 267.342835 
L 66.508432 265.236091 
L 69.687988 265.236091 
L 69.687988 264.182719 
L 72.376266 264.182719 
L 72.376266 262.60266 
L 74.704957 262.60266 
L 74.704957 261.022602 
L 76.759008 261.022602 
L 76.759008 260.495916 
L 78.59642 260.495916 
L 78.59642 259.442544 
L 81.775977 259.442544 
L 81.775977 258.915858 
L 84.464254 258.915858 
L 84.464254 256.809114 
L 86.792945 256.809114 
L 86.792945 256.282427 
L 87.850195 256.282427 
L 87.850195 254.702369 
L 88.846997 254.702369 
L 88.846997 253.648997 
L 93.121756 253.648997 
L 93.121756 252.595625 
L 95.918017 252.595625 
L 95.918017 251.542253 
L 96.552242 251.542253 
L 96.552242 251.015567 
L 101.877879 251.015567 
L 101.877879 250.488881 
L 103.623262 250.488881 
L 103.623262 249.962195 
L 104.434538 249.962195 
L 104.434538 248.908822 
L 106.311539 248.908822 
L 106.311539 248.382136 
L 107.347841 248.382136 
L 107.347841 247.85545 
L 107.680028 247.85545 
L 107.680028 246.275392 
L 108.948899 246.275392 
L 108.948899 245.22202 
L 109.252198 245.22202 
L 109.252198 244.695334 
L 111.767808 244.695334 
L 111.767808 242.061903 
L 112.531694 242.061903 
L 112.531694 241.008531 
L 113.500792 241.008531 
L 113.500792 240.481845 
L 114.193835 240.481845 
L 114.193835 239.955159 
L 116.914437 239.955159 
L 116.914437 239.428473 
L 117.107138 239.428473 
L 117.107138 238.901787 
L 117.297733 238.901787 
L 117.297733 237.321729 
L 118.039942 237.321729 
L 118.039942 236.268356 
L 119.097192 236.268356 
L 119.097192 234.161612 
L 120.571812 234.161612 
L 120.571812 233.634926 
L 122.643312 233.634926 
L 122.643312 233.10824 
L 123.056911 233.10824 
L 123.056911 231.528182 
L 124.494669 231.528182 
L 124.494669 229.948123 
L 124.619683 229.948123 
L 124.619683 228.894751 
L 124.743806 228.894751 
L 124.743806 228.368065 
L 127.165014 228.368065 
L 127.165014 227.841379 
L 128.709321 227.841379 
L 128.709321 226.261321 
L 129.195127 226.261321 
L 129.195127 225.734635 
L 129.853291 225.734635 
L 129.853291 223.627891 
L 131.013364 223.627891 
L 131.013364 222.574518 
L 133.800029 222.574518 
L 133.800029 221.521146 
L 134.091907 221.521146 
L 134.091907 220.99446 
L 135.280614 220.99446 
L 135.280614 220.467774 
L 135.943785 220.467774 
L 135.943785 219.941088 
L 138.026733 219.941088 
L 138.026733 219.414402 
L 138.538853 219.414402 
L 138.538853 217.834344 
L 139.939053 217.834344 
L 139.939053 217.307658 
L 140.549236 217.307658 
L 140.549236 216.780971 
L 140.993259 216.780971 
L 140.993259 216.254285 
L 141.426256 216.254285 
L 141.426256 215.727599 
L 142.575505 215.727599 
L 142.575505 215.200913 
L 143.653678 215.200913 
L 143.695448 214.147541 
L 143.943994 214.147541 
L 143.943994 212.567483 
L 144.510517 212.567483 
L 144.510517 212.040797 
L 146.107383 212.040797 
L 146.107383 210.460738 
L 146.538004 210.460738 
L 146.538004 209.934052 
L 148.064279 209.934052 
L 148.064279 209.407366 
L 149.286939 209.407366 
L 149.286939 208.88068 
L 150.401087 208.88068 
L 150.457801 207.827308 
L 150.849711 207.827308 
L 150.849711 207.300622 
L 151.260066 207.300622 
L 151.260066 205.720564 
L 151.634543 205.720564 
L 151.634543 205.193878 
L 151.897188 205.193878 
L 151.897188 204.667192 
L 152.309362 204.667192 
L 152.309362 204.140506 
L 152.909913 204.140506 
L 152.909913 203.613819 
L 153.466662 203.613819 
L 153.561699 200.980389 
L 154.796449 200.980389 
L 154.884527 199.927017 
L 155.081089 199.927017 
L 155.167744 197.820273 
L 156.114049 197.820273 
L 156.154939 196.240214 
L 156.776762 196.240214 
L 156.776762 195.186842 
L 156.933697 195.186842 
L 156.933697 193.606784 
L 157.660438 193.606784 
L 157.660438 193.080098 
L 158.177196 193.080098 
L 158.285965 188.339923 
L 158.465753 188.339923 
L 158.465753 187.813237 
L 159.0116 187.813237 
L 159.0116 187.286551 
L 159.490356 187.286551 
L 159.490356 186.759865 
L 159.6749 186.759865 
L 159.6749 185.706493 
L 159.791329 185.706493 
L 159.791329 185.179807 
L 160.152267 185.179807 
L 160.152267 184.653121 
L 161.540659 184.653121 
L 161.64531 183.073062 
L 161.838011 183.073062 
L 161.852746 181.493004 
L 161.999419 181.493004 
L 161.999419 180.439632 
L 162.159347 180.439632 
L 162.159347 179.912946 
L 162.303474 179.912946 
L 162.303474 179.38626 
L 163.089286 179.38626 
L 163.130401 178.332888 
L 164.47356 178.332888 
L 164.47356 176.752829 
L 165.423123 176.752829 
L 165.459092 175.172771 
L 165.55465 175.172771 
L 165.55465 174.646085 
L 166.369174 174.646085 
L 166.369174 173.592713 
L 167.331204 173.592713 
L 167.331204 173.066027 
L 168.263336 173.066027 
L 168.263336 172.539341 
L 168.395414 172.539341 
L 168.395414 172.012655 
L 168.60668 172.012655 
L 168.60668 171.485969 
L 168.726264 171.485969 
L 168.726264 170.959282 
L 169.635673 170.959282 
L 169.635673 169.90591 
L 170.128262 169.90591 
L 170.128262 168.325852 
L 170.571619 168.325852 
L 170.571619 167.799166 
L 170.951613 167.799166 
L 170.969087 166.745794 
L 171.306381 166.745794 
L 171.306381 165.692422 
L 172.799511 165.692422 
L 172.854463 164.112363 
L 173.080293 164.112363 
L 173.080293 163.058991 
L 173.568564 163.058991 
L 173.568564 160.425561 
L 174.196608 160.425561 
L 174.247335 159.372189 
L 174.498781 159.372189 
L 174.59126 158.318817 
L 174.69736 158.318817 
L 174.69736 157.79213 
L 175.691027 157.79213 
L 175.691027 155.1587 
L 175.863367 155.1587 
L 175.863367 153.051956 
L 176.203019 153.051956 
L 176.203019 152.52527 
L 176.55521 152.52527 
L 176.55521 151.998584 
L 176.725536 151.998584 
L 176.750628 148.838467 
L 176.906643 148.838467 
L 176.925272 147.785095 
L 177.565038 147.785095 
L 177.565038 147.258409 
L 178.58177 147.258409 
L 178.58177 146.731723 
L 178.92822 146.731723 
L 179.005507 145.678351 
L 179.27877 145.678351 
L 179.381498 144.624978 
L 179.521099 144.624978 
L 179.563829 142.518234 
L 179.670199 142.518234 
L 179.670199 141.991548 
L 179.870531 141.991548 
L 179.943762 140.41149 
L 180.559149 140.41149 
L 180.559149 139.884804 
L 180.942883 139.884804 
L 180.952739 138.304745 
L 181.279719 138.304745 
L 181.279719 137.778059 
L 181.591186 137.778059 
L 181.624399 136.724687 
L 181.939137 136.724687 
L 181.939137 136.198001 
L 182.050511 136.198001 
L 182.147384 133.564571 
L 182.234569 133.564571 
L 182.234569 133.037885 
L 182.650671 133.037885 
L 182.650671 132.511199 
L 184.650012 132.511199 
L 184.650012 131.984513 
L 185.2185 131.984513 
L 185.303157 130.93114 
L 186.010302 130.93114 
L 186.010302 130.404454 
L 186.219158 130.404454 
L 186.219158 129.877768 
L 186.568929 129.877768 
L 186.568929 129.351082 
L 187.779016 129.351082 
L 187.802315 128.29771 
L 188.611474 128.29771 
L 188.611474 127.771024 
L 188.960428 127.771024 
L 188.960428 126.190966 
L 189.167728 126.190966 
L 189.186172 125.137593 
L 189.673953 125.137593 
L 189.673953 124.610907 
L 190.293233 124.610907 
L 190.293233 124.084221 
L 190.46539 124.084221 
L 190.46539 123.030849 
L 191.007908 123.030849 
L 191.007908 122.504163 
L 191.547478 122.504163 
L 191.547478 121.450791 
L 192.036969 121.450791 
L 192.138429 119.870733 
L 192.24188 119.870733 
L 192.349848 118.817361 
L 192.354972 118.817361 
L 192.390803 116.710616 
L 192.837568 116.710616 
L 192.84006 115.657244 
L 193.243981 115.657244 
L 193.243981 115.130558 
L 193.818718 115.130558 
L 193.818718 114.603872 
L 194.006163 114.603872 
L 194.006163 113.023814 
L 194.230771 113.023814 
L 194.230771 112.497128 
L 194.468417 112.497128 
L 194.468417 111.970441 
L 194.954085 111.970441 
L 194.954085 111.443755 
L 195.256053 111.443755 
L 195.256053 110.390383 
L 196.438545 110.390383 
L 196.466902 107.756953 
L 196.628061 107.756953 
L 196.680119 105.123522 
L 196.763885 105.123522 
L 196.763885 104.596836 
L 197.604799 104.596836 
L 197.604799 104.07015 
L 198.597914 104.07015 
L 198.63191 103.016778 
L 198.987555 103.016778 
L 198.987555 102.490092 
L 199.243138 102.490092 
L 199.243138 101.963406 
L 199.454151 101.963406 
L 199.454151 101.43672 
L 199.721516 101.43672 
L 199.721516 100.910034 
L 200.307696 100.910034 
L 200.307696 100.383348 
L 200.611919 100.383348 
L 200.611919 99.856662 
L 200.866951 99.856662 
L 200.866951 99.329976 
L 201.417972 99.329976 
L 201.417972 98.803289 
L 203.065425 98.803289 
L 203.065425 98.276603 
L 203.699749 98.276603 
L 203.810348 96.696545 
L 203.854127 96.696545 
L 203.854127 96.169859 
L 204.660644 96.169859 
L 204.660644 95.643173 
L 204.789209 95.643173 
L 204.789209 95.116487 
L 205.244102 95.116487 
L 205.244102 94.589801 
L 205.383022 94.589801 
L 205.383022 94.063115 
L 206.117442 94.063115 
L 206.117442 93.536429 
L 206.301496 93.536429 
L 206.352088 92.483056 
L 207.194805 92.483056 
L 207.277751 91.429684 
L 208.279512 91.429684 
L 208.279512 90.902998 
L 208.605413 90.902998 
L 208.605413 90.376312 
L 209.30553 90.376312 
L 209.30553 88.796254 
L 209.942213 88.796254 
L 209.942213 88.269568 
L 213.045908 88.269568 
L 213.045908 87.742882 
L 213.249643 87.742882 
L 213.249643 87.216196 
L 213.728506 87.216196 
L 213.728506 86.68951 
L 215.472098 86.68951 
L 215.472098 86.162824 
L 216.287797 86.162824 
L 216.287797 85.636137 
L 217.247467 85.636137 
L 217.247467 85.109451 
L 217.571463 85.109451 
L 217.676139 84.056079 
L 218.204266 84.056079 
L 218.204266 83.529393 
L 219.052083 83.529393 
L 219.052083 83.002707 
L 220.426511 83.002707 
L 220.426511 82.476021 
L 221.652802 82.476021 
L 221.71429 80.895963 
L 225.133115 80.895963 
L 225.222448 79.842591 
L 226.364021 79.842591 
L 226.364021 79.315904 
L 227.037823 79.315904 
L 227.037823 78.789218 
L 229.356036 78.789218 
L 229.356036 77.735846 
L 229.562337 77.735846 
L 229.562337 74.57573 
L 229.898856 74.57573 
L 229.946998 72.468985 
L 230.233093 72.468985 
L 230.233093 71.942299 
L 231.196241 71.942299 
L 231.196241 71.415613 
L 232.224721 71.415613 
L 232.307859 70.362241 
L 232.661159 70.362241 
L 232.661159 69.835555 
L 233.774183 69.835555 
L 233.774183 69.308869 
L 234.180692 69.308869 
L 234.180692 68.782183 
L 236.843542 68.782183 
L 236.843542 68.255497 
L 237.336487 68.255497 
L 237.336487 67.202125 
L 237.707629 67.202125 
L 237.707629 66.675439 
L 238.248189 66.675439 
L 238.248189 66.148752 
L 238.839279 66.148752 
L 238.839279 65.622066 
L 240.476597 65.622066 
L 240.509179 64.568694 
L 240.657378 64.568694 
L 240.676637 62.988636 
L 241.809028 62.988636 
L 241.809028 62.46195 
L 242.103405 62.46195 
L 242.103405 61.408578 
L 242.854664 61.408578 
L 242.854664 60.881892 
L 245.057544 60.881892 
L 245.057544 60.355206 
L 247.261724 60.355206 
L 247.274914 59.301833 
L 247.752415 59.301833 
L 247.752415 58.775147 
L 252.050617 58.775147 
L 252.050617 57.721775 
L 252.80836 57.721775 
L 252.80836 57.195089 
L 253.219005 57.195089 
L 253.219005 56.141717 
L 253.408472 56.141717 
L 253.408472 55.615031 
L 254.608989 55.615031 
L 254.608989 54.561659 
L 255.04703 54.561659 
L 255.04703 54.034973 
L 255.787612 54.034973 
L 255.795702 52.9816 
L 256.74431 52.9816 
L 256.74431 52.454914 
L 257.26484 52.454914 
L 257.269796 51.401542 
L 258.876987 51.401542 
L 258.876987 50.34817 
L 259.284222 50.34817 
L 259.284222 49.821484 
L 259.675419 49.821484 
L 259.675419 48.768112 
L 261.488894 48.768112 
L 261.494729 47.71474 
L 262.184042 47.71474 
L 262.184042 47.188054 
L 264.078805 47.188054 
L 264.078805 46.661368 
L 264.376767 46.661368 
L 264.376767 46.134681 
L 265.364681 46.134681 
L 265.364681 45.607995 
L 267.583083 45.607995 
L 267.583083 44.554623 
L 268.076079 44.554623 
L 268.076079 43.501251 
L 268.35244 43.501251 
L 268.35244 42.974565 
L 272.472253 42.974565 
L 272.472253 42.447879 
L 272.687414 42.447879 
L 272.687414 41.921193 
L 273.099787 41.921193 
L 273.099787 41.394507 
L 273.369384 41.394507 
L 273.369384 40.341135 
L 275.671224 40.341135 
L 275.671224 39.814448 
L 276.717406 39.814448 
L 276.717406 39.287762 
L 277.00868 39.287762 
L 277.00868 38.761076 
L 279.336046 38.761076 
L 279.336046 38.23439 
L 279.525026 38.23439 
L 279.525026 37.707704 
L 279.773294 37.707704 
L 279.773294 37.181018 
L 280.368709 37.181018 
L 280.368709 36.654332 
L 282.67943 36.654332 
L 282.67943 36.127646 
L 289.362398 36.127646 
L 289.362398 35.60096 
L 338.688 35.60096 
L 338.688 35.60096 
" style="fill:none;stroke:#000080;stroke-linecap:square;stroke-width:1.5;"/>
   </g>
   <g id="line2d_36">
    <defs>
     <path d="M 0 6 
C 1.591219 6 3.117479 5.367802 4.242641 4.242641 
C 5.367802 3.117479 6 1.591219 6 0 
C 6 -1.591219 5.367802 -3.117479 4.242641 -4.242641 
C 3.117479 -5.367802 1.591219 -6 0 -6 
C -1.591219 -6 -3.117479 -5.367802 -4.242641 -4.242641 
C -5.367802 -3.117479 -6 -1.591219 -6 0 
C -6 1.591219 -5.367802 3.117479 -4.242641 4.242641 
C -3.117479 5.367802 -1.591219 6 0 6 
z
" id="m9938d6b465" style="stroke:#000080;stroke-width:1.5;"/>
    </defs>
    <g>
     <use style="fill-opacity:0;stroke:#000080;stroke-width:1.5;" x="103.623262" xlink:href="#m9938d6b465" y="250.488881"/>
     <use style="fill-opacity:0;stroke:#000080;stroke-width:1.5;" x="165.55465" xlink:href="#m9938d6b465" y="175.172771"/>
     <use style="fill-opacity:0;stroke:#000080;stroke-width:1.5;" x="218.204266" xlink:href="#m9938d6b465" y="83.529393"/>
     <use style="fill-opacity:0;stroke:#000080;stroke-width:1.5;" x="273.369384" xlink:href="#m9938d6b465" y="41.394507"/>
     <use style="fill-opacity:0;stroke:#000080;stroke-width:1.5;" x="289.362398" xlink:href="#m9938d6b465" y="35.60096"/>
     <use style="fill-opacity:0;stroke:#000080;stroke-width:1.5;" x="338.688" xlink:href="#m9938d6b465" y="35.60096"/>
    </g>
   </g>
   <g id="line2d_37">
    <path style="fill:none;stroke:#000080;stroke-linecap:square;stroke-width:1.5;"/>
    <g/>
   </g>
   <g id="line2d_38">
    <path clip-path="url(#p390c42ef9b)" d="M 227.130146 78.789218 
" style="fill:none;stroke:#000080;stroke-linecap:square;stroke-width:1.5;"/>
    <defs>
     <path d="M -12 12 
L 12 -12 
M -12 -12 
L 12 12 
" id="me0592fb399" style="stroke:#000080;"/>
    </defs>
    <g clip-path="url(#p390c42ef9b)">
     <use style="fill:#000080;stroke:#000080;" x="227.130146" xlink:href="#me0592fb399" y="78.789218"/>
    </g>
   </g>
   <g id="line2d_39">
    <defs>
     <path d="M 0 1.5 
C 0.397805 1.5 0.77937 1.341951 1.06066 1.06066 
C 1.341951 0.77937 1.5 0.397805 1.5 0 
C 1.5 -0.397805 1.341951 -0.77937 1.06066 -1.06066 
C 0.77937 -1.341951 0.397805 -1.5 0 -1.5 
C -0.397805 -1.5 -0.77937 -1.341951 -1.06066 -1.06066 
C -1.341951 -0.77937 -1.5 -0.397805 -1.5 0 
C -1.5 0.397805 -1.341951 0.77937 -1.06066 1.06066 
C -0.77937 1.341951 -0.397805 1.5 0 1.5 
z
" id="m32405ac900" style="stroke:#ff00ff;"/>
    </defs>
    <g>
     <use style="fill:#ff00ff;stroke:#ff00ff;" x="298.712549" xlink:href="#m32405ac900" y="30.334099"/>
     <use style="fill:#ff00ff;stroke:#ff00ff;" x="298.712549" xlink:href="#m32405ac900" y="30.334099"/>
    </g>
   </g>
   <g id="line2d_40">
    <path d="M 38.440992 298.944 
L 38.440992 284.19679 
L 50.52898 284.19679 
L 50.52898 273.663068 
L 57.6 273.663068 
L 57.6 266.816149 
L 62.616969 266.816149 
L 62.616969 264.709405 
L 66.508432 264.709405 
L 66.508432 263.129347 
L 69.687988 263.129347 
L 69.687988 259.96923 
L 74.704957 259.96923 
L 74.704957 258.915858 
L 76.759008 258.915858 
L 76.759008 257.862486 
L 78.59642 257.862486 
L 78.59642 256.809114 
L 81.775977 256.809114 
L 81.775977 255.755741 
L 87.850195 255.755741 
L 87.850195 255.229055 
L 89.78989 255.229055 
L 89.78989 254.175683 
L 93.121756 254.175683 
L 93.121756 253.648997 
L 93.863965 253.648997 
L 93.863965 253.122311 
L 95.918017 253.122311 
L 95.918017 251.542253 
L 97.16421 251.542253 
L 97.16421 251.015567 
L 98.32726 251.015567 
L 98.32726 250.488881 
L 99.938184 250.488881 
L 99.938184 249.962195 
L 104.826449 249.962195 
L 104.826449 248.908822 
L 107.347841 248.908822 
L 107.347841 248.382136 
L 107.680028 248.382136 
L 107.680028 247.85545 
L 108.006005 247.85545 
L 108.006005 246.275392 
L 110.131676 246.275392 
L 110.131676 245.748706 
L 111.767808 245.748706 
L 111.767808 244.168648 
L 112.026172 244.168648 
L 112.026172 243.115275 
L 112.779064 243.115275 
L 112.779064 242.588589 
L 119.43583 242.588589 
L 119.43583 242.061903 
L 119.931767 242.061903 
L 119.931767 241.008531 
L 120.728219 241.008531 
L 120.728219 240.481845 
L 121.489881 240.481845 
L 121.489881 239.428473 
L 121.638301 239.428473 
L 121.638301 238.375101 
L 123.327293 238.375101 
L 123.327293 237.848415 
L 124.368753 237.848415 
L 124.368753 236.268356 
L 127.48501 236.268356 
L 127.48501 232.581554 
L 128.209594 232.581554 
L 128.209594 232.054868 
L 128.411207 232.054868 
L 128.411207 231.001496 
L 129.099042 231.001496 
L 129.099042 230.47481 
L 129.667765 230.47481 
L 129.667765 229.421437 
L 131.013364 229.421437 
L 131.013364 227.841379 
L 131.77355 227.841379 
L 131.77355 227.314693 
L 132.501978 227.314693 
L 132.501978 226.788007 
L 135.813153 226.788007 
L 135.813153 226.261321 
L 136.582658 226.261321 
L 136.582658 225.734635 
L 138.927025 225.734635 
L 138.927025 224.681263 
L 139.625765 224.681263 
L 139.625765 223.627891 
L 140.599134 223.627891 
L 140.599134 223.101204 
L 140.89556 223.101204 
L 140.89556 222.047832 
L 143.861538 222.047832 
L 143.861538 220.99446 
L 144.229555 220.99446 
L 144.229555 219.941088 
L 144.430703 219.941088 
L 144.430703 219.414402 
L 145.591172 219.414402 
L 145.591172 218.887716 
L 146.359869 218.887716 
L 146.359869 218.36103 
L 147.130404 218.36103 
L 147.130404 217.834344 
L 148.701984 217.834344 
L 148.701984 216.254285 
L 153.561699 216.254285 
L 153.561699 215.727599 
L 153.679772 215.727599 
L 153.679772 215.200913 
L 154.006185 215.200913 
L 154.006185 213.620855 
L 155.0376 213.620855 
L 155.0376 212.567483 
L 156.297301 212.567483 
L 156.357959 210.987425 
L 157.147202 210.987425 
L 157.224197 209.407366 
L 157.28172 209.407366 
L 157.28172 208.88068 
L 157.396202 208.88068 
L 157.396202 207.827308 
L 159.0116 207.827308 
L 159.0116 207.300622 
L 159.320876 207.300622 
L 159.320876 205.720564 
L 159.6749 205.720564 
L 159.6749 204.667192 
L 161.734513 204.667192 
L 161.734513 204.140506 
L 161.911563 204.140506 
L 161.911563 201.507075 
L 162.043181 201.507075 
L 162.043181 200.453703 
L 162.588203 200.453703 
L 162.588203 199.927017 
L 165.411116 199.927017 
L 165.411116 199.400331 
L 166.684622 199.400331 
L 166.684622 198.873645 
L 167.693205 198.873645 
L 167.693205 197.293586 
L 170.58055 197.293586 
L 170.660731 196.240214 
L 170.828801 196.240214 
L 170.828801 194.13347 
L 171.871027 194.13347 
L 171.871027 193.606784 
L 172.530112 193.606784 
L 172.530112 193.080098 
L 172.649478 193.080098 
L 172.704904 192.026726 
L 174.290699 192.026726 
L 174.290699 191.50004 
L 175.537141 191.50004 
L 175.537141 190.973354 
L 175.724302 190.973354 
L 175.724302 190.446667 
L 175.896315 190.446667 
L 176.001331 188.866609 
L 176.183602 188.866609 
L 176.261139 187.813237 
L 176.687829 187.813237 
L 176.769424 185.179807 
L 177.067432 185.179807 
L 177.122746 183.073062 
L 177.293721 183.073062 
L 177.293721 182.546376 
L 177.690222 182.546376 
L 177.690222 181.493004 
L 178.325932 181.493004 
L 178.400227 179.38626 
L 178.468527 179.38626 
L 178.468527 177.279515 
L 178.972426 177.279515 
L 178.972426 176.752829 
L 180.744595 176.752829 
L 180.744595 176.226143 
L 180.977353 176.226143 
L 181.050988 175.172771 
L 181.138942 175.172771 
L 181.138942 174.646085 
L 182.05976 174.646085 
L 182.05976 173.592713 
L 182.384967 173.592713 
L 182.384967 173.066027 
L 182.713129 173.066027 
L 182.74872 171.485969 
L 182.916789 171.485969 
L 182.916789 170.432596 
L 183.641016 170.432596 
L 183.641016 169.379224 
L 185.310832 169.379224 
L 185.310832 168.852538 
L 185.531972 168.852538 
L 185.531972 168.325852 
L 185.7466 168.325852 
L 185.750342 167.27248 
L 186.021357 167.27248 
L 186.021357 166.219108 
L 186.725304 166.219108 
L 186.725304 165.692422 
L 187.013042 165.692422 
L 187.013042 165.165736 
L 187.442729 165.165736 
L 187.551048 163.585677 
L 187.668757 163.585677 
L 187.668757 162.532305 
L 188.274828 162.532305 
L 188.326548 160.425561 
L 188.655873 160.425561 
L 188.766378 157.265444 
L 188.947974 157.265444 
L 188.947974 156.738758 
L 189.329983 156.738758 
L 189.329983 156.212072 
L 189.581087 156.212072 
L 189.581087 155.685386 
L 189.796021 155.685386 
L 189.796021 154.632014 
L 189.926077 154.632014 
L 189.973131 153.578642 
L 190.319165 153.578642 
L 190.396731 152.52527 
L 192.218657 152.52527 
L 192.295947 150.418525 
L 192.349848 150.418525 
L 192.390803 148.838467 
L 192.619402 148.838467 
L 192.619402 147.785095 
L 193.42322 147.785095 
L 193.432856 146.731723 
L 193.653034 146.731723 
L 193.653034 145.678351 
L 193.818718 145.678351 
L 193.818718 145.151665 
L 194.126931 145.151665 
L 194.126931 144.624978 
L 194.301947 144.624978 
L 194.377398 141.464862 
L 194.581527 141.464862 
L 194.581527 140.938176 
L 194.852256 140.938176 
L 194.852256 140.41149 
L 195.288562 140.41149 
L 195.331815 138.304745 
L 195.407249 138.304745 
L 195.497341 137.251373 
L 195.540079 137.251373 
L 195.540079 136.724687 
L 195.716332 136.724687 
L 195.716332 136.198001 
L 195.932606 136.198001 
L 195.932606 135.671315 
L 196.133859 135.671315 
L 196.133859 134.617943 
L 196.69211 134.617943 
L 196.72604 133.037885 
L 197.085219 133.037885 
L 197.085219 132.511199 
L 197.350792 132.511199 
L 197.350792 130.404454 
L 197.601007 130.404454 
L 197.601007 129.351082 
L 197.787747 129.351082 
L 197.787747 128.29771 
L 198.087229 128.29771 
L 198.138791 126.190966 
L 199.045258 126.190966 
L 199.120161 124.610907 
L 199.55447 124.610907 
L 199.55447 123.557535 
L 199.746687 123.557535 
L 199.845342 120.924105 
L 200.427443 120.924105 
L 200.427443 120.397419 
L 200.87324 120.397419 
L 200.97043 117.763988 
L 201.170929 117.763988 
L 201.170929 117.237302 
L 201.953592 117.237302 
L 202.046429 115.130558 
L 202.447416 115.130558 
L 202.447416 114.603872 
L 203.129077 114.603872 
L 203.229615 108.283639 
L 203.274875 108.283639 
L 203.274875 107.756953 
L 203.763796 107.756953 
L 203.802377 106.176895 
L 204.260106 106.176895 
L 204.260106 105.650209 
L 204.389077 105.650209 
L 204.389077 105.123522 
L 204.683401 105.123522 
L 204.742682 104.07015 
L 205.730317 104.07015 
L 205.730317 103.543464 
L 206.033453 103.543464 
L 206.075498 101.963406 
L 206.749381 101.963406 
L 206.794215 100.910034 
L 207.211207 100.910034 
L 207.211207 100.383348 
L 207.439232 100.383348 
L 207.439232 99.856662 
L 207.774715 99.856662 
L 207.774715 99.329976 
L 208.401419 99.329976 
L 208.401419 98.803289 
L 208.602386 98.803289 
L 208.602386 98.276603 
L 208.845903 98.276603 
L 208.946126 96.696545 
L 209.122347 96.696545 
L 209.122347 95.116487 
L 209.268659 95.116487 
L 209.268659 94.589801 
L 209.738232 94.589801 
L 209.738232 94.063115 
L 209.864474 94.063115 
L 209.864474 92.483056 
L 209.996332 92.483056 
L 209.996332 90.902998 
L 210.352286 90.902998 
L 210.352286 90.376312 
L 210.467829 90.376312 
L 210.544736 89.32294 
L 210.717217 89.32294 
L 210.717217 88.796254 
L 211.040479 88.796254 
L 211.040479 88.269568 
L 211.27321 88.269568 
L 211.309538 85.636137 
L 211.616159 85.636137 
L 211.616159 85.109451 
L 211.885745 85.109451 
L 211.885745 84.582765 
L 212.337945 84.582765 
L 212.337945 84.056079 
L 213.413537 84.056079 
L 213.413537 83.529393 
L 214.090271 83.529393 
L 214.090271 83.002707 
L 215.181117 83.002707 
L 215.181117 82.476021 
L 216.118109 82.476021 
L 216.118109 81.949335 
L 216.610827 81.949335 
L 216.610827 81.422649 
L 217.412653 81.422649 
L 217.412653 80.895963 
L 217.549123 80.895963 
L 217.549123 80.369277 
L 218.099795 80.369277 
L 218.099795 79.842591 
L 218.684066 79.842591 
L 218.684066 79.315904 
L 219.608477 79.315904 
L 219.608477 78.789218 
L 221.364416 78.789218 
L 221.364416 78.262532 
L 223.233886 78.262532 
L 223.233886 77.735846 
L 226.195931 77.735846 
L 226.195931 77.20916 
L 230.435104 77.20916 
L 230.435104 76.682474 
L 231.056731 76.682474 
L 231.074544 75.102416 
L 231.682501 75.102416 
L 231.682501 74.57573 
L 231.860246 74.57573 
L 231.960214 73.522358 
L 232.442119 73.522358 
L 232.480657 72.468985 
L 232.640065 72.468985 
L 232.681467 69.835555 
L 233.033072 69.835555 
L 233.132242 66.675439 
L 233.211174 66.675439 
L 233.211174 66.148752 
L 234.567242 66.148752 
L 234.567242 65.622066 
L 234.739887 65.622066 
L 234.739887 65.09538 
L 235.569343 65.09538 
L 235.626219 62.988636 
L 235.859713 62.988636 
L 235.859713 62.46195 
L 236.572473 62.46195 
L 236.572473 61.935264 
L 238.757282 61.935264 
L 238.757282 61.408578 
L 241.301614 61.408578 
L 241.301614 60.881892 
L 242.189802 60.881892 
L 242.213758 58.248461 
L 242.469046 58.248461 
L 242.476137 57.195089 
L 243.943314 57.195089 
L 243.943314 56.141717 
L 244.123528 56.141717 
L 244.123528 55.615031 
L 248.325422 55.615031 
L 248.340002 54.561659 
L 248.486368 54.561659 
L 248.527319 53.508287 
L 249.546626 53.508287 
L 249.546626 52.9816 
L 249.707632 52.9816 
L 249.707632 52.454914 
L 252.46998 52.454914 
L 252.46998 51.928228 
L 252.855177 51.928228 
L 252.929299 49.821484 
L 252.979437 49.821484 
L 253.036382 48.768112 
L 253.93073 48.768112 
L 253.93073 48.241426 
L 256.548836 48.241426 
L 256.595255 47.188054 
L 260.098424 47.188054 
L 260.098424 46.661368 
L 261.967366 46.661368 
L 262.075053 44.554623 
L 262.550963 44.554623 
L 262.550963 43.501251 
L 264.25083 43.501251 
L 264.267426 42.447879 
L 266.23843 42.447879 
L 266.23843 41.921193 
L 266.614349 41.921193 
L 266.614349 41.394507 
L 267.9218 41.394507 
L 267.974284 40.341135 
L 268.338589 40.341135 
L 268.338589 39.814448 
L 269.527052 39.814448 
L 269.527052 39.287762 
L 269.907586 39.287762 
L 269.907586 38.761076 
L 273.648103 38.761076 
L 273.648103 38.23439 
L 273.911993 38.23439 
L 273.911993 37.707704 
L 275.065621 37.707704 
L 275.065621 37.181018 
L 276.147647 37.181018 
L 276.147647 36.127646 
L 276.935088 36.127646 
L 276.935088 35.60096 
L 278.12899 35.60096 
L 278.12899 35.074274 
L 282.853682 35.074274 
L 282.853682 34.547588 
L 284.226632 34.547588 
L 284.226632 34.020902 
L 285.004628 34.020902 
L 285.004628 33.494215 
L 286.223699 33.494215 
L 286.223699 32.967529 
L 289.440265 32.967529 
L 289.440265 32.440843 
L 290.392884 32.440843 
L 290.392884 31.914157 
L 292.891166 31.914157 
L 292.891166 31.387471 
L 296.505928 31.387471 
L 296.505928 30.860785 
L 298.712549 30.860785 
L 298.712549 30.334099 
L 338.688 30.334099 
L 338.688 30.334099 
" style="fill:none;stroke:#ff00ff;stroke-linecap:square;stroke-width:1.5;"/>
   </g>
   <g id="line2d_41">
    <defs>
     <path d="M 0 8.485281 
L 5.091169 0 
L 0 -8.485281 
L -5.091169 0 
z
" id="m2beb48b0bc" style="stroke:#ff00ff;stroke-linejoin:miter;stroke-width:1.5;"/>
    </defs>
    <g>
     <use style="fill-opacity:0;stroke:#ff00ff;stroke-linejoin:miter;stroke-width:1.5;" x="128.411207" xlink:href="#m2beb48b0bc" y="231.001496"/>
     <use style="fill-opacity:0;stroke:#ff00ff;stroke-linejoin:miter;stroke-width:1.5;" x="202.447416" xlink:href="#m2beb48b0bc" y="114.603872"/>
     <use style="fill-opacity:0;stroke:#ff00ff;stroke-linejoin:miter;stroke-width:1.5;" x="241.301614" xlink:href="#m2beb48b0bc" y="61.408578"/>
     <use style="fill-opacity:0;stroke:#ff00ff;stroke-linejoin:miter;stroke-width:1.5;" x="298.712549" xlink:href="#m2beb48b0bc" y="30.334099"/>
     <use style="fill-opacity:0;stroke:#ff00ff;stroke-linejoin:miter;stroke-width:1.5;" x="298.712549" xlink:href="#m2beb48b0bc" y="30.334099"/>
     <use style="fill-opacity:0;stroke:#ff00ff;stroke-linejoin:miter;stroke-width:1.5;" x="338.688" xlink:href="#m2beb48b0bc" y="30.334099"/>
    </g>
   </g>
   <g id="line2d_42">
    <path style="fill:none;stroke:#ff00ff;stroke-linecap:square;stroke-width:1.5;"/>
    <g/>
   </g>
   <g id="line2d_43">
    <path clip-path="url(#p390c42ef9b)" d="M 227.130146 77.20916 
" style="fill:none;stroke:#ff00ff;stroke-linecap:square;stroke-width:1.5;"/>
    <defs>
     <path d="M -12 12 
L 12 -12 
M -12 -12 
L 12 12 
" id="m3126778e50" style="stroke:#ff00ff;"/>
    </defs>
    <g clip-path="url(#p390c42ef9b)">
     <use style="fill:#ff00ff;stroke:#ff00ff;" x="227.130146" xlink:href="#m3126778e50" y="77.20916"/>
    </g>
   </g>
   <g id="line2d_44">
    <defs>
     <path d="M 0 1.5 
C 0.397805 1.5 0.77937 1.341951 1.06066 1.06066 
C 1.341951 0.77937 1.5 0.397805 1.5 0 
C 1.5 -0.397805 1.341951 -0.77937 1.06066 -1.06066 
C 0.77937 -1.341951 0.397805 -1.5 0 -1.5 
C -0.397805 -1.5 -0.77937 -1.341951 -1.06066 -1.06066 
C -1.341951 -0.77937 -1.5 -0.397805 -1.5 0 
C -1.5 0.397805 -1.341951 0.77937 -1.06066 1.06066 
C -0.77937 1.341951 -0.397805 1.5 0 1.5 
z
" id="ma7a9134a92" style="stroke:#ff7500;"/>
    </defs>
    <g>
     <use style="fill:#ff7500;stroke:#ff7500;" x="298.179308" xlink:href="#ma7a9134a92" y="30.334099"/>
     <use style="fill:#ff7500;stroke:#ff7500;" x="298.179308" xlink:href="#ma7a9134a92" y="30.334099"/>
    </g>
   </g>
   <g id="line2d_45">
    <path d="M 38.440992 298.944 
L 38.440992 282.090045 
L 50.52898 282.090045 
L 50.52898 270.502952 
L 57.6 270.502952 
L 57.6 266.289463 
L 62.616969 266.289463 
L 62.616969 265.236091 
L 66.508432 265.236091 
L 66.508432 263.129347 
L 72.376266 263.129347 
L 72.376266 261.549288 
L 74.704957 261.549288 
L 74.704957 259.96923 
L 80.258561 259.96923 
L 80.258561 258.915858 
L 84.464254 258.915858 
L 84.464254 257.3358 
L 85.66744 257.3358 
L 85.66744 255.755741 
L 91.535274 255.755741 
L 91.535274 255.229055 
L 93.863965 255.229055 
L 93.863965 252.595625 
L 94.575872 252.595625 
L 94.575872 252.068939 
L 95.918017 252.068939 
L 95.918017 251.542253 
L 103.203018 251.542253 
L 103.203018 250.488881 
L 103.623262 250.488881 
L 103.623262 247.328764 
L 104.434538 247.328764 
L 104.434538 246.802078 
L 104.826449 246.802078 
L 104.826449 246.275392 
L 105.209745 246.275392 
L 105.209745 245.748706 
L 106.66386 245.748706 
L 106.66386 245.22202 
L 107.347841 245.22202 
L 107.347841 244.695334 
L 112.280765 244.695334 
L 112.280765 244.168648 
L 115.077025 244.168648 
L 115.077025 242.588589 
L 115.291007 242.588589 
L 115.291007 242.061903 
L 116.914437 242.061903 
L 116.914437 241.008531 
L 119.267333 241.008531 
L 119.267333 239.955159 
L 121.036887 239.955159 
L 121.036887 239.428473 
L 122.643312 239.428473 
L 122.643312 238.901787 
L 122.920132 238.901787 
L 122.920132 237.848415 
L 123.192626 237.848415 
L 123.192626 236.795043 
L 123.327293 236.795043 
L 123.327293 236.268356 
L 126.053856 236.268356 
L 126.053856 235.74167 
L 127.48501 235.74167 
L 127.48501 235.214984 
L 127.695124 235.214984 
L 127.695124 234.161612 
L 127.902737 234.161612 
L 128.005624 232.581554 
L 128.610515 232.581554 
L 128.610515 232.054868 
L 129.760775 232.054868 
L 129.760775 231.001496 
L 130.398313 231.001496 
L 130.398313 230.47481 
L 131.270459 230.47481 
L 131.270459 228.894751 
L 131.60746 228.894751 
L 131.60746 227.841379 
L 132.181982 227.841379 
L 132.262533 226.261321 
L 132.893889 226.261321 
L 132.971225 225.207949 
L 133.57787 225.207949 
L 133.57787 223.627891 
L 134.164119 223.627891 
L 134.236034 222.047832 
L 134.307653 222.047832 
L 134.307653 221.521146 
L 135.076644 221.521146 
L 135.076644 219.941088 
L 135.548916 219.941088 
L 135.548916 219.414402 
L 135.681535 219.414402 
L 135.681535 217.834344 
L 135.943785 217.834344 
L 135.943785 216.780971 
L 136.707671 216.780971 
L 136.707671 216.254285 
L 136.955041 216.254285 
L 137.016339 215.200913 
L 137.558536 215.200913 
L 137.558536 214.674227 
L 137.735587 214.674227 
L 137.735587 213.620855 
L 139.306744 213.620855 
L 139.360321 212.040797 
L 139.520072 212.040797 
L 139.520072 210.987425 
L 140.297583 210.987425 
L 140.297583 210.460738 
L 140.698504 210.460738 
L 140.698504 209.407366 
L 141.283115 209.407366 
L 141.33096 208.353994 
L 141.615302 208.353994 
L 141.615302 207.827308 
L 141.895083 207.827308 
L 141.895083 207.300622 
L 142.306513 207.300622 
L 142.306513 206.773936 
L 142.796538 206.773936 
L 142.796538 205.720564 
L 143.058132 205.720564 
L 143.058132 204.667192 
L 143.273169 204.667192 
L 143.273169 204.140506 
L 143.44331 204.140506 
L 143.44331 202.560447 
L 143.861538 202.560447 
L 143.861538 202.033761 
L 144.390658 202.033761 
L 144.390658 201.507075 
L 147.436066 201.507075 
L 147.436066 200.980389 
L 147.933891 200.980389 
L 147.933891 200.453703 
L 148.322166 200.453703 
L 148.322166 199.927017 
L 148.449693 199.927017 
L 148.54473 197.820273 
L 149.31719 197.820273 
L 149.31719 197.293586 
L 151.015013 197.293586 
L 151.015013 196.7669 
L 151.287083 196.7669 
L 151.287083 196.240214 
L 153.056874 196.240214 
L 153.056874 195.713528 
L 154.05232 195.713528 
L 154.05232 195.186842 
L 154.529516 195.186842 
L 154.529516 194.660156 
L 155.059358 194.660156 
L 155.059358 193.606784 
L 156.317544 193.606784 
L 156.317544 193.080098 
L 156.677955 193.080098 
L 156.677955 192.553412 
L 157.902267 192.553412 
L 157.902267 192.026726 
L 159.080804 192.026726 
L 159.080804 191.50004 
L 159.6749 191.50004 
L 159.6749 190.973354 
L 163.034316 190.973354 
L 163.034316 189.919981 
L 164.037234 189.919981 
L 164.050224 188.339923 
L 165.435121 188.339923 
L 165.459092 187.286551 
L 169.16754 187.286551 
L 169.16754 186.759865 
L 169.635673 186.759865 
L 169.635673 186.233179 
L 172.538095 186.233179 
L 172.538095 185.706493 
L 172.885786 185.706493 
L 172.885786 184.653121 
L 173.257343 184.653121 
L 173.257343 184.126434 
L 174.13117 184.126434 
L 174.240098 182.546376 
L 175.469807 182.546376 
L 175.550576 181.493004 
L 176.04055 181.493004 
L 176.04055 180.966318 
L 177.153401 180.966318 
L 177.214548 179.38626 
L 177.414828 179.38626 
L 177.414828 178.332888 
L 177.743598 178.332888 
L 177.743598 177.279515 
L 178.187935 177.279515 
L 178.187935 175.172771 
L 178.883902 175.172771 
L 178.883902 174.646085 
L 179.305863 174.646085 
L 179.305863 173.592713 
L 179.969841 173.592713 
L 179.969841 173.066027 
L 181.576933 173.066027 
L 181.591186 172.012655 
L 182.124367 172.012655 
L 182.124367 170.432596 
L 182.62831 170.432596 
L 182.62831 169.90591 
L 183.97145 169.90591 
L 183.97145 169.379224 
L 185.203063 169.379224 
L 185.203063 168.325852 
L 187.068636 168.325852 
L 187.068636 167.27248 
L 187.442729 167.27248 
L 187.442729 166.219108 
L 188.076227 166.219108 
L 188.076227 165.165736 
L 189.207666 165.165736 
L 189.207666 164.112363 
L 189.858214 164.112363 
L 189.858214 163.585677 
L 190.09313 163.585677 
L 190.09313 162.532305 
L 191.942787 162.532305 
L 191.942787 162.005619 
L 193.050577 162.005619 
L 193.050577 160.425561 
L 194.001502 160.425561 
L 194.001502 159.372189 
L 194.482029 159.372189 
L 194.482029 158.845503 
L 194.825594 158.845503 
L 194.825594 156.738758 
L 195.659192 156.738758 
L 195.659192 156.212072 
L 195.842643 156.212072 
L 195.842643 155.685386 
L 196.730028 155.685386 
L 196.730028 155.1587 
L 196.89471 155.1587 
L 196.89471 154.105328 
L 197.147614 154.105328 
L 197.147614 153.578642 
L 198.168188 153.578642 
L 198.168188 152.52527 
L 199.574803 152.52527 
L 199.574803 151.998584 
L 200.017894 151.998584 
L 200.017894 151.471897 
L 200.495043 151.471897 
L 200.495043 150.945211 
L 202.514791 150.945211 
L 202.624611 148.838467 
L 202.728092 148.838467 
L 202.777489 147.258409 
L 203.453392 147.258409 
L 203.461524 145.678351 
L 203.616673 145.678351 
L 203.685039 144.624978 
L 203.739806 144.624978 
L 203.739806 143.04492 
L 204.09754 143.04492 
L 204.09754 142.518234 
L 204.338891 142.518234 
L 204.338891 141.991548 
L 204.697294 141.991548 
L 204.697294 141.464862 
L 204.849383 141.464862 
L 204.849383 140.938176 
L 205.041053 140.938176 
L 205.041053 140.41149 
L 205.535289 140.41149 
L 205.535289 139.884804 
L 205.682659 139.884804 
L 205.714843 136.724687 
L 206.010051 136.724687 
L 206.095317 135.144629 
L 206.510955 135.144629 
L 206.510955 134.617943 
L 206.701056 134.617943 
L 206.701056 133.037885 
L 207.30821 133.037885 
L 207.30821 132.511199 
L 207.467257 132.511199 
L 207.564992 129.351082 
L 207.689853 129.351082 
L 207.689853 128.29771 
L 207.826491 128.29771 
L 207.914892 125.137593 
L 208.176406 125.137593 
L 208.192944 121.977477 
L 208.755107 121.977477 
L 208.755107 120.924105 
L 208.866789 120.924105 
L 208.866789 120.397419 
L 209.251166 120.397419 
L 209.291955 118.290674 
L 209.641521 118.290674 
L 209.641521 116.18393 
L 209.861658 116.18393 
L 209.861658 115.130558 
L 210.005646 115.130558 
L 210.005646 114.077186 
L 211.033458 114.077186 
L 211.126262 111.970441 
L 211.311266 111.970441 
L 211.344066 109.863697 
L 211.821255 109.863697 
L 211.821255 109.337011 
L 212.16604 109.337011 
L 212.22107 108.283639 
L 212.424077 108.283639 
L 212.445949 106.703581 
L 213.23959 106.703581 
L 213.23959 106.176895 
L 213.402046 106.176895 
L 213.460192 103.016778 
L 213.569835 103.016778 
L 213.569835 101.963406 
L 213.871577 101.963406 
L 213.871577 100.910034 
L 214.048966 100.910034 
L 214.048966 100.383348 
L 214.308438 100.383348 
L 214.335337 97.749917 
L 214.966657 97.749917 
L 214.966657 96.169859 
L 215.196335 96.169859 
L 215.196335 95.643173 
L 215.344362 95.643173 
L 215.344362 95.116487 
L 215.5793 95.116487 
L 215.5793 94.063115 
L 215.784396 94.063115 
L 215.797093 92.483056 
L 215.956022 92.483056 
L 216.021433 90.376312 
L 216.183569 90.376312 
L 216.183569 89.849626 
L 216.311163 89.849626 
L 216.418502 87.742882 
L 216.909191 87.742882 
L 217.001704 84.582765 
L 217.327808 84.582765 
L 217.426652 82.476021 
L 218.148315 82.476021 
L 218.148315 81.949335 
L 218.505399 81.949335 
L 218.505399 80.895963 
L 218.623388 80.895963 
L 218.714609 79.315904 
L 218.994343 79.315904 
L 219.090287 77.735846 
L 219.140543 77.735846 
L 219.140543 77.20916 
L 219.546088 77.20916 
L 219.546088 76.682474 
L 219.94505 76.682474 
L 219.94505 76.155788 
L 220.243182 76.155788 
L 220.243182 74.049044 
L 220.618576 74.049044 
L 220.691888 72.468985 
L 220.937374 72.468985 
L 220.937374 71.942299 
L 221.360046 71.942299 
L 221.399818 70.888927 
L 221.74044 70.888927 
L 221.74044 70.362241 
L 222.004951 70.362241 
L 222.004951 69.835555 
L 223.048873 69.835555 
L 223.048873 69.308869 
L 223.169224 69.308869 
L 223.169224 68.255497 
L 225.116681 68.255497 
L 225.161642 67.202125 
L 234.139671 67.202125 
L 234.139671 66.675439 
L 234.634509 66.675439 
L 234.67212 64.568694 
L 234.810984 64.568694 
L 234.879109 62.988636 
L 235.433594 62.988636 
L 235.433594 61.935264 
L 235.620433 61.935264 
L 235.657476 60.881892 
L 235.942607 60.881892 
L 235.942607 60.355206 
L 236.07551 60.355206 
L 236.154892 58.248461 
L 236.395202 58.248461 
L 236.395202 57.195089 
L 236.570647 57.195089 
L 236.570647 56.668403 
L 237.296618 56.668403 
L 237.349886 55.088345 
L 237.548877 55.088345 
L 237.548877 54.561659 
L 238.261643 54.561659 
L 238.261643 54.034973 
L 243.296242 54.034973 
L 243.370894 52.9816 
L 244.077263 52.9816 
L 244.077263 52.454914 
L 244.281299 52.454914 
L 244.281299 51.401542 
L 244.500633 51.401542 
L 244.580062 50.34817 
L 245.066151 50.34817 
L 245.066151 49.821484 
L 245.643488 49.821484 
L 245.643488 49.294798 
L 249.822317 49.294798 
L 249.822317 48.241426 
L 250.397005 48.241426 
L 250.397005 47.71474 
L 250.824128 47.71474 
L 250.824128 47.188054 
L 254.122604 47.188054 
L 254.122604 46.134681 
L 254.474122 46.134681 
L 254.474122 44.554623 
L 257.306241 44.554623 
L 257.306241 44.027937 
L 257.5058 44.027937 
L 257.5058 43.501251 
L 260.791628 43.501251 
L 260.791628 42.447879 
L 262.933214 42.447879 
L 262.933214 41.921193 
L 265.049949 41.921193 
L 265.049949 41.394507 
L 265.235586 41.394507 
L 265.235586 40.867821 
L 266.756365 40.867821 
L 266.756365 40.341135 
L 268.467285 40.341135 
L 268.467285 39.814448 
L 268.622584 39.814448 
L 268.622584 38.23439 
L 269.78006 38.23439 
L 269.78006 37.707704 
L 270.167327 37.707704 
L 270.167327 36.654332 
L 270.305942 36.654332 
L 270.305942 36.127646 
L 271.586304 36.127646 
L 271.586304 35.60096 
L 272.89846 35.60096 
L 272.89846 34.547588 
L 273.01705 34.547588 
L 273.01705 34.020902 
L 274.118759 34.020902 
L 274.118759 33.494215 
L 275.122815 33.494215 
L 275.122815 32.967529 
L 275.259225 32.967529 
L 275.259225 32.440843 
L 276.329664 32.440843 
L 276.329664 31.914157 
L 289.525436 31.914157 
L 289.525436 31.387471 
L 290.005929 31.387471 
L 290.005929 30.860785 
L 298.179308 30.860785 
L 298.179308 30.334099 
L 338.688 30.334099 
L 338.688 30.334099 
" style="fill:none;stroke:#ff7500;stroke-linecap:square;stroke-width:1.5;"/>
   </g>
   <g id="line2d_46">
    <defs>
     <path d="M 0 -6 
L -1.347084 -1.854102 
L -5.706339 -1.854102 
L -2.179628 0.708204 
L -3.526712 4.854102 
L -0 2.291796 
L 3.526712 4.854102 
L 2.179628 0.708204 
L 5.706339 -1.854102 
L 1.347084 -1.854102 
z
" id="m280a8f1f65" style="stroke:#ff7500;stroke-linejoin:bevel;stroke-width:1.5;"/>
    </defs>
    <g>
     <use style="fill-opacity:0;stroke:#ff7500;stroke-linejoin:bevel;stroke-width:1.5;" x="135.681535" xlink:href="#m280a8f1f65" y="217.834344"/>
     <use style="fill-opacity:0;stroke:#ff7500;stroke-linejoin:bevel;stroke-width:1.5;" x="190.09313" xlink:href="#m280a8f1f65" y="162.532305"/>
     <use style="fill-opacity:0;stroke:#ff7500;stroke-linejoin:bevel;stroke-width:1.5;" x="260.791628" xlink:href="#m280a8f1f65" y="42.447879"/>
     <use style="fill-opacity:0;stroke:#ff7500;stroke-linejoin:bevel;stroke-width:1.5;" x="298.179308" xlink:href="#m280a8f1f65" y="30.334099"/>
     <use style="fill-opacity:0;stroke:#ff7500;stroke-linejoin:bevel;stroke-width:1.5;" x="298.179308" xlink:href="#m280a8f1f65" y="30.334099"/>
     <use style="fill-opacity:0;stroke:#ff7500;stroke-linejoin:bevel;stroke-width:1.5;" x="338.688" xlink:href="#m280a8f1f65" y="30.334099"/>
    </g>
   </g>
   <g id="line2d_47">
    <path style="fill:none;stroke:#ff7500;stroke-linecap:square;stroke-width:1.5;"/>
    <g/>
   </g>
   <g id="line2d_48">
    <path clip-path="url(#p390c42ef9b)" d="M 227.130146 67.202125 
" style="fill:none;stroke:#ff7500;stroke-linecap:square;stroke-width:1.5;"/>
    <defs>
     <path d="M -12 12 
L 12 -12 
M -12 -12 
L 12 12 
" id="mb73653cfaa" style="stroke:#ff7500;"/>
    </defs>
    <g clip-path="url(#p390c42ef9b)">
     <use style="fill:#ff7500;stroke:#ff7500;" x="227.130146" xlink:href="#mb73653cfaa" y="67.202125"/>
    </g>
   </g>
   <g id="line2d_49">
    <path d="M 338.688 35.60096 
L 369.60768 293.571802 
" style="fill:none;stroke:#000080;stroke-linecap:square;stroke-width:1.5;"/>
    <g>
     <use style="fill-opacity:0;stroke:#000080;stroke-width:1.5;" x="338.688" xlink:href="#m9938d6b465" y="35.60096"/>
     <use style="fill-opacity:0;stroke:#000080;stroke-width:1.5;" x="369.60768" xlink:href="#m9938d6b465" y="293.571802"/>
    </g>
   </g>
   <g id="line2d_50">
    <path d="M 338.688 30.334099 
L 369.60768 207.616634 
" style="fill:none;stroke:#ff00ff;stroke-linecap:square;stroke-width:1.5;"/>
    <g>
     <use style="fill-opacity:0;stroke:#ff00ff;stroke-linejoin:miter;stroke-width:1.5;" x="338.688" xlink:href="#m2beb48b0bc" y="30.334099"/>
     <use style="fill-opacity:0;stroke:#ff00ff;stroke-linejoin:miter;stroke-width:1.5;" x="369.60768" xlink:href="#m2beb48b0bc" y="207.616634"/>
    </g>
   </g>
   <g id="line2d_51">
    <path d="M 338.688 30.334099 
L 369.60768 121.661465 
" style="fill:none;stroke:#ff7500;stroke-linecap:square;stroke-width:1.5;"/>
    <g>
     <use style="fill-opacity:0;stroke:#ff7500;stroke-linejoin:bevel;stroke-width:1.5;" x="338.688" xlink:href="#m280a8f1f65" y="30.334099"/>
     <use style="fill-opacity:0;stroke:#ff7500;stroke-linejoin:bevel;stroke-width:1.5;" x="369.60768" xlink:href="#m280a8f1f65" y="121.661465"/>
    </g>
   </g>
   <g id="line2d_52">
    <path d="M 338.688 298.944 
L 338.688 30.334099 
" style="fill:none;stroke:#000000;stroke-linecap:square;stroke-width:1.5;"/>
   </g>
   <g id="patch_3">
    <path d="M 57.6 298.944 
L 57.6 27.648 
" style="fill:none;stroke:#000000;stroke-linecap:square;stroke-linejoin:miter;stroke-width:0.8;"/>
   </g>
   <g id="patch_4">
    <path d="M 338.688 298.944 
L 338.688 27.648 
" style="fill:none;stroke:#000000;stroke-linecap:square;stroke-linejoin:miter;stroke-width:0.8;"/>
   </g>
   <g id="patch_5">
    <path d="M 57.6 298.944 
L 338.688 298.944 
" style="fill:none;stroke:#000000;stroke-linecap:square;stroke-linejoin:miter;stroke-width:0.8;"/>
   </g>
   <g id="patch_6">
    <path d="M 57.6 27.648 
L 338.688 27.648 
" style="fill:none;stroke:#000000;stroke-linecap:square;stroke-linejoin:miter;stroke-width:0.8;"/>
   </g>
   <g id="text_13">
    <!-- PSO -->
    <g transform="translate(375.22944 298.262739)scale(0.17 -0.17)">
     <defs>
      <path d="M 1259 4147 
L 1259 2394 
L 2053 2394 
Q 2494 2394 2734 2622 
Q 2975 2850 2975 3272 
Q 2975 3691 2734 3919 
Q 2494 4147 2053 4147 
L 1259 4147 
z
M 628 4666 
L 2053 4666 
Q 2838 4666 3239 4311 
Q 3641 3956 3641 3272 
Q 3641 2581 3239 2228 
Q 2838 1875 2053 1875 
L 1259 1875 
L 1259 0 
L 628 0 
L 628 4666 
z
" id="DejaVuSans-50" transform="scale(0.015625)"/>
      <path d="M 3425 4513 
L 3425 3897 
Q 3066 4069 2747 4153 
Q 2428 4238 2131 4238 
Q 1616 4238 1336 4038 
Q 1056 3838 1056 3469 
Q 1056 3159 1242 3001 
Q 1428 2844 1947 2747 
L 2328 2669 
Q 3034 2534 3370 2195 
Q 3706 1856 3706 1288 
Q 3706 609 3251 259 
Q 2797 -91 1919 -91 
Q 1588 -91 1214 -16 
Q 841 59 441 206 
L 441 856 
Q 825 641 1194 531 
Q 1563 422 1919 422 
Q 2459 422 2753 634 
Q 3047 847 3047 1241 
Q 3047 1584 2836 1778 
Q 2625 1972 2144 2069 
L 1759 2144 
Q 1053 2284 737 2584 
Q 422 2884 422 3419 
Q 422 4038 858 4394 
Q 1294 4750 2059 4750 
Q 2388 4750 2728 4690 
Q 3069 4631 3425 4513 
z
" id="DejaVuSans-53" transform="scale(0.015625)"/>
      <path d="M 2522 4238 
Q 1834 4238 1429 3725 
Q 1025 3213 1025 2328 
Q 1025 1447 1429 934 
Q 1834 422 2522 422 
Q 3209 422 3611 934 
Q 4013 1447 4013 2328 
Q 4013 3213 3611 3725 
Q 3209 4238 2522 4238 
z
M 2522 4750 
Q 3503 4750 4090 4092 
Q 4678 3434 4678 2328 
Q 4678 1225 4090 567 
Q 3503 -91 2522 -91 
Q 1538 -91 948 565 
Q 359 1222 359 2328 
Q 359 3434 948 4092 
Q 1538 4750 2522 4750 
z
" id="DejaVuSans-4f" transform="scale(0.015625)"/>
     </defs>
     <use xlink:href="#DejaVuSans-50"/>
     <use x="60.302734" xlink:href="#DejaVuSans-53"/>
     <use x="123.779297" xlink:href="#DejaVuSans-4f"/>
    </g>
   </g>
   <g id="text_14">
    <!-- PSO Bound -->
    <g transform="translate(375.22944 212.307571)scale(0.17 -0.17)">
     <defs>
      <path d="M 1259 2228 
L 1259 519 
L 2272 519 
Q 2781 519 3026 730 
Q 3272 941 3272 1375 
Q 3272 1813 3026 2020 
Q 2781 2228 2272 2228 
L 1259 2228 
z
M 1259 4147 
L 1259 2741 
L 2194 2741 
Q 2656 2741 2882 2914 
Q 3109 3088 3109 3444 
Q 3109 3797 2882 3972 
Q 2656 4147 2194 4147 
L 1259 4147 
z
M 628 4666 
L 2241 4666 
Q 2963 4666 3353 4366 
Q 3744 4066 3744 3513 
Q 3744 3084 3544 2831 
Q 3344 2578 2956 2516 
Q 3422 2416 3680 2098 
Q 3938 1781 3938 1306 
Q 3938 681 3513 340 
Q 3088 0 2303 0 
L 628 0 
L 628 4666 
z
" id="DejaVuSans-42" transform="scale(0.015625)"/>
     </defs>
     <use xlink:href="#DejaVuSans-50"/>
     <use x="60.302734" xlink:href="#DejaVuSans-53"/>
     <use x="123.779297" xlink:href="#DejaVuSans-4f"/>
     <use x="202.490234" xlink:href="#DejaVuSans-20"/>
     <use x="234.277344" xlink:href="#DejaVuSans-42"/>
     <use x="302.880859" xlink:href="#DejaVuSans-6f"/>
     <use x="364.0625" xlink:href="#DejaVuSans-75"/>
     <use x="427.441406" xlink:href="#DejaVuSans-6e"/>
     <use x="490.820312" xlink:href="#DejaVuSans-64"/>
    </g>
   </g>
   <g id="text_15">
    <!-- PSO EDA -->
    <g transform="translate(375.22944 126.352403)scale(0.17 -0.17)">
     <defs>
      <path d="M 628 4666 
L 3578 4666 
L 3578 4134 
L 1259 4134 
L 1259 2753 
L 3481 2753 
L 3481 2222 
L 1259 2222 
L 1259 531 
L 3634 531 
L 3634 0 
L 628 0 
L 628 4666 
z
" id="DejaVuSans-45" transform="scale(0.015625)"/>
      <path d="M 1259 4147 
L 1259 519 
L 2022 519 
Q 2988 519 3436 956 
Q 3884 1394 3884 2338 
Q 3884 3275 3436 3711 
Q 2988 4147 2022 4147 
L 1259 4147 
z
M 628 4666 
L 1925 4666 
Q 3281 4666 3915 4102 
Q 4550 3538 4550 2338 
Q 4550 1131 3912 565 
Q 3275 0 1925 0 
L 628 0 
L 628 4666 
z
" id="DejaVuSans-44" transform="scale(0.015625)"/>
      <path d="M 2188 4044 
L 1331 1722 
L 3047 1722 
L 2188 4044 
z
M 1831 4666 
L 2547 4666 
L 4325 0 
L 3669 0 
L 3244 1197 
L 1141 1197 
L 716 0 
L 50 0 
L 1831 4666 
z
" id="DejaVuSans-41" transform="scale(0.015625)"/>
     </defs>
     <use xlink:href="#DejaVuSans-50"/>
     <use x="60.302734" xlink:href="#DejaVuSans-53"/>
     <use x="123.779297" xlink:href="#DejaVuSans-4f"/>
     <use x="202.490234" xlink:href="#DejaVuSans-20"/>
     <use x="234.277344" xlink:href="#DejaVuSans-45"/>
     <use x="297.460938" xlink:href="#DejaVuSans-44"/>
     <use x="372.712891" xlink:href="#DejaVuSans-41"/>
    </g>
   </g>
   <g id="text_16">
    <!-- best 2009 -->
    <g transform="translate(375.22944 40.397235)scale(0.17 -0.17)">
     <defs>
      <path d="M 3116 1747 
Q 3116 2381 2855 2742 
Q 2594 3103 2138 3103 
Q 1681 3103 1420 2742 
Q 1159 2381 1159 1747 
Q 1159 1113 1420 752 
Q 1681 391 2138 391 
Q 2594 391 2855 752 
Q 3116 1113 3116 1747 
z
M 1159 2969 
Q 1341 3281 1617 3432 
Q 1894 3584 2278 3584 
Q 2916 3584 3314 3078 
Q 3713 2572 3713 1747 
Q 3713 922 3314 415 
Q 2916 -91 2278 -91 
Q 1894 -91 1617 61 
Q 1341 213 1159 525 
L 1159 0 
L 581 0 
L 581 4863 
L 1159 4863 
L 1159 2969 
z
" id="DejaVuSans-62" transform="scale(0.015625)"/>
      <path d="M 703 97 
L 703 672 
Q 941 559 1184 500 
Q 1428 441 1663 441 
Q 2288 441 2617 861 
Q 2947 1281 2994 2138 
Q 2813 1869 2534 1725 
Q 2256 1581 1919 1581 
Q 1219 1581 811 2004 
Q 403 2428 403 3163 
Q 403 3881 828 4315 
Q 1253 4750 1959 4750 
Q 2769 4750 3195 4129 
Q 3622 3509 3622 2328 
Q 3622 1225 3098 567 
Q 2575 -91 1691 -91 
Q 1453 -91 1209 -44 
Q 966 3 703 97 
z
M 1959 2075 
Q 2384 2075 2632 2365 
Q 2881 2656 2881 3163 
Q 2881 3666 2632 3958 
Q 2384 4250 1959 4250 
Q 1534 4250 1286 3958 
Q 1038 3666 1038 3163 
Q 1038 2656 1286 2365 
Q 1534 2075 1959 2075 
z
" id="DejaVuSans-39" transform="scale(0.015625)"/>
     </defs>
     <use xlink:href="#DejaVuSans-62"/>
     <use x="63.476562" xlink:href="#DejaVuSans-65"/>
     <use x="125" xlink:href="#DejaVuSans-73"/>
     <use x="177.099609" xlink:href="#DejaVuSans-74"/>
     <use x="216.308594" xlink:href="#DejaVuSans-20"/>
     <use x="248.095703" xlink:href="#DejaVuSans-32"/>
     <use x="311.71875" xlink:href="#DejaVuSans-30"/>
     <use x="375.341797" xlink:href="#DejaVuSans-30"/>
     <use x="438.964844" xlink:href="#DejaVuSans-39"/>
    </g>
   </g>
   <g id="text_17">
    <!-- bbob f14, 3-D -->
    <g transform="translate(60.41088 38.111366)scale(0.102 -0.102)">
     <defs>
      <path d="M 2597 2516 
Q 3050 2419 3304 2112 
Q 3559 1806 3559 1356 
Q 3559 666 3084 287 
Q 2609 -91 1734 -91 
Q 1441 -91 1130 -33 
Q 819 25 488 141 
L 488 750 
Q 750 597 1062 519 
Q 1375 441 1716 441 
Q 2309 441 2620 675 
Q 2931 909 2931 1356 
Q 2931 1769 2642 2001 
Q 2353 2234 1838 2234 
L 1294 2234 
L 1294 2753 
L 1863 2753 
Q 2328 2753 2575 2939 
Q 2822 3125 2822 3475 
Q 2822 3834 2567 4026 
Q 2313 4219 1838 4219 
Q 1578 4219 1281 4162 
Q 984 4106 628 3988 
L 628 4550 
Q 988 4650 1302 4700 
Q 1616 4750 1894 4750 
Q 2613 4750 3031 4423 
Q 3450 4097 3450 3541 
Q 3450 3153 3228 2886 
Q 3006 2619 2597 2516 
z
" id="DejaVuSans-33" transform="scale(0.015625)"/>
     </defs>
     <use xlink:href="#DejaVuSans-62"/>
     <use x="63.476562" xlink:href="#DejaVuSans-62"/>
     <use x="126.953125" xlink:href="#DejaVuSans-6f"/>
     <use x="188.134766" xlink:href="#DejaVuSans-62"/>
     <use x="251.611328" xlink:href="#DejaVuSans-20"/>
     <use x="283.398438" xlink:href="#DejaVuSans-66"/>
     <use x="318.603516" xlink:href="#DejaVuSans-31"/>
     <use x="382.226562" xlink:href="#DejaVuSans-34"/>
     <use x="445.849609" xlink:href="#DejaVuSans-2c"/>
     <use x="477.636719" xlink:href="#DejaVuSans-20"/>
     <use x="509.423828" xlink:href="#DejaVuSans-33"/>
     <use x="573.046875" xlink:href="#DejaVuSans-2d"/>
     <use x="609.130859" xlink:href="#DejaVuSans-44"/>
    </g>
    <!-- 51 targets: 100..1e-08 -->
    <g transform="translate(60.41088 49.533135)scale(0.102 -0.102)">
     <defs>
      <path d="M 691 4666 
L 3169 4666 
L 3169 4134 
L 1269 4134 
L 1269 2991 
Q 1406 3038 1543 3061 
Q 1681 3084 1819 3084 
Q 2600 3084 3056 2656 
Q 3513 2228 3513 1497 
Q 3513 744 3044 326 
Q 2575 -91 1722 -91 
Q 1428 -91 1123 -41 
Q 819 9 494 109 
L 494 744 
Q 775 591 1075 516 
Q 1375 441 1709 441 
Q 2250 441 2565 725 
Q 2881 1009 2881 1497 
Q 2881 1984 2565 2268 
Q 2250 2553 1709 2553 
Q 1456 2553 1204 2497 
Q 953 2441 691 2322 
L 691 4666 
z
" id="DejaVuSans-35" transform="scale(0.015625)"/>
      <path d="M 750 794 
L 1409 794 
L 1409 0 
L 750 0 
L 750 794 
z
M 750 3309 
L 1409 3309 
L 1409 2516 
L 750 2516 
L 750 3309 
z
" id="DejaVuSans-3a" transform="scale(0.015625)"/>
     </defs>
     <use xlink:href="#DejaVuSans-35"/>
     <use x="63.623047" xlink:href="#DejaVuSans-31"/>
     <use x="127.246094" xlink:href="#DejaVuSans-20"/>
     <use x="159.033203" xlink:href="#DejaVuSans-74"/>
     <use x="198.242188" xlink:href="#DejaVuSans-61"/>
     <use x="259.521484" xlink:href="#DejaVuSans-72"/>
     <use x="298.884766" xlink:href="#DejaVuSans-67"/>
     <use x="362.361328" xlink:href="#DejaVuSans-65"/>
     <use x="423.884766" xlink:href="#DejaVuSans-74"/>
     <use x="463.09375" xlink:href="#DejaVuSans-73"/>
     <use x="515.193359" xlink:href="#DejaVuSans-3a"/>
     <use x="548.884766" xlink:href="#DejaVuSans-20"/>
     <use x="580.671875" xlink:href="#DejaVuSans-31"/>
     <use x="644.294922" xlink:href="#DejaVuSans-30"/>
     <use x="707.917969" xlink:href="#DejaVuSans-30"/>
     <use x="771.541016" xlink:href="#DejaVuSans-2e"/>
     <use x="803.328125" xlink:href="#DejaVuSans-2e"/>
     <use x="835.115234" xlink:href="#DejaVuSans-31"/>
     <use x="898.738281" xlink:href="#DejaVuSans-65"/>
     <use x="960.261719" xlink:href="#DejaVuSans-2d"/>
     <use x="996.345703" xlink:href="#DejaVuSans-30"/>
     <use x="1059.96875" xlink:href="#DejaVuSans-38"/>
    </g>
    <!-- 15 instances -->
    <g transform="translate(60.41088 60.954904)scale(0.102 -0.102)">
     <use xlink:href="#DejaVuSans-31"/>
     <use x="63.623047" xlink:href="#DejaVuSans-35"/>
     <use x="127.246094" xlink:href="#DejaVuSans-20"/>
     <use x="159.033203" xlink:href="#DejaVuSans-69"/>
     <use x="186.816406" xlink:href="#DejaVuSans-6e"/>
     <use x="250.195312" xlink:href="#DejaVuSans-73"/>
     <use x="302.294922" xlink:href="#DejaVuSans-74"/>
     <use x="341.503906" xlink:href="#DejaVuSans-61"/>
     <use x="402.783203" xlink:href="#DejaVuSans-6e"/>
     <use x="466.162109" xlink:href="#DejaVuSans-63"/>
     <use x="521.142578" xlink:href="#DejaVuSans-65"/>
     <use x="582.666016" xlink:href="#DejaVuSans-73"/>
    </g>
   </g>
   <g id="text_18">
    <!-- v2.4 -->
    <g style="fill:#808080;" transform="translate(187.233062 294.151352)scale(0.1 -0.1)">
     <use xlink:href="#DejaVuSans-76"/>
     <use x="59.179688" xlink:href="#DejaVuSans-32"/>
     <use x="122.802734" xlink:href="#DejaVuSans-2e"/>
     <use x="154.589844" xlink:href="#DejaVuSans-34"/>
    </g>
   </g>
   <g id="text_19">
    <!-- 14 Sum of different powers -->
    <g transform="translate(61.904937 21.648)scale(0.2 -0.2)">
     <defs>
      <path d="M 269 3500 
L 844 3500 
L 1563 769 
L 2278 3500 
L 2956 3500 
L 3675 769 
L 4391 3500 
L 4966 3500 
L 4050 0 
L 3372 0 
L 2619 2869 
L 1863 0 
L 1184 0 
L 269 3500 
z
" id="DejaVuSans-77" transform="scale(0.015625)"/>
     </defs>
     <use xlink:href="#DejaVuSans-31"/>
     <use x="63.623047" xlink:href="#DejaVuSans-34"/>
     <use x="127.246094" xlink:href="#DejaVuSans-20"/>
     <use x="159.033203" xlink:href="#DejaVuSans-53"/>
     <use x="222.509766" xlink:href="#DejaVuSans-75"/>
     <use x="285.888672" xlink:href="#DejaVuSans-6d"/>
     <use x="383.300781" xlink:href="#DejaVuSans-20"/>
     <use x="415.087891" xlink:href="#DejaVuSans-6f"/>
     <use x="476.269531" xlink:href="#DejaVuSans-66"/>
     <use x="511.474609" xlink:href="#DejaVuSans-20"/>
     <use x="543.261719" xlink:href="#DejaVuSans-64"/>
     <use x="606.738281" xlink:href="#DejaVuSans-69"/>
     <use x="634.521484" xlink:href="#DejaVuSans-66"/>
     <use x="669.726562" xlink:href="#DejaVuSans-66"/>
     <use x="704.931641" xlink:href="#DejaVuSans-65"/>
     <use x="766.455078" xlink:href="#DejaVuSans-72"/>
     <use x="805.318359" xlink:href="#DejaVuSans-65"/>
     <use x="866.841797" xlink:href="#DejaVuSans-6e"/>
     <use x="930.220703" xlink:href="#DejaVuSans-74"/>
     <use x="969.429688" xlink:href="#DejaVuSans-20"/>
     <use x="1001.216797" xlink:href="#DejaVuSans-70"/>
     <use x="1064.693359" xlink:href="#DejaVuSans-6f"/>
     <use x="1125.875" xlink:href="#DejaVuSans-77"/>
     <use x="1207.662109" xlink:href="#DejaVuSans-65"/>
     <use x="1269.185547" xlink:href="#DejaVuSans-72"/>
     <use x="1310.298828" xlink:href="#DejaVuSans-73"/>
    </g>
   </g>
  </g>
 </g>
 <defs>
  <clipPath id="p390c42ef9b">
   <rect height="271.296" width="281.088" x="57.6" y="27.648"/>
  </clipPath>
 </defs>
</svg>
