<?xml version="1.0" encoding="utf-8" standalone="no"?>
<!DOCTYPE svg PUBLIC "-//W3C//DTD SVG 1.1//EN"
  "http://www.w3.org/Graphics/SVG/1.1/DTD/svg11.dtd">
<svg height="345.6pt" version="1.1" viewBox="0 0 460.8 345.6" width="460.8pt" xmlns="http://www.w3.org/2000/svg" xmlns:xlink="http://www.w3.org/1999/xlink">
 <metadata>
  <rdf:RDF xmlns:cc="http://creativecommons.org/ns#" xmlns:dc="http://purl.org/dc/elements/1.1/" xmlns:rdf="http://www.w3.org/1999/02/22-rdf-syntax-ns#">
   <cc:Work>
    <dc:type rdf:resource="http://purl.org/dc/dcmitype/StillImage"/>
    <dc:date>2021-04-25T03:18:35.198815</dc:date>
    <dc:format>image/svg+xml</dc:format>
    <dc:creator>
     <cc:Agent>
      <dc:title>Matplotlib v3.4.1, https://matplotlib.org/</dc:title>
     </cc:Agent>
    </dc:creator>
   </cc:Work>
  </rdf:RDF>
 </metadata>
 <defs>
  <style type="text/css">*{stroke-linecap:butt;stroke-linejoin:round;}</style>
 </defs>
 <g id="figure_1">
  <g id="patch_1">
   <path d="M 0 345.6 
L 460.8 345.6 
L 460.8 0 
L 0 0 
z
" style="fill:#ffffff;"/>
  </g>
  <g id="axes_1">
   <g id="patch_2">
    <path d="M 57.6 298.944 
L 338.688 298.944 
L 338.688 27.648 
L 57.6 27.648 
z
" style="fill:#ffffff;"/>
   </g>
   <g id="line2d_1">
    <path d="M 45.512012 298.944 
L 45.512012 272.609696 
L 57.6 272.609696 
L 57.6 262.075974 
L 64.67102 262.075974 
L 64.67102 251.542253 
L 73.579452 251.542253 
L 73.579452 246.275392 
L 76.759008 246.275392 
L 76.759008 30.334099 
L 338.688 30.334099 
" style="fill:none;stroke:#f5deb3;stroke-linecap:square;stroke-width:4;"/>
   </g>
   <g id="line2d_2">
    <defs>
     <path d="M 0 7.778175 
L 7.778175 0 
L 0 -7.778175 
L -7.778175 0 
z
" id="m2dc7a1e4a3" style="stroke:#f5deb3;stroke-linejoin:miter;stroke-width:1.5;"/>
    </defs>
    <g>
     <use style="fill:#f5deb3;stroke:#f5deb3;stroke-linejoin:miter;stroke-width:1.5;" x="73.579452" xlink:href="#m2dc7a1e4a3" y="246.275392"/>
     <use style="fill:#f5deb3;stroke:#f5deb3;stroke-linejoin:miter;stroke-width:1.5;" x="76.759008" xlink:href="#m2dc7a1e4a3" y="246.275392"/>
     <use style="fill:#f5deb3;stroke:#f5deb3;stroke-linejoin:miter;stroke-width:1.5;" x="76.759008" xlink:href="#m2dc7a1e4a3" y="246.275392"/>
     <use style="fill:#f5deb3;stroke:#f5deb3;stroke-linejoin:miter;stroke-width:1.5;" x="76.759008" xlink:href="#m2dc7a1e4a3" y="30.334099"/>
     <use style="fill:#f5deb3;stroke:#f5deb3;stroke-linejoin:miter;stroke-width:1.5;" x="76.759008" xlink:href="#m2dc7a1e4a3" y="30.334099"/>
     <use style="fill:#f5deb3;stroke:#f5deb3;stroke-linejoin:miter;stroke-width:1.5;" x="338.688" xlink:href="#m2dc7a1e4a3" y="30.334099"/>
    </g>
   </g>
   <g id="line2d_3">
    <path style="fill:none;stroke:#f5deb3;stroke-linecap:square;stroke-width:4;"/>
    <g/>
   </g>
   <g id="line2d_4">
    <path d="M 338.688 30.334099 
L 369.60768 35.706297 
" style="fill:none;stroke:#f5deb3;stroke-linecap:square;stroke-width:4;"/>
    <g>
     <use style="fill:#f5deb3;stroke:#f5deb3;stroke-linejoin:miter;stroke-width:1.5;" x="338.688" xlink:href="#m2dc7a1e4a3" y="30.334099"/>
     <use style="fill:#f5deb3;stroke:#f5deb3;stroke-linejoin:miter;stroke-width:1.5;" x="369.60768" xlink:href="#m2dc7a1e4a3" y="35.706297"/>
    </g>
   </g>
   <g id="matplotlib.axis_1">
    <g id="xtick_1">
     <g id="line2d_5">
      <path clip-path="url(#pb973fa0cbe)" d="M 57.6 298.944 
L 57.6 27.648 
" style="fill:none;stroke:#b0b0b0;stroke-linecap:square;stroke-width:0.8;"/>
     </g>
     <g id="line2d_6">
      <defs>
       <path d="M 0 0 
L 0 3.5 
" id="ma54bcfe271" style="stroke:#000000;stroke-width:0.8;"/>
      </defs>
      <g>
       <use style="stroke:#000000;stroke-width:0.8;" x="57.6" xlink:href="#ma54bcfe271" y="298.944"/>
      </g>
     </g>
     <g id="text_1">
      <!-- 0 -->
      <g transform="translate(51.2375 321.140875)scale(0.2 -0.2)">
       <defs>
        <path d="M 2034 4250 
Q 1547 4250 1301 3770 
Q 1056 3291 1056 2328 
Q 1056 1369 1301 889 
Q 1547 409 2034 409 
Q 2525 409 2770 889 
Q 3016 1369 3016 2328 
Q 3016 3291 2770 3770 
Q 2525 4250 2034 4250 
z
M 2034 4750 
Q 2819 4750 3233 4129 
Q 3647 3509 3647 2328 
Q 3647 1150 3233 529 
Q 2819 -91 2034 -91 
Q 1250 -91 836 529 
Q 422 1150 422 2328 
Q 422 3509 836 4129 
Q 1250 4750 2034 4750 
z
" id="DejaVuSans-30" transform="scale(0.015625)"/>
       </defs>
       <use xlink:href="#DejaVuSans-30"/>
      </g>
     </g>
    </g>
    <g id="xtick_2">
     <g id="line2d_7">
      <path clip-path="url(#pb973fa0cbe)" d="M 137.910857 298.944 
L 137.910857 27.648 
" style="fill:none;stroke:#b0b0b0;stroke-linecap:square;stroke-width:0.8;"/>
     </g>
     <g id="line2d_8">
      <g>
       <use style="stroke:#000000;stroke-width:0.8;" x="137.910857" xlink:href="#ma54bcfe271" y="298.944"/>
      </g>
     </g>
     <g id="text_2">
      <!-- 2 -->
      <g transform="translate(131.548357 321.140875)scale(0.2 -0.2)">
       <defs>
        <path d="M 1228 531 
L 3431 531 
L 3431 0 
L 469 0 
L 469 531 
Q 828 903 1448 1529 
Q 2069 2156 2228 2338 
Q 2531 2678 2651 2914 
Q 2772 3150 2772 3378 
Q 2772 3750 2511 3984 
Q 2250 4219 1831 4219 
Q 1534 4219 1204 4116 
Q 875 4013 500 3803 
L 500 4441 
Q 881 4594 1212 4672 
Q 1544 4750 1819 4750 
Q 2544 4750 2975 4387 
Q 3406 4025 3406 3419 
Q 3406 3131 3298 2873 
Q 3191 2616 2906 2266 
Q 2828 2175 2409 1742 
Q 1991 1309 1228 531 
z
" id="DejaVuSans-32" transform="scale(0.015625)"/>
       </defs>
       <use xlink:href="#DejaVuSans-32"/>
      </g>
     </g>
    </g>
    <g id="xtick_3">
     <g id="line2d_9">
      <path clip-path="url(#pb973fa0cbe)" d="M 218.221714 298.944 
L 218.221714 27.648 
" style="fill:none;stroke:#b0b0b0;stroke-linecap:square;stroke-width:0.8;"/>
     </g>
     <g id="line2d_10">
      <g>
       <use style="stroke:#000000;stroke-width:0.8;" x="218.221714" xlink:href="#ma54bcfe271" y="298.944"/>
      </g>
     </g>
     <g id="text_3">
      <!-- 4 -->
      <g transform="translate(211.859214 321.140875)scale(0.2 -0.2)">
       <defs>
        <path d="M 2419 4116 
L 825 1625 
L 2419 1625 
L 2419 4116 
z
M 2253 4666 
L 3047 4666 
L 3047 1625 
L 3713 1625 
L 3713 1100 
L 3047 1100 
L 3047 0 
L 2419 0 
L 2419 1100 
L 313 1100 
L 313 1709 
L 2253 4666 
z
" id="DejaVuSans-34" transform="scale(0.015625)"/>
       </defs>
       <use xlink:href="#DejaVuSans-34"/>
      </g>
     </g>
    </g>
    <g id="xtick_4">
     <g id="line2d_11">
      <path clip-path="url(#pb973fa0cbe)" d="M 298.532571 298.944 
L 298.532571 27.648 
" style="fill:none;stroke:#b0b0b0;stroke-linecap:square;stroke-width:0.8;"/>
     </g>
     <g id="line2d_12">
      <g>
       <use style="stroke:#000000;stroke-width:0.8;" x="298.532571" xlink:href="#ma54bcfe271" y="298.944"/>
      </g>
     </g>
     <g id="text_4">
      <!-- 6 -->
      <g transform="translate(292.170071 321.140875)scale(0.2 -0.2)">
       <defs>
        <path d="M 2113 2584 
Q 1688 2584 1439 2293 
Q 1191 2003 1191 1497 
Q 1191 994 1439 701 
Q 1688 409 2113 409 
Q 2538 409 2786 701 
Q 3034 994 3034 1497 
Q 3034 2003 2786 2293 
Q 2538 2584 2113 2584 
z
M 3366 4563 
L 3366 3988 
Q 3128 4100 2886 4159 
Q 2644 4219 2406 4219 
Q 1781 4219 1451 3797 
Q 1122 3375 1075 2522 
Q 1259 2794 1537 2939 
Q 1816 3084 2150 3084 
Q 2853 3084 3261 2657 
Q 3669 2231 3669 1497 
Q 3669 778 3244 343 
Q 2819 -91 2113 -91 
Q 1303 -91 875 529 
Q 447 1150 447 2328 
Q 447 3434 972 4092 
Q 1497 4750 2381 4750 
Q 2619 4750 2861 4703 
Q 3103 4656 3366 4563 
z
" id="DejaVuSans-36" transform="scale(0.015625)"/>
       </defs>
       <use xlink:href="#DejaVuSans-36"/>
      </g>
     </g>
    </g>
    <g id="xtick_5">
     <g id="line2d_13">
      <path clip-path="url(#pb973fa0cbe)" d="M 97.755429 298.944 
L 97.755429 27.648 
" style="fill:none;stroke:#b0b0b0;stroke-linecap:square;stroke-width:0.8;"/>
     </g>
     <g id="line2d_14">
      <defs>
       <path d="M 0 0 
L 0 2 
" id="mdc2090a0dd" style="stroke:#000000;stroke-width:0.6;"/>
      </defs>
      <g>
       <use style="stroke:#000000;stroke-width:0.6;" x="97.755429" xlink:href="#mdc2090a0dd" y="298.944"/>
      </g>
     </g>
    </g>
    <g id="xtick_6">
     <g id="line2d_15">
      <path clip-path="url(#pb973fa0cbe)" d="M 178.066286 298.944 
L 178.066286 27.648 
" style="fill:none;stroke:#b0b0b0;stroke-linecap:square;stroke-width:0.8;"/>
     </g>
     <g id="line2d_16">
      <g>
       <use style="stroke:#000000;stroke-width:0.6;" x="178.066286" xlink:href="#mdc2090a0dd" y="298.944"/>
      </g>
     </g>
    </g>
    <g id="xtick_7">
     <g id="line2d_17">
      <path clip-path="url(#pb973fa0cbe)" d="M 258.377143 298.944 
L 258.377143 27.648 
" style="fill:none;stroke:#b0b0b0;stroke-linecap:square;stroke-width:0.8;"/>
     </g>
     <g id="line2d_18">
      <g>
       <use style="stroke:#000000;stroke-width:0.6;" x="258.377143" xlink:href="#mdc2090a0dd" y="298.944"/>
      </g>
     </g>
    </g>
    <g id="xtick_8">
     <g id="line2d_19">
      <path clip-path="url(#pb973fa0cbe)" d="M 338.688 298.944 
L 338.688 27.648 
" style="fill:none;stroke:#b0b0b0;stroke-linecap:square;stroke-width:0.8;"/>
     </g>
     <g id="line2d_20">
      <g>
       <use style="stroke:#000000;stroke-width:0.6;" x="338.688" xlink:href="#mdc2090a0dd" y="298.944"/>
      </g>
     </g>
    </g>
    <g id="text_5">
     <!-- log10(# f-evals / dimension) -->
     <g transform="translate(77.764078 342.217594)scale(0.17 -0.17)">
      <defs>
       <path d="M 603 4863 
L 1178 4863 
L 1178 0 
L 603 0 
L 603 4863 
z
" id="DejaVuSans-6c" transform="scale(0.015625)"/>
       <path d="M 1959 3097 
Q 1497 3097 1228 2736 
Q 959 2375 959 1747 
Q 959 1119 1226 758 
Q 1494 397 1959 397 
Q 2419 397 2687 759 
Q 2956 1122 2956 1747 
Q 2956 2369 2687 2733 
Q 2419 3097 1959 3097 
z
M 1959 3584 
Q 2709 3584 3137 3096 
Q 3566 2609 3566 1747 
Q 3566 888 3137 398 
Q 2709 -91 1959 -91 
Q 1206 -91 779 398 
Q 353 888 353 1747 
Q 353 2609 779 3096 
Q 1206 3584 1959 3584 
z
" id="DejaVuSans-6f" transform="scale(0.015625)"/>
       <path d="M 2906 1791 
Q 2906 2416 2648 2759 
Q 2391 3103 1925 3103 
Q 1463 3103 1205 2759 
Q 947 2416 947 1791 
Q 947 1169 1205 825 
Q 1463 481 1925 481 
Q 2391 481 2648 825 
Q 2906 1169 2906 1791 
z
M 3481 434 
Q 3481 -459 3084 -895 
Q 2688 -1331 1869 -1331 
Q 1566 -1331 1297 -1286 
Q 1028 -1241 775 -1147 
L 775 -588 
Q 1028 -725 1275 -790 
Q 1522 -856 1778 -856 
Q 2344 -856 2625 -561 
Q 2906 -266 2906 331 
L 2906 616 
Q 2728 306 2450 153 
Q 2172 0 1784 0 
Q 1141 0 747 490 
Q 353 981 353 1791 
Q 353 2603 747 3093 
Q 1141 3584 1784 3584 
Q 2172 3584 2450 3431 
Q 2728 3278 2906 2969 
L 2906 3500 
L 3481 3500 
L 3481 434 
z
" id="DejaVuSans-67" transform="scale(0.015625)"/>
       <path d="M 794 531 
L 1825 531 
L 1825 4091 
L 703 3866 
L 703 4441 
L 1819 4666 
L 2450 4666 
L 2450 531 
L 3481 531 
L 3481 0 
L 794 0 
L 794 531 
z
" id="DejaVuSans-31" transform="scale(0.015625)"/>
       <path d="M 1984 4856 
Q 1566 4138 1362 3434 
Q 1159 2731 1159 2009 
Q 1159 1288 1364 580 
Q 1569 -128 1984 -844 
L 1484 -844 
Q 1016 -109 783 600 
Q 550 1309 550 2009 
Q 550 2706 781 3412 
Q 1013 4119 1484 4856 
L 1984 4856 
z
" id="DejaVuSans-28" transform="scale(0.015625)"/>
       <path d="M 3272 2816 
L 2363 2816 
L 2100 1772 
L 3016 1772 
L 3272 2816 
z
M 2803 4594 
L 2478 3297 
L 3391 3297 
L 3719 4594 
L 4219 4594 
L 3897 3297 
L 4872 3297 
L 4872 2816 
L 3775 2816 
L 3519 1772 
L 4513 1772 
L 4513 1294 
L 3397 1294 
L 3072 0 
L 2572 0 
L 2894 1294 
L 1978 1294 
L 1656 0 
L 1153 0 
L 1478 1294 
L 494 1294 
L 494 1772 
L 1594 1772 
L 1856 2816 
L 850 2816 
L 850 3297 
L 1978 3297 
L 2297 4594 
L 2803 4594 
z
" id="DejaVuSans-23" transform="scale(0.015625)"/>
       <path id="DejaVuSans-20" transform="scale(0.015625)"/>
       <path d="M 2375 4863 
L 2375 4384 
L 1825 4384 
Q 1516 4384 1395 4259 
Q 1275 4134 1275 3809 
L 1275 3500 
L 2222 3500 
L 2222 3053 
L 1275 3053 
L 1275 0 
L 697 0 
L 697 3053 
L 147 3053 
L 147 3500 
L 697 3500 
L 697 3744 
Q 697 4328 969 4595 
Q 1241 4863 1831 4863 
L 2375 4863 
z
" id="DejaVuSans-66" transform="scale(0.015625)"/>
       <path d="M 313 2009 
L 1997 2009 
L 1997 1497 
L 313 1497 
L 313 2009 
z
" id="DejaVuSans-2d" transform="scale(0.015625)"/>
       <path d="M 3597 1894 
L 3597 1613 
L 953 1613 
Q 991 1019 1311 708 
Q 1631 397 2203 397 
Q 2534 397 2845 478 
Q 3156 559 3463 722 
L 3463 178 
Q 3153 47 2828 -22 
Q 2503 -91 2169 -91 
Q 1331 -91 842 396 
Q 353 884 353 1716 
Q 353 2575 817 3079 
Q 1281 3584 2069 3584 
Q 2775 3584 3186 3129 
Q 3597 2675 3597 1894 
z
M 3022 2063 
Q 3016 2534 2758 2815 
Q 2500 3097 2075 3097 
Q 1594 3097 1305 2825 
Q 1016 2553 972 2059 
L 3022 2063 
z
" id="DejaVuSans-65" transform="scale(0.015625)"/>
       <path d="M 191 3500 
L 800 3500 
L 1894 563 
L 2988 3500 
L 3597 3500 
L 2284 0 
L 1503 0 
L 191 3500 
z
" id="DejaVuSans-76" transform="scale(0.015625)"/>
       <path d="M 2194 1759 
Q 1497 1759 1228 1600 
Q 959 1441 959 1056 
Q 959 750 1161 570 
Q 1363 391 1709 391 
Q 2188 391 2477 730 
Q 2766 1069 2766 1631 
L 2766 1759 
L 2194 1759 
z
M 3341 1997 
L 3341 0 
L 2766 0 
L 2766 531 
Q 2569 213 2275 61 
Q 1981 -91 1556 -91 
Q 1019 -91 701 211 
Q 384 513 384 1019 
Q 384 1609 779 1909 
Q 1175 2209 1959 2209 
L 2766 2209 
L 2766 2266 
Q 2766 2663 2505 2880 
Q 2244 3097 1772 3097 
Q 1472 3097 1187 3025 
Q 903 2953 641 2809 
L 641 3341 
Q 956 3463 1253 3523 
Q 1550 3584 1831 3584 
Q 2591 3584 2966 3190 
Q 3341 2797 3341 1997 
z
" id="DejaVuSans-61" transform="scale(0.015625)"/>
       <path d="M 2834 3397 
L 2834 2853 
Q 2591 2978 2328 3040 
Q 2066 3103 1784 3103 
Q 1356 3103 1142 2972 
Q 928 2841 928 2578 
Q 928 2378 1081 2264 
Q 1234 2150 1697 2047 
L 1894 2003 
Q 2506 1872 2764 1633 
Q 3022 1394 3022 966 
Q 3022 478 2636 193 
Q 2250 -91 1575 -91 
Q 1294 -91 989 -36 
Q 684 19 347 128 
L 347 722 
Q 666 556 975 473 
Q 1284 391 1588 391 
Q 1994 391 2212 530 
Q 2431 669 2431 922 
Q 2431 1156 2273 1281 
Q 2116 1406 1581 1522 
L 1381 1569 
Q 847 1681 609 1914 
Q 372 2147 372 2553 
Q 372 3047 722 3315 
Q 1072 3584 1716 3584 
Q 2034 3584 2315 3537 
Q 2597 3491 2834 3397 
z
" id="DejaVuSans-73" transform="scale(0.015625)"/>
       <path d="M 1625 4666 
L 2156 4666 
L 531 -594 
L 0 -594 
L 1625 4666 
z
" id="DejaVuSans-2f" transform="scale(0.015625)"/>
       <path d="M 2906 2969 
L 2906 4863 
L 3481 4863 
L 3481 0 
L 2906 0 
L 2906 525 
Q 2725 213 2448 61 
Q 2172 -91 1784 -91 
Q 1150 -91 751 415 
Q 353 922 353 1747 
Q 353 2572 751 3078 
Q 1150 3584 1784 3584 
Q 2172 3584 2448 3432 
Q 2725 3281 2906 2969 
z
M 947 1747 
Q 947 1113 1208 752 
Q 1469 391 1925 391 
Q 2381 391 2643 752 
Q 2906 1113 2906 1747 
Q 2906 2381 2643 2742 
Q 2381 3103 1925 3103 
Q 1469 3103 1208 2742 
Q 947 2381 947 1747 
z
" id="DejaVuSans-64" transform="scale(0.015625)"/>
       <path d="M 603 3500 
L 1178 3500 
L 1178 0 
L 603 0 
L 603 3500 
z
M 603 4863 
L 1178 4863 
L 1178 4134 
L 603 4134 
L 603 4863 
z
" id="DejaVuSans-69" transform="scale(0.015625)"/>
       <path d="M 3328 2828 
Q 3544 3216 3844 3400 
Q 4144 3584 4550 3584 
Q 5097 3584 5394 3201 
Q 5691 2819 5691 2113 
L 5691 0 
L 5113 0 
L 5113 2094 
Q 5113 2597 4934 2840 
Q 4756 3084 4391 3084 
Q 3944 3084 3684 2787 
Q 3425 2491 3425 1978 
L 3425 0 
L 2847 0 
L 2847 2094 
Q 2847 2600 2669 2842 
Q 2491 3084 2119 3084 
Q 1678 3084 1418 2786 
Q 1159 2488 1159 1978 
L 1159 0 
L 581 0 
L 581 3500 
L 1159 3500 
L 1159 2956 
Q 1356 3278 1631 3431 
Q 1906 3584 2284 3584 
Q 2666 3584 2933 3390 
Q 3200 3197 3328 2828 
z
" id="DejaVuSans-6d" transform="scale(0.015625)"/>
       <path d="M 3513 2113 
L 3513 0 
L 2938 0 
L 2938 2094 
Q 2938 2591 2744 2837 
Q 2550 3084 2163 3084 
Q 1697 3084 1428 2787 
Q 1159 2491 1159 1978 
L 1159 0 
L 581 0 
L 581 3500 
L 1159 3500 
L 1159 2956 
Q 1366 3272 1645 3428 
Q 1925 3584 2291 3584 
Q 2894 3584 3203 3211 
Q 3513 2838 3513 2113 
z
" id="DejaVuSans-6e" transform="scale(0.015625)"/>
       <path d="M 513 4856 
L 1013 4856 
Q 1481 4119 1714 3412 
Q 1947 2706 1947 2009 
Q 1947 1309 1714 600 
Q 1481 -109 1013 -844 
L 513 -844 
Q 928 -128 1133 580 
Q 1338 1288 1338 2009 
Q 1338 2731 1133 3434 
Q 928 4138 513 4856 
z
" id="DejaVuSans-29" transform="scale(0.015625)"/>
      </defs>
      <use xlink:href="#DejaVuSans-6c"/>
      <use x="27.783203" xlink:href="#DejaVuSans-6f"/>
      <use x="88.964844" xlink:href="#DejaVuSans-67"/>
      <use x="152.441406" xlink:href="#DejaVuSans-31"/>
      <use x="216.064453" xlink:href="#DejaVuSans-30"/>
      <use x="279.6875" xlink:href="#DejaVuSans-28"/>
      <use x="318.701172" xlink:href="#DejaVuSans-23"/>
      <use x="402.490234" xlink:href="#DejaVuSans-20"/>
      <use x="434.277344" xlink:href="#DejaVuSans-66"/>
      <use x="463.982422" xlink:href="#DejaVuSans-2d"/>
      <use x="500.066406" xlink:href="#DejaVuSans-65"/>
      <use x="561.589844" xlink:href="#DejaVuSans-76"/>
      <use x="620.769531" xlink:href="#DejaVuSans-61"/>
      <use x="682.048828" xlink:href="#DejaVuSans-6c"/>
      <use x="709.832031" xlink:href="#DejaVuSans-73"/>
      <use x="761.931641" xlink:href="#DejaVuSans-20"/>
      <use x="793.71875" xlink:href="#DejaVuSans-2f"/>
      <use x="827.410156" xlink:href="#DejaVuSans-20"/>
      <use x="859.197266" xlink:href="#DejaVuSans-64"/>
      <use x="922.673828" xlink:href="#DejaVuSans-69"/>
      <use x="950.457031" xlink:href="#DejaVuSans-6d"/>
      <use x="1047.869141" xlink:href="#DejaVuSans-65"/>
      <use x="1109.392578" xlink:href="#DejaVuSans-6e"/>
      <use x="1172.771484" xlink:href="#DejaVuSans-73"/>
      <use x="1224.871094" xlink:href="#DejaVuSans-69"/>
      <use x="1252.654297" xlink:href="#DejaVuSans-6f"/>
      <use x="1313.835938" xlink:href="#DejaVuSans-6e"/>
      <use x="1377.214844" xlink:href="#DejaVuSans-29"/>
     </g>
    </g>
   </g>
   <g id="matplotlib.axis_2">
    <g id="ytick_1">
     <g id="line2d_21">
      <path clip-path="url(#pb973fa0cbe)" d="M 57.6 298.944 
L 338.688 298.944 
" style="fill:none;stroke:#b0b0b0;stroke-linecap:square;stroke-width:0.8;"/>
     </g>
     <g id="line2d_22">
      <defs>
       <path d="M 0 0 
L -3.5 0 
" id="ma66738c2c9" style="stroke:#000000;stroke-width:0.8;"/>
      </defs>
      <g>
       <use style="stroke:#000000;stroke-width:0.8;" x="57.6" xlink:href="#ma66738c2c9" y="298.944"/>
      </g>
     </g>
     <g id="text_6">
      <!-- 0.0 -->
      <g transform="translate(25.155 305.02275)scale(0.16 -0.16)">
       <defs>
        <path d="M 684 794 
L 1344 794 
L 1344 0 
L 684 0 
L 684 794 
z
" id="DejaVuSans-2e" transform="scale(0.015625)"/>
       </defs>
       <use xlink:href="#DejaVuSans-30"/>
       <use x="63.623047" xlink:href="#DejaVuSans-2e"/>
       <use x="95.410156" xlink:href="#DejaVuSans-30"/>
      </g>
     </g>
    </g>
    <g id="ytick_2">
     <g id="line2d_23">
      <path clip-path="url(#pb973fa0cbe)" d="M 57.6 245.22202 
L 338.688 245.22202 
" style="fill:none;stroke:#b0b0b0;stroke-linecap:square;stroke-width:0.8;"/>
     </g>
     <g id="line2d_24">
      <g>
       <use style="stroke:#000000;stroke-width:0.8;" x="57.6" xlink:href="#ma66738c2c9" y="245.22202"/>
      </g>
     </g>
     <g id="text_7">
      <!-- 0.2 -->
      <g transform="translate(25.155 251.30077)scale(0.16 -0.16)">
       <use xlink:href="#DejaVuSans-30"/>
       <use x="63.623047" xlink:href="#DejaVuSans-2e"/>
       <use x="95.410156" xlink:href="#DejaVuSans-32"/>
      </g>
     </g>
    </g>
    <g id="ytick_3">
     <g id="line2d_25">
      <path clip-path="url(#pb973fa0cbe)" d="M 57.6 191.50004 
L 338.688 191.50004 
" style="fill:none;stroke:#b0b0b0;stroke-linecap:square;stroke-width:0.8;"/>
     </g>
     <g id="line2d_26">
      <g>
       <use style="stroke:#000000;stroke-width:0.8;" x="57.6" xlink:href="#ma66738c2c9" y="191.50004"/>
      </g>
     </g>
     <g id="text_8">
      <!-- 0.4 -->
      <g transform="translate(25.155 197.57879)scale(0.16 -0.16)">
       <use xlink:href="#DejaVuSans-30"/>
       <use x="63.623047" xlink:href="#DejaVuSans-2e"/>
       <use x="95.410156" xlink:href="#DejaVuSans-34"/>
      </g>
     </g>
    </g>
    <g id="ytick_4">
     <g id="line2d_27">
      <path clip-path="url(#pb973fa0cbe)" d="M 57.6 137.778059 
L 338.688 137.778059 
" style="fill:none;stroke:#b0b0b0;stroke-linecap:square;stroke-width:0.8;"/>
     </g>
     <g id="line2d_28">
      <g>
       <use style="stroke:#000000;stroke-width:0.8;" x="57.6" xlink:href="#ma66738c2c9" y="137.778059"/>
      </g>
     </g>
     <g id="text_9">
      <!-- 0.6 -->
      <g transform="translate(25.155 143.856809)scale(0.16 -0.16)">
       <use xlink:href="#DejaVuSans-30"/>
       <use x="63.623047" xlink:href="#DejaVuSans-2e"/>
       <use x="95.410156" xlink:href="#DejaVuSans-36"/>
      </g>
     </g>
    </g>
    <g id="ytick_5">
     <g id="line2d_29">
      <path clip-path="url(#pb973fa0cbe)" d="M 57.6 84.056079 
L 338.688 84.056079 
" style="fill:none;stroke:#b0b0b0;stroke-linecap:square;stroke-width:0.8;"/>
     </g>
     <g id="line2d_30">
      <g>
       <use style="stroke:#000000;stroke-width:0.8;" x="57.6" xlink:href="#ma66738c2c9" y="84.056079"/>
      </g>
     </g>
     <g id="text_10">
      <!-- 0.8 -->
      <g transform="translate(25.155 90.134829)scale(0.16 -0.16)">
       <defs>
        <path d="M 2034 2216 
Q 1584 2216 1326 1975 
Q 1069 1734 1069 1313 
Q 1069 891 1326 650 
Q 1584 409 2034 409 
Q 2484 409 2743 651 
Q 3003 894 3003 1313 
Q 3003 1734 2745 1975 
Q 2488 2216 2034 2216 
z
M 1403 2484 
Q 997 2584 770 2862 
Q 544 3141 544 3541 
Q 544 4100 942 4425 
Q 1341 4750 2034 4750 
Q 2731 4750 3128 4425 
Q 3525 4100 3525 3541 
Q 3525 3141 3298 2862 
Q 3072 2584 2669 2484 
Q 3125 2378 3379 2068 
Q 3634 1759 3634 1313 
Q 3634 634 3220 271 
Q 2806 -91 2034 -91 
Q 1263 -91 848 271 
Q 434 634 434 1313 
Q 434 1759 690 2068 
Q 947 2378 1403 2484 
z
M 1172 3481 
Q 1172 3119 1398 2916 
Q 1625 2713 2034 2713 
Q 2441 2713 2670 2916 
Q 2900 3119 2900 3481 
Q 2900 3844 2670 4047 
Q 2441 4250 2034 4250 
Q 1625 4250 1398 4047 
Q 1172 3844 1172 3481 
z
" id="DejaVuSans-38" transform="scale(0.015625)"/>
       </defs>
       <use xlink:href="#DejaVuSans-30"/>
       <use x="63.623047" xlink:href="#DejaVuSans-2e"/>
       <use x="95.410156" xlink:href="#DejaVuSans-38"/>
      </g>
     </g>
    </g>
    <g id="ytick_6">
     <g id="line2d_31">
      <path clip-path="url(#pb973fa0cbe)" d="M 57.6 30.334099 
L 338.688 30.334099 
" style="fill:none;stroke:#b0b0b0;stroke-linecap:square;stroke-width:0.8;"/>
     </g>
     <g id="line2d_32">
      <g>
       <use style="stroke:#000000;stroke-width:0.8;" x="57.6" xlink:href="#ma66738c2c9" y="30.334099"/>
      </g>
     </g>
     <g id="text_11">
      <!-- 1.0 -->
      <g transform="translate(25.155 36.412849)scale(0.16 -0.16)">
       <use xlink:href="#DejaVuSans-31"/>
       <use x="63.623047" xlink:href="#DejaVuSans-2e"/>
       <use x="95.410156" xlink:href="#DejaVuSans-30"/>
      </g>
     </g>
    </g>
    <g id="text_12">
     <!-- Fraction of function,target pairs -->
     <g transform="translate(17.619531 297.681)rotate(-90)scale(0.17 -0.17)">
      <defs>
       <path d="M 628 4666 
L 3309 4666 
L 3309 4134 
L 1259 4134 
L 1259 2759 
L 3109 2759 
L 3109 2228 
L 1259 2228 
L 1259 0 
L 628 0 
L 628 4666 
z
" id="DejaVuSans-46" transform="scale(0.015625)"/>
       <path d="M 2631 2963 
Q 2534 3019 2420 3045 
Q 2306 3072 2169 3072 
Q 1681 3072 1420 2755 
Q 1159 2438 1159 1844 
L 1159 0 
L 581 0 
L 581 3500 
L 1159 3500 
L 1159 2956 
Q 1341 3275 1631 3429 
Q 1922 3584 2338 3584 
Q 2397 3584 2469 3576 
Q 2541 3569 2628 3553 
L 2631 2963 
z
" id="DejaVuSans-72" transform="scale(0.015625)"/>
       <path d="M 3122 3366 
L 3122 2828 
Q 2878 2963 2633 3030 
Q 2388 3097 2138 3097 
Q 1578 3097 1268 2742 
Q 959 2388 959 1747 
Q 959 1106 1268 751 
Q 1578 397 2138 397 
Q 2388 397 2633 464 
Q 2878 531 3122 666 
L 3122 134 
Q 2881 22 2623 -34 
Q 2366 -91 2075 -91 
Q 1284 -91 818 406 
Q 353 903 353 1747 
Q 353 2603 823 3093 
Q 1294 3584 2113 3584 
Q 2378 3584 2631 3529 
Q 2884 3475 3122 3366 
z
" id="DejaVuSans-63" transform="scale(0.015625)"/>
       <path d="M 1172 4494 
L 1172 3500 
L 2356 3500 
L 2356 3053 
L 1172 3053 
L 1172 1153 
Q 1172 725 1289 603 
Q 1406 481 1766 481 
L 2356 481 
L 2356 0 
L 1766 0 
Q 1100 0 847 248 
Q 594 497 594 1153 
L 594 3053 
L 172 3053 
L 172 3500 
L 594 3500 
L 594 4494 
L 1172 4494 
z
" id="DejaVuSans-74" transform="scale(0.015625)"/>
       <path d="M 544 1381 
L 544 3500 
L 1119 3500 
L 1119 1403 
Q 1119 906 1312 657 
Q 1506 409 1894 409 
Q 2359 409 2629 706 
Q 2900 1003 2900 1516 
L 2900 3500 
L 3475 3500 
L 3475 0 
L 2900 0 
L 2900 538 
Q 2691 219 2414 64 
Q 2138 -91 1772 -91 
Q 1169 -91 856 284 
Q 544 659 544 1381 
z
M 1991 3584 
L 1991 3584 
z
" id="DejaVuSans-75" transform="scale(0.015625)"/>
       <path d="M 750 794 
L 1409 794 
L 1409 256 
L 897 -744 
L 494 -744 
L 750 256 
L 750 794 
z
" id="DejaVuSans-2c" transform="scale(0.015625)"/>
       <path d="M 1159 525 
L 1159 -1331 
L 581 -1331 
L 581 3500 
L 1159 3500 
L 1159 2969 
Q 1341 3281 1617 3432 
Q 1894 3584 2278 3584 
Q 2916 3584 3314 3078 
Q 3713 2572 3713 1747 
Q 3713 922 3314 415 
Q 2916 -91 2278 -91 
Q 1894 -91 1617 61 
Q 1341 213 1159 525 
z
M 3116 1747 
Q 3116 2381 2855 2742 
Q 2594 3103 2138 3103 
Q 1681 3103 1420 2742 
Q 1159 2381 1159 1747 
Q 1159 1113 1420 752 
Q 1681 391 2138 391 
Q 2594 391 2855 752 
Q 3116 1113 3116 1747 
z
" id="DejaVuSans-70" transform="scale(0.015625)"/>
      </defs>
      <use xlink:href="#DejaVuSans-46"/>
      <use x="50.269531" xlink:href="#DejaVuSans-72"/>
      <use x="91.382812" xlink:href="#DejaVuSans-61"/>
      <use x="152.662109" xlink:href="#DejaVuSans-63"/>
      <use x="207.642578" xlink:href="#DejaVuSans-74"/>
      <use x="246.851562" xlink:href="#DejaVuSans-69"/>
      <use x="274.634766" xlink:href="#DejaVuSans-6f"/>
      <use x="335.816406" xlink:href="#DejaVuSans-6e"/>
      <use x="399.195312" xlink:href="#DejaVuSans-20"/>
      <use x="430.982422" xlink:href="#DejaVuSans-6f"/>
      <use x="492.164062" xlink:href="#DejaVuSans-66"/>
      <use x="527.369141" xlink:href="#DejaVuSans-20"/>
      <use x="559.15625" xlink:href="#DejaVuSans-66"/>
      <use x="594.361328" xlink:href="#DejaVuSans-75"/>
      <use x="657.740234" xlink:href="#DejaVuSans-6e"/>
      <use x="721.119141" xlink:href="#DejaVuSans-63"/>
      <use x="776.099609" xlink:href="#DejaVuSans-74"/>
      <use x="815.308594" xlink:href="#DejaVuSans-69"/>
      <use x="843.091797" xlink:href="#DejaVuSans-6f"/>
      <use x="904.273438" xlink:href="#DejaVuSans-6e"/>
      <use x="967.652344" xlink:href="#DejaVuSans-2c"/>
      <use x="999.439453" xlink:href="#DejaVuSans-74"/>
      <use x="1038.648438" xlink:href="#DejaVuSans-61"/>
      <use x="1099.927734" xlink:href="#DejaVuSans-72"/>
      <use x="1139.291016" xlink:href="#DejaVuSans-67"/>
      <use x="1202.767578" xlink:href="#DejaVuSans-65"/>
      <use x="1264.291016" xlink:href="#DejaVuSans-74"/>
      <use x="1303.5" xlink:href="#DejaVuSans-20"/>
      <use x="1335.287109" xlink:href="#DejaVuSans-70"/>
      <use x="1398.763672" xlink:href="#DejaVuSans-61"/>
      <use x="1460.042969" xlink:href="#DejaVuSans-69"/>
      <use x="1487.826172" xlink:href="#DejaVuSans-72"/>
      <use x="1528.939453" xlink:href="#DejaVuSans-73"/>
     </g>
    </g>
   </g>
   <g id="line2d_33">
    <defs>
     <path d="M 0 1.5 
C 0.397805 1.5 0.77937 1.341951 1.06066 1.06066 
C 1.341951 0.77937 1.5 0.397805 1.5 0 
C 1.5 -0.397805 1.341951 -0.77937 1.06066 -1.06066 
C 0.77937 -1.341951 0.397805 -1.5 0 -1.5 
C -0.397805 -1.5 -0.77937 -1.341951 -1.06066 -1.06066 
C -1.341951 -0.77937 -1.5 -0.397805 -1.5 0 
C -1.5 0.397805 -1.341951 0.77937 -1.06066 1.06066 
C -0.77937 1.341951 -0.397805 1.5 0 1.5 
z
" id="meef192ed6e" style="stroke:#f5deb3;"/>
    </defs>
    <g>
     <use style="fill:#f5deb3;stroke:#f5deb3;" x="76.759008" xlink:href="#meef192ed6e" y="30.334099"/>
     <use style="fill:#f5deb3;stroke:#f5deb3;" x="76.759008" xlink:href="#meef192ed6e" y="30.334099"/>
    </g>
   </g>
   <g id="line2d_34">
    <defs>
     <path d="M 0 1.5 
C 0.397805 1.5 0.77937 1.341951 1.06066 1.06066 
C 1.341951 0.77937 1.5 0.397805 1.5 0 
C 1.5 -0.397805 1.341951 -0.77937 1.06066 -1.06066 
C 0.77937 -1.341951 0.397805 -1.5 0 -1.5 
C -0.397805 -1.5 -0.77937 -1.341951 -1.06066 -1.06066 
C -1.341951 -0.77937 -1.5 -0.397805 -1.5 0 
C -1.5 0.397805 -1.341951 0.77937 -1.06066 1.06066 
C -0.77937 1.341951 -0.397805 1.5 0 1.5 
z
" id="m2f2183b835" style="stroke:#000080;"/>
    </defs>
    <g>
     <use style="fill:#000080;stroke:#000080;" x="190.724699" xlink:href="#m2f2183b835" y="30.334099"/>
     <use style="fill:#000080;stroke:#000080;" x="190.724699" xlink:href="#m2f2183b835" y="30.334099"/>
    </g>
   </g>
   <g id="line2d_35">
    <path d="M 45.512012 298.944 
L 45.512012 276.296499 
L 57.6 276.296499 
L 57.6 265.762777 
L 64.67102 265.762777 
L 64.67102 261.022602 
L 73.579452 261.022602 
L 73.579452 259.96923 
L 76.759008 259.96923 
L 76.759008 255.229055 
L 81.775977 255.229055 
L 81.775977 253.122311 
L 83.830028 253.122311 
L 83.830028 252.068939 
L 85.66744 252.068939 
L 85.66744 248.382136 
L 87.329581 248.382136 
L 87.329581 246.802078 
L 88.846997 246.802078 
L 88.846997 245.748706 
L 90.242884 245.748706 
L 90.242884 244.168648 
L 91.535274 244.168648 
L 91.535274 239.428473 
L 92.73846 239.428473 
L 92.73846 238.901787 
L 93.863965 238.901787 
L 93.863965 238.375101 
L 94.921215 238.375101 
L 94.921215 237.321729 
L 95.918017 237.321729 
L 95.918017 236.795043 
L 96.86091 236.795043 
L 96.86091 235.214984 
L 97.755429 235.214984 
L 97.755429 234.688298 
L 104.826449 234.688298 
L 104.826449 233.634926 
L 107.514726 233.634926 
L 107.514726 232.581554 
L 108.948899 232.581554 
L 108.948899 231.528182 
L 110.274038 231.528182 
L 110.274038 230.47481 
L 111.505558 230.47481 
L 111.505558 229.421437 
L 112.655818 229.421437 
L 112.655818 227.841379 
L 113.022974 227.841379 
L 113.022974 225.734635 
L 113.73488 225.734635 
L 113.73488 222.047832 
L 115.077025 222.047832 
L 115.077025 221.521146 
L 116.019919 221.521146 
L 116.019919 220.467774 
L 118.576578 220.467774 
L 118.576578 219.941088 
L 120.571812 219.941088 
L 120.571812 219.414402 
L 121.264855 219.414402 
L 121.264855 218.36103 
L 122.148045 218.36103 
L 122.148045 215.727599 
L 123.593547 215.727599 
L 123.593547 214.147541 
L 124.368753 214.147541 
L 124.368753 213.620855 
L 127.642832 213.620855 
L 127.642832 212.567483 
L 127.799239 212.567483 
L 127.799239 211.514111 
L 129.147151 211.514111 
L 129.147151 209.407366 
L 131.056477 209.407366 
L 131.056477 208.88068 
L 133.239232 208.88068 
L 133.239232 208.353994 
L 135.280614 208.353994 
L 135.280614 206.773936 
L 136.551264 206.773936 
L 136.551264 205.720564 
L 136.738785 205.720564 
L 136.738785 204.140506 
L 137.016339 204.140506 
L 137.016339 203.613819 
L 137.289545 203.613819 
L 137.289545 202.033761 
L 138.594838 202.033761 
L 138.594838 200.980389 
L 139.090775 200.980389 
L 139.090775 200.453703 
L 139.964909 200.453703 
L 139.964909 199.400331 
L 140.195896 199.400331 
L 140.195896 197.820273 
L 141.235139 197.820273 
L 141.235139 197.293586 
L 144.026061 197.293586 
L 144.026061 196.240214 
L 144.747789 196.240214 
L 144.747789 195.713528 
L 145.998045 195.713528 
L 145.998045 193.606784 
L 146.484754 193.606784 
L 146.484754 192.026726 
L 146.749392 192.026726 
L 146.749392 191.50004 
L 147.419225 191.50004 
L 147.4697 189.919981 
L 147.570215 189.919981 
L 147.570215 187.813237 
L 147.96658 187.813237 
L 147.96658 185.706493 
L 148.87334 185.706493 
L 148.87334 184.653121 
L 150.849711 184.653121 
L 150.849711 184.126434 
L 151.056095 184.126434 
L 151.056095 183.073062 
L 151.700576 183.073062 
L 151.779487 182.01969 
L 152.922207 182.01969 
L 153.032466 179.912946 
L 153.925152 179.912946 
L 153.994632 178.332888 
L 154.607795 178.332888 
L 154.607795 175.699457 
L 154.972161 175.699457 
L 154.972161 175.172771 
L 155.990803 175.172771 
L 155.990803 174.646085 
L 156.448553 174.646085 
L 156.448553 173.592713 
L 156.747178 173.592713 
L 156.747178 172.539341 
L 156.953214 172.539341 
L 156.953214 170.959282 
L 157.069866 170.959282 
L 157.069866 166.219108 
L 158.811096 166.219108 
L 158.811096 165.165736 
L 158.942121 165.165736 
L 158.968208 163.585677 
L 159.098062 163.585677 
L 159.098062 159.372189 
L 159.683242 159.372189 
L 159.683242 158.845503 
L 159.980933 158.845503 
L 159.980933 158.318817 
L 160.891432 158.318817 
L 160.914762 157.265444 
L 162.346481 157.265444 
L 162.346481 156.738758 
L 164.043731 156.738758 
L 164.043731 156.212072 
L 164.314412 156.212072 
L 164.371873 154.105328 
L 164.954803 154.105328 
L 164.954803 150.945211 
L 165.7501 150.945211 
L 165.7501 144.098292 
L 166.527611 144.098292 
L 166.527611 143.571606 
L 166.862349 143.571606 
L 166.945039 142.518234 
L 167.010909 142.518234 
L 167.010909 140.938176 
L 167.608702 140.938176 
L 167.624577 139.358118 
L 167.907893 139.358118 
L 167.907893 138.831432 
L 168.140524 138.831432 
L 168.217383 137.778059 
L 168.581663 137.778059 
L 168.581663 137.251373 
L 169.331381 137.251373 
L 169.331381 136.198001 
L 169.939378 136.198001 
L 169.994873 134.617943 
L 170.674059 134.617943 
L 170.674059 134.091257 
L 171.108254 134.091257 
L 171.198983 131.984513 
L 171.353428 131.984513 
L 171.353428 129.877768 
L 171.46837 129.877768 
L 171.46837 129.351082 
L 171.645677 129.351082 
L 171.645677 127.771024 
L 172.191475 127.771024 
L 172.191475 126.190966 
L 172.732551 126.190966 
L 172.83878 123.557535 
L 172.944366 123.557535 
L 172.944366 123.030849 
L 173.222844 123.030849 
L 173.245851 121.450791 
L 173.474266 121.450791 
L 173.474266 120.924105 
L 173.766803 120.924105 
L 173.766803 119.344047 
L 173.900183 119.344047 
L 173.944417 117.237302 
L 174.272644 117.237302 
L 174.272644 116.710616 
L 174.530849 116.710616 
L 174.530849 115.657244 
L 174.690307 115.657244 
L 174.764225 112.497128 
L 175.118863 112.497128 
L 175.20127 105.650209 
L 175.58747 105.650209 
L 175.58747 105.123522 
L 176.043814 105.123522 
L 176.043814 104.596836 
L 176.23856 104.596836 
L 176.23856 103.543464 
L 176.421575 103.543464 
L 176.421575 102.490092 
L 176.536182 102.490092 
L 176.536182 101.963406 
L 176.772554 101.963406 
L 176.772554 100.910034 
L 177.25418 100.910034 
L 177.25418 99.856662 
L 177.372536 99.856662 
L 177.372536 98.803289 
L 177.553068 98.803289 
L 177.553068 98.276603 
L 178.092425 98.276603 
L 178.092425 96.696545 
L 178.513913 96.696545 
L 178.6156 95.643173 
L 178.699888 95.643173 
L 178.699888 95.116487 
L 178.833909 95.116487 
L 178.833909 94.063115 
L 179.139941 94.063115 
L 179.139941 93.009743 
L 179.319393 93.009743 
L 179.319393 92.483056 
L 179.656938 92.483056 
L 179.736352 90.376312 
L 179.783827 90.376312 
L 179.823292 85.109451 
L 179.956806 85.109451 
L 179.956806 84.582765 
L 180.228512 84.582765 
L 180.228512 84.056079 
L 180.358972 84.056079 
L 180.366615 80.895963 
L 180.480872 80.895963 
L 180.480872 79.842591 
L 180.767015 79.842591 
L 180.834104 78.262532 
L 180.908345 78.262532 
L 180.908345 77.735846 
L 181.231304 77.735846 
L 181.267628 76.155788 
L 181.541248 76.155788 
L 181.605428 72.995672 
L 181.655184 72.995672 
L 181.718947 70.362241 
L 181.985629 70.362241 
L 181.985629 68.782183 
L 182.296252 68.782183 
L 182.330427 67.202125 
L 182.53408 67.202125 
L 182.53408 66.675439 
L 182.728709 66.675439 
L 182.742052 60.881892 
L 183.039601 60.881892 
L 183.039601 59.82852 
L 183.286971 59.82852 
L 183.370799 57.721775 
L 183.645238 57.721775 
L 183.657898 56.668403 
L 184.370816 56.668403 
L 184.370816 56.141717 
L 184.522016 56.141717 
L 184.522016 55.615031 
L 184.755301 55.615031 
L 184.755301 55.088345 
L 184.991369 55.088345 
L 185.090739 52.454914 
L 185.533866 52.454914 
L 185.545227 51.401542 
L 185.68662 51.401542 
L 185.68662 50.874856 
L 186.273707 50.874856 
L 186.273707 50.34817 
L 186.490213 50.34817 
L 186.560002 48.241426 
L 186.624176 48.241426 
L 186.704063 46.661368 
L 186.972973 46.661368 
L 186.972973 46.134681 
L 187.278979 46.134681 
L 187.289259 42.447879 
L 187.422344 42.447879 
L 187.488508 40.867821 
L 187.59991 40.867821 
L 187.59991 40.341135 
L 187.850478 40.341135 
L 187.880306 37.181018 
L 188.365238 37.181018 
L 188.365238 36.127646 
L 188.609886 36.127646 
L 188.704897 33.494215 
L 188.846451 33.494215 
L 188.846451 32.967529 
L 189.614096 32.967529 
L 189.614096 32.440843 
L 189.770784 32.440843 
L 189.770784 31.914157 
L 190.062477 31.914157 
L 190.062477 30.860785 
L 190.724699 30.860785 
L 190.724699 30.334099 
L 338.688 30.334099 
L 338.688 30.334099 
" style="fill:none;stroke:#000080;stroke-linecap:square;stroke-width:1.5;"/>
   </g>
   <g id="line2d_36">
    <defs>
     <path d="M 0 6 
C 1.591219 6 3.117479 5.367802 4.242641 4.242641 
C 5.367802 3.117479 6 1.591219 6 0 
C 6 -1.591219 5.367802 -3.117479 4.242641 -4.242641 
C 3.117479 -5.367802 1.591219 -6 0 -6 
C -1.591219 -6 -3.117479 -5.367802 -4.242641 -4.242641 
C -5.367802 -3.117479 -6 -1.591219 -6 0 
C -6 1.591219 -5.367802 3.117479 -4.242641 4.242641 
C -3.117479 5.367802 -1.591219 6 0 6 
z
" id="m965a5b3336" style="stroke:#000080;stroke-width:1.5;"/>
    </defs>
    <g>
     <use style="fill-opacity:0;stroke:#000080;stroke-width:1.5;" x="115.077025" xlink:href="#m965a5b3336" y="222.047832"/>
     <use style="fill-opacity:0;stroke:#000080;stroke-width:1.5;" x="164.954803" xlink:href="#m965a5b3336" y="154.105328"/>
     <use style="fill-opacity:0;stroke:#000080;stroke-width:1.5;" x="188.704897" xlink:href="#m965a5b3336" y="35.074274"/>
     <use style="fill-opacity:0;stroke:#000080;stroke-width:1.5;" x="190.724699" xlink:href="#m965a5b3336" y="30.334099"/>
     <use style="fill-opacity:0;stroke:#000080;stroke-width:1.5;" x="190.724699" xlink:href="#m965a5b3336" y="30.334099"/>
     <use style="fill-opacity:0;stroke:#000080;stroke-width:1.5;" x="338.688" xlink:href="#m965a5b3336" y="30.334099"/>
    </g>
   </g>
   <g id="line2d_37">
    <path style="fill:none;stroke:#000080;stroke-linecap:square;stroke-width:1.5;"/>
    <g/>
   </g>
   <g id="line2d_38">
    <defs>
     <path d="M 0 1.5 
C 0.397805 1.5 0.77937 1.341951 1.06066 1.06066 
C 1.341951 0.77937 1.5 0.397805 1.5 0 
C 1.5 -0.397805 1.341951 -0.77937 1.06066 -1.06066 
C 0.77937 -1.341951 0.397805 -1.5 0 -1.5 
C -0.397805 -1.5 -0.77937 -1.341951 -1.06066 -1.06066 
C -1.341951 -0.77937 -1.5 -0.397805 -1.5 0 
C -1.5 0.397805 -1.341951 0.77937 -1.06066 1.06066 
C -0.77937 1.341951 -0.397805 1.5 0 1.5 
z
" id="mf0f0afd9a6" style="stroke:#ff00ff;"/>
    </defs>
    <g>
     <use style="fill:#ff00ff;stroke:#ff00ff;" x="202.583331" xlink:href="#mf0f0afd9a6" y="30.334099"/>
     <use style="fill:#ff00ff;stroke:#ff00ff;" x="202.583331" xlink:href="#mf0f0afd9a6" y="30.334099"/>
    </g>
   </g>
   <g id="line2d_39">
    <path d="M 45.512012 298.944 
L 45.512012 276.823185 
L 57.6 276.823185 
L 57.6 265.236091 
L 64.67102 265.236091 
L 64.67102 263.656033 
L 69.687988 263.656033 
L 69.687988 261.022602 
L 73.579452 261.022602 
L 73.579452 257.3358 
L 76.759008 257.3358 
L 76.759008 254.175683 
L 79.447285 254.175683 
L 79.447285 252.068939 
L 81.775977 252.068939 
L 81.775977 251.542253 
L 85.66744 251.542253 
L 85.66744 248.382136 
L 87.329581 248.382136 
L 87.329581 246.275392 
L 88.846997 246.275392 
L 88.846997 243.641962 
L 90.242884 243.641962 
L 90.242884 242.588589 
L 92.73846 242.588589 
L 92.73846 242.061903 
L 96.86091 242.061903 
L 96.86091 239.955159 
L 97.755429 239.955159 
L 97.755429 239.428473 
L 98.606294 239.428473 
L 98.606294 238.901787 
L 100.192776 238.901787 
L 100.192776 236.795043 
L 104.826449 236.795043 
L 104.826449 236.268356 
L 108.948899 236.268356 
L 108.948899 235.74167 
L 109.843417 235.74167 
L 109.843417 234.688298 
L 110.274038 234.688298 
L 110.274038 234.161612 
L 112.280765 234.161612 
L 112.280765 232.581554 
L 113.382559 232.581554 
L 113.382559 229.948123 
L 114.418861 229.948123 
L 114.418861 227.841379 
L 115.711251 227.841379 
L 115.711251 227.314693 
L 116.914437 227.314693 
L 116.914437 226.261321 
L 117.202696 226.261321 
L 117.202696 223.627891 
L 119.602714 223.627891 
L 119.602714 222.047832 
L 122.362027 222.047832 
L 122.362027 221.521146 
L 123.985457 221.521146 
L 123.985457 220.99446 
L 126.338353 220.99446 
L 126.338353 220.467774 
L 128.411207 220.467774 
L 128.411207 219.941088 
L 129.002426 219.941088 
L 129.002426 218.36103 
L 129.853291 218.36103 
L 129.853291 217.834344 
L 130.398313 217.834344 
L 130.398313 216.780971 
L 131.814826 216.780971 
L 131.814826 215.200913 
L 133.46572 215.200913 
L 133.46572 213.094169 
L 134.343353 213.094169 
L 134.343353 209.934052 
L 135.381712 209.934052 
L 135.381712 209.407366 
L 136.073445 209.407366 
L 136.073445 208.88068 
L 137.469333 208.88068 
L 137.469333 207.827308 
L 138.170504 207.827308 
L 138.170504 207.300622 
L 138.927025 207.300622 
L 139.009092 204.140506 
L 140.272217 204.140506 
L 140.272217 203.613819 
L 144.390658 203.613819 
L 144.390658 203.087133 
L 144.510517 203.087133 
L 144.510517 202.560447 
L 145.270136 202.560447 
L 145.270136 201.507075 
L 146.270114 201.507075 
L 146.270114 200.453703 
L 146.958248 200.453703 
L 146.958248 199.927017 
L 147.266916 199.927017 
L 147.266916 199.400331 
L 148.064279 199.400331 
L 148.064279 198.873645 
L 148.258051 198.873645 
L 148.258051 198.346959 
L 150.429467 198.346959 
L 150.429467 195.713528 
L 151.501723 195.713528 
L 151.501723 194.13347 
L 152.052897 194.13347 
L 152.052897 193.606784 
L 152.549559 193.606784 
L 152.549559 193.080098 
L 153.359122 193.080098 
L 153.359122 192.553412 
L 153.537988 192.553412 
L 153.537988 192.026726 
L 153.785358 192.026726 
L 153.785358 190.973354 
L 156.508689 190.973354 
L 156.508689 189.919981 
L 156.806295 189.919981 
L 156.806295 189.393295 
L 157.069866 189.393295 
L 157.069866 188.339923 
L 157.38669 188.339923 
L 157.38669 186.233179 
L 159.252621 186.233179 
L 159.252621 185.706493 
L 159.481921 185.706493 
L 159.481921 184.126434 
L 160.394148 184.126434 
L 160.394148 182.01969 
L 161.352206 182.01969 
L 161.352206 178.332888 
L 163.225959 178.332888 
L 163.225959 177.806202 
L 163.669525 177.806202 
L 163.669525 177.279515 
L 164.024234 177.279515 
L 164.024234 176.752829 
L 164.179597 176.752829 
L 164.218222 175.172771 
L 165.943384 175.172771 
L 165.943384 174.646085 
L 166.662278 174.646085 
L 166.662278 173.592713 
L 167.954668 173.592713 
L 167.954668 169.90591 
L 169.143315 169.90591 
L 169.143315 167.799166 
L 169.417501 167.799166 
L 169.417501 163.585677 
L 169.75779 163.585677 
L 169.75779 163.058991 
L 171.557249 163.058991 
L 171.557249 162.532305 
L 171.73366 162.532305 
L 171.73366 159.898875 
L 173.508272 159.898875 
L 173.508272 157.79213 
L 174.434469 157.79213 
L 174.434469 156.212072 
L 175.707673 156.212072 
L 175.707673 155.1587 
L 176.199784 155.1587 
L 176.199784 153.051956 
L 176.392805 153.051956 
L 176.392805 152.52527 
L 177.776137 152.52527 
L 177.776137 151.998584 
L 178.274311 151.998584 
L 178.274311 151.471897 
L 178.437256 151.471897 
L 178.530902 149.891839 
L 179.246204 149.891839 
L 179.246204 149.365153 
L 179.448753 149.365153 
L 179.448753 148.838467 
L 179.601132 148.838467 
L 179.601132 147.785095 
L 180.159048 147.785095 
L 180.159048 143.04492 
L 181.368935 143.04492 
L 181.368935 140.41149 
L 182.547572 140.41149 
L 182.547572 139.884804 
L 182.815256 139.884804 
L 182.815256 139.358118 
L 183.222213 139.358118 
L 183.222213 138.304745 
L 183.505367 138.304745 
L 183.505367 137.251373 
L 183.827916 137.251373 
L 183.827916 136.724687 
L 184.779052 136.724687 
L 184.779052 135.144629 
L 184.991369 135.144629 
L 184.991369 131.984513 
L 185.993706 131.984513 
L 185.993706 130.93114 
L 186.109546 130.93114 
L 186.153474 129.877768 
L 186.58677 129.877768 
L 186.624176 128.29771 
L 186.925819 128.29771 
L 187.009561 126.717652 
L 187.175849 126.717652 
L 187.186189 125.66428 
L 187.299532 125.66428 
L 187.299532 125.137593 
L 187.594861 125.137593 
L 187.594861 124.610907 
L 187.939809 124.610907 
L 188.023758 123.030849 
L 188.195334 123.030849 
L 188.244047 116.710616 
L 188.761656 116.710616 
L 188.794681 114.603872 
L 189.075212 114.603872 
L 189.167728 108.810325 
L 189.378671 108.810325 
L 189.378671 106.703581 
L 189.833067 106.703581 
L 189.833067 105.650209 
L 189.961379 105.650209 
L 189.961379 104.596836 
L 190.813084 104.596836 
L 190.834063 102.490092 
L 191.034181 102.490092 
L 191.108637 99.329976 
L 191.272966 99.329976 
L 191.346412 95.643173 
L 191.423604 95.643173 
L 191.423604 94.063115 
L 191.536741 94.063115 
L 191.54882 93.009743 
L 191.89945 93.009743 
L 191.89945 91.95637 
L 192.103375 91.95637 
L 192.126752 90.376312 
L 192.765149 90.376312 
L 192.765149 89.849626 
L 192.940682 89.849626 
L 192.940682 89.32294 
L 193.271957 89.32294 
L 193.271957 87.742882 
L 193.395486 87.742882 
L 193.478556 85.636137 
L 193.600635 85.636137 
L 193.600635 85.109451 
L 193.884553 85.109451 
L 193.912693 84.056079 
L 194.205445 84.056079 
L 194.305384 83.002707 
L 194.712942 83.002707 
L 194.712942 82.476021 
L 195.10791 82.476021 
L 195.10791 81.422649 
L 195.222396 81.422649 
L 195.222396 80.895963 
L 195.404023 80.895963 
L 195.449135 78.789218 
L 195.653892 78.789218 
L 195.653892 76.682474 
L 195.947208 76.682474 
L 195.947208 75.629102 
L 196.133859 75.629102 
L 196.241823 74.57573 
L 196.275617 74.57573 
L 196.275617 74.049044 
L 196.513388 74.049044 
L 196.597957 70.888927 
L 196.65511 70.888927 
L 196.65511 69.835555 
L 196.861106 69.835555 
L 196.967624 68.255497 
L 197.126191 68.255497 
L 197.196204 63.515322 
L 197.320947 63.515322 
L 197.421828 58.775147 
L 197.607643 58.775147 
L 197.607643 57.195089 
L 197.839266 57.195089 
L 197.839266 55.088345 
L 197.967867 55.088345 
L 197.967867 54.561659 
L 198.128675 54.561659 
L 198.153496 51.401542 
L 198.326258 51.401542 
L 198.326258 50.874856 
L 198.437779 50.874856 
L 198.497326 48.768112 
L 198.567439 48.768112 
L 198.567439 47.71474 
L 198.984928 47.71474 
L 198.984928 47.188054 
L 199.10277 47.188054 
L 199.18349 46.134681 
L 199.214636 46.134681 
L 199.214636 45.081309 
L 199.431116 45.081309 
L 199.431116 43.501251 
L 199.573957 43.501251 
L 199.573957 42.447879 
L 199.938467 42.447879 
L 199.955872 38.761076 
L 200.153571 38.761076 
L 200.251586 36.654332 
L 200.752569 36.654332 
L 200.849645 34.547588 
L 201.559851 34.547588 
L 201.562118 32.967529 
L 201.838706 32.967529 
L 201.838706 32.440843 
L 201.963193 32.440843 
L 201.963193 31.914157 
L 202.084599 31.914157 
L 202.084599 31.387471 
L 202.583331 31.387471 
L 202.583331 30.334099 
L 338.688 30.334099 
L 338.688 30.334099 
" style="fill:none;stroke:#ff00ff;stroke-linecap:square;stroke-width:1.5;"/>
   </g>
   <g id="line2d_40">
    <defs>
     <path d="M 0 8.485281 
L 5.091169 0 
L 0 -8.485281 
L -5.091169 0 
z
" id="mc46a99635b" style="stroke:#ff00ff;stroke-linejoin:miter;stroke-width:1.5;"/>
    </defs>
    <g>
     <use style="fill-opacity:0;stroke:#ff00ff;stroke-linejoin:miter;stroke-width:1.5;" x="92.73846" xlink:href="#mc46a99635b" y="242.061903"/>
     <use style="fill-opacity:0;stroke:#ff00ff;stroke-linejoin:miter;stroke-width:1.5;" x="159.481921" xlink:href="#mc46a99635b" y="185.706493"/>
     <use style="fill-opacity:0;stroke:#ff00ff;stroke-linejoin:miter;stroke-width:1.5;" x="191.087987" xlink:href="#mc46a99635b" y="101.963406"/>
     <use style="fill-opacity:0;stroke:#ff00ff;stroke-linejoin:miter;stroke-width:1.5;" x="202.583331" xlink:href="#mc46a99635b" y="31.387471"/>
     <use style="fill-opacity:0;stroke:#ff00ff;stroke-linejoin:miter;stroke-width:1.5;" x="202.583331" xlink:href="#mc46a99635b" y="30.334099"/>
     <use style="fill-opacity:0;stroke:#ff00ff;stroke-linejoin:miter;stroke-width:1.5;" x="338.688" xlink:href="#mc46a99635b" y="30.334099"/>
    </g>
   </g>
   <g id="line2d_41">
    <path style="fill:none;stroke:#ff00ff;stroke-linecap:square;stroke-width:1.5;"/>
    <g/>
   </g>
   <g id="line2d_42">
    <defs>
     <path d="M 0 1.5 
C 0.397805 1.5 0.77937 1.341951 1.06066 1.06066 
C 1.341951 0.77937 1.5 0.397805 1.5 0 
C 1.5 -0.397805 1.341951 -0.77937 1.06066 -1.06066 
C 0.77937 -1.341951 0.397805 -1.5 0 -1.5 
C -0.397805 -1.5 -0.77937 -1.341951 -1.06066 -1.06066 
C -1.341951 -0.77937 -1.5 -0.397805 -1.5 0 
C -1.5 0.397805 -1.341951 0.77937 -1.06066 1.06066 
C -0.77937 1.341951 -0.397805 1.5 0 1.5 
z
" id="mf5220a9279" style="stroke:#ff7500;"/>
    </defs>
    <g>
     <use style="fill:#ff7500;stroke:#ff7500;" x="180.097069" xlink:href="#mf5220a9279" y="30.334099"/>
     <use style="fill:#ff7500;stroke:#ff7500;" x="180.097069" xlink:href="#mf5220a9279" y="30.334099"/>
    </g>
   </g>
   <g id="line2d_43">
    <path d="M 45.512012 298.944 
L 45.512012 278.403243 
L 57.6 278.403243 
L 57.6 269.976266 
L 64.67102 269.976266 
L 64.67102 267.869521 
L 69.687988 267.869521 
L 69.687988 261.022602 
L 73.579452 261.022602 
L 73.579452 256.809114 
L 79.447285 256.809114 
L 79.447285 254.175683 
L 81.775977 254.175683 
L 81.775977 253.122311 
L 83.830028 253.122311 
L 83.830028 252.595625 
L 85.66744 252.595625 
L 85.66744 252.068939 
L 87.329581 252.068939 
L 87.329581 249.435508 
L 92.73846 249.435508 
L 92.73846 247.328764 
L 95.918017 247.328764 
L 95.918017 243.641962 
L 97.755429 243.641962 
L 97.755429 243.115275 
L 98.606294 243.115275 
L 98.606294 241.008531 
L 102.330873 241.008531 
L 102.330873 239.428473 
L 105.951954 239.428473 
L 105.951954 237.848415 
L 107.514726 237.848415 
L 107.514726 236.795043 
L 111.104637 236.795043 
L 111.104637 236.268356 
L 111.505558 236.268356 
L 111.505558 233.634926 
L 111.897469 233.634926 
L 111.897469 232.054868 
L 112.655818 232.054868 
L 112.655818 230.47481 
L 113.022974 230.47481 
L 113.022974 229.421437 
L 113.73488 229.421437 
L 113.73488 226.261321 
L 116.621333 226.261321 
L 116.621333 225.734635 
L 119.602714 225.734635 
L 119.602714 225.207949 
L 120.571812 225.207949 
L 120.571812 223.627891 
L 122.148045 223.627891 
L 122.148045 221.521146 
L 122.362027 221.521146 
L 122.362027 219.414402 
L 122.573415 219.414402 
L 122.573415 218.36103 
L 123.790603 218.36103 
L 123.790603 217.307658 
L 124.178158 217.307658 
L 124.178158 216.780971 
L 125.647598 216.780971 
L 125.647598 216.254285 
L 129.002426 216.254285 
L 129.002426 211.514111 
L 129.290685 211.514111 
L 129.290685 210.987425 
L 129.991152 210.987425 
L 129.991152 209.934052 
L 130.531948 209.934052 
L 130.531948 209.407366 
L 130.796184 209.407366 
L 130.796184 208.353994 
L 131.056477 208.353994 
L 131.056477 207.827308 
L 131.690703 207.827308 
L 131.690703 207.300622 
L 132.30267 207.300622 
L 132.30267 206.773936 
L 132.541568 206.773936 
L 132.541568 206.24725 
L 132.659801 206.24725 
L 132.659801 204.140506 
L 133.239232 204.140506 
L 133.239232 203.613819 
L 133.57787 203.613819 
L 133.57787 203.087133 
L 134.12805 203.087133 
L 134.12805 200.980389 
L 134.661403 200.980389 
L 134.661403 199.927017 
L 135.178927 199.927017 
L 135.178927 198.873645 
L 135.681535 198.873645 
L 135.681535 196.7669 
L 136.266147 196.7669 
L 136.266147 194.660156 
L 136.738785 194.660156 
L 136.831795 188.339923 
L 137.016339 188.339923 
L 137.016339 187.813237 
L 137.647286 187.813237 
L 137.647286 185.179807 
L 138.170504 185.179807 
L 138.170504 184.653121 
L 138.426341 184.653121 
L 138.426341 181.493004 
L 138.761723 181.493004 
L 138.761723 179.912946 
L 139.253002 179.912946 
L 139.253002 179.38626 
L 139.887228 179.38626 
L 139.887228 178.859574 
L 140.042245 178.859574 
L 140.042245 177.806202 
L 140.64889 177.806202 
L 140.64889 176.752829 
L 141.162927 176.752829 
L 141.235139 174.119399 
L 141.307054 174.119399 
L 141.307054 173.592713 
L 141.871938 173.592713 
L 141.871938 173.066027 
L 142.215919 173.066027 
L 142.215919 171.485969 
L 142.351634 171.485969 
L 142.351634 170.959282 
L 142.818488 170.959282 
L 142.818488 168.852538 
L 143.144465 168.852538 
L 143.144465 168.325852 
L 143.273169 168.325852 
L 143.273169 167.799166 
L 143.40093 167.799166 
L 143.40093 166.745794 
L 143.590833 166.745794 
L 143.653678 165.165736 
L 143.840863 165.165736 
L 143.840863 163.585677 
L 145.270136 163.585677 
L 145.327221 162.005619 
L 146.107383 162.005619 
L 146.107383 161.478933 
L 146.324022 161.478933 
L 146.431341 159.372189 
L 146.591092 159.372189 
L 146.591092 158.845503 
L 147.164632 158.845503 
L 147.266916 157.79213 
L 148.015498 157.79213 
L 148.015498 157.265444 
L 148.209809 157.265444 
L 148.209809 156.212072 
L 148.449693 156.212072 
L 148.449693 153.051956 
L 149.195872 153.051956 
L 149.195872 151.998584 
L 149.646525 151.998584 
L 149.646525 150.418525 
L 150.47195 150.418525 
L 150.47195 149.891839 
L 150.598782 149.891839 
L 150.682827 147.258409 
L 151.13797 147.258409 
L 151.13797 146.731723 
L 151.740076 146.731723 
L 151.740076 145.678351 
L 151.897188 145.678351 
L 151.975216 143.571606 
L 152.207228 143.571606 
L 152.207228 141.991548 
L 152.624728 141.991548 
L 152.662192 139.884804 
L 152.848312 139.884804 
L 152.959038 137.251373 
L 153.250915 137.251373 
L 153.250915 136.724687 
L 153.537988 136.724687 
L 153.609024 134.617943 
L 153.679772 134.617943 
L 153.679772 134.091257 
L 153.855395 134.091257 
L 153.890309 130.93114 
L 154.098334 130.93114 
L 154.132765 125.66428 
L 154.371897 125.66428 
L 154.371897 125.137593 
L 154.57429 125.137593 
L 154.57429 124.610907 
L 154.972161 124.610907 
L 154.972161 123.557535 
L 155.361158 123.557535 
L 155.425155 122.504163 
L 155.584129 122.504163 
L 155.647315 121.450791 
L 155.710272 121.450791 
L 155.710272 118.817361 
L 156.052535 118.817361 
L 156.052535 117.763988 
L 156.266892 117.763988 
L 156.266892 115.657244 
L 156.478647 115.657244 
L 156.478647 115.130558 
L 156.628341 115.130558 
L 156.658127 113.5505 
L 157.243392 113.5505 
L 157.243392 111.970441 
L 157.415209 111.970441 
L 157.500487 110.390383 
L 157.669802 110.390383 
L 157.669802 109.863697 
L 158.222599 109.863697 
L 158.331086 106.176895 
L 158.385078 106.176895 
L 158.465753 104.07015 
L 158.83738 104.07015 
L 158.83738 103.543464 
L 159.123917 103.543464 
L 159.201253 100.910034 
L 159.608019 100.910034 
L 159.608019 100.383348 
L 159.783038 100.383348 
L 159.807898 98.276603 
L 160.297798 98.276603 
L 160.297798 95.116487 
L 160.489968 95.116487 
L 160.489968 94.589801 
L 160.750792 94.589801 
L 160.750792 94.063115 
L 161.12334 94.063115 
L 161.12334 93.536429 
L 161.622937 93.536429 
L 161.622937 92.483056 
L 162.152109 92.483056 
L 162.238764 89.849626 
L 162.517456 89.849626 
L 162.517456 88.796254 
L 162.728843 88.796254 
L 162.728843 87.742882 
L 162.854457 87.742882 
L 162.854457 87.216196 
L 163.549667 87.216196 
L 163.549667 86.162824 
L 164.448194 86.162824 
L 164.448194 85.109451 
L 164.65637 85.109451 
L 164.65637 84.582765 
L 164.843488 84.582765 
L 164.880672 82.476021 
L 165.102127 82.476021 
L 165.102127 81.422649 
L 165.320804 81.422649 
L 165.320804 80.895963 
L 165.483031 80.895963 
L 165.572509 77.20916 
L 166.306535 77.20916 
L 166.306535 76.682474 
L 166.729224 76.682474 
L 166.729224 76.155788 
L 166.862349 76.155788 
L 166.862349 74.049044 
L 167.010909 74.049044 
L 167.010909 73.522358 
L 167.656285 73.522358 
L 167.719528 72.468985 
L 168.339657 72.468985 
L 168.339657 70.888927 
L 168.790698 70.888927 
L 168.790698 68.782183 
L 168.923766 68.782183 
L 168.923766 67.728811 
L 169.474679 67.728811 
L 169.488944 66.675439 
L 169.771826 66.675439 
L 169.799863 64.568694 
L 169.967148 64.568694 
L 170.036379 62.46195 
L 170.378471 62.46195 
L 170.378471 60.881892 
L 170.647393 60.881892 
L 170.700684 58.248461 
L 170.819995 58.248461 
L 170.819995 56.668403 
L 171.920711 56.668403 
L 171.920711 56.141717 
L 172.031987 56.141717 
L 172.093501 53.508287 
L 172.203683 53.508287 
L 172.203683 52.9816 
L 172.397859 52.9816 
L 172.42198 50.34817 
L 172.554051 50.34817 
L 172.554051 48.768112 
L 172.685129 48.768112 
L 172.685129 48.241426 
L 172.944366 48.241426 
L 172.944366 47.188054 
L 173.176739 47.188054 
L 173.176739 46.134681 
L 173.474266 46.134681 
L 173.55351 41.921193 
L 173.800244 41.921193 
L 173.800244 40.341135 
L 174.272644 40.341135 
L 174.272644 39.814448 
L 174.552194 39.814448 
L 174.552194 38.761076 
L 175.160115 38.761076 
L 175.160115 38.23439 
L 176.459861 38.23439 
L 176.517133 37.181018 
L 176.583714 37.181018 
L 176.583714 36.654332 
L 176.950079 36.654332 
L 177.052036 35.074274 
L 177.125814 35.074274 
L 177.125814 34.547588 
L 177.372536 34.547588 
L 177.372536 32.967529 
L 177.678338 32.967529 
L 177.678338 32.440843 
L 178.031372 32.440843 
L 178.031372 31.914157 
L 179.775924 31.914157 
L 179.791727 30.860785 
L 180.097069 30.860785 
L 180.097069 30.334099 
L 338.688 30.334099 
L 338.688 30.334099 
" style="fill:none;stroke:#ff7500;stroke-linecap:square;stroke-width:1.5;"/>
   </g>
   <g id="line2d_44">
    <defs>
     <path d="M 0 -6 
L -1.347084 -1.854102 
L -5.706339 -1.854102 
L -2.179628 0.708204 
L -3.526712 4.854102 
L -0 2.291796 
L 3.526712 4.854102 
L 2.179628 0.708204 
L 5.706339 -1.854102 
L 1.347084 -1.854102 
z
" id="mc0de620aa9" style="stroke:#ff7500;stroke-linejoin:bevel;stroke-width:1.5;"/>
    </defs>
    <g>
     <use style="fill-opacity:0;stroke:#ff7500;stroke-linejoin:bevel;stroke-width:1.5;" x="120.571812" xlink:href="#mc0de620aa9" y="223.627891"/>
     <use style="fill-opacity:0;stroke:#ff7500;stroke-linejoin:bevel;stroke-width:1.5;" x="169.488944" xlink:href="#mc0de620aa9" y="66.675439"/>
     <use style="fill-opacity:0;stroke:#ff7500;stroke-linejoin:bevel;stroke-width:1.5;" x="180.097069" xlink:href="#mc0de620aa9" y="30.860785"/>
     <use style="fill-opacity:0;stroke:#ff7500;stroke-linejoin:bevel;stroke-width:1.5;" x="180.097069" xlink:href="#mc0de620aa9" y="30.334099"/>
     <use style="fill-opacity:0;stroke:#ff7500;stroke-linejoin:bevel;stroke-width:1.5;" x="180.097069" xlink:href="#mc0de620aa9" y="30.334099"/>
     <use style="fill-opacity:0;stroke:#ff7500;stroke-linejoin:bevel;stroke-width:1.5;" x="338.688" xlink:href="#mc0de620aa9" y="30.334099"/>
    </g>
   </g>
   <g id="line2d_45">
    <path style="fill:none;stroke:#ff7500;stroke-linecap:square;stroke-width:1.5;"/>
    <g/>
   </g>
   <g id="line2d_46">
    <path d="M 338.688 30.334099 
L 369.60768 293.571802 
" style="fill:none;stroke:#ff00ff;stroke-linecap:square;stroke-width:1.5;"/>
    <g>
     <use style="fill-opacity:0;stroke:#ff00ff;stroke-linejoin:miter;stroke-width:1.5;" x="338.688" xlink:href="#mc46a99635b" y="30.334099"/>
     <use style="fill-opacity:0;stroke:#ff00ff;stroke-linejoin:miter;stroke-width:1.5;" x="369.60768" xlink:href="#mc46a99635b" y="293.571802"/>
    </g>
   </g>
   <g id="line2d_47">
    <path d="M 338.688 30.334099 
L 369.60768 207.616634 
" style="fill:none;stroke:#000080;stroke-linecap:square;stroke-width:1.5;"/>
    <g>
     <use style="fill-opacity:0;stroke:#000080;stroke-width:1.5;" x="338.688" xlink:href="#m965a5b3336" y="30.334099"/>
     <use style="fill-opacity:0;stroke:#000080;stroke-width:1.5;" x="369.60768" xlink:href="#m965a5b3336" y="207.616634"/>
    </g>
   </g>
   <g id="line2d_48">
    <path d="M 338.688 30.334099 
L 369.60768 121.661465 
" style="fill:none;stroke:#ff7500;stroke-linecap:square;stroke-width:1.5;"/>
    <g>
     <use style="fill-opacity:0;stroke:#ff7500;stroke-linejoin:bevel;stroke-width:1.5;" x="338.688" xlink:href="#mc0de620aa9" y="30.334099"/>
     <use style="fill-opacity:0;stroke:#ff7500;stroke-linejoin:bevel;stroke-width:1.5;" x="369.60768" xlink:href="#mc0de620aa9" y="121.661465"/>
    </g>
   </g>
   <g id="line2d_49">
    <path d="M 338.688 298.944 
L 338.688 30.334099 
" style="fill:none;stroke:#000000;stroke-linecap:square;stroke-width:1.5;"/>
   </g>
   <g id="patch_3">
    <path d="M 57.6 298.944 
L 57.6 27.648 
" style="fill:none;stroke:#000000;stroke-linecap:square;stroke-linejoin:miter;stroke-width:0.8;"/>
   </g>
   <g id="patch_4">
    <path d="M 338.688 298.944 
L 338.688 27.648 
" style="fill:none;stroke:#000000;stroke-linecap:square;stroke-linejoin:miter;stroke-width:0.8;"/>
   </g>
   <g id="patch_5">
    <path d="M 57.6 298.944 
L 338.688 298.944 
" style="fill:none;stroke:#000000;stroke-linecap:square;stroke-linejoin:miter;stroke-width:0.8;"/>
   </g>
   <g id="patch_6">
    <path d="M 57.6 27.648 
L 338.688 27.648 
" style="fill:none;stroke:#000000;stroke-linecap:square;stroke-linejoin:miter;stroke-width:0.8;"/>
   </g>
   <g id="text_13">
    <!-- PSO Bound -->
    <g transform="translate(375.22944 298.262739)scale(0.17 -0.17)">
     <defs>
      <path d="M 1259 4147 
L 1259 2394 
L 2053 2394 
Q 2494 2394 2734 2622 
Q 2975 2850 2975 3272 
Q 2975 3691 2734 3919 
Q 2494 4147 2053 4147 
L 1259 4147 
z
M 628 4666 
L 2053 4666 
Q 2838 4666 3239 4311 
Q 3641 3956 3641 3272 
Q 3641 2581 3239 2228 
Q 2838 1875 2053 1875 
L 1259 1875 
L 1259 0 
L 628 0 
L 628 4666 
z
" id="DejaVuSans-50" transform="scale(0.015625)"/>
      <path d="M 3425 4513 
L 3425 3897 
Q 3066 4069 2747 4153 
Q 2428 4238 2131 4238 
Q 1616 4238 1336 4038 
Q 1056 3838 1056 3469 
Q 1056 3159 1242 3001 
Q 1428 2844 1947 2747 
L 2328 2669 
Q 3034 2534 3370 2195 
Q 3706 1856 3706 1288 
Q 3706 609 3251 259 
Q 2797 -91 1919 -91 
Q 1588 -91 1214 -16 
Q 841 59 441 206 
L 441 856 
Q 825 641 1194 531 
Q 1563 422 1919 422 
Q 2459 422 2753 634 
Q 3047 847 3047 1241 
Q 3047 1584 2836 1778 
Q 2625 1972 2144 2069 
L 1759 2144 
Q 1053 2284 737 2584 
Q 422 2884 422 3419 
Q 422 4038 858 4394 
Q 1294 4750 2059 4750 
Q 2388 4750 2728 4690 
Q 3069 4631 3425 4513 
z
" id="DejaVuSans-53" transform="scale(0.015625)"/>
      <path d="M 2522 4238 
Q 1834 4238 1429 3725 
Q 1025 3213 1025 2328 
Q 1025 1447 1429 934 
Q 1834 422 2522 422 
Q 3209 422 3611 934 
Q 4013 1447 4013 2328 
Q 4013 3213 3611 3725 
Q 3209 4238 2522 4238 
z
M 2522 4750 
Q 3503 4750 4090 4092 
Q 4678 3434 4678 2328 
Q 4678 1225 4090 567 
Q 3503 -91 2522 -91 
Q 1538 -91 948 565 
Q 359 1222 359 2328 
Q 359 3434 948 4092 
Q 1538 4750 2522 4750 
z
" id="DejaVuSans-4f" transform="scale(0.015625)"/>
      <path d="M 1259 2228 
L 1259 519 
L 2272 519 
Q 2781 519 3026 730 
Q 3272 941 3272 1375 
Q 3272 1813 3026 2020 
Q 2781 2228 2272 2228 
L 1259 2228 
z
M 1259 4147 
L 1259 2741 
L 2194 2741 
Q 2656 2741 2882 2914 
Q 3109 3088 3109 3444 
Q 3109 3797 2882 3972 
Q 2656 4147 2194 4147 
L 1259 4147 
z
M 628 4666 
L 2241 4666 
Q 2963 4666 3353 4366 
Q 3744 4066 3744 3513 
Q 3744 3084 3544 2831 
Q 3344 2578 2956 2516 
Q 3422 2416 3680 2098 
Q 3938 1781 3938 1306 
Q 3938 681 3513 340 
Q 3088 0 2303 0 
L 628 0 
L 628 4666 
z
" id="DejaVuSans-42" transform="scale(0.015625)"/>
     </defs>
     <use xlink:href="#DejaVuSans-50"/>
     <use x="60.302734" xlink:href="#DejaVuSans-53"/>
     <use x="123.779297" xlink:href="#DejaVuSans-4f"/>
     <use x="202.490234" xlink:href="#DejaVuSans-20"/>
     <use x="234.277344" xlink:href="#DejaVuSans-42"/>
     <use x="302.880859" xlink:href="#DejaVuSans-6f"/>
     <use x="364.0625" xlink:href="#DejaVuSans-75"/>
     <use x="427.441406" xlink:href="#DejaVuSans-6e"/>
     <use x="490.820312" xlink:href="#DejaVuSans-64"/>
    </g>
   </g>
   <g id="text_14">
    <!-- PSO -->
    <g transform="translate(375.22944 212.307571)scale(0.17 -0.17)">
     <use xlink:href="#DejaVuSans-50"/>
     <use x="60.302734" xlink:href="#DejaVuSans-53"/>
     <use x="123.779297" xlink:href="#DejaVuSans-4f"/>
    </g>
   </g>
   <g id="text_15">
    <!-- PSO EDA -->
    <g transform="translate(375.22944 126.352403)scale(0.17 -0.17)">
     <defs>
      <path d="M 628 4666 
L 3578 4666 
L 3578 4134 
L 1259 4134 
L 1259 2753 
L 3481 2753 
L 3481 2222 
L 1259 2222 
L 1259 531 
L 3634 531 
L 3634 0 
L 628 0 
L 628 4666 
z
" id="DejaVuSans-45" transform="scale(0.015625)"/>
      <path d="M 1259 4147 
L 1259 519 
L 2022 519 
Q 2988 519 3436 956 
Q 3884 1394 3884 2338 
Q 3884 3275 3436 3711 
Q 2988 4147 2022 4147 
L 1259 4147 
z
M 628 4666 
L 1925 4666 
Q 3281 4666 3915 4102 
Q 4550 3538 4550 2338 
Q 4550 1131 3912 565 
Q 3275 0 1925 0 
L 628 0 
L 628 4666 
z
" id="DejaVuSans-44" transform="scale(0.015625)"/>
      <path d="M 2188 4044 
L 1331 1722 
L 3047 1722 
L 2188 4044 
z
M 1831 4666 
L 2547 4666 
L 4325 0 
L 3669 0 
L 3244 1197 
L 1141 1197 
L 716 0 
L 50 0 
L 1831 4666 
z
" id="DejaVuSans-41" transform="scale(0.015625)"/>
     </defs>
     <use xlink:href="#DejaVuSans-50"/>
     <use x="60.302734" xlink:href="#DejaVuSans-53"/>
     <use x="123.779297" xlink:href="#DejaVuSans-4f"/>
     <use x="202.490234" xlink:href="#DejaVuSans-20"/>
     <use x="234.277344" xlink:href="#DejaVuSans-45"/>
     <use x="297.460938" xlink:href="#DejaVuSans-44"/>
     <use x="372.712891" xlink:href="#DejaVuSans-41"/>
    </g>
   </g>
   <g id="text_16">
    <!-- best 2009 -->
    <g transform="translate(375.22944 40.397235)scale(0.17 -0.17)">
     <defs>
      <path d="M 3116 1747 
Q 3116 2381 2855 2742 
Q 2594 3103 2138 3103 
Q 1681 3103 1420 2742 
Q 1159 2381 1159 1747 
Q 1159 1113 1420 752 
Q 1681 391 2138 391 
Q 2594 391 2855 752 
Q 3116 1113 3116 1747 
z
M 1159 2969 
Q 1341 3281 1617 3432 
Q 1894 3584 2278 3584 
Q 2916 3584 3314 3078 
Q 3713 2572 3713 1747 
Q 3713 922 3314 415 
Q 2916 -91 2278 -91 
Q 1894 -91 1617 61 
Q 1341 213 1159 525 
L 1159 0 
L 581 0 
L 581 4863 
L 1159 4863 
L 1159 2969 
z
" id="DejaVuSans-62" transform="scale(0.015625)"/>
      <path d="M 703 97 
L 703 672 
Q 941 559 1184 500 
Q 1428 441 1663 441 
Q 2288 441 2617 861 
Q 2947 1281 2994 2138 
Q 2813 1869 2534 1725 
Q 2256 1581 1919 1581 
Q 1219 1581 811 2004 
Q 403 2428 403 3163 
Q 403 3881 828 4315 
Q 1253 4750 1959 4750 
Q 2769 4750 3195 4129 
Q 3622 3509 3622 2328 
Q 3622 1225 3098 567 
Q 2575 -91 1691 -91 
Q 1453 -91 1209 -44 
Q 966 3 703 97 
z
M 1959 2075 
Q 2384 2075 2632 2365 
Q 2881 2656 2881 3163 
Q 2881 3666 2632 3958 
Q 2384 4250 1959 4250 
Q 1534 4250 1286 3958 
Q 1038 3666 1038 3163 
Q 1038 2656 1286 2365 
Q 1534 2075 1959 2075 
z
" id="DejaVuSans-39" transform="scale(0.015625)"/>
     </defs>
     <use xlink:href="#DejaVuSans-62"/>
     <use x="63.476562" xlink:href="#DejaVuSans-65"/>
     <use x="125" xlink:href="#DejaVuSans-73"/>
     <use x="177.099609" xlink:href="#DejaVuSans-74"/>
     <use x="216.308594" xlink:href="#DejaVuSans-20"/>
     <use x="248.095703" xlink:href="#DejaVuSans-32"/>
     <use x="311.71875" xlink:href="#DejaVuSans-30"/>
     <use x="375.341797" xlink:href="#DejaVuSans-30"/>
     <use x="438.964844" xlink:href="#DejaVuSans-39"/>
    </g>
   </g>
   <g id="text_17">
    <!-- bbob f1, 2-D -->
    <g transform="translate(60.41088 38.111366)scale(0.102 -0.102)">
     <use xlink:href="#DejaVuSans-62"/>
     <use x="63.476562" xlink:href="#DejaVuSans-62"/>
     <use x="126.953125" xlink:href="#DejaVuSans-6f"/>
     <use x="188.134766" xlink:href="#DejaVuSans-62"/>
     <use x="251.611328" xlink:href="#DejaVuSans-20"/>
     <use x="283.398438" xlink:href="#DejaVuSans-66"/>
     <use x="318.603516" xlink:href="#DejaVuSans-31"/>
     <use x="382.226562" xlink:href="#DejaVuSans-2c"/>
     <use x="414.013672" xlink:href="#DejaVuSans-20"/>
     <use x="445.800781" xlink:href="#DejaVuSans-32"/>
     <use x="509.423828" xlink:href="#DejaVuSans-2d"/>
     <use x="545.507812" xlink:href="#DejaVuSans-44"/>
    </g>
    <!-- 51 targets: 100..1e-08 -->
    <g transform="translate(60.41088 49.533135)scale(0.102 -0.102)">
     <defs>
      <path d="M 691 4666 
L 3169 4666 
L 3169 4134 
L 1269 4134 
L 1269 2991 
Q 1406 3038 1543 3061 
Q 1681 3084 1819 3084 
Q 2600 3084 3056 2656 
Q 3513 2228 3513 1497 
Q 3513 744 3044 326 
Q 2575 -91 1722 -91 
Q 1428 -91 1123 -41 
Q 819 9 494 109 
L 494 744 
Q 775 591 1075 516 
Q 1375 441 1709 441 
Q 2250 441 2565 725 
Q 2881 1009 2881 1497 
Q 2881 1984 2565 2268 
Q 2250 2553 1709 2553 
Q 1456 2553 1204 2497 
Q 953 2441 691 2322 
L 691 4666 
z
" id="DejaVuSans-35" transform="scale(0.015625)"/>
      <path d="M 750 794 
L 1409 794 
L 1409 0 
L 750 0 
L 750 794 
z
M 750 3309 
L 1409 3309 
L 1409 2516 
L 750 2516 
L 750 3309 
z
" id="DejaVuSans-3a" transform="scale(0.015625)"/>
     </defs>
     <use xlink:href="#DejaVuSans-35"/>
     <use x="63.623047" xlink:href="#DejaVuSans-31"/>
     <use x="127.246094" xlink:href="#DejaVuSans-20"/>
     <use x="159.033203" xlink:href="#DejaVuSans-74"/>
     <use x="198.242188" xlink:href="#DejaVuSans-61"/>
     <use x="259.521484" xlink:href="#DejaVuSans-72"/>
     <use x="298.884766" xlink:href="#DejaVuSans-67"/>
     <use x="362.361328" xlink:href="#DejaVuSans-65"/>
     <use x="423.884766" xlink:href="#DejaVuSans-74"/>
     <use x="463.09375" xlink:href="#DejaVuSans-73"/>
     <use x="515.193359" xlink:href="#DejaVuSans-3a"/>
     <use x="548.884766" xlink:href="#DejaVuSans-20"/>
     <use x="580.671875" xlink:href="#DejaVuSans-31"/>
     <use x="644.294922" xlink:href="#DejaVuSans-30"/>
     <use x="707.917969" xlink:href="#DejaVuSans-30"/>
     <use x="771.541016" xlink:href="#DejaVuSans-2e"/>
     <use x="803.328125" xlink:href="#DejaVuSans-2e"/>
     <use x="835.115234" xlink:href="#DejaVuSans-31"/>
     <use x="898.738281" xlink:href="#DejaVuSans-65"/>
     <use x="960.261719" xlink:href="#DejaVuSans-2d"/>
     <use x="996.345703" xlink:href="#DejaVuSans-30"/>
     <use x="1059.96875" xlink:href="#DejaVuSans-38"/>
    </g>
    <!-- 15 instances -->
    <g transform="translate(60.41088 60.954904)scale(0.102 -0.102)">
     <use xlink:href="#DejaVuSans-31"/>
     <use x="63.623047" xlink:href="#DejaVuSans-35"/>
     <use x="127.246094" xlink:href="#DejaVuSans-20"/>
     <use x="159.033203" xlink:href="#DejaVuSans-69"/>
     <use x="186.816406" xlink:href="#DejaVuSans-6e"/>
     <use x="250.195312" xlink:href="#DejaVuSans-73"/>
     <use x="302.294922" xlink:href="#DejaVuSans-74"/>
     <use x="341.503906" xlink:href="#DejaVuSans-61"/>
     <use x="402.783203" xlink:href="#DejaVuSans-6e"/>
     <use x="466.162109" xlink:href="#DejaVuSans-63"/>
     <use x="521.142578" xlink:href="#DejaVuSans-65"/>
     <use x="582.666016" xlink:href="#DejaVuSans-73"/>
    </g>
   </g>
   <g id="text_18">
    <!-- v2.4 -->
    <g style="fill:#808080;" transform="translate(187.233062 294.151352)scale(0.1 -0.1)">
     <use xlink:href="#DejaVuSans-76"/>
     <use x="59.179688" xlink:href="#DejaVuSans-32"/>
     <use x="122.802734" xlink:href="#DejaVuSans-2e"/>
     <use x="154.589844" xlink:href="#DejaVuSans-34"/>
    </g>
   </g>
   <g id="text_19">
    <!-- 1 Sphere -->
    <g transform="translate(153.376812 21.648)scale(0.2 -0.2)">
     <defs>
      <path d="M 3513 2113 
L 3513 0 
L 2938 0 
L 2938 2094 
Q 2938 2591 2744 2837 
Q 2550 3084 2163 3084 
Q 1697 3084 1428 2787 
Q 1159 2491 1159 1978 
L 1159 0 
L 581 0 
L 581 4863 
L 1159 4863 
L 1159 2956 
Q 1366 3272 1645 3428 
Q 1925 3584 2291 3584 
Q 2894 3584 3203 3211 
Q 3513 2838 3513 2113 
z
" id="DejaVuSans-68" transform="scale(0.015625)"/>
     </defs>
     <use xlink:href="#DejaVuSans-31"/>
     <use x="63.623047" xlink:href="#DejaVuSans-20"/>
     <use x="95.410156" xlink:href="#DejaVuSans-53"/>
     <use x="158.886719" xlink:href="#DejaVuSans-70"/>
     <use x="222.363281" xlink:href="#DejaVuSans-68"/>
     <use x="285.742188" xlink:href="#DejaVuSans-65"/>
     <use x="347.265625" xlink:href="#DejaVuSans-72"/>
     <use x="386.128906" xlink:href="#DejaVuSans-65"/>
    </g>
   </g>
  </g>
 </g>
 <defs>
  <clipPath id="pb973fa0cbe">
   <rect height="271.296" width="281.088" x="57.6" y="27.648"/>
  </clipPath>
 </defs>
</svg>
