<?xml version="1.0" encoding="utf-8" standalone="no"?>
<!DOCTYPE svg PUBLIC "-//W3C//DTD SVG 1.1//EN"
  "http://www.w3.org/Graphics/SVG/1.1/DTD/svg11.dtd">
<svg height="345.6pt" version="1.1" viewBox="0 0 460.8 345.6" width="460.8pt" xmlns="http://www.w3.org/2000/svg" xmlns:xlink="http://www.w3.org/1999/xlink">
 <metadata>
  <rdf:RDF xmlns:cc="http://creativecommons.org/ns#" xmlns:dc="http://purl.org/dc/elements/1.1/" xmlns:rdf="http://www.w3.org/1999/02/22-rdf-syntax-ns#">
   <cc:Work>
    <dc:type rdf:resource="http://purl.org/dc/dcmitype/StillImage"/>
    <dc:date>2021-04-25T03:18:52.772813</dc:date>
    <dc:format>image/svg+xml</dc:format>
    <dc:creator>
     <cc:Agent>
      <dc:title>Matplotlib v3.4.1, https://matplotlib.org/</dc:title>
     </cc:Agent>
    </dc:creator>
   </cc:Work>
  </rdf:RDF>
 </metadata>
 <defs>
  <style type="text/css">*{stroke-linecap:butt;stroke-linejoin:round;}</style>
 </defs>
 <g id="figure_1">
  <g id="patch_1">
   <path d="M 0 345.6 
L 460.8 345.6 
L 460.8 0 
L 0 0 
z
" style="fill:#ffffff;"/>
  </g>
  <g id="axes_1">
   <g id="patch_2">
    <path d="M 57.6 298.944 
L 338.688 298.944 
L 338.688 27.648 
L 57.6 27.648 
z
" style="fill:#ffffff;"/>
   </g>
   <g id="line2d_1">
    <path d="M 5.356583 298.944 
L 5.356583 288.410278 
L 24.515591 288.410278 
L 24.515591 283.143418 
L 52.583031 283.143418 
L 52.583031 277.876557 
L 70.538854 277.876557 
L 70.538854 272.609696 
L 80.650472 272.609696 
L 80.650472 267.342835 
L 88.104788 267.342835 
L 88.104788 262.075974 
L 94.294587 262.075974 
L 94.294587 256.809114 
L 97.134116 256.809114 
L 97.134116 251.542253 
L 99.338119 251.542253 
L 99.338119 246.275392 
L 100.86217 246.275392 
L 100.86217 241.008531 
L 101.923711 241.008531 
L 101.923711 235.74167 
L 102.794183 235.74167 
L 102.794183 230.47481 
L 103.498249 230.47481 
L 103.498249 225.207949 
L 104.355088 225.207949 
L 104.355088 219.941088 
L 105.057436 219.941088 
L 105.057436 214.674227 
L 106.168594 214.674227 
L 106.168594 209.407366 
L 107.614095 209.407366 
L 107.614095 204.140506 
L 109.176867 204.140506 
L 109.176867 198.873645 
L 110.443353 198.873645 
L 110.443353 193.606784 
L 111.936179 193.606784 
L 111.936179 188.339923 
L 113.699967 188.339923 
L 113.699967 183.073062 
L 116.621333 183.073062 
L 116.621333 177.806202 
L 119.377041 177.806202 
L 119.377041 172.539341 
L 121.974949 172.539341 
L 121.974949 167.27248 
L 124.594752 167.27248 
L 124.594752 162.005619 
L 127.579875 162.005619 
L 127.579875 156.738758 
L 128.531065 156.738758 
L 128.531065 151.471897 
L 129.262072 151.471897 
L 129.262072 146.205037 
L 130.032298 146.205037 
L 130.032298 140.938176 
L 130.809292 140.938176 
L 130.809292 135.671315 
L 131.52801 135.671315 
L 131.52801 130.404454 
L 132.362702 130.404454 
L 132.362702 125.137593 
L 133.22783 125.137593 
L 133.22783 119.870733 
L 133.83311 119.870733 
L 133.83311 114.603872 
L 134.534878 114.603872 
L 134.534878 109.337011 
L 135.432042 109.337011 
L 135.432042 104.07015 
L 150.064121 104.07015 
L 150.064121 98.803289 
L 169.224577 98.803289 
L 169.224577 93.536429 
L 170.402844 93.536429 
L 170.402844 88.269568 
L 171.031415 88.269568 
L 171.031415 83.002707 
L 171.659533 83.002707 
L 171.659533 77.735846 
L 172.175591 77.735846 
L 172.175591 72.468985 
L 172.719523 72.468985 
L 172.719523 67.202125 
L 173.289481 67.202125 
L 173.289481 61.935264 
L 173.801357 61.935264 
L 173.801357 56.668403 
L 174.263971 56.668403 
L 174.263971 51.401542 
L 174.819983 51.401542 
L 174.819983 46.134681 
L 175.211544 46.134681 
L 175.211544 40.867821 
L 175.660692 40.867821 
L 175.660692 35.60096 
L 176.102467 35.60096 
L 176.102467 30.334099 
L 338.688 30.334099 
" style="fill:none;stroke:#f5deb3;stroke-linecap:square;stroke-width:4;"/>
   </g>
   <g id="line2d_2">
    <defs>
     <path d="M 0 7.778175 
L 7.778175 0 
L 0 -7.778175 
L -7.778175 0 
z
" id="m5375e23d34" style="stroke:#f5deb3;stroke-linejoin:miter;stroke-width:1.5;"/>
    </defs>
    <g>
     <use style="fill:#f5deb3;stroke:#f5deb3;stroke-linejoin:miter;stroke-width:1.5;" x="103.498249" xlink:href="#m5375e23d34" y="225.207949"/>
     <use style="fill:#f5deb3;stroke:#f5deb3;stroke-linejoin:miter;stroke-width:1.5;" x="133.83311" xlink:href="#m5375e23d34" y="119.870733"/>
     <use style="fill:#f5deb3;stroke:#f5deb3;stroke-linejoin:miter;stroke-width:1.5;" x="176.102467" xlink:href="#m5375e23d34" y="35.60096"/>
     <use style="fill:#f5deb3;stroke:#f5deb3;stroke-linejoin:miter;stroke-width:1.5;" x="176.102467" xlink:href="#m5375e23d34" y="30.334099"/>
     <use style="fill:#f5deb3;stroke:#f5deb3;stroke-linejoin:miter;stroke-width:1.5;" x="176.102467" xlink:href="#m5375e23d34" y="30.334099"/>
     <use style="fill:#f5deb3;stroke:#f5deb3;stroke-linejoin:miter;stroke-width:1.5;" x="338.688" xlink:href="#m5375e23d34" y="30.334099"/>
    </g>
   </g>
   <g id="line2d_3">
    <path style="fill:none;stroke:#f5deb3;stroke-linecap:square;stroke-width:4;"/>
    <g/>
   </g>
   <g id="line2d_4">
    <path d="M 338.688 30.334099 
L 369.60768 35.706297 
" style="fill:none;stroke:#f5deb3;stroke-linecap:square;stroke-width:4;"/>
    <g>
     <use style="fill:#f5deb3;stroke:#f5deb3;stroke-linejoin:miter;stroke-width:1.5;" x="338.688" xlink:href="#m5375e23d34" y="30.334099"/>
     <use style="fill:#f5deb3;stroke:#f5deb3;stroke-linejoin:miter;stroke-width:1.5;" x="369.60768" xlink:href="#m5375e23d34" y="35.706297"/>
    </g>
   </g>
   <g id="matplotlib.axis_1">
    <g id="xtick_1">
     <g id="line2d_5">
      <path clip-path="url(#p3c8eb1bd88)" d="M 57.6 298.944 
L 57.6 27.648 
" style="fill:none;stroke:#b0b0b0;stroke-linecap:square;stroke-width:0.8;"/>
     </g>
     <g id="line2d_6">
      <defs>
       <path d="M 0 0 
L 0 3.5 
" id="m01365c67f9" style="stroke:#000000;stroke-width:0.8;"/>
      </defs>
      <g>
       <use style="stroke:#000000;stroke-width:0.8;" x="57.6" xlink:href="#m01365c67f9" y="298.944"/>
      </g>
     </g>
     <g id="text_1">
      <!-- 0 -->
      <g transform="translate(51.2375 321.140875)scale(0.2 -0.2)">
       <defs>
        <path d="M 2034 4250 
Q 1547 4250 1301 3770 
Q 1056 3291 1056 2328 
Q 1056 1369 1301 889 
Q 1547 409 2034 409 
Q 2525 409 2770 889 
Q 3016 1369 3016 2328 
Q 3016 3291 2770 3770 
Q 2525 4250 2034 4250 
z
M 2034 4750 
Q 2819 4750 3233 4129 
Q 3647 3509 3647 2328 
Q 3647 1150 3233 529 
Q 2819 -91 2034 -91 
Q 1250 -91 836 529 
Q 422 1150 422 2328 
Q 422 3509 836 4129 
Q 1250 4750 2034 4750 
z
" id="DejaVuSans-30" transform="scale(0.015625)"/>
       </defs>
       <use xlink:href="#DejaVuSans-30"/>
      </g>
     </g>
    </g>
    <g id="xtick_2">
     <g id="line2d_7">
      <path clip-path="url(#p3c8eb1bd88)" d="M 137.910857 298.944 
L 137.910857 27.648 
" style="fill:none;stroke:#b0b0b0;stroke-linecap:square;stroke-width:0.8;"/>
     </g>
     <g id="line2d_8">
      <g>
       <use style="stroke:#000000;stroke-width:0.8;" x="137.910857" xlink:href="#m01365c67f9" y="298.944"/>
      </g>
     </g>
     <g id="text_2">
      <!-- 2 -->
      <g transform="translate(131.548357 321.140875)scale(0.2 -0.2)">
       <defs>
        <path d="M 1228 531 
L 3431 531 
L 3431 0 
L 469 0 
L 469 531 
Q 828 903 1448 1529 
Q 2069 2156 2228 2338 
Q 2531 2678 2651 2914 
Q 2772 3150 2772 3378 
Q 2772 3750 2511 3984 
Q 2250 4219 1831 4219 
Q 1534 4219 1204 4116 
Q 875 4013 500 3803 
L 500 4441 
Q 881 4594 1212 4672 
Q 1544 4750 1819 4750 
Q 2544 4750 2975 4387 
Q 3406 4025 3406 3419 
Q 3406 3131 3298 2873 
Q 3191 2616 2906 2266 
Q 2828 2175 2409 1742 
Q 1991 1309 1228 531 
z
" id="DejaVuSans-32" transform="scale(0.015625)"/>
       </defs>
       <use xlink:href="#DejaVuSans-32"/>
      </g>
     </g>
    </g>
    <g id="xtick_3">
     <g id="line2d_9">
      <path clip-path="url(#p3c8eb1bd88)" d="M 218.221714 298.944 
L 218.221714 27.648 
" style="fill:none;stroke:#b0b0b0;stroke-linecap:square;stroke-width:0.8;"/>
     </g>
     <g id="line2d_10">
      <g>
       <use style="stroke:#000000;stroke-width:0.8;" x="218.221714" xlink:href="#m01365c67f9" y="298.944"/>
      </g>
     </g>
     <g id="text_3">
      <!-- 4 -->
      <g transform="translate(211.859214 321.140875)scale(0.2 -0.2)">
       <defs>
        <path d="M 2419 4116 
L 825 1625 
L 2419 1625 
L 2419 4116 
z
M 2253 4666 
L 3047 4666 
L 3047 1625 
L 3713 1625 
L 3713 1100 
L 3047 1100 
L 3047 0 
L 2419 0 
L 2419 1100 
L 313 1100 
L 313 1709 
L 2253 4666 
z
" id="DejaVuSans-34" transform="scale(0.015625)"/>
       </defs>
       <use xlink:href="#DejaVuSans-34"/>
      </g>
     </g>
    </g>
    <g id="xtick_4">
     <g id="line2d_11">
      <path clip-path="url(#p3c8eb1bd88)" d="M 298.532571 298.944 
L 298.532571 27.648 
" style="fill:none;stroke:#b0b0b0;stroke-linecap:square;stroke-width:0.8;"/>
     </g>
     <g id="line2d_12">
      <g>
       <use style="stroke:#000000;stroke-width:0.8;" x="298.532571" xlink:href="#m01365c67f9" y="298.944"/>
      </g>
     </g>
     <g id="text_4">
      <!-- 6 -->
      <g transform="translate(292.170071 321.140875)scale(0.2 -0.2)">
       <defs>
        <path d="M 2113 2584 
Q 1688 2584 1439 2293 
Q 1191 2003 1191 1497 
Q 1191 994 1439 701 
Q 1688 409 2113 409 
Q 2538 409 2786 701 
Q 3034 994 3034 1497 
Q 3034 2003 2786 2293 
Q 2538 2584 2113 2584 
z
M 3366 4563 
L 3366 3988 
Q 3128 4100 2886 4159 
Q 2644 4219 2406 4219 
Q 1781 4219 1451 3797 
Q 1122 3375 1075 2522 
Q 1259 2794 1537 2939 
Q 1816 3084 2150 3084 
Q 2853 3084 3261 2657 
Q 3669 2231 3669 1497 
Q 3669 778 3244 343 
Q 2819 -91 2113 -91 
Q 1303 -91 875 529 
Q 447 1150 447 2328 
Q 447 3434 972 4092 
Q 1497 4750 2381 4750 
Q 2619 4750 2861 4703 
Q 3103 4656 3366 4563 
z
" id="DejaVuSans-36" transform="scale(0.015625)"/>
       </defs>
       <use xlink:href="#DejaVuSans-36"/>
      </g>
     </g>
    </g>
    <g id="xtick_5">
     <g id="line2d_13">
      <path clip-path="url(#p3c8eb1bd88)" d="M 97.755429 298.944 
L 97.755429 27.648 
" style="fill:none;stroke:#b0b0b0;stroke-linecap:square;stroke-width:0.8;"/>
     </g>
     <g id="line2d_14">
      <defs>
       <path d="M 0 0 
L 0 2 
" id="mb84b0a284d" style="stroke:#000000;stroke-width:0.6;"/>
      </defs>
      <g>
       <use style="stroke:#000000;stroke-width:0.6;" x="97.755429" xlink:href="#mb84b0a284d" y="298.944"/>
      </g>
     </g>
    </g>
    <g id="xtick_6">
     <g id="line2d_15">
      <path clip-path="url(#p3c8eb1bd88)" d="M 178.066286 298.944 
L 178.066286 27.648 
" style="fill:none;stroke:#b0b0b0;stroke-linecap:square;stroke-width:0.8;"/>
     </g>
     <g id="line2d_16">
      <g>
       <use style="stroke:#000000;stroke-width:0.6;" x="178.066286" xlink:href="#mb84b0a284d" y="298.944"/>
      </g>
     </g>
    </g>
    <g id="xtick_7">
     <g id="line2d_17">
      <path clip-path="url(#p3c8eb1bd88)" d="M 258.377143 298.944 
L 258.377143 27.648 
" style="fill:none;stroke:#b0b0b0;stroke-linecap:square;stroke-width:0.8;"/>
     </g>
     <g id="line2d_18">
      <g>
       <use style="stroke:#000000;stroke-width:0.6;" x="258.377143" xlink:href="#mb84b0a284d" y="298.944"/>
      </g>
     </g>
    </g>
    <g id="xtick_8">
     <g id="line2d_19">
      <path clip-path="url(#p3c8eb1bd88)" d="M 338.688 298.944 
L 338.688 27.648 
" style="fill:none;stroke:#b0b0b0;stroke-linecap:square;stroke-width:0.8;"/>
     </g>
     <g id="line2d_20">
      <g>
       <use style="stroke:#000000;stroke-width:0.6;" x="338.688" xlink:href="#mb84b0a284d" y="298.944"/>
      </g>
     </g>
    </g>
    <g id="text_5">
     <!-- log10(# f-evals / dimension) -->
     <g transform="translate(77.764078 342.217594)scale(0.17 -0.17)">
      <defs>
       <path d="M 603 4863 
L 1178 4863 
L 1178 0 
L 603 0 
L 603 4863 
z
" id="DejaVuSans-6c" transform="scale(0.015625)"/>
       <path d="M 1959 3097 
Q 1497 3097 1228 2736 
Q 959 2375 959 1747 
Q 959 1119 1226 758 
Q 1494 397 1959 397 
Q 2419 397 2687 759 
Q 2956 1122 2956 1747 
Q 2956 2369 2687 2733 
Q 2419 3097 1959 3097 
z
M 1959 3584 
Q 2709 3584 3137 3096 
Q 3566 2609 3566 1747 
Q 3566 888 3137 398 
Q 2709 -91 1959 -91 
Q 1206 -91 779 398 
Q 353 888 353 1747 
Q 353 2609 779 3096 
Q 1206 3584 1959 3584 
z
" id="DejaVuSans-6f" transform="scale(0.015625)"/>
       <path d="M 2906 1791 
Q 2906 2416 2648 2759 
Q 2391 3103 1925 3103 
Q 1463 3103 1205 2759 
Q 947 2416 947 1791 
Q 947 1169 1205 825 
Q 1463 481 1925 481 
Q 2391 481 2648 825 
Q 2906 1169 2906 1791 
z
M 3481 434 
Q 3481 -459 3084 -895 
Q 2688 -1331 1869 -1331 
Q 1566 -1331 1297 -1286 
Q 1028 -1241 775 -1147 
L 775 -588 
Q 1028 -725 1275 -790 
Q 1522 -856 1778 -856 
Q 2344 -856 2625 -561 
Q 2906 -266 2906 331 
L 2906 616 
Q 2728 306 2450 153 
Q 2172 0 1784 0 
Q 1141 0 747 490 
Q 353 981 353 1791 
Q 353 2603 747 3093 
Q 1141 3584 1784 3584 
Q 2172 3584 2450 3431 
Q 2728 3278 2906 2969 
L 2906 3500 
L 3481 3500 
L 3481 434 
z
" id="DejaVuSans-67" transform="scale(0.015625)"/>
       <path d="M 794 531 
L 1825 531 
L 1825 4091 
L 703 3866 
L 703 4441 
L 1819 4666 
L 2450 4666 
L 2450 531 
L 3481 531 
L 3481 0 
L 794 0 
L 794 531 
z
" id="DejaVuSans-31" transform="scale(0.015625)"/>
       <path d="M 1984 4856 
Q 1566 4138 1362 3434 
Q 1159 2731 1159 2009 
Q 1159 1288 1364 580 
Q 1569 -128 1984 -844 
L 1484 -844 
Q 1016 -109 783 600 
Q 550 1309 550 2009 
Q 550 2706 781 3412 
Q 1013 4119 1484 4856 
L 1984 4856 
z
" id="DejaVuSans-28" transform="scale(0.015625)"/>
       <path d="M 3272 2816 
L 2363 2816 
L 2100 1772 
L 3016 1772 
L 3272 2816 
z
M 2803 4594 
L 2478 3297 
L 3391 3297 
L 3719 4594 
L 4219 4594 
L 3897 3297 
L 4872 3297 
L 4872 2816 
L 3775 2816 
L 3519 1772 
L 4513 1772 
L 4513 1294 
L 3397 1294 
L 3072 0 
L 2572 0 
L 2894 1294 
L 1978 1294 
L 1656 0 
L 1153 0 
L 1478 1294 
L 494 1294 
L 494 1772 
L 1594 1772 
L 1856 2816 
L 850 2816 
L 850 3297 
L 1978 3297 
L 2297 4594 
L 2803 4594 
z
" id="DejaVuSans-23" transform="scale(0.015625)"/>
       <path id="DejaVuSans-20" transform="scale(0.015625)"/>
       <path d="M 2375 4863 
L 2375 4384 
L 1825 4384 
Q 1516 4384 1395 4259 
Q 1275 4134 1275 3809 
L 1275 3500 
L 2222 3500 
L 2222 3053 
L 1275 3053 
L 1275 0 
L 697 0 
L 697 3053 
L 147 3053 
L 147 3500 
L 697 3500 
L 697 3744 
Q 697 4328 969 4595 
Q 1241 4863 1831 4863 
L 2375 4863 
z
" id="DejaVuSans-66" transform="scale(0.015625)"/>
       <path d="M 313 2009 
L 1997 2009 
L 1997 1497 
L 313 1497 
L 313 2009 
z
" id="DejaVuSans-2d" transform="scale(0.015625)"/>
       <path d="M 3597 1894 
L 3597 1613 
L 953 1613 
Q 991 1019 1311 708 
Q 1631 397 2203 397 
Q 2534 397 2845 478 
Q 3156 559 3463 722 
L 3463 178 
Q 3153 47 2828 -22 
Q 2503 -91 2169 -91 
Q 1331 -91 842 396 
Q 353 884 353 1716 
Q 353 2575 817 3079 
Q 1281 3584 2069 3584 
Q 2775 3584 3186 3129 
Q 3597 2675 3597 1894 
z
M 3022 2063 
Q 3016 2534 2758 2815 
Q 2500 3097 2075 3097 
Q 1594 3097 1305 2825 
Q 1016 2553 972 2059 
L 3022 2063 
z
" id="DejaVuSans-65" transform="scale(0.015625)"/>
       <path d="M 191 3500 
L 800 3500 
L 1894 563 
L 2988 3500 
L 3597 3500 
L 2284 0 
L 1503 0 
L 191 3500 
z
" id="DejaVuSans-76" transform="scale(0.015625)"/>
       <path d="M 2194 1759 
Q 1497 1759 1228 1600 
Q 959 1441 959 1056 
Q 959 750 1161 570 
Q 1363 391 1709 391 
Q 2188 391 2477 730 
Q 2766 1069 2766 1631 
L 2766 1759 
L 2194 1759 
z
M 3341 1997 
L 3341 0 
L 2766 0 
L 2766 531 
Q 2569 213 2275 61 
Q 1981 -91 1556 -91 
Q 1019 -91 701 211 
Q 384 513 384 1019 
Q 384 1609 779 1909 
Q 1175 2209 1959 2209 
L 2766 2209 
L 2766 2266 
Q 2766 2663 2505 2880 
Q 2244 3097 1772 3097 
Q 1472 3097 1187 3025 
Q 903 2953 641 2809 
L 641 3341 
Q 956 3463 1253 3523 
Q 1550 3584 1831 3584 
Q 2591 3584 2966 3190 
Q 3341 2797 3341 1997 
z
" id="DejaVuSans-61" transform="scale(0.015625)"/>
       <path d="M 2834 3397 
L 2834 2853 
Q 2591 2978 2328 3040 
Q 2066 3103 1784 3103 
Q 1356 3103 1142 2972 
Q 928 2841 928 2578 
Q 928 2378 1081 2264 
Q 1234 2150 1697 2047 
L 1894 2003 
Q 2506 1872 2764 1633 
Q 3022 1394 3022 966 
Q 3022 478 2636 193 
Q 2250 -91 1575 -91 
Q 1294 -91 989 -36 
Q 684 19 347 128 
L 347 722 
Q 666 556 975 473 
Q 1284 391 1588 391 
Q 1994 391 2212 530 
Q 2431 669 2431 922 
Q 2431 1156 2273 1281 
Q 2116 1406 1581 1522 
L 1381 1569 
Q 847 1681 609 1914 
Q 372 2147 372 2553 
Q 372 3047 722 3315 
Q 1072 3584 1716 3584 
Q 2034 3584 2315 3537 
Q 2597 3491 2834 3397 
z
" id="DejaVuSans-73" transform="scale(0.015625)"/>
       <path d="M 1625 4666 
L 2156 4666 
L 531 -594 
L 0 -594 
L 1625 4666 
z
" id="DejaVuSans-2f" transform="scale(0.015625)"/>
       <path d="M 2906 2969 
L 2906 4863 
L 3481 4863 
L 3481 0 
L 2906 0 
L 2906 525 
Q 2725 213 2448 61 
Q 2172 -91 1784 -91 
Q 1150 -91 751 415 
Q 353 922 353 1747 
Q 353 2572 751 3078 
Q 1150 3584 1784 3584 
Q 2172 3584 2448 3432 
Q 2725 3281 2906 2969 
z
M 947 1747 
Q 947 1113 1208 752 
Q 1469 391 1925 391 
Q 2381 391 2643 752 
Q 2906 1113 2906 1747 
Q 2906 2381 2643 2742 
Q 2381 3103 1925 3103 
Q 1469 3103 1208 2742 
Q 947 2381 947 1747 
z
" id="DejaVuSans-64" transform="scale(0.015625)"/>
       <path d="M 603 3500 
L 1178 3500 
L 1178 0 
L 603 0 
L 603 3500 
z
M 603 4863 
L 1178 4863 
L 1178 4134 
L 603 4134 
L 603 4863 
z
" id="DejaVuSans-69" transform="scale(0.015625)"/>
       <path d="M 3328 2828 
Q 3544 3216 3844 3400 
Q 4144 3584 4550 3584 
Q 5097 3584 5394 3201 
Q 5691 2819 5691 2113 
L 5691 0 
L 5113 0 
L 5113 2094 
Q 5113 2597 4934 2840 
Q 4756 3084 4391 3084 
Q 3944 3084 3684 2787 
Q 3425 2491 3425 1978 
L 3425 0 
L 2847 0 
L 2847 2094 
Q 2847 2600 2669 2842 
Q 2491 3084 2119 3084 
Q 1678 3084 1418 2786 
Q 1159 2488 1159 1978 
L 1159 0 
L 581 0 
L 581 3500 
L 1159 3500 
L 1159 2956 
Q 1356 3278 1631 3431 
Q 1906 3584 2284 3584 
Q 2666 3584 2933 3390 
Q 3200 3197 3328 2828 
z
" id="DejaVuSans-6d" transform="scale(0.015625)"/>
       <path d="M 3513 2113 
L 3513 0 
L 2938 0 
L 2938 2094 
Q 2938 2591 2744 2837 
Q 2550 3084 2163 3084 
Q 1697 3084 1428 2787 
Q 1159 2491 1159 1978 
L 1159 0 
L 581 0 
L 581 3500 
L 1159 3500 
L 1159 2956 
Q 1366 3272 1645 3428 
Q 1925 3584 2291 3584 
Q 2894 3584 3203 3211 
Q 3513 2838 3513 2113 
z
" id="DejaVuSans-6e" transform="scale(0.015625)"/>
       <path d="M 513 4856 
L 1013 4856 
Q 1481 4119 1714 3412 
Q 1947 2706 1947 2009 
Q 1947 1309 1714 600 
Q 1481 -109 1013 -844 
L 513 -844 
Q 928 -128 1133 580 
Q 1338 1288 1338 2009 
Q 1338 2731 1133 3434 
Q 928 4138 513 4856 
z
" id="DejaVuSans-29" transform="scale(0.015625)"/>
      </defs>
      <use xlink:href="#DejaVuSans-6c"/>
      <use x="27.783203" xlink:href="#DejaVuSans-6f"/>
      <use x="88.964844" xlink:href="#DejaVuSans-67"/>
      <use x="152.441406" xlink:href="#DejaVuSans-31"/>
      <use x="216.064453" xlink:href="#DejaVuSans-30"/>
      <use x="279.6875" xlink:href="#DejaVuSans-28"/>
      <use x="318.701172" xlink:href="#DejaVuSans-23"/>
      <use x="402.490234" xlink:href="#DejaVuSans-20"/>
      <use x="434.277344" xlink:href="#DejaVuSans-66"/>
      <use x="463.982422" xlink:href="#DejaVuSans-2d"/>
      <use x="500.066406" xlink:href="#DejaVuSans-65"/>
      <use x="561.589844" xlink:href="#DejaVuSans-76"/>
      <use x="620.769531" xlink:href="#DejaVuSans-61"/>
      <use x="682.048828" xlink:href="#DejaVuSans-6c"/>
      <use x="709.832031" xlink:href="#DejaVuSans-73"/>
      <use x="761.931641" xlink:href="#DejaVuSans-20"/>
      <use x="793.71875" xlink:href="#DejaVuSans-2f"/>
      <use x="827.410156" xlink:href="#DejaVuSans-20"/>
      <use x="859.197266" xlink:href="#DejaVuSans-64"/>
      <use x="922.673828" xlink:href="#DejaVuSans-69"/>
      <use x="950.457031" xlink:href="#DejaVuSans-6d"/>
      <use x="1047.869141" xlink:href="#DejaVuSans-65"/>
      <use x="1109.392578" xlink:href="#DejaVuSans-6e"/>
      <use x="1172.771484" xlink:href="#DejaVuSans-73"/>
      <use x="1224.871094" xlink:href="#DejaVuSans-69"/>
      <use x="1252.654297" xlink:href="#DejaVuSans-6f"/>
      <use x="1313.835938" xlink:href="#DejaVuSans-6e"/>
      <use x="1377.214844" xlink:href="#DejaVuSans-29"/>
     </g>
    </g>
   </g>
   <g id="matplotlib.axis_2">
    <g id="ytick_1">
     <g id="line2d_21">
      <path clip-path="url(#p3c8eb1bd88)" d="M 57.6 298.944 
L 338.688 298.944 
" style="fill:none;stroke:#b0b0b0;stroke-linecap:square;stroke-width:0.8;"/>
     </g>
     <g id="line2d_22">
      <defs>
       <path d="M 0 0 
L -3.5 0 
" id="ma8923f0f9e" style="stroke:#000000;stroke-width:0.8;"/>
      </defs>
      <g>
       <use style="stroke:#000000;stroke-width:0.8;" x="57.6" xlink:href="#ma8923f0f9e" y="298.944"/>
      </g>
     </g>
     <g id="text_6">
      <!-- 0.0 -->
      <g transform="translate(25.155 305.02275)scale(0.16 -0.16)">
       <defs>
        <path d="M 684 794 
L 1344 794 
L 1344 0 
L 684 0 
L 684 794 
z
" id="DejaVuSans-2e" transform="scale(0.015625)"/>
       </defs>
       <use xlink:href="#DejaVuSans-30"/>
       <use x="63.623047" xlink:href="#DejaVuSans-2e"/>
       <use x="95.410156" xlink:href="#DejaVuSans-30"/>
      </g>
     </g>
    </g>
    <g id="ytick_2">
     <g id="line2d_23">
      <path clip-path="url(#p3c8eb1bd88)" d="M 57.6 245.22202 
L 338.688 245.22202 
" style="fill:none;stroke:#b0b0b0;stroke-linecap:square;stroke-width:0.8;"/>
     </g>
     <g id="line2d_24">
      <g>
       <use style="stroke:#000000;stroke-width:0.8;" x="57.6" xlink:href="#ma8923f0f9e" y="245.22202"/>
      </g>
     </g>
     <g id="text_7">
      <!-- 0.2 -->
      <g transform="translate(25.155 251.30077)scale(0.16 -0.16)">
       <use xlink:href="#DejaVuSans-30"/>
       <use x="63.623047" xlink:href="#DejaVuSans-2e"/>
       <use x="95.410156" xlink:href="#DejaVuSans-32"/>
      </g>
     </g>
    </g>
    <g id="ytick_3">
     <g id="line2d_25">
      <path clip-path="url(#p3c8eb1bd88)" d="M 57.6 191.50004 
L 338.688 191.50004 
" style="fill:none;stroke:#b0b0b0;stroke-linecap:square;stroke-width:0.8;"/>
     </g>
     <g id="line2d_26">
      <g>
       <use style="stroke:#000000;stroke-width:0.8;" x="57.6" xlink:href="#ma8923f0f9e" y="191.50004"/>
      </g>
     </g>
     <g id="text_8">
      <!-- 0.4 -->
      <g transform="translate(25.155 197.57879)scale(0.16 -0.16)">
       <use xlink:href="#DejaVuSans-30"/>
       <use x="63.623047" xlink:href="#DejaVuSans-2e"/>
       <use x="95.410156" xlink:href="#DejaVuSans-34"/>
      </g>
     </g>
    </g>
    <g id="ytick_4">
     <g id="line2d_27">
      <path clip-path="url(#p3c8eb1bd88)" d="M 57.6 137.778059 
L 338.688 137.778059 
" style="fill:none;stroke:#b0b0b0;stroke-linecap:square;stroke-width:0.8;"/>
     </g>
     <g id="line2d_28">
      <g>
       <use style="stroke:#000000;stroke-width:0.8;" x="57.6" xlink:href="#ma8923f0f9e" y="137.778059"/>
      </g>
     </g>
     <g id="text_9">
      <!-- 0.6 -->
      <g transform="translate(25.155 143.856809)scale(0.16 -0.16)">
       <use xlink:href="#DejaVuSans-30"/>
       <use x="63.623047" xlink:href="#DejaVuSans-2e"/>
       <use x="95.410156" xlink:href="#DejaVuSans-36"/>
      </g>
     </g>
    </g>
    <g id="ytick_5">
     <g id="line2d_29">
      <path clip-path="url(#p3c8eb1bd88)" d="M 57.6 84.056079 
L 338.688 84.056079 
" style="fill:none;stroke:#b0b0b0;stroke-linecap:square;stroke-width:0.8;"/>
     </g>
     <g id="line2d_30">
      <g>
       <use style="stroke:#000000;stroke-width:0.8;" x="57.6" xlink:href="#ma8923f0f9e" y="84.056079"/>
      </g>
     </g>
     <g id="text_10">
      <!-- 0.8 -->
      <g transform="translate(25.155 90.134829)scale(0.16 -0.16)">
       <defs>
        <path d="M 2034 2216 
Q 1584 2216 1326 1975 
Q 1069 1734 1069 1313 
Q 1069 891 1326 650 
Q 1584 409 2034 409 
Q 2484 409 2743 651 
Q 3003 894 3003 1313 
Q 3003 1734 2745 1975 
Q 2488 2216 2034 2216 
z
M 1403 2484 
Q 997 2584 770 2862 
Q 544 3141 544 3541 
Q 544 4100 942 4425 
Q 1341 4750 2034 4750 
Q 2731 4750 3128 4425 
Q 3525 4100 3525 3541 
Q 3525 3141 3298 2862 
Q 3072 2584 2669 2484 
Q 3125 2378 3379 2068 
Q 3634 1759 3634 1313 
Q 3634 634 3220 271 
Q 2806 -91 2034 -91 
Q 1263 -91 848 271 
Q 434 634 434 1313 
Q 434 1759 690 2068 
Q 947 2378 1403 2484 
z
M 1172 3481 
Q 1172 3119 1398 2916 
Q 1625 2713 2034 2713 
Q 2441 2713 2670 2916 
Q 2900 3119 2900 3481 
Q 2900 3844 2670 4047 
Q 2441 4250 2034 4250 
Q 1625 4250 1398 4047 
Q 1172 3844 1172 3481 
z
" id="DejaVuSans-38" transform="scale(0.015625)"/>
       </defs>
       <use xlink:href="#DejaVuSans-30"/>
       <use x="63.623047" xlink:href="#DejaVuSans-2e"/>
       <use x="95.410156" xlink:href="#DejaVuSans-38"/>
      </g>
     </g>
    </g>
    <g id="ytick_6">
     <g id="line2d_31">
      <path clip-path="url(#p3c8eb1bd88)" d="M 57.6 30.334099 
L 338.688 30.334099 
" style="fill:none;stroke:#b0b0b0;stroke-linecap:square;stroke-width:0.8;"/>
     </g>
     <g id="line2d_32">
      <g>
       <use style="stroke:#000000;stroke-width:0.8;" x="57.6" xlink:href="#ma8923f0f9e" y="30.334099"/>
      </g>
     </g>
     <g id="text_11">
      <!-- 1.0 -->
      <g transform="translate(25.155 36.412849)scale(0.16 -0.16)">
       <use xlink:href="#DejaVuSans-31"/>
       <use x="63.623047" xlink:href="#DejaVuSans-2e"/>
       <use x="95.410156" xlink:href="#DejaVuSans-30"/>
      </g>
     </g>
    </g>
    <g id="text_12">
     <!-- Fraction of function,target pairs -->
     <g transform="translate(17.619531 297.681)rotate(-90)scale(0.17 -0.17)">
      <defs>
       <path d="M 628 4666 
L 3309 4666 
L 3309 4134 
L 1259 4134 
L 1259 2759 
L 3109 2759 
L 3109 2228 
L 1259 2228 
L 1259 0 
L 628 0 
L 628 4666 
z
" id="DejaVuSans-46" transform="scale(0.015625)"/>
       <path d="M 2631 2963 
Q 2534 3019 2420 3045 
Q 2306 3072 2169 3072 
Q 1681 3072 1420 2755 
Q 1159 2438 1159 1844 
L 1159 0 
L 581 0 
L 581 3500 
L 1159 3500 
L 1159 2956 
Q 1341 3275 1631 3429 
Q 1922 3584 2338 3584 
Q 2397 3584 2469 3576 
Q 2541 3569 2628 3553 
L 2631 2963 
z
" id="DejaVuSans-72" transform="scale(0.015625)"/>
       <path d="M 3122 3366 
L 3122 2828 
Q 2878 2963 2633 3030 
Q 2388 3097 2138 3097 
Q 1578 3097 1268 2742 
Q 959 2388 959 1747 
Q 959 1106 1268 751 
Q 1578 397 2138 397 
Q 2388 397 2633 464 
Q 2878 531 3122 666 
L 3122 134 
Q 2881 22 2623 -34 
Q 2366 -91 2075 -91 
Q 1284 -91 818 406 
Q 353 903 353 1747 
Q 353 2603 823 3093 
Q 1294 3584 2113 3584 
Q 2378 3584 2631 3529 
Q 2884 3475 3122 3366 
z
" id="DejaVuSans-63" transform="scale(0.015625)"/>
       <path d="M 1172 4494 
L 1172 3500 
L 2356 3500 
L 2356 3053 
L 1172 3053 
L 1172 1153 
Q 1172 725 1289 603 
Q 1406 481 1766 481 
L 2356 481 
L 2356 0 
L 1766 0 
Q 1100 0 847 248 
Q 594 497 594 1153 
L 594 3053 
L 172 3053 
L 172 3500 
L 594 3500 
L 594 4494 
L 1172 4494 
z
" id="DejaVuSans-74" transform="scale(0.015625)"/>
       <path d="M 544 1381 
L 544 3500 
L 1119 3500 
L 1119 1403 
Q 1119 906 1312 657 
Q 1506 409 1894 409 
Q 2359 409 2629 706 
Q 2900 1003 2900 1516 
L 2900 3500 
L 3475 3500 
L 3475 0 
L 2900 0 
L 2900 538 
Q 2691 219 2414 64 
Q 2138 -91 1772 -91 
Q 1169 -91 856 284 
Q 544 659 544 1381 
z
M 1991 3584 
L 1991 3584 
z
" id="DejaVuSans-75" transform="scale(0.015625)"/>
       <path d="M 750 794 
L 1409 794 
L 1409 256 
L 897 -744 
L 494 -744 
L 750 256 
L 750 794 
z
" id="DejaVuSans-2c" transform="scale(0.015625)"/>
       <path d="M 1159 525 
L 1159 -1331 
L 581 -1331 
L 581 3500 
L 1159 3500 
L 1159 2969 
Q 1341 3281 1617 3432 
Q 1894 3584 2278 3584 
Q 2916 3584 3314 3078 
Q 3713 2572 3713 1747 
Q 3713 922 3314 415 
Q 2916 -91 2278 -91 
Q 1894 -91 1617 61 
Q 1341 213 1159 525 
z
M 3116 1747 
Q 3116 2381 2855 2742 
Q 2594 3103 2138 3103 
Q 1681 3103 1420 2742 
Q 1159 2381 1159 1747 
Q 1159 1113 1420 752 
Q 1681 391 2138 391 
Q 2594 391 2855 752 
Q 3116 1113 3116 1747 
z
" id="DejaVuSans-70" transform="scale(0.015625)"/>
      </defs>
      <use xlink:href="#DejaVuSans-46"/>
      <use x="50.269531" xlink:href="#DejaVuSans-72"/>
      <use x="91.382812" xlink:href="#DejaVuSans-61"/>
      <use x="152.662109" xlink:href="#DejaVuSans-63"/>
      <use x="207.642578" xlink:href="#DejaVuSans-74"/>
      <use x="246.851562" xlink:href="#DejaVuSans-69"/>
      <use x="274.634766" xlink:href="#DejaVuSans-6f"/>
      <use x="335.816406" xlink:href="#DejaVuSans-6e"/>
      <use x="399.195312" xlink:href="#DejaVuSans-20"/>
      <use x="430.982422" xlink:href="#DejaVuSans-6f"/>
      <use x="492.164062" xlink:href="#DejaVuSans-66"/>
      <use x="527.369141" xlink:href="#DejaVuSans-20"/>
      <use x="559.15625" xlink:href="#DejaVuSans-66"/>
      <use x="594.361328" xlink:href="#DejaVuSans-75"/>
      <use x="657.740234" xlink:href="#DejaVuSans-6e"/>
      <use x="721.119141" xlink:href="#DejaVuSans-63"/>
      <use x="776.099609" xlink:href="#DejaVuSans-74"/>
      <use x="815.308594" xlink:href="#DejaVuSans-69"/>
      <use x="843.091797" xlink:href="#DejaVuSans-6f"/>
      <use x="904.273438" xlink:href="#DejaVuSans-6e"/>
      <use x="967.652344" xlink:href="#DejaVuSans-2c"/>
      <use x="999.439453" xlink:href="#DejaVuSans-74"/>
      <use x="1038.648438" xlink:href="#DejaVuSans-61"/>
      <use x="1099.927734" xlink:href="#DejaVuSans-72"/>
      <use x="1139.291016" xlink:href="#DejaVuSans-67"/>
      <use x="1202.767578" xlink:href="#DejaVuSans-65"/>
      <use x="1264.291016" xlink:href="#DejaVuSans-74"/>
      <use x="1303.5" xlink:href="#DejaVuSans-20"/>
      <use x="1335.287109" xlink:href="#DejaVuSans-70"/>
      <use x="1398.763672" xlink:href="#DejaVuSans-61"/>
      <use x="1460.042969" xlink:href="#DejaVuSans-69"/>
      <use x="1487.826172" xlink:href="#DejaVuSans-72"/>
      <use x="1528.939453" xlink:href="#DejaVuSans-73"/>
     </g>
    </g>
   </g>
   <g id="line2d_33">
    <defs>
     <path d="M 0 1.5 
C 0.397805 1.5 0.77937 1.341951 1.06066 1.06066 
C 1.341951 0.77937 1.5 0.397805 1.5 0 
C 1.5 -0.397805 1.341951 -0.77937 1.06066 -1.06066 
C 0.77937 -1.341951 0.397805 -1.5 0 -1.5 
C -0.397805 -1.5 -0.77937 -1.341951 -1.06066 -1.06066 
C -1.341951 -0.77937 -1.5 -0.397805 -1.5 0 
C -1.5 0.397805 -1.341951 0.77937 -1.06066 1.06066 
C -0.77937 1.341951 -0.397805 1.5 0 1.5 
z
" id="m91bfbd190b" style="stroke:#f5deb3;"/>
    </defs>
    <g>
     <use style="fill:#f5deb3;stroke:#f5deb3;" x="176.102467" xlink:href="#m91bfbd190b" y="30.334099"/>
     <use style="fill:#f5deb3;stroke:#f5deb3;" x="176.102467" xlink:href="#m91bfbd190b" y="30.334099"/>
    </g>
   </g>
   <g id="line2d_34">
    <defs>
     <path d="M 0 1.5 
C 0.397805 1.5 0.77937 1.341951 1.06066 1.06066 
C 1.341951 0.77937 1.5 0.397805 1.5 0 
C 1.5 -0.397805 1.341951 -0.77937 1.06066 -1.06066 
C 0.77937 -1.341951 0.397805 -1.5 0 -1.5 
C -0.397805 -1.5 -0.77937 -1.341951 -1.06066 -1.06066 
C -1.341951 -0.77937 -1.5 -0.397805 -1.5 0 
C -1.5 0.397805 -1.341951 0.77937 -1.06066 1.06066 
C -0.77937 1.341951 -0.397805 1.5 0 1.5 
z
" id="m40cd010fe2" style="stroke:#000080;"/>
    </defs>
    <g>
     <use style="fill:#000080;stroke:#000080;" x="212.155836" xlink:href="#m40cd010fe2" y="162.005619"/>
     <use style="fill:#000080;stroke:#000080;" x="212.155836" xlink:href="#m40cd010fe2" y="162.005619"/>
    </g>
   </g>
   <g id="line2d_35">
    <path d="M 5.356583 298.944 
L 5.356583 297.890628 
L 17.444571 297.890628 
L 17.444571 294.730511 
L 24.515591 294.730511 
L 24.515591 294.203825 
L 29.53256 294.203825 
L 29.53256 292.623767 
L 33.424023 292.623767 
L 33.424023 292.097081 
L 39.291857 292.097081 
L 39.291857 291.570395 
L 43.6746 291.570395 
L 43.6746 291.043709 
L 45.512012 291.043709 
L 45.512012 289.990337 
L 51.379845 289.990337 
L 51.379845 289.463651 
L 53.708537 289.463651 
L 53.708537 288.936964 
L 54.765787 288.936964 
L 54.765787 288.410278 
L 59.262141 288.410278 
L 59.262141 287.883592 
L 73.227131 287.883592 
L 73.227131 286.83022 
L 78.421149 286.83022 
L 78.421149 286.303534 
L 80.416384 286.303534 
L 80.416384 285.776848 
L 82.206598 285.776848 
L 82.206598 285.250162 
L 82.417986 285.250162 
L 82.417986 284.723476 
L 82.626842 284.723476 
L 82.626842 284.19679 
L 84.401859 284.19679 
L 84.401859 283.670104 
L 85.315119 283.670104 
L 85.315119 283.143418 
L 85.840967 283.143418 
L 85.840967 282.616732 
L 86.012784 282.616732 
L 86.012784 282.090045 
L 87.952479 282.090045 
L 87.952479 281.563359 
L 89.277618 281.563359 
L 89.277618 281.036673 
L 93.754628 281.036673 
L 93.754628 280.509987 
L 94.818328 280.509987 
L 94.818328 279.983301 
L 96.952455 279.983301 
L 96.952455 279.456615 
L 97.403108 279.456615 
L 97.403108 278.929929 
L 98.18605 278.929929 
L 98.18605 278.403243 
L 99.016649 278.403243 
L 99.016649 277.876557 
L 101.646892 277.876557 
L 101.646892 277.349871 
L 101.854917 277.349871 
L 101.854917 276.823185 
L 102.989037 276.823185 
L 102.989037 276.296499 
L 103.117741 276.296499 
L 103.117741 275.769812 
L 104.768221 275.769812 
L 104.768221 275.243126 
L 105.897371 275.243126 
L 105.897371 274.71644 
L 106.382575 274.71644 
L 106.382575 274.189754 
L 107.009204 274.189754 
L 107.009204 273.663068 
L 108.102622 273.663068 
L 108.102622 273.136382 
L 108.671345 273.136382 
L 108.671345 272.609696 
L 108.994731 272.609696 
L 108.994731 272.08301 
L 109.401893 272.08301 
L 109.401893 271.556324 
L 111.30625 271.556324 
L 111.30625 271.029638 
L 111.584648 271.029638 
L 111.584648 270.502952 
L 111.780817 270.502952 
L 111.780817 269.976266 
L 111.974805 269.976266 
L 111.974805 269.449579 
L 112.803609 269.449579 
L 112.803609 268.922893 
L 114.751048 268.922893 
L 114.751048 268.396207 
L 115.554844 268.396207 
L 115.554844 267.869521 
L 118.121498 267.869521 
L 118.121498 267.342835 
L 119.097192 267.342835 
L 119.122819 266.289463 
L 119.751557 266.289463 
L 119.751557 265.762777 
L 122.468041 265.762777 
L 122.468041 265.236091 
L 123.313873 265.236091 
L 123.313873 264.709405 
L 123.474235 264.709405 
L 123.474235 264.182719 
L 126.740043 264.182719 
L 126.740043 263.656033 
L 127.100304 263.656033 
L 127.100304 263.129347 
L 127.516689 263.129347 
L 127.516689 262.60266 
L 128.107907 262.60266 
L 128.107907 262.075974 
L 129.825588 262.075974 
L 129.867126 260.495916 
L 130.965816 260.495916 
L 130.965816 259.96923 
L 131.376473 259.96923 
L 131.376473 259.442544 
L 131.752875 259.442544 
L 131.752875 258.915858 
L 132.036046 258.915858 
L 132.036046 258.389172 
L 133.22783 258.389172 
L 133.29613 257.3358 
L 133.689303 257.3358 
L 133.689303 256.809114 
L 134.545457 256.809114 
L 134.545457 256.282427 
L 134.755698 256.282427 
L 134.755698 255.755741 
L 135.056115 255.755741 
L 135.056115 255.229055 
L 136.246972 255.229055 
L 136.246972 254.702369 
L 136.5324 254.702369 
L 136.579521 253.122311 
L 136.757427 253.122311 
L 136.757427 252.595625 
L 137.406618 252.595625 
L 137.406618 252.068939 
L 138.093015 252.068939 
L 138.093015 251.542253 
L 138.54446 251.542253 
L 138.54446 251.015567 
L 139.228764 251.015567 
L 139.228764 250.488881 
L 139.722963 250.488881 
L 139.722963 249.962195 
L 140.469102 249.962195 
L 140.469102 249.435508 
L 141.104941 249.435508 
L 141.104941 248.908822 
L 141.725418 248.908822 
L 141.725418 248.382136 
L 142.236344 248.382136 
L 142.236344 247.85545 
L 142.412363 247.85545 
L 142.412363 247.328764 
L 142.745948 247.328764 
L 142.745948 246.802078 
L 143.546707 246.802078 
L 143.546707 246.275392 
L 143.958383 246.275392 
L 143.958383 245.748706 
L 144.312307 245.748706 
L 144.312307 245.22202 
L 145.649082 245.22202 
L 145.649082 244.695334 
L 145.821666 244.695334 
L 145.910079 243.641962 
L 146.003528 243.641962 
L 146.003528 243.115275 
L 146.511399 243.115275 
L 146.511399 242.588589 
L 146.822776 242.588589 
L 146.885432 241.535217 
L 147.404054 241.535217 
L 147.404054 241.008531 
L 147.729844 241.008531 
L 147.729844 240.481845 
L 147.951877 240.481845 
L 147.951877 239.955159 
L 148.643965 239.955159 
L 148.705114 238.901787 
L 149.00307 238.901787 
L 149.00307 238.375101 
L 149.154737 238.375101 
L 149.154737 237.848415 
L 149.933325 237.848415 
L 149.963932 236.795043 
L 150.382616 236.795043 
L 150.382616 236.268356 
L 150.543935 236.268356 
L 150.543935 235.74167 
L 150.907745 235.74167 
L 150.940821 234.688298 
L 151.072501 234.688298 
L 151.072501 234.161612 
L 151.203194 234.161612 
L 151.203194 233.634926 
L 151.593477 233.634926 
L 151.593477 233.10824 
L 152.0141 233.10824 
L 152.025748 232.054868 
L 152.669675 232.054868 
L 152.669675 231.528182 
L 153.192929 231.528182 
L 153.192929 231.001496 
L 153.412975 231.001496 
L 153.412975 230.47481 
L 153.598387 230.47481 
L 153.704466 229.421437 
L 154.426099 229.421437 
L 154.426099 228.894751 
L 155.154773 228.894751 
L 155.154773 228.368065 
L 155.434735 228.368065 
L 155.492101 227.314693 
L 155.628383 227.314693 
L 155.628383 226.788007 
L 155.782394 226.788007 
L 155.782394 226.261321 
L 156.046372 226.261321 
L 156.046372 225.734635 
L 156.812195 225.734635 
L 156.812195 225.207949 
L 157.008721 225.207949 
L 157.008721 224.681263 
L 157.435145 224.681263 
L 157.435145 224.154577 
L 158.198096 224.154577 
L 158.28235 223.101204 
L 158.761048 223.101204 
L 158.761048 222.574518 
L 159.064393 222.574518 
L 159.108409 221.521146 
L 159.219249 221.521146 
L 159.219249 220.99446 
L 159.758143 220.99446 
L 159.773084 219.941088 
L 159.887213 219.941088 
L 159.887213 219.414402 
L 160.263949 219.414402 
L 160.37492 218.36103 
L 160.48519 218.36103 
L 160.48519 217.834344 
L 160.682407 217.834344 
L 160.682407 217.307658 
L 160.989209 217.307658 
L 160.989209 216.780971 
L 161.203785 216.780971 
L 161.203785 216.254285 
L 161.5534 216.254285 
L 161.627414 215.200913 
L 161.882915 215.200913 
L 161.882915 214.674227 
L 163.671516 214.674227 
L 163.695386 213.620855 
L 163.963658 213.620855 
L 164.030086 212.567483 
L 164.173795 212.567483 
L 164.241356 210.987425 
L 164.396714 210.987425 
L 164.396714 210.460738 
L 165.085615 210.460738 
L 165.085615 209.934052 
L 165.502755 209.934052 
L 165.599263 208.88068 
L 166.098215 208.88068 
L 166.098215 208.353994 
L 166.280845 208.353994 
L 166.280845 207.827308 
L 166.576548 207.827308 
L 166.576548 207.300622 
L 167.048673 207.300622 
L 167.048673 206.773936 
L 167.514741 206.773936 
L 167.595991 205.720564 
L 167.934414 205.720564 
L 167.934414 205.193878 
L 168.386808 205.193878 
L 168.452002 204.140506 
L 168.519968 204.140506 
L 168.577156 203.087133 
L 168.743139 203.087133 
L 168.743139 202.560447 
L 168.897234 202.560447 
L 168.997257 201.507075 
L 169.315546 201.507075 
L 169.315546 200.980389 
L 169.571453 200.980389 
L 169.574291 199.927017 
L 169.862783 199.927017 
L 169.886494 198.873645 
L 170.088811 198.873645 
L 170.088811 198.346959 
L 170.867492 198.346959 
L 170.867492 197.820273 
L 171.334197 197.820273 
L 171.368797 196.7669 
L 171.607834 196.7669 
L 171.694751 195.186842 
L 173.250449 195.186842 
L 173.250449 194.660156 
L 173.596378 194.660156 
L 173.677313 193.606784 
L 174.496641 193.606784 
L 174.496641 193.080098 
L 174.780023 193.080098 
L 174.780023 192.553412 
L 175.014266 192.553412 
L 175.014266 192.026726 
L 175.494751 192.026726 
L 175.494751 191.50004 
L 175.734604 191.50004 
L 175.734604 190.973354 
L 176.318745 190.973354 
L 176.387046 189.919981 
L 176.655714 189.919981 
L 176.742477 188.866609 
L 177.654249 188.866609 
L 177.654249 188.339923 
L 177.953438 188.339923 
L 177.953438 187.813237 
L 178.558898 187.813237 
L 178.558898 187.286551 
L 179.009913 187.286551 
L 179.009913 186.759865 
L 179.29178 186.759865 
L 179.368825 185.706493 
L 181.226212 185.706493 
L 181.226212 185.179807 
L 181.742975 185.179807 
L 181.742975 184.653121 
L 182.146463 184.653121 
L 182.222893 183.599748 
L 183.161772 183.599748 
L 183.161772 183.073062 
L 183.609106 183.073062 
L 183.609106 182.546376 
L 185.081994 182.546376 
L 185.081994 182.01969 
L 185.228333 182.01969 
L 185.228333 181.493004 
L 185.397525 181.493004 
L 185.447279 180.439632 
L 185.803951 180.439632 
L 185.803951 179.912946 
L 185.968229 179.912946 
L 185.968229 179.38626 
L 186.233357 179.38626 
L 186.233357 178.859574 
L 188.707266 178.859574 
L 188.707266 178.332888 
L 189.425102 178.332888 
L 189.465061 177.279515 
L 189.542898 177.279515 
L 189.542898 176.752829 
L 189.861909 176.752829 
L 189.861909 176.226143 
L 189.979884 176.226143 
L 189.979884 175.699457 
L 190.359284 175.699457 
L 190.359284 175.172771 
L 190.542735 175.172771 
L 190.601901 174.119399 
L 190.688373 174.119399 
L 190.688373 173.592713 
L 191.462072 173.592713 
L 191.462072 173.066027 
L 191.891164 173.066027 
L 191.996612 172.012655 
L 193.4836 172.012655 
L 193.4836 171.485969 
L 195.024684 171.485969 
L 195.024684 170.959282 
L 195.326738 170.959282 
L 195.326738 170.432596 
L 195.757272 170.432596 
L 195.85973 169.379224 
L 196.265486 169.379224 
L 196.265486 168.852538 
L 197.079651 168.852538 
L 197.079651 168.325852 
L 197.326439 168.325852 
L 197.326439 167.799166 
L 197.981231 167.799166 
L 197.981231 167.27248 
L 198.354614 167.27248 
L 198.426387 166.219108 
L 199.278571 166.219108 
L 199.278571 165.692422 
L 199.844425 165.692422 
L 199.917557 164.63905 
L 202.276454 164.63905 
L 202.276454 164.112363 
L 204.387727 164.112363 
L 204.387727 163.585677 
L 205.930601 163.585677 
L 205.930601 163.058991 
L 211.829057 163.058991 
L 211.829057 162.532305 
L 212.155836 162.532305 
L 212.155836 162.005619 
L 338.688 162.005619 
L 338.688 162.005619 
" style="fill:none;stroke:#000080;stroke-linecap:square;stroke-width:1.5;"/>
   </g>
   <g id="line2d_36">
    <defs>
     <path d="M 0 6 
C 1.591219 6 3.117479 5.367802 4.242641 4.242641 
C 5.367802 3.117479 6 1.591219 6 0 
C 6 -1.591219 5.367802 -3.117479 4.242641 -4.242641 
C 3.117479 -5.367802 1.591219 -6 0 -6 
C -1.591219 -6 -3.117479 -5.367802 -4.242641 -4.242641 
C -5.367802 -3.117479 -6 -1.591219 -6 0 
C -6 1.591219 -5.367802 3.117479 -4.242641 4.242641 
C -3.117479 5.367802 -1.591219 6 0 6 
z
" id="mfb32cca048" style="stroke:#000080;stroke-width:1.5;"/>
    </defs>
    <g>
     <use style="fill-opacity:0;stroke:#000080;stroke-width:1.5;" x="158.198096" xlink:href="#mfb32cca048" y="223.627891"/>
     <use style="fill-opacity:0;stroke:#000080;stroke-width:1.5;" x="204.387727" xlink:href="#mfb32cca048" y="164.112363"/>
     <use style="fill-opacity:0;stroke:#000080;stroke-width:1.5;" x="212.155836" xlink:href="#mfb32cca048" y="162.005619"/>
     <use style="fill-opacity:0;stroke:#000080;stroke-width:1.5;" x="212.155836" xlink:href="#mfb32cca048" y="162.005619"/>
     <use style="fill-opacity:0;stroke:#000080;stroke-width:1.5;" x="338.688" xlink:href="#mfb32cca048" y="162.005619"/>
    </g>
   </g>
   <g id="line2d_37">
    <path style="fill:none;stroke:#000080;stroke-linecap:square;stroke-width:1.5;"/>
    <g/>
   </g>
   <g id="line2d_38">
    <path clip-path="url(#p3c8eb1bd88)" d="M 194.045737 171.485969 
" style="fill:none;stroke:#000080;stroke-linecap:square;stroke-width:1.5;"/>
    <defs>
     <path d="M -12 12 
L 12 -12 
M -12 -12 
L 12 12 
" id="m7f76db7a64" style="stroke:#000080;"/>
    </defs>
    <g clip-path="url(#p3c8eb1bd88)">
     <use style="fill:#000080;stroke:#000080;" x="194.045737" xlink:href="#m7f76db7a64" y="171.485969"/>
    </g>
   </g>
   <g id="line2d_39">
    <defs>
     <path d="M 0 1.5 
C 0.397805 1.5 0.77937 1.341951 1.06066 1.06066 
C 1.341951 0.77937 1.5 0.397805 1.5 0 
C 1.5 -0.397805 1.341951 -0.77937 1.06066 -1.06066 
C 0.77937 -1.341951 0.397805 -1.5 0 -1.5 
C -0.397805 -1.5 -0.77937 -1.341951 -1.06066 -1.06066 
C -1.341951 -0.77937 -1.5 -0.397805 -1.5 0 
C -1.5 0.397805 -1.341951 0.77937 -1.06066 1.06066 
C -0.77937 1.341951 -0.397805 1.5 0 1.5 
z
" id="md1af9d3363" style="stroke:#ff00ff;"/>
    </defs>
    <g>
     <use style="fill:#ff00ff;stroke:#ff00ff;" x="264.788134" xlink:href="#md1af9d3363" y="162.005619"/>
     <use style="fill:#ff00ff;stroke:#ff00ff;" x="264.788134" xlink:href="#md1af9d3363" y="162.005619"/>
    </g>
   </g>
   <g id="line2d_40">
    <path d="M 5.356583 298.944 
L 5.356583 297.363942 
L 17.444571 297.363942 
L 17.444571 296.31057 
L 24.515591 296.31057 
L 24.515591 295.257197 
L 29.53256 295.257197 
L 29.53256 294.730511 
L 36.60358 294.730511 
L 36.60358 293.677139 
L 41.620548 293.677139 
L 41.620548 293.150453 
L 43.6746 293.150453 
L 43.6746 292.623767 
L 45.512012 292.623767 
L 45.512012 291.570395 
L 52.583031 291.570395 
L 52.583031 291.043709 
L 53.708537 291.043709 
L 53.708537 290.517023 
L 54.765787 290.517023 
L 54.765787 289.990337 
L 55.762588 289.990337 
L 55.762588 289.463651 
L 56.705482 289.463651 
L 56.705482 288.936964 
L 59.262141 288.936964 
L 59.262141 288.410278 
L 69.687988 288.410278 
L 69.687988 287.883592 
L 70.949209 287.883592 
L 70.949209 287.356906 
L 71.35013 287.356906 
L 71.35013 286.83022 
L 72.125336 286.83022 
L 72.125336 286.303534 
L 73.227131 286.303534 
L 73.227131 285.776848 
L 74.595619 285.776848 
L 74.595619 285.250162 
L 76.16779 285.250162 
L 76.16779 284.723476 
L 77.047268 284.723476 
L 77.047268 284.19679 
L 80.881459 284.19679 
L 80.881459 283.670104 
L 81.992617 283.670104 
L 81.992617 283.143418 
L 86.182924 283.143418 
L 86.182924 282.616732 
L 87.487404 282.616732 
L 87.487404 282.090045 
L 89.277618 282.090045 
L 89.277618 281.563359 
L 91.029752 281.563359 
L 91.029752 280.509987 
L 91.284345 280.509987 
L 91.284345 279.983301 
L 95.526106 279.983301 
L 95.526106 279.456615 
L 98.18605 279.456615 
L 98.18605 278.929929 
L 98.689141 278.929929 
L 98.689141 278.403243 
L 100.040467 278.403243 
L 100.040467 277.876557 
L 104.999975 277.876557 
L 104.999975 277.349871 
L 105.842616 277.349871 
L 105.842616 276.823185 
L 106.957836 276.823185 
L 106.957836 276.296499 
L 107.90885 276.296499 
L 107.90885 275.769812 
L 108.577836 275.769812 
L 108.577836 275.243126 
L 109.668146 275.243126 
L 109.668146 274.71644 
L 111.702614 274.71644 
L 111.702614 274.189754 
L 113.382559 274.189754 
L 113.382559 273.663068 
L 115.680082 273.663068 
L 115.680082 273.136382 
L 119.702083 273.136382 
L 119.702083 272.609696 
L 121.105591 272.609696 
L 121.105591 272.08301 
L 121.489881 272.08301 
L 121.489881 271.556324 
L 126.389073 271.556324 
L 126.389073 271.029638 
L 127.705564 271.029638 
L 127.705564 270.502952 
L 129.376241 270.502952 
L 129.376241 269.976266 
L 130.809292 269.976266 
L 130.809292 269.449579 
L 131.987128 269.449579 
L 131.987128 268.922893 
L 134.724323 268.922893 
L 134.724323 268.396207 
L 135.107392 268.396207 
L 135.107392 267.869521 
L 135.898175 267.869521 
L 135.898175 267.342835 
L 136.160425 267.342835 
L 136.160425 266.816149 
L 136.304433 266.816149 
L 136.304433 266.289463 
L 138.443265 266.289463 
L 138.443265 265.762777 
L 139.033637 265.762777 
L 139.033637 265.236091 
L 139.325515 265.236091 
L 139.325515 264.709405 
L 140.514223 264.709405 
L 140.514223 264.182719 
L 141.263941 264.182719 
L 141.263941 263.656033 
L 141.858037 263.656033 
L 141.858037 263.129347 
L 142.024126 263.129347 
L 142.024126 262.60266 
L 143.47714 262.60266 
L 143.47714 262.075974 
L 144.958609 262.075974 
L 144.958609 261.549288 
L 145.893535 261.549288 
L 145.893535 261.022602 
L 146.691515 261.022602 
L 146.691515 260.495916 
L 147.429332 260.495916 
L 147.429332 259.96923 
L 147.86833 259.96923 
L 147.86833 259.442544 
L 148.137196 259.442544 
L 148.137196 258.915858 
L 148.320566 258.915858 
L 148.320566 258.389172 
L 148.747323 258.389172 
L 148.747323 257.862486 
L 148.896577 257.862486 
L 148.896577 257.3358 
L 150.741418 257.3358 
L 150.762296 256.282427 
L 152.134091 256.282427 
L 152.134091 255.755741 
L 152.299175 255.755741 
L 152.299175 255.229055 
L 152.439984 255.229055 
L 152.439984 254.702369 
L 154.173993 254.702369 
L 154.173993 254.175683 
L 154.955763 254.175683 
L 154.955763 253.648997 
L 155.612591 253.648997 
L 155.637851 252.595625 
L 156.868152 252.595625 
L 156.868152 252.068939 
L 157.101808 252.068939 
L 157.101808 251.542253 
L 157.565585 251.542253 
L 157.565585 251.015567 
L 157.753847 251.015567 
L 157.784562 249.435508 
L 157.906885 249.435508 
L 157.906885 248.908822 
L 158.858379 248.908822 
L 158.858379 248.382136 
L 159.78055 248.382136 
L 159.78055 247.85545 
L 160.504296 247.85545 
L 160.504296 247.328764 
L 160.968303 247.328764 
L 160.968303 246.802078 
L 161.249588 246.802078 
L 161.249588 246.275392 
L 161.736738 246.275392 
L 161.736738 245.748706 
L 162.145593 245.748706 
L 162.145593 245.22202 
L 162.591733 245.22202 
L 162.591733 244.695334 
L 163.545657 244.695334 
L 163.639638 243.641962 
L 163.697374 243.641962 
L 163.697374 243.115275 
L 164.33167 243.115275 
L 164.33167 242.588589 
L 164.735204 242.588589 
L 164.735204 242.061903 
L 165.124118 242.061903 
L 165.124118 241.535217 
L 165.25367 241.535217 
L 165.25367 241.008531 
L 166.600124 241.008531 
L 166.600124 240.481845 
L 166.757598 240.481845 
L 166.757598 239.955159 
L 166.936787 239.955159 
L 166.936787 239.428473 
L 167.325286 239.428473 
L 167.409028 237.321729 
L 167.768384 237.321729 
L 167.768384 236.795043 
L 168.270983 236.795043 
L 168.270983 236.268356 
L 168.863272 236.268356 
L 168.863272 235.74167 
L 169.131676 235.74167 
L 169.131676 235.214984 
L 169.618225 235.214984 
L 169.618225 234.688298 
L 169.781644 234.688298 
L 169.781644 234.161612 
L 170.668729 234.161612 
L 170.668729 233.634926 
L 170.804134 233.634926 
L 170.804134 233.10824 
L 170.976508 233.10824 
L 170.976508 232.581554 
L 171.130332 232.581554 
L 171.130332 232.054868 
L 171.463278 232.054868 
L 171.559782 230.47481 
L 171.633072 230.47481 
L 171.633072 229.948123 
L 171.884704 229.948123 
L 171.899613 228.368065 
L 172.014724 228.368065 
L 172.014724 227.841379 
L 172.61733 227.841379 
L 172.683942 226.788007 
L 173.034197 226.788007 
L 173.034197 226.261321 
L 173.330714 226.261321 
L 173.427684 224.154577 
L 173.588489 224.154577 
L 173.595251 223.101204 
L 173.980826 223.101204 
L 173.980826 222.574518 
L 174.098358 222.574518 
L 174.098358 222.047832 
L 174.307293 222.047832 
L 174.402224 219.941088 
L 174.578839 219.941088 
L 174.578839 219.414402 
L 174.805272 219.414402 
L 174.864043 218.36103 
L 175.0454 218.36103 
L 175.153934 216.254285 
L 175.213598 216.254285 
L 175.213598 215.727599 
L 175.599528 215.727599 
L 175.602541 214.674227 
L 175.998714 214.674227 
L 176.105394 212.567483 
L 176.124898 212.567483 
L 176.229843 210.460738 
L 176.459861 210.460738 
L 176.537134 209.407366 
L 176.897011 209.407366 
L 176.994643 207.827308 
L 177.010398 207.827308 
L 177.029842 206.773936 
L 177.886611 206.773936 
L 177.886611 206.24725 
L 178.039234 206.24725 
L 178.047965 205.193878 
L 178.189667 205.193878 
L 178.189667 204.667192 
L 178.578383 204.667192 
L 178.578383 204.140506 
L 178.953652 204.140506 
L 179.033852 203.087133 
L 179.164521 203.087133 
L 179.262495 202.033761 
L 179.701454 202.033761 
L 179.798834 200.453703 
L 180.493015 200.453703 
L 180.60268 199.400331 
L 181.124802 199.400331 
L 181.156236 198.346959 
L 181.294459 198.346959 
L 181.294459 197.820273 
L 181.675046 197.820273 
L 181.675046 197.293586 
L 181.79234 197.293586 
L 181.79234 196.7669 
L 181.938904 196.7669 
L 182.03084 195.713528 
L 182.351581 195.713528 
L 182.351581 195.186842 
L 182.507739 195.186842 
L 182.507739 194.660156 
L 183.501536 194.660156 
L 183.501536 194.13347 
L 183.655999 194.13347 
L 183.661061 192.553412 
L 183.824155 192.553412 
L 183.900454 191.50004 
L 183.999395 191.50004 
L 183.999395 190.973354 
L 184.453836 190.973354 
L 184.453836 190.446667 
L 184.569524 190.446667 
L 184.582131 189.393295 
L 185.515673 189.393295 
L 185.515673 188.866609 
L 185.687183 188.866609 
L 185.706886 187.813237 
L 185.913271 187.813237 
L 185.913271 187.286551 
L 186.216426 187.286551 
L 186.27643 185.706493 
L 186.719466 185.706493 
L 186.719466 185.179807 
L 187.181537 185.179807 
L 187.281035 184.126434 
L 187.389168 184.126434 
L 187.389168 183.599748 
L 187.597386 183.599748 
L 187.597386 183.073062 
L 187.824088 183.073062 
L 187.824088 182.546376 
L 188.088665 182.546376 
L 188.113678 181.493004 
L 188.254746 181.493004 
L 188.328485 180.439632 
L 188.719578 180.439632 
L 188.719578 179.912946 
L 188.864768 179.912946 
L 188.864768 179.38626 
L 189.523924 179.38626 
L 189.523924 178.859574 
L 189.660353 178.859574 
L 189.660353 178.332888 
L 190.033965 178.332888 
L 190.093567 177.279515 
L 190.336001 177.279515 
L 190.336001 176.752829 
L 190.581492 176.752829 
L 190.642223 175.699457 
L 190.989354 175.699457 
L 190.989354 175.172771 
L 191.316255 175.172771 
L 191.316255 174.646085 
L 191.642746 174.646085 
L 191.642746 174.119399 
L 191.801744 174.119399 
L 191.801744 173.592713 
L 192.015431 173.592713 
L 192.015431 173.066027 
L 192.20445 173.066027 
L 192.20445 172.539341 
L 192.604886 172.539341 
L 192.604886 172.012655 
L 193.26284 172.012655 
L 193.26284 171.485969 
L 193.490083 171.485969 
L 193.490083 170.959282 
L 193.613869 170.959282 
L 193.613869 170.432596 
L 202.938397 170.432596 
L 202.938397 169.90591 
L 204.151746 169.90591 
L 204.151746 169.379224 
L 204.973586 169.379224 
L 204.973586 168.852538 
L 205.428176 168.852538 
L 205.428176 168.325852 
L 205.919128 168.325852 
L 205.919128 167.799166 
L 212.612324 167.799166 
L 212.612324 167.27248 
L 217.196371 167.27248 
L 217.196371 166.745794 
L 218.02926 166.745794 
L 218.02926 166.219108 
L 221.297782 166.219108 
L 221.297782 165.692422 
L 231.915471 165.692422 
L 231.915471 164.63905 
L 233.798233 164.63905 
L 233.798233 164.112363 
L 239.782144 164.112363 
L 239.782144 163.585677 
L 242.146952 163.585677 
L 242.146952 162.532305 
L 264.788134 162.532305 
L 264.788134 162.005619 
L 338.688 162.005619 
L 338.688 162.005619 
" style="fill:none;stroke:#ff00ff;stroke-linecap:square;stroke-width:1.5;"/>
   </g>
   <g id="line2d_41">
    <defs>
     <path d="M 0 8.485281 
L 5.091169 0 
L 0 -8.485281 
L -5.091169 0 
z
" id="m7a55e7b55a" style="stroke:#ff00ff;stroke-linejoin:miter;stroke-width:1.5;"/>
    </defs>
    <g>
     <use style="fill-opacity:0;stroke:#ff00ff;stroke-linejoin:miter;stroke-width:1.5;" x="134.724323" xlink:href="#m7a55e7b55a" y="268.922893"/>
     <use style="fill-opacity:0;stroke:#ff00ff;stroke-linejoin:miter;stroke-width:1.5;" x="184.582131" xlink:href="#m7a55e7b55a" y="189.393295"/>
     <use style="fill-opacity:0;stroke:#ff00ff;stroke-linejoin:miter;stroke-width:1.5;" x="242.146952" xlink:href="#m7a55e7b55a" y="162.532305"/>
     <use style="fill-opacity:0;stroke:#ff00ff;stroke-linejoin:miter;stroke-width:1.5;" x="264.788134" xlink:href="#m7a55e7b55a" y="162.005619"/>
     <use style="fill-opacity:0;stroke:#ff00ff;stroke-linejoin:miter;stroke-width:1.5;" x="338.688" xlink:href="#m7a55e7b55a" y="162.005619"/>
    </g>
   </g>
   <g id="line2d_42">
    <path style="fill:none;stroke:#ff00ff;stroke-linecap:square;stroke-width:1.5;"/>
    <g/>
   </g>
   <g id="line2d_43">
    <path clip-path="url(#p3c8eb1bd88)" d="M 194.045737 170.432596 
" style="fill:none;stroke:#ff00ff;stroke-linecap:square;stroke-width:1.5;"/>
    <defs>
     <path d="M -12 12 
L 12 -12 
M -12 -12 
L 12 12 
" id="ma2b5bab8e2" style="stroke:#ff00ff;"/>
    </defs>
    <g clip-path="url(#p3c8eb1bd88)">
     <use style="fill:#ff00ff;stroke:#ff00ff;" x="194.045737" xlink:href="#ma2b5bab8e2" y="170.432596"/>
    </g>
   </g>
   <g id="line2d_44">
    <defs>
     <path d="M 0 1.5 
C 0.397805 1.5 0.77937 1.341951 1.06066 1.06066 
C 1.341951 0.77937 1.5 0.397805 1.5 0 
C 1.5 -0.397805 1.341951 -0.77937 1.06066 -1.06066 
C 0.77937 -1.341951 0.397805 -1.5 0 -1.5 
C -0.397805 -1.5 -0.77937 -1.341951 -1.06066 -1.06066 
C -1.341951 -0.77937 -1.5 -0.397805 -1.5 0 
C -1.5 0.397805 -1.341951 0.77937 -1.06066 1.06066 
C -0.77937 1.341951 -0.397805 1.5 0 1.5 
z
" id="m312f169217" style="stroke:#ff7500;"/>
    </defs>
    <g>
     <use style="fill:#ff7500;stroke:#ff7500;" x="257.893929" xlink:href="#m312f169217" y="204.140506"/>
     <use style="fill:#ff7500;stroke:#ff7500;" x="257.893929" xlink:href="#m312f169217" y="204.140506"/>
    </g>
   </g>
   <g id="line2d_45">
    <path d="M 5.356583 298.944 
L 5.356583 297.890628 
L 17.444571 297.890628 
L 17.444571 297.363942 
L 24.515591 297.363942 
L 24.515591 296.837256 
L 33.424023 296.837256 
L 33.424023 296.31057 
L 36.60358 296.31057 
L 36.60358 295.257197 
L 39.291857 295.257197 
L 39.291857 294.730511 
L 41.620548 294.730511 
L 41.620548 293.677139 
L 47.174153 293.677139 
L 47.174153 293.150453 
L 50.087456 293.150453 
L 50.087456 292.623767 
L 51.379845 292.623767 
L 51.379845 291.043709 
L 52.583031 291.043709 
L 52.583031 289.990337 
L 54.765787 289.990337 
L 54.765787 288.936964 
L 59.262141 288.936964 
L 59.262141 288.410278 
L 62.175444 288.410278 
L 62.175444 287.883592 
L 67.850577 287.883592 
L 67.850577 287.356906 
L 72.125336 287.356906 
L 72.125336 286.83022 
L 74.921597 286.83022 
L 74.921597 286.303534 
L 78.683399 286.303534 
L 78.683399 285.776848 
L 78.941764 285.776848 
L 78.941764 285.250162 
L 79.938565 285.250162 
L 79.938565 284.723476 
L 84.401859 284.723476 
L 84.401859 284.19679 
L 84.955534 284.19679 
L 84.955534 283.670104 
L 87.329581 283.670104 
L 87.329581 283.143418 
L 89.135256 283.143418 
L 89.135256 282.616732 
L 92.147241 282.616732 
L 92.147241 282.090045 
L 92.73846 282.090045 
L 92.73846 281.563359 
L 96.86091 281.563359 
L 96.86091 281.036673 
L 100.268435 281.036673 
L 100.268435 280.509987 
L 101.436355 280.509987 
L 101.436355 279.983301 
L 105.787689 279.983301 
L 105.787689 279.456615 
L 108.102622 279.456615 
L 108.102622 278.929929 
L 125.452744 278.929929 
L 125.506102 277.876557 
L 133.29613 277.876557 
L 133.29613 277.349871 
L 134.03029 277.349871 
L 134.03029 276.823185 
L 136.58893 276.823185 
L 136.58893 276.296499 
L 136.748108 276.296499 
L 136.748108 275.769812 
L 141.676303 275.769812 
L 141.760416 274.71644 
L 143.47714 274.71644 
L 143.47714 274.189754 
L 148.592055 274.189754 
L 148.592055 273.663068 
L 149.65542 273.663068 
L 149.65542 273.136382 
L 151.272229 273.136382 
L 151.272229 272.609696 
L 151.63322 272.609696 
L 151.63322 272.08301 
L 154.273226 272.08301 
L 154.273226 271.556324 
L 154.909767 271.556324 
L 154.909767 271.029638 
L 155.925748 271.029638 
L 155.925748 270.502952 
L 158.184468 270.502952 
L 158.184468 269.976266 
L 159.344703 269.976266 
L 159.344703 269.449579 
L 159.673231 269.449579 
L 159.758143 268.396207 
L 160.537682 268.396207 
L 160.537682 267.869521 
L 160.970627 267.869521 
L 160.970627 267.342835 
L 162.939775 267.342835 
L 162.939775 266.816149 
L 164.041782 266.816149 
L 164.041782 266.289463 
L 164.781961 266.289463 
L 164.781961 265.762777 
L 165.259123 265.762777 
L 165.259123 265.236091 
L 165.613515 265.236091 
L 165.613515 264.709405 
L 165.824152 264.709405 
L 165.824152 264.182719 
L 166.989529 264.182719 
L 166.989529 263.656033 
L 168.759502 263.656033 
L 168.759502 263.129347 
L 169.480386 263.129347 
L 169.480386 262.60266 
L 169.915739 262.60266 
L 170.012871 261.549288 
L 171.255771 261.549288 
L 171.255771 261.022602 
L 171.742433 261.022602 
L 171.742433 260.495916 
L 172.263379 260.495916 
L 172.263379 259.96923 
L 173.140923 259.96923 
L 173.140923 259.442544 
L 173.306673 259.442544 
L 173.368425 258.389172 
L 174.228149 258.389172 
L 174.335394 257.3358 
L 174.625636 257.3358 
L 174.625636 256.809114 
L 175.000757 256.809114 
L 175.000757 256.282427 
L 175.199215 256.282427 
L 175.199215 255.755741 
L 175.884461 255.755741 
L 175.884461 255.229055 
L 178.697366 255.229055 
L 178.697366 254.702369 
L 179.274703 254.702369 
L 179.365588 253.648997 
L 179.788568 253.648997 
L 179.788568 253.122311 
L 180.388763 253.122311 
L 180.388763 252.595625 
L 180.536207 252.595625 
L 180.644097 249.962195 
L 181.150392 249.962195 
L 181.19126 248.908822 
L 182.459005 248.908822 
L 182.459005 248.382136 
L 183.018609 248.382136 
L 183.018609 247.85545 
L 183.258507 247.85545 
L 183.258507 247.328764 
L 183.80346 247.328764 
L 183.80346 246.802078 
L 184.037824 246.802078 
L 184.037824 246.275392 
L 184.233607 246.275392 
L 184.233607 245.748706 
L 184.940884 245.748706 
L 184.940884 245.22202 
L 185.603054 245.22202 
L 185.678168 243.115275 
L 185.933276 243.115275 
L 185.933276 242.588589 
L 186.250272 242.588589 
L 186.28133 241.535217 
L 186.813181 241.535217 
L 186.813181 240.481845 
L 187.476312 240.481845 
L 187.476312 239.955159 
L 187.722637 239.955159 
L 187.722637 239.428473 
L 187.992201 239.428473 
L 187.992201 238.901787 
L 188.397574 238.901787 
L 188.397574 238.375101 
L 188.606551 238.375101 
L 188.606551 237.848415 
L 188.958872 237.848415 
L 189.044109 236.795043 
L 189.158037 236.795043 
L 189.158037 236.268356 
L 189.4918 236.268356 
L 189.539737 234.688298 
L 189.670666 234.688298 
L 189.670666 234.161612 
L 189.986048 234.161612 
L 189.986048 233.634926 
L 190.649853 233.634926 
L 190.6507 232.581554 
L 190.793342 232.581554 
L 190.885562 230.47481 
L 191.429684 230.47481 
L 191.513769 229.421437 
L 191.607884 229.421437 
L 191.702291 228.368065 
L 191.723821 228.368065 
L 191.723821 227.841379 
L 192.022483 227.841379 
L 192.022483 227.314693 
L 192.683882 227.314693 
L 192.683882 226.788007 
L 192.801521 226.788007 
L 192.801521 226.261321 
L 193.159661 226.261321 
L 193.187162 225.207949 
L 193.326563 225.207949 
L 193.385346 224.154577 
L 193.514551 224.154577 
L 193.572346 223.101204 
L 193.658147 223.101204 
L 193.658147 222.574518 
L 203.560574 222.574518 
L 203.560574 222.047832 
L 204.083031 222.047832 
L 204.083031 221.521146 
L 205.011382 221.521146 
L 205.011382 220.99446 
L 205.302242 220.99446 
L 205.302242 220.467774 
L 205.709721 220.467774 
L 205.709721 219.941088 
L 205.870155 219.941088 
L 205.941007 218.36103 
L 211.864749 218.36103 
L 211.864749 217.834344 
L 212.457683 217.834344 
L 212.457683 217.307658 
L 217.226492 217.307658 
L 217.226492 216.780971 
L 217.664709 216.780971 
L 217.66957 215.727599 
L 217.810927 215.727599 
L 217.918883 214.674227 
L 221.509422 214.674227 
L 221.509422 214.147541 
L 221.785326 214.147541 
L 221.785326 213.094169 
L 224.635603 213.094169 
L 224.635603 212.567483 
L 230.244183 212.567483 
L 230.244183 212.040797 
L 232.030918 212.040797 
L 232.120512 210.460738 
L 232.182376 210.460738 
L 232.182376 209.934052 
L 235.422823 209.934052 
L 235.422823 209.407366 
L 237.280362 209.407366 
L 237.280362 208.88068 
L 239.952616 208.88068 
L 239.952616 208.353994 
L 241.191944 208.353994 
L 241.191944 207.827308 
L 242.211253 207.827308 
L 242.295898 206.773936 
L 247.852197 206.773936 
L 247.852197 206.24725 
L 250.025149 206.24725 
L 250.025149 205.720564 
L 252.098894 205.720564 
L 252.098894 205.193878 
L 254.973035 205.193878 
L 254.973035 204.667192 
L 257.893929 204.667192 
L 257.893929 204.140506 
L 338.688 204.140506 
L 338.688 204.140506 
" style="fill:none;stroke:#ff7500;stroke-linecap:square;stroke-width:1.5;"/>
   </g>
   <g id="line2d_46">
    <defs>
     <path d="M 0 -6 
L -1.347084 -1.854102 
L -5.706339 -1.854102 
L -2.179628 0.708204 
L -3.526712 4.854102 
L -0 2.291796 
L 3.526712 4.854102 
L 2.179628 0.708204 
L 5.706339 -1.854102 
L 1.347084 -1.854102 
z
" id="mc44d5573f0" style="stroke:#ff7500;stroke-linejoin:bevel;stroke-width:1.5;"/>
    </defs>
    <g>
     <use style="fill-opacity:0;stroke:#ff7500;stroke-linejoin:bevel;stroke-width:1.5;" x="67.850577" xlink:href="#mc44d5573f0" y="287.883592"/>
     <use style="fill-opacity:0;stroke:#ff7500;stroke-linejoin:bevel;stroke-width:1.5;" x="158.184468" xlink:href="#mc44d5573f0" y="270.502952"/>
     <use style="fill-opacity:0;stroke:#ff7500;stroke-linejoin:bevel;stroke-width:1.5;" x="205.941007" xlink:href="#mc44d5573f0" y="218.36103"/>
     <use style="fill-opacity:0;stroke:#ff7500;stroke-linejoin:bevel;stroke-width:1.5;" x="257.893929" xlink:href="#mc44d5573f0" y="204.667192"/>
     <use style="fill-opacity:0;stroke:#ff7500;stroke-linejoin:bevel;stroke-width:1.5;" x="257.893929" xlink:href="#mc44d5573f0" y="204.140506"/>
     <use style="fill-opacity:0;stroke:#ff7500;stroke-linejoin:bevel;stroke-width:1.5;" x="338.688" xlink:href="#mc44d5573f0" y="204.140506"/>
    </g>
   </g>
   <g id="line2d_47">
    <path style="fill:none;stroke:#ff7500;stroke-linecap:square;stroke-width:1.5;"/>
    <g/>
   </g>
   <g id="line2d_48">
    <path clip-path="url(#p3c8eb1bd88)" d="M 194.045737 222.574518 
" style="fill:none;stroke:#ff7500;stroke-linecap:square;stroke-width:1.5;"/>
    <defs>
     <path d="M -12 12 
L 12 -12 
M -12 -12 
L 12 12 
" id="m770db0501b" style="stroke:#ff7500;"/>
    </defs>
    <g clip-path="url(#p3c8eb1bd88)">
     <use style="fill:#ff7500;stroke:#ff7500;" x="194.045737" xlink:href="#m770db0501b" y="222.574518"/>
    </g>
   </g>
   <g id="line2d_49">
    <path d="M 338.688 204.140506 
L 369.60768 293.571802 
" style="fill:none;stroke:#ff7500;stroke-linecap:square;stroke-width:1.5;"/>
    <g>
     <use style="fill-opacity:0;stroke:#ff7500;stroke-linejoin:bevel;stroke-width:1.5;" x="338.688" xlink:href="#mc44d5573f0" y="204.140506"/>
     <use style="fill-opacity:0;stroke:#ff7500;stroke-linejoin:bevel;stroke-width:1.5;" x="369.60768" xlink:href="#mc44d5573f0" y="293.571802"/>
    </g>
   </g>
   <g id="line2d_50">
    <path d="M 338.688 162.005619 
L 369.60768 207.616634 
" style="fill:none;stroke:#ff00ff;stroke-linecap:square;stroke-width:1.5;"/>
    <g>
     <use style="fill-opacity:0;stroke:#ff00ff;stroke-linejoin:miter;stroke-width:1.5;" x="338.688" xlink:href="#m7a55e7b55a" y="162.005619"/>
     <use style="fill-opacity:0;stroke:#ff00ff;stroke-linejoin:miter;stroke-width:1.5;" x="369.60768" xlink:href="#m7a55e7b55a" y="207.616634"/>
    </g>
   </g>
   <g id="line2d_51">
    <path d="M 338.688 162.005619 
L 369.60768 121.661465 
" style="fill:none;stroke:#000080;stroke-linecap:square;stroke-width:1.5;"/>
    <g>
     <use style="fill-opacity:0;stroke:#000080;stroke-width:1.5;" x="338.688" xlink:href="#mfb32cca048" y="162.005619"/>
     <use style="fill-opacity:0;stroke:#000080;stroke-width:1.5;" x="369.60768" xlink:href="#mfb32cca048" y="121.661465"/>
    </g>
   </g>
   <g id="line2d_52">
    <path d="M 338.688 298.944 
L 338.688 30.334099 
" style="fill:none;stroke:#000000;stroke-linecap:square;stroke-width:1.5;"/>
   </g>
   <g id="patch_3">
    <path d="M 57.6 298.944 
L 57.6 27.648 
" style="fill:none;stroke:#000000;stroke-linecap:square;stroke-linejoin:miter;stroke-width:0.8;"/>
   </g>
   <g id="patch_4">
    <path d="M 338.688 298.944 
L 338.688 27.648 
" style="fill:none;stroke:#000000;stroke-linecap:square;stroke-linejoin:miter;stroke-width:0.8;"/>
   </g>
   <g id="patch_5">
    <path d="M 57.6 298.944 
L 338.688 298.944 
" style="fill:none;stroke:#000000;stroke-linecap:square;stroke-linejoin:miter;stroke-width:0.8;"/>
   </g>
   <g id="patch_6">
    <path d="M 57.6 27.648 
L 338.688 27.648 
" style="fill:none;stroke:#000000;stroke-linecap:square;stroke-linejoin:miter;stroke-width:0.8;"/>
   </g>
   <g id="text_13">
    <!-- PSO EDA -->
    <g transform="translate(375.22944 298.262739)scale(0.17 -0.17)">
     <defs>
      <path d="M 1259 4147 
L 1259 2394 
L 2053 2394 
Q 2494 2394 2734 2622 
Q 2975 2850 2975 3272 
Q 2975 3691 2734 3919 
Q 2494 4147 2053 4147 
L 1259 4147 
z
M 628 4666 
L 2053 4666 
Q 2838 4666 3239 4311 
Q 3641 3956 3641 3272 
Q 3641 2581 3239 2228 
Q 2838 1875 2053 1875 
L 1259 1875 
L 1259 0 
L 628 0 
L 628 4666 
z
" id="DejaVuSans-50" transform="scale(0.015625)"/>
      <path d="M 3425 4513 
L 3425 3897 
Q 3066 4069 2747 4153 
Q 2428 4238 2131 4238 
Q 1616 4238 1336 4038 
Q 1056 3838 1056 3469 
Q 1056 3159 1242 3001 
Q 1428 2844 1947 2747 
L 2328 2669 
Q 3034 2534 3370 2195 
Q 3706 1856 3706 1288 
Q 3706 609 3251 259 
Q 2797 -91 1919 -91 
Q 1588 -91 1214 -16 
Q 841 59 441 206 
L 441 856 
Q 825 641 1194 531 
Q 1563 422 1919 422 
Q 2459 422 2753 634 
Q 3047 847 3047 1241 
Q 3047 1584 2836 1778 
Q 2625 1972 2144 2069 
L 1759 2144 
Q 1053 2284 737 2584 
Q 422 2884 422 3419 
Q 422 4038 858 4394 
Q 1294 4750 2059 4750 
Q 2388 4750 2728 4690 
Q 3069 4631 3425 4513 
z
" id="DejaVuSans-53" transform="scale(0.015625)"/>
      <path d="M 2522 4238 
Q 1834 4238 1429 3725 
Q 1025 3213 1025 2328 
Q 1025 1447 1429 934 
Q 1834 422 2522 422 
Q 3209 422 3611 934 
Q 4013 1447 4013 2328 
Q 4013 3213 3611 3725 
Q 3209 4238 2522 4238 
z
M 2522 4750 
Q 3503 4750 4090 4092 
Q 4678 3434 4678 2328 
Q 4678 1225 4090 567 
Q 3503 -91 2522 -91 
Q 1538 -91 948 565 
Q 359 1222 359 2328 
Q 359 3434 948 4092 
Q 1538 4750 2522 4750 
z
" id="DejaVuSans-4f" transform="scale(0.015625)"/>
      <path d="M 628 4666 
L 3578 4666 
L 3578 4134 
L 1259 4134 
L 1259 2753 
L 3481 2753 
L 3481 2222 
L 1259 2222 
L 1259 531 
L 3634 531 
L 3634 0 
L 628 0 
L 628 4666 
z
" id="DejaVuSans-45" transform="scale(0.015625)"/>
      <path d="M 1259 4147 
L 1259 519 
L 2022 519 
Q 2988 519 3436 956 
Q 3884 1394 3884 2338 
Q 3884 3275 3436 3711 
Q 2988 4147 2022 4147 
L 1259 4147 
z
M 628 4666 
L 1925 4666 
Q 3281 4666 3915 4102 
Q 4550 3538 4550 2338 
Q 4550 1131 3912 565 
Q 3275 0 1925 0 
L 628 0 
L 628 4666 
z
" id="DejaVuSans-44" transform="scale(0.015625)"/>
      <path d="M 2188 4044 
L 1331 1722 
L 3047 1722 
L 2188 4044 
z
M 1831 4666 
L 2547 4666 
L 4325 0 
L 3669 0 
L 3244 1197 
L 1141 1197 
L 716 0 
L 50 0 
L 1831 4666 
z
" id="DejaVuSans-41" transform="scale(0.015625)"/>
     </defs>
     <use xlink:href="#DejaVuSans-50"/>
     <use x="60.302734" xlink:href="#DejaVuSans-53"/>
     <use x="123.779297" xlink:href="#DejaVuSans-4f"/>
     <use x="202.490234" xlink:href="#DejaVuSans-20"/>
     <use x="234.277344" xlink:href="#DejaVuSans-45"/>
     <use x="297.460938" xlink:href="#DejaVuSans-44"/>
     <use x="372.712891" xlink:href="#DejaVuSans-41"/>
    </g>
   </g>
   <g id="text_14">
    <!-- PSO Bound -->
    <g transform="translate(375.22944 212.307571)scale(0.17 -0.17)">
     <defs>
      <path d="M 1259 2228 
L 1259 519 
L 2272 519 
Q 2781 519 3026 730 
Q 3272 941 3272 1375 
Q 3272 1813 3026 2020 
Q 2781 2228 2272 2228 
L 1259 2228 
z
M 1259 4147 
L 1259 2741 
L 2194 2741 
Q 2656 2741 2882 2914 
Q 3109 3088 3109 3444 
Q 3109 3797 2882 3972 
Q 2656 4147 2194 4147 
L 1259 4147 
z
M 628 4666 
L 2241 4666 
Q 2963 4666 3353 4366 
Q 3744 4066 3744 3513 
Q 3744 3084 3544 2831 
Q 3344 2578 2956 2516 
Q 3422 2416 3680 2098 
Q 3938 1781 3938 1306 
Q 3938 681 3513 340 
Q 3088 0 2303 0 
L 628 0 
L 628 4666 
z
" id="DejaVuSans-42" transform="scale(0.015625)"/>
     </defs>
     <use xlink:href="#DejaVuSans-50"/>
     <use x="60.302734" xlink:href="#DejaVuSans-53"/>
     <use x="123.779297" xlink:href="#DejaVuSans-4f"/>
     <use x="202.490234" xlink:href="#DejaVuSans-20"/>
     <use x="234.277344" xlink:href="#DejaVuSans-42"/>
     <use x="302.880859" xlink:href="#DejaVuSans-6f"/>
     <use x="364.0625" xlink:href="#DejaVuSans-75"/>
     <use x="427.441406" xlink:href="#DejaVuSans-6e"/>
     <use x="490.820312" xlink:href="#DejaVuSans-64"/>
    </g>
   </g>
   <g id="text_15">
    <!-- PSO -->
    <g transform="translate(375.22944 126.352403)scale(0.17 -0.17)">
     <use xlink:href="#DejaVuSans-50"/>
     <use x="60.302734" xlink:href="#DejaVuSans-53"/>
     <use x="123.779297" xlink:href="#DejaVuSans-4f"/>
    </g>
   </g>
   <g id="text_16">
    <!-- best 2009 -->
    <g transform="translate(375.22944 40.397235)scale(0.17 -0.17)">
     <defs>
      <path d="M 3116 1747 
Q 3116 2381 2855 2742 
Q 2594 3103 2138 3103 
Q 1681 3103 1420 2742 
Q 1159 2381 1159 1747 
Q 1159 1113 1420 752 
Q 1681 391 2138 391 
Q 2594 391 2855 752 
Q 3116 1113 3116 1747 
z
M 1159 2969 
Q 1341 3281 1617 3432 
Q 1894 3584 2278 3584 
Q 2916 3584 3314 3078 
Q 3713 2572 3713 1747 
Q 3713 922 3314 415 
Q 2916 -91 2278 -91 
Q 1894 -91 1617 61 
Q 1341 213 1159 525 
L 1159 0 
L 581 0 
L 581 4863 
L 1159 4863 
L 1159 2969 
z
" id="DejaVuSans-62" transform="scale(0.015625)"/>
      <path d="M 703 97 
L 703 672 
Q 941 559 1184 500 
Q 1428 441 1663 441 
Q 2288 441 2617 861 
Q 2947 1281 2994 2138 
Q 2813 1869 2534 1725 
Q 2256 1581 1919 1581 
Q 1219 1581 811 2004 
Q 403 2428 403 3163 
Q 403 3881 828 4315 
Q 1253 4750 1959 4750 
Q 2769 4750 3195 4129 
Q 3622 3509 3622 2328 
Q 3622 1225 3098 567 
Q 2575 -91 1691 -91 
Q 1453 -91 1209 -44 
Q 966 3 703 97 
z
M 1959 2075 
Q 2384 2075 2632 2365 
Q 2881 2656 2881 3163 
Q 2881 3666 2632 3958 
Q 2384 4250 1959 4250 
Q 1534 4250 1286 3958 
Q 1038 3666 1038 3163 
Q 1038 2656 1286 2365 
Q 1534 2075 1959 2075 
z
" id="DejaVuSans-39" transform="scale(0.015625)"/>
     </defs>
     <use xlink:href="#DejaVuSans-62"/>
     <use x="63.476562" xlink:href="#DejaVuSans-65"/>
     <use x="125" xlink:href="#DejaVuSans-73"/>
     <use x="177.099609" xlink:href="#DejaVuSans-74"/>
     <use x="216.308594" xlink:href="#DejaVuSans-20"/>
     <use x="248.095703" xlink:href="#DejaVuSans-32"/>
     <use x="311.71875" xlink:href="#DejaVuSans-30"/>
     <use x="375.341797" xlink:href="#DejaVuSans-30"/>
     <use x="438.964844" xlink:href="#DejaVuSans-39"/>
    </g>
   </g>
   <g id="text_17">
    <!-- bbob f14, 20-D -->
    <g transform="translate(60.41088 38.111366)scale(0.102 -0.102)">
     <use xlink:href="#DejaVuSans-62"/>
     <use x="63.476562" xlink:href="#DejaVuSans-62"/>
     <use x="126.953125" xlink:href="#DejaVuSans-6f"/>
     <use x="188.134766" xlink:href="#DejaVuSans-62"/>
     <use x="251.611328" xlink:href="#DejaVuSans-20"/>
     <use x="283.398438" xlink:href="#DejaVuSans-66"/>
     <use x="318.603516" xlink:href="#DejaVuSans-31"/>
     <use x="382.226562" xlink:href="#DejaVuSans-34"/>
     <use x="445.849609" xlink:href="#DejaVuSans-2c"/>
     <use x="477.636719" xlink:href="#DejaVuSans-20"/>
     <use x="509.423828" xlink:href="#DejaVuSans-32"/>
     <use x="573.046875" xlink:href="#DejaVuSans-30"/>
     <use x="636.669922" xlink:href="#DejaVuSans-2d"/>
     <use x="672.753906" xlink:href="#DejaVuSans-44"/>
    </g>
    <!-- 51 targets: 100..1e-08 -->
    <g transform="translate(60.41088 49.533135)scale(0.102 -0.102)">
     <defs>
      <path d="M 691 4666 
L 3169 4666 
L 3169 4134 
L 1269 4134 
L 1269 2991 
Q 1406 3038 1543 3061 
Q 1681 3084 1819 3084 
Q 2600 3084 3056 2656 
Q 3513 2228 3513 1497 
Q 3513 744 3044 326 
Q 2575 -91 1722 -91 
Q 1428 -91 1123 -41 
Q 819 9 494 109 
L 494 744 
Q 775 591 1075 516 
Q 1375 441 1709 441 
Q 2250 441 2565 725 
Q 2881 1009 2881 1497 
Q 2881 1984 2565 2268 
Q 2250 2553 1709 2553 
Q 1456 2553 1204 2497 
Q 953 2441 691 2322 
L 691 4666 
z
" id="DejaVuSans-35" transform="scale(0.015625)"/>
      <path d="M 750 794 
L 1409 794 
L 1409 0 
L 750 0 
L 750 794 
z
M 750 3309 
L 1409 3309 
L 1409 2516 
L 750 2516 
L 750 3309 
z
" id="DejaVuSans-3a" transform="scale(0.015625)"/>
     </defs>
     <use xlink:href="#DejaVuSans-35"/>
     <use x="63.623047" xlink:href="#DejaVuSans-31"/>
     <use x="127.246094" xlink:href="#DejaVuSans-20"/>
     <use x="159.033203" xlink:href="#DejaVuSans-74"/>
     <use x="198.242188" xlink:href="#DejaVuSans-61"/>
     <use x="259.521484" xlink:href="#DejaVuSans-72"/>
     <use x="298.884766" xlink:href="#DejaVuSans-67"/>
     <use x="362.361328" xlink:href="#DejaVuSans-65"/>
     <use x="423.884766" xlink:href="#DejaVuSans-74"/>
     <use x="463.09375" xlink:href="#DejaVuSans-73"/>
     <use x="515.193359" xlink:href="#DejaVuSans-3a"/>
     <use x="548.884766" xlink:href="#DejaVuSans-20"/>
     <use x="580.671875" xlink:href="#DejaVuSans-31"/>
     <use x="644.294922" xlink:href="#DejaVuSans-30"/>
     <use x="707.917969" xlink:href="#DejaVuSans-30"/>
     <use x="771.541016" xlink:href="#DejaVuSans-2e"/>
     <use x="803.328125" xlink:href="#DejaVuSans-2e"/>
     <use x="835.115234" xlink:href="#DejaVuSans-31"/>
     <use x="898.738281" xlink:href="#DejaVuSans-65"/>
     <use x="960.261719" xlink:href="#DejaVuSans-2d"/>
     <use x="996.345703" xlink:href="#DejaVuSans-30"/>
     <use x="1059.96875" xlink:href="#DejaVuSans-38"/>
    </g>
    <!-- 15 instances -->
    <g transform="translate(60.41088 60.954904)scale(0.102 -0.102)">
     <use xlink:href="#DejaVuSans-31"/>
     <use x="63.623047" xlink:href="#DejaVuSans-35"/>
     <use x="127.246094" xlink:href="#DejaVuSans-20"/>
     <use x="159.033203" xlink:href="#DejaVuSans-69"/>
     <use x="186.816406" xlink:href="#DejaVuSans-6e"/>
     <use x="250.195312" xlink:href="#DejaVuSans-73"/>
     <use x="302.294922" xlink:href="#DejaVuSans-74"/>
     <use x="341.503906" xlink:href="#DejaVuSans-61"/>
     <use x="402.783203" xlink:href="#DejaVuSans-6e"/>
     <use x="466.162109" xlink:href="#DejaVuSans-63"/>
     <use x="521.142578" xlink:href="#DejaVuSans-65"/>
     <use x="582.666016" xlink:href="#DejaVuSans-73"/>
    </g>
   </g>
   <g id="text_18">
    <!-- v2.4 -->
    <g style="fill:#808080;" transform="translate(187.233062 294.151352)scale(0.1 -0.1)">
     <use xlink:href="#DejaVuSans-76"/>
     <use x="59.179688" xlink:href="#DejaVuSans-32"/>
     <use x="122.802734" xlink:href="#DejaVuSans-2e"/>
     <use x="154.589844" xlink:href="#DejaVuSans-34"/>
    </g>
   </g>
   <g id="text_19">
    <!-- 14 Sum of different powers -->
    <g transform="translate(61.904937 21.648)scale(0.2 -0.2)">
     <defs>
      <path d="M 269 3500 
L 844 3500 
L 1563 769 
L 2278 3500 
L 2956 3500 
L 3675 769 
L 4391 3500 
L 4966 3500 
L 4050 0 
L 3372 0 
L 2619 2869 
L 1863 0 
L 1184 0 
L 269 3500 
z
" id="DejaVuSans-77" transform="scale(0.015625)"/>
     </defs>
     <use xlink:href="#DejaVuSans-31"/>
     <use x="63.623047" xlink:href="#DejaVuSans-34"/>
     <use x="127.246094" xlink:href="#DejaVuSans-20"/>
     <use x="159.033203" xlink:href="#DejaVuSans-53"/>
     <use x="222.509766" xlink:href="#DejaVuSans-75"/>
     <use x="285.888672" xlink:href="#DejaVuSans-6d"/>
     <use x="383.300781" xlink:href="#DejaVuSans-20"/>
     <use x="415.087891" xlink:href="#DejaVuSans-6f"/>
     <use x="476.269531" xlink:href="#DejaVuSans-66"/>
     <use x="511.474609" xlink:href="#DejaVuSans-20"/>
     <use x="543.261719" xlink:href="#DejaVuSans-64"/>
     <use x="606.738281" xlink:href="#DejaVuSans-69"/>
     <use x="634.521484" xlink:href="#DejaVuSans-66"/>
     <use x="669.726562" xlink:href="#DejaVuSans-66"/>
     <use x="704.931641" xlink:href="#DejaVuSans-65"/>
     <use x="766.455078" xlink:href="#DejaVuSans-72"/>
     <use x="805.318359" xlink:href="#DejaVuSans-65"/>
     <use x="866.841797" xlink:href="#DejaVuSans-6e"/>
     <use x="930.220703" xlink:href="#DejaVuSans-74"/>
     <use x="969.429688" xlink:href="#DejaVuSans-20"/>
     <use x="1001.216797" xlink:href="#DejaVuSans-70"/>
     <use x="1064.693359" xlink:href="#DejaVuSans-6f"/>
     <use x="1125.875" xlink:href="#DejaVuSans-77"/>
     <use x="1207.662109" xlink:href="#DejaVuSans-65"/>
     <use x="1269.185547" xlink:href="#DejaVuSans-72"/>
     <use x="1310.298828" xlink:href="#DejaVuSans-73"/>
    </g>
   </g>
  </g>
 </g>
 <defs>
  <clipPath id="p3c8eb1bd88">
   <rect height="271.296" width="281.088" x="57.6" y="27.648"/>
  </clipPath>
 </defs>
</svg>
