<?xml version="1.0" encoding="utf-8" standalone="no"?>
<!DOCTYPE svg PUBLIC "-//W3C//DTD SVG 1.1//EN"
  "http://www.w3.org/Graphics/SVG/1.1/DTD/svg11.dtd">
<svg height="345.6pt" version="1.1" viewBox="0 0 460.8 345.6" width="460.8pt" xmlns="http://www.w3.org/2000/svg" xmlns:xlink="http://www.w3.org/1999/xlink">
 <metadata>
  <rdf:RDF xmlns:cc="http://creativecommons.org/ns#" xmlns:dc="http://purl.org/dc/elements/1.1/" xmlns:rdf="http://www.w3.org/1999/02/22-rdf-syntax-ns#">
   <cc:Work>
    <dc:type rdf:resource="http://purl.org/dc/dcmitype/StillImage"/>
    <dc:date>2021-04-25T03:18:50.640568</dc:date>
    <dc:format>image/svg+xml</dc:format>
    <dc:creator>
     <cc:Agent>
      <dc:title>Matplotlib v3.4.1, https://matplotlib.org/</dc:title>
     </cc:Agent>
    </dc:creator>
   </cc:Work>
  </rdf:RDF>
 </metadata>
 <defs>
  <style type="text/css">*{stroke-linecap:butt;stroke-linejoin:round;}</style>
 </defs>
 <g id="figure_1">
  <g id="patch_1">
   <path d="M 0 345.6 
L 460.8 345.6 
L 460.8 0 
L 0 0 
z
" style="fill:#ffffff;"/>
  </g>
  <g id="axes_1">
   <g id="patch_2">
    <path d="M 57.6 298.944 
L 338.688 298.944 
L 338.688 27.648 
L 57.6 27.648 
z
" style="fill:#ffffff;"/>
   </g>
   <g id="line2d_1">
    <path d="M 73.579452 298.944 
L 73.579452 293.677139 
L 83.830028 293.677139 
L 83.830028 288.410278 
L 91.535274 288.410278 
L 91.535274 283.143418 
L 95.918017 283.143418 
L 95.918017 277.876557 
L 97.755429 277.876557 
L 97.755429 272.609696 
L 100.192776 272.609696 
L 100.192776 267.342835 
L 100.934985 267.342835 
L 100.934985 262.075974 
L 102.989037 262.075974 
L 102.989037 256.809114 
L 105.398279 256.809114 
L 105.398279 251.542253 
L 106.48859 251.542253 
L 106.48859 246.275392 
L 107.514726 246.275392 
L 107.514726 241.008531 
L 108.948899 241.008531 
L 108.948899 235.74167 
L 109.843417 235.74167 
L 109.843417 230.47481 
L 110.694282 230.47481 
L 110.694282 225.207949 
L 111.104637 225.207949 
L 111.104637 219.941088 
L 112.280765 219.941088 
L 112.280765 214.674227 
L 114.080224 214.674227 
L 114.080224 209.407366 
L 114.751048 209.407366 
L 114.751048 204.140506 
L 115.397021 204.140506 
L 115.397021 198.873645 
L 116.019919 198.873645 
L 116.019919 193.606784 
L 116.914437 193.606784 
L 116.914437 188.339923 
L 117.486268 188.339923 
L 117.486268 183.073062 
L 118.039942 183.073062 
L 118.039942 177.806202 
L 118.838828 177.806202 
L 118.838828 172.539341 
L 119.097192 172.539341 
L 119.097192 167.27248 
L 119.850084 167.27248 
L 119.850084 162.005619 
L 120.571812 162.005619 
L 120.571812 156.738758 
L 121.036887 156.738758 
L 121.036887 151.471897 
L 121.712041 151.471897 
L 121.712041 146.205037 
L 122.148045 146.205037 
L 122.148045 140.938176 
L 122.573415 140.938176 
L 122.573415 135.671315 
L 123.394238 135.671315 
L 123.394238 130.404454 
L 123.790603 130.404454 
L 123.790603 125.137593 
L 124.178158 125.137593 
L 124.178158 119.870733 
L 124.557288 119.870733 
L 124.557288 114.603872 
L 124.92835 114.603872 
L 124.92835 109.337011 
L 125.470548 109.337011 
L 125.470548 104.07015 
L 125.822869 104.07015 
L 125.822869 98.803289 
L 126.168212 98.803289 
L 126.168212 93.536429 
L 126.50685 93.536429 
L 126.50685 88.269568 
L 127.165014 88.269568 
L 127.165014 83.002707 
L 127.799239 83.002707 
L 127.799239 77.735846 
L 128.107907 77.735846 
L 128.107907 72.468985 
L 128.411207 72.468985 
L 128.411207 67.202125 
L 128.709321 67.202125 
L 128.709321 61.935264 
L 129.290685 61.935264 
L 129.290685 56.668403 
L 129.574256 56.668403 
L 129.574256 51.401542 
L 129.991152 51.401542 
L 129.991152 46.134681 
L 130.127931 46.134681 
L 130.127931 40.867821 
L 130.398313 40.867821 
L 130.398313 35.60096 
L 130.796184 35.60096 
L 130.796184 30.334099 
L 338.688 30.334099 
" style="fill:none;stroke:#f5deb3;stroke-linecap:square;stroke-width:4;"/>
   </g>
   <g id="line2d_2">
    <defs>
     <path d="M 0 7.778175 
L 7.778175 0 
L 0 -7.778175 
L -7.778175 0 
z
" id="m8d2adf0696" style="stroke:#f5deb3;stroke-linejoin:miter;stroke-width:1.5;"/>
    </defs>
    <g>
     <use style="fill:#f5deb3;stroke:#f5deb3;stroke-linejoin:miter;stroke-width:1.5;" x="116.914437" xlink:href="#m8d2adf0696" y="193.606784"/>
     <use style="fill:#f5deb3;stroke:#f5deb3;stroke-linejoin:miter;stroke-width:1.5;" x="129.991152" xlink:href="#m8d2adf0696" y="46.134681"/>
     <use style="fill:#f5deb3;stroke:#f5deb3;stroke-linejoin:miter;stroke-width:1.5;" x="130.796184" xlink:href="#m8d2adf0696" y="30.334099"/>
     <use style="fill:#f5deb3;stroke:#f5deb3;stroke-linejoin:miter;stroke-width:1.5;" x="130.796184" xlink:href="#m8d2adf0696" y="30.334099"/>
     <use style="fill:#f5deb3;stroke:#f5deb3;stroke-linejoin:miter;stroke-width:1.5;" x="338.688" xlink:href="#m8d2adf0696" y="30.334099"/>
    </g>
   </g>
   <g id="line2d_3">
    <path style="fill:none;stroke:#f5deb3;stroke-linecap:square;stroke-width:4;"/>
    <g/>
   </g>
   <g id="line2d_4">
    <path d="M 338.688 30.334099 
L 369.60768 35.706297 
" style="fill:none;stroke:#f5deb3;stroke-linecap:square;stroke-width:4;"/>
    <g>
     <use style="fill:#f5deb3;stroke:#f5deb3;stroke-linejoin:miter;stroke-width:1.5;" x="338.688" xlink:href="#m8d2adf0696" y="30.334099"/>
     <use style="fill:#f5deb3;stroke:#f5deb3;stroke-linejoin:miter;stroke-width:1.5;" x="369.60768" xlink:href="#m8d2adf0696" y="35.706297"/>
    </g>
   </g>
   <g id="matplotlib.axis_1">
    <g id="xtick_1">
     <g id="line2d_5">
      <path clip-path="url(#p3c0e9d1549)" d="M 57.6 298.944 
L 57.6 27.648 
" style="fill:none;stroke:#b0b0b0;stroke-linecap:square;stroke-width:0.8;"/>
     </g>
     <g id="line2d_6">
      <defs>
       <path d="M 0 0 
L 0 3.5 
" id="md58ee1f775" style="stroke:#000000;stroke-width:0.8;"/>
      </defs>
      <g>
       <use style="stroke:#000000;stroke-width:0.8;" x="57.6" xlink:href="#md58ee1f775" y="298.944"/>
      </g>
     </g>
     <g id="text_1">
      <!-- 0 -->
      <g transform="translate(51.2375 321.140875)scale(0.2 -0.2)">
       <defs>
        <path d="M 2034 4250 
Q 1547 4250 1301 3770 
Q 1056 3291 1056 2328 
Q 1056 1369 1301 889 
Q 1547 409 2034 409 
Q 2525 409 2770 889 
Q 3016 1369 3016 2328 
Q 3016 3291 2770 3770 
Q 2525 4250 2034 4250 
z
M 2034 4750 
Q 2819 4750 3233 4129 
Q 3647 3509 3647 2328 
Q 3647 1150 3233 529 
Q 2819 -91 2034 -91 
Q 1250 -91 836 529 
Q 422 1150 422 2328 
Q 422 3509 836 4129 
Q 1250 4750 2034 4750 
z
" id="DejaVuSans-30" transform="scale(0.015625)"/>
       </defs>
       <use xlink:href="#DejaVuSans-30"/>
      </g>
     </g>
    </g>
    <g id="xtick_2">
     <g id="line2d_7">
      <path clip-path="url(#p3c0e9d1549)" d="M 137.910857 298.944 
L 137.910857 27.648 
" style="fill:none;stroke:#b0b0b0;stroke-linecap:square;stroke-width:0.8;"/>
     </g>
     <g id="line2d_8">
      <g>
       <use style="stroke:#000000;stroke-width:0.8;" x="137.910857" xlink:href="#md58ee1f775" y="298.944"/>
      </g>
     </g>
     <g id="text_2">
      <!-- 2 -->
      <g transform="translate(131.548357 321.140875)scale(0.2 -0.2)">
       <defs>
        <path d="M 1228 531 
L 3431 531 
L 3431 0 
L 469 0 
L 469 531 
Q 828 903 1448 1529 
Q 2069 2156 2228 2338 
Q 2531 2678 2651 2914 
Q 2772 3150 2772 3378 
Q 2772 3750 2511 3984 
Q 2250 4219 1831 4219 
Q 1534 4219 1204 4116 
Q 875 4013 500 3803 
L 500 4441 
Q 881 4594 1212 4672 
Q 1544 4750 1819 4750 
Q 2544 4750 2975 4387 
Q 3406 4025 3406 3419 
Q 3406 3131 3298 2873 
Q 3191 2616 2906 2266 
Q 2828 2175 2409 1742 
Q 1991 1309 1228 531 
z
" id="DejaVuSans-32" transform="scale(0.015625)"/>
       </defs>
       <use xlink:href="#DejaVuSans-32"/>
      </g>
     </g>
    </g>
    <g id="xtick_3">
     <g id="line2d_9">
      <path clip-path="url(#p3c0e9d1549)" d="M 218.221714 298.944 
L 218.221714 27.648 
" style="fill:none;stroke:#b0b0b0;stroke-linecap:square;stroke-width:0.8;"/>
     </g>
     <g id="line2d_10">
      <g>
       <use style="stroke:#000000;stroke-width:0.8;" x="218.221714" xlink:href="#md58ee1f775" y="298.944"/>
      </g>
     </g>
     <g id="text_3">
      <!-- 4 -->
      <g transform="translate(211.859214 321.140875)scale(0.2 -0.2)">
       <defs>
        <path d="M 2419 4116 
L 825 1625 
L 2419 1625 
L 2419 4116 
z
M 2253 4666 
L 3047 4666 
L 3047 1625 
L 3713 1625 
L 3713 1100 
L 3047 1100 
L 3047 0 
L 2419 0 
L 2419 1100 
L 313 1100 
L 313 1709 
L 2253 4666 
z
" id="DejaVuSans-34" transform="scale(0.015625)"/>
       </defs>
       <use xlink:href="#DejaVuSans-34"/>
      </g>
     </g>
    </g>
    <g id="xtick_4">
     <g id="line2d_11">
      <path clip-path="url(#p3c0e9d1549)" d="M 298.532571 298.944 
L 298.532571 27.648 
" style="fill:none;stroke:#b0b0b0;stroke-linecap:square;stroke-width:0.8;"/>
     </g>
     <g id="line2d_12">
      <g>
       <use style="stroke:#000000;stroke-width:0.8;" x="298.532571" xlink:href="#md58ee1f775" y="298.944"/>
      </g>
     </g>
     <g id="text_4">
      <!-- 6 -->
      <g transform="translate(292.170071 321.140875)scale(0.2 -0.2)">
       <defs>
        <path d="M 2113 2584 
Q 1688 2584 1439 2293 
Q 1191 2003 1191 1497 
Q 1191 994 1439 701 
Q 1688 409 2113 409 
Q 2538 409 2786 701 
Q 3034 994 3034 1497 
Q 3034 2003 2786 2293 
Q 2538 2584 2113 2584 
z
M 3366 4563 
L 3366 3988 
Q 3128 4100 2886 4159 
Q 2644 4219 2406 4219 
Q 1781 4219 1451 3797 
Q 1122 3375 1075 2522 
Q 1259 2794 1537 2939 
Q 1816 3084 2150 3084 
Q 2853 3084 3261 2657 
Q 3669 2231 3669 1497 
Q 3669 778 3244 343 
Q 2819 -91 2113 -91 
Q 1303 -91 875 529 
Q 447 1150 447 2328 
Q 447 3434 972 4092 
Q 1497 4750 2381 4750 
Q 2619 4750 2861 4703 
Q 3103 4656 3366 4563 
z
" id="DejaVuSans-36" transform="scale(0.015625)"/>
       </defs>
       <use xlink:href="#DejaVuSans-36"/>
      </g>
     </g>
    </g>
    <g id="xtick_5">
     <g id="line2d_13">
      <path clip-path="url(#p3c0e9d1549)" d="M 97.755429 298.944 
L 97.755429 27.648 
" style="fill:none;stroke:#b0b0b0;stroke-linecap:square;stroke-width:0.8;"/>
     </g>
     <g id="line2d_14">
      <defs>
       <path d="M 0 0 
L 0 2 
" id="m720d745085" style="stroke:#000000;stroke-width:0.6;"/>
      </defs>
      <g>
       <use style="stroke:#000000;stroke-width:0.6;" x="97.755429" xlink:href="#m720d745085" y="298.944"/>
      </g>
     </g>
    </g>
    <g id="xtick_6">
     <g id="line2d_15">
      <path clip-path="url(#p3c0e9d1549)" d="M 178.066286 298.944 
L 178.066286 27.648 
" style="fill:none;stroke:#b0b0b0;stroke-linecap:square;stroke-width:0.8;"/>
     </g>
     <g id="line2d_16">
      <g>
       <use style="stroke:#000000;stroke-width:0.6;" x="178.066286" xlink:href="#m720d745085" y="298.944"/>
      </g>
     </g>
    </g>
    <g id="xtick_7">
     <g id="line2d_17">
      <path clip-path="url(#p3c0e9d1549)" d="M 258.377143 298.944 
L 258.377143 27.648 
" style="fill:none;stroke:#b0b0b0;stroke-linecap:square;stroke-width:0.8;"/>
     </g>
     <g id="line2d_18">
      <g>
       <use style="stroke:#000000;stroke-width:0.6;" x="258.377143" xlink:href="#m720d745085" y="298.944"/>
      </g>
     </g>
    </g>
    <g id="xtick_8">
     <g id="line2d_19">
      <path clip-path="url(#p3c0e9d1549)" d="M 338.688 298.944 
L 338.688 27.648 
" style="fill:none;stroke:#b0b0b0;stroke-linecap:square;stroke-width:0.8;"/>
     </g>
     <g id="line2d_20">
      <g>
       <use style="stroke:#000000;stroke-width:0.6;" x="338.688" xlink:href="#m720d745085" y="298.944"/>
      </g>
     </g>
    </g>
    <g id="text_5">
     <!-- log10(# f-evals / dimension) -->
     <g transform="translate(77.764078 342.217594)scale(0.17 -0.17)">
      <defs>
       <path d="M 603 4863 
L 1178 4863 
L 1178 0 
L 603 0 
L 603 4863 
z
" id="DejaVuSans-6c" transform="scale(0.015625)"/>
       <path d="M 1959 3097 
Q 1497 3097 1228 2736 
Q 959 2375 959 1747 
Q 959 1119 1226 758 
Q 1494 397 1959 397 
Q 2419 397 2687 759 
Q 2956 1122 2956 1747 
Q 2956 2369 2687 2733 
Q 2419 3097 1959 3097 
z
M 1959 3584 
Q 2709 3584 3137 3096 
Q 3566 2609 3566 1747 
Q 3566 888 3137 398 
Q 2709 -91 1959 -91 
Q 1206 -91 779 398 
Q 353 888 353 1747 
Q 353 2609 779 3096 
Q 1206 3584 1959 3584 
z
" id="DejaVuSans-6f" transform="scale(0.015625)"/>
       <path d="M 2906 1791 
Q 2906 2416 2648 2759 
Q 2391 3103 1925 3103 
Q 1463 3103 1205 2759 
Q 947 2416 947 1791 
Q 947 1169 1205 825 
Q 1463 481 1925 481 
Q 2391 481 2648 825 
Q 2906 1169 2906 1791 
z
M 3481 434 
Q 3481 -459 3084 -895 
Q 2688 -1331 1869 -1331 
Q 1566 -1331 1297 -1286 
Q 1028 -1241 775 -1147 
L 775 -588 
Q 1028 -725 1275 -790 
Q 1522 -856 1778 -856 
Q 2344 -856 2625 -561 
Q 2906 -266 2906 331 
L 2906 616 
Q 2728 306 2450 153 
Q 2172 0 1784 0 
Q 1141 0 747 490 
Q 353 981 353 1791 
Q 353 2603 747 3093 
Q 1141 3584 1784 3584 
Q 2172 3584 2450 3431 
Q 2728 3278 2906 2969 
L 2906 3500 
L 3481 3500 
L 3481 434 
z
" id="DejaVuSans-67" transform="scale(0.015625)"/>
       <path d="M 794 531 
L 1825 531 
L 1825 4091 
L 703 3866 
L 703 4441 
L 1819 4666 
L 2450 4666 
L 2450 531 
L 3481 531 
L 3481 0 
L 794 0 
L 794 531 
z
" id="DejaVuSans-31" transform="scale(0.015625)"/>
       <path d="M 1984 4856 
Q 1566 4138 1362 3434 
Q 1159 2731 1159 2009 
Q 1159 1288 1364 580 
Q 1569 -128 1984 -844 
L 1484 -844 
Q 1016 -109 783 600 
Q 550 1309 550 2009 
Q 550 2706 781 3412 
Q 1013 4119 1484 4856 
L 1984 4856 
z
" id="DejaVuSans-28" transform="scale(0.015625)"/>
       <path d="M 3272 2816 
L 2363 2816 
L 2100 1772 
L 3016 1772 
L 3272 2816 
z
M 2803 4594 
L 2478 3297 
L 3391 3297 
L 3719 4594 
L 4219 4594 
L 3897 3297 
L 4872 3297 
L 4872 2816 
L 3775 2816 
L 3519 1772 
L 4513 1772 
L 4513 1294 
L 3397 1294 
L 3072 0 
L 2572 0 
L 2894 1294 
L 1978 1294 
L 1656 0 
L 1153 0 
L 1478 1294 
L 494 1294 
L 494 1772 
L 1594 1772 
L 1856 2816 
L 850 2816 
L 850 3297 
L 1978 3297 
L 2297 4594 
L 2803 4594 
z
" id="DejaVuSans-23" transform="scale(0.015625)"/>
       <path id="DejaVuSans-20" transform="scale(0.015625)"/>
       <path d="M 2375 4863 
L 2375 4384 
L 1825 4384 
Q 1516 4384 1395 4259 
Q 1275 4134 1275 3809 
L 1275 3500 
L 2222 3500 
L 2222 3053 
L 1275 3053 
L 1275 0 
L 697 0 
L 697 3053 
L 147 3053 
L 147 3500 
L 697 3500 
L 697 3744 
Q 697 4328 969 4595 
Q 1241 4863 1831 4863 
L 2375 4863 
z
" id="DejaVuSans-66" transform="scale(0.015625)"/>
       <path d="M 313 2009 
L 1997 2009 
L 1997 1497 
L 313 1497 
L 313 2009 
z
" id="DejaVuSans-2d" transform="scale(0.015625)"/>
       <path d="M 3597 1894 
L 3597 1613 
L 953 1613 
Q 991 1019 1311 708 
Q 1631 397 2203 397 
Q 2534 397 2845 478 
Q 3156 559 3463 722 
L 3463 178 
Q 3153 47 2828 -22 
Q 2503 -91 2169 -91 
Q 1331 -91 842 396 
Q 353 884 353 1716 
Q 353 2575 817 3079 
Q 1281 3584 2069 3584 
Q 2775 3584 3186 3129 
Q 3597 2675 3597 1894 
z
M 3022 2063 
Q 3016 2534 2758 2815 
Q 2500 3097 2075 3097 
Q 1594 3097 1305 2825 
Q 1016 2553 972 2059 
L 3022 2063 
z
" id="DejaVuSans-65" transform="scale(0.015625)"/>
       <path d="M 191 3500 
L 800 3500 
L 1894 563 
L 2988 3500 
L 3597 3500 
L 2284 0 
L 1503 0 
L 191 3500 
z
" id="DejaVuSans-76" transform="scale(0.015625)"/>
       <path d="M 2194 1759 
Q 1497 1759 1228 1600 
Q 959 1441 959 1056 
Q 959 750 1161 570 
Q 1363 391 1709 391 
Q 2188 391 2477 730 
Q 2766 1069 2766 1631 
L 2766 1759 
L 2194 1759 
z
M 3341 1997 
L 3341 0 
L 2766 0 
L 2766 531 
Q 2569 213 2275 61 
Q 1981 -91 1556 -91 
Q 1019 -91 701 211 
Q 384 513 384 1019 
Q 384 1609 779 1909 
Q 1175 2209 1959 2209 
L 2766 2209 
L 2766 2266 
Q 2766 2663 2505 2880 
Q 2244 3097 1772 3097 
Q 1472 3097 1187 3025 
Q 903 2953 641 2809 
L 641 3341 
Q 956 3463 1253 3523 
Q 1550 3584 1831 3584 
Q 2591 3584 2966 3190 
Q 3341 2797 3341 1997 
z
" id="DejaVuSans-61" transform="scale(0.015625)"/>
       <path d="M 2834 3397 
L 2834 2853 
Q 2591 2978 2328 3040 
Q 2066 3103 1784 3103 
Q 1356 3103 1142 2972 
Q 928 2841 928 2578 
Q 928 2378 1081 2264 
Q 1234 2150 1697 2047 
L 1894 2003 
Q 2506 1872 2764 1633 
Q 3022 1394 3022 966 
Q 3022 478 2636 193 
Q 2250 -91 1575 -91 
Q 1294 -91 989 -36 
Q 684 19 347 128 
L 347 722 
Q 666 556 975 473 
Q 1284 391 1588 391 
Q 1994 391 2212 530 
Q 2431 669 2431 922 
Q 2431 1156 2273 1281 
Q 2116 1406 1581 1522 
L 1381 1569 
Q 847 1681 609 1914 
Q 372 2147 372 2553 
Q 372 3047 722 3315 
Q 1072 3584 1716 3584 
Q 2034 3584 2315 3537 
Q 2597 3491 2834 3397 
z
" id="DejaVuSans-73" transform="scale(0.015625)"/>
       <path d="M 1625 4666 
L 2156 4666 
L 531 -594 
L 0 -594 
L 1625 4666 
z
" id="DejaVuSans-2f" transform="scale(0.015625)"/>
       <path d="M 2906 2969 
L 2906 4863 
L 3481 4863 
L 3481 0 
L 2906 0 
L 2906 525 
Q 2725 213 2448 61 
Q 2172 -91 1784 -91 
Q 1150 -91 751 415 
Q 353 922 353 1747 
Q 353 2572 751 3078 
Q 1150 3584 1784 3584 
Q 2172 3584 2448 3432 
Q 2725 3281 2906 2969 
z
M 947 1747 
Q 947 1113 1208 752 
Q 1469 391 1925 391 
Q 2381 391 2643 752 
Q 2906 1113 2906 1747 
Q 2906 2381 2643 2742 
Q 2381 3103 1925 3103 
Q 1469 3103 1208 2742 
Q 947 2381 947 1747 
z
" id="DejaVuSans-64" transform="scale(0.015625)"/>
       <path d="M 603 3500 
L 1178 3500 
L 1178 0 
L 603 0 
L 603 3500 
z
M 603 4863 
L 1178 4863 
L 1178 4134 
L 603 4134 
L 603 4863 
z
" id="DejaVuSans-69" transform="scale(0.015625)"/>
       <path d="M 3328 2828 
Q 3544 3216 3844 3400 
Q 4144 3584 4550 3584 
Q 5097 3584 5394 3201 
Q 5691 2819 5691 2113 
L 5691 0 
L 5113 0 
L 5113 2094 
Q 5113 2597 4934 2840 
Q 4756 3084 4391 3084 
Q 3944 3084 3684 2787 
Q 3425 2491 3425 1978 
L 3425 0 
L 2847 0 
L 2847 2094 
Q 2847 2600 2669 2842 
Q 2491 3084 2119 3084 
Q 1678 3084 1418 2786 
Q 1159 2488 1159 1978 
L 1159 0 
L 581 0 
L 581 3500 
L 1159 3500 
L 1159 2956 
Q 1356 3278 1631 3431 
Q 1906 3584 2284 3584 
Q 2666 3584 2933 3390 
Q 3200 3197 3328 2828 
z
" id="DejaVuSans-6d" transform="scale(0.015625)"/>
       <path d="M 3513 2113 
L 3513 0 
L 2938 0 
L 2938 2094 
Q 2938 2591 2744 2837 
Q 2550 3084 2163 3084 
Q 1697 3084 1428 2787 
Q 1159 2491 1159 1978 
L 1159 0 
L 581 0 
L 581 3500 
L 1159 3500 
L 1159 2956 
Q 1366 3272 1645 3428 
Q 1925 3584 2291 3584 
Q 2894 3584 3203 3211 
Q 3513 2838 3513 2113 
z
" id="DejaVuSans-6e" transform="scale(0.015625)"/>
       <path d="M 513 4856 
L 1013 4856 
Q 1481 4119 1714 3412 
Q 1947 2706 1947 2009 
Q 1947 1309 1714 600 
Q 1481 -109 1013 -844 
L 513 -844 
Q 928 -128 1133 580 
Q 1338 1288 1338 2009 
Q 1338 2731 1133 3434 
Q 928 4138 513 4856 
z
" id="DejaVuSans-29" transform="scale(0.015625)"/>
      </defs>
      <use xlink:href="#DejaVuSans-6c"/>
      <use x="27.783203" xlink:href="#DejaVuSans-6f"/>
      <use x="88.964844" xlink:href="#DejaVuSans-67"/>
      <use x="152.441406" xlink:href="#DejaVuSans-31"/>
      <use x="216.064453" xlink:href="#DejaVuSans-30"/>
      <use x="279.6875" xlink:href="#DejaVuSans-28"/>
      <use x="318.701172" xlink:href="#DejaVuSans-23"/>
      <use x="402.490234" xlink:href="#DejaVuSans-20"/>
      <use x="434.277344" xlink:href="#DejaVuSans-66"/>
      <use x="463.982422" xlink:href="#DejaVuSans-2d"/>
      <use x="500.066406" xlink:href="#DejaVuSans-65"/>
      <use x="561.589844" xlink:href="#DejaVuSans-76"/>
      <use x="620.769531" xlink:href="#DejaVuSans-61"/>
      <use x="682.048828" xlink:href="#DejaVuSans-6c"/>
      <use x="709.832031" xlink:href="#DejaVuSans-73"/>
      <use x="761.931641" xlink:href="#DejaVuSans-20"/>
      <use x="793.71875" xlink:href="#DejaVuSans-2f"/>
      <use x="827.410156" xlink:href="#DejaVuSans-20"/>
      <use x="859.197266" xlink:href="#DejaVuSans-64"/>
      <use x="922.673828" xlink:href="#DejaVuSans-69"/>
      <use x="950.457031" xlink:href="#DejaVuSans-6d"/>
      <use x="1047.869141" xlink:href="#DejaVuSans-65"/>
      <use x="1109.392578" xlink:href="#DejaVuSans-6e"/>
      <use x="1172.771484" xlink:href="#DejaVuSans-73"/>
      <use x="1224.871094" xlink:href="#DejaVuSans-69"/>
      <use x="1252.654297" xlink:href="#DejaVuSans-6f"/>
      <use x="1313.835938" xlink:href="#DejaVuSans-6e"/>
      <use x="1377.214844" xlink:href="#DejaVuSans-29"/>
     </g>
    </g>
   </g>
   <g id="matplotlib.axis_2">
    <g id="ytick_1">
     <g id="line2d_21">
      <path clip-path="url(#p3c0e9d1549)" d="M 57.6 298.944 
L 338.688 298.944 
" style="fill:none;stroke:#b0b0b0;stroke-linecap:square;stroke-width:0.8;"/>
     </g>
     <g id="line2d_22">
      <defs>
       <path d="M 0 0 
L -3.5 0 
" id="m9e9b072816" style="stroke:#000000;stroke-width:0.8;"/>
      </defs>
      <g>
       <use style="stroke:#000000;stroke-width:0.8;" x="57.6" xlink:href="#m9e9b072816" y="298.944"/>
      </g>
     </g>
     <g id="text_6">
      <!-- 0.0 -->
      <g transform="translate(25.155 305.02275)scale(0.16 -0.16)">
       <defs>
        <path d="M 684 794 
L 1344 794 
L 1344 0 
L 684 0 
L 684 794 
z
" id="DejaVuSans-2e" transform="scale(0.015625)"/>
       </defs>
       <use xlink:href="#DejaVuSans-30"/>
       <use x="63.623047" xlink:href="#DejaVuSans-2e"/>
       <use x="95.410156" xlink:href="#DejaVuSans-30"/>
      </g>
     </g>
    </g>
    <g id="ytick_2">
     <g id="line2d_23">
      <path clip-path="url(#p3c0e9d1549)" d="M 57.6 245.22202 
L 338.688 245.22202 
" style="fill:none;stroke:#b0b0b0;stroke-linecap:square;stroke-width:0.8;"/>
     </g>
     <g id="line2d_24">
      <g>
       <use style="stroke:#000000;stroke-width:0.8;" x="57.6" xlink:href="#m9e9b072816" y="245.22202"/>
      </g>
     </g>
     <g id="text_7">
      <!-- 0.2 -->
      <g transform="translate(25.155 251.30077)scale(0.16 -0.16)">
       <use xlink:href="#DejaVuSans-30"/>
       <use x="63.623047" xlink:href="#DejaVuSans-2e"/>
       <use x="95.410156" xlink:href="#DejaVuSans-32"/>
      </g>
     </g>
    </g>
    <g id="ytick_3">
     <g id="line2d_25">
      <path clip-path="url(#p3c0e9d1549)" d="M 57.6 191.50004 
L 338.688 191.50004 
" style="fill:none;stroke:#b0b0b0;stroke-linecap:square;stroke-width:0.8;"/>
     </g>
     <g id="line2d_26">
      <g>
       <use style="stroke:#000000;stroke-width:0.8;" x="57.6" xlink:href="#m9e9b072816" y="191.50004"/>
      </g>
     </g>
     <g id="text_8">
      <!-- 0.4 -->
      <g transform="translate(25.155 197.57879)scale(0.16 -0.16)">
       <use xlink:href="#DejaVuSans-30"/>
       <use x="63.623047" xlink:href="#DejaVuSans-2e"/>
       <use x="95.410156" xlink:href="#DejaVuSans-34"/>
      </g>
     </g>
    </g>
    <g id="ytick_4">
     <g id="line2d_27">
      <path clip-path="url(#p3c0e9d1549)" d="M 57.6 137.778059 
L 338.688 137.778059 
" style="fill:none;stroke:#b0b0b0;stroke-linecap:square;stroke-width:0.8;"/>
     </g>
     <g id="line2d_28">
      <g>
       <use style="stroke:#000000;stroke-width:0.8;" x="57.6" xlink:href="#m9e9b072816" y="137.778059"/>
      </g>
     </g>
     <g id="text_9">
      <!-- 0.6 -->
      <g transform="translate(25.155 143.856809)scale(0.16 -0.16)">
       <use xlink:href="#DejaVuSans-30"/>
       <use x="63.623047" xlink:href="#DejaVuSans-2e"/>
       <use x="95.410156" xlink:href="#DejaVuSans-36"/>
      </g>
     </g>
    </g>
    <g id="ytick_5">
     <g id="line2d_29">
      <path clip-path="url(#p3c0e9d1549)" d="M 57.6 84.056079 
L 338.688 84.056079 
" style="fill:none;stroke:#b0b0b0;stroke-linecap:square;stroke-width:0.8;"/>
     </g>
     <g id="line2d_30">
      <g>
       <use style="stroke:#000000;stroke-width:0.8;" x="57.6" xlink:href="#m9e9b072816" y="84.056079"/>
      </g>
     </g>
     <g id="text_10">
      <!-- 0.8 -->
      <g transform="translate(25.155 90.134829)scale(0.16 -0.16)">
       <defs>
        <path d="M 2034 2216 
Q 1584 2216 1326 1975 
Q 1069 1734 1069 1313 
Q 1069 891 1326 650 
Q 1584 409 2034 409 
Q 2484 409 2743 651 
Q 3003 894 3003 1313 
Q 3003 1734 2745 1975 
Q 2488 2216 2034 2216 
z
M 1403 2484 
Q 997 2584 770 2862 
Q 544 3141 544 3541 
Q 544 4100 942 4425 
Q 1341 4750 2034 4750 
Q 2731 4750 3128 4425 
Q 3525 4100 3525 3541 
Q 3525 3141 3298 2862 
Q 3072 2584 2669 2484 
Q 3125 2378 3379 2068 
Q 3634 1759 3634 1313 
Q 3634 634 3220 271 
Q 2806 -91 2034 -91 
Q 1263 -91 848 271 
Q 434 634 434 1313 
Q 434 1759 690 2068 
Q 947 2378 1403 2484 
z
M 1172 3481 
Q 1172 3119 1398 2916 
Q 1625 2713 2034 2713 
Q 2441 2713 2670 2916 
Q 2900 3119 2900 3481 
Q 2900 3844 2670 4047 
Q 2441 4250 2034 4250 
Q 1625 4250 1398 4047 
Q 1172 3844 1172 3481 
z
" id="DejaVuSans-38" transform="scale(0.015625)"/>
       </defs>
       <use xlink:href="#DejaVuSans-30"/>
       <use x="63.623047" xlink:href="#DejaVuSans-2e"/>
       <use x="95.410156" xlink:href="#DejaVuSans-38"/>
      </g>
     </g>
    </g>
    <g id="ytick_6">
     <g id="line2d_31">
      <path clip-path="url(#p3c0e9d1549)" d="M 57.6 30.334099 
L 338.688 30.334099 
" style="fill:none;stroke:#b0b0b0;stroke-linecap:square;stroke-width:0.8;"/>
     </g>
     <g id="line2d_32">
      <g>
       <use style="stroke:#000000;stroke-width:0.8;" x="57.6" xlink:href="#m9e9b072816" y="30.334099"/>
      </g>
     </g>
     <g id="text_11">
      <!-- 1.0 -->
      <g transform="translate(25.155 36.412849)scale(0.16 -0.16)">
       <use xlink:href="#DejaVuSans-31"/>
       <use x="63.623047" xlink:href="#DejaVuSans-2e"/>
       <use x="95.410156" xlink:href="#DejaVuSans-30"/>
      </g>
     </g>
    </g>
    <g id="text_12">
     <!-- Fraction of function,target pairs -->
     <g transform="translate(17.619531 297.681)rotate(-90)scale(0.17 -0.17)">
      <defs>
       <path d="M 628 4666 
L 3309 4666 
L 3309 4134 
L 1259 4134 
L 1259 2759 
L 3109 2759 
L 3109 2228 
L 1259 2228 
L 1259 0 
L 628 0 
L 628 4666 
z
" id="DejaVuSans-46" transform="scale(0.015625)"/>
       <path d="M 2631 2963 
Q 2534 3019 2420 3045 
Q 2306 3072 2169 3072 
Q 1681 3072 1420 2755 
Q 1159 2438 1159 1844 
L 1159 0 
L 581 0 
L 581 3500 
L 1159 3500 
L 1159 2956 
Q 1341 3275 1631 3429 
Q 1922 3584 2338 3584 
Q 2397 3584 2469 3576 
Q 2541 3569 2628 3553 
L 2631 2963 
z
" id="DejaVuSans-72" transform="scale(0.015625)"/>
       <path d="M 3122 3366 
L 3122 2828 
Q 2878 2963 2633 3030 
Q 2388 3097 2138 3097 
Q 1578 3097 1268 2742 
Q 959 2388 959 1747 
Q 959 1106 1268 751 
Q 1578 397 2138 397 
Q 2388 397 2633 464 
Q 2878 531 3122 666 
L 3122 134 
Q 2881 22 2623 -34 
Q 2366 -91 2075 -91 
Q 1284 -91 818 406 
Q 353 903 353 1747 
Q 353 2603 823 3093 
Q 1294 3584 2113 3584 
Q 2378 3584 2631 3529 
Q 2884 3475 3122 3366 
z
" id="DejaVuSans-63" transform="scale(0.015625)"/>
       <path d="M 1172 4494 
L 1172 3500 
L 2356 3500 
L 2356 3053 
L 1172 3053 
L 1172 1153 
Q 1172 725 1289 603 
Q 1406 481 1766 481 
L 2356 481 
L 2356 0 
L 1766 0 
Q 1100 0 847 248 
Q 594 497 594 1153 
L 594 3053 
L 172 3053 
L 172 3500 
L 594 3500 
L 594 4494 
L 1172 4494 
z
" id="DejaVuSans-74" transform="scale(0.015625)"/>
       <path d="M 544 1381 
L 544 3500 
L 1119 3500 
L 1119 1403 
Q 1119 906 1312 657 
Q 1506 409 1894 409 
Q 2359 409 2629 706 
Q 2900 1003 2900 1516 
L 2900 3500 
L 3475 3500 
L 3475 0 
L 2900 0 
L 2900 538 
Q 2691 219 2414 64 
Q 2138 -91 1772 -91 
Q 1169 -91 856 284 
Q 544 659 544 1381 
z
M 1991 3584 
L 1991 3584 
z
" id="DejaVuSans-75" transform="scale(0.015625)"/>
       <path d="M 750 794 
L 1409 794 
L 1409 256 
L 897 -744 
L 494 -744 
L 750 256 
L 750 794 
z
" id="DejaVuSans-2c" transform="scale(0.015625)"/>
       <path d="M 1159 525 
L 1159 -1331 
L 581 -1331 
L 581 3500 
L 1159 3500 
L 1159 2969 
Q 1341 3281 1617 3432 
Q 1894 3584 2278 3584 
Q 2916 3584 3314 3078 
Q 3713 2572 3713 1747 
Q 3713 922 3314 415 
Q 2916 -91 2278 -91 
Q 1894 -91 1617 61 
Q 1341 213 1159 525 
z
M 3116 1747 
Q 3116 2381 2855 2742 
Q 2594 3103 2138 3103 
Q 1681 3103 1420 2742 
Q 1159 2381 1159 1747 
Q 1159 1113 1420 752 
Q 1681 391 2138 391 
Q 2594 391 2855 752 
Q 3116 1113 3116 1747 
z
" id="DejaVuSans-70" transform="scale(0.015625)"/>
      </defs>
      <use xlink:href="#DejaVuSans-46"/>
      <use x="50.269531" xlink:href="#DejaVuSans-72"/>
      <use x="91.382812" xlink:href="#DejaVuSans-61"/>
      <use x="152.662109" xlink:href="#DejaVuSans-63"/>
      <use x="207.642578" xlink:href="#DejaVuSans-74"/>
      <use x="246.851562" xlink:href="#DejaVuSans-69"/>
      <use x="274.634766" xlink:href="#DejaVuSans-6f"/>
      <use x="335.816406" xlink:href="#DejaVuSans-6e"/>
      <use x="399.195312" xlink:href="#DejaVuSans-20"/>
      <use x="430.982422" xlink:href="#DejaVuSans-6f"/>
      <use x="492.164062" xlink:href="#DejaVuSans-66"/>
      <use x="527.369141" xlink:href="#DejaVuSans-20"/>
      <use x="559.15625" xlink:href="#DejaVuSans-66"/>
      <use x="594.361328" xlink:href="#DejaVuSans-75"/>
      <use x="657.740234" xlink:href="#DejaVuSans-6e"/>
      <use x="721.119141" xlink:href="#DejaVuSans-63"/>
      <use x="776.099609" xlink:href="#DejaVuSans-74"/>
      <use x="815.308594" xlink:href="#DejaVuSans-69"/>
      <use x="843.091797" xlink:href="#DejaVuSans-6f"/>
      <use x="904.273438" xlink:href="#DejaVuSans-6e"/>
      <use x="967.652344" xlink:href="#DejaVuSans-2c"/>
      <use x="999.439453" xlink:href="#DejaVuSans-74"/>
      <use x="1038.648438" xlink:href="#DejaVuSans-61"/>
      <use x="1099.927734" xlink:href="#DejaVuSans-72"/>
      <use x="1139.291016" xlink:href="#DejaVuSans-67"/>
      <use x="1202.767578" xlink:href="#DejaVuSans-65"/>
      <use x="1264.291016" xlink:href="#DejaVuSans-74"/>
      <use x="1303.5" xlink:href="#DejaVuSans-20"/>
      <use x="1335.287109" xlink:href="#DejaVuSans-70"/>
      <use x="1398.763672" xlink:href="#DejaVuSans-61"/>
      <use x="1460.042969" xlink:href="#DejaVuSans-69"/>
      <use x="1487.826172" xlink:href="#DejaVuSans-72"/>
      <use x="1528.939453" xlink:href="#DejaVuSans-73"/>
     </g>
    </g>
   </g>
   <g id="line2d_33">
    <defs>
     <path d="M 0 1.5 
C 0.397805 1.5 0.77937 1.341951 1.06066 1.06066 
C 1.341951 0.77937 1.5 0.397805 1.5 0 
C 1.5 -0.397805 1.341951 -0.77937 1.06066 -1.06066 
C 0.77937 -1.341951 0.397805 -1.5 0 -1.5 
C -0.397805 -1.5 -0.77937 -1.341951 -1.06066 -1.06066 
C -1.341951 -0.77937 -1.5 -0.397805 -1.5 0 
C -1.5 0.397805 -1.341951 0.77937 -1.06066 1.06066 
C -0.77937 1.341951 -0.397805 1.5 0 1.5 
z
" id="m9576e75630" style="stroke:#f5deb3;"/>
    </defs>
    <g>
     <use style="fill:#f5deb3;stroke:#f5deb3;" x="130.796184" xlink:href="#m9576e75630" y="30.334099"/>
     <use style="fill:#f5deb3;stroke:#f5deb3;" x="130.796184" xlink:href="#m9576e75630" y="30.334099"/>
    </g>
   </g>
   <g id="line2d_34">
    <defs>
     <path d="M 0 1.5 
C 0.397805 1.5 0.77937 1.341951 1.06066 1.06066 
C 1.341951 0.77937 1.5 0.397805 1.5 0 
C 1.5 -0.397805 1.341951 -0.77937 1.06066 -1.06066 
C 0.77937 -1.341951 0.397805 -1.5 0 -1.5 
C -0.397805 -1.5 -0.77937 -1.341951 -1.06066 -1.06066 
C -1.341951 -0.77937 -1.5 -0.397805 -1.5 0 
C -1.5 0.397805 -1.341951 0.77937 -1.06066 1.06066 
C -0.77937 1.341951 -0.397805 1.5 0 1.5 
z
" id="m798f88baf6" style="stroke:#000080;"/>
    </defs>
    <g>
     <use style="fill:#000080;stroke:#000080;" x="296.159768" xlink:href="#m798f88baf6" y="77.735846"/>
     <use style="fill:#000080;stroke:#000080;" x="296.159768" xlink:href="#m798f88baf6" y="77.735846"/>
    </g>
   </g>
   <g id="line2d_35">
    <path d="M 45.512012 298.944 
L 45.512012 297.363942 
L 57.6 297.363942 
L 57.6 295.783884 
L 64.67102 295.783884 
L 64.67102 293.677139 
L 69.687988 293.677139 
L 69.687988 293.150453 
L 76.759008 293.150453 
L 76.759008 292.097081 
L 83.830028 292.097081 
L 83.830028 291.570395 
L 85.66744 291.570395 
L 85.66744 291.043709 
L 88.846997 291.043709 
L 88.846997 289.990337 
L 90.242884 289.990337 
L 90.242884 288.936964 
L 95.918017 288.936964 
L 95.918017 287.356906 
L 97.755429 287.356906 
L 97.755429 285.776848 
L 98.606294 285.776848 
L 98.606294 282.616732 
L 99.41757 282.616732 
L 99.41757 281.563359 
L 101.646892 281.563359 
L 101.646892 280.509987 
L 103.623262 280.509987 
L 103.623262 279.983301 
L 105.951954 279.983301 
L 105.951954 278.929929 
L 108.948899 278.929929 
L 108.948899 278.403243 
L 110.274038 278.403243 
L 110.274038 277.876557 
L 112.280765 277.876557 
L 112.280765 276.823185 
L 114.080224 276.823185 
L 114.080224 275.243126 
L 115.711251 275.243126 
L 115.711251 274.71644 
L 119.097192 274.71644 
L 119.097192 273.136382 
L 123.985457 273.136382 
L 123.985457 269.449579 
L 124.368753 269.449579 
L 124.368753 268.396207 
L 125.822869 268.396207 
L 125.822869 267.869521 
L 128.709321 267.869521 
L 128.709321 267.342835 
L 130.127931 267.342835 
L 130.127931 266.289463 
L 130.398313 266.289463 
L 130.398313 265.762777 
L 131.439773 265.762777 
L 131.439773 264.709405 
L 139.8092 264.709405 
L 139.8092 263.656033 
L 143.840863 263.656033 
L 143.902815 262.60266 
L 145.270136 262.60266 
L 145.270136 262.075974 
L 145.553708 262.075974 
L 145.553708 261.549288 
L 148.592055 261.549288 
L 148.639252 260.495916 
L 151.219462 260.495916 
L 151.219462 259.96923 
L 151.501723 259.96923 
L 151.501723 258.915858 
L 152.168773 258.915858 
L 152.168773 258.389172 
L 152.283884 258.389172 
L 152.283884 257.3358 
L 152.662192 257.3358 
L 152.699575 256.282427 
L 153.644434 256.282427 
L 153.644434 255.755741 
L 153.855395 255.755741 
L 153.855395 254.702369 
L 154.906477 254.702369 
L 154.906477 254.175683 
L 155.584129 254.175683 
L 155.647315 252.595625 
L 156.114049 252.595625 
L 156.114049 252.068939 
L 157.920731 252.068939 
L 157.920731 251.015567 
L 159.072168 251.015567 
L 159.072168 250.488881 
L 159.226956 250.488881 
L 159.226956 249.962195 
L 160.489968 249.962195 
L 160.489968 247.85545 
L 160.656397 247.85545 
L 160.656397 247.328764 
L 161.007772 247.328764 
L 161.007772 246.802078 
L 162.749842 246.802078 
L 162.749842 245.748706 
L 163.965615 245.748706 
L 163.965615 244.695334 
L 164.991751 244.695334 
L 164.991751 244.168648 
L 165.785402 244.168648 
L 165.855793 243.115275 
L 165.978297 243.115275 
L 165.978297 242.588589 
L 166.357802 242.588589 
L 166.357802 242.061903 
L 166.544502 242.061903 
L 166.544502 241.535217 
L 167.109252 241.535217 
L 167.109252 241.008531 
L 167.320442 241.008531 
L 167.320442 240.481845 
L 167.481174 240.481845 
L 167.481174 237.848415 
L 167.703739 237.848415 
L 167.703739 237.321729 
L 168.566635 237.321729 
L 168.566635 235.74167 
L 168.982583 235.74167 
L 168.982583 235.214984 
L 169.939378 235.214984 
L 169.939378 233.10824 
L 171.327782 233.10824 
L 171.327782 232.054868 
L 172.031987 232.054868 
L 172.105778 230.47481 
L 173.14208 230.47481 
L 173.14208 229.948123 
L 173.643636 229.948123 
L 173.643636 229.421437 
L 174.890216 229.421437 
L 174.890216 228.368065 
L 175.577416 228.368065 
L 175.577416 227.314693 
L 175.807212 227.314693 
L 175.807212 226.788007 
L 176.507601 226.788007 
L 176.545699 224.154577 
L 176.753762 224.154577 
L 176.753762 223.101204 
L 176.977944 223.101204 
L 176.977944 221.521146 
L 177.47206 221.521146 
L 177.47206 220.99446 
L 178.005141 220.99446 
L 178.10983 219.414402 
L 178.496907 219.414402 
L 178.496907 218.887716 
L 179.359921 218.887716 
L 179.359921 218.36103 
L 179.497017 218.36103 
L 179.601132 217.307658 
L 179.917643 217.307658 
L 179.917643 214.674227 
L 180.533936 214.674227 
L 180.533936 214.147541 
L 181.483999 214.147541 
L 181.483999 213.620855 
L 182.8418 213.620855 
L 182.8418 212.040797 
L 184.212165 212.040797 
L 184.212165 210.987425 
L 184.395097 210.987425 
L 184.395097 210.460738 
L 184.522016 210.460738 
L 184.522016 209.934052 
L 184.784985 209.934052 
L 184.784985 209.407366 
L 185.601922 209.407366 
L 185.601922 208.88068 
L 186.576068 208.88068 
L 186.576068 208.353994 
L 186.725304 208.353994 
L 186.725304 206.24725 
L 186.983435 206.24725 
L 187.077307 205.193878 
L 188.156265 205.193878 
L 188.195334 202.560447 
L 188.662206 202.560447 
L 188.662206 202.033761 
L 188.841751 202.033761 
L 188.841751 201.507075 
L 189.757409 201.507075 
L 189.757409 200.980389 
L 189.983407 200.980389 
L 189.983407 199.927017 
L 191.166329 199.927017 
L 191.277055 197.820273 
L 192.397194 197.820273 
L 192.397194 195.186842 
L 192.519441 195.186842 
L 192.519441 194.660156 
L 193.600635 194.660156 
L 193.600635 194.13347 
L 193.881033 194.13347 
L 193.909178 192.553412 
L 194.163923 192.553412 
L 194.163923 192.026726 
L 194.32599 192.026726 
L 194.32599 191.50004 
L 194.540892 191.50004 
L 194.540892 189.919981 
L 195.254968 189.919981 
L 195.254968 189.393295 
L 195.647529 189.393295 
L 195.647529 188.866609 
L 196.721055 188.866609 
L 196.721055 187.813237 
L 197.372902 187.813237 
L 197.372902 185.706493 
L 197.970652 185.706493 
L 197.970652 184.653121 
L 198.31807 184.653121 
L 198.31807 184.126434 
L 198.738834 184.126434 
L 198.738834 183.599748 
L 199.773496 183.599748 
L 199.773496 182.546376 
L 199.886145 182.546376 
L 199.973261 180.966318 
L 200.175672 180.966318 
L 200.175672 180.439632 
L 200.366054 180.439632 
L 200.366054 179.38626 
L 200.95792 179.38626 
L 200.95792 178.859574 
L 201.368384 178.859574 
L 201.368384 178.332888 
L 202.031726 178.332888 
L 202.031726 177.279515 
L 202.213901 177.279515 
L 202.213901 176.752829 
L 202.850622 176.752829 
L 202.92834 175.172771 
L 202.976477 175.172771 
L 202.976477 174.119399 
L 203.485223 174.119399 
L 203.485223 173.066027 
L 203.753138 173.066027 
L 203.816989 170.959282 
L 204.10146 170.959282 
L 204.10146 170.432596 
L 204.280806 170.432596 
L 204.381365 169.379224 
L 205.237372 169.379224 
L 205.237372 168.852538 
L 205.537696 168.852538 
L 205.537696 168.325852 
L 205.683256 168.325852 
L 205.683256 167.799166 
L 206.283062 167.799166 
L 206.32106 166.745794 
L 206.674589 166.745794 
L 206.674589 166.219108 
L 207.248328 166.219108 
L 207.297338 164.63905 
L 209.796285 164.63905 
L 209.796285 164.112363 
L 209.955292 164.112363 
L 210.014024 163.058991 
L 210.343155 163.058991 
L 210.343155 162.005619 
L 211.57153 162.005619 
L 211.654323 160.952247 
L 212.783481 160.952247 
L 212.851239 159.898875 
L 213.946761 159.898875 
L 213.946761 158.845503 
L 214.126332 158.845503 
L 214.126332 158.318817 
L 214.380317 158.318817 
L 214.380317 157.265444 
L 214.568408 157.265444 
L 214.568408 156.738758 
L 215.99041 156.738758 
L 215.99041 156.212072 
L 216.648721 156.212072 
L 216.676373 154.632014 
L 216.924226 154.632014 
L 216.924226 154.105328 
L 217.116659 154.105328 
L 217.116659 153.578642 
L 218.778631 153.578642 
L 218.778631 153.051956 
L 220.057382 153.051956 
L 220.057382 152.52527 
L 220.268789 152.52527 
L 220.275766 151.471897 
L 223.640996 151.471897 
L 223.640996 150.945211 
L 225.279941 150.945211 
L 225.279941 149.365153 
L 225.781673 149.365153 
L 225.781673 148.838467 
L 226.599319 148.838467 
L 226.599319 147.258409 
L 228.138744 147.258409 
L 228.138744 145.678351 
L 228.616055 145.678351 
L 228.616055 145.151665 
L 229.144157 145.151665 
L 229.144157 144.098292 
L 229.319465 144.098292 
L 229.384869 143.04492 
L 230.03019 143.04492 
L 230.03019 142.518234 
L 230.499625 142.518234 
L 230.499625 140.938176 
L 230.939942 140.938176 
L 231.0184 138.831432 
L 231.151846 138.831432 
L 231.151846 138.304745 
L 232.386604 138.304745 
L 232.386604 136.724687 
L 232.586708 136.724687 
L 232.586708 135.671315 
L 235.243966 135.671315 
L 235.243966 135.144629 
L 235.437061 135.144629 
L 235.449403 134.091257 
L 235.888971 134.091257 
L 235.888971 133.564571 
L 236.482839 133.564571 
L 236.482839 133.037885 
L 236.874688 133.037885 
L 236.892632 130.93114 
L 237.094711 130.93114 
L 237.094711 129.877768 
L 237.234493 129.877768 
L 237.306448 127.771024 
L 237.472039 127.771024 
L 237.58013 126.717652 
L 238.078672 126.717652 
L 238.078672 126.190966 
L 238.413061 126.190966 
L 238.413061 125.66428 
L 238.618675 125.66428 
L 238.695665 123.557535 
L 242.899202 123.557535 
L 242.899202 122.504163 
L 243.520063 122.504163 
L 243.520063 121.977477 
L 243.657492 121.977477 
L 243.657492 121.450791 
L 244.133792 121.450791 
L 244.133792 120.924105 
L 244.77028 120.924105 
L 244.831058 119.870733 
L 245.405464 119.870733 
L 245.405464 119.344047 
L 247.064953 119.344047 
L 247.064953 118.817361 
L 247.615791 118.817361 
L 247.677098 117.763988 
L 248.060346 117.763988 
L 248.060346 114.603872 
L 248.335453 114.603872 
L 248.378823 113.5505 
L 248.52195 113.5505 
L 248.52195 113.023814 
L 251.174923 113.023814 
L 251.174923 110.390383 
L 251.879754 110.390383 
L 251.953258 108.810325 
L 252.211463 108.810325 
L 252.211463 108.283639 
L 252.362429 108.283639 
L 252.362429 107.756953 
L 252.838454 107.756953 
L 252.838454 106.703581 
L 253.847078 106.703581 
L 253.847078 106.176895 
L 254.049856 106.176895 
L 254.158255 105.123522 
L 254.167359 105.123522 
L 254.167359 104.596836 
L 254.378974 104.596836 
L 254.449019 103.543464 
L 254.560725 103.543464 
L 254.560725 102.490092 
L 254.750695 102.490092 
L 254.750695 101.963406 
L 256.622179 101.963406 
L 256.622179 101.43672 
L 256.764407 101.43672 
L 256.764407 100.910034 
L 257.243637 100.910034 
L 257.243637 100.383348 
L 257.522781 100.383348 
L 257.522781 99.856662 
L 257.634236 99.856662 
L 257.634236 99.329976 
L 257.940894 99.329976 
L 257.940894 98.803289 
L 258.896944 98.803289 
L 258.896944 98.276603 
L 259.146768 98.276603 
L 259.146768 97.749917 
L 260.99057 97.749917 
L 260.99057 97.223231 
L 261.367772 97.223231 
L 261.367772 96.696545 
L 261.676834 96.696545 
L 261.699911 95.643173 
L 261.95745 95.643173 
L 261.95745 94.589801 
L 262.685679 94.589801 
L 262.685679 94.063115 
L 262.998807 94.063115 
L 262.998807 93.009743 
L 263.116149 93.009743 
L 263.116149 92.483056 
L 263.261198 92.483056 
L 263.261198 91.95637 
L 264.389743 91.95637 
L 264.389743 91.429684 
L 264.73226 91.429684 
L 264.73226 90.902998 
L 265.186893 90.902998 
L 265.186893 90.376312 
L 266.1729 90.376312 
L 266.1729 89.849626 
L 267.888493 89.849626 
L 267.888493 89.32294 
L 268.746002 89.32294 
L 268.746002 88.796254 
L 268.867262 88.796254 
L 268.867262 88.269568 
L 270.248371 88.269568 
L 270.271311 86.68951 
L 271.050697 86.68951 
L 271.050697 86.162824 
L 272.045194 86.162824 
L 272.045194 85.636137 
L 272.32664 85.636137 
L 272.32664 85.109451 
L 273.946308 85.109451 
L 273.946308 84.582765 
L 276.35444 84.582765 
L 276.35444 84.056079 
L 279.216515 84.056079 
L 279.216515 83.529393 
L 281.312344 83.529393 
L 281.324511 82.476021 
L 282.276575 82.476021 
L 282.276575 81.949335 
L 282.445076 81.949335 
L 282.445076 81.422649 
L 283.519428 81.422649 
L 283.519428 80.895963 
L 284.361571 80.895963 
L 284.361571 80.369277 
L 285.467981 80.369277 
L 285.467981 79.842591 
L 287.221866 79.842591 
L 287.221866 79.315904 
L 290.159563 79.315904 
L 290.159563 78.789218 
L 295.130955 78.789218 
L 295.130955 78.262532 
L 296.159768 78.262532 
L 296.159768 77.735846 
L 338.688 77.735846 
L 338.688 77.735846 
" style="fill:none;stroke:#000080;stroke-linecap:square;stroke-width:1.5;"/>
   </g>
   <g id="line2d_36">
    <defs>
     <path d="M 0 6 
C 1.591219 6 3.117479 5.367802 4.242641 4.242641 
C 5.367802 3.117479 6 1.591219 6 0 
C 6 -1.591219 5.367802 -3.117479 4.242641 -4.242641 
C 3.117479 -5.367802 1.591219 -6 0 -6 
C -1.591219 -6 -3.117479 -5.367802 -4.242641 -4.242641 
C -5.367802 -3.117479 -6 -1.591219 -6 0 
C -6 1.591219 -5.367802 3.117479 -4.242641 4.242641 
C -3.117479 5.367802 -1.591219 6 0 6 
z
" id="m16acb07589" style="stroke:#000080;stroke-width:1.5;"/>
    </defs>
    <g>
     <use style="fill-opacity:0;stroke:#000080;stroke-width:1.5;" x="124.368753" xlink:href="#m16acb07589" y="268.396207"/>
     <use style="fill-opacity:0;stroke:#000080;stroke-width:1.5;" x="169.939378" xlink:href="#m16acb07589" y="235.214984"/>
     <use style="fill-opacity:0;stroke:#000080;stroke-width:1.5;" x="230.499625" xlink:href="#m16acb07589" y="140.938176"/>
     <use style="fill-opacity:0;stroke:#000080;stroke-width:1.5;" x="296.159768" xlink:href="#m16acb07589" y="78.262532"/>
     <use style="fill-opacity:0;stroke:#000080;stroke-width:1.5;" x="296.159768" xlink:href="#m16acb07589" y="77.735846"/>
     <use style="fill-opacity:0;stroke:#000080;stroke-width:1.5;" x="338.688" xlink:href="#m16acb07589" y="77.735846"/>
    </g>
   </g>
   <g id="line2d_37">
    <path style="fill:none;stroke:#000080;stroke-linecap:square;stroke-width:1.5;"/>
    <g/>
   </g>
   <g id="line2d_38">
    <path clip-path="url(#p3c0e9d1549)" d="M 234.201166 135.671315 
" style="fill:none;stroke:#000080;stroke-linecap:square;stroke-width:1.5;"/>
    <defs>
     <path d="M -12 12 
L 12 -12 
M -12 -12 
L 12 12 
" id="m49d079b57c" style="stroke:#000080;"/>
    </defs>
    <g clip-path="url(#p3c0e9d1549)">
     <use style="fill:#000080;stroke:#000080;" x="234.201166" xlink:href="#m49d079b57c" y="135.671315"/>
    </g>
   </g>
   <g id="line2d_39">
    <defs>
     <path d="M 0 1.5 
C 0.397805 1.5 0.77937 1.341951 1.06066 1.06066 
C 1.341951 0.77937 1.5 0.397805 1.5 0 
C 1.5 -0.397805 1.341951 -0.77937 1.06066 -1.06066 
C 0.77937 -1.341951 0.397805 -1.5 0 -1.5 
C -0.397805 -1.5 -0.77937 -1.341951 -1.06066 -1.06066 
C -1.341951 -0.77937 -1.5 -0.397805 -1.5 0 
C -1.5 0.397805 -1.341951 0.77937 -1.06066 1.06066 
C -0.77937 1.341951 -0.397805 1.5 0 1.5 
z
" id="m3aca9b6743" style="stroke:#ff00ff;"/>
    </defs>
    <g>
     <use style="fill:#ff00ff;stroke:#ff00ff;" x="305.136656" xlink:href="#m3aca9b6743" y="72.468985"/>
     <use style="fill:#ff00ff;stroke:#ff00ff;" x="305.136656" xlink:href="#m3aca9b6743" y="72.468985"/>
    </g>
   </g>
   <g id="line2d_40">
    <path d="M 73.579452 298.944 
L 73.579452 297.363942 
L 76.759008 297.363942 
L 76.759008 296.837256 
L 79.447285 296.837256 
L 79.447285 296.31057 
L 83.830028 296.31057 
L 83.830028 295.783884 
L 87.329581 295.783884 
L 87.329581 293.677139 
L 88.846997 293.677139 
L 88.846997 293.150453 
L 91.535274 293.150453 
L 91.535274 291.043709 
L 92.73846 291.043709 
L 92.73846 289.463651 
L 95.918017 289.463651 
L 95.918017 288.936964 
L 100.192776 288.936964 
L 100.192776 287.356906 
L 102.989037 287.356906 
L 102.989037 285.776848 
L 104.826449 285.776848 
L 104.826449 285.250162 
L 105.398279 285.250162 
L 105.398279 283.670104 
L 106.48859 283.670104 
L 106.48859 280.509987 
L 107.514726 280.509987 
L 107.514726 279.456615 
L 110.694282 279.456615 
L 110.694282 277.349871 
L 114.751048 277.349871 
L 114.751048 276.296499 
L 116.914437 276.296499 
L 116.914437 275.769812 
L 118.576578 275.769812 
L 118.576578 274.71644 
L 121.931406 274.71644 
L 121.931406 273.663068 
L 123.192626 273.663068 
L 123.192626 273.136382 
L 123.985457 273.136382 
L 123.985457 272.609696 
L 125.110962 272.609696 
L 125.110962 272.08301 
L 125.647598 272.08301 
L 125.647598 271.556324 
L 127.954256 271.556324 
L 127.954256 271.029638 
L 129.290685 271.029638 
L 129.290685 266.816149 
L 130.796184 266.816149 
L 130.796184 266.289463 
L 135.878591 266.289463 
L 135.878591 265.762777 
L 139.572998 265.762777 
L 139.572998 264.709405 
L 141.090414 264.709405 
L 141.162927 263.129347 
L 141.871938 263.129347 
L 141.871938 262.075974 
L 142.283909 262.075974 
L 142.351634 260.495916 
L 143.40093 260.495916 
L 143.40093 259.96923 
L 144.087359 259.96923 
L 144.087359 258.389172 
L 144.865226 258.389172 
L 144.865226 257.862486 
L 145.155404 257.862486 
L 145.155404 257.3358 
L 145.943118 257.3358 
L 145.943118 256.809114 
L 149.012299 256.809114 
L 149.012299 256.282427 
L 149.15016 256.282427 
L 149.15016 255.755741 
L 149.512548 255.755741 
L 149.512548 253.122311 
L 149.998846 253.122311 
L 149.998846 252.595625 
L 154.235652 252.595625 
L 154.303908 251.015567 
L 154.674612 251.015567 
L 154.674612 250.488881 
L 155.61575 250.488881 
L 155.61575 249.435508 
L 157.613546 249.435508 
L 157.613546 248.908822 
L 159.098062 248.908822 
L 159.098062 247.328764 
L 159.832723 247.328764 
L 159.832723 246.802078 
L 161.667653 246.802078 
L 161.667653 246.275392 
L 163.246367 246.275392 
L 163.246367 245.748706 
L 164.599841 245.748706 
L 164.599841 244.695334 
L 165.447111 244.695334 
L 165.447111 243.641962 
L 165.732422 243.641962 
L 165.732422 243.115275 
L 166.595075 243.115275 
L 166.595075 242.588589 
L 167.352708 242.588589 
L 167.352708 242.061903 
L 168.01684 242.061903 
L 168.01684 241.535217 
L 168.232714 241.535217 
L 168.232714 241.008531 
L 170.022555 241.008531 
L 170.022555 239.955159 
L 173.026049 239.955159 
L 173.026049 239.428473 
L 175.62763 239.428473 
L 175.667697 236.795043 
L 178.205245 236.795043 
L 178.205245 236.268356 
L 179.9098 236.268356 
L 179.9098 235.74167 
L 180.937953 235.74167 
L 180.937953 232.581554 
L 181.129191 232.581554 
L 181.129191 232.054868 
L 181.541248 232.054868 
L 181.541248 230.47481 
L 181.845779 230.47481 
L 181.845779 229.421437 
L 182.439337 229.421437 
L 182.446122 227.841379 
L 182.755385 227.841379 
L 182.755385 227.314693 
L 183.871725 227.314693 
L 183.871725 226.261321 
L 184.564118 226.261321 
L 184.564118 225.207949 
L 185.160543 225.207949 
L 185.160543 224.681263 
L 185.838047 224.681263 
L 185.838047 224.154577 
L 186.300918 224.154577 
L 186.300918 223.627891 
L 186.468683 223.627891 
L 186.468683 223.101204 
L 186.698749 223.101204 
L 186.698749 222.574518 
L 188.268353 222.574518 
L 188.268353 222.047832 
L 188.533502 222.047832 
L 188.533502 220.99446 
L 190.431094 220.99446 
L 190.431094 219.941088 
L 190.733136 219.941088 
L 190.733136 219.414402 
L 192.009552 219.414402 
L 192.009552 218.887716 
L 192.165644 218.887716 
L 192.165644 217.834344 
L 192.293377 217.834344 
L 192.335747 215.727599 
L 192.534662 215.727599 
L 192.534662 215.200913 
L 193.143875 215.200913 
L 193.165899 213.620855 
L 193.543293 213.620855 
L 193.568403 212.040797 
L 193.926745 212.040797 
L 193.926745 211.514111 
L 194.411586 211.514111 
L 194.411586 210.460738 
L 194.810022 210.460738 
L 194.810022 209.407366 
L 195.339373 209.407366 
L 195.339373 208.88068 
L 196.192551 208.88068 
L 196.192551 207.827308 
L 196.733018 207.827308 
L 196.733018 207.300622 
L 197.34117 207.300622 
L 197.393064 206.24725 
L 197.984571 206.24725 
L 197.984571 205.720564 
L 198.690799 205.720564 
L 198.690799 205.193878 
L 199.134061 205.193878 
L 199.147082 204.140506 
L 200.045114 204.140506 
L 200.045114 203.613819 
L 200.227134 203.613819 
L 200.249142 202.560447 
L 200.662111 202.560447 
L 200.662111 202.033761 
L 201.811914 202.033761 
L 201.811914 200.980389 
L 202.051572 200.980389 
L 202.051572 199.927017 
L 203.204879 199.927017 
L 203.204879 199.400331 
L 203.399756 199.400331 
L 203.4344 196.7669 
L 203.675002 196.7669 
L 203.675002 196.240214 
L 204.026841 196.240214 
L 204.026841 195.713528 
L 204.464084 195.713528 
L 204.464084 195.186842 
L 204.613139 195.186842 
L 204.613139 194.660156 
L 204.764703 194.660156 
L 204.764703 194.13347 
L 204.931785 194.13347 
L 204.931785 193.606784 
L 205.297852 193.606784 
L 205.297852 193.080098 
L 206.206817 193.080098 
L 206.206817 192.026726 
L 206.419126 192.026726 
L 206.528581 190.446667 
L 206.645823 190.446667 
L 206.645823 189.919981 
L 206.944684 189.919981 
L 206.944684 188.866609 
L 207.341329 188.866609 
L 207.377092 187.286551 
L 207.583725 187.286551 
L 207.630202 185.706493 
L 207.890732 185.706493 
L 207.890732 185.179807 
L 208.258939 185.179807 
L 208.258939 183.599748 
L 208.746102 183.599748 
L 208.746102 183.073062 
L 209.239008 183.073062 
L 209.33652 182.01969 
L 209.541401 182.01969 
L 209.541401 181.493004 
L 210.002852 181.493004 
L 210.002852 179.912946 
L 210.70917 179.912946 
L 210.754721 178.859574 
L 210.926472 178.859574 
L 210.926472 177.806202 
L 211.322062 177.806202 
L 211.425368 176.226143 
L 212.07614 176.226143 
L 212.08234 173.592713 
L 212.192344 173.592713 
L 212.241559 170.959282 
L 212.490417 170.959282 
L 212.490417 170.432596 
L 212.71785 170.432596 
L 212.71785 169.90591 
L 212.897448 169.90591 
L 212.917552 168.852538 
L 213.021253 168.852538 
L 213.052947 167.27248 
L 213.297508 167.27248 
L 213.297508 166.745794 
L 213.756313 166.745794 
L 213.756313 166.219108 
L 213.926694 166.219108 
L 213.926694 165.692422 
L 214.07 165.692422 
L 214.104262 164.63905 
L 214.420484 164.63905 
L 214.492983 159.372189 
L 214.669182 159.372189 
L 214.669182 157.79213 
L 214.830914 157.79213 
L 214.839385 156.738758 
L 215.145787 156.738758 
L 215.239151 154.632014 
L 215.402882 154.632014 
L 215.402882 154.105328 
L 215.693577 154.105328 
L 215.693577 153.051956 
L 215.827127 153.051956 
L 215.827127 152.52527 
L 216.276427 152.52527 
L 216.276427 151.998584 
L 216.585626 151.998584 
L 216.636311 150.945211 
L 217.053372 150.945211 
L 217.053372 150.418525 
L 217.641016 150.418525 
L 217.712986 147.258409 
L 218.171067 147.258409 
L 218.171067 146.731723 
L 218.301751 146.731723 
L 218.385742 145.678351 
L 218.55423 145.678351 
L 218.55423 145.151665 
L 218.739738 145.151665 
L 218.847748 143.04492 
L 218.856158 143.04492 
L 218.856158 138.831432 
L 219.822711 138.831432 
L 219.822711 137.251373 
L 220.200421 137.251373 
L 220.200421 136.724687 
L 221.561123 136.724687 
L 221.561123 136.198001 
L 221.898403 136.198001 
L 221.898403 135.671315 
L 223.047551 135.671315 
L 223.047551 135.144629 
L 223.200274 135.144629 
L 223.231706 134.091257 
L 223.756283 134.091257 
L 223.756283 133.037885 
L 224.412284 133.037885 
L 224.412284 132.511199 
L 224.623164 132.511199 
L 224.623164 131.984513 
L 226.097033 131.984513 
L 226.097033 131.457826 
L 226.229752 131.457826 
L 226.229752 130.93114 
L 228.725732 130.93114 
L 228.725732 130.404454 
L 229.402789 130.404454 
L 229.402789 129.351082 
L 231.39852 129.351082 
L 231.39852 128.824396 
L 231.883234 128.824396 
L 231.961139 127.244338 
L 232.056062 127.244338 
L 232.056062 126.717652 
L 233.79145 126.717652 
L 233.840657 124.610907 
L 234.067067 124.610907 
L 234.067067 124.084221 
L 239.064781 124.084221 
L 239.082454 121.450791 
L 239.251412 121.450791 
L 239.251412 120.397419 
L 239.417714 120.397419 
L 239.417714 119.870733 
L 240.054544 119.870733 
L 240.16391 118.817361 
L 240.228461 118.817361 
L 240.252637 115.657244 
L 240.541619 115.657244 
L 240.541619 115.130558 
L 240.657619 115.130558 
L 240.752502 114.077186 
L 242.703667 114.077186 
L 242.703667 113.5505 
L 245.264366 113.5505 
L 245.264366 113.023814 
L 246.0855 113.023814 
L 246.0855 112.497128 
L 248.996455 112.497128 
L 249.091756 111.443755 
L 249.46028 111.443755 
L 249.46028 110.917069 
L 249.576068 110.917069 
L 249.576068 107.230267 
L 249.74596 107.230267 
L 249.74596 106.703581 
L 251.198101 106.703581 
L 251.198101 106.176895 
L 251.902647 106.176895 
L 251.902647 105.650209 
L 254.996401 105.650209 
L 255.00857 103.543464 
L 255.136406 103.543464 
L 255.14344 100.383348 
L 255.618779 100.383348 
L 255.618779 98.803289 
L 255.970648 98.803289 
L 255.970648 98.276603 
L 257.295576 98.276603 
L 257.295576 97.749917 
L 259.627815 97.749917 
L 259.731394 96.696545 
L 260.097924 96.696545 
L 260.097924 95.643173 
L 260.228736 95.643173 
L 260.228736 95.116487 
L 263.276217 95.116487 
L 263.276217 94.589801 
L 263.402437 94.589801 
L 263.402437 94.063115 
L 263.658547 94.063115 
L 263.658547 93.009743 
L 263.800769 93.009743 
L 263.881276 91.95637 
L 266.362579 91.95637 
L 266.362579 89.849626 
L 266.802199 89.849626 
L 266.802199 89.32294 
L 268.923125 89.32294 
L 268.923125 87.742882 
L 269.140429 87.742882 
L 269.140429 87.216196 
L 271.346737 87.216196 
L 271.346737 84.582765 
L 271.490387 84.582765 
L 271.490387 84.056079 
L 273.433452 84.056079 
L 273.433452 83.529393 
L 276.664289 83.529393 
L 276.664289 83.002707 
L 278.128813 83.002707 
L 278.128813 82.476021 
L 279.479819 82.476021 
L 279.570065 80.895963 
L 280.622206 80.895963 
L 280.622206 80.369277 
L 281.799154 80.369277 
L 281.903344 79.315904 
L 282.901669 79.315904 
L 282.901669 78.789218 
L 284.0308 78.789218 
L 284.100359 77.735846 
L 285.004508 77.735846 
L 285.046449 76.682474 
L 285.327874 76.682474 
L 285.327874 76.155788 
L 293.117548 76.155788 
L 293.172071 75.102416 
L 295.431881 75.102416 
L 295.431881 74.57573 
L 296.409355 74.57573 
L 296.409355 74.049044 
L 296.89496 74.049044 
L 296.89496 73.522358 
L 298.306327 73.522358 
L 298.306327 72.995672 
L 305.136656 72.995672 
L 305.136656 72.468985 
L 338.688 72.468985 
L 338.688 72.468985 
" style="fill:none;stroke:#ff00ff;stroke-linecap:square;stroke-width:1.5;"/>
   </g>
   <g id="line2d_41">
    <defs>
     <path d="M 0 8.485281 
L 5.091169 0 
L 0 -8.485281 
L -5.091169 0 
z
" id="mcb5b380a3f" style="stroke:#ff00ff;stroke-linejoin:miter;stroke-width:1.5;"/>
    </defs>
    <g>
     <use style="fill-opacity:0;stroke:#ff00ff;stroke-linejoin:miter;stroke-width:1.5;" x="114.751048" xlink:href="#mcb5b380a3f" y="276.296499"/>
     <use style="fill-opacity:0;stroke:#ff00ff;stroke-linejoin:miter;stroke-width:1.5;" x="203.399756" xlink:href="#mcb5b380a3f" y="197.293586"/>
     <use style="fill-opacity:0;stroke:#ff00ff;stroke-linejoin:miter;stroke-width:1.5;" x="263.800769" xlink:href="#mcb5b380a3f" y="92.483056"/>
     <use style="fill-opacity:0;stroke:#ff00ff;stroke-linejoin:miter;stroke-width:1.5;" x="305.136656" xlink:href="#mcb5b380a3f" y="72.468985"/>
     <use style="fill-opacity:0;stroke:#ff00ff;stroke-linejoin:miter;stroke-width:1.5;" x="338.688" xlink:href="#mcb5b380a3f" y="72.468985"/>
    </g>
   </g>
   <g id="line2d_42">
    <path style="fill:none;stroke:#ff00ff;stroke-linecap:square;stroke-width:1.5;"/>
    <g/>
   </g>
   <g id="line2d_43">
    <path clip-path="url(#p3c0e9d1549)" d="M 234.201166 124.084221 
" style="fill:none;stroke:#ff00ff;stroke-linecap:square;stroke-width:1.5;"/>
    <defs>
     <path d="M -12 12 
L 12 -12 
M -12 -12 
L 12 12 
" id="m7134dc09c0" style="stroke:#ff00ff;"/>
    </defs>
    <g clip-path="url(#p3c0e9d1549)">
     <use style="fill:#ff00ff;stroke:#ff00ff;" x="234.201166" xlink:href="#m7134dc09c0" y="124.084221"/>
    </g>
   </g>
   <g id="line2d_44">
    <defs>
     <path d="M 0 1.5 
C 0.397805 1.5 0.77937 1.341951 1.06066 1.06066 
C 1.341951 0.77937 1.5 0.397805 1.5 0 
C 1.5 -0.397805 1.341951 -0.77937 1.06066 -1.06066 
C 0.77937 -1.341951 0.397805 -1.5 0 -1.5 
C -0.397805 -1.5 -0.77937 -1.341951 -1.06066 -1.06066 
C -1.341951 -0.77937 -1.5 -0.397805 -1.5 0 
C -1.5 0.397805 -1.341951 0.77937 -1.06066 1.06066 
C -0.77937 1.341951 -0.397805 1.5 0 1.5 
z
" id="mad07388e3b" style="stroke:#ff7500;"/>
    </defs>
    <g>
     <use style="fill:#ff7500;stroke:#ff7500;" x="302.250976" xlink:href="#mad07388e3b" y="93.536429"/>
     <use style="fill:#ff7500;stroke:#ff7500;" x="302.250976" xlink:href="#mad07388e3b" y="93.536429"/>
    </g>
   </g>
   <g id="line2d_45">
    <path d="M 57.6 298.944 
L 57.6 296.31057 
L 64.67102 296.31057 
L 64.67102 295.257197 
L 81.775977 295.257197 
L 81.775977 294.730511 
L 93.863965 294.730511 
L 93.863965 292.623767 
L 99.41757 292.623767 
L 99.41757 292.097081 
L 100.934985 292.097081 
L 100.934985 289.463651 
L 105.398279 289.463651 
L 105.398279 286.303534 
L 106.48859 286.303534 
L 106.48859 280.509987 
L 107.009204 280.509987 
L 107.009204 279.983301 
L 108.006005 279.983301 
L 108.006005 279.456615 
L 109.401893 279.456615 
L 109.401893 278.929929 
L 111.897469 278.929929 
L 111.897469 278.403243 
L 114.751048 278.403243 
L 114.751048 277.876557 
L 115.077025 277.876557 
L 115.077025 277.349871 
L 115.397021 277.349871 
L 115.397021 276.823185 
L 117.765302 276.823185 
L 117.765302 275.769812 
L 119.351785 275.769812 
L 119.351785 275.243126 
L 121.489881 275.243126 
L 121.489881 273.663068 
L 121.712041 273.663068 
L 121.712041 272.609696 
L 121.931406 272.609696 
L 121.931406 271.556324 
L 122.782271 271.556324 
L 122.782271 270.502952 
L 123.593547 270.502952 
L 123.593547 269.976266 
L 125.470548 269.976266 
L 125.470548 268.396207 
L 125.647598 268.396207 
L 125.647598 267.869521 
L 125.822869 267.869521 
L 125.822869 266.816149 
L 129.991152 266.816149 
L 129.991152 266.289463 
L 130.796184 266.289463 
L 130.796184 265.236091 
L 131.312942 265.236091 
L 131.312942 264.709405 
L 134.019394 264.709405 
L 134.019394 264.182719 
L 134.450015 264.182719 
L 134.450015 262.60266 
L 135.280614 262.60266 
L 135.280614 261.549288 
L 136.551264 261.549288 
L 136.551264 261.022602 
L 136.924311 261.022602 
L 136.924311 259.96923 
L 137.647286 259.96923 
L 137.647286 259.442544 
L 137.997836 259.442544 
L 137.997836 258.389172 
L 140.64889 258.389172 
L 140.64889 257.3358 
L 141.941279 257.3358 
L 142.010346 256.282427 
L 144.269971 256.282427 
L 144.269971 255.755741 
L 145.212864 255.755741 
L 145.212864 255.229055 
L 147.113265 255.229055 
L 147.113265 254.702369 
L 148.919783 254.702369 
L 148.919783 253.648997 
L 149.195872 253.648997 
L 149.195872 251.015567 
L 151.779487 251.015567 
L 151.779487 250.488881 
L 152.624728 250.488881 
L 152.624728 249.962195 
L 153.032466 249.962195 
L 153.032466 248.382136 
L 153.609024 248.382136 
L 153.609024 247.328764 
L 154.201424 247.328764 
L 154.201424 246.802078 
L 154.972161 246.802078 
L 154.972161 246.275392 
L 155.457066 246.275392 
L 155.457066 245.748706 
L 156.717545 245.748706 
L 156.717545 244.695334 
L 156.835778 244.695334 
L 156.835778 244.168648 
L 161.374928 244.168648 
L 161.374928 243.115275 
L 169.070439 243.115275 
L 169.070439 242.588589 
L 169.460402 242.588589 
L 169.460402 241.535217 
L 170.990905 241.535217 
L 170.990905 239.428473 
L 171.314944 239.428473 
L 171.314944 238.375101 
L 174.412979 238.375101 
L 174.412979 237.848415 
L 175.242328 237.848415 
L 175.242328 237.321729 
L 176.411991 237.321729 
L 176.411991 236.795043 
L 177.052036 236.795043 
L 177.052036 236.268356 
L 178.471368 236.268356 
L 178.513913 234.688298 
L 180.647105 234.688298 
L 180.647105 234.161612 
L 181.151123 234.161612 
L 181.151123 233.10824 
L 184.467735 233.10824 
L 184.467735 232.054868 
L 185.282031 232.054868 
L 185.282031 231.001496 
L 187.066901 231.001496 
L 187.066901 228.368065 
L 190.162992 228.368065 
L 190.162992 227.841379 
L 190.733136 227.841379 
L 190.733136 227.314693 
L 192.858737 227.314693 
L 192.892307 226.261321 
L 193.492963 226.261321 
L 193.492963 225.734635 
L 194.115355 225.734635 
L 194.115355 225.207949 
L 194.773262 225.207949 
L 194.773262 222.574518 
L 194.97945 222.574518 
L 194.97945 222.047832 
L 195.574195 222.047832 
L 195.574195 221.521146 
L 197.416079 221.521146 
L 197.416079 220.99446 
L 198.015154 220.99446 
L 198.015154 220.467774 
L 199.131455 220.467774 
L 199.131455 219.414402 
L 199.836169 219.414402 
L 199.945928 217.834344 
L 200.047587 217.834344 
L 200.047587 217.307658 
L 200.361198 217.307658 
L 200.361198 216.254285 
L 200.638228 216.254285 
L 200.638228 215.727599 
L 201.740267 215.727599 
L 201.740267 214.674227 
L 202.329242 214.674227 
L 202.413631 213.094169 
L 202.484719 213.094169 
L 202.497613 212.040797 
L 202.961841 212.040797 
L 202.961841 210.460738 
L 203.709104 210.460738 
L 203.709104 207.827308 
L 206.02702 207.827308 
L 206.112786 206.773936 
L 206.257107 206.773936 
L 206.257107 206.24725 
L 206.693176 206.24725 
L 206.693176 205.720564 
L 207.171268 205.720564 
L 207.215578 204.667192 
L 207.767306 204.667192 
L 207.767306 204.140506 
L 208.251218 204.140506 
L 208.251218 203.613819 
L 208.495085 203.613819 
L 208.599863 199.927017 
L 208.782096 199.927017 
L 208.782096 199.400331 
L 208.941673 199.400331 
L 208.941673 197.820273 
L 209.133608 197.820273 
L 209.133608 197.293586 
L 209.506942 197.293586 
L 209.506942 196.240214 
L 210.062817 196.240214 
L 210.062817 195.713528 
L 210.22632 195.713528 
L 210.22632 195.186842 
L 210.542028 195.186842 
L 210.641966 194.13347 
L 210.680976 194.13347 
L 210.680976 192.026726 
L 211.377665 192.026726 
L 211.469089 190.446667 
L 211.719009 190.446667 
L 211.719009 189.919981 
L 212.040133 189.919981 
L 212.040133 189.393295 
L 212.239102 189.393295 
L 212.239102 188.339923 
L 212.42124 188.339923 
L 212.42124 187.813237 
L 212.638766 187.813237 
L 212.73458 186.233179 
L 212.853611 186.233179 
L 212.853611 184.126434 
L 213.030649 184.126434 
L 213.120836 183.073062 
L 213.292882 183.073062 
L 213.292882 182.546376 
L 213.512435 182.546376 
L 213.54667 180.966318 
L 214.513488 180.966318 
L 214.61994 179.38626 
L 214.886957 179.38626 
L 214.886957 178.332888 
L 215.18423 178.332888 
L 215.18423 177.806202 
L 215.324812 177.806202 
L 215.397756 176.752829 
L 215.713725 176.752829 
L 215.790077 175.172771 
L 215.994374 175.172771 
L 216.019125 173.592713 
L 216.375581 173.592713 
L 216.424947 172.539341 
L 216.682089 172.539341 
L 216.697321 170.959282 
L 217.548821 170.959282 
L 217.548821 170.432596 
L 217.742588 170.432596 
L 217.742588 169.90591 
L 217.874731 169.90591 
L 217.874731 168.852538 
L 218.01206 168.852538 
L 218.01206 168.325852 
L 218.137804 168.325852 
L 218.215609 164.63905 
L 218.90318 164.63905 
L 218.90821 163.585677 
L 219.133097 163.585677 
L 219.161211 162.005619 
L 219.466704 162.005619 
L 219.483746 160.952247 
L 219.998419 160.952247 
L 219.998419 159.898875 
L 220.180949 159.898875 
L 220.218315 157.79213 
L 220.319889 157.79213 
L 220.379318 156.738758 
L 220.658304 156.738758 
L 220.689365 155.1587 
L 221.008122 155.1587 
L 221.008122 154.632014 
L 221.422331 154.632014 
L 221.422331 153.578642 
L 221.59996 153.578642 
L 221.622216 152.52527 
L 221.90264 152.52527 
L 221.953401 150.945211 
L 222.085951 150.945211 
L 222.085951 150.418525 
L 222.330851 150.418525 
L 222.330851 149.365153 
L 222.599515 149.365153 
L 222.69828 148.311781 
L 223.653133 148.311781 
L 223.653133 147.785095 
L 225.692136 147.785095 
L 225.705766 146.731723 
L 226.423144 146.731723 
L 226.423144 146.205037 
L 228.259793 146.205037 
L 228.259793 144.624978 
L 229.578257 144.624978 
L 229.578257 143.04492 
L 229.976501 143.04492 
L 229.976501 142.518234 
L 231.135637 142.518234 
L 231.135637 141.991548 
L 232.524614 141.991548 
L 232.524614 141.464862 
L 232.929584 141.464862 
L 232.929584 140.938176 
L 233.409146 140.938176 
L 233.409146 139.884804 
L 236.721116 139.884804 
L 236.721116 139.358118 
L 236.999312 139.358118 
L 236.999312 138.831432 
L 238.225774 138.831432 
L 238.225774 138.304745 
L 238.44481 138.304745 
L 238.44481 137.778059 
L 238.64762 137.778059 
L 238.736588 136.198001 
L 239.113534 136.198001 
L 239.113534 135.144629 
L 239.307716 135.144629 
L 239.408143 134.091257 
L 240.045067 134.091257 
L 240.067256 133.037885 
L 240.267914 133.037885 
L 240.267914 132.511199 
L 240.429236 132.511199 
L 240.433872 131.457826 
L 240.651596 131.457826 
L 240.651596 130.404454 
L 241.044931 130.404454 
L 241.102786 129.351082 
L 241.263115 129.351082 
L 241.345046 127.771024 
L 241.463661 127.771024 
L 241.463661 127.244338 
L 243.570274 127.244338 
L 243.570274 126.190966 
L 244.939551 126.190966 
L 244.939551 125.66428 
L 245.89764 125.66428 
L 245.89764 125.137593 
L 249.086261 125.137593 
L 249.086261 124.610907 
L 250.175176 124.610907 
L 250.175176 124.084221 
L 250.295754 124.084221 
L 250.295754 123.557535 
L 250.960785 123.557535 
L 250.960785 123.030849 
L 251.132041 123.030849 
L 251.132041 121.977477 
L 255.297783 121.977477 
L 255.297783 121.450791 
L 255.542211 121.450791 
L 255.542211 120.397419 
L 255.852029 120.397419 
L 255.852029 119.870733 
L 255.976053 119.870733 
L 255.976053 119.344047 
L 256.130769 119.344047 
L 256.130769 118.817361 
L 256.733295 118.817361 
L 256.733295 118.290674 
L 257.070635 118.290674 
L 257.070635 117.763988 
L 259.740912 117.763988 
L 259.831715 116.18393 
L 260.038729 116.18393 
L 260.038729 115.657244 
L 260.455515 115.657244 
L 260.455515 114.603872 
L 261.231348 114.603872 
L 261.231348 113.5505 
L 263.724638 113.5505 
L 263.724638 112.497128 
L 263.950648 112.497128 
L 263.950648 111.970441 
L 264.588122 111.970441 
L 264.588122 111.443755 
L 266.43123 111.443755 
L 266.43123 110.917069 
L 266.669809 110.917069 
L 266.669809 110.390383 
L 266.827945 110.390383 
L 266.827945 109.863697 
L 269.354222 109.863697 
L 269.354222 108.810325 
L 269.82411 108.810325 
L 269.82411 108.283639 
L 271.535261 108.283639 
L 271.535261 107.756953 
L 271.95056 107.756953 
L 271.95056 106.703581 
L 273.343047 106.703581 
L 273.451059 105.650209 
L 273.473601 105.650209 
L 273.473601 105.123522 
L 274.953059 105.123522 
L 275.040341 104.07015 
L 275.206164 104.07015 
L 275.206164 103.543464 
L 275.554888 103.543464 
L 275.554888 103.016778 
L 276.792759 103.016778 
L 276.803463 101.963406 
L 278.15767 101.963406 
L 278.256817 100.910034 
L 278.54036 100.910034 
L 278.54036 100.383348 
L 279.571462 100.383348 
L 279.598313 99.329976 
L 280.835458 99.329976 
L 280.835458 98.803289 
L 285.084254 98.803289 
L 285.090909 97.749917 
L 285.283027 97.749917 
L 285.283027 97.223231 
L 287.710896 97.223231 
L 287.710896 96.696545 
L 288.503501 96.696545 
L 288.503501 96.169859 
L 289.261643 96.169859 
L 289.261643 95.643173 
L 290.680856 95.643173 
L 290.680856 95.116487 
L 293.807452 95.116487 
L 293.807452 94.589801 
L 297.376989 94.589801 
L 297.376989 94.063115 
L 302.250976 94.063115 
L 302.250976 93.536429 
L 338.688 93.536429 
L 338.688 93.536429 
" style="fill:none;stroke:#ff7500;stroke-linecap:square;stroke-width:1.5;"/>
   </g>
   <g id="line2d_46">
    <defs>
     <path d="M 0 -6 
L -1.347084 -1.854102 
L -5.706339 -1.854102 
L -2.179628 0.708204 
L -3.526712 4.854102 
L -0 2.291796 
L 3.526712 4.854102 
L 2.179628 0.708204 
L 5.706339 -1.854102 
L 1.347084 -1.854102 
z
" id="mc6686aff87" style="stroke:#ff7500;stroke-linejoin:bevel;stroke-width:1.5;"/>
    </defs>
    <g>
     <use style="fill-opacity:0;stroke:#ff7500;stroke-linejoin:bevel;stroke-width:1.5;" x="141.941279" xlink:href="#mc6686aff87" y="256.809114"/>
     <use style="fill-opacity:0;stroke:#ff7500;stroke-linejoin:bevel;stroke-width:1.5;" x="207.767306" xlink:href="#mc6686aff87" y="204.667192"/>
     <use style="fill-opacity:0;stroke:#ff7500;stroke-linejoin:bevel;stroke-width:1.5;" x="264.588122" xlink:href="#mc6686aff87" y="111.443755"/>
     <use style="fill-opacity:0;stroke:#ff7500;stroke-linejoin:bevel;stroke-width:1.5;" x="302.250976" xlink:href="#mc6686aff87" y="93.536429"/>
     <use style="fill-opacity:0;stroke:#ff7500;stroke-linejoin:bevel;stroke-width:1.5;" x="338.688" xlink:href="#mc6686aff87" y="93.536429"/>
    </g>
   </g>
   <g id="line2d_47">
    <path style="fill:none;stroke:#ff7500;stroke-linecap:square;stroke-width:1.5;"/>
    <g/>
   </g>
   <g id="line2d_48">
    <path clip-path="url(#p3c0e9d1549)" d="M 234.201166 139.884804 
" style="fill:none;stroke:#ff7500;stroke-linecap:square;stroke-width:1.5;"/>
    <defs>
     <path d="M -12 12 
L 12 -12 
M -12 -12 
L 12 12 
" id="m602404b4e4" style="stroke:#ff7500;"/>
    </defs>
    <g clip-path="url(#p3c0e9d1549)">
     <use style="fill:#ff7500;stroke:#ff7500;" x="234.201166" xlink:href="#m602404b4e4" y="139.884804"/>
    </g>
   </g>
   <g id="line2d_49">
    <path d="M 338.688 93.536429 
L 369.60768 293.571802 
" style="fill:none;stroke:#ff7500;stroke-linecap:square;stroke-width:1.5;"/>
    <g>
     <use style="fill-opacity:0;stroke:#ff7500;stroke-linejoin:bevel;stroke-width:1.5;" x="338.688" xlink:href="#mc6686aff87" y="93.536429"/>
     <use style="fill-opacity:0;stroke:#ff7500;stroke-linejoin:bevel;stroke-width:1.5;" x="369.60768" xlink:href="#mc6686aff87" y="293.571802"/>
    </g>
   </g>
   <g id="line2d_50">
    <path d="M 338.688 77.735846 
L 369.60768 207.616634 
" style="fill:none;stroke:#000080;stroke-linecap:square;stroke-width:1.5;"/>
    <g>
     <use style="fill-opacity:0;stroke:#000080;stroke-width:1.5;" x="338.688" xlink:href="#m16acb07589" y="77.735846"/>
     <use style="fill-opacity:0;stroke:#000080;stroke-width:1.5;" x="369.60768" xlink:href="#m16acb07589" y="207.616634"/>
    </g>
   </g>
   <g id="line2d_51">
    <path d="M 338.688 72.468985 
L 369.60768 121.661465 
" style="fill:none;stroke:#ff00ff;stroke-linecap:square;stroke-width:1.5;"/>
    <g>
     <use style="fill-opacity:0;stroke:#ff00ff;stroke-linejoin:miter;stroke-width:1.5;" x="338.688" xlink:href="#mcb5b380a3f" y="72.468985"/>
     <use style="fill-opacity:0;stroke:#ff00ff;stroke-linejoin:miter;stroke-width:1.5;" x="369.60768" xlink:href="#mcb5b380a3f" y="121.661465"/>
    </g>
   </g>
   <g id="line2d_52">
    <path d="M 338.688 298.944 
L 338.688 30.334099 
" style="fill:none;stroke:#000000;stroke-linecap:square;stroke-width:1.5;"/>
   </g>
   <g id="patch_3">
    <path d="M 57.6 298.944 
L 57.6 27.648 
" style="fill:none;stroke:#000000;stroke-linecap:square;stroke-linejoin:miter;stroke-width:0.8;"/>
   </g>
   <g id="patch_4">
    <path d="M 338.688 298.944 
L 338.688 27.648 
" style="fill:none;stroke:#000000;stroke-linecap:square;stroke-linejoin:miter;stroke-width:0.8;"/>
   </g>
   <g id="patch_5">
    <path d="M 57.6 298.944 
L 338.688 298.944 
" style="fill:none;stroke:#000000;stroke-linecap:square;stroke-linejoin:miter;stroke-width:0.8;"/>
   </g>
   <g id="patch_6">
    <path d="M 57.6 27.648 
L 338.688 27.648 
" style="fill:none;stroke:#000000;stroke-linecap:square;stroke-linejoin:miter;stroke-width:0.8;"/>
   </g>
   <g id="text_13">
    <!-- PSO EDA -->
    <g transform="translate(375.22944 298.262739)scale(0.17 -0.17)">
     <defs>
      <path d="M 1259 4147 
L 1259 2394 
L 2053 2394 
Q 2494 2394 2734 2622 
Q 2975 2850 2975 3272 
Q 2975 3691 2734 3919 
Q 2494 4147 2053 4147 
L 1259 4147 
z
M 628 4666 
L 2053 4666 
Q 2838 4666 3239 4311 
Q 3641 3956 3641 3272 
Q 3641 2581 3239 2228 
Q 2838 1875 2053 1875 
L 1259 1875 
L 1259 0 
L 628 0 
L 628 4666 
z
" id="DejaVuSans-50" transform="scale(0.015625)"/>
      <path d="M 3425 4513 
L 3425 3897 
Q 3066 4069 2747 4153 
Q 2428 4238 2131 4238 
Q 1616 4238 1336 4038 
Q 1056 3838 1056 3469 
Q 1056 3159 1242 3001 
Q 1428 2844 1947 2747 
L 2328 2669 
Q 3034 2534 3370 2195 
Q 3706 1856 3706 1288 
Q 3706 609 3251 259 
Q 2797 -91 1919 -91 
Q 1588 -91 1214 -16 
Q 841 59 441 206 
L 441 856 
Q 825 641 1194 531 
Q 1563 422 1919 422 
Q 2459 422 2753 634 
Q 3047 847 3047 1241 
Q 3047 1584 2836 1778 
Q 2625 1972 2144 2069 
L 1759 2144 
Q 1053 2284 737 2584 
Q 422 2884 422 3419 
Q 422 4038 858 4394 
Q 1294 4750 2059 4750 
Q 2388 4750 2728 4690 
Q 3069 4631 3425 4513 
z
" id="DejaVuSans-53" transform="scale(0.015625)"/>
      <path d="M 2522 4238 
Q 1834 4238 1429 3725 
Q 1025 3213 1025 2328 
Q 1025 1447 1429 934 
Q 1834 422 2522 422 
Q 3209 422 3611 934 
Q 4013 1447 4013 2328 
Q 4013 3213 3611 3725 
Q 3209 4238 2522 4238 
z
M 2522 4750 
Q 3503 4750 4090 4092 
Q 4678 3434 4678 2328 
Q 4678 1225 4090 567 
Q 3503 -91 2522 -91 
Q 1538 -91 948 565 
Q 359 1222 359 2328 
Q 359 3434 948 4092 
Q 1538 4750 2522 4750 
z
" id="DejaVuSans-4f" transform="scale(0.015625)"/>
      <path d="M 628 4666 
L 3578 4666 
L 3578 4134 
L 1259 4134 
L 1259 2753 
L 3481 2753 
L 3481 2222 
L 1259 2222 
L 1259 531 
L 3634 531 
L 3634 0 
L 628 0 
L 628 4666 
z
" id="DejaVuSans-45" transform="scale(0.015625)"/>
      <path d="M 1259 4147 
L 1259 519 
L 2022 519 
Q 2988 519 3436 956 
Q 3884 1394 3884 2338 
Q 3884 3275 3436 3711 
Q 2988 4147 2022 4147 
L 1259 4147 
z
M 628 4666 
L 1925 4666 
Q 3281 4666 3915 4102 
Q 4550 3538 4550 2338 
Q 4550 1131 3912 565 
Q 3275 0 1925 0 
L 628 0 
L 628 4666 
z
" id="DejaVuSans-44" transform="scale(0.015625)"/>
      <path d="M 2188 4044 
L 1331 1722 
L 3047 1722 
L 2188 4044 
z
M 1831 4666 
L 2547 4666 
L 4325 0 
L 3669 0 
L 3244 1197 
L 1141 1197 
L 716 0 
L 50 0 
L 1831 4666 
z
" id="DejaVuSans-41" transform="scale(0.015625)"/>
     </defs>
     <use xlink:href="#DejaVuSans-50"/>
     <use x="60.302734" xlink:href="#DejaVuSans-53"/>
     <use x="123.779297" xlink:href="#DejaVuSans-4f"/>
     <use x="202.490234" xlink:href="#DejaVuSans-20"/>
     <use x="234.277344" xlink:href="#DejaVuSans-45"/>
     <use x="297.460938" xlink:href="#DejaVuSans-44"/>
     <use x="372.712891" xlink:href="#DejaVuSans-41"/>
    </g>
   </g>
   <g id="text_14">
    <!-- PSO -->
    <g transform="translate(375.22944 212.307571)scale(0.17 -0.17)">
     <use xlink:href="#DejaVuSans-50"/>
     <use x="60.302734" xlink:href="#DejaVuSans-53"/>
     <use x="123.779297" xlink:href="#DejaVuSans-4f"/>
    </g>
   </g>
   <g id="text_15">
    <!-- PSO Bound -->
    <g transform="translate(375.22944 126.352403)scale(0.17 -0.17)">
     <defs>
      <path d="M 1259 2228 
L 1259 519 
L 2272 519 
Q 2781 519 3026 730 
Q 3272 941 3272 1375 
Q 3272 1813 3026 2020 
Q 2781 2228 2272 2228 
L 1259 2228 
z
M 1259 4147 
L 1259 2741 
L 2194 2741 
Q 2656 2741 2882 2914 
Q 3109 3088 3109 3444 
Q 3109 3797 2882 3972 
Q 2656 4147 2194 4147 
L 1259 4147 
z
M 628 4666 
L 2241 4666 
Q 2963 4666 3353 4366 
Q 3744 4066 3744 3513 
Q 3744 3084 3544 2831 
Q 3344 2578 2956 2516 
Q 3422 2416 3680 2098 
Q 3938 1781 3938 1306 
Q 3938 681 3513 340 
Q 3088 0 2303 0 
L 628 0 
L 628 4666 
z
" id="DejaVuSans-42" transform="scale(0.015625)"/>
     </defs>
     <use xlink:href="#DejaVuSans-50"/>
     <use x="60.302734" xlink:href="#DejaVuSans-53"/>
     <use x="123.779297" xlink:href="#DejaVuSans-4f"/>
     <use x="202.490234" xlink:href="#DejaVuSans-20"/>
     <use x="234.277344" xlink:href="#DejaVuSans-42"/>
     <use x="302.880859" xlink:href="#DejaVuSans-6f"/>
     <use x="364.0625" xlink:href="#DejaVuSans-75"/>
     <use x="427.441406" xlink:href="#DejaVuSans-6e"/>
     <use x="490.820312" xlink:href="#DejaVuSans-64"/>
    </g>
   </g>
   <g id="text_16">
    <!-- best 2009 -->
    <g transform="translate(375.22944 40.397235)scale(0.17 -0.17)">
     <defs>
      <path d="M 3116 1747 
Q 3116 2381 2855 2742 
Q 2594 3103 2138 3103 
Q 1681 3103 1420 2742 
Q 1159 2381 1159 1747 
Q 1159 1113 1420 752 
Q 1681 391 2138 391 
Q 2594 391 2855 752 
Q 3116 1113 3116 1747 
z
M 1159 2969 
Q 1341 3281 1617 3432 
Q 1894 3584 2278 3584 
Q 2916 3584 3314 3078 
Q 3713 2572 3713 1747 
Q 3713 922 3314 415 
Q 2916 -91 2278 -91 
Q 1894 -91 1617 61 
Q 1341 213 1159 525 
L 1159 0 
L 581 0 
L 581 4863 
L 1159 4863 
L 1159 2969 
z
" id="DejaVuSans-62" transform="scale(0.015625)"/>
      <path d="M 703 97 
L 703 672 
Q 941 559 1184 500 
Q 1428 441 1663 441 
Q 2288 441 2617 861 
Q 2947 1281 2994 2138 
Q 2813 1869 2534 1725 
Q 2256 1581 1919 1581 
Q 1219 1581 811 2004 
Q 403 2428 403 3163 
Q 403 3881 828 4315 
Q 1253 4750 1959 4750 
Q 2769 4750 3195 4129 
Q 3622 3509 3622 2328 
Q 3622 1225 3098 567 
Q 2575 -91 1691 -91 
Q 1453 -91 1209 -44 
Q 966 3 703 97 
z
M 1959 2075 
Q 2384 2075 2632 2365 
Q 2881 2656 2881 3163 
Q 2881 3666 2632 3958 
Q 2384 4250 1959 4250 
Q 1534 4250 1286 3958 
Q 1038 3666 1038 3163 
Q 1038 2656 1286 2365 
Q 1534 2075 1959 2075 
z
" id="DejaVuSans-39" transform="scale(0.015625)"/>
     </defs>
     <use xlink:href="#DejaVuSans-62"/>
     <use x="63.476562" xlink:href="#DejaVuSans-65"/>
     <use x="125" xlink:href="#DejaVuSans-73"/>
     <use x="177.099609" xlink:href="#DejaVuSans-74"/>
     <use x="216.308594" xlink:href="#DejaVuSans-20"/>
     <use x="248.095703" xlink:href="#DejaVuSans-32"/>
     <use x="311.71875" xlink:href="#DejaVuSans-30"/>
     <use x="375.341797" xlink:href="#DejaVuSans-30"/>
     <use x="438.964844" xlink:href="#DejaVuSans-39"/>
    </g>
   </g>
   <g id="text_17">
    <!-- bbob f13, 2-D -->
    <g transform="translate(60.41088 38.111366)scale(0.102 -0.102)">
     <defs>
      <path d="M 2597 2516 
Q 3050 2419 3304 2112 
Q 3559 1806 3559 1356 
Q 3559 666 3084 287 
Q 2609 -91 1734 -91 
Q 1441 -91 1130 -33 
Q 819 25 488 141 
L 488 750 
Q 750 597 1062 519 
Q 1375 441 1716 441 
Q 2309 441 2620 675 
Q 2931 909 2931 1356 
Q 2931 1769 2642 2001 
Q 2353 2234 1838 2234 
L 1294 2234 
L 1294 2753 
L 1863 2753 
Q 2328 2753 2575 2939 
Q 2822 3125 2822 3475 
Q 2822 3834 2567 4026 
Q 2313 4219 1838 4219 
Q 1578 4219 1281 4162 
Q 984 4106 628 3988 
L 628 4550 
Q 988 4650 1302 4700 
Q 1616 4750 1894 4750 
Q 2613 4750 3031 4423 
Q 3450 4097 3450 3541 
Q 3450 3153 3228 2886 
Q 3006 2619 2597 2516 
z
" id="DejaVuSans-33" transform="scale(0.015625)"/>
     </defs>
     <use xlink:href="#DejaVuSans-62"/>
     <use x="63.476562" xlink:href="#DejaVuSans-62"/>
     <use x="126.953125" xlink:href="#DejaVuSans-6f"/>
     <use x="188.134766" xlink:href="#DejaVuSans-62"/>
     <use x="251.611328" xlink:href="#DejaVuSans-20"/>
     <use x="283.398438" xlink:href="#DejaVuSans-66"/>
     <use x="318.603516" xlink:href="#DejaVuSans-31"/>
     <use x="382.226562" xlink:href="#DejaVuSans-33"/>
     <use x="445.849609" xlink:href="#DejaVuSans-2c"/>
     <use x="477.636719" xlink:href="#DejaVuSans-20"/>
     <use x="509.423828" xlink:href="#DejaVuSans-32"/>
     <use x="573.046875" xlink:href="#DejaVuSans-2d"/>
     <use x="609.130859" xlink:href="#DejaVuSans-44"/>
    </g>
    <!-- 51 targets: 100..1e-08 -->
    <g transform="translate(60.41088 49.533135)scale(0.102 -0.102)">
     <defs>
      <path d="M 691 4666 
L 3169 4666 
L 3169 4134 
L 1269 4134 
L 1269 2991 
Q 1406 3038 1543 3061 
Q 1681 3084 1819 3084 
Q 2600 3084 3056 2656 
Q 3513 2228 3513 1497 
Q 3513 744 3044 326 
Q 2575 -91 1722 -91 
Q 1428 -91 1123 -41 
Q 819 9 494 109 
L 494 744 
Q 775 591 1075 516 
Q 1375 441 1709 441 
Q 2250 441 2565 725 
Q 2881 1009 2881 1497 
Q 2881 1984 2565 2268 
Q 2250 2553 1709 2553 
Q 1456 2553 1204 2497 
Q 953 2441 691 2322 
L 691 4666 
z
" id="DejaVuSans-35" transform="scale(0.015625)"/>
      <path d="M 750 794 
L 1409 794 
L 1409 0 
L 750 0 
L 750 794 
z
M 750 3309 
L 1409 3309 
L 1409 2516 
L 750 2516 
L 750 3309 
z
" id="DejaVuSans-3a" transform="scale(0.015625)"/>
     </defs>
     <use xlink:href="#DejaVuSans-35"/>
     <use x="63.623047" xlink:href="#DejaVuSans-31"/>
     <use x="127.246094" xlink:href="#DejaVuSans-20"/>
     <use x="159.033203" xlink:href="#DejaVuSans-74"/>
     <use x="198.242188" xlink:href="#DejaVuSans-61"/>
     <use x="259.521484" xlink:href="#DejaVuSans-72"/>
     <use x="298.884766" xlink:href="#DejaVuSans-67"/>
     <use x="362.361328" xlink:href="#DejaVuSans-65"/>
     <use x="423.884766" xlink:href="#DejaVuSans-74"/>
     <use x="463.09375" xlink:href="#DejaVuSans-73"/>
     <use x="515.193359" xlink:href="#DejaVuSans-3a"/>
     <use x="548.884766" xlink:href="#DejaVuSans-20"/>
     <use x="580.671875" xlink:href="#DejaVuSans-31"/>
     <use x="644.294922" xlink:href="#DejaVuSans-30"/>
     <use x="707.917969" xlink:href="#DejaVuSans-30"/>
     <use x="771.541016" xlink:href="#DejaVuSans-2e"/>
     <use x="803.328125" xlink:href="#DejaVuSans-2e"/>
     <use x="835.115234" xlink:href="#DejaVuSans-31"/>
     <use x="898.738281" xlink:href="#DejaVuSans-65"/>
     <use x="960.261719" xlink:href="#DejaVuSans-2d"/>
     <use x="996.345703" xlink:href="#DejaVuSans-30"/>
     <use x="1059.96875" xlink:href="#DejaVuSans-38"/>
    </g>
    <!-- 15 instances -->
    <g transform="translate(60.41088 60.954904)scale(0.102 -0.102)">
     <use xlink:href="#DejaVuSans-31"/>
     <use x="63.623047" xlink:href="#DejaVuSans-35"/>
     <use x="127.246094" xlink:href="#DejaVuSans-20"/>
     <use x="159.033203" xlink:href="#DejaVuSans-69"/>
     <use x="186.816406" xlink:href="#DejaVuSans-6e"/>
     <use x="250.195312" xlink:href="#DejaVuSans-73"/>
     <use x="302.294922" xlink:href="#DejaVuSans-74"/>
     <use x="341.503906" xlink:href="#DejaVuSans-61"/>
     <use x="402.783203" xlink:href="#DejaVuSans-6e"/>
     <use x="466.162109" xlink:href="#DejaVuSans-63"/>
     <use x="521.142578" xlink:href="#DejaVuSans-65"/>
     <use x="582.666016" xlink:href="#DejaVuSans-73"/>
    </g>
   </g>
   <g id="text_18">
    <!-- v2.4 -->
    <g style="fill:#808080;" transform="translate(187.233062 294.151352)scale(0.1 -0.1)">
     <use xlink:href="#DejaVuSans-76"/>
     <use x="59.179688" xlink:href="#DejaVuSans-32"/>
     <use x="122.802734" xlink:href="#DejaVuSans-2e"/>
     <use x="154.589844" xlink:href="#DejaVuSans-34"/>
    </g>
   </g>
   <g id="text_19">
    <!-- 13 Sharp ridge -->
    <g transform="translate(124.05025 21.648)scale(0.2 -0.2)">
     <defs>
      <path d="M 3513 2113 
L 3513 0 
L 2938 0 
L 2938 2094 
Q 2938 2591 2744 2837 
Q 2550 3084 2163 3084 
Q 1697 3084 1428 2787 
Q 1159 2491 1159 1978 
L 1159 0 
L 581 0 
L 581 4863 
L 1159 4863 
L 1159 2956 
Q 1366 3272 1645 3428 
Q 1925 3584 2291 3584 
Q 2894 3584 3203 3211 
Q 3513 2838 3513 2113 
z
" id="DejaVuSans-68" transform="scale(0.015625)"/>
     </defs>
     <use xlink:href="#DejaVuSans-31"/>
     <use x="63.623047" xlink:href="#DejaVuSans-33"/>
     <use x="127.246094" xlink:href="#DejaVuSans-20"/>
     <use x="159.033203" xlink:href="#DejaVuSans-53"/>
     <use x="222.509766" xlink:href="#DejaVuSans-68"/>
     <use x="285.888672" xlink:href="#DejaVuSans-61"/>
     <use x="347.167969" xlink:href="#DejaVuSans-72"/>
     <use x="388.28125" xlink:href="#DejaVuSans-70"/>
     <use x="451.757812" xlink:href="#DejaVuSans-20"/>
     <use x="483.544922" xlink:href="#DejaVuSans-72"/>
     <use x="524.658203" xlink:href="#DejaVuSans-69"/>
     <use x="552.441406" xlink:href="#DejaVuSans-64"/>
     <use x="615.917969" xlink:href="#DejaVuSans-67"/>
     <use x="679.394531" xlink:href="#DejaVuSans-65"/>
    </g>
   </g>
  </g>
 </g>
 <defs>
  <clipPath id="p3c0e9d1549">
   <rect height="271.296" width="281.088" x="57.6" y="27.648"/>
  </clipPath>
 </defs>
</svg>
