<?xml version="1.0" encoding="utf-8" standalone="no"?>
<!DOCTYPE svg PUBLIC "-//W3C//DTD SVG 1.1//EN"
  "http://www.w3.org/Graphics/SVG/1.1/DTD/svg11.dtd">
<svg height="345.6pt" version="1.1" viewBox="0 0 460.8 345.6" width="460.8pt" xmlns="http://www.w3.org/2000/svg" xmlns:xlink="http://www.w3.org/1999/xlink">
 <metadata>
  <rdf:RDF xmlns:cc="http://creativecommons.org/ns#" xmlns:dc="http://purl.org/dc/elements/1.1/" xmlns:rdf="http://www.w3.org/1999/02/22-rdf-syntax-ns#">
   <cc:Work>
    <dc:type rdf:resource="http://purl.org/dc/dcmitype/StillImage"/>
    <dc:date>2021-04-20T11:32:01.137760</dc:date>
    <dc:format>image/svg+xml</dc:format>
    <dc:creator>
     <cc:Agent>
      <dc:title>Matplotlib v3.4.1, https://matplotlib.org/</dc:title>
     </cc:Agent>
    </dc:creator>
   </cc:Work>
  </rdf:RDF>
 </metadata>
 <defs>
  <style type="text/css">*{stroke-linecap:butt;stroke-linejoin:round;}</style>
 </defs>
 <g id="figure_1">
  <g id="patch_1">
   <path d="M 0 345.6 
L 460.8 345.6 
L 460.8 0 
L 0 0 
z
" style="fill:#ffffff;"/>
  </g>
  <g id="axes_1">
   <g id="patch_2">
    <path d="M 57.6 298.944 
L 338.688 298.944 
L 338.688 27.648 
L 57.6 27.648 
z
" style="fill:#ffffff;"/>
   </g>
   <g id="matplotlib.axis_1">
    <g id="xtick_1">
     <g id="line2d_1">
      <path clip-path="url(#pf12316c81d)" d="M 57.6 298.944 
L 57.6 27.648 
" style="fill:none;stroke:#b0b0b0;stroke-linecap:square;stroke-width:0.8;"/>
     </g>
     <g id="line2d_2">
      <defs>
       <path d="M 0 0 
L 0 3.5 
" id="mfc588ec141" style="stroke:#000000;stroke-width:0.8;"/>
      </defs>
      <g>
       <use style="stroke:#000000;stroke-width:0.8;" x="57.6" xlink:href="#mfc588ec141" y="298.944"/>
      </g>
     </g>
     <g id="text_1">
      <!-- 0 -->
      <g transform="translate(51.2375 321.140875)scale(0.2 -0.2)">
       <defs>
        <path d="M 2034 4250 
Q 1547 4250 1301 3770 
Q 1056 3291 1056 2328 
Q 1056 1369 1301 889 
Q 1547 409 2034 409 
Q 2525 409 2770 889 
Q 3016 1369 3016 2328 
Q 3016 3291 2770 3770 
Q 2525 4250 2034 4250 
z
M 2034 4750 
Q 2819 4750 3233 4129 
Q 3647 3509 3647 2328 
Q 3647 1150 3233 529 
Q 2819 -91 2034 -91 
Q 1250 -91 836 529 
Q 422 1150 422 2328 
Q 422 3509 836 4129 
Q 1250 4750 2034 4750 
z
" id="DejaVuSans-30" transform="scale(0.015625)"/>
       </defs>
       <use xlink:href="#DejaVuSans-30"/>
      </g>
     </g>
    </g>
    <g id="xtick_2">
     <g id="line2d_3">
      <path clip-path="url(#pf12316c81d)" d="M 137.910857 298.944 
L 137.910857 27.648 
" style="fill:none;stroke:#b0b0b0;stroke-linecap:square;stroke-width:0.8;"/>
     </g>
     <g id="line2d_4">
      <g>
       <use style="stroke:#000000;stroke-width:0.8;" x="137.910857" xlink:href="#mfc588ec141" y="298.944"/>
      </g>
     </g>
     <g id="text_2">
      <!-- 2 -->
      <g transform="translate(131.548357 321.140875)scale(0.2 -0.2)">
       <defs>
        <path d="M 1228 531 
L 3431 531 
L 3431 0 
L 469 0 
L 469 531 
Q 828 903 1448 1529 
Q 2069 2156 2228 2338 
Q 2531 2678 2651 2914 
Q 2772 3150 2772 3378 
Q 2772 3750 2511 3984 
Q 2250 4219 1831 4219 
Q 1534 4219 1204 4116 
Q 875 4013 500 3803 
L 500 4441 
Q 881 4594 1212 4672 
Q 1544 4750 1819 4750 
Q 2544 4750 2975 4387 
Q 3406 4025 3406 3419 
Q 3406 3131 3298 2873 
Q 3191 2616 2906 2266 
Q 2828 2175 2409 1742 
Q 1991 1309 1228 531 
z
" id="DejaVuSans-32" transform="scale(0.015625)"/>
       </defs>
       <use xlink:href="#DejaVuSans-32"/>
      </g>
     </g>
    </g>
    <g id="xtick_3">
     <g id="line2d_5">
      <path clip-path="url(#pf12316c81d)" d="M 218.221714 298.944 
L 218.221714 27.648 
" style="fill:none;stroke:#b0b0b0;stroke-linecap:square;stroke-width:0.8;"/>
     </g>
     <g id="line2d_6">
      <g>
       <use style="stroke:#000000;stroke-width:0.8;" x="218.221714" xlink:href="#mfc588ec141" y="298.944"/>
      </g>
     </g>
     <g id="text_3">
      <!-- 4 -->
      <g transform="translate(211.859214 321.140875)scale(0.2 -0.2)">
       <defs>
        <path d="M 2419 4116 
L 825 1625 
L 2419 1625 
L 2419 4116 
z
M 2253 4666 
L 3047 4666 
L 3047 1625 
L 3713 1625 
L 3713 1100 
L 3047 1100 
L 3047 0 
L 2419 0 
L 2419 1100 
L 313 1100 
L 313 1709 
L 2253 4666 
z
" id="DejaVuSans-34" transform="scale(0.015625)"/>
       </defs>
       <use xlink:href="#DejaVuSans-34"/>
      </g>
     </g>
    </g>
    <g id="xtick_4">
     <g id="line2d_7">
      <path clip-path="url(#pf12316c81d)" d="M 298.532571 298.944 
L 298.532571 27.648 
" style="fill:none;stroke:#b0b0b0;stroke-linecap:square;stroke-width:0.8;"/>
     </g>
     <g id="line2d_8">
      <g>
       <use style="stroke:#000000;stroke-width:0.8;" x="298.532571" xlink:href="#mfc588ec141" y="298.944"/>
      </g>
     </g>
     <g id="text_4">
      <!-- 6 -->
      <g transform="translate(292.170071 321.140875)scale(0.2 -0.2)">
       <defs>
        <path d="M 2113 2584 
Q 1688 2584 1439 2293 
Q 1191 2003 1191 1497 
Q 1191 994 1439 701 
Q 1688 409 2113 409 
Q 2538 409 2786 701 
Q 3034 994 3034 1497 
Q 3034 2003 2786 2293 
Q 2538 2584 2113 2584 
z
M 3366 4563 
L 3366 3988 
Q 3128 4100 2886 4159 
Q 2644 4219 2406 4219 
Q 1781 4219 1451 3797 
Q 1122 3375 1075 2522 
Q 1259 2794 1537 2939 
Q 1816 3084 2150 3084 
Q 2853 3084 3261 2657 
Q 3669 2231 3669 1497 
Q 3669 778 3244 343 
Q 2819 -91 2113 -91 
Q 1303 -91 875 529 
Q 447 1150 447 2328 
Q 447 3434 972 4092 
Q 1497 4750 2381 4750 
Q 2619 4750 2861 4703 
Q 3103 4656 3366 4563 
z
" id="DejaVuSans-36" transform="scale(0.015625)"/>
       </defs>
       <use xlink:href="#DejaVuSans-36"/>
      </g>
     </g>
    </g>
    <g id="xtick_5">
     <g id="line2d_9">
      <path clip-path="url(#pf12316c81d)" d="M 97.755429 298.944 
L 97.755429 27.648 
" style="fill:none;stroke:#b0b0b0;stroke-linecap:square;stroke-width:0.8;"/>
     </g>
     <g id="line2d_10">
      <defs>
       <path d="M 0 0 
L 0 2 
" id="mc6a784780f" style="stroke:#000000;stroke-width:0.6;"/>
      </defs>
      <g>
       <use style="stroke:#000000;stroke-width:0.6;" x="97.755429" xlink:href="#mc6a784780f" y="298.944"/>
      </g>
     </g>
    </g>
    <g id="xtick_6">
     <g id="line2d_11">
      <path clip-path="url(#pf12316c81d)" d="M 178.066286 298.944 
L 178.066286 27.648 
" style="fill:none;stroke:#b0b0b0;stroke-linecap:square;stroke-width:0.8;"/>
     </g>
     <g id="line2d_12">
      <g>
       <use style="stroke:#000000;stroke-width:0.6;" x="178.066286" xlink:href="#mc6a784780f" y="298.944"/>
      </g>
     </g>
    </g>
    <g id="xtick_7">
     <g id="line2d_13">
      <path clip-path="url(#pf12316c81d)" d="M 258.377143 298.944 
L 258.377143 27.648 
" style="fill:none;stroke:#b0b0b0;stroke-linecap:square;stroke-width:0.8;"/>
     </g>
     <g id="line2d_14">
      <g>
       <use style="stroke:#000000;stroke-width:0.6;" x="258.377143" xlink:href="#mc6a784780f" y="298.944"/>
      </g>
     </g>
    </g>
    <g id="xtick_8">
     <g id="line2d_15">
      <path clip-path="url(#pf12316c81d)" d="M 338.688 298.944 
L 338.688 27.648 
" style="fill:none;stroke:#b0b0b0;stroke-linecap:square;stroke-width:0.8;"/>
     </g>
     <g id="line2d_16">
      <g>
       <use style="stroke:#000000;stroke-width:0.6;" x="338.688" xlink:href="#mc6a784780f" y="298.944"/>
      </g>
     </g>
    </g>
    <g id="text_5">
     <!-- log10(# f-evals / dimension) -->
     <g transform="translate(77.764078 342.217594)scale(0.17 -0.17)">
      <defs>
       <path d="M 603 4863 
L 1178 4863 
L 1178 0 
L 603 0 
L 603 4863 
z
" id="DejaVuSans-6c" transform="scale(0.015625)"/>
       <path d="M 1959 3097 
Q 1497 3097 1228 2736 
Q 959 2375 959 1747 
Q 959 1119 1226 758 
Q 1494 397 1959 397 
Q 2419 397 2687 759 
Q 2956 1122 2956 1747 
Q 2956 2369 2687 2733 
Q 2419 3097 1959 3097 
z
M 1959 3584 
Q 2709 3584 3137 3096 
Q 3566 2609 3566 1747 
Q 3566 888 3137 398 
Q 2709 -91 1959 -91 
Q 1206 -91 779 398 
Q 353 888 353 1747 
Q 353 2609 779 3096 
Q 1206 3584 1959 3584 
z
" id="DejaVuSans-6f" transform="scale(0.015625)"/>
       <path d="M 2906 1791 
Q 2906 2416 2648 2759 
Q 2391 3103 1925 3103 
Q 1463 3103 1205 2759 
Q 947 2416 947 1791 
Q 947 1169 1205 825 
Q 1463 481 1925 481 
Q 2391 481 2648 825 
Q 2906 1169 2906 1791 
z
M 3481 434 
Q 3481 -459 3084 -895 
Q 2688 -1331 1869 -1331 
Q 1566 -1331 1297 -1286 
Q 1028 -1241 775 -1147 
L 775 -588 
Q 1028 -725 1275 -790 
Q 1522 -856 1778 -856 
Q 2344 -856 2625 -561 
Q 2906 -266 2906 331 
L 2906 616 
Q 2728 306 2450 153 
Q 2172 0 1784 0 
Q 1141 0 747 490 
Q 353 981 353 1791 
Q 353 2603 747 3093 
Q 1141 3584 1784 3584 
Q 2172 3584 2450 3431 
Q 2728 3278 2906 2969 
L 2906 3500 
L 3481 3500 
L 3481 434 
z
" id="DejaVuSans-67" transform="scale(0.015625)"/>
       <path d="M 794 531 
L 1825 531 
L 1825 4091 
L 703 3866 
L 703 4441 
L 1819 4666 
L 2450 4666 
L 2450 531 
L 3481 531 
L 3481 0 
L 794 0 
L 794 531 
z
" id="DejaVuSans-31" transform="scale(0.015625)"/>
       <path d="M 1984 4856 
Q 1566 4138 1362 3434 
Q 1159 2731 1159 2009 
Q 1159 1288 1364 580 
Q 1569 -128 1984 -844 
L 1484 -844 
Q 1016 -109 783 600 
Q 550 1309 550 2009 
Q 550 2706 781 3412 
Q 1013 4119 1484 4856 
L 1984 4856 
z
" id="DejaVuSans-28" transform="scale(0.015625)"/>
       <path d="M 3272 2816 
L 2363 2816 
L 2100 1772 
L 3016 1772 
L 3272 2816 
z
M 2803 4594 
L 2478 3297 
L 3391 3297 
L 3719 4594 
L 4219 4594 
L 3897 3297 
L 4872 3297 
L 4872 2816 
L 3775 2816 
L 3519 1772 
L 4513 1772 
L 4513 1294 
L 3397 1294 
L 3072 0 
L 2572 0 
L 2894 1294 
L 1978 1294 
L 1656 0 
L 1153 0 
L 1478 1294 
L 494 1294 
L 494 1772 
L 1594 1772 
L 1856 2816 
L 850 2816 
L 850 3297 
L 1978 3297 
L 2297 4594 
L 2803 4594 
z
" id="DejaVuSans-23" transform="scale(0.015625)"/>
       <path id="DejaVuSans-20" transform="scale(0.015625)"/>
       <path d="M 2375 4863 
L 2375 4384 
L 1825 4384 
Q 1516 4384 1395 4259 
Q 1275 4134 1275 3809 
L 1275 3500 
L 2222 3500 
L 2222 3053 
L 1275 3053 
L 1275 0 
L 697 0 
L 697 3053 
L 147 3053 
L 147 3500 
L 697 3500 
L 697 3744 
Q 697 4328 969 4595 
Q 1241 4863 1831 4863 
L 2375 4863 
z
" id="DejaVuSans-66" transform="scale(0.015625)"/>
       <path d="M 313 2009 
L 1997 2009 
L 1997 1497 
L 313 1497 
L 313 2009 
z
" id="DejaVuSans-2d" transform="scale(0.015625)"/>
       <path d="M 3597 1894 
L 3597 1613 
L 953 1613 
Q 991 1019 1311 708 
Q 1631 397 2203 397 
Q 2534 397 2845 478 
Q 3156 559 3463 722 
L 3463 178 
Q 3153 47 2828 -22 
Q 2503 -91 2169 -91 
Q 1331 -91 842 396 
Q 353 884 353 1716 
Q 353 2575 817 3079 
Q 1281 3584 2069 3584 
Q 2775 3584 3186 3129 
Q 3597 2675 3597 1894 
z
M 3022 2063 
Q 3016 2534 2758 2815 
Q 2500 3097 2075 3097 
Q 1594 3097 1305 2825 
Q 1016 2553 972 2059 
L 3022 2063 
z
" id="DejaVuSans-65" transform="scale(0.015625)"/>
       <path d="M 191 3500 
L 800 3500 
L 1894 563 
L 2988 3500 
L 3597 3500 
L 2284 0 
L 1503 0 
L 191 3500 
z
" id="DejaVuSans-76" transform="scale(0.015625)"/>
       <path d="M 2194 1759 
Q 1497 1759 1228 1600 
Q 959 1441 959 1056 
Q 959 750 1161 570 
Q 1363 391 1709 391 
Q 2188 391 2477 730 
Q 2766 1069 2766 1631 
L 2766 1759 
L 2194 1759 
z
M 3341 1997 
L 3341 0 
L 2766 0 
L 2766 531 
Q 2569 213 2275 61 
Q 1981 -91 1556 -91 
Q 1019 -91 701 211 
Q 384 513 384 1019 
Q 384 1609 779 1909 
Q 1175 2209 1959 2209 
L 2766 2209 
L 2766 2266 
Q 2766 2663 2505 2880 
Q 2244 3097 1772 3097 
Q 1472 3097 1187 3025 
Q 903 2953 641 2809 
L 641 3341 
Q 956 3463 1253 3523 
Q 1550 3584 1831 3584 
Q 2591 3584 2966 3190 
Q 3341 2797 3341 1997 
z
" id="DejaVuSans-61" transform="scale(0.015625)"/>
       <path d="M 2834 3397 
L 2834 2853 
Q 2591 2978 2328 3040 
Q 2066 3103 1784 3103 
Q 1356 3103 1142 2972 
Q 928 2841 928 2578 
Q 928 2378 1081 2264 
Q 1234 2150 1697 2047 
L 1894 2003 
Q 2506 1872 2764 1633 
Q 3022 1394 3022 966 
Q 3022 478 2636 193 
Q 2250 -91 1575 -91 
Q 1294 -91 989 -36 
Q 684 19 347 128 
L 347 722 
Q 666 556 975 473 
Q 1284 391 1588 391 
Q 1994 391 2212 530 
Q 2431 669 2431 922 
Q 2431 1156 2273 1281 
Q 2116 1406 1581 1522 
L 1381 1569 
Q 847 1681 609 1914 
Q 372 2147 372 2553 
Q 372 3047 722 3315 
Q 1072 3584 1716 3584 
Q 2034 3584 2315 3537 
Q 2597 3491 2834 3397 
z
" id="DejaVuSans-73" transform="scale(0.015625)"/>
       <path d="M 1625 4666 
L 2156 4666 
L 531 -594 
L 0 -594 
L 1625 4666 
z
" id="DejaVuSans-2f" transform="scale(0.015625)"/>
       <path d="M 2906 2969 
L 2906 4863 
L 3481 4863 
L 3481 0 
L 2906 0 
L 2906 525 
Q 2725 213 2448 61 
Q 2172 -91 1784 -91 
Q 1150 -91 751 415 
Q 353 922 353 1747 
Q 353 2572 751 3078 
Q 1150 3584 1784 3584 
Q 2172 3584 2448 3432 
Q 2725 3281 2906 2969 
z
M 947 1747 
Q 947 1113 1208 752 
Q 1469 391 1925 391 
Q 2381 391 2643 752 
Q 2906 1113 2906 1747 
Q 2906 2381 2643 2742 
Q 2381 3103 1925 3103 
Q 1469 3103 1208 2742 
Q 947 2381 947 1747 
z
" id="DejaVuSans-64" transform="scale(0.015625)"/>
       <path d="M 603 3500 
L 1178 3500 
L 1178 0 
L 603 0 
L 603 3500 
z
M 603 4863 
L 1178 4863 
L 1178 4134 
L 603 4134 
L 603 4863 
z
" id="DejaVuSans-69" transform="scale(0.015625)"/>
       <path d="M 3328 2828 
Q 3544 3216 3844 3400 
Q 4144 3584 4550 3584 
Q 5097 3584 5394 3201 
Q 5691 2819 5691 2113 
L 5691 0 
L 5113 0 
L 5113 2094 
Q 5113 2597 4934 2840 
Q 4756 3084 4391 3084 
Q 3944 3084 3684 2787 
Q 3425 2491 3425 1978 
L 3425 0 
L 2847 0 
L 2847 2094 
Q 2847 2600 2669 2842 
Q 2491 3084 2119 3084 
Q 1678 3084 1418 2786 
Q 1159 2488 1159 1978 
L 1159 0 
L 581 0 
L 581 3500 
L 1159 3500 
L 1159 2956 
Q 1356 3278 1631 3431 
Q 1906 3584 2284 3584 
Q 2666 3584 2933 3390 
Q 3200 3197 3328 2828 
z
" id="DejaVuSans-6d" transform="scale(0.015625)"/>
       <path d="M 3513 2113 
L 3513 0 
L 2938 0 
L 2938 2094 
Q 2938 2591 2744 2837 
Q 2550 3084 2163 3084 
Q 1697 3084 1428 2787 
Q 1159 2491 1159 1978 
L 1159 0 
L 581 0 
L 581 3500 
L 1159 3500 
L 1159 2956 
Q 1366 3272 1645 3428 
Q 1925 3584 2291 3584 
Q 2894 3584 3203 3211 
Q 3513 2838 3513 2113 
z
" id="DejaVuSans-6e" transform="scale(0.015625)"/>
       <path d="M 513 4856 
L 1013 4856 
Q 1481 4119 1714 3412 
Q 1947 2706 1947 2009 
Q 1947 1309 1714 600 
Q 1481 -109 1013 -844 
L 513 -844 
Q 928 -128 1133 580 
Q 1338 1288 1338 2009 
Q 1338 2731 1133 3434 
Q 928 4138 513 4856 
z
" id="DejaVuSans-29" transform="scale(0.015625)"/>
      </defs>
      <use xlink:href="#DejaVuSans-6c"/>
      <use x="27.783203" xlink:href="#DejaVuSans-6f"/>
      <use x="88.964844" xlink:href="#DejaVuSans-67"/>
      <use x="152.441406" xlink:href="#DejaVuSans-31"/>
      <use x="216.064453" xlink:href="#DejaVuSans-30"/>
      <use x="279.6875" xlink:href="#DejaVuSans-28"/>
      <use x="318.701172" xlink:href="#DejaVuSans-23"/>
      <use x="402.490234" xlink:href="#DejaVuSans-20"/>
      <use x="434.277344" xlink:href="#DejaVuSans-66"/>
      <use x="463.982422" xlink:href="#DejaVuSans-2d"/>
      <use x="500.066406" xlink:href="#DejaVuSans-65"/>
      <use x="561.589844" xlink:href="#DejaVuSans-76"/>
      <use x="620.769531" xlink:href="#DejaVuSans-61"/>
      <use x="682.048828" xlink:href="#DejaVuSans-6c"/>
      <use x="709.832031" xlink:href="#DejaVuSans-73"/>
      <use x="761.931641" xlink:href="#DejaVuSans-20"/>
      <use x="793.71875" xlink:href="#DejaVuSans-2f"/>
      <use x="827.410156" xlink:href="#DejaVuSans-20"/>
      <use x="859.197266" xlink:href="#DejaVuSans-64"/>
      <use x="922.673828" xlink:href="#DejaVuSans-69"/>
      <use x="950.457031" xlink:href="#DejaVuSans-6d"/>
      <use x="1047.869141" xlink:href="#DejaVuSans-65"/>
      <use x="1109.392578" xlink:href="#DejaVuSans-6e"/>
      <use x="1172.771484" xlink:href="#DejaVuSans-73"/>
      <use x="1224.871094" xlink:href="#DejaVuSans-69"/>
      <use x="1252.654297" xlink:href="#DejaVuSans-6f"/>
      <use x="1313.835938" xlink:href="#DejaVuSans-6e"/>
      <use x="1377.214844" xlink:href="#DejaVuSans-29"/>
     </g>
    </g>
   </g>
   <g id="matplotlib.axis_2">
    <g id="ytick_1">
     <g id="line2d_17">
      <path clip-path="url(#pf12316c81d)" d="M 57.6 298.944 
L 338.688 298.944 
" style="fill:none;stroke:#b0b0b0;stroke-linecap:square;stroke-width:0.8;"/>
     </g>
     <g id="line2d_18">
      <defs>
       <path d="M 0 0 
L -3.5 0 
" id="mc3e8202beb" style="stroke:#000000;stroke-width:0.8;"/>
      </defs>
      <g>
       <use style="stroke:#000000;stroke-width:0.8;" x="57.6" xlink:href="#mc3e8202beb" y="298.944"/>
      </g>
     </g>
     <g id="text_6">
      <!-- 0.0 -->
      <g transform="translate(25.155 305.02275)scale(0.16 -0.16)">
       <defs>
        <path d="M 684 794 
L 1344 794 
L 1344 0 
L 684 0 
L 684 794 
z
" id="DejaVuSans-2e" transform="scale(0.015625)"/>
       </defs>
       <use xlink:href="#DejaVuSans-30"/>
       <use x="63.623047" xlink:href="#DejaVuSans-2e"/>
       <use x="95.410156" xlink:href="#DejaVuSans-30"/>
      </g>
     </g>
    </g>
    <g id="ytick_2">
     <g id="line2d_19">
      <path clip-path="url(#pf12316c81d)" d="M 57.6 245.22202 
L 338.688 245.22202 
" style="fill:none;stroke:#b0b0b0;stroke-linecap:square;stroke-width:0.8;"/>
     </g>
     <g id="line2d_20">
      <g>
       <use style="stroke:#000000;stroke-width:0.8;" x="57.6" xlink:href="#mc3e8202beb" y="245.22202"/>
      </g>
     </g>
     <g id="text_7">
      <!-- 0.2 -->
      <g transform="translate(25.155 251.30077)scale(0.16 -0.16)">
       <use xlink:href="#DejaVuSans-30"/>
       <use x="63.623047" xlink:href="#DejaVuSans-2e"/>
       <use x="95.410156" xlink:href="#DejaVuSans-32"/>
      </g>
     </g>
    </g>
    <g id="ytick_3">
     <g id="line2d_21">
      <path clip-path="url(#pf12316c81d)" d="M 57.6 191.50004 
L 338.688 191.50004 
" style="fill:none;stroke:#b0b0b0;stroke-linecap:square;stroke-width:0.8;"/>
     </g>
     <g id="line2d_22">
      <g>
       <use style="stroke:#000000;stroke-width:0.8;" x="57.6" xlink:href="#mc3e8202beb" y="191.50004"/>
      </g>
     </g>
     <g id="text_8">
      <!-- 0.4 -->
      <g transform="translate(25.155 197.57879)scale(0.16 -0.16)">
       <use xlink:href="#DejaVuSans-30"/>
       <use x="63.623047" xlink:href="#DejaVuSans-2e"/>
       <use x="95.410156" xlink:href="#DejaVuSans-34"/>
      </g>
     </g>
    </g>
    <g id="ytick_4">
     <g id="line2d_23">
      <path clip-path="url(#pf12316c81d)" d="M 57.6 137.778059 
L 338.688 137.778059 
" style="fill:none;stroke:#b0b0b0;stroke-linecap:square;stroke-width:0.8;"/>
     </g>
     <g id="line2d_24">
      <g>
       <use style="stroke:#000000;stroke-width:0.8;" x="57.6" xlink:href="#mc3e8202beb" y="137.778059"/>
      </g>
     </g>
     <g id="text_9">
      <!-- 0.6 -->
      <g transform="translate(25.155 143.856809)scale(0.16 -0.16)">
       <use xlink:href="#DejaVuSans-30"/>
       <use x="63.623047" xlink:href="#DejaVuSans-2e"/>
       <use x="95.410156" xlink:href="#DejaVuSans-36"/>
      </g>
     </g>
    </g>
    <g id="ytick_5">
     <g id="line2d_25">
      <path clip-path="url(#pf12316c81d)" d="M 57.6 84.056079 
L 338.688 84.056079 
" style="fill:none;stroke:#b0b0b0;stroke-linecap:square;stroke-width:0.8;"/>
     </g>
     <g id="line2d_26">
      <g>
       <use style="stroke:#000000;stroke-width:0.8;" x="57.6" xlink:href="#mc3e8202beb" y="84.056079"/>
      </g>
     </g>
     <g id="text_10">
      <!-- 0.8 -->
      <g transform="translate(25.155 90.134829)scale(0.16 -0.16)">
       <defs>
        <path d="M 2034 2216 
Q 1584 2216 1326 1975 
Q 1069 1734 1069 1313 
Q 1069 891 1326 650 
Q 1584 409 2034 409 
Q 2484 409 2743 651 
Q 3003 894 3003 1313 
Q 3003 1734 2745 1975 
Q 2488 2216 2034 2216 
z
M 1403 2484 
Q 997 2584 770 2862 
Q 544 3141 544 3541 
Q 544 4100 942 4425 
Q 1341 4750 2034 4750 
Q 2731 4750 3128 4425 
Q 3525 4100 3525 3541 
Q 3525 3141 3298 2862 
Q 3072 2584 2669 2484 
Q 3125 2378 3379 2068 
Q 3634 1759 3634 1313 
Q 3634 634 3220 271 
Q 2806 -91 2034 -91 
Q 1263 -91 848 271 
Q 434 634 434 1313 
Q 434 1759 690 2068 
Q 947 2378 1403 2484 
z
M 1172 3481 
Q 1172 3119 1398 2916 
Q 1625 2713 2034 2713 
Q 2441 2713 2670 2916 
Q 2900 3119 2900 3481 
Q 2900 3844 2670 4047 
Q 2441 4250 2034 4250 
Q 1625 4250 1398 4047 
Q 1172 3844 1172 3481 
z
" id="DejaVuSans-38" transform="scale(0.015625)"/>
       </defs>
       <use xlink:href="#DejaVuSans-30"/>
       <use x="63.623047" xlink:href="#DejaVuSans-2e"/>
       <use x="95.410156" xlink:href="#DejaVuSans-38"/>
      </g>
     </g>
    </g>
    <g id="ytick_6">
     <g id="line2d_27">
      <path clip-path="url(#pf12316c81d)" d="M 57.6 30.334099 
L 338.688 30.334099 
" style="fill:none;stroke:#b0b0b0;stroke-linecap:square;stroke-width:0.8;"/>
     </g>
     <g id="line2d_28">
      <g>
       <use style="stroke:#000000;stroke-width:0.8;" x="57.6" xlink:href="#mc3e8202beb" y="30.334099"/>
      </g>
     </g>
     <g id="text_11">
      <!-- 1.0 -->
      <g transform="translate(25.155 36.412849)scale(0.16 -0.16)">
       <use xlink:href="#DejaVuSans-31"/>
       <use x="63.623047" xlink:href="#DejaVuSans-2e"/>
       <use x="95.410156" xlink:href="#DejaVuSans-30"/>
      </g>
     </g>
    </g>
    <g id="text_12">
     <!-- Fraction of function,target pairs -->
     <g transform="translate(17.619531 297.681)rotate(-90)scale(0.17 -0.17)">
      <defs>
       <path d="M 628 4666 
L 3309 4666 
L 3309 4134 
L 1259 4134 
L 1259 2759 
L 3109 2759 
L 3109 2228 
L 1259 2228 
L 1259 0 
L 628 0 
L 628 4666 
z
" id="DejaVuSans-46" transform="scale(0.015625)"/>
       <path d="M 2631 2963 
Q 2534 3019 2420 3045 
Q 2306 3072 2169 3072 
Q 1681 3072 1420 2755 
Q 1159 2438 1159 1844 
L 1159 0 
L 581 0 
L 581 3500 
L 1159 3500 
L 1159 2956 
Q 1341 3275 1631 3429 
Q 1922 3584 2338 3584 
Q 2397 3584 2469 3576 
Q 2541 3569 2628 3553 
L 2631 2963 
z
" id="DejaVuSans-72" transform="scale(0.015625)"/>
       <path d="M 3122 3366 
L 3122 2828 
Q 2878 2963 2633 3030 
Q 2388 3097 2138 3097 
Q 1578 3097 1268 2742 
Q 959 2388 959 1747 
Q 959 1106 1268 751 
Q 1578 397 2138 397 
Q 2388 397 2633 464 
Q 2878 531 3122 666 
L 3122 134 
Q 2881 22 2623 -34 
Q 2366 -91 2075 -91 
Q 1284 -91 818 406 
Q 353 903 353 1747 
Q 353 2603 823 3093 
Q 1294 3584 2113 3584 
Q 2378 3584 2631 3529 
Q 2884 3475 3122 3366 
z
" id="DejaVuSans-63" transform="scale(0.015625)"/>
       <path d="M 1172 4494 
L 1172 3500 
L 2356 3500 
L 2356 3053 
L 1172 3053 
L 1172 1153 
Q 1172 725 1289 603 
Q 1406 481 1766 481 
L 2356 481 
L 2356 0 
L 1766 0 
Q 1100 0 847 248 
Q 594 497 594 1153 
L 594 3053 
L 172 3053 
L 172 3500 
L 594 3500 
L 594 4494 
L 1172 4494 
z
" id="DejaVuSans-74" transform="scale(0.015625)"/>
       <path d="M 544 1381 
L 544 3500 
L 1119 3500 
L 1119 1403 
Q 1119 906 1312 657 
Q 1506 409 1894 409 
Q 2359 409 2629 706 
Q 2900 1003 2900 1516 
L 2900 3500 
L 3475 3500 
L 3475 0 
L 2900 0 
L 2900 538 
Q 2691 219 2414 64 
Q 2138 -91 1772 -91 
Q 1169 -91 856 284 
Q 544 659 544 1381 
z
M 1991 3584 
L 1991 3584 
z
" id="DejaVuSans-75" transform="scale(0.015625)"/>
       <path d="M 750 794 
L 1409 794 
L 1409 256 
L 897 -744 
L 494 -744 
L 750 256 
L 750 794 
z
" id="DejaVuSans-2c" transform="scale(0.015625)"/>
       <path d="M 1159 525 
L 1159 -1331 
L 581 -1331 
L 581 3500 
L 1159 3500 
L 1159 2969 
Q 1341 3281 1617 3432 
Q 1894 3584 2278 3584 
Q 2916 3584 3314 3078 
Q 3713 2572 3713 1747 
Q 3713 922 3314 415 
Q 2916 -91 2278 -91 
Q 1894 -91 1617 61 
Q 1341 213 1159 525 
z
M 3116 1747 
Q 3116 2381 2855 2742 
Q 2594 3103 2138 3103 
Q 1681 3103 1420 2742 
Q 1159 2381 1159 1747 
Q 1159 1113 1420 752 
Q 1681 391 2138 391 
Q 2594 391 2855 752 
Q 3116 1113 3116 1747 
z
" id="DejaVuSans-70" transform="scale(0.015625)"/>
      </defs>
      <use xlink:href="#DejaVuSans-46"/>
      <use x="50.269531" xlink:href="#DejaVuSans-72"/>
      <use x="91.382812" xlink:href="#DejaVuSans-61"/>
      <use x="152.662109" xlink:href="#DejaVuSans-63"/>
      <use x="207.642578" xlink:href="#DejaVuSans-74"/>
      <use x="246.851562" xlink:href="#DejaVuSans-69"/>
      <use x="274.634766" xlink:href="#DejaVuSans-6f"/>
      <use x="335.816406" xlink:href="#DejaVuSans-6e"/>
      <use x="399.195312" xlink:href="#DejaVuSans-20"/>
      <use x="430.982422" xlink:href="#DejaVuSans-6f"/>
      <use x="492.164062" xlink:href="#DejaVuSans-66"/>
      <use x="527.369141" xlink:href="#DejaVuSans-20"/>
      <use x="559.15625" xlink:href="#DejaVuSans-66"/>
      <use x="594.361328" xlink:href="#DejaVuSans-75"/>
      <use x="657.740234" xlink:href="#DejaVuSans-6e"/>
      <use x="721.119141" xlink:href="#DejaVuSans-63"/>
      <use x="776.099609" xlink:href="#DejaVuSans-74"/>
      <use x="815.308594" xlink:href="#DejaVuSans-69"/>
      <use x="843.091797" xlink:href="#DejaVuSans-6f"/>
      <use x="904.273438" xlink:href="#DejaVuSans-6e"/>
      <use x="967.652344" xlink:href="#DejaVuSans-2c"/>
      <use x="999.439453" xlink:href="#DejaVuSans-74"/>
      <use x="1038.648438" xlink:href="#DejaVuSans-61"/>
      <use x="1099.927734" xlink:href="#DejaVuSans-72"/>
      <use x="1139.291016" xlink:href="#DejaVuSans-67"/>
      <use x="1202.767578" xlink:href="#DejaVuSans-65"/>
      <use x="1264.291016" xlink:href="#DejaVuSans-74"/>
      <use x="1303.5" xlink:href="#DejaVuSans-20"/>
      <use x="1335.287109" xlink:href="#DejaVuSans-70"/>
      <use x="1398.763672" xlink:href="#DejaVuSans-61"/>
      <use x="1460.042969" xlink:href="#DejaVuSans-69"/>
      <use x="1487.826172" xlink:href="#DejaVuSans-72"/>
      <use x="1528.939453" xlink:href="#DejaVuSans-73"/>
     </g>
    </g>
   </g>
   <g id="line2d_29">
    <defs>
     <path d="M 0 1.5 
C 0.397805 1.5 0.77937 1.341951 1.06066 1.06066 
C 1.341951 0.77937 1.5 0.397805 1.5 0 
C 1.5 -0.397805 1.341951 -0.77937 1.06066 -1.06066 
C 0.77937 -1.341951 0.397805 -1.5 0 -1.5 
C -0.397805 -1.5 -0.77937 -1.341951 -1.06066 -1.06066 
C -1.341951 -0.77937 -1.5 -0.397805 -1.5 0 
C -1.5 0.397805 -1.341951 0.77937 -1.06066 1.06066 
C -0.77937 1.341951 -0.397805 1.5 0 1.5 
z
" id="m7ae4126fad" style="stroke:#00bfbf;"/>
    </defs>
    <g>
     <use style="fill:#00bfbf;stroke:#00bfbf;" x="279.382176" xlink:href="#m7ae4126fad" y="30.334099"/>
     <use style="fill:#00bfbf;stroke:#00bfbf;" x="279.382176" xlink:href="#m7ae4126fad" y="30.334099"/>
    </g>
   </g>
   <g id="line2d_30">
    <path d="M 45.512012 298.944 
L 45.512012 287.883592 
L 57.6 287.883592 
L 57.6 282.616732 
L 69.687988 282.616732 
L 69.687988 280.509987 
L 73.579452 280.509987 
L 73.579452 279.456615 
L 76.759008 279.456615 
L 76.759008 276.823185 
L 79.447285 276.823185 
L 79.447285 275.769812 
L 85.66744 275.769812 
L 85.66744 275.243126 
L 87.329581 275.243126 
L 87.329581 273.136382 
L 88.846997 273.136382 
L 88.846997 272.609696 
L 90.242884 272.609696 
L 90.242884 272.08301 
L 91.535274 272.08301 
L 91.535274 271.556324 
L 93.863965 271.556324 
L 93.863965 269.976266 
L 98.606294 269.976266 
L 98.606294 269.449579 
L 102.989037 269.449579 
L 102.989037 268.922893 
L 106.48859 268.922893 
L 106.48859 268.396207 
L 110.694282 268.396207 
L 110.694282 266.816149 
L 113.022974 266.816149 
L 113.022974 265.762777 
L 117.765302 265.762777 
L 117.765302 265.236091 
L 123.394238 265.236091 
L 123.394238 264.709405 
L 124.557288 264.709405 
L 124.557288 264.182719 
L 124.92835 264.182719 
L 124.92835 262.60266 
L 129.290685 262.60266 
L 129.290685 262.075974 
L 132.422528 262.075974 
L 132.422528 261.549288 
L 133.910056 261.549288 
L 133.910056 261.022602 
L 134.343353 261.022602 
L 134.343353 260.495916 
L 134.55603 260.495916 
L 134.55603 259.96923 
L 139.887228 259.96923 
L 139.887228 259.442544 
L 140.499195 259.442544 
L 140.499195 258.389172 
L 141.307054 258.389172 
L 141.307054 257.3358 
L 145.609873 257.3358 
L 145.609873 256.809114 
L 145.721664 256.809114 
L 145.721664 255.755741 
L 146.431341 255.755741 
L 146.431341 254.702369 
L 148.592055 254.702369 
L 148.592055 254.175683 
L 149.15016 254.175683 
L 149.15016 253.648997 
L 150.808139 253.648997 
L 150.808139 253.122311 
L 152.245598 253.122311 
L 152.245598 252.595625 
L 154.807483 252.595625 
L 154.807483 252.068939 
L 162.173813 252.068939 
L 162.173813 251.542253 
L 162.517456 251.542253 
L 162.517456 251.015567 
L 166.391896 251.015567 
L 166.391896 249.962195 
L 166.595075 249.962195 
L 166.595075 249.435508 
L 173.371849 249.435508 
L 173.371849 247.85545 
L 173.744474 247.85545 
L 173.744474 247.328764 
L 174.732584 247.328764 
L 174.732584 246.802078 
L 175.149812 246.802078 
L 175.149812 246.275392 
L 175.466434 246.275392 
L 175.466434 245.748706 
L 184.052058 245.748706 
L 184.052058 245.22202 
L 184.199902 245.22202 
L 184.199902 244.695334 
L 186.026882 244.695334 
L 186.026882 244.168648 
L 187.919997 244.168648 
L 187.919997 243.641962 
L 188.423112 243.641962 
L 188.423112 243.115275 
L 190.48679 243.115275 
L 190.48679 240.481845 
L 190.648581 240.481845 
L 190.648581 239.428473 
L 191.321964 239.428473 
L 191.321964 238.375101 
L 191.717046 238.375101 
L 191.717046 237.848415 
L 191.875766 237.848415 
L 191.875766 237.321729 
L 197.370019 237.321729 
L 197.370019 235.214984 
L 197.53641 235.214984 
L 197.53641 234.688298 
L 198.266123 234.688298 
L 198.266123 234.161612 
L 200.421798 234.161612 
L 200.421798 233.634926 
L 200.616706 233.634926 
L 200.616706 233.10824 
L 200.807093 233.10824 
L 200.807093 232.581554 
L 201.088832 232.581554 
L 201.088832 231.528182 
L 201.729045 231.528182 
L 201.729045 230.47481 
L 202.94091 230.47481 
L 202.94091 228.894751 
L 203.666968 228.894751 
L 203.666968 228.368065 
L 204.542592 228.368065 
L 204.542592 227.314693 
L 205.328926 227.314693 
L 205.363592 226.261321 
L 206.341751 226.261321 
L 206.341751 224.681263 
L 206.780777 224.681263 
L 206.780777 224.154577 
L 207.065785 224.154577 
L 207.065785 223.101204 
L 207.378716 223.101204 
L 207.378716 222.047832 
L 207.953689 222.047832 
L 207.953689 220.467774 
L 208.172269 220.467774 
L 208.172269 219.941088 
L 208.631627 219.941088 
L 208.631627 219.414402 
L 209.049712 219.414402 
L 209.049712 218.36103 
L 209.486809 218.36103 
L 209.486809 216.780971 
L 211.097861 216.780971 
L 211.097861 216.254285 
L 212.051315 216.254285 
L 212.073659 214.674227 
L 212.172619 214.674227 
L 212.24893 213.620855 
L 212.395685 213.620855 
L 212.395685 213.094169 
L 212.589456 213.094169 
L 212.589456 212.567483 
L 212.918734 212.567483 
L 212.918734 212.040797 
L 213.272048 212.040797 
L 213.272048 211.514111 
L 213.663701 211.514111 
L 213.684072 210.460738 
L 214.044535 210.460738 
L 214.044535 209.934052 
L 214.525348 209.934052 
L 214.525348 209.407366 
L 214.737463 209.407366 
L 214.737463 208.88068 
L 214.925974 208.88068 
L 214.925974 208.353994 
L 215.050875 208.353994 
L 215.087441 207.300622 
L 215.510169 207.300622 
L 215.510169 206.773936 
L 217.291363 206.773936 
L 217.364788 205.193878 
L 217.506174 205.193878 
L 217.506174 204.667192 
L 224.440386 204.667192 
L 224.440386 204.140506 
L 225.495589 204.140506 
L 225.495589 203.613819 
L 225.642637 203.613819 
L 225.642637 202.560447 
L 226.159094 202.560447 
L 226.159094 202.033761 
L 226.444923 202.033761 
L 226.444923 201.507075 
L 227.520568 201.507075 
L 227.520568 200.980389 
L 227.642921 200.980389 
L 227.654094 199.927017 
L 227.755338 199.927017 
L 227.804734 198.873645 
L 228.242621 198.873645 
L 228.242621 198.346959 
L 228.478588 198.346959 
L 228.534187 196.240214 
L 228.89724 196.240214 
L 228.89724 195.713528 
L 229.203718 195.713528 
L 229.203718 194.660156 
L 229.315773 194.660156 
L 229.337453 192.553412 
L 229.625931 192.553412 
L 229.625931 192.026726 
L 229.792444 192.026726 
L 229.828336 190.973354 
L 230.108871 190.973354 
L 230.108871 189.393295 
L 230.354116 189.393295 
L 230.354116 188.339923 
L 230.648206 188.339923 
L 230.648206 187.813237 
L 231.151431 187.813237 
L 231.21943 185.706493 
L 231.319289 185.706493 
L 231.319289 183.599748 
L 231.531945 183.599748 
L 231.531945 183.073062 
L 231.822177 183.073062 
L 231.822177 182.546376 
L 232.013015 182.546376 
L 232.013015 182.01969 
L 234.234269 182.01969 
L 234.234269 181.493004 
L 234.479359 181.493004 
L 234.479359 180.439632 
L 234.726129 180.439632 
L 234.792001 178.859574 
L 235.020779 178.859574 
L 235.020779 178.332888 
L 235.157675 178.332888 
L 235.165597 177.279515 
L 235.268917 177.279515 
L 235.268917 176.752829 
L 235.568161 176.752829 
L 235.632539 173.066027 
L 236.193101 173.066027 
L 236.193101 172.539341 
L 236.549422 172.539341 
L 236.598433 171.485969 
L 236.887549 171.485969 
L 236.887549 170.432596 
L 237.125412 170.432596 
L 237.171951 168.852538 
L 237.249142 168.852538 
L 237.249142 168.325852 
L 237.415566 168.325852 
L 237.415566 167.799166 
L 237.539567 167.799166 
L 237.594492 165.165736 
L 237.697547 165.165736 
L 237.737461 162.532305 
L 237.90185 162.532305 
L 237.986275 159.898875 
L 238.517124 159.898875 
L 238.560641 157.79213 
L 238.636535 157.79213 
L 238.636535 156.738758 
L 238.792164 156.738758 
L 238.845694 155.1587 
L 238.974028 155.1587 
L 239.052374 153.578642 
L 239.090361 153.578642 
L 239.147187 151.998584 
L 239.229466 151.998584 
L 239.23208 150.945211 
L 239.376805 150.945211 
L 239.376805 150.418525 
L 239.490491 150.418525 
L 239.490491 149.365153 
L 239.674428 149.365153 
L 239.747158 148.311781 
L 239.787968 148.311781 
L 239.867538 145.678351 
L 242.082922 145.678351 
L 242.082922 145.151665 
L 243.150497 145.151665 
L 243.150497 144.624978 
L 243.321069 144.624978 
L 243.382572 143.04492 
L 243.563139 143.04492 
L 243.661548 140.938176 
L 243.681406 140.938176 
L 243.749522 138.831432 
L 243.968832 138.831432 
L 243.968832 137.778059 
L 244.215887 137.778059 
L 244.215887 136.198001 
L 244.36277 136.198001 
L 244.36277 134.617943 
L 244.603 134.617943 
L 244.603 134.091257 
L 244.861935 134.091257 
L 244.907678 131.457826 
L 245.005563 131.457826 
L 245.005563 129.877768 
L 246.305714 129.877768 
L 246.305714 128.29771 
L 246.553611 128.29771 
L 246.553611 127.244338 
L 246.703775 127.244338 
L 246.703775 126.717652 
L 246.909635 126.717652 
L 246.992409 124.610907 
L 247.313546 124.610907 
L 247.365925 123.557535 
L 247.548428 123.557535 
L 247.548428 122.504163 
L 247.684022 122.504163 
L 247.684022 121.450791 
L 247.812499 121.450791 
L 247.83773 119.870733 
L 247.97031 119.870733 
L 248.068221 117.237302 
L 248.124822 117.237302 
L 248.124822 116.710616 
L 248.237475 116.710616 
L 248.2842 115.130558 
L 248.583063 115.130558 
L 248.647467 111.970441 
L 248.787055 111.970441 
L 248.787055 111.443755 
L 248.934228 111.443755 
L 249.026591 110.390383 
L 249.198352 110.390383 
L 249.305327 108.810325 
L 250.911621 108.810325 
L 250.911621 108.283639 
L 251.376175 108.283639 
L 251.451309 106.176895 
L 251.653133 106.176895 
L 251.667872 105.123522 
L 251.848085 105.123522 
L 251.918944 104.07015 
L 252.014653 104.07015 
L 252.020805 102.490092 
L 252.421789 102.490092 
L 252.515028 99.329976 
L 253.387126 99.329976 
L 253.387126 98.803289 
L 253.555788 98.803289 
L 253.555788 98.276603 
L 253.699362 98.276603 
L 253.699362 97.749917 
L 253.81879 97.749917 
L 253.827847 96.696545 
L 254.196418 96.696545 
L 254.30237 92.483056 
L 254.390376 92.483056 
L 254.43853 89.849626 
L 254.682932 89.849626 
L 254.715233 88.796254 
L 254.93097 88.796254 
L 254.93097 88.269568 
L 255.064541 88.269568 
L 255.169242 87.216196 
L 255.232012 87.216196 
L 255.30704 85.109451 
L 255.444273 85.109451 
L 255.460256 83.529393 
L 256.598538 83.529393 
L 256.687147 81.949335 
L 256.737127 81.949335 
L 256.737127 81.422649 
L 256.931366 81.422649 
L 256.956169 79.842591 
L 257.112781 79.842591 
L 257.121966 78.789218 
L 257.255543 78.789218 
L 257.255543 78.262532 
L 257.440536 78.262532 
L 257.491984 76.682474 
L 257.70008 76.682474 
L 257.747154 75.629102 
L 257.812124 75.629102 
L 257.855303 74.57573 
L 258.404414 74.57573 
L 258.509873 72.995672 
L 258.729068 72.995672 
L 258.74615 71.942299 
L 258.923837 71.942299 
L 258.923837 71.415613 
L 259.041662 71.415613 
L 259.088519 69.308869 
L 259.237971 69.308869 
L 259.27354 68.255497 
L 259.659278 68.255497 
L 259.670778 67.202125 
L 259.776518 67.202125 
L 259.777322 66.148752 
L 259.892335 66.148752 
L 259.975434 64.568694 
L 261.139603 64.568694 
L 261.139603 64.042008 
L 261.264556 64.042008 
L 261.296669 62.988636 
L 261.418236 62.988636 
L 261.523388 61.935264 
L 261.711655 61.935264 
L 261.711655 60.881892 
L 262.435639 60.881892 
L 262.54522 59.82852 
L 262.550712 59.82852 
L 262.564434 58.248461 
L 262.707324 58.248461 
L 262.707324 57.721775 
L 262.840009 57.721775 
L 262.840009 56.668403 
L 262.989372 56.668403 
L 263.074237 55.088345 
L 263.538325 55.088345 
L 263.538325 54.561659 
L 264.282804 54.561659 
L 264.282804 54.034973 
L 264.512476 54.034973 
L 264.512476 53.508287 
L 264.637214 53.508287 
L 264.723172 52.454914 
L 264.76421 52.454914 
L 264.76421 51.928228 
L 265.685746 51.928228 
L 265.685746 51.401542 
L 265.878104 51.401542 
L 265.979781 49.821484 
L 266.13885 49.821484 
L 266.13885 49.294798 
L 266.384961 49.294798 
L 266.393993 48.241426 
L 267.40007 48.241426 
L 267.447771 47.188054 
L 267.551852 47.188054 
L 267.636149 46.134681 
L 267.740441 46.134681 
L 267.740441 45.607995 
L 268.255912 45.607995 
L 268.34028 44.027937 
L 268.435315 44.027937 
L 268.435315 43.501251 
L 268.633532 43.501251 
L 268.633532 42.974565 
L 268.934837 42.974565 
L 268.934837 42.447879 
L 269.773559 42.447879 
L 269.822526 40.341135 
L 269.913347 40.341135 
L 269.924548 39.287762 
L 270.119127 39.287762 
L 270.119127 38.761076 
L 270.537007 38.761076 
L 270.641981 37.707704 
L 270.865356 37.707704 
L 270.900856 36.127646 
L 272.041092 36.127646 
L 272.079288 35.074274 
L 272.752082 35.074274 
L 272.7543 34.020902 
L 272.949426 34.020902 
L 272.949426 33.494215 
L 273.80202 33.494215 
L 273.80202 32.967529 
L 274.509907 32.967529 
L 274.568342 31.914157 
L 274.744288 31.914157 
L 274.744288 31.387471 
L 276.355995 31.387471 
L 276.355995 30.860785 
L 279.382176 30.860785 
L 279.382176 30.334099 
L 338.688 30.334099 
L 338.688 30.334099 
" style="fill:none;stroke:#00bfbf;stroke-linecap:square;stroke-width:1.5;"/>
   </g>
   <g id="line2d_31">
    <defs>
     <path d="M -6 0 
L 6 0 
M 0 6 
L 0 -6 
" id="me805607bf7" style="stroke:#00bfbf;stroke-width:1.5;"/>
    </defs>
    <g>
     <use style="fill-opacity:0;stroke:#00bfbf;stroke-width:1.5;" x="148.592055" xlink:href="#me805607bf7" y="254.175683"/>
     <use style="fill-opacity:0;stroke:#00bfbf;stroke-width:1.5;" x="224.440386" xlink:href="#me805607bf7" y="204.667192"/>
     <use style="fill-opacity:0;stroke:#00bfbf;stroke-width:1.5;" x="254.240689" xlink:href="#me805607bf7" y="94.589801"/>
     <use style="fill-opacity:0;stroke:#00bfbf;stroke-width:1.5;" x="279.382176" xlink:href="#me805607bf7" y="30.334099"/>
     <use style="fill-opacity:0;stroke:#00bfbf;stroke-width:1.5;" x="279.382176" xlink:href="#me805607bf7" y="30.334099"/>
     <use style="fill-opacity:0;stroke:#00bfbf;stroke-width:1.5;" x="338.688" xlink:href="#me805607bf7" y="30.334099"/>
    </g>
   </g>
   <g id="line2d_32">
    <path style="fill:none;stroke:#00bfbf;stroke-linecap:square;stroke-width:1.5;"/>
    <g/>
   </g>
   <g id="line2d_33">
    <path clip-path="url(#pf12316c81d)" d="M 234.201166 182.01969 
" style="fill:none;stroke:#00bfbf;stroke-linecap:square;stroke-width:1.5;"/>
    <defs>
     <path d="M -12 12 
L 12 -12 
M -12 -12 
L 12 12 
" id="m9e587e1a2b" style="stroke:#00bfbf;"/>
    </defs>
    <g clip-path="url(#pf12316c81d)">
     <use style="fill:#00bfbf;stroke:#00bfbf;" x="234.201166" xlink:href="#m9e587e1a2b" y="182.01969"/>
    </g>
   </g>
   <g id="line2d_34">
    <defs>
     <path d="M 0 1.5 
C 0.397805 1.5 0.77937 1.341951 1.06066 1.06066 
C 1.341951 0.77937 1.5 0.397805 1.5 0 
C 1.5 -0.397805 1.341951 -0.77937 1.06066 -1.06066 
C 0.77937 -1.341951 0.397805 -1.5 0 -1.5 
C -0.397805 -1.5 -0.77937 -1.341951 -1.06066 -1.06066 
C -1.341951 -0.77937 -1.5 -0.397805 -1.5 0 
C -1.5 0.397805 -1.341951 0.77937 -1.06066 1.06066 
C -0.77937 1.341951 -0.397805 1.5 0 1.5 
z
" id="mccd9393f81" style="stroke:#008000;"/>
    </defs>
    <g>
     <use style="fill:#008000;stroke:#008000;" x="291.534452" xlink:href="#mccd9393f81" y="209.407366"/>
     <use style="fill:#008000;stroke:#008000;" x="291.534452" xlink:href="#mccd9393f81" y="209.407366"/>
    </g>
   </g>
   <g id="line2d_35">
    <path d="M 38.440992 298.944 
L 38.440992 292.097081 
L 50.52898 292.097081 
L 50.52898 287.356906 
L 57.6 287.356906 
L 57.6 286.303534 
L 62.616969 286.303534 
L 62.616969 285.250162 
L 66.508432 285.250162 
L 66.508432 283.670104 
L 72.376266 283.670104 
L 72.376266 283.143418 
L 74.704957 283.143418 
L 74.704957 282.616732 
L 84.464254 282.616732 
L 84.464254 282.090045 
L 85.66744 282.090045 
L 85.66744 281.036673 
L 88.846997 281.036673 
L 88.846997 280.509987 
L 89.78989 280.509987 
L 89.78989 279.983301 
L 90.684409 279.983301 
L 90.684409 279.456615 
L 95.259853 279.456615 
L 95.259853 278.929929 
L 100.934985 278.929929 
L 100.934985 278.403243 
L 101.877879 278.403243 
L 101.877879 277.876557 
L 104.826449 277.876557 
L 104.826449 277.349871 
L 106.311539 277.349871 
L 106.311539 276.823185 
L 107.347841 276.823185 
L 107.347841 276.296499 
L 112.779064 276.296499 
L 112.779064 275.769812 
L 115.291007 275.769812 
L 115.291007 275.243126 
L 121.036887 275.243126 
L 121.036887 274.71644 
L 128.209594 274.71644 
L 128.209594 274.189754 
L 128.511146 274.189754 
L 128.511146 273.663068 
L 130.664567 273.663068 
L 130.664567 273.136382 
L 133.652238 273.136382 
L 133.652238 272.609696 
L 135.681535 272.609696 
L 135.681535 272.08301 
L 137.198951 272.08301 
L 137.198951 271.556324 
L 137.794206 271.556324 
L 137.794206 271.029638 
L 139.730821 271.029638 
L 139.730821 269.449579 
L 146.071013 269.449579 
L 146.071013 268.922893 
L 146.216039 268.922893 
L 146.288102 267.869521 
L 148.639252 267.869521 
L 148.639252 267.342835 
L 153.913546 267.342835 
L 153.913546 266.816149 
L 154.752243 266.816149 
L 154.752243 265.762777 
L 156.052535 265.762777 
L 156.052535 265.236091 
L 156.195732 265.236091 
L 156.195732 264.709405 
L 156.538679 264.709405 
L 156.538679 264.182719 
L 156.992185 264.182719 
L 156.992185 263.656033 
L 158.177196 263.656033 
L 158.177196 263.129347 
L 158.447857 263.129347 
L 158.447857 262.60266 
L 165.518877 262.60266 
L 165.518877 262.075974 
L 166.695783 262.075974 
L 166.695783 261.549288 
L 179.954198 261.549288 
L 179.954198 261.022602 
L 180.11 261.022602 
L 180.11 260.495916 
L 180.614487 260.495916 
L 180.614487 259.96923 
L 180.888578 259.96923 
L 180.888578 259.442544 
L 181.284554 259.442544 
L 181.284554 258.915858 
L 181.424165 258.915858 
L 181.424165 258.389172 
L 182.448383 258.389172 
L 182.448383 257.862486 
L 184.566121 257.862486 
L 184.566121 257.3358 
L 185.253182 257.3358 
L 185.253182 256.809114 
L 187.20341 256.809114 
L 187.20341 256.282427 
L 188.329776 256.282427 
L 188.329776 255.755741 
L 189.204597 255.755741 
L 189.204597 255.229055 
L 190.888488 255.229055 
L 190.888488 254.702369 
L 193.832847 254.702369 
L 193.832847 254.175683 
L 194.052712 254.175683 
L 194.075939 252.595625 
L 194.769916 252.595625 
L 194.769916 251.542253 
L 195.061905 251.542253 
L 195.061905 249.962195 
L 195.976374 249.962195 
L 195.976374 249.435508 
L 199.146214 249.435508 
L 199.146214 248.382136 
L 201.525814 248.382136 
L 201.525814 247.85545 
L 202.882871 247.85545 
L 202.882871 247.328764 
L 204.661909 247.328764 
L 204.661909 246.802078 
L 222.617822 246.802078 
L 222.617822 246.275392 
L 228.586563 246.275392 
L 228.586563 245.22202 
L 229.251345 245.22202 
L 229.251345 244.695334 
L 229.663675 244.695334 
L 229.703444 242.588589 
L 230.323649 242.588589 
L 230.323649 241.008531 
L 231.007373 241.008531 
L 231.007373 239.955159 
L 238.502231 239.955159 
L 238.502231 239.428473 
L 239.796658 239.428473 
L 239.822619 238.375101 
L 240.310965 238.375101 
L 240.310965 237.848415 
L 240.464586 237.848415 
L 240.552204 233.634926 
L 246.788264 233.634926 
L 246.788264 233.10824 
L 247.001953 233.10824 
L 247.001953 232.581554 
L 247.175195 232.581554 
L 247.175195 232.054868 
L 250.282721 232.054868 
L 250.303422 231.001496 
L 250.951845 231.001496 
L 250.951845 230.47481 
L 251.597784 230.47481 
L 251.597784 229.948123 
L 251.843435 229.948123 
L 251.948384 228.894751 
L 251.974838 228.894751 
L 252.021768 227.841379 
L 255.431304 227.841379 
L 255.431304 227.314693 
L 255.734594 227.314693 
L 255.772432 224.681263 
L 255.884786 224.681263 
L 255.884786 224.154577 
L 256.045063 224.154577 
L 256.045063 223.627891 
L 257.715121 223.627891 
L 257.715121 223.101204 
L 258.802603 223.101204 
L 258.833267 222.047832 
L 261.430731 222.047832 
L 261.450677 220.467774 
L 263.540552 220.467774 
L 263.540552 219.941088 
L 263.718627 219.941088 
L 263.826774 217.834344 
L 265.291594 217.834344 
L 265.291594 217.307658 
L 265.584315 217.307658 
L 265.584315 216.780971 
L 267.556145 216.780971 
L 267.556145 216.254285 
L 269.185262 216.254285 
L 269.21136 215.200913 
L 269.338045 215.200913 
L 269.338045 214.674227 
L 272.069522 214.674227 
L 272.084361 213.620855 
L 272.872756 213.620855 
L 272.872756 213.094169 
L 274.094794 213.094169 
L 274.094794 212.567483 
L 274.501504 212.567483 
L 274.501504 212.040797 
L 279.303281 212.040797 
L 279.303281 211.514111 
L 279.519061 211.514111 
L 279.519061 210.987425 
L 280.363025 210.987425 
L 280.363025 210.460738 
L 288.713072 210.460738 
L 288.713072 209.934052 
L 291.534452 209.934052 
L 291.534452 209.407366 
L 338.688 209.407366 
L 338.688 209.407366 
" style="fill:none;stroke:#008000;stroke-linecap:square;stroke-width:1.5;"/>
   </g>
   <g id="line2d_36">
    <defs>
     <path d="M -0 6 
L 6 -6 
L -6 -6 
z
" id="m2923c81593" style="stroke:#008000;stroke-linejoin:miter;stroke-width:1.5;"/>
    </defs>
    <g>
     <use style="fill-opacity:0;stroke:#008000;stroke-linejoin:miter;stroke-width:1.5;" x="88.846997" xlink:href="#m2923c81593" y="280.509987"/>
     <use style="fill-opacity:0;stroke:#008000;stroke-linejoin:miter;stroke-width:1.5;" x="165.518877" xlink:href="#m2923c81593" y="262.075974"/>
     <use style="fill-opacity:0;stroke:#008000;stroke-linejoin:miter;stroke-width:1.5;" x="222.617822" xlink:href="#m2923c81593" y="246.802078"/>
     <use style="fill-opacity:0;stroke:#008000;stroke-linejoin:miter;stroke-width:1.5;" x="280.363025" xlink:href="#m2923c81593" y="210.987425"/>
     <use style="fill-opacity:0;stroke:#008000;stroke-linejoin:miter;stroke-width:1.5;" x="291.534452" xlink:href="#m2923c81593" y="209.407366"/>
     <use style="fill-opacity:0;stroke:#008000;stroke-linejoin:miter;stroke-width:1.5;" x="338.688" xlink:href="#m2923c81593" y="209.407366"/>
    </g>
   </g>
   <g id="line2d_37">
    <path style="fill:none;stroke:#008000;stroke-linecap:square;stroke-width:1.5;"/>
    <g/>
   </g>
   <g id="line2d_38">
    <path clip-path="url(#pf12316c81d)" d="M 227.130146 246.275392 
" style="fill:none;stroke:#008000;stroke-linecap:square;stroke-width:1.5;"/>
    <defs>
     <path d="M -12 12 
L 12 -12 
M -12 -12 
L 12 12 
" id="m6600ecaabd" style="stroke:#008000;"/>
    </defs>
    <g clip-path="url(#pf12316c81d)">
     <use style="fill:#008000;stroke:#008000;" x="227.130146" xlink:href="#m6600ecaabd" y="246.275392"/>
    </g>
   </g>
   <g id="line2d_39">
    <defs>
     <path d="M 0 1.5 
C 0.397805 1.5 0.77937 1.341951 1.06066 1.06066 
C 1.341951 0.77937 1.5 0.397805 1.5 0 
C 1.5 -0.397805 1.341951 -0.77937 1.06066 -1.06066 
C 0.77937 -1.341951 0.397805 -1.5 0 -1.5 
C -0.397805 -1.5 -0.77937 -1.341951 -1.06066 -1.06066 
C -1.341951 -0.77937 -1.5 -0.397805 -1.5 0 
C -1.5 0.397805 -1.341951 0.77937 -1.06066 1.06066 
C -0.77937 1.341951 -0.397805 1.5 0 1.5 
z
" id="m90465d26f6" style="stroke:#0000ff;"/>
    </defs>
    <g>
     <use style="fill:#0000ff;stroke:#0000ff;" x="274.577836" xlink:href="#m90465d26f6" y="251.542253"/>
     <use style="fill:#0000ff;stroke:#0000ff;" x="274.577836" xlink:href="#m90465d26f6" y="251.542253"/>
    </g>
   </g>
   <g id="line2d_40">
    <path d="M 29.53256 298.944 
L 29.53256 297.890628 
L 41.620548 297.890628 
L 41.620548 297.363942 
L 48.691568 297.363942 
L 48.691568 294.730511 
L 53.708537 294.730511 
L 53.708537 294.203825 
L 65.796525 294.203825 
L 65.796525 293.150453 
L 75.555822 293.150453 
L 75.555822 292.623767 
L 79.938565 292.623767 
L 79.938565 292.097081 
L 83.438118 292.097081 
L 83.438118 291.043709 
L 84.213325 291.043709 
L 84.213325 290.517023 
L 94.714831 290.517023 
L 94.714831 289.990337 
L 96.676366 289.990337 
L 96.676366 288.410278 
L 103.372333 288.410278 
L 103.372333 287.883592 
L 108.389302 287.883592 
L 108.389302 287.356906 
L 109.668146 287.356906 
L 109.668146 286.83022 
L 110.527398 286.83022 
L 110.527398 286.303534 
L 113.167699 286.303534 
L 113.167699 285.776848 
L 113.453595 285.776848 
L 113.453595 285.250162 
L 114.685115 285.250162 
L 114.685115 284.723476 
L 115.958621 284.723476 
L 115.958621 284.19679 
L 116.081002 284.19679 
L 116.081002 283.670104 
L 116.562116 283.670104 
L 116.562116 283.143418 
L 119.199476 283.143418 
L 119.199476 282.616732 
L 129.853291 282.616732 
L 129.853291 282.090045 
L 136.150782 282.090045 
L 136.150782 281.563359 
L 137.594091 281.563359 
L 137.594091 281.036673 
L 138.358484 281.036673 
L 138.426341 279.983301 
L 142.051655 279.983301 
L 142.051655 279.456615 
L 142.215919 279.456615 
L 142.215919 278.929929 
L 146.474085 278.929929 
L 146.474085 278.403243 
L 147.749695 278.403243 
L 147.749695 277.876557 
L 148.695721 277.876557 
L 148.695721 277.349871 
L 149.521512 277.349871 
L 149.521512 276.823185 
L 154.303908 276.823185 
L 154.303908 276.296499 
L 158.625992 276.296499 
L 158.625992 275.769812 
L 160.394148 275.769812 
L 160.394148 274.71644 
L 163.127663 274.71644 
L 163.127663 274.189754 
L 174.821034 274.189754 
L 174.821034 273.663068 
L 175.203325 273.663068 
L 175.203325 273.136382 
L 175.93577 273.136382 
L 175.93577 272.609696 
L 176.957514 272.609696 
L 176.957514 272.08301 
L 180.351324 272.08301 
L 180.351324 271.556324 
L 183.268863 271.556324 
L 183.338605 270.502952 
L 183.814124 270.502952 
L 183.814124 269.976266 
L 185.058068 269.976266 
L 185.058068 269.449579 
L 190.288042 269.449579 
L 190.288042 268.922893 
L 194.803344 268.922893 
L 194.803344 268.396207 
L 195.576751 268.396207 
L 195.576751 267.869521 
L 198.966525 267.869521 
L 198.966525 267.342835 
L 203.395268 267.342835 
L 203.395268 266.816149 
L 210.839077 266.816149 
L 210.839077 266.289463 
L 217.236644 266.289463 
L 217.236644 265.762777 
L 217.855864 265.762777 
L 217.855864 265.236091 
L 220.648747 265.236091 
L 220.648747 264.709405 
L 222.430322 264.709405 
L 222.430322 264.182719 
L 223.214687 264.182719 
L 223.214687 263.656033 
L 224.42683 263.656033 
L 224.42683 262.60266 
L 229.824122 262.60266 
L 229.824122 262.075974 
L 230.127737 262.075974 
L 230.127737 261.549288 
L 232.000357 261.549288 
L 232.000357 261.022602 
L 232.540657 261.022602 
L 232.540657 260.495916 
L 232.891876 260.495916 
L 232.984272 259.442544 
L 241.602934 259.442544 
L 241.602934 258.389172 
L 242.156591 258.389172 
L 242.156591 257.862486 
L 242.306946 257.862486 
L 242.306946 257.3358 
L 246.096542 257.3358 
L 246.096542 256.809114 
L 252.019625 256.809114 
L 252.019625 255.755741 
L 260.00634 255.755741 
L 260.00634 255.229055 
L 261.526504 255.229055 
L 261.526504 254.702369 
L 262.014494 254.702369 
L 262.014494 254.175683 
L 262.711881 254.175683 
L 262.711881 253.648997 
L 264.17643 253.648997 
L 264.219098 252.595625 
L 269.551548 252.595625 
L 269.551548 252.068939 
L 274.577836 252.068939 
L 274.577836 251.542253 
L 338.688 251.542253 
L 338.688 251.542253 
" style="fill:none;stroke:#0000ff;stroke-linecap:square;stroke-width:1.5;"/>
   </g>
   <g id="line2d_41">
    <defs>
     <path d="M 0 -6 
L -1.347084 -1.854102 
L -5.706339 -1.854102 
L -2.179628 0.708204 
L -3.526712 4.854102 
L -0 2.291796 
L 3.526712 4.854102 
L 2.179628 0.708204 
L 5.706339 -1.854102 
L 1.347084 -1.854102 
z
" id="m725c12cee1" style="stroke:#0000ff;stroke-linejoin:bevel;stroke-width:1.5;"/>
    </defs>
    <g>
     <use style="fill-opacity:0;stroke:#0000ff;stroke-linejoin:bevel;stroke-width:1.5;" x="116.562116" xlink:href="#m725c12cee1" y="283.670104"/>
     <use style="fill-opacity:0;stroke:#0000ff;stroke-linejoin:bevel;stroke-width:1.5;" x="175.93577" xlink:href="#m725c12cee1" y="272.609696"/>
     <use style="fill-opacity:0;stroke:#0000ff;stroke-linejoin:bevel;stroke-width:1.5;" x="242.306946" xlink:href="#m725c12cee1" y="257.862486"/>
     <use style="fill-opacity:0;stroke:#0000ff;stroke-linejoin:bevel;stroke-width:1.5;" x="274.577836" xlink:href="#m725c12cee1" y="251.542253"/>
     <use style="fill-opacity:0;stroke:#0000ff;stroke-linejoin:bevel;stroke-width:1.5;" x="274.577836" xlink:href="#m725c12cee1" y="251.542253"/>
     <use style="fill-opacity:0;stroke:#0000ff;stroke-linejoin:bevel;stroke-width:1.5;" x="338.688" xlink:href="#m725c12cee1" y="251.542253"/>
    </g>
   </g>
   <g id="line2d_42">
    <path style="fill:none;stroke:#0000ff;stroke-linecap:square;stroke-width:1.5;"/>
    <g/>
   </g>
   <g id="line2d_43">
    <path clip-path="url(#pf12316c81d)" d="M 218.221714 265.236091 
" style="fill:none;stroke:#0000ff;stroke-linecap:square;stroke-width:1.5;"/>
    <defs>
     <path d="M -12 12 
L 12 -12 
M -12 -12 
L 12 12 
" id="m70d5796800" style="stroke:#0000ff;"/>
    </defs>
    <g clip-path="url(#pf12316c81d)">
     <use style="fill:#0000ff;stroke:#0000ff;" x="218.221714" xlink:href="#m70d5796800" y="265.236091"/>
    </g>
   </g>
   <g id="line2d_44">
    <defs>
     <path d="M 0 1.5 
C 0.397805 1.5 0.77937 1.341951 1.06066 1.06066 
C 1.341951 0.77937 1.5 0.397805 1.5 0 
C 1.5 -0.397805 1.341951 -0.77937 1.06066 -1.06066 
C 0.77937 -1.341951 0.397805 -1.5 0 -1.5 
C -0.397805 -1.5 -0.77937 -1.341951 -1.06066 -1.06066 
C -1.341951 -0.77937 -1.5 -0.397805 -1.5 0 
C -1.5 0.397805 -1.341951 0.77937 -1.06066 1.06066 
C -0.77937 1.341951 -0.397805 1.5 0 1.5 
z
" id="m72bd5af2a5" style="stroke:#000000;"/>
    </defs>
    <g>
     <use style="stroke:#000000;" x="281.48709" xlink:href="#m72bd5af2a5" y="272.609696"/>
     <use style="stroke:#000000;" x="281.48709" xlink:href="#m72bd5af2a5" y="272.609696"/>
    </g>
   </g>
   <g id="line2d_45">
    <path d="M 94.714831 298.944 
L 94.714831 298.417314 
L 111.505558 298.417314 
L 111.505558 297.890628 
L 115.141496 297.890628 
L 115.141496 297.363942 
L 116.141872 297.363942 
L 116.141872 296.837256 
L 117.654224 296.837256 
L 117.654224 296.31057 
L 119.148409 296.31057 
L 119.148409 295.783884 
L 120.47729 295.783884 
L 120.47729 295.257197 
L 122.823744 295.257197 
L 122.823744 294.203825 
L 128.91501 294.203825 
L 128.91501 293.677139 
L 133.689303 293.677139 
L 133.689303 293.150453 
L 137.823442 293.150453 
L 137.823442 292.623767 
L 139.980403 292.623767 
L 139.980403 292.097081 
L 150.024985 292.097081 
L 150.024985 291.570395 
L 151.834513 291.570395 
L 151.834513 291.043709 
L 154.945917 291.043709 
L 154.945917 290.517023 
L 157.613546 290.517023 
L 157.613546 289.990337 
L 159.678237 289.990337 
L 159.678237 289.463651 
L 161.3249 289.463651 
L 161.3249 288.936964 
L 162.787576 288.936964 
L 162.787576 288.410278 
L 170.039142 288.410278 
L 170.039142 287.883592 
L 171.531901 287.883592 
L 171.531901 287.356906 
L 176.791327 287.356906 
L 176.791327 286.83022 
L 179.745857 286.83022 
L 179.745857 286.303534 
L 182.386328 286.303534 
L 182.386328 285.776848 
L 188.755044 285.776848 
L 188.755044 285.250162 
L 191.259877 285.250162 
L 191.259877 284.723476 
L 199.599849 284.723476 
L 199.599849 284.19679 
L 203.103091 284.19679 
L 203.103091 283.670104 
L 203.944389 283.670104 
L 203.944389 283.143418 
L 205.013428 283.143418 
L 205.013428 282.616732 
L 208.797371 282.616732 
L 208.797371 282.090045 
L 217.67056 282.090045 
L 217.67056 281.036673 
L 224.92724 281.036673 
L 224.92724 280.509987 
L 230.036303 280.509987 
L 230.036303 279.983301 
L 231.392457 279.983301 
L 231.392457 279.456615 
L 238.109976 279.456615 
L 238.109976 278.929929 
L 242.261527 278.929929 
L 242.261527 278.403243 
L 242.94747 278.403243 
L 242.94747 277.349871 
L 244.941284 277.349871 
L 244.941284 276.823185 
L 246.180308 276.823185 
L 246.180308 276.296499 
L 250.780931 276.296499 
L 250.780931 275.769812 
L 255.803809 275.769812 
L 255.803809 275.243126 
L 261.00769 275.243126 
L 261.00769 274.71644 
L 265.010347 274.71644 
L 265.010347 274.189754 
L 268.597553 274.189754 
L 268.597553 273.663068 
L 272.495053 273.663068 
L 272.495053 273.136382 
L 281.48709 273.136382 
L 281.48709 272.609696 
L 338.688 272.609696 
" style="fill:none;stroke:#000000;stroke-linecap:square;stroke-width:1.5;"/>
   </g>
   <g id="line2d_46">
    <defs>
     <path d="M 0 6 
C 1.591219 6 3.117479 5.367802 4.242641 4.242641 
C 5.367802 3.117479 6 1.591219 6 0 
C 6 -1.591219 5.367802 -3.117479 4.242641 -4.242641 
C 3.117479 -5.367802 1.591219 -6 0 -6 
C -1.591219 -6 -3.117479 -5.367802 -4.242641 -4.242641 
C -5.367802 -3.117479 -6 -1.591219 -6 0 
C -6 1.591219 -5.367802 3.117479 -4.242641 4.242641 
C -3.117479 5.367802 -1.591219 6 0 6 
z
" id="mf8fb1b5c1c" style="stroke:#000000;stroke-width:1.5;"/>
    </defs>
    <g>
     <use style="fill-opacity:0;stroke:#000000;stroke-width:1.5;" x="151.834513" xlink:href="#mf8fb1b5c1c" y="291.570395"/>
     <use style="fill-opacity:0;stroke:#000000;stroke-width:1.5;" x="208.797371" xlink:href="#mf8fb1b5c1c" y="282.090045"/>
     <use style="fill-opacity:0;stroke:#000000;stroke-width:1.5;" x="281.48709" xlink:href="#mf8fb1b5c1c" y="273.136382"/>
     <use style="fill-opacity:0;stroke:#000000;stroke-width:1.5;" x="281.48709" xlink:href="#mf8fb1b5c1c" y="272.609696"/>
     <use style="fill-opacity:0;stroke:#000000;stroke-width:1.5;" x="338.688" xlink:href="#mf8fb1b5c1c" y="272.609696"/>
    </g>
   </g>
   <g id="line2d_47">
    <path style="fill:none;stroke:#000000;stroke-linecap:square;stroke-width:1.5;"/>
    <g/>
   </g>
   <g id="line2d_48">
    <path clip-path="url(#pf12316c81d)" d="M 206.133726 282.616732 
" style="fill:none;stroke:#000000;stroke-linecap:square;stroke-width:1.5;"/>
    <defs>
     <path d="M -12 12 
L 12 -12 
M -12 -12 
L 12 12 
" id="m70688a94f5" style="stroke:#000000;"/>
    </defs>
    <g clip-path="url(#pf12316c81d)">
     <use style="stroke:#000000;" x="206.133726" xlink:href="#m70688a94f5" y="282.616732"/>
    </g>
   </g>
   <g id="line2d_49">
    <defs>
     <path d="M 0 1.5 
C 0.397805 1.5 0.77937 1.341951 1.06066 1.06066 
C 1.341951 0.77937 1.5 0.397805 1.5 0 
C 1.5 -0.397805 1.341951 -0.77937 1.06066 -1.06066 
C 0.77937 -1.341951 0.397805 -1.5 0 -1.5 
C -0.397805 -1.5 -0.77937 -1.341951 -1.06066 -1.06066 
C -1.341951 -0.77937 -1.5 -0.397805 -1.5 0 
C -1.5 0.397805 -1.341951 0.77937 -1.06066 1.06066 
C -0.77937 1.341951 -0.397805 1.5 0 1.5 
z
" id="mb69e4a4cb4" style="stroke:#ff0000;"/>
    </defs>
    <g>
     <use style="fill:#ff0000;stroke:#ff0000;" x="253.409423" xlink:href="#mb69e4a4cb4" y="288.410278"/>
     <use style="fill:#ff0000;stroke:#ff0000;" x="253.409423" xlink:href="#mb69e4a4cb4" y="288.410278"/>
    </g>
   </g>
   <g id="line2d_50">
    <path d="M 151.023238 298.944 
L 151.023238 298.417314 
L 190.773997 298.417314 
L 190.773997 297.890628 
L 204.574469 297.890628 
L 204.574469 297.363942 
L 213.691084 297.363942 
L 213.691084 296.837256 
L 220.54755 296.837256 
L 220.54755 295.257197 
L 221.5061 295.257197 
L 221.5061 294.730511 
L 222.406605 294.730511 
L 222.406605 294.203825 
L 223.998001 294.203825 
L 223.998001 293.677139 
L 229.347776 293.677139 
L 229.347776 292.623767 
L 231.511366 292.623767 
L 231.511366 292.097081 
L 236.745369 292.097081 
L 236.745369 291.570395 
L 238.545613 291.570395 
L 238.545613 291.043709 
L 240.174363 291.043709 
L 240.174363 290.517023 
L 241.370545 290.517023 
L 241.370545 289.990337 
L 243.008871 289.990337 
L 243.008871 289.463651 
L 247.607611 289.463651 
L 247.607611 288.936964 
L 253.409423 288.936964 
L 253.409423 288.410278 
L 338.688 288.410278 
" style="fill:none;stroke:#ff0000;stroke-linecap:square;stroke-width:1.5;"/>
   </g>
   <g id="line2d_51">
    <defs>
     <path d="M -6 6 
L 6 6 
L 6 -6 
L -6 -6 
z
" id="mdfee9997ef" style="stroke:#ff0000;stroke-linejoin:miter;stroke-width:1.5;"/>
    </defs>
    <g>
     <use style="fill-opacity:0;stroke:#ff0000;stroke-linejoin:miter;stroke-width:1.5;" x="151.023238" xlink:href="#mdfee9997ef" y="298.417314"/>
     <use style="fill-opacity:0;stroke:#ff0000;stroke-linejoin:miter;stroke-width:1.5;" x="243.008871" xlink:href="#mdfee9997ef" y="289.463651"/>
     <use style="fill-opacity:0;stroke:#ff0000;stroke-linejoin:miter;stroke-width:1.5;" x="253.409423" xlink:href="#mdfee9997ef" y="288.936964"/>
     <use style="fill-opacity:0;stroke:#ff0000;stroke-linejoin:miter;stroke-width:1.5;" x="253.409423" xlink:href="#mdfee9997ef" y="288.410278"/>
     <use style="fill-opacity:0;stroke:#ff0000;stroke-linejoin:miter;stroke-width:1.5;" x="338.688" xlink:href="#mdfee9997ef" y="288.410278"/>
    </g>
   </g>
   <g id="line2d_52">
    <path style="fill:none;stroke:#ff0000;stroke-linecap:square;stroke-width:1.5;"/>
    <g/>
   </g>
   <g id="line2d_53">
    <path clip-path="url(#pf12316c81d)" d="M 194.045737 297.890628 
" style="fill:none;stroke:#ff0000;stroke-linecap:square;stroke-width:1.5;"/>
    <defs>
     <path d="M -12 12 
L 12 -12 
M -12 -12 
L 12 12 
" id="m4236b9c111" style="stroke:#ff0000;"/>
    </defs>
    <g clip-path="url(#pf12316c81d)">
     <use style="fill:#ff0000;stroke:#ff0000;" x="194.045737" xlink:href="#m4236b9c111" y="297.890628"/>
    </g>
   </g>
   <g id="line2d_54">
    <path clip-path="url(#pf12316c81d)" d="M 57.6 298.944 
L 57.6 298.944 
L 57.6 298.944 
L 57.6 298.944 
L 338.688 298.944 
" style="fill:none;stroke:#bf00bf;stroke-linecap:square;stroke-width:1.5;"/>
   </g>
   <g id="line2d_55">
    <defs>
     <path d="M 0 8.485281 
L 8.485281 0 
L 0 -8.485281 
L -8.485281 0 
z
" id="me7f0d7d14d" style="stroke:#bf00bf;stroke-linejoin:miter;stroke-width:1.5;"/>
    </defs>
    <g clip-path="url(#pf12316c81d)">
     <use style="fill-opacity:0;stroke:#bf00bf;stroke-linejoin:miter;stroke-width:1.5;" x="57.6" xlink:href="#me7f0d7d14d" y="298.944"/>
    </g>
   </g>
   <g id="line2d_56">
    <path clip-path="url(#pf12316c81d)" style="fill:none;stroke:#bf00bf;stroke-linecap:square;stroke-width:1.5;"/>
    <g clip-path="url(#pf12316c81d)">
     <use style="fill-opacity:0;stroke:#bf00bf;stroke-linejoin:miter;stroke-width:1.5;" x="-1" xlink:href="#me7f0d7d14d" y="567.553901"/>
     <use style="fill-opacity:0;stroke:#bf00bf;stroke-linejoin:miter;stroke-width:1.5;" x="338.688" xlink:href="#me7f0d7d14d" y="567.553901"/>
    </g>
   </g>
   <g id="line2d_57">
    <path d="M 338.688 298.944 
L 369.60768 293.571802 
" style="fill:none;stroke:#bf00bf;stroke-linecap:square;stroke-width:1.5;"/>
    <g>
     <use style="fill-opacity:0;stroke:#bf00bf;stroke-linejoin:miter;stroke-width:1.5;" x="338.688" xlink:href="#me7f0d7d14d" y="298.944"/>
     <use style="fill-opacity:0;stroke:#bf00bf;stroke-linejoin:miter;stroke-width:1.5;" x="369.60768" xlink:href="#me7f0d7d14d" y="293.571802"/>
    </g>
   </g>
   <g id="line2d_58">
    <path d="M 338.688 288.410278 
L 369.60768 241.998701 
" style="fill:none;stroke:#ff0000;stroke-linecap:square;stroke-width:1.5;"/>
    <g>
     <use style="fill-opacity:0;stroke:#ff0000;stroke-linejoin:miter;stroke-width:1.5;" x="338.688" xlink:href="#mdfee9997ef" y="288.410278"/>
     <use style="fill-opacity:0;stroke:#ff0000;stroke-linejoin:miter;stroke-width:1.5;" x="369.60768" xlink:href="#mdfee9997ef" y="241.998701"/>
    </g>
   </g>
   <g id="line2d_59">
    <path d="M 338.688 272.609696 
L 369.60768 190.4256 
" style="fill:none;stroke:#000000;stroke-linecap:square;stroke-width:1.5;"/>
    <g>
     <use style="fill-opacity:0;stroke:#000000;stroke-width:1.5;" x="338.688" xlink:href="#mf8fb1b5c1c" y="272.609696"/>
     <use style="fill-opacity:0;stroke:#000000;stroke-width:1.5;" x="369.60768" xlink:href="#mf8fb1b5c1c" y="190.4256"/>
    </g>
   </g>
   <g id="line2d_60">
    <path d="M 338.688 251.542253 
L 369.60768 138.852499 
" style="fill:none;stroke:#0000ff;stroke-linecap:square;stroke-width:1.5;"/>
    <g>
     <use style="fill-opacity:0;stroke:#0000ff;stroke-linejoin:bevel;stroke-width:1.5;" x="338.688" xlink:href="#m725c12cee1" y="251.542253"/>
     <use style="fill-opacity:0;stroke:#0000ff;stroke-linejoin:bevel;stroke-width:1.5;" x="369.60768" xlink:href="#m725c12cee1" y="138.852499"/>
    </g>
   </g>
   <g id="line2d_61">
    <path d="M 338.688 209.407366 
L 369.60768 87.279398 
" style="fill:none;stroke:#008000;stroke-linecap:square;stroke-width:1.5;"/>
    <g>
     <use style="fill-opacity:0;stroke:#008000;stroke-linejoin:miter;stroke-width:1.5;" x="338.688" xlink:href="#m2923c81593" y="209.407366"/>
     <use style="fill-opacity:0;stroke:#008000;stroke-linejoin:miter;stroke-width:1.5;" x="369.60768" xlink:href="#m2923c81593" y="87.279398"/>
    </g>
   </g>
   <g id="line2d_62">
    <path d="M 338.688 30.334099 
L 369.60768 35.706297 
" style="fill:none;stroke:#00bfbf;stroke-linecap:square;stroke-width:1.5;"/>
    <g>
     <use style="fill-opacity:0;stroke:#00bfbf;stroke-width:1.5;" x="338.688" xlink:href="#me805607bf7" y="30.334099"/>
     <use style="fill-opacity:0;stroke:#00bfbf;stroke-width:1.5;" x="369.60768" xlink:href="#me805607bf7" y="35.706297"/>
    </g>
   </g>
   <g id="line2d_63">
    <path d="M 338.688 298.944 
L 338.688 30.334099 
" style="fill:none;stroke:#000000;stroke-linecap:square;stroke-width:1.5;"/>
   </g>
   <g id="patch_3">
    <path d="M 57.6 298.944 
L 57.6 27.648 
" style="fill:none;stroke:#000000;stroke-linecap:square;stroke-linejoin:miter;stroke-width:0.8;"/>
   </g>
   <g id="patch_4">
    <path d="M 338.688 298.944 
L 338.688 27.648 
" style="fill:none;stroke:#000000;stroke-linecap:square;stroke-linejoin:miter;stroke-width:0.8;"/>
   </g>
   <g id="patch_5">
    <path d="M 57.6 298.944 
L 338.688 298.944 
" style="fill:none;stroke:#000000;stroke-linecap:square;stroke-linejoin:miter;stroke-width:0.8;"/>
   </g>
   <g id="patch_6">
    <path d="M 57.6 27.648 
L 338.688 27.648 
" style="fill:none;stroke:#000000;stroke-linecap:square;stroke-linejoin:miter;stroke-width:0.8;"/>
   </g>
   <g id="text_13">
    <!-- 40-D -->
    <g transform="translate(375.22944 298.262739)scale(0.17 -0.17)">
     <defs>
      <path d="M 1259 4147 
L 1259 519 
L 2022 519 
Q 2988 519 3436 956 
Q 3884 1394 3884 2338 
Q 3884 3275 3436 3711 
Q 2988 4147 2022 4147 
L 1259 4147 
z
M 628 4666 
L 1925 4666 
Q 3281 4666 3915 4102 
Q 4550 3538 4550 2338 
Q 4550 1131 3912 565 
Q 3275 0 1925 0 
L 628 0 
L 628 4666 
z
" id="DejaVuSans-44" transform="scale(0.015625)"/>
     </defs>
     <use xlink:href="#DejaVuSans-34"/>
     <use x="63.623047" xlink:href="#DejaVuSans-30"/>
     <use x="127.246094" xlink:href="#DejaVuSans-2d"/>
     <use x="163.330078" xlink:href="#DejaVuSans-44"/>
    </g>
   </g>
   <g id="text_14">
    <!-- 20-D -->
    <g transform="translate(375.22944 246.689638)scale(0.17 -0.17)">
     <use xlink:href="#DejaVuSans-32"/>
     <use x="63.623047" xlink:href="#DejaVuSans-30"/>
     <use x="127.246094" xlink:href="#DejaVuSans-2d"/>
     <use x="163.330078" xlink:href="#DejaVuSans-44"/>
    </g>
   </g>
   <g id="text_15">
    <!-- 10-D -->
    <g transform="translate(375.22944 195.116537)scale(0.17 -0.17)">
     <use xlink:href="#DejaVuSans-31"/>
     <use x="63.623047" xlink:href="#DejaVuSans-30"/>
     <use x="127.246094" xlink:href="#DejaVuSans-2d"/>
     <use x="163.330078" xlink:href="#DejaVuSans-44"/>
    </g>
   </g>
   <g id="text_16">
    <!-- 5-D -->
    <g transform="translate(375.22944 143.543437)scale(0.17 -0.17)">
     <defs>
      <path d="M 691 4666 
L 3169 4666 
L 3169 4134 
L 1269 4134 
L 1269 2991 
Q 1406 3038 1543 3061 
Q 1681 3084 1819 3084 
Q 2600 3084 3056 2656 
Q 3513 2228 3513 1497 
Q 3513 744 3044 326 
Q 2575 -91 1722 -91 
Q 1428 -91 1123 -41 
Q 819 9 494 109 
L 494 744 
Q 775 591 1075 516 
Q 1375 441 1709 441 
Q 2250 441 2565 725 
Q 2881 1009 2881 1497 
Q 2881 1984 2565 2268 
Q 2250 2553 1709 2553 
Q 1456 2553 1204 2497 
Q 953 2441 691 2322 
L 691 4666 
z
" id="DejaVuSans-35" transform="scale(0.015625)"/>
     </defs>
     <use xlink:href="#DejaVuSans-35"/>
     <use x="63.623047" xlink:href="#DejaVuSans-2d"/>
     <use x="99.707031" xlink:href="#DejaVuSans-44"/>
    </g>
   </g>
   <g id="text_17">
    <!-- 3-D -->
    <g transform="translate(375.22944 91.970336)scale(0.17 -0.17)">
     <defs>
      <path d="M 2597 2516 
Q 3050 2419 3304 2112 
Q 3559 1806 3559 1356 
Q 3559 666 3084 287 
Q 2609 -91 1734 -91 
Q 1441 -91 1130 -33 
Q 819 25 488 141 
L 488 750 
Q 750 597 1062 519 
Q 1375 441 1716 441 
Q 2309 441 2620 675 
Q 2931 909 2931 1356 
Q 2931 1769 2642 2001 
Q 2353 2234 1838 2234 
L 1294 2234 
L 1294 2753 
L 1863 2753 
Q 2328 2753 2575 2939 
Q 2822 3125 2822 3475 
Q 2822 3834 2567 4026 
Q 2313 4219 1838 4219 
Q 1578 4219 1281 4162 
Q 984 4106 628 3988 
L 628 4550 
Q 988 4650 1302 4700 
Q 1616 4750 1894 4750 
Q 2613 4750 3031 4423 
Q 3450 4097 3450 3541 
Q 3450 3153 3228 2886 
Q 3006 2619 2597 2516 
z
" id="DejaVuSans-33" transform="scale(0.015625)"/>
     </defs>
     <use xlink:href="#DejaVuSans-33"/>
     <use x="63.623047" xlink:href="#DejaVuSans-2d"/>
     <use x="99.707031" xlink:href="#DejaVuSans-44"/>
    </g>
   </g>
   <g id="text_18">
    <!-- 2-D -->
    <g transform="translate(375.22944 40.397235)scale(0.17 -0.17)">
     <use xlink:href="#DejaVuSans-32"/>
     <use x="63.623047" xlink:href="#DejaVuSans-2d"/>
     <use x="99.707031" xlink:href="#DejaVuSans-44"/>
    </g>
   </g>
   <g id="text_19">
    <!-- bbob f24 -->
    <g transform="translate(60.41088 38.111366)scale(0.102 -0.102)">
     <defs>
      <path d="M 3116 1747 
Q 3116 2381 2855 2742 
Q 2594 3103 2138 3103 
Q 1681 3103 1420 2742 
Q 1159 2381 1159 1747 
Q 1159 1113 1420 752 
Q 1681 391 2138 391 
Q 2594 391 2855 752 
Q 3116 1113 3116 1747 
z
M 1159 2969 
Q 1341 3281 1617 3432 
Q 1894 3584 2278 3584 
Q 2916 3584 3314 3078 
Q 3713 2572 3713 1747 
Q 3713 922 3314 415 
Q 2916 -91 2278 -91 
Q 1894 -91 1617 61 
Q 1341 213 1159 525 
L 1159 0 
L 581 0 
L 581 4863 
L 1159 4863 
L 1159 2969 
z
" id="DejaVuSans-62" transform="scale(0.015625)"/>
     </defs>
     <use xlink:href="#DejaVuSans-62"/>
     <use x="63.476562" xlink:href="#DejaVuSans-62"/>
     <use x="126.953125" xlink:href="#DejaVuSans-6f"/>
     <use x="188.134766" xlink:href="#DejaVuSans-62"/>
     <use x="251.611328" xlink:href="#DejaVuSans-20"/>
     <use x="283.398438" xlink:href="#DejaVuSans-66"/>
     <use x="318.603516" xlink:href="#DejaVuSans-32"/>
     <use x="382.226562" xlink:href="#DejaVuSans-34"/>
    </g>
    <!-- 51 targets: 100..1e-08 -->
    <g transform="translate(60.41088 49.533135)scale(0.102 -0.102)">
     <defs>
      <path d="M 750 794 
L 1409 794 
L 1409 0 
L 750 0 
L 750 794 
z
M 750 3309 
L 1409 3309 
L 1409 2516 
L 750 2516 
L 750 3309 
z
" id="DejaVuSans-3a" transform="scale(0.015625)"/>
     </defs>
     <use xlink:href="#DejaVuSans-35"/>
     <use x="63.623047" xlink:href="#DejaVuSans-31"/>
     <use x="127.246094" xlink:href="#DejaVuSans-20"/>
     <use x="159.033203" xlink:href="#DejaVuSans-74"/>
     <use x="198.242188" xlink:href="#DejaVuSans-61"/>
     <use x="259.521484" xlink:href="#DejaVuSans-72"/>
     <use x="298.884766" xlink:href="#DejaVuSans-67"/>
     <use x="362.361328" xlink:href="#DejaVuSans-65"/>
     <use x="423.884766" xlink:href="#DejaVuSans-74"/>
     <use x="463.09375" xlink:href="#DejaVuSans-73"/>
     <use x="515.193359" xlink:href="#DejaVuSans-3a"/>
     <use x="548.884766" xlink:href="#DejaVuSans-20"/>
     <use x="580.671875" xlink:href="#DejaVuSans-31"/>
     <use x="644.294922" xlink:href="#DejaVuSans-30"/>
     <use x="707.917969" xlink:href="#DejaVuSans-30"/>
     <use x="771.541016" xlink:href="#DejaVuSans-2e"/>
     <use x="803.328125" xlink:href="#DejaVuSans-2e"/>
     <use x="835.115234" xlink:href="#DejaVuSans-31"/>
     <use x="898.738281" xlink:href="#DejaVuSans-65"/>
     <use x="960.261719" xlink:href="#DejaVuSans-2d"/>
     <use x="996.345703" xlink:href="#DejaVuSans-30"/>
     <use x="1059.96875" xlink:href="#DejaVuSans-38"/>
    </g>
    <!-- 15 instances -->
    <g transform="translate(60.41088 60.954904)scale(0.102 -0.102)">
     <use xlink:href="#DejaVuSans-31"/>
     <use x="63.623047" xlink:href="#DejaVuSans-35"/>
     <use x="127.246094" xlink:href="#DejaVuSans-20"/>
     <use x="159.033203" xlink:href="#DejaVuSans-69"/>
     <use x="186.816406" xlink:href="#DejaVuSans-6e"/>
     <use x="250.195312" xlink:href="#DejaVuSans-73"/>
     <use x="302.294922" xlink:href="#DejaVuSans-74"/>
     <use x="341.503906" xlink:href="#DejaVuSans-61"/>
     <use x="402.783203" xlink:href="#DejaVuSans-6e"/>
     <use x="466.162109" xlink:href="#DejaVuSans-63"/>
     <use x="521.142578" xlink:href="#DejaVuSans-65"/>
     <use x="582.666016" xlink:href="#DejaVuSans-73"/>
    </g>
   </g>
   <g id="text_20">
    <!-- v2.4 -->
    <g style="fill:#808080;" transform="translate(187.233062 294.151352)scale(0.1 -0.1)">
     <use xlink:href="#DejaVuSans-76"/>
     <use x="59.179688" xlink:href="#DejaVuSans-32"/>
     <use x="122.802734" xlink:href="#DejaVuSans-2e"/>
     <use x="154.589844" xlink:href="#DejaVuSans-34"/>
    </g>
   </g>
   <g id="text_21">
    <!-- 24 Lunacek bi-Rastrigin -->
    <g transform="translate(80.351812 21.648)scale(0.2 -0.2)">
     <defs>
      <path d="M 628 4666 
L 1259 4666 
L 1259 531 
L 3531 531 
L 3531 0 
L 628 0 
L 628 4666 
z
" id="DejaVuSans-4c" transform="scale(0.015625)"/>
      <path d="M 581 4863 
L 1159 4863 
L 1159 1991 
L 2875 3500 
L 3609 3500 
L 1753 1863 
L 3688 0 
L 2938 0 
L 1159 1709 
L 1159 0 
L 581 0 
L 581 4863 
z
" id="DejaVuSans-6b" transform="scale(0.015625)"/>
      <path d="M 2841 2188 
Q 3044 2119 3236 1894 
Q 3428 1669 3622 1275 
L 4263 0 
L 3584 0 
L 2988 1197 
Q 2756 1666 2539 1819 
Q 2322 1972 1947 1972 
L 1259 1972 
L 1259 0 
L 628 0 
L 628 4666 
L 2053 4666 
Q 2853 4666 3247 4331 
Q 3641 3997 3641 3322 
Q 3641 2881 3436 2590 
Q 3231 2300 2841 2188 
z
M 1259 4147 
L 1259 2491 
L 2053 2491 
Q 2509 2491 2742 2702 
Q 2975 2913 2975 3322 
Q 2975 3731 2742 3939 
Q 2509 4147 2053 4147 
L 1259 4147 
z
" id="DejaVuSans-52" transform="scale(0.015625)"/>
     </defs>
     <use xlink:href="#DejaVuSans-32"/>
     <use x="63.623047" xlink:href="#DejaVuSans-34"/>
     <use x="127.246094" xlink:href="#DejaVuSans-20"/>
     <use x="159.033203" xlink:href="#DejaVuSans-4c"/>
     <use x="212.996094" xlink:href="#DejaVuSans-75"/>
     <use x="276.375" xlink:href="#DejaVuSans-6e"/>
     <use x="339.753906" xlink:href="#DejaVuSans-61"/>
     <use x="401.033203" xlink:href="#DejaVuSans-63"/>
     <use x="456.013672" xlink:href="#DejaVuSans-65"/>
     <use x="517.537109" xlink:href="#DejaVuSans-6b"/>
     <use x="575.447266" xlink:href="#DejaVuSans-20"/>
     <use x="607.234375" xlink:href="#DejaVuSans-62"/>
     <use x="670.710938" xlink:href="#DejaVuSans-69"/>
     <use x="698.494141" xlink:href="#DejaVuSans-2d"/>
     <use x="734.578125" xlink:href="#DejaVuSans-52"/>
     <use x="801.810547" xlink:href="#DejaVuSans-61"/>
     <use x="863.089844" xlink:href="#DejaVuSans-73"/>
     <use x="915.189453" xlink:href="#DejaVuSans-74"/>
     <use x="954.398438" xlink:href="#DejaVuSans-72"/>
     <use x="995.511719" xlink:href="#DejaVuSans-69"/>
     <use x="1023.294922" xlink:href="#DejaVuSans-67"/>
     <use x="1086.771484" xlink:href="#DejaVuSans-69"/>
     <use x="1114.554688" xlink:href="#DejaVuSans-6e"/>
    </g>
   </g>
  </g>
 </g>
 <defs>
  <clipPath id="pf12316c81d">
   <rect height="271.296" width="281.088" x="57.6" y="27.648"/>
  </clipPath>
 </defs>
</svg>
