<?xml version="1.0" encoding="utf-8" standalone="no"?>
<!DOCTYPE svg PUBLIC "-//W3C//DTD SVG 1.1//EN"
  "http://www.w3.org/Graphics/SVG/1.1/DTD/svg11.dtd">
<svg height="345.6pt" version="1.1" viewBox="0 0 460.8 345.6" width="460.8pt" xmlns="http://www.w3.org/2000/svg" xmlns:xlink="http://www.w3.org/1999/xlink">
 <metadata>
  <rdf:RDF xmlns:cc="http://creativecommons.org/ns#" xmlns:dc="http://purl.org/dc/elements/1.1/" xmlns:rdf="http://www.w3.org/1999/02/22-rdf-syntax-ns#">
   <cc:Work>
    <dc:type rdf:resource="http://purl.org/dc/dcmitype/StillImage"/>
    <dc:date>2021-04-26T18:48:55.627192</dc:date>
    <dc:format>image/svg+xml</dc:format>
    <dc:creator>
     <cc:Agent>
      <dc:title>Matplotlib v3.4.1, https://matplotlib.org/</dc:title>
     </cc:Agent>
    </dc:creator>
   </cc:Work>
  </rdf:RDF>
 </metadata>
 <defs>
  <style type="text/css">*{stroke-linecap:butt;stroke-linejoin:round;}</style>
 </defs>
 <g id="figure_1">
  <g id="patch_1">
   <path d="M 0 345.6 
L 460.8 345.6 
L 460.8 0 
L 0 0 
z
" style="fill:#ffffff;"/>
  </g>
  <g id="axes_1">
   <g id="patch_2">
    <path d="M 57.6 298.944 
L 338.688 298.944 
L 338.688 3.456 
L 57.6 3.456 
z
" style="fill:#ffffff;"/>
   </g>
   <g id="matplotlib.axis_1">
    <g id="xtick_1">
     <g id="line2d_1">
      <path clip-path="url(#p83a5e508de)" d="M 57.6 298.944 
L 57.6 3.456 
" style="fill:none;stroke:#b0b0b0;stroke-linecap:square;stroke-width:0.8;"/>
     </g>
     <g id="line2d_2">
      <defs>
       <path d="M 0 0 
L 0 3.5 
" id="m7705b634d9" style="stroke:#000000;stroke-width:0.8;"/>
      </defs>
      <g>
       <use style="stroke:#000000;stroke-width:0.8;" x="57.6" xlink:href="#m7705b634d9" y="298.944"/>
      </g>
     </g>
     <g id="text_1">
      <!-- 0 -->
      <g transform="translate(51.2375 321.140875)scale(0.2 -0.2)">
       <defs>
        <path d="M 2034 4250 
Q 1547 4250 1301 3770 
Q 1056 3291 1056 2328 
Q 1056 1369 1301 889 
Q 1547 409 2034 409 
Q 2525 409 2770 889 
Q 3016 1369 3016 2328 
Q 3016 3291 2770 3770 
Q 2525 4250 2034 4250 
z
M 2034 4750 
Q 2819 4750 3233 4129 
Q 3647 3509 3647 2328 
Q 3647 1150 3233 529 
Q 2819 -91 2034 -91 
Q 1250 -91 836 529 
Q 422 1150 422 2328 
Q 422 3509 836 4129 
Q 1250 4750 2034 4750 
z
" id="DejaVuSans-30" transform="scale(0.015625)"/>
       </defs>
       <use xlink:href="#DejaVuSans-30"/>
      </g>
     </g>
    </g>
    <g id="xtick_2">
     <g id="line2d_3">
      <path clip-path="url(#p83a5e508de)" d="M 137.910857 298.944 
L 137.910857 3.456 
" style="fill:none;stroke:#b0b0b0;stroke-linecap:square;stroke-width:0.8;"/>
     </g>
     <g id="line2d_4">
      <g>
       <use style="stroke:#000000;stroke-width:0.8;" x="137.910857" xlink:href="#m7705b634d9" y="298.944"/>
      </g>
     </g>
     <g id="text_2">
      <!-- 2 -->
      <g transform="translate(131.548357 321.140875)scale(0.2 -0.2)">
       <defs>
        <path d="M 1228 531 
L 3431 531 
L 3431 0 
L 469 0 
L 469 531 
Q 828 903 1448 1529 
Q 2069 2156 2228 2338 
Q 2531 2678 2651 2914 
Q 2772 3150 2772 3378 
Q 2772 3750 2511 3984 
Q 2250 4219 1831 4219 
Q 1534 4219 1204 4116 
Q 875 4013 500 3803 
L 500 4441 
Q 881 4594 1212 4672 
Q 1544 4750 1819 4750 
Q 2544 4750 2975 4387 
Q 3406 4025 3406 3419 
Q 3406 3131 3298 2873 
Q 3191 2616 2906 2266 
Q 2828 2175 2409 1742 
Q 1991 1309 1228 531 
z
" id="DejaVuSans-32" transform="scale(0.015625)"/>
       </defs>
       <use xlink:href="#DejaVuSans-32"/>
      </g>
     </g>
    </g>
    <g id="xtick_3">
     <g id="line2d_5">
      <path clip-path="url(#p83a5e508de)" d="M 218.221714 298.944 
L 218.221714 3.456 
" style="fill:none;stroke:#b0b0b0;stroke-linecap:square;stroke-width:0.8;"/>
     </g>
     <g id="line2d_6">
      <g>
       <use style="stroke:#000000;stroke-width:0.8;" x="218.221714" xlink:href="#m7705b634d9" y="298.944"/>
      </g>
     </g>
     <g id="text_3">
      <!-- 4 -->
      <g transform="translate(211.859214 321.140875)scale(0.2 -0.2)">
       <defs>
        <path d="M 2419 4116 
L 825 1625 
L 2419 1625 
L 2419 4116 
z
M 2253 4666 
L 3047 4666 
L 3047 1625 
L 3713 1625 
L 3713 1100 
L 3047 1100 
L 3047 0 
L 2419 0 
L 2419 1100 
L 313 1100 
L 313 1709 
L 2253 4666 
z
" id="DejaVuSans-34" transform="scale(0.015625)"/>
       </defs>
       <use xlink:href="#DejaVuSans-34"/>
      </g>
     </g>
    </g>
    <g id="xtick_4">
     <g id="line2d_7">
      <path clip-path="url(#p83a5e508de)" d="M 298.532571 298.944 
L 298.532571 3.456 
" style="fill:none;stroke:#b0b0b0;stroke-linecap:square;stroke-width:0.8;"/>
     </g>
     <g id="line2d_8">
      <g>
       <use style="stroke:#000000;stroke-width:0.8;" x="298.532571" xlink:href="#m7705b634d9" y="298.944"/>
      </g>
     </g>
     <g id="text_4">
      <!-- 6 -->
      <g transform="translate(292.170071 321.140875)scale(0.2 -0.2)">
       <defs>
        <path d="M 2113 2584 
Q 1688 2584 1439 2293 
Q 1191 2003 1191 1497 
Q 1191 994 1439 701 
Q 1688 409 2113 409 
Q 2538 409 2786 701 
Q 3034 994 3034 1497 
Q 3034 2003 2786 2293 
Q 2538 2584 2113 2584 
z
M 3366 4563 
L 3366 3988 
Q 3128 4100 2886 4159 
Q 2644 4219 2406 4219 
Q 1781 4219 1451 3797 
Q 1122 3375 1075 2522 
Q 1259 2794 1537 2939 
Q 1816 3084 2150 3084 
Q 2853 3084 3261 2657 
Q 3669 2231 3669 1497 
Q 3669 778 3244 343 
Q 2819 -91 2113 -91 
Q 1303 -91 875 529 
Q 447 1150 447 2328 
Q 447 3434 972 4092 
Q 1497 4750 2381 4750 
Q 2619 4750 2861 4703 
Q 3103 4656 3366 4563 
z
" id="DejaVuSans-36" transform="scale(0.015625)"/>
       </defs>
       <use xlink:href="#DejaVuSans-36"/>
      </g>
     </g>
    </g>
    <g id="xtick_5">
     <g id="line2d_9">
      <path clip-path="url(#p83a5e508de)" d="M 97.755429 298.944 
L 97.755429 3.456 
" style="fill:none;stroke:#b0b0b0;stroke-linecap:square;stroke-width:0.8;"/>
     </g>
     <g id="line2d_10">
      <defs>
       <path d="M 0 0 
L 0 2 
" id="mfb2aace6a5" style="stroke:#000000;stroke-width:0.6;"/>
      </defs>
      <g>
       <use style="stroke:#000000;stroke-width:0.6;" x="97.755429" xlink:href="#mfb2aace6a5" y="298.944"/>
      </g>
     </g>
    </g>
    <g id="xtick_6">
     <g id="line2d_11">
      <path clip-path="url(#p83a5e508de)" d="M 178.066286 298.944 
L 178.066286 3.456 
" style="fill:none;stroke:#b0b0b0;stroke-linecap:square;stroke-width:0.8;"/>
     </g>
     <g id="line2d_12">
      <g>
       <use style="stroke:#000000;stroke-width:0.6;" x="178.066286" xlink:href="#mfb2aace6a5" y="298.944"/>
      </g>
     </g>
    </g>
    <g id="xtick_7">
     <g id="line2d_13">
      <path clip-path="url(#p83a5e508de)" d="M 258.377143 298.944 
L 258.377143 3.456 
" style="fill:none;stroke:#b0b0b0;stroke-linecap:square;stroke-width:0.8;"/>
     </g>
     <g id="line2d_14">
      <g>
       <use style="stroke:#000000;stroke-width:0.6;" x="258.377143" xlink:href="#mfb2aace6a5" y="298.944"/>
      </g>
     </g>
    </g>
    <g id="xtick_8">
     <g id="line2d_15">
      <path clip-path="url(#p83a5e508de)" d="M 338.688 298.944 
L 338.688 3.456 
" style="fill:none;stroke:#b0b0b0;stroke-linecap:square;stroke-width:0.8;"/>
     </g>
     <g id="line2d_16">
      <g>
       <use style="stroke:#000000;stroke-width:0.6;" x="338.688" xlink:href="#mfb2aace6a5" y="298.944"/>
      </g>
     </g>
    </g>
    <g id="text_5">
     <!-- log10(# f-evals / dimension) -->
     <g transform="translate(77.764078 342.217594)scale(0.17 -0.17)">
      <defs>
       <path d="M 603 4863 
L 1178 4863 
L 1178 0 
L 603 0 
L 603 4863 
z
" id="DejaVuSans-6c" transform="scale(0.015625)"/>
       <path d="M 1959 3097 
Q 1497 3097 1228 2736 
Q 959 2375 959 1747 
Q 959 1119 1226 758 
Q 1494 397 1959 397 
Q 2419 397 2687 759 
Q 2956 1122 2956 1747 
Q 2956 2369 2687 2733 
Q 2419 3097 1959 3097 
z
M 1959 3584 
Q 2709 3584 3137 3096 
Q 3566 2609 3566 1747 
Q 3566 888 3137 398 
Q 2709 -91 1959 -91 
Q 1206 -91 779 398 
Q 353 888 353 1747 
Q 353 2609 779 3096 
Q 1206 3584 1959 3584 
z
" id="DejaVuSans-6f" transform="scale(0.015625)"/>
       <path d="M 2906 1791 
Q 2906 2416 2648 2759 
Q 2391 3103 1925 3103 
Q 1463 3103 1205 2759 
Q 947 2416 947 1791 
Q 947 1169 1205 825 
Q 1463 481 1925 481 
Q 2391 481 2648 825 
Q 2906 1169 2906 1791 
z
M 3481 434 
Q 3481 -459 3084 -895 
Q 2688 -1331 1869 -1331 
Q 1566 -1331 1297 -1286 
Q 1028 -1241 775 -1147 
L 775 -588 
Q 1028 -725 1275 -790 
Q 1522 -856 1778 -856 
Q 2344 -856 2625 -561 
Q 2906 -266 2906 331 
L 2906 616 
Q 2728 306 2450 153 
Q 2172 0 1784 0 
Q 1141 0 747 490 
Q 353 981 353 1791 
Q 353 2603 747 3093 
Q 1141 3584 1784 3584 
Q 2172 3584 2450 3431 
Q 2728 3278 2906 2969 
L 2906 3500 
L 3481 3500 
L 3481 434 
z
" id="DejaVuSans-67" transform="scale(0.015625)"/>
       <path d="M 794 531 
L 1825 531 
L 1825 4091 
L 703 3866 
L 703 4441 
L 1819 4666 
L 2450 4666 
L 2450 531 
L 3481 531 
L 3481 0 
L 794 0 
L 794 531 
z
" id="DejaVuSans-31" transform="scale(0.015625)"/>
       <path d="M 1984 4856 
Q 1566 4138 1362 3434 
Q 1159 2731 1159 2009 
Q 1159 1288 1364 580 
Q 1569 -128 1984 -844 
L 1484 -844 
Q 1016 -109 783 600 
Q 550 1309 550 2009 
Q 550 2706 781 3412 
Q 1013 4119 1484 4856 
L 1984 4856 
z
" id="DejaVuSans-28" transform="scale(0.015625)"/>
       <path d="M 3272 2816 
L 2363 2816 
L 2100 1772 
L 3016 1772 
L 3272 2816 
z
M 2803 4594 
L 2478 3297 
L 3391 3297 
L 3719 4594 
L 4219 4594 
L 3897 3297 
L 4872 3297 
L 4872 2816 
L 3775 2816 
L 3519 1772 
L 4513 1772 
L 4513 1294 
L 3397 1294 
L 3072 0 
L 2572 0 
L 2894 1294 
L 1978 1294 
L 1656 0 
L 1153 0 
L 1478 1294 
L 494 1294 
L 494 1772 
L 1594 1772 
L 1856 2816 
L 850 2816 
L 850 3297 
L 1978 3297 
L 2297 4594 
L 2803 4594 
z
" id="DejaVuSans-23" transform="scale(0.015625)"/>
       <path id="DejaVuSans-20" transform="scale(0.015625)"/>
       <path d="M 2375 4863 
L 2375 4384 
L 1825 4384 
Q 1516 4384 1395 4259 
Q 1275 4134 1275 3809 
L 1275 3500 
L 2222 3500 
L 2222 3053 
L 1275 3053 
L 1275 0 
L 697 0 
L 697 3053 
L 147 3053 
L 147 3500 
L 697 3500 
L 697 3744 
Q 697 4328 969 4595 
Q 1241 4863 1831 4863 
L 2375 4863 
z
" id="DejaVuSans-66" transform="scale(0.015625)"/>
       <path d="M 313 2009 
L 1997 2009 
L 1997 1497 
L 313 1497 
L 313 2009 
z
" id="DejaVuSans-2d" transform="scale(0.015625)"/>
       <path d="M 3597 1894 
L 3597 1613 
L 953 1613 
Q 991 1019 1311 708 
Q 1631 397 2203 397 
Q 2534 397 2845 478 
Q 3156 559 3463 722 
L 3463 178 
Q 3153 47 2828 -22 
Q 2503 -91 2169 -91 
Q 1331 -91 842 396 
Q 353 884 353 1716 
Q 353 2575 817 3079 
Q 1281 3584 2069 3584 
Q 2775 3584 3186 3129 
Q 3597 2675 3597 1894 
z
M 3022 2063 
Q 3016 2534 2758 2815 
Q 2500 3097 2075 3097 
Q 1594 3097 1305 2825 
Q 1016 2553 972 2059 
L 3022 2063 
z
" id="DejaVuSans-65" transform="scale(0.015625)"/>
       <path d="M 191 3500 
L 800 3500 
L 1894 563 
L 2988 3500 
L 3597 3500 
L 2284 0 
L 1503 0 
L 191 3500 
z
" id="DejaVuSans-76" transform="scale(0.015625)"/>
       <path d="M 2194 1759 
Q 1497 1759 1228 1600 
Q 959 1441 959 1056 
Q 959 750 1161 570 
Q 1363 391 1709 391 
Q 2188 391 2477 730 
Q 2766 1069 2766 1631 
L 2766 1759 
L 2194 1759 
z
M 3341 1997 
L 3341 0 
L 2766 0 
L 2766 531 
Q 2569 213 2275 61 
Q 1981 -91 1556 -91 
Q 1019 -91 701 211 
Q 384 513 384 1019 
Q 384 1609 779 1909 
Q 1175 2209 1959 2209 
L 2766 2209 
L 2766 2266 
Q 2766 2663 2505 2880 
Q 2244 3097 1772 3097 
Q 1472 3097 1187 3025 
Q 903 2953 641 2809 
L 641 3341 
Q 956 3463 1253 3523 
Q 1550 3584 1831 3584 
Q 2591 3584 2966 3190 
Q 3341 2797 3341 1997 
z
" id="DejaVuSans-61" transform="scale(0.015625)"/>
       <path d="M 2834 3397 
L 2834 2853 
Q 2591 2978 2328 3040 
Q 2066 3103 1784 3103 
Q 1356 3103 1142 2972 
Q 928 2841 928 2578 
Q 928 2378 1081 2264 
Q 1234 2150 1697 2047 
L 1894 2003 
Q 2506 1872 2764 1633 
Q 3022 1394 3022 966 
Q 3022 478 2636 193 
Q 2250 -91 1575 -91 
Q 1294 -91 989 -36 
Q 684 19 347 128 
L 347 722 
Q 666 556 975 473 
Q 1284 391 1588 391 
Q 1994 391 2212 530 
Q 2431 669 2431 922 
Q 2431 1156 2273 1281 
Q 2116 1406 1581 1522 
L 1381 1569 
Q 847 1681 609 1914 
Q 372 2147 372 2553 
Q 372 3047 722 3315 
Q 1072 3584 1716 3584 
Q 2034 3584 2315 3537 
Q 2597 3491 2834 3397 
z
" id="DejaVuSans-73" transform="scale(0.015625)"/>
       <path d="M 1625 4666 
L 2156 4666 
L 531 -594 
L 0 -594 
L 1625 4666 
z
" id="DejaVuSans-2f" transform="scale(0.015625)"/>
       <path d="M 2906 2969 
L 2906 4863 
L 3481 4863 
L 3481 0 
L 2906 0 
L 2906 525 
Q 2725 213 2448 61 
Q 2172 -91 1784 -91 
Q 1150 -91 751 415 
Q 353 922 353 1747 
Q 353 2572 751 3078 
Q 1150 3584 1784 3584 
Q 2172 3584 2448 3432 
Q 2725 3281 2906 2969 
z
M 947 1747 
Q 947 1113 1208 752 
Q 1469 391 1925 391 
Q 2381 391 2643 752 
Q 2906 1113 2906 1747 
Q 2906 2381 2643 2742 
Q 2381 3103 1925 3103 
Q 1469 3103 1208 2742 
Q 947 2381 947 1747 
z
" id="DejaVuSans-64" transform="scale(0.015625)"/>
       <path d="M 603 3500 
L 1178 3500 
L 1178 0 
L 603 0 
L 603 3500 
z
M 603 4863 
L 1178 4863 
L 1178 4134 
L 603 4134 
L 603 4863 
z
" id="DejaVuSans-69" transform="scale(0.015625)"/>
       <path d="M 3328 2828 
Q 3544 3216 3844 3400 
Q 4144 3584 4550 3584 
Q 5097 3584 5394 3201 
Q 5691 2819 5691 2113 
L 5691 0 
L 5113 0 
L 5113 2094 
Q 5113 2597 4934 2840 
Q 4756 3084 4391 3084 
Q 3944 3084 3684 2787 
Q 3425 2491 3425 1978 
L 3425 0 
L 2847 0 
L 2847 2094 
Q 2847 2600 2669 2842 
Q 2491 3084 2119 3084 
Q 1678 3084 1418 2786 
Q 1159 2488 1159 1978 
L 1159 0 
L 581 0 
L 581 3500 
L 1159 3500 
L 1159 2956 
Q 1356 3278 1631 3431 
Q 1906 3584 2284 3584 
Q 2666 3584 2933 3390 
Q 3200 3197 3328 2828 
z
" id="DejaVuSans-6d" transform="scale(0.015625)"/>
       <path d="M 3513 2113 
L 3513 0 
L 2938 0 
L 2938 2094 
Q 2938 2591 2744 2837 
Q 2550 3084 2163 3084 
Q 1697 3084 1428 2787 
Q 1159 2491 1159 1978 
L 1159 0 
L 581 0 
L 581 3500 
L 1159 3500 
L 1159 2956 
Q 1366 3272 1645 3428 
Q 1925 3584 2291 3584 
Q 2894 3584 3203 3211 
Q 3513 2838 3513 2113 
z
" id="DejaVuSans-6e" transform="scale(0.015625)"/>
       <path d="M 513 4856 
L 1013 4856 
Q 1481 4119 1714 3412 
Q 1947 2706 1947 2009 
Q 1947 1309 1714 600 
Q 1481 -109 1013 -844 
L 513 -844 
Q 928 -128 1133 580 
Q 1338 1288 1338 2009 
Q 1338 2731 1133 3434 
Q 928 4138 513 4856 
z
" id="DejaVuSans-29" transform="scale(0.015625)"/>
      </defs>
      <use xlink:href="#DejaVuSans-6c"/>
      <use x="27.783203" xlink:href="#DejaVuSans-6f"/>
      <use x="88.964844" xlink:href="#DejaVuSans-67"/>
      <use x="152.441406" xlink:href="#DejaVuSans-31"/>
      <use x="216.064453" xlink:href="#DejaVuSans-30"/>
      <use x="279.6875" xlink:href="#DejaVuSans-28"/>
      <use x="318.701172" xlink:href="#DejaVuSans-23"/>
      <use x="402.490234" xlink:href="#DejaVuSans-20"/>
      <use x="434.277344" xlink:href="#DejaVuSans-66"/>
      <use x="463.982422" xlink:href="#DejaVuSans-2d"/>
      <use x="500.066406" xlink:href="#DejaVuSans-65"/>
      <use x="561.589844" xlink:href="#DejaVuSans-76"/>
      <use x="620.769531" xlink:href="#DejaVuSans-61"/>
      <use x="682.048828" xlink:href="#DejaVuSans-6c"/>
      <use x="709.832031" xlink:href="#DejaVuSans-73"/>
      <use x="761.931641" xlink:href="#DejaVuSans-20"/>
      <use x="793.71875" xlink:href="#DejaVuSans-2f"/>
      <use x="827.410156" xlink:href="#DejaVuSans-20"/>
      <use x="859.197266" xlink:href="#DejaVuSans-64"/>
      <use x="922.673828" xlink:href="#DejaVuSans-69"/>
      <use x="950.457031" xlink:href="#DejaVuSans-6d"/>
      <use x="1047.869141" xlink:href="#DejaVuSans-65"/>
      <use x="1109.392578" xlink:href="#DejaVuSans-6e"/>
      <use x="1172.771484" xlink:href="#DejaVuSans-73"/>
      <use x="1224.871094" xlink:href="#DejaVuSans-69"/>
      <use x="1252.654297" xlink:href="#DejaVuSans-6f"/>
      <use x="1313.835938" xlink:href="#DejaVuSans-6e"/>
      <use x="1377.214844" xlink:href="#DejaVuSans-29"/>
     </g>
    </g>
   </g>
   <g id="matplotlib.axis_2">
    <g id="ytick_1">
     <g id="line2d_17">
      <path clip-path="url(#p83a5e508de)" d="M 57.6 298.944 
L 338.688 298.944 
" style="fill:none;stroke:#b0b0b0;stroke-linecap:square;stroke-width:0.8;"/>
     </g>
     <g id="line2d_18">
      <defs>
       <path d="M 0 0 
L -3.5 0 
" id="mebb8783a0b" style="stroke:#000000;stroke-width:0.8;"/>
      </defs>
      <g>
       <use style="stroke:#000000;stroke-width:0.8;" x="57.6" xlink:href="#mebb8783a0b" y="298.944"/>
      </g>
     </g>
     <g id="text_6">
      <!-- 0.0 -->
      <g transform="translate(25.155 305.02275)scale(0.16 -0.16)">
       <defs>
        <path d="M 684 794 
L 1344 794 
L 1344 0 
L 684 0 
L 684 794 
z
" id="DejaVuSans-2e" transform="scale(0.015625)"/>
       </defs>
       <use xlink:href="#DejaVuSans-30"/>
       <use x="63.623047" xlink:href="#DejaVuSans-2e"/>
       <use x="95.410156" xlink:href="#DejaVuSans-30"/>
      </g>
     </g>
    </g>
    <g id="ytick_2">
     <g id="line2d_19">
      <path clip-path="url(#p83a5e508de)" d="M 57.6 240.431525 
L 338.688 240.431525 
" style="fill:none;stroke:#b0b0b0;stroke-linecap:square;stroke-width:0.8;"/>
     </g>
     <g id="line2d_20">
      <g>
       <use style="stroke:#000000;stroke-width:0.8;" x="57.6" xlink:href="#mebb8783a0b" y="240.431525"/>
      </g>
     </g>
     <g id="text_7">
      <!-- 0.2 -->
      <g transform="translate(25.155 246.510275)scale(0.16 -0.16)">
       <use xlink:href="#DejaVuSans-30"/>
       <use x="63.623047" xlink:href="#DejaVuSans-2e"/>
       <use x="95.410156" xlink:href="#DejaVuSans-32"/>
      </g>
     </g>
    </g>
    <g id="ytick_3">
     <g id="line2d_21">
      <path clip-path="url(#p83a5e508de)" d="M 57.6 181.91905 
L 338.688 181.91905 
" style="fill:none;stroke:#b0b0b0;stroke-linecap:square;stroke-width:0.8;"/>
     </g>
     <g id="line2d_22">
      <g>
       <use style="stroke:#000000;stroke-width:0.8;" x="57.6" xlink:href="#mebb8783a0b" y="181.91905"/>
      </g>
     </g>
     <g id="text_8">
      <!-- 0.4 -->
      <g transform="translate(25.155 187.9978)scale(0.16 -0.16)">
       <use xlink:href="#DejaVuSans-30"/>
       <use x="63.623047" xlink:href="#DejaVuSans-2e"/>
       <use x="95.410156" xlink:href="#DejaVuSans-34"/>
      </g>
     </g>
    </g>
    <g id="ytick_4">
     <g id="line2d_23">
      <path clip-path="url(#p83a5e508de)" d="M 57.6 123.406574 
L 338.688 123.406574 
" style="fill:none;stroke:#b0b0b0;stroke-linecap:square;stroke-width:0.8;"/>
     </g>
     <g id="line2d_24">
      <g>
       <use style="stroke:#000000;stroke-width:0.8;" x="57.6" xlink:href="#mebb8783a0b" y="123.406574"/>
      </g>
     </g>
     <g id="text_9">
      <!-- 0.6 -->
      <g transform="translate(25.155 129.485324)scale(0.16 -0.16)">
       <use xlink:href="#DejaVuSans-30"/>
       <use x="63.623047" xlink:href="#DejaVuSans-2e"/>
       <use x="95.410156" xlink:href="#DejaVuSans-36"/>
      </g>
     </g>
    </g>
    <g id="ytick_5">
     <g id="line2d_25">
      <path clip-path="url(#p83a5e508de)" d="M 57.6 64.894099 
L 338.688 64.894099 
" style="fill:none;stroke:#b0b0b0;stroke-linecap:square;stroke-width:0.8;"/>
     </g>
     <g id="line2d_26">
      <g>
       <use style="stroke:#000000;stroke-width:0.8;" x="57.6" xlink:href="#mebb8783a0b" y="64.894099"/>
      </g>
     </g>
     <g id="text_10">
      <!-- 0.8 -->
      <g transform="translate(25.155 70.972849)scale(0.16 -0.16)">
       <defs>
        <path d="M 2034 2216 
Q 1584 2216 1326 1975 
Q 1069 1734 1069 1313 
Q 1069 891 1326 650 
Q 1584 409 2034 409 
Q 2484 409 2743 651 
Q 3003 894 3003 1313 
Q 3003 1734 2745 1975 
Q 2488 2216 2034 2216 
z
M 1403 2484 
Q 997 2584 770 2862 
Q 544 3141 544 3541 
Q 544 4100 942 4425 
Q 1341 4750 2034 4750 
Q 2731 4750 3128 4425 
Q 3525 4100 3525 3541 
Q 3525 3141 3298 2862 
Q 3072 2584 2669 2484 
Q 3125 2378 3379 2068 
Q 3634 1759 3634 1313 
Q 3634 634 3220 271 
Q 2806 -91 2034 -91 
Q 1263 -91 848 271 
Q 434 634 434 1313 
Q 434 1759 690 2068 
Q 947 2378 1403 2484 
z
M 1172 3481 
Q 1172 3119 1398 2916 
Q 1625 2713 2034 2713 
Q 2441 2713 2670 2916 
Q 2900 3119 2900 3481 
Q 2900 3844 2670 4047 
Q 2441 4250 2034 4250 
Q 1625 4250 1398 4047 
Q 1172 3844 1172 3481 
z
" id="DejaVuSans-38" transform="scale(0.015625)"/>
       </defs>
       <use xlink:href="#DejaVuSans-30"/>
       <use x="63.623047" xlink:href="#DejaVuSans-2e"/>
       <use x="95.410156" xlink:href="#DejaVuSans-38"/>
      </g>
     </g>
    </g>
    <g id="ytick_6">
     <g id="line2d_27">
      <path clip-path="url(#p83a5e508de)" d="M 57.6 6.381624 
L 338.688 6.381624 
" style="fill:none;stroke:#b0b0b0;stroke-linecap:square;stroke-width:0.8;"/>
     </g>
     <g id="line2d_28">
      <g>
       <use style="stroke:#000000;stroke-width:0.8;" x="57.6" xlink:href="#mebb8783a0b" y="6.381624"/>
      </g>
     </g>
     <g id="text_11">
      <!-- 1.0 -->
      <g transform="translate(25.155 12.460374)scale(0.16 -0.16)">
       <use xlink:href="#DejaVuSans-31"/>
       <use x="63.623047" xlink:href="#DejaVuSans-2e"/>
       <use x="95.410156" xlink:href="#DejaVuSans-30"/>
      </g>
     </g>
    </g>
    <g id="text_12">
     <!-- Fraction of function,target pairs -->
     <g transform="translate(17.619531 285.585)rotate(-90)scale(0.17 -0.17)">
      <defs>
       <path d="M 628 4666 
L 3309 4666 
L 3309 4134 
L 1259 4134 
L 1259 2759 
L 3109 2759 
L 3109 2228 
L 1259 2228 
L 1259 0 
L 628 0 
L 628 4666 
z
" id="DejaVuSans-46" transform="scale(0.015625)"/>
       <path d="M 2631 2963 
Q 2534 3019 2420 3045 
Q 2306 3072 2169 3072 
Q 1681 3072 1420 2755 
Q 1159 2438 1159 1844 
L 1159 0 
L 581 0 
L 581 3500 
L 1159 3500 
L 1159 2956 
Q 1341 3275 1631 3429 
Q 1922 3584 2338 3584 
Q 2397 3584 2469 3576 
Q 2541 3569 2628 3553 
L 2631 2963 
z
" id="DejaVuSans-72" transform="scale(0.015625)"/>
       <path d="M 3122 3366 
L 3122 2828 
Q 2878 2963 2633 3030 
Q 2388 3097 2138 3097 
Q 1578 3097 1268 2742 
Q 959 2388 959 1747 
Q 959 1106 1268 751 
Q 1578 397 2138 397 
Q 2388 397 2633 464 
Q 2878 531 3122 666 
L 3122 134 
Q 2881 22 2623 -34 
Q 2366 -91 2075 -91 
Q 1284 -91 818 406 
Q 353 903 353 1747 
Q 353 2603 823 3093 
Q 1294 3584 2113 3584 
Q 2378 3584 2631 3529 
Q 2884 3475 3122 3366 
z
" id="DejaVuSans-63" transform="scale(0.015625)"/>
       <path d="M 1172 4494 
L 1172 3500 
L 2356 3500 
L 2356 3053 
L 1172 3053 
L 1172 1153 
Q 1172 725 1289 603 
Q 1406 481 1766 481 
L 2356 481 
L 2356 0 
L 1766 0 
Q 1100 0 847 248 
Q 594 497 594 1153 
L 594 3053 
L 172 3053 
L 172 3500 
L 594 3500 
L 594 4494 
L 1172 4494 
z
" id="DejaVuSans-74" transform="scale(0.015625)"/>
       <path d="M 544 1381 
L 544 3500 
L 1119 3500 
L 1119 1403 
Q 1119 906 1312 657 
Q 1506 409 1894 409 
Q 2359 409 2629 706 
Q 2900 1003 2900 1516 
L 2900 3500 
L 3475 3500 
L 3475 0 
L 2900 0 
L 2900 538 
Q 2691 219 2414 64 
Q 2138 -91 1772 -91 
Q 1169 -91 856 284 
Q 544 659 544 1381 
z
M 1991 3584 
L 1991 3584 
z
" id="DejaVuSans-75" transform="scale(0.015625)"/>
       <path d="M 750 794 
L 1409 794 
L 1409 256 
L 897 -744 
L 494 -744 
L 750 256 
L 750 794 
z
" id="DejaVuSans-2c" transform="scale(0.015625)"/>
       <path d="M 1159 525 
L 1159 -1331 
L 581 -1331 
L 581 3500 
L 1159 3500 
L 1159 2969 
Q 1341 3281 1617 3432 
Q 1894 3584 2278 3584 
Q 2916 3584 3314 3078 
Q 3713 2572 3713 1747 
Q 3713 922 3314 415 
Q 2916 -91 2278 -91 
Q 1894 -91 1617 61 
Q 1341 213 1159 525 
z
M 3116 1747 
Q 3116 2381 2855 2742 
Q 2594 3103 2138 3103 
Q 1681 3103 1420 2742 
Q 1159 2381 1159 1747 
Q 1159 1113 1420 752 
Q 1681 391 2138 391 
Q 2594 391 2855 752 
Q 3116 1113 3116 1747 
z
" id="DejaVuSans-70" transform="scale(0.015625)"/>
      </defs>
      <use xlink:href="#DejaVuSans-46"/>
      <use x="50.269531" xlink:href="#DejaVuSans-72"/>
      <use x="91.382812" xlink:href="#DejaVuSans-61"/>
      <use x="152.662109" xlink:href="#DejaVuSans-63"/>
      <use x="207.642578" xlink:href="#DejaVuSans-74"/>
      <use x="246.851562" xlink:href="#DejaVuSans-69"/>
      <use x="274.634766" xlink:href="#DejaVuSans-6f"/>
      <use x="335.816406" xlink:href="#DejaVuSans-6e"/>
      <use x="399.195312" xlink:href="#DejaVuSans-20"/>
      <use x="430.982422" xlink:href="#DejaVuSans-6f"/>
      <use x="492.164062" xlink:href="#DejaVuSans-66"/>
      <use x="527.369141" xlink:href="#DejaVuSans-20"/>
      <use x="559.15625" xlink:href="#DejaVuSans-66"/>
      <use x="594.361328" xlink:href="#DejaVuSans-75"/>
      <use x="657.740234" xlink:href="#DejaVuSans-6e"/>
      <use x="721.119141" xlink:href="#DejaVuSans-63"/>
      <use x="776.099609" xlink:href="#DejaVuSans-74"/>
      <use x="815.308594" xlink:href="#DejaVuSans-69"/>
      <use x="843.091797" xlink:href="#DejaVuSans-6f"/>
      <use x="904.273438" xlink:href="#DejaVuSans-6e"/>
      <use x="967.652344" xlink:href="#DejaVuSans-2c"/>
      <use x="999.439453" xlink:href="#DejaVuSans-74"/>
      <use x="1038.648438" xlink:href="#DejaVuSans-61"/>
      <use x="1099.927734" xlink:href="#DejaVuSans-72"/>
      <use x="1139.291016" xlink:href="#DejaVuSans-67"/>
      <use x="1202.767578" xlink:href="#DejaVuSans-65"/>
      <use x="1264.291016" xlink:href="#DejaVuSans-74"/>
      <use x="1303.5" xlink:href="#DejaVuSans-20"/>
      <use x="1335.287109" xlink:href="#DejaVuSans-70"/>
      <use x="1398.763672" xlink:href="#DejaVuSans-61"/>
      <use x="1460.042969" xlink:href="#DejaVuSans-69"/>
      <use x="1487.826172" xlink:href="#DejaVuSans-72"/>
      <use x="1528.939453" xlink:href="#DejaVuSans-73"/>
     </g>
    </g>
   </g>
   <g id="line2d_29">
    <defs>
     <path d="M 0 1.5 
C 0.397805 1.5 0.77937 1.341951 1.06066 1.06066 
C 1.341951 0.77937 1.5 0.397805 1.5 0 
C 1.5 -0.397805 1.341951 -0.77937 1.06066 -1.06066 
C 0.77937 -1.341951 0.397805 -1.5 0 -1.5 
C -0.397805 -1.5 -0.77937 -1.341951 -1.06066 -1.06066 
C -1.341951 -0.77937 -1.5 -0.397805 -1.5 0 
C -1.5 0.397805 -1.341951 0.77937 -1.06066 1.06066 
C -0.77937 1.341951 -0.397805 1.5 0 1.5 
z
" id="mc26f14e817" style="stroke:#000080;"/>
    </defs>
    <g>
     <use style="fill:#000080;stroke:#000080;" x="184.512379" xlink:href="#mc26f14e817" y="6.381624"/>
     <use style="fill:#000080;stroke:#000080;" x="184.512379" xlink:href="#mc26f14e817" y="6.381624"/>
    </g>
   </g>
   <g id="line2d_30">
    <path d="M 29.53256 298.944 
L 29.53256 286.323662 
L 41.620548 286.323662 
L 41.620548 285.176359 
L 48.691568 285.176359 
L 48.691568 284.602707 
L 57.6 284.602707 
L 57.6 280.013493 
L 60.779557 280.013493 
L 60.779557 278.292538 
L 63.467834 278.292538 
L 63.467834 275.997931 
L 65.796525 275.997931 
L 65.796525 274.850628 
L 71.35013 274.850628 
L 71.35013 274.276976 
L 75.555822 274.276976 
L 75.555822 273.703324 
L 79.938565 273.703324 
L 79.938565 271.982369 
L 80.881459 271.982369 
L 80.881459 271.408718 
L 82.626842 271.408718 
L 82.626842 270.835066 
L 88.255778 270.835066 
L 88.255778 269.687762 
L 88.846997 269.687762 
L 88.846997 269.114111 
L 89.972502 269.114111 
L 89.972502 267.966807 
L 97.043522 267.966807 
L 97.043522 267.393156 
L 97.755429 267.393156 
L 97.755429 266.819504 
L 99.097574 266.819504 
L 99.097574 266.245852 
L 100.641881 266.245852 
L 100.641881 265.6722 
L 100.934985 265.6722 
L 100.934985 265.098549 
L 101.223245 265.098549 
L 101.223245 264.524897 
L 106.168594 264.524897 
L 106.168594 263.377593 
L 106.382575 263.377593 
L 106.382575 262.803942 
L 107.009204 262.803942 
L 107.009204 260.509335 
L 108.389302 260.509335 
L 108.389302 259.935683 
L 112.280765 259.935683 
L 112.280765 258.78838 
L 112.58145 258.78838 
L 112.58145 258.214728 
L 112.877038 258.214728 
L 112.877038 257.641076 
L 113.022974 257.641076 
L 113.022974 257.067425 
L 113.167699 257.067425 
L 113.167699 256.493773 
L 113.453595 256.493773 
L 113.453595 255.920121 
L 113.73488 255.920121 
L 113.73488 254.772818 
L 113.873839 254.772818 
L 113.873839 253.625514 
L 114.284194 253.625514 
L 114.284194 253.051863 
L 116.202531 253.051863 
L 116.202531 252.478211 
L 116.914437 252.478211 
L 116.914437 251.904559 
L 117.709852 251.904559 
L 117.709852 250.757256 
L 118.148599 250.757256 
L 118.148599 250.183604 
L 120.47729 250.183604 
L 120.47729 249.609952 
L 121.036887 249.609952 
L 121.036887 248.462649 
L 121.579085 248.462649 
L 121.579085 247.888997 
L 122.865118 247.888997 
L 122.865118 246.741694 
L 124.368753 246.741694 
L 124.368753 246.168042 
L 124.891598 246.168042 
L 124.891598 245.59439 
L 126.773103 245.59439 
L 126.773103 245.020738 
L 126.904721 245.020738 
L 126.904721 244.447087 
L 127.674226 244.447087 
L 127.674226 243.299783 
L 127.861412 243.299783 
L 127.861412 242.726132 
L 127.985095 242.726132 
L 127.985095 242.15248 
L 128.290519 242.15248 
L 128.290519 240.431525 
L 128.411207 240.431525 
L 128.411207 239.857873 
L 128.885774 239.857873 
L 128.885774 238.71057 
L 129.233413 238.71057 
L 129.233413 237.563266 
L 129.574256 237.563266 
L 129.574256 236.415963 
L 129.742212 236.415963 
L 129.742212 235.842311 
L 130.290663 235.842311 
L 130.290663 235.268659 
L 130.505303 235.268659 
L 130.505303 234.695008 
L 130.76994 234.695008 
L 130.822389 233.547704 
L 131.030622 233.547704 
L 131.133813 232.400401 
L 131.389151 232.400401 
L 131.389151 231.826749 
L 131.590764 231.826749 
L 131.690703 230.679446 
L 133.078923 230.679446 
L 133.078923 230.105794 
L 133.262014 230.105794 
L 133.262014 229.532142 
L 134.062938 229.532142 
L 134.062938 228.95849 
L 134.534878 228.95849 
L 134.534878 228.384839 
L 134.745246 228.384839 
L 134.828688 227.237535 
L 135.361539 227.237535 
L 135.401861 224.942928 
L 136.073445 224.942928 
L 136.073445 224.369277 
L 136.570107 224.369277 
L 136.645276 223.221973 
L 137.235245 223.221973 
L 137.343676 222.07467 
L 137.558536 222.07467 
L 137.558536 221.501018 
L 137.980475 221.501018 
L 137.980475 220.927366 
L 138.959898 220.927366 
L 138.959898 220.353715 
L 139.253002 220.353715 
L 139.253002 219.206411 
L 139.730821 219.206411 
L 139.730821 218.632759 
L 139.918342 218.632759 
L 139.918342 217.485456 
L 140.408758 217.485456 
L 140.408758 216.911804 
L 140.64889 216.911804 
L 140.64889 216.338153 
L 141.032186 216.338153 
L 141.119455 214.043546 
L 141.378673 214.043546 
L 141.378673 213.469894 
L 142.459451 213.469894 
L 142.459451 212.896242 
L 142.857929 212.896242 
L 142.857929 212.322591 
L 144.342484 212.322591 
L 144.390658 210.601635 
L 144.676946 210.601635 
L 144.676946 210.027984 
L 145.976095 210.027984 
L 145.976095 209.454332 
L 146.324022 209.454332 
L 146.345539 207.733377 
L 146.559258 207.733377 
L 146.559258 207.159725 
L 147.226074 207.159725 
L 147.246507 204.291467 
L 147.690073 204.291467 
L 147.690073 203.717815 
L 147.86833 203.717815 
L 147.86833 203.144163 
L 148.468742 203.144163 
L 148.468742 202.570511 
L 148.714503 202.570511 
L 148.808112 200.849556 
L 149.049169 200.849556 
L 149.049169 199.702253 
L 150.682827 199.702253 
L 150.699587 197.981298 
L 151.1298 197.981298 
L 151.1298 197.407646 
L 151.357131 197.407646 
L 151.357131 196.833994 
L 152.037389 196.833994 
L 152.037389 196.260342 
L 152.481628 196.260342 
L 152.481628 195.686691 
L 152.677155 195.686691 
L 152.692105 193.965736 
L 152.914832 193.965736 
L 152.914832 192.818432 
L 153.250915 192.818432 
L 153.250915 192.24478 
L 153.395042 192.24478 
L 153.395042 191.097477 
L 153.679772 191.097477 
L 153.679772 190.523825 
L 153.848404 190.523825 
L 153.848404 189.950174 
L 154.221969 189.950174 
L 154.221969 189.376522 
L 154.627867 189.376522 
L 154.627867 188.80287 
L 154.959044 188.80287 
L 154.959044 188.229218 
L 155.076745 188.229218 
L 155.076745 187.081915 
L 155.232454 187.081915 
L 155.232454 186.508263 
L 155.816782 186.508263 
L 155.854218 184.787308 
L 155.966049 184.787308 
L 155.966049 184.213656 
L 156.163105 184.213656 
L 156.163105 183.640005 
L 156.538679 183.640005 
L 156.598505 181.91905 
L 156.670026 181.91905 
L 156.670026 180.771746 
L 157.300853 180.771746 
L 157.403807 179.624443 
L 157.460743 179.624443 
L 157.460743 179.050791 
L 157.742664 179.050791 
L 157.742664 178.477139 
L 157.976006 178.477139 
L 158.053098 176.756184 
L 158.206267 176.756184 
L 158.249784 175.608881 
L 158.347301 175.608881 
L 158.444276 173.887925 
L 158.784773 173.887925 
L 158.858379 172.740622 
L 159.046236 172.740622 
L 159.118749 169.298712 
L 159.190962 169.298712 
L 159.190962 168.72506 
L 159.415988 168.72506 
L 159.415988 168.151408 
L 159.597964 168.151408 
L 159.708245 167.004105 
L 160.259108 167.004105 
L 160.259108 166.430453 
L 160.499521 166.430453 
L 160.499521 165.856801 
L 160.746084 165.856801 
L 160.746084 165.28315 
L 161.228992 165.28315 
L 161.247301 164.135846 
L 161.564634 164.135846 
L 161.591568 162.988543 
L 161.734513 162.988543 
L 161.734513 162.414891 
L 162.225793 162.414891 
L 162.29486 160.120284 
L 162.483394 160.120284 
L 162.483394 159.546632 
L 162.779197 159.546632 
L 162.821048 158.399329 
L 163.103002 158.399329 
L 163.17688 157.252026 
L 163.299319 157.252026 
L 163.299319 156.104722 
L 163.812276 156.104722 
L 163.812276 154.957419 
L 164.032036 154.957419 
L 164.117618 153.236464 
L 164.187328 153.236464 
L 164.187328 152.662812 
L 164.471025 152.662812 
L 164.524182 151.515508 
L 164.592289 151.515508 
L 164.652607 147.499946 
L 165.039666 147.499946 
L 165.039666 146.926295 
L 165.346138 146.926295 
L 165.346138 146.352643 
L 165.511714 146.352643 
L 165.533195 145.20534 
L 165.682828 145.20534 
L 165.718267 142.910733 
L 165.803027 142.910733 
L 165.838222 140.616126 
L 165.96434 140.616126 
L 165.96434 140.042474 
L 166.117256 140.042474 
L 166.193215 138.895171 
L 166.261982 138.895171 
L 166.289413 137.747867 
L 166.453099 137.747867 
L 166.453099 137.174215 
L 167.119055 137.174215 
L 167.197288 135.45326 
L 167.294587 135.45326 
L 167.294587 134.879609 
L 167.455557 134.879609 
L 167.455557 134.305957 
L 167.741609 134.305957 
L 167.804544 132.585002 
L 167.991998 132.585002 
L 167.991998 132.01135 
L 168.115857 132.01135 
L 168.115857 130.864047 
L 168.300012 130.864047 
L 168.300012 130.290395 
L 168.494323 130.290395 
L 168.494323 129.143091 
L 168.72825 129.143091 
L 168.829244 126.274833 
L 168.9532 126.274833 
L 168.9532 125.701181 
L 169.093793 125.701181 
L 169.093793 124.553878 
L 169.239048 124.553878 
L 169.256398 122.832923 
L 170.063995 122.832923 
L 170.152072 120.538316 
L 170.35949 120.538316 
L 170.451489 119.391012 
L 170.788258 119.391012 
L 170.883296 116.522754 
L 170.904345 116.522754 
L 170.904345 115.949102 
L 171.129034 115.949102 
L 171.180875 114.228147 
L 171.289242 114.228147 
L 171.340609 112.507192 
L 171.442893 112.507192 
L 171.473461 110.212585 
L 171.61541 110.212585 
L 171.655755 108.49163 
L 171.781236 108.49163 
L 171.781236 107.917978 
L 171.940545 107.917978 
L 171.940545 107.344326 
L 172.11314 107.344326 
L 172.186589 106.197023 
L 172.274322 106.197023 
L 172.366452 105.049719 
L 172.462909 105.049719 
L 172.568398 103.902416 
L 172.678005 103.902416 
L 172.678005 102.181461 
L 172.895172 102.181461 
L 172.895172 101.607809 
L 173.077198 101.607809 
L 173.137453 99.886854 
L 173.298652 99.886854 
L 173.298652 99.313202 
L 173.616647 99.313202 
L 173.710926 98.165899 
L 173.804698 98.165899 
L 173.866933 96.444944 
L 173.990742 96.444944 
L 173.990742 95.29764 
L 174.161738 95.29764 
L 174.161738 94.723988 
L 174.318106 94.723988 
L 174.421578 92.429381 
L 174.498781 92.429381 
L 174.498781 91.85573 
L 174.660652 91.85573 
L 174.686074 90.134775 
L 174.846223 90.134775 
L 174.900675 88.413819 
L 174.96746 88.413819 
L 175.000757 86.692864 
L 175.153934 86.692864 
L 175.236175 83.250954 
L 175.273058 83.250954 
L 175.330276 80.956347 
L 175.581438 80.956347 
L 175.6777 77.514437 
L 175.757513 77.514437 
L 175.864686 73.498875 
L 175.868643 73.498875 
L 175.876553 71.77792 
L 176.018337 71.77792 
L 176.018337 71.204268 
L 176.1473 71.204268 
L 176.1473 70.630616 
L 176.267585 70.630616 
L 176.267585 70.056964 
L 176.387046 70.056964 
L 176.387046 69.483313 
L 176.574218 69.483313 
L 176.574218 68.909661 
L 176.785697 68.909661 
L 176.894213 66.041402 
L 176.93892 66.041402 
L 177.024289 63.746796 
L 177.245042 63.746796 
L 177.245042 62.599492 
L 177.376165 62.599492 
L 177.401547 61.452189 
L 177.491897 61.452189 
L 177.52071 59.157582 
L 177.703285 59.157582 
L 177.703285 58.58393 
L 177.876917 58.58393 
L 177.876917 58.010278 
L 178.135904 58.010278 
L 178.135904 57.436627 
L 178.26052 57.436627 
L 178.363691 56.289323 
L 178.428718 56.289323 
L 178.496907 52.847413 
L 178.639242 52.847413 
L 178.683063 51.700109 
L 178.763676 51.700109 
L 178.770377 48.258199 
L 179.029727 48.258199 
L 179.029727 47.684547 
L 179.366397 47.684547 
L 179.427797 46.537244 
L 179.562762 46.537244 
L 179.623476 44.816289 
L 179.67762 44.816289 
L 179.747441 43.095334 
L 179.810673 43.095334 
L 179.873676 41.374379 
L 180.042657 41.374379 
L 180.061331 40.227075 
L 180.154407 40.227075 
L 180.210015 37.932468 
L 180.317637 37.932468 
L 180.397157 35.06421 
L 180.672655 35.06421 
L 180.672655 34.490558 
L 180.801337 34.490558 
L 180.863838 29.327692 
L 180.932036 29.327692 
L 180.932036 28.754041 
L 181.044129 28.754041 
L 181.044129 28.180389 
L 181.30098 28.180389 
L 181.361719 27.033086 
L 181.448123 27.033086 
L 181.494031 24.164827 
L 181.960539 24.164827 
L 182.063459 21.87022 
L 182.190572 21.87022 
L 182.300357 19.001962 
L 182.349535 19.001962 
L 182.409455 17.281006 
L 182.469169 17.281006 
L 182.469169 16.707355 
L 182.598749 16.707355 
L 182.706002 14.9864 
L 182.764712 14.9864 
L 182.764712 14.412748 
L 182.989704 14.412748 
L 183.065806 10.970838 
L 183.323131 10.970838 
L 183.341183 9.823534 
L 183.525781 9.823534 
L 183.630033 7.528927 
L 184.262357 7.528927 
L 184.262357 6.955275 
L 184.512379 6.955275 
L 184.512379 6.381624 
L 338.688 6.381624 
L 338.688 6.381624 
" style="fill:none;stroke:#000080;stroke-linecap:square;stroke-width:1.5;"/>
   </g>
   <g id="line2d_31">
    <defs>
     <path d="M 0 6 
C 1.591219 6 3.117479 5.367802 4.242641 4.242641 
C 5.367802 3.117479 6 1.591219 6 0 
C 6 -1.591219 5.367802 -3.117479 4.242641 -4.242641 
C 3.117479 -5.367802 1.591219 -6 0 -6 
C -1.591219 -6 -3.117479 -5.367802 -4.242641 -4.242641 
C -5.367802 -3.117479 -6 -1.591219 -6 0 
C -6 1.591219 -5.367802 3.117479 -4.242641 4.242641 
C -3.117479 5.367802 -1.591219 6 0 6 
z
" id="m1231781d48" style="stroke:#000080;stroke-width:1.5;"/>
    </defs>
    <g>
     <use style="fill-opacity:0;stroke:#000080;stroke-width:1.5;" x="97.755429" xlink:href="#m1231781d48" y="266.819504"/>
     <use style="fill-opacity:0;stroke:#000080;stroke-width:1.5;" x="152.692105" xlink:href="#m1231781d48" y="195.113039"/>
     <use style="fill-opacity:0;stroke:#000080;stroke-width:1.5;" x="175.330276" xlink:href="#m1231781d48" y="82.677302"/>
     <use style="fill-opacity:0;stroke:#000080;stroke-width:1.5;" x="184.512379" xlink:href="#m1231781d48" y="6.955275"/>
     <use style="fill-opacity:0;stroke:#000080;stroke-width:1.5;" x="184.512379" xlink:href="#m1231781d48" y="6.381624"/>
     <use style="fill-opacity:0;stroke:#000080;stroke-width:1.5;" x="338.688" xlink:href="#m1231781d48" y="6.381624"/>
    </g>
   </g>
   <g id="line2d_32">
    <path style="fill:none;stroke:#000080;stroke-linecap:square;stroke-width:1.5;"/>
    <g/>
   </g>
   <g id="line2d_33">
    <defs>
     <path d="M 0 1.5 
C 0.397805 1.5 0.77937 1.341951 1.06066 1.06066 
C 1.341951 0.77937 1.5 0.397805 1.5 0 
C 1.5 -0.397805 1.341951 -0.77937 1.06066 -1.06066 
C 0.77937 -1.341951 0.397805 -1.5 0 -1.5 
C -0.397805 -1.5 -0.77937 -1.341951 -1.06066 -1.06066 
C -1.341951 -0.77937 -1.5 -0.397805 -1.5 0 
C -1.5 0.397805 -1.341951 0.77937 -1.06066 1.06066 
C -0.77937 1.341951 -0.397805 1.5 0 1.5 
z
" id="mfad754f8ab" style="stroke:#ff00ff;"/>
    </defs>
    <g>
     <use style="fill:#ff00ff;stroke:#ff00ff;" x="202.856515" xlink:href="#mfad754f8ab" y="6.381624"/>
     <use style="fill:#ff00ff;stroke:#ff00ff;" x="202.856515" xlink:href="#mfad754f8ab" y="6.381624"/>
    </g>
   </g>
   <g id="line2d_34">
    <path d="M 153.351929 298.944 
L 153.351929 298.370348 
L 153.848404 298.370348 
L 153.848404 297.223045 
L 156.514691 297.223045 
L 156.610446 296.075741 
L 156.976607 296.075741 
L 156.976607 295.50209 
L 158.530025 295.50209 
L 158.551397 293.207483 
L 159.456591 293.207483 
L 159.456591 292.633831 
L 160.015335 292.633831 
L 160.064363 291.486528 
L 160.48041 291.486528 
L 160.48041 290.912876 
L 160.783709 290.912876 
L 160.783709 290.339224 
L 161.474555 290.339224 
L 161.474555 289.765573 
L 161.876297 289.765573 
L 161.876297 289.191921 
L 162.060656 289.191921 
L 162.121678 288.044617 
L 162.389382 288.044617 
L 162.389382 287.470966 
L 162.627697 287.470966 
L 162.627697 286.323662 
L 163.02881 286.323662 
L 163.02881 285.75001 
L 163.266752 285.75001 
L 163.339941 283.455404 
L 163.66156 283.455404 
L 163.709295 281.734448 
L 163.875347 281.734448 
L 163.875347 281.160797 
L 164.140886 281.160797 
L 164.187328 278.86619 
L 164.584735 278.86619 
L 164.584735 278.292538 
L 164.712717 278.292538 
L 164.712717 277.718886 
L 165.09112 277.718886 
L 165.157053 276.571583 
L 165.222738 276.571583 
L 165.222738 275.997931 
L 165.490206 275.997931 
L 165.504548 274.850628 
L 165.732422 274.850628 
L 165.774819 273.129673 
L 166.034014 273.129673 
L 166.034014 272.556021 
L 166.58834 272.556021 
L 166.58834 271.408718 
L 166.855717 271.408718 
L 166.855717 270.835066 
L 167.384913 270.835066 
L 167.384913 270.261414 
L 167.672117 270.261414 
L 167.779397 268.540459 
L 167.804544 268.540459 
L 167.804544 267.393156 
L 168.177458 267.393156 
L 168.177458 266.819504 
L 168.300012 266.819504 
L 168.391365 265.098549 
L 168.542565 265.098549 
L 168.602679 262.803942 
L 168.964959 262.803942 
L 169.052903 259.362031 
L 169.093793 259.362031 
L 169.093793 258.214728 
L 169.221681 258.214728 
L 169.221681 257.641076 
L 169.36588 257.641076 
L 169.434674 255.346469 
L 169.582803 255.346469 
L 169.611146 253.625514 
L 169.707168 253.625514 
L 169.774632 252.478211 
L 169.864179 252.478211 
L 169.864179 250.757256 
L 170.058475 250.757256 
L 170.058475 249.609952 
L 170.305145 249.609952 
L 170.305145 249.036301 
L 170.467674 249.036301 
L 170.494616 247.888997 
L 170.729924 247.888997 
L 170.761767 246.741694 
L 171.024887 246.741694 
L 171.077038 245.59439 
L 171.154974 245.59439 
L 171.201568 244.447087 
L 171.54458 244.447087 
L 171.54458 243.299783 
L 171.67086 243.299783 
L 171.766226 241.578828 
L 171.796233 241.578828 
L 171.80123 240.431525 
L 171.915749 240.431525 
L 171.994974 239.284221 
L 172.088588 239.284221 
L 172.167033 236.415963 
L 172.303468 236.415963 
L 172.380955 234.695008 
L 172.48694 234.695008 
L 172.563617 231.826749 
L 172.753848 231.826749 
L 172.753848 231.253097 
L 172.993422 231.253097 
L 172.993422 230.679446 
L 173.206721 230.679446 
L 173.3124 229.532142 
L 173.349008 229.532142 
L 173.353579 227.811187 
L 173.521856 227.811187 
L 173.521856 227.237535 
L 173.769034 227.237535 
L 173.773496 225.51658 
L 174.061097 225.51658 
L 174.061097 224.942928 
L 174.35698 224.942928 
L 174.35698 224.369277 
L 174.626698 224.369277 
L 174.626698 223.221973 
L 174.741027 223.221973 
L 174.741027 222.648321 
L 174.883938 222.648321 
L 174.988278 220.927366 
L 175.054729 220.927366 
L 175.083722 218.632759 
L 175.305777 218.632759 
L 175.305777 217.485456 
L 175.476552 217.485456 
L 175.476552 216.911804 
L 175.813167 216.911804 
L 175.896315 215.190849 
L 175.947589 215.190849 
L 176.0301 212.322591 
L 176.092705 212.322591 
L 176.151193 211.175287 
L 176.228874 211.175287 
L 176.228874 210.601635 
L 176.406237 210.601635 
L 176.421575 208.88068 
L 176.551406 208.88068 
L 176.608379 205.43877 
L 176.740595 205.43877 
L 176.849392 201.99686 
L 176.879286 201.99686 
L 176.987223 199.702253 
L 177.039093 199.702253 
L 177.039093 199.128601 
L 177.256007 199.128601 
L 177.256007 197.981298 
L 177.394299 197.981298 
L 177.477472 196.833994 
L 177.646212 196.833994 
L 177.646212 196.260342 
L 177.99989 196.260342 
L 178.069773 195.113039 
L 178.267417 195.113039 
L 178.267417 194.539387 
L 178.384252 194.539387 
L 178.493504 193.392084 
L 178.503711 193.392084 
L 178.591926 189.950174 
L 178.6156 189.950174 
L 178.703252 188.229218 
L 178.793811 188.229218 
L 178.837246 186.508263 
L 178.930433 186.508263 
L 178.963594 185.36096 
L 179.042924 185.36096 
L 179.042924 184.787308 
L 179.236422 184.787308 
L 179.33075 182.492701 
L 179.353443 182.492701 
L 179.353443 181.91905 
L 179.492196 181.91905 
L 179.601132 180.198094 
L 179.731597 180.198094 
L 179.769598 178.477139 
L 179.873676 178.477139 
L 179.873676 177.903487 
L 180.023962 177.903487 
L 180.076879 176.182532 
L 180.185323 176.182532 
L 180.246989 172.16697 
L 180.329895 172.16697 
L 180.421552 171.019667 
L 180.491498 171.019667 
L 180.491498 169.872363 
L 180.690668 169.872363 
L 180.774482 167.577757 
L 181.058824 167.577757 
L 181.088178 164.709498 
L 181.315461 164.709498 
L 181.425124 161.841239 
L 181.562667 161.841239 
L 181.562667 161.267588 
L 181.738737 161.267588 
L 181.738737 160.693936 
L 181.910249 160.693936 
L 182.016247 158.972981 
L 182.292147 158.972981 
L 182.292147 158.399329 
L 182.458327 158.399329 
L 182.542176 152.662812 
L 182.722034 152.662812 
L 182.778027 150.941857 
L 182.847104 150.941857 
L 182.9423 148.64725 
L 183.034356 148.64725 
L 183.091972 146.926295 
L 183.17804 146.926295 
L 183.250736 145.20534 
L 183.320551 145.20534 
L 183.372085 142.337081 
L 183.438853 142.337081 
L 183.467024 140.616126 
L 183.617353 140.616126 
L 183.718539 138.321519 
L 183.766397 138.321519 
L 183.869225 134.305957 
L 183.946572 134.305957 
L 184.048346 130.864047 
L 184.139683 130.864047 
L 184.139683 130.290395 
L 184.262357 130.290395 
L 184.359879 127.995788 
L 184.398736 127.995788 
L 184.452022 126.274833 
L 184.517198 126.274833 
L 184.594129 124.553878 
L 184.644431 124.553878 
L 184.749358 121.685619 
L 184.770743 121.685619 
L 184.846566 119.964664 
L 184.912642 119.964664 
L 184.980815 117.670057 
L 185.058068 117.670057 
L 185.141956 113.654495 
L 185.21387 113.654495 
L 185.2901 111.359888 
L 185.340735 111.359888 
L 185.418702 110.212585 
L 185.475809 110.212585 
L 185.489487 109.065281 
L 185.727129 109.065281 
L 185.832462 106.197023 
L 185.879321 106.197023 
L 185.966012 103.328764 
L 186.186347 103.328764 
L 186.243181 99.886854 
L 186.297655 99.886854 
L 186.310703 98.73955 
L 186.464373 98.73955 
L 186.571785 96.444944 
L 186.701937 96.444944 
L 186.782528 94.723988 
L 186.824794 94.723988 
L 186.888003 93.003033 
L 186.992845 93.003033 
L 187.028348 91.85573 
L 187.221301 91.85573 
L 187.287203 89.561123 
L 187.385591 89.561123 
L 187.495619 86.119213 
L 187.532141 86.119213 
L 187.637221 83.824606 
L 187.789671 83.824606 
L 187.897186 80.956347 
L 187.950696 80.956347 
L 188.053292 76.367133 
L 188.086702 76.367133 
L 188.127886 75.21983 
L 188.287773 75.21983 
L 188.36717 73.498875 
L 188.415406 73.498875 
L 188.524888 70.056964 
L 188.738029 70.056964 
L 188.834228 65.467751 
L 188.864299 65.467751 
L 188.971007 62.599492 
L 189.052935 62.599492 
L 189.123381 60.304885 
L 189.278104 60.304885 
L 189.382317 56.862975 
L 189.518498 56.862975 
L 189.608699 54.568368 
L 189.750271 54.568368 
L 189.800174 48.831851 
L 189.904861 48.831851 
L 189.904861 48.258199 
L 190.063353 48.258199 
L 190.063353 47.684547 
L 190.192598 47.684547 
L 190.229102 45.963592 
L 190.40017 45.963592 
L 190.489356 44.242637 
L 190.520123 44.242637 
L 190.589999 40.800727 
L 190.657902 40.800727 
L 190.725543 39.653423 
L 190.774418 39.653423 
L 190.860041 35.637861 
L 190.906871 35.637861 
L 190.996833 34.490558 
L 191.172087 34.490558 
L 191.268877 31.622299 
L 191.326041 31.622299 
L 191.425225 30.474996 
L 191.741742 30.474996 
L 191.741742 29.327692 
L 191.919162 29.327692 
L 191.945935 27.606737 
L 192.044795 27.606737 
L 192.102595 25.885782 
L 192.267132 25.885782 
L 192.354972 24.164827 
L 192.614354 24.164827 
L 192.655197 23.017524 
L 192.835574 23.017524 
L 192.835574 21.87022 
L 196.993563 21.87022 
L 196.993563 21.296568 
L 197.272897 21.296568 
L 197.320369 19.575613 
L 197.772355 19.575613 
L 197.837582 17.854658 
L 198.334443 17.854658 
L 198.334443 17.281006 
L 198.840868 17.281006 
L 198.840868 16.707355 
L 198.999111 16.707355 
L 199.10277 13.839096 
L 199.293808 13.839096 
L 199.293808 13.265444 
L 199.625196 13.265444 
L 199.67578 12.118141 
L 199.948415 12.118141 
L 199.948415 11.544489 
L 200.306722 11.544489 
L 200.306722 10.970838 
L 200.893036 10.970838 
L 200.960736 9.249882 
L 201.072988 9.249882 
L 201.072988 8.676231 
L 201.572994 8.676231 
L 201.572994 7.528927 
L 202.180243 7.528927 
L 202.180243 6.955275 
L 202.856515 6.955275 
L 202.856515 6.381624 
L 338.688 6.381624 
L 338.688 6.381624 
" style="fill:none;stroke:#ff00ff;stroke-linecap:square;stroke-width:1.5;"/>
   </g>
   <g id="line2d_35">
    <defs>
     <path d="M 0 8.485281 
L 5.091169 0 
L 0 -8.485281 
L -5.091169 0 
z
" id="me31515314e" style="stroke:#ff00ff;stroke-linejoin:miter;stroke-width:1.5;"/>
    </defs>
    <g>
     <use style="fill-opacity:0;stroke:#ff00ff;stroke-linejoin:miter;stroke-width:1.5;" x="202.856515" xlink:href="#me31515314e" y="6.955275"/>
     <use style="fill-opacity:0;stroke:#ff00ff;stroke-linejoin:miter;stroke-width:1.5;" x="202.856515" xlink:href="#me31515314e" y="6.381624"/>
     <use style="fill-opacity:0;stroke:#ff00ff;stroke-linejoin:miter;stroke-width:1.5;" x="202.856515" xlink:href="#me31515314e" y="6.381624"/>
     <use style="fill-opacity:0;stroke:#ff00ff;stroke-linejoin:miter;stroke-width:1.5;" x="338.688" xlink:href="#me31515314e" y="6.381624"/>
    </g>
   </g>
   <g id="line2d_36">
    <path style="fill:none;stroke:#ff00ff;stroke-linecap:square;stroke-width:1.5;"/>
    <g/>
   </g>
   <g id="line2d_37">
    <defs>
     <path d="M 0 1.5 
C 0.397805 1.5 0.77937 1.341951 1.06066 1.06066 
C 1.341951 0.77937 1.5 0.397805 1.5 0 
C 1.5 -0.397805 1.341951 -0.77937 1.06066 -1.06066 
C 0.77937 -1.341951 0.397805 -1.5 0 -1.5 
C -0.397805 -1.5 -0.77937 -1.341951 -1.06066 -1.06066 
C -1.341951 -0.77937 -1.5 -0.397805 -1.5 0 
C -1.5 0.397805 -1.341951 0.77937 -1.06066 1.06066 
C -0.77937 1.341951 -0.397805 1.5 0 1.5 
z
" id="mdcf58de085" style="stroke:#ff7500;"/>
    </defs>
    <g>
     <use style="fill:#ff7500;stroke:#ff7500;" x="238.68817" xlink:href="#mdcf58de085" y="6.381624"/>
     <use style="fill:#ff7500;stroke:#ff7500;" x="238.68817" xlink:href="#mdcf58de085" y="6.381624"/>
    </g>
   </g>
   <g id="line2d_38">
    <path d="M 41.620548 298.944 
L 41.620548 298.370348 
L 53.708537 298.370348 
L 53.708537 297.796697 
L 67.850577 297.796697 
L 67.850577 296.649393 
L 71.35013 296.649393 
L 71.35013 296.075741 
L 80.881459 296.075741 
L 80.881459 295.50209 
L 82.626842 295.50209 
L 82.626842 294.928438 
L 84.955534 294.928438 
L 84.955534 294.354786 
L 86.351421 294.354786 
L 86.351421 293.781135 
L 97.403108 293.781135 
L 97.403108 293.207483 
L 97.755429 293.207483 
L 97.755429 292.633831 
L 99.097574 292.633831 
L 99.097574 292.060179 
L 102.060491 292.060179 
L 102.060491 291.486528 
L 103.623262 291.486528 
L 103.623262 290.912876 
L 105.057436 290.912876 
L 105.057436 290.339224 
L 107.009204 290.339224 
L 107.009204 289.765573 
L 107.414787 289.765573 
L 107.414787 288.618269 
L 110.016944 288.618269 
L 110.016944 288.044617 
L 112.128456 288.044617 
L 112.128456 287.470966 
L 112.431755 287.470966 
L 112.431755 286.897314 
L 118.681952 286.897314 
L 118.681952 286.323662 
L 122.191052 286.323662 
L 122.191052 285.75001 
L 123.514096 285.75001 
L 123.514096 284.602707 
L 124.817858 284.602707 
L 124.817858 284.029055 
L 125.612332 284.029055 
L 125.612332 283.455404 
L 126.439646 283.455404 
L 126.439646 282.881752 
L 128.046609 282.881752 
L 128.046609 282.3081 
L 129.233413 282.3081 
L 129.233413 281.734448 
L 131.082294 281.734448 
L 131.082294 281.160797 
L 132.230358 281.160797 
L 132.230358 280.587145 
L 135.760625 280.587145 
L 135.760625 280.013493 
L 137.594091 280.013493 
L 137.594091 279.439842 
L 140.619053 279.439842 
L 140.64889 277.145235 
L 140.738093 277.145235 
L 140.738093 276.571583 
L 141.292695 276.571583 
L 141.292695 275.997931 
L 142.378651 275.997931 
L 142.378651 275.42428 
L 144.414696 275.42428 
L 144.414696 274.850628 
L 147.907696 274.850628 
L 147.907696 274.276976 
L 152.021866 274.276976 
L 152.021866 273.703324 
L 152.26858 273.703324 
L 152.26858 273.129673 
L 152.914832 273.129673 
L 152.914832 272.556021 
L 153.792374 272.556021 
L 153.792374 271.982369 
L 155.296925 271.982369 
L 155.296925 271.408718 
L 155.425155 271.408718 
L 155.425155 270.835066 
L 155.590458 270.835066 
L 155.590458 270.261414 
L 156.297301 270.261414 
L 156.297301 269.114111 
L 158.107956 269.114111 
L 158.107956 268.540459 
L 158.994256 268.540459 
L 158.994256 267.966807 
L 159.149734 267.966807 
L 159.149734 267.393156 
L 160.413354 267.393156 
L 160.413354 266.819504 
L 161.501628 266.819504 
L 161.501628 266.245852 
L 162.243086 266.245852 
L 162.337888 265.098549 
L 165.083779 265.098549 
L 165.083779 264.524897 
L 165.59035 264.524897 
L 165.59035 263.951245 
L 166.344146 263.951245 
L 166.405516 262.803942 
L 167.583271 262.803942 
L 167.583271 262.23029 
L 167.703739 262.23029 
L 167.703739 261.656638 
L 168.103511 261.656638 
L 168.103511 261.082987 
L 168.31222 261.082987 
L 168.31222 260.509335 
L 168.452002 260.509335 
L 168.452002 259.935683 
L 169.256398 259.935683 
L 169.256398 259.362031 
L 169.892068 259.362031 
L 169.892068 258.78838 
L 170.456886 258.78838 
L 170.456886 258.214728 
L 170.761767 258.214728 
L 170.761767 257.641076 
L 171.253194 257.641076 
L 171.304668 256.493773 
L 171.746192 256.493773 
L 171.746192 255.920121 
L 172.678005 255.920121 
L 172.749118 254.772818 
L 172.8058 254.772818 
L 172.8058 254.199166 
L 172.965407 254.199166 
L 172.965407 253.625514 
L 173.326137 253.625514 
L 173.326137 252.478211 
L 174.235754 252.478211 
L 174.235754 251.904559 
L 174.541525 251.904559 
L 174.541525 251.330907 
L 174.892309 251.330907 
L 174.892309 250.757256 
L 175.358815 250.757256 
L 175.358815 250.183604 
L 176.263718 250.183604 
L 176.263718 249.609952 
L 177.05758 249.609952 
L 177.101871 248.462649 
L 179.105471 248.462649 
L 179.105471 247.888997 
L 180.717652 247.888997 
L 180.717652 247.315345 
L 180.988172 247.315345 
L 180.988172 246.741694 
L 181.494031 246.741694 
L 181.568375 245.59439 
L 182.461038 245.59439 
L 182.461038 245.020738 
L 182.593369 245.020738 
L 182.593369 244.447087 
L 182.706002 244.447087 
L 182.706002 243.873435 
L 183.120708 243.873435 
L 183.120708 243.299783 
L 183.708446 243.299783 
L 183.708446 242.726132 
L 183.836686 242.726132 
L 183.836686 241.578828 
L 184.245235 241.578828 
L 184.245235 241.005176 
L 184.408436 241.005176 
L 184.408436 240.431525 
L 184.665945 240.431525 
L 184.665945 239.857873 
L 185.128002 239.857873 
L 185.128002 239.284221 
L 185.478089 239.284221 
L 185.478089 238.136918 
L 186.280242 238.136918 
L 186.280242 237.563266 
L 187.047114 237.563266 
L 187.047114 236.989614 
L 187.363093 236.989614 
L 187.367186 235.268659 
L 187.594861 235.268659 
L 187.651319 232.974052 
L 187.783678 232.974052 
L 187.783678 232.400401 
L 187.920988 232.400401 
L 187.920988 231.826749 
L 188.037547 231.826749 
L 188.067057 230.105794 
L 188.401914 230.105794 
L 188.409625 228.95849 
L 188.559319 228.95849 
L 188.639395 227.811187 
L 188.834228 227.811187 
L 188.834228 227.237535 
L 188.95607 227.237535 
L 189.012019 226.090232 
L 189.278104 226.090232 
L 189.3732 223.221973 
L 189.75384 223.221973 
L 189.75384 222.648321 
L 189.871217 222.648321 
L 189.871217 222.07467 
L 190.241253 222.07467 
L 190.30534 217.485456 
L 190.415639 217.485456 
L 190.415639 216.911804 
L 190.87176 216.911804 
L 190.87176 216.338153 
L 191.091292 216.338153 
L 191.185243 212.896242 
L 191.236127 212.896242 
L 191.236127 212.322591 
L 191.370012 212.322591 
L 191.370012 211.175287 
L 191.721031 211.175287 
L 191.798967 209.454332 
L 191.865493 209.454332 
L 191.941213 204.291467 
L 192.30263 204.291467 
L 192.408691 203.144163 
L 192.587072 203.144163 
L 192.695945 201.99686 
L 192.718542 201.99686 
L 192.748625 200.275904 
L 192.859484 200.275904 
L 192.907206 197.981298 
L 193.093851 197.981298 
L 193.093851 196.833994 
L 193.236189 196.833994 
L 193.312018 194.539387 
L 193.412132 194.539387 
L 193.468464 192.24478 
L 193.526053 192.24478 
L 193.52749 189.950174 
L 193.659216 189.950174 
L 193.764452 185.36096 
L 193.77154 185.36096 
L 193.867648 182.492701 
L 194.030384 182.492701 
L 194.062471 180.771746 
L 194.158379 180.771746 
L 194.268921 177.903487 
L 194.328049 177.903487 
L 194.414318 176.182532 
L 194.442979 176.182532 
L 194.546316 173.887925 
L 194.642303 173.887925 
L 194.642303 173.314274 
L 194.772593 173.314274 
L 194.851368 172.16697 
L 194.933767 172.16697 
L 194.99333 170.446015 
L 195.046104 170.446015 
L 195.046104 169.298712 
L 195.233477 169.298712 
L 195.276432 167.004105 
L 195.37496 167.004105 
L 195.462646 164.709498 
L 195.492206 164.709498 
L 195.580584 162.988543 
L 195.687574 162.988543 
L 195.687574 162.414891 
L 195.8858 162.414891 
L 195.992187 161.267588 
L 196.018371 161.267588 
L 196.095448 157.252026 
L 196.200567 157.252026 
L 196.232595 156.104722 
L 196.37966 156.104722 
L 196.477018 150.368205 
L 196.494 150.368205 
L 196.599162 147.499946 
L 196.622044 147.499946 
L 196.703693 144.058036 
L 196.846854 144.058036 
L 196.904975 141.189778 
L 196.972343 141.189778 
L 197.05472 140.042474 
L 197.128529 140.042474 
L 197.21948 137.174215 
L 197.32615 137.174215 
L 197.32615 136.600564 
L 197.459723 136.600564 
L 197.543261 134.305957 
L 197.611623 134.305957 
L 197.705752 132.01135 
L 197.738521 132.01135 
L 197.752062 130.290395 
L 197.860018 130.290395 
L 197.930502 127.422136 
L 198.020709 127.422136 
L 198.129227 124.553878 
L 198.173327 124.553878 
L 198.256811 122.832923 
L 198.324621 122.832923 
L 198.324621 122.259271 
L 198.447537 122.259271 
L 198.447537 121.111967 
L 198.562056 121.111967 
L 198.670478 118.817361 
L 198.712165 118.817361 
L 198.814354 115.37545 
L 198.824965 115.37545 
L 198.903282 113.654495 
L 198.945469 113.654495 
L 198.987555 112.507192 
L 199.086059 112.507192 
L 199.164255 110.786236 
L 199.205817 110.786236 
L 199.313416 107.917978 
L 199.320634 107.917978 
L 199.329911 106.197023 
L 199.525624 106.197023 
L 199.575481 103.328764 
L 199.644435 103.328764 
L 199.688907 101.607809 
L 199.764452 101.607809 
L 199.764452 101.034157 
L 199.980211 101.034157 
L 199.980211 100.460506 
L 200.097948 100.460506 
L 200.097948 99.886854 
L 200.218812 99.886854 
L 200.292101 98.73955 
L 200.401944 98.73955 
L 200.473504 96.444944 
L 200.644441 96.444944 
L 200.719773 93.003033 
L 200.879841 93.003033 
L 200.980432 91.85573 
L 201.098145 91.85573 
L 201.129774 90.708426 
L 201.418277 90.708426 
L 201.497627 88.413819 
L 201.606487 88.413819 
L 201.606487 87.840168 
L 201.794477 87.840168 
L 201.794477 87.266516 
L 201.979577 87.266516 
L 202.024664 86.119213 
L 202.132925 86.119213 
L 202.132925 85.545561 
L 202.553378 85.545561 
L 202.622621 83.824606 
L 202.69074 83.824606 
L 202.69074 83.250954 
L 203.044896 83.250954 
L 203.14454 79.809044 
L 203.275697 79.809044 
L 203.275697 78.088089 
L 203.652096 78.088089 
L 203.728332 76.940785 
L 203.879019 76.940785 
L 203.879019 76.367133 
L 204.038644 76.367133 
L 204.038644 75.21983 
L 204.204614 75.21983 
L 204.204614 74.646178 
L 204.390618 74.646178 
L 204.390618 74.072526 
L 204.513528 74.072526 
L 204.513528 73.498875 
L 204.637858 73.498875 
L 204.726557 70.630616 
L 204.937016 70.630616 
L 204.937016 70.056964 
L 205.056147 70.056964 
L 205.056147 68.909661 
L 205.820511 68.909661 
L 205.820511 68.336009 
L 206.072231 68.336009 
L 206.072231 67.762358 
L 206.377558 67.762358 
L 206.377558 67.188706 
L 208.408971 67.188706 
L 208.517612 64.320447 
L 208.801263 64.320447 
L 208.862216 63.173144 
L 209.115097 63.173144 
L 209.133314 60.878537 
L 209.754109 60.878537 
L 209.802786 59.157582 
L 210.049726 59.157582 
L 210.085911 57.436627 
L 210.205068 57.436627 
L 210.205068 56.289323 
L 210.623642 56.289323 
L 210.659195 53.994716 
L 210.838012 53.994716 
L 210.944216 51.126458 
L 211.049778 51.126458 
L 211.049778 50.552806 
L 211.864498 50.552806 
L 211.864498 49.405503 
L 216.073455 49.405503 
L 216.125846 44.816289 
L 216.717864 44.816289 
L 216.759256 41.94803 
L 217.239227 41.94803 
L 217.268722 40.227075 
L 217.589917 40.227075 
L 217.647686 37.932468 
L 217.791276 37.932468 
L 217.791276 37.358817 
L 218.003409 37.358817 
L 218.10518 36.211513 
L 218.147264 36.211513 
L 218.147264 35.637861 
L 219.363452 35.637861 
L 219.363452 35.06421 
L 220.657849 35.06421 
L 220.657849 34.490558 
L 220.812458 34.490558 
L 220.812458 33.916906 
L 221.070292 33.916906 
L 221.078584 32.769603 
L 221.270569 32.769603 
L 221.270569 32.195951 
L 221.42654 32.195951 
L 221.445105 31.048648 
L 221.579689 31.048648 
L 221.609871 29.901344 
L 221.797831 29.901344 
L 221.797831 29.327692 
L 221.988285 29.327692 
L 222.043561 28.180389 
L 222.148578 28.180389 
L 222.148578 27.606737 
L 222.409211 27.606737 
L 222.498415 24.164827 
L 222.573038 24.164827 
L 222.681678 21.296568 
L 222.721334 21.296568 
L 222.723759 20.149265 
L 222.856084 20.149265 
L 222.92014 18.42831 
L 222.99829 18.42831 
L 223.009956 16.707355 
L 223.198963 16.707355 
L 223.198963 16.133703 
L 223.328004 16.133703 
L 223.416784 14.412748 
L 224.058379 14.412748 
L 224.058379 13.839096 
L 224.322666 13.839096 
L 224.391117 12.691793 
L 226.227989 12.691793 
L 226.227989 12.118141 
L 226.344184 12.118141 
L 226.350969 10.970838 
L 227.312028 10.970838 
L 227.419183 9.249882 
L 232.362049 9.249882 
L 232.362049 8.676231 
L 232.541117 8.676231 
L 232.541117 8.102579 
L 234.704726 8.102579 
L 234.704726 7.528927 
L 237.16948 7.528927 
L 237.16948 6.955275 
L 238.68817 6.955275 
L 238.68817 6.381624 
L 338.688 6.381624 
L 338.688 6.381624 
" style="fill:none;stroke:#ff7500;stroke-linecap:square;stroke-width:1.5;"/>
   </g>
   <g id="line2d_39">
    <defs>
     <path d="M 0 -6 
L -1.347084 -1.854102 
L -5.706339 -1.854102 
L -2.179628 0.708204 
L -3.526712 4.854102 
L -0 2.291796 
L 3.526712 4.854102 
L 2.179628 0.708204 
L 5.706339 -1.854102 
L 1.347084 -1.854102 
z
" id="m1cbad35e84" style="stroke:#ff7500;stroke-linejoin:bevel;stroke-width:1.5;"/>
    </defs>
    <g>
     <use style="fill-opacity:0;stroke:#ff7500;stroke-linejoin:bevel;stroke-width:1.5;" x="132.230358" xlink:href="#m1cbad35e84" y="280.587145"/>
     <use style="fill-opacity:0;stroke:#ff7500;stroke-linejoin:bevel;stroke-width:1.5;" x="194.030384" xlink:href="#m1cbad35e84" y="181.91905"/>
     <use style="fill-opacity:0;stroke:#ff7500;stroke-linejoin:bevel;stroke-width:1.5;" x="234.704726" xlink:href="#m1cbad35e84" y="8.102579"/>
     <use style="fill-opacity:0;stroke:#ff7500;stroke-linejoin:bevel;stroke-width:1.5;" x="238.68817" xlink:href="#m1cbad35e84" y="6.381624"/>
     <use style="fill-opacity:0;stroke:#ff7500;stroke-linejoin:bevel;stroke-width:1.5;" x="238.68817" xlink:href="#m1cbad35e84" y="6.381624"/>
     <use style="fill-opacity:0;stroke:#ff7500;stroke-linejoin:bevel;stroke-width:1.5;" x="338.688" xlink:href="#m1cbad35e84" y="6.381624"/>
    </g>
   </g>
   <g id="line2d_40">
    <path style="fill:none;stroke:#ff7500;stroke-linecap:square;stroke-width:1.5;"/>
    <g/>
   </g>
   <g id="line2d_41">
    <path clip-path="url(#p83a5e508de)" d="M 218.221714 35.637861 
" style="fill:none;stroke:#ff7500;stroke-linecap:square;stroke-width:1.5;"/>
    <defs>
     <path d="M -12 12 
L 12 -12 
M -12 -12 
L 12 12 
" id="m74ce95e9c1" style="stroke:#ff7500;"/>
    </defs>
    <g clip-path="url(#p83a5e508de)">
     <use style="fill:#ff7500;stroke:#ff7500;" x="218.221714" xlink:href="#m74ce95e9c1" y="35.637861"/>
    </g>
   </g>
   <g id="line2d_42">
    <defs>
     <path d="M 0 1.5 
C 0.397805 1.5 0.77937 1.341951 1.06066 1.06066 
C 1.341951 0.77937 1.5 0.397805 1.5 0 
C 1.5 -0.397805 1.341951 -0.77937 1.06066 -1.06066 
C 0.77937 -1.341951 0.397805 -1.5 0 -1.5 
C -0.397805 -1.5 -0.77937 -1.341951 -1.06066 -1.06066 
C -1.341951 -0.77937 -1.5 -0.397805 -1.5 0 
C -1.5 0.397805 -1.341951 0.77937 -1.06066 1.06066 
C -0.77937 1.341951 -0.397805 1.5 0 1.5 
z
" id="m95361687e6" style="stroke:#6495ed;"/>
    </defs>
    <g>
     <use style="fill:#6495ed;stroke:#6495ed;" x="292.476676" xlink:href="#m95361687e6" y="6.381624"/>
     <use style="fill:#6495ed;stroke:#6495ed;" x="292.476676" xlink:href="#m95361687e6" y="6.381624"/>
    </g>
   </g>
   <g id="line2d_43">
    <path d="M 41.620548 298.944 
L 41.620548 298.370348 
L 57.6 298.370348 
L 57.6 297.796697 
L 65.796525 297.796697 
L 65.796525 297.223045 
L 84.955534 297.223045 
L 84.955534 296.649393 
L 99.731799 296.649393 
L 99.731799 296.075741 
L 100.641881 296.075741 
L 100.641881 295.50209 
L 101.785851 295.50209 
L 101.785851 294.354786 
L 104.114542 294.354786 
L 104.114542 293.781135 
L 104.355088 293.781135 
L 104.355088 293.207483 
L 105.732589 293.207483 
L 105.732589 292.633831 
L 106.593963 292.633831 
L 106.593963 292.060179 
L 109.491096 292.060179 
L 109.491096 291.486528 
L 112.72987 291.486528 
L 112.72987 290.339224 
L 113.73488 290.339224 
L 113.73488 289.765573 
L 114.0117 289.765573 
L 114.0117 289.191921 
L 115.835374 289.191921 
L 115.835374 288.618269 
L 116.562116 288.618269 
L 116.562116 288.044617 
L 116.797786 288.044617 
L 116.797786 287.470966 
L 117.486268 287.470966 
L 117.486268 286.897314 
L 119.89914 286.897314 
L 119.89914 286.323662 
L 122.865118 286.323662 
L 122.865118 285.75001 
L 127.293718 285.75001 
L 127.293718 285.176359 
L 128.107907 285.176359 
L 128.107907 284.602707 
L 128.650105 284.602707 
L 128.650105 284.029055 
L 129.404667 284.029055 
L 129.46138 282.881752 
L 135.917737 282.881752 
L 135.917737 282.3081 
L 139.887228 282.3081 
L 139.887228 281.734448 
L 140.256979 281.734448 
L 140.256979 281.160797 
L 141.20629 281.160797 
L 141.20629 280.587145 
L 141.577657 280.587145 
L 141.577657 280.013493 
L 145.395476 280.013493 
L 145.395476 279.439842 
L 146.707319 279.439842 
L 146.707319 278.86619 
L 146.916676 278.86619 
L 146.916676 278.292538 
L 149.85877 278.292538 
L 149.85877 277.718886 
L 150.033689 277.718886 
L 150.033689 277.145235 
L 152.021866 277.145235 
L 152.021866 276.571583 
L 155.089774 276.571583 
L 155.089774 275.997931 
L 156.199806 275.997931 
L 156.199806 275.42428 
L 156.333721 275.42428 
L 156.345845 274.276976 
L 157.266399 274.276976 
L 157.266399 273.703324 
L 157.809652 273.703324 
L 157.809652 273.129673 
L 158.530025 273.129673 
L 158.530025 272.556021 
L 158.721434 272.556021 
L 158.721434 271.982369 
L 159.966168 271.982369 
L 159.966168 271.408718 
L 160.811875 271.408718 
L 160.811875 270.835066 
L 161.814408 270.835066 
L 161.814408 270.261414 
L 162.303474 270.261414 
L 162.303474 269.687762 
L 162.712026 269.687762 
L 162.712026 269.114111 
L 163.323704 269.114111 
L 163.323704 268.540459 
L 163.7569 268.540459 
L 163.820172 267.393156 
L 164.50142 267.393156 
L 164.50142 266.819504 
L 164.697709 266.819504 
L 164.697709 266.245852 
L 165.439918 266.245852 
L 165.439918 265.6722 
L 166.20699 265.6722 
L 166.20699 265.098549 
L 168.263336 265.098549 
L 168.263336 264.524897 
L 168.409578 264.524897 
L 168.42171 263.377593 
L 168.656606 263.377593 
L 168.656606 262.803942 
L 169.880918 262.803942 
L 169.880918 262.23029 
L 170.135591 262.23029 
L 170.234242 261.082987 
L 171.299527 261.082987 
L 171.299527 260.509335 
L 171.965307 260.509335 
L 171.965307 259.935683 
L 172.245127 259.935683 
L 172.245127 259.362031 
L 172.749118 259.362031 
L 172.749118 258.78838 
L 173.03536 258.78838 
L 173.03536 258.214728 
L 174.732584 258.214728 
L 174.732584 257.641076 
L 175.955464 257.641076 
L 175.955464 257.067425 
L 176.123923 257.067425 
L 176.123923 255.920121 
L 176.267585 255.920121 
L 176.317781 254.772818 
L 178.473071 254.772818 
L 178.473071 254.199166 
L 178.750267 254.199166 
L 178.750267 253.625514 
L 180.138929 253.625514 
L 180.240832 252.478211 
L 180.828151 252.478211 
L 180.828151 251.904559 
L 182.1768 251.904559 
L 182.1768 251.330907 
L 184.96908 251.330907 
L 184.96908 250.757256 
L 185.32464 250.757256 
L 185.32464 250.183604 
L 185.519085 250.183604 
L 185.519085 249.609952 
L 185.850328 249.609952 
L 185.93272 247.888997 
L 187.487492 247.888997 
L 187.487492 247.315345 
L 188.856786 247.315345 
L 188.856786 246.741694 
L 189.058506 246.741694 
L 189.058506 246.168042 
L 189.246901 246.168042 
L 189.246901 245.59439 
L 190.516707 245.59439 
L 190.516707 245.020738 
L 190.921897 245.020738 
L 190.921897 244.447087 
L 193.123294 244.447087 
L 193.123294 243.873435 
L 193.244955 243.873435 
L 193.244955 243.299783 
L 193.357068 243.299783 
L 193.357068 242.726132 
L 194.709584 242.726132 
L 194.709584 242.15248 
L 200.209997 242.15248 
L 200.209997 241.578828 
L 205.487095 241.578828 
L 205.487095 241.005176 
L 206.330029 241.005176 
L 206.330029 240.431525 
L 207.6462 240.431525 
L 207.6462 239.857873 
L 208.049577 239.857873 
L 208.049577 239.284221 
L 208.182196 239.284221 
L 208.182196 238.71057 
L 208.446278 238.71057 
L 208.446278 238.136918 
L 208.714846 238.136918 
L 208.714846 237.563266 
L 208.928307 237.563266 
L 208.928307 236.989614 
L 209.281281 236.989614 
L 209.281281 236.415963 
L 209.438396 236.415963 
L 209.489687 235.268659 
L 209.935109 235.268659 
L 209.988877 233.547704 
L 210.062539 233.547704 
L 210.14476 232.400401 
L 210.36506 232.400401 
L 210.36506 231.826749 
L 211.024502 231.826749 
L 211.039777 229.532142 
L 211.135865 229.532142 
L 211.135865 228.95849 
L 211.435408 228.95849 
L 211.435408 228.384839 
L 211.580465 228.384839 
L 211.640085 227.237535 
L 211.920153 227.237535 
L 211.994084 226.090232 
L 220.764892 226.090232 
L 220.798021 224.942928 
L 225.079843 224.942928 
L 225.079843 224.369277 
L 225.811604 224.369277 
L 225.859164 223.221973 
L 225.955014 223.221973 
L 225.955014 222.07467 
L 226.098143 222.07467 
L 226.196226 220.927366 
L 226.426086 220.927366 
L 226.510641 216.911804 
L 226.654031 216.911804 
L 226.734708 215.190849 
L 227.079778 215.190849 
L 227.085864 212.322591 
L 227.24459 212.322591 
L 227.327553 210.601635 
L 227.442015 210.601635 
L 227.442015 210.027984 
L 234.514337 210.027984 
L 234.601544 207.159725 
L 234.705133 207.159725 
L 234.705133 206.586073 
L 234.873338 206.586073 
L 234.926014 204.865118 
L 235.030626 204.865118 
L 235.060931 202.570511 
L 235.295209 202.570511 
L 235.299008 199.702253 
L 235.435111 199.702253 
L 235.522242 197.981298 
L 240.293266 197.981298 
L 240.376787 193.965736 
L 240.418739 193.965736 
L 240.477246 192.24478 
L 240.55495 192.24478 
L 240.601407 189.376522 
L 240.674712 189.376522 
L 240.674712 188.80287 
L 240.857399 188.80287 
L 240.959207 184.213656 
L 241.022726 184.213656 
L 241.036684 183.066353 
L 244.642604 183.066353 
L 244.73352 179.624443 
L 244.785304 179.624443 
L 244.863752 175.035229 
L 244.934613 175.035229 
L 244.945767 173.887925 
L 245.067997 173.887925 
L 245.150772 168.72506 
L 245.197991 168.72506 
L 245.208979 167.577757 
L 248.10761 167.577757 
L 248.212192 162.414891 
L 248.260043 162.414891 
L 248.34736 159.546632 
L 248.470166 159.546632 
L 248.573275 155.53107 
L 250.996955 155.53107 
L 251.096204 153.810115 
L 251.142739 153.810115 
L 251.229133 150.941857 
L 251.293545 150.941857 
L 251.392321 144.631688 
L 253.465191 144.631688 
L 253.524259 142.337081 
L 253.601484 142.337081 
L 253.658265 140.616126 
L 253.732534 140.616126 
L 253.781265 137.174215 
L 255.644234 137.174215 
L 255.74836 134.305957 
L 255.764128 134.305957 
L 255.87306 129.716743 
L 255.919704 129.716743 
L 255.919704 129.143091 
L 257.573293 129.143091 
L 257.663238 122.832923 
L 257.708237 122.832923 
L 257.815906 118.243709 
L 259.324174 118.243709 
L 259.432259 114.801798 
L 259.436592 114.801798 
L 259.531029 111.359888 
L 260.902315 111.359888 
L 261.001075 107.917978 
L 261.058233 107.917978 
L 261.090266 106.197023 
L 262.337557 106.197023 
L 262.443983 101.034157 
L 262.459115 101.034157 
L 262.540949 97.018595 
L 263.669172 97.018595 
L 263.773198 94.150337 
L 263.787219 94.150337 
L 263.819339 91.85573 
L 264.911342 91.85573 
L 264.985854 88.413819 
L 265.051226 88.413819 
L 265.078798 86.119213 
L 266.085196 86.119213 
L 266.158618 83.250954 
L 266.201161 83.250954 
L 266.243244 79.809044 
L 267.238544 79.809044 
L 267.297053 76.940785 
L 268.185718 76.940785 
L 268.240268 74.646178 
L 268.318154 74.646178 
L 268.318154 74.072526 
L 269.174499 74.072526 
L 269.277478 70.630616 
L 270.111245 70.630616 
L 270.188844 67.762358 
L 270.937828 67.762358 
L 271.04622 62.02584 
L 271.766473 62.02584 
L 271.857149 59.731234 
L 272.603077 59.731234 
L 272.671009 56.862975 
L 273.314242 56.862975 
L 273.425103 53.421065 
L 274.056371 53.421065 
L 274.143755 51.126458 
L 274.735772 51.126458 
L 274.828436 48.258199 
L 276.050111 48.258199 
L 276.10054 44.242637 
L 276.677124 44.242637 
L 276.753436 40.800727 
L 277.269806 40.800727 
L 277.338471 39.079772 
L 277.884971 39.079772 
L 277.928904 36.785165 
L 278.419131 36.785165 
L 278.419131 36.211513 
L 278.976466 36.211513 
L 279.030515 33.916906 
L 279.490741 33.916906 
L 279.514858 32.195951 
L 279.996383 32.195951 
L 280.067086 30.474996 
L 280.506593 30.474996 
L 280.539116 28.754041 
L 280.983972 28.754041 
L 280.991241 27.033086 
L 281.450628 27.033086 
L 281.46798 25.885782 
L 281.912849 25.885782 
L 281.914776 24.738479 
L 282.355604 24.738479 
L 282.388283 21.87022 
L 282.822944 21.87022 
L 282.849514 20.149265 
L 284.090218 20.149265 
L 284.090218 19.575613 
L 284.435055 19.575613 
L 284.47586 17.854658 
L 284.84722 17.854658 
L 284.86342 15.560051 
L 285.58194 15.560051 
L 285.58194 14.9864 
L 285.944615 14.9864 
L 285.944615 14.412748 
L 286.307496 14.412748 
L 286.327733 13.265444 
L 286.674115 13.265444 
L 286.674115 12.691793 
L 286.99677 12.691793 
L 286.99677 12.118141 
L 287.639261 12.118141 
L 287.639261 11.544489 
L 287.98185 11.544489 
L 287.98185 10.970838 
L 288.305128 10.970838 
L 288.305128 10.397186 
L 288.630715 10.397186 
L 288.637501 9.249882 
L 289.203738 9.249882 
L 289.203738 8.676231 
L 289.499674 8.676231 
L 289.499674 8.102579 
L 291.719959 8.102579 
L 291.719959 7.528927 
L 292.476676 7.528927 
L 292.476676 6.381624 
L 338.688 6.381624 
L 338.688 6.381624 
" style="fill:none;stroke:#6495ed;stroke-linecap:square;stroke-width:1.5;"/>
   </g>
   <g id="line2d_44">
    <defs>
     <path d="M -0 6 
L 6 -6 
L -6 -6 
z
" id="m7ab2e56384" style="stroke:#6495ed;stroke-linejoin:miter;stroke-width:1.5;"/>
    </defs>
    <g>
     <use style="fill-opacity:0;stroke:#6495ed;stroke-linejoin:miter;stroke-width:1.5;" x="178.750267" xlink:href="#m7ab2e56384" y="254.199166"/>
     <use style="fill-opacity:0;stroke:#6495ed;stroke-linejoin:miter;stroke-width:1.5;" x="227.079778" xlink:href="#m7ab2e56384" y="215.190849"/>
     <use style="fill-opacity:0;stroke:#6495ed;stroke-linejoin:miter;stroke-width:1.5;" x="277.928904" xlink:href="#m7ab2e56384" y="36.785165"/>
     <use style="fill-opacity:0;stroke:#6495ed;stroke-linejoin:miter;stroke-width:1.5;" x="292.476676" xlink:href="#m7ab2e56384" y="6.381624"/>
     <use style="fill-opacity:0;stroke:#6495ed;stroke-linejoin:miter;stroke-width:1.5;" x="292.476676" xlink:href="#m7ab2e56384" y="6.381624"/>
     <use style="fill-opacity:0;stroke:#6495ed;stroke-linejoin:miter;stroke-width:1.5;" x="338.688" xlink:href="#m7ab2e56384" y="6.381624"/>
    </g>
   </g>
   <g id="line2d_45">
    <path style="fill:none;stroke:#6495ed;stroke-linecap:square;stroke-width:1.5;"/>
    <g/>
   </g>
   <g id="line2d_46">
    <path clip-path="url(#p83a5e508de)" d="M 218.221714 226.090232 
" style="fill:none;stroke:#6495ed;stroke-linecap:square;stroke-width:1.5;"/>
    <defs>
     <path d="M -12 12 
L 12 -12 
M -12 -12 
L 12 12 
" id="m4fa689ccd5" style="stroke:#6495ed;"/>
    </defs>
    <g clip-path="url(#p83a5e508de)">
     <use style="fill:#6495ed;stroke:#6495ed;" x="218.221714" xlink:href="#m4fa689ccd5" y="226.090232"/>
    </g>
   </g>
   <g id="line2d_47">
    <defs>
     <path d="M 0 1.5 
C 0.397805 1.5 0.77937 1.341951 1.06066 1.06066 
C 1.341951 0.77937 1.5 0.397805 1.5 0 
C 1.5 -0.397805 1.341951 -0.77937 1.06066 -1.06066 
C 0.77937 -1.341951 0.397805 -1.5 0 -1.5 
C -0.397805 -1.5 -0.77937 -1.341951 -1.06066 -1.06066 
C -1.341951 -0.77937 -1.5 -0.397805 -1.5 0 
C -1.5 0.397805 -1.341951 0.77937 -1.06066 1.06066 
C -0.77937 1.341951 -0.397805 1.5 0 1.5 
z
" id="m4577efd146" style="stroke:#ff0000;"/>
    </defs>
    <g>
     <use style="fill:#ff0000;stroke:#ff0000;" x="129.290685" xlink:href="#m4577efd146" y="6.381624"/>
     <use style="fill:#ff0000;stroke:#ff0000;" x="129.290685" xlink:href="#m4577efd146" y="6.381624"/>
    </g>
   </g>
   <g id="line2d_48">
    <path d="M 29.53256 298.944 
L 29.53256 296.649393 
L 41.620548 296.649393 
L 41.620548 292.633831 
L 48.691568 292.633831 
L 48.691568 290.912876 
L 53.708537 290.912876 
L 53.708537 289.765573 
L 57.6 289.765573 
L 57.6 287.470966 
L 60.779557 287.470966 
L 60.779557 286.897314 
L 63.467834 286.897314 
L 63.467834 286.323662 
L 75.555822 286.323662 
L 75.555822 285.75001 
L 82.626842 285.75001 
L 82.626842 285.176359 
L 88.846997 285.176359 
L 88.846997 284.602707 
L 94.294587 284.602707 
L 94.294587 284.029055 
L 94.714831 284.029055 
L 94.714831 283.455404 
L 95.125186 283.455404 
L 95.125186 282.3081 
L 95.918017 282.3081 
L 95.918017 281.160797 
L 96.676366 281.160797 
L 96.676366 280.587145 
L 97.755429 280.587145 
L 97.755429 280.013493 
L 99.41757 280.013493 
L 99.41757 279.439842 
L 100.040467 279.439842 
L 100.040467 278.86619 
L 102.597126 278.86619 
L 102.597126 277.145235 
L 105.285403 277.145235 
L 105.285403 276.571583 
L 106.168594 276.571583 
L 106.168594 275.42428 
L 106.382575 275.42428 
L 106.382575 274.850628 
L 106.593963 274.850628 
L 106.593963 272.556021 
L 106.802819 272.556021 
L 106.802819 270.261414 
L 107.009204 270.261414 
L 107.009204 269.114111 
L 107.213174 269.114111 
L 107.213174 268.540459 
L 107.414787 268.540459 
L 107.414787 267.393156 
L 107.811151 267.393156 
L 107.811151 265.6722 
L 108.948899 265.6722 
L 108.948899 263.951245 
L 109.491096 263.951245 
L 109.491096 243.873435 
L 109.668146 243.873435 
L 109.668146 237.563266 
L 110.016944 237.563266 
L 110.016944 235.842311 
L 110.358901 235.842311 
L 110.358901 235.268659 
L 112.128456 235.268659 
L 112.128456 234.695008 
L 112.280765 234.695008 
L 112.280765 234.121356 
L 113.022974 234.121356 
L 113.022974 233.547704 
L 113.167699 233.547704 
L 113.167699 230.105794 
L 113.311233 230.105794 
L 113.311233 227.237535 
L 113.594805 227.237535 
L 113.594805 192.818432 
L 113.73488 192.818432 
L 113.73488 192.24478 
L 113.873839 192.24478 
L 113.873839 189.950174 
L 114.0117 189.950174 
L 114.0117 173.887925 
L 114.284194 173.887925 
L 114.284194 162.988543 
L 114.947365 162.988543 
L 114.947365 149.794553 
L 115.205729 149.794553 
L 115.205729 149.220902 
L 115.958621 149.220902 
L 115.958621 146.926295 
L 116.323218 146.926295 
L 116.323218 145.778991 
L 116.443076 145.778991 
L 116.443076 144.058036 
L 117.145424 144.058036 
L 117.145424 143.484384 
L 118.148599 143.484384 
L 118.256582 124.553878 
L 118.363901 124.553878 
L 118.363901 123.980226 
L 118.576578 123.980226 
L 118.576578 122.832923 
L 118.994305 122.832923 
L 118.994305 121.685619 
L 119.301163 121.685619 
L 119.40226 105.623371 
L 119.502775 105.623371 
L 119.502775 93.003033 
L 120.382253 93.003033 
L 120.382253 92.429381 
L 120.571812 92.429381 
L 120.571812 76.940785 
L 120.759333 76.940785 
L 120.759333 75.793482 
L 121.931406 75.793482 
L 122.018385 60.878537 
L 122.104932 60.878537 
L 122.104932 47.110896 
L 122.531342 47.110896 
L 122.615387 43.095334 
L 122.782271 43.095334 
L 122.782271 31.048648 
L 123.434283 31.048648 
L 123.434283 21.87022 
L 125.183475 21.87022 
L 125.183475 21.296568 
L 127.861412 21.296568 
L 127.861412 20.149265 
L 128.229861 20.149265 
L 128.229861 17.854658 
L 129.290685 17.854658 
L 129.290685 6.381624 
L 338.688 6.381624 
L 338.688 6.381624 
" style="fill:none;stroke:#ff0000;stroke-linecap:square;stroke-width:1.5;"/>
   </g>
   <g id="line2d_49">
    <defs>
     <path d="M 0 -6 
L -5.196152 -3 
L -5.196152 3 
L -0 6 
L 5.196152 3 
L 5.196152 -3 
z
" id="mf55fd1f87d" style="stroke:#ff0000;stroke-linejoin:miter;stroke-width:1.5;"/>
    </defs>
    <g>
     <use style="fill-opacity:0;stroke:#ff0000;stroke-linejoin:miter;stroke-width:1.5;" x="109.668146" xlink:href="#mf55fd1f87d" y="243.873435"/>
     <use style="fill-opacity:0;stroke:#ff0000;stroke-linejoin:miter;stroke-width:1.5;" x="122.782271" xlink:href="#mf55fd1f87d" y="31.048648"/>
     <use style="fill-opacity:0;stroke:#ff0000;stroke-linejoin:miter;stroke-width:1.5;" x="129.290685" xlink:href="#mf55fd1f87d" y="6.381624"/>
     <use style="fill-opacity:0;stroke:#ff0000;stroke-linejoin:miter;stroke-width:1.5;" x="129.290685" xlink:href="#mf55fd1f87d" y="6.381624"/>
     <use style="fill-opacity:0;stroke:#ff0000;stroke-linejoin:miter;stroke-width:1.5;" x="129.290685" xlink:href="#mf55fd1f87d" y="6.381624"/>
     <use style="fill-opacity:0;stroke:#ff0000;stroke-linejoin:miter;stroke-width:1.5;" x="338.688" xlink:href="#mf55fd1f87d" y="6.381624"/>
    </g>
   </g>
   <g id="line2d_50">
    <path style="fill:none;stroke:#ff0000;stroke-linecap:square;stroke-width:1.5;"/>
    <g/>
   </g>
   <g id="line2d_51">
    <path d="M 338.688 6.381624 
L 369.60768 293.092752 
" style="fill:none;stroke:#6495ed;stroke-linecap:square;stroke-width:1.5;"/>
    <g>
     <use style="fill-opacity:0;stroke:#6495ed;stroke-linejoin:miter;stroke-width:1.5;" x="338.688" xlink:href="#m7ab2e56384" y="6.381624"/>
     <use style="fill-opacity:0;stroke:#6495ed;stroke-linejoin:miter;stroke-width:1.5;" x="369.60768" xlink:href="#m7ab2e56384" y="293.092752"/>
    </g>
   </g>
   <g id="line2d_52">
    <path d="M 338.688 6.381624 
L 369.60768 222.877782 
" style="fill:none;stroke:#ff7500;stroke-linecap:square;stroke-width:1.5;"/>
    <g>
     <use style="fill-opacity:0;stroke:#ff7500;stroke-linejoin:bevel;stroke-width:1.5;" x="338.688" xlink:href="#m1cbad35e84" y="6.381624"/>
     <use style="fill-opacity:0;stroke:#ff7500;stroke-linejoin:bevel;stroke-width:1.5;" x="369.60768" xlink:href="#m1cbad35e84" y="222.877782"/>
    </g>
   </g>
   <g id="line2d_53">
    <path d="M 338.688 6.381624 
L 369.60768 152.662812 
" style="fill:none;stroke:#ff00ff;stroke-linecap:square;stroke-width:1.5;"/>
    <g>
     <use style="fill-opacity:0;stroke:#ff00ff;stroke-linejoin:miter;stroke-width:1.5;" x="338.688" xlink:href="#me31515314e" y="6.381624"/>
     <use style="fill-opacity:0;stroke:#ff00ff;stroke-linejoin:miter;stroke-width:1.5;" x="369.60768" xlink:href="#me31515314e" y="152.662812"/>
    </g>
   </g>
   <g id="line2d_54">
    <path d="M 338.688 6.381624 
L 369.60768 82.447842 
" style="fill:none;stroke:#000080;stroke-linecap:square;stroke-width:1.5;"/>
    <g>
     <use style="fill-opacity:0;stroke:#000080;stroke-width:1.5;" x="338.688" xlink:href="#m1231781d48" y="6.381624"/>
     <use style="fill-opacity:0;stroke:#000080;stroke-width:1.5;" x="369.60768" xlink:href="#m1231781d48" y="82.447842"/>
    </g>
   </g>
   <g id="line2d_55">
    <path d="M 338.688 6.381624 
L 369.60768 12.232871 
" style="fill:none;stroke:#ff0000;stroke-linecap:square;stroke-width:1.5;"/>
    <g>
     <use style="fill-opacity:0;stroke:#ff0000;stroke-linejoin:miter;stroke-width:1.5;" x="338.688" xlink:href="#mf55fd1f87d" y="6.381624"/>
     <use style="fill-opacity:0;stroke:#ff0000;stroke-linejoin:miter;stroke-width:1.5;" x="369.60768" xlink:href="#mf55fd1f87d" y="12.232871"/>
    </g>
   </g>
   <g id="line2d_56">
    <path d="M 338.688 298.944 
L 338.688 6.381624 
" style="fill:none;stroke:#000000;stroke-linecap:square;stroke-width:1.5;"/>
   </g>
   <g id="patch_3">
    <path d="M 57.6 298.944 
L 57.6 3.456 
" style="fill:none;stroke:#000000;stroke-linecap:square;stroke-linejoin:miter;stroke-width:0.8;"/>
   </g>
   <g id="patch_4">
    <path d="M 338.688 298.944 
L 338.688 3.456 
" style="fill:none;stroke:#000000;stroke-linecap:square;stroke-linejoin:miter;stroke-width:0.8;"/>
   </g>
   <g id="patch_5">
    <path d="M 57.6 298.944 
L 338.688 298.944 
" style="fill:none;stroke:#000000;stroke-linecap:square;stroke-linejoin:miter;stroke-width:0.8;"/>
   </g>
   <g id="patch_6">
    <path d="M 57.6 3.456 
L 338.688 3.456 
" style="fill:none;stroke:#000000;stroke-linecap:square;stroke-linejoin:miter;stroke-width:0.8;"/>
   </g>
   <g id="text_13">
    <!-- f4 -->
    <g transform="translate(375.22944 297.78369)scale(0.17 -0.17)">
     <use xlink:href="#DejaVuSans-66"/>
     <use x="35.205078" xlink:href="#DejaVuSans-34"/>
    </g>
   </g>
   <g id="text_14">
    <!-- f3 -->
    <g transform="translate(375.22944 227.56872)scale(0.17 -0.17)">
     <defs>
      <path d="M 2597 2516 
Q 3050 2419 3304 2112 
Q 3559 1806 3559 1356 
Q 3559 666 3084 287 
Q 2609 -91 1734 -91 
Q 1441 -91 1130 -33 
Q 819 25 488 141 
L 488 750 
Q 750 597 1062 519 
Q 1375 441 1716 441 
Q 2309 441 2620 675 
Q 2931 909 2931 1356 
Q 2931 1769 2642 2001 
Q 2353 2234 1838 2234 
L 1294 2234 
L 1294 2753 
L 1863 2753 
Q 2328 2753 2575 2939 
Q 2822 3125 2822 3475 
Q 2822 3834 2567 4026 
Q 2313 4219 1838 4219 
Q 1578 4219 1281 4162 
Q 984 4106 628 3988 
L 628 4550 
Q 988 4650 1302 4700 
Q 1616 4750 1894 4750 
Q 2613 4750 3031 4423 
Q 3450 4097 3450 3541 
Q 3450 3153 3228 2886 
Q 3006 2619 2597 2516 
z
" id="DejaVuSans-33" transform="scale(0.015625)"/>
     </defs>
     <use xlink:href="#DejaVuSans-66"/>
     <use x="35.205078" xlink:href="#DejaVuSans-33"/>
    </g>
   </g>
   <g id="text_15">
    <!-- f2 -->
    <g transform="translate(375.22944 157.353749)scale(0.17 -0.17)">
     <use xlink:href="#DejaVuSans-66"/>
     <use x="35.205078" xlink:href="#DejaVuSans-32"/>
    </g>
   </g>
   <g id="text_16">
    <!-- f1 -->
    <g transform="translate(375.22944 87.138779)scale(0.17 -0.17)">
     <use xlink:href="#DejaVuSans-66"/>
     <use x="35.205078" xlink:href="#DejaVuSans-31"/>
    </g>
   </g>
   <g id="text_17">
    <!-- f5 -->
    <g transform="translate(375.22944 16.923809)scale(0.17 -0.17)">
     <defs>
      <path d="M 691 4666 
L 3169 4666 
L 3169 4134 
L 1269 4134 
L 1269 2991 
Q 1406 3038 1543 3061 
Q 1681 3084 1819 3084 
Q 2600 3084 3056 2656 
Q 3513 2228 3513 1497 
Q 3513 744 3044 326 
Q 2575 -91 1722 -91 
Q 1428 -91 1123 -41 
Q 819 9 494 109 
L 494 744 
Q 775 591 1075 516 
Q 1375 441 1709 441 
Q 2250 441 2565 725 
Q 2881 1009 2881 1497 
Q 2881 1984 2565 2268 
Q 2250 2553 1709 2553 
Q 1456 2553 1204 2497 
Q 953 2441 691 2322 
L 691 4666 
z
" id="DejaVuSans-35" transform="scale(0.015625)"/>
     </defs>
     <use xlink:href="#DejaVuSans-66"/>
     <use x="35.205078" xlink:href="#DejaVuSans-35"/>
    </g>
   </g>
   <g id="text_18">
    <!-- bbob -->
    <g transform="translate(60.41088 14.161286)scale(0.102 -0.102)">
     <defs>
      <path d="M 3116 1747 
Q 3116 2381 2855 2742 
Q 2594 3103 2138 3103 
Q 1681 3103 1420 2742 
Q 1159 2381 1159 1747 
Q 1159 1113 1420 752 
Q 1681 391 2138 391 
Q 2594 391 2855 752 
Q 3116 1113 3116 1747 
z
M 1159 2969 
Q 1341 3281 1617 3432 
Q 1894 3584 2278 3584 
Q 2916 3584 3314 3078 
Q 3713 2572 3713 1747 
Q 3713 922 3314 415 
Q 2916 -91 2278 -91 
Q 1894 -91 1617 61 
Q 1341 213 1159 525 
L 1159 0 
L 581 0 
L 581 4863 
L 1159 4863 
L 1159 2969 
z
" id="DejaVuSans-62" transform="scale(0.015625)"/>
     </defs>
     <use xlink:href="#DejaVuSans-62"/>
     <use x="63.476562" xlink:href="#DejaVuSans-62"/>
     <use x="126.953125" xlink:href="#DejaVuSans-6f"/>
     <use x="188.134766" xlink:href="#DejaVuSans-62"/>
    </g>
    <!-- Separable functions, 5-D -->
    <g transform="translate(60.41088 25.583055)scale(0.102 -0.102)">
     <defs>
      <path d="M 3425 4513 
L 3425 3897 
Q 3066 4069 2747 4153 
Q 2428 4238 2131 4238 
Q 1616 4238 1336 4038 
Q 1056 3838 1056 3469 
Q 1056 3159 1242 3001 
Q 1428 2844 1947 2747 
L 2328 2669 
Q 3034 2534 3370 2195 
Q 3706 1856 3706 1288 
Q 3706 609 3251 259 
Q 2797 -91 1919 -91 
Q 1588 -91 1214 -16 
Q 841 59 441 206 
L 441 856 
Q 825 641 1194 531 
Q 1563 422 1919 422 
Q 2459 422 2753 634 
Q 3047 847 3047 1241 
Q 3047 1584 2836 1778 
Q 2625 1972 2144 2069 
L 1759 2144 
Q 1053 2284 737 2584 
Q 422 2884 422 3419 
Q 422 4038 858 4394 
Q 1294 4750 2059 4750 
Q 2388 4750 2728 4690 
Q 3069 4631 3425 4513 
z
" id="DejaVuSans-53" transform="scale(0.015625)"/>
      <path d="M 1259 4147 
L 1259 519 
L 2022 519 
Q 2988 519 3436 956 
Q 3884 1394 3884 2338 
Q 3884 3275 3436 3711 
Q 2988 4147 2022 4147 
L 1259 4147 
z
M 628 4666 
L 1925 4666 
Q 3281 4666 3915 4102 
Q 4550 3538 4550 2338 
Q 4550 1131 3912 565 
Q 3275 0 1925 0 
L 628 0 
L 628 4666 
z
" id="DejaVuSans-44" transform="scale(0.015625)"/>
     </defs>
     <use xlink:href="#DejaVuSans-53"/>
     <use x="63.476562" xlink:href="#DejaVuSans-65"/>
     <use x="125" xlink:href="#DejaVuSans-70"/>
     <use x="188.476562" xlink:href="#DejaVuSans-61"/>
     <use x="249.755859" xlink:href="#DejaVuSans-72"/>
     <use x="290.869141" xlink:href="#DejaVuSans-61"/>
     <use x="352.148438" xlink:href="#DejaVuSans-62"/>
     <use x="415.625" xlink:href="#DejaVuSans-6c"/>
     <use x="443.408203" xlink:href="#DejaVuSans-65"/>
     <use x="504.931641" xlink:href="#DejaVuSans-20"/>
     <use x="536.71875" xlink:href="#DejaVuSans-66"/>
     <use x="571.923828" xlink:href="#DejaVuSans-75"/>
     <use x="635.302734" xlink:href="#DejaVuSans-6e"/>
     <use x="698.681641" xlink:href="#DejaVuSans-63"/>
     <use x="753.662109" xlink:href="#DejaVuSans-74"/>
     <use x="792.871094" xlink:href="#DejaVuSans-69"/>
     <use x="820.654297" xlink:href="#DejaVuSans-6f"/>
     <use x="881.835938" xlink:href="#DejaVuSans-6e"/>
     <use x="945.214844" xlink:href="#DejaVuSans-73"/>
     <use x="997.314453" xlink:href="#DejaVuSans-2c"/>
     <use x="1029.101562" xlink:href="#DejaVuSans-20"/>
     <use x="1060.888672" xlink:href="#DejaVuSans-35"/>
     <use x="1124.511719" xlink:href="#DejaVuSans-2d"/>
     <use x="1160.595703" xlink:href="#DejaVuSans-44"/>
    </g>
    <!-- 51 targets: 100..1e-08 -->
    <g transform="translate(60.41088 37.004824)scale(0.102 -0.102)">
     <defs>
      <path d="M 750 794 
L 1409 794 
L 1409 0 
L 750 0 
L 750 794 
z
M 750 3309 
L 1409 3309 
L 1409 2516 
L 750 2516 
L 750 3309 
z
" id="DejaVuSans-3a" transform="scale(0.015625)"/>
     </defs>
     <use xlink:href="#DejaVuSans-35"/>
     <use x="63.623047" xlink:href="#DejaVuSans-31"/>
     <use x="127.246094" xlink:href="#DejaVuSans-20"/>
     <use x="159.033203" xlink:href="#DejaVuSans-74"/>
     <use x="198.242188" xlink:href="#DejaVuSans-61"/>
     <use x="259.521484" xlink:href="#DejaVuSans-72"/>
     <use x="298.884766" xlink:href="#DejaVuSans-67"/>
     <use x="362.361328" xlink:href="#DejaVuSans-65"/>
     <use x="423.884766" xlink:href="#DejaVuSans-74"/>
     <use x="463.09375" xlink:href="#DejaVuSans-73"/>
     <use x="515.193359" xlink:href="#DejaVuSans-3a"/>
     <use x="548.884766" xlink:href="#DejaVuSans-20"/>
     <use x="580.671875" xlink:href="#DejaVuSans-31"/>
     <use x="644.294922" xlink:href="#DejaVuSans-30"/>
     <use x="707.917969" xlink:href="#DejaVuSans-30"/>
     <use x="771.541016" xlink:href="#DejaVuSans-2e"/>
     <use x="803.328125" xlink:href="#DejaVuSans-2e"/>
     <use x="835.115234" xlink:href="#DejaVuSans-31"/>
     <use x="898.738281" xlink:href="#DejaVuSans-65"/>
     <use x="960.261719" xlink:href="#DejaVuSans-2d"/>
     <use x="996.345703" xlink:href="#DejaVuSans-30"/>
     <use x="1059.96875" xlink:href="#DejaVuSans-38"/>
    </g>
    <!-- 15 instances -->
    <g transform="translate(60.41088 48.426593)scale(0.102 -0.102)">
     <use xlink:href="#DejaVuSans-31"/>
     <use x="63.623047" xlink:href="#DejaVuSans-35"/>
     <use x="127.246094" xlink:href="#DejaVuSans-20"/>
     <use x="159.033203" xlink:href="#DejaVuSans-69"/>
     <use x="186.816406" xlink:href="#DejaVuSans-6e"/>
     <use x="250.195312" xlink:href="#DejaVuSans-73"/>
     <use x="302.294922" xlink:href="#DejaVuSans-74"/>
     <use x="341.503906" xlink:href="#DejaVuSans-61"/>
     <use x="402.783203" xlink:href="#DejaVuSans-6e"/>
     <use x="466.162109" xlink:href="#DejaVuSans-63"/>
     <use x="521.142578" xlink:href="#DejaVuSans-65"/>
     <use x="582.666016" xlink:href="#DejaVuSans-73"/>
    </g>
   </g>
   <g id="text_19">
    <!-- v2.4 -->
    <g style="fill:#808080;" transform="translate(187.233062 293.909432)scale(0.1 -0.1)">
     <use xlink:href="#DejaVuSans-76"/>
     <use x="59.179688" xlink:href="#DejaVuSans-32"/>
     <use x="122.802734" xlink:href="#DejaVuSans-2e"/>
     <use x="154.589844" xlink:href="#DejaVuSans-34"/>
    </g>
   </g>
  </g>
 </g>
 <defs>
  <clipPath id="p83a5e508de">
   <rect height="295.488" width="281.088" x="57.6" y="3.456"/>
  </clipPath>
 </defs>
</svg>
