<?xml version="1.0" encoding="utf-8" standalone="no"?>
<!DOCTYPE svg PUBLIC "-//W3C//DTD SVG 1.1//EN"
  "http://www.w3.org/Graphics/SVG/1.1/DTD/svg11.dtd">
<svg height="345.6pt" version="1.1" viewBox="0 0 460.8 345.6" width="460.8pt" xmlns="http://www.w3.org/2000/svg" xmlns:xlink="http://www.w3.org/1999/xlink">
 <metadata>
  <rdf:RDF xmlns:cc="http://creativecommons.org/ns#" xmlns:dc="http://purl.org/dc/elements/1.1/" xmlns:rdf="http://www.w3.org/1999/02/22-rdf-syntax-ns#">
   <cc:Work>
    <dc:type rdf:resource="http://purl.org/dc/dcmitype/StillImage"/>
    <dc:date>2021-04-20T11:31:54.460613</dc:date>
    <dc:format>image/svg+xml</dc:format>
    <dc:creator>
     <cc:Agent>
      <dc:title>Matplotlib v3.4.1, https://matplotlib.org/</dc:title>
     </cc:Agent>
    </dc:creator>
   </cc:Work>
  </rdf:RDF>
 </metadata>
 <defs>
  <style type="text/css">*{stroke-linecap:butt;stroke-linejoin:round;}</style>
 </defs>
 <g id="figure_1">
  <g id="patch_1">
   <path d="M 0 345.6 
L 460.8 345.6 
L 460.8 0 
L 0 0 
z
" style="fill:#ffffff;"/>
  </g>
  <g id="axes_1">
   <g id="patch_2">
    <path d="M 57.6 298.944 
L 338.688 298.944 
L 338.688 27.648 
L 57.6 27.648 
z
" style="fill:#ffffff;"/>
   </g>
   <g id="matplotlib.axis_1">
    <g id="xtick_1">
     <g id="line2d_1">
      <path clip-path="url(#pe17b1e7052)" d="M 57.6 298.944 
L 57.6 27.648 
" style="fill:none;stroke:#b0b0b0;stroke-linecap:square;stroke-width:0.8;"/>
     </g>
     <g id="line2d_2">
      <defs>
       <path d="M 0 0 
L 0 3.5 
" id="mb85251894f" style="stroke:#000000;stroke-width:0.8;"/>
      </defs>
      <g>
       <use style="stroke:#000000;stroke-width:0.8;" x="57.6" xlink:href="#mb85251894f" y="298.944"/>
      </g>
     </g>
     <g id="text_1">
      <!-- 0 -->
      <g transform="translate(51.2375 321.140875)scale(0.2 -0.2)">
       <defs>
        <path d="M 2034 4250 
Q 1547 4250 1301 3770 
Q 1056 3291 1056 2328 
Q 1056 1369 1301 889 
Q 1547 409 2034 409 
Q 2525 409 2770 889 
Q 3016 1369 3016 2328 
Q 3016 3291 2770 3770 
Q 2525 4250 2034 4250 
z
M 2034 4750 
Q 2819 4750 3233 4129 
Q 3647 3509 3647 2328 
Q 3647 1150 3233 529 
Q 2819 -91 2034 -91 
Q 1250 -91 836 529 
Q 422 1150 422 2328 
Q 422 3509 836 4129 
Q 1250 4750 2034 4750 
z
" id="DejaVuSans-30" transform="scale(0.015625)"/>
       </defs>
       <use xlink:href="#DejaVuSans-30"/>
      </g>
     </g>
    </g>
    <g id="xtick_2">
     <g id="line2d_3">
      <path clip-path="url(#pe17b1e7052)" d="M 137.910857 298.944 
L 137.910857 27.648 
" style="fill:none;stroke:#b0b0b0;stroke-linecap:square;stroke-width:0.8;"/>
     </g>
     <g id="line2d_4">
      <g>
       <use style="stroke:#000000;stroke-width:0.8;" x="137.910857" xlink:href="#mb85251894f" y="298.944"/>
      </g>
     </g>
     <g id="text_2">
      <!-- 2 -->
      <g transform="translate(131.548357 321.140875)scale(0.2 -0.2)">
       <defs>
        <path d="M 1228 531 
L 3431 531 
L 3431 0 
L 469 0 
L 469 531 
Q 828 903 1448 1529 
Q 2069 2156 2228 2338 
Q 2531 2678 2651 2914 
Q 2772 3150 2772 3378 
Q 2772 3750 2511 3984 
Q 2250 4219 1831 4219 
Q 1534 4219 1204 4116 
Q 875 4013 500 3803 
L 500 4441 
Q 881 4594 1212 4672 
Q 1544 4750 1819 4750 
Q 2544 4750 2975 4387 
Q 3406 4025 3406 3419 
Q 3406 3131 3298 2873 
Q 3191 2616 2906 2266 
Q 2828 2175 2409 1742 
Q 1991 1309 1228 531 
z
" id="DejaVuSans-32" transform="scale(0.015625)"/>
       </defs>
       <use xlink:href="#DejaVuSans-32"/>
      </g>
     </g>
    </g>
    <g id="xtick_3">
     <g id="line2d_5">
      <path clip-path="url(#pe17b1e7052)" d="M 218.221714 298.944 
L 218.221714 27.648 
" style="fill:none;stroke:#b0b0b0;stroke-linecap:square;stroke-width:0.8;"/>
     </g>
     <g id="line2d_6">
      <g>
       <use style="stroke:#000000;stroke-width:0.8;" x="218.221714" xlink:href="#mb85251894f" y="298.944"/>
      </g>
     </g>
     <g id="text_3">
      <!-- 4 -->
      <g transform="translate(211.859214 321.140875)scale(0.2 -0.2)">
       <defs>
        <path d="M 2419 4116 
L 825 1625 
L 2419 1625 
L 2419 4116 
z
M 2253 4666 
L 3047 4666 
L 3047 1625 
L 3713 1625 
L 3713 1100 
L 3047 1100 
L 3047 0 
L 2419 0 
L 2419 1100 
L 313 1100 
L 313 1709 
L 2253 4666 
z
" id="DejaVuSans-34" transform="scale(0.015625)"/>
       </defs>
       <use xlink:href="#DejaVuSans-34"/>
      </g>
     </g>
    </g>
    <g id="xtick_4">
     <g id="line2d_7">
      <path clip-path="url(#pe17b1e7052)" d="M 298.532571 298.944 
L 298.532571 27.648 
" style="fill:none;stroke:#b0b0b0;stroke-linecap:square;stroke-width:0.8;"/>
     </g>
     <g id="line2d_8">
      <g>
       <use style="stroke:#000000;stroke-width:0.8;" x="298.532571" xlink:href="#mb85251894f" y="298.944"/>
      </g>
     </g>
     <g id="text_4">
      <!-- 6 -->
      <g transform="translate(292.170071 321.140875)scale(0.2 -0.2)">
       <defs>
        <path d="M 2113 2584 
Q 1688 2584 1439 2293 
Q 1191 2003 1191 1497 
Q 1191 994 1439 701 
Q 1688 409 2113 409 
Q 2538 409 2786 701 
Q 3034 994 3034 1497 
Q 3034 2003 2786 2293 
Q 2538 2584 2113 2584 
z
M 3366 4563 
L 3366 3988 
Q 3128 4100 2886 4159 
Q 2644 4219 2406 4219 
Q 1781 4219 1451 3797 
Q 1122 3375 1075 2522 
Q 1259 2794 1537 2939 
Q 1816 3084 2150 3084 
Q 2853 3084 3261 2657 
Q 3669 2231 3669 1497 
Q 3669 778 3244 343 
Q 2819 -91 2113 -91 
Q 1303 -91 875 529 
Q 447 1150 447 2328 
Q 447 3434 972 4092 
Q 1497 4750 2381 4750 
Q 2619 4750 2861 4703 
Q 3103 4656 3366 4563 
z
" id="DejaVuSans-36" transform="scale(0.015625)"/>
       </defs>
       <use xlink:href="#DejaVuSans-36"/>
      </g>
     </g>
    </g>
    <g id="xtick_5">
     <g id="line2d_9">
      <path clip-path="url(#pe17b1e7052)" d="M 97.755429 298.944 
L 97.755429 27.648 
" style="fill:none;stroke:#b0b0b0;stroke-linecap:square;stroke-width:0.8;"/>
     </g>
     <g id="line2d_10">
      <defs>
       <path d="M 0 0 
L 0 2 
" id="mbf58e0c14f" style="stroke:#000000;stroke-width:0.6;"/>
      </defs>
      <g>
       <use style="stroke:#000000;stroke-width:0.6;" x="97.755429" xlink:href="#mbf58e0c14f" y="298.944"/>
      </g>
     </g>
    </g>
    <g id="xtick_6">
     <g id="line2d_11">
      <path clip-path="url(#pe17b1e7052)" d="M 178.066286 298.944 
L 178.066286 27.648 
" style="fill:none;stroke:#b0b0b0;stroke-linecap:square;stroke-width:0.8;"/>
     </g>
     <g id="line2d_12">
      <g>
       <use style="stroke:#000000;stroke-width:0.6;" x="178.066286" xlink:href="#mbf58e0c14f" y="298.944"/>
      </g>
     </g>
    </g>
    <g id="xtick_7">
     <g id="line2d_13">
      <path clip-path="url(#pe17b1e7052)" d="M 258.377143 298.944 
L 258.377143 27.648 
" style="fill:none;stroke:#b0b0b0;stroke-linecap:square;stroke-width:0.8;"/>
     </g>
     <g id="line2d_14">
      <g>
       <use style="stroke:#000000;stroke-width:0.6;" x="258.377143" xlink:href="#mbf58e0c14f" y="298.944"/>
      </g>
     </g>
    </g>
    <g id="xtick_8">
     <g id="line2d_15">
      <path clip-path="url(#pe17b1e7052)" d="M 338.688 298.944 
L 338.688 27.648 
" style="fill:none;stroke:#b0b0b0;stroke-linecap:square;stroke-width:0.8;"/>
     </g>
     <g id="line2d_16">
      <g>
       <use style="stroke:#000000;stroke-width:0.6;" x="338.688" xlink:href="#mbf58e0c14f" y="298.944"/>
      </g>
     </g>
    </g>
    <g id="text_5">
     <!-- log10(# f-evals / dimension) -->
     <g transform="translate(77.764078 342.217594)scale(0.17 -0.17)">
      <defs>
       <path d="M 603 4863 
L 1178 4863 
L 1178 0 
L 603 0 
L 603 4863 
z
" id="DejaVuSans-6c" transform="scale(0.015625)"/>
       <path d="M 1959 3097 
Q 1497 3097 1228 2736 
Q 959 2375 959 1747 
Q 959 1119 1226 758 
Q 1494 397 1959 397 
Q 2419 397 2687 759 
Q 2956 1122 2956 1747 
Q 2956 2369 2687 2733 
Q 2419 3097 1959 3097 
z
M 1959 3584 
Q 2709 3584 3137 3096 
Q 3566 2609 3566 1747 
Q 3566 888 3137 398 
Q 2709 -91 1959 -91 
Q 1206 -91 779 398 
Q 353 888 353 1747 
Q 353 2609 779 3096 
Q 1206 3584 1959 3584 
z
" id="DejaVuSans-6f" transform="scale(0.015625)"/>
       <path d="M 2906 1791 
Q 2906 2416 2648 2759 
Q 2391 3103 1925 3103 
Q 1463 3103 1205 2759 
Q 947 2416 947 1791 
Q 947 1169 1205 825 
Q 1463 481 1925 481 
Q 2391 481 2648 825 
Q 2906 1169 2906 1791 
z
M 3481 434 
Q 3481 -459 3084 -895 
Q 2688 -1331 1869 -1331 
Q 1566 -1331 1297 -1286 
Q 1028 -1241 775 -1147 
L 775 -588 
Q 1028 -725 1275 -790 
Q 1522 -856 1778 -856 
Q 2344 -856 2625 -561 
Q 2906 -266 2906 331 
L 2906 616 
Q 2728 306 2450 153 
Q 2172 0 1784 0 
Q 1141 0 747 490 
Q 353 981 353 1791 
Q 353 2603 747 3093 
Q 1141 3584 1784 3584 
Q 2172 3584 2450 3431 
Q 2728 3278 2906 2969 
L 2906 3500 
L 3481 3500 
L 3481 434 
z
" id="DejaVuSans-67" transform="scale(0.015625)"/>
       <path d="M 794 531 
L 1825 531 
L 1825 4091 
L 703 3866 
L 703 4441 
L 1819 4666 
L 2450 4666 
L 2450 531 
L 3481 531 
L 3481 0 
L 794 0 
L 794 531 
z
" id="DejaVuSans-31" transform="scale(0.015625)"/>
       <path d="M 1984 4856 
Q 1566 4138 1362 3434 
Q 1159 2731 1159 2009 
Q 1159 1288 1364 580 
Q 1569 -128 1984 -844 
L 1484 -844 
Q 1016 -109 783 600 
Q 550 1309 550 2009 
Q 550 2706 781 3412 
Q 1013 4119 1484 4856 
L 1984 4856 
z
" id="DejaVuSans-28" transform="scale(0.015625)"/>
       <path d="M 3272 2816 
L 2363 2816 
L 2100 1772 
L 3016 1772 
L 3272 2816 
z
M 2803 4594 
L 2478 3297 
L 3391 3297 
L 3719 4594 
L 4219 4594 
L 3897 3297 
L 4872 3297 
L 4872 2816 
L 3775 2816 
L 3519 1772 
L 4513 1772 
L 4513 1294 
L 3397 1294 
L 3072 0 
L 2572 0 
L 2894 1294 
L 1978 1294 
L 1656 0 
L 1153 0 
L 1478 1294 
L 494 1294 
L 494 1772 
L 1594 1772 
L 1856 2816 
L 850 2816 
L 850 3297 
L 1978 3297 
L 2297 4594 
L 2803 4594 
z
" id="DejaVuSans-23" transform="scale(0.015625)"/>
       <path id="DejaVuSans-20" transform="scale(0.015625)"/>
       <path d="M 2375 4863 
L 2375 4384 
L 1825 4384 
Q 1516 4384 1395 4259 
Q 1275 4134 1275 3809 
L 1275 3500 
L 2222 3500 
L 2222 3053 
L 1275 3053 
L 1275 0 
L 697 0 
L 697 3053 
L 147 3053 
L 147 3500 
L 697 3500 
L 697 3744 
Q 697 4328 969 4595 
Q 1241 4863 1831 4863 
L 2375 4863 
z
" id="DejaVuSans-66" transform="scale(0.015625)"/>
       <path d="M 313 2009 
L 1997 2009 
L 1997 1497 
L 313 1497 
L 313 2009 
z
" id="DejaVuSans-2d" transform="scale(0.015625)"/>
       <path d="M 3597 1894 
L 3597 1613 
L 953 1613 
Q 991 1019 1311 708 
Q 1631 397 2203 397 
Q 2534 397 2845 478 
Q 3156 559 3463 722 
L 3463 178 
Q 3153 47 2828 -22 
Q 2503 -91 2169 -91 
Q 1331 -91 842 396 
Q 353 884 353 1716 
Q 353 2575 817 3079 
Q 1281 3584 2069 3584 
Q 2775 3584 3186 3129 
Q 3597 2675 3597 1894 
z
M 3022 2063 
Q 3016 2534 2758 2815 
Q 2500 3097 2075 3097 
Q 1594 3097 1305 2825 
Q 1016 2553 972 2059 
L 3022 2063 
z
" id="DejaVuSans-65" transform="scale(0.015625)"/>
       <path d="M 191 3500 
L 800 3500 
L 1894 563 
L 2988 3500 
L 3597 3500 
L 2284 0 
L 1503 0 
L 191 3500 
z
" id="DejaVuSans-76" transform="scale(0.015625)"/>
       <path d="M 2194 1759 
Q 1497 1759 1228 1600 
Q 959 1441 959 1056 
Q 959 750 1161 570 
Q 1363 391 1709 391 
Q 2188 391 2477 730 
Q 2766 1069 2766 1631 
L 2766 1759 
L 2194 1759 
z
M 3341 1997 
L 3341 0 
L 2766 0 
L 2766 531 
Q 2569 213 2275 61 
Q 1981 -91 1556 -91 
Q 1019 -91 701 211 
Q 384 513 384 1019 
Q 384 1609 779 1909 
Q 1175 2209 1959 2209 
L 2766 2209 
L 2766 2266 
Q 2766 2663 2505 2880 
Q 2244 3097 1772 3097 
Q 1472 3097 1187 3025 
Q 903 2953 641 2809 
L 641 3341 
Q 956 3463 1253 3523 
Q 1550 3584 1831 3584 
Q 2591 3584 2966 3190 
Q 3341 2797 3341 1997 
z
" id="DejaVuSans-61" transform="scale(0.015625)"/>
       <path d="M 2834 3397 
L 2834 2853 
Q 2591 2978 2328 3040 
Q 2066 3103 1784 3103 
Q 1356 3103 1142 2972 
Q 928 2841 928 2578 
Q 928 2378 1081 2264 
Q 1234 2150 1697 2047 
L 1894 2003 
Q 2506 1872 2764 1633 
Q 3022 1394 3022 966 
Q 3022 478 2636 193 
Q 2250 -91 1575 -91 
Q 1294 -91 989 -36 
Q 684 19 347 128 
L 347 722 
Q 666 556 975 473 
Q 1284 391 1588 391 
Q 1994 391 2212 530 
Q 2431 669 2431 922 
Q 2431 1156 2273 1281 
Q 2116 1406 1581 1522 
L 1381 1569 
Q 847 1681 609 1914 
Q 372 2147 372 2553 
Q 372 3047 722 3315 
Q 1072 3584 1716 3584 
Q 2034 3584 2315 3537 
Q 2597 3491 2834 3397 
z
" id="DejaVuSans-73" transform="scale(0.015625)"/>
       <path d="M 1625 4666 
L 2156 4666 
L 531 -594 
L 0 -594 
L 1625 4666 
z
" id="DejaVuSans-2f" transform="scale(0.015625)"/>
       <path d="M 2906 2969 
L 2906 4863 
L 3481 4863 
L 3481 0 
L 2906 0 
L 2906 525 
Q 2725 213 2448 61 
Q 2172 -91 1784 -91 
Q 1150 -91 751 415 
Q 353 922 353 1747 
Q 353 2572 751 3078 
Q 1150 3584 1784 3584 
Q 2172 3584 2448 3432 
Q 2725 3281 2906 2969 
z
M 947 1747 
Q 947 1113 1208 752 
Q 1469 391 1925 391 
Q 2381 391 2643 752 
Q 2906 1113 2906 1747 
Q 2906 2381 2643 2742 
Q 2381 3103 1925 3103 
Q 1469 3103 1208 2742 
Q 947 2381 947 1747 
z
" id="DejaVuSans-64" transform="scale(0.015625)"/>
       <path d="M 603 3500 
L 1178 3500 
L 1178 0 
L 603 0 
L 603 3500 
z
M 603 4863 
L 1178 4863 
L 1178 4134 
L 603 4134 
L 603 4863 
z
" id="DejaVuSans-69" transform="scale(0.015625)"/>
       <path d="M 3328 2828 
Q 3544 3216 3844 3400 
Q 4144 3584 4550 3584 
Q 5097 3584 5394 3201 
Q 5691 2819 5691 2113 
L 5691 0 
L 5113 0 
L 5113 2094 
Q 5113 2597 4934 2840 
Q 4756 3084 4391 3084 
Q 3944 3084 3684 2787 
Q 3425 2491 3425 1978 
L 3425 0 
L 2847 0 
L 2847 2094 
Q 2847 2600 2669 2842 
Q 2491 3084 2119 3084 
Q 1678 3084 1418 2786 
Q 1159 2488 1159 1978 
L 1159 0 
L 581 0 
L 581 3500 
L 1159 3500 
L 1159 2956 
Q 1356 3278 1631 3431 
Q 1906 3584 2284 3584 
Q 2666 3584 2933 3390 
Q 3200 3197 3328 2828 
z
" id="DejaVuSans-6d" transform="scale(0.015625)"/>
       <path d="M 3513 2113 
L 3513 0 
L 2938 0 
L 2938 2094 
Q 2938 2591 2744 2837 
Q 2550 3084 2163 3084 
Q 1697 3084 1428 2787 
Q 1159 2491 1159 1978 
L 1159 0 
L 581 0 
L 581 3500 
L 1159 3500 
L 1159 2956 
Q 1366 3272 1645 3428 
Q 1925 3584 2291 3584 
Q 2894 3584 3203 3211 
Q 3513 2838 3513 2113 
z
" id="DejaVuSans-6e" transform="scale(0.015625)"/>
       <path d="M 513 4856 
L 1013 4856 
Q 1481 4119 1714 3412 
Q 1947 2706 1947 2009 
Q 1947 1309 1714 600 
Q 1481 -109 1013 -844 
L 513 -844 
Q 928 -128 1133 580 
Q 1338 1288 1338 2009 
Q 1338 2731 1133 3434 
Q 928 4138 513 4856 
z
" id="DejaVuSans-29" transform="scale(0.015625)"/>
      </defs>
      <use xlink:href="#DejaVuSans-6c"/>
      <use x="27.783203" xlink:href="#DejaVuSans-6f"/>
      <use x="88.964844" xlink:href="#DejaVuSans-67"/>
      <use x="152.441406" xlink:href="#DejaVuSans-31"/>
      <use x="216.064453" xlink:href="#DejaVuSans-30"/>
      <use x="279.6875" xlink:href="#DejaVuSans-28"/>
      <use x="318.701172" xlink:href="#DejaVuSans-23"/>
      <use x="402.490234" xlink:href="#DejaVuSans-20"/>
      <use x="434.277344" xlink:href="#DejaVuSans-66"/>
      <use x="463.982422" xlink:href="#DejaVuSans-2d"/>
      <use x="500.066406" xlink:href="#DejaVuSans-65"/>
      <use x="561.589844" xlink:href="#DejaVuSans-76"/>
      <use x="620.769531" xlink:href="#DejaVuSans-61"/>
      <use x="682.048828" xlink:href="#DejaVuSans-6c"/>
      <use x="709.832031" xlink:href="#DejaVuSans-73"/>
      <use x="761.931641" xlink:href="#DejaVuSans-20"/>
      <use x="793.71875" xlink:href="#DejaVuSans-2f"/>
      <use x="827.410156" xlink:href="#DejaVuSans-20"/>
      <use x="859.197266" xlink:href="#DejaVuSans-64"/>
      <use x="922.673828" xlink:href="#DejaVuSans-69"/>
      <use x="950.457031" xlink:href="#DejaVuSans-6d"/>
      <use x="1047.869141" xlink:href="#DejaVuSans-65"/>
      <use x="1109.392578" xlink:href="#DejaVuSans-6e"/>
      <use x="1172.771484" xlink:href="#DejaVuSans-73"/>
      <use x="1224.871094" xlink:href="#DejaVuSans-69"/>
      <use x="1252.654297" xlink:href="#DejaVuSans-6f"/>
      <use x="1313.835938" xlink:href="#DejaVuSans-6e"/>
      <use x="1377.214844" xlink:href="#DejaVuSans-29"/>
     </g>
    </g>
   </g>
   <g id="matplotlib.axis_2">
    <g id="ytick_1">
     <g id="line2d_17">
      <path clip-path="url(#pe17b1e7052)" d="M 57.6 298.944 
L 338.688 298.944 
" style="fill:none;stroke:#b0b0b0;stroke-linecap:square;stroke-width:0.8;"/>
     </g>
     <g id="line2d_18">
      <defs>
       <path d="M 0 0 
L -3.5 0 
" id="m26e50af654" style="stroke:#000000;stroke-width:0.8;"/>
      </defs>
      <g>
       <use style="stroke:#000000;stroke-width:0.8;" x="57.6" xlink:href="#m26e50af654" y="298.944"/>
      </g>
     </g>
     <g id="text_6">
      <!-- 0.0 -->
      <g transform="translate(25.155 305.02275)scale(0.16 -0.16)">
       <defs>
        <path d="M 684 794 
L 1344 794 
L 1344 0 
L 684 0 
L 684 794 
z
" id="DejaVuSans-2e" transform="scale(0.015625)"/>
       </defs>
       <use xlink:href="#DejaVuSans-30"/>
       <use x="63.623047" xlink:href="#DejaVuSans-2e"/>
       <use x="95.410156" xlink:href="#DejaVuSans-30"/>
      </g>
     </g>
    </g>
    <g id="ytick_2">
     <g id="line2d_19">
      <path clip-path="url(#pe17b1e7052)" d="M 57.6 245.22202 
L 338.688 245.22202 
" style="fill:none;stroke:#b0b0b0;stroke-linecap:square;stroke-width:0.8;"/>
     </g>
     <g id="line2d_20">
      <g>
       <use style="stroke:#000000;stroke-width:0.8;" x="57.6" xlink:href="#m26e50af654" y="245.22202"/>
      </g>
     </g>
     <g id="text_7">
      <!-- 0.2 -->
      <g transform="translate(25.155 251.30077)scale(0.16 -0.16)">
       <use xlink:href="#DejaVuSans-30"/>
       <use x="63.623047" xlink:href="#DejaVuSans-2e"/>
       <use x="95.410156" xlink:href="#DejaVuSans-32"/>
      </g>
     </g>
    </g>
    <g id="ytick_3">
     <g id="line2d_21">
      <path clip-path="url(#pe17b1e7052)" d="M 57.6 191.50004 
L 338.688 191.50004 
" style="fill:none;stroke:#b0b0b0;stroke-linecap:square;stroke-width:0.8;"/>
     </g>
     <g id="line2d_22">
      <g>
       <use style="stroke:#000000;stroke-width:0.8;" x="57.6" xlink:href="#m26e50af654" y="191.50004"/>
      </g>
     </g>
     <g id="text_8">
      <!-- 0.4 -->
      <g transform="translate(25.155 197.57879)scale(0.16 -0.16)">
       <use xlink:href="#DejaVuSans-30"/>
       <use x="63.623047" xlink:href="#DejaVuSans-2e"/>
       <use x="95.410156" xlink:href="#DejaVuSans-34"/>
      </g>
     </g>
    </g>
    <g id="ytick_4">
     <g id="line2d_23">
      <path clip-path="url(#pe17b1e7052)" d="M 57.6 137.778059 
L 338.688 137.778059 
" style="fill:none;stroke:#b0b0b0;stroke-linecap:square;stroke-width:0.8;"/>
     </g>
     <g id="line2d_24">
      <g>
       <use style="stroke:#000000;stroke-width:0.8;" x="57.6" xlink:href="#m26e50af654" y="137.778059"/>
      </g>
     </g>
     <g id="text_9">
      <!-- 0.6 -->
      <g transform="translate(25.155 143.856809)scale(0.16 -0.16)">
       <use xlink:href="#DejaVuSans-30"/>
       <use x="63.623047" xlink:href="#DejaVuSans-2e"/>
       <use x="95.410156" xlink:href="#DejaVuSans-36"/>
      </g>
     </g>
    </g>
    <g id="ytick_5">
     <g id="line2d_25">
      <path clip-path="url(#pe17b1e7052)" d="M 57.6 84.056079 
L 338.688 84.056079 
" style="fill:none;stroke:#b0b0b0;stroke-linecap:square;stroke-width:0.8;"/>
     </g>
     <g id="line2d_26">
      <g>
       <use style="stroke:#000000;stroke-width:0.8;" x="57.6" xlink:href="#m26e50af654" y="84.056079"/>
      </g>
     </g>
     <g id="text_10">
      <!-- 0.8 -->
      <g transform="translate(25.155 90.134829)scale(0.16 -0.16)">
       <defs>
        <path d="M 2034 2216 
Q 1584 2216 1326 1975 
Q 1069 1734 1069 1313 
Q 1069 891 1326 650 
Q 1584 409 2034 409 
Q 2484 409 2743 651 
Q 3003 894 3003 1313 
Q 3003 1734 2745 1975 
Q 2488 2216 2034 2216 
z
M 1403 2484 
Q 997 2584 770 2862 
Q 544 3141 544 3541 
Q 544 4100 942 4425 
Q 1341 4750 2034 4750 
Q 2731 4750 3128 4425 
Q 3525 4100 3525 3541 
Q 3525 3141 3298 2862 
Q 3072 2584 2669 2484 
Q 3125 2378 3379 2068 
Q 3634 1759 3634 1313 
Q 3634 634 3220 271 
Q 2806 -91 2034 -91 
Q 1263 -91 848 271 
Q 434 634 434 1313 
Q 434 1759 690 2068 
Q 947 2378 1403 2484 
z
M 1172 3481 
Q 1172 3119 1398 2916 
Q 1625 2713 2034 2713 
Q 2441 2713 2670 2916 
Q 2900 3119 2900 3481 
Q 2900 3844 2670 4047 
Q 2441 4250 2034 4250 
Q 1625 4250 1398 4047 
Q 1172 3844 1172 3481 
z
" id="DejaVuSans-38" transform="scale(0.015625)"/>
       </defs>
       <use xlink:href="#DejaVuSans-30"/>
       <use x="63.623047" xlink:href="#DejaVuSans-2e"/>
       <use x="95.410156" xlink:href="#DejaVuSans-38"/>
      </g>
     </g>
    </g>
    <g id="ytick_6">
     <g id="line2d_27">
      <path clip-path="url(#pe17b1e7052)" d="M 57.6 30.334099 
L 338.688 30.334099 
" style="fill:none;stroke:#b0b0b0;stroke-linecap:square;stroke-width:0.8;"/>
     </g>
     <g id="line2d_28">
      <g>
       <use style="stroke:#000000;stroke-width:0.8;" x="57.6" xlink:href="#m26e50af654" y="30.334099"/>
      </g>
     </g>
     <g id="text_11">
      <!-- 1.0 -->
      <g transform="translate(25.155 36.412849)scale(0.16 -0.16)">
       <use xlink:href="#DejaVuSans-31"/>
       <use x="63.623047" xlink:href="#DejaVuSans-2e"/>
       <use x="95.410156" xlink:href="#DejaVuSans-30"/>
      </g>
     </g>
    </g>
    <g id="text_12">
     <!-- Fraction of function,target pairs -->
     <g transform="translate(17.619531 297.681)rotate(-90)scale(0.17 -0.17)">
      <defs>
       <path d="M 628 4666 
L 3309 4666 
L 3309 4134 
L 1259 4134 
L 1259 2759 
L 3109 2759 
L 3109 2228 
L 1259 2228 
L 1259 0 
L 628 0 
L 628 4666 
z
" id="DejaVuSans-46" transform="scale(0.015625)"/>
       <path d="M 2631 2963 
Q 2534 3019 2420 3045 
Q 2306 3072 2169 3072 
Q 1681 3072 1420 2755 
Q 1159 2438 1159 1844 
L 1159 0 
L 581 0 
L 581 3500 
L 1159 3500 
L 1159 2956 
Q 1341 3275 1631 3429 
Q 1922 3584 2338 3584 
Q 2397 3584 2469 3576 
Q 2541 3569 2628 3553 
L 2631 2963 
z
" id="DejaVuSans-72" transform="scale(0.015625)"/>
       <path d="M 3122 3366 
L 3122 2828 
Q 2878 2963 2633 3030 
Q 2388 3097 2138 3097 
Q 1578 3097 1268 2742 
Q 959 2388 959 1747 
Q 959 1106 1268 751 
Q 1578 397 2138 397 
Q 2388 397 2633 464 
Q 2878 531 3122 666 
L 3122 134 
Q 2881 22 2623 -34 
Q 2366 -91 2075 -91 
Q 1284 -91 818 406 
Q 353 903 353 1747 
Q 353 2603 823 3093 
Q 1294 3584 2113 3584 
Q 2378 3584 2631 3529 
Q 2884 3475 3122 3366 
z
" id="DejaVuSans-63" transform="scale(0.015625)"/>
       <path d="M 1172 4494 
L 1172 3500 
L 2356 3500 
L 2356 3053 
L 1172 3053 
L 1172 1153 
Q 1172 725 1289 603 
Q 1406 481 1766 481 
L 2356 481 
L 2356 0 
L 1766 0 
Q 1100 0 847 248 
Q 594 497 594 1153 
L 594 3053 
L 172 3053 
L 172 3500 
L 594 3500 
L 594 4494 
L 1172 4494 
z
" id="DejaVuSans-74" transform="scale(0.015625)"/>
       <path d="M 544 1381 
L 544 3500 
L 1119 3500 
L 1119 1403 
Q 1119 906 1312 657 
Q 1506 409 1894 409 
Q 2359 409 2629 706 
Q 2900 1003 2900 1516 
L 2900 3500 
L 3475 3500 
L 3475 0 
L 2900 0 
L 2900 538 
Q 2691 219 2414 64 
Q 2138 -91 1772 -91 
Q 1169 -91 856 284 
Q 544 659 544 1381 
z
M 1991 3584 
L 1991 3584 
z
" id="DejaVuSans-75" transform="scale(0.015625)"/>
       <path d="M 750 794 
L 1409 794 
L 1409 256 
L 897 -744 
L 494 -744 
L 750 256 
L 750 794 
z
" id="DejaVuSans-2c" transform="scale(0.015625)"/>
       <path d="M 1159 525 
L 1159 -1331 
L 581 -1331 
L 581 3500 
L 1159 3500 
L 1159 2969 
Q 1341 3281 1617 3432 
Q 1894 3584 2278 3584 
Q 2916 3584 3314 3078 
Q 3713 2572 3713 1747 
Q 3713 922 3314 415 
Q 2916 -91 2278 -91 
Q 1894 -91 1617 61 
Q 1341 213 1159 525 
z
M 3116 1747 
Q 3116 2381 2855 2742 
Q 2594 3103 2138 3103 
Q 1681 3103 1420 2742 
Q 1159 2381 1159 1747 
Q 1159 1113 1420 752 
Q 1681 391 2138 391 
Q 2594 391 2855 752 
Q 3116 1113 3116 1747 
z
" id="DejaVuSans-70" transform="scale(0.015625)"/>
      </defs>
      <use xlink:href="#DejaVuSans-46"/>
      <use x="50.269531" xlink:href="#DejaVuSans-72"/>
      <use x="91.382812" xlink:href="#DejaVuSans-61"/>
      <use x="152.662109" xlink:href="#DejaVuSans-63"/>
      <use x="207.642578" xlink:href="#DejaVuSans-74"/>
      <use x="246.851562" xlink:href="#DejaVuSans-69"/>
      <use x="274.634766" xlink:href="#DejaVuSans-6f"/>
      <use x="335.816406" xlink:href="#DejaVuSans-6e"/>
      <use x="399.195312" xlink:href="#DejaVuSans-20"/>
      <use x="430.982422" xlink:href="#DejaVuSans-6f"/>
      <use x="492.164062" xlink:href="#DejaVuSans-66"/>
      <use x="527.369141" xlink:href="#DejaVuSans-20"/>
      <use x="559.15625" xlink:href="#DejaVuSans-66"/>
      <use x="594.361328" xlink:href="#DejaVuSans-75"/>
      <use x="657.740234" xlink:href="#DejaVuSans-6e"/>
      <use x="721.119141" xlink:href="#DejaVuSans-63"/>
      <use x="776.099609" xlink:href="#DejaVuSans-74"/>
      <use x="815.308594" xlink:href="#DejaVuSans-69"/>
      <use x="843.091797" xlink:href="#DejaVuSans-6f"/>
      <use x="904.273438" xlink:href="#DejaVuSans-6e"/>
      <use x="967.652344" xlink:href="#DejaVuSans-2c"/>
      <use x="999.439453" xlink:href="#DejaVuSans-74"/>
      <use x="1038.648438" xlink:href="#DejaVuSans-61"/>
      <use x="1099.927734" xlink:href="#DejaVuSans-72"/>
      <use x="1139.291016" xlink:href="#DejaVuSans-67"/>
      <use x="1202.767578" xlink:href="#DejaVuSans-65"/>
      <use x="1264.291016" xlink:href="#DejaVuSans-74"/>
      <use x="1303.5" xlink:href="#DejaVuSans-20"/>
      <use x="1335.287109" xlink:href="#DejaVuSans-70"/>
      <use x="1398.763672" xlink:href="#DejaVuSans-61"/>
      <use x="1460.042969" xlink:href="#DejaVuSans-69"/>
      <use x="1487.826172" xlink:href="#DejaVuSans-72"/>
      <use x="1528.939453" xlink:href="#DejaVuSans-73"/>
     </g>
    </g>
   </g>
   <g id="line2d_29">
    <defs>
     <path d="M 0 1.5 
C 0.397805 1.5 0.77937 1.341951 1.06066 1.06066 
C 1.341951 0.77937 1.5 0.397805 1.5 0 
C 1.5 -0.397805 1.341951 -0.77937 1.06066 -1.06066 
C 0.77937 -1.341951 0.397805 -1.5 0 -1.5 
C -0.397805 -1.5 -0.77937 -1.341951 -1.06066 -1.06066 
C -1.341951 -0.77937 -1.5 -0.397805 -1.5 0 
C -1.5 0.397805 -1.341951 0.77937 -1.06066 1.06066 
C -0.77937 1.341951 -0.397805 1.5 0 1.5 
z
" id="m27c7492f4a" style="stroke:#00bfbf;"/>
    </defs>
    <g>
     <use style="fill:#00bfbf;stroke:#00bfbf;" x="185.838047" xlink:href="#m27c7492f4a" y="30.334099"/>
     <use style="fill:#00bfbf;stroke:#00bfbf;" x="185.838047" xlink:href="#m27c7492f4a" y="30.334099"/>
    </g>
   </g>
   <g id="line2d_30">
    <path d="M 45.512012 298.944 
L 45.512012 289.463651 
L 57.6 289.463651 
L 57.6 287.356906 
L 64.67102 287.356906 
L 64.67102 281.563359 
L 69.687988 281.563359 
L 69.687988 278.929929 
L 81.775977 278.929929 
L 81.775977 277.349871 
L 83.830028 277.349871 
L 83.830028 274.189754 
L 85.66744 274.189754 
L 85.66744 273.663068 
L 87.329581 273.663068 
L 87.329581 272.08301 
L 88.846997 272.08301 
L 88.846997 271.556324 
L 90.242884 271.556324 
L 90.242884 271.029638 
L 92.73846 271.029638 
L 92.73846 269.976266 
L 93.863965 269.976266 
L 93.863965 269.449579 
L 95.918017 269.449579 
L 95.918017 266.289463 
L 96.86091 266.289463 
L 96.86091 264.709405 
L 98.606294 264.709405 
L 98.606294 264.182719 
L 100.934985 264.182719 
L 100.934985 263.129347 
L 102.330873 263.129347 
L 102.330873 261.549288 
L 103.623262 261.549288 
L 103.623262 259.442544 
L 104.826449 259.442544 
L 104.826449 257.3358 
L 105.398279 257.3358 
L 105.398279 255.229055 
L 107.009204 255.229055 
L 107.009204 254.702369 
L 108.483824 254.702369 
L 108.483824 254.175683 
L 110.694282 254.175683 
L 110.694282 252.595625 
L 111.104637 252.595625 
L 111.104637 252.068939 
L 111.505558 252.068939 
L 111.505558 249.962195 
L 113.022974 249.962195 
L 113.022974 249.435508 
L 116.323218 249.435508 
L 116.323218 248.908822 
L 117.765302 248.908822 
L 117.765302 248.382136 
L 119.097192 248.382136 
L 119.097192 247.85545 
L 119.351785 247.85545 
L 119.351785 246.275392 
L 119.850084 246.275392 
L 119.850084 245.748706 
L 121.264855 245.748706 
L 121.264855 245.22202 
L 122.573415 245.22202 
L 122.573415 244.695334 
L 122.782271 244.695334 
L 122.782271 244.168648 
L 124.368753 244.168648 
L 124.368753 243.115275 
L 125.996395 243.115275 
L 125.996395 241.535217 
L 126.338353 241.535217 
L 126.338353 241.008531 
L 126.839037 241.008531 
L 126.839037 239.955159 
L 128.856489 239.955159 
L 128.856489 238.901787 
L 130.127931 238.901787 
L 130.127931 238.375101 
L 131.185181 238.375101 
L 131.185181 237.848415 
L 131.439773 237.848415 
L 131.439773 237.321729 
L 131.565689 237.321729 
L 131.565689 236.795043 
L 132.060454 236.795043 
L 132.060454 235.74167 
L 136.361705 235.74167 
L 136.361705 234.688298 
L 136.738785 234.688298 
L 136.738785 234.161612 
L 137.198951 234.161612 
L 137.198951 233.634926 
L 138.256201 233.634926 
L 138.256201 233.10824 
L 138.426341 233.10824 
L 138.426341 231.528182 
L 139.493548 231.528182 
L 139.493548 231.001496 
L 139.652088 231.001496 
L 139.652088 228.894751 
L 140.79731 228.894751 
L 140.79731 227.841379 
L 141.378673 227.841379 
L 141.378673 227.314693 
L 141.591783 227.314693 
L 141.591783 226.788007 
L 142.283909 226.788007 
L 142.283909 225.734635 
L 142.553247 225.734635 
L 142.553247 224.681263 
L 142.818488 224.681263 
L 142.818488 223.627891 
L 143.653678 223.627891 
L 143.653678 220.467774 
L 144.806606 220.467774 
L 144.806606 219.941088 
L 144.981877 219.941088 
L 144.981877 219.414402 
L 145.097753 219.414402 
L 145.097753 217.834344 
L 145.888018 217.834344 
L 145.888018 215.727599 
L 146.161795 215.727599 
L 146.161795 215.200913 
L 146.484754 215.200913 
L 146.484754 214.674227 
L 147.818997 214.674227 
L 147.818997 213.620855 
L 148.258051 213.620855 
L 148.258051 213.094169 
L 148.40198 213.094169 
L 148.40198 212.567483 
L 149.557321 212.567483 
L 149.557321 210.987425 
L 150.932558 210.987425 
L 150.932558 210.460738 
L 151.219462 210.460738 
L 151.219462 207.827308 
L 152.130233 207.827308 
L 152.130233 206.773936 
L 153.105587 206.773936 
L 153.214697 205.193878 
L 154.405793 205.193878 
L 154.405793 204.667192 
L 154.840544 204.667192 
L 154.840544 203.613819 
L 154.972161 203.613819 
L 154.972161 202.560447 
L 156.114049 202.560447 
L 156.114049 201.507075 
L 156.448553 201.507075 
L 156.448553 199.927017 
L 158.086033 199.927017 
L 158.086033 197.293586 
L 158.942121 197.293586 
L 158.942121 196.240214 
L 160.176607 196.240214 
L 160.176607 195.186842 
L 160.442124 195.186842 
L 160.442124 194.660156 
L 161.64531 194.660156 
L 161.64531 193.080098 
L 162.389382 193.080098 
L 162.410793 183.599748 
L 162.62347 183.599748 
L 162.62347 182.01969 
L 162.770815 182.01969 
L 162.770815 171.485969 
L 163.748975 171.485969 
L 163.748975 162.532305 
L 164.86209 162.532305 
L 164.86209 154.105328 
L 165.248216 154.105328 
L 165.302685 139.358118 
L 165.518877 139.358118 
L 165.518877 138.831432 
L 165.820633 138.831432 
L 165.855793 129.351082 
L 165.995728 129.351082 
L 165.995728 123.557535 
L 166.34073 123.557535 
L 166.34073 123.030849 
L 166.795913 123.030849 
L 166.795913 115.657244 
L 167.06015 115.657244 
L 167.06015 106.703581 
L 167.400994 106.703581 
L 167.400994 106.176895 
L 167.84533 106.176895 
L 167.84533 105.650209 
L 168.078792 105.650209 
L 168.171308 101.963406 
L 168.324419 101.963406 
L 168.324419 100.910034 
L 168.686493 100.910034 
L 168.686493 100.383348 
L 169.011918 100.383348 
L 169.011918 91.95637 
L 169.143315 91.95637 
L 169.143315 90.376312 
L 169.345764 90.376312 
L 169.345764 83.002707 
L 169.460402 83.002707 
L 169.460402 81.949335 
L 169.799863 81.949335 
L 169.799863 80.369277 
L 170.022555 80.369277 
L 170.077786 63.515322 
L 170.14658 63.515322 
L 170.14658 61.935264 
L 170.310587 61.935264 
L 170.310587 61.408578 
L 171.314944 61.408578 
L 171.314944 60.881892 
L 171.442893 60.881892 
L 171.442893 59.82852 
L 172.019658 59.82852 
L 172.019658 59.301833 
L 172.349517 59.301833 
L 172.434028 56.141717 
L 172.60183 56.141717 
L 172.696997 53.508287 
L 172.815229 53.508287 
L 172.815229 52.454914 
L 173.00275 52.454914 
L 173.00275 51.928228 
L 173.822502 51.928228 
L 173.822502 51.401542 
L 174.240098 51.401542 
L 174.240098 50.874856 
L 174.658532 50.874856 
L 174.658532 50.34817 
L 175.965303 50.34817 
L 176.043814 48.241426 
L 176.517133 48.241426 
L 176.517133 47.188054 
L 177.199282 47.188054 
L 177.281564 46.134681 
L 177.785001 46.134681 
L 177.785001 45.607995 
L 178.522409 45.607995 
L 178.624047 37.181018 
L 179.041275 37.181018 
L 179.041275 36.654332 
L 179.286902 36.654332 
L 179.286902 36.127646 
L 179.456806 36.127646 
L 179.456806 35.60096 
L 180.089306 35.60096 
L 180.143574 34.547588 
L 180.518792 34.547588 
L 180.518792 34.020902 
L 181.462482 34.020902 
L 181.462482 32.440843 
L 182.062072 32.440843 
L 182.062072 31.387471 
L 184.230545 31.387471 
L 184.230545 30.860785 
L 185.838047 30.860785 
L 185.838047 30.334099 
L 338.688 30.334099 
L 338.688 30.334099 
" style="fill:none;stroke:#00bfbf;stroke-linecap:square;stroke-width:1.5;"/>
   </g>
   <g id="line2d_31">
    <defs>
     <path d="M -6 0 
L 6 0 
M 0 6 
L 0 -6 
" id="maf878c750e" style="stroke:#00bfbf;stroke-width:1.5;"/>
    </defs>
    <g>
     <use style="fill-opacity:0;stroke:#00bfbf;stroke-width:1.5;" x="122.782271" xlink:href="#maf878c750e" y="244.695334"/>
     <use style="fill-opacity:0;stroke:#00bfbf;stroke-width:1.5;" x="164.86209" xlink:href="#maf878c750e" y="154.105328"/>
     <use style="fill-opacity:0;stroke:#00bfbf;stroke-width:1.5;" x="185.838047" xlink:href="#maf878c750e" y="30.860785"/>
     <use style="fill-opacity:0;stroke:#00bfbf;stroke-width:1.5;" x="185.838047" xlink:href="#maf878c750e" y="30.334099"/>
     <use style="fill-opacity:0;stroke:#00bfbf;stroke-width:1.5;" x="185.838047" xlink:href="#maf878c750e" y="30.334099"/>
     <use style="fill-opacity:0;stroke:#00bfbf;stroke-width:1.5;" x="338.688" xlink:href="#maf878c750e" y="30.334099"/>
    </g>
   </g>
   <g id="line2d_32">
    <path style="fill:none;stroke:#00bfbf;stroke-linecap:square;stroke-width:1.5;"/>
    <g/>
   </g>
   <g id="line2d_33">
    <defs>
     <path d="M 0 1.5 
C 0.397805 1.5 0.77937 1.341951 1.06066 1.06066 
C 1.341951 0.77937 1.5 0.397805 1.5 0 
C 1.5 -0.397805 1.341951 -0.77937 1.06066 -1.06066 
C 0.77937 -1.341951 0.397805 -1.5 0 -1.5 
C -0.397805 -1.5 -0.77937 -1.341951 -1.06066 -1.06066 
C -1.341951 -0.77937 -1.5 -0.397805 -1.5 0 
C -1.5 0.397805 -1.341951 0.77937 -1.06066 1.06066 
C -0.77937 1.341951 -0.397805 1.5 0 1.5 
z
" id="m660d3e9ec4" style="stroke:#008000;"/>
    </defs>
    <g>
     <use style="fill:#008000;stroke:#008000;" x="239.591495" xlink:href="#m660d3e9ec4" y="30.334099"/>
     <use style="fill:#008000;stroke:#008000;" x="239.591495" xlink:href="#m660d3e9ec4" y="30.334099"/>
    </g>
   </g>
   <g id="line2d_34">
    <path d="M 50.52898 298.944 
L 50.52898 294.730511 
L 57.6 294.730511 
L 57.6 289.990337 
L 62.616969 289.990337 
L 62.616969 288.936964 
L 66.508432 288.936964 
L 66.508432 288.410278 
L 72.376266 288.410278 
L 72.376266 287.356906 
L 74.704957 287.356906 
L 74.704957 286.83022 
L 83.171864 286.83022 
L 83.171864 286.303534 
L 84.464254 286.303534 
L 84.464254 284.19679 
L 88.846997 284.19679 
L 88.846997 282.090045 
L 92.34655 282.090045 
L 92.34655 279.983301 
L 93.121756 279.983301 
L 93.121756 277.876557 
L 95.259853 277.876557 
L 95.259853 277.349871 
L 95.918017 277.349871 
L 95.918017 276.296499 
L 100.934985 276.296499 
L 100.934985 275.243126 
L 102.772397 275.243126 
L 102.772397 272.609696 
L 103.203018 272.609696 
L 103.203018 270.502952 
L 103.623262 270.502952 
L 103.623262 269.976266 
L 104.826449 269.976266 
L 104.826449 267.869521 
L 107.680028 267.869521 
L 107.680028 266.816149 
L 108.640231 266.816149 
L 108.640231 265.762777 
L 110.968922 265.762777 
L 110.968922 264.709405 
L 111.505558 264.709405 
L 111.505558 264.182719 
L 114.860386 264.182719 
L 114.860386 263.656033 
L 115.077025 263.656033 
L 115.077025 263.129347 
L 115.291007 263.129347 
L 115.291007 262.075974 
L 115.502395 262.075974 
L 115.502395 260.495916 
L 116.121606 260.495916 
L 116.121606 259.96923 
L 116.323218 259.96923 
L 116.323218 258.389172 
L 116.719583 258.389172 
L 116.719583 257.862486 
L 119.602714 257.862486 
L 119.602714 256.282427 
L 121.638301 256.282427 
L 121.638301 255.755741 
L 121.785469 255.755741 
L 121.785469 255.229055 
L 121.931406 255.229055 
L 121.931406 254.702369 
L 122.076131 254.702369 
L 122.076131 254.175683 
L 122.219665 254.175683 
L 122.219665 253.648997 
L 122.503236 253.648997 
L 122.503236 253.122311 
L 125.822869 253.122311 
L 125.822869 252.595625 
L 126.729009 252.595625 
L 126.839037 250.488881 
L 127.378995 250.488881 
L 127.378995 249.962195 
L 128.411207 249.962195 
L 128.411207 248.382136 
L 128.905271 248.382136 
L 128.905271 247.328764 
L 129.290685 247.328764 
L 129.290685 246.802078 
L 130.487516 246.802078 
L 130.487516 246.275392 
L 131.185181 246.275392 
L 131.185181 245.22202 
L 131.439773 245.22202 
L 131.439773 244.695334 
L 131.690703 244.695334 
L 131.690703 244.168648 
L 132.342714 244.168648 
L 132.342714 243.641962 
L 132.893889 243.641962 
L 132.893889 243.115275 
L 136.955041 243.115275 
L 137.016339 241.535217 
L 137.138292 241.535217 
L 137.138292 241.008531 
L 137.319638 241.008531 
L 137.319638 240.481845 
L 137.439497 240.481845 
L 137.439497 239.955159 
L 138.199116 239.955159 
L 138.199116 239.428473 
L 139.199094 239.428473 
L 139.199094 238.901787 
L 139.413734 238.901787 
L 139.413734 238.375101 
L 142.07914 238.375101 
L 142.07914 237.848415 
L 142.215919 237.848415 
L 142.215919 236.268356 
L 143.737119 236.268356 
L 143.820164 234.161612 
L 146.573414 234.161612 
L 146.573414 233.634926 
L 147.50327 233.634926 
L 147.50327 233.10824 
L 149.165411 233.10824 
L 149.165411 232.054868 
L 149.347388 232.054868 
L 149.347388 231.528182 
L 149.587107 231.528182 
L 149.587107 231.001496 
L 149.911431 231.001496 
L 149.998846 228.894751 
L 150.738632 228.894751 
L 150.766468 227.841379 
L 151.015013 227.841379 
L 151.097081 225.207949 
L 151.501723 225.207949 
L 151.501723 224.154577 
L 152.360205 224.154577 
L 152.360205 223.627891 
L 154.417077 223.627891 
L 154.484627 222.574518 
L 155.573575 222.574518 
L 155.573575 222.047832 
L 155.825108 222.047832 
L 155.928852 220.99446 
L 156.398281 220.99446 
L 156.398281 220.467774 
L 156.737306 220.467774 
L 156.757045 219.414402 
L 156.875011 219.414402 
L 156.875011 218.36103 
L 157.396202 218.36103 
L 157.396202 217.307658 
L 157.604152 217.307658 
L 157.604152 216.254285 
L 158.122556 216.254285 
L 158.122556 205.720564 
L 158.69674 205.720564 
L 158.784773 203.087133 
L 159.26971 203.087133 
L 159.26971 202.560447 
L 160.02188 202.560447 
L 160.02188 202.033761 
L 160.200913 202.033761 
L 160.200913 201.507075 
L 160.346039 201.507075 
L 160.394148 199.400331 
L 160.632719 199.400331 
L 160.648508 187.286551 
L 161.069504 187.286551 
L 161.069504 179.38626 
L 161.999419 179.38626 
L 161.999419 170.432596 
L 162.700806 170.432596 
L 162.700806 168.852538 
L 163.048075 168.852538 
L 163.089286 159.898875 
L 163.709295 159.898875 
L 163.709295 159.372189 
L 163.867476 159.372189 
L 163.867476 158.845503 
L 165.108238 158.845503 
L 165.108238 157.79213 
L 165.494988 157.79213 
L 165.494988 156.738758 
L 165.791279 156.738758 
L 165.791279 155.685386 
L 166.140309 155.685386 
L 166.140309 155.1587 
L 166.851294 155.1587 
L 166.851294 154.632014 
L 166.972515 154.632014 
L 166.972515 153.578642 
L 167.266534 153.578642 
L 167.266534 153.051956 
L 167.619287 153.051956 
L 167.619287 151.998584 
L 167.996141 151.998584 
L 167.996141 151.471897 
L 168.70639 151.471897 
L 168.70639 149.365153 
L 169.379278 149.365153 
L 169.379278 148.838467 
L 169.645097 148.838467 
L 169.645097 148.311781 
L 169.888352 148.311781 
L 169.888352 138.831432 
L 170.109924 138.831432 
L 170.210544 128.824396 
L 170.41006 128.824396 
L 170.41006 128.29771 
L 170.553741 128.29771 
L 170.553741 127.244338 
L 170.669617 127.244338 
L 170.669617 119.870733 
L 170.977818 119.870733 
L 170.977818 119.344047 
L 171.340609 119.344047 
L 171.374771 117.763988 
L 171.762889 117.763988 
L 171.871027 106.703581 
L 171.920711 106.703581 
L 171.920711 105.650209 
L 172.06072 105.650209 
L 172.142557 104.07015 
L 172.369676 104.07015 
L 172.385786 96.169859 
L 172.689086 96.169859 
L 172.689086 95.116487 
L 173.033809 95.116487 
L 173.049317 94.063115 
L 173.591119 94.063115 
L 173.666095 86.68951 
L 174.40581 86.68951 
L 174.40581 84.582765 
L 174.534408 84.582765 
L 174.534408 72.995672 
L 174.725545 72.995672 
L 174.725545 70.888927 
L 174.844824 70.888927 
L 174.844824 70.362241 
L 175.039523 70.362241 
L 175.039523 69.835555 
L 175.279879 69.835555 
L 175.279879 69.308869 
L 175.657689 69.308869 
L 175.730949 66.675439 
L 176.267585 66.675439 
L 176.357578 65.622066 
L 176.906643 65.622066 
L 176.906643 65.09538 
L 177.165647 65.09538 
L 177.165647 64.042008 
L 177.311941 64.042008 
L 177.311941 63.515322 
L 177.672393 63.515322 
L 177.672393 62.988636 
L 177.832198 62.988636 
L 177.832198 62.46195 
L 178.354545 62.46195 
L 178.354545 61.935264 
L 179.262495 61.935264 
L 179.262495 52.9816 
L 179.749552 52.9816 
L 179.749552 46.134681 
L 180.16678 46.134681 
L 180.16678 44.554623 
L 181.299048 44.554623 
L 181.299048 44.027937 
L 182.88154 44.027937 
L 182.951967 41.921193 
L 184.765201 41.921193 
L 184.765201 41.394507 
L 227.511357 41.394507 
L 227.541701 38.761076 
L 227.640211 38.761076 
L 227.73143 37.707704 
L 227.772827 37.707704 
L 227.869041 34.020902 
L 227.964395 34.020902 
L 227.964395 33.494215 
L 228.216259 33.494215 
L 228.246057 30.860785 
L 239.591495 30.860785 
L 239.591495 30.334099 
L 338.688 30.334099 
L 338.688 30.334099 
" style="fill:none;stroke:#008000;stroke-linecap:square;stroke-width:1.5;"/>
   </g>
   <g id="line2d_35">
    <defs>
     <path d="M -0 6 
L 6 -6 
L -6 -6 
z
" id="mbba04ebaeb" style="stroke:#008000;stroke-linejoin:miter;stroke-width:1.5;"/>
    </defs>
    <g>
     <use style="fill-opacity:0;stroke:#008000;stroke-linejoin:miter;stroke-width:1.5;" x="116.121606" xlink:href="#mbba04ebaeb" y="259.96923"/>
     <use style="fill-opacity:0;stroke:#008000;stroke-linejoin:miter;stroke-width:1.5;" x="165.494988" xlink:href="#mbba04ebaeb" y="156.738758"/>
     <use style="fill-opacity:0;stroke:#008000;stroke-linejoin:miter;stroke-width:1.5;" x="184.765201" xlink:href="#mbba04ebaeb" y="41.394507"/>
     <use style="fill-opacity:0;stroke:#008000;stroke-linejoin:miter;stroke-width:1.5;" x="239.591495" xlink:href="#mbba04ebaeb" y="30.860785"/>
     <use style="fill-opacity:0;stroke:#008000;stroke-linejoin:miter;stroke-width:1.5;" x="239.591495" xlink:href="#mbba04ebaeb" y="30.334099"/>
     <use style="fill-opacity:0;stroke:#008000;stroke-linejoin:miter;stroke-width:1.5;" x="338.688" xlink:href="#mbba04ebaeb" y="30.334099"/>
    </g>
   </g>
   <g id="line2d_36">
    <path style="fill:none;stroke:#008000;stroke-linecap:square;stroke-width:1.5;"/>
    <g/>
   </g>
   <g id="line2d_37">
    <path clip-path="url(#pe17b1e7052)" d="M 227.130146 41.394507 
" style="fill:none;stroke:#008000;stroke-linecap:square;stroke-width:1.5;"/>
    <defs>
     <path d="M -12 12 
L 12 -12 
M -12 -12 
L 12 12 
" id="m59ca21669f" style="stroke:#008000;"/>
    </defs>
    <g clip-path="url(#pe17b1e7052)">
     <use style="fill:#008000;stroke:#008000;" x="227.130146" xlink:href="#m59ca21669f" y="41.394507"/>
    </g>
   </g>
   <g id="line2d_38">
    <defs>
     <path d="M 0 1.5 
C 0.397805 1.5 0.77937 1.341951 1.06066 1.06066 
C 1.341951 0.77937 1.5 0.397805 1.5 0 
C 1.5 -0.397805 1.341951 -0.77937 1.06066 -1.06066 
C 0.77937 -1.341951 0.397805 -1.5 0 -1.5 
C -0.397805 -1.5 -0.77937 -1.341951 -1.06066 -1.06066 
C -1.341951 -0.77937 -1.5 -0.397805 -1.5 0 
C -1.5 0.397805 -1.341951 0.77937 -1.06066 1.06066 
C -0.77937 1.341951 -0.397805 1.5 0 1.5 
z
" id="m033cd19ed9" style="stroke:#0000ff;"/>
    </defs>
    <g>
     <use style="fill:#0000ff;stroke:#0000ff;" x="246.416206" xlink:href="#m033cd19ed9" y="30.334099"/>
     <use style="fill:#0000ff;stroke:#0000ff;" x="246.416206" xlink:href="#m033cd19ed9" y="30.334099"/>
    </g>
   </g>
   <g id="line2d_39">
    <path d="M 41.620548 298.944 
L 41.620548 298.417314 
L 48.691568 298.417314 
L 48.691568 297.363942 
L 53.708537 297.363942 
L 53.708537 296.31057 
L 57.6 296.31057 
L 57.6 294.203825 
L 65.796525 294.203825 
L 65.796525 293.677139 
L 69.687988 293.677139 
L 69.687988 292.623767 
L 75.555822 292.623767 
L 75.555822 291.043709 
L 77.884514 291.043709 
L 77.884514 290.517023 
L 84.213325 290.517023 
L 84.213325 289.990337 
L 90.509138 289.990337 
L 90.509138 288.410278 
L 91.535274 288.410278 
L 91.535274 287.883592 
L 92.026554 287.883592 
L 92.026554 287.356906 
L 92.969447 287.356906 
L 92.969447 285.776848 
L 96.676366 285.776848 
L 96.676366 284.723476 
L 97.403108 284.723476 
L 97.403108 284.19679 
L 98.100772 284.19679 
L 98.100772 283.143418 
L 98.43941 283.143418 
L 98.43941 281.563359 
L 99.731799 281.563359 
L 99.731799 281.036673 
L 100.641881 281.036673 
L 100.641881 280.509987 
L 101.223245 280.509987 
L 101.223245 279.983301 
L 102.859376 279.983301 
L 102.859376 278.929929 
L 103.870632 278.929929 
L 103.870632 278.403243 
L 104.355088 278.403243 
L 104.355088 277.876557 
L 104.592361 277.876557 
L 104.592361 277.349871 
L 105.057436 277.349871 
L 105.057436 276.823185 
L 106.802819 276.823185 
L 106.802819 275.769812 
L 107.414787 275.769812 
L 107.414787 275.243126 
L 108.006005 275.243126 
L 108.006005 274.71644 
L 109.491096 274.71644 
L 109.491096 274.189754 
L 112.280765 274.189754 
L 112.280765 273.663068 
L 113.311233 273.663068 
L 113.311233 273.136382 
L 114.947365 273.136382 
L 114.947365 272.609696 
L 116.680349 272.609696 
L 116.680349 272.08301 
L 119.502775 272.08301 
L 119.602714 270.502952 
L 119.702083 270.502952 
L 119.702083 269.976266 
L 120.665825 269.976266 
L 120.665825 269.449579 
L 121.128432 269.449579 
L 121.128432 268.396207 
L 122.947573 268.396207 
L 122.947573 267.869521 
L 123.111324 267.869521 
L 123.111324 267.342835 
L 125.255688 267.342835 
L 125.255688 266.816149 
L 125.470548 266.816149 
L 125.470548 266.289463 
L 125.752972 266.289463 
L 125.752972 264.182719 
L 126.372183 264.182719 
L 126.372183 263.656033 
L 128.107907 263.656033 
L 128.107907 263.129347 
L 129.963666 263.129347 
L 130.073348 262.075974 
L 130.822389 262.075974 
L 130.874681 259.442544 
L 132.084827 259.442544 
L 132.084827 258.389172 
L 134.321942 258.389172 
L 134.321942 257.862486 
L 136.607732 257.862486 
L 136.607732 256.809114 
L 137.343676 256.809114 
L 137.343676 256.282427 
L 137.664982 256.282427 
L 137.664982 255.755741 
L 138.861092 255.755741 
L 138.861092 255.229055 
L 139.349619 255.229055 
L 139.349619 254.702369 
L 139.636299 254.702369 
L 139.636299 254.175683 
L 140.287441 254.175683 
L 140.287441 253.648997 
L 140.856326 253.648997 
L 140.856326 253.122311 
L 142.133981 253.122311 
L 142.133981 252.068939 
L 142.884173 252.068939 
L 142.884173 251.015567 
L 143.502469 251.015567 
L 143.502469 250.488881 
L 144.001481 250.488881 
L 144.001481 249.962195 
L 144.294175 249.962195 
L 144.294175 248.908822 
L 144.462672 248.908822 
L 144.462672 247.85545 
L 144.93531 247.85545 
L 144.93531 247.328764 
L 145.508645 247.328764 
L 145.508645 245.748706 
L 146.06373 245.748706 
L 146.06373 245.22202 
L 147.848613 245.22202 
L 147.848613 244.695334 
L 148.639252 244.695334 
L 148.639252 242.061903 
L 148.993835 242.061903 
L 148.993835 241.535217 
L 149.575199 241.535217 
L 149.575199 241.008531 
L 149.699829 241.008531 
L 149.699829 240.481845 
L 153.265382 240.481845 
L 153.265382 238.901787 
L 153.566437 238.901787 
L 153.566437 238.375101 
L 153.792374 238.375101 
L 153.806399 237.321729 
L 154.070741 237.321729 
L 154.167129 235.74167 
L 155.527065 235.74167 
L 155.527065 235.214984 
L 156.357959 235.214984 
L 156.357959 234.688298 
L 157.069866 234.688298 
L 157.069866 234.161612 
L 157.742664 234.161612 
L 157.742664 233.634926 
L 158.217157 233.634926 
L 158.217157 233.10824 
L 158.625992 233.10824 
L 158.625992 232.581554 
L 159.232092 232.581554 
L 159.334496 231.528182 
L 160.518612 231.528182 
L 160.518612 223.627891 
L 160.802491 223.627891 
L 160.802491 222.574518 
L 161.893939 222.574518 
L 161.893939 222.047832 
L 162.078112 222.047832 
L 162.078112 221.521146 
L 162.199823 221.521146 
L 162.251725 220.467774 
L 162.320689 220.467774 
L 162.346481 218.36103 
L 162.762429 218.36103 
L 162.762429 217.834344 
L 162.987455 217.834344 
L 163.070067 216.254285 
L 163.17688 216.254285 
L 163.17688 215.727599 
L 164.37952 215.727599 
L 164.37952 215.200913 
L 164.645079 215.200913 
L 164.645079 213.094169 
L 165.164364 213.094169 
L 165.164364 212.567483 
L 165.547501 212.567483 
L 165.547501 212.040797 
L 165.682828 212.040797 
L 165.682828 211.514111 
L 165.992243 211.514111 
L 165.992243 209.407366 
L 166.954935 209.407366 
L 166.954935 208.88068 
L 167.229781 208.88068 
L 167.229781 208.353994 
L 167.716371 208.353994 
L 167.716371 207.300622 
L 168.578658 207.300622 
L 168.578658 206.24725 
L 169.520287 206.24725 
L 169.520287 205.720564 
L 169.740933 205.720564 
L 169.740933 205.193878 
L 170.091567 205.193878 
L 170.091567 204.140506 
L 170.28336 204.140506 
L 170.28336 203.613819 
L 170.435289 203.613819 
L 170.537636 202.560447 
L 171.386711 202.560447 
L 171.478551 201.507075 
L 171.970255 201.507075 
L 171.970255 200.980389 
L 173.330714 200.980389 
L 173.330714 200.453703 
L 173.467457 200.453703 
L 173.467457 199.927017 
L 173.777957 199.927017 
L 173.777957 199.400331 
L 174.528713 199.400331 
L 174.528713 192.553412 
L 175.264868 192.553412 
L 175.264868 192.026726 
L 175.765475 192.026726 
L 175.765475 191.50004 
L 176.543796 191.50004 
L 176.543796 190.973354 
L 176.695377 190.973354 
L 176.695377 189.393295 
L 177.288859 189.393295 
L 177.288859 188.866609 
L 177.43051 188.866609 
L 177.43051 187.813237 
L 177.563841 187.813237 
L 177.563841 187.286551 
L 177.742414 187.286551 
L 177.742414 186.233179 
L 178.094166 186.233179 
L 178.201784 175.699457 
L 179.079163 175.699457 
L 179.079163 174.119399 
L 179.597938 174.119399 
L 179.597938 173.066027 
L 180.308438 173.066027 
L 180.308438 172.539341 
L 180.470239 172.539341 
L 180.470239 172.012655 
L 181.213841 172.012655 
L 181.295184 170.959282 
L 182.849756 170.959282 
L 182.950209 164.112363 
L 183.604663 164.112363 
L 183.604663 162.532305 
L 183.914178 162.532305 
L 183.914178 162.005619 
L 184.739845 162.005619 
L 184.813434 156.738758 
L 185.09307 156.738758 
L 185.09307 154.105328 
L 185.230068 154.105328 
L 185.32234 133.564571 
L 185.473528 133.564571 
L 185.473528 133.037885 
L 185.763059 133.037885 
L 185.763059 132.511199 
L 186.045654 132.511199 
L 186.045654 131.457826 
L 186.416902 131.457826 
L 186.416902 120.397419 
L 186.612428 120.397419 
L 186.612428 114.077186 
L 187.028348 114.077186 
L 187.121979 111.443755 
L 187.155149 111.443755 
L 187.155149 110.917069 
L 187.283092 110.917069 
L 187.283092 110.390383 
L 187.446803 110.390383 
L 187.446803 109.863697 
L 187.608993 109.863697 
L 187.608993 108.810325 
L 191.363505 108.810325 
L 191.439811 107.756953 
L 191.475415 107.756953 
L 191.475415 107.230267 
L 218.637357 107.230267 
L 218.637357 106.703581 
L 218.757166 106.703581 
L 218.847916 104.07015 
L 218.914748 104.07015 
L 219.006017 101.43672 
L 219.061282 101.43672 
L 219.159394 99.329976 
L 219.303567 99.329976 
L 219.303567 98.803289 
L 219.502715 98.803289 
L 219.590321 94.589801 
L 219.827006 94.589801 
L 219.891464 90.902998 
L 219.978405 90.902998 
L 220.02879 89.849626 
L 220.194659 89.849626 
L 220.280106 88.269568 
L 220.377161 88.269568 
L 220.466627 85.109451 
L 220.60773 85.109451 
L 220.685429 71.415613 
L 220.741967 71.415613 
L 220.831387 64.042008 
L 220.858694 64.042008 
L 220.917663 61.408578 
L 220.97822 61.408578 
L 220.97822 60.881892 
L 230.605051 60.881892 
L 230.660175 58.775147 
L 230.740664 58.775147 
L 230.740664 57.721775 
L 231.164554 57.721775 
L 231.210158 54.561659 
L 231.324061 54.561659 
L 231.420706 52.454914 
L 231.468257 52.454914 
L 231.543485 49.294798 
L 231.580168 49.294798 
L 231.677987 44.554623 
L 231.716962 44.554623 
L 231.755208 43.501251 
L 237.690239 43.501251 
L 237.698917 41.921193 
L 237.928009 41.921193 
L 237.955254 40.867821 
L 238.066604 40.867821 
L 238.129199 39.814448 
L 238.212865 39.814448 
L 238.304735 33.494215 
L 238.339983 33.494215 
L 238.339983 32.967529 
L 242.534315 32.967529 
L 242.534315 32.440843 
L 242.971997 32.440843 
L 243.046087 31.387471 
L 243.09525 31.387471 
L 243.09525 30.860785 
L 246.416206 30.860785 
L 246.416206 30.334099 
L 338.688 30.334099 
L 338.688 30.334099 
" style="fill:none;stroke:#0000ff;stroke-linecap:square;stroke-width:1.5;"/>
   </g>
   <g id="line2d_40">
    <defs>
     <path d="M 0 -6 
L -1.347084 -1.854102 
L -5.706339 -1.854102 
L -2.179628 0.708204 
L -3.526712 4.854102 
L -0 2.291796 
L 3.526712 4.854102 
L 2.179628 0.708204 
L 5.706339 -1.854102 
L 1.347084 -1.854102 
z
" id="m6928703c3c" style="stroke:#0000ff;stroke-linejoin:bevel;stroke-width:1.5;"/>
    </defs>
    <g>
     <use style="fill-opacity:0;stroke:#0000ff;stroke-linejoin:bevel;stroke-width:1.5;" x="157.742664" xlink:href="#m6928703c3c" y="234.161612"/>
     <use style="fill-opacity:0;stroke:#0000ff;stroke-linejoin:bevel;stroke-width:1.5;" x="185.09307" xlink:href="#m6928703c3c" y="154.105328"/>
     <use style="fill-opacity:0;stroke:#0000ff;stroke-linejoin:bevel;stroke-width:1.5;" x="231.755208" xlink:href="#m6928703c3c" y="44.027937"/>
     <use style="fill-opacity:0;stroke:#0000ff;stroke-linejoin:bevel;stroke-width:1.5;" x="246.416206" xlink:href="#m6928703c3c" y="30.334099"/>
     <use style="fill-opacity:0;stroke:#0000ff;stroke-linejoin:bevel;stroke-width:1.5;" x="246.416206" xlink:href="#m6928703c3c" y="30.334099"/>
     <use style="fill-opacity:0;stroke:#0000ff;stroke-linejoin:bevel;stroke-width:1.5;" x="338.688" xlink:href="#m6928703c3c" y="30.334099"/>
    </g>
   </g>
   <g id="line2d_41">
    <path style="fill:none;stroke:#0000ff;stroke-linecap:square;stroke-width:1.5;"/>
    <g/>
   </g>
   <g id="line2d_42">
    <path clip-path="url(#pe17b1e7052)" d="M 218.221714 107.230267 
" style="fill:none;stroke:#0000ff;stroke-linecap:square;stroke-width:1.5;"/>
    <defs>
     <path d="M -12 12 
L 12 -12 
M -12 -12 
L 12 12 
" id="m6198231a19" style="stroke:#0000ff;"/>
    </defs>
    <g clip-path="url(#pe17b1e7052)">
     <use style="fill:#0000ff;stroke:#0000ff;" x="218.221714" xlink:href="#m6198231a19" y="107.230267"/>
    </g>
   </g>
   <g id="line2d_43">
    <defs>
     <path d="M 0 1.5 
C 0.397805 1.5 0.77937 1.341951 1.06066 1.06066 
C 1.341951 0.77937 1.5 0.397805 1.5 0 
C 1.5 -0.397805 1.341951 -0.77937 1.06066 -1.06066 
C 0.77937 -1.341951 0.397805 -1.5 0 -1.5 
C -0.397805 -1.5 -0.77937 -1.341951 -1.06066 -1.06066 
C -1.341951 -0.77937 -1.5 -0.397805 -1.5 0 
C -1.5 0.397805 -1.341951 0.77937 -1.06066 1.06066 
C -0.77937 1.341951 -0.397805 1.5 0 1.5 
z
" id="mf7601245ab" style="stroke:#000000;"/>
    </defs>
    <g>
     <use style="stroke:#000000;" x="272.569228" xlink:href="#mf7601245ab" y="209.407366"/>
     <use style="stroke:#000000;" x="272.569228" xlink:href="#mf7601245ab" y="209.407366"/>
    </g>
   </g>
   <g id="line2d_44">
    <path d="M 84.955534 298.944 
L 84.955534 298.417314 
L 95.918017 298.417314 
L 95.918017 297.890628 
L 97.403108 297.890628 
L 97.403108 297.363942 
L 98.270913 297.363942 
L 98.270913 296.837256 
L 101.646892 296.837256 
L 101.646892 296.31057 
L 102.597126 296.31057 
L 102.597126 295.783884 
L 103.870632 295.783884 
L 103.870632 294.730511 
L 105.171792 294.730511 
L 105.171792 294.203825 
L 107.111487 294.203825 
L 107.111487 293.677139 
L 107.614095 293.677139 
L 107.614095 293.150453 
L 109.401893 293.150453 
L 109.401893 292.097081 
L 109.579846 292.097081 
L 109.579846 291.570395 
L 110.016944 291.570395 
L 110.016944 291.043709 
L 110.527398 291.043709 
L 110.527398 290.517023 
L 111.663381 290.517023 
L 111.74176 289.463651 
L 114.080224 289.463651 
L 114.080224 288.410278 
L 114.284194 288.410278 
L 114.284194 287.883592 
L 116.914437 287.883592 
L 116.914437 287.356906 
L 117.087964 287.356906 
L 117.087964 286.303534 
L 118.256582 286.303534 
L 118.256582 285.776848 
L 118.470564 285.776848 
L 118.470564 285.250162 
L 119.097192 285.250162 
L 119.097192 284.723476 
L 119.351785 284.723476 
L 119.351785 284.19679 
L 120.944859 284.19679 
L 120.944859 283.670104 
L 121.579085 283.670104 
L 121.667835 282.616732 
L 123.029641 282.616732 
L 123.029641 282.090045 
L 123.313873 282.090045 
L 123.313873 281.563359 
L 123.672636 281.563359 
L 123.672636 280.509987 
L 124.743806 280.509987 
L 124.743806 279.983301 
L 125.857712 279.983301 
L 125.857712 279.456615 
L 126.338353 279.456615 
L 126.338353 278.929929 
L 127.035353 278.929929 
L 127.132689 277.876557 
L 128.350967 277.876557 
L 128.350967 277.349871 
L 129.853291 277.349871 
L 129.853291 276.823185 
L 130.236587 276.823185 
L 130.236587 276.296499 
L 130.822389 276.296499 
L 130.822389 275.769812 
L 132.470242 275.769812 
L 132.470242 275.243126 
L 133.307488 275.243126 
L 133.307488 274.71644 
L 133.975741 274.71644 
L 133.975741 274.189754 
L 134.407429 274.189754 
L 134.407429 273.663068 
L 134.787017 273.663068 
L 134.787017 273.136382 
L 135.138086 273.136382 
L 135.138086 272.609696 
L 136.015217 272.609696 
L 136.015217 271.556324 
L 136.813232 271.556324 
L 136.813232 271.029638 
L 137.361683 271.029638 
L 137.361683 270.502952 
L 137.505069 270.502952 
L 137.505069 269.976266 
L 138.049816 269.976266 
L 138.153314 268.922893 
L 138.221972 268.922893 
L 138.221972 267.869521 
L 139.090775 267.869521 
L 139.090775 267.342835 
L 141.46423 267.342835 
L 141.46423 266.816149 
L 141.634094 266.816149 
L 141.634094 266.289463 
L 142.147664 266.289463 
L 142.147664 265.762777 
L 142.324576 265.762777 
L 142.324576 265.236091 
L 143.952218 265.236091 
L 143.952218 264.709405 
L 144.900303 264.709405 
L 144.900303 264.182719 
L 145.063071 264.182719 
L 145.063071 263.656033 
L 145.799493 263.656033 
L 145.799493 263.129347 
L 146.822776 263.129347 
L 146.822776 262.60266 
L 147.277111 262.60266 
L 147.277111 262.075974 
L 147.409112 262.075974 
L 147.409112 261.549288 
L 148.836097 261.549288 
L 148.929057 259.96923 
L 152.405838 259.96923 
L 152.405838 259.442544 
L 153.069065 259.442544 
L 153.069065 258.915858 
L 153.402218 258.915858 
L 153.402218 258.389172 
L 153.545105 258.389172 
L 153.545105 257.862486 
L 154.139643 257.862486 
L 154.139643 257.3358 
L 154.432862 257.3358 
L 154.432862 256.809114 
L 154.674612 256.809114 
L 154.674612 256.282427 
L 156.272978 256.282427 
L 156.272978 255.755741 
L 157.506157 255.755741 
L 157.506157 255.229055 
L 158.826871 255.229055 
L 158.826871 254.702369 
L 160.015335 254.702369 
L 160.015335 254.175683 
L 161.072584 254.175683 
L 161.072584 253.648997 
L 162.572663 253.648997 
L 162.572663 253.122311 
L 162.716232 253.122311 
L 162.716232 252.595625 
L 163.501492 252.595625 
L 163.501492 252.068939 
L 163.835954 252.068939 
L 163.89501 251.015567 
L 164.474827 251.015567 
L 164.474827 250.488881 
L 165.211808 250.488881 
L 165.211808 249.962195 
L 166.715855 249.962195 
L 166.715855 249.435508 
L 170.462281 249.435508 
L 170.50269 248.382136 
L 173.38554 248.382136 
L 173.38554 247.85545 
L 175.559304 247.85545 
L 175.559304 247.328764 
L 187.054407 247.328764 
L 187.054407 246.802078 
L 187.635207 246.802078 
L 187.635207 246.275392 
L 190.032648 246.275392 
L 190.032648 245.748706 
L 205.999978 245.748706 
L 205.999978 245.22202 
L 206.468466 245.22202 
L 206.485223 244.168648 
L 206.777752 244.168648 
L 206.777752 243.641962 
L 206.996545 243.641962 
L 206.996545 243.115275 
L 207.254217 243.115275 
L 207.254217 242.061903 
L 207.512326 242.061903 
L 207.584688 241.008531 
L 208.385384 241.008531 
L 208.385384 240.481845 
L 212.000563 240.481845 
L 212.000563 239.955159 
L 218.154969 239.955159 
L 218.154969 238.375101 
L 218.617593 238.375101 
L 218.617593 237.848415 
L 218.758857 237.848415 
L 218.83041 236.268356 
L 219.036834 236.268356 
L 219.036834 235.74167 
L 219.314381 235.74167 
L 219.383858 234.161612 
L 219.506604 234.161612 
L 219.506604 233.10824 
L 221.381059 233.10824 
L 221.381059 232.581554 
L 225.764481 232.581554 
L 225.801106 231.001496 
L 226.076037 231.001496 
L 226.159758 229.421437 
L 230.864593 229.421437 
L 230.900454 228.368065 
L 234.174498 228.368065 
L 234.174498 227.841379 
L 234.377179 227.841379 
L 234.447199 226.788007 
L 234.488762 226.788007 
L 234.488762 226.261321 
L 234.646481 226.261321 
L 234.726535 224.681263 
L 237.620714 224.681263 
L 237.620714 224.154577 
L 237.752604 224.154577 
L 237.776772 223.101204 
L 240.221597 223.101204 
L 240.28869 222.047832 
L 240.409018 222.047832 
L 240.409018 221.521146 
L 242.577994 221.521146 
L 242.577994 219.941088 
L 248.168436 219.941088 
L 248.192063 218.887716 
L 249.58912 218.887716 
L 249.655643 217.834344 
L 251.037222 217.834344 
L 251.037222 217.307658 
L 252.233454 217.307658 
L 252.26718 215.727599 
L 253.456568 215.727599 
L 253.456568 215.200913 
L 255.62801 215.200913 
L 255.62801 214.674227 
L 257.558769 214.674227 
L 257.558769 214.147541 
L 258.449488 214.147541 
L 258.45435 213.094169 
L 259.301546 213.094169 
L 259.301546 212.567483 
L 261.621063 212.567483 
L 261.621063 211.514111 
L 262.330399 211.514111 
L 262.330399 210.987425 
L 265.523176 210.987425 
L 265.528095 209.934052 
L 272.569228 209.934052 
L 272.569228 209.407366 
L 338.688 209.407366 
L 338.688 209.407366 
" style="fill:none;stroke:#000000;stroke-linecap:square;stroke-width:1.5;"/>
   </g>
   <g id="line2d_45">
    <defs>
     <path d="M 0 6 
C 1.591219 6 3.117479 5.367802 4.242641 4.242641 
C 5.367802 3.117479 6 1.591219 6 0 
C 6 -1.591219 5.367802 -3.117479 4.242641 -4.242641 
C 3.117479 -5.367802 1.591219 -6 0 -6 
C -1.591219 -6 -3.117479 -5.367802 -4.242641 -4.242641 
C -5.367802 -3.117479 -6 -1.591219 -6 0 
C -6 1.591219 -5.367802 3.117479 -4.242641 4.242641 
C -3.117479 5.367802 -1.591219 6 0 6 
z
" id="m97e406d5ac" style="stroke:#000000;stroke-width:1.5;"/>
    </defs>
    <g>
     <use style="fill-opacity:0;stroke:#000000;stroke-width:1.5;" x="165.211808" xlink:href="#m97e406d5ac" y="249.962195"/>
     <use style="fill-opacity:0;stroke:#000000;stroke-width:1.5;" x="226.159758" xlink:href="#m97e406d5ac" y="229.421437"/>
     <use style="fill-opacity:0;stroke:#000000;stroke-width:1.5;" x="272.569228" xlink:href="#m97e406d5ac" y="209.407366"/>
     <use style="fill-opacity:0;stroke:#000000;stroke-width:1.5;" x="272.569228" xlink:href="#m97e406d5ac" y="209.407366"/>
     <use style="fill-opacity:0;stroke:#000000;stroke-width:1.5;" x="338.688" xlink:href="#m97e406d5ac" y="209.407366"/>
    </g>
   </g>
   <g id="line2d_46">
    <path style="fill:none;stroke:#000000;stroke-linecap:square;stroke-width:1.5;"/>
    <g/>
   </g>
   <g id="line2d_47">
    <path clip-path="url(#pe17b1e7052)" d="M 206.133726 245.22202 
" style="fill:none;stroke:#000000;stroke-linecap:square;stroke-width:1.5;"/>
    <defs>
     <path d="M -12 12 
L 12 -12 
M -12 -12 
L 12 12 
" id="m7e3b321856" style="stroke:#000000;"/>
    </defs>
    <g clip-path="url(#pe17b1e7052)">
     <use style="stroke:#000000;" x="206.133726" xlink:href="#m7e3b321856" y="245.22202"/>
    </g>
   </g>
   <g id="line2d_48">
    <defs>
     <path d="M 0 1.5 
C 0.397805 1.5 0.77937 1.341951 1.06066 1.06066 
C 1.341951 0.77937 1.5 0.397805 1.5 0 
C 1.5 -0.397805 1.341951 -0.77937 1.06066 -1.06066 
C 0.77937 -1.341951 0.397805 -1.5 0 -1.5 
C -0.397805 -1.5 -0.77937 -1.341951 -1.06066 -1.06066 
C -1.341951 -0.77937 -1.5 -0.397805 -1.5 0 
C -1.5 0.397805 -1.341951 0.77937 -1.06066 1.06066 
C -0.77937 1.341951 -0.397805 1.5 0 1.5 
z
" id="m81618fd6a4" style="stroke:#ff0000;"/>
    </defs>
    <g>
     <use style="fill:#ff0000;stroke:#ff0000;" x="271.585267" xlink:href="#m81618fd6a4" y="251.542253"/>
     <use style="fill:#ff0000;stroke:#ff0000;" x="271.585267" xlink:href="#m81618fd6a4" y="251.542253"/>
    </g>
   </g>
   <g id="line2d_49">
    <path d="M 116.35326 298.944 
L 116.35326 298.417314 
L 118.91674 298.417314 
L 118.91674 297.890628 
L 120.142369 297.890628 
L 120.142369 297.363942 
L 120.8059 297.363942 
L 120.8059 296.837256 
L 121.355214 296.837256 
L 121.355214 296.31057 
L 122.169562 296.31057 
L 122.169562 295.783884 
L 123.672636 295.783884 
L 123.672636 295.257197 
L 124.043491 295.257197 
L 124.043491 294.730511 
L 125.647598 294.730511 
L 125.647598 294.203825 
L 127.051614 294.203825 
L 127.051614 293.677139 
L 127.40556 293.677139 
L 127.40556 293.150453 
L 128.545989 293.150453 
L 128.545989 292.623767 
L 130.317637 292.623767 
L 130.331109 291.570395 
L 130.598383 291.570395 
L 130.598383 291.043709 
L 130.7305 291.043709 
L 130.7305 290.517023 
L 131.376473 290.517023 
L 131.376473 289.990337 
L 136.504067 289.990337 
L 136.579521 288.936964 
L 137.424559 288.936964 
L 137.424559 288.410278 
L 139.123342 288.410278 
L 139.123342 287.883592 
L 139.762215 287.883592 
L 139.762215 287.356906 
L 140.355786 287.356906 
L 140.355786 286.83022 
L 141.227931 286.83022 
L 141.227931 286.303534 
L 141.711399 286.303534 
L 141.711399 285.776848 
L 143.394564 285.776848 
L 143.394564 285.250162 
L 144.233601 285.250162 
L 144.233601 284.723476 
L 145.281568 284.723476 
L 145.281568 284.19679 
L 145.860402 284.19679 
L 145.860402 283.670104 
L 146.723108 283.670104 
L 146.723108 283.143418 
L 147.236294 283.143418 
L 147.236294 282.616732 
L 147.409112 282.616732 
L 147.429332 281.563359 
L 148.175961 281.563359 
L 148.175961 281.036673 
L 148.94759 281.036673 
L 148.94759 280.509987 
L 152.526944 280.509987 
L 152.526944 279.983301 
L 153.669178 279.983301 
L 153.669178 279.456615 
L 155.517536 279.456615 
L 155.517536 278.929929 
L 155.760475 278.929929 
L 155.760475 278.403243 
L 158.471118 278.403243 
L 158.471118 277.876557 
L 159.733212 277.876557 
L 159.733212 277.349871 
L 161.097981 277.349871 
L 161.097981 276.823185 
L 161.506136 276.823185 
L 161.506136 276.296499 
L 162.086834 276.296499 
L 162.086834 275.769812 
L 163.485404 275.769812 
L 163.485404 275.243126 
L 164.839766 275.243126 
L 164.839766 274.71644 
L 165.533195 274.71644 
L 165.533195 274.189754 
L 174.626698 274.189754 
L 174.626698 273.663068 
L 177.622078 273.663068 
L 177.622078 273.136382 
L 180.13041 273.136382 
L 180.13041 272.609696 
L 180.442869 272.609696 
L 180.442869 272.08301 
L 181.872437 272.08301 
L 181.872437 271.556324 
L 182.399256 271.556324 
L 182.399256 271.029638 
L 183.624962 271.029638 
L 183.624962 270.502952 
L 196.177742 270.502952 
L 196.177742 269.976266 
L 196.855466 269.976266 
L 196.855466 269.449579 
L 197.040626 269.449579 
L 197.040626 268.922893 
L 197.151895 268.922893 
L 197.151895 268.396207 
L 199.787805 268.396207 
L 199.787805 267.869521 
L 200.528665 267.869521 
L 200.528665 267.342835 
L 205.729366 267.342835 
L 205.729366 266.816149 
L 207.404515 266.816149 
L 207.404515 266.289463 
L 207.755869 266.289463 
L 207.755869 265.762777 
L 209.240029 265.762777 
L 209.240029 265.236091 
L 210.371627 265.236091 
L 210.371627 264.709405 
L 213.944755 264.709405 
L 213.944755 264.182719 
L 214.192483 264.182719 
L 214.192483 263.656033 
L 214.656136 263.656033 
L 214.656136 263.129347 
L 215.335825 263.129347 
L 215.335825 262.075974 
L 219.05164 262.075974 
L 219.05164 261.549288 
L 219.511544 261.549288 
L 219.511544 261.022602 
L 220.46908 261.022602 
L 220.46908 260.495916 
L 223.15256 260.495916 
L 223.15256 259.96923 
L 225.577391 259.96923 
L 225.577391 259.442544 
L 226.163132 259.442544 
L 226.163132 258.915858 
L 226.576651 258.915858 
L 226.576651 258.389172 
L 240.548092 258.389172 
L 240.548092 257.862486 
L 242.729202 257.862486 
L 242.817612 256.809114 
L 242.987262 256.809114 
L 242.987262 256.282427 
L 244.746729 256.282427 
L 244.746729 255.755741 
L 245.67422 255.755741 
L 245.748922 254.702369 
L 247.460873 254.702369 
L 247.460873 253.648997 
L 255.183835 253.648997 
L 255.183835 253.122311 
L 256.687848 253.122311 
L 256.687848 252.595625 
L 262.375377 252.595625 
L 262.375377 252.068939 
L 271.585267 252.068939 
L 271.585267 251.542253 
L 338.688 251.542253 
L 338.688 251.542253 
" style="fill:none;stroke:#ff0000;stroke-linecap:square;stroke-width:1.5;"/>
   </g>
   <g id="line2d_50">
    <defs>
     <path d="M -6 6 
L 6 6 
L 6 -6 
L -6 -6 
z
" id="m11be76b838" style="stroke:#ff0000;stroke-linejoin:miter;stroke-width:1.5;"/>
    </defs>
    <g>
     <use style="fill-opacity:0;stroke:#ff0000;stroke-linejoin:miter;stroke-width:1.5;" x="200.528665" xlink:href="#m11be76b838" y="267.869521"/>
     <use style="fill-opacity:0;stroke:#ff0000;stroke-linejoin:miter;stroke-width:1.5;" x="271.585267" xlink:href="#m11be76b838" y="252.068939"/>
     <use style="fill-opacity:0;stroke:#ff0000;stroke-linejoin:miter;stroke-width:1.5;" x="271.585267" xlink:href="#m11be76b838" y="251.542253"/>
     <use style="fill-opacity:0;stroke:#ff0000;stroke-linejoin:miter;stroke-width:1.5;" x="271.585267" xlink:href="#m11be76b838" y="251.542253"/>
     <use style="fill-opacity:0;stroke:#ff0000;stroke-linejoin:miter;stroke-width:1.5;" x="338.688" xlink:href="#m11be76b838" y="251.542253"/>
    </g>
   </g>
   <g id="line2d_51">
    <path style="fill:none;stroke:#ff0000;stroke-linecap:square;stroke-width:1.5;"/>
    <g/>
   </g>
   <g id="line2d_52">
    <path clip-path="url(#pe17b1e7052)" d="M 194.045737 270.502952 
" style="fill:none;stroke:#ff0000;stroke-linecap:square;stroke-width:1.5;"/>
    <defs>
     <path d="M -12 12 
L 12 -12 
M -12 -12 
L 12 12 
" id="m43c5ca0542" style="stroke:#ff0000;"/>
    </defs>
    <g clip-path="url(#pe17b1e7052)">
     <use style="fill:#ff0000;stroke:#ff0000;" x="194.045737" xlink:href="#m43c5ca0542" y="270.502952"/>
    </g>
   </g>
   <g id="line2d_53">
    <defs>
     <path d="M 0 1.5 
C 0.397805 1.5 0.77937 1.341951 1.06066 1.06066 
C 1.341951 0.77937 1.5 0.397805 1.5 0 
C 1.5 -0.397805 1.341951 -0.77937 1.06066 -1.06066 
C 0.77937 -1.341951 0.397805 -1.5 0 -1.5 
C -0.397805 -1.5 -0.77937 -1.341951 -1.06066 -1.06066 
C -1.341951 -0.77937 -1.5 -0.397805 -1.5 0 
C -1.5 0.397805 -1.341951 0.77937 -1.06066 1.06066 
C -0.77937 1.341951 -0.397805 1.5 0 1.5 
z
" id="mf00ebab103" style="stroke:#bf00bf;"/>
    </defs>
    <g>
     <use style="fill:#bf00bf;stroke:#bf00bf;" x="218.683868" xlink:href="#mf00ebab103" y="283.143418"/>
     <use style="fill:#bf00bf;stroke:#bf00bf;" x="218.683868" xlink:href="#mf00ebab103" y="283.143418"/>
    </g>
   </g>
   <g id="line2d_54">
    <path d="M 137.030101 298.944 
L 137.030101 298.417314 
L 137.325651 298.417314 
L 137.325651 297.890628 
L 138.161911 297.890628 
L 138.161911 297.363942 
L 139.445704 297.363942 
L 139.445704 296.837256 
L 142.616608 296.837256 
L 142.616608 296.31057 
L 144.099593 296.31057 
L 144.099593 295.783884 
L 144.291152 295.783884 
L 144.291152 295.257197 
L 147.054004 295.257197 
L 147.054004 294.730511 
L 149.550613 294.730511 
L 149.550613 294.203825 
L 153.100114 294.203825 
L 153.100114 293.677139 
L 158.051724 293.677139 
L 158.051724 293.150453 
L 162.659368 293.150453 
L 162.659368 292.623767 
L 173.247575 292.623767 
L 173.247575 292.097081 
L 174.940881 292.097081 
L 174.940881 291.570395 
L 178.995452 291.570395 
L 178.995452 291.043709 
L 181.636009 291.043709 
L 181.636009 290.517023 
L 183.695507 290.517023 
L 183.695507 289.990337 
L 183.861408 289.990337 
L 183.861408 289.463651 
L 188.757642 289.463651 
L 188.757642 288.936964 
L 190.838255 288.936964 
L 190.838255 288.410278 
L 193.885609 288.410278 
L 193.885609 287.883592 
L 195.825119 287.883592 
L 195.825119 286.83022 
L 202.32295 286.83022 
L 202.32295 286.303534 
L 205.438978 286.303534 
L 205.438978 285.776848 
L 210.758868 285.776848 
L 210.758868 285.250162 
L 211.413133 285.250162 
L 211.413133 284.723476 
L 212.744669 284.723476 
L 212.744669 284.19679 
L 216.42021 284.19679 
L 216.42021 283.670104 
L 218.683868 283.670104 
L 218.683868 283.143418 
L 338.688 283.143418 
" style="fill:none;stroke:#bf00bf;stroke-linecap:square;stroke-width:1.5;"/>
   </g>
   <g id="line2d_55">
    <defs>
     <path d="M 0 8.485281 
L 8.485281 0 
L 0 -8.485281 
L -8.485281 0 
z
" id="m076c6893b1" style="stroke:#bf00bf;stroke-linejoin:miter;stroke-width:1.5;"/>
    </defs>
    <g>
     <use style="fill-opacity:0;stroke:#bf00bf;stroke-linejoin:miter;stroke-width:1.5;" x="162.659368" xlink:href="#m076c6893b1" y="292.623767"/>
     <use style="fill-opacity:0;stroke:#bf00bf;stroke-linejoin:miter;stroke-width:1.5;" x="218.683868" xlink:href="#m076c6893b1" y="283.670104"/>
     <use style="fill-opacity:0;stroke:#bf00bf;stroke-linejoin:miter;stroke-width:1.5;" x="218.683868" xlink:href="#m076c6893b1" y="283.143418"/>
     <use style="fill-opacity:0;stroke:#bf00bf;stroke-linejoin:miter;stroke-width:1.5;" x="218.683868" xlink:href="#m076c6893b1" y="283.143418"/>
     <use style="fill-opacity:0;stroke:#bf00bf;stroke-linejoin:miter;stroke-width:1.5;" x="338.688" xlink:href="#m076c6893b1" y="283.143418"/>
    </g>
   </g>
   <g id="line2d_56">
    <path style="fill:none;stroke:#bf00bf;stroke-linecap:square;stroke-width:1.5;"/>
    <g/>
   </g>
   <g id="line2d_57">
    <path clip-path="url(#pe17b1e7052)" d="M 181.957749 290.517023 
" style="fill:none;stroke:#bf00bf;stroke-linecap:square;stroke-width:1.5;"/>
    <defs>
     <path d="M -12 12 
L 12 -12 
M -12 -12 
L 12 12 
" id="mf857cc1420" style="stroke:#bf00bf;"/>
    </defs>
    <g clip-path="url(#pe17b1e7052)">
     <use style="fill:#bf00bf;stroke:#bf00bf;" x="181.957749" xlink:href="#mf857cc1420" y="290.517023"/>
    </g>
   </g>
   <g id="line2d_58">
    <path d="M 338.688 283.143418 
L 369.60768 293.571802 
" style="fill:none;stroke:#bf00bf;stroke-linecap:square;stroke-width:1.5;"/>
    <g>
     <use style="fill-opacity:0;stroke:#bf00bf;stroke-linejoin:miter;stroke-width:1.5;" x="338.688" xlink:href="#m076c6893b1" y="283.143418"/>
     <use style="fill-opacity:0;stroke:#bf00bf;stroke-linejoin:miter;stroke-width:1.5;" x="369.60768" xlink:href="#m076c6893b1" y="293.571802"/>
    </g>
   </g>
   <g id="line2d_59">
    <path d="M 338.688 251.542253 
L 369.60768 241.998701 
" style="fill:none;stroke:#ff0000;stroke-linecap:square;stroke-width:1.5;"/>
    <g>
     <use style="fill-opacity:0;stroke:#ff0000;stroke-linejoin:miter;stroke-width:1.5;" x="338.688" xlink:href="#m11be76b838" y="251.542253"/>
     <use style="fill-opacity:0;stroke:#ff0000;stroke-linejoin:miter;stroke-width:1.5;" x="369.60768" xlink:href="#m11be76b838" y="241.998701"/>
    </g>
   </g>
   <g id="line2d_60">
    <path d="M 338.688 209.407366 
L 369.60768 190.4256 
" style="fill:none;stroke:#000000;stroke-linecap:square;stroke-width:1.5;"/>
    <g>
     <use style="fill-opacity:0;stroke:#000000;stroke-width:1.5;" x="338.688" xlink:href="#m97e406d5ac" y="209.407366"/>
     <use style="fill-opacity:0;stroke:#000000;stroke-width:1.5;" x="369.60768" xlink:href="#m97e406d5ac" y="190.4256"/>
    </g>
   </g>
   <g id="line2d_61">
    <path d="M 338.688 30.334099 
L 369.60768 138.852499 
" style="fill:none;stroke:#0000ff;stroke-linecap:square;stroke-width:1.5;"/>
    <g>
     <use style="fill-opacity:0;stroke:#0000ff;stroke-linejoin:bevel;stroke-width:1.5;" x="338.688" xlink:href="#m6928703c3c" y="30.334099"/>
     <use style="fill-opacity:0;stroke:#0000ff;stroke-linejoin:bevel;stroke-width:1.5;" x="369.60768" xlink:href="#m6928703c3c" y="138.852499"/>
    </g>
   </g>
   <g id="line2d_62">
    <path d="M 338.688 30.334099 
L 369.60768 87.279398 
" style="fill:none;stroke:#008000;stroke-linecap:square;stroke-width:1.5;"/>
    <g>
     <use style="fill-opacity:0;stroke:#008000;stroke-linejoin:miter;stroke-width:1.5;" x="338.688" xlink:href="#mbba04ebaeb" y="30.334099"/>
     <use style="fill-opacity:0;stroke:#008000;stroke-linejoin:miter;stroke-width:1.5;" x="369.60768" xlink:href="#mbba04ebaeb" y="87.279398"/>
    </g>
   </g>
   <g id="line2d_63">
    <path d="M 338.688 30.334099 
L 369.60768 35.706297 
" style="fill:none;stroke:#00bfbf;stroke-linecap:square;stroke-width:1.5;"/>
    <g>
     <use style="fill-opacity:0;stroke:#00bfbf;stroke-width:1.5;" x="338.688" xlink:href="#maf878c750e" y="30.334099"/>
     <use style="fill-opacity:0;stroke:#00bfbf;stroke-width:1.5;" x="369.60768" xlink:href="#maf878c750e" y="35.706297"/>
    </g>
   </g>
   <g id="line2d_64">
    <path d="M 338.688 298.944 
L 338.688 30.334099 
" style="fill:none;stroke:#000000;stroke-linecap:square;stroke-width:1.5;"/>
   </g>
   <g id="patch_3">
    <path d="M 57.6 298.944 
L 57.6 27.648 
" style="fill:none;stroke:#000000;stroke-linecap:square;stroke-linejoin:miter;stroke-width:0.8;"/>
   </g>
   <g id="patch_4">
    <path d="M 338.688 298.944 
L 338.688 27.648 
" style="fill:none;stroke:#000000;stroke-linecap:square;stroke-linejoin:miter;stroke-width:0.8;"/>
   </g>
   <g id="patch_5">
    <path d="M 57.6 298.944 
L 338.688 298.944 
" style="fill:none;stroke:#000000;stroke-linecap:square;stroke-linejoin:miter;stroke-width:0.8;"/>
   </g>
   <g id="patch_6">
    <path d="M 57.6 27.648 
L 338.688 27.648 
" style="fill:none;stroke:#000000;stroke-linecap:square;stroke-linejoin:miter;stroke-width:0.8;"/>
   </g>
   <g id="text_13">
    <!-- 40-D -->
    <g transform="translate(375.22944 298.262739)scale(0.17 -0.17)">
     <defs>
      <path d="M 1259 4147 
L 1259 519 
L 2022 519 
Q 2988 519 3436 956 
Q 3884 1394 3884 2338 
Q 3884 3275 3436 3711 
Q 2988 4147 2022 4147 
L 1259 4147 
z
M 628 4666 
L 1925 4666 
Q 3281 4666 3915 4102 
Q 4550 3538 4550 2338 
Q 4550 1131 3912 565 
Q 3275 0 1925 0 
L 628 0 
L 628 4666 
z
" id="DejaVuSans-44" transform="scale(0.015625)"/>
     </defs>
     <use xlink:href="#DejaVuSans-34"/>
     <use x="63.623047" xlink:href="#DejaVuSans-30"/>
     <use x="127.246094" xlink:href="#DejaVuSans-2d"/>
     <use x="163.330078" xlink:href="#DejaVuSans-44"/>
    </g>
   </g>
   <g id="text_14">
    <!-- 20-D -->
    <g transform="translate(375.22944 246.689638)scale(0.17 -0.17)">
     <use xlink:href="#DejaVuSans-32"/>
     <use x="63.623047" xlink:href="#DejaVuSans-30"/>
     <use x="127.246094" xlink:href="#DejaVuSans-2d"/>
     <use x="163.330078" xlink:href="#DejaVuSans-44"/>
    </g>
   </g>
   <g id="text_15">
    <!-- 10-D -->
    <g transform="translate(375.22944 195.116537)scale(0.17 -0.17)">
     <use xlink:href="#DejaVuSans-31"/>
     <use x="63.623047" xlink:href="#DejaVuSans-30"/>
     <use x="127.246094" xlink:href="#DejaVuSans-2d"/>
     <use x="163.330078" xlink:href="#DejaVuSans-44"/>
    </g>
   </g>
   <g id="text_16">
    <!-- 5-D -->
    <g transform="translate(375.22944 143.543437)scale(0.17 -0.17)">
     <defs>
      <path d="M 691 4666 
L 3169 4666 
L 3169 4134 
L 1269 4134 
L 1269 2991 
Q 1406 3038 1543 3061 
Q 1681 3084 1819 3084 
Q 2600 3084 3056 2656 
Q 3513 2228 3513 1497 
Q 3513 744 3044 326 
Q 2575 -91 1722 -91 
Q 1428 -91 1123 -41 
Q 819 9 494 109 
L 494 744 
Q 775 591 1075 516 
Q 1375 441 1709 441 
Q 2250 441 2565 725 
Q 2881 1009 2881 1497 
Q 2881 1984 2565 2268 
Q 2250 2553 1709 2553 
Q 1456 2553 1204 2497 
Q 953 2441 691 2322 
L 691 4666 
z
" id="DejaVuSans-35" transform="scale(0.015625)"/>
     </defs>
     <use xlink:href="#DejaVuSans-35"/>
     <use x="63.623047" xlink:href="#DejaVuSans-2d"/>
     <use x="99.707031" xlink:href="#DejaVuSans-44"/>
    </g>
   </g>
   <g id="text_17">
    <!-- 3-D -->
    <g transform="translate(375.22944 91.970336)scale(0.17 -0.17)">
     <defs>
      <path d="M 2597 2516 
Q 3050 2419 3304 2112 
Q 3559 1806 3559 1356 
Q 3559 666 3084 287 
Q 2609 -91 1734 -91 
Q 1441 -91 1130 -33 
Q 819 25 488 141 
L 488 750 
Q 750 597 1062 519 
Q 1375 441 1716 441 
Q 2309 441 2620 675 
Q 2931 909 2931 1356 
Q 2931 1769 2642 2001 
Q 2353 2234 1838 2234 
L 1294 2234 
L 1294 2753 
L 1863 2753 
Q 2328 2753 2575 2939 
Q 2822 3125 2822 3475 
Q 2822 3834 2567 4026 
Q 2313 4219 1838 4219 
Q 1578 4219 1281 4162 
Q 984 4106 628 3988 
L 628 4550 
Q 988 4650 1302 4700 
Q 1616 4750 1894 4750 
Q 2613 4750 3031 4423 
Q 3450 4097 3450 3541 
Q 3450 3153 3228 2886 
Q 3006 2619 2597 2516 
z
" id="DejaVuSans-33" transform="scale(0.015625)"/>
     </defs>
     <use xlink:href="#DejaVuSans-33"/>
     <use x="63.623047" xlink:href="#DejaVuSans-2d"/>
     <use x="99.707031" xlink:href="#DejaVuSans-44"/>
    </g>
   </g>
   <g id="text_18">
    <!-- 2-D -->
    <g transform="translate(375.22944 40.397235)scale(0.17 -0.17)">
     <use xlink:href="#DejaVuSans-32"/>
     <use x="63.623047" xlink:href="#DejaVuSans-2d"/>
     <use x="99.707031" xlink:href="#DejaVuSans-44"/>
    </g>
   </g>
   <g id="text_19">
    <!-- bbob f7 -->
    <g transform="translate(60.41088 38.111366)scale(0.102 -0.102)">
     <defs>
      <path d="M 3116 1747 
Q 3116 2381 2855 2742 
Q 2594 3103 2138 3103 
Q 1681 3103 1420 2742 
Q 1159 2381 1159 1747 
Q 1159 1113 1420 752 
Q 1681 391 2138 391 
Q 2594 391 2855 752 
Q 3116 1113 3116 1747 
z
M 1159 2969 
Q 1341 3281 1617 3432 
Q 1894 3584 2278 3584 
Q 2916 3584 3314 3078 
Q 3713 2572 3713 1747 
Q 3713 922 3314 415 
Q 2916 -91 2278 -91 
Q 1894 -91 1617 61 
Q 1341 213 1159 525 
L 1159 0 
L 581 0 
L 581 4863 
L 1159 4863 
L 1159 2969 
z
" id="DejaVuSans-62" transform="scale(0.015625)"/>
      <path d="M 525 4666 
L 3525 4666 
L 3525 4397 
L 1831 0 
L 1172 0 
L 2766 4134 
L 525 4134 
L 525 4666 
z
" id="DejaVuSans-37" transform="scale(0.015625)"/>
     </defs>
     <use xlink:href="#DejaVuSans-62"/>
     <use x="63.476562" xlink:href="#DejaVuSans-62"/>
     <use x="126.953125" xlink:href="#DejaVuSans-6f"/>
     <use x="188.134766" xlink:href="#DejaVuSans-62"/>
     <use x="251.611328" xlink:href="#DejaVuSans-20"/>
     <use x="283.398438" xlink:href="#DejaVuSans-66"/>
     <use x="318.603516" xlink:href="#DejaVuSans-37"/>
    </g>
    <!-- 51 targets: 100..1e-08 -->
    <g transform="translate(60.41088 49.533135)scale(0.102 -0.102)">
     <defs>
      <path d="M 750 794 
L 1409 794 
L 1409 0 
L 750 0 
L 750 794 
z
M 750 3309 
L 1409 3309 
L 1409 2516 
L 750 2516 
L 750 3309 
z
" id="DejaVuSans-3a" transform="scale(0.015625)"/>
     </defs>
     <use xlink:href="#DejaVuSans-35"/>
     <use x="63.623047" xlink:href="#DejaVuSans-31"/>
     <use x="127.246094" xlink:href="#DejaVuSans-20"/>
     <use x="159.033203" xlink:href="#DejaVuSans-74"/>
     <use x="198.242188" xlink:href="#DejaVuSans-61"/>
     <use x="259.521484" xlink:href="#DejaVuSans-72"/>
     <use x="298.884766" xlink:href="#DejaVuSans-67"/>
     <use x="362.361328" xlink:href="#DejaVuSans-65"/>
     <use x="423.884766" xlink:href="#DejaVuSans-74"/>
     <use x="463.09375" xlink:href="#DejaVuSans-73"/>
     <use x="515.193359" xlink:href="#DejaVuSans-3a"/>
     <use x="548.884766" xlink:href="#DejaVuSans-20"/>
     <use x="580.671875" xlink:href="#DejaVuSans-31"/>
     <use x="644.294922" xlink:href="#DejaVuSans-30"/>
     <use x="707.917969" xlink:href="#DejaVuSans-30"/>
     <use x="771.541016" xlink:href="#DejaVuSans-2e"/>
     <use x="803.328125" xlink:href="#DejaVuSans-2e"/>
     <use x="835.115234" xlink:href="#DejaVuSans-31"/>
     <use x="898.738281" xlink:href="#DejaVuSans-65"/>
     <use x="960.261719" xlink:href="#DejaVuSans-2d"/>
     <use x="996.345703" xlink:href="#DejaVuSans-30"/>
     <use x="1059.96875" xlink:href="#DejaVuSans-38"/>
    </g>
    <!-- 15 instances -->
    <g transform="translate(60.41088 60.954904)scale(0.102 -0.102)">
     <use xlink:href="#DejaVuSans-31"/>
     <use x="63.623047" xlink:href="#DejaVuSans-35"/>
     <use x="127.246094" xlink:href="#DejaVuSans-20"/>
     <use x="159.033203" xlink:href="#DejaVuSans-69"/>
     <use x="186.816406" xlink:href="#DejaVuSans-6e"/>
     <use x="250.195312" xlink:href="#DejaVuSans-73"/>
     <use x="302.294922" xlink:href="#DejaVuSans-74"/>
     <use x="341.503906" xlink:href="#DejaVuSans-61"/>
     <use x="402.783203" xlink:href="#DejaVuSans-6e"/>
     <use x="466.162109" xlink:href="#DejaVuSans-63"/>
     <use x="521.142578" xlink:href="#DejaVuSans-65"/>
     <use x="582.666016" xlink:href="#DejaVuSans-73"/>
    </g>
   </g>
   <g id="text_20">
    <!-- v2.4 -->
    <g style="fill:#808080;" transform="translate(187.233062 294.151352)scale(0.1 -0.1)">
     <use xlink:href="#DejaVuSans-76"/>
     <use x="59.179688" xlink:href="#DejaVuSans-32"/>
     <use x="122.802734" xlink:href="#DejaVuSans-2e"/>
     <use x="154.589844" xlink:href="#DejaVuSans-34"/>
    </g>
   </g>
   <g id="text_21">
    <!-- 7 Step-ellipsoid -->
    <g transform="translate(120.934625 21.648)scale(0.2 -0.2)">
     <defs>
      <path d="M 3425 4513 
L 3425 3897 
Q 3066 4069 2747 4153 
Q 2428 4238 2131 4238 
Q 1616 4238 1336 4038 
Q 1056 3838 1056 3469 
Q 1056 3159 1242 3001 
Q 1428 2844 1947 2747 
L 2328 2669 
Q 3034 2534 3370 2195 
Q 3706 1856 3706 1288 
Q 3706 609 3251 259 
Q 2797 -91 1919 -91 
Q 1588 -91 1214 -16 
Q 841 59 441 206 
L 441 856 
Q 825 641 1194 531 
Q 1563 422 1919 422 
Q 2459 422 2753 634 
Q 3047 847 3047 1241 
Q 3047 1584 2836 1778 
Q 2625 1972 2144 2069 
L 1759 2144 
Q 1053 2284 737 2584 
Q 422 2884 422 3419 
Q 422 4038 858 4394 
Q 1294 4750 2059 4750 
Q 2388 4750 2728 4690 
Q 3069 4631 3425 4513 
z
" id="DejaVuSans-53" transform="scale(0.015625)"/>
     </defs>
     <use xlink:href="#DejaVuSans-37"/>
     <use x="63.623047" xlink:href="#DejaVuSans-20"/>
     <use x="95.410156" xlink:href="#DejaVuSans-53"/>
     <use x="158.886719" xlink:href="#DejaVuSans-74"/>
     <use x="198.095703" xlink:href="#DejaVuSans-65"/>
     <use x="259.619141" xlink:href="#DejaVuSans-70"/>
     <use x="323.095703" xlink:href="#DejaVuSans-2d"/>
     <use x="359.179688" xlink:href="#DejaVuSans-65"/>
     <use x="420.703125" xlink:href="#DejaVuSans-6c"/>
     <use x="448.486328" xlink:href="#DejaVuSans-6c"/>
     <use x="476.269531" xlink:href="#DejaVuSans-69"/>
     <use x="504.052734" xlink:href="#DejaVuSans-70"/>
     <use x="567.529297" xlink:href="#DejaVuSans-73"/>
     <use x="619.628906" xlink:href="#DejaVuSans-6f"/>
     <use x="680.810547" xlink:href="#DejaVuSans-69"/>
     <use x="708.59375" xlink:href="#DejaVuSans-64"/>
    </g>
   </g>
  </g>
 </g>
 <defs>
  <clipPath id="pe17b1e7052">
   <rect height="271.296" width="281.088" x="57.6" y="27.648"/>
  </clipPath>
 </defs>
</svg>
