<?xml version="1.0" encoding="utf-8" standalone="no"?>
<!DOCTYPE svg PUBLIC "-//W3C//DTD SVG 1.1//EN"
  "http://www.w3.org/Graphics/SVG/1.1/DTD/svg11.dtd">
<svg height="345.6pt" version="1.1" viewBox="0 0 460.8 345.6" width="460.8pt" xmlns="http://www.w3.org/2000/svg" xmlns:xlink="http://www.w3.org/1999/xlink">
 <metadata>
  <rdf:RDF xmlns:cc="http://creativecommons.org/ns#" xmlns:dc="http://purl.org/dc/elements/1.1/" xmlns:rdf="http://www.w3.org/1999/02/22-rdf-syntax-ns#">
   <cc:Work>
    <dc:type rdf:resource="http://purl.org/dc/dcmitype/StillImage"/>
    <dc:date>2021-04-20T11:32:08.276380</dc:date>
    <dc:format>image/svg+xml</dc:format>
    <dc:creator>
     <cc:Agent>
      <dc:title>Matplotlib v3.4.1, https://matplotlib.org/</dc:title>
     </cc:Agent>
    </dc:creator>
   </cc:Work>
  </rdf:RDF>
 </metadata>
 <defs>
  <style type="text/css">*{stroke-linecap:butt;stroke-linejoin:round;}</style>
 </defs>
 <g id="figure_1">
  <g id="patch_1">
   <path d="M 0 345.6 
L 460.8 345.6 
L 460.8 0 
L 0 0 
z
" style="fill:#ffffff;"/>
  </g>
  <g id="axes_1">
   <g id="patch_2">
    <path d="M 57.6 298.944 
L 338.688 298.944 
L 338.688 3.456 
L 57.6 3.456 
z
" style="fill:#ffffff;"/>
   </g>
   <g id="matplotlib.axis_1">
    <g id="xtick_1">
     <g id="line2d_1">
      <path clip-path="url(#pbff6c4cfa2)" d="M 57.6 298.944 
L 57.6 3.456 
" style="fill:none;stroke:#b0b0b0;stroke-linecap:square;stroke-width:0.8;"/>
     </g>
     <g id="line2d_2">
      <defs>
       <path d="M 0 0 
L 0 3.5 
" id="m19f1944d7d" style="stroke:#000000;stroke-width:0.8;"/>
      </defs>
      <g>
       <use style="stroke:#000000;stroke-width:0.8;" x="57.6" xlink:href="#m19f1944d7d" y="298.944"/>
      </g>
     </g>
     <g id="text_1">
      <!-- 0 -->
      <g transform="translate(51.2375 321.140875)scale(0.2 -0.2)">
       <defs>
        <path d="M 2034 4250 
Q 1547 4250 1301 3770 
Q 1056 3291 1056 2328 
Q 1056 1369 1301 889 
Q 1547 409 2034 409 
Q 2525 409 2770 889 
Q 3016 1369 3016 2328 
Q 3016 3291 2770 3770 
Q 2525 4250 2034 4250 
z
M 2034 4750 
Q 2819 4750 3233 4129 
Q 3647 3509 3647 2328 
Q 3647 1150 3233 529 
Q 2819 -91 2034 -91 
Q 1250 -91 836 529 
Q 422 1150 422 2328 
Q 422 3509 836 4129 
Q 1250 4750 2034 4750 
z
" id="DejaVuSans-30" transform="scale(0.015625)"/>
       </defs>
       <use xlink:href="#DejaVuSans-30"/>
      </g>
     </g>
    </g>
    <g id="xtick_2">
     <g id="line2d_3">
      <path clip-path="url(#pbff6c4cfa2)" d="M 137.910857 298.944 
L 137.910857 3.456 
" style="fill:none;stroke:#b0b0b0;stroke-linecap:square;stroke-width:0.8;"/>
     </g>
     <g id="line2d_4">
      <g>
       <use style="stroke:#000000;stroke-width:0.8;" x="137.910857" xlink:href="#m19f1944d7d" y="298.944"/>
      </g>
     </g>
     <g id="text_2">
      <!-- 2 -->
      <g transform="translate(131.548357 321.140875)scale(0.2 -0.2)">
       <defs>
        <path d="M 1228 531 
L 3431 531 
L 3431 0 
L 469 0 
L 469 531 
Q 828 903 1448 1529 
Q 2069 2156 2228 2338 
Q 2531 2678 2651 2914 
Q 2772 3150 2772 3378 
Q 2772 3750 2511 3984 
Q 2250 4219 1831 4219 
Q 1534 4219 1204 4116 
Q 875 4013 500 3803 
L 500 4441 
Q 881 4594 1212 4672 
Q 1544 4750 1819 4750 
Q 2544 4750 2975 4387 
Q 3406 4025 3406 3419 
Q 3406 3131 3298 2873 
Q 3191 2616 2906 2266 
Q 2828 2175 2409 1742 
Q 1991 1309 1228 531 
z
" id="DejaVuSans-32" transform="scale(0.015625)"/>
       </defs>
       <use xlink:href="#DejaVuSans-32"/>
      </g>
     </g>
    </g>
    <g id="xtick_3">
     <g id="line2d_5">
      <path clip-path="url(#pbff6c4cfa2)" d="M 218.221714 298.944 
L 218.221714 3.456 
" style="fill:none;stroke:#b0b0b0;stroke-linecap:square;stroke-width:0.8;"/>
     </g>
     <g id="line2d_6">
      <g>
       <use style="stroke:#000000;stroke-width:0.8;" x="218.221714" xlink:href="#m19f1944d7d" y="298.944"/>
      </g>
     </g>
     <g id="text_3">
      <!-- 4 -->
      <g transform="translate(211.859214 321.140875)scale(0.2 -0.2)">
       <defs>
        <path d="M 2419 4116 
L 825 1625 
L 2419 1625 
L 2419 4116 
z
M 2253 4666 
L 3047 4666 
L 3047 1625 
L 3713 1625 
L 3713 1100 
L 3047 1100 
L 3047 0 
L 2419 0 
L 2419 1100 
L 313 1100 
L 313 1709 
L 2253 4666 
z
" id="DejaVuSans-34" transform="scale(0.015625)"/>
       </defs>
       <use xlink:href="#DejaVuSans-34"/>
      </g>
     </g>
    </g>
    <g id="xtick_4">
     <g id="line2d_7">
      <path clip-path="url(#pbff6c4cfa2)" d="M 298.532571 298.944 
L 298.532571 3.456 
" style="fill:none;stroke:#b0b0b0;stroke-linecap:square;stroke-width:0.8;"/>
     </g>
     <g id="line2d_8">
      <g>
       <use style="stroke:#000000;stroke-width:0.8;" x="298.532571" xlink:href="#m19f1944d7d" y="298.944"/>
      </g>
     </g>
     <g id="text_4">
      <!-- 6 -->
      <g transform="translate(292.170071 321.140875)scale(0.2 -0.2)">
       <defs>
        <path d="M 2113 2584 
Q 1688 2584 1439 2293 
Q 1191 2003 1191 1497 
Q 1191 994 1439 701 
Q 1688 409 2113 409 
Q 2538 409 2786 701 
Q 3034 994 3034 1497 
Q 3034 2003 2786 2293 
Q 2538 2584 2113 2584 
z
M 3366 4563 
L 3366 3988 
Q 3128 4100 2886 4159 
Q 2644 4219 2406 4219 
Q 1781 4219 1451 3797 
Q 1122 3375 1075 2522 
Q 1259 2794 1537 2939 
Q 1816 3084 2150 3084 
Q 2853 3084 3261 2657 
Q 3669 2231 3669 1497 
Q 3669 778 3244 343 
Q 2819 -91 2113 -91 
Q 1303 -91 875 529 
Q 447 1150 447 2328 
Q 447 3434 972 4092 
Q 1497 4750 2381 4750 
Q 2619 4750 2861 4703 
Q 3103 4656 3366 4563 
z
" id="DejaVuSans-36" transform="scale(0.015625)"/>
       </defs>
       <use xlink:href="#DejaVuSans-36"/>
      </g>
     </g>
    </g>
    <g id="xtick_5">
     <g id="line2d_9">
      <path clip-path="url(#pbff6c4cfa2)" d="M 97.755429 298.944 
L 97.755429 3.456 
" style="fill:none;stroke:#b0b0b0;stroke-linecap:square;stroke-width:0.8;"/>
     </g>
     <g id="line2d_10">
      <defs>
       <path d="M 0 0 
L 0 2 
" id="mba384f6660" style="stroke:#000000;stroke-width:0.6;"/>
      </defs>
      <g>
       <use style="stroke:#000000;stroke-width:0.6;" x="97.755429" xlink:href="#mba384f6660" y="298.944"/>
      </g>
     </g>
    </g>
    <g id="xtick_6">
     <g id="line2d_11">
      <path clip-path="url(#pbff6c4cfa2)" d="M 178.066286 298.944 
L 178.066286 3.456 
" style="fill:none;stroke:#b0b0b0;stroke-linecap:square;stroke-width:0.8;"/>
     </g>
     <g id="line2d_12">
      <g>
       <use style="stroke:#000000;stroke-width:0.6;" x="178.066286" xlink:href="#mba384f6660" y="298.944"/>
      </g>
     </g>
    </g>
    <g id="xtick_7">
     <g id="line2d_13">
      <path clip-path="url(#pbff6c4cfa2)" d="M 258.377143 298.944 
L 258.377143 3.456 
" style="fill:none;stroke:#b0b0b0;stroke-linecap:square;stroke-width:0.8;"/>
     </g>
     <g id="line2d_14">
      <g>
       <use style="stroke:#000000;stroke-width:0.6;" x="258.377143" xlink:href="#mba384f6660" y="298.944"/>
      </g>
     </g>
    </g>
    <g id="xtick_8">
     <g id="line2d_15">
      <path clip-path="url(#pbff6c4cfa2)" d="M 338.688 298.944 
L 338.688 3.456 
" style="fill:none;stroke:#b0b0b0;stroke-linecap:square;stroke-width:0.8;"/>
     </g>
     <g id="line2d_16">
      <g>
       <use style="stroke:#000000;stroke-width:0.6;" x="338.688" xlink:href="#mba384f6660" y="298.944"/>
      </g>
     </g>
    </g>
    <g id="text_5">
     <!-- log10(# f-evals / dimension) -->
     <g transform="translate(77.764078 342.217594)scale(0.17 -0.17)">
      <defs>
       <path d="M 603 4863 
L 1178 4863 
L 1178 0 
L 603 0 
L 603 4863 
z
" id="DejaVuSans-6c" transform="scale(0.015625)"/>
       <path d="M 1959 3097 
Q 1497 3097 1228 2736 
Q 959 2375 959 1747 
Q 959 1119 1226 758 
Q 1494 397 1959 397 
Q 2419 397 2687 759 
Q 2956 1122 2956 1747 
Q 2956 2369 2687 2733 
Q 2419 3097 1959 3097 
z
M 1959 3584 
Q 2709 3584 3137 3096 
Q 3566 2609 3566 1747 
Q 3566 888 3137 398 
Q 2709 -91 1959 -91 
Q 1206 -91 779 398 
Q 353 888 353 1747 
Q 353 2609 779 3096 
Q 1206 3584 1959 3584 
z
" id="DejaVuSans-6f" transform="scale(0.015625)"/>
       <path d="M 2906 1791 
Q 2906 2416 2648 2759 
Q 2391 3103 1925 3103 
Q 1463 3103 1205 2759 
Q 947 2416 947 1791 
Q 947 1169 1205 825 
Q 1463 481 1925 481 
Q 2391 481 2648 825 
Q 2906 1169 2906 1791 
z
M 3481 434 
Q 3481 -459 3084 -895 
Q 2688 -1331 1869 -1331 
Q 1566 -1331 1297 -1286 
Q 1028 -1241 775 -1147 
L 775 -588 
Q 1028 -725 1275 -790 
Q 1522 -856 1778 -856 
Q 2344 -856 2625 -561 
Q 2906 -266 2906 331 
L 2906 616 
Q 2728 306 2450 153 
Q 2172 0 1784 0 
Q 1141 0 747 490 
Q 353 981 353 1791 
Q 353 2603 747 3093 
Q 1141 3584 1784 3584 
Q 2172 3584 2450 3431 
Q 2728 3278 2906 2969 
L 2906 3500 
L 3481 3500 
L 3481 434 
z
" id="DejaVuSans-67" transform="scale(0.015625)"/>
       <path d="M 794 531 
L 1825 531 
L 1825 4091 
L 703 3866 
L 703 4441 
L 1819 4666 
L 2450 4666 
L 2450 531 
L 3481 531 
L 3481 0 
L 794 0 
L 794 531 
z
" id="DejaVuSans-31" transform="scale(0.015625)"/>
       <path d="M 1984 4856 
Q 1566 4138 1362 3434 
Q 1159 2731 1159 2009 
Q 1159 1288 1364 580 
Q 1569 -128 1984 -844 
L 1484 -844 
Q 1016 -109 783 600 
Q 550 1309 550 2009 
Q 550 2706 781 3412 
Q 1013 4119 1484 4856 
L 1984 4856 
z
" id="DejaVuSans-28" transform="scale(0.015625)"/>
       <path d="M 3272 2816 
L 2363 2816 
L 2100 1772 
L 3016 1772 
L 3272 2816 
z
M 2803 4594 
L 2478 3297 
L 3391 3297 
L 3719 4594 
L 4219 4594 
L 3897 3297 
L 4872 3297 
L 4872 2816 
L 3775 2816 
L 3519 1772 
L 4513 1772 
L 4513 1294 
L 3397 1294 
L 3072 0 
L 2572 0 
L 2894 1294 
L 1978 1294 
L 1656 0 
L 1153 0 
L 1478 1294 
L 494 1294 
L 494 1772 
L 1594 1772 
L 1856 2816 
L 850 2816 
L 850 3297 
L 1978 3297 
L 2297 4594 
L 2803 4594 
z
" id="DejaVuSans-23" transform="scale(0.015625)"/>
       <path id="DejaVuSans-20" transform="scale(0.015625)"/>
       <path d="M 2375 4863 
L 2375 4384 
L 1825 4384 
Q 1516 4384 1395 4259 
Q 1275 4134 1275 3809 
L 1275 3500 
L 2222 3500 
L 2222 3053 
L 1275 3053 
L 1275 0 
L 697 0 
L 697 3053 
L 147 3053 
L 147 3500 
L 697 3500 
L 697 3744 
Q 697 4328 969 4595 
Q 1241 4863 1831 4863 
L 2375 4863 
z
" id="DejaVuSans-66" transform="scale(0.015625)"/>
       <path d="M 313 2009 
L 1997 2009 
L 1997 1497 
L 313 1497 
L 313 2009 
z
" id="DejaVuSans-2d" transform="scale(0.015625)"/>
       <path d="M 3597 1894 
L 3597 1613 
L 953 1613 
Q 991 1019 1311 708 
Q 1631 397 2203 397 
Q 2534 397 2845 478 
Q 3156 559 3463 722 
L 3463 178 
Q 3153 47 2828 -22 
Q 2503 -91 2169 -91 
Q 1331 -91 842 396 
Q 353 884 353 1716 
Q 353 2575 817 3079 
Q 1281 3584 2069 3584 
Q 2775 3584 3186 3129 
Q 3597 2675 3597 1894 
z
M 3022 2063 
Q 3016 2534 2758 2815 
Q 2500 3097 2075 3097 
Q 1594 3097 1305 2825 
Q 1016 2553 972 2059 
L 3022 2063 
z
" id="DejaVuSans-65" transform="scale(0.015625)"/>
       <path d="M 191 3500 
L 800 3500 
L 1894 563 
L 2988 3500 
L 3597 3500 
L 2284 0 
L 1503 0 
L 191 3500 
z
" id="DejaVuSans-76" transform="scale(0.015625)"/>
       <path d="M 2194 1759 
Q 1497 1759 1228 1600 
Q 959 1441 959 1056 
Q 959 750 1161 570 
Q 1363 391 1709 391 
Q 2188 391 2477 730 
Q 2766 1069 2766 1631 
L 2766 1759 
L 2194 1759 
z
M 3341 1997 
L 3341 0 
L 2766 0 
L 2766 531 
Q 2569 213 2275 61 
Q 1981 -91 1556 -91 
Q 1019 -91 701 211 
Q 384 513 384 1019 
Q 384 1609 779 1909 
Q 1175 2209 1959 2209 
L 2766 2209 
L 2766 2266 
Q 2766 2663 2505 2880 
Q 2244 3097 1772 3097 
Q 1472 3097 1187 3025 
Q 903 2953 641 2809 
L 641 3341 
Q 956 3463 1253 3523 
Q 1550 3584 1831 3584 
Q 2591 3584 2966 3190 
Q 3341 2797 3341 1997 
z
" id="DejaVuSans-61" transform="scale(0.015625)"/>
       <path d="M 2834 3397 
L 2834 2853 
Q 2591 2978 2328 3040 
Q 2066 3103 1784 3103 
Q 1356 3103 1142 2972 
Q 928 2841 928 2578 
Q 928 2378 1081 2264 
Q 1234 2150 1697 2047 
L 1894 2003 
Q 2506 1872 2764 1633 
Q 3022 1394 3022 966 
Q 3022 478 2636 193 
Q 2250 -91 1575 -91 
Q 1294 -91 989 -36 
Q 684 19 347 128 
L 347 722 
Q 666 556 975 473 
Q 1284 391 1588 391 
Q 1994 391 2212 530 
Q 2431 669 2431 922 
Q 2431 1156 2273 1281 
Q 2116 1406 1581 1522 
L 1381 1569 
Q 847 1681 609 1914 
Q 372 2147 372 2553 
Q 372 3047 722 3315 
Q 1072 3584 1716 3584 
Q 2034 3584 2315 3537 
Q 2597 3491 2834 3397 
z
" id="DejaVuSans-73" transform="scale(0.015625)"/>
       <path d="M 1625 4666 
L 2156 4666 
L 531 -594 
L 0 -594 
L 1625 4666 
z
" id="DejaVuSans-2f" transform="scale(0.015625)"/>
       <path d="M 2906 2969 
L 2906 4863 
L 3481 4863 
L 3481 0 
L 2906 0 
L 2906 525 
Q 2725 213 2448 61 
Q 2172 -91 1784 -91 
Q 1150 -91 751 415 
Q 353 922 353 1747 
Q 353 2572 751 3078 
Q 1150 3584 1784 3584 
Q 2172 3584 2448 3432 
Q 2725 3281 2906 2969 
z
M 947 1747 
Q 947 1113 1208 752 
Q 1469 391 1925 391 
Q 2381 391 2643 752 
Q 2906 1113 2906 1747 
Q 2906 2381 2643 2742 
Q 2381 3103 1925 3103 
Q 1469 3103 1208 2742 
Q 947 2381 947 1747 
z
" id="DejaVuSans-64" transform="scale(0.015625)"/>
       <path d="M 603 3500 
L 1178 3500 
L 1178 0 
L 603 0 
L 603 3500 
z
M 603 4863 
L 1178 4863 
L 1178 4134 
L 603 4134 
L 603 4863 
z
" id="DejaVuSans-69" transform="scale(0.015625)"/>
       <path d="M 3328 2828 
Q 3544 3216 3844 3400 
Q 4144 3584 4550 3584 
Q 5097 3584 5394 3201 
Q 5691 2819 5691 2113 
L 5691 0 
L 5113 0 
L 5113 2094 
Q 5113 2597 4934 2840 
Q 4756 3084 4391 3084 
Q 3944 3084 3684 2787 
Q 3425 2491 3425 1978 
L 3425 0 
L 2847 0 
L 2847 2094 
Q 2847 2600 2669 2842 
Q 2491 3084 2119 3084 
Q 1678 3084 1418 2786 
Q 1159 2488 1159 1978 
L 1159 0 
L 581 0 
L 581 3500 
L 1159 3500 
L 1159 2956 
Q 1356 3278 1631 3431 
Q 1906 3584 2284 3584 
Q 2666 3584 2933 3390 
Q 3200 3197 3328 2828 
z
" id="DejaVuSans-6d" transform="scale(0.015625)"/>
       <path d="M 3513 2113 
L 3513 0 
L 2938 0 
L 2938 2094 
Q 2938 2591 2744 2837 
Q 2550 3084 2163 3084 
Q 1697 3084 1428 2787 
Q 1159 2491 1159 1978 
L 1159 0 
L 581 0 
L 581 3500 
L 1159 3500 
L 1159 2956 
Q 1366 3272 1645 3428 
Q 1925 3584 2291 3584 
Q 2894 3584 3203 3211 
Q 3513 2838 3513 2113 
z
" id="DejaVuSans-6e" transform="scale(0.015625)"/>
       <path d="M 513 4856 
L 1013 4856 
Q 1481 4119 1714 3412 
Q 1947 2706 1947 2009 
Q 1947 1309 1714 600 
Q 1481 -109 1013 -844 
L 513 -844 
Q 928 -128 1133 580 
Q 1338 1288 1338 2009 
Q 1338 2731 1133 3434 
Q 928 4138 513 4856 
z
" id="DejaVuSans-29" transform="scale(0.015625)"/>
      </defs>
      <use xlink:href="#DejaVuSans-6c"/>
      <use x="27.783203" xlink:href="#DejaVuSans-6f"/>
      <use x="88.964844" xlink:href="#DejaVuSans-67"/>
      <use x="152.441406" xlink:href="#DejaVuSans-31"/>
      <use x="216.064453" xlink:href="#DejaVuSans-30"/>
      <use x="279.6875" xlink:href="#DejaVuSans-28"/>
      <use x="318.701172" xlink:href="#DejaVuSans-23"/>
      <use x="402.490234" xlink:href="#DejaVuSans-20"/>
      <use x="434.277344" xlink:href="#DejaVuSans-66"/>
      <use x="463.982422" xlink:href="#DejaVuSans-2d"/>
      <use x="500.066406" xlink:href="#DejaVuSans-65"/>
      <use x="561.589844" xlink:href="#DejaVuSans-76"/>
      <use x="620.769531" xlink:href="#DejaVuSans-61"/>
      <use x="682.048828" xlink:href="#DejaVuSans-6c"/>
      <use x="709.832031" xlink:href="#DejaVuSans-73"/>
      <use x="761.931641" xlink:href="#DejaVuSans-20"/>
      <use x="793.71875" xlink:href="#DejaVuSans-2f"/>
      <use x="827.410156" xlink:href="#DejaVuSans-20"/>
      <use x="859.197266" xlink:href="#DejaVuSans-64"/>
      <use x="922.673828" xlink:href="#DejaVuSans-69"/>
      <use x="950.457031" xlink:href="#DejaVuSans-6d"/>
      <use x="1047.869141" xlink:href="#DejaVuSans-65"/>
      <use x="1109.392578" xlink:href="#DejaVuSans-6e"/>
      <use x="1172.771484" xlink:href="#DejaVuSans-73"/>
      <use x="1224.871094" xlink:href="#DejaVuSans-69"/>
      <use x="1252.654297" xlink:href="#DejaVuSans-6f"/>
      <use x="1313.835938" xlink:href="#DejaVuSans-6e"/>
      <use x="1377.214844" xlink:href="#DejaVuSans-29"/>
     </g>
    </g>
   </g>
   <g id="matplotlib.axis_2">
    <g id="ytick_1">
     <g id="line2d_17">
      <path clip-path="url(#pbff6c4cfa2)" d="M 57.6 298.944 
L 338.688 298.944 
" style="fill:none;stroke:#b0b0b0;stroke-linecap:square;stroke-width:0.8;"/>
     </g>
     <g id="line2d_18">
      <defs>
       <path d="M 0 0 
L -3.5 0 
" id="mb4d6634981" style="stroke:#000000;stroke-width:0.8;"/>
      </defs>
      <g>
       <use style="stroke:#000000;stroke-width:0.8;" x="57.6" xlink:href="#mb4d6634981" y="298.944"/>
      </g>
     </g>
     <g id="text_6">
      <!-- 0.0 -->
      <g transform="translate(25.155 305.02275)scale(0.16 -0.16)">
       <defs>
        <path d="M 684 794 
L 1344 794 
L 1344 0 
L 684 0 
L 684 794 
z
" id="DejaVuSans-2e" transform="scale(0.015625)"/>
       </defs>
       <use xlink:href="#DejaVuSans-30"/>
       <use x="63.623047" xlink:href="#DejaVuSans-2e"/>
       <use x="95.410156" xlink:href="#DejaVuSans-30"/>
      </g>
     </g>
    </g>
    <g id="ytick_2">
     <g id="line2d_19">
      <path clip-path="url(#pbff6c4cfa2)" d="M 57.6 240.431525 
L 338.688 240.431525 
" style="fill:none;stroke:#b0b0b0;stroke-linecap:square;stroke-width:0.8;"/>
     </g>
     <g id="line2d_20">
      <g>
       <use style="stroke:#000000;stroke-width:0.8;" x="57.6" xlink:href="#mb4d6634981" y="240.431525"/>
      </g>
     </g>
     <g id="text_7">
      <!-- 0.2 -->
      <g transform="translate(25.155 246.510275)scale(0.16 -0.16)">
       <use xlink:href="#DejaVuSans-30"/>
       <use x="63.623047" xlink:href="#DejaVuSans-2e"/>
       <use x="95.410156" xlink:href="#DejaVuSans-32"/>
      </g>
     </g>
    </g>
    <g id="ytick_3">
     <g id="line2d_21">
      <path clip-path="url(#pbff6c4cfa2)" d="M 57.6 181.91905 
L 338.688 181.91905 
" style="fill:none;stroke:#b0b0b0;stroke-linecap:square;stroke-width:0.8;"/>
     </g>
     <g id="line2d_22">
      <g>
       <use style="stroke:#000000;stroke-width:0.8;" x="57.6" xlink:href="#mb4d6634981" y="181.91905"/>
      </g>
     </g>
     <g id="text_8">
      <!-- 0.4 -->
      <g transform="translate(25.155 187.9978)scale(0.16 -0.16)">
       <use xlink:href="#DejaVuSans-30"/>
       <use x="63.623047" xlink:href="#DejaVuSans-2e"/>
       <use x="95.410156" xlink:href="#DejaVuSans-34"/>
      </g>
     </g>
    </g>
    <g id="ytick_4">
     <g id="line2d_23">
      <path clip-path="url(#pbff6c4cfa2)" d="M 57.6 123.406574 
L 338.688 123.406574 
" style="fill:none;stroke:#b0b0b0;stroke-linecap:square;stroke-width:0.8;"/>
     </g>
     <g id="line2d_24">
      <g>
       <use style="stroke:#000000;stroke-width:0.8;" x="57.6" xlink:href="#mb4d6634981" y="123.406574"/>
      </g>
     </g>
     <g id="text_9">
      <!-- 0.6 -->
      <g transform="translate(25.155 129.485324)scale(0.16 -0.16)">
       <use xlink:href="#DejaVuSans-30"/>
       <use x="63.623047" xlink:href="#DejaVuSans-2e"/>
       <use x="95.410156" xlink:href="#DejaVuSans-36"/>
      </g>
     </g>
    </g>
    <g id="ytick_5">
     <g id="line2d_25">
      <path clip-path="url(#pbff6c4cfa2)" d="M 57.6 64.894099 
L 338.688 64.894099 
" style="fill:none;stroke:#b0b0b0;stroke-linecap:square;stroke-width:0.8;"/>
     </g>
     <g id="line2d_26">
      <g>
       <use style="stroke:#000000;stroke-width:0.8;" x="57.6" xlink:href="#mb4d6634981" y="64.894099"/>
      </g>
     </g>
     <g id="text_10">
      <!-- 0.8 -->
      <g transform="translate(25.155 70.972849)scale(0.16 -0.16)">
       <defs>
        <path d="M 2034 2216 
Q 1584 2216 1326 1975 
Q 1069 1734 1069 1313 
Q 1069 891 1326 650 
Q 1584 409 2034 409 
Q 2484 409 2743 651 
Q 3003 894 3003 1313 
Q 3003 1734 2745 1975 
Q 2488 2216 2034 2216 
z
M 1403 2484 
Q 997 2584 770 2862 
Q 544 3141 544 3541 
Q 544 4100 942 4425 
Q 1341 4750 2034 4750 
Q 2731 4750 3128 4425 
Q 3525 4100 3525 3541 
Q 3525 3141 3298 2862 
Q 3072 2584 2669 2484 
Q 3125 2378 3379 2068 
Q 3634 1759 3634 1313 
Q 3634 634 3220 271 
Q 2806 -91 2034 -91 
Q 1263 -91 848 271 
Q 434 634 434 1313 
Q 434 1759 690 2068 
Q 947 2378 1403 2484 
z
M 1172 3481 
Q 1172 3119 1398 2916 
Q 1625 2713 2034 2713 
Q 2441 2713 2670 2916 
Q 2900 3119 2900 3481 
Q 2900 3844 2670 4047 
Q 2441 4250 2034 4250 
Q 1625 4250 1398 4047 
Q 1172 3844 1172 3481 
z
" id="DejaVuSans-38" transform="scale(0.015625)"/>
       </defs>
       <use xlink:href="#DejaVuSans-30"/>
       <use x="63.623047" xlink:href="#DejaVuSans-2e"/>
       <use x="95.410156" xlink:href="#DejaVuSans-38"/>
      </g>
     </g>
    </g>
    <g id="ytick_6">
     <g id="line2d_27">
      <path clip-path="url(#pbff6c4cfa2)" d="M 57.6 6.381624 
L 338.688 6.381624 
" style="fill:none;stroke:#b0b0b0;stroke-linecap:square;stroke-width:0.8;"/>
     </g>
     <g id="line2d_28">
      <g>
       <use style="stroke:#000000;stroke-width:0.8;" x="57.6" xlink:href="#mb4d6634981" y="6.381624"/>
      </g>
     </g>
     <g id="text_11">
      <!-- 1.0 -->
      <g transform="translate(25.155 12.460374)scale(0.16 -0.16)">
       <use xlink:href="#DejaVuSans-31"/>
       <use x="63.623047" xlink:href="#DejaVuSans-2e"/>
       <use x="95.410156" xlink:href="#DejaVuSans-30"/>
      </g>
     </g>
    </g>
    <g id="text_12">
     <!-- Fraction of function,target pairs -->
     <g transform="translate(17.619531 285.585)rotate(-90)scale(0.17 -0.17)">
      <defs>
       <path d="M 628 4666 
L 3309 4666 
L 3309 4134 
L 1259 4134 
L 1259 2759 
L 3109 2759 
L 3109 2228 
L 1259 2228 
L 1259 0 
L 628 0 
L 628 4666 
z
" id="DejaVuSans-46" transform="scale(0.015625)"/>
       <path d="M 2631 2963 
Q 2534 3019 2420 3045 
Q 2306 3072 2169 3072 
Q 1681 3072 1420 2755 
Q 1159 2438 1159 1844 
L 1159 0 
L 581 0 
L 581 3500 
L 1159 3500 
L 1159 2956 
Q 1341 3275 1631 3429 
Q 1922 3584 2338 3584 
Q 2397 3584 2469 3576 
Q 2541 3569 2628 3553 
L 2631 2963 
z
" id="DejaVuSans-72" transform="scale(0.015625)"/>
       <path d="M 3122 3366 
L 3122 2828 
Q 2878 2963 2633 3030 
Q 2388 3097 2138 3097 
Q 1578 3097 1268 2742 
Q 959 2388 959 1747 
Q 959 1106 1268 751 
Q 1578 397 2138 397 
Q 2388 397 2633 464 
Q 2878 531 3122 666 
L 3122 134 
Q 2881 22 2623 -34 
Q 2366 -91 2075 -91 
Q 1284 -91 818 406 
Q 353 903 353 1747 
Q 353 2603 823 3093 
Q 1294 3584 2113 3584 
Q 2378 3584 2631 3529 
Q 2884 3475 3122 3366 
z
" id="DejaVuSans-63" transform="scale(0.015625)"/>
       <path d="M 1172 4494 
L 1172 3500 
L 2356 3500 
L 2356 3053 
L 1172 3053 
L 1172 1153 
Q 1172 725 1289 603 
Q 1406 481 1766 481 
L 2356 481 
L 2356 0 
L 1766 0 
Q 1100 0 847 248 
Q 594 497 594 1153 
L 594 3053 
L 172 3053 
L 172 3500 
L 594 3500 
L 594 4494 
L 1172 4494 
z
" id="DejaVuSans-74" transform="scale(0.015625)"/>
       <path d="M 544 1381 
L 544 3500 
L 1119 3500 
L 1119 1403 
Q 1119 906 1312 657 
Q 1506 409 1894 409 
Q 2359 409 2629 706 
Q 2900 1003 2900 1516 
L 2900 3500 
L 3475 3500 
L 3475 0 
L 2900 0 
L 2900 538 
Q 2691 219 2414 64 
Q 2138 -91 1772 -91 
Q 1169 -91 856 284 
Q 544 659 544 1381 
z
M 1991 3584 
L 1991 3584 
z
" id="DejaVuSans-75" transform="scale(0.015625)"/>
       <path d="M 750 794 
L 1409 794 
L 1409 256 
L 897 -744 
L 494 -744 
L 750 256 
L 750 794 
z
" id="DejaVuSans-2c" transform="scale(0.015625)"/>
       <path d="M 1159 525 
L 1159 -1331 
L 581 -1331 
L 581 3500 
L 1159 3500 
L 1159 2969 
Q 1341 3281 1617 3432 
Q 1894 3584 2278 3584 
Q 2916 3584 3314 3078 
Q 3713 2572 3713 1747 
Q 3713 922 3314 415 
Q 2916 -91 2278 -91 
Q 1894 -91 1617 61 
Q 1341 213 1159 525 
z
M 3116 1747 
Q 3116 2381 2855 2742 
Q 2594 3103 2138 3103 
Q 1681 3103 1420 2742 
Q 1159 2381 1159 1747 
Q 1159 1113 1420 752 
Q 1681 391 2138 391 
Q 2594 391 2855 752 
Q 3116 1113 3116 1747 
z
" id="DejaVuSans-70" transform="scale(0.015625)"/>
      </defs>
      <use xlink:href="#DejaVuSans-46"/>
      <use x="50.269531" xlink:href="#DejaVuSans-72"/>
      <use x="91.382812" xlink:href="#DejaVuSans-61"/>
      <use x="152.662109" xlink:href="#DejaVuSans-63"/>
      <use x="207.642578" xlink:href="#DejaVuSans-74"/>
      <use x="246.851562" xlink:href="#DejaVuSans-69"/>
      <use x="274.634766" xlink:href="#DejaVuSans-6f"/>
      <use x="335.816406" xlink:href="#DejaVuSans-6e"/>
      <use x="399.195312" xlink:href="#DejaVuSans-20"/>
      <use x="430.982422" xlink:href="#DejaVuSans-6f"/>
      <use x="492.164062" xlink:href="#DejaVuSans-66"/>
      <use x="527.369141" xlink:href="#DejaVuSans-20"/>
      <use x="559.15625" xlink:href="#DejaVuSans-66"/>
      <use x="594.361328" xlink:href="#DejaVuSans-75"/>
      <use x="657.740234" xlink:href="#DejaVuSans-6e"/>
      <use x="721.119141" xlink:href="#DejaVuSans-63"/>
      <use x="776.099609" xlink:href="#DejaVuSans-74"/>
      <use x="815.308594" xlink:href="#DejaVuSans-69"/>
      <use x="843.091797" xlink:href="#DejaVuSans-6f"/>
      <use x="904.273438" xlink:href="#DejaVuSans-6e"/>
      <use x="967.652344" xlink:href="#DejaVuSans-2c"/>
      <use x="999.439453" xlink:href="#DejaVuSans-74"/>
      <use x="1038.648438" xlink:href="#DejaVuSans-61"/>
      <use x="1099.927734" xlink:href="#DejaVuSans-72"/>
      <use x="1139.291016" xlink:href="#DejaVuSans-67"/>
      <use x="1202.767578" xlink:href="#DejaVuSans-65"/>
      <use x="1264.291016" xlink:href="#DejaVuSans-74"/>
      <use x="1303.5" xlink:href="#DejaVuSans-20"/>
      <use x="1335.287109" xlink:href="#DejaVuSans-70"/>
      <use x="1398.763672" xlink:href="#DejaVuSans-61"/>
      <use x="1460.042969" xlink:href="#DejaVuSans-69"/>
      <use x="1487.826172" xlink:href="#DejaVuSans-72"/>
      <use x="1528.939453" xlink:href="#DejaVuSans-73"/>
     </g>
    </g>
   </g>
   <g id="line2d_29">
    <defs>
     <path d="M 0 1.5 
C 0.397805 1.5 0.77937 1.341951 1.06066 1.06066 
C 1.341951 0.77937 1.5 0.397805 1.5 0 
C 1.5 -0.397805 1.341951 -0.77937 1.06066 -1.06066 
C 0.77937 -1.341951 0.397805 -1.5 0 -1.5 
C -0.397805 -1.5 -0.77937 -1.341951 -1.06066 -1.06066 
C -1.341951 -0.77937 -1.5 -0.397805 -1.5 0 
C -1.5 0.397805 -1.341951 0.77937 -1.06066 1.06066 
C -0.77937 1.341951 -0.397805 1.5 0 1.5 
z
" id="me58d86fb16" style="stroke:#000080;"/>
    </defs>
    <g>
     <use style="fill:#000080;stroke:#000080;" x="226.158431" xlink:href="#me58d86fb16" y="6.381624"/>
     <use style="fill:#000080;stroke:#000080;" x="226.158431" xlink:href="#me58d86fb16" y="6.381624"/>
    </g>
   </g>
   <g id="line2d_30">
    <path d="M 29.53256 298.944 
L 29.53256 296.649393 
L 36.60358 296.649393 
L 36.60358 295.50209 
L 45.512012 295.50209 
L 45.512012 294.928438 
L 48.691568 294.928438 
L 48.691568 294.354786 
L 53.708537 294.354786 
L 53.708537 293.207483 
L 57.6 293.207483 
L 57.6 291.486528 
L 62.175444 291.486528 
L 62.175444 290.912876 
L 64.67102 290.912876 
L 64.67102 290.339224 
L 66.853775 290.339224 
L 66.853775 289.191921 
L 68.79347 289.191921 
L 68.79347 288.618269 
L 69.687988 288.618269 
L 69.687988 287.470966 
L 70.538854 287.470966 
L 70.538854 286.897314 
L 74.921597 286.897314 
L 74.921597 286.323662 
L 80.416384 286.323662 
L 80.416384 285.75001 
L 82.206598 285.75001 
L 82.206598 285.176359 
L 83.438118 285.176359 
L 83.438118 284.602707 
L 84.955534 284.602707 
L 84.955534 284.029055 
L 85.66744 284.029055 
L 85.66744 283.455404 
L 89.697862 283.455404 
L 89.697862 282.881752 
L 89.972502 282.881752 
L 89.972502 281.734448 
L 90.242884 281.734448 
L 90.242884 281.160797 
L 92.026554 281.160797 
L 92.026554 280.587145 
L 94.080605 280.587145 
L 94.080605 280.013493 
L 94.294587 280.013493 
L 94.294587 279.439842 
L 96.676366 279.439842 
L 96.676366 278.86619 
L 96.86091 278.86619 
L 96.86091 277.718886 
L 98.606294 277.718886 
L 98.606294 277.145235 
L 100.040467 277.145235 
L 100.040467 276.571583 
L 100.493461 276.571583 
L 100.493461 275.997931 
L 100.934985 275.997931 
L 100.934985 275.42428 
L 101.079711 275.42428 
L 101.079711 274.850628 
L 101.365607 274.850628 
L 101.365607 273.703324 
L 101.506816 273.703324 
L 101.506816 273.129673 
L 102.060491 273.129673 
L 102.060491 272.556021 
L 102.859376 272.556021 
L 102.859376 271.408718 
L 105.621863 271.408718 
L 105.621863 270.835066 
L 106.802819 270.835066 
L 106.906317 269.687762 
L 107.90885 269.687762 
L 107.90885 269.114111 
L 110.016944 269.114111 
L 110.016944 268.540459 
L 110.61104 268.540459 
L 110.61104 267.966807 
L 111.974805 267.966807 
L 111.974805 267.393156 
L 113.311233 267.393156 
L 113.311233 266.819504 
L 114.0117 266.819504 
L 114.0117 266.245852 
L 115.648856 266.245852 
L 115.648856 265.6722 
L 117.985359 265.6722 
L 117.985359 265.098549 
L 118.523652 265.098549 
L 118.523652 264.524897 
L 119.045825 264.524897 
L 119.045825 263.951245 
L 119.40226 263.951245 
L 119.45259 262.803942 
L 120.665825 262.803942 
L 120.759333 261.656638 
L 121.08272 261.656638 
L 121.08272 261.082987 
L 122.148045 261.082987 
L 122.148045 260.509335 
L 123.354102 260.509335 
L 123.354102 259.935683 
L 123.790603 259.935683 
L 123.790603 259.362031 
L 124.669438 259.362031 
L 124.669438 258.78838 
L 125.147256 258.78838 
L 125.147256 258.214728 
L 125.291682 258.214728 
L 125.291682 257.641076 
L 125.434921 257.641076 
L 125.541584 256.493773 
L 125.576994 256.493773 
L 125.576994 255.346469 
L 126.50685 255.346469 
L 126.50685 254.772818 
L 127.261631 254.772818 
L 127.261631 253.625514 
L 127.48501 253.625514 
L 127.48501 253.051863 
L 127.674226 253.051863 
L 127.674226 251.904559 
L 128.590686 251.904559 
L 128.590686 251.330907 
L 129.290685 251.330907 
L 129.290685 250.757256 
L 130.61164 250.757256 
L 130.638123 249.609952 
L 131.312942 249.609952 
L 131.312942 248.462649 
L 131.814826 248.462649 
L 131.814826 247.315345 
L 132.30267 247.315345 
L 132.30267 246.741694 
L 132.80063 246.741694 
L 132.80063 246.168042 
L 133.19358 246.168042 
L 133.19358 245.020738 
L 133.510666 245.020738 
L 133.510666 244.447087 
L 134.149701 244.447087 
L 134.149701 243.873435 
L 134.870259 243.873435 
L 134.953107 242.15248 
L 135.300881 242.15248 
L 135.300881 241.578828 
L 135.740886 241.578828 
L 135.780341 240.431525 
L 135.995765 240.431525 
L 135.995765 239.857873 
L 136.170062 239.857873 
L 136.170062 239.284221 
L 136.475687 239.284221 
L 136.475687 238.71057 
L 137.70032 238.71057 
L 137.70032 238.136918 
L 139.009092 238.136918 
L 139.009092 237.563266 
L 139.333553 237.563266 
L 139.333553 236.989614 
L 139.445704 236.989614 
L 139.445704 236.415963 
L 140.211187 236.415963 
L 140.302652 235.268659 
L 140.499195 235.268659 
L 140.499195 234.695008 
L 140.88576 234.695008 
L 140.88576 234.121356 
L 141.162927 234.121356 
L 141.162927 232.974052 
L 141.521035 232.974052 
L 141.521035 231.826749 
L 142.311031 231.826749 
L 142.351634 230.679446 
L 142.579953 230.679446 
L 142.579953 230.105794 
L 142.831645 230.105794 
L 142.831645 229.532142 
L 142.975718 229.532142 
L 142.975718 228.95849 
L 143.976867 228.95849 
L 143.976867 228.384839 
L 144.414696 228.384839 
L 144.414696 227.811187 
L 145.109299 227.811187 
L 145.109299 227.237535 
L 145.270136 227.237535 
L 145.270136 226.090232 
L 145.429504 226.090232 
L 145.429504 224.942928 
L 145.598655 224.942928 
L 145.598655 224.369277 
L 145.832743 224.369277 
L 145.832743 223.795625 
L 147.092675 223.795625 
L 147.092675 223.221973 
L 147.215849 223.221973 
L 147.215849 222.648321 
L 147.378739 222.648321 
L 147.429332 221.501018 
L 147.61026 221.501018 
L 147.61026 220.927366 
L 147.769524 220.927366 
L 147.769524 220.353715 
L 147.917524 220.353715 
L 147.946974 219.206411 
L 148.40198 219.206411 
L 148.40198 218.632759 
L 148.525764 218.632759 
L 148.525764 218.059108 
L 148.975352 218.059108 
L 148.975352 217.485456 
L 149.539426 217.485456 
L 149.539426 216.911804 
L 149.990124 216.911804 
L 149.990124 216.338153 
L 150.103169 216.338153 
L 150.206871 215.190849 
L 150.539708 215.190849 
L 150.539708 214.617197 
L 150.691209 214.617197 
L 150.741418 213.469894 
L 151.015013 213.469894 
L 151.047887 211.175287 
L 151.493721 211.175287 
L 151.493721 210.601635 
L 152.474064 210.601635 
L 152.474064 210.027984 
L 152.707042 210.027984 
L 152.707042 209.454332 
L 153.48095 209.454332 
L 153.48095 208.88068 
L 153.813407 208.88068 
L 153.813407 208.307029 
L 153.93907 208.307029 
L 153.93907 207.733377 
L 154.493614 207.733377 
L 154.493614 207.159725 
L 155.148284 207.159725 
L 155.200129 206.012422 
L 155.418766 206.012422 
L 155.418766 205.43877 
L 155.816782 205.43877 
L 155.816782 204.291467 
L 155.94126 204.291467 
L 156.021696 203.144163 
L 156.064855 203.144163 
L 156.101764 201.99686 
L 156.193695 201.99686 
L 156.193695 201.423208 
L 156.370066 201.423208 
L 156.436501 200.275904 
L 156.502685 200.275904 
L 156.550661 199.128601 
L 156.847557 199.128601 
L 156.918066 197.407646 
L 157.069866 197.407646 
L 157.069866 196.833994 
L 157.329512 196.833994 
L 157.329512 196.260342 
L 157.528821 196.260342 
L 157.528821 195.686691 
L 157.697862 195.686691 
L 157.787352 193.392084 
L 158.233478 193.392084 
L 158.233478 192.818432 
L 158.368898 192.818432 
L 158.422772 191.097477 
L 158.795307 191.097477 
L 158.795307 190.523825 
L 159.211539 190.523825 
L 159.211539 189.950174 
L 159.728221 189.950174 
L 159.728221 189.376522 
L 159.882266 189.376522 
L 159.882266 188.80287 
L 160.083935 188.80287 
L 160.118135 187.081915 
L 160.20577 187.081915 
L 160.239731 185.934612 
L 160.466062 185.934612 
L 160.466062 185.36096 
L 160.675317 185.36096 
L 160.727241 184.213656 
L 160.975275 184.213656 
L 161.003133 182.492701 
L 161.242725 182.492701 
L 161.242725 180.771746 
L 161.555647 180.771746 
L 161.654251 179.624443 
L 162.030064 179.624443 
L 162.030064 179.050791 
L 162.199823 179.050791 
L 162.299167 177.329836 
L 162.470604 177.329836 
L 162.479132 176.182532 
L 162.619242 176.182532 
L 162.724641 174.461577 
L 162.891965 174.461577 
L 162.991595 173.314274 
L 163.020547 173.314274 
L 163.020547 172.740622 
L 163.262677 172.740622 
L 163.262677 172.16697 
L 163.465273 172.16697 
L 163.501492 171.019667 
L 163.601707 171.019667 
L 163.633654 169.298712 
L 163.764822 169.298712 
L 163.859601 167.004105 
L 163.938192 167.004105 
L 163.938192 166.430453 
L 164.148635 166.430453 
L 164.148635 165.856801 
L 164.310575 165.856801 
L 164.402441 164.709498 
L 164.765143 164.709498 
L 164.817412 163.562195 
L 165.284547 163.562195 
L 165.346138 162.414891 
L 165.457894 162.414891 
L 165.522458 160.693936 
L 165.586783 160.693936 
L 165.604609 159.546632 
L 165.753633 159.546632 
L 165.760698 157.825677 
L 166.165632 157.825677 
L 166.165632 157.252026 
L 166.320221 157.252026 
L 166.422524 155.53107 
L 166.473452 155.53107 
L 166.476842 154.383767 
L 166.608536 154.383767 
L 166.608536 153.810115 
L 166.735904 153.810115 
L 166.769268 152.662812 
L 166.964826 152.662812 
L 166.964826 152.08916 
L 167.141909 152.08916 
L 167.252491 149.220902 
L 167.400994 149.220902 
L 167.400994 148.64725 
L 167.760513 148.64725 
L 167.829655 146.926295 
L 167.882895 146.926295 
L 167.90477 145.778991 
L 168.254155 145.778991 
L 168.254155 145.20534 
L 168.482242 145.20534 
L 168.482242 144.631688 
L 168.635654 144.631688 
L 168.692465 142.910733 
L 168.77882 142.910733 
L 168.841088 141.189778 
L 169.175285 141.189778 
L 169.175285 140.616126 
L 169.328503 140.616126 
L 169.428951 138.895171 
L 169.471824 138.895171 
L 169.503198 137.747867 
L 169.594146 137.747867 
L 169.698717 134.879609 
L 169.87534 134.879609 
L 169.87534 134.305957 
L 170.16305 134.305957 
L 170.198683 133.158653 
L 170.310587 133.158653 
L 170.381181 132.01135 
L 170.435289 132.01135 
L 170.489231 130.864047 
L 170.623359 130.864047 
L 170.713981 129.716743 
L 170.777667 129.716743 
L 170.777667 129.143091 
L 170.893823 129.143091 
L 170.893823 128.56944 
L 171.066621 128.56944 
L 171.154974 126.848485 
L 171.183463 126.848485 
L 171.263501 125.127529 
L 171.491268 125.127529 
L 171.577501 123.406574 
L 171.645677 123.406574 
L 171.716099 121.111967 
L 171.836163 121.111967 
L 171.908303 119.964664 
L 171.95293 119.964664 
L 171.95293 119.391012 
L 172.105778 119.391012 
L 172.191475 118.243709 
L 172.337411 118.243709 
L 172.366452 116.522754 
L 172.462909 116.522754 
L 172.494143 115.37545 
L 172.670877 115.37545 
L 172.730183 112.507192 
L 172.819942 112.507192 
L 172.920958 110.786236 
L 172.988756 110.786236 
L 173.023721 109.638933 
L 173.195195 109.638933 
L 173.280304 106.770674 
L 173.362717 106.770674 
L 173.431097 105.623371 
L 173.490144 105.623371 
L 173.490144 105.049719 
L 173.771266 105.049719 
L 173.80915 103.902416 
L 173.911252 103.902416 
L 174.012759 102.181461 
L 174.043535 102.181461 
L 174.107114 99.886854 
L 174.350507 99.886854 
L 174.410829 98.73955 
L 174.509477 98.73955 
L 174.522303 97.592247 
L 174.694539 97.592247 
L 174.776865 96.444944 
L 174.965377 96.444944 
L 175.075443 95.29764 
L 175.244378 95.29764 
L 175.350666 91.85573 
L 175.51293 91.85573 
L 175.615592 90.708426 
L 175.773432 90.708426 
L 175.874576 88.987471 
L 175.969237 88.987471 
L 176.02814 87.266516 
L 176.139511 87.266516 
L 176.166757 86.119213 
L 176.294632 86.119213 
L 176.400482 83.824606 
L 176.524755 83.824606 
L 176.600793 80.956347 
L 176.646257 80.956347 
L 176.689716 79.235392 
L 176.78382 79.235392 
L 176.841911 78.088089 
L 177.007619 78.088089 
L 177.063123 76.940785 
L 177.175439 76.940785 
L 177.266964 75.21983 
L 177.383421 75.21983 
L 177.417845 73.498875 
L 177.513511 73.498875 
L 177.622973 71.204268 
L 177.760171 71.204268 
L 177.827484 70.056964 
L 178.170609 70.056964 
L 178.250169 67.762358 
L 178.305302 67.762358 
L 178.392812 66.615054 
L 178.435549 66.615054 
L 178.467959 64.894099 
L 178.580077 64.894099 
L 178.580077 64.320447 
L 178.723416 64.320447 
L 178.808858 61.452189 
L 178.838914 61.452189 
L 178.838914 60.878537 
L 178.950337 60.878537 
L 178.993385 59.731234 
L 179.121894 59.731234 
L 179.121894 59.157582 
L 179.382576 59.157582 
L 179.477727 58.010278 
L 179.546749 58.010278 
L 179.652162 55.715672 
L 179.67285 55.715672 
L 179.780666 52.273761 
L 179.842203 52.273761 
L 179.851651 51.126458 
L 180.254682 51.126458 
L 180.320702 49.405503 
L 180.38342 49.405503 
L 180.450477 47.110896 
L 180.520307 47.110896 
L 180.571741 45.963592 
L 180.662139 45.963592 
L 180.668149 44.816289 
L 180.790898 44.816289 
L 180.790898 44.242637 
L 180.94239 44.242637 
L 181.039718 42.521682 
L 181.193446 42.521682 
L 181.22403 41.374379 
L 181.485433 41.374379 
L 181.485433 40.800727 
L 181.609698 40.800727 
L 181.609698 40.227075 
L 181.821892 40.227075 
L 181.821892 39.653423 
L 181.950772 39.653423 
L 182.045422 38.50612 
L 182.088402 38.50612 
L 182.088402 37.932468 
L 182.406736 37.932468 
L 182.406736 37.358817 
L 183.017296 37.358817 
L 183.017296 36.785165 
L 183.354065 36.785165 
L 183.354065 36.211513 
L 206.542556 36.211513 
L 206.632948 34.490558 
L 206.658012 34.490558 
L 206.723886 32.769603 
L 206.838822 32.769603 
L 206.919696 30.474996 
L 207.013798 30.474996 
L 207.114321 28.754041 
L 207.137386 28.754041 
L 207.137386 28.180389 
L 207.375143 28.180389 
L 207.486202 25.885782 
L 207.505235 25.885782 
L 207.557065 24.738479 
L 207.733927 24.738479 
L 207.733927 24.164827 
L 207.942374 24.164827 
L 208.016108 23.017524 
L 208.237312 23.017524 
L 208.237312 22.443872 
L 208.358695 22.443872 
L 208.358695 21.87022 
L 208.483506 21.87022 
L 208.590171 19.001962 
L 208.754807 19.001962 
L 208.814428 17.854658 
L 208.878613 17.854658 
L 208.92801 16.707355 
L 209.046465 16.707355 
L 209.141241 14.9864 
L 209.227036 14.9864 
L 209.240175 13.839096 
L 209.375951 13.839096 
L 209.439261 12.118141 
L 209.53968 12.118141 
L 209.53968 11.544489 
L 209.756377 11.544489 
L 209.845408 9.823534 
L 209.956132 9.823534 
L 209.956132 9.249882 
L 218.942547 9.249882 
L 218.942547 8.676231 
L 219.388589 8.676231 
L 219.388589 8.102579 
L 219.539136 8.102579 
L 219.539136 7.528927 
L 219.91775 7.528927 
L 219.91775 6.955275 
L 226.158431 6.955275 
L 226.158431 6.381624 
L 338.688 6.381624 
L 338.688 6.381624 
" style="fill:none;stroke:#000080;stroke-linecap:square;stroke-width:1.5;"/>
   </g>
   <g id="line2d_31">
    <defs>
     <path d="M 0 6 
C 1.591219 6 3.117479 5.367802 4.242641 4.242641 
C 5.367802 3.117479 6 1.591219 6 0 
C 6 -1.591219 5.367802 -3.117479 4.242641 -4.242641 
C 3.117479 -5.367802 1.591219 -6 0 -6 
C -1.591219 -6 -3.117479 -5.367802 -4.242641 -4.242641 
C -5.367802 -3.117479 -6 -1.591219 -6 0 
C -6 1.591219 -5.367802 3.117479 -4.242641 4.242641 
C -3.117479 5.367802 -1.591219 6 0 6 
z
" id="m1424dbb506" style="stroke:#000080;stroke-width:1.5;"/>
    </defs>
    <g>
     <use style="fill-opacity:0;stroke:#000080;stroke-width:1.5;" x="96.86091" xlink:href="#m1424dbb506" y="278.86619"/>
     <use style="fill-opacity:0;stroke:#000080;stroke-width:1.5;" x="162.724641" xlink:href="#m1424dbb506" y="175.035229"/>
     <use style="fill-opacity:0;stroke:#000080;stroke-width:1.5;" x="179.703042" xlink:href="#m1424dbb506" y="54.568368"/>
     <use style="fill-opacity:0;stroke:#000080;stroke-width:1.5;" x="226.158431" xlink:href="#m1424dbb506" y="6.955275"/>
     <use style="fill-opacity:0;stroke:#000080;stroke-width:1.5;" x="226.158431" xlink:href="#m1424dbb506" y="6.381624"/>
     <use style="fill-opacity:0;stroke:#000080;stroke-width:1.5;" x="338.688" xlink:href="#m1424dbb506" y="6.381624"/>
    </g>
   </g>
   <g id="line2d_32">
    <path style="fill:none;stroke:#000080;stroke-linecap:square;stroke-width:1.5;"/>
    <g/>
   </g>
   <g id="line2d_33">
    <path clip-path="url(#pbff6c4cfa2)" d="M 206.133726 36.211513 
" style="fill:none;stroke:#000080;stroke-linecap:square;stroke-width:1.5;"/>
    <defs>
     <path d="M -12 12 
L 12 -12 
M -12 -12 
L 12 12 
" id="me02ff56eec" style="stroke:#000080;"/>
    </defs>
    <g clip-path="url(#pbff6c4cfa2)">
     <use style="fill:#000080;stroke:#000080;" x="206.133726" xlink:href="#me02ff56eec" y="36.211513"/>
    </g>
   </g>
   <g id="line2d_34">
    <defs>
     <path d="M 0 1.5 
C 0.397805 1.5 0.77937 1.341951 1.06066 1.06066 
C 1.341951 0.77937 1.5 0.397805 1.5 0 
C 1.5 -0.397805 1.341951 -0.77937 1.06066 -1.06066 
C 0.77937 -1.341951 0.397805 -1.5 0 -1.5 
C -0.397805 -1.5 -0.77937 -1.341951 -1.06066 -1.06066 
C -1.341951 -0.77937 -1.5 -0.397805 -1.5 0 
C -1.5 0.397805 -1.341951 0.77937 -1.06066 1.06066 
C -0.77937 1.341951 -0.397805 1.5 0 1.5 
z
" id="ma987b063d1" style="stroke:#ff00ff;"/>
    </defs>
    <g>
     <use style="fill:#ff00ff;stroke:#ff00ff;" x="220.827333" xlink:href="#ma987b063d1" y="6.381624"/>
     <use style="fill:#ff00ff;stroke:#ff00ff;" x="220.827333" xlink:href="#ma987b063d1" y="6.381624"/>
    </g>
   </g>
   <g id="line2d_35">
    <path d="M 155.82927 298.944 
L 155.82927 298.370348 
L 157.720277 298.370348 
L 157.720277 297.796697 
L 158.374293 297.796697 
L 158.374293 297.223045 
L 158.92645 297.223045 
L 158.92645 296.649393 
L 159.108409 296.649393 
L 159.108409 295.50209 
L 159.268002 295.50209 
L 159.268002 294.928438 
L 159.723229 294.928438 
L 159.723229 294.354786 
L 160.394148 294.354786 
L 160.394148 293.781135 
L 160.528149 293.781135 
L 160.571004 292.633831 
L 160.708377 292.633831 
L 160.708377 292.060179 
L 161.012409 292.060179 
L 161.012409 291.486528 
L 161.712255 291.486528 
L 161.712255 290.912876 
L 162.121678 290.912876 
L 162.121678 290.339224 
L 162.316387 290.339224 
L 162.316387 289.765573 
L 162.487656 289.765573 
L 162.517456 288.618269 
L 163.331824 288.618269 
L 163.331824 288.044617 
L 163.477355 288.044617 
L 163.477355 287.470966 
L 164.210504 287.470966 
L 164.210504 286.897314 
L 164.398623 286.897314 
L 164.417705 285.176359 
L 164.682688 285.176359 
L 164.723964 284.029055 
L 164.91407 284.029055 
L 165.021253 282.3081 
L 165.032303 282.3081 
L 165.032303 281.734448 
L 165.259123 281.734448 
L 165.309935 280.587145 
L 165.418321 280.587145 
L 165.43632 279.439842 
L 165.880363 279.439842 
L 165.978297 278.292538 
L 166.061806 278.292538 
L 166.061806 277.718886 
L 166.316801 277.718886 
L 166.412321 275.997931 
L 166.554628 275.997931 
L 166.605172 274.276976 
L 166.705822 274.276976 
L 166.779265 273.129673 
L 166.825841 273.129673 
L 166.892162 271.982369 
L 167.001045 271.982369 
L 167.001045 271.408718 
L 167.239518 271.408718 
L 167.320442 269.114111 
L 167.359153 269.114111 
L 167.359153 268.540459 
L 168.629664 268.540459 
L 168.740162 267.393156 
L 168.766934 267.393156 
L 168.766934 266.819504 
L 169.105458 266.819504 
L 169.204297 265.6722 
L 169.276617 265.6722 
L 169.319866 263.951245 
L 169.437534 263.951245 
L 169.525979 262.803942 
L 169.61964 262.803942 
L 169.6253 261.656638 
L 169.763406 261.656638 
L 169.763406 261.082987 
L 169.961597 261.082987 
L 169.989332 258.78838 
L 170.212368 258.78838 
L 170.318747 256.493773 
L 170.446091 256.493773 
L 170.521516 254.199166 
L 170.596616 254.199166 
L 170.668729 251.904559 
L 170.735235 251.904559 
L 170.735235 251.330907 
L 170.878029 251.330907 
L 170.878029 250.757256 
L 171.019664 250.757256 
L 171.019664 250.183604 
L 171.240302 250.183604 
L 171.332914 248.462649 
L 171.45054 248.462649 
L 171.45054 247.888997 
L 171.635594 247.888997 
L 171.67086 246.168042 
L 171.803727 246.168042 
L 171.908303 244.447087 
L 171.957882 244.447087 
L 172.031987 243.299783 
L 172.091045 243.299783 
L 172.093501 242.15248 
L 172.448474 242.15248 
L 172.520528 239.857873 
L 172.777482 239.857873 
L 172.866999 237.563266 
L 172.977085 237.563266 
L 173.072554 236.415963 
L 173.102716 236.415963 
L 173.102716 235.842311 
L 173.29636 235.842311 
L 173.310109 234.695008 
L 173.492411 234.695008 
L 173.508272 233.547704 
L 173.605389 233.547704 
L 173.605389 232.974052 
L 173.740004 232.974052 
L 173.740004 232.400401 
L 173.928948 232.400401 
L 173.928948 231.826749 
L 174.133355 231.826749 
L 174.133355 229.532142 
L 174.253123 229.532142 
L 174.305129 227.811187 
L 174.39792 227.811187 
L 174.430173 226.663884 
L 174.639439 226.663884 
L 174.686074 225.51658 
L 174.776865 225.51658 
L 174.776865 224.942928 
L 174.892309 224.942928 
L 174.954957 223.221973 
L 175.135376 223.221973 
L 175.135376 222.648321 
L 175.375102 222.648321 
L 175.431987 220.927366 
L 175.603545 220.927366 
L 175.603545 220.353715 
L 175.85677 220.353715 
L 175.85677 219.206411 
L 176.008528 219.206411 
L 176.073165 218.059108 
L 176.230812 218.059108 
L 176.250176 216.911804 
L 176.452211 216.911804 
L 176.452211 216.338153 
L 176.62354 216.338153 
L 176.651932 215.190849 
L 176.78382 215.190849 
L 176.879286 212.322591 
L 177.02614 212.322591 
L 177.114767 210.601635 
L 177.292506 210.601635 
L 177.387048 209.454332 
L 177.463036 209.454332 
L 177.463036 208.88068 
L 177.597911 208.88068 
L 177.597911 208.307029 
L 177.790317 208.307029 
L 177.88573 206.012422 
L 177.933241 206.012422 
L 177.954316 204.865118 
L 178.050583 204.865118 
L 178.050583 204.291467 
L 178.187935 204.291467 
L 178.281203 200.849556 
L 178.341389 200.849556 
L 178.423593 198.554949 
L 178.484993 198.554949 
L 178.58177 196.833994 
L 178.667907 196.833994 
L 178.706614 195.113039 
L 178.817212 195.113039 
L 178.922133 192.818432 
L 179.059405 192.818432 
L 179.139941 190.523825 
L 179.3129 190.523825 
L 179.329128 188.80287 
L 179.431023 188.80287 
L 179.522703 187.655567 
L 179.597938 187.655567 
L 179.687158 185.934612 
L 179.755358 185.934612 
L 179.840628 184.787308 
L 179.942718 184.787308 
L 179.942718 184.213656 
L 180.120337 184.213656 
L 180.194586 182.492701 
L 180.233133 182.492701 
L 180.233133 181.91905 
L 180.41698 181.91905 
L 180.48239 180.771746 
L 180.533936 180.771746 
L 180.567209 177.903487 
L 180.678662 177.903487 
L 180.789406 176.182532 
L 180.79239 176.182532 
L 180.838567 175.035229 
L 180.985222 175.035229 
L 181.052948 173.314274 
L 181.171568 173.314274 
L 181.245843 171.593319 
L 181.306774 171.593319 
L 181.354499 169.872363 
L 181.438065 169.872363 
L 181.499761 168.72506 
L 181.594035 168.72506 
L 181.676464 167.004105 
L 181.762738 167.004105 
L 181.838757 165.28315 
L 181.904653 165.28315 
L 181.992593 163.562195 
L 182.117457 163.562195 
L 182.215334 161.267588 
L 182.24006 161.267588 
L 182.278455 158.972981 
L 182.379521 158.972981 
L 182.447478 157.825677 
L 182.507063 157.825677 
L 182.610848 155.53107 
L 182.643071 155.53107 
L 182.673896 153.810115 
L 182.771371 153.810115 
L 182.87757 152.08916 
L 183.034356 152.08916 
L 183.129842 149.220902 
L 183.189744 149.220902 
L 183.250736 147.499946 
L 183.35149 147.499946 
L 183.459346 146.352643 
L 183.529606 146.352643 
L 183.611009 144.631688 
L 183.805342 144.631688 
L 183.88672 141.763429 
L 184.04587 141.763429 
L 184.134758 139.468822 
L 184.172891 139.468822 
L 184.245235 138.321519 
L 184.295332 138.321519 
L 184.295332 137.747867 
L 184.470151 137.747867 
L 184.531649 134.879609 
L 184.585731 134.879609 
L 184.585731 134.305957 
L 184.702934 134.305957 
L 184.788544 132.585002 
L 184.924415 132.585002 
L 184.924415 132.01135 
L 185.04054 132.01135 
L 185.15009 128.56944 
L 185.159381 128.56944 
L 185.263573 126.848485 
L 185.32464 126.848485 
L 185.410692 125.127529 
L 185.435854 125.127529 
L 185.542955 122.259271 
L 185.6302 122.259271 
L 185.6302 121.685619 
L 185.75745 121.685619 
L 185.858139 118.817361 
L 185.874864 118.817361 
L 185.921609 116.522754 
L 186.002559 116.522754 
L 186.107347 114.228147 
L 186.163342 114.228147 
L 186.163342 113.654495 
L 186.370384 113.654495 
L 186.400689 112.507192 
L 186.484833 112.507192 
L 186.5857 109.065281 
L 186.615633 109.065281 
L 186.72212 105.049719 
L 186.756059 105.049719 
L 186.822684 102.755112 
L 186.927917 102.755112 
L 187.017913 100.460506 
L 187.05024 100.460506 
L 187.137535 97.018595 
L 187.17378 97.018595 
L 187.184122 95.29764 
L 187.302613 95.29764 
L 187.302613 94.723988 
L 187.445785 94.723988 
L 187.454949 93.576685 
L 187.55847 93.576685 
L 187.665404 90.708426 
L 187.784677 90.708426 
L 187.867387 87.266516 
L 187.987265 87.266516 
L 188.089647 84.398257 
L 188.142571 84.398257 
L 188.224578 82.103651 
L 188.307171 82.103651 
L 188.360406 80.956347 
L 188.419259 80.956347 
L 188.419259 80.382695 
L 188.539243 80.382695 
L 188.610839 78.088089 
L 188.692575 78.088089 
L 188.762601 76.940785 
L 188.835168 76.940785 
L 188.91399 75.793482 
L 189.011088 75.793482 
L 189.099313 74.646178 
L 189.173263 74.646178 
L 189.26985 73.498875 
L 189.479568 73.498875 
L 189.479568 72.925223 
L 189.687691 72.925223 
L 189.71275 71.77792 
L 189.81974 71.77792 
L 189.81974 71.204268 
L 190.014199 71.204268 
L 190.109747 70.056964 
L 190.211729 70.056964 
L 190.288042 68.909661 
L 190.467959 68.909661 
L 190.467959 68.336009 
L 190.78199 68.336009 
L 190.78199 67.762358 
L 191.013442 67.762358 
L 191.013442 67.188706 
L 191.306463 67.188706 
L 191.306463 66.615054 
L 191.477032 66.615054 
L 191.477032 66.041402 
L 191.78309 66.041402 
L 191.78309 65.467751 
L 192.206 65.467751 
L 192.206 64.894099 
L 193.001518 64.894099 
L 193.001518 64.320447 
L 193.129912 64.320447 
L 193.192291 63.173144 
L 193.247146 63.173144 
L 193.305469 60.878537 
L 193.365774 60.878537 
L 193.456924 55.14202 
L 193.563384 55.14202 
L 193.563384 54.568368 
L 194.237212 54.568368 
L 194.28269 53.421065 
L 194.378766 53.421065 
L 194.378766 52.847413 
L 194.490645 52.847413 
L 194.523254 51.700109 
L 194.694133 51.700109 
L 194.700853 50.552806 
L 195.147247 50.552806 
L 195.147247 49.979154 
L 195.338725 49.979154 
L 195.405958 48.258199 
L 195.457501 48.258199 
L 195.457501 47.684547 
L 195.651983 47.684547 
L 195.743355 46.537244 
L 196.050735 46.537244 
L 196.144995 45.389941 
L 196.588313 45.389941 
L 196.588313 44.816289 
L 196.904383 44.816289 
L 196.904383 44.242637 
L 197.122098 44.242637 
L 197.122098 43.668985 
L 197.278693 43.668985 
L 197.278693 43.095334 
L 207.84115 43.095334 
L 207.950861 41.374379 
L 208.115079 41.374379 
L 208.226179 39.653423 
L 208.252763 39.653423 
L 208.25338 38.50612 
L 208.408359 38.50612 
L 208.441696 37.358817 
L 208.583807 37.358817 
L 208.583807 36.785165 
L 208.71635 36.785165 
L 208.740095 35.637861 
L 208.963928 35.637861 
L 208.973711 34.490558 
L 209.120975 34.490558 
L 209.120975 33.916906 
L 209.335939 33.916906 
L 209.383769 32.769603 
L 209.594107 32.769603 
L 209.64038 31.048648 
L 209.797698 31.048648 
L 209.903106 29.327692 
L 209.919115 29.327692 
L 209.919115 28.754041 
L 210.032163 28.754041 
L 210.14282 26.459434 
L 210.351099 26.459434 
L 210.376003 25.31213 
L 210.469552 25.31213 
L 210.56152 23.017524 
L 210.660271 23.017524 
L 210.727673 21.296568 
L 210.789207 21.296568 
L 210.789207 20.722917 
L 210.928327 20.722917 
L 210.928327 20.149265 
L 211.041094 20.149265 
L 211.11281 18.42831 
L 211.185277 18.42831 
L 211.203282 16.707355 
L 211.3632 16.707355 
L 211.404498 14.9864 
L 211.560291 14.9864 
L 211.560291 14.412748 
L 211.861233 14.412748 
L 211.861233 13.839096 
L 212.072666 13.839096 
L 212.072666 13.265444 
L 212.211062 13.265444 
L 212.211062 12.691793 
L 212.970894 12.691793 
L 212.990443 10.397186 
L 213.214509 10.397186 
L 213.214509 9.823534 
L 213.688144 9.823534 
L 213.688144 9.249882 
L 214.067565 9.249882 
L 214.067565 8.676231 
L 219.380432 8.676231 
L 219.380432 8.102579 
L 220.603015 8.102579 
L 220.603015 7.528927 
L 220.748757 7.528927 
L 220.827333 6.381624 
L 338.688 6.381624 
L 338.688 6.381624 
" style="fill:none;stroke:#ff00ff;stroke-linecap:square;stroke-width:1.5;"/>
   </g>
   <g id="line2d_36">
    <defs>
     <path d="M 0 8.485281 
L 5.091169 0 
L 0 -8.485281 
L -5.091169 0 
z
" id="m5946ef2f13" style="stroke:#ff00ff;stroke-linejoin:miter;stroke-width:1.5;"/>
    </defs>
    <g>
     <use style="fill-opacity:0;stroke:#ff00ff;stroke-linejoin:miter;stroke-width:1.5;" x="186.981343" xlink:href="#m5946ef2f13" y="101.034157"/>
     <use style="fill-opacity:0;stroke:#ff00ff;stroke-linejoin:miter;stroke-width:1.5;" x="220.827333" xlink:href="#m5946ef2f13" y="6.955275"/>
     <use style="fill-opacity:0;stroke:#ff00ff;stroke-linejoin:miter;stroke-width:1.5;" x="220.827333" xlink:href="#m5946ef2f13" y="6.381624"/>
     <use style="fill-opacity:0;stroke:#ff00ff;stroke-linejoin:miter;stroke-width:1.5;" x="338.688" xlink:href="#m5946ef2f13" y="6.381624"/>
    </g>
   </g>
   <g id="line2d_37">
    <path style="fill:none;stroke:#ff00ff;stroke-linecap:square;stroke-width:1.5;"/>
    <g/>
   </g>
   <g id="line2d_38">
    <path clip-path="url(#pbff6c4cfa2)" d="M 206.133726 43.095334 
" style="fill:none;stroke:#ff00ff;stroke-linecap:square;stroke-width:1.5;"/>
    <defs>
     <path d="M -12 12 
L 12 -12 
M -12 -12 
L 12 12 
" id="ma45f8139fe" style="stroke:#ff00ff;"/>
    </defs>
    <g clip-path="url(#pbff6c4cfa2)">
     <use style="fill:#ff00ff;stroke:#ff00ff;" x="206.133726" xlink:href="#ma45f8139fe" y="43.095334"/>
    </g>
   </g>
   <g id="line2d_39">
    <defs>
     <path d="M 0 1.5 
C 0.397805 1.5 0.77937 1.341951 1.06066 1.06066 
C 1.341951 0.77937 1.5 0.397805 1.5 0 
C 1.5 -0.397805 1.341951 -0.77937 1.06066 -1.06066 
C 0.77937 -1.341951 0.397805 -1.5 0 -1.5 
C -0.397805 -1.5 -0.77937 -1.341951 -1.06066 -1.06066 
C -1.341951 -0.77937 -1.5 -0.397805 -1.5 0 
C -1.5 0.397805 -1.341951 0.77937 -1.06066 1.06066 
C -0.77937 1.341951 -0.397805 1.5 0 1.5 
z
" id="ma2e52aa882" style="stroke:#ff7500;"/>
    </defs>
    <g>
     <use style="fill:#ff7500;stroke:#ff7500;" x="267.997178" xlink:href="#ma2e52aa882" y="235.842311"/>
     <use style="fill:#ff7500;stroke:#ff7500;" x="267.997178" xlink:href="#ma2e52aa882" y="235.842311"/>
    </g>
   </g>
   <g id="line2d_40">
    <path d="M 110.859585 298.944 
L 110.859585 298.370348 
L 111.74176 298.370348 
L 111.74176 297.796697 
L 118.148599 297.796697 
L 118.148599 297.223045 
L 124.254646 297.223045 
L 124.254646 296.649393 
L 127.923363 296.649393 
L 127.954256 295.50209 
L 128.077285 295.50209 
L 128.077285 294.928438 
L 129.347769 294.928438 
L 129.347769 294.354786 
L 130.236587 294.354786 
L 130.236587 293.781135 
L 130.848555 293.781135 
L 130.848555 293.207483 
L 132.446401 293.207483 
L 132.446401 292.633831 
L 134.386096 292.633831 
L 134.386096 292.060179 
L 139.285267 292.060179 
L 139.285267 291.486528 
L 139.9494 291.486528 
L 139.9494 290.912876 
L 140.973763 290.912876 
L 140.973763 290.339224 
L 142.215919 290.339224 
L 142.215919 289.765573 
L 142.44601 289.765573 
L 142.44601 289.191921 
L 142.949611 289.191921 
L 142.949611 288.618269 
L 147.86833 288.618269 
L 147.86833 288.044617 
L 148.344551 288.044617 
L 148.344551 287.470966 
L 152.00633 287.470966 
L 152.00633 286.897314 
L 153.40939 286.897314 
L 153.40939 286.323662 
L 154.641235 286.323662 
L 154.641235 285.75001 
L 155.659924 285.75001 
L 155.659924 285.176359 
L 156.034038 285.176359 
L 156.034038 284.602707 
L 156.345845 284.602707 
L 156.345845 284.029055 
L 159.941533 284.029055 
L 159.995685 282.881752 
L 160.882091 282.881752 
L 160.882091 282.3081 
L 161.356752 282.3081 
L 161.356752 281.734448 
L 162.191157 281.734448 
L 162.286241 280.587145 
L 164.686444 280.587145 
L 164.686444 280.013493 
L 165.266391 280.013493 
L 165.266391 278.86619 
L 165.9084 278.86619 
L 165.9084 278.292538 
L 166.279131 278.292538 
L 166.279131 277.718886 
L 169.577129 277.718886 
L 169.687442 276.571583 
L 170.348634 276.571583 
L 170.348634 275.997931 
L 171.118647 275.997931 
L 171.118647 275.42428 
L 171.350865 275.42428 
L 171.350865 274.850628 
L 171.798732 274.850628 
L 171.798732 274.276976 
L 171.920711 274.276976 
L 172.012256 273.129673 
L 172.515733 273.129673 
L 172.515733 272.556021 
L 173.704209 272.556021 
L 173.704209 271.982369 
L 175.957432 271.982369 
L 175.957432 271.408718 
L 176.501879 271.408718 
L 176.559013 270.261414 
L 177.336204 270.261414 
L 177.336204 269.687762 
L 177.527906 269.687762 
L 177.614026 268.540459 
L 178.948679 268.540459 
L 178.948679 267.966807 
L 180.14667 267.966807 
L 180.14667 267.393156 
L 180.520307 267.393156 
L 180.530908 266.245852 
L 180.762533 266.245852 
L 180.762533 265.6722 
L 183.702136 265.6722 
L 183.702136 265.098549 
L 184.368386 265.098549 
L 184.368386 264.524897 
L 186.811069 264.524897 
L 186.811069 263.951245 
L 191.469756 263.951245 
L 191.469756 263.377593 
L 191.704286 263.377593 
L 191.704286 262.803942 
L 192.002495 262.803942 
L 192.002495 262.23029 
L 192.745619 262.23029 
L 192.745619 261.656638 
L 199.38598 261.656638 
L 199.4608 260.509335 
L 199.886145 260.509335 
L 199.886145 259.935683 
L 201.043592 259.935683 
L 201.121407 258.78838 
L 201.245564 258.78838 
L 201.245564 258.214728 
L 210.125351 258.214728 
L 210.125351 257.641076 
L 210.485593 257.641076 
L 210.534712 256.493773 
L 211.109926 256.493773 
L 211.109926 255.920121 
L 212.387645 255.920121 
L 212.387645 255.346469 
L 215.607889 255.346469 
L 215.607889 254.772818 
L 215.895016 254.772818 
L 215.993185 253.625514 
L 220.533045 253.625514 
L 220.533045 253.051863 
L 223.771767 253.051863 
L 223.810542 251.904559 
L 226.886358 251.904559 
L 226.886358 251.330907 
L 227.708636 251.330907 
L 227.708636 250.757256 
L 228.327136 250.757256 
L 228.327136 250.183604 
L 228.851512 250.183604 
L 228.851512 249.609952 
L 229.051715 249.609952 
L 229.051715 249.036301 
L 233.04453 249.036301 
L 233.04453 248.462649 
L 233.20214 248.462649 
L 233.20214 247.888997 
L 236.084362 247.888997 
L 236.084362 247.315345 
L 236.422266 247.315345 
L 236.422266 246.741694 
L 239.250733 246.741694 
L 239.250733 246.168042 
L 239.449133 246.168042 
L 239.449133 245.59439 
L 241.683832 245.59439 
L 241.780038 244.447087 
L 247.25616 244.447087 
L 247.25616 243.873435 
L 247.435041 243.873435 
L 247.435041 243.299783 
L 248.832574 243.299783 
L 248.832574 242.726132 
L 251.806727 242.726132 
L 251.806727 242.15248 
L 255.254992 242.15248 
L 255.254992 241.578828 
L 257.185606 241.578828 
L 257.185606 241.005176 
L 258.959496 241.005176 
L 258.959496 240.431525 
L 259.844433 240.431525 
L 259.844433 239.857873 
L 262.073327 239.857873 
L 262.073327 239.284221 
L 263.452149 239.284221 
L 263.452149 238.71057 
L 264.070725 238.71057 
L 264.070725 238.136918 
L 264.709326 238.136918 
L 264.709326 237.563266 
L 266.397924 237.563266 
L 266.397924 236.989614 
L 266.962566 236.989614 
L 266.962566 236.415963 
L 267.997178 236.415963 
L 267.997178 235.842311 
L 338.688 235.842311 
L 338.688 235.842311 
" style="fill:none;stroke:#ff7500;stroke-linecap:square;stroke-width:1.5;"/>
   </g>
   <g id="line2d_41">
    <defs>
     <path d="M 0 -6 
L -1.347084 -1.854102 
L -5.706339 -1.854102 
L -2.179628 0.708204 
L -3.526712 4.854102 
L -0 2.291796 
L 3.526712 4.854102 
L 2.179628 0.708204 
L 5.706339 -1.854102 
L 1.347084 -1.854102 
z
" id="mf1acf16797" style="stroke:#ff7500;stroke-linejoin:bevel;stroke-width:1.5;"/>
    </defs>
    <g>
     <use style="fill-opacity:0;stroke:#ff7500;stroke-linejoin:bevel;stroke-width:1.5;" x="164.686444" xlink:href="#mf1acf16797" y="280.587145"/>
     <use style="fill-opacity:0;stroke:#ff7500;stroke-linejoin:bevel;stroke-width:1.5;" x="241.780038" xlink:href="#mf1acf16797" y="244.447087"/>
     <use style="fill-opacity:0;stroke:#ff7500;stroke-linejoin:bevel;stroke-width:1.5;" x="267.997178" xlink:href="#mf1acf16797" y="236.415963"/>
     <use style="fill-opacity:0;stroke:#ff7500;stroke-linejoin:bevel;stroke-width:1.5;" x="267.997178" xlink:href="#mf1acf16797" y="235.842311"/>
     <use style="fill-opacity:0;stroke:#ff7500;stroke-linejoin:bevel;stroke-width:1.5;" x="338.688" xlink:href="#mf1acf16797" y="235.842311"/>
    </g>
   </g>
   <g id="line2d_42">
    <path style="fill:none;stroke:#ff7500;stroke-linecap:square;stroke-width:1.5;"/>
    <g/>
   </g>
   <g id="line2d_43">
    <path clip-path="url(#pbff6c4cfa2)" d="M 206.133726 258.214728 
" style="fill:none;stroke:#ff7500;stroke-linecap:square;stroke-width:1.5;"/>
    <defs>
     <path d="M -12 12 
L 12 -12 
M -12 -12 
L 12 12 
" id="m28d25648dc" style="stroke:#ff7500;"/>
    </defs>
    <g clip-path="url(#pbff6c4cfa2)">
     <use style="fill:#ff7500;stroke:#ff7500;" x="206.133726" xlink:href="#m28d25648dc" y="258.214728"/>
    </g>
   </g>
   <g id="line2d_44">
    <defs>
     <path d="M 0 1.5 
C 0.397805 1.5 0.77937 1.341951 1.06066 1.06066 
C 1.341951 0.77937 1.5 0.397805 1.5 0 
C 1.5 -0.397805 1.341951 -0.77937 1.06066 -1.06066 
C 0.77937 -1.341951 0.397805 -1.5 0 -1.5 
C -0.397805 -1.5 -0.77937 -1.341951 -1.06066 -1.06066 
C -1.341951 -0.77937 -1.5 -0.397805 -1.5 0 
C -1.5 0.397805 -1.341951 0.77937 -1.06066 1.06066 
C -0.77937 1.341951 -0.397805 1.5 0 1.5 
z
" id="m3a5bed7d14" style="stroke:#6495ed;"/>
    </defs>
    <g>
     <use style="fill:#6495ed;stroke:#6495ed;" x="233.35248" xlink:href="#m3a5bed7d14" y="253.051863"/>
     <use style="fill:#6495ed;stroke:#6495ed;" x="233.35248" xlink:href="#m3a5bed7d14" y="253.051863"/>
    </g>
   </g>
   <g id="line2d_45">
    <path d="M 124.330801 298.944 
L 124.330801 298.370348 
L 126.673734 298.370348 
L 126.673734 297.796697 
L 129.79784 297.796697 
L 129.79784 297.223045 
L 131.962617 297.223045 
L 131.962617 296.649393 
L 134.192921 296.649393 
L 134.192921 296.075741 
L 138.745106 296.075741 
L 138.745106 295.50209 
L 139.36567 295.50209 
L 139.36567 294.928438 
L 139.87165 294.928438 
L 139.87165 294.354786 
L 141.407239 294.354786 
L 141.407239 293.781135 
L 142.923465 293.781135 
L 142.923465 293.207483 
L 144.111818 293.207483 
L 144.111818 292.633831 
L 144.830078 292.633831 
L 144.830078 292.060179 
L 145.654676 292.060179 
L 145.654676 291.486528 
L 147.061745 291.486528 
L 147.061745 290.912876 
L 148.142046 290.912876 
L 148.142046 290.339224 
L 148.620389 290.339224 
L 148.620389 289.765573 
L 150.67444 289.765573 
L 150.67444 289.191921 
L 151.501723 289.191921 
L 151.565603 288.044617 
L 151.959639 288.044617 
L 151.959639 287.470966 
L 153.098289 287.470966 
L 153.098289 286.897314 
L 154.707925 286.897314 
L 154.707925 286.323662 
L 155.206599 286.323662 
L 155.206599 285.75001 
L 155.457066 285.75001 
L 155.457066 285.176359 
L 157.203057 285.176359 
L 157.203057 284.602707 
L 157.426604 284.602707 
L 157.426604 284.029055 
L 158.314856 284.029055 
L 158.314856 283.455404 
L 158.705563 283.455404 
L 158.705563 282.881752 
L 159.638147 282.881752 
L 159.638147 282.3081 
L 159.847601 282.3081 
L 159.847601 281.734448 
L 160.769609 281.734448 
L 160.802491 280.587145 
L 161.347658 280.587145 
L 161.347658 280.013493 
L 164.448194 280.013493 
L 164.448194 279.439842 
L 165.572509 279.439842 
L 165.572509 278.86619 
L 165.97132 278.86619 
L 165.97132 278.292538 
L 166.303112 278.292538 
L 166.303112 277.718886 
L 166.530991 277.718886 
L 166.530991 277.145235 
L 168.183606 277.145235 
L 168.183606 276.571583 
L 170.16305 276.571583 
L 170.16305 275.997931 
L 170.321466 275.997931 
L 170.40555 274.850628 
L 171.470916 274.850628 
L 171.470916 274.276976 
L 172.203683 274.276976 
L 172.203683 273.703324 
L 174.056708 273.703324 
L 174.056708 273.129673 
L 175.368996 273.129673 
L 175.368996 272.556021 
L 176.429239 272.556021 
L 176.429239 271.982369 
L 176.576117 271.982369 
L 176.576117 271.408718 
L 177.169932 271.408718 
L 177.169932 270.835066 
L 178.291535 270.835066 
L 178.291535 270.261414 
L 179.028077 270.261414 
L 179.028077 269.687762 
L 182.86698 269.687762 
L 182.86698 269.114111 
L 185.355668 269.114111 
L 185.440425 267.966807 
L 186.496666 267.966807 
L 186.496666 267.393156 
L 189.012019 267.393156 
L 189.012019 266.819504 
L 190.375219 266.819504 
L 190.375219 266.245852 
L 191.980521 266.245852 
L 191.980521 265.6722 
L 193.187162 265.6722 
L 193.187162 265.098549 
L 195.315391 265.098549 
L 195.315391 264.524897 
L 195.773074 264.524897 
L 195.773074 263.951245 
L 201.405016 263.951245 
L 201.405016 263.377593 
L 204.170297 263.377593 
L 204.170297 262.803942 
L 208.149602 262.803942 
L 208.149602 262.23029 
L 208.268817 262.23029 
L 208.268817 261.656638 
L 208.463071 261.656638 
L 208.471309 260.509335 
L 208.606523 260.509335 
L 208.606523 259.935683 
L 210.759804 259.935683 
L 210.77959 258.78838 
L 215.120597 258.78838 
L 215.120597 258.214728 
L 219.053469 258.214728 
L 219.053469 257.641076 
L 219.555138 257.641076 
L 219.555138 257.067425 
L 220.6877 257.067425 
L 220.6877 255.920121 
L 221.719238 255.920121 
L 221.719238 255.346469 
L 226.98265 255.346469 
L 226.98265 254.772818 
L 231.592243 254.772818 
L 231.592243 254.199166 
L 232.509479 254.199166 
L 232.509479 253.625514 
L 233.35248 253.625514 
L 233.35248 253.051863 
L 338.688 253.051863 
L 338.688 253.051863 
" style="fill:none;stroke:#6495ed;stroke-linecap:square;stroke-width:1.5;"/>
   </g>
   <g id="line2d_46">
    <defs>
     <path d="M -0 6 
L 6 -6 
L -6 -6 
z
" id="ma7bbe7af27" style="stroke:#6495ed;stroke-linejoin:miter;stroke-width:1.5;"/>
    </defs>
    <g>
     <use style="fill-opacity:0;stroke:#6495ed;stroke-linejoin:miter;stroke-width:1.5;" x="177.169932" xlink:href="#ma7bbe7af27" y="270.835066"/>
     <use style="fill-opacity:0;stroke:#6495ed;stroke-linejoin:miter;stroke-width:1.5;" x="226.98265" xlink:href="#ma7bbe7af27" y="254.772818"/>
     <use style="fill-opacity:0;stroke:#6495ed;stroke-linejoin:miter;stroke-width:1.5;" x="233.35248" xlink:href="#ma7bbe7af27" y="253.051863"/>
     <use style="fill-opacity:0;stroke:#6495ed;stroke-linejoin:miter;stroke-width:1.5;" x="233.35248" xlink:href="#ma7bbe7af27" y="253.051863"/>
     <use style="fill-opacity:0;stroke:#6495ed;stroke-linejoin:miter;stroke-width:1.5;" x="338.688" xlink:href="#ma7bbe7af27" y="253.051863"/>
    </g>
   </g>
   <g id="line2d_47">
    <path style="fill:none;stroke:#6495ed;stroke-linecap:square;stroke-width:1.5;"/>
    <g/>
   </g>
   <g id="line2d_48">
    <path clip-path="url(#pbff6c4cfa2)" d="M 206.133726 262.803942 
" style="fill:none;stroke:#6495ed;stroke-linecap:square;stroke-width:1.5;"/>
    <defs>
     <path d="M -12 12 
L 12 -12 
M -12 -12 
L 12 12 
" id="mdaa300a418" style="stroke:#6495ed;"/>
    </defs>
    <g clip-path="url(#pbff6c4cfa2)">
     <use style="fill:#6495ed;stroke:#6495ed;" x="206.133726" xlink:href="#mdaa300a418" y="262.803942"/>
    </g>
   </g>
   <g id="line2d_49">
    <defs>
     <path d="M 0 1.5 
C 0.397805 1.5 0.77937 1.341951 1.06066 1.06066 
C 1.341951 0.77937 1.5 0.397805 1.5 0 
C 1.5 -0.397805 1.341951 -0.77937 1.06066 -1.06066 
C 0.77937 -1.341951 0.397805 -1.5 0 -1.5 
C -0.397805 -1.5 -0.77937 -1.341951 -1.06066 -1.06066 
C -1.341951 -0.77937 -1.5 -0.397805 -1.5 0 
C -1.5 0.397805 -1.341951 0.77937 -1.06066 1.06066 
C -0.77937 1.341951 -0.397805 1.5 0 1.5 
z
" id="m7da745e399" style="stroke:#ff0000;"/>
    </defs>
    <g>
     <use style="fill:#ff0000;stroke:#ff0000;" x="218.340246" xlink:href="#m7da745e399" y="6.381624"/>
     <use style="fill:#ff0000;stroke:#ff0000;" x="218.340246" xlink:href="#m7da745e399" y="6.381624"/>
    </g>
   </g>
   <g id="line2d_50">
    <path d="M 62.175444 298.944 
L 62.175444 298.370348 
L 75.555822 298.370348 
L 75.555822 297.796697 
L 78.941764 297.796697 
L 78.941764 297.223045 
L 82.626842 297.223045 
L 82.626842 296.649393 
L 83.830028 296.649393 
L 83.830028 296.075741 
L 84.588378 296.075741 
L 84.588378 295.50209 
L 85.66744 295.50209 
L 85.66744 294.928438 
L 86.012784 294.928438 
L 86.012784 294.354786 
L 89.418828 294.354786 
L 89.418828 293.781135 
L 89.972502 293.781135 
L 89.972502 293.207483 
L 90.242884 293.207483 
L 90.242884 292.633831 
L 92.969447 292.633831 
L 92.969447 292.060179 
L 94.080605 292.060179 
L 94.080605 290.912876 
L 94.294587 290.912876 
L 94.294587 289.191921 
L 94.921215 289.191921 
L 94.921215 288.618269 
L 95.326798 288.618269 
L 95.326798 288.044617 
L 96.301313 288.044617 
L 96.301313 287.470966 
L 96.489848 287.470966 
L 96.489848 286.897314 
L 97.580158 286.897314 
L 97.580158 286.323662 
L 97.928955 286.323662 
L 97.928955 285.75001 
L 98.43941 285.75001 
L 98.43941 285.176359 
L 99.575392 285.176359 
L 99.575392 284.602707 
L 100.493461 284.602707 
L 100.493461 284.029055 
L 100.934985 284.029055 
L 100.934985 283.455404 
L 101.079711 283.455404 
L 101.079711 282.881752 
L 101.223245 282.881752 
L 101.223245 281.160797 
L 101.365607 281.160797 
L 101.365607 280.587145 
L 101.923711 280.587145 
L 101.923711 280.013493 
L 104.23523 280.013493 
L 104.23523 279.439842 
L 104.592361 279.439842 
L 104.592361 278.292538 
L 106.06061 278.292538 
L 106.168594 274.850628 
L 106.275913 274.850628 
L 106.275913 274.276976 
L 106.48859 274.276976 
L 106.48859 273.129673 
L 106.698704 273.129673 
L 106.698704 272.556021 
L 107.009204 272.556021 
L 107.009204 271.408718 
L 107.314272 271.408718 
L 107.414787 269.687762 
L 108.006005 269.687762 
L 108.006005 269.114111 
L 109.222105 269.114111 
L 109.222105 268.540459 
L 110.016944 268.540459 
L 110.016944 266.819504 
L 110.188761 266.819504 
L 110.188761 265.6722 
L 110.358901 265.6722 
L 110.443353 249.036301 
L 110.527398 249.036301 
L 110.527398 247.888997 
L 111.023335 247.888997 
L 111.023335 247.315345 
L 111.74176 247.315345 
L 111.74176 246.741694 
L 112.72987 246.741694 
L 112.72987 245.59439 
L 113.095487 245.59439 
L 113.167699 242.15248 
L 113.239614 242.15248 
L 113.311233 236.415963 
L 113.594805 236.415963 
L 113.664983 234.695008 
L 113.804498 234.695008 
L 113.873839 231.253097 
L 114.216469 231.253097 
L 114.216469 228.95849 
L 114.351658 228.95849 
L 114.418861 227.811187 
L 114.882171 227.811187 
L 114.882171 225.51658 
L 115.077025 225.51658 
L 115.077025 224.942928 
L 115.773423 224.942928 
L 115.835374 218.632759 
L 115.897107 218.632759 
L 115.958621 185.934612 
L 116.019919 185.934612 
L 116.081002 173.314274 
L 116.262979 173.314274 
L 116.262979 171.593319 
L 116.914437 171.593319 
L 116.914437 171.019667 
L 117.030313 171.019667 
L 117.030313 159.546632 
L 117.486268 159.546632 
L 117.486268 150.368205 
L 118.094355 150.368205 
L 118.148599 137.174215 
L 120.142369 137.174215 
L 120.238719 134.879609 
L 120.429836 134.879609 
L 120.429836 134.305957 
L 120.618882 134.305957 
L 120.712642 106.770674 
L 121.219499 106.770674 
L 121.219499 106.197023 
L 121.400219 106.197023 
L 121.400219 105.623371 
L 121.623516 105.623371 
L 121.623516 104.476068 
L 121.974949 104.476068 
L 121.974949 103.902416 
L 122.233953 103.902416 
L 122.233953 103.328764 
L 122.573415 103.328764 
L 122.573415 101.607809 
L 123.111324 101.607809 
L 123.111324 101.034157 
L 123.712047 101.034157 
L 123.712047 100.460506 
L 123.94666 100.460506 
L 124.024168 98.165899 
L 124.101333 98.165899 
L 124.101333 97.018595 
L 125.147256 97.018595 
L 125.219619 70.630616 
L 125.576994 70.630616 
L 125.576994 59.731234 
L 126.540355 59.731234 
L 126.540355 56.862975 
L 127.293718 56.862975 
L 127.293718 56.289323 
L 127.453273 56.289323 
L 127.453273 54.568368 
L 127.674226 54.568368 
L 127.674226 44.816289 
L 128.827155 44.816289 
L 128.827155 44.242637 
L 129.963666 44.242637 
L 129.963666 43.668985 
L 130.182344 43.668985 
L 130.236587 41.94803 
L 130.664567 41.94803 
L 130.664567 40.227075 
L 131.236397 40.227075 
L 131.236397 23.017524 
L 206.190485 23.017524 
L 206.301381 10.397186 
L 206.314503 10.397186 
L 206.36999 7.528927 
L 218.305743 7.528927 
L 218.340246 6.381624 
L 338.688 6.381624 
L 338.688 6.381624 
" style="fill:none;stroke:#ff0000;stroke-linecap:square;stroke-width:1.5;"/>
   </g>
   <g id="line2d_51">
    <defs>
     <path d="M 0 -6 
L -5.196152 -3 
L -5.196152 3 
L -0 6 
L 5.196152 3 
L 5.196152 -3 
z
" id="mdcd3c4f737" style="stroke:#ff0000;stroke-linejoin:miter;stroke-width:1.5;"/>
    </defs>
    <g>
     <use style="fill-opacity:0;stroke:#ff0000;stroke-linejoin:miter;stroke-width:1.5;" x="116.914437" xlink:href="#mdcd3c4f737" y="171.019667"/>
     <use style="fill-opacity:0;stroke:#ff0000;stroke-linejoin:miter;stroke-width:1.5;" x="131.236397" xlink:href="#mdcd3c4f737" y="23.017524"/>
     <use style="fill-opacity:0;stroke:#ff0000;stroke-linejoin:miter;stroke-width:1.5;" x="218.340246" xlink:href="#mdcd3c4f737" y="6.955275"/>
     <use style="fill-opacity:0;stroke:#ff0000;stroke-linejoin:miter;stroke-width:1.5;" x="218.340246" xlink:href="#mdcd3c4f737" y="6.381624"/>
     <use style="fill-opacity:0;stroke:#ff0000;stroke-linejoin:miter;stroke-width:1.5;" x="338.688" xlink:href="#mdcd3c4f737" y="6.381624"/>
    </g>
   </g>
   <g id="line2d_52">
    <path style="fill:none;stroke:#ff0000;stroke-linecap:square;stroke-width:1.5;"/>
    <g/>
   </g>
   <g id="line2d_53">
    <path clip-path="url(#pbff6c4cfa2)" d="M 206.133726 23.017524 
" style="fill:none;stroke:#ff0000;stroke-linecap:square;stroke-width:1.5;"/>
    <defs>
     <path d="M -12 12 
L 12 -12 
M -12 -12 
L 12 12 
" id="md233f6b3ef" style="stroke:#ff0000;"/>
    </defs>
    <g clip-path="url(#pbff6c4cfa2)">
     <use style="fill:#ff0000;stroke:#ff0000;" x="206.133726" xlink:href="#md233f6b3ef" y="23.017524"/>
    </g>
   </g>
   <g id="line2d_54">
    <path d="M 338.688 253.051863 
L 369.60768 293.092752 
" style="fill:none;stroke:#6495ed;stroke-linecap:square;stroke-width:1.5;"/>
    <g>
     <use style="fill-opacity:0;stroke:#6495ed;stroke-linejoin:miter;stroke-width:1.5;" x="338.688" xlink:href="#ma7bbe7af27" y="253.051863"/>
     <use style="fill-opacity:0;stroke:#6495ed;stroke-linejoin:miter;stroke-width:1.5;" x="369.60768" xlink:href="#ma7bbe7af27" y="293.092752"/>
    </g>
   </g>
   <g id="line2d_55">
    <path d="M 338.688 235.842311 
L 369.60768 222.877782 
" style="fill:none;stroke:#ff7500;stroke-linecap:square;stroke-width:1.5;"/>
    <g>
     <use style="fill-opacity:0;stroke:#ff7500;stroke-linejoin:bevel;stroke-width:1.5;" x="338.688" xlink:href="#mf1acf16797" y="235.842311"/>
     <use style="fill-opacity:0;stroke:#ff7500;stroke-linejoin:bevel;stroke-width:1.5;" x="369.60768" xlink:href="#mf1acf16797" y="222.877782"/>
    </g>
   </g>
   <g id="line2d_56">
    <path d="M 338.688 6.381624 
L 369.60768 152.662812 
" style="fill:none;stroke:#000080;stroke-linecap:square;stroke-width:1.5;"/>
    <g>
     <use style="fill-opacity:0;stroke:#000080;stroke-width:1.5;" x="338.688" xlink:href="#m1424dbb506" y="6.381624"/>
     <use style="fill-opacity:0;stroke:#000080;stroke-width:1.5;" x="369.60768" xlink:href="#m1424dbb506" y="152.662812"/>
    </g>
   </g>
   <g id="line2d_57">
    <path d="M 338.688 6.381624 
L 369.60768 82.447842 
" style="fill:none;stroke:#ff00ff;stroke-linecap:square;stroke-width:1.5;"/>
    <g>
     <use style="fill-opacity:0;stroke:#ff00ff;stroke-linejoin:miter;stroke-width:1.5;" x="338.688" xlink:href="#m5946ef2f13" y="6.381624"/>
     <use style="fill-opacity:0;stroke:#ff00ff;stroke-linejoin:miter;stroke-width:1.5;" x="369.60768" xlink:href="#m5946ef2f13" y="82.447842"/>
    </g>
   </g>
   <g id="line2d_58">
    <path d="M 338.688 6.381624 
L 369.60768 12.232871 
" style="fill:none;stroke:#ff0000;stroke-linecap:square;stroke-width:1.5;"/>
    <g>
     <use style="fill-opacity:0;stroke:#ff0000;stroke-linejoin:miter;stroke-width:1.5;" x="338.688" xlink:href="#mdcd3c4f737" y="6.381624"/>
     <use style="fill-opacity:0;stroke:#ff0000;stroke-linejoin:miter;stroke-width:1.5;" x="369.60768" xlink:href="#mdcd3c4f737" y="12.232871"/>
    </g>
   </g>
   <g id="line2d_59">
    <path d="M 338.688 298.944 
L 338.688 6.381624 
" style="fill:none;stroke:#000000;stroke-linecap:square;stroke-width:1.5;"/>
   </g>
   <g id="patch_3">
    <path d="M 57.6 298.944 
L 57.6 3.456 
" style="fill:none;stroke:#000000;stroke-linecap:square;stroke-linejoin:miter;stroke-width:0.8;"/>
   </g>
   <g id="patch_4">
    <path d="M 338.688 298.944 
L 338.688 3.456 
" style="fill:none;stroke:#000000;stroke-linecap:square;stroke-linejoin:miter;stroke-width:0.8;"/>
   </g>
   <g id="patch_5">
    <path d="M 57.6 298.944 
L 338.688 298.944 
" style="fill:none;stroke:#000000;stroke-linecap:square;stroke-linejoin:miter;stroke-width:0.8;"/>
   </g>
   <g id="patch_6">
    <path d="M 57.6 3.456 
L 338.688 3.456 
" style="fill:none;stroke:#000000;stroke-linecap:square;stroke-linejoin:miter;stroke-width:0.8;"/>
   </g>
   <g id="text_13">
    <!-- f4 -->
    <g transform="translate(375.22944 297.78369)scale(0.17 -0.17)">
     <use xlink:href="#DejaVuSans-66"/>
     <use x="35.205078" xlink:href="#DejaVuSans-34"/>
    </g>
   </g>
   <g id="text_14">
    <!-- f3 -->
    <g transform="translate(375.22944 227.56872)scale(0.17 -0.17)">
     <defs>
      <path d="M 2597 2516 
Q 3050 2419 3304 2112 
Q 3559 1806 3559 1356 
Q 3559 666 3084 287 
Q 2609 -91 1734 -91 
Q 1441 -91 1130 -33 
Q 819 25 488 141 
L 488 750 
Q 750 597 1062 519 
Q 1375 441 1716 441 
Q 2309 441 2620 675 
Q 2931 909 2931 1356 
Q 2931 1769 2642 2001 
Q 2353 2234 1838 2234 
L 1294 2234 
L 1294 2753 
L 1863 2753 
Q 2328 2753 2575 2939 
Q 2822 3125 2822 3475 
Q 2822 3834 2567 4026 
Q 2313 4219 1838 4219 
Q 1578 4219 1281 4162 
Q 984 4106 628 3988 
L 628 4550 
Q 988 4650 1302 4700 
Q 1616 4750 1894 4750 
Q 2613 4750 3031 4423 
Q 3450 4097 3450 3541 
Q 3450 3153 3228 2886 
Q 3006 2619 2597 2516 
z
" id="DejaVuSans-33" transform="scale(0.015625)"/>
     </defs>
     <use xlink:href="#DejaVuSans-66"/>
     <use x="35.205078" xlink:href="#DejaVuSans-33"/>
    </g>
   </g>
   <g id="text_15">
    <!-- f1 -->
    <g transform="translate(375.22944 157.353749)scale(0.17 -0.17)">
     <use xlink:href="#DejaVuSans-66"/>
     <use x="35.205078" xlink:href="#DejaVuSans-31"/>
    </g>
   </g>
   <g id="text_16">
    <!-- f2 -->
    <g transform="translate(375.22944 87.138779)scale(0.17 -0.17)">
     <use xlink:href="#DejaVuSans-66"/>
     <use x="35.205078" xlink:href="#DejaVuSans-32"/>
    </g>
   </g>
   <g id="text_17">
    <!-- f5 -->
    <g transform="translate(375.22944 16.923809)scale(0.17 -0.17)">
     <defs>
      <path d="M 691 4666 
L 3169 4666 
L 3169 4134 
L 1269 4134 
L 1269 2991 
Q 1406 3038 1543 3061 
Q 1681 3084 1819 3084 
Q 2600 3084 3056 2656 
Q 3513 2228 3513 1497 
Q 3513 744 3044 326 
Q 2575 -91 1722 -91 
Q 1428 -91 1123 -41 
Q 819 9 494 109 
L 494 744 
Q 775 591 1075 516 
Q 1375 441 1709 441 
Q 2250 441 2565 725 
Q 2881 1009 2881 1497 
Q 2881 1984 2565 2268 
Q 2250 2553 1709 2553 
Q 1456 2553 1204 2497 
Q 953 2441 691 2322 
L 691 4666 
z
" id="DejaVuSans-35" transform="scale(0.015625)"/>
     </defs>
     <use xlink:href="#DejaVuSans-66"/>
     <use x="35.205078" xlink:href="#DejaVuSans-35"/>
    </g>
   </g>
   <g id="text_18">
    <!-- bbob -->
    <g transform="translate(60.41088 14.161286)scale(0.102 -0.102)">
     <defs>
      <path d="M 3116 1747 
Q 3116 2381 2855 2742 
Q 2594 3103 2138 3103 
Q 1681 3103 1420 2742 
Q 1159 2381 1159 1747 
Q 1159 1113 1420 752 
Q 1681 391 2138 391 
Q 2594 391 2855 752 
Q 3116 1113 3116 1747 
z
M 1159 2969 
Q 1341 3281 1617 3432 
Q 1894 3584 2278 3584 
Q 2916 3584 3314 3078 
Q 3713 2572 3713 1747 
Q 3713 922 3314 415 
Q 2916 -91 2278 -91 
Q 1894 -91 1617 61 
Q 1341 213 1159 525 
L 1159 0 
L 581 0 
L 581 4863 
L 1159 4863 
L 1159 2969 
z
" id="DejaVuSans-62" transform="scale(0.015625)"/>
     </defs>
     <use xlink:href="#DejaVuSans-62"/>
     <use x="63.476562" xlink:href="#DejaVuSans-62"/>
     <use x="126.953125" xlink:href="#DejaVuSans-6f"/>
     <use x="188.134766" xlink:href="#DejaVuSans-62"/>
    </g>
    <!-- Separable functions, 10-D -->
    <g transform="translate(60.41088 25.583055)scale(0.102 -0.102)">
     <defs>
      <path d="M 3425 4513 
L 3425 3897 
Q 3066 4069 2747 4153 
Q 2428 4238 2131 4238 
Q 1616 4238 1336 4038 
Q 1056 3838 1056 3469 
Q 1056 3159 1242 3001 
Q 1428 2844 1947 2747 
L 2328 2669 
Q 3034 2534 3370 2195 
Q 3706 1856 3706 1288 
Q 3706 609 3251 259 
Q 2797 -91 1919 -91 
Q 1588 -91 1214 -16 
Q 841 59 441 206 
L 441 856 
Q 825 641 1194 531 
Q 1563 422 1919 422 
Q 2459 422 2753 634 
Q 3047 847 3047 1241 
Q 3047 1584 2836 1778 
Q 2625 1972 2144 2069 
L 1759 2144 
Q 1053 2284 737 2584 
Q 422 2884 422 3419 
Q 422 4038 858 4394 
Q 1294 4750 2059 4750 
Q 2388 4750 2728 4690 
Q 3069 4631 3425 4513 
z
" id="DejaVuSans-53" transform="scale(0.015625)"/>
      <path d="M 1259 4147 
L 1259 519 
L 2022 519 
Q 2988 519 3436 956 
Q 3884 1394 3884 2338 
Q 3884 3275 3436 3711 
Q 2988 4147 2022 4147 
L 1259 4147 
z
M 628 4666 
L 1925 4666 
Q 3281 4666 3915 4102 
Q 4550 3538 4550 2338 
Q 4550 1131 3912 565 
Q 3275 0 1925 0 
L 628 0 
L 628 4666 
z
" id="DejaVuSans-44" transform="scale(0.015625)"/>
     </defs>
     <use xlink:href="#DejaVuSans-53"/>
     <use x="63.476562" xlink:href="#DejaVuSans-65"/>
     <use x="125" xlink:href="#DejaVuSans-70"/>
     <use x="188.476562" xlink:href="#DejaVuSans-61"/>
     <use x="249.755859" xlink:href="#DejaVuSans-72"/>
     <use x="290.869141" xlink:href="#DejaVuSans-61"/>
     <use x="352.148438" xlink:href="#DejaVuSans-62"/>
     <use x="415.625" xlink:href="#DejaVuSans-6c"/>
     <use x="443.408203" xlink:href="#DejaVuSans-65"/>
     <use x="504.931641" xlink:href="#DejaVuSans-20"/>
     <use x="536.71875" xlink:href="#DejaVuSans-66"/>
     <use x="571.923828" xlink:href="#DejaVuSans-75"/>
     <use x="635.302734" xlink:href="#DejaVuSans-6e"/>
     <use x="698.681641" xlink:href="#DejaVuSans-63"/>
     <use x="753.662109" xlink:href="#DejaVuSans-74"/>
     <use x="792.871094" xlink:href="#DejaVuSans-69"/>
     <use x="820.654297" xlink:href="#DejaVuSans-6f"/>
     <use x="881.835938" xlink:href="#DejaVuSans-6e"/>
     <use x="945.214844" xlink:href="#DejaVuSans-73"/>
     <use x="997.314453" xlink:href="#DejaVuSans-2c"/>
     <use x="1029.101562" xlink:href="#DejaVuSans-20"/>
     <use x="1060.888672" xlink:href="#DejaVuSans-31"/>
     <use x="1124.511719" xlink:href="#DejaVuSans-30"/>
     <use x="1188.134766" xlink:href="#DejaVuSans-2d"/>
     <use x="1224.21875" xlink:href="#DejaVuSans-44"/>
    </g>
    <!-- 51 targets: 100..1e-08 -->
    <g transform="translate(60.41088 37.004824)scale(0.102 -0.102)">
     <defs>
      <path d="M 750 794 
L 1409 794 
L 1409 0 
L 750 0 
L 750 794 
z
M 750 3309 
L 1409 3309 
L 1409 2516 
L 750 2516 
L 750 3309 
z
" id="DejaVuSans-3a" transform="scale(0.015625)"/>
     </defs>
     <use xlink:href="#DejaVuSans-35"/>
     <use x="63.623047" xlink:href="#DejaVuSans-31"/>
     <use x="127.246094" xlink:href="#DejaVuSans-20"/>
     <use x="159.033203" xlink:href="#DejaVuSans-74"/>
     <use x="198.242188" xlink:href="#DejaVuSans-61"/>
     <use x="259.521484" xlink:href="#DejaVuSans-72"/>
     <use x="298.884766" xlink:href="#DejaVuSans-67"/>
     <use x="362.361328" xlink:href="#DejaVuSans-65"/>
     <use x="423.884766" xlink:href="#DejaVuSans-74"/>
     <use x="463.09375" xlink:href="#DejaVuSans-73"/>
     <use x="515.193359" xlink:href="#DejaVuSans-3a"/>
     <use x="548.884766" xlink:href="#DejaVuSans-20"/>
     <use x="580.671875" xlink:href="#DejaVuSans-31"/>
     <use x="644.294922" xlink:href="#DejaVuSans-30"/>
     <use x="707.917969" xlink:href="#DejaVuSans-30"/>
     <use x="771.541016" xlink:href="#DejaVuSans-2e"/>
     <use x="803.328125" xlink:href="#DejaVuSans-2e"/>
     <use x="835.115234" xlink:href="#DejaVuSans-31"/>
     <use x="898.738281" xlink:href="#DejaVuSans-65"/>
     <use x="960.261719" xlink:href="#DejaVuSans-2d"/>
     <use x="996.345703" xlink:href="#DejaVuSans-30"/>
     <use x="1059.96875" xlink:href="#DejaVuSans-38"/>
    </g>
    <!-- 15 instances -->
    <g transform="translate(60.41088 48.426593)scale(0.102 -0.102)">
     <use xlink:href="#DejaVuSans-31"/>
     <use x="63.623047" xlink:href="#DejaVuSans-35"/>
     <use x="127.246094" xlink:href="#DejaVuSans-20"/>
     <use x="159.033203" xlink:href="#DejaVuSans-69"/>
     <use x="186.816406" xlink:href="#DejaVuSans-6e"/>
     <use x="250.195312" xlink:href="#DejaVuSans-73"/>
     <use x="302.294922" xlink:href="#DejaVuSans-74"/>
     <use x="341.503906" xlink:href="#DejaVuSans-61"/>
     <use x="402.783203" xlink:href="#DejaVuSans-6e"/>
     <use x="466.162109" xlink:href="#DejaVuSans-63"/>
     <use x="521.142578" xlink:href="#DejaVuSans-65"/>
     <use x="582.666016" xlink:href="#DejaVuSans-73"/>
    </g>
   </g>
   <g id="text_19">
    <!-- v2.4 -->
    <g style="fill:#808080;" transform="translate(187.233062 293.909432)scale(0.1 -0.1)">
     <use xlink:href="#DejaVuSans-76"/>
     <use x="59.179688" xlink:href="#DejaVuSans-32"/>
     <use x="122.802734" xlink:href="#DejaVuSans-2e"/>
     <use x="154.589844" xlink:href="#DejaVuSans-34"/>
    </g>
   </g>
  </g>
 </g>
 <defs>
  <clipPath id="pbff6c4cfa2">
   <rect height="295.488" width="281.088" x="57.6" y="3.456"/>
  </clipPath>
 </defs>
</svg>
