<?xml version="1.0" encoding="utf-8" standalone="no"?>
<!DOCTYPE svg PUBLIC "-//W3C//DTD SVG 1.1//EN"
  "http://www.w3.org/Graphics/SVG/1.1/DTD/svg11.dtd">
<svg height="345.6pt" version="1.1" viewBox="0 0 460.8 345.6" width="460.8pt" xmlns="http://www.w3.org/2000/svg" xmlns:xlink="http://www.w3.org/1999/xlink">
 <metadata>
  <rdf:RDF xmlns:cc="http://creativecommons.org/ns#" xmlns:dc="http://purl.org/dc/elements/1.1/" xmlns:rdf="http://www.w3.org/1999/02/22-rdf-syntax-ns#">
   <cc:Work>
    <dc:type rdf:resource="http://purl.org/dc/dcmitype/StillImage"/>
    <dc:date>2021-04-26T18:48:48.014782</dc:date>
    <dc:format>image/svg+xml</dc:format>
    <dc:creator>
     <cc:Agent>
      <dc:title>Matplotlib v3.4.1, https://matplotlib.org/</dc:title>
     </cc:Agent>
    </dc:creator>
   </cc:Work>
  </rdf:RDF>
 </metadata>
 <defs>
  <style type="text/css">*{stroke-linecap:butt;stroke-linejoin:round;}</style>
 </defs>
 <g id="figure_1">
  <g id="patch_1">
   <path d="M 0 345.6 
L 460.8 345.6 
L 460.8 0 
L 0 0 
z
" style="fill:#ffffff;"/>
  </g>
  <g id="axes_1">
   <g id="patch_2">
    <path d="M 57.6 298.944 
L 338.688 298.944 
L 338.688 27.648 
L 57.6 27.648 
z
" style="fill:#ffffff;"/>
   </g>
   <g id="matplotlib.axis_1">
    <g id="xtick_1">
     <g id="line2d_1">
      <path clip-path="url(#pb9d46fe724)" d="M 57.6 298.944 
L 57.6 27.648 
" style="fill:none;stroke:#b0b0b0;stroke-linecap:square;stroke-width:0.8;"/>
     </g>
     <g id="line2d_2">
      <defs>
       <path d="M 0 0 
L 0 3.5 
" id="m1eec6a21da" style="stroke:#000000;stroke-width:0.8;"/>
      </defs>
      <g>
       <use style="stroke:#000000;stroke-width:0.8;" x="57.6" xlink:href="#m1eec6a21da" y="298.944"/>
      </g>
     </g>
     <g id="text_1">
      <!-- 0 -->
      <g transform="translate(51.2375 321.140875)scale(0.2 -0.2)">
       <defs>
        <path d="M 2034 4250 
Q 1547 4250 1301 3770 
Q 1056 3291 1056 2328 
Q 1056 1369 1301 889 
Q 1547 409 2034 409 
Q 2525 409 2770 889 
Q 3016 1369 3016 2328 
Q 3016 3291 2770 3770 
Q 2525 4250 2034 4250 
z
M 2034 4750 
Q 2819 4750 3233 4129 
Q 3647 3509 3647 2328 
Q 3647 1150 3233 529 
Q 2819 -91 2034 -91 
Q 1250 -91 836 529 
Q 422 1150 422 2328 
Q 422 3509 836 4129 
Q 1250 4750 2034 4750 
z
" id="DejaVuSans-30" transform="scale(0.015625)"/>
       </defs>
       <use xlink:href="#DejaVuSans-30"/>
      </g>
     </g>
    </g>
    <g id="xtick_2">
     <g id="line2d_3">
      <path clip-path="url(#pb9d46fe724)" d="M 137.910857 298.944 
L 137.910857 27.648 
" style="fill:none;stroke:#b0b0b0;stroke-linecap:square;stroke-width:0.8;"/>
     </g>
     <g id="line2d_4">
      <g>
       <use style="stroke:#000000;stroke-width:0.8;" x="137.910857" xlink:href="#m1eec6a21da" y="298.944"/>
      </g>
     </g>
     <g id="text_2">
      <!-- 2 -->
      <g transform="translate(131.548357 321.140875)scale(0.2 -0.2)">
       <defs>
        <path d="M 1228 531 
L 3431 531 
L 3431 0 
L 469 0 
L 469 531 
Q 828 903 1448 1529 
Q 2069 2156 2228 2338 
Q 2531 2678 2651 2914 
Q 2772 3150 2772 3378 
Q 2772 3750 2511 3984 
Q 2250 4219 1831 4219 
Q 1534 4219 1204 4116 
Q 875 4013 500 3803 
L 500 4441 
Q 881 4594 1212 4672 
Q 1544 4750 1819 4750 
Q 2544 4750 2975 4387 
Q 3406 4025 3406 3419 
Q 3406 3131 3298 2873 
Q 3191 2616 2906 2266 
Q 2828 2175 2409 1742 
Q 1991 1309 1228 531 
z
" id="DejaVuSans-32" transform="scale(0.015625)"/>
       </defs>
       <use xlink:href="#DejaVuSans-32"/>
      </g>
     </g>
    </g>
    <g id="xtick_3">
     <g id="line2d_5">
      <path clip-path="url(#pb9d46fe724)" d="M 218.221714 298.944 
L 218.221714 27.648 
" style="fill:none;stroke:#b0b0b0;stroke-linecap:square;stroke-width:0.8;"/>
     </g>
     <g id="line2d_6">
      <g>
       <use style="stroke:#000000;stroke-width:0.8;" x="218.221714" xlink:href="#m1eec6a21da" y="298.944"/>
      </g>
     </g>
     <g id="text_3">
      <!-- 4 -->
      <g transform="translate(211.859214 321.140875)scale(0.2 -0.2)">
       <defs>
        <path d="M 2419 4116 
L 825 1625 
L 2419 1625 
L 2419 4116 
z
M 2253 4666 
L 3047 4666 
L 3047 1625 
L 3713 1625 
L 3713 1100 
L 3047 1100 
L 3047 0 
L 2419 0 
L 2419 1100 
L 313 1100 
L 313 1709 
L 2253 4666 
z
" id="DejaVuSans-34" transform="scale(0.015625)"/>
       </defs>
       <use xlink:href="#DejaVuSans-34"/>
      </g>
     </g>
    </g>
    <g id="xtick_4">
     <g id="line2d_7">
      <path clip-path="url(#pb9d46fe724)" d="M 298.532571 298.944 
L 298.532571 27.648 
" style="fill:none;stroke:#b0b0b0;stroke-linecap:square;stroke-width:0.8;"/>
     </g>
     <g id="line2d_8">
      <g>
       <use style="stroke:#000000;stroke-width:0.8;" x="298.532571" xlink:href="#m1eec6a21da" y="298.944"/>
      </g>
     </g>
     <g id="text_4">
      <!-- 6 -->
      <g transform="translate(292.170071 321.140875)scale(0.2 -0.2)">
       <defs>
        <path d="M 2113 2584 
Q 1688 2584 1439 2293 
Q 1191 2003 1191 1497 
Q 1191 994 1439 701 
Q 1688 409 2113 409 
Q 2538 409 2786 701 
Q 3034 994 3034 1497 
Q 3034 2003 2786 2293 
Q 2538 2584 2113 2584 
z
M 3366 4563 
L 3366 3988 
Q 3128 4100 2886 4159 
Q 2644 4219 2406 4219 
Q 1781 4219 1451 3797 
Q 1122 3375 1075 2522 
Q 1259 2794 1537 2939 
Q 1816 3084 2150 3084 
Q 2853 3084 3261 2657 
Q 3669 2231 3669 1497 
Q 3669 778 3244 343 
Q 2819 -91 2113 -91 
Q 1303 -91 875 529 
Q 447 1150 447 2328 
Q 447 3434 972 4092 
Q 1497 4750 2381 4750 
Q 2619 4750 2861 4703 
Q 3103 4656 3366 4563 
z
" id="DejaVuSans-36" transform="scale(0.015625)"/>
       </defs>
       <use xlink:href="#DejaVuSans-36"/>
      </g>
     </g>
    </g>
    <g id="xtick_5">
     <g id="line2d_9">
      <path clip-path="url(#pb9d46fe724)" d="M 97.755429 298.944 
L 97.755429 27.648 
" style="fill:none;stroke:#b0b0b0;stroke-linecap:square;stroke-width:0.8;"/>
     </g>
     <g id="line2d_10">
      <defs>
       <path d="M 0 0 
L 0 2 
" id="mc272fc9ad7" style="stroke:#000000;stroke-width:0.6;"/>
      </defs>
      <g>
       <use style="stroke:#000000;stroke-width:0.6;" x="97.755429" xlink:href="#mc272fc9ad7" y="298.944"/>
      </g>
     </g>
    </g>
    <g id="xtick_6">
     <g id="line2d_11">
      <path clip-path="url(#pb9d46fe724)" d="M 178.066286 298.944 
L 178.066286 27.648 
" style="fill:none;stroke:#b0b0b0;stroke-linecap:square;stroke-width:0.8;"/>
     </g>
     <g id="line2d_12">
      <g>
       <use style="stroke:#000000;stroke-width:0.6;" x="178.066286" xlink:href="#mc272fc9ad7" y="298.944"/>
      </g>
     </g>
    </g>
    <g id="xtick_7">
     <g id="line2d_13">
      <path clip-path="url(#pb9d46fe724)" d="M 258.377143 298.944 
L 258.377143 27.648 
" style="fill:none;stroke:#b0b0b0;stroke-linecap:square;stroke-width:0.8;"/>
     </g>
     <g id="line2d_14">
      <g>
       <use style="stroke:#000000;stroke-width:0.6;" x="258.377143" xlink:href="#mc272fc9ad7" y="298.944"/>
      </g>
     </g>
    </g>
    <g id="xtick_8">
     <g id="line2d_15">
      <path clip-path="url(#pb9d46fe724)" d="M 338.688 298.944 
L 338.688 27.648 
" style="fill:none;stroke:#b0b0b0;stroke-linecap:square;stroke-width:0.8;"/>
     </g>
     <g id="line2d_16">
      <g>
       <use style="stroke:#000000;stroke-width:0.6;" x="338.688" xlink:href="#mc272fc9ad7" y="298.944"/>
      </g>
     </g>
    </g>
    <g id="text_5">
     <!-- log10(# f-evals / dimension) -->
     <g transform="translate(77.764078 342.217594)scale(0.17 -0.17)">
      <defs>
       <path d="M 603 4863 
L 1178 4863 
L 1178 0 
L 603 0 
L 603 4863 
z
" id="DejaVuSans-6c" transform="scale(0.015625)"/>
       <path d="M 1959 3097 
Q 1497 3097 1228 2736 
Q 959 2375 959 1747 
Q 959 1119 1226 758 
Q 1494 397 1959 397 
Q 2419 397 2687 759 
Q 2956 1122 2956 1747 
Q 2956 2369 2687 2733 
Q 2419 3097 1959 3097 
z
M 1959 3584 
Q 2709 3584 3137 3096 
Q 3566 2609 3566 1747 
Q 3566 888 3137 398 
Q 2709 -91 1959 -91 
Q 1206 -91 779 398 
Q 353 888 353 1747 
Q 353 2609 779 3096 
Q 1206 3584 1959 3584 
z
" id="DejaVuSans-6f" transform="scale(0.015625)"/>
       <path d="M 2906 1791 
Q 2906 2416 2648 2759 
Q 2391 3103 1925 3103 
Q 1463 3103 1205 2759 
Q 947 2416 947 1791 
Q 947 1169 1205 825 
Q 1463 481 1925 481 
Q 2391 481 2648 825 
Q 2906 1169 2906 1791 
z
M 3481 434 
Q 3481 -459 3084 -895 
Q 2688 -1331 1869 -1331 
Q 1566 -1331 1297 -1286 
Q 1028 -1241 775 -1147 
L 775 -588 
Q 1028 -725 1275 -790 
Q 1522 -856 1778 -856 
Q 2344 -856 2625 -561 
Q 2906 -266 2906 331 
L 2906 616 
Q 2728 306 2450 153 
Q 2172 0 1784 0 
Q 1141 0 747 490 
Q 353 981 353 1791 
Q 353 2603 747 3093 
Q 1141 3584 1784 3584 
Q 2172 3584 2450 3431 
Q 2728 3278 2906 2969 
L 2906 3500 
L 3481 3500 
L 3481 434 
z
" id="DejaVuSans-67" transform="scale(0.015625)"/>
       <path d="M 794 531 
L 1825 531 
L 1825 4091 
L 703 3866 
L 703 4441 
L 1819 4666 
L 2450 4666 
L 2450 531 
L 3481 531 
L 3481 0 
L 794 0 
L 794 531 
z
" id="DejaVuSans-31" transform="scale(0.015625)"/>
       <path d="M 1984 4856 
Q 1566 4138 1362 3434 
Q 1159 2731 1159 2009 
Q 1159 1288 1364 580 
Q 1569 -128 1984 -844 
L 1484 -844 
Q 1016 -109 783 600 
Q 550 1309 550 2009 
Q 550 2706 781 3412 
Q 1013 4119 1484 4856 
L 1984 4856 
z
" id="DejaVuSans-28" transform="scale(0.015625)"/>
       <path d="M 3272 2816 
L 2363 2816 
L 2100 1772 
L 3016 1772 
L 3272 2816 
z
M 2803 4594 
L 2478 3297 
L 3391 3297 
L 3719 4594 
L 4219 4594 
L 3897 3297 
L 4872 3297 
L 4872 2816 
L 3775 2816 
L 3519 1772 
L 4513 1772 
L 4513 1294 
L 3397 1294 
L 3072 0 
L 2572 0 
L 2894 1294 
L 1978 1294 
L 1656 0 
L 1153 0 
L 1478 1294 
L 494 1294 
L 494 1772 
L 1594 1772 
L 1856 2816 
L 850 2816 
L 850 3297 
L 1978 3297 
L 2297 4594 
L 2803 4594 
z
" id="DejaVuSans-23" transform="scale(0.015625)"/>
       <path id="DejaVuSans-20" transform="scale(0.015625)"/>
       <path d="M 2375 4863 
L 2375 4384 
L 1825 4384 
Q 1516 4384 1395 4259 
Q 1275 4134 1275 3809 
L 1275 3500 
L 2222 3500 
L 2222 3053 
L 1275 3053 
L 1275 0 
L 697 0 
L 697 3053 
L 147 3053 
L 147 3500 
L 697 3500 
L 697 3744 
Q 697 4328 969 4595 
Q 1241 4863 1831 4863 
L 2375 4863 
z
" id="DejaVuSans-66" transform="scale(0.015625)"/>
       <path d="M 313 2009 
L 1997 2009 
L 1997 1497 
L 313 1497 
L 313 2009 
z
" id="DejaVuSans-2d" transform="scale(0.015625)"/>
       <path d="M 3597 1894 
L 3597 1613 
L 953 1613 
Q 991 1019 1311 708 
Q 1631 397 2203 397 
Q 2534 397 2845 478 
Q 3156 559 3463 722 
L 3463 178 
Q 3153 47 2828 -22 
Q 2503 -91 2169 -91 
Q 1331 -91 842 396 
Q 353 884 353 1716 
Q 353 2575 817 3079 
Q 1281 3584 2069 3584 
Q 2775 3584 3186 3129 
Q 3597 2675 3597 1894 
z
M 3022 2063 
Q 3016 2534 2758 2815 
Q 2500 3097 2075 3097 
Q 1594 3097 1305 2825 
Q 1016 2553 972 2059 
L 3022 2063 
z
" id="DejaVuSans-65" transform="scale(0.015625)"/>
       <path d="M 191 3500 
L 800 3500 
L 1894 563 
L 2988 3500 
L 3597 3500 
L 2284 0 
L 1503 0 
L 191 3500 
z
" id="DejaVuSans-76" transform="scale(0.015625)"/>
       <path d="M 2194 1759 
Q 1497 1759 1228 1600 
Q 959 1441 959 1056 
Q 959 750 1161 570 
Q 1363 391 1709 391 
Q 2188 391 2477 730 
Q 2766 1069 2766 1631 
L 2766 1759 
L 2194 1759 
z
M 3341 1997 
L 3341 0 
L 2766 0 
L 2766 531 
Q 2569 213 2275 61 
Q 1981 -91 1556 -91 
Q 1019 -91 701 211 
Q 384 513 384 1019 
Q 384 1609 779 1909 
Q 1175 2209 1959 2209 
L 2766 2209 
L 2766 2266 
Q 2766 2663 2505 2880 
Q 2244 3097 1772 3097 
Q 1472 3097 1187 3025 
Q 903 2953 641 2809 
L 641 3341 
Q 956 3463 1253 3523 
Q 1550 3584 1831 3584 
Q 2591 3584 2966 3190 
Q 3341 2797 3341 1997 
z
" id="DejaVuSans-61" transform="scale(0.015625)"/>
       <path d="M 2834 3397 
L 2834 2853 
Q 2591 2978 2328 3040 
Q 2066 3103 1784 3103 
Q 1356 3103 1142 2972 
Q 928 2841 928 2578 
Q 928 2378 1081 2264 
Q 1234 2150 1697 2047 
L 1894 2003 
Q 2506 1872 2764 1633 
Q 3022 1394 3022 966 
Q 3022 478 2636 193 
Q 2250 -91 1575 -91 
Q 1294 -91 989 -36 
Q 684 19 347 128 
L 347 722 
Q 666 556 975 473 
Q 1284 391 1588 391 
Q 1994 391 2212 530 
Q 2431 669 2431 922 
Q 2431 1156 2273 1281 
Q 2116 1406 1581 1522 
L 1381 1569 
Q 847 1681 609 1914 
Q 372 2147 372 2553 
Q 372 3047 722 3315 
Q 1072 3584 1716 3584 
Q 2034 3584 2315 3537 
Q 2597 3491 2834 3397 
z
" id="DejaVuSans-73" transform="scale(0.015625)"/>
       <path d="M 1625 4666 
L 2156 4666 
L 531 -594 
L 0 -594 
L 1625 4666 
z
" id="DejaVuSans-2f" transform="scale(0.015625)"/>
       <path d="M 2906 2969 
L 2906 4863 
L 3481 4863 
L 3481 0 
L 2906 0 
L 2906 525 
Q 2725 213 2448 61 
Q 2172 -91 1784 -91 
Q 1150 -91 751 415 
Q 353 922 353 1747 
Q 353 2572 751 3078 
Q 1150 3584 1784 3584 
Q 2172 3584 2448 3432 
Q 2725 3281 2906 2969 
z
M 947 1747 
Q 947 1113 1208 752 
Q 1469 391 1925 391 
Q 2381 391 2643 752 
Q 2906 1113 2906 1747 
Q 2906 2381 2643 2742 
Q 2381 3103 1925 3103 
Q 1469 3103 1208 2742 
Q 947 2381 947 1747 
z
" id="DejaVuSans-64" transform="scale(0.015625)"/>
       <path d="M 603 3500 
L 1178 3500 
L 1178 0 
L 603 0 
L 603 3500 
z
M 603 4863 
L 1178 4863 
L 1178 4134 
L 603 4134 
L 603 4863 
z
" id="DejaVuSans-69" transform="scale(0.015625)"/>
       <path d="M 3328 2828 
Q 3544 3216 3844 3400 
Q 4144 3584 4550 3584 
Q 5097 3584 5394 3201 
Q 5691 2819 5691 2113 
L 5691 0 
L 5113 0 
L 5113 2094 
Q 5113 2597 4934 2840 
Q 4756 3084 4391 3084 
Q 3944 3084 3684 2787 
Q 3425 2491 3425 1978 
L 3425 0 
L 2847 0 
L 2847 2094 
Q 2847 2600 2669 2842 
Q 2491 3084 2119 3084 
Q 1678 3084 1418 2786 
Q 1159 2488 1159 1978 
L 1159 0 
L 581 0 
L 581 3500 
L 1159 3500 
L 1159 2956 
Q 1356 3278 1631 3431 
Q 1906 3584 2284 3584 
Q 2666 3584 2933 3390 
Q 3200 3197 3328 2828 
z
" id="DejaVuSans-6d" transform="scale(0.015625)"/>
       <path d="M 3513 2113 
L 3513 0 
L 2938 0 
L 2938 2094 
Q 2938 2591 2744 2837 
Q 2550 3084 2163 3084 
Q 1697 3084 1428 2787 
Q 1159 2491 1159 1978 
L 1159 0 
L 581 0 
L 581 3500 
L 1159 3500 
L 1159 2956 
Q 1366 3272 1645 3428 
Q 1925 3584 2291 3584 
Q 2894 3584 3203 3211 
Q 3513 2838 3513 2113 
z
" id="DejaVuSans-6e" transform="scale(0.015625)"/>
       <path d="M 513 4856 
L 1013 4856 
Q 1481 4119 1714 3412 
Q 1947 2706 1947 2009 
Q 1947 1309 1714 600 
Q 1481 -109 1013 -844 
L 513 -844 
Q 928 -128 1133 580 
Q 1338 1288 1338 2009 
Q 1338 2731 1133 3434 
Q 928 4138 513 4856 
z
" id="DejaVuSans-29" transform="scale(0.015625)"/>
      </defs>
      <use xlink:href="#DejaVuSans-6c"/>
      <use x="27.783203" xlink:href="#DejaVuSans-6f"/>
      <use x="88.964844" xlink:href="#DejaVuSans-67"/>
      <use x="152.441406" xlink:href="#DejaVuSans-31"/>
      <use x="216.064453" xlink:href="#DejaVuSans-30"/>
      <use x="279.6875" xlink:href="#DejaVuSans-28"/>
      <use x="318.701172" xlink:href="#DejaVuSans-23"/>
      <use x="402.490234" xlink:href="#DejaVuSans-20"/>
      <use x="434.277344" xlink:href="#DejaVuSans-66"/>
      <use x="463.982422" xlink:href="#DejaVuSans-2d"/>
      <use x="500.066406" xlink:href="#DejaVuSans-65"/>
      <use x="561.589844" xlink:href="#DejaVuSans-76"/>
      <use x="620.769531" xlink:href="#DejaVuSans-61"/>
      <use x="682.048828" xlink:href="#DejaVuSans-6c"/>
      <use x="709.832031" xlink:href="#DejaVuSans-73"/>
      <use x="761.931641" xlink:href="#DejaVuSans-20"/>
      <use x="793.71875" xlink:href="#DejaVuSans-2f"/>
      <use x="827.410156" xlink:href="#DejaVuSans-20"/>
      <use x="859.197266" xlink:href="#DejaVuSans-64"/>
      <use x="922.673828" xlink:href="#DejaVuSans-69"/>
      <use x="950.457031" xlink:href="#DejaVuSans-6d"/>
      <use x="1047.869141" xlink:href="#DejaVuSans-65"/>
      <use x="1109.392578" xlink:href="#DejaVuSans-6e"/>
      <use x="1172.771484" xlink:href="#DejaVuSans-73"/>
      <use x="1224.871094" xlink:href="#DejaVuSans-69"/>
      <use x="1252.654297" xlink:href="#DejaVuSans-6f"/>
      <use x="1313.835938" xlink:href="#DejaVuSans-6e"/>
      <use x="1377.214844" xlink:href="#DejaVuSans-29"/>
     </g>
    </g>
   </g>
   <g id="matplotlib.axis_2">
    <g id="ytick_1">
     <g id="line2d_17">
      <path clip-path="url(#pb9d46fe724)" d="M 57.6 298.944 
L 338.688 298.944 
" style="fill:none;stroke:#b0b0b0;stroke-linecap:square;stroke-width:0.8;"/>
     </g>
     <g id="line2d_18">
      <defs>
       <path d="M 0 0 
L -3.5 0 
" id="me13f5d8bc3" style="stroke:#000000;stroke-width:0.8;"/>
      </defs>
      <g>
       <use style="stroke:#000000;stroke-width:0.8;" x="57.6" xlink:href="#me13f5d8bc3" y="298.944"/>
      </g>
     </g>
     <g id="text_6">
      <!-- 0.0 -->
      <g transform="translate(25.155 305.02275)scale(0.16 -0.16)">
       <defs>
        <path d="M 684 794 
L 1344 794 
L 1344 0 
L 684 0 
L 684 794 
z
" id="DejaVuSans-2e" transform="scale(0.015625)"/>
       </defs>
       <use xlink:href="#DejaVuSans-30"/>
       <use x="63.623047" xlink:href="#DejaVuSans-2e"/>
       <use x="95.410156" xlink:href="#DejaVuSans-30"/>
      </g>
     </g>
    </g>
    <g id="ytick_2">
     <g id="line2d_19">
      <path clip-path="url(#pb9d46fe724)" d="M 57.6 245.22202 
L 338.688 245.22202 
" style="fill:none;stroke:#b0b0b0;stroke-linecap:square;stroke-width:0.8;"/>
     </g>
     <g id="line2d_20">
      <g>
       <use style="stroke:#000000;stroke-width:0.8;" x="57.6" xlink:href="#me13f5d8bc3" y="245.22202"/>
      </g>
     </g>
     <g id="text_7">
      <!-- 0.2 -->
      <g transform="translate(25.155 251.30077)scale(0.16 -0.16)">
       <use xlink:href="#DejaVuSans-30"/>
       <use x="63.623047" xlink:href="#DejaVuSans-2e"/>
       <use x="95.410156" xlink:href="#DejaVuSans-32"/>
      </g>
     </g>
    </g>
    <g id="ytick_3">
     <g id="line2d_21">
      <path clip-path="url(#pb9d46fe724)" d="M 57.6 191.50004 
L 338.688 191.50004 
" style="fill:none;stroke:#b0b0b0;stroke-linecap:square;stroke-width:0.8;"/>
     </g>
     <g id="line2d_22">
      <g>
       <use style="stroke:#000000;stroke-width:0.8;" x="57.6" xlink:href="#me13f5d8bc3" y="191.50004"/>
      </g>
     </g>
     <g id="text_8">
      <!-- 0.4 -->
      <g transform="translate(25.155 197.57879)scale(0.16 -0.16)">
       <use xlink:href="#DejaVuSans-30"/>
       <use x="63.623047" xlink:href="#DejaVuSans-2e"/>
       <use x="95.410156" xlink:href="#DejaVuSans-34"/>
      </g>
     </g>
    </g>
    <g id="ytick_4">
     <g id="line2d_23">
      <path clip-path="url(#pb9d46fe724)" d="M 57.6 137.778059 
L 338.688 137.778059 
" style="fill:none;stroke:#b0b0b0;stroke-linecap:square;stroke-width:0.8;"/>
     </g>
     <g id="line2d_24">
      <g>
       <use style="stroke:#000000;stroke-width:0.8;" x="57.6" xlink:href="#me13f5d8bc3" y="137.778059"/>
      </g>
     </g>
     <g id="text_9">
      <!-- 0.6 -->
      <g transform="translate(25.155 143.856809)scale(0.16 -0.16)">
       <use xlink:href="#DejaVuSans-30"/>
       <use x="63.623047" xlink:href="#DejaVuSans-2e"/>
       <use x="95.410156" xlink:href="#DejaVuSans-36"/>
      </g>
     </g>
    </g>
    <g id="ytick_5">
     <g id="line2d_25">
      <path clip-path="url(#pb9d46fe724)" d="M 57.6 84.056079 
L 338.688 84.056079 
" style="fill:none;stroke:#b0b0b0;stroke-linecap:square;stroke-width:0.8;"/>
     </g>
     <g id="line2d_26">
      <g>
       <use style="stroke:#000000;stroke-width:0.8;" x="57.6" xlink:href="#me13f5d8bc3" y="84.056079"/>
      </g>
     </g>
     <g id="text_10">
      <!-- 0.8 -->
      <g transform="translate(25.155 90.134829)scale(0.16 -0.16)">
       <defs>
        <path d="M 2034 2216 
Q 1584 2216 1326 1975 
Q 1069 1734 1069 1313 
Q 1069 891 1326 650 
Q 1584 409 2034 409 
Q 2484 409 2743 651 
Q 3003 894 3003 1313 
Q 3003 1734 2745 1975 
Q 2488 2216 2034 2216 
z
M 1403 2484 
Q 997 2584 770 2862 
Q 544 3141 544 3541 
Q 544 4100 942 4425 
Q 1341 4750 2034 4750 
Q 2731 4750 3128 4425 
Q 3525 4100 3525 3541 
Q 3525 3141 3298 2862 
Q 3072 2584 2669 2484 
Q 3125 2378 3379 2068 
Q 3634 1759 3634 1313 
Q 3634 634 3220 271 
Q 2806 -91 2034 -91 
Q 1263 -91 848 271 
Q 434 634 434 1313 
Q 434 1759 690 2068 
Q 947 2378 1403 2484 
z
M 1172 3481 
Q 1172 3119 1398 2916 
Q 1625 2713 2034 2713 
Q 2441 2713 2670 2916 
Q 2900 3119 2900 3481 
Q 2900 3844 2670 4047 
Q 2441 4250 2034 4250 
Q 1625 4250 1398 4047 
Q 1172 3844 1172 3481 
z
" id="DejaVuSans-38" transform="scale(0.015625)"/>
       </defs>
       <use xlink:href="#DejaVuSans-30"/>
       <use x="63.623047" xlink:href="#DejaVuSans-2e"/>
       <use x="95.410156" xlink:href="#DejaVuSans-38"/>
      </g>
     </g>
    </g>
    <g id="ytick_6">
     <g id="line2d_27">
      <path clip-path="url(#pb9d46fe724)" d="M 57.6 30.334099 
L 338.688 30.334099 
" style="fill:none;stroke:#b0b0b0;stroke-linecap:square;stroke-width:0.8;"/>
     </g>
     <g id="line2d_28">
      <g>
       <use style="stroke:#000000;stroke-width:0.8;" x="57.6" xlink:href="#me13f5d8bc3" y="30.334099"/>
      </g>
     </g>
     <g id="text_11">
      <!-- 1.0 -->
      <g transform="translate(25.155 36.412849)scale(0.16 -0.16)">
       <use xlink:href="#DejaVuSans-31"/>
       <use x="63.623047" xlink:href="#DejaVuSans-2e"/>
       <use x="95.410156" xlink:href="#DejaVuSans-30"/>
      </g>
     </g>
    </g>
    <g id="text_12">
     <!-- Fraction of function,target pairs -->
     <g transform="translate(17.619531 297.681)rotate(-90)scale(0.17 -0.17)">
      <defs>
       <path d="M 628 4666 
L 3309 4666 
L 3309 4134 
L 1259 4134 
L 1259 2759 
L 3109 2759 
L 3109 2228 
L 1259 2228 
L 1259 0 
L 628 0 
L 628 4666 
z
" id="DejaVuSans-46" transform="scale(0.015625)"/>
       <path d="M 2631 2963 
Q 2534 3019 2420 3045 
Q 2306 3072 2169 3072 
Q 1681 3072 1420 2755 
Q 1159 2438 1159 1844 
L 1159 0 
L 581 0 
L 581 3500 
L 1159 3500 
L 1159 2956 
Q 1341 3275 1631 3429 
Q 1922 3584 2338 3584 
Q 2397 3584 2469 3576 
Q 2541 3569 2628 3553 
L 2631 2963 
z
" id="DejaVuSans-72" transform="scale(0.015625)"/>
       <path d="M 3122 3366 
L 3122 2828 
Q 2878 2963 2633 3030 
Q 2388 3097 2138 3097 
Q 1578 3097 1268 2742 
Q 959 2388 959 1747 
Q 959 1106 1268 751 
Q 1578 397 2138 397 
Q 2388 397 2633 464 
Q 2878 531 3122 666 
L 3122 134 
Q 2881 22 2623 -34 
Q 2366 -91 2075 -91 
Q 1284 -91 818 406 
Q 353 903 353 1747 
Q 353 2603 823 3093 
Q 1294 3584 2113 3584 
Q 2378 3584 2631 3529 
Q 2884 3475 3122 3366 
z
" id="DejaVuSans-63" transform="scale(0.015625)"/>
       <path d="M 1172 4494 
L 1172 3500 
L 2356 3500 
L 2356 3053 
L 1172 3053 
L 1172 1153 
Q 1172 725 1289 603 
Q 1406 481 1766 481 
L 2356 481 
L 2356 0 
L 1766 0 
Q 1100 0 847 248 
Q 594 497 594 1153 
L 594 3053 
L 172 3053 
L 172 3500 
L 594 3500 
L 594 4494 
L 1172 4494 
z
" id="DejaVuSans-74" transform="scale(0.015625)"/>
       <path d="M 544 1381 
L 544 3500 
L 1119 3500 
L 1119 1403 
Q 1119 906 1312 657 
Q 1506 409 1894 409 
Q 2359 409 2629 706 
Q 2900 1003 2900 1516 
L 2900 3500 
L 3475 3500 
L 3475 0 
L 2900 0 
L 2900 538 
Q 2691 219 2414 64 
Q 2138 -91 1772 -91 
Q 1169 -91 856 284 
Q 544 659 544 1381 
z
M 1991 3584 
L 1991 3584 
z
" id="DejaVuSans-75" transform="scale(0.015625)"/>
       <path d="M 750 794 
L 1409 794 
L 1409 256 
L 897 -744 
L 494 -744 
L 750 256 
L 750 794 
z
" id="DejaVuSans-2c" transform="scale(0.015625)"/>
       <path d="M 1159 525 
L 1159 -1331 
L 581 -1331 
L 581 3500 
L 1159 3500 
L 1159 2969 
Q 1341 3281 1617 3432 
Q 1894 3584 2278 3584 
Q 2916 3584 3314 3078 
Q 3713 2572 3713 1747 
Q 3713 922 3314 415 
Q 2916 -91 2278 -91 
Q 1894 -91 1617 61 
Q 1341 213 1159 525 
z
M 3116 1747 
Q 3116 2381 2855 2742 
Q 2594 3103 2138 3103 
Q 1681 3103 1420 2742 
Q 1159 2381 1159 1747 
Q 1159 1113 1420 752 
Q 1681 391 2138 391 
Q 2594 391 2855 752 
Q 3116 1113 3116 1747 
z
" id="DejaVuSans-70" transform="scale(0.015625)"/>
      </defs>
      <use xlink:href="#DejaVuSans-46"/>
      <use x="50.269531" xlink:href="#DejaVuSans-72"/>
      <use x="91.382812" xlink:href="#DejaVuSans-61"/>
      <use x="152.662109" xlink:href="#DejaVuSans-63"/>
      <use x="207.642578" xlink:href="#DejaVuSans-74"/>
      <use x="246.851562" xlink:href="#DejaVuSans-69"/>
      <use x="274.634766" xlink:href="#DejaVuSans-6f"/>
      <use x="335.816406" xlink:href="#DejaVuSans-6e"/>
      <use x="399.195312" xlink:href="#DejaVuSans-20"/>
      <use x="430.982422" xlink:href="#DejaVuSans-6f"/>
      <use x="492.164062" xlink:href="#DejaVuSans-66"/>
      <use x="527.369141" xlink:href="#DejaVuSans-20"/>
      <use x="559.15625" xlink:href="#DejaVuSans-66"/>
      <use x="594.361328" xlink:href="#DejaVuSans-75"/>
      <use x="657.740234" xlink:href="#DejaVuSans-6e"/>
      <use x="721.119141" xlink:href="#DejaVuSans-63"/>
      <use x="776.099609" xlink:href="#DejaVuSans-74"/>
      <use x="815.308594" xlink:href="#DejaVuSans-69"/>
      <use x="843.091797" xlink:href="#DejaVuSans-6f"/>
      <use x="904.273438" xlink:href="#DejaVuSans-6e"/>
      <use x="967.652344" xlink:href="#DejaVuSans-2c"/>
      <use x="999.439453" xlink:href="#DejaVuSans-74"/>
      <use x="1038.648438" xlink:href="#DejaVuSans-61"/>
      <use x="1099.927734" xlink:href="#DejaVuSans-72"/>
      <use x="1139.291016" xlink:href="#DejaVuSans-67"/>
      <use x="1202.767578" xlink:href="#DejaVuSans-65"/>
      <use x="1264.291016" xlink:href="#DejaVuSans-74"/>
      <use x="1303.5" xlink:href="#DejaVuSans-20"/>
      <use x="1335.287109" xlink:href="#DejaVuSans-70"/>
      <use x="1398.763672" xlink:href="#DejaVuSans-61"/>
      <use x="1460.042969" xlink:href="#DejaVuSans-69"/>
      <use x="1487.826172" xlink:href="#DejaVuSans-72"/>
      <use x="1528.939453" xlink:href="#DejaVuSans-73"/>
     </g>
    </g>
   </g>
   <g id="line2d_29">
    <defs>
     <path d="M 0 1.5 
C 0.397805 1.5 0.77937 1.341951 1.06066 1.06066 
C 1.341951 0.77937 1.5 0.397805 1.5 0 
C 1.5 -0.397805 1.341951 -0.77937 1.06066 -1.06066 
C 0.77937 -1.341951 0.397805 -1.5 0 -1.5 
C -0.397805 -1.5 -0.77937 -1.341951 -1.06066 -1.06066 
C -1.341951 -0.77937 -1.5 -0.397805 -1.5 0 
C -1.5 0.397805 -1.341951 0.77937 -1.06066 1.06066 
C -0.77937 1.341951 -0.397805 1.5 0 1.5 
z
" id="m624d0030a1" style="stroke:#00bfbf;"/>
    </defs>
    <g>
     <use style="fill:#00bfbf;stroke:#00bfbf;" x="183.827916" xlink:href="#m624d0030a1" y="30.334099"/>
     <use style="fill:#00bfbf;stroke:#00bfbf;" x="183.827916" xlink:href="#m624d0030a1" y="30.334099"/>
    </g>
   </g>
   <g id="line2d_30">
    <path d="M 45.512012 298.944 
L 45.512012 293.677139 
L 57.6 293.677139 
L 57.6 289.990337 
L 64.67102 289.990337 
L 64.67102 286.303534 
L 69.687988 286.303534 
L 69.687988 284.19679 
L 73.579452 284.19679 
L 73.579452 282.616732 
L 76.759008 282.616732 
L 76.759008 278.403243 
L 79.447285 278.403243 
L 79.447285 269.976266 
L 81.775977 269.976266 
L 81.775977 269.449579 
L 83.830028 269.449579 
L 83.830028 267.342835 
L 85.66744 267.342835 
L 85.66744 265.762777 
L 87.329581 265.762777 
L 87.329581 261.549288 
L 90.242884 261.549288 
L 90.242884 258.389172 
L 91.535274 258.389172 
L 91.535274 256.282427 
L 92.73846 256.282427 
L 92.73846 252.595625 
L 94.921215 252.595625 
L 94.921215 251.015567 
L 98.606294 251.015567 
L 98.606294 249.435508 
L 99.41757 249.435508 
L 99.41757 248.382136 
L 102.989037 248.382136 
L 102.989037 243.641962 
L 104.826449 243.641962 
L 104.826449 240.481845 
L 105.398279 240.481845 
L 105.398279 238.901787 
L 108.483824 238.901787 
L 108.483824 237.848415 
L 109.843417 237.848415 
L 109.843417 236.268356 
L 110.694282 236.268356 
L 110.694282 233.634926 
L 113.382559 233.634926 
L 113.382559 232.054868 
L 114.080224 232.054868 
L 114.080224 231.528182 
L 114.751048 231.528182 
L 114.751048 228.894751 
L 116.323218 228.894751 
L 116.323218 227.841379 
L 117.202696 227.841379 
L 117.202696 226.261321 
L 122.362027 226.261321 
L 122.362027 225.207949 
L 123.394238 225.207949 
L 123.394238 224.681263 
L 127.48501 224.681263 
L 127.48501 223.101204 
L 130.127931 223.101204 
L 130.127931 222.574518 
L 130.531948 222.574518 
L 130.531948 221.521146 
L 131.439773 221.521146 
L 131.439773 220.99446 
L 134.450015 220.99446 
L 134.450015 218.36103 
L 134.870259 218.36103 
L 134.870259 217.307658 
L 138.761723 217.307658 
L 138.761723 216.780971 
L 143.208936 216.780971 
L 143.208936 216.254285 
L 143.778691 216.254285 
L 143.778691 215.727599 
L 144.629556 215.727599 
L 144.629556 213.620855 
L 146.377764 213.620855 
L 146.377764 212.040797 
L 147.164632 212.040797 
L 147.164632 211.514111 
L 147.368603 211.514111 
L 147.368603 210.460738 
L 147.52003 210.460738 
L 147.52003 209.934052 
L 148.064279 209.934052 
L 148.064279 208.88068 
L 148.686322 208.88068 
L 148.686322 208.353994 
L 149.332295 208.353994 
L 149.332295 207.827308 
L 149.512548 207.827308 
L 149.512548 205.193878 
L 149.646525 205.193878 
L 149.646525 203.087133 
L 151.219462 203.087133 
L 151.219462 202.033761 
L 151.421542 202.033761 
L 151.421542 201.507075 
L 151.975216 201.507075 
L 151.975216 199.400331 
L 156.052535 199.400331 
L 156.083319 198.346959 
L 157.920731 198.346959 
L 157.920731 197.820273 
L 158.086033 197.820273 
L 158.086033 196.240214 
L 158.465753 196.240214 
L 158.465753 188.339923 
L 158.732007 188.339923 
L 158.732007 185.706493 
L 159.832723 185.706493 
L 159.832723 184.126434 
L 160.394148 184.126434 
L 160.394148 182.01969 
L 162.999872 182.01969 
L 162.999872 173.066027 
L 163.748975 173.066027 
L 163.748975 162.532305 
L 163.906798 162.532305 
L 163.965615 161.478933 
L 164.19892 161.478933 
L 164.19892 159.898875 
L 164.429145 159.898875 
L 164.429145 153.051956 
L 164.917777 153.051956 
L 164.917777 147.258409 
L 165.572509 147.258409 
L 165.572509 145.151665 
L 165.697012 145.151665 
L 165.697012 137.778059 
L 166.628709 137.778059 
L 166.628709 129.877768 
L 167.141909 129.877768 
L 167.141909 127.771024 
L 167.336582 127.771024 
L 167.336582 117.763988 
L 167.545055 117.763988 
L 167.545055 109.337011 
L 167.954668 109.337011 
L 167.954668 108.283639 
L 168.125111 108.283639 
L 168.125111 106.703581 
L 168.506396 106.703581 
L 168.506396 99.329976 
L 168.923766 99.329976 
L 168.923766 97.749917 
L 169.503198 97.749917 
L 169.503198 88.796254 
L 169.743743 88.796254 
L 169.743743 79.842591 
L 170.008719 79.842591 
L 170.008719 70.362241 
L 170.174022 70.362241 
L 170.215104 63.515322 
L 170.553741 63.515322 
L 170.553741 62.988636 
L 170.727268 62.988636 
L 170.767069 60.881892 
L 170.938496 60.881892 
L 170.938496 59.82852 
L 171.391826 59.82852 
L 171.391826 59.301833 
L 171.783736 59.301833 
L 171.783736 57.195089 
L 172.00732 57.195089 
L 172.00732 55.088345 
L 172.482136 55.088345 
L 172.482136 54.034973 
L 173.508272 54.034973 
L 173.508272 53.508287 
L 173.632396 53.508287 
L 173.632396 52.9816 
L 174.054514 52.9816 
L 174.087407 50.874856 
L 174.326753 50.874856 
L 174.326753 49.821484 
L 175.077514 49.821484 
L 175.077514 48.768112 
L 175.975136 48.768112 
L 175.975136 48.241426 
L 176.228874 48.241426 
L 176.228874 47.71474 
L 177.135015 47.71474 
L 177.135015 47.188054 
L 177.526107 47.188054 
L 177.526107 46.134681 
L 177.917418 46.134681 
L 177.917418 45.607995 
L 178.708295 45.607995 
L 178.708295 45.081309 
L 178.900534 45.081309 
L 178.900534 44.554623 
L 179.024776 44.554623 
L 179.024776 35.074274 
L 179.359921 35.074274 
L 179.359921 34.020902 
L 179.488982 34.020902 
L 179.488982 33.494215 
L 179.728427 33.494215 
L 179.728427 32.967529 
L 180.893522 32.967529 
L 180.893522 32.440843 
L 181.598309 32.440843 
L 181.598309 31.914157 
L 183.802832 31.914157 
L 183.827916 30.334099 
L 338.688 30.334099 
L 338.688 30.334099 
" style="fill:none;stroke:#00bfbf;stroke-linecap:square;stroke-width:1.5;"/>
   </g>
   <g id="line2d_31">
    <defs>
     <path d="M -6 0 
L 6 0 
M 0 6 
L 0 -6 
" id="m0d681bbf28" style="stroke:#00bfbf;stroke-width:1.5;"/>
    </defs>
    <g>
     <use style="fill-opacity:0;stroke:#00bfbf;stroke-width:1.5;" x="116.323218" xlink:href="#m0d681bbf28" y="228.894751"/>
     <use style="fill-opacity:0;stroke:#00bfbf;stroke-width:1.5;" x="166.628709" xlink:href="#m0d681bbf28" y="137.778059"/>
     <use style="fill-opacity:0;stroke:#00bfbf;stroke-width:1.5;" x="174.326753" xlink:href="#m0d681bbf28" y="50.874856"/>
     <use style="fill-opacity:0;stroke:#00bfbf;stroke-width:1.5;" x="183.827916" xlink:href="#m0d681bbf28" y="30.334099"/>
     <use style="fill-opacity:0;stroke:#00bfbf;stroke-width:1.5;" x="183.827916" xlink:href="#m0d681bbf28" y="30.334099"/>
     <use style="fill-opacity:0;stroke:#00bfbf;stroke-width:1.5;" x="338.688" xlink:href="#m0d681bbf28" y="30.334099"/>
    </g>
   </g>
   <g id="line2d_32">
    <path style="fill:none;stroke:#00bfbf;stroke-linecap:square;stroke-width:1.5;"/>
    <g/>
   </g>
   <g id="line2d_33">
    <defs>
     <path d="M 0 1.5 
C 0.397805 1.5 0.77937 1.341951 1.06066 1.06066 
C 1.341951 0.77937 1.5 0.397805 1.5 0 
C 1.5 -0.397805 1.341951 -0.77937 1.06066 -1.06066 
C 0.77937 -1.341951 0.397805 -1.5 0 -1.5 
C -0.397805 -1.5 -0.77937 -1.341951 -1.06066 -1.06066 
C -1.341951 -0.77937 -1.5 -0.397805 -1.5 0 
C -1.5 0.397805 -1.341951 0.77937 -1.06066 1.06066 
C -0.77937 1.341951 -0.397805 1.5 0 1.5 
z
" id="m856b6fd21d" style="stroke:#008000;"/>
    </defs>
    <g>
     <use style="fill:#008000;stroke:#008000;" x="184.453635" xlink:href="#m856b6fd21d" y="30.334099"/>
     <use style="fill:#008000;stroke:#008000;" x="184.453635" xlink:href="#m856b6fd21d" y="30.334099"/>
    </g>
   </g>
   <g id="line2d_34">
    <path d="M 38.440992 298.944 
L 38.440992 295.783884 
L 50.52898 295.783884 
L 50.52898 294.730511 
L 57.6 294.730511 
L 57.6 292.623767 
L 69.687988 292.623767 
L 69.687988 291.043709 
L 72.376266 291.043709 
L 72.376266 290.517023 
L 74.704957 290.517023 
L 74.704957 288.936964 
L 80.258561 288.936964 
L 80.258561 287.356906 
L 81.775977 287.356906 
L 81.775977 285.250162 
L 83.171864 285.250162 
L 83.171864 283.143418 
L 84.464254 283.143418 
L 84.464254 282.616732 
L 87.850195 282.616732 
L 87.850195 282.090045 
L 88.846997 282.090045 
L 88.846997 281.036673 
L 91.535274 281.036673 
L 91.535274 279.983301 
L 93.121756 279.983301 
L 93.121756 278.929929 
L 95.918017 278.929929 
L 95.918017 276.296499 
L 98.880934 276.296499 
L 98.880934 275.243126 
L 99.41757 275.243126 
L 99.41757 273.663068 
L 100.443706 273.663068 
L 100.443706 272.609696 
L 101.412804 272.609696 
L 101.412804 271.556324 
L 101.877879 271.556324 
L 101.877879 270.502952 
L 102.330873 270.502952 
L 102.330873 269.976266 
L 102.772397 269.976266 
L 102.772397 268.922893 
L 103.203018 268.922893 
L 103.203018 268.396207 
L 103.623262 268.396207 
L 103.623262 267.869521 
L 104.826449 267.869521 
L 104.826449 266.289463 
L 107.680028 266.289463 
L 107.680028 265.236091 
L 109.252198 265.236091 
L 109.252198 264.182719 
L 112.026172 264.182719 
L 112.026172 263.656033 
L 113.022974 263.656033 
L 113.022974 263.129347 
L 115.917635 263.129347 
L 115.917635 262.075974 
L 116.323218 262.075974 
L 116.323218 261.549288 
L 118.576578 261.549288 
L 118.576578 261.022602 
L 120.571812 261.022602 
L 120.571812 260.495916 
L 120.728219 260.495916 
L 120.728219 259.442544 
L 121.189196 259.442544 
L 121.189196 256.282427 
L 123.460928 256.282427 
L 123.460928 255.755741 
L 123.855796 255.755741 
L 123.855796 254.175683 
L 125.470548 254.175683 
L 125.470548 253.648997 
L 127.165014 253.648997 
L 127.165014 252.595625 
L 127.799239 252.595625 
L 127.799239 252.068939 
L 128.107907 252.068939 
L 128.107907 251.542253 
L 129.574256 251.542253 
L 129.667765 249.962195 
L 129.760775 249.962195 
L 129.760775 248.908822 
L 130.664567 248.908822 
L 130.664567 248.382136 
L 131.60746 248.382136 
L 131.60746 247.85545 
L 132.181982 247.85545 
L 132.181982 246.802078 
L 132.501978 246.802078 
L 132.501978 246.275392 
L 132.893889 246.275392 
L 132.893889 245.748706 
L 133.124876 245.748706 
L 133.124876 245.22202 
L 135.280614 245.22202 
L 135.280614 244.695334 
L 136.645276 244.695334 
L 136.707671 243.115275 
L 138.482688 243.115275 
L 138.482688 242.588589 
L 140.246813 242.588589 
L 140.246813 242.061903 
L 140.64889 242.061903 
L 140.64889 241.008531 
L 140.944478 241.008531 
L 140.944478 240.481845 
L 141.378673 240.481845 
L 141.378673 239.428473 
L 141.755753 239.428473 
L 141.755753 238.901787 
L 143.358447 238.901787 
L 143.358447 238.375101 
L 144.589967 238.375101 
L 144.589967 236.795043 
L 144.747789 236.795043 
L 144.747789 235.74167 
L 144.981877 235.74167 
L 144.981877 235.214984 
L 145.591172 235.214984 
L 145.591172 234.161612 
L 145.998045 234.161612 
L 145.998045 233.634926 
L 146.288102 233.634926 
L 146.288102 232.581554 
L 147.198794 232.581554 
L 147.198794 232.054868 
L 148.888835 232.054868 
L 148.888835 231.528182 
L 149.347388 231.528182 
L 149.347388 231.001496 
L 149.497598 231.001496 
L 149.497598 229.948123 
L 152.385571 229.948123 
L 152.385571 228.894751 
L 152.860649 228.894751 
L 152.860649 228.368065 
L 153.056874 228.368065 
L 153.056874 227.841379 
L 153.913546 227.841379 
L 153.936752 226.261321 
L 154.46214 226.261321 
L 154.46214 225.734635 
L 155.015814 225.734635 
L 155.015814 225.207949 
L 155.210911 225.207949 
L 155.318362 223.627891 
L 155.403849 223.627891 
L 155.403849 220.99446 
L 156.398281 220.99446 
L 156.398281 220.467774 
L 156.914157 220.467774 
L 156.914157 219.941088 
L 157.358125 219.941088 
L 157.377174 217.834344 
L 157.491032 217.834344 
L 157.566527 215.200913 
L 157.67916 215.200913 
L 157.772468 212.567483 
L 157.939176 212.567483 
L 157.939176 212.040797 
L 158.304027 212.040797 
L 158.304027 211.514111 
L 158.554957 211.514111 
L 158.554957 209.934052 
L 159.724893 209.934052 
L 159.724893 208.88068 
L 159.89051 208.88068 
L 159.89051 207.827308 
L 160.184713 207.827308 
L 160.184713 206.24725 
L 160.313893 206.24725 
L 160.313893 205.720564 
L 160.961329 205.720564 
L 161.007772 194.13347 
L 161.435376 194.13347 
L 161.435376 193.606784 
L 162.274744 193.606784 
L 162.274744 193.080098 
L 162.700806 193.080098 
L 162.700806 190.446667 
L 163.307451 190.446667 
L 163.348054 179.38626 
L 163.496131 179.38626 
L 163.563025 169.90591 
L 163.775378 169.90591 
L 163.775378 168.852538 
L 164.063205 168.852538 
L 164.11503 162.005619 
L 165.637836 162.005619 
L 165.637836 160.952247 
L 165.943384 160.952247 
L 165.943384 159.898875 
L 166.24367 159.898875 
L 166.24367 158.845503 
L 166.369174 158.845503 
L 166.369174 150.945211 
L 166.493781 150.945211 
L 166.493781 144.098292 
L 166.895472 144.098292 
L 166.895472 143.04492 
L 167.212459 143.04492 
L 167.223287 139.884804 
L 167.545055 139.884804 
L 167.545055 139.358118 
L 167.672117 139.358118 
L 167.672117 138.831432 
L 167.829655 138.831432 
L 167.913096 129.877768 
L 168.385289 129.877768 
L 168.385289 120.397419 
L 168.845033 120.397419 
L 168.845033 119.870733 
L 169.23519 119.870733 
L 169.283352 109.863697 
L 169.804532 109.863697 
L 169.804532 108.283639 
L 170.310587 108.283639 
L 170.310587 107.756953 
L 170.517932 107.756953 
L 170.517932 107.230267 
L 170.687376 107.230267 
L 170.793552 98.803289 
L 171.289242 98.803289 
L 171.391826 89.849626 
L 172.068921 89.849626 
L 172.118046 80.895963 
L 172.272701 80.895963 
L 172.272701 79.842591 
L 172.538095 79.842591 
L 172.60978 78.789218 
L 172.940467 78.789218 
L 172.940467 78.262532 
L 173.770522 78.262532 
L 173.770522 77.735846 
L 173.925999 77.735846 
L 173.925999 76.682474 
L 174.094709 76.682474 
L 174.094709 76.155788 
L 174.427309 76.155788 
L 174.427309 74.57573 
L 174.767737 74.57573 
L 174.823834 73.522358 
L 174.991052 73.522358 
L 174.991052 72.995672 
L 175.204695 72.995672 
L 175.307139 71.415613 
L 175.684365 71.415613 
L 175.684365 70.362241 
L 175.981689 70.362241 
L 176.03402 69.308869 
L 176.235332 69.308869 
L 176.235332 68.255497 
L 176.466234 68.255497 
L 176.466234 67.202125 
L 176.919065 67.202125 
L 176.97485 66.148752 
L 177.171768 66.148752 
L 177.177886 64.568694 
L 177.354379 64.568694 
L 177.354379 58.248461 
L 177.624761 58.248461 
L 177.624761 57.721775 
L 177.891015 57.721775 
L 177.891015 46.134681 
L 178.066286 46.134681 
L 178.141693 44.554623 
L 178.268566 44.554623 
L 178.268566 38.23439 
L 178.994487 38.23439 
L 179.033027 36.654332 
L 179.807517 36.654332 
L 179.807517 35.074274 
L 180.669651 35.074274 
L 180.669651 34.547588 
L 180.829143 34.547588 
L 180.868789 31.914157 
L 181.934481 31.914157 
L 181.934481 30.860785 
L 184.453635 30.860785 
L 184.453635 30.334099 
L 338.688 30.334099 
L 338.688 30.334099 
" style="fill:none;stroke:#008000;stroke-linecap:square;stroke-width:1.5;"/>
   </g>
   <g id="line2d_35">
    <defs>
     <path d="M -0 6 
L 6 -6 
L -6 -6 
z
" id="m677d8889a8" style="stroke:#008000;stroke-linejoin:miter;stroke-width:1.5;"/>
    </defs>
    <g>
     <use style="fill-opacity:0;stroke:#008000;stroke-linejoin:miter;stroke-width:1.5;" x="156.914157" xlink:href="#m677d8889a8" y="220.467774"/>
     <use style="fill-opacity:0;stroke:#008000;stroke-linejoin:miter;stroke-width:1.5;" x="170.687376" xlink:href="#m677d8889a8" y="106.703581"/>
     <use style="fill-opacity:0;stroke:#008000;stroke-linejoin:miter;stroke-width:1.5;" x="184.453635" xlink:href="#m677d8889a8" y="30.860785"/>
     <use style="fill-opacity:0;stroke:#008000;stroke-linejoin:miter;stroke-width:1.5;" x="184.453635" xlink:href="#m677d8889a8" y="30.334099"/>
     <use style="fill-opacity:0;stroke:#008000;stroke-linejoin:miter;stroke-width:1.5;" x="184.453635" xlink:href="#m677d8889a8" y="30.334099"/>
     <use style="fill-opacity:0;stroke:#008000;stroke-linejoin:miter;stroke-width:1.5;" x="338.688" xlink:href="#m677d8889a8" y="30.334099"/>
    </g>
   </g>
   <g id="line2d_36">
    <path style="fill:none;stroke:#008000;stroke-linecap:square;stroke-width:1.5;"/>
    <g/>
   </g>
   <g id="line2d_37">
    <defs>
     <path d="M 0 1.5 
C 0.397805 1.5 0.77937 1.341951 1.06066 1.06066 
C 1.341951 0.77937 1.5 0.397805 1.5 0 
C 1.5 -0.397805 1.341951 -0.77937 1.06066 -1.06066 
C 0.77937 -1.341951 0.397805 -1.5 0 -1.5 
C -0.397805 -1.5 -0.77937 -1.341951 -1.06066 -1.06066 
C -1.341951 -0.77937 -1.5 -0.397805 -1.5 0 
C -1.5 0.397805 -1.341951 0.77937 -1.06066 1.06066 
C -0.77937 1.341951 -0.397805 1.5 0 1.5 
z
" id="m46b86cec11" style="stroke:#0000ff;"/>
    </defs>
    <g>
     <use style="fill:#0000ff;stroke:#0000ff;" x="250.108367" xlink:href="#m46b86cec11" y="30.334099"/>
     <use style="fill:#0000ff;stroke:#0000ff;" x="250.108367" xlink:href="#m46b86cec11" y="30.334099"/>
    </g>
   </g>
   <g id="line2d_38">
    <path d="M 41.620548 298.944 
L 41.620548 297.890628 
L 53.708537 297.890628 
L 53.708537 296.31057 
L 67.850577 296.31057 
L 67.850577 295.257197 
L 74.263433 295.257197 
L 74.263433 294.730511 
L 75.555822 294.730511 
L 75.555822 294.203825 
L 78.941764 294.203825 
L 78.941764 292.097081 
L 82.626842 292.097081 
L 82.626842 291.570395 
L 84.213325 291.570395 
L 84.213325 291.043709 
L 85.66744 291.043709 
L 85.66744 289.463651 
L 86.351421 289.463651 
L 86.351421 288.936964 
L 89.418828 288.936964 
L 89.418828 287.883592 
L 91.029752 287.883592 
L 91.029752 287.356906 
L 92.504372 287.356906 
L 92.504372 285.776848 
L 92.969447 285.776848 
L 92.969447 285.250162 
L 95.125186 285.250162 
L 95.125186 283.143418 
L 95.526106 283.143418 
L 95.526106 282.616732 
L 98.771596 282.616732 
L 98.771596 281.563359 
L 100.343767 281.563359 
L 100.343767 281.036673 
L 100.641881 281.036673 
L 100.641881 279.983301 
L 101.223245 279.983301 
L 101.223245 279.456615 
L 101.506816 279.456615 
L 101.506816 278.929929 
L 102.859376 278.929929 
L 102.859376 278.403243 
L 107.213174 278.403243 
L 107.213174 277.876557 
L 108.389302 277.876557 
L 108.389302 277.349871 
L 111.505558 277.349871 
L 111.505558 276.296499 
L 113.73488 276.296499 
L 113.73488 275.243126 
L 114.0117 275.243126 
L 114.0117 272.609696 
L 115.460322 272.609696 
L 115.460322 271.556324 
L 115.586238 271.556324 
L 115.586238 271.029638 
L 118.148599 271.029638 
L 118.148599 270.502952 
L 120.665825 270.502952 
L 120.665825 269.976266 
L 120.944859 269.976266 
L 120.944859 269.449579 
L 121.219499 269.449579 
L 121.219499 267.869521 
L 121.667835 267.869521 
L 121.667835 267.342835 
L 122.782271 267.342835 
L 122.782271 266.289463 
L 123.354102 266.289463 
L 123.354102 265.762777 
L 124.216444 265.762777 
L 124.216444 264.709405 
L 124.891598 264.709405 
L 124.891598 263.656033 
L 126.168212 263.656033 
L 126.168212 263.129347 
L 126.50685 263.129347 
L 126.50685 262.60266 
L 127.48501 262.60266 
L 127.48501 262.075974 
L 128.650105 262.075974 
L 128.650105 261.549288 
L 130.018593 261.549288 
L 130.018593 261.022602 
L 131.439773 261.022602 
L 131.439773 260.495916 
L 131.690703 260.495916 
L 131.690703 259.96923 
L 134.870259 259.96923 
L 134.911732 257.862486 
L 135.035562 257.862486 
L 135.035562 256.809114 
L 136.456742 256.809114 
L 136.456742 255.755741 
L 137.910857 255.755741 
L 137.910857 255.229055 
L 138.084384 255.229055 
L 138.084384 254.702369 
L 138.828032 254.702369 
L 138.828032 254.175683 
L 138.99271 254.175683 
L 138.99271 253.122311 
L 139.541262 253.122311 
L 139.541262 252.595625 
L 139.9494 252.595625 
L 139.9494 251.542253 
L 140.559227 251.542253 
L 140.559227 251.015567 
L 141.20629 251.015567 
L 141.20629 249.962195 
L 146.367029 249.962195 
L 146.367029 248.908822 
L 147.78933 248.908822 
L 147.78933 247.85545 
L 151.292481 247.85545 
L 151.292481 247.328764 
L 151.405461 247.328764 
L 151.405461 246.802078 
L 151.549655 246.802078 
L 151.549655 245.748706 
L 152.662192 245.748706 
L 152.662192 245.22202 
L 152.826082 245.22202 
L 152.826082 244.695334 
L 153.792374 244.695334 
L 153.890309 243.115275 
L 153.904255 243.115275 
L 153.904255 242.061903 
L 154.68128 242.061903 
L 154.68128 241.535217 
L 155.050658 241.535217 
L 155.102793 240.481845 
L 156.027868 240.481845 
L 156.027868 239.955159 
L 157.56276 239.955159 
L 157.58535 238.375101 
L 158.379686 238.375101 
L 158.390468 234.688298 
L 161.636364 234.688298 
L 161.636364 233.634926 
L 161.8498 233.634926 
L 161.8498 233.10824 
L 162.165135 233.10824 
L 162.199823 232.054868 
L 162.312084 232.054868 
L 162.312084 231.528182 
L 163.258601 231.528182 
L 163.258601 230.47481 
L 164.00081 230.47481 
L 164.00081 229.948123 
L 164.53934 229.948123 
L 164.53934 229.421437 
L 164.667654 229.421437 
L 164.667654 228.894751 
L 165.295432 228.894751 
L 165.295432 228.368065 
L 165.992243 228.368065 
L 165.992243 227.314693 
L 167.564173 227.314693 
L 167.564173 226.788007 
L 167.817104 226.788007 
L 167.817104 226.261321 
L 167.991998 226.261321 
L 167.991998 225.734635 
L 168.109685 225.734635 
L 168.109685 225.207949 
L 168.27557 225.207949 
L 168.27557 224.681263 
L 168.793666 224.681263 
L 168.793666 224.154577 
L 169.017779 224.154577 
L 169.041203 223.101204 
L 169.319866 223.101204 
L 169.319866 222.574518 
L 170.337772 222.574518 
L 170.337772 222.047832 
L 171.217072 222.047832 
L 171.217072 221.521146 
L 171.350865 221.521146 
L 171.350865 220.99446 
L 171.900854 220.99446 
L 171.900854 220.467774 
L 172.088588 220.467774 
L 172.088588 211.514111 
L 172.42439 211.514111 
L 172.438845 202.560447 
L 172.777482 202.560447 
L 172.834072 200.980389 
L 173.426547 200.980389 
L 173.426547 200.453703 
L 173.576085 200.453703 
L 173.666095 199.400331 
L 173.933369 199.400331 
L 173.951042 190.446667 
L 174.400072 190.446667 
L 174.400072 189.393295 
L 174.783181 189.393295 
L 174.825234 187.813237 
L 174.942445 187.813237 
L 175.046437 180.439632 
L 175.071303 180.439632 
L 175.071303 179.38626 
L 175.252577 179.38626 
L 175.252577 177.806202 
L 175.761495 177.806202 
L 175.85677 176.226143 
L 176.120024 176.226143 
L 176.120024 175.699457 
L 176.3409 175.699457 
L 176.429239 174.119399 
L 176.459861 174.119399 
L 176.513321 172.539341 
L 176.894213 172.539341 
L 176.894213 172.012655 
L 177.834554 172.012655 
L 177.834554 171.485969 
L 178.111569 171.485969 
L 178.187935 169.379224 
L 179.282024 169.379224 
L 179.282024 168.852538 
L 179.51147 168.852538 
L 179.549953 167.799166 
L 179.642605 167.799166 
L 179.642605 166.219108 
L 179.917643 166.219108 
L 179.917643 165.692422 
L 184.437506 165.692422 
L 184.437506 158.318817 
L 184.584531 158.318817 
L 184.584531 157.79213 
L 185.582666 157.79213 
L 185.664074 156.212072 
L 185.763059 156.212072 
L 185.832462 154.632014 
L 192.02914 154.632014 
L 192.069813 147.258409 
L 192.143097 147.258409 
L 192.225369 138.831432 
L 192.25786 138.831432 
L 192.287205 137.778059 
L 192.410223 137.778059 
L 192.504969 136.198001 
L 192.871427 136.198001 
L 192.889325 135.144629 
L 198.625474 135.144629 
L 198.625474 134.617943 
L 199.296905 134.617943 
L 199.338152 133.564571 
L 199.691936 133.564571 
L 199.691936 133.037885 
L 200.04462 133.037885 
L 200.04462 132.511199 
L 200.166835 132.511199 
L 200.219791 131.457826 
L 201.060862 131.457826 
L 201.133491 130.404454 
L 202.890994 130.404454 
L 202.890994 120.924105 
L 203.10392 120.924105 
L 203.137086 119.344047 
L 204.139041 119.344047 
L 204.139041 118.817361 
L 205.096171 118.817361 
L 205.170048 108.283639 
L 218.69414 108.283639 
L 218.776773 106.176895 
L 218.914413 106.176895 
L 218.983328 104.07015 
L 219.047649 104.07015 
L 219.151459 103.016778 
L 219.270099 103.016778 
L 219.369658 100.910034 
L 219.405218 100.910034 
L 219.440054 94.063115 
L 219.546088 94.063115 
L 219.646018 86.68951 
L 219.675244 86.68951 
L 219.746656 82.476021 
L 219.894949 82.476021 
L 219.997946 81.422649 
L 220.033192 81.422649 
L 220.033192 80.895963 
L 220.569361 80.895963 
L 220.569361 79.315904 
L 220.72868 79.315904 
L 220.741967 78.262532 
L 221.728083 78.262532 
L 221.769965 68.782183 
L 221.877487 68.782183 
L 221.887948 67.728811 
L 224.277376 67.728811 
L 224.277376 61.935264 
L 224.953696 61.935264 
L 224.977388 54.561659 
L 230.888733 54.561659 
L 230.984459 49.821484 
L 231.017479 49.821484 
L 231.023841 47.71474 
L 231.523001 47.71474 
L 231.523001 46.661368 
L 232.150863 46.661368 
L 232.237113 44.554623 
L 233.227902 44.554623 
L 233.227902 44.027937 
L 233.998535 44.027937 
L 233.998535 42.974565 
L 237.788531 42.974565 
L 237.833448 39.814448 
L 237.930037 39.814448 
L 238.015447 38.23439 
L 238.198893 38.23439 
L 238.198893 37.707704 
L 238.629501 37.707704 
L 238.629501 36.127646 
L 239.282089 36.127646 
L 239.282089 35.60096 
L 239.641064 35.60096 
L 239.641064 35.074274 
L 242.738332 35.074274 
L 242.738332 34.020902 
L 243.01489 34.020902 
L 243.01489 33.494215 
L 243.38801 33.494215 
L 243.38801 32.967529 
L 244.119815 32.967529 
L 244.119815 32.440843 
L 246.562198 32.440843 
L 246.562198 31.914157 
L 246.784648 31.914157 
L 246.784648 31.387471 
L 247.049099 31.387471 
L 247.049099 30.860785 
L 250.108367 30.860785 
L 250.108367 30.334099 
L 338.688 30.334099 
L 338.688 30.334099 
" style="fill:none;stroke:#0000ff;stroke-linecap:square;stroke-width:1.5;"/>
   </g>
   <g id="line2d_39">
    <defs>
     <path d="M 0 -6 
L -1.347084 -1.854102 
L -5.706339 -1.854102 
L -2.179628 0.708204 
L -3.526712 4.854102 
L -0 2.291796 
L 3.526712 4.854102 
L 2.179628 0.708204 
L 5.706339 -1.854102 
L 1.347084 -1.854102 
z
" id="ma6ce6a33ae" style="stroke:#0000ff;stroke-linejoin:bevel;stroke-width:1.5;"/>
    </defs>
    <g>
     <use style="fill-opacity:0;stroke:#0000ff;stroke-linejoin:bevel;stroke-width:1.5;" x="151.549655" xlink:href="#ma6ce6a33ae" y="245.748706"/>
     <use style="fill-opacity:0;stroke:#0000ff;stroke-linejoin:bevel;stroke-width:1.5;" x="203.10392" xlink:href="#ma6ce6a33ae" y="120.924105"/>
     <use style="fill-opacity:0;stroke:#0000ff;stroke-linejoin:bevel;stroke-width:1.5;" x="243.38801" xlink:href="#ma6ce6a33ae" y="32.967529"/>
     <use style="fill-opacity:0;stroke:#0000ff;stroke-linejoin:bevel;stroke-width:1.5;" x="250.108367" xlink:href="#ma6ce6a33ae" y="30.334099"/>
     <use style="fill-opacity:0;stroke:#0000ff;stroke-linejoin:bevel;stroke-width:1.5;" x="250.108367" xlink:href="#ma6ce6a33ae" y="30.334099"/>
     <use style="fill-opacity:0;stroke:#0000ff;stroke-linejoin:bevel;stroke-width:1.5;" x="338.688" xlink:href="#ma6ce6a33ae" y="30.334099"/>
    </g>
   </g>
   <g id="line2d_40">
    <path style="fill:none;stroke:#0000ff;stroke-linecap:square;stroke-width:1.5;"/>
    <g/>
   </g>
   <g id="line2d_41">
    <path clip-path="url(#pb9d46fe724)" d="M 218.221714 108.283639 
" style="fill:none;stroke:#0000ff;stroke-linecap:square;stroke-width:1.5;"/>
    <defs>
     <path d="M -12 12 
L 12 -12 
M -12 -12 
L 12 12 
" id="m5fc6540811" style="stroke:#0000ff;"/>
    </defs>
    <g clip-path="url(#pb9d46fe724)">
     <use style="fill:#0000ff;stroke:#0000ff;" x="218.221714" xlink:href="#m5fc6540811" y="108.283639"/>
    </g>
   </g>
   <g id="line2d_42">
    <defs>
     <path d="M 0 1.5 
C 0.397805 1.5 0.77937 1.341951 1.06066 1.06066 
C 1.341951 0.77937 1.5 0.397805 1.5 0 
C 1.5 -0.397805 1.341951 -0.77937 1.06066 -1.06066 
C 0.77937 -1.341951 0.397805 -1.5 0 -1.5 
C -0.397805 -1.5 -0.77937 -1.341951 -1.06066 -1.06066 
C -1.341951 -0.77937 -1.5 -0.397805 -1.5 0 
C -1.5 0.397805 -1.341951 0.77937 -1.06066 1.06066 
C -0.77937 1.341951 -0.397805 1.5 0 1.5 
z
" id="m307e574b6a" style="stroke:#000000;"/>
    </defs>
    <g>
     <use style="stroke:#000000;" x="287.323932" xlink:href="#m307e574b6a" y="30.334099"/>
     <use style="stroke:#000000;" x="287.323932" xlink:href="#m307e574b6a" y="30.334099"/>
    </g>
   </g>
   <g id="line2d_43">
    <path d="M 83.830028 298.944 
L 83.830028 298.417314 
L 96.110718 298.417314 
L 96.110718 297.363942 
L 99.886816 297.363942 
L 99.886816 296.837256 
L 100.040467 296.837256 
L 100.040467 296.31057 
L 100.641881 296.31057 
L 100.641881 295.783884 
L 101.079711 295.783884 
L 101.079711 295.257197 
L 101.223245 295.257197 
L 101.223245 294.730511 
L 101.646892 294.730511 
L 101.646892 294.203825 
L 102.330873 294.203825 
L 102.330873 293.677139 
L 105.285403 293.677139 
L 105.285403 293.150453 
L 106.802819 293.150453 
L 106.802819 292.623767 
L 107.811151 292.623767 
L 107.811151 292.097081 
L 108.483824 292.097081 
L 108.483824 291.570395 
L 109.31223 291.570395 
L 109.31223 291.043709 
L 110.103064 291.043709 
L 110.103064 290.517023 
L 111.426108 290.517023 
L 111.426108 289.990337 
L 113.453595 289.990337 
L 113.453595 289.463651 
L 114.148479 289.463651 
L 114.148479 288.936964 
L 114.284194 288.936964 
L 114.284194 287.883592 
L 115.205729 287.883592 
L 115.205729 287.356906 
L 115.523393 287.356906 
L 115.523393 286.83022 
L 116.081002 286.83022 
L 116.081002 286.303534 
L 116.323218 286.303534 
L 116.323218 285.776848 
L 118.039942 285.776848 
L 118.039942 285.250162 
L 120.045484 285.250162 
L 120.045484 284.723476 
L 120.898662 284.723476 
L 120.898662 284.19679 
L 122.699028 284.19679 
L 122.699028 283.143418 
L 123.394238 283.143418 
L 123.394238 282.616732 
L 124.632135 282.616732 
L 124.632135 282.090045 
L 125.363449 282.090045 
L 125.363449 281.563359 
L 125.892487 281.563359 
L 125.892487 281.036673 
L 126.236468 281.036673 
L 126.236468 280.509987 
L 126.70692 280.509987 
L 126.70692 279.983301 
L 127.357715 279.983301 
L 127.357715 279.456615 
L 127.923363 279.456615 
L 127.923363 278.929929 
L 128.290519 278.929929 
L 128.290519 278.403243 
L 129.347769 278.403243 
L 129.347769 277.876557 
L 130.505303 277.876557 
L 130.61164 276.823185 
L 131.490249 276.823185 
L 131.490249 276.296499 
L 132.517825 276.296499 
L 132.517825 275.769812 
L 135.280614 275.769812 
L 135.280614 275.243126 
L 136.361705 275.243126 
L 136.361705 274.71644 
L 137.089613 274.71644 
L 137.089613 274.189754 
L 137.945701 274.189754 
L 137.945701 273.663068 
L 138.118883 273.663068 
L 138.118883 273.136382 
L 138.628343 273.136382 
L 138.628343 272.609696 
L 139.493548 272.609696 
L 139.493548 272.08301 
L 140.544239 272.08301 
L 140.64889 271.029638 
L 140.693549 271.029638 
L 140.693549 270.502952 
L 141.45 270.502952 
L 141.45 269.976266 
L 141.80232 269.976266 
L 141.80232 269.449579 
L 143.87806 269.449579 
L 143.87806 268.922893 
L 144.111818 268.922893 
L 144.111818 268.396207 
L 144.830078 268.396207 
L 144.830078 267.869521 
L 145.327221 267.869521 
L 145.327221 267.342835 
L 146.717846 267.342835 
L 146.717846 266.289463 
L 147.61026 266.289463 
L 147.61026 265.762777 
L 148.658095 265.762777 
L 148.658095 265.236091 
L 149.575199 265.236091 
L 149.575199 264.709405 
L 151.951845 264.709405 
L 151.951845 264.182719 
L 152.145659 264.182719 
L 152.145659 263.656033 
L 153.025137 263.656033 
L 153.025137 263.129347 
L 153.502361 263.129347 
L 153.502361 262.60266 
L 154.297094 262.60266 
L 154.297094 262.075974 
L 154.527275 262.075974 
L 154.527275 261.549288 
L 155.0376 261.549288 
L 155.0376 261.022602 
L 155.393186 261.022602 
L 155.393186 260.495916 
L 155.647315 260.495916 
L 155.647315 259.96923 
L 156.906335 259.96923 
L 156.906335 259.442544 
L 158.406628 259.442544 
L 158.406628 258.915858 
L 159.103236 258.915858 
L 159.103236 258.389172 
L 160.083935 258.389172 
L 160.083935 257.862486 
L 160.661129 257.862486 
L 160.661129 257.3358 
L 161.109513 257.3358 
L 161.109513 256.809114 
L 161.809979 256.809114 
L 161.809979 256.282427 
L 162.221468 256.282427 
L 162.221468 255.755741 
L 162.559939 255.755741 
L 162.559939 255.229055 
L 162.866969 255.229055 
L 162.866969 254.702369 
L 163.835954 254.702369 
L 163.835954 254.175683 
L 164.524182 254.175683 
L 164.524182 253.648997 
L 165.10946 253.648997 
L 165.10946 253.122311 
L 165.700557 253.122311 
L 165.700557 252.595625 
L 167.007622 252.595625 
L 167.007622 252.068939 
L 167.791975 252.068939 
L 167.791975 251.542253 
L 168.026147 251.542253 
L 168.026147 250.488881 
L 168.78179 250.488881 
L 168.78179 249.962195 
L 169.122941 249.962195 
L 169.122941 249.435508 
L 170.912232 249.435508 
L 170.998753 248.382136 
L 174.904856 248.382136 
L 174.904856 247.85545 
L 175.399504 247.85545 
L 175.399504 237.848415 
L 176.079029 237.848415 
L 176.079029 237.321729 
L 177.07051 237.321729 
L 177.07051 236.268356 
L 177.276091 236.268356 
L 177.276091 235.74167 
L 178.620669 235.74167 
L 178.620669 235.214984 
L 178.91549 235.214984 
L 178.91549 234.688298 
L 183.294726 234.688298 
L 183.294726 234.161612 
L 184.308748 234.161612 
L 184.308748 233.634926 
L 186.46976 233.634926 
L 186.46976 233.10824 
L 189.829514 233.10824 
L 189.829514 232.581554 
L 193.895111 232.581554 
L 193.895111 232.054868 
L 194.193691 232.054868 
L 194.193691 231.528182 
L 203.248968 231.528182 
L 203.248968 231.001496 
L 204.155458 231.001496 
L 204.177712 229.948123 
L 204.357438 229.948123 
L 204.357438 229.421437 
L 204.65609 229.421437 
L 204.65609 228.894751 
L 206.511524 228.894751 
L 206.511524 228.368065 
L 206.749493 228.368065 
L 206.749493 227.841379 
L 207.059171 227.841379 
L 207.059171 227.314693 
L 207.739017 227.314693 
L 207.739017 226.788007 
L 207.968766 226.788007 
L 207.968766 226.261321 
L 208.306733 226.261321 
L 208.316891 225.207949 
L 208.736791 225.207949 
L 208.824594 223.627891 
L 208.896186 223.627891 
L 208.997404 214.147541 
L 210.30091 214.147541 
L 210.30091 213.620855 
L 216.838916 213.620855 
L 216.838916 213.094169 
L 217.271117 213.094169 
L 217.271117 212.040797 
L 217.498542 212.040797 
L 217.498542 211.514111 
L 219.042824 211.514111 
L 219.042824 210.987425 
L 219.175747 210.987425 
L 219.235908 207.827308 
L 219.347438 207.827308 
L 219.347438 207.300622 
L 219.56386 207.300622 
L 219.657586 195.186842 
L 219.712268 195.186842 
L 219.795643 193.080098 
L 220.838744 193.080098 
L 220.838744 192.553412 
L 222.083156 192.553412 
L 222.083156 192.026726 
L 224.657923 192.026726 
L 224.657923 191.50004 
L 224.813966 191.50004 
L 224.813966 190.973354 
L 225.624623 190.973354 
L 225.624623 190.446667 
L 226.047558 190.446667 
L 226.051232 189.393295 
L 226.198875 189.393295 
L 226.300455 179.38626 
L 226.357642 179.38626 
L 226.357642 178.859574 
L 226.472544 178.859574 
L 226.472544 178.332888 
L 227.437595 178.332888 
L 227.437595 177.806202 
L 229.597161 177.806202 
L 229.597161 177.279515 
L 230.814348 177.279515 
L 230.824171 176.226143 
L 231.022334 176.226143 
L 231.114418 164.112363 
L 232.347082 164.112363 
L 232.347082 163.585677 
L 234.463012 163.585677 
L 234.463012 163.058991 
L 234.583947 163.058991 
L 234.583947 162.532305 
L 234.75048 162.532305 
L 234.847881 153.051956 
L 237.069579 153.051956 
L 237.069579 152.52527 
L 237.8726 152.52527 
L 237.921304 143.04492 
L 239.799762 143.04492 
L 239.799762 142.518234 
L 240.346948 142.518234 
L 240.364837 139.884804 
L 240.465511 139.884804 
L 240.533373 130.93114 
L 242.164855 130.93114 
L 242.164855 130.404454 
L 242.743035 130.404454 
L 242.782442 123.030849 
L 244.781198 123.030849 
L 244.794161 119.344047 
L 246.146899 119.344047 
L 246.146899 118.817361 
L 246.520187 118.817361 
L 246.585942 115.130558 
L 248.203131 115.130558 
L 248.248233 108.283639 
L 249.638554 108.283639 
L 249.716384 104.596836 
L 251.012818 104.596836 
L 251.102371 100.383348 
L 252.266808 100.383348 
L 252.369494 98.803289 
L 253.514536 98.803289 
L 253.566431 94.063115 
L 254.630434 94.063115 
L 254.671763 88.269568 
L 255.66299 88.269568 
L 255.718122 85.636137 
L 256.653143 85.636137 
L 256.705237 81.949335 
L 257.639458 81.949335 
L 257.639458 79.842591 
L 258.522018 79.842591 
L 258.526168 77.735846 
L 259.369966 77.735846 
L 259.375583 75.102416 
L 260.144679 75.102416 
L 260.188385 71.415613 
L 260.733856 71.415613 
L 260.733856 70.888927 
L 260.94415 70.888927 
L 260.94415 67.728811 
L 261.653336 67.728811 
L 261.680976 64.568694 
L 262.387928 64.568694 
L 262.387928 63.515322 
L 263.067335 63.515322 
L 263.078832 61.408578 
L 263.721262 61.408578 
L 263.721262 60.881892 
L 264.351553 60.881892 
L 264.351553 59.301833 
L 264.952896 59.301833 
L 264.959856 56.668403 
L 265.547654 56.668403 
L 265.557628 52.454914 
L 266.116285 52.454914 
L 266.125938 51.401542 
L 266.666958 51.401542 
L 266.666958 50.874856 
L 267.200774 50.874856 
L 267.200774 49.821484 
L 267.718734 49.821484 
L 267.718734 49.294798 
L 268.230309 49.294798 
L 268.230309 48.768112 
L 268.713957 48.768112 
L 268.713957 48.241426 
L 269.180789 48.241426 
L 269.18625 44.027937 
L 270.100189 44.027937 
L 270.100189 43.501251 
L 270.534749 43.501251 
L 270.539803 42.447879 
L 270.968607 42.447879 
L 270.968607 41.394507 
L 271.385135 41.394507 
L 271.385135 40.867821 
L 271.795824 40.867821 
L 271.795824 40.341135 
L 272.195169 40.341135 
L 272.195169 39.287762 
L 273.341103 39.287762 
L 273.341103 38.761076 
L 274.065254 38.761076 
L 274.071375 37.707704 
L 274.416357 37.707704 
L 274.418728 36.654332 
L 274.760531 36.654332 
L 274.760531 36.127646 
L 275.098044 36.127646 
L 275.098044 35.60096 
L 275.754083 35.60096 
L 275.754083 34.020902 
L 276.391693 34.020902 
L 276.391693 33.494215 
L 276.682387 33.494215 
L 276.682387 32.967529 
L 276.996465 32.967529 
L 276.996465 31.914157 
L 277.585968 31.914157 
L 277.585968 31.387471 
L 280.997209 31.387471 
L 280.997209 30.860785 
L 287.323932 30.860785 
L 287.323932 30.334099 
L 338.688 30.334099 
L 338.688 30.334099 
" style="fill:none;stroke:#000000;stroke-linecap:square;stroke-width:1.5;"/>
   </g>
   <g id="line2d_44">
    <defs>
     <path d="M 0 6 
C 1.591219 6 3.117479 5.367802 4.242641 4.242641 
C 5.367802 3.117479 6 1.591219 6 0 
C 6 -1.591219 5.367802 -3.117479 4.242641 -4.242641 
C 3.117479 -5.367802 1.591219 -6 0 -6 
C -1.591219 -6 -3.117479 -5.367802 -4.242641 -4.242641 
C -5.367802 -3.117479 -6 -1.591219 -6 0 
C -6 1.591219 -5.367802 3.117479 -4.242641 4.242641 
C -3.117479 5.367802 -1.591219 6 0 6 
z
" id="m0eef6322e8" style="stroke:#000000;stroke-width:1.5;"/>
    </defs>
    <g>
     <use style="fill-opacity:0;stroke:#000000;stroke-width:1.5;" x="149.575199" xlink:href="#m0eef6322e8" y="264.709405"/>
     <use style="fill-opacity:0;stroke:#000000;stroke-width:1.5;" x="226.262995" xlink:href="#m0eef6322e8" y="188.339923"/>
     <use style="fill-opacity:0;stroke:#000000;stroke-width:1.5;" x="255.718122" xlink:href="#m0eef6322e8" y="85.636137"/>
     <use style="fill-opacity:0;stroke:#000000;stroke-width:1.5;" x="287.323932" xlink:href="#m0eef6322e8" y="30.334099"/>
     <use style="fill-opacity:0;stroke:#000000;stroke-width:1.5;" x="338.688" xlink:href="#m0eef6322e8" y="30.334099"/>
    </g>
   </g>
   <g id="line2d_45">
    <path style="fill:none;stroke:#000000;stroke-linecap:square;stroke-width:1.5;"/>
    <g/>
   </g>
   <g id="line2d_46">
    <path clip-path="url(#pb9d46fe724)" d="M 206.133726 228.894751 
" style="fill:none;stroke:#000000;stroke-linecap:square;stroke-width:1.5;"/>
    <defs>
     <path d="M -12 12 
L 12 -12 
M -12 -12 
L 12 12 
" id="me361fbcd49" style="stroke:#000000;"/>
    </defs>
    <g clip-path="url(#pb9d46fe724)">
     <use style="stroke:#000000;" x="206.133726" xlink:href="#me361fbcd49" y="228.894751"/>
    </g>
   </g>
   <g id="line2d_47">
    <defs>
     <path d="M 0 1.5 
C 0.397805 1.5 0.77937 1.341951 1.06066 1.06066 
C 1.341951 0.77937 1.5 0.397805 1.5 0 
C 1.5 -0.397805 1.341951 -0.77937 1.06066 -1.06066 
C 0.77937 -1.341951 0.397805 -1.5 0 -1.5 
C -0.397805 -1.5 -0.77937 -1.341951 -1.06066 -1.06066 
C -1.341951 -0.77937 -1.5 -0.397805 -1.5 0 
C -1.5 0.397805 -1.341951 0.77937 -1.06066 1.06066 
C -0.77937 1.341951 -0.397805 1.5 0 1.5 
z
" id="m4716432e1e" style="stroke:#ff0000;"/>
    </defs>
    <g>
     <use style="fill:#ff0000;stroke:#ff0000;" x="248.877763" xlink:href="#m4716432e1e" y="256.809114"/>
     <use style="fill:#ff0000;stroke:#ff0000;" x="248.877763" xlink:href="#m4716432e1e" y="256.809114"/>
    </g>
   </g>
   <g id="line2d_48">
    <path d="M 105.621863 298.944 
L 105.621863 298.417314 
L 115.989297 298.417314 
L 115.989297 297.890628 
L 117.259781 297.890628 
L 117.259781 297.363942 
L 119.045825 297.363942 
L 119.045825 296.837256 
L 122.169562 296.837256 
L 122.169562 296.31057 
L 122.740699 296.31057 
L 122.740699 295.783884 
L 124.254646 295.783884 
L 124.254646 295.257197 
L 124.762349 295.257197 
L 124.762349 294.730511 
L 126.740043 294.730511 
L 126.740043 294.203825 
L 129.333516 294.203825 
L 129.333516 293.677139 
L 130.51863 293.677139 
L 130.51863 293.150453 
L 131.325666 293.150453 
L 131.363785 292.097081 
L 132.446401 292.097081 
L 132.48215 291.043709 
L 132.986651 291.043709 
L 132.986651 290.517023 
L 133.533096 290.517023 
L 133.533096 289.990337 
L 134.922085 289.990337 
L 134.984073 288.936964 
L 135.50226 288.936964 
L 135.50226 288.410278 
L 136.237377 288.410278 
L 136.237377 287.883592 
L 137.098751 287.883592 
L 137.098751 287.356906 
L 139.565069 287.356906 
L 139.565069 286.83022 
L 140.834218 286.83022 
L 140.834218 286.303534 
L 141.428632 286.303534 
L 141.428632 285.776848 
L 142.452732 285.776848 
L 142.452732 285.250162 
L 143.470802 285.250162 
L 143.470802 284.723476 
L 144.46866 284.723476 
L 144.46866 284.19679 
L 145.519922 284.19679 
L 145.519922 283.670104 
L 147.13383 283.670104 
L 147.13383 283.143418 
L 147.525055 283.143418 
L 147.525055 282.616732 
L 156.970762 282.616732 
L 156.970762 282.090045 
L 157.194401 282.090045 
L 157.194401 281.563359 
L 159.499629 281.563359 
L 159.499629 281.036673 
L 159.958781 281.036673 
L 159.958781 280.509987 
L 160.907766 280.509987 
L 160.907766 279.983301 
L 161.732289 279.983301 
L 161.732289 279.456615 
L 161.962134 279.456615 
L 161.962134 278.929929 
L 163.565696 278.929929 
L 163.565696 278.403243 
L 165.193576 278.403243 
L 165.208163 277.349871 
L 165.945131 277.349871 
L 166.00966 276.296499 
L 166.750926 276.296499 
L 166.750926 275.769812 
L 167.325286 275.769812 
L 167.325286 275.243126 
L 168.142064 275.243126 
L 168.142064 274.71644 
L 169.911564 274.71644 
L 169.911564 274.189754 
L 170.634045 274.189754 
L 170.634045 273.663068 
L 171.889675 273.663068 
L 171.889675 273.136382 
L 175.987911 273.136382 
L 175.987911 272.609696 
L 177.174521 272.609696 
L 177.174521 272.08301 
L 182.91987 272.08301 
L 182.91987 271.556324 
L 183.20144 271.556324 
L 183.20144 271.029638 
L 188.969141 271.029638 
L 188.969141 270.502952 
L 193.228515 270.502952 
L 193.228515 269.976266 
L 196.010582 269.976266 
L 196.010582 269.449579 
L 196.720456 269.449579 
L 196.742881 267.869521 
L 197.230525 267.869521 
L 197.230525 267.342835 
L 199.344588 267.342835 
L 199.344588 266.816149 
L 201.198414 266.816149 
L 201.198414 265.762777 
L 205.842159 265.762777 
L 205.842159 264.709405 
L 206.704319 264.709405 
L 206.704319 264.182719 
L 213.01091 264.182719 
L 213.01091 263.656033 
L 214.009155 263.656033 
L 214.009155 263.129347 
L 215.155458 263.129347 
L 215.155458 262.60266 
L 217.0843 262.60266 
L 217.0843 262.075974 
L 219.074074 262.075974 
L 219.074074 261.549288 
L 221.997135 261.549288 
L 221.997135 261.022602 
L 222.798366 261.022602 
L 222.798366 260.495916 
L 228.903054 260.495916 
L 228.903054 259.96923 
L 232.747733 259.96923 
L 232.747733 259.442544 
L 234.547125 259.442544 
L 234.547125 258.915858 
L 237.669496 258.915858 
L 237.669496 258.389172 
L 241.503586 258.389172 
L 241.503586 257.862486 
L 244.644789 257.862486 
L 244.644789 257.3358 
L 248.877763 257.3358 
L 248.877763 256.809114 
L 338.688 256.809114 
L 338.688 256.809114 
" style="fill:none;stroke:#ff0000;stroke-linecap:square;stroke-width:1.5;"/>
   </g>
   <g id="line2d_49">
    <defs>
     <path d="M -6 6 
L 6 6 
L 6 -6 
L -6 -6 
z
" id="mce0483e21c" style="stroke:#ff0000;stroke-linejoin:miter;stroke-width:1.5;"/>
    </defs>
    <g>
     <use style="fill-opacity:0;stroke:#ff0000;stroke-linejoin:miter;stroke-width:1.5;" x="161.732289" xlink:href="#mce0483e21c" y="279.983301"/>
     <use style="fill-opacity:0;stroke:#ff0000;stroke-linejoin:miter;stroke-width:1.5;" x="248.877763" xlink:href="#mce0483e21c" y="257.3358"/>
     <use style="fill-opacity:0;stroke:#ff0000;stroke-linejoin:miter;stroke-width:1.5;" x="248.877763" xlink:href="#mce0483e21c" y="256.809114"/>
     <use style="fill-opacity:0;stroke:#ff0000;stroke-linejoin:miter;stroke-width:1.5;" x="248.877763" xlink:href="#mce0483e21c" y="256.809114"/>
     <use style="fill-opacity:0;stroke:#ff0000;stroke-linejoin:miter;stroke-width:1.5;" x="338.688" xlink:href="#mce0483e21c" y="256.809114"/>
    </g>
   </g>
   <g id="line2d_50">
    <path style="fill:none;stroke:#ff0000;stroke-linecap:square;stroke-width:1.5;"/>
    <g/>
   </g>
   <g id="line2d_51">
    <path clip-path="url(#pb9d46fe724)" d="M 194.045737 269.976266 
" style="fill:none;stroke:#ff0000;stroke-linecap:square;stroke-width:1.5;"/>
    <defs>
     <path d="M -12 12 
L 12 -12 
M -12 -12 
L 12 12 
" id="m9438947d84" style="stroke:#ff0000;"/>
    </defs>
    <g clip-path="url(#pb9d46fe724)">
     <use style="fill:#ff0000;stroke:#ff0000;" x="194.045737" xlink:href="#m9438947d84" y="269.976266"/>
    </g>
   </g>
   <g id="line2d_52">
    <defs>
     <path d="M 0 1.5 
C 0.397805 1.5 0.77937 1.341951 1.06066 1.06066 
C 1.341951 0.77937 1.5 0.397805 1.5 0 
C 1.5 -0.397805 1.341951 -0.77937 1.06066 -1.06066 
C 0.77937 -1.341951 0.397805 -1.5 0 -1.5 
C -0.397805 -1.5 -0.77937 -1.341951 -1.06066 -1.06066 
C -1.341951 -0.77937 -1.5 -0.397805 -1.5 0 
C -1.5 0.397805 -1.341951 0.77937 -1.06066 1.06066 
C -0.77937 1.341951 -0.397805 1.5 0 1.5 
z
" id="m20e9db0b4b" style="stroke:#bf00bf;"/>
    </defs>
    <g>
     <use style="fill:#bf00bf;stroke:#bf00bf;" x="254.890202" xlink:href="#m20e9db0b4b" y="277.876557"/>
     <use style="fill:#bf00bf;stroke:#bf00bf;" x="254.890202" xlink:href="#m20e9db0b4b" y="277.876557"/>
    </g>
   </g>
   <g id="line2d_53">
    <path d="M 132.541568 298.944 
L 132.541568 298.417314 
L 135.03042 298.417314 
L 135.03042 297.890628 
L 139.999752 297.890628 
L 139.999752 297.363942 
L 147.002309 297.363942 
L 147.002309 296.837256 
L 147.888024 296.837256 
L 147.888024 296.31057 
L 148.655741 296.31057 
L 148.655741 295.783884 
L 153.448784 295.783884 
L 153.448784 295.257197 
L 155.973788 295.257197 
L 155.973788 294.730511 
L 156.538679 294.730511 
L 156.538679 294.203825 
L 157.728676 294.203825 
L 157.728676 293.677139 
L 159.748174 293.677139 
L 159.748174 293.150453 
L 160.518612 293.150453 
L 160.518612 292.623767 
L 160.724884 292.623767 
L 160.724884 292.097081 
L 161.020522 292.097081 
L 161.020522 291.570395 
L 169.23109 291.570395 
L 169.23109 291.043709 
L 169.398161 291.043709 
L 169.398161 290.517023 
L 171.365596 290.517023 
L 171.365596 289.990337 
L 174.960689 289.990337 
L 174.960689 289.463651 
L 175.314968 289.463651 
L 175.314968 288.936964 
L 188.872982 288.936964 
L 188.872982 288.410278 
L 189.050845 288.410278 
L 189.050845 287.883592 
L 195.668198 287.883592 
L 195.668198 287.356906 
L 199.081225 287.356906 
L 199.081225 286.83022 
L 202.420105 286.83022 
L 202.420105 285.776848 
L 207.120255 285.776848 
L 207.120255 284.723476 
L 208.195139 284.723476 
L 208.195139 284.19679 
L 210.818826 284.19679 
L 210.818826 283.670104 
L 210.87353 283.670104 
L 210.87353 283.143418 
L 211.693353 283.143418 
L 211.693353 282.616732 
L 213.868593 282.616732 
L 213.868593 282.090045 
L 219.282862 282.090045 
L 219.282862 281.563359 
L 221.527069 281.563359 
L 221.527069 281.036673 
L 222.967198 281.036673 
L 222.967198 280.509987 
L 234.633404 280.509987 
L 234.633404 279.983301 
L 237.014976 279.983301 
L 237.014976 279.456615 
L 252.919216 279.456615 
L 252.919216 278.929929 
L 253.505447 278.929929 
L 253.505447 278.403243 
L 254.890202 278.403243 
L 254.890202 277.876557 
L 338.688 277.876557 
" style="fill:none;stroke:#bf00bf;stroke-linecap:square;stroke-width:1.5;"/>
   </g>
   <g id="line2d_54">
    <defs>
     <path d="M 0 8.485281 
L 8.485281 0 
L 0 -8.485281 
L -8.485281 0 
z
" id="m660218cb5f" style="stroke:#bf00bf;stroke-linejoin:miter;stroke-width:1.5;"/>
    </defs>
    <g>
     <use style="fill-opacity:0;stroke:#bf00bf;stroke-linejoin:miter;stroke-width:1.5;" x="171.365596" xlink:href="#m660218cb5f" y="290.517023"/>
     <use style="fill-opacity:0;stroke:#bf00bf;stroke-linejoin:miter;stroke-width:1.5;" x="222.967198" xlink:href="#m660218cb5f" y="280.509987"/>
     <use style="fill-opacity:0;stroke:#bf00bf;stroke-linejoin:miter;stroke-width:1.5;" x="254.890202" xlink:href="#m660218cb5f" y="278.403243"/>
     <use style="fill-opacity:0;stroke:#bf00bf;stroke-linejoin:miter;stroke-width:1.5;" x="254.890202" xlink:href="#m660218cb5f" y="277.876557"/>
     <use style="fill-opacity:0;stroke:#bf00bf;stroke-linejoin:miter;stroke-width:1.5;" x="338.688" xlink:href="#m660218cb5f" y="277.876557"/>
    </g>
   </g>
   <g id="line2d_55">
    <path style="fill:none;stroke:#bf00bf;stroke-linecap:square;stroke-width:1.5;"/>
    <g/>
   </g>
   <g id="line2d_56">
    <path clip-path="url(#pb9d46fe724)" d="M 181.957749 288.936964 
" style="fill:none;stroke:#bf00bf;stroke-linecap:square;stroke-width:1.5;"/>
    <defs>
     <path d="M -12 12 
L 12 -12 
M -12 -12 
L 12 12 
" id="m1f3bac823e" style="stroke:#bf00bf;"/>
    </defs>
    <g clip-path="url(#pb9d46fe724)">
     <use style="fill:#bf00bf;stroke:#bf00bf;" x="181.957749" xlink:href="#m1f3bac823e" y="288.936964"/>
    </g>
   </g>
   <g id="line2d_57">
    <path d="M 338.688 277.876557 
L 369.60768 293.571802 
" style="fill:none;stroke:#bf00bf;stroke-linecap:square;stroke-width:1.5;"/>
    <g>
     <use style="fill-opacity:0;stroke:#bf00bf;stroke-linejoin:miter;stroke-width:1.5;" x="338.688" xlink:href="#m660218cb5f" y="277.876557"/>
     <use style="fill-opacity:0;stroke:#bf00bf;stroke-linejoin:miter;stroke-width:1.5;" x="369.60768" xlink:href="#m660218cb5f" y="293.571802"/>
    </g>
   </g>
   <g id="line2d_58">
    <path d="M 338.688 256.809114 
L 369.60768 241.998701 
" style="fill:none;stroke:#ff0000;stroke-linecap:square;stroke-width:1.5;"/>
    <g>
     <use style="fill-opacity:0;stroke:#ff0000;stroke-linejoin:miter;stroke-width:1.5;" x="338.688" xlink:href="#mce0483e21c" y="256.809114"/>
     <use style="fill-opacity:0;stroke:#ff0000;stroke-linejoin:miter;stroke-width:1.5;" x="369.60768" xlink:href="#mce0483e21c" y="241.998701"/>
    </g>
   </g>
   <g id="line2d_59">
    <path d="M 338.688 30.334099 
L 369.60768 190.4256 
" style="fill:none;stroke:#000000;stroke-linecap:square;stroke-width:1.5;"/>
    <g>
     <use style="fill-opacity:0;stroke:#000000;stroke-width:1.5;" x="338.688" xlink:href="#m0eef6322e8" y="30.334099"/>
     <use style="fill-opacity:0;stroke:#000000;stroke-width:1.5;" x="369.60768" xlink:href="#m0eef6322e8" y="190.4256"/>
    </g>
   </g>
   <g id="line2d_60">
    <path d="M 338.688 30.334099 
L 369.60768 138.852499 
" style="fill:none;stroke:#0000ff;stroke-linecap:square;stroke-width:1.5;"/>
    <g>
     <use style="fill-opacity:0;stroke:#0000ff;stroke-linejoin:bevel;stroke-width:1.5;" x="338.688" xlink:href="#ma6ce6a33ae" y="30.334099"/>
     <use style="fill-opacity:0;stroke:#0000ff;stroke-linejoin:bevel;stroke-width:1.5;" x="369.60768" xlink:href="#ma6ce6a33ae" y="138.852499"/>
    </g>
   </g>
   <g id="line2d_61">
    <path d="M 338.688 30.334099 
L 369.60768 87.279398 
" style="fill:none;stroke:#008000;stroke-linecap:square;stroke-width:1.5;"/>
    <g>
     <use style="fill-opacity:0;stroke:#008000;stroke-linejoin:miter;stroke-width:1.5;" x="338.688" xlink:href="#m677d8889a8" y="30.334099"/>
     <use style="fill-opacity:0;stroke:#008000;stroke-linejoin:miter;stroke-width:1.5;" x="369.60768" xlink:href="#m677d8889a8" y="87.279398"/>
    </g>
   </g>
   <g id="line2d_62">
    <path d="M 338.688 30.334099 
L 369.60768 35.706297 
" style="fill:none;stroke:#00bfbf;stroke-linecap:square;stroke-width:1.5;"/>
    <g>
     <use style="fill-opacity:0;stroke:#00bfbf;stroke-width:1.5;" x="338.688" xlink:href="#m0d681bbf28" y="30.334099"/>
     <use style="fill-opacity:0;stroke:#00bfbf;stroke-width:1.5;" x="369.60768" xlink:href="#m0d681bbf28" y="35.706297"/>
    </g>
   </g>
   <g id="line2d_63">
    <path d="M 338.688 298.944 
L 338.688 30.334099 
" style="fill:none;stroke:#000000;stroke-linecap:square;stroke-width:1.5;"/>
   </g>
   <g id="patch_3">
    <path d="M 57.6 298.944 
L 57.6 27.648 
" style="fill:none;stroke:#000000;stroke-linecap:square;stroke-linejoin:miter;stroke-width:0.8;"/>
   </g>
   <g id="patch_4">
    <path d="M 338.688 298.944 
L 338.688 27.648 
" style="fill:none;stroke:#000000;stroke-linecap:square;stroke-linejoin:miter;stroke-width:0.8;"/>
   </g>
   <g id="patch_5">
    <path d="M 57.6 298.944 
L 338.688 298.944 
" style="fill:none;stroke:#000000;stroke-linecap:square;stroke-linejoin:miter;stroke-width:0.8;"/>
   </g>
   <g id="patch_6">
    <path d="M 57.6 27.648 
L 338.688 27.648 
" style="fill:none;stroke:#000000;stroke-linecap:square;stroke-linejoin:miter;stroke-width:0.8;"/>
   </g>
   <g id="text_13">
    <!-- 40-D -->
    <g transform="translate(375.22944 298.262739)scale(0.17 -0.17)">
     <defs>
      <path d="M 1259 4147 
L 1259 519 
L 2022 519 
Q 2988 519 3436 956 
Q 3884 1394 3884 2338 
Q 3884 3275 3436 3711 
Q 2988 4147 2022 4147 
L 1259 4147 
z
M 628 4666 
L 1925 4666 
Q 3281 4666 3915 4102 
Q 4550 3538 4550 2338 
Q 4550 1131 3912 565 
Q 3275 0 1925 0 
L 628 0 
L 628 4666 
z
" id="DejaVuSans-44" transform="scale(0.015625)"/>
     </defs>
     <use xlink:href="#DejaVuSans-34"/>
     <use x="63.623047" xlink:href="#DejaVuSans-30"/>
     <use x="127.246094" xlink:href="#DejaVuSans-2d"/>
     <use x="163.330078" xlink:href="#DejaVuSans-44"/>
    </g>
   </g>
   <g id="text_14">
    <!-- 20-D -->
    <g transform="translate(375.22944 246.689638)scale(0.17 -0.17)">
     <use xlink:href="#DejaVuSans-32"/>
     <use x="63.623047" xlink:href="#DejaVuSans-30"/>
     <use x="127.246094" xlink:href="#DejaVuSans-2d"/>
     <use x="163.330078" xlink:href="#DejaVuSans-44"/>
    </g>
   </g>
   <g id="text_15">
    <!-- 10-D -->
    <g transform="translate(375.22944 195.116537)scale(0.17 -0.17)">
     <use xlink:href="#DejaVuSans-31"/>
     <use x="63.623047" xlink:href="#DejaVuSans-30"/>
     <use x="127.246094" xlink:href="#DejaVuSans-2d"/>
     <use x="163.330078" xlink:href="#DejaVuSans-44"/>
    </g>
   </g>
   <g id="text_16">
    <!-- 5-D -->
    <g transform="translate(375.22944 143.543437)scale(0.17 -0.17)">
     <defs>
      <path d="M 691 4666 
L 3169 4666 
L 3169 4134 
L 1269 4134 
L 1269 2991 
Q 1406 3038 1543 3061 
Q 1681 3084 1819 3084 
Q 2600 3084 3056 2656 
Q 3513 2228 3513 1497 
Q 3513 744 3044 326 
Q 2575 -91 1722 -91 
Q 1428 -91 1123 -41 
Q 819 9 494 109 
L 494 744 
Q 775 591 1075 516 
Q 1375 441 1709 441 
Q 2250 441 2565 725 
Q 2881 1009 2881 1497 
Q 2881 1984 2565 2268 
Q 2250 2553 1709 2553 
Q 1456 2553 1204 2497 
Q 953 2441 691 2322 
L 691 4666 
z
" id="DejaVuSans-35" transform="scale(0.015625)"/>
     </defs>
     <use xlink:href="#DejaVuSans-35"/>
     <use x="63.623047" xlink:href="#DejaVuSans-2d"/>
     <use x="99.707031" xlink:href="#DejaVuSans-44"/>
    </g>
   </g>
   <g id="text_17">
    <!-- 3-D -->
    <g transform="translate(375.22944 91.970336)scale(0.17 -0.17)">
     <defs>
      <path d="M 2597 2516 
Q 3050 2419 3304 2112 
Q 3559 1806 3559 1356 
Q 3559 666 3084 287 
Q 2609 -91 1734 -91 
Q 1441 -91 1130 -33 
Q 819 25 488 141 
L 488 750 
Q 750 597 1062 519 
Q 1375 441 1716 441 
Q 2309 441 2620 675 
Q 2931 909 2931 1356 
Q 2931 1769 2642 2001 
Q 2353 2234 1838 2234 
L 1294 2234 
L 1294 2753 
L 1863 2753 
Q 2328 2753 2575 2939 
Q 2822 3125 2822 3475 
Q 2822 3834 2567 4026 
Q 2313 4219 1838 4219 
Q 1578 4219 1281 4162 
Q 984 4106 628 3988 
L 628 4550 
Q 988 4650 1302 4700 
Q 1616 4750 1894 4750 
Q 2613 4750 3031 4423 
Q 3450 4097 3450 3541 
Q 3450 3153 3228 2886 
Q 3006 2619 2597 2516 
z
" id="DejaVuSans-33" transform="scale(0.015625)"/>
     </defs>
     <use xlink:href="#DejaVuSans-33"/>
     <use x="63.623047" xlink:href="#DejaVuSans-2d"/>
     <use x="99.707031" xlink:href="#DejaVuSans-44"/>
    </g>
   </g>
   <g id="text_18">
    <!-- 2-D -->
    <g transform="translate(375.22944 40.397235)scale(0.17 -0.17)">
     <use xlink:href="#DejaVuSans-32"/>
     <use x="63.623047" xlink:href="#DejaVuSans-2d"/>
     <use x="99.707031" xlink:href="#DejaVuSans-44"/>
    </g>
   </g>
   <g id="text_19">
    <!-- bbob f7 -->
    <g transform="translate(60.41088 38.111366)scale(0.102 -0.102)">
     <defs>
      <path d="M 3116 1747 
Q 3116 2381 2855 2742 
Q 2594 3103 2138 3103 
Q 1681 3103 1420 2742 
Q 1159 2381 1159 1747 
Q 1159 1113 1420 752 
Q 1681 391 2138 391 
Q 2594 391 2855 752 
Q 3116 1113 3116 1747 
z
M 1159 2969 
Q 1341 3281 1617 3432 
Q 1894 3584 2278 3584 
Q 2916 3584 3314 3078 
Q 3713 2572 3713 1747 
Q 3713 922 3314 415 
Q 2916 -91 2278 -91 
Q 1894 -91 1617 61 
Q 1341 213 1159 525 
L 1159 0 
L 581 0 
L 581 4863 
L 1159 4863 
L 1159 2969 
z
" id="DejaVuSans-62" transform="scale(0.015625)"/>
      <path d="M 525 4666 
L 3525 4666 
L 3525 4397 
L 1831 0 
L 1172 0 
L 2766 4134 
L 525 4134 
L 525 4666 
z
" id="DejaVuSans-37" transform="scale(0.015625)"/>
     </defs>
     <use xlink:href="#DejaVuSans-62"/>
     <use x="63.476562" xlink:href="#DejaVuSans-62"/>
     <use x="126.953125" xlink:href="#DejaVuSans-6f"/>
     <use x="188.134766" xlink:href="#DejaVuSans-62"/>
     <use x="251.611328" xlink:href="#DejaVuSans-20"/>
     <use x="283.398438" xlink:href="#DejaVuSans-66"/>
     <use x="318.603516" xlink:href="#DejaVuSans-37"/>
    </g>
    <!-- 51 targets: 100..1e-08 -->
    <g transform="translate(60.41088 49.533135)scale(0.102 -0.102)">
     <defs>
      <path d="M 750 794 
L 1409 794 
L 1409 0 
L 750 0 
L 750 794 
z
M 750 3309 
L 1409 3309 
L 1409 2516 
L 750 2516 
L 750 3309 
z
" id="DejaVuSans-3a" transform="scale(0.015625)"/>
     </defs>
     <use xlink:href="#DejaVuSans-35"/>
     <use x="63.623047" xlink:href="#DejaVuSans-31"/>
     <use x="127.246094" xlink:href="#DejaVuSans-20"/>
     <use x="159.033203" xlink:href="#DejaVuSans-74"/>
     <use x="198.242188" xlink:href="#DejaVuSans-61"/>
     <use x="259.521484" xlink:href="#DejaVuSans-72"/>
     <use x="298.884766" xlink:href="#DejaVuSans-67"/>
     <use x="362.361328" xlink:href="#DejaVuSans-65"/>
     <use x="423.884766" xlink:href="#DejaVuSans-74"/>
     <use x="463.09375" xlink:href="#DejaVuSans-73"/>
     <use x="515.193359" xlink:href="#DejaVuSans-3a"/>
     <use x="548.884766" xlink:href="#DejaVuSans-20"/>
     <use x="580.671875" xlink:href="#DejaVuSans-31"/>
     <use x="644.294922" xlink:href="#DejaVuSans-30"/>
     <use x="707.917969" xlink:href="#DejaVuSans-30"/>
     <use x="771.541016" xlink:href="#DejaVuSans-2e"/>
     <use x="803.328125" xlink:href="#DejaVuSans-2e"/>
     <use x="835.115234" xlink:href="#DejaVuSans-31"/>
     <use x="898.738281" xlink:href="#DejaVuSans-65"/>
     <use x="960.261719" xlink:href="#DejaVuSans-2d"/>
     <use x="996.345703" xlink:href="#DejaVuSans-30"/>
     <use x="1059.96875" xlink:href="#DejaVuSans-38"/>
    </g>
    <!-- 15 instances -->
    <g transform="translate(60.41088 60.954904)scale(0.102 -0.102)">
     <use xlink:href="#DejaVuSans-31"/>
     <use x="63.623047" xlink:href="#DejaVuSans-35"/>
     <use x="127.246094" xlink:href="#DejaVuSans-20"/>
     <use x="159.033203" xlink:href="#DejaVuSans-69"/>
     <use x="186.816406" xlink:href="#DejaVuSans-6e"/>
     <use x="250.195312" xlink:href="#DejaVuSans-73"/>
     <use x="302.294922" xlink:href="#DejaVuSans-74"/>
     <use x="341.503906" xlink:href="#DejaVuSans-61"/>
     <use x="402.783203" xlink:href="#DejaVuSans-6e"/>
     <use x="466.162109" xlink:href="#DejaVuSans-63"/>
     <use x="521.142578" xlink:href="#DejaVuSans-65"/>
     <use x="582.666016" xlink:href="#DejaVuSans-73"/>
    </g>
   </g>
   <g id="text_20">
    <!-- v2.4 -->
    <g style="fill:#808080;" transform="translate(187.233062 294.151352)scale(0.1 -0.1)">
     <use xlink:href="#DejaVuSans-76"/>
     <use x="59.179688" xlink:href="#DejaVuSans-32"/>
     <use x="122.802734" xlink:href="#DejaVuSans-2e"/>
     <use x="154.589844" xlink:href="#DejaVuSans-34"/>
    </g>
   </g>
   <g id="text_21">
    <!-- 7 Step-ellipsoid -->
    <g transform="translate(120.934625 21.648)scale(0.2 -0.2)">
     <defs>
      <path d="M 3425 4513 
L 3425 3897 
Q 3066 4069 2747 4153 
Q 2428 4238 2131 4238 
Q 1616 4238 1336 4038 
Q 1056 3838 1056 3469 
Q 1056 3159 1242 3001 
Q 1428 2844 1947 2747 
L 2328 2669 
Q 3034 2534 3370 2195 
Q 3706 1856 3706 1288 
Q 3706 609 3251 259 
Q 2797 -91 1919 -91 
Q 1588 -91 1214 -16 
Q 841 59 441 206 
L 441 856 
Q 825 641 1194 531 
Q 1563 422 1919 422 
Q 2459 422 2753 634 
Q 3047 847 3047 1241 
Q 3047 1584 2836 1778 
Q 2625 1972 2144 2069 
L 1759 2144 
Q 1053 2284 737 2584 
Q 422 2884 422 3419 
Q 422 4038 858 4394 
Q 1294 4750 2059 4750 
Q 2388 4750 2728 4690 
Q 3069 4631 3425 4513 
z
" id="DejaVuSans-53" transform="scale(0.015625)"/>
     </defs>
     <use xlink:href="#DejaVuSans-37"/>
     <use x="63.623047" xlink:href="#DejaVuSans-20"/>
     <use x="95.410156" xlink:href="#DejaVuSans-53"/>
     <use x="158.886719" xlink:href="#DejaVuSans-74"/>
     <use x="198.095703" xlink:href="#DejaVuSans-65"/>
     <use x="259.619141" xlink:href="#DejaVuSans-70"/>
     <use x="323.095703" xlink:href="#DejaVuSans-2d"/>
     <use x="359.179688" xlink:href="#DejaVuSans-65"/>
     <use x="420.703125" xlink:href="#DejaVuSans-6c"/>
     <use x="448.486328" xlink:href="#DejaVuSans-6c"/>
     <use x="476.269531" xlink:href="#DejaVuSans-69"/>
     <use x="504.052734" xlink:href="#DejaVuSans-70"/>
     <use x="567.529297" xlink:href="#DejaVuSans-73"/>
     <use x="619.628906" xlink:href="#DejaVuSans-6f"/>
     <use x="680.810547" xlink:href="#DejaVuSans-69"/>
     <use x="708.59375" xlink:href="#DejaVuSans-64"/>
    </g>
   </g>
  </g>
 </g>
 <defs>
  <clipPath id="pb9d46fe724">
   <rect height="271.296" width="281.088" x="57.6" y="27.648"/>
  </clipPath>
 </defs>
</svg>
