<?xml version="1.0" encoding="utf-8" standalone="no"?>
<!DOCTYPE svg PUBLIC "-//W3C//DTD SVG 1.1//EN"
  "http://www.w3.org/Graphics/SVG/1.1/DTD/svg11.dtd">
<svg height="345.6pt" version="1.1" viewBox="0 0 460.8 345.6" width="460.8pt" xmlns="http://www.w3.org/2000/svg" xmlns:xlink="http://www.w3.org/1999/xlink">
 <metadata>
  <rdf:RDF xmlns:cc="http://creativecommons.org/ns#" xmlns:dc="http://purl.org/dc/elements/1.1/" xmlns:rdf="http://www.w3.org/1999/02/22-rdf-syntax-ns#">
   <cc:Work>
    <dc:type rdf:resource="http://purl.org/dc/dcmitype/StillImage"/>
    <dc:date>2021-04-26T19:00:33.559520</dc:date>
    <dc:format>image/svg+xml</dc:format>
    <dc:creator>
     <cc:Agent>
      <dc:title>Matplotlib v3.4.1, https://matplotlib.org/</dc:title>
     </cc:Agent>
    </dc:creator>
   </cc:Work>
  </rdf:RDF>
 </metadata>
 <defs>
  <style type="text/css">*{stroke-linecap:butt;stroke-linejoin:round;}</style>
 </defs>
 <g id="figure_1">
  <g id="patch_1">
   <path d="M 0 345.6 
L 460.8 345.6 
L 460.8 0 
L 0 0 
z
" style="fill:#ffffff;"/>
  </g>
  <g id="axes_1">
   <g id="patch_2">
    <path d="M 57.6 298.944 
L 338.688 298.944 
L 338.688 27.648 
L 57.6 27.648 
z
" style="fill:#ffffff;"/>
   </g>
   <g id="matplotlib.axis_1">
    <g id="xtick_1">
     <g id="line2d_1">
      <path clip-path="url(#p72977ec350)" d="M 57.6 298.944 
L 57.6 27.648 
" style="fill:none;stroke:#b0b0b0;stroke-linecap:square;stroke-width:0.8;"/>
     </g>
     <g id="line2d_2">
      <defs>
       <path d="M 0 0 
L 0 3.5 
" id="m28c11d2a65" style="stroke:#000000;stroke-width:0.8;"/>
      </defs>
      <g>
       <use style="stroke:#000000;stroke-width:0.8;" x="57.6" xlink:href="#m28c11d2a65" y="298.944"/>
      </g>
     </g>
     <g id="text_1">
      <!-- 0 -->
      <g transform="translate(51.2375 321.140875)scale(0.2 -0.2)">
       <defs>
        <path d="M 2034 4250 
Q 1547 4250 1301 3770 
Q 1056 3291 1056 2328 
Q 1056 1369 1301 889 
Q 1547 409 2034 409 
Q 2525 409 2770 889 
Q 3016 1369 3016 2328 
Q 3016 3291 2770 3770 
Q 2525 4250 2034 4250 
z
M 2034 4750 
Q 2819 4750 3233 4129 
Q 3647 3509 3647 2328 
Q 3647 1150 3233 529 
Q 2819 -91 2034 -91 
Q 1250 -91 836 529 
Q 422 1150 422 2328 
Q 422 3509 836 4129 
Q 1250 4750 2034 4750 
z
" id="DejaVuSans-30" transform="scale(0.015625)"/>
       </defs>
       <use xlink:href="#DejaVuSans-30"/>
      </g>
     </g>
    </g>
    <g id="xtick_2">
     <g id="line2d_3">
      <path clip-path="url(#p72977ec350)" d="M 137.910857 298.944 
L 137.910857 27.648 
" style="fill:none;stroke:#b0b0b0;stroke-linecap:square;stroke-width:0.8;"/>
     </g>
     <g id="line2d_4">
      <g>
       <use style="stroke:#000000;stroke-width:0.8;" x="137.910857" xlink:href="#m28c11d2a65" y="298.944"/>
      </g>
     </g>
     <g id="text_2">
      <!-- 2 -->
      <g transform="translate(131.548357 321.140875)scale(0.2 -0.2)">
       <defs>
        <path d="M 1228 531 
L 3431 531 
L 3431 0 
L 469 0 
L 469 531 
Q 828 903 1448 1529 
Q 2069 2156 2228 2338 
Q 2531 2678 2651 2914 
Q 2772 3150 2772 3378 
Q 2772 3750 2511 3984 
Q 2250 4219 1831 4219 
Q 1534 4219 1204 4116 
Q 875 4013 500 3803 
L 500 4441 
Q 881 4594 1212 4672 
Q 1544 4750 1819 4750 
Q 2544 4750 2975 4387 
Q 3406 4025 3406 3419 
Q 3406 3131 3298 2873 
Q 3191 2616 2906 2266 
Q 2828 2175 2409 1742 
Q 1991 1309 1228 531 
z
" id="DejaVuSans-32" transform="scale(0.015625)"/>
       </defs>
       <use xlink:href="#DejaVuSans-32"/>
      </g>
     </g>
    </g>
    <g id="xtick_3">
     <g id="line2d_5">
      <path clip-path="url(#p72977ec350)" d="M 218.221714 298.944 
L 218.221714 27.648 
" style="fill:none;stroke:#b0b0b0;stroke-linecap:square;stroke-width:0.8;"/>
     </g>
     <g id="line2d_6">
      <g>
       <use style="stroke:#000000;stroke-width:0.8;" x="218.221714" xlink:href="#m28c11d2a65" y="298.944"/>
      </g>
     </g>
     <g id="text_3">
      <!-- 4 -->
      <g transform="translate(211.859214 321.140875)scale(0.2 -0.2)">
       <defs>
        <path d="M 2419 4116 
L 825 1625 
L 2419 1625 
L 2419 4116 
z
M 2253 4666 
L 3047 4666 
L 3047 1625 
L 3713 1625 
L 3713 1100 
L 3047 1100 
L 3047 0 
L 2419 0 
L 2419 1100 
L 313 1100 
L 313 1709 
L 2253 4666 
z
" id="DejaVuSans-34" transform="scale(0.015625)"/>
       </defs>
       <use xlink:href="#DejaVuSans-34"/>
      </g>
     </g>
    </g>
    <g id="xtick_4">
     <g id="line2d_7">
      <path clip-path="url(#p72977ec350)" d="M 298.532571 298.944 
L 298.532571 27.648 
" style="fill:none;stroke:#b0b0b0;stroke-linecap:square;stroke-width:0.8;"/>
     </g>
     <g id="line2d_8">
      <g>
       <use style="stroke:#000000;stroke-width:0.8;" x="298.532571" xlink:href="#m28c11d2a65" y="298.944"/>
      </g>
     </g>
     <g id="text_4">
      <!-- 6 -->
      <g transform="translate(292.170071 321.140875)scale(0.2 -0.2)">
       <defs>
        <path d="M 2113 2584 
Q 1688 2584 1439 2293 
Q 1191 2003 1191 1497 
Q 1191 994 1439 701 
Q 1688 409 2113 409 
Q 2538 409 2786 701 
Q 3034 994 3034 1497 
Q 3034 2003 2786 2293 
Q 2538 2584 2113 2584 
z
M 3366 4563 
L 3366 3988 
Q 3128 4100 2886 4159 
Q 2644 4219 2406 4219 
Q 1781 4219 1451 3797 
Q 1122 3375 1075 2522 
Q 1259 2794 1537 2939 
Q 1816 3084 2150 3084 
Q 2853 3084 3261 2657 
Q 3669 2231 3669 1497 
Q 3669 778 3244 343 
Q 2819 -91 2113 -91 
Q 1303 -91 875 529 
Q 447 1150 447 2328 
Q 447 3434 972 4092 
Q 1497 4750 2381 4750 
Q 2619 4750 2861 4703 
Q 3103 4656 3366 4563 
z
" id="DejaVuSans-36" transform="scale(0.015625)"/>
       </defs>
       <use xlink:href="#DejaVuSans-36"/>
      </g>
     </g>
    </g>
    <g id="xtick_5">
     <g id="line2d_9">
      <path clip-path="url(#p72977ec350)" d="M 97.755429 298.944 
L 97.755429 27.648 
" style="fill:none;stroke:#b0b0b0;stroke-linecap:square;stroke-width:0.8;"/>
     </g>
     <g id="line2d_10">
      <defs>
       <path d="M 0 0 
L 0 2 
" id="m1515646eb3" style="stroke:#000000;stroke-width:0.6;"/>
      </defs>
      <g>
       <use style="stroke:#000000;stroke-width:0.6;" x="97.755429" xlink:href="#m1515646eb3" y="298.944"/>
      </g>
     </g>
    </g>
    <g id="xtick_6">
     <g id="line2d_11">
      <path clip-path="url(#p72977ec350)" d="M 178.066286 298.944 
L 178.066286 27.648 
" style="fill:none;stroke:#b0b0b0;stroke-linecap:square;stroke-width:0.8;"/>
     </g>
     <g id="line2d_12">
      <g>
       <use style="stroke:#000000;stroke-width:0.6;" x="178.066286" xlink:href="#m1515646eb3" y="298.944"/>
      </g>
     </g>
    </g>
    <g id="xtick_7">
     <g id="line2d_13">
      <path clip-path="url(#p72977ec350)" d="M 258.377143 298.944 
L 258.377143 27.648 
" style="fill:none;stroke:#b0b0b0;stroke-linecap:square;stroke-width:0.8;"/>
     </g>
     <g id="line2d_14">
      <g>
       <use style="stroke:#000000;stroke-width:0.6;" x="258.377143" xlink:href="#m1515646eb3" y="298.944"/>
      </g>
     </g>
    </g>
    <g id="xtick_8">
     <g id="line2d_15">
      <path clip-path="url(#p72977ec350)" d="M 338.688 298.944 
L 338.688 27.648 
" style="fill:none;stroke:#b0b0b0;stroke-linecap:square;stroke-width:0.8;"/>
     </g>
     <g id="line2d_16">
      <g>
       <use style="stroke:#000000;stroke-width:0.6;" x="338.688" xlink:href="#m1515646eb3" y="298.944"/>
      </g>
     </g>
    </g>
    <g id="text_5">
     <!-- log10(# f-evals / dimension) -->
     <g transform="translate(77.764078 342.217594)scale(0.17 -0.17)">
      <defs>
       <path d="M 603 4863 
L 1178 4863 
L 1178 0 
L 603 0 
L 603 4863 
z
" id="DejaVuSans-6c" transform="scale(0.015625)"/>
       <path d="M 1959 3097 
Q 1497 3097 1228 2736 
Q 959 2375 959 1747 
Q 959 1119 1226 758 
Q 1494 397 1959 397 
Q 2419 397 2687 759 
Q 2956 1122 2956 1747 
Q 2956 2369 2687 2733 
Q 2419 3097 1959 3097 
z
M 1959 3584 
Q 2709 3584 3137 3096 
Q 3566 2609 3566 1747 
Q 3566 888 3137 398 
Q 2709 -91 1959 -91 
Q 1206 -91 779 398 
Q 353 888 353 1747 
Q 353 2609 779 3096 
Q 1206 3584 1959 3584 
z
" id="DejaVuSans-6f" transform="scale(0.015625)"/>
       <path d="M 2906 1791 
Q 2906 2416 2648 2759 
Q 2391 3103 1925 3103 
Q 1463 3103 1205 2759 
Q 947 2416 947 1791 
Q 947 1169 1205 825 
Q 1463 481 1925 481 
Q 2391 481 2648 825 
Q 2906 1169 2906 1791 
z
M 3481 434 
Q 3481 -459 3084 -895 
Q 2688 -1331 1869 -1331 
Q 1566 -1331 1297 -1286 
Q 1028 -1241 775 -1147 
L 775 -588 
Q 1028 -725 1275 -790 
Q 1522 -856 1778 -856 
Q 2344 -856 2625 -561 
Q 2906 -266 2906 331 
L 2906 616 
Q 2728 306 2450 153 
Q 2172 0 1784 0 
Q 1141 0 747 490 
Q 353 981 353 1791 
Q 353 2603 747 3093 
Q 1141 3584 1784 3584 
Q 2172 3584 2450 3431 
Q 2728 3278 2906 2969 
L 2906 3500 
L 3481 3500 
L 3481 434 
z
" id="DejaVuSans-67" transform="scale(0.015625)"/>
       <path d="M 794 531 
L 1825 531 
L 1825 4091 
L 703 3866 
L 703 4441 
L 1819 4666 
L 2450 4666 
L 2450 531 
L 3481 531 
L 3481 0 
L 794 0 
L 794 531 
z
" id="DejaVuSans-31" transform="scale(0.015625)"/>
       <path d="M 1984 4856 
Q 1566 4138 1362 3434 
Q 1159 2731 1159 2009 
Q 1159 1288 1364 580 
Q 1569 -128 1984 -844 
L 1484 -844 
Q 1016 -109 783 600 
Q 550 1309 550 2009 
Q 550 2706 781 3412 
Q 1013 4119 1484 4856 
L 1984 4856 
z
" id="DejaVuSans-28" transform="scale(0.015625)"/>
       <path d="M 3272 2816 
L 2363 2816 
L 2100 1772 
L 3016 1772 
L 3272 2816 
z
M 2803 4594 
L 2478 3297 
L 3391 3297 
L 3719 4594 
L 4219 4594 
L 3897 3297 
L 4872 3297 
L 4872 2816 
L 3775 2816 
L 3519 1772 
L 4513 1772 
L 4513 1294 
L 3397 1294 
L 3072 0 
L 2572 0 
L 2894 1294 
L 1978 1294 
L 1656 0 
L 1153 0 
L 1478 1294 
L 494 1294 
L 494 1772 
L 1594 1772 
L 1856 2816 
L 850 2816 
L 850 3297 
L 1978 3297 
L 2297 4594 
L 2803 4594 
z
" id="DejaVuSans-23" transform="scale(0.015625)"/>
       <path id="DejaVuSans-20" transform="scale(0.015625)"/>
       <path d="M 2375 4863 
L 2375 4384 
L 1825 4384 
Q 1516 4384 1395 4259 
Q 1275 4134 1275 3809 
L 1275 3500 
L 2222 3500 
L 2222 3053 
L 1275 3053 
L 1275 0 
L 697 0 
L 697 3053 
L 147 3053 
L 147 3500 
L 697 3500 
L 697 3744 
Q 697 4328 969 4595 
Q 1241 4863 1831 4863 
L 2375 4863 
z
" id="DejaVuSans-66" transform="scale(0.015625)"/>
       <path d="M 313 2009 
L 1997 2009 
L 1997 1497 
L 313 1497 
L 313 2009 
z
" id="DejaVuSans-2d" transform="scale(0.015625)"/>
       <path d="M 3597 1894 
L 3597 1613 
L 953 1613 
Q 991 1019 1311 708 
Q 1631 397 2203 397 
Q 2534 397 2845 478 
Q 3156 559 3463 722 
L 3463 178 
Q 3153 47 2828 -22 
Q 2503 -91 2169 -91 
Q 1331 -91 842 396 
Q 353 884 353 1716 
Q 353 2575 817 3079 
Q 1281 3584 2069 3584 
Q 2775 3584 3186 3129 
Q 3597 2675 3597 1894 
z
M 3022 2063 
Q 3016 2534 2758 2815 
Q 2500 3097 2075 3097 
Q 1594 3097 1305 2825 
Q 1016 2553 972 2059 
L 3022 2063 
z
" id="DejaVuSans-65" transform="scale(0.015625)"/>
       <path d="M 191 3500 
L 800 3500 
L 1894 563 
L 2988 3500 
L 3597 3500 
L 2284 0 
L 1503 0 
L 191 3500 
z
" id="DejaVuSans-76" transform="scale(0.015625)"/>
       <path d="M 2194 1759 
Q 1497 1759 1228 1600 
Q 959 1441 959 1056 
Q 959 750 1161 570 
Q 1363 391 1709 391 
Q 2188 391 2477 730 
Q 2766 1069 2766 1631 
L 2766 1759 
L 2194 1759 
z
M 3341 1997 
L 3341 0 
L 2766 0 
L 2766 531 
Q 2569 213 2275 61 
Q 1981 -91 1556 -91 
Q 1019 -91 701 211 
Q 384 513 384 1019 
Q 384 1609 779 1909 
Q 1175 2209 1959 2209 
L 2766 2209 
L 2766 2266 
Q 2766 2663 2505 2880 
Q 2244 3097 1772 3097 
Q 1472 3097 1187 3025 
Q 903 2953 641 2809 
L 641 3341 
Q 956 3463 1253 3523 
Q 1550 3584 1831 3584 
Q 2591 3584 2966 3190 
Q 3341 2797 3341 1997 
z
" id="DejaVuSans-61" transform="scale(0.015625)"/>
       <path d="M 2834 3397 
L 2834 2853 
Q 2591 2978 2328 3040 
Q 2066 3103 1784 3103 
Q 1356 3103 1142 2972 
Q 928 2841 928 2578 
Q 928 2378 1081 2264 
Q 1234 2150 1697 2047 
L 1894 2003 
Q 2506 1872 2764 1633 
Q 3022 1394 3022 966 
Q 3022 478 2636 193 
Q 2250 -91 1575 -91 
Q 1294 -91 989 -36 
Q 684 19 347 128 
L 347 722 
Q 666 556 975 473 
Q 1284 391 1588 391 
Q 1994 391 2212 530 
Q 2431 669 2431 922 
Q 2431 1156 2273 1281 
Q 2116 1406 1581 1522 
L 1381 1569 
Q 847 1681 609 1914 
Q 372 2147 372 2553 
Q 372 3047 722 3315 
Q 1072 3584 1716 3584 
Q 2034 3584 2315 3537 
Q 2597 3491 2834 3397 
z
" id="DejaVuSans-73" transform="scale(0.015625)"/>
       <path d="M 1625 4666 
L 2156 4666 
L 531 -594 
L 0 -594 
L 1625 4666 
z
" id="DejaVuSans-2f" transform="scale(0.015625)"/>
       <path d="M 2906 2969 
L 2906 4863 
L 3481 4863 
L 3481 0 
L 2906 0 
L 2906 525 
Q 2725 213 2448 61 
Q 2172 -91 1784 -91 
Q 1150 -91 751 415 
Q 353 922 353 1747 
Q 353 2572 751 3078 
Q 1150 3584 1784 3584 
Q 2172 3584 2448 3432 
Q 2725 3281 2906 2969 
z
M 947 1747 
Q 947 1113 1208 752 
Q 1469 391 1925 391 
Q 2381 391 2643 752 
Q 2906 1113 2906 1747 
Q 2906 2381 2643 2742 
Q 2381 3103 1925 3103 
Q 1469 3103 1208 2742 
Q 947 2381 947 1747 
z
" id="DejaVuSans-64" transform="scale(0.015625)"/>
       <path d="M 603 3500 
L 1178 3500 
L 1178 0 
L 603 0 
L 603 3500 
z
M 603 4863 
L 1178 4863 
L 1178 4134 
L 603 4134 
L 603 4863 
z
" id="DejaVuSans-69" transform="scale(0.015625)"/>
       <path d="M 3328 2828 
Q 3544 3216 3844 3400 
Q 4144 3584 4550 3584 
Q 5097 3584 5394 3201 
Q 5691 2819 5691 2113 
L 5691 0 
L 5113 0 
L 5113 2094 
Q 5113 2597 4934 2840 
Q 4756 3084 4391 3084 
Q 3944 3084 3684 2787 
Q 3425 2491 3425 1978 
L 3425 0 
L 2847 0 
L 2847 2094 
Q 2847 2600 2669 2842 
Q 2491 3084 2119 3084 
Q 1678 3084 1418 2786 
Q 1159 2488 1159 1978 
L 1159 0 
L 581 0 
L 581 3500 
L 1159 3500 
L 1159 2956 
Q 1356 3278 1631 3431 
Q 1906 3584 2284 3584 
Q 2666 3584 2933 3390 
Q 3200 3197 3328 2828 
z
" id="DejaVuSans-6d" transform="scale(0.015625)"/>
       <path d="M 3513 2113 
L 3513 0 
L 2938 0 
L 2938 2094 
Q 2938 2591 2744 2837 
Q 2550 3084 2163 3084 
Q 1697 3084 1428 2787 
Q 1159 2491 1159 1978 
L 1159 0 
L 581 0 
L 581 3500 
L 1159 3500 
L 1159 2956 
Q 1366 3272 1645 3428 
Q 1925 3584 2291 3584 
Q 2894 3584 3203 3211 
Q 3513 2838 3513 2113 
z
" id="DejaVuSans-6e" transform="scale(0.015625)"/>
       <path d="M 513 4856 
L 1013 4856 
Q 1481 4119 1714 3412 
Q 1947 2706 1947 2009 
Q 1947 1309 1714 600 
Q 1481 -109 1013 -844 
L 513 -844 
Q 928 -128 1133 580 
Q 1338 1288 1338 2009 
Q 1338 2731 1133 3434 
Q 928 4138 513 4856 
z
" id="DejaVuSans-29" transform="scale(0.015625)"/>
      </defs>
      <use xlink:href="#DejaVuSans-6c"/>
      <use x="27.783203" xlink:href="#DejaVuSans-6f"/>
      <use x="88.964844" xlink:href="#DejaVuSans-67"/>
      <use x="152.441406" xlink:href="#DejaVuSans-31"/>
      <use x="216.064453" xlink:href="#DejaVuSans-30"/>
      <use x="279.6875" xlink:href="#DejaVuSans-28"/>
      <use x="318.701172" xlink:href="#DejaVuSans-23"/>
      <use x="402.490234" xlink:href="#DejaVuSans-20"/>
      <use x="434.277344" xlink:href="#DejaVuSans-66"/>
      <use x="463.982422" xlink:href="#DejaVuSans-2d"/>
      <use x="500.066406" xlink:href="#DejaVuSans-65"/>
      <use x="561.589844" xlink:href="#DejaVuSans-76"/>
      <use x="620.769531" xlink:href="#DejaVuSans-61"/>
      <use x="682.048828" xlink:href="#DejaVuSans-6c"/>
      <use x="709.832031" xlink:href="#DejaVuSans-73"/>
      <use x="761.931641" xlink:href="#DejaVuSans-20"/>
      <use x="793.71875" xlink:href="#DejaVuSans-2f"/>
      <use x="827.410156" xlink:href="#DejaVuSans-20"/>
      <use x="859.197266" xlink:href="#DejaVuSans-64"/>
      <use x="922.673828" xlink:href="#DejaVuSans-69"/>
      <use x="950.457031" xlink:href="#DejaVuSans-6d"/>
      <use x="1047.869141" xlink:href="#DejaVuSans-65"/>
      <use x="1109.392578" xlink:href="#DejaVuSans-6e"/>
      <use x="1172.771484" xlink:href="#DejaVuSans-73"/>
      <use x="1224.871094" xlink:href="#DejaVuSans-69"/>
      <use x="1252.654297" xlink:href="#DejaVuSans-6f"/>
      <use x="1313.835938" xlink:href="#DejaVuSans-6e"/>
      <use x="1377.214844" xlink:href="#DejaVuSans-29"/>
     </g>
    </g>
   </g>
   <g id="matplotlib.axis_2">
    <g id="ytick_1">
     <g id="line2d_17">
      <path clip-path="url(#p72977ec350)" d="M 57.6 298.944 
L 338.688 298.944 
" style="fill:none;stroke:#b0b0b0;stroke-linecap:square;stroke-width:0.8;"/>
     </g>
     <g id="line2d_18">
      <defs>
       <path d="M 0 0 
L -3.5 0 
" id="m0cf843df73" style="stroke:#000000;stroke-width:0.8;"/>
      </defs>
      <g>
       <use style="stroke:#000000;stroke-width:0.8;" x="57.6" xlink:href="#m0cf843df73" y="298.944"/>
      </g>
     </g>
     <g id="text_6">
      <!-- 0.0 -->
      <g transform="translate(25.155 305.02275)scale(0.16 -0.16)">
       <defs>
        <path d="M 684 794 
L 1344 794 
L 1344 0 
L 684 0 
L 684 794 
z
" id="DejaVuSans-2e" transform="scale(0.015625)"/>
       </defs>
       <use xlink:href="#DejaVuSans-30"/>
       <use x="63.623047" xlink:href="#DejaVuSans-2e"/>
       <use x="95.410156" xlink:href="#DejaVuSans-30"/>
      </g>
     </g>
    </g>
    <g id="ytick_2">
     <g id="line2d_19">
      <path clip-path="url(#p72977ec350)" d="M 57.6 245.22202 
L 338.688 245.22202 
" style="fill:none;stroke:#b0b0b0;stroke-linecap:square;stroke-width:0.8;"/>
     </g>
     <g id="line2d_20">
      <g>
       <use style="stroke:#000000;stroke-width:0.8;" x="57.6" xlink:href="#m0cf843df73" y="245.22202"/>
      </g>
     </g>
     <g id="text_7">
      <!-- 0.2 -->
      <g transform="translate(25.155 251.30077)scale(0.16 -0.16)">
       <use xlink:href="#DejaVuSans-30"/>
       <use x="63.623047" xlink:href="#DejaVuSans-2e"/>
       <use x="95.410156" xlink:href="#DejaVuSans-32"/>
      </g>
     </g>
    </g>
    <g id="ytick_3">
     <g id="line2d_21">
      <path clip-path="url(#p72977ec350)" d="M 57.6 191.50004 
L 338.688 191.50004 
" style="fill:none;stroke:#b0b0b0;stroke-linecap:square;stroke-width:0.8;"/>
     </g>
     <g id="line2d_22">
      <g>
       <use style="stroke:#000000;stroke-width:0.8;" x="57.6" xlink:href="#m0cf843df73" y="191.50004"/>
      </g>
     </g>
     <g id="text_8">
      <!-- 0.4 -->
      <g transform="translate(25.155 197.57879)scale(0.16 -0.16)">
       <use xlink:href="#DejaVuSans-30"/>
       <use x="63.623047" xlink:href="#DejaVuSans-2e"/>
       <use x="95.410156" xlink:href="#DejaVuSans-34"/>
      </g>
     </g>
    </g>
    <g id="ytick_4">
     <g id="line2d_23">
      <path clip-path="url(#p72977ec350)" d="M 57.6 137.778059 
L 338.688 137.778059 
" style="fill:none;stroke:#b0b0b0;stroke-linecap:square;stroke-width:0.8;"/>
     </g>
     <g id="line2d_24">
      <g>
       <use style="stroke:#000000;stroke-width:0.8;" x="57.6" xlink:href="#m0cf843df73" y="137.778059"/>
      </g>
     </g>
     <g id="text_9">
      <!-- 0.6 -->
      <g transform="translate(25.155 143.856809)scale(0.16 -0.16)">
       <use xlink:href="#DejaVuSans-30"/>
       <use x="63.623047" xlink:href="#DejaVuSans-2e"/>
       <use x="95.410156" xlink:href="#DejaVuSans-36"/>
      </g>
     </g>
    </g>
    <g id="ytick_5">
     <g id="line2d_25">
      <path clip-path="url(#p72977ec350)" d="M 57.6 84.056079 
L 338.688 84.056079 
" style="fill:none;stroke:#b0b0b0;stroke-linecap:square;stroke-width:0.8;"/>
     </g>
     <g id="line2d_26">
      <g>
       <use style="stroke:#000000;stroke-width:0.8;" x="57.6" xlink:href="#m0cf843df73" y="84.056079"/>
      </g>
     </g>
     <g id="text_10">
      <!-- 0.8 -->
      <g transform="translate(25.155 90.134829)scale(0.16 -0.16)">
       <defs>
        <path d="M 2034 2216 
Q 1584 2216 1326 1975 
Q 1069 1734 1069 1313 
Q 1069 891 1326 650 
Q 1584 409 2034 409 
Q 2484 409 2743 651 
Q 3003 894 3003 1313 
Q 3003 1734 2745 1975 
Q 2488 2216 2034 2216 
z
M 1403 2484 
Q 997 2584 770 2862 
Q 544 3141 544 3541 
Q 544 4100 942 4425 
Q 1341 4750 2034 4750 
Q 2731 4750 3128 4425 
Q 3525 4100 3525 3541 
Q 3525 3141 3298 2862 
Q 3072 2584 2669 2484 
Q 3125 2378 3379 2068 
Q 3634 1759 3634 1313 
Q 3634 634 3220 271 
Q 2806 -91 2034 -91 
Q 1263 -91 848 271 
Q 434 634 434 1313 
Q 434 1759 690 2068 
Q 947 2378 1403 2484 
z
M 1172 3481 
Q 1172 3119 1398 2916 
Q 1625 2713 2034 2713 
Q 2441 2713 2670 2916 
Q 2900 3119 2900 3481 
Q 2900 3844 2670 4047 
Q 2441 4250 2034 4250 
Q 1625 4250 1398 4047 
Q 1172 3844 1172 3481 
z
" id="DejaVuSans-38" transform="scale(0.015625)"/>
       </defs>
       <use xlink:href="#DejaVuSans-30"/>
       <use x="63.623047" xlink:href="#DejaVuSans-2e"/>
       <use x="95.410156" xlink:href="#DejaVuSans-38"/>
      </g>
     </g>
    </g>
    <g id="ytick_6">
     <g id="line2d_27">
      <path clip-path="url(#p72977ec350)" d="M 57.6 30.334099 
L 338.688 30.334099 
" style="fill:none;stroke:#b0b0b0;stroke-linecap:square;stroke-width:0.8;"/>
     </g>
     <g id="line2d_28">
      <g>
       <use style="stroke:#000000;stroke-width:0.8;" x="57.6" xlink:href="#m0cf843df73" y="30.334099"/>
      </g>
     </g>
     <g id="text_11">
      <!-- 1.0 -->
      <g transform="translate(25.155 36.412849)scale(0.16 -0.16)">
       <use xlink:href="#DejaVuSans-31"/>
       <use x="63.623047" xlink:href="#DejaVuSans-2e"/>
       <use x="95.410156" xlink:href="#DejaVuSans-30"/>
      </g>
     </g>
    </g>
    <g id="text_12">
     <!-- Fraction of function,target pairs -->
     <g transform="translate(17.619531 297.681)rotate(-90)scale(0.17 -0.17)">
      <defs>
       <path d="M 628 4666 
L 3309 4666 
L 3309 4134 
L 1259 4134 
L 1259 2759 
L 3109 2759 
L 3109 2228 
L 1259 2228 
L 1259 0 
L 628 0 
L 628 4666 
z
" id="DejaVuSans-46" transform="scale(0.015625)"/>
       <path d="M 2631 2963 
Q 2534 3019 2420 3045 
Q 2306 3072 2169 3072 
Q 1681 3072 1420 2755 
Q 1159 2438 1159 1844 
L 1159 0 
L 581 0 
L 581 3500 
L 1159 3500 
L 1159 2956 
Q 1341 3275 1631 3429 
Q 1922 3584 2338 3584 
Q 2397 3584 2469 3576 
Q 2541 3569 2628 3553 
L 2631 2963 
z
" id="DejaVuSans-72" transform="scale(0.015625)"/>
       <path d="M 3122 3366 
L 3122 2828 
Q 2878 2963 2633 3030 
Q 2388 3097 2138 3097 
Q 1578 3097 1268 2742 
Q 959 2388 959 1747 
Q 959 1106 1268 751 
Q 1578 397 2138 397 
Q 2388 397 2633 464 
Q 2878 531 3122 666 
L 3122 134 
Q 2881 22 2623 -34 
Q 2366 -91 2075 -91 
Q 1284 -91 818 406 
Q 353 903 353 1747 
Q 353 2603 823 3093 
Q 1294 3584 2113 3584 
Q 2378 3584 2631 3529 
Q 2884 3475 3122 3366 
z
" id="DejaVuSans-63" transform="scale(0.015625)"/>
       <path d="M 1172 4494 
L 1172 3500 
L 2356 3500 
L 2356 3053 
L 1172 3053 
L 1172 1153 
Q 1172 725 1289 603 
Q 1406 481 1766 481 
L 2356 481 
L 2356 0 
L 1766 0 
Q 1100 0 847 248 
Q 594 497 594 1153 
L 594 3053 
L 172 3053 
L 172 3500 
L 594 3500 
L 594 4494 
L 1172 4494 
z
" id="DejaVuSans-74" transform="scale(0.015625)"/>
       <path d="M 544 1381 
L 544 3500 
L 1119 3500 
L 1119 1403 
Q 1119 906 1312 657 
Q 1506 409 1894 409 
Q 2359 409 2629 706 
Q 2900 1003 2900 1516 
L 2900 3500 
L 3475 3500 
L 3475 0 
L 2900 0 
L 2900 538 
Q 2691 219 2414 64 
Q 2138 -91 1772 -91 
Q 1169 -91 856 284 
Q 544 659 544 1381 
z
M 1991 3584 
L 1991 3584 
z
" id="DejaVuSans-75" transform="scale(0.015625)"/>
       <path d="M 750 794 
L 1409 794 
L 1409 256 
L 897 -744 
L 494 -744 
L 750 256 
L 750 794 
z
" id="DejaVuSans-2c" transform="scale(0.015625)"/>
       <path d="M 1159 525 
L 1159 -1331 
L 581 -1331 
L 581 3500 
L 1159 3500 
L 1159 2969 
Q 1341 3281 1617 3432 
Q 1894 3584 2278 3584 
Q 2916 3584 3314 3078 
Q 3713 2572 3713 1747 
Q 3713 922 3314 415 
Q 2916 -91 2278 -91 
Q 1894 -91 1617 61 
Q 1341 213 1159 525 
z
M 3116 1747 
Q 3116 2381 2855 2742 
Q 2594 3103 2138 3103 
Q 1681 3103 1420 2742 
Q 1159 2381 1159 1747 
Q 1159 1113 1420 752 
Q 1681 391 2138 391 
Q 2594 391 2855 752 
Q 3116 1113 3116 1747 
z
" id="DejaVuSans-70" transform="scale(0.015625)"/>
      </defs>
      <use xlink:href="#DejaVuSans-46"/>
      <use x="50.269531" xlink:href="#DejaVuSans-72"/>
      <use x="91.382812" xlink:href="#DejaVuSans-61"/>
      <use x="152.662109" xlink:href="#DejaVuSans-63"/>
      <use x="207.642578" xlink:href="#DejaVuSans-74"/>
      <use x="246.851562" xlink:href="#DejaVuSans-69"/>
      <use x="274.634766" xlink:href="#DejaVuSans-6f"/>
      <use x="335.816406" xlink:href="#DejaVuSans-6e"/>
      <use x="399.195312" xlink:href="#DejaVuSans-20"/>
      <use x="430.982422" xlink:href="#DejaVuSans-6f"/>
      <use x="492.164062" xlink:href="#DejaVuSans-66"/>
      <use x="527.369141" xlink:href="#DejaVuSans-20"/>
      <use x="559.15625" xlink:href="#DejaVuSans-66"/>
      <use x="594.361328" xlink:href="#DejaVuSans-75"/>
      <use x="657.740234" xlink:href="#DejaVuSans-6e"/>
      <use x="721.119141" xlink:href="#DejaVuSans-63"/>
      <use x="776.099609" xlink:href="#DejaVuSans-74"/>
      <use x="815.308594" xlink:href="#DejaVuSans-69"/>
      <use x="843.091797" xlink:href="#DejaVuSans-6f"/>
      <use x="904.273438" xlink:href="#DejaVuSans-6e"/>
      <use x="967.652344" xlink:href="#DejaVuSans-2c"/>
      <use x="999.439453" xlink:href="#DejaVuSans-74"/>
      <use x="1038.648438" xlink:href="#DejaVuSans-61"/>
      <use x="1099.927734" xlink:href="#DejaVuSans-72"/>
      <use x="1139.291016" xlink:href="#DejaVuSans-67"/>
      <use x="1202.767578" xlink:href="#DejaVuSans-65"/>
      <use x="1264.291016" xlink:href="#DejaVuSans-74"/>
      <use x="1303.5" xlink:href="#DejaVuSans-20"/>
      <use x="1335.287109" xlink:href="#DejaVuSans-70"/>
      <use x="1398.763672" xlink:href="#DejaVuSans-61"/>
      <use x="1460.042969" xlink:href="#DejaVuSans-69"/>
      <use x="1487.826172" xlink:href="#DejaVuSans-72"/>
      <use x="1528.939453" xlink:href="#DejaVuSans-73"/>
     </g>
    </g>
   </g>
   <g id="line2d_29">
    <defs>
     <path d="M 0 1.5 
C 0.397805 1.5 0.77937 1.341951 1.06066 1.06066 
C 1.341951 0.77937 1.5 0.397805 1.5 0 
C 1.5 -0.397805 1.341951 -0.77937 1.06066 -1.06066 
C 0.77937 -1.341951 0.397805 -1.5 0 -1.5 
C -0.397805 -1.5 -0.77937 -1.341951 -1.06066 -1.06066 
C -1.341951 -0.77937 -1.5 -0.397805 -1.5 0 
C -1.5 0.397805 -1.341951 0.77937 -1.06066 1.06066 
C -0.77937 1.341951 -0.397805 1.5 0 1.5 
z
" id="m66fca867ad" style="stroke:#00bfbf;"/>
    </defs>
    <g>
     <use style="fill:#00bfbf;stroke:#00bfbf;" x="289.917358" xlink:href="#m66fca867ad" y="30.334099"/>
     <use style="fill:#00bfbf;stroke:#00bfbf;" x="289.917358" xlink:href="#m66fca867ad" y="30.334099"/>
    </g>
   </g>
   <g id="line2d_30">
    <path d="M 45.512012 298.944 
L 45.512012 289.990337 
L 57.6 289.990337 
L 57.6 285.250162 
L 64.67102 285.250162 
L 64.67102 284.19679 
L 69.687988 284.19679 
L 69.687988 281.036673 
L 73.579452 281.036673 
L 73.579452 276.296499 
L 76.759008 276.296499 
L 76.759008 272.08301 
L 87.329581 272.08301 
L 87.329581 271.029638 
L 88.846997 271.029638 
L 88.846997 269.449579 
L 90.242884 269.449579 
L 90.242884 268.922893 
L 98.606294 268.922893 
L 98.606294 268.396207 
L 102.330873 268.396207 
L 102.330873 267.869521 
L 103.623262 267.869521 
L 103.623262 265.762777 
L 106.48859 265.762777 
L 106.48859 264.709405 
L 108.006005 264.709405 
L 108.006005 257.3358 
L 108.483824 257.3358 
L 108.483824 256.282427 
L 111.505558 256.282427 
L 111.505558 255.755741 
L 113.022974 255.755741 
L 113.022974 254.702369 
L 114.418861 254.702369 
L 114.418861 254.175683 
L 114.751048 254.175683 
L 114.751048 253.648997 
L 119.097192 253.648997 
L 119.097192 253.122311 
L 121.489881 253.122311 
L 121.489881 250.488881 
L 126.338353 250.488881 
L 126.338353 249.435508 
L 127.954256 249.435508 
L 127.954256 246.802078 
L 129.002426 246.802078 
L 129.002426 245.22202 
L 130.531948 245.22202 
L 130.531948 244.695334 
L 130.664567 244.695334 
L 130.664567 243.641962 
L 131.814826 243.641962 
L 131.814826 243.115275 
L 132.060454 243.115275 
L 132.060454 242.588589 
L 135.780341 242.588589 
L 135.878591 241.008531 
L 136.456742 241.008531 
L 136.456742 239.955159 
L 139.413734 239.955159 
L 139.413734 238.901787 
L 140.944478 238.901787 
L 140.944478 237.848415 
L 142.486301 237.848415 
L 142.486301 237.321729 
L 148.826773 237.321729 
L 148.826773 236.795043 
L 149.241465 236.795043 
L 149.241465 236.268356 
L 153.032466 236.268356 
L 153.032466 233.634926 
L 154.235652 233.634926 
L 154.235652 233.10824 
L 154.807483 233.10824 
L 154.807483 232.581554 
L 155.584129 232.581554 
L 155.584129 231.528182 
L 159.431225 231.528182 
L 159.431225 231.001496 
L 159.783038 231.001496 
L 159.783038 230.47481 
L 162.474869 230.47481 
L 162.474869 229.421437 
L 165.46508 229.421437 
L 165.46508 228.368065 
L 166.928532 228.368065 
L 166.928532 227.314693 
L 167.985782 227.314693 
L 167.985782 226.261321 
L 168.217383 226.261321 
L 168.217383 225.734635 
L 173.632396 225.734635 
L 173.632396 223.627891 
L 174.890216 223.627891 
L 174.890216 223.101204 
L 175.149812 223.101204 
L 175.149812 222.574518 
L 178.187935 222.574518 
L 178.187935 222.047832 
L 178.44579 222.047832 
L 178.44579 220.99446 
L 179.311276 220.99446 
L 179.311276 219.941088 
L 179.424571 219.941088 
L 179.424571 218.887716 
L 179.941152 218.887716 
L 179.941152 218.36103 
L 180.654624 218.36103 
L 180.729632 213.094169 
L 181.303877 213.094169 
L 181.303877 212.567483 
L 182.715356 212.567483 
L 182.715356 210.460738 
L 184.618101 210.460738 
L 184.618101 209.407366 
L 187.564541 209.407366 
L 187.564541 204.667192 
L 188.566961 204.667192 
L 188.566961 203.613819 
L 189.752948 203.613819 
L 189.752948 202.033761 
L 192.424009 202.033761 
L 192.424009 201.507075 
L 192.640837 201.507075 
L 192.640837 200.980389 
L 195.666609 200.980389 
L 195.676142 199.400331 
L 196.146232 199.400331 
L 196.146232 198.873645 
L 196.385761 198.873645 
L 196.385761 198.346959 
L 197.701227 198.346959 
L 197.701227 197.293586 
L 198.170023 197.293586 
L 198.170023 196.240214 
L 198.47299 196.240214 
L 198.510831 194.13347 
L 199.449035 194.13347 
L 199.449035 193.606784 
L 202.534095 193.606784 
L 202.534095 193.080098 
L 202.989013 193.080098 
L 202.993189 191.50004 
L 203.231675 191.50004 
L 203.231675 189.393295 
L 203.344591 189.393295 
L 203.344591 188.866609 
L 203.822963 188.866609 
L 203.822963 188.339923 
L 204.826842 188.339923 
L 204.826842 187.286551 
L 205.880774 187.286551 
L 205.880774 186.759865 
L 206.664442 186.759865 
L 206.686419 185.706493 
L 206.802609 185.706493 
L 206.802609 185.179807 
L 207.263046 185.179807 
L 207.263046 184.653121 
L 208.058637 184.653121 
L 208.058637 184.126434 
L 208.206369 184.126434 
L 208.206369 183.599748 
L 209.130671 183.599748 
L 209.130671 183.073062 
L 209.587241 183.073062 
L 209.587241 182.546376 
L 209.728301 182.546376 
L 209.728301 182.01969 
L 210.05864 182.01969 
L 210.05864 180.966318 
L 210.219423 180.966318 
L 210.219423 177.279515 
L 210.419703 177.279515 
L 210.506778 175.699457 
L 210.563685 175.699457 
L 210.563685 175.172771 
L 211.210322 175.172771 
L 211.210322 174.119399 
L 211.986605 174.119399 
L 211.986605 173.066027 
L 212.161514 173.066027 
L 212.161514 170.432596 
L 212.691528 170.432596 
L 212.691528 167.27248 
L 212.936453 167.27248 
L 212.976549 165.692422 
L 213.067014 165.692422 
L 213.067014 165.165736 
L 213.506722 165.165736 
L 213.514719 163.585677 
L 213.899902 163.585677 
L 213.899902 162.532305 
L 214.02458 162.532305 
L 214.02458 160.952247 
L 214.983813 160.952247 
L 214.983813 159.898875 
L 215.249494 159.898875 
L 215.346419 157.79213 
L 215.505075 157.79213 
L 215.605661 156.738758 
L 215.773027 156.738758 
L 215.773027 155.685386 
L 216.432678 155.685386 
L 216.432678 155.1587 
L 216.923287 155.1587 
L 216.923287 154.632014 
L 217.152853 154.632014 
L 217.152853 153.051956 
L 217.389499 153.051956 
L 217.389499 151.998584 
L 217.501631 151.998584 
L 217.591364 150.945211 
L 217.880067 150.945211 
L 217.880067 148.838467 
L 218.025292 148.838467 
L 218.067569 147.785095 
L 219.46102 147.785095 
L 219.538813 146.205037 
L 219.595319 146.205037 
L 219.595319 145.678351 
L 219.856089 145.678351 
L 219.875133 144.624978 
L 220.470766 144.624978 
L 220.479196 140.41149 
L 221.602115 140.41149 
L 221.694533 139.358118 
L 221.925924 139.358118 
L 222.018049 137.778059 
L 223.068696 137.778059 
L 223.068696 137.251373 
L 224.212435 137.251373 
L 224.212435 136.724687 
L 225.27645 136.724687 
L 225.27645 134.091257 
L 227.073376 134.091257 
L 227.073376 133.564571 
L 227.298664 133.564571 
L 227.298664 133.037885 
L 227.597649 133.037885 
L 227.597649 132.511199 
L 227.783581 132.511199 
L 227.783581 131.984513 
L 227.966556 131.984513 
L 227.966556 131.457826 
L 228.54818 131.457826 
L 228.54818 130.93114 
L 229.646776 130.93114 
L 229.756028 129.877768 
L 229.894541 129.877768 
L 229.894541 129.351082 
L 231.138963 129.351082 
L 231.138963 128.824396 
L 231.90513 128.824396 
L 231.90513 127.771024 
L 232.193572 127.771024 
L 232.193572 125.66428 
L 233.668541 125.66428 
L 233.668541 125.137593 
L 237.357455 125.137593 
L 237.357455 124.084221 
L 237.612857 124.084221 
L 237.612857 123.557535 
L 237.935387 123.557535 
L 237.935387 123.030849 
L 238.149458 123.030849 
L 238.149458 120.924105 
L 238.676787 120.924105 
L 238.762116 117.763988 
L 238.863856 117.763988 
L 238.956511 115.130558 
L 238.986226 115.130558 
L 238.986226 114.077186 
L 239.311359 114.077186 
L 239.4203 112.497128 
L 239.59269 112.497128 
L 239.59269 111.970441 
L 239.882401 111.970441 
L 239.882401 111.443755 
L 240.041075 111.443755 
L 240.041075 110.917069 
L 240.757053 110.917069 
L 240.757053 109.863697 
L 241.148745 109.863697 
L 241.255436 107.756953 
L 242.405537 107.756953 
L 242.405537 106.703581 
L 243.100317 106.703581 
L 243.190537 105.650209 
L 243.311349 105.650209 
L 243.311349 105.123522 
L 243.703669 105.123522 
L 243.703669 104.596836 
L 244.172821 104.596836 
L 244.172821 104.07015 
L 244.897859 104.07015 
L 244.897859 103.543464 
L 246.136593 103.543464 
L 246.136593 101.963406 
L 247.399339 101.963406 
L 247.399339 101.43672 
L 248.513356 101.43672 
L 248.591929 100.383348 
L 248.679885 100.383348 
L 248.786602 98.276603 
L 248.838059 98.276603 
L 248.854927 97.223231 
L 249.369461 97.223231 
L 249.430885 94.589801 
L 249.713604 94.589801 
L 249.713604 94.063115 
L 249.882452 94.063115 
L 249.882452 93.536429 
L 250.095025 93.536429 
L 250.179501 91.429684 
L 250.638576 91.429684 
L 250.638576 90.376312 
L 251.4408 90.376312 
L 251.4408 89.32294 
L 251.986247 89.32294 
L 252.016662 88.269568 
L 252.452924 88.269568 
L 252.452924 87.742882 
L 252.643423 87.742882 
L 252.731752 86.68951 
L 253.266098 86.68951 
L 253.266098 85.636137 
L 254.709531 85.636137 
L 254.709531 85.109451 
L 254.950402 85.109451 
L 254.996613 82.476021 
L 255.106875 82.476021 
L 255.106875 81.422649 
L 255.440352 81.422649 
L 255.47952 79.315904 
L 255.842452 79.315904 
L 255.842452 78.789218 
L 255.993756 78.789218 
L 255.993756 78.262532 
L 256.207172 78.262532 
L 256.207172 77.735846 
L 256.555613 77.735846 
L 256.555613 75.102416 
L 256.867684 75.102416 
L 256.867684 74.049044 
L 257.913694 74.049044 
L 257.913694 72.995672 
L 259.089607 72.995672 
L 259.089607 72.468985 
L 259.680896 72.468985 
L 259.680896 71.942299 
L 259.965168 71.942299 
L 260.003258 68.782183 
L 260.39364 68.782183 
L 260.39364 68.255497 
L 260.83177 68.255497 
L 260.83177 67.728811 
L 261.076453 67.728811 
L 261.076453 67.202125 
L 263.248476 67.202125 
L 263.248476 66.675439 
L 263.461558 66.675439 
L 263.554532 65.09538 
L 263.732337 65.09538 
L 263.732337 64.568694 
L 263.934108 64.568694 
L 263.942412 63.515322 
L 264.152428 63.515322 
L 264.152428 62.988636 
L 264.464384 62.988636 
L 264.464384 62.46195 
L 264.786323 62.46195 
L 264.786323 61.408578 
L 265.148141 61.408578 
L 265.148141 60.881892 
L 266.313749 60.881892 
L 266.313749 60.355206 
L 266.529742 60.355206 
L 266.555893 55.615031 
L 266.857353 55.615031 
L 266.857353 55.088345 
L 267.035206 55.088345 
L 267.129107 54.034973 
L 267.372033 54.034973 
L 267.372033 52.9816 
L 267.573994 52.9816 
L 267.573994 52.454914 
L 267.766417 52.454914 
L 267.766417 51.928228 
L 268.816731 51.928228 
L 268.918742 50.874856 
L 269.002863 50.874856 
L 269.088515 48.768112 
L 269.200348 48.768112 
L 269.200348 48.241426 
L 269.508363 48.241426 
L 269.589878 47.188054 
L 271.228248 47.188054 
L 271.30366 44.027937 
L 271.917979 44.027937 
L 271.917979 43.501251 
L 272.23711 43.501251 
L 272.23711 42.974565 
L 273.079947 42.974565 
L 273.108182 41.921193 
L 273.478223 41.921193 
L 273.534766 40.867821 
L 273.664587 40.867821 
L 273.664587 40.341135 
L 275.022154 40.341135 
L 275.022154 39.814448 
L 275.275357 39.814448 
L 275.275357 39.287762 
L 275.392888 39.287762 
L 275.392888 38.761076 
L 276.63842 38.761076 
L 276.63842 38.23439 
L 276.965247 38.23439 
L 276.965247 37.707704 
L 278.106829 37.707704 
L 278.106829 37.181018 
L 278.407489 37.181018 
L 278.407489 36.654332 
L 278.806319 36.654332 
L 278.806319 36.127646 
L 279.451247 36.127646 
L 279.461141 34.547588 
L 280.733139 34.547588 
L 280.733139 34.020902 
L 283.216044 34.020902 
L 283.216044 33.494215 
L 284.021544 33.494215 
L 284.021544 32.967529 
L 284.989766 32.967529 
L 284.989766 32.440843 
L 286.11339 32.440843 
L 286.11339 31.387471 
L 287.779331 31.387471 
L 287.779331 30.860785 
L 289.917358 30.860785 
L 289.917358 30.334099 
L 338.688 30.334099 
L 338.688 30.334099 
" style="fill:none;stroke:#00bfbf;stroke-linecap:square;stroke-width:1.5;"/>
   </g>
   <g id="line2d_31">
    <defs>
     <path d="M -6 0 
L 6 0 
M 0 6 
L 0 -6 
" id="md9b29c3c1d" style="stroke:#00bfbf;stroke-width:1.5;"/>
    </defs>
    <g>
     <use style="fill-opacity:0;stroke:#00bfbf;stroke-width:1.5;" x="114.418861" xlink:href="#md9b29c3c1d" y="254.702369"/>
     <use style="fill-opacity:0;stroke:#00bfbf;stroke-width:1.5;" x="198.170023" xlink:href="#md9b29c3c1d" y="196.240214"/>
     <use style="fill-opacity:0;stroke:#00bfbf;stroke-width:1.5;" x="233.668541" xlink:href="#md9b29c3c1d" y="125.66428"/>
     <use style="fill-opacity:0;stroke:#00bfbf;stroke-width:1.5;" x="275.392888" xlink:href="#md9b29c3c1d" y="38.761076"/>
     <use style="fill-opacity:0;stroke:#00bfbf;stroke-width:1.5;" x="289.917358" xlink:href="#md9b29c3c1d" y="30.334099"/>
     <use style="fill-opacity:0;stroke:#00bfbf;stroke-width:1.5;" x="338.688" xlink:href="#md9b29c3c1d" y="30.334099"/>
    </g>
   </g>
   <g id="line2d_32">
    <path style="fill:none;stroke:#00bfbf;stroke-linecap:square;stroke-width:1.5;"/>
    <g/>
   </g>
   <g id="line2d_33">
    <path clip-path="url(#p72977ec350)" d="M 234.223474 125.137593 
" style="fill:none;stroke:#00bfbf;stroke-linecap:square;stroke-width:1.5;"/>
    <defs>
     <path d="M -12 12 
L 12 -12 
M -12 -12 
L 12 12 
" id="m13573c1a78" style="stroke:#00bfbf;"/>
    </defs>
    <g clip-path="url(#p72977ec350)">
     <use style="fill:#00bfbf;stroke:#00bfbf;" x="234.223474" xlink:href="#m13573c1a78" y="125.137593"/>
    </g>
   </g>
   <g id="line2d_34">
    <defs>
     <path d="M 0 1.5 
C 0.397805 1.5 0.77937 1.341951 1.06066 1.06066 
C 1.341951 0.77937 1.5 0.397805 1.5 0 
C 1.5 -0.397805 1.341951 -0.77937 1.06066 -1.06066 
C 0.77937 -1.341951 0.397805 -1.5 0 -1.5 
C -0.397805 -1.5 -0.77937 -1.341951 -1.06066 -1.06066 
C -1.341951 -0.77937 -1.5 -0.397805 -1.5 0 
C -1.5 0.397805 -1.341951 0.77937 -1.06066 1.06066 
C -0.77937 1.341951 -0.397805 1.5 0 1.5 
z
" id="m832ce485b0" style="stroke:#008000;"/>
    </defs>
    <g>
     <use style="fill:#008000;stroke:#008000;" x="295.951454" xlink:href="#m832ce485b0" y="40.867821"/>
     <use style="fill:#008000;stroke:#008000;" x="295.951454" xlink:href="#m832ce485b0" y="40.867821"/>
    </g>
   </g>
   <g id="line2d_35">
    <path d="M 38.440992 298.944 
L 38.440992 289.463651 
L 50.52898 289.463651 
L 50.52898 286.303534 
L 57.6 286.303534 
L 57.6 284.19679 
L 62.616969 284.19679 
L 62.616969 282.616732 
L 66.508432 282.616732 
L 66.508432 281.563359 
L 72.376266 281.563359 
L 72.376266 279.983301 
L 74.704957 279.983301 
L 74.704957 278.929929 
L 78.59642 278.929929 
L 78.59642 275.243126 
L 85.66744 275.243126 
L 85.66744 274.189754 
L 86.792945 274.189754 
L 86.792945 272.609696 
L 92.34655 272.609696 
L 92.34655 272.08301 
L 94.575872 272.08301 
L 94.575872 271.029638 
L 95.918017 271.029638 
L 95.918017 270.502952 
L 98.880934 270.502952 
L 98.880934 269.449579 
L 101.877879 269.449579 
L 101.877879 268.922893 
L 108.640231 268.922893 
L 108.640231 268.396207 
L 108.948899 268.396207 
L 108.948899 267.869521 
L 109.252198 267.869521 
L 109.252198 265.236091 
L 111.767808 265.236091 
L 111.767808 264.709405 
L 113.73488 264.709405 
L 113.73488 262.075974 
L 114.860386 262.075974 
L 114.860386 261.549288 
L 116.914437 261.549288 
L 116.914437 261.022602 
L 121.189196 261.022602 
L 121.189196 259.96923 
L 124.114161 259.96923 
L 124.114161 259.442544 
L 126.729009 259.442544 
L 126.729009 258.915858 
L 127.799239 258.915858 
L 127.799239 258.389172 
L 131.013364 258.389172 
L 131.013364 257.862486 
L 132.422528 257.862486 
L 132.422528 256.809114 
L 134.591225 256.809114 
L 134.591225 255.755741 
L 137.910857 255.755741 
L 137.910857 255.229055 
L 141.568232 255.229055 
L 141.568232 254.175683 
L 145.174578 254.175683 
L 145.174578 253.648997 
L 148.919783 253.648997 
L 148.919783 252.595625 
L 149.705742 252.595625 
L 149.705742 251.542253 
L 150.542526 251.542253 
L 150.542526 249.962195 
L 151.554972 249.962195 
L 151.554972 249.435508 
L 156.175347 249.435508 
L 156.175347 248.908822 
L 161.79373 248.908822 
L 161.79373 248.382136 
L 162.756836 248.382136 
L 162.756836 246.802078 
L 166.094173 246.802078 
L 166.094173 245.748706 
L 167.566296 245.748706 
L 167.566296 245.22202 
L 168.60668 245.22202 
L 168.60668 244.168648 
L 169.215888 244.168648 
L 169.215888 243.641962 
L 170.109924 243.641962 
L 170.109924 242.588589 
L 174.290699 242.588589 
L 174.290699 242.061903 
L 176.066647 242.061903 
L 176.066647 241.535217 
L 177.287644 241.535217 
L 177.342265 236.795043 
L 180.559149 236.795043 
L 180.559149 236.268356 
L 184.907145 236.268356 
L 184.907145 235.74167 
L 185.306995 235.74167 
L 185.306995 235.214984 
L 185.895655 235.214984 
L 185.895655 234.688298 
L 186.929316 234.688298 
L 186.929316 234.161612 
L 187.835545 234.161612 
L 187.835545 232.581554 
L 188.258635 232.581554 
L 188.258635 232.054868 
L 190.76544 232.054868 
L 190.76544 230.47481 
L 190.902416 230.47481 
L 190.902416 228.894751 
L 192.065646 228.894751 
L 192.065646 227.841379 
L 192.899758 227.841379 
L 192.899758 225.734635 
L 193.222056 225.734635 
L 193.222056 225.207949 
L 196.801647 225.207949 
L 196.801647 224.681263 
L 199.024297 224.681263 
L 199.024297 224.154577 
L 200.306072 224.154577 
L 200.306072 223.627891 
L 201.174019 223.627891 
L 201.174019 222.574518 
L 201.688588 222.574518 
L 201.688588 222.047832 
L 204.433992 222.047832 
L 204.433992 221.521146 
L 204.865645 221.521146 
L 204.865645 220.99446 
L 205.1053 220.99446 
L 205.111465 219.941088 
L 206.021756 219.941088 
L 206.021756 219.414402 
L 206.479069 219.414402 
L 206.479069 218.36103 
L 207.363554 218.36103 
L 207.363554 217.834344 
L 207.651529 217.834344 
L 207.651529 216.780971 
L 208.288761 216.780971 
L 208.288761 216.254285 
L 208.493054 216.254285 
L 208.493054 214.674227 
L 208.655789 214.674227 
L 208.655789 214.147541 
L 209.142905 214.147541 
L 209.142905 213.620855 
L 209.380971 213.620855 
L 209.380971 213.094169 
L 209.538532 213.094169 
L 209.538532 212.567483 
L 210.681424 212.567483 
L 210.681424 211.514111 
L 210.905704 211.514111 
L 210.905704 210.987425 
L 211.122769 210.987425 
L 211.122769 209.407366 
L 211.282732 209.407366 
L 211.282732 208.88068 
L 211.638219 208.88068 
L 211.729556 205.720564 
L 211.779251 205.720564 
L 211.779251 205.193878 
L 212.591865 205.193878 
L 212.628755 204.140506 
L 213.315231 204.140506 
L 213.315231 203.613819 
L 213.604715 203.613819 
L 213.641038 202.560447 
L 213.879036 202.560447 
L 213.987567 201.507075 
L 214.231878 201.507075 
L 214.313531 199.927017 
L 214.43024 199.927017 
L 214.43024 199.400331 
L 214.655636 199.400331 
L 214.673457 198.346959 
L 215.131913 198.346959 
L 215.131913 197.820273 
L 215.262586 197.820273 
L 215.329273 195.186842 
L 215.513565 195.186842 
L 215.513565 194.660156 
L 216.465497 194.660156 
L 216.465497 192.553412 
L 216.637585 192.553412 
L 216.74547 189.393295 
L 217.774227 189.393295 
L 217.774227 188.866609 
L 217.939839 188.866609 
L 217.947517 187.813237 
L 218.095697 187.813237 
L 218.095697 187.286551 
L 218.509973 187.286551 
L 218.509973 186.759865 
L 218.656872 186.759865 
L 218.715739 183.599748 
L 218.978765 183.599748 
L 218.978765 182.546376 
L 219.121231 182.546376 
L 219.121231 182.01969 
L 219.300289 182.01969 
L 219.300289 181.493004 
L 219.750704 181.493004 
L 219.752302 179.912946 
L 219.866407 179.912946 
L 219.866407 179.38626 
L 220.411649 179.38626 
L 220.411649 176.752829 
L 220.900522 176.752829 
L 220.900522 176.226143 
L 221.036094 176.226143 
L 221.036094 175.699457 
L 221.309474 175.699457 
L 221.407083 173.066027 
L 221.420637 173.066027 
L 221.420637 172.539341 
L 221.725705 172.539341 
L 221.765127 170.432596 
L 221.880032 170.432596 
L 221.880032 169.90591 
L 222.06288 169.90591 
L 222.06288 169.379224 
L 222.395947 169.379224 
L 222.395947 168.325852 
L 223.208574 168.325852 
L 223.208574 167.27248 
L 223.738499 167.27248 
L 223.774473 165.165736 
L 224.188092 165.165736 
L 224.188092 164.63905 
L 224.454827 164.63905 
L 224.558611 163.585677 
L 225.566884 163.585677 
L 225.566884 163.058991 
L 225.963295 163.058991 
L 225.963295 162.532305 
L 226.301589 162.532305 
L 226.301589 162.005619 
L 226.48822 162.005619 
L 226.48822 161.478933 
L 227.084745 161.478933 
L 227.084745 160.952247 
L 231.492337 160.952247 
L 231.492337 160.425561 
L 231.697002 160.425561 
L 231.697002 159.898875 
L 232.295673 159.898875 
L 232.295673 158.845503 
L 232.881245 158.845503 
L 232.944334 157.79213 
L 233.00595 157.79213 
L 233.00595 157.265444 
L 234.08826 157.265444 
L 234.08826 156.212072 
L 234.289765 156.212072 
L 234.312191 154.632014 
L 234.501314 154.632014 
L 234.501314 154.105328 
L 234.763768 154.105328 
L 234.802001 151.471897 
L 235.449187 151.471897 
L 235.449187 150.945211 
L 235.929345 150.945211 
L 235.975193 149.891839 
L 236.193723 149.891839 
L 236.193723 147.785095 
L 236.393151 147.785095 
L 236.449043 146.731723 
L 236.562525 146.731723 
L 236.608968 145.151665 
L 236.862715 145.151665 
L 236.862715 144.624978 
L 237.023854 144.624978 
L 237.023854 143.571606 
L 237.379754 143.571606 
L 237.423687 142.518234 
L 237.616872 142.518234 
L 237.633114 140.41149 
L 237.943738 140.41149 
L 237.954241 139.358118 
L 238.102857 139.358118 
L 238.102857 138.304745 
L 238.323983 138.304745 
L 238.323983 137.778059 
L 238.465671 137.778059 
L 238.465671 137.251373 
L 238.655997 137.251373 
L 238.655997 136.198001 
L 238.820198 136.198001 
L 238.911487 135.144629 
L 239.16049 135.144629 
L 239.16049 134.617943 
L 242.411637 134.617943 
L 242.411637 134.091257 
L 243.17171 134.091257 
L 243.17171 133.037885 
L 243.29914 133.037885 
L 243.314728 131.984513 
L 243.745756 131.984513 
L 243.778145 130.404454 
L 243.988211 130.404454 
L 243.988211 129.877768 
L 244.258848 129.877768 
L 244.340553 127.244338 
L 244.465818 127.244338 
L 244.572623 125.137593 
L 244.693817 125.137593 
L 244.762858 124.084221 
L 244.865468 124.084221 
L 244.865468 123.557535 
L 245.076 123.557535 
L 245.093316 122.504163 
L 245.34316 122.504163 
L 245.34316 121.450791 
L 245.561376 121.450791 
L 245.561376 120.924105 
L 245.705872 120.924105 
L 245.705872 120.397419 
L 246.258201 120.397419 
L 246.288922 119.344047 
L 248.199484 119.344047 
L 248.199484 118.817361 
L 248.462983 118.817361 
L 248.462983 117.763988 
L 249.130522 117.763988 
L 249.130522 117.237302 
L 249.56051 117.237302 
L 249.615646 115.657244 
L 249.871521 115.657244 
L 249.871521 113.023814 
L 250.188429 113.023814 
L 250.25533 111.970441 
L 250.422891 111.970441 
L 250.422891 110.390383 
L 250.543278 110.390383 
L 250.543278 109.863697 
L 250.692128 109.863697 
L 250.692128 108.810325 
L 254.064266 108.810325 
L 254.064266 106.176895 
L 254.197526 106.176895 
L 254.212368 104.596836 
L 254.515737 104.596836 
L 254.594625 103.016778 
L 254.712723 103.016778 
L 254.773724 101.43672 
L 254.988461 101.43672 
L 254.988461 100.910034 
L 257.441824 100.910034 
L 257.441824 99.329976 
L 257.642333 99.329976 
L 257.691436 98.276603 
L 257.801012 98.276603 
L 257.801012 97.749917 
L 257.993059 97.749917 
L 258.02844 96.696545 
L 258.372841 96.696545 
L 258.372841 96.169859 
L 260.046734 96.169859 
L 260.129681 95.116487 
L 260.270167 95.116487 
L 260.270167 93.009743 
L 260.643406 93.009743 
L 260.679306 90.376312 
L 262.508999 90.376312 
L 262.508999 89.849626 
L 262.703174 89.849626 
L 262.703174 87.742882 
L 262.969526 87.742882 
L 263.028261 86.162824 
L 263.138904 86.162824 
L 263.138904 85.636137 
L 264.787087 85.636137 
L 264.837931 84.582765 
L 265.12587 84.582765 
L 265.12587 83.529393 
L 265.452735 83.529393 
L 265.452735 83.002707 
L 266.739639 83.002707 
L 266.739639 81.949335 
L 266.99805 81.949335 
L 266.99805 81.422649 
L 267.19255 81.422649 
L 267.291921 80.369277 
L 268.168233 80.369277 
L 268.168233 79.842591 
L 268.454211 79.842591 
L 268.56113 78.789218 
L 268.64615 78.789218 
L 268.688586 77.735846 
L 270.015198 77.735846 
L 270.015198 76.682474 
L 270.190787 76.682474 
L 270.229629 75.629102 
L 270.391382 75.629102 
L 270.391382 75.102416 
L 271.447869 75.102416 
L 271.447869 74.049044 
L 271.645484 74.049044 
L 271.645484 73.522358 
L 271.794677 73.522358 
L 271.794677 72.995672 
L 272.703271 72.995672 
L 272.771726 71.415613 
L 272.875794 71.415613 
L 272.921753 70.362241 
L 273.164317 70.362241 
L 273.164317 69.835555 
L 274.002138 69.835555 
L 274.002138 68.255497 
L 274.17296 68.255497 
L 274.17296 67.728811 
L 274.368263 67.728811 
L 274.368263 67.202125 
L 275.151431 67.202125 
L 275.151431 66.148752 
L 275.311409 66.148752 
L 275.353118 65.09538 
L 275.494434 65.09538 
L 275.494434 64.568694 
L 276.229643 64.568694 
L 276.229643 63.515322 
L 276.352781 63.515322 
L 276.380071 61.935264 
L 277.361253 61.935264 
L 277.38701 60.355206 
L 278.338969 60.355206 
L 278.338969 58.248461 
L 280.099883 58.248461 
L 280.207147 57.195089 
L 280.802012 57.195089 
L 280.802012 56.141717 
L 280.917861 56.141717 
L 280.917861 55.088345 
L 281.588428 55.088345 
L 281.588428 54.034973 
L 282.340906 54.034973 
L 282.340906 53.508287 
L 282.572612 53.508287 
L 282.572612 52.9816 
L 283.062254 52.9816 
L 283.164061 51.928228 
L 283.254085 51.928228 
L 283.284631 50.874856 
L 283.835025 50.874856 
L 283.835025 49.821484 
L 284.515367 49.821484 
L 284.515367 49.294798 
L 285.06288 49.294798 
L 285.153681 48.241426 
L 287.481742 48.241426 
L 287.496164 47.188054 
L 288.644953 47.188054 
L 288.644953 46.661368 
L 289.054026 46.661368 
L 289.054026 46.134681 
L 290.119954 46.134681 
L 290.119954 45.607995 
L 290.496205 45.607995 
L 290.496205 45.081309 
L 290.951594 45.081309 
L 290.951594 44.554623 
L 292.261453 44.554623 
L 292.261453 44.027937 
L 293.01847 44.027937 
L 293.01847 43.501251 
L 294.54655 43.501251 
L 294.59932 42.447879 
L 294.908528 42.447879 
L 294.908528 41.921193 
L 295.660347 41.921193 
L 295.660347 41.394507 
L 295.951454 41.394507 
L 295.951454 40.867821 
L 338.688 40.867821 
L 338.688 40.867821 
" style="fill:none;stroke:#008000;stroke-linecap:square;stroke-width:1.5;"/>
   </g>
   <g id="line2d_36">
    <defs>
     <path d="M -0 6 
L 6 -6 
L -6 -6 
z
" id="mf9fb9b3eb3" style="stroke:#008000;stroke-linejoin:miter;stroke-width:1.5;"/>
    </defs>
    <g>
     <use style="fill-opacity:0;stroke:#008000;stroke-linejoin:miter;stroke-width:1.5;" x="121.189196" xlink:href="#mf9fb9b3eb3" y="261.022602"/>
     <use style="fill-opacity:0;stroke:#008000;stroke-linejoin:miter;stroke-width:1.5;" x="184.907145" xlink:href="#mf9fb9b3eb3" y="235.74167"/>
     <use style="fill-opacity:0;stroke:#008000;stroke-linejoin:miter;stroke-width:1.5;" x="244.693817" xlink:href="#mf9fb9b3eb3" y="125.137593"/>
     <use style="fill-opacity:0;stroke:#008000;stroke-linejoin:miter;stroke-width:1.5;" x="295.951454" xlink:href="#mf9fb9b3eb3" y="41.394507"/>
     <use style="fill-opacity:0;stroke:#008000;stroke-linejoin:miter;stroke-width:1.5;" x="295.951454" xlink:href="#mf9fb9b3eb3" y="40.867821"/>
     <use style="fill-opacity:0;stroke:#008000;stroke-linejoin:miter;stroke-width:1.5;" x="338.688" xlink:href="#mf9fb9b3eb3" y="40.867821"/>
    </g>
   </g>
   <g id="line2d_37">
    <path style="fill:none;stroke:#008000;stroke-linecap:square;stroke-width:1.5;"/>
    <g/>
   </g>
   <g id="line2d_38">
    <path clip-path="url(#p72977ec350)" d="M 227.152454 160.952247 
" style="fill:none;stroke:#008000;stroke-linecap:square;stroke-width:1.5;"/>
    <defs>
     <path d="M -12 12 
L 12 -12 
M -12 -12 
L 12 12 
" id="mb5d7e75475" style="stroke:#008000;"/>
    </defs>
    <g clip-path="url(#p72977ec350)">
     <use style="fill:#008000;stroke:#008000;" x="227.152454" xlink:href="#mb5d7e75475" y="160.952247"/>
    </g>
   </g>
   <g id="line2d_39">
    <defs>
     <path d="M 0 1.5 
C 0.397805 1.5 0.77937 1.341951 1.06066 1.06066 
C 1.341951 0.77937 1.5 0.397805 1.5 0 
C 1.5 -0.397805 1.341951 -0.77937 1.06066 -1.06066 
C 0.77937 -1.341951 0.397805 -1.5 0 -1.5 
C -0.397805 -1.5 -0.77937 -1.341951 -1.06066 -1.06066 
C -1.341951 -0.77937 -1.5 -0.397805 -1.5 0 
C -1.5 0.397805 -1.341951 0.77937 -1.06066 1.06066 
C -0.77937 1.341951 -0.397805 1.5 0 1.5 
z
" id="m9f1d460c9b" style="stroke:#0000ff;"/>
    </defs>
    <g>
     <use style="fill:#0000ff;stroke:#0000ff;" x="285.731521" xlink:href="#m9f1d460c9b" y="193.606784"/>
     <use style="fill:#0000ff;stroke:#0000ff;" x="285.731521" xlink:href="#m9f1d460c9b" y="193.606784"/>
    </g>
   </g>
   <g id="line2d_40">
    <path d="M 29.53256 298.944 
L 29.53256 292.097081 
L 41.620548 292.097081 
L 41.620548 290.517023 
L 48.691568 290.517023 
L 48.691568 286.83022 
L 53.708537 286.83022 
L 53.708537 283.143418 
L 63.467834 283.143418 
L 63.467834 282.616732 
L 71.35013 282.616732 
L 71.35013 281.563359 
L 75.555822 281.563359 
L 75.555822 281.036673 
L 82.626842 281.036673 
L 82.626842 280.509987 
L 84.213325 280.509987 
L 84.213325 279.456615 
L 85.66744 279.456615 
L 85.66744 277.876557 
L 89.972502 277.876557 
L 89.972502 277.349871 
L 92.026554 277.349871 
L 92.026554 276.823185 
L 96.301313 276.823185 
L 96.301313 275.769812 
L 97.403108 275.769812 
L 97.403108 275.243126 
L 97.755429 275.243126 
L 97.755429 274.71644 
L 100.934985 274.71644 
L 100.934985 274.189754 
L 106.802819 274.189754 
L 106.802819 273.663068 
L 111.974805 273.663068 
L 111.974805 273.136382 
L 114.816733 273.136382 
L 114.816733 272.609696 
L 117.820578 272.609696 
L 117.820578 271.556324 
L 120.093994 271.556324 
L 120.093994 270.502952 
L 120.571812 270.502952 
L 120.571812 269.976266 
L 121.219499 269.976266 
L 121.219499 269.449579 
L 132.565279 269.449579 
L 132.565279 268.922893 
L 134.828688 268.922893 
L 134.828688 267.342835 
L 135.035562 267.342835 
L 135.035562 266.816149 
L 136.494612 266.816149 
L 136.494612 265.762777 
L 150.66605 265.762777 
L 150.66605 265.236091 
L 150.833094 265.236091 
L 150.833094 264.709405 
L 152.826082 264.709405 
L 152.826082 264.182719 
L 153.495227 264.182719 
L 153.495227 263.656033 
L 156.064855 263.656033 
L 156.064855 263.129347 
L 157.942862 263.129347 
L 157.942862 262.075974 
L 164.00081 262.075974 
L 164.00081 261.549288 
L 167.397779 261.549288 
L 167.397779 261.022602 
L 174.60119 261.022602 
L 174.60119 260.495916 
L 177.809795 260.495916 
L 177.809795 259.96923 
L 178.027877 259.96923 
L 178.027877 259.442544 
L 178.267417 259.442544 
L 178.377401 257.3358 
L 181.39345 257.3358 
L 181.39345 256.809114 
L 184.853658 256.809114 
L 184.853658 256.282427 
L 186.236633 256.282427 
L 186.236633 255.755741 
L 187.665404 255.755741 
L 187.665404 255.229055 
L 188.361373 255.229055 
L 188.361373 254.702369 
L 189.536576 254.702369 
L 189.569068 253.648997 
L 192.222272 253.648997 
L 192.222272 252.595625 
L 192.844544 252.595625 
L 192.844544 252.068939 
L 193.99404 252.068939 
L 193.99404 251.542253 
L 194.391081 251.542253 
L 194.391081 251.015567 
L 196.264565 251.015567 
L 196.264565 250.488881 
L 198.041801 250.488881 
L 198.041801 249.962195 
L 198.875805 249.962195 
L 198.875805 248.382136 
L 200.856255 248.382136 
L 200.880784 246.802078 
L 201.473951 246.802078 
L 201.580241 245.748706 
L 201.803421 245.748706 
L 201.803421 245.22202 
L 202.095154 245.22202 
L 202.095154 244.168648 
L 202.495035 244.168648 
L 202.495035 243.641962 
L 203.162746 243.641962 
L 203.18176 242.061903 
L 203.896475 242.061903 
L 203.896475 241.008531 
L 204.293214 241.008531 
L 204.293214 240.481845 
L 205.171522 240.481845 
L 205.239942 239.428473 
L 205.536974 239.428473 
L 205.536974 238.901787 
L 205.955636 238.901787 
L 205.955636 238.375101 
L 206.188747 238.375101 
L 206.215846 237.321729 
L 206.562986 237.321729 
L 206.562986 236.795043 
L 207.036334 236.795043 
L 207.036334 236.268356 
L 207.433837 236.268356 
L 207.433837 235.74167 
L 207.764765 235.74167 
L 207.764765 235.214984 
L 208.111965 235.214984 
L 208.111965 234.688298 
L 208.430387 234.688298 
L 208.444446 233.10824 
L 208.553474 233.10824 
L 208.553474 232.581554 
L 209.377689 232.581554 
L 209.377689 232.054868 
L 210.145315 232.054868 
L 210.181855 230.47481 
L 210.510577 230.47481 
L 210.510577 229.948123 
L 210.7408 229.948123 
L 210.7408 229.421437 
L 210.918256 229.421437 
L 210.918256 228.894751 
L 211.080797 228.894751 
L 211.080797 228.368065 
L 211.755179 228.368065 
L 211.755179 227.841379 
L 212.135081 227.841379 
L 212.135081 227.314693 
L 212.358623 227.314693 
L 212.426833 225.734635 
L 212.905493 225.734635 
L 212.905493 225.207949 
L 213.298896 225.207949 
L 213.298896 224.681263 
L 213.628333 224.681263 
L 213.628333 224.154577 
L 213.914196 224.154577 
L 213.914196 223.627891 
L 215.235012 223.627891 
L 215.235012 223.101204 
L 215.629958 223.101204 
L 215.629958 222.574518 
L 215.988825 222.574518 
L 215.988825 222.047832 
L 216.56857 222.047832 
L 216.56857 221.521146 
L 217.080576 221.521146 
L 217.080576 220.467774 
L 218.023176 220.467774 
L 218.093238 219.414402 
L 225.335002 219.414402 
L 225.335002 218.887716 
L 226.106578 218.887716 
L 226.106578 217.834344 
L 226.456346 217.834344 
L 226.456346 217.307658 
L 227.3629 217.307658 
L 227.3629 216.780971 
L 227.664854 216.780971 
L 227.664854 216.254285 
L 229.073912 216.254285 
L 229.073912 215.200913 
L 229.514398 215.200913 
L 229.514398 214.674227 
L 233.399361 214.674227 
L 233.399361 214.147541 
L 234.305628 214.147541 
L 234.305628 213.620855 
L 234.730055 213.620855 
L 234.730055 213.094169 
L 235.142414 213.094169 
L 235.142414 212.567483 
L 235.285641 212.567483 
L 235.336304 211.514111 
L 235.496356 211.514111 
L 235.496356 210.987425 
L 235.670989 210.987425 
L 235.670989 209.934052 
L 236.1809 209.934052 
L 236.1809 208.88068 
L 237.023775 208.88068 
L 237.023775 207.827308 
L 241.081501 207.827308 
L 241.13736 206.773936 
L 241.511524 206.773936 
L 241.511524 205.193878 
L 241.802293 205.193878 
L 241.882947 204.140506 
L 242.136333 204.140506 
L 242.136333 203.613819 
L 246.0849 203.613819 
L 246.0849 203.087133 
L 246.267516 203.087133 
L 246.267516 202.560447 
L 249.123092 202.560447 
L 249.123092 202.033761 
L 252.017767 202.033761 
L 252.017767 201.507075 
L 254.059665 201.507075 
L 254.059665 200.980389 
L 258.286538 200.980389 
L 258.286538 199.927017 
L 259.958974 199.927017 
L 259.958974 199.400331 
L 261.484964 199.400331 
L 261.484964 198.873645 
L 262.888104 198.873645 
L 262.888104 198.346959 
L 265.395277 198.346959 
L 265.395277 197.293586 
L 266.525491 197.293586 
L 266.525491 196.7669 
L 267.443686 196.7669 
L 267.443686 196.240214 
L 268.587388 196.240214 
L 268.587388 195.186842 
L 270.431074 195.186842 
L 270.431074 194.660156 
L 275.679313 194.660156 
L 275.679313 194.13347 
L 285.731521 194.13347 
L 285.731521 193.606784 
L 338.688 193.606784 
L 338.688 193.606784 
" style="fill:none;stroke:#0000ff;stroke-linecap:square;stroke-width:1.5;"/>
   </g>
   <g id="line2d_41">
    <defs>
     <path d="M 0 -6 
L -1.347084 -1.854102 
L -5.706339 -1.854102 
L -2.179628 0.708204 
L -3.526712 4.854102 
L -0 2.291796 
L 3.526712 4.854102 
L 2.179628 0.708204 
L 5.706339 -1.854102 
L 1.347084 -1.854102 
z
" id="m8a3e91fa87" style="stroke:#0000ff;stroke-linejoin:bevel;stroke-width:1.5;"/>
    </defs>
    <g>
     <use style="fill-opacity:0;stroke:#0000ff;stroke-linejoin:bevel;stroke-width:1.5;" x="111.974805" xlink:href="#m8a3e91fa87" y="273.136382"/>
     <use style="fill-opacity:0;stroke:#0000ff;stroke-linejoin:bevel;stroke-width:1.5;" x="187.665404" xlink:href="#m8a3e91fa87" y="255.229055"/>
     <use style="fill-opacity:0;stroke:#0000ff;stroke-linejoin:bevel;stroke-width:1.5;" x="249.123092" xlink:href="#m8a3e91fa87" y="202.033761"/>
     <use style="fill-opacity:0;stroke:#0000ff;stroke-linejoin:bevel;stroke-width:1.5;" x="285.731521" xlink:href="#m8a3e91fa87" y="193.606784"/>
     <use style="fill-opacity:0;stroke:#0000ff;stroke-linejoin:bevel;stroke-width:1.5;" x="285.731521" xlink:href="#m8a3e91fa87" y="193.606784"/>
     <use style="fill-opacity:0;stroke:#0000ff;stroke-linejoin:bevel;stroke-width:1.5;" x="338.688" xlink:href="#m8a3e91fa87" y="193.606784"/>
    </g>
   </g>
   <g id="line2d_42">
    <path style="fill:none;stroke:#0000ff;stroke-linecap:square;stroke-width:1.5;"/>
    <g/>
   </g>
   <g id="line2d_43">
    <path clip-path="url(#p72977ec350)" d="M 218.244022 219.414402 
" style="fill:none;stroke:#0000ff;stroke-linecap:square;stroke-width:1.5;"/>
    <defs>
     <path d="M -12 12 
L 12 -12 
M -12 -12 
L 12 12 
" id="mf82fc6f059" style="stroke:#0000ff;"/>
    </defs>
    <g clip-path="url(#p72977ec350)">
     <use style="fill:#0000ff;stroke:#0000ff;" x="218.244022" xlink:href="#mf82fc6f059" y="219.414402"/>
    </g>
   </g>
   <g id="line2d_44">
    <defs>
     <path d="M 0 1.5 
C 0.397805 1.5 0.77937 1.341951 1.06066 1.06066 
C 1.341951 0.77937 1.5 0.397805 1.5 0 
C 1.5 -0.397805 1.341951 -0.77937 1.06066 -1.06066 
C 0.77937 -1.341951 0.397805 -1.5 0 -1.5 
C -0.397805 -1.5 -0.77937 -1.341951 -1.06066 -1.06066 
C -1.341951 -0.77937 -1.5 -0.397805 -1.5 0 
C -1.5 0.397805 -1.341951 0.77937 -1.06066 1.06066 
C -0.77937 1.341951 -0.397805 1.5 0 1.5 
z
" id="m25253599e7" style="stroke:#000000;"/>
    </defs>
    <g>
     <use style="stroke:#000000;" x="258.166111" xlink:href="#m25253599e7" y="241.008531"/>
     <use style="stroke:#000000;" x="258.166111" xlink:href="#m25253599e7" y="241.008531"/>
    </g>
   </g>
   <g id="line2d_45">
    <path d="M 17.444571 298.944 
L 17.444571 293.677139 
L 29.53256 293.677139 
L 29.53256 291.043709 
L 36.60358 291.043709 
L 36.60358 289.990337 
L 41.620548 289.990337 
L 41.620548 288.936964 
L 45.512012 288.936964 
L 45.512012 288.410278 
L 48.691568 288.410278 
L 48.691568 287.356906 
L 53.708537 287.356906 
L 53.708537 286.83022 
L 57.6 286.83022 
L 57.6 285.250162 
L 68.79347 285.250162 
L 68.79347 283.670104 
L 74.263433 283.670104 
L 74.263433 283.143418 
L 77.330839 283.143418 
L 77.330839 282.616732 
L 77.884514 282.616732 
L 77.884514 282.090045 
L 80.416384 282.090045 
L 80.416384 281.563359 
L 87.329581 281.563359 
L 87.329581 281.036673 
L 96.489848 281.036673 
L 96.489848 280.509987 
L 104.826449 280.509987 
L 104.826449 279.983301 
L 104.942325 279.983301 
L 104.942325 279.456615 
L 107.514726 279.456615 
L 107.514726 278.929929 
L 110.527398 278.929929 
L 110.527398 278.403243 
L 123.07053 278.403243 
L 123.07053 277.876557 
L 124.594752 277.876557 
L 124.594752 277.349871 
L 129.376241 277.349871 
L 129.376241 276.823185 
L 131.056477 276.823185 
L 131.056477 276.296499 
L 137.68266 276.296499 
L 137.68266 275.769812 
L 153.573542 275.769812 
L 153.573542 275.243126 
L 155.16126 275.243126 
L 155.16126 274.71644 
L 156.272978 274.71644 
L 156.272978 274.189754 
L 164.701462 274.189754 
L 164.809955 273.136382 
L 168.078792 273.136382 
L 168.162078 272.08301 
L 172.419569 272.08301 
L 172.419569 271.556324 
L 172.727814 271.556324 
L 172.727814 271.029638 
L 177.297974 271.029638 
L 177.297974 270.502952 
L 177.639065 270.502952 
L 177.639065 269.976266 
L 182.04681 269.976266 
L 182.04681 269.449579 
L 182.829861 269.449579 
L 182.829861 268.922893 
L 183.911683 268.922893 
L 183.911683 268.396207 
L 185.041709 268.396207 
L 185.041709 267.342835 
L 188.60798 267.342835 
L 188.60798 266.816149 
L 188.911181 266.816149 
L 188.977538 265.762777 
L 189.06222 265.762777 
L 189.06222 265.236091 
L 192.704987 265.236091 
L 192.704987 264.709405 
L 195.35944 264.709405 
L 195.451066 263.129347 
L 195.5044 263.129347 
L 195.5044 262.60266 
L 196.752739 262.60266 
L 196.846854 261.022602 
L 196.97883 261.022602 
L 196.97883 260.495916 
L 197.514697 260.495916 
L 197.514697 259.96923 
L 198.573359 259.96923 
L 198.573359 259.442544 
L 198.920697 259.442544 
L 198.920697 258.915858 
L 199.058869 258.915858 
L 199.058869 258.389172 
L 199.188165 258.389172 
L 199.289677 257.3358 
L 200.178617 257.3358 
L 200.178617 256.809114 
L 200.74592 256.809114 
L 200.74592 256.282427 
L 201.115362 256.282427 
L 201.166447 255.229055 
L 201.553049 255.229055 
L 201.561211 254.175683 
L 201.812361 254.175683 
L 201.812361 253.648997 
L 202.391599 253.648997 
L 202.391599 253.122311 
L 202.567077 253.122311 
L 202.567077 252.595625 
L 202.937559 252.595625 
L 202.937559 252.068939 
L 203.136258 252.068939 
L 203.136258 251.542253 
L 203.484005 251.542253 
L 203.484005 251.015567 
L 203.7071 251.015567 
L 203.7071 250.488881 
L 204.368634 250.488881 
L 204.368634 249.962195 
L 205.334404 249.962195 
L 205.334404 249.435508 
L 205.827611 249.435508 
L 205.827611 248.908822 
L 215.756965 248.908822 
L 215.756965 248.382136 
L 216.093957 248.382136 
L 216.093957 247.85545 
L 216.207075 247.85545 
L 216.207075 247.328764 
L 216.541706 247.328764 
L 216.541706 246.802078 
L 218.080584 246.802078 
L 218.080584 246.275392 
L 224.536325 246.275392 
L 224.536325 245.748706 
L 224.689244 245.748706 
L 224.689244 245.22202 
L 225.045444 245.22202 
L 225.045444 244.695334 
L 229.13278 244.695334 
L 229.13278 242.588589 
L 241.83069 242.588589 
L 241.83069 242.061903 
L 258.166111 242.061903 
L 258.166111 241.008531 
L 338.688 241.008531 
L 338.688 241.008531 
" style="fill:none;stroke:#000000;stroke-linecap:square;stroke-width:1.5;"/>
   </g>
   <g id="line2d_46">
    <defs>
     <path d="M 0 6 
C 1.591219 6 3.117479 5.367802 4.242641 4.242641 
C 5.367802 3.117479 6 1.591219 6 0 
C 6 -1.591219 5.367802 -3.117479 4.242641 -4.242641 
C 3.117479 -5.367802 1.591219 -6 0 -6 
C -1.591219 -6 -3.117479 -5.367802 -4.242641 -4.242641 
C -5.367802 -3.117479 -6 -1.591219 -6 0 
C -6 1.591219 -5.367802 3.117479 -4.242641 4.242641 
C -3.117479 5.367802 -1.591219 6 0 6 
z
" id="ma8d1ae9ef0" style="stroke:#000000;stroke-width:1.5;"/>
    </defs>
    <g>
     <use style="fill-opacity:0;stroke:#000000;stroke-width:1.5;" x="87.329581" xlink:href="#ma8d1ae9ef0" y="281.563359"/>
     <use style="fill-opacity:0;stroke:#000000;stroke-width:1.5;" x="164.809955" xlink:href="#ma8d1ae9ef0" y="273.136382"/>
     <use style="fill-opacity:0;stroke:#000000;stroke-width:1.5;" x="229.13278" xlink:href="#ma8d1ae9ef0" y="242.588589"/>
     <use style="fill-opacity:0;stroke:#000000;stroke-width:1.5;" x="258.166111" xlink:href="#ma8d1ae9ef0" y="241.008531"/>
     <use style="fill-opacity:0;stroke:#000000;stroke-width:1.5;" x="258.166111" xlink:href="#ma8d1ae9ef0" y="241.008531"/>
     <use style="fill-opacity:0;stroke:#000000;stroke-width:1.5;" x="338.688" xlink:href="#ma8d1ae9ef0" y="241.008531"/>
    </g>
   </g>
   <g id="line2d_47">
    <path style="fill:none;stroke:#000000;stroke-linecap:square;stroke-width:1.5;"/>
    <g/>
   </g>
   <g id="line2d_48">
    <path clip-path="url(#p72977ec350)" d="M 206.156034 248.908822 
" style="fill:none;stroke:#000000;stroke-linecap:square;stroke-width:1.5;"/>
    <defs>
     <path d="M -12 12 
L 12 -12 
M -12 -12 
L 12 12 
" id="mf39335aaea" style="stroke:#000000;"/>
    </defs>
    <g clip-path="url(#p72977ec350)">
     <use style="stroke:#000000;" x="206.156034" xlink:href="#mf39335aaea" y="248.908822"/>
    </g>
   </g>
   <g id="line2d_49">
    <defs>
     <path d="M 0 1.5 
C 0.397805 1.5 0.77937 1.341951 1.06066 1.06066 
C 1.341951 0.77937 1.5 0.397805 1.5 0 
C 1.5 -0.397805 1.341951 -0.77937 1.06066 -1.06066 
C 0.77937 -1.341951 0.397805 -1.5 0 -1.5 
C -0.397805 -1.5 -0.77937 -1.341951 -1.06066 -1.06066 
C -1.341951 -0.77937 -1.5 -0.397805 -1.5 0 
C -1.5 0.397805 -1.341951 0.77937 -1.06066 1.06066 
C -0.77937 1.341951 -0.397805 1.5 0 1.5 
z
" id="m8ad21acaf4" style="stroke:#ff0000;"/>
    </defs>
    <g>
     <use style="fill:#ff0000;stroke:#ff0000;" x="230.242169" xlink:href="#m8ad21acaf4" y="262.075974"/>
     <use style="fill:#ff0000;stroke:#ff0000;" x="230.242169" xlink:href="#m8ad21acaf4" y="262.075974"/>
    </g>
   </g>
   <g id="line2d_50">
    <path d="M 5.356583 298.944 
L 5.356583 292.623767 
L 24.515591 292.623767 
L 24.515591 291.043709 
L 29.53256 291.043709 
L 29.53256 289.990337 
L 39.291857 289.990337 
L 39.291857 289.463651 
L 43.6746 289.463651 
L 43.6746 288.936964 
L 45.512012 288.936964 
L 45.512012 288.410278 
L 47.174153 288.410278 
L 47.174153 287.356906 
L 55.762588 287.356906 
L 55.762588 286.83022 
L 71.35013 286.83022 
L 71.35013 286.303534 
L 74.263433 286.303534 
L 74.263433 285.776848 
L 78.683399 285.776848 
L 78.683399 285.250162 
L 86.012784 285.250162 
L 86.012784 284.723476 
L 86.847358 284.723476 
L 86.847358 284.19679 
L 90.108217 284.19679 
L 90.108217 283.670104 
L 103.117741 283.670104 
L 103.117741 283.143418 
L 123.751369 283.143418 
L 123.751369 282.616732 
L 137.071324 282.616732 
L 137.071324 282.090045 
L 140.745506 282.090045 
L 140.745506 281.563359 
L 147.343237 281.563359 
L 147.343237 281.036673 
L 150.331361 281.036673 
L 150.331361 280.509987 
L 152.881603 280.509987 
L 152.881603 279.983301 
L 153.123819 279.983301 
L 153.123819 279.456615 
L 154.580996 279.456615 
L 154.580996 278.929929 
L 155.561959 278.929929 
L 155.561959 278.403243 
L 157.920731 278.403243 
L 157.920731 277.876557 
L 158.385078 277.876557 
L 158.385078 277.349871 
L 167.586452 277.349871 
L 167.586452 276.823185 
L 182.393814 276.823185 
L 182.393814 276.296499 
L 182.538129 276.296499 
L 182.538129 275.769812 
L 182.748053 275.769812 
L 182.748053 275.243126 
L 183.511111 275.243126 
L 183.511111 274.71644 
L 185.545795 274.71644 
L 185.545795 274.189754 
L 186.627379 274.189754 
L 186.627379 273.663068 
L 186.640716 273.663068 
L 186.640716 273.136382 
L 187.090824 273.136382 
L 187.090824 272.609696 
L 188.2046 272.609696 
L 188.2046 272.08301 
L 188.765906 272.08301 
L 188.765906 271.556324 
L 189.860579 271.556324 
L 189.860579 271.029638 
L 190.069926 271.029638 
L 190.069926 270.502952 
L 190.130279 270.502952 
L 190.130279 269.976266 
L 190.17214 269.976266 
L 190.17214 269.449579 
L 190.589574 269.449579 
L 190.589574 268.922893 
L 192.101035 268.922893 
L 192.101035 268.396207 
L 192.148931 268.396207 
L 192.148931 267.869521 
L 192.404859 267.869521 
L 192.404859 267.342835 
L 192.787281 267.342835 
L 192.787281 266.816149 
L 193.638878 266.816149 
L 193.638878 266.289463 
L 204.298058 266.289463 
L 204.298058 265.762777 
L 205.344261 265.762777 
L 205.344261 265.236091 
L 205.793857 265.236091 
L 205.793857 264.709405 
L 212.142867 264.709405 
L 212.142867 263.656033 
L 218.063874 263.656033 
L 218.063874 263.129347 
L 221.768187 263.129347 
L 221.768187 262.60266 
L 230.242169 262.60266 
L 230.242169 262.075974 
L 338.688 262.075974 
" style="fill:none;stroke:#ff0000;stroke-linecap:square;stroke-width:1.5;"/>
   </g>
   <g id="line2d_51">
    <defs>
     <path d="M -6 6 
L 6 6 
L 6 -6 
L -6 -6 
z
" id="m3684c208aa" style="stroke:#ff0000;stroke-linejoin:miter;stroke-width:1.5;"/>
    </defs>
    <g>
     <use style="fill-opacity:0;stroke:#ff0000;stroke-linejoin:miter;stroke-width:1.5;" x="103.117741" xlink:href="#m3684c208aa" y="283.670104"/>
     <use style="fill-opacity:0;stroke:#ff0000;stroke-linejoin:miter;stroke-width:1.5;" x="158.385078" xlink:href="#m3684c208aa" y="277.349871"/>
     <use style="fill-opacity:0;stroke:#ff0000;stroke-linejoin:miter;stroke-width:1.5;" x="230.242169" xlink:href="#m3684c208aa" y="262.60266"/>
     <use style="fill-opacity:0;stroke:#ff0000;stroke-linejoin:miter;stroke-width:1.5;" x="230.242169" xlink:href="#m3684c208aa" y="262.075974"/>
     <use style="fill-opacity:0;stroke:#ff0000;stroke-linejoin:miter;stroke-width:1.5;" x="230.242169" xlink:href="#m3684c208aa" y="262.075974"/>
     <use style="fill-opacity:0;stroke:#ff0000;stroke-linejoin:miter;stroke-width:1.5;" x="338.688" xlink:href="#m3684c208aa" y="262.075974"/>
    </g>
   </g>
   <g id="line2d_52">
    <path style="fill:none;stroke:#ff0000;stroke-linecap:square;stroke-width:1.5;"/>
    <g/>
   </g>
   <g id="line2d_53">
    <path clip-path="url(#p72977ec350)" d="M 194.068045 266.289463 
" style="fill:none;stroke:#ff0000;stroke-linecap:square;stroke-width:1.5;"/>
    <defs>
     <path d="M -12 12 
L 12 -12 
M -12 -12 
L 12 12 
" id="m9bcd1144a8" style="stroke:#ff0000;"/>
    </defs>
    <g clip-path="url(#p72977ec350)">
     <use style="fill:#ff0000;stroke:#ff0000;" x="194.068045" xlink:href="#m9bcd1144a8" y="266.289463"/>
    </g>
   </g>
   <g id="line2d_54">
    <defs>
     <path d="M 0 1.5 
C 0.397805 1.5 0.77937 1.341951 1.06066 1.06066 
C 1.341951 0.77937 1.5 0.397805 1.5 0 
C 1.5 -0.397805 1.341951 -0.77937 1.06066 -1.06066 
C 0.77937 -1.341951 0.397805 -1.5 0 -1.5 
C -0.397805 -1.5 -0.77937 -1.341951 -1.06066 -1.06066 
C -1.341951 -0.77937 -1.5 -0.397805 -1.5 0 
C -1.5 0.397805 -1.341951 0.77937 -1.06066 1.06066 
C -0.77937 1.341951 -0.397805 1.5 0 1.5 
z
" id="m47cf4b7cf7" style="stroke:#bf00bf;"/>
    </defs>
    <g>
     <use style="fill:#bf00bf;stroke:#bf00bf;" x="226.621822" xlink:href="#m47cf4b7cf7" y="272.609696"/>
     <use style="fill:#bf00bf;stroke:#bf00bf;" x="226.621822" xlink:href="#m47cf4b7cf7" y="272.609696"/>
    </g>
   </g>
   <g id="line2d_55">
    <path d="M -1 293.677139 
L 12.427603 293.677139 
L 12.427603 292.623767 
L 17.444571 292.623767 
L 17.444571 291.043709 
L 21.336035 291.043709 
L 21.336035 290.517023 
L 24.515591 290.517023 
L 24.515591 289.990337 
L 27.203868 289.990337 
L 27.203868 288.936964 
L 35.086164 288.936964 
L 35.086164 288.410278 
L 82.73034 288.410278 
L 82.73034 287.883592 
L 92.73846 287.883592 
L 92.73846 287.356906 
L 101.541941 287.356906 
L 101.541941 286.83022 
L 108.948899 286.83022 
L 108.948899 286.303534 
L 111.286193 286.303534 
L 111.286193 285.776848 
L 113.346933 285.776848 
L 113.346933 285.250162 
L 116.157057 285.250162 
L 116.157057 284.723476 
L 120.54823 284.723476 
L 120.54823 284.19679 
L 122.276749 284.19679 
L 122.276749 283.670104 
L 124.669438 283.670104 
L 124.669438 283.143418 
L 173.634082 283.143418 
L 173.634082 282.616732 
L 173.892984 282.616732 
L 173.892984 282.090045 
L 174.478977 282.090045 
L 174.478977 281.563359 
L 175.790331 281.563359 
L 175.790331 281.036673 
L 176.545699 281.036673 
L 176.545699 280.509987 
L 176.599845 280.509987 
L 176.599845 279.983301 
L 179.706614 279.983301 
L 179.706614 279.456615 
L 179.947415 279.456615 
L 179.947415 278.929929 
L 180.223119 278.929929 
L 180.223119 278.403243 
L 180.784557 278.403243 
L 180.784557 277.876557 
L 181.026478 277.876557 
L 181.026478 277.349871 
L 181.432314 277.349871 
L 181.432314 276.823185 
L 190.717735 276.823185 
L 190.717735 276.296499 
L 200.41369 276.296499 
L 200.41369 275.243126 
L 200.749601 275.243126 
L 200.749601 274.71644 
L 206.020703 274.71644 
L 206.020703 274.189754 
L 209.939316 274.189754 
L 209.939316 273.663068 
L 226.621822 273.663068 
L 226.621822 272.609696 
L 338.688 272.609696 
" style="fill:none;stroke:#bf00bf;stroke-linecap:square;stroke-width:1.5;"/>
   </g>
   <g id="line2d_56">
    <defs>
     <path d="M -0 8.485281 
L 8.485281 0 
L 0 -8.485281 
L -8.485281 -0 
z
" id="md1fe8ec2fa" style="stroke:#bf00bf;stroke-linejoin:miter;stroke-width:1.5;"/>
    </defs>
    <g>
     <use style="fill-opacity:0;stroke:#bf00bf;stroke-linejoin:miter;stroke-width:1.5;" x="124.669438" xlink:href="#md1fe8ec2fa" y="283.670104"/>
     <use style="fill-opacity:0;stroke:#bf00bf;stroke-linejoin:miter;stroke-width:1.5;" x="206.020703" xlink:href="#md1fe8ec2fa" y="274.189754"/>
     <use style="fill-opacity:0;stroke:#bf00bf;stroke-linejoin:miter;stroke-width:1.5;" x="226.621822" xlink:href="#md1fe8ec2fa" y="272.609696"/>
     <use style="fill-opacity:0;stroke:#bf00bf;stroke-linejoin:miter;stroke-width:1.5;" x="226.621822" xlink:href="#md1fe8ec2fa" y="272.609696"/>
     <use style="fill-opacity:0;stroke:#bf00bf;stroke-linejoin:miter;stroke-width:1.5;" x="338.688" xlink:href="#md1fe8ec2fa" y="272.609696"/>
    </g>
   </g>
   <g id="line2d_57">
    <path style="fill:none;stroke:#bf00bf;stroke-linecap:square;stroke-width:1.5;"/>
    <g/>
   </g>
   <g id="line2d_58">
    <path clip-path="url(#p72977ec350)" d="M 181.980057 276.823185 
" style="fill:none;stroke:#bf00bf;stroke-linecap:square;stroke-width:1.5;"/>
    <defs>
     <path d="M -12 12 
L 12 -12 
M -12 -12 
L 12 12 
" id="m3e2ce49349" style="stroke:#bf00bf;"/>
    </defs>
    <g clip-path="url(#p72977ec350)">
     <use style="fill:#bf00bf;stroke:#bf00bf;" x="181.980057" xlink:href="#m3e2ce49349" y="276.823185"/>
    </g>
   </g>
   <g id="line2d_59">
    <path d="M 338.688 272.609696 
L 369.60768 293.571802 
" style="fill:none;stroke:#bf00bf;stroke-linecap:square;stroke-width:1.5;"/>
    <g>
     <use style="fill-opacity:0;stroke:#bf00bf;stroke-linejoin:miter;stroke-width:1.5;" x="338.688" xlink:href="#md1fe8ec2fa" y="272.609696"/>
     <use style="fill-opacity:0;stroke:#bf00bf;stroke-linejoin:miter;stroke-width:1.5;" x="369.60768" xlink:href="#md1fe8ec2fa" y="293.571802"/>
    </g>
   </g>
   <g id="line2d_60">
    <path d="M 338.688 262.075974 
L 369.60768 241.998701 
" style="fill:none;stroke:#ff0000;stroke-linecap:square;stroke-width:1.5;"/>
    <g>
     <use style="fill-opacity:0;stroke:#ff0000;stroke-linejoin:miter;stroke-width:1.5;" x="338.688" xlink:href="#m3684c208aa" y="262.075974"/>
     <use style="fill-opacity:0;stroke:#ff0000;stroke-linejoin:miter;stroke-width:1.5;" x="369.60768" xlink:href="#m3684c208aa" y="241.998701"/>
    </g>
   </g>
   <g id="line2d_61">
    <path d="M 338.688 241.008531 
L 369.60768 190.4256 
" style="fill:none;stroke:#000000;stroke-linecap:square;stroke-width:1.5;"/>
    <g>
     <use style="fill-opacity:0;stroke:#000000;stroke-width:1.5;" x="338.688" xlink:href="#ma8d1ae9ef0" y="241.008531"/>
     <use style="fill-opacity:0;stroke:#000000;stroke-width:1.5;" x="369.60768" xlink:href="#ma8d1ae9ef0" y="190.4256"/>
    </g>
   </g>
   <g id="line2d_62">
    <path d="M 338.688 193.606784 
L 369.60768 138.852499 
" style="fill:none;stroke:#0000ff;stroke-linecap:square;stroke-width:1.5;"/>
    <g>
     <use style="fill-opacity:0;stroke:#0000ff;stroke-linejoin:bevel;stroke-width:1.5;" x="338.688" xlink:href="#m8a3e91fa87" y="193.606784"/>
     <use style="fill-opacity:0;stroke:#0000ff;stroke-linejoin:bevel;stroke-width:1.5;" x="369.60768" xlink:href="#m8a3e91fa87" y="138.852499"/>
    </g>
   </g>
   <g id="line2d_63">
    <path d="M 338.688 40.867821 
L 369.60768 87.279398 
" style="fill:none;stroke:#008000;stroke-linecap:square;stroke-width:1.5;"/>
    <g>
     <use style="fill-opacity:0;stroke:#008000;stroke-linejoin:miter;stroke-width:1.5;" x="338.688" xlink:href="#mf9fb9b3eb3" y="40.867821"/>
     <use style="fill-opacity:0;stroke:#008000;stroke-linejoin:miter;stroke-width:1.5;" x="369.60768" xlink:href="#mf9fb9b3eb3" y="87.279398"/>
    </g>
   </g>
   <g id="line2d_64">
    <path d="M 338.688 30.334099 
L 369.60768 35.706297 
" style="fill:none;stroke:#00bfbf;stroke-linecap:square;stroke-width:1.5;"/>
    <g>
     <use style="fill-opacity:0;stroke:#00bfbf;stroke-width:1.5;" x="338.688" xlink:href="#md9b29c3c1d" y="30.334099"/>
     <use style="fill-opacity:0;stroke:#00bfbf;stroke-width:1.5;" x="369.60768" xlink:href="#md9b29c3c1d" y="35.706297"/>
    </g>
   </g>
   <g id="line2d_65">
    <path d="M 338.688 298.944 
L 338.688 30.334099 
" style="fill:none;stroke:#000000;stroke-linecap:square;stroke-width:1.5;"/>
   </g>
   <g id="patch_3">
    <path d="M 57.6 298.944 
L 57.6 27.648 
" style="fill:none;stroke:#000000;stroke-linecap:square;stroke-linejoin:miter;stroke-width:0.8;"/>
   </g>
   <g id="patch_4">
    <path d="M 338.688 298.944 
L 338.688 27.648 
" style="fill:none;stroke:#000000;stroke-linecap:square;stroke-linejoin:miter;stroke-width:0.8;"/>
   </g>
   <g id="patch_5">
    <path d="M 57.6 298.944 
L 338.688 298.944 
" style="fill:none;stroke:#000000;stroke-linecap:square;stroke-linejoin:miter;stroke-width:0.8;"/>
   </g>
   <g id="patch_6">
    <path d="M 57.6 27.648 
L 338.688 27.648 
" style="fill:none;stroke:#000000;stroke-linecap:square;stroke-linejoin:miter;stroke-width:0.8;"/>
   </g>
   <g id="text_13">
    <!-- 40-D -->
    <g transform="translate(375.22944 298.262739)scale(0.17 -0.17)">
     <defs>
      <path d="M 1259 4147 
L 1259 519 
L 2022 519 
Q 2988 519 3436 956 
Q 3884 1394 3884 2338 
Q 3884 3275 3436 3711 
Q 2988 4147 2022 4147 
L 1259 4147 
z
M 628 4666 
L 1925 4666 
Q 3281 4666 3915 4102 
Q 4550 3538 4550 2338 
Q 4550 1131 3912 565 
Q 3275 0 1925 0 
L 628 0 
L 628 4666 
z
" id="DejaVuSans-44" transform="scale(0.015625)"/>
     </defs>
     <use xlink:href="#DejaVuSans-34"/>
     <use x="63.623047" xlink:href="#DejaVuSans-30"/>
     <use x="127.246094" xlink:href="#DejaVuSans-2d"/>
     <use x="163.330078" xlink:href="#DejaVuSans-44"/>
    </g>
   </g>
   <g id="text_14">
    <!-- 20-D -->
    <g transform="translate(375.22944 246.689638)scale(0.17 -0.17)">
     <use xlink:href="#DejaVuSans-32"/>
     <use x="63.623047" xlink:href="#DejaVuSans-30"/>
     <use x="127.246094" xlink:href="#DejaVuSans-2d"/>
     <use x="163.330078" xlink:href="#DejaVuSans-44"/>
    </g>
   </g>
   <g id="text_15">
    <!-- 10-D -->
    <g transform="translate(375.22944 195.116537)scale(0.17 -0.17)">
     <use xlink:href="#DejaVuSans-31"/>
     <use x="63.623047" xlink:href="#DejaVuSans-30"/>
     <use x="127.246094" xlink:href="#DejaVuSans-2d"/>
     <use x="163.330078" xlink:href="#DejaVuSans-44"/>
    </g>
   </g>
   <g id="text_16">
    <!-- 5-D -->
    <g transform="translate(375.22944 143.543437)scale(0.17 -0.17)">
     <defs>
      <path d="M 691 4666 
L 3169 4666 
L 3169 4134 
L 1269 4134 
L 1269 2991 
Q 1406 3038 1543 3061 
Q 1681 3084 1819 3084 
Q 2600 3084 3056 2656 
Q 3513 2228 3513 1497 
Q 3513 744 3044 326 
Q 2575 -91 1722 -91 
Q 1428 -91 1123 -41 
Q 819 9 494 109 
L 494 744 
Q 775 591 1075 516 
Q 1375 441 1709 441 
Q 2250 441 2565 725 
Q 2881 1009 2881 1497 
Q 2881 1984 2565 2268 
Q 2250 2553 1709 2553 
Q 1456 2553 1204 2497 
Q 953 2441 691 2322 
L 691 4666 
z
" id="DejaVuSans-35" transform="scale(0.015625)"/>
     </defs>
     <use xlink:href="#DejaVuSans-35"/>
     <use x="63.623047" xlink:href="#DejaVuSans-2d"/>
     <use x="99.707031" xlink:href="#DejaVuSans-44"/>
    </g>
   </g>
   <g id="text_17">
    <!-- 3-D -->
    <g transform="translate(375.22944 91.970336)scale(0.17 -0.17)">
     <defs>
      <path d="M 2597 2516 
Q 3050 2419 3304 2112 
Q 3559 1806 3559 1356 
Q 3559 666 3084 287 
Q 2609 -91 1734 -91 
Q 1441 -91 1130 -33 
Q 819 25 488 141 
L 488 750 
Q 750 597 1062 519 
Q 1375 441 1716 441 
Q 2309 441 2620 675 
Q 2931 909 2931 1356 
Q 2931 1769 2642 2001 
Q 2353 2234 1838 2234 
L 1294 2234 
L 1294 2753 
L 1863 2753 
Q 2328 2753 2575 2939 
Q 2822 3125 2822 3475 
Q 2822 3834 2567 4026 
Q 2313 4219 1838 4219 
Q 1578 4219 1281 4162 
Q 984 4106 628 3988 
L 628 4550 
Q 988 4650 1302 4700 
Q 1616 4750 1894 4750 
Q 2613 4750 3031 4423 
Q 3450 4097 3450 3541 
Q 3450 3153 3228 2886 
Q 3006 2619 2597 2516 
z
" id="DejaVuSans-33" transform="scale(0.015625)"/>
     </defs>
     <use xlink:href="#DejaVuSans-33"/>
     <use x="63.623047" xlink:href="#DejaVuSans-2d"/>
     <use x="99.707031" xlink:href="#DejaVuSans-44"/>
    </g>
   </g>
   <g id="text_18">
    <!-- 2-D -->
    <g transform="translate(375.22944 40.397235)scale(0.17 -0.17)">
     <use xlink:href="#DejaVuSans-32"/>
     <use x="63.623047" xlink:href="#DejaVuSans-2d"/>
     <use x="99.707031" xlink:href="#DejaVuSans-44"/>
    </g>
   </g>
   <g id="text_19">
    <!-- bbob f16 -->
    <g transform="translate(60.41088 38.111366)scale(0.102 -0.102)">
     <defs>
      <path d="M 3116 1747 
Q 3116 2381 2855 2742 
Q 2594 3103 2138 3103 
Q 1681 3103 1420 2742 
Q 1159 2381 1159 1747 
Q 1159 1113 1420 752 
Q 1681 391 2138 391 
Q 2594 391 2855 752 
Q 3116 1113 3116 1747 
z
M 1159 2969 
Q 1341 3281 1617 3432 
Q 1894 3584 2278 3584 
Q 2916 3584 3314 3078 
Q 3713 2572 3713 1747 
Q 3713 922 3314 415 
Q 2916 -91 2278 -91 
Q 1894 -91 1617 61 
Q 1341 213 1159 525 
L 1159 0 
L 581 0 
L 581 4863 
L 1159 4863 
L 1159 2969 
z
" id="DejaVuSans-62" transform="scale(0.015625)"/>
     </defs>
     <use xlink:href="#DejaVuSans-62"/>
     <use x="63.476562" xlink:href="#DejaVuSans-62"/>
     <use x="126.953125" xlink:href="#DejaVuSans-6f"/>
     <use x="188.134766" xlink:href="#DejaVuSans-62"/>
     <use x="251.611328" xlink:href="#DejaVuSans-20"/>
     <use x="283.398438" xlink:href="#DejaVuSans-66"/>
     <use x="318.603516" xlink:href="#DejaVuSans-31"/>
     <use x="382.226562" xlink:href="#DejaVuSans-36"/>
    </g>
    <!-- 51 targets: 100..1e-08 -->
    <g transform="translate(60.41088 49.533135)scale(0.102 -0.102)">
     <defs>
      <path d="M 750 794 
L 1409 794 
L 1409 0 
L 750 0 
L 750 794 
z
M 750 3309 
L 1409 3309 
L 1409 2516 
L 750 2516 
L 750 3309 
z
" id="DejaVuSans-3a" transform="scale(0.015625)"/>
     </defs>
     <use xlink:href="#DejaVuSans-35"/>
     <use x="63.623047" xlink:href="#DejaVuSans-31"/>
     <use x="127.246094" xlink:href="#DejaVuSans-20"/>
     <use x="159.033203" xlink:href="#DejaVuSans-74"/>
     <use x="198.242188" xlink:href="#DejaVuSans-61"/>
     <use x="259.521484" xlink:href="#DejaVuSans-72"/>
     <use x="298.884766" xlink:href="#DejaVuSans-67"/>
     <use x="362.361328" xlink:href="#DejaVuSans-65"/>
     <use x="423.884766" xlink:href="#DejaVuSans-74"/>
     <use x="463.09375" xlink:href="#DejaVuSans-73"/>
     <use x="515.193359" xlink:href="#DejaVuSans-3a"/>
     <use x="548.884766" xlink:href="#DejaVuSans-20"/>
     <use x="580.671875" xlink:href="#DejaVuSans-31"/>
     <use x="644.294922" xlink:href="#DejaVuSans-30"/>
     <use x="707.917969" xlink:href="#DejaVuSans-30"/>
     <use x="771.541016" xlink:href="#DejaVuSans-2e"/>
     <use x="803.328125" xlink:href="#DejaVuSans-2e"/>
     <use x="835.115234" xlink:href="#DejaVuSans-31"/>
     <use x="898.738281" xlink:href="#DejaVuSans-65"/>
     <use x="960.261719" xlink:href="#DejaVuSans-2d"/>
     <use x="996.345703" xlink:href="#DejaVuSans-30"/>
     <use x="1059.96875" xlink:href="#DejaVuSans-38"/>
    </g>
    <!-- 15 instances -->
    <g transform="translate(60.41088 60.954904)scale(0.102 -0.102)">
     <use xlink:href="#DejaVuSans-31"/>
     <use x="63.623047" xlink:href="#DejaVuSans-35"/>
     <use x="127.246094" xlink:href="#DejaVuSans-20"/>
     <use x="159.033203" xlink:href="#DejaVuSans-69"/>
     <use x="186.816406" xlink:href="#DejaVuSans-6e"/>
     <use x="250.195312" xlink:href="#DejaVuSans-73"/>
     <use x="302.294922" xlink:href="#DejaVuSans-74"/>
     <use x="341.503906" xlink:href="#DejaVuSans-61"/>
     <use x="402.783203" xlink:href="#DejaVuSans-6e"/>
     <use x="466.162109" xlink:href="#DejaVuSans-63"/>
     <use x="521.142578" xlink:href="#DejaVuSans-65"/>
     <use x="582.666016" xlink:href="#DejaVuSans-73"/>
    </g>
   </g>
   <g id="text_20">
    <!-- v2.4 -->
    <g style="fill:#808080;" transform="translate(187.233062 294.151352)scale(0.1 -0.1)">
     <use xlink:href="#DejaVuSans-76"/>
     <use x="59.179688" xlink:href="#DejaVuSans-32"/>
     <use x="122.802734" xlink:href="#DejaVuSans-2e"/>
     <use x="154.589844" xlink:href="#DejaVuSans-34"/>
    </g>
   </g>
   <g id="text_21">
    <!-- 16 Weierstrass -->
    <g transform="translate(123.958062 21.648)scale(0.2 -0.2)">
     <defs>
      <path d="M 213 4666 
L 850 4666 
L 1831 722 
L 2809 4666 
L 3519 4666 
L 4500 722 
L 5478 4666 
L 6119 4666 
L 4947 0 
L 4153 0 
L 3169 4050 
L 2175 0 
L 1381 0 
L 213 4666 
z
" id="DejaVuSans-57" transform="scale(0.015625)"/>
     </defs>
     <use xlink:href="#DejaVuSans-31"/>
     <use x="63.623047" xlink:href="#DejaVuSans-36"/>
     <use x="127.246094" xlink:href="#DejaVuSans-20"/>
     <use x="159.033203" xlink:href="#DejaVuSans-57"/>
     <use x="252.035156" xlink:href="#DejaVuSans-65"/>
     <use x="313.558594" xlink:href="#DejaVuSans-69"/>
     <use x="341.341797" xlink:href="#DejaVuSans-65"/>
     <use x="402.865234" xlink:href="#DejaVuSans-72"/>
     <use x="443.978516" xlink:href="#DejaVuSans-73"/>
     <use x="496.078125" xlink:href="#DejaVuSans-74"/>
     <use x="535.287109" xlink:href="#DejaVuSans-72"/>
     <use x="576.400391" xlink:href="#DejaVuSans-61"/>
     <use x="637.679688" xlink:href="#DejaVuSans-73"/>
     <use x="689.779297" xlink:href="#DejaVuSans-73"/>
    </g>
   </g>
  </g>
 </g>
 <defs>
  <clipPath id="p72977ec350">
   <rect height="271.296" width="281.088" x="57.6" y="27.648"/>
  </clipPath>
 </defs>
</svg>
