<?xml version="1.0" encoding="utf-8" standalone="no"?>
<!DOCTYPE svg PUBLIC "-//W3C//DTD SVG 1.1//EN"
  "http://www.w3.org/Graphics/SVG/1.1/DTD/svg11.dtd">
<svg height="345.6pt" version="1.1" viewBox="0 0 460.8 345.6" width="460.8pt" xmlns="http://www.w3.org/2000/svg" xmlns:xlink="http://www.w3.org/1999/xlink">
 <metadata>
  <rdf:RDF xmlns:cc="http://creativecommons.org/ns#" xmlns:dc="http://purl.org/dc/elements/1.1/" xmlns:rdf="http://www.w3.org/1999/02/22-rdf-syntax-ns#">
   <cc:Work>
    <dc:type rdf:resource="http://purl.org/dc/dcmitype/StillImage"/>
    <dc:date>2021-04-26T19:00:40.292158</dc:date>
    <dc:format>image/svg+xml</dc:format>
    <dc:creator>
     <cc:Agent>
      <dc:title>Matplotlib v3.4.1, https://matplotlib.org/</dc:title>
     </cc:Agent>
    </dc:creator>
   </cc:Work>
  </rdf:RDF>
 </metadata>
 <defs>
  <style type="text/css">*{stroke-linecap:butt;stroke-linejoin:round;}</style>
 </defs>
 <g id="figure_1">
  <g id="patch_1">
   <path d="M 0 345.6 
L 460.8 345.6 
L 460.8 0 
L 0 0 
z
" style="fill:#ffffff;"/>
  </g>
  <g id="axes_1">
   <g id="patch_2">
    <path d="M 57.6 298.944 
L 338.688 298.944 
L 338.688 3.456 
L 57.6 3.456 
z
" style="fill:#ffffff;"/>
   </g>
   <g id="matplotlib.axis_1">
    <g id="xtick_1">
     <g id="line2d_1">
      <path clip-path="url(#p53fe0bb37a)" d="M 57.6 298.944 
L 57.6 3.456 
" style="fill:none;stroke:#b0b0b0;stroke-linecap:square;stroke-width:0.8;"/>
     </g>
     <g id="line2d_2">
      <defs>
       <path d="M 0 0 
L 0 3.5 
" id="md97c636f8d" style="stroke:#000000;stroke-width:0.8;"/>
      </defs>
      <g>
       <use style="stroke:#000000;stroke-width:0.8;" x="57.6" xlink:href="#md97c636f8d" y="298.944"/>
      </g>
     </g>
     <g id="text_1">
      <!-- 0 -->
      <g transform="translate(51.2375 321.140875)scale(0.2 -0.2)">
       <defs>
        <path d="M 2034 4250 
Q 1547 4250 1301 3770 
Q 1056 3291 1056 2328 
Q 1056 1369 1301 889 
Q 1547 409 2034 409 
Q 2525 409 2770 889 
Q 3016 1369 3016 2328 
Q 3016 3291 2770 3770 
Q 2525 4250 2034 4250 
z
M 2034 4750 
Q 2819 4750 3233 4129 
Q 3647 3509 3647 2328 
Q 3647 1150 3233 529 
Q 2819 -91 2034 -91 
Q 1250 -91 836 529 
Q 422 1150 422 2328 
Q 422 3509 836 4129 
Q 1250 4750 2034 4750 
z
" id="DejaVuSans-30" transform="scale(0.015625)"/>
       </defs>
       <use xlink:href="#DejaVuSans-30"/>
      </g>
     </g>
    </g>
    <g id="xtick_2">
     <g id="line2d_3">
      <path clip-path="url(#p53fe0bb37a)" d="M 137.910857 298.944 
L 137.910857 3.456 
" style="fill:none;stroke:#b0b0b0;stroke-linecap:square;stroke-width:0.8;"/>
     </g>
     <g id="line2d_4">
      <g>
       <use style="stroke:#000000;stroke-width:0.8;" x="137.910857" xlink:href="#md97c636f8d" y="298.944"/>
      </g>
     </g>
     <g id="text_2">
      <!-- 2 -->
      <g transform="translate(131.548357 321.140875)scale(0.2 -0.2)">
       <defs>
        <path d="M 1228 531 
L 3431 531 
L 3431 0 
L 469 0 
L 469 531 
Q 828 903 1448 1529 
Q 2069 2156 2228 2338 
Q 2531 2678 2651 2914 
Q 2772 3150 2772 3378 
Q 2772 3750 2511 3984 
Q 2250 4219 1831 4219 
Q 1534 4219 1204 4116 
Q 875 4013 500 3803 
L 500 4441 
Q 881 4594 1212 4672 
Q 1544 4750 1819 4750 
Q 2544 4750 2975 4387 
Q 3406 4025 3406 3419 
Q 3406 3131 3298 2873 
Q 3191 2616 2906 2266 
Q 2828 2175 2409 1742 
Q 1991 1309 1228 531 
z
" id="DejaVuSans-32" transform="scale(0.015625)"/>
       </defs>
       <use xlink:href="#DejaVuSans-32"/>
      </g>
     </g>
    </g>
    <g id="xtick_3">
     <g id="line2d_5">
      <path clip-path="url(#p53fe0bb37a)" d="M 218.221714 298.944 
L 218.221714 3.456 
" style="fill:none;stroke:#b0b0b0;stroke-linecap:square;stroke-width:0.8;"/>
     </g>
     <g id="line2d_6">
      <g>
       <use style="stroke:#000000;stroke-width:0.8;" x="218.221714" xlink:href="#md97c636f8d" y="298.944"/>
      </g>
     </g>
     <g id="text_3">
      <!-- 4 -->
      <g transform="translate(211.859214 321.140875)scale(0.2 -0.2)">
       <defs>
        <path d="M 2419 4116 
L 825 1625 
L 2419 1625 
L 2419 4116 
z
M 2253 4666 
L 3047 4666 
L 3047 1625 
L 3713 1625 
L 3713 1100 
L 3047 1100 
L 3047 0 
L 2419 0 
L 2419 1100 
L 313 1100 
L 313 1709 
L 2253 4666 
z
" id="DejaVuSans-34" transform="scale(0.015625)"/>
       </defs>
       <use xlink:href="#DejaVuSans-34"/>
      </g>
     </g>
    </g>
    <g id="xtick_4">
     <g id="line2d_7">
      <path clip-path="url(#p53fe0bb37a)" d="M 298.532571 298.944 
L 298.532571 3.456 
" style="fill:none;stroke:#b0b0b0;stroke-linecap:square;stroke-width:0.8;"/>
     </g>
     <g id="line2d_8">
      <g>
       <use style="stroke:#000000;stroke-width:0.8;" x="298.532571" xlink:href="#md97c636f8d" y="298.944"/>
      </g>
     </g>
     <g id="text_4">
      <!-- 6 -->
      <g transform="translate(292.170071 321.140875)scale(0.2 -0.2)">
       <defs>
        <path d="M 2113 2584 
Q 1688 2584 1439 2293 
Q 1191 2003 1191 1497 
Q 1191 994 1439 701 
Q 1688 409 2113 409 
Q 2538 409 2786 701 
Q 3034 994 3034 1497 
Q 3034 2003 2786 2293 
Q 2538 2584 2113 2584 
z
M 3366 4563 
L 3366 3988 
Q 3128 4100 2886 4159 
Q 2644 4219 2406 4219 
Q 1781 4219 1451 3797 
Q 1122 3375 1075 2522 
Q 1259 2794 1537 2939 
Q 1816 3084 2150 3084 
Q 2853 3084 3261 2657 
Q 3669 2231 3669 1497 
Q 3669 778 3244 343 
Q 2819 -91 2113 -91 
Q 1303 -91 875 529 
Q 447 1150 447 2328 
Q 447 3434 972 4092 
Q 1497 4750 2381 4750 
Q 2619 4750 2861 4703 
Q 3103 4656 3366 4563 
z
" id="DejaVuSans-36" transform="scale(0.015625)"/>
       </defs>
       <use xlink:href="#DejaVuSans-36"/>
      </g>
     </g>
    </g>
    <g id="xtick_5">
     <g id="line2d_9">
      <path clip-path="url(#p53fe0bb37a)" d="M 97.755429 298.944 
L 97.755429 3.456 
" style="fill:none;stroke:#b0b0b0;stroke-linecap:square;stroke-width:0.8;"/>
     </g>
     <g id="line2d_10">
      <defs>
       <path d="M 0 0 
L 0 2 
" id="mdb313bfcb4" style="stroke:#000000;stroke-width:0.6;"/>
      </defs>
      <g>
       <use style="stroke:#000000;stroke-width:0.6;" x="97.755429" xlink:href="#mdb313bfcb4" y="298.944"/>
      </g>
     </g>
    </g>
    <g id="xtick_6">
     <g id="line2d_11">
      <path clip-path="url(#p53fe0bb37a)" d="M 178.066286 298.944 
L 178.066286 3.456 
" style="fill:none;stroke:#b0b0b0;stroke-linecap:square;stroke-width:0.8;"/>
     </g>
     <g id="line2d_12">
      <g>
       <use style="stroke:#000000;stroke-width:0.6;" x="178.066286" xlink:href="#mdb313bfcb4" y="298.944"/>
      </g>
     </g>
    </g>
    <g id="xtick_7">
     <g id="line2d_13">
      <path clip-path="url(#p53fe0bb37a)" d="M 258.377143 298.944 
L 258.377143 3.456 
" style="fill:none;stroke:#b0b0b0;stroke-linecap:square;stroke-width:0.8;"/>
     </g>
     <g id="line2d_14">
      <g>
       <use style="stroke:#000000;stroke-width:0.6;" x="258.377143" xlink:href="#mdb313bfcb4" y="298.944"/>
      </g>
     </g>
    </g>
    <g id="xtick_8">
     <g id="line2d_15">
      <path clip-path="url(#p53fe0bb37a)" d="M 338.688 298.944 
L 338.688 3.456 
" style="fill:none;stroke:#b0b0b0;stroke-linecap:square;stroke-width:0.8;"/>
     </g>
     <g id="line2d_16">
      <g>
       <use style="stroke:#000000;stroke-width:0.6;" x="338.688" xlink:href="#mdb313bfcb4" y="298.944"/>
      </g>
     </g>
    </g>
    <g id="text_5">
     <!-- log10(# f-evals / dimension) -->
     <g transform="translate(77.764078 342.217594)scale(0.17 -0.17)">
      <defs>
       <path d="M 603 4863 
L 1178 4863 
L 1178 0 
L 603 0 
L 603 4863 
z
" id="DejaVuSans-6c" transform="scale(0.015625)"/>
       <path d="M 1959 3097 
Q 1497 3097 1228 2736 
Q 959 2375 959 1747 
Q 959 1119 1226 758 
Q 1494 397 1959 397 
Q 2419 397 2687 759 
Q 2956 1122 2956 1747 
Q 2956 2369 2687 2733 
Q 2419 3097 1959 3097 
z
M 1959 3584 
Q 2709 3584 3137 3096 
Q 3566 2609 3566 1747 
Q 3566 888 3137 398 
Q 2709 -91 1959 -91 
Q 1206 -91 779 398 
Q 353 888 353 1747 
Q 353 2609 779 3096 
Q 1206 3584 1959 3584 
z
" id="DejaVuSans-6f" transform="scale(0.015625)"/>
       <path d="M 2906 1791 
Q 2906 2416 2648 2759 
Q 2391 3103 1925 3103 
Q 1463 3103 1205 2759 
Q 947 2416 947 1791 
Q 947 1169 1205 825 
Q 1463 481 1925 481 
Q 2391 481 2648 825 
Q 2906 1169 2906 1791 
z
M 3481 434 
Q 3481 -459 3084 -895 
Q 2688 -1331 1869 -1331 
Q 1566 -1331 1297 -1286 
Q 1028 -1241 775 -1147 
L 775 -588 
Q 1028 -725 1275 -790 
Q 1522 -856 1778 -856 
Q 2344 -856 2625 -561 
Q 2906 -266 2906 331 
L 2906 616 
Q 2728 306 2450 153 
Q 2172 0 1784 0 
Q 1141 0 747 490 
Q 353 981 353 1791 
Q 353 2603 747 3093 
Q 1141 3584 1784 3584 
Q 2172 3584 2450 3431 
Q 2728 3278 2906 2969 
L 2906 3500 
L 3481 3500 
L 3481 434 
z
" id="DejaVuSans-67" transform="scale(0.015625)"/>
       <path d="M 794 531 
L 1825 531 
L 1825 4091 
L 703 3866 
L 703 4441 
L 1819 4666 
L 2450 4666 
L 2450 531 
L 3481 531 
L 3481 0 
L 794 0 
L 794 531 
z
" id="DejaVuSans-31" transform="scale(0.015625)"/>
       <path d="M 1984 4856 
Q 1566 4138 1362 3434 
Q 1159 2731 1159 2009 
Q 1159 1288 1364 580 
Q 1569 -128 1984 -844 
L 1484 -844 
Q 1016 -109 783 600 
Q 550 1309 550 2009 
Q 550 2706 781 3412 
Q 1013 4119 1484 4856 
L 1984 4856 
z
" id="DejaVuSans-28" transform="scale(0.015625)"/>
       <path d="M 3272 2816 
L 2363 2816 
L 2100 1772 
L 3016 1772 
L 3272 2816 
z
M 2803 4594 
L 2478 3297 
L 3391 3297 
L 3719 4594 
L 4219 4594 
L 3897 3297 
L 4872 3297 
L 4872 2816 
L 3775 2816 
L 3519 1772 
L 4513 1772 
L 4513 1294 
L 3397 1294 
L 3072 0 
L 2572 0 
L 2894 1294 
L 1978 1294 
L 1656 0 
L 1153 0 
L 1478 1294 
L 494 1294 
L 494 1772 
L 1594 1772 
L 1856 2816 
L 850 2816 
L 850 3297 
L 1978 3297 
L 2297 4594 
L 2803 4594 
z
" id="DejaVuSans-23" transform="scale(0.015625)"/>
       <path id="DejaVuSans-20" transform="scale(0.015625)"/>
       <path d="M 2375 4863 
L 2375 4384 
L 1825 4384 
Q 1516 4384 1395 4259 
Q 1275 4134 1275 3809 
L 1275 3500 
L 2222 3500 
L 2222 3053 
L 1275 3053 
L 1275 0 
L 697 0 
L 697 3053 
L 147 3053 
L 147 3500 
L 697 3500 
L 697 3744 
Q 697 4328 969 4595 
Q 1241 4863 1831 4863 
L 2375 4863 
z
" id="DejaVuSans-66" transform="scale(0.015625)"/>
       <path d="M 313 2009 
L 1997 2009 
L 1997 1497 
L 313 1497 
L 313 2009 
z
" id="DejaVuSans-2d" transform="scale(0.015625)"/>
       <path d="M 3597 1894 
L 3597 1613 
L 953 1613 
Q 991 1019 1311 708 
Q 1631 397 2203 397 
Q 2534 397 2845 478 
Q 3156 559 3463 722 
L 3463 178 
Q 3153 47 2828 -22 
Q 2503 -91 2169 -91 
Q 1331 -91 842 396 
Q 353 884 353 1716 
Q 353 2575 817 3079 
Q 1281 3584 2069 3584 
Q 2775 3584 3186 3129 
Q 3597 2675 3597 1894 
z
M 3022 2063 
Q 3016 2534 2758 2815 
Q 2500 3097 2075 3097 
Q 1594 3097 1305 2825 
Q 1016 2553 972 2059 
L 3022 2063 
z
" id="DejaVuSans-65" transform="scale(0.015625)"/>
       <path d="M 191 3500 
L 800 3500 
L 1894 563 
L 2988 3500 
L 3597 3500 
L 2284 0 
L 1503 0 
L 191 3500 
z
" id="DejaVuSans-76" transform="scale(0.015625)"/>
       <path d="M 2194 1759 
Q 1497 1759 1228 1600 
Q 959 1441 959 1056 
Q 959 750 1161 570 
Q 1363 391 1709 391 
Q 2188 391 2477 730 
Q 2766 1069 2766 1631 
L 2766 1759 
L 2194 1759 
z
M 3341 1997 
L 3341 0 
L 2766 0 
L 2766 531 
Q 2569 213 2275 61 
Q 1981 -91 1556 -91 
Q 1019 -91 701 211 
Q 384 513 384 1019 
Q 384 1609 779 1909 
Q 1175 2209 1959 2209 
L 2766 2209 
L 2766 2266 
Q 2766 2663 2505 2880 
Q 2244 3097 1772 3097 
Q 1472 3097 1187 3025 
Q 903 2953 641 2809 
L 641 3341 
Q 956 3463 1253 3523 
Q 1550 3584 1831 3584 
Q 2591 3584 2966 3190 
Q 3341 2797 3341 1997 
z
" id="DejaVuSans-61" transform="scale(0.015625)"/>
       <path d="M 2834 3397 
L 2834 2853 
Q 2591 2978 2328 3040 
Q 2066 3103 1784 3103 
Q 1356 3103 1142 2972 
Q 928 2841 928 2578 
Q 928 2378 1081 2264 
Q 1234 2150 1697 2047 
L 1894 2003 
Q 2506 1872 2764 1633 
Q 3022 1394 3022 966 
Q 3022 478 2636 193 
Q 2250 -91 1575 -91 
Q 1294 -91 989 -36 
Q 684 19 347 128 
L 347 722 
Q 666 556 975 473 
Q 1284 391 1588 391 
Q 1994 391 2212 530 
Q 2431 669 2431 922 
Q 2431 1156 2273 1281 
Q 2116 1406 1581 1522 
L 1381 1569 
Q 847 1681 609 1914 
Q 372 2147 372 2553 
Q 372 3047 722 3315 
Q 1072 3584 1716 3584 
Q 2034 3584 2315 3537 
Q 2597 3491 2834 3397 
z
" id="DejaVuSans-73" transform="scale(0.015625)"/>
       <path d="M 1625 4666 
L 2156 4666 
L 531 -594 
L 0 -594 
L 1625 4666 
z
" id="DejaVuSans-2f" transform="scale(0.015625)"/>
       <path d="M 2906 2969 
L 2906 4863 
L 3481 4863 
L 3481 0 
L 2906 0 
L 2906 525 
Q 2725 213 2448 61 
Q 2172 -91 1784 -91 
Q 1150 -91 751 415 
Q 353 922 353 1747 
Q 353 2572 751 3078 
Q 1150 3584 1784 3584 
Q 2172 3584 2448 3432 
Q 2725 3281 2906 2969 
z
M 947 1747 
Q 947 1113 1208 752 
Q 1469 391 1925 391 
Q 2381 391 2643 752 
Q 2906 1113 2906 1747 
Q 2906 2381 2643 2742 
Q 2381 3103 1925 3103 
Q 1469 3103 1208 2742 
Q 947 2381 947 1747 
z
" id="DejaVuSans-64" transform="scale(0.015625)"/>
       <path d="M 603 3500 
L 1178 3500 
L 1178 0 
L 603 0 
L 603 3500 
z
M 603 4863 
L 1178 4863 
L 1178 4134 
L 603 4134 
L 603 4863 
z
" id="DejaVuSans-69" transform="scale(0.015625)"/>
       <path d="M 3328 2828 
Q 3544 3216 3844 3400 
Q 4144 3584 4550 3584 
Q 5097 3584 5394 3201 
Q 5691 2819 5691 2113 
L 5691 0 
L 5113 0 
L 5113 2094 
Q 5113 2597 4934 2840 
Q 4756 3084 4391 3084 
Q 3944 3084 3684 2787 
Q 3425 2491 3425 1978 
L 3425 0 
L 2847 0 
L 2847 2094 
Q 2847 2600 2669 2842 
Q 2491 3084 2119 3084 
Q 1678 3084 1418 2786 
Q 1159 2488 1159 1978 
L 1159 0 
L 581 0 
L 581 3500 
L 1159 3500 
L 1159 2956 
Q 1356 3278 1631 3431 
Q 1906 3584 2284 3584 
Q 2666 3584 2933 3390 
Q 3200 3197 3328 2828 
z
" id="DejaVuSans-6d" transform="scale(0.015625)"/>
       <path d="M 3513 2113 
L 3513 0 
L 2938 0 
L 2938 2094 
Q 2938 2591 2744 2837 
Q 2550 3084 2163 3084 
Q 1697 3084 1428 2787 
Q 1159 2491 1159 1978 
L 1159 0 
L 581 0 
L 581 3500 
L 1159 3500 
L 1159 2956 
Q 1366 3272 1645 3428 
Q 1925 3584 2291 3584 
Q 2894 3584 3203 3211 
Q 3513 2838 3513 2113 
z
" id="DejaVuSans-6e" transform="scale(0.015625)"/>
       <path d="M 513 4856 
L 1013 4856 
Q 1481 4119 1714 3412 
Q 1947 2706 1947 2009 
Q 1947 1309 1714 600 
Q 1481 -109 1013 -844 
L 513 -844 
Q 928 -128 1133 580 
Q 1338 1288 1338 2009 
Q 1338 2731 1133 3434 
Q 928 4138 513 4856 
z
" id="DejaVuSans-29" transform="scale(0.015625)"/>
      </defs>
      <use xlink:href="#DejaVuSans-6c"/>
      <use x="27.783203" xlink:href="#DejaVuSans-6f"/>
      <use x="88.964844" xlink:href="#DejaVuSans-67"/>
      <use x="152.441406" xlink:href="#DejaVuSans-31"/>
      <use x="216.064453" xlink:href="#DejaVuSans-30"/>
      <use x="279.6875" xlink:href="#DejaVuSans-28"/>
      <use x="318.701172" xlink:href="#DejaVuSans-23"/>
      <use x="402.490234" xlink:href="#DejaVuSans-20"/>
      <use x="434.277344" xlink:href="#DejaVuSans-66"/>
      <use x="463.982422" xlink:href="#DejaVuSans-2d"/>
      <use x="500.066406" xlink:href="#DejaVuSans-65"/>
      <use x="561.589844" xlink:href="#DejaVuSans-76"/>
      <use x="620.769531" xlink:href="#DejaVuSans-61"/>
      <use x="682.048828" xlink:href="#DejaVuSans-6c"/>
      <use x="709.832031" xlink:href="#DejaVuSans-73"/>
      <use x="761.931641" xlink:href="#DejaVuSans-20"/>
      <use x="793.71875" xlink:href="#DejaVuSans-2f"/>
      <use x="827.410156" xlink:href="#DejaVuSans-20"/>
      <use x="859.197266" xlink:href="#DejaVuSans-64"/>
      <use x="922.673828" xlink:href="#DejaVuSans-69"/>
      <use x="950.457031" xlink:href="#DejaVuSans-6d"/>
      <use x="1047.869141" xlink:href="#DejaVuSans-65"/>
      <use x="1109.392578" xlink:href="#DejaVuSans-6e"/>
      <use x="1172.771484" xlink:href="#DejaVuSans-73"/>
      <use x="1224.871094" xlink:href="#DejaVuSans-69"/>
      <use x="1252.654297" xlink:href="#DejaVuSans-6f"/>
      <use x="1313.835938" xlink:href="#DejaVuSans-6e"/>
      <use x="1377.214844" xlink:href="#DejaVuSans-29"/>
     </g>
    </g>
   </g>
   <g id="matplotlib.axis_2">
    <g id="ytick_1">
     <g id="line2d_17">
      <path clip-path="url(#p53fe0bb37a)" d="M 57.6 298.944 
L 338.688 298.944 
" style="fill:none;stroke:#b0b0b0;stroke-linecap:square;stroke-width:0.8;"/>
     </g>
     <g id="line2d_18">
      <defs>
       <path d="M 0 0 
L -3.5 0 
" id="mc21a4d410f" style="stroke:#000000;stroke-width:0.8;"/>
      </defs>
      <g>
       <use style="stroke:#000000;stroke-width:0.8;" x="57.6" xlink:href="#mc21a4d410f" y="298.944"/>
      </g>
     </g>
     <g id="text_6">
      <!-- 0.0 -->
      <g transform="translate(25.155 305.02275)scale(0.16 -0.16)">
       <defs>
        <path d="M 684 794 
L 1344 794 
L 1344 0 
L 684 0 
L 684 794 
z
" id="DejaVuSans-2e" transform="scale(0.015625)"/>
       </defs>
       <use xlink:href="#DejaVuSans-30"/>
       <use x="63.623047" xlink:href="#DejaVuSans-2e"/>
       <use x="95.410156" xlink:href="#DejaVuSans-30"/>
      </g>
     </g>
    </g>
    <g id="ytick_2">
     <g id="line2d_19">
      <path clip-path="url(#p53fe0bb37a)" d="M 57.6 240.431525 
L 338.688 240.431525 
" style="fill:none;stroke:#b0b0b0;stroke-linecap:square;stroke-width:0.8;"/>
     </g>
     <g id="line2d_20">
      <g>
       <use style="stroke:#000000;stroke-width:0.8;" x="57.6" xlink:href="#mc21a4d410f" y="240.431525"/>
      </g>
     </g>
     <g id="text_7">
      <!-- 0.2 -->
      <g transform="translate(25.155 246.510275)scale(0.16 -0.16)">
       <use xlink:href="#DejaVuSans-30"/>
       <use x="63.623047" xlink:href="#DejaVuSans-2e"/>
       <use x="95.410156" xlink:href="#DejaVuSans-32"/>
      </g>
     </g>
    </g>
    <g id="ytick_3">
     <g id="line2d_21">
      <path clip-path="url(#p53fe0bb37a)" d="M 57.6 181.91905 
L 338.688 181.91905 
" style="fill:none;stroke:#b0b0b0;stroke-linecap:square;stroke-width:0.8;"/>
     </g>
     <g id="line2d_22">
      <g>
       <use style="stroke:#000000;stroke-width:0.8;" x="57.6" xlink:href="#mc21a4d410f" y="181.91905"/>
      </g>
     </g>
     <g id="text_8">
      <!-- 0.4 -->
      <g transform="translate(25.155 187.9978)scale(0.16 -0.16)">
       <use xlink:href="#DejaVuSans-30"/>
       <use x="63.623047" xlink:href="#DejaVuSans-2e"/>
       <use x="95.410156" xlink:href="#DejaVuSans-34"/>
      </g>
     </g>
    </g>
    <g id="ytick_4">
     <g id="line2d_23">
      <path clip-path="url(#p53fe0bb37a)" d="M 57.6 123.406574 
L 338.688 123.406574 
" style="fill:none;stroke:#b0b0b0;stroke-linecap:square;stroke-width:0.8;"/>
     </g>
     <g id="line2d_24">
      <g>
       <use style="stroke:#000000;stroke-width:0.8;" x="57.6" xlink:href="#mc21a4d410f" y="123.406574"/>
      </g>
     </g>
     <g id="text_9">
      <!-- 0.6 -->
      <g transform="translate(25.155 129.485324)scale(0.16 -0.16)">
       <use xlink:href="#DejaVuSans-30"/>
       <use x="63.623047" xlink:href="#DejaVuSans-2e"/>
       <use x="95.410156" xlink:href="#DejaVuSans-36"/>
      </g>
     </g>
    </g>
    <g id="ytick_5">
     <g id="line2d_25">
      <path clip-path="url(#p53fe0bb37a)" d="M 57.6 64.894099 
L 338.688 64.894099 
" style="fill:none;stroke:#b0b0b0;stroke-linecap:square;stroke-width:0.8;"/>
     </g>
     <g id="line2d_26">
      <g>
       <use style="stroke:#000000;stroke-width:0.8;" x="57.6" xlink:href="#mc21a4d410f" y="64.894099"/>
      </g>
     </g>
     <g id="text_10">
      <!-- 0.8 -->
      <g transform="translate(25.155 70.972849)scale(0.16 -0.16)">
       <defs>
        <path d="M 2034 2216 
Q 1584 2216 1326 1975 
Q 1069 1734 1069 1313 
Q 1069 891 1326 650 
Q 1584 409 2034 409 
Q 2484 409 2743 651 
Q 3003 894 3003 1313 
Q 3003 1734 2745 1975 
Q 2488 2216 2034 2216 
z
M 1403 2484 
Q 997 2584 770 2862 
Q 544 3141 544 3541 
Q 544 4100 942 4425 
Q 1341 4750 2034 4750 
Q 2731 4750 3128 4425 
Q 3525 4100 3525 3541 
Q 3525 3141 3298 2862 
Q 3072 2584 2669 2484 
Q 3125 2378 3379 2068 
Q 3634 1759 3634 1313 
Q 3634 634 3220 271 
Q 2806 -91 2034 -91 
Q 1263 -91 848 271 
Q 434 634 434 1313 
Q 434 1759 690 2068 
Q 947 2378 1403 2484 
z
M 1172 3481 
Q 1172 3119 1398 2916 
Q 1625 2713 2034 2713 
Q 2441 2713 2670 2916 
Q 2900 3119 2900 3481 
Q 2900 3844 2670 4047 
Q 2441 4250 2034 4250 
Q 1625 4250 1398 4047 
Q 1172 3844 1172 3481 
z
" id="DejaVuSans-38" transform="scale(0.015625)"/>
       </defs>
       <use xlink:href="#DejaVuSans-30"/>
       <use x="63.623047" xlink:href="#DejaVuSans-2e"/>
       <use x="95.410156" xlink:href="#DejaVuSans-38"/>
      </g>
     </g>
    </g>
    <g id="ytick_6">
     <g id="line2d_27">
      <path clip-path="url(#p53fe0bb37a)" d="M 57.6 6.381624 
L 338.688 6.381624 
" style="fill:none;stroke:#b0b0b0;stroke-linecap:square;stroke-width:0.8;"/>
     </g>
     <g id="line2d_28">
      <g>
       <use style="stroke:#000000;stroke-width:0.8;" x="57.6" xlink:href="#mc21a4d410f" y="6.381624"/>
      </g>
     </g>
     <g id="text_11">
      <!-- 1.0 -->
      <g transform="translate(25.155 12.460374)scale(0.16 -0.16)">
       <use xlink:href="#DejaVuSans-31"/>
       <use x="63.623047" xlink:href="#DejaVuSans-2e"/>
       <use x="95.410156" xlink:href="#DejaVuSans-30"/>
      </g>
     </g>
    </g>
    <g id="text_12">
     <!-- Fraction of function,target pairs -->
     <g transform="translate(17.619531 285.585)rotate(-90)scale(0.17 -0.17)">
      <defs>
       <path d="M 628 4666 
L 3309 4666 
L 3309 4134 
L 1259 4134 
L 1259 2759 
L 3109 2759 
L 3109 2228 
L 1259 2228 
L 1259 0 
L 628 0 
L 628 4666 
z
" id="DejaVuSans-46" transform="scale(0.015625)"/>
       <path d="M 2631 2963 
Q 2534 3019 2420 3045 
Q 2306 3072 2169 3072 
Q 1681 3072 1420 2755 
Q 1159 2438 1159 1844 
L 1159 0 
L 581 0 
L 581 3500 
L 1159 3500 
L 1159 2956 
Q 1341 3275 1631 3429 
Q 1922 3584 2338 3584 
Q 2397 3584 2469 3576 
Q 2541 3569 2628 3553 
L 2631 2963 
z
" id="DejaVuSans-72" transform="scale(0.015625)"/>
       <path d="M 3122 3366 
L 3122 2828 
Q 2878 2963 2633 3030 
Q 2388 3097 2138 3097 
Q 1578 3097 1268 2742 
Q 959 2388 959 1747 
Q 959 1106 1268 751 
Q 1578 397 2138 397 
Q 2388 397 2633 464 
Q 2878 531 3122 666 
L 3122 134 
Q 2881 22 2623 -34 
Q 2366 -91 2075 -91 
Q 1284 -91 818 406 
Q 353 903 353 1747 
Q 353 2603 823 3093 
Q 1294 3584 2113 3584 
Q 2378 3584 2631 3529 
Q 2884 3475 3122 3366 
z
" id="DejaVuSans-63" transform="scale(0.015625)"/>
       <path d="M 1172 4494 
L 1172 3500 
L 2356 3500 
L 2356 3053 
L 1172 3053 
L 1172 1153 
Q 1172 725 1289 603 
Q 1406 481 1766 481 
L 2356 481 
L 2356 0 
L 1766 0 
Q 1100 0 847 248 
Q 594 497 594 1153 
L 594 3053 
L 172 3053 
L 172 3500 
L 594 3500 
L 594 4494 
L 1172 4494 
z
" id="DejaVuSans-74" transform="scale(0.015625)"/>
       <path d="M 544 1381 
L 544 3500 
L 1119 3500 
L 1119 1403 
Q 1119 906 1312 657 
Q 1506 409 1894 409 
Q 2359 409 2629 706 
Q 2900 1003 2900 1516 
L 2900 3500 
L 3475 3500 
L 3475 0 
L 2900 0 
L 2900 538 
Q 2691 219 2414 64 
Q 2138 -91 1772 -91 
Q 1169 -91 856 284 
Q 544 659 544 1381 
z
M 1991 3584 
L 1991 3584 
z
" id="DejaVuSans-75" transform="scale(0.015625)"/>
       <path d="M 750 794 
L 1409 794 
L 1409 256 
L 897 -744 
L 494 -744 
L 750 256 
L 750 794 
z
" id="DejaVuSans-2c" transform="scale(0.015625)"/>
       <path d="M 1159 525 
L 1159 -1331 
L 581 -1331 
L 581 3500 
L 1159 3500 
L 1159 2969 
Q 1341 3281 1617 3432 
Q 1894 3584 2278 3584 
Q 2916 3584 3314 3078 
Q 3713 2572 3713 1747 
Q 3713 922 3314 415 
Q 2916 -91 2278 -91 
Q 1894 -91 1617 61 
Q 1341 213 1159 525 
z
M 3116 1747 
Q 3116 2381 2855 2742 
Q 2594 3103 2138 3103 
Q 1681 3103 1420 2742 
Q 1159 2381 1159 1747 
Q 1159 1113 1420 752 
Q 1681 391 2138 391 
Q 2594 391 2855 752 
Q 3116 1113 3116 1747 
z
" id="DejaVuSans-70" transform="scale(0.015625)"/>
      </defs>
      <use xlink:href="#DejaVuSans-46"/>
      <use x="50.269531" xlink:href="#DejaVuSans-72"/>
      <use x="91.382812" xlink:href="#DejaVuSans-61"/>
      <use x="152.662109" xlink:href="#DejaVuSans-63"/>
      <use x="207.642578" xlink:href="#DejaVuSans-74"/>
      <use x="246.851562" xlink:href="#DejaVuSans-69"/>
      <use x="274.634766" xlink:href="#DejaVuSans-6f"/>
      <use x="335.816406" xlink:href="#DejaVuSans-6e"/>
      <use x="399.195312" xlink:href="#DejaVuSans-20"/>
      <use x="430.982422" xlink:href="#DejaVuSans-6f"/>
      <use x="492.164062" xlink:href="#DejaVuSans-66"/>
      <use x="527.369141" xlink:href="#DejaVuSans-20"/>
      <use x="559.15625" xlink:href="#DejaVuSans-66"/>
      <use x="594.361328" xlink:href="#DejaVuSans-75"/>
      <use x="657.740234" xlink:href="#DejaVuSans-6e"/>
      <use x="721.119141" xlink:href="#DejaVuSans-63"/>
      <use x="776.099609" xlink:href="#DejaVuSans-74"/>
      <use x="815.308594" xlink:href="#DejaVuSans-69"/>
      <use x="843.091797" xlink:href="#DejaVuSans-6f"/>
      <use x="904.273438" xlink:href="#DejaVuSans-6e"/>
      <use x="967.652344" xlink:href="#DejaVuSans-2c"/>
      <use x="999.439453" xlink:href="#DejaVuSans-74"/>
      <use x="1038.648438" xlink:href="#DejaVuSans-61"/>
      <use x="1099.927734" xlink:href="#DejaVuSans-72"/>
      <use x="1139.291016" xlink:href="#DejaVuSans-67"/>
      <use x="1202.767578" xlink:href="#DejaVuSans-65"/>
      <use x="1264.291016" xlink:href="#DejaVuSans-74"/>
      <use x="1303.5" xlink:href="#DejaVuSans-20"/>
      <use x="1335.287109" xlink:href="#DejaVuSans-70"/>
      <use x="1398.763672" xlink:href="#DejaVuSans-61"/>
      <use x="1460.042969" xlink:href="#DejaVuSans-69"/>
      <use x="1487.826172" xlink:href="#DejaVuSans-72"/>
      <use x="1528.939453" xlink:href="#DejaVuSans-73"/>
     </g>
    </g>
   </g>
   <g id="line2d_29">
    <defs>
     <path d="M 0 1.5 
C 0.397805 1.5 0.77937 1.341951 1.06066 1.06066 
C 1.341951 0.77937 1.5 0.397805 1.5 0 
C 1.5 -0.397805 1.341951 -0.77937 1.06066 -1.06066 
C 0.77937 -1.341951 0.397805 -1.5 0 -1.5 
C -0.397805 -1.5 -0.77937 -1.341951 -1.06066 -1.06066 
C -1.341951 -0.77937 -1.5 -0.397805 -1.5 0 
C -1.5 0.397805 -1.341951 0.77937 -1.06066 1.06066 
C -0.77937 1.341951 -0.397805 1.5 0 1.5 
z
" id="m978c7565b2" style="stroke:#000080;"/>
    </defs>
    <g>
     <use style="fill:#000080;stroke:#000080;" x="218.412499" xlink:href="#m978c7565b2" y="6.381624"/>
     <use style="fill:#000080;stroke:#000080;" x="218.412499" xlink:href="#m978c7565b2" y="6.381624"/>
    </g>
   </g>
   <g id="line2d_30">
    <path d="M 38.440992 298.944 
L 38.440992 286.323662 
L 50.52898 286.323662 
L 50.52898 274.276976 
L 57.6 274.276976 
L 57.6 269.687762 
L 62.616969 269.687762 
L 62.616969 269.114111 
L 66.508432 269.114111 
L 66.508432 264.524897 
L 69.687988 264.524897 
L 69.687988 263.377593 
L 74.704957 263.377593 
L 74.704957 262.803942 
L 76.759008 262.803942 
L 76.759008 260.509335 
L 78.59642 260.509335 
L 78.59642 258.78838 
L 80.258561 258.78838 
L 80.258561 257.641076 
L 83.171864 257.641076 
L 83.171864 257.067425 
L 84.464254 257.067425 
L 84.464254 256.493773 
L 90.684409 256.493773 
L 90.684409 255.346469 
L 91.535274 255.346469 
L 91.535274 253.051863 
L 97.16421 253.051863 
L 97.16421 252.478211 
L 97.755429 252.478211 
L 97.755429 251.330907 
L 99.938184 251.330907 
L 99.938184 250.757256 
L 100.443706 250.757256 
L 100.443706 250.183604 
L 101.877879 250.183604 
L 101.877879 249.609952 
L 103.203018 249.609952 
L 103.203018 248.462649 
L 103.623262 248.462649 
L 103.623262 247.888997 
L 105.951954 247.888997 
L 105.951954 245.59439 
L 106.311539 245.59439 
L 106.311539 245.020738 
L 109.550313 245.020738 
L 109.550313 242.726132 
L 109.843417 242.726132 
L 109.843417 242.15248 
L 111.239304 242.15248 
L 111.239304 241.005176 
L 113.73488 241.005176 
L 113.73488 238.136918 
L 120.254726 238.136918 
L 120.254726 236.989614 
L 121.036887 236.989614 
L 121.036887 235.268659 
L 122.643312 235.268659 
L 122.643312 234.695008 
L 122.782271 234.695008 
L 122.782271 234.121356 
L 124.619683 234.121356 
L 124.619683 233.547704 
L 125.110962 233.547704 
L 125.110962 232.974052 
L 129.385722 232.974052 
L 129.385722 232.400401 
L 131.185181 232.400401 
L 131.185181 231.826749 
L 131.60746 231.826749 
L 131.60746 231.253097 
L 138.313099 231.253097 
L 138.313099 230.105794 
L 144.148442 230.105794 
L 144.148442 229.532142 
L 147.096109 229.532142 
L 147.096109 228.95849 
L 147.835457 228.95849 
L 147.835457 226.090232 
L 148.322166 226.090232 
L 148.322166 224.369277 
L 149.794191 224.369277 
L 149.794191 223.221973 
L 151.233007 223.221973 
L 151.233007 221.501018 
L 155.318362 221.501018 
L 155.318362 220.353715 
L 158.122556 220.353715 
L 158.122556 219.206411 
L 158.376091 219.206411 
L 158.376091 218.632759 
L 159.591258 218.632759 
L 159.591258 218.059108 
L 160.103486 218.059108 
L 160.103486 214.617197 
L 160.758635 214.617197 
L 160.758635 213.469894 
L 163.762182 213.469894 
L 163.762182 212.896242 
L 164.037234 212.896242 
L 164.037234 212.322591 
L 166.939538 212.322591 
L 166.939538 211.748939 
L 169.522184 211.748939 
L 169.522184 210.601635 
L 169.75779 210.601635 
L 169.75779 209.454332 
L 170.625141 209.454332 
L 170.625141 207.733377 
L 170.88154 207.733377 
L 170.88154 207.159725 
L 171.237722 207.159725 
L 171.340609 204.865118 
L 171.754542 204.865118 
L 171.754542 204.291467 
L 172.13439 204.291467 
L 172.13439 201.99686 
L 172.417962 201.99686 
L 172.417962 201.423208 
L 172.593876 201.423208 
L 172.593876 200.849556 
L 172.854463 200.849556 
L 172.854463 199.702253 
L 173.165193 199.702253 
L 173.165193 199.128601 
L 173.51582 199.128601 
L 173.51582 197.407646 
L 176.319066 197.407646 
L 176.319066 196.833994 
L 176.498063 196.833994 
L 176.498063 196.260342 
L 177.036626 196.260342 
L 177.036626 195.686691 
L 177.499105 195.686691 
L 177.499105 193.965736 
L 177.779092 193.965736 
L 177.779092 192.818432 
L 178.440102 192.818432 
L 178.440102 192.24478 
L 178.78935 192.24478 
L 178.78935 191.097477 
L 179.558493 191.097477 
L 179.558493 190.523825 
L 180.269546 190.523825 
L 180.269546 189.950174 
L 180.427645 189.950174 
L 180.427645 188.80287 
L 180.878686 188.80287 
L 180.878686 188.229218 
L 181.20219 188.229218 
L 181.20219 185.36096 
L 181.409774 185.36096 
L 181.47683 183.640005 
L 182.375889 183.640005 
L 182.375889 181.91905 
L 182.753163 181.91905 
L 182.855057 180.198094 
L 183.325711 180.198094 
L 183.325711 179.624443 
L 184.115866 179.624443 
L 184.115866 179.050791 
L 184.445572 179.050791 
L 184.445572 178.477139 
L 185.071299 178.477139 
L 185.176017 177.329836 
L 185.486448 177.329836 
L 185.486448 176.182532 
L 185.611353 176.182532 
L 185.611353 175.608881 
L 185.813832 175.608881 
L 185.813832 175.035229 
L 186.08387 175.035229 
L 186.08387 174.461577 
L 187.33715 174.461577 
L 187.33715 173.887925 
L 187.905123 173.887925 
L 187.905123 172.740622 
L 188.278065 172.740622 
L 188.278065 172.16697 
L 188.512757 172.16697 
L 188.512757 171.019667 
L 188.747484 171.019667 
L 188.810385 169.298712 
L 189.010157 169.298712 
L 189.103018 164.709498 
L 189.311691 164.709498 
L 189.311691 164.135846 
L 189.4575 164.135846 
L 189.4575 163.562195 
L 190.759826 163.562195 
L 190.759826 161.841239 
L 190.952465 161.841239 
L 191.043851 160.120284 
L 191.076963 160.120284 
L 191.137507 156.678374 
L 191.206052 156.678374 
L 191.206052 156.104722 
L 191.924415 156.104722 
L 192.005632 154.957419 
L 192.441862 154.957419 
L 192.492773 150.941857 
L 192.877395 150.941857 
L 192.971621 149.220902 
L 193.121823 149.220902 
L 193.121823 148.073598 
L 193.270742 148.073598 
L 193.333831 144.631688 
L 193.382206 144.631688 
L 193.387037 143.484384 
L 194.397918 143.484384 
L 194.397918 142.910733 
L 194.613067 142.910733 
L 194.613067 140.042474 
L 194.889958 140.042474 
L 194.909885 137.747867 
L 195.390035 137.747867 
L 195.426593 136.600564 
L 195.678259 136.600564 
L 195.678259 136.026912 
L 195.997177 136.026912 
L 195.997177 135.45326 
L 196.614019 135.45326 
L 196.716068 134.305957 
L 196.775818 134.305957 
L 196.837347 132.585002 
L 197.018679 132.585002 
L 197.018679 131.437698 
L 197.221418 131.437698 
L 197.221418 130.864047 
L 197.538313 130.864047 
L 197.540216 128.56944 
L 197.697456 128.56944 
L 197.797125 127.422136 
L 198.107504 127.422136 
L 198.159007 126.274833 
L 198.689018 126.274833 
L 198.689018 125.127529 
L 198.845107 125.127529 
L 198.880388 123.980226 
L 199.28279 123.980226 
L 199.28279 123.406574 
L 199.734945 123.406574 
L 199.734945 122.832923 
L 200.219791 122.832923 
L 200.219791 122.259271 
L 200.377379 122.259271 
L 200.377379 121.111967 
L 200.50789 121.111967 
L 200.509495 119.964664 
L 200.759691 119.964664 
L 200.866951 118.243709 
L 200.885811 118.243709 
L 200.96574 117.096405 
L 201.166292 117.096405 
L 201.166292 116.522754 
L 201.904765 116.522754 
L 201.977216 111.93354 
L 202.059651 111.93354 
L 202.059651 111.359888 
L 202.304642 111.359888 
L 202.304642 110.786236 
L 202.571927 110.786236 
L 202.654443 106.197023 
L 202.702633 106.197023 
L 202.746456 103.902416 
L 202.919255 103.902416 
L 202.983442 102.181461 
L 203.037677 102.181461 
L 203.119406 98.73955 
L 203.156679 98.73955 
L 203.200753 97.592247 
L 204.143212 97.592247 
L 204.212144 95.29764 
L 204.298898 95.29764 
L 204.369792 93.003033 
L 204.419888 93.003033 
L 204.50051 90.134775 
L 204.665704 90.134775 
L 204.665704 89.561123 
L 204.800507 89.561123 
L 204.800507 88.413819 
L 204.93054 88.413819 
L 204.940502 87.266516 
L 205.33197 87.266516 
L 205.429084 84.971909 
L 205.478647 84.971909 
L 205.478647 84.398257 
L 205.648026 84.398257 
L 205.648026 83.824606 
L 205.859529 83.824606 
L 205.967848 82.103651 
L 206.041636 82.103651 
L 206.041636 81.529999 
L 206.405968 81.529999 
L 206.496158 79.809044 
L 206.658238 79.809044 
L 206.735908 78.088089 
L 206.866825 78.088089 
L 206.866825 77.514437 
L 207.381963 77.514437 
L 207.456483 76.367133 
L 207.499538 76.367133 
L 207.549992 75.21983 
L 207.623799 75.21983 
L 207.721725 72.925223 
L 207.819104 72.925223 
L 207.905442 71.204268 
L 208.183643 71.204268 
L 208.183643 70.630616 
L 208.339035 70.630616 
L 208.426921 66.041402 
L 208.531601 66.041402 
L 208.531601 65.467751 
L 208.761108 65.467751 
L 208.865795 64.320447 
L 208.961951 64.320447 
L 209.028059 62.599492 
L 209.421458 62.599492 
L 209.497358 58.010278 
L 209.639619 58.010278 
L 209.701317 56.289323 
L 209.755243 56.289323 
L 209.755243 55.715672 
L 210.045639 55.715672 
L 210.045639 53.994716 
L 210.160457 53.994716 
L 210.263517 52.273761 
L 210.304755 52.273761 
L 210.304755 51.700109 
L 210.583513 51.700109 
L 210.657222 49.979154 
L 210.890664 49.979154 
L 210.99479 48.831851 
L 211.306082 48.831851 
L 211.306082 47.684547 
L 211.531905 47.684547 
L 211.582166 45.963592 
L 211.675488 45.963592 
L 211.75063 40.227075 
L 211.83719 40.227075 
L 211.850598 38.50612 
L 212.286551 38.50612 
L 212.328168 37.358817 
L 212.568568 37.358817 
L 212.658371 36.211513 
L 213.091215 36.211513 
L 213.139517 32.769603 
L 213.238042 32.769603 
L 213.238042 32.195951 
L 213.399747 32.195951 
L 213.399747 31.048648 
L 213.511292 31.048648 
L 213.511292 30.474996 
L 213.653884 30.474996 
L 213.653884 29.901344 
L 213.803559 29.901344 
L 213.914048 27.606737 
L 213.985344 27.606737 
L 213.992013 25.31213 
L 214.37307 25.31213 
L 214.449014 23.017524 
L 214.550479 23.017524 
L 214.562673 21.87022 
L 214.699799 21.87022 
L 214.707623 19.001962 
L 214.850673 19.001962 
L 214.954041 16.707355 
L 215.294243 16.707355 
L 215.294243 16.133703 
L 215.878401 16.133703 
L 215.878401 14.9864 
L 216.055693 14.9864 
L 216.075427 13.839096 
L 216.270252 13.839096 
L 216.280002 12.118141 
L 216.452634 12.118141 
L 216.452634 11.544489 
L 216.640131 11.544489 
L 216.640131 10.970838 
L 216.934243 10.970838 
L 216.991726 9.823534 
L 217.07201 9.823534 
L 217.07201 8.676231 
L 217.621473 8.676231 
L 217.621473 8.102579 
L 218.103893 8.102579 
L 218.103893 7.528927 
L 218.393514 7.528927 
L 218.412499 6.381624 
L 338.688 6.381624 
L 338.688 6.381624 
" style="fill:none;stroke:#000080;stroke-linecap:square;stroke-width:1.5;"/>
   </g>
   <g id="line2d_31">
    <defs>
     <path d="M 0 6 
C 1.591219 6 3.117479 5.367802 4.242641 4.242641 
C 5.367802 3.117479 6 1.591219 6 0 
C 6 -1.591219 5.367802 -3.117479 4.242641 -4.242641 
C 3.117479 -5.367802 1.591219 -6 0 -6 
C -1.591219 -6 -3.117479 -5.367802 -4.242641 -4.242641 
C -5.367802 -3.117479 -6 -1.591219 -6 0 
C -6 1.591219 -5.367802 3.117479 -4.242641 4.242641 
C -3.117479 5.367802 -1.591219 6 0 6 
z
" id="m5e668476fa" style="stroke:#000080;stroke-width:1.5;"/>
    </defs>
    <g>
     <use style="fill-opacity:0;stroke:#000080;stroke-width:1.5;" x="90.684409" xlink:href="#m5e668476fa" y="255.346469"/>
     <use style="fill-opacity:0;stroke:#000080;stroke-width:1.5;" x="176.319066" xlink:href="#m5e668476fa" y="197.407646"/>
     <use style="fill-opacity:0;stroke:#000080;stroke-width:1.5;" x="207.644068" xlink:href="#m5e668476fa" y="74.646178"/>
     <use style="fill-opacity:0;stroke:#000080;stroke-width:1.5;" x="218.412499" xlink:href="#m5e668476fa" y="6.955275"/>
     <use style="fill-opacity:0;stroke:#000080;stroke-width:1.5;" x="218.412499" xlink:href="#m5e668476fa" y="6.381624"/>
     <use style="fill-opacity:0;stroke:#000080;stroke-width:1.5;" x="338.688" xlink:href="#m5e668476fa" y="6.381624"/>
    </g>
   </g>
   <g id="line2d_32">
    <path style="fill:none;stroke:#000080;stroke-linecap:square;stroke-width:1.5;"/>
    <g/>
   </g>
   <g id="line2d_33">
    <defs>
     <path d="M 0 1.5 
C 0.397805 1.5 0.77937 1.341951 1.06066 1.06066 
C 1.341951 0.77937 1.5 0.397805 1.5 0 
C 1.5 -0.397805 1.341951 -0.77937 1.06066 -1.06066 
C 0.77937 -1.341951 0.397805 -1.5 0 -1.5 
C -0.397805 -1.5 -0.77937 -1.341951 -1.06066 -1.06066 
C -1.341951 -0.77937 -1.5 -0.397805 -1.5 0 
C -1.5 0.397805 -1.341951 0.77937 -1.06066 1.06066 
C -0.77937 1.341951 -0.397805 1.5 0 1.5 
z
" id="m4f0161546f" style="stroke:#ff00ff;"/>
    </defs>
    <g>
     <use style="fill:#ff00ff;stroke:#ff00ff;" x="256.935155" xlink:href="#m4f0161546f" y="6.381624"/>
     <use style="fill:#ff00ff;stroke:#ff00ff;" x="256.935155" xlink:href="#m4f0161546f" y="6.381624"/>
    </g>
   </g>
   <g id="line2d_34">
    <path d="M 127.05703 298.944 
L 127.05703 298.370348 
L 153.226778 298.370348 
L 153.226778 297.796697 
L 158.714382 297.796697 
L 158.714382 297.223045 
L 163.130401 297.223045 
L 163.130401 296.649393 
L 167.798261 296.649393 
L 167.798261 295.50209 
L 174.160284 295.50209 
L 174.160284 294.928438 
L 175.590821 294.928438 
L 175.590821 294.354786 
L 175.981689 294.354786 
L 175.981689 293.781135 
L 176.8631 293.781135 
L 176.8631 291.486528 
L 180.218239 291.486528 
L 180.218239 290.912876 
L 180.346224 290.912876 
L 180.346224 289.765573 
L 181.495941 289.765573 
L 181.495941 289.191921 
L 181.911182 289.191921 
L 182.0181 288.044617 
L 182.516073 288.044617 
L 182.623834 284.602707 
L 182.850639 284.602707 
L 182.850639 282.881752 
L 183.488336 282.881752 
L 183.488336 282.3081 
L 184.328244 282.3081 
L 184.38903 281.160797 
L 184.614108 281.160797 
L 184.705715 280.013493 
L 185.237776 280.013493 
L 185.330007 277.718886 
L 185.398861 277.718886 
L 185.398861 275.997931 
L 185.611353 275.997931 
L 185.611353 275.42428 
L 185.798914 275.42428 
L 185.798914 274.276976 
L 185.914197 274.276976 
L 185.914197 273.129673 
L 186.30273 273.129673 
L 186.30273 272.556021 
L 186.63307 272.556021 
L 186.63307 271.982369 
L 186.778295 271.982369 
L 186.806491 270.835066 
L 187.151697 270.835066 
L 187.151697 270.261414 
L 187.326899 270.261414 
L 187.361046 269.114111 
L 187.65199 269.114111 
L 187.65199 267.393156 
L 188.203462 267.393156 
L 188.203462 266.819504 
L 188.528717 266.819504 
L 188.528717 266.245852 
L 188.869931 266.245852 
L 188.869931 265.6722 
L 189.278104 265.6722 
L 189.278104 264.524897 
L 189.511865 264.524897 
L 189.511865 263.377593 
L 189.86117 263.377593 
L 189.95844 261.656638 
L 190.252818 261.656638 
L 190.293233 258.214728 
L 190.379524 258.214728 
L 190.46539 256.493773 
L 191.496419 256.493773 
L 191.585005 255.346469 
L 191.627794 255.346469 
L 191.627794 254.199166 
L 191.776735 254.199166 
L 191.879716 251.330907 
L 192.073458 251.330907 
L 192.073458 250.757256 
L 192.308796 250.757256 
L 192.380573 248.462649 
L 192.543535 248.462649 
L 192.621925 247.315345 
L 193.097288 247.315345 
L 193.097288 245.59439 
L 193.275603 245.59439 
L 193.275603 245.020738 
L 193.693417 245.020738 
L 193.740806 243.299783 
L 194.020141 243.299783 
L 194.020141 242.726132 
L 194.140812 242.726132 
L 194.140812 241.578828 
L 194.905458 241.578828 
L 194.943046 239.857873 
L 195.046543 239.857873 
L 195.046543 239.284221 
L 195.279899 239.284221 
L 195.312364 235.268659 
L 195.426593 235.268659 
L 195.478075 233.547704 
L 195.886636 233.547704 
L 195.980536 229.532142 
L 196.111153 229.532142 
L 196.111153 228.95849 
L 196.89076 228.95849 
L 196.89076 227.811187 
L 197.505928 227.811187 
L 197.608591 225.51658 
L 197.81212 225.51658 
L 197.877573 224.369277 
L 197.94092 224.369277 
L 197.94092 223.221973 
L 198.325349 223.221973 
L 198.347166 222.07467 
L 198.470284 222.07467 
L 198.470284 221.501018 
L 199.005061 221.501018 
L 199.09929 219.780063 
L 199.237959 219.780063 
L 199.237959 219.206411 
L 199.360111 219.206411 
L 199.401209 218.059108 
L 199.505233 218.059108 
L 199.60695 216.911804 
L 199.843674 216.911804 
L 199.936808 212.896242 
L 199.963327 212.896242 
L 199.963327 211.748939 
L 200.294701 211.748939 
L 200.346623 210.601635 
L 200.416151 210.601635 
L 200.416151 210.027984 
L 200.721676 210.027984 
L 200.721676 209.454332 
L 200.849645 209.454332 
L 200.849645 208.88068 
L 201.023499 208.88068 
L 201.040634 206.012422 
L 201.772395 206.012422 
L 201.879558 197.407646 
L 201.898837 197.407646 
L 201.921056 194.539387 
L 202.229178 194.539387 
L 202.314775 193.392084 
L 202.388429 193.392084 
L 202.388429 192.818432 
L 202.651604 192.818432 
L 202.677137 191.671129 
L 202.794393 191.671129 
L 202.842199 190.523825 
L 202.909467 190.523825 
L 202.909467 188.80287 
L 203.079282 188.80287 
L 203.079282 188.229218 
L 203.255688 188.229218 
L 203.255688 187.655567 
L 203.457458 187.655567 
L 203.457458 186.508263 
L 203.574986 186.508263 
L 203.612643 184.213656 
L 204.200458 184.213656 
L 204.206951 183.066353 
L 204.31568 183.066353 
L 204.422453 181.345398 
L 204.508169 181.345398 
L 204.508169 180.771746 
L 204.656849 180.771746 
L 204.665704 178.477139 
L 205.00512 178.477139 
L 205.00512 176.756184 
L 205.366022 176.756184 
L 205.366022 176.182532 
L 205.851259 176.182532 
L 205.851259 175.608881 
L 206.298041 175.608881 
L 206.361271 173.887925 
L 206.429988 173.887925 
L 206.513231 172.740622 
L 206.62662 172.740622 
L 206.62662 172.16697 
L 206.841167 172.16697 
L 206.860135 169.872363 
L 207.177292 169.872363 
L 207.177292 168.72506 
L 207.34621 168.72506 
L 207.416563 166.430453 
L 207.460794 166.430453 
L 207.539269 160.693936 
L 207.869695 160.693936 
L 207.869695 160.120284 
L 208.000759 160.120284 
L 208.091402 158.972981 
L 208.157782 158.972981 
L 208.157782 158.399329 
L 208.395292 158.399329 
L 208.498131 153.236464 
L 208.864801 153.236464 
L 208.961951 151.515508 
L 209.22392 151.515508 
L 209.259914 149.794553 
L 209.356826 149.794553 
L 209.456086 148.073598 
L 209.509816 148.073598 
L 209.509816 146.926295 
L 209.754298 146.926295 
L 209.789216 145.778991 
L 210.185358 145.778991 
L 210.282774 144.631688 
L 210.419703 144.631688 
L 210.518535 143.484384 
L 210.585315 143.484384 
L 210.623103 142.337081 
L 210.753829 142.337081 
L 210.753829 141.763429 
L 210.901281 141.763429 
L 210.901281 140.616126 
L 211.144589 140.616126 
L 211.16464 139.468822 
L 211.297437 139.468822 
L 211.297437 138.321519 
L 211.419788 138.321519 
L 211.419788 137.747867 
L 211.548959 137.747867 
L 211.58727 136.026912 
L 211.744732 136.026912 
L 211.817899 132.01135 
L 211.856461 132.01135 
L 211.909136 124.553878 
L 212.431371 124.553878 
L 212.537189 121.111967 
L 212.707884 121.111967 
L 212.799354 117.096405 
L 213.004404 117.096405 
L 213.004404 116.522754 
L 213.248869 116.522754 
L 213.248869 115.949102 
L 213.417366 115.949102 
L 213.504437 114.801798 
L 213.831994 114.801798 
L 213.842459 113.654495 
L 213.946018 113.654495 
L 213.946018 113.080843 
L 214.533968 113.080843 
L 214.643508 111.359888 
L 214.685565 111.359888 
L 214.793452 109.065281 
L 214.963153 109.065281 
L 215.026106 106.770674 
L 215.15965 106.770674 
L 215.15965 105.623371 
L 215.30043 105.623371 
L 215.30043 105.049719 
L 215.532565 105.049719 
L 215.640072 101.034157 
L 215.694585 101.034157 
L 215.788406 98.73955 
L 215.924219 98.73955 
L 215.924219 98.165899 
L 216.068194 98.165899 
L 216.068194 97.018595 
L 216.233806 97.018595 
L 216.233806 96.444944 
L 216.3468 96.444944 
L 216.45778 94.723988 
L 216.657308 94.723988 
L 216.657308 94.150337 
L 217.295961 94.150337 
L 217.388889 91.282078 
L 217.703108 91.282078 
L 217.703108 90.708426 
L 217.83971 90.708426 
L 217.84862 89.561123 
L 217.979966 89.561123 
L 218.079295 84.398257 
L 218.148899 84.398257 
L 218.224039 80.956347 
L 218.480216 80.956347 
L 218.523691 79.809044 
L 218.68633 79.809044 
L 218.68633 79.235392 
L 218.949239 79.235392 
L 218.949239 78.66174 
L 219.064827 78.66174 
L 219.09084 76.940785 
L 219.245558 76.940785 
L 219.281699 75.793482 
L 219.51481 75.793482 
L 219.611161 72.351571 
L 219.975566 72.351571 
L 219.990279 71.204268 
L 220.097624 71.204268 
L 220.181988 69.483313 
L 220.253015 69.483313 
L 220.285581 66.615054 
L 220.40447 66.615054 
L 220.40447 66.041402 
L 220.571901 66.041402 
L 220.61807 63.173144 
L 220.755846 63.173144 
L 220.855096 60.304885 
L 220.935882 60.304885 
L 221.046973 55.715672 
L 221.302168 55.715672 
L 221.302168 55.14202 
L 221.441432 55.14202 
L 221.441432 54.568368 
L 221.566162 54.568368 
L 221.676184 52.273761 
L 221.687624 52.273761 
L 221.78978 49.405503 
L 221.818654 49.405503 
L 221.821019 48.258199 
L 222.092238 48.258199 
L 222.092238 47.684547 
L 222.259056 47.684547 
L 222.357927 46.537244 
L 222.42886 46.537244 
L 222.522234 44.242637 
L 222.607428 44.242637 
L 222.612852 43.095334 
L 222.765829 43.095334 
L 222.765829 41.94803 
L 223.065614 41.94803 
L 223.065614 41.374379 
L 223.305261 41.374379 
L 223.403574 39.653423 
L 223.671006 39.653423 
L 223.745699 37.358817 
L 223.836091 37.358817 
L 223.836091 36.785165 
L 224.456047 36.785165 
L 224.52098 35.06421 
L 224.940018 35.06421 
L 224.940018 34.490558 
L 225.627056 34.490558 
L 225.627056 33.916906 
L 226.759308 33.916906 
L 226.759308 33.343255 
L 231.083166 33.343255 
L 231.083166 32.769603 
L 231.791501 32.769603 
L 231.892924 31.622299 
L 232.056982 31.622299 
L 232.056982 31.048648 
L 232.29671 31.048648 
L 232.391377 29.901344 
L 232.435431 29.901344 
L 232.435431 29.327692 
L 232.546743 29.327692 
L 232.546743 28.754041 
L 233.190736 28.754041 
L 233.190736 28.180389 
L 233.472781 28.180389 
L 233.472781 27.606737 
L 234.084281 27.606737 
L 234.084281 27.033086 
L 234.413097 27.033086 
L 234.413097 26.459434 
L 234.850681 26.459434 
L 234.850681 25.885782 
L 235.148097 25.885782 
L 235.239256 24.738479 
L 235.271651 24.738479 
L 235.341488 23.591175 
L 235.843425 23.591175 
L 235.845118 22.443872 
L 236.138462 22.443872 
L 236.190819 21.296568 
L 236.453539 21.296568 
L 236.502311 19.575613 
L 236.670028 19.575613 
L 236.68294 18.42831 
L 237.007431 18.42831 
L 237.007431 17.854658 
L 237.184693 17.854658 
L 237.184693 17.281006 
L 237.466545 17.281006 
L 237.466545 16.133703 
L 237.586451 16.133703 
L 237.620122 14.412748 
L 238.494416 14.412748 
L 238.494416 13.839096 
L 244.141026 13.839096 
L 244.141026 13.265444 
L 244.393126 13.265444 
L 244.453034 9.823534 
L 244.534608 9.823534 
L 244.534608 9.249882 
L 244.669977 9.249882 
L 244.673039 8.102579 
L 253.058792 8.102579 
L 253.058792 7.528927 
L 253.656589 7.528927 
L 253.656589 6.955275 
L 256.935155 6.955275 
L 256.935155 6.381624 
L 338.688 6.381624 
L 338.688 6.381624 
" style="fill:none;stroke:#ff00ff;stroke-linecap:square;stroke-width:1.5;"/>
   </g>
   <g id="line2d_35">
    <defs>
     <path d="M -0 8.485281 
L 5.091169 0 
L 0 -8.485281 
L -5.091169 -0 
z
" id="mddeab5c99b" style="stroke:#ff00ff;stroke-linejoin:miter;stroke-width:1.5;"/>
    </defs>
    <g>
     <use style="fill-opacity:0;stroke:#ff00ff;stroke-linejoin:miter;stroke-width:1.5;" x="190.252818" xlink:href="#mddeab5c99b" y="261.082987"/>
     <use style="fill-opacity:0;stroke:#ff00ff;stroke-linejoin:miter;stroke-width:1.5;" x="217.388889" xlink:href="#mddeab5c99b" y="92.429381"/>
     <use style="fill-opacity:0;stroke:#ff00ff;stroke-linejoin:miter;stroke-width:1.5;" x="244.673039" xlink:href="#mddeab5c99b" y="8.102579"/>
     <use style="fill-opacity:0;stroke:#ff00ff;stroke-linejoin:miter;stroke-width:1.5;" x="256.935155" xlink:href="#mddeab5c99b" y="6.381624"/>
     <use style="fill-opacity:0;stroke:#ff00ff;stroke-linejoin:miter;stroke-width:1.5;" x="338.688" xlink:href="#mddeab5c99b" y="6.381624"/>
    </g>
   </g>
   <g id="line2d_36">
    <path style="fill:none;stroke:#ff00ff;stroke-linecap:square;stroke-width:1.5;"/>
    <g/>
   </g>
   <g id="line2d_37">
    <path clip-path="url(#p53fe0bb37a)" d="M 227.152454 33.343255 
" style="fill:none;stroke:#ff00ff;stroke-linecap:square;stroke-width:1.5;"/>
    <defs>
     <path d="M -12 12 
L 12 -12 
M -12 -12 
L 12 12 
" id="mfe04995087" style="stroke:#ff00ff;"/>
    </defs>
    <g clip-path="url(#p53fe0bb37a)">
     <use style="fill:#ff00ff;stroke:#ff00ff;" x="227.152454" xlink:href="#mfe04995087" y="33.343255"/>
    </g>
   </g>
   <g id="line2d_38">
    <defs>
     <path d="M 0 1.5 
C 0.397805 1.5 0.77937 1.341951 1.06066 1.06066 
C 1.341951 0.77937 1.5 0.397805 1.5 0 
C 1.5 -0.397805 1.341951 -0.77937 1.06066 -1.06066 
C 0.77937 -1.341951 0.397805 -1.5 0 -1.5 
C -0.397805 -1.5 -0.77937 -1.341951 -1.06066 -1.06066 
C -1.341951 -0.77937 -1.5 -0.397805 -1.5 0 
C -1.5 0.397805 -1.341951 0.77937 -1.06066 1.06066 
C -0.77937 1.341951 -0.397805 1.5 0 1.5 
z
" id="mb393cb9a9c" style="stroke:#ff7500;"/>
    </defs>
    <g>
     <use style="fill:#ff7500;stroke:#ff7500;" x="244.364328" xlink:href="#mb393cb9a9c" y="6.381624"/>
     <use style="fill:#ff7500;stroke:#ff7500;" x="244.364328" xlink:href="#mb393cb9a9c" y="6.381624"/>
    </g>
   </g>
   <g id="line2d_39">
    <path d="M 38.440992 298.944 
L 38.440992 297.796697 
L 50.52898 297.796697 
L 50.52898 296.649393 
L 57.6 296.649393 
L 57.6 296.075741 
L 62.616969 296.075741 
L 62.616969 295.50209 
L 66.508432 295.50209 
L 66.508432 294.354786 
L 69.687988 294.354786 
L 69.687988 293.781135 
L 72.376266 293.781135 
L 72.376266 291.486528 
L 74.704957 291.486528 
L 74.704957 290.339224 
L 84.464254 290.339224 
L 84.464254 289.765573 
L 85.66744 289.765573 
L 85.66744 288.618269 
L 86.792945 288.618269 
L 86.792945 287.470966 
L 89.78989 287.470966 
L 89.78989 286.897314 
L 92.34655 286.897314 
L 92.34655 286.323662 
L 93.121756 286.323662 
L 93.121756 285.75001 
L 93.863965 285.75001 
L 93.863965 285.176359 
L 94.575872 285.176359 
L 94.575872 284.602707 
L 99.41757 284.602707 
L 99.41757 284.029055 
L 100.934985 284.029055 
L 100.934985 283.455404 
L 101.412804 283.455404 
L 101.412804 282.881752 
L 108.326001 282.881752 
L 108.326001 282.3081 
L 110.415248 282.3081 
L 110.415248 281.734448 
L 110.694282 281.734448 
L 110.694282 281.160797 
L 111.239304 281.160797 
L 111.239304 280.013493 
L 118.399528 280.013493 
L 118.399528 279.439842 
L 119.267333 279.439842 
L 119.267333 278.292538 
L 123.056911 278.292538 
L 123.056911 277.718886 
L 126.053856 277.718886 
L 126.053856 277.145235 
L 126.281824 277.145235 
L 126.281824 276.571583 
L 131.60746 276.571583 
L 131.60746 275.997931 
L 135.747468 275.997931 
L 135.747468 275.42428 
L 135.943785 275.42428 
L 136.008736 274.276976 
L 137.676769 274.276976 
L 137.676769 273.703324 
L 140.348205 273.703324 
L 140.348205 273.129673 
L 143.358447 273.129673 
L 143.358447 272.556021 
L 147.603592 272.556021 
L 147.603592 270.835066 
L 154.618949 270.835066 
L 154.618949 270.261414 
L 154.840544 270.261414 
L 154.840544 269.687762 
L 155.102793 269.687762 
L 155.102793 269.114111 
L 156.45859 269.114111 
L 156.45859 268.540459 
L 157.58535 268.540459 
L 157.58535 267.966807 
L 158.195371 267.966807 
L 158.195371 267.393156 
L 158.340096 267.393156 
L 158.340096 266.819504 
L 159.303838 266.819504 
L 159.303838 265.098549 
L 160.616915 265.098549 
L 160.616915 264.524897 
L 162.217141 264.524897 
L 162.217141 263.951245 
L 164.243924 263.951245 
L 164.243924 263.377593 
L 166.128786 263.377593 
L 166.128786 262.803942 
L 169.962523 262.803942 
L 169.990255 261.082987 
L 170.346825 261.082987 
L 170.346825 260.509335 
L 171.400348 260.509335 
L 171.400348 259.935683 
L 172.617727 259.935683 
L 172.617727 259.362031 
L 172.971637 259.362031 
L 172.971637 258.78838 
L 174.83783 258.78838 
L 174.914609 257.067425 
L 176.138213 257.067425 
L 176.228874 255.920121 
L 176.498063 255.920121 
L 176.498063 255.346469 
L 177.31801 255.346469 
L 177.31801 254.772818 
L 177.444973 254.772818 
L 177.505109 253.051863 
L 178.502578 253.051863 
L 178.502578 252.478211 
L 179.521099 252.478211 
L 179.521099 251.904559 
L 181.347276 251.904559 
L 181.419369 250.183604 
L 181.491165 250.183604 
L 181.491165 249.609952 
L 181.831732 249.609952 
L 181.831732 249.036301 
L 182.284846 249.036301 
L 182.375889 247.888997 
L 182.730934 247.888997 
L 182.730934 247.315345 
L 182.88595 247.315345 
L 182.88595 245.59439 
L 183.161555 245.59439 
L 183.161555 244.447087 
L 183.445687 244.447087 
L 183.445687 243.299783 
L 184.875702 243.299783 
L 184.875702 242.15248 
L 185.040151 242.15248 
L 185.040151 241.578828 
L 185.607581 241.578828 
L 185.641499 239.857873 
L 185.873378 239.857873 
L 185.873378 238.71057 
L 186.317224 238.71057 
L 186.317224 238.136918 
L 186.852213 238.136918 
L 186.852213 237.563266 
L 187.248104 237.563266 
L 187.248104 236.989614 
L 187.361046 236.989614 
L 187.361046 236.415963 
L 188.261875 236.415963 
L 188.355574 235.268659 
L 188.407055 235.268659 
L 188.407055 234.695008 
L 188.535097 234.695008 
L 188.535097 234.121356 
L 188.693839 234.121356 
L 188.693839 233.547704 
L 189.053554 233.547704 
L 189.053554 232.974052 
L 189.472618 232.974052 
L 189.472618 232.400401 
L 189.984874 232.400401 
L 189.984874 230.679446 
L 190.666936 230.679446 
L 190.666936 230.105794 
L 191.195103 230.105794 
L 191.195103 227.811187 
L 191.718374 227.811187 
L 191.718374 226.663884 
L 192.401027 226.663884 
L 192.401027 224.942928 
L 192.820115 224.942928 
L 192.869934 221.501018 
L 192.993864 221.501018 
L 193.008676 218.632759 
L 193.384622 218.632759 
L 193.468945 216.911804 
L 193.712388 216.911804 
L 193.714758 214.617197 
L 193.954816 214.617197 
L 193.954816 214.043546 
L 194.073618 214.043546 
L 194.073618 213.469894 
L 194.572505 213.469894 
L 194.572505 212.896242 
L 194.792209 212.896242 
L 194.883311 211.748939 
L 195.138513 211.748939 
L 195.138513 210.601635 
L 195.340452 210.601635 
L 195.340452 210.027984 
L 195.516586 210.027984 
L 195.529405 208.307029 
L 195.783811 208.307029 
L 195.880358 206.586073 
L 196.094621 206.586073 
L 196.094621 205.43877 
L 196.234646 205.43877 
L 196.234646 204.865118 
L 196.878904 204.865118 
L 196.878904 202.570511 
L 197.124242 202.570511 
L 197.200086 201.423208 
L 197.319984 201.423208 
L 197.319984 200.849556 
L 197.492575 200.849556 
L 197.492575 200.275904 
L 198.033663 200.275904 
L 198.04291 199.128601 
L 198.358064 199.128601 
L 198.358064 198.554949 
L 198.554876 198.554949 
L 198.651562 196.260342 
L 199.036527 196.260342 
L 199.043512 193.392084 
L 199.584961 193.392084 
L 199.584961 192.818432 
L 199.79692 192.818432 
L 199.815303 191.097477 
L 199.996418 191.097477 
L 199.996418 190.523825 
L 200.147836 190.523825 
L 200.147836 189.950174 
L 200.364436 189.950174 
L 200.461276 185.36096 
L 200.570382 185.36096 
L 200.621491 181.91905 
L 200.854367 181.91905 
L 200.885811 180.771746 
L 201.323251 180.771746 
L 201.323251 179.624443 
L 201.806699 179.624443 
L 201.806699 179.050791 
L 201.999335 179.050791 
L 201.999335 178.477139 
L 202.300297 178.477139 
L 202.333579 176.756184 
L 202.781717 176.756184 
L 202.781717 176.182532 
L 202.982049 176.182532 
L 202.982049 175.035229 
L 203.277614 175.035229 
L 203.277614 174.461577 
L 203.779771 174.461577 
L 203.779771 172.16697 
L 204.051749 172.16697 
L 204.067463 171.019667 
L 204.332447 171.019667 
L 204.419888 169.298712 
L 204.721263 169.298712 
L 204.779159 167.004105 
L 204.896874 167.004105 
L 204.896874 166.430453 
L 205.387877 166.430453 
L 205.494332 163.562195 
L 205.580951 163.562195 
L 205.637263 162.414891 
L 206.03813 162.414891 
L 206.046311 157.825677 
L 206.288825 157.825677 
L 206.370449 156.104722 
L 206.463105 156.104722 
L 206.566616 153.236464 
L 206.620968 153.236464 
L 206.623229 152.08916 
L 206.765086 152.08916 
L 206.765086 151.515508 
L 206.973515 151.515508 
L 206.973515 149.794553 
L 207.132336 149.794553 
L 207.19918 148.073598 
L 207.734457 148.073598 
L 207.734457 147.499946 
L 207.980901 147.499946 
L 207.980901 146.926295 
L 208.129808 146.926295 
L 208.191911 142.910733 
L 208.241433 142.910733 
L 208.241433 142.337081 
L 208.363606 142.337081 
L 208.379967 140.616126 
L 208.543756 140.616126 
L 208.607431 139.468822 
L 208.781097 139.468822 
L 208.781097 136.026912 
L 209.096861 136.026912 
L 209.205407 134.305957 
L 209.25311 134.305957 
L 209.25311 133.158653 
L 209.419532 133.158653 
L 209.499275 130.290395 
L 209.692787 130.290395 
L 209.692787 129.716743 
L 209.92819 129.716743 
L 209.92819 129.143091 
L 210.053998 129.143091 
L 210.053998 128.56944 
L 210.167839 128.56944 
L 210.196413 126.274833 
L 210.28369 126.274833 
L 210.321223 124.553878 
L 210.523056 124.553878 
L 210.623103 122.259271 
L 210.804601 122.259271 
L 210.879154 119.964664 
L 211.199456 119.964664 
L 211.27927 117.096405 
L 211.322494 117.096405 
L 211.322494 116.522754 
L 211.660252 116.522754 
L 211.694938 114.228147 
L 211.827128 114.228147 
L 211.888252 112.507192 
L 212.315122 112.507192 
L 212.380252 110.786236 
L 212.447568 110.786236 
L 212.478301 109.065281 
L 212.607111 109.065281 
L 212.687138 106.197023 
L 212.72542 106.197023 
L 212.72542 105.049719 
L 212.914006 105.049719 
L 212.914006 104.476068 
L 213.106811 104.476068 
L 213.182254 103.328764 
L 213.285168 103.328764 
L 213.387479 98.165899 
L 213.544769 98.165899 
L 213.637258 96.444944 
L 213.680302 96.444944 
L 213.705927 95.29764 
L 213.905115 95.29764 
L 213.931155 91.85573 
L 214.021622 91.85573 
L 214.021622 91.282078 
L 214.447571 91.282078 
L 214.485062 88.413819 
L 214.72326 88.413819 
L 214.809012 84.971909 
L 215.084657 84.971909 
L 215.147867 82.677302 
L 215.243978 82.677302 
L 215.340934 78.088089 
L 215.779715 78.088089 
L 215.779715 77.514437 
L 215.895016 77.514437 
L 215.92223 76.367133 
L 216.027368 76.367133 
L 216.066221 70.630616 
L 216.152179 70.630616 
L 216.222076 69.483313 
L 216.335793 69.483313 
L 216.423014 67.762358 
L 216.474495 67.762358 
L 216.570615 64.894099 
L 217.075114 64.894099 
L 217.105507 63.746796 
L 217.206849 63.746796 
L 217.241318 62.599492 
L 217.403517 62.599492 
L 217.454618 60.304885 
L 217.8688 60.304885 
L 217.975839 58.58393 
L 218.01 58.58393 
L 218.116179 56.862975 
L 218.525976 56.862975 
L 218.546529 54.568368 
L 218.707261 54.568368 
L 218.777786 52.847413 
L 218.969857 52.847413 
L 219.070919 49.979154 
L 219.109081 49.979154 
L 219.199451 48.831851 
L 219.328681 48.831851 
L 219.328681 48.258199 
L 219.51373 48.258199 
L 219.584301 45.963592 
L 219.754964 45.963592 
L 219.78422 44.816289 
L 220.000256 44.816289 
L 220.08927 41.374379 
L 220.134128 41.374379 
L 220.153392 40.227075 
L 220.353616 40.227075 
L 220.410111 38.50612 
L 220.505223 38.50612 
L 220.597283 35.06421 
L 220.806043 35.06421 
L 220.806043 34.490558 
L 220.932896 34.490558 
L 221.030157 32.769603 
L 221.072168 32.769603 
L 221.169147 31.048648 
L 221.520515 31.048648 
L 221.61504 29.327692 
L 221.702867 29.327692 
L 221.721901 26.459434 
L 221.817709 26.459434 
L 221.869189 24.164827 
L 222.171675 24.164827 
L 222.245676 21.296568 
L 222.41424 21.296568 
L 222.41424 20.722917 
L 222.600194 20.722917 
L 222.613756 19.575613 
L 223.103881 19.575613 
L 223.1311 18.42831 
L 223.492745 18.42831 
L 223.492745 17.854658 
L 223.733414 17.854658 
L 223.803199 16.707355 
L 224.256907 16.707355 
L 224.356148 15.560051 
L 224.480831 15.560051 
L 224.480831 14.9864 
L 225.286533 14.9864 
L 225.286533 14.412748 
L 225.588996 14.412748 
L 225.588996 13.839096 
L 232.936835 13.839096 
L 232.936835 13.265444 
L 233.595027 13.265444 
L 233.6822 11.544489 
L 234.027304 11.544489 
L 234.027304 10.970838 
L 236.232053 10.970838 
L 236.26906 9.823534 
L 236.732684 9.823534 
L 236.798121 8.676231 
L 236.92727 8.676231 
L 236.92727 8.102579 
L 237.955741 8.102579 
L 237.955741 7.528927 
L 243.42318 7.528927 
L 243.42318 6.955275 
L 244.364328 6.955275 
L 244.364328 6.381624 
L 338.688 6.381624 
L 338.688 6.381624 
" style="fill:none;stroke:#ff7500;stroke-linecap:square;stroke-width:1.5;"/>
   </g>
   <g id="line2d_40">
    <defs>
     <path d="M 0 -6 
L -1.347084 -1.854102 
L -5.706339 -1.854102 
L -2.179628 0.708204 
L -3.526712 4.854102 
L -0 2.291796 
L 3.526712 4.854102 
L 2.179628 0.708204 
L 5.706339 -1.854102 
L 1.347084 -1.854102 
z
" id="m367169659f" style="stroke:#ff7500;stroke-linejoin:bevel;stroke-width:1.5;"/>
    </defs>
    <g>
     <use style="fill-opacity:0;stroke:#ff7500;stroke-linejoin:bevel;stroke-width:1.5;" x="101.412804" xlink:href="#m367169659f" y="283.455404"/>
     <use style="fill-opacity:0;stroke:#ff7500;stroke-linejoin:bevel;stroke-width:1.5;" x="183.445687" xlink:href="#m367169659f" y="244.447087"/>
     <use style="fill-opacity:0;stroke:#ff7500;stroke-linejoin:bevel;stroke-width:1.5;" x="213.931155" xlink:href="#m367169659f" y="94.150337"/>
     <use style="fill-opacity:0;stroke:#ff7500;stroke-linejoin:bevel;stroke-width:1.5;" x="244.364328" xlink:href="#m367169659f" y="6.381624"/>
     <use style="fill-opacity:0;stroke:#ff7500;stroke-linejoin:bevel;stroke-width:1.5;" x="244.364328" xlink:href="#m367169659f" y="6.381624"/>
     <use style="fill-opacity:0;stroke:#ff7500;stroke-linejoin:bevel;stroke-width:1.5;" x="338.688" xlink:href="#m367169659f" y="6.381624"/>
    </g>
   </g>
   <g id="line2d_41">
    <path style="fill:none;stroke:#ff7500;stroke-linecap:square;stroke-width:1.5;"/>
    <g/>
   </g>
   <g id="line2d_42">
    <path clip-path="url(#p53fe0bb37a)" d="M 227.152454 13.839096 
" style="fill:none;stroke:#ff7500;stroke-linecap:square;stroke-width:1.5;"/>
    <defs>
     <path d="M -12 12 
L 12 -12 
M -12 -12 
L 12 12 
" id="m5f69c62098" style="stroke:#ff7500;"/>
    </defs>
    <g clip-path="url(#p53fe0bb37a)">
     <use style="fill:#ff7500;stroke:#ff7500;" x="227.152454" xlink:href="#m5f69c62098" y="13.839096"/>
    </g>
   </g>
   <g id="line2d_43">
    <defs>
     <path d="M 0 1.5 
C 0.397805 1.5 0.77937 1.341951 1.06066 1.06066 
C 1.341951 0.77937 1.5 0.397805 1.5 0 
C 1.5 -0.397805 1.341951 -0.77937 1.06066 -1.06066 
C 0.77937 -1.341951 0.397805 -1.5 0 -1.5 
C -0.397805 -1.5 -0.77937 -1.341951 -1.06066 -1.06066 
C -1.341951 -0.77937 -1.5 -0.397805 -1.5 0 
C -1.5 0.397805 -1.341951 0.77937 -1.06066 1.06066 
C -0.77937 1.341951 -0.397805 1.5 0 1.5 
z
" id="m4aeb6b1f3e" style="stroke:#6495ed;"/>
    </defs>
    <g>
     <use style="fill:#6495ed;stroke:#6495ed;" x="257.411315" xlink:href="#m4aeb6b1f3e" y="6.381624"/>
     <use style="fill:#6495ed;stroke:#6495ed;" x="257.411315" xlink:href="#m4aeb6b1f3e" y="6.381624"/>
    </g>
   </g>
   <g id="line2d_44">
    <path d="M 57.6 298.944 
L 57.6 297.223045 
L 66.508432 297.223045 
L 66.508432 296.649393 
L 69.687988 296.649393 
L 69.687988 296.075741 
L 72.376266 296.075741 
L 72.376266 295.50209 
L 74.704957 295.50209 
L 74.704957 294.928438 
L 78.59642 294.928438 
L 78.59642 294.354786 
L 80.258561 294.354786 
L 80.258561 293.207483 
L 83.171864 293.207483 
L 83.171864 292.060179 
L 86.792945 292.060179 
L 86.792945 290.912876 
L 91.535274 290.912876 
L 91.535274 290.339224 
L 92.34655 290.339224 
L 92.34655 289.765573 
L 95.918017 289.765573 
L 95.918017 289.191921 
L 96.552242 289.191921 
L 96.552242 288.618269 
L 97.16421 288.618269 
L 97.16421 288.044617 
L 102.330873 288.044617 
L 102.330873 287.470966 
L 104.033617 287.470966 
L 104.033617 286.897314 
L 105.951954 286.897314 
L 105.951954 286.323662 
L 106.311539 286.323662 
L 106.311539 285.75001 
L 112.026172 285.75001 
L 112.026172 285.176359 
L 112.779064 285.176359 
L 112.779064 284.602707 
L 116.522527 284.602707 
L 116.522527 283.455404 
L 122.643312 283.455404 
L 122.643312 282.881752 
L 123.327293 282.881752 
L 123.327293 282.3081 
L 124.867052 282.3081 
L 124.867052 281.734448 
L 126.281824 281.734448 
L 126.281824 280.013493 
L 128.905271 280.013493 
L 128.905271 278.86619 
L 129.853291 278.86619 
L 129.853291 278.292538 
L 134.307653 278.292538 
L 134.307653 277.718886 
L 146.608752 277.718886 
L 146.608752 275.997931 
L 150.201126 275.997931 
L 150.201126 275.42428 
L 154.663493 275.42428 
L 154.663493 274.850628 
L 157.28172 274.850628 
L 157.28172 274.276976 
L 158.159001 274.276976 
L 158.159001 273.703324 
L 159.063529 273.703324 
L 159.063529 273.129673 
L 161.007772 273.129673 
L 161.007772 272.556021 
L 162.923853 272.556021 
L 162.923853 271.982369 
L 164.612418 271.982369 
L 164.612418 271.408718 
L 165.083779 271.408718 
L 165.083779 270.835066 
L 167.114699 270.835066 
L 167.114699 270.261414 
L 167.787784 270.261414 
L 167.787784 269.687762 
L 169.879059 269.687762 
L 169.879059 269.114111 
L 170.07319 269.114111 
L 170.07319 268.540459 
L 170.446091 268.540459 
L 170.446091 267.966807 
L 170.784729 267.966807 
L 170.784729 267.393156 
L 171.54458 267.393156 
L 171.54458 266.819504 
L 171.887604 266.819504 
L 171.887604 266.245852 
L 172.862299 266.245852 
L 172.862299 265.6722 
L 173.249682 265.6722 
L 173.249682 265.098549 
L 174.746654 265.098549 
L 174.746654 264.524897 
L 176.440729 264.524897 
L 176.440729 263.951245 
L 176.61217 263.951245 
L 176.61217 263.377593 
L 176.844405 263.377593 
L 176.844405 262.803942 
L 177.438948 262.803942 
L 177.438948 262.23029 
L 178.182162 262.23029 
L 178.182162 261.082987 
L 178.750267 261.082987 
L 178.750267 260.509335 
L 178.972426 260.509335 
L 178.972426 258.78838 
L 179.483624 258.78838 
L 179.483624 258.214728 
L 179.6755 258.214728 
L 179.6755 257.641076 
L 181.129191 257.641076 
L 181.138942 255.920121 
L 181.538866 255.920121 
L 181.538866 255.346469 
L 181.855137 255.346469 
L 181.855137 254.772818 
L 182.412173 254.772818 
L 182.412173 254.199166 
L 183.496853 254.199166 
L 183.496853 253.625514 
L 185.051838 253.625514 
L 185.067409 252.478211 
L 185.199202 252.478211 
L 185.210783 251.330907 
L 185.584933 251.330907 
L 185.649027 249.036301 
L 185.750342 249.036301 
L 185.750342 248.462649 
L 185.877092 248.462649 
L 185.877092 247.888997 
L 186.168092 247.888997 
L 186.168092 247.315345 
L 187.53079 247.315345 
L 187.53079 246.741694 
L 188.284538 246.741694 
L 188.365238 244.447087 
L 188.674866 244.447087 
L 188.674866 243.873435 
L 188.797823 243.873435 
L 188.797823 243.299783 
L 189.149264 243.299783 
L 189.149264 242.726132 
L 189.5991 242.726132 
L 189.5991 241.578828 
L 190.319165 241.578828 
L 190.319165 241.005176 
L 190.742974 241.005176 
L 190.742974 240.431525 
L 191.293399 240.431525 
L 191.293399 239.857873 
L 191.574291 239.857873 
L 191.64915 238.71057 
L 191.718374 238.71057 
L 191.792618 237.563266 
L 191.929666 237.563266 
L 191.929666 235.842311 
L 192.135834 235.842311 
L 192.135834 235.268659 
L 192.62697 235.268659 
L 192.637057 233.547704 
L 193.304741 233.547704 
L 193.304741 232.974052 
L 193.552863 232.974052 
L 193.552863 231.826749 
L 193.863419 231.826749 
L 193.917378 228.384839 
L 194.126931 228.384839 
L 194.126931 227.237535 
L 194.249167 227.237535 
L 194.249167 226.090232 
L 194.83004 226.090232 
L 194.883311 224.369277 
L 195.037759 224.369277 
L 195.037759 223.795625 
L 195.264728 223.795625 
L 195.264728 222.648321 
L 195.482358 222.648321 
L 195.572064 220.927366 
L 195.682494 220.927366 
L 195.726893 219.206411 
L 196.381694 219.206411 
L 196.381694 218.632759 
L 196.497233 218.632759 
L 196.497233 216.338153 
L 197.03044 216.338153 
L 197.135932 214.617197 
L 197.267872 214.617197 
L 197.292982 212.322591 
L 197.416079 212.322591 
L 197.511647 210.601635 
L 198.136953 210.601635 
L 198.186535 209.454332 
L 198.261559 209.454332 
L 198.261559 208.307029 
L 198.443201 208.307029 
L 198.443201 206.012422 
L 198.646205 206.012422 
L 198.646205 205.43877 
L 198.793823 205.43877 
L 198.793823 204.865118 
L 198.920872 204.865118 
L 198.933175 203.717815 
L 199.275901 203.717815 
L 199.275901 203.144163 
L 199.679483 203.144163 
L 199.679483 202.570511 
L 200.165853 202.570511 
L 200.169127 200.849556 
L 200.319059 200.849556 
L 200.370908 199.702253 
L 200.818135 199.702253 
L 200.901513 198.554949 
L 201.043747 198.554949 
L 201.043747 196.833994 
L 201.456021 196.833994 
L 201.456021 195.113039 
L 201.666071 195.113039 
L 201.738023 192.818432 
L 201.919575 192.818432 
L 202.006702 190.523825 
L 202.671466 190.523825 
L 202.671466 189.950174 
L 202.990405 189.950174 
L 203.066811 188.229218 
L 203.340498 188.229218 
L 203.340498 187.655567 
L 203.480486 187.655567 
L 203.480486 186.508263 
L 203.941357 186.508263 
L 203.941357 185.934612 
L 204.31439 185.934612 
L 204.377508 184.213656 
L 204.476235 184.213656 
L 204.503063 181.91905 
L 204.732606 181.91905 
L 204.732606 181.345398 
L 204.89313 181.345398 
L 204.89313 180.198094 
L 205.094197 180.198094 
L 205.094197 179.624443 
L 205.307607 179.624443 
L 205.307607 179.050791 
L 205.455696 179.050791 
L 205.467779 177.903487 
L 206.182488 177.903487 
L 206.182488 177.329836 
L 206.338305 177.329836 
L 206.338305 176.756184 
L 206.47679 176.756184 
L 206.47679 175.608881 
L 206.885766 175.608881 
L 206.963541 173.887925 
L 207.302775 173.887925 
L 207.403596 170.446015 
L 207.499538 170.446015 
L 207.499538 169.872363 
L 207.658988 169.872363 
L 207.75036 168.72506 
L 207.989265 168.72506 
L 208.017464 167.577757 
L 208.238342 167.577757 
L 208.345181 164.709498 
L 208.629612 164.709498 
L 208.673889 162.414891 
L 208.871758 162.414891 
L 208.871758 161.841239 
L 209.004407 161.841239 
L 209.105687 160.120284 
L 209.197607 160.120284 
L 209.299714 157.252026 
L 209.54905 157.252026 
L 209.54905 156.678374 
L 209.694683 156.678374 
L 209.694683 155.53107 
L 210.053998 155.53107 
L 210.077197 153.810115 
L 210.216664 153.810115 
L 210.288272 150.368205 
L 210.898628 150.368205 
L 210.94104 149.220902 
L 211.128882 149.220902 
L 211.168125 146.352643 
L 211.325948 146.352643 
L 211.376805 144.631688 
L 211.504584 144.631688 
L 211.605119 143.484384 
L 211.717743 143.484384 
L 211.717743 140.616126 
L 211.999068 140.616126 
L 211.999068 140.042474 
L 212.182485 140.042474 
L 212.182485 139.468822 
L 212.35016 139.468822 
L 212.35016 138.321519 
L 212.472643 138.321519 
L 212.472643 137.747867 
L 212.589456 137.747867 
L 212.633561 134.879609 
L 212.889558 134.879609 
L 212.889558 134.305957 
L 213.103693 134.305957 
L 213.123172 132.585002 
L 213.260462 132.585002 
L 213.260462 132.01135 
L 213.447967 132.01135 
L 213.447967 131.437698 
L 213.714962 131.437698 
L 213.802061 129.143091 
L 213.83648 129.143091 
L 213.83648 128.56944 
L 213.983861 128.56944 
L 214.035669 126.848485 
L 214.135152 126.848485 
L 214.135152 126.274833 
L 214.464885 126.274833 
L 214.496582 124.553878 
L 214.617081 124.553878 
L 214.668469 121.685619 
L 214.816787 121.685619 
L 214.816787 120.538316 
L 214.982763 120.538316 
L 214.982763 119.964664 
L 215.149947 119.964664 
L 215.149947 119.391012 
L 215.33339 119.391012 
L 215.440763 117.096405 
L 215.615788 117.096405 
L 215.704662 115.949102 
L 216.014837 115.949102 
L 216.014837 115.37545 
L 216.367501 115.37545 
L 216.469354 114.228147 
L 216.909191 114.228147 
L 216.909191 113.080843 
L 217.119755 113.080843 
L 217.190205 111.359888 
L 217.431519 111.359888 
L 217.441249 110.212585 
L 217.57448 110.212585 
L 217.57448 109.638933 
L 217.715081 109.638933 
L 217.715081 109.065281 
L 218.061117 109.065281 
L 218.122611 107.344326 
L 218.470476 107.344326 
L 218.573895 103.902416 
L 218.588132 103.902416 
L 218.588132 103.328764 
L 218.74679 103.328764 
L 218.74679 101.607809 
L 218.859801 101.607809 
L 218.859801 100.460506 
L 218.984886 100.460506 
L 219.094158 97.018595 
L 219.208792 97.018595 
L 219.208792 95.871292 
L 219.474821 95.871292 
L 219.567089 93.576685 
L 219.790066 93.576685 
L 219.88227 92.429381 
L 219.995006 92.429381 
L 220.104409 90.708426 
L 220.15131 90.708426 
L 220.2095 88.413819 
L 220.374181 88.413819 
L 220.449548 87.266516 
L 220.528666 87.266516 
L 220.528666 86.692864 
L 220.669674 86.692864 
L 220.669674 86.119213 
L 220.888553 86.119213 
L 220.942349 84.398257 
L 221.039556 84.398257 
L 221.141142 82.103651 
L 221.276815 82.103651 
L 221.366843 79.235392 
L 221.482465 79.235392 
L 221.482465 78.66174 
L 221.960909 78.66174 
L 222.054016 77.514437 
L 222.178163 77.514437 
L 222.24383 75.793482 
L 222.370762 75.793482 
L 222.370762 75.21983 
L 222.55219 75.21983 
L 222.55219 74.646178 
L 222.93035 74.646178 
L 223.002975 71.204268 
L 223.1153 71.204268 
L 223.1153 70.630616 
L 223.296572 70.630616 
L 223.328265 68.336009 
L 223.822605 68.336009 
L 223.822605 67.762358 
L 224.09453 67.762358 
L 224.167022 64.894099 
L 224.304548 64.894099 
L 224.411265 62.02584 
L 225.020112 62.02584 
L 225.125291 60.878537 
L 225.224394 60.878537 
L 225.257432 59.731234 
L 225.551999 59.731234 
L 225.578706 56.862975 
L 226.125136 56.862975 
L 226.125136 55.715672 
L 226.911841 55.715672 
L 227.022739 53.994716 
L 231.814713 53.994716 
L 231.814713 53.421065 
L 232.021976 53.421065 
L 232.021976 52.847413 
L 232.258024 52.847413 
L 232.258024 52.273761 
L 232.772054 52.273761 
L 232.772054 51.700109 
L 232.954327 51.700109 
L 232.954327 51.126458 
L 233.443421 51.126458 
L 233.443421 49.405503 
L 233.88724 49.405503 
L 233.88724 48.831851 
L 234.025895 48.831851 
L 234.076086 47.110896 
L 234.141305 47.110896 
L 234.141305 46.537244 
L 234.313577 46.537244 
L 234.349811 45.389941 
L 234.704455 45.389941 
L 234.704455 44.816289 
L 234.9095 44.816289 
L 234.935826 43.668985 
L 235.048709 43.668985 
L 235.048709 43.095334 
L 235.165487 43.095334 
L 235.165487 42.521682 
L 235.44962 42.521682 
L 235.53922 40.227075 
L 235.630504 40.227075 
L 235.630504 38.50612 
L 235.832841 38.50612 
L 235.832841 37.932468 
L 236.033694 37.932468 
L 236.112225 35.637861 
L 236.388229 35.637861 
L 236.492526 33.916906 
L 237.012973 33.916906 
L 237.093923 32.195951 
L 237.210736 32.195951 
L 237.210736 31.048648 
L 237.432962 31.048648 
L 237.432962 30.474996 
L 237.654872 30.474996 
L 237.654872 29.901344 
L 237.806239 29.901344 
L 237.911814 27.606737 
L 238.318659 27.606737 
L 238.318659 27.033086 
L 238.458568 27.033086 
L 238.471315 24.738479 
L 242.58862 24.738479 
L 242.58862 24.164827 
L 243.149035 24.164827 
L 243.207817 23.017524 
L 243.392733 23.017524 
L 243.392733 22.443872 
L 243.516792 22.443872 
L 243.516792 21.87022 
L 243.716676 21.87022 
L 243.716676 21.296568 
L 243.877888 21.296568 
L 243.877888 20.149265 
L 243.99776 20.149265 
L 243.99776 19.575613 
L 244.115233 19.575613 
L 244.185024 18.42831 
L 244.25728 18.42831 
L 244.27582 17.281006 
L 244.587754 17.281006 
L 244.633453 16.133703 
L 244.746608 16.133703 
L 244.746608 15.560051 
L 245.034946 15.560051 
L 245.034946 14.9864 
L 245.24259 14.9864 
L 245.24259 14.412748 
L 245.437051 14.412748 
L 245.437051 12.691793 
L 245.892051 12.691793 
L 245.892051 12.118141 
L 246.231626 12.118141 
L 246.231626 11.544489 
L 249.53582 11.544489 
L 249.53582 10.970838 
L 249.795333 10.970838 
L 249.795333 10.397186 
L 249.919454 10.397186 
L 249.919454 9.823534 
L 250.55366 9.823534 
L 250.55366 8.676231 
L 254.081305 8.676231 
L 254.081305 8.102579 
L 254.700525 8.102579 
L 254.700525 7.528927 
L 255.189353 7.528927 
L 255.189353 6.955275 
L 257.411315 6.955275 
L 257.411315 6.381624 
L 338.688 6.381624 
L 338.688 6.381624 
" style="fill:none;stroke:#6495ed;stroke-linecap:square;stroke-width:1.5;"/>
   </g>
   <g id="line2d_45">
    <defs>
     <path d="M -0 6 
L 6 -6 
L -6 -6 
z
" id="m990fa2cb23" style="stroke:#6495ed;stroke-linejoin:miter;stroke-width:1.5;"/>
    </defs>
    <g>
     <use style="fill-opacity:0;stroke:#6495ed;stroke-linejoin:miter;stroke-width:1.5;" x="176.440729" xlink:href="#m990fa2cb23" y="264.524897"/>
     <use style="fill-opacity:0;stroke:#6495ed;stroke-linejoin:miter;stroke-width:1.5;" x="217.119755" xlink:href="#m990fa2cb23" y="113.080843"/>
     <use style="fill-opacity:0;stroke:#6495ed;stroke-linejoin:miter;stroke-width:1.5;" x="257.411315" xlink:href="#m990fa2cb23" y="6.955275"/>
     <use style="fill-opacity:0;stroke:#6495ed;stroke-linejoin:miter;stroke-width:1.5;" x="257.411315" xlink:href="#m990fa2cb23" y="6.381624"/>
     <use style="fill-opacity:0;stroke:#6495ed;stroke-linejoin:miter;stroke-width:1.5;" x="338.688" xlink:href="#m990fa2cb23" y="6.381624"/>
    </g>
   </g>
   <g id="line2d_46">
    <path style="fill:none;stroke:#6495ed;stroke-linecap:square;stroke-width:1.5;"/>
    <g/>
   </g>
   <g id="line2d_47">
    <path clip-path="url(#p53fe0bb37a)" d="M 227.152454 53.994716 
" style="fill:none;stroke:#6495ed;stroke-linecap:square;stroke-width:1.5;"/>
    <defs>
     <path d="M -12 12 
L 12 -12 
M -12 -12 
L 12 12 
" id="m681916bed8" style="stroke:#6495ed;"/>
    </defs>
    <g clip-path="url(#p53fe0bb37a)">
     <use style="fill:#6495ed;stroke:#6495ed;" x="227.152454" xlink:href="#m681916bed8" y="53.994716"/>
    </g>
   </g>
   <g id="line2d_48">
    <defs>
     <path d="M 0 1.5 
C 0.397805 1.5 0.77937 1.341951 1.06066 1.06066 
C 1.341951 0.77937 1.5 0.397805 1.5 0 
C 1.5 -0.397805 1.341951 -0.77937 1.06066 -1.06066 
C 0.77937 -1.341951 0.397805 -1.5 0 -1.5 
C -0.397805 -1.5 -0.77937 -1.341951 -1.06066 -1.06066 
C -1.341951 -0.77937 -1.5 -0.397805 -1.5 0 
C -1.5 0.397805 -1.341951 0.77937 -1.06066 1.06066 
C -0.77937 1.341951 -0.397805 1.5 0 1.5 
z
" id="ma6d65efb52" style="stroke:#ff0000;"/>
    </defs>
    <g>
     <use style="fill:#ff0000;stroke:#ff0000;" x="185.615124" xlink:href="#ma6d65efb52" y="6.381624"/>
     <use style="fill:#ff0000;stroke:#ff0000;" x="185.615124" xlink:href="#ma6d65efb52" y="6.381624"/>
    </g>
   </g>
   <g id="line2d_49">
    <path d="M 38.440992 298.944 
L 38.440992 289.191921 
L 50.52898 289.191921 
L 50.52898 286.323662 
L 57.6 286.323662 
L 57.6 285.176359 
L 62.616969 285.176359 
L 62.616969 281.734448 
L 69.687988 281.734448 
L 69.687988 281.160797 
L 72.376266 281.160797 
L 72.376266 280.587145 
L 74.704957 280.587145 
L 74.704957 278.86619 
L 78.59642 278.86619 
L 78.59642 278.292538 
L 85.66744 278.292538 
L 85.66744 277.145235 
L 86.792945 277.145235 
L 86.792945 276.571583 
L 87.850195 276.571583 
L 87.850195 275.997931 
L 92.34655 275.997931 
L 92.34655 274.850628 
L 102.330873 274.850628 
L 102.330873 274.276976 
L 104.434538 274.276976 
L 104.434538 273.129673 
L 105.584798 273.129673 
L 105.584798 272.556021 
L 110.415248 272.556021 
L 110.415248 271.982369 
L 110.694282 271.982369 
L 110.694282 271.408718 
L 111.239304 271.408718 
L 111.239304 269.687762 
L 116.323218 269.687762 
L 116.323218 268.540459 
L 119.097192 268.540459 
L 119.097192 267.966807 
L 119.267333 267.966807 
L 119.267333 267.393156 
L 120.571812 267.393156 
L 120.571812 266.245852 
L 120.883236 266.245852 
L 120.883236 264.524897 
L 124.619683 264.524897 
L 124.619683 263.951245 
L 129.574256 263.951245 
L 129.574256 263.377593 
L 132.581068 263.377593 
L 132.581068 262.803942 
L 137.319638 262.803942 
L 137.319638 262.23029 
L 139.730821 262.23029 
L 139.730821 261.082987 
L 142.306513 261.082987 
L 142.306513 260.509335 
L 148.826773 260.509335 
L 148.826773 259.935683 
L 149.969756 259.935683 
L 149.969756 259.362031 
L 155.845906 259.362031 
L 155.845906 258.78838 
L 157.108577 258.78838 
L 157.1279 252.478211 
L 158.285965 252.478211 
L 158.285965 251.904559 
L 158.412011 251.904559 
L 158.412011 251.330907 
L 158.802326 251.330907 
L 158.802326 250.183604 
L 159.303838 250.183604 
L 159.303838 249.609952 
L 159.708245 249.609952 
L 159.708245 249.036301 
L 159.84099 249.036301 
L 159.84099 246.168042 
L 161.359783 246.168042 
L 161.359783 245.59439 
L 162.20271 245.59439 
L 162.20271 244.447087 
L 162.517456 244.447087 
L 162.531628 242.726132 
L 163.748975 242.726132 
L 163.748975 242.15248 
L 165.314766 242.15248 
L 165.314766 241.578828 
L 166.829163 241.578828 
L 166.829163 240.431525 
L 167.693205 240.431525 
L 167.693205 225.51658 
L 169.493697 225.51658 
L 169.493697 223.795625 
L 169.635673 223.795625 
L 169.654516 222.648321 
L 170.119095 222.648321 
L 170.119095 222.07467 
L 170.355872 222.07467 
L 170.382987 220.353715 
L 172.83878 220.353715 
L 172.901427 219.206411 
L 173.203648 219.206411 
L 173.203648 217.485456 
L 176.177125 217.485456 
L 176.222414 212.896242 
L 176.650041 212.896242 
L 176.650041 212.322591 
L 177.511111 212.322591 
L 177.511111 197.407646 
L 177.973027 197.407646 
L 177.973027 181.345398 
L 178.63249 181.345398 
L 178.666222 180.198094 
L 178.906075 180.198094 
L 178.906075 179.050791 
L 179.093418 179.050791 
L 179.093418 178.477139 
L 179.451438 178.477139 
L 179.451438 164.709498 
L 179.844303 164.709498 
L 179.917643 134.305957 
L 180.639584 134.305957 
L 180.639584 133.158653 
L 180.754563 133.158653 
L 180.754563 117.670057 
L 181.148688 117.670057 
L 181.192474 103.328764 
L 181.404974 103.328764 
L 181.404974 102.181461 
L 181.605428 102.181461 
L 181.614916 88.413819 
L 182.078244 88.413819 
L 182.078244 75.21983 
L 182.421233 75.21983 
L 182.516073 62.599492 
L 182.60592 62.599492 
L 182.668539 60.878537 
L 182.793106 60.878537 
L 182.793106 60.304885 
L 183.087614 60.304885 
L 183.087614 47.684547 
L 185.260879 47.684547 
L 185.264727 21.87022 
L 185.615124 21.87022 
L 185.615124 6.381624 
L 338.688 6.381624 
L 338.688 6.381624 
" style="fill:none;stroke:#ff0000;stroke-linecap:square;stroke-width:1.5;"/>
   </g>
   <g id="line2d_50">
    <defs>
     <path d="M 0 -6 
L -5.196152 -3 
L -5.196152 3 
L -0 6 
L 5.196152 3 
L 5.196152 -3 
z
" id="mbda21f100f" style="stroke:#ff0000;stroke-linejoin:miter;stroke-width:1.5;"/>
    </defs>
    <g>
     <use style="fill-opacity:0;stroke:#ff0000;stroke-linejoin:miter;stroke-width:1.5;" x="149.969756" xlink:href="#mbda21f100f" y="259.362031"/>
     <use style="fill-opacity:0;stroke:#ff0000;stroke-linejoin:miter;stroke-width:1.5;" x="179.917643" xlink:href="#mbda21f100f" y="145.778991"/>
     <use style="fill-opacity:0;stroke:#ff0000;stroke-linejoin:miter;stroke-width:1.5;" x="185.615124" xlink:href="#mbda21f100f" y="21.87022"/>
     <use style="fill-opacity:0;stroke:#ff0000;stroke-linejoin:miter;stroke-width:1.5;" x="185.615124" xlink:href="#mbda21f100f" y="6.381624"/>
     <use style="fill-opacity:0;stroke:#ff0000;stroke-linejoin:miter;stroke-width:1.5;" x="185.615124" xlink:href="#mbda21f100f" y="6.381624"/>
     <use style="fill-opacity:0;stroke:#ff0000;stroke-linejoin:miter;stroke-width:1.5;" x="338.688" xlink:href="#mbda21f100f" y="6.381624"/>
    </g>
   </g>
   <g id="line2d_51">
    <path style="fill:none;stroke:#ff0000;stroke-linecap:square;stroke-width:1.5;"/>
    <g/>
   </g>
   <g id="line2d_52">
    <path d="M 338.688 6.381624 
L 369.60768 293.092752 
" style="fill:none;stroke:#6495ed;stroke-linecap:square;stroke-width:1.5;"/>
    <g>
     <use style="fill-opacity:0;stroke:#6495ed;stroke-linejoin:miter;stroke-width:1.5;" x="338.688" xlink:href="#m990fa2cb23" y="6.381624"/>
     <use style="fill-opacity:0;stroke:#6495ed;stroke-linejoin:miter;stroke-width:1.5;" x="369.60768" xlink:href="#m990fa2cb23" y="293.092752"/>
    </g>
   </g>
   <g id="line2d_53">
    <path d="M 338.688 6.381624 
L 369.60768 222.877782 
" style="fill:none;stroke:#ff00ff;stroke-linecap:square;stroke-width:1.5;"/>
    <g>
     <use style="fill-opacity:0;stroke:#ff00ff;stroke-linejoin:miter;stroke-width:1.5;" x="338.688" xlink:href="#mddeab5c99b" y="6.381624"/>
     <use style="fill-opacity:0;stroke:#ff00ff;stroke-linejoin:miter;stroke-width:1.5;" x="369.60768" xlink:href="#mddeab5c99b" y="222.877782"/>
    </g>
   </g>
   <g id="line2d_54">
    <path d="M 338.688 6.381624 
L 369.60768 152.662812 
" style="fill:none;stroke:#ff7500;stroke-linecap:square;stroke-width:1.5;"/>
    <g>
     <use style="fill-opacity:0;stroke:#ff7500;stroke-linejoin:bevel;stroke-width:1.5;" x="338.688" xlink:href="#m367169659f" y="6.381624"/>
     <use style="fill-opacity:0;stroke:#ff7500;stroke-linejoin:bevel;stroke-width:1.5;" x="369.60768" xlink:href="#m367169659f" y="152.662812"/>
    </g>
   </g>
   <g id="line2d_55">
    <path d="M 338.688 6.381624 
L 369.60768 82.447842 
" style="fill:none;stroke:#000080;stroke-linecap:square;stroke-width:1.5;"/>
    <g>
     <use style="fill-opacity:0;stroke:#000080;stroke-width:1.5;" x="338.688" xlink:href="#m5e668476fa" y="6.381624"/>
     <use style="fill-opacity:0;stroke:#000080;stroke-width:1.5;" x="369.60768" xlink:href="#m5e668476fa" y="82.447842"/>
    </g>
   </g>
   <g id="line2d_56">
    <path d="M 338.688 6.381624 
L 369.60768 12.232871 
" style="fill:none;stroke:#ff0000;stroke-linecap:square;stroke-width:1.5;"/>
    <g>
     <use style="fill-opacity:0;stroke:#ff0000;stroke-linejoin:miter;stroke-width:1.5;" x="338.688" xlink:href="#mbda21f100f" y="6.381624"/>
     <use style="fill-opacity:0;stroke:#ff0000;stroke-linejoin:miter;stroke-width:1.5;" x="369.60768" xlink:href="#mbda21f100f" y="12.232871"/>
    </g>
   </g>
   <g id="line2d_57">
    <path d="M 338.688 298.944 
L 338.688 6.381624 
" style="fill:none;stroke:#000000;stroke-linecap:square;stroke-width:1.5;"/>
   </g>
   <g id="patch_3">
    <path d="M 57.6 298.944 
L 57.6 3.456 
" style="fill:none;stroke:#000000;stroke-linecap:square;stroke-linejoin:miter;stroke-width:0.8;"/>
   </g>
   <g id="patch_4">
    <path d="M 338.688 298.944 
L 338.688 3.456 
" style="fill:none;stroke:#000000;stroke-linecap:square;stroke-linejoin:miter;stroke-width:0.8;"/>
   </g>
   <g id="patch_5">
    <path d="M 57.6 298.944 
L 338.688 298.944 
" style="fill:none;stroke:#000000;stroke-linecap:square;stroke-linejoin:miter;stroke-width:0.8;"/>
   </g>
   <g id="patch_6">
    <path d="M 57.6 3.456 
L 338.688 3.456 
" style="fill:none;stroke:#000000;stroke-linecap:square;stroke-linejoin:miter;stroke-width:0.8;"/>
   </g>
   <g id="text_13">
    <!-- f4 -->
    <g transform="translate(375.22944 297.78369)scale(0.17 -0.17)">
     <use xlink:href="#DejaVuSans-66"/>
     <use x="35.205078" xlink:href="#DejaVuSans-34"/>
    </g>
   </g>
   <g id="text_14">
    <!-- f2 -->
    <g transform="translate(375.22944 227.56872)scale(0.17 -0.17)">
     <use xlink:href="#DejaVuSans-66"/>
     <use x="35.205078" xlink:href="#DejaVuSans-32"/>
    </g>
   </g>
   <g id="text_15">
    <!-- f3 -->
    <g transform="translate(375.22944 157.353749)scale(0.17 -0.17)">
     <defs>
      <path d="M 2597 2516 
Q 3050 2419 3304 2112 
Q 3559 1806 3559 1356 
Q 3559 666 3084 287 
Q 2609 -91 1734 -91 
Q 1441 -91 1130 -33 
Q 819 25 488 141 
L 488 750 
Q 750 597 1062 519 
Q 1375 441 1716 441 
Q 2309 441 2620 675 
Q 2931 909 2931 1356 
Q 2931 1769 2642 2001 
Q 2353 2234 1838 2234 
L 1294 2234 
L 1294 2753 
L 1863 2753 
Q 2328 2753 2575 2939 
Q 2822 3125 2822 3475 
Q 2822 3834 2567 4026 
Q 2313 4219 1838 4219 
Q 1578 4219 1281 4162 
Q 984 4106 628 3988 
L 628 4550 
Q 988 4650 1302 4700 
Q 1616 4750 1894 4750 
Q 2613 4750 3031 4423 
Q 3450 4097 3450 3541 
Q 3450 3153 3228 2886 
Q 3006 2619 2597 2516 
z
" id="DejaVuSans-33" transform="scale(0.015625)"/>
     </defs>
     <use xlink:href="#DejaVuSans-66"/>
     <use x="35.205078" xlink:href="#DejaVuSans-33"/>
    </g>
   </g>
   <g id="text_16">
    <!-- f1 -->
    <g transform="translate(375.22944 87.138779)scale(0.17 -0.17)">
     <use xlink:href="#DejaVuSans-66"/>
     <use x="35.205078" xlink:href="#DejaVuSans-31"/>
    </g>
   </g>
   <g id="text_17">
    <!-- f5 -->
    <g transform="translate(375.22944 16.923809)scale(0.17 -0.17)">
     <defs>
      <path d="M 691 4666 
L 3169 4666 
L 3169 4134 
L 1269 4134 
L 1269 2991 
Q 1406 3038 1543 3061 
Q 1681 3084 1819 3084 
Q 2600 3084 3056 2656 
Q 3513 2228 3513 1497 
Q 3513 744 3044 326 
Q 2575 -91 1722 -91 
Q 1428 -91 1123 -41 
Q 819 9 494 109 
L 494 744 
Q 775 591 1075 516 
Q 1375 441 1709 441 
Q 2250 441 2565 725 
Q 2881 1009 2881 1497 
Q 2881 1984 2565 2268 
Q 2250 2553 1709 2553 
Q 1456 2553 1204 2497 
Q 953 2441 691 2322 
L 691 4666 
z
" id="DejaVuSans-35" transform="scale(0.015625)"/>
     </defs>
     <use xlink:href="#DejaVuSans-66"/>
     <use x="35.205078" xlink:href="#DejaVuSans-35"/>
    </g>
   </g>
   <g id="text_18">
    <!-- bbob -->
    <g transform="translate(60.41088 14.161286)scale(0.102 -0.102)">
     <defs>
      <path d="M 3116 1747 
Q 3116 2381 2855 2742 
Q 2594 3103 2138 3103 
Q 1681 3103 1420 2742 
Q 1159 2381 1159 1747 
Q 1159 1113 1420 752 
Q 1681 391 2138 391 
Q 2594 391 2855 752 
Q 3116 1113 3116 1747 
z
M 1159 2969 
Q 1341 3281 1617 3432 
Q 1894 3584 2278 3584 
Q 2916 3584 3314 3078 
Q 3713 2572 3713 1747 
Q 3713 922 3314 415 
Q 2916 -91 2278 -91 
Q 1894 -91 1617 61 
Q 1341 213 1159 525 
L 1159 0 
L 581 0 
L 581 4863 
L 1159 4863 
L 1159 2969 
z
" id="DejaVuSans-62" transform="scale(0.015625)"/>
     </defs>
     <use xlink:href="#DejaVuSans-62"/>
     <use x="63.476562" xlink:href="#DejaVuSans-62"/>
     <use x="126.953125" xlink:href="#DejaVuSans-6f"/>
     <use x="188.134766" xlink:href="#DejaVuSans-62"/>
    </g>
    <!-- Separable functions, 3-D -->
    <g transform="translate(60.41088 25.583055)scale(0.102 -0.102)">
     <defs>
      <path d="M 3425 4513 
L 3425 3897 
Q 3066 4069 2747 4153 
Q 2428 4238 2131 4238 
Q 1616 4238 1336 4038 
Q 1056 3838 1056 3469 
Q 1056 3159 1242 3001 
Q 1428 2844 1947 2747 
L 2328 2669 
Q 3034 2534 3370 2195 
Q 3706 1856 3706 1288 
Q 3706 609 3251 259 
Q 2797 -91 1919 -91 
Q 1588 -91 1214 -16 
Q 841 59 441 206 
L 441 856 
Q 825 641 1194 531 
Q 1563 422 1919 422 
Q 2459 422 2753 634 
Q 3047 847 3047 1241 
Q 3047 1584 2836 1778 
Q 2625 1972 2144 2069 
L 1759 2144 
Q 1053 2284 737 2584 
Q 422 2884 422 3419 
Q 422 4038 858 4394 
Q 1294 4750 2059 4750 
Q 2388 4750 2728 4690 
Q 3069 4631 3425 4513 
z
" id="DejaVuSans-53" transform="scale(0.015625)"/>
      <path d="M 1259 4147 
L 1259 519 
L 2022 519 
Q 2988 519 3436 956 
Q 3884 1394 3884 2338 
Q 3884 3275 3436 3711 
Q 2988 4147 2022 4147 
L 1259 4147 
z
M 628 4666 
L 1925 4666 
Q 3281 4666 3915 4102 
Q 4550 3538 4550 2338 
Q 4550 1131 3912 565 
Q 3275 0 1925 0 
L 628 0 
L 628 4666 
z
" id="DejaVuSans-44" transform="scale(0.015625)"/>
     </defs>
     <use xlink:href="#DejaVuSans-53"/>
     <use x="63.476562" xlink:href="#DejaVuSans-65"/>
     <use x="125" xlink:href="#DejaVuSans-70"/>
     <use x="188.476562" xlink:href="#DejaVuSans-61"/>
     <use x="249.755859" xlink:href="#DejaVuSans-72"/>
     <use x="290.869141" xlink:href="#DejaVuSans-61"/>
     <use x="352.148438" xlink:href="#DejaVuSans-62"/>
     <use x="415.625" xlink:href="#DejaVuSans-6c"/>
     <use x="443.408203" xlink:href="#DejaVuSans-65"/>
     <use x="504.931641" xlink:href="#DejaVuSans-20"/>
     <use x="536.71875" xlink:href="#DejaVuSans-66"/>
     <use x="571.923828" xlink:href="#DejaVuSans-75"/>
     <use x="635.302734" xlink:href="#DejaVuSans-6e"/>
     <use x="698.681641" xlink:href="#DejaVuSans-63"/>
     <use x="753.662109" xlink:href="#DejaVuSans-74"/>
     <use x="792.871094" xlink:href="#DejaVuSans-69"/>
     <use x="820.654297" xlink:href="#DejaVuSans-6f"/>
     <use x="881.835938" xlink:href="#DejaVuSans-6e"/>
     <use x="945.214844" xlink:href="#DejaVuSans-73"/>
     <use x="997.314453" xlink:href="#DejaVuSans-2c"/>
     <use x="1029.101562" xlink:href="#DejaVuSans-20"/>
     <use x="1060.888672" xlink:href="#DejaVuSans-33"/>
     <use x="1124.511719" xlink:href="#DejaVuSans-2d"/>
     <use x="1160.595703" xlink:href="#DejaVuSans-44"/>
    </g>
    <!-- 51 targets: 100..1e-08 -->
    <g transform="translate(60.41088 37.004824)scale(0.102 -0.102)">
     <defs>
      <path d="M 750 794 
L 1409 794 
L 1409 0 
L 750 0 
L 750 794 
z
M 750 3309 
L 1409 3309 
L 1409 2516 
L 750 2516 
L 750 3309 
z
" id="DejaVuSans-3a" transform="scale(0.015625)"/>
     </defs>
     <use xlink:href="#DejaVuSans-35"/>
     <use x="63.623047" xlink:href="#DejaVuSans-31"/>
     <use x="127.246094" xlink:href="#DejaVuSans-20"/>
     <use x="159.033203" xlink:href="#DejaVuSans-74"/>
     <use x="198.242188" xlink:href="#DejaVuSans-61"/>
     <use x="259.521484" xlink:href="#DejaVuSans-72"/>
     <use x="298.884766" xlink:href="#DejaVuSans-67"/>
     <use x="362.361328" xlink:href="#DejaVuSans-65"/>
     <use x="423.884766" xlink:href="#DejaVuSans-74"/>
     <use x="463.09375" xlink:href="#DejaVuSans-73"/>
     <use x="515.193359" xlink:href="#DejaVuSans-3a"/>
     <use x="548.884766" xlink:href="#DejaVuSans-20"/>
     <use x="580.671875" xlink:href="#DejaVuSans-31"/>
     <use x="644.294922" xlink:href="#DejaVuSans-30"/>
     <use x="707.917969" xlink:href="#DejaVuSans-30"/>
     <use x="771.541016" xlink:href="#DejaVuSans-2e"/>
     <use x="803.328125" xlink:href="#DejaVuSans-2e"/>
     <use x="835.115234" xlink:href="#DejaVuSans-31"/>
     <use x="898.738281" xlink:href="#DejaVuSans-65"/>
     <use x="960.261719" xlink:href="#DejaVuSans-2d"/>
     <use x="996.345703" xlink:href="#DejaVuSans-30"/>
     <use x="1059.96875" xlink:href="#DejaVuSans-38"/>
    </g>
    <!-- 15 instances -->
    <g transform="translate(60.41088 48.426593)scale(0.102 -0.102)">
     <use xlink:href="#DejaVuSans-31"/>
     <use x="63.623047" xlink:href="#DejaVuSans-35"/>
     <use x="127.246094" xlink:href="#DejaVuSans-20"/>
     <use x="159.033203" xlink:href="#DejaVuSans-69"/>
     <use x="186.816406" xlink:href="#DejaVuSans-6e"/>
     <use x="250.195312" xlink:href="#DejaVuSans-73"/>
     <use x="302.294922" xlink:href="#DejaVuSans-74"/>
     <use x="341.503906" xlink:href="#DejaVuSans-61"/>
     <use x="402.783203" xlink:href="#DejaVuSans-6e"/>
     <use x="466.162109" xlink:href="#DejaVuSans-63"/>
     <use x="521.142578" xlink:href="#DejaVuSans-65"/>
     <use x="582.666016" xlink:href="#DejaVuSans-73"/>
    </g>
   </g>
   <g id="text_19">
    <!-- v2.4 -->
    <g style="fill:#808080;" transform="translate(187.233062 293.909432)scale(0.1 -0.1)">
     <use xlink:href="#DejaVuSans-76"/>
     <use x="59.179688" xlink:href="#DejaVuSans-32"/>
     <use x="122.802734" xlink:href="#DejaVuSans-2e"/>
     <use x="154.589844" xlink:href="#DejaVuSans-34"/>
    </g>
   </g>
  </g>
 </g>
 <defs>
  <clipPath id="p53fe0bb37a">
   <rect height="295.488" width="281.088" x="57.6" y="3.456"/>
  </clipPath>
 </defs>
</svg>
