<?xml version="1.0" encoding="utf-8" standalone="no"?>
<!DOCTYPE svg PUBLIC "-//W3C//DTD SVG 1.1//EN"
  "http://www.w3.org/Graphics/SVG/1.1/DTD/svg11.dtd">
<svg height="345.6pt" version="1.1" viewBox="0 0 460.8 345.6" width="460.8pt" xmlns="http://www.w3.org/2000/svg" xmlns:xlink="http://www.w3.org/1999/xlink">
 <metadata>
  <rdf:RDF xmlns:cc="http://creativecommons.org/ns#" xmlns:dc="http://purl.org/dc/elements/1.1/" xmlns:rdf="http://www.w3.org/1999/02/22-rdf-syntax-ns#">
   <cc:Work>
    <dc:type rdf:resource="http://purl.org/dc/dcmitype/StillImage"/>
    <dc:date>2021-04-26T19:00:35.217743</dc:date>
    <dc:format>image/svg+xml</dc:format>
    <dc:creator>
     <cc:Agent>
      <dc:title>Matplotlib v3.4.1, https://matplotlib.org/</dc:title>
     </cc:Agent>
    </dc:creator>
   </cc:Work>
  </rdf:RDF>
 </metadata>
 <defs>
  <style type="text/css">*{stroke-linecap:butt;stroke-linejoin:round;}</style>
 </defs>
 <g id="figure_1">
  <g id="patch_1">
   <path d="M 0 345.6 
L 460.8 345.6 
L 460.8 0 
L 0 0 
z
" style="fill:#ffffff;"/>
  </g>
  <g id="axes_1">
   <g id="patch_2">
    <path d="M 57.6 298.944 
L 338.688 298.944 
L 338.688 27.648 
L 57.6 27.648 
z
" style="fill:#ffffff;"/>
   </g>
   <g id="matplotlib.axis_1">
    <g id="xtick_1">
     <g id="line2d_1">
      <path clip-path="url(#pbf47e0c659)" d="M 57.6 298.944 
L 57.6 27.648 
" style="fill:none;stroke:#b0b0b0;stroke-linecap:square;stroke-width:0.8;"/>
     </g>
     <g id="line2d_2">
      <defs>
       <path d="M 0 0 
L 0 3.5 
" id="mc9227d852b" style="stroke:#000000;stroke-width:0.8;"/>
      </defs>
      <g>
       <use style="stroke:#000000;stroke-width:0.8;" x="57.6" xlink:href="#mc9227d852b" y="298.944"/>
      </g>
     </g>
     <g id="text_1">
      <!-- 0 -->
      <g transform="translate(51.2375 321.140875)scale(0.2 -0.2)">
       <defs>
        <path d="M 2034 4250 
Q 1547 4250 1301 3770 
Q 1056 3291 1056 2328 
Q 1056 1369 1301 889 
Q 1547 409 2034 409 
Q 2525 409 2770 889 
Q 3016 1369 3016 2328 
Q 3016 3291 2770 3770 
Q 2525 4250 2034 4250 
z
M 2034 4750 
Q 2819 4750 3233 4129 
Q 3647 3509 3647 2328 
Q 3647 1150 3233 529 
Q 2819 -91 2034 -91 
Q 1250 -91 836 529 
Q 422 1150 422 2328 
Q 422 3509 836 4129 
Q 1250 4750 2034 4750 
z
" id="DejaVuSans-30" transform="scale(0.015625)"/>
       </defs>
       <use xlink:href="#DejaVuSans-30"/>
      </g>
     </g>
    </g>
    <g id="xtick_2">
     <g id="line2d_3">
      <path clip-path="url(#pbf47e0c659)" d="M 137.910857 298.944 
L 137.910857 27.648 
" style="fill:none;stroke:#b0b0b0;stroke-linecap:square;stroke-width:0.8;"/>
     </g>
     <g id="line2d_4">
      <g>
       <use style="stroke:#000000;stroke-width:0.8;" x="137.910857" xlink:href="#mc9227d852b" y="298.944"/>
      </g>
     </g>
     <g id="text_2">
      <!-- 2 -->
      <g transform="translate(131.548357 321.140875)scale(0.2 -0.2)">
       <defs>
        <path d="M 1228 531 
L 3431 531 
L 3431 0 
L 469 0 
L 469 531 
Q 828 903 1448 1529 
Q 2069 2156 2228 2338 
Q 2531 2678 2651 2914 
Q 2772 3150 2772 3378 
Q 2772 3750 2511 3984 
Q 2250 4219 1831 4219 
Q 1534 4219 1204 4116 
Q 875 4013 500 3803 
L 500 4441 
Q 881 4594 1212 4672 
Q 1544 4750 1819 4750 
Q 2544 4750 2975 4387 
Q 3406 4025 3406 3419 
Q 3406 3131 3298 2873 
Q 3191 2616 2906 2266 
Q 2828 2175 2409 1742 
Q 1991 1309 1228 531 
z
" id="DejaVuSans-32" transform="scale(0.015625)"/>
       </defs>
       <use xlink:href="#DejaVuSans-32"/>
      </g>
     </g>
    </g>
    <g id="xtick_3">
     <g id="line2d_5">
      <path clip-path="url(#pbf47e0c659)" d="M 218.221714 298.944 
L 218.221714 27.648 
" style="fill:none;stroke:#b0b0b0;stroke-linecap:square;stroke-width:0.8;"/>
     </g>
     <g id="line2d_6">
      <g>
       <use style="stroke:#000000;stroke-width:0.8;" x="218.221714" xlink:href="#mc9227d852b" y="298.944"/>
      </g>
     </g>
     <g id="text_3">
      <!-- 4 -->
      <g transform="translate(211.859214 321.140875)scale(0.2 -0.2)">
       <defs>
        <path d="M 2419 4116 
L 825 1625 
L 2419 1625 
L 2419 4116 
z
M 2253 4666 
L 3047 4666 
L 3047 1625 
L 3713 1625 
L 3713 1100 
L 3047 1100 
L 3047 0 
L 2419 0 
L 2419 1100 
L 313 1100 
L 313 1709 
L 2253 4666 
z
" id="DejaVuSans-34" transform="scale(0.015625)"/>
       </defs>
       <use xlink:href="#DejaVuSans-34"/>
      </g>
     </g>
    </g>
    <g id="xtick_4">
     <g id="line2d_7">
      <path clip-path="url(#pbf47e0c659)" d="M 298.532571 298.944 
L 298.532571 27.648 
" style="fill:none;stroke:#b0b0b0;stroke-linecap:square;stroke-width:0.8;"/>
     </g>
     <g id="line2d_8">
      <g>
       <use style="stroke:#000000;stroke-width:0.8;" x="298.532571" xlink:href="#mc9227d852b" y="298.944"/>
      </g>
     </g>
     <g id="text_4">
      <!-- 6 -->
      <g transform="translate(292.170071 321.140875)scale(0.2 -0.2)">
       <defs>
        <path d="M 2113 2584 
Q 1688 2584 1439 2293 
Q 1191 2003 1191 1497 
Q 1191 994 1439 701 
Q 1688 409 2113 409 
Q 2538 409 2786 701 
Q 3034 994 3034 1497 
Q 3034 2003 2786 2293 
Q 2538 2584 2113 2584 
z
M 3366 4563 
L 3366 3988 
Q 3128 4100 2886 4159 
Q 2644 4219 2406 4219 
Q 1781 4219 1451 3797 
Q 1122 3375 1075 2522 
Q 1259 2794 1537 2939 
Q 1816 3084 2150 3084 
Q 2853 3084 3261 2657 
Q 3669 2231 3669 1497 
Q 3669 778 3244 343 
Q 2819 -91 2113 -91 
Q 1303 -91 875 529 
Q 447 1150 447 2328 
Q 447 3434 972 4092 
Q 1497 4750 2381 4750 
Q 2619 4750 2861 4703 
Q 3103 4656 3366 4563 
z
" id="DejaVuSans-36" transform="scale(0.015625)"/>
       </defs>
       <use xlink:href="#DejaVuSans-36"/>
      </g>
     </g>
    </g>
    <g id="xtick_5">
     <g id="line2d_9">
      <path clip-path="url(#pbf47e0c659)" d="M 97.755429 298.944 
L 97.755429 27.648 
" style="fill:none;stroke:#b0b0b0;stroke-linecap:square;stroke-width:0.8;"/>
     </g>
     <g id="line2d_10">
      <defs>
       <path d="M 0 0 
L 0 2 
" id="m3eed05b5aa" style="stroke:#000000;stroke-width:0.6;"/>
      </defs>
      <g>
       <use style="stroke:#000000;stroke-width:0.6;" x="97.755429" xlink:href="#m3eed05b5aa" y="298.944"/>
      </g>
     </g>
    </g>
    <g id="xtick_6">
     <g id="line2d_11">
      <path clip-path="url(#pbf47e0c659)" d="M 178.066286 298.944 
L 178.066286 27.648 
" style="fill:none;stroke:#b0b0b0;stroke-linecap:square;stroke-width:0.8;"/>
     </g>
     <g id="line2d_12">
      <g>
       <use style="stroke:#000000;stroke-width:0.6;" x="178.066286" xlink:href="#m3eed05b5aa" y="298.944"/>
      </g>
     </g>
    </g>
    <g id="xtick_7">
     <g id="line2d_13">
      <path clip-path="url(#pbf47e0c659)" d="M 258.377143 298.944 
L 258.377143 27.648 
" style="fill:none;stroke:#b0b0b0;stroke-linecap:square;stroke-width:0.8;"/>
     </g>
     <g id="line2d_14">
      <g>
       <use style="stroke:#000000;stroke-width:0.6;" x="258.377143" xlink:href="#m3eed05b5aa" y="298.944"/>
      </g>
     </g>
    </g>
    <g id="xtick_8">
     <g id="line2d_15">
      <path clip-path="url(#pbf47e0c659)" d="M 338.688 298.944 
L 338.688 27.648 
" style="fill:none;stroke:#b0b0b0;stroke-linecap:square;stroke-width:0.8;"/>
     </g>
     <g id="line2d_16">
      <g>
       <use style="stroke:#000000;stroke-width:0.6;" x="338.688" xlink:href="#m3eed05b5aa" y="298.944"/>
      </g>
     </g>
    </g>
    <g id="text_5">
     <!-- log10(# f-evals / dimension) -->
     <g transform="translate(77.764078 342.217594)scale(0.17 -0.17)">
      <defs>
       <path d="M 603 4863 
L 1178 4863 
L 1178 0 
L 603 0 
L 603 4863 
z
" id="DejaVuSans-6c" transform="scale(0.015625)"/>
       <path d="M 1959 3097 
Q 1497 3097 1228 2736 
Q 959 2375 959 1747 
Q 959 1119 1226 758 
Q 1494 397 1959 397 
Q 2419 397 2687 759 
Q 2956 1122 2956 1747 
Q 2956 2369 2687 2733 
Q 2419 3097 1959 3097 
z
M 1959 3584 
Q 2709 3584 3137 3096 
Q 3566 2609 3566 1747 
Q 3566 888 3137 398 
Q 2709 -91 1959 -91 
Q 1206 -91 779 398 
Q 353 888 353 1747 
Q 353 2609 779 3096 
Q 1206 3584 1959 3584 
z
" id="DejaVuSans-6f" transform="scale(0.015625)"/>
       <path d="M 2906 1791 
Q 2906 2416 2648 2759 
Q 2391 3103 1925 3103 
Q 1463 3103 1205 2759 
Q 947 2416 947 1791 
Q 947 1169 1205 825 
Q 1463 481 1925 481 
Q 2391 481 2648 825 
Q 2906 1169 2906 1791 
z
M 3481 434 
Q 3481 -459 3084 -895 
Q 2688 -1331 1869 -1331 
Q 1566 -1331 1297 -1286 
Q 1028 -1241 775 -1147 
L 775 -588 
Q 1028 -725 1275 -790 
Q 1522 -856 1778 -856 
Q 2344 -856 2625 -561 
Q 2906 -266 2906 331 
L 2906 616 
Q 2728 306 2450 153 
Q 2172 0 1784 0 
Q 1141 0 747 490 
Q 353 981 353 1791 
Q 353 2603 747 3093 
Q 1141 3584 1784 3584 
Q 2172 3584 2450 3431 
Q 2728 3278 2906 2969 
L 2906 3500 
L 3481 3500 
L 3481 434 
z
" id="DejaVuSans-67" transform="scale(0.015625)"/>
       <path d="M 794 531 
L 1825 531 
L 1825 4091 
L 703 3866 
L 703 4441 
L 1819 4666 
L 2450 4666 
L 2450 531 
L 3481 531 
L 3481 0 
L 794 0 
L 794 531 
z
" id="DejaVuSans-31" transform="scale(0.015625)"/>
       <path d="M 1984 4856 
Q 1566 4138 1362 3434 
Q 1159 2731 1159 2009 
Q 1159 1288 1364 580 
Q 1569 -128 1984 -844 
L 1484 -844 
Q 1016 -109 783 600 
Q 550 1309 550 2009 
Q 550 2706 781 3412 
Q 1013 4119 1484 4856 
L 1984 4856 
z
" id="DejaVuSans-28" transform="scale(0.015625)"/>
       <path d="M 3272 2816 
L 2363 2816 
L 2100 1772 
L 3016 1772 
L 3272 2816 
z
M 2803 4594 
L 2478 3297 
L 3391 3297 
L 3719 4594 
L 4219 4594 
L 3897 3297 
L 4872 3297 
L 4872 2816 
L 3775 2816 
L 3519 1772 
L 4513 1772 
L 4513 1294 
L 3397 1294 
L 3072 0 
L 2572 0 
L 2894 1294 
L 1978 1294 
L 1656 0 
L 1153 0 
L 1478 1294 
L 494 1294 
L 494 1772 
L 1594 1772 
L 1856 2816 
L 850 2816 
L 850 3297 
L 1978 3297 
L 2297 4594 
L 2803 4594 
z
" id="DejaVuSans-23" transform="scale(0.015625)"/>
       <path id="DejaVuSans-20" transform="scale(0.015625)"/>
       <path d="M 2375 4863 
L 2375 4384 
L 1825 4384 
Q 1516 4384 1395 4259 
Q 1275 4134 1275 3809 
L 1275 3500 
L 2222 3500 
L 2222 3053 
L 1275 3053 
L 1275 0 
L 697 0 
L 697 3053 
L 147 3053 
L 147 3500 
L 697 3500 
L 697 3744 
Q 697 4328 969 4595 
Q 1241 4863 1831 4863 
L 2375 4863 
z
" id="DejaVuSans-66" transform="scale(0.015625)"/>
       <path d="M 313 2009 
L 1997 2009 
L 1997 1497 
L 313 1497 
L 313 2009 
z
" id="DejaVuSans-2d" transform="scale(0.015625)"/>
       <path d="M 3597 1894 
L 3597 1613 
L 953 1613 
Q 991 1019 1311 708 
Q 1631 397 2203 397 
Q 2534 397 2845 478 
Q 3156 559 3463 722 
L 3463 178 
Q 3153 47 2828 -22 
Q 2503 -91 2169 -91 
Q 1331 -91 842 396 
Q 353 884 353 1716 
Q 353 2575 817 3079 
Q 1281 3584 2069 3584 
Q 2775 3584 3186 3129 
Q 3597 2675 3597 1894 
z
M 3022 2063 
Q 3016 2534 2758 2815 
Q 2500 3097 2075 3097 
Q 1594 3097 1305 2825 
Q 1016 2553 972 2059 
L 3022 2063 
z
" id="DejaVuSans-65" transform="scale(0.015625)"/>
       <path d="M 191 3500 
L 800 3500 
L 1894 563 
L 2988 3500 
L 3597 3500 
L 2284 0 
L 1503 0 
L 191 3500 
z
" id="DejaVuSans-76" transform="scale(0.015625)"/>
       <path d="M 2194 1759 
Q 1497 1759 1228 1600 
Q 959 1441 959 1056 
Q 959 750 1161 570 
Q 1363 391 1709 391 
Q 2188 391 2477 730 
Q 2766 1069 2766 1631 
L 2766 1759 
L 2194 1759 
z
M 3341 1997 
L 3341 0 
L 2766 0 
L 2766 531 
Q 2569 213 2275 61 
Q 1981 -91 1556 -91 
Q 1019 -91 701 211 
Q 384 513 384 1019 
Q 384 1609 779 1909 
Q 1175 2209 1959 2209 
L 2766 2209 
L 2766 2266 
Q 2766 2663 2505 2880 
Q 2244 3097 1772 3097 
Q 1472 3097 1187 3025 
Q 903 2953 641 2809 
L 641 3341 
Q 956 3463 1253 3523 
Q 1550 3584 1831 3584 
Q 2591 3584 2966 3190 
Q 3341 2797 3341 1997 
z
" id="DejaVuSans-61" transform="scale(0.015625)"/>
       <path d="M 2834 3397 
L 2834 2853 
Q 2591 2978 2328 3040 
Q 2066 3103 1784 3103 
Q 1356 3103 1142 2972 
Q 928 2841 928 2578 
Q 928 2378 1081 2264 
Q 1234 2150 1697 2047 
L 1894 2003 
Q 2506 1872 2764 1633 
Q 3022 1394 3022 966 
Q 3022 478 2636 193 
Q 2250 -91 1575 -91 
Q 1294 -91 989 -36 
Q 684 19 347 128 
L 347 722 
Q 666 556 975 473 
Q 1284 391 1588 391 
Q 1994 391 2212 530 
Q 2431 669 2431 922 
Q 2431 1156 2273 1281 
Q 2116 1406 1581 1522 
L 1381 1569 
Q 847 1681 609 1914 
Q 372 2147 372 2553 
Q 372 3047 722 3315 
Q 1072 3584 1716 3584 
Q 2034 3584 2315 3537 
Q 2597 3491 2834 3397 
z
" id="DejaVuSans-73" transform="scale(0.015625)"/>
       <path d="M 1625 4666 
L 2156 4666 
L 531 -594 
L 0 -594 
L 1625 4666 
z
" id="DejaVuSans-2f" transform="scale(0.015625)"/>
       <path d="M 2906 2969 
L 2906 4863 
L 3481 4863 
L 3481 0 
L 2906 0 
L 2906 525 
Q 2725 213 2448 61 
Q 2172 -91 1784 -91 
Q 1150 -91 751 415 
Q 353 922 353 1747 
Q 353 2572 751 3078 
Q 1150 3584 1784 3584 
Q 2172 3584 2448 3432 
Q 2725 3281 2906 2969 
z
M 947 1747 
Q 947 1113 1208 752 
Q 1469 391 1925 391 
Q 2381 391 2643 752 
Q 2906 1113 2906 1747 
Q 2906 2381 2643 2742 
Q 2381 3103 1925 3103 
Q 1469 3103 1208 2742 
Q 947 2381 947 1747 
z
" id="DejaVuSans-64" transform="scale(0.015625)"/>
       <path d="M 603 3500 
L 1178 3500 
L 1178 0 
L 603 0 
L 603 3500 
z
M 603 4863 
L 1178 4863 
L 1178 4134 
L 603 4134 
L 603 4863 
z
" id="DejaVuSans-69" transform="scale(0.015625)"/>
       <path d="M 3328 2828 
Q 3544 3216 3844 3400 
Q 4144 3584 4550 3584 
Q 5097 3584 5394 3201 
Q 5691 2819 5691 2113 
L 5691 0 
L 5113 0 
L 5113 2094 
Q 5113 2597 4934 2840 
Q 4756 3084 4391 3084 
Q 3944 3084 3684 2787 
Q 3425 2491 3425 1978 
L 3425 0 
L 2847 0 
L 2847 2094 
Q 2847 2600 2669 2842 
Q 2491 3084 2119 3084 
Q 1678 3084 1418 2786 
Q 1159 2488 1159 1978 
L 1159 0 
L 581 0 
L 581 3500 
L 1159 3500 
L 1159 2956 
Q 1356 3278 1631 3431 
Q 1906 3584 2284 3584 
Q 2666 3584 2933 3390 
Q 3200 3197 3328 2828 
z
" id="DejaVuSans-6d" transform="scale(0.015625)"/>
       <path d="M 3513 2113 
L 3513 0 
L 2938 0 
L 2938 2094 
Q 2938 2591 2744 2837 
Q 2550 3084 2163 3084 
Q 1697 3084 1428 2787 
Q 1159 2491 1159 1978 
L 1159 0 
L 581 0 
L 581 3500 
L 1159 3500 
L 1159 2956 
Q 1366 3272 1645 3428 
Q 1925 3584 2291 3584 
Q 2894 3584 3203 3211 
Q 3513 2838 3513 2113 
z
" id="DejaVuSans-6e" transform="scale(0.015625)"/>
       <path d="M 513 4856 
L 1013 4856 
Q 1481 4119 1714 3412 
Q 1947 2706 1947 2009 
Q 1947 1309 1714 600 
Q 1481 -109 1013 -844 
L 513 -844 
Q 928 -128 1133 580 
Q 1338 1288 1338 2009 
Q 1338 2731 1133 3434 
Q 928 4138 513 4856 
z
" id="DejaVuSans-29" transform="scale(0.015625)"/>
      </defs>
      <use xlink:href="#DejaVuSans-6c"/>
      <use x="27.783203" xlink:href="#DejaVuSans-6f"/>
      <use x="88.964844" xlink:href="#DejaVuSans-67"/>
      <use x="152.441406" xlink:href="#DejaVuSans-31"/>
      <use x="216.064453" xlink:href="#DejaVuSans-30"/>
      <use x="279.6875" xlink:href="#DejaVuSans-28"/>
      <use x="318.701172" xlink:href="#DejaVuSans-23"/>
      <use x="402.490234" xlink:href="#DejaVuSans-20"/>
      <use x="434.277344" xlink:href="#DejaVuSans-66"/>
      <use x="463.982422" xlink:href="#DejaVuSans-2d"/>
      <use x="500.066406" xlink:href="#DejaVuSans-65"/>
      <use x="561.589844" xlink:href="#DejaVuSans-76"/>
      <use x="620.769531" xlink:href="#DejaVuSans-61"/>
      <use x="682.048828" xlink:href="#DejaVuSans-6c"/>
      <use x="709.832031" xlink:href="#DejaVuSans-73"/>
      <use x="761.931641" xlink:href="#DejaVuSans-20"/>
      <use x="793.71875" xlink:href="#DejaVuSans-2f"/>
      <use x="827.410156" xlink:href="#DejaVuSans-20"/>
      <use x="859.197266" xlink:href="#DejaVuSans-64"/>
      <use x="922.673828" xlink:href="#DejaVuSans-69"/>
      <use x="950.457031" xlink:href="#DejaVuSans-6d"/>
      <use x="1047.869141" xlink:href="#DejaVuSans-65"/>
      <use x="1109.392578" xlink:href="#DejaVuSans-6e"/>
      <use x="1172.771484" xlink:href="#DejaVuSans-73"/>
      <use x="1224.871094" xlink:href="#DejaVuSans-69"/>
      <use x="1252.654297" xlink:href="#DejaVuSans-6f"/>
      <use x="1313.835938" xlink:href="#DejaVuSans-6e"/>
      <use x="1377.214844" xlink:href="#DejaVuSans-29"/>
     </g>
    </g>
   </g>
   <g id="matplotlib.axis_2">
    <g id="ytick_1">
     <g id="line2d_17">
      <path clip-path="url(#pbf47e0c659)" d="M 57.6 298.944 
L 338.688 298.944 
" style="fill:none;stroke:#b0b0b0;stroke-linecap:square;stroke-width:0.8;"/>
     </g>
     <g id="line2d_18">
      <defs>
       <path d="M 0 0 
L -3.5 0 
" id="mbf4165b5e2" style="stroke:#000000;stroke-width:0.8;"/>
      </defs>
      <g>
       <use style="stroke:#000000;stroke-width:0.8;" x="57.6" xlink:href="#mbf4165b5e2" y="298.944"/>
      </g>
     </g>
     <g id="text_6">
      <!-- 0.0 -->
      <g transform="translate(25.155 305.02275)scale(0.16 -0.16)">
       <defs>
        <path d="M 684 794 
L 1344 794 
L 1344 0 
L 684 0 
L 684 794 
z
" id="DejaVuSans-2e" transform="scale(0.015625)"/>
       </defs>
       <use xlink:href="#DejaVuSans-30"/>
       <use x="63.623047" xlink:href="#DejaVuSans-2e"/>
       <use x="95.410156" xlink:href="#DejaVuSans-30"/>
      </g>
     </g>
    </g>
    <g id="ytick_2">
     <g id="line2d_19">
      <path clip-path="url(#pbf47e0c659)" d="M 57.6 245.22202 
L 338.688 245.22202 
" style="fill:none;stroke:#b0b0b0;stroke-linecap:square;stroke-width:0.8;"/>
     </g>
     <g id="line2d_20">
      <g>
       <use style="stroke:#000000;stroke-width:0.8;" x="57.6" xlink:href="#mbf4165b5e2" y="245.22202"/>
      </g>
     </g>
     <g id="text_7">
      <!-- 0.2 -->
      <g transform="translate(25.155 251.30077)scale(0.16 -0.16)">
       <use xlink:href="#DejaVuSans-30"/>
       <use x="63.623047" xlink:href="#DejaVuSans-2e"/>
       <use x="95.410156" xlink:href="#DejaVuSans-32"/>
      </g>
     </g>
    </g>
    <g id="ytick_3">
     <g id="line2d_21">
      <path clip-path="url(#pbf47e0c659)" d="M 57.6 191.50004 
L 338.688 191.50004 
" style="fill:none;stroke:#b0b0b0;stroke-linecap:square;stroke-width:0.8;"/>
     </g>
     <g id="line2d_22">
      <g>
       <use style="stroke:#000000;stroke-width:0.8;" x="57.6" xlink:href="#mbf4165b5e2" y="191.50004"/>
      </g>
     </g>
     <g id="text_8">
      <!-- 0.4 -->
      <g transform="translate(25.155 197.57879)scale(0.16 -0.16)">
       <use xlink:href="#DejaVuSans-30"/>
       <use x="63.623047" xlink:href="#DejaVuSans-2e"/>
       <use x="95.410156" xlink:href="#DejaVuSans-34"/>
      </g>
     </g>
    </g>
    <g id="ytick_4">
     <g id="line2d_23">
      <path clip-path="url(#pbf47e0c659)" d="M 57.6 137.778059 
L 338.688 137.778059 
" style="fill:none;stroke:#b0b0b0;stroke-linecap:square;stroke-width:0.8;"/>
     </g>
     <g id="line2d_24">
      <g>
       <use style="stroke:#000000;stroke-width:0.8;" x="57.6" xlink:href="#mbf4165b5e2" y="137.778059"/>
      </g>
     </g>
     <g id="text_9">
      <!-- 0.6 -->
      <g transform="translate(25.155 143.856809)scale(0.16 -0.16)">
       <use xlink:href="#DejaVuSans-30"/>
       <use x="63.623047" xlink:href="#DejaVuSans-2e"/>
       <use x="95.410156" xlink:href="#DejaVuSans-36"/>
      </g>
     </g>
    </g>
    <g id="ytick_5">
     <g id="line2d_25">
      <path clip-path="url(#pbf47e0c659)" d="M 57.6 84.056079 
L 338.688 84.056079 
" style="fill:none;stroke:#b0b0b0;stroke-linecap:square;stroke-width:0.8;"/>
     </g>
     <g id="line2d_26">
      <g>
       <use style="stroke:#000000;stroke-width:0.8;" x="57.6" xlink:href="#mbf4165b5e2" y="84.056079"/>
      </g>
     </g>
     <g id="text_10">
      <!-- 0.8 -->
      <g transform="translate(25.155 90.134829)scale(0.16 -0.16)">
       <defs>
        <path d="M 2034 2216 
Q 1584 2216 1326 1975 
Q 1069 1734 1069 1313 
Q 1069 891 1326 650 
Q 1584 409 2034 409 
Q 2484 409 2743 651 
Q 3003 894 3003 1313 
Q 3003 1734 2745 1975 
Q 2488 2216 2034 2216 
z
M 1403 2484 
Q 997 2584 770 2862 
Q 544 3141 544 3541 
Q 544 4100 942 4425 
Q 1341 4750 2034 4750 
Q 2731 4750 3128 4425 
Q 3525 4100 3525 3541 
Q 3525 3141 3298 2862 
Q 3072 2584 2669 2484 
Q 3125 2378 3379 2068 
Q 3634 1759 3634 1313 
Q 3634 634 3220 271 
Q 2806 -91 2034 -91 
Q 1263 -91 848 271 
Q 434 634 434 1313 
Q 434 1759 690 2068 
Q 947 2378 1403 2484 
z
M 1172 3481 
Q 1172 3119 1398 2916 
Q 1625 2713 2034 2713 
Q 2441 2713 2670 2916 
Q 2900 3119 2900 3481 
Q 2900 3844 2670 4047 
Q 2441 4250 2034 4250 
Q 1625 4250 1398 4047 
Q 1172 3844 1172 3481 
z
" id="DejaVuSans-38" transform="scale(0.015625)"/>
       </defs>
       <use xlink:href="#DejaVuSans-30"/>
       <use x="63.623047" xlink:href="#DejaVuSans-2e"/>
       <use x="95.410156" xlink:href="#DejaVuSans-38"/>
      </g>
     </g>
    </g>
    <g id="ytick_6">
     <g id="line2d_27">
      <path clip-path="url(#pbf47e0c659)" d="M 57.6 30.334099 
L 338.688 30.334099 
" style="fill:none;stroke:#b0b0b0;stroke-linecap:square;stroke-width:0.8;"/>
     </g>
     <g id="line2d_28">
      <g>
       <use style="stroke:#000000;stroke-width:0.8;" x="57.6" xlink:href="#mbf4165b5e2" y="30.334099"/>
      </g>
     </g>
     <g id="text_11">
      <!-- 1.0 -->
      <g transform="translate(25.155 36.412849)scale(0.16 -0.16)">
       <use xlink:href="#DejaVuSans-31"/>
       <use x="63.623047" xlink:href="#DejaVuSans-2e"/>
       <use x="95.410156" xlink:href="#DejaVuSans-30"/>
      </g>
     </g>
    </g>
    <g id="text_12">
     <!-- Fraction of function,target pairs -->
     <g transform="translate(17.619531 297.681)rotate(-90)scale(0.17 -0.17)">
      <defs>
       <path d="M 628 4666 
L 3309 4666 
L 3309 4134 
L 1259 4134 
L 1259 2759 
L 3109 2759 
L 3109 2228 
L 1259 2228 
L 1259 0 
L 628 0 
L 628 4666 
z
" id="DejaVuSans-46" transform="scale(0.015625)"/>
       <path d="M 2631 2963 
Q 2534 3019 2420 3045 
Q 2306 3072 2169 3072 
Q 1681 3072 1420 2755 
Q 1159 2438 1159 1844 
L 1159 0 
L 581 0 
L 581 3500 
L 1159 3500 
L 1159 2956 
Q 1341 3275 1631 3429 
Q 1922 3584 2338 3584 
Q 2397 3584 2469 3576 
Q 2541 3569 2628 3553 
L 2631 2963 
z
" id="DejaVuSans-72" transform="scale(0.015625)"/>
       <path d="M 3122 3366 
L 3122 2828 
Q 2878 2963 2633 3030 
Q 2388 3097 2138 3097 
Q 1578 3097 1268 2742 
Q 959 2388 959 1747 
Q 959 1106 1268 751 
Q 1578 397 2138 397 
Q 2388 397 2633 464 
Q 2878 531 3122 666 
L 3122 134 
Q 2881 22 2623 -34 
Q 2366 -91 2075 -91 
Q 1284 -91 818 406 
Q 353 903 353 1747 
Q 353 2603 823 3093 
Q 1294 3584 2113 3584 
Q 2378 3584 2631 3529 
Q 2884 3475 3122 3366 
z
" id="DejaVuSans-63" transform="scale(0.015625)"/>
       <path d="M 1172 4494 
L 1172 3500 
L 2356 3500 
L 2356 3053 
L 1172 3053 
L 1172 1153 
Q 1172 725 1289 603 
Q 1406 481 1766 481 
L 2356 481 
L 2356 0 
L 1766 0 
Q 1100 0 847 248 
Q 594 497 594 1153 
L 594 3053 
L 172 3053 
L 172 3500 
L 594 3500 
L 594 4494 
L 1172 4494 
z
" id="DejaVuSans-74" transform="scale(0.015625)"/>
       <path d="M 544 1381 
L 544 3500 
L 1119 3500 
L 1119 1403 
Q 1119 906 1312 657 
Q 1506 409 1894 409 
Q 2359 409 2629 706 
Q 2900 1003 2900 1516 
L 2900 3500 
L 3475 3500 
L 3475 0 
L 2900 0 
L 2900 538 
Q 2691 219 2414 64 
Q 2138 -91 1772 -91 
Q 1169 -91 856 284 
Q 544 659 544 1381 
z
M 1991 3584 
L 1991 3584 
z
" id="DejaVuSans-75" transform="scale(0.015625)"/>
       <path d="M 750 794 
L 1409 794 
L 1409 256 
L 897 -744 
L 494 -744 
L 750 256 
L 750 794 
z
" id="DejaVuSans-2c" transform="scale(0.015625)"/>
       <path d="M 1159 525 
L 1159 -1331 
L 581 -1331 
L 581 3500 
L 1159 3500 
L 1159 2969 
Q 1341 3281 1617 3432 
Q 1894 3584 2278 3584 
Q 2916 3584 3314 3078 
Q 3713 2572 3713 1747 
Q 3713 922 3314 415 
Q 2916 -91 2278 -91 
Q 1894 -91 1617 61 
Q 1341 213 1159 525 
z
M 3116 1747 
Q 3116 2381 2855 2742 
Q 2594 3103 2138 3103 
Q 1681 3103 1420 2742 
Q 1159 2381 1159 1747 
Q 1159 1113 1420 752 
Q 1681 391 2138 391 
Q 2594 391 2855 752 
Q 3116 1113 3116 1747 
z
" id="DejaVuSans-70" transform="scale(0.015625)"/>
      </defs>
      <use xlink:href="#DejaVuSans-46"/>
      <use x="50.269531" xlink:href="#DejaVuSans-72"/>
      <use x="91.382812" xlink:href="#DejaVuSans-61"/>
      <use x="152.662109" xlink:href="#DejaVuSans-63"/>
      <use x="207.642578" xlink:href="#DejaVuSans-74"/>
      <use x="246.851562" xlink:href="#DejaVuSans-69"/>
      <use x="274.634766" xlink:href="#DejaVuSans-6f"/>
      <use x="335.816406" xlink:href="#DejaVuSans-6e"/>
      <use x="399.195312" xlink:href="#DejaVuSans-20"/>
      <use x="430.982422" xlink:href="#DejaVuSans-6f"/>
      <use x="492.164062" xlink:href="#DejaVuSans-66"/>
      <use x="527.369141" xlink:href="#DejaVuSans-20"/>
      <use x="559.15625" xlink:href="#DejaVuSans-66"/>
      <use x="594.361328" xlink:href="#DejaVuSans-75"/>
      <use x="657.740234" xlink:href="#DejaVuSans-6e"/>
      <use x="721.119141" xlink:href="#DejaVuSans-63"/>
      <use x="776.099609" xlink:href="#DejaVuSans-74"/>
      <use x="815.308594" xlink:href="#DejaVuSans-69"/>
      <use x="843.091797" xlink:href="#DejaVuSans-6f"/>
      <use x="904.273438" xlink:href="#DejaVuSans-6e"/>
      <use x="967.652344" xlink:href="#DejaVuSans-2c"/>
      <use x="999.439453" xlink:href="#DejaVuSans-74"/>
      <use x="1038.648438" xlink:href="#DejaVuSans-61"/>
      <use x="1099.927734" xlink:href="#DejaVuSans-72"/>
      <use x="1139.291016" xlink:href="#DejaVuSans-67"/>
      <use x="1202.767578" xlink:href="#DejaVuSans-65"/>
      <use x="1264.291016" xlink:href="#DejaVuSans-74"/>
      <use x="1303.5" xlink:href="#DejaVuSans-20"/>
      <use x="1335.287109" xlink:href="#DejaVuSans-70"/>
      <use x="1398.763672" xlink:href="#DejaVuSans-61"/>
      <use x="1460.042969" xlink:href="#DejaVuSans-69"/>
      <use x="1487.826172" xlink:href="#DejaVuSans-72"/>
      <use x="1528.939453" xlink:href="#DejaVuSans-73"/>
     </g>
    </g>
   </g>
   <g id="line2d_29">
    <defs>
     <path d="M 0 1.5 
C 0.397805 1.5 0.77937 1.341951 1.06066 1.06066 
C 1.341951 0.77937 1.5 0.397805 1.5 0 
C 1.5 -0.397805 1.341951 -0.77937 1.06066 -1.06066 
C 0.77937 -1.341951 0.397805 -1.5 0 -1.5 
C -0.397805 -1.5 -0.77937 -1.341951 -1.06066 -1.06066 
C -1.341951 -0.77937 -1.5 -0.397805 -1.5 0 
C -1.5 0.397805 -1.341951 0.77937 -1.06066 1.06066 
C -0.77937 1.341951 -0.397805 1.5 0 1.5 
z
" id="m735ee9b25a" style="stroke:#00bfbf;"/>
    </defs>
    <g>
     <use style="fill:#00bfbf;stroke:#00bfbf;" x="227.446229" xlink:href="#m735ee9b25a" y="30.334099"/>
     <use style="fill:#00bfbf;stroke:#00bfbf;" x="227.446229" xlink:href="#m735ee9b25a" y="30.334099"/>
    </g>
   </g>
   <g id="line2d_30">
    <path d="M 45.512012 298.944 
L 45.512012 288.936964 
L 57.6 288.936964 
L 57.6 283.143418 
L 69.687988 283.143418 
L 69.687988 282.616732 
L 73.579452 282.616732 
L 73.579452 279.983301 
L 76.759008 279.983301 
L 76.759008 278.929929 
L 79.447285 278.929929 
L 79.447285 276.823185 
L 81.775977 276.823185 
L 81.775977 275.243126 
L 85.66744 275.243126 
L 85.66744 273.136382 
L 88.846997 273.136382 
L 88.846997 269.449579 
L 90.242884 269.449579 
L 90.242884 265.762777 
L 95.918017 265.762777 
L 95.918017 263.129347 
L 96.86091 263.129347 
L 96.86091 262.075974 
L 99.41757 262.075974 
L 99.41757 261.022602 
L 108.006005 261.022602 
L 108.006005 260.495916 
L 108.948899 260.495916 
L 108.948899 258.915858 
L 111.505558 258.915858 
L 111.505558 257.3358 
L 113.382559 257.3358 
L 113.382559 256.809114 
L 116.323218 256.809114 
L 116.323218 256.282427 
L 119.097192 256.282427 
L 119.097192 255.229055 
L 119.351785 255.229055 
L 119.351785 254.175683 
L 122.148045 254.175683 
L 122.148045 253.648997 
L 137.37967 253.648997 
L 137.37967 253.122311 
L 139.730821 253.122311 
L 139.730821 251.542253 
L 139.887228 251.542253 
L 139.887228 250.488881 
L 141.235139 250.488881 
L 141.235139 249.435508 
L 141.45 249.435508 
L 141.45 248.908822 
L 142.283909 248.908822 
L 142.283909 248.382136 
L 145.609873 248.382136 
L 145.609873 247.328764 
L 148.780082 247.328764 
L 148.780082 246.802078 
L 154.840544 246.802078 
L 154.840544 246.275392 
L 157.528821 246.275392 
L 157.528821 245.748706 
L 159.354904 245.748706 
L 159.354904 245.22202 
L 160.513841 245.22202 
L 160.513841 244.695334 
L 160.680044 244.695334 
L 160.680044 244.168648 
L 162.474869 244.168648 
L 162.474869 243.641962 
L 164.562052 243.641962 
L 164.562052 243.115275 
L 165.083779 243.115275 
L 165.120455 241.535217 
L 168.385289 241.535217 
L 168.385289 241.008531 
L 169.78585 241.008531 
L 169.78585 240.481845 
L 170.419074 240.481845 
L 170.419074 239.428473 
L 171.883461 239.428473 
L 171.883461 238.901787 
L 172.885786 238.901787 
L 172.885786 238.375101 
L 174.315944 238.375101 
L 174.315944 237.321729 
L 175.466434 237.321729 
L 175.466434 236.795043 
L 175.916053 236.795043 
L 175.975136 235.214984 
L 176.716117 235.214984 
L 176.716117 234.688298 
L 178.991731 234.688298 
L 178.991731 232.581554 
L 180.08154 232.581554 
L 180.08154 231.001496 
L 180.45808 231.001496 
L 180.556629 227.314693 
L 181.107232 227.314693 
L 181.107232 226.261321 
L 181.992593 226.261321 
L 181.992593 224.681263 
L 182.701992 224.681263 
L 182.701992 224.154577 
L 184.163058 224.154577 
L 184.261135 222.047832 
L 184.364741 222.047832 
L 184.413285 220.467774 
L 184.594129 220.467774 
L 184.642039 218.887716 
L 185.276265 218.887716 
L 185.276265 218.36103 
L 185.87152 218.36103 
L 185.87152 217.834344 
L 186.58142 217.834344 
L 186.58142 215.727599 
L 186.74652 215.727599 
L 186.74652 215.200913 
L 187.273837 215.200913 
L 187.273837 214.147541 
L 188.394199 214.147541 
L 188.394199 213.620855 
L 188.921479 213.620855 
L 188.921479 213.094169 
L 189.121531 213.094169 
L 189.121531 211.514111 
L 189.401447 211.514111 
L 189.401447 210.987425 
L 189.837508 210.987425 
L 189.921659 209.407366 
L 190.909376 209.407366 
L 190.984366 207.300622 
L 191.10038 207.300622 
L 191.149865 205.193878 
L 192.538465 205.193878 
L 192.580245 200.980389 
L 192.708753 200.980389 
L 192.708753 199.927017 
L 193.370125 199.927017 
L 193.370125 199.400331 
L 193.961827 199.400331 
L 193.961827 198.873645 
L 194.226169 198.873645 
L 194.226169 198.346959 
L 194.373975 198.346959 
L 194.373975 196.240214 
L 195.222396 196.240214 
L 195.222396 195.186842 
L 195.355558 195.186842 
L 195.355558 194.660156 
L 195.695191 194.660156 
L 195.695191 193.606784 
L 195.83425 193.606784 
L 195.83425 191.50004 
L 196.105988 191.50004 
L 196.105988 190.973354 
L 196.54666 190.973354 
L 196.54666 189.919981 
L 197.236916 189.919981 
L 197.236916 189.393295 
L 197.768975 189.393295 
L 197.768975 188.866609 
L 198.186535 188.866609 
L 198.186535 187.286551 
L 198.736169 187.286551 
L 198.781421 182.01969 
L 198.948103 182.01969 
L 198.948103 181.493004 
L 199.12103 181.493004 
L 199.20426 176.752829 
L 199.305162 176.752829 
L 199.305162 175.699457 
L 199.561251 175.699457 
L 199.561251 172.539341 
L 200.32717 172.539341 
L 200.32717 169.90591 
L 200.892094 169.90591 
L 200.915632 167.799166 
L 201.663818 167.799166 
L 201.663818 167.27248 
L 202.22045 167.27248 
L 202.22045 166.219108 
L 202.426578 166.219108 
L 202.426578 165.692422 
L 202.626033 165.692422 
L 202.626033 165.165736 
L 202.894774 165.165736 
L 202.976477 163.585677 
L 203.134601 163.585677 
L 203.134601 162.005619 
L 203.517672 162.005619 
L 203.517672 161.478933 
L 203.993355 161.478933 
L 204.001239 160.425561 
L 204.24003 160.425561 
L 204.331158 156.738758 
L 205.521447 156.738758 
L 205.618712 155.1587 
L 205.928483 155.1587 
L 206.034038 153.051956 
L 206.142443 153.051956 
L 206.238049 150.945211 
L 206.295162 150.945211 
L 206.295162 149.891839 
L 206.5354 149.891839 
L 206.5354 146.205037 
L 207.390079 146.205037 
L 207.435456 145.151665 
L 207.623799 145.151665 
L 207.623799 144.624978 
L 207.756187 144.624978 
L 207.854428 140.938176 
L 207.904917 140.938176 
L 207.904917 140.41149 
L 208.224941 140.41149 
L 208.248129 139.358118 
L 208.411114 139.358118 
L 208.478323 137.251373 
L 208.756608 137.251373 
L 208.818016 135.671315 
L 208.876229 135.671315 
L 208.925335 133.037885 
L 209.049712 133.037885 
L 209.049712 131.457826 
L 209.465213 131.457826 
L 209.465213 121.450791 
L 209.758077 121.450791 
L 209.851327 116.710616 
L 210.24975 116.710616 
L 210.330821 109.337011 
L 210.400598 109.337011 
L 210.406059 107.230267 
L 210.517631 107.230267 
L 210.517631 105.650209 
L 211.07423 105.650209 
L 211.146334 103.016778 
L 211.28576 103.016778 
L 211.28576 102.490092 
L 211.916648 102.490092 
L 211.916648 101.963406 
L 212.383502 101.963406 
L 212.383502 100.910034 
L 212.673559 100.910034 
L 212.673559 99.856662 
L 213.000091 99.856662 
L 213.000091 98.803289 
L 213.18497 98.803289 
L 213.18497 97.749917 
L 213.307913 97.749917 
L 213.307913 96.696545 
L 213.527278 96.696545 
L 213.527278 94.589801 
L 213.795693 94.589801 
L 213.888727 91.95637 
L 214.212137 91.95637 
L 214.310621 88.269568 
L 214.489743 88.269568 
L 214.489743 87.742882 
L 214.607071 87.742882 
L 214.607071 87.216196 
L 214.750236 87.216196 
L 214.842561 85.109451 
L 214.889068 85.109451 
L 214.889068 83.529393 
L 215.508132 83.529393 
L 215.602621 80.369277 
L 215.763994 80.369277 
L 215.763994 79.315904 
L 215.906969 79.315904 
L 215.906969 78.262532 
L 216.022093 78.262532 
L 216.127616 75.629102 
L 216.325102 75.629102 
L 216.325102 75.102416 
L 216.642995 75.102416 
L 216.642995 74.049044 
L 216.79317 74.049044 
L 216.874371 72.468985 
L 217.016971 72.468985 
L 217.016971 71.942299 
L 217.187121 71.942299 
L 217.270196 70.888927 
L 217.312504 70.888927 
L 217.416002 69.308869 
L 217.632901 69.308869 
L 217.645523 66.675439 
L 217.759608 66.675439 
L 217.759608 66.148752 
L 217.971417 66.148752 
L 218.037634 64.042008 
L 218.127287 64.042008 
L 218.127287 63.515322 
L 218.409049 63.515322 
L 218.409049 62.988636 
L 218.724495 62.988636 
L 218.777786 60.881892 
L 218.862043 60.881892 
L 218.929155 59.301833 
L 219.022682 59.301833 
L 219.082542 57.721775 
L 219.134752 57.721775 
L 219.134752 57.195089 
L 219.32568 57.195089 
L 219.32568 56.668403 
L 219.487801 56.668403 
L 219.528299 54.034973 
L 220.415494 54.034973 
L 220.5251 51.401542 
L 220.654512 51.401542 
L 220.654512 50.874856 
L 221.168656 50.874856 
L 221.168656 49.294798 
L 221.514982 49.294798 
L 221.514982 48.768112 
L 221.825511 48.768112 
L 221.894872 46.661368 
L 221.953401 46.661368 
L 221.971696 44.554623 
L 222.199462 44.554623 
L 222.199462 44.027937 
L 222.330162 44.027937 
L 222.330162 43.501251 
L 222.44826 43.501251 
L 222.44826 42.974565 
L 222.754178 42.974565 
L 222.851404 41.921193 
L 223.148419 41.921193 
L 223.148419 41.394507 
L 223.362714 41.394507 
L 223.414583 36.654332 
L 223.508206 36.654332 
L 223.508206 35.074274 
L 223.868922 35.074274 
L 223.868922 34.547588 
L 224.016524 34.547588 
L 224.016524 34.020902 
L 224.60866 34.020902 
L 224.60866 33.494215 
L 224.991943 33.494215 
L 224.991943 32.967529 
L 225.976715 32.967529 
L 225.976715 31.914157 
L 226.203289 31.914157 
L 226.203289 31.387471 
L 227.314202 31.387471 
L 227.314202 30.860785 
L 227.446229 30.860785 
L 227.446229 30.334099 
L 338.688 30.334099 
L 338.688 30.334099 
" style="fill:none;stroke:#00bfbf;stroke-linecap:square;stroke-width:1.5;"/>
   </g>
   <g id="line2d_31">
    <defs>
     <path d="M -6 0 
L 6 0 
M 0 6 
L 0 -6 
" id="m26931d473d" style="stroke:#00bfbf;stroke-width:1.5;"/>
    </defs>
    <g>
     <use style="fill-opacity:0;stroke:#00bfbf;stroke-width:1.5;" x="88.846997" xlink:href="#m26931d473d" y="269.449579"/>
     <use style="fill-opacity:0;stroke:#00bfbf;stroke-width:1.5;" x="181.107232" xlink:href="#m26931d473d" y="227.314693"/>
     <use style="fill-opacity:0;stroke:#00bfbf;stroke-width:1.5;" x="211.146334" xlink:href="#m26931d473d" y="104.596836"/>
     <use style="fill-opacity:0;stroke:#00bfbf;stroke-width:1.5;" x="227.446229" xlink:href="#m26931d473d" y="30.860785"/>
     <use style="fill-opacity:0;stroke:#00bfbf;stroke-width:1.5;" x="227.446229" xlink:href="#m26931d473d" y="30.334099"/>
     <use style="fill-opacity:0;stroke:#00bfbf;stroke-width:1.5;" x="338.688" xlink:href="#m26931d473d" y="30.334099"/>
    </g>
   </g>
   <g id="line2d_32">
    <path style="fill:none;stroke:#00bfbf;stroke-linecap:square;stroke-width:1.5;"/>
    <g/>
   </g>
   <g id="line2d_33">
    <defs>
     <path d="M 0 1.5 
C 0.397805 1.5 0.77937 1.341951 1.06066 1.06066 
C 1.341951 0.77937 1.5 0.397805 1.5 0 
C 1.5 -0.397805 1.341951 -0.77937 1.06066 -1.06066 
C 0.77937 -1.341951 0.397805 -1.5 0 -1.5 
C -0.397805 -1.5 -0.77937 -1.341951 -1.06066 -1.06066 
C -1.341951 -0.77937 -1.5 -0.397805 -1.5 0 
C -1.5 0.397805 -1.341951 0.77937 -1.06066 1.06066 
C -0.77937 1.341951 -0.397805 1.5 0 1.5 
z
" id="m123502ba47" style="stroke:#008000;"/>
    </defs>
    <g>
     <use style="fill:#008000;stroke:#008000;" x="250.80637" xlink:href="#m123502ba47" y="30.334099"/>
     <use style="fill:#008000;stroke:#008000;" x="250.80637" xlink:href="#m123502ba47" y="30.334099"/>
    </g>
   </g>
   <g id="line2d_34">
    <path d="M 62.616969 298.944 
L 62.616969 297.363942 
L 72.376266 297.363942 
L 72.376266 296.31057 
L 87.850195 296.31057 
L 87.850195 294.203825 
L 90.684409 294.203825 
L 90.684409 288.936964 
L 91.535274 288.936964 
L 91.535274 283.143418 
L 96.552242 283.143418 
L 96.552242 282.616732 
L 97.755429 282.616732 
L 97.755429 281.036673 
L 98.32726 281.036673 
L 98.32726 277.349871 
L 101.877879 277.349871 
L 101.877879 274.189754 
L 102.772397 274.189754 
L 102.772397 269.449579 
L 104.033617 269.449579 
L 104.033617 266.816149 
L 104.434538 266.816149 
L 104.434538 265.236091 
L 108.640231 265.236091 
L 108.640231 261.549288 
L 111.239304 261.549288 
L 111.239304 260.495916 
L 113.022974 260.495916 
L 113.022974 259.96923 
L 116.121606 259.96923 
L 116.121606 258.915858 
L 116.323218 258.915858 
L 116.323218 258.389172 
L 118.039942 258.389172 
L 118.039942 257.862486 
L 122.920132 257.862486 
L 122.920132 257.3358 
L 124.743806 257.3358 
L 124.743806 255.755741 
L 125.351508 255.755741 
L 125.351508 255.229055 
L 125.706218 255.229055 
L 125.706218 254.175683 
L 127.05703 254.175683 
L 127.05703 253.648997 
L 128.905271 253.648997 
L 128.905271 253.122311 
L 137.319638 253.122311 
L 137.319638 252.595625 
L 138.482688 252.595625 
L 138.482688 252.068939 
L 139.306744 252.068939 
L 139.306744 251.015567 
L 151.740076 251.015567 
L 151.740076 250.488881 
L 153.585377 250.488881 
L 153.656221 249.435508 
L 155.232454 249.435508 
L 155.232454 248.908822 
L 158.465753 248.908822 
L 158.465753 248.382136 
L 162.389382 248.382136 
L 162.389382 247.328764 
L 162.951535 247.328764 
L 162.951535 246.802078 
L 165.18141 246.802078 
L 165.18141 246.275392 
L 166.906499 246.275392 
L 166.906499 245.748706 
L 169.75779 245.748706 
L 169.75779 242.588589 
L 173.394661 242.588589 
L 173.394661 242.061903 
L 176.712976 242.061903 
L 176.712976 241.535217 
L 176.962469 241.535217 
L 176.962469 240.481845 
L 177.990551 240.481845 
L 177.990551 239.955159 
L 178.434411 239.955159 
L 178.434411 238.901787 
L 181.395371 238.901787 
L 181.395371 238.375101 
L 181.562667 238.375101 
L 181.562667 236.795043 
L 183.892548 236.795043 
L 183.892548 236.268356 
L 184.197857 236.268356 
L 184.230545 234.161612 
L 185.067409 234.161612 
L 185.067409 233.634926 
L 185.318505 233.634926 
L 185.318505 233.10824 
L 186.08387 233.10824 
L 186.08387 232.581554 
L 186.342559 232.581554 
L 186.342559 231.528182 
L 186.820572 231.528182 
L 186.820572 231.001496 
L 187.065167 231.001496 
L 187.065167 229.421437 
L 187.493588 229.421437 
L 187.574653 227.841379 
L 188.265114 227.841379 
L 188.265114 227.314693 
L 189.366512 227.314693 
L 189.366512 226.788007 
L 189.653026 226.788007 
L 189.653026 226.261321 
L 189.766327 226.261321 
L 189.855258 224.681263 
L 189.984874 224.681263 
L 189.984874 223.627891 
L 190.966343 223.627891 
L 190.966343 223.101204 
L 191.396558 223.101204 
L 191.396558 222.574518 
L 191.877083 222.574518 
L 191.877083 222.047832 
L 192.08387 222.047832 
L 192.125454 220.467774 
L 192.561266 220.467774 
L 192.561266 219.941088 
L 193.173234 219.941088 
L 193.173234 219.414402 
L 193.292606 219.414402 
L 193.302315 218.36103 
L 193.42322 218.36103 
L 193.42322 217.834344 
L 193.728971 217.834344 
L 193.728971 217.307658 
L 193.968835 217.307658 
L 194.020141 215.727599 
L 194.574761 215.727599 
L 194.574761 215.200913 
L 194.923157 215.200913 
L 194.923157 214.674227 
L 195.355558 214.674227 
L 195.439478 213.620855 
L 195.783811 213.620855 
L 195.783811 213.094169 
L 196.109087 213.094169 
L 196.109087 212.040797 
L 196.224389 212.040797 
L 196.224389 210.460738 
L 196.45678 210.460738 
L 196.525494 208.88068 
L 196.841309 208.88068 
L 196.841309 208.353994 
L 197.289121 208.353994 
L 197.393064 206.24725 
L 197.79525 206.24725 
L 197.821486 203.087133 
L 197.972508 203.087133 
L 197.972508 202.033761 
L 198.087229 202.033761 
L 198.087229 201.507075 
L 198.59254 201.507075 
L 198.59254 200.980389 
L 198.845107 200.980389 
L 198.845107 200.453703 
L 198.971785 200.453703 
L 198.971785 199.400331 
L 199.175694 199.400331 
L 199.253491 197.293586 
L 199.401209 197.293586 
L 199.401209 196.240214 
L 199.520528 196.240214 
L 199.520528 195.713528 
L 200.22958 195.713528 
L 200.22958 194.13347 
L 200.710572 194.13347 
L 200.764437 193.080098 
L 201.661565 193.080098 
L 201.769409 189.393295 
L 201.836475 189.393295 
L 201.910691 187.813237 
L 201.965408 187.813237 
L 202.027312 186.759865 
L 202.115367 186.759865 
L 202.116831 185.179807 
L 202.574779 185.179807 
L 202.574779 184.653121 
L 202.704048 184.653121 
L 202.704048 184.126434 
L 202.922051 184.126434 
L 202.997365 182.546376 
L 203.075126 182.546376 
L 203.1553 179.912946 
L 203.188368 179.912946 
L 203.188368 178.332888 
L 203.359592 178.332888 
L 203.359592 176.752829 
L 203.739806 176.752829 
L 203.739806 176.226143 
L 203.912329 176.226143 
L 203.932126 174.119399 
L 204.27434 174.119399 
L 204.297606 171.485969 
L 204.561687 171.485969 
L 204.612505 170.432596 
L 205.180366 170.432596 
L 205.180366 166.745794 
L 205.35873 166.745794 
L 205.35873 166.219108 
L 205.476232 166.219108 
L 205.476232 165.692422 
L 205.631281 165.692422 
L 205.687431 163.585677 
L 205.815775 163.585677 
L 205.815775 163.058991 
L 206.455117 163.058991 
L 206.455117 162.532305 
L 206.666133 162.532305 
L 206.666133 162.005619 
L 206.8434 162.005619 
L 206.911359 159.898875 
L 207.617393 159.898875 
L 207.690916 158.318817 
L 207.827546 158.318817 
L 207.827546 157.265444 
L 208.348253 157.265444 
L 208.433036 156.212072 
L 208.657801 156.212072 
L 208.743099 155.1587 
L 208.781097 155.1587 
L 208.805054 154.105328 
L 209.188827 154.105328 
L 209.298744 153.051956 
L 209.328777 153.051956 
L 209.328777 152.52527 
L 209.562426 152.52527 
L 209.609164 151.471897 
L 209.77035 151.471897 
L 209.77035 150.945211 
L 209.956226 150.945211 
L 209.956226 150.418525 
L 210.137369 150.418525 
L 210.182593 148.838467 
L 210.27544 148.838467 
L 210.27544 148.311781 
L 210.447869 148.311781 
L 210.447869 147.785095 
L 210.775225 147.785095 
L 210.876497 144.624978 
L 210.970138 144.624978 
L 211.065908 141.464862 
L 211.088675 141.464862 
L 211.120149 139.884804 
L 211.298302 139.884804 
L 211.395731 138.304745 
L 211.556628 138.304745 
L 211.556628 137.778059 
L 211.691557 137.778059 
L 211.691557 136.724687 
L 211.848923 136.724687 
L 211.848923 135.671315 
L 212.40299 135.671315 
L 212.40299 135.144629 
L 212.54202 135.144629 
L 212.634362 132.511199 
L 212.671162 132.511199 
L 212.671162 130.93114 
L 212.891136 130.93114 
L 212.893503 129.351082 
L 213.142629 129.351082 
L 213.208621 127.244338 
L 213.370597 127.244338 
L 213.370597 125.137593 
L 213.734522 125.137593 
L 213.827507 123.557535 
L 213.846195 123.557535 
L 213.856651 122.504163 
L 213.981637 122.504163 
L 214.088797 119.870733 
L 214.11015 119.870733 
L 214.130007 118.817361 
L 214.449014 118.817361 
L 214.455508 117.763988 
L 214.585602 117.763988 
L 214.612792 116.710616 
L 215.170733 116.710616 
L 215.170733 116.18393 
L 215.306614 116.18393 
L 215.306614 115.657244 
L 215.444172 115.657244 
L 215.501339 114.077186 
L 215.605661 114.077186 
L 215.706676 111.970441 
L 215.805107 111.970441 
L 215.854448 110.390383 
L 216.130565 110.390383 
L 216.130565 109.863697 
L 216.292992 109.863697 
L 216.392052 107.756953 
L 216.668114 107.756953 
L 216.668114 106.703581 
L 217.138941 106.703581 
L 217.138941 105.123522 
L 217.306379 105.123522 
L 217.382181 103.016778 
L 217.521309 103.016778 
L 217.598595 99.856662 
L 217.702509 99.856662 
L 217.702509 99.329976 
L 217.821875 99.329976 
L 217.911458 98.276603 
L 218.003527 98.276603 
L 218.003527 97.749917 
L 218.551663 97.749917 
L 218.660274 91.95637 
L 218.682934 91.95637 
L 218.717434 89.849626 
L 219.031563 89.849626 
L 219.031563 89.32294 
L 219.356482 89.32294 
L 219.356482 88.796254 
L 219.574621 88.796254 
L 219.672248 87.216196 
L 219.753366 87.216196 
L 219.845764 83.529393 
L 220.384968 83.529393 
L 220.471022 81.422649 
L 220.664116 81.422649 
L 220.708025 78.789218 
L 220.80905 78.789218 
L 220.80905 77.735846 
L 221.23236 77.735846 
L 221.24654 75.102416 
L 221.387217 75.102416 
L 221.415798 74.049044 
L 221.732836 74.049044 
L 221.834728 72.468985 
L 221.981538 72.468985 
L 222.055416 70.888927 
L 222.146629 70.888927 
L 222.247061 68.782183 
L 222.6124 68.782183 
L 222.662491 67.728811 
L 222.822628 67.728811 
L 222.895257 66.675439 
L 223.126274 66.675439 
L 223.126274 66.148752 
L 223.248272 66.148752 
L 223.345606 64.568694 
L 223.523654 64.568694 
L 223.601115 60.355206 
L 223.701176 60.355206 
L 223.787997 58.775147 
L 223.941518 58.775147 
L 224.005054 57.721775 
L 224.112785 57.721775 
L 224.195935 56.668403 
L 224.257318 56.668403 
L 224.257318 56.141717 
L 224.824559 56.141717 
L 224.824559 54.561659 
L 224.963335 54.561659 
L 225.063359 53.508287 
L 225.235673 53.508287 
L 225.299709 51.928228 
L 225.525251 51.928228 
L 225.525251 50.874856 
L 225.877312 50.874856 
L 225.877312 50.34817 
L 226.002408 50.34817 
L 226.078149 48.768112 
L 226.252508 48.768112 
L 226.275967 47.71474 
L 226.396791 47.71474 
L 226.396791 47.188054 
L 226.547104 47.188054 
L 226.547104 46.661368 
L 227.013261 46.661368 
L 227.013261 46.134681 
L 233.741985 46.134681 
L 233.741985 45.607995 
L 233.904278 45.607995 
L 233.911136 44.554623 
L 234.236474 44.554623 
L 234.236474 44.027937 
L 234.48668 44.027937 
L 234.48668 43.501251 
L 234.942736 43.501251 
L 234.942736 42.974565 
L 235.196262 42.974565 
L 235.196262 42.447879 
L 235.489619 42.447879 
L 235.489619 41.394507 
L 235.967 41.394507 
L 235.967 40.867821 
L 236.53041 40.867821 
L 236.535292 38.761076 
L 237.343285 38.761076 
L 237.440688 36.654332 
L 237.522757 36.654332 
L 237.54619 35.60096 
L 237.802457 35.60096 
L 237.824761 34.547588 
L 238.115309 34.547588 
L 238.115309 33.494215 
L 238.614523 33.494215 
L 238.614523 32.967529 
L 243.692406 32.967529 
L 243.692406 32.440843 
L 244.154172 32.440843 
L 244.154172 31.914157 
L 244.404917 31.914157 
L 244.404917 31.387471 
L 245.61185 31.387471 
L 245.61185 30.860785 
L 250.80637 30.860785 
L 250.80637 30.334099 
L 338.688 30.334099 
L 338.688 30.334099 
" style="fill:none;stroke:#008000;stroke-linecap:square;stroke-width:1.5;"/>
   </g>
   <g id="line2d_35">
    <defs>
     <path d="M -0 6 
L 6 -6 
L -6 -6 
z
" id="m24c43db31b" style="stroke:#008000;stroke-linejoin:miter;stroke-width:1.5;"/>
    </defs>
    <g>
     <use style="fill-opacity:0;stroke:#008000;stroke-linejoin:miter;stroke-width:1.5;" x="116.323218" xlink:href="#m24c43db31b" y="258.389172"/>
     <use style="fill-opacity:0;stroke:#008000;stroke-linejoin:miter;stroke-width:1.5;" x="203.739806" xlink:href="#m24c43db31b" y="176.752829"/>
     <use style="fill-opacity:0;stroke:#008000;stroke-linejoin:miter;stroke-width:1.5;" x="250.80637" xlink:href="#m24c43db31b" y="30.860785"/>
     <use style="fill-opacity:0;stroke:#008000;stroke-linejoin:miter;stroke-width:1.5;" x="250.80637" xlink:href="#m24c43db31b" y="30.334099"/>
     <use style="fill-opacity:0;stroke:#008000;stroke-linejoin:miter;stroke-width:1.5;" x="338.688" xlink:href="#m24c43db31b" y="30.334099"/>
    </g>
   </g>
   <g id="line2d_36">
    <path style="fill:none;stroke:#008000;stroke-linecap:square;stroke-width:1.5;"/>
    <g/>
   </g>
   <g id="line2d_37">
    <path clip-path="url(#pbf47e0c659)" d="M 227.152454 46.134681 
" style="fill:none;stroke:#008000;stroke-linecap:square;stroke-width:1.5;"/>
    <defs>
     <path d="M -12 12 
L 12 -12 
M -12 -12 
L 12 12 
" id="me191bd57fb" style="stroke:#008000;"/>
    </defs>
    <g clip-path="url(#pbf47e0c659)">
     <use style="fill:#008000;stroke:#008000;" x="227.152454" xlink:href="#me191bd57fb" y="46.134681"/>
    </g>
   </g>
   <g id="line2d_38">
    <defs>
     <path d="M 0 1.5 
C 0.397805 1.5 0.77937 1.341951 1.06066 1.06066 
C 1.341951 0.77937 1.5 0.397805 1.5 0 
C 1.5 -0.397805 1.341951 -0.77937 1.06066 -1.06066 
C 0.77937 -1.341951 0.397805 -1.5 0 -1.5 
C -0.397805 -1.5 -0.77937 -1.341951 -1.06066 -1.06066 
C -1.341951 -0.77937 -1.5 -0.397805 -1.5 0 
C -1.5 0.397805 -1.341951 0.77937 -1.06066 1.06066 
C -0.77937 1.341951 -0.397805 1.5 0 1.5 
z
" id="mc9940ddb5b" style="stroke:#0000ff;"/>
    </defs>
    <g>
     <use style="fill:#0000ff;stroke:#0000ff;" x="280.644449" xlink:href="#mc9940ddb5b" y="72.468985"/>
     <use style="fill:#0000ff;stroke:#0000ff;" x="280.644449" xlink:href="#mc9940ddb5b" y="72.468985"/>
    </g>
   </g>
   <g id="line2d_39">
    <path d="M 65.796525 298.944 
L 65.796525 298.417314 
L 71.35013 298.417314 
L 71.35013 296.837256 
L 101.506816 296.837256 
L 101.506816 293.677139 
L 102.597126 293.677139 
L 102.597126 292.623767 
L 103.870632 292.623767 
L 103.870632 289.990337 
L 106.593963 289.990337 
L 106.593963 289.463651 
L 109.131511 289.463651 
L 109.131511 286.83022 
L 109.491096 286.83022 
L 109.491096 284.723476 
L 113.022974 284.723476 
L 113.022974 283.143418 
L 115.835374 283.143418 
L 115.835374 282.616732 
L 124.743806 282.616732 
L 124.743806 282.090045 
L 125.612332 282.090045 
L 125.612332 280.509987 
L 132.230358 280.509987 
L 132.230358 278.403243 
L 132.612604 278.403243 
L 132.612604 276.823185 
L 132.986651 276.823185 
L 132.986651 273.663068 
L 136.073445 273.663068 
L 136.073445 271.556324 
L 141.321401 271.556324 
L 141.321401 269.976266 
L 142.857929 269.976266 
L 142.857929 267.342835 
L 145.350002 267.342835 
L 145.350002 265.236091 
L 146.06373 265.236091 
L 146.06373 264.709405 
L 146.367029 264.709405 
L 146.367029 264.182719 
L 148.411533 264.182719 
L 148.411533 263.129347 
L 148.639252 263.129347 
L 148.639252 260.495916 
L 151.227591 260.495916 
L 151.227591 257.862486 
L 151.485716 257.862486 
L 151.485716 257.3358 
L 151.62925 257.3358 
L 151.62925 256.809114 
L 160.821253 256.809114 
L 160.821253 256.282427 
L 162.754039 256.282427 
L 162.754039 255.755741 
L 163.725178 255.755741 
L 163.725178 255.229055 
L 164.516598 255.229055 
L 164.516598 254.702369 
L 166.642144 254.702369 
L 166.642144 254.175683 
L 167.223287 254.175683 
L 167.223287 253.648997 
L 169.958822 253.648997 
L 169.958822 253.122311 
L 170.364915 253.122311 
L 170.364915 252.595625 
L 171.8212 252.595625 
L 171.8212 252.068939 
L 175.149812 252.068939 
L 175.149812 251.542253 
L 177.549476 251.542253 
L 177.549476 251.015567 
L 177.781456 251.015567 
L 177.781456 250.488881 
L 179.664896 250.488881 
L 179.664896 249.962195 
L 180.061331 249.962195 
L 180.061331 249.435508 
L 181.070572 249.435508 
L 181.170108 248.382136 
L 181.341496 248.382136 
L 181.341496 247.328764 
L 181.667955 247.328764 
L 181.667955 246.275392 
L 181.960539 246.275392 
L 182.049586 245.22202 
L 182.256526 245.22202 
L 182.256526 244.695334 
L 183.052709 244.695334 
L 183.078894 243.641962 
L 183.931628 243.641962 
L 183.931628 243.115275 
L 184.548492 243.115275 
L 184.548492 242.061903 
L 184.701742 242.061903 
L 184.701742 241.535217 
L 184.83474 241.535217 
L 184.83474 241.008531 
L 185.30853 241.008531 
L 185.30853 240.481845 
L 185.974879 240.481845 
L 186.010302 239.428473 
L 186.429862 239.428473 
L 186.429862 238.901787 
L 186.548211 238.901787 
L 186.548211 238.375101 
L 188.396128 238.375101 
L 188.396128 237.848415 
L 188.595589 237.848415 
L 188.633687 236.795043 
L 189.592497 236.795043 
L 189.592497 236.268356 
L 190.393291 236.268356 
L 190.393291 235.74167 
L 190.528659 235.74167 
L 190.528659 235.214984 
L 191.280325 235.214984 
L 191.280325 234.688298 
L 191.765609 234.688298 
L 191.765609 234.161612 
L 192.044795 234.161612 
L 192.044795 233.634926 
L 192.206775 233.634926 
L 192.253222 232.581554 
L 192.852016 232.581554 
L 192.919116 230.47481 
L 193.161496 230.47481 
L 193.161496 229.948123 
L 193.908475 229.948123 
L 193.908475 229.421437 
L 194.040156 229.421437 
L 194.09589 226.261321 
L 194.299198 226.261321 
L 194.303322 224.681263 
L 194.532754 224.681263 
L 194.532754 224.154577 
L 194.858028 224.154577 
L 194.858028 223.627891 
L 194.976143 223.627891 
L 194.976143 223.101204 
L 195.103972 223.101204 
L 195.103972 222.574518 
L 195.456214 222.574518 
L 195.472934 220.467774 
L 196.46002 220.467774 
L 196.46002 219.941088 
L 196.736007 219.941088 
L 196.736007 219.414402 
L 197.10279 219.414402 
L 197.10279 218.887716 
L 197.367713 218.887716 
L 197.403425 217.834344 
L 197.585449 217.834344 
L 197.585449 217.307658 
L 198.324621 217.307658 
L 198.324621 216.780971 
L 198.501649 216.780971 
L 198.501649 216.254285 
L 198.696143 216.254285 
L 198.696143 215.200913 
L 199.349478 215.200913 
L 199.429579 213.620855 
L 199.550061 213.620855 
L 199.628235 212.567483 
L 200.354398 212.567483 
L 200.354398 212.040797 
L 200.546693 212.040797 
L 200.546693 211.514111 
L 200.771079 211.514111 
L 200.771079 210.987425 
L 201.034716 210.987425 
L 201.034716 210.460738 
L 201.14928 210.460738 
L 201.259407 208.353994 
L 201.290744 208.353994 
L 201.332134 207.300622 
L 201.917503 207.300622 
L 201.961864 206.24725 
L 202.055538 206.24725 
L 202.055538 205.720564 
L 202.292763 205.720564 
L 202.292763 205.193878 
L 202.856515 205.193878 
L 202.92289 203.613819 
L 203.685039 203.613819 
L 203.685039 203.087133 
L 204.09754 203.087133 
L 204.109296 202.033761 
L 204.273046 202.033761 
L 204.273046 201.507075 
L 204.453718 201.507075 
L 204.491315 199.400331 
L 204.90486 199.400331 
L 205.009336 197.293586 
L 205.178892 197.293586 
L 205.178892 196.7669 
L 205.520363 196.7669 
L 205.580951 195.713528 
L 205.733649 195.713528 
L 205.733649 195.186842 
L 205.910475 195.186842 
L 205.910475 194.660156 
L 206.116976 194.660156 
L 206.116976 194.13347 
L 206.507769 194.13347 
L 206.53165 193.080098 
L 206.787497 193.080098 
L 206.787497 192.553412 
L 206.987913 192.553412 
L 206.987913 192.026726 
L 207.126186 192.026726 
L 207.209677 190.973354 
L 207.245711 190.973354 
L 207.245711 190.446667 
L 207.391052 190.446667 
L 207.444193 189.393295 
L 207.685173 189.393295 
L 207.685173 188.866609 
L 207.81108 188.866609 
L 207.81108 188.339923 
L 207.956831 188.339923 
L 207.956831 187.813237 
L 208.106359 187.813237 
L 208.177853 186.233179 
L 208.290405 186.233179 
L 208.290405 185.706493 
L 208.639483 185.706493 
L 208.639483 185.179807 
L 209.023725 185.179807 
L 209.120388 184.126434 
L 209.496016 184.126434 
L 209.548285 182.546376 
L 209.657486 182.546376 
L 209.657486 182.01969 
L 209.823687 182.01969 
L 209.823687 181.493004 
L 209.99894 181.493004 
L 209.99894 180.966318 
L 210.396228 180.966318 
L 210.404967 179.912946 
L 210.603139 179.912946 
L 210.71078 178.859574 
L 210.910832 178.859574 
L 210.910832 178.332888 
L 211.055566 178.332888 
L 211.163072 176.752829 
L 211.21788 176.752829 
L 211.259524 175.699457 
L 211.489882 175.699457 
L 211.556969 173.592713 
L 211.632453 173.592713 
L 211.671596 172.012655 
L 211.950662 172.012655 
L 211.958157 170.959282 
L 212.104892 170.959282 
L 212.150402 169.90591 
L 212.481209 169.90591 
L 212.556184 168.325852 
L 212.865233 168.325852 
L 212.943299 166.745794 
L 213.236805 166.745794 
L 213.274364 165.692422 
L 213.3953 165.692422 
L 213.408176 163.058991 
L 213.512663 163.058991 
L 213.512663 162.005619 
L 213.702161 162.005619 
L 213.811645 160.952247 
L 213.968586 160.952247 
L 214.058711 159.372189 
L 214.38336 159.372189 
L 214.38336 158.318817 
L 214.512409 158.318817 
L 214.512409 156.738758 
L 214.689694 156.738758 
L 214.765551 155.1587 
L 214.824982 155.1587 
L 214.881677 154.105328 
L 215.230872 154.105328 
L 215.254456 153.051956 
L 215.558183 153.051956 
L 215.558183 152.52527 
L 215.831128 152.52527 
L 215.871484 151.471897 
L 216.265701 151.471897 
L 216.265701 150.945211 
L 216.598454 150.945211 
L 216.598454 150.418525 
L 216.755084 150.418525 
L 216.755084 149.891839 
L 216.906934 149.891839 
L 217.004447 148.838467 
L 217.304051 148.838467 
L 217.336005 147.258409 
L 217.469433 147.258409 
L 217.543201 146.205037 
L 217.968409 146.205037 
L 218.046796 144.624978 
L 222.134649 144.624978 
L 222.182795 143.04492 
L 222.425663 143.04492 
L 222.452502 141.464862 
L 222.847258 141.464862 
L 222.847258 140.938176 
L 223.37842 140.938176 
L 223.405906 139.884804 
L 223.638056 139.884804 
L 223.664625 138.831432 
L 223.769229 138.831432 
L 223.830529 137.778059 
L 224.013397 137.778059 
L 224.013397 137.251373 
L 224.148741 137.251373 
L 224.148741 136.724687 
L 224.566774 136.724687 
L 224.566774 136.198001 
L 224.709692 136.198001 
L 224.777601 134.617943 
L 224.907877 134.617943 
L 224.907877 134.091257 
L 225.177956 134.091257 
L 225.177956 133.564571 
L 225.528081 133.564571 
L 225.528081 133.037885 
L 225.685885 133.037885 
L 225.755086 131.984513 
L 226.182753 131.984513 
L 226.182753 131.457826 
L 226.480039 131.457826 
L 226.561956 129.877768 
L 226.69227 129.877768 
L 226.69227 129.351082 
L 226.845883 129.351082 
L 226.896647 127.771024 
L 227.048058 127.771024 
L 227.123588 124.084221 
L 227.279897 124.084221 
L 227.353605 122.504163 
L 227.47077 122.504163 
L 227.47077 121.977477 
L 227.718958 121.977477 
L 227.718958 121.450791 
L 227.849171 121.450791 
L 227.849171 120.397419 
L 227.985196 120.397419 
L 228.081173 117.763988 
L 228.256262 117.763988 
L 228.364611 116.18393 
L 228.508295 116.18393 
L 228.565824 114.603872 
L 228.645242 114.603872 
L 228.720098 111.970441 
L 228.890431 111.970441 
L 228.901211 110.917069 
L 229.251592 110.917069 
L 229.251592 110.390383 
L 229.370888 110.390383 
L 229.370888 109.863697 
L 229.723234 109.863697 
L 229.723234 109.337011 
L 229.868357 109.337011 
L 229.949016 108.283639 
L 230.080622 108.283639 
L 230.080622 107.230267 
L 230.203173 107.230267 
L 230.203173 106.703581 
L 232.385598 106.703581 
L 232.385598 106.176895 
L 233.067846 106.176895 
L 233.067846 105.650209 
L 233.236751 105.650209 
L 233.236751 105.123522 
L 233.742892 105.123522 
L 233.830756 104.07015 
L 233.874451 104.07015 
L 233.874451 103.543464 
L 235.283805 103.543464 
L 235.283805 103.016778 
L 235.4381 103.016778 
L 235.4381 102.490092 
L 235.690342 102.490092 
L 235.787679 101.43672 
L 235.874084 101.43672 
L 235.935199 100.383348 
L 236.047002 100.383348 
L 236.140626 99.329976 
L 236.245666 99.329976 
L 236.340947 97.749917 
L 236.455337 97.749917 
L 236.455337 97.223231 
L 236.768203 97.223231 
L 236.871576 94.063115 
L 236.99955 94.063115 
L 237.105345 92.483056 
L 239.664538 92.483056 
L 239.664538 91.95637 
L 240.386379 91.95637 
L 240.386379 91.429684 
L 240.66181 91.429684 
L 240.66181 90.902998 
L 241.21937 90.902998 
L 241.21937 90.376312 
L 241.559256 90.376312 
L 241.629562 88.796254 
L 241.714101 88.796254 
L 241.719269 87.742882 
L 241.888155 87.742882 
L 241.888155 87.216196 
L 242.095215 87.216196 
L 242.197212 85.636137 
L 244.296738 85.636137 
L 244.296738 85.109451 
L 245.163649 85.109451 
L 245.163649 84.582765 
L 245.550924 84.582765 
L 245.550924 84.056079 
L 248.338803 84.056079 
L 248.338803 83.529393 
L 248.463578 83.529393 
L 248.463578 83.002707 
L 248.921936 83.002707 
L 248.921936 82.476021 
L 249.176494 82.476021 
L 249.176494 81.949335 
L 249.364287 81.949335 
L 249.407625 80.895963 
L 251.471791 80.895963 
L 251.540374 79.842591 
L 251.692657 79.842591 
L 251.692657 78.789218 
L 252.142582 78.789218 
L 252.142582 78.262532 
L 256.477653 78.262532 
L 256.533491 77.20916 
L 258.211417 77.20916 
L 258.211417 76.682474 
L 259.890736 76.682474 
L 259.890736 76.155788 
L 260.016154 76.155788 
L 260.016154 75.629102 
L 261.422454 75.629102 
L 261.422454 75.102416 
L 261.53736 75.102416 
L 261.53736 74.57573 
L 263.950749 74.57573 
L 264.025662 73.522358 
L 265.437161 73.522358 
L 265.437161 72.995672 
L 280.644449 72.995672 
L 280.644449 72.468985 
L 338.688 72.468985 
L 338.688 72.468985 
" style="fill:none;stroke:#0000ff;stroke-linecap:square;stroke-width:1.5;"/>
   </g>
   <g id="line2d_40">
    <defs>
     <path d="M 0 -6 
L -1.347084 -1.854102 
L -5.706339 -1.854102 
L -2.179628 0.708204 
L -3.526712 4.854102 
L -0 2.291796 
L 3.526712 4.854102 
L 2.179628 0.708204 
L 5.706339 -1.854102 
L 1.347084 -1.854102 
z
" id="m08bf5792f0" style="stroke:#0000ff;stroke-linejoin:bevel;stroke-width:1.5;"/>
    </defs>
    <g>
     <use style="fill-opacity:0;stroke:#0000ff;stroke-linejoin:bevel;stroke-width:1.5;" x="186.548211" xlink:href="#m08bf5792f0" y="238.375101"/>
     <use style="fill-opacity:0;stroke:#0000ff;stroke-linejoin:bevel;stroke-width:1.5;" x="232.385598" xlink:href="#m08bf5792f0" y="106.703581"/>
     <use style="fill-opacity:0;stroke:#0000ff;stroke-linejoin:bevel;stroke-width:1.5;" x="280.644449" xlink:href="#m08bf5792f0" y="72.468985"/>
     <use style="fill-opacity:0;stroke:#0000ff;stroke-linejoin:bevel;stroke-width:1.5;" x="280.644449" xlink:href="#m08bf5792f0" y="72.468985"/>
     <use style="fill-opacity:0;stroke:#0000ff;stroke-linejoin:bevel;stroke-width:1.5;" x="338.688" xlink:href="#m08bf5792f0" y="72.468985"/>
    </g>
   </g>
   <g id="line2d_41">
    <path style="fill:none;stroke:#0000ff;stroke-linecap:square;stroke-width:1.5;"/>
    <g/>
   </g>
   <g id="line2d_42">
    <path clip-path="url(#pbf47e0c659)" d="M 218.244022 144.624978 
" style="fill:none;stroke:#0000ff;stroke-linecap:square;stroke-width:1.5;"/>
    <defs>
     <path d="M -12 12 
L 12 -12 
M -12 -12 
L 12 12 
" id="mcf25b66788" style="stroke:#0000ff;"/>
    </defs>
    <g clip-path="url(#pbf47e0c659)">
     <use style="fill:#0000ff;stroke:#0000ff;" x="218.244022" xlink:href="#mcf25b66788" y="144.624978"/>
    </g>
   </g>
   <g id="line2d_43">
    <defs>
     <path d="M 0 1.5 
C 0.397805 1.5 0.77937 1.341951 1.06066 1.06066 
C 1.341951 0.77937 1.5 0.397805 1.5 0 
C 1.5 -0.397805 1.341951 -0.77937 1.06066 -1.06066 
C 0.77937 -1.341951 0.397805 -1.5 0 -1.5 
C -0.397805 -1.5 -0.77937 -1.341951 -1.06066 -1.06066 
C -1.341951 -0.77937 -1.5 -0.397805 -1.5 0 
C -1.5 0.397805 -1.341951 0.77937 -1.06066 1.06066 
C -0.77937 1.341951 -0.397805 1.5 0 1.5 
z
" id="m19921908b5" style="stroke:#000000;"/>
    </defs>
    <g>
     <use style="stroke:#000000;" x="278.844597" xlink:href="#m19921908b5" y="198.873645"/>
     <use style="stroke:#000000;" x="278.844597" xlink:href="#m19921908b5" y="198.873645"/>
    </g>
   </g>
   <g id="line2d_44">
    <path d="M 118.942633 298.944 
L 118.942633 297.890628 
L 124.216444 297.890628 
L 124.216444 295.783884 
L 141.407239 295.783884 
L 141.407239 293.677139 
L 155.847985 293.677139 
L 155.847985 292.623767 
L 156.514691 292.623767 
L 156.514691 292.097081 
L 156.640261 292.097081 
L 156.658127 289.990337 
L 157.61918 289.990337 
L 157.61918 289.463651 
L 158.047603 289.463651 
L 158.047603 286.83022 
L 158.821615 286.83022 
L 158.821615 284.19679 
L 159.46166 284.19679 
L 159.46166 282.090045 
L 160.263949 282.090045 
L 160.350856 277.876557 
L 160.384537 277.876557 
L 160.384537 276.823185 
L 160.844678 276.823185 
L 160.844678 273.136382 
L 161.02168 273.136382 
L 161.02168 272.609696 
L 161.201492 272.609696 
L 161.201492 271.029638 
L 161.356752 271.029638 
L 161.356752 268.396207 
L 162.606551 268.396207 
L 162.606551 266.816149 
L 162.808504 266.816149 
L 162.808504 266.289463 
L 163.172784 266.289463 
L 163.172784 264.709405 
L 163.384517 264.709405 
L 163.384517 263.656033 
L 163.946031 263.656033 
L 163.946031 263.129347 
L 164.078769 263.129347 
L 164.105972 259.442544 
L 164.943704 259.442544 
L 164.943704 258.389172 
L 165.204517 258.389172 
L 165.204517 257.862486 
L 165.443514 257.862486 
L 165.443514 257.3358 
L 165.661531 257.3358 
L 165.661531 256.809114 
L 169.86976 256.809114 
L 169.86976 256.282427 
L 171.501435 256.282427 
L 171.501435 255.755741 
L 173.695248 255.755741 
L 173.695248 255.229055 
L 174.479513 255.229055 
L 174.479513 254.702369 
L 175.283289 254.702369 
L 175.283289 254.175683 
L 176.016376 254.175683 
L 176.016376 253.648997 
L 176.642473 253.648997 
L 176.642473 253.122311 
L 177.114767 253.122311 
L 177.114767 252.595625 
L 177.786773 252.595625 
L 177.852218 251.542253 
L 178.057564 251.542253 
L 178.135904 250.488881 
L 179.476119 250.488881 
L 179.476119 249.962195 
L 179.936452 249.962195 
L 179.936452 249.435508 
L 181.535531 249.435508 
L 181.535531 248.908822 
L 181.949376 248.908822 
L 181.949376 248.382136 
L 182.633679 248.382136 
L 182.633679 247.85545 
L 182.880217 247.85545 
L 182.985758 246.802078 
L 183.235184 246.802078 
L 183.235184 246.275392 
L 183.960259 246.275392 
L 183.960259 245.748706 
L 185.712512 245.748706 
L 185.712512 245.22202 
L 186.397444 245.22202 
L 186.397444 244.695334 
L 186.547139 244.695334 
L 186.547139 244.168648 
L 187.370255 244.168648 
L 187.370255 243.641962 
L 187.522003 243.641962 
L 187.522003 243.115275 
L 188.235289 243.115275 
L 188.299415 242.061903 
L 188.352673 242.061903 
L 188.365238 241.008531 
L 188.504772 241.008531 
L 188.504772 240.481845 
L 189.62848 240.481845 
L 189.62848 239.955159 
L 189.897784 239.955159 
L 189.976361 238.901787 
L 190.790399 238.901787 
L 190.790399 238.375101 
L 191.471373 238.375101 
L 191.480264 237.321729 
L 192.230014 237.321729 
L 192.230014 236.795043 
L 192.852763 236.795043 
L 192.852763 236.268356 
L 193.104898 236.268356 
L 193.104898 235.74167 
L 193.834494 235.74167 
L 193.850021 234.688298 
L 194.11466 234.688298 
L 194.11466 234.161612 
L 194.365758 234.161612 
L 194.365758 233.634926 
L 194.55377 233.634926 
L 194.55377 233.10824 
L 194.998614 233.10824 
L 194.998614 232.581554 
L 195.311499 232.581554 
L 195.311499 232.054868 
L 195.521715 232.054868 
L 195.521715 231.528182 
L 196.261493 231.528182 
L 196.261493 231.001496 
L 196.423538 231.001496 
L 196.423538 230.47481 
L 196.994152 230.47481 
L 197.048262 228.894751 
L 197.241563 228.894751 
L 197.241563 228.368065 
L 198.548052 228.368065 
L 198.548052 227.841379 
L 199.127807 227.841379 
L 199.153329 226.788007 
L 200.763013 226.788007 
L 200.763013 226.261321 
L 200.974338 226.261321 
L 200.974338 225.734635 
L 201.993734 225.734635 
L 201.993734 225.207949 
L 205.920717 225.207949 
L 205.920717 224.681263 
L 213.725196 224.681263 
L 213.725196 223.627891 
L 214.257946 223.627891 
L 214.257946 223.101204 
L 221.83331 223.101204 
L 221.83331 222.574518 
L 222.089025 222.574518 
L 222.089025 222.047832 
L 222.39137 222.047832 
L 222.39137 221.521146 
L 222.767218 221.521146 
L 222.767218 220.99446 
L 223.695868 220.99446 
L 223.695868 219.941088 
L 224.034903 219.941088 
L 224.034903 218.887716 
L 228.186477 218.887716 
L 228.186477 218.36103 
L 228.45688 218.36103 
L 228.45688 217.834344 
L 232.883377 217.834344 
L 232.944584 216.780971 
L 233.026408 216.780971 
L 233.026408 216.254285 
L 233.303049 216.254285 
L 233.303049 215.727599 
L 233.466719 215.727599 
L 233.466719 215.200913 
L 236.411269 215.200913 
L 236.411269 214.674227 
L 237.364031 214.674227 
L 237.364031 214.147541 
L 239.244726 214.147541 
L 239.247286 213.094169 
L 240.057885 213.094169 
L 240.057885 212.040797 
L 244.448061 212.040797 
L 244.448061 211.514111 
L 245.585421 211.514111 
L 245.585421 210.987425 
L 245.723198 210.987425 
L 245.723198 210.460738 
L 250.436168 210.460738 
L 250.436168 209.934052 
L 251.761142 209.934052 
L 251.761142 209.407366 
L 251.912781 209.407366 
L 251.912781 208.88068 
L 252.901829 208.88068 
L 252.901829 208.353994 
L 254.142655 208.353994 
L 254.142655 207.827308 
L 254.493373 207.827308 
L 254.493373 207.300622 
L 257.197795 207.300622 
L 257.197795 206.773936 
L 258.908349 206.773936 
L 258.908349 206.24725 
L 260.050964 206.24725 
L 260.050964 205.720564 
L 262.057984 205.720564 
L 262.057984 205.193878 
L 262.831893 205.193878 
L 262.831893 204.667192 
L 263.495374 204.667192 
L 263.495374 204.140506 
L 263.6244 204.140506 
L 263.6244 203.613819 
L 265.462678 203.613819 
L 265.462678 203.087133 
L 266.479877 203.087133 
L 266.479877 202.560447 
L 266.915774 202.560447 
L 266.915774 202.033761 
L 268.152068 202.033761 
L 268.152068 201.507075 
L 268.546866 201.507075 
L 268.546866 200.980389 
L 269.027481 200.980389 
L 269.027481 200.453703 
L 270.743745 200.453703 
L 270.743745 199.400331 
L 278.844597 199.400331 
L 278.844597 198.873645 
L 338.688 198.873645 
L 338.688 198.873645 
" style="fill:none;stroke:#000000;stroke-linecap:square;stroke-width:1.5;"/>
   </g>
   <g id="line2d_45">
    <defs>
     <path d="M 0 6 
C 1.591219 6 3.117479 5.367802 4.242641 4.242641 
C 5.367802 3.117479 6 1.591219 6 0 
C 6 -1.591219 5.367802 -3.117479 4.242641 -4.242641 
C 3.117479 -5.367802 1.591219 -6 0 -6 
C -1.591219 -6 -3.117479 -5.367802 -4.242641 -4.242641 
C -5.367802 -3.117479 -6 -1.591219 -6 0 
C -6 1.591219 -5.367802 3.117479 -4.242641 4.242641 
C -3.117479 5.367802 -1.591219 6 0 6 
z
" id="m381df7ebeb" style="stroke:#000000;stroke-width:1.5;"/>
    </defs>
    <g>
     <use style="fill-opacity:0;stroke:#000000;stroke-width:1.5;" x="189.976361" xlink:href="#m381df7ebeb" y="238.901787"/>
     <use style="fill-opacity:0;stroke:#000000;stroke-width:1.5;" x="240.057885" xlink:href="#m381df7ebeb" y="212.040797"/>
     <use style="fill-opacity:0;stroke:#000000;stroke-width:1.5;" x="278.844597" xlink:href="#m381df7ebeb" y="198.873645"/>
     <use style="fill-opacity:0;stroke:#000000;stroke-width:1.5;" x="278.844597" xlink:href="#m381df7ebeb" y="198.873645"/>
     <use style="fill-opacity:0;stroke:#000000;stroke-width:1.5;" x="338.688" xlink:href="#m381df7ebeb" y="198.873645"/>
    </g>
   </g>
   <g id="line2d_46">
    <path style="fill:none;stroke:#000000;stroke-linecap:square;stroke-width:1.5;"/>
    <g/>
   </g>
   <g id="line2d_47">
    <path clip-path="url(#pbf47e0c659)" d="M 206.156034 224.681263 
" style="fill:none;stroke:#000000;stroke-linecap:square;stroke-width:1.5;"/>
    <defs>
     <path d="M -12 12 
L 12 -12 
M -12 -12 
L 12 12 
" id="m0f171b910c" style="stroke:#000000;"/>
    </defs>
    <g clip-path="url(#pbf47e0c659)">
     <use style="stroke:#000000;" x="206.156034" xlink:href="#m0f171b910c" y="224.681263"/>
    </g>
   </g>
   <g id="line2d_48">
    <defs>
     <path d="M 0 1.5 
C 0.397805 1.5 0.77937 1.341951 1.06066 1.06066 
C 1.341951 0.77937 1.5 0.397805 1.5 0 
C 1.5 -0.397805 1.341951 -0.77937 1.06066 -1.06066 
C 0.77937 -1.341951 0.397805 -1.5 0 -1.5 
C -0.397805 -1.5 -0.77937 -1.341951 -1.06066 -1.06066 
C -1.341951 -0.77937 -1.5 -0.397805 -1.5 0 
C -1.5 0.397805 -1.341951 0.77937 -1.06066 1.06066 
C -0.77937 1.341951 -0.397805 1.5 0 1.5 
z
" id="mf836c5ee82" style="stroke:#ff0000;"/>
    </defs>
    <g>
     <use style="fill:#ff0000;stroke:#ff0000;" x="241.232822" xlink:href="#mf836c5ee82" y="235.74167"/>
     <use style="fill:#ff0000;stroke:#ff0000;" x="241.232822" xlink:href="#mf836c5ee82" y="235.74167"/>
    </g>
   </g>
   <g id="line2d_49">
    <path d="M 157.959442 298.944 
L 157.959442 296.837256 
L 161.571372 296.837256 
L 161.571372 296.31057 
L 163.074187 296.31057 
L 163.074187 295.783884 
L 163.236166 295.783884 
L 163.236166 295.257197 
L 163.400698 295.257197 
L 163.400698 294.730511 
L 164.018381 294.730511 
L 164.102088 291.043709 
L 164.191193 291.043709 
L 164.191193 290.517023 
L 164.354654 290.517023 
L 164.354654 289.990337 
L 164.467222 289.990337 
L 164.467222 289.463651 
L 164.654488 289.463651 
L 164.654488 288.936964 
L 165.023095 288.936964 
L 165.059898 287.883592 
L 165.171671 287.883592 
L 165.204517 285.776848 
L 165.371436 285.776848 
L 165.371436 285.250162 
L 165.524248 285.250162 
L 165.524248 284.723476 
L 165.697012 284.723476 
L 165.734191 282.090045 
L 165.84701 282.090045 
L 165.917153 280.509987 
L 166.051389 280.509987 
L 166.162181 278.929929 
L 166.193215 278.929929 
L 166.275702 274.71644 
L 166.390193 274.71644 
L 166.390193 274.189754 
L 166.72087 274.189754 
L 166.819194 270.502952 
L 166.844104 270.502952 
L 166.915315 269.449579 
L 167.23465 269.449579 
L 167.294587 266.816149 
L 167.442734 266.816149 
L 167.506754 265.762777 
L 167.898523 265.762777 
L 167.898523 265.236091 
L 168.318321 265.236091 
L 168.373132 264.182719 
L 168.631161 264.182719 
L 168.670062 261.022602 
L 168.756528 261.022602 
L 168.786245 259.96923 
L 168.992856 259.96923 
L 169.101084 258.389172 
L 170.09983 258.389172 
L 170.09983 257.862486 
L 170.230143 257.862486 
L 170.230143 257.3358 
L 171.134225 257.3358 
L 171.134225 256.809114 
L 173.33872 256.809114 
L 173.33872 256.282427 
L 173.828062 256.282427 
L 173.828062 255.755741 
L 175.568362 255.755741 
L 175.59551 254.702369 
L 176.02814 254.702369 
L 176.02814 254.175683 
L 176.784759 254.175683 
L 176.872751 252.595625 
L 177.094497 252.595625 
L 177.16626 251.542253 
L 179.120253 251.542253 
L 179.120253 251.015567 
L 182.018332 251.015567 
L 182.018332 250.488881 
L 182.196765 250.488881 
L 182.256526 249.435508 
L 182.390412 249.435508 
L 182.390412 248.908822 
L 182.592697 248.908822 
L 182.592697 248.382136 
L 182.976549 248.382136 
L 182.976549 247.85545 
L 183.209233 247.85545 
L 183.209233 247.328764 
L 183.347625 247.328764 
L 183.386873 246.275392 
L 183.891091 246.275392 
L 183.891091 245.748706 
L 186.905346 245.748706 
L 186.905346 245.22202 
L 187.689525 245.22202 
L 187.689525 244.695334 
L 188.067057 244.695334 
L 188.067057 244.168648 
L 190.163863 244.168648 
L 190.163863 243.641962 
L 190.371775 243.641962 
L 190.371775 243.115275 
L 190.678222 243.115275 
L 190.745362 242.061903 
L 191.128026 242.061903 
L 191.128026 241.535217 
L 192.77453 241.535217 
L 192.77453 241.008531 
L 193.119248 241.008531 
L 193.119248 240.481845 
L 193.895814 240.481845 
L 193.895814 239.955159 
L 204.543356 239.955159 
L 204.543356 239.428473 
L 206.070131 239.428473 
L 206.070131 238.901787 
L 212.806453 238.901787 
L 212.806453 238.375101 
L 221.949811 238.375101 
L 221.949811 237.848415 
L 225.286455 237.848415 
L 225.286455 237.321729 
L 227.870897 237.321729 
L 227.870897 236.795043 
L 234.206327 236.795043 
L 234.206327 236.268356 
L 241.232822 236.268356 
L 241.232822 235.74167 
L 338.688 235.74167 
L 338.688 235.74167 
" style="fill:none;stroke:#ff0000;stroke-linecap:square;stroke-width:1.5;"/>
   </g>
   <g id="line2d_50">
    <defs>
     <path d="M -6 6 
L 6 6 
L 6 -6 
L -6 -6 
z
" id="mf3183e7ce6" style="stroke:#ff0000;stroke-linejoin:miter;stroke-width:1.5;"/>
    </defs>
    <g>
     <use style="fill-opacity:0;stroke:#ff0000;stroke-linejoin:miter;stroke-width:1.5;" x="170.230143" xlink:href="#mf3183e7ce6" y="257.862486"/>
     <use style="fill-opacity:0;stroke:#ff0000;stroke-linejoin:miter;stroke-width:1.5;" x="241.232822" xlink:href="#mf3183e7ce6" y="236.268356"/>
     <use style="fill-opacity:0;stroke:#ff0000;stroke-linejoin:miter;stroke-width:1.5;" x="241.232822" xlink:href="#mf3183e7ce6" y="235.74167"/>
     <use style="fill-opacity:0;stroke:#ff0000;stroke-linejoin:miter;stroke-width:1.5;" x="338.688" xlink:href="#mf3183e7ce6" y="235.74167"/>
    </g>
   </g>
   <g id="line2d_51">
    <path style="fill:none;stroke:#ff0000;stroke-linecap:square;stroke-width:1.5;"/>
    <g/>
   </g>
   <g id="line2d_52">
    <path clip-path="url(#pbf47e0c659)" d="M 194.068045 239.955159 
" style="fill:none;stroke:#ff0000;stroke-linecap:square;stroke-width:1.5;"/>
    <defs>
     <path d="M -12 12 
L 12 -12 
M -12 -12 
L 12 12 
" id="mb405d51d00" style="stroke:#ff0000;"/>
    </defs>
    <g clip-path="url(#pbf47e0c659)">
     <use style="fill:#ff0000;stroke:#ff0000;" x="194.068045" xlink:href="#mb405d51d00" y="239.955159"/>
    </g>
   </g>
   <g id="line2d_53">
    <defs>
     <path d="M 0 1.5 
C 0.397805 1.5 0.77937 1.341951 1.06066 1.06066 
C 1.341951 0.77937 1.5 0.397805 1.5 0 
C 1.5 -0.397805 1.341951 -0.77937 1.06066 -1.06066 
C 0.77937 -1.341951 0.397805 -1.5 0 -1.5 
C -0.397805 -1.5 -0.77937 -1.341951 -1.06066 -1.06066 
C -1.341951 -0.77937 -1.5 -0.397805 -1.5 0 
C -1.5 0.397805 -1.341951 0.77937 -1.06066 1.06066 
C -0.77937 1.341951 -0.397805 1.5 0 1.5 
z
" id="m65796c185e" style="stroke:#bf00bf;"/>
    </defs>
    <g>
     <use style="fill:#bf00bf;stroke:#bf00bf;" x="218.166388" xlink:href="#m65796c185e" y="246.275392"/>
     <use style="fill:#bf00bf;stroke:#bf00bf;" x="218.166388" xlink:href="#m65796c185e" y="246.275392"/>
    </g>
   </g>
   <g id="line2d_54">
    <path d="M 162.688876 298.944 
L 162.688876 297.890628 
L 164.021308 297.890628 
L 164.102088 296.31057 
L 164.282728 296.31057 
L 164.302897 294.730511 
L 164.841627 294.730511 
L 164.841627 292.623767 
L 164.953879 292.623767 
L 164.953879 292.097081 
L 165.229111 292.097081 
L 165.229111 289.990337 
L 165.413818 289.990337 
L 165.516191 285.776848 
L 165.543926 285.776848 
L 165.613515 283.143418 
L 165.748333 283.143418 
L 165.797741 281.563359 
L 166.090419 281.563359 
L 166.090419 281.036673 
L 166.429323 281.036673 
L 166.429323 279.983301 
L 166.632909 279.983301 
L 166.735904 278.403243 
L 166.771768 278.403243 
L 166.870635 276.823185 
L 167.114154 276.823185 
L 167.207855 275.243126 
L 167.283264 275.243126 
L 167.380086 272.08301 
L 167.421876 272.08301 
L 167.421876 270.502952 
L 167.549836 270.502952 
L 167.609496 269.449579 
L 167.86334 269.449579 
L 167.86334 268.922893 
L 168.002094 268.922893 
L 168.091155 266.816149 
L 168.482242 266.816149 
L 168.546328 264.709405 
L 168.617676 264.709405 
L 168.702164 263.129347 
L 168.75281 263.129347 
L 168.75281 262.075974 
L 169.352951 262.075974 
L 169.451116 260.495916 
L 169.491796 260.495916 
L 169.491796 259.96923 
L 169.894855 259.96923 
L 169.901819 258.389172 
L 171.143305 258.389172 
L 171.240947 257.3358 
L 171.486182 257.3358 
L 171.486182 256.809114 
L 174.371536 256.809114 
L 174.371536 256.282427 
L 174.903811 256.282427 
L 174.903811 255.755741 
L 175.350156 255.755741 
L 175.423364 254.702369 
L 176.114661 254.702369 
L 176.114661 254.175683 
L 176.582764 254.175683 
L 176.679334 253.122311 
L 176.701507 253.122311 
L 176.701507 252.595625 
L 177.039093 252.595625 
L 177.092192 251.542253 
L 180.835963 251.542253 
L 180.835963 251.015567 
L 181.349082 251.015567 
L 181.350888 249.962195 
L 181.499403 249.962195 
L 181.499403 249.435508 
L 181.670437 249.435508 
L 181.670437 248.908822 
L 193.505379 248.908822 
L 193.505379 248.382136 
L 193.755411 248.382136 
L 193.755411 247.85545 
L 200.765979 247.85545 
L 200.765979 247.328764 
L 213.147859 247.328764 
L 213.147859 246.802078 
L 218.166388 246.802078 
L 218.166388 246.275392 
L 338.688 246.275392 
L 338.688 246.275392 
" style="fill:none;stroke:#bf00bf;stroke-linecap:square;stroke-width:1.5;"/>
   </g>
   <g id="line2d_55">
    <defs>
     <path d="M -0 8.485281 
L 8.485281 0 
L 0 -8.485281 
L -8.485281 -0 
z
" id="m2aafc671e2" style="stroke:#bf00bf;stroke-linejoin:miter;stroke-width:1.5;"/>
    </defs>
    <g>
     <use style="fill-opacity:0;stroke:#bf00bf;stroke-linejoin:miter;stroke-width:1.5;" x="200.765979" xlink:href="#m2aafc671e2" y="247.328764"/>
     <use style="fill-opacity:0;stroke:#bf00bf;stroke-linejoin:miter;stroke-width:1.5;" x="218.166388" xlink:href="#m2aafc671e2" y="246.275392"/>
     <use style="fill-opacity:0;stroke:#bf00bf;stroke-linejoin:miter;stroke-width:1.5;" x="218.166388" xlink:href="#m2aafc671e2" y="246.275392"/>
     <use style="fill-opacity:0;stroke:#bf00bf;stroke-linejoin:miter;stroke-width:1.5;" x="338.688" xlink:href="#m2aafc671e2" y="246.275392"/>
    </g>
   </g>
   <g id="line2d_56">
    <path style="fill:none;stroke:#bf00bf;stroke-linecap:square;stroke-width:1.5;"/>
    <g/>
   </g>
   <g id="line2d_57">
    <path clip-path="url(#pbf47e0c659)" d="M 181.980057 248.908822 
" style="fill:none;stroke:#bf00bf;stroke-linecap:square;stroke-width:1.5;"/>
    <defs>
     <path d="M -12 12 
L 12 -12 
M -12 -12 
L 12 12 
" id="m1b7989a3e6" style="stroke:#bf00bf;"/>
    </defs>
    <g clip-path="url(#pbf47e0c659)">
     <use style="fill:#bf00bf;stroke:#bf00bf;" x="181.980057" xlink:href="#m1b7989a3e6" y="248.908822"/>
    </g>
   </g>
   <g id="line2d_58">
    <path d="M 338.688 246.275392 
L 369.60768 293.571802 
" style="fill:none;stroke:#bf00bf;stroke-linecap:square;stroke-width:1.5;"/>
    <g>
     <use style="fill-opacity:0;stroke:#bf00bf;stroke-linejoin:miter;stroke-width:1.5;" x="338.688" xlink:href="#m2aafc671e2" y="246.275392"/>
     <use style="fill-opacity:0;stroke:#bf00bf;stroke-linejoin:miter;stroke-width:1.5;" x="369.60768" xlink:href="#m2aafc671e2" y="293.571802"/>
    </g>
   </g>
   <g id="line2d_59">
    <path d="M 338.688 235.74167 
L 369.60768 241.998701 
" style="fill:none;stroke:#ff0000;stroke-linecap:square;stroke-width:1.5;"/>
    <g>
     <use style="fill-opacity:0;stroke:#ff0000;stroke-linejoin:miter;stroke-width:1.5;" x="338.688" xlink:href="#mf3183e7ce6" y="235.74167"/>
     <use style="fill-opacity:0;stroke:#ff0000;stroke-linejoin:miter;stroke-width:1.5;" x="369.60768" xlink:href="#mf3183e7ce6" y="241.998701"/>
    </g>
   </g>
   <g id="line2d_60">
    <path d="M 338.688 198.873645 
L 369.60768 190.4256 
" style="fill:none;stroke:#000000;stroke-linecap:square;stroke-width:1.5;"/>
    <g>
     <use style="fill-opacity:0;stroke:#000000;stroke-width:1.5;" x="338.688" xlink:href="#m381df7ebeb" y="198.873645"/>
     <use style="fill-opacity:0;stroke:#000000;stroke-width:1.5;" x="369.60768" xlink:href="#m381df7ebeb" y="190.4256"/>
    </g>
   </g>
   <g id="line2d_61">
    <path d="M 338.688 72.468985 
L 369.60768 138.852499 
" style="fill:none;stroke:#0000ff;stroke-linecap:square;stroke-width:1.5;"/>
    <g>
     <use style="fill-opacity:0;stroke:#0000ff;stroke-linejoin:bevel;stroke-width:1.5;" x="338.688" xlink:href="#m08bf5792f0" y="72.468985"/>
     <use style="fill-opacity:0;stroke:#0000ff;stroke-linejoin:bevel;stroke-width:1.5;" x="369.60768" xlink:href="#m08bf5792f0" y="138.852499"/>
    </g>
   </g>
   <g id="line2d_62">
    <path d="M 338.688 30.334099 
L 369.60768 87.279398 
" style="fill:none;stroke:#008000;stroke-linecap:square;stroke-width:1.5;"/>
    <g>
     <use style="fill-opacity:0;stroke:#008000;stroke-linejoin:miter;stroke-width:1.5;" x="338.688" xlink:href="#m24c43db31b" y="30.334099"/>
     <use style="fill-opacity:0;stroke:#008000;stroke-linejoin:miter;stroke-width:1.5;" x="369.60768" xlink:href="#m24c43db31b" y="87.279398"/>
    </g>
   </g>
   <g id="line2d_63">
    <path d="M 338.688 30.334099 
L 369.60768 35.706297 
" style="fill:none;stroke:#00bfbf;stroke-linecap:square;stroke-width:1.5;"/>
    <g>
     <use style="fill-opacity:0;stroke:#00bfbf;stroke-width:1.5;" x="338.688" xlink:href="#m26931d473d" y="30.334099"/>
     <use style="fill-opacity:0;stroke:#00bfbf;stroke-width:1.5;" x="369.60768" xlink:href="#m26931d473d" y="35.706297"/>
    </g>
   </g>
   <g id="line2d_64">
    <path d="M 338.688 298.944 
L 338.688 30.334099 
" style="fill:none;stroke:#000000;stroke-linecap:square;stroke-width:1.5;"/>
   </g>
   <g id="patch_3">
    <path d="M 57.6 298.944 
L 57.6 27.648 
" style="fill:none;stroke:#000000;stroke-linecap:square;stroke-linejoin:miter;stroke-width:0.8;"/>
   </g>
   <g id="patch_4">
    <path d="M 338.688 298.944 
L 338.688 27.648 
" style="fill:none;stroke:#000000;stroke-linecap:square;stroke-linejoin:miter;stroke-width:0.8;"/>
   </g>
   <g id="patch_5">
    <path d="M 57.6 298.944 
L 338.688 298.944 
" style="fill:none;stroke:#000000;stroke-linecap:square;stroke-linejoin:miter;stroke-width:0.8;"/>
   </g>
   <g id="patch_6">
    <path d="M 57.6 27.648 
L 338.688 27.648 
" style="fill:none;stroke:#000000;stroke-linecap:square;stroke-linejoin:miter;stroke-width:0.8;"/>
   </g>
   <g id="text_13">
    <!-- 40-D -->
    <g transform="translate(375.22944 298.262739)scale(0.17 -0.17)">
     <defs>
      <path d="M 1259 4147 
L 1259 519 
L 2022 519 
Q 2988 519 3436 956 
Q 3884 1394 3884 2338 
Q 3884 3275 3436 3711 
Q 2988 4147 2022 4147 
L 1259 4147 
z
M 628 4666 
L 1925 4666 
Q 3281 4666 3915 4102 
Q 4550 3538 4550 2338 
Q 4550 1131 3912 565 
Q 3275 0 1925 0 
L 628 0 
L 628 4666 
z
" id="DejaVuSans-44" transform="scale(0.015625)"/>
     </defs>
     <use xlink:href="#DejaVuSans-34"/>
     <use x="63.623047" xlink:href="#DejaVuSans-30"/>
     <use x="127.246094" xlink:href="#DejaVuSans-2d"/>
     <use x="163.330078" xlink:href="#DejaVuSans-44"/>
    </g>
   </g>
   <g id="text_14">
    <!-- 20-D -->
    <g transform="translate(375.22944 246.689638)scale(0.17 -0.17)">
     <use xlink:href="#DejaVuSans-32"/>
     <use x="63.623047" xlink:href="#DejaVuSans-30"/>
     <use x="127.246094" xlink:href="#DejaVuSans-2d"/>
     <use x="163.330078" xlink:href="#DejaVuSans-44"/>
    </g>
   </g>
   <g id="text_15">
    <!-- 10-D -->
    <g transform="translate(375.22944 195.116537)scale(0.17 -0.17)">
     <use xlink:href="#DejaVuSans-31"/>
     <use x="63.623047" xlink:href="#DejaVuSans-30"/>
     <use x="127.246094" xlink:href="#DejaVuSans-2d"/>
     <use x="163.330078" xlink:href="#DejaVuSans-44"/>
    </g>
   </g>
   <g id="text_16">
    <!-- 5-D -->
    <g transform="translate(375.22944 143.543437)scale(0.17 -0.17)">
     <defs>
      <path d="M 691 4666 
L 3169 4666 
L 3169 4134 
L 1269 4134 
L 1269 2991 
Q 1406 3038 1543 3061 
Q 1681 3084 1819 3084 
Q 2600 3084 3056 2656 
Q 3513 2228 3513 1497 
Q 3513 744 3044 326 
Q 2575 -91 1722 -91 
Q 1428 -91 1123 -41 
Q 819 9 494 109 
L 494 744 
Q 775 591 1075 516 
Q 1375 441 1709 441 
Q 2250 441 2565 725 
Q 2881 1009 2881 1497 
Q 2881 1984 2565 2268 
Q 2250 2553 1709 2553 
Q 1456 2553 1204 2497 
Q 953 2441 691 2322 
L 691 4666 
z
" id="DejaVuSans-35" transform="scale(0.015625)"/>
     </defs>
     <use xlink:href="#DejaVuSans-35"/>
     <use x="63.623047" xlink:href="#DejaVuSans-2d"/>
     <use x="99.707031" xlink:href="#DejaVuSans-44"/>
    </g>
   </g>
   <g id="text_17">
    <!-- 3-D -->
    <g transform="translate(375.22944 91.970336)scale(0.17 -0.17)">
     <defs>
      <path d="M 2597 2516 
Q 3050 2419 3304 2112 
Q 3559 1806 3559 1356 
Q 3559 666 3084 287 
Q 2609 -91 1734 -91 
Q 1441 -91 1130 -33 
Q 819 25 488 141 
L 488 750 
Q 750 597 1062 519 
Q 1375 441 1716 441 
Q 2309 441 2620 675 
Q 2931 909 2931 1356 
Q 2931 1769 2642 2001 
Q 2353 2234 1838 2234 
L 1294 2234 
L 1294 2753 
L 1863 2753 
Q 2328 2753 2575 2939 
Q 2822 3125 2822 3475 
Q 2822 3834 2567 4026 
Q 2313 4219 1838 4219 
Q 1578 4219 1281 4162 
Q 984 4106 628 3988 
L 628 4550 
Q 988 4650 1302 4700 
Q 1616 4750 1894 4750 
Q 2613 4750 3031 4423 
Q 3450 4097 3450 3541 
Q 3450 3153 3228 2886 
Q 3006 2619 2597 2516 
z
" id="DejaVuSans-33" transform="scale(0.015625)"/>
     </defs>
     <use xlink:href="#DejaVuSans-33"/>
     <use x="63.623047" xlink:href="#DejaVuSans-2d"/>
     <use x="99.707031" xlink:href="#DejaVuSans-44"/>
    </g>
   </g>
   <g id="text_18">
    <!-- 2-D -->
    <g transform="translate(375.22944 40.397235)scale(0.17 -0.17)">
     <use xlink:href="#DejaVuSans-32"/>
     <use x="63.623047" xlink:href="#DejaVuSans-2d"/>
     <use x="99.707031" xlink:href="#DejaVuSans-44"/>
    </g>
   </g>
   <g id="text_19">
    <!-- bbob f20 -->
    <g transform="translate(60.41088 38.111366)scale(0.102 -0.102)">
     <defs>
      <path d="M 3116 1747 
Q 3116 2381 2855 2742 
Q 2594 3103 2138 3103 
Q 1681 3103 1420 2742 
Q 1159 2381 1159 1747 
Q 1159 1113 1420 752 
Q 1681 391 2138 391 
Q 2594 391 2855 752 
Q 3116 1113 3116 1747 
z
M 1159 2969 
Q 1341 3281 1617 3432 
Q 1894 3584 2278 3584 
Q 2916 3584 3314 3078 
Q 3713 2572 3713 1747 
Q 3713 922 3314 415 
Q 2916 -91 2278 -91 
Q 1894 -91 1617 61 
Q 1341 213 1159 525 
L 1159 0 
L 581 0 
L 581 4863 
L 1159 4863 
L 1159 2969 
z
" id="DejaVuSans-62" transform="scale(0.015625)"/>
     </defs>
     <use xlink:href="#DejaVuSans-62"/>
     <use x="63.476562" xlink:href="#DejaVuSans-62"/>
     <use x="126.953125" xlink:href="#DejaVuSans-6f"/>
     <use x="188.134766" xlink:href="#DejaVuSans-62"/>
     <use x="251.611328" xlink:href="#DejaVuSans-20"/>
     <use x="283.398438" xlink:href="#DejaVuSans-66"/>
     <use x="318.603516" xlink:href="#DejaVuSans-32"/>
     <use x="382.226562" xlink:href="#DejaVuSans-30"/>
    </g>
    <!-- 51 targets: 100..1e-08 -->
    <g transform="translate(60.41088 49.533135)scale(0.102 -0.102)">
     <defs>
      <path d="M 750 794 
L 1409 794 
L 1409 0 
L 750 0 
L 750 794 
z
M 750 3309 
L 1409 3309 
L 1409 2516 
L 750 2516 
L 750 3309 
z
" id="DejaVuSans-3a" transform="scale(0.015625)"/>
     </defs>
     <use xlink:href="#DejaVuSans-35"/>
     <use x="63.623047" xlink:href="#DejaVuSans-31"/>
     <use x="127.246094" xlink:href="#DejaVuSans-20"/>
     <use x="159.033203" xlink:href="#DejaVuSans-74"/>
     <use x="198.242188" xlink:href="#DejaVuSans-61"/>
     <use x="259.521484" xlink:href="#DejaVuSans-72"/>
     <use x="298.884766" xlink:href="#DejaVuSans-67"/>
     <use x="362.361328" xlink:href="#DejaVuSans-65"/>
     <use x="423.884766" xlink:href="#DejaVuSans-74"/>
     <use x="463.09375" xlink:href="#DejaVuSans-73"/>
     <use x="515.193359" xlink:href="#DejaVuSans-3a"/>
     <use x="548.884766" xlink:href="#DejaVuSans-20"/>
     <use x="580.671875" xlink:href="#DejaVuSans-31"/>
     <use x="644.294922" xlink:href="#DejaVuSans-30"/>
     <use x="707.917969" xlink:href="#DejaVuSans-30"/>
     <use x="771.541016" xlink:href="#DejaVuSans-2e"/>
     <use x="803.328125" xlink:href="#DejaVuSans-2e"/>
     <use x="835.115234" xlink:href="#DejaVuSans-31"/>
     <use x="898.738281" xlink:href="#DejaVuSans-65"/>
     <use x="960.261719" xlink:href="#DejaVuSans-2d"/>
     <use x="996.345703" xlink:href="#DejaVuSans-30"/>
     <use x="1059.96875" xlink:href="#DejaVuSans-38"/>
    </g>
    <!-- 15 instances -->
    <g transform="translate(60.41088 60.954904)scale(0.102 -0.102)">
     <use xlink:href="#DejaVuSans-31"/>
     <use x="63.623047" xlink:href="#DejaVuSans-35"/>
     <use x="127.246094" xlink:href="#DejaVuSans-20"/>
     <use x="159.033203" xlink:href="#DejaVuSans-69"/>
     <use x="186.816406" xlink:href="#DejaVuSans-6e"/>
     <use x="250.195312" xlink:href="#DejaVuSans-73"/>
     <use x="302.294922" xlink:href="#DejaVuSans-74"/>
     <use x="341.503906" xlink:href="#DejaVuSans-61"/>
     <use x="402.783203" xlink:href="#DejaVuSans-6e"/>
     <use x="466.162109" xlink:href="#DejaVuSans-63"/>
     <use x="521.142578" xlink:href="#DejaVuSans-65"/>
     <use x="582.666016" xlink:href="#DejaVuSans-73"/>
    </g>
   </g>
   <g id="text_20">
    <!-- v2.4 -->
    <g style="fill:#808080;" transform="translate(187.233062 294.151352)scale(0.1 -0.1)">
     <use xlink:href="#DejaVuSans-76"/>
     <use x="59.179688" xlink:href="#DejaVuSans-32"/>
     <use x="122.802734" xlink:href="#DejaVuSans-2e"/>
     <use x="154.589844" xlink:href="#DejaVuSans-34"/>
    </g>
   </g>
   <g id="text_21">
    <!-- 20 Schwefel x*sin(x) -->
    <g transform="translate(95.129937 21.648)scale(0.2 -0.2)">
     <defs>
      <path d="M 3425 4513 
L 3425 3897 
Q 3066 4069 2747 4153 
Q 2428 4238 2131 4238 
Q 1616 4238 1336 4038 
Q 1056 3838 1056 3469 
Q 1056 3159 1242 3001 
Q 1428 2844 1947 2747 
L 2328 2669 
Q 3034 2534 3370 2195 
Q 3706 1856 3706 1288 
Q 3706 609 3251 259 
Q 2797 -91 1919 -91 
Q 1588 -91 1214 -16 
Q 841 59 441 206 
L 441 856 
Q 825 641 1194 531 
Q 1563 422 1919 422 
Q 2459 422 2753 634 
Q 3047 847 3047 1241 
Q 3047 1584 2836 1778 
Q 2625 1972 2144 2069 
L 1759 2144 
Q 1053 2284 737 2584 
Q 422 2884 422 3419 
Q 422 4038 858 4394 
Q 1294 4750 2059 4750 
Q 2388 4750 2728 4690 
Q 3069 4631 3425 4513 
z
" id="DejaVuSans-53" transform="scale(0.015625)"/>
      <path d="M 3513 2113 
L 3513 0 
L 2938 0 
L 2938 2094 
Q 2938 2591 2744 2837 
Q 2550 3084 2163 3084 
Q 1697 3084 1428 2787 
Q 1159 2491 1159 1978 
L 1159 0 
L 581 0 
L 581 4863 
L 1159 4863 
L 1159 2956 
Q 1366 3272 1645 3428 
Q 1925 3584 2291 3584 
Q 2894 3584 3203 3211 
Q 3513 2838 3513 2113 
z
" id="DejaVuSans-68" transform="scale(0.015625)"/>
      <path d="M 269 3500 
L 844 3500 
L 1563 769 
L 2278 3500 
L 2956 3500 
L 3675 769 
L 4391 3500 
L 4966 3500 
L 4050 0 
L 3372 0 
L 2619 2869 
L 1863 0 
L 1184 0 
L 269 3500 
z
" id="DejaVuSans-77" transform="scale(0.015625)"/>
      <path d="M 3513 3500 
L 2247 1797 
L 3578 0 
L 2900 0 
L 1881 1375 
L 863 0 
L 184 0 
L 1544 1831 
L 300 3500 
L 978 3500 
L 1906 2253 
L 2834 3500 
L 3513 3500 
z
" id="DejaVuSans-78" transform="scale(0.015625)"/>
      <path d="M 3009 3897 
L 1888 3291 
L 3009 2681 
L 2828 2375 
L 1778 3009 
L 1778 1831 
L 1422 1831 
L 1422 3009 
L 372 2375 
L 191 2681 
L 1313 3291 
L 191 3897 
L 372 4206 
L 1422 3572 
L 1422 4750 
L 1778 4750 
L 1778 3572 
L 2828 4206 
L 3009 3897 
z
" id="DejaVuSans-2a" transform="scale(0.015625)"/>
     </defs>
     <use xlink:href="#DejaVuSans-32"/>
     <use x="63.623047" xlink:href="#DejaVuSans-30"/>
     <use x="127.246094" xlink:href="#DejaVuSans-20"/>
     <use x="159.033203" xlink:href="#DejaVuSans-53"/>
     <use x="222.509766" xlink:href="#DejaVuSans-63"/>
     <use x="277.490234" xlink:href="#DejaVuSans-68"/>
     <use x="340.869141" xlink:href="#DejaVuSans-77"/>
     <use x="422.65625" xlink:href="#DejaVuSans-65"/>
     <use x="484.179688" xlink:href="#DejaVuSans-66"/>
     <use x="519.384766" xlink:href="#DejaVuSans-65"/>
     <use x="580.908203" xlink:href="#DejaVuSans-6c"/>
     <use x="608.691406" xlink:href="#DejaVuSans-20"/>
     <use x="640.478516" xlink:href="#DejaVuSans-78"/>
     <use x="699.658203" xlink:href="#DejaVuSans-2a"/>
     <use x="749.658203" xlink:href="#DejaVuSans-73"/>
     <use x="801.757812" xlink:href="#DejaVuSans-69"/>
     <use x="829.541016" xlink:href="#DejaVuSans-6e"/>
     <use x="892.919922" xlink:href="#DejaVuSans-28"/>
     <use x="931.933594" xlink:href="#DejaVuSans-78"/>
     <use x="991.113281" xlink:href="#DejaVuSans-29"/>
    </g>
   </g>
  </g>
 </g>
 <defs>
  <clipPath id="pbf47e0c659">
   <rect height="271.296" width="281.088" x="57.6" y="27.648"/>
  </clipPath>
 </defs>
</svg>
