<?xml version="1.0" encoding="utf-8" standalone="no"?>
<!DOCTYPE svg PUBLIC "-//W3C//DTD SVG 1.1//EN"
  "http://www.w3.org/Graphics/SVG/1.1/DTD/svg11.dtd">
<svg height="345.6pt" version="1.1" viewBox="0 0 460.8 345.6" width="460.8pt" xmlns="http://www.w3.org/2000/svg" xmlns:xlink="http://www.w3.org/1999/xlink">
 <metadata>
  <rdf:RDF xmlns:cc="http://creativecommons.org/ns#" xmlns:dc="http://purl.org/dc/elements/1.1/" xmlns:rdf="http://www.w3.org/1999/02/22-rdf-syntax-ns#">
   <cc:Work>
    <dc:type rdf:resource="http://purl.org/dc/dcmitype/StillImage"/>
    <dc:date>2021-04-26T19:00:34.809194</dc:date>
    <dc:format>image/svg+xml</dc:format>
    <dc:creator>
     <cc:Agent>
      <dc:title>Matplotlib v3.4.1, https://matplotlib.org/</dc:title>
     </cc:Agent>
    </dc:creator>
   </cc:Work>
  </rdf:RDF>
 </metadata>
 <defs>
  <style type="text/css">*{stroke-linecap:butt;stroke-linejoin:round;}</style>
 </defs>
 <g id="figure_1">
  <g id="patch_1">
   <path d="M 0 345.6 
L 460.8 345.6 
L 460.8 0 
L 0 0 
z
" style="fill:#ffffff;"/>
  </g>
  <g id="axes_1">
   <g id="patch_2">
    <path d="M 57.6 298.944 
L 338.688 298.944 
L 338.688 27.648 
L 57.6 27.648 
z
" style="fill:#ffffff;"/>
   </g>
   <g id="matplotlib.axis_1">
    <g id="xtick_1">
     <g id="line2d_1">
      <path clip-path="url(#p73c532bf5a)" d="M 57.6 298.944 
L 57.6 27.648 
" style="fill:none;stroke:#b0b0b0;stroke-linecap:square;stroke-width:0.8;"/>
     </g>
     <g id="line2d_2">
      <defs>
       <path d="M 0 0 
L 0 3.5 
" id="m8f77ff5830" style="stroke:#000000;stroke-width:0.8;"/>
      </defs>
      <g>
       <use style="stroke:#000000;stroke-width:0.8;" x="57.6" xlink:href="#m8f77ff5830" y="298.944"/>
      </g>
     </g>
     <g id="text_1">
      <!-- 0 -->
      <g transform="translate(51.2375 321.140875)scale(0.2 -0.2)">
       <defs>
        <path d="M 2034 4250 
Q 1547 4250 1301 3770 
Q 1056 3291 1056 2328 
Q 1056 1369 1301 889 
Q 1547 409 2034 409 
Q 2525 409 2770 889 
Q 3016 1369 3016 2328 
Q 3016 3291 2770 3770 
Q 2525 4250 2034 4250 
z
M 2034 4750 
Q 2819 4750 3233 4129 
Q 3647 3509 3647 2328 
Q 3647 1150 3233 529 
Q 2819 -91 2034 -91 
Q 1250 -91 836 529 
Q 422 1150 422 2328 
Q 422 3509 836 4129 
Q 1250 4750 2034 4750 
z
" id="DejaVuSans-30" transform="scale(0.015625)"/>
       </defs>
       <use xlink:href="#DejaVuSans-30"/>
      </g>
     </g>
    </g>
    <g id="xtick_2">
     <g id="line2d_3">
      <path clip-path="url(#p73c532bf5a)" d="M 137.910857 298.944 
L 137.910857 27.648 
" style="fill:none;stroke:#b0b0b0;stroke-linecap:square;stroke-width:0.8;"/>
     </g>
     <g id="line2d_4">
      <g>
       <use style="stroke:#000000;stroke-width:0.8;" x="137.910857" xlink:href="#m8f77ff5830" y="298.944"/>
      </g>
     </g>
     <g id="text_2">
      <!-- 2 -->
      <g transform="translate(131.548357 321.140875)scale(0.2 -0.2)">
       <defs>
        <path d="M 1228 531 
L 3431 531 
L 3431 0 
L 469 0 
L 469 531 
Q 828 903 1448 1529 
Q 2069 2156 2228 2338 
Q 2531 2678 2651 2914 
Q 2772 3150 2772 3378 
Q 2772 3750 2511 3984 
Q 2250 4219 1831 4219 
Q 1534 4219 1204 4116 
Q 875 4013 500 3803 
L 500 4441 
Q 881 4594 1212 4672 
Q 1544 4750 1819 4750 
Q 2544 4750 2975 4387 
Q 3406 4025 3406 3419 
Q 3406 3131 3298 2873 
Q 3191 2616 2906 2266 
Q 2828 2175 2409 1742 
Q 1991 1309 1228 531 
z
" id="DejaVuSans-32" transform="scale(0.015625)"/>
       </defs>
       <use xlink:href="#DejaVuSans-32"/>
      </g>
     </g>
    </g>
    <g id="xtick_3">
     <g id="line2d_5">
      <path clip-path="url(#p73c532bf5a)" d="M 218.221714 298.944 
L 218.221714 27.648 
" style="fill:none;stroke:#b0b0b0;stroke-linecap:square;stroke-width:0.8;"/>
     </g>
     <g id="line2d_6">
      <g>
       <use style="stroke:#000000;stroke-width:0.8;" x="218.221714" xlink:href="#m8f77ff5830" y="298.944"/>
      </g>
     </g>
     <g id="text_3">
      <!-- 4 -->
      <g transform="translate(211.859214 321.140875)scale(0.2 -0.2)">
       <defs>
        <path d="M 2419 4116 
L 825 1625 
L 2419 1625 
L 2419 4116 
z
M 2253 4666 
L 3047 4666 
L 3047 1625 
L 3713 1625 
L 3713 1100 
L 3047 1100 
L 3047 0 
L 2419 0 
L 2419 1100 
L 313 1100 
L 313 1709 
L 2253 4666 
z
" id="DejaVuSans-34" transform="scale(0.015625)"/>
       </defs>
       <use xlink:href="#DejaVuSans-34"/>
      </g>
     </g>
    </g>
    <g id="xtick_4">
     <g id="line2d_7">
      <path clip-path="url(#p73c532bf5a)" d="M 298.532571 298.944 
L 298.532571 27.648 
" style="fill:none;stroke:#b0b0b0;stroke-linecap:square;stroke-width:0.8;"/>
     </g>
     <g id="line2d_8">
      <g>
       <use style="stroke:#000000;stroke-width:0.8;" x="298.532571" xlink:href="#m8f77ff5830" y="298.944"/>
      </g>
     </g>
     <g id="text_4">
      <!-- 6 -->
      <g transform="translate(292.170071 321.140875)scale(0.2 -0.2)">
       <defs>
        <path d="M 2113 2584 
Q 1688 2584 1439 2293 
Q 1191 2003 1191 1497 
Q 1191 994 1439 701 
Q 1688 409 2113 409 
Q 2538 409 2786 701 
Q 3034 994 3034 1497 
Q 3034 2003 2786 2293 
Q 2538 2584 2113 2584 
z
M 3366 4563 
L 3366 3988 
Q 3128 4100 2886 4159 
Q 2644 4219 2406 4219 
Q 1781 4219 1451 3797 
Q 1122 3375 1075 2522 
Q 1259 2794 1537 2939 
Q 1816 3084 2150 3084 
Q 2853 3084 3261 2657 
Q 3669 2231 3669 1497 
Q 3669 778 3244 343 
Q 2819 -91 2113 -91 
Q 1303 -91 875 529 
Q 447 1150 447 2328 
Q 447 3434 972 4092 
Q 1497 4750 2381 4750 
Q 2619 4750 2861 4703 
Q 3103 4656 3366 4563 
z
" id="DejaVuSans-36" transform="scale(0.015625)"/>
       </defs>
       <use xlink:href="#DejaVuSans-36"/>
      </g>
     </g>
    </g>
    <g id="xtick_5">
     <g id="line2d_9">
      <path clip-path="url(#p73c532bf5a)" d="M 97.755429 298.944 
L 97.755429 27.648 
" style="fill:none;stroke:#b0b0b0;stroke-linecap:square;stroke-width:0.8;"/>
     </g>
     <g id="line2d_10">
      <defs>
       <path d="M 0 0 
L 0 2 
" id="m61e01efe4e" style="stroke:#000000;stroke-width:0.6;"/>
      </defs>
      <g>
       <use style="stroke:#000000;stroke-width:0.6;" x="97.755429" xlink:href="#m61e01efe4e" y="298.944"/>
      </g>
     </g>
    </g>
    <g id="xtick_6">
     <g id="line2d_11">
      <path clip-path="url(#p73c532bf5a)" d="M 178.066286 298.944 
L 178.066286 27.648 
" style="fill:none;stroke:#b0b0b0;stroke-linecap:square;stroke-width:0.8;"/>
     </g>
     <g id="line2d_12">
      <g>
       <use style="stroke:#000000;stroke-width:0.6;" x="178.066286" xlink:href="#m61e01efe4e" y="298.944"/>
      </g>
     </g>
    </g>
    <g id="xtick_7">
     <g id="line2d_13">
      <path clip-path="url(#p73c532bf5a)" d="M 258.377143 298.944 
L 258.377143 27.648 
" style="fill:none;stroke:#b0b0b0;stroke-linecap:square;stroke-width:0.8;"/>
     </g>
     <g id="line2d_14">
      <g>
       <use style="stroke:#000000;stroke-width:0.6;" x="258.377143" xlink:href="#m61e01efe4e" y="298.944"/>
      </g>
     </g>
    </g>
    <g id="xtick_8">
     <g id="line2d_15">
      <path clip-path="url(#p73c532bf5a)" d="M 338.688 298.944 
L 338.688 27.648 
" style="fill:none;stroke:#b0b0b0;stroke-linecap:square;stroke-width:0.8;"/>
     </g>
     <g id="line2d_16">
      <g>
       <use style="stroke:#000000;stroke-width:0.6;" x="338.688" xlink:href="#m61e01efe4e" y="298.944"/>
      </g>
     </g>
    </g>
    <g id="text_5">
     <!-- log10(# f-evals / dimension) -->
     <g transform="translate(77.764078 342.217594)scale(0.17 -0.17)">
      <defs>
       <path d="M 603 4863 
L 1178 4863 
L 1178 0 
L 603 0 
L 603 4863 
z
" id="DejaVuSans-6c" transform="scale(0.015625)"/>
       <path d="M 1959 3097 
Q 1497 3097 1228 2736 
Q 959 2375 959 1747 
Q 959 1119 1226 758 
Q 1494 397 1959 397 
Q 2419 397 2687 759 
Q 2956 1122 2956 1747 
Q 2956 2369 2687 2733 
Q 2419 3097 1959 3097 
z
M 1959 3584 
Q 2709 3584 3137 3096 
Q 3566 2609 3566 1747 
Q 3566 888 3137 398 
Q 2709 -91 1959 -91 
Q 1206 -91 779 398 
Q 353 888 353 1747 
Q 353 2609 779 3096 
Q 1206 3584 1959 3584 
z
" id="DejaVuSans-6f" transform="scale(0.015625)"/>
       <path d="M 2906 1791 
Q 2906 2416 2648 2759 
Q 2391 3103 1925 3103 
Q 1463 3103 1205 2759 
Q 947 2416 947 1791 
Q 947 1169 1205 825 
Q 1463 481 1925 481 
Q 2391 481 2648 825 
Q 2906 1169 2906 1791 
z
M 3481 434 
Q 3481 -459 3084 -895 
Q 2688 -1331 1869 -1331 
Q 1566 -1331 1297 -1286 
Q 1028 -1241 775 -1147 
L 775 -588 
Q 1028 -725 1275 -790 
Q 1522 -856 1778 -856 
Q 2344 -856 2625 -561 
Q 2906 -266 2906 331 
L 2906 616 
Q 2728 306 2450 153 
Q 2172 0 1784 0 
Q 1141 0 747 490 
Q 353 981 353 1791 
Q 353 2603 747 3093 
Q 1141 3584 1784 3584 
Q 2172 3584 2450 3431 
Q 2728 3278 2906 2969 
L 2906 3500 
L 3481 3500 
L 3481 434 
z
" id="DejaVuSans-67" transform="scale(0.015625)"/>
       <path d="M 794 531 
L 1825 531 
L 1825 4091 
L 703 3866 
L 703 4441 
L 1819 4666 
L 2450 4666 
L 2450 531 
L 3481 531 
L 3481 0 
L 794 0 
L 794 531 
z
" id="DejaVuSans-31" transform="scale(0.015625)"/>
       <path d="M 1984 4856 
Q 1566 4138 1362 3434 
Q 1159 2731 1159 2009 
Q 1159 1288 1364 580 
Q 1569 -128 1984 -844 
L 1484 -844 
Q 1016 -109 783 600 
Q 550 1309 550 2009 
Q 550 2706 781 3412 
Q 1013 4119 1484 4856 
L 1984 4856 
z
" id="DejaVuSans-28" transform="scale(0.015625)"/>
       <path d="M 3272 2816 
L 2363 2816 
L 2100 1772 
L 3016 1772 
L 3272 2816 
z
M 2803 4594 
L 2478 3297 
L 3391 3297 
L 3719 4594 
L 4219 4594 
L 3897 3297 
L 4872 3297 
L 4872 2816 
L 3775 2816 
L 3519 1772 
L 4513 1772 
L 4513 1294 
L 3397 1294 
L 3072 0 
L 2572 0 
L 2894 1294 
L 1978 1294 
L 1656 0 
L 1153 0 
L 1478 1294 
L 494 1294 
L 494 1772 
L 1594 1772 
L 1856 2816 
L 850 2816 
L 850 3297 
L 1978 3297 
L 2297 4594 
L 2803 4594 
z
" id="DejaVuSans-23" transform="scale(0.015625)"/>
       <path id="DejaVuSans-20" transform="scale(0.015625)"/>
       <path d="M 2375 4863 
L 2375 4384 
L 1825 4384 
Q 1516 4384 1395 4259 
Q 1275 4134 1275 3809 
L 1275 3500 
L 2222 3500 
L 2222 3053 
L 1275 3053 
L 1275 0 
L 697 0 
L 697 3053 
L 147 3053 
L 147 3500 
L 697 3500 
L 697 3744 
Q 697 4328 969 4595 
Q 1241 4863 1831 4863 
L 2375 4863 
z
" id="DejaVuSans-66" transform="scale(0.015625)"/>
       <path d="M 313 2009 
L 1997 2009 
L 1997 1497 
L 313 1497 
L 313 2009 
z
" id="DejaVuSans-2d" transform="scale(0.015625)"/>
       <path d="M 3597 1894 
L 3597 1613 
L 953 1613 
Q 991 1019 1311 708 
Q 1631 397 2203 397 
Q 2534 397 2845 478 
Q 3156 559 3463 722 
L 3463 178 
Q 3153 47 2828 -22 
Q 2503 -91 2169 -91 
Q 1331 -91 842 396 
Q 353 884 353 1716 
Q 353 2575 817 3079 
Q 1281 3584 2069 3584 
Q 2775 3584 3186 3129 
Q 3597 2675 3597 1894 
z
M 3022 2063 
Q 3016 2534 2758 2815 
Q 2500 3097 2075 3097 
Q 1594 3097 1305 2825 
Q 1016 2553 972 2059 
L 3022 2063 
z
" id="DejaVuSans-65" transform="scale(0.015625)"/>
       <path d="M 191 3500 
L 800 3500 
L 1894 563 
L 2988 3500 
L 3597 3500 
L 2284 0 
L 1503 0 
L 191 3500 
z
" id="DejaVuSans-76" transform="scale(0.015625)"/>
       <path d="M 2194 1759 
Q 1497 1759 1228 1600 
Q 959 1441 959 1056 
Q 959 750 1161 570 
Q 1363 391 1709 391 
Q 2188 391 2477 730 
Q 2766 1069 2766 1631 
L 2766 1759 
L 2194 1759 
z
M 3341 1997 
L 3341 0 
L 2766 0 
L 2766 531 
Q 2569 213 2275 61 
Q 1981 -91 1556 -91 
Q 1019 -91 701 211 
Q 384 513 384 1019 
Q 384 1609 779 1909 
Q 1175 2209 1959 2209 
L 2766 2209 
L 2766 2266 
Q 2766 2663 2505 2880 
Q 2244 3097 1772 3097 
Q 1472 3097 1187 3025 
Q 903 2953 641 2809 
L 641 3341 
Q 956 3463 1253 3523 
Q 1550 3584 1831 3584 
Q 2591 3584 2966 3190 
Q 3341 2797 3341 1997 
z
" id="DejaVuSans-61" transform="scale(0.015625)"/>
       <path d="M 2834 3397 
L 2834 2853 
Q 2591 2978 2328 3040 
Q 2066 3103 1784 3103 
Q 1356 3103 1142 2972 
Q 928 2841 928 2578 
Q 928 2378 1081 2264 
Q 1234 2150 1697 2047 
L 1894 2003 
Q 2506 1872 2764 1633 
Q 3022 1394 3022 966 
Q 3022 478 2636 193 
Q 2250 -91 1575 -91 
Q 1294 -91 989 -36 
Q 684 19 347 128 
L 347 722 
Q 666 556 975 473 
Q 1284 391 1588 391 
Q 1994 391 2212 530 
Q 2431 669 2431 922 
Q 2431 1156 2273 1281 
Q 2116 1406 1581 1522 
L 1381 1569 
Q 847 1681 609 1914 
Q 372 2147 372 2553 
Q 372 3047 722 3315 
Q 1072 3584 1716 3584 
Q 2034 3584 2315 3537 
Q 2597 3491 2834 3397 
z
" id="DejaVuSans-73" transform="scale(0.015625)"/>
       <path d="M 1625 4666 
L 2156 4666 
L 531 -594 
L 0 -594 
L 1625 4666 
z
" id="DejaVuSans-2f" transform="scale(0.015625)"/>
       <path d="M 2906 2969 
L 2906 4863 
L 3481 4863 
L 3481 0 
L 2906 0 
L 2906 525 
Q 2725 213 2448 61 
Q 2172 -91 1784 -91 
Q 1150 -91 751 415 
Q 353 922 353 1747 
Q 353 2572 751 3078 
Q 1150 3584 1784 3584 
Q 2172 3584 2448 3432 
Q 2725 3281 2906 2969 
z
M 947 1747 
Q 947 1113 1208 752 
Q 1469 391 1925 391 
Q 2381 391 2643 752 
Q 2906 1113 2906 1747 
Q 2906 2381 2643 2742 
Q 2381 3103 1925 3103 
Q 1469 3103 1208 2742 
Q 947 2381 947 1747 
z
" id="DejaVuSans-64" transform="scale(0.015625)"/>
       <path d="M 603 3500 
L 1178 3500 
L 1178 0 
L 603 0 
L 603 3500 
z
M 603 4863 
L 1178 4863 
L 1178 4134 
L 603 4134 
L 603 4863 
z
" id="DejaVuSans-69" transform="scale(0.015625)"/>
       <path d="M 3328 2828 
Q 3544 3216 3844 3400 
Q 4144 3584 4550 3584 
Q 5097 3584 5394 3201 
Q 5691 2819 5691 2113 
L 5691 0 
L 5113 0 
L 5113 2094 
Q 5113 2597 4934 2840 
Q 4756 3084 4391 3084 
Q 3944 3084 3684 2787 
Q 3425 2491 3425 1978 
L 3425 0 
L 2847 0 
L 2847 2094 
Q 2847 2600 2669 2842 
Q 2491 3084 2119 3084 
Q 1678 3084 1418 2786 
Q 1159 2488 1159 1978 
L 1159 0 
L 581 0 
L 581 3500 
L 1159 3500 
L 1159 2956 
Q 1356 3278 1631 3431 
Q 1906 3584 2284 3584 
Q 2666 3584 2933 3390 
Q 3200 3197 3328 2828 
z
" id="DejaVuSans-6d" transform="scale(0.015625)"/>
       <path d="M 3513 2113 
L 3513 0 
L 2938 0 
L 2938 2094 
Q 2938 2591 2744 2837 
Q 2550 3084 2163 3084 
Q 1697 3084 1428 2787 
Q 1159 2491 1159 1978 
L 1159 0 
L 581 0 
L 581 3500 
L 1159 3500 
L 1159 2956 
Q 1366 3272 1645 3428 
Q 1925 3584 2291 3584 
Q 2894 3584 3203 3211 
Q 3513 2838 3513 2113 
z
" id="DejaVuSans-6e" transform="scale(0.015625)"/>
       <path d="M 513 4856 
L 1013 4856 
Q 1481 4119 1714 3412 
Q 1947 2706 1947 2009 
Q 1947 1309 1714 600 
Q 1481 -109 1013 -844 
L 513 -844 
Q 928 -128 1133 580 
Q 1338 1288 1338 2009 
Q 1338 2731 1133 3434 
Q 928 4138 513 4856 
z
" id="DejaVuSans-29" transform="scale(0.015625)"/>
      </defs>
      <use xlink:href="#DejaVuSans-6c"/>
      <use x="27.783203" xlink:href="#DejaVuSans-6f"/>
      <use x="88.964844" xlink:href="#DejaVuSans-67"/>
      <use x="152.441406" xlink:href="#DejaVuSans-31"/>
      <use x="216.064453" xlink:href="#DejaVuSans-30"/>
      <use x="279.6875" xlink:href="#DejaVuSans-28"/>
      <use x="318.701172" xlink:href="#DejaVuSans-23"/>
      <use x="402.490234" xlink:href="#DejaVuSans-20"/>
      <use x="434.277344" xlink:href="#DejaVuSans-66"/>
      <use x="463.982422" xlink:href="#DejaVuSans-2d"/>
      <use x="500.066406" xlink:href="#DejaVuSans-65"/>
      <use x="561.589844" xlink:href="#DejaVuSans-76"/>
      <use x="620.769531" xlink:href="#DejaVuSans-61"/>
      <use x="682.048828" xlink:href="#DejaVuSans-6c"/>
      <use x="709.832031" xlink:href="#DejaVuSans-73"/>
      <use x="761.931641" xlink:href="#DejaVuSans-20"/>
      <use x="793.71875" xlink:href="#DejaVuSans-2f"/>
      <use x="827.410156" xlink:href="#DejaVuSans-20"/>
      <use x="859.197266" xlink:href="#DejaVuSans-64"/>
      <use x="922.673828" xlink:href="#DejaVuSans-69"/>
      <use x="950.457031" xlink:href="#DejaVuSans-6d"/>
      <use x="1047.869141" xlink:href="#DejaVuSans-65"/>
      <use x="1109.392578" xlink:href="#DejaVuSans-6e"/>
      <use x="1172.771484" xlink:href="#DejaVuSans-73"/>
      <use x="1224.871094" xlink:href="#DejaVuSans-69"/>
      <use x="1252.654297" xlink:href="#DejaVuSans-6f"/>
      <use x="1313.835938" xlink:href="#DejaVuSans-6e"/>
      <use x="1377.214844" xlink:href="#DejaVuSans-29"/>
     </g>
    </g>
   </g>
   <g id="matplotlib.axis_2">
    <g id="ytick_1">
     <g id="line2d_17">
      <path clip-path="url(#p73c532bf5a)" d="M 57.6 298.944 
L 338.688 298.944 
" style="fill:none;stroke:#b0b0b0;stroke-linecap:square;stroke-width:0.8;"/>
     </g>
     <g id="line2d_18">
      <defs>
       <path d="M 0 0 
L -3.5 0 
" id="m3c1400ef4c" style="stroke:#000000;stroke-width:0.8;"/>
      </defs>
      <g>
       <use style="stroke:#000000;stroke-width:0.8;" x="57.6" xlink:href="#m3c1400ef4c" y="298.944"/>
      </g>
     </g>
     <g id="text_6">
      <!-- 0.0 -->
      <g transform="translate(25.155 305.02275)scale(0.16 -0.16)">
       <defs>
        <path d="M 684 794 
L 1344 794 
L 1344 0 
L 684 0 
L 684 794 
z
" id="DejaVuSans-2e" transform="scale(0.015625)"/>
       </defs>
       <use xlink:href="#DejaVuSans-30"/>
       <use x="63.623047" xlink:href="#DejaVuSans-2e"/>
       <use x="95.410156" xlink:href="#DejaVuSans-30"/>
      </g>
     </g>
    </g>
    <g id="ytick_2">
     <g id="line2d_19">
      <path clip-path="url(#p73c532bf5a)" d="M 57.6 245.22202 
L 338.688 245.22202 
" style="fill:none;stroke:#b0b0b0;stroke-linecap:square;stroke-width:0.8;"/>
     </g>
     <g id="line2d_20">
      <g>
       <use style="stroke:#000000;stroke-width:0.8;" x="57.6" xlink:href="#m3c1400ef4c" y="245.22202"/>
      </g>
     </g>
     <g id="text_7">
      <!-- 0.2 -->
      <g transform="translate(25.155 251.30077)scale(0.16 -0.16)">
       <use xlink:href="#DejaVuSans-30"/>
       <use x="63.623047" xlink:href="#DejaVuSans-2e"/>
       <use x="95.410156" xlink:href="#DejaVuSans-32"/>
      </g>
     </g>
    </g>
    <g id="ytick_3">
     <g id="line2d_21">
      <path clip-path="url(#p73c532bf5a)" d="M 57.6 191.50004 
L 338.688 191.50004 
" style="fill:none;stroke:#b0b0b0;stroke-linecap:square;stroke-width:0.8;"/>
     </g>
     <g id="line2d_22">
      <g>
       <use style="stroke:#000000;stroke-width:0.8;" x="57.6" xlink:href="#m3c1400ef4c" y="191.50004"/>
      </g>
     </g>
     <g id="text_8">
      <!-- 0.4 -->
      <g transform="translate(25.155 197.57879)scale(0.16 -0.16)">
       <use xlink:href="#DejaVuSans-30"/>
       <use x="63.623047" xlink:href="#DejaVuSans-2e"/>
       <use x="95.410156" xlink:href="#DejaVuSans-34"/>
      </g>
     </g>
    </g>
    <g id="ytick_4">
     <g id="line2d_23">
      <path clip-path="url(#p73c532bf5a)" d="M 57.6 137.778059 
L 338.688 137.778059 
" style="fill:none;stroke:#b0b0b0;stroke-linecap:square;stroke-width:0.8;"/>
     </g>
     <g id="line2d_24">
      <g>
       <use style="stroke:#000000;stroke-width:0.8;" x="57.6" xlink:href="#m3c1400ef4c" y="137.778059"/>
      </g>
     </g>
     <g id="text_9">
      <!-- 0.6 -->
      <g transform="translate(25.155 143.856809)scale(0.16 -0.16)">
       <use xlink:href="#DejaVuSans-30"/>
       <use x="63.623047" xlink:href="#DejaVuSans-2e"/>
       <use x="95.410156" xlink:href="#DejaVuSans-36"/>
      </g>
     </g>
    </g>
    <g id="ytick_5">
     <g id="line2d_25">
      <path clip-path="url(#p73c532bf5a)" d="M 57.6 84.056079 
L 338.688 84.056079 
" style="fill:none;stroke:#b0b0b0;stroke-linecap:square;stroke-width:0.8;"/>
     </g>
     <g id="line2d_26">
      <g>
       <use style="stroke:#000000;stroke-width:0.8;" x="57.6" xlink:href="#m3c1400ef4c" y="84.056079"/>
      </g>
     </g>
     <g id="text_10">
      <!-- 0.8 -->
      <g transform="translate(25.155 90.134829)scale(0.16 -0.16)">
       <defs>
        <path d="M 2034 2216 
Q 1584 2216 1326 1975 
Q 1069 1734 1069 1313 
Q 1069 891 1326 650 
Q 1584 409 2034 409 
Q 2484 409 2743 651 
Q 3003 894 3003 1313 
Q 3003 1734 2745 1975 
Q 2488 2216 2034 2216 
z
M 1403 2484 
Q 997 2584 770 2862 
Q 544 3141 544 3541 
Q 544 4100 942 4425 
Q 1341 4750 2034 4750 
Q 2731 4750 3128 4425 
Q 3525 4100 3525 3541 
Q 3525 3141 3298 2862 
Q 3072 2584 2669 2484 
Q 3125 2378 3379 2068 
Q 3634 1759 3634 1313 
Q 3634 634 3220 271 
Q 2806 -91 2034 -91 
Q 1263 -91 848 271 
Q 434 634 434 1313 
Q 434 1759 690 2068 
Q 947 2378 1403 2484 
z
M 1172 3481 
Q 1172 3119 1398 2916 
Q 1625 2713 2034 2713 
Q 2441 2713 2670 2916 
Q 2900 3119 2900 3481 
Q 2900 3844 2670 4047 
Q 2441 4250 2034 4250 
Q 1625 4250 1398 4047 
Q 1172 3844 1172 3481 
z
" id="DejaVuSans-38" transform="scale(0.015625)"/>
       </defs>
       <use xlink:href="#DejaVuSans-30"/>
       <use x="63.623047" xlink:href="#DejaVuSans-2e"/>
       <use x="95.410156" xlink:href="#DejaVuSans-38"/>
      </g>
     </g>
    </g>
    <g id="ytick_6">
     <g id="line2d_27">
      <path clip-path="url(#p73c532bf5a)" d="M 57.6 30.334099 
L 338.688 30.334099 
" style="fill:none;stroke:#b0b0b0;stroke-linecap:square;stroke-width:0.8;"/>
     </g>
     <g id="line2d_28">
      <g>
       <use style="stroke:#000000;stroke-width:0.8;" x="57.6" xlink:href="#m3c1400ef4c" y="30.334099"/>
      </g>
     </g>
     <g id="text_11">
      <!-- 1.0 -->
      <g transform="translate(25.155 36.412849)scale(0.16 -0.16)">
       <use xlink:href="#DejaVuSans-31"/>
       <use x="63.623047" xlink:href="#DejaVuSans-2e"/>
       <use x="95.410156" xlink:href="#DejaVuSans-30"/>
      </g>
     </g>
    </g>
    <g id="text_12">
     <!-- Fraction of function,target pairs -->
     <g transform="translate(17.619531 297.681)rotate(-90)scale(0.17 -0.17)">
      <defs>
       <path d="M 628 4666 
L 3309 4666 
L 3309 4134 
L 1259 4134 
L 1259 2759 
L 3109 2759 
L 3109 2228 
L 1259 2228 
L 1259 0 
L 628 0 
L 628 4666 
z
" id="DejaVuSans-46" transform="scale(0.015625)"/>
       <path d="M 2631 2963 
Q 2534 3019 2420 3045 
Q 2306 3072 2169 3072 
Q 1681 3072 1420 2755 
Q 1159 2438 1159 1844 
L 1159 0 
L 581 0 
L 581 3500 
L 1159 3500 
L 1159 2956 
Q 1341 3275 1631 3429 
Q 1922 3584 2338 3584 
Q 2397 3584 2469 3576 
Q 2541 3569 2628 3553 
L 2631 2963 
z
" id="DejaVuSans-72" transform="scale(0.015625)"/>
       <path d="M 3122 3366 
L 3122 2828 
Q 2878 2963 2633 3030 
Q 2388 3097 2138 3097 
Q 1578 3097 1268 2742 
Q 959 2388 959 1747 
Q 959 1106 1268 751 
Q 1578 397 2138 397 
Q 2388 397 2633 464 
Q 2878 531 3122 666 
L 3122 134 
Q 2881 22 2623 -34 
Q 2366 -91 2075 -91 
Q 1284 -91 818 406 
Q 353 903 353 1747 
Q 353 2603 823 3093 
Q 1294 3584 2113 3584 
Q 2378 3584 2631 3529 
Q 2884 3475 3122 3366 
z
" id="DejaVuSans-63" transform="scale(0.015625)"/>
       <path d="M 1172 4494 
L 1172 3500 
L 2356 3500 
L 2356 3053 
L 1172 3053 
L 1172 1153 
Q 1172 725 1289 603 
Q 1406 481 1766 481 
L 2356 481 
L 2356 0 
L 1766 0 
Q 1100 0 847 248 
Q 594 497 594 1153 
L 594 3053 
L 172 3053 
L 172 3500 
L 594 3500 
L 594 4494 
L 1172 4494 
z
" id="DejaVuSans-74" transform="scale(0.015625)"/>
       <path d="M 544 1381 
L 544 3500 
L 1119 3500 
L 1119 1403 
Q 1119 906 1312 657 
Q 1506 409 1894 409 
Q 2359 409 2629 706 
Q 2900 1003 2900 1516 
L 2900 3500 
L 3475 3500 
L 3475 0 
L 2900 0 
L 2900 538 
Q 2691 219 2414 64 
Q 2138 -91 1772 -91 
Q 1169 -91 856 284 
Q 544 659 544 1381 
z
M 1991 3584 
L 1991 3584 
z
" id="DejaVuSans-75" transform="scale(0.015625)"/>
       <path d="M 750 794 
L 1409 794 
L 1409 256 
L 897 -744 
L 494 -744 
L 750 256 
L 750 794 
z
" id="DejaVuSans-2c" transform="scale(0.015625)"/>
       <path d="M 1159 525 
L 1159 -1331 
L 581 -1331 
L 581 3500 
L 1159 3500 
L 1159 2969 
Q 1341 3281 1617 3432 
Q 1894 3584 2278 3584 
Q 2916 3584 3314 3078 
Q 3713 2572 3713 1747 
Q 3713 922 3314 415 
Q 2916 -91 2278 -91 
Q 1894 -91 1617 61 
Q 1341 213 1159 525 
z
M 3116 1747 
Q 3116 2381 2855 2742 
Q 2594 3103 2138 3103 
Q 1681 3103 1420 2742 
Q 1159 2381 1159 1747 
Q 1159 1113 1420 752 
Q 1681 391 2138 391 
Q 2594 391 2855 752 
Q 3116 1113 3116 1747 
z
" id="DejaVuSans-70" transform="scale(0.015625)"/>
      </defs>
      <use xlink:href="#DejaVuSans-46"/>
      <use x="50.269531" xlink:href="#DejaVuSans-72"/>
      <use x="91.382812" xlink:href="#DejaVuSans-61"/>
      <use x="152.662109" xlink:href="#DejaVuSans-63"/>
      <use x="207.642578" xlink:href="#DejaVuSans-74"/>
      <use x="246.851562" xlink:href="#DejaVuSans-69"/>
      <use x="274.634766" xlink:href="#DejaVuSans-6f"/>
      <use x="335.816406" xlink:href="#DejaVuSans-6e"/>
      <use x="399.195312" xlink:href="#DejaVuSans-20"/>
      <use x="430.982422" xlink:href="#DejaVuSans-6f"/>
      <use x="492.164062" xlink:href="#DejaVuSans-66"/>
      <use x="527.369141" xlink:href="#DejaVuSans-20"/>
      <use x="559.15625" xlink:href="#DejaVuSans-66"/>
      <use x="594.361328" xlink:href="#DejaVuSans-75"/>
      <use x="657.740234" xlink:href="#DejaVuSans-6e"/>
      <use x="721.119141" xlink:href="#DejaVuSans-63"/>
      <use x="776.099609" xlink:href="#DejaVuSans-74"/>
      <use x="815.308594" xlink:href="#DejaVuSans-69"/>
      <use x="843.091797" xlink:href="#DejaVuSans-6f"/>
      <use x="904.273438" xlink:href="#DejaVuSans-6e"/>
      <use x="967.652344" xlink:href="#DejaVuSans-2c"/>
      <use x="999.439453" xlink:href="#DejaVuSans-74"/>
      <use x="1038.648438" xlink:href="#DejaVuSans-61"/>
      <use x="1099.927734" xlink:href="#DejaVuSans-72"/>
      <use x="1139.291016" xlink:href="#DejaVuSans-67"/>
      <use x="1202.767578" xlink:href="#DejaVuSans-65"/>
      <use x="1264.291016" xlink:href="#DejaVuSans-74"/>
      <use x="1303.5" xlink:href="#DejaVuSans-20"/>
      <use x="1335.287109" xlink:href="#DejaVuSans-70"/>
      <use x="1398.763672" xlink:href="#DejaVuSans-61"/>
      <use x="1460.042969" xlink:href="#DejaVuSans-69"/>
      <use x="1487.826172" xlink:href="#DejaVuSans-72"/>
      <use x="1528.939453" xlink:href="#DejaVuSans-73"/>
     </g>
    </g>
   </g>
   <g id="line2d_29">
    <defs>
     <path d="M 0 1.5 
C 0.397805 1.5 0.77937 1.341951 1.06066 1.06066 
C 1.341951 0.77937 1.5 0.397805 1.5 0 
C 1.5 -0.397805 1.341951 -0.77937 1.06066 -1.06066 
C 0.77937 -1.341951 0.397805 -1.5 0 -1.5 
C -0.397805 -1.5 -0.77937 -1.341951 -1.06066 -1.06066 
C -1.341951 -0.77937 -1.5 -0.397805 -1.5 0 
C -1.5 0.397805 -1.341951 0.77937 -1.06066 1.06066 
C -0.77937 1.341951 -0.397805 1.5 0 1.5 
z
" id="m4ab6342018" style="stroke:#00bfbf;"/>
    </defs>
    <g>
     <use style="fill:#00bfbf;stroke:#00bfbf;" x="290.738101" xlink:href="#m4ab6342018" y="30.334099"/>
     <use style="fill:#00bfbf;stroke:#00bfbf;" x="290.738101" xlink:href="#m4ab6342018" y="30.334099"/>
    </g>
   </g>
   <g id="line2d_30">
    <path d="M 45.512012 298.944 
L 45.512012 287.883592 
L 57.6 287.883592 
L 57.6 266.289463 
L 64.67102 266.289463 
L 64.67102 265.762777 
L 69.687988 265.762777 
L 69.687988 264.709405 
L 73.579452 264.709405 
L 73.579452 263.129347 
L 76.759008 263.129347 
L 76.759008 261.549288 
L 79.447285 261.549288 
L 79.447285 261.022602 
L 81.775977 261.022602 
L 81.775977 259.96923 
L 83.830028 259.96923 
L 83.830028 258.389172 
L 85.66744 258.389172 
L 85.66744 257.862486 
L 88.846997 257.862486 
L 88.846997 256.809114 
L 90.242884 256.809114 
L 90.242884 256.282427 
L 91.535274 256.282427 
L 91.535274 253.648997 
L 93.863965 253.648997 
L 93.863965 252.595625 
L 96.86091 252.595625 
L 96.86091 250.488881 
L 100.192776 250.488881 
L 100.192776 243.641962 
L 102.330873 243.641962 
L 102.330873 243.115275 
L 103.623262 243.115275 
L 103.623262 242.588589 
L 104.23523 242.588589 
L 104.23523 240.481845 
L 108.006005 240.481845 
L 108.006005 239.428473 
L 110.694282 239.428473 
L 110.694282 237.848415 
L 112.280765 237.848415 
L 112.280765 237.321729 
L 112.655818 237.321729 
L 112.655818 236.268356 
L 113.022974 236.268356 
L 113.022974 235.74167 
L 116.621333 235.74167 
L 116.621333 234.688298 
L 117.765302 234.688298 
L 117.765302 234.161612 
L 120.8059 234.161612 
L 120.8059 233.634926 
L 121.931406 233.634926 
L 121.931406 233.10824 
L 122.573415 233.10824 
L 122.573415 232.054868 
L 124.92835 232.054868 
L 124.92835 229.948123 
L 125.822869 229.948123 
L 125.822869 229.421437 
L 127.325746 229.421437 
L 127.325746 228.894751 
L 129.002426 228.894751 
L 129.002426 227.314693 
L 130.926816 227.314693 
L 130.926816 226.788007 
L 133.910056 226.788007 
L 133.910056 224.681263 
L 135.076644 224.681263 
L 135.076644 224.154577 
L 135.381712 224.154577 
L 135.482227 220.99446 
L 136.551264 220.99446 
L 136.645276 217.307658 
L 137.107884 217.307658 
L 137.198951 215.727599 
L 137.910857 215.727599 
L 137.910857 214.674227 
L 144.269971 214.674227 
L 144.330419 213.094169 
L 145.270136 213.094169 
L 145.270136 212.567483 
L 149.735275 212.567483 
L 149.735275 212.040797 
L 149.955193 212.040797 
L 149.955193 211.514111 
L 152.811246 211.514111 
L 152.811246 210.460738 
L 155.520713 210.460738 
L 155.520713 209.934052 
L 156.266892 209.934052 
L 156.266892 204.667192 
L 158.51933 204.667192 
L 158.51933 204.140506 
L 159.507213 204.140506 
L 159.507213 203.613819 
L 160.513841 203.613819 
L 160.513841 202.560447 
L 161.374928 202.560447 
L 161.374928 202.033761 
L 163.629664 202.033761 
L 163.629664 201.507075 
L 164.082658 201.507075 
L 164.082658 199.400331 
L 164.806225 199.400331 
L 164.899235 198.346959 
L 166.425924 198.346959 
L 166.425924 197.293586 
L 167.0929 197.293586 
L 167.0929 193.606784 
L 168.232714 193.606784 
L 168.232714 193.080098 
L 173.800244 193.080098 
L 173.800244 192.026726 
L 174.488079 192.026726 
L 174.520166 189.919981 
L 175.876553 189.919981 
L 175.876553 189.393295 
L 176.190077 189.393295 
L 176.190077 184.653121 
L 176.650041 184.653121 
L 176.650041 181.493004 
L 177.208443 181.493004 
L 177.208443 180.439632 
L 180.707163 180.439632 
L 180.789406 177.806202 
L 183.846704 177.806202 
L 183.846704 176.752829 
L 184.909109 176.752829 
L 184.909109 176.226143 
L 185.090739 176.226143 
L 185.090739 175.699457 
L 187.655344 175.699457 
L 187.655344 175.172771 
L 188.365238 175.172771 
L 188.365238 174.646085 
L 188.54785 174.646085 
L 188.54785 169.90591 
L 189.779695 169.90591 
L 189.779695 164.63905 
L 190.005407 164.63905 
L 190.005407 164.112363 
L 191.104509 164.112363 
L 191.104509 162.532305 
L 191.281142 162.532305 
L 191.281142 160.952247 
L 192.378015 160.952247 
L 192.378015 160.425561 
L 192.648397 160.425561 
L 192.648397 159.898875 
L 193.579154 159.898875 
L 193.664921 155.685386 
L 194.160458 155.685386 
L 194.160458 154.632014 
L 197.473483 154.632014 
L 197.473483 153.578642 
L 198.054 153.578642 
L 198.054 150.945211 
L 198.397061 150.945211 
L 198.397061 149.891839 
L 201.865456 149.891839 
L 201.865456 149.365153 
L 202.649474 149.365153 
L 202.649474 148.838467 
L 202.926244 148.838467 
L 202.926244 147.785095 
L 203.186303 147.785095 
L 203.186303 147.258409 
L 203.67701 147.258409 
L 203.67701 146.205037 
L 204.306 146.205037 
L 204.306 145.151665 
L 205.250218 145.151665 
L 205.250218 144.624978 
L 205.668934 144.624978 
L 205.668934 143.571606 
L 206.032283 143.571606 
L 206.032283 143.04492 
L 206.87964 143.04492 
L 206.87964 141.991548 
L 207.40954 141.991548 
L 207.4581 134.617943 
L 208.829973 134.617943 
L 208.829973 133.564571 
L 209.590102 133.564571 
L 209.590102 133.037885 
L 209.814652 133.037885 
L 209.814652 132.511199 
L 211.018967 132.511199 
L 211.018967 129.351082 
L 211.203803 129.351082 
L 211.203803 127.771024 
L 211.333715 127.771024 
L 211.333715 126.190966 
L 213.253508 126.190966 
L 213.288254 123.030849 
L 215.538668 123.030849 
L 215.538668 121.977477 
L 216.642995 121.977477 
L 216.642995 119.344047 
L 217.621172 119.344047 
L 217.621172 118.817361 
L 217.738106 118.817361 
L 217.738106 118.290674 
L 218.332104 118.290674 
L 218.332104 117.237302 
L 219.051806 117.237302 
L 219.051806 116.710616 
L 219.901286 116.710616 
L 219.901286 115.657244 
L 220.832589 115.657244 
L 220.832589 115.130558 
L 221.242141 115.130558 
L 221.242141 114.603872 
L 221.51426 114.603872 
L 221.51426 114.077186 
L 222.046782 114.077186 
L 222.046782 113.5505 
L 222.6124 113.5505 
L 222.6124 111.970441 
L 223.808896 111.970441 
L 223.808896 111.443755 
L 225.202982 111.443755 
L 225.202982 110.390383 
L 226.206599 110.390383 
L 226.206599 109.337011 
L 227.533353 109.337011 
L 227.533353 108.810325 
L 227.74423 108.810325 
L 227.74423 107.756953 
L 227.945099 107.756953 
L 227.945099 106.703581 
L 230.726282 106.703581 
L 230.726282 105.650209 
L 230.992845 105.650209 
L 230.992845 104.596836 
L 231.687739 104.596836 
L 231.687739 103.543464 
L 235.450053 103.543464 
L 235.450053 101.43672 
L 235.649881 101.43672 
L 235.649881 100.910034 
L 235.841732 100.910034 
L 235.841732 100.383348 
L 236.28805 100.383348 
L 236.28805 98.803289 
L 237.013566 98.803289 
L 237.013566 98.276603 
L 237.255291 98.276603 
L 237.255291 97.749917 
L 237.618306 97.749917 
L 237.626905 90.376312 
L 237.742871 90.376312 
L 237.742871 89.849626 
L 237.878138 89.849626 
L 237.878138 89.32294 
L 238.313609 89.32294 
L 238.352413 88.269568 
L 239.360207 88.269568 
L 239.360207 87.216196 
L 239.648671 87.216196 
L 239.648671 86.68951 
L 240.870919 86.68951 
L 240.870919 86.162824 
L 241.001768 86.162824 
L 241.001768 85.636137 
L 241.454919 85.636137 
L 241.454919 85.109451 
L 241.898612 85.109451 
L 241.898612 84.582765 
L 242.378061 84.582765 
L 242.378061 83.002707 
L 242.759697 83.002707 
L 242.759697 82.476021 
L 243.371031 82.476021 
L 243.4533 80.369277 
L 244.650384 80.369277 
L 244.650384 79.315904 
L 245.068894 79.315904 
L 245.089643 77.735846 
L 245.500237 77.735846 
L 245.500237 77.20916 
L 246.410977 77.20916 
L 246.410977 76.682474 
L 246.935533 76.682474 
L 247.039246 75.102416 
L 248.091355 75.102416 
L 248.096073 70.888927 
L 248.234356 70.888927 
L 248.315281 69.308869 
L 248.497844 69.308869 
L 248.513202 68.255497 
L 248.756805 68.255497 
L 248.756805 67.202125 
L 249.234182 67.202125 
L 249.234182 66.148752 
L 250.02788 66.148752 
L 250.02788 65.622066 
L 250.185221 65.622066 
L 250.185221 65.09538 
L 250.567902 65.09538 
L 250.567902 64.568694 
L 250.86111 64.568694 
L 250.86111 64.042008 
L 251.424439 64.042008 
L 251.529995 62.988636 
L 252.292858 62.988636 
L 252.292858 61.408578 
L 252.845879 61.408578 
L 252.845879 60.881892 
L 253.938755 60.881892 
L 253.938755 59.82852 
L 254.589028 59.82852 
L 254.687673 57.721775 
L 254.87009 57.721775 
L 254.880748 56.141717 
L 255.384334 56.141717 
L 255.384334 55.088345 
L 256.139694 55.088345 
L 256.139694 54.561659 
L 257.028858 54.561659 
L 257.028858 54.034973 
L 259.312095 54.034973 
L 259.312095 53.508287 
L 259.526883 53.508287 
L 259.526883 52.9816 
L 259.921968 52.9816 
L 259.921968 52.454914 
L 260.443669 52.454914 
L 260.443669 51.928228 
L 260.647566 51.928228 
L 260.657209 50.874856 
L 261.804458 50.874856 
L 261.804458 50.34817 
L 263.02481 50.34817 
L 263.026814 49.294798 
L 263.205228 49.294798 
L 263.205228 48.241426 
L 265.680986 48.241426 
L 265.680986 47.71474 
L 266.135274 47.71474 
L 266.235689 44.554623 
L 266.500105 44.554623 
L 266.500105 43.501251 
L 267.700076 43.501251 
L 267.700076 42.974565 
L 267.81267 42.974565 
L 267.81267 41.921193 
L 268.686092 41.921193 
L 268.686092 40.867821 
L 268.811891 40.867821 
L 268.811891 40.341135 
L 270.086766 40.341135 
L 270.086766 39.814448 
L 270.949731 39.814448 
L 271.060265 37.707704 
L 271.265308 37.707704 
L 271.265308 37.181018 
L 271.539484 37.181018 
L 271.539484 36.654332 
L 272.364451 36.654332 
L 272.364451 36.127646 
L 272.953018 36.127646 
L 272.953018 35.60096 
L 273.576579 35.60096 
L 273.576579 35.074274 
L 273.843521 35.074274 
L 273.843521 34.547588 
L 274.749711 34.547588 
L 274.749711 34.020902 
L 276.892446 34.020902 
L 276.892446 33.494215 
L 277.357416 33.494215 
L 277.357416 32.967529 
L 282.866334 32.967529 
L 282.866334 31.914157 
L 284.135671 31.914157 
L 284.135671 31.387471 
L 286.700002 31.387471 
L 286.700002 30.860785 
L 290.738101 30.860785 
L 290.738101 30.334099 
L 338.688 30.334099 
L 338.688 30.334099 
" style="fill:none;stroke:#00bfbf;stroke-linecap:square;stroke-width:1.5;"/>
   </g>
   <g id="line2d_31">
    <defs>
     <path d="M -6 0 
L 6 0 
M 0 6 
L 0 -6 
" id="md4dfe6243f" style="stroke:#00bfbf;stroke-width:1.5;"/>
    </defs>
    <g>
     <use style="fill-opacity:0;stroke:#00bfbf;stroke-width:1.5;" x="125.822869" xlink:href="#md4dfe6243f" y="229.421437"/>
     <use style="fill-opacity:0;stroke:#00bfbf;stroke-width:1.5;" x="207.40954" xlink:href="#md4dfe6243f" y="141.991548"/>
     <use style="fill-opacity:0;stroke:#00bfbf;stroke-width:1.5;" x="251.529995" xlink:href="#md4dfe6243f" y="63.515322"/>
     <use style="fill-opacity:0;stroke:#00bfbf;stroke-width:1.5;" x="290.738101" xlink:href="#md4dfe6243f" y="30.334099"/>
     <use style="fill-opacity:0;stroke:#00bfbf;stroke-width:1.5;" x="290.738101" xlink:href="#md4dfe6243f" y="30.334099"/>
     <use style="fill-opacity:0;stroke:#00bfbf;stroke-width:1.5;" x="338.688" xlink:href="#md4dfe6243f" y="30.334099"/>
    </g>
   </g>
   <g id="line2d_32">
    <path style="fill:none;stroke:#00bfbf;stroke-linecap:square;stroke-width:1.5;"/>
    <g/>
   </g>
   <g id="line2d_33">
    <path clip-path="url(#p73c532bf5a)" d="M 234.223474 103.543464 
" style="fill:none;stroke:#00bfbf;stroke-linecap:square;stroke-width:1.5;"/>
    <defs>
     <path d="M -12 12 
L 12 -12 
M -12 -12 
L 12 12 
" id="m1693294d5f" style="stroke:#00bfbf;"/>
    </defs>
    <g clip-path="url(#p73c532bf5a)">
     <use style="fill:#00bfbf;stroke:#00bfbf;" x="234.223474" xlink:href="#m1693294d5f" y="103.543464"/>
    </g>
   </g>
   <g id="line2d_34">
    <defs>
     <path d="M 0 1.5 
C 0.397805 1.5 0.77937 1.341951 1.06066 1.06066 
C 1.341951 0.77937 1.5 0.397805 1.5 0 
C 1.5 -0.397805 1.341951 -0.77937 1.06066 -1.06066 
C 0.77937 -1.341951 0.397805 -1.5 0 -1.5 
C -0.397805 -1.5 -0.77937 -1.341951 -1.06066 -1.06066 
C -1.341951 -0.77937 -1.5 -0.397805 -1.5 0 
C -1.5 0.397805 -1.341951 0.77937 -1.06066 1.06066 
C -0.77937 1.341951 -0.397805 1.5 0 1.5 
z
" id="mec9c825437" style="stroke:#008000;"/>
    </defs>
    <g>
     <use style="fill:#008000;stroke:#008000;" x="307.384824" xlink:href="#mec9c825437" y="61.935264"/>
     <use style="fill:#008000;stroke:#008000;" x="307.384824" xlink:href="#mec9c825437" y="61.935264"/>
    </g>
   </g>
   <g id="line2d_35">
    <path d="M 38.440992 298.944 
L 38.440992 281.036673 
L 50.52898 281.036673 
L 50.52898 276.823185 
L 57.6 276.823185 
L 57.6 274.189754 
L 62.616969 274.189754 
L 62.616969 272.08301 
L 66.508432 272.08301 
L 66.508432 269.976266 
L 72.376266 269.976266 
L 72.376266 267.342835 
L 76.759008 267.342835 
L 76.759008 266.816149 
L 83.171864 266.816149 
L 83.171864 265.762777 
L 90.684409 265.762777 
L 90.684409 265.236091 
L 93.863965 265.236091 
L 93.863965 264.709405 
L 96.552242 264.709405 
L 96.552242 264.182719 
L 97.16421 264.182719 
L 97.16421 262.60266 
L 97.755429 262.60266 
L 97.755429 262.075974 
L 100.934985 262.075974 
L 100.934985 261.549288 
L 102.772397 261.549288 
L 102.772397 260.495916 
L 103.623262 260.495916 
L 103.623262 259.442544 
L 107.680028 259.442544 
L 107.680028 258.389172 
L 113.73488 258.389172 
L 113.73488 257.3358 
L 115.711251 257.3358 
L 115.711251 256.809114 
L 117.107138 256.809114 
L 117.107138 256.282427 
L 117.857331 256.282427 
L 117.857331 255.229055 
L 122.362027 255.229055 
L 122.362027 254.702369 
L 122.643312 254.702369 
L 122.643312 253.648997 
L 127.902737 253.648997 
L 127.902737 253.122311 
L 128.107907 253.122311 
L 128.107907 251.542253 
L 129.480244 251.542253 
L 129.480244 250.488881 
L 129.945319 250.488881 
L 129.945319 249.435508 
L 132.816208 249.435508 
L 132.816208 248.382136 
L 138.594838 248.382136 
L 138.594838 247.85545 
L 138.816998 247.85545 
L 138.816998 247.328764 
L 141.378673 247.328764 
L 141.378673 246.802078 
L 142.796538 246.802078 
L 142.796538 245.748706 
L 143.40093 245.748706 
L 143.40093 245.22202 
L 144.826168 245.22202 
L 144.826168 244.168648 
L 149.104327 244.168648 
L 149.104327 243.641962 
L 151.069768 243.641962 
L 151.069768 243.115275 
L 151.260066 243.115275 
L 151.260066 242.061903 
L 154.994001 242.061903 
L 154.994001 240.481845 
L 157.011638 240.481845 
L 157.011638 238.901787 
L 157.491032 238.901787 
L 157.491032 238.375101 
L 157.809652 238.375101 
L 157.809652 237.848415 
L 158.249784 237.848415 
L 158.249784 236.795043 
L 159.320876 236.795043 
L 159.320876 235.74167 
L 161.749336 235.74167 
L 161.749336 233.634926 
L 162.360793 233.634926 
L 162.360793 233.10824 
L 162.574077 233.10824 
L 162.574077 232.581554 
L 163.656248 232.581554 
L 163.656248 231.528182 
L 165.459092 231.528182 
L 165.459092 231.001496 
L 167.427761 231.001496 
L 167.427761 230.47481 
L 170.192293 230.47481 
L 170.192293 229.948123 
L 171.485334 229.948123 
L 171.485334 229.421437 
L 172.924861 229.421437 
L 172.924861 228.894751 
L 174.781778 228.894751 
L 174.781778 228.368065 
L 175.803903 228.368065 
L 175.803903 227.841379 
L 176.190077 227.841379 
L 176.190077 226.788007 
L 177.973027 226.788007 
L 177.973027 225.734635 
L 179.365318 225.734635 
L 179.381498 224.681263 
L 180.639584 224.681263 
L 180.639584 224.154577 
L 183.209233 224.154577 
L 183.209233 223.101204 
L 183.569083 223.101204 
L 183.649459 219.941088 
L 183.729465 219.941088 
L 183.729465 219.414402 
L 183.93412 219.414402 
L 183.93412 217.307658 
L 184.320124 217.307658 
L 184.320124 216.780971 
L 186.750054 216.780971 
L 186.750054 214.147541 
L 187.251537 214.147541 
L 187.251537 213.620855 
L 188.671702 213.620855 
L 188.671702 212.040797 
L 191.458701 212.040797 
L 191.458701 210.460738 
L 193.856369 210.460738 
L 193.856369 209.407366 
L 195.441625 209.407366 
L 195.441625 207.827308 
L 196.071864 207.827308 
L 196.071864 207.300622 
L 196.234646 207.300622 
L 196.234646 206.773936 
L 197.540216 206.773936 
L 197.540216 206.24725 
L 199.125374 206.24725 
L 199.125374 205.193878 
L 200.38223 205.193878 
L 200.38223 204.667192 
L 201.574202 204.667192 
L 201.574202 204.140506 
L 203.359592 204.140506 
L 203.359592 203.613819 
L 203.687714 203.613819 
L 203.687714 202.560447 
L 204.247157 202.560447 
L 204.247157 201.507075 
L 204.742682 201.507075 
L 204.742682 198.346959 
L 206.803168 198.346959 
L 206.810998 194.660156 
L 207.350548 194.660156 
L 207.350548 194.13347 
L 207.538196 194.13347 
L 207.538196 193.606784 
L 207.719602 193.606784 
L 207.720663 192.553412 
L 209.123326 192.553412 
L 209.221972 191.50004 
L 209.513648 191.50004 
L 209.513648 190.446667 
L 210.120727 190.446667 
L 210.120727 189.393295 
L 210.286439 189.393295 
L 210.286439 188.339923 
L 210.588017 188.339923 
L 210.588017 187.813237 
L 210.719005 187.813237 
L 210.719005 187.286551 
L 211.005344 187.286551 
L 211.005344 186.759865 
L 211.712678 186.759865 
L 211.802786 184.653121 
L 212.363179 184.653121 
L 212.363179 183.599748 
L 212.772361 183.599748 
L 212.772361 183.073062 
L 212.946289 183.073062 
L 212.946289 182.01969 
L 213.098235 182.01969 
L 213.098235 181.493004 
L 213.329859 181.493004 
L 213.369061 179.912946 
L 213.945275 179.912946 
L 213.945275 178.859574 
L 214.065205 178.859574 
L 214.065205 176.752829 
L 215.039367 176.752829 
L 215.129137 174.646085 
L 215.177656 174.646085 
L 215.177656 174.119399 
L 215.737537 174.119399 
L 215.737537 173.592713 
L 216.291044 173.592713 
L 216.291044 173.066027 
L 216.595519 173.066027 
L 216.595519 172.539341 
L 216.756854 172.539341 
L 216.867776 169.90591 
L 217.044668 169.90591 
L 217.044668 169.379224 
L 217.269582 169.379224 
L 217.269582 168.852538 
L 218.982661 168.852538 
L 219.093605 167.27248 
L 219.234043 167.27248 
L 219.234043 166.219108 
L 220.03644 166.219108 
L 220.078821 164.63905 
L 220.363902 164.63905 
L 220.363902 164.112363 
L 220.654006 164.112363 
L 220.654006 163.058991 
L 221.192695 163.058991 
L 221.192695 162.532305 
L 223.492315 162.532305 
L 223.492315 162.005619 
L 225.687021 162.005619 
L 225.687021 161.478933 
L 228.52936 161.478933 
L 228.52936 160.952247 
L 228.792287 160.952247 
L 228.792287 160.425561 
L 229.77522 160.425561 
L 229.77522 159.372189 
L 231.411758 159.372189 
L 231.411758 158.318817 
L 231.879382 158.318817 
L 231.881242 155.685386 
L 232.056719 155.685386 
L 232.101626 154.632014 
L 232.562076 154.632014 
L 232.562076 154.105328 
L 232.72606 154.105328 
L 232.72606 153.578642 
L 232.88601 153.578642 
L 232.88601 152.52527 
L 233.074048 152.52527 
L 233.176192 150.945211 
L 233.492408 150.945211 
L 233.545604 149.365153 
L 233.67645 149.365153 
L 233.67645 147.258409 
L 233.858333 147.258409 
L 233.896708 145.678351 
L 234.245058 145.678351 
L 234.245058 144.624978 
L 234.748903 144.624978 
L 234.806044 142.518234 
L 234.90883 142.518234 
L 234.989914 140.938176 
L 235.672442 140.938176 
L 235.726854 139.884804 
L 236.05984 139.884804 
L 236.05984 137.778059 
L 236.513922 137.778059 
L 236.513922 137.251373 
L 237.762313 137.251373 
L 237.762313 136.724687 
L 240.906256 136.724687 
L 240.906256 135.671315 
L 241.499807 135.671315 
L 241.499807 135.144629 
L 241.763573 135.144629 
L 241.764628 133.037885 
L 242.109611 133.037885 
L 242.109611 132.511199 
L 242.24897 132.511199 
L 242.341796 130.404454 
L 242.45138 130.404454 
L 242.526555 129.351082 
L 242.696954 129.351082 
L 242.805755 125.137593 
L 242.843902 125.137593 
L 242.91374 124.084221 
L 243.268614 124.084221 
L 243.268614 123.030849 
L 243.449059 123.030849 
L 243.507794 119.344047 
L 244.256758 119.344047 
L 244.256758 118.817361 
L 247.849747 118.817361 
L 247.849747 118.290674 
L 248.033436 118.290674 
L 248.033436 117.763988 
L 248.373666 117.763988 
L 248.475397 116.18393 
L 248.69017 116.18393 
L 248.712444 115.130558 
L 248.844186 115.130558 
L 248.844186 114.077186 
L 249.008993 114.077186 
L 249.097498 112.497128 
L 249.251799 112.497128 
L 249.296768 108.810325 
L 250.018401 108.810325 
L 250.018401 108.283639 
L 250.482868 108.283639 
L 250.482868 107.756953 
L 250.973455 107.756953 
L 250.973455 107.230267 
L 252.494677 107.230267 
L 252.494677 106.703581 
L 252.636153 106.703581 
L 252.636153 106.176895 
L 252.911812 106.176895 
L 252.911812 105.123522 
L 253.159441 105.123522 
L 253.202041 103.016778 
L 253.38968 103.016778 
L 253.38968 101.963406 
L 253.578843 101.963406 
L 253.592309 99.329976 
L 254.179861 99.329976 
L 254.179861 98.803289 
L 256.317292 98.803289 
L 256.317292 98.276603 
L 256.575993 98.276603 
L 256.575993 97.749917 
L 256.73454 97.749917 
L 256.751714 96.696545 
L 257.053899 96.696545 
L 257.071637 95.116487 
L 259.584367 95.116487 
L 259.584367 94.589801 
L 259.800321 94.589801 
L 259.800321 94.063115 
L 259.931515 94.063115 
L 259.955905 92.483056 
L 261.84696 92.483056 
L 261.84696 91.95637 
L 262.06701 91.95637 
L 262.06701 91.429684 
L 262.218495 91.429684 
L 262.218495 90.902998 
L 262.408995 90.902998 
L 262.417113 89.849626 
L 264.5779 89.849626 
L 264.5779 89.32294 
L 266.513071 89.32294 
L 266.523385 87.742882 
L 267.99911 87.742882 
L 268.081644 85.109451 
L 268.161833 85.109451 
L 268.248983 84.056079 
L 269.82233 84.056079 
L 269.827637 82.476021 
L 271.065348 82.476021 
L 271.142124 81.422649 
L 271.275174 81.422649 
L 271.275174 79.315904 
L 272.60719 79.315904 
L 272.611714 77.735846 
L 273.84886 77.735846 
L 273.84886 77.20916 
L 274.888641 77.20916 
L 274.888641 76.682474 
L 275.007969 76.682474 
L 275.011911 75.102416 
L 276.989116 75.102416 
L 276.989116 74.049044 
L 278.006955 74.049044 
L 278.006955 73.522358 
L 278.999857 73.522358 
L 278.999857 72.468985 
L 279.869786 72.468985 
L 279.872769 70.362241 
L 280.623846 70.362241 
L 280.701218 68.782183 
L 281.489372 68.782183 
L 281.489372 68.255497 
L 285.605672 68.255497 
L 285.605672 67.728811 
L 288.417787 67.728811 
L 288.417787 67.202125 
L 289.911322 67.202125 
L 289.912999 66.148752 
L 290.383667 66.148752 
L 290.383667 65.622066 
L 291.286977 65.622066 
L 291.288527 64.568694 
L 293.36439 64.568694 
L 293.36439 64.042008 
L 296.572987 64.042008 
L 296.572987 63.515322 
L 297.828118 63.515322 
L 297.828118 62.988636 
L 301.868221 62.988636 
L 301.868221 62.46195 
L 307.384824 62.46195 
L 307.384824 61.935264 
L 338.688 61.935264 
L 338.688 61.935264 
" style="fill:none;stroke:#008000;stroke-linecap:square;stroke-width:1.5;"/>
   </g>
   <g id="line2d_36">
    <defs>
     <path d="M -0 6 
L 6 -6 
L -6 -6 
z
" id="m134331ddb6" style="stroke:#008000;stroke-linejoin:miter;stroke-width:1.5;"/>
    </defs>
    <g>
     <use style="fill-opacity:0;stroke:#008000;stroke-linejoin:miter;stroke-width:1.5;" x="107.680028" xlink:href="#m134331ddb6" y="258.389172"/>
     <use style="fill-opacity:0;stroke:#008000;stroke-linejoin:miter;stroke-width:1.5;" x="197.540216" xlink:href="#m134331ddb6" y="206.773936"/>
     <use style="fill-opacity:0;stroke:#008000;stroke-linejoin:miter;stroke-width:1.5;" x="243.268614" xlink:href="#m134331ddb6" y="123.030849"/>
     <use style="fill-opacity:0;stroke:#008000;stroke-linejoin:miter;stroke-width:1.5;" x="301.868221" xlink:href="#m134331ddb6" y="62.46195"/>
     <use style="fill-opacity:0;stroke:#008000;stroke-linejoin:miter;stroke-width:1.5;" x="307.384824" xlink:href="#m134331ddb6" y="61.935264"/>
     <use style="fill-opacity:0;stroke:#008000;stroke-linejoin:miter;stroke-width:1.5;" x="338.688" xlink:href="#m134331ddb6" y="61.935264"/>
    </g>
   </g>
   <g id="line2d_37">
    <path style="fill:none;stroke:#008000;stroke-linecap:square;stroke-width:1.5;"/>
    <g/>
   </g>
   <g id="line2d_38">
    <path clip-path="url(#p73c532bf5a)" d="M 227.152454 161.478933 
" style="fill:none;stroke:#008000;stroke-linecap:square;stroke-width:1.5;"/>
    <defs>
     <path d="M -12 12 
L 12 -12 
M -12 -12 
L 12 12 
" id="me55f276dca" style="stroke:#008000;"/>
    </defs>
    <g clip-path="url(#p73c532bf5a)">
     <use style="fill:#008000;stroke:#008000;" x="227.152454" xlink:href="#me55f276dca" y="161.478933"/>
    </g>
   </g>
   <g id="line2d_39">
    <defs>
     <path d="M 0 1.5 
C 0.397805 1.5 0.77937 1.341951 1.06066 1.06066 
C 1.341951 0.77937 1.5 0.397805 1.5 0 
C 1.5 -0.397805 1.341951 -0.77937 1.06066 -1.06066 
C 0.77937 -1.341951 0.397805 -1.5 0 -1.5 
C -0.397805 -1.5 -0.77937 -1.341951 -1.06066 -1.06066 
C -1.341951 -0.77937 -1.5 -0.397805 -1.5 0 
C -1.5 0.397805 -1.341951 0.77937 -1.06066 1.06066 
C -0.77937 1.341951 -0.397805 1.5 0 1.5 
z
" id="m9943ae33b7" style="stroke:#0000ff;"/>
    </defs>
    <g>
     <use style="fill:#0000ff;stroke:#0000ff;" x="292.270947" xlink:href="#m9943ae33b7" y="193.606784"/>
     <use style="fill:#0000ff;stroke:#0000ff;" x="292.270947" xlink:href="#m9943ae33b7" y="193.606784"/>
    </g>
   </g>
   <g id="line2d_40">
    <path d="M 29.53256 298.944 
L 29.53256 288.936964 
L 41.620548 288.936964 
L 41.620548 281.036673 
L 48.691568 281.036673 
L 48.691568 277.349871 
L 53.708537 277.349871 
L 53.708537 276.823185 
L 60.779557 276.823185 
L 60.779557 276.296499 
L 67.850577 276.296499 
L 67.850577 275.769812 
L 69.687988 275.769812 
L 69.687988 273.663068 
L 71.35013 273.663068 
L 71.35013 273.136382 
L 74.263433 273.136382 
L 74.263433 271.556324 
L 75.555822 271.556324 
L 75.555822 271.029638 
L 79.938565 271.029638 
L 79.938565 270.502952 
L 84.213325 270.502952 
L 84.213325 269.976266 
L 88.846997 269.976266 
L 88.846997 269.449579 
L 92.504372 269.449579 
L 92.504372 268.922893 
L 92.969447 268.922893 
L 92.969447 268.396207 
L 104.355088 268.396207 
L 104.355088 267.869521 
L 108.764355 267.869521 
L 108.764355 267.342835 
L 109.491096 267.342835 
L 109.491096 266.816149 
L 109.668146 266.816149 
L 109.668146 266.289463 
L 117.145424 266.289463 
L 117.145424 265.762777 
L 119.301163 265.762777 
L 119.301163 265.236091 
L 124.594752 265.236091 
L 124.594752 264.709405 
L 126.70692 264.709405 
L 126.70692 264.182719 
L 127.861412 264.182719 
L 127.861412 263.129347 
L 128.411207 263.129347 
L 128.411207 262.60266 
L 130.127931 262.60266 
L 130.127931 262.075974 
L 131.236397 262.075974 
L 131.236397 261.022602 
L 138.084384 261.022602 
L 138.084384 259.96923 
L 138.290362 259.96923 
L 138.290362 259.442544 
L 141.46423 259.442544 
L 141.46423 258.915858 
L 143.578237 258.915858 
L 143.578237 258.389172 
L 148.676918 258.389172 
L 148.676918 257.862486 
L 149.122675 257.862486 
L 149.122675 257.3358 
L 149.25057 257.3358 
L 149.25057 256.809114 
L 149.752971 256.809114 
L 149.752971 256.282427 
L 151.975216 256.282427 
L 151.975216 255.755741 
L 152.421022 255.755741 
L 152.421022 255.229055 
L 155.514359 255.229055 
L 155.577798 253.648997 
L 157.517493 253.648997 
L 157.517493 252.595625 
L 158.868869 252.595625 
L 158.868869 252.068939 
L 160.585265 252.068939 
L 160.585265 251.542253 
L 162.320689 251.542253 
L 162.320689 250.488881 
L 162.68677 250.488881 
L 162.68677 249.435508 
L 164.202782 249.435508 
L 164.202782 248.908822 
L 167.249248 248.908822 
L 167.249248 248.382136 
L 167.474773 248.382136 
L 167.513144 247.328764 
L 167.879768 247.328764 
L 167.942207 246.275392 
L 170.777667 246.275392 
L 170.777667 245.748706 
L 173.026049 245.748706 
L 173.026049 245.22202 
L 173.517329 245.22202 
L 173.517329 244.168648 
L 175.19099 244.168648 
L 175.19099 243.641962 
L 175.5935 243.641962 
L 175.5935 243.115275 
L 175.773432 243.115275 
L 175.773432 242.588589 
L 178.101129 242.588589 
L 178.101129 242.061903 
L 180.777468 242.061903 
L 180.786423 241.008531 
L 181.381918 241.008531 
L 181.381918 239.955159 
L 182.547572 239.955159 
L 182.547572 239.428473 
L 183.751298 239.428473 
L 183.751298 238.901787 
L 188.399985 238.901787 
L 188.399985 238.375101 
L 189.186172 238.375101 
L 189.186172 236.795043 
L 191.330932 236.795043 
L 191.330932 236.268356 
L 196.741985 236.268356 
L 196.741985 235.74167 
L 197.765593 235.74167 
L 197.765593 235.214984 
L 198.620108 235.214984 
L 198.673688 234.161612 
L 199.416254 234.161612 
L 199.416254 233.634926 
L 201.738023 233.634926 
L 201.738023 232.581554 
L 202.119758 232.581554 
L 202.119758 232.054868 
L 205.242145 232.054868 
L 205.242145 231.528182 
L 206.793543 231.528182 
L 206.793543 231.001496 
L 208.787489 231.001496 
L 208.787489 230.47481 
L 209.506942 230.47481 
L 209.506942 229.948123 
L 210.359587 229.948123 
L 210.454585 228.894751 
L 210.633346 228.894751 
L 210.633346 228.368065 
L 211.341996 228.368065 
L 211.341996 227.841379 
L 211.48013 227.841379 
L 211.48013 226.788007 
L 212.904546 226.788007 
L 212.904546 226.261321 
L 213.097923 226.261321 
L 213.097923 225.734635 
L 213.448578 225.734635 
L 213.448578 225.207949 
L 214.980243 225.207949 
L 215.030155 224.154577 
L 215.733649 224.154577 
L 215.733649 222.574518 
L 216.207466 222.574518 
L 216.207466 222.047832 
L 216.403282 222.047832 
L 216.484388 219.941088 
L 216.51634 219.941088 
L 216.51634 219.414402 
L 216.960259 219.414402 
L 216.960259 218.887716 
L 217.581959 218.887716 
L 217.581959 218.36103 
L 225.015702 218.36103 
L 225.015702 217.834344 
L 227.220248 217.834344 
L 227.220248 216.780971 
L 227.948095 216.780971 
L 227.948095 214.674227 
L 228.098603 214.674227 
L 228.098603 214.147541 
L 229.121956 214.147541 
L 229.121956 213.094169 
L 230.004121 213.094169 
L 230.021327 211.514111 
L 230.303075 211.514111 
L 230.303075 210.987425 
L 235.850492 210.987425 
L 235.850492 210.460738 
L 236.605727 210.460738 
L 236.605727 209.934052 
L 236.815103 209.934052 
L 236.815103 209.407366 
L 245.837468 209.407366 
L 245.837468 208.88068 
L 249.382406 208.88068 
L 249.382406 208.353994 
L 251.345404 208.353994 
L 251.345404 207.300622 
L 251.748803 207.300622 
L 251.842048 206.24725 
L 253.941859 206.24725 
L 253.941859 205.720564 
L 254.213254 205.720564 
L 254.289831 204.140506 
L 255.916933 204.140506 
L 255.916933 203.613819 
L 258.164064 203.613819 
L 258.164064 203.087133 
L 259.651693 203.087133 
L 259.651693 202.560447 
L 259.903204 202.560447 
L 259.903204 202.033761 
L 261.203638 202.033761 
L 261.203638 201.507075 
L 261.383073 201.507075 
L 261.383073 200.980389 
L 262.628688 200.980389 
L 262.628688 199.927017 
L 262.794111 199.927017 
L 262.794111 199.400331 
L 263.946036 199.400331 
L 263.946036 198.346959 
L 265.35446 198.346959 
L 265.35446 197.820273 
L 267.3891 197.820273 
L 267.3891 197.293586 
L 269.501398 197.293586 
L 269.501398 196.7669 
L 270.400504 196.7669 
L 270.400504 196.240214 
L 272.070566 196.240214 
L 272.070566 195.713528 
L 273.480321 195.713528 
L 273.480321 195.186842 
L 274.996049 195.186842 
L 274.996049 194.660156 
L 276.812894 194.660156 
L 276.812894 194.13347 
L 292.270947 194.13347 
L 292.270947 193.606784 
L 338.688 193.606784 
L 338.688 193.606784 
" style="fill:none;stroke:#0000ff;stroke-linecap:square;stroke-width:1.5;"/>
   </g>
   <g id="line2d_41">
    <defs>
     <path d="M 0 -6 
L -1.347084 -1.854102 
L -5.706339 -1.854102 
L -2.179628 0.708204 
L -3.526712 4.854102 
L -0 2.291796 
L 3.526712 4.854102 
L 2.179628 0.708204 
L 5.706339 -1.854102 
L 1.347084 -1.854102 
z
" id="m734c095e2e" style="stroke:#0000ff;stroke-linejoin:bevel;stroke-width:1.5;"/>
    </defs>
    <g>
     <use style="fill-opacity:0;stroke:#0000ff;stroke-linejoin:bevel;stroke-width:1.5;" x="109.668146" xlink:href="#m734c095e2e" y="266.289463"/>
     <use style="fill-opacity:0;stroke:#0000ff;stroke-linejoin:bevel;stroke-width:1.5;" x="164.202782" xlink:href="#m734c095e2e" y="248.908822"/>
     <use style="fill-opacity:0;stroke:#0000ff;stroke-linejoin:bevel;stroke-width:1.5;" x="230.303075" xlink:href="#m734c095e2e" y="210.987425"/>
     <use style="fill-opacity:0;stroke:#0000ff;stroke-linejoin:bevel;stroke-width:1.5;" x="292.270947" xlink:href="#m734c095e2e" y="194.13347"/>
     <use style="fill-opacity:0;stroke:#0000ff;stroke-linejoin:bevel;stroke-width:1.5;" x="292.270947" xlink:href="#m734c095e2e" y="193.606784"/>
     <use style="fill-opacity:0;stroke:#0000ff;stroke-linejoin:bevel;stroke-width:1.5;" x="338.688" xlink:href="#m734c095e2e" y="193.606784"/>
    </g>
   </g>
   <g id="line2d_42">
    <path style="fill:none;stroke:#0000ff;stroke-linecap:square;stroke-width:1.5;"/>
    <g/>
   </g>
   <g id="line2d_43">
    <path clip-path="url(#p73c532bf5a)" d="M 218.244022 218.36103 
" style="fill:none;stroke:#0000ff;stroke-linecap:square;stroke-width:1.5;"/>
    <defs>
     <path d="M -12 12 
L 12 -12 
M -12 -12 
L 12 12 
" id="m8cf63d675f" style="stroke:#0000ff;"/>
    </defs>
    <g clip-path="url(#p73c532bf5a)">
     <use style="fill:#0000ff;stroke:#0000ff;" x="218.244022" xlink:href="#m8cf63d675f" y="218.36103"/>
    </g>
   </g>
   <g id="line2d_44">
    <defs>
     <path d="M 0 1.5 
C 0.397805 1.5 0.77937 1.341951 1.06066 1.06066 
C 1.341951 0.77937 1.5 0.397805 1.5 0 
C 1.5 -0.397805 1.341951 -0.77937 1.06066 -1.06066 
C 0.77937 -1.341951 0.397805 -1.5 0 -1.5 
C -0.397805 -1.5 -0.77937 -1.341951 -1.06066 -1.06066 
C -1.341951 -0.77937 -1.5 -0.397805 -1.5 0 
C -1.5 0.397805 -1.341951 0.77937 -1.06066 1.06066 
C -0.77937 1.341951 -0.397805 1.5 0 1.5 
z
" id="mab7506c79c" style="stroke:#000000;"/>
    </defs>
    <g>
     <use style="stroke:#000000;" x="267.030854" xlink:href="#mab7506c79c" y="235.74167"/>
     <use style="stroke:#000000;" x="267.030854" xlink:href="#mab7506c79c" y="235.74167"/>
    </g>
   </g>
   <g id="line2d_45">
    <path d="M 17.444571 298.944 
L 17.444571 287.883592 
L 29.53256 287.883592 
L 29.53256 284.723476 
L 36.60358 284.723476 
L 36.60358 282.616732 
L 41.620548 282.616732 
L 41.620548 282.090045 
L 45.512012 282.090045 
L 45.512012 281.036673 
L 51.379845 281.036673 
L 51.379845 280.509987 
L 53.708537 280.509987 
L 53.708537 279.983301 
L 55.762588 279.983301 
L 55.762588 278.403243 
L 64.67102 278.403243 
L 64.67102 277.876557 
L 73.579452 277.876557 
L 73.579452 277.349871 
L 75.555822 277.349871 
L 75.555822 276.823185 
L 80.881459 276.823185 
L 80.881459 275.769812 
L 88.553893 275.769812 
L 88.553893 275.243126 
L 95.125186 275.243126 
L 95.125186 274.71644 
L 99.575392 274.71644 
L 99.575392 274.189754 
L 100.789049 274.189754 
L 100.789049 273.663068 
L 103.117741 273.663068 
L 103.117741 273.136382 
L 104.942325 273.136382 
L 104.942325 272.609696 
L 108.102622 272.609696 
L 108.102622 272.08301 
L 114.552496 272.08301 
L 114.552496 271.556324 
L 125.147256 271.556324 
L 125.147256 271.029638 
L 127.261631 271.029638 
L 127.261631 270.502952 
L 128.260216 270.502952 
L 128.260216 269.976266 
L 128.501178 269.976266 
L 128.501178 269.449579 
L 131.312942 269.449579 
L 131.312942 268.922893 
L 138.89409 268.922893 
L 138.89409 268.396207 
L 142.499711 268.396207 
L 142.606619 267.342835 
L 144.160633 267.342835 
L 144.160633 266.816149 
L 146.78088 266.816149 
L 146.78088 266.289463 
L 149.530471 266.289463 
L 149.530471 265.762777 
L 155.361158 265.762777 
L 155.361158 265.236091 
L 156.735331 265.236091 
L 156.735331 264.709405 
L 159.768105 264.709405 
L 159.768105 264.182719 
L 161.040208 264.182719 
L 161.146363 263.129347 
L 162.559939 263.129347 
L 162.559939 262.60266 
L 164.622474 262.60266 
L 164.622474 262.075974 
L 165.189927 262.075974 
L 165.189927 261.549288 
L 165.576079 261.549288 
L 165.576079 261.022602 
L 166.261982 261.022602 
L 166.261982 260.495916 
L 167.860992 260.495916 
L 167.860992 259.96923 
L 168.566635 259.96923 
L 168.566635 259.442544 
L 168.844047 259.442544 
L 168.844047 258.915858 
L 170.316028 258.915858 
L 170.316028 258.389172 
L 171.307238 258.389172 
L 171.307238 257.862486 
L 172.566008 257.862486 
L 172.566008 257.3358 
L 173.421995 257.3358 
L 173.421995 256.809114 
L 177.168096 256.809114 
L 177.168096 256.282427 
L 179.564362 256.282427 
L 179.564362 255.755741 
L 181.196361 255.755741 
L 181.196361 255.229055 
L 184.953813 255.229055 
L 184.953813 254.702369 
L 185.28549 254.702369 
L 185.28549 254.175683 
L 185.511122 254.175683 
L 185.511122 253.648997 
L 187.903139 253.648997 
L 187.903139 253.122311 
L 188.917735 253.122311 
L 188.917735 252.595625 
L 189.234037 252.595625 
L 189.234037 252.068939 
L 195.37496 252.068939 
L 195.37496 251.542253 
L 199.124158 251.542253 
L 199.124158 251.015567 
L 201.127915 251.015567 
L 201.127915 250.488881 
L 201.978692 250.488881 
L 201.978692 249.435508 
L 202.627739 249.435508 
L 202.627739 248.908822 
L 202.887633 248.908822 
L 202.887633 248.382136 
L 203.238265 248.382136 
L 203.238265 247.85545 
L 204.002816 247.85545 
L 204.002816 247.328764 
L 204.726557 247.328764 
L 204.726557 246.802078 
L 215.910553 246.802078 
L 215.910553 246.275392 
L 216.484002 246.275392 
L 216.484002 245.748706 
L 223.794586 245.748706 
L 223.794586 245.22202 
L 224.030654 245.22202 
L 224.030654 244.695334 
L 224.161647 244.695334 
L 224.161647 243.641962 
L 224.527703 243.641962 
L 224.527703 243.115275 
L 229.818114 243.115275 
L 229.818114 242.588589 
L 237.062121 242.588589 
L 237.062121 241.535217 
L 241.996365 241.535217 
L 241.996365 241.008531 
L 245.973382 241.008531 
L 245.973382 240.481845 
L 246.107717 240.481845 
L 246.107717 239.955159 
L 249.321397 239.955159 
L 249.321397 239.428473 
L 253.246917 239.428473 
L 253.246917 238.901787 
L 254.380926 238.901787 
L 254.380926 237.848415 
L 255.367162 237.848415 
L 255.367162 237.321729 
L 260.690612 237.321729 
L 260.690612 236.795043 
L 263.557875 236.795043 
L 263.557875 236.268356 
L 267.030854 236.268356 
L 267.030854 235.74167 
L 338.688 235.74167 
L 338.688 235.74167 
" style="fill:none;stroke:#000000;stroke-linecap:square;stroke-width:1.5;"/>
   </g>
   <g id="line2d_46">
    <defs>
     <path d="M 0 6 
C 1.591219 6 3.117479 5.367802 4.242641 4.242641 
C 5.367802 3.117479 6 1.591219 6 0 
C 6 -1.591219 5.367802 -3.117479 4.242641 -4.242641 
C 3.117479 -5.367802 1.591219 -6 0 -6 
C -1.591219 -6 -3.117479 -5.367802 -4.242641 -4.242641 
C -5.367802 -3.117479 -6 -1.591219 -6 0 
C -6 1.591219 -5.367802 3.117479 -4.242641 4.242641 
C -3.117479 5.367802 -1.591219 6 0 6 
z
" id="mc6e4bd94f4" style="stroke:#000000;stroke-width:1.5;"/>
    </defs>
    <g>
     <use style="fill-opacity:0;stroke:#000000;stroke-width:1.5;" x="80.881459" xlink:href="#mc6e4bd94f4" y="275.769812"/>
     <use style="fill-opacity:0;stroke:#000000;stroke-width:1.5;" x="171.307238" xlink:href="#mc6e4bd94f4" y="257.862486"/>
     <use style="fill-opacity:0;stroke:#000000;stroke-width:1.5;" x="216.484002" xlink:href="#mc6e4bd94f4" y="245.748706"/>
     <use style="fill-opacity:0;stroke:#000000;stroke-width:1.5;" x="267.030854" xlink:href="#mc6e4bd94f4" y="235.74167"/>
     <use style="fill-opacity:0;stroke:#000000;stroke-width:1.5;" x="267.030854" xlink:href="#mc6e4bd94f4" y="235.74167"/>
     <use style="fill-opacity:0;stroke:#000000;stroke-width:1.5;" x="338.688" xlink:href="#mc6e4bd94f4" y="235.74167"/>
    </g>
   </g>
   <g id="line2d_47">
    <path style="fill:none;stroke:#000000;stroke-linecap:square;stroke-width:1.5;"/>
    <g/>
   </g>
   <g id="line2d_48">
    <path clip-path="url(#p73c532bf5a)" d="M 206.156034 246.802078 
" style="fill:none;stroke:#000000;stroke-linecap:square;stroke-width:1.5;"/>
    <defs>
     <path d="M -12 12 
L 12 -12 
M -12 -12 
L 12 12 
" id="m99df4caf9b" style="stroke:#000000;"/>
    </defs>
    <g clip-path="url(#p73c532bf5a)">
     <use style="stroke:#000000;" x="206.156034" xlink:href="#m99df4caf9b" y="246.802078"/>
    </g>
   </g>
   <g id="line2d_49">
    <defs>
     <path d="M 0 1.5 
C 0.397805 1.5 0.77937 1.341951 1.06066 1.06066 
C 1.341951 0.77937 1.5 0.397805 1.5 0 
C 1.5 -0.397805 1.341951 -0.77937 1.06066 -1.06066 
C 0.77937 -1.341951 0.397805 -1.5 0 -1.5 
C -0.397805 -1.5 -0.77937 -1.341951 -1.06066 -1.06066 
C -1.341951 -0.77937 -1.5 -0.397805 -1.5 0 
C -1.5 0.397805 -1.341951 0.77937 -1.06066 1.06066 
C -0.77937 1.341951 -0.397805 1.5 0 1.5 
z
" id="mfaace01ffa" style="stroke:#ff0000;"/>
    </defs>
    <g>
     <use style="fill:#ff0000;stroke:#ff0000;" x="211.831321" xlink:href="#mfaace01ffa" y="256.809114"/>
     <use style="fill:#ff0000;stroke:#ff0000;" x="211.831321" xlink:href="#mfaace01ffa" y="256.809114"/>
    </g>
   </g>
   <g id="line2d_50">
    <path d="M 5.356583 298.944 
L 5.356583 290.517023 
L 17.444571 290.517023 
L 17.444571 289.463651 
L 24.515591 289.463651 
L 24.515591 287.883592 
L 29.53256 287.883592 
L 29.53256 287.356906 
L 33.424023 287.356906 
L 33.424023 286.303534 
L 39.291857 286.303534 
L 39.291857 285.250162 
L 41.620548 285.250162 
L 41.620548 284.19679 
L 47.174153 284.19679 
L 47.174153 283.670104 
L 50.087456 283.670104 
L 50.087456 282.616732 
L 51.379845 282.616732 
L 51.379845 282.090045 
L 56.705482 282.090045 
L 56.705482 281.563359 
L 60.779557 281.563359 
L 60.779557 281.036673 
L 64.079801 281.036673 
L 64.079801 280.509987 
L 70.11861 280.509987 
L 70.11861 279.983301 
L 73.924795 279.983301 
L 73.924795 279.456615 
L 76.759008 279.456615 
L 76.759008 278.929929 
L 78.154896 278.929929 
L 78.154896 278.403243 
L 85.492169 278.403243 
L 85.492169 277.876557 
L 104.295262 277.876557 
L 104.295262 277.349871 
L 119.923616 277.349871 
L 119.923616 276.823185 
L 121.013926 276.823185 
L 121.013926 276.296499 
L 122.489167 276.296499 
L 122.489167 275.769812 
L 122.615387 275.769812 
L 122.615387 275.243126 
L 126.756581 275.243126 
L 126.756581 274.71644 
L 129.894764 274.71644 
L 129.894764 274.189754 
L 130.004878 274.189754 
L 130.004878 273.663068 
L 130.51863 273.663068 
L 130.51863 273.136382 
L 132.422528 273.136382 
L 132.422528 272.609696 
L 144.759569 272.609696 
L 144.759569 272.08301 
L 145.281568 272.08301 
L 145.281568 271.556324 
L 146.654584 271.556324 
L 146.654584 271.029638 
L 148.502028 271.029638 
L 148.502028 270.502952 
L 149.373015 270.502952 
L 149.373015 269.976266 
L 149.9683 269.976266 
L 149.9683 269.449579 
L 151.998557 269.449579 
L 151.998557 268.922893 
L 152.211069 268.922893 
L 152.211069 268.396207 
L 152.28006 268.396207 
L 152.28006 267.869521 
L 153.025137 267.869521 
L 153.025137 267.342835 
L 160.717812 267.342835 
L 160.717812 266.816149 
L 160.828284 266.816149 
L 160.828284 266.289463 
L 161.233571 266.289463 
L 161.233571 265.762777 
L 164.233648 265.762777 
L 164.233648 265.236091 
L 166.215594 265.236091 
L 166.215594 264.709405 
L 166.88223 264.709405 
L 166.88223 264.182719 
L 166.900435 264.182719 
L 166.900435 263.656033 
L 167.208667 263.656033 
L 167.208667 263.129347 
L 168.083429 263.129347 
L 168.083429 262.60266 
L 168.126653 262.60266 
L 168.126653 262.075974 
L 189.44373 262.075974 
L 189.44373 261.549288 
L 189.493159 261.549288 
L 189.493159 261.022602 
L 189.569068 261.022602 
L 189.569068 260.495916 
L 189.60195 260.495916 
L 189.60195 259.96923 
L 189.915914 259.96923 
L 189.915914 259.442544 
L 191.96363 259.442544 
L 191.96363 258.915858 
L 192.070204 258.915858 
L 192.070204 258.389172 
L 192.364193 258.389172 
L 192.364193 257.862486 
L 205.371427 257.862486 
L 205.371427 257.3358 
L 211.831321 257.3358 
L 211.831321 256.809114 
L 338.688 256.809114 
" style="fill:none;stroke:#ff0000;stroke-linecap:square;stroke-width:1.5;"/>
   </g>
   <g id="line2d_51">
    <defs>
     <path d="M -6 6 
L 6 6 
L 6 -6 
L -6 -6 
z
" id="m39eb9cb7a1" style="stroke:#ff0000;stroke-linejoin:miter;stroke-width:1.5;"/>
    </defs>
    <g>
     <use style="fill-opacity:0;stroke:#ff0000;stroke-linejoin:miter;stroke-width:1.5;" x="132.422528" xlink:href="#m39eb9cb7a1" y="272.609696"/>
     <use style="fill-opacity:0;stroke:#ff0000;stroke-linejoin:miter;stroke-width:1.5;" x="205.371427" xlink:href="#m39eb9cb7a1" y="257.3358"/>
     <use style="fill-opacity:0;stroke:#ff0000;stroke-linejoin:miter;stroke-width:1.5;" x="211.831321" xlink:href="#m39eb9cb7a1" y="257.3358"/>
     <use style="fill-opacity:0;stroke:#ff0000;stroke-linejoin:miter;stroke-width:1.5;" x="211.831321" xlink:href="#m39eb9cb7a1" y="256.809114"/>
     <use style="fill-opacity:0;stroke:#ff0000;stroke-linejoin:miter;stroke-width:1.5;" x="338.688" xlink:href="#m39eb9cb7a1" y="256.809114"/>
    </g>
   </g>
   <g id="line2d_52">
    <path style="fill:none;stroke:#ff0000;stroke-linecap:square;stroke-width:1.5;"/>
    <g/>
   </g>
   <g id="line2d_53">
    <path clip-path="url(#p73c532bf5a)" d="M 194.068045 257.862486 
" style="fill:none;stroke:#ff0000;stroke-linecap:square;stroke-width:1.5;"/>
    <defs>
     <path d="M -12 12 
L 12 -12 
M -12 -12 
L 12 12 
" id="m99ce762cae" style="stroke:#ff0000;"/>
    </defs>
    <g clip-path="url(#p73c532bf5a)">
     <use style="fill:#ff0000;stroke:#ff0000;" x="194.068045" xlink:href="#m99ce762cae" y="257.862486"/>
    </g>
   </g>
   <g id="line2d_54">
    <defs>
     <path d="M 0 1.5 
C 0.397805 1.5 0.77937 1.341951 1.06066 1.06066 
C 1.341951 0.77937 1.5 0.397805 1.5 0 
C 1.5 -0.397805 1.341951 -0.77937 1.06066 -1.06066 
C 0.77937 -1.341951 0.397805 -1.5 0 -1.5 
C -0.397805 -1.5 -0.77937 -1.341951 -1.06066 -1.06066 
C -1.341951 -0.77937 -1.5 -0.397805 -1.5 0 
C -1.5 0.397805 -1.341951 0.77937 -1.06066 1.06066 
C -0.77937 1.341951 -0.397805 1.5 0 1.5 
z
" id="m2d2f687ab7" style="stroke:#bf00bf;"/>
    </defs>
    <g>
     <use style="fill:#bf00bf;stroke:#bf00bf;" x="191.346005" xlink:href="#m2d2f687ab7" y="262.075974"/>
     <use style="fill:#bf00bf;stroke:#bf00bf;" x="191.346005" xlink:href="#m2d2f687ab7" y="262.075974"/>
    </g>
   </g>
   <g id="line2d_55">
    <path d="M -1 288.936964 
L 5.356583 288.936964 
L 5.356583 287.883592 
L 12.427603 287.883592 
L 12.427603 287.356906 
L 17.444571 287.356906 
L 17.444571 286.303534 
L 21.336035 286.303534 
L 21.336035 285.250162 
L 24.515591 285.250162 
L 24.515591 284.723476 
L 37.999467 284.723476 
L 37.999467 284.19679 
L 43.6746 284.19679 
L 43.6746 283.670104 
L 65.521885 283.670104 
L 65.521885 283.143418 
L 71.74204 283.143418 
L 71.74204 282.616732 
L 85.492169 282.616732 
L 85.492169 282.090045 
L 88.255778 282.090045 
L 88.255778 281.563359 
L 93.699701 281.563359 
L 93.699701 281.036673 
L 93.918378 281.036673 
L 93.918378 280.509987 
L 95.723163 280.509987 
L 95.723163 279.983301 
L 107.085973 279.983301 
L 107.085973 279.456615 
L 111.994085 279.456615 
L 111.994085 278.929929 
L 112.242812 278.929929 
L 112.242812 278.403243 
L 124.245104 278.403243 
L 124.245104 277.876557 
L 131.389151 277.876557 
L 131.389151 277.349871 
L 135.467186 277.349871 
L 135.467186 276.823185 
L 136.896607 276.823185 
L 136.896607 276.296499 
L 138.028177 276.296499 
L 138.028177 275.769812 
L 138.728473 275.769812 
L 138.728473 275.243126 
L 138.984513 275.243126 
L 138.984513 274.71644 
L 139.906681 274.71644 
L 139.906681 274.189754 
L 139.999752 274.189754 
L 139.999752 273.663068 
L 140.382292 273.663068 
L 140.382292 273.136382 
L 141.54229 273.136382 
L 141.54229 272.609696 
L 148.940642 272.609696 
L 148.940642 272.08301 
L 149.339088 272.08301 
L 149.339088 271.556324 
L 150.967649 271.556324 
L 150.967649 271.029638 
L 151.477707 271.029638 
L 151.477707 270.502952 
L 151.742049 270.502952 
L 151.742049 269.976266 
L 151.848243 269.976266 
L 151.848243 269.449579 
L 152.155294 269.449579 
L 152.155294 268.922893 
L 152.619102 268.922893 
L 152.619102 268.396207 
L 153.378887 268.396207 
L 153.378887 267.869521 
L 155.166123 267.869521 
L 155.166123 267.342835 
L 174.590018 267.342835 
L 174.590018 266.816149 
L 175.452258 266.816149 
L 175.452258 266.289463 
L 175.453777 266.289463 
L 175.453777 265.762777 
L 176.03108 265.762777 
L 176.03108 265.236091 
L 177.887932 265.236091 
L 177.887932 264.709405 
L 177.936755 264.709405 
L 177.936755 264.182719 
L 177.951244 264.182719 
L 177.951244 263.656033 
L 178.818047 263.656033 
L 178.818047 263.129347 
L 180.777095 263.129347 
L 180.777095 262.60266 
L 191.346005 262.60266 
L 191.346005 262.075974 
L 338.688 262.075974 
" style="fill:none;stroke:#bf00bf;stroke-linecap:square;stroke-width:1.5;"/>
   </g>
   <g id="line2d_56">
    <defs>
     <path d="M -0 8.485281 
L 8.485281 0 
L 0 -8.485281 
L -8.485281 -0 
z
" id="m3e746e5868" style="stroke:#bf00bf;stroke-linejoin:miter;stroke-width:1.5;"/>
    </defs>
    <g>
     <use style="fill-opacity:0;stroke:#bf00bf;stroke-linejoin:miter;stroke-width:1.5;" x="71.74204" xlink:href="#m3e746e5868" y="283.143418"/>
     <use style="fill-opacity:0;stroke:#bf00bf;stroke-linejoin:miter;stroke-width:1.5;" x="138.984513" xlink:href="#m3e746e5868" y="274.71644"/>
     <use style="fill-opacity:0;stroke:#bf00bf;stroke-linejoin:miter;stroke-width:1.5;" x="191.346005" xlink:href="#m3e746e5868" y="262.60266"/>
     <use style="fill-opacity:0;stroke:#bf00bf;stroke-linejoin:miter;stroke-width:1.5;" x="191.346005" xlink:href="#m3e746e5868" y="262.075974"/>
     <use style="fill-opacity:0;stroke:#bf00bf;stroke-linejoin:miter;stroke-width:1.5;" x="191.346005" xlink:href="#m3e746e5868" y="262.075974"/>
     <use style="fill-opacity:0;stroke:#bf00bf;stroke-linejoin:miter;stroke-width:1.5;" x="338.688" xlink:href="#m3e746e5868" y="262.075974"/>
    </g>
   </g>
   <g id="line2d_57">
    <path style="fill:none;stroke:#bf00bf;stroke-linecap:square;stroke-width:1.5;"/>
    <g/>
   </g>
   <g id="line2d_58">
    <path clip-path="url(#p73c532bf5a)" d="M 181.980057 262.60266 
" style="fill:none;stroke:#bf00bf;stroke-linecap:square;stroke-width:1.5;"/>
    <defs>
     <path d="M -12 12 
L 12 -12 
M -12 -12 
L 12 12 
" id="m946e639df8" style="stroke:#bf00bf;"/>
    </defs>
    <g clip-path="url(#p73c532bf5a)">
     <use style="fill:#bf00bf;stroke:#bf00bf;" x="181.980057" xlink:href="#m946e639df8" y="262.60266"/>
    </g>
   </g>
   <g id="line2d_59">
    <path d="M 338.688 262.075974 
L 369.60768 293.571802 
" style="fill:none;stroke:#bf00bf;stroke-linecap:square;stroke-width:1.5;"/>
    <g>
     <use style="fill-opacity:0;stroke:#bf00bf;stroke-linejoin:miter;stroke-width:1.5;" x="338.688" xlink:href="#m3e746e5868" y="262.075974"/>
     <use style="fill-opacity:0;stroke:#bf00bf;stroke-linejoin:miter;stroke-width:1.5;" x="369.60768" xlink:href="#m3e746e5868" y="293.571802"/>
    </g>
   </g>
   <g id="line2d_60">
    <path d="M 338.688 256.809114 
L 369.60768 241.998701 
" style="fill:none;stroke:#ff0000;stroke-linecap:square;stroke-width:1.5;"/>
    <g>
     <use style="fill-opacity:0;stroke:#ff0000;stroke-linejoin:miter;stroke-width:1.5;" x="338.688" xlink:href="#m39eb9cb7a1" y="256.809114"/>
     <use style="fill-opacity:0;stroke:#ff0000;stroke-linejoin:miter;stroke-width:1.5;" x="369.60768" xlink:href="#m39eb9cb7a1" y="241.998701"/>
    </g>
   </g>
   <g id="line2d_61">
    <path d="M 338.688 235.74167 
L 369.60768 190.4256 
" style="fill:none;stroke:#000000;stroke-linecap:square;stroke-width:1.5;"/>
    <g>
     <use style="fill-opacity:0;stroke:#000000;stroke-width:1.5;" x="338.688" xlink:href="#mc6e4bd94f4" y="235.74167"/>
     <use style="fill-opacity:0;stroke:#000000;stroke-width:1.5;" x="369.60768" xlink:href="#mc6e4bd94f4" y="190.4256"/>
    </g>
   </g>
   <g id="line2d_62">
    <path d="M 338.688 193.606784 
L 369.60768 138.852499 
" style="fill:none;stroke:#0000ff;stroke-linecap:square;stroke-width:1.5;"/>
    <g>
     <use style="fill-opacity:0;stroke:#0000ff;stroke-linejoin:bevel;stroke-width:1.5;" x="338.688" xlink:href="#m734c095e2e" y="193.606784"/>
     <use style="fill-opacity:0;stroke:#0000ff;stroke-linejoin:bevel;stroke-width:1.5;" x="369.60768" xlink:href="#m734c095e2e" y="138.852499"/>
    </g>
   </g>
   <g id="line2d_63">
    <path d="M 338.688 61.935264 
L 369.60768 87.279398 
" style="fill:none;stroke:#008000;stroke-linecap:square;stroke-width:1.5;"/>
    <g>
     <use style="fill-opacity:0;stroke:#008000;stroke-linejoin:miter;stroke-width:1.5;" x="338.688" xlink:href="#m134331ddb6" y="61.935264"/>
     <use style="fill-opacity:0;stroke:#008000;stroke-linejoin:miter;stroke-width:1.5;" x="369.60768" xlink:href="#m134331ddb6" y="87.279398"/>
    </g>
   </g>
   <g id="line2d_64">
    <path d="M 338.688 30.334099 
L 369.60768 35.706297 
" style="fill:none;stroke:#00bfbf;stroke-linecap:square;stroke-width:1.5;"/>
    <g>
     <use style="fill-opacity:0;stroke:#00bfbf;stroke-width:1.5;" x="338.688" xlink:href="#md4dfe6243f" y="30.334099"/>
     <use style="fill-opacity:0;stroke:#00bfbf;stroke-width:1.5;" x="369.60768" xlink:href="#md4dfe6243f" y="35.706297"/>
    </g>
   </g>
   <g id="line2d_65">
    <path d="M 338.688 298.944 
L 338.688 30.334099 
" style="fill:none;stroke:#000000;stroke-linecap:square;stroke-width:1.5;"/>
   </g>
   <g id="patch_3">
    <path d="M 57.6 298.944 
L 57.6 27.648 
" style="fill:none;stroke:#000000;stroke-linecap:square;stroke-linejoin:miter;stroke-width:0.8;"/>
   </g>
   <g id="patch_4">
    <path d="M 338.688 298.944 
L 338.688 27.648 
" style="fill:none;stroke:#000000;stroke-linecap:square;stroke-linejoin:miter;stroke-width:0.8;"/>
   </g>
   <g id="patch_5">
    <path d="M 57.6 298.944 
L 338.688 298.944 
" style="fill:none;stroke:#000000;stroke-linecap:square;stroke-linejoin:miter;stroke-width:0.8;"/>
   </g>
   <g id="patch_6">
    <path d="M 57.6 27.648 
L 338.688 27.648 
" style="fill:none;stroke:#000000;stroke-linecap:square;stroke-linejoin:miter;stroke-width:0.8;"/>
   </g>
   <g id="text_13">
    <!-- 40-D -->
    <g transform="translate(375.22944 298.262739)scale(0.17 -0.17)">
     <defs>
      <path d="M 1259 4147 
L 1259 519 
L 2022 519 
Q 2988 519 3436 956 
Q 3884 1394 3884 2338 
Q 3884 3275 3436 3711 
Q 2988 4147 2022 4147 
L 1259 4147 
z
M 628 4666 
L 1925 4666 
Q 3281 4666 3915 4102 
Q 4550 3538 4550 2338 
Q 4550 1131 3912 565 
Q 3275 0 1925 0 
L 628 0 
L 628 4666 
z
" id="DejaVuSans-44" transform="scale(0.015625)"/>
     </defs>
     <use xlink:href="#DejaVuSans-34"/>
     <use x="63.623047" xlink:href="#DejaVuSans-30"/>
     <use x="127.246094" xlink:href="#DejaVuSans-2d"/>
     <use x="163.330078" xlink:href="#DejaVuSans-44"/>
    </g>
   </g>
   <g id="text_14">
    <!-- 20-D -->
    <g transform="translate(375.22944 246.689638)scale(0.17 -0.17)">
     <use xlink:href="#DejaVuSans-32"/>
     <use x="63.623047" xlink:href="#DejaVuSans-30"/>
     <use x="127.246094" xlink:href="#DejaVuSans-2d"/>
     <use x="163.330078" xlink:href="#DejaVuSans-44"/>
    </g>
   </g>
   <g id="text_15">
    <!-- 10-D -->
    <g transform="translate(375.22944 195.116537)scale(0.17 -0.17)">
     <use xlink:href="#DejaVuSans-31"/>
     <use x="63.623047" xlink:href="#DejaVuSans-30"/>
     <use x="127.246094" xlink:href="#DejaVuSans-2d"/>
     <use x="163.330078" xlink:href="#DejaVuSans-44"/>
    </g>
   </g>
   <g id="text_16">
    <!-- 5-D -->
    <g transform="translate(375.22944 143.543437)scale(0.17 -0.17)">
     <defs>
      <path d="M 691 4666 
L 3169 4666 
L 3169 4134 
L 1269 4134 
L 1269 2991 
Q 1406 3038 1543 3061 
Q 1681 3084 1819 3084 
Q 2600 3084 3056 2656 
Q 3513 2228 3513 1497 
Q 3513 744 3044 326 
Q 2575 -91 1722 -91 
Q 1428 -91 1123 -41 
Q 819 9 494 109 
L 494 744 
Q 775 591 1075 516 
Q 1375 441 1709 441 
Q 2250 441 2565 725 
Q 2881 1009 2881 1497 
Q 2881 1984 2565 2268 
Q 2250 2553 1709 2553 
Q 1456 2553 1204 2497 
Q 953 2441 691 2322 
L 691 4666 
z
" id="DejaVuSans-35" transform="scale(0.015625)"/>
     </defs>
     <use xlink:href="#DejaVuSans-35"/>
     <use x="63.623047" xlink:href="#DejaVuSans-2d"/>
     <use x="99.707031" xlink:href="#DejaVuSans-44"/>
    </g>
   </g>
   <g id="text_17">
    <!-- 3-D -->
    <g transform="translate(375.22944 91.970336)scale(0.17 -0.17)">
     <defs>
      <path d="M 2597 2516 
Q 3050 2419 3304 2112 
Q 3559 1806 3559 1356 
Q 3559 666 3084 287 
Q 2609 -91 1734 -91 
Q 1441 -91 1130 -33 
Q 819 25 488 141 
L 488 750 
Q 750 597 1062 519 
Q 1375 441 1716 441 
Q 2309 441 2620 675 
Q 2931 909 2931 1356 
Q 2931 1769 2642 2001 
Q 2353 2234 1838 2234 
L 1294 2234 
L 1294 2753 
L 1863 2753 
Q 2328 2753 2575 2939 
Q 2822 3125 2822 3475 
Q 2822 3834 2567 4026 
Q 2313 4219 1838 4219 
Q 1578 4219 1281 4162 
Q 984 4106 628 3988 
L 628 4550 
Q 988 4650 1302 4700 
Q 1616 4750 1894 4750 
Q 2613 4750 3031 4423 
Q 3450 4097 3450 3541 
Q 3450 3153 3228 2886 
Q 3006 2619 2597 2516 
z
" id="DejaVuSans-33" transform="scale(0.015625)"/>
     </defs>
     <use xlink:href="#DejaVuSans-33"/>
     <use x="63.623047" xlink:href="#DejaVuSans-2d"/>
     <use x="99.707031" xlink:href="#DejaVuSans-44"/>
    </g>
   </g>
   <g id="text_18">
    <!-- 2-D -->
    <g transform="translate(375.22944 40.397235)scale(0.17 -0.17)">
     <use xlink:href="#DejaVuSans-32"/>
     <use x="63.623047" xlink:href="#DejaVuSans-2d"/>
     <use x="99.707031" xlink:href="#DejaVuSans-44"/>
    </g>
   </g>
   <g id="text_19">
    <!-- bbob f19 -->
    <g transform="translate(60.41088 38.111366)scale(0.102 -0.102)">
     <defs>
      <path d="M 3116 1747 
Q 3116 2381 2855 2742 
Q 2594 3103 2138 3103 
Q 1681 3103 1420 2742 
Q 1159 2381 1159 1747 
Q 1159 1113 1420 752 
Q 1681 391 2138 391 
Q 2594 391 2855 752 
Q 3116 1113 3116 1747 
z
M 1159 2969 
Q 1341 3281 1617 3432 
Q 1894 3584 2278 3584 
Q 2916 3584 3314 3078 
Q 3713 2572 3713 1747 
Q 3713 922 3314 415 
Q 2916 -91 2278 -91 
Q 1894 -91 1617 61 
Q 1341 213 1159 525 
L 1159 0 
L 581 0 
L 581 4863 
L 1159 4863 
L 1159 2969 
z
" id="DejaVuSans-62" transform="scale(0.015625)"/>
      <path d="M 703 97 
L 703 672 
Q 941 559 1184 500 
Q 1428 441 1663 441 
Q 2288 441 2617 861 
Q 2947 1281 2994 2138 
Q 2813 1869 2534 1725 
Q 2256 1581 1919 1581 
Q 1219 1581 811 2004 
Q 403 2428 403 3163 
Q 403 3881 828 4315 
Q 1253 4750 1959 4750 
Q 2769 4750 3195 4129 
Q 3622 3509 3622 2328 
Q 3622 1225 3098 567 
Q 2575 -91 1691 -91 
Q 1453 -91 1209 -44 
Q 966 3 703 97 
z
M 1959 2075 
Q 2384 2075 2632 2365 
Q 2881 2656 2881 3163 
Q 2881 3666 2632 3958 
Q 2384 4250 1959 4250 
Q 1534 4250 1286 3958 
Q 1038 3666 1038 3163 
Q 1038 2656 1286 2365 
Q 1534 2075 1959 2075 
z
" id="DejaVuSans-39" transform="scale(0.015625)"/>
     </defs>
     <use xlink:href="#DejaVuSans-62"/>
     <use x="63.476562" xlink:href="#DejaVuSans-62"/>
     <use x="126.953125" xlink:href="#DejaVuSans-6f"/>
     <use x="188.134766" xlink:href="#DejaVuSans-62"/>
     <use x="251.611328" xlink:href="#DejaVuSans-20"/>
     <use x="283.398438" xlink:href="#DejaVuSans-66"/>
     <use x="318.603516" xlink:href="#DejaVuSans-31"/>
     <use x="382.226562" xlink:href="#DejaVuSans-39"/>
    </g>
    <!-- 51 targets: 100..1e-08 -->
    <g transform="translate(60.41088 49.533135)scale(0.102 -0.102)">
     <defs>
      <path d="M 750 794 
L 1409 794 
L 1409 0 
L 750 0 
L 750 794 
z
M 750 3309 
L 1409 3309 
L 1409 2516 
L 750 2516 
L 750 3309 
z
" id="DejaVuSans-3a" transform="scale(0.015625)"/>
     </defs>
     <use xlink:href="#DejaVuSans-35"/>
     <use x="63.623047" xlink:href="#DejaVuSans-31"/>
     <use x="127.246094" xlink:href="#DejaVuSans-20"/>
     <use x="159.033203" xlink:href="#DejaVuSans-74"/>
     <use x="198.242188" xlink:href="#DejaVuSans-61"/>
     <use x="259.521484" xlink:href="#DejaVuSans-72"/>
     <use x="298.884766" xlink:href="#DejaVuSans-67"/>
     <use x="362.361328" xlink:href="#DejaVuSans-65"/>
     <use x="423.884766" xlink:href="#DejaVuSans-74"/>
     <use x="463.09375" xlink:href="#DejaVuSans-73"/>
     <use x="515.193359" xlink:href="#DejaVuSans-3a"/>
     <use x="548.884766" xlink:href="#DejaVuSans-20"/>
     <use x="580.671875" xlink:href="#DejaVuSans-31"/>
     <use x="644.294922" xlink:href="#DejaVuSans-30"/>
     <use x="707.917969" xlink:href="#DejaVuSans-30"/>
     <use x="771.541016" xlink:href="#DejaVuSans-2e"/>
     <use x="803.328125" xlink:href="#DejaVuSans-2e"/>
     <use x="835.115234" xlink:href="#DejaVuSans-31"/>
     <use x="898.738281" xlink:href="#DejaVuSans-65"/>
     <use x="960.261719" xlink:href="#DejaVuSans-2d"/>
     <use x="996.345703" xlink:href="#DejaVuSans-30"/>
     <use x="1059.96875" xlink:href="#DejaVuSans-38"/>
    </g>
    <!-- 15 instances -->
    <g transform="translate(60.41088 60.954904)scale(0.102 -0.102)">
     <use xlink:href="#DejaVuSans-31"/>
     <use x="63.623047" xlink:href="#DejaVuSans-35"/>
     <use x="127.246094" xlink:href="#DejaVuSans-20"/>
     <use x="159.033203" xlink:href="#DejaVuSans-69"/>
     <use x="186.816406" xlink:href="#DejaVuSans-6e"/>
     <use x="250.195312" xlink:href="#DejaVuSans-73"/>
     <use x="302.294922" xlink:href="#DejaVuSans-74"/>
     <use x="341.503906" xlink:href="#DejaVuSans-61"/>
     <use x="402.783203" xlink:href="#DejaVuSans-6e"/>
     <use x="466.162109" xlink:href="#DejaVuSans-63"/>
     <use x="521.142578" xlink:href="#DejaVuSans-65"/>
     <use x="582.666016" xlink:href="#DejaVuSans-73"/>
    </g>
   </g>
   <g id="text_20">
    <!-- v2.4 -->
    <g style="fill:#808080;" transform="translate(187.233062 294.151352)scale(0.1 -0.1)">
     <use xlink:href="#DejaVuSans-76"/>
     <use x="59.179688" xlink:href="#DejaVuSans-32"/>
     <use x="122.802734" xlink:href="#DejaVuSans-2e"/>
     <use x="154.589844" xlink:href="#DejaVuSans-34"/>
    </g>
   </g>
   <g id="text_21">
    <!-- 19 Griewank-Rosenbrock F8F2 -->
    <g transform="translate(46.042437 21.648)scale(0.2 -0.2)">
     <defs>
      <path d="M 3809 666 
L 3809 1919 
L 2778 1919 
L 2778 2438 
L 4434 2438 
L 4434 434 
Q 4069 175 3628 42 
Q 3188 -91 2688 -91 
Q 1594 -91 976 548 
Q 359 1188 359 2328 
Q 359 3472 976 4111 
Q 1594 4750 2688 4750 
Q 3144 4750 3555 4637 
Q 3966 4525 4313 4306 
L 4313 3634 
Q 3963 3931 3569 4081 
Q 3175 4231 2741 4231 
Q 1884 4231 1454 3753 
Q 1025 3275 1025 2328 
Q 1025 1384 1454 906 
Q 1884 428 2741 428 
Q 3075 428 3337 486 
Q 3600 544 3809 666 
z
" id="DejaVuSans-47" transform="scale(0.015625)"/>
      <path d="M 269 3500 
L 844 3500 
L 1563 769 
L 2278 3500 
L 2956 3500 
L 3675 769 
L 4391 3500 
L 4966 3500 
L 4050 0 
L 3372 0 
L 2619 2869 
L 1863 0 
L 1184 0 
L 269 3500 
z
" id="DejaVuSans-77" transform="scale(0.015625)"/>
      <path d="M 581 4863 
L 1159 4863 
L 1159 1991 
L 2875 3500 
L 3609 3500 
L 1753 1863 
L 3688 0 
L 2938 0 
L 1159 1709 
L 1159 0 
L 581 0 
L 581 4863 
z
" id="DejaVuSans-6b" transform="scale(0.015625)"/>
      <path d="M 2841 2188 
Q 3044 2119 3236 1894 
Q 3428 1669 3622 1275 
L 4263 0 
L 3584 0 
L 2988 1197 
Q 2756 1666 2539 1819 
Q 2322 1972 1947 1972 
L 1259 1972 
L 1259 0 
L 628 0 
L 628 4666 
L 2053 4666 
Q 2853 4666 3247 4331 
Q 3641 3997 3641 3322 
Q 3641 2881 3436 2590 
Q 3231 2300 2841 2188 
z
M 1259 4147 
L 1259 2491 
L 2053 2491 
Q 2509 2491 2742 2702 
Q 2975 2913 2975 3322 
Q 2975 3731 2742 3939 
Q 2509 4147 2053 4147 
L 1259 4147 
z
" id="DejaVuSans-52" transform="scale(0.015625)"/>
     </defs>
     <use xlink:href="#DejaVuSans-31"/>
     <use x="63.623047" xlink:href="#DejaVuSans-39"/>
     <use x="127.246094" xlink:href="#DejaVuSans-20"/>
     <use x="159.033203" xlink:href="#DejaVuSans-47"/>
     <use x="236.523438" xlink:href="#DejaVuSans-72"/>
     <use x="277.636719" xlink:href="#DejaVuSans-69"/>
     <use x="305.419922" xlink:href="#DejaVuSans-65"/>
     <use x="366.943359" xlink:href="#DejaVuSans-77"/>
     <use x="448.730469" xlink:href="#DejaVuSans-61"/>
     <use x="510.009766" xlink:href="#DejaVuSans-6e"/>
     <use x="573.388672" xlink:href="#DejaVuSans-6b"/>
     <use x="631.298828" xlink:href="#DejaVuSans-2d"/>
     <use x="667.382812" xlink:href="#DejaVuSans-52"/>
     <use x="732.365234" xlink:href="#DejaVuSans-6f"/>
     <use x="793.546875" xlink:href="#DejaVuSans-73"/>
     <use x="845.646484" xlink:href="#DejaVuSans-65"/>
     <use x="907.169922" xlink:href="#DejaVuSans-6e"/>
     <use x="970.548828" xlink:href="#DejaVuSans-62"/>
     <use x="1034.025391" xlink:href="#DejaVuSans-72"/>
     <use x="1072.888672" xlink:href="#DejaVuSans-6f"/>
     <use x="1134.070312" xlink:href="#DejaVuSans-63"/>
     <use x="1189.050781" xlink:href="#DejaVuSans-6b"/>
     <use x="1246.960938" xlink:href="#DejaVuSans-20"/>
     <use x="1278.748047" xlink:href="#DejaVuSans-46"/>
     <use x="1336.267578" xlink:href="#DejaVuSans-38"/>
     <use x="1399.890625" xlink:href="#DejaVuSans-46"/>
     <use x="1457.410156" xlink:href="#DejaVuSans-32"/>
    </g>
   </g>
  </g>
 </g>
 <defs>
  <clipPath id="p73c532bf5a">
   <rect height="271.296" width="281.088" x="57.6" y="27.648"/>
  </clipPath>
 </defs>
</svg>
