<?xml version="1.0" encoding="utf-8" standalone="no"?>
<!DOCTYPE svg PUBLIC "-//W3C//DTD SVG 1.1//EN"
  "http://www.w3.org/Graphics/SVG/1.1/DTD/svg11.dtd">
<svg height="345.6pt" version="1.1" viewBox="0 0 460.8 345.6" width="460.8pt" xmlns="http://www.w3.org/2000/svg" xmlns:xlink="http://www.w3.org/1999/xlink">
 <metadata>
  <rdf:RDF xmlns:cc="http://creativecommons.org/ns#" xmlns:dc="http://purl.org/dc/elements/1.1/" xmlns:rdf="http://www.w3.org/1999/02/22-rdf-syntax-ns#">
   <cc:Work>
    <dc:type rdf:resource="http://purl.org/dc/dcmitype/StillImage"/>
    <dc:date>2021-04-26T19:00:38.540993</dc:date>
    <dc:format>image/svg+xml</dc:format>
    <dc:creator>
     <cc:Agent>
      <dc:title>Matplotlib v3.4.1, https://matplotlib.org/</dc:title>
     </cc:Agent>
    </dc:creator>
   </cc:Work>
  </rdf:RDF>
 </metadata>
 <defs>
  <style type="text/css">*{stroke-linecap:butt;stroke-linejoin:round;}</style>
 </defs>
 <g id="figure_1">
  <g id="patch_1">
   <path d="M 0 345.6 
L 460.8 345.6 
L 460.8 0 
L 0 0 
z
" style="fill:#ffffff;"/>
  </g>
  <g id="axes_1">
   <g id="patch_2">
    <path d="M 57.6 298.944 
L 338.688 298.944 
L 338.688 3.456 
L 57.6 3.456 
z
" style="fill:#ffffff;"/>
   </g>
   <g id="matplotlib.axis_1">
    <g id="xtick_1">
     <g id="line2d_1">
      <path clip-path="url(#p0a6bb868ca)" d="M 57.6 298.944 
L 57.6 3.456 
" style="fill:none;stroke:#b0b0b0;stroke-linecap:square;stroke-width:0.8;"/>
     </g>
     <g id="line2d_2">
      <defs>
       <path d="M 0 0 
L 0 3.5 
" id="m01054512d8" style="stroke:#000000;stroke-width:0.8;"/>
      </defs>
      <g>
       <use style="stroke:#000000;stroke-width:0.8;" x="57.6" xlink:href="#m01054512d8" y="298.944"/>
      </g>
     </g>
     <g id="text_1">
      <!-- 0 -->
      <g transform="translate(51.2375 321.140875)scale(0.2 -0.2)">
       <defs>
        <path d="M 2034 4250 
Q 1547 4250 1301 3770 
Q 1056 3291 1056 2328 
Q 1056 1369 1301 889 
Q 1547 409 2034 409 
Q 2525 409 2770 889 
Q 3016 1369 3016 2328 
Q 3016 3291 2770 3770 
Q 2525 4250 2034 4250 
z
M 2034 4750 
Q 2819 4750 3233 4129 
Q 3647 3509 3647 2328 
Q 3647 1150 3233 529 
Q 2819 -91 2034 -91 
Q 1250 -91 836 529 
Q 422 1150 422 2328 
Q 422 3509 836 4129 
Q 1250 4750 2034 4750 
z
" id="DejaVuSans-30" transform="scale(0.015625)"/>
       </defs>
       <use xlink:href="#DejaVuSans-30"/>
      </g>
     </g>
    </g>
    <g id="xtick_2">
     <g id="line2d_3">
      <path clip-path="url(#p0a6bb868ca)" d="M 137.910857 298.944 
L 137.910857 3.456 
" style="fill:none;stroke:#b0b0b0;stroke-linecap:square;stroke-width:0.8;"/>
     </g>
     <g id="line2d_4">
      <g>
       <use style="stroke:#000000;stroke-width:0.8;" x="137.910857" xlink:href="#m01054512d8" y="298.944"/>
      </g>
     </g>
     <g id="text_2">
      <!-- 2 -->
      <g transform="translate(131.548357 321.140875)scale(0.2 -0.2)">
       <defs>
        <path d="M 1228 531 
L 3431 531 
L 3431 0 
L 469 0 
L 469 531 
Q 828 903 1448 1529 
Q 2069 2156 2228 2338 
Q 2531 2678 2651 2914 
Q 2772 3150 2772 3378 
Q 2772 3750 2511 3984 
Q 2250 4219 1831 4219 
Q 1534 4219 1204 4116 
Q 875 4013 500 3803 
L 500 4441 
Q 881 4594 1212 4672 
Q 1544 4750 1819 4750 
Q 2544 4750 2975 4387 
Q 3406 4025 3406 3419 
Q 3406 3131 3298 2873 
Q 3191 2616 2906 2266 
Q 2828 2175 2409 1742 
Q 1991 1309 1228 531 
z
" id="DejaVuSans-32" transform="scale(0.015625)"/>
       </defs>
       <use xlink:href="#DejaVuSans-32"/>
      </g>
     </g>
    </g>
    <g id="xtick_3">
     <g id="line2d_5">
      <path clip-path="url(#p0a6bb868ca)" d="M 218.221714 298.944 
L 218.221714 3.456 
" style="fill:none;stroke:#b0b0b0;stroke-linecap:square;stroke-width:0.8;"/>
     </g>
     <g id="line2d_6">
      <g>
       <use style="stroke:#000000;stroke-width:0.8;" x="218.221714" xlink:href="#m01054512d8" y="298.944"/>
      </g>
     </g>
     <g id="text_3">
      <!-- 4 -->
      <g transform="translate(211.859214 321.140875)scale(0.2 -0.2)">
       <defs>
        <path d="M 2419 4116 
L 825 1625 
L 2419 1625 
L 2419 4116 
z
M 2253 4666 
L 3047 4666 
L 3047 1625 
L 3713 1625 
L 3713 1100 
L 3047 1100 
L 3047 0 
L 2419 0 
L 2419 1100 
L 313 1100 
L 313 1709 
L 2253 4666 
z
" id="DejaVuSans-34" transform="scale(0.015625)"/>
       </defs>
       <use xlink:href="#DejaVuSans-34"/>
      </g>
     </g>
    </g>
    <g id="xtick_4">
     <g id="line2d_7">
      <path clip-path="url(#p0a6bb868ca)" d="M 298.532571 298.944 
L 298.532571 3.456 
" style="fill:none;stroke:#b0b0b0;stroke-linecap:square;stroke-width:0.8;"/>
     </g>
     <g id="line2d_8">
      <g>
       <use style="stroke:#000000;stroke-width:0.8;" x="298.532571" xlink:href="#m01054512d8" y="298.944"/>
      </g>
     </g>
     <g id="text_4">
      <!-- 6 -->
      <g transform="translate(292.170071 321.140875)scale(0.2 -0.2)">
       <defs>
        <path d="M 2113 2584 
Q 1688 2584 1439 2293 
Q 1191 2003 1191 1497 
Q 1191 994 1439 701 
Q 1688 409 2113 409 
Q 2538 409 2786 701 
Q 3034 994 3034 1497 
Q 3034 2003 2786 2293 
Q 2538 2584 2113 2584 
z
M 3366 4563 
L 3366 3988 
Q 3128 4100 2886 4159 
Q 2644 4219 2406 4219 
Q 1781 4219 1451 3797 
Q 1122 3375 1075 2522 
Q 1259 2794 1537 2939 
Q 1816 3084 2150 3084 
Q 2853 3084 3261 2657 
Q 3669 2231 3669 1497 
Q 3669 778 3244 343 
Q 2819 -91 2113 -91 
Q 1303 -91 875 529 
Q 447 1150 447 2328 
Q 447 3434 972 4092 
Q 1497 4750 2381 4750 
Q 2619 4750 2861 4703 
Q 3103 4656 3366 4563 
z
" id="DejaVuSans-36" transform="scale(0.015625)"/>
       </defs>
       <use xlink:href="#DejaVuSans-36"/>
      </g>
     </g>
    </g>
    <g id="xtick_5">
     <g id="line2d_9">
      <path clip-path="url(#p0a6bb868ca)" d="M 97.755429 298.944 
L 97.755429 3.456 
" style="fill:none;stroke:#b0b0b0;stroke-linecap:square;stroke-width:0.8;"/>
     </g>
     <g id="line2d_10">
      <defs>
       <path d="M 0 0 
L 0 2 
" id="m6e05d1ecd1" style="stroke:#000000;stroke-width:0.6;"/>
      </defs>
      <g>
       <use style="stroke:#000000;stroke-width:0.6;" x="97.755429" xlink:href="#m6e05d1ecd1" y="298.944"/>
      </g>
     </g>
    </g>
    <g id="xtick_6">
     <g id="line2d_11">
      <path clip-path="url(#p0a6bb868ca)" d="M 178.066286 298.944 
L 178.066286 3.456 
" style="fill:none;stroke:#b0b0b0;stroke-linecap:square;stroke-width:0.8;"/>
     </g>
     <g id="line2d_12">
      <g>
       <use style="stroke:#000000;stroke-width:0.6;" x="178.066286" xlink:href="#m6e05d1ecd1" y="298.944"/>
      </g>
     </g>
    </g>
    <g id="xtick_7">
     <g id="line2d_13">
      <path clip-path="url(#p0a6bb868ca)" d="M 258.377143 298.944 
L 258.377143 3.456 
" style="fill:none;stroke:#b0b0b0;stroke-linecap:square;stroke-width:0.8;"/>
     </g>
     <g id="line2d_14">
      <g>
       <use style="stroke:#000000;stroke-width:0.6;" x="258.377143" xlink:href="#m6e05d1ecd1" y="298.944"/>
      </g>
     </g>
    </g>
    <g id="xtick_8">
     <g id="line2d_15">
      <path clip-path="url(#p0a6bb868ca)" d="M 338.688 298.944 
L 338.688 3.456 
" style="fill:none;stroke:#b0b0b0;stroke-linecap:square;stroke-width:0.8;"/>
     </g>
     <g id="line2d_16">
      <g>
       <use style="stroke:#000000;stroke-width:0.6;" x="338.688" xlink:href="#m6e05d1ecd1" y="298.944"/>
      </g>
     </g>
    </g>
    <g id="text_5">
     <!-- log10(# f-evals / dimension) -->
     <g transform="translate(77.764078 342.217594)scale(0.17 -0.17)">
      <defs>
       <path d="M 603 4863 
L 1178 4863 
L 1178 0 
L 603 0 
L 603 4863 
z
" id="DejaVuSans-6c" transform="scale(0.015625)"/>
       <path d="M 1959 3097 
Q 1497 3097 1228 2736 
Q 959 2375 959 1747 
Q 959 1119 1226 758 
Q 1494 397 1959 397 
Q 2419 397 2687 759 
Q 2956 1122 2956 1747 
Q 2956 2369 2687 2733 
Q 2419 3097 1959 3097 
z
M 1959 3584 
Q 2709 3584 3137 3096 
Q 3566 2609 3566 1747 
Q 3566 888 3137 398 
Q 2709 -91 1959 -91 
Q 1206 -91 779 398 
Q 353 888 353 1747 
Q 353 2609 779 3096 
Q 1206 3584 1959 3584 
z
" id="DejaVuSans-6f" transform="scale(0.015625)"/>
       <path d="M 2906 1791 
Q 2906 2416 2648 2759 
Q 2391 3103 1925 3103 
Q 1463 3103 1205 2759 
Q 947 2416 947 1791 
Q 947 1169 1205 825 
Q 1463 481 1925 481 
Q 2391 481 2648 825 
Q 2906 1169 2906 1791 
z
M 3481 434 
Q 3481 -459 3084 -895 
Q 2688 -1331 1869 -1331 
Q 1566 -1331 1297 -1286 
Q 1028 -1241 775 -1147 
L 775 -588 
Q 1028 -725 1275 -790 
Q 1522 -856 1778 -856 
Q 2344 -856 2625 -561 
Q 2906 -266 2906 331 
L 2906 616 
Q 2728 306 2450 153 
Q 2172 0 1784 0 
Q 1141 0 747 490 
Q 353 981 353 1791 
Q 353 2603 747 3093 
Q 1141 3584 1784 3584 
Q 2172 3584 2450 3431 
Q 2728 3278 2906 2969 
L 2906 3500 
L 3481 3500 
L 3481 434 
z
" id="DejaVuSans-67" transform="scale(0.015625)"/>
       <path d="M 794 531 
L 1825 531 
L 1825 4091 
L 703 3866 
L 703 4441 
L 1819 4666 
L 2450 4666 
L 2450 531 
L 3481 531 
L 3481 0 
L 794 0 
L 794 531 
z
" id="DejaVuSans-31" transform="scale(0.015625)"/>
       <path d="M 1984 4856 
Q 1566 4138 1362 3434 
Q 1159 2731 1159 2009 
Q 1159 1288 1364 580 
Q 1569 -128 1984 -844 
L 1484 -844 
Q 1016 -109 783 600 
Q 550 1309 550 2009 
Q 550 2706 781 3412 
Q 1013 4119 1484 4856 
L 1984 4856 
z
" id="DejaVuSans-28" transform="scale(0.015625)"/>
       <path d="M 3272 2816 
L 2363 2816 
L 2100 1772 
L 3016 1772 
L 3272 2816 
z
M 2803 4594 
L 2478 3297 
L 3391 3297 
L 3719 4594 
L 4219 4594 
L 3897 3297 
L 4872 3297 
L 4872 2816 
L 3775 2816 
L 3519 1772 
L 4513 1772 
L 4513 1294 
L 3397 1294 
L 3072 0 
L 2572 0 
L 2894 1294 
L 1978 1294 
L 1656 0 
L 1153 0 
L 1478 1294 
L 494 1294 
L 494 1772 
L 1594 1772 
L 1856 2816 
L 850 2816 
L 850 3297 
L 1978 3297 
L 2297 4594 
L 2803 4594 
z
" id="DejaVuSans-23" transform="scale(0.015625)"/>
       <path id="DejaVuSans-20" transform="scale(0.015625)"/>
       <path d="M 2375 4863 
L 2375 4384 
L 1825 4384 
Q 1516 4384 1395 4259 
Q 1275 4134 1275 3809 
L 1275 3500 
L 2222 3500 
L 2222 3053 
L 1275 3053 
L 1275 0 
L 697 0 
L 697 3053 
L 147 3053 
L 147 3500 
L 697 3500 
L 697 3744 
Q 697 4328 969 4595 
Q 1241 4863 1831 4863 
L 2375 4863 
z
" id="DejaVuSans-66" transform="scale(0.015625)"/>
       <path d="M 313 2009 
L 1997 2009 
L 1997 1497 
L 313 1497 
L 313 2009 
z
" id="DejaVuSans-2d" transform="scale(0.015625)"/>
       <path d="M 3597 1894 
L 3597 1613 
L 953 1613 
Q 991 1019 1311 708 
Q 1631 397 2203 397 
Q 2534 397 2845 478 
Q 3156 559 3463 722 
L 3463 178 
Q 3153 47 2828 -22 
Q 2503 -91 2169 -91 
Q 1331 -91 842 396 
Q 353 884 353 1716 
Q 353 2575 817 3079 
Q 1281 3584 2069 3584 
Q 2775 3584 3186 3129 
Q 3597 2675 3597 1894 
z
M 3022 2063 
Q 3016 2534 2758 2815 
Q 2500 3097 2075 3097 
Q 1594 3097 1305 2825 
Q 1016 2553 972 2059 
L 3022 2063 
z
" id="DejaVuSans-65" transform="scale(0.015625)"/>
       <path d="M 191 3500 
L 800 3500 
L 1894 563 
L 2988 3500 
L 3597 3500 
L 2284 0 
L 1503 0 
L 191 3500 
z
" id="DejaVuSans-76" transform="scale(0.015625)"/>
       <path d="M 2194 1759 
Q 1497 1759 1228 1600 
Q 959 1441 959 1056 
Q 959 750 1161 570 
Q 1363 391 1709 391 
Q 2188 391 2477 730 
Q 2766 1069 2766 1631 
L 2766 1759 
L 2194 1759 
z
M 3341 1997 
L 3341 0 
L 2766 0 
L 2766 531 
Q 2569 213 2275 61 
Q 1981 -91 1556 -91 
Q 1019 -91 701 211 
Q 384 513 384 1019 
Q 384 1609 779 1909 
Q 1175 2209 1959 2209 
L 2766 2209 
L 2766 2266 
Q 2766 2663 2505 2880 
Q 2244 3097 1772 3097 
Q 1472 3097 1187 3025 
Q 903 2953 641 2809 
L 641 3341 
Q 956 3463 1253 3523 
Q 1550 3584 1831 3584 
Q 2591 3584 2966 3190 
Q 3341 2797 3341 1997 
z
" id="DejaVuSans-61" transform="scale(0.015625)"/>
       <path d="M 2834 3397 
L 2834 2853 
Q 2591 2978 2328 3040 
Q 2066 3103 1784 3103 
Q 1356 3103 1142 2972 
Q 928 2841 928 2578 
Q 928 2378 1081 2264 
Q 1234 2150 1697 2047 
L 1894 2003 
Q 2506 1872 2764 1633 
Q 3022 1394 3022 966 
Q 3022 478 2636 193 
Q 2250 -91 1575 -91 
Q 1294 -91 989 -36 
Q 684 19 347 128 
L 347 722 
Q 666 556 975 473 
Q 1284 391 1588 391 
Q 1994 391 2212 530 
Q 2431 669 2431 922 
Q 2431 1156 2273 1281 
Q 2116 1406 1581 1522 
L 1381 1569 
Q 847 1681 609 1914 
Q 372 2147 372 2553 
Q 372 3047 722 3315 
Q 1072 3584 1716 3584 
Q 2034 3584 2315 3537 
Q 2597 3491 2834 3397 
z
" id="DejaVuSans-73" transform="scale(0.015625)"/>
       <path d="M 1625 4666 
L 2156 4666 
L 531 -594 
L 0 -594 
L 1625 4666 
z
" id="DejaVuSans-2f" transform="scale(0.015625)"/>
       <path d="M 2906 2969 
L 2906 4863 
L 3481 4863 
L 3481 0 
L 2906 0 
L 2906 525 
Q 2725 213 2448 61 
Q 2172 -91 1784 -91 
Q 1150 -91 751 415 
Q 353 922 353 1747 
Q 353 2572 751 3078 
Q 1150 3584 1784 3584 
Q 2172 3584 2448 3432 
Q 2725 3281 2906 2969 
z
M 947 1747 
Q 947 1113 1208 752 
Q 1469 391 1925 391 
Q 2381 391 2643 752 
Q 2906 1113 2906 1747 
Q 2906 2381 2643 2742 
Q 2381 3103 1925 3103 
Q 1469 3103 1208 2742 
Q 947 2381 947 1747 
z
" id="DejaVuSans-64" transform="scale(0.015625)"/>
       <path d="M 603 3500 
L 1178 3500 
L 1178 0 
L 603 0 
L 603 3500 
z
M 603 4863 
L 1178 4863 
L 1178 4134 
L 603 4134 
L 603 4863 
z
" id="DejaVuSans-69" transform="scale(0.015625)"/>
       <path d="M 3328 2828 
Q 3544 3216 3844 3400 
Q 4144 3584 4550 3584 
Q 5097 3584 5394 3201 
Q 5691 2819 5691 2113 
L 5691 0 
L 5113 0 
L 5113 2094 
Q 5113 2597 4934 2840 
Q 4756 3084 4391 3084 
Q 3944 3084 3684 2787 
Q 3425 2491 3425 1978 
L 3425 0 
L 2847 0 
L 2847 2094 
Q 2847 2600 2669 2842 
Q 2491 3084 2119 3084 
Q 1678 3084 1418 2786 
Q 1159 2488 1159 1978 
L 1159 0 
L 581 0 
L 581 3500 
L 1159 3500 
L 1159 2956 
Q 1356 3278 1631 3431 
Q 1906 3584 2284 3584 
Q 2666 3584 2933 3390 
Q 3200 3197 3328 2828 
z
" id="DejaVuSans-6d" transform="scale(0.015625)"/>
       <path d="M 3513 2113 
L 3513 0 
L 2938 0 
L 2938 2094 
Q 2938 2591 2744 2837 
Q 2550 3084 2163 3084 
Q 1697 3084 1428 2787 
Q 1159 2491 1159 1978 
L 1159 0 
L 581 0 
L 581 3500 
L 1159 3500 
L 1159 2956 
Q 1366 3272 1645 3428 
Q 1925 3584 2291 3584 
Q 2894 3584 3203 3211 
Q 3513 2838 3513 2113 
z
" id="DejaVuSans-6e" transform="scale(0.015625)"/>
       <path d="M 513 4856 
L 1013 4856 
Q 1481 4119 1714 3412 
Q 1947 2706 1947 2009 
Q 1947 1309 1714 600 
Q 1481 -109 1013 -844 
L 513 -844 
Q 928 -128 1133 580 
Q 1338 1288 1338 2009 
Q 1338 2731 1133 3434 
Q 928 4138 513 4856 
z
" id="DejaVuSans-29" transform="scale(0.015625)"/>
      </defs>
      <use xlink:href="#DejaVuSans-6c"/>
      <use x="27.783203" xlink:href="#DejaVuSans-6f"/>
      <use x="88.964844" xlink:href="#DejaVuSans-67"/>
      <use x="152.441406" xlink:href="#DejaVuSans-31"/>
      <use x="216.064453" xlink:href="#DejaVuSans-30"/>
      <use x="279.6875" xlink:href="#DejaVuSans-28"/>
      <use x="318.701172" xlink:href="#DejaVuSans-23"/>
      <use x="402.490234" xlink:href="#DejaVuSans-20"/>
      <use x="434.277344" xlink:href="#DejaVuSans-66"/>
      <use x="463.982422" xlink:href="#DejaVuSans-2d"/>
      <use x="500.066406" xlink:href="#DejaVuSans-65"/>
      <use x="561.589844" xlink:href="#DejaVuSans-76"/>
      <use x="620.769531" xlink:href="#DejaVuSans-61"/>
      <use x="682.048828" xlink:href="#DejaVuSans-6c"/>
      <use x="709.832031" xlink:href="#DejaVuSans-73"/>
      <use x="761.931641" xlink:href="#DejaVuSans-20"/>
      <use x="793.71875" xlink:href="#DejaVuSans-2f"/>
      <use x="827.410156" xlink:href="#DejaVuSans-20"/>
      <use x="859.197266" xlink:href="#DejaVuSans-64"/>
      <use x="922.673828" xlink:href="#DejaVuSans-69"/>
      <use x="950.457031" xlink:href="#DejaVuSans-6d"/>
      <use x="1047.869141" xlink:href="#DejaVuSans-65"/>
      <use x="1109.392578" xlink:href="#DejaVuSans-6e"/>
      <use x="1172.771484" xlink:href="#DejaVuSans-73"/>
      <use x="1224.871094" xlink:href="#DejaVuSans-69"/>
      <use x="1252.654297" xlink:href="#DejaVuSans-6f"/>
      <use x="1313.835938" xlink:href="#DejaVuSans-6e"/>
      <use x="1377.214844" xlink:href="#DejaVuSans-29"/>
     </g>
    </g>
   </g>
   <g id="matplotlib.axis_2">
    <g id="ytick_1">
     <g id="line2d_17">
      <path clip-path="url(#p0a6bb868ca)" d="M 57.6 298.944 
L 338.688 298.944 
" style="fill:none;stroke:#b0b0b0;stroke-linecap:square;stroke-width:0.8;"/>
     </g>
     <g id="line2d_18">
      <defs>
       <path d="M 0 0 
L -3.5 0 
" id="mb47c31eb48" style="stroke:#000000;stroke-width:0.8;"/>
      </defs>
      <g>
       <use style="stroke:#000000;stroke-width:0.8;" x="57.6" xlink:href="#mb47c31eb48" y="298.944"/>
      </g>
     </g>
     <g id="text_6">
      <!-- 0.0 -->
      <g transform="translate(25.155 305.02275)scale(0.16 -0.16)">
       <defs>
        <path d="M 684 794 
L 1344 794 
L 1344 0 
L 684 0 
L 684 794 
z
" id="DejaVuSans-2e" transform="scale(0.015625)"/>
       </defs>
       <use xlink:href="#DejaVuSans-30"/>
       <use x="63.623047" xlink:href="#DejaVuSans-2e"/>
       <use x="95.410156" xlink:href="#DejaVuSans-30"/>
      </g>
     </g>
    </g>
    <g id="ytick_2">
     <g id="line2d_19">
      <path clip-path="url(#p0a6bb868ca)" d="M 57.6 240.431525 
L 338.688 240.431525 
" style="fill:none;stroke:#b0b0b0;stroke-linecap:square;stroke-width:0.8;"/>
     </g>
     <g id="line2d_20">
      <g>
       <use style="stroke:#000000;stroke-width:0.8;" x="57.6" xlink:href="#mb47c31eb48" y="240.431525"/>
      </g>
     </g>
     <g id="text_7">
      <!-- 0.2 -->
      <g transform="translate(25.155 246.510275)scale(0.16 -0.16)">
       <use xlink:href="#DejaVuSans-30"/>
       <use x="63.623047" xlink:href="#DejaVuSans-2e"/>
       <use x="95.410156" xlink:href="#DejaVuSans-32"/>
      </g>
     </g>
    </g>
    <g id="ytick_3">
     <g id="line2d_21">
      <path clip-path="url(#p0a6bb868ca)" d="M 57.6 181.91905 
L 338.688 181.91905 
" style="fill:none;stroke:#b0b0b0;stroke-linecap:square;stroke-width:0.8;"/>
     </g>
     <g id="line2d_22">
      <g>
       <use style="stroke:#000000;stroke-width:0.8;" x="57.6" xlink:href="#mb47c31eb48" y="181.91905"/>
      </g>
     </g>
     <g id="text_8">
      <!-- 0.4 -->
      <g transform="translate(25.155 187.9978)scale(0.16 -0.16)">
       <use xlink:href="#DejaVuSans-30"/>
       <use x="63.623047" xlink:href="#DejaVuSans-2e"/>
       <use x="95.410156" xlink:href="#DejaVuSans-34"/>
      </g>
     </g>
    </g>
    <g id="ytick_4">
     <g id="line2d_23">
      <path clip-path="url(#p0a6bb868ca)" d="M 57.6 123.406574 
L 338.688 123.406574 
" style="fill:none;stroke:#b0b0b0;stroke-linecap:square;stroke-width:0.8;"/>
     </g>
     <g id="line2d_24">
      <g>
       <use style="stroke:#000000;stroke-width:0.8;" x="57.6" xlink:href="#mb47c31eb48" y="123.406574"/>
      </g>
     </g>
     <g id="text_9">
      <!-- 0.6 -->
      <g transform="translate(25.155 129.485324)scale(0.16 -0.16)">
       <use xlink:href="#DejaVuSans-30"/>
       <use x="63.623047" xlink:href="#DejaVuSans-2e"/>
       <use x="95.410156" xlink:href="#DejaVuSans-36"/>
      </g>
     </g>
    </g>
    <g id="ytick_5">
     <g id="line2d_25">
      <path clip-path="url(#p0a6bb868ca)" d="M 57.6 64.894099 
L 338.688 64.894099 
" style="fill:none;stroke:#b0b0b0;stroke-linecap:square;stroke-width:0.8;"/>
     </g>
     <g id="line2d_26">
      <g>
       <use style="stroke:#000000;stroke-width:0.8;" x="57.6" xlink:href="#mb47c31eb48" y="64.894099"/>
      </g>
     </g>
     <g id="text_10">
      <!-- 0.8 -->
      <g transform="translate(25.155 70.972849)scale(0.16 -0.16)">
       <defs>
        <path d="M 2034 2216 
Q 1584 2216 1326 1975 
Q 1069 1734 1069 1313 
Q 1069 891 1326 650 
Q 1584 409 2034 409 
Q 2484 409 2743 651 
Q 3003 894 3003 1313 
Q 3003 1734 2745 1975 
Q 2488 2216 2034 2216 
z
M 1403 2484 
Q 997 2584 770 2862 
Q 544 3141 544 3541 
Q 544 4100 942 4425 
Q 1341 4750 2034 4750 
Q 2731 4750 3128 4425 
Q 3525 4100 3525 3541 
Q 3525 3141 3298 2862 
Q 3072 2584 2669 2484 
Q 3125 2378 3379 2068 
Q 3634 1759 3634 1313 
Q 3634 634 3220 271 
Q 2806 -91 2034 -91 
Q 1263 -91 848 271 
Q 434 634 434 1313 
Q 434 1759 690 2068 
Q 947 2378 1403 2484 
z
M 1172 3481 
Q 1172 3119 1398 2916 
Q 1625 2713 2034 2713 
Q 2441 2713 2670 2916 
Q 2900 3119 2900 3481 
Q 2900 3844 2670 4047 
Q 2441 4250 2034 4250 
Q 1625 4250 1398 4047 
Q 1172 3844 1172 3481 
z
" id="DejaVuSans-38" transform="scale(0.015625)"/>
       </defs>
       <use xlink:href="#DejaVuSans-30"/>
       <use x="63.623047" xlink:href="#DejaVuSans-2e"/>
       <use x="95.410156" xlink:href="#DejaVuSans-38"/>
      </g>
     </g>
    </g>
    <g id="ytick_6">
     <g id="line2d_27">
      <path clip-path="url(#p0a6bb868ca)" d="M 57.6 6.381624 
L 338.688 6.381624 
" style="fill:none;stroke:#b0b0b0;stroke-linecap:square;stroke-width:0.8;"/>
     </g>
     <g id="line2d_28">
      <g>
       <use style="stroke:#000000;stroke-width:0.8;" x="57.6" xlink:href="#mb47c31eb48" y="6.381624"/>
      </g>
     </g>
     <g id="text_11">
      <!-- 1.0 -->
      <g transform="translate(25.155 12.460374)scale(0.16 -0.16)">
       <use xlink:href="#DejaVuSans-31"/>
       <use x="63.623047" xlink:href="#DejaVuSans-2e"/>
       <use x="95.410156" xlink:href="#DejaVuSans-30"/>
      </g>
     </g>
    </g>
    <g id="text_12">
     <!-- Fraction of function,target pairs -->
     <g transform="translate(17.619531 285.585)rotate(-90)scale(0.17 -0.17)">
      <defs>
       <path d="M 628 4666 
L 3309 4666 
L 3309 4134 
L 1259 4134 
L 1259 2759 
L 3109 2759 
L 3109 2228 
L 1259 2228 
L 1259 0 
L 628 0 
L 628 4666 
z
" id="DejaVuSans-46" transform="scale(0.015625)"/>
       <path d="M 2631 2963 
Q 2534 3019 2420 3045 
Q 2306 3072 2169 3072 
Q 1681 3072 1420 2755 
Q 1159 2438 1159 1844 
L 1159 0 
L 581 0 
L 581 3500 
L 1159 3500 
L 1159 2956 
Q 1341 3275 1631 3429 
Q 1922 3584 2338 3584 
Q 2397 3584 2469 3576 
Q 2541 3569 2628 3553 
L 2631 2963 
z
" id="DejaVuSans-72" transform="scale(0.015625)"/>
       <path d="M 3122 3366 
L 3122 2828 
Q 2878 2963 2633 3030 
Q 2388 3097 2138 3097 
Q 1578 3097 1268 2742 
Q 959 2388 959 1747 
Q 959 1106 1268 751 
Q 1578 397 2138 397 
Q 2388 397 2633 464 
Q 2878 531 3122 666 
L 3122 134 
Q 2881 22 2623 -34 
Q 2366 -91 2075 -91 
Q 1284 -91 818 406 
Q 353 903 353 1747 
Q 353 2603 823 3093 
Q 1294 3584 2113 3584 
Q 2378 3584 2631 3529 
Q 2884 3475 3122 3366 
z
" id="DejaVuSans-63" transform="scale(0.015625)"/>
       <path d="M 1172 4494 
L 1172 3500 
L 2356 3500 
L 2356 3053 
L 1172 3053 
L 1172 1153 
Q 1172 725 1289 603 
Q 1406 481 1766 481 
L 2356 481 
L 2356 0 
L 1766 0 
Q 1100 0 847 248 
Q 594 497 594 1153 
L 594 3053 
L 172 3053 
L 172 3500 
L 594 3500 
L 594 4494 
L 1172 4494 
z
" id="DejaVuSans-74" transform="scale(0.015625)"/>
       <path d="M 544 1381 
L 544 3500 
L 1119 3500 
L 1119 1403 
Q 1119 906 1312 657 
Q 1506 409 1894 409 
Q 2359 409 2629 706 
Q 2900 1003 2900 1516 
L 2900 3500 
L 3475 3500 
L 3475 0 
L 2900 0 
L 2900 538 
Q 2691 219 2414 64 
Q 2138 -91 1772 -91 
Q 1169 -91 856 284 
Q 544 659 544 1381 
z
M 1991 3584 
L 1991 3584 
z
" id="DejaVuSans-75" transform="scale(0.015625)"/>
       <path d="M 750 794 
L 1409 794 
L 1409 256 
L 897 -744 
L 494 -744 
L 750 256 
L 750 794 
z
" id="DejaVuSans-2c" transform="scale(0.015625)"/>
       <path d="M 1159 525 
L 1159 -1331 
L 581 -1331 
L 581 3500 
L 1159 3500 
L 1159 2969 
Q 1341 3281 1617 3432 
Q 1894 3584 2278 3584 
Q 2916 3584 3314 3078 
Q 3713 2572 3713 1747 
Q 3713 922 3314 415 
Q 2916 -91 2278 -91 
Q 1894 -91 1617 61 
Q 1341 213 1159 525 
z
M 3116 1747 
Q 3116 2381 2855 2742 
Q 2594 3103 2138 3103 
Q 1681 3103 1420 2742 
Q 1159 2381 1159 1747 
Q 1159 1113 1420 752 
Q 1681 391 2138 391 
Q 2594 391 2855 752 
Q 3116 1113 3116 1747 
z
" id="DejaVuSans-70" transform="scale(0.015625)"/>
      </defs>
      <use xlink:href="#DejaVuSans-46"/>
      <use x="50.269531" xlink:href="#DejaVuSans-72"/>
      <use x="91.382812" xlink:href="#DejaVuSans-61"/>
      <use x="152.662109" xlink:href="#DejaVuSans-63"/>
      <use x="207.642578" xlink:href="#DejaVuSans-74"/>
      <use x="246.851562" xlink:href="#DejaVuSans-69"/>
      <use x="274.634766" xlink:href="#DejaVuSans-6f"/>
      <use x="335.816406" xlink:href="#DejaVuSans-6e"/>
      <use x="399.195312" xlink:href="#DejaVuSans-20"/>
      <use x="430.982422" xlink:href="#DejaVuSans-6f"/>
      <use x="492.164062" xlink:href="#DejaVuSans-66"/>
      <use x="527.369141" xlink:href="#DejaVuSans-20"/>
      <use x="559.15625" xlink:href="#DejaVuSans-66"/>
      <use x="594.361328" xlink:href="#DejaVuSans-75"/>
      <use x="657.740234" xlink:href="#DejaVuSans-6e"/>
      <use x="721.119141" xlink:href="#DejaVuSans-63"/>
      <use x="776.099609" xlink:href="#DejaVuSans-74"/>
      <use x="815.308594" xlink:href="#DejaVuSans-69"/>
      <use x="843.091797" xlink:href="#DejaVuSans-6f"/>
      <use x="904.273438" xlink:href="#DejaVuSans-6e"/>
      <use x="967.652344" xlink:href="#DejaVuSans-2c"/>
      <use x="999.439453" xlink:href="#DejaVuSans-74"/>
      <use x="1038.648438" xlink:href="#DejaVuSans-61"/>
      <use x="1099.927734" xlink:href="#DejaVuSans-72"/>
      <use x="1139.291016" xlink:href="#DejaVuSans-67"/>
      <use x="1202.767578" xlink:href="#DejaVuSans-65"/>
      <use x="1264.291016" xlink:href="#DejaVuSans-74"/>
      <use x="1303.5" xlink:href="#DejaVuSans-20"/>
      <use x="1335.287109" xlink:href="#DejaVuSans-70"/>
      <use x="1398.763672" xlink:href="#DejaVuSans-61"/>
      <use x="1460.042969" xlink:href="#DejaVuSans-69"/>
      <use x="1487.826172" xlink:href="#DejaVuSans-72"/>
      <use x="1528.939453" xlink:href="#DejaVuSans-73"/>
     </g>
    </g>
   </g>
   <g id="line2d_29">
    <defs>
     <path d="M 0 1.5 
C 0.397805 1.5 0.77937 1.341951 1.06066 1.06066 
C 1.341951 0.77937 1.5 0.397805 1.5 0 
C 1.5 -0.397805 1.341951 -0.77937 1.06066 -1.06066 
C 0.77937 -1.341951 0.397805 -1.5 0 -1.5 
C -0.397805 -1.5 -0.77937 -1.341951 -1.06066 -1.06066 
C -1.341951 -0.77937 -1.5 -0.397805 -1.5 0 
C -1.5 0.397805 -1.341951 0.77937 -1.06066 1.06066 
C -0.77937 1.341951 -0.397805 1.5 0 1.5 
z
" id="mbee5a2cd73" style="stroke:#000080;"/>
    </defs>
    <g>
     <use style="fill:#000080;stroke:#000080;" x="218.798889" xlink:href="#mbee5a2cd73" y="6.381624"/>
     <use style="fill:#000080;stroke:#000080;" x="218.798889" xlink:href="#mbee5a2cd73" y="6.381624"/>
    </g>
   </g>
   <g id="line2d_30">
    <path d="M 45.512012 298.944 
L 45.512012 273.129673 
L 57.6 273.129673 
L 57.6 266.819504 
L 64.67102 266.819504 
L 64.67102 258.78838 
L 69.687988 258.78838 
L 69.687988 255.920121 
L 73.579452 255.920121 
L 73.579452 254.199166 
L 76.759008 254.199166 
L 76.759008 253.625514 
L 79.447285 253.625514 
L 79.447285 251.330907 
L 81.775977 251.330907 
L 81.775977 248.462649 
L 85.66744 248.462649 
L 85.66744 247.888997 
L 87.329581 247.888997 
L 87.329581 245.020738 
L 90.242884 245.020738 
L 90.242884 244.447087 
L 91.535274 244.447087 
L 91.535274 243.873435 
L 94.921215 243.873435 
L 94.921215 242.726132 
L 96.86091 242.726132 
L 96.86091 242.15248 
L 98.606294 242.15248 
L 98.606294 241.005176 
L 100.192776 241.005176 
L 100.192776 236.989614 
L 100.934985 236.989614 
L 100.934985 234.695008 
L 101.646892 234.695008 
L 101.646892 232.400401 
L 102.330873 232.400401 
L 102.330873 230.105794 
L 102.989037 230.105794 
L 102.989037 229.532142 
L 106.48859 229.532142 
L 106.48859 228.95849 
L 111.104637 228.95849 
L 111.104637 226.663884 
L 114.080224 226.663884 
L 114.080224 226.090232 
L 114.418861 226.090232 
L 114.418861 225.51658 
L 115.711251 225.51658 
L 115.711251 224.942928 
L 116.323218 224.942928 
L 116.323218 224.369277 
L 118.310324 224.369277 
L 118.310324 223.795625 
L 118.576578 223.795625 
L 118.576578 223.221973 
L 121.264855 223.221973 
L 121.264855 222.07467 
L 123.593547 222.07467 
L 123.593547 220.927366 
L 124.178158 220.927366 
L 124.178158 219.206411 
L 125.470548 219.206411 
L 125.470548 216.338153 
L 126.168212 216.338153 
L 126.168212 215.190849 
L 126.839037 215.190849 
L 126.839037 214.617197 
L 128.260216 214.617197 
L 128.260216 214.043546 
L 129.433047 214.043546 
L 129.433047 212.896242 
L 132.541568 212.896242 
L 132.541568 211.748939 
L 135.076644 211.748939 
L 135.076644 211.175287 
L 136.924311 211.175287 
L 136.924311 207.733377 
L 137.997836 207.733377 
L 137.997836 206.586073 
L 138.256201 206.586073 
L 138.256201 206.012422 
L 143.527762 206.012422 
L 143.527762 205.43877 
L 143.653678 205.43877 
L 143.653678 204.865118 
L 145.212864 204.865118 
L 145.212864 203.144163 
L 147.52003 203.144163 
L 147.52003 201.99686 
L 148.87334 201.99686 
L 148.87334 201.423208 
L 151.097081 201.423208 
L 151.097081 197.981298 
L 155.959855 197.981298 
L 155.959855 196.833994 
L 158.968208 196.833994 
L 158.968208 196.260342 
L 159.608019 196.260342 
L 159.608019 195.686691 
L 159.882266 195.686691 
L 159.882266 193.965736 
L 160.103486 193.965736 
L 160.103486 192.818432 
L 163.847782 192.818432 
L 163.847782 191.671129 
L 164.102088 191.671129 
L 164.102088 190.523825 
L 165.193576 190.523825 
L 165.193576 189.950174 
L 165.447111 189.950174 
L 165.447111 189.376522 
L 165.661531 189.376522 
L 165.661531 187.655567 
L 167.223287 187.655567 
L 167.223287 187.081915 
L 167.719528 187.081915 
L 167.719528 186.508263 
L 168.263336 186.508263 
L 168.263336 185.934612 
L 168.46108 185.934612 
L 168.46108 183.640005 
L 168.641643 183.640005 
L 168.641643 181.345398 
L 168.923766 181.345398 
L 168.923766 177.329836 
L 170.008719 177.329836 
L 170.008719 176.756184 
L 170.160306 176.756184 
L 170.160306 172.740622 
L 174.83783 172.740622 
L 174.83783 171.593319 
L 176.996497 171.593319 
L 176.996497 171.019667 
L 177.687252 171.019667 
L 177.731751 168.72506 
L 177.811565 168.72506 
L 177.882205 167.004105 
L 178.127217 167.004105 
L 178.127217 165.28315 
L 178.282926 165.28315 
L 178.282926 164.709498 
L 178.56483 164.709498 
L 178.56483 164.135846 
L 178.850589 164.135846 
L 178.950337 162.988543 
L 181.354499 162.988543 
L 181.354499 162.414891 
L 182.527329 162.414891 
L 182.527329 161.841239 
L 182.708675 161.841239 
L 182.708675 160.693936 
L 183.467024 160.693936 
L 183.549993 155.53107 
L 183.809106 155.53107 
L 183.809106 154.957419 
L 184.425399 154.957419 
L 184.425399 152.08916 
L 184.659972 152.08916 
L 184.659972 150.941857 
L 184.944411 150.941857 
L 184.944411 150.368205 
L 185.854792 150.368205 
L 185.943825 148.64725 
L 187.508816 148.64725 
L 187.508816 148.073598 
L 187.850478 148.073598 
L 187.905123 145.778991 
L 188.229447 145.778991 
L 188.234315 144.631688 
L 188.509564 144.631688 
L 188.543069 142.910733 
L 188.827643 142.910733 
L 188.827643 142.337081 
L 189.024118 142.337081 
L 189.024118 138.895171 
L 189.850822 138.895171 
L 189.850822 137.747867 
L 190.258597 137.747867 
L 190.258597 136.026912 
L 190.426802 136.026912 
L 190.426802 135.45326 
L 191.017592 135.45326 
L 191.017592 134.879609 
L 191.383019 134.879609 
L 191.383019 134.305957 
L 191.572952 134.305957 
L 191.585005 132.01135 
L 191.732983 132.01135 
L 191.732983 129.143091 
L 192.401027 129.143091 
L 192.401027 128.56944 
L 192.712519 128.56944 
L 192.712519 123.980226 
L 193.066571 123.980226 
L 193.066571 122.832923 
L 193.485761 122.832923 
L 193.485761 122.259271 
L 194.115355 122.259271 
L 194.115355 121.685619 
L 194.343143 121.685619 
L 194.343143 120.538316 
L 194.469552 120.538316 
L 194.469552 119.964664 
L 195.084923 119.964664 
L 195.084923 117.670057 
L 195.413699 117.670057 
L 195.50055 114.228147 
L 196.087383 114.228147 
L 196.170951 113.080843 
L 196.419277 113.080843 
L 196.48915 110.786236 
L 196.736007 110.786236 
L 196.736007 110.212585 
L 197.68708 110.212585 
L 197.70971 107.917978 
L 197.93999 107.917978 
L 197.995698 105.623371 
L 198.285279 105.623371 
L 198.339897 104.476068 
L 198.860992 104.476068 
L 198.937567 103.328764 
L 199.011184 103.328764 
L 199.021675 98.73955 
L 199.149685 98.73955 
L 199.149685 97.592247 
L 199.284512 97.592247 
L 199.305162 93.576685 
L 199.472047 93.576685 
L 199.472047 91.85573 
L 199.685374 91.85573 
L 199.685374 89.561123 
L 199.945928 89.561123 
L 199.945928 88.987471 
L 200.249142 88.987471 
L 200.249142 86.119213 
L 200.438728 86.119213 
L 200.438728 84.971909 
L 200.566383 84.971909 
L 200.566383 84.398257 
L 200.738317 84.398257 
L 200.738317 83.824606 
L 201.156242 83.824606 
L 201.156242 83.250954 
L 201.317889 83.250954 
L 201.317889 82.677302 
L 201.528086 82.677302 
L 201.528086 81.529999 
L 202.598289 81.529999 
L 202.598289 80.956347 
L 202.880069 80.956347 
L 202.880069 78.66174 
L 203.153231 78.66174 
L 203.153231 77.514437 
L 203.471008 77.514437 
L 203.471008 76.367133 
L 203.685039 76.367133 
L 203.753138 75.21983 
L 204.130827 75.21983 
L 204.166003 70.056964 
L 204.282745 70.056964 
L 204.282745 69.483313 
L 204.439118 69.483313 
L 204.544503 68.336009 
L 204.630256 68.336009 
L 204.723154 66.615054 
L 204.998917 66.615054 
L 204.998917 63.173144 
L 205.176681 63.173144 
L 205.176681 60.878537 
L 205.372702 60.878537 
L 205.372702 58.010278 
L 206.17727 58.010278 
L 206.17727 57.436627 
L 206.552433 57.436627 
L 206.552433 56.862975 
L 206.669516 56.862975 
L 206.752187 55.715672 
L 206.946349 55.715672 
L 206.946349 54.568368 
L 207.320162 54.568368 
L 207.320162 53.994716 
L 207.469411 53.994716 
L 207.556422 52.847413 
L 207.68613 52.847413 
L 207.68613 51.700109 
L 208.734087 51.700109 
L 208.734087 51.126458 
L 208.847893 51.126458 
L 208.877719 49.405503 
L 208.977267 49.405503 
L 209.080668 48.258199 
L 209.268173 48.258199 
L 209.29147 46.537244 
L 209.434932 46.537244 
L 209.434932 45.963592 
L 209.561471 45.963592 
L 209.62868 42.521682 
L 209.988877 42.521682 
L 209.988877 41.94803 
L 210.171067 41.94803 
L 210.270397 36.211513 
L 210.3719 36.211513 
L 210.482332 35.06421 
L 210.510849 35.06421 
L 210.585315 33.343255 
L 210.721239 33.343255 
L 210.721239 31.048648 
L 210.854782 31.048648 
L 210.854782 30.474996 
L 211.24548 30.474996 
L 211.24548 28.180389 
L 211.378956 28.180389 
L 211.463951 25.885782 
L 211.621253 25.885782 
L 211.65051 24.164827 
L 211.796065 24.164827 
L 211.796065 23.591175 
L 211.979123 23.591175 
L 211.979123 23.017524 
L 212.194808 23.017524 
L 212.194808 20.722917 
L 212.455256 20.722917 
L 212.455256 19.575613 
L 212.732191 19.575613 
L 212.732191 19.001962 
L 213.016552 19.001962 
L 213.016552 18.42831 
L 213.177985 18.42831 
L 213.177985 17.281006 
L 213.298665 17.281006 
L 213.298665 16.133703 
L 213.428848 16.133703 
L 213.481566 12.118141 
L 213.68181 12.118141 
L 213.68181 11.544489 
L 213.840591 11.544489 
L 213.840591 10.970838 
L 215.058194 10.970838 
L 215.058194 10.397186 
L 215.616801 10.397186 
L 215.616801 9.823534 
L 215.904977 9.823534 
L 215.904977 9.249882 
L 216.748633 9.249882 
L 216.748633 8.676231 
L 216.889437 8.676231 
L 216.889437 8.102579 
L 218.110622 8.102579 
L 218.110622 7.528927 
L 218.798889 7.528927 
L 218.798889 6.381624 
L 338.688 6.381624 
L 338.688 6.381624 
" style="fill:none;stroke:#000080;stroke-linecap:square;stroke-width:1.5;"/>
   </g>
   <g id="line2d_31">
    <defs>
     <path d="M 0 6 
C 1.591219 6 3.117479 5.367802 4.242641 4.242641 
C 5.367802 3.117479 6 1.591219 6 0 
C 6 -1.591219 5.367802 -3.117479 4.242641 -4.242641 
C 3.117479 -5.367802 1.591219 -6 0 -6 
C -1.591219 -6 -3.117479 -5.367802 -4.242641 -4.242641 
C -5.367802 -3.117479 -6 -1.591219 -6 0 
C -6 1.591219 -5.367802 3.117479 -4.242641 4.242641 
C -3.117479 5.367802 -1.591219 6 0 6 
z
" id="m63e0e2a562" style="stroke:#000080;stroke-width:1.5;"/>
    </defs>
    <g>
     <use style="fill-opacity:0;stroke:#000080;stroke-width:1.5;" x="98.606294" xlink:href="#m63e0e2a562" y="242.15248"/>
     <use style="fill-opacity:0;stroke:#000080;stroke-width:1.5;" x="168.641643" xlink:href="#m63e0e2a562" y="181.345398"/>
     <use style="fill-opacity:0;stroke:#000080;stroke-width:1.5;" x="207.68613" xlink:href="#m63e0e2a562" y="51.700109"/>
     <use style="fill-opacity:0;stroke:#000080;stroke-width:1.5;" x="218.798889" xlink:href="#m63e0e2a562" y="7.528927"/>
     <use style="fill-opacity:0;stroke:#000080;stroke-width:1.5;" x="218.798889" xlink:href="#m63e0e2a562" y="6.381624"/>
     <use style="fill-opacity:0;stroke:#000080;stroke-width:1.5;" x="338.688" xlink:href="#m63e0e2a562" y="6.381624"/>
    </g>
   </g>
   <g id="line2d_32">
    <path style="fill:none;stroke:#000080;stroke-linecap:square;stroke-width:1.5;"/>
    <g/>
   </g>
   <g id="line2d_33">
    <defs>
     <path d="M 0 1.5 
C 0.397805 1.5 0.77937 1.341951 1.06066 1.06066 
C 1.341951 0.77937 1.5 0.397805 1.5 0 
C 1.5 -0.397805 1.341951 -0.77937 1.06066 -1.06066 
C 0.77937 -1.341951 0.397805 -1.5 0 -1.5 
C -0.397805 -1.5 -0.77937 -1.341951 -1.06066 -1.06066 
C -1.341951 -0.77937 -1.5 -0.397805 -1.5 0 
C -1.5 0.397805 -1.341951 0.77937 -1.06066 1.06066 
C -0.77937 1.341951 -0.397805 1.5 0 1.5 
z
" id="m7eb4ecd8fd" style="stroke:#ff00ff;"/>
    </defs>
    <g>
     <use style="fill:#ff00ff;stroke:#ff00ff;" x="231.001228" xlink:href="#m7eb4ecd8fd" y="6.381624"/>
     <use style="fill:#ff00ff;stroke:#ff00ff;" x="231.001228" xlink:href="#m7eb4ecd8fd" y="6.381624"/>
    </g>
   </g>
   <g id="line2d_34">
    <path d="M 108.948899 298.944 
L 108.948899 298.370348 
L 112.655818 298.370348 
L 112.655818 296.649393 
L 113.73488 296.649393 
L 113.73488 296.075741 
L 128.560901 296.075741 
L 128.560901 294.928438 
L 135.178927 294.928438 
L 135.178927 294.354786 
L 138.426341 294.354786 
L 138.426341 292.633831 
L 138.84457 292.633831 
L 138.84457 289.765573 
L 141.235139 289.765573 
L 141.235139 289.191921 
L 142.283909 289.191921 
L 142.283909 288.044617 
L 150.301393 288.044617 
L 150.301393 286.897314 
L 151.381313 286.897314 
L 151.381313 285.176359 
L 157.976006 285.176359 
L 157.976006 282.881752 
L 159.098062 282.881752 
L 159.098062 282.3081 
L 159.456591 282.3081 
L 159.456591 281.734448 
L 160.727241 281.734448 
L 160.727241 281.160797 
L 165.266391 281.160797 
L 165.266391 280.587145 
L 166.425924 280.587145 
L 166.425924 276.571583 
L 166.878918 276.571583 
L 166.878918 274.850628 
L 167.239518 274.850628 
L 167.304287 270.261414 
L 167.481174 270.261414 
L 167.481174 269.687762 
L 171.003983 269.687762 
L 171.003983 269.114111 
L 171.783736 269.114111 
L 171.783736 268.540459 
L 176.82881 268.540459 
L 176.82881 267.966807 
L 177.098184 267.966807 
L 177.098184 267.393156 
L 177.615816 267.393156 
L 177.660498 265.6722 
L 178.666222 265.6722 
L 178.674645 263.377593 
L 178.867253 263.377593 
L 178.867253 261.656638 
L 179.69669 261.656638 
L 179.69669 260.509335 
L 180.435259 260.509335 
L 180.435259 259.362031 
L 180.684666 259.362031 
L 180.684666 258.78838 
L 182.055136 258.78838 
L 182.055136 257.067425 
L 182.323597 257.067425 
L 182.323597 255.346469 
L 182.808614 255.346469 
L 182.808614 253.625514 
L 183.37723 253.625514 
L 183.37723 252.478211 
L 183.670549 252.478211 
L 183.670549 251.904559 
L 183.809106 251.904559 
L 183.809106 251.330907 
L 184.425399 251.330907 
L 184.437506 248.462649 
L 184.897325 248.462649 
L 184.962035 245.59439 
L 185.854792 245.59439 
L 185.854792 245.020738 
L 185.977095 245.020738 
L 185.977095 244.447087 
L 186.527826 244.447087 
L 186.527826 239.857873 
L 186.799447 239.857873 
L 186.815293 236.989614 
L 188.418296 236.989614 
L 188.418296 236.415963 
L 188.633687 236.415963 
L 188.633687 235.842311 
L 188.752209 235.842311 
L 188.752209 234.695008 
L 189.014812 234.695008 
L 189.014812 234.121356 
L 189.514881 234.121356 
L 189.618592 228.95849 
L 190.184766 228.95849 
L 190.223892 227.237535 
L 190.3623 227.237535 
L 190.418216 224.942928 
L 191.456004 224.942928 
L 191.456004 223.221973 
L 192.91465 223.221973 
L 192.91465 222.648321 
L 193.330198 222.648321 
L 193.330198 222.07467 
L 193.668486 222.07467 
L 193.668486 220.927366 
L 193.83167 220.927366 
L 193.83167 220.353715 
L 194.042249 220.353715 
L 194.042249 216.911804 
L 194.756527 216.911804 
L 194.756527 216.338153 
L 195.449135 216.338153 
L 195.510174 214.617197 
L 195.742722 214.617197 
L 195.742722 212.896242 
L 196.009647 212.896242 
L 196.009647 212.322591 
L 196.214125 212.322591 
L 196.214125 210.601635 
L 196.549682 210.601635 
L 196.549682 210.027984 
L 197.032399 210.027984 
L 197.099863 208.307029 
L 197.335395 208.307029 
L 197.335395 207.733377 
L 198.065083 207.733377 
L 198.153496 204.865118 
L 198.274335 204.865118 
L 198.274335 203.717815 
L 198.578201 203.717815 
L 198.674758 201.423208 
L 198.704156 201.423208 
L 198.794708 195.113039 
L 199.060962 195.113039 
L 199.060962 194.539387 
L 199.374678 194.539387 
L 199.374678 193.392084 
L 199.848676 193.392084 
L 199.848676 192.818432 
L 200.059943 192.818432 
L 200.059943 192.24478 
L 200.307696 192.24478 
L 200.409695 190.523825 
L 200.792886 190.523825 
L 200.87324 188.80287 
L 201.081844 188.80287 
L 201.151601 186.508263 
L 201.195637 186.508263 
L 201.195637 185.934612 
L 201.388999 185.934612 
L 201.388999 184.787308 
L 201.600608 184.787308 
L 201.600608 184.213656 
L 201.785081 184.213656 
L 201.785081 183.640005 
L 202.075798 183.640005 
L 202.075798 183.066353 
L 202.216084 183.066353 
L 202.216084 182.492701 
L 202.738689 182.492701 
L 202.738689 180.198094 
L 203.436436 180.198094 
L 203.529825 176.182532 
L 203.826944 176.182532 
L 203.826944 175.608881 
L 204.081854 175.608881 
L 204.081854 172.740622 
L 204.736385 172.740622 
L 204.759043 169.872363 
L 204.877519 169.872363 
L 204.93739 167.004105 
L 205.361769 167.004105 
L 205.361769 166.430453 
L 205.903762 166.430453 
L 205.903762 165.856801 
L 206.238049 165.856801 
L 206.264032 164.135846 
L 206.422557 164.135846 
L 206.422557 162.414891 
L 206.603435 162.414891 
L 206.603435 160.693936 
L 206.849538 160.693936 
L 206.864596 158.972981 
L 207.00451 158.972981 
L 207.00451 157.825677 
L 207.377092 157.825677 
L 207.399812 156.678374 
L 207.72597 156.678374 
L 207.72597 156.104722 
L 207.992923 156.104722 
L 207.992923 155.53107 
L 208.295952 155.53107 
L 208.295952 153.810115 
L 208.551348 153.810115 
L 208.551348 153.236464 
L 208.758108 153.236464 
L 208.765608 151.515508 
L 209.023134 151.515508 
L 209.061511 148.64725 
L 209.416161 148.64725 
L 209.426271 146.926295 
L 209.595823 146.926295 
L 209.595823 145.778991 
L 210.014024 145.778991 
L 210.092027 140.616126 
L 210.135058 140.616126 
L 210.171067 137.747867 
L 210.366429 137.747867 
L 210.366429 136.600564 
L 210.73062 136.600564 
L 210.749368 134.879609 
L 210.846798 134.879609 
L 210.923822 130.864047 
L 211.121459 130.864047 
L 211.121459 130.290395 
L 211.335009 130.290395 
L 211.438239 127.995788 
L 211.454956 127.995788 
L 211.487059 123.980226 
L 211.568976 123.980226 
L 211.651781 122.832923 
L 211.924157 122.832923 
L 211.924157 121.111967 
L 212.182485 121.111967 
L 212.216969 118.243709 
L 212.342018 118.243709 
L 212.418808 116.522754 
L 212.872581 116.522754 
L 212.873766 114.801798 
L 212.988324 114.801798 
L 213.037694 111.93354 
L 213.224499 111.93354 
L 213.254667 109.638933 
L 213.441469 109.638933 
L 213.487286 108.49163 
L 213.569456 108.49163 
L 213.576286 104.476068 
L 213.680679 104.476068 
L 213.790073 99.886854 
L 213.801312 99.886854 
L 213.801312 99.313202 
L 213.996828 99.313202 
L 214.065574 97.018595 
L 214.15388 97.018595 
L 214.162686 94.723988 
L 214.474616 94.723988 
L 214.474616 94.150337 
L 214.604925 94.150337 
L 214.608144 93.003033 
L 214.727877 93.003033 
L 214.727877 92.429381 
L 214.845735 92.429381 
L 214.845735 88.987471 
L 215.165539 88.987471 
L 215.165539 88.413819 
L 215.495902 88.413819 
L 215.495902 82.677302 
L 215.694585 82.677302 
L 215.695593 80.956347 
L 215.81512 80.956347 
L 215.817122 79.235392 
L 216.086272 79.235392 
L 216.086272 77.514437 
L 216.334821 77.514437 
L 216.392052 75.21983 
L 216.762859 75.21983 
L 216.840426 74.072526 
L 217.013233 74.072526 
L 217.013233 73.498875 
L 217.349211 73.498875 
L 217.441552 70.056964 
L 217.479808 70.056964 
L 217.503449 68.336009 
L 217.892512 68.336009 
L 217.997051 64.894099 
L 218.081639 64.894099 
L 218.170192 56.289323 
L 218.199028 56.289323 
L 218.199028 55.715672 
L 218.402146 55.715672 
L 218.402146 55.14202 
L 218.620831 55.14202 
L 218.721106 53.994716 
L 218.787919 53.994716 
L 218.888079 51.700109 
L 219.363289 51.700109 
L 219.456147 50.552806 
L 219.536387 50.552806 
L 219.536387 48.258199 
L 219.678131 48.258199 
L 219.689357 45.389941 
L 219.852119 45.389941 
L 219.950315 41.94803 
L 220.039321 41.94803 
L 220.116146 40.227075 
L 220.155213 40.227075 
L 220.191077 37.932468 
L 220.797269 37.932468 
L 220.797269 36.211513 
L 220.983579 36.211513 
L 221.056364 33.343255 
L 221.110384 33.343255 
L 221.21058 29.901344 
L 221.231138 29.901344 
L 221.231138 27.606737 
L 221.366358 27.606737 
L 221.444815 25.885782 
L 221.486804 25.885782 
L 221.562563 23.017524 
L 221.620781 23.017524 
L 221.620781 22.443872 
L 222.145236 22.443872 
L 222.15011 18.42831 
L 222.285323 18.42831 
L 222.285323 16.707355 
L 222.968693 16.707355 
L 223.005184 15.560051 
L 223.326963 15.560051 
L 223.326963 14.9864 
L 224.269857 14.9864 
L 224.273555 13.839096 
L 224.598984 13.839096 
L 224.598984 13.265444 
L 224.729156 13.265444 
L 224.729156 12.691793 
L 225.02267 12.691793 
L 225.02267 12.118141 
L 225.157932 12.118141 
L 225.198891 10.970838 
L 225.469138 10.970838 
L 225.469138 9.823534 
L 226.876487 9.823534 
L 226.876487 9.249882 
L 227.388074 9.249882 
L 227.388074 8.676231 
L 227.658662 8.676231 
L 227.658662 8.102579 
L 229.026768 8.102579 
L 229.026768 7.528927 
L 230.406223 7.528927 
L 230.406223 6.955275 
L 231.001228 6.955275 
L 231.001228 6.381624 
L 338.688 6.381624 
L 338.688 6.381624 
" style="fill:none;stroke:#ff00ff;stroke-linecap:square;stroke-width:1.5;"/>
   </g>
   <g id="line2d_35">
    <defs>
     <path d="M -0 8.485281 
L 5.091169 0 
L 0 -8.485281 
L -5.091169 -0 
z
" id="m3cad253a39" style="stroke:#ff00ff;stroke-linejoin:miter;stroke-width:1.5;"/>
    </defs>
    <g>
     <use style="fill-opacity:0;stroke:#ff00ff;stroke-linejoin:miter;stroke-width:1.5;" x="178.867253" xlink:href="#m3cad253a39" y="263.377593"/>
     <use style="fill-opacity:0;stroke:#ff00ff;stroke-linejoin:miter;stroke-width:1.5;" x="210.749368" xlink:href="#m3cad253a39" y="136.026912"/>
     <use style="fill-opacity:0;stroke:#ff00ff;stroke-linejoin:miter;stroke-width:1.5;" x="231.001228" xlink:href="#m3cad253a39" y="6.955275"/>
     <use style="fill-opacity:0;stroke:#ff00ff;stroke-linejoin:miter;stroke-width:1.5;" x="231.001228" xlink:href="#m3cad253a39" y="6.381624"/>
     <use style="fill-opacity:0;stroke:#ff00ff;stroke-linejoin:miter;stroke-width:1.5;" x="338.688" xlink:href="#m3cad253a39" y="6.381624"/>
    </g>
   </g>
   <g id="line2d_36">
    <path style="fill:none;stroke:#ff00ff;stroke-linecap:square;stroke-width:1.5;"/>
    <g/>
   </g>
   <g id="line2d_37">
    <defs>
     <path d="M 0 1.5 
C 0.397805 1.5 0.77937 1.341951 1.06066 1.06066 
C 1.341951 0.77937 1.5 0.397805 1.5 0 
C 1.5 -0.397805 1.341951 -0.77937 1.06066 -1.06066 
C 0.77937 -1.341951 0.397805 -1.5 0 -1.5 
C -0.397805 -1.5 -0.77937 -1.341951 -1.06066 -1.06066 
C -1.341951 -0.77937 -1.5 -0.397805 -1.5 0 
C -1.5 0.397805 -1.341951 0.77937 -1.06066 1.06066 
C -0.77937 1.341951 -0.397805 1.5 0 1.5 
z
" id="m6ad72d6b42" style="stroke:#ff7500;"/>
    </defs>
    <g>
     <use style="fill:#ff7500;stroke:#ff7500;" x="223.958261" xlink:href="#m6ad72d6b42" y="6.381624"/>
     <use style="fill:#ff7500;stroke:#ff7500;" x="223.958261" xlink:href="#m6ad72d6b42" y="6.381624"/>
    </g>
   </g>
   <g id="line2d_38">
    <path d="M 45.512012 298.944 
L 45.512012 297.223045 
L 57.6 297.223045 
L 57.6 288.618269 
L 64.67102 288.618269 
L 64.67102 286.323662 
L 73.579452 286.323662 
L 73.579452 284.602707 
L 76.759008 284.602707 
L 76.759008 282.881752 
L 79.447285 282.881752 
L 79.447285 281.160797 
L 81.775977 281.160797 
L 81.775977 278.86619 
L 83.830028 278.86619 
L 83.830028 277.718886 
L 88.846997 277.718886 
L 88.846997 277.145235 
L 91.535274 277.145235 
L 91.535274 276.571583 
L 94.921215 276.571583 
L 94.921215 275.997931 
L 95.918017 275.997931 
L 95.918017 275.42428 
L 96.86091 275.42428 
L 96.86091 274.850628 
L 97.755429 274.850628 
L 97.755429 274.276976 
L 99.41757 274.276976 
L 99.41757 272.556021 
L 101.646892 272.556021 
L 101.646892 271.982369 
L 104.826449 271.982369 
L 104.826449 271.408718 
L 108.483824 271.408718 
L 108.483824 270.835066 
L 111.505558 270.835066 
L 111.505558 269.114111 
L 112.655818 269.114111 
L 112.655818 268.540459 
L 116.323218 268.540459 
L 116.323218 267.393156 
L 119.351785 267.393156 
L 119.351785 266.819504 
L 119.850084 266.819504 
L 119.850084 265.6722 
L 126.50685 265.6722 
L 126.50685 265.098549 
L 126.673734 265.098549 
L 126.673734 264.524897 
L 127.799239 264.524897 
L 127.799239 263.377593 
L 132.893889 263.377593 
L 132.893889 262.23029 
L 133.57787 262.23029 
L 133.57787 261.082987 
L 136.924311 261.082987 
L 136.924311 259.935683 
L 138.594838 259.935683 
L 138.594838 259.362031 
L 139.652088 259.362031 
L 139.652088 258.78838 
L 143.653678 258.78838 
L 143.653678 258.214728 
L 147.368603 258.214728 
L 147.368603 257.067425 
L 147.670154 257.067425 
L 147.670154 256.493773 
L 148.306159 256.493773 
L 148.306159 255.920121 
L 148.780082 255.920121 
L 148.780082 255.346469 
L 153.466662 255.346469 
L 153.466662 254.772818 
L 155.296925 254.772818 
L 155.296925 254.199166 
L 156.327657 254.199166 
L 156.327657 253.625514 
L 159.783038 253.625514 
L 159.783038 252.478211 
L 161.238149 252.478211 
L 161.238149 251.330907 
L 163.828065 251.330907 
L 163.828065 250.757256 
L 166.151824 250.757256 
L 166.151824 249.609952 
L 166.679039 249.609952 
L 166.679039 249.036301 
L 166.795913 249.036301 
L 166.795913 248.462649 
L 167.352708 248.462649 
L 167.352708 247.888997 
L 167.923499 247.888997 
L 167.923499 247.315345 
L 170.647393 247.315345 
L 170.647393 246.741694 
L 171.49381 246.741694 
L 171.49381 245.59439 
L 171.945501 245.59439 
L 171.945501 244.447087 
L 174.509477 244.447087 
L 174.509477 243.873435 
L 177.208443 243.873435 
L 177.208443 243.299783 
L 177.785001 243.299783 
L 177.785001 242.726132 
L 178.505412 242.726132 
L 178.505412 241.578828 
L 178.808858 241.578828 
L 178.808858 239.857873 
L 179.19724 239.857873 
L 179.19724 239.284221 
L 179.513075 239.284221 
L 179.513075 238.71057 
L 179.988073 238.71057 
L 179.988073 238.136918 
L 180.366615 238.136918 
L 180.366615 237.563266 
L 181.34005 237.563266 
L 181.412173 236.415963 
L 183.163725 236.415963 
L 183.163725 234.695008 
L 184.431454 234.695008 
L 184.431454 232.974052 
L 185.073244 232.974052 
L 185.172149 231.253097 
L 185.305076 231.253097 
L 185.305076 229.532142 
L 185.590598 229.532142 
L 185.590598 228.95849 
L 186.300918 228.95849 
L 186.300918 228.384839 
L 186.978205 228.384839 
L 187.040861 227.237535 
L 187.14479 227.237535 
L 187.14479 226.090232 
L 187.579708 226.090232 
L 187.620088 219.206411 
L 187.959598 219.206411 
L 187.959598 218.059108 
L 188.55263 218.059108 
L 188.55263 216.338153 
L 189.190781 216.338153 
L 189.190781 215.190849 
L 189.419646 215.190849 
L 189.419646 214.617197 
L 189.537479 214.617197 
L 189.587093 212.322591 
L 189.903977 212.322591 
L 189.903977 211.748939 
L 190.180414 211.748939 
L 190.180414 206.586073 
L 190.409625 206.586073 
L 190.409625 205.43877 
L 191.013442 205.43877 
L 191.038326 203.717815 
L 191.170442 203.717815 
L 191.170442 201.99686 
L 191.407381 201.99686 
L 191.44791 200.849556 
L 191.871816 200.849556 
L 191.871816 200.275904 
L 192.021307 200.275904 
L 192.021307 199.128601 
L 192.572656 199.128601 
L 192.572656 197.981298 
L 192.780157 197.981298 
L 192.780157 197.407646 
L 193.0555 197.407646 
L 193.0555 196.833994 
L 193.589898 196.833994 
L 193.589898 196.260342 
L 194.462742 196.260342 
L 194.462742 195.686691 
L 194.820034 195.686691 
L 194.820034 195.113039 
L 195.345848 195.113039 
L 195.345848 194.539387 
L 195.519792 194.539387 
L 195.53581 192.818432 
L 195.669787 192.818432 
L 195.669787 192.24478 
L 196.115283 192.24478 
L 196.133859 191.097477 
L 196.290957 191.097477 
L 196.290957 190.523825 
L 196.422321 190.523825 
L 196.507332 187.081915 
L 196.89076 187.081915 
L 196.89076 186.508263 
L 197.43332 186.508263 
L 197.43332 185.934612 
L 197.970652 185.934612 
L 197.970652 184.787308 
L 198.183784 184.787308 
L 198.189286 183.640005 
L 198.44049 183.640005 
L 198.448621 181.345398 
L 198.706826 181.345398 
L 198.776103 178.477139 
L 199.336092 178.477139 
L 199.443917 177.329836 
L 199.525624 177.329836 
L 199.525624 176.182532 
L 199.786048 176.182532 
L 199.796084 172.740622 
L 200.069823 172.740622 
L 200.069823 171.593319 
L 200.31987 171.593319 
L 200.31987 171.019667 
L 200.518321 171.019667 
L 200.518321 170.446015 
L 200.709779 170.446015 
L 200.709779 169.298712 
L 201.060862 169.298712 
L 201.060862 168.151408 
L 201.239561 168.151408 
L 201.283376 165.28315 
L 201.591559 165.28315 
L 201.591559 163.562195 
L 202.163609 163.562195 
L 202.253159 160.693936 
L 202.392032 160.693936 
L 202.392032 160.120284 
L 202.514791 160.120284 
L 202.581194 158.972981 
L 202.989013 158.972981 
L 203.070276 155.53107 
L 203.276929 155.53107 
L 203.317968 154.383767 
L 203.5278 154.383767 
L 203.5278 153.810115 
L 204.058298 153.810115 
L 204.058298 153.236464 
L 204.197211 153.236464 
L 204.300189 151.515508 
L 204.435273 151.515508 
L 204.435273 150.941857 
L 204.721263 150.941857 
L 204.776018 148.64725 
L 205.30151 148.64725 
L 205.410917 146.926295 
L 205.461739 146.926295 
L 205.461739 146.352643 
L 205.672515 146.352643 
L 205.674306 144.058036 
L 205.859529 144.058036 
L 205.859529 142.910733 
L 206.035791 142.910733 
L 206.144186 139.468822 
L 206.374463 139.468822 
L 206.431131 138.321519 
L 206.513231 138.321519 
L 206.513231 137.174215 
L 206.701618 137.174215 
L 206.770692 133.158653 
L 206.992894 133.158653 
L 207.092216 131.437698 
L 207.357594 131.437698 
L 207.357594 130.864047 
L 207.504912 130.864047 
L 207.504912 129.716743 
L 207.641402 129.716743 
L 207.727561 128.56944 
L 207.835457 128.56944 
L 207.835457 123.406574 
L 208.085166 123.406574 
L 208.085166 121.685619 
L 208.251218 121.685619 
L 208.251218 121.111967 
L 208.72507 121.111967 
L 208.828479 116.522754 
L 208.900056 116.522754 
L 208.934249 113.654495 
L 209.164415 113.654495 
L 209.209794 111.359888 
L 209.689943 111.359888 
L 209.689943 110.212585 
L 209.816064 110.212585 
L 209.816064 109.065281 
L 210.445599 109.065281 
L 210.445599 108.49163 
L 210.798818 108.49163 
L 210.798818 107.917978 
L 210.950304 107.917978 
L 210.950304 107.344326 
L 211.066346 107.344326 
L 211.08211 103.902416 
L 211.253284 103.902416 
L 211.277971 101.607809 
L 211.436952 101.607809 
L 211.478076 99.313202 
L 211.548533 99.313202 
L 211.623799 94.150337 
L 211.756948 94.150337 
L 211.756948 93.003033 
L 211.895356 93.003033 
L 211.895356 92.429381 
L 212.278379 92.429381 
L 212.388376 89.561123 
L 212.458897 89.561123 
L 212.458897 88.987471 
L 212.747713 88.987471 
L 212.832246 84.971909 
L 213.085754 84.971909 
L 213.132514 82.103651 
L 213.306757 82.103651 
L 213.385178 79.235392 
L 213.495292 79.235392 
L 213.495292 78.66174 
L 213.777702 78.66174 
L 213.777702 77.514437 
L 214.017924 77.514437 
L 214.017924 76.940785 
L 214.179185 76.940785 
L 214.254882 75.21983 
L 214.583454 75.21983 
L 214.583454 73.498875 
L 214.695886 73.498875 
L 214.695886 72.925223 
L 214.994308 72.925223 
L 214.994308 72.351571 
L 215.344362 72.351571 
L 215.422345 71.204268 
L 215.532565 71.204268 
L 215.532565 70.630616 
L 215.889036 70.630616 
L 215.929856 67.762358 
L 216.006259 67.762358 
L 216.010219 66.615054 
L 216.124666 66.615054 
L 216.124666 64.894099 
L 216.398829 64.894099 
L 216.398829 64.320447 
L 216.740091 64.320447 
L 216.824374 60.878537 
L 217.085044 60.878537 
L 217.188971 58.010278 
L 217.255456 58.010278 
L 217.305154 54.568368 
L 217.396814 54.568368 
L 217.493451 53.421065 
L 217.618464 53.421065 
L 217.618464 49.979154 
L 217.750652 49.979154 
L 217.850699 48.258199 
L 217.986448 48.258199 
L 218.001466 47.110896 
L 218.113254 47.110896 
L 218.193789 45.389941 
L 218.289595 45.389941 
L 218.374509 41.94803 
L 218.586709 41.94803 
L 218.68633 40.800727 
L 218.713479 40.800727 
L 218.759195 37.932468 
L 218.91324 37.932468 
L 218.91324 35.06421 
L 219.094158 35.06421 
L 219.124819 33.916906 
L 219.264186 33.916906 
L 219.264186 33.343255 
L 219.565474 33.343255 
L 219.565474 32.769603 
L 220.010227 32.769603 
L 220.044034 27.606737 
L 220.63706 27.606737 
L 220.712058 24.738479 
L 220.846847 24.738479 
L 220.867837 22.443872 
L 221.045984 22.443872 
L 221.045984 21.87022 
L 221.822674 21.87022 
L 221.932974 19.575613 
L 221.975212 19.575613 
L 222.034874 17.854658 
L 222.166112 17.854658 
L 222.267355 14.412748 
L 222.84806 14.412748 
L 222.914811 12.118141 
L 223.356869 12.118141 
L 223.439168 10.970838 
L 223.533945 10.970838 
L 223.539088 8.676231 
L 223.958261 8.676231 
L 223.958261 6.381624 
L 338.688 6.381624 
L 338.688 6.381624 
" style="fill:none;stroke:#ff7500;stroke-linecap:square;stroke-width:1.5;"/>
   </g>
   <g id="line2d_39">
    <defs>
     <path d="M 0 -6 
L -1.347084 -1.854102 
L -5.706339 -1.854102 
L -2.179628 0.708204 
L -3.526712 4.854102 
L -0 2.291796 
L 3.526712 4.854102 
L 2.179628 0.708204 
L 5.706339 -1.854102 
L 1.347084 -1.854102 
z
" id="m1da51efdd8" style="stroke:#ff7500;stroke-linejoin:bevel;stroke-width:1.5;"/>
    </defs>
    <g>
     <use style="fill-opacity:0;stroke:#ff7500;stroke-linejoin:bevel;stroke-width:1.5;" x="127.799239" xlink:href="#m1da51efdd8" y="263.377593"/>
     <use style="fill-opacity:0;stroke:#ff7500;stroke-linejoin:bevel;stroke-width:1.5;" x="201.283376" xlink:href="#m1da51efdd8" y="167.004105"/>
     <use style="fill-opacity:0;stroke:#ff7500;stroke-linejoin:bevel;stroke-width:1.5;" x="220.018095" xlink:href="#m1da51efdd8" y="29.901344"/>
     <use style="fill-opacity:0;stroke:#ff7500;stroke-linejoin:bevel;stroke-width:1.5;" x="223.958261" xlink:href="#m1da51efdd8" y="6.381624"/>
     <use style="fill-opacity:0;stroke:#ff7500;stroke-linejoin:bevel;stroke-width:1.5;" x="223.958261" xlink:href="#m1da51efdd8" y="6.381624"/>
     <use style="fill-opacity:0;stroke:#ff7500;stroke-linejoin:bevel;stroke-width:1.5;" x="338.688" xlink:href="#m1da51efdd8" y="6.381624"/>
    </g>
   </g>
   <g id="line2d_40">
    <path style="fill:none;stroke:#ff7500;stroke-linecap:square;stroke-width:1.5;"/>
    <g/>
   </g>
   <g id="line2d_41">
    <defs>
     <path d="M 0 1.5 
C 0.397805 1.5 0.77937 1.341951 1.06066 1.06066 
C 1.341951 0.77937 1.5 0.397805 1.5 0 
C 1.5 -0.397805 1.341951 -0.77937 1.06066 -1.06066 
C 0.77937 -1.341951 0.397805 -1.5 0 -1.5 
C -0.397805 -1.5 -0.77937 -1.341951 -1.06066 -1.06066 
C -1.341951 -0.77937 -1.5 -0.397805 -1.5 0 
C -1.5 0.397805 -1.341951 0.77937 -1.06066 1.06066 
C -0.77937 1.341951 -0.397805 1.5 0 1.5 
z
" id="m434bd14d7a" style="stroke:#6495ed;"/>
    </defs>
    <g>
     <use style="fill:#6495ed;stroke:#6495ed;" x="251.082431" xlink:href="#m434bd14d7a" y="6.381624"/>
     <use style="fill:#6495ed;stroke:#6495ed;" x="251.082431" xlink:href="#m434bd14d7a" y="6.381624"/>
    </g>
   </g>
   <g id="line2d_42">
    <path d="M 45.512012 298.944 
L 45.512012 294.354786 
L 57.6 294.354786 
L 57.6 292.060179 
L 64.67102 292.060179 
L 64.67102 289.191921 
L 69.687988 289.191921 
L 69.687988 286.323662 
L 73.579452 286.323662 
L 73.579452 285.75001 
L 81.775977 285.75001 
L 81.775977 284.029055 
L 83.830028 284.029055 
L 83.830028 283.455404 
L 85.66744 283.455404 
L 85.66744 282.3081 
L 88.846997 282.3081 
L 88.846997 281.734448 
L 91.535274 281.734448 
L 91.535274 281.160797 
L 92.73846 281.160797 
L 92.73846 280.587145 
L 93.863965 280.587145 
L 93.863965 280.013493 
L 97.755429 280.013493 
L 97.755429 277.718886 
L 98.606294 277.718886 
L 98.606294 277.145235 
L 100.934985 277.145235 
L 100.934985 276.571583 
L 110.694282 276.571583 
L 110.694282 275.997931 
L 111.104637 275.997931 
L 111.104637 273.129673 
L 117.202696 273.129673 
L 117.202696 272.556021 
L 117.486268 272.556021 
L 117.486268 271.408718 
L 119.097192 271.408718 
L 119.097192 270.261414 
L 119.850084 270.261414 
L 119.850084 269.687762 
L 125.110962 269.687762 
L 125.110962 268.540459 
L 132.777237 268.540459 
L 132.777237 267.966807 
L 135.076644 267.966807 
L 135.076644 266.819504 
L 139.253002 266.819504 
L 139.253002 266.245852 
L 140.499195 266.245852 
L 140.499195 265.6722 
L 146.052799 265.6722 
L 146.161795 264.524897 
L 147.96658 264.524897 
L 147.96658 263.951245 
L 150.085825 263.951245 
L 150.085825 262.23029 
L 151.219462 262.23029 
L 151.219462 261.656638 
L 154.607795 261.656638 
L 154.607795 261.082987 
L 155.457066 261.082987 
L 155.457066 259.935683 
L 155.928852 259.935683 
L 155.928852 259.362031 
L 158.331086 259.362031 
L 158.331086 258.78838 
L 160.103486 258.78838 
L 160.103486 258.214728 
L 164.295217 258.214728 
L 164.295217 257.641076 
L 165.211808 257.641076 
L 165.211808 257.067425 
L 165.483031 257.067425 
L 165.483031 256.493773 
L 166.237944 256.493773 
L 166.237944 255.920121 
L 167.87664 255.920121 
L 167.87664 255.346469 
L 168.835167 255.346469 
L 168.835167 254.772818 
L 170.351349 254.772818 
L 170.351349 254.199166 
L 171.095254 254.199166 
L 171.095254 253.051863 
L 171.708567 253.051863 
L 171.708567 250.183604 
L 172.361615 250.183604 
L 172.361615 249.036301 
L 172.685129 249.036301 
L 172.685129 248.462649 
L 173.688525 248.462649 
L 173.688525 247.888997 
L 176.160922 247.888997 
L 176.160922 247.315345 
L 177.180944 247.315345 
L 177.180944 246.741694 
L 177.354379 246.741694 
L 177.408792 242.726132 
L 177.855749 242.726132 
L 177.855749 242.15248 
L 178.083716 242.15248 
L 178.083716 241.005176 
L 178.239812 241.005176 
L 178.239812 240.431525 
L 179.065994 240.431525 
L 179.065994 239.857873 
L 179.728427 239.857873 
L 179.728427 238.71057 
L 180.358972 238.71057 
L 180.358972 237.563266 
L 183.033044 237.563266 
L 183.10504 236.415963 
L 183.254622 236.415963 
L 183.254622 235.842311 
L 183.607202 235.842311 
L 183.607202 234.695008 
L 183.809106 234.695008 
L 183.809106 233.547704 
L 184.879635 233.547704 
L 184.879635 231.826749 
L 185.2185 231.826749 
L 185.2185 231.253097 
L 185.339586 231.253097 
L 185.339586 230.679446 
L 186.208228 230.679446 
L 186.208228 230.105794 
L 187.232646 230.105794 
L 187.232646 228.95849 
L 187.478346 228.95849 
L 187.493588 227.811187 
L 187.710604 227.811187 
L 187.710604 227.237535 
L 189.319315 227.237535 
L 189.319315 226.090232 
L 189.437826 226.090232 
L 189.437826 224.942928 
L 189.788602 224.942928 
L 189.881849 223.795625 
L 190.149914 223.795625 
L 190.149914 222.648321 
L 190.314846 222.648321 
L 190.405328 220.927366 
L 190.707812 220.927366 
L 190.783672 218.059108 
L 190.892668 218.059108 
L 190.97605 216.911804 
L 191.354553 216.911804 
L 191.354553 215.764501 
L 191.954588 215.764501 
L 191.954588 214.617197 
L 192.231563 214.617197 
L 192.254769 211.748939 
L 192.42018 211.748939 
L 192.42018 211.175287 
L 192.595413 211.175287 
L 192.595413 209.454332 
L 192.847533 209.454332 
L 192.847533 208.88068 
L 193.00374 208.88068 
L 193.00374 208.307029 
L 194.415001 208.307029 
L 194.415001 206.586073 
L 195.009179 206.586073 
L 195.111192 204.291467 
L 195.17996 204.291467 
L 195.264728 201.423208 
L 195.326414 201.423208 
L 195.413699 195.113039 
L 195.644347 195.113039 
L 195.704707 193.965736 
L 195.853128 193.965736 
L 195.853128 192.818432 
L 196.443613 192.818432 
L 196.443613 192.24478 
L 196.579869 192.24478 
L 196.649103 190.523825 
L 196.831402 190.523825 
L 196.899646 186.508263 
L 198.145226 186.508263 
L 198.244204 184.787308 
L 198.296217 184.787308 
L 198.296217 181.345398 
L 198.545896 181.345398 
L 198.545896 180.771746 
L 198.677433 180.771746 
L 198.677433 179.050791 
L 199.214636 179.050791 
L 199.214636 177.903487 
L 199.898617 177.903487 
L 199.898617 177.329836 
L 200.244254 177.329836 
L 200.244254 175.608881 
L 200.426637 175.608881 
L 200.426637 175.035229 
L 200.979026 175.035229 
L 200.979026 174.461577 
L 201.193322 174.461577 
L 201.193322 172.740622 
L 201.960978 172.740622 
L 201.960978 172.16697 
L 202.589743 172.16697 
L 202.589743 171.019667 
L 202.903172 171.019667 
L 202.903172 169.872363 
L 203.397716 169.872363 
L 203.397716 168.72506 
L 204.228363 168.72506 
L 204.323421 167.004105 
L 204.55787 167.004105 
L 204.573134 164.709498 
L 204.67013 164.709498 
L 204.67013 161.841239 
L 204.976568 161.841239 
L 204.976568 161.267588 
L 205.121324 161.267588 
L 205.158249 159.546632 
L 205.859529 159.546632 
L 205.960217 157.825677 
L 206.104054 157.825677 
L 206.104054 157.252026 
L 206.319335 157.252026 
L 206.362418 155.53107 
L 206.655981 155.53107 
L 206.655981 153.810115 
L 206.957997 153.810115 
L 207.065785 152.08916 
L 207.085612 152.08916 
L 207.085612 149.794553 
L 207.500075 149.794553 
L 207.56285 148.073598 
L 207.923813 148.073598 
L 207.991355 145.778991 
L 208.106982 145.778991 
L 208.106982 144.631688 
L 208.292871 144.631688 
L 208.292871 142.910733 
L 208.45544 142.910733 
L 208.45544 142.337081 
L 208.699499 142.337081 
L 208.776102 141.189778 
L 208.853863 141.189778 
L 208.940189 138.895171 
L 208.992076 138.895171 
L 209.102746 133.732305 
L 209.281281 133.732305 
L 209.362624 132.585002 
L 209.574361 132.585002 
L 209.667173 130.290395 
L 209.825945 130.290395 
L 209.855554 127.422136 
L 209.959494 127.422136 
L 209.959494 126.274833 
L 210.094807 126.274833 
L 210.094807 125.701181 
L 210.523056 125.701181 
L 210.575855 122.832923 
L 210.685007 122.832923 
L 210.756059 121.111967 
L 211.142409 121.111967 
L 211.171173 119.964664 
L 211.254584 119.964664 
L 211.344066 118.243709 
L 211.375083 118.243709 
L 211.461381 117.096405 
L 211.538303 117.096405 
L 211.538303 116.522754 
L 211.69367 116.522754 
L 211.701276 111.93354 
L 211.88031 111.93354 
L 211.984112 110.212585 
L 212.027699 110.212585 
L 212.027699 109.065281 
L 212.282057 109.065281 
L 212.359111 105.623371 
L 212.570176 105.623371 
L 212.570176 103.902416 
L 212.727412 103.902416 
L 212.828682 102.181461 
L 213.004796 102.181461 
L 213.056465 101.034157 
L 213.415069 101.034157 
L 213.523854 98.165899 
L 213.537547 98.165899 
L 213.643305 93.003033 
L 213.75406 93.003033 
L 213.813666 91.85573 
L 213.943418 91.85573 
L 213.943418 91.282078 
L 214.386837 91.282078 
L 214.464885 90.134775 
L 214.502699 90.134775 
L 214.540431 87.266516 
L 215.097874 87.266516 
L 215.097874 86.692864 
L 215.299055 86.692864 
L 215.360809 84.398257 
L 215.426439 84.398257 
L 215.483664 82.677302 
L 215.594513 82.677302 
L 215.594513 82.103651 
L 215.725803 82.103651 
L 215.823126 79.809044 
L 216.067536 79.809044 
L 216.137445 78.088089 
L 216.310514 78.088089 
L 216.380427 76.940785 
L 216.481883 76.940785 
L 216.481883 76.367133 
L 216.607639 76.367133 
L 216.651584 75.21983 
L 216.776127 75.21983 
L 216.810197 71.77792 
L 216.895083 71.77792 
L 216.918589 67.762358 
L 217.043113 67.762358 
L 217.043113 67.188706 
L 217.517981 67.188706 
L 217.586843 64.894099 
L 217.709395 64.894099 
L 217.709395 60.878537 
L 217.834658 60.878537 
L 217.880957 58.58393 
L 218.055249 58.58393 
L 218.055249 57.436627 
L 218.331237 57.436627 
L 218.331237 56.862975 
L 218.472768 56.862975 
L 218.55423 55.715672 
L 218.756659 55.715672 
L 218.756659 55.14202 
L 219.037666 55.14202 
L 219.037666 54.568368 
L 219.196703 54.568368 
L 219.256792 47.684547 
L 219.394297 47.684547 
L 219.394297 47.110896 
L 219.710186 47.110896 
L 219.813162 41.94803 
L 219.877513 41.94803 
L 219.883855 40.800727 
L 220.033821 40.800727 
L 220.033821 40.227075 
L 220.557162 40.227075 
L 220.557162 39.653423 
L 220.75283 39.653423 
L 220.75283 38.50612 
L 221.045243 38.50612 
L 221.045243 37.932468 
L 221.184114 37.932468 
L 221.184114 36.785165 
L 221.339397 36.785165 
L 221.35179 35.06421 
L 221.545276 35.06421 
L 221.617911 31.048648 
L 221.694533 31.048648 
L 221.694533 30.474996 
L 222.179321 30.474996 
L 222.179321 29.901344 
L 222.321892 29.901344 
L 222.387251 28.180389 
L 222.433199 28.180389 
L 222.533587 27.033086 
L 222.636787 27.033086 
L 222.636787 26.459434 
L 222.809898 26.459434 
L 222.888809 24.164827 
L 222.951415 24.164827 
L 223.003859 22.443872 
L 223.26961 22.443872 
L 223.26961 21.87022 
L 223.388668 21.87022 
L 223.405517 19.001962 
L 223.991488 19.001962 
L 224.055883 17.281006 
L 224.168469 17.281006 
L 224.168469 16.707355 
L 224.375561 16.707355 
L 224.375561 14.9864 
L 226.018029 14.9864 
L 226.018029 14.412748 
L 226.813202 14.412748 
L 226.813202 13.265444 
L 227.138863 13.265444 
L 227.138863 12.118141 
L 238.070851 12.118141 
L 238.070851 11.544489 
L 239.639225 11.544489 
L 239.716425 9.823534 
L 240.037581 9.823534 
L 240.037581 9.249882 
L 240.379381 9.249882 
L 240.379381 8.676231 
L 240.575774 8.676231 
L 240.575774 8.102579 
L 240.983101 8.102579 
L 240.983101 7.528927 
L 249.688078 7.528927 
L 249.688078 6.955275 
L 251.082431 6.955275 
L 251.082431 6.381624 
L 338.688 6.381624 
L 338.688 6.381624 
" style="fill:none;stroke:#6495ed;stroke-linecap:square;stroke-width:1.5;"/>
   </g>
   <g id="line2d_43">
    <defs>
     <path d="M -0 6 
L 6 -6 
L -6 -6 
z
" id="m5fa12628eb" style="stroke:#6495ed;stroke-linejoin:miter;stroke-width:1.5;"/>
    </defs>
    <g>
     <use style="fill-opacity:0;stroke:#6495ed;stroke-linejoin:miter;stroke-width:1.5;" x="177.180944" xlink:href="#m5fa12628eb" y="246.741694"/>
     <use style="fill-opacity:0;stroke:#6495ed;stroke-linejoin:miter;stroke-width:1.5;" x="210.756059" xlink:href="#m5fa12628eb" y="122.259271"/>
     <use style="fill-opacity:0;stroke:#6495ed;stroke-linejoin:miter;stroke-width:1.5;" x="239.639225" xlink:href="#m5fa12628eb" y="10.970838"/>
     <use style="fill-opacity:0;stroke:#6495ed;stroke-linejoin:miter;stroke-width:1.5;" x="251.082431" xlink:href="#m5fa12628eb" y="6.381624"/>
     <use style="fill-opacity:0;stroke:#6495ed;stroke-linejoin:miter;stroke-width:1.5;" x="251.082431" xlink:href="#m5fa12628eb" y="6.381624"/>
     <use style="fill-opacity:0;stroke:#6495ed;stroke-linejoin:miter;stroke-width:1.5;" x="338.688" xlink:href="#m5fa12628eb" y="6.381624"/>
    </g>
   </g>
   <g id="line2d_44">
    <path style="fill:none;stroke:#6495ed;stroke-linecap:square;stroke-width:1.5;"/>
    <g/>
   </g>
   <g id="line2d_45">
    <path clip-path="url(#p0a6bb868ca)" d="M 234.223474 12.118141 
" style="fill:none;stroke:#6495ed;stroke-linecap:square;stroke-width:1.5;"/>
    <defs>
     <path d="M -12 12 
L 12 -12 
M -12 -12 
L 12 12 
" id="mf623c8a5d5" style="stroke:#6495ed;"/>
    </defs>
    <g clip-path="url(#p0a6bb868ca)">
     <use style="fill:#6495ed;stroke:#6495ed;" x="234.223474" xlink:href="#mf623c8a5d5" y="12.118141"/>
    </g>
   </g>
   <g id="line2d_46">
    <defs>
     <path d="M 0 1.5 
C 0.397805 1.5 0.77937 1.341951 1.06066 1.06066 
C 1.341951 0.77937 1.5 0.397805 1.5 0 
C 1.5 -0.397805 1.341951 -0.77937 1.06066 -1.06066 
C 0.77937 -1.341951 0.397805 -1.5 0 -1.5 
C -0.397805 -1.5 -0.77937 -1.341951 -1.06066 -1.06066 
C -1.341951 -0.77937 -1.5 -0.397805 -1.5 0 
C -1.5 0.397805 -1.341951 0.77937 -1.06066 1.06066 
C -0.77937 1.341951 -0.397805 1.5 0 1.5 
z
" id="m501df90194" style="stroke:#ff0000;"/>
    </defs>
    <g>
     <use style="fill:#ff0000;stroke:#ff0000;" x="181.151123" xlink:href="#m501df90194" y="6.381624"/>
     <use style="fill:#ff0000;stroke:#ff0000;" x="181.151123" xlink:href="#m501df90194" y="6.381624"/>
    </g>
   </g>
   <g id="line2d_47">
    <path d="M 45.512012 298.944 
L 45.512012 287.470966 
L 57.6 287.470966 
L 57.6 278.292538 
L 64.67102 278.292538 
L 64.67102 275.997931 
L 69.687988 275.997931 
L 69.687988 273.129673 
L 73.579452 273.129673 
L 73.579452 270.261414 
L 79.447285 270.261414 
L 79.447285 269.687762 
L 83.830028 269.687762 
L 83.830028 269.114111 
L 85.66744 269.114111 
L 85.66744 268.540459 
L 87.329581 268.540459 
L 87.329581 267.393156 
L 90.242884 267.393156 
L 90.242884 266.819504 
L 91.535274 266.819504 
L 91.535274 265.6722 
L 92.73846 265.6722 
L 92.73846 265.098549 
L 94.921215 265.098549 
L 94.921215 263.377593 
L 101.646892 263.377593 
L 101.646892 261.082987 
L 107.009204 261.082987 
L 107.009204 259.362031 
L 108.006005 259.362031 
L 108.006005 258.78838 
L 113.382559 258.78838 
L 113.382559 257.641076 
L 114.751048 257.641076 
L 114.751048 257.067425 
L 115.397021 257.067425 
L 115.397021 256.493773 
L 116.019919 256.493773 
L 116.019919 255.346469 
L 132.181982 255.346469 
L 132.181982 254.772818 
L 133.689303 254.772818 
L 133.689303 254.199166 
L 134.55603 254.199166 
L 134.661403 251.904559 
L 137.735587 251.904559 
L 137.735587 251.330907 
L 140.348205 251.330907 
L 140.348205 249.036301 
L 141.017599 249.036301 
L 141.017599 248.462649 
L 143.208936 248.462649 
L 143.208936 246.741694 
L 147.818997 246.741694 
L 147.818997 246.168042 
L 151.858043 246.168042 
L 151.858043 245.59439 
L 153.994632 245.59439 
L 153.994632 245.020738 
L 154.840544 245.020738 
L 154.840544 244.447087 
L 156.658127 244.447087 
L 156.658127 243.299783 
L 160.37011 243.299783 
L 160.37011 242.726132 
L 164.256762 242.726132 
L 164.256762 242.15248 
L 164.505216 242.15248 
L 164.562052 241.005176 
L 164.86209 241.005176 
L 164.86209 239.857873 
L 164.973287 239.857873 
L 165.065412 237.563266 
L 165.175324 237.563266 
L 165.175324 236.989614 
L 166.065276 236.989614 
L 166.151824 235.268659 
L 166.91201 235.268659 
L 166.91201 233.547704 
L 168.415645 233.547704 
L 168.491304 231.826749 
L 169.230367 231.826749 
L 169.230367 216.338153 
L 170.008719 216.338153 
L 170.008719 215.190849 
L 170.727268 215.190849 
L 170.727268 212.896242 
L 171.645677 212.896242 
L 171.645677 210.601635 
L 172.885786 210.601635 
L 172.885786 210.027984 
L 173.280304 210.027984 
L 173.280304 208.88068 
L 174.16392 208.88068 
L 174.261802 192.24478 
L 174.294307 192.24478 
L 174.294307 175.608881 
L 175.94562 175.608881 
L 175.94562 164.709498 
L 176.257915 164.709498 
L 176.257915 153.236464 
L 176.55521 153.236464 
L 176.55521 150.941857 
L 176.725536 150.941857 
L 176.781943 137.747867 
L 176.866214 137.747867 
L 176.968661 120.538316 
L 177.705065 120.538316 
L 177.740637 98.165899 
L 177.873391 98.165899 
L 177.873391 83.824606 
L 178.040107 83.824606 
L 178.127217 53.421065 
L 178.170609 53.421065 
L 178.170609 52.847413 
L 178.282926 52.847413 
L 178.282926 36.211513 
L 178.850589 36.211513 
L 178.850589 20.722917 
L 180.62453 20.722917 
L 180.62453 20.149265 
L 181.151123 20.149265 
L 181.151123 6.381624 
L 338.688 6.381624 
L 338.688 6.381624 
" style="fill:none;stroke:#ff0000;stroke-linecap:square;stroke-width:1.5;"/>
   </g>
   <g id="line2d_48">
    <defs>
     <path d="M 0 -6 
L -5.196152 -3 
L -5.196152 3 
L -0 6 
L 5.196152 3 
L 5.196152 -3 
z
" id="m8103255ee2" style="stroke:#ff0000;stroke-linejoin:miter;stroke-width:1.5;"/>
    </defs>
    <g>
     <use style="fill-opacity:0;stroke:#ff0000;stroke-linejoin:miter;stroke-width:1.5;" x="141.017599" xlink:href="#m8103255ee2" y="248.462649"/>
     <use style="fill-opacity:0;stroke:#ff0000;stroke-linejoin:miter;stroke-width:1.5;" x="174.294307" xlink:href="#m8103255ee2" y="192.24478"/>
     <use style="fill-opacity:0;stroke:#ff0000;stroke-linejoin:miter;stroke-width:1.5;" x="181.151123" xlink:href="#m8103255ee2" y="20.149265"/>
     <use style="fill-opacity:0;stroke:#ff0000;stroke-linejoin:miter;stroke-width:1.5;" x="181.151123" xlink:href="#m8103255ee2" y="6.381624"/>
     <use style="fill-opacity:0;stroke:#ff0000;stroke-linejoin:miter;stroke-width:1.5;" x="181.151123" xlink:href="#m8103255ee2" y="6.381624"/>
     <use style="fill-opacity:0;stroke:#ff0000;stroke-linejoin:miter;stroke-width:1.5;" x="338.688" xlink:href="#m8103255ee2" y="6.381624"/>
    </g>
   </g>
   <g id="line2d_49">
    <path style="fill:none;stroke:#ff0000;stroke-linecap:square;stroke-width:1.5;"/>
    <g/>
   </g>
   <g id="line2d_50">
    <path d="M 338.688 6.381624 
L 369.60768 293.092752 
" style="fill:none;stroke:#6495ed;stroke-linecap:square;stroke-width:1.5;"/>
    <g>
     <use style="fill-opacity:0;stroke:#6495ed;stroke-linejoin:miter;stroke-width:1.5;" x="338.688" xlink:href="#m5fa12628eb" y="6.381624"/>
     <use style="fill-opacity:0;stroke:#6495ed;stroke-linejoin:miter;stroke-width:1.5;" x="369.60768" xlink:href="#m5fa12628eb" y="293.092752"/>
    </g>
   </g>
   <g id="line2d_51">
    <path d="M 338.688 6.381624 
L 369.60768 222.877782 
" style="fill:none;stroke:#ff00ff;stroke-linecap:square;stroke-width:1.5;"/>
    <g>
     <use style="fill-opacity:0;stroke:#ff00ff;stroke-linejoin:miter;stroke-width:1.5;" x="338.688" xlink:href="#m3cad253a39" y="6.381624"/>
     <use style="fill-opacity:0;stroke:#ff00ff;stroke-linejoin:miter;stroke-width:1.5;" x="369.60768" xlink:href="#m3cad253a39" y="222.877782"/>
    </g>
   </g>
   <g id="line2d_52">
    <path d="M 338.688 6.381624 
L 369.60768 152.662812 
" style="fill:none;stroke:#ff7500;stroke-linecap:square;stroke-width:1.5;"/>
    <g>
     <use style="fill-opacity:0;stroke:#ff7500;stroke-linejoin:bevel;stroke-width:1.5;" x="338.688" xlink:href="#m1da51efdd8" y="6.381624"/>
     <use style="fill-opacity:0;stroke:#ff7500;stroke-linejoin:bevel;stroke-width:1.5;" x="369.60768" xlink:href="#m1da51efdd8" y="152.662812"/>
    </g>
   </g>
   <g id="line2d_53">
    <path d="M 338.688 6.381624 
L 369.60768 82.447842 
" style="fill:none;stroke:#000080;stroke-linecap:square;stroke-width:1.5;"/>
    <g>
     <use style="fill-opacity:0;stroke:#000080;stroke-width:1.5;" x="338.688" xlink:href="#m63e0e2a562" y="6.381624"/>
     <use style="fill-opacity:0;stroke:#000080;stroke-width:1.5;" x="369.60768" xlink:href="#m63e0e2a562" y="82.447842"/>
    </g>
   </g>
   <g id="line2d_54">
    <path d="M 338.688 6.381624 
L 369.60768 12.232871 
" style="fill:none;stroke:#ff0000;stroke-linecap:square;stroke-width:1.5;"/>
    <g>
     <use style="fill-opacity:0;stroke:#ff0000;stroke-linejoin:miter;stroke-width:1.5;" x="338.688" xlink:href="#m8103255ee2" y="6.381624"/>
     <use style="fill-opacity:0;stroke:#ff0000;stroke-linejoin:miter;stroke-width:1.5;" x="369.60768" xlink:href="#m8103255ee2" y="12.232871"/>
    </g>
   </g>
   <g id="line2d_55">
    <path d="M 338.688 298.944 
L 338.688 6.381624 
" style="fill:none;stroke:#000000;stroke-linecap:square;stroke-width:1.5;"/>
   </g>
   <g id="patch_3">
    <path d="M 57.6 298.944 
L 57.6 3.456 
" style="fill:none;stroke:#000000;stroke-linecap:square;stroke-linejoin:miter;stroke-width:0.8;"/>
   </g>
   <g id="patch_4">
    <path d="M 338.688 298.944 
L 338.688 3.456 
" style="fill:none;stroke:#000000;stroke-linecap:square;stroke-linejoin:miter;stroke-width:0.8;"/>
   </g>
   <g id="patch_5">
    <path d="M 57.6 298.944 
L 338.688 298.944 
" style="fill:none;stroke:#000000;stroke-linecap:square;stroke-linejoin:miter;stroke-width:0.8;"/>
   </g>
   <g id="patch_6">
    <path d="M 57.6 3.456 
L 338.688 3.456 
" style="fill:none;stroke:#000000;stroke-linecap:square;stroke-linejoin:miter;stroke-width:0.8;"/>
   </g>
   <g id="text_13">
    <!-- f4 -->
    <g transform="translate(375.22944 297.78369)scale(0.17 -0.17)">
     <use xlink:href="#DejaVuSans-66"/>
     <use x="35.205078" xlink:href="#DejaVuSans-34"/>
    </g>
   </g>
   <g id="text_14">
    <!-- f2 -->
    <g transform="translate(375.22944 227.56872)scale(0.17 -0.17)">
     <use xlink:href="#DejaVuSans-66"/>
     <use x="35.205078" xlink:href="#DejaVuSans-32"/>
    </g>
   </g>
   <g id="text_15">
    <!-- f3 -->
    <g transform="translate(375.22944 157.353749)scale(0.17 -0.17)">
     <defs>
      <path d="M 2597 2516 
Q 3050 2419 3304 2112 
Q 3559 1806 3559 1356 
Q 3559 666 3084 287 
Q 2609 -91 1734 -91 
Q 1441 -91 1130 -33 
Q 819 25 488 141 
L 488 750 
Q 750 597 1062 519 
Q 1375 441 1716 441 
Q 2309 441 2620 675 
Q 2931 909 2931 1356 
Q 2931 1769 2642 2001 
Q 2353 2234 1838 2234 
L 1294 2234 
L 1294 2753 
L 1863 2753 
Q 2328 2753 2575 2939 
Q 2822 3125 2822 3475 
Q 2822 3834 2567 4026 
Q 2313 4219 1838 4219 
Q 1578 4219 1281 4162 
Q 984 4106 628 3988 
L 628 4550 
Q 988 4650 1302 4700 
Q 1616 4750 1894 4750 
Q 2613 4750 3031 4423 
Q 3450 4097 3450 3541 
Q 3450 3153 3228 2886 
Q 3006 2619 2597 2516 
z
" id="DejaVuSans-33" transform="scale(0.015625)"/>
     </defs>
     <use xlink:href="#DejaVuSans-66"/>
     <use x="35.205078" xlink:href="#DejaVuSans-33"/>
    </g>
   </g>
   <g id="text_16">
    <!-- f1 -->
    <g transform="translate(375.22944 87.138779)scale(0.17 -0.17)">
     <use xlink:href="#DejaVuSans-66"/>
     <use x="35.205078" xlink:href="#DejaVuSans-31"/>
    </g>
   </g>
   <g id="text_17">
    <!-- f5 -->
    <g transform="translate(375.22944 16.923809)scale(0.17 -0.17)">
     <defs>
      <path d="M 691 4666 
L 3169 4666 
L 3169 4134 
L 1269 4134 
L 1269 2991 
Q 1406 3038 1543 3061 
Q 1681 3084 1819 3084 
Q 2600 3084 3056 2656 
Q 3513 2228 3513 1497 
Q 3513 744 3044 326 
Q 2575 -91 1722 -91 
Q 1428 -91 1123 -41 
Q 819 9 494 109 
L 494 744 
Q 775 591 1075 516 
Q 1375 441 1709 441 
Q 2250 441 2565 725 
Q 2881 1009 2881 1497 
Q 2881 1984 2565 2268 
Q 2250 2553 1709 2553 
Q 1456 2553 1204 2497 
Q 953 2441 691 2322 
L 691 4666 
z
" id="DejaVuSans-35" transform="scale(0.015625)"/>
     </defs>
     <use xlink:href="#DejaVuSans-66"/>
     <use x="35.205078" xlink:href="#DejaVuSans-35"/>
    </g>
   </g>
   <g id="text_18">
    <!-- bbob -->
    <g transform="translate(60.41088 14.161286)scale(0.102 -0.102)">
     <defs>
      <path d="M 3116 1747 
Q 3116 2381 2855 2742 
Q 2594 3103 2138 3103 
Q 1681 3103 1420 2742 
Q 1159 2381 1159 1747 
Q 1159 1113 1420 752 
Q 1681 391 2138 391 
Q 2594 391 2855 752 
Q 3116 1113 3116 1747 
z
M 1159 2969 
Q 1341 3281 1617 3432 
Q 1894 3584 2278 3584 
Q 2916 3584 3314 3078 
Q 3713 2572 3713 1747 
Q 3713 922 3314 415 
Q 2916 -91 2278 -91 
Q 1894 -91 1617 61 
Q 1341 213 1159 525 
L 1159 0 
L 581 0 
L 581 4863 
L 1159 4863 
L 1159 2969 
z
" id="DejaVuSans-62" transform="scale(0.015625)"/>
     </defs>
     <use xlink:href="#DejaVuSans-62"/>
     <use x="63.476562" xlink:href="#DejaVuSans-62"/>
     <use x="126.953125" xlink:href="#DejaVuSans-6f"/>
     <use x="188.134766" xlink:href="#DejaVuSans-62"/>
    </g>
    <!-- Separable functions, 2-D -->
    <g transform="translate(60.41088 25.583055)scale(0.102 -0.102)">
     <defs>
      <path d="M 3425 4513 
L 3425 3897 
Q 3066 4069 2747 4153 
Q 2428 4238 2131 4238 
Q 1616 4238 1336 4038 
Q 1056 3838 1056 3469 
Q 1056 3159 1242 3001 
Q 1428 2844 1947 2747 
L 2328 2669 
Q 3034 2534 3370 2195 
Q 3706 1856 3706 1288 
Q 3706 609 3251 259 
Q 2797 -91 1919 -91 
Q 1588 -91 1214 -16 
Q 841 59 441 206 
L 441 856 
Q 825 641 1194 531 
Q 1563 422 1919 422 
Q 2459 422 2753 634 
Q 3047 847 3047 1241 
Q 3047 1584 2836 1778 
Q 2625 1972 2144 2069 
L 1759 2144 
Q 1053 2284 737 2584 
Q 422 2884 422 3419 
Q 422 4038 858 4394 
Q 1294 4750 2059 4750 
Q 2388 4750 2728 4690 
Q 3069 4631 3425 4513 
z
" id="DejaVuSans-53" transform="scale(0.015625)"/>
      <path d="M 1259 4147 
L 1259 519 
L 2022 519 
Q 2988 519 3436 956 
Q 3884 1394 3884 2338 
Q 3884 3275 3436 3711 
Q 2988 4147 2022 4147 
L 1259 4147 
z
M 628 4666 
L 1925 4666 
Q 3281 4666 3915 4102 
Q 4550 3538 4550 2338 
Q 4550 1131 3912 565 
Q 3275 0 1925 0 
L 628 0 
L 628 4666 
z
" id="DejaVuSans-44" transform="scale(0.015625)"/>
     </defs>
     <use xlink:href="#DejaVuSans-53"/>
     <use x="63.476562" xlink:href="#DejaVuSans-65"/>
     <use x="125" xlink:href="#DejaVuSans-70"/>
     <use x="188.476562" xlink:href="#DejaVuSans-61"/>
     <use x="249.755859" xlink:href="#DejaVuSans-72"/>
     <use x="290.869141" xlink:href="#DejaVuSans-61"/>
     <use x="352.148438" xlink:href="#DejaVuSans-62"/>
     <use x="415.625" xlink:href="#DejaVuSans-6c"/>
     <use x="443.408203" xlink:href="#DejaVuSans-65"/>
     <use x="504.931641" xlink:href="#DejaVuSans-20"/>
     <use x="536.71875" xlink:href="#DejaVuSans-66"/>
     <use x="571.923828" xlink:href="#DejaVuSans-75"/>
     <use x="635.302734" xlink:href="#DejaVuSans-6e"/>
     <use x="698.681641" xlink:href="#DejaVuSans-63"/>
     <use x="753.662109" xlink:href="#DejaVuSans-74"/>
     <use x="792.871094" xlink:href="#DejaVuSans-69"/>
     <use x="820.654297" xlink:href="#DejaVuSans-6f"/>
     <use x="881.835938" xlink:href="#DejaVuSans-6e"/>
     <use x="945.214844" xlink:href="#DejaVuSans-73"/>
     <use x="997.314453" xlink:href="#DejaVuSans-2c"/>
     <use x="1029.101562" xlink:href="#DejaVuSans-20"/>
     <use x="1060.888672" xlink:href="#DejaVuSans-32"/>
     <use x="1124.511719" xlink:href="#DejaVuSans-2d"/>
     <use x="1160.595703" xlink:href="#DejaVuSans-44"/>
    </g>
    <!-- 51 targets: 100..1e-08 -->
    <g transform="translate(60.41088 37.004824)scale(0.102 -0.102)">
     <defs>
      <path d="M 750 794 
L 1409 794 
L 1409 0 
L 750 0 
L 750 794 
z
M 750 3309 
L 1409 3309 
L 1409 2516 
L 750 2516 
L 750 3309 
z
" id="DejaVuSans-3a" transform="scale(0.015625)"/>
     </defs>
     <use xlink:href="#DejaVuSans-35"/>
     <use x="63.623047" xlink:href="#DejaVuSans-31"/>
     <use x="127.246094" xlink:href="#DejaVuSans-20"/>
     <use x="159.033203" xlink:href="#DejaVuSans-74"/>
     <use x="198.242188" xlink:href="#DejaVuSans-61"/>
     <use x="259.521484" xlink:href="#DejaVuSans-72"/>
     <use x="298.884766" xlink:href="#DejaVuSans-67"/>
     <use x="362.361328" xlink:href="#DejaVuSans-65"/>
     <use x="423.884766" xlink:href="#DejaVuSans-74"/>
     <use x="463.09375" xlink:href="#DejaVuSans-73"/>
     <use x="515.193359" xlink:href="#DejaVuSans-3a"/>
     <use x="548.884766" xlink:href="#DejaVuSans-20"/>
     <use x="580.671875" xlink:href="#DejaVuSans-31"/>
     <use x="644.294922" xlink:href="#DejaVuSans-30"/>
     <use x="707.917969" xlink:href="#DejaVuSans-30"/>
     <use x="771.541016" xlink:href="#DejaVuSans-2e"/>
     <use x="803.328125" xlink:href="#DejaVuSans-2e"/>
     <use x="835.115234" xlink:href="#DejaVuSans-31"/>
     <use x="898.738281" xlink:href="#DejaVuSans-65"/>
     <use x="960.261719" xlink:href="#DejaVuSans-2d"/>
     <use x="996.345703" xlink:href="#DejaVuSans-30"/>
     <use x="1059.96875" xlink:href="#DejaVuSans-38"/>
    </g>
    <!-- 15 instances -->
    <g transform="translate(60.41088 48.426593)scale(0.102 -0.102)">
     <use xlink:href="#DejaVuSans-31"/>
     <use x="63.623047" xlink:href="#DejaVuSans-35"/>
     <use x="127.246094" xlink:href="#DejaVuSans-20"/>
     <use x="159.033203" xlink:href="#DejaVuSans-69"/>
     <use x="186.816406" xlink:href="#DejaVuSans-6e"/>
     <use x="250.195312" xlink:href="#DejaVuSans-73"/>
     <use x="302.294922" xlink:href="#DejaVuSans-74"/>
     <use x="341.503906" xlink:href="#DejaVuSans-61"/>
     <use x="402.783203" xlink:href="#DejaVuSans-6e"/>
     <use x="466.162109" xlink:href="#DejaVuSans-63"/>
     <use x="521.142578" xlink:href="#DejaVuSans-65"/>
     <use x="582.666016" xlink:href="#DejaVuSans-73"/>
    </g>
   </g>
   <g id="text_19">
    <!-- v2.4 -->
    <g style="fill:#808080;" transform="translate(187.233062 293.909432)scale(0.1 -0.1)">
     <use xlink:href="#DejaVuSans-76"/>
     <use x="59.179688" xlink:href="#DejaVuSans-32"/>
     <use x="122.802734" xlink:href="#DejaVuSans-2e"/>
     <use x="154.589844" xlink:href="#DejaVuSans-34"/>
    </g>
   </g>
  </g>
 </g>
 <defs>
  <clipPath id="p0a6bb868ca">
   <rect height="295.488" width="281.088" x="57.6" y="3.456"/>
  </clipPath>
 </defs>
</svg>
