<?xml version="1.0" encoding="utf-8" standalone="no"?>
<!DOCTYPE svg PUBLIC "-//W3C//DTD SVG 1.1//EN"
  "http://www.w3.org/Graphics/SVG/1.1/DTD/svg11.dtd">
<svg height="345.6pt" version="1.1" viewBox="0 0 460.8 345.6" width="460.8pt" xmlns="http://www.w3.org/2000/svg" xmlns:xlink="http://www.w3.org/1999/xlink">
 <metadata>
  <rdf:RDF xmlns:cc="http://creativecommons.org/ns#" xmlns:dc="http://purl.org/dc/elements/1.1/" xmlns:rdf="http://www.w3.org/1999/02/22-rdf-syntax-ns#">
   <cc:Work>
    <dc:type rdf:resource="http://purl.org/dc/dcmitype/StillImage"/>
    <dc:date>2021-04-28T00:33:00.312229</dc:date>
    <dc:format>image/svg+xml</dc:format>
    <dc:creator>
     <cc:Agent>
      <dc:title>Matplotlib v3.4.1, https://matplotlib.org/</dc:title>
     </cc:Agent>
    </dc:creator>
   </cc:Work>
  </rdf:RDF>
 </metadata>
 <defs>
  <style type="text/css">*{stroke-linecap:butt;stroke-linejoin:round;}</style>
 </defs>
 <g id="figure_1">
  <g id="patch_1">
   <path d="M 0 345.6 
L 460.8 345.6 
L 460.8 0 
L 0 0 
z
" style="fill:#ffffff;"/>
  </g>
  <g id="axes_1">
   <g id="patch_2">
    <path d="M 57.6 298.944 
L 338.688 298.944 
L 338.688 27.648 
L 57.6 27.648 
z
" style="fill:#ffffff;"/>
   </g>
   <g id="line2d_1">
    <path d="M 68.328395 298.944 
L 68.328395 293.677139 
L 69.246464 293.677139 
L 69.246464 288.410278 
L 70.11861 288.410278 
L 70.11861 30.334099 
L 338.688 30.334099 
" style="fill:none;stroke:#f5deb3;stroke-linecap:square;stroke-width:4;"/>
   </g>
   <g id="line2d_2">
    <defs>
     <path d="M 0 7.778175 
L 7.778175 0 
L 0 -7.778175 
L -7.778175 0 
z
" id="m89f495f3c7" style="stroke:#f5deb3;stroke-linejoin:miter;stroke-width:1.5;"/>
    </defs>
    <g>
     <use style="fill:#f5deb3;stroke:#f5deb3;stroke-linejoin:miter;stroke-width:1.5;" x="69.246464" xlink:href="#m89f495f3c7" y="288.410278"/>
     <use style="fill:#f5deb3;stroke:#f5deb3;stroke-linejoin:miter;stroke-width:1.5;" x="70.11861" xlink:href="#m89f495f3c7" y="288.410278"/>
     <use style="fill:#f5deb3;stroke:#f5deb3;stroke-linejoin:miter;stroke-width:1.5;" x="70.11861" xlink:href="#m89f495f3c7" y="30.334099"/>
     <use style="fill:#f5deb3;stroke:#f5deb3;stroke-linejoin:miter;stroke-width:1.5;" x="70.11861" xlink:href="#m89f495f3c7" y="30.334099"/>
     <use style="fill:#f5deb3;stroke:#f5deb3;stroke-linejoin:miter;stroke-width:1.5;" x="338.688" xlink:href="#m89f495f3c7" y="30.334099"/>
    </g>
   </g>
   <g id="line2d_3">
    <path style="fill:none;stroke:#f5deb3;stroke-linecap:square;stroke-width:4;"/>
    <g/>
   </g>
   <g id="line2d_4">
    <path d="M 338.688 30.334099 
L 369.60768 35.706297 
" style="fill:none;stroke:#f5deb3;stroke-linecap:square;stroke-width:4;"/>
    <g>
     <use style="fill:#f5deb3;stroke:#f5deb3;stroke-linejoin:miter;stroke-width:1.5;" x="338.688" xlink:href="#m89f495f3c7" y="30.334099"/>
     <use style="fill:#f5deb3;stroke:#f5deb3;stroke-linejoin:miter;stroke-width:1.5;" x="369.60768" xlink:href="#m89f495f3c7" y="35.706297"/>
    </g>
   </g>
   <g id="matplotlib.axis_1">
    <g id="xtick_1">
     <g id="line2d_5">
      <path clip-path="url(#pab587f5fbe)" d="M 57.6 298.944 
L 57.6 27.648 
" style="fill:none;stroke:#b0b0b0;stroke-linecap:square;stroke-width:0.8;"/>
     </g>
     <g id="line2d_6">
      <defs>
       <path d="M 0 0 
L 0 3.5 
" id="ma44894b1d9" style="stroke:#000000;stroke-width:0.8;"/>
      </defs>
      <g>
       <use style="stroke:#000000;stroke-width:0.8;" x="57.6" xlink:href="#ma44894b1d9" y="298.944"/>
      </g>
     </g>
     <g id="text_1">
      <!-- 0 -->
      <g transform="translate(51.2375 321.140875)scale(0.2 -0.2)">
       <defs>
        <path d="M 2034 4250 
Q 1547 4250 1301 3770 
Q 1056 3291 1056 2328 
Q 1056 1369 1301 889 
Q 1547 409 2034 409 
Q 2525 409 2770 889 
Q 3016 1369 3016 2328 
Q 3016 3291 2770 3770 
Q 2525 4250 2034 4250 
z
M 2034 4750 
Q 2819 4750 3233 4129 
Q 3647 3509 3647 2328 
Q 3647 1150 3233 529 
Q 2819 -91 2034 -91 
Q 1250 -91 836 529 
Q 422 1150 422 2328 
Q 422 3509 836 4129 
Q 1250 4750 2034 4750 
z
" id="DejaVuSans-30" transform="scale(0.015625)"/>
       </defs>
       <use xlink:href="#DejaVuSans-30"/>
      </g>
     </g>
    </g>
    <g id="xtick_2">
     <g id="line2d_7">
      <path clip-path="url(#pab587f5fbe)" d="M 137.910857 298.944 
L 137.910857 27.648 
" style="fill:none;stroke:#b0b0b0;stroke-linecap:square;stroke-width:0.8;"/>
     </g>
     <g id="line2d_8">
      <g>
       <use style="stroke:#000000;stroke-width:0.8;" x="137.910857" xlink:href="#ma44894b1d9" y="298.944"/>
      </g>
     </g>
     <g id="text_2">
      <!-- 2 -->
      <g transform="translate(131.548357 321.140875)scale(0.2 -0.2)">
       <defs>
        <path d="M 1228 531 
L 3431 531 
L 3431 0 
L 469 0 
L 469 531 
Q 828 903 1448 1529 
Q 2069 2156 2228 2338 
Q 2531 2678 2651 2914 
Q 2772 3150 2772 3378 
Q 2772 3750 2511 3984 
Q 2250 4219 1831 4219 
Q 1534 4219 1204 4116 
Q 875 4013 500 3803 
L 500 4441 
Q 881 4594 1212 4672 
Q 1544 4750 1819 4750 
Q 2544 4750 2975 4387 
Q 3406 4025 3406 3419 
Q 3406 3131 3298 2873 
Q 3191 2616 2906 2266 
Q 2828 2175 2409 1742 
Q 1991 1309 1228 531 
z
" id="DejaVuSans-32" transform="scale(0.015625)"/>
       </defs>
       <use xlink:href="#DejaVuSans-32"/>
      </g>
     </g>
    </g>
    <g id="xtick_3">
     <g id="line2d_9">
      <path clip-path="url(#pab587f5fbe)" d="M 218.221714 298.944 
L 218.221714 27.648 
" style="fill:none;stroke:#b0b0b0;stroke-linecap:square;stroke-width:0.8;"/>
     </g>
     <g id="line2d_10">
      <g>
       <use style="stroke:#000000;stroke-width:0.8;" x="218.221714" xlink:href="#ma44894b1d9" y="298.944"/>
      </g>
     </g>
     <g id="text_3">
      <!-- 4 -->
      <g transform="translate(211.859214 321.140875)scale(0.2 -0.2)">
       <defs>
        <path d="M 2419 4116 
L 825 1625 
L 2419 1625 
L 2419 4116 
z
M 2253 4666 
L 3047 4666 
L 3047 1625 
L 3713 1625 
L 3713 1100 
L 3047 1100 
L 3047 0 
L 2419 0 
L 2419 1100 
L 313 1100 
L 313 1709 
L 2253 4666 
z
" id="DejaVuSans-34" transform="scale(0.015625)"/>
       </defs>
       <use xlink:href="#DejaVuSans-34"/>
      </g>
     </g>
    </g>
    <g id="xtick_4">
     <g id="line2d_11">
      <path clip-path="url(#pab587f5fbe)" d="M 298.532571 298.944 
L 298.532571 27.648 
" style="fill:none;stroke:#b0b0b0;stroke-linecap:square;stroke-width:0.8;"/>
     </g>
     <g id="line2d_12">
      <g>
       <use style="stroke:#000000;stroke-width:0.8;" x="298.532571" xlink:href="#ma44894b1d9" y="298.944"/>
      </g>
     </g>
     <g id="text_4">
      <!-- 6 -->
      <g transform="translate(292.170071 321.140875)scale(0.2 -0.2)">
       <defs>
        <path d="M 2113 2584 
Q 1688 2584 1439 2293 
Q 1191 2003 1191 1497 
Q 1191 994 1439 701 
Q 1688 409 2113 409 
Q 2538 409 2786 701 
Q 3034 994 3034 1497 
Q 3034 2003 2786 2293 
Q 2538 2584 2113 2584 
z
M 3366 4563 
L 3366 3988 
Q 3128 4100 2886 4159 
Q 2644 4219 2406 4219 
Q 1781 4219 1451 3797 
Q 1122 3375 1075 2522 
Q 1259 2794 1537 2939 
Q 1816 3084 2150 3084 
Q 2853 3084 3261 2657 
Q 3669 2231 3669 1497 
Q 3669 778 3244 343 
Q 2819 -91 2113 -91 
Q 1303 -91 875 529 
Q 447 1150 447 2328 
Q 447 3434 972 4092 
Q 1497 4750 2381 4750 
Q 2619 4750 2861 4703 
Q 3103 4656 3366 4563 
z
" id="DejaVuSans-36" transform="scale(0.015625)"/>
       </defs>
       <use xlink:href="#DejaVuSans-36"/>
      </g>
     </g>
    </g>
    <g id="xtick_5">
     <g id="line2d_13">
      <path clip-path="url(#pab587f5fbe)" d="M 97.755429 298.944 
L 97.755429 27.648 
" style="fill:none;stroke:#b0b0b0;stroke-linecap:square;stroke-width:0.8;"/>
     </g>
     <g id="line2d_14">
      <defs>
       <path d="M 0 0 
L 0 2 
" id="mc0d7fc9d62" style="stroke:#000000;stroke-width:0.6;"/>
      </defs>
      <g>
       <use style="stroke:#000000;stroke-width:0.6;" x="97.755429" xlink:href="#mc0d7fc9d62" y="298.944"/>
      </g>
     </g>
    </g>
    <g id="xtick_6">
     <g id="line2d_15">
      <path clip-path="url(#pab587f5fbe)" d="M 178.066286 298.944 
L 178.066286 27.648 
" style="fill:none;stroke:#b0b0b0;stroke-linecap:square;stroke-width:0.8;"/>
     </g>
     <g id="line2d_16">
      <g>
       <use style="stroke:#000000;stroke-width:0.6;" x="178.066286" xlink:href="#mc0d7fc9d62" y="298.944"/>
      </g>
     </g>
    </g>
    <g id="xtick_7">
     <g id="line2d_17">
      <path clip-path="url(#pab587f5fbe)" d="M 258.377143 298.944 
L 258.377143 27.648 
" style="fill:none;stroke:#b0b0b0;stroke-linecap:square;stroke-width:0.8;"/>
     </g>
     <g id="line2d_18">
      <g>
       <use style="stroke:#000000;stroke-width:0.6;" x="258.377143" xlink:href="#mc0d7fc9d62" y="298.944"/>
      </g>
     </g>
    </g>
    <g id="xtick_8">
     <g id="line2d_19">
      <path clip-path="url(#pab587f5fbe)" d="M 338.688 298.944 
L 338.688 27.648 
" style="fill:none;stroke:#b0b0b0;stroke-linecap:square;stroke-width:0.8;"/>
     </g>
     <g id="line2d_20">
      <g>
       <use style="stroke:#000000;stroke-width:0.6;" x="338.688" xlink:href="#mc0d7fc9d62" y="298.944"/>
      </g>
     </g>
    </g>
    <g id="text_5">
     <!-- log10(# f-evals / dimension) -->
     <g transform="translate(77.764078 342.217594)scale(0.17 -0.17)">
      <defs>
       <path d="M 603 4863 
L 1178 4863 
L 1178 0 
L 603 0 
L 603 4863 
z
" id="DejaVuSans-6c" transform="scale(0.015625)"/>
       <path d="M 1959 3097 
Q 1497 3097 1228 2736 
Q 959 2375 959 1747 
Q 959 1119 1226 758 
Q 1494 397 1959 397 
Q 2419 397 2687 759 
Q 2956 1122 2956 1747 
Q 2956 2369 2687 2733 
Q 2419 3097 1959 3097 
z
M 1959 3584 
Q 2709 3584 3137 3096 
Q 3566 2609 3566 1747 
Q 3566 888 3137 398 
Q 2709 -91 1959 -91 
Q 1206 -91 779 398 
Q 353 888 353 1747 
Q 353 2609 779 3096 
Q 1206 3584 1959 3584 
z
" id="DejaVuSans-6f" transform="scale(0.015625)"/>
       <path d="M 2906 1791 
Q 2906 2416 2648 2759 
Q 2391 3103 1925 3103 
Q 1463 3103 1205 2759 
Q 947 2416 947 1791 
Q 947 1169 1205 825 
Q 1463 481 1925 481 
Q 2391 481 2648 825 
Q 2906 1169 2906 1791 
z
M 3481 434 
Q 3481 -459 3084 -895 
Q 2688 -1331 1869 -1331 
Q 1566 -1331 1297 -1286 
Q 1028 -1241 775 -1147 
L 775 -588 
Q 1028 -725 1275 -790 
Q 1522 -856 1778 -856 
Q 2344 -856 2625 -561 
Q 2906 -266 2906 331 
L 2906 616 
Q 2728 306 2450 153 
Q 2172 0 1784 0 
Q 1141 0 747 490 
Q 353 981 353 1791 
Q 353 2603 747 3093 
Q 1141 3584 1784 3584 
Q 2172 3584 2450 3431 
Q 2728 3278 2906 2969 
L 2906 3500 
L 3481 3500 
L 3481 434 
z
" id="DejaVuSans-67" transform="scale(0.015625)"/>
       <path d="M 794 531 
L 1825 531 
L 1825 4091 
L 703 3866 
L 703 4441 
L 1819 4666 
L 2450 4666 
L 2450 531 
L 3481 531 
L 3481 0 
L 794 0 
L 794 531 
z
" id="DejaVuSans-31" transform="scale(0.015625)"/>
       <path d="M 1984 4856 
Q 1566 4138 1362 3434 
Q 1159 2731 1159 2009 
Q 1159 1288 1364 580 
Q 1569 -128 1984 -844 
L 1484 -844 
Q 1016 -109 783 600 
Q 550 1309 550 2009 
Q 550 2706 781 3412 
Q 1013 4119 1484 4856 
L 1984 4856 
z
" id="DejaVuSans-28" transform="scale(0.015625)"/>
       <path d="M 3272 2816 
L 2363 2816 
L 2100 1772 
L 3016 1772 
L 3272 2816 
z
M 2803 4594 
L 2478 3297 
L 3391 3297 
L 3719 4594 
L 4219 4594 
L 3897 3297 
L 4872 3297 
L 4872 2816 
L 3775 2816 
L 3519 1772 
L 4513 1772 
L 4513 1294 
L 3397 1294 
L 3072 0 
L 2572 0 
L 2894 1294 
L 1978 1294 
L 1656 0 
L 1153 0 
L 1478 1294 
L 494 1294 
L 494 1772 
L 1594 1772 
L 1856 2816 
L 850 2816 
L 850 3297 
L 1978 3297 
L 2297 4594 
L 2803 4594 
z
" id="DejaVuSans-23" transform="scale(0.015625)"/>
       <path id="DejaVuSans-20" transform="scale(0.015625)"/>
       <path d="M 2375 4863 
L 2375 4384 
L 1825 4384 
Q 1516 4384 1395 4259 
Q 1275 4134 1275 3809 
L 1275 3500 
L 2222 3500 
L 2222 3053 
L 1275 3053 
L 1275 0 
L 697 0 
L 697 3053 
L 147 3053 
L 147 3500 
L 697 3500 
L 697 3744 
Q 697 4328 969 4595 
Q 1241 4863 1831 4863 
L 2375 4863 
z
" id="DejaVuSans-66" transform="scale(0.015625)"/>
       <path d="M 313 2009 
L 1997 2009 
L 1997 1497 
L 313 1497 
L 313 2009 
z
" id="DejaVuSans-2d" transform="scale(0.015625)"/>
       <path d="M 3597 1894 
L 3597 1613 
L 953 1613 
Q 991 1019 1311 708 
Q 1631 397 2203 397 
Q 2534 397 2845 478 
Q 3156 559 3463 722 
L 3463 178 
Q 3153 47 2828 -22 
Q 2503 -91 2169 -91 
Q 1331 -91 842 396 
Q 353 884 353 1716 
Q 353 2575 817 3079 
Q 1281 3584 2069 3584 
Q 2775 3584 3186 3129 
Q 3597 2675 3597 1894 
z
M 3022 2063 
Q 3016 2534 2758 2815 
Q 2500 3097 2075 3097 
Q 1594 3097 1305 2825 
Q 1016 2553 972 2059 
L 3022 2063 
z
" id="DejaVuSans-65" transform="scale(0.015625)"/>
       <path d="M 191 3500 
L 800 3500 
L 1894 563 
L 2988 3500 
L 3597 3500 
L 2284 0 
L 1503 0 
L 191 3500 
z
" id="DejaVuSans-76" transform="scale(0.015625)"/>
       <path d="M 2194 1759 
Q 1497 1759 1228 1600 
Q 959 1441 959 1056 
Q 959 750 1161 570 
Q 1363 391 1709 391 
Q 2188 391 2477 730 
Q 2766 1069 2766 1631 
L 2766 1759 
L 2194 1759 
z
M 3341 1997 
L 3341 0 
L 2766 0 
L 2766 531 
Q 2569 213 2275 61 
Q 1981 -91 1556 -91 
Q 1019 -91 701 211 
Q 384 513 384 1019 
Q 384 1609 779 1909 
Q 1175 2209 1959 2209 
L 2766 2209 
L 2766 2266 
Q 2766 2663 2505 2880 
Q 2244 3097 1772 3097 
Q 1472 3097 1187 3025 
Q 903 2953 641 2809 
L 641 3341 
Q 956 3463 1253 3523 
Q 1550 3584 1831 3584 
Q 2591 3584 2966 3190 
Q 3341 2797 3341 1997 
z
" id="DejaVuSans-61" transform="scale(0.015625)"/>
       <path d="M 2834 3397 
L 2834 2853 
Q 2591 2978 2328 3040 
Q 2066 3103 1784 3103 
Q 1356 3103 1142 2972 
Q 928 2841 928 2578 
Q 928 2378 1081 2264 
Q 1234 2150 1697 2047 
L 1894 2003 
Q 2506 1872 2764 1633 
Q 3022 1394 3022 966 
Q 3022 478 2636 193 
Q 2250 -91 1575 -91 
Q 1294 -91 989 -36 
Q 684 19 347 128 
L 347 722 
Q 666 556 975 473 
Q 1284 391 1588 391 
Q 1994 391 2212 530 
Q 2431 669 2431 922 
Q 2431 1156 2273 1281 
Q 2116 1406 1581 1522 
L 1381 1569 
Q 847 1681 609 1914 
Q 372 2147 372 2553 
Q 372 3047 722 3315 
Q 1072 3584 1716 3584 
Q 2034 3584 2315 3537 
Q 2597 3491 2834 3397 
z
" id="DejaVuSans-73" transform="scale(0.015625)"/>
       <path d="M 1625 4666 
L 2156 4666 
L 531 -594 
L 0 -594 
L 1625 4666 
z
" id="DejaVuSans-2f" transform="scale(0.015625)"/>
       <path d="M 2906 2969 
L 2906 4863 
L 3481 4863 
L 3481 0 
L 2906 0 
L 2906 525 
Q 2725 213 2448 61 
Q 2172 -91 1784 -91 
Q 1150 -91 751 415 
Q 353 922 353 1747 
Q 353 2572 751 3078 
Q 1150 3584 1784 3584 
Q 2172 3584 2448 3432 
Q 2725 3281 2906 2969 
z
M 947 1747 
Q 947 1113 1208 752 
Q 1469 391 1925 391 
Q 2381 391 2643 752 
Q 2906 1113 2906 1747 
Q 2906 2381 2643 2742 
Q 2381 3103 1925 3103 
Q 1469 3103 1208 2742 
Q 947 2381 947 1747 
z
" id="DejaVuSans-64" transform="scale(0.015625)"/>
       <path d="M 603 3500 
L 1178 3500 
L 1178 0 
L 603 0 
L 603 3500 
z
M 603 4863 
L 1178 4863 
L 1178 4134 
L 603 4134 
L 603 4863 
z
" id="DejaVuSans-69" transform="scale(0.015625)"/>
       <path d="M 3328 2828 
Q 3544 3216 3844 3400 
Q 4144 3584 4550 3584 
Q 5097 3584 5394 3201 
Q 5691 2819 5691 2113 
L 5691 0 
L 5113 0 
L 5113 2094 
Q 5113 2597 4934 2840 
Q 4756 3084 4391 3084 
Q 3944 3084 3684 2787 
Q 3425 2491 3425 1978 
L 3425 0 
L 2847 0 
L 2847 2094 
Q 2847 2600 2669 2842 
Q 2491 3084 2119 3084 
Q 1678 3084 1418 2786 
Q 1159 2488 1159 1978 
L 1159 0 
L 581 0 
L 581 3500 
L 1159 3500 
L 1159 2956 
Q 1356 3278 1631 3431 
Q 1906 3584 2284 3584 
Q 2666 3584 2933 3390 
Q 3200 3197 3328 2828 
z
" id="DejaVuSans-6d" transform="scale(0.015625)"/>
       <path d="M 3513 2113 
L 3513 0 
L 2938 0 
L 2938 2094 
Q 2938 2591 2744 2837 
Q 2550 3084 2163 3084 
Q 1697 3084 1428 2787 
Q 1159 2491 1159 1978 
L 1159 0 
L 581 0 
L 581 3500 
L 1159 3500 
L 1159 2956 
Q 1366 3272 1645 3428 
Q 1925 3584 2291 3584 
Q 2894 3584 3203 3211 
Q 3513 2838 3513 2113 
z
" id="DejaVuSans-6e" transform="scale(0.015625)"/>
       <path d="M 513 4856 
L 1013 4856 
Q 1481 4119 1714 3412 
Q 1947 2706 1947 2009 
Q 1947 1309 1714 600 
Q 1481 -109 1013 -844 
L 513 -844 
Q 928 -128 1133 580 
Q 1338 1288 1338 2009 
Q 1338 2731 1133 3434 
Q 928 4138 513 4856 
z
" id="DejaVuSans-29" transform="scale(0.015625)"/>
      </defs>
      <use xlink:href="#DejaVuSans-6c"/>
      <use x="27.783203" xlink:href="#DejaVuSans-6f"/>
      <use x="88.964844" xlink:href="#DejaVuSans-67"/>
      <use x="152.441406" xlink:href="#DejaVuSans-31"/>
      <use x="216.064453" xlink:href="#DejaVuSans-30"/>
      <use x="279.6875" xlink:href="#DejaVuSans-28"/>
      <use x="318.701172" xlink:href="#DejaVuSans-23"/>
      <use x="402.490234" xlink:href="#DejaVuSans-20"/>
      <use x="434.277344" xlink:href="#DejaVuSans-66"/>
      <use x="463.982422" xlink:href="#DejaVuSans-2d"/>
      <use x="500.066406" xlink:href="#DejaVuSans-65"/>
      <use x="561.589844" xlink:href="#DejaVuSans-76"/>
      <use x="620.769531" xlink:href="#DejaVuSans-61"/>
      <use x="682.048828" xlink:href="#DejaVuSans-6c"/>
      <use x="709.832031" xlink:href="#DejaVuSans-73"/>
      <use x="761.931641" xlink:href="#DejaVuSans-20"/>
      <use x="793.71875" xlink:href="#DejaVuSans-2f"/>
      <use x="827.410156" xlink:href="#DejaVuSans-20"/>
      <use x="859.197266" xlink:href="#DejaVuSans-64"/>
      <use x="922.673828" xlink:href="#DejaVuSans-69"/>
      <use x="950.457031" xlink:href="#DejaVuSans-6d"/>
      <use x="1047.869141" xlink:href="#DejaVuSans-65"/>
      <use x="1109.392578" xlink:href="#DejaVuSans-6e"/>
      <use x="1172.771484" xlink:href="#DejaVuSans-73"/>
      <use x="1224.871094" xlink:href="#DejaVuSans-69"/>
      <use x="1252.654297" xlink:href="#DejaVuSans-6f"/>
      <use x="1313.835938" xlink:href="#DejaVuSans-6e"/>
      <use x="1377.214844" xlink:href="#DejaVuSans-29"/>
     </g>
    </g>
   </g>
   <g id="matplotlib.axis_2">
    <g id="ytick_1">
     <g id="line2d_21">
      <path clip-path="url(#pab587f5fbe)" d="M 57.6 298.944 
L 338.688 298.944 
" style="fill:none;stroke:#b0b0b0;stroke-linecap:square;stroke-width:0.8;"/>
     </g>
     <g id="line2d_22">
      <defs>
       <path d="M 0 0 
L -3.5 0 
" id="mf8bf96cef3" style="stroke:#000000;stroke-width:0.8;"/>
      </defs>
      <g>
       <use style="stroke:#000000;stroke-width:0.8;" x="57.6" xlink:href="#mf8bf96cef3" y="298.944"/>
      </g>
     </g>
     <g id="text_6">
      <!-- 0.0 -->
      <g transform="translate(25.155 305.02275)scale(0.16 -0.16)">
       <defs>
        <path d="M 684 794 
L 1344 794 
L 1344 0 
L 684 0 
L 684 794 
z
" id="DejaVuSans-2e" transform="scale(0.015625)"/>
       </defs>
       <use xlink:href="#DejaVuSans-30"/>
       <use x="63.623047" xlink:href="#DejaVuSans-2e"/>
       <use x="95.410156" xlink:href="#DejaVuSans-30"/>
      </g>
     </g>
    </g>
    <g id="ytick_2">
     <g id="line2d_23">
      <path clip-path="url(#pab587f5fbe)" d="M 57.6 245.22202 
L 338.688 245.22202 
" style="fill:none;stroke:#b0b0b0;stroke-linecap:square;stroke-width:0.8;"/>
     </g>
     <g id="line2d_24">
      <g>
       <use style="stroke:#000000;stroke-width:0.8;" x="57.6" xlink:href="#mf8bf96cef3" y="245.22202"/>
      </g>
     </g>
     <g id="text_7">
      <!-- 0.2 -->
      <g transform="translate(25.155 251.30077)scale(0.16 -0.16)">
       <use xlink:href="#DejaVuSans-30"/>
       <use x="63.623047" xlink:href="#DejaVuSans-2e"/>
       <use x="95.410156" xlink:href="#DejaVuSans-32"/>
      </g>
     </g>
    </g>
    <g id="ytick_3">
     <g id="line2d_25">
      <path clip-path="url(#pab587f5fbe)" d="M 57.6 191.50004 
L 338.688 191.50004 
" style="fill:none;stroke:#b0b0b0;stroke-linecap:square;stroke-width:0.8;"/>
     </g>
     <g id="line2d_26">
      <g>
       <use style="stroke:#000000;stroke-width:0.8;" x="57.6" xlink:href="#mf8bf96cef3" y="191.50004"/>
      </g>
     </g>
     <g id="text_8">
      <!-- 0.4 -->
      <g transform="translate(25.155 197.57879)scale(0.16 -0.16)">
       <use xlink:href="#DejaVuSans-30"/>
       <use x="63.623047" xlink:href="#DejaVuSans-2e"/>
       <use x="95.410156" xlink:href="#DejaVuSans-34"/>
      </g>
     </g>
    </g>
    <g id="ytick_4">
     <g id="line2d_27">
      <path clip-path="url(#pab587f5fbe)" d="M 57.6 137.778059 
L 338.688 137.778059 
" style="fill:none;stroke:#b0b0b0;stroke-linecap:square;stroke-width:0.8;"/>
     </g>
     <g id="line2d_28">
      <g>
       <use style="stroke:#000000;stroke-width:0.8;" x="57.6" xlink:href="#mf8bf96cef3" y="137.778059"/>
      </g>
     </g>
     <g id="text_9">
      <!-- 0.6 -->
      <g transform="translate(25.155 143.856809)scale(0.16 -0.16)">
       <use xlink:href="#DejaVuSans-30"/>
       <use x="63.623047" xlink:href="#DejaVuSans-2e"/>
       <use x="95.410156" xlink:href="#DejaVuSans-36"/>
      </g>
     </g>
    </g>
    <g id="ytick_5">
     <g id="line2d_29">
      <path clip-path="url(#pab587f5fbe)" d="M 57.6 84.056079 
L 338.688 84.056079 
" style="fill:none;stroke:#b0b0b0;stroke-linecap:square;stroke-width:0.8;"/>
     </g>
     <g id="line2d_30">
      <g>
       <use style="stroke:#000000;stroke-width:0.8;" x="57.6" xlink:href="#mf8bf96cef3" y="84.056079"/>
      </g>
     </g>
     <g id="text_10">
      <!-- 0.8 -->
      <g transform="translate(25.155 90.134829)scale(0.16 -0.16)">
       <defs>
        <path d="M 2034 2216 
Q 1584 2216 1326 1975 
Q 1069 1734 1069 1313 
Q 1069 891 1326 650 
Q 1584 409 2034 409 
Q 2484 409 2743 651 
Q 3003 894 3003 1313 
Q 3003 1734 2745 1975 
Q 2488 2216 2034 2216 
z
M 1403 2484 
Q 997 2584 770 2862 
Q 544 3141 544 3541 
Q 544 4100 942 4425 
Q 1341 4750 2034 4750 
Q 2731 4750 3128 4425 
Q 3525 4100 3525 3541 
Q 3525 3141 3298 2862 
Q 3072 2584 2669 2484 
Q 3125 2378 3379 2068 
Q 3634 1759 3634 1313 
Q 3634 634 3220 271 
Q 2806 -91 2034 -91 
Q 1263 -91 848 271 
Q 434 634 434 1313 
Q 434 1759 690 2068 
Q 947 2378 1403 2484 
z
M 1172 3481 
Q 1172 3119 1398 2916 
Q 1625 2713 2034 2713 
Q 2441 2713 2670 2916 
Q 2900 3119 2900 3481 
Q 2900 3844 2670 4047 
Q 2441 4250 2034 4250 
Q 1625 4250 1398 4047 
Q 1172 3844 1172 3481 
z
" id="DejaVuSans-38" transform="scale(0.015625)"/>
       </defs>
       <use xlink:href="#DejaVuSans-30"/>
       <use x="63.623047" xlink:href="#DejaVuSans-2e"/>
       <use x="95.410156" xlink:href="#DejaVuSans-38"/>
      </g>
     </g>
    </g>
    <g id="ytick_6">
     <g id="line2d_31">
      <path clip-path="url(#pab587f5fbe)" d="M 57.6 30.334099 
L 338.688 30.334099 
" style="fill:none;stroke:#b0b0b0;stroke-linecap:square;stroke-width:0.8;"/>
     </g>
     <g id="line2d_32">
      <g>
       <use style="stroke:#000000;stroke-width:0.8;" x="57.6" xlink:href="#mf8bf96cef3" y="30.334099"/>
      </g>
     </g>
     <g id="text_11">
      <!-- 1.0 -->
      <g transform="translate(25.155 36.412849)scale(0.16 -0.16)">
       <use xlink:href="#DejaVuSans-31"/>
       <use x="63.623047" xlink:href="#DejaVuSans-2e"/>
       <use x="95.410156" xlink:href="#DejaVuSans-30"/>
      </g>
     </g>
    </g>
    <g id="text_12">
     <!-- Fraction of function,target pairs -->
     <g transform="translate(17.619531 297.681)rotate(-90)scale(0.17 -0.17)">
      <defs>
       <path d="M 628 4666 
L 3309 4666 
L 3309 4134 
L 1259 4134 
L 1259 2759 
L 3109 2759 
L 3109 2228 
L 1259 2228 
L 1259 0 
L 628 0 
L 628 4666 
z
" id="DejaVuSans-46" transform="scale(0.015625)"/>
       <path d="M 2631 2963 
Q 2534 3019 2420 3045 
Q 2306 3072 2169 3072 
Q 1681 3072 1420 2755 
Q 1159 2438 1159 1844 
L 1159 0 
L 581 0 
L 581 3500 
L 1159 3500 
L 1159 2956 
Q 1341 3275 1631 3429 
Q 1922 3584 2338 3584 
Q 2397 3584 2469 3576 
Q 2541 3569 2628 3553 
L 2631 2963 
z
" id="DejaVuSans-72" transform="scale(0.015625)"/>
       <path d="M 3122 3366 
L 3122 2828 
Q 2878 2963 2633 3030 
Q 2388 3097 2138 3097 
Q 1578 3097 1268 2742 
Q 959 2388 959 1747 
Q 959 1106 1268 751 
Q 1578 397 2138 397 
Q 2388 397 2633 464 
Q 2878 531 3122 666 
L 3122 134 
Q 2881 22 2623 -34 
Q 2366 -91 2075 -91 
Q 1284 -91 818 406 
Q 353 903 353 1747 
Q 353 2603 823 3093 
Q 1294 3584 2113 3584 
Q 2378 3584 2631 3529 
Q 2884 3475 3122 3366 
z
" id="DejaVuSans-63" transform="scale(0.015625)"/>
       <path d="M 1172 4494 
L 1172 3500 
L 2356 3500 
L 2356 3053 
L 1172 3053 
L 1172 1153 
Q 1172 725 1289 603 
Q 1406 481 1766 481 
L 2356 481 
L 2356 0 
L 1766 0 
Q 1100 0 847 248 
Q 594 497 594 1153 
L 594 3053 
L 172 3053 
L 172 3500 
L 594 3500 
L 594 4494 
L 1172 4494 
z
" id="DejaVuSans-74" transform="scale(0.015625)"/>
       <path d="M 544 1381 
L 544 3500 
L 1119 3500 
L 1119 1403 
Q 1119 906 1312 657 
Q 1506 409 1894 409 
Q 2359 409 2629 706 
Q 2900 1003 2900 1516 
L 2900 3500 
L 3475 3500 
L 3475 0 
L 2900 0 
L 2900 538 
Q 2691 219 2414 64 
Q 2138 -91 1772 -91 
Q 1169 -91 856 284 
Q 544 659 544 1381 
z
M 1991 3584 
L 1991 3584 
z
" id="DejaVuSans-75" transform="scale(0.015625)"/>
       <path d="M 750 794 
L 1409 794 
L 1409 256 
L 897 -744 
L 494 -744 
L 750 256 
L 750 794 
z
" id="DejaVuSans-2c" transform="scale(0.015625)"/>
       <path d="M 1159 525 
L 1159 -1331 
L 581 -1331 
L 581 3500 
L 1159 3500 
L 1159 2969 
Q 1341 3281 1617 3432 
Q 1894 3584 2278 3584 
Q 2916 3584 3314 3078 
Q 3713 2572 3713 1747 
Q 3713 922 3314 415 
Q 2916 -91 2278 -91 
Q 1894 -91 1617 61 
Q 1341 213 1159 525 
z
M 3116 1747 
Q 3116 2381 2855 2742 
Q 2594 3103 2138 3103 
Q 1681 3103 1420 2742 
Q 1159 2381 1159 1747 
Q 1159 1113 1420 752 
Q 1681 391 2138 391 
Q 2594 391 2855 752 
Q 3116 1113 3116 1747 
z
" id="DejaVuSans-70" transform="scale(0.015625)"/>
      </defs>
      <use xlink:href="#DejaVuSans-46"/>
      <use x="50.269531" xlink:href="#DejaVuSans-72"/>
      <use x="91.382812" xlink:href="#DejaVuSans-61"/>
      <use x="152.662109" xlink:href="#DejaVuSans-63"/>
      <use x="207.642578" xlink:href="#DejaVuSans-74"/>
      <use x="246.851562" xlink:href="#DejaVuSans-69"/>
      <use x="274.634766" xlink:href="#DejaVuSans-6f"/>
      <use x="335.816406" xlink:href="#DejaVuSans-6e"/>
      <use x="399.195312" xlink:href="#DejaVuSans-20"/>
      <use x="430.982422" xlink:href="#DejaVuSans-6f"/>
      <use x="492.164062" xlink:href="#DejaVuSans-66"/>
      <use x="527.369141" xlink:href="#DejaVuSans-20"/>
      <use x="559.15625" xlink:href="#DejaVuSans-66"/>
      <use x="594.361328" xlink:href="#DejaVuSans-75"/>
      <use x="657.740234" xlink:href="#DejaVuSans-6e"/>
      <use x="721.119141" xlink:href="#DejaVuSans-63"/>
      <use x="776.099609" xlink:href="#DejaVuSans-74"/>
      <use x="815.308594" xlink:href="#DejaVuSans-69"/>
      <use x="843.091797" xlink:href="#DejaVuSans-6f"/>
      <use x="904.273438" xlink:href="#DejaVuSans-6e"/>
      <use x="967.652344" xlink:href="#DejaVuSans-2c"/>
      <use x="999.439453" xlink:href="#DejaVuSans-74"/>
      <use x="1038.648438" xlink:href="#DejaVuSans-61"/>
      <use x="1099.927734" xlink:href="#DejaVuSans-72"/>
      <use x="1139.291016" xlink:href="#DejaVuSans-67"/>
      <use x="1202.767578" xlink:href="#DejaVuSans-65"/>
      <use x="1264.291016" xlink:href="#DejaVuSans-74"/>
      <use x="1303.5" xlink:href="#DejaVuSans-20"/>
      <use x="1335.287109" xlink:href="#DejaVuSans-70"/>
      <use x="1398.763672" xlink:href="#DejaVuSans-61"/>
      <use x="1460.042969" xlink:href="#DejaVuSans-69"/>
      <use x="1487.826172" xlink:href="#DejaVuSans-72"/>
      <use x="1528.939453" xlink:href="#DejaVuSans-73"/>
     </g>
    </g>
   </g>
   <g id="line2d_33">
    <defs>
     <path d="M 0 1.5 
C 0.397805 1.5 0.77937 1.341951 1.06066 1.06066 
C 1.341951 0.77937 1.5 0.397805 1.5 0 
C 1.5 -0.397805 1.341951 -0.77937 1.06066 -1.06066 
C 0.77937 -1.341951 0.397805 -1.5 0 -1.5 
C -0.397805 -1.5 -0.77937 -1.341951 -1.06066 -1.06066 
C -1.341951 -0.77937 -1.5 -0.397805 -1.5 0 
C -1.5 0.397805 -1.341951 0.77937 -1.06066 1.06066 
C -0.77937 1.341951 -0.397805 1.5 0 1.5 
z
" id="m3cafb64711" style="stroke:#f5deb3;"/>
    </defs>
    <g>
     <use style="fill:#f5deb3;stroke:#f5deb3;" x="70.11861" xlink:href="#m3cafb64711" y="30.334099"/>
     <use style="fill:#f5deb3;stroke:#f5deb3;" x="70.11861" xlink:href="#m3cafb64711" y="30.334099"/>
    </g>
   </g>
   <g id="line2d_34">
    <defs>
     <path d="M 0 1.5 
C 0.397805 1.5 0.77937 1.341951 1.06066 1.06066 
C 1.341951 0.77937 1.5 0.397805 1.5 0 
C 1.5 -0.397805 1.341951 -0.77937 1.06066 -1.06066 
C 0.77937 -1.341951 0.397805 -1.5 0 -1.5 
C -0.397805 -1.5 -0.77937 -1.341951 -1.06066 -1.06066 
C -1.341951 -0.77937 -1.5 -0.397805 -1.5 0 
C -1.5 0.397805 -1.341951 0.77937 -1.06066 1.06066 
C -0.77937 1.341951 -0.397805 1.5 0 1.5 
z
" id="m228757c76a" style="stroke:#000080;"/>
    </defs>
    <g>
     <use style="fill:#000080;stroke:#000080;" x="226.363001" xlink:href="#m228757c76a" y="267.342835"/>
     <use style="fill:#000080;stroke:#000080;" x="226.363001" xlink:href="#m228757c76a" y="267.342835"/>
    </g>
   </g>
   <g id="line2d_35">
    <path d="M 135.290751 298.944 
L 135.290751 298.417314 
L 135.631921 298.417314 
L 135.631921 297.890628 
L 135.839358 297.890628 
L 135.839358 297.363942 
L 136.044356 297.363942 
L 136.044356 296.837256 
L 136.380754 296.837256 
L 136.380754 296.31057 
L 137.691492 296.31057 
L 137.691492 295.783884 
L 137.805906 295.783884 
L 137.805906 295.257197 
L 138.230536 295.257197 
L 138.230536 294.730511 
L 139.123342 294.730511 
L 139.123342 294.203825 
L 139.87165 294.203825 
L 139.87165 293.677139 
L 140.2646 293.677139 
L 140.2646 293.150453 
L 140.454035 293.150453 
L 140.454035 292.623767 
L 140.730677 292.623767 
L 140.730677 292.097081 
L 143.11861 292.097081 
L 143.11861 291.570395 
L 143.394564 291.570395 
L 143.394564 291.043709 
L 143.921357 291.043709 
L 143.921357 290.517023 
L 143.952218 290.517023 
L 143.952218 289.990337 
L 144.294175 289.990337 
L 144.294175 289.463651 
L 144.4207 289.463651 
L 144.4207 288.936964 
L 144.444697 288.936964 
L 144.444697 288.410278 
L 145.721664 288.410278 
L 145.721664 287.883592 
L 147.292393 287.883592 
L 147.292393 287.356906 
L 147.414169 287.356906 
L 147.414169 286.83022 
L 148.344551 286.83022 
L 148.344551 286.303534 
L 148.525764 286.303534 
L 148.525764 285.776848 
L 148.817445 285.776848 
L 148.817445 285.250162 
L 148.901221 285.250162 
L 148.901221 284.723476 
L 149.863165 284.723476 
L 149.863165 284.19679 
L 150.003205 284.19679 
L 150.003205 283.670104 
L 150.020631 283.670104 
L 150.020631 283.143418 
L 151.027348 283.143418 
L 151.027348 282.616732 
L 151.162458 282.616732 
L 151.162458 282.090045 
L 151.469695 282.090045 
L 151.469695 281.563359 
L 152.103205 281.563359 
L 152.103205 281.036673 
L 152.114793 281.036673 
L 152.114793 280.509987 
L 152.149514 280.509987 
L 152.149514 279.983301 
L 152.199544 279.983301 
L 152.199544 279.456615 
L 152.214909 279.456615 
L 152.214909 278.929929 
L 153.065409 278.929929 
L 153.065409 278.403243 
L 153.25815 278.403243 
L 153.25815 277.876557 
L 153.337534 277.876557 
L 153.337534 277.349871 
L 153.470235 277.349871 
L 153.470235 276.823185 
L 164.809955 276.823185 
L 164.809955 276.296499 
L 184.93618 276.296499 
L 184.93618 275.769812 
L 185.076744 275.769812 
L 185.076744 274.71644 
L 192.256314 274.71644 
L 192.256314 274.189754 
L 197.257817 274.189754 
L 197.257817 273.663068 
L 197.327306 273.663068 
L 197.327306 273.136382 
L 199.979218 273.136382 
L 199.979218 272.609696 
L 200.038684 272.609696 
L 200.038684 272.08301 
L 201.251102 272.08301 
L 201.251102 271.029638 
L 205.357029 271.029638 
L 205.357029 270.502952 
L 208.714245 270.502952 
L 208.714245 269.976266 
L 212.166204 269.976266 
L 212.166204 269.449579 
L 214.507231 269.449579 
L 214.507231 268.922893 
L 217.539575 268.922893 
L 217.539575 268.396207 
L 219.701217 268.396207 
L 219.701217 267.869521 
L 226.363001 267.869521 
L 226.363001 267.342835 
L 338.688 267.342835 
" style="fill:none;stroke:#000080;stroke-linecap:square;stroke-width:1.5;"/>
   </g>
   <g id="line2d_36">
    <defs>
     <path d="M 0 6 
C 1.591219 6 3.117479 5.367802 4.242641 4.242641 
C 5.367802 3.117479 6 1.591219 6 0 
C 6 -1.591219 5.367802 -3.117479 4.242641 -4.242641 
C 3.117479 -5.367802 1.591219 -6 0 -6 
C -1.591219 -6 -3.117479 -5.367802 -4.242641 -4.242641 
C -5.367802 -3.117479 -6 -1.591219 -6 0 
C -6 1.591219 -5.367802 3.117479 -4.242641 4.242641 
C -3.117479 5.367802 -1.591219 6 0 6 
z
" id="mdf5b1bbcb7" style="stroke:#000080;stroke-width:1.5;"/>
    </defs>
    <g>
     <use style="fill-opacity:0;stroke:#000080;stroke-width:1.5;" x="197.327306" xlink:href="#mdf5b1bbcb7" y="273.136382"/>
     <use style="fill-opacity:0;stroke:#000080;stroke-width:1.5;" x="226.363001" xlink:href="#mdf5b1bbcb7" y="267.869521"/>
     <use style="fill-opacity:0;stroke:#000080;stroke-width:1.5;" x="226.363001" xlink:href="#mdf5b1bbcb7" y="267.342835"/>
     <use style="fill-opacity:0;stroke:#000080;stroke-width:1.5;" x="226.363001" xlink:href="#mdf5b1bbcb7" y="267.342835"/>
     <use style="fill-opacity:0;stroke:#000080;stroke-width:1.5;" x="338.688" xlink:href="#mdf5b1bbcb7" y="267.342835"/>
    </g>
   </g>
   <g id="line2d_37">
    <path style="fill:none;stroke:#000080;stroke-linecap:square;stroke-width:1.5;"/>
    <g/>
   </g>
   <g id="line2d_38">
    <path clip-path="url(#pab587f5fbe)" d="M 154.153391 276.823185 
" style="fill:none;stroke:#000080;stroke-linecap:square;stroke-width:1.5;"/>
    <defs>
     <path d="M -12 12 
L 12 -12 
M -12 -12 
L 12 12 
" id="m7524e115b3" style="stroke:#000080;"/>
    </defs>
    <g clip-path="url(#pab587f5fbe)">
     <use style="fill:#000080;stroke:#000080;" x="154.153391" xlink:href="#m7524e115b3" y="276.823185"/>
    </g>
   </g>
   <g id="line2d_39">
    <defs>
     <path d="M 0 1.5 
C 0.397805 1.5 0.77937 1.341951 1.06066 1.06066 
C 1.341951 0.77937 1.5 0.397805 1.5 0 
C 1.5 -0.397805 1.341951 -0.77937 1.06066 -1.06066 
C 0.77937 -1.341951 0.397805 -1.5 0 -1.5 
C -0.397805 -1.5 -0.77937 -1.341951 -1.06066 -1.06066 
C -1.341951 -0.77937 -1.5 -0.397805 -1.5 0 
C -1.5 0.397805 -1.341951 0.77937 -1.06066 1.06066 
C -0.77937 1.341951 -0.397805 1.5 0 1.5 
z
" id="m43e1e6c148" style="stroke:#ff00ff;"/>
    </defs>
    <g>
     <use style="fill:#ff00ff;stroke:#ff00ff;" x="192.637435" xlink:href="#m43e1e6c148" y="30.334099"/>
     <use style="fill:#ff00ff;stroke:#ff00ff;" x="192.637435" xlink:href="#m43e1e6c148" y="30.334099"/>
    </g>
   </g>
   <g id="line2d_40">
    <path d="M 89.135256 298.944 
L 89.135256 298.417314 
L 91.157513 298.417314 
L 91.157513 297.890628 
L 92.267099 297.890628 
L 92.267099 297.363942 
L 92.73846 297.363942 
L 92.73846 296.837256 
L 93.422441 296.837256 
L 93.422441 296.31057 
L 94.505975 296.31057 
L 94.505975 295.783884 
L 95.125186 295.783884 
L 95.226283 294.730511 
L 95.624913 294.730511 
L 95.624913 294.203825 
L 97.928955 294.203825 
L 98.015075 293.150453 
L 98.18605 293.150453 
L 98.18605 292.623767 
L 98.355365 292.623767 
L 98.355365 292.097081 
L 98.606294 292.097081 
L 98.606294 291.570395 
L 98.853664 291.570395 
L 98.853664 291.043709 
L 99.731799 291.043709 
L 99.731799 290.517023 
L 101.079711 290.517023 
L 101.151625 288.936964 
L 102.924327 288.936964 
L 102.924327 288.410278 
L 103.685435 288.410278 
L 103.747386 286.303534 
L 103.809118 286.303534 
L 103.809118 285.776848 
L 104.295262 285.776848 
L 104.295262 285.250162 
L 104.884483 285.250162 
L 104.884483 284.723476 
L 105.842616 284.723476 
L 105.842616 284.19679 
L 106.006367 284.19679 
L 106.06061 282.090045 
L 106.541356 282.090045 
L 106.646412 281.036673 
L 107.06042 281.036673 
L 107.06042 280.509987 
L 107.90885 280.509987 
L 107.90885 279.983301 
L 108.102622 279.983301 
L 108.102622 278.929929 
L 108.246551 278.929929 
L 108.246551 277.876557 
L 108.483824 277.876557 
L 108.483824 277.349871 
L 109.668146 277.349871 
L 109.668146 276.823185 
L 109.886961 276.823185 
L 109.930396 274.71644 
L 110.016944 274.71644 
L 110.016944 273.136382 
L 110.188761 273.136382 
L 110.188761 272.609696 
L 110.401178 272.609696 
L 110.401178 272.08301 
L 111.663381 272.08301 
L 111.663381 271.556324 
L 111.858671 271.556324 
L 111.858671 271.029638 
L 112.356423 271.029638 
L 112.356423 270.502952 
L 113.095487 270.502952 
L 113.095487 269.976266 
L 113.418114 269.976266 
L 113.418114 269.449579 
L 114.045996 269.449579 
L 114.045996 268.922893 
L 114.452366 268.922893 
L 114.452366 268.396207 
L 114.652055 268.396207 
L 114.718113 254.175683 
L 114.914798 254.175683 
L 114.914798 253.648997 
L 115.742365 253.648997 
L 115.773423 247.85545 
L 116.621333 247.85545 
L 116.680349 246.802078 
L 116.943478 246.802078 
L 116.943478 245.22202 
L 117.059162 245.22202 
L 117.116718 244.168648 
L 117.792962 244.168648 
L 117.792962 243.641962 
L 118.06717 243.641962 
L 118.06717 242.061903 
L 118.256582 242.061903 
L 118.310324 237.321729 
L 119.122819 237.321729 
L 119.173961 236.268356 
L 120.310634 236.268356 
L 120.358413 235.214984 
L 120.712642 235.214984 
L 120.712642 234.161612 
L 120.875518 234.161612 
L 120.875518 233.634926 
L 121.174025 233.634926 
L 121.174025 232.054868 
L 121.287489 232.054868 
L 121.377731 229.948123 
L 121.601315 229.948123 
L 121.601315 229.421437 
L 122.636335 229.421437 
L 122.699028 228.368065 
L 122.80302 228.368065 
L 122.865118 226.788007 
L 122.988655 226.788007 
L 122.988655 225.207949 
L 123.414272 225.207949 
L 123.514096 214.674227 
L 123.613353 214.674227 
L 123.613353 214.147541 
L 123.907776 214.147541 
L 123.907776 212.040797 
L 124.387699 212.040797 
L 124.406624 206.24725 
L 124.557288 206.24725 
L 124.632135 204.140506 
L 125.129119 204.140506 
L 125.129119 195.713528 
L 125.255688 195.713528 
L 125.255688 195.186842 
L 125.840299 195.186842 
L 125.840299 194.660156 
L 126.921104 194.660156 
L 126.921104 194.13347 
L 127.181154 194.13347 
L 127.181154 192.553412 
L 127.814803 192.553412 
L 127.87692 191.50004 
L 128.426234 191.50004 
L 128.516128 175.699457 
L 129.262072 175.699457 
L 129.262072 175.172771 
L 129.588315 175.172771 
L 129.588315 164.112363 
L 154.847148 164.112363 
L 154.909767 162.532305 
L 154.978716 162.532305 
L 154.978716 162.005619 
L 155.235683 162.005619 
L 155.274387 158.318817 
L 155.447499 158.318817 
L 155.523889 157.265444 
L 155.561959 157.265444 
L 155.644161 145.678351 
L 155.747938 145.678351 
L 155.83551 141.991548 
L 155.869793 141.991548 
L 155.888465 140.938176 
L 155.993895 140.938176 
L 156.015522 136.724687 
L 156.123258 136.724687 
L 156.184524 135.671315 
L 156.269936 135.671315 
L 156.376116 132.511199 
L 156.391232 132.511199 
L 156.403315 130.404454 
L 156.505687 130.404454 
L 156.601491 128.29771 
L 156.628341 128.29771 
L 156.720511 120.397419 
L 156.764934 120.397419 
L 156.841668 117.237302 
L 156.876971 117.237302 
L 156.95614 110.917069 
L 157.257775 110.917069 
L 157.303721 109.337011 
L 157.429451 109.337011 
L 157.531651 103.543464 
L 157.756641 103.543464 
L 157.756641 97.223231 
L 158.094258 97.223231 
L 158.094258 96.696545 
L 166.663955 96.696545 
L 166.744251 95.643173 
L 166.797577 95.643173 
L 166.877262 92.483056 
L 166.931835 92.483056 
L 166.931835 90.902998 
L 167.061789 90.902998 
L 167.073257 88.796254 
L 167.205417 88.796254 
L 167.273552 87.216196 
L 167.442734 87.216196 
L 167.535487 81.422649 
L 167.743185 81.422649 
L 167.743185 80.895963 
L 167.893836 80.895963 
L 167.956225 73.522358 
L 168.018392 73.522358 
L 168.018392 70.888927 
L 173.468592 70.888927 
L 173.522987 69.835555 
L 173.64476 69.835555 
L 173.734416 64.042008 
L 173.784646 64.042008 
L 173.848064 62.46195 
L 173.91789 62.46195 
L 173.91789 61.935264 
L 174.039142 61.935264 
L 174.132262 55.615031 
L 174.219454 55.615031 
L 174.219454 55.088345 
L 174.349428 55.088345 
L 174.435543 51.928228 
L 178.379114 51.928228 
L 178.415048 50.34817 
L 178.52156 50.34817 
L 178.622358 47.188054 
L 178.813871 47.188054 
L 178.890557 45.607995 
L 178.951166 45.607995 
L 179.050342 44.554623 
L 179.116148 44.554623 
L 179.116148 44.027937 
L 182.305828 44.027937 
L 182.404016 41.921193 
L 182.540827 41.921193 
L 182.615551 38.23439 
L 185.370587 38.23439 
L 185.460979 37.181018 
L 185.506 37.181018 
L 185.511122 36.127646 
L 185.63924 36.127646 
L 185.63924 35.60096 
L 185.844189 35.60096 
L 185.844189 35.074274 
L 188.087193 35.074274 
L 188.193383 32.967529 
L 188.394681 32.967529 
L 188.394681 32.440843 
L 190.416927 32.440843 
L 190.416927 31.914157 
L 190.532073 31.914157 
L 190.532073 31.387471 
L 192.544548 31.387471 
L 192.637435 30.334099 
L 338.688 30.334099 
L 338.688 30.334099 
" style="fill:none;stroke:#ff00ff;stroke-linecap:square;stroke-width:1.5;"/>
   </g>
   <g id="line2d_41">
    <defs>
     <path d="M 0 8.485281 
L 5.091169 0 
L 0 -8.485281 
L -5.091169 0 
z
" id="m605ba87524" style="stroke:#ff00ff;stroke-linejoin:miter;stroke-width:1.5;"/>
    </defs>
    <g>
     <use style="fill-opacity:0;stroke:#ff00ff;stroke-linejoin:miter;stroke-width:1.5;" x="155.644161" xlink:href="#m605ba87524" y="153.578642"/>
     <use style="fill-opacity:0;stroke:#ff00ff;stroke-linejoin:miter;stroke-width:1.5;" x="192.637435" xlink:href="#m605ba87524" y="30.860785"/>
     <use style="fill-opacity:0;stroke:#ff00ff;stroke-linejoin:miter;stroke-width:1.5;" x="192.637435" xlink:href="#m605ba87524" y="30.334099"/>
     <use style="fill-opacity:0;stroke:#ff00ff;stroke-linejoin:miter;stroke-width:1.5;" x="192.637435" xlink:href="#m605ba87524" y="30.334099"/>
     <use style="fill-opacity:0;stroke:#ff00ff;stroke-linejoin:miter;stroke-width:1.5;" x="338.688" xlink:href="#m605ba87524" y="30.334099"/>
    </g>
   </g>
   <g id="line2d_42">
    <path style="fill:none;stroke:#ff00ff;stroke-linecap:square;stroke-width:1.5;"/>
    <g/>
   </g>
   <g id="line2d_43">
    <path clip-path="url(#pab587f5fbe)" d="M 153.890309 164.112363 
" style="fill:none;stroke:#ff00ff;stroke-linecap:square;stroke-width:1.5;"/>
    <defs>
     <path d="M -12 12 
L 12 -12 
M -12 -12 
L 12 12 
" id="md6f3ead497" style="stroke:#ff00ff;"/>
    </defs>
    <g clip-path="url(#pab587f5fbe)">
     <use style="fill:#ff00ff;stroke:#ff00ff;" x="153.890309" xlink:href="#md6f3ead497" y="164.112363"/>
    </g>
   </g>
   <g id="line2d_44">
    <defs>
     <path d="M 0 1.5 
C 0.397805 1.5 0.77937 1.341951 1.06066 1.06066 
C 1.341951 0.77937 1.5 0.397805 1.5 0 
C 1.5 -0.397805 1.341951 -0.77937 1.06066 -1.06066 
C 0.77937 -1.341951 0.397805 -1.5 0 -1.5 
C -0.397805 -1.5 -0.77937 -1.341951 -1.06066 -1.06066 
C -1.341951 -0.77937 -1.5 -0.397805 -1.5 0 
C -1.5 0.397805 -1.341951 0.77937 -1.06066 1.06066 
C -0.77937 1.341951 -0.397805 1.5 0 1.5 
z
" id="m79e5b638a5" style="stroke:#ff7500;"/>
    </defs>
    <g>
     <use style="fill:#ff7500;stroke:#ff7500;" x="192.441225" xlink:href="#m79e5b638a5" y="30.334099"/>
     <use style="fill:#ff7500;stroke:#ff7500;" x="192.441225" xlink:href="#m79e5b638a5" y="30.334099"/>
    </g>
   </g>
   <g id="line2d_45">
    <path d="M 83.635174 298.944 
L 83.635174 298.417314 
L 87.009585 298.417314 
L 87.009585 297.890628 
L 89.135256 297.890628 
L 89.135256 297.363942 
L 89.697862 297.363942 
L 89.697862 296.837256 
L 90.242884 296.837256 
L 90.242884 296.31057 
L 93.972622 296.31057 
L 94.080605 295.257197 
L 94.400601 295.257197 
L 94.400601 294.730511 
L 94.610715 294.730511 
L 94.610715 294.203825 
L 94.921215 294.203825 
L 94.921215 293.677139 
L 95.125186 293.677139 
L 95.125186 293.150453 
L 95.526106 293.150453 
L 95.526106 292.623767 
L 96.952455 292.623767 
L 96.952455 292.097081 
L 97.928955 292.097081 
L 98.015075 291.043709 
L 98.355365 291.043709 
L 98.355365 290.517023 
L 98.606294 290.517023 
L 98.606294 289.990337 
L 100.343767 289.990337 
L 100.343767 289.463651 
L 101.007498 289.463651 
L 101.007498 288.410278 
L 101.151625 288.410278 
L 101.151625 287.356906 
L 101.71651 287.356906 
L 101.71651 286.83022 
L 102.263669 286.83022 
L 102.263669 286.303534 
L 103.685435 286.303534 
L 103.685435 285.776848 
L 103.993014 285.776848 
L 103.993014 284.723476 
L 104.17499 284.723476 
L 104.17499 284.19679 
L 104.295262 284.19679 
L 104.295262 283.670104 
L 106.006367 283.670104 
L 106.06061 279.983301 
L 106.168594 279.983301 
L 106.275913 278.403243 
L 107.464828 278.403243 
L 107.464828 277.876557 
L 107.712901 277.876557 
L 107.712901 277.349871 
L 108.102622 277.349871 
L 108.198707 273.136382 
L 108.246551 273.136382 
L 108.246551 272.08301 
L 108.671345 272.08301 
L 108.764355 270.502952 
L 109.624052 270.502952 
L 109.624052 259.442544 
L 109.886961 259.442544 
L 109.973724 257.862486 
L 110.016944 257.862486 
L 110.060057 243.115275 
L 110.145965 243.115275 
L 110.145965 242.588589 
L 111.545148 242.588589 
L 111.545148 241.008531 
L 111.663381 241.008531 
L 111.663381 239.955159 
L 111.819788 239.955159 
L 111.819788 239.428473 
L 112.655818 239.428473 
L 112.655818 238.901787 
L 113.059268 238.901787 
L 113.13163 236.795043 
L 113.942906 236.795043 
L 113.977337 234.688298 
L 114.114385 234.688298 
L 114.216469 233.634926 
L 114.452366 233.634926 
L 114.452366 224.154577 
L 114.618932 224.154577 
L 114.618932 223.101204 
L 115.742365 223.101204 
L 115.835374 220.99446 
L 116.111464 220.99446 
L 116.141872 219.941088 
L 117.001416 219.941088 
L 117.059162 206.773936 
L 117.259781 206.773936 
L 117.345058 205.720564 
L 117.84815 205.720564 
L 117.903163 204.667192 
L 118.094355 204.667192 
L 118.121498 203.613819 
L 118.310324 203.613819 
L 118.363901 190.446667 
L 119.122819 190.446667 
L 119.173961 175.172771 
L 119.250393 175.172771 
L 119.250393 174.646085 
L 120.142369 174.646085 
L 120.166507 173.592713 
L 120.712642 173.592713 
L 120.712642 173.066027 
L 121.059819 173.066027 
L 121.151244 163.058991 
L 121.953191 163.058991 
L 121.953191 160.952247 
L 122.510267 160.952247 
L 122.510267 160.425561 
L 122.823744 160.425561 
L 122.823744 159.898875 
L 124.387699 159.898875 
L 124.387699 159.372189 
L 125.129119 159.372189 
L 125.129119 158.845503 
L 125.309651 158.845503 
L 125.309651 157.265444 
L 125.840299 157.265444 
L 125.840299 149.365153 
L 154.975439 149.365153 
L 155.066967 148.311781 
L 155.115803 148.311781 
L 155.216299 140.938176 
L 155.245367 140.938176 
L 155.245367 132.511199 
L 155.364363 132.511199 
L 155.444309 130.93114 
L 155.495282 130.93114 
L 155.571464 128.824396 
L 155.618909 128.824396 
L 155.722837 118.290674 
L 155.747938 118.290674 
L 155.782394 117.237302 
L 155.879132 117.237302 
L 155.975336 104.596836 
L 156.000077 104.596836 
L 156.024783 100.383348 
L 156.117119 100.383348 
L 156.117119 93.009743 
L 156.242527 93.009743 
L 156.315521 91.429684 
L 156.364014 91.429684 
L 156.36704 85.109451 
L 156.838723 85.109451 
L 156.838723 84.582765 
L 156.985371 84.582765 
L 157.072772 79.315904 
L 166.541125 79.315904 
L 166.601807 77.735846 
L 166.653892 77.735846 
L 166.668984 69.835555 
L 166.864006 69.835555 
L 166.872292 67.202125 
L 166.9994 67.202125 
L 167.07817 59.82852 
L 167.127221 59.82852 
L 167.127221 54.561659 
L 167.258974 54.561659 
L 167.258974 52.9816 
L 167.642024 52.9816 
L 167.642024 50.874856 
L 173.450423 50.874856 
L 173.512801 48.768112 
L 173.562544 48.768112 
L 173.64476 47.188054 
L 173.734416 47.188054 
L 173.790218 41.921193 
L 173.913465 41.921193 
L 173.913465 41.394507 
L 178.415048 41.394507 
L 178.514763 40.341135 
L 178.586002 40.341135 
L 178.650207 37.707704 
L 178.893052 37.707704 
L 178.893052 37.181018 
L 182.199518 37.181018 
L 182.231135 36.127646 
L 182.317448 36.127646 
L 182.42644 35.074274 
L 182.481358 35.074274 
L 182.507739 34.020902 
L 182.642401 34.020902 
L 182.642401 33.494215 
L 185.511691 33.494215 
L 185.511691 32.967529 
L 188.124457 32.967529 
L 188.124457 32.440843 
L 190.379954 32.440843 
L 190.379954 31.387471 
L 192.364193 31.387471 
L 192.441225 30.334099 
L 338.688 30.334099 
L 338.688 30.334099 
" style="fill:none;stroke:#ff7500;stroke-linecap:square;stroke-width:1.5;"/>
   </g>
   <g id="line2d_46">
    <defs>
     <path d="M 0 -6 
L -1.347084 -1.854102 
L -5.706339 -1.854102 
L -2.179628 0.708204 
L -3.526712 4.854102 
L -0 2.291796 
L 3.526712 4.854102 
L 2.179628 0.708204 
L 5.706339 -1.854102 
L 1.347084 -1.854102 
z
" id="m4e3ba156c8" style="stroke:#ff7500;stroke-linejoin:bevel;stroke-width:1.5;"/>
    </defs>
    <g>
     <use style="fill-opacity:0;stroke:#ff7500;stroke-linejoin:bevel;stroke-width:1.5;" x="110.145965" xlink:href="#m4e3ba156c8" y="243.115275"/>
     <use style="fill-opacity:0;stroke:#ff7500;stroke-linejoin:bevel;stroke-width:1.5;" x="157.072772" xlink:href="#m4e3ba156c8" y="79.315904"/>
     <use style="fill-opacity:0;stroke:#ff7500;stroke-linejoin:bevel;stroke-width:1.5;" x="192.441225" xlink:href="#m4e3ba156c8" y="30.334099"/>
     <use style="fill-opacity:0;stroke:#ff7500;stroke-linejoin:bevel;stroke-width:1.5;" x="192.441225" xlink:href="#m4e3ba156c8" y="30.334099"/>
     <use style="fill-opacity:0;stroke:#ff7500;stroke-linejoin:bevel;stroke-width:1.5;" x="338.688" xlink:href="#m4e3ba156c8" y="30.334099"/>
    </g>
   </g>
   <g id="line2d_47">
    <path style="fill:none;stroke:#ff7500;stroke-linecap:square;stroke-width:1.5;"/>
    <g/>
   </g>
   <g id="line2d_48">
    <path clip-path="url(#pab587f5fbe)" d="M 153.890309 149.365153 
" style="fill:none;stroke:#ff7500;stroke-linecap:square;stroke-width:1.5;"/>
    <defs>
     <path d="M -12 12 
L 12 -12 
M -12 -12 
L 12 12 
" id="m568c0f4394" style="stroke:#ff7500;"/>
    </defs>
    <g clip-path="url(#pab587f5fbe)">
     <use style="fill:#ff7500;stroke:#ff7500;" x="153.890309" xlink:href="#m568c0f4394" y="149.365153"/>
    </g>
   </g>
   <g id="line2d_49">
    <defs>
     <path d="M 0 1.5 
C 0.397805 1.5 0.77937 1.341951 1.06066 1.06066 
C 1.341951 0.77937 1.5 0.397805 1.5 0 
C 1.5 -0.397805 1.341951 -0.77937 1.06066 -1.06066 
C 0.77937 -1.341951 0.397805 -1.5 0 -1.5 
C -0.397805 -1.5 -0.77937 -1.341951 -1.06066 -1.06066 
C -1.341951 -0.77937 -1.5 -0.397805 -1.5 0 
C -1.5 0.397805 -1.341951 0.77937 -1.06066 1.06066 
C -0.77937 1.341951 -0.397805 1.5 0 1.5 
z
" id="mcdfa8a9321" style="stroke:#6495ed;"/>
    </defs>
    <g>
     <use style="fill:#6495ed;stroke:#6495ed;" x="158.425462" xlink:href="#mcdfa8a9321" y="30.334099"/>
     <use style="fill:#6495ed;stroke:#6495ed;" x="158.425462" xlink:href="#mcdfa8a9321" y="30.334099"/>
    </g>
   </g>
   <g id="line2d_50">
    <path d="M 94.400601 298.944 
L 94.400601 298.417314 
L 95.326798 298.417314 
L 95.326798 297.890628 
L 96.014634 297.890628 
L 96.110718 296.837256 
L 96.301313 296.837256 
L 96.301313 296.31057 
L 96.583356 296.31057 
L 96.583356 295.783884 
L 98.18605 295.783884 
L 98.18605 295.257197 
L 99.338119 295.257197 
L 99.338119 294.730511 
L 99.575392 294.730511 
L 99.575392 294.203825 
L 100.192776 294.203825 
L 100.192776 293.677139 
L 101.007498 293.677139 
L 101.007498 293.150453 
L 101.294571 293.150453 
L 101.294571 292.623767 
L 102.397818 292.623767 
L 102.397818 292.097081 
L 102.989037 292.097081 
L 102.989037 291.570395 
L 103.93193 291.570395 
L 103.93193 291.043709 
L 105.398279 291.043709 
L 105.398279 290.517023 
L 106.006367 290.517023 
L 106.114686 288.936964 
L 106.593963 288.936964 
L 106.593963 288.410278 
L 106.957836 288.410278 
L 106.957836 287.883592 
L 108.054381 287.883592 
L 108.054381 287.356906 
L 108.389302 287.356906 
L 108.389302 286.83022 
L 108.856871 286.83022 
L 108.856871 286.303534 
L 109.491096 286.303534 
L 109.491096 285.776848 
L 109.843417 285.776848 
L 109.886961 284.723476 
L 110.016944 284.723476 
L 110.016944 284.19679 
L 110.652711 284.19679 
L 110.652711 283.670104 
L 111.023335 283.670104 
L 111.023335 283.143418 
L 111.30625 283.143418 
L 111.30625 282.616732 
L 111.545148 282.616732 
L 111.624059 281.563359 
L 111.663381 281.563359 
L 111.663381 281.036673 
L 111.936179 281.036673 
L 111.936179 280.509987 
L 112.618673 280.509987 
L 112.618673 279.983301 
L 112.766778 279.983301 
L 112.766778 279.456615 
L 113.418114 279.456615 
L 113.418114 278.929929 
L 113.769724 278.929929 
L 113.769724 278.403243 
L 114.585746 278.403243 
L 114.585746 277.349871 
L 114.783921 277.349871 
L 114.816733 275.769812 
L 115.012316 275.769812 
L 115.012316 274.71644 
L 115.523393 274.71644 
L 115.523393 274.189754 
L 115.927891 274.189754 
L 115.989297 272.609696 
L 116.050487 272.609696 
L 116.050487 262.075974 
L 116.172228 262.075974 
L 116.202531 261.022602 
L 117.059162 261.022602 
L 117.059162 260.495916 
L 117.542433 260.495916 
L 117.626343 259.442544 
L 117.68206 259.442544 
L 117.737599 257.3358 
L 118.175657 257.3358 
L 118.229649 255.755741 
L 118.550135 255.755741 
L 118.629344 244.695334 
L 118.681952 244.695334 
L 118.681952 244.168648 
L 119.173961 244.168648 
L 119.173961 243.641962 
L 119.301163 243.641962 
L 119.301163 243.115275 
L 119.427443 243.115275 
L 119.427443 242.588589 
L 119.751557 242.588589 
L 119.776241 240.481845 
L 119.923616 240.481845 
L 119.923616 239.955159 
L 120.286695 239.955159 
L 120.286695 238.901787 
L 120.875518 238.901787 
L 120.875518 238.375101 
L 121.08272 238.375101 
L 121.08272 237.848415 
L 121.310093 237.848415 
L 121.310093 230.47481 
L 121.512225 230.47481 
L 121.512225 229.948123 
L 121.953191 229.948123 
L 121.953191 229.421437 
L 122.169562 229.421437 
L 122.233953 228.368065 
L 122.31944 228.368065 
L 122.31944 227.841379 
L 122.552391 227.841379 
L 122.657258 219.414402 
L 122.906394 219.414402 
L 122.968126 216.780971 
L 123.233135 216.780971 
L 123.233135 216.254285 
L 123.394238 216.254285 
L 123.394238 204.140506 
L 123.593547 204.140506 
L 123.593547 203.087133 
L 123.829748 203.087133 
L 123.849288 184.126434 
L 124.197312 184.126434 
L 124.197312 183.599748 
L 124.538526 183.599748 
L 124.538526 183.073062 
L 125.019895 183.073062 
L 125.019895 182.01969 
L 125.201556 182.01969 
L 125.201556 180.966318 
L 125.381344 180.966318 
L 125.381344 180.439632 
L 125.576994 180.439632 
L 125.576994 179.912946 
L 125.770472 179.912946 
L 125.840299 178.332888 
L 125.892487 178.332888 
L 125.909848 176.752829 
L 126.048118 176.752829 
L 126.082515 175.172771 
L 126.287485 175.172771 
L 126.338353 172.539341 
L 126.573795 172.539341 
L 126.673734 169.379224 
L 126.855481 169.379224 
L 126.937471 167.799166 
L 127.213389 167.799166 
L 127.277682 153.051956 
L 127.48501 153.051956 
L 127.5641 150.945211 
L 127.799239 150.945211 
L 127.87692 148.311781 
L 128.015879 148.311781 
L 128.015879 147.258409 
L 128.396166 147.258409 
L 128.486215 129.877768 
L 128.516128 129.877768 
L 128.516128 119.344047 
L 129.074938 119.344047 
L 129.074938 118.817361 
L 129.304973 118.817361 
L 129.404667 110.390383 
L 129.588315 110.390383 
L 129.672427 98.803289 
L 129.79784 98.803289 
L 129.79784 97.223231 
L 130.263646 97.223231 
L 130.331109 96.169859 
L 130.638123 96.169859 
L 130.717333 82.476021 
L 130.835477 82.476021 
L 130.835477 81.949335 
L 131.133813 81.949335 
L 131.146669 70.888927 
L 131.52801 70.888927 
L 131.52801 69.835555 
L 132.230358 69.835555 
L 132.230358 58.248461 
L 132.470242 58.248461 
L 132.470242 57.721775 
L 132.718618 57.721775 
L 132.718618 57.195089 
L 133.239232 57.195089 
L 133.239232 56.668403 
L 133.46572 56.668403 
L 133.46572 56.141717 
L 133.722595 56.141717 
L 133.722595 55.615031 
L 134.481887 55.615031 
L 134.481887 54.034973 
L 135.572198 54.034973 
L 135.671624 45.081309 
L 155.776134 45.081309 
L 155.776134 44.554623 
L 156.058696 44.554623 
L 156.058696 44.027937 
L 156.394253 44.027937 
L 156.394253 43.501251 
L 156.51169 43.501251 
L 156.51169 42.974565 
L 156.687861 42.974565 
L 156.756059 41.394507 
L 157.072772 41.394507 
L 157.072772 40.867821 
L 157.309456 40.867821 
L 157.309456 39.287762 
L 157.455057 39.287762 
L 157.548627 36.127646 
L 157.700665 36.127646 
L 157.798506 33.494215 
L 157.906885 33.494215 
L 157.970486 32.440843 
L 158.075062 32.440843 
L 158.075062 31.387471 
L 158.314856 31.387471 
L 158.425462 30.334099 
L 338.688 30.334099 
L 338.688 30.334099 
" style="fill:none;stroke:#6495ed;stroke-linecap:square;stroke-width:1.5;"/>
   </g>
   <g id="line2d_51">
    <defs>
     <path d="M -0 6 
L 6 -6 
L -6 -6 
z
" id="m11d1d5fb39" style="stroke:#6495ed;stroke-linejoin:miter;stroke-width:1.5;"/>
    </defs>
    <g>
     <use style="fill-opacity:0;stroke:#6495ed;stroke-linejoin:miter;stroke-width:1.5;" x="121.08272" xlink:href="#m11d1d5fb39" y="237.848415"/>
     <use style="fill-opacity:0;stroke:#6495ed;stroke-linejoin:miter;stroke-width:1.5;" x="135.671624" xlink:href="#m11d1d5fb39" y="51.928228"/>
     <use style="fill-opacity:0;stroke:#6495ed;stroke-linejoin:miter;stroke-width:1.5;" x="158.425462" xlink:href="#m11d1d5fb39" y="30.860785"/>
     <use style="fill-opacity:0;stroke:#6495ed;stroke-linejoin:miter;stroke-width:1.5;" x="158.425462" xlink:href="#m11d1d5fb39" y="30.334099"/>
     <use style="fill-opacity:0;stroke:#6495ed;stroke-linejoin:miter;stroke-width:1.5;" x="338.688" xlink:href="#m11d1d5fb39" y="30.334099"/>
    </g>
   </g>
   <g id="line2d_52">
    <path style="fill:none;stroke:#6495ed;stroke-linecap:square;stroke-width:1.5;"/>
    <g/>
   </g>
   <g id="line2d_53">
    <path clip-path="url(#pab587f5fbe)" d="M 153.890309 45.081309 
" style="fill:none;stroke:#6495ed;stroke-linecap:square;stroke-width:1.5;"/>
    <defs>
     <path d="M -12 12 
L 12 -12 
M -12 -12 
L 12 12 
" id="m8b58a91ff5" style="stroke:#6495ed;"/>
    </defs>
    <g clip-path="url(#pab587f5fbe)">
     <use style="fill:#6495ed;stroke:#6495ed;" x="153.890309" xlink:href="#m8b58a91ff5" y="45.081309"/>
    </g>
   </g>
   <g id="line2d_54">
    <defs>
     <path d="M 0 1.5 
C 0.397805 1.5 0.77937 1.341951 1.06066 1.06066 
C 1.341951 0.77937 1.5 0.397805 1.5 0 
C 1.5 -0.397805 1.341951 -0.77937 1.06066 -1.06066 
C 0.77937 -1.341951 0.397805 -1.5 0 -1.5 
C -0.397805 -1.5 -0.77937 -1.341951 -1.06066 -1.06066 
C -1.341951 -0.77937 -1.5 -0.397805 -1.5 0 
C -1.5 0.397805 -1.341951 0.77937 -1.06066 1.06066 
C -0.77937 1.341951 -0.397805 1.5 0 1.5 
z
" id="m29872f133f" style="stroke:#ff0000;"/>
    </defs>
    <g>
     <use style="fill:#ff0000;stroke:#ff0000;" x="134.117215" xlink:href="#m29872f133f" y="30.334099"/>
     <use style="fill:#ff0000;stroke:#ff0000;" x="134.117215" xlink:href="#m29872f133f" y="30.334099"/>
    </g>
   </g>
   <g id="line2d_55">
    <path d="M 105.114708 298.944 
L 105.114708 298.417314 
L 105.22869 298.417314 
L 105.22869 297.890628 
L 105.621863 297.890628 
L 105.621863 297.363942 
L 106.222336 297.363942 
L 106.222336 296.31057 
L 107.263796 296.31057 
L 107.263796 295.783884 
L 109.930396 295.783884 
L 109.930396 293.150453 
L 113.769724 293.150453 
L 113.839203 292.097081 
L 114.182507 292.097081 
L 114.182507 291.570395 
L 117.001416 291.570395 
L 117.059162 289.990337 
L 117.486268 289.990337 
L 117.514373 288.936964 
L 117.985359 288.936964 
L 117.985359 288.410278 
L 119.377041 288.410278 
L 119.377041 287.883592 
L 119.702083 287.883592 
L 119.702083 286.83022 
L 119.874629 286.83022 
L 119.948058 284.723476 
L 120.286695 284.723476 
L 120.286695 284.19679 
L 120.453579 284.19679 
L 120.453579 283.670104 
L 121.013926 283.670104 
L 121.013926 283.143418 
L 121.623516 283.143418 
L 121.623516 282.616732 
L 121.953191 282.616732 
L 121.996681 279.983301 
L 122.40451 279.983301 
L 122.40451 278.929929 
L 122.844443 278.929929 
L 122.844443 278.403243 
L 124.024168 278.403243 
L 124.082074 277.349871 
L 124.235556 277.349871 
L 124.330801 274.189754 
L 124.500941 274.189754 
L 124.500941 273.663068 
L 124.780872 273.663068 
L 124.780872 273.136382 
L 125.309651 273.136382 
L 125.309651 271.556324 
L 125.857712 271.556324 
L 125.909848 269.976266 
L 125.996395 269.976266 
L 126.048118 268.396207 
L 126.116845 268.396207 
L 126.116845 267.869521 
L 127.213389 267.869521 
L 127.213389 267.342835 
L 127.516689 267.342835 
L 127.5641 262.075974 
L 127.674226 262.075974 
L 127.752464 251.542253 
L 128.426234 251.542253 
L 128.426234 250.488881 
L 129.016952 250.488881 
L 129.103859 232.054868 
L 129.304973 232.054868 
L 129.39046 219.414402 
L 130.425122 219.414402 
L 130.465258 201.507075 
L 130.65135 201.507075 
L 130.65135 200.980389 
L 130.783067 200.980389 
L 130.783067 200.453703 
L 131.338382 200.453703 
L 131.338382 199.927017 
L 131.703155 199.927017 
L 131.790072 178.332888 
L 131.814826 178.332888 
L 131.876558 153.051956 
L 132.011604 153.051956 
L 132.109167 135.144629 
L 132.194089 135.144629 
L 132.194089 121.977477 
L 132.350712 121.977477 
L 132.350712 107.230267 
L 132.905511 107.230267 
L 132.998212 88.796254 
L 133.352844 88.796254 
L 133.352844 77.20916 
L 133.555497 77.20916 
L 133.555497 75.102416 
L 134.03029 75.102416 
L 134.117215 30.334099 
L 338.688 30.334099 
L 338.688 30.334099 
" style="fill:none;stroke:#ff0000;stroke-linecap:square;stroke-width:1.5;"/>
   </g>
   <g id="line2d_56">
    <defs>
     <path d="M 0 -6 
L -5.196152 -3 
L -5.196152 3 
L -0 6 
L 5.196152 3 
L 5.196152 -3 
z
" id="mcda412f5e2" style="stroke:#ff0000;stroke-linejoin:miter;stroke-width:1.5;"/>
    </defs>
    <g>
     <use style="fill-opacity:0;stroke:#ff0000;stroke-linejoin:miter;stroke-width:1.5;" x="134.03029" xlink:href="#mcda412f5e2" y="62.46195"/>
     <use style="fill-opacity:0;stroke:#ff0000;stroke-linejoin:miter;stroke-width:1.5;" x="134.117215" xlink:href="#mcda412f5e2" y="45.081309"/>
     <use style="fill-opacity:0;stroke:#ff0000;stroke-linejoin:miter;stroke-width:1.5;" x="134.117215" xlink:href="#mcda412f5e2" y="30.334099"/>
     <use style="fill-opacity:0;stroke:#ff0000;stroke-linejoin:miter;stroke-width:1.5;" x="134.117215" xlink:href="#mcda412f5e2" y="30.334099"/>
     <use style="fill-opacity:0;stroke:#ff0000;stroke-linejoin:miter;stroke-width:1.5;" x="338.688" xlink:href="#mcda412f5e2" y="30.334099"/>
    </g>
   </g>
   <g id="line2d_57">
    <path style="fill:none;stroke:#ff0000;stroke-linecap:square;stroke-width:1.5;"/>
    <g/>
   </g>
   <g id="line2d_58">
    <defs>
     <path d="M 0 1.5 
C 0.397805 1.5 0.77937 1.341951 1.06066 1.06066 
C 1.341951 0.77937 1.5 0.397805 1.5 0 
C 1.5 -0.397805 1.341951 -0.77937 1.06066 -1.06066 
C 0.77937 -1.341951 0.397805 -1.5 0 -1.5 
C -0.397805 -1.5 -0.77937 -1.341951 -1.06066 -1.06066 
C -1.341951 -0.77937 -1.5 -0.397805 -1.5 0 
C -1.5 0.397805 -1.341951 0.77937 -1.06066 1.06066 
C -0.77937 1.341951 -0.397805 1.5 0 1.5 
z
" id="ma86ab0ae69" style="stroke:#9acd32;"/>
    </defs>
    <g>
     <use style="fill:#9acd32;stroke:#9acd32;" x="138.54446" xlink:href="#ma86ab0ae69" y="30.334099"/>
     <use style="fill:#9acd32;stroke:#9acd32;" x="138.54446" xlink:href="#ma86ab0ae69" y="30.334099"/>
    </g>
   </g>
   <g id="line2d_59">
    <path d="M 103.870632 298.944 
L 103.870632 298.417314 
L 104.884483 298.417314 
L 104.884483 297.890628 
L 105.454445 297.890628 
L 105.454445 297.363942 
L 107.414787 297.363942 
L 107.414787 296.31057 
L 107.957496 296.31057 
L 107.957496 295.783884 
L 109.31223 295.783884 
L 109.31223 295.257197 
L 109.886961 295.257197 
L 109.930396 294.203825 
L 110.527398 294.203825 
L 110.527398 293.677139 
L 110.735755 293.677139 
L 110.735755 293.150453 
L 110.859585 293.150453 
L 110.859585 292.623767 
L 113.059268 292.623767 
L 113.059268 292.097081 
L 113.908407 292.097081 
L 113.908407 291.570395 
L 114.284194 291.570395 
L 114.284194 291.043709 
L 116.943478 291.043709 
L 117.030313 289.463651 
L 117.231262 289.463651 
L 117.316679 288.410278 
L 118.202674 288.410278 
L 118.202674 287.883592 
L 119.477701 287.883592 
L 119.477701 287.356906 
L 119.62761 287.356906 
L 119.702083 285.776848 
L 119.751557 285.776848 
L 119.751557 285.250162 
L 120.021178 285.250162 
L 120.021178 284.19679 
L 120.214681 284.19679 
L 120.238719 283.143418 
L 121.953191 283.143418 
L 122.040062 263.656033 
L 122.083336 263.656033 
L 122.148045 262.60266 
L 122.212516 262.60266 
L 122.31944 261.549288 
L 123.273551 261.549288 
L 123.273551 261.022602 
L 124.004823 261.022602 
L 124.043491 258.389172 
L 124.500941 258.389172 
L 124.557288 256.809114 
L 124.780872 256.809114 
L 124.780872 256.282427 
L 125.019895 256.282427 
L 125.019895 255.755741 
L 125.363449 255.755741 
L 125.363449 255.229055 
L 125.523852 255.229055 
L 125.523852 254.702369 
L 125.857712 254.702369 
L 125.927192 251.542253 
L 125.996395 251.542253 
L 126.082515 250.488881 
L 126.540355 250.488881 
L 126.557083 239.428473 
L 126.740043 239.428473 
L 126.740043 224.681263 
L 127.132689 224.681263 
L 127.181154 223.627891 
L 127.500856 223.627891 
L 127.611382 204.140506 
L 127.799239 204.140506 
L 127.799239 203.613819 
L 127.923363 203.613819 
L 127.923363 186.759865 
L 128.184228 186.759865 
L 128.184228 172.012655 
L 129.016952 172.012655 
L 129.089405 148.311781 
L 129.132732 148.311781 
L 129.175952 147.258409 
L 130.304155 147.258409 
L 130.411722 132.511199 
L 130.465258 132.511199 
L 130.465258 131.984513 
L 130.704156 131.984513 
L 130.704156 131.457826 
L 131.004728 131.457826 
L 131.004728 130.404454 
L 131.703155 130.404454 
L 131.765283 102.490092 
L 132.145613 102.490092 
L 132.181982 101.43672 
L 132.905511 101.43672 
L 132.986651 81.949335 
L 134.073807 81.949335 
L 134.073807 81.422649 
L 134.257551 81.422649 
L 134.257551 80.369277 
L 135.086899 80.369277 
L 135.148305 64.042008 
L 136.092812 64.042008 
L 136.092812 63.515322 
L 136.304433 63.515322 
L 136.304433 62.988636 
L 137.162581 62.988636 
L 137.198951 48.768112 
L 138.54446 48.768112 
L 138.54446 30.334099 
L 338.688 30.334099 
L 338.688 30.334099 
" style="fill:none;stroke:#9acd32;stroke-linecap:square;stroke-width:1.5;"/>
   </g>
   <g id="line2d_60">
    <defs>
     <path d="M 0 -6 
L -6 6 
L 6 6 
z
" id="mac5024a101" style="stroke:#9acd32;stroke-linejoin:miter;stroke-width:1.5;"/>
    </defs>
    <g>
     <use style="fill-opacity:0;stroke:#9acd32;stroke-linejoin:miter;stroke-width:1.5;" x="132.986651" xlink:href="#mac5024a101" y="99.329976"/>
     <use style="fill-opacity:0;stroke:#9acd32;stroke-linejoin:miter;stroke-width:1.5;" x="138.54446" xlink:href="#mac5024a101" y="48.768112"/>
     <use style="fill-opacity:0;stroke:#9acd32;stroke-linejoin:miter;stroke-width:1.5;" x="138.54446" xlink:href="#mac5024a101" y="30.334099"/>
     <use style="fill-opacity:0;stroke:#9acd32;stroke-linejoin:miter;stroke-width:1.5;" x="138.54446" xlink:href="#mac5024a101" y="30.334099"/>
     <use style="fill-opacity:0;stroke:#9acd32;stroke-linejoin:miter;stroke-width:1.5;" x="338.688" xlink:href="#mac5024a101" y="30.334099"/>
    </g>
   </g>
   <g id="line2d_61">
    <path style="fill:none;stroke:#9acd32;stroke-linecap:square;stroke-width:1.5;"/>
    <g/>
   </g>
   <g id="line2d_62">
    <defs>
     <path d="M 0 1.5 
C 0.397805 1.5 0.77937 1.341951 1.06066 1.06066 
C 1.341951 0.77937 1.5 0.397805 1.5 0 
C 1.5 -0.397805 1.341951 -0.77937 1.06066 -1.06066 
C 0.77937 -1.341951 0.397805 -1.5 0 -1.5 
C -0.397805 -1.5 -0.77937 -1.341951 -1.06066 -1.06066 
C -1.341951 -0.77937 -1.5 -0.397805 -1.5 0 
C -1.5 0.397805 -1.341951 0.77937 -1.06066 1.06066 
C -0.77937 1.341951 -0.397805 1.5 0 1.5 
z
" id="m02608a8b54" style="stroke:#00bfbf;"/>
    </defs>
    <g>
     <use style="fill:#00bfbf;stroke:#00bfbf;" x="142.673105" xlink:href="#m02608a8b54" y="30.334099"/>
     <use style="fill:#00bfbf;stroke:#00bfbf;" x="142.673105" xlink:href="#m02608a8b54" y="30.334099"/>
    </g>
   </g>
   <g id="line2d_63">
    <path d="M 113.769724 298.944 
L 113.769724 298.417314 
L 116.972471 298.417314 
L 117.001416 297.363942 
L 119.62761 297.363942 
L 119.62761 296.837256 
L 120.358413 296.837256 
L 120.358413 296.31057 
L 120.8059 296.31057 
L 120.8059 295.783884 
L 121.036887 295.783884 
L 121.036887 295.257197 
L 122.083336 295.257197 
L 122.083336 294.730511 
L 123.090939 294.730511 
L 123.090939 294.203825 
L 124.004823 294.203825 
L 124.062793 293.150453 
L 124.178158 293.150453 
L 124.216444 292.097081 
L 124.330801 292.097081 
L 124.406624 291.043709 
L 125.996395 291.043709 
L 125.996395 290.517023 
L 126.270496 290.517023 
L 126.270496 289.990337 
L 127.051614 289.990337 
L 127.051614 289.463651 
L 127.500856 289.463651 
L 127.595635 287.356906 
L 128.000494 287.356906 
L 128.000494 286.83022 
L 129.016952 286.83022 
L 129.103859 285.776848 
L 129.147151 285.776848 
L 129.147151 285.250162 
L 130.45189 285.250162 
L 130.531948 283.670104 
L 131.703155 283.670104 
L 131.802453 279.983301 
L 131.839545 279.983301 
L 131.839545 279.456615 
L 132.905511 279.456615 
L 132.951923 276.823185 
L 133.101914 276.823185 
L 133.205004 275.769812 
L 134.03029 275.769812 
L 134.12805 271.029638 
L 134.192921 271.029638 
L 134.192921 255.229055 
L 134.682402 255.229055 
L 134.682402 254.702369 
L 135.127861 254.702369 
L 135.219673 253.648997 
L 135.351444 253.648997 
L 135.351444 253.122311 
L 135.522271 253.122311 
L 135.522271 252.595625 
L 136.092812 252.595625 
L 136.160425 222.047832 
L 136.579521 222.047832 
L 136.579521 221.521146 
L 137.025515 221.521146 
L 137.126135 204.667192 
L 137.388657 204.667192 
L 137.388657 204.140506 
L 137.919575 204.140506 
L 137.989158 203.087133 
L 138.093015 203.087133 
L 138.093015 186.233179 
L 138.341479 186.233179 
L 138.341479 175.172771 
L 138.753416 175.172771 
L 138.861092 140.41149 
L 139.009092 140.41149 
L 139.009092 139.884804 
L 139.429726 139.884804 
L 139.429726 138.831432 
L 139.580923 138.831432 
L 139.644195 106.703581 
L 139.762215 106.703581 
L 139.856059 86.162824 
L 140.393639 86.162824 
L 140.393639 71.415613 
L 141.1122 71.415613 
L 141.126708 68.782183 
L 141.809295 68.782183 
L 141.906643 54.561659 
L 142.499711 54.561659 
L 142.499711 42.447879 
L 142.673105 42.447879 
L 142.673105 30.334099 
L 338.688 30.334099 
L 338.688 30.334099 
" style="fill:none;stroke:#00bfbf;stroke-linecap:square;stroke-width:1.5;"/>
   </g>
   <g id="line2d_64">
    <defs>
     <path d="M 0 -6 
L -5.706339 -1.854102 
L -3.526712 4.854102 
L 3.526712 4.854102 
L 5.706339 -1.854102 
z
" id="m3138f71d1f" style="stroke:#00bfbf;stroke-linejoin:miter;stroke-width:1.5;"/>
    </defs>
    <g>
     <use style="fill-opacity:0;stroke:#00bfbf;stroke-linejoin:miter;stroke-width:1.5;" x="137.126135" xlink:href="#m3138f71d1f" y="205.720564"/>
     <use style="fill-opacity:0;stroke:#00bfbf;stroke-linejoin:miter;stroke-width:1.5;" x="142.673105" xlink:href="#m3138f71d1f" y="42.447879"/>
     <use style="fill-opacity:0;stroke:#00bfbf;stroke-linejoin:miter;stroke-width:1.5;" x="142.673105" xlink:href="#m3138f71d1f" y="30.334099"/>
     <use style="fill-opacity:0;stroke:#00bfbf;stroke-linejoin:miter;stroke-width:1.5;" x="142.673105" xlink:href="#m3138f71d1f" y="30.334099"/>
     <use style="fill-opacity:0;stroke:#00bfbf;stroke-linejoin:miter;stroke-width:1.5;" x="338.688" xlink:href="#m3138f71d1f" y="30.334099"/>
    </g>
   </g>
   <g id="line2d_65">
    <path style="fill:none;stroke:#00bfbf;stroke-linecap:square;stroke-width:1.5;"/>
    <g/>
   </g>
   <g id="line2d_66">
    <path d="M 338.688 267.342835 
L 369.60768 293.571802 
" style="fill:none;stroke:#000080;stroke-linecap:square;stroke-width:1.5;"/>
    <g>
     <use style="fill-opacity:0;stroke:#000080;stroke-width:1.5;" x="338.688" xlink:href="#mdf5b1bbcb7" y="267.342835"/>
     <use style="fill-opacity:0;stroke:#000080;stroke-width:1.5;" x="369.60768" xlink:href="#mdf5b1bbcb7" y="293.571802"/>
    </g>
   </g>
   <g id="line2d_67">
    <path d="M 338.688 30.334099 
L 369.60768 256.733873 
" style="fill:none;stroke:#ff00ff;stroke-linecap:square;stroke-width:1.5;"/>
    <g>
     <use style="fill-opacity:0;stroke:#ff00ff;stroke-linejoin:miter;stroke-width:1.5;" x="338.688" xlink:href="#m605ba87524" y="30.334099"/>
     <use style="fill-opacity:0;stroke:#ff00ff;stroke-linejoin:miter;stroke-width:1.5;" x="369.60768" xlink:href="#m605ba87524" y="256.733873"/>
    </g>
   </g>
   <g id="line2d_68">
    <path d="M 338.688 30.334099 
L 369.60768 219.895943 
" style="fill:none;stroke:#ff7500;stroke-linecap:square;stroke-width:1.5;"/>
    <g>
     <use style="fill-opacity:0;stroke:#ff7500;stroke-linejoin:bevel;stroke-width:1.5;" x="338.688" xlink:href="#m4e3ba156c8" y="30.334099"/>
     <use style="fill-opacity:0;stroke:#ff7500;stroke-linejoin:bevel;stroke-width:1.5;" x="369.60768" xlink:href="#m4e3ba156c8" y="219.895943"/>
    </g>
   </g>
   <g id="line2d_69">
    <path d="M 338.688 30.334099 
L 369.60768 183.058014 
" style="fill:none;stroke:#6495ed;stroke-linecap:square;stroke-width:1.5;"/>
    <g>
     <use style="fill-opacity:0;stroke:#6495ed;stroke-linejoin:miter;stroke-width:1.5;" x="338.688" xlink:href="#m11d1d5fb39" y="30.334099"/>
     <use style="fill-opacity:0;stroke:#6495ed;stroke-linejoin:miter;stroke-width:1.5;" x="369.60768" xlink:href="#m11d1d5fb39" y="183.058014"/>
    </g>
   </g>
   <g id="line2d_70">
    <path d="M 338.688 30.334099 
L 369.60768 146.220085 
" style="fill:none;stroke:#00bfbf;stroke-linecap:square;stroke-width:1.5;"/>
    <g>
     <use style="fill-opacity:0;stroke:#00bfbf;stroke-linejoin:miter;stroke-width:1.5;" x="338.688" xlink:href="#m3138f71d1f" y="30.334099"/>
     <use style="fill-opacity:0;stroke:#00bfbf;stroke-linejoin:miter;stroke-width:1.5;" x="369.60768" xlink:href="#m3138f71d1f" y="146.220085"/>
    </g>
   </g>
   <g id="line2d_71">
    <path d="M 338.688 30.334099 
L 369.60768 109.382156 
" style="fill:none;stroke:#9acd32;stroke-linecap:square;stroke-width:1.5;"/>
    <g>
     <use style="fill-opacity:0;stroke:#9acd32;stroke-linejoin:miter;stroke-width:1.5;" x="338.688" xlink:href="#mac5024a101" y="30.334099"/>
     <use style="fill-opacity:0;stroke:#9acd32;stroke-linejoin:miter;stroke-width:1.5;" x="369.60768" xlink:href="#mac5024a101" y="109.382156"/>
    </g>
   </g>
   <g id="line2d_72">
    <path d="M 338.688 30.334099 
L 369.60768 72.544226 
" style="fill:none;stroke:#ff0000;stroke-linecap:square;stroke-width:1.5;"/>
    <g>
     <use style="fill-opacity:0;stroke:#ff0000;stroke-linejoin:miter;stroke-width:1.5;" x="338.688" xlink:href="#mcda412f5e2" y="30.334099"/>
     <use style="fill-opacity:0;stroke:#ff0000;stroke-linejoin:miter;stroke-width:1.5;" x="369.60768" xlink:href="#mcda412f5e2" y="72.544226"/>
    </g>
   </g>
   <g id="line2d_73">
    <path d="M 338.688 298.944 
L 338.688 30.334099 
" style="fill:none;stroke:#000000;stroke-linecap:square;stroke-width:1.5;"/>
   </g>
   <g id="patch_3">
    <path d="M 57.6 298.944 
L 57.6 27.648 
" style="fill:none;stroke:#000000;stroke-linecap:square;stroke-linejoin:miter;stroke-width:0.8;"/>
   </g>
   <g id="patch_4">
    <path d="M 338.688 298.944 
L 338.688 27.648 
" style="fill:none;stroke:#000000;stroke-linecap:square;stroke-linejoin:miter;stroke-width:0.8;"/>
   </g>
   <g id="patch_5">
    <path d="M 57.6 298.944 
L 338.688 298.944 
" style="fill:none;stroke:#000000;stroke-linecap:square;stroke-linejoin:miter;stroke-width:0.8;"/>
   </g>
   <g id="patch_6">
    <path d="M 57.6 27.648 
L 338.688 27.648 
" style="fill:none;stroke:#000000;stroke-linecap:square;stroke-linejoin:miter;stroke-width:0.8;"/>
   </g>
   <g id="text_13">
    <!-- Bin GA -->
    <g transform="translate(375.22944 298.262739)scale(0.17 -0.17)">
     <defs>
      <path d="M 1259 2228 
L 1259 519 
L 2272 519 
Q 2781 519 3026 730 
Q 3272 941 3272 1375 
Q 3272 1813 3026 2020 
Q 2781 2228 2272 2228 
L 1259 2228 
z
M 1259 4147 
L 1259 2741 
L 2194 2741 
Q 2656 2741 2882 2914 
Q 3109 3088 3109 3444 
Q 3109 3797 2882 3972 
Q 2656 4147 2194 4147 
L 1259 4147 
z
M 628 4666 
L 2241 4666 
Q 2963 4666 3353 4366 
Q 3744 4066 3744 3513 
Q 3744 3084 3544 2831 
Q 3344 2578 2956 2516 
Q 3422 2416 3680 2098 
Q 3938 1781 3938 1306 
Q 3938 681 3513 340 
Q 3088 0 2303 0 
L 628 0 
L 628 4666 
z
" id="DejaVuSans-42" transform="scale(0.015625)"/>
      <path d="M 3809 666 
L 3809 1919 
L 2778 1919 
L 2778 2438 
L 4434 2438 
L 4434 434 
Q 4069 175 3628 42 
Q 3188 -91 2688 -91 
Q 1594 -91 976 548 
Q 359 1188 359 2328 
Q 359 3472 976 4111 
Q 1594 4750 2688 4750 
Q 3144 4750 3555 4637 
Q 3966 4525 4313 4306 
L 4313 3634 
Q 3963 3931 3569 4081 
Q 3175 4231 2741 4231 
Q 1884 4231 1454 3753 
Q 1025 3275 1025 2328 
Q 1025 1384 1454 906 
Q 1884 428 2741 428 
Q 3075 428 3337 486 
Q 3600 544 3809 666 
z
" id="DejaVuSans-47" transform="scale(0.015625)"/>
      <path d="M 2188 4044 
L 1331 1722 
L 3047 1722 
L 2188 4044 
z
M 1831 4666 
L 2547 4666 
L 4325 0 
L 3669 0 
L 3244 1197 
L 1141 1197 
L 716 0 
L 50 0 
L 1831 4666 
z
" id="DejaVuSans-41" transform="scale(0.015625)"/>
     </defs>
     <use xlink:href="#DejaVuSans-42"/>
     <use x="68.603516" xlink:href="#DejaVuSans-69"/>
     <use x="96.386719" xlink:href="#DejaVuSans-6e"/>
     <use x="159.765625" xlink:href="#DejaVuSans-20"/>
     <use x="191.552734" xlink:href="#DejaVuSans-47"/>
     <use x="269.042969" xlink:href="#DejaVuSans-41"/>
    </g>
   </g>
   <g id="text_14">
    <!-- PSO -->
    <g transform="translate(375.22944 261.42481)scale(0.17 -0.17)">
     <defs>
      <path d="M 1259 4147 
L 1259 2394 
L 2053 2394 
Q 2494 2394 2734 2622 
Q 2975 2850 2975 3272 
Q 2975 3691 2734 3919 
Q 2494 4147 2053 4147 
L 1259 4147 
z
M 628 4666 
L 2053 4666 
Q 2838 4666 3239 4311 
Q 3641 3956 3641 3272 
Q 3641 2581 3239 2228 
Q 2838 1875 2053 1875 
L 1259 1875 
L 1259 0 
L 628 0 
L 628 4666 
z
" id="DejaVuSans-50" transform="scale(0.015625)"/>
      <path d="M 3425 4513 
L 3425 3897 
Q 3066 4069 2747 4153 
Q 2428 4238 2131 4238 
Q 1616 4238 1336 4038 
Q 1056 3838 1056 3469 
Q 1056 3159 1242 3001 
Q 1428 2844 1947 2747 
L 2328 2669 
Q 3034 2534 3370 2195 
Q 3706 1856 3706 1288 
Q 3706 609 3251 259 
Q 2797 -91 1919 -91 
Q 1588 -91 1214 -16 
Q 841 59 441 206 
L 441 856 
Q 825 641 1194 531 
Q 1563 422 1919 422 
Q 2459 422 2753 634 
Q 3047 847 3047 1241 
Q 3047 1584 2836 1778 
Q 2625 1972 2144 2069 
L 1759 2144 
Q 1053 2284 737 2584 
Q 422 2884 422 3419 
Q 422 4038 858 4394 
Q 1294 4750 2059 4750 
Q 2388 4750 2728 4690 
Q 3069 4631 3425 4513 
z
" id="DejaVuSans-53" transform="scale(0.015625)"/>
      <path d="M 2522 4238 
Q 1834 4238 1429 3725 
Q 1025 3213 1025 2328 
Q 1025 1447 1429 934 
Q 1834 422 2522 422 
Q 3209 422 3611 934 
Q 4013 1447 4013 2328 
Q 4013 3213 3611 3725 
Q 3209 4238 2522 4238 
z
M 2522 4750 
Q 3503 4750 4090 4092 
Q 4678 3434 4678 2328 
Q 4678 1225 4090 567 
Q 3503 -91 2522 -91 
Q 1538 -91 948 565 
Q 359 1222 359 2328 
Q 359 3434 948 4092 
Q 1538 4750 2522 4750 
z
" id="DejaVuSans-4f" transform="scale(0.015625)"/>
     </defs>
     <use xlink:href="#DejaVuSans-50"/>
     <use x="60.302734" xlink:href="#DejaVuSans-53"/>
     <use x="123.779297" xlink:href="#DejaVuSans-4f"/>
    </g>
   </g>
   <g id="text_15">
    <!-- PSO Bound -->
    <g transform="translate(375.22944 224.586881)scale(0.17 -0.17)">
     <use xlink:href="#DejaVuSans-50"/>
     <use x="60.302734" xlink:href="#DejaVuSans-53"/>
     <use x="123.779297" xlink:href="#DejaVuSans-4f"/>
     <use x="202.490234" xlink:href="#DejaVuSans-20"/>
     <use x="234.277344" xlink:href="#DejaVuSans-42"/>
     <use x="302.880859" xlink:href="#DejaVuSans-6f"/>
     <use x="364.0625" xlink:href="#DejaVuSans-75"/>
     <use x="427.441406" xlink:href="#DejaVuSans-6e"/>
     <use x="490.820312" xlink:href="#DejaVuSans-64"/>
    </g>
   </g>
   <g id="text_16">
    <!-- PSO EDA -->
    <g transform="translate(375.22944 187.748952)scale(0.17 -0.17)">
     <defs>
      <path d="M 628 4666 
L 3578 4666 
L 3578 4134 
L 1259 4134 
L 1259 2753 
L 3481 2753 
L 3481 2222 
L 1259 2222 
L 1259 531 
L 3634 531 
L 3634 0 
L 628 0 
L 628 4666 
z
" id="DejaVuSans-45" transform="scale(0.015625)"/>
      <path d="M 1259 4147 
L 1259 519 
L 2022 519 
Q 2988 519 3436 956 
Q 3884 1394 3884 2338 
Q 3884 3275 3436 3711 
Q 2988 4147 2022 4147 
L 1259 4147 
z
M 628 4666 
L 1925 4666 
Q 3281 4666 3915 4102 
Q 4550 3538 4550 2338 
Q 4550 1131 3912 565 
Q 3275 0 1925 0 
L 628 0 
L 628 4666 
z
" id="DejaVuSans-44" transform="scale(0.015625)"/>
     </defs>
     <use xlink:href="#DejaVuSans-50"/>
     <use x="60.302734" xlink:href="#DejaVuSans-53"/>
     <use x="123.779297" xlink:href="#DejaVuSans-4f"/>
     <use x="202.490234" xlink:href="#DejaVuSans-20"/>
     <use x="234.277344" xlink:href="#DejaVuSans-45"/>
     <use x="297.460938" xlink:href="#DejaVuSans-44"/>
     <use x="372.712891" xlink:href="#DejaVuSans-41"/>
    </g>
   </g>
   <g id="text_17">
    <!-- JADE -->
    <g transform="translate(375.22944 150.911022)scale(0.17 -0.17)">
     <defs>
      <path d="M 628 4666 
L 1259 4666 
L 1259 325 
Q 1259 -519 939 -900 
Q 619 -1281 -91 -1281 
L -331 -1281 
L -331 -750 
L -134 -750 
Q 284 -750 456 -515 
Q 628 -281 628 325 
L 628 4666 
z
" id="DejaVuSans-4a" transform="scale(0.015625)"/>
     </defs>
     <use xlink:href="#DejaVuSans-4a"/>
     <use x="27.742188" xlink:href="#DejaVuSans-41"/>
     <use x="96.150391" xlink:href="#DejaVuSans-44"/>
     <use x="173.152344" xlink:href="#DejaVuSans-45"/>
    </g>
   </g>
   <g id="text_18">
    <!-- DEAE -->
    <g transform="translate(375.22944 114.073093)scale(0.17 -0.17)">
     <use xlink:href="#DejaVuSans-44"/>
     <use x="77.001953" xlink:href="#DejaVuSans-45"/>
     <use x="140.185547" xlink:href="#DejaVuSans-41"/>
     <use x="208.59375" xlink:href="#DejaVuSans-45"/>
    </g>
   </g>
   <g id="text_19">
    <!-- DE -->
    <g transform="translate(375.22944 77.235164)scale(0.17 -0.17)">
     <use xlink:href="#DejaVuSans-44"/>
     <use x="77.001953" xlink:href="#DejaVuSans-45"/>
    </g>
   </g>
   <g id="text_20">
    <!-- best 2009 -->
    <g transform="translate(375.22944 40.397235)scale(0.17 -0.17)">
     <defs>
      <path d="M 3116 1747 
Q 3116 2381 2855 2742 
Q 2594 3103 2138 3103 
Q 1681 3103 1420 2742 
Q 1159 2381 1159 1747 
Q 1159 1113 1420 752 
Q 1681 391 2138 391 
Q 2594 391 2855 752 
Q 3116 1113 3116 1747 
z
M 1159 2969 
Q 1341 3281 1617 3432 
Q 1894 3584 2278 3584 
Q 2916 3584 3314 3078 
Q 3713 2572 3713 1747 
Q 3713 922 3314 415 
Q 2916 -91 2278 -91 
Q 1894 -91 1617 61 
Q 1341 213 1159 525 
L 1159 0 
L 581 0 
L 581 4863 
L 1159 4863 
L 1159 2969 
z
" id="DejaVuSans-62" transform="scale(0.015625)"/>
      <path d="M 703 97 
L 703 672 
Q 941 559 1184 500 
Q 1428 441 1663 441 
Q 2288 441 2617 861 
Q 2947 1281 2994 2138 
Q 2813 1869 2534 1725 
Q 2256 1581 1919 1581 
Q 1219 1581 811 2004 
Q 403 2428 403 3163 
Q 403 3881 828 4315 
Q 1253 4750 1959 4750 
Q 2769 4750 3195 4129 
Q 3622 3509 3622 2328 
Q 3622 1225 3098 567 
Q 2575 -91 1691 -91 
Q 1453 -91 1209 -44 
Q 966 3 703 97 
z
M 1959 2075 
Q 2384 2075 2632 2365 
Q 2881 2656 2881 3163 
Q 2881 3666 2632 3958 
Q 2384 4250 1959 4250 
Q 1534 4250 1286 3958 
Q 1038 3666 1038 3163 
Q 1038 2656 1286 2365 
Q 1534 2075 1959 2075 
z
" id="DejaVuSans-39" transform="scale(0.015625)"/>
     </defs>
     <use xlink:href="#DejaVuSans-62"/>
     <use x="63.476562" xlink:href="#DejaVuSans-65"/>
     <use x="125" xlink:href="#DejaVuSans-73"/>
     <use x="177.099609" xlink:href="#DejaVuSans-74"/>
     <use x="216.308594" xlink:href="#DejaVuSans-20"/>
     <use x="248.095703" xlink:href="#DejaVuSans-32"/>
     <use x="311.71875" xlink:href="#DejaVuSans-30"/>
     <use x="375.341797" xlink:href="#DejaVuSans-30"/>
     <use x="438.964844" xlink:href="#DejaVuSans-39"/>
    </g>
   </g>
   <g id="text_21">
    <!-- bbob f5, 20-D -->
    <g transform="translate(60.41088 38.111366)scale(0.102 -0.102)">
     <defs>
      <path d="M 691 4666 
L 3169 4666 
L 3169 4134 
L 1269 4134 
L 1269 2991 
Q 1406 3038 1543 3061 
Q 1681 3084 1819 3084 
Q 2600 3084 3056 2656 
Q 3513 2228 3513 1497 
Q 3513 744 3044 326 
Q 2575 -91 1722 -91 
Q 1428 -91 1123 -41 
Q 819 9 494 109 
L 494 744 
Q 775 591 1075 516 
Q 1375 441 1709 441 
Q 2250 441 2565 725 
Q 2881 1009 2881 1497 
Q 2881 1984 2565 2268 
Q 2250 2553 1709 2553 
Q 1456 2553 1204 2497 
Q 953 2441 691 2322 
L 691 4666 
z
" id="DejaVuSans-35" transform="scale(0.015625)"/>
     </defs>
     <use xlink:href="#DejaVuSans-62"/>
     <use x="63.476562" xlink:href="#DejaVuSans-62"/>
     <use x="126.953125" xlink:href="#DejaVuSans-6f"/>
     <use x="188.134766" xlink:href="#DejaVuSans-62"/>
     <use x="251.611328" xlink:href="#DejaVuSans-20"/>
     <use x="283.398438" xlink:href="#DejaVuSans-66"/>
     <use x="318.603516" xlink:href="#DejaVuSans-35"/>
     <use x="382.226562" xlink:href="#DejaVuSans-2c"/>
     <use x="414.013672" xlink:href="#DejaVuSans-20"/>
     <use x="445.800781" xlink:href="#DejaVuSans-32"/>
     <use x="509.423828" xlink:href="#DejaVuSans-30"/>
     <use x="573.046875" xlink:href="#DejaVuSans-2d"/>
     <use x="609.130859" xlink:href="#DejaVuSans-44"/>
    </g>
    <!-- 51 targets: 100..1e-08 -->
    <g transform="translate(60.41088 49.533135)scale(0.102 -0.102)">
     <defs>
      <path d="M 750 794 
L 1409 794 
L 1409 0 
L 750 0 
L 750 794 
z
M 750 3309 
L 1409 3309 
L 1409 2516 
L 750 2516 
L 750 3309 
z
" id="DejaVuSans-3a" transform="scale(0.015625)"/>
     </defs>
     <use xlink:href="#DejaVuSans-35"/>
     <use x="63.623047" xlink:href="#DejaVuSans-31"/>
     <use x="127.246094" xlink:href="#DejaVuSans-20"/>
     <use x="159.033203" xlink:href="#DejaVuSans-74"/>
     <use x="198.242188" xlink:href="#DejaVuSans-61"/>
     <use x="259.521484" xlink:href="#DejaVuSans-72"/>
     <use x="298.884766" xlink:href="#DejaVuSans-67"/>
     <use x="362.361328" xlink:href="#DejaVuSans-65"/>
     <use x="423.884766" xlink:href="#DejaVuSans-74"/>
     <use x="463.09375" xlink:href="#DejaVuSans-73"/>
     <use x="515.193359" xlink:href="#DejaVuSans-3a"/>
     <use x="548.884766" xlink:href="#DejaVuSans-20"/>
     <use x="580.671875" xlink:href="#DejaVuSans-31"/>
     <use x="644.294922" xlink:href="#DejaVuSans-30"/>
     <use x="707.917969" xlink:href="#DejaVuSans-30"/>
     <use x="771.541016" xlink:href="#DejaVuSans-2e"/>
     <use x="803.328125" xlink:href="#DejaVuSans-2e"/>
     <use x="835.115234" xlink:href="#DejaVuSans-31"/>
     <use x="898.738281" xlink:href="#DejaVuSans-65"/>
     <use x="960.261719" xlink:href="#DejaVuSans-2d"/>
     <use x="996.345703" xlink:href="#DejaVuSans-30"/>
     <use x="1059.96875" xlink:href="#DejaVuSans-38"/>
    </g>
    <!-- 15 instances -->
    <g transform="translate(60.41088 60.954904)scale(0.102 -0.102)">
     <use xlink:href="#DejaVuSans-31"/>
     <use x="63.623047" xlink:href="#DejaVuSans-35"/>
     <use x="127.246094" xlink:href="#DejaVuSans-20"/>
     <use x="159.033203" xlink:href="#DejaVuSans-69"/>
     <use x="186.816406" xlink:href="#DejaVuSans-6e"/>
     <use x="250.195312" xlink:href="#DejaVuSans-73"/>
     <use x="302.294922" xlink:href="#DejaVuSans-74"/>
     <use x="341.503906" xlink:href="#DejaVuSans-61"/>
     <use x="402.783203" xlink:href="#DejaVuSans-6e"/>
     <use x="466.162109" xlink:href="#DejaVuSans-63"/>
     <use x="521.142578" xlink:href="#DejaVuSans-65"/>
     <use x="582.666016" xlink:href="#DejaVuSans-73"/>
    </g>
   </g>
   <g id="text_22">
    <!-- v2.4 -->
    <g style="fill:#808080;" transform="translate(187.233062 294.151352)scale(0.1 -0.1)">
     <use xlink:href="#DejaVuSans-76"/>
     <use x="59.179688" xlink:href="#DejaVuSans-32"/>
     <use x="122.802734" xlink:href="#DejaVuSans-2e"/>
     <use x="154.589844" xlink:href="#DejaVuSans-34"/>
    </g>
   </g>
   <g id="text_23">
    <!-- 5 Linear slope -->
    <g transform="translate(127.73775 21.648)scale(0.2 -0.2)">
     <defs>
      <path d="M 628 4666 
L 1259 4666 
L 1259 531 
L 3531 531 
L 3531 0 
L 628 0 
L 628 4666 
z
" id="DejaVuSans-4c" transform="scale(0.015625)"/>
     </defs>
     <use xlink:href="#DejaVuSans-35"/>
     <use x="63.623047" xlink:href="#DejaVuSans-20"/>
     <use x="95.410156" xlink:href="#DejaVuSans-4c"/>
     <use x="151.123047" xlink:href="#DejaVuSans-69"/>
     <use x="178.90625" xlink:href="#DejaVuSans-6e"/>
     <use x="242.285156" xlink:href="#DejaVuSans-65"/>
     <use x="303.808594" xlink:href="#DejaVuSans-61"/>
     <use x="365.087891" xlink:href="#DejaVuSans-72"/>
     <use x="406.201172" xlink:href="#DejaVuSans-20"/>
     <use x="437.988281" xlink:href="#DejaVuSans-73"/>
     <use x="490.087891" xlink:href="#DejaVuSans-6c"/>
     <use x="517.871094" xlink:href="#DejaVuSans-6f"/>
     <use x="579.052734" xlink:href="#DejaVuSans-70"/>
     <use x="642.529297" xlink:href="#DejaVuSans-65"/>
    </g>
   </g>
  </g>
 </g>
 <defs>
  <clipPath id="pab587f5fbe">
   <rect height="271.296" width="281.088" x="57.6" y="27.648"/>
  </clipPath>
 </defs>
</svg>
