<?xml version="1.0" encoding="utf-8" standalone="no"?>
<!DOCTYPE svg PUBLIC "-//W3C//DTD SVG 1.1//EN"
  "http://www.w3.org/Graphics/SVG/1.1/DTD/svg11.dtd">
<svg height="345.6pt" version="1.1" viewBox="0 0 460.8 345.6" width="460.8pt" xmlns="http://www.w3.org/2000/svg" xmlns:xlink="http://www.w3.org/1999/xlink">
 <metadata>
  <rdf:RDF xmlns:cc="http://creativecommons.org/ns#" xmlns:dc="http://purl.org/dc/elements/1.1/" xmlns:rdf="http://www.w3.org/1999/02/22-rdf-syntax-ns#">
   <cc:Work>
    <dc:type rdf:resource="http://purl.org/dc/dcmitype/StillImage"/>
    <dc:date>2021-04-28T00:33:25.940296</dc:date>
    <dc:format>image/svg+xml</dc:format>
    <dc:creator>
     <cc:Agent>
      <dc:title>Matplotlib v3.4.1, https://matplotlib.org/</dc:title>
     </cc:Agent>
    </dc:creator>
   </cc:Work>
  </rdf:RDF>
 </metadata>
 <defs>
  <style type="text/css">*{stroke-linecap:butt;stroke-linejoin:round;}</style>
 </defs>
 <g id="figure_1">
  <g id="patch_1">
   <path d="M 0 345.6 
L 460.8 345.6 
L 460.8 0 
L 0 0 
z
" style="fill:#ffffff;"/>
  </g>
  <g id="axes_1">
   <g id="patch_2">
    <path d="M 57.6 298.944 
L 338.688 298.944 
L 338.688 27.648 
L 57.6 27.648 
z
" style="fill:#ffffff;"/>
   </g>
   <g id="line2d_1">
    <path d="M 76.759008 298.944 
L 76.759008 288.410278 
L 77.330839 288.410278 
L 77.330839 272.609696 
L 77.884514 272.609696 
L 77.884514 262.075974 
L 81.775977 262.075974 
L 81.775977 256.809114 
L 101.223245 256.809114 
L 101.223245 251.542253 
L 113.594805 251.542253 
L 113.594805 246.275392 
L 185.625679 246.275392 
L 185.625679 241.008531 
L 202.856936 241.008531 
L 202.856936 235.74167 
L 211.200413 235.74167 
L 211.200413 230.47481 
L 215.445672 230.47481 
L 215.445672 225.207949 
L 227.274191 225.207949 
L 227.274191 219.941088 
L 247.951549 219.941088 
L 247.951549 214.674227 
L 248.064189 214.674227 
L 248.064189 209.407366 
L 248.264217 209.407366 
L 248.264217 204.140506 
L 248.358886 204.140506 
L 248.358886 198.873645 
L 248.464348 198.873645 
L 248.464348 193.606784 
L 248.494156 193.606784 
L 248.494156 188.339923 
L 248.534037 188.339923 
L 248.534037 183.073062 
L 248.551446 183.073062 
L 248.551446 177.806202 
L 248.592143 177.806202 
L 248.592143 172.539341 
L 248.628934 172.539341 
L 248.628934 167.27248 
L 248.651093 167.27248 
L 248.651093 162.005619 
L 248.677269 162.005619 
L 248.677269 156.738758 
L 248.696238 156.738758 
L 248.696238 151.471897 
L 248.7191 151.471897 
L 248.7191 146.205037 
L 248.752596 146.205037 
L 248.752596 140.938176 
L 248.770424 140.938176 
L 248.770424 135.671315 
L 248.801164 135.671315 
L 248.801164 130.404454 
L 248.832182 130.404454 
L 248.832182 125.137593 
L 248.853482 125.137593 
L 248.853482 119.870733 
L 248.873734 119.870733 
L 248.873734 114.603872 
L 248.906454 114.603872 
L 248.906454 109.337011 
L 248.929702 109.337011 
L 248.929702 104.07015 
L 248.948099 104.07015 
L 248.948099 98.803289 
L 248.97497 98.803289 
L 248.97497 93.536429 
L 249.002337 93.536429 
L 249.002337 88.269568 
L 249.036009 88.269568 
L 249.036009 83.002707 
L 249.056377 83.002707 
L 249.056377 77.735846 
L 249.078594 77.735846 
L 249.078594 72.468985 
L 249.109864 72.468985 
L 249.109864 67.202125 
L 249.123655 67.202125 
L 249.123655 61.935264 
L 249.153572 61.935264 
L 249.153572 56.668403 
L 249.175312 56.668403 
L 249.175312 51.401542 
L 249.202337 51.401542 
L 249.202337 46.134681 
L 249.223779 46.134681 
L 249.223779 40.867821 
L 249.24549 40.867821 
L 249.24549 35.60096 
L 249.26685 35.60096 
L 249.26685 30.334099 
L 338.688 30.334099 
" style="fill:none;stroke:#f5deb3;stroke-linecap:square;stroke-width:4;"/>
   </g>
   <g id="line2d_2">
    <defs>
     <path d="M 0 7.778175 
L 7.778175 0 
L 0 -7.778175 
L -7.778175 0 
z
" id="mef8160b495" style="stroke:#f5deb3;stroke-linejoin:miter;stroke-width:1.5;"/>
    </defs>
    <g>
     <use style="fill:#f5deb3;stroke:#f5deb3;stroke-linejoin:miter;stroke-width:1.5;" x="113.594805" xlink:href="#mef8160b495" y="246.275392"/>
     <use style="fill:#f5deb3;stroke:#f5deb3;stroke-linejoin:miter;stroke-width:1.5;" x="248.592143" xlink:href="#mef8160b495" y="177.806202"/>
     <use style="fill:#f5deb3;stroke:#f5deb3;stroke-linejoin:miter;stroke-width:1.5;" x="249.26685" xlink:href="#mef8160b495" y="35.60096"/>
     <use style="fill:#f5deb3;stroke:#f5deb3;stroke-linejoin:miter;stroke-width:1.5;" x="249.26685" xlink:href="#mef8160b495" y="30.334099"/>
     <use style="fill:#f5deb3;stroke:#f5deb3;stroke-linejoin:miter;stroke-width:1.5;" x="338.688" xlink:href="#mef8160b495" y="30.334099"/>
    </g>
   </g>
   <g id="line2d_3">
    <path style="fill:none;stroke:#f5deb3;stroke-linecap:square;stroke-width:4;"/>
    <g/>
   </g>
   <g id="line2d_4">
    <path d="M 338.688 30.334099 
L 369.60768 35.706297 
" style="fill:none;stroke:#f5deb3;stroke-linecap:square;stroke-width:4;"/>
    <g>
     <use style="fill:#f5deb3;stroke:#f5deb3;stroke-linejoin:miter;stroke-width:1.5;" x="338.688" xlink:href="#mef8160b495" y="30.334099"/>
     <use style="fill:#f5deb3;stroke:#f5deb3;stroke-linejoin:miter;stroke-width:1.5;" x="369.60768" xlink:href="#mef8160b495" y="35.706297"/>
    </g>
   </g>
   <g id="matplotlib.axis_1">
    <g id="xtick_1">
     <g id="line2d_5">
      <path clip-path="url(#pb5473229d5)" d="M 57.6 298.944 
L 57.6 27.648 
" style="fill:none;stroke:#b0b0b0;stroke-linecap:square;stroke-width:0.8;"/>
     </g>
     <g id="line2d_6">
      <defs>
       <path d="M 0 0 
L 0 3.5 
" id="m6ba4d3cb8f" style="stroke:#000000;stroke-width:0.8;"/>
      </defs>
      <g>
       <use style="stroke:#000000;stroke-width:0.8;" x="57.6" xlink:href="#m6ba4d3cb8f" y="298.944"/>
      </g>
     </g>
     <g id="text_1">
      <!-- 0 -->
      <g transform="translate(51.2375 321.140875)scale(0.2 -0.2)">
       <defs>
        <path d="M 2034 4250 
Q 1547 4250 1301 3770 
Q 1056 3291 1056 2328 
Q 1056 1369 1301 889 
Q 1547 409 2034 409 
Q 2525 409 2770 889 
Q 3016 1369 3016 2328 
Q 3016 3291 2770 3770 
Q 2525 4250 2034 4250 
z
M 2034 4750 
Q 2819 4750 3233 4129 
Q 3647 3509 3647 2328 
Q 3647 1150 3233 529 
Q 2819 -91 2034 -91 
Q 1250 -91 836 529 
Q 422 1150 422 2328 
Q 422 3509 836 4129 
Q 1250 4750 2034 4750 
z
" id="DejaVuSans-30" transform="scale(0.015625)"/>
       </defs>
       <use xlink:href="#DejaVuSans-30"/>
      </g>
     </g>
    </g>
    <g id="xtick_2">
     <g id="line2d_7">
      <path clip-path="url(#pb5473229d5)" d="M 137.910857 298.944 
L 137.910857 27.648 
" style="fill:none;stroke:#b0b0b0;stroke-linecap:square;stroke-width:0.8;"/>
     </g>
     <g id="line2d_8">
      <g>
       <use style="stroke:#000000;stroke-width:0.8;" x="137.910857" xlink:href="#m6ba4d3cb8f" y="298.944"/>
      </g>
     </g>
     <g id="text_2">
      <!-- 2 -->
      <g transform="translate(131.548357 321.140875)scale(0.2 -0.2)">
       <defs>
        <path d="M 1228 531 
L 3431 531 
L 3431 0 
L 469 0 
L 469 531 
Q 828 903 1448 1529 
Q 2069 2156 2228 2338 
Q 2531 2678 2651 2914 
Q 2772 3150 2772 3378 
Q 2772 3750 2511 3984 
Q 2250 4219 1831 4219 
Q 1534 4219 1204 4116 
Q 875 4013 500 3803 
L 500 4441 
Q 881 4594 1212 4672 
Q 1544 4750 1819 4750 
Q 2544 4750 2975 4387 
Q 3406 4025 3406 3419 
Q 3406 3131 3298 2873 
Q 3191 2616 2906 2266 
Q 2828 2175 2409 1742 
Q 1991 1309 1228 531 
z
" id="DejaVuSans-32" transform="scale(0.015625)"/>
       </defs>
       <use xlink:href="#DejaVuSans-32"/>
      </g>
     </g>
    </g>
    <g id="xtick_3">
     <g id="line2d_9">
      <path clip-path="url(#pb5473229d5)" d="M 218.221714 298.944 
L 218.221714 27.648 
" style="fill:none;stroke:#b0b0b0;stroke-linecap:square;stroke-width:0.8;"/>
     </g>
     <g id="line2d_10">
      <g>
       <use style="stroke:#000000;stroke-width:0.8;" x="218.221714" xlink:href="#m6ba4d3cb8f" y="298.944"/>
      </g>
     </g>
     <g id="text_3">
      <!-- 4 -->
      <g transform="translate(211.859214 321.140875)scale(0.2 -0.2)">
       <defs>
        <path d="M 2419 4116 
L 825 1625 
L 2419 1625 
L 2419 4116 
z
M 2253 4666 
L 3047 4666 
L 3047 1625 
L 3713 1625 
L 3713 1100 
L 3047 1100 
L 3047 0 
L 2419 0 
L 2419 1100 
L 313 1100 
L 313 1709 
L 2253 4666 
z
" id="DejaVuSans-34" transform="scale(0.015625)"/>
       </defs>
       <use xlink:href="#DejaVuSans-34"/>
      </g>
     </g>
    </g>
    <g id="xtick_4">
     <g id="line2d_11">
      <path clip-path="url(#pb5473229d5)" d="M 298.532571 298.944 
L 298.532571 27.648 
" style="fill:none;stroke:#b0b0b0;stroke-linecap:square;stroke-width:0.8;"/>
     </g>
     <g id="line2d_12">
      <g>
       <use style="stroke:#000000;stroke-width:0.8;" x="298.532571" xlink:href="#m6ba4d3cb8f" y="298.944"/>
      </g>
     </g>
     <g id="text_4">
      <!-- 6 -->
      <g transform="translate(292.170071 321.140875)scale(0.2 -0.2)">
       <defs>
        <path d="M 2113 2584 
Q 1688 2584 1439 2293 
Q 1191 2003 1191 1497 
Q 1191 994 1439 701 
Q 1688 409 2113 409 
Q 2538 409 2786 701 
Q 3034 994 3034 1497 
Q 3034 2003 2786 2293 
Q 2538 2584 2113 2584 
z
M 3366 4563 
L 3366 3988 
Q 3128 4100 2886 4159 
Q 2644 4219 2406 4219 
Q 1781 4219 1451 3797 
Q 1122 3375 1075 2522 
Q 1259 2794 1537 2939 
Q 1816 3084 2150 3084 
Q 2853 3084 3261 2657 
Q 3669 2231 3669 1497 
Q 3669 778 3244 343 
Q 2819 -91 2113 -91 
Q 1303 -91 875 529 
Q 447 1150 447 2328 
Q 447 3434 972 4092 
Q 1497 4750 2381 4750 
Q 2619 4750 2861 4703 
Q 3103 4656 3366 4563 
z
" id="DejaVuSans-36" transform="scale(0.015625)"/>
       </defs>
       <use xlink:href="#DejaVuSans-36"/>
      </g>
     </g>
    </g>
    <g id="xtick_5">
     <g id="line2d_13">
      <path clip-path="url(#pb5473229d5)" d="M 97.755429 298.944 
L 97.755429 27.648 
" style="fill:none;stroke:#b0b0b0;stroke-linecap:square;stroke-width:0.8;"/>
     </g>
     <g id="line2d_14">
      <defs>
       <path d="M 0 0 
L 0 2 
" id="m0e1690d5d2" style="stroke:#000000;stroke-width:0.6;"/>
      </defs>
      <g>
       <use style="stroke:#000000;stroke-width:0.6;" x="97.755429" xlink:href="#m0e1690d5d2" y="298.944"/>
      </g>
     </g>
    </g>
    <g id="xtick_6">
     <g id="line2d_15">
      <path clip-path="url(#pb5473229d5)" d="M 178.066286 298.944 
L 178.066286 27.648 
" style="fill:none;stroke:#b0b0b0;stroke-linecap:square;stroke-width:0.8;"/>
     </g>
     <g id="line2d_16">
      <g>
       <use style="stroke:#000000;stroke-width:0.6;" x="178.066286" xlink:href="#m0e1690d5d2" y="298.944"/>
      </g>
     </g>
    </g>
    <g id="xtick_7">
     <g id="line2d_17">
      <path clip-path="url(#pb5473229d5)" d="M 258.377143 298.944 
L 258.377143 27.648 
" style="fill:none;stroke:#b0b0b0;stroke-linecap:square;stroke-width:0.8;"/>
     </g>
     <g id="line2d_18">
      <g>
       <use style="stroke:#000000;stroke-width:0.6;" x="258.377143" xlink:href="#m0e1690d5d2" y="298.944"/>
      </g>
     </g>
    </g>
    <g id="xtick_8">
     <g id="line2d_19">
      <path clip-path="url(#pb5473229d5)" d="M 338.688 298.944 
L 338.688 27.648 
" style="fill:none;stroke:#b0b0b0;stroke-linecap:square;stroke-width:0.8;"/>
     </g>
     <g id="line2d_20">
      <g>
       <use style="stroke:#000000;stroke-width:0.6;" x="338.688" xlink:href="#m0e1690d5d2" y="298.944"/>
      </g>
     </g>
    </g>
    <g id="text_5">
     <!-- log10(# f-evals / dimension) -->
     <g transform="translate(77.764078 342.217594)scale(0.17 -0.17)">
      <defs>
       <path d="M 603 4863 
L 1178 4863 
L 1178 0 
L 603 0 
L 603 4863 
z
" id="DejaVuSans-6c" transform="scale(0.015625)"/>
       <path d="M 1959 3097 
Q 1497 3097 1228 2736 
Q 959 2375 959 1747 
Q 959 1119 1226 758 
Q 1494 397 1959 397 
Q 2419 397 2687 759 
Q 2956 1122 2956 1747 
Q 2956 2369 2687 2733 
Q 2419 3097 1959 3097 
z
M 1959 3584 
Q 2709 3584 3137 3096 
Q 3566 2609 3566 1747 
Q 3566 888 3137 398 
Q 2709 -91 1959 -91 
Q 1206 -91 779 398 
Q 353 888 353 1747 
Q 353 2609 779 3096 
Q 1206 3584 1959 3584 
z
" id="DejaVuSans-6f" transform="scale(0.015625)"/>
       <path d="M 2906 1791 
Q 2906 2416 2648 2759 
Q 2391 3103 1925 3103 
Q 1463 3103 1205 2759 
Q 947 2416 947 1791 
Q 947 1169 1205 825 
Q 1463 481 1925 481 
Q 2391 481 2648 825 
Q 2906 1169 2906 1791 
z
M 3481 434 
Q 3481 -459 3084 -895 
Q 2688 -1331 1869 -1331 
Q 1566 -1331 1297 -1286 
Q 1028 -1241 775 -1147 
L 775 -588 
Q 1028 -725 1275 -790 
Q 1522 -856 1778 -856 
Q 2344 -856 2625 -561 
Q 2906 -266 2906 331 
L 2906 616 
Q 2728 306 2450 153 
Q 2172 0 1784 0 
Q 1141 0 747 490 
Q 353 981 353 1791 
Q 353 2603 747 3093 
Q 1141 3584 1784 3584 
Q 2172 3584 2450 3431 
Q 2728 3278 2906 2969 
L 2906 3500 
L 3481 3500 
L 3481 434 
z
" id="DejaVuSans-67" transform="scale(0.015625)"/>
       <path d="M 794 531 
L 1825 531 
L 1825 4091 
L 703 3866 
L 703 4441 
L 1819 4666 
L 2450 4666 
L 2450 531 
L 3481 531 
L 3481 0 
L 794 0 
L 794 531 
z
" id="DejaVuSans-31" transform="scale(0.015625)"/>
       <path d="M 1984 4856 
Q 1566 4138 1362 3434 
Q 1159 2731 1159 2009 
Q 1159 1288 1364 580 
Q 1569 -128 1984 -844 
L 1484 -844 
Q 1016 -109 783 600 
Q 550 1309 550 2009 
Q 550 2706 781 3412 
Q 1013 4119 1484 4856 
L 1984 4856 
z
" id="DejaVuSans-28" transform="scale(0.015625)"/>
       <path d="M 3272 2816 
L 2363 2816 
L 2100 1772 
L 3016 1772 
L 3272 2816 
z
M 2803 4594 
L 2478 3297 
L 3391 3297 
L 3719 4594 
L 4219 4594 
L 3897 3297 
L 4872 3297 
L 4872 2816 
L 3775 2816 
L 3519 1772 
L 4513 1772 
L 4513 1294 
L 3397 1294 
L 3072 0 
L 2572 0 
L 2894 1294 
L 1978 1294 
L 1656 0 
L 1153 0 
L 1478 1294 
L 494 1294 
L 494 1772 
L 1594 1772 
L 1856 2816 
L 850 2816 
L 850 3297 
L 1978 3297 
L 2297 4594 
L 2803 4594 
z
" id="DejaVuSans-23" transform="scale(0.015625)"/>
       <path id="DejaVuSans-20" transform="scale(0.015625)"/>
       <path d="M 2375 4863 
L 2375 4384 
L 1825 4384 
Q 1516 4384 1395 4259 
Q 1275 4134 1275 3809 
L 1275 3500 
L 2222 3500 
L 2222 3053 
L 1275 3053 
L 1275 0 
L 697 0 
L 697 3053 
L 147 3053 
L 147 3500 
L 697 3500 
L 697 3744 
Q 697 4328 969 4595 
Q 1241 4863 1831 4863 
L 2375 4863 
z
" id="DejaVuSans-66" transform="scale(0.015625)"/>
       <path d="M 313 2009 
L 1997 2009 
L 1997 1497 
L 313 1497 
L 313 2009 
z
" id="DejaVuSans-2d" transform="scale(0.015625)"/>
       <path d="M 3597 1894 
L 3597 1613 
L 953 1613 
Q 991 1019 1311 708 
Q 1631 397 2203 397 
Q 2534 397 2845 478 
Q 3156 559 3463 722 
L 3463 178 
Q 3153 47 2828 -22 
Q 2503 -91 2169 -91 
Q 1331 -91 842 396 
Q 353 884 353 1716 
Q 353 2575 817 3079 
Q 1281 3584 2069 3584 
Q 2775 3584 3186 3129 
Q 3597 2675 3597 1894 
z
M 3022 2063 
Q 3016 2534 2758 2815 
Q 2500 3097 2075 3097 
Q 1594 3097 1305 2825 
Q 1016 2553 972 2059 
L 3022 2063 
z
" id="DejaVuSans-65" transform="scale(0.015625)"/>
       <path d="M 191 3500 
L 800 3500 
L 1894 563 
L 2988 3500 
L 3597 3500 
L 2284 0 
L 1503 0 
L 191 3500 
z
" id="DejaVuSans-76" transform="scale(0.015625)"/>
       <path d="M 2194 1759 
Q 1497 1759 1228 1600 
Q 959 1441 959 1056 
Q 959 750 1161 570 
Q 1363 391 1709 391 
Q 2188 391 2477 730 
Q 2766 1069 2766 1631 
L 2766 1759 
L 2194 1759 
z
M 3341 1997 
L 3341 0 
L 2766 0 
L 2766 531 
Q 2569 213 2275 61 
Q 1981 -91 1556 -91 
Q 1019 -91 701 211 
Q 384 513 384 1019 
Q 384 1609 779 1909 
Q 1175 2209 1959 2209 
L 2766 2209 
L 2766 2266 
Q 2766 2663 2505 2880 
Q 2244 3097 1772 3097 
Q 1472 3097 1187 3025 
Q 903 2953 641 2809 
L 641 3341 
Q 956 3463 1253 3523 
Q 1550 3584 1831 3584 
Q 2591 3584 2966 3190 
Q 3341 2797 3341 1997 
z
" id="DejaVuSans-61" transform="scale(0.015625)"/>
       <path d="M 2834 3397 
L 2834 2853 
Q 2591 2978 2328 3040 
Q 2066 3103 1784 3103 
Q 1356 3103 1142 2972 
Q 928 2841 928 2578 
Q 928 2378 1081 2264 
Q 1234 2150 1697 2047 
L 1894 2003 
Q 2506 1872 2764 1633 
Q 3022 1394 3022 966 
Q 3022 478 2636 193 
Q 2250 -91 1575 -91 
Q 1294 -91 989 -36 
Q 684 19 347 128 
L 347 722 
Q 666 556 975 473 
Q 1284 391 1588 391 
Q 1994 391 2212 530 
Q 2431 669 2431 922 
Q 2431 1156 2273 1281 
Q 2116 1406 1581 1522 
L 1381 1569 
Q 847 1681 609 1914 
Q 372 2147 372 2553 
Q 372 3047 722 3315 
Q 1072 3584 1716 3584 
Q 2034 3584 2315 3537 
Q 2597 3491 2834 3397 
z
" id="DejaVuSans-73" transform="scale(0.015625)"/>
       <path d="M 1625 4666 
L 2156 4666 
L 531 -594 
L 0 -594 
L 1625 4666 
z
" id="DejaVuSans-2f" transform="scale(0.015625)"/>
       <path d="M 2906 2969 
L 2906 4863 
L 3481 4863 
L 3481 0 
L 2906 0 
L 2906 525 
Q 2725 213 2448 61 
Q 2172 -91 1784 -91 
Q 1150 -91 751 415 
Q 353 922 353 1747 
Q 353 2572 751 3078 
Q 1150 3584 1784 3584 
Q 2172 3584 2448 3432 
Q 2725 3281 2906 2969 
z
M 947 1747 
Q 947 1113 1208 752 
Q 1469 391 1925 391 
Q 2381 391 2643 752 
Q 2906 1113 2906 1747 
Q 2906 2381 2643 2742 
Q 2381 3103 1925 3103 
Q 1469 3103 1208 2742 
Q 947 2381 947 1747 
z
" id="DejaVuSans-64" transform="scale(0.015625)"/>
       <path d="M 603 3500 
L 1178 3500 
L 1178 0 
L 603 0 
L 603 3500 
z
M 603 4863 
L 1178 4863 
L 1178 4134 
L 603 4134 
L 603 4863 
z
" id="DejaVuSans-69" transform="scale(0.015625)"/>
       <path d="M 3328 2828 
Q 3544 3216 3844 3400 
Q 4144 3584 4550 3584 
Q 5097 3584 5394 3201 
Q 5691 2819 5691 2113 
L 5691 0 
L 5113 0 
L 5113 2094 
Q 5113 2597 4934 2840 
Q 4756 3084 4391 3084 
Q 3944 3084 3684 2787 
Q 3425 2491 3425 1978 
L 3425 0 
L 2847 0 
L 2847 2094 
Q 2847 2600 2669 2842 
Q 2491 3084 2119 3084 
Q 1678 3084 1418 2786 
Q 1159 2488 1159 1978 
L 1159 0 
L 581 0 
L 581 3500 
L 1159 3500 
L 1159 2956 
Q 1356 3278 1631 3431 
Q 1906 3584 2284 3584 
Q 2666 3584 2933 3390 
Q 3200 3197 3328 2828 
z
" id="DejaVuSans-6d" transform="scale(0.015625)"/>
       <path d="M 3513 2113 
L 3513 0 
L 2938 0 
L 2938 2094 
Q 2938 2591 2744 2837 
Q 2550 3084 2163 3084 
Q 1697 3084 1428 2787 
Q 1159 2491 1159 1978 
L 1159 0 
L 581 0 
L 581 3500 
L 1159 3500 
L 1159 2956 
Q 1366 3272 1645 3428 
Q 1925 3584 2291 3584 
Q 2894 3584 3203 3211 
Q 3513 2838 3513 2113 
z
" id="DejaVuSans-6e" transform="scale(0.015625)"/>
       <path d="M 513 4856 
L 1013 4856 
Q 1481 4119 1714 3412 
Q 1947 2706 1947 2009 
Q 1947 1309 1714 600 
Q 1481 -109 1013 -844 
L 513 -844 
Q 928 -128 1133 580 
Q 1338 1288 1338 2009 
Q 1338 2731 1133 3434 
Q 928 4138 513 4856 
z
" id="DejaVuSans-29" transform="scale(0.015625)"/>
      </defs>
      <use xlink:href="#DejaVuSans-6c"/>
      <use x="27.783203" xlink:href="#DejaVuSans-6f"/>
      <use x="88.964844" xlink:href="#DejaVuSans-67"/>
      <use x="152.441406" xlink:href="#DejaVuSans-31"/>
      <use x="216.064453" xlink:href="#DejaVuSans-30"/>
      <use x="279.6875" xlink:href="#DejaVuSans-28"/>
      <use x="318.701172" xlink:href="#DejaVuSans-23"/>
      <use x="402.490234" xlink:href="#DejaVuSans-20"/>
      <use x="434.277344" xlink:href="#DejaVuSans-66"/>
      <use x="463.982422" xlink:href="#DejaVuSans-2d"/>
      <use x="500.066406" xlink:href="#DejaVuSans-65"/>
      <use x="561.589844" xlink:href="#DejaVuSans-76"/>
      <use x="620.769531" xlink:href="#DejaVuSans-61"/>
      <use x="682.048828" xlink:href="#DejaVuSans-6c"/>
      <use x="709.832031" xlink:href="#DejaVuSans-73"/>
      <use x="761.931641" xlink:href="#DejaVuSans-20"/>
      <use x="793.71875" xlink:href="#DejaVuSans-2f"/>
      <use x="827.410156" xlink:href="#DejaVuSans-20"/>
      <use x="859.197266" xlink:href="#DejaVuSans-64"/>
      <use x="922.673828" xlink:href="#DejaVuSans-69"/>
      <use x="950.457031" xlink:href="#DejaVuSans-6d"/>
      <use x="1047.869141" xlink:href="#DejaVuSans-65"/>
      <use x="1109.392578" xlink:href="#DejaVuSans-6e"/>
      <use x="1172.771484" xlink:href="#DejaVuSans-73"/>
      <use x="1224.871094" xlink:href="#DejaVuSans-69"/>
      <use x="1252.654297" xlink:href="#DejaVuSans-6f"/>
      <use x="1313.835938" xlink:href="#DejaVuSans-6e"/>
      <use x="1377.214844" xlink:href="#DejaVuSans-29"/>
     </g>
    </g>
   </g>
   <g id="matplotlib.axis_2">
    <g id="ytick_1">
     <g id="line2d_21">
      <path clip-path="url(#pb5473229d5)" d="M 57.6 298.944 
L 338.688 298.944 
" style="fill:none;stroke:#b0b0b0;stroke-linecap:square;stroke-width:0.8;"/>
     </g>
     <g id="line2d_22">
      <defs>
       <path d="M 0 0 
L -3.5 0 
" id="m7d0dd8c051" style="stroke:#000000;stroke-width:0.8;"/>
      </defs>
      <g>
       <use style="stroke:#000000;stroke-width:0.8;" x="57.6" xlink:href="#m7d0dd8c051" y="298.944"/>
      </g>
     </g>
     <g id="text_6">
      <!-- 0.0 -->
      <g transform="translate(25.155 305.02275)scale(0.16 -0.16)">
       <defs>
        <path d="M 684 794 
L 1344 794 
L 1344 0 
L 684 0 
L 684 794 
z
" id="DejaVuSans-2e" transform="scale(0.015625)"/>
       </defs>
       <use xlink:href="#DejaVuSans-30"/>
       <use x="63.623047" xlink:href="#DejaVuSans-2e"/>
       <use x="95.410156" xlink:href="#DejaVuSans-30"/>
      </g>
     </g>
    </g>
    <g id="ytick_2">
     <g id="line2d_23">
      <path clip-path="url(#pb5473229d5)" d="M 57.6 245.22202 
L 338.688 245.22202 
" style="fill:none;stroke:#b0b0b0;stroke-linecap:square;stroke-width:0.8;"/>
     </g>
     <g id="line2d_24">
      <g>
       <use style="stroke:#000000;stroke-width:0.8;" x="57.6" xlink:href="#m7d0dd8c051" y="245.22202"/>
      </g>
     </g>
     <g id="text_7">
      <!-- 0.2 -->
      <g transform="translate(25.155 251.30077)scale(0.16 -0.16)">
       <use xlink:href="#DejaVuSans-30"/>
       <use x="63.623047" xlink:href="#DejaVuSans-2e"/>
       <use x="95.410156" xlink:href="#DejaVuSans-32"/>
      </g>
     </g>
    </g>
    <g id="ytick_3">
     <g id="line2d_25">
      <path clip-path="url(#pb5473229d5)" d="M 57.6 191.50004 
L 338.688 191.50004 
" style="fill:none;stroke:#b0b0b0;stroke-linecap:square;stroke-width:0.8;"/>
     </g>
     <g id="line2d_26">
      <g>
       <use style="stroke:#000000;stroke-width:0.8;" x="57.6" xlink:href="#m7d0dd8c051" y="191.50004"/>
      </g>
     </g>
     <g id="text_8">
      <!-- 0.4 -->
      <g transform="translate(25.155 197.57879)scale(0.16 -0.16)">
       <use xlink:href="#DejaVuSans-30"/>
       <use x="63.623047" xlink:href="#DejaVuSans-2e"/>
       <use x="95.410156" xlink:href="#DejaVuSans-34"/>
      </g>
     </g>
    </g>
    <g id="ytick_4">
     <g id="line2d_27">
      <path clip-path="url(#pb5473229d5)" d="M 57.6 137.778059 
L 338.688 137.778059 
" style="fill:none;stroke:#b0b0b0;stroke-linecap:square;stroke-width:0.8;"/>
     </g>
     <g id="line2d_28">
      <g>
       <use style="stroke:#000000;stroke-width:0.8;" x="57.6" xlink:href="#m7d0dd8c051" y="137.778059"/>
      </g>
     </g>
     <g id="text_9">
      <!-- 0.6 -->
      <g transform="translate(25.155 143.856809)scale(0.16 -0.16)">
       <use xlink:href="#DejaVuSans-30"/>
       <use x="63.623047" xlink:href="#DejaVuSans-2e"/>
       <use x="95.410156" xlink:href="#DejaVuSans-36"/>
      </g>
     </g>
    </g>
    <g id="ytick_5">
     <g id="line2d_29">
      <path clip-path="url(#pb5473229d5)" d="M 57.6 84.056079 
L 338.688 84.056079 
" style="fill:none;stroke:#b0b0b0;stroke-linecap:square;stroke-width:0.8;"/>
     </g>
     <g id="line2d_30">
      <g>
       <use style="stroke:#000000;stroke-width:0.8;" x="57.6" xlink:href="#m7d0dd8c051" y="84.056079"/>
      </g>
     </g>
     <g id="text_10">
      <!-- 0.8 -->
      <g transform="translate(25.155 90.134829)scale(0.16 -0.16)">
       <defs>
        <path d="M 2034 2216 
Q 1584 2216 1326 1975 
Q 1069 1734 1069 1313 
Q 1069 891 1326 650 
Q 1584 409 2034 409 
Q 2484 409 2743 651 
Q 3003 894 3003 1313 
Q 3003 1734 2745 1975 
Q 2488 2216 2034 2216 
z
M 1403 2484 
Q 997 2584 770 2862 
Q 544 3141 544 3541 
Q 544 4100 942 4425 
Q 1341 4750 2034 4750 
Q 2731 4750 3128 4425 
Q 3525 4100 3525 3541 
Q 3525 3141 3298 2862 
Q 3072 2584 2669 2484 
Q 3125 2378 3379 2068 
Q 3634 1759 3634 1313 
Q 3634 634 3220 271 
Q 2806 -91 2034 -91 
Q 1263 -91 848 271 
Q 434 634 434 1313 
Q 434 1759 690 2068 
Q 947 2378 1403 2484 
z
M 1172 3481 
Q 1172 3119 1398 2916 
Q 1625 2713 2034 2713 
Q 2441 2713 2670 2916 
Q 2900 3119 2900 3481 
Q 2900 3844 2670 4047 
Q 2441 4250 2034 4250 
Q 1625 4250 1398 4047 
Q 1172 3844 1172 3481 
z
" id="DejaVuSans-38" transform="scale(0.015625)"/>
       </defs>
       <use xlink:href="#DejaVuSans-30"/>
       <use x="63.623047" xlink:href="#DejaVuSans-2e"/>
       <use x="95.410156" xlink:href="#DejaVuSans-38"/>
      </g>
     </g>
    </g>
    <g id="ytick_6">
     <g id="line2d_31">
      <path clip-path="url(#pb5473229d5)" d="M 57.6 30.334099 
L 338.688 30.334099 
" style="fill:none;stroke:#b0b0b0;stroke-linecap:square;stroke-width:0.8;"/>
     </g>
     <g id="line2d_32">
      <g>
       <use style="stroke:#000000;stroke-width:0.8;" x="57.6" xlink:href="#m7d0dd8c051" y="30.334099"/>
      </g>
     </g>
     <g id="text_11">
      <!-- 1.0 -->
      <g transform="translate(25.155 36.412849)scale(0.16 -0.16)">
       <use xlink:href="#DejaVuSans-31"/>
       <use x="63.623047" xlink:href="#DejaVuSans-2e"/>
       <use x="95.410156" xlink:href="#DejaVuSans-30"/>
      </g>
     </g>
    </g>
    <g id="text_12">
     <!-- Fraction of function,target pairs -->
     <g transform="translate(17.619531 297.681)rotate(-90)scale(0.17 -0.17)">
      <defs>
       <path d="M 628 4666 
L 3309 4666 
L 3309 4134 
L 1259 4134 
L 1259 2759 
L 3109 2759 
L 3109 2228 
L 1259 2228 
L 1259 0 
L 628 0 
L 628 4666 
z
" id="DejaVuSans-46" transform="scale(0.015625)"/>
       <path d="M 2631 2963 
Q 2534 3019 2420 3045 
Q 2306 3072 2169 3072 
Q 1681 3072 1420 2755 
Q 1159 2438 1159 1844 
L 1159 0 
L 581 0 
L 581 3500 
L 1159 3500 
L 1159 2956 
Q 1341 3275 1631 3429 
Q 1922 3584 2338 3584 
Q 2397 3584 2469 3576 
Q 2541 3569 2628 3553 
L 2631 2963 
z
" id="DejaVuSans-72" transform="scale(0.015625)"/>
       <path d="M 3122 3366 
L 3122 2828 
Q 2878 2963 2633 3030 
Q 2388 3097 2138 3097 
Q 1578 3097 1268 2742 
Q 959 2388 959 1747 
Q 959 1106 1268 751 
Q 1578 397 2138 397 
Q 2388 397 2633 464 
Q 2878 531 3122 666 
L 3122 134 
Q 2881 22 2623 -34 
Q 2366 -91 2075 -91 
Q 1284 -91 818 406 
Q 353 903 353 1747 
Q 353 2603 823 3093 
Q 1294 3584 2113 3584 
Q 2378 3584 2631 3529 
Q 2884 3475 3122 3366 
z
" id="DejaVuSans-63" transform="scale(0.015625)"/>
       <path d="M 1172 4494 
L 1172 3500 
L 2356 3500 
L 2356 3053 
L 1172 3053 
L 1172 1153 
Q 1172 725 1289 603 
Q 1406 481 1766 481 
L 2356 481 
L 2356 0 
L 1766 0 
Q 1100 0 847 248 
Q 594 497 594 1153 
L 594 3053 
L 172 3053 
L 172 3500 
L 594 3500 
L 594 4494 
L 1172 4494 
z
" id="DejaVuSans-74" transform="scale(0.015625)"/>
       <path d="M 544 1381 
L 544 3500 
L 1119 3500 
L 1119 1403 
Q 1119 906 1312 657 
Q 1506 409 1894 409 
Q 2359 409 2629 706 
Q 2900 1003 2900 1516 
L 2900 3500 
L 3475 3500 
L 3475 0 
L 2900 0 
L 2900 538 
Q 2691 219 2414 64 
Q 2138 -91 1772 -91 
Q 1169 -91 856 284 
Q 544 659 544 1381 
z
M 1991 3584 
L 1991 3584 
z
" id="DejaVuSans-75" transform="scale(0.015625)"/>
       <path d="M 750 794 
L 1409 794 
L 1409 256 
L 897 -744 
L 494 -744 
L 750 256 
L 750 794 
z
" id="DejaVuSans-2c" transform="scale(0.015625)"/>
       <path d="M 1159 525 
L 1159 -1331 
L 581 -1331 
L 581 3500 
L 1159 3500 
L 1159 2969 
Q 1341 3281 1617 3432 
Q 1894 3584 2278 3584 
Q 2916 3584 3314 3078 
Q 3713 2572 3713 1747 
Q 3713 922 3314 415 
Q 2916 -91 2278 -91 
Q 1894 -91 1617 61 
Q 1341 213 1159 525 
z
M 3116 1747 
Q 3116 2381 2855 2742 
Q 2594 3103 2138 3103 
Q 1681 3103 1420 2742 
Q 1159 2381 1159 1747 
Q 1159 1113 1420 752 
Q 1681 391 2138 391 
Q 2594 391 2855 752 
Q 3116 1113 3116 1747 
z
" id="DejaVuSans-70" transform="scale(0.015625)"/>
      </defs>
      <use xlink:href="#DejaVuSans-46"/>
      <use x="50.269531" xlink:href="#DejaVuSans-72"/>
      <use x="91.382812" xlink:href="#DejaVuSans-61"/>
      <use x="152.662109" xlink:href="#DejaVuSans-63"/>
      <use x="207.642578" xlink:href="#DejaVuSans-74"/>
      <use x="246.851562" xlink:href="#DejaVuSans-69"/>
      <use x="274.634766" xlink:href="#DejaVuSans-6f"/>
      <use x="335.816406" xlink:href="#DejaVuSans-6e"/>
      <use x="399.195312" xlink:href="#DejaVuSans-20"/>
      <use x="430.982422" xlink:href="#DejaVuSans-6f"/>
      <use x="492.164062" xlink:href="#DejaVuSans-66"/>
      <use x="527.369141" xlink:href="#DejaVuSans-20"/>
      <use x="559.15625" xlink:href="#DejaVuSans-66"/>
      <use x="594.361328" xlink:href="#DejaVuSans-75"/>
      <use x="657.740234" xlink:href="#DejaVuSans-6e"/>
      <use x="721.119141" xlink:href="#DejaVuSans-63"/>
      <use x="776.099609" xlink:href="#DejaVuSans-74"/>
      <use x="815.308594" xlink:href="#DejaVuSans-69"/>
      <use x="843.091797" xlink:href="#DejaVuSans-6f"/>
      <use x="904.273438" xlink:href="#DejaVuSans-6e"/>
      <use x="967.652344" xlink:href="#DejaVuSans-2c"/>
      <use x="999.439453" xlink:href="#DejaVuSans-74"/>
      <use x="1038.648438" xlink:href="#DejaVuSans-61"/>
      <use x="1099.927734" xlink:href="#DejaVuSans-72"/>
      <use x="1139.291016" xlink:href="#DejaVuSans-67"/>
      <use x="1202.767578" xlink:href="#DejaVuSans-65"/>
      <use x="1264.291016" xlink:href="#DejaVuSans-74"/>
      <use x="1303.5" xlink:href="#DejaVuSans-20"/>
      <use x="1335.287109" xlink:href="#DejaVuSans-70"/>
      <use x="1398.763672" xlink:href="#DejaVuSans-61"/>
      <use x="1460.042969" xlink:href="#DejaVuSans-69"/>
      <use x="1487.826172" xlink:href="#DejaVuSans-72"/>
      <use x="1528.939453" xlink:href="#DejaVuSans-73"/>
     </g>
    </g>
   </g>
   <g id="line2d_33">
    <defs>
     <path d="M 0 1.5 
C 0.397805 1.5 0.77937 1.341951 1.06066 1.06066 
C 1.341951 0.77937 1.5 0.397805 1.5 0 
C 1.5 -0.397805 1.341951 -0.77937 1.06066 -1.06066 
C 0.77937 -1.341951 0.397805 -1.5 0 -1.5 
C -0.397805 -1.5 -0.77937 -1.341951 -1.06066 -1.06066 
C -1.341951 -0.77937 -1.5 -0.397805 -1.5 0 
C -1.5 0.397805 -1.341951 0.77937 -1.06066 1.06066 
C -0.77937 1.341951 -0.397805 1.5 0 1.5 
z
" id="me5c5797ca4" style="stroke:#f5deb3;"/>
    </defs>
    <g>
     <use style="fill:#f5deb3;stroke:#f5deb3;" x="249.26685" xlink:href="#me5c5797ca4" y="30.334099"/>
     <use style="fill:#f5deb3;stroke:#f5deb3;" x="249.26685" xlink:href="#me5c5797ca4" y="30.334099"/>
    </g>
   </g>
   <g id="line2d_34">
    <defs>
     <path d="M 0 1.5 
C 0.397805 1.5 0.77937 1.341951 1.06066 1.06066 
C 1.341951 0.77937 1.5 0.397805 1.5 0 
C 1.5 -0.397805 1.341951 -0.77937 1.06066 -1.06066 
C 0.77937 -1.341951 0.397805 -1.5 0 -1.5 
C -0.397805 -1.5 -0.77937 -1.341951 -1.06066 -1.06066 
C -1.341951 -0.77937 -1.5 -0.397805 -1.5 0 
C -1.5 0.397805 -1.341951 0.77937 -1.06066 1.06066 
C -0.77937 1.341951 -0.397805 1.5 0 1.5 
z
" id="mc0660c12bd" style="stroke:#000080;"/>
    </defs>
    <g>
     <use style="fill:#000080;stroke:#000080;" x="227.214834" xlink:href="#mc0660c12bd" y="241.008531"/>
     <use style="fill:#000080;stroke:#000080;" x="227.214834" xlink:href="#mc0660c12bd" y="241.008531"/>
    </g>
   </g>
   <g id="line2d_35">
    <path d="M 134.973757 298.944 
L 134.973757 297.363942 
L 136.924311 297.363942 
L 136.924311 296.837256 
L 141.278324 296.837256 
L 141.350061 293.150453 
L 141.45 293.150453 
L 141.45 292.623767 
L 142.024126 292.623767 
L 142.024126 290.517023 
L 142.405626 290.517023 
L 142.405626 289.463651 
L 143.741281 289.463651 
L 143.778691 287.883592 
L 143.87806 287.883592 
L 143.87806 286.303534 
L 144.402681 286.303534 
L 144.45069 283.143418 
L 144.759569 283.143418 
L 144.818346 277.876557 
L 144.93531 277.876557 
L 144.93531 277.349871 
L 145.384119 277.349871 
L 145.463466 276.296499 
L 145.598655 276.296499 
L 145.598655 273.663068 
L 145.76618 273.663068 
L 145.76618 272.609696 
L 145.954117 272.609696 
L 145.954117 271.556324 
L 147.429332 271.556324 
L 147.429332 269.976266 
L 147.620256 269.976266 
L 147.620256 269.449579 
L 147.78933 269.449579 
L 147.828875 268.396207 
L 147.946974 268.396207 
L 147.946974 267.869521 
L 148.929057 267.869521 
L 148.984596 266.816149 
L 149.195872 266.816149 
L 149.195872 266.289463 
L 149.849978 266.289463 
L 149.849978 265.236091 
L 150.024985 265.236091 
L 150.024985 264.709405 
L 150.181003 264.709405 
L 150.181003 264.182719 
L 150.335638 264.182719 
L 150.446473 262.60266 
L 150.573489 262.60266 
L 150.598782 261.022602 
L 150.808139 261.022602 
L 150.808139 260.495916 
L 151.493721 260.495916 
L 151.493721 259.442544 
L 151.936246 259.442544 
L 152.029629 257.862486 
L 152.153367 257.862486 
L 152.153367 257.3358 
L 152.306816 257.3358 
L 152.306816 256.809114 
L 156.009346 256.809114 
L 156.009346 256.282427 
L 156.574599 256.282427 
L 156.574599 255.755741 
L 158.352703 255.755741 
L 158.352703 255.229055 
L 158.978632 255.229055 
L 158.978632 254.702369 
L 159.3396 254.702369 
L 159.446449 253.648997 
L 159.502158 253.648997 
L 159.613044 252.068939 
L 160.408554 252.068939 
L 160.408554 251.542253 
L 161.297551 251.542253 
L 161.297551 251.015567 
L 162.243086 251.015567 
L 162.243086 250.488881 
L 162.41935 250.488881 
L 162.41935 249.962195 
L 165.454301 249.962195 
L 165.454301 249.435508 
L 165.686375 249.435508 
L 165.686375 248.908822 
L 165.869837 248.908822 
L 165.869837 248.382136 
L 166.138005 248.382136 
L 166.138005 247.85545 
L 176.52285 247.85545 
L 176.52285 247.328764 
L 177.312548 247.328764 
L 177.312548 246.802078 
L 178.144586 246.802078 
L 178.144586 246.275392 
L 185.141956 246.275392 
L 185.141956 245.748706 
L 190.391571 245.748706 
L 190.391571 245.22202 
L 194.288194 245.22202 
L 194.288194 244.695334 
L 197.47119 244.695334 
L 197.47119 244.168648 
L 200.161924 244.168648 
L 200.161924 243.115275 
L 212.257279 243.115275 
L 212.257279 242.588589 
L 215.64452 242.588589 
L 215.64452 242.061903 
L 223.056276 242.061903 
L 223.056276 241.535217 
L 227.214834 241.535217 
L 227.214834 241.008531 
L 338.688 241.008531 
L 338.688 241.008531 
" style="fill:none;stroke:#000080;stroke-linecap:square;stroke-width:1.5;"/>
   </g>
   <g id="line2d_36">
    <defs>
     <path d="M 0 6 
C 1.591219 6 3.117479 5.367802 4.242641 4.242641 
C 5.367802 3.117479 6 1.591219 6 0 
C 6 -1.591219 5.367802 -3.117479 4.242641 -4.242641 
C 3.117479 -5.367802 1.591219 -6 0 -6 
C -1.591219 -6 -3.117479 -5.367802 -4.242641 -4.242641 
C -5.367802 -3.117479 -6 -1.591219 -6 0 
C -6 1.591219 -5.367802 3.117479 -4.242641 4.242641 
C -3.117479 5.367802 -1.591219 6 0 6 
z
" id="m8dc7f5ac88" style="stroke:#000080;stroke-width:1.5;"/>
    </defs>
    <g>
     <use style="fill-opacity:0;stroke:#000080;stroke-width:1.5;" x="194.288194" xlink:href="#m8dc7f5ac88" y="245.22202"/>
     <use style="fill-opacity:0;stroke:#000080;stroke-width:1.5;" x="227.214834" xlink:href="#m8dc7f5ac88" y="241.535217"/>
     <use style="fill-opacity:0;stroke:#000080;stroke-width:1.5;" x="227.214834" xlink:href="#m8dc7f5ac88" y="241.008531"/>
     <use style="fill-opacity:0;stroke:#000080;stroke-width:1.5;" x="227.214834" xlink:href="#m8dc7f5ac88" y="241.008531"/>
     <use style="fill-opacity:0;stroke:#000080;stroke-width:1.5;" x="338.688" xlink:href="#m8dc7f5ac88" y="241.008531"/>
    </g>
   </g>
   <g id="line2d_37">
    <path style="fill:none;stroke:#000080;stroke-linecap:square;stroke-width:1.5;"/>
    <g/>
   </g>
   <g id="line2d_38">
    <path clip-path="url(#pb5473229d5)" d="M 166.24138 247.85545 
" style="fill:none;stroke:#000080;stroke-linecap:square;stroke-width:1.5;"/>
    <defs>
     <path d="M -12 12 
L 12 -12 
M -12 -12 
L 12 12 
" id="me9f2bef23e" style="stroke:#000080;"/>
    </defs>
    <g clip-path="url(#pb5473229d5)">
     <use style="fill:#000080;stroke:#000080;" x="166.24138" xlink:href="#me9f2bef23e" y="247.85545"/>
    </g>
   </g>
   <g id="line2d_39">
    <defs>
     <path d="M 0 1.5 
C 0.397805 1.5 0.77937 1.341951 1.06066 1.06066 
C 1.341951 0.77937 1.5 0.397805 1.5 0 
C 1.5 -0.397805 1.341951 -0.77937 1.06066 -1.06066 
C 0.77937 -1.341951 0.397805 -1.5 0 -1.5 
C -0.397805 -1.5 -0.77937 -1.341951 -1.06066 -1.06066 
C -1.341951 -0.77937 -1.5 -0.397805 -1.5 0 
C -1.5 0.397805 -1.341951 0.77937 -1.06066 1.06066 
C -0.77937 1.341951 -0.397805 1.5 0 1.5 
z
" id="mdd42097a4b" style="stroke:#ff00ff;"/>
    </defs>
    <g>
     <use style="fill:#ff00ff;stroke:#ff00ff;" x="215.189211" xlink:href="#mdd42097a4b" y="235.74167"/>
     <use style="fill:#ff00ff;stroke:#ff00ff;" x="215.189211" xlink:href="#mdd42097a4b" y="235.74167"/>
    </g>
   </g>
   <g id="line2d_40">
    <path d="M 102.330873 298.944 
L 102.330873 298.417314 
L 104.592361 298.417314 
L 104.592361 295.783884 
L 110.274038 295.783884 
L 110.274038 295.257197 
L 111.584648 295.257197 
L 111.584648 293.150453 
L 114.148479 293.150453 
L 114.148479 290.517023 
L 114.751048 290.517023 
L 114.751048 289.463651 
L 115.077025 289.463651 
L 115.077025 287.356906 
L 116.262979 287.356906 
L 116.262979 284.19679 
L 119.097192 284.19679 
L 119.097192 283.670104 
L 119.850084 283.670104 
L 119.850084 281.563359 
L 122.276749 281.563359 
L 122.276749 280.509987 
L 124.444412 280.509987 
L 124.444412 277.876557 
L 124.92835 277.876557 
L 124.92835 276.296499 
L 125.255688 276.296499 
L 125.255688 274.189754 
L 125.399222 274.189754 
L 125.399222 273.136382 
L 125.647598 273.136382 
L 125.647598 272.08301 
L 125.961828 272.08301 
L 125.961828 271.556324 
L 127.067859 271.556324 
L 127.067859 271.029638 
L 127.579875 271.029638 
L 127.642832 268.396207 
L 127.736845 268.396207 
L 127.736845 266.816149 
L 128.797771 266.816149 
L 128.797771 264.182719 
L 129.147151 264.182719 
L 129.204706 263.129347 
L 129.908566 263.129347 
L 129.908566 262.60266 
L 130.209487 262.60266 
L 130.209487 261.549288 
L 130.425122 261.549288 
L 130.425122 259.96923 
L 132.254495 259.96923 
L 132.254495 259.442544 
L 133.124876 259.442544 
L 133.124876 258.915858 
L 133.755823 258.915858 
L 133.755823 258.389172 
L 135.602085 258.389172 
L 135.701341 257.3358 
L 136.266147 257.3358 
L 136.266147 256.809114 
L 138.510793 256.809114 
L 138.510793 256.282427 
L 144.233601 256.282427 
L 144.233601 255.755741 
L 144.45069 255.755741 
L 144.45069 255.229055 
L 144.946964 255.229055 
L 144.946964 254.702369 
L 147.327999 254.702369 
L 147.327999 253.648997 
L 148.601505 253.648997 
L 148.601505 253.122311 
L 149.805951 253.122311 
L 149.805951 252.595625 
L 151.461678 252.595625 
L 151.461678 252.068939 
L 153.294279 252.068939 
L 153.294279 251.542253 
L 153.423725 251.542253 
L 153.423725 251.015567 
L 157.675417 251.015567 
L 157.675417 250.488881 
L 159.577838 250.488881 
L 159.577838 249.962195 
L 159.748174 249.962195 
L 159.748174 249.435508 
L 160.802491 249.435508 
L 160.802491 248.908822 
L 161.420284 248.908822 
L 161.420284 248.382136 
L 161.63189 248.382136 
L 161.63189 247.85545 
L 162.256044 247.85545 
L 162.256044 247.328764 
L 163.879282 247.328764 
L 163.879282 246.802078 
L 164.206643 246.802078 
L 164.241356 245.748706 
L 164.6902 245.748706 
L 164.6902 245.22202 
L 174.404376 245.22202 
L 174.404376 244.695334 
L 174.913216 244.695334 
L 174.913216 244.168648 
L 175.158055 244.168648 
L 175.158055 243.641962 
L 175.669698 243.641962 
L 175.669698 243.115275 
L 176.02814 243.115275 
L 176.02814 242.588589 
L 177.048339 242.588589 
L 177.048339 242.061903 
L 182.727374 242.061903 
L 182.727374 241.535217 
L 183.253327 241.535217 
L 183.253327 241.008531 
L 183.805342 241.008531 
L 183.805342 240.481845 
L 183.982633 240.481845 
L 183.982633 239.955159 
L 184.465319 239.955159 
L 184.465319 239.428473 
L 196.462449 239.428473 
L 196.462449 238.901787 
L 199.428042 238.901787 
L 199.428042 238.375101 
L 201.818169 238.375101 
L 201.818169 237.848415 
L 205.79528 237.848415 
L 205.79528 237.321729 
L 208.936031 237.321729 
L 208.936031 236.795043 
L 210.449412 236.795043 
L 210.449412 236.268356 
L 215.189211 236.268356 
L 215.189211 235.74167 
L 338.688 235.74167 
L 338.688 235.74167 
" style="fill:none;stroke:#ff00ff;stroke-linecap:square;stroke-width:1.5;"/>
   </g>
   <g id="line2d_41">
    <defs>
     <path d="M 0 8.485281 
L 5.091169 0 
L 0 -8.485281 
L -5.091169 0 
z
" id="m10b815847b" style="stroke:#ff00ff;stroke-linejoin:miter;stroke-width:1.5;"/>
    </defs>
    <g>
     <use style="fill-opacity:0;stroke:#ff00ff;stroke-linejoin:miter;stroke-width:1.5;" x="122.276749" xlink:href="#m10b815847b" y="280.509987"/>
     <use style="fill-opacity:0;stroke:#ff00ff;stroke-linejoin:miter;stroke-width:1.5;" x="184.465319" xlink:href="#m10b815847b" y="239.428473"/>
     <use style="fill-opacity:0;stroke:#ff00ff;stroke-linejoin:miter;stroke-width:1.5;" x="215.189211" xlink:href="#m10b815847b" y="236.268356"/>
     <use style="fill-opacity:0;stroke:#ff00ff;stroke-linejoin:miter;stroke-width:1.5;" x="215.189211" xlink:href="#m10b815847b" y="235.74167"/>
     <use style="fill-opacity:0;stroke:#ff00ff;stroke-linejoin:miter;stroke-width:1.5;" x="338.688" xlink:href="#m10b815847b" y="235.74167"/>
    </g>
   </g>
   <g id="line2d_42">
    <path style="fill:none;stroke:#ff00ff;stroke-linecap:square;stroke-width:1.5;"/>
    <g/>
   </g>
   <g id="line2d_43">
    <path clip-path="url(#pb5473229d5)" d="M 165.978297 245.22202 
" style="fill:none;stroke:#ff00ff;stroke-linecap:square;stroke-width:1.5;"/>
    <defs>
     <path d="M -12 12 
L 12 -12 
M -12 -12 
L 12 12 
" id="m31277cd35e" style="stroke:#ff00ff;"/>
    </defs>
    <g clip-path="url(#pb5473229d5)">
     <use style="fill:#ff00ff;stroke:#ff00ff;" x="165.978297" xlink:href="#m31277cd35e" y="245.22202"/>
    </g>
   </g>
   <g id="line2d_44">
    <defs>
     <path d="M 0 1.5 
C 0.397805 1.5 0.77937 1.341951 1.06066 1.06066 
C 1.341951 0.77937 1.5 0.397805 1.5 0 
C 1.5 -0.397805 1.341951 -0.77937 1.06066 -1.06066 
C 0.77937 -1.341951 0.397805 -1.5 0 -1.5 
C -0.397805 -1.5 -0.77937 -1.341951 -1.06066 -1.06066 
C -1.341951 -0.77937 -1.5 -0.397805 -1.5 0 
C -1.5 0.397805 -1.341951 0.77937 -1.06066 1.06066 
C -0.77937 1.341951 -0.397805 1.5 0 1.5 
z
" id="m56eb7ff8be" style="stroke:#ff7500;"/>
    </defs>
    <g>
     <use style="fill:#ff7500;stroke:#ff7500;" x="211.782195" xlink:href="#m56eb7ff8be" y="235.74167"/>
     <use style="fill:#ff7500;stroke:#ff7500;" x="211.782195" xlink:href="#m56eb7ff8be" y="235.74167"/>
    </g>
   </g>
   <g id="line2d_45">
    <path d="M 107.111487 298.944 
L 107.213174 295.257197 
L 108.577836 295.257197 
L 108.577836 294.203825 
L 108.856871 294.203825 
L 108.856871 293.150453 
L 111.426108 293.150453 
L 111.426108 292.623767 
L 112.72987 292.623767 
L 112.72987 289.990337 
L 116.262979 289.990337 
L 116.262979 288.936964 
L 116.38325 288.936964 
L 116.38325 287.356906 
L 118.363901 287.356906 
L 118.363901 286.303534 
L 123.273551 286.303534 
L 123.273551 284.723476 
L 125.363449 284.723476 
L 125.363449 283.670104 
L 126.439646 283.670104 
L 126.439646 283.143418 
L 126.70692 283.143418 
L 126.70692 282.616732 
L 127.165014 282.616732 
L 127.165014 282.090045 
L 128.973336 282.090045 
L 128.973336 281.036673 
L 129.489668 281.036673 
L 129.574256 278.929929 
L 129.770048 278.929929 
L 129.825588 275.769812 
L 132.541568 275.769812 
L 132.541568 275.243126 
L 133.262014 275.243126 
L 133.262014 274.71644 
L 134.279041 274.71644 
L 134.279041 274.189754 
L 134.994383 274.189754 
L 134.994383 273.136382 
L 135.760625 273.136382 
L 135.760625 272.609696 
L 137.198951 272.609696 
L 137.198951 272.08301 
L 137.39764 272.08301 
L 137.39764 271.029638 
L 137.594091 271.029638 
L 137.594091 270.502952 
L 137.980475 270.502952 
L 137.980475 269.449579 
L 138.493936 269.449579 
L 138.493936 268.922893 
L 139.493548 268.922893 
L 139.493548 266.816149 
L 139.683624 266.816149 
L 139.683624 266.289463 
L 140.393639 266.289463 
L 140.393639 263.129347 
L 140.589166 263.129347 
L 140.589166 262.075974 
L 140.871049 262.075974 
L 140.900458 260.495916 
L 141.263941 260.495916 
L 141.263941 259.96923 
L 142.133981 259.96923 
L 142.133981 259.442544 
L 143.439077 259.442544 
L 143.439077 258.915858 
L 143.890442 258.915858 
L 143.890442 257.3358 
L 144.245733 257.3358 
L 144.245733 256.809114 
L 144.865226 256.809114 
L 144.865226 256.282427 
L 147.061745 256.282427 
L 147.061745 255.755741 
L 150.590355 255.755741 
L 150.590355 255.229055 
L 151.203194 255.229055 
L 151.292481 254.175683 
L 151.834513 254.175683 
L 151.834513 253.648997 
L 152.639723 253.648997 
L 152.639723 253.122311 
L 153.149313 253.122311 
L 153.149313 252.595625 
L 153.344733 252.595625 
L 153.344733 252.068939 
L 153.473807 252.068939 
L 153.473807 251.542253 
L 153.876352 251.542253 
L 153.876352 251.015567 
L 157.58535 251.015567 
L 157.58535 250.488881 
L 158.20082 250.488881 
L 158.206267 249.435508 
L 159.247491 249.435508 
L 159.247491 248.908822 
L 159.778062 248.908822 
L 159.778062 248.382136 
L 160.604262 248.382136 
L 160.604262 247.85545 
L 161.137157 247.85545 
L 161.164758 246.802078 
L 161.618459 246.802078 
L 161.618459 246.275392 
L 161.770068 246.275392 
L 161.770068 245.748706 
L 162.62347 245.748706 
L 162.62347 245.22202 
L 163.234125 245.22202 
L 163.234125 244.695334 
L 165.204517 244.695334 
L 165.204517 244.168648 
L 174.607571 244.168648 
L 174.609697 243.115275 
L 175.494751 243.115275 
L 175.494751 242.588589 
L 176.022259 242.588589 
L 176.022259 241.008531 
L 176.46942 241.008531 
L 176.46942 239.955159 
L 177.197449 239.955159 
L 177.197449 239.428473 
L 183.465745 239.428473 
L 183.465745 238.901787 
L 184.269691 238.901787 
L 184.269691 238.375101 
L 184.883175 238.375101 
L 184.883175 237.848415 
L 189.725266 237.848415 
L 189.725266 237.321729 
L 193.703379 237.321729 
L 193.703379 236.268356 
L 211.782195 236.268356 
L 211.782195 235.74167 
L 338.688 235.74167 
L 338.688 235.74167 
" style="fill:none;stroke:#ff7500;stroke-linecap:square;stroke-width:1.5;"/>
   </g>
   <g id="line2d_46">
    <defs>
     <path d="M 0 -6 
L -1.347084 -1.854102 
L -5.706339 -1.854102 
L -2.179628 0.708204 
L -3.526712 4.854102 
L -0 2.291796 
L 3.526712 4.854102 
L 2.179628 0.708204 
L 5.706339 -1.854102 
L 1.347084 -1.854102 
z
" id="m01fa0528a7" style="stroke:#ff7500;stroke-linejoin:bevel;stroke-width:1.5;"/>
    </defs>
    <g>
     <use style="fill-opacity:0;stroke:#ff7500;stroke-linejoin:bevel;stroke-width:1.5;" x="184.883175" xlink:href="#m01fa0528a7" y="237.848415"/>
     <use style="fill-opacity:0;stroke:#ff7500;stroke-linejoin:bevel;stroke-width:1.5;" x="211.782195" xlink:href="#m01fa0528a7" y="236.268356"/>
     <use style="fill-opacity:0;stroke:#ff7500;stroke-linejoin:bevel;stroke-width:1.5;" x="211.782195" xlink:href="#m01fa0528a7" y="235.74167"/>
     <use style="fill-opacity:0;stroke:#ff7500;stroke-linejoin:bevel;stroke-width:1.5;" x="211.782195" xlink:href="#m01fa0528a7" y="235.74167"/>
     <use style="fill-opacity:0;stroke:#ff7500;stroke-linejoin:bevel;stroke-width:1.5;" x="338.688" xlink:href="#m01fa0528a7" y="235.74167"/>
    </g>
   </g>
   <g id="line2d_47">
    <path style="fill:none;stroke:#ff7500;stroke-linecap:square;stroke-width:1.5;"/>
    <g/>
   </g>
   <g id="line2d_48">
    <path clip-path="url(#pb5473229d5)" d="M 165.978297 244.168648 
" style="fill:none;stroke:#ff7500;stroke-linecap:square;stroke-width:1.5;"/>
    <defs>
     <path d="M -12 12 
L 12 -12 
M -12 -12 
L 12 12 
" id="m8b54433305" style="stroke:#ff7500;"/>
    </defs>
    <g clip-path="url(#pb5473229d5)">
     <use style="fill:#ff7500;stroke:#ff7500;" x="165.978297" xlink:href="#m8b54433305" y="244.168648"/>
    </g>
   </g>
   <g id="line2d_49">
    <defs>
     <path d="M 0 1.5 
C 0.397805 1.5 0.77937 1.341951 1.06066 1.06066 
C 1.341951 0.77937 1.5 0.397805 1.5 0 
C 1.5 -0.397805 1.341951 -0.77937 1.06066 -1.06066 
C 0.77937 -1.341951 0.397805 -1.5 0 -1.5 
C -0.397805 -1.5 -0.77937 -1.341951 -1.06066 -1.06066 
C -1.341951 -0.77937 -1.5 -0.397805 -1.5 0 
C -1.5 0.397805 -1.341951 0.77937 -1.06066 1.06066 
C -0.77937 1.341951 -0.397805 1.5 0 1.5 
z
" id="m8558945743" style="stroke:#6495ed;"/>
    </defs>
    <g>
     <use style="fill:#6495ed;stroke:#6495ed;" x="210.621485" xlink:href="#m8558945743" y="246.275392"/>
     <use style="fill:#6495ed;stroke:#6495ed;" x="210.621485" xlink:href="#m8558945743" y="246.275392"/>
    </g>
   </g>
   <g id="line2d_50">
    <path d="M 101.646892 298.944 
L 101.646892 298.417314 
L 106.48859 298.417314 
L 106.48859 296.837256 
L 109.579846 296.837256 
L 109.579846 294.203825 
L 117.598418 294.203825 
L 117.598418 293.677139 
L 118.786692 293.677139 
L 118.786692 293.150453 
L 121.579085 293.150453 
L 121.579085 292.097081 
L 121.623516 292.097081 
L 121.623516 291.570395 
L 135.401861 291.570395 
L 135.401861 291.043709 
L 135.44209 291.043709 
L 135.44209 288.410278 
L 135.839358 288.410278 
L 135.839358 287.883592 
L 138.032507 287.883592 
L 138.032507 286.83022 
L 144.970247 286.83022 
L 144.970247 284.723476 
L 146.06373 284.723476 
L 146.06373 281.036673 
L 146.728368 281.036673 
L 146.728368 280.509987 
L 147.419225 280.509987 
L 147.419225 278.403243 
L 148.267683 278.403243 
L 148.267683 275.769812 
L 149.690956 275.769812 
L 149.690956 275.243126 
L 151.621307 275.243126 
L 151.621307 273.136382 
L 152.481628 273.136382 
L 152.481628 270.502952 
L 156.077167 270.502952 
L 156.077167 269.976266 
L 156.592532 269.976266 
L 156.592532 269.449579 
L 156.699741 269.449579 
L 156.699741 267.342835 
L 157.15106 267.342835 
L 157.15106 266.816149 
L 157.168409 266.816149 
L 157.168409 266.289463 
L 157.185742 266.289463 
L 157.185742 265.762777 
L 157.826359 265.762777 
L 157.826359 264.709405 
L 158.047603 264.709405 
L 158.047603 264.182719 
L 158.952561 264.182719 
L 158.952561 263.656033 
L 159.030659 263.656033 
L 159.030659 263.129347 
L 159.502158 263.129347 
L 159.502158 260.495916 
L 160.147395 260.495916 
L 160.147395 259.96923 
L 160.451703 259.96923 
L 160.451703 259.442544 
L 160.537682 259.442544 
L 160.537682 258.389172 
L 160.689494 258.389172 
L 160.689494 257.862486 
L 160.854038 257.862486 
L 160.854038 256.809114 
L 161.196905 256.809114 
L 161.196905 256.282427 
L 162.970886 256.282427 
L 162.970886 255.755741 
L 164.15638 255.755741 
L 164.15638 255.229055 
L 164.171861 255.229055 
L 164.171861 254.702369 
L 164.183463 254.702369 
L 164.183463 254.175683 
L 164.218222 254.175683 
L 164.218222 253.648997 
L 164.375697 253.648997 
L 164.375697 253.122311 
L 164.708966 253.122311 
L 164.708966 252.595625 
L 164.716466 252.595625 
L 164.716466 252.068939 
L 164.802494 252.068939 
L 164.802494 251.542253 
L 165.859305 251.542253 
L 165.859305 251.015567 
L 177.488292 251.015567 
L 177.488292 249.962195 
L 177.749519 249.962195 
L 177.749519 249.435508 
L 184.754113 249.435508 
L 184.754113 248.382136 
L 189.99661 248.382136 
L 189.99661 247.328764 
L 199.823652 247.328764 
L 199.823652 246.802078 
L 210.621485 246.802078 
L 210.621485 246.275392 
L 338.688 246.275392 
" style="fill:none;stroke:#6495ed;stroke-linecap:square;stroke-width:1.5;"/>
   </g>
   <g id="line2d_51">
    <defs>
     <path d="M -0 6 
L 6 -6 
L -6 -6 
z
" id="md91378b4fe" style="stroke:#6495ed;stroke-linejoin:miter;stroke-width:1.5;"/>
    </defs>
    <g>
     <use style="fill-opacity:0;stroke:#6495ed;stroke-linejoin:miter;stroke-width:1.5;" x="177.749519" xlink:href="#md91378b4fe" y="249.962195"/>
     <use style="fill-opacity:0;stroke:#6495ed;stroke-linejoin:miter;stroke-width:1.5;" x="210.621485" xlink:href="#md91378b4fe" y="246.275392"/>
     <use style="fill-opacity:0;stroke:#6495ed;stroke-linejoin:miter;stroke-width:1.5;" x="210.621485" xlink:href="#md91378b4fe" y="246.275392"/>
     <use style="fill-opacity:0;stroke:#6495ed;stroke-linejoin:miter;stroke-width:1.5;" x="210.621485" xlink:href="#md91378b4fe" y="246.275392"/>
     <use style="fill-opacity:0;stroke:#6495ed;stroke-linejoin:miter;stroke-width:1.5;" x="338.688" xlink:href="#md91378b4fe" y="246.275392"/>
    </g>
   </g>
   <g id="line2d_52">
    <path style="fill:none;stroke:#6495ed;stroke-linecap:square;stroke-width:1.5;"/>
    <g/>
   </g>
   <g id="line2d_53">
    <path clip-path="url(#pb5473229d5)" d="M 165.978297 251.015567 
" style="fill:none;stroke:#6495ed;stroke-linecap:square;stroke-width:1.5;"/>
    <defs>
     <path d="M -12 12 
L 12 -12 
M -12 -12 
L 12 12 
" id="m553c07efa5" style="stroke:#6495ed;"/>
    </defs>
    <g clip-path="url(#pb5473229d5)">
     <use style="fill:#6495ed;stroke:#6495ed;" x="165.978297" xlink:href="#m553c07efa5" y="251.015567"/>
    </g>
   </g>
   <g id="line2d_54">
    <defs>
     <path d="M 0 1.5 
C 0.397805 1.5 0.77937 1.341951 1.06066 1.06066 
C 1.341951 0.77937 1.5 0.397805 1.5 0 
C 1.5 -0.397805 1.341951 -0.77937 1.06066 -1.06066 
C 0.77937 -1.341951 0.397805 -1.5 0 -1.5 
C -0.397805 -1.5 -0.77937 -1.341951 -1.06066 -1.06066 
C -1.341951 -0.77937 -1.5 -0.397805 -1.5 0 
C -1.5 0.397805 -1.341951 0.77937 -1.06066 1.06066 
C -0.77937 1.341951 -0.397805 1.5 0 1.5 
z
" id="m33abd51558" style="stroke:#ff0000;"/>
    </defs>
    <g>
     <use style="fill:#ff0000;stroke:#ff0000;" x="222.55414" xlink:href="#m33abd51558" y="246.275392"/>
     <use style="fill:#ff0000;stroke:#ff0000;" x="222.55414" xlink:href="#m33abd51558" y="246.275392"/>
    </g>
   </g>
   <g id="line2d_55">
    <path d="M 124.024168 298.944 
L 124.024168 297.363942 
L 124.062793 297.363942 
L 124.062793 294.730511 
L 129.630422 294.730511 
L 129.630422 294.203825 
L 130.425122 294.203825 
L 130.425122 293.677139 
L 130.848555 293.677139 
L 130.848555 293.150453 
L 130.952826 293.150453 
L 130.952826 290.517023 
L 131.185181 290.517023 
L 131.185181 289.990337 
L 131.715598 289.990337 
L 131.715598 286.83022 
L 131.740458 286.83022 
L 131.740458 284.723476 
L 131.913493 284.723476 
L 131.913493 282.090045 
L 132.084827 282.090045 
L 132.084827 279.983301 
L 132.917126 279.983301 
L 132.917126 279.456615 
L 132.963507 279.456615 
L 132.963507 275.769812 
L 133.009765 275.769812 
L 133.009765 273.663068 
L 133.375477 273.663068 
L 133.375477 273.136382 
L 133.77794 273.136382 
L 133.77794 272.08301 
L 134.12805 272.08301 
L 134.12805 271.029638 
L 134.364738 271.029638 
L 134.364738 270.502952 
L 135.117629 270.502952 
L 135.117629 269.976266 
L 135.240011 269.976266 
L 135.240011 269.449579 
L 135.46217 269.449579 
L 135.46217 268.922893 
L 136.513517 268.922893 
L 136.513517 268.396207 
L 137.034686 268.396207 
L 137.034686 266.289463 
L 137.253364 266.289463 
L 137.253364 265.762777 
L 138.153314 265.762777 
L 138.153314 265.236091 
L 138.170504 265.236091 
L 138.170504 264.709405 
L 138.187677 264.709405 
L 138.187677 263.656033 
L 138.828032 263.656033 
L 138.828032 263.129347 
L 139.301378 263.129347 
L 139.301378 262.60266 
L 139.588845 262.60266 
L 139.588845 262.075974 
L 139.840453 262.075974 
L 139.840453 261.022602 
L 140.378508 261.022602 
L 140.378508 260.495916 
L 141.292695 260.495916 
L 141.292695 259.96923 
L 141.478449 259.96923 
L 141.478449 257.3358 
L 141.968939 257.3358 
L 141.968939 256.809114 
L 143.273169 256.809114 
L 143.273169 256.282427 
L 143.816021 256.282427 
L 143.816021 255.755741 
L 146.538004 255.755741 
L 146.538004 255.229055 
L 147.828875 255.229055 
L 147.828875 254.702369 
L 148.667509 254.702369 
L 148.667509 254.175683 
L 150.007563 254.175683 
L 150.007563 253.648997 
L 151.493721 253.648997 
L 151.493721 253.122311 
L 152.474064 253.122311 
L 152.474064 252.595625 
L 152.870513 252.595625 
L 152.870513 252.068939 
L 155.303359 252.068939 
L 155.303359 251.542253 
L 165.848767 251.542253 
L 165.848767 251.015567 
L 188.510522 251.015567 
L 188.510522 250.488881 
L 192.743364 250.488881 
L 192.743364 249.962195 
L 201.439746 249.962195 
L 201.439746 249.435508 
L 203.584812 249.435508 
L 203.584812 248.908822 
L 208.782396 248.908822 
L 208.782396 248.382136 
L 211.992339 248.382136 
L 211.992339 247.85545 
L 217.320403 247.85545 
L 217.320403 247.328764 
L 219.596286 247.328764 
L 219.596286 246.802078 
L 222.55414 246.802078 
L 222.55414 246.275392 
L 338.688 246.275392 
" style="fill:none;stroke:#ff0000;stroke-linecap:square;stroke-width:1.5;"/>
   </g>
   <g id="line2d_56">
    <defs>
     <path d="M 0 -6 
L -5.196152 -3 
L -5.196152 3 
L -0 6 
L 5.196152 3 
L 5.196152 -3 
z
" id="m88c101a8eb" style="stroke:#ff0000;stroke-linejoin:miter;stroke-width:1.5;"/>
    </defs>
    <g>
     <use style="fill-opacity:0;stroke:#ff0000;stroke-linejoin:miter;stroke-width:1.5;" x="155.303359" xlink:href="#m88c101a8eb" y="252.068939"/>
     <use style="fill-opacity:0;stroke:#ff0000;stroke-linejoin:miter;stroke-width:1.5;" x="219.596286" xlink:href="#m88c101a8eb" y="247.328764"/>
     <use style="fill-opacity:0;stroke:#ff0000;stroke-linejoin:miter;stroke-width:1.5;" x="222.55414" xlink:href="#m88c101a8eb" y="246.275392"/>
     <use style="fill-opacity:0;stroke:#ff0000;stroke-linejoin:miter;stroke-width:1.5;" x="222.55414" xlink:href="#m88c101a8eb" y="246.275392"/>
     <use style="fill-opacity:0;stroke:#ff0000;stroke-linejoin:miter;stroke-width:1.5;" x="338.688" xlink:href="#m88c101a8eb" y="246.275392"/>
    </g>
   </g>
   <g id="line2d_57">
    <path style="fill:none;stroke:#ff0000;stroke-linecap:square;stroke-width:1.5;"/>
    <g/>
   </g>
   <g id="line2d_58">
    <path clip-path="url(#pb5473229d5)" d="M 165.978297 251.015567 
" style="fill:none;stroke:#ff0000;stroke-linecap:square;stroke-width:1.5;"/>
    <defs>
     <path d="M -12 12 
L 12 -12 
M -12 -12 
L 12 12 
" id="m25c45db303" style="stroke:#ff0000;"/>
    </defs>
    <g clip-path="url(#pb5473229d5)">
     <use style="fill:#ff0000;stroke:#ff0000;" x="165.978297" xlink:href="#m25c45db303" y="251.015567"/>
    </g>
   </g>
   <g id="line2d_59">
    <defs>
     <path d="M 0 1.5 
C 0.397805 1.5 0.77937 1.341951 1.06066 1.06066 
C 1.341951 0.77937 1.5 0.397805 1.5 0 
C 1.5 -0.397805 1.341951 -0.77937 1.06066 -1.06066 
C 0.77937 -1.341951 0.397805 -1.5 0 -1.5 
C -0.397805 -1.5 -0.77937 -1.341951 -1.06066 -1.06066 
C -1.341951 -0.77937 -1.5 -0.397805 -1.5 0 
C -1.5 0.397805 -1.341951 0.77937 -1.06066 1.06066 
C -0.77937 1.341951 -0.397805 1.5 0 1.5 
z
" id="m3722eb09e8" style="stroke:#9acd32;"/>
    </defs>
    <g>
     <use style="fill:#9acd32;stroke:#9acd32;" x="160.571004" xlink:href="#m3722eb09e8" y="251.542253"/>
     <use style="fill:#9acd32;stroke:#9acd32;" x="160.571004" xlink:href="#m3722eb09e8" y="251.542253"/>
    </g>
   </g>
   <g id="line2d_60">
    <path d="M 122.44689 298.944 
L 122.44689 298.417314 
L 122.531342 298.417314 
L 122.531342 297.363942 
L 124.101333 297.363942 
L 124.101333 295.783884 
L 124.519744 295.783884 
L 124.519744 294.203825 
L 124.706662 294.203825 
L 124.706662 292.097081 
L 125.927192 292.097081 
L 125.927192 291.043709 
L 125.996395 291.043709 
L 125.996395 289.463651 
L 126.50685 289.463651 
L 126.50685 288.936964 
L 127.48501 288.936964 
L 127.48501 286.303534 
L 127.516689 286.303534 
L 127.516689 284.19679 
L 127.642832 284.19679 
L 127.642832 282.090045 
L 130.45189 282.090045 
L 130.45189 281.563359 
L 130.478617 281.563359 
L 130.478617 279.456615 
L 132.011604 279.456615 
L 132.011604 277.876557 
L 132.084827 277.876557 
L 132.084827 276.823185 
L 132.30267 276.823185 
L 132.30267 272.609696 
L 132.917126 272.609696 
L 132.917126 272.08301 
L 132.963507 272.08301 
L 132.963507 271.556324 
L 132.986651 271.556324 
L 132.986651 271.029638 
L 133.032848 271.029638 
L 133.032848 268.922893 
L 133.0559 268.922893 
L 133.0559 266.816149 
L 133.888106 266.816149 
L 133.888106 266.289463 
L 134.257551 266.289463 
L 134.257551 265.762777 
L 134.364738 265.762777 
L 134.364738 264.709405 
L 134.534878 264.709405 
L 134.534878 263.656033 
L 135.097149 263.656033 
L 135.097149 263.129347 
L 135.158519 263.129347 
L 135.158519 262.60266 
L 137.928288 262.60266 
L 137.928288 261.549288 
L 138.049816 261.549288 
L 138.049816 260.495916 
L 138.794909 260.495916 
L 138.794909 257.862486 
L 138.861092 257.862486 
L 138.861092 257.3358 
L 140.363363 257.3358 
L 140.363363 256.809114 
L 142.539878 256.809114 
L 142.539878 256.282427 
L 146.822776 256.282427 
L 146.822776 255.755741 
L 147.287301 255.755741 
L 147.287301 255.229055 
L 150.051085 255.229055 
L 150.051085 254.702369 
L 150.590355 254.702369 
L 150.590355 254.175683 
L 156.297301 254.175683 
L 156.297301 253.648997 
L 158.694975 253.648997 
L 158.694975 253.122311 
L 159.319173 253.122311 
L 159.319173 252.595625 
L 159.51732 252.595625 
L 159.51732 252.068939 
L 160.571004 252.068939 
L 160.571004 251.542253 
L 338.688 251.542253 
" style="fill:none;stroke:#9acd32;stroke-linecap:square;stroke-width:1.5;"/>
   </g>
   <g id="line2d_61">
    <defs>
     <path d="M 0 -6 
L -6 6 
L 6 6 
z
" id="m8197ce1765" style="stroke:#9acd32;stroke-linejoin:miter;stroke-width:1.5;"/>
    </defs>
    <g>
     <use style="fill-opacity:0;stroke:#9acd32;stroke-linejoin:miter;stroke-width:1.5;" x="133.888106" xlink:href="#m8197ce1765" y="266.816149"/>
     <use style="fill-opacity:0;stroke:#9acd32;stroke-linejoin:miter;stroke-width:1.5;" x="160.571004" xlink:href="#m8197ce1765" y="252.068939"/>
     <use style="fill-opacity:0;stroke:#9acd32;stroke-linejoin:miter;stroke-width:1.5;" x="160.571004" xlink:href="#m8197ce1765" y="251.542253"/>
     <use style="fill-opacity:0;stroke:#9acd32;stroke-linejoin:miter;stroke-width:1.5;" x="160.571004" xlink:href="#m8197ce1765" y="251.542253"/>
     <use style="fill-opacity:0;stroke:#9acd32;stroke-linejoin:miter;stroke-width:1.5;" x="338.688" xlink:href="#m8197ce1765" y="251.542253"/>
    </g>
   </g>
   <g id="line2d_62">
    <path style="fill:none;stroke:#9acd32;stroke-linecap:square;stroke-width:1.5;"/>
    <g/>
   </g>
   <g id="line2d_63">
    <path clip-path="url(#pb5473229d5)" d="M 165.978297 251.542253 
" style="fill:none;stroke:#9acd32;stroke-linecap:square;stroke-width:1.5;"/>
    <defs>
     <path d="M -12 12 
L 12 -12 
M -12 -12 
L 12 12 
" id="m2f9a8c7bd3" style="stroke:#9acd32;"/>
    </defs>
    <g clip-path="url(#pb5473229d5)">
     <use style="fill:#9acd32;stroke:#9acd32;" x="165.978297" xlink:href="#m2f9a8c7bd3" y="251.542253"/>
    </g>
   </g>
   <g id="line2d_64">
    <defs>
     <path d="M 0 1.5 
C 0.397805 1.5 0.77937 1.341951 1.06066 1.06066 
C 1.341951 0.77937 1.5 0.397805 1.5 0 
C 1.5 -0.397805 1.341951 -0.77937 1.06066 -1.06066 
C 0.77937 -1.341951 0.397805 -1.5 0 -1.5 
C -0.397805 -1.5 -0.77937 -1.341951 -1.06066 -1.06066 
C -1.341951 -0.77937 -1.5 -0.397805 -1.5 0 
C -1.5 0.397805 -1.341951 0.77937 -1.06066 1.06066 
C -0.77937 1.341951 -0.397805 1.5 0 1.5 
z
" id="mbe21d13e8b" style="stroke:#00bfbf;"/>
    </defs>
    <g>
     <use style="fill:#00bfbf;stroke:#00bfbf;" x="196.547265" xlink:href="#mbe21d13e8b" y="246.275392"/>
     <use style="fill:#00bfbf;stroke:#00bfbf;" x="196.547265" xlink:href="#mbe21d13e8b" y="246.275392"/>
    </g>
   </g>
   <g id="line2d_65">
    <path d="M 114.0117 298.944 
L 114.0117 298.417314 
L 114.148479 298.417314 
L 114.148479 297.890628 
L 115.141496 297.890628 
L 115.141496 295.257197 
L 117.259781 295.257197 
L 117.259781 292.623767 
L 117.373392 292.623767 
L 117.373392 289.463651 
L 120.665825 289.463651 
L 120.665825 288.410278 
L 121.974949 288.410278 
L 121.974949 287.356906 
L 122.276749 287.356906 
L 122.276749 286.83022 
L 123.712047 286.83022 
L 123.712047 284.19679 
L 124.062793 284.19679 
L 124.062793 282.616732 
L 124.178158 282.616732 
L 124.178158 282.090045 
L 125.291682 282.090045 
L 125.291682 281.563359 
L 125.857712 281.563359 
L 125.857712 277.349871 
L 126.133984 277.349871 
L 126.133984 274.71644 
L 126.168212 274.71644 
L 126.168212 274.189754 
L 126.47328 274.189754 
L 126.47328 272.609696 
L 126.573795 272.609696 
L 126.573795 272.08301 
L 127.132689 272.08301 
L 127.132689 271.556324 
L 127.516689 271.556324 
L 127.516689 269.976266 
L 127.830353 269.976266 
L 127.830353 268.922893 
L 127.954256 268.922893 
L 127.954256 267.342835 
L 129.06046 267.342835 
L 129.06046 263.129347 
L 129.147151 263.129347 
L 129.147151 262.60266 
L 130.69097 262.60266 
L 130.69097 262.075974 
L 130.743656 262.075974 
L 130.743656 260.495916 
L 130.822389 260.495916 
L 130.822389 258.915858 
L 131.363785 258.915858 
L 131.363785 257.862486 
L 131.740458 257.862486 
L 131.740458 257.3358 
L 131.938072 257.3358 
L 131.938072 256.809114 
L 134.04118 256.809114 
L 134.04118 256.282427 
L 136.418789 256.282427 
L 136.418789 255.755741 
L 143.615998 255.755741 
L 143.615998 255.229055 
L 144.641416 255.229055 
L 144.641416 254.702369 
L 146.09648 254.702369 
L 146.09648 254.175683 
L 146.118279 254.175683 
L 146.118279 253.648997 
L 146.717846 253.648997 
L 146.717846 253.122311 
L 148.258051 253.122311 
L 148.258051 252.595625 
L 148.686322 252.595625 
L 148.686322 252.068939 
L 150.454969 252.068939 
L 150.454969 251.542253 
L 163.953867 251.542253 
L 163.953867 251.015567 
L 164.716466 251.015567 
L 164.716466 250.488881 
L 164.720216 250.488881 
L 164.720216 249.962195 
L 176.896079 249.962195 
L 176.896079 249.435508 
L 177.08343 249.435508 
L 177.08343 247.85545 
L 189.847272 247.85545 
L 189.847272 247.328764 
L 193.587033 247.328764 
L 193.587033 246.802078 
L 196.547265 246.802078 
L 196.547265 246.275392 
L 338.688 246.275392 
" style="fill:none;stroke:#00bfbf;stroke-linecap:square;stroke-width:1.5;"/>
   </g>
   <g id="line2d_66">
    <defs>
     <path d="M 0 -6 
L -5.706339 -1.854102 
L -3.526712 4.854102 
L 3.526712 4.854102 
L 5.706339 -1.854102 
z
" id="mf2e36c8413" style="stroke:#00bfbf;stroke-linejoin:miter;stroke-width:1.5;"/>
    </defs>
    <g>
     <use style="fill-opacity:0;stroke:#00bfbf;stroke-linejoin:miter;stroke-width:1.5;" x="150.454969" xlink:href="#mf2e36c8413" y="252.068939"/>
     <use style="fill-opacity:0;stroke:#00bfbf;stroke-linejoin:miter;stroke-width:1.5;" x="196.547265" xlink:href="#mf2e36c8413" y="246.802078"/>
     <use style="fill-opacity:0;stroke:#00bfbf;stroke-linejoin:miter;stroke-width:1.5;" x="196.547265" xlink:href="#mf2e36c8413" y="246.275392"/>
     <use style="fill-opacity:0;stroke:#00bfbf;stroke-linejoin:miter;stroke-width:1.5;" x="196.547265" xlink:href="#mf2e36c8413" y="246.275392"/>
     <use style="fill-opacity:0;stroke:#00bfbf;stroke-linejoin:miter;stroke-width:1.5;" x="338.688" xlink:href="#mf2e36c8413" y="246.275392"/>
    </g>
   </g>
   <g id="line2d_67">
    <path style="fill:none;stroke:#00bfbf;stroke-linecap:square;stroke-width:1.5;"/>
    <g/>
   </g>
   <g id="line2d_68">
    <path clip-path="url(#pb5473229d5)" d="M 165.978297 249.962195 
" style="fill:none;stroke:#00bfbf;stroke-linecap:square;stroke-width:1.5;"/>
    <defs>
     <path d="M -12 12 
L 12 -12 
M -12 -12 
L 12 12 
" id="m03b5aed067" style="stroke:#00bfbf;"/>
    </defs>
    <g clip-path="url(#pb5473229d5)">
     <use style="fill:#00bfbf;stroke:#00bfbf;" x="165.978297" xlink:href="#m03b5aed067" y="249.962195"/>
    </g>
   </g>
   <g id="line2d_69">
    <path d="M 338.688 251.542253 
L 369.60768 293.571802 
" style="fill:none;stroke:#9acd32;stroke-linecap:square;stroke-width:1.5;"/>
    <g>
     <use style="fill-opacity:0;stroke:#9acd32;stroke-linejoin:miter;stroke-width:1.5;" x="338.688" xlink:href="#m8197ce1765" y="251.542253"/>
     <use style="fill-opacity:0;stroke:#9acd32;stroke-linejoin:miter;stroke-width:1.5;" x="369.60768" xlink:href="#m8197ce1765" y="293.571802"/>
    </g>
   </g>
   <g id="line2d_70">
    <path d="M 338.688 246.275392 
L 369.60768 256.733873 
" style="fill:none;stroke:#ff0000;stroke-linecap:square;stroke-width:1.5;"/>
    <g>
     <use style="fill-opacity:0;stroke:#ff0000;stroke-linejoin:miter;stroke-width:1.5;" x="338.688" xlink:href="#m88c101a8eb" y="246.275392"/>
     <use style="fill-opacity:0;stroke:#ff0000;stroke-linejoin:miter;stroke-width:1.5;" x="369.60768" xlink:href="#m88c101a8eb" y="256.733873"/>
    </g>
   </g>
   <g id="line2d_71">
    <path d="M 338.688 246.275392 
L 369.60768 219.895943 
" style="fill:none;stroke:#6495ed;stroke-linecap:square;stroke-width:1.5;"/>
    <g>
     <use style="fill-opacity:0;stroke:#6495ed;stroke-linejoin:miter;stroke-width:1.5;" x="338.688" xlink:href="#md91378b4fe" y="246.275392"/>
     <use style="fill-opacity:0;stroke:#6495ed;stroke-linejoin:miter;stroke-width:1.5;" x="369.60768" xlink:href="#md91378b4fe" y="219.895943"/>
    </g>
   </g>
   <g id="line2d_72">
    <path d="M 338.688 246.275392 
L 369.60768 183.058014 
" style="fill:none;stroke:#00bfbf;stroke-linecap:square;stroke-width:1.5;"/>
    <g>
     <use style="fill-opacity:0;stroke:#00bfbf;stroke-linejoin:miter;stroke-width:1.5;" x="338.688" xlink:href="#mf2e36c8413" y="246.275392"/>
     <use style="fill-opacity:0;stroke:#00bfbf;stroke-linejoin:miter;stroke-width:1.5;" x="369.60768" xlink:href="#mf2e36c8413" y="183.058014"/>
    </g>
   </g>
   <g id="line2d_73">
    <path d="M 338.688 241.008531 
L 369.60768 146.220085 
" style="fill:none;stroke:#000080;stroke-linecap:square;stroke-width:1.5;"/>
    <g>
     <use style="fill-opacity:0;stroke:#000080;stroke-width:1.5;" x="338.688" xlink:href="#m8dc7f5ac88" y="241.008531"/>
     <use style="fill-opacity:0;stroke:#000080;stroke-width:1.5;" x="369.60768" xlink:href="#m8dc7f5ac88" y="146.220085"/>
    </g>
   </g>
   <g id="line2d_74">
    <path d="M 338.688 235.74167 
L 369.60768 109.382156 
" style="fill:none;stroke:#ff00ff;stroke-linecap:square;stroke-width:1.5;"/>
    <g>
     <use style="fill-opacity:0;stroke:#ff00ff;stroke-linejoin:miter;stroke-width:1.5;" x="338.688" xlink:href="#m10b815847b" y="235.74167"/>
     <use style="fill-opacity:0;stroke:#ff00ff;stroke-linejoin:miter;stroke-width:1.5;" x="369.60768" xlink:href="#m10b815847b" y="109.382156"/>
    </g>
   </g>
   <g id="line2d_75">
    <path d="M 338.688 235.74167 
L 369.60768 72.544226 
" style="fill:none;stroke:#ff7500;stroke-linecap:square;stroke-width:1.5;"/>
    <g>
     <use style="fill-opacity:0;stroke:#ff7500;stroke-linejoin:bevel;stroke-width:1.5;" x="338.688" xlink:href="#m01fa0528a7" y="235.74167"/>
     <use style="fill-opacity:0;stroke:#ff7500;stroke-linejoin:bevel;stroke-width:1.5;" x="369.60768" xlink:href="#m01fa0528a7" y="72.544226"/>
    </g>
   </g>
   <g id="line2d_76">
    <path d="M 338.688 298.944 
L 338.688 30.334099 
" style="fill:none;stroke:#000000;stroke-linecap:square;stroke-width:1.5;"/>
   </g>
   <g id="patch_3">
    <path d="M 57.6 298.944 
L 57.6 27.648 
" style="fill:none;stroke:#000000;stroke-linecap:square;stroke-linejoin:miter;stroke-width:0.8;"/>
   </g>
   <g id="patch_4">
    <path d="M 338.688 298.944 
L 338.688 27.648 
" style="fill:none;stroke:#000000;stroke-linecap:square;stroke-linejoin:miter;stroke-width:0.8;"/>
   </g>
   <g id="patch_5">
    <path d="M 57.6 298.944 
L 338.688 298.944 
" style="fill:none;stroke:#000000;stroke-linecap:square;stroke-linejoin:miter;stroke-width:0.8;"/>
   </g>
   <g id="patch_6">
    <path d="M 57.6 27.648 
L 338.688 27.648 
" style="fill:none;stroke:#000000;stroke-linecap:square;stroke-linejoin:miter;stroke-width:0.8;"/>
   </g>
   <g id="text_13">
    <!-- DEAE -->
    <g transform="translate(375.22944 298.262739)scale(0.17 -0.17)">
     <defs>
      <path d="M 1259 4147 
L 1259 519 
L 2022 519 
Q 2988 519 3436 956 
Q 3884 1394 3884 2338 
Q 3884 3275 3436 3711 
Q 2988 4147 2022 4147 
L 1259 4147 
z
M 628 4666 
L 1925 4666 
Q 3281 4666 3915 4102 
Q 4550 3538 4550 2338 
Q 4550 1131 3912 565 
Q 3275 0 1925 0 
L 628 0 
L 628 4666 
z
" id="DejaVuSans-44" transform="scale(0.015625)"/>
      <path d="M 628 4666 
L 3578 4666 
L 3578 4134 
L 1259 4134 
L 1259 2753 
L 3481 2753 
L 3481 2222 
L 1259 2222 
L 1259 531 
L 3634 531 
L 3634 0 
L 628 0 
L 628 4666 
z
" id="DejaVuSans-45" transform="scale(0.015625)"/>
      <path d="M 2188 4044 
L 1331 1722 
L 3047 1722 
L 2188 4044 
z
M 1831 4666 
L 2547 4666 
L 4325 0 
L 3669 0 
L 3244 1197 
L 1141 1197 
L 716 0 
L 50 0 
L 1831 4666 
z
" id="DejaVuSans-41" transform="scale(0.015625)"/>
     </defs>
     <use xlink:href="#DejaVuSans-44"/>
     <use x="77.001953" xlink:href="#DejaVuSans-45"/>
     <use x="140.185547" xlink:href="#DejaVuSans-41"/>
     <use x="208.59375" xlink:href="#DejaVuSans-45"/>
    </g>
   </g>
   <g id="text_14">
    <!-- DE -->
    <g transform="translate(375.22944 261.42481)scale(0.17 -0.17)">
     <use xlink:href="#DejaVuSans-44"/>
     <use x="77.001953" xlink:href="#DejaVuSans-45"/>
    </g>
   </g>
   <g id="text_15">
    <!-- PSO EDA -->
    <g transform="translate(375.22944 224.586881)scale(0.17 -0.17)">
     <defs>
      <path d="M 1259 4147 
L 1259 2394 
L 2053 2394 
Q 2494 2394 2734 2622 
Q 2975 2850 2975 3272 
Q 2975 3691 2734 3919 
Q 2494 4147 2053 4147 
L 1259 4147 
z
M 628 4666 
L 2053 4666 
Q 2838 4666 3239 4311 
Q 3641 3956 3641 3272 
Q 3641 2581 3239 2228 
Q 2838 1875 2053 1875 
L 1259 1875 
L 1259 0 
L 628 0 
L 628 4666 
z
" id="DejaVuSans-50" transform="scale(0.015625)"/>
      <path d="M 3425 4513 
L 3425 3897 
Q 3066 4069 2747 4153 
Q 2428 4238 2131 4238 
Q 1616 4238 1336 4038 
Q 1056 3838 1056 3469 
Q 1056 3159 1242 3001 
Q 1428 2844 1947 2747 
L 2328 2669 
Q 3034 2534 3370 2195 
Q 3706 1856 3706 1288 
Q 3706 609 3251 259 
Q 2797 -91 1919 -91 
Q 1588 -91 1214 -16 
Q 841 59 441 206 
L 441 856 
Q 825 641 1194 531 
Q 1563 422 1919 422 
Q 2459 422 2753 634 
Q 3047 847 3047 1241 
Q 3047 1584 2836 1778 
Q 2625 1972 2144 2069 
L 1759 2144 
Q 1053 2284 737 2584 
Q 422 2884 422 3419 
Q 422 4038 858 4394 
Q 1294 4750 2059 4750 
Q 2388 4750 2728 4690 
Q 3069 4631 3425 4513 
z
" id="DejaVuSans-53" transform="scale(0.015625)"/>
      <path d="M 2522 4238 
Q 1834 4238 1429 3725 
Q 1025 3213 1025 2328 
Q 1025 1447 1429 934 
Q 1834 422 2522 422 
Q 3209 422 3611 934 
Q 4013 1447 4013 2328 
Q 4013 3213 3611 3725 
Q 3209 4238 2522 4238 
z
M 2522 4750 
Q 3503 4750 4090 4092 
Q 4678 3434 4678 2328 
Q 4678 1225 4090 567 
Q 3503 -91 2522 -91 
Q 1538 -91 948 565 
Q 359 1222 359 2328 
Q 359 3434 948 4092 
Q 1538 4750 2522 4750 
z
" id="DejaVuSans-4f" transform="scale(0.015625)"/>
     </defs>
     <use xlink:href="#DejaVuSans-50"/>
     <use x="60.302734" xlink:href="#DejaVuSans-53"/>
     <use x="123.779297" xlink:href="#DejaVuSans-4f"/>
     <use x="202.490234" xlink:href="#DejaVuSans-20"/>
     <use x="234.277344" xlink:href="#DejaVuSans-45"/>
     <use x="297.460938" xlink:href="#DejaVuSans-44"/>
     <use x="372.712891" xlink:href="#DejaVuSans-41"/>
    </g>
   </g>
   <g id="text_16">
    <!-- JADE -->
    <g transform="translate(375.22944 187.748952)scale(0.17 -0.17)">
     <defs>
      <path d="M 628 4666 
L 1259 4666 
L 1259 325 
Q 1259 -519 939 -900 
Q 619 -1281 -91 -1281 
L -331 -1281 
L -331 -750 
L -134 -750 
Q 284 -750 456 -515 
Q 628 -281 628 325 
L 628 4666 
z
" id="DejaVuSans-4a" transform="scale(0.015625)"/>
     </defs>
     <use xlink:href="#DejaVuSans-4a"/>
     <use x="27.742188" xlink:href="#DejaVuSans-41"/>
     <use x="96.150391" xlink:href="#DejaVuSans-44"/>
     <use x="173.152344" xlink:href="#DejaVuSans-45"/>
    </g>
   </g>
   <g id="text_17">
    <!-- Bin GA -->
    <g transform="translate(375.22944 150.911022)scale(0.17 -0.17)">
     <defs>
      <path d="M 1259 2228 
L 1259 519 
L 2272 519 
Q 2781 519 3026 730 
Q 3272 941 3272 1375 
Q 3272 1813 3026 2020 
Q 2781 2228 2272 2228 
L 1259 2228 
z
M 1259 4147 
L 1259 2741 
L 2194 2741 
Q 2656 2741 2882 2914 
Q 3109 3088 3109 3444 
Q 3109 3797 2882 3972 
Q 2656 4147 2194 4147 
L 1259 4147 
z
M 628 4666 
L 2241 4666 
Q 2963 4666 3353 4366 
Q 3744 4066 3744 3513 
Q 3744 3084 3544 2831 
Q 3344 2578 2956 2516 
Q 3422 2416 3680 2098 
Q 3938 1781 3938 1306 
Q 3938 681 3513 340 
Q 3088 0 2303 0 
L 628 0 
L 628 4666 
z
" id="DejaVuSans-42" transform="scale(0.015625)"/>
      <path d="M 3809 666 
L 3809 1919 
L 2778 1919 
L 2778 2438 
L 4434 2438 
L 4434 434 
Q 4069 175 3628 42 
Q 3188 -91 2688 -91 
Q 1594 -91 976 548 
Q 359 1188 359 2328 
Q 359 3472 976 4111 
Q 1594 4750 2688 4750 
Q 3144 4750 3555 4637 
Q 3966 4525 4313 4306 
L 4313 3634 
Q 3963 3931 3569 4081 
Q 3175 4231 2741 4231 
Q 1884 4231 1454 3753 
Q 1025 3275 1025 2328 
Q 1025 1384 1454 906 
Q 1884 428 2741 428 
Q 3075 428 3337 486 
Q 3600 544 3809 666 
z
" id="DejaVuSans-47" transform="scale(0.015625)"/>
     </defs>
     <use xlink:href="#DejaVuSans-42"/>
     <use x="68.603516" xlink:href="#DejaVuSans-69"/>
     <use x="96.386719" xlink:href="#DejaVuSans-6e"/>
     <use x="159.765625" xlink:href="#DejaVuSans-20"/>
     <use x="191.552734" xlink:href="#DejaVuSans-47"/>
     <use x="269.042969" xlink:href="#DejaVuSans-41"/>
    </g>
   </g>
   <g id="text_18">
    <!-- PSO -->
    <g transform="translate(375.22944 114.073093)scale(0.17 -0.17)">
     <use xlink:href="#DejaVuSans-50"/>
     <use x="60.302734" xlink:href="#DejaVuSans-53"/>
     <use x="123.779297" xlink:href="#DejaVuSans-4f"/>
    </g>
   </g>
   <g id="text_19">
    <!-- PSO Bound -->
    <g transform="translate(375.22944 77.235164)scale(0.17 -0.17)">
     <use xlink:href="#DejaVuSans-50"/>
     <use x="60.302734" xlink:href="#DejaVuSans-53"/>
     <use x="123.779297" xlink:href="#DejaVuSans-4f"/>
     <use x="202.490234" xlink:href="#DejaVuSans-20"/>
     <use x="234.277344" xlink:href="#DejaVuSans-42"/>
     <use x="302.880859" xlink:href="#DejaVuSans-6f"/>
     <use x="364.0625" xlink:href="#DejaVuSans-75"/>
     <use x="427.441406" xlink:href="#DejaVuSans-6e"/>
     <use x="490.820312" xlink:href="#DejaVuSans-64"/>
    </g>
   </g>
   <g id="text_20">
    <!-- best 2009 -->
    <g transform="translate(375.22944 40.397235)scale(0.17 -0.17)">
     <defs>
      <path d="M 3116 1747 
Q 3116 2381 2855 2742 
Q 2594 3103 2138 3103 
Q 1681 3103 1420 2742 
Q 1159 2381 1159 1747 
Q 1159 1113 1420 752 
Q 1681 391 2138 391 
Q 2594 391 2855 752 
Q 3116 1113 3116 1747 
z
M 1159 2969 
Q 1341 3281 1617 3432 
Q 1894 3584 2278 3584 
Q 2916 3584 3314 3078 
Q 3713 2572 3713 1747 
Q 3713 922 3314 415 
Q 2916 -91 2278 -91 
Q 1894 -91 1617 61 
Q 1341 213 1159 525 
L 1159 0 
L 581 0 
L 581 4863 
L 1159 4863 
L 1159 2969 
z
" id="DejaVuSans-62" transform="scale(0.015625)"/>
      <path d="M 703 97 
L 703 672 
Q 941 559 1184 500 
Q 1428 441 1663 441 
Q 2288 441 2617 861 
Q 2947 1281 2994 2138 
Q 2813 1869 2534 1725 
Q 2256 1581 1919 1581 
Q 1219 1581 811 2004 
Q 403 2428 403 3163 
Q 403 3881 828 4315 
Q 1253 4750 1959 4750 
Q 2769 4750 3195 4129 
Q 3622 3509 3622 2328 
Q 3622 1225 3098 567 
Q 2575 -91 1691 -91 
Q 1453 -91 1209 -44 
Q 966 3 703 97 
z
M 1959 2075 
Q 2384 2075 2632 2365 
Q 2881 2656 2881 3163 
Q 2881 3666 2632 3958 
Q 2384 4250 1959 4250 
Q 1534 4250 1286 3958 
Q 1038 3666 1038 3163 
Q 1038 2656 1286 2365 
Q 1534 2075 1959 2075 
z
" id="DejaVuSans-39" transform="scale(0.015625)"/>
     </defs>
     <use xlink:href="#DejaVuSans-62"/>
     <use x="63.476562" xlink:href="#DejaVuSans-65"/>
     <use x="125" xlink:href="#DejaVuSans-73"/>
     <use x="177.099609" xlink:href="#DejaVuSans-74"/>
     <use x="216.308594" xlink:href="#DejaVuSans-20"/>
     <use x="248.095703" xlink:href="#DejaVuSans-32"/>
     <use x="311.71875" xlink:href="#DejaVuSans-30"/>
     <use x="375.341797" xlink:href="#DejaVuSans-30"/>
     <use x="438.964844" xlink:href="#DejaVuSans-39"/>
    </g>
   </g>
   <g id="text_21">
    <!-- bbob f20, 10-D -->
    <g transform="translate(60.41088 38.111366)scale(0.102 -0.102)">
     <use xlink:href="#DejaVuSans-62"/>
     <use x="63.476562" xlink:href="#DejaVuSans-62"/>
     <use x="126.953125" xlink:href="#DejaVuSans-6f"/>
     <use x="188.134766" xlink:href="#DejaVuSans-62"/>
     <use x="251.611328" xlink:href="#DejaVuSans-20"/>
     <use x="283.398438" xlink:href="#DejaVuSans-66"/>
     <use x="318.603516" xlink:href="#DejaVuSans-32"/>
     <use x="382.226562" xlink:href="#DejaVuSans-30"/>
     <use x="445.849609" xlink:href="#DejaVuSans-2c"/>
     <use x="477.636719" xlink:href="#DejaVuSans-20"/>
     <use x="509.423828" xlink:href="#DejaVuSans-31"/>
     <use x="573.046875" xlink:href="#DejaVuSans-30"/>
     <use x="636.669922" xlink:href="#DejaVuSans-2d"/>
     <use x="672.753906" xlink:href="#DejaVuSans-44"/>
    </g>
    <!-- 51 targets: 100..1e-08 -->
    <g transform="translate(60.41088 49.533135)scale(0.102 -0.102)">
     <defs>
      <path d="M 691 4666 
L 3169 4666 
L 3169 4134 
L 1269 4134 
L 1269 2991 
Q 1406 3038 1543 3061 
Q 1681 3084 1819 3084 
Q 2600 3084 3056 2656 
Q 3513 2228 3513 1497 
Q 3513 744 3044 326 
Q 2575 -91 1722 -91 
Q 1428 -91 1123 -41 
Q 819 9 494 109 
L 494 744 
Q 775 591 1075 516 
Q 1375 441 1709 441 
Q 2250 441 2565 725 
Q 2881 1009 2881 1497 
Q 2881 1984 2565 2268 
Q 2250 2553 1709 2553 
Q 1456 2553 1204 2497 
Q 953 2441 691 2322 
L 691 4666 
z
" id="DejaVuSans-35" transform="scale(0.015625)"/>
      <path d="M 750 794 
L 1409 794 
L 1409 0 
L 750 0 
L 750 794 
z
M 750 3309 
L 1409 3309 
L 1409 2516 
L 750 2516 
L 750 3309 
z
" id="DejaVuSans-3a" transform="scale(0.015625)"/>
     </defs>
     <use xlink:href="#DejaVuSans-35"/>
     <use x="63.623047" xlink:href="#DejaVuSans-31"/>
     <use x="127.246094" xlink:href="#DejaVuSans-20"/>
     <use x="159.033203" xlink:href="#DejaVuSans-74"/>
     <use x="198.242188" xlink:href="#DejaVuSans-61"/>
     <use x="259.521484" xlink:href="#DejaVuSans-72"/>
     <use x="298.884766" xlink:href="#DejaVuSans-67"/>
     <use x="362.361328" xlink:href="#DejaVuSans-65"/>
     <use x="423.884766" xlink:href="#DejaVuSans-74"/>
     <use x="463.09375" xlink:href="#DejaVuSans-73"/>
     <use x="515.193359" xlink:href="#DejaVuSans-3a"/>
     <use x="548.884766" xlink:href="#DejaVuSans-20"/>
     <use x="580.671875" xlink:href="#DejaVuSans-31"/>
     <use x="644.294922" xlink:href="#DejaVuSans-30"/>
     <use x="707.917969" xlink:href="#DejaVuSans-30"/>
     <use x="771.541016" xlink:href="#DejaVuSans-2e"/>
     <use x="803.328125" xlink:href="#DejaVuSans-2e"/>
     <use x="835.115234" xlink:href="#DejaVuSans-31"/>
     <use x="898.738281" xlink:href="#DejaVuSans-65"/>
     <use x="960.261719" xlink:href="#DejaVuSans-2d"/>
     <use x="996.345703" xlink:href="#DejaVuSans-30"/>
     <use x="1059.96875" xlink:href="#DejaVuSans-38"/>
    </g>
    <!-- 15 instances -->
    <g transform="translate(60.41088 60.954904)scale(0.102 -0.102)">
     <use xlink:href="#DejaVuSans-31"/>
     <use x="63.623047" xlink:href="#DejaVuSans-35"/>
     <use x="127.246094" xlink:href="#DejaVuSans-20"/>
     <use x="159.033203" xlink:href="#DejaVuSans-69"/>
     <use x="186.816406" xlink:href="#DejaVuSans-6e"/>
     <use x="250.195312" xlink:href="#DejaVuSans-73"/>
     <use x="302.294922" xlink:href="#DejaVuSans-74"/>
     <use x="341.503906" xlink:href="#DejaVuSans-61"/>
     <use x="402.783203" xlink:href="#DejaVuSans-6e"/>
     <use x="466.162109" xlink:href="#DejaVuSans-63"/>
     <use x="521.142578" xlink:href="#DejaVuSans-65"/>
     <use x="582.666016" xlink:href="#DejaVuSans-73"/>
    </g>
   </g>
   <g id="text_22">
    <!-- v2.4 -->
    <g style="fill:#808080;" transform="translate(187.233062 294.151352)scale(0.1 -0.1)">
     <use xlink:href="#DejaVuSans-76"/>
     <use x="59.179688" xlink:href="#DejaVuSans-32"/>
     <use x="122.802734" xlink:href="#DejaVuSans-2e"/>
     <use x="154.589844" xlink:href="#DejaVuSans-34"/>
    </g>
   </g>
   <g id="text_23">
    <!-- 20 Schwefel x*sin(x) -->
    <g transform="translate(95.129937 21.648)scale(0.2 -0.2)">
     <defs>
      <path d="M 3513 2113 
L 3513 0 
L 2938 0 
L 2938 2094 
Q 2938 2591 2744 2837 
Q 2550 3084 2163 3084 
Q 1697 3084 1428 2787 
Q 1159 2491 1159 1978 
L 1159 0 
L 581 0 
L 581 4863 
L 1159 4863 
L 1159 2956 
Q 1366 3272 1645 3428 
Q 1925 3584 2291 3584 
Q 2894 3584 3203 3211 
Q 3513 2838 3513 2113 
z
" id="DejaVuSans-68" transform="scale(0.015625)"/>
      <path d="M 269 3500 
L 844 3500 
L 1563 769 
L 2278 3500 
L 2956 3500 
L 3675 769 
L 4391 3500 
L 4966 3500 
L 4050 0 
L 3372 0 
L 2619 2869 
L 1863 0 
L 1184 0 
L 269 3500 
z
" id="DejaVuSans-77" transform="scale(0.015625)"/>
      <path d="M 3513 3500 
L 2247 1797 
L 3578 0 
L 2900 0 
L 1881 1375 
L 863 0 
L 184 0 
L 1544 1831 
L 300 3500 
L 978 3500 
L 1906 2253 
L 2834 3500 
L 3513 3500 
z
" id="DejaVuSans-78" transform="scale(0.015625)"/>
      <path d="M 3009 3897 
L 1888 3291 
L 3009 2681 
L 2828 2375 
L 1778 3009 
L 1778 1831 
L 1422 1831 
L 1422 3009 
L 372 2375 
L 191 2681 
L 1313 3291 
L 191 3897 
L 372 4206 
L 1422 3572 
L 1422 4750 
L 1778 4750 
L 1778 3572 
L 2828 4206 
L 3009 3897 
z
" id="DejaVuSans-2a" transform="scale(0.015625)"/>
     </defs>
     <use xlink:href="#DejaVuSans-32"/>
     <use x="63.623047" xlink:href="#DejaVuSans-30"/>
     <use x="127.246094" xlink:href="#DejaVuSans-20"/>
     <use x="159.033203" xlink:href="#DejaVuSans-53"/>
     <use x="222.509766" xlink:href="#DejaVuSans-63"/>
     <use x="277.490234" xlink:href="#DejaVuSans-68"/>
     <use x="340.869141" xlink:href="#DejaVuSans-77"/>
     <use x="422.65625" xlink:href="#DejaVuSans-65"/>
     <use x="484.179688" xlink:href="#DejaVuSans-66"/>
     <use x="519.384766" xlink:href="#DejaVuSans-65"/>
     <use x="580.908203" xlink:href="#DejaVuSans-6c"/>
     <use x="608.691406" xlink:href="#DejaVuSans-20"/>
     <use x="640.478516" xlink:href="#DejaVuSans-78"/>
     <use x="699.658203" xlink:href="#DejaVuSans-2a"/>
     <use x="749.658203" xlink:href="#DejaVuSans-73"/>
     <use x="801.757812" xlink:href="#DejaVuSans-69"/>
     <use x="829.541016" xlink:href="#DejaVuSans-6e"/>
     <use x="892.919922" xlink:href="#DejaVuSans-28"/>
     <use x="931.933594" xlink:href="#DejaVuSans-78"/>
     <use x="991.113281" xlink:href="#DejaVuSans-29"/>
    </g>
   </g>
  </g>
 </g>
 <defs>
  <clipPath id="pb5473229d5">
   <rect height="271.296" width="281.088" x="57.6" y="27.648"/>
  </clipPath>
 </defs>
</svg>
