<?xml version="1.0" encoding="utf-8" standalone="no"?>
<!DOCTYPE svg PUBLIC "-//W3C//DTD SVG 1.1//EN"
  "http://www.w3.org/Graphics/SVG/1.1/DTD/svg11.dtd">
<svg height="345.6pt" version="1.1" viewBox="0 0 460.8 345.6" width="460.8pt" xmlns="http://www.w3.org/2000/svg" xmlns:xlink="http://www.w3.org/1999/xlink">
 <metadata>
  <rdf:RDF xmlns:cc="http://creativecommons.org/ns#" xmlns:dc="http://purl.org/dc/elements/1.1/" xmlns:rdf="http://www.w3.org/1999/02/22-rdf-syntax-ns#">
   <cc:Work>
    <dc:type rdf:resource="http://purl.org/dc/dcmitype/StillImage"/>
    <dc:date>2021-04-30T23:10:40.368823</dc:date>
    <dc:format>image/svg+xml</dc:format>
    <dc:creator>
     <cc:Agent>
      <dc:title>Matplotlib v3.4.1, https://matplotlib.org/</dc:title>
     </cc:Agent>
    </dc:creator>
   </cc:Work>
  </rdf:RDF>
 </metadata>
 <defs>
  <style type="text/css">*{stroke-linecap:butt;stroke-linejoin:round;}</style>
 </defs>
 <g id="figure_1">
  <g id="patch_1">
   <path d="M 0 345.6 
L 460.8 345.6 
L 460.8 0 
L 0 0 
z
" style="fill:#ffffff;"/>
  </g>
  <g id="axes_1">
   <g id="patch_2">
    <path d="M 57.6 298.944 
L 338.688 298.944 
L 338.688 27.648 
L 57.6 27.648 
z
" style="fill:#ffffff;"/>
   </g>
   <g id="line2d_1">
    <path d="M 93.422441 298.944 
L 93.422441 293.677139 
L 105.285403 293.677139 
L 105.285403 288.410278 
L 110.016944 288.410278 
L 110.016944 283.143418 
L 114.947365 283.143418 
L 114.947365 277.876557 
L 118.310324 277.876557 
L 118.310324 272.609696 
L 121.355214 272.609696 
L 121.355214 267.342835 
L 123.233135 267.342835 
L 123.233135 262.075974 
L 125.110962 262.075974 
L 125.110962 256.809114 
L 126.540355 256.809114 
L 126.540355 251.542253 
L 127.861412 251.542253 
L 127.861412 246.275392 
L 128.885774 246.275392 
L 128.885774 241.008531 
L 129.853291 241.008531 
L 129.853291 235.74167 
L 131.030622 235.74167 
L 131.030622 230.47481 
L 132.157744 230.47481 
L 132.157744 225.207949 
L 133.216421 225.207949 
L 133.216421 219.941088 
L 133.953874 219.941088 
L 133.953874 214.674227 
L 134.911732 214.674227 
L 134.911732 209.407366 
L 135.621981 209.407366 
L 135.621981 204.140506 
L 136.456742 204.140506 
L 136.456742 198.873645 
L 137.271464 198.873645 
L 137.271464 193.606784 
L 138.153314 193.606784 
L 138.153314 188.339923 
L 138.976312 188.339923 
L 138.976312 183.073062 
L 161.356752 183.073062 
L 161.356752 177.806202 
L 163.311515 177.806202 
L 163.311515 172.539341 
L 163.914652 172.539341 
L 163.914652 167.27248 
L 164.474827 167.27248 
L 164.474827 162.005619 
L 165.00282 162.005619 
L 165.00282 156.738758 
L 165.576079 156.738758 
L 165.576079 151.471897 
L 166.162181 151.471897 
L 166.162181 146.205037 
L 166.652214 146.205037 
L 166.652214 140.938176 
L 167.128854 140.938176 
L 167.128854 135.671315 
L 167.621403 135.671315 
L 167.621403 130.404454 
L 168.263336 130.404454 
L 168.263336 125.137593 
L 168.749091 125.137593 
L 168.749091 119.870733 
L 169.218785 119.870733 
L 169.218785 114.603872 
L 169.752173 114.603872 
L 169.752173 109.337011 
L 170.277909 109.337011 
L 170.277909 104.07015 
L 170.65273 104.07015 
L 170.65273 98.803289 
L 171.079642 98.803289 
L 171.079642 93.536429 
L 171.419931 93.536429 
L 171.419931 88.269568 
L 171.868539 88.269568 
L 171.868539 83.002707 
L 172.228073 83.002707 
L 172.228073 77.735846 
L 172.618521 77.735846 
L 172.618521 72.468985 
L 173.028377 72.468985 
L 173.028377 67.202125 
L 173.358148 67.202125 
L 173.358148 61.935264 
L 173.686283 61.935264 
L 173.686283 56.668403 
L 174.036945 56.668403 
L 174.036945 51.401542 
L 174.341873 51.401542 
L 174.341873 46.134681 
L 174.686074 46.134681 
L 174.686074 40.867821 
L 174.973708 40.867821 
L 174.973708 35.60096 
L 175.320072 35.60096 
L 175.320072 30.334099 
L 338.688 30.334099 
" style="fill:none;stroke:#f5deb3;stroke-linecap:square;stroke-width:4;"/>
   </g>
   <g id="line2d_2">
    <defs>
     <path d="M 0 7.778175 
L 7.778175 0 
L 0 -7.778175 
L -7.778175 0 
z
" id="m9025836414" style="stroke:#f5deb3;stroke-linejoin:miter;stroke-width:1.5;"/>
    </defs>
    <g>
     <use style="fill:#f5deb3;stroke:#f5deb3;stroke-linejoin:miter;stroke-width:1.5;" x="161.356752" xlink:href="#m9025836414" y="183.073062"/>
     <use style="fill:#f5deb3;stroke:#f5deb3;stroke-linejoin:miter;stroke-width:1.5;" x="175.320072" xlink:href="#m9025836414" y="35.60096"/>
     <use style="fill:#f5deb3;stroke:#f5deb3;stroke-linejoin:miter;stroke-width:1.5;" x="175.320072" xlink:href="#m9025836414" y="30.334099"/>
     <use style="fill:#f5deb3;stroke:#f5deb3;stroke-linejoin:miter;stroke-width:1.5;" x="175.320072" xlink:href="#m9025836414" y="30.334099"/>
     <use style="fill:#f5deb3;stroke:#f5deb3;stroke-linejoin:miter;stroke-width:1.5;" x="338.688" xlink:href="#m9025836414" y="30.334099"/>
    </g>
   </g>
   <g id="line2d_3">
    <path style="fill:none;stroke:#f5deb3;stroke-linecap:square;stroke-width:4;"/>
    <g/>
   </g>
   <g id="line2d_4">
    <path d="M 338.688 30.334099 
L 369.60768 35.706297 
" style="fill:none;stroke:#f5deb3;stroke-linecap:square;stroke-width:4;"/>
    <g>
     <use style="fill:#f5deb3;stroke:#f5deb3;stroke-linejoin:miter;stroke-width:1.5;" x="338.688" xlink:href="#m9025836414" y="30.334099"/>
     <use style="fill:#f5deb3;stroke:#f5deb3;stroke-linejoin:miter;stroke-width:1.5;" x="369.60768" xlink:href="#m9025836414" y="35.706297"/>
    </g>
   </g>
   <g id="matplotlib.axis_1">
    <g id="xtick_1">
     <g id="line2d_5">
      <path clip-path="url(#p6786353cf5)" d="M 57.6 298.944 
L 57.6 27.648 
" style="fill:none;stroke:#b0b0b0;stroke-linecap:square;stroke-width:0.8;"/>
     </g>
     <g id="line2d_6">
      <defs>
       <path d="M 0 0 
L 0 3.5 
" id="m2e60871e0a" style="stroke:#000000;stroke-width:0.8;"/>
      </defs>
      <g>
       <use style="stroke:#000000;stroke-width:0.8;" x="57.6" xlink:href="#m2e60871e0a" y="298.944"/>
      </g>
     </g>
     <g id="text_1">
      <!-- 0 -->
      <g transform="translate(51.2375 321.140875)scale(0.2 -0.2)">
       <defs>
        <path d="M 2034 4250 
Q 1547 4250 1301 3770 
Q 1056 3291 1056 2328 
Q 1056 1369 1301 889 
Q 1547 409 2034 409 
Q 2525 409 2770 889 
Q 3016 1369 3016 2328 
Q 3016 3291 2770 3770 
Q 2525 4250 2034 4250 
z
M 2034 4750 
Q 2819 4750 3233 4129 
Q 3647 3509 3647 2328 
Q 3647 1150 3233 529 
Q 2819 -91 2034 -91 
Q 1250 -91 836 529 
Q 422 1150 422 2328 
Q 422 3509 836 4129 
Q 1250 4750 2034 4750 
z
" id="DejaVuSans-30" transform="scale(0.015625)"/>
       </defs>
       <use xlink:href="#DejaVuSans-30"/>
      </g>
     </g>
    </g>
    <g id="xtick_2">
     <g id="line2d_7">
      <path clip-path="url(#p6786353cf5)" d="M 137.910857 298.944 
L 137.910857 27.648 
" style="fill:none;stroke:#b0b0b0;stroke-linecap:square;stroke-width:0.8;"/>
     </g>
     <g id="line2d_8">
      <g>
       <use style="stroke:#000000;stroke-width:0.8;" x="137.910857" xlink:href="#m2e60871e0a" y="298.944"/>
      </g>
     </g>
     <g id="text_2">
      <!-- 2 -->
      <g transform="translate(131.548357 321.140875)scale(0.2 -0.2)">
       <defs>
        <path d="M 1228 531 
L 3431 531 
L 3431 0 
L 469 0 
L 469 531 
Q 828 903 1448 1529 
Q 2069 2156 2228 2338 
Q 2531 2678 2651 2914 
Q 2772 3150 2772 3378 
Q 2772 3750 2511 3984 
Q 2250 4219 1831 4219 
Q 1534 4219 1204 4116 
Q 875 4013 500 3803 
L 500 4441 
Q 881 4594 1212 4672 
Q 1544 4750 1819 4750 
Q 2544 4750 2975 4387 
Q 3406 4025 3406 3419 
Q 3406 3131 3298 2873 
Q 3191 2616 2906 2266 
Q 2828 2175 2409 1742 
Q 1991 1309 1228 531 
z
" id="DejaVuSans-32" transform="scale(0.015625)"/>
       </defs>
       <use xlink:href="#DejaVuSans-32"/>
      </g>
     </g>
    </g>
    <g id="xtick_3">
     <g id="line2d_9">
      <path clip-path="url(#p6786353cf5)" d="M 218.221714 298.944 
L 218.221714 27.648 
" style="fill:none;stroke:#b0b0b0;stroke-linecap:square;stroke-width:0.8;"/>
     </g>
     <g id="line2d_10">
      <g>
       <use style="stroke:#000000;stroke-width:0.8;" x="218.221714" xlink:href="#m2e60871e0a" y="298.944"/>
      </g>
     </g>
     <g id="text_3">
      <!-- 4 -->
      <g transform="translate(211.859214 321.140875)scale(0.2 -0.2)">
       <defs>
        <path d="M 2419 4116 
L 825 1625 
L 2419 1625 
L 2419 4116 
z
M 2253 4666 
L 3047 4666 
L 3047 1625 
L 3713 1625 
L 3713 1100 
L 3047 1100 
L 3047 0 
L 2419 0 
L 2419 1100 
L 313 1100 
L 313 1709 
L 2253 4666 
z
" id="DejaVuSans-34" transform="scale(0.015625)"/>
       </defs>
       <use xlink:href="#DejaVuSans-34"/>
      </g>
     </g>
    </g>
    <g id="xtick_4">
     <g id="line2d_11">
      <path clip-path="url(#p6786353cf5)" d="M 298.532571 298.944 
L 298.532571 27.648 
" style="fill:none;stroke:#b0b0b0;stroke-linecap:square;stroke-width:0.8;"/>
     </g>
     <g id="line2d_12">
      <g>
       <use style="stroke:#000000;stroke-width:0.8;" x="298.532571" xlink:href="#m2e60871e0a" y="298.944"/>
      </g>
     </g>
     <g id="text_4">
      <!-- 6 -->
      <g transform="translate(292.170071 321.140875)scale(0.2 -0.2)">
       <defs>
        <path d="M 2113 2584 
Q 1688 2584 1439 2293 
Q 1191 2003 1191 1497 
Q 1191 994 1439 701 
Q 1688 409 2113 409 
Q 2538 409 2786 701 
Q 3034 994 3034 1497 
Q 3034 2003 2786 2293 
Q 2538 2584 2113 2584 
z
M 3366 4563 
L 3366 3988 
Q 3128 4100 2886 4159 
Q 2644 4219 2406 4219 
Q 1781 4219 1451 3797 
Q 1122 3375 1075 2522 
Q 1259 2794 1537 2939 
Q 1816 3084 2150 3084 
Q 2853 3084 3261 2657 
Q 3669 2231 3669 1497 
Q 3669 778 3244 343 
Q 2819 -91 2113 -91 
Q 1303 -91 875 529 
Q 447 1150 447 2328 
Q 447 3434 972 4092 
Q 1497 4750 2381 4750 
Q 2619 4750 2861 4703 
Q 3103 4656 3366 4563 
z
" id="DejaVuSans-36" transform="scale(0.015625)"/>
       </defs>
       <use xlink:href="#DejaVuSans-36"/>
      </g>
     </g>
    </g>
    <g id="xtick_5">
     <g id="line2d_13">
      <path clip-path="url(#p6786353cf5)" d="M 97.755429 298.944 
L 97.755429 27.648 
" style="fill:none;stroke:#b0b0b0;stroke-linecap:square;stroke-width:0.8;"/>
     </g>
     <g id="line2d_14">
      <defs>
       <path d="M 0 0 
L 0 2 
" id="ma4e95afaec" style="stroke:#000000;stroke-width:0.6;"/>
      </defs>
      <g>
       <use style="stroke:#000000;stroke-width:0.6;" x="97.755429" xlink:href="#ma4e95afaec" y="298.944"/>
      </g>
     </g>
    </g>
    <g id="xtick_6">
     <g id="line2d_15">
      <path clip-path="url(#p6786353cf5)" d="M 178.066286 298.944 
L 178.066286 27.648 
" style="fill:none;stroke:#b0b0b0;stroke-linecap:square;stroke-width:0.8;"/>
     </g>
     <g id="line2d_16">
      <g>
       <use style="stroke:#000000;stroke-width:0.6;" x="178.066286" xlink:href="#ma4e95afaec" y="298.944"/>
      </g>
     </g>
    </g>
    <g id="xtick_7">
     <g id="line2d_17">
      <path clip-path="url(#p6786353cf5)" d="M 258.377143 298.944 
L 258.377143 27.648 
" style="fill:none;stroke:#b0b0b0;stroke-linecap:square;stroke-width:0.8;"/>
     </g>
     <g id="line2d_18">
      <g>
       <use style="stroke:#000000;stroke-width:0.6;" x="258.377143" xlink:href="#ma4e95afaec" y="298.944"/>
      </g>
     </g>
    </g>
    <g id="xtick_8">
     <g id="line2d_19">
      <path clip-path="url(#p6786353cf5)" d="M 338.688 298.944 
L 338.688 27.648 
" style="fill:none;stroke:#b0b0b0;stroke-linecap:square;stroke-width:0.8;"/>
     </g>
     <g id="line2d_20">
      <g>
       <use style="stroke:#000000;stroke-width:0.6;" x="338.688" xlink:href="#ma4e95afaec" y="298.944"/>
      </g>
     </g>
    </g>
    <g id="text_5">
     <!-- log10(# f-evals / dimension) -->
     <g transform="translate(77.764078 342.217594)scale(0.17 -0.17)">
      <defs>
       <path d="M 603 4863 
L 1178 4863 
L 1178 0 
L 603 0 
L 603 4863 
z
" id="DejaVuSans-6c" transform="scale(0.015625)"/>
       <path d="M 1959 3097 
Q 1497 3097 1228 2736 
Q 959 2375 959 1747 
Q 959 1119 1226 758 
Q 1494 397 1959 397 
Q 2419 397 2687 759 
Q 2956 1122 2956 1747 
Q 2956 2369 2687 2733 
Q 2419 3097 1959 3097 
z
M 1959 3584 
Q 2709 3584 3137 3096 
Q 3566 2609 3566 1747 
Q 3566 888 3137 398 
Q 2709 -91 1959 -91 
Q 1206 -91 779 398 
Q 353 888 353 1747 
Q 353 2609 779 3096 
Q 1206 3584 1959 3584 
z
" id="DejaVuSans-6f" transform="scale(0.015625)"/>
       <path d="M 2906 1791 
Q 2906 2416 2648 2759 
Q 2391 3103 1925 3103 
Q 1463 3103 1205 2759 
Q 947 2416 947 1791 
Q 947 1169 1205 825 
Q 1463 481 1925 481 
Q 2391 481 2648 825 
Q 2906 1169 2906 1791 
z
M 3481 434 
Q 3481 -459 3084 -895 
Q 2688 -1331 1869 -1331 
Q 1566 -1331 1297 -1286 
Q 1028 -1241 775 -1147 
L 775 -588 
Q 1028 -725 1275 -790 
Q 1522 -856 1778 -856 
Q 2344 -856 2625 -561 
Q 2906 -266 2906 331 
L 2906 616 
Q 2728 306 2450 153 
Q 2172 0 1784 0 
Q 1141 0 747 490 
Q 353 981 353 1791 
Q 353 2603 747 3093 
Q 1141 3584 1784 3584 
Q 2172 3584 2450 3431 
Q 2728 3278 2906 2969 
L 2906 3500 
L 3481 3500 
L 3481 434 
z
" id="DejaVuSans-67" transform="scale(0.015625)"/>
       <path d="M 794 531 
L 1825 531 
L 1825 4091 
L 703 3866 
L 703 4441 
L 1819 4666 
L 2450 4666 
L 2450 531 
L 3481 531 
L 3481 0 
L 794 0 
L 794 531 
z
" id="DejaVuSans-31" transform="scale(0.015625)"/>
       <path d="M 1984 4856 
Q 1566 4138 1362 3434 
Q 1159 2731 1159 2009 
Q 1159 1288 1364 580 
Q 1569 -128 1984 -844 
L 1484 -844 
Q 1016 -109 783 600 
Q 550 1309 550 2009 
Q 550 2706 781 3412 
Q 1013 4119 1484 4856 
L 1984 4856 
z
" id="DejaVuSans-28" transform="scale(0.015625)"/>
       <path d="M 3272 2816 
L 2363 2816 
L 2100 1772 
L 3016 1772 
L 3272 2816 
z
M 2803 4594 
L 2478 3297 
L 3391 3297 
L 3719 4594 
L 4219 4594 
L 3897 3297 
L 4872 3297 
L 4872 2816 
L 3775 2816 
L 3519 1772 
L 4513 1772 
L 4513 1294 
L 3397 1294 
L 3072 0 
L 2572 0 
L 2894 1294 
L 1978 1294 
L 1656 0 
L 1153 0 
L 1478 1294 
L 494 1294 
L 494 1772 
L 1594 1772 
L 1856 2816 
L 850 2816 
L 850 3297 
L 1978 3297 
L 2297 4594 
L 2803 4594 
z
" id="DejaVuSans-23" transform="scale(0.015625)"/>
       <path id="DejaVuSans-20" transform="scale(0.015625)"/>
       <path d="M 2375 4863 
L 2375 4384 
L 1825 4384 
Q 1516 4384 1395 4259 
Q 1275 4134 1275 3809 
L 1275 3500 
L 2222 3500 
L 2222 3053 
L 1275 3053 
L 1275 0 
L 697 0 
L 697 3053 
L 147 3053 
L 147 3500 
L 697 3500 
L 697 3744 
Q 697 4328 969 4595 
Q 1241 4863 1831 4863 
L 2375 4863 
z
" id="DejaVuSans-66" transform="scale(0.015625)"/>
       <path d="M 313 2009 
L 1997 2009 
L 1997 1497 
L 313 1497 
L 313 2009 
z
" id="DejaVuSans-2d" transform="scale(0.015625)"/>
       <path d="M 3597 1894 
L 3597 1613 
L 953 1613 
Q 991 1019 1311 708 
Q 1631 397 2203 397 
Q 2534 397 2845 478 
Q 3156 559 3463 722 
L 3463 178 
Q 3153 47 2828 -22 
Q 2503 -91 2169 -91 
Q 1331 -91 842 396 
Q 353 884 353 1716 
Q 353 2575 817 3079 
Q 1281 3584 2069 3584 
Q 2775 3584 3186 3129 
Q 3597 2675 3597 1894 
z
M 3022 2063 
Q 3016 2534 2758 2815 
Q 2500 3097 2075 3097 
Q 1594 3097 1305 2825 
Q 1016 2553 972 2059 
L 3022 2063 
z
" id="DejaVuSans-65" transform="scale(0.015625)"/>
       <path d="M 191 3500 
L 800 3500 
L 1894 563 
L 2988 3500 
L 3597 3500 
L 2284 0 
L 1503 0 
L 191 3500 
z
" id="DejaVuSans-76" transform="scale(0.015625)"/>
       <path d="M 2194 1759 
Q 1497 1759 1228 1600 
Q 959 1441 959 1056 
Q 959 750 1161 570 
Q 1363 391 1709 391 
Q 2188 391 2477 730 
Q 2766 1069 2766 1631 
L 2766 1759 
L 2194 1759 
z
M 3341 1997 
L 3341 0 
L 2766 0 
L 2766 531 
Q 2569 213 2275 61 
Q 1981 -91 1556 -91 
Q 1019 -91 701 211 
Q 384 513 384 1019 
Q 384 1609 779 1909 
Q 1175 2209 1959 2209 
L 2766 2209 
L 2766 2266 
Q 2766 2663 2505 2880 
Q 2244 3097 1772 3097 
Q 1472 3097 1187 3025 
Q 903 2953 641 2809 
L 641 3341 
Q 956 3463 1253 3523 
Q 1550 3584 1831 3584 
Q 2591 3584 2966 3190 
Q 3341 2797 3341 1997 
z
" id="DejaVuSans-61" transform="scale(0.015625)"/>
       <path d="M 2834 3397 
L 2834 2853 
Q 2591 2978 2328 3040 
Q 2066 3103 1784 3103 
Q 1356 3103 1142 2972 
Q 928 2841 928 2578 
Q 928 2378 1081 2264 
Q 1234 2150 1697 2047 
L 1894 2003 
Q 2506 1872 2764 1633 
Q 3022 1394 3022 966 
Q 3022 478 2636 193 
Q 2250 -91 1575 -91 
Q 1294 -91 989 -36 
Q 684 19 347 128 
L 347 722 
Q 666 556 975 473 
Q 1284 391 1588 391 
Q 1994 391 2212 530 
Q 2431 669 2431 922 
Q 2431 1156 2273 1281 
Q 2116 1406 1581 1522 
L 1381 1569 
Q 847 1681 609 1914 
Q 372 2147 372 2553 
Q 372 3047 722 3315 
Q 1072 3584 1716 3584 
Q 2034 3584 2315 3537 
Q 2597 3491 2834 3397 
z
" id="DejaVuSans-73" transform="scale(0.015625)"/>
       <path d="M 1625 4666 
L 2156 4666 
L 531 -594 
L 0 -594 
L 1625 4666 
z
" id="DejaVuSans-2f" transform="scale(0.015625)"/>
       <path d="M 2906 2969 
L 2906 4863 
L 3481 4863 
L 3481 0 
L 2906 0 
L 2906 525 
Q 2725 213 2448 61 
Q 2172 -91 1784 -91 
Q 1150 -91 751 415 
Q 353 922 353 1747 
Q 353 2572 751 3078 
Q 1150 3584 1784 3584 
Q 2172 3584 2448 3432 
Q 2725 3281 2906 2969 
z
M 947 1747 
Q 947 1113 1208 752 
Q 1469 391 1925 391 
Q 2381 391 2643 752 
Q 2906 1113 2906 1747 
Q 2906 2381 2643 2742 
Q 2381 3103 1925 3103 
Q 1469 3103 1208 2742 
Q 947 2381 947 1747 
z
" id="DejaVuSans-64" transform="scale(0.015625)"/>
       <path d="M 603 3500 
L 1178 3500 
L 1178 0 
L 603 0 
L 603 3500 
z
M 603 4863 
L 1178 4863 
L 1178 4134 
L 603 4134 
L 603 4863 
z
" id="DejaVuSans-69" transform="scale(0.015625)"/>
       <path d="M 3328 2828 
Q 3544 3216 3844 3400 
Q 4144 3584 4550 3584 
Q 5097 3584 5394 3201 
Q 5691 2819 5691 2113 
L 5691 0 
L 5113 0 
L 5113 2094 
Q 5113 2597 4934 2840 
Q 4756 3084 4391 3084 
Q 3944 3084 3684 2787 
Q 3425 2491 3425 1978 
L 3425 0 
L 2847 0 
L 2847 2094 
Q 2847 2600 2669 2842 
Q 2491 3084 2119 3084 
Q 1678 3084 1418 2786 
Q 1159 2488 1159 1978 
L 1159 0 
L 581 0 
L 581 3500 
L 1159 3500 
L 1159 2956 
Q 1356 3278 1631 3431 
Q 1906 3584 2284 3584 
Q 2666 3584 2933 3390 
Q 3200 3197 3328 2828 
z
" id="DejaVuSans-6d" transform="scale(0.015625)"/>
       <path d="M 3513 2113 
L 3513 0 
L 2938 0 
L 2938 2094 
Q 2938 2591 2744 2837 
Q 2550 3084 2163 3084 
Q 1697 3084 1428 2787 
Q 1159 2491 1159 1978 
L 1159 0 
L 581 0 
L 581 3500 
L 1159 3500 
L 1159 2956 
Q 1366 3272 1645 3428 
Q 1925 3584 2291 3584 
Q 2894 3584 3203 3211 
Q 3513 2838 3513 2113 
z
" id="DejaVuSans-6e" transform="scale(0.015625)"/>
       <path d="M 513 4856 
L 1013 4856 
Q 1481 4119 1714 3412 
Q 1947 2706 1947 2009 
Q 1947 1309 1714 600 
Q 1481 -109 1013 -844 
L 513 -844 
Q 928 -128 1133 580 
Q 1338 1288 1338 2009 
Q 1338 2731 1133 3434 
Q 928 4138 513 4856 
z
" id="DejaVuSans-29" transform="scale(0.015625)"/>
      </defs>
      <use xlink:href="#DejaVuSans-6c"/>
      <use x="27.783203" xlink:href="#DejaVuSans-6f"/>
      <use x="88.964844" xlink:href="#DejaVuSans-67"/>
      <use x="152.441406" xlink:href="#DejaVuSans-31"/>
      <use x="216.064453" xlink:href="#DejaVuSans-30"/>
      <use x="279.6875" xlink:href="#DejaVuSans-28"/>
      <use x="318.701172" xlink:href="#DejaVuSans-23"/>
      <use x="402.490234" xlink:href="#DejaVuSans-20"/>
      <use x="434.277344" xlink:href="#DejaVuSans-66"/>
      <use x="463.982422" xlink:href="#DejaVuSans-2d"/>
      <use x="500.066406" xlink:href="#DejaVuSans-65"/>
      <use x="561.589844" xlink:href="#DejaVuSans-76"/>
      <use x="620.769531" xlink:href="#DejaVuSans-61"/>
      <use x="682.048828" xlink:href="#DejaVuSans-6c"/>
      <use x="709.832031" xlink:href="#DejaVuSans-73"/>
      <use x="761.931641" xlink:href="#DejaVuSans-20"/>
      <use x="793.71875" xlink:href="#DejaVuSans-2f"/>
      <use x="827.410156" xlink:href="#DejaVuSans-20"/>
      <use x="859.197266" xlink:href="#DejaVuSans-64"/>
      <use x="922.673828" xlink:href="#DejaVuSans-69"/>
      <use x="950.457031" xlink:href="#DejaVuSans-6d"/>
      <use x="1047.869141" xlink:href="#DejaVuSans-65"/>
      <use x="1109.392578" xlink:href="#DejaVuSans-6e"/>
      <use x="1172.771484" xlink:href="#DejaVuSans-73"/>
      <use x="1224.871094" xlink:href="#DejaVuSans-69"/>
      <use x="1252.654297" xlink:href="#DejaVuSans-6f"/>
      <use x="1313.835938" xlink:href="#DejaVuSans-6e"/>
      <use x="1377.214844" xlink:href="#DejaVuSans-29"/>
     </g>
    </g>
   </g>
   <g id="matplotlib.axis_2">
    <g id="ytick_1">
     <g id="line2d_21">
      <path clip-path="url(#p6786353cf5)" d="M 57.6 298.944 
L 338.688 298.944 
" style="fill:none;stroke:#b0b0b0;stroke-linecap:square;stroke-width:0.8;"/>
     </g>
     <g id="line2d_22">
      <defs>
       <path d="M 0 0 
L -3.5 0 
" id="m532f7268b4" style="stroke:#000000;stroke-width:0.8;"/>
      </defs>
      <g>
       <use style="stroke:#000000;stroke-width:0.8;" x="57.6" xlink:href="#m532f7268b4" y="298.944"/>
      </g>
     </g>
     <g id="text_6">
      <!-- 0.0 -->
      <g transform="translate(25.155 305.02275)scale(0.16 -0.16)">
       <defs>
        <path d="M 684 794 
L 1344 794 
L 1344 0 
L 684 0 
L 684 794 
z
" id="DejaVuSans-2e" transform="scale(0.015625)"/>
       </defs>
       <use xlink:href="#DejaVuSans-30"/>
       <use x="63.623047" xlink:href="#DejaVuSans-2e"/>
       <use x="95.410156" xlink:href="#DejaVuSans-30"/>
      </g>
     </g>
    </g>
    <g id="ytick_2">
     <g id="line2d_23">
      <path clip-path="url(#p6786353cf5)" d="M 57.6 245.22202 
L 338.688 245.22202 
" style="fill:none;stroke:#b0b0b0;stroke-linecap:square;stroke-width:0.8;"/>
     </g>
     <g id="line2d_24">
      <g>
       <use style="stroke:#000000;stroke-width:0.8;" x="57.6" xlink:href="#m532f7268b4" y="245.22202"/>
      </g>
     </g>
     <g id="text_7">
      <!-- 0.2 -->
      <g transform="translate(25.155 251.30077)scale(0.16 -0.16)">
       <use xlink:href="#DejaVuSans-30"/>
       <use x="63.623047" xlink:href="#DejaVuSans-2e"/>
       <use x="95.410156" xlink:href="#DejaVuSans-32"/>
      </g>
     </g>
    </g>
    <g id="ytick_3">
     <g id="line2d_25">
      <path clip-path="url(#p6786353cf5)" d="M 57.6 191.50004 
L 338.688 191.50004 
" style="fill:none;stroke:#b0b0b0;stroke-linecap:square;stroke-width:0.8;"/>
     </g>
     <g id="line2d_26">
      <g>
       <use style="stroke:#000000;stroke-width:0.8;" x="57.6" xlink:href="#m532f7268b4" y="191.50004"/>
      </g>
     </g>
     <g id="text_8">
      <!-- 0.4 -->
      <g transform="translate(25.155 197.57879)scale(0.16 -0.16)">
       <use xlink:href="#DejaVuSans-30"/>
       <use x="63.623047" xlink:href="#DejaVuSans-2e"/>
       <use x="95.410156" xlink:href="#DejaVuSans-34"/>
      </g>
     </g>
    </g>
    <g id="ytick_4">
     <g id="line2d_27">
      <path clip-path="url(#p6786353cf5)" d="M 57.6 137.778059 
L 338.688 137.778059 
" style="fill:none;stroke:#b0b0b0;stroke-linecap:square;stroke-width:0.8;"/>
     </g>
     <g id="line2d_28">
      <g>
       <use style="stroke:#000000;stroke-width:0.8;" x="57.6" xlink:href="#m532f7268b4" y="137.778059"/>
      </g>
     </g>
     <g id="text_9">
      <!-- 0.6 -->
      <g transform="translate(25.155 143.856809)scale(0.16 -0.16)">
       <use xlink:href="#DejaVuSans-30"/>
       <use x="63.623047" xlink:href="#DejaVuSans-2e"/>
       <use x="95.410156" xlink:href="#DejaVuSans-36"/>
      </g>
     </g>
    </g>
    <g id="ytick_5">
     <g id="line2d_29">
      <path clip-path="url(#p6786353cf5)" d="M 57.6 84.056079 
L 338.688 84.056079 
" style="fill:none;stroke:#b0b0b0;stroke-linecap:square;stroke-width:0.8;"/>
     </g>
     <g id="line2d_30">
      <g>
       <use style="stroke:#000000;stroke-width:0.8;" x="57.6" xlink:href="#m532f7268b4" y="84.056079"/>
      </g>
     </g>
     <g id="text_10">
      <!-- 0.8 -->
      <g transform="translate(25.155 90.134829)scale(0.16 -0.16)">
       <defs>
        <path d="M 2034 2216 
Q 1584 2216 1326 1975 
Q 1069 1734 1069 1313 
Q 1069 891 1326 650 
Q 1584 409 2034 409 
Q 2484 409 2743 651 
Q 3003 894 3003 1313 
Q 3003 1734 2745 1975 
Q 2488 2216 2034 2216 
z
M 1403 2484 
Q 997 2584 770 2862 
Q 544 3141 544 3541 
Q 544 4100 942 4425 
Q 1341 4750 2034 4750 
Q 2731 4750 3128 4425 
Q 3525 4100 3525 3541 
Q 3525 3141 3298 2862 
Q 3072 2584 2669 2484 
Q 3125 2378 3379 2068 
Q 3634 1759 3634 1313 
Q 3634 634 3220 271 
Q 2806 -91 2034 -91 
Q 1263 -91 848 271 
Q 434 634 434 1313 
Q 434 1759 690 2068 
Q 947 2378 1403 2484 
z
M 1172 3481 
Q 1172 3119 1398 2916 
Q 1625 2713 2034 2713 
Q 2441 2713 2670 2916 
Q 2900 3119 2900 3481 
Q 2900 3844 2670 4047 
Q 2441 4250 2034 4250 
Q 1625 4250 1398 4047 
Q 1172 3844 1172 3481 
z
" id="DejaVuSans-38" transform="scale(0.015625)"/>
       </defs>
       <use xlink:href="#DejaVuSans-30"/>
       <use x="63.623047" xlink:href="#DejaVuSans-2e"/>
       <use x="95.410156" xlink:href="#DejaVuSans-38"/>
      </g>
     </g>
    </g>
    <g id="ytick_6">
     <g id="line2d_31">
      <path clip-path="url(#p6786353cf5)" d="M 57.6 30.334099 
L 338.688 30.334099 
" style="fill:none;stroke:#b0b0b0;stroke-linecap:square;stroke-width:0.8;"/>
     </g>
     <g id="line2d_32">
      <g>
       <use style="stroke:#000000;stroke-width:0.8;" x="57.6" xlink:href="#m532f7268b4" y="30.334099"/>
      </g>
     </g>
     <g id="text_11">
      <!-- 1.0 -->
      <g transform="translate(25.155 36.412849)scale(0.16 -0.16)">
       <use xlink:href="#DejaVuSans-31"/>
       <use x="63.623047" xlink:href="#DejaVuSans-2e"/>
       <use x="95.410156" xlink:href="#DejaVuSans-30"/>
      </g>
     </g>
    </g>
    <g id="text_12">
     <!-- Fraction of function,target pairs -->
     <g transform="translate(17.619531 297.681)rotate(-90)scale(0.17 -0.17)">
      <defs>
       <path d="M 628 4666 
L 3309 4666 
L 3309 4134 
L 1259 4134 
L 1259 2759 
L 3109 2759 
L 3109 2228 
L 1259 2228 
L 1259 0 
L 628 0 
L 628 4666 
z
" id="DejaVuSans-46" transform="scale(0.015625)"/>
       <path d="M 2631 2963 
Q 2534 3019 2420 3045 
Q 2306 3072 2169 3072 
Q 1681 3072 1420 2755 
Q 1159 2438 1159 1844 
L 1159 0 
L 581 0 
L 581 3500 
L 1159 3500 
L 1159 2956 
Q 1341 3275 1631 3429 
Q 1922 3584 2338 3584 
Q 2397 3584 2469 3576 
Q 2541 3569 2628 3553 
L 2631 2963 
z
" id="DejaVuSans-72" transform="scale(0.015625)"/>
       <path d="M 3122 3366 
L 3122 2828 
Q 2878 2963 2633 3030 
Q 2388 3097 2138 3097 
Q 1578 3097 1268 2742 
Q 959 2388 959 1747 
Q 959 1106 1268 751 
Q 1578 397 2138 397 
Q 2388 397 2633 464 
Q 2878 531 3122 666 
L 3122 134 
Q 2881 22 2623 -34 
Q 2366 -91 2075 -91 
Q 1284 -91 818 406 
Q 353 903 353 1747 
Q 353 2603 823 3093 
Q 1294 3584 2113 3584 
Q 2378 3584 2631 3529 
Q 2884 3475 3122 3366 
z
" id="DejaVuSans-63" transform="scale(0.015625)"/>
       <path d="M 1172 4494 
L 1172 3500 
L 2356 3500 
L 2356 3053 
L 1172 3053 
L 1172 1153 
Q 1172 725 1289 603 
Q 1406 481 1766 481 
L 2356 481 
L 2356 0 
L 1766 0 
Q 1100 0 847 248 
Q 594 497 594 1153 
L 594 3053 
L 172 3053 
L 172 3500 
L 594 3500 
L 594 4494 
L 1172 4494 
z
" id="DejaVuSans-74" transform="scale(0.015625)"/>
       <path d="M 544 1381 
L 544 3500 
L 1119 3500 
L 1119 1403 
Q 1119 906 1312 657 
Q 1506 409 1894 409 
Q 2359 409 2629 706 
Q 2900 1003 2900 1516 
L 2900 3500 
L 3475 3500 
L 3475 0 
L 2900 0 
L 2900 538 
Q 2691 219 2414 64 
Q 2138 -91 1772 -91 
Q 1169 -91 856 284 
Q 544 659 544 1381 
z
M 1991 3584 
L 1991 3584 
z
" id="DejaVuSans-75" transform="scale(0.015625)"/>
       <path d="M 750 794 
L 1409 794 
L 1409 256 
L 897 -744 
L 494 -744 
L 750 256 
L 750 794 
z
" id="DejaVuSans-2c" transform="scale(0.015625)"/>
       <path d="M 1159 525 
L 1159 -1331 
L 581 -1331 
L 581 3500 
L 1159 3500 
L 1159 2969 
Q 1341 3281 1617 3432 
Q 1894 3584 2278 3584 
Q 2916 3584 3314 3078 
Q 3713 2572 3713 1747 
Q 3713 922 3314 415 
Q 2916 -91 2278 -91 
Q 1894 -91 1617 61 
Q 1341 213 1159 525 
z
M 3116 1747 
Q 3116 2381 2855 2742 
Q 2594 3103 2138 3103 
Q 1681 3103 1420 2742 
Q 1159 2381 1159 1747 
Q 1159 1113 1420 752 
Q 1681 391 2138 391 
Q 2594 391 2855 752 
Q 3116 1113 3116 1747 
z
" id="DejaVuSans-70" transform="scale(0.015625)"/>
      </defs>
      <use xlink:href="#DejaVuSans-46"/>
      <use x="50.269531" xlink:href="#DejaVuSans-72"/>
      <use x="91.382812" xlink:href="#DejaVuSans-61"/>
      <use x="152.662109" xlink:href="#DejaVuSans-63"/>
      <use x="207.642578" xlink:href="#DejaVuSans-74"/>
      <use x="246.851562" xlink:href="#DejaVuSans-69"/>
      <use x="274.634766" xlink:href="#DejaVuSans-6f"/>
      <use x="335.816406" xlink:href="#DejaVuSans-6e"/>
      <use x="399.195312" xlink:href="#DejaVuSans-20"/>
      <use x="430.982422" xlink:href="#DejaVuSans-6f"/>
      <use x="492.164062" xlink:href="#DejaVuSans-66"/>
      <use x="527.369141" xlink:href="#DejaVuSans-20"/>
      <use x="559.15625" xlink:href="#DejaVuSans-66"/>
      <use x="594.361328" xlink:href="#DejaVuSans-75"/>
      <use x="657.740234" xlink:href="#DejaVuSans-6e"/>
      <use x="721.119141" xlink:href="#DejaVuSans-63"/>
      <use x="776.099609" xlink:href="#DejaVuSans-74"/>
      <use x="815.308594" xlink:href="#DejaVuSans-69"/>
      <use x="843.091797" xlink:href="#DejaVuSans-6f"/>
      <use x="904.273438" xlink:href="#DejaVuSans-6e"/>
      <use x="967.652344" xlink:href="#DejaVuSans-2c"/>
      <use x="999.439453" xlink:href="#DejaVuSans-74"/>
      <use x="1038.648438" xlink:href="#DejaVuSans-61"/>
      <use x="1099.927734" xlink:href="#DejaVuSans-72"/>
      <use x="1139.291016" xlink:href="#DejaVuSans-67"/>
      <use x="1202.767578" xlink:href="#DejaVuSans-65"/>
      <use x="1264.291016" xlink:href="#DejaVuSans-74"/>
      <use x="1303.5" xlink:href="#DejaVuSans-20"/>
      <use x="1335.287109" xlink:href="#DejaVuSans-70"/>
      <use x="1398.763672" xlink:href="#DejaVuSans-61"/>
      <use x="1460.042969" xlink:href="#DejaVuSans-69"/>
      <use x="1487.826172" xlink:href="#DejaVuSans-72"/>
      <use x="1528.939453" xlink:href="#DejaVuSans-73"/>
     </g>
    </g>
   </g>
   <g id="line2d_33">
    <defs>
     <path d="M 0 1.5 
C 0.397805 1.5 0.77937 1.341951 1.06066 1.06066 
C 1.341951 0.77937 1.5 0.397805 1.5 0 
C 1.5 -0.397805 1.341951 -0.77937 1.06066 -1.06066 
C 0.77937 -1.341951 0.397805 -1.5 0 -1.5 
C -0.397805 -1.5 -0.77937 -1.341951 -1.06066 -1.06066 
C -1.341951 -0.77937 -1.5 -0.397805 -1.5 0 
C -1.5 0.397805 -1.341951 0.77937 -1.06066 1.06066 
C -0.77937 1.341951 -0.397805 1.5 0 1.5 
z
" id="mfe0bb9cf19" style="stroke:#f5deb3;"/>
    </defs>
    <g>
     <use style="fill:#f5deb3;stroke:#f5deb3;" x="175.320072" xlink:href="#mfe0bb9cf19" y="30.334099"/>
     <use style="fill:#f5deb3;stroke:#f5deb3;" x="175.320072" xlink:href="#mfe0bb9cf19" y="30.334099"/>
    </g>
   </g>
   <g id="line2d_34">
    <defs>
     <path d="M 0 1.5 
C 0.397805 1.5 0.77937 1.341951 1.06066 1.06066 
C 1.341951 0.77937 1.5 0.397805 1.5 0 
C 1.5 -0.397805 1.341951 -0.77937 1.06066 -1.06066 
C 0.77937 -1.341951 0.397805 -1.5 0 -1.5 
C -0.397805 -1.5 -0.77937 -1.341951 -1.06066 -1.06066 
C -1.341951 -0.77937 -1.5 -0.397805 -1.5 0 
C -1.5 0.397805 -1.341951 0.77937 -1.06066 1.06066 
C -0.77937 1.341951 -0.397805 1.5 0 1.5 
z
" id="m9a072bfb42" style="stroke:#000080;"/>
    </defs>
    <g>
     <use style="fill:#000080;stroke:#000080;" x="185.269343" xlink:href="#m9a072bfb42" y="293.677139"/>
     <use style="fill:#000080;stroke:#000080;" x="185.269343" xlink:href="#m9a072bfb42" y="293.677139"/>
    </g>
   </g>
   <g id="line2d_35">
    <path d="M 162.933547 298.944 
L 162.933547 298.417314 
L 164.348911 298.417314 
L 164.348911 297.890628 
L 164.497624 297.890628 
L 164.497624 297.363942 
L 164.527973 297.363942 
L 164.527973 296.837256 
L 164.787563 296.837256 
L 164.787563 296.31057 
L 177.493699 296.31057 
L 177.493699 295.783884 
L 177.617605 295.783884 
L 177.617605 295.257197 
L 177.891015 295.257197 
L 177.891015 294.730511 
L 178.132429 294.730511 
L 178.132429 294.203825 
L 185.269343 294.203825 
L 185.269343 293.677139 
L 338.688 293.677139 
" style="fill:none;stroke:#000080;stroke-linecap:square;stroke-width:1.5;"/>
   </g>
   <g id="line2d_36">
    <defs>
     <path d="M 0 6 
C 1.591219 6 3.117479 5.367802 4.242641 4.242641 
C 5.367802 3.117479 6 1.591219 6 0 
C 6 -1.591219 5.367802 -3.117479 4.242641 -4.242641 
C 3.117479 -5.367802 1.591219 -6 0 -6 
C -1.591219 -6 -3.117479 -5.367802 -4.242641 -4.242641 
C -5.367802 -3.117479 -6 -1.591219 -6 0 
C -6 1.591219 -5.367802 3.117479 -4.242641 4.242641 
C -3.117479 5.367802 -1.591219 6 0 6 
z
" id="mce41118320" style="stroke:#000080;stroke-width:1.5;"/>
    </defs>
    <g>
     <use style="fill-opacity:0;stroke:#000080;stroke-width:1.5;" x="185.269343" xlink:href="#mce41118320" y="294.203825"/>
     <use style="fill-opacity:0;stroke:#000080;stroke-width:1.5;" x="185.269343" xlink:href="#mce41118320" y="293.677139"/>
     <use style="fill-opacity:0;stroke:#000080;stroke-width:1.5;" x="185.269343" xlink:href="#mce41118320" y="293.677139"/>
     <use style="fill-opacity:0;stroke:#000080;stroke-width:1.5;" x="338.688" xlink:href="#mce41118320" y="293.677139"/>
    </g>
   </g>
   <g id="line2d_37">
    <path style="fill:none;stroke:#000080;stroke-linecap:square;stroke-width:1.5;"/>
    <g/>
   </g>
   <g id="line2d_38">
    <path clip-path="url(#p6786353cf5)" d="M 166.24138 296.31057 
" style="fill:none;stroke:#000080;stroke-linecap:square;stroke-width:1.5;"/>
    <defs>
     <path d="M -12 12 
L 12 -12 
M -12 -12 
L 12 12 
" id="mb375841896" style="stroke:#000080;"/>
    </defs>
    <g clip-path="url(#p6786353cf5)">
     <use style="fill:#000080;stroke:#000080;" x="166.24138" xlink:href="#mb375841896" y="296.31057"/>
    </g>
   </g>
   <g id="line2d_39">
    <defs>
     <path d="M 0 1.5 
C 0.397805 1.5 0.77937 1.341951 1.06066 1.06066 
C 1.341951 0.77937 1.5 0.397805 1.5 0 
C 1.5 -0.397805 1.341951 -0.77937 1.06066 -1.06066 
C 0.77937 -1.341951 0.397805 -1.5 0 -1.5 
C -0.397805 -1.5 -0.77937 -1.341951 -1.06066 -1.06066 
C -1.341951 -0.77937 -1.5 -0.397805 -1.5 0 
C -1.5 0.397805 -1.341951 0.77937 -1.06066 1.06066 
C -0.77937 1.341951 -0.397805 1.5 0 1.5 
z
" id="mb7d08acb54" style="stroke:#ff00ff;"/>
    </defs>
    <g>
     <use style="fill:#ff00ff;stroke:#ff00ff;" x="239.031763" xlink:href="#mb7d08acb54" y="262.075974"/>
     <use style="fill:#ff00ff;stroke:#ff00ff;" x="239.031763" xlink:href="#mb7d08acb54" y="262.075974"/>
    </g>
   </g>
   <g id="line2d_40">
    <path d="M 141.104941 298.944 
L 141.104941 298.417314 
L 144.474645 298.417314 
L 144.474645 297.890628 
L 146.591092 297.890628 
L 146.591092 297.363942 
L 147.590249 297.363942 
L 147.590249 296.837256 
L 147.848613 296.837256 
L 147.848613 296.31057 
L 148.629823 296.31057 
L 148.629823 295.783884 
L 149.232356 295.783884 
L 149.241465 294.730511 
L 149.350404 294.730511 
L 149.350404 294.203825 
L 150.007563 294.203825 
L 150.007563 293.677139 
L 150.707961 293.677139 
L 150.707961 293.150453 
L 151.461678 293.150453 
L 151.461678 292.623767 
L 152.337344 292.623767 
L 152.337344 292.097081 
L 152.669675 292.097081 
L 152.669675 291.570395 
L 153.083683 291.570395 
L 153.083683 291.043709 
L 153.214697 291.043709 
L 153.323128 289.990337 
L 153.911223 289.990337 
L 153.911223 289.463651 
L 154.187714 289.463651 
L 154.187714 288.936964 
L 154.337936 288.936964 
L 154.378682 287.883592 
L 154.78099 287.883592 
L 154.78099 287.356906 
L 154.965604 287.356906 
L 154.965604 286.83022 
L 155.55879 286.83022 
L 155.55879 286.303534 
L 155.791779 286.303534 
L 155.791779 285.776848 
L 156.212023 285.776848 
L 156.212023 285.250162 
L 156.764934 285.250162 
L 156.847557 284.19679 
L 157.249147 284.19679 
L 157.249147 283.670104 
L 157.898572 283.670104 
L 157.898572 283.143418 
L 159.041045 283.143418 
L 159.041045 282.616732 
L 159.206397 282.616732 
L 159.283369 281.563359 
L 159.547605 281.563359 
L 159.562728 280.509987 
L 159.9218 280.509987 
L 159.9218 279.983301 
L 160.191194 279.983301 
L 160.191194 279.456615 
L 160.321935 279.456615 
L 160.321935 278.929929 
L 160.585265 278.929929 
L 160.585265 278.403243 
L 161.26102 278.403243 
L 161.26102 277.876557 
L 161.667653 277.876557 
L 161.667653 277.349871 
L 162.156452 277.349871 
L 162.156452 276.823185 
L 163.48138 276.823185 
L 163.48138 276.296499 
L 164.117618 276.296499 
L 164.117618 275.769812 
L 164.337419 275.769812 
L 164.337419 275.243126 
L 165.061737 275.243126 
L 165.061737 274.71644 
L 165.197224 274.71644 
L 165.197224 274.189754 
L 173.735534 274.189754 
L 173.735534 273.663068 
L 175.006993 273.663068 
L 175.006993 273.136382 
L 175.151873 273.136382 
L 175.151873 272.609696 
L 176.539989 272.609696 
L 176.539989 272.08301 
L 177.16075 272.08301 
L 177.16075 271.556324 
L 177.614026 271.556324 
L 177.696161 269.976266 
L 182.308563 269.976266 
L 182.308563 269.449579 
L 183.417053 269.449579 
L 183.417053 268.922893 
L 183.702136 268.922893 
L 183.702136 268.396207 
L 183.954039 268.396207 
L 183.954039 267.869521 
L 184.837106 267.869521 
L 184.891431 266.289463 
L 193.898629 266.289463 
L 193.898629 265.762777 
L 202.150465 265.762777 
L 202.150465 265.236091 
L 211.949163 265.236091 
L 211.949163 264.709405 
L 218.185053 264.709405 
L 218.185053 264.182719 
L 222.768965 264.182719 
L 222.768965 263.656033 
L 226.395336 263.656033 
L 226.395336 263.129347 
L 227.453934 263.129347 
L 227.453934 262.60266 
L 239.031763 262.60266 
L 239.031763 262.075974 
L 338.688 262.075974 
L 338.688 262.075974 
" style="fill:none;stroke:#ff00ff;stroke-linecap:square;stroke-width:1.5;"/>
   </g>
   <g id="line2d_41">
    <defs>
     <path d="M 0 8.485281 
L 5.091169 0 
L 0 -8.485281 
L -5.091169 0 
z
" id="m365607ee0f" style="stroke:#ff00ff;stroke-linejoin:miter;stroke-width:1.5;"/>
    </defs>
    <g>
     <use style="fill-opacity:0;stroke:#ff00ff;stroke-linejoin:miter;stroke-width:1.5;" x="184.891431" xlink:href="#m365607ee0f" y="266.816149"/>
     <use style="fill-opacity:0;stroke:#ff00ff;stroke-linejoin:miter;stroke-width:1.5;" x="239.031763" xlink:href="#m365607ee0f" y="262.60266"/>
     <use style="fill-opacity:0;stroke:#ff00ff;stroke-linejoin:miter;stroke-width:1.5;" x="239.031763" xlink:href="#m365607ee0f" y="262.075974"/>
     <use style="fill-opacity:0;stroke:#ff00ff;stroke-linejoin:miter;stroke-width:1.5;" x="239.031763" xlink:href="#m365607ee0f" y="262.075974"/>
     <use style="fill-opacity:0;stroke:#ff00ff;stroke-linejoin:miter;stroke-width:1.5;" x="338.688" xlink:href="#m365607ee0f" y="262.075974"/>
    </g>
   </g>
   <g id="line2d_42">
    <path style="fill:none;stroke:#ff00ff;stroke-linecap:square;stroke-width:1.5;"/>
    <g/>
   </g>
   <g id="line2d_43">
    <path clip-path="url(#p6786353cf5)" d="M 165.978297 274.189754 
" style="fill:none;stroke:#ff00ff;stroke-linecap:square;stroke-width:1.5;"/>
    <defs>
     <path d="M -12 12 
L 12 -12 
M -12 -12 
L 12 12 
" id="m24268b97b5" style="stroke:#ff00ff;"/>
    </defs>
    <g clip-path="url(#p6786353cf5)">
     <use style="fill:#ff00ff;stroke:#ff00ff;" x="165.978297" xlink:href="#m24268b97b5" y="274.189754"/>
    </g>
   </g>
   <g id="line2d_44">
    <defs>
     <path d="M 0 1.5 
C 0.397805 1.5 0.77937 1.341951 1.06066 1.06066 
C 1.341951 0.77937 1.5 0.397805 1.5 0 
C 1.5 -0.397805 1.341951 -0.77937 1.06066 -1.06066 
C 0.77937 -1.341951 0.397805 -1.5 0 -1.5 
C -0.397805 -1.5 -0.77937 -1.341951 -1.06066 -1.06066 
C -1.341951 -0.77937 -1.5 -0.397805 -1.5 0 
C -1.5 0.397805 -1.341951 0.77937 -1.06066 1.06066 
C -0.77937 1.341951 -0.397805 1.5 0 1.5 
z
" id="mdfd19e34b1" style="stroke:#ff7500;"/>
    </defs>
    <g>
     <use style="fill:#ff7500;stroke:#ff7500;" x="218.925638" xlink:href="#mdfd19e34b1" y="246.275392"/>
     <use style="fill:#ff7500;stroke:#ff7500;" x="218.925638" xlink:href="#mdfd19e34b1" y="246.275392"/>
    </g>
   </g>
   <g id="line2d_45">
    <path d="M 148.817445 298.944 
L 148.817445 298.417314 
L 149.085961 298.417314 
L 149.085961 297.890628 
L 149.305096 297.890628 
L 149.305096 297.363942 
L 150.327083 297.363942 
L 150.327083 296.837256 
L 151.477707 296.837256 
L 151.477707 296.31057 
L 151.850203 296.31057 
L 151.850203 295.783884 
L 152.966394 295.783884 
L 153.076375 294.203825 
L 153.127464 294.203825 
L 153.127464 293.677139 
L 153.587744 293.677139 
L 153.59484 292.623767 
L 153.757264 292.623767 
L 153.757264 292.097081 
L 154.221969 292.097081 
L 154.221969 291.570395 
L 154.68128 291.570395 
L 154.68128 291.043709 
L 154.800864 291.043709 
L 154.899894 289.463651 
L 155.425155 289.463651 
L 155.444309 288.410278 
L 155.565128 288.410278 
L 155.565128 287.883592 
L 155.760475 287.883592 
L 155.760475 287.356906 
L 155.872907 287.356906 
L 155.872907 286.83022 
L 156.616413 286.83022 
L 156.616413 286.303534 
L 156.853444 286.303534 
L 156.853444 285.776848 
L 157.781772 285.776848 
L 157.781772 285.250162 
L 157.893028 285.250162 
L 157.898572 284.19679 
L 158.67908 284.19679 
L 158.67908 283.670104 
L 158.868869 283.670104 
L 158.868869 282.616732 
L 159.046236 282.616732 
L 159.046236 282.090045 
L 159.39565 282.090045 
L 159.39565 281.563359 
L 159.532469 281.563359 
L 159.532469 281.036673 
L 159.867418 281.036673 
L 159.867418 280.509987 
L 160.273627 280.509987 
L 160.365299 279.456615 
L 160.389343 279.456615 
L 160.389343 278.929929 
L 160.642194 278.929929 
L 160.642194 278.403243 
L 161.192316 278.403243 
L 161.297551 277.349871 
L 161.343109 277.349871 
L 161.343109 276.823185 
L 161.560142 276.823185 
L 161.667653 275.243126 
L 161.774507 275.243126 
L 161.774507 274.71644 
L 163.107115 274.71644 
L 163.107115 274.189754 
L 163.295251 274.189754 
L 163.295251 273.663068 
L 163.922502 273.663068 
L 163.922502 273.136382 
L 165.661531 273.136382 
L 165.718267 272.08301 
L 173.515065 272.08301 
L 173.515065 271.556324 
L 174.261802 271.556324 
L 174.261802 271.029638 
L 174.63307 271.029638 
L 174.63307 269.976266 
L 175.277151 269.976266 
L 175.277151 269.449579 
L 175.484643 269.449579 
L 175.494751 268.396207 
L 175.601537 268.396207 
L 175.601537 267.869521 
L 176.004603 267.869521 
L 176.090752 266.816149 
L 176.43307 266.816149 
L 176.43307 266.289463 
L 176.689716 266.289463 
L 176.77631 264.709405 
L 177.256007 264.709405 
L 177.256007 264.182719 
L 177.936755 264.182719 
L 177.936755 263.656033 
L 182.917229 263.656033 
L 182.917229 263.129347 
L 183.32829 263.129347 
L 183.32829 262.60266 
L 183.68319 262.60266 
L 183.724843 260.495916 
L 184.065663 260.495916 
L 184.065663 259.442544 
L 184.686239 259.442544 
L 184.686239 258.915858 
L 188.884005 258.915858 
L 188.915863 257.862486 
L 189.817073 257.862486 
L 189.817073 257.3358 
L 190.07562 257.3358 
L 190.07562 256.809114 
L 193.101216 256.809114 
L 193.101216 256.282427 
L 193.285078 256.282427 
L 193.285078 255.755741 
L 193.410685 255.755741 
L 193.410685 254.702369 
L 193.982843 254.702369 
L 193.982843 254.175683 
L 196.343621 254.175683 
L 196.343621 253.648997 
L 196.778403 253.648997 
L 196.778403 253.122311 
L 197.001219 253.122311 
L 197.001219 252.595625 
L 199.371594 252.595625 
L 199.371594 252.068939 
L 199.86867 252.068939 
L 199.86867 251.542253 
L 203.777908 251.542253 
L 203.87624 250.488881 
L 205.756118 250.488881 
L 205.81909 249.435508 
L 205.974654 249.435508 
L 205.974654 248.908822 
L 206.102307 248.908822 
L 206.102307 248.382136 
L 209.201605 248.382136 
L 209.201605 247.85545 
L 215.103922 247.85545 
L 215.103922 247.328764 
L 215.308744 247.328764 
L 215.308744 246.802078 
L 218.925638 246.802078 
L 218.925638 246.275392 
L 338.688 246.275392 
L 338.688 246.275392 
" style="fill:none;stroke:#ff7500;stroke-linecap:square;stroke-width:1.5;"/>
   </g>
   <g id="line2d_46">
    <defs>
     <path d="M 0 -6 
L -1.347084 -1.854102 
L -5.706339 -1.854102 
L -2.179628 0.708204 
L -3.526712 4.854102 
L -0 2.291796 
L 3.526712 4.854102 
L 2.179628 0.708204 
L 5.706339 -1.854102 
L 1.347084 -1.854102 
z
" id="mf77c1df7ba" style="stroke:#ff7500;stroke-linejoin:bevel;stroke-width:1.5;"/>
    </defs>
    <g>
     <use style="fill-opacity:0;stroke:#ff7500;stroke-linejoin:bevel;stroke-width:1.5;" x="176.090752" xlink:href="#mf77c1df7ba" y="266.816149"/>
     <use style="fill-opacity:0;stroke:#ff7500;stroke-linejoin:bevel;stroke-width:1.5;" x="218.925638" xlink:href="#mf77c1df7ba" y="246.802078"/>
     <use style="fill-opacity:0;stroke:#ff7500;stroke-linejoin:bevel;stroke-width:1.5;" x="218.925638" xlink:href="#mf77c1df7ba" y="246.275392"/>
     <use style="fill-opacity:0;stroke:#ff7500;stroke-linejoin:bevel;stroke-width:1.5;" x="218.925638" xlink:href="#mf77c1df7ba" y="246.275392"/>
     <use style="fill-opacity:0;stroke:#ff7500;stroke-linejoin:bevel;stroke-width:1.5;" x="338.688" xlink:href="#mf77c1df7ba" y="246.275392"/>
    </g>
   </g>
   <g id="line2d_47">
    <path style="fill:none;stroke:#ff7500;stroke-linecap:square;stroke-width:1.5;"/>
    <g/>
   </g>
   <g id="line2d_48">
    <path clip-path="url(#p6786353cf5)" d="M 165.978297 272.08301 
" style="fill:none;stroke:#ff7500;stroke-linecap:square;stroke-width:1.5;"/>
    <defs>
     <path d="M -12 12 
L 12 -12 
M -12 -12 
L 12 12 
" id="m37f2a9bbd3" style="stroke:#ff7500;"/>
    </defs>
    <g clip-path="url(#p6786353cf5)">
     <use style="fill:#ff7500;stroke:#ff7500;" x="165.978297" xlink:href="#m37f2a9bbd3" y="272.08301"/>
    </g>
   </g>
   <g id="line2d_49">
    <defs>
     <path d="M 0 1.5 
C 0.397805 1.5 0.77937 1.341951 1.06066 1.06066 
C 1.341951 0.77937 1.5 0.397805 1.5 0 
C 1.5 -0.397805 1.341951 -0.77937 1.06066 -1.06066 
C 0.77937 -1.341951 0.397805 -1.5 0 -1.5 
C -0.397805 -1.5 -0.77937 -1.341951 -1.06066 -1.06066 
C -1.341951 -0.77937 -1.5 -0.397805 -1.5 0 
C -1.5 0.397805 -1.341951 0.77937 -1.06066 1.06066 
C -0.77937 1.341951 -0.397805 1.5 0 1.5 
z
" id="m4aa0762da6" style="stroke:#6495ed;"/>
    </defs>
    <g>
     <use style="fill:#6495ed;stroke:#6495ed;" x="228.447665" xlink:href="#m4aa0762da6" y="246.275392"/>
     <use style="fill:#6495ed;stroke:#6495ed;" x="228.447665" xlink:href="#m4aa0762da6" y="246.275392"/>
    </g>
   </g>
   <g id="line2d_50">
    <path d="M 158.053098 298.944 
L 158.053098 298.417314 
L 159.971091 298.417314 
L 160.079044 297.363942 
L 160.098601 297.363942 
L 160.200913 295.783884 
L 160.336402 295.783884 
L 160.336402 295.257197 
L 160.680044 295.257197 
L 160.680044 294.730511 
L 160.872745 294.730511 
L 160.872745 294.203825 
L 161.003133 294.203825 
L 161.003133 293.677139 
L 161.474555 293.677139 
L 161.564634 292.623767 
L 161.587082 292.623767 
L 161.587082 292.097081 
L 161.801118 292.097081 
L 161.801118 291.570395 
L 161.946759 291.570395 
L 161.946759 291.043709 
L 162.147765 291.043709 
L 162.19549 289.990337 
L 162.268992 289.990337 
L 162.268992 289.463651 
L 162.444996 289.463651 
L 162.444996 288.936964 
L 162.615012 288.936964 
L 162.615012 288.410278 
L 162.800135 288.410278 
L 162.846111 287.356906 
L 163.225959 287.356906 
L 163.319642 286.303534 
L 163.469301 286.303534 
L 163.469301 285.776848 
L 163.597709 285.776848 
L 163.665543 283.670104 
L 163.77274 283.670104 
L 163.77274 283.143418 
L 163.90287 283.143418 
L 163.90287 282.616732 
L 164.237502 282.616732 
L 164.237502 282.090045 
L 164.467222 282.090045 
L 164.467222 281.563359 
L 164.618704 281.563359 
L 164.618704 281.036673 
L 164.82114 281.036673 
L 164.902945 279.983301 
L 164.995441 279.983301 
L 165.069087 278.403243 
L 165.10946 278.403243 
L 165.10946 277.876557 
L 165.313559 277.876557 
L 165.414719 276.296499 
L 165.508131 276.296499 
L 165.508131 275.769812 
L 165.654426 275.769812 
L 165.721807 274.71644 
L 165.792454 274.71644 
L 165.845252 273.663068 
L 165.939889 273.663068 
L 165.939889 273.136382 
L 175.998714 273.136382 
L 176.102467 271.556324 
L 176.252111 271.556324 
L 176.294632 269.976266 
L 176.465597 269.976266 
L 176.465597 269.449579 
L 176.916581 269.449579 
L 176.998351 268.396207 
L 177.068663 268.396207 
L 177.068663 267.869521 
L 177.504509 267.869521 
L 177.504509 266.816149 
L 177.786773 266.816149 
L 177.795631 265.762777 
L 177.99989 265.762777 
L 177.99989 264.709405 
L 184.379318 264.709405 
L 184.379318 264.182719 
L 184.576129 264.182719 
L 184.576129 263.656033 
L 184.764805 263.656033 
L 184.839472 262.075974 
L 184.947937 262.075974 
L 184.981988 260.495916 
L 185.075578 260.495916 
L 185.095401 259.442544 
L 189.560048 259.442544 
L 189.560048 258.915858 
L 189.735094 258.915858 
L 189.735094 258.389172 
L 190.107999 258.389172 
L 190.107999 257.862486 
L 193.934469 257.862486 
L 193.934469 257.3358 
L 197.13262 257.3358 
L 197.13262 256.809114 
L 199.887143 256.809114 
L 199.887143 256.282427 
L 202.172803 256.282427 
L 202.172803 255.755741 
L 204.1976 255.755741 
L 204.275762 254.702369 
L 207.745378 254.702369 
L 207.779054 253.648997 
L 209.267007 253.648997 
L 209.297871 252.595625 
L 214.274793 252.595625 
L 214.318694 251.542253 
L 216.335016 251.542253 
L 216.353466 249.962195 
L 218.177362 249.962195 
L 218.177362 249.435508 
L 219.858629 249.435508 
L 219.858629 248.908822 
L 221.364319 248.908822 
L 221.364319 248.382136 
L 223.448475 248.382136 
L 223.448475 247.85545 
L 224.69514 247.85545 
L 224.69514 247.328764 
L 225.835964 247.328764 
L 225.835964 246.802078 
L 228.447665 246.802078 
L 228.447665 246.275392 
L 338.688 246.275392 
L 338.688 246.275392 
" style="fill:none;stroke:#6495ed;stroke-linecap:square;stroke-width:1.5;"/>
   </g>
   <g id="line2d_51">
    <defs>
     <path d="M -0 6 
L 6 -6 
L -6 -6 
z
" id="ma65ec5a9d5" style="stroke:#6495ed;stroke-linejoin:miter;stroke-width:1.5;"/>
    </defs>
    <g>
     <use style="fill-opacity:0;stroke:#6495ed;stroke-linejoin:miter;stroke-width:1.5;" x="228.447665" xlink:href="#ma65ec5a9d5" y="246.802078"/>
     <use style="fill-opacity:0;stroke:#6495ed;stroke-linejoin:miter;stroke-width:1.5;" x="228.447665" xlink:href="#ma65ec5a9d5" y="246.275392"/>
     <use style="fill-opacity:0;stroke:#6495ed;stroke-linejoin:miter;stroke-width:1.5;" x="228.447665" xlink:href="#ma65ec5a9d5" y="246.275392"/>
     <use style="fill-opacity:0;stroke:#6495ed;stroke-linejoin:miter;stroke-width:1.5;" x="338.688" xlink:href="#ma65ec5a9d5" y="246.275392"/>
    </g>
   </g>
   <g id="line2d_52">
    <path style="fill:none;stroke:#6495ed;stroke-linecap:square;stroke-width:1.5;"/>
    <g/>
   </g>
   <g id="line2d_53">
    <path clip-path="url(#p6786353cf5)" d="M 165.978297 273.136382 
" style="fill:none;stroke:#6495ed;stroke-linecap:square;stroke-width:1.5;"/>
    <defs>
     <path d="M -12 12 
L 12 -12 
M -12 -12 
L 12 12 
" id="m04a4c6e4e7" style="stroke:#6495ed;"/>
    </defs>
    <g clip-path="url(#p6786353cf5)">
     <use style="fill:#6495ed;stroke:#6495ed;" x="165.978297" xlink:href="#m04a4c6e4e7" y="273.136382"/>
    </g>
   </g>
   <g id="line2d_54">
    <defs>
     <path d="M 0 1.5 
C 0.397805 1.5 0.77937 1.341951 1.06066 1.06066 
C 1.341951 0.77937 1.5 0.397805 1.5 0 
C 1.5 -0.397805 1.341951 -0.77937 1.06066 -1.06066 
C 0.77937 -1.341951 0.397805 -1.5 0 -1.5 
C -0.397805 -1.5 -0.77937 -1.341951 -1.06066 -1.06066 
C -1.341951 -0.77937 -1.5 -0.397805 -1.5 0 
C -1.5 0.397805 -1.341951 0.77937 -1.06066 1.06066 
C -0.77937 1.341951 -0.397805 1.5 0 1.5 
z
" id="m059558947b" style="stroke:#ff0000;"/>
    </defs>
    <g>
     <use style="fill:#ff0000;stroke:#ff0000;" x="233.845998" xlink:href="#m059558947b" y="272.609696"/>
     <use style="fill:#ff0000;stroke:#ff0000;" x="233.845998" xlink:href="#m059558947b" y="272.609696"/>
    </g>
   </g>
   <g id="line2d_55">
    <path d="M 150.327083 298.944 
L 150.327083 298.417314 
L 150.454969 298.417314 
L 150.454969 297.890628 
L 151.668912 297.890628 
L 151.668912 297.363942 
L 152.23026 297.363942 
L 152.23026 296.837256 
L 153.580644 296.837256 
L 153.580644 296.31057 
L 153.932113 296.31057 
L 153.932113 295.783884 
L 153.973817 295.783884 
L 153.973817 295.257197 
L 154.93278 295.257197 
L 154.93278 294.730511 
L 155.245367 294.730511 
L 155.245367 294.203825 
L 155.603109 294.203825 
L 155.603109 293.677139 
L 156.009346 293.677139 
L 156.009346 293.150453 
L 157.034952 293.150453 
L 157.034952 292.623767 
L 157.081488 292.623767 
L 157.081488 292.097081 
L 157.37527 292.097081 
L 157.37527 291.570395 
L 157.596634 291.570395 
L 157.596634 291.043709 
L 158.233478 291.043709 
L 158.233478 290.517023 
L 159.257749 290.517023 
L 159.257749 289.990337 
L 159.527421 289.990337 
L 159.527421 289.463651 
L 159.567767 289.463651 
L 159.567767 288.936964 
L 160.741375 288.936964 
L 160.741375 288.410278 
L 160.774311 288.410278 
L 160.774311 287.883592 
L 160.919424 287.883592 
L 160.919424 287.356906 
L 161.077205 287.356906 
L 161.077205 286.83022 
L 161.649781 286.83022 
L 161.649781 286.303534 
L 162.117326 286.303534 
L 162.117326 285.776848 
L 162.156452 285.776848 
L 162.156452 285.250162 
L 162.165135 285.250162 
L 162.165135 284.723476 
L 164.345081 284.723476 
L 164.345081 284.19679 
L 164.383342 284.19679 
L 164.383342 283.670104 
L 164.527973 283.670104 
L 164.527973 283.143418 
L 164.53934 283.143418 
L 164.53934 282.616732 
L 164.611161 282.616732 
L 164.611161 281.563359 
L 164.9363 281.563359 
L 164.9363 281.036673 
L 165.105794 281.036673 
L 165.105794 280.509987 
L 165.526038 280.509987 
L 165.526038 279.983301 
L 165.7501 279.983301 
L 165.7501 279.456615 
L 165.838222 279.456615 
L 165.838222 278.929929 
L 177.387048 278.929929 
L 177.387048 278.403243 
L 177.553068 278.403243 
L 177.553068 277.876557 
L 177.841622 277.876557 
L 177.841622 277.349871 
L 177.996389 277.349871 
L 177.996389 276.823185 
L 184.851294 276.823185 
L 184.851294 276.296499 
L 185.090739 276.296499 
L 185.090739 275.769812 
L 190.119361 275.769812 
L 190.119361 275.243126 
L 193.777208 275.243126 
L 193.777208 274.71644 
L 202.224815 274.71644 
L 202.224815 274.189754 
L 204.201497 274.189754 
L 204.201497 273.663068 
L 206.048414 273.663068 
L 206.048414 273.136382 
L 233.845998 273.136382 
L 233.845998 272.609696 
L 338.688 272.609696 
" style="fill:none;stroke:#ff0000;stroke-linecap:square;stroke-width:1.5;"/>
   </g>
   <g id="line2d_56">
    <defs>
     <path d="M 0 -6 
L -5.196152 -3 
L -5.196152 3 
L -0 6 
L 5.196152 3 
L 5.196152 -3 
z
" id="m497bd7230a" style="stroke:#ff0000;stroke-linejoin:miter;stroke-width:1.5;"/>
    </defs>
    <g>
     <use style="fill-opacity:0;stroke:#ff0000;stroke-linejoin:miter;stroke-width:1.5;" x="165.838222" xlink:href="#m497bd7230a" y="279.456615"/>
     <use style="fill-opacity:0;stroke:#ff0000;stroke-linejoin:miter;stroke-width:1.5;" x="206.048414" xlink:href="#m497bd7230a" y="273.663068"/>
     <use style="fill-opacity:0;stroke:#ff0000;stroke-linejoin:miter;stroke-width:1.5;" x="233.845998" xlink:href="#m497bd7230a" y="272.609696"/>
     <use style="fill-opacity:0;stroke:#ff0000;stroke-linejoin:miter;stroke-width:1.5;" x="233.845998" xlink:href="#m497bd7230a" y="272.609696"/>
     <use style="fill-opacity:0;stroke:#ff0000;stroke-linejoin:miter;stroke-width:1.5;" x="338.688" xlink:href="#m497bd7230a" y="272.609696"/>
    </g>
   </g>
   <g id="line2d_57">
    <path style="fill:none;stroke:#ff0000;stroke-linecap:square;stroke-width:1.5;"/>
    <g/>
   </g>
   <g id="line2d_58">
    <path clip-path="url(#p6786353cf5)" d="M 165.978297 278.929929 
" style="fill:none;stroke:#ff0000;stroke-linecap:square;stroke-width:1.5;"/>
    <defs>
     <path d="M -12 12 
L 12 -12 
M -12 -12 
L 12 12 
" id="m7298ade101" style="stroke:#ff0000;"/>
    </defs>
    <g clip-path="url(#p6786353cf5)">
     <use style="fill:#ff0000;stroke:#ff0000;" x="165.978297" xlink:href="#m7298ade101" y="278.929929"/>
    </g>
   </g>
   <g id="line2d_59">
    <defs>
     <path d="M 0 1.5 
C 0.397805 1.5 0.77937 1.341951 1.06066 1.06066 
C 1.341951 0.77937 1.5 0.397805 1.5 0 
C 1.5 -0.397805 1.341951 -0.77937 1.06066 -1.06066 
C 0.77937 -1.341951 0.397805 -1.5 0 -1.5 
C -0.397805 -1.5 -0.77937 -1.341951 -1.06066 -1.06066 
C -1.341951 -0.77937 -1.5 -0.397805 -1.5 0 
C -1.5 0.397805 -1.341951 0.77937 -1.06066 1.06066 
C -0.77937 1.341951 -0.397805 1.5 0 1.5 
z
" id="m7a5843db14" style="stroke:#9acd32;"/>
    </defs>
    <g>
     <use style="fill:#9acd32;stroke:#9acd32;" x="202.054216" xlink:href="#m7a5843db14" y="230.47481"/>
     <use style="fill:#9acd32;stroke:#9acd32;" x="202.054216" xlink:href="#m7a5843db14" y="230.47481"/>
    </g>
   </g>
   <g id="line2d_60">
    <path d="M 143.208936 298.944 
L 143.208936 298.417314 
L 144.641416 298.417314 
L 144.641416 297.890628 
L 145.166911 297.890628 
L 145.166911 297.363942 
L 145.576196 297.363942 
L 145.576196 296.837256 
L 146.118279 296.837256 
L 146.216039 295.783884 
L 147.061745 295.783884 
L 147.061745 295.257197 
L 148.525764 295.257197 
L 148.525764 294.730511 
L 148.648676 294.730511 
L 148.658095 293.677139 
L 148.901221 293.677139 
L 148.901221 293.150453 
L 149.323233 293.150453 
L 149.323233 292.623767 
L 150.016276 292.623767 
L 150.068464 291.570395 
L 150.437972 291.570395 
L 150.539708 290.517023 
L 151.039674 290.517023 
L 151.039674 289.990337 
L 151.332915 289.990337 
L 151.332915 289.463651 
L 152.068392 289.463651 
L 152.153367 286.83022 
L 152.191856 286.83022 
L 152.191856 286.303534 
L 152.826082 286.303534 
L 152.833495 285.250162 
L 153.192929 285.250162 
L 153.192929 284.723476 
L 153.545105 284.723476 
L 153.580644 283.670104 
L 153.946025 283.670104 
L 153.946025 283.143418 
L 154.24249 283.143418 
L 154.331136 282.090045 
L 154.627867 282.090045 
L 154.627867 281.563359 
L 154.978716 281.563359 
L 154.978716 281.036673 
L 155.122304 281.036673 
L 155.122304 280.509987 
L 155.264719 280.509987 
L 155.264719 279.983301 
L 155.399584 279.983301 
L 155.437927 278.929929 
L 155.647315 278.929929 
L 155.647315 278.403243 
L 155.885354 278.403243 
L 155.885354 277.876557 
L 156.027868 277.876557 
L 156.027868 277.349871 
L 156.181465 277.349871 
L 156.218128 276.296499 
L 156.484659 276.296499 
L 156.484659 275.769812 
L 156.829885 275.769812 
L 156.829885 275.243126 
L 157.443681 275.243126 
L 157.443681 274.71644 
L 157.781772 274.71644 
L 157.781772 274.189754 
L 158.047603 274.189754 
L 158.047603 273.663068 
L 158.20082 273.663068 
L 158.217157 272.08301 
L 158.368898 272.08301 
L 158.476481 271.029638 
L 158.625992 271.029638 
L 158.625992 270.502952 
L 158.790041 270.502952 
L 158.790041 269.976266 
L 159.035853 269.976266 
L 159.051426 268.922893 
L 159.262876 268.922893 
L 159.262876 267.869521 
L 159.400737 267.869521 
L 159.400737 267.342835 
L 160.015335 267.342835 
L 160.015335 266.816149 
L 160.166875 266.816149 
L 160.263949 265.236091 
L 160.499521 265.236091 
L 160.499521 264.709405 
L 160.975275 264.709405 
L 160.979921 263.656033 
L 161.206078 263.656033 
L 161.215247 262.075974 
L 161.497119 262.075974 
L 161.497119 261.549288 
L 161.649781 261.549288 
L 161.681046 260.495916 
L 162.095552 260.495916 
L 162.095552 259.96923 
L 162.212813 259.96923 
L 162.217141 258.915858 
L 162.324991 258.915858 
L 162.324991 258.389172 
L 162.52596 258.389172 
L 162.52596 257.862486 
L 162.674129 257.862486 
L 162.749842 256.809114 
L 162.833584 256.809114 
L 162.866969 255.755741 
L 162.995734 255.755741 
L 163.098888 254.702369 
L 163.605703 254.702369 
L 163.605703 254.175683 
L 163.752938 254.175683 
L 163.78461 252.595625 
L 163.871412 252.595625 
L 163.953867 251.542253 
L 164.13701 251.542253 
L 164.214363 250.488881 
L 164.440577 250.488881 
L 164.53934 249.435508 
L 164.558269 249.435508 
L 164.580957 248.382136 
L 164.712717 248.382136 
L 164.731458 247.328764 
L 164.965896 247.328764 
L 164.965896 246.802078 
L 165.08745 246.802078 
L 165.178976 244.695334 
L 165.629535 244.695334 
L 165.633093 243.115275 
L 165.838222 243.115275 
L 165.838222 242.588589 
L 176.825065 242.588589 
L 176.825065 242.061903 
L 177.301619 242.061903 
L 177.370721 239.955159 
L 177.62655 239.955159 
L 177.62655 239.428473 
L 177.894538 239.428473 
L 177.996389 238.375101 
L 184.462902 238.375101 
L 184.462902 237.848415 
L 184.631271 237.848415 
L 184.631271 237.321729 
L 185.022995 237.321729 
L 185.097732 234.688298 
L 190.119361 234.688298 
L 190.119361 234.161612 
L 194.017812 234.161612 
L 194.017812 232.581554 
L 196.974112 232.581554 
L 196.974112 232.054868 
L 197.202026 232.054868 
L 197.202026 231.528182 
L 199.864673 231.528182 
L 199.864673 231.001496 
L 202.054216 231.001496 
L 202.054216 230.47481 
L 338.688 230.47481 
L 338.688 230.47481 
" style="fill:none;stroke:#9acd32;stroke-linecap:square;stroke-width:1.5;"/>
   </g>
   <g id="line2d_61">
    <defs>
     <path d="M 0 -6 
L -6 6 
L 6 6 
z
" id="m3d312a4f51" style="stroke:#9acd32;stroke-linejoin:miter;stroke-width:1.5;"/>
    </defs>
    <g>
     <use style="fill-opacity:0;stroke:#9acd32;stroke-linejoin:miter;stroke-width:1.5;" x="190.119361" xlink:href="#m3d312a4f51" y="234.688298"/>
     <use style="fill-opacity:0;stroke:#9acd32;stroke-linejoin:miter;stroke-width:1.5;" x="202.054216" xlink:href="#m3d312a4f51" y="231.001496"/>
     <use style="fill-opacity:0;stroke:#9acd32;stroke-linejoin:miter;stroke-width:1.5;" x="202.054216" xlink:href="#m3d312a4f51" y="230.47481"/>
     <use style="fill-opacity:0;stroke:#9acd32;stroke-linejoin:miter;stroke-width:1.5;" x="202.054216" xlink:href="#m3d312a4f51" y="230.47481"/>
     <use style="fill-opacity:0;stroke:#9acd32;stroke-linejoin:miter;stroke-width:1.5;" x="338.688" xlink:href="#m3d312a4f51" y="230.47481"/>
    </g>
   </g>
   <g id="line2d_62">
    <path style="fill:none;stroke:#9acd32;stroke-linecap:square;stroke-width:1.5;"/>
    <g/>
   </g>
   <g id="line2d_63">
    <path clip-path="url(#p6786353cf5)" d="M 165.978297 242.588589 
" style="fill:none;stroke:#9acd32;stroke-linecap:square;stroke-width:1.5;"/>
    <defs>
     <path d="M -12 12 
L 12 -12 
M -12 -12 
L 12 12 
" id="m6a1fbd61c0" style="stroke:#9acd32;"/>
    </defs>
    <g clip-path="url(#p6786353cf5)">
     <use style="fill:#9acd32;stroke:#9acd32;" x="165.978297" xlink:href="#m6a1fbd61c0" y="242.588589"/>
    </g>
   </g>
   <g id="line2d_64">
    <defs>
     <path d="M 0 1.5 
C 0.397805 1.5 0.77937 1.341951 1.06066 1.06066 
C 1.341951 0.77937 1.5 0.397805 1.5 0 
C 1.5 -0.397805 1.341951 -0.77937 1.06066 -1.06066 
C 0.77937 -1.341951 0.397805 -1.5 0 -1.5 
C -0.397805 -1.5 -0.77937 -1.341951 -1.06066 -1.06066 
C -1.341951 -0.77937 -1.5 -0.397805 -1.5 0 
C -1.5 0.397805 -1.341951 0.77937 -1.06066 1.06066 
C -0.77937 1.341951 -0.397805 1.5 0 1.5 
z
" id="mc0b86a17d9" style="stroke:#00bfbf;"/>
    </defs>
    <g>
     <use style="fill:#00bfbf;stroke:#00bfbf;" x="214.299924" xlink:href="#mc0b86a17d9" y="256.809114"/>
     <use style="fill:#00bfbf;stroke:#00bfbf;" x="214.299924" xlink:href="#mc0b86a17d9" y="256.809114"/>
    </g>
   </g>
   <g id="line2d_65">
    <path d="M 143.170282 298.944 
L 143.170282 298.417314 
L 144.414696 298.417314 
L 144.426702 297.363942 
L 146.194362 297.363942 
L 146.194362 296.837256 
L 146.644018 296.837256 
L 146.707319 295.257197 
L 147.680117 295.257197 
L 147.680117 294.730511 
L 148.17112 294.730511 
L 148.17112 294.203825 
L 148.648676 294.203825 
L 148.695721 292.623767 
L 149.575199 292.623767 
L 149.575199 292.097081 
L 150.085825 292.097081 
L 150.085825 291.570395 
L 150.437972 291.570395 
L 150.437972 291.043709 
L 150.858013 291.043709 
L 150.858013 290.517023 
L 151.276281 290.517023 
L 151.340991 289.463651 
L 151.61336 289.463651 
L 151.61336 288.936964 
L 151.826663 288.936964 
L 151.826663 288.410278 
L 152.060646 288.410278 
L 152.114793 287.356906 
L 152.55709 287.356906 
L 152.55709 286.83022 
L 152.877907 286.83022 
L 152.981099 285.250162 
L 154.119001 285.250162 
L 154.119001 284.723476 
L 154.587699 284.723476 
L 154.641235 283.143418 
L 155.25182 283.143418 
L 155.25182 282.616732 
L 155.590458 282.616732 
L 155.590458 282.090045 
L 155.897793 282.090045 
L 155.897793 281.563359 
L 157.081488 281.563359 
L 157.133693 279.983301 
L 157.981524 279.983301 
L 157.981524 279.456615 
L 158.374293 279.456615 
L 158.390468 278.403243 
L 158.774233 278.403243 
L 158.774233 277.876557 
L 158.999461 277.876557 
L 159.103236 276.823185 
L 159.797958 276.823185 
L 159.797958 276.296499 
L 160.259108 276.296499 
L 160.259108 275.769812 
L 160.494745 275.769812 
L 160.604262 274.189754 
L 161.210663 274.189754 
L 161.228992 273.136382 
L 161.424813 273.136382 
L 161.424813 272.609696 
L 161.649781 272.609696 
L 161.649781 271.556324 
L 162.307779 271.556324 
L 162.320689 270.502952 
L 162.979172 270.502952 
L 162.979172 269.976266 
L 163.396654 269.976266 
L 163.396654 269.449579 
L 163.553675 269.449579 
L 163.557683 267.869521 
L 163.689421 267.869521 
L 163.77274 265.762777 
L 164.252911 265.762777 
L 164.345081 264.709405 
L 165.486619 264.709405 
L 165.486619 264.182719 
L 165.9084 264.182719 
L 165.9084 263.656033 
L 176.631116 263.656033 
L 176.631116 263.129347 
L 176.959372 263.129347 
L 176.959372 262.60266 
L 177.224922 262.60266 
L 177.224922 262.075974 
L 177.639065 262.075974 
L 177.639065 261.549288 
L 177.822179 261.549288 
L 177.822179 261.022602 
L 194.03178 261.022602 
L 194.03178 260.495916 
L 196.876532 260.495916 
L 196.963494 259.442544 
L 199.592745 259.442544 
L 199.592745 258.915858 
L 199.903603 258.915858 
L 199.903603 258.389172 
L 202.181556 258.389172 
L 202.181556 257.862486 
L 205.968669 257.862486 
L 205.968669 257.3358 
L 214.299924 257.3358 
L 214.299924 256.809114 
L 338.688 256.809114 
L 338.688 256.809114 
" style="fill:none;stroke:#00bfbf;stroke-linecap:square;stroke-width:1.5;"/>
   </g>
   <g id="line2d_66">
    <defs>
     <path d="M 0 -6 
L -5.706339 -1.854102 
L -3.526712 4.854102 
L 3.526712 4.854102 
L 5.706339 -1.854102 
z
" id="mabb86287c8" style="stroke:#00bfbf;stroke-linejoin:miter;stroke-width:1.5;"/>
    </defs>
    <g>
     <use style="fill-opacity:0;stroke:#00bfbf;stroke-linejoin:miter;stroke-width:1.5;" x="177.822179" xlink:href="#mabb86287c8" y="261.549288"/>
     <use style="fill-opacity:0;stroke:#00bfbf;stroke-linejoin:miter;stroke-width:1.5;" x="214.299924" xlink:href="#mabb86287c8" y="257.3358"/>
     <use style="fill-opacity:0;stroke:#00bfbf;stroke-linejoin:miter;stroke-width:1.5;" x="214.299924" xlink:href="#mabb86287c8" y="256.809114"/>
     <use style="fill-opacity:0;stroke:#00bfbf;stroke-linejoin:miter;stroke-width:1.5;" x="214.299924" xlink:href="#mabb86287c8" y="256.809114"/>
     <use style="fill-opacity:0;stroke:#00bfbf;stroke-linejoin:miter;stroke-width:1.5;" x="338.688" xlink:href="#mabb86287c8" y="256.809114"/>
    </g>
   </g>
   <g id="line2d_67">
    <path style="fill:none;stroke:#00bfbf;stroke-linecap:square;stroke-width:1.5;"/>
    <g/>
   </g>
   <g id="line2d_68">
    <path clip-path="url(#p6786353cf5)" d="M 165.978297 263.656033 
" style="fill:none;stroke:#00bfbf;stroke-linecap:square;stroke-width:1.5;"/>
    <defs>
     <path d="M -12 12 
L 12 -12 
M -12 -12 
L 12 12 
" id="mb39531994a" style="stroke:#00bfbf;"/>
    </defs>
    <g clip-path="url(#p6786353cf5)">
     <use style="fill:#00bfbf;stroke:#00bfbf;" x="165.978297" xlink:href="#mb39531994a" y="263.656033"/>
    </g>
   </g>
   <g id="line2d_69">
    <path d="M 338.688 293.677139 
L 369.60768 293.571802 
" style="fill:none;stroke:#000080;stroke-linecap:square;stroke-width:1.5;"/>
    <g>
     <use style="fill-opacity:0;stroke:#000080;stroke-width:1.5;" x="338.688" xlink:href="#mce41118320" y="293.677139"/>
     <use style="fill-opacity:0;stroke:#000080;stroke-width:1.5;" x="369.60768" xlink:href="#mce41118320" y="293.571802"/>
    </g>
   </g>
   <g id="line2d_70">
    <path d="M 338.688 272.609696 
L 369.60768 256.733873 
" style="fill:none;stroke:#ff0000;stroke-linecap:square;stroke-width:1.5;"/>
    <g>
     <use style="fill-opacity:0;stroke:#ff0000;stroke-linejoin:miter;stroke-width:1.5;" x="338.688" xlink:href="#m497bd7230a" y="272.609696"/>
     <use style="fill-opacity:0;stroke:#ff0000;stroke-linejoin:miter;stroke-width:1.5;" x="369.60768" xlink:href="#m497bd7230a" y="256.733873"/>
    </g>
   </g>
   <g id="line2d_71">
    <path d="M 338.688 262.075974 
L 369.60768 219.895943 
" style="fill:none;stroke:#ff00ff;stroke-linecap:square;stroke-width:1.5;"/>
    <g>
     <use style="fill-opacity:0;stroke:#ff00ff;stroke-linejoin:miter;stroke-width:1.5;" x="338.688" xlink:href="#m365607ee0f" y="262.075974"/>
     <use style="fill-opacity:0;stroke:#ff00ff;stroke-linejoin:miter;stroke-width:1.5;" x="369.60768" xlink:href="#m365607ee0f" y="219.895943"/>
    </g>
   </g>
   <g id="line2d_72">
    <path d="M 338.688 256.809114 
L 369.60768 183.058014 
" style="fill:none;stroke:#00bfbf;stroke-linecap:square;stroke-width:1.5;"/>
    <g>
     <use style="fill-opacity:0;stroke:#00bfbf;stroke-linejoin:miter;stroke-width:1.5;" x="338.688" xlink:href="#mabb86287c8" y="256.809114"/>
     <use style="fill-opacity:0;stroke:#00bfbf;stroke-linejoin:miter;stroke-width:1.5;" x="369.60768" xlink:href="#mabb86287c8" y="183.058014"/>
    </g>
   </g>
   <g id="line2d_73">
    <path d="M 338.688 246.275392 
L 369.60768 146.220085 
" style="fill:none;stroke:#6495ed;stroke-linecap:square;stroke-width:1.5;"/>
    <g>
     <use style="fill-opacity:0;stroke:#6495ed;stroke-linejoin:miter;stroke-width:1.5;" x="338.688" xlink:href="#ma65ec5a9d5" y="246.275392"/>
     <use style="fill-opacity:0;stroke:#6495ed;stroke-linejoin:miter;stroke-width:1.5;" x="369.60768" xlink:href="#ma65ec5a9d5" y="146.220085"/>
    </g>
   </g>
   <g id="line2d_74">
    <path d="M 338.688 246.275392 
L 369.60768 109.382156 
" style="fill:none;stroke:#ff7500;stroke-linecap:square;stroke-width:1.5;"/>
    <g>
     <use style="fill-opacity:0;stroke:#ff7500;stroke-linejoin:bevel;stroke-width:1.5;" x="338.688" xlink:href="#mf77c1df7ba" y="246.275392"/>
     <use style="fill-opacity:0;stroke:#ff7500;stroke-linejoin:bevel;stroke-width:1.5;" x="369.60768" xlink:href="#mf77c1df7ba" y="109.382156"/>
    </g>
   </g>
   <g id="line2d_75">
    <path d="M 338.688 230.47481 
L 369.60768 72.544226 
" style="fill:none;stroke:#9acd32;stroke-linecap:square;stroke-width:1.5;"/>
    <g>
     <use style="fill-opacity:0;stroke:#9acd32;stroke-linejoin:miter;stroke-width:1.5;" x="338.688" xlink:href="#m3d312a4f51" y="230.47481"/>
     <use style="fill-opacity:0;stroke:#9acd32;stroke-linejoin:miter;stroke-width:1.5;" x="369.60768" xlink:href="#m3d312a4f51" y="72.544226"/>
    </g>
   </g>
   <g id="line2d_76">
    <path d="M 338.688 298.944 
L 338.688 30.334099 
" style="fill:none;stroke:#000000;stroke-linecap:square;stroke-width:1.5;"/>
   </g>
   <g id="patch_3">
    <path d="M 57.6 298.944 
L 57.6 27.648 
" style="fill:none;stroke:#000000;stroke-linecap:square;stroke-linejoin:miter;stroke-width:0.8;"/>
   </g>
   <g id="patch_4">
    <path d="M 338.688 298.944 
L 338.688 27.648 
" style="fill:none;stroke:#000000;stroke-linecap:square;stroke-linejoin:miter;stroke-width:0.8;"/>
   </g>
   <g id="patch_5">
    <path d="M 57.6 298.944 
L 338.688 298.944 
" style="fill:none;stroke:#000000;stroke-linecap:square;stroke-linejoin:miter;stroke-width:0.8;"/>
   </g>
   <g id="patch_6">
    <path d="M 57.6 27.648 
L 338.688 27.648 
" style="fill:none;stroke:#000000;stroke-linecap:square;stroke-linejoin:miter;stroke-width:0.8;"/>
   </g>
   <g id="text_13">
    <!-- Bin GA -->
    <g transform="translate(375.22944 298.262739)scale(0.17 -0.17)">
     <defs>
      <path d="M 1259 2228 
L 1259 519 
L 2272 519 
Q 2781 519 3026 730 
Q 3272 941 3272 1375 
Q 3272 1813 3026 2020 
Q 2781 2228 2272 2228 
L 1259 2228 
z
M 1259 4147 
L 1259 2741 
L 2194 2741 
Q 2656 2741 2882 2914 
Q 3109 3088 3109 3444 
Q 3109 3797 2882 3972 
Q 2656 4147 2194 4147 
L 1259 4147 
z
M 628 4666 
L 2241 4666 
Q 2963 4666 3353 4366 
Q 3744 4066 3744 3513 
Q 3744 3084 3544 2831 
Q 3344 2578 2956 2516 
Q 3422 2416 3680 2098 
Q 3938 1781 3938 1306 
Q 3938 681 3513 340 
Q 3088 0 2303 0 
L 628 0 
L 628 4666 
z
" id="DejaVuSans-42" transform="scale(0.015625)"/>
      <path d="M 3809 666 
L 3809 1919 
L 2778 1919 
L 2778 2438 
L 4434 2438 
L 4434 434 
Q 4069 175 3628 42 
Q 3188 -91 2688 -91 
Q 1594 -91 976 548 
Q 359 1188 359 2328 
Q 359 3472 976 4111 
Q 1594 4750 2688 4750 
Q 3144 4750 3555 4637 
Q 3966 4525 4313 4306 
L 4313 3634 
Q 3963 3931 3569 4081 
Q 3175 4231 2741 4231 
Q 1884 4231 1454 3753 
Q 1025 3275 1025 2328 
Q 1025 1384 1454 906 
Q 1884 428 2741 428 
Q 3075 428 3337 486 
Q 3600 544 3809 666 
z
" id="DejaVuSans-47" transform="scale(0.015625)"/>
      <path d="M 2188 4044 
L 1331 1722 
L 3047 1722 
L 2188 4044 
z
M 1831 4666 
L 2547 4666 
L 4325 0 
L 3669 0 
L 3244 1197 
L 1141 1197 
L 716 0 
L 50 0 
L 1831 4666 
z
" id="DejaVuSans-41" transform="scale(0.015625)"/>
     </defs>
     <use xlink:href="#DejaVuSans-42"/>
     <use x="68.603516" xlink:href="#DejaVuSans-69"/>
     <use x="96.386719" xlink:href="#DejaVuSans-6e"/>
     <use x="159.765625" xlink:href="#DejaVuSans-20"/>
     <use x="191.552734" xlink:href="#DejaVuSans-47"/>
     <use x="269.042969" xlink:href="#DejaVuSans-41"/>
    </g>
   </g>
   <g id="text_14">
    <!-- DE -->
    <g transform="translate(375.22944 261.42481)scale(0.17 -0.17)">
     <defs>
      <path d="M 1259 4147 
L 1259 519 
L 2022 519 
Q 2988 519 3436 956 
Q 3884 1394 3884 2338 
Q 3884 3275 3436 3711 
Q 2988 4147 2022 4147 
L 1259 4147 
z
M 628 4666 
L 1925 4666 
Q 3281 4666 3915 4102 
Q 4550 3538 4550 2338 
Q 4550 1131 3912 565 
Q 3275 0 1925 0 
L 628 0 
L 628 4666 
z
" id="DejaVuSans-44" transform="scale(0.015625)"/>
      <path d="M 628 4666 
L 3578 4666 
L 3578 4134 
L 1259 4134 
L 1259 2753 
L 3481 2753 
L 3481 2222 
L 1259 2222 
L 1259 531 
L 3634 531 
L 3634 0 
L 628 0 
L 628 4666 
z
" id="DejaVuSans-45" transform="scale(0.015625)"/>
     </defs>
     <use xlink:href="#DejaVuSans-44"/>
     <use x="77.001953" xlink:href="#DejaVuSans-45"/>
    </g>
   </g>
   <g id="text_15">
    <!-- PSO -->
    <g transform="translate(375.22944 224.586881)scale(0.17 -0.17)">
     <defs>
      <path d="M 1259 4147 
L 1259 2394 
L 2053 2394 
Q 2494 2394 2734 2622 
Q 2975 2850 2975 3272 
Q 2975 3691 2734 3919 
Q 2494 4147 2053 4147 
L 1259 4147 
z
M 628 4666 
L 2053 4666 
Q 2838 4666 3239 4311 
Q 3641 3956 3641 3272 
Q 3641 2581 3239 2228 
Q 2838 1875 2053 1875 
L 1259 1875 
L 1259 0 
L 628 0 
L 628 4666 
z
" id="DejaVuSans-50" transform="scale(0.015625)"/>
      <path d="M 3425 4513 
L 3425 3897 
Q 3066 4069 2747 4153 
Q 2428 4238 2131 4238 
Q 1616 4238 1336 4038 
Q 1056 3838 1056 3469 
Q 1056 3159 1242 3001 
Q 1428 2844 1947 2747 
L 2328 2669 
Q 3034 2534 3370 2195 
Q 3706 1856 3706 1288 
Q 3706 609 3251 259 
Q 2797 -91 1919 -91 
Q 1588 -91 1214 -16 
Q 841 59 441 206 
L 441 856 
Q 825 641 1194 531 
Q 1563 422 1919 422 
Q 2459 422 2753 634 
Q 3047 847 3047 1241 
Q 3047 1584 2836 1778 
Q 2625 1972 2144 2069 
L 1759 2144 
Q 1053 2284 737 2584 
Q 422 2884 422 3419 
Q 422 4038 858 4394 
Q 1294 4750 2059 4750 
Q 2388 4750 2728 4690 
Q 3069 4631 3425 4513 
z
" id="DejaVuSans-53" transform="scale(0.015625)"/>
      <path d="M 2522 4238 
Q 1834 4238 1429 3725 
Q 1025 3213 1025 2328 
Q 1025 1447 1429 934 
Q 1834 422 2522 422 
Q 3209 422 3611 934 
Q 4013 1447 4013 2328 
Q 4013 3213 3611 3725 
Q 3209 4238 2522 4238 
z
M 2522 4750 
Q 3503 4750 4090 4092 
Q 4678 3434 4678 2328 
Q 4678 1225 4090 567 
Q 3503 -91 2522 -91 
Q 1538 -91 948 565 
Q 359 1222 359 2328 
Q 359 3434 948 4092 
Q 1538 4750 2522 4750 
z
" id="DejaVuSans-4f" transform="scale(0.015625)"/>
     </defs>
     <use xlink:href="#DejaVuSans-50"/>
     <use x="60.302734" xlink:href="#DejaVuSans-53"/>
     <use x="123.779297" xlink:href="#DejaVuSans-4f"/>
    </g>
   </g>
   <g id="text_16">
    <!-- JADE -->
    <g transform="translate(375.22944 187.748952)scale(0.17 -0.17)">
     <defs>
      <path d="M 628 4666 
L 1259 4666 
L 1259 325 
Q 1259 -519 939 -900 
Q 619 -1281 -91 -1281 
L -331 -1281 
L -331 -750 
L -134 -750 
Q 284 -750 456 -515 
Q 628 -281 628 325 
L 628 4666 
z
" id="DejaVuSans-4a" transform="scale(0.015625)"/>
     </defs>
     <use xlink:href="#DejaVuSans-4a"/>
     <use x="27.742188" xlink:href="#DejaVuSans-41"/>
     <use x="96.150391" xlink:href="#DejaVuSans-44"/>
     <use x="173.152344" xlink:href="#DejaVuSans-45"/>
    </g>
   </g>
   <g id="text_17">
    <!-- PSO EDA -->
    <g transform="translate(375.22944 150.911022)scale(0.17 -0.17)">
     <use xlink:href="#DejaVuSans-50"/>
     <use x="60.302734" xlink:href="#DejaVuSans-53"/>
     <use x="123.779297" xlink:href="#DejaVuSans-4f"/>
     <use x="202.490234" xlink:href="#DejaVuSans-20"/>
     <use x="234.277344" xlink:href="#DejaVuSans-45"/>
     <use x="297.460938" xlink:href="#DejaVuSans-44"/>
     <use x="372.712891" xlink:href="#DejaVuSans-41"/>
    </g>
   </g>
   <g id="text_18">
    <!-- PSO Bound -->
    <g transform="translate(375.22944 114.073093)scale(0.17 -0.17)">
     <use xlink:href="#DejaVuSans-50"/>
     <use x="60.302734" xlink:href="#DejaVuSans-53"/>
     <use x="123.779297" xlink:href="#DejaVuSans-4f"/>
     <use x="202.490234" xlink:href="#DejaVuSans-20"/>
     <use x="234.277344" xlink:href="#DejaVuSans-42"/>
     <use x="302.880859" xlink:href="#DejaVuSans-6f"/>
     <use x="364.0625" xlink:href="#DejaVuSans-75"/>
     <use x="427.441406" xlink:href="#DejaVuSans-6e"/>
     <use x="490.820312" xlink:href="#DejaVuSans-64"/>
    </g>
   </g>
   <g id="text_19">
    <!-- DEAE -->
    <g transform="translate(375.22944 77.235164)scale(0.17 -0.17)">
     <use xlink:href="#DejaVuSans-44"/>
     <use x="77.001953" xlink:href="#DejaVuSans-45"/>
     <use x="140.185547" xlink:href="#DejaVuSans-41"/>
     <use x="208.59375" xlink:href="#DejaVuSans-45"/>
    </g>
   </g>
   <g id="text_20">
    <!-- best 2009 -->
    <g transform="translate(375.22944 40.397235)scale(0.17 -0.17)">
     <defs>
      <path d="M 3116 1747 
Q 3116 2381 2855 2742 
Q 2594 3103 2138 3103 
Q 1681 3103 1420 2742 
Q 1159 2381 1159 1747 
Q 1159 1113 1420 752 
Q 1681 391 2138 391 
Q 2594 391 2855 752 
Q 3116 1113 3116 1747 
z
M 1159 2969 
Q 1341 3281 1617 3432 
Q 1894 3584 2278 3584 
Q 2916 3584 3314 3078 
Q 3713 2572 3713 1747 
Q 3713 922 3314 415 
Q 2916 -91 2278 -91 
Q 1894 -91 1617 61 
Q 1341 213 1159 525 
L 1159 0 
L 581 0 
L 581 4863 
L 1159 4863 
L 1159 2969 
z
" id="DejaVuSans-62" transform="scale(0.015625)"/>
      <path d="M 703 97 
L 703 672 
Q 941 559 1184 500 
Q 1428 441 1663 441 
Q 2288 441 2617 861 
Q 2947 1281 2994 2138 
Q 2813 1869 2534 1725 
Q 2256 1581 1919 1581 
Q 1219 1581 811 2004 
Q 403 2428 403 3163 
Q 403 3881 828 4315 
Q 1253 4750 1959 4750 
Q 2769 4750 3195 4129 
Q 3622 3509 3622 2328 
Q 3622 1225 3098 567 
Q 2575 -91 1691 -91 
Q 1453 -91 1209 -44 
Q 966 3 703 97 
z
M 1959 2075 
Q 2384 2075 2632 2365 
Q 2881 2656 2881 3163 
Q 2881 3666 2632 3958 
Q 2384 4250 1959 4250 
Q 1534 4250 1286 3958 
Q 1038 3666 1038 3163 
Q 1038 2656 1286 2365 
Q 1534 2075 1959 2075 
z
" id="DejaVuSans-39" transform="scale(0.015625)"/>
     </defs>
     <use xlink:href="#DejaVuSans-62"/>
     <use x="63.476562" xlink:href="#DejaVuSans-65"/>
     <use x="125" xlink:href="#DejaVuSans-73"/>
     <use x="177.099609" xlink:href="#DejaVuSans-74"/>
     <use x="216.308594" xlink:href="#DejaVuSans-20"/>
     <use x="248.095703" xlink:href="#DejaVuSans-32"/>
     <use x="311.71875" xlink:href="#DejaVuSans-30"/>
     <use x="375.341797" xlink:href="#DejaVuSans-30"/>
     <use x="438.964844" xlink:href="#DejaVuSans-39"/>
    </g>
   </g>
   <g id="text_21">
    <!-- bbob f13, 10-D -->
    <g transform="translate(60.41088 38.111366)scale(0.102 -0.102)">
     <defs>
      <path d="M 2597 2516 
Q 3050 2419 3304 2112 
Q 3559 1806 3559 1356 
Q 3559 666 3084 287 
Q 2609 -91 1734 -91 
Q 1441 -91 1130 -33 
Q 819 25 488 141 
L 488 750 
Q 750 597 1062 519 
Q 1375 441 1716 441 
Q 2309 441 2620 675 
Q 2931 909 2931 1356 
Q 2931 1769 2642 2001 
Q 2353 2234 1838 2234 
L 1294 2234 
L 1294 2753 
L 1863 2753 
Q 2328 2753 2575 2939 
Q 2822 3125 2822 3475 
Q 2822 3834 2567 4026 
Q 2313 4219 1838 4219 
Q 1578 4219 1281 4162 
Q 984 4106 628 3988 
L 628 4550 
Q 988 4650 1302 4700 
Q 1616 4750 1894 4750 
Q 2613 4750 3031 4423 
Q 3450 4097 3450 3541 
Q 3450 3153 3228 2886 
Q 3006 2619 2597 2516 
z
" id="DejaVuSans-33" transform="scale(0.015625)"/>
     </defs>
     <use xlink:href="#DejaVuSans-62"/>
     <use x="63.476562" xlink:href="#DejaVuSans-62"/>
     <use x="126.953125" xlink:href="#DejaVuSans-6f"/>
     <use x="188.134766" xlink:href="#DejaVuSans-62"/>
     <use x="251.611328" xlink:href="#DejaVuSans-20"/>
     <use x="283.398438" xlink:href="#DejaVuSans-66"/>
     <use x="318.603516" xlink:href="#DejaVuSans-31"/>
     <use x="382.226562" xlink:href="#DejaVuSans-33"/>
     <use x="445.849609" xlink:href="#DejaVuSans-2c"/>
     <use x="477.636719" xlink:href="#DejaVuSans-20"/>
     <use x="509.423828" xlink:href="#DejaVuSans-31"/>
     <use x="573.046875" xlink:href="#DejaVuSans-30"/>
     <use x="636.669922" xlink:href="#DejaVuSans-2d"/>
     <use x="672.753906" xlink:href="#DejaVuSans-44"/>
    </g>
    <!-- 51 targets: 100..1e-08 -->
    <g transform="translate(60.41088 49.533135)scale(0.102 -0.102)">
     <defs>
      <path d="M 691 4666 
L 3169 4666 
L 3169 4134 
L 1269 4134 
L 1269 2991 
Q 1406 3038 1543 3061 
Q 1681 3084 1819 3084 
Q 2600 3084 3056 2656 
Q 3513 2228 3513 1497 
Q 3513 744 3044 326 
Q 2575 -91 1722 -91 
Q 1428 -91 1123 -41 
Q 819 9 494 109 
L 494 744 
Q 775 591 1075 516 
Q 1375 441 1709 441 
Q 2250 441 2565 725 
Q 2881 1009 2881 1497 
Q 2881 1984 2565 2268 
Q 2250 2553 1709 2553 
Q 1456 2553 1204 2497 
Q 953 2441 691 2322 
L 691 4666 
z
" id="DejaVuSans-35" transform="scale(0.015625)"/>
      <path d="M 750 794 
L 1409 794 
L 1409 0 
L 750 0 
L 750 794 
z
M 750 3309 
L 1409 3309 
L 1409 2516 
L 750 2516 
L 750 3309 
z
" id="DejaVuSans-3a" transform="scale(0.015625)"/>
     </defs>
     <use xlink:href="#DejaVuSans-35"/>
     <use x="63.623047" xlink:href="#DejaVuSans-31"/>
     <use x="127.246094" xlink:href="#DejaVuSans-20"/>
     <use x="159.033203" xlink:href="#DejaVuSans-74"/>
     <use x="198.242188" xlink:href="#DejaVuSans-61"/>
     <use x="259.521484" xlink:href="#DejaVuSans-72"/>
     <use x="298.884766" xlink:href="#DejaVuSans-67"/>
     <use x="362.361328" xlink:href="#DejaVuSans-65"/>
     <use x="423.884766" xlink:href="#DejaVuSans-74"/>
     <use x="463.09375" xlink:href="#DejaVuSans-73"/>
     <use x="515.193359" xlink:href="#DejaVuSans-3a"/>
     <use x="548.884766" xlink:href="#DejaVuSans-20"/>
     <use x="580.671875" xlink:href="#DejaVuSans-31"/>
     <use x="644.294922" xlink:href="#DejaVuSans-30"/>
     <use x="707.917969" xlink:href="#DejaVuSans-30"/>
     <use x="771.541016" xlink:href="#DejaVuSans-2e"/>
     <use x="803.328125" xlink:href="#DejaVuSans-2e"/>
     <use x="835.115234" xlink:href="#DejaVuSans-31"/>
     <use x="898.738281" xlink:href="#DejaVuSans-65"/>
     <use x="960.261719" xlink:href="#DejaVuSans-2d"/>
     <use x="996.345703" xlink:href="#DejaVuSans-30"/>
     <use x="1059.96875" xlink:href="#DejaVuSans-38"/>
    </g>
    <!-- 15 instances -->
    <g transform="translate(60.41088 60.954904)scale(0.102 -0.102)">
     <use xlink:href="#DejaVuSans-31"/>
     <use x="63.623047" xlink:href="#DejaVuSans-35"/>
     <use x="127.246094" xlink:href="#DejaVuSans-20"/>
     <use x="159.033203" xlink:href="#DejaVuSans-69"/>
     <use x="186.816406" xlink:href="#DejaVuSans-6e"/>
     <use x="250.195312" xlink:href="#DejaVuSans-73"/>
     <use x="302.294922" xlink:href="#DejaVuSans-74"/>
     <use x="341.503906" xlink:href="#DejaVuSans-61"/>
     <use x="402.783203" xlink:href="#DejaVuSans-6e"/>
     <use x="466.162109" xlink:href="#DejaVuSans-63"/>
     <use x="521.142578" xlink:href="#DejaVuSans-65"/>
     <use x="582.666016" xlink:href="#DejaVuSans-73"/>
    </g>
   </g>
   <g id="text_22">
    <!-- v2.4 -->
    <g style="fill:#808080;" transform="translate(187.233062 294.151352)scale(0.1 -0.1)">
     <use xlink:href="#DejaVuSans-76"/>
     <use x="59.179688" xlink:href="#DejaVuSans-32"/>
     <use x="122.802734" xlink:href="#DejaVuSans-2e"/>
     <use x="154.589844" xlink:href="#DejaVuSans-34"/>
    </g>
   </g>
   <g id="text_23">
    <!-- 13 Sharp ridge -->
    <g transform="translate(124.05025 21.648)scale(0.2 -0.2)">
     <defs>
      <path d="M 3513 2113 
L 3513 0 
L 2938 0 
L 2938 2094 
Q 2938 2591 2744 2837 
Q 2550 3084 2163 3084 
Q 1697 3084 1428 2787 
Q 1159 2491 1159 1978 
L 1159 0 
L 581 0 
L 581 4863 
L 1159 4863 
L 1159 2956 
Q 1366 3272 1645 3428 
Q 1925 3584 2291 3584 
Q 2894 3584 3203 3211 
Q 3513 2838 3513 2113 
z
" id="DejaVuSans-68" transform="scale(0.015625)"/>
     </defs>
     <use xlink:href="#DejaVuSans-31"/>
     <use x="63.623047" xlink:href="#DejaVuSans-33"/>
     <use x="127.246094" xlink:href="#DejaVuSans-20"/>
     <use x="159.033203" xlink:href="#DejaVuSans-53"/>
     <use x="222.509766" xlink:href="#DejaVuSans-68"/>
     <use x="285.888672" xlink:href="#DejaVuSans-61"/>
     <use x="347.167969" xlink:href="#DejaVuSans-72"/>
     <use x="388.28125" xlink:href="#DejaVuSans-70"/>
     <use x="451.757812" xlink:href="#DejaVuSans-20"/>
     <use x="483.544922" xlink:href="#DejaVuSans-72"/>
     <use x="524.658203" xlink:href="#DejaVuSans-69"/>
     <use x="552.441406" xlink:href="#DejaVuSans-64"/>
     <use x="615.917969" xlink:href="#DejaVuSans-67"/>
     <use x="679.394531" xlink:href="#DejaVuSans-65"/>
    </g>
   </g>
  </g>
 </g>
 <defs>
  <clipPath id="p6786353cf5">
   <rect height="271.296" width="281.088" x="57.6" y="27.648"/>
  </clipPath>
 </defs>
</svg>
