<?xml version="1.0" encoding="utf-8" standalone="no"?>
<!DOCTYPE svg PUBLIC "-//W3C//DTD SVG 1.1//EN"
  "http://www.w3.org/Graphics/SVG/1.1/DTD/svg11.dtd">
<svg height="345.6pt" version="1.1" viewBox="0 0 460.8 345.6" width="460.8pt" xmlns="http://www.w3.org/2000/svg" xmlns:xlink="http://www.w3.org/1999/xlink">
 <metadata>
  <rdf:RDF xmlns:cc="http://creativecommons.org/ns#" xmlns:dc="http://purl.org/dc/elements/1.1/" xmlns:rdf="http://www.w3.org/1999/02/22-rdf-syntax-ns#">
   <cc:Work>
    <dc:type rdf:resource="http://purl.org/dc/dcmitype/StillImage"/>
    <dc:date>2021-04-28T00:33:03.538064</dc:date>
    <dc:format>image/svg+xml</dc:format>
    <dc:creator>
     <cc:Agent>
      <dc:title>Matplotlib v3.4.1, https://matplotlib.org/</dc:title>
     </cc:Agent>
    </dc:creator>
   </cc:Work>
  </rdf:RDF>
 </metadata>
 <defs>
  <style type="text/css">*{stroke-linecap:butt;stroke-linejoin:round;}</style>
 </defs>
 <g id="figure_1">
  <g id="patch_1">
   <path d="M 0 345.6 
L 460.8 345.6 
L 460.8 0 
L 0 0 
z
" style="fill:#ffffff;"/>
  </g>
  <g id="axes_1">
   <g id="patch_2">
    <path d="M 57.6 298.944 
L 338.688 298.944 
L 338.688 27.648 
L 57.6 27.648 
z
" style="fill:#ffffff;"/>
   </g>
   <g id="line2d_1">
    <path d="M 78.421149 298.944 
L 78.421149 293.677139 
L 87.643811 293.677139 
L 87.643811 288.410278 
L 92.026554 288.410278 
L 92.026554 283.143418 
L 92.73846 283.143418 
L 92.73846 277.876557 
L 94.294587 277.876557 
L 94.294587 272.609696 
L 107.213174 272.609696 
L 107.213174 267.342835 
L 120.665825 267.342835 
L 120.665825 262.075974 
L 131.133813 262.075974 
L 131.133813 256.809114 
L 133.667073 256.809114 
L 133.667073 251.542253 
L 136.942755 251.542253 
L 136.942755 246.275392 
L 146.226867 246.275392 
L 146.226867 241.008531 
L 155.603109 241.008531 
L 155.603109 235.74167 
L 158.025604 235.74167 
L 158.025604 230.47481 
L 158.444276 230.47481 
L 158.444276 225.207949 
L 162.547205 225.207949 
L 162.547205 219.941088 
L 162.916926 219.941088 
L 162.916926 214.674227 
L 163.725178 214.674227 
L 163.725178 209.407366 
L 164.448194 209.407366 
L 164.448194 204.140506 
L 164.783829 204.140506 
L 164.783829 198.873645 
L 165.259123 198.873645 
L 165.259123 193.606784 
L 166.320221 193.606784 
L 166.320221 188.339923 
L 166.405516 188.339923 
L 166.405516 183.073062 
L 166.463278 183.073062 
L 166.463278 72.468985 
L 167.086355 72.468985 
L 167.086355 67.202125 
L 167.135383 67.202125 
L 167.135383 61.935264 
L 167.284882 61.935264 
L 167.284882 56.668403 
L 168.238843 56.668403 
L 168.238843 51.401542 
L 168.473175 51.401542 
L 168.473175 46.134681 
L 168.602679 46.134681 
L 168.602679 40.867821 
L 168.686493 40.867821 
L 168.686493 35.60096 
L 168.844047 35.60096 
L 168.844047 30.334099 
L 338.688 30.334099 
" style="fill:none;stroke:#f5deb3;stroke-linecap:square;stroke-width:4;"/>
   </g>
   <g id="line2d_2">
    <defs>
     <path d="M 0 7.778175 
L 7.778175 0 
L 0 -7.778175 
L -7.778175 0 
z
" id="ma728a4d5c0" style="stroke:#f5deb3;stroke-linejoin:miter;stroke-width:1.5;"/>
    </defs>
    <g>
     <use style="fill:#f5deb3;stroke:#f5deb3;stroke-linejoin:miter;stroke-width:1.5;" x="155.603109" xlink:href="#ma728a4d5c0" y="235.74167"/>
     <use style="fill:#f5deb3;stroke:#f5deb3;stroke-linejoin:miter;stroke-width:1.5;" x="166.463278" xlink:href="#ma728a4d5c0" y="183.073062"/>
     <use style="fill:#f5deb3;stroke:#f5deb3;stroke-linejoin:miter;stroke-width:1.5;" x="168.844047" xlink:href="#ma728a4d5c0" y="35.60096"/>
     <use style="fill:#f5deb3;stroke:#f5deb3;stroke-linejoin:miter;stroke-width:1.5;" x="168.844047" xlink:href="#ma728a4d5c0" y="30.334099"/>
     <use style="fill:#f5deb3;stroke:#f5deb3;stroke-linejoin:miter;stroke-width:1.5;" x="338.688" xlink:href="#ma728a4d5c0" y="30.334099"/>
    </g>
   </g>
   <g id="line2d_3">
    <path style="fill:none;stroke:#f5deb3;stroke-linecap:square;stroke-width:4;"/>
    <g/>
   </g>
   <g id="line2d_4">
    <path d="M 338.688 30.334099 
L 369.60768 35.706297 
" style="fill:none;stroke:#f5deb3;stroke-linecap:square;stroke-width:4;"/>
    <g>
     <use style="fill:#f5deb3;stroke:#f5deb3;stroke-linejoin:miter;stroke-width:1.5;" x="338.688" xlink:href="#ma728a4d5c0" y="30.334099"/>
     <use style="fill:#f5deb3;stroke:#f5deb3;stroke-linejoin:miter;stroke-width:1.5;" x="369.60768" xlink:href="#ma728a4d5c0" y="35.706297"/>
    </g>
   </g>
   <g id="matplotlib.axis_1">
    <g id="xtick_1">
     <g id="line2d_5">
      <path clip-path="url(#p815019553e)" d="M 57.6 298.944 
L 57.6 27.648 
" style="fill:none;stroke:#b0b0b0;stroke-linecap:square;stroke-width:0.8;"/>
     </g>
     <g id="line2d_6">
      <defs>
       <path d="M 0 0 
L 0 3.5 
" id="m5a491d0f02" style="stroke:#000000;stroke-width:0.8;"/>
      </defs>
      <g>
       <use style="stroke:#000000;stroke-width:0.8;" x="57.6" xlink:href="#m5a491d0f02" y="298.944"/>
      </g>
     </g>
     <g id="text_1">
      <!-- 0 -->
      <g transform="translate(51.2375 321.140875)scale(0.2 -0.2)">
       <defs>
        <path d="M 2034 4250 
Q 1547 4250 1301 3770 
Q 1056 3291 1056 2328 
Q 1056 1369 1301 889 
Q 1547 409 2034 409 
Q 2525 409 2770 889 
Q 3016 1369 3016 2328 
Q 3016 3291 2770 3770 
Q 2525 4250 2034 4250 
z
M 2034 4750 
Q 2819 4750 3233 4129 
Q 3647 3509 3647 2328 
Q 3647 1150 3233 529 
Q 2819 -91 2034 -91 
Q 1250 -91 836 529 
Q 422 1150 422 2328 
Q 422 3509 836 4129 
Q 1250 4750 2034 4750 
z
" id="DejaVuSans-30" transform="scale(0.015625)"/>
       </defs>
       <use xlink:href="#DejaVuSans-30"/>
      </g>
     </g>
    </g>
    <g id="xtick_2">
     <g id="line2d_7">
      <path clip-path="url(#p815019553e)" d="M 137.910857 298.944 
L 137.910857 27.648 
" style="fill:none;stroke:#b0b0b0;stroke-linecap:square;stroke-width:0.8;"/>
     </g>
     <g id="line2d_8">
      <g>
       <use style="stroke:#000000;stroke-width:0.8;" x="137.910857" xlink:href="#m5a491d0f02" y="298.944"/>
      </g>
     </g>
     <g id="text_2">
      <!-- 2 -->
      <g transform="translate(131.548357 321.140875)scale(0.2 -0.2)">
       <defs>
        <path d="M 1228 531 
L 3431 531 
L 3431 0 
L 469 0 
L 469 531 
Q 828 903 1448 1529 
Q 2069 2156 2228 2338 
Q 2531 2678 2651 2914 
Q 2772 3150 2772 3378 
Q 2772 3750 2511 3984 
Q 2250 4219 1831 4219 
Q 1534 4219 1204 4116 
Q 875 4013 500 3803 
L 500 4441 
Q 881 4594 1212 4672 
Q 1544 4750 1819 4750 
Q 2544 4750 2975 4387 
Q 3406 4025 3406 3419 
Q 3406 3131 3298 2873 
Q 3191 2616 2906 2266 
Q 2828 2175 2409 1742 
Q 1991 1309 1228 531 
z
" id="DejaVuSans-32" transform="scale(0.015625)"/>
       </defs>
       <use xlink:href="#DejaVuSans-32"/>
      </g>
     </g>
    </g>
    <g id="xtick_3">
     <g id="line2d_9">
      <path clip-path="url(#p815019553e)" d="M 218.221714 298.944 
L 218.221714 27.648 
" style="fill:none;stroke:#b0b0b0;stroke-linecap:square;stroke-width:0.8;"/>
     </g>
     <g id="line2d_10">
      <g>
       <use style="stroke:#000000;stroke-width:0.8;" x="218.221714" xlink:href="#m5a491d0f02" y="298.944"/>
      </g>
     </g>
     <g id="text_3">
      <!-- 4 -->
      <g transform="translate(211.859214 321.140875)scale(0.2 -0.2)">
       <defs>
        <path d="M 2419 4116 
L 825 1625 
L 2419 1625 
L 2419 4116 
z
M 2253 4666 
L 3047 4666 
L 3047 1625 
L 3713 1625 
L 3713 1100 
L 3047 1100 
L 3047 0 
L 2419 0 
L 2419 1100 
L 313 1100 
L 313 1709 
L 2253 4666 
z
" id="DejaVuSans-34" transform="scale(0.015625)"/>
       </defs>
       <use xlink:href="#DejaVuSans-34"/>
      </g>
     </g>
    </g>
    <g id="xtick_4">
     <g id="line2d_11">
      <path clip-path="url(#p815019553e)" d="M 298.532571 298.944 
L 298.532571 27.648 
" style="fill:none;stroke:#b0b0b0;stroke-linecap:square;stroke-width:0.8;"/>
     </g>
     <g id="line2d_12">
      <g>
       <use style="stroke:#000000;stroke-width:0.8;" x="298.532571" xlink:href="#m5a491d0f02" y="298.944"/>
      </g>
     </g>
     <g id="text_4">
      <!-- 6 -->
      <g transform="translate(292.170071 321.140875)scale(0.2 -0.2)">
       <defs>
        <path d="M 2113 2584 
Q 1688 2584 1439 2293 
Q 1191 2003 1191 1497 
Q 1191 994 1439 701 
Q 1688 409 2113 409 
Q 2538 409 2786 701 
Q 3034 994 3034 1497 
Q 3034 2003 2786 2293 
Q 2538 2584 2113 2584 
z
M 3366 4563 
L 3366 3988 
Q 3128 4100 2886 4159 
Q 2644 4219 2406 4219 
Q 1781 4219 1451 3797 
Q 1122 3375 1075 2522 
Q 1259 2794 1537 2939 
Q 1816 3084 2150 3084 
Q 2853 3084 3261 2657 
Q 3669 2231 3669 1497 
Q 3669 778 3244 343 
Q 2819 -91 2113 -91 
Q 1303 -91 875 529 
Q 447 1150 447 2328 
Q 447 3434 972 4092 
Q 1497 4750 2381 4750 
Q 2619 4750 2861 4703 
Q 3103 4656 3366 4563 
z
" id="DejaVuSans-36" transform="scale(0.015625)"/>
       </defs>
       <use xlink:href="#DejaVuSans-36"/>
      </g>
     </g>
    </g>
    <g id="xtick_5">
     <g id="line2d_13">
      <path clip-path="url(#p815019553e)" d="M 97.755429 298.944 
L 97.755429 27.648 
" style="fill:none;stroke:#b0b0b0;stroke-linecap:square;stroke-width:0.8;"/>
     </g>
     <g id="line2d_14">
      <defs>
       <path d="M 0 0 
L 0 2 
" id="m5f24e19da7" style="stroke:#000000;stroke-width:0.6;"/>
      </defs>
      <g>
       <use style="stroke:#000000;stroke-width:0.6;" x="97.755429" xlink:href="#m5f24e19da7" y="298.944"/>
      </g>
     </g>
    </g>
    <g id="xtick_6">
     <g id="line2d_15">
      <path clip-path="url(#p815019553e)" d="M 178.066286 298.944 
L 178.066286 27.648 
" style="fill:none;stroke:#b0b0b0;stroke-linecap:square;stroke-width:0.8;"/>
     </g>
     <g id="line2d_16">
      <g>
       <use style="stroke:#000000;stroke-width:0.6;" x="178.066286" xlink:href="#m5f24e19da7" y="298.944"/>
      </g>
     </g>
    </g>
    <g id="xtick_7">
     <g id="line2d_17">
      <path clip-path="url(#p815019553e)" d="M 258.377143 298.944 
L 258.377143 27.648 
" style="fill:none;stroke:#b0b0b0;stroke-linecap:square;stroke-width:0.8;"/>
     </g>
     <g id="line2d_18">
      <g>
       <use style="stroke:#000000;stroke-width:0.6;" x="258.377143" xlink:href="#m5f24e19da7" y="298.944"/>
      </g>
     </g>
    </g>
    <g id="xtick_8">
     <g id="line2d_19">
      <path clip-path="url(#p815019553e)" d="M 338.688 298.944 
L 338.688 27.648 
" style="fill:none;stroke:#b0b0b0;stroke-linecap:square;stroke-width:0.8;"/>
     </g>
     <g id="line2d_20">
      <g>
       <use style="stroke:#000000;stroke-width:0.6;" x="338.688" xlink:href="#m5f24e19da7" y="298.944"/>
      </g>
     </g>
    </g>
    <g id="text_5">
     <!-- log10(# f-evals / dimension) -->
     <g transform="translate(77.764078 342.217594)scale(0.17 -0.17)">
      <defs>
       <path d="M 603 4863 
L 1178 4863 
L 1178 0 
L 603 0 
L 603 4863 
z
" id="DejaVuSans-6c" transform="scale(0.015625)"/>
       <path d="M 1959 3097 
Q 1497 3097 1228 2736 
Q 959 2375 959 1747 
Q 959 1119 1226 758 
Q 1494 397 1959 397 
Q 2419 397 2687 759 
Q 2956 1122 2956 1747 
Q 2956 2369 2687 2733 
Q 2419 3097 1959 3097 
z
M 1959 3584 
Q 2709 3584 3137 3096 
Q 3566 2609 3566 1747 
Q 3566 888 3137 398 
Q 2709 -91 1959 -91 
Q 1206 -91 779 398 
Q 353 888 353 1747 
Q 353 2609 779 3096 
Q 1206 3584 1959 3584 
z
" id="DejaVuSans-6f" transform="scale(0.015625)"/>
       <path d="M 2906 1791 
Q 2906 2416 2648 2759 
Q 2391 3103 1925 3103 
Q 1463 3103 1205 2759 
Q 947 2416 947 1791 
Q 947 1169 1205 825 
Q 1463 481 1925 481 
Q 2391 481 2648 825 
Q 2906 1169 2906 1791 
z
M 3481 434 
Q 3481 -459 3084 -895 
Q 2688 -1331 1869 -1331 
Q 1566 -1331 1297 -1286 
Q 1028 -1241 775 -1147 
L 775 -588 
Q 1028 -725 1275 -790 
Q 1522 -856 1778 -856 
Q 2344 -856 2625 -561 
Q 2906 -266 2906 331 
L 2906 616 
Q 2728 306 2450 153 
Q 2172 0 1784 0 
Q 1141 0 747 490 
Q 353 981 353 1791 
Q 353 2603 747 3093 
Q 1141 3584 1784 3584 
Q 2172 3584 2450 3431 
Q 2728 3278 2906 2969 
L 2906 3500 
L 3481 3500 
L 3481 434 
z
" id="DejaVuSans-67" transform="scale(0.015625)"/>
       <path d="M 794 531 
L 1825 531 
L 1825 4091 
L 703 3866 
L 703 4441 
L 1819 4666 
L 2450 4666 
L 2450 531 
L 3481 531 
L 3481 0 
L 794 0 
L 794 531 
z
" id="DejaVuSans-31" transform="scale(0.015625)"/>
       <path d="M 1984 4856 
Q 1566 4138 1362 3434 
Q 1159 2731 1159 2009 
Q 1159 1288 1364 580 
Q 1569 -128 1984 -844 
L 1484 -844 
Q 1016 -109 783 600 
Q 550 1309 550 2009 
Q 550 2706 781 3412 
Q 1013 4119 1484 4856 
L 1984 4856 
z
" id="DejaVuSans-28" transform="scale(0.015625)"/>
       <path d="M 3272 2816 
L 2363 2816 
L 2100 1772 
L 3016 1772 
L 3272 2816 
z
M 2803 4594 
L 2478 3297 
L 3391 3297 
L 3719 4594 
L 4219 4594 
L 3897 3297 
L 4872 3297 
L 4872 2816 
L 3775 2816 
L 3519 1772 
L 4513 1772 
L 4513 1294 
L 3397 1294 
L 3072 0 
L 2572 0 
L 2894 1294 
L 1978 1294 
L 1656 0 
L 1153 0 
L 1478 1294 
L 494 1294 
L 494 1772 
L 1594 1772 
L 1856 2816 
L 850 2816 
L 850 3297 
L 1978 3297 
L 2297 4594 
L 2803 4594 
z
" id="DejaVuSans-23" transform="scale(0.015625)"/>
       <path id="DejaVuSans-20" transform="scale(0.015625)"/>
       <path d="M 2375 4863 
L 2375 4384 
L 1825 4384 
Q 1516 4384 1395 4259 
Q 1275 4134 1275 3809 
L 1275 3500 
L 2222 3500 
L 2222 3053 
L 1275 3053 
L 1275 0 
L 697 0 
L 697 3053 
L 147 3053 
L 147 3500 
L 697 3500 
L 697 3744 
Q 697 4328 969 4595 
Q 1241 4863 1831 4863 
L 2375 4863 
z
" id="DejaVuSans-66" transform="scale(0.015625)"/>
       <path d="M 313 2009 
L 1997 2009 
L 1997 1497 
L 313 1497 
L 313 2009 
z
" id="DejaVuSans-2d" transform="scale(0.015625)"/>
       <path d="M 3597 1894 
L 3597 1613 
L 953 1613 
Q 991 1019 1311 708 
Q 1631 397 2203 397 
Q 2534 397 2845 478 
Q 3156 559 3463 722 
L 3463 178 
Q 3153 47 2828 -22 
Q 2503 -91 2169 -91 
Q 1331 -91 842 396 
Q 353 884 353 1716 
Q 353 2575 817 3079 
Q 1281 3584 2069 3584 
Q 2775 3584 3186 3129 
Q 3597 2675 3597 1894 
z
M 3022 2063 
Q 3016 2534 2758 2815 
Q 2500 3097 2075 3097 
Q 1594 3097 1305 2825 
Q 1016 2553 972 2059 
L 3022 2063 
z
" id="DejaVuSans-65" transform="scale(0.015625)"/>
       <path d="M 191 3500 
L 800 3500 
L 1894 563 
L 2988 3500 
L 3597 3500 
L 2284 0 
L 1503 0 
L 191 3500 
z
" id="DejaVuSans-76" transform="scale(0.015625)"/>
       <path d="M 2194 1759 
Q 1497 1759 1228 1600 
Q 959 1441 959 1056 
Q 959 750 1161 570 
Q 1363 391 1709 391 
Q 2188 391 2477 730 
Q 2766 1069 2766 1631 
L 2766 1759 
L 2194 1759 
z
M 3341 1997 
L 3341 0 
L 2766 0 
L 2766 531 
Q 2569 213 2275 61 
Q 1981 -91 1556 -91 
Q 1019 -91 701 211 
Q 384 513 384 1019 
Q 384 1609 779 1909 
Q 1175 2209 1959 2209 
L 2766 2209 
L 2766 2266 
Q 2766 2663 2505 2880 
Q 2244 3097 1772 3097 
Q 1472 3097 1187 3025 
Q 903 2953 641 2809 
L 641 3341 
Q 956 3463 1253 3523 
Q 1550 3584 1831 3584 
Q 2591 3584 2966 3190 
Q 3341 2797 3341 1997 
z
" id="DejaVuSans-61" transform="scale(0.015625)"/>
       <path d="M 2834 3397 
L 2834 2853 
Q 2591 2978 2328 3040 
Q 2066 3103 1784 3103 
Q 1356 3103 1142 2972 
Q 928 2841 928 2578 
Q 928 2378 1081 2264 
Q 1234 2150 1697 2047 
L 1894 2003 
Q 2506 1872 2764 1633 
Q 3022 1394 3022 966 
Q 3022 478 2636 193 
Q 2250 -91 1575 -91 
Q 1294 -91 989 -36 
Q 684 19 347 128 
L 347 722 
Q 666 556 975 473 
Q 1284 391 1588 391 
Q 1994 391 2212 530 
Q 2431 669 2431 922 
Q 2431 1156 2273 1281 
Q 2116 1406 1581 1522 
L 1381 1569 
Q 847 1681 609 1914 
Q 372 2147 372 2553 
Q 372 3047 722 3315 
Q 1072 3584 1716 3584 
Q 2034 3584 2315 3537 
Q 2597 3491 2834 3397 
z
" id="DejaVuSans-73" transform="scale(0.015625)"/>
       <path d="M 1625 4666 
L 2156 4666 
L 531 -594 
L 0 -594 
L 1625 4666 
z
" id="DejaVuSans-2f" transform="scale(0.015625)"/>
       <path d="M 2906 2969 
L 2906 4863 
L 3481 4863 
L 3481 0 
L 2906 0 
L 2906 525 
Q 2725 213 2448 61 
Q 2172 -91 1784 -91 
Q 1150 -91 751 415 
Q 353 922 353 1747 
Q 353 2572 751 3078 
Q 1150 3584 1784 3584 
Q 2172 3584 2448 3432 
Q 2725 3281 2906 2969 
z
M 947 1747 
Q 947 1113 1208 752 
Q 1469 391 1925 391 
Q 2381 391 2643 752 
Q 2906 1113 2906 1747 
Q 2906 2381 2643 2742 
Q 2381 3103 1925 3103 
Q 1469 3103 1208 2742 
Q 947 2381 947 1747 
z
" id="DejaVuSans-64" transform="scale(0.015625)"/>
       <path d="M 603 3500 
L 1178 3500 
L 1178 0 
L 603 0 
L 603 3500 
z
M 603 4863 
L 1178 4863 
L 1178 4134 
L 603 4134 
L 603 4863 
z
" id="DejaVuSans-69" transform="scale(0.015625)"/>
       <path d="M 3328 2828 
Q 3544 3216 3844 3400 
Q 4144 3584 4550 3584 
Q 5097 3584 5394 3201 
Q 5691 2819 5691 2113 
L 5691 0 
L 5113 0 
L 5113 2094 
Q 5113 2597 4934 2840 
Q 4756 3084 4391 3084 
Q 3944 3084 3684 2787 
Q 3425 2491 3425 1978 
L 3425 0 
L 2847 0 
L 2847 2094 
Q 2847 2600 2669 2842 
Q 2491 3084 2119 3084 
Q 1678 3084 1418 2786 
Q 1159 2488 1159 1978 
L 1159 0 
L 581 0 
L 581 3500 
L 1159 3500 
L 1159 2956 
Q 1356 3278 1631 3431 
Q 1906 3584 2284 3584 
Q 2666 3584 2933 3390 
Q 3200 3197 3328 2828 
z
" id="DejaVuSans-6d" transform="scale(0.015625)"/>
       <path d="M 3513 2113 
L 3513 0 
L 2938 0 
L 2938 2094 
Q 2938 2591 2744 2837 
Q 2550 3084 2163 3084 
Q 1697 3084 1428 2787 
Q 1159 2491 1159 1978 
L 1159 0 
L 581 0 
L 581 3500 
L 1159 3500 
L 1159 2956 
Q 1366 3272 1645 3428 
Q 1925 3584 2291 3584 
Q 2894 3584 3203 3211 
Q 3513 2838 3513 2113 
z
" id="DejaVuSans-6e" transform="scale(0.015625)"/>
       <path d="M 513 4856 
L 1013 4856 
Q 1481 4119 1714 3412 
Q 1947 2706 1947 2009 
Q 1947 1309 1714 600 
Q 1481 -109 1013 -844 
L 513 -844 
Q 928 -128 1133 580 
Q 1338 1288 1338 2009 
Q 1338 2731 1133 3434 
Q 928 4138 513 4856 
z
" id="DejaVuSans-29" transform="scale(0.015625)"/>
      </defs>
      <use xlink:href="#DejaVuSans-6c"/>
      <use x="27.783203" xlink:href="#DejaVuSans-6f"/>
      <use x="88.964844" xlink:href="#DejaVuSans-67"/>
      <use x="152.441406" xlink:href="#DejaVuSans-31"/>
      <use x="216.064453" xlink:href="#DejaVuSans-30"/>
      <use x="279.6875" xlink:href="#DejaVuSans-28"/>
      <use x="318.701172" xlink:href="#DejaVuSans-23"/>
      <use x="402.490234" xlink:href="#DejaVuSans-20"/>
      <use x="434.277344" xlink:href="#DejaVuSans-66"/>
      <use x="463.982422" xlink:href="#DejaVuSans-2d"/>
      <use x="500.066406" xlink:href="#DejaVuSans-65"/>
      <use x="561.589844" xlink:href="#DejaVuSans-76"/>
      <use x="620.769531" xlink:href="#DejaVuSans-61"/>
      <use x="682.048828" xlink:href="#DejaVuSans-6c"/>
      <use x="709.832031" xlink:href="#DejaVuSans-73"/>
      <use x="761.931641" xlink:href="#DejaVuSans-20"/>
      <use x="793.71875" xlink:href="#DejaVuSans-2f"/>
      <use x="827.410156" xlink:href="#DejaVuSans-20"/>
      <use x="859.197266" xlink:href="#DejaVuSans-64"/>
      <use x="922.673828" xlink:href="#DejaVuSans-69"/>
      <use x="950.457031" xlink:href="#DejaVuSans-6d"/>
      <use x="1047.869141" xlink:href="#DejaVuSans-65"/>
      <use x="1109.392578" xlink:href="#DejaVuSans-6e"/>
      <use x="1172.771484" xlink:href="#DejaVuSans-73"/>
      <use x="1224.871094" xlink:href="#DejaVuSans-69"/>
      <use x="1252.654297" xlink:href="#DejaVuSans-6f"/>
      <use x="1313.835938" xlink:href="#DejaVuSans-6e"/>
      <use x="1377.214844" xlink:href="#DejaVuSans-29"/>
     </g>
    </g>
   </g>
   <g id="matplotlib.axis_2">
    <g id="ytick_1">
     <g id="line2d_21">
      <path clip-path="url(#p815019553e)" d="M 57.6 298.944 
L 338.688 298.944 
" style="fill:none;stroke:#b0b0b0;stroke-linecap:square;stroke-width:0.8;"/>
     </g>
     <g id="line2d_22">
      <defs>
       <path d="M 0 0 
L -3.5 0 
" id="m5c51a230f6" style="stroke:#000000;stroke-width:0.8;"/>
      </defs>
      <g>
       <use style="stroke:#000000;stroke-width:0.8;" x="57.6" xlink:href="#m5c51a230f6" y="298.944"/>
      </g>
     </g>
     <g id="text_6">
      <!-- 0.0 -->
      <g transform="translate(25.155 305.02275)scale(0.16 -0.16)">
       <defs>
        <path d="M 684 794 
L 1344 794 
L 1344 0 
L 684 0 
L 684 794 
z
" id="DejaVuSans-2e" transform="scale(0.015625)"/>
       </defs>
       <use xlink:href="#DejaVuSans-30"/>
       <use x="63.623047" xlink:href="#DejaVuSans-2e"/>
       <use x="95.410156" xlink:href="#DejaVuSans-30"/>
      </g>
     </g>
    </g>
    <g id="ytick_2">
     <g id="line2d_23">
      <path clip-path="url(#p815019553e)" d="M 57.6 245.22202 
L 338.688 245.22202 
" style="fill:none;stroke:#b0b0b0;stroke-linecap:square;stroke-width:0.8;"/>
     </g>
     <g id="line2d_24">
      <g>
       <use style="stroke:#000000;stroke-width:0.8;" x="57.6" xlink:href="#m5c51a230f6" y="245.22202"/>
      </g>
     </g>
     <g id="text_7">
      <!-- 0.2 -->
      <g transform="translate(25.155 251.30077)scale(0.16 -0.16)">
       <use xlink:href="#DejaVuSans-30"/>
       <use x="63.623047" xlink:href="#DejaVuSans-2e"/>
       <use x="95.410156" xlink:href="#DejaVuSans-32"/>
      </g>
     </g>
    </g>
    <g id="ytick_3">
     <g id="line2d_25">
      <path clip-path="url(#p815019553e)" d="M 57.6 191.50004 
L 338.688 191.50004 
" style="fill:none;stroke:#b0b0b0;stroke-linecap:square;stroke-width:0.8;"/>
     </g>
     <g id="line2d_26">
      <g>
       <use style="stroke:#000000;stroke-width:0.8;" x="57.6" xlink:href="#m5c51a230f6" y="191.50004"/>
      </g>
     </g>
     <g id="text_8">
      <!-- 0.4 -->
      <g transform="translate(25.155 197.57879)scale(0.16 -0.16)">
       <use xlink:href="#DejaVuSans-30"/>
       <use x="63.623047" xlink:href="#DejaVuSans-2e"/>
       <use x="95.410156" xlink:href="#DejaVuSans-34"/>
      </g>
     </g>
    </g>
    <g id="ytick_4">
     <g id="line2d_27">
      <path clip-path="url(#p815019553e)" d="M 57.6 137.778059 
L 338.688 137.778059 
" style="fill:none;stroke:#b0b0b0;stroke-linecap:square;stroke-width:0.8;"/>
     </g>
     <g id="line2d_28">
      <g>
       <use style="stroke:#000000;stroke-width:0.8;" x="57.6" xlink:href="#m5c51a230f6" y="137.778059"/>
      </g>
     </g>
     <g id="text_9">
      <!-- 0.6 -->
      <g transform="translate(25.155 143.856809)scale(0.16 -0.16)">
       <use xlink:href="#DejaVuSans-30"/>
       <use x="63.623047" xlink:href="#DejaVuSans-2e"/>
       <use x="95.410156" xlink:href="#DejaVuSans-36"/>
      </g>
     </g>
    </g>
    <g id="ytick_5">
     <g id="line2d_29">
      <path clip-path="url(#p815019553e)" d="M 57.6 84.056079 
L 338.688 84.056079 
" style="fill:none;stroke:#b0b0b0;stroke-linecap:square;stroke-width:0.8;"/>
     </g>
     <g id="line2d_30">
      <g>
       <use style="stroke:#000000;stroke-width:0.8;" x="57.6" xlink:href="#m5c51a230f6" y="84.056079"/>
      </g>
     </g>
     <g id="text_10">
      <!-- 0.8 -->
      <g transform="translate(25.155 90.134829)scale(0.16 -0.16)">
       <defs>
        <path d="M 2034 2216 
Q 1584 2216 1326 1975 
Q 1069 1734 1069 1313 
Q 1069 891 1326 650 
Q 1584 409 2034 409 
Q 2484 409 2743 651 
Q 3003 894 3003 1313 
Q 3003 1734 2745 1975 
Q 2488 2216 2034 2216 
z
M 1403 2484 
Q 997 2584 770 2862 
Q 544 3141 544 3541 
Q 544 4100 942 4425 
Q 1341 4750 2034 4750 
Q 2731 4750 3128 4425 
Q 3525 4100 3525 3541 
Q 3525 3141 3298 2862 
Q 3072 2584 2669 2484 
Q 3125 2378 3379 2068 
Q 3634 1759 3634 1313 
Q 3634 634 3220 271 
Q 2806 -91 2034 -91 
Q 1263 -91 848 271 
Q 434 634 434 1313 
Q 434 1759 690 2068 
Q 947 2378 1403 2484 
z
M 1172 3481 
Q 1172 3119 1398 2916 
Q 1625 2713 2034 2713 
Q 2441 2713 2670 2916 
Q 2900 3119 2900 3481 
Q 2900 3844 2670 4047 
Q 2441 4250 2034 4250 
Q 1625 4250 1398 4047 
Q 1172 3844 1172 3481 
z
" id="DejaVuSans-38" transform="scale(0.015625)"/>
       </defs>
       <use xlink:href="#DejaVuSans-30"/>
       <use x="63.623047" xlink:href="#DejaVuSans-2e"/>
       <use x="95.410156" xlink:href="#DejaVuSans-38"/>
      </g>
     </g>
    </g>
    <g id="ytick_6">
     <g id="line2d_31">
      <path clip-path="url(#p815019553e)" d="M 57.6 30.334099 
L 338.688 30.334099 
" style="fill:none;stroke:#b0b0b0;stroke-linecap:square;stroke-width:0.8;"/>
     </g>
     <g id="line2d_32">
      <g>
       <use style="stroke:#000000;stroke-width:0.8;" x="57.6" xlink:href="#m5c51a230f6" y="30.334099"/>
      </g>
     </g>
     <g id="text_11">
      <!-- 1.0 -->
      <g transform="translate(25.155 36.412849)scale(0.16 -0.16)">
       <use xlink:href="#DejaVuSans-31"/>
       <use x="63.623047" xlink:href="#DejaVuSans-2e"/>
       <use x="95.410156" xlink:href="#DejaVuSans-30"/>
      </g>
     </g>
    </g>
    <g id="text_12">
     <!-- Fraction of function,target pairs -->
     <g transform="translate(17.619531 297.681)rotate(-90)scale(0.17 -0.17)">
      <defs>
       <path d="M 628 4666 
L 3309 4666 
L 3309 4134 
L 1259 4134 
L 1259 2759 
L 3109 2759 
L 3109 2228 
L 1259 2228 
L 1259 0 
L 628 0 
L 628 4666 
z
" id="DejaVuSans-46" transform="scale(0.015625)"/>
       <path d="M 2631 2963 
Q 2534 3019 2420 3045 
Q 2306 3072 2169 3072 
Q 1681 3072 1420 2755 
Q 1159 2438 1159 1844 
L 1159 0 
L 581 0 
L 581 3500 
L 1159 3500 
L 1159 2956 
Q 1341 3275 1631 3429 
Q 1922 3584 2338 3584 
Q 2397 3584 2469 3576 
Q 2541 3569 2628 3553 
L 2631 2963 
z
" id="DejaVuSans-72" transform="scale(0.015625)"/>
       <path d="M 3122 3366 
L 3122 2828 
Q 2878 2963 2633 3030 
Q 2388 3097 2138 3097 
Q 1578 3097 1268 2742 
Q 959 2388 959 1747 
Q 959 1106 1268 751 
Q 1578 397 2138 397 
Q 2388 397 2633 464 
Q 2878 531 3122 666 
L 3122 134 
Q 2881 22 2623 -34 
Q 2366 -91 2075 -91 
Q 1284 -91 818 406 
Q 353 903 353 1747 
Q 353 2603 823 3093 
Q 1294 3584 2113 3584 
Q 2378 3584 2631 3529 
Q 2884 3475 3122 3366 
z
" id="DejaVuSans-63" transform="scale(0.015625)"/>
       <path d="M 1172 4494 
L 1172 3500 
L 2356 3500 
L 2356 3053 
L 1172 3053 
L 1172 1153 
Q 1172 725 1289 603 
Q 1406 481 1766 481 
L 2356 481 
L 2356 0 
L 1766 0 
Q 1100 0 847 248 
Q 594 497 594 1153 
L 594 3053 
L 172 3053 
L 172 3500 
L 594 3500 
L 594 4494 
L 1172 4494 
z
" id="DejaVuSans-74" transform="scale(0.015625)"/>
       <path d="M 544 1381 
L 544 3500 
L 1119 3500 
L 1119 1403 
Q 1119 906 1312 657 
Q 1506 409 1894 409 
Q 2359 409 2629 706 
Q 2900 1003 2900 1516 
L 2900 3500 
L 3475 3500 
L 3475 0 
L 2900 0 
L 2900 538 
Q 2691 219 2414 64 
Q 2138 -91 1772 -91 
Q 1169 -91 856 284 
Q 544 659 544 1381 
z
M 1991 3584 
L 1991 3584 
z
" id="DejaVuSans-75" transform="scale(0.015625)"/>
       <path d="M 750 794 
L 1409 794 
L 1409 256 
L 897 -744 
L 494 -744 
L 750 256 
L 750 794 
z
" id="DejaVuSans-2c" transform="scale(0.015625)"/>
       <path d="M 1159 525 
L 1159 -1331 
L 581 -1331 
L 581 3500 
L 1159 3500 
L 1159 2969 
Q 1341 3281 1617 3432 
Q 1894 3584 2278 3584 
Q 2916 3584 3314 3078 
Q 3713 2572 3713 1747 
Q 3713 922 3314 415 
Q 2916 -91 2278 -91 
Q 1894 -91 1617 61 
Q 1341 213 1159 525 
z
M 3116 1747 
Q 3116 2381 2855 2742 
Q 2594 3103 2138 3103 
Q 1681 3103 1420 2742 
Q 1159 2381 1159 1747 
Q 1159 1113 1420 752 
Q 1681 391 2138 391 
Q 2594 391 2855 752 
Q 3116 1113 3116 1747 
z
" id="DejaVuSans-70" transform="scale(0.015625)"/>
      </defs>
      <use xlink:href="#DejaVuSans-46"/>
      <use x="50.269531" xlink:href="#DejaVuSans-72"/>
      <use x="91.382812" xlink:href="#DejaVuSans-61"/>
      <use x="152.662109" xlink:href="#DejaVuSans-63"/>
      <use x="207.642578" xlink:href="#DejaVuSans-74"/>
      <use x="246.851562" xlink:href="#DejaVuSans-69"/>
      <use x="274.634766" xlink:href="#DejaVuSans-6f"/>
      <use x="335.816406" xlink:href="#DejaVuSans-6e"/>
      <use x="399.195312" xlink:href="#DejaVuSans-20"/>
      <use x="430.982422" xlink:href="#DejaVuSans-6f"/>
      <use x="492.164062" xlink:href="#DejaVuSans-66"/>
      <use x="527.369141" xlink:href="#DejaVuSans-20"/>
      <use x="559.15625" xlink:href="#DejaVuSans-66"/>
      <use x="594.361328" xlink:href="#DejaVuSans-75"/>
      <use x="657.740234" xlink:href="#DejaVuSans-6e"/>
      <use x="721.119141" xlink:href="#DejaVuSans-63"/>
      <use x="776.099609" xlink:href="#DejaVuSans-74"/>
      <use x="815.308594" xlink:href="#DejaVuSans-69"/>
      <use x="843.091797" xlink:href="#DejaVuSans-6f"/>
      <use x="904.273438" xlink:href="#DejaVuSans-6e"/>
      <use x="967.652344" xlink:href="#DejaVuSans-2c"/>
      <use x="999.439453" xlink:href="#DejaVuSans-74"/>
      <use x="1038.648438" xlink:href="#DejaVuSans-61"/>
      <use x="1099.927734" xlink:href="#DejaVuSans-72"/>
      <use x="1139.291016" xlink:href="#DejaVuSans-67"/>
      <use x="1202.767578" xlink:href="#DejaVuSans-65"/>
      <use x="1264.291016" xlink:href="#DejaVuSans-74"/>
      <use x="1303.5" xlink:href="#DejaVuSans-20"/>
      <use x="1335.287109" xlink:href="#DejaVuSans-70"/>
      <use x="1398.763672" xlink:href="#DejaVuSans-61"/>
      <use x="1460.042969" xlink:href="#DejaVuSans-69"/>
      <use x="1487.826172" xlink:href="#DejaVuSans-72"/>
      <use x="1528.939453" xlink:href="#DejaVuSans-73"/>
     </g>
    </g>
   </g>
   <g id="line2d_33">
    <defs>
     <path d="M 0 1.5 
C 0.397805 1.5 0.77937 1.341951 1.06066 1.06066 
C 1.341951 0.77937 1.5 0.397805 1.5 0 
C 1.5 -0.397805 1.341951 -0.77937 1.06066 -1.06066 
C 0.77937 -1.341951 0.397805 -1.5 0 -1.5 
C -0.397805 -1.5 -0.77937 -1.341951 -1.06066 -1.06066 
C -1.341951 -0.77937 -1.5 -0.397805 -1.5 0 
C -1.5 0.397805 -1.341951 0.77937 -1.06066 1.06066 
C -0.77937 1.341951 -0.397805 1.5 0 1.5 
z
" id="ma53f254080" style="stroke:#f5deb3;"/>
    </defs>
    <g>
     <use style="fill:#f5deb3;stroke:#f5deb3;" x="168.844047" xlink:href="#ma53f254080" y="30.334099"/>
     <use style="fill:#f5deb3;stroke:#f5deb3;" x="168.844047" xlink:href="#ma53f254080" y="30.334099"/>
    </g>
   </g>
   <g id="line2d_34">
    <defs>
     <path d="M 0 1.5 
C 0.397805 1.5 0.77937 1.341951 1.06066 1.06066 
C 1.341951 0.77937 1.5 0.397805 1.5 0 
C 1.5 -0.397805 1.341951 -0.77937 1.06066 -1.06066 
C 0.77937 -1.341951 0.397805 -1.5 0 -1.5 
C -0.397805 -1.5 -0.77937 -1.341951 -1.06066 -1.06066 
C -1.341951 -0.77937 -1.5 -0.397805 -1.5 0 
C -1.5 0.397805 -1.341951 0.77937 -1.06066 1.06066 
C -0.77937 1.341951 -0.397805 1.5 0 1.5 
z
" id="mb6a3940037" style="stroke:#000080;"/>
    </defs>
    <g>
     <use style="fill:#000080;stroke:#000080;" x="222.231086" xlink:href="#mb6a3940037" y="251.542253"/>
     <use style="fill:#000080;stroke:#000080;" x="222.231086" xlink:href="#mb6a3940037" y="251.542253"/>
    </g>
   </g>
   <g id="line2d_35">
    <path d="M 81.775977 298.944 
L 81.775977 298.417314 
L 95.526106 298.417314 
L 95.526106 297.890628 
L 101.785851 297.890628 
L 101.785851 297.363942 
L 108.483824 297.363942 
L 108.483824 296.837256 
L 117.542433 296.837256 
L 117.542433 296.31057 
L 120.093994 296.31057 
L 120.093994 295.783884 
L 121.712041 295.783884 
L 121.712041 295.257197 
L 126.099688 295.257197 
L 126.099688 294.730511 
L 128.650105 294.730511 
L 128.650105 294.203825 
L 130.585116 294.203825 
L 130.585116 293.677139 
L 131.814826 293.677139 
L 131.814826 293.150453 
L 132.422528 293.150453 
L 132.422528 292.623767 
L 133.375477 292.623767 
L 133.375477 292.097081 
L 133.510666 292.097081 
L 133.510666 291.570395 
L 135.240011 291.570395 
L 135.240011 291.043709 
L 136.58893 291.043709 
L 136.58893 290.517023 
L 137.469333 290.517023 
L 137.469333 289.990337 
L 138.153314 289.990337 
L 138.153314 289.463651 
L 140.073083 289.463651 
L 140.073083 288.936964 
L 140.317849 288.936964 
L 140.317849 288.410278 
L 140.454035 288.410278 
L 140.454035 287.883592 
L 140.871049 287.883592 
L 140.871049 287.356906 
L 141.321401 287.356906 
L 141.321401 286.83022 
L 142.037896 286.83022 
L 142.037896 286.303534 
L 143.3627 286.303534 
L 143.3627 285.776848 
L 144.001481 285.776848 
L 144.001481 285.250162 
L 144.462672 285.250162 
L 144.462672 284.723476 
L 145.224334 284.723476 
L 145.224334 284.19679 
L 145.429504 284.19679 
L 145.429504 283.670104 
L 145.553708 283.670104 
L 145.553708 282.616732 
L 146.420639 282.616732 
L 146.420639 282.090045 
L 147.297484 282.090045 
L 147.297484 281.563359 
L 148.122637 281.563359 
L 148.122637 281.036673 
L 148.497276 281.036673 
L 148.497276 279.456615 
L 149.893895 279.456615 
L 149.893895 278.929929 
L 150.094499 278.929929 
L 150.198253 277.876557 
L 150.301393 277.876557 
L 150.412445 276.823185 
L 150.607205 276.823185 
L 150.607205 276.296499 
L 150.932558 276.296499 
L 150.932558 275.769812 
L 152.276234 275.769812 
L 152.276234 275.243126 
L 152.443774 275.243126 
L 152.443774 274.71644 
L 153.876352 274.71644 
L 153.876352 274.189754 
L 154.77436 274.189754 
L 154.77436 273.663068 
L 156.132461 273.663068 
L 156.132461 273.136382 
L 156.472632 273.136382 
L 156.556648 272.08301 
L 157.703468 272.08301 
L 157.703468 271.556324 
L 158.129851 271.556324 
L 158.129851 271.029638 
L 158.471118 271.029638 
L 158.471118 270.502952 
L 158.663171 270.502952 
L 158.663171 269.976266 
L 158.884591 269.976266 
L 158.884591 269.449579 
L 159.17036 269.449579 
L 159.17036 268.922893 
L 159.324282 268.922893 
L 159.370195 266.816149 
L 160.694216 266.816149 
L 160.755498 265.762777 
L 161.374928 265.762777 
L 161.447441 264.182719 
L 161.986269 264.182719 
L 161.986269 263.656033 
L 162.121678 263.656033 
L 162.191157 262.60266 
L 163.356164 262.60266 
L 163.356164 262.075974 
L 163.733114 262.075974 
L 163.733114 261.549288 
L 165.178976 261.549288 
L 165.178976 261.022602 
L 166.020101 261.022602 
L 166.020101 260.495916 
L 175.149812 260.495916 
L 175.20127 259.442544 
L 175.775421 259.442544 
L 175.775421 258.915858 
L 176.421575 258.915858 
L 176.421575 258.389172 
L 176.691603 258.389172 
L 176.697263 257.3358 
L 177.111084 257.3358 
L 177.111084 256.809114 
L 188.92335 256.809114 
L 188.92335 256.282427 
L 189.489536 256.282427 
L 189.489536 255.755741 
L 189.818851 255.755741 
L 189.818851 255.229055 
L 190.3623 255.229055 
L 190.3623 254.702369 
L 193.570554 254.702369 
L 193.570554 254.175683 
L 196.775421 254.175683 
L 196.775421 253.648997 
L 199.83717 253.648997 
L 199.83717 253.122311 
L 207.727243 253.122311 
L 207.727243 252.595625 
L 212.095726 252.595625 
L 212.095726 252.068939 
L 222.231086 252.068939 
L 222.231086 251.542253 
L 338.688 251.542253 
L 338.688 251.542253 
" style="fill:none;stroke:#000080;stroke-linecap:square;stroke-width:1.5;"/>
   </g>
   <g id="line2d_36">
    <defs>
     <path d="M 0 6 
C 1.591219 6 3.117479 5.367802 4.242641 4.242641 
C 5.367802 3.117479 6 1.591219 6 0 
C 6 -1.591219 5.367802 -3.117479 4.242641 -4.242641 
C 3.117479 -5.367802 1.591219 -6 0 -6 
C -1.591219 -6 -3.117479 -5.367802 -4.242641 -4.242641 
C -5.367802 -3.117479 -6 -1.591219 -6 0 
C -6 1.591219 -5.367802 3.117479 -4.242641 4.242641 
C -3.117479 5.367802 -1.591219 6 0 6 
z
" id="m017af9ac03" style="stroke:#000080;stroke-width:1.5;"/>
    </defs>
    <g>
     <use style="fill-opacity:0;stroke:#000080;stroke-width:1.5;" x="108.483824" xlink:href="#m017af9ac03" y="297.363942"/>
     <use style="fill-opacity:0;stroke:#000080;stroke-width:1.5;" x="177.111084" xlink:href="#m017af9ac03" y="257.3358"/>
     <use style="fill-opacity:0;stroke:#000080;stroke-width:1.5;" x="222.231086" xlink:href="#m017af9ac03" y="252.068939"/>
     <use style="fill-opacity:0;stroke:#000080;stroke-width:1.5;" x="222.231086" xlink:href="#m017af9ac03" y="251.542253"/>
     <use style="fill-opacity:0;stroke:#000080;stroke-width:1.5;" x="338.688" xlink:href="#m017af9ac03" y="251.542253"/>
    </g>
   </g>
   <g id="line2d_37">
    <path style="fill:none;stroke:#000080;stroke-linecap:square;stroke-width:1.5;"/>
    <g/>
   </g>
   <g id="line2d_38">
    <path clip-path="url(#p815019553e)" d="M 166.24138 260.495916 
" style="fill:none;stroke:#000080;stroke-linecap:square;stroke-width:1.5;"/>
    <defs>
     <path d="M -12 12 
L 12 -12 
M -12 -12 
L 12 12 
" id="m2fcceba388" style="stroke:#000080;"/>
    </defs>
    <g clip-path="url(#p815019553e)">
     <use style="fill:#000080;stroke:#000080;" x="166.24138" xlink:href="#m2fcceba388" y="260.495916"/>
    </g>
   </g>
   <g id="line2d_39">
    <defs>
     <path d="M 0 1.5 
C 0.397805 1.5 0.77937 1.341951 1.06066 1.06066 
C 1.341951 0.77937 1.5 0.397805 1.5 0 
C 1.5 -0.397805 1.341951 -0.77937 1.06066 -1.06066 
C 0.77937 -1.341951 0.397805 -1.5 0 -1.5 
C -0.397805 -1.5 -0.77937 -1.341951 -1.06066 -1.06066 
C -1.341951 -0.77937 -1.5 -0.397805 -1.5 0 
C -1.5 0.397805 -1.341951 0.77937 -1.06066 1.06066 
C -0.77937 1.341951 -0.397805 1.5 0 1.5 
z
" id="mfa5ec6294d" style="stroke:#ff00ff;"/>
    </defs>
    <g>
     <use style="fill:#ff00ff;stroke:#ff00ff;" x="244.613793" xlink:href="#mfa5ec6294d" y="219.941088"/>
     <use style="fill:#ff00ff;stroke:#ff00ff;" x="244.613793" xlink:href="#mfa5ec6294d" y="219.941088"/>
    </g>
   </g>
   <g id="line2d_40">
    <path d="M 76.16779 298.944 
L 76.16779 298.417314 
L 89.135256 298.417314 
L 89.135256 297.890628 
L 90.509138 297.890628 
L 90.509138 297.363942 
L 96.110718 297.363942 
L 96.110718 296.837256 
L 96.86091 296.837256 
L 96.86091 296.31057 
L 101.785851 296.31057 
L 101.785851 295.783884 
L 102.060491 295.783884 
L 102.060491 294.730511 
L 102.728744 294.730511 
L 102.728744 293.677139 
L 109.401893 293.677139 
L 109.401893 293.150453 
L 109.930396 293.150453 
L 109.930396 292.097081 
L 110.527398 292.097081 
L 110.527398 291.570395 
L 111.897469 291.570395 
L 111.897469 291.043709 
L 112.051799 291.043709 
L 112.051799 290.517023 
L 112.280765 290.517023 
L 112.356423 289.463651 
L 113.664983 289.463651 
L 113.664983 288.936964 
L 113.804498 288.936964 
L 113.804498 287.883592 
L 114.216469 287.883592 
L 114.216469 287.356906 
L 115.205729 287.356906 
L 115.205729 286.83022 
L 117.598418 286.83022 
L 117.598418 286.303534 
L 118.256582 286.303534 
L 118.256582 285.776848 
L 119.80089 285.776848 
L 119.80089 285.250162 
L 121.264855 285.250162 
L 121.310093 284.19679 
L 121.579085 284.19679 
L 121.579085 283.670104 
L 121.800118 283.670104 
L 121.800118 283.143418 
L 123.790603 283.143418 
L 123.790603 282.616732 
L 124.817858 282.616732 
L 124.817858 282.090045 
L 125.001625 282.090045 
L 125.001625 281.563359 
L 125.291682 281.563359 
L 125.291682 280.509987 
L 126.168212 280.509987 
L 126.168212 279.983301 
L 126.405947 279.983301 
L 126.405947 279.456615 
L 126.70692 279.456615 
L 126.70692 278.929929 
L 128.471239 278.929929 
L 128.471239 278.403243 
L 131.615802 278.403243 
L 131.615802 277.349871 
L 131.765283 277.349871 
L 131.765283 276.823185 
L 133.667073 276.823185 
L 133.711505 275.243126 
L 133.82209 275.243126 
L 133.82209 274.71644 
L 134.891008 274.71644 
L 134.891008 274.189754 
L 136.887363 274.189754 
L 136.887363 273.663068 
L 137.805906 273.663068 
L 137.805906 273.136382 
L 138.307417 273.136382 
L 138.307417 272.08301 
L 138.89409 272.08301 
L 138.89409 271.556324 
L 139.493548 271.556324 
L 139.493548 271.029638 
L 139.715103 271.029638 
L 139.715103 270.502952 
L 140.103868 270.502952 
L 140.103868 269.976266 
L 140.378508 269.976266 
L 140.378508 269.449579 
L 143.60342 269.449579 
L 143.60342 268.922893 
L 143.778691 268.922893 
L 143.778691 268.396207 
L 144.462672 268.396207 
L 144.462672 267.869521 
L 144.641416 267.869521 
L 144.641416 267.342835 
L 145.418169 267.342835 
L 145.452153 266.289463 
L 145.654676 266.289463 
L 145.654676 265.762777 
L 146.968625 265.762777 
L 146.968625 265.236091 
L 147.205618 265.236091 
L 147.205618 264.709405 
L 147.769524 264.709405 
L 147.769524 264.182719 
L 149.067574 264.182719 
L 149.067574 263.656033 
L 150.352736 263.656033 
L 150.352736 263.129347 
L 151.477707 263.129347 
L 151.477707 262.60266 
L 152.161072 262.60266 
L 152.161072 262.075974 
L 152.692105 262.075974 
L 152.692105 261.549288 
L 154.119001 261.549288 
L 154.119001 261.022602 
L 154.310719 261.022602 
L 154.310719 260.495916 
L 154.687945 260.495916 
L 154.687945 259.96923 
L 155.089774 259.96923 
L 155.089774 259.442544 
L 155.405981 259.442544 
L 155.405981 258.915858 
L 156.532685 258.915858 
L 156.556648 257.862486 
L 157.046598 257.862486 
L 157.046598 257.3358 
L 158.047603 257.3358 
L 158.047603 256.809114 
L 159.025463 256.809114 
L 159.025463 256.282427 
L 160.37492 256.282427 
L 160.37492 255.755741 
L 162.449267 255.755741 
L 162.449267 255.229055 
L 164.607388 255.229055 
L 164.607388 254.702369 
L 165.069087 254.702369 
L 165.069087 254.175683 
L 169.224577 254.175683 
L 169.224577 253.122311 
L 169.972696 253.122311 
L 169.972696 252.595625 
L 170.655397 252.595625 
L 170.655397 252.068939 
L 173.06094 252.068939 
L 173.06094 251.015567 
L 173.190583 251.015567 
L 173.24815 249.435508 
L 173.984132 249.435508 
L 173.984132 248.908822 
L 175.785362 248.908822 
L 175.785362 248.382136 
L 176.166757 248.382136 
L 176.166757 247.85545 
L 176.614066 247.85545 
L 176.614066 247.328764 
L 177.617605 247.328764 
L 177.617605 246.802078 
L 181.724604 246.802078 
L 181.724604 246.275392 
L 181.964723 246.275392 
L 181.964723 245.748706 
L 182.872276 245.748706 
L 182.872276 245.22202 
L 184.692204 245.22202 
L 184.692204 244.695334 
L 188.483673 244.695334 
L 188.483673 243.641962 
L 188.658406 243.641962 
L 188.658406 243.115275 
L 189.051077 243.115275 
L 189.051077 242.588589 
L 189.23036 242.588589 
L 189.23036 241.535217 
L 189.821517 241.535217 
L 189.821517 241.008531 
L 191.024229 241.008531 
L 191.024229 240.481845 
L 191.956161 240.481845 
L 191.956161 239.955159 
L 192.255542 239.955159 
L 192.298775 238.901787 
L 194.745139 238.901787 
L 194.745139 238.375101 
L 195.362674 238.375101 
L 195.362674 237.848415 
L 195.762331 237.848415 
L 195.762331 237.321729 
L 196.129526 237.321729 
L 196.129526 236.795043 
L 196.497637 236.795043 
L 196.497637 235.74167 
L 196.614822 235.74167 
L 196.614822 235.214984 
L 196.754531 235.214984 
L 196.754531 234.688298 
L 197.077013 234.688298 
L 197.077013 234.161612 
L 199.215154 234.161612 
L 199.215154 233.634926 
L 199.388548 233.634926 
L 199.388548 233.10824 
L 199.78655 233.10824 
L 199.78655 232.581554 
L 201.145102 232.581554 
L 201.145102 232.054868 
L 202.13117 232.054868 
L 202.13117 231.528182 
L 203.983888 231.528182 
L 203.983888 230.47481 
L 205.852795 230.47481 
L 205.852795 229.948123 
L 206.737032 229.948123 
L 206.737032 229.421437 
L 207.540663 229.421437 
L 207.540663 228.894751 
L 210.607458 228.894751 
L 210.640889 227.841379 
L 216.228789 227.841379 
L 216.335016 226.261321 
L 219.009685 226.261321 
L 219.009685 225.734635 
L 220.620501 225.734635 
L 220.620501 225.207949 
L 221.133716 225.207949 
L 221.133716 224.681263 
L 222.746377 224.681263 
L 222.746377 223.627891 
L 224.042398 223.627891 
L 224.042398 223.101204 
L 224.605153 223.101204 
L 224.605153 222.574518 
L 225.199593 222.574518 
L 225.199593 222.047832 
L 229.845448 222.047832 
L 229.845448 221.521146 
L 230.276711 221.521146 
L 230.276711 220.99446 
L 233.830756 220.99446 
L 233.830756 220.467774 
L 244.613793 220.467774 
L 244.613793 219.941088 
L 338.688 219.941088 
L 338.688 219.941088 
" style="fill:none;stroke:#ff00ff;stroke-linecap:square;stroke-width:1.5;"/>
   </g>
   <g id="line2d_41">
    <defs>
     <path d="M 0 8.485281 
L 5.091169 0 
L 0 -8.485281 
L -5.091169 0 
z
" id="m6fda0e3316" style="stroke:#ff00ff;stroke-linejoin:miter;stroke-width:1.5;"/>
    </defs>
    <g>
     <use style="fill-opacity:0;stroke:#ff00ff;stroke-linejoin:miter;stroke-width:1.5;" x="169.224577" xlink:href="#m6fda0e3316" y="253.122311"/>
     <use style="fill-opacity:0;stroke:#ff00ff;stroke-linejoin:miter;stroke-width:1.5;" x="229.845448" xlink:href="#m6fda0e3316" y="221.521146"/>
     <use style="fill-opacity:0;stroke:#ff00ff;stroke-linejoin:miter;stroke-width:1.5;" x="244.613793" xlink:href="#m6fda0e3316" y="219.941088"/>
     <use style="fill-opacity:0;stroke:#ff00ff;stroke-linejoin:miter;stroke-width:1.5;" x="244.613793" xlink:href="#m6fda0e3316" y="219.941088"/>
     <use style="fill-opacity:0;stroke:#ff00ff;stroke-linejoin:miter;stroke-width:1.5;" x="338.688" xlink:href="#m6fda0e3316" y="219.941088"/>
    </g>
   </g>
   <g id="line2d_42">
    <path style="fill:none;stroke:#ff00ff;stroke-linecap:square;stroke-width:1.5;"/>
    <g/>
   </g>
   <g id="line2d_43">
    <path clip-path="url(#p815019553e)" d="M 165.978297 254.175683 
" style="fill:none;stroke:#ff00ff;stroke-linecap:square;stroke-width:1.5;"/>
    <defs>
     <path d="M -12 12 
L 12 -12 
M -12 -12 
L 12 12 
" id="m79c113b217" style="stroke:#ff00ff;"/>
    </defs>
    <g clip-path="url(#p815019553e)">
     <use style="fill:#ff00ff;stroke:#ff00ff;" x="165.978297" xlink:href="#m79c113b217" y="254.175683"/>
    </g>
   </g>
   <g id="line2d_44">
    <defs>
     <path d="M 0 1.5 
C 0.397805 1.5 0.77937 1.341951 1.06066 1.06066 
C 1.341951 0.77937 1.5 0.397805 1.5 0 
C 1.5 -0.397805 1.341951 -0.77937 1.06066 -1.06066 
C 0.77937 -1.341951 0.397805 -1.5 0 -1.5 
C -0.397805 -1.5 -0.77937 -1.341951 -1.06066 -1.06066 
C -1.341951 -0.77937 -1.5 -0.397805 -1.5 0 
C -1.5 0.397805 -1.341951 0.77937 -1.06066 1.06066 
C -0.77937 1.341951 -0.397805 1.5 0 1.5 
z
" id="mcaec57dd46" style="stroke:#ff7500;"/>
    </defs>
    <g>
     <use style="fill:#ff7500;stroke:#ff7500;" x="226.322497" xlink:href="#mcaec57dd46" y="235.74167"/>
     <use style="fill:#ff7500;stroke:#ff7500;" x="226.322497" xlink:href="#mcaec57dd46" y="235.74167"/>
    </g>
   </g>
   <g id="line2d_45">
    <path d="M 93.197415 298.944 
L 93.197415 298.417314 
L 93.644601 298.417314 
L 93.644601 297.890628 
L 94.921215 297.890628 
L 94.921215 297.363942 
L 97.043522 297.363942 
L 97.043522 296.837256 
L 103.498249 296.837256 
L 103.498249 296.31057 
L 103.870632 296.31057 
L 103.870632 295.783884 
L 103.993014 295.783884 
L 103.993014 295.257197 
L 106.48859 295.257197 
L 106.48859 294.203825 
L 107.614095 294.203825 
L 107.614095 293.677139 
L 108.483824 293.677139 
L 108.577836 292.623767 
L 109.843417 292.623767 
L 109.843417 292.097081 
L 111.819788 292.097081 
L 111.819788 291.570395 
L 111.974805 291.570395 
L 111.974805 291.043709 
L 113.453595 291.043709 
L 113.453595 290.517023 
L 113.942906 290.517023 
L 113.942906 289.463651 
L 116.38325 289.463651 
L 116.38325 288.936964 
L 119.045825 288.936964 
L 119.045825 288.410278 
L 120.286695 288.410278 
L 120.286695 287.883592 
L 122.699028 287.883592 
L 122.699028 287.356906 
L 123.111324 287.356906 
L 123.111324 286.83022 
L 124.292765 286.83022 
L 124.292765 286.303534 
L 125.787955 286.303534 
L 125.787955 285.776848 
L 127.421479 285.776848 
L 127.421479 285.250162 
L 129.51791 285.250162 
L 129.51791 284.723476 
L 130.558552 284.723476 
L 130.664567 283.670104 
L 130.717333 283.670104 
L 130.717333 283.143418 
L 133.19358 283.143418 
L 133.19358 282.616732 
L 138.976312 282.616732 
L 138.976312 282.090045 
L 140.363363 282.090045 
L 140.363363 281.563359 
L 140.693549 281.563359 
L 140.693549 281.036673 
L 141.177393 281.036673 
L 141.177393 280.509987 
L 141.899708 280.509987 
L 142.010346 279.456615 
L 142.07914 279.456615 
L 142.147664 278.403243 
L 142.378651 278.403243 
L 142.378651 277.876557 
L 142.526499 277.876557 
L 142.553247 276.823185 
L 143.11861 276.823185 
L 143.11861 276.296499 
L 143.540394 276.296499 
L 143.540394 275.243126 
L 145.074639 275.243126 
L 145.132366 274.189754 
L 145.440832 274.189754 
L 145.440832 273.663068 
L 145.810583 273.663068 
L 145.810583 273.136382 
L 146.041862 273.136382 
L 146.041862 272.609696 
L 146.356287 272.609696 
L 146.452726 271.556324 
L 146.622867 271.556324 
L 146.622867 271.029638 
L 147.509976 271.029638 
L 147.509976 270.502952 
L 147.799224 270.502952 
L 147.818997 268.922893 
L 148.054534 268.922893 
L 148.054534 268.396207 
L 148.200145 268.396207 
L 148.200145 267.869521 
L 148.61095 267.869521 
L 148.61095 267.342835 
L 148.975352 267.342835 
L 148.975352 266.816149 
L 149.467659 266.816149 
L 149.467659 266.289463 
L 149.937701 266.289463 
L 149.937701 265.762777 
L 150.301393 265.762777 
L 150.301393 265.236091 
L 150.607205 265.236091 
L 150.607205 264.709405 
L 151.975216 264.709405 
L 151.975216 264.182719 
L 153.13475 264.182719 
L 153.214697 263.129347 
L 153.344733 263.129347 
L 153.344733 262.60266 
L 153.552218 262.60266 
L 153.552218 262.075974 
L 153.799388 262.075974 
L 153.799388 261.549288 
L 153.918189 261.549288 
L 153.918189 261.022602 
L 154.358321 261.022602 
L 154.358321 260.495916 
L 154.840544 260.495916 
L 154.840544 259.96923 
L 155.373976 259.96923 
L 155.437927 258.915858 
L 155.653621 258.915858 
L 155.653621 258.389172 
L 155.847985 258.389172 
L 155.922644 256.809114 
L 156.224231 256.809114 
L 156.224231 256.282427 
L 156.442528 256.282427 
L 156.442528 255.755741 
L 156.586556 255.755741 
L 156.586556 255.229055 
L 157.104709 255.229055 
L 157.116308 254.175683 
L 157.787352 254.175683 
L 157.787352 253.648997 
L 158.031107 253.648997 
L 158.031107 253.122311 
L 158.336493 253.122311 
L 158.336493 252.595625 
L 158.508628 252.595625 
L 158.508628 252.068939 
L 160.039866 252.068939 
L 160.039866 251.542253 
L 161.081824 251.542253 
L 161.187726 249.962195 
L 161.26559 249.962195 
L 161.26559 249.435508 
L 162.415072 249.435508 
L 162.415072 248.908822 
L 162.619242 248.908822 
L 162.619242 248.382136 
L 163.525596 248.382136 
L 163.525596 247.85545 
L 170.23151 247.85545 
L 170.23151 247.328764 
L 172.022124 247.328764 
L 172.022124 246.802078 
L 173.558028 246.802078 
L 173.558028 246.275392 
L 174.447351 246.275392 
L 174.447351 245.22202 
L 182.716692 245.22202 
L 182.716692 244.168648 
L 184.357448 244.168648 
L 184.357448 243.641962 
L 188.055259 243.641962 
L 188.055259 243.115275 
L 189.329374 243.115275 
L 189.329374 242.588589 
L 189.572675 242.588589 
L 189.572675 242.061903 
L 193.008923 242.061903 
L 193.008923 241.535217 
L 196.708484 241.535217 
L 196.708484 241.008531 
L 199.179333 241.008531 
L 199.179333 240.481845 
L 199.292775 240.481845 
L 199.292775 239.955159 
L 203.727932 239.955159 
L 203.727932 239.428473 
L 204.040217 239.428473 
L 204.040217 238.901787 
L 207.332214 238.901787 
L 207.416347 237.848415 
L 207.515871 237.848415 
L 207.515871 237.321729 
L 209.121563 237.321729 
L 209.121563 236.795043 
L 214.012819 236.795043 
L 214.012819 236.268356 
L 226.322497 236.268356 
L 226.322497 235.74167 
L 338.688 235.74167 
L 338.688 235.74167 
" style="fill:none;stroke:#ff7500;stroke-linecap:square;stroke-width:1.5;"/>
   </g>
   <g id="line2d_46">
    <defs>
     <path d="M 0 -6 
L -1.347084 -1.854102 
L -5.706339 -1.854102 
L -2.179628 0.708204 
L -3.526712 4.854102 
L -0 2.291796 
L 3.526712 4.854102 
L 2.179628 0.708204 
L 5.706339 -1.854102 
L 1.347084 -1.854102 
z
" id="m1dbb39aad3" style="stroke:#ff7500;stroke-linejoin:bevel;stroke-width:1.5;"/>
    </defs>
    <g>
     <use style="fill-opacity:0;stroke:#ff7500;stroke-linejoin:bevel;stroke-width:1.5;" x="143.540394" xlink:href="#m1dbb39aad3" y="276.296499"/>
     <use style="fill-opacity:0;stroke:#ff7500;stroke-linejoin:bevel;stroke-width:1.5;" x="189.572675" xlink:href="#m1dbb39aad3" y="242.061903"/>
     <use style="fill-opacity:0;stroke:#ff7500;stroke-linejoin:bevel;stroke-width:1.5;" x="226.322497" xlink:href="#m1dbb39aad3" y="236.268356"/>
     <use style="fill-opacity:0;stroke:#ff7500;stroke-linejoin:bevel;stroke-width:1.5;" x="226.322497" xlink:href="#m1dbb39aad3" y="235.74167"/>
     <use style="fill-opacity:0;stroke:#ff7500;stroke-linejoin:bevel;stroke-width:1.5;" x="338.688" xlink:href="#m1dbb39aad3" y="235.74167"/>
    </g>
   </g>
   <g id="line2d_47">
    <path style="fill:none;stroke:#ff7500;stroke-linecap:square;stroke-width:1.5;"/>
    <g/>
   </g>
   <g id="line2d_48">
    <path clip-path="url(#p815019553e)" d="M 165.978297 247.85545 
" style="fill:none;stroke:#ff7500;stroke-linecap:square;stroke-width:1.5;"/>
    <defs>
     <path d="M -12 12 
L 12 -12 
M -12 -12 
L 12 12 
" id="m93cb71898e" style="stroke:#ff7500;"/>
    </defs>
    <g clip-path="url(#p815019553e)">
     <use style="fill:#ff7500;stroke:#ff7500;" x="165.978297" xlink:href="#m93cb71898e" y="247.85545"/>
    </g>
   </g>
   <g id="line2d_49">
    <defs>
     <path d="M 0 1.5 
C 0.397805 1.5 0.77937 1.341951 1.06066 1.06066 
C 1.341951 0.77937 1.5 0.397805 1.5 0 
C 1.5 -0.397805 1.341951 -0.77937 1.06066 -1.06066 
C 0.77937 -1.341951 0.397805 -1.5 0 -1.5 
C -0.397805 -1.5 -0.77937 -1.341951 -1.06066 -1.06066 
C -1.341951 -0.77937 -1.5 -0.397805 -1.5 0 
C -1.5 0.397805 -1.341951 0.77937 -1.06066 1.06066 
C -0.77937 1.341951 -0.397805 1.5 0 1.5 
z
" id="m61b99d272e" style="stroke:#6495ed;"/>
    </defs>
    <g>
     <use style="fill:#6495ed;stroke:#6495ed;" x="225.153362" xlink:href="#m61b99d272e" y="241.008531"/>
     <use style="fill:#6495ed;stroke:#6495ed;" x="225.153362" xlink:href="#m61b99d272e" y="241.008531"/>
    </g>
   </g>
   <g id="line2d_50">
    <path d="M 89.697862 298.944 
L 89.697862 298.417314 
L 94.714831 298.417314 
L 94.714831 297.890628 
L 104.474128 297.890628 
L 104.474128 297.363942 
L 104.942325 297.363942 
L 104.942325 296.837256 
L 106.48859 296.837256 
L 106.48859 296.31057 
L 107.90885 296.31057 
L 107.90885 295.783884 
L 109.222105 295.783884 
L 109.222105 295.257197 
L 110.527398 295.257197 
L 110.527398 294.730511 
L 110.859585 294.730511 
L 110.859585 294.203825 
L 112.803609 294.203825 
L 112.803609 293.677139 
L 116.262979 293.677139 
L 116.262979 293.150453 
L 116.502698 293.150453 
L 116.502698 292.623767 
L 122.782271 292.623767 
L 122.782271 292.097081 
L 123.434283 292.097081 
L 123.434283 291.043709 
L 125.038147 291.043709 
L 125.038147 290.517023 
L 125.434921 290.517023 
L 125.434921 289.990337 
L 130.848555 289.990337 
L 130.848555 289.463651 
L 135.014985 289.463651 
L 135.014985 288.936964 
L 138.611599 288.936964 
L 138.611599 288.410278 
L 140.073083 288.410278 
L 140.073083 287.356906 
L 141.046761 287.356906 
L 141.075875 286.303534 
L 144.818346 286.303534 
L 144.818346 285.776848 
L 145.688202 285.776848 
L 145.688202 285.250162 
L 146.812312 285.250162 
L 146.812312 284.723476 
L 147.256714 284.723476 
L 147.256714 284.19679 
L 148.676918 284.19679 
L 148.752007 282.616732 
L 150.437972 282.616732 
L 150.437972 282.090045 
L 150.682827 282.090045 
L 150.682827 281.563359 
L 151.959639 281.563359 
L 151.959639 281.036673 
L 152.587184 281.036673 
L 152.587184 280.509987 
L 152.699575 280.509987 
L 152.699575 279.983301 
L 153.994632 279.983301 
L 153.994632 279.456615 
L 155.063706 279.456615 
L 155.063706 278.929929 
L 156.114049 278.929929 
L 156.114049 278.403243 
L 156.776762 278.403243 
L 156.776762 277.876557 
L 157.11051 277.876557 
L 157.11051 277.349871 
L 157.420907 277.349871 
L 157.437991 276.296499 
L 157.686643 276.296499 
L 157.686643 275.769812 
L 157.981524 275.769812 
L 158.031107 274.71644 
L 158.118907 274.71644 
L 158.118907 274.189754 
L 158.910765 274.189754 
L 158.910765 273.663068 
L 159.108409 273.663068 
L 159.108409 273.136382 
L 159.653192 273.136382 
L 159.678237 272.08301 
L 160.049669 272.08301 
L 160.049669 271.029638 
L 160.244578 271.029638 
L 160.244578 270.502952 
L 160.727241 270.502952 
L 160.727241 269.976266 
L 160.8961 269.976266 
L 160.975275 268.922893 
L 162.091193 268.922893 
L 162.091193 268.396207 
L 162.273306 268.396207 
L 162.273306 267.869521 
L 162.423627 267.869521 
L 162.517456 266.816149 
L 163.335883 266.816149 
L 163.376421 265.762777 
L 163.449152 265.762777 
L 163.449152 265.236091 
L 164.090433 265.236091 
L 164.090433 264.709405 
L 164.452001 264.709405 
L 164.452001 264.182719 
L 164.588513 264.182719 
L 164.588513 263.656033 
L 165.508131 263.656033 
L 165.508131 263.129347 
L 165.689922 263.129347 
L 165.689922 262.60266 
L 165.974809 262.60266 
L 165.974809 262.075974 
L 174.541525 262.075974 
L 174.541525 261.549288 
L 175.199215 261.549288 
L 175.199215 261.022602 
L 175.637655 261.022602 
L 175.637655 260.495916 
L 175.84885 260.495916 
L 175.84885 258.915858 
L 176.311997 258.915858 
L 176.421575 257.862486 
L 177.098184 257.862486 
L 177.098184 256.809114 
L 177.31983 256.809114 
L 177.31983 255.755741 
L 183.556359 255.755741 
L 183.556359 255.229055 
L 183.987601 255.229055 
L 183.987601 254.175683 
L 189.530251 254.175683 
L 189.530251 253.648997 
L 189.664389 253.648997 
L 189.664389 251.542253 
L 193.988442 251.542253 
L 193.988442 251.015567 
L 196.517021 251.015567 
L 196.517021 249.962195 
L 196.659915 249.962195 
L 196.659915 248.908822 
L 199.430091 248.908822 
L 199.430091 248.382136 
L 199.635324 248.382136 
L 199.635324 247.328764 
L 201.99904 247.328764 
L 201.99904 246.275392 
L 205.712223 246.275392 
L 205.712223 245.748706 
L 207.413106 245.748706 
L 207.413106 245.22202 
L 210.385845 245.22202 
L 210.385845 244.168648 
L 213.075449 244.168648 
L 213.075449 243.641962 
L 214.120376 243.641962 
L 214.120376 243.115275 
L 217.150627 243.115275 
L 217.150627 242.588589 
L 218.912904 242.588589 
L 218.980323 241.535217 
L 225.153362 241.535217 
L 225.153362 241.008531 
L 338.688 241.008531 
L 338.688 241.008531 
" style="fill:none;stroke:#6495ed;stroke-linecap:square;stroke-width:1.5;"/>
   </g>
   <g id="line2d_51">
    <defs>
     <path d="M -0 6 
L 6 -6 
L -6 -6 
z
" id="m1559b3de44" style="stroke:#6495ed;stroke-linejoin:miter;stroke-width:1.5;"/>
    </defs>
    <g>
     <use style="fill-opacity:0;stroke:#6495ed;stroke-linejoin:miter;stroke-width:1.5;" x="165.974809" xlink:href="#m1559b3de44" y="262.60266"/>
     <use style="fill-opacity:0;stroke:#6495ed;stroke-linejoin:miter;stroke-width:1.5;" x="225.153362" xlink:href="#m1559b3de44" y="241.535217"/>
     <use style="fill-opacity:0;stroke:#6495ed;stroke-linejoin:miter;stroke-width:1.5;" x="225.153362" xlink:href="#m1559b3de44" y="241.008531"/>
     <use style="fill-opacity:0;stroke:#6495ed;stroke-linejoin:miter;stroke-width:1.5;" x="225.153362" xlink:href="#m1559b3de44" y="241.008531"/>
     <use style="fill-opacity:0;stroke:#6495ed;stroke-linejoin:miter;stroke-width:1.5;" x="338.688" xlink:href="#m1559b3de44" y="241.008531"/>
    </g>
   </g>
   <g id="line2d_52">
    <path style="fill:none;stroke:#6495ed;stroke-linecap:square;stroke-width:1.5;"/>
    <g/>
   </g>
   <g id="line2d_53">
    <path clip-path="url(#p815019553e)" d="M 165.978297 262.075974 
" style="fill:none;stroke:#6495ed;stroke-linecap:square;stroke-width:1.5;"/>
    <defs>
     <path d="M -12 12 
L 12 -12 
M -12 -12 
L 12 12 
" id="m38dcf235fd" style="stroke:#6495ed;"/>
    </defs>
    <g clip-path="url(#p815019553e)">
     <use style="fill:#6495ed;stroke:#6495ed;" x="165.978297" xlink:href="#m38dcf235fd" y="262.075974"/>
    </g>
   </g>
   <g id="line2d_54">
    <defs>
     <path d="M 0 1.5 
C 0.397805 1.5 0.77937 1.341951 1.06066 1.06066 
C 1.341951 0.77937 1.5 0.397805 1.5 0 
C 1.5 -0.397805 1.341951 -0.77937 1.06066 -1.06066 
C 0.77937 -1.341951 0.397805 -1.5 0 -1.5 
C -0.397805 -1.5 -0.77937 -1.341951 -1.06066 -1.06066 
C -1.341951 -0.77937 -1.5 -0.397805 -1.5 0 
C -1.5 0.397805 -1.341951 0.77937 -1.06066 1.06066 
C -0.77937 1.341951 -0.397805 1.5 0 1.5 
z
" id="mc7e610df5e" style="stroke:#ff0000;"/>
    </defs>
    <g>
     <use style="fill:#ff0000;stroke:#ff0000;" x="220.451134" xlink:href="#mc7e610df5e" y="251.542253"/>
     <use style="fill:#ff0000;stroke:#ff0000;" x="220.451134" xlink:href="#mc7e610df5e" y="251.542253"/>
    </g>
   </g>
   <g id="line2d_55">
    <path d="M 88.846997 298.944 
L 88.846997 297.890628 
L 91.782644 297.890628 
L 91.782644 297.363942 
L 112.431755 297.363942 
L 112.431755 296.837256 
L 118.629344 296.837256 
L 118.629344 296.31057 
L 119.751557 296.31057 
L 119.751557 295.257197 
L 120.190611 295.257197 
L 120.190611 294.730511 
L 122.104932 294.730511 
L 122.104932 294.203825 
L 122.573415 294.203825 
L 122.573415 293.150453 
L 122.823744 293.150453 
L 122.823744 292.623767 
L 125.857712 292.623767 
L 125.857712 292.097081 
L 126.168212 292.097081 
L 126.168212 291.570395 
L 126.673734 291.570395 
L 126.673734 291.043709 
L 131.108073 291.043709 
L 131.108073 290.517023 
L 131.715598 290.517023 
L 131.715598 289.990337 
L 132.940331 289.990337 
L 133.009765 288.936964 
L 133.262014 288.936964 
L 133.262014 288.410278 
L 133.800029 288.410278 
L 133.800029 287.883592 
L 135.300881 287.883592 
L 135.300881 287.356906 
L 136.266147 287.356906 
L 136.266147 286.83022 
L 136.942755 286.83022 
L 136.942755 286.303534 
L 137.126135 286.303534 
L 137.126135 285.776848 
L 138.049816 285.776848 
L 138.049816 285.250162 
L 140.633978 285.250162 
L 140.633978 284.723476 
L 140.929817 284.723476 
L 140.929817 284.19679 
L 141.913576 284.19679 
L 141.913576 283.670104 
L 142.499711 283.670104 
L 142.499711 283.143418 
L 143.157379 283.143418 
L 143.157379 282.616732 
L 143.40093 282.616732 
L 143.40093 282.090045 
L 144.653267 282.090045 
L 144.653267 281.563359 
L 145.02832 281.563359 
L 145.02832 281.036673 
L 146.150926 281.036673 
L 146.150926 279.983301 
L 146.927079 279.983301 
L 146.927079 279.456615 
L 147.479778 279.456615 
L 147.479778 278.929929 
L 147.700024 278.929929 
L 147.700024 278.403243 
L 147.86833 278.403243 
L 147.86833 277.876557 
L 149.205001 277.876557 
L 149.205001 277.349871 
L 150.275665 277.349871 
L 150.275665 276.823185 
L 152.153367 276.823185 
L 152.153367 276.296499 
L 153.552218 276.296499 
L 153.630278 275.243126 
L 153.665645 275.243126 
L 153.665645 274.71644 
L 154.015422 274.71644 
L 154.015422 274.189754 
L 154.486875 274.189754 
L 154.486875 273.663068 
L 155.386785 273.663068 
L 155.386785 273.136382 
L 156.230332 273.136382 
L 156.230332 272.609696 
L 156.675973 272.609696 
L 156.675973 272.08301 
L 157.075678 272.08301 
L 157.075678 271.029638 
L 157.815223 271.029638 
L 157.815223 270.502952 
L 158.003578 270.502952 
L 158.003578 269.449579 
L 159.015067 269.449579 
L 159.015067 268.922893 
L 159.512268 268.922893 
L 159.512268 268.396207 
L 159.872369 268.396207 
L 159.872369 267.869521 
L 160.259108 267.869521 
L 160.259108 267.342835 
L 160.427745 267.342835 
L 160.427745 266.289463 
L 160.764907 266.289463 
L 160.764907 265.762777 
L 161.21983 265.762777 
L 161.21983 265.236091 
L 161.461003 265.236091 
L 161.461003 264.709405 
L 161.893939 264.709405 
L 161.893939 264.182719 
L 162.337888 264.182719 
L 162.337888 263.656033 
L 162.762429 263.656033 
L 162.762429 263.129347 
L 163.15639 263.129347 
L 163.15639 262.075974 
L 165.475853 262.075974 
L 165.475853 261.549288 
L 173.058616 261.549288 
L 173.058616 260.495916 
L 173.562544 260.495916 
L 173.562544 259.96923 
L 174.929925 259.96923 
L 174.929925 258.915858 
L 175.131249 258.915858 
L 175.131249 258.389172 
L 175.653684 258.389172 
L 175.653684 257.862486 
L 176.532374 257.862486 
L 176.532374 257.3358 
L 177.361644 257.3358 
L 177.361644 256.809114 
L 183.110264 256.809114 
L 183.110264 256.282427 
L 184.129832 256.282427 
L 184.129832 255.755741 
L 184.670722 255.755741 
L 184.670722 255.229055 
L 188.656506 255.229055 
L 188.656506 254.702369 
L 189.805512 254.702369 
L 189.805512 254.175683 
L 192.381085 254.175683 
L 192.381085 253.648997 
L 192.857991 253.648997 
L 192.857991 253.122311 
L 196.414406 253.122311 
L 196.414406 252.595625 
L 211.586589 252.595625 
L 211.586589 252.068939 
L 220.451134 252.068939 
L 220.451134 251.542253 
L 338.688 251.542253 
L 338.688 251.542253 
" style="fill:none;stroke:#ff0000;stroke-linecap:square;stroke-width:1.5;"/>
   </g>
   <g id="line2d_56">
    <defs>
     <path d="M 0 -6 
L -5.196152 -3 
L -5.196152 3 
L -0 6 
L 5.196152 3 
L 5.196152 -3 
z
" id="me9521e49d3" style="stroke:#ff0000;stroke-linejoin:miter;stroke-width:1.5;"/>
    </defs>
    <g>
     <use style="fill-opacity:0;stroke:#ff0000;stroke-linejoin:miter;stroke-width:1.5;" x="153.552218" xlink:href="#me9521e49d3" y="275.769812"/>
     <use style="fill-opacity:0;stroke:#ff0000;stroke-linejoin:miter;stroke-width:1.5;" x="220.451134" xlink:href="#me9521e49d3" y="252.068939"/>
     <use style="fill-opacity:0;stroke:#ff0000;stroke-linejoin:miter;stroke-width:1.5;" x="220.451134" xlink:href="#me9521e49d3" y="251.542253"/>
     <use style="fill-opacity:0;stroke:#ff0000;stroke-linejoin:miter;stroke-width:1.5;" x="220.451134" xlink:href="#me9521e49d3" y="251.542253"/>
     <use style="fill-opacity:0;stroke:#ff0000;stroke-linejoin:miter;stroke-width:1.5;" x="338.688" xlink:href="#me9521e49d3" y="251.542253"/>
    </g>
   </g>
   <g id="line2d_57">
    <path style="fill:none;stroke:#ff0000;stroke-linecap:square;stroke-width:1.5;"/>
    <g/>
   </g>
   <g id="line2d_58">
    <path clip-path="url(#p815019553e)" d="M 165.978297 261.549288 
" style="fill:none;stroke:#ff0000;stroke-linecap:square;stroke-width:1.5;"/>
    <defs>
     <path d="M -12 12 
L 12 -12 
M -12 -12 
L 12 12 
" id="m7d006c0280" style="stroke:#ff0000;"/>
    </defs>
    <g clip-path="url(#p815019553e)">
     <use style="fill:#ff0000;stroke:#ff0000;" x="165.978297" xlink:href="#m7d006c0280" y="261.549288"/>
    </g>
   </g>
   <g id="line2d_59">
    <defs>
     <path d="M 0 1.5 
C 0.397805 1.5 0.77937 1.341951 1.06066 1.06066 
C 1.341951 0.77937 1.5 0.397805 1.5 0 
C 1.5 -0.397805 1.341951 -0.77937 1.06066 -1.06066 
C 0.77937 -1.341951 0.397805 -1.5 0 -1.5 
C -0.397805 -1.5 -0.77937 -1.341951 -1.06066 -1.06066 
C -1.341951 -0.77937 -1.5 -0.397805 -1.5 0 
C -1.5 0.397805 -1.341951 0.77937 -1.06066 1.06066 
C -0.77937 1.341951 -0.397805 1.5 0 1.5 
z
" id="m11a1b8ae39" style="stroke:#9acd32;"/>
    </defs>
    <g>
     <use style="fill:#9acd32;stroke:#9acd32;" x="233.485844" xlink:href="#m11a1b8ae39" y="61.935264"/>
     <use style="fill:#9acd32;stroke:#9acd32;" x="233.485844" xlink:href="#m11a1b8ae39" y="61.935264"/>
    </g>
   </g>
   <g id="line2d_60">
    <path d="M 86.351421 298.944 
L 86.351421 298.417314 
L 97.928955 298.417314 
L 97.928955 297.890628 
L 104.942325 297.890628 
L 104.942325 297.363942 
L 105.057436 297.363942 
L 105.057436 296.837256 
L 105.171792 296.837256 
L 105.171792 296.31057 
L 105.285403 296.31057 
L 105.285403 295.783884 
L 110.016944 295.783884 
L 110.016944 294.730511 
L 110.443353 294.730511 
L 110.443353 293.677139 
L 113.804498 293.677139 
L 113.804498 293.150453 
L 114.284194 293.150453 
L 114.284194 292.623767 
L 116.019919 292.623767 
L 116.019919 292.097081 
L 117.202696 292.097081 
L 117.202696 291.043709 
L 119.751557 291.043709 
L 119.751557 290.517023 
L 120.47729 290.517023 
L 120.47729 289.990337 
L 122.148045 289.990337 
L 122.191052 288.936964 
L 124.178158 288.936964 
L 124.178158 288.410278 
L 124.292765 288.410278 
L 124.292765 287.883592 
L 124.92835 287.883592 
L 124.92835 287.356906 
L 125.857712 287.356906 
L 125.927192 286.303534 
L 125.996395 286.303534 
L 125.996395 285.250162 
L 128.138476 285.250162 
L 128.138476 284.723476 
L 129.46138 284.723476 
L 129.46138 283.670104 
L 129.574256 283.670104 
L 129.574256 283.143418 
L 131.159516 283.143418 
L 131.159516 282.616732 
L 131.715598 282.616732 
L 131.790072 281.563359 
L 131.864229 281.563359 
L 131.864229 281.036673 
L 132.494049 281.036673 
L 132.494049 280.509987 
L 132.636218 280.509987 
L 132.636218 279.983301 
L 133.19358 279.983301 
L 133.19358 279.456615 
L 134.149701 279.456615 
L 134.149701 278.403243 
L 134.513701 278.403243 
L 134.513701 277.876557 
L 135.117629 277.876557 
L 135.117629 276.823185 
L 135.300881 276.823185 
L 135.300881 276.296499 
L 136.189322 276.296499 
L 136.189322 275.769812 
L 136.813232 275.769812 
L 136.813232 275.243126 
L 137.126135 275.243126 
L 137.126135 274.189754 
L 138.049816 274.189754 
L 138.118883 272.609696 
L 138.221972 272.609696 
L 138.221972 272.08301 
L 138.778323 272.08301 
L 138.811478 271.029638 
L 139.604677 271.029638 
L 139.683624 269.449579 
L 139.746525 269.449579 
L 139.746525 268.922893 
L 139.87165 268.922893 
L 139.902792 267.869521 
L 140.469102 267.869521 
L 140.469102 267.342835 
L 140.767727 267.342835 
L 140.767727 266.816149 
L 141.20629 266.816149 
L 141.278324 265.762777 
L 142.037896 265.762777 
L 142.037896 265.236091 
L 142.51311 265.236091 
L 142.553247 263.129347 
L 143.157379 263.129347 
L 143.221802 261.549288 
L 143.40093 261.549288 
L 143.40093 261.022602 
L 143.86567 261.022602 
L 143.915178 259.96923 
L 144.498568 259.96923 
L 144.498568 259.442544 
L 145.598655 259.442544 
L 145.598655 258.915858 
L 145.976095 258.915858 
L 145.976095 258.389172 
L 146.129168 258.389172 
L 146.150926 257.3358 
L 146.665144 257.3358 
L 146.665144 256.809114 
L 147.236294 256.809114 
L 147.236294 256.282427 
L 147.78933 256.282427 
L 147.78933 255.755741 
L 148.658095 255.755741 
L 148.76137 254.175683 
L 149.122675 254.175683 
L 149.122675 253.648997 
L 149.29602 253.648997 
L 149.29602 253.122311 
L 149.58413 253.122311 
L 149.690956 251.542253 
L 149.849978 251.542253 
L 149.849978 251.015567 
L 150.024985 251.015567 
L 150.024985 250.488881 
L 150.437972 250.488881 
L 150.437972 249.962195 
L 150.982078 249.962195 
L 151.039674 248.382136 
L 151.097081 248.382136 
L 151.097081 247.328764 
L 151.268175 247.328764 
L 151.292481 246.275392 
L 151.485716 246.275392 
L 151.485716 245.748706 
L 152.114793 245.748706 
L 152.114793 244.695334 
L 152.466496 244.695334 
L 152.504301 243.641962 
L 152.617226 243.641962 
L 152.617226 243.115275 
L 152.885298 243.115275 
L 152.885298 242.588589 
L 153.250915 242.588589 
L 153.25815 241.535217 
L 154.290278 241.535217 
L 154.331136 240.481845 
L 154.85375 240.481845 
L 154.945917 237.848415 
L 155.628383 237.848415 
L 155.647315 235.74167 
L 155.885354 235.74167 
L 155.885354 235.214984 
L 156.027868 235.214984 
L 156.027868 234.688298 
L 156.212023 234.688298 
L 156.212023 234.161612 
L 156.351903 234.161612 
L 156.351903 233.634926 
L 156.496678 233.634926 
L 156.496678 233.10824 
L 156.646219 233.10824 
L 156.646219 232.581554 
L 157.104709 232.581554 
L 157.197287 230.47481 
L 157.477787 230.47481 
L 157.477787 229.948123 
L 157.753847 229.948123 
L 157.80408 228.894751 
L 157.9318 228.894751 
L 157.9318 227.841379 
L 158.487203 227.841379 
L 158.540715 226.261321 
L 158.73729 226.261321 
L 158.742573 224.681263 
L 158.952561 224.681263 
L 158.999461 223.627891 
L 159.268002 223.627891 
L 159.268002 222.574518 
L 159.46166 222.574518 
L 159.46166 222.047832 
L 159.773084 222.047832 
L 159.773084 221.521146 
L 159.906985 221.521146 
L 159.931669 220.467774 
L 160.044768 220.467774 
L 160.098601 218.887716 
L 160.263949 218.887716 
L 160.341221 217.834344 
L 160.384537 217.834344 
L 160.384537 217.307658 
L 160.863394 217.307658 
L 160.863394 216.780971 
L 161.365843 216.780971 
L 161.365843 216.254285 
L 161.667653 216.254285 
L 161.738962 215.200913 
L 161.854219 215.200913 
L 161.92477 213.620855 
L 162.324991 213.620855 
L 162.367945 212.567483 
L 162.530211 212.567483 
L 162.606551 209.934052 
L 162.669913 209.934052 
L 162.669913 208.88068 
L 162.946002 208.88068 
L 162.966741 207.827308 
L 163.148187 207.827308 
L 163.242288 206.773936 
L 163.477355 206.773936 
L 163.477355 206.24725 
L 163.605703 206.24725 
L 163.605703 205.720564 
L 163.7569 205.720564 
L 163.760861 203.613819 
L 163.969529 203.613819 
L 163.969529 203.087133 
L 164.24906 203.087133 
L 164.310575 202.033761 
L 164.592289 202.033761 
L 164.592289 201.507075 
L 164.727712 201.507075 
L 164.753922 199.400331 
L 164.917777 199.400331 
L 164.965896 197.820273 
L 165.09479 197.820273 
L 165.09479 196.7669 
L 165.640207 196.7669 
L 165.686375 187.286551 
L 165.813593 187.286551 
L 165.876855 175.699457 
L 177.89806 175.699457 
L 177.984128 158.318817 
L 184.245235 158.318817 
L 184.245235 157.79213 
L 184.571326 157.79213 
L 184.598926 156.738758 
L 185.034694 156.738758 
L 185.082577 139.884804 
L 190.081751 139.884804 
L 190.113244 127.244338 
L 193.987743 127.244338 
L 194.012921 119.344047 
L 197.176979 119.344047 
L 197.197951 109.337011 
L 199.872166 109.337011 
L 199.890137 101.43672 
L 202.206039 101.43672 
L 202.221759 96.696545 
L 204.264119 96.696545 
L 204.27809 90.902998 
L 206.104753 90.902998 
L 206.117325 86.68951 
L 207.769529 86.68951 
L 207.780958 83.529393 
L 209.289142 83.529393 
L 209.299617 82.476021 
L 210.686887 82.476021 
L 210.696555 80.895963 
L 211.980869 80.895963 
L 211.989847 78.789218 
L 213.185436 78.789218 
L 213.193814 76.682474 
L 214.312149 76.682474 
L 214.320003 74.049044 
L 215.370464 74.049044 
L 215.377855 71.942299 
L 216.368212 71.942299 
L 216.375193 70.362241 
L 217.318566 70.362241 
L 217.318566 69.835555 
L 218.207234 69.835555 
L 218.207234 69.308869 
L 219.058789 69.308869 
L 219.064772 67.728811 
L 219.876402 67.728811 
L 219.876402 67.202125 
L 220.646471 67.202125 
L 220.646471 66.675439 
L 221.394439 66.675439 
L 221.394439 66.148752 
L 222.106619 66.148752 
L 222.106619 65.622066 
L 223.444597 65.622066 
L 223.44925 64.568694 
L 225.287269 64.568694 
L 225.287269 64.042008 
L 226.413116 64.042008 
L 226.413116 63.515322 
L 227.470667 63.515322 
L 227.470667 62.988636 
L 232.743487 62.988636 
L 232.743487 62.46195 
L 233.485844 62.46195 
L 233.485844 61.935264 
L 338.688 61.935264 
L 338.688 61.935264 
" style="fill:none;stroke:#9acd32;stroke-linecap:square;stroke-width:1.5;"/>
   </g>
   <g id="line2d_61">
    <defs>
     <path d="M 0 -6 
L -6 6 
L 6 6 
z
" id="m5f5ecfc43c" style="stroke:#9acd32;stroke-linejoin:miter;stroke-width:1.5;"/>
    </defs>
    <g>
     <use style="fill-opacity:0;stroke:#9acd32;stroke-linejoin:miter;stroke-width:1.5;" x="165.686375" xlink:href="#m5f5ecfc43c" y="187.286551"/>
     <use style="fill-opacity:0;stroke:#9acd32;stroke-linejoin:miter;stroke-width:1.5;" x="219.058789" xlink:href="#m5f5ecfc43c" y="68.782183"/>
     <use style="fill-opacity:0;stroke:#9acd32;stroke-linejoin:miter;stroke-width:1.5;" x="233.485844" xlink:href="#m5f5ecfc43c" y="61.935264"/>
     <use style="fill-opacity:0;stroke:#9acd32;stroke-linejoin:miter;stroke-width:1.5;" x="233.485844" xlink:href="#m5f5ecfc43c" y="61.935264"/>
     <use style="fill-opacity:0;stroke:#9acd32;stroke-linejoin:miter;stroke-width:1.5;" x="338.688" xlink:href="#m5f5ecfc43c" y="61.935264"/>
    </g>
   </g>
   <g id="line2d_62">
    <path style="fill:none;stroke:#9acd32;stroke-linecap:square;stroke-width:1.5;"/>
    <g/>
   </g>
   <g id="line2d_63">
    <path clip-path="url(#p815019553e)" d="M 165.978297 175.699457 
" style="fill:none;stroke:#9acd32;stroke-linecap:square;stroke-width:1.5;"/>
    <defs>
     <path d="M -12 12 
L 12 -12 
M -12 -12 
L 12 12 
" id="mcf52ca80bf" style="stroke:#9acd32;"/>
    </defs>
    <g clip-path="url(#p815019553e)">
     <use style="fill:#9acd32;stroke:#9acd32;" x="165.978297" xlink:href="#mcf52ca80bf" y="175.699457"/>
    </g>
   </g>
   <g id="line2d_64">
    <defs>
     <path d="M 0 1.5 
C 0.397805 1.5 0.77937 1.341951 1.06066 1.06066 
C 1.341951 0.77937 1.5 0.397805 1.5 0 
C 1.5 -0.397805 1.341951 -0.77937 1.06066 -1.06066 
C 0.77937 -1.341951 0.397805 -1.5 0 -1.5 
C -0.397805 -1.5 -0.77937 -1.341951 -1.06066 -1.06066 
C -1.341951 -0.77937 -1.5 -0.397805 -1.5 0 
C -1.5 0.397805 -1.341951 0.77937 -1.06066 1.06066 
C -0.77937 1.341951 -0.397805 1.5 0 1.5 
z
" id="ma8d2608c7d" style="stroke:#00bfbf;"/>
    </defs>
    <g>
     <use style="fill:#00bfbf;stroke:#00bfbf;" x="214.322402" xlink:href="#ma8d2608c7d" y="214.674227"/>
     <use style="fill:#00bfbf;stroke:#00bfbf;" x="214.322402" xlink:href="#ma8d2608c7d" y="214.674227"/>
    </g>
   </g>
   <g id="line2d_65">
    <path d="M 92.73846 298.944 
L 92.73846 298.417314 
L 100.040467 298.417314 
L 100.040467 297.890628 
L 104.942325 297.890628 
L 104.942325 297.363942 
L 105.285403 297.363942 
L 105.285403 296.837256 
L 110.274038 296.837256 
L 110.274038 296.31057 
L 110.443353 296.31057 
L 110.443353 295.783884 
L 113.804498 295.783884 
L 113.804498 295.257197 
L 114.418861 295.257197 
L 114.418861 294.730511 
L 115.773423 294.730511 
L 115.773423 294.203825 
L 116.202531 294.203825 
L 116.202531 293.677139 
L 116.972471 293.677139 
L 116.972471 293.150453 
L 117.087964 293.150453 
L 117.087964 292.623767 
L 117.429921 292.623767 
L 117.429921 291.570395 
L 117.598418 291.570395 
L 117.598418 291.043709 
L 118.039942 291.043709 
L 118.039942 290.517023 
L 119.65247 290.517023 
L 119.65247 289.463651 
L 122.104932 289.463651 
L 122.104932 288.936964 
L 123.233135 288.936964 
L 123.233135 288.410278 
L 124.024168 288.410278 
L 124.024168 287.883592 
L 125.327602 287.883592 
L 125.327602 287.356906 
L 125.857712 287.356906 
L 125.927192 285.776848 
L 127.799239 285.776848 
L 127.799239 285.250162 
L 129.147151 285.250162 
L 129.175952 284.19679 
L 130.45189 284.19679 
L 130.531948 282.616732 
L 131.210808 282.616732 
L 131.210808 282.090045 
L 131.765283 282.090045 
L 131.765283 281.563359 
L 133.009765 281.563359 
L 133.009765 280.509987 
L 134.106373 280.509987 
L 134.106373 279.456615 
L 134.300504 279.456615 
L 134.300504 278.929929 
L 135.097149 278.929929 
L 135.097149 278.403243 
L 137.053015 278.403243 
L 137.126135 276.823185 
L 138.187677 276.823185 
L 138.187677 276.296499 
L 138.341479 276.296499 
L 138.341479 275.769812 
L 138.794909 275.769812 
L 138.794909 275.243126 
L 138.910565 275.243126 
L 138.927025 274.189754 
L 139.620495 274.189754 
L 139.620495 272.609696 
L 139.840453 272.609696 
L 139.840453 272.08301 
L 140.378508 272.08301 
L 140.378508 271.556324 
L 141.002999 271.556324 
L 141.002999 271.029638 
L 141.816266 271.029638 
L 141.871938 269.449579 
L 142.092866 269.449579 
L 142.092866 268.922893 
L 143.375453 268.922893 
L 143.375453 268.396207 
L 143.791143 268.396207 
L 143.87806 266.816149 
L 144.402681 266.816149 
L 144.402681 266.289463 
L 144.841802 266.289463 
L 144.841802 265.762777 
L 145.02832 265.762777 
L 145.02832 264.709405 
L 145.350002 264.709405 
L 145.350002 264.182719 
L 145.777292 264.182719 
L 145.777292 263.656033 
L 147.02042 263.656033 
L 147.02042 263.129347 
L 147.215849 263.129347 
L 147.307662 262.075974 
L 148.17112 262.075974 
L 148.17112 261.549288 
L 149.131841 261.549288 
L 149.131841 261.022602 
L 149.575199 261.022602 
L 149.575199 260.495916 
L 149.946449 260.495916 
L 150.007563 259.442544 
L 150.155097 259.442544 
L 150.155097 258.915858 
L 150.531253 258.915858 
L 150.531253 258.389172 
L 151.276281 258.389172 
L 151.292481 257.3358 
L 151.421542 257.3358 
L 151.421542 256.809114 
L 152.060646 256.809114 
L 152.060646 256.282427 
L 152.443774 256.282427 
L 152.443774 255.755741 
L 152.729424 255.755741 
L 152.729424 255.229055 
L 153.545105 255.229055 
L 153.573542 253.648997 
L 153.932113 253.648997 
L 153.932113 252.068939 
L 154.24249 252.068939 
L 154.344733 251.015567 
L 154.419333 251.015567 
L 154.419333 250.488881 
L 155.476185 250.488881 
L 155.476185 249.962195 
L 155.996986 249.962195 
L 156.040206 248.908822 
L 156.345845 248.908822 
L 156.345845 248.382136 
L 156.574599 248.382136 
L 156.628341 246.802078 
L 156.782672 246.802078 
L 156.782672 246.275392 
L 157.168409 246.275392 
L 157.168409 245.748706 
L 157.380981 245.748706 
L 157.380981 245.22202 
L 157.647321 245.22202 
L 157.647321 244.695334 
L 158.476481 244.695334 
L 158.476481 244.168648 
L 158.641936 244.168648 
L 158.641936 243.641962 
L 159.537516 243.641962 
L 159.537516 243.115275 
L 159.797958 243.115275 
L 159.797958 242.588589 
L 160.254266 242.588589 
L 160.254266 242.061903 
L 160.750792 242.061903 
L 160.854038 240.481845 
L 160.989209 240.481845 
L 161.040208 238.901787 
L 161.911563 238.901787 
L 161.911563 238.375101 
L 162.07375 238.375101 
L 162.07375 237.848415 
L 162.286241 237.848415 
L 162.286241 237.321729 
L 162.521708 237.321729 
L 162.619242 236.268356 
L 162.733045 236.268356 
L 162.733045 235.74167 
L 163.270826 235.74167 
L 163.270826 235.214984 
L 163.693398 235.214984 
L 163.693398 234.688298 
L 163.89894 234.688298 
L 163.953867 233.634926 
L 164.144761 233.634926 
L 164.15638 232.581554 
L 164.337419 232.581554 
L 164.337419 231.528182 
L 164.531763 231.528182 
L 164.535552 230.47481 
L 164.727712 230.47481 
L 164.727712 229.948123 
L 165.302685 229.948123 
L 165.35337 228.894751 
L 165.526038 228.894751 
L 165.526038 228.368065 
L 165.848767 228.368065 
L 165.85228 227.314693 
L 175.749548 227.314693 
L 175.749548 226.788007 
L 176.22306 226.788007 
L 176.22306 226.261321 
L 176.96123 226.261321 
L 176.96123 225.207949 
L 177.179109 225.207949 
L 177.179109 224.681263 
L 177.452201 224.681263 
L 177.452201 224.154577 
L 177.756621 224.154577 
L 177.841622 223.101204 
L 178.001641 223.101204 
L 178.003391 222.047832 
L 184.408436 222.047832 
L 184.408436 221.521146 
L 184.730328 221.521146 
L 184.730328 220.99446 
L 184.931475 220.99446 
L 184.987852 219.941088 
L 185.095401 219.941088 
L 185.095401 219.414402 
L 189.979884 219.414402 
L 189.979884 218.887716 
L 190.121982 218.887716 
L 190.121982 218.36103 
L 196.932781 218.36103 
L 196.932781 217.834344 
L 199.663147 217.834344 
L 199.663147 217.307658 
L 204.077145 217.307658 
L 204.077145 216.780971 
L 207.636923 216.780971 
L 207.636923 216.254285 
L 209.302816 216.254285 
L 209.302816 215.727599 
L 213.196373 215.727599 
L 213.196373 215.200913 
L 214.322402 215.200913 
L 214.322402 214.674227 
L 338.688 214.674227 
L 338.688 214.674227 
" style="fill:none;stroke:#00bfbf;stroke-linecap:square;stroke-width:1.5;"/>
   </g>
   <g id="line2d_66">
    <defs>
     <path d="M 0 -6 
L -5.706339 -1.854102 
L -3.526712 4.854102 
L 3.526712 4.854102 
L 5.706339 -1.854102 
z
" id="m318e66f1a9" style="stroke:#00bfbf;stroke-linejoin:miter;stroke-width:1.5;"/>
    </defs>
    <g>
     <use style="fill-opacity:0;stroke:#00bfbf;stroke-linejoin:miter;stroke-width:1.5;" x="185.095401" xlink:href="#m318e66f1a9" y="219.414402"/>
     <use style="fill-opacity:0;stroke:#00bfbf;stroke-linejoin:miter;stroke-width:1.5;" x="214.322402" xlink:href="#m318e66f1a9" y="215.200913"/>
     <use style="fill-opacity:0;stroke:#00bfbf;stroke-linejoin:miter;stroke-width:1.5;" x="214.322402" xlink:href="#m318e66f1a9" y="214.674227"/>
     <use style="fill-opacity:0;stroke:#00bfbf;stroke-linejoin:miter;stroke-width:1.5;" x="214.322402" xlink:href="#m318e66f1a9" y="214.674227"/>
     <use style="fill-opacity:0;stroke:#00bfbf;stroke-linejoin:miter;stroke-width:1.5;" x="338.688" xlink:href="#m318e66f1a9" y="214.674227"/>
    </g>
   </g>
   <g id="line2d_67">
    <path style="fill:none;stroke:#00bfbf;stroke-linecap:square;stroke-width:1.5;"/>
    <g/>
   </g>
   <g id="line2d_68">
    <path clip-path="url(#p815019553e)" d="M 165.978297 227.314693 
" style="fill:none;stroke:#00bfbf;stroke-linecap:square;stroke-width:1.5;"/>
    <defs>
     <path d="M -12 12 
L 12 -12 
M -12 -12 
L 12 12 
" id="mf5ad517ff7" style="stroke:#00bfbf;"/>
    </defs>
    <g clip-path="url(#p815019553e)">
     <use style="fill:#00bfbf;stroke:#00bfbf;" x="165.978297" xlink:href="#mf5ad517ff7" y="227.314693"/>
    </g>
   </g>
   <g id="line2d_69">
    <path d="M 338.688 251.542253 
L 369.60768 293.571802 
" style="fill:none;stroke:#000080;stroke-linecap:square;stroke-width:1.5;"/>
    <g>
     <use style="fill-opacity:0;stroke:#000080;stroke-width:1.5;" x="338.688" xlink:href="#m017af9ac03" y="251.542253"/>
     <use style="fill-opacity:0;stroke:#000080;stroke-width:1.5;" x="369.60768" xlink:href="#m017af9ac03" y="293.571802"/>
    </g>
   </g>
   <g id="line2d_70">
    <path d="M 338.688 251.542253 
L 369.60768 256.733873 
" style="fill:none;stroke:#ff0000;stroke-linecap:square;stroke-width:1.5;"/>
    <g>
     <use style="fill-opacity:0;stroke:#ff0000;stroke-linejoin:miter;stroke-width:1.5;" x="338.688" xlink:href="#me9521e49d3" y="251.542253"/>
     <use style="fill-opacity:0;stroke:#ff0000;stroke-linejoin:miter;stroke-width:1.5;" x="369.60768" xlink:href="#me9521e49d3" y="256.733873"/>
    </g>
   </g>
   <g id="line2d_71">
    <path d="M 338.688 241.008531 
L 369.60768 219.895943 
" style="fill:none;stroke:#6495ed;stroke-linecap:square;stroke-width:1.5;"/>
    <g>
     <use style="fill-opacity:0;stroke:#6495ed;stroke-linejoin:miter;stroke-width:1.5;" x="338.688" xlink:href="#m1559b3de44" y="241.008531"/>
     <use style="fill-opacity:0;stroke:#6495ed;stroke-linejoin:miter;stroke-width:1.5;" x="369.60768" xlink:href="#m1559b3de44" y="219.895943"/>
    </g>
   </g>
   <g id="line2d_72">
    <path d="M 338.688 235.74167 
L 369.60768 183.058014 
" style="fill:none;stroke:#ff7500;stroke-linecap:square;stroke-width:1.5;"/>
    <g>
     <use style="fill-opacity:0;stroke:#ff7500;stroke-linejoin:bevel;stroke-width:1.5;" x="338.688" xlink:href="#m1dbb39aad3" y="235.74167"/>
     <use style="fill-opacity:0;stroke:#ff7500;stroke-linejoin:bevel;stroke-width:1.5;" x="369.60768" xlink:href="#m1dbb39aad3" y="183.058014"/>
    </g>
   </g>
   <g id="line2d_73">
    <path d="M 338.688 219.941088 
L 369.60768 146.220085 
" style="fill:none;stroke:#ff00ff;stroke-linecap:square;stroke-width:1.5;"/>
    <g>
     <use style="fill-opacity:0;stroke:#ff00ff;stroke-linejoin:miter;stroke-width:1.5;" x="338.688" xlink:href="#m6fda0e3316" y="219.941088"/>
     <use style="fill-opacity:0;stroke:#ff00ff;stroke-linejoin:miter;stroke-width:1.5;" x="369.60768" xlink:href="#m6fda0e3316" y="146.220085"/>
    </g>
   </g>
   <g id="line2d_74">
    <path d="M 338.688 214.674227 
L 369.60768 109.382156 
" style="fill:none;stroke:#00bfbf;stroke-linecap:square;stroke-width:1.5;"/>
    <g>
     <use style="fill-opacity:0;stroke:#00bfbf;stroke-linejoin:miter;stroke-width:1.5;" x="338.688" xlink:href="#m318e66f1a9" y="214.674227"/>
     <use style="fill-opacity:0;stroke:#00bfbf;stroke-linejoin:miter;stroke-width:1.5;" x="369.60768" xlink:href="#m318e66f1a9" y="109.382156"/>
    </g>
   </g>
   <g id="line2d_75">
    <path d="M 338.688 61.935264 
L 369.60768 72.544226 
" style="fill:none;stroke:#9acd32;stroke-linecap:square;stroke-width:1.5;"/>
    <g>
     <use style="fill-opacity:0;stroke:#9acd32;stroke-linejoin:miter;stroke-width:1.5;" x="338.688" xlink:href="#m5f5ecfc43c" y="61.935264"/>
     <use style="fill-opacity:0;stroke:#9acd32;stroke-linejoin:miter;stroke-width:1.5;" x="369.60768" xlink:href="#m5f5ecfc43c" y="72.544226"/>
    </g>
   </g>
   <g id="line2d_76">
    <path d="M 338.688 298.944 
L 338.688 30.334099 
" style="fill:none;stroke:#000000;stroke-linecap:square;stroke-width:1.5;"/>
   </g>
   <g id="patch_3">
    <path d="M 57.6 298.944 
L 57.6 27.648 
" style="fill:none;stroke:#000000;stroke-linecap:square;stroke-linejoin:miter;stroke-width:0.8;"/>
   </g>
   <g id="patch_4">
    <path d="M 338.688 298.944 
L 338.688 27.648 
" style="fill:none;stroke:#000000;stroke-linecap:square;stroke-linejoin:miter;stroke-width:0.8;"/>
   </g>
   <g id="patch_5">
    <path d="M 57.6 298.944 
L 338.688 298.944 
" style="fill:none;stroke:#000000;stroke-linecap:square;stroke-linejoin:miter;stroke-width:0.8;"/>
   </g>
   <g id="patch_6">
    <path d="M 57.6 27.648 
L 338.688 27.648 
" style="fill:none;stroke:#000000;stroke-linecap:square;stroke-linejoin:miter;stroke-width:0.8;"/>
   </g>
   <g id="text_13">
    <!-- Bin GA -->
    <g transform="translate(375.22944 298.262739)scale(0.17 -0.17)">
     <defs>
      <path d="M 1259 2228 
L 1259 519 
L 2272 519 
Q 2781 519 3026 730 
Q 3272 941 3272 1375 
Q 3272 1813 3026 2020 
Q 2781 2228 2272 2228 
L 1259 2228 
z
M 1259 4147 
L 1259 2741 
L 2194 2741 
Q 2656 2741 2882 2914 
Q 3109 3088 3109 3444 
Q 3109 3797 2882 3972 
Q 2656 4147 2194 4147 
L 1259 4147 
z
M 628 4666 
L 2241 4666 
Q 2963 4666 3353 4366 
Q 3744 4066 3744 3513 
Q 3744 3084 3544 2831 
Q 3344 2578 2956 2516 
Q 3422 2416 3680 2098 
Q 3938 1781 3938 1306 
Q 3938 681 3513 340 
Q 3088 0 2303 0 
L 628 0 
L 628 4666 
z
" id="DejaVuSans-42" transform="scale(0.015625)"/>
      <path d="M 3809 666 
L 3809 1919 
L 2778 1919 
L 2778 2438 
L 4434 2438 
L 4434 434 
Q 4069 175 3628 42 
Q 3188 -91 2688 -91 
Q 1594 -91 976 548 
Q 359 1188 359 2328 
Q 359 3472 976 4111 
Q 1594 4750 2688 4750 
Q 3144 4750 3555 4637 
Q 3966 4525 4313 4306 
L 4313 3634 
Q 3963 3931 3569 4081 
Q 3175 4231 2741 4231 
Q 1884 4231 1454 3753 
Q 1025 3275 1025 2328 
Q 1025 1384 1454 906 
Q 1884 428 2741 428 
Q 3075 428 3337 486 
Q 3600 544 3809 666 
z
" id="DejaVuSans-47" transform="scale(0.015625)"/>
      <path d="M 2188 4044 
L 1331 1722 
L 3047 1722 
L 2188 4044 
z
M 1831 4666 
L 2547 4666 
L 4325 0 
L 3669 0 
L 3244 1197 
L 1141 1197 
L 716 0 
L 50 0 
L 1831 4666 
z
" id="DejaVuSans-41" transform="scale(0.015625)"/>
     </defs>
     <use xlink:href="#DejaVuSans-42"/>
     <use x="68.603516" xlink:href="#DejaVuSans-69"/>
     <use x="96.386719" xlink:href="#DejaVuSans-6e"/>
     <use x="159.765625" xlink:href="#DejaVuSans-20"/>
     <use x="191.552734" xlink:href="#DejaVuSans-47"/>
     <use x="269.042969" xlink:href="#DejaVuSans-41"/>
    </g>
   </g>
   <g id="text_14">
    <!-- DE -->
    <g transform="translate(375.22944 261.42481)scale(0.17 -0.17)">
     <defs>
      <path d="M 1259 4147 
L 1259 519 
L 2022 519 
Q 2988 519 3436 956 
Q 3884 1394 3884 2338 
Q 3884 3275 3436 3711 
Q 2988 4147 2022 4147 
L 1259 4147 
z
M 628 4666 
L 1925 4666 
Q 3281 4666 3915 4102 
Q 4550 3538 4550 2338 
Q 4550 1131 3912 565 
Q 3275 0 1925 0 
L 628 0 
L 628 4666 
z
" id="DejaVuSans-44" transform="scale(0.015625)"/>
      <path d="M 628 4666 
L 3578 4666 
L 3578 4134 
L 1259 4134 
L 1259 2753 
L 3481 2753 
L 3481 2222 
L 1259 2222 
L 1259 531 
L 3634 531 
L 3634 0 
L 628 0 
L 628 4666 
z
" id="DejaVuSans-45" transform="scale(0.015625)"/>
     </defs>
     <use xlink:href="#DejaVuSans-44"/>
     <use x="77.001953" xlink:href="#DejaVuSans-45"/>
    </g>
   </g>
   <g id="text_15">
    <!-- PSO EDA -->
    <g transform="translate(375.22944 224.586881)scale(0.17 -0.17)">
     <defs>
      <path d="M 1259 4147 
L 1259 2394 
L 2053 2394 
Q 2494 2394 2734 2622 
Q 2975 2850 2975 3272 
Q 2975 3691 2734 3919 
Q 2494 4147 2053 4147 
L 1259 4147 
z
M 628 4666 
L 2053 4666 
Q 2838 4666 3239 4311 
Q 3641 3956 3641 3272 
Q 3641 2581 3239 2228 
Q 2838 1875 2053 1875 
L 1259 1875 
L 1259 0 
L 628 0 
L 628 4666 
z
" id="DejaVuSans-50" transform="scale(0.015625)"/>
      <path d="M 3425 4513 
L 3425 3897 
Q 3066 4069 2747 4153 
Q 2428 4238 2131 4238 
Q 1616 4238 1336 4038 
Q 1056 3838 1056 3469 
Q 1056 3159 1242 3001 
Q 1428 2844 1947 2747 
L 2328 2669 
Q 3034 2534 3370 2195 
Q 3706 1856 3706 1288 
Q 3706 609 3251 259 
Q 2797 -91 1919 -91 
Q 1588 -91 1214 -16 
Q 841 59 441 206 
L 441 856 
Q 825 641 1194 531 
Q 1563 422 1919 422 
Q 2459 422 2753 634 
Q 3047 847 3047 1241 
Q 3047 1584 2836 1778 
Q 2625 1972 2144 2069 
L 1759 2144 
Q 1053 2284 737 2584 
Q 422 2884 422 3419 
Q 422 4038 858 4394 
Q 1294 4750 2059 4750 
Q 2388 4750 2728 4690 
Q 3069 4631 3425 4513 
z
" id="DejaVuSans-53" transform="scale(0.015625)"/>
      <path d="M 2522 4238 
Q 1834 4238 1429 3725 
Q 1025 3213 1025 2328 
Q 1025 1447 1429 934 
Q 1834 422 2522 422 
Q 3209 422 3611 934 
Q 4013 1447 4013 2328 
Q 4013 3213 3611 3725 
Q 3209 4238 2522 4238 
z
M 2522 4750 
Q 3503 4750 4090 4092 
Q 4678 3434 4678 2328 
Q 4678 1225 4090 567 
Q 3503 -91 2522 -91 
Q 1538 -91 948 565 
Q 359 1222 359 2328 
Q 359 3434 948 4092 
Q 1538 4750 2522 4750 
z
" id="DejaVuSans-4f" transform="scale(0.015625)"/>
     </defs>
     <use xlink:href="#DejaVuSans-50"/>
     <use x="60.302734" xlink:href="#DejaVuSans-53"/>
     <use x="123.779297" xlink:href="#DejaVuSans-4f"/>
     <use x="202.490234" xlink:href="#DejaVuSans-20"/>
     <use x="234.277344" xlink:href="#DejaVuSans-45"/>
     <use x="297.460938" xlink:href="#DejaVuSans-44"/>
     <use x="372.712891" xlink:href="#DejaVuSans-41"/>
    </g>
   </g>
   <g id="text_16">
    <!-- PSO Bound -->
    <g transform="translate(375.22944 187.748952)scale(0.17 -0.17)">
     <use xlink:href="#DejaVuSans-50"/>
     <use x="60.302734" xlink:href="#DejaVuSans-53"/>
     <use x="123.779297" xlink:href="#DejaVuSans-4f"/>
     <use x="202.490234" xlink:href="#DejaVuSans-20"/>
     <use x="234.277344" xlink:href="#DejaVuSans-42"/>
     <use x="302.880859" xlink:href="#DejaVuSans-6f"/>
     <use x="364.0625" xlink:href="#DejaVuSans-75"/>
     <use x="427.441406" xlink:href="#DejaVuSans-6e"/>
     <use x="490.820312" xlink:href="#DejaVuSans-64"/>
    </g>
   </g>
   <g id="text_17">
    <!-- PSO -->
    <g transform="translate(375.22944 150.911022)scale(0.17 -0.17)">
     <use xlink:href="#DejaVuSans-50"/>
     <use x="60.302734" xlink:href="#DejaVuSans-53"/>
     <use x="123.779297" xlink:href="#DejaVuSans-4f"/>
    </g>
   </g>
   <g id="text_18">
    <!-- JADE -->
    <g transform="translate(375.22944 114.073093)scale(0.17 -0.17)">
     <defs>
      <path d="M 628 4666 
L 1259 4666 
L 1259 325 
Q 1259 -519 939 -900 
Q 619 -1281 -91 -1281 
L -331 -1281 
L -331 -750 
L -134 -750 
Q 284 -750 456 -515 
Q 628 -281 628 325 
L 628 4666 
z
" id="DejaVuSans-4a" transform="scale(0.015625)"/>
     </defs>
     <use xlink:href="#DejaVuSans-4a"/>
     <use x="27.742188" xlink:href="#DejaVuSans-41"/>
     <use x="96.150391" xlink:href="#DejaVuSans-44"/>
     <use x="173.152344" xlink:href="#DejaVuSans-45"/>
    </g>
   </g>
   <g id="text_19">
    <!-- DEAE -->
    <g transform="translate(375.22944 77.235164)scale(0.17 -0.17)">
     <use xlink:href="#DejaVuSans-44"/>
     <use x="77.001953" xlink:href="#DejaVuSans-45"/>
     <use x="140.185547" xlink:href="#DejaVuSans-41"/>
     <use x="208.59375" xlink:href="#DejaVuSans-45"/>
    </g>
   </g>
   <g id="text_20">
    <!-- best 2009 -->
    <g transform="translate(375.22944 40.397235)scale(0.17 -0.17)">
     <defs>
      <path d="M 3116 1747 
Q 3116 2381 2855 2742 
Q 2594 3103 2138 3103 
Q 1681 3103 1420 2742 
Q 1159 2381 1159 1747 
Q 1159 1113 1420 752 
Q 1681 391 2138 391 
Q 2594 391 2855 752 
Q 3116 1113 3116 1747 
z
M 1159 2969 
Q 1341 3281 1617 3432 
Q 1894 3584 2278 3584 
Q 2916 3584 3314 3078 
Q 3713 2572 3713 1747 
Q 3713 922 3314 415 
Q 2916 -91 2278 -91 
Q 1894 -91 1617 61 
Q 1341 213 1159 525 
L 1159 0 
L 581 0 
L 581 4863 
L 1159 4863 
L 1159 2969 
z
" id="DejaVuSans-62" transform="scale(0.015625)"/>
      <path d="M 703 97 
L 703 672 
Q 941 559 1184 500 
Q 1428 441 1663 441 
Q 2288 441 2617 861 
Q 2947 1281 2994 2138 
Q 2813 1869 2534 1725 
Q 2256 1581 1919 1581 
Q 1219 1581 811 2004 
Q 403 2428 403 3163 
Q 403 3881 828 4315 
Q 1253 4750 1959 4750 
Q 2769 4750 3195 4129 
Q 3622 3509 3622 2328 
Q 3622 1225 3098 567 
Q 2575 -91 1691 -91 
Q 1453 -91 1209 -44 
Q 966 3 703 97 
z
M 1959 2075 
Q 2384 2075 2632 2365 
Q 2881 2656 2881 3163 
Q 2881 3666 2632 3958 
Q 2384 4250 1959 4250 
Q 1534 4250 1286 3958 
Q 1038 3666 1038 3163 
Q 1038 2656 1286 2365 
Q 1534 2075 1959 2075 
z
" id="DejaVuSans-39" transform="scale(0.015625)"/>
     </defs>
     <use xlink:href="#DejaVuSans-62"/>
     <use x="63.476562" xlink:href="#DejaVuSans-65"/>
     <use x="125" xlink:href="#DejaVuSans-73"/>
     <use x="177.099609" xlink:href="#DejaVuSans-74"/>
     <use x="216.308594" xlink:href="#DejaVuSans-20"/>
     <use x="248.095703" xlink:href="#DejaVuSans-32"/>
     <use x="311.71875" xlink:href="#DejaVuSans-30"/>
     <use x="375.341797" xlink:href="#DejaVuSans-30"/>
     <use x="438.964844" xlink:href="#DejaVuSans-39"/>
    </g>
   </g>
   <g id="text_21">
    <!-- bbob f7, 10-D -->
    <g transform="translate(60.41088 38.111366)scale(0.102 -0.102)">
     <defs>
      <path d="M 525 4666 
L 3525 4666 
L 3525 4397 
L 1831 0 
L 1172 0 
L 2766 4134 
L 525 4134 
L 525 4666 
z
" id="DejaVuSans-37" transform="scale(0.015625)"/>
     </defs>
     <use xlink:href="#DejaVuSans-62"/>
     <use x="63.476562" xlink:href="#DejaVuSans-62"/>
     <use x="126.953125" xlink:href="#DejaVuSans-6f"/>
     <use x="188.134766" xlink:href="#DejaVuSans-62"/>
     <use x="251.611328" xlink:href="#DejaVuSans-20"/>
     <use x="283.398438" xlink:href="#DejaVuSans-66"/>
     <use x="318.603516" xlink:href="#DejaVuSans-37"/>
     <use x="382.226562" xlink:href="#DejaVuSans-2c"/>
     <use x="414.013672" xlink:href="#DejaVuSans-20"/>
     <use x="445.800781" xlink:href="#DejaVuSans-31"/>
     <use x="509.423828" xlink:href="#DejaVuSans-30"/>
     <use x="573.046875" xlink:href="#DejaVuSans-2d"/>
     <use x="609.130859" xlink:href="#DejaVuSans-44"/>
    </g>
    <!-- 51 targets: 100..1e-08 -->
    <g transform="translate(60.41088 49.533135)scale(0.102 -0.102)">
     <defs>
      <path d="M 691 4666 
L 3169 4666 
L 3169 4134 
L 1269 4134 
L 1269 2991 
Q 1406 3038 1543 3061 
Q 1681 3084 1819 3084 
Q 2600 3084 3056 2656 
Q 3513 2228 3513 1497 
Q 3513 744 3044 326 
Q 2575 -91 1722 -91 
Q 1428 -91 1123 -41 
Q 819 9 494 109 
L 494 744 
Q 775 591 1075 516 
Q 1375 441 1709 441 
Q 2250 441 2565 725 
Q 2881 1009 2881 1497 
Q 2881 1984 2565 2268 
Q 2250 2553 1709 2553 
Q 1456 2553 1204 2497 
Q 953 2441 691 2322 
L 691 4666 
z
" id="DejaVuSans-35" transform="scale(0.015625)"/>
      <path d="M 750 794 
L 1409 794 
L 1409 0 
L 750 0 
L 750 794 
z
M 750 3309 
L 1409 3309 
L 1409 2516 
L 750 2516 
L 750 3309 
z
" id="DejaVuSans-3a" transform="scale(0.015625)"/>
     </defs>
     <use xlink:href="#DejaVuSans-35"/>
     <use x="63.623047" xlink:href="#DejaVuSans-31"/>
     <use x="127.246094" xlink:href="#DejaVuSans-20"/>
     <use x="159.033203" xlink:href="#DejaVuSans-74"/>
     <use x="198.242188" xlink:href="#DejaVuSans-61"/>
     <use x="259.521484" xlink:href="#DejaVuSans-72"/>
     <use x="298.884766" xlink:href="#DejaVuSans-67"/>
     <use x="362.361328" xlink:href="#DejaVuSans-65"/>
     <use x="423.884766" xlink:href="#DejaVuSans-74"/>
     <use x="463.09375" xlink:href="#DejaVuSans-73"/>
     <use x="515.193359" xlink:href="#DejaVuSans-3a"/>
     <use x="548.884766" xlink:href="#DejaVuSans-20"/>
     <use x="580.671875" xlink:href="#DejaVuSans-31"/>
     <use x="644.294922" xlink:href="#DejaVuSans-30"/>
     <use x="707.917969" xlink:href="#DejaVuSans-30"/>
     <use x="771.541016" xlink:href="#DejaVuSans-2e"/>
     <use x="803.328125" xlink:href="#DejaVuSans-2e"/>
     <use x="835.115234" xlink:href="#DejaVuSans-31"/>
     <use x="898.738281" xlink:href="#DejaVuSans-65"/>
     <use x="960.261719" xlink:href="#DejaVuSans-2d"/>
     <use x="996.345703" xlink:href="#DejaVuSans-30"/>
     <use x="1059.96875" xlink:href="#DejaVuSans-38"/>
    </g>
    <!-- 15 instances -->
    <g transform="translate(60.41088 60.954904)scale(0.102 -0.102)">
     <use xlink:href="#DejaVuSans-31"/>
     <use x="63.623047" xlink:href="#DejaVuSans-35"/>
     <use x="127.246094" xlink:href="#DejaVuSans-20"/>
     <use x="159.033203" xlink:href="#DejaVuSans-69"/>
     <use x="186.816406" xlink:href="#DejaVuSans-6e"/>
     <use x="250.195312" xlink:href="#DejaVuSans-73"/>
     <use x="302.294922" xlink:href="#DejaVuSans-74"/>
     <use x="341.503906" xlink:href="#DejaVuSans-61"/>
     <use x="402.783203" xlink:href="#DejaVuSans-6e"/>
     <use x="466.162109" xlink:href="#DejaVuSans-63"/>
     <use x="521.142578" xlink:href="#DejaVuSans-65"/>
     <use x="582.666016" xlink:href="#DejaVuSans-73"/>
    </g>
   </g>
   <g id="text_22">
    <!-- v2.4 -->
    <g style="fill:#808080;" transform="translate(187.233062 294.151352)scale(0.1 -0.1)">
     <use xlink:href="#DejaVuSans-76"/>
     <use x="59.179688" xlink:href="#DejaVuSans-32"/>
     <use x="122.802734" xlink:href="#DejaVuSans-2e"/>
     <use x="154.589844" xlink:href="#DejaVuSans-34"/>
    </g>
   </g>
   <g id="text_23">
    <!-- 7 Step-ellipsoid -->
    <g transform="translate(120.934625 21.648)scale(0.2 -0.2)">
     <use xlink:href="#DejaVuSans-37"/>
     <use x="63.623047" xlink:href="#DejaVuSans-20"/>
     <use x="95.410156" xlink:href="#DejaVuSans-53"/>
     <use x="158.886719" xlink:href="#DejaVuSans-74"/>
     <use x="198.095703" xlink:href="#DejaVuSans-65"/>
     <use x="259.619141" xlink:href="#DejaVuSans-70"/>
     <use x="323.095703" xlink:href="#DejaVuSans-2d"/>
     <use x="359.179688" xlink:href="#DejaVuSans-65"/>
     <use x="420.703125" xlink:href="#DejaVuSans-6c"/>
     <use x="448.486328" xlink:href="#DejaVuSans-6c"/>
     <use x="476.269531" xlink:href="#DejaVuSans-69"/>
     <use x="504.052734" xlink:href="#DejaVuSans-70"/>
     <use x="567.529297" xlink:href="#DejaVuSans-73"/>
     <use x="619.628906" xlink:href="#DejaVuSans-6f"/>
     <use x="680.810547" xlink:href="#DejaVuSans-69"/>
     <use x="708.59375" xlink:href="#DejaVuSans-64"/>
    </g>
   </g>
  </g>
 </g>
 <defs>
  <clipPath id="p815019553e">
   <rect height="271.296" width="281.088" x="57.6" y="27.648"/>
  </clipPath>
 </defs>
</svg>
