<?xml version="1.0" encoding="utf-8" standalone="no"?>
<!DOCTYPE svg PUBLIC "-//W3C//DTD SVG 1.1//EN"
  "http://www.w3.org/Graphics/SVG/1.1/DTD/svg11.dtd">
<svg height="345.6pt" version="1.1" viewBox="0 0 460.8 345.6" width="460.8pt" xmlns="http://www.w3.org/2000/svg" xmlns:xlink="http://www.w3.org/1999/xlink">
 <metadata>
  <rdf:RDF xmlns:cc="http://creativecommons.org/ns#" xmlns:dc="http://purl.org/dc/elements/1.1/" xmlns:rdf="http://www.w3.org/1999/02/22-rdf-syntax-ns#">
   <cc:Work>
    <dc:type rdf:resource="http://purl.org/dc/dcmitype/StillImage"/>
    <dc:date>2021-04-26T18:35:59.943943</dc:date>
    <dc:format>image/svg+xml</dc:format>
    <dc:creator>
     <cc:Agent>
      <dc:title>Matplotlib v3.4.1, https://matplotlib.org/</dc:title>
     </cc:Agent>
    </dc:creator>
   </cc:Work>
  </rdf:RDF>
 </metadata>
 <defs>
  <style type="text/css">*{stroke-linecap:butt;stroke-linejoin:round;}</style>
 </defs>
 <g id="figure_1">
  <g id="patch_1">
   <path d="M 0 345.6 
L 460.8 345.6 
L 460.8 0 
L 0 0 
z
" style="fill:#ffffff;"/>
  </g>
  <g id="axes_1">
   <g id="patch_2">
    <path d="M 57.6 298.944 
L 338.688 298.944 
L 338.688 3.456 
L 57.6 3.456 
z
" style="fill:#ffffff;"/>
   </g>
   <g id="matplotlib.axis_1">
    <g id="xtick_1">
     <g id="line2d_1">
      <path clip-path="url(#pc4c9bffd30)" d="M 57.6 298.944 
L 57.6 3.456 
" style="fill:none;stroke:#b0b0b0;stroke-linecap:square;stroke-width:0.8;"/>
     </g>
     <g id="line2d_2">
      <defs>
       <path d="M 0 0 
L 0 3.5 
" id="m21b9e4ee6a" style="stroke:#000000;stroke-width:0.8;"/>
      </defs>
      <g>
       <use style="stroke:#000000;stroke-width:0.8;" x="57.6" xlink:href="#m21b9e4ee6a" y="298.944"/>
      </g>
     </g>
     <g id="text_1">
      <!-- 0 -->
      <g transform="translate(51.2375 321.140875)scale(0.2 -0.2)">
       <defs>
        <path d="M 2034 4250 
Q 1547 4250 1301 3770 
Q 1056 3291 1056 2328 
Q 1056 1369 1301 889 
Q 1547 409 2034 409 
Q 2525 409 2770 889 
Q 3016 1369 3016 2328 
Q 3016 3291 2770 3770 
Q 2525 4250 2034 4250 
z
M 2034 4750 
Q 2819 4750 3233 4129 
Q 3647 3509 3647 2328 
Q 3647 1150 3233 529 
Q 2819 -91 2034 -91 
Q 1250 -91 836 529 
Q 422 1150 422 2328 
Q 422 3509 836 4129 
Q 1250 4750 2034 4750 
z
" id="DejaVuSans-30" transform="scale(0.015625)"/>
       </defs>
       <use xlink:href="#DejaVuSans-30"/>
      </g>
     </g>
    </g>
    <g id="xtick_2">
     <g id="line2d_3">
      <path clip-path="url(#pc4c9bffd30)" d="M 137.910857 298.944 
L 137.910857 3.456 
" style="fill:none;stroke:#b0b0b0;stroke-linecap:square;stroke-width:0.8;"/>
     </g>
     <g id="line2d_4">
      <g>
       <use style="stroke:#000000;stroke-width:0.8;" x="137.910857" xlink:href="#m21b9e4ee6a" y="298.944"/>
      </g>
     </g>
     <g id="text_2">
      <!-- 2 -->
      <g transform="translate(131.548357 321.140875)scale(0.2 -0.2)">
       <defs>
        <path d="M 1228 531 
L 3431 531 
L 3431 0 
L 469 0 
L 469 531 
Q 828 903 1448 1529 
Q 2069 2156 2228 2338 
Q 2531 2678 2651 2914 
Q 2772 3150 2772 3378 
Q 2772 3750 2511 3984 
Q 2250 4219 1831 4219 
Q 1534 4219 1204 4116 
Q 875 4013 500 3803 
L 500 4441 
Q 881 4594 1212 4672 
Q 1544 4750 1819 4750 
Q 2544 4750 2975 4387 
Q 3406 4025 3406 3419 
Q 3406 3131 3298 2873 
Q 3191 2616 2906 2266 
Q 2828 2175 2409 1742 
Q 1991 1309 1228 531 
z
" id="DejaVuSans-32" transform="scale(0.015625)"/>
       </defs>
       <use xlink:href="#DejaVuSans-32"/>
      </g>
     </g>
    </g>
    <g id="xtick_3">
     <g id="line2d_5">
      <path clip-path="url(#pc4c9bffd30)" d="M 218.221714 298.944 
L 218.221714 3.456 
" style="fill:none;stroke:#b0b0b0;stroke-linecap:square;stroke-width:0.8;"/>
     </g>
     <g id="line2d_6">
      <g>
       <use style="stroke:#000000;stroke-width:0.8;" x="218.221714" xlink:href="#m21b9e4ee6a" y="298.944"/>
      </g>
     </g>
     <g id="text_3">
      <!-- 4 -->
      <g transform="translate(211.859214 321.140875)scale(0.2 -0.2)">
       <defs>
        <path d="M 2419 4116 
L 825 1625 
L 2419 1625 
L 2419 4116 
z
M 2253 4666 
L 3047 4666 
L 3047 1625 
L 3713 1625 
L 3713 1100 
L 3047 1100 
L 3047 0 
L 2419 0 
L 2419 1100 
L 313 1100 
L 313 1709 
L 2253 4666 
z
" id="DejaVuSans-34" transform="scale(0.015625)"/>
       </defs>
       <use xlink:href="#DejaVuSans-34"/>
      </g>
     </g>
    </g>
    <g id="xtick_4">
     <g id="line2d_7">
      <path clip-path="url(#pc4c9bffd30)" d="M 298.532571 298.944 
L 298.532571 3.456 
" style="fill:none;stroke:#b0b0b0;stroke-linecap:square;stroke-width:0.8;"/>
     </g>
     <g id="line2d_8">
      <g>
       <use style="stroke:#000000;stroke-width:0.8;" x="298.532571" xlink:href="#m21b9e4ee6a" y="298.944"/>
      </g>
     </g>
     <g id="text_4">
      <!-- 6 -->
      <g transform="translate(292.170071 321.140875)scale(0.2 -0.2)">
       <defs>
        <path d="M 2113 2584 
Q 1688 2584 1439 2293 
Q 1191 2003 1191 1497 
Q 1191 994 1439 701 
Q 1688 409 2113 409 
Q 2538 409 2786 701 
Q 3034 994 3034 1497 
Q 3034 2003 2786 2293 
Q 2538 2584 2113 2584 
z
M 3366 4563 
L 3366 3988 
Q 3128 4100 2886 4159 
Q 2644 4219 2406 4219 
Q 1781 4219 1451 3797 
Q 1122 3375 1075 2522 
Q 1259 2794 1537 2939 
Q 1816 3084 2150 3084 
Q 2853 3084 3261 2657 
Q 3669 2231 3669 1497 
Q 3669 778 3244 343 
Q 2819 -91 2113 -91 
Q 1303 -91 875 529 
Q 447 1150 447 2328 
Q 447 3434 972 4092 
Q 1497 4750 2381 4750 
Q 2619 4750 2861 4703 
Q 3103 4656 3366 4563 
z
" id="DejaVuSans-36" transform="scale(0.015625)"/>
       </defs>
       <use xlink:href="#DejaVuSans-36"/>
      </g>
     </g>
    </g>
    <g id="xtick_5">
     <g id="line2d_9">
      <path clip-path="url(#pc4c9bffd30)" d="M 97.755429 298.944 
L 97.755429 3.456 
" style="fill:none;stroke:#b0b0b0;stroke-linecap:square;stroke-width:0.8;"/>
     </g>
     <g id="line2d_10">
      <defs>
       <path d="M 0 0 
L 0 2 
" id="ma7f8810334" style="stroke:#000000;stroke-width:0.6;"/>
      </defs>
      <g>
       <use style="stroke:#000000;stroke-width:0.6;" x="97.755429" xlink:href="#ma7f8810334" y="298.944"/>
      </g>
     </g>
    </g>
    <g id="xtick_6">
     <g id="line2d_11">
      <path clip-path="url(#pc4c9bffd30)" d="M 178.066286 298.944 
L 178.066286 3.456 
" style="fill:none;stroke:#b0b0b0;stroke-linecap:square;stroke-width:0.8;"/>
     </g>
     <g id="line2d_12">
      <g>
       <use style="stroke:#000000;stroke-width:0.6;" x="178.066286" xlink:href="#ma7f8810334" y="298.944"/>
      </g>
     </g>
    </g>
    <g id="xtick_7">
     <g id="line2d_13">
      <path clip-path="url(#pc4c9bffd30)" d="M 258.377143 298.944 
L 258.377143 3.456 
" style="fill:none;stroke:#b0b0b0;stroke-linecap:square;stroke-width:0.8;"/>
     </g>
     <g id="line2d_14">
      <g>
       <use style="stroke:#000000;stroke-width:0.6;" x="258.377143" xlink:href="#ma7f8810334" y="298.944"/>
      </g>
     </g>
    </g>
    <g id="xtick_8">
     <g id="line2d_15">
      <path clip-path="url(#pc4c9bffd30)" d="M 338.688 298.944 
L 338.688 3.456 
" style="fill:none;stroke:#b0b0b0;stroke-linecap:square;stroke-width:0.8;"/>
     </g>
     <g id="line2d_16">
      <g>
       <use style="stroke:#000000;stroke-width:0.6;" x="338.688" xlink:href="#ma7f8810334" y="298.944"/>
      </g>
     </g>
    </g>
    <g id="text_5">
     <!-- log10(# f-evals / dimension) -->
     <g transform="translate(77.764078 342.217594)scale(0.17 -0.17)">
      <defs>
       <path d="M 603 4863 
L 1178 4863 
L 1178 0 
L 603 0 
L 603 4863 
z
" id="DejaVuSans-6c" transform="scale(0.015625)"/>
       <path d="M 1959 3097 
Q 1497 3097 1228 2736 
Q 959 2375 959 1747 
Q 959 1119 1226 758 
Q 1494 397 1959 397 
Q 2419 397 2687 759 
Q 2956 1122 2956 1747 
Q 2956 2369 2687 2733 
Q 2419 3097 1959 3097 
z
M 1959 3584 
Q 2709 3584 3137 3096 
Q 3566 2609 3566 1747 
Q 3566 888 3137 398 
Q 2709 -91 1959 -91 
Q 1206 -91 779 398 
Q 353 888 353 1747 
Q 353 2609 779 3096 
Q 1206 3584 1959 3584 
z
" id="DejaVuSans-6f" transform="scale(0.015625)"/>
       <path d="M 2906 1791 
Q 2906 2416 2648 2759 
Q 2391 3103 1925 3103 
Q 1463 3103 1205 2759 
Q 947 2416 947 1791 
Q 947 1169 1205 825 
Q 1463 481 1925 481 
Q 2391 481 2648 825 
Q 2906 1169 2906 1791 
z
M 3481 434 
Q 3481 -459 3084 -895 
Q 2688 -1331 1869 -1331 
Q 1566 -1331 1297 -1286 
Q 1028 -1241 775 -1147 
L 775 -588 
Q 1028 -725 1275 -790 
Q 1522 -856 1778 -856 
Q 2344 -856 2625 -561 
Q 2906 -266 2906 331 
L 2906 616 
Q 2728 306 2450 153 
Q 2172 0 1784 0 
Q 1141 0 747 490 
Q 353 981 353 1791 
Q 353 2603 747 3093 
Q 1141 3584 1784 3584 
Q 2172 3584 2450 3431 
Q 2728 3278 2906 2969 
L 2906 3500 
L 3481 3500 
L 3481 434 
z
" id="DejaVuSans-67" transform="scale(0.015625)"/>
       <path d="M 794 531 
L 1825 531 
L 1825 4091 
L 703 3866 
L 703 4441 
L 1819 4666 
L 2450 4666 
L 2450 531 
L 3481 531 
L 3481 0 
L 794 0 
L 794 531 
z
" id="DejaVuSans-31" transform="scale(0.015625)"/>
       <path d="M 1984 4856 
Q 1566 4138 1362 3434 
Q 1159 2731 1159 2009 
Q 1159 1288 1364 580 
Q 1569 -128 1984 -844 
L 1484 -844 
Q 1016 -109 783 600 
Q 550 1309 550 2009 
Q 550 2706 781 3412 
Q 1013 4119 1484 4856 
L 1984 4856 
z
" id="DejaVuSans-28" transform="scale(0.015625)"/>
       <path d="M 3272 2816 
L 2363 2816 
L 2100 1772 
L 3016 1772 
L 3272 2816 
z
M 2803 4594 
L 2478 3297 
L 3391 3297 
L 3719 4594 
L 4219 4594 
L 3897 3297 
L 4872 3297 
L 4872 2816 
L 3775 2816 
L 3519 1772 
L 4513 1772 
L 4513 1294 
L 3397 1294 
L 3072 0 
L 2572 0 
L 2894 1294 
L 1978 1294 
L 1656 0 
L 1153 0 
L 1478 1294 
L 494 1294 
L 494 1772 
L 1594 1772 
L 1856 2816 
L 850 2816 
L 850 3297 
L 1978 3297 
L 2297 4594 
L 2803 4594 
z
" id="DejaVuSans-23" transform="scale(0.015625)"/>
       <path id="DejaVuSans-20" transform="scale(0.015625)"/>
       <path d="M 2375 4863 
L 2375 4384 
L 1825 4384 
Q 1516 4384 1395 4259 
Q 1275 4134 1275 3809 
L 1275 3500 
L 2222 3500 
L 2222 3053 
L 1275 3053 
L 1275 0 
L 697 0 
L 697 3053 
L 147 3053 
L 147 3500 
L 697 3500 
L 697 3744 
Q 697 4328 969 4595 
Q 1241 4863 1831 4863 
L 2375 4863 
z
" id="DejaVuSans-66" transform="scale(0.015625)"/>
       <path d="M 313 2009 
L 1997 2009 
L 1997 1497 
L 313 1497 
L 313 2009 
z
" id="DejaVuSans-2d" transform="scale(0.015625)"/>
       <path d="M 3597 1894 
L 3597 1613 
L 953 1613 
Q 991 1019 1311 708 
Q 1631 397 2203 397 
Q 2534 397 2845 478 
Q 3156 559 3463 722 
L 3463 178 
Q 3153 47 2828 -22 
Q 2503 -91 2169 -91 
Q 1331 -91 842 396 
Q 353 884 353 1716 
Q 353 2575 817 3079 
Q 1281 3584 2069 3584 
Q 2775 3584 3186 3129 
Q 3597 2675 3597 1894 
z
M 3022 2063 
Q 3016 2534 2758 2815 
Q 2500 3097 2075 3097 
Q 1594 3097 1305 2825 
Q 1016 2553 972 2059 
L 3022 2063 
z
" id="DejaVuSans-65" transform="scale(0.015625)"/>
       <path d="M 191 3500 
L 800 3500 
L 1894 563 
L 2988 3500 
L 3597 3500 
L 2284 0 
L 1503 0 
L 191 3500 
z
" id="DejaVuSans-76" transform="scale(0.015625)"/>
       <path d="M 2194 1759 
Q 1497 1759 1228 1600 
Q 959 1441 959 1056 
Q 959 750 1161 570 
Q 1363 391 1709 391 
Q 2188 391 2477 730 
Q 2766 1069 2766 1631 
L 2766 1759 
L 2194 1759 
z
M 3341 1997 
L 3341 0 
L 2766 0 
L 2766 531 
Q 2569 213 2275 61 
Q 1981 -91 1556 -91 
Q 1019 -91 701 211 
Q 384 513 384 1019 
Q 384 1609 779 1909 
Q 1175 2209 1959 2209 
L 2766 2209 
L 2766 2266 
Q 2766 2663 2505 2880 
Q 2244 3097 1772 3097 
Q 1472 3097 1187 3025 
Q 903 2953 641 2809 
L 641 3341 
Q 956 3463 1253 3523 
Q 1550 3584 1831 3584 
Q 2591 3584 2966 3190 
Q 3341 2797 3341 1997 
z
" id="DejaVuSans-61" transform="scale(0.015625)"/>
       <path d="M 2834 3397 
L 2834 2853 
Q 2591 2978 2328 3040 
Q 2066 3103 1784 3103 
Q 1356 3103 1142 2972 
Q 928 2841 928 2578 
Q 928 2378 1081 2264 
Q 1234 2150 1697 2047 
L 1894 2003 
Q 2506 1872 2764 1633 
Q 3022 1394 3022 966 
Q 3022 478 2636 193 
Q 2250 -91 1575 -91 
Q 1294 -91 989 -36 
Q 684 19 347 128 
L 347 722 
Q 666 556 975 473 
Q 1284 391 1588 391 
Q 1994 391 2212 530 
Q 2431 669 2431 922 
Q 2431 1156 2273 1281 
Q 2116 1406 1581 1522 
L 1381 1569 
Q 847 1681 609 1914 
Q 372 2147 372 2553 
Q 372 3047 722 3315 
Q 1072 3584 1716 3584 
Q 2034 3584 2315 3537 
Q 2597 3491 2834 3397 
z
" id="DejaVuSans-73" transform="scale(0.015625)"/>
       <path d="M 1625 4666 
L 2156 4666 
L 531 -594 
L 0 -594 
L 1625 4666 
z
" id="DejaVuSans-2f" transform="scale(0.015625)"/>
       <path d="M 2906 2969 
L 2906 4863 
L 3481 4863 
L 3481 0 
L 2906 0 
L 2906 525 
Q 2725 213 2448 61 
Q 2172 -91 1784 -91 
Q 1150 -91 751 415 
Q 353 922 353 1747 
Q 353 2572 751 3078 
Q 1150 3584 1784 3584 
Q 2172 3584 2448 3432 
Q 2725 3281 2906 2969 
z
M 947 1747 
Q 947 1113 1208 752 
Q 1469 391 1925 391 
Q 2381 391 2643 752 
Q 2906 1113 2906 1747 
Q 2906 2381 2643 2742 
Q 2381 3103 1925 3103 
Q 1469 3103 1208 2742 
Q 947 2381 947 1747 
z
" id="DejaVuSans-64" transform="scale(0.015625)"/>
       <path d="M 603 3500 
L 1178 3500 
L 1178 0 
L 603 0 
L 603 3500 
z
M 603 4863 
L 1178 4863 
L 1178 4134 
L 603 4134 
L 603 4863 
z
" id="DejaVuSans-69" transform="scale(0.015625)"/>
       <path d="M 3328 2828 
Q 3544 3216 3844 3400 
Q 4144 3584 4550 3584 
Q 5097 3584 5394 3201 
Q 5691 2819 5691 2113 
L 5691 0 
L 5113 0 
L 5113 2094 
Q 5113 2597 4934 2840 
Q 4756 3084 4391 3084 
Q 3944 3084 3684 2787 
Q 3425 2491 3425 1978 
L 3425 0 
L 2847 0 
L 2847 2094 
Q 2847 2600 2669 2842 
Q 2491 3084 2119 3084 
Q 1678 3084 1418 2786 
Q 1159 2488 1159 1978 
L 1159 0 
L 581 0 
L 581 3500 
L 1159 3500 
L 1159 2956 
Q 1356 3278 1631 3431 
Q 1906 3584 2284 3584 
Q 2666 3584 2933 3390 
Q 3200 3197 3328 2828 
z
" id="DejaVuSans-6d" transform="scale(0.015625)"/>
       <path d="M 3513 2113 
L 3513 0 
L 2938 0 
L 2938 2094 
Q 2938 2591 2744 2837 
Q 2550 3084 2163 3084 
Q 1697 3084 1428 2787 
Q 1159 2491 1159 1978 
L 1159 0 
L 581 0 
L 581 3500 
L 1159 3500 
L 1159 2956 
Q 1366 3272 1645 3428 
Q 1925 3584 2291 3584 
Q 2894 3584 3203 3211 
Q 3513 2838 3513 2113 
z
" id="DejaVuSans-6e" transform="scale(0.015625)"/>
       <path d="M 513 4856 
L 1013 4856 
Q 1481 4119 1714 3412 
Q 1947 2706 1947 2009 
Q 1947 1309 1714 600 
Q 1481 -109 1013 -844 
L 513 -844 
Q 928 -128 1133 580 
Q 1338 1288 1338 2009 
Q 1338 2731 1133 3434 
Q 928 4138 513 4856 
z
" id="DejaVuSans-29" transform="scale(0.015625)"/>
      </defs>
      <use xlink:href="#DejaVuSans-6c"/>
      <use x="27.783203" xlink:href="#DejaVuSans-6f"/>
      <use x="88.964844" xlink:href="#DejaVuSans-67"/>
      <use x="152.441406" xlink:href="#DejaVuSans-31"/>
      <use x="216.064453" xlink:href="#DejaVuSans-30"/>
      <use x="279.6875" xlink:href="#DejaVuSans-28"/>
      <use x="318.701172" xlink:href="#DejaVuSans-23"/>
      <use x="402.490234" xlink:href="#DejaVuSans-20"/>
      <use x="434.277344" xlink:href="#DejaVuSans-66"/>
      <use x="463.982422" xlink:href="#DejaVuSans-2d"/>
      <use x="500.066406" xlink:href="#DejaVuSans-65"/>
      <use x="561.589844" xlink:href="#DejaVuSans-76"/>
      <use x="620.769531" xlink:href="#DejaVuSans-61"/>
      <use x="682.048828" xlink:href="#DejaVuSans-6c"/>
      <use x="709.832031" xlink:href="#DejaVuSans-73"/>
      <use x="761.931641" xlink:href="#DejaVuSans-20"/>
      <use x="793.71875" xlink:href="#DejaVuSans-2f"/>
      <use x="827.410156" xlink:href="#DejaVuSans-20"/>
      <use x="859.197266" xlink:href="#DejaVuSans-64"/>
      <use x="922.673828" xlink:href="#DejaVuSans-69"/>
      <use x="950.457031" xlink:href="#DejaVuSans-6d"/>
      <use x="1047.869141" xlink:href="#DejaVuSans-65"/>
      <use x="1109.392578" xlink:href="#DejaVuSans-6e"/>
      <use x="1172.771484" xlink:href="#DejaVuSans-73"/>
      <use x="1224.871094" xlink:href="#DejaVuSans-69"/>
      <use x="1252.654297" xlink:href="#DejaVuSans-6f"/>
      <use x="1313.835938" xlink:href="#DejaVuSans-6e"/>
      <use x="1377.214844" xlink:href="#DejaVuSans-29"/>
     </g>
    </g>
   </g>
   <g id="matplotlib.axis_2">
    <g id="ytick_1">
     <g id="line2d_17">
      <path clip-path="url(#pc4c9bffd30)" d="M 57.6 298.944 
L 338.688 298.944 
" style="fill:none;stroke:#b0b0b0;stroke-linecap:square;stroke-width:0.8;"/>
     </g>
     <g id="line2d_18">
      <defs>
       <path d="M 0 0 
L -3.5 0 
" id="m7ba8d78ced" style="stroke:#000000;stroke-width:0.8;"/>
      </defs>
      <g>
       <use style="stroke:#000000;stroke-width:0.8;" x="57.6" xlink:href="#m7ba8d78ced" y="298.944"/>
      </g>
     </g>
     <g id="text_6">
      <!-- 0.0 -->
      <g transform="translate(25.155 305.02275)scale(0.16 -0.16)">
       <defs>
        <path d="M 684 794 
L 1344 794 
L 1344 0 
L 684 0 
L 684 794 
z
" id="DejaVuSans-2e" transform="scale(0.015625)"/>
       </defs>
       <use xlink:href="#DejaVuSans-30"/>
       <use x="63.623047" xlink:href="#DejaVuSans-2e"/>
       <use x="95.410156" xlink:href="#DejaVuSans-30"/>
      </g>
     </g>
    </g>
    <g id="ytick_2">
     <g id="line2d_19">
      <path clip-path="url(#pc4c9bffd30)" d="M 57.6 240.431525 
L 338.688 240.431525 
" style="fill:none;stroke:#b0b0b0;stroke-linecap:square;stroke-width:0.8;"/>
     </g>
     <g id="line2d_20">
      <g>
       <use style="stroke:#000000;stroke-width:0.8;" x="57.6" xlink:href="#m7ba8d78ced" y="240.431525"/>
      </g>
     </g>
     <g id="text_7">
      <!-- 0.2 -->
      <g transform="translate(25.155 246.510275)scale(0.16 -0.16)">
       <use xlink:href="#DejaVuSans-30"/>
       <use x="63.623047" xlink:href="#DejaVuSans-2e"/>
       <use x="95.410156" xlink:href="#DejaVuSans-32"/>
      </g>
     </g>
    </g>
    <g id="ytick_3">
     <g id="line2d_21">
      <path clip-path="url(#pc4c9bffd30)" d="M 57.6 181.91905 
L 338.688 181.91905 
" style="fill:none;stroke:#b0b0b0;stroke-linecap:square;stroke-width:0.8;"/>
     </g>
     <g id="line2d_22">
      <g>
       <use style="stroke:#000000;stroke-width:0.8;" x="57.6" xlink:href="#m7ba8d78ced" y="181.91905"/>
      </g>
     </g>
     <g id="text_8">
      <!-- 0.4 -->
      <g transform="translate(25.155 187.9978)scale(0.16 -0.16)">
       <use xlink:href="#DejaVuSans-30"/>
       <use x="63.623047" xlink:href="#DejaVuSans-2e"/>
       <use x="95.410156" xlink:href="#DejaVuSans-34"/>
      </g>
     </g>
    </g>
    <g id="ytick_4">
     <g id="line2d_23">
      <path clip-path="url(#pc4c9bffd30)" d="M 57.6 123.406574 
L 338.688 123.406574 
" style="fill:none;stroke:#b0b0b0;stroke-linecap:square;stroke-width:0.8;"/>
     </g>
     <g id="line2d_24">
      <g>
       <use style="stroke:#000000;stroke-width:0.8;" x="57.6" xlink:href="#m7ba8d78ced" y="123.406574"/>
      </g>
     </g>
     <g id="text_9">
      <!-- 0.6 -->
      <g transform="translate(25.155 129.485324)scale(0.16 -0.16)">
       <use xlink:href="#DejaVuSans-30"/>
       <use x="63.623047" xlink:href="#DejaVuSans-2e"/>
       <use x="95.410156" xlink:href="#DejaVuSans-36"/>
      </g>
     </g>
    </g>
    <g id="ytick_5">
     <g id="line2d_25">
      <path clip-path="url(#pc4c9bffd30)" d="M 57.6 64.894099 
L 338.688 64.894099 
" style="fill:none;stroke:#b0b0b0;stroke-linecap:square;stroke-width:0.8;"/>
     </g>
     <g id="line2d_26">
      <g>
       <use style="stroke:#000000;stroke-width:0.8;" x="57.6" xlink:href="#m7ba8d78ced" y="64.894099"/>
      </g>
     </g>
     <g id="text_10">
      <!-- 0.8 -->
      <g transform="translate(25.155 70.972849)scale(0.16 -0.16)">
       <defs>
        <path d="M 2034 2216 
Q 1584 2216 1326 1975 
Q 1069 1734 1069 1313 
Q 1069 891 1326 650 
Q 1584 409 2034 409 
Q 2484 409 2743 651 
Q 3003 894 3003 1313 
Q 3003 1734 2745 1975 
Q 2488 2216 2034 2216 
z
M 1403 2484 
Q 997 2584 770 2862 
Q 544 3141 544 3541 
Q 544 4100 942 4425 
Q 1341 4750 2034 4750 
Q 2731 4750 3128 4425 
Q 3525 4100 3525 3541 
Q 3525 3141 3298 2862 
Q 3072 2584 2669 2484 
Q 3125 2378 3379 2068 
Q 3634 1759 3634 1313 
Q 3634 634 3220 271 
Q 2806 -91 2034 -91 
Q 1263 -91 848 271 
Q 434 634 434 1313 
Q 434 1759 690 2068 
Q 947 2378 1403 2484 
z
M 1172 3481 
Q 1172 3119 1398 2916 
Q 1625 2713 2034 2713 
Q 2441 2713 2670 2916 
Q 2900 3119 2900 3481 
Q 2900 3844 2670 4047 
Q 2441 4250 2034 4250 
Q 1625 4250 1398 4047 
Q 1172 3844 1172 3481 
z
" id="DejaVuSans-38" transform="scale(0.015625)"/>
       </defs>
       <use xlink:href="#DejaVuSans-30"/>
       <use x="63.623047" xlink:href="#DejaVuSans-2e"/>
       <use x="95.410156" xlink:href="#DejaVuSans-38"/>
      </g>
     </g>
    </g>
    <g id="ytick_6">
     <g id="line2d_27">
      <path clip-path="url(#pc4c9bffd30)" d="M 57.6 6.381624 
L 338.688 6.381624 
" style="fill:none;stroke:#b0b0b0;stroke-linecap:square;stroke-width:0.8;"/>
     </g>
     <g id="line2d_28">
      <g>
       <use style="stroke:#000000;stroke-width:0.8;" x="57.6" xlink:href="#m7ba8d78ced" y="6.381624"/>
      </g>
     </g>
     <g id="text_11">
      <!-- 1.0 -->
      <g transform="translate(25.155 12.460374)scale(0.16 -0.16)">
       <use xlink:href="#DejaVuSans-31"/>
       <use x="63.623047" xlink:href="#DejaVuSans-2e"/>
       <use x="95.410156" xlink:href="#DejaVuSans-30"/>
      </g>
     </g>
    </g>
    <g id="text_12">
     <!-- Fraction of function,target pairs -->
     <g transform="translate(17.619531 285.585)rotate(-90)scale(0.17 -0.17)">
      <defs>
       <path d="M 628 4666 
L 3309 4666 
L 3309 4134 
L 1259 4134 
L 1259 2759 
L 3109 2759 
L 3109 2228 
L 1259 2228 
L 1259 0 
L 628 0 
L 628 4666 
z
" id="DejaVuSans-46" transform="scale(0.015625)"/>
       <path d="M 2631 2963 
Q 2534 3019 2420 3045 
Q 2306 3072 2169 3072 
Q 1681 3072 1420 2755 
Q 1159 2438 1159 1844 
L 1159 0 
L 581 0 
L 581 3500 
L 1159 3500 
L 1159 2956 
Q 1341 3275 1631 3429 
Q 1922 3584 2338 3584 
Q 2397 3584 2469 3576 
Q 2541 3569 2628 3553 
L 2631 2963 
z
" id="DejaVuSans-72" transform="scale(0.015625)"/>
       <path d="M 3122 3366 
L 3122 2828 
Q 2878 2963 2633 3030 
Q 2388 3097 2138 3097 
Q 1578 3097 1268 2742 
Q 959 2388 959 1747 
Q 959 1106 1268 751 
Q 1578 397 2138 397 
Q 2388 397 2633 464 
Q 2878 531 3122 666 
L 3122 134 
Q 2881 22 2623 -34 
Q 2366 -91 2075 -91 
Q 1284 -91 818 406 
Q 353 903 353 1747 
Q 353 2603 823 3093 
Q 1294 3584 2113 3584 
Q 2378 3584 2631 3529 
Q 2884 3475 3122 3366 
z
" id="DejaVuSans-63" transform="scale(0.015625)"/>
       <path d="M 1172 4494 
L 1172 3500 
L 2356 3500 
L 2356 3053 
L 1172 3053 
L 1172 1153 
Q 1172 725 1289 603 
Q 1406 481 1766 481 
L 2356 481 
L 2356 0 
L 1766 0 
Q 1100 0 847 248 
Q 594 497 594 1153 
L 594 3053 
L 172 3053 
L 172 3500 
L 594 3500 
L 594 4494 
L 1172 4494 
z
" id="DejaVuSans-74" transform="scale(0.015625)"/>
       <path d="M 544 1381 
L 544 3500 
L 1119 3500 
L 1119 1403 
Q 1119 906 1312 657 
Q 1506 409 1894 409 
Q 2359 409 2629 706 
Q 2900 1003 2900 1516 
L 2900 3500 
L 3475 3500 
L 3475 0 
L 2900 0 
L 2900 538 
Q 2691 219 2414 64 
Q 2138 -91 1772 -91 
Q 1169 -91 856 284 
Q 544 659 544 1381 
z
M 1991 3584 
L 1991 3584 
z
" id="DejaVuSans-75" transform="scale(0.015625)"/>
       <path d="M 750 794 
L 1409 794 
L 1409 256 
L 897 -744 
L 494 -744 
L 750 256 
L 750 794 
z
" id="DejaVuSans-2c" transform="scale(0.015625)"/>
       <path d="M 1159 525 
L 1159 -1331 
L 581 -1331 
L 581 3500 
L 1159 3500 
L 1159 2969 
Q 1341 3281 1617 3432 
Q 1894 3584 2278 3584 
Q 2916 3584 3314 3078 
Q 3713 2572 3713 1747 
Q 3713 922 3314 415 
Q 2916 -91 2278 -91 
Q 1894 -91 1617 61 
Q 1341 213 1159 525 
z
M 3116 1747 
Q 3116 2381 2855 2742 
Q 2594 3103 2138 3103 
Q 1681 3103 1420 2742 
Q 1159 2381 1159 1747 
Q 1159 1113 1420 752 
Q 1681 391 2138 391 
Q 2594 391 2855 752 
Q 3116 1113 3116 1747 
z
" id="DejaVuSans-70" transform="scale(0.015625)"/>
      </defs>
      <use xlink:href="#DejaVuSans-46"/>
      <use x="50.269531" xlink:href="#DejaVuSans-72"/>
      <use x="91.382812" xlink:href="#DejaVuSans-61"/>
      <use x="152.662109" xlink:href="#DejaVuSans-63"/>
      <use x="207.642578" xlink:href="#DejaVuSans-74"/>
      <use x="246.851562" xlink:href="#DejaVuSans-69"/>
      <use x="274.634766" xlink:href="#DejaVuSans-6f"/>
      <use x="335.816406" xlink:href="#DejaVuSans-6e"/>
      <use x="399.195312" xlink:href="#DejaVuSans-20"/>
      <use x="430.982422" xlink:href="#DejaVuSans-6f"/>
      <use x="492.164062" xlink:href="#DejaVuSans-66"/>
      <use x="527.369141" xlink:href="#DejaVuSans-20"/>
      <use x="559.15625" xlink:href="#DejaVuSans-66"/>
      <use x="594.361328" xlink:href="#DejaVuSans-75"/>
      <use x="657.740234" xlink:href="#DejaVuSans-6e"/>
      <use x="721.119141" xlink:href="#DejaVuSans-63"/>
      <use x="776.099609" xlink:href="#DejaVuSans-74"/>
      <use x="815.308594" xlink:href="#DejaVuSans-69"/>
      <use x="843.091797" xlink:href="#DejaVuSans-6f"/>
      <use x="904.273438" xlink:href="#DejaVuSans-6e"/>
      <use x="967.652344" xlink:href="#DejaVuSans-2c"/>
      <use x="999.439453" xlink:href="#DejaVuSans-74"/>
      <use x="1038.648438" xlink:href="#DejaVuSans-61"/>
      <use x="1099.927734" xlink:href="#DejaVuSans-72"/>
      <use x="1139.291016" xlink:href="#DejaVuSans-67"/>
      <use x="1202.767578" xlink:href="#DejaVuSans-65"/>
      <use x="1264.291016" xlink:href="#DejaVuSans-74"/>
      <use x="1303.5" xlink:href="#DejaVuSans-20"/>
      <use x="1335.287109" xlink:href="#DejaVuSans-70"/>
      <use x="1398.763672" xlink:href="#DejaVuSans-61"/>
      <use x="1460.042969" xlink:href="#DejaVuSans-69"/>
      <use x="1487.826172" xlink:href="#DejaVuSans-72"/>
      <use x="1528.939453" xlink:href="#DejaVuSans-73"/>
     </g>
    </g>
   </g>
   <g id="line2d_29">
    <defs>
     <path d="M 0 1.5 
C 0.397805 1.5 0.77937 1.341951 1.06066 1.06066 
C 1.341951 0.77937 1.5 0.397805 1.5 0 
C 1.5 -0.397805 1.341951 -0.77937 1.06066 -1.06066 
C 0.77937 -1.341951 0.397805 -1.5 0 -1.5 
C -0.397805 -1.5 -0.77937 -1.341951 -1.06066 -1.06066 
C -1.341951 -0.77937 -1.5 -0.397805 -1.5 0 
C -1.5 0.397805 -1.341951 0.77937 -1.06066 1.06066 
C -0.77937 1.341951 -0.397805 1.5 0 1.5 
z
" id="m68921d2f34" style="stroke:#000080;"/>
    </defs>
    <g>
     <use style="fill:#000080;stroke:#000080;" x="250.173682" xlink:href="#m68921d2f34" y="69.483313"/>
     <use style="fill:#000080;stroke:#000080;" x="250.173682" xlink:href="#m68921d2f34" y="69.483313"/>
    </g>
   </g>
   <g id="line2d_30">
    <path d="M 148.539991 298.944 
L 148.539991 298.370348 
L 153.612568 298.370348 
L 153.612568 297.796697 
L 153.904255 297.796697 
L 153.904255 297.223045 
L 154.909767 297.223045 
L 154.909767 296.649393 
L 155.235683 296.649393 
L 155.235683 296.075741 
L 155.603109 296.075741 
L 155.603109 295.50209 
L 156.215076 295.50209 
L 156.215076 294.928438 
L 156.484659 294.928438 
L 156.496678 293.781135 
L 157.366699 293.781135 
L 157.366699 293.207483 
L 157.647321 293.207483 
L 157.647321 292.633831 
L 158.20082 292.633831 
L 158.306735 291.486528 
L 158.538043 291.486528 
L 158.538043 290.912876 
L 158.734649 290.912876 
L 158.750493 289.765573 
L 160.494745 289.765573 
L 160.494745 289.191921 
L 160.750792 289.191921 
L 160.750792 288.618269 
L 161.035578 288.618269 
L 161.035578 288.044617 
L 161.224411 288.044617 
L 161.272444 286.897314 
L 162.089014 286.897314 
L 162.104265 285.176359 
L 162.307779 285.176359 
L 162.307779 284.602707 
L 162.602318 284.602707 
L 162.602318 284.029055 
L 162.946002 284.029055 
L 162.946002 283.455404 
L 163.551671 283.455404 
L 163.567698 281.734448 
L 163.94995 281.734448 
L 163.94995 281.160797 
L 164.144761 281.160797 
L 164.144761 280.587145 
L 164.348911 280.587145 
L 164.348911 280.013493 
L 164.815548 280.013493 
L 164.908508 278.292538 
L 165.275472 278.292538 
L 165.275472 277.718886 
L 165.459691 277.718886 
L 165.459691 277.145235 
L 165.811832 277.145235 
L 165.887376 275.997931 
L 165.980041 275.997931 
L 166.047915 274.276976 
L 166.15355 274.276976 
L 166.15355 273.129673 
L 166.517469 273.129673 
L 166.517469 272.556021 
L 166.687413 272.556021 
L 166.687413 271.982369 
L 168.114314 271.982369 
L 168.114314 271.408718 
L 168.444434 271.408718 
L 168.519968 270.261414 
L 168.581663 270.261414 
L 168.598178 269.114111 
L 168.71782 269.114111 
L 168.722291 267.393156 
L 169.178188 267.393156 
L 169.178188 266.819504 
L 169.731091 266.819504 
L 169.731091 266.245852 
L 169.871155 266.245852 
L 169.871155 265.6722 
L 170.29017 265.6722 
L 170.371694 263.951245 
L 170.560447 263.951245 
L 170.56447 262.803942 
L 170.952924 262.803942 
L 170.96996 261.656638 
L 171.231272 261.656638 
L 171.231272 261.082987 
L 171.343174 261.082987 
L 171.34702 259.935683 
L 171.472189 259.935683 
L 171.476006 258.78838 
L 171.597729 258.78838 
L 171.597729 258.214728 
L 172.043075 258.214728 
L 172.100868 257.067425 
L 172.218321 257.067425 
L 172.218321 256.493773 
L 172.347097 256.493773 
L 172.442456 255.346469 
L 172.701741 255.346469 
L 172.705299 254.199166 
L 172.82112 254.199166 
L 172.82112 253.625514 
L 172.937347 253.625514 
L 172.937347 253.051863 
L 173.283746 253.051863 
L 173.289481 251.904559 
L 173.622273 251.904559 
L 173.701969 250.757256 
L 173.741122 250.757256 
L 173.741122 250.183604 
L 173.87137 250.183604 
L 173.87137 249.609952 
L 174.077546 249.609952 
L 174.077546 249.036301 
L 174.321349 249.036301 
L 174.395768 247.315345 
L 174.499851 247.315345 
L 174.607571 246.168042 
L 174.712515 246.168042 
L 174.712515 245.59439 
L 175.031915 245.59439 
L 175.031915 245.020738 
L 175.234124 245.020738 
L 175.234124 244.447087 
L 175.638658 244.447087 
L 175.641664 243.299783 
L 176.067299 243.299783 
L 176.142433 242.15248 
L 176.327418 242.15248 
L 176.423492 239.284221 
L 176.519039 239.284221 
L 176.519039 238.71057 
L 176.707635 238.71057 
L 176.707635 238.136918 
L 177.10832 238.136918 
L 177.10832 237.563266 
L 177.536897 237.563266 
L 177.539593 236.415963 
L 177.72286 236.415963 
L 177.747743 235.268659 
L 177.900701 235.268659 
L 177.900701 234.695008 
L 178.068901 234.695008 
L 178.157602 232.974052 
L 178.667064 232.974052 
L 178.715017 231.826749 
L 178.834743 231.826749 
L 178.923793 229.532142 
L 179.000825 229.532142 
L 179.094788 227.811187 
L 179.223371 227.811187 
L 179.264123 226.090232 
L 179.489786 226.090232 
L 179.574762 224.942928 
L 179.67285 224.942928 
L 179.730805 223.795625 
L 179.987292 223.795625 
L 180.043435 222.648321 
L 180.127311 222.648321 
L 180.209244 219.780063 
L 180.506666 219.780063 
L 180.580802 218.632759 
L 180.79239 218.632759 
L 180.880912 216.911804 
L 181.027213 216.911804 
L 181.100639 215.190849 
L 181.176675 215.190849 
L 181.176675 214.617197 
L 181.394171 214.617197 
L 181.43519 213.469894 
L 181.534816 213.469894 
L 181.534816 212.896242 
L 181.677882 212.896242 
L 181.750742 211.748939 
L 181.959841 211.748939 
L 181.959841 211.175287 
L 182.098784 211.175287 
L 182.100168 210.027984 
L 182.380202 210.027984 
L 182.380202 209.454332 
L 182.651118 209.454332 
L 182.651118 208.88068 
L 182.77603 208.88068 
L 182.843126 206.586073 
L 182.977207 206.586073 
L 182.977207 206.012422 
L 183.170884 206.012422 
L 183.25527 204.291467 
L 183.303123 204.291467 
L 183.366939 202.570511 
L 183.437572 202.570511 
L 183.437572 201.99686 
L 183.809734 201.99686 
L 183.811615 200.275904 
L 183.996912 200.275904 
L 184.09284 197.981298 
L 184.121208 197.981298 
L 184.183332 195.686691 
L 184.251352 195.686691 
L 184.251352 195.113039 
L 184.546688 195.113039 
L 184.611512 193.392084 
L 184.670125 193.392084 
L 184.726162 191.097477 
L 184.787951 191.097477 
L 184.850112 189.950174 
L 185.081411 189.950174 
L 185.140793 188.80287 
L 185.198237 188.80287 
L 185.306227 187.655567 
L 185.375175 187.655567 
L 185.484359 185.36096 
L 185.544091 185.36096 
L 185.603054 183.640005 
L 185.657869 183.640005 
L 185.766984 182.492701 
L 185.773151 182.492701 
L 185.87765 181.345398 
L 186.043998 181.345398 
L 186.051722 180.198094 
L 186.264446 180.198094 
L 186.374717 178.477139 
L 186.431481 178.477139 
L 186.536412 176.756184 
L 186.641249 176.756184 
L 186.641249 176.182532 
L 186.754469 176.182532 
L 186.754469 175.608881 
L 186.959364 175.608881 
L 187.010083 174.461577 
L 187.122498 174.461577 
L 187.218722 171.593319 
L 187.293369 171.593319 
L 187.373323 170.446015 
L 187.430501 170.446015 
L 187.430501 169.872363 
L 187.675961 169.872363 
L 187.781181 167.004105 
L 187.876332 167.004105 
L 187.975907 164.709498 
L 188.068531 164.709498 
L 188.174834 163.562195 
L 188.268838 163.562195 
L 188.375862 160.693936 
L 188.406252 160.693936 
L 188.406252 160.120284 
L 188.519622 160.120284 
L 188.613696 158.972981 
L 188.84739 158.972981 
L 188.936445 155.53107 
L 189.029234 155.53107 
L 189.123844 153.810115 
L 189.233118 153.810115 
L 189.315198 152.662812 
L 189.352671 152.662812 
L 189.442822 151.515508 
L 189.495422 151.515508 
L 189.582138 148.64725 
L 189.668425 148.64725 
L 189.757855 147.499946 
L 189.986489 147.499946 
L 190.03616 145.20534 
L 190.111058 145.20534 
L 190.198253 142.337081 
L 190.333412 142.337081 
L 190.420792 141.189778 
L 190.500045 141.189778 
L 190.512009 139.468822 
L 190.629924 139.468822 
L 190.715413 137.174215 
L 190.754632 137.174215 
L 190.754632 136.600564 
L 190.922731 136.600564 
L 191.011782 135.45326 
L 191.093358 135.45326 
L 191.173321 132.585002 
L 191.238585 132.585002 
L 191.337044 129.716743 
L 191.426847 129.716743 
L 191.499245 128.56944 
L 191.540769 128.56944 
L 191.625123 125.701181 
L 191.737363 125.701181 
L 191.827113 122.832923 
L 192.014647 122.832923 
L 192.038143 121.685619 
L 192.132202 121.685619 
L 192.209488 120.538316 
L 192.286048 120.538316 
L 192.364193 118.243709 
L 192.403326 118.243709 
L 192.461098 117.096405 
L 192.554049 117.096405 
L 192.629871 114.228147 
L 192.667658 114.228147 
L 192.718542 112.507192 
L 192.817994 112.507192 
L 192.828844 111.359888 
L 193.00411 111.359888 
L 193.080216 109.065281 
L 193.118145 109.065281 
L 193.226687 107.344326 
L 193.37085 107.344326 
L 193.480718 104.476068 
L 193.482159 104.476068 
L 193.586675 102.181461 
L 193.695196 102.181461 
L 193.801985 100.460506 
L 193.839436 100.460506 
L 193.941137 97.018595 
L 194.011173 97.018595 
L 194.011173 96.444944 
L 204.642038 96.444944 
L 204.682643 95.29764 
L 205.056889 95.29764 
L 205.158802 94.150337 
L 205.458476 94.150337 
L 205.458476 93.576685 
L 205.585451 93.576685 
L 205.585451 93.003033 
L 206.012275 93.003033 
L 206.121514 90.134775 
L 212.589697 90.134775 
L 212.589938 88.987471 
L 212.733505 88.987471 
L 212.841151 86.692864 
L 212.867485 86.692864 
L 212.867485 86.119213 
L 212.982673 86.119213 
L 213.006913 84.398257 
L 213.123873 84.398257 
L 213.193465 82.677302 
L 217.860583 82.677302 
L 217.878378 80.956347 
L 218.07355 80.956347 
L 218.143411 78.66174 
L 221.7469 78.66174 
L 221.7469 78.088089 
L 221.876497 78.088089 
L 221.876497 77.514437 
L 222.10641 77.514437 
L 222.10641 76.940785 
L 225.194098 76.940785 
L 225.263819 75.793482 
L 227.901406 75.793482 
L 227.901406 75.21983 
L 230.081594 75.21983 
L 230.081594 74.646178 
L 232.328996 74.646178 
L 232.328996 74.072526 
L 234.169887 74.072526 
L 234.183823 72.351571 
L 237.366271 72.351571 
L 237.366271 71.77792 
L 238.752554 71.77792 
L 238.752554 71.204268 
L 240.056613 71.204268 
L 240.056613 70.630616 
L 250.173682 70.630616 
L 250.173682 69.483313 
L 338.688 69.483313 
L 338.688 69.483313 
" style="fill:none;stroke:#000080;stroke-linecap:square;stroke-width:1.5;"/>
   </g>
   <g id="line2d_31">
    <defs>
     <path d="M 0 6 
C 1.591219 6 3.117479 5.367802 4.242641 4.242641 
C 5.367802 3.117479 6 1.591219 6 0 
C 6 -1.591219 5.367802 -3.117479 4.242641 -4.242641 
C 3.117479 -5.367802 1.591219 -6 0 -6 
C -1.591219 -6 -3.117479 -5.367802 -4.242641 -4.242641 
C -5.367802 -3.117479 -6 -1.591219 -6 0 
C -6 1.591219 -5.367802 3.117479 -4.242641 4.242641 
C -3.117479 5.367802 -1.591219 6 0 6 
z
" id="mb74cc346f9" style="stroke:#000080;stroke-width:1.5;"/>
    </defs>
    <g>
     <use style="fill-opacity:0;stroke:#000080;stroke-width:1.5;" x="179.67285" xlink:href="#mb74cc346f9" y="224.369277"/>
     <use style="fill-opacity:0;stroke:#000080;stroke-width:1.5;" x="191.821171" xlink:href="#mb74cc346f9" y="123.980226"/>
     <use style="fill-opacity:0;stroke:#000080;stroke-width:1.5;" x="250.173682" xlink:href="#mb74cc346f9" y="70.630616"/>
     <use style="fill-opacity:0;stroke:#000080;stroke-width:1.5;" x="250.173682" xlink:href="#mb74cc346f9" y="69.483313"/>
     <use style="fill-opacity:0;stroke:#000080;stroke-width:1.5;" x="338.688" xlink:href="#mb74cc346f9" y="69.483313"/>
    </g>
   </g>
   <g id="line2d_32">
    <path style="fill:none;stroke:#000080;stroke-linecap:square;stroke-width:1.5;"/>
    <g/>
   </g>
   <g id="line2d_33">
    <path clip-path="url(#pc4c9bffd30)" d="M 194.045737 96.444944 
" style="fill:none;stroke:#000080;stroke-linecap:square;stroke-width:1.5;"/>
    <defs>
     <path d="M -12 12 
L 12 -12 
M -12 -12 
L 12 12 
" id="m89017b5820" style="stroke:#000080;"/>
    </defs>
    <g clip-path="url(#pc4c9bffd30)">
     <use style="fill:#000080;stroke:#000080;" x="194.045737" xlink:href="#m89017b5820" y="96.444944"/>
    </g>
   </g>
   <g id="line2d_34">
    <defs>
     <path d="M 0 1.5 
C 0.397805 1.5 0.77937 1.341951 1.06066 1.06066 
C 1.341951 0.77937 1.5 0.397805 1.5 0 
C 1.5 -0.397805 1.341951 -0.77937 1.06066 -1.06066 
C 0.77937 -1.341951 0.397805 -1.5 0 -1.5 
C -0.397805 -1.5 -0.77937 -1.341951 -1.06066 -1.06066 
C -1.341951 -0.77937 -1.5 -0.397805 -1.5 0 
C -1.5 0.397805 -1.341951 0.77937 -1.06066 1.06066 
C -0.77937 1.341951 -0.397805 1.5 0 1.5 
z
" id="me2431a402c" style="stroke:#ff00ff;"/>
    </defs>
    <g>
     <use style="fill:#ff00ff;stroke:#ff00ff;" x="266.691275" xlink:href="#me2431a402c" y="195.686691"/>
     <use style="fill:#ff00ff;stroke:#ff00ff;" x="266.691275" xlink:href="#me2431a402c" y="195.686691"/>
    </g>
   </g>
   <g id="line2d_35">
    <path d="M 131.715598 298.944 
L 131.715598 297.796697 
L 135.321124 297.796697 
L 135.321124 297.223045 
L 136.102487 297.223045 
L 136.102487 296.649393 
L 137.025515 296.649393 
L 137.080471 295.50209 
L 137.253364 295.50209 
L 137.253364 294.928438 
L 137.954401 294.928438 
L 137.954401 294.354786 
L 139.261074 294.354786 
L 139.261074 293.781135 
L 139.612588 293.781135 
L 139.612588 293.207483 
L 140.454035 293.207483 
L 140.454035 292.633831 
L 141.885829 292.633831 
L 141.885829 292.060179 
L 142.51311 292.060179 
L 142.57328 290.912876 
L 143.163832 290.912876 
L 143.241082 289.765573 
L 143.803587 289.765573 
L 143.908998 288.044617 
L 144.402681 288.044617 
L 144.414696 286.323662 
L 145.005114 286.323662 
L 145.005114 285.176359 
L 148.078887 285.176359 
L 148.078887 284.602707 
L 148.190475 284.602707 
L 148.190475 284.029055 
L 148.354135 284.029055 
L 148.354135 283.455404 
L 148.672214 283.455404 
L 148.672214 282.881752 
L 149.27331 282.881752 
L 149.27331 282.3081 
L 149.58413 282.3081 
L 149.58413 281.734448 
L 150.454969 281.734448 
L 150.454969 281.160797 
L 150.58614 281.160797 
L 150.58614 280.587145 
L 151.264121 280.587145 
L 151.264121 280.013493 
L 151.429577 280.013493 
L 151.429577 279.439842 
L 151.767673 279.439842 
L 151.767673 278.86619 
L 151.905007 278.86619 
L 151.905007 278.292538 
L 152.087741 278.292538 
L 152.087741 277.718886 
L 152.833495 277.718886 
L 152.833495 277.145235 
L 153.182035 277.145235 
L 153.182035 276.571583 
L 154.577643 276.571583 
L 154.621179 274.850628 
L 155.584129 274.850628 
L 155.599947 273.703324 
L 156.236431 273.703324 
L 156.239479 272.556021 
L 156.49067 272.556021 
L 156.49067 271.982369 
L 156.788581 271.982369 
L 156.79744 270.835066 
L 157.650133 270.835066 
L 157.650133 270.261414 
L 159.007266 270.261414 
L 159.007266 269.687762 
L 159.257749 269.687762 
L 159.257749 269.114111 
L 159.540039 269.114111 
L 159.550127 267.966807 
L 159.842643 267.966807 
L 159.842643 267.393156 
L 160.753145 267.393156 
L 160.757851 266.245852 
L 161.070274 266.245852 
L 161.070274 265.6722 
L 161.286143 265.6722 
L 161.286143 265.098549 
L 161.424813 265.098549 
L 161.488097 263.951245 
L 161.705572 263.951245 
L 161.705572 263.377593 
L 161.913765 263.377593 
L 161.913765 262.803942 
L 162.089014 262.803942 
L 162.169475 261.656638 
L 162.523835 261.656638 
L 162.523835 261.082987 
L 163.388564 261.082987 
L 163.388564 260.509335 
L 163.551671 260.509335 
L 163.559687 259.362031 
L 163.953867 259.362031 
L 163.9617 258.214728 
L 164.335503 258.214728 
L 164.37952 257.067425 
L 165.689922 257.067425 
L 165.689922 256.493773 
L 165.841738 256.493773 
L 165.841738 255.920121 
L 166.381675 255.920121 
L 166.381675 255.346469 
L 167.181018 255.346469 
L 167.281645 254.199166 
L 167.801403 254.199166 
L 167.801403 253.625514 
L 167.991998 253.625514 
L 167.991998 253.051863 
L 168.722291 253.051863 
L 168.811464 251.904559 
L 168.866228 251.904559 
L 168.866228 251.330907 
L 169.066057 251.330907 
L 169.066057 250.757256 
L 169.491796 250.757256 
L 169.491796 250.183604 
L 169.797062 250.183604 
L 169.797062 249.609952 
L 170.153445 249.609952 
L 170.153445 249.036301 
L 171.228691 249.036301 
L 171.228691 248.462649 
L 171.341892 248.462649 
L 171.341892 247.888997 
L 171.596466 247.888997 
L 171.596466 247.315345 
L 172.218321 247.315345 
L 172.218321 246.741694 
L 172.580345 246.741694 
L 172.580345 246.168042 
L 172.70767 246.168042 
L 172.70767 245.59439 
L 172.965407 245.59439 
L 172.965407 245.020738 
L 173.623398 245.020738 
L 173.623398 244.447087 
L 173.736652 244.447087 
L 173.736652 243.873435 
L 173.973109 243.873435 
L 173.973109 243.299783 
L 174.836781 243.299783 
L 174.836781 242.726132 
L 175.444152 242.726132 
L 175.444152 242.15248 
L 177.820411 242.15248 
L 177.820411 241.578828 
L 177.980623 241.578828 
L 177.980623 241.005176 
L 178.343106 241.005176 
L 178.343106 240.431525 
L 179.409238 240.431525 
L 179.409238 239.857873 
L 181.319802 239.857873 
L 181.319802 239.284221 
L 181.898354 239.284221 
L 181.898354 238.71057 
L 182.376797 238.71057 
L 182.376797 238.136918 
L 189.311996 238.136918 
L 189.311996 237.563266 
L 197.994308 237.563266 
L 198.076436 236.415963 
L 198.241736 236.415963 
L 198.241736 235.842311 
L 198.755349 235.842311 
L 198.838749 234.695008 
L 199.098855 234.695008 
L 199.098855 234.121356 
L 199.36054 234.121356 
L 199.36054 233.547704 
L 200.3206 233.547704 
L 200.3206 232.974052 
L 201.096982 232.974052 
L 201.096982 232.400401 
L 201.913505 232.400401 
L 201.913505 231.826749 
L 203.926981 231.826749 
L 203.926981 230.679446 
L 208.69438 230.679446 
L 208.69438 229.532142 
L 208.902734 229.532142 
L 208.992816 227.811187 
L 209.359726 227.811187 
L 209.359726 227.237535 
L 209.551869 227.237535 
L 209.551869 226.663884 
L 210.507592 226.663884 
L 210.507592 226.090232 
L 214.952919 226.090232 
L 214.952919 225.51658 
L 215.420297 225.51658 
L 215.420297 224.369277 
L 215.550969 224.369277 
L 215.550969 223.795625 
L 219.477094 223.795625 
L 219.548997 222.648321 
L 219.709786 222.648321 
L 219.709786 222.07467 
L 219.876085 222.07467 
L 219.909203 220.927366 
L 220.46126 220.927366 
L 220.46126 220.353715 
L 221.263686 220.353715 
L 221.263686 219.206411 
L 223.168983 219.206411 
L 223.182963 218.059108 
L 223.313619 218.059108 
L 223.384258 216.911804 
L 223.475979 216.911804 
L 223.561764 214.617197 
L 226.139613 214.617197 
L 226.139613 214.043546 
L 226.298754 214.043546 
L 226.298754 213.469894 
L 229.027847 213.469894 
L 229.027847 212.896242 
L 229.783639 212.896242 
L 229.783639 212.322591 
L 231.465401 212.322591 
L 231.465401 211.748939 
L 233.133973 211.748939 
L 233.18333 210.601635 
L 233.434895 210.601635 
L 233.434895 210.027984 
L 233.781592 210.027984 
L 233.781592 209.454332 
L 234.811714 209.454332 
L 234.811714 208.88068 
L 234.938757 208.88068 
L 234.940496 207.733377 
L 236.400573 207.733377 
L 236.419226 206.586073 
L 236.535119 206.586073 
L 236.535119 206.012422 
L 237.031783 206.012422 
L 237.031783 205.43877 
L 239.232289 205.43877 
L 239.232289 204.865118 
L 240.492523 204.865118 
L 240.492523 204.291467 
L 241.636121 204.291467 
L 241.738387 201.99686 
L 242.136643 201.99686 
L 242.136643 201.423208 
L 244.793572 201.423208 
L 244.793572 200.849556 
L 245.71864 200.849556 
L 245.71864 200.275904 
L 246.662737 200.275904 
L 246.662737 199.702253 
L 248.985521 199.702253 
L 248.985521 199.128601 
L 251.743651 199.128601 
L 251.743651 198.554949 
L 252.370035 198.554949 
L 252.370035 197.981298 
L 255.750144 197.981298 
L 255.750144 197.407646 
L 257.220479 197.407646 
L 257.220479 196.833994 
L 260.210087 196.833994 
L 260.210087 196.260342 
L 266.691275 196.260342 
L 266.691275 195.686691 
L 338.688 195.686691 
L 338.688 195.686691 
" style="fill:none;stroke:#ff00ff;stroke-linecap:square;stroke-width:1.5;"/>
   </g>
   <g id="line2d_36">
    <defs>
     <path d="M 0 8.485281 
L 5.091169 0 
L 0 -8.485281 
L -5.091169 0 
z
" id="ma91754f8df" style="stroke:#ff00ff;stroke-linejoin:miter;stroke-width:1.5;"/>
    </defs>
    <g>
     <use style="fill-opacity:0;stroke:#ff00ff;stroke-linejoin:miter;stroke-width:1.5;" x="203.926981" xlink:href="#ma91754f8df" y="231.826749"/>
     <use style="fill-opacity:0;stroke:#ff00ff;stroke-linejoin:miter;stroke-width:1.5;" x="260.210087" xlink:href="#ma91754f8df" y="196.260342"/>
     <use style="fill-opacity:0;stroke:#ff00ff;stroke-linejoin:miter;stroke-width:1.5;" x="266.691275" xlink:href="#ma91754f8df" y="195.686691"/>
     <use style="fill-opacity:0;stroke:#ff00ff;stroke-linejoin:miter;stroke-width:1.5;" x="266.691275" xlink:href="#ma91754f8df" y="195.686691"/>
     <use style="fill-opacity:0;stroke:#ff00ff;stroke-linejoin:miter;stroke-width:1.5;" x="338.688" xlink:href="#ma91754f8df" y="195.686691"/>
    </g>
   </g>
   <g id="line2d_37">
    <path style="fill:none;stroke:#ff00ff;stroke-linecap:square;stroke-width:1.5;"/>
    <g/>
   </g>
   <g id="line2d_38">
    <path clip-path="url(#pc4c9bffd30)" d="M 194.045737 237.563266 
" style="fill:none;stroke:#ff00ff;stroke-linecap:square;stroke-width:1.5;"/>
    <defs>
     <path d="M -12 12 
L 12 -12 
M -12 -12 
L 12 12 
" id="m03e57c52f7" style="stroke:#ff00ff;"/>
    </defs>
    <g clip-path="url(#pc4c9bffd30)">
     <use style="fill:#ff00ff;stroke:#ff00ff;" x="194.045737" xlink:href="#m03e57c52f7" y="237.563266"/>
    </g>
   </g>
   <g id="line2d_39">
    <defs>
     <path d="M 0 1.5 
C 0.397805 1.5 0.77937 1.341951 1.06066 1.06066 
C 1.341951 0.77937 1.5 0.397805 1.5 0 
C 1.5 -0.397805 1.341951 -0.77937 1.06066 -1.06066 
C 0.77937 -1.341951 0.397805 -1.5 0 -1.5 
C -0.397805 -1.5 -0.77937 -1.341951 -1.06066 -1.06066 
C -1.341951 -0.77937 -1.5 -0.397805 -1.5 0 
C -1.5 0.397805 -1.341951 0.77937 -1.06066 1.06066 
C -0.77937 1.341951 -0.397805 1.5 0 1.5 
z
" id="m27f45acbcd" style="stroke:#ff7500;"/>
    </defs>
    <g>
     <use style="fill:#ff7500;stroke:#ff7500;" x="244.407546" xlink:href="#m27f45acbcd" y="253.051863"/>
     <use style="fill:#ff7500;stroke:#ff7500;" x="244.407546" xlink:href="#m27f45acbcd" y="253.051863"/>
    </g>
   </g>
   <g id="line2d_40">
    <path d="M 152.056772 298.944 
L 152.056772 298.370348 
L 152.844609 298.370348 
L 152.844609 297.796697 
L 153.185667 297.796697 
L 153.196559 296.649393 
L 153.900769 296.649393 
L 153.900769 296.075741 
L 154.587699 296.075741 
L 154.587699 295.50209 
L 155.04413 295.50209 
L 155.04413 294.928438 
L 155.55562 294.928438 
L 155.55879 293.781135 
L 155.990803 293.781135 
L 155.990803 293.207483 
L 156.481653 293.207483 
L 156.481653 292.633831 
L 156.782672 292.633831 
L 156.782672 292.060179 
L 157.081488 292.060179 
L 157.153952 290.339224 
L 157.37527 290.339224 
L 157.440836 288.618269 
L 157.647321 288.618269 
L 157.658565 287.470966 
L 157.801293 287.470966 
L 157.801293 286.897314 
L 157.923499 286.897314 
L 157.923499 286.323662 
L 158.20082 286.323662 
L 158.203544 285.176359 
L 158.996859 285.176359 
L 159.066985 284.029055 
L 159.509741 284.029055 
L 159.509741 283.455404 
L 159.763125 283.455404 
L 159.765615 282.3081 
L 160.731954 282.3081 
L 160.731954 281.734448 
L 161.196905 281.734448 
L 161.196905 281.160797 
L 161.447441 281.160797 
L 161.447441 280.587145 
L 161.652016 280.587145 
L 161.652016 280.013493 
L 161.882915 280.013493 
L 161.882915 279.439842 
L 162.309932 279.439842 
L 162.316387 278.292538 
L 162.519582 278.292538 
L 162.56206 276.571583 
L 163.930348 276.571583 
L 163.930348 275.997931 
L 167.642024 275.997931 
L 167.642024 275.42428 
L 168.71782 275.42428 
L 168.71782 274.850628 
L 173.335289 274.850628 
L 173.335289 274.276976 
L 176.137564 274.276976 
L 176.137564 273.703324 
L 176.518086 273.703324 
L 176.518086 273.129673 
L 176.633009 273.129673 
L 176.633009 272.556021 
L 176.988151 272.556021 
L 177.08343 271.408718 
L 178.020885 271.408718 
L 178.020885 270.835066 
L 178.248444 270.835066 
L 178.248444 270.261414 
L 186.644982 270.261414 
L 186.644982 269.687762 
L 187.422854 269.687762 
L 187.422854 269.114111 
L 188.528239 269.114111 
L 188.528239 268.540459 
L 188.953735 268.540459 
L 189.040391 266.819504 
L 189.175108 266.819504 
L 189.212882 265.098549 
L 189.848603 265.098549 
L 189.848603 264.524897 
L 190.809725 264.524897 
L 190.809725 263.951245 
L 192.013863 263.951245 
L 192.102595 262.803942 
L 192.170305 262.803942 
L 192.170305 262.23029 
L 192.566962 262.23029 
L 192.630249 261.082987 
L 192.894542 261.082987 
L 192.894542 260.509335 
L 193.20657 260.509335 
L 193.225225 259.362031 
L 193.837671 259.362031 
L 193.837671 258.78838 
L 193.961827 258.78838 
L 193.961827 258.214728 
L 205.731864 258.214728 
L 205.731864 257.641076 
L 206.091821 257.641076 
L 206.091821 256.493773 
L 212.93787 256.493773 
L 212.93787 255.920121 
L 227.969049 255.920121 
L 227.969049 255.346469 
L 230.299236 255.346469 
L 230.299236 254.772818 
L 237.373746 254.772818 
L 237.373746 253.625514 
L 244.407546 253.625514 
L 244.407546 253.051863 
L 338.688 253.051863 
L 338.688 253.051863 
" style="fill:none;stroke:#ff7500;stroke-linecap:square;stroke-width:1.5;"/>
   </g>
   <g id="line2d_41">
    <defs>
     <path d="M 0 -6 
L -1.347084 -1.854102 
L -5.706339 -1.854102 
L -2.179628 0.708204 
L -3.526712 4.854102 
L -0 2.291796 
L 3.526712 4.854102 
L 2.179628 0.708204 
L 5.706339 -1.854102 
L 1.347084 -1.854102 
z
" id="mbc64f951b5" style="stroke:#ff7500;stroke-linejoin:bevel;stroke-width:1.5;"/>
    </defs>
    <g>
     <use style="fill-opacity:0;stroke:#ff7500;stroke-linejoin:bevel;stroke-width:1.5;" x="193.961827" xlink:href="#mbc64f951b5" y="258.78838"/>
     <use style="fill-opacity:0;stroke:#ff7500;stroke-linejoin:bevel;stroke-width:1.5;" x="244.407546" xlink:href="#mbc64f951b5" y="253.625514"/>
     <use style="fill-opacity:0;stroke:#ff7500;stroke-linejoin:bevel;stroke-width:1.5;" x="244.407546" xlink:href="#mbc64f951b5" y="253.051863"/>
     <use style="fill-opacity:0;stroke:#ff7500;stroke-linejoin:bevel;stroke-width:1.5;" x="338.688" xlink:href="#mbc64f951b5" y="253.051863"/>
    </g>
   </g>
   <g id="line2d_42">
    <path style="fill:none;stroke:#ff7500;stroke-linecap:square;stroke-width:1.5;"/>
    <g/>
   </g>
   <g id="line2d_43">
    <path clip-path="url(#pc4c9bffd30)" d="M 194.045737 258.214728 
" style="fill:none;stroke:#ff7500;stroke-linecap:square;stroke-width:1.5;"/>
    <defs>
     <path d="M -12 12 
L 12 -12 
M -12 -12 
L 12 12 
" id="m4e502b4787" style="stroke:#ff7500;"/>
    </defs>
    <g clip-path="url(#pc4c9bffd30)">
     <use style="fill:#ff7500;stroke:#ff7500;" x="194.045737" xlink:href="#m4e502b4787" y="258.214728"/>
    </g>
   </g>
   <g id="line2d_44">
    <defs>
     <path d="M 0 1.5 
C 0.397805 1.5 0.77937 1.341951 1.06066 1.06066 
C 1.341951 0.77937 1.5 0.397805 1.5 0 
C 1.5 -0.397805 1.341951 -0.77937 1.06066 -1.06066 
C 0.77937 -1.341951 0.397805 -1.5 0 -1.5 
C -0.397805 -1.5 -0.77937 -1.341951 -1.06066 -1.06066 
C -1.341951 -0.77937 -1.5 -0.397805 -1.5 0 
C -1.5 0.397805 -1.341951 0.77937 -1.06066 1.06066 
C -0.77937 1.341951 -0.397805 1.5 0 1.5 
z
" id="m3c5f31bbc9" style="stroke:#6495ed;"/>
    </defs>
    <g>
     <use style="fill:#6495ed;stroke:#6495ed;" x="255.529671" xlink:href="#m3c5f31bbc9" y="264.524897"/>
     <use style="fill:#6495ed;stroke:#6495ed;" x="255.529671" xlink:href="#m3c5f31bbc9" y="264.524897"/>
    </g>
   </g>
   <g id="line2d_45">
    <path d="M 151.696621 298.944 
L 151.696621 298.370348 
L 151.77555 298.370348 
L 151.77555 297.796697 
L 152.439984 297.796697 
L 152.439984 297.223045 
L 152.587184 297.223045 
L 152.587184 296.649393 
L 152.814956 296.649393 
L 152.814956 295.50209 
L 152.844609 295.50209 
L 152.844609 294.928438 
L 152.855715 294.928438 
L 152.855715 294.354786 
L 153.182035 294.354786 
L 153.182035 293.781135 
L 153.185667 293.781135 
L 153.185667 293.207483 
L 153.221946 293.207483 
L 153.221946 292.633831 
L 153.229193 292.633831 
L 153.229193 292.060179 
L 153.959927 292.060179 
L 153.959927 291.486528 
L 154.239071 291.486528 
L 154.239071 290.912876 
L 154.361716 290.912876 
L 154.361716 290.339224 
L 154.580996 290.339224 
L 154.580996 289.765573 
L 154.641235 289.765573 
L 154.641235 289.191921 
L 154.968883 289.191921 
L 154.968883 288.618269 
L 155.55879 288.618269 
L 155.55879 287.470966 
L 155.872907 287.470966 
L 155.872907 286.897314 
L 155.894684 286.897314 
L 155.894684 286.323662 
L 155.931955 286.323662 
L 155.931955 285.75001 
L 156.178407 285.75001 
L 156.178407 285.176359 
L 156.187581 285.176359 
L 156.187581 284.602707 
L 157.360983 284.602707 
L 157.360983 284.029055 
L 157.415209 284.029055 
L 157.415209 283.455404 
L 157.644509 283.455404 
L 157.644509 282.881752 
L 157.951154 282.881752 
L 157.951154 282.3081 
L 158.028356 282.3081 
L 158.028356 281.734448 
L 158.241633 281.734448 
L 158.241633 281.160797 
L 158.468436 281.160797 
L 158.468436 280.587145 
L 158.858379 280.587145 
L 158.858379 280.013493 
L 159.512268 280.013493 
L 159.512268 279.439842 
L 159.514794 279.439842 
L 159.514794 278.86619 
L 160.010424 278.86619 
L 160.010424 278.292538 
L 160.015335 278.292538 
L 160.015335 277.718886 
L 160.251844 277.718886 
L 160.251844 277.145235 
L 160.276045 277.145235 
L 160.276045 276.571583 
L 160.497133 276.571583 
L 160.497133 275.997931 
L 181.764149 275.997931 
L 181.764149 275.42428 
L 182.849756 275.42428 
L 182.849756 274.850628 
L 184.946762 274.850628 
L 184.946762 274.276976 
L 184.962622 274.276976 
L 184.962622 273.703324 
L 185.883777 273.703324 
L 185.883777 273.129673 
L 186.483218 273.129673 
L 186.483218 272.556021 
L 187.483936 272.556021 
L 187.483936 271.982369 
L 188.081793 271.982369 
L 188.081793 271.408718 
L 190.026061 271.408718 
L 190.026061 270.835066 
L 190.38985 270.835066 
L 190.38985 270.261414 
L 193.589182 270.261414 
L 193.589182 269.687762 
L 205.906942 269.687762 
L 205.906942 269.114111 
L 218.108691 269.114111 
L 218.108691 268.540459 
L 222.022817 268.540459 
L 222.022817 267.966807 
L 225.217467 267.966807 
L 225.217467 266.819504 
L 240.036782 266.819504 
L 240.036782 266.245852 
L 241.242118 266.245852 
L 241.242118 265.6722 
L 250.847258 265.6722 
L 250.847258 265.098549 
L 255.529671 265.098549 
L 255.529671 264.524897 
L 338.688 264.524897 
" style="fill:none;stroke:#6495ed;stroke-linecap:square;stroke-width:1.5;"/>
   </g>
   <g id="line2d_46">
    <defs>
     <path d="M -0 6 
L 6 -6 
L -6 -6 
z
" id="m60b87ed5fd" style="stroke:#6495ed;stroke-linejoin:miter;stroke-width:1.5;"/>
    </defs>
    <g>
     <use style="fill-opacity:0;stroke:#6495ed;stroke-linejoin:miter;stroke-width:1.5;" x="255.529671" xlink:href="#m60b87ed5fd" y="265.098549"/>
     <use style="fill-opacity:0;stroke:#6495ed;stroke-linejoin:miter;stroke-width:1.5;" x="255.529671" xlink:href="#m60b87ed5fd" y="264.524897"/>
     <use style="fill-opacity:0;stroke:#6495ed;stroke-linejoin:miter;stroke-width:1.5;" x="255.529671" xlink:href="#m60b87ed5fd" y="264.524897"/>
     <use style="fill-opacity:0;stroke:#6495ed;stroke-linejoin:miter;stroke-width:1.5;" x="338.688" xlink:href="#m60b87ed5fd" y="264.524897"/>
    </g>
   </g>
   <g id="line2d_47">
    <path style="fill:none;stroke:#6495ed;stroke-linecap:square;stroke-width:1.5;"/>
    <g/>
   </g>
   <g id="line2d_48">
    <path clip-path="url(#pc4c9bffd30)" d="M 194.045737 269.687762 
" style="fill:none;stroke:#6495ed;stroke-linecap:square;stroke-width:1.5;"/>
    <defs>
     <path d="M -12 12 
L 12 -12 
M -12 -12 
L 12 12 
" id="mecd950b513" style="stroke:#6495ed;"/>
    </defs>
    <g clip-path="url(#pc4c9bffd30)">
     <use style="fill:#6495ed;stroke:#6495ed;" x="194.045737" xlink:href="#mecd950b513" y="269.687762"/>
    </g>
   </g>
   <g id="line2d_49">
    <path d="M 338.688 264.524897 
L 369.60768 293.092752 
" style="fill:none;stroke:#6495ed;stroke-linecap:square;stroke-width:1.5;"/>
    <g>
     <use style="fill-opacity:0;stroke:#6495ed;stroke-linejoin:miter;stroke-width:1.5;" x="338.688" xlink:href="#m60b87ed5fd" y="264.524897"/>
     <use style="fill-opacity:0;stroke:#6495ed;stroke-linejoin:miter;stroke-width:1.5;" x="369.60768" xlink:href="#m60b87ed5fd" y="293.092752"/>
    </g>
   </g>
   <g id="line2d_50">
    <path d="M 338.688 253.051863 
L 369.60768 199.472792 
" style="fill:none;stroke:#ff7500;stroke-linecap:square;stroke-width:1.5;"/>
    <g>
     <use style="fill-opacity:0;stroke:#ff7500;stroke-linejoin:bevel;stroke-width:1.5;" x="338.688" xlink:href="#mbc64f951b5" y="253.051863"/>
     <use style="fill-opacity:0;stroke:#ff7500;stroke-linejoin:bevel;stroke-width:1.5;" x="369.60768" xlink:href="#mbc64f951b5" y="199.472792"/>
    </g>
   </g>
   <g id="line2d_51">
    <path d="M 338.688 195.686691 
L 369.60768 105.852832 
" style="fill:none;stroke:#ff00ff;stroke-linecap:square;stroke-width:1.5;"/>
    <g>
     <use style="fill-opacity:0;stroke:#ff00ff;stroke-linejoin:miter;stroke-width:1.5;" x="338.688" xlink:href="#ma91754f8df" y="195.686691"/>
     <use style="fill-opacity:0;stroke:#ff00ff;stroke-linejoin:miter;stroke-width:1.5;" x="369.60768" xlink:href="#ma91754f8df" y="105.852832"/>
    </g>
   </g>
   <g id="line2d_52">
    <path d="M 338.688 69.483313 
L 369.60768 12.232871 
" style="fill:none;stroke:#000080;stroke-linecap:square;stroke-width:1.5;"/>
    <g>
     <use style="fill-opacity:0;stroke:#000080;stroke-width:1.5;" x="338.688" xlink:href="#mb74cc346f9" y="69.483313"/>
     <use style="fill-opacity:0;stroke:#000080;stroke-width:1.5;" x="369.60768" xlink:href="#mb74cc346f9" y="12.232871"/>
    </g>
   </g>
   <g id="line2d_53">
    <path d="M 338.688 298.944 
L 338.688 6.381624 
" style="fill:none;stroke:#000000;stroke-linecap:square;stroke-width:1.5;"/>
   </g>
   <g id="patch_3">
    <path d="M 57.6 298.944 
L 57.6 3.456 
" style="fill:none;stroke:#000000;stroke-linecap:square;stroke-linejoin:miter;stroke-width:0.8;"/>
   </g>
   <g id="patch_4">
    <path d="M 338.688 298.944 
L 338.688 3.456 
" style="fill:none;stroke:#000000;stroke-linecap:square;stroke-linejoin:miter;stroke-width:0.8;"/>
   </g>
   <g id="patch_5">
    <path d="M 57.6 298.944 
L 338.688 298.944 
" style="fill:none;stroke:#000000;stroke-linecap:square;stroke-linejoin:miter;stroke-width:0.8;"/>
   </g>
   <g id="patch_6">
    <path d="M 57.6 3.456 
L 338.688 3.456 
" style="fill:none;stroke:#000000;stroke-linecap:square;stroke-linejoin:miter;stroke-width:0.8;"/>
   </g>
   <g id="text_13">
    <!-- f9 -->
    <g transform="translate(375.22944 297.78369)scale(0.17 -0.17)">
     <defs>
      <path d="M 703 97 
L 703 672 
Q 941 559 1184 500 
Q 1428 441 1663 441 
Q 2288 441 2617 861 
Q 2947 1281 2994 2138 
Q 2813 1869 2534 1725 
Q 2256 1581 1919 1581 
Q 1219 1581 811 2004 
Q 403 2428 403 3163 
Q 403 3881 828 4315 
Q 1253 4750 1959 4750 
Q 2769 4750 3195 4129 
Q 3622 3509 3622 2328 
Q 3622 1225 3098 567 
Q 2575 -91 1691 -91 
Q 1453 -91 1209 -44 
Q 966 3 703 97 
z
M 1959 2075 
Q 2384 2075 2632 2365 
Q 2881 2656 2881 3163 
Q 2881 3666 2632 3958 
Q 2384 4250 1959 4250 
Q 1534 4250 1286 3958 
Q 1038 3666 1038 3163 
Q 1038 2656 1286 2365 
Q 1534 2075 1959 2075 
z
" id="DejaVuSans-39" transform="scale(0.015625)"/>
     </defs>
     <use xlink:href="#DejaVuSans-66"/>
     <use x="35.205078" xlink:href="#DejaVuSans-39"/>
    </g>
   </g>
   <g id="text_14">
    <!-- f8 -->
    <g transform="translate(375.22944 204.16373)scale(0.17 -0.17)">
     <use xlink:href="#DejaVuSans-66"/>
     <use x="35.205078" xlink:href="#DejaVuSans-38"/>
    </g>
   </g>
   <g id="text_15">
    <!-- f7 -->
    <g transform="translate(375.22944 110.543769)scale(0.17 -0.17)">
     <defs>
      <path d="M 525 4666 
L 3525 4666 
L 3525 4397 
L 1831 0 
L 1172 0 
L 2766 4134 
L 525 4134 
L 525 4666 
z
" id="DejaVuSans-37" transform="scale(0.015625)"/>
     </defs>
     <use xlink:href="#DejaVuSans-66"/>
     <use x="35.205078" xlink:href="#DejaVuSans-37"/>
    </g>
   </g>
   <g id="text_16">
    <!-- f6 -->
    <g transform="translate(375.22944 16.923809)scale(0.17 -0.17)">
     <use xlink:href="#DejaVuSans-66"/>
     <use x="35.205078" xlink:href="#DejaVuSans-36"/>
    </g>
   </g>
   <g id="text_17">
    <!-- bbob -->
    <g transform="translate(60.41088 14.161286)scale(0.102 -0.102)">
     <defs>
      <path d="M 3116 1747 
Q 3116 2381 2855 2742 
Q 2594 3103 2138 3103 
Q 1681 3103 1420 2742 
Q 1159 2381 1159 1747 
Q 1159 1113 1420 752 
Q 1681 391 2138 391 
Q 2594 391 2855 752 
Q 3116 1113 3116 1747 
z
M 1159 2969 
Q 1341 3281 1617 3432 
Q 1894 3584 2278 3584 
Q 2916 3584 3314 3078 
Q 3713 2572 3713 1747 
Q 3713 922 3314 415 
Q 2916 -91 2278 -91 
Q 1894 -91 1617 61 
Q 1341 213 1159 525 
L 1159 0 
L 581 0 
L 581 4863 
L 1159 4863 
L 1159 2969 
z
" id="DejaVuSans-62" transform="scale(0.015625)"/>
     </defs>
     <use xlink:href="#DejaVuSans-62"/>
     <use x="63.476562" xlink:href="#DejaVuSans-62"/>
     <use x="126.953125" xlink:href="#DejaVuSans-6f"/>
     <use x="188.134766" xlink:href="#DejaVuSans-62"/>
    </g>
    <!-- Misc. moderate functions, 20-D -->
    <g transform="translate(60.41088 25.583055)scale(0.102 -0.102)">
     <defs>
      <path d="M 628 4666 
L 1569 4666 
L 2759 1491 
L 3956 4666 
L 4897 4666 
L 4897 0 
L 4281 0 
L 4281 4097 
L 3078 897 
L 2444 897 
L 1241 4097 
L 1241 0 
L 628 0 
L 628 4666 
z
" id="DejaVuSans-4d" transform="scale(0.015625)"/>
      <path d="M 1259 4147 
L 1259 519 
L 2022 519 
Q 2988 519 3436 956 
Q 3884 1394 3884 2338 
Q 3884 3275 3436 3711 
Q 2988 4147 2022 4147 
L 1259 4147 
z
M 628 4666 
L 1925 4666 
Q 3281 4666 3915 4102 
Q 4550 3538 4550 2338 
Q 4550 1131 3912 565 
Q 3275 0 1925 0 
L 628 0 
L 628 4666 
z
" id="DejaVuSans-44" transform="scale(0.015625)"/>
     </defs>
     <use xlink:href="#DejaVuSans-4d"/>
     <use x="86.279297" xlink:href="#DejaVuSans-69"/>
     <use x="114.0625" xlink:href="#DejaVuSans-73"/>
     <use x="166.162109" xlink:href="#DejaVuSans-63"/>
     <use x="221.142578" xlink:href="#DejaVuSans-2e"/>
     <use x="252.929688" xlink:href="#DejaVuSans-20"/>
     <use x="284.716797" xlink:href="#DejaVuSans-6d"/>
     <use x="382.128906" xlink:href="#DejaVuSans-6f"/>
     <use x="443.310547" xlink:href="#DejaVuSans-64"/>
     <use x="506.787109" xlink:href="#DejaVuSans-65"/>
     <use x="568.310547" xlink:href="#DejaVuSans-72"/>
     <use x="609.423828" xlink:href="#DejaVuSans-61"/>
     <use x="670.703125" xlink:href="#DejaVuSans-74"/>
     <use x="709.912109" xlink:href="#DejaVuSans-65"/>
     <use x="771.435547" xlink:href="#DejaVuSans-20"/>
     <use x="803.222656" xlink:href="#DejaVuSans-66"/>
     <use x="838.427734" xlink:href="#DejaVuSans-75"/>
     <use x="901.806641" xlink:href="#DejaVuSans-6e"/>
     <use x="965.185547" xlink:href="#DejaVuSans-63"/>
     <use x="1020.166016" xlink:href="#DejaVuSans-74"/>
     <use x="1059.375" xlink:href="#DejaVuSans-69"/>
     <use x="1087.158203" xlink:href="#DejaVuSans-6f"/>
     <use x="1148.339844" xlink:href="#DejaVuSans-6e"/>
     <use x="1211.71875" xlink:href="#DejaVuSans-73"/>
     <use x="1263.818359" xlink:href="#DejaVuSans-2c"/>
     <use x="1295.605469" xlink:href="#DejaVuSans-20"/>
     <use x="1327.392578" xlink:href="#DejaVuSans-32"/>
     <use x="1391.015625" xlink:href="#DejaVuSans-30"/>
     <use x="1454.638672" xlink:href="#DejaVuSans-2d"/>
     <use x="1490.722656" xlink:href="#DejaVuSans-44"/>
    </g>
    <!-- 51 targets: 100..1e-08 -->
    <g transform="translate(60.41088 37.004824)scale(0.102 -0.102)">
     <defs>
      <path d="M 691 4666 
L 3169 4666 
L 3169 4134 
L 1269 4134 
L 1269 2991 
Q 1406 3038 1543 3061 
Q 1681 3084 1819 3084 
Q 2600 3084 3056 2656 
Q 3513 2228 3513 1497 
Q 3513 744 3044 326 
Q 2575 -91 1722 -91 
Q 1428 -91 1123 -41 
Q 819 9 494 109 
L 494 744 
Q 775 591 1075 516 
Q 1375 441 1709 441 
Q 2250 441 2565 725 
Q 2881 1009 2881 1497 
Q 2881 1984 2565 2268 
Q 2250 2553 1709 2553 
Q 1456 2553 1204 2497 
Q 953 2441 691 2322 
L 691 4666 
z
" id="DejaVuSans-35" transform="scale(0.015625)"/>
      <path d="M 750 794 
L 1409 794 
L 1409 0 
L 750 0 
L 750 794 
z
M 750 3309 
L 1409 3309 
L 1409 2516 
L 750 2516 
L 750 3309 
z
" id="DejaVuSans-3a" transform="scale(0.015625)"/>
     </defs>
     <use xlink:href="#DejaVuSans-35"/>
     <use x="63.623047" xlink:href="#DejaVuSans-31"/>
     <use x="127.246094" xlink:href="#DejaVuSans-20"/>
     <use x="159.033203" xlink:href="#DejaVuSans-74"/>
     <use x="198.242188" xlink:href="#DejaVuSans-61"/>
     <use x="259.521484" xlink:href="#DejaVuSans-72"/>
     <use x="298.884766" xlink:href="#DejaVuSans-67"/>
     <use x="362.361328" xlink:href="#DejaVuSans-65"/>
     <use x="423.884766" xlink:href="#DejaVuSans-74"/>
     <use x="463.09375" xlink:href="#DejaVuSans-73"/>
     <use x="515.193359" xlink:href="#DejaVuSans-3a"/>
     <use x="548.884766" xlink:href="#DejaVuSans-20"/>
     <use x="580.671875" xlink:href="#DejaVuSans-31"/>
     <use x="644.294922" xlink:href="#DejaVuSans-30"/>
     <use x="707.917969" xlink:href="#DejaVuSans-30"/>
     <use x="771.541016" xlink:href="#DejaVuSans-2e"/>
     <use x="803.328125" xlink:href="#DejaVuSans-2e"/>
     <use x="835.115234" xlink:href="#DejaVuSans-31"/>
     <use x="898.738281" xlink:href="#DejaVuSans-65"/>
     <use x="960.261719" xlink:href="#DejaVuSans-2d"/>
     <use x="996.345703" xlink:href="#DejaVuSans-30"/>
     <use x="1059.96875" xlink:href="#DejaVuSans-38"/>
    </g>
    <!-- 15 instances -->
    <g transform="translate(60.41088 48.426593)scale(0.102 -0.102)">
     <use xlink:href="#DejaVuSans-31"/>
     <use x="63.623047" xlink:href="#DejaVuSans-35"/>
     <use x="127.246094" xlink:href="#DejaVuSans-20"/>
     <use x="159.033203" xlink:href="#DejaVuSans-69"/>
     <use x="186.816406" xlink:href="#DejaVuSans-6e"/>
     <use x="250.195312" xlink:href="#DejaVuSans-73"/>
     <use x="302.294922" xlink:href="#DejaVuSans-74"/>
     <use x="341.503906" xlink:href="#DejaVuSans-61"/>
     <use x="402.783203" xlink:href="#DejaVuSans-6e"/>
     <use x="466.162109" xlink:href="#DejaVuSans-63"/>
     <use x="521.142578" xlink:href="#DejaVuSans-65"/>
     <use x="582.666016" xlink:href="#DejaVuSans-73"/>
    </g>
   </g>
   <g id="text_18">
    <!-- v2.4 -->
    <g style="fill:#808080;" transform="translate(187.233062 293.909432)scale(0.1 -0.1)">
     <use xlink:href="#DejaVuSans-76"/>
     <use x="59.179688" xlink:href="#DejaVuSans-32"/>
     <use x="122.802734" xlink:href="#DejaVuSans-2e"/>
     <use x="154.589844" xlink:href="#DejaVuSans-34"/>
    </g>
   </g>
  </g>
 </g>
 <defs>
  <clipPath id="pc4c9bffd30">
   <rect height="295.488" width="281.088" x="57.6" y="3.456"/>
  </clipPath>
 </defs>
</svg>
