<?xml version="1.0" encoding="utf-8" standalone="no"?>
<!DOCTYPE svg PUBLIC "-//W3C//DTD SVG 1.1//EN"
  "http://www.w3.org/Graphics/SVG/1.1/DTD/svg11.dtd">
<svg height="345.6pt" version="1.1" viewBox="0 0 460.8 345.6" width="460.8pt" xmlns="http://www.w3.org/2000/svg" xmlns:xlink="http://www.w3.org/1999/xlink">
 <metadata>
  <rdf:RDF xmlns:cc="http://creativecommons.org/ns#" xmlns:dc="http://purl.org/dc/elements/1.1/" xmlns:rdf="http://www.w3.org/1999/02/22-rdf-syntax-ns#">
   <cc:Work>
    <dc:type rdf:resource="http://purl.org/dc/dcmitype/StillImage"/>
    <dc:date>2021-04-28T13:33:58.822576</dc:date>
    <dc:format>image/svg+xml</dc:format>
    <dc:creator>
     <cc:Agent>
      <dc:title>Matplotlib v3.4.1, https://matplotlib.org/</dc:title>
     </cc:Agent>
    </dc:creator>
   </cc:Work>
  </rdf:RDF>
 </metadata>
 <defs>
  <style type="text/css">*{stroke-linecap:butt;stroke-linejoin:round;}</style>
 </defs>
 <g id="figure_1">
  <g id="patch_1">
   <path d="M 0 345.6 
L 460.8 345.6 
L 460.8 0 
L 0 0 
z
" style="fill:#ffffff;"/>
  </g>
  <g id="axes_1">
   <g id="patch_2">
    <path d="M 57.6 298.944 
L 338.688 298.944 
L 338.688 27.648 
L 57.6 27.648 
z
" style="fill:#ffffff;"/>
   </g>
   <g id="matplotlib.axis_1">
    <g id="xtick_1">
     <g id="line2d_1">
      <path clip-path="url(#p937264636b)" d="M 57.6 298.944 
L 57.6 27.648 
" style="fill:none;stroke:#b0b0b0;stroke-linecap:square;stroke-width:0.8;"/>
     </g>
     <g id="line2d_2">
      <defs>
       <path d="M 0 0 
L 0 3.5 
" id="m8cabbbf37a" style="stroke:#000000;stroke-width:0.8;"/>
      </defs>
      <g>
       <use style="stroke:#000000;stroke-width:0.8;" x="57.6" xlink:href="#m8cabbbf37a" y="298.944"/>
      </g>
     </g>
     <g id="text_1">
      <!-- 0 -->
      <g transform="translate(51.2375 321.140875)scale(0.2 -0.2)">
       <defs>
        <path d="M 2034 4250 
Q 1547 4250 1301 3770 
Q 1056 3291 1056 2328 
Q 1056 1369 1301 889 
Q 1547 409 2034 409 
Q 2525 409 2770 889 
Q 3016 1369 3016 2328 
Q 3016 3291 2770 3770 
Q 2525 4250 2034 4250 
z
M 2034 4750 
Q 2819 4750 3233 4129 
Q 3647 3509 3647 2328 
Q 3647 1150 3233 529 
Q 2819 -91 2034 -91 
Q 1250 -91 836 529 
Q 422 1150 422 2328 
Q 422 3509 836 4129 
Q 1250 4750 2034 4750 
z
" id="DejaVuSans-30" transform="scale(0.015625)"/>
       </defs>
       <use xlink:href="#DejaVuSans-30"/>
      </g>
     </g>
    </g>
    <g id="xtick_2">
     <g id="line2d_3">
      <path clip-path="url(#p937264636b)" d="M 137.910857 298.944 
L 137.910857 27.648 
" style="fill:none;stroke:#b0b0b0;stroke-linecap:square;stroke-width:0.8;"/>
     </g>
     <g id="line2d_4">
      <g>
       <use style="stroke:#000000;stroke-width:0.8;" x="137.910857" xlink:href="#m8cabbbf37a" y="298.944"/>
      </g>
     </g>
     <g id="text_2">
      <!-- 2 -->
      <g transform="translate(131.548357 321.140875)scale(0.2 -0.2)">
       <defs>
        <path d="M 1228 531 
L 3431 531 
L 3431 0 
L 469 0 
L 469 531 
Q 828 903 1448 1529 
Q 2069 2156 2228 2338 
Q 2531 2678 2651 2914 
Q 2772 3150 2772 3378 
Q 2772 3750 2511 3984 
Q 2250 4219 1831 4219 
Q 1534 4219 1204 4116 
Q 875 4013 500 3803 
L 500 4441 
Q 881 4594 1212 4672 
Q 1544 4750 1819 4750 
Q 2544 4750 2975 4387 
Q 3406 4025 3406 3419 
Q 3406 3131 3298 2873 
Q 3191 2616 2906 2266 
Q 2828 2175 2409 1742 
Q 1991 1309 1228 531 
z
" id="DejaVuSans-32" transform="scale(0.015625)"/>
       </defs>
       <use xlink:href="#DejaVuSans-32"/>
      </g>
     </g>
    </g>
    <g id="xtick_3">
     <g id="line2d_5">
      <path clip-path="url(#p937264636b)" d="M 218.221714 298.944 
L 218.221714 27.648 
" style="fill:none;stroke:#b0b0b0;stroke-linecap:square;stroke-width:0.8;"/>
     </g>
     <g id="line2d_6">
      <g>
       <use style="stroke:#000000;stroke-width:0.8;" x="218.221714" xlink:href="#m8cabbbf37a" y="298.944"/>
      </g>
     </g>
     <g id="text_3">
      <!-- 4 -->
      <g transform="translate(211.859214 321.140875)scale(0.2 -0.2)">
       <defs>
        <path d="M 2419 4116 
L 825 1625 
L 2419 1625 
L 2419 4116 
z
M 2253 4666 
L 3047 4666 
L 3047 1625 
L 3713 1625 
L 3713 1100 
L 3047 1100 
L 3047 0 
L 2419 0 
L 2419 1100 
L 313 1100 
L 313 1709 
L 2253 4666 
z
" id="DejaVuSans-34" transform="scale(0.015625)"/>
       </defs>
       <use xlink:href="#DejaVuSans-34"/>
      </g>
     </g>
    </g>
    <g id="xtick_4">
     <g id="line2d_7">
      <path clip-path="url(#p937264636b)" d="M 298.532571 298.944 
L 298.532571 27.648 
" style="fill:none;stroke:#b0b0b0;stroke-linecap:square;stroke-width:0.8;"/>
     </g>
     <g id="line2d_8">
      <g>
       <use style="stroke:#000000;stroke-width:0.8;" x="298.532571" xlink:href="#m8cabbbf37a" y="298.944"/>
      </g>
     </g>
     <g id="text_4">
      <!-- 6 -->
      <g transform="translate(292.170071 321.140875)scale(0.2 -0.2)">
       <defs>
        <path d="M 2113 2584 
Q 1688 2584 1439 2293 
Q 1191 2003 1191 1497 
Q 1191 994 1439 701 
Q 1688 409 2113 409 
Q 2538 409 2786 701 
Q 3034 994 3034 1497 
Q 3034 2003 2786 2293 
Q 2538 2584 2113 2584 
z
M 3366 4563 
L 3366 3988 
Q 3128 4100 2886 4159 
Q 2644 4219 2406 4219 
Q 1781 4219 1451 3797 
Q 1122 3375 1075 2522 
Q 1259 2794 1537 2939 
Q 1816 3084 2150 3084 
Q 2853 3084 3261 2657 
Q 3669 2231 3669 1497 
Q 3669 778 3244 343 
Q 2819 -91 2113 -91 
Q 1303 -91 875 529 
Q 447 1150 447 2328 
Q 447 3434 972 4092 
Q 1497 4750 2381 4750 
Q 2619 4750 2861 4703 
Q 3103 4656 3366 4563 
z
" id="DejaVuSans-36" transform="scale(0.015625)"/>
       </defs>
       <use xlink:href="#DejaVuSans-36"/>
      </g>
     </g>
    </g>
    <g id="xtick_5">
     <g id="line2d_9">
      <path clip-path="url(#p937264636b)" d="M 97.755429 298.944 
L 97.755429 27.648 
" style="fill:none;stroke:#b0b0b0;stroke-linecap:square;stroke-width:0.8;"/>
     </g>
     <g id="line2d_10">
      <defs>
       <path d="M 0 0 
L 0 2 
" id="m7e13ba0b2c" style="stroke:#000000;stroke-width:0.6;"/>
      </defs>
      <g>
       <use style="stroke:#000000;stroke-width:0.6;" x="97.755429" xlink:href="#m7e13ba0b2c" y="298.944"/>
      </g>
     </g>
    </g>
    <g id="xtick_6">
     <g id="line2d_11">
      <path clip-path="url(#p937264636b)" d="M 178.066286 298.944 
L 178.066286 27.648 
" style="fill:none;stroke:#b0b0b0;stroke-linecap:square;stroke-width:0.8;"/>
     </g>
     <g id="line2d_12">
      <g>
       <use style="stroke:#000000;stroke-width:0.6;" x="178.066286" xlink:href="#m7e13ba0b2c" y="298.944"/>
      </g>
     </g>
    </g>
    <g id="xtick_7">
     <g id="line2d_13">
      <path clip-path="url(#p937264636b)" d="M 258.377143 298.944 
L 258.377143 27.648 
" style="fill:none;stroke:#b0b0b0;stroke-linecap:square;stroke-width:0.8;"/>
     </g>
     <g id="line2d_14">
      <g>
       <use style="stroke:#000000;stroke-width:0.6;" x="258.377143" xlink:href="#m7e13ba0b2c" y="298.944"/>
      </g>
     </g>
    </g>
    <g id="xtick_8">
     <g id="line2d_15">
      <path clip-path="url(#p937264636b)" d="M 338.688 298.944 
L 338.688 27.648 
" style="fill:none;stroke:#b0b0b0;stroke-linecap:square;stroke-width:0.8;"/>
     </g>
     <g id="line2d_16">
      <g>
       <use style="stroke:#000000;stroke-width:0.6;" x="338.688" xlink:href="#m7e13ba0b2c" y="298.944"/>
      </g>
     </g>
    </g>
    <g id="text_5">
     <!-- log10(# f-evals / dimension) -->
     <g transform="translate(77.764078 342.217594)scale(0.17 -0.17)">
      <defs>
       <path d="M 603 4863 
L 1178 4863 
L 1178 0 
L 603 0 
L 603 4863 
z
" id="DejaVuSans-6c" transform="scale(0.015625)"/>
       <path d="M 1959 3097 
Q 1497 3097 1228 2736 
Q 959 2375 959 1747 
Q 959 1119 1226 758 
Q 1494 397 1959 397 
Q 2419 397 2687 759 
Q 2956 1122 2956 1747 
Q 2956 2369 2687 2733 
Q 2419 3097 1959 3097 
z
M 1959 3584 
Q 2709 3584 3137 3096 
Q 3566 2609 3566 1747 
Q 3566 888 3137 398 
Q 2709 -91 1959 -91 
Q 1206 -91 779 398 
Q 353 888 353 1747 
Q 353 2609 779 3096 
Q 1206 3584 1959 3584 
z
" id="DejaVuSans-6f" transform="scale(0.015625)"/>
       <path d="M 2906 1791 
Q 2906 2416 2648 2759 
Q 2391 3103 1925 3103 
Q 1463 3103 1205 2759 
Q 947 2416 947 1791 
Q 947 1169 1205 825 
Q 1463 481 1925 481 
Q 2391 481 2648 825 
Q 2906 1169 2906 1791 
z
M 3481 434 
Q 3481 -459 3084 -895 
Q 2688 -1331 1869 -1331 
Q 1566 -1331 1297 -1286 
Q 1028 -1241 775 -1147 
L 775 -588 
Q 1028 -725 1275 -790 
Q 1522 -856 1778 -856 
Q 2344 -856 2625 -561 
Q 2906 -266 2906 331 
L 2906 616 
Q 2728 306 2450 153 
Q 2172 0 1784 0 
Q 1141 0 747 490 
Q 353 981 353 1791 
Q 353 2603 747 3093 
Q 1141 3584 1784 3584 
Q 2172 3584 2450 3431 
Q 2728 3278 2906 2969 
L 2906 3500 
L 3481 3500 
L 3481 434 
z
" id="DejaVuSans-67" transform="scale(0.015625)"/>
       <path d="M 794 531 
L 1825 531 
L 1825 4091 
L 703 3866 
L 703 4441 
L 1819 4666 
L 2450 4666 
L 2450 531 
L 3481 531 
L 3481 0 
L 794 0 
L 794 531 
z
" id="DejaVuSans-31" transform="scale(0.015625)"/>
       <path d="M 1984 4856 
Q 1566 4138 1362 3434 
Q 1159 2731 1159 2009 
Q 1159 1288 1364 580 
Q 1569 -128 1984 -844 
L 1484 -844 
Q 1016 -109 783 600 
Q 550 1309 550 2009 
Q 550 2706 781 3412 
Q 1013 4119 1484 4856 
L 1984 4856 
z
" id="DejaVuSans-28" transform="scale(0.015625)"/>
       <path d="M 3272 2816 
L 2363 2816 
L 2100 1772 
L 3016 1772 
L 3272 2816 
z
M 2803 4594 
L 2478 3297 
L 3391 3297 
L 3719 4594 
L 4219 4594 
L 3897 3297 
L 4872 3297 
L 4872 2816 
L 3775 2816 
L 3519 1772 
L 4513 1772 
L 4513 1294 
L 3397 1294 
L 3072 0 
L 2572 0 
L 2894 1294 
L 1978 1294 
L 1656 0 
L 1153 0 
L 1478 1294 
L 494 1294 
L 494 1772 
L 1594 1772 
L 1856 2816 
L 850 2816 
L 850 3297 
L 1978 3297 
L 2297 4594 
L 2803 4594 
z
" id="DejaVuSans-23" transform="scale(0.015625)"/>
       <path id="DejaVuSans-20" transform="scale(0.015625)"/>
       <path d="M 2375 4863 
L 2375 4384 
L 1825 4384 
Q 1516 4384 1395 4259 
Q 1275 4134 1275 3809 
L 1275 3500 
L 2222 3500 
L 2222 3053 
L 1275 3053 
L 1275 0 
L 697 0 
L 697 3053 
L 147 3053 
L 147 3500 
L 697 3500 
L 697 3744 
Q 697 4328 969 4595 
Q 1241 4863 1831 4863 
L 2375 4863 
z
" id="DejaVuSans-66" transform="scale(0.015625)"/>
       <path d="M 313 2009 
L 1997 2009 
L 1997 1497 
L 313 1497 
L 313 2009 
z
" id="DejaVuSans-2d" transform="scale(0.015625)"/>
       <path d="M 3597 1894 
L 3597 1613 
L 953 1613 
Q 991 1019 1311 708 
Q 1631 397 2203 397 
Q 2534 397 2845 478 
Q 3156 559 3463 722 
L 3463 178 
Q 3153 47 2828 -22 
Q 2503 -91 2169 -91 
Q 1331 -91 842 396 
Q 353 884 353 1716 
Q 353 2575 817 3079 
Q 1281 3584 2069 3584 
Q 2775 3584 3186 3129 
Q 3597 2675 3597 1894 
z
M 3022 2063 
Q 3016 2534 2758 2815 
Q 2500 3097 2075 3097 
Q 1594 3097 1305 2825 
Q 1016 2553 972 2059 
L 3022 2063 
z
" id="DejaVuSans-65" transform="scale(0.015625)"/>
       <path d="M 191 3500 
L 800 3500 
L 1894 563 
L 2988 3500 
L 3597 3500 
L 2284 0 
L 1503 0 
L 191 3500 
z
" id="DejaVuSans-76" transform="scale(0.015625)"/>
       <path d="M 2194 1759 
Q 1497 1759 1228 1600 
Q 959 1441 959 1056 
Q 959 750 1161 570 
Q 1363 391 1709 391 
Q 2188 391 2477 730 
Q 2766 1069 2766 1631 
L 2766 1759 
L 2194 1759 
z
M 3341 1997 
L 3341 0 
L 2766 0 
L 2766 531 
Q 2569 213 2275 61 
Q 1981 -91 1556 -91 
Q 1019 -91 701 211 
Q 384 513 384 1019 
Q 384 1609 779 1909 
Q 1175 2209 1959 2209 
L 2766 2209 
L 2766 2266 
Q 2766 2663 2505 2880 
Q 2244 3097 1772 3097 
Q 1472 3097 1187 3025 
Q 903 2953 641 2809 
L 641 3341 
Q 956 3463 1253 3523 
Q 1550 3584 1831 3584 
Q 2591 3584 2966 3190 
Q 3341 2797 3341 1997 
z
" id="DejaVuSans-61" transform="scale(0.015625)"/>
       <path d="M 2834 3397 
L 2834 2853 
Q 2591 2978 2328 3040 
Q 2066 3103 1784 3103 
Q 1356 3103 1142 2972 
Q 928 2841 928 2578 
Q 928 2378 1081 2264 
Q 1234 2150 1697 2047 
L 1894 2003 
Q 2506 1872 2764 1633 
Q 3022 1394 3022 966 
Q 3022 478 2636 193 
Q 2250 -91 1575 -91 
Q 1294 -91 989 -36 
Q 684 19 347 128 
L 347 722 
Q 666 556 975 473 
Q 1284 391 1588 391 
Q 1994 391 2212 530 
Q 2431 669 2431 922 
Q 2431 1156 2273 1281 
Q 2116 1406 1581 1522 
L 1381 1569 
Q 847 1681 609 1914 
Q 372 2147 372 2553 
Q 372 3047 722 3315 
Q 1072 3584 1716 3584 
Q 2034 3584 2315 3537 
Q 2597 3491 2834 3397 
z
" id="DejaVuSans-73" transform="scale(0.015625)"/>
       <path d="M 1625 4666 
L 2156 4666 
L 531 -594 
L 0 -594 
L 1625 4666 
z
" id="DejaVuSans-2f" transform="scale(0.015625)"/>
       <path d="M 2906 2969 
L 2906 4863 
L 3481 4863 
L 3481 0 
L 2906 0 
L 2906 525 
Q 2725 213 2448 61 
Q 2172 -91 1784 -91 
Q 1150 -91 751 415 
Q 353 922 353 1747 
Q 353 2572 751 3078 
Q 1150 3584 1784 3584 
Q 2172 3584 2448 3432 
Q 2725 3281 2906 2969 
z
M 947 1747 
Q 947 1113 1208 752 
Q 1469 391 1925 391 
Q 2381 391 2643 752 
Q 2906 1113 2906 1747 
Q 2906 2381 2643 2742 
Q 2381 3103 1925 3103 
Q 1469 3103 1208 2742 
Q 947 2381 947 1747 
z
" id="DejaVuSans-64" transform="scale(0.015625)"/>
       <path d="M 603 3500 
L 1178 3500 
L 1178 0 
L 603 0 
L 603 3500 
z
M 603 4863 
L 1178 4863 
L 1178 4134 
L 603 4134 
L 603 4863 
z
" id="DejaVuSans-69" transform="scale(0.015625)"/>
       <path d="M 3328 2828 
Q 3544 3216 3844 3400 
Q 4144 3584 4550 3584 
Q 5097 3584 5394 3201 
Q 5691 2819 5691 2113 
L 5691 0 
L 5113 0 
L 5113 2094 
Q 5113 2597 4934 2840 
Q 4756 3084 4391 3084 
Q 3944 3084 3684 2787 
Q 3425 2491 3425 1978 
L 3425 0 
L 2847 0 
L 2847 2094 
Q 2847 2600 2669 2842 
Q 2491 3084 2119 3084 
Q 1678 3084 1418 2786 
Q 1159 2488 1159 1978 
L 1159 0 
L 581 0 
L 581 3500 
L 1159 3500 
L 1159 2956 
Q 1356 3278 1631 3431 
Q 1906 3584 2284 3584 
Q 2666 3584 2933 3390 
Q 3200 3197 3328 2828 
z
" id="DejaVuSans-6d" transform="scale(0.015625)"/>
       <path d="M 3513 2113 
L 3513 0 
L 2938 0 
L 2938 2094 
Q 2938 2591 2744 2837 
Q 2550 3084 2163 3084 
Q 1697 3084 1428 2787 
Q 1159 2491 1159 1978 
L 1159 0 
L 581 0 
L 581 3500 
L 1159 3500 
L 1159 2956 
Q 1366 3272 1645 3428 
Q 1925 3584 2291 3584 
Q 2894 3584 3203 3211 
Q 3513 2838 3513 2113 
z
" id="DejaVuSans-6e" transform="scale(0.015625)"/>
       <path d="M 513 4856 
L 1013 4856 
Q 1481 4119 1714 3412 
Q 1947 2706 1947 2009 
Q 1947 1309 1714 600 
Q 1481 -109 1013 -844 
L 513 -844 
Q 928 -128 1133 580 
Q 1338 1288 1338 2009 
Q 1338 2731 1133 3434 
Q 928 4138 513 4856 
z
" id="DejaVuSans-29" transform="scale(0.015625)"/>
      </defs>
      <use xlink:href="#DejaVuSans-6c"/>
      <use x="27.783203" xlink:href="#DejaVuSans-6f"/>
      <use x="88.964844" xlink:href="#DejaVuSans-67"/>
      <use x="152.441406" xlink:href="#DejaVuSans-31"/>
      <use x="216.064453" xlink:href="#DejaVuSans-30"/>
      <use x="279.6875" xlink:href="#DejaVuSans-28"/>
      <use x="318.701172" xlink:href="#DejaVuSans-23"/>
      <use x="402.490234" xlink:href="#DejaVuSans-20"/>
      <use x="434.277344" xlink:href="#DejaVuSans-66"/>
      <use x="463.982422" xlink:href="#DejaVuSans-2d"/>
      <use x="500.066406" xlink:href="#DejaVuSans-65"/>
      <use x="561.589844" xlink:href="#DejaVuSans-76"/>
      <use x="620.769531" xlink:href="#DejaVuSans-61"/>
      <use x="682.048828" xlink:href="#DejaVuSans-6c"/>
      <use x="709.832031" xlink:href="#DejaVuSans-73"/>
      <use x="761.931641" xlink:href="#DejaVuSans-20"/>
      <use x="793.71875" xlink:href="#DejaVuSans-2f"/>
      <use x="827.410156" xlink:href="#DejaVuSans-20"/>
      <use x="859.197266" xlink:href="#DejaVuSans-64"/>
      <use x="922.673828" xlink:href="#DejaVuSans-69"/>
      <use x="950.457031" xlink:href="#DejaVuSans-6d"/>
      <use x="1047.869141" xlink:href="#DejaVuSans-65"/>
      <use x="1109.392578" xlink:href="#DejaVuSans-6e"/>
      <use x="1172.771484" xlink:href="#DejaVuSans-73"/>
      <use x="1224.871094" xlink:href="#DejaVuSans-69"/>
      <use x="1252.654297" xlink:href="#DejaVuSans-6f"/>
      <use x="1313.835938" xlink:href="#DejaVuSans-6e"/>
      <use x="1377.214844" xlink:href="#DejaVuSans-29"/>
     </g>
    </g>
   </g>
   <g id="matplotlib.axis_2">
    <g id="ytick_1">
     <g id="line2d_17">
      <path clip-path="url(#p937264636b)" d="M 57.6 298.944 
L 338.688 298.944 
" style="fill:none;stroke:#b0b0b0;stroke-linecap:square;stroke-width:0.8;"/>
     </g>
     <g id="line2d_18">
      <defs>
       <path d="M 0 0 
L -3.5 0 
" id="mb0815ce4aa" style="stroke:#000000;stroke-width:0.8;"/>
      </defs>
      <g>
       <use style="stroke:#000000;stroke-width:0.8;" x="57.6" xlink:href="#mb0815ce4aa" y="298.944"/>
      </g>
     </g>
     <g id="text_6">
      <!-- 0.0 -->
      <g transform="translate(25.155 305.02275)scale(0.16 -0.16)">
       <defs>
        <path d="M 684 794 
L 1344 794 
L 1344 0 
L 684 0 
L 684 794 
z
" id="DejaVuSans-2e" transform="scale(0.015625)"/>
       </defs>
       <use xlink:href="#DejaVuSans-30"/>
       <use x="63.623047" xlink:href="#DejaVuSans-2e"/>
       <use x="95.410156" xlink:href="#DejaVuSans-30"/>
      </g>
     </g>
    </g>
    <g id="ytick_2">
     <g id="line2d_19">
      <path clip-path="url(#p937264636b)" d="M 57.6 245.22202 
L 338.688 245.22202 
" style="fill:none;stroke:#b0b0b0;stroke-linecap:square;stroke-width:0.8;"/>
     </g>
     <g id="line2d_20">
      <g>
       <use style="stroke:#000000;stroke-width:0.8;" x="57.6" xlink:href="#mb0815ce4aa" y="245.22202"/>
      </g>
     </g>
     <g id="text_7">
      <!-- 0.2 -->
      <g transform="translate(25.155 251.30077)scale(0.16 -0.16)">
       <use xlink:href="#DejaVuSans-30"/>
       <use x="63.623047" xlink:href="#DejaVuSans-2e"/>
       <use x="95.410156" xlink:href="#DejaVuSans-32"/>
      </g>
     </g>
    </g>
    <g id="ytick_3">
     <g id="line2d_21">
      <path clip-path="url(#p937264636b)" d="M 57.6 191.50004 
L 338.688 191.50004 
" style="fill:none;stroke:#b0b0b0;stroke-linecap:square;stroke-width:0.8;"/>
     </g>
     <g id="line2d_22">
      <g>
       <use style="stroke:#000000;stroke-width:0.8;" x="57.6" xlink:href="#mb0815ce4aa" y="191.50004"/>
      </g>
     </g>
     <g id="text_8">
      <!-- 0.4 -->
      <g transform="translate(25.155 197.57879)scale(0.16 -0.16)">
       <use xlink:href="#DejaVuSans-30"/>
       <use x="63.623047" xlink:href="#DejaVuSans-2e"/>
       <use x="95.410156" xlink:href="#DejaVuSans-34"/>
      </g>
     </g>
    </g>
    <g id="ytick_4">
     <g id="line2d_23">
      <path clip-path="url(#p937264636b)" d="M 57.6 137.778059 
L 338.688 137.778059 
" style="fill:none;stroke:#b0b0b0;stroke-linecap:square;stroke-width:0.8;"/>
     </g>
     <g id="line2d_24">
      <g>
       <use style="stroke:#000000;stroke-width:0.8;" x="57.6" xlink:href="#mb0815ce4aa" y="137.778059"/>
      </g>
     </g>
     <g id="text_9">
      <!-- 0.6 -->
      <g transform="translate(25.155 143.856809)scale(0.16 -0.16)">
       <use xlink:href="#DejaVuSans-30"/>
       <use x="63.623047" xlink:href="#DejaVuSans-2e"/>
       <use x="95.410156" xlink:href="#DejaVuSans-36"/>
      </g>
     </g>
    </g>
    <g id="ytick_5">
     <g id="line2d_25">
      <path clip-path="url(#p937264636b)" d="M 57.6 84.056079 
L 338.688 84.056079 
" style="fill:none;stroke:#b0b0b0;stroke-linecap:square;stroke-width:0.8;"/>
     </g>
     <g id="line2d_26">
      <g>
       <use style="stroke:#000000;stroke-width:0.8;" x="57.6" xlink:href="#mb0815ce4aa" y="84.056079"/>
      </g>
     </g>
     <g id="text_10">
      <!-- 0.8 -->
      <g transform="translate(25.155 90.134829)scale(0.16 -0.16)">
       <defs>
        <path d="M 2034 2216 
Q 1584 2216 1326 1975 
Q 1069 1734 1069 1313 
Q 1069 891 1326 650 
Q 1584 409 2034 409 
Q 2484 409 2743 651 
Q 3003 894 3003 1313 
Q 3003 1734 2745 1975 
Q 2488 2216 2034 2216 
z
M 1403 2484 
Q 997 2584 770 2862 
Q 544 3141 544 3541 
Q 544 4100 942 4425 
Q 1341 4750 2034 4750 
Q 2731 4750 3128 4425 
Q 3525 4100 3525 3541 
Q 3525 3141 3298 2862 
Q 3072 2584 2669 2484 
Q 3125 2378 3379 2068 
Q 3634 1759 3634 1313 
Q 3634 634 3220 271 
Q 2806 -91 2034 -91 
Q 1263 -91 848 271 
Q 434 634 434 1313 
Q 434 1759 690 2068 
Q 947 2378 1403 2484 
z
M 1172 3481 
Q 1172 3119 1398 2916 
Q 1625 2713 2034 2713 
Q 2441 2713 2670 2916 
Q 2900 3119 2900 3481 
Q 2900 3844 2670 4047 
Q 2441 4250 2034 4250 
Q 1625 4250 1398 4047 
Q 1172 3844 1172 3481 
z
" id="DejaVuSans-38" transform="scale(0.015625)"/>
       </defs>
       <use xlink:href="#DejaVuSans-30"/>
       <use x="63.623047" xlink:href="#DejaVuSans-2e"/>
       <use x="95.410156" xlink:href="#DejaVuSans-38"/>
      </g>
     </g>
    </g>
    <g id="ytick_6">
     <g id="line2d_27">
      <path clip-path="url(#p937264636b)" d="M 57.6 30.334099 
L 338.688 30.334099 
" style="fill:none;stroke:#b0b0b0;stroke-linecap:square;stroke-width:0.8;"/>
     </g>
     <g id="line2d_28">
      <g>
       <use style="stroke:#000000;stroke-width:0.8;" x="57.6" xlink:href="#mb0815ce4aa" y="30.334099"/>
      </g>
     </g>
     <g id="text_11">
      <!-- 1.0 -->
      <g transform="translate(25.155 36.412849)scale(0.16 -0.16)">
       <use xlink:href="#DejaVuSans-31"/>
       <use x="63.623047" xlink:href="#DejaVuSans-2e"/>
       <use x="95.410156" xlink:href="#DejaVuSans-30"/>
      </g>
     </g>
    </g>
    <g id="text_12">
     <!-- Fraction of function,target pairs -->
     <g transform="translate(17.619531 297.681)rotate(-90)scale(0.17 -0.17)">
      <defs>
       <path d="M 628 4666 
L 3309 4666 
L 3309 4134 
L 1259 4134 
L 1259 2759 
L 3109 2759 
L 3109 2228 
L 1259 2228 
L 1259 0 
L 628 0 
L 628 4666 
z
" id="DejaVuSans-46" transform="scale(0.015625)"/>
       <path d="M 2631 2963 
Q 2534 3019 2420 3045 
Q 2306 3072 2169 3072 
Q 1681 3072 1420 2755 
Q 1159 2438 1159 1844 
L 1159 0 
L 581 0 
L 581 3500 
L 1159 3500 
L 1159 2956 
Q 1341 3275 1631 3429 
Q 1922 3584 2338 3584 
Q 2397 3584 2469 3576 
Q 2541 3569 2628 3553 
L 2631 2963 
z
" id="DejaVuSans-72" transform="scale(0.015625)"/>
       <path d="M 3122 3366 
L 3122 2828 
Q 2878 2963 2633 3030 
Q 2388 3097 2138 3097 
Q 1578 3097 1268 2742 
Q 959 2388 959 1747 
Q 959 1106 1268 751 
Q 1578 397 2138 397 
Q 2388 397 2633 464 
Q 2878 531 3122 666 
L 3122 134 
Q 2881 22 2623 -34 
Q 2366 -91 2075 -91 
Q 1284 -91 818 406 
Q 353 903 353 1747 
Q 353 2603 823 3093 
Q 1294 3584 2113 3584 
Q 2378 3584 2631 3529 
Q 2884 3475 3122 3366 
z
" id="DejaVuSans-63" transform="scale(0.015625)"/>
       <path d="M 1172 4494 
L 1172 3500 
L 2356 3500 
L 2356 3053 
L 1172 3053 
L 1172 1153 
Q 1172 725 1289 603 
Q 1406 481 1766 481 
L 2356 481 
L 2356 0 
L 1766 0 
Q 1100 0 847 248 
Q 594 497 594 1153 
L 594 3053 
L 172 3053 
L 172 3500 
L 594 3500 
L 594 4494 
L 1172 4494 
z
" id="DejaVuSans-74" transform="scale(0.015625)"/>
       <path d="M 544 1381 
L 544 3500 
L 1119 3500 
L 1119 1403 
Q 1119 906 1312 657 
Q 1506 409 1894 409 
Q 2359 409 2629 706 
Q 2900 1003 2900 1516 
L 2900 3500 
L 3475 3500 
L 3475 0 
L 2900 0 
L 2900 538 
Q 2691 219 2414 64 
Q 2138 -91 1772 -91 
Q 1169 -91 856 284 
Q 544 659 544 1381 
z
M 1991 3584 
L 1991 3584 
z
" id="DejaVuSans-75" transform="scale(0.015625)"/>
       <path d="M 750 794 
L 1409 794 
L 1409 256 
L 897 -744 
L 494 -744 
L 750 256 
L 750 794 
z
" id="DejaVuSans-2c" transform="scale(0.015625)"/>
       <path d="M 1159 525 
L 1159 -1331 
L 581 -1331 
L 581 3500 
L 1159 3500 
L 1159 2969 
Q 1341 3281 1617 3432 
Q 1894 3584 2278 3584 
Q 2916 3584 3314 3078 
Q 3713 2572 3713 1747 
Q 3713 922 3314 415 
Q 2916 -91 2278 -91 
Q 1894 -91 1617 61 
Q 1341 213 1159 525 
z
M 3116 1747 
Q 3116 2381 2855 2742 
Q 2594 3103 2138 3103 
Q 1681 3103 1420 2742 
Q 1159 2381 1159 1747 
Q 1159 1113 1420 752 
Q 1681 391 2138 391 
Q 2594 391 2855 752 
Q 3116 1113 3116 1747 
z
" id="DejaVuSans-70" transform="scale(0.015625)"/>
      </defs>
      <use xlink:href="#DejaVuSans-46"/>
      <use x="50.269531" xlink:href="#DejaVuSans-72"/>
      <use x="91.382812" xlink:href="#DejaVuSans-61"/>
      <use x="152.662109" xlink:href="#DejaVuSans-63"/>
      <use x="207.642578" xlink:href="#DejaVuSans-74"/>
      <use x="246.851562" xlink:href="#DejaVuSans-69"/>
      <use x="274.634766" xlink:href="#DejaVuSans-6f"/>
      <use x="335.816406" xlink:href="#DejaVuSans-6e"/>
      <use x="399.195312" xlink:href="#DejaVuSans-20"/>
      <use x="430.982422" xlink:href="#DejaVuSans-6f"/>
      <use x="492.164062" xlink:href="#DejaVuSans-66"/>
      <use x="527.369141" xlink:href="#DejaVuSans-20"/>
      <use x="559.15625" xlink:href="#DejaVuSans-66"/>
      <use x="594.361328" xlink:href="#DejaVuSans-75"/>
      <use x="657.740234" xlink:href="#DejaVuSans-6e"/>
      <use x="721.119141" xlink:href="#DejaVuSans-63"/>
      <use x="776.099609" xlink:href="#DejaVuSans-74"/>
      <use x="815.308594" xlink:href="#DejaVuSans-69"/>
      <use x="843.091797" xlink:href="#DejaVuSans-6f"/>
      <use x="904.273438" xlink:href="#DejaVuSans-6e"/>
      <use x="967.652344" xlink:href="#DejaVuSans-2c"/>
      <use x="999.439453" xlink:href="#DejaVuSans-74"/>
      <use x="1038.648438" xlink:href="#DejaVuSans-61"/>
      <use x="1099.927734" xlink:href="#DejaVuSans-72"/>
      <use x="1139.291016" xlink:href="#DejaVuSans-67"/>
      <use x="1202.767578" xlink:href="#DejaVuSans-65"/>
      <use x="1264.291016" xlink:href="#DejaVuSans-74"/>
      <use x="1303.5" xlink:href="#DejaVuSans-20"/>
      <use x="1335.287109" xlink:href="#DejaVuSans-70"/>
      <use x="1398.763672" xlink:href="#DejaVuSans-61"/>
      <use x="1460.042969" xlink:href="#DejaVuSans-69"/>
      <use x="1487.826172" xlink:href="#DejaVuSans-72"/>
      <use x="1528.939453" xlink:href="#DejaVuSans-73"/>
     </g>
    </g>
   </g>
   <g id="line2d_29">
    <defs>
     <path d="M 0 1.5 
C 0.397805 1.5 0.77937 1.341951 1.06066 1.06066 
C 1.341951 0.77937 1.5 0.397805 1.5 0 
C 1.5 -0.397805 1.341951 -0.77937 1.06066 -1.06066 
C 0.77937 -1.341951 0.397805 -1.5 0 -1.5 
C -0.397805 -1.5 -0.77937 -1.341951 -1.06066 -1.06066 
C -1.341951 -0.77937 -1.5 -0.397805 -1.5 0 
C -1.5 0.397805 -1.341951 0.77937 -1.06066 1.06066 
C -0.77937 1.341951 -0.397805 1.5 0 1.5 
z
" id="m1b1c077c3d" style="stroke:#00bfbf;"/>
    </defs>
    <g>
     <use style="fill:#00bfbf;stroke:#00bfbf;" x="158.968208" xlink:href="#m1b1c077c3d" y="30.334099"/>
     <use style="fill:#00bfbf;stroke:#00bfbf;" x="158.968208" xlink:href="#m1b1c077c3d" y="30.334099"/>
    </g>
   </g>
   <g id="line2d_30">
    <path d="M 88.846997 298.944 
L 88.846997 298.417314 
L 102.330873 298.417314 
L 102.330873 297.363942 
L 108.948899 297.363942 
L 108.948899 296.31057 
L 111.505558 296.31057 
L 111.505558 293.677139 
L 113.382559 293.677139 
L 113.382559 291.570395 
L 114.751048 291.570395 
L 114.751048 289.990337 
L 117.765302 289.990337 
L 117.765302 288.936964 
L 118.576578 288.936964 
L 118.576578 285.776848 
L 120.093994 285.776848 
L 120.093994 283.143418 
L 122.573415 283.143418 
L 122.573415 282.090045 
L 126.168212 282.090045 
L 126.168212 278.929929 
L 127.642832 278.929929 
L 127.642832 278.403243 
L 127.799239 278.403243 
L 127.799239 275.243126 
L 130.127931 275.243126 
L 130.127931 274.189754 
L 130.531948 274.189754 
L 130.531948 270.502952 
L 131.056477 270.502952 
L 131.056477 266.289463 
L 131.185181 266.289463 
L 131.185181 264.709405 
L 131.439773 264.709405 
L 131.439773 264.182719 
L 131.814826 264.182719 
L 131.814826 262.075974 
L 132.060454 262.075974 
L 132.060454 261.549288 
L 132.30267 261.549288 
L 132.30267 261.022602 
L 132.422528 261.022602 
L 132.422528 260.495916 
L 132.659801 260.495916 
L 132.659801 259.96923 
L 132.893889 259.96923 
L 132.893889 258.915858 
L 134.12805 258.915858 
L 134.12805 258.389172 
L 134.450015 258.389172 
L 134.55603 256.809114 
L 134.661403 256.809114 
L 134.661403 254.702369 
L 135.482227 254.702369 
L 135.482227 253.648997 
L 136.073445 253.648997 
L 136.170062 251.542253 
L 136.361705 251.542253 
L 136.456742 248.908822 
L 137.107884 248.908822 
L 137.198951 242.061903 
L 137.289545 242.061903 
L 137.289545 240.481845 
L 137.469333 240.481845 
L 137.469333 239.955159 
L 137.647286 239.955159 
L 137.735587 237.321729 
L 137.997836 237.321729 
L 137.997836 236.795043 
L 138.341479 236.795043 
L 138.426341 233.10824 
L 138.594838 233.10824 
L 138.594838 231.001496 
L 138.927025 231.001496 
L 138.927025 227.841379 
L 139.172077 227.841379 
L 139.172077 226.261321 
L 139.493548 226.261321 
L 139.493548 224.681263 
L 139.730821 224.681263 
L 139.8092 223.627891 
L 140.195896 223.627891 
L 140.195896 222.574518 
L 140.423864 222.574518 
L 140.499195 219.414402 
L 140.574203 219.414402 
L 140.574203 218.887716 
L 140.79731 218.887716 
L 140.79731 216.780971 
L 141.162927 216.780971 
L 141.235139 215.200913 
L 141.45 215.200913 
L 141.521035 212.567483 
L 141.662245 212.567483 
L 141.662245 212.040797 
L 141.871938 212.040797 
L 141.941279 210.460738 
L 142.07914 210.460738 
L 142.147664 208.353994 
L 142.553247 208.353994 
L 142.553247 203.613819 
L 142.686372 203.613819 
L 142.686372 202.560447 
L 142.884173 202.560447 
L 142.949611 199.927017 
L 143.208936 199.927017 
L 143.273169 198.346959 
L 143.337167 198.346959 
L 143.40093 194.660156 
L 143.590833 194.660156 
L 143.590833 190.446667 
L 143.840863 190.446667 
L 143.902815 186.233179 
L 144.026061 186.233179 
L 144.087359 185.179807 
L 144.148442 185.179807 
L 144.148442 184.653121 
L 144.269971 184.653121 
L 144.269971 183.073062 
L 144.390658 183.073062 
L 144.45069 178.859574 
L 144.570138 178.859574 
L 144.629556 175.699457 
L 144.688773 175.699457 
L 144.688773 173.592713 
L 145.270136 173.592713 
L 145.270136 173.066027 
L 145.609873 173.066027 
L 145.665858 166.745794 
L 145.721664 166.745794 
L 145.777292 162.532305 
L 145.888018 162.532305 
L 145.888018 161.478933 
L 146.052799 161.478933 
L 146.107383 159.898875 
L 146.216039 159.898875 
L 146.324022 157.265444 
L 146.696785 157.265444 
L 146.801841 155.1587 
L 146.958248 155.1587 
L 146.958248 154.105328 
L 147.215849 154.105328 
L 147.317833 151.471897 
L 147.368603 151.471897 
L 147.4697 147.258409 
L 147.71991 147.258409 
L 147.769524 144.098292 
L 147.86833 144.098292 
L 147.917524 141.464862 
L 148.064279 141.464862 
L 148.064279 138.831432 
L 148.306159 138.831432 
L 148.306159 136.198001 
L 148.54473 136.198001 
L 148.639252 131.457826 
L 148.686322 131.457826 
L 148.686322 127.771024 
L 148.919783 127.771024 
L 148.919783 126.717652 
L 149.058374 126.717652 
L 149.058374 126.190966 
L 149.195872 126.190966 
L 149.286939 118.817361 
L 149.512548 118.817361 
L 149.60198 116.18393 
L 149.779481 116.18393 
L 149.779481 115.657244 
L 150.042389 115.657244 
L 150.085825 114.603872 
L 150.215485 114.603872 
L 150.301393 113.023814 
L 150.556607 113.023814 
L 150.640855 105.123522 
L 150.766468 105.123522 
L 150.766468 103.543464 
L 150.932558 103.543464 
L 151.015013 98.803289 
L 151.260066 98.803289 
L 151.340991 93.009743 
L 151.381313 93.009743 
L 151.421542 89.32294 
L 151.779487 89.32294 
L 151.858043 87.216196 
L 151.936246 87.216196 
L 151.936246 86.162824 
L 152.091608 86.162824 
L 152.168773 84.056079 
L 152.207228 84.056079 
L 152.283884 82.476021 
L 152.511852 82.476021 
L 152.587184 79.842591 
L 152.774102 79.842591 
L 152.848312 78.789218 
L 152.885298 78.789218 
L 152.922207 76.682474 
L 153.214697 76.682474 
L 153.287059 74.049044 
L 153.359122 74.049044 
L 153.466662 71.415613 
L 153.502361 71.415613 
L 153.609024 68.782183 
L 153.679772 68.782183 
L 153.679772 68.255497 
L 153.925152 68.255497 
L 153.959927 67.202125 
L 154.063835 67.202125 
L 154.098334 66.148752 
L 154.303908 66.148752 
L 154.405793 64.568694 
L 154.57429 64.568694 
L 154.674612 62.46195 
L 154.707925 62.46195 
L 154.807483 55.088345 
L 154.840544 55.088345 
L 154.93935 51.401542 
L 154.972161 51.401542 
L 155.004911 50.34817 
L 155.425155 50.34817 
L 155.425155 49.821484 
L 155.678822 49.821484 
L 155.741666 47.188054 
L 155.804285 47.188054 
L 155.897793 44.027937 
L 155.928852 44.027937 
L 156.021696 41.394507 
L 156.083319 41.394507 
L 156.083319 38.761076 
L 156.205916 38.761076 
L 156.205916 35.074274 
L 156.508689 35.074274 
L 156.508689 34.020902 
L 157.243392 34.020902 
L 157.243392 33.494215 
L 157.38669 33.494215 
L 157.38669 32.440843 
L 157.669802 32.440843 
L 157.669802 31.914157 
L 158.195371 31.914157 
L 158.195371 31.387471 
L 158.732007 31.387471 
L 158.732007 30.860785 
L 158.968208 30.860785 
L 158.968208 30.334099 
L 338.688 30.334099 
L 338.688 30.334099 
" style="fill:none;stroke:#00bfbf;stroke-linecap:square;stroke-width:1.5;"/>
   </g>
   <g id="line2d_31">
    <defs>
     <path d="M -6 0 
L 6 0 
M 0 6 
L 0 -6 
" id="m8aa6624abb" style="stroke:#00bfbf;stroke-width:1.5;"/>
    </defs>
    <g>
     <use style="fill-opacity:0;stroke:#00bfbf;stroke-width:1.5;" x="145.777292" xlink:href="#m8aa6624abb" y="164.63905"/>
     <use style="fill-opacity:0;stroke:#00bfbf;stroke-width:1.5;" x="158.968208" xlink:href="#m8aa6624abb" y="30.860785"/>
     <use style="fill-opacity:0;stroke:#00bfbf;stroke-width:1.5;" x="158.968208" xlink:href="#m8aa6624abb" y="30.334099"/>
     <use style="fill-opacity:0;stroke:#00bfbf;stroke-width:1.5;" x="158.968208" xlink:href="#m8aa6624abb" y="30.334099"/>
     <use style="fill-opacity:0;stroke:#00bfbf;stroke-width:1.5;" x="338.688" xlink:href="#m8aa6624abb" y="30.334099"/>
    </g>
   </g>
   <g id="line2d_32">
    <path style="fill:none;stroke:#00bfbf;stroke-linecap:square;stroke-width:1.5;"/>
    <g/>
   </g>
   <g id="line2d_33">
    <defs>
     <path d="M 0 1.5 
C 0.397805 1.5 0.77937 1.341951 1.06066 1.06066 
C 1.341951 0.77937 1.5 0.397805 1.5 0 
C 1.5 -0.397805 1.341951 -0.77937 1.06066 -1.06066 
C 0.77937 -1.341951 0.397805 -1.5 0 -1.5 
C -0.397805 -1.5 -0.77937 -1.341951 -1.06066 -1.06066 
C -1.341951 -0.77937 -1.5 -0.397805 -1.5 0 
C -1.5 0.397805 -1.341951 0.77937 -1.06066 1.06066 
C -0.77937 1.341951 -0.397805 1.5 0 1.5 
z
" id="me724b1f736" style="stroke:#008000;"/>
    </defs>
    <g>
     <use style="fill:#008000;stroke:#008000;" x="164.231078" xlink:href="#me724b1f736" y="30.334099"/>
     <use style="fill:#008000;stroke:#008000;" x="164.231078" xlink:href="#me724b1f736" y="30.334099"/>
    </g>
   </g>
   <g id="line2d_34">
    <path d="M 119.931767 298.944 
L 119.931767 296.837256 
L 121.189196 296.837256 
L 121.189196 296.31057 
L 126.729009 296.31057 
L 126.729009 295.783884 
L 127.695124 295.783884 
L 127.799239 293.677139 
L 127.902737 293.677139 
L 127.902737 292.623767 
L 129.480244 292.623767 
L 129.480244 291.570395 
L 129.945319 291.570395 
L 129.945319 291.043709 
L 131.77355 291.043709 
L 131.77355 290.517023 
L 131.938072 290.517023 
L 131.938072 289.990337 
L 132.971225 289.990337 
L 132.971225 287.356906 
L 133.124876 287.356906 
L 133.124876 285.776848 
L 133.873458 285.776848 
L 133.946579 283.670104 
L 134.091907 283.670104 
L 134.091907 280.509987 
L 134.870259 280.509987 
L 134.870259 279.983301 
L 135.144899 279.983301 
L 135.144899 278.403243 
L 135.348078 278.403243 
L 135.348078 277.876557 
L 135.548916 277.876557 
L 135.548916 276.296499 
L 136.137916 276.296499 
L 136.137916 275.243126 
L 136.32991 275.243126 
L 136.393441 273.136382 
L 136.519813 273.136382 
L 136.519813 272.609696 
L 136.707671 272.609696 
L 136.769843 271.556324 
L 137.077422 271.556324 
L 137.138292 268.396207 
L 137.558536 268.396207 
L 137.558536 267.342835 
L 138.026733 267.342835 
L 138.026733 266.289463 
L 138.141844 266.289463 
L 138.141844 265.762777 
L 138.816998 265.762777 
L 138.872098 263.129347 
L 139.036363 263.129347 
L 139.036363 262.075974 
L 139.306744 262.075974 
L 139.413734 258.915858 
L 139.678372 258.915858 
L 139.678372 258.389172 
L 140.39868 258.389172 
L 140.499195 255.755741 
L 140.64889 255.755741 
L 140.64889 255.229055 
L 141.235139 255.229055 
L 141.33096 253.648997 
L 141.47371 253.648997 
L 141.47371 248.908822 
L 141.848763 248.908822 
L 141.895083 247.85545 
L 142.170445 247.85545 
L 142.215919 246.802078 
L 142.486301 246.802078 
L 142.486301 246.275392 
L 142.664255 246.275392 
L 142.708461 245.22202 
L 142.840411 245.22202 
L 142.927826 242.061903 
L 142.971369 242.061903 
L 142.971369 241.535217 
L 143.144465 241.535217 
L 143.230373 237.848415 
L 143.273169 237.848415 
L 143.273169 237.321729 
L 143.44331 237.321729 
L 143.44331 236.795043 
L 143.861538 236.795043 
L 143.943994 234.688298 
L 143.985075 234.688298 
L 143.985075 233.634926 
L 144.310293 233.634926 
L 144.310293 232.054868 
L 144.430703 232.054868 
L 144.510517 229.948123 
L 144.629556 229.948123 
L 144.629556 227.314693 
L 144.826168 227.314693 
L 144.826168 226.788007 
L 145.020588 226.788007 
L 145.097753 225.207949 
L 145.136208 225.207949 
L 145.136208 223.627891 
L 145.289185 223.627891 
L 145.365173 220.467774 
L 145.403044 220.467774 
L 145.403044 219.941088 
L 145.591172 219.941088 
L 145.591172 219.414402 
L 145.924771 219.414402 
L 145.924771 218.36103 
L 146.143677 218.36103 
L 146.252108 216.780971 
L 146.359869 216.780971 
L 146.466968 211.514111 
L 146.679213 211.514111 
L 146.679213 208.353994 
L 146.819289 208.353994 
L 146.819289 206.773936 
L 147.164632 206.773936 
L 147.266916 203.613819 
L 147.4697 203.613819 
L 147.4697 202.560447 
L 147.70334 202.560447 
L 147.769524 201.507075 
L 147.835457 201.507075 
L 147.835457 199.927017 
L 148.064279 199.927017 
L 148.064279 199.400331 
L 148.193699 199.400331 
L 148.225905 197.293586 
L 148.513109 197.293586 
L 148.513109 196.240214 
L 148.670646 196.240214 
L 148.670646 195.186842 
L 148.826773 195.186842 
L 148.826773 193.606784 
L 148.950676 193.606784 
L 148.950676 190.973354 
L 149.256637 190.973354 
L 149.256637 189.919981 
L 149.616841 189.919981 
L 149.646525 188.866609 
L 149.764758 188.866609 
L 149.794191 184.653121 
L 150.027887 184.653121 
L 150.114722 180.439632 
L 150.258492 180.439632 
L 150.258492 179.912946 
L 150.457801 179.912946 
L 150.542526 176.226143 
L 150.710752 176.226143 
L 150.710752 175.699457 
L 150.87737 175.699457 
L 150.87737 175.172771 
L 151.069768 175.172771 
L 151.069768 174.646085 
L 151.287083 174.646085 
L 151.367883 171.485969 
L 151.60806 171.485969 
L 151.60806 170.959282 
L 151.897188 170.959282 
L 151.897188 168.852538 
L 152.078714 168.852538 
L 152.181601 162.532305 
L 152.232818 162.532305 
L 152.283884 157.79213 
L 152.461449 157.79213 
L 152.511852 156.212072 
L 152.712018 156.212072 
L 152.712018 155.685386 
L 152.934492 155.685386 
L 153.008024 153.578642 
L 153.226778 153.578642 
L 153.250915 151.998584 
L 153.347132 151.998584 
L 153.371104 150.945211 
L 153.561699 150.945211 
L 153.561699 150.418525 
L 153.703291 150.418525 
L 153.750233 147.785095 
L 153.913546 147.785095 
L 154.006185 143.04492 
L 154.098334 143.04492 
L 154.167129 140.938176 
L 154.258434 140.938176 
L 154.326601 139.884804 
L 154.394502 139.884804 
L 154.394502 139.358118 
L 154.596634 139.358118 
L 154.663493 136.724687 
L 154.730098 136.724687 
L 154.730098 136.198001 
L 154.928399 136.198001 
L 155.015814 133.037885 
L 155.189341 133.037885 
L 155.296925 128.824396 
L 155.361158 128.824396 
L 155.446436 127.244338 
L 155.573575 127.244338 
L 155.594676 126.190966 
L 155.845906 126.190966 
L 155.949527 123.030849 
L 156.011405 123.030849 
L 156.011405 121.450791 
L 156.216093 121.450791 
L 156.216093 119.344047 
L 156.418408 119.344047 
L 156.518691 114.603872 
L 156.538679 114.603872 
L 156.578586 110.917069 
L 156.717545 110.917069 
L 156.816128 108.283639 
L 156.855406 108.283639 
L 156.855406 106.176895 
L 157.089232 106.176895 
L 157.147202 103.543464 
L 157.20498 103.543464 
L 157.243392 101.43672 
L 157.377174 101.43672 
L 157.472107 98.276603 
L 157.528821 98.276603 
L 157.528821 97.749917 
L 157.828215 97.749917 
L 157.939176 96.169859 
L 157.976006 96.169859 
L 157.976006 95.643173 
L 158.104304 95.643173 
L 158.213527 93.536429 
L 158.285965 93.536429 
L 158.39406 88.796254 
L 158.429943 88.796254 
L 158.51933 85.109451 
L 158.572743 85.109451 
L 158.67908 84.056079 
L 158.714382 84.056079 
L 158.802326 81.422649 
L 158.924708 81.422649 
L 159.028927 77.735846 
L 159.063529 77.735846 
L 159.115303 75.629102 
L 159.26971 75.629102 
L 159.286782 72.468985 
L 159.405822 72.468985 
L 159.405822 71.415613 
L 159.524055 71.415613 
L 159.524055 69.835555 
L 159.774744 69.835555 
L 159.774744 68.255497 
L 159.89051 68.255497 
L 159.93989 67.202125 
L 160.02188 67.202125 
L 160.087195 64.568694 
L 160.136022 64.568694 
L 160.168498 61.408578 
L 160.265562 61.408578 
L 160.36209 56.668403 
L 160.394148 56.668403 
L 160.394148 54.561659 
L 160.505887 54.561659 
L 160.585265 51.928228 
L 160.664283 51.928228 
L 160.758635 49.294798 
L 160.789972 49.294798 
L 160.836873 47.188054 
L 161.007772 47.188054 
L 161.084903 44.027937 
L 161.161694 44.027937 
L 161.222884 41.921193 
L 161.660209 41.921193 
L 161.660209 41.394507 
L 161.79373 41.394507 
L 161.896878 40.341135 
L 161.911563 40.341135 
L 161.940898 37.707704 
L 162.130378 37.707704 
L 162.130378 37.181018 
L 162.346481 37.181018 
L 162.375093 34.020902 
L 162.68677 34.020902 
L 162.68677 32.967529 
L 163.07556 32.967529 
L 163.07556 32.440843 
L 163.496131 32.440843 
L 163.496131 31.914157 
L 163.801742 31.914157 
L 163.801742 31.387471 
L 164.153799 31.387471 
L 164.231078 30.334099 
L 338.688 30.334099 
L 338.688 30.334099 
" style="fill:none;stroke:#008000;stroke-linecap:square;stroke-width:1.5;"/>
   </g>
   <g id="line2d_35">
    <defs>
     <path d="M -0 6 
L 6 -6 
L -6 -6 
z
" id="m1d4dc2406c" style="stroke:#008000;stroke-linejoin:miter;stroke-width:1.5;"/>
    </defs>
    <g>
     <use style="fill-opacity:0;stroke:#008000;stroke-linejoin:miter;stroke-width:1.5;" x="148.670646" xlink:href="#m1d4dc2406c" y="195.186842"/>
     <use style="fill-opacity:0;stroke:#008000;stroke-linejoin:miter;stroke-width:1.5;" x="164.231078" xlink:href="#m1d4dc2406c" y="30.860785"/>
     <use style="fill-opacity:0;stroke:#008000;stroke-linejoin:miter;stroke-width:1.5;" x="164.231078" xlink:href="#m1d4dc2406c" y="30.334099"/>
     <use style="fill-opacity:0;stroke:#008000;stroke-linejoin:miter;stroke-width:1.5;" x="164.231078" xlink:href="#m1d4dc2406c" y="30.334099"/>
     <use style="fill-opacity:0;stroke:#008000;stroke-linejoin:miter;stroke-width:1.5;" x="338.688" xlink:href="#m1d4dc2406c" y="30.334099"/>
    </g>
   </g>
   <g id="line2d_36">
    <path style="fill:none;stroke:#008000;stroke-linecap:square;stroke-width:1.5;"/>
    <g/>
   </g>
   <g id="line2d_37">
    <defs>
     <path d="M 0 1.5 
C 0.397805 1.5 0.77937 1.341951 1.06066 1.06066 
C 1.341951 0.77937 1.5 0.397805 1.5 0 
C 1.5 -0.397805 1.341951 -0.77937 1.06066 -1.06066 
C 0.77937 -1.341951 0.397805 -1.5 0 -1.5 
C -0.397805 -1.5 -0.77937 -1.341951 -1.06066 -1.06066 
C -1.341951 -0.77937 -1.5 -0.397805 -1.5 0 
C -1.5 0.397805 -1.341951 0.77937 -1.06066 1.06066 
C -0.77937 1.341951 -0.397805 1.5 0 1.5 
z
" id="mc950d57969" style="stroke:#0000ff;"/>
    </defs>
    <g>
     <use style="fill:#0000ff;stroke:#0000ff;" x="171.294385" xlink:href="#mc950d57969" y="30.334099"/>
     <use style="fill:#0000ff;stroke:#0000ff;" x="171.294385" xlink:href="#mc950d57969" y="30.334099"/>
    </g>
   </g>
   <g id="line2d_38">
    <path d="M 135.995765 298.944 
L 135.995765 298.417314 
L 138.049816 298.417314 
L 138.084384 297.363942 
L 138.794909 297.363942 
L 138.794909 296.837256 
L 140.378508 296.837256 
L 140.378508 295.783884 
L 140.88576 295.783884 
L 140.88576 295.257197 
L 141.148448 295.257197 
L 141.148448 294.730511 
L 141.662245 294.730511 
L 141.662245 294.203825 
L 141.913576 294.203825 
L 141.913576 293.677139 
L 142.07914 293.677139 
L 142.07914 293.150453 
L 142.51311 293.150453 
L 142.566605 291.043709 
L 142.884173 291.043709 
L 142.884173 289.990337 
L 143.196061 289.990337 
L 143.221802 288.410278 
L 143.47714 288.410278 
L 143.578237 286.83022 
L 143.828447 286.83022 
L 143.828447 285.776848 
L 144.414696 285.776848 
L 144.486611 282.090045 
L 144.605813 282.090045 
L 144.605813 281.563359 
L 144.888619 281.563359 
L 144.888619 279.983301 
L 145.02832 279.983301 
L 145.02832 278.929929 
L 145.576196 278.929929 
L 145.621085 275.769812 
L 145.888018 275.769812 
L 145.888018 275.243126 
L 146.129168 275.243126 
L 146.150926 273.136382 
L 146.259313 273.136382 
L 146.324022 271.556324 
L 146.665144 271.556324 
L 146.665144 271.029638 
L 147.082371 271.029638 
L 147.185137 269.976266 
L 147.205618 269.976266 
L 147.205618 269.449579 
L 147.570215 269.449579 
L 147.570215 268.396207 
L 147.70997 268.396207 
L 147.749695 266.816149 
L 147.888024 266.816149 
L 147.888024 266.289463 
L 148.083753 266.289463 
L 148.083753 265.762777 
L 148.23877 265.762777 
L 148.27731 264.709405 
L 148.714503 264.709405 
L 148.714503 263.656033 
L 148.938326 263.656033 
L 148.938326 263.129347 
L 149.122675 263.129347 
L 149.141003 261.022602 
L 149.25057 261.022602 
L 149.305096 259.442544 
L 149.485628 259.442544 
L 149.575199 258.389172 
L 149.646525 258.389172 
L 149.646525 257.862486 
L 149.841182 257.862486 
L 149.841182 257.3358 
L 150.016276 257.3358 
L 150.085825 255.229055 
L 150.446473 255.229055 
L 150.446473 254.702369 
L 150.882897 254.702369 
L 150.932558 252.595625 
L 150.998554 252.595625 
L 151.097081 250.488881 
L 151.276281 250.488881 
L 151.373256 247.85545 
L 151.453659 247.85545 
L 151.453659 247.328764 
L 151.676833 247.328764 
L 151.740076 244.168648 
L 151.928441 244.168648 
L 151.928441 243.641962 
L 152.083873 243.641962 
L 152.114793 242.061903 
L 152.222586 242.061903 
L 152.222586 241.535217 
L 152.751777 241.535217 
L 152.855715 239.428473 
L 152.914832 239.428473 
L 152.944315 238.375101 
L 153.221946 238.375101 
L 153.265382 235.214984 
L 153.438049 235.214984 
L 153.537988 233.10824 
L 153.552218 233.10824 
L 153.637357 230.47481 
L 154.043103 230.47481 
L 154.043103 229.948123 
L 154.249325 229.948123 
L 154.344733 225.734635 
L 154.601099 225.734635 
L 154.694607 224.154577 
L 154.761093 224.154577 
L 154.840544 222.574518 
L 154.945917 222.574518 
L 154.998366 219.941088 
L 155.232454 219.941088 
L 155.30979 217.307658 
L 155.565128 217.307658 
L 155.653621 214.674227 
L 155.703987 214.674227 
L 155.703987 214.147541 
L 155.879132 214.147541 
L 155.97843 209.934052 
L 156.040206 209.934052 
L 156.040206 209.407366 
L 156.199806 209.407366 
L 156.199806 208.88068 
L 156.442528 208.88068 
L 156.526689 206.24725 
L 156.681918 206.24725 
L 156.717545 205.193878 
L 156.800392 205.193878 
L 156.800392 204.667192 
L 156.918066 204.667192 
L 156.918066 204.140506 
L 157.034952 204.140506 
L 157.1279 202.033761 
L 157.162628 202.033761 
L 157.197287 200.453703 
L 157.369557 200.453703 
L 157.380981 199.400331 
L 157.652944 199.400331 
L 157.720277 196.240214 
L 157.77619 196.240214 
L 157.84305 194.13347 
L 157.9318 194.13347 
L 158.031107 189.919981 
L 158.053098 189.919981 
L 158.162642 188.339923 
L 158.217157 188.339923 
L 158.217157 187.813237 
L 158.347301 187.813237 
L 158.347301 187.286551 
L 158.530025 187.286551 
L 158.604712 185.179807 
L 158.774233 185.179807 
L 158.879352 182.546376 
L 159.025463 182.546376 
L 159.025463 182.01969 
L 159.273126 182.01969 
L 159.314063 180.966318 
L 159.527421 180.966318 
L 159.587904 178.332888 
L 159.768105 178.332888 
L 159.847601 175.699457 
L 160.044768 175.699457 
L 160.103486 174.646085 
L 160.268789 174.646085 
L 160.355672 172.539341 
L 160.394148 172.539341 
L 160.499521 168.325852 
L 160.518612 168.325852 
L 160.623238 167.27248 
L 160.736665 167.27248 
L 160.783709 166.219108 
L 160.905434 166.219108 
L 160.998493 162.532305 
L 161.054091 162.532305 
L 161.054091 161.478933 
L 161.201492 161.478933 
L 161.274728 159.898875 
L 161.411222 159.898875 
L 161.474555 156.212072 
L 161.555647 156.212072 
L 161.654251 154.632014 
L 161.698887 154.632014 
L 161.698887 154.105328 
L 161.858637 154.105328 
L 161.955547 150.418525 
L 162.095552 150.418525 
L 162.199823 147.258409 
L 162.312084 147.258409 
L 162.406513 143.571606 
L 162.440724 143.571606 
L 162.466339 142.518234 
L 162.627697 142.518234 
L 162.737246 140.41149 
L 162.745644 140.41149 
L 162.745644 138.304745 
L 162.946002 138.304745 
L 162.962595 136.724687 
L 163.094774 136.724687 
L 163.185069 132.511199 
L 163.242288 132.511199 
L 163.242288 131.984513 
L 163.388564 131.984513 
L 163.49345 130.93114 
L 163.517565 130.93114 
L 163.517565 130.404454 
L 163.645619 130.404454 
L 163.645619 129.877768 
L 163.828065 129.877768 
L 163.859601 128.824396 
L 163.953867 128.824396 
L 164.00081 124.084221 
L 164.164122 124.084221 
L 164.264459 121.450791 
L 164.348911 121.450791 
L 164.432956 119.870733 
L 164.531763 119.870733 
L 164.531763 118.817361 
L 164.682688 118.817361 
L 164.780093 116.18393 
L 164.906654 116.18393 
L 165.010195 111.970441 
L 165.032303 111.970441 
L 165.135103 109.337011 
L 165.273656 109.337011 
L 165.35337 105.123522 
L 165.475853 105.123522 
L 165.518877 101.963406 
L 165.640207 101.963406 
L 165.640207 101.43672 
L 165.760698 101.43672 
L 165.810071 100.383348 
L 165.915403 100.383348 
L 165.999212 95.116487 
L 166.034014 95.116487 
L 166.075685 92.483056 
L 166.158729 92.483056 
L 166.200103 88.796254 
L 166.330478 88.796254 
L 166.330478 88.269568 
L 166.500553 88.269568 
L 166.541125 86.162824 
L 166.702476 86.162824 
L 166.75593 83.002707 
L 166.849082 83.002707 
L 166.88223 80.895963 
L 167.007622 80.895963 
L 167.079807 78.789218 
L 167.190782 78.789218 
L 167.197288 77.735846 
L 167.313982 77.735846 
L 167.346259 76.155788 
L 167.429901 76.155788 
L 167.487573 74.049044 
L 167.665786 74.049044 
L 167.773105 71.942299 
L 167.829655 71.942299 
L 167.898523 70.362241 
L 167.960895 70.362241 
L 168.047843 65.622066 
L 168.115857 65.622066 
L 168.171308 62.46195 
L 168.42171 62.46195 
L 168.518461 58.248461 
L 168.572648 58.248461 
L 168.596677 52.454914 
L 168.698434 52.454914 
L 168.734207 49.294798 
L 168.870661 49.294798 
L 168.870661 48.768112 
L 169.029495 48.768112 
L 169.08212 47.188054 
L 169.163666 47.188054 
L 169.227472 45.081309 
L 169.314106 45.081309 
L 169.314106 44.027937 
L 169.457545 44.027937 
L 169.457545 42.447879 
L 169.616809 42.447879 
L 169.656399 40.867821 
L 169.880918 40.867821 
L 169.947714 39.814448 
L 170.108089 39.814448 
L 170.179505 38.761076 
L 170.288808 38.761076 
L 170.343204 36.127646 
L 170.537636 36.127646 
L 170.575192 34.020902 
L 170.835842 34.020902 
L 170.893823 32.967529 
L 171.092653 32.967529 
L 171.092653 32.440843 
L 171.232562 32.440843 
L 171.294385 30.334099 
L 338.688 30.334099 
L 338.688 30.334099 
" style="fill:none;stroke:#0000ff;stroke-linecap:square;stroke-width:1.5;"/>
   </g>
   <g id="line2d_39">
    <defs>
     <path d="M 0 -6 
L -1.347084 -1.854102 
L -5.706339 -1.854102 
L -2.179628 0.708204 
L -3.526712 4.854102 
L -0 2.291796 
L 3.526712 4.854102 
L 2.179628 0.708204 
L 5.706339 -1.854102 
L 1.347084 -1.854102 
z
" id="mec9864e5ec" style="stroke:#0000ff;stroke-linejoin:bevel;stroke-width:1.5;"/>
    </defs>
    <g>
     <use style="fill-opacity:0;stroke:#0000ff;stroke-linejoin:bevel;stroke-width:1.5;" x="154.043103" xlink:href="#mec9864e5ec" y="230.47481"/>
     <use style="fill-opacity:0;stroke:#0000ff;stroke-linejoin:bevel;stroke-width:1.5;" x="168.698434" xlink:href="#mec9864e5ec" y="52.454914"/>
     <use style="fill-opacity:0;stroke:#0000ff;stroke-linejoin:bevel;stroke-width:1.5;" x="171.294385" xlink:href="#mec9864e5ec" y="30.334099"/>
     <use style="fill-opacity:0;stroke:#0000ff;stroke-linejoin:bevel;stroke-width:1.5;" x="171.294385" xlink:href="#mec9864e5ec" y="30.334099"/>
     <use style="fill-opacity:0;stroke:#0000ff;stroke-linejoin:bevel;stroke-width:1.5;" x="338.688" xlink:href="#mec9864e5ec" y="30.334099"/>
    </g>
   </g>
   <g id="line2d_40">
    <path style="fill:none;stroke:#0000ff;stroke-linecap:square;stroke-width:1.5;"/>
    <g/>
   </g>
   <g id="line2d_41">
    <defs>
     <path d="M 0 1.5 
C 0.397805 1.5 0.77937 1.341951 1.06066 1.06066 
C 1.341951 0.77937 1.5 0.397805 1.5 0 
C 1.5 -0.397805 1.341951 -0.77937 1.06066 -1.06066 
C 0.77937 -1.341951 0.397805 -1.5 0 -1.5 
C -0.397805 -1.5 -0.77937 -1.341951 -1.06066 -1.06066 
C -1.341951 -0.77937 -1.5 -0.397805 -1.5 0 
C -1.5 0.397805 -1.341951 0.77937 -1.06066 1.06066 
C -0.77937 1.341951 -0.397805 1.5 0 1.5 
z
" id="m46d577f413" style="stroke:#000000;"/>
    </defs>
    <g>
     <use style="stroke:#000000;" x="225.859952" xlink:href="#m46d577f413" y="204.140506"/>
     <use style="stroke:#000000;" x="225.859952" xlink:href="#m46d577f413" y="204.140506"/>
    </g>
   </g>
   <g id="line2d_42">
    <path d="M 151.716387 298.944 
L 151.716387 298.417314 
L 152.564618 298.417314 
L 152.564618 297.890628 
L 152.877907 297.890628 
L 152.944315 296.837256 
L 153.243677 296.837256 
L 153.243677 295.783884 
L 153.693887 295.783884 
L 153.693887 295.257197 
L 153.897283 295.257197 
L 153.925152 294.203825 
L 154.119001 294.203825 
L 154.119001 293.677139 
L 154.24249 293.677139 
L 154.303908 292.097081 
L 154.412564 292.097081 
L 154.500352 291.043709 
L 154.727882 291.043709 
L 154.727882 290.517023 
L 154.913056 290.517023 
L 155.011454 288.936964 
L 155.167744 288.936964 
L 155.238912 287.356906 
L 155.380382 287.356906 
L 155.380382 286.83022 
L 155.61575 286.83022 
L 155.61575 286.303534 
L 155.810534 286.303534 
L 155.910223 284.19679 
L 156.248622 284.19679 
L 156.345845 281.563359 
L 156.460597 281.563359 
L 156.460597 281.036673 
L 156.782672 281.036673 
L 156.835778 278.403243 
L 157.44937 278.403243 
L 157.44937 277.876557 
L 157.714676 277.876557 
L 157.714676 277.349871 
L 157.926266 277.349871 
L 157.98704 274.71644 
L 158.217157 274.71644 
L 158.298611 272.609696 
L 158.492562 272.609696 
L 158.556736 271.029638 
L 158.641936 271.029638 
L 158.747853 269.976266 
L 158.753132 269.976266 
L 158.753132 269.449579 
L 158.999461 269.449579 
L 159.004665 267.869521 
L 159.129083 267.869521 
L 159.129083 267.342835 
L 159.257749 267.342835 
L 159.360003 264.182719 
L 159.370195 264.182719 
L 159.370195 263.656033 
L 159.527421 263.656033 
L 159.527421 262.60266 
L 159.763125 262.60266 
L 159.773084 260.495916 
L 160.010424 260.495916 
L 160.010424 259.442544 
L 160.152267 259.442544 
L 160.259108 258.389172 
L 160.302628 258.389172 
L 160.360486 257.3358 
L 160.418152 257.3358 
L 160.418152 256.809114 
L 160.537682 256.809114 
L 160.537682 256.282427 
L 160.731954 256.282427 
L 160.750792 255.229055 
L 160.965979 255.229055 
L 160.993852 254.175683 
L 161.086442 254.175683 
L 161.086442 253.648997 
L 161.206078 253.648997 
L 161.21983 251.015567 
L 161.424813 251.015567 
L 161.483584 249.435508 
L 161.542158 249.435508 
L 161.542158 248.908822 
L 161.654251 248.908822 
L 161.716709 247.85545 
L 161.876297 247.85545 
L 161.937967 244.695334 
L 162.121678 244.695334 
L 162.121678 244.168648 
L 162.33359 244.168648 
L 162.33359 243.641962 
L 162.559939 243.641962 
L 162.631923 242.061903 
L 162.983314 242.061903 
L 163.061823 240.481845 
L 163.152289 240.481845 
L 163.168687 238.901787 
L 163.311515 238.901787 
L 163.380469 235.74167 
L 163.489428 235.74167 
L 163.58171 234.688298 
L 163.625673 234.688298 
L 163.625673 234.161612 
L 163.77274 234.161612 
L 163.792519 232.581554 
L 163.94995 232.581554 
L 163.989086 231.528182 
L 164.144761 231.528182 
L 164.175729 229.421437 
L 164.527973 229.421437 
L 164.573397 227.841379 
L 164.716466 227.841379 
L 164.738949 226.261321 
L 164.850932 226.261321 
L 164.91407 225.207949 
L 165.098459 225.207949 
L 165.146082 223.101204 
L 165.450706 223.101204 
L 165.529617 220.99446 
L 165.63665 220.99446 
L 165.693467 218.36103 
L 165.806549 218.36103 
L 165.813593 216.780971 
L 177.292506 216.780971 
L 177.292506 216.254285 
L 177.808025 216.254285 
L 177.896299 213.620855 
L 177.980623 213.620855 
L 177.984128 212.040797 
L 184.963209 212.040797 
L 184.963209 210.987425 
L 185.089573 210.987425 
L 185.089573 210.460738 
L 190.069488 210.460738 
L 190.111496 209.407366 
L 194.011523 209.407366 
L 194.011523 208.88068 
L 197.196787 208.88068 
L 197.201444 207.827308 
L 199.89313 207.827308 
L 199.89313 206.773936 
L 204.239253 206.773936 
L 204.239253 206.24725 
L 207.748558 206.24725 
L 207.748558 205.720564 
L 210.696018 205.720564 
L 210.696018 205.193878 
L 215.379087 205.193878 
L 215.379087 204.667192 
L 225.859952 204.667192 
L 225.859952 204.140506 
L 338.688 204.140506 
L 338.688 204.140506 
" style="fill:none;stroke:#000000;stroke-linecap:square;stroke-width:1.5;"/>
   </g>
   <g id="line2d_43">
    <defs>
     <path d="M 0 6 
C 1.591219 6 3.117479 5.367802 4.242641 4.242641 
C 5.367802 3.117479 6 1.591219 6 0 
C 6 -1.591219 5.367802 -3.117479 4.242641 -4.242641 
C 3.117479 -5.367802 1.591219 -6 0 -6 
C -1.591219 -6 -3.117479 -5.367802 -4.242641 -4.242641 
C -5.367802 -3.117479 -6 -1.591219 -6 0 
C -6 1.591219 -5.367802 3.117479 -4.242641 4.242641 
C -3.117479 5.367802 -1.591219 6 0 6 
z
" id="m9e9f9abd59" style="stroke:#000000;stroke-width:1.5;"/>
    </defs>
    <g>
     <use style="fill-opacity:0;stroke:#000000;stroke-width:1.5;" x="215.379087" xlink:href="#m9e9f9abd59" y="204.667192"/>
     <use style="fill-opacity:0;stroke:#000000;stroke-width:1.5;" x="225.859952" xlink:href="#m9e9f9abd59" y="204.140506"/>
     <use style="fill-opacity:0;stroke:#000000;stroke-width:1.5;" x="225.859952" xlink:href="#m9e9f9abd59" y="204.140506"/>
     <use style="fill-opacity:0;stroke:#000000;stroke-width:1.5;" x="338.688" xlink:href="#m9e9f9abd59" y="204.140506"/>
    </g>
   </g>
   <g id="line2d_44">
    <path style="fill:none;stroke:#000000;stroke-linecap:square;stroke-width:1.5;"/>
    <g/>
   </g>
   <g id="line2d_45">
    <path clip-path="url(#p937264636b)" d="M 165.978297 216.780971 
" style="fill:none;stroke:#000000;stroke-linecap:square;stroke-width:1.5;"/>
    <defs>
     <path d="M -12 12 
L 12 -12 
M -12 -12 
L 12 12 
" id="m7f06142674" style="stroke:#000000;"/>
    </defs>
    <g clip-path="url(#p937264636b)">
     <use style="stroke:#000000;" x="165.978297" xlink:href="#m7f06142674" y="216.780971"/>
    </g>
   </g>
   <g id="line2d_46">
    <path clip-path="url(#p937264636b)" d="M 57.6 298.944 
L 57.6 298.944 
L 57.6 298.944 
L 57.6 298.944 
L 338.688 298.944 
" style="fill:none;stroke:#ff0000;stroke-linecap:square;stroke-width:1.5;"/>
   </g>
   <g id="line2d_47">
    <defs>
     <path d="M -6 6 
L 6 6 
L 6 -6 
L -6 -6 
z
" id="md6026982a8" style="stroke:#ff0000;stroke-linejoin:miter;stroke-width:1.5;"/>
    </defs>
    <g clip-path="url(#p937264636b)">
     <use style="fill-opacity:0;stroke:#ff0000;stroke-linejoin:miter;stroke-width:1.5;" x="57.6" xlink:href="#md6026982a8" y="298.944"/>
    </g>
   </g>
   <g id="line2d_48">
    <path clip-path="url(#p937264636b)" style="fill:none;stroke:#ff0000;stroke-linecap:square;stroke-width:1.5;"/>
    <g clip-path="url(#p937264636b)">
     <use style="fill-opacity:0;stroke:#ff0000;stroke-linejoin:miter;stroke-width:1.5;" x="-1" xlink:href="#md6026982a8" y="567.553901"/>
     <use style="fill-opacity:0;stroke:#ff0000;stroke-linejoin:miter;stroke-width:1.5;" x="338.688" xlink:href="#md6026982a8" y="567.553901"/>
    </g>
   </g>
   <g id="line2d_49">
    <path clip-path="url(#p937264636b)" d="M 57.6 298.944 
L 57.6 298.944 
L 57.6 298.944 
L 57.6 298.944 
L 338.688 298.944 
" style="fill:none;stroke:#bf00bf;stroke-linecap:square;stroke-width:1.5;"/>
   </g>
   <g id="line2d_50">
    <defs>
     <path d="M 0 8.485281 
L 8.485281 0 
L 0 -8.485281 
L -8.485281 0 
z
" id="mca8be46ee5" style="stroke:#bf00bf;stroke-linejoin:miter;stroke-width:1.5;"/>
    </defs>
    <g clip-path="url(#p937264636b)">
     <use style="fill-opacity:0;stroke:#bf00bf;stroke-linejoin:miter;stroke-width:1.5;" x="57.6" xlink:href="#mca8be46ee5" y="298.944"/>
    </g>
   </g>
   <g id="line2d_51">
    <path clip-path="url(#p937264636b)" style="fill:none;stroke:#bf00bf;stroke-linecap:square;stroke-width:1.5;"/>
    <g clip-path="url(#p937264636b)">
     <use style="fill-opacity:0;stroke:#bf00bf;stroke-linejoin:miter;stroke-width:1.5;" x="-1" xlink:href="#mca8be46ee5" y="567.553901"/>
     <use style="fill-opacity:0;stroke:#bf00bf;stroke-linejoin:miter;stroke-width:1.5;" x="338.688" xlink:href="#mca8be46ee5" y="567.553901"/>
    </g>
   </g>
   <g id="line2d_52">
    <path d="M 338.688 298.944 
L 369.60768 293.571802 
" style="fill:none;stroke:#bf00bf;stroke-linecap:square;stroke-width:1.5;"/>
    <g>
     <use style="fill-opacity:0;stroke:#bf00bf;stroke-linejoin:miter;stroke-width:1.5;" x="338.688" xlink:href="#mca8be46ee5" y="298.944"/>
     <use style="fill-opacity:0;stroke:#bf00bf;stroke-linejoin:miter;stroke-width:1.5;" x="369.60768" xlink:href="#mca8be46ee5" y="293.571802"/>
    </g>
   </g>
   <g id="line2d_53">
    <path d="M 338.688 298.944 
L 369.60768 241.998701 
" style="fill:none;stroke:#ff0000;stroke-linecap:square;stroke-width:1.5;"/>
    <g>
     <use style="fill-opacity:0;stroke:#ff0000;stroke-linejoin:miter;stroke-width:1.5;" x="338.688" xlink:href="#md6026982a8" y="298.944"/>
     <use style="fill-opacity:0;stroke:#ff0000;stroke-linejoin:miter;stroke-width:1.5;" x="369.60768" xlink:href="#md6026982a8" y="241.998701"/>
    </g>
   </g>
   <g id="line2d_54">
    <path d="M 338.688 204.140506 
L 369.60768 190.4256 
" style="fill:none;stroke:#000000;stroke-linecap:square;stroke-width:1.5;"/>
    <g>
     <use style="fill-opacity:0;stroke:#000000;stroke-width:1.5;" x="338.688" xlink:href="#m9e9f9abd59" y="204.140506"/>
     <use style="fill-opacity:0;stroke:#000000;stroke-width:1.5;" x="369.60768" xlink:href="#m9e9f9abd59" y="190.4256"/>
    </g>
   </g>
   <g id="line2d_55">
    <path d="M 338.688 30.334099 
L 369.60768 138.852499 
" style="fill:none;stroke:#0000ff;stroke-linecap:square;stroke-width:1.5;"/>
    <g>
     <use style="fill-opacity:0;stroke:#0000ff;stroke-linejoin:bevel;stroke-width:1.5;" x="338.688" xlink:href="#mec9864e5ec" y="30.334099"/>
     <use style="fill-opacity:0;stroke:#0000ff;stroke-linejoin:bevel;stroke-width:1.5;" x="369.60768" xlink:href="#mec9864e5ec" y="138.852499"/>
    </g>
   </g>
   <g id="line2d_56">
    <path d="M 338.688 30.334099 
L 369.60768 87.279398 
" style="fill:none;stroke:#008000;stroke-linecap:square;stroke-width:1.5;"/>
    <g>
     <use style="fill-opacity:0;stroke:#008000;stroke-linejoin:miter;stroke-width:1.5;" x="338.688" xlink:href="#m1d4dc2406c" y="30.334099"/>
     <use style="fill-opacity:0;stroke:#008000;stroke-linejoin:miter;stroke-width:1.5;" x="369.60768" xlink:href="#m1d4dc2406c" y="87.279398"/>
    </g>
   </g>
   <g id="line2d_57">
    <path d="M 338.688 30.334099 
L 369.60768 35.706297 
" style="fill:none;stroke:#00bfbf;stroke-linecap:square;stroke-width:1.5;"/>
    <g>
     <use style="fill-opacity:0;stroke:#00bfbf;stroke-width:1.5;" x="338.688" xlink:href="#m8aa6624abb" y="30.334099"/>
     <use style="fill-opacity:0;stroke:#00bfbf;stroke-width:1.5;" x="369.60768" xlink:href="#m8aa6624abb" y="35.706297"/>
    </g>
   </g>
   <g id="line2d_58">
    <path d="M 338.688 298.944 
L 338.688 30.334099 
" style="fill:none;stroke:#000000;stroke-linecap:square;stroke-width:1.5;"/>
   </g>
   <g id="patch_3">
    <path d="M 57.6 298.944 
L 57.6 27.648 
" style="fill:none;stroke:#000000;stroke-linecap:square;stroke-linejoin:miter;stroke-width:0.8;"/>
   </g>
   <g id="patch_4">
    <path d="M 338.688 298.944 
L 338.688 27.648 
" style="fill:none;stroke:#000000;stroke-linecap:square;stroke-linejoin:miter;stroke-width:0.8;"/>
   </g>
   <g id="patch_5">
    <path d="M 57.6 298.944 
L 338.688 298.944 
" style="fill:none;stroke:#000000;stroke-linecap:square;stroke-linejoin:miter;stroke-width:0.8;"/>
   </g>
   <g id="patch_6">
    <path d="M 57.6 27.648 
L 338.688 27.648 
" style="fill:none;stroke:#000000;stroke-linecap:square;stroke-linejoin:miter;stroke-width:0.8;"/>
   </g>
   <g id="text_13">
    <!-- 40-D -->
    <g transform="translate(375.22944 298.262739)scale(0.17 -0.17)">
     <defs>
      <path d="M 1259 4147 
L 1259 519 
L 2022 519 
Q 2988 519 3436 956 
Q 3884 1394 3884 2338 
Q 3884 3275 3436 3711 
Q 2988 4147 2022 4147 
L 1259 4147 
z
M 628 4666 
L 1925 4666 
Q 3281 4666 3915 4102 
Q 4550 3538 4550 2338 
Q 4550 1131 3912 565 
Q 3275 0 1925 0 
L 628 0 
L 628 4666 
z
" id="DejaVuSans-44" transform="scale(0.015625)"/>
     </defs>
     <use xlink:href="#DejaVuSans-34"/>
     <use x="63.623047" xlink:href="#DejaVuSans-30"/>
     <use x="127.246094" xlink:href="#DejaVuSans-2d"/>
     <use x="163.330078" xlink:href="#DejaVuSans-44"/>
    </g>
   </g>
   <g id="text_14">
    <!-- 20-D -->
    <g transform="translate(375.22944 246.689638)scale(0.17 -0.17)">
     <use xlink:href="#DejaVuSans-32"/>
     <use x="63.623047" xlink:href="#DejaVuSans-30"/>
     <use x="127.246094" xlink:href="#DejaVuSans-2d"/>
     <use x="163.330078" xlink:href="#DejaVuSans-44"/>
    </g>
   </g>
   <g id="text_15">
    <!-- 10-D -->
    <g transform="translate(375.22944 195.116537)scale(0.17 -0.17)">
     <use xlink:href="#DejaVuSans-31"/>
     <use x="63.623047" xlink:href="#DejaVuSans-30"/>
     <use x="127.246094" xlink:href="#DejaVuSans-2d"/>
     <use x="163.330078" xlink:href="#DejaVuSans-44"/>
    </g>
   </g>
   <g id="text_16">
    <!-- 5-D -->
    <g transform="translate(375.22944 143.543437)scale(0.17 -0.17)">
     <defs>
      <path d="M 691 4666 
L 3169 4666 
L 3169 4134 
L 1269 4134 
L 1269 2991 
Q 1406 3038 1543 3061 
Q 1681 3084 1819 3084 
Q 2600 3084 3056 2656 
Q 3513 2228 3513 1497 
Q 3513 744 3044 326 
Q 2575 -91 1722 -91 
Q 1428 -91 1123 -41 
Q 819 9 494 109 
L 494 744 
Q 775 591 1075 516 
Q 1375 441 1709 441 
Q 2250 441 2565 725 
Q 2881 1009 2881 1497 
Q 2881 1984 2565 2268 
Q 2250 2553 1709 2553 
Q 1456 2553 1204 2497 
Q 953 2441 691 2322 
L 691 4666 
z
" id="DejaVuSans-35" transform="scale(0.015625)"/>
     </defs>
     <use xlink:href="#DejaVuSans-35"/>
     <use x="63.623047" xlink:href="#DejaVuSans-2d"/>
     <use x="99.707031" xlink:href="#DejaVuSans-44"/>
    </g>
   </g>
   <g id="text_17">
    <!-- 3-D -->
    <g transform="translate(375.22944 91.970336)scale(0.17 -0.17)">
     <defs>
      <path d="M 2597 2516 
Q 3050 2419 3304 2112 
Q 3559 1806 3559 1356 
Q 3559 666 3084 287 
Q 2609 -91 1734 -91 
Q 1441 -91 1130 -33 
Q 819 25 488 141 
L 488 750 
Q 750 597 1062 519 
Q 1375 441 1716 441 
Q 2309 441 2620 675 
Q 2931 909 2931 1356 
Q 2931 1769 2642 2001 
Q 2353 2234 1838 2234 
L 1294 2234 
L 1294 2753 
L 1863 2753 
Q 2328 2753 2575 2939 
Q 2822 3125 2822 3475 
Q 2822 3834 2567 4026 
Q 2313 4219 1838 4219 
Q 1578 4219 1281 4162 
Q 984 4106 628 3988 
L 628 4550 
Q 988 4650 1302 4700 
Q 1616 4750 1894 4750 
Q 2613 4750 3031 4423 
Q 3450 4097 3450 3541 
Q 3450 3153 3228 2886 
Q 3006 2619 2597 2516 
z
" id="DejaVuSans-33" transform="scale(0.015625)"/>
     </defs>
     <use xlink:href="#DejaVuSans-33"/>
     <use x="63.623047" xlink:href="#DejaVuSans-2d"/>
     <use x="99.707031" xlink:href="#DejaVuSans-44"/>
    </g>
   </g>
   <g id="text_18">
    <!-- 2-D -->
    <g transform="translate(375.22944 40.397235)scale(0.17 -0.17)">
     <use xlink:href="#DejaVuSans-32"/>
     <use x="63.623047" xlink:href="#DejaVuSans-2d"/>
     <use x="99.707031" xlink:href="#DejaVuSans-44"/>
    </g>
   </g>
   <g id="text_19">
    <!-- bbob f2 -->
    <g transform="translate(60.41088 38.111366)scale(0.102 -0.102)">
     <defs>
      <path d="M 3116 1747 
Q 3116 2381 2855 2742 
Q 2594 3103 2138 3103 
Q 1681 3103 1420 2742 
Q 1159 2381 1159 1747 
Q 1159 1113 1420 752 
Q 1681 391 2138 391 
Q 2594 391 2855 752 
Q 3116 1113 3116 1747 
z
M 1159 2969 
Q 1341 3281 1617 3432 
Q 1894 3584 2278 3584 
Q 2916 3584 3314 3078 
Q 3713 2572 3713 1747 
Q 3713 922 3314 415 
Q 2916 -91 2278 -91 
Q 1894 -91 1617 61 
Q 1341 213 1159 525 
L 1159 0 
L 581 0 
L 581 4863 
L 1159 4863 
L 1159 2969 
z
" id="DejaVuSans-62" transform="scale(0.015625)"/>
     </defs>
     <use xlink:href="#DejaVuSans-62"/>
     <use x="63.476562" xlink:href="#DejaVuSans-62"/>
     <use x="126.953125" xlink:href="#DejaVuSans-6f"/>
     <use x="188.134766" xlink:href="#DejaVuSans-62"/>
     <use x="251.611328" xlink:href="#DejaVuSans-20"/>
     <use x="283.398438" xlink:href="#DejaVuSans-66"/>
     <use x="318.603516" xlink:href="#DejaVuSans-32"/>
    </g>
    <!-- 51 targets: 100..1e-08 -->
    <g transform="translate(60.41088 49.533135)scale(0.102 -0.102)">
     <defs>
      <path d="M 750 794 
L 1409 794 
L 1409 0 
L 750 0 
L 750 794 
z
M 750 3309 
L 1409 3309 
L 1409 2516 
L 750 2516 
L 750 3309 
z
" id="DejaVuSans-3a" transform="scale(0.015625)"/>
     </defs>
     <use xlink:href="#DejaVuSans-35"/>
     <use x="63.623047" xlink:href="#DejaVuSans-31"/>
     <use x="127.246094" xlink:href="#DejaVuSans-20"/>
     <use x="159.033203" xlink:href="#DejaVuSans-74"/>
     <use x="198.242188" xlink:href="#DejaVuSans-61"/>
     <use x="259.521484" xlink:href="#DejaVuSans-72"/>
     <use x="298.884766" xlink:href="#DejaVuSans-67"/>
     <use x="362.361328" xlink:href="#DejaVuSans-65"/>
     <use x="423.884766" xlink:href="#DejaVuSans-74"/>
     <use x="463.09375" xlink:href="#DejaVuSans-73"/>
     <use x="515.193359" xlink:href="#DejaVuSans-3a"/>
     <use x="548.884766" xlink:href="#DejaVuSans-20"/>
     <use x="580.671875" xlink:href="#DejaVuSans-31"/>
     <use x="644.294922" xlink:href="#DejaVuSans-30"/>
     <use x="707.917969" xlink:href="#DejaVuSans-30"/>
     <use x="771.541016" xlink:href="#DejaVuSans-2e"/>
     <use x="803.328125" xlink:href="#DejaVuSans-2e"/>
     <use x="835.115234" xlink:href="#DejaVuSans-31"/>
     <use x="898.738281" xlink:href="#DejaVuSans-65"/>
     <use x="960.261719" xlink:href="#DejaVuSans-2d"/>
     <use x="996.345703" xlink:href="#DejaVuSans-30"/>
     <use x="1059.96875" xlink:href="#DejaVuSans-38"/>
    </g>
    <!-- 15 instances -->
    <g transform="translate(60.41088 60.954904)scale(0.102 -0.102)">
     <use xlink:href="#DejaVuSans-31"/>
     <use x="63.623047" xlink:href="#DejaVuSans-35"/>
     <use x="127.246094" xlink:href="#DejaVuSans-20"/>
     <use x="159.033203" xlink:href="#DejaVuSans-69"/>
     <use x="186.816406" xlink:href="#DejaVuSans-6e"/>
     <use x="250.195312" xlink:href="#DejaVuSans-73"/>
     <use x="302.294922" xlink:href="#DejaVuSans-74"/>
     <use x="341.503906" xlink:href="#DejaVuSans-61"/>
     <use x="402.783203" xlink:href="#DejaVuSans-6e"/>
     <use x="466.162109" xlink:href="#DejaVuSans-63"/>
     <use x="521.142578" xlink:href="#DejaVuSans-65"/>
     <use x="582.666016" xlink:href="#DejaVuSans-73"/>
    </g>
   </g>
   <g id="text_20">
    <!-- v2.4 -->
    <g style="fill:#808080;" transform="translate(187.233062 294.151352)scale(0.1 -0.1)">
     <use xlink:href="#DejaVuSans-76"/>
     <use x="59.179688" xlink:href="#DejaVuSans-32"/>
     <use x="122.802734" xlink:href="#DejaVuSans-2e"/>
     <use x="154.589844" xlink:href="#DejaVuSans-34"/>
    </g>
   </g>
   <g id="text_21">
    <!-- 2 Ellipsoid separable -->
    <g transform="translate(94.611187 21.648)scale(0.2 -0.2)">
     <defs>
      <path d="M 628 4666 
L 3578 4666 
L 3578 4134 
L 1259 4134 
L 1259 2753 
L 3481 2753 
L 3481 2222 
L 1259 2222 
L 1259 531 
L 3634 531 
L 3634 0 
L 628 0 
L 628 4666 
z
" id="DejaVuSans-45" transform="scale(0.015625)"/>
     </defs>
     <use xlink:href="#DejaVuSans-32"/>
     <use x="63.623047" xlink:href="#DejaVuSans-20"/>
     <use x="95.410156" xlink:href="#DejaVuSans-45"/>
     <use x="158.59375" xlink:href="#DejaVuSans-6c"/>
     <use x="186.376953" xlink:href="#DejaVuSans-6c"/>
     <use x="214.160156" xlink:href="#DejaVuSans-69"/>
     <use x="241.943359" xlink:href="#DejaVuSans-70"/>
     <use x="305.419922" xlink:href="#DejaVuSans-73"/>
     <use x="357.519531" xlink:href="#DejaVuSans-6f"/>
     <use x="418.701172" xlink:href="#DejaVuSans-69"/>
     <use x="446.484375" xlink:href="#DejaVuSans-64"/>
     <use x="509.960938" xlink:href="#DejaVuSans-20"/>
     <use x="541.748047" xlink:href="#DejaVuSans-73"/>
     <use x="593.847656" xlink:href="#DejaVuSans-65"/>
     <use x="655.371094" xlink:href="#DejaVuSans-70"/>
     <use x="718.847656" xlink:href="#DejaVuSans-61"/>
     <use x="780.126953" xlink:href="#DejaVuSans-72"/>
     <use x="821.240234" xlink:href="#DejaVuSans-61"/>
     <use x="882.519531" xlink:href="#DejaVuSans-62"/>
     <use x="945.996094" xlink:href="#DejaVuSans-6c"/>
     <use x="973.779297" xlink:href="#DejaVuSans-65"/>
    </g>
   </g>
  </g>
 </g>
 <defs>
  <clipPath id="p937264636b">
   <rect height="271.296" width="281.088" x="57.6" y="27.648"/>
  </clipPath>
 </defs>
</svg>
