<?xml version="1.0" encoding="utf-8" standalone="no"?>
<!DOCTYPE svg PUBLIC "-//W3C//DTD SVG 1.1//EN"
  "http://www.w3.org/Graphics/SVG/1.1/DTD/svg11.dtd">
<svg height="345.6pt" version="1.1" viewBox="0 0 460.8 345.6" width="460.8pt" xmlns="http://www.w3.org/2000/svg" xmlns:xlink="http://www.w3.org/1999/xlink">
 <metadata>
  <rdf:RDF xmlns:cc="http://creativecommons.org/ns#" xmlns:dc="http://purl.org/dc/elements/1.1/" xmlns:rdf="http://www.w3.org/1999/02/22-rdf-syntax-ns#">
   <cc:Work>
    <dc:type rdf:resource="http://purl.org/dc/dcmitype/StillImage"/>
    <dc:date>2021-04-26T18:35:57.080572</dc:date>
    <dc:format>image/svg+xml</dc:format>
    <dc:creator>
     <cc:Agent>
      <dc:title>Matplotlib v3.4.1, https://matplotlib.org/</dc:title>
     </cc:Agent>
    </dc:creator>
   </cc:Work>
  </rdf:RDF>
 </metadata>
 <defs>
  <style type="text/css">*{stroke-linecap:butt;stroke-linejoin:round;}</style>
 </defs>
 <g id="figure_1">
  <g id="patch_1">
   <path d="M 0 345.6 
L 460.8 345.6 
L 460.8 0 
L 0 0 
z
" style="fill:#ffffff;"/>
  </g>
  <g id="axes_1">
   <g id="patch_2">
    <path d="M 57.6 298.944 
L 338.688 298.944 
L 338.688 3.456 
L 57.6 3.456 
z
" style="fill:#ffffff;"/>
   </g>
   <g id="matplotlib.axis_1">
    <g id="xtick_1">
     <g id="line2d_1">
      <path clip-path="url(#p3bbf6eba0a)" d="M 57.6 298.944 
L 57.6 3.456 
" style="fill:none;stroke:#b0b0b0;stroke-linecap:square;stroke-width:0.8;"/>
     </g>
     <g id="line2d_2">
      <defs>
       <path d="M 0 0 
L 0 3.5 
" id="me3470bec77" style="stroke:#000000;stroke-width:0.8;"/>
      </defs>
      <g>
       <use style="stroke:#000000;stroke-width:0.8;" x="57.6" xlink:href="#me3470bec77" y="298.944"/>
      </g>
     </g>
     <g id="text_1">
      <!-- 0 -->
      <g transform="translate(51.2375 321.140875)scale(0.2 -0.2)">
       <defs>
        <path d="M 2034 4250 
Q 1547 4250 1301 3770 
Q 1056 3291 1056 2328 
Q 1056 1369 1301 889 
Q 1547 409 2034 409 
Q 2525 409 2770 889 
Q 3016 1369 3016 2328 
Q 3016 3291 2770 3770 
Q 2525 4250 2034 4250 
z
M 2034 4750 
Q 2819 4750 3233 4129 
Q 3647 3509 3647 2328 
Q 3647 1150 3233 529 
Q 2819 -91 2034 -91 
Q 1250 -91 836 529 
Q 422 1150 422 2328 
Q 422 3509 836 4129 
Q 1250 4750 2034 4750 
z
" id="DejaVuSans-30" transform="scale(0.015625)"/>
       </defs>
       <use xlink:href="#DejaVuSans-30"/>
      </g>
     </g>
    </g>
    <g id="xtick_2">
     <g id="line2d_3">
      <path clip-path="url(#p3bbf6eba0a)" d="M 137.910857 298.944 
L 137.910857 3.456 
" style="fill:none;stroke:#b0b0b0;stroke-linecap:square;stroke-width:0.8;"/>
     </g>
     <g id="line2d_4">
      <g>
       <use style="stroke:#000000;stroke-width:0.8;" x="137.910857" xlink:href="#me3470bec77" y="298.944"/>
      </g>
     </g>
     <g id="text_2">
      <!-- 2 -->
      <g transform="translate(131.548357 321.140875)scale(0.2 -0.2)">
       <defs>
        <path d="M 1228 531 
L 3431 531 
L 3431 0 
L 469 0 
L 469 531 
Q 828 903 1448 1529 
Q 2069 2156 2228 2338 
Q 2531 2678 2651 2914 
Q 2772 3150 2772 3378 
Q 2772 3750 2511 3984 
Q 2250 4219 1831 4219 
Q 1534 4219 1204 4116 
Q 875 4013 500 3803 
L 500 4441 
Q 881 4594 1212 4672 
Q 1544 4750 1819 4750 
Q 2544 4750 2975 4387 
Q 3406 4025 3406 3419 
Q 3406 3131 3298 2873 
Q 3191 2616 2906 2266 
Q 2828 2175 2409 1742 
Q 1991 1309 1228 531 
z
" id="DejaVuSans-32" transform="scale(0.015625)"/>
       </defs>
       <use xlink:href="#DejaVuSans-32"/>
      </g>
     </g>
    </g>
    <g id="xtick_3">
     <g id="line2d_5">
      <path clip-path="url(#p3bbf6eba0a)" d="M 218.221714 298.944 
L 218.221714 3.456 
" style="fill:none;stroke:#b0b0b0;stroke-linecap:square;stroke-width:0.8;"/>
     </g>
     <g id="line2d_6">
      <g>
       <use style="stroke:#000000;stroke-width:0.8;" x="218.221714" xlink:href="#me3470bec77" y="298.944"/>
      </g>
     </g>
     <g id="text_3">
      <!-- 4 -->
      <g transform="translate(211.859214 321.140875)scale(0.2 -0.2)">
       <defs>
        <path d="M 2419 4116 
L 825 1625 
L 2419 1625 
L 2419 4116 
z
M 2253 4666 
L 3047 4666 
L 3047 1625 
L 3713 1625 
L 3713 1100 
L 3047 1100 
L 3047 0 
L 2419 0 
L 2419 1100 
L 313 1100 
L 313 1709 
L 2253 4666 
z
" id="DejaVuSans-34" transform="scale(0.015625)"/>
       </defs>
       <use xlink:href="#DejaVuSans-34"/>
      </g>
     </g>
    </g>
    <g id="xtick_4">
     <g id="line2d_7">
      <path clip-path="url(#p3bbf6eba0a)" d="M 298.532571 298.944 
L 298.532571 3.456 
" style="fill:none;stroke:#b0b0b0;stroke-linecap:square;stroke-width:0.8;"/>
     </g>
     <g id="line2d_8">
      <g>
       <use style="stroke:#000000;stroke-width:0.8;" x="298.532571" xlink:href="#me3470bec77" y="298.944"/>
      </g>
     </g>
     <g id="text_4">
      <!-- 6 -->
      <g transform="translate(292.170071 321.140875)scale(0.2 -0.2)">
       <defs>
        <path d="M 2113 2584 
Q 1688 2584 1439 2293 
Q 1191 2003 1191 1497 
Q 1191 994 1439 701 
Q 1688 409 2113 409 
Q 2538 409 2786 701 
Q 3034 994 3034 1497 
Q 3034 2003 2786 2293 
Q 2538 2584 2113 2584 
z
M 3366 4563 
L 3366 3988 
Q 3128 4100 2886 4159 
Q 2644 4219 2406 4219 
Q 1781 4219 1451 3797 
Q 1122 3375 1075 2522 
Q 1259 2794 1537 2939 
Q 1816 3084 2150 3084 
Q 2853 3084 3261 2657 
Q 3669 2231 3669 1497 
Q 3669 778 3244 343 
Q 2819 -91 2113 -91 
Q 1303 -91 875 529 
Q 447 1150 447 2328 
Q 447 3434 972 4092 
Q 1497 4750 2381 4750 
Q 2619 4750 2861 4703 
Q 3103 4656 3366 4563 
z
" id="DejaVuSans-36" transform="scale(0.015625)"/>
       </defs>
       <use xlink:href="#DejaVuSans-36"/>
      </g>
     </g>
    </g>
    <g id="xtick_5">
     <g id="line2d_9">
      <path clip-path="url(#p3bbf6eba0a)" d="M 97.755429 298.944 
L 97.755429 3.456 
" style="fill:none;stroke:#b0b0b0;stroke-linecap:square;stroke-width:0.8;"/>
     </g>
     <g id="line2d_10">
      <defs>
       <path d="M 0 0 
L 0 2 
" id="m87d67a3ada" style="stroke:#000000;stroke-width:0.6;"/>
      </defs>
      <g>
       <use style="stroke:#000000;stroke-width:0.6;" x="97.755429" xlink:href="#m87d67a3ada" y="298.944"/>
      </g>
     </g>
    </g>
    <g id="xtick_6">
     <g id="line2d_11">
      <path clip-path="url(#p3bbf6eba0a)" d="M 178.066286 298.944 
L 178.066286 3.456 
" style="fill:none;stroke:#b0b0b0;stroke-linecap:square;stroke-width:0.8;"/>
     </g>
     <g id="line2d_12">
      <g>
       <use style="stroke:#000000;stroke-width:0.6;" x="178.066286" xlink:href="#m87d67a3ada" y="298.944"/>
      </g>
     </g>
    </g>
    <g id="xtick_7">
     <g id="line2d_13">
      <path clip-path="url(#p3bbf6eba0a)" d="M 258.377143 298.944 
L 258.377143 3.456 
" style="fill:none;stroke:#b0b0b0;stroke-linecap:square;stroke-width:0.8;"/>
     </g>
     <g id="line2d_14">
      <g>
       <use style="stroke:#000000;stroke-width:0.6;" x="258.377143" xlink:href="#m87d67a3ada" y="298.944"/>
      </g>
     </g>
    </g>
    <g id="xtick_8">
     <g id="line2d_15">
      <path clip-path="url(#p3bbf6eba0a)" d="M 338.688 298.944 
L 338.688 3.456 
" style="fill:none;stroke:#b0b0b0;stroke-linecap:square;stroke-width:0.8;"/>
     </g>
     <g id="line2d_16">
      <g>
       <use style="stroke:#000000;stroke-width:0.6;" x="338.688" xlink:href="#m87d67a3ada" y="298.944"/>
      </g>
     </g>
    </g>
    <g id="text_5">
     <!-- log10(# f-evals / dimension) -->
     <g transform="translate(77.764078 342.217594)scale(0.17 -0.17)">
      <defs>
       <path d="M 603 4863 
L 1178 4863 
L 1178 0 
L 603 0 
L 603 4863 
z
" id="DejaVuSans-6c" transform="scale(0.015625)"/>
       <path d="M 1959 3097 
Q 1497 3097 1228 2736 
Q 959 2375 959 1747 
Q 959 1119 1226 758 
Q 1494 397 1959 397 
Q 2419 397 2687 759 
Q 2956 1122 2956 1747 
Q 2956 2369 2687 2733 
Q 2419 3097 1959 3097 
z
M 1959 3584 
Q 2709 3584 3137 3096 
Q 3566 2609 3566 1747 
Q 3566 888 3137 398 
Q 2709 -91 1959 -91 
Q 1206 -91 779 398 
Q 353 888 353 1747 
Q 353 2609 779 3096 
Q 1206 3584 1959 3584 
z
" id="DejaVuSans-6f" transform="scale(0.015625)"/>
       <path d="M 2906 1791 
Q 2906 2416 2648 2759 
Q 2391 3103 1925 3103 
Q 1463 3103 1205 2759 
Q 947 2416 947 1791 
Q 947 1169 1205 825 
Q 1463 481 1925 481 
Q 2391 481 2648 825 
Q 2906 1169 2906 1791 
z
M 3481 434 
Q 3481 -459 3084 -895 
Q 2688 -1331 1869 -1331 
Q 1566 -1331 1297 -1286 
Q 1028 -1241 775 -1147 
L 775 -588 
Q 1028 -725 1275 -790 
Q 1522 -856 1778 -856 
Q 2344 -856 2625 -561 
Q 2906 -266 2906 331 
L 2906 616 
Q 2728 306 2450 153 
Q 2172 0 1784 0 
Q 1141 0 747 490 
Q 353 981 353 1791 
Q 353 2603 747 3093 
Q 1141 3584 1784 3584 
Q 2172 3584 2450 3431 
Q 2728 3278 2906 2969 
L 2906 3500 
L 3481 3500 
L 3481 434 
z
" id="DejaVuSans-67" transform="scale(0.015625)"/>
       <path d="M 794 531 
L 1825 531 
L 1825 4091 
L 703 3866 
L 703 4441 
L 1819 4666 
L 2450 4666 
L 2450 531 
L 3481 531 
L 3481 0 
L 794 0 
L 794 531 
z
" id="DejaVuSans-31" transform="scale(0.015625)"/>
       <path d="M 1984 4856 
Q 1566 4138 1362 3434 
Q 1159 2731 1159 2009 
Q 1159 1288 1364 580 
Q 1569 -128 1984 -844 
L 1484 -844 
Q 1016 -109 783 600 
Q 550 1309 550 2009 
Q 550 2706 781 3412 
Q 1013 4119 1484 4856 
L 1984 4856 
z
" id="DejaVuSans-28" transform="scale(0.015625)"/>
       <path d="M 3272 2816 
L 2363 2816 
L 2100 1772 
L 3016 1772 
L 3272 2816 
z
M 2803 4594 
L 2478 3297 
L 3391 3297 
L 3719 4594 
L 4219 4594 
L 3897 3297 
L 4872 3297 
L 4872 2816 
L 3775 2816 
L 3519 1772 
L 4513 1772 
L 4513 1294 
L 3397 1294 
L 3072 0 
L 2572 0 
L 2894 1294 
L 1978 1294 
L 1656 0 
L 1153 0 
L 1478 1294 
L 494 1294 
L 494 1772 
L 1594 1772 
L 1856 2816 
L 850 2816 
L 850 3297 
L 1978 3297 
L 2297 4594 
L 2803 4594 
z
" id="DejaVuSans-23" transform="scale(0.015625)"/>
       <path id="DejaVuSans-20" transform="scale(0.015625)"/>
       <path d="M 2375 4863 
L 2375 4384 
L 1825 4384 
Q 1516 4384 1395 4259 
Q 1275 4134 1275 3809 
L 1275 3500 
L 2222 3500 
L 2222 3053 
L 1275 3053 
L 1275 0 
L 697 0 
L 697 3053 
L 147 3053 
L 147 3500 
L 697 3500 
L 697 3744 
Q 697 4328 969 4595 
Q 1241 4863 1831 4863 
L 2375 4863 
z
" id="DejaVuSans-66" transform="scale(0.015625)"/>
       <path d="M 313 2009 
L 1997 2009 
L 1997 1497 
L 313 1497 
L 313 2009 
z
" id="DejaVuSans-2d" transform="scale(0.015625)"/>
       <path d="M 3597 1894 
L 3597 1613 
L 953 1613 
Q 991 1019 1311 708 
Q 1631 397 2203 397 
Q 2534 397 2845 478 
Q 3156 559 3463 722 
L 3463 178 
Q 3153 47 2828 -22 
Q 2503 -91 2169 -91 
Q 1331 -91 842 396 
Q 353 884 353 1716 
Q 353 2575 817 3079 
Q 1281 3584 2069 3584 
Q 2775 3584 3186 3129 
Q 3597 2675 3597 1894 
z
M 3022 2063 
Q 3016 2534 2758 2815 
Q 2500 3097 2075 3097 
Q 1594 3097 1305 2825 
Q 1016 2553 972 2059 
L 3022 2063 
z
" id="DejaVuSans-65" transform="scale(0.015625)"/>
       <path d="M 191 3500 
L 800 3500 
L 1894 563 
L 2988 3500 
L 3597 3500 
L 2284 0 
L 1503 0 
L 191 3500 
z
" id="DejaVuSans-76" transform="scale(0.015625)"/>
       <path d="M 2194 1759 
Q 1497 1759 1228 1600 
Q 959 1441 959 1056 
Q 959 750 1161 570 
Q 1363 391 1709 391 
Q 2188 391 2477 730 
Q 2766 1069 2766 1631 
L 2766 1759 
L 2194 1759 
z
M 3341 1997 
L 3341 0 
L 2766 0 
L 2766 531 
Q 2569 213 2275 61 
Q 1981 -91 1556 -91 
Q 1019 -91 701 211 
Q 384 513 384 1019 
Q 384 1609 779 1909 
Q 1175 2209 1959 2209 
L 2766 2209 
L 2766 2266 
Q 2766 2663 2505 2880 
Q 2244 3097 1772 3097 
Q 1472 3097 1187 3025 
Q 903 2953 641 2809 
L 641 3341 
Q 956 3463 1253 3523 
Q 1550 3584 1831 3584 
Q 2591 3584 2966 3190 
Q 3341 2797 3341 1997 
z
" id="DejaVuSans-61" transform="scale(0.015625)"/>
       <path d="M 2834 3397 
L 2834 2853 
Q 2591 2978 2328 3040 
Q 2066 3103 1784 3103 
Q 1356 3103 1142 2972 
Q 928 2841 928 2578 
Q 928 2378 1081 2264 
Q 1234 2150 1697 2047 
L 1894 2003 
Q 2506 1872 2764 1633 
Q 3022 1394 3022 966 
Q 3022 478 2636 193 
Q 2250 -91 1575 -91 
Q 1294 -91 989 -36 
Q 684 19 347 128 
L 347 722 
Q 666 556 975 473 
Q 1284 391 1588 391 
Q 1994 391 2212 530 
Q 2431 669 2431 922 
Q 2431 1156 2273 1281 
Q 2116 1406 1581 1522 
L 1381 1569 
Q 847 1681 609 1914 
Q 372 2147 372 2553 
Q 372 3047 722 3315 
Q 1072 3584 1716 3584 
Q 2034 3584 2315 3537 
Q 2597 3491 2834 3397 
z
" id="DejaVuSans-73" transform="scale(0.015625)"/>
       <path d="M 1625 4666 
L 2156 4666 
L 531 -594 
L 0 -594 
L 1625 4666 
z
" id="DejaVuSans-2f" transform="scale(0.015625)"/>
       <path d="M 2906 2969 
L 2906 4863 
L 3481 4863 
L 3481 0 
L 2906 0 
L 2906 525 
Q 2725 213 2448 61 
Q 2172 -91 1784 -91 
Q 1150 -91 751 415 
Q 353 922 353 1747 
Q 353 2572 751 3078 
Q 1150 3584 1784 3584 
Q 2172 3584 2448 3432 
Q 2725 3281 2906 2969 
z
M 947 1747 
Q 947 1113 1208 752 
Q 1469 391 1925 391 
Q 2381 391 2643 752 
Q 2906 1113 2906 1747 
Q 2906 2381 2643 2742 
Q 2381 3103 1925 3103 
Q 1469 3103 1208 2742 
Q 947 2381 947 1747 
z
" id="DejaVuSans-64" transform="scale(0.015625)"/>
       <path d="M 603 3500 
L 1178 3500 
L 1178 0 
L 603 0 
L 603 3500 
z
M 603 4863 
L 1178 4863 
L 1178 4134 
L 603 4134 
L 603 4863 
z
" id="DejaVuSans-69" transform="scale(0.015625)"/>
       <path d="M 3328 2828 
Q 3544 3216 3844 3400 
Q 4144 3584 4550 3584 
Q 5097 3584 5394 3201 
Q 5691 2819 5691 2113 
L 5691 0 
L 5113 0 
L 5113 2094 
Q 5113 2597 4934 2840 
Q 4756 3084 4391 3084 
Q 3944 3084 3684 2787 
Q 3425 2491 3425 1978 
L 3425 0 
L 2847 0 
L 2847 2094 
Q 2847 2600 2669 2842 
Q 2491 3084 2119 3084 
Q 1678 3084 1418 2786 
Q 1159 2488 1159 1978 
L 1159 0 
L 581 0 
L 581 3500 
L 1159 3500 
L 1159 2956 
Q 1356 3278 1631 3431 
Q 1906 3584 2284 3584 
Q 2666 3584 2933 3390 
Q 3200 3197 3328 2828 
z
" id="DejaVuSans-6d" transform="scale(0.015625)"/>
       <path d="M 3513 2113 
L 3513 0 
L 2938 0 
L 2938 2094 
Q 2938 2591 2744 2837 
Q 2550 3084 2163 3084 
Q 1697 3084 1428 2787 
Q 1159 2491 1159 1978 
L 1159 0 
L 581 0 
L 581 3500 
L 1159 3500 
L 1159 2956 
Q 1366 3272 1645 3428 
Q 1925 3584 2291 3584 
Q 2894 3584 3203 3211 
Q 3513 2838 3513 2113 
z
" id="DejaVuSans-6e" transform="scale(0.015625)"/>
       <path d="M 513 4856 
L 1013 4856 
Q 1481 4119 1714 3412 
Q 1947 2706 1947 2009 
Q 1947 1309 1714 600 
Q 1481 -109 1013 -844 
L 513 -844 
Q 928 -128 1133 580 
Q 1338 1288 1338 2009 
Q 1338 2731 1133 3434 
Q 928 4138 513 4856 
z
" id="DejaVuSans-29" transform="scale(0.015625)"/>
      </defs>
      <use xlink:href="#DejaVuSans-6c"/>
      <use x="27.783203" xlink:href="#DejaVuSans-6f"/>
      <use x="88.964844" xlink:href="#DejaVuSans-67"/>
      <use x="152.441406" xlink:href="#DejaVuSans-31"/>
      <use x="216.064453" xlink:href="#DejaVuSans-30"/>
      <use x="279.6875" xlink:href="#DejaVuSans-28"/>
      <use x="318.701172" xlink:href="#DejaVuSans-23"/>
      <use x="402.490234" xlink:href="#DejaVuSans-20"/>
      <use x="434.277344" xlink:href="#DejaVuSans-66"/>
      <use x="463.982422" xlink:href="#DejaVuSans-2d"/>
      <use x="500.066406" xlink:href="#DejaVuSans-65"/>
      <use x="561.589844" xlink:href="#DejaVuSans-76"/>
      <use x="620.769531" xlink:href="#DejaVuSans-61"/>
      <use x="682.048828" xlink:href="#DejaVuSans-6c"/>
      <use x="709.832031" xlink:href="#DejaVuSans-73"/>
      <use x="761.931641" xlink:href="#DejaVuSans-20"/>
      <use x="793.71875" xlink:href="#DejaVuSans-2f"/>
      <use x="827.410156" xlink:href="#DejaVuSans-20"/>
      <use x="859.197266" xlink:href="#DejaVuSans-64"/>
      <use x="922.673828" xlink:href="#DejaVuSans-69"/>
      <use x="950.457031" xlink:href="#DejaVuSans-6d"/>
      <use x="1047.869141" xlink:href="#DejaVuSans-65"/>
      <use x="1109.392578" xlink:href="#DejaVuSans-6e"/>
      <use x="1172.771484" xlink:href="#DejaVuSans-73"/>
      <use x="1224.871094" xlink:href="#DejaVuSans-69"/>
      <use x="1252.654297" xlink:href="#DejaVuSans-6f"/>
      <use x="1313.835938" xlink:href="#DejaVuSans-6e"/>
      <use x="1377.214844" xlink:href="#DejaVuSans-29"/>
     </g>
    </g>
   </g>
   <g id="matplotlib.axis_2">
    <g id="ytick_1">
     <g id="line2d_17">
      <path clip-path="url(#p3bbf6eba0a)" d="M 57.6 298.944 
L 338.688 298.944 
" style="fill:none;stroke:#b0b0b0;stroke-linecap:square;stroke-width:0.8;"/>
     </g>
     <g id="line2d_18">
      <defs>
       <path d="M 0 0 
L -3.5 0 
" id="m3306e89ce2" style="stroke:#000000;stroke-width:0.8;"/>
      </defs>
      <g>
       <use style="stroke:#000000;stroke-width:0.8;" x="57.6" xlink:href="#m3306e89ce2" y="298.944"/>
      </g>
     </g>
     <g id="text_6">
      <!-- 0.0 -->
      <g transform="translate(25.155 305.02275)scale(0.16 -0.16)">
       <defs>
        <path d="M 684 794 
L 1344 794 
L 1344 0 
L 684 0 
L 684 794 
z
" id="DejaVuSans-2e" transform="scale(0.015625)"/>
       </defs>
       <use xlink:href="#DejaVuSans-30"/>
       <use x="63.623047" xlink:href="#DejaVuSans-2e"/>
       <use x="95.410156" xlink:href="#DejaVuSans-30"/>
      </g>
     </g>
    </g>
    <g id="ytick_2">
     <g id="line2d_19">
      <path clip-path="url(#p3bbf6eba0a)" d="M 57.6 240.431525 
L 338.688 240.431525 
" style="fill:none;stroke:#b0b0b0;stroke-linecap:square;stroke-width:0.8;"/>
     </g>
     <g id="line2d_20">
      <g>
       <use style="stroke:#000000;stroke-width:0.8;" x="57.6" xlink:href="#m3306e89ce2" y="240.431525"/>
      </g>
     </g>
     <g id="text_7">
      <!-- 0.2 -->
      <g transform="translate(25.155 246.510275)scale(0.16 -0.16)">
       <use xlink:href="#DejaVuSans-30"/>
       <use x="63.623047" xlink:href="#DejaVuSans-2e"/>
       <use x="95.410156" xlink:href="#DejaVuSans-32"/>
      </g>
     </g>
    </g>
    <g id="ytick_3">
     <g id="line2d_21">
      <path clip-path="url(#p3bbf6eba0a)" d="M 57.6 181.91905 
L 338.688 181.91905 
" style="fill:none;stroke:#b0b0b0;stroke-linecap:square;stroke-width:0.8;"/>
     </g>
     <g id="line2d_22">
      <g>
       <use style="stroke:#000000;stroke-width:0.8;" x="57.6" xlink:href="#m3306e89ce2" y="181.91905"/>
      </g>
     </g>
     <g id="text_8">
      <!-- 0.4 -->
      <g transform="translate(25.155 187.9978)scale(0.16 -0.16)">
       <use xlink:href="#DejaVuSans-30"/>
       <use x="63.623047" xlink:href="#DejaVuSans-2e"/>
       <use x="95.410156" xlink:href="#DejaVuSans-34"/>
      </g>
     </g>
    </g>
    <g id="ytick_4">
     <g id="line2d_23">
      <path clip-path="url(#p3bbf6eba0a)" d="M 57.6 123.406574 
L 338.688 123.406574 
" style="fill:none;stroke:#b0b0b0;stroke-linecap:square;stroke-width:0.8;"/>
     </g>
     <g id="line2d_24">
      <g>
       <use style="stroke:#000000;stroke-width:0.8;" x="57.6" xlink:href="#m3306e89ce2" y="123.406574"/>
      </g>
     </g>
     <g id="text_9">
      <!-- 0.6 -->
      <g transform="translate(25.155 129.485324)scale(0.16 -0.16)">
       <use xlink:href="#DejaVuSans-30"/>
       <use x="63.623047" xlink:href="#DejaVuSans-2e"/>
       <use x="95.410156" xlink:href="#DejaVuSans-36"/>
      </g>
     </g>
    </g>
    <g id="ytick_5">
     <g id="line2d_25">
      <path clip-path="url(#p3bbf6eba0a)" d="M 57.6 64.894099 
L 338.688 64.894099 
" style="fill:none;stroke:#b0b0b0;stroke-linecap:square;stroke-width:0.8;"/>
     </g>
     <g id="line2d_26">
      <g>
       <use style="stroke:#000000;stroke-width:0.8;" x="57.6" xlink:href="#m3306e89ce2" y="64.894099"/>
      </g>
     </g>
     <g id="text_10">
      <!-- 0.8 -->
      <g transform="translate(25.155 70.972849)scale(0.16 -0.16)">
       <defs>
        <path d="M 2034 2216 
Q 1584 2216 1326 1975 
Q 1069 1734 1069 1313 
Q 1069 891 1326 650 
Q 1584 409 2034 409 
Q 2484 409 2743 651 
Q 3003 894 3003 1313 
Q 3003 1734 2745 1975 
Q 2488 2216 2034 2216 
z
M 1403 2484 
Q 997 2584 770 2862 
Q 544 3141 544 3541 
Q 544 4100 942 4425 
Q 1341 4750 2034 4750 
Q 2731 4750 3128 4425 
Q 3525 4100 3525 3541 
Q 3525 3141 3298 2862 
Q 3072 2584 2669 2484 
Q 3125 2378 3379 2068 
Q 3634 1759 3634 1313 
Q 3634 634 3220 271 
Q 2806 -91 2034 -91 
Q 1263 -91 848 271 
Q 434 634 434 1313 
Q 434 1759 690 2068 
Q 947 2378 1403 2484 
z
M 1172 3481 
Q 1172 3119 1398 2916 
Q 1625 2713 2034 2713 
Q 2441 2713 2670 2916 
Q 2900 3119 2900 3481 
Q 2900 3844 2670 4047 
Q 2441 4250 2034 4250 
Q 1625 4250 1398 4047 
Q 1172 3844 1172 3481 
z
" id="DejaVuSans-38" transform="scale(0.015625)"/>
       </defs>
       <use xlink:href="#DejaVuSans-30"/>
       <use x="63.623047" xlink:href="#DejaVuSans-2e"/>
       <use x="95.410156" xlink:href="#DejaVuSans-38"/>
      </g>
     </g>
    </g>
    <g id="ytick_6">
     <g id="line2d_27">
      <path clip-path="url(#p3bbf6eba0a)" d="M 57.6 6.381624 
L 338.688 6.381624 
" style="fill:none;stroke:#b0b0b0;stroke-linecap:square;stroke-width:0.8;"/>
     </g>
     <g id="line2d_28">
      <g>
       <use style="stroke:#000000;stroke-width:0.8;" x="57.6" xlink:href="#m3306e89ce2" y="6.381624"/>
      </g>
     </g>
     <g id="text_11">
      <!-- 1.0 -->
      <g transform="translate(25.155 12.460374)scale(0.16 -0.16)">
       <use xlink:href="#DejaVuSans-31"/>
       <use x="63.623047" xlink:href="#DejaVuSans-2e"/>
       <use x="95.410156" xlink:href="#DejaVuSans-30"/>
      </g>
     </g>
    </g>
    <g id="text_12">
     <!-- Fraction of function,target pairs -->
     <g transform="translate(17.619531 285.585)rotate(-90)scale(0.17 -0.17)">
      <defs>
       <path d="M 628 4666 
L 3309 4666 
L 3309 4134 
L 1259 4134 
L 1259 2759 
L 3109 2759 
L 3109 2228 
L 1259 2228 
L 1259 0 
L 628 0 
L 628 4666 
z
" id="DejaVuSans-46" transform="scale(0.015625)"/>
       <path d="M 2631 2963 
Q 2534 3019 2420 3045 
Q 2306 3072 2169 3072 
Q 1681 3072 1420 2755 
Q 1159 2438 1159 1844 
L 1159 0 
L 581 0 
L 581 3500 
L 1159 3500 
L 1159 2956 
Q 1341 3275 1631 3429 
Q 1922 3584 2338 3584 
Q 2397 3584 2469 3576 
Q 2541 3569 2628 3553 
L 2631 2963 
z
" id="DejaVuSans-72" transform="scale(0.015625)"/>
       <path d="M 3122 3366 
L 3122 2828 
Q 2878 2963 2633 3030 
Q 2388 3097 2138 3097 
Q 1578 3097 1268 2742 
Q 959 2388 959 1747 
Q 959 1106 1268 751 
Q 1578 397 2138 397 
Q 2388 397 2633 464 
Q 2878 531 3122 666 
L 3122 134 
Q 2881 22 2623 -34 
Q 2366 -91 2075 -91 
Q 1284 -91 818 406 
Q 353 903 353 1747 
Q 353 2603 823 3093 
Q 1294 3584 2113 3584 
Q 2378 3584 2631 3529 
Q 2884 3475 3122 3366 
z
" id="DejaVuSans-63" transform="scale(0.015625)"/>
       <path d="M 1172 4494 
L 1172 3500 
L 2356 3500 
L 2356 3053 
L 1172 3053 
L 1172 1153 
Q 1172 725 1289 603 
Q 1406 481 1766 481 
L 2356 481 
L 2356 0 
L 1766 0 
Q 1100 0 847 248 
Q 594 497 594 1153 
L 594 3053 
L 172 3053 
L 172 3500 
L 594 3500 
L 594 4494 
L 1172 4494 
z
" id="DejaVuSans-74" transform="scale(0.015625)"/>
       <path d="M 544 1381 
L 544 3500 
L 1119 3500 
L 1119 1403 
Q 1119 906 1312 657 
Q 1506 409 1894 409 
Q 2359 409 2629 706 
Q 2900 1003 2900 1516 
L 2900 3500 
L 3475 3500 
L 3475 0 
L 2900 0 
L 2900 538 
Q 2691 219 2414 64 
Q 2138 -91 1772 -91 
Q 1169 -91 856 284 
Q 544 659 544 1381 
z
M 1991 3584 
L 1991 3584 
z
" id="DejaVuSans-75" transform="scale(0.015625)"/>
       <path d="M 750 794 
L 1409 794 
L 1409 256 
L 897 -744 
L 494 -744 
L 750 256 
L 750 794 
z
" id="DejaVuSans-2c" transform="scale(0.015625)"/>
       <path d="M 1159 525 
L 1159 -1331 
L 581 -1331 
L 581 3500 
L 1159 3500 
L 1159 2969 
Q 1341 3281 1617 3432 
Q 1894 3584 2278 3584 
Q 2916 3584 3314 3078 
Q 3713 2572 3713 1747 
Q 3713 922 3314 415 
Q 2916 -91 2278 -91 
Q 1894 -91 1617 61 
Q 1341 213 1159 525 
z
M 3116 1747 
Q 3116 2381 2855 2742 
Q 2594 3103 2138 3103 
Q 1681 3103 1420 2742 
Q 1159 2381 1159 1747 
Q 1159 1113 1420 752 
Q 1681 391 2138 391 
Q 2594 391 2855 752 
Q 3116 1113 3116 1747 
z
" id="DejaVuSans-70" transform="scale(0.015625)"/>
      </defs>
      <use xlink:href="#DejaVuSans-46"/>
      <use x="50.269531" xlink:href="#DejaVuSans-72"/>
      <use x="91.382812" xlink:href="#DejaVuSans-61"/>
      <use x="152.662109" xlink:href="#DejaVuSans-63"/>
      <use x="207.642578" xlink:href="#DejaVuSans-74"/>
      <use x="246.851562" xlink:href="#DejaVuSans-69"/>
      <use x="274.634766" xlink:href="#DejaVuSans-6f"/>
      <use x="335.816406" xlink:href="#DejaVuSans-6e"/>
      <use x="399.195312" xlink:href="#DejaVuSans-20"/>
      <use x="430.982422" xlink:href="#DejaVuSans-6f"/>
      <use x="492.164062" xlink:href="#DejaVuSans-66"/>
      <use x="527.369141" xlink:href="#DejaVuSans-20"/>
      <use x="559.15625" xlink:href="#DejaVuSans-66"/>
      <use x="594.361328" xlink:href="#DejaVuSans-75"/>
      <use x="657.740234" xlink:href="#DejaVuSans-6e"/>
      <use x="721.119141" xlink:href="#DejaVuSans-63"/>
      <use x="776.099609" xlink:href="#DejaVuSans-74"/>
      <use x="815.308594" xlink:href="#DejaVuSans-69"/>
      <use x="843.091797" xlink:href="#DejaVuSans-6f"/>
      <use x="904.273438" xlink:href="#DejaVuSans-6e"/>
      <use x="967.652344" xlink:href="#DejaVuSans-2c"/>
      <use x="999.439453" xlink:href="#DejaVuSans-74"/>
      <use x="1038.648438" xlink:href="#DejaVuSans-61"/>
      <use x="1099.927734" xlink:href="#DejaVuSans-72"/>
      <use x="1139.291016" xlink:href="#DejaVuSans-67"/>
      <use x="1202.767578" xlink:href="#DejaVuSans-65"/>
      <use x="1264.291016" xlink:href="#DejaVuSans-74"/>
      <use x="1303.5" xlink:href="#DejaVuSans-20"/>
      <use x="1335.287109" xlink:href="#DejaVuSans-70"/>
      <use x="1398.763672" xlink:href="#DejaVuSans-61"/>
      <use x="1460.042969" xlink:href="#DejaVuSans-69"/>
      <use x="1487.826172" xlink:href="#DejaVuSans-72"/>
      <use x="1528.939453" xlink:href="#DejaVuSans-73"/>
     </g>
    </g>
   </g>
   <g id="line2d_29">
    <defs>
     <path d="M 0 1.5 
C 0.397805 1.5 0.77937 1.341951 1.06066 1.06066 
C 1.341951 0.77937 1.5 0.397805 1.5 0 
C 1.5 -0.397805 1.341951 -0.77937 1.06066 -1.06066 
C 0.77937 -1.341951 0.397805 -1.5 0 -1.5 
C -0.397805 -1.5 -0.77937 -1.341951 -1.06066 -1.06066 
C -1.341951 -0.77937 -1.5 -0.397805 -1.5 0 
C -1.5 0.397805 -1.341951 0.77937 -1.06066 1.06066 
C -0.77937 1.341951 -0.397805 1.5 0 1.5 
z
" id="m2a45300ab4" style="stroke:#000080;"/>
    </defs>
    <g>
     <use style="fill:#000080;stroke:#000080;" x="182.030146" xlink:href="#m2a45300ab4" y="6.381624"/>
     <use style="fill:#000080;stroke:#000080;" x="182.030146" xlink:href="#m2a45300ab4" y="6.381624"/>
    </g>
   </g>
   <g id="line2d_30">
    <path d="M 75.555822 298.944 
L 75.555822 298.370348 
L 86.351421 298.370348 
L 86.351421 297.796697 
L 89.972502 297.796697 
L 89.972502 297.223045 
L 98.43941 297.223045 
L 98.43941 296.649393 
L 98.771596 296.649393 
L 98.771596 296.075741 
L 99.41757 296.075741 
L 99.41757 294.354786 
L 102.330873 294.354786 
L 102.330873 293.781135 
L 105.057436 293.781135 
L 105.057436 293.207483 
L 105.285403 293.207483 
L 105.285403 291.486528 
L 105.51043 291.486528 
L 105.51043 290.912876 
L 106.593963 290.912876 
L 106.593963 290.339224 
L 110.016944 290.339224 
L 110.016944 289.765573 
L 110.188761 289.765573 
L 110.188761 289.191921 
L 110.527398 289.191921 
L 110.527398 288.618269 
L 111.819788 288.618269 
L 111.819788 288.044617 
L 114.148479 288.044617 
L 114.148479 286.897314 
L 114.552496 286.897314 
L 114.552496 285.75001 
L 114.947365 285.75001 
L 114.947365 285.176359 
L 118.576578 285.176359 
L 118.576578 284.029055 
L 119.80089 284.029055 
L 119.80089 283.455404 
L 120.093994 283.455404 
L 120.190611 282.3081 
L 120.47729 282.3081 
L 120.47729 281.734448 
L 120.852343 281.734448 
L 120.852343 281.160797 
L 122.018385 281.160797 
L 122.018385 280.587145 
L 122.191052 280.587145 
L 122.191052 280.013493 
L 124.519744 280.013493 
L 124.519744 279.439842 
L 125.038147 279.439842 
L 125.038147 278.292538 
L 125.892487 278.292538 
L 125.892487 277.145235 
L 126.640485 277.145235 
L 126.640485 276.571583 
L 126.904721 276.571583 
L 126.904721 275.997931 
L 127.357715 275.997931 
L 127.357715 274.850628 
L 128.107907 274.850628 
L 128.107907 274.276976 
L 129.233413 274.276976 
L 129.233413 273.703324 
L 130.073348 273.703324 
L 130.073348 273.129673 
L 130.290663 273.129673 
L 130.290663 272.556021 
L 130.505303 272.556021 
L 130.505303 271.982369 
L 131.287464 271.982369 
L 131.287464 271.408718 
L 131.740458 271.408718 
L 131.740458 270.835066 
L 132.847322 270.835066 
L 132.940331 269.687762 
L 133.57787 269.687762 
L 133.57787 269.114111 
L 134.279041 269.114111 
L 134.279041 268.540459 
L 135.117629 268.540459 
L 135.117629 267.966807 
L 135.280614 267.966807 
L 135.280614 267.393156 
L 135.562224 267.393156 
L 135.562224 266.819504 
L 135.995765 266.819504 
L 135.995765 266.245852 
L 136.189322 266.245852 
L 136.227776 263.951245 
L 137.053015 263.951245 
L 137.053015 263.377593 
L 138.049816 263.377593 
L 138.049816 262.803942 
L 138.426341 262.803942 
L 138.493936 261.656638 
L 138.794909 261.656638 
L 138.794909 260.509335 
L 138.959898 260.509335 
L 138.959898 259.935683 
L 139.090775 259.935683 
L 139.090775 259.362031 
L 139.667863 259.362031 
L 139.730821 258.214728 
L 140.378508 258.214728 
L 140.469102 256.493773 
L 141.119455 256.493773 
L 141.177393 255.346469 
L 141.263941 255.346469 
L 141.263941 254.772818 
L 141.830201 254.772818 
L 141.858037 253.051863 
L 143.014805 253.051863 
L 143.014805 252.478211 
L 143.170282 252.478211 
L 143.273169 250.757256 
L 143.803587 250.757256 
L 143.803587 250.183604 
L 144.414696 250.183604 
L 144.462672 248.462649 
L 144.55823 248.462649 
L 144.653267 247.315345 
L 145.005114 247.315345 
L 145.005114 246.741694 
L 145.143889 246.741694 
L 145.143889 246.168042 
L 145.598655 246.168042 
L 145.643486 245.020738 
L 146.129168 245.020738 
L 146.150926 243.873435 
L 146.665144 243.873435 
L 146.665144 243.299783 
L 146.978997 243.299783 
L 146.978997 242.726132 
L 147.185137 242.726132 
L 147.185137 241.578828 
L 147.70997 241.578828 
L 147.70997 241.005176 
L 148.676918 241.005176 
L 148.676918 239.284221 
L 148.864037 239.284221 
L 148.919783 238.136918 
L 149.141003 238.136918 
L 149.141003 237.563266 
L 149.305096 237.563266 
L 149.413639 235.842311 
L 149.575199 235.842311 
L 149.575199 235.268659 
L 150.016276 235.268659 
L 150.085825 232.400401 
L 150.51433 232.400401 
L 150.51433 231.826749 
L 150.73306 231.826749 
L 150.73306 231.253097 
L 150.866312 231.253097 
L 150.899466 230.105794 
L 151.276281 230.105794 
L 151.324836 228.95849 
L 151.676833 228.95849 
L 151.724287 227.811187 
L 152.068392 227.811187 
L 152.083873 226.663884 
L 152.283884 226.663884 
L 152.39064 225.51658 
L 152.766663 225.51658 
L 152.826082 223.795625 
L 152.914832 223.795625 
L 152.914832 223.221973 
L 153.192929 223.221973 
L 153.192929 222.648321 
L 153.395042 222.648321 
L 153.395042 222.07467 
L 153.580644 222.07467 
L 153.580644 221.501018 
L 153.918189 221.501018 
L 154.015422 218.632759 
L 154.056927 218.632759 
L 154.056927 218.059108 
L 154.249325 218.059108 
L 154.317527 216.338153 
L 155.245367 216.338153 
L 155.271165 214.617197 
L 155.577798 214.617197 
L 155.61575 213.469894 
L 155.879132 213.469894 
L 155.94126 211.748939 
L 156.187581 211.748939 
L 156.285144 209.454332 
L 156.502685 209.454332 
L 156.502685 208.307029 
L 156.800392 208.307029 
L 156.800392 206.586073 
L 156.918066 206.586073 
L 156.918066 204.865118 
L 157.1279 204.865118 
L 157.1279 204.291467 
L 157.380981 204.291467 
L 157.415209 201.423208 
L 157.686643 201.423208 
L 157.787352 199.702253 
L 158.228039 199.702253 
L 158.228039 199.128601 
L 158.67908 199.128601 
L 158.753132 197.981298 
L 158.795307 197.981298 
L 158.816356 196.833994 
L 159.004665 196.833994 
L 159.004665 196.260342 
L 159.262876 196.260342 
L 159.273126 195.113039 
L 159.51732 195.113039 
L 159.51732 194.539387 
L 159.867418 194.539387 
L 159.867418 193.965736 
L 160.259108 193.965736 
L 160.288133 192.818432 
L 160.518612 192.818432 
L 160.518612 192.24478 
L 160.783709 192.24478 
L 160.783709 191.671129 
L 160.979921 191.671129 
L 160.979921 190.523825 
L 161.091058 190.523825 
L 161.091058 189.950174 
L 161.256448 189.950174 
L 161.311231 188.229218 
L 161.429341 188.229218 
L 161.438393 187.081915 
L 161.681046 187.081915 
L 161.761186 184.787308 
L 161.876297 184.787308 
L 161.876297 184.213656 
L 162.104265 184.213656 
L 162.191157 183.066353 
L 162.312084 183.066353 
L 162.355069 179.624443 
L 162.737246 179.624443 
L 162.80432 177.903487 
L 162.946002 177.903487 
L 163.02881 176.182532 
L 163.16049 176.182532 
L 163.16049 175.035229 
L 163.372371 175.035229 
L 163.420904 173.887925 
L 163.565696 173.887925 
L 163.58171 172.16697 
L 163.7569 172.16697 
L 163.7569 171.019667 
L 163.953867 171.019667 
L 163.992995 169.298712 
L 164.148635 169.298712 
L 164.164122 167.004105 
L 164.569616 167.004105 
L 164.599841 165.28315 
L 164.742694 165.28315 
L 164.742694 164.709498 
L 164.91407 164.709498 
L 164.9363 163.562195 
L 165.09112 163.562195 
L 165.142423 162.414891 
L 165.280918 162.414891 
L 165.331666 160.120284 
L 165.454301 160.120284 
L 165.475853 157.825677 
L 165.824152 157.825677 
L 165.85228 156.678374 
L 166.006178 156.678374 
L 166.006178 156.104722 
L 166.227632 156.104722 
L 166.330478 153.810115 
L 166.344146 153.810115 
L 166.357802 152.662812 
L 166.561376 152.662812 
L 166.595075 150.941857 
L 166.722541 150.941857 
L 166.742582 149.220902 
L 166.842445 149.220902 
L 166.862349 147.499946 
L 167.001045 147.499946 
L 167.027338 146.352643 
L 167.164734 146.352643 
L 167.255733 145.20534 
L 167.301055 145.20534 
L 167.301055 144.631688 
L 167.417059 144.631688 
L 167.506754 140.616126 
L 167.691097 140.616126 
L 167.691097 139.468822 
L 167.804544 139.468822 
L 167.804544 138.895171 
L 167.991998 138.895171 
L 167.991998 138.321519 
L 168.189752 138.321519 
L 168.189752 137.747867 
L 168.324419 137.747867 
L 168.433833 136.026912 
L 168.620674 136.026912 
L 168.662588 134.879609 
L 168.734207 134.879609 
L 168.734207 133.732305 
L 168.870661 133.732305 
L 168.906082 132.01135 
L 169.017779 132.01135 
L 169.023638 130.864047 
L 169.175285 130.864047 
L 169.27373 129.143091 
L 169.308343 129.143091 
L 169.308343 128.56944 
L 169.486092 128.56944 
L 169.594146 126.274833 
L 169.616809 126.274833 
L 169.616809 125.701181 
L 169.746554 125.701181 
L 169.808266 124.553878 
L 169.87534 124.553878 
L 169.947714 122.259271 
L 170.019789 122.259271 
L 170.052954 120.538316 
L 170.305145 120.538316 
L 170.305145 119.964664 
L 170.446091 119.964664 
L 170.446091 119.391012 
L 170.559106 119.391012 
L 170.559106 118.817361 
L 170.713981 118.817361 
L 170.713981 118.243709 
L 170.830561 118.243709 
L 170.878029 116.522754 
L 171.092653 116.522754 
L 171.139414 113.654495 
L 171.2274 113.654495 
L 171.232562 112.507192 
L 171.345738 112.507192 
L 171.345738 111.359888 
L 171.473461 111.359888 
L 171.473461 109.065281 
L 171.67086 109.065281 
L 171.781236 107.917978 
L 171.86605 107.917978 
L 171.86605 107.344326 
L 171.980146 107.344326 
L 171.999913 106.197023 
L 172.142557 106.197023 
L 172.142557 105.623371 
L 172.279183 105.623371 
L 172.293758 104.476068 
L 172.462909 104.476068 
L 172.462909 103.902416 
L 172.592284 103.902416 
L 172.644719 101.607809 
L 172.715968 101.607809 
L 172.720707 99.313202 
L 172.862299 99.313202 
L 172.862299 97.592247 
L 172.97942 97.592247 
L 173.021392 96.444944 
L 173.169812 96.444944 
L 173.179047 94.723988 
L 173.284893 94.723988 
L 173.358148 92.429381 
L 173.408333 92.429381 
L 173.408333 91.85573 
L 173.625648 91.85573 
L 173.643636 90.134775 
L 173.737769 90.134775 
L 173.818053 88.413819 
L 173.853616 88.413819 
L 173.959872 86.119213 
L 173.995148 86.119213 
L 174.083025 84.398257 
L 174.13554 84.398257 
L 174.18354 81.529999 
L 174.296472 81.529999 
L 174.395768 78.088089 
L 174.425876 78.088089 
L 174.528713 76.367133 
L 174.613949 76.367133 
L 174.681839 72.351571 
L 174.736806 72.351571 
L 174.736806 71.77792 
L 174.875564 71.77792 
L 174.954957 70.630616 
L 175.03399 70.630616 
L 175.058874 68.336009 
L 175.162175 68.336009 
L 175.174531 66.615054 
L 175.277151 66.615054 
L 175.342513 63.746796 
L 175.399504 63.746796 
L 175.480598 62.02584 
L 175.565343 62.02584 
L 175.641664 60.304885 
L 175.74158 60.304885 
L 175.74158 59.157582 
L 175.85281 59.157582 
L 175.927886 57.436627 
L 176.041856 57.436627 
L 176.151193 53.421065 
L 176.236623 53.421065 
L 176.329344 51.126458 
L 176.352448 51.126458 
L 176.352448 49.979154 
L 176.463685 49.979154 
L 176.520945 48.831851 
L 176.619751 48.831851 
L 176.714232 43.095334 
L 176.770676 43.095334 
L 176.804455 41.94803 
L 176.909128 41.94803 
L 176.994643 38.50612 
L 177.08343 38.50612 
L 177.101871 37.358817 
L 177.204779 37.358817 
L 177.204779 36.785165 
L 177.365276 36.785165 
L 177.466646 34.490558 
L 177.484686 34.490558 
L 177.588952 31.622299 
L 177.631914 31.622299 
L 177.728195 30.474996 
L 177.76372 30.474996 
L 177.820411 27.606737 
L 177.89806 27.606737 
L 178.003391 24.738479 
L 178.267417 24.738479 
L 178.329368 23.017524 
L 178.418467 23.017524 
L 178.418467 22.443872 
L 178.585156 22.443872 
L 178.629113 20.722917 
L 178.756973 20.722917 
L 178.756973 20.149265 
L 178.880573 20.149265 
L 178.880573 19.575613 
L 179.003304 19.575613 
L 179.003304 19.001962 
L 179.174343 19.001962 
L 179.174343 18.42831 
L 179.366397 18.42831 
L 179.366397 17.281006 
L 179.642605 17.281006 
L 179.747441 14.9864 
L 179.857946 14.9864 
L 179.917643 13.839096 
L 180.04577 13.839096 
L 180.123437 12.691793 
L 180.203845 12.691793 
L 180.2131 11.544489 
L 180.52788 11.544489 
L 180.636574 10.397186 
L 180.958649 10.397186 
L 180.958649 9.823534 
L 181.137967 9.823534 
L 181.137967 8.676231 
L 181.355943 8.676231 
L 181.355943 8.102579 
L 181.613968 8.102579 
L 181.613968 7.528927 
L 181.921437 7.528927 
L 182.030146 6.381624 
L 338.688 6.381624 
L 338.688 6.381624 
" style="fill:none;stroke:#000080;stroke-linecap:square;stroke-width:1.5;"/>
   </g>
   <g id="line2d_31">
    <defs>
     <path d="M 0 6 
C 1.591219 6 3.117479 5.367802 4.242641 4.242641 
C 5.367802 3.117479 6 1.591219 6 0 
C 6 -1.591219 5.367802 -3.117479 4.242641 -4.242641 
C 3.117479 -5.367802 1.591219 -6 0 -6 
C -1.591219 -6 -3.117479 -5.367802 -4.242641 -4.242641 
C -5.367802 -3.117479 -6 -1.591219 -6 0 
C -6 1.591219 -5.367802 3.117479 -4.242641 4.242641 
C -3.117479 5.367802 -1.591219 6 0 6 
z
" id="mdf49f4e3e0" style="stroke:#000080;stroke-width:1.5;"/>
    </defs>
    <g>
     <use style="fill-opacity:0;stroke:#000080;stroke-width:1.5;" x="141.119455" xlink:href="#mdf49f4e3e0" y="255.920121"/>
     <use style="fill-opacity:0;stroke:#000080;stroke-width:1.5;" x="172.862299" xlink:href="#mdf49f4e3e0" y="99.313202"/>
     <use style="fill-opacity:0;stroke:#000080;stroke-width:1.5;" x="182.030146" xlink:href="#mdf49f4e3e0" y="6.955275"/>
     <use style="fill-opacity:0;stroke:#000080;stroke-width:1.5;" x="182.030146" xlink:href="#mdf49f4e3e0" y="6.381624"/>
     <use style="fill-opacity:0;stroke:#000080;stroke-width:1.5;" x="338.688" xlink:href="#mdf49f4e3e0" y="6.381624"/>
    </g>
   </g>
   <g id="line2d_32">
    <path style="fill:none;stroke:#000080;stroke-linecap:square;stroke-width:1.5;"/>
    <g/>
   </g>
   <g id="line2d_33">
    <defs>
     <path d="M 0 1.5 
C 0.397805 1.5 0.77937 1.341951 1.06066 1.06066 
C 1.341951 0.77937 1.5 0.397805 1.5 0 
C 1.5 -0.397805 1.341951 -0.77937 1.06066 -1.06066 
C 0.77937 -1.341951 0.397805 -1.5 0 -1.5 
C -0.397805 -1.5 -0.77937 -1.341951 -1.06066 -1.06066 
C -1.341951 -0.77937 -1.5 -0.397805 -1.5 0 
C -1.5 0.397805 -1.341951 0.77937 -1.06066 1.06066 
C -0.77937 1.341951 -0.397805 1.5 0 1.5 
z
" id="m88ec75221d" style="stroke:#ff00ff;"/>
    </defs>
    <g>
     <use style="fill:#ff00ff;stroke:#ff00ff;" x="170.856948" xlink:href="#m88ec75221d" y="6.381624"/>
     <use style="fill:#ff00ff;stroke:#ff00ff;" x="170.856948" xlink:href="#m88ec75221d" y="6.381624"/>
    </g>
   </g>
   <g id="line2d_34">
    <path d="M 48.691568 298.944 
L 48.691568 297.223045 
L 53.708537 297.223045 
L 53.708537 296.649393 
L 63.467834 296.649393 
L 63.467834 296.075741 
L 67.850577 296.075741 
L 67.850577 294.354786 
L 71.35013 294.354786 
L 71.35013 293.781135 
L 76.759008 293.781135 
L 76.759008 293.207483 
L 78.941764 293.207483 
L 78.941764 292.060179 
L 79.938565 292.060179 
L 79.938565 291.486528 
L 81.775977 291.486528 
L 81.775977 289.191921 
L 86.351421 289.191921 
L 86.351421 288.618269 
L 87.009585 288.618269 
L 87.009585 288.044617 
L 89.418828 288.044617 
L 89.418828 287.470966 
L 93.863965 287.470966 
L 93.863965 286.323662 
L 94.294587 286.323662 
L 94.294587 285.75001 
L 98.100772 285.75001 
L 98.100772 285.176359 
L 101.506816 285.176359 
L 101.506816 284.029055 
L 103.372333 284.029055 
L 103.372333 282.3081 
L 105.285403 282.3081 
L 105.285403 281.734448 
L 105.51043 281.734448 
L 105.51043 281.160797 
L 106.382575 281.160797 
L 106.382575 280.587145 
L 109.491096 280.587145 
L 109.491096 280.013493 
L 110.188761 280.013493 
L 110.188761 279.439842 
L 110.694282 279.439842 
L 110.694282 278.86619 
L 111.023335 278.86619 
L 111.023335 278.292538 
L 112.58145 278.292538 
L 112.58145 277.718886 
L 113.873839 277.718886 
L 113.873839 276.571583 
L 114.816733 276.571583 
L 114.816733 275.997931 
L 115.205729 275.997931 
L 115.205729 275.42428 
L 115.33349 275.42428 
L 115.33349 274.850628 
L 117.145424 274.850628 
L 117.145424 273.129673 
L 117.598418 273.129673 
L 117.598418 271.408718 
L 117.709852 271.408718 
L 117.709852 269.687762 
L 118.681952 269.687762 
L 118.681952 269.114111 
L 119.702083 269.114111 
L 119.80089 267.393156 
L 120.093994 267.393156 
L 120.190611 266.245852 
L 122.191052 266.245852 
L 122.191052 265.098549 
L 124.216444 265.098549 
L 124.216444 264.524897 
L 124.519744 264.524897 
L 124.519744 263.951245 
L 124.669438 263.951245 
L 124.669438 263.377593 
L 126.168212 263.377593 
L 126.168212 262.803942 
L 126.372183 262.803942 
L 126.372183 261.082987 
L 126.50685 261.082987 
L 126.50685 260.509335 
L 127.54831 260.509335 
L 127.611382 258.214728 
L 127.674226 258.214728 
L 127.674226 257.067425 
L 128.350967 257.067425 
L 128.350967 256.493773 
L 129.574256 256.493773 
L 129.574256 255.920121 
L 129.742212 255.920121 
L 129.742212 255.346469 
L 130.505303 255.346469 
L 130.505303 252.478211 
L 131.338382 252.478211 
L 131.338382 251.904559 
L 132.940331 251.904559 
L 132.940331 249.609952 
L 133.078923 249.609952 
L 133.078923 249.036301 
L 133.533096 249.036301 
L 133.533096 248.462649 
L 133.711505 248.462649 
L 133.711505 247.315345 
L 134.106373 247.315345 
L 134.106373 246.741694 
L 135.117629 246.741694 
L 135.117629 245.59439 
L 135.562224 245.59439 
L 135.562224 244.447087 
L 136.150782 244.447087 
L 136.150782 243.873435 
L 136.607732 243.873435 
L 136.607732 243.299783 
L 137.126135 243.299783 
L 137.126135 242.726132 
L 137.343676 242.726132 
L 137.451437 241.578828 
L 137.980475 241.578828 
L 137.980475 241.005176 
L 138.861092 241.005176 
L 138.861092 239.857873 
L 139.793552 239.857873 
L 139.856059 238.136918 
L 140.378508 238.136918 
L 140.469102 236.415963 
L 141.549369 236.415963 
L 141.549369 234.695008 
L 141.858037 234.695008 
L 141.858037 232.974052 
L 143.553018 232.974052 
L 143.628567 231.826749 
L 144.001481 231.826749 
L 144.001481 230.105794 
L 144.197155 230.105794 
L 144.197155 229.532142 
L 144.53439 229.532142 
L 144.53439 228.95849 
L 144.888619 228.95849 
L 144.888619 228.384839 
L 145.576196 228.384839 
L 145.576196 227.811187 
L 145.954117 227.811187 
L 145.998045 225.51658 
L 146.686244 225.51658 
L 146.77039 223.795625 
L 147.02042 223.795625 
L 147.061745 222.648321 
L 147.205618 222.648321 
L 147.307662 221.501018 
L 147.690073 221.501018 
L 147.690073 220.927366 
L 147.86833 220.927366 
L 147.86833 220.353715 
L 148.064279 220.353715 
L 148.064279 219.780063 
L 148.411533 219.780063 
L 148.411533 219.206411 
L 149.122675 219.206411 
L 149.122675 218.632759 
L 150.309961 218.632759 
L 150.309961 218.059108 
L 150.446473 218.059108 
L 150.446473 216.338153 
L 151.517715 216.338153 
L 151.517715 215.764501 
L 151.676833 215.764501 
L 151.755852 214.617197 
L 151.850203 214.617197 
L 151.850203 212.896242 
L 152.00633 212.896242 
L 152.00633 212.322591 
L 152.176471 212.322591 
L 152.176471 210.601635 
L 152.55709 210.601635 
L 152.55709 210.027984 
L 152.826082 210.027984 
L 152.826082 209.454332 
L 153.207444 209.454332 
L 153.221946 208.307029 
L 153.323128 208.307029 
L 153.351929 206.012422 
L 153.552218 206.012422 
L 153.552218 204.291467 
L 153.904255 204.291467 
L 153.904255 202.570511 
L 154.249325 202.570511 
L 154.249325 200.849556 
L 154.587699 200.849556 
L 154.587699 191.671129 
L 154.827327 191.671129 
L 154.827327 191.097477 
L 155.335493 191.097477 
L 155.335493 180.198094 
L 155.653621 180.198094 
L 155.703987 179.050791 
L 156.823991 179.050791 
L 156.823991 178.477139 
L 156.953214 178.477139 
L 156.953214 177.329836 
L 157.9318 177.329836 
L 157.9318 176.756184 
L 158.368898 176.756184 
L 158.368898 175.608881 
L 158.508628 175.608881 
L 158.51933 174.461577 
L 158.742573 174.461577 
L 158.742573 173.314274 
L 159.046236 173.314274 
L 159.046236 172.740622 
L 159.16005 172.740622 
L 159.221818 169.298712 
L 159.537516 169.298712 
L 159.537516 167.004105 
L 159.817832 167.004105 
L 159.847601 165.856801 
L 160.064363 165.856801 
L 160.064363 165.28315 
L 160.394148 165.28315 
L 160.394148 154.957419 
L 160.793103 154.957419 
L 160.793103 153.810115 
L 160.979921 153.810115 
L 161.017045 144.058036 
L 161.100288 144.058036 
L 161.100288 143.484384 
L 161.438393 143.484384 
L 161.438393 136.600564 
L 161.654251 136.600564 
L 161.654251 135.45326 
L 161.920369 135.45326 
L 161.920369 133.158653 
L 162.112973 133.158653 
L 162.130378 124.553878 
L 162.355069 124.553878 
L 162.355069 103.328764 
L 162.52596 103.328764 
L 162.52596 102.181461 
L 162.821048 102.181461 
L 162.90445 91.282078 
L 163.185069 91.282078 
L 163.185069 90.134775 
L 163.380469 90.134775 
L 163.404741 78.66174 
L 163.533623 78.66174 
L 163.629664 76.940785 
L 163.764822 76.940785 
L 163.796472 75.21983 
L 163.953867 75.21983 
L 163.953867 74.646178 
L 164.164122 74.646178 
L 164.264459 72.925223 
L 164.341251 72.925223 
L 164.371873 69.483313 
L 164.584735 69.483313 
L 164.599841 67.762358 
L 164.727712 67.762358 
L 164.77262 66.615054 
L 164.921483 66.615054 
L 164.921483 65.467751 
L 165.098459 65.467751 
L 165.098459 64.894099 
L 165.475853 64.894099 
L 165.576079 35.637861 
L 165.640207 35.637861 
L 165.746566 26.459434 
L 166.158729 26.459434 
L 166.234507 23.017524 
L 166.514087 23.017524 
L 166.514087 22.443872 
L 166.689087 22.443872 
L 166.689087 20.722917 
L 167.171249 20.722917 
L 167.171249 20.149265 
L 167.365597 20.149265 
L 167.365597 19.575613 
L 167.493969 19.575613 
L 167.493969 19.001962 
L 167.923499 19.001962 
L 167.923499 12.118141 
L 168.115857 12.118141 
L 168.115857 11.544489 
L 168.293904 11.544489 
L 168.293904 10.970838 
L 169.463258 10.970838 
L 169.486092 8.676231 
L 170.058475 8.676231 
L 170.069512 7.528927 
L 170.856948 7.528927 
L 170.856948 6.381624 
L 338.688 6.381624 
L 338.688 6.381624 
" style="fill:none;stroke:#ff00ff;stroke-linecap:square;stroke-width:1.5;"/>
   </g>
   <g id="line2d_35">
    <defs>
     <path d="M 0 8.485281 
L 5.091169 0 
L 0 -8.485281 
L -5.091169 0 
z
" id="m98e06632db" style="stroke:#ff00ff;stroke-linejoin:miter;stroke-width:1.5;"/>
    </defs>
    <g>
     <use style="fill-opacity:0;stroke:#ff00ff;stroke-linejoin:miter;stroke-width:1.5;" x="137.980475" xlink:href="#m98e06632db" y="241.578828"/>
     <use style="fill-opacity:0;stroke:#ff00ff;stroke-linejoin:miter;stroke-width:1.5;" x="163.396654" xlink:href="#m98e06632db" y="88.413819"/>
     <use style="fill-opacity:0;stroke:#ff00ff;stroke-linejoin:miter;stroke-width:1.5;" x="170.856948" xlink:href="#m98e06632db" y="7.528927"/>
     <use style="fill-opacity:0;stroke:#ff00ff;stroke-linejoin:miter;stroke-width:1.5;" x="170.856948" xlink:href="#m98e06632db" y="6.381624"/>
     <use style="fill-opacity:0;stroke:#ff00ff;stroke-linejoin:miter;stroke-width:1.5;" x="170.856948" xlink:href="#m98e06632db" y="6.381624"/>
     <use style="fill-opacity:0;stroke:#ff00ff;stroke-linejoin:miter;stroke-width:1.5;" x="338.688" xlink:href="#m98e06632db" y="6.381624"/>
    </g>
   </g>
   <g id="line2d_36">
    <path style="fill:none;stroke:#ff00ff;stroke-linecap:square;stroke-width:1.5;"/>
    <g/>
   </g>
   <g id="line2d_37">
    <defs>
     <path d="M 0 1.5 
C 0.397805 1.5 0.77937 1.341951 1.06066 1.06066 
C 1.341951 0.77937 1.5 0.397805 1.5 0 
C 1.5 -0.397805 1.341951 -0.77937 1.06066 -1.06066 
C 0.77937 -1.341951 0.397805 -1.5 0 -1.5 
C -0.397805 -1.5 -0.77937 -1.341951 -1.06066 -1.06066 
C -1.341951 -0.77937 -1.5 -0.397805 -1.5 0 
C -1.5 0.397805 -1.341951 0.77937 -1.06066 1.06066 
C -0.77937 1.341951 -0.397805 1.5 0 1.5 
z
" id="mf2f07c9224" style="stroke:#ff7500;"/>
    </defs>
    <g>
     <use style="fill:#ff7500;stroke:#ff7500;" x="184.139683" xlink:href="#mf2f07c9224" y="6.381624"/>
     <use style="fill:#ff7500;stroke:#ff7500;" x="184.139683" xlink:href="#mf2f07c9224" y="6.381624"/>
    </g>
   </g>
   <g id="line2d_38">
    <path d="M 111.663381 298.944 
L 111.663381 298.370348 
L 117.709852 298.370348 
L 117.709852 297.796697 
L 118.994305 297.796697 
L 118.994305 297.223045 
L 120.093994 297.223045 
L 120.093994 296.649393 
L 121.128432 296.649393 
L 121.128432 296.075741 
L 122.362027 296.075741 
L 122.362027 295.50209 
L 122.865118 295.50209 
L 122.865118 294.354786 
L 124.965026 294.354786 
L 124.965026 293.207483 
L 125.892487 293.207483 
L 125.892487 292.060179 
L 126.099688 292.060179 
L 126.099688 291.486528 
L 127.674226 291.486528 
L 127.674226 290.912876 
L 129.118302 290.912876 
L 129.118302 290.339224 
L 129.908566 290.339224 
L 129.908566 289.765573 
L 130.182344 289.765573 
L 130.182344 288.618269 
L 130.45189 288.618269 
L 130.558552 285.75001 
L 130.664567 285.75001 
L 130.76994 284.602707 
L 131.987128 284.602707 
L 131.987128 284.029055 
L 132.326708 284.029055 
L 132.326708 282.881752 
L 132.612604 282.881752 
L 132.612604 282.3081 
L 132.940331 282.3081 
L 132.940331 280.013493 
L 133.124876 280.013493 
L 133.124876 279.439842 
L 133.667073 279.439842 
L 133.667073 278.86619 
L 134.062938 278.86619 
L 134.149701 276.571583 
L 135.158519 276.571583 
L 135.199312 275.42428 
L 135.361539 275.42428 
L 135.361539 274.850628 
L 135.562224 274.850628 
L 135.641855 272.556021 
L 135.721125 272.556021 
L 135.721125 271.982369 
L 136.189322 271.982369 
L 136.189322 271.408718 
L 137.162581 271.408718 
L 137.162581 270.261414 
L 137.664982 270.261414 
L 137.664982 269.687762 
L 138.049816 269.687762 
L 138.049816 267.966807 
L 138.794909 267.966807 
L 138.861092 266.819504 
L 139.02546 266.819504 
L 139.02546 266.245852 
L 139.69937 266.245852 
L 139.69937 265.6722 
L 140.165274 265.6722 
L 140.165274 265.098549 
L 140.408758 265.098549 
L 140.408758 264.524897 
L 141.177393 264.524897 
L 141.263941 262.803942 
L 141.350061 262.803942 
L 141.350061 262.23029 
L 141.885829 262.23029 
L 141.885829 261.656638 
L 142.243147 261.656638 
L 142.243147 261.082987 
L 142.432559 261.082987 
L 142.432559 260.509335 
L 143.170282 260.509335 
L 143.170282 259.935683 
L 143.298796 259.935683 
L 143.40093 258.78838 
L 143.553018 258.78838 
L 143.553018 258.214728 
L 143.803587 258.214728 
L 143.803587 257.641076 
L 144.582038 257.641076 
L 144.582038 257.067425 
L 146.812312 257.067425 
L 146.812312 256.493773 
L 147.266916 256.493773 
L 147.287301 255.346469 
L 148.200145 255.346469 
L 148.200145 254.772818 
L 148.48777 254.772818 
L 148.48777 253.625514 
L 148.733265 253.625514 
L 148.733265 253.051863 
L 149.122675 253.051863 
L 149.122675 252.478211 
L 149.575199 252.478211 
L 149.628721 251.330907 
L 150.016276 251.330907 
L 150.120495 250.183604 
L 151.437608 250.183604 
L 151.437608 249.609952 
L 151.676833 249.609952 
L 151.724287 248.462649 
L 152.826082 248.462649 
L 152.826082 247.888997 
L 153.017805 247.888997 
L 153.017805 247.315345 
L 153.59484 247.315345 
L 153.59484 246.741694 
L 153.806399 246.741694 
L 153.904255 245.59439 
L 155.603109 245.59439 
L 155.603109 245.020738 
L 156.187581 245.020738 
L 156.187581 244.447087 
L 156.514691 244.447087 
L 156.514691 243.873435 
L 157.86528 243.873435 
L 157.86528 243.299783 
L 158.487203 243.299783 
L 158.487203 242.726132 
L 158.67908 242.726132 
L 158.763686 241.578828 
L 159.066985 241.578828 
L 159.066985 241.005176 
L 159.334496 241.005176 
L 159.334496 240.431525 
L 160.034962 240.431525 
L 160.034962 239.857873 
L 160.297798 239.857873 
L 160.297798 239.284221 
L 160.451703 239.284221 
L 160.451703 238.71057 
L 160.642194 238.71057 
L 160.746084 237.563266 
L 160.970627 237.563266 
L 160.970627 236.989614 
L 162.585379 236.989614 
L 162.585379 236.415963 
L 162.737246 236.415963 
L 162.737246 235.842311 
L 163.283043 235.842311 
L 163.283043 235.268659 
L 163.764822 235.268659 
L 163.764822 234.695008 
L 163.992995 234.695008 
L 163.992995 234.121356 
L 164.486229 234.121356 
L 164.486229 233.547704 
L 164.79503 233.547704 
L 164.79503 232.974052 
L 165.280918 232.974052 
L 165.280918 232.400401 
L 165.640207 232.400401 
L 165.640207 231.826749 
L 166.330478 231.826749 
L 166.330478 231.253097 
L 166.459886 231.253097 
L 166.527611 230.105794 
L 167.047033 230.105794 
L 167.11252 228.95849 
L 168.214315 228.95849 
L 168.281683 227.811187 
L 169.023638 227.811187 
L 169.041203 226.663884 
L 169.548731 226.663884 
L 169.594146 225.51658 
L 169.931039 225.51658 
L 170.02532 224.369277 
L 170.288808 224.369277 
L 170.299701 223.221973 
L 170.489231 223.221973 
L 170.596616 220.927366 
L 170.825279 220.927366 
L 170.825279 220.353715 
L 170.967341 220.353715 
L 170.993522 219.206411 
L 171.103055 219.206411 
L 171.103055 218.632759 
L 171.314944 218.632759 
L 171.391826 217.485456 
L 171.549649 217.485456 
L 171.549649 216.911804 
L 171.716099 216.911804 
L 171.716099 216.338153 
L 171.861073 216.338153 
L 171.861073 215.764501 
L 171.990033 215.764501 
L 172.064001 214.617197 
L 172.118046 214.617197 
L 172.176814 212.896242 
L 172.32772 212.896242 
L 172.32772 212.322591 
L 172.438845 212.322591 
L 172.520528 210.027984 
L 172.58751 210.027984 
L 172.592284 208.88068 
L 172.819942 208.88068 
L 172.819942 208.307029 
L 172.951383 208.307029 
L 172.951383 207.733377 
L 173.086481 207.733377 
L 173.091121 206.586073 
L 173.215936 206.586073 
L 173.326137 204.865118 
L 173.399219 204.865118 
L 173.417442 203.717815 
L 173.512801 203.717815 
L 173.562544 199.702253 
L 173.666095 199.702253 
L 173.666095 197.981298 
L 173.782417 197.981298 
L 173.782417 197.407646 
L 173.959872 197.407646 
L 174.047927 195.686691 
L 174.161738 195.686691 
L 174.161738 195.113039 
L 174.292142 195.113039 
L 174.344032 193.392084 
L 174.447351 193.392084 
L 174.451642 192.24478 
L 174.558593 192.24478 
L 174.66913 189.376522 
L 174.736806 189.376522 
L 174.825234 187.655567 
L 174.888124 187.655567 
L 174.888124 187.081915 
L 175.013227 187.081915 
L 175.079583 185.934612 
L 175.141564 185.934612 
L 175.195103 184.213656 
L 175.354741 184.213656 
L 175.456309 181.91905 
L 175.605554 181.91905 
L 175.685698 178.477139 
L 175.74158 178.477139 
L 175.825069 175.035229 
L 175.916053 175.035229 
L 175.94365 173.887925 
L 176.057518 173.887925 
L 176.166757 171.593319 
L 176.240496 171.593319 
L 176.329344 168.151408 
L 176.425408 168.151408 
L 176.532374 161.267588 
L 176.62354 161.267588 
L 176.661386 160.120284 
L 176.759402 160.120284 
L 176.845652 157.825677 
L 176.875552 157.825677 
L 176.931477 154.957419 
L 177.020586 154.957419 
L 177.131335 153.236464 
L 177.138693 153.236464 
L 177.208443 151.515508 
L 177.266964 151.515508 
L 177.285212 149.220902 
L 177.379793 149.220902 
L 177.48108 144.631688 
L 177.491897 144.631688 
L 177.517111 143.484384 
L 177.624761 143.484384 
L 177.681904 140.616126 
L 177.760171 140.616126 
L 177.806255 138.895171 
L 177.919177 138.895171 
L 178.027877 135.45326 
L 178.076746 135.45326 
L 178.174075 132.585002 
L 178.263969 132.585002 
L 178.367119 127.422136 
L 178.387677 127.422136 
L 178.469664 122.259271 
L 178.50031 122.259271 
L 178.605458 113.654495 
L 178.622358 113.654495 
L 178.720057 109.638933 
L 178.760325 109.638933 
L 178.863922 103.328764 
L 178.933752 103.328764 
L 179.033027 98.165899 
L 179.092322 98.165899 
L 179.177616 92.429381 
L 179.207044 92.429381 
L 179.308028 86.692864 
L 179.359921 86.692864 
L 179.443919 84.398257 
L 179.49541 84.398257 
L 179.575561 82.103651 
L 179.613903 82.103651 
L 179.715739 78.66174 
L 179.772761 78.66174 
L 179.854799 77.514437 
L 179.908231 77.514437 
L 179.970883 76.367133 
L 180.051996 76.367133 
L 180.151313 71.204268 
L 180.191499 71.204268 
L 180.293096 66.041402 
L 180.314571 66.041402 
L 180.394105 64.320447 
L 180.433736 64.320447 
L 180.509698 62.02584 
L 180.579292 62.02584 
L 180.65763 58.010278 
L 180.699667 58.010278 
L 180.804318 54.568368 
L 180.828151 54.568368 
L 180.899453 49.979154 
L 180.955694 49.979154 
L 181.047069 47.110896 
L 181.094043 47.110896 
L 181.20219 43.095334 
L 181.30098 43.095334 
L 181.399213 37.932468 
L 181.468223 37.932468 
L 181.542676 35.06421 
L 181.642403 35.06421 
L 181.750036 29.901344 
L 181.783887 29.901344 
L 181.834542 26.459434 
L 181.899054 26.459434 
L 181.921437 25.31213 
L 182.030146 25.31213 
L 182.110543 20.722917 
L 182.174044 20.722917 
L 182.174044 20.149265 
L 182.376797 20.149265 
L 182.480004 17.854658 
L 182.552966 17.854658 
L 182.639047 14.9864 
L 182.711348 14.9864 
L 182.793992 11.544489 
L 182.878894 11.544489 
L 182.963384 9.823534 
L 183.204038 9.823534 
L 183.204038 9.249882 
L 183.348913 9.249882 
L 183.41577 8.102579 
L 183.469583 8.102579 
L 183.469583 7.528927 
L 184.01118 7.528927 
L 184.01118 6.955275 
L 184.139683 6.955275 
L 184.139683 6.381624 
L 338.688 6.381624 
L 338.688 6.381624 
" style="fill:none;stroke:#ff7500;stroke-linecap:square;stroke-width:1.5;"/>
   </g>
   <g id="line2d_39">
    <defs>
     <path d="M 0 -6 
L -1.347084 -1.854102 
L -5.706339 -1.854102 
L -2.179628 0.708204 
L -3.526712 4.854102 
L -0 2.291796 
L 3.526712 4.854102 
L 2.179628 0.708204 
L 5.706339 -1.854102 
L 1.347084 -1.854102 
z
" id="m88cd0366ef" style="stroke:#ff7500;stroke-linejoin:bevel;stroke-width:1.5;"/>
    </defs>
    <g>
     <use style="fill-opacity:0;stroke:#ff7500;stroke-linejoin:bevel;stroke-width:1.5;" x="172.438845" xlink:href="#m88cd0366ef" y="211.748939"/>
     <use style="fill-opacity:0;stroke:#ff7500;stroke-linejoin:bevel;stroke-width:1.5;" x="184.139683" xlink:href="#m88cd0366ef" y="6.955275"/>
     <use style="fill-opacity:0;stroke:#ff7500;stroke-linejoin:bevel;stroke-width:1.5;" x="184.139683" xlink:href="#m88cd0366ef" y="6.381624"/>
     <use style="fill-opacity:0;stroke:#ff7500;stroke-linejoin:bevel;stroke-width:1.5;" x="184.139683" xlink:href="#m88cd0366ef" y="6.381624"/>
     <use style="fill-opacity:0;stroke:#ff7500;stroke-linejoin:bevel;stroke-width:1.5;" x="338.688" xlink:href="#m88cd0366ef" y="6.381624"/>
    </g>
   </g>
   <g id="line2d_40">
    <path style="fill:none;stroke:#ff7500;stroke-linecap:square;stroke-width:1.5;"/>
    <g/>
   </g>
   <g id="line2d_41">
    <defs>
     <path d="M 0 1.5 
C 0.397805 1.5 0.77937 1.341951 1.06066 1.06066 
C 1.341951 0.77937 1.5 0.397805 1.5 0 
C 1.5 -0.397805 1.341951 -0.77937 1.06066 -1.06066 
C 0.77937 -1.341951 0.397805 -1.5 0 -1.5 
C -0.397805 -1.5 -0.77937 -1.341951 -1.06066 -1.06066 
C -1.341951 -0.77937 -1.5 -0.397805 -1.5 0 
C -1.5 0.397805 -1.341951 0.77937 -1.06066 1.06066 
C -0.77937 1.341951 -0.397805 1.5 0 1.5 
z
" id="m37486083dd" style="stroke:#6495ed;"/>
    </defs>
    <g>
     <use style="fill:#6495ed;stroke:#6495ed;" x="184.134758" xlink:href="#m37486083dd" y="6.381624"/>
     <use style="fill:#6495ed;stroke:#6495ed;" x="184.134758" xlink:href="#m37486083dd" y="6.381624"/>
    </g>
   </g>
   <g id="line2d_42">
    <path d="M 93.422441 298.944 
L 93.422441 298.370348 
L 119.80089 298.370348 
L 119.80089 297.796697 
L 122.44689 297.796697 
L 122.44689 297.223045 
L 122.782271 297.223045 
L 122.865118 294.354786 
L 124.062793 294.354786 
L 124.062793 293.781135 
L 125.892487 293.781135 
L 125.961828 292.633831 
L 126.50685 292.633831 
L 126.50685 292.060179 
L 127.54831 292.060179 
L 127.54831 291.486528 
L 127.799239 291.486528 
L 127.861412 289.765573 
L 128.046609 289.765573 
L 128.046609 288.044617 
L 129.233413 288.044617 
L 129.233413 287.470966 
L 129.404667 287.470966 
L 129.46138 286.323662 
L 130.127931 286.323662 
L 130.127931 285.75001 
L 130.45189 285.75001 
L 130.505303 284.029055 
L 130.978796 284.029055 
L 130.978796 283.455404 
L 131.839545 283.455404 
L 131.839545 281.734448 
L 133.262014 281.734448 
L 133.352844 280.013493 
L 134.062938 280.013493 
L 134.062938 279.439842 
L 134.192921 279.439842 
L 134.279041 278.292538 
L 134.703375 278.292538 
L 134.745246 275.997931 
L 135.240011 275.997931 
L 135.240011 274.850628 
L 135.562224 274.850628 
L 135.562224 274.276976 
L 136.150782 274.276976 
L 136.150782 273.703324 
L 136.456742 273.703324 
L 136.456742 273.129673 
L 136.645276 273.129673 
L 136.645276 272.556021 
L 137.053015 272.556021 
L 137.053015 270.835066 
L 137.945701 270.835066 
L 137.945701 270.261414 
L 138.187677 270.261414 
L 138.187677 269.687762 
L 138.828032 269.687762 
L 138.861092 267.966807 
L 139.604677 267.966807 
L 139.604677 266.819504 
L 140.011351 266.819504 
L 140.011351 266.245852 
L 140.438956 266.245852 
L 140.438956 265.6722 
L 141.321401 265.6722 
L 141.321401 265.098549 
L 141.830201 265.098549 
L 141.830201 264.524897 
L 142.646541 264.524897 
L 142.699628 263.377593 
L 143.066785 263.377593 
L 143.066785 262.803942 
L 143.247504 262.803942 
L 143.247504 262.23029 
L 143.87806 262.23029 
L 143.87806 261.656638 
L 144.414696 261.656638 
L 144.438701 260.509335 
L 145.074639 260.509335 
L 145.074639 259.935683 
L 145.910079 259.935683 
L 145.910079 259.362031 
L 146.150926 259.362031 
L 146.237689 257.641076 
L 146.431341 257.641076 
L 146.431341 257.067425 
L 146.812312 257.067425 
L 146.812312 256.493773 
L 147.368603 256.493773 
L 147.368603 255.920121 
L 148.122637 255.920121 
L 148.200145 254.772818 
L 150.016276 254.772818 
L 150.016276 253.625514 
L 150.899466 253.625514 
L 150.899466 253.051863 
L 151.015013 253.051863 
L 151.080698 251.904559 
L 151.405461 251.904559 
L 151.405461 251.330907 
L 151.740076 251.330907 
L 151.740076 250.757256 
L 152.736878 250.757256 
L 152.736878 250.183604 
L 153.192929 250.183604 
L 153.265382 249.036301 
L 153.552218 249.036301 
L 153.552218 248.462649 
L 154.614488 248.462649 
L 154.614488 247.888997 
L 155.953659 247.888997 
L 155.953659 247.315345 
L 156.835778 247.315345 
L 156.859328 246.168042 
L 157.081488 246.168042 
L 157.081488 245.59439 
L 158.753132 245.59439 
L 158.753132 245.020738 
L 159.262876 245.020738 
L 159.293606 243.873435 
L 159.587904 243.873435 
L 159.587904 243.299783 
L 160.123015 243.299783 
L 160.123015 242.726132 
L 160.736665 242.726132 
L 160.736665 242.15248 
L 160.858717 242.15248 
L 160.858717 241.578828 
L 161.210663 241.578828 
L 161.210663 241.005176 
L 162.165135 241.005176 
L 162.165135 240.431525 
L 162.346481 240.431525 
L 162.346481 239.857873 
L 162.779197 239.857873 
L 162.779197 239.284221 
L 163.17688 239.284221 
L 163.17688 238.71057 
L 164.148635 238.71057 
L 164.148635 238.136918 
L 164.272154 238.136918 
L 164.287532 236.989614 
L 164.577177 236.989614 
L 164.592289 235.842311 
L 165.273656 235.842311 
L 165.360599 234.695008 
L 165.661531 234.695008 
L 165.746566 232.400401 
L 166.075685 232.400401 
L 166.165632 231.253097 
L 166.662278 231.253097 
L 166.662278 230.679446 
L 167.001045 230.679446 
L 167.001045 230.105794 
L 167.223287 230.105794 
L 167.223287 229.532142 
L 167.570541 229.532142 
L 167.570541 228.95849 
L 167.935973 228.95849 
L 167.935973 228.384839 
L 168.27557 228.384839 
L 168.27557 227.811187 
L 168.427772 227.811187 
L 168.488284 226.663884 
L 168.9532 226.663884 
L 168.9532 226.090232 
L 169.163666 226.090232 
L 169.215888 224.369277 
L 169.571453 224.369277 
L 169.571453 223.795625 
L 169.73531 223.795625 
L 169.73531 223.221973 
L 169.931039 223.221973 
L 170.014255 222.07467 
L 170.075029 222.07467 
L 170.075029 221.501018 
L 170.575192 221.501018 
L 170.575192 220.927366 
L 170.825279 220.927366 
L 170.825279 220.353715 
L 171.103055 220.353715 
L 171.123841 219.206411 
L 171.340609 219.206411 
L 171.340609 218.632759 
L 171.600256 218.632759 
L 171.63055 217.485456 
L 172.02459 217.485456 
L 172.098413 216.338153 
L 172.230511 216.338153 
L 172.249996 214.617197 
L 172.395445 214.617197 
L 172.496543 212.896242 
L 172.639959 212.896242 
L 172.639959 212.322591 
L 172.772758 212.322591 
L 172.824653 211.175287 
L 172.937347 211.175287 
L 173.03536 208.88068 
L 173.072554 208.88068 
L 173.155951 207.733377 
L 173.284893 207.733377 
L 173.298652 205.43877 
L 173.426547 205.43877 
L 173.530906 202.570511 
L 173.562544 202.570511 
L 173.630147 201.423208 
L 173.728826 201.423208 
L 173.728826 200.275904 
L 173.937789 200.275904 
L 173.973109 199.128601 
L 174.100548 199.128601 
L 174.209666 196.833994 
L 174.287811 196.833994 
L 174.395768 195.686691 
L 174.455933 195.686691 
L 174.455933 195.113039 
L 174.605444 195.113039 
L 174.664891 193.392084 
L 174.736806 193.392084 
L 174.825234 189.950174 
L 174.850417 189.950174 
L 174.879752 188.80287 
L 174.963293 188.80287 
L 175.071303 185.934612 
L 175.079583 185.934612 
L 175.096133 184.213656 
L 175.240277 184.213656 
L 175.30169 182.492701 
L 175.36696 182.492701 
L 175.448206 179.624443 
L 175.488687 179.624443 
L 175.545203 177.903487 
L 175.60957 177.903487 
L 175.60957 177.329836 
L 175.753531 177.329836 
L 175.840927 175.608881 
L 175.888413 175.608881 
L 175.916053 174.461577 
L 176.037938 174.461577 
L 176.131719 172.16697 
L 176.193961 172.16697 
L 176.302352 169.872363 
L 176.329344 169.872363 
L 176.425408 164.709498 
L 176.574218 164.709498 
L 176.61217 163.562195 
L 176.714232 163.562195 
L 176.8157 158.399329 
L 176.860608 158.399329 
L 176.931477 156.104722 
L 176.979801 156.104722 
L 177.05758 150.941857 
L 177.101871 150.941857 
L 177.186447 146.926295 
L 177.241386 146.926295 
L 177.339841 143.484384 
L 177.376165 143.484384 
L 177.441359 141.763429 
L 177.542289 141.763429 
L 177.646212 138.895171 
L 177.664067 138.895171 
L 177.735306 135.45326 
L 177.809795 135.45326 
L 177.883967 130.290395 
L 177.961335 130.290395 
L 178.006891 129.143091 
L 178.10461 129.143091 
L 178.205245 126.274833 
L 178.243265 126.274833 
L 178.343106 123.980226 
L 178.384252 123.980226 
L 178.4901 118.817361 
L 178.507112 118.817361 
L 178.6156 115.37545 
L 178.645991 115.37545 
L 178.756973 112.507192 
L 178.777076 112.507192 
L 178.873915 108.49163 
L 178.890557 108.49163 
L 178.986769 105.623371 
L 179.003304 105.623371 
L 179.075871 103.328764 
L 179.174343 103.328764 
L 179.262495 99.313202 
L 179.298281 99.313202 
L 179.405201 94.723988 
L 179.447142 94.723988 
L 179.549953 87.840168 
L 179.597938 87.840168 
L 179.67762 85.545561 
L 179.744273 85.545561 
L 179.826445 83.250954 
L 179.86424 83.250954 
L 179.948981 77.514437 
L 179.992759 77.514437 
L 180.0862 75.793482 
L 180.135832 75.793482 
L 180.176054 74.072526 
L 180.246989 74.072526 
L 180.351324 65.467751 
L 180.4672 65.467751 
L 180.539991 61.452189 
L 180.630553 61.452189 
L 180.735618 56.862975 
L 180.750576 56.862975 
L 180.819217 53.421065 
L 180.890556 53.421065 
L 180.994071 46.537244 
L 181.005862 46.537244 
L 181.055886 42.521682 
L 181.146739 42.521682 
L 181.237121 37.932468 
L 181.263273 37.932468 
L 181.364606 36.211513 
L 181.381918 36.211513 
L 181.473961 31.622299 
L 181.556958 31.622299 
L 181.650924 28.180389 
L 181.733085 28.180389 
L 181.820486 24.738479 
L 181.968906 24.738479 
L 182.069005 23.017524 
L 182.088402 23.017524 
L 182.193325 21.87022 
L 182.22358 21.87022 
L 182.327695 19.575613 
L 182.374073 19.575613 
L 182.439337 17.281006 
L 182.606816 17.281006 
L 182.617566 16.133703 
L 182.727374 16.133703 
L 182.786012 13.839096 
L 182.92119 13.839096 
L 183.015983 10.970838 
L 183.042224 10.970838 
L 183.057949 9.249882 
L 183.162423 9.249882 
L 183.162423 8.676231 
L 183.513025 8.676231 
L 183.513025 8.102579 
L 183.723582 8.102579 
L 183.723582 7.528927 
L 184.006219 7.528927 
L 184.006219 6.955275 
L 184.134758 6.955275 
L 184.134758 6.381624 
L 338.688 6.381624 
L 338.688 6.381624 
" style="fill:none;stroke:#6495ed;stroke-linecap:square;stroke-width:1.5;"/>
   </g>
   <g id="line2d_43">
    <defs>
     <path d="M -0 6 
L 6 -6 
L -6 -6 
z
" id="md04def9f5e" style="stroke:#6495ed;stroke-linejoin:miter;stroke-width:1.5;"/>
    </defs>
    <g>
     <use style="fill-opacity:0;stroke:#6495ed;stroke-linejoin:miter;stroke-width:1.5;" x="176.931477" xlink:href="#md04def9f5e" y="156.678374"/>
     <use style="fill-opacity:0;stroke:#6495ed;stroke-linejoin:miter;stroke-width:1.5;" x="184.134758" xlink:href="#md04def9f5e" y="6.955275"/>
     <use style="fill-opacity:0;stroke:#6495ed;stroke-linejoin:miter;stroke-width:1.5;" x="184.134758" xlink:href="#md04def9f5e" y="6.381624"/>
     <use style="fill-opacity:0;stroke:#6495ed;stroke-linejoin:miter;stroke-width:1.5;" x="184.134758" xlink:href="#md04def9f5e" y="6.381624"/>
     <use style="fill-opacity:0;stroke:#6495ed;stroke-linejoin:miter;stroke-width:1.5;" x="338.688" xlink:href="#md04def9f5e" y="6.381624"/>
    </g>
   </g>
   <g id="line2d_44">
    <path style="fill:none;stroke:#6495ed;stroke-linecap:square;stroke-width:1.5;"/>
    <g/>
   </g>
   <g id="line2d_45">
    <path d="M 338.688 6.381624 
L 369.60768 293.092752 
" style="fill:none;stroke:#ff7500;stroke-linecap:square;stroke-width:1.5;"/>
    <g>
     <use style="fill-opacity:0;stroke:#ff7500;stroke-linejoin:bevel;stroke-width:1.5;" x="338.688" xlink:href="#m88cd0366ef" y="6.381624"/>
     <use style="fill-opacity:0;stroke:#ff7500;stroke-linejoin:bevel;stroke-width:1.5;" x="369.60768" xlink:href="#m88cd0366ef" y="293.092752"/>
    </g>
   </g>
   <g id="line2d_46">
    <path d="M 338.688 6.381624 
L 369.60768 199.472792 
" style="fill:none;stroke:#6495ed;stroke-linecap:square;stroke-width:1.5;"/>
    <g>
     <use style="fill-opacity:0;stroke:#6495ed;stroke-linejoin:miter;stroke-width:1.5;" x="338.688" xlink:href="#md04def9f5e" y="6.381624"/>
     <use style="fill-opacity:0;stroke:#6495ed;stroke-linejoin:miter;stroke-width:1.5;" x="369.60768" xlink:href="#md04def9f5e" y="199.472792"/>
    </g>
   </g>
   <g id="line2d_47">
    <path d="M 338.688 6.381624 
L 369.60768 105.852832 
" style="fill:none;stroke:#000080;stroke-linecap:square;stroke-width:1.5;"/>
    <g>
     <use style="fill-opacity:0;stroke:#000080;stroke-width:1.5;" x="338.688" xlink:href="#mdf49f4e3e0" y="6.381624"/>
     <use style="fill-opacity:0;stroke:#000080;stroke-width:1.5;" x="369.60768" xlink:href="#mdf49f4e3e0" y="105.852832"/>
    </g>
   </g>
   <g id="line2d_48">
    <path d="M 338.688 6.381624 
L 369.60768 12.232871 
" style="fill:none;stroke:#ff00ff;stroke-linecap:square;stroke-width:1.5;"/>
    <g>
     <use style="fill-opacity:0;stroke:#ff00ff;stroke-linejoin:miter;stroke-width:1.5;" x="338.688" xlink:href="#m98e06632db" y="6.381624"/>
     <use style="fill-opacity:0;stroke:#ff00ff;stroke-linejoin:miter;stroke-width:1.5;" x="369.60768" xlink:href="#m98e06632db" y="12.232871"/>
    </g>
   </g>
   <g id="line2d_49">
    <path d="M 338.688 298.944 
L 338.688 6.381624 
" style="fill:none;stroke:#000000;stroke-linecap:square;stroke-width:1.5;"/>
   </g>
   <g id="patch_3">
    <path d="M 57.6 298.944 
L 57.6 3.456 
" style="fill:none;stroke:#000000;stroke-linecap:square;stroke-linejoin:miter;stroke-width:0.8;"/>
   </g>
   <g id="patch_4">
    <path d="M 338.688 298.944 
L 338.688 3.456 
" style="fill:none;stroke:#000000;stroke-linecap:square;stroke-linejoin:miter;stroke-width:0.8;"/>
   </g>
   <g id="patch_5">
    <path d="M 57.6 298.944 
L 338.688 298.944 
" style="fill:none;stroke:#000000;stroke-linecap:square;stroke-linejoin:miter;stroke-width:0.8;"/>
   </g>
   <g id="patch_6">
    <path d="M 57.6 3.456 
L 338.688 3.456 
" style="fill:none;stroke:#000000;stroke-linecap:square;stroke-linejoin:miter;stroke-width:0.8;"/>
   </g>
   <g id="text_13">
    <!-- f8 -->
    <g transform="translate(375.22944 297.78369)scale(0.17 -0.17)">
     <use xlink:href="#DejaVuSans-66"/>
     <use x="35.205078" xlink:href="#DejaVuSans-38"/>
    </g>
   </g>
   <g id="text_14">
    <!-- f9 -->
    <g transform="translate(375.22944 204.16373)scale(0.17 -0.17)">
     <defs>
      <path d="M 703 97 
L 703 672 
Q 941 559 1184 500 
Q 1428 441 1663 441 
Q 2288 441 2617 861 
Q 2947 1281 2994 2138 
Q 2813 1869 2534 1725 
Q 2256 1581 1919 1581 
Q 1219 1581 811 2004 
Q 403 2428 403 3163 
Q 403 3881 828 4315 
Q 1253 4750 1959 4750 
Q 2769 4750 3195 4129 
Q 3622 3509 3622 2328 
Q 3622 1225 3098 567 
Q 2575 -91 1691 -91 
Q 1453 -91 1209 -44 
Q 966 3 703 97 
z
M 1959 2075 
Q 2384 2075 2632 2365 
Q 2881 2656 2881 3163 
Q 2881 3666 2632 3958 
Q 2384 4250 1959 4250 
Q 1534 4250 1286 3958 
Q 1038 3666 1038 3163 
Q 1038 2656 1286 2365 
Q 1534 2075 1959 2075 
z
" id="DejaVuSans-39" transform="scale(0.015625)"/>
     </defs>
     <use xlink:href="#DejaVuSans-66"/>
     <use x="35.205078" xlink:href="#DejaVuSans-39"/>
    </g>
   </g>
   <g id="text_15">
    <!-- f6 -->
    <g transform="translate(375.22944 110.543769)scale(0.17 -0.17)">
     <use xlink:href="#DejaVuSans-66"/>
     <use x="35.205078" xlink:href="#DejaVuSans-36"/>
    </g>
   </g>
   <g id="text_16">
    <!-- f7 -->
    <g transform="translate(375.22944 16.923809)scale(0.17 -0.17)">
     <defs>
      <path d="M 525 4666 
L 3525 4666 
L 3525 4397 
L 1831 0 
L 1172 0 
L 2766 4134 
L 525 4134 
L 525 4666 
z
" id="DejaVuSans-37" transform="scale(0.015625)"/>
     </defs>
     <use xlink:href="#DejaVuSans-66"/>
     <use x="35.205078" xlink:href="#DejaVuSans-37"/>
    </g>
   </g>
   <g id="text_17">
    <!-- bbob -->
    <g transform="translate(60.41088 14.161286)scale(0.102 -0.102)">
     <defs>
      <path d="M 3116 1747 
Q 3116 2381 2855 2742 
Q 2594 3103 2138 3103 
Q 1681 3103 1420 2742 
Q 1159 2381 1159 1747 
Q 1159 1113 1420 752 
Q 1681 391 2138 391 
Q 2594 391 2855 752 
Q 3116 1113 3116 1747 
z
M 1159 2969 
Q 1341 3281 1617 3432 
Q 1894 3584 2278 3584 
Q 2916 3584 3314 3078 
Q 3713 2572 3713 1747 
Q 3713 922 3314 415 
Q 2916 -91 2278 -91 
Q 1894 -91 1617 61 
Q 1341 213 1159 525 
L 1159 0 
L 581 0 
L 581 4863 
L 1159 4863 
L 1159 2969 
z
" id="DejaVuSans-62" transform="scale(0.015625)"/>
     </defs>
     <use xlink:href="#DejaVuSans-62"/>
     <use x="63.476562" xlink:href="#DejaVuSans-62"/>
     <use x="126.953125" xlink:href="#DejaVuSans-6f"/>
     <use x="188.134766" xlink:href="#DejaVuSans-62"/>
    </g>
    <!-- Misc. moderate functions, 5-D -->
    <g transform="translate(60.41088 25.583055)scale(0.102 -0.102)">
     <defs>
      <path d="M 628 4666 
L 1569 4666 
L 2759 1491 
L 3956 4666 
L 4897 4666 
L 4897 0 
L 4281 0 
L 4281 4097 
L 3078 897 
L 2444 897 
L 1241 4097 
L 1241 0 
L 628 0 
L 628 4666 
z
" id="DejaVuSans-4d" transform="scale(0.015625)"/>
      <path d="M 691 4666 
L 3169 4666 
L 3169 4134 
L 1269 4134 
L 1269 2991 
Q 1406 3038 1543 3061 
Q 1681 3084 1819 3084 
Q 2600 3084 3056 2656 
Q 3513 2228 3513 1497 
Q 3513 744 3044 326 
Q 2575 -91 1722 -91 
Q 1428 -91 1123 -41 
Q 819 9 494 109 
L 494 744 
Q 775 591 1075 516 
Q 1375 441 1709 441 
Q 2250 441 2565 725 
Q 2881 1009 2881 1497 
Q 2881 1984 2565 2268 
Q 2250 2553 1709 2553 
Q 1456 2553 1204 2497 
Q 953 2441 691 2322 
L 691 4666 
z
" id="DejaVuSans-35" transform="scale(0.015625)"/>
      <path d="M 1259 4147 
L 1259 519 
L 2022 519 
Q 2988 519 3436 956 
Q 3884 1394 3884 2338 
Q 3884 3275 3436 3711 
Q 2988 4147 2022 4147 
L 1259 4147 
z
M 628 4666 
L 1925 4666 
Q 3281 4666 3915 4102 
Q 4550 3538 4550 2338 
Q 4550 1131 3912 565 
Q 3275 0 1925 0 
L 628 0 
L 628 4666 
z
" id="DejaVuSans-44" transform="scale(0.015625)"/>
     </defs>
     <use xlink:href="#DejaVuSans-4d"/>
     <use x="86.279297" xlink:href="#DejaVuSans-69"/>
     <use x="114.0625" xlink:href="#DejaVuSans-73"/>
     <use x="166.162109" xlink:href="#DejaVuSans-63"/>
     <use x="221.142578" xlink:href="#DejaVuSans-2e"/>
     <use x="252.929688" xlink:href="#DejaVuSans-20"/>
     <use x="284.716797" xlink:href="#DejaVuSans-6d"/>
     <use x="382.128906" xlink:href="#DejaVuSans-6f"/>
     <use x="443.310547" xlink:href="#DejaVuSans-64"/>
     <use x="506.787109" xlink:href="#DejaVuSans-65"/>
     <use x="568.310547" xlink:href="#DejaVuSans-72"/>
     <use x="609.423828" xlink:href="#DejaVuSans-61"/>
     <use x="670.703125" xlink:href="#DejaVuSans-74"/>
     <use x="709.912109" xlink:href="#DejaVuSans-65"/>
     <use x="771.435547" xlink:href="#DejaVuSans-20"/>
     <use x="803.222656" xlink:href="#DejaVuSans-66"/>
     <use x="838.427734" xlink:href="#DejaVuSans-75"/>
     <use x="901.806641" xlink:href="#DejaVuSans-6e"/>
     <use x="965.185547" xlink:href="#DejaVuSans-63"/>
     <use x="1020.166016" xlink:href="#DejaVuSans-74"/>
     <use x="1059.375" xlink:href="#DejaVuSans-69"/>
     <use x="1087.158203" xlink:href="#DejaVuSans-6f"/>
     <use x="1148.339844" xlink:href="#DejaVuSans-6e"/>
     <use x="1211.71875" xlink:href="#DejaVuSans-73"/>
     <use x="1263.818359" xlink:href="#DejaVuSans-2c"/>
     <use x="1295.605469" xlink:href="#DejaVuSans-20"/>
     <use x="1327.392578" xlink:href="#DejaVuSans-35"/>
     <use x="1391.015625" xlink:href="#DejaVuSans-2d"/>
     <use x="1427.099609" xlink:href="#DejaVuSans-44"/>
    </g>
    <!-- 51 targets: 100..1e-08 -->
    <g transform="translate(60.41088 37.004824)scale(0.102 -0.102)">
     <defs>
      <path d="M 750 794 
L 1409 794 
L 1409 0 
L 750 0 
L 750 794 
z
M 750 3309 
L 1409 3309 
L 1409 2516 
L 750 2516 
L 750 3309 
z
" id="DejaVuSans-3a" transform="scale(0.015625)"/>
     </defs>
     <use xlink:href="#DejaVuSans-35"/>
     <use x="63.623047" xlink:href="#DejaVuSans-31"/>
     <use x="127.246094" xlink:href="#DejaVuSans-20"/>
     <use x="159.033203" xlink:href="#DejaVuSans-74"/>
     <use x="198.242188" xlink:href="#DejaVuSans-61"/>
     <use x="259.521484" xlink:href="#DejaVuSans-72"/>
     <use x="298.884766" xlink:href="#DejaVuSans-67"/>
     <use x="362.361328" xlink:href="#DejaVuSans-65"/>
     <use x="423.884766" xlink:href="#DejaVuSans-74"/>
     <use x="463.09375" xlink:href="#DejaVuSans-73"/>
     <use x="515.193359" xlink:href="#DejaVuSans-3a"/>
     <use x="548.884766" xlink:href="#DejaVuSans-20"/>
     <use x="580.671875" xlink:href="#DejaVuSans-31"/>
     <use x="644.294922" xlink:href="#DejaVuSans-30"/>
     <use x="707.917969" xlink:href="#DejaVuSans-30"/>
     <use x="771.541016" xlink:href="#DejaVuSans-2e"/>
     <use x="803.328125" xlink:href="#DejaVuSans-2e"/>
     <use x="835.115234" xlink:href="#DejaVuSans-31"/>
     <use x="898.738281" xlink:href="#DejaVuSans-65"/>
     <use x="960.261719" xlink:href="#DejaVuSans-2d"/>
     <use x="996.345703" xlink:href="#DejaVuSans-30"/>
     <use x="1059.96875" xlink:href="#DejaVuSans-38"/>
    </g>
    <!-- 15 instances -->
    <g transform="translate(60.41088 48.426593)scale(0.102 -0.102)">
     <use xlink:href="#DejaVuSans-31"/>
     <use x="63.623047" xlink:href="#DejaVuSans-35"/>
     <use x="127.246094" xlink:href="#DejaVuSans-20"/>
     <use x="159.033203" xlink:href="#DejaVuSans-69"/>
     <use x="186.816406" xlink:href="#DejaVuSans-6e"/>
     <use x="250.195312" xlink:href="#DejaVuSans-73"/>
     <use x="302.294922" xlink:href="#DejaVuSans-74"/>
     <use x="341.503906" xlink:href="#DejaVuSans-61"/>
     <use x="402.783203" xlink:href="#DejaVuSans-6e"/>
     <use x="466.162109" xlink:href="#DejaVuSans-63"/>
     <use x="521.142578" xlink:href="#DejaVuSans-65"/>
     <use x="582.666016" xlink:href="#DejaVuSans-73"/>
    </g>
   </g>
   <g id="text_18">
    <!-- v2.4 -->
    <g style="fill:#808080;" transform="translate(187.233062 293.909432)scale(0.1 -0.1)">
     <use xlink:href="#DejaVuSans-76"/>
     <use x="59.179688" xlink:href="#DejaVuSans-32"/>
     <use x="122.802734" xlink:href="#DejaVuSans-2e"/>
     <use x="154.589844" xlink:href="#DejaVuSans-34"/>
    </g>
   </g>
  </g>
 </g>
 <defs>
  <clipPath id="p3bbf6eba0a">
   <rect height="295.488" width="281.088" x="57.6" y="3.456"/>
  </clipPath>
 </defs>
</svg>
