<?xml version="1.0" encoding="utf-8" standalone="no"?>
<!DOCTYPE svg PUBLIC "-//W3C//DTD SVG 1.1//EN"
  "http://www.w3.org/Graphics/SVG/1.1/DTD/svg11.dtd">
<svg height="345.6pt" version="1.1" viewBox="0 0 460.8 345.6" width="460.8pt" xmlns="http://www.w3.org/2000/svg" xmlns:xlink="http://www.w3.org/1999/xlink">
 <metadata>
  <rdf:RDF xmlns:cc="http://creativecommons.org/ns#" xmlns:dc="http://purl.org/dc/elements/1.1/" xmlns:rdf="http://www.w3.org/1999/02/22-rdf-syntax-ns#">
   <cc:Work>
    <dc:type rdf:resource="http://purl.org/dc/dcmitype/StillImage"/>
    <dc:date>2021-04-26T18:35:57.606609</dc:date>
    <dc:format>image/svg+xml</dc:format>
    <dc:creator>
     <cc:Agent>
      <dc:title>Matplotlib v3.4.1, https://matplotlib.org/</dc:title>
     </cc:Agent>
    </dc:creator>
   </cc:Work>
  </rdf:RDF>
 </metadata>
 <defs>
  <style type="text/css">*{stroke-linecap:butt;stroke-linejoin:round;}</style>
 </defs>
 <g id="figure_1">
  <g id="patch_1">
   <path d="M 0 345.6 
L 460.8 345.6 
L 460.8 0 
L 0 0 
z
" style="fill:#ffffff;"/>
  </g>
  <g id="axes_1">
   <g id="patch_2">
    <path d="M 57.6 298.944 
L 338.688 298.944 
L 338.688 3.456 
L 57.6 3.456 
z
" style="fill:#ffffff;"/>
   </g>
   <g id="matplotlib.axis_1">
    <g id="xtick_1">
     <g id="line2d_1">
      <path clip-path="url(#p2ab9eefd80)" d="M 57.6 298.944 
L 57.6 3.456 
" style="fill:none;stroke:#b0b0b0;stroke-linecap:square;stroke-width:0.8;"/>
     </g>
     <g id="line2d_2">
      <defs>
       <path d="M 0 0 
L 0 3.5 
" id="m53c27784a7" style="stroke:#000000;stroke-width:0.8;"/>
      </defs>
      <g>
       <use style="stroke:#000000;stroke-width:0.8;" x="57.6" xlink:href="#m53c27784a7" y="298.944"/>
      </g>
     </g>
     <g id="text_1">
      <!-- 0 -->
      <g transform="translate(51.2375 321.140875)scale(0.2 -0.2)">
       <defs>
        <path d="M 2034 4250 
Q 1547 4250 1301 3770 
Q 1056 3291 1056 2328 
Q 1056 1369 1301 889 
Q 1547 409 2034 409 
Q 2525 409 2770 889 
Q 3016 1369 3016 2328 
Q 3016 3291 2770 3770 
Q 2525 4250 2034 4250 
z
M 2034 4750 
Q 2819 4750 3233 4129 
Q 3647 3509 3647 2328 
Q 3647 1150 3233 529 
Q 2819 -91 2034 -91 
Q 1250 -91 836 529 
Q 422 1150 422 2328 
Q 422 3509 836 4129 
Q 1250 4750 2034 4750 
z
" id="DejaVuSans-30" transform="scale(0.015625)"/>
       </defs>
       <use xlink:href="#DejaVuSans-30"/>
      </g>
     </g>
    </g>
    <g id="xtick_2">
     <g id="line2d_3">
      <path clip-path="url(#p2ab9eefd80)" d="M 137.910857 298.944 
L 137.910857 3.456 
" style="fill:none;stroke:#b0b0b0;stroke-linecap:square;stroke-width:0.8;"/>
     </g>
     <g id="line2d_4">
      <g>
       <use style="stroke:#000000;stroke-width:0.8;" x="137.910857" xlink:href="#m53c27784a7" y="298.944"/>
      </g>
     </g>
     <g id="text_2">
      <!-- 2 -->
      <g transform="translate(131.548357 321.140875)scale(0.2 -0.2)">
       <defs>
        <path d="M 1228 531 
L 3431 531 
L 3431 0 
L 469 0 
L 469 531 
Q 828 903 1448 1529 
Q 2069 2156 2228 2338 
Q 2531 2678 2651 2914 
Q 2772 3150 2772 3378 
Q 2772 3750 2511 3984 
Q 2250 4219 1831 4219 
Q 1534 4219 1204 4116 
Q 875 4013 500 3803 
L 500 4441 
Q 881 4594 1212 4672 
Q 1544 4750 1819 4750 
Q 2544 4750 2975 4387 
Q 3406 4025 3406 3419 
Q 3406 3131 3298 2873 
Q 3191 2616 2906 2266 
Q 2828 2175 2409 1742 
Q 1991 1309 1228 531 
z
" id="DejaVuSans-32" transform="scale(0.015625)"/>
       </defs>
       <use xlink:href="#DejaVuSans-32"/>
      </g>
     </g>
    </g>
    <g id="xtick_3">
     <g id="line2d_5">
      <path clip-path="url(#p2ab9eefd80)" d="M 218.221714 298.944 
L 218.221714 3.456 
" style="fill:none;stroke:#b0b0b0;stroke-linecap:square;stroke-width:0.8;"/>
     </g>
     <g id="line2d_6">
      <g>
       <use style="stroke:#000000;stroke-width:0.8;" x="218.221714" xlink:href="#m53c27784a7" y="298.944"/>
      </g>
     </g>
     <g id="text_3">
      <!-- 4 -->
      <g transform="translate(211.859214 321.140875)scale(0.2 -0.2)">
       <defs>
        <path d="M 2419 4116 
L 825 1625 
L 2419 1625 
L 2419 4116 
z
M 2253 4666 
L 3047 4666 
L 3047 1625 
L 3713 1625 
L 3713 1100 
L 3047 1100 
L 3047 0 
L 2419 0 
L 2419 1100 
L 313 1100 
L 313 1709 
L 2253 4666 
z
" id="DejaVuSans-34" transform="scale(0.015625)"/>
       </defs>
       <use xlink:href="#DejaVuSans-34"/>
      </g>
     </g>
    </g>
    <g id="xtick_4">
     <g id="line2d_7">
      <path clip-path="url(#p2ab9eefd80)" d="M 298.532571 298.944 
L 298.532571 3.456 
" style="fill:none;stroke:#b0b0b0;stroke-linecap:square;stroke-width:0.8;"/>
     </g>
     <g id="line2d_8">
      <g>
       <use style="stroke:#000000;stroke-width:0.8;" x="298.532571" xlink:href="#m53c27784a7" y="298.944"/>
      </g>
     </g>
     <g id="text_4">
      <!-- 6 -->
      <g transform="translate(292.170071 321.140875)scale(0.2 -0.2)">
       <defs>
        <path d="M 2113 2584 
Q 1688 2584 1439 2293 
Q 1191 2003 1191 1497 
Q 1191 994 1439 701 
Q 1688 409 2113 409 
Q 2538 409 2786 701 
Q 3034 994 3034 1497 
Q 3034 2003 2786 2293 
Q 2538 2584 2113 2584 
z
M 3366 4563 
L 3366 3988 
Q 3128 4100 2886 4159 
Q 2644 4219 2406 4219 
Q 1781 4219 1451 3797 
Q 1122 3375 1075 2522 
Q 1259 2794 1537 2939 
Q 1816 3084 2150 3084 
Q 2853 3084 3261 2657 
Q 3669 2231 3669 1497 
Q 3669 778 3244 343 
Q 2819 -91 2113 -91 
Q 1303 -91 875 529 
Q 447 1150 447 2328 
Q 447 3434 972 4092 
Q 1497 4750 2381 4750 
Q 2619 4750 2861 4703 
Q 3103 4656 3366 4563 
z
" id="DejaVuSans-36" transform="scale(0.015625)"/>
       </defs>
       <use xlink:href="#DejaVuSans-36"/>
      </g>
     </g>
    </g>
    <g id="xtick_5">
     <g id="line2d_9">
      <path clip-path="url(#p2ab9eefd80)" d="M 97.755429 298.944 
L 97.755429 3.456 
" style="fill:none;stroke:#b0b0b0;stroke-linecap:square;stroke-width:0.8;"/>
     </g>
     <g id="line2d_10">
      <defs>
       <path d="M 0 0 
L 0 2 
" id="m898248661b" style="stroke:#000000;stroke-width:0.6;"/>
      </defs>
      <g>
       <use style="stroke:#000000;stroke-width:0.6;" x="97.755429" xlink:href="#m898248661b" y="298.944"/>
      </g>
     </g>
    </g>
    <g id="xtick_6">
     <g id="line2d_11">
      <path clip-path="url(#p2ab9eefd80)" d="M 178.066286 298.944 
L 178.066286 3.456 
" style="fill:none;stroke:#b0b0b0;stroke-linecap:square;stroke-width:0.8;"/>
     </g>
     <g id="line2d_12">
      <g>
       <use style="stroke:#000000;stroke-width:0.6;" x="178.066286" xlink:href="#m898248661b" y="298.944"/>
      </g>
     </g>
    </g>
    <g id="xtick_7">
     <g id="line2d_13">
      <path clip-path="url(#p2ab9eefd80)" d="M 258.377143 298.944 
L 258.377143 3.456 
" style="fill:none;stroke:#b0b0b0;stroke-linecap:square;stroke-width:0.8;"/>
     </g>
     <g id="line2d_14">
      <g>
       <use style="stroke:#000000;stroke-width:0.6;" x="258.377143" xlink:href="#m898248661b" y="298.944"/>
      </g>
     </g>
    </g>
    <g id="xtick_8">
     <g id="line2d_15">
      <path clip-path="url(#p2ab9eefd80)" d="M 338.688 298.944 
L 338.688 3.456 
" style="fill:none;stroke:#b0b0b0;stroke-linecap:square;stroke-width:0.8;"/>
     </g>
     <g id="line2d_16">
      <g>
       <use style="stroke:#000000;stroke-width:0.6;" x="338.688" xlink:href="#m898248661b" y="298.944"/>
      </g>
     </g>
    </g>
    <g id="text_5">
     <!-- log10(# f-evals / dimension) -->
     <g transform="translate(77.764078 342.217594)scale(0.17 -0.17)">
      <defs>
       <path d="M 603 4863 
L 1178 4863 
L 1178 0 
L 603 0 
L 603 4863 
z
" id="DejaVuSans-6c" transform="scale(0.015625)"/>
       <path d="M 1959 3097 
Q 1497 3097 1228 2736 
Q 959 2375 959 1747 
Q 959 1119 1226 758 
Q 1494 397 1959 397 
Q 2419 397 2687 759 
Q 2956 1122 2956 1747 
Q 2956 2369 2687 2733 
Q 2419 3097 1959 3097 
z
M 1959 3584 
Q 2709 3584 3137 3096 
Q 3566 2609 3566 1747 
Q 3566 888 3137 398 
Q 2709 -91 1959 -91 
Q 1206 -91 779 398 
Q 353 888 353 1747 
Q 353 2609 779 3096 
Q 1206 3584 1959 3584 
z
" id="DejaVuSans-6f" transform="scale(0.015625)"/>
       <path d="M 2906 1791 
Q 2906 2416 2648 2759 
Q 2391 3103 1925 3103 
Q 1463 3103 1205 2759 
Q 947 2416 947 1791 
Q 947 1169 1205 825 
Q 1463 481 1925 481 
Q 2391 481 2648 825 
Q 2906 1169 2906 1791 
z
M 3481 434 
Q 3481 -459 3084 -895 
Q 2688 -1331 1869 -1331 
Q 1566 -1331 1297 -1286 
Q 1028 -1241 775 -1147 
L 775 -588 
Q 1028 -725 1275 -790 
Q 1522 -856 1778 -856 
Q 2344 -856 2625 -561 
Q 2906 -266 2906 331 
L 2906 616 
Q 2728 306 2450 153 
Q 2172 0 1784 0 
Q 1141 0 747 490 
Q 353 981 353 1791 
Q 353 2603 747 3093 
Q 1141 3584 1784 3584 
Q 2172 3584 2450 3431 
Q 2728 3278 2906 2969 
L 2906 3500 
L 3481 3500 
L 3481 434 
z
" id="DejaVuSans-67" transform="scale(0.015625)"/>
       <path d="M 794 531 
L 1825 531 
L 1825 4091 
L 703 3866 
L 703 4441 
L 1819 4666 
L 2450 4666 
L 2450 531 
L 3481 531 
L 3481 0 
L 794 0 
L 794 531 
z
" id="DejaVuSans-31" transform="scale(0.015625)"/>
       <path d="M 1984 4856 
Q 1566 4138 1362 3434 
Q 1159 2731 1159 2009 
Q 1159 1288 1364 580 
Q 1569 -128 1984 -844 
L 1484 -844 
Q 1016 -109 783 600 
Q 550 1309 550 2009 
Q 550 2706 781 3412 
Q 1013 4119 1484 4856 
L 1984 4856 
z
" id="DejaVuSans-28" transform="scale(0.015625)"/>
       <path d="M 3272 2816 
L 2363 2816 
L 2100 1772 
L 3016 1772 
L 3272 2816 
z
M 2803 4594 
L 2478 3297 
L 3391 3297 
L 3719 4594 
L 4219 4594 
L 3897 3297 
L 4872 3297 
L 4872 2816 
L 3775 2816 
L 3519 1772 
L 4513 1772 
L 4513 1294 
L 3397 1294 
L 3072 0 
L 2572 0 
L 2894 1294 
L 1978 1294 
L 1656 0 
L 1153 0 
L 1478 1294 
L 494 1294 
L 494 1772 
L 1594 1772 
L 1856 2816 
L 850 2816 
L 850 3297 
L 1978 3297 
L 2297 4594 
L 2803 4594 
z
" id="DejaVuSans-23" transform="scale(0.015625)"/>
       <path id="DejaVuSans-20" transform="scale(0.015625)"/>
       <path d="M 2375 4863 
L 2375 4384 
L 1825 4384 
Q 1516 4384 1395 4259 
Q 1275 4134 1275 3809 
L 1275 3500 
L 2222 3500 
L 2222 3053 
L 1275 3053 
L 1275 0 
L 697 0 
L 697 3053 
L 147 3053 
L 147 3500 
L 697 3500 
L 697 3744 
Q 697 4328 969 4595 
Q 1241 4863 1831 4863 
L 2375 4863 
z
" id="DejaVuSans-66" transform="scale(0.015625)"/>
       <path d="M 313 2009 
L 1997 2009 
L 1997 1497 
L 313 1497 
L 313 2009 
z
" id="DejaVuSans-2d" transform="scale(0.015625)"/>
       <path d="M 3597 1894 
L 3597 1613 
L 953 1613 
Q 991 1019 1311 708 
Q 1631 397 2203 397 
Q 2534 397 2845 478 
Q 3156 559 3463 722 
L 3463 178 
Q 3153 47 2828 -22 
Q 2503 -91 2169 -91 
Q 1331 -91 842 396 
Q 353 884 353 1716 
Q 353 2575 817 3079 
Q 1281 3584 2069 3584 
Q 2775 3584 3186 3129 
Q 3597 2675 3597 1894 
z
M 3022 2063 
Q 3016 2534 2758 2815 
Q 2500 3097 2075 3097 
Q 1594 3097 1305 2825 
Q 1016 2553 972 2059 
L 3022 2063 
z
" id="DejaVuSans-65" transform="scale(0.015625)"/>
       <path d="M 191 3500 
L 800 3500 
L 1894 563 
L 2988 3500 
L 3597 3500 
L 2284 0 
L 1503 0 
L 191 3500 
z
" id="DejaVuSans-76" transform="scale(0.015625)"/>
       <path d="M 2194 1759 
Q 1497 1759 1228 1600 
Q 959 1441 959 1056 
Q 959 750 1161 570 
Q 1363 391 1709 391 
Q 2188 391 2477 730 
Q 2766 1069 2766 1631 
L 2766 1759 
L 2194 1759 
z
M 3341 1997 
L 3341 0 
L 2766 0 
L 2766 531 
Q 2569 213 2275 61 
Q 1981 -91 1556 -91 
Q 1019 -91 701 211 
Q 384 513 384 1019 
Q 384 1609 779 1909 
Q 1175 2209 1959 2209 
L 2766 2209 
L 2766 2266 
Q 2766 2663 2505 2880 
Q 2244 3097 1772 3097 
Q 1472 3097 1187 3025 
Q 903 2953 641 2809 
L 641 3341 
Q 956 3463 1253 3523 
Q 1550 3584 1831 3584 
Q 2591 3584 2966 3190 
Q 3341 2797 3341 1997 
z
" id="DejaVuSans-61" transform="scale(0.015625)"/>
       <path d="M 2834 3397 
L 2834 2853 
Q 2591 2978 2328 3040 
Q 2066 3103 1784 3103 
Q 1356 3103 1142 2972 
Q 928 2841 928 2578 
Q 928 2378 1081 2264 
Q 1234 2150 1697 2047 
L 1894 2003 
Q 2506 1872 2764 1633 
Q 3022 1394 3022 966 
Q 3022 478 2636 193 
Q 2250 -91 1575 -91 
Q 1294 -91 989 -36 
Q 684 19 347 128 
L 347 722 
Q 666 556 975 473 
Q 1284 391 1588 391 
Q 1994 391 2212 530 
Q 2431 669 2431 922 
Q 2431 1156 2273 1281 
Q 2116 1406 1581 1522 
L 1381 1569 
Q 847 1681 609 1914 
Q 372 2147 372 2553 
Q 372 3047 722 3315 
Q 1072 3584 1716 3584 
Q 2034 3584 2315 3537 
Q 2597 3491 2834 3397 
z
" id="DejaVuSans-73" transform="scale(0.015625)"/>
       <path d="M 1625 4666 
L 2156 4666 
L 531 -594 
L 0 -594 
L 1625 4666 
z
" id="DejaVuSans-2f" transform="scale(0.015625)"/>
       <path d="M 2906 2969 
L 2906 4863 
L 3481 4863 
L 3481 0 
L 2906 0 
L 2906 525 
Q 2725 213 2448 61 
Q 2172 -91 1784 -91 
Q 1150 -91 751 415 
Q 353 922 353 1747 
Q 353 2572 751 3078 
Q 1150 3584 1784 3584 
Q 2172 3584 2448 3432 
Q 2725 3281 2906 2969 
z
M 947 1747 
Q 947 1113 1208 752 
Q 1469 391 1925 391 
Q 2381 391 2643 752 
Q 2906 1113 2906 1747 
Q 2906 2381 2643 2742 
Q 2381 3103 1925 3103 
Q 1469 3103 1208 2742 
Q 947 2381 947 1747 
z
" id="DejaVuSans-64" transform="scale(0.015625)"/>
       <path d="M 603 3500 
L 1178 3500 
L 1178 0 
L 603 0 
L 603 3500 
z
M 603 4863 
L 1178 4863 
L 1178 4134 
L 603 4134 
L 603 4863 
z
" id="DejaVuSans-69" transform="scale(0.015625)"/>
       <path d="M 3328 2828 
Q 3544 3216 3844 3400 
Q 4144 3584 4550 3584 
Q 5097 3584 5394 3201 
Q 5691 2819 5691 2113 
L 5691 0 
L 5113 0 
L 5113 2094 
Q 5113 2597 4934 2840 
Q 4756 3084 4391 3084 
Q 3944 3084 3684 2787 
Q 3425 2491 3425 1978 
L 3425 0 
L 2847 0 
L 2847 2094 
Q 2847 2600 2669 2842 
Q 2491 3084 2119 3084 
Q 1678 3084 1418 2786 
Q 1159 2488 1159 1978 
L 1159 0 
L 581 0 
L 581 3500 
L 1159 3500 
L 1159 2956 
Q 1356 3278 1631 3431 
Q 1906 3584 2284 3584 
Q 2666 3584 2933 3390 
Q 3200 3197 3328 2828 
z
" id="DejaVuSans-6d" transform="scale(0.015625)"/>
       <path d="M 3513 2113 
L 3513 0 
L 2938 0 
L 2938 2094 
Q 2938 2591 2744 2837 
Q 2550 3084 2163 3084 
Q 1697 3084 1428 2787 
Q 1159 2491 1159 1978 
L 1159 0 
L 581 0 
L 581 3500 
L 1159 3500 
L 1159 2956 
Q 1366 3272 1645 3428 
Q 1925 3584 2291 3584 
Q 2894 3584 3203 3211 
Q 3513 2838 3513 2113 
z
" id="DejaVuSans-6e" transform="scale(0.015625)"/>
       <path d="M 513 4856 
L 1013 4856 
Q 1481 4119 1714 3412 
Q 1947 2706 1947 2009 
Q 1947 1309 1714 600 
Q 1481 -109 1013 -844 
L 513 -844 
Q 928 -128 1133 580 
Q 1338 1288 1338 2009 
Q 1338 2731 1133 3434 
Q 928 4138 513 4856 
z
" id="DejaVuSans-29" transform="scale(0.015625)"/>
      </defs>
      <use xlink:href="#DejaVuSans-6c"/>
      <use x="27.783203" xlink:href="#DejaVuSans-6f"/>
      <use x="88.964844" xlink:href="#DejaVuSans-67"/>
      <use x="152.441406" xlink:href="#DejaVuSans-31"/>
      <use x="216.064453" xlink:href="#DejaVuSans-30"/>
      <use x="279.6875" xlink:href="#DejaVuSans-28"/>
      <use x="318.701172" xlink:href="#DejaVuSans-23"/>
      <use x="402.490234" xlink:href="#DejaVuSans-20"/>
      <use x="434.277344" xlink:href="#DejaVuSans-66"/>
      <use x="463.982422" xlink:href="#DejaVuSans-2d"/>
      <use x="500.066406" xlink:href="#DejaVuSans-65"/>
      <use x="561.589844" xlink:href="#DejaVuSans-76"/>
      <use x="620.769531" xlink:href="#DejaVuSans-61"/>
      <use x="682.048828" xlink:href="#DejaVuSans-6c"/>
      <use x="709.832031" xlink:href="#DejaVuSans-73"/>
      <use x="761.931641" xlink:href="#DejaVuSans-20"/>
      <use x="793.71875" xlink:href="#DejaVuSans-2f"/>
      <use x="827.410156" xlink:href="#DejaVuSans-20"/>
      <use x="859.197266" xlink:href="#DejaVuSans-64"/>
      <use x="922.673828" xlink:href="#DejaVuSans-69"/>
      <use x="950.457031" xlink:href="#DejaVuSans-6d"/>
      <use x="1047.869141" xlink:href="#DejaVuSans-65"/>
      <use x="1109.392578" xlink:href="#DejaVuSans-6e"/>
      <use x="1172.771484" xlink:href="#DejaVuSans-73"/>
      <use x="1224.871094" xlink:href="#DejaVuSans-69"/>
      <use x="1252.654297" xlink:href="#DejaVuSans-6f"/>
      <use x="1313.835938" xlink:href="#DejaVuSans-6e"/>
      <use x="1377.214844" xlink:href="#DejaVuSans-29"/>
     </g>
    </g>
   </g>
   <g id="matplotlib.axis_2">
    <g id="ytick_1">
     <g id="line2d_17">
      <path clip-path="url(#p2ab9eefd80)" d="M 57.6 298.944 
L 338.688 298.944 
" style="fill:none;stroke:#b0b0b0;stroke-linecap:square;stroke-width:0.8;"/>
     </g>
     <g id="line2d_18">
      <defs>
       <path d="M 0 0 
L -3.5 0 
" id="m09ed36826e" style="stroke:#000000;stroke-width:0.8;"/>
      </defs>
      <g>
       <use style="stroke:#000000;stroke-width:0.8;" x="57.6" xlink:href="#m09ed36826e" y="298.944"/>
      </g>
     </g>
     <g id="text_6">
      <!-- 0.0 -->
      <g transform="translate(25.155 305.02275)scale(0.16 -0.16)">
       <defs>
        <path d="M 684 794 
L 1344 794 
L 1344 0 
L 684 0 
L 684 794 
z
" id="DejaVuSans-2e" transform="scale(0.015625)"/>
       </defs>
       <use xlink:href="#DejaVuSans-30"/>
       <use x="63.623047" xlink:href="#DejaVuSans-2e"/>
       <use x="95.410156" xlink:href="#DejaVuSans-30"/>
      </g>
     </g>
    </g>
    <g id="ytick_2">
     <g id="line2d_19">
      <path clip-path="url(#p2ab9eefd80)" d="M 57.6 240.431525 
L 338.688 240.431525 
" style="fill:none;stroke:#b0b0b0;stroke-linecap:square;stroke-width:0.8;"/>
     </g>
     <g id="line2d_20">
      <g>
       <use style="stroke:#000000;stroke-width:0.8;" x="57.6" xlink:href="#m09ed36826e" y="240.431525"/>
      </g>
     </g>
     <g id="text_7">
      <!-- 0.2 -->
      <g transform="translate(25.155 246.510275)scale(0.16 -0.16)">
       <use xlink:href="#DejaVuSans-30"/>
       <use x="63.623047" xlink:href="#DejaVuSans-2e"/>
       <use x="95.410156" xlink:href="#DejaVuSans-32"/>
      </g>
     </g>
    </g>
    <g id="ytick_3">
     <g id="line2d_21">
      <path clip-path="url(#p2ab9eefd80)" d="M 57.6 181.91905 
L 338.688 181.91905 
" style="fill:none;stroke:#b0b0b0;stroke-linecap:square;stroke-width:0.8;"/>
     </g>
     <g id="line2d_22">
      <g>
       <use style="stroke:#000000;stroke-width:0.8;" x="57.6" xlink:href="#m09ed36826e" y="181.91905"/>
      </g>
     </g>
     <g id="text_8">
      <!-- 0.4 -->
      <g transform="translate(25.155 187.9978)scale(0.16 -0.16)">
       <use xlink:href="#DejaVuSans-30"/>
       <use x="63.623047" xlink:href="#DejaVuSans-2e"/>
       <use x="95.410156" xlink:href="#DejaVuSans-34"/>
      </g>
     </g>
    </g>
    <g id="ytick_4">
     <g id="line2d_23">
      <path clip-path="url(#p2ab9eefd80)" d="M 57.6 123.406574 
L 338.688 123.406574 
" style="fill:none;stroke:#b0b0b0;stroke-linecap:square;stroke-width:0.8;"/>
     </g>
     <g id="line2d_24">
      <g>
       <use style="stroke:#000000;stroke-width:0.8;" x="57.6" xlink:href="#m09ed36826e" y="123.406574"/>
      </g>
     </g>
     <g id="text_9">
      <!-- 0.6 -->
      <g transform="translate(25.155 129.485324)scale(0.16 -0.16)">
       <use xlink:href="#DejaVuSans-30"/>
       <use x="63.623047" xlink:href="#DejaVuSans-2e"/>
       <use x="95.410156" xlink:href="#DejaVuSans-36"/>
      </g>
     </g>
    </g>
    <g id="ytick_5">
     <g id="line2d_25">
      <path clip-path="url(#p2ab9eefd80)" d="M 57.6 64.894099 
L 338.688 64.894099 
" style="fill:none;stroke:#b0b0b0;stroke-linecap:square;stroke-width:0.8;"/>
     </g>
     <g id="line2d_26">
      <g>
       <use style="stroke:#000000;stroke-width:0.8;" x="57.6" xlink:href="#m09ed36826e" y="64.894099"/>
      </g>
     </g>
     <g id="text_10">
      <!-- 0.8 -->
      <g transform="translate(25.155 70.972849)scale(0.16 -0.16)">
       <defs>
        <path d="M 2034 2216 
Q 1584 2216 1326 1975 
Q 1069 1734 1069 1313 
Q 1069 891 1326 650 
Q 1584 409 2034 409 
Q 2484 409 2743 651 
Q 3003 894 3003 1313 
Q 3003 1734 2745 1975 
Q 2488 2216 2034 2216 
z
M 1403 2484 
Q 997 2584 770 2862 
Q 544 3141 544 3541 
Q 544 4100 942 4425 
Q 1341 4750 2034 4750 
Q 2731 4750 3128 4425 
Q 3525 4100 3525 3541 
Q 3525 3141 3298 2862 
Q 3072 2584 2669 2484 
Q 3125 2378 3379 2068 
Q 3634 1759 3634 1313 
Q 3634 634 3220 271 
Q 2806 -91 2034 -91 
Q 1263 -91 848 271 
Q 434 634 434 1313 
Q 434 1759 690 2068 
Q 947 2378 1403 2484 
z
M 1172 3481 
Q 1172 3119 1398 2916 
Q 1625 2713 2034 2713 
Q 2441 2713 2670 2916 
Q 2900 3119 2900 3481 
Q 2900 3844 2670 4047 
Q 2441 4250 2034 4250 
Q 1625 4250 1398 4047 
Q 1172 3844 1172 3481 
z
" id="DejaVuSans-38" transform="scale(0.015625)"/>
       </defs>
       <use xlink:href="#DejaVuSans-30"/>
       <use x="63.623047" xlink:href="#DejaVuSans-2e"/>
       <use x="95.410156" xlink:href="#DejaVuSans-38"/>
      </g>
     </g>
    </g>
    <g id="ytick_6">
     <g id="line2d_27">
      <path clip-path="url(#p2ab9eefd80)" d="M 57.6 6.381624 
L 338.688 6.381624 
" style="fill:none;stroke:#b0b0b0;stroke-linecap:square;stroke-width:0.8;"/>
     </g>
     <g id="line2d_28">
      <g>
       <use style="stroke:#000000;stroke-width:0.8;" x="57.6" xlink:href="#m09ed36826e" y="6.381624"/>
      </g>
     </g>
     <g id="text_11">
      <!-- 1.0 -->
      <g transform="translate(25.155 12.460374)scale(0.16 -0.16)">
       <use xlink:href="#DejaVuSans-31"/>
       <use x="63.623047" xlink:href="#DejaVuSans-2e"/>
       <use x="95.410156" xlink:href="#DejaVuSans-30"/>
      </g>
     </g>
    </g>
    <g id="text_12">
     <!-- Fraction of function,target pairs -->
     <g transform="translate(17.619531 285.585)rotate(-90)scale(0.17 -0.17)">
      <defs>
       <path d="M 628 4666 
L 3309 4666 
L 3309 4134 
L 1259 4134 
L 1259 2759 
L 3109 2759 
L 3109 2228 
L 1259 2228 
L 1259 0 
L 628 0 
L 628 4666 
z
" id="DejaVuSans-46" transform="scale(0.015625)"/>
       <path d="M 2631 2963 
Q 2534 3019 2420 3045 
Q 2306 3072 2169 3072 
Q 1681 3072 1420 2755 
Q 1159 2438 1159 1844 
L 1159 0 
L 581 0 
L 581 3500 
L 1159 3500 
L 1159 2956 
Q 1341 3275 1631 3429 
Q 1922 3584 2338 3584 
Q 2397 3584 2469 3576 
Q 2541 3569 2628 3553 
L 2631 2963 
z
" id="DejaVuSans-72" transform="scale(0.015625)"/>
       <path d="M 3122 3366 
L 3122 2828 
Q 2878 2963 2633 3030 
Q 2388 3097 2138 3097 
Q 1578 3097 1268 2742 
Q 959 2388 959 1747 
Q 959 1106 1268 751 
Q 1578 397 2138 397 
Q 2388 397 2633 464 
Q 2878 531 3122 666 
L 3122 134 
Q 2881 22 2623 -34 
Q 2366 -91 2075 -91 
Q 1284 -91 818 406 
Q 353 903 353 1747 
Q 353 2603 823 3093 
Q 1294 3584 2113 3584 
Q 2378 3584 2631 3529 
Q 2884 3475 3122 3366 
z
" id="DejaVuSans-63" transform="scale(0.015625)"/>
       <path d="M 1172 4494 
L 1172 3500 
L 2356 3500 
L 2356 3053 
L 1172 3053 
L 1172 1153 
Q 1172 725 1289 603 
Q 1406 481 1766 481 
L 2356 481 
L 2356 0 
L 1766 0 
Q 1100 0 847 248 
Q 594 497 594 1153 
L 594 3053 
L 172 3053 
L 172 3500 
L 594 3500 
L 594 4494 
L 1172 4494 
z
" id="DejaVuSans-74" transform="scale(0.015625)"/>
       <path d="M 544 1381 
L 544 3500 
L 1119 3500 
L 1119 1403 
Q 1119 906 1312 657 
Q 1506 409 1894 409 
Q 2359 409 2629 706 
Q 2900 1003 2900 1516 
L 2900 3500 
L 3475 3500 
L 3475 0 
L 2900 0 
L 2900 538 
Q 2691 219 2414 64 
Q 2138 -91 1772 -91 
Q 1169 -91 856 284 
Q 544 659 544 1381 
z
M 1991 3584 
L 1991 3584 
z
" id="DejaVuSans-75" transform="scale(0.015625)"/>
       <path d="M 750 794 
L 1409 794 
L 1409 256 
L 897 -744 
L 494 -744 
L 750 256 
L 750 794 
z
" id="DejaVuSans-2c" transform="scale(0.015625)"/>
       <path d="M 1159 525 
L 1159 -1331 
L 581 -1331 
L 581 3500 
L 1159 3500 
L 1159 2969 
Q 1341 3281 1617 3432 
Q 1894 3584 2278 3584 
Q 2916 3584 3314 3078 
Q 3713 2572 3713 1747 
Q 3713 922 3314 415 
Q 2916 -91 2278 -91 
Q 1894 -91 1617 61 
Q 1341 213 1159 525 
z
M 3116 1747 
Q 3116 2381 2855 2742 
Q 2594 3103 2138 3103 
Q 1681 3103 1420 2742 
Q 1159 2381 1159 1747 
Q 1159 1113 1420 752 
Q 1681 391 2138 391 
Q 2594 391 2855 752 
Q 3116 1113 3116 1747 
z
" id="DejaVuSans-70" transform="scale(0.015625)"/>
      </defs>
      <use xlink:href="#DejaVuSans-46"/>
      <use x="50.269531" xlink:href="#DejaVuSans-72"/>
      <use x="91.382812" xlink:href="#DejaVuSans-61"/>
      <use x="152.662109" xlink:href="#DejaVuSans-63"/>
      <use x="207.642578" xlink:href="#DejaVuSans-74"/>
      <use x="246.851562" xlink:href="#DejaVuSans-69"/>
      <use x="274.634766" xlink:href="#DejaVuSans-6f"/>
      <use x="335.816406" xlink:href="#DejaVuSans-6e"/>
      <use x="399.195312" xlink:href="#DejaVuSans-20"/>
      <use x="430.982422" xlink:href="#DejaVuSans-6f"/>
      <use x="492.164062" xlink:href="#DejaVuSans-66"/>
      <use x="527.369141" xlink:href="#DejaVuSans-20"/>
      <use x="559.15625" xlink:href="#DejaVuSans-66"/>
      <use x="594.361328" xlink:href="#DejaVuSans-75"/>
      <use x="657.740234" xlink:href="#DejaVuSans-6e"/>
      <use x="721.119141" xlink:href="#DejaVuSans-63"/>
      <use x="776.099609" xlink:href="#DejaVuSans-74"/>
      <use x="815.308594" xlink:href="#DejaVuSans-69"/>
      <use x="843.091797" xlink:href="#DejaVuSans-6f"/>
      <use x="904.273438" xlink:href="#DejaVuSans-6e"/>
      <use x="967.652344" xlink:href="#DejaVuSans-2c"/>
      <use x="999.439453" xlink:href="#DejaVuSans-74"/>
      <use x="1038.648438" xlink:href="#DejaVuSans-61"/>
      <use x="1099.927734" xlink:href="#DejaVuSans-72"/>
      <use x="1139.291016" xlink:href="#DejaVuSans-67"/>
      <use x="1202.767578" xlink:href="#DejaVuSans-65"/>
      <use x="1264.291016" xlink:href="#DejaVuSans-74"/>
      <use x="1303.5" xlink:href="#DejaVuSans-20"/>
      <use x="1335.287109" xlink:href="#DejaVuSans-70"/>
      <use x="1398.763672" xlink:href="#DejaVuSans-61"/>
      <use x="1460.042969" xlink:href="#DejaVuSans-69"/>
      <use x="1487.826172" xlink:href="#DejaVuSans-72"/>
      <use x="1528.939453" xlink:href="#DejaVuSans-73"/>
     </g>
    </g>
   </g>
   <g id="line2d_29">
    <defs>
     <path d="M 0 1.5 
C 0.397805 1.5 0.77937 1.341951 1.06066 1.06066 
C 1.341951 0.77937 1.5 0.397805 1.5 0 
C 1.5 -0.397805 1.341951 -0.77937 1.06066 -1.06066 
C 0.77937 -1.341951 0.397805 -1.5 0 -1.5 
C -0.397805 -1.5 -0.77937 -1.341951 -1.06066 -1.06066 
C -1.341951 -0.77937 -1.5 -0.397805 -1.5 0 
C -1.5 0.397805 -1.341951 0.77937 -1.06066 1.06066 
C -0.77937 1.341951 -0.397805 1.5 0 1.5 
z
" id="m1d623ebb31" style="stroke:#000080;"/>
    </defs>
    <g>
     <use style="fill:#000080;stroke:#000080;" x="286.742852" xlink:href="#m1d623ebb31" y="121.111967"/>
     <use style="fill:#000080;stroke:#000080;" x="286.742852" xlink:href="#m1d623ebb31" y="121.111967"/>
    </g>
   </g>
   <g id="line2d_30">
    <path d="M 29.53256 298.944 
L 29.53256 298.370348 
L 72.867545 298.370348 
L 72.867545 297.796697 
L 76.759008 297.796697 
L 76.759008 297.223045 
L 83.438118 297.223045 
L 83.438118 296.649393 
L 86.351421 296.649393 
L 86.351421 294.928438 
L 87.643811 294.928438 
L 87.643811 294.354786 
L 88.846997 294.354786 
L 88.846997 293.781135 
L 98.100772 293.781135 
L 98.100772 292.633831 
L 101.506816 292.633831 
L 101.506816 290.912876 
L 105.951954 290.912876 
L 105.951954 289.765573 
L 110.527398 289.765573 
L 110.527398 289.191921 
L 112.58145 289.191921 
L 112.58145 288.618269 
L 114.0117 288.618269 
L 114.0117 286.897314 
L 114.552496 286.897314 
L 114.552496 286.323662 
L 117.030313 286.323662 
L 117.030313 285.75001 
L 117.145424 285.75001 
L 117.145424 285.176359 
L 117.259781 285.176359 
L 117.259781 284.602707 
L 117.930605 284.602707 
L 117.930605 284.029055 
L 124.368753 284.029055 
L 124.368753 282.881752 
L 124.594752 282.881752 
L 124.594752 282.3081 
L 124.817858 282.3081 
L 124.817858 281.734448 
L 125.892487 281.734448 
L 125.892487 281.160797 
L 127.165014 281.160797 
L 127.165014 280.587145 
L 127.54831 280.587145 
L 127.611382 279.439842 
L 129.908566 279.439842 
L 129.908566 277.718886 
L 130.61164 277.718886 
L 130.61164 277.145235 
L 130.874681 277.145235 
L 130.874681 275.997931 
L 133.170708 275.997931 
L 133.170708 275.42428 
L 133.307488 275.42428 
L 133.307488 274.850628 
L 134.661403 274.850628 
L 134.661403 274.276976 
L 137.945701 274.276976 
L 137.945701 273.703324 
L 139.02546 273.703324 
L 139.058148 272.556021 
L 146.833235 272.556021 
L 146.833235 271.982369 
L 147.409112 271.982369 
L 147.409112 271.408718 
L 152.542024 271.408718 
L 152.542024 270.835066 
L 155.804285 270.835066 
L 155.804285 270.261414 
L 156.466616 270.261414 
L 156.466616 269.687762 
L 157.415209 269.687762 
L 157.415209 269.114111 
L 158.249784 269.114111 
L 158.249784 268.540459 
L 158.910765 268.540459 
L 158.910765 267.966807 
L 160.632719 267.966807 
L 160.632719 267.393156 
L 161.832113 267.393156 
L 161.832113 266.819504 
L 162.962595 266.819504 
L 162.962595 266.245852 
L 163.557683 266.245852 
L 163.557683 265.6722 
L 163.977355 265.6722 
L 163.977355 265.098549 
L 164.765143 265.098549 
L 164.765143 264.524897 
L 167.203791 264.524897 
L 167.203791 263.951245 
L 168.847006 263.951245 
L 168.847006 262.803942 
L 169.308343 262.803942 
L 169.308343 262.23029 
L 170.424481 262.23029 
L 170.424481 261.656638 
L 171.024887 261.656638 
L 171.024887 261.082987 
L 171.61036 261.082987 
L 171.61036 260.509335 
L 171.98509 260.509335 
L 171.98509 259.935683 
L 173.408333 259.935683 
L 173.408333 259.362031 
L 173.959872 259.362031 
L 173.968698 257.067425 
L 174.609697 257.067425 
L 174.609697 256.493773 
L 175.199215 256.493773 
L 175.199215 255.920121 
L 176.045773 255.920121 
L 176.045773 255.346469 
L 177.982376 255.346469 
L 177.982376 254.772818 
L 179.216842 254.772818 
L 179.216842 254.199166 
L 179.661713 254.199166 
L 179.661713 253.625514 
L 179.892533 253.625514 
L 179.967756 252.478211 
L 180.430691 252.478211 
L 180.430691 251.904559 
L 180.591367 251.904559 
L 180.660636 250.757256 
L 181.102837 250.757256 
L 181.175946 249.609952 
L 181.248749 249.609952 
L 181.248749 249.036301 
L 182.374073 249.036301 
L 182.374073 248.462649 
L 183.366939 248.462649 
L 183.431162 247.315345 
L 183.558904 247.315345 
L 183.558904 246.741694 
L 183.811615 246.741694 
L 183.811615 246.168042 
L 184.060717 246.168042 
L 184.060717 245.59439 
L 184.905574 245.59439 
L 184.905574 245.020738 
L 185.655047 245.020738 
L 185.655047 244.447087 
L 189.398715 244.447087 
L 189.398715 243.873435 
L 189.980765 243.873435 
L 189.980765 242.726132 
L 190.286312 242.726132 
L 190.286312 242.15248 
L 190.504746 242.15248 
L 190.504746 241.578828 
L 190.801325 241.578828 
L 190.801325 241.005176 
L 191.658751 241.005176 
L 191.658751 240.431525 
L 194.220645 240.431525 
L 194.220645 239.857873 
L 194.562576 239.857873 
L 194.562576 239.284221 
L 194.864685 239.284221 
L 194.864685 238.71057 
L 195.517869 238.71057 
L 195.517869 238.136918 
L 195.740823 238.136918 
L 195.740823 237.563266 
L 195.866958 237.563266 
L 195.866958 236.989614 
L 196.903791 236.989614 
L 196.903791 236.415963 
L 197.051198 236.415963 
L 197.051198 235.842311 
L 197.966195 235.842311 
L 197.966195 235.268659 
L 198.86205 235.268659 
L 198.86205 234.695008 
L 199.280379 234.695008 
L 199.280379 233.547704 
L 199.989144 233.547704 
L 199.989144 232.974052 
L 200.235451 232.974052 
L 200.235451 231.826749 
L 201.047794 231.826749 
L 201.047794 231.253097 
L 202.416653 231.253097 
L 202.416653 230.679446 
L 203.984283 230.679446 
L 204.082639 229.532142 
L 204.121826 229.532142 
L 204.121826 228.95849 
L 204.258294 228.95849 
L 204.258294 228.384839 
L 205.513136 228.384839 
L 205.513136 227.811187 
L 206.479753 227.811187 
L 206.479753 227.237535 
L 207.101127 227.237535 
L 207.101127 226.663884 
L 207.859799 226.663884 
L 207.859799 226.090232 
L 207.986338 226.090232 
L 207.986338 225.51658 
L 210.357397 225.51658 
L 210.357397 224.942928 
L 210.575044 224.942928 
L 210.575044 224.369277 
L 213.088563 224.369277 
L 213.088563 223.795625 
L 214.319784 223.795625 
L 214.319784 223.221973 
L 215.398577 223.221973 
L 215.398577 222.648321 
L 216.691991 222.648321 
L 216.691991 222.07467 
L 216.805848 222.07467 
L 216.881341 220.927366 
L 217.573635 220.927366 
L 217.573635 219.780063 
L 220.182819 219.780063 
L 220.182819 219.206411 
L 220.52235 219.206411 
L 220.52235 218.632759 
L 221.277596 218.632759 
L 221.372473 217.485456 
L 221.661204 217.485456 
L 221.661204 216.911804 
L 221.782482 216.911804 
L 221.825086 215.764501 
L 222.217778 215.764501 
L 222.245492 214.617197 
L 222.417713 214.617197 
L 222.465632 212.896242 
L 222.757136 212.896242 
L 222.757136 212.322591 
L 223.188735 212.322591 
L 223.293356 210.027984 
L 223.474947 210.027984 
L 223.474947 209.454332 
L 223.983595 209.454332 
L 223.983595 208.88068 
L 224.635482 208.88068 
L 224.635482 208.307029 
L 225.6212 208.307029 
L 225.6212 207.733377 
L 225.93239 207.733377 
L 225.93239 207.159725 
L 226.817144 207.159725 
L 226.817144 206.586073 
L 227.091947 206.586073 
L 227.091947 205.43877 
L 227.931313 205.43877 
L 227.931313 204.291467 
L 231.293265 204.291467 
L 231.293265 203.717815 
L 231.481633 203.717815 
L 231.554855 201.423208 
L 231.904493 201.423208 
L 231.904493 200.849556 
L 232.031669 200.849556 
L 232.031669 199.702253 
L 232.204291 199.702253 
L 232.212111 198.554949 
L 232.437386 198.554949 
L 232.437386 197.981298 
L 232.560441 197.981298 
L 232.560441 197.407646 
L 232.724441 197.407646 
L 232.724441 196.833994 
L 232.969456 196.833994 
L 233.070228 195.686691 
L 233.170421 195.686691 
L 233.229524 193.965736 
L 233.427532 193.965736 
L 233.427532 193.392084 
L 233.809794 193.392084 
L 233.841868 191.671129 
L 234.078802 191.671129 
L 234.078802 191.097477 
L 234.398987 191.097477 
L 234.398987 189.950174 
L 234.587768 189.950174 
L 234.604816 188.80287 
L 235.279871 188.80287 
L 235.302807 187.081915 
L 235.831697 187.081915 
L 235.831697 186.508263 
L 236.174547 186.508263 
L 236.174547 185.934612 
L 236.489509 185.934612 
L 236.562647 184.787308 
L 236.726368 184.787308 
L 236.726368 184.213656 
L 237.990878 184.213656 
L 237.990878 183.640005 
L 238.13755 183.640005 
L 238.170694 181.345398 
L 238.495434 181.345398 
L 238.495434 180.771746 
L 239.027108 180.771746 
L 239.027108 180.198094 
L 239.268739 180.198094 
L 239.268739 179.624443 
L 239.427125 179.624443 
L 239.427125 179.050791 
L 239.584085 179.050791 
L 239.584085 178.477139 
L 239.79541 178.477139 
L 239.79541 177.903487 
L 240.210529 177.903487 
L 240.210529 175.608881 
L 241.733587 175.608881 
L 241.733587 174.461577 
L 241.909241 174.461577 
L 241.909241 173.887925 
L 242.237915 173.887925 
L 242.237915 173.314274 
L 243.123627 173.314274 
L 243.123627 172.740622 
L 243.567502 172.740622 
L 243.567502 172.16697 
L 243.810419 172.16697 
L 243.886643 171.019667 
L 244.490531 171.019667 
L 244.56192 169.872363 
L 244.652184 169.872363 
L 244.652184 169.298712 
L 244.974826 169.298712 
L 244.974826 168.72506 
L 245.802928 168.72506 
L 245.802928 168.151408 
L 246.029195 168.151408 
L 246.029195 167.577757 
L 246.161451 167.577757 
L 246.161451 167.004105 
L 246.767418 167.004105 
L 246.767418 166.430453 
L 246.998471 166.430453 
L 247.06185 165.28315 
L 247.148389 165.28315 
L 247.213012 164.135846 
L 247.766478 164.135846 
L 247.788895 160.693936 
L 248.711392 160.693936 
L 248.711392 160.120284 
L 249.06447 160.120284 
L 249.06447 158.972981 
L 249.776457 158.972981 
L 249.868169 157.825677 
L 250.061794 157.825677 
L 250.061794 157.252026 
L 250.207161 157.252026 
L 250.251681 156.104722 
L 250.409365 156.104722 
L 250.497269 154.383767 
L 250.715109 154.383767 
L 250.717815 153.236464 
L 251.003611 153.236464 
L 251.003611 152.662812 
L 251.296581 152.662812 
L 251.296581 152.08916 
L 252.499938 152.08916 
L 252.499938 150.941857 
L 252.821843 150.941857 
L 252.821843 150.368205 
L 252.978217 150.368205 
L 253.06357 149.220902 
L 253.224833 149.220902 
L 253.233033 148.073598 
L 253.426364 148.073598 
L 253.426364 146.926295 
L 253.920796 146.926295 
L 253.920796 146.352643 
L 254.301643 146.352643 
L 254.32366 145.20534 
L 255.195884 145.20534 
L 255.246042 144.058036 
L 256.937352 144.058036 
L 256.937352 143.484384 
L 257.181778 143.484384 
L 257.181778 142.910733 
L 257.577858 142.910733 
L 257.577858 142.337081 
L 258.845189 142.337081 
L 258.845189 141.763429 
L 259.131443 141.763429 
L 259.131443 141.189778 
L 259.275312 141.189778 
L 259.275312 140.616126 
L 259.800707 140.616126 
L 259.800707 140.042474 
L 262.767178 140.042474 
L 262.767178 139.468822 
L 262.903581 139.468822 
L 262.903581 138.321519 
L 263.92443 138.321519 
L 263.92443 137.174215 
L 264.057799 137.174215 
L 264.072877 136.026912 
L 264.584848 136.026912 
L 264.693235 134.879609 
L 264.924214 134.879609 
L 264.924214 134.305957 
L 266.082932 134.305957 
L 266.082932 133.732305 
L 266.202452 133.732305 
L 266.202452 133.158653 
L 266.423174 133.158653 
L 266.423174 132.585002 
L 267.476918 132.585002 
L 267.476918 132.01135 
L 268.378916 132.01135 
L 268.378916 131.437698 
L 270.334318 131.437698 
L 270.433293 130.290395 
L 270.846359 130.290395 
L 270.846359 129.716743 
L 271.191435 129.716743 
L 271.191435 129.143091 
L 272.562564 129.143091 
L 272.562564 128.56944 
L 272.708066 128.56944 
L 272.708066 127.995788 
L 273.544503 127.995788 
L 273.544503 127.422136 
L 274.044118 127.422136 
L 274.119928 126.274833 
L 274.740221 126.274833 
L 274.740221 125.701181 
L 276.239628 125.701181 
L 276.239628 125.127529 
L 277.276145 125.127529 
L 277.276145 124.553878 
L 281.033969 124.553878 
L 281.033969 123.980226 
L 282.40558 123.980226 
L 282.40558 123.406574 
L 282.793874 123.406574 
L 282.793874 122.832923 
L 285.682656 122.832923 
L 285.682656 122.259271 
L 286.326651 122.259271 
L 286.326651 121.685619 
L 286.742852 121.685619 
L 286.742852 121.111967 
L 338.688 121.111967 
L 338.688 121.111967 
" style="fill:none;stroke:#000080;stroke-linecap:square;stroke-width:1.5;"/>
   </g>
   <g id="line2d_31">
    <defs>
     <path d="M 0 6 
C 1.591219 6 3.117479 5.367802 4.242641 4.242641 
C 5.367802 3.117479 6 1.591219 6 0 
C 6 -1.591219 5.367802 -3.117479 4.242641 -4.242641 
C 3.117479 -5.367802 1.591219 -6 0 -6 
C -1.591219 -6 -3.117479 -5.367802 -4.242641 -4.242641 
C -5.367802 -3.117479 -6 -1.591219 -6 0 
C -6 1.591219 -5.367802 3.117479 -4.242641 4.242641 
C -3.117479 5.367802 -1.591219 6 0 6 
z
" id="m33906bfbad" style="stroke:#000080;stroke-width:1.5;"/>
    </defs>
    <g>
     <use style="fill-opacity:0;stroke:#000080;stroke-width:1.5;" x="105.951954" xlink:href="#m33906bfbad" y="290.912876"/>
     <use style="fill-opacity:0;stroke:#000080;stroke-width:1.5;" x="168.847006" xlink:href="#m33906bfbad" y="262.803942"/>
     <use style="fill-opacity:0;stroke:#000080;stroke-width:1.5;" x="222.217778" xlink:href="#m33906bfbad" y="215.190849"/>
     <use style="fill-opacity:0;stroke:#000080;stroke-width:1.5;" x="253.920796" xlink:href="#m33906bfbad" y="146.926295"/>
     <use style="fill-opacity:0;stroke:#000080;stroke-width:1.5;" x="286.742852" xlink:href="#m33906bfbad" y="121.111967"/>
     <use style="fill-opacity:0;stroke:#000080;stroke-width:1.5;" x="338.688" xlink:href="#m33906bfbad" y="121.111967"/>
    </g>
   </g>
   <g id="line2d_32">
    <path style="fill:none;stroke:#000080;stroke-linecap:square;stroke-width:1.5;"/>
    <g/>
   </g>
   <g id="line2d_33">
    <path clip-path="url(#p2ab9eefd80)" d="M 218.221714 219.780063 
" style="fill:none;stroke:#000080;stroke-linecap:square;stroke-width:1.5;"/>
    <defs>
     <path d="M -12 12 
L 12 -12 
M -12 -12 
L 12 12 
" id="m4dba4c9d9e" style="stroke:#000080;"/>
    </defs>
    <g clip-path="url(#p2ab9eefd80)">
     <use style="fill:#000080;stroke:#000080;" x="218.221714" xlink:href="#m4dba4c9d9e" y="219.780063"/>
    </g>
   </g>
   <g id="line2d_34">
    <defs>
     <path d="M 0 1.5 
C 0.397805 1.5 0.77937 1.341951 1.06066 1.06066 
C 1.341951 0.77937 1.5 0.397805 1.5 0 
C 1.5 -0.397805 1.341951 -0.77937 1.06066 -1.06066 
C 0.77937 -1.341951 0.397805 -1.5 0 -1.5 
C -0.397805 -1.5 -0.77937 -1.341951 -1.06066 -1.06066 
C -1.341951 -0.77937 -1.5 -0.397805 -1.5 0 
C -1.5 0.397805 -1.341951 0.77937 -1.06066 1.06066 
C -0.77937 1.341951 -0.397805 1.5 0 1.5 
z
" id="mec55716405" style="stroke:#ff00ff;"/>
    </defs>
    <g>
     <use style="fill:#ff00ff;stroke:#ff00ff;" x="258.018628" xlink:href="#mec55716405" y="178.477139"/>
     <use style="fill:#ff00ff;stroke:#ff00ff;" x="258.018628" xlink:href="#mec55716405" y="178.477139"/>
    </g>
   </g>
   <g id="line2d_35">
    <path d="M 29.53256 298.944 
L 29.53256 294.354786 
L 41.620548 294.354786 
L 41.620548 290.912876 
L 48.691568 290.912876 
L 48.691568 288.618269 
L 53.708537 288.618269 
L 53.708537 288.044617 
L 57.6 288.044617 
L 57.6 285.75001 
L 63.467834 285.75001 
L 63.467834 284.602707 
L 71.35013 284.602707 
L 71.35013 282.881752 
L 72.867545 282.881752 
L 72.867545 281.734448 
L 75.555822 281.734448 
L 75.555822 280.587145 
L 77.884514 280.587145 
L 77.884514 278.86619 
L 79.938565 278.86619 
L 79.938565 277.145235 
L 82.626842 277.145235 
L 82.626842 276.571583 
L 89.418828 276.571583 
L 89.418828 275.997931 
L 91.029752 275.997931 
L 91.029752 275.42428 
L 92.504372 275.42428 
L 92.504372 274.850628 
L 97.043522 274.850628 
L 97.043522 274.276976 
L 97.403108 274.276976 
L 97.403108 273.703324 
L 100.641881 273.703324 
L 100.641881 273.129673 
L 103.117741 273.129673 
L 103.117741 272.556021 
L 103.870632 272.556021 
L 103.870632 271.982369 
L 106.593963 271.982369 
L 106.593963 271.408718 
L 106.802819 271.408718 
L 106.802819 270.835066 
L 113.022974 270.835066 
L 113.022974 270.261414 
L 114.685115 270.261414 
L 114.685115 269.687762 
L 116.081002 269.687762 
L 116.081002 269.114111 
L 118.681952 269.114111 
L 118.681952 267.966807 
L 119.996839 267.966807 
L 119.996839 267.393156 
L 122.615387 267.393156 
L 122.615387 266.819504 
L 126.439646 266.819504 
L 126.439646 266.245852 
L 138.187677 266.245852 
L 138.187677 265.6722 
L 139.090775 265.6722 
L 139.090775 265.098549 
L 143.47714 265.098549 
L 143.47714 264.524897 
L 145.463466 264.524897 
L 145.463466 263.951245 
L 149.122675 263.951245 
L 149.122675 263.377593 
L 150.66605 263.377593 
L 150.66605 262.803942 
L 151.243836 262.803942 
L 151.243836 262.23029 
L 154.972161 262.23029 
L 154.972161 261.656638 
L 156.442528 261.656638 
L 156.442528 261.082987 
L 158.358103 261.082987 
L 158.358103 260.509335 
L 159.648178 260.509335 
L 159.648178 259.935683 
L 160.547209 259.935683 
L 160.547209 259.362031 
L 163.053576 259.362031 
L 163.070067 258.214728 
L 164.757663 258.214728 
L 164.757663 257.641076 
L 165.010195 257.641076 
L 165.010195 257.067425 
L 165.810071 257.067425 
L 165.810071 256.493773 
L 166.412321 256.493773 
L 166.412321 255.920121 
L 167.659453 255.920121 
L 167.659453 255.346469 
L 168.171308 255.346469 
L 168.171308 254.772818 
L 168.518461 254.772818 
L 168.518461 254.199166 
L 168.870661 254.199166 
L 168.870661 253.625514 
L 169.023638 253.625514 
L 169.023638 252.478211 
L 169.87534 252.478211 
L 169.87534 251.904559 
L 170.830561 251.904559 
L 170.830561 251.330907 
L 171.625505 251.330907 
L 171.625505 250.757256 
L 171.975201 250.757256 
L 171.975201 249.609952 
L 172.098413 249.609952 
L 172.142557 247.888997 
L 172.351938 247.888997 
L 172.351938 247.315345 
L 172.582734 247.315345 
L 172.582734 246.741694 
L 172.701741 246.741694 
L 172.701741 246.168042 
L 172.942027 246.168042 
L 172.942027 245.59439 
L 173.053967 245.59439 
L 173.053967 244.447087 
L 174.395768 244.447087 
L 174.395768 243.299783 
L 178.07326 243.299783 
L 178.07326 242.726132 
L 178.339672 242.726132 
L 178.428718 239.857873 
L 178.923793 239.857873 
L 178.923793 239.284221 
L 179.889391 239.284221 
L 179.889391 238.71057 
L 180.04577 238.71057 
L 180.04577 238.136918 
L 180.582312 238.136918 
L 180.65763 236.989614 
L 182.442052 236.989614 
L 182.442052 235.842311 
L 183.042224 235.842311 
L 183.115487 234.695008 
L 183.172836 234.695008 
L 183.24037 233.547704 
L 183.441416 233.547704 
L 183.441416 232.974052 
L 183.622426 232.974052 
L 183.622426 232.400401 
L 184.30631 232.400401 
L 184.30631 231.826749 
L 184.550897 231.826749 
L 184.608516 230.679446 
L 184.668334 230.679446 
L 184.727947 229.532142 
L 185.432425 229.532142 
L 185.432425 228.95849 
L 185.657304 228.95849 
L 185.711387 227.811187 
L 186.100747 227.811187 
L 186.100747 227.237535 
L 186.58891 227.237535 
L 186.58891 226.663884 
L 186.85432 226.663884 
L 186.85432 226.090232 
L 187.065861 226.090232 
L 187.065861 225.51658 
L 187.491556 225.51658 
L 187.491556 224.369277 
L 187.727648 224.369277 
L 187.727648 223.795625 
L 188.559319 223.795625 
L 188.559319 222.648321 
L 189.169573 222.648321 
L 189.169573 222.07467 
L 189.579885 222.07467 
L 189.579885 221.501018 
L 190.629076 221.501018 
L 190.629076 220.927366 
L 190.755895 220.927366 
L 190.755895 220.353715 
L 191.417117 220.353715 
L 191.498034 219.206411 
L 191.6987 219.206411 
L 191.6987 218.632759 
L 191.93649 218.632759 
L 191.93649 218.059108 
L 193.76587 218.059108 
L 193.76587 217.485456 
L 193.977241 217.485456 
L 193.977241 216.911804 
L 194.358223 216.911804 
L 194.358223 216.338153 
L 196.332 216.338153 
L 196.332 215.764501 
L 197.399972 215.764501 
L 197.399972 214.617197 
L 197.744164 214.617197 
L 197.744164 214.043546 
L 198.049565 214.043546 
L 198.132538 212.896242 
L 199.254525 212.896242 
L 199.254525 211.748939 
L 199.588684 211.748939 
L 199.588684 211.175287 
L 200.502431 211.175287 
L 200.502431 210.601635 
L 200.694063 210.601635 
L 200.694063 210.027984 
L 200.836418 210.027984 
L 200.836418 209.454332 
L 202.609819 209.454332 
L 202.609819 208.88068 
L 202.989848 208.88068 
L 202.989848 208.307029 
L 203.443356 208.307029 
L 203.484005 207.159725 
L 203.82575 207.159725 
L 203.82575 206.586073 
L 204.141387 206.586073 
L 204.141387 206.012422 
L 205.836128 206.012422 
L 205.836128 205.43877 
L 207.732972 205.43877 
L 207.732972 204.865118 
L 207.875588 204.865118 
L 207.875588 204.291467 
L 208.55651 204.291467 
L 208.55651 203.717815 
L 209.602114 203.717815 
L 209.602114 203.144163 
L 210.261315 203.144163 
L 210.261315 202.570511 
L 210.84387 202.570511 
L 210.84387 201.99686 
L 212.002058 201.99686 
L 212.002058 200.275904 
L 212.686978 200.275904 
L 212.686978 199.702253 
L 213.618799 199.702253 
L 213.618799 197.981298 
L 213.810747 197.981298 
L 213.810747 197.407646 
L 214.210381 197.407646 
L 214.254225 196.260342 
L 214.363354 196.260342 
L 214.363354 195.686691 
L 216.091987 195.686691 
L 216.18004 193.965736 
L 216.900163 193.965736 
L 216.900163 193.392084 
L 221.481308 193.392084 
L 221.481308 192.818432 
L 222.273162 192.818432 
L 222.273162 192.24478 
L 224.441241 192.24478 
L 224.441241 191.671129 
L 225.842274 191.671129 
L 225.892895 190.523825 
L 226.138284 190.523825 
L 226.138284 189.950174 
L 227.475695 189.950174 
L 227.475695 189.376522 
L 228.159668 189.376522 
L 228.159668 188.80287 
L 228.438543 188.80287 
L 228.438543 188.229218 
L 229.27733 188.229218 
L 229.318727 186.508263 
L 231.542673 186.508263 
L 231.542673 185.934612 
L 233.616104 185.934612 
L 233.616104 185.36096 
L 234.563735 185.36096 
L 234.563735 184.787308 
L 235.54344 184.787308 
L 235.54344 184.213656 
L 235.977209 184.213656 
L 235.977209 183.640005 
L 236.155849 183.640005 
L 236.155849 183.066353 
L 236.726368 183.066353 
L 236.726368 181.91905 
L 241.909241 181.91905 
L 241.909241 181.345398 
L 245.58277 181.345398 
L 245.58277 180.771746 
L 247.426711 180.771746 
L 247.426711 180.198094 
L 254.32586 180.198094 
L 254.32586 179.624443 
L 256.32433 179.624443 
L 256.32433 179.050791 
L 258.018628 179.050791 
L 258.018628 178.477139 
L 338.688 178.477139 
L 338.688 178.477139 
" style="fill:none;stroke:#ff00ff;stroke-linecap:square;stroke-width:1.5;"/>
   </g>
   <g id="line2d_36">
    <defs>
     <path d="M 0 8.485281 
L 5.091169 0 
L 0 -8.485281 
L -5.091169 0 
z
" id="mae42b27d6e" style="stroke:#ff00ff;stroke-linejoin:miter;stroke-width:1.5;"/>
    </defs>
    <g>
     <use style="fill-opacity:0;stroke:#ff00ff;stroke-linejoin:miter;stroke-width:1.5;" x="106.802819" xlink:href="#mae42b27d6e" y="270.835066"/>
     <use style="fill-opacity:0;stroke:#ff00ff;stroke-linejoin:miter;stroke-width:1.5;" x="172.582734" xlink:href="#mae42b27d6e" y="246.741694"/>
     <use style="fill-opacity:0;stroke:#ff00ff;stroke-linejoin:miter;stroke-width:1.5;" x="226.138284" xlink:href="#mae42b27d6e" y="190.523825"/>
     <use style="fill-opacity:0;stroke:#ff00ff;stroke-linejoin:miter;stroke-width:1.5;" x="258.018628" xlink:href="#mae42b27d6e" y="178.477139"/>
     <use style="fill-opacity:0;stroke:#ff00ff;stroke-linejoin:miter;stroke-width:1.5;" x="258.018628" xlink:href="#mae42b27d6e" y="178.477139"/>
     <use style="fill-opacity:0;stroke:#ff00ff;stroke-linejoin:miter;stroke-width:1.5;" x="338.688" xlink:href="#mae42b27d6e" y="178.477139"/>
    </g>
   </g>
   <g id="line2d_37">
    <path style="fill:none;stroke:#ff00ff;stroke-linecap:square;stroke-width:1.5;"/>
    <g/>
   </g>
   <g id="line2d_38">
    <path clip-path="url(#p2ab9eefd80)" d="M 218.221714 193.392084 
" style="fill:none;stroke:#ff00ff;stroke-linecap:square;stroke-width:1.5;"/>
    <defs>
     <path d="M -12 12 
L 12 -12 
M -12 -12 
L 12 12 
" id="mf089a617e7" style="stroke:#ff00ff;"/>
    </defs>
    <g clip-path="url(#p2ab9eefd80)">
     <use style="fill:#ff00ff;stroke:#ff00ff;" x="218.221714" xlink:href="#mf089a617e7" y="193.392084"/>
    </g>
   </g>
   <g id="line2d_39">
    <defs>
     <path d="M 0 1.5 
C 0.397805 1.5 0.77937 1.341951 1.06066 1.06066 
C 1.341951 0.77937 1.5 0.397805 1.5 0 
C 1.5 -0.397805 1.341951 -0.77937 1.06066 -1.06066 
C 0.77937 -1.341951 0.397805 -1.5 0 -1.5 
C -0.397805 -1.5 -0.77937 -1.341951 -1.06066 -1.06066 
C -1.341951 -0.77937 -1.5 -0.397805 -1.5 0 
C -1.5 0.397805 -1.341951 0.77937 -1.06066 1.06066 
C -0.77937 1.341951 -0.397805 1.5 0 1.5 
z
" id="m7d9e88c419" style="stroke:#ff7500;"/>
    </defs>
    <g>
     <use style="fill:#ff7500;stroke:#ff7500;" x="210.136999" xlink:href="#m7d9e88c419" y="6.381624"/>
     <use style="fill:#ff7500;stroke:#ff7500;" x="210.136999" xlink:href="#m7d9e88c419" y="6.381624"/>
    </g>
   </g>
   <g id="line2d_40">
    <path d="M 29.53256 298.944 
L 29.53256 282.3081 
L 41.620548 282.3081 
L 41.620548 277.718886 
L 48.691568 277.718886 
L 48.691568 273.703324 
L 53.708537 273.703324 
L 53.708537 271.982369 
L 57.6 271.982369 
L 57.6 270.835066 
L 60.779557 270.835066 
L 60.779557 269.687762 
L 63.467834 269.687762 
L 63.467834 266.819504 
L 69.687988 266.819504 
L 69.687988 266.245852 
L 72.867545 266.245852 
L 72.867545 264.524897 
L 84.213325 264.524897 
L 84.213325 263.951245 
L 86.351421 263.951245 
L 86.351421 263.377593 
L 87.009585 263.377593 
L 87.009585 262.803942 
L 87.643811 262.803942 
L 87.643811 262.23029 
L 92.969447 262.23029 
L 92.969447 261.656638 
L 93.422441 261.656638 
L 93.422441 261.082987 
L 94.294587 261.082987 
L 94.294587 260.509335 
L 97.755429 260.509335 
L 97.755429 259.935683 
L 99.097574 259.935683 
L 99.097574 258.214728 
L 99.41757 258.214728 
L 99.41757 257.641076 
L 105.057436 257.641076 
L 105.057436 257.067425 
L 105.51043 257.067425 
L 105.51043 256.493773 
L 105.732589 256.493773 
L 105.732589 255.920121 
L 107.614095 255.920121 
L 107.614095 254.772818 
L 110.016944 254.772818 
L 110.016944 254.199166 
L 110.527398 254.199166 
L 110.527398 253.051863 
L 111.974805 253.051863 
L 111.974805 251.904559 
L 115.33349 251.904559 
L 115.33349 251.330907 
L 115.460322 251.330907 
L 115.460322 250.183604 
L 115.586238 250.183604 
L 115.586238 249.609952 
L 117.259781 249.609952 
L 117.259781 249.036301 
L 118.994305 249.036301 
L 118.994305 248.462649 
L 120.286695 248.462649 
L 120.286695 247.888997 
L 122.276749 247.888997 
L 122.276749 247.315345 
L 123.514096 247.315345 
L 123.514096 246.741694 
L 126.168212 246.741694 
L 126.168212 246.168042 
L 130.45189 246.168042 
L 130.558552 245.020738 
L 131.236397 245.020738 
L 131.236397 244.447087 
L 132.278599 244.447087 
L 132.278599 243.299783 
L 133.032848 243.299783 
L 133.032848 242.726132 
L 133.622529 242.726132 
L 133.622529 242.15248 
L 134.450015 242.15248 
L 134.450015 241.578828 
L 136.112156 241.578828 
L 136.112156 241.005176 
L 136.266147 241.005176 
L 136.266147 239.284221 
L 136.68274 239.284221 
L 136.68274 238.71057 
L 137.945701 238.71057 
L 138.049816 236.989614 
L 139.887228 236.989614 
L 139.887228 236.415963 
L 140.226464 236.415963 
L 140.226464 235.842311 
L 141.119455 235.842311 
L 141.177393 234.121356 
L 141.634094 234.121356 
L 141.634094 233.547704 
L 141.830201 233.547704 
L 141.858037 232.400401 
L 141.996555 232.400401 
L 141.996555 231.826749 
L 142.51311 231.826749 
L 142.51311 231.253097 
L 143.728793 231.253097 
L 143.803587 230.105794 
L 143.853271 230.105794 
L 143.853271 229.532142 
L 144.462672 229.532142 
L 144.462672 228.95849 
L 145.643486 228.95849 
L 145.643486 228.384839 
L 146.345539 228.384839 
L 146.345539 227.811187 
L 147.185137 227.811187 
L 147.185137 227.237535 
L 148.200145 227.237535 
L 148.258051 226.090232 
L 148.770728 226.090232 
L 148.770728 225.51658 
L 149.682079 225.51658 
L 149.788308 224.369277 
L 150.033689 224.369277 
L 150.033689 223.795625 
L 150.632448 223.795625 
L 150.632448 223.221973 
L 150.965587 223.221973 
L 151.031458 222.07467 
L 151.097081 222.07467 
L 151.097081 221.501018 
L 151.292481 221.501018 
L 151.292481 220.927366 
L 152.466496 220.927366 
L 152.466496 220.353715 
L 152.870513 220.353715 
L 152.870513 219.780063 
L 153.279836 219.780063 
L 153.279836 219.206411 
L 153.848404 219.206411 
L 153.848404 218.632759 
L 154.68128 218.632759 
L 154.68128 217.485456 
L 155.050658 217.485456 
L 155.050658 216.911804 
L 155.296925 216.911804 
L 155.386785 215.190849 
L 155.590458 215.190849 
L 155.666226 214.043546 
L 155.953659 214.043546 
L 155.990803 212.896242 
L 156.212023 212.896242 
L 156.285144 211.175287 
L 156.49067 211.175287 
L 156.49067 210.601635 
L 156.812195 210.601635 
L 156.812195 210.027984 
L 157.277891 210.027984 
L 157.277891 209.454332 
L 157.652944 209.454332 
L 157.652944 208.88068 
L 157.953917 208.88068 
L 157.953917 208.307029 
L 158.206267 208.307029 
L 158.206267 207.159725 
L 158.921223 207.159725 
L 158.921223 206.586073 
L 159.046236 206.586073 
L 159.046236 204.865118 
L 159.877318 204.865118 
L 159.877318 204.291467 
L 160.074152 204.291467 
L 160.074152 203.717815 
L 160.877419 203.717815 
L 160.877419 203.144163 
L 161.429341 203.144163 
L 161.456484 201.99686 
L 161.654251 201.99686 
L 161.654251 201.423208 
L 161.876297 201.423208 
L 161.893939 200.275904 
L 162.38081 200.275904 
L 162.38081 199.702253 
L 162.770815 199.702253 
L 162.770815 199.128601 
L 162.946002 199.128601 
L 162.946002 198.554949 
L 163.061823 198.554949 
L 163.086542 197.407646 
L 163.201437 197.407646 
L 163.201437 196.833994 
L 163.356164 196.833994 
L 163.380469 195.686691 
L 163.953867 195.686691 
L 163.969529 194.539387 
L 165.273656 194.539387 
L 165.273656 193.965736 
L 165.454301 193.965736 
L 165.504548 192.818432 
L 165.929399 192.818432 
L 165.985272 191.671129 
L 166.165632 191.671129 
L 166.200103 190.523825 
L 166.378267 190.523825 
L 166.378267 189.950174 
L 166.875605 189.950174 
L 166.875605 189.376522 
L 167.177763 189.376522 
L 167.177763 188.229218 
L 167.352708 188.229218 
L 167.352708 187.655567 
L 167.487573 187.655567 
L 167.487573 187.081915 
L 167.817104 187.081915 
L 167.817104 186.508263 
L 167.973343 186.508263 
L 168.004423 184.787308 
L 168.31222 184.787308 
L 168.31222 184.213656 
L 168.482242 184.213656 
L 168.572648 182.492701 
L 169.093793 182.492701 
L 169.169476 180.771746 
L 169.331381 180.771746 
L 169.331381 180.198094 
L 169.508896 180.198094 
L 169.508896 179.050791 
L 169.73531 179.050791 
L 169.73531 178.477139 
L 169.897641 178.477139 
L 170.008719 177.329836 
L 170.451489 177.329836 
L 170.451489 176.756184 
L 170.724611 176.756184 
L 170.724611 176.182532 
L 170.841121 176.182532 
L 170.841121 175.035229 
L 170.967341 175.035229 
L 170.967341 174.461577 
L 171.113451 174.461577 
L 171.217072 173.314274 
L 171.248038 173.314274 
L 171.248038 172.740622 
L 171.53951 172.740622 
L 171.53951 172.16697 
L 171.861073 172.16697 
L 171.861073 171.593319 
L 172.108232 171.593319 
L 172.108232 171.019667 
L 172.240256 171.019667 
L 172.240256 169.872363 
L 172.366452 169.872363 
L 172.366452 169.298712 
L 172.635197 169.298712 
L 172.706485 168.151408 
L 173.3124 168.151408 
L 173.3124 167.577757 
L 173.512801 167.577757 
L 173.548992 165.856801 
L 173.858056 165.856801 
L 173.858056 165.28315 
L 174.292142 165.28315 
L 174.335394 163.562195 
L 174.515891 163.562195 
L 174.579904 162.414891 
L 174.656411 162.414891 
L 174.673367 160.693936 
L 175.02984 160.693936 
L 175.116798 159.546632 
L 175.153934 159.546632 
L 175.207435 157.252026 
L 175.440098 157.252026 
L 175.480598 156.104722 
L 175.745565 156.104722 
L 175.749548 154.957419 
L 176.057518 154.957419 
L 176.135616 153.810115 
L 176.170646 153.810115 
L 176.170646 152.662812 
L 176.425408 152.662812 
L 176.425408 152.08916 
L 176.78945 152.08916 
L 176.78945 151.515508 
L 177.009472 151.515508 
L 177.109241 148.64725 
L 177.179109 148.64725 
L 177.201114 147.499946 
L 177.368906 147.499946 
L 177.470256 145.778991 
L 177.894538 145.778991 
L 177.894538 145.20534 
L 178.069773 145.20534 
L 178.10809 143.484384 
L 178.329368 143.484384 
L 178.415048 141.763429 
L 178.452615 141.763429 
L 178.452615 141.189778 
L 178.59531 141.189778 
L 178.59531 140.616126 
L 178.767027 140.616126 
L 178.847254 139.468822 
L 179.085744 139.468822 
L 179.102185 138.321519 
L 179.414889 138.321519 
L 179.434248 136.026912 
L 179.553156 136.026912 
L 179.553156 134.879609 
L 180.070661 134.879609 
L 180.070661 134.305957 
L 180.20076 134.305957 
L 180.228512 131.437698 
L 180.369672 131.437698 
L 180.461121 129.143091 
L 180.530908 129.143091 
L 180.530908 128.56944 
L 180.663642 128.56944 
L 180.732625 126.274833 
L 181.178864 126.274833 
L 181.248749 125.127529 
L 181.324143 125.127529 
L 181.410734 123.980226 
L 181.599733 123.980226 
L 181.687803 120.538316 
L 181.733085 120.538316 
L 181.828921 119.391012 
L 181.86262 119.391012 
L 181.968906 117.096405 
L 182.041257 117.096405 
L 182.132657 114.801798 
L 182.598749 114.801798 
L 182.601439 113.654495 
L 182.791332 113.654495 
L 182.852407 111.359888 
L 182.976549 111.359888 
L 183.044846 109.638933 
L 183.366939 109.638933 
L 183.413203 107.917978 
L 183.576714 107.917978 
L 183.675606 106.770674 
L 183.728625 106.770674 
L 183.824155 104.476068 
L 183.8442 104.476068 
L 183.8442 103.902416 
L 184.169204 103.902416 
L 184.235443 102.755112 
L 184.340418 102.755112 
L 184.408436 101.034157 
L 184.493087 101.034157 
L 184.493087 100.460506 
L 184.608516 100.460506 
L 184.608516 99.886854 
L 184.818171 99.886854 
L 184.926769 98.73955 
L 185.027676 98.73955 
L 185.069743 97.592247 
L 185.15822 97.592247 
L 185.267035 95.29764 
L 185.30853 95.29764 
L 185.388932 93.003033 
L 185.489487 93.003033 
L 185.54182 91.282078 
L 185.722633 91.282078 
L 185.792197 87.840168 
L 185.839164 87.840168 
L 185.917162 86.692864 
L 185.990385 86.692864 
L 186.023567 85.545561 
L 186.168822 85.545561 
L 186.275886 82.677302 
L 186.282419 82.677302 
L 186.377965 79.235392 
L 186.440654 79.235392 
L 186.535339 77.514437 
L 186.74864 77.514437 
L 186.80156 76.367133 
L 186.92372 76.367133 
L 187.030434 72.925223 
L 187.076266 72.925223 
L 187.175849 70.056964 
L 187.22749 70.056964 
L 187.22749 68.909661 
L 187.342615 68.909661 
L 187.342615 68.336009 
L 187.461055 68.336009 
L 187.554422 66.041402 
L 187.627145 66.041402 
L 187.627145 65.467751 
L 187.799654 65.467751 
L 187.829568 64.320447 
L 187.919006 64.320447 
L 187.976401 63.173144 
L 188.098479 63.173144 
L 188.155287 62.02584 
L 188.225552 62.02584 
L 188.272238 60.878537 
L 188.415406 60.878537 
L 188.51148 59.157582 
L 188.658406 59.157582 
L 188.709634 57.436627 
L 188.822938 57.436627 
L 188.888693 56.289323 
L 189.032489 56.289323 
L 189.110426 53.994716 
L 189.145569 53.994716 
L 189.189859 52.847413 
L 189.407819 52.847413 
L 189.473223 49.979154 
L 189.534769 49.979154 
L 189.639261 47.684547 
L 189.805512 47.684547 
L 189.84816 45.963592 
L 189.963142 45.963592 
L 190.054586 43.095334 
L 190.077372 43.095334 
L 190.077372 42.521682 
L 190.199557 42.521682 
L 190.203036 41.374379 
L 190.329527 41.374379 
L 190.374358 40.227075 
L 190.615494 40.227075 
L 190.646038 39.079772 
L 190.885144 39.079772 
L 190.940245 37.358817 
L 191.054895 37.358817 
L 191.13421 36.211513 
L 191.175377 36.211513 
L 191.175377 35.637861 
L 191.316255 35.637861 
L 191.378143 34.490558 
L 191.779913 34.490558 
L 191.818001 32.769603 
L 191.897083 32.769603 
L 191.897083 32.195951 
L 192.024441 32.195951 
L 192.099476 31.048648 
L 192.325742 31.048648 
L 192.325742 30.474996 
L 192.462244 30.474996 
L 192.472935 29.327692 
L 192.640081 29.327692 
L 192.646129 28.180389 
L 192.875903 28.180389 
L 192.878887 27.033086 
L 193.256637 27.033086 
L 193.262475 25.885782 
L 193.696264 25.885782 
L 193.696264 25.31213 
L 193.862009 25.31213 
L 193.862009 24.738479 
L 194.25652 24.738479 
L 194.32393 23.591175 
L 195.067169 23.591175 
L 195.067169 23.017524 
L 195.815353 23.017524 
L 195.815353 22.443872 
L 196.025845 22.443872 
L 196.025845 21.87022 
L 197.399972 21.87022 
L 197.399972 21.296568 
L 199.488903 21.296568 
L 199.537847 20.149265 
L 203.367496 20.149265 
L 203.367496 19.575613 
L 203.616673 19.575613 
L 203.616673 19.001962 
L 203.829731 19.001962 
L 203.905989 17.854658 
L 204.064583 17.854658 
L 204.064583 17.281006 
L 204.183564 17.281006 
L 204.27227 16.133703 
L 204.446035 16.133703 
L 204.517355 14.412748 
L 204.661403 14.412748 
L 204.661403 13.839096 
L 204.904112 13.839096 
L 204.909351 12.691793 
L 205.147918 12.691793 
L 205.147918 12.118141 
L 205.261222 12.118141 
L 205.35557 10.970838 
L 205.549962 10.970838 
L 205.611886 9.249882 
L 209.588958 9.249882 
L 209.588958 8.676231 
L 209.73653 8.676231 
L 209.837795 7.528927 
L 209.956973 7.528927 
L 209.956973 6.955275 
L 210.136999 6.955275 
L 210.136999 6.381624 
L 338.688 6.381624 
L 338.688 6.381624 
" style="fill:none;stroke:#ff7500;stroke-linecap:square;stroke-width:1.5;"/>
   </g>
   <g id="line2d_41">
    <defs>
     <path d="M 0 -6 
L -1.347084 -1.854102 
L -5.706339 -1.854102 
L -2.179628 0.708204 
L -3.526712 4.854102 
L -0 2.291796 
L 3.526712 4.854102 
L 2.179628 0.708204 
L 5.706339 -1.854102 
L 1.347084 -1.854102 
z
" id="md51d22cd24" style="stroke:#ff7500;stroke-linejoin:bevel;stroke-width:1.5;"/>
    </defs>
    <g>
     <use style="fill-opacity:0;stroke:#ff7500;stroke-linejoin:bevel;stroke-width:1.5;" x="136.68274" xlink:href="#md51d22cd24" y="239.284221"/>
     <use style="fill-opacity:0;stroke:#ff7500;stroke-linejoin:bevel;stroke-width:1.5;" x="181.968906" xlink:href="#md51d22cd24" y="117.096405"/>
     <use style="fill-opacity:0;stroke:#ff7500;stroke-linejoin:bevel;stroke-width:1.5;" x="210.136999" xlink:href="#md51d22cd24" y="6.955275"/>
     <use style="fill-opacity:0;stroke:#ff7500;stroke-linejoin:bevel;stroke-width:1.5;" x="210.136999" xlink:href="#md51d22cd24" y="6.381624"/>
     <use style="fill-opacity:0;stroke:#ff7500;stroke-linejoin:bevel;stroke-width:1.5;" x="210.136999" xlink:href="#md51d22cd24" y="6.381624"/>
     <use style="fill-opacity:0;stroke:#ff7500;stroke-linejoin:bevel;stroke-width:1.5;" x="338.688" xlink:href="#md51d22cd24" y="6.381624"/>
    </g>
   </g>
   <g id="line2d_42">
    <path style="fill:none;stroke:#ff7500;stroke-linecap:square;stroke-width:1.5;"/>
    <g/>
   </g>
   <g id="line2d_43">
    <defs>
     <path d="M 0 1.5 
C 0.397805 1.5 0.77937 1.341951 1.06066 1.06066 
C 1.341951 0.77937 1.5 0.397805 1.5 0 
C 1.5 -0.397805 1.341951 -0.77937 1.06066 -1.06066 
C 0.77937 -1.341951 0.397805 -1.5 0 -1.5 
C -0.397805 -1.5 -0.77937 -1.341951 -1.06066 -1.06066 
C -1.341951 -0.77937 -1.5 -0.397805 -1.5 0 
C -1.5 0.397805 -1.341951 0.77937 -1.06066 1.06066 
C -0.77937 1.341951 -0.397805 1.5 0 1.5 
z
" id="m8c7af73c6d" style="stroke:#6495ed;"/>
    </defs>
    <g>
     <use style="fill:#6495ed;stroke:#6495ed;" x="236.717916" xlink:href="#m8c7af73c6d" y="6.381624"/>
     <use style="fill:#6495ed;stroke:#6495ed;" x="236.717916" xlink:href="#m8c7af73c6d" y="6.381624"/>
    </g>
   </g>
   <g id="line2d_44">
    <path d="M 29.53256 298.944 
L 29.53256 294.928438 
L 41.620548 294.928438 
L 41.620548 293.207483 
L 48.691568 293.207483 
L 48.691568 291.486528 
L 53.708537 291.486528 
L 53.708537 288.618269 
L 57.6 288.618269 
L 57.6 288.044617 
L 60.779557 288.044617 
L 60.779557 286.897314 
L 63.467834 286.897314 
L 63.467834 285.75001 
L 65.796525 285.75001 
L 65.796525 285.176359 
L 67.850577 285.176359 
L 67.850577 284.602707 
L 71.35013 284.602707 
L 71.35013 284.029055 
L 80.881459 284.029055 
L 80.881459 283.455404 
L 86.351421 283.455404 
L 86.351421 282.881752 
L 87.009585 282.881752 
L 87.009585 281.160797 
L 87.643811 281.160797 
L 87.643811 280.587145 
L 96.301313 280.587145 
L 96.301313 280.013493 
L 98.771596 280.013493 
L 98.771596 279.439842 
L 99.731799 279.439842 
L 99.731799 278.86619 
L 105.057436 278.86619 
L 105.057436 278.292538 
L 105.951954 278.292538 
L 105.951954 277.718886 
L 106.168594 277.718886 
L 106.168594 277.145235 
L 106.593963 277.145235 
L 106.593963 276.571583 
L 110.016944 276.571583 
L 110.016944 275.997931 
L 110.188761 275.997931 
L 110.188761 275.42428 
L 111.505558 275.42428 
L 111.505558 274.850628 
L 112.72987 274.850628 
L 112.72987 274.276976 
L 114.947365 274.276976 
L 114.947365 273.703324 
L 115.586238 273.703324 
L 115.586238 272.556021 
L 115.711251 272.556021 
L 115.711251 271.982369 
L 117.259781 271.982369 
L 117.259781 271.408718 
L 117.373392 271.408718 
L 117.373392 270.835066 
L 119.80089 270.835066 
L 119.80089 270.261414 
L 120.852343 270.261414 
L 120.852343 269.687762 
L 121.036887 269.687762 
L 121.036887 269.114111 
L 122.104932 269.114111 
L 122.104932 268.540459 
L 122.44689 268.540459 
L 122.531342 267.393156 
L 124.444412 267.393156 
L 124.444412 266.819504 
L 125.752972 266.819504 
L 125.752972 266.245852 
L 126.030894 266.245852 
L 126.099688 265.098549 
L 127.54831 265.098549 
L 127.54831 264.524897 
L 127.736845 264.524897 
L 127.736845 263.377593 
L 128.650105 263.377593 
L 128.650105 262.803942 
L 131.236397 262.803942 
L 131.236397 262.23029 
L 131.839545 262.23029 
L 131.938072 261.082987 
L 132.470242 261.082987 
L 132.470242 260.509335 
L 133.216421 260.509335 
L 133.307488 259.362031 
L 133.57787 259.362031 
L 133.57787 258.78838 
L 134.019394 258.78838 
L 134.019394 257.641076 
L 134.149701 257.641076 
L 134.149701 257.067425 
L 134.534878 257.067425 
L 134.534878 256.493773 
L 135.158519 256.493773 
L 135.158519 255.920121 
L 136.112156 255.920121 
L 136.112156 255.346469 
L 137.126135 255.346469 
L 137.162581 254.199166 
L 137.37967 254.199166 
L 137.37967 253.051863 
L 138.794909 253.051863 
L 138.794909 252.478211 
L 140.438956 252.478211 
L 140.438956 251.904559 
L 141.435758 251.904559 
L 141.435758 251.330907 
L 142.857929 251.330907 
L 142.857929 250.757256 
L 143.11861 250.757256 
L 143.11861 250.183604 
L 143.728793 250.183604 
L 143.728793 249.609952 
L 144.124035 249.609952 
L 144.124035 249.036301 
L 144.414696 249.036301 
L 144.414696 248.462649 
L 146.150926 248.462649 
L 146.150926 247.888997 
L 146.559258 247.888997 
L 146.559258 247.315345 
L 146.686244 247.315345 
L 146.707319 246.168042 
L 147.388869 246.168042 
L 147.388869 245.59439 
L 148.658095 245.59439 
L 148.658095 244.447087 
L 150.033689 244.447087 
L 150.033689 243.873435 
L 150.632448 243.873435 
L 150.632448 243.299783 
L 150.799813 243.299783 
L 150.799813 242.726132 
L 151.080698 242.726132 
L 151.080698 242.15248 
L 151.676833 242.15248 
L 151.676833 240.431525 
L 152.677155 240.431525 
L 152.677155 239.857873 
L 153.221946 239.857873 
L 153.221946 239.284221 
L 153.904255 239.284221 
L 153.932113 238.136918 
L 155.024532 238.136918 
L 155.076745 236.989614 
L 155.565128 236.989614 
L 155.565128 236.415963 
L 155.678822 236.415963 
L 155.678822 235.842311 
L 157.081488 235.842311 
L 157.116308 234.695008 
L 157.220355 234.695008 
L 157.266399 233.547704 
L 157.460743 233.547704 
L 157.460743 232.400401 
L 157.9318 232.400401 
L 157.9318 231.826749 
L 159.07735 231.826749 
L 159.17036 230.679446 
L 159.283369 230.679446 
L 159.283369 230.105794 
L 159.51732 230.105794 
L 159.608019 228.95849 
L 159.788013 228.95849 
L 159.837683 227.237535 
L 160.259108 227.237535 
L 160.278464 226.090232 
L 160.403753 226.090232 
L 160.403753 225.51658 
L 160.623238 225.51658 
L 160.623238 224.942928 
L 160.746084 224.942928 
L 160.746084 224.369277 
L 161.007772 224.369277 
L 161.007772 223.795625 
L 161.228992 223.795625 
L 161.228992 223.221973 
L 161.920369 223.221973 
L 161.920369 222.648321 
L 162.104265 222.648321 
L 162.104265 222.07467 
L 162.312084 222.07467 
L 162.312084 221.501018 
L 162.440724 221.501018 
L 162.440724 220.927366 
L 162.559939 220.927366 
L 162.559939 220.353715 
L 162.779197 220.353715 
L 162.779197 219.780063 
L 163.412824 219.780063 
L 163.412824 218.632759 
L 163.557683 218.632759 
L 163.557683 218.059108 
L 163.701348 218.059108 
L 163.701348 217.485456 
L 164.607388 217.485456 
L 164.607388 216.911804 
L 164.906654 216.911804 
L 164.906654 216.338153 
L 165.55465 216.338153 
L 165.55465 215.764501 
L 165.760698 215.764501 
L 165.760698 215.190849 
L 166.330478 215.190849 
L 166.330478 214.617197 
L 166.7626 214.617197 
L 166.862349 213.469894 
L 166.908703 213.469894 
L 166.908703 212.896242 
L 167.171249 212.896242 
L 167.171249 212.322591 
L 167.506754 212.322591 
L 167.506754 211.748939 
L 168.27557 211.748939 
L 168.27557 211.175287 
L 168.452002 211.175287 
L 168.452002 210.601635 
L 168.734207 210.601635 
L 168.734207 210.027984 
L 169.017779 210.027984 
L 169.029495 208.88068 
L 169.186895 208.88068 
L 169.244833 207.733377 
L 169.45183 207.733377 
L 169.45183 207.159725 
L 169.836245 207.159725 
L 169.836245 206.586073 
L 170.014255 206.586073 
L 170.014255 206.012422 
L 170.152072 206.012422 
L 170.195944 204.865118 
L 170.288808 204.865118 
L 170.337772 203.717815 
L 170.692701 203.717815 
L 170.692701 203.144163 
L 170.925369 203.144163 
L 171.003983 201.423208 
L 171.113451 201.423208 
L 171.113451 200.849556 
L 171.61541 200.849556 
L 171.61541 199.702253 
L 172.004852 199.702253 
L 172.014724 198.554949 
L 172.22076 198.554949 
L 172.230511 197.407646 
L 172.616138 197.407646 
L 172.616138 196.260342 
L 172.866999 196.260342 
L 172.960734 194.539387 
L 173.058616 194.539387 
L 173.151329 192.818432 
L 173.737769 192.818432 
L 173.795789 191.097477 
L 173.866933 191.097477 
L 173.866933 190.523825 
L 174.083025 190.523825 
L 174.083025 189.950174 
L 174.562857 189.950174 
L 174.562857 189.376522 
L 175.166295 189.376522 
L 175.186877 188.229218 
L 175.350666 188.229218 
L 175.391374 185.36096 
L 175.817135 185.36096 
L 175.84885 183.640005 
L 176.143406 183.640005 
L 176.143406 183.066353 
L 176.317781 183.066353 
L 176.317781 182.492701 
L 176.486612 182.492701 
L 176.539989 180.198094 
L 176.634902 180.198094 
L 176.740595 177.903487 
L 176.781943 177.903487 
L 176.781943 177.329836 
L 177.153401 177.329836 
L 177.153401 176.756184 
L 177.455813 176.756184 
L 177.553068 174.461577 
L 177.728195 174.461577 
L 177.834554 172.16697 
L 177.894538 172.16697 
L 177.982376 171.019667 
L 178.010391 171.019667 
L 178.010391 170.446015 
L 178.308742 170.446015 
L 178.360262 169.298712 
L 178.425302 169.298712 
L 178.476478 168.151408 
L 178.608839 168.151408 
L 178.703252 167.004105 
L 178.760325 167.004105 
L 178.840583 164.709498 
L 178.900534 164.709498 
L 178.950337 163.562195 
L 179.033027 163.562195 
L 179.042924 162.414891 
L 179.440696 162.414891 
L 179.440696 161.841239 
L 179.591547 161.841239 
L 179.591547 161.267588 
L 179.737936 161.267588 
L 179.826445 160.120284 
L 179.851651 160.120284 
L 179.933319 157.252026 
L 179.995881 157.252026 
L 179.995881 156.678374 
L 180.135832 156.678374 
L 180.135832 155.53107 
L 180.345204 155.53107 
L 180.439826 154.383767 
L 180.585331 154.383767 
L 180.660636 152.08916 
L 180.699667 152.08916 
L 180.732625 150.941857 
L 180.976369 150.941857 
L 181.02059 149.794553 
L 181.091111 149.794553 
L 181.132117 147.499946 
L 181.237121 147.499946 
L 181.324143 144.058036 
L 181.619658 144.058036 
L 181.696302 142.337081 
L 181.806419 142.337081 
L 181.907451 139.468822 
L 181.924233 139.468822 
L 182.030146 135.45326 
L 182.193325 135.45326 
L 182.193325 134.879609 
L 182.488126 134.879609 
L 182.579912 133.158653 
L 182.78335 133.158653 
L 182.847104 132.01135 
L 182.92383 132.01135 
L 183.015983 130.864047 
L 183.138971 130.864047 
L 183.175438 129.716743 
L 183.250736 129.716743 
L 183.310225 127.995788 
L 183.41577 127.995788 
L 183.477257 125.127529 
L 183.612278 125.127529 
L 183.700873 123.980226 
L 183.728625 123.980226 
L 183.791533 122.259271 
L 184.003738 122.259271 
L 184.095309 117.670057 
L 184.203582 117.670057 
L 184.277021 115.949102 
L 184.337984 115.949102 
L 184.384175 114.801798 
L 184.517198 114.801798 
L 184.622891 113.080843 
L 184.634861 113.080843 
L 184.735087 111.93354 
L 184.770743 111.93354 
L 184.808696 110.212585 
L 184.886713 110.212585 
L 184.973775 106.197023 
L 185.048722 106.197023 
L 185.048722 105.623371 
L 185.317738 105.623371 
L 185.317738 105.049719 
L 185.704636 105.049719 
L 185.704636 104.476068 
L 185.894913 104.476068 
L 185.9926 102.181461 
L 186.085338 102.181461 
L 186.085338 101.607809 
L 186.230082 101.607809 
L 186.280242 98.73955 
L 186.432021 98.73955 
L 186.522458 95.871292 
L 186.573926 95.871292 
L 186.667893 94.723988 
L 186.864853 94.723988 
L 186.869065 93.003033 
L 187.011649 93.003033 
L 187.115752 91.85573 
L 187.128203 91.85573 
L 187.225427 88.987471 
L 187.241922 88.987471 
L 187.276922 87.840168 
L 187.406019 87.840168 
L 187.487492 84.398257 
L 187.554422 84.398257 
L 187.588801 82.677302 
L 187.729652 82.677302 
L 187.819603 79.809044 
L 187.875338 79.809044 
L 187.984303 78.66174 
L 187.994175 78.66174 
L 188.102403 75.793482 
L 188.106325 75.793482 
L 188.106325 75.21983 
L 188.229447 75.21983 
L 188.281949 73.498875 
L 188.355574 73.498875 
L 188.434663 72.351571 
L 188.469273 72.351571 
L 188.503814 71.204268 
L 188.626074 71.204268 
L 188.719104 68.336009 
L 188.813524 68.336009 
L 188.854907 66.041402 
L 189.165882 66.041402 
L 189.165882 65.467751 
L 189.327546 65.467751 
L 189.367728 64.320447 
L 189.444184 64.320447 
L 189.502213 63.173144 
L 189.588895 63.173144 
L 189.635668 60.304885 
L 189.773458 60.304885 
L 189.773458 59.731234 
L 189.888933 59.731234 
L 189.943737 58.58393 
L 190.028257 58.58393 
L 190.096629 55.14202 
L 190.234311 55.14202 
L 190.334706 52.273761 
L 190.38985 52.273761 
L 190.429377 51.126458 
L 190.698518 51.126458 
L 190.728918 49.405503 
L 191.028376 49.405503 
L 191.091292 47.110896 
L 191.195103 47.110896 
L 191.286863 45.963592 
L 191.436571 45.963592 
L 191.436571 45.389941 
L 191.618711 45.389941 
L 191.618711 44.816289 
L 191.741742 44.816289 
L 191.846512 42.521682 
L 191.975809 42.521682 
L 192.060435 41.374379 
L 192.212976 41.374379 
L 192.267132 39.653423 
L 192.453075 39.653423 
L 192.555189 38.50612 
L 193.083534 38.50612 
L 193.083534 37.932468 
L 193.487202 37.932468 
L 193.487202 36.785165 
L 193.728971 36.785165 
L 193.728971 36.211513 
L 194.194382 36.211513 
L 194.194382 35.637861 
L 195.23087 35.637861 
L 195.314094 33.916906 
L 195.436902 33.916906 
L 195.436902 33.343255 
L 195.678683 33.343255 
L 195.678683 32.769603 
L 210.509492 32.769603 
L 210.509492 32.195951 
L 210.727941 32.195951 
L 210.727941 31.622299 
L 210.840675 31.622299 
L 210.840675 31.048648 
L 211.10232 31.048648 
L 211.10232 30.474996 
L 211.235591 30.474996 
L 211.259004 29.327692 
L 211.47859 29.327692 
L 211.47859 28.754041 
L 211.710145 28.754041 
L 211.750125 27.033086 
L 211.880059 27.033086 
L 211.953161 25.885782 
L 214.106912 25.885782 
L 214.130742 24.738479 
L 214.312803 24.738479 
L 214.401606 23.591175 
L 214.43024 23.591175 
L 214.43024 22.443872 
L 214.603638 22.443872 
L 214.664478 21.296568 
L 214.740018 21.296568 
L 214.740018 20.722917 
L 215.668359 20.722917 
L 215.668359 20.149265 
L 216.078583 20.149265 
L 216.167881 17.854658 
L 216.249305 17.854658 
L 216.345506 16.707355 
L 216.490937 16.707355 
L 216.597306 14.412748 
L 216.715963 14.412748 
L 216.771011 13.265444 
L 219.942732 13.265444 
L 219.942732 12.691793 
L 220.276386 12.691793 
L 220.276386 12.118141 
L 220.62658 12.118141 
L 220.646016 10.970838 
L 220.997268 10.970838 
L 220.997268 10.397186 
L 221.42625 10.397186 
L 221.42625 9.823534 
L 221.689244 9.823534 
L 221.787316 8.676231 
L 227.081877 8.676231 
L 227.081877 8.102579 
L 228.621628 8.102579 
L 228.621628 7.528927 
L 231.249861 7.528927 
L 231.249861 6.955275 
L 236.717916 6.955275 
L 236.717916 6.381624 
L 338.688 6.381624 
L 338.688 6.381624 
" style="fill:none;stroke:#6495ed;stroke-linecap:square;stroke-width:1.5;"/>
   </g>
   <g id="line2d_45">
    <defs>
     <path d="M -0 6 
L 6 -6 
L -6 -6 
z
" id="m5e303af7aa" style="stroke:#6495ed;stroke-linejoin:miter;stroke-width:1.5;"/>
    </defs>
    <g>
     <use style="fill-opacity:0;stroke:#6495ed;stroke-linejoin:miter;stroke-width:1.5;" x="106.168594" xlink:href="#m5e303af7aa" y="277.145235"/>
     <use style="fill-opacity:0;stroke:#6495ed;stroke-linejoin:miter;stroke-width:1.5;" x="169.186895" xlink:href="#m5e303af7aa" y="208.307029"/>
     <use style="fill-opacity:0;stroke:#6495ed;stroke-linejoin:miter;stroke-width:1.5;" x="189.588895" xlink:href="#m5e303af7aa" y="63.173144"/>
     <use style="fill-opacity:0;stroke:#6495ed;stroke-linejoin:miter;stroke-width:1.5;" x="236.717916" xlink:href="#m5e303af7aa" y="6.955275"/>
     <use style="fill-opacity:0;stroke:#6495ed;stroke-linejoin:miter;stroke-width:1.5;" x="236.717916" xlink:href="#m5e303af7aa" y="6.381624"/>
     <use style="fill-opacity:0;stroke:#6495ed;stroke-linejoin:miter;stroke-width:1.5;" x="338.688" xlink:href="#m5e303af7aa" y="6.381624"/>
    </g>
   </g>
   <g id="line2d_46">
    <path style="fill:none;stroke:#6495ed;stroke-linecap:square;stroke-width:1.5;"/>
    <g/>
   </g>
   <g id="line2d_47">
    <path clip-path="url(#p2ab9eefd80)" d="M 218.221714 13.265444 
" style="fill:none;stroke:#6495ed;stroke-linecap:square;stroke-width:1.5;"/>
    <defs>
     <path d="M -12 12 
L 12 -12 
M -12 -12 
L 12 12 
" id="mb1e1b67e8a" style="stroke:#6495ed;"/>
    </defs>
    <g clip-path="url(#p2ab9eefd80)">
     <use style="fill:#6495ed;stroke:#6495ed;" x="218.221714" xlink:href="#mb1e1b67e8a" y="13.265444"/>
    </g>
   </g>
   <g id="line2d_48">
    <defs>
     <path d="M 0 1.5 
C 0.397805 1.5 0.77937 1.341951 1.06066 1.06066 
C 1.341951 0.77937 1.5 0.397805 1.5 0 
C 1.5 -0.397805 1.341951 -0.77937 1.06066 -1.06066 
C 0.77937 -1.341951 0.397805 -1.5 0 -1.5 
C -0.397805 -1.5 -0.77937 -1.341951 -1.06066 -1.06066 
C -1.341951 -0.77937 -1.5 -0.397805 -1.5 0 
C -1.5 0.397805 -1.341951 0.77937 -1.06066 1.06066 
C -0.77937 1.341951 -0.397805 1.5 0 1.5 
z
" id="mab7fc72a16" style="stroke:#ff0000;"/>
    </defs>
    <g>
     <use style="fill:#ff0000;stroke:#ff0000;" x="286.595655" xlink:href="#mab7fc72a16" y="184.213656"/>
     <use style="fill:#ff0000;stroke:#ff0000;" x="286.595655" xlink:href="#mab7fc72a16" y="184.213656"/>
    </g>
   </g>
   <g id="line2d_49">
    <path d="M 29.53256 298.944 
L 29.53256 281.734448 
L 41.620548 281.734448 
L 41.620548 280.587145 
L 48.691568 280.587145 
L 48.691568 277.718886 
L 53.708537 277.718886 
L 53.708537 276.571583 
L 60.779557 276.571583 
L 60.779557 273.703324 
L 63.467834 273.703324 
L 63.467834 273.129673 
L 65.796525 273.129673 
L 65.796525 271.408718 
L 69.687988 271.408718 
L 69.687988 269.687762 
L 79.938565 269.687762 
L 79.938565 269.114111 
L 80.881459 269.114111 
L 80.881459 267.966807 
L 81.775977 267.966807 
L 81.775977 266.819504 
L 83.438118 266.819504 
L 83.438118 266.245852 
L 85.66744 266.245852 
L 85.66744 265.6722 
L 87.643811 265.6722 
L 87.643811 264.524897 
L 94.294587 264.524897 
L 94.294587 263.951245 
L 95.125186 263.951245 
L 95.125186 263.377593 
L 98.43941 263.377593 
L 98.43941 262.23029 
L 99.731799 262.23029 
L 99.731799 261.656638 
L 106.382575 261.656638 
L 106.382575 261.082987 
L 107.414787 261.082987 
L 107.414787 259.935683 
L 107.811151 259.935683 
L 107.811151 259.362031 
L 111.023335 259.362031 
L 111.023335 258.214728 
L 111.185562 258.214728 
L 111.185562 257.641076 
L 111.505558 257.641076 
L 111.505558 257.067425 
L 114.0117 257.067425 
L 114.0117 256.493773 
L 121.128432 256.493773 
L 121.128432 255.920121 
L 122.276749 255.920121 
L 122.276749 255.346469 
L 123.111324 255.346469 
L 123.111324 254.772818 
L 123.829748 254.772818 
L 123.829748 253.625514 
L 124.594752 253.625514 
L 124.594752 253.051863 
L 129.290685 253.051863 
L 129.290685 252.478211 
L 131.640805 252.478211 
L 131.640805 251.904559 
L 136.112156 251.904559 
L 136.112156 251.330907 
L 136.266147 251.330907 
L 136.266147 250.757256 
L 136.79465 250.757256 
L 136.79465 250.183604 
L 137.415591 250.183604 
L 137.451437 249.036301 
L 137.84096 249.036301 
L 137.84096 248.462649 
L 140.589166 248.462649 
L 140.589166 247.888997 
L 144.245733 247.888997 
L 144.245733 247.315345 
L 145.440832 247.315345 
L 145.440832 246.741694 
L 146.194362 246.741694 
L 146.194362 246.168042 
L 147.749695 246.168042 
L 147.749695 245.59439 
L 149.177602 245.59439 
L 149.177602 243.873435 
L 151.195055 243.873435 
L 151.195055 243.299783 
L 151.912822 243.299783 
L 151.912822 242.726132 
L 152.617226 242.726132 
L 152.617226 242.15248 
L 155.841748 242.15248 
L 155.841748 241.578828 
L 157.392398 241.578828 
L 157.392398 241.005176 
L 157.98704 241.005176 
L 157.98704 239.857873 
L 159.015067 239.857873 
L 159.015067 239.284221 
L 159.847601 239.284221 
L 159.847601 238.71057 
L 160.970627 238.71057 
L 161.054091 237.563266 
L 163.086542 237.563266 
L 163.086542 236.989614 
L 163.396654 236.989614 
L 163.396654 236.415963 
L 164.75018 236.415963 
L 164.75018 235.842311 
L 166.006178 235.842311 
L 166.006178 235.268659 
L 166.275702 235.268659 
L 166.275702 234.695008 
L 167.923499 234.695008 
L 167.923499 234.121356 
L 168.923766 234.121356 
L 168.923766 233.547704 
L 169.302579 233.547704 
L 169.302579 232.974052 
L 174.187897 232.974052 
L 174.187897 232.400401 
L 175.96727 232.400401 
L 175.96727 230.679446 
L 176.482793 230.679446 
L 176.482793 230.105794 
L 177.816873 230.105794 
L 177.816873 228.95849 
L 178.069773 228.95849 
L 178.069773 227.811187 
L 179.207044 227.811187 
L 179.207044 226.663884 
L 180.893522 226.663884 
L 180.893522 226.090232 
L 187.475296 226.090232 
L 187.475296 225.51658 
L 196.005907 225.51658 
L 196.005907 224.942928 
L 196.276845 224.942928 
L 196.276845 223.795625 
L 197.402274 223.795625 
L 197.402274 223.221973 
L 199.125722 223.221973 
L 199.125722 222.648321 
L 200.481223 222.648321 
L 200.481223 222.07467 
L 202.421832 222.07467 
L 202.421832 221.501018 
L 202.989848 221.501018 
L 202.989848 220.927366 
L 203.705897 220.927366 
L 203.705897 220.353715 
L 204.482115 220.353715 
L 204.482115 219.780063 
L 204.836613 219.780063 
L 204.836613 219.206411 
L 205.755048 219.206411 
L 205.755048 218.632759 
L 208.747303 218.632759 
L 208.747303 218.059108 
L 210.818293 218.059108 
L 210.818293 217.485456 
L 212.237136 217.485456 
L 212.237136 216.911804 
L 213.279921 216.911804 
L 213.279921 216.338153 
L 215.418659 216.338153 
L 215.418659 215.764501 
L 215.734051 215.764501 
L 215.734856 214.617197 
L 216.586966 214.617197 
L 216.586966 214.043546 
L 217.220398 214.043546 
L 217.29265 212.896242 
L 217.996344 212.896242 
L 217.996344 212.322591 
L 218.18715 212.322591 
L 218.18715 211.748939 
L 222.582819 211.748939 
L 222.582819 211.175287 
L 224.306434 211.175287 
L 224.306434 210.601635 
L 224.520413 210.601635 
L 224.520413 210.027984 
L 224.870993 210.027984 
L 224.870993 209.454332 
L 228.964432 209.454332 
L 228.964432 208.88068 
L 229.110191 208.88068 
L 229.110191 208.307029 
L 229.851357 208.307029 
L 229.851357 207.733377 
L 230.197382 207.733377 
L 230.197382 207.159725 
L 235.604693 207.159725 
L 235.604693 206.586073 
L 236.590284 206.586073 
L 236.590284 206.012422 
L 239.365292 206.012422 
L 239.365292 205.43877 
L 239.889501 205.43877 
L 239.889501 204.865118 
L 240.015404 204.865118 
L 240.015404 204.291467 
L 244.076233 204.291467 
L 244.076233 203.144163 
L 244.312292 203.144163 
L 244.312292 202.570511 
L 245.819203 202.570511 
L 245.819203 201.99686 
L 247.644665 201.99686 
L 247.744031 200.849556 
L 247.837283 200.849556 
L 247.837283 200.275904 
L 250.768175 200.275904 
L 250.768175 199.702253 
L 253.13584 199.702253 
L 253.208422 198.554949 
L 257.305759 198.554949 
L 257.305759 197.981298 
L 259.068065 197.981298 
L 259.068065 197.407646 
L 260.668514 197.407646 
L 260.760056 195.686691 
L 262.218532 195.686691 
L 262.218532 195.113039 
L 263.596872 195.113039 
L 263.596872 194.539387 
L 264.74127 194.539387 
L 264.813786 193.392084 
L 265.979623 193.392084 
L 266.007906 192.24478 
L 268.04065 192.24478 
L 268.04065 191.671129 
L 269.044176 191.671129 
L 269.044176 191.097477 
L 270.840387 191.097477 
L 270.840387 190.523825 
L 271.673565 190.523825 
L 271.673565 189.950174 
L 275.365693 189.950174 
L 275.365693 189.376522 
L 276.582877 189.376522 
L 276.63506 187.655567 
L 280.951122 187.655567 
L 280.951122 187.081915 
L 283.167802 187.081915 
L 283.190615 185.934612 
L 283.605962 185.934612 
L 283.605962 185.36096 
L 284.795756 185.36096 
L 284.795756 184.787308 
L 286.595655 184.787308 
L 286.595655 184.213656 
L 338.688 184.213656 
L 338.688 184.213656 
" style="fill:none;stroke:#ff0000;stroke-linecap:square;stroke-width:1.5;"/>
   </g>
   <g id="line2d_50">
    <defs>
     <path d="M 0 -6 
L -5.196152 -3 
L -5.196152 3 
L -0 6 
L 5.196152 3 
L 5.196152 -3 
z
" id="m6e5ac8f3bd" style="stroke:#ff0000;stroke-linejoin:miter;stroke-width:1.5;"/>
    </defs>
    <g>
     <use style="fill-opacity:0;stroke:#ff0000;stroke-linejoin:miter;stroke-width:1.5;" x="80.881459" xlink:href="#m6e5ac8f3bd" y="267.966807"/>
     <use style="fill-opacity:0;stroke:#ff0000;stroke-linejoin:miter;stroke-width:1.5;" x="146.194362" xlink:href="#m6e5ac8f3bd" y="246.168042"/>
     <use style="fill-opacity:0;stroke:#ff0000;stroke-linejoin:miter;stroke-width:1.5;" x="215.734856" xlink:href="#m6e5ac8f3bd" y="214.617197"/>
     <use style="fill-opacity:0;stroke:#ff0000;stroke-linejoin:miter;stroke-width:1.5;" x="286.595655" xlink:href="#m6e5ac8f3bd" y="184.787308"/>
     <use style="fill-opacity:0;stroke:#ff0000;stroke-linejoin:miter;stroke-width:1.5;" x="286.595655" xlink:href="#m6e5ac8f3bd" y="184.213656"/>
     <use style="fill-opacity:0;stroke:#ff0000;stroke-linejoin:miter;stroke-width:1.5;" x="338.688" xlink:href="#m6e5ac8f3bd" y="184.213656"/>
    </g>
   </g>
   <g id="line2d_51">
    <path style="fill:none;stroke:#ff0000;stroke-linecap:square;stroke-width:1.5;"/>
    <g/>
   </g>
   <g id="line2d_52">
    <path clip-path="url(#p2ab9eefd80)" d="M 218.221714 211.748939 
" style="fill:none;stroke:#ff0000;stroke-linecap:square;stroke-width:1.5;"/>
    <defs>
     <path d="M -12 12 
L 12 -12 
M -12 -12 
L 12 12 
" id="m6128c523ef" style="stroke:#ff0000;"/>
    </defs>
    <g clip-path="url(#p2ab9eefd80)">
     <use style="fill:#ff0000;stroke:#ff0000;" x="218.221714" xlink:href="#m6128c523ef" y="211.748939"/>
    </g>
   </g>
   <g id="line2d_53">
    <path d="M 338.688 184.213656 
L 369.60768 293.092752 
" style="fill:none;stroke:#ff0000;stroke-linecap:square;stroke-width:1.5;"/>
    <g>
     <use style="fill-opacity:0;stroke:#ff0000;stroke-linejoin:miter;stroke-width:1.5;" x="338.688" xlink:href="#m6e5ac8f3bd" y="184.213656"/>
     <use style="fill-opacity:0;stroke:#ff0000;stroke-linejoin:miter;stroke-width:1.5;" x="369.60768" xlink:href="#m6e5ac8f3bd" y="293.092752"/>
    </g>
   </g>
   <g id="line2d_54">
    <path d="M 338.688 178.477139 
L 369.60768 222.877782 
" style="fill:none;stroke:#ff00ff;stroke-linecap:square;stroke-width:1.5;"/>
    <g>
     <use style="fill-opacity:0;stroke:#ff00ff;stroke-linejoin:miter;stroke-width:1.5;" x="338.688" xlink:href="#mae42b27d6e" y="178.477139"/>
     <use style="fill-opacity:0;stroke:#ff00ff;stroke-linejoin:miter;stroke-width:1.5;" x="369.60768" xlink:href="#mae42b27d6e" y="222.877782"/>
    </g>
   </g>
   <g id="line2d_55">
    <path d="M 338.688 121.111967 
L 369.60768 152.662812 
" style="fill:none;stroke:#000080;stroke-linecap:square;stroke-width:1.5;"/>
    <g>
     <use style="fill-opacity:0;stroke:#000080;stroke-width:1.5;" x="338.688" xlink:href="#m33906bfbad" y="121.111967"/>
     <use style="fill-opacity:0;stroke:#000080;stroke-width:1.5;" x="369.60768" xlink:href="#m33906bfbad" y="152.662812"/>
    </g>
   </g>
   <g id="line2d_56">
    <path d="M 338.688 6.381624 
L 369.60768 82.447842 
" style="fill:none;stroke:#6495ed;stroke-linecap:square;stroke-width:1.5;"/>
    <g>
     <use style="fill-opacity:0;stroke:#6495ed;stroke-linejoin:miter;stroke-width:1.5;" x="338.688" xlink:href="#m5e303af7aa" y="6.381624"/>
     <use style="fill-opacity:0;stroke:#6495ed;stroke-linejoin:miter;stroke-width:1.5;" x="369.60768" xlink:href="#m5e303af7aa" y="82.447842"/>
    </g>
   </g>
   <g id="line2d_57">
    <path d="M 338.688 6.381624 
L 369.60768 12.232871 
" style="fill:none;stroke:#ff7500;stroke-linecap:square;stroke-width:1.5;"/>
    <g>
     <use style="fill-opacity:0;stroke:#ff7500;stroke-linejoin:bevel;stroke-width:1.5;" x="338.688" xlink:href="#md51d22cd24" y="6.381624"/>
     <use style="fill-opacity:0;stroke:#ff7500;stroke-linejoin:bevel;stroke-width:1.5;" x="369.60768" xlink:href="#md51d22cd24" y="12.232871"/>
    </g>
   </g>
   <g id="line2d_58">
    <path d="M 338.688 298.944 
L 338.688 6.381624 
" style="fill:none;stroke:#000000;stroke-linecap:square;stroke-width:1.5;"/>
   </g>
   <g id="patch_3">
    <path d="M 57.6 298.944 
L 57.6 3.456 
" style="fill:none;stroke:#000000;stroke-linecap:square;stroke-linejoin:miter;stroke-width:0.8;"/>
   </g>
   <g id="patch_4">
    <path d="M 338.688 298.944 
L 338.688 3.456 
" style="fill:none;stroke:#000000;stroke-linecap:square;stroke-linejoin:miter;stroke-width:0.8;"/>
   </g>
   <g id="patch_5">
    <path d="M 57.6 298.944 
L 338.688 298.944 
" style="fill:none;stroke:#000000;stroke-linecap:square;stroke-linejoin:miter;stroke-width:0.8;"/>
   </g>
   <g id="patch_6">
    <path d="M 57.6 3.456 
L 338.688 3.456 
" style="fill:none;stroke:#000000;stroke-linecap:square;stroke-linejoin:miter;stroke-width:0.8;"/>
   </g>
   <g id="text_13">
    <!-- f19 -->
    <g transform="translate(375.22944 297.78369)scale(0.17 -0.17)">
     <defs>
      <path d="M 703 97 
L 703 672 
Q 941 559 1184 500 
Q 1428 441 1663 441 
Q 2288 441 2617 861 
Q 2947 1281 2994 2138 
Q 2813 1869 2534 1725 
Q 2256 1581 1919 1581 
Q 1219 1581 811 2004 
Q 403 2428 403 3163 
Q 403 3881 828 4315 
Q 1253 4750 1959 4750 
Q 2769 4750 3195 4129 
Q 3622 3509 3622 2328 
Q 3622 1225 3098 567 
Q 2575 -91 1691 -91 
Q 1453 -91 1209 -44 
Q 966 3 703 97 
z
M 1959 2075 
Q 2384 2075 2632 2365 
Q 2881 2656 2881 3163 
Q 2881 3666 2632 3958 
Q 2384 4250 1959 4250 
Q 1534 4250 1286 3958 
Q 1038 3666 1038 3163 
Q 1038 2656 1286 2365 
Q 1534 2075 1959 2075 
z
" id="DejaVuSans-39" transform="scale(0.015625)"/>
     </defs>
     <use xlink:href="#DejaVuSans-66"/>
     <use x="35.205078" xlink:href="#DejaVuSans-31"/>
     <use x="98.828125" xlink:href="#DejaVuSans-39"/>
    </g>
   </g>
   <g id="text_14">
    <!-- f16 -->
    <g transform="translate(375.22944 227.56872)scale(0.17 -0.17)">
     <use xlink:href="#DejaVuSans-66"/>
     <use x="35.205078" xlink:href="#DejaVuSans-31"/>
     <use x="98.828125" xlink:href="#DejaVuSans-36"/>
    </g>
   </g>
   <g id="text_15">
    <!-- f15 -->
    <g transform="translate(375.22944 157.353749)scale(0.17 -0.17)">
     <defs>
      <path d="M 691 4666 
L 3169 4666 
L 3169 4134 
L 1269 4134 
L 1269 2991 
Q 1406 3038 1543 3061 
Q 1681 3084 1819 3084 
Q 2600 3084 3056 2656 
Q 3513 2228 3513 1497 
Q 3513 744 3044 326 
Q 2575 -91 1722 -91 
Q 1428 -91 1123 -41 
Q 819 9 494 109 
L 494 744 
Q 775 591 1075 516 
Q 1375 441 1709 441 
Q 2250 441 2565 725 
Q 2881 1009 2881 1497 
Q 2881 1984 2565 2268 
Q 2250 2553 1709 2553 
Q 1456 2553 1204 2497 
Q 953 2441 691 2322 
L 691 4666 
z
" id="DejaVuSans-35" transform="scale(0.015625)"/>
     </defs>
     <use xlink:href="#DejaVuSans-66"/>
     <use x="35.205078" xlink:href="#DejaVuSans-31"/>
     <use x="98.828125" xlink:href="#DejaVuSans-35"/>
    </g>
   </g>
   <g id="text_16">
    <!-- f18 -->
    <g transform="translate(375.22944 87.138779)scale(0.17 -0.17)">
     <use xlink:href="#DejaVuSans-66"/>
     <use x="35.205078" xlink:href="#DejaVuSans-31"/>
     <use x="98.828125" xlink:href="#DejaVuSans-38"/>
    </g>
   </g>
   <g id="text_17">
    <!-- f17 -->
    <g transform="translate(375.22944 16.923809)scale(0.17 -0.17)">
     <defs>
      <path d="M 525 4666 
L 3525 4666 
L 3525 4397 
L 1831 0 
L 1172 0 
L 2766 4134 
L 525 4134 
L 525 4666 
z
" id="DejaVuSans-37" transform="scale(0.015625)"/>
     </defs>
     <use xlink:href="#DejaVuSans-66"/>
     <use x="35.205078" xlink:href="#DejaVuSans-31"/>
     <use x="98.828125" xlink:href="#DejaVuSans-37"/>
    </g>
   </g>
   <g id="text_18">
    <!-- bbob -->
    <g transform="translate(60.41088 14.161286)scale(0.102 -0.102)">
     <defs>
      <path d="M 3116 1747 
Q 3116 2381 2855 2742 
Q 2594 3103 2138 3103 
Q 1681 3103 1420 2742 
Q 1159 2381 1159 1747 
Q 1159 1113 1420 752 
Q 1681 391 2138 391 
Q 2594 391 2855 752 
Q 3116 1113 3116 1747 
z
M 1159 2969 
Q 1341 3281 1617 3432 
Q 1894 3584 2278 3584 
Q 2916 3584 3314 3078 
Q 3713 2572 3713 1747 
Q 3713 922 3314 415 
Q 2916 -91 2278 -91 
Q 1894 -91 1617 61 
Q 1341 213 1159 525 
L 1159 0 
L 581 0 
L 581 4863 
L 1159 4863 
L 1159 2969 
z
" id="DejaVuSans-62" transform="scale(0.015625)"/>
     </defs>
     <use xlink:href="#DejaVuSans-62"/>
     <use x="63.476562" xlink:href="#DejaVuSans-62"/>
     <use x="126.953125" xlink:href="#DejaVuSans-6f"/>
     <use x="188.134766" xlink:href="#DejaVuSans-62"/>
    </g>
    <!-- Multi-modal functions, 5-D -->
    <g transform="translate(60.41088 25.583055)scale(0.102 -0.102)">
     <defs>
      <path d="M 628 4666 
L 1569 4666 
L 2759 1491 
L 3956 4666 
L 4897 4666 
L 4897 0 
L 4281 0 
L 4281 4097 
L 3078 897 
L 2444 897 
L 1241 4097 
L 1241 0 
L 628 0 
L 628 4666 
z
" id="DejaVuSans-4d" transform="scale(0.015625)"/>
      <path d="M 1259 4147 
L 1259 519 
L 2022 519 
Q 2988 519 3436 956 
Q 3884 1394 3884 2338 
Q 3884 3275 3436 3711 
Q 2988 4147 2022 4147 
L 1259 4147 
z
M 628 4666 
L 1925 4666 
Q 3281 4666 3915 4102 
Q 4550 3538 4550 2338 
Q 4550 1131 3912 565 
Q 3275 0 1925 0 
L 628 0 
L 628 4666 
z
" id="DejaVuSans-44" transform="scale(0.015625)"/>
     </defs>
     <use xlink:href="#DejaVuSans-4d"/>
     <use x="86.279297" xlink:href="#DejaVuSans-75"/>
     <use x="149.658203" xlink:href="#DejaVuSans-6c"/>
     <use x="177.441406" xlink:href="#DejaVuSans-74"/>
     <use x="216.650391" xlink:href="#DejaVuSans-69"/>
     <use x="244.433594" xlink:href="#DejaVuSans-2d"/>
     <use x="280.517578" xlink:href="#DejaVuSans-6d"/>
     <use x="377.929688" xlink:href="#DejaVuSans-6f"/>
     <use x="439.111328" xlink:href="#DejaVuSans-64"/>
     <use x="502.587891" xlink:href="#DejaVuSans-61"/>
     <use x="563.867188" xlink:href="#DejaVuSans-6c"/>
     <use x="591.650391" xlink:href="#DejaVuSans-20"/>
     <use x="623.4375" xlink:href="#DejaVuSans-66"/>
     <use x="658.642578" xlink:href="#DejaVuSans-75"/>
     <use x="722.021484" xlink:href="#DejaVuSans-6e"/>
     <use x="785.400391" xlink:href="#DejaVuSans-63"/>
     <use x="840.380859" xlink:href="#DejaVuSans-74"/>
     <use x="879.589844" xlink:href="#DejaVuSans-69"/>
     <use x="907.373047" xlink:href="#DejaVuSans-6f"/>
     <use x="968.554688" xlink:href="#DejaVuSans-6e"/>
     <use x="1031.933594" xlink:href="#DejaVuSans-73"/>
     <use x="1084.033203" xlink:href="#DejaVuSans-2c"/>
     <use x="1115.820312" xlink:href="#DejaVuSans-20"/>
     <use x="1147.607422" xlink:href="#DejaVuSans-35"/>
     <use x="1211.230469" xlink:href="#DejaVuSans-2d"/>
     <use x="1247.314453" xlink:href="#DejaVuSans-44"/>
    </g>
    <!-- 51 targets: 100..1e-08 -->
    <g transform="translate(60.41088 37.004824)scale(0.102 -0.102)">
     <defs>
      <path d="M 750 794 
L 1409 794 
L 1409 0 
L 750 0 
L 750 794 
z
M 750 3309 
L 1409 3309 
L 1409 2516 
L 750 2516 
L 750 3309 
z
" id="DejaVuSans-3a" transform="scale(0.015625)"/>
     </defs>
     <use xlink:href="#DejaVuSans-35"/>
     <use x="63.623047" xlink:href="#DejaVuSans-31"/>
     <use x="127.246094" xlink:href="#DejaVuSans-20"/>
     <use x="159.033203" xlink:href="#DejaVuSans-74"/>
     <use x="198.242188" xlink:href="#DejaVuSans-61"/>
     <use x="259.521484" xlink:href="#DejaVuSans-72"/>
     <use x="298.884766" xlink:href="#DejaVuSans-67"/>
     <use x="362.361328" xlink:href="#DejaVuSans-65"/>
     <use x="423.884766" xlink:href="#DejaVuSans-74"/>
     <use x="463.09375" xlink:href="#DejaVuSans-73"/>
     <use x="515.193359" xlink:href="#DejaVuSans-3a"/>
     <use x="548.884766" xlink:href="#DejaVuSans-20"/>
     <use x="580.671875" xlink:href="#DejaVuSans-31"/>
     <use x="644.294922" xlink:href="#DejaVuSans-30"/>
     <use x="707.917969" xlink:href="#DejaVuSans-30"/>
     <use x="771.541016" xlink:href="#DejaVuSans-2e"/>
     <use x="803.328125" xlink:href="#DejaVuSans-2e"/>
     <use x="835.115234" xlink:href="#DejaVuSans-31"/>
     <use x="898.738281" xlink:href="#DejaVuSans-65"/>
     <use x="960.261719" xlink:href="#DejaVuSans-2d"/>
     <use x="996.345703" xlink:href="#DejaVuSans-30"/>
     <use x="1059.96875" xlink:href="#DejaVuSans-38"/>
    </g>
    <!-- 15 instances -->
    <g transform="translate(60.41088 48.426593)scale(0.102 -0.102)">
     <use xlink:href="#DejaVuSans-31"/>
     <use x="63.623047" xlink:href="#DejaVuSans-35"/>
     <use x="127.246094" xlink:href="#DejaVuSans-20"/>
     <use x="159.033203" xlink:href="#DejaVuSans-69"/>
     <use x="186.816406" xlink:href="#DejaVuSans-6e"/>
     <use x="250.195312" xlink:href="#DejaVuSans-73"/>
     <use x="302.294922" xlink:href="#DejaVuSans-74"/>
     <use x="341.503906" xlink:href="#DejaVuSans-61"/>
     <use x="402.783203" xlink:href="#DejaVuSans-6e"/>
     <use x="466.162109" xlink:href="#DejaVuSans-63"/>
     <use x="521.142578" xlink:href="#DejaVuSans-65"/>
     <use x="582.666016" xlink:href="#DejaVuSans-73"/>
    </g>
   </g>
   <g id="text_19">
    <!-- v2.4 -->
    <g style="fill:#808080;" transform="translate(187.233062 293.909432)scale(0.1 -0.1)">
     <use xlink:href="#DejaVuSans-76"/>
     <use x="59.179688" xlink:href="#DejaVuSans-32"/>
     <use x="122.802734" xlink:href="#DejaVuSans-2e"/>
     <use x="154.589844" xlink:href="#DejaVuSans-34"/>
    </g>
   </g>
  </g>
 </g>
 <defs>
  <clipPath id="p2ab9eefd80">
   <rect height="295.488" width="281.088" x="57.6" y="3.456"/>
  </clipPath>
 </defs>
</svg>
