<?xml version="1.0" encoding="utf-8" standalone="no"?>
<!DOCTYPE svg PUBLIC "-//W3C//DTD SVG 1.1//EN"
  "http://www.w3.org/Graphics/SVG/1.1/DTD/svg11.dtd">
<svg height="345.6pt" version="1.1" viewBox="0 0 460.8 345.6" width="460.8pt" xmlns="http://www.w3.org/2000/svg" xmlns:xlink="http://www.w3.org/1999/xlink">
 <metadata>
  <rdf:RDF xmlns:cc="http://creativecommons.org/ns#" xmlns:dc="http://purl.org/dc/elements/1.1/" xmlns:rdf="http://www.w3.org/1999/02/22-rdf-syntax-ns#">
   <cc:Work>
    <dc:type rdf:resource="http://purl.org/dc/dcmitype/StillImage"/>
    <dc:date>2021-04-20T12:28:02.400721</dc:date>
    <dc:format>image/svg+xml</dc:format>
    <dc:creator>
     <cc:Agent>
      <dc:title>Matplotlib v3.4.1, https://matplotlib.org/</dc:title>
     </cc:Agent>
    </dc:creator>
   </cc:Work>
  </rdf:RDF>
 </metadata>
 <defs>
  <style type="text/css">*{stroke-linecap:butt;stroke-linejoin:round;}</style>
 </defs>
 <g id="figure_1">
  <g id="patch_1">
   <path d="M 0 345.6 
L 460.8 345.6 
L 460.8 0 
L 0 0 
z
" style="fill:#ffffff;"/>
  </g>
  <g id="axes_1">
   <g id="patch_2">
    <path d="M 57.6 298.944 
L 338.688 298.944 
L 338.688 3.456 
L 57.6 3.456 
z
" style="fill:#ffffff;"/>
   </g>
   <g id="line2d_1">
    <path d="M 5.356583 298.944 
L 5.356583 297.796697 
L 54.765787 297.796697 
L 54.765787 296.649393 
L 79.069525 296.649393 
L 79.069525 295.50209 
L 83.438118 295.50209 
L 83.438118 294.354786 
L 88.627632 294.354786 
L 88.627632 293.207483 
L 92.969447 293.207483 
L 92.969447 292.060179 
L 96.442905 292.060179 
L 96.442905 290.912876 
L 97.313904 290.912876 
L 97.313904 289.765573 
L 98.976045 289.765573 
L 98.976045 288.618269 
L 99.338119 288.618269 
L 99.338119 287.470966 
L 101.506816 287.470966 
L 101.506816 286.323662 
L 101.785851 286.323662 
L 101.785851 285.176359 
L 104.084239 285.176359 
L 104.084239 284.029055 
L 105.285403 284.029055 
L 105.285403 282.881752 
L 106.30264 282.881752 
L 106.30264 281.734448 
L 107.187808 281.734448 
L 107.187808 280.587145 
L 107.90885 280.587145 
L 107.90885 279.439842 
L 108.601261 279.439842 
L 108.601261 278.292538 
L 109.334689 278.292538 
L 109.334689 277.145235 
L 110.252758 277.145235 
L 110.252758 275.997931 
L 110.485426 275.997931 
L 110.485426 274.850628 
L 111.485729 274.850628 
L 111.485729 273.703324 
L 111.819788 273.703324 
L 111.819788 272.556021 
L 111.955503 272.556021 
L 111.955503 271.408718 
L 112.637255 271.408718 
L 112.637255 270.261414 
L 112.877038 270.261414 
L 112.877038 269.114111 
L 114.097313 269.114111 
L 114.097313 267.966807 
L 115.476111 267.966807 
L 115.476111 266.819504 
L 117.044744 266.819504 
L 117.044744 265.6722 
L 117.202696 265.6722 
L 117.245527 263.377593 
L 117.903163 263.377593 
L 117.903163 262.23029 
L 119.813201 262.23029 
L 119.813201 261.082987 
L 121.388979 261.082987 
L 121.388979 259.935683 
L 122.740699 259.935683 
L 122.740699 258.78838 
L 125.083692 258.78838 
L 125.083692 257.641076 
L 126.073922 257.641076 
L 126.073922 256.493773 
L 127.516689 256.493773 
L 127.54041 254.199166 
L 128.768338 254.199166 
L 128.768338 253.051863 
L 129.440135 253.051863 
L 129.440135 251.904559 
L 129.567223 251.904559 
L 129.567223 250.757256 
L 130.310898 250.757256 
L 130.310898 249.609952 
L 131.332025 249.609952 
L 131.332025 248.462649 
L 131.471338 248.462649 
L 131.471338 247.315345 
L 132.905511 247.315345 
L 133.003989 245.020738 
L 134.04118 245.020738 
L 134.04118 243.873435 
L 135.061249 243.873435 
L 135.061249 242.726132 
L 135.194218 242.726132 
L 135.209496 240.431525 
L 136.184509 240.431525 
L 136.184509 239.284221 
L 137.217107 239.284221 
L 137.217107 238.136918 
L 138.204833 238.136918 
L 138.264747 235.842311 
L 138.632527 235.842311 
L 138.632527 234.695008 
L 139.240888 234.695008 
L 139.240888 233.547704 
L 139.53729 233.547704 
L 139.53729 232.400401 
L 140.184419 232.400401 
L 140.184419 231.253097 
L 141.181008 231.253097 
L 141.289103 228.95849 
L 142.133981 228.95849 
L 142.133981 227.811187 
L 142.385399 227.811187 
L 142.385399 226.663884 
L 143.070028 226.663884 
L 143.070028 225.51658 
L 143.483476 225.51658 
L 143.483476 224.369277 
L 145.135248 224.369277 
L 145.135248 223.221973 
L 145.61548 223.221973 
L 145.721664 220.927366 
L 146.299784 220.927366 
L 146.299784 219.780063 
L 147.238848 219.780063 
L 147.238848 218.632759 
L 147.459617 218.632759 
L 147.459617 217.485456 
L 148.262868 217.485456 
L 148.262868 216.338153 
L 148.76137 216.338153 
L 148.76137 215.190849 
L 149.079068 215.190849 
L 149.079068 214.043546 
L 149.85877 214.043546 
L 149.85877 212.896242 
L 150.072806 212.896242 
L 150.072806 211.748939 
L 150.249899 211.748939 
L 150.249899 210.601635 
L 150.67444 210.601635 
L 150.67444 209.454332 
L 150.872533 209.454332 
L 150.872533 208.307029 
L 151.326856 208.307029 
L 151.326856 207.159725 
L 151.497722 207.159725 
L 151.529699 204.865118 
L 152.045145 204.865118 
L 152.045145 203.717815 
L 152.386839 203.717815 
L 152.438089 201.423208 
L 153.27261 201.423208 
L 153.27261 200.275904 
L 153.464875 200.275904 
L 153.464875 199.128601 
L 154.11728 199.128601 
L 154.11728 197.981298 
L 154.498668 197.981298 
L 154.530637 195.686691 
L 154.848799 195.686691 
L 154.848799 194.539387 
L 155.153151 194.539387 
L 155.153151 193.392084 
L 155.433138 193.392084 
L 155.433138 192.24478 
L 155.677248 192.24478 
L 155.677248 191.097477 
L 155.798033 191.097477 
L 155.798033 189.950174 
L 156.599998 189.950174 
L 156.599998 188.80287 
L 156.866682 188.80287 
L 156.866682 187.655567 
L 157.010179 187.655567 
L 157.010179 186.508263 
L 157.279327 186.508263 
L 157.279327 185.36096 
L 157.710474 185.36096 
L 157.710474 184.213656 
L 158.140788 184.213656 
L 158.140788 183.066353 
L 158.660518 183.066353 
L 158.660518 181.91905 
L 162.191157 181.91905 
L 162.191157 180.771746 
L 164.458662 180.771746 
L 164.458662 179.624443 
L 165.417421 179.624443 
L 165.417421 178.477139 
L 165.803907 178.477139 
L 165.803907 177.329836 
L 166.179429 177.329836 
L 166.179429 176.182532 
L 166.536903 176.182532 
L 166.536903 175.035229 
L 166.671499 175.035229 
L 166.671499 173.887925 
L 166.86815 173.887925 
L 166.86815 172.740622 
L 167.181018 172.740622 
L 167.181018 171.593319 
L 167.330935 171.593319 
L 167.330935 170.446015 
L 167.457159 170.446015 
L 167.457159 169.298712 
L 167.733726 169.298712 
L 167.733726 168.151408 
L 167.932076 168.151408 
L 167.979563 165.856801 
L 168.231181 165.856801 
L 168.231181 164.709498 
L 168.430803 164.709498 
L 168.430803 163.562195 
L 168.628915 163.562195 
L 168.628915 162.414891 
L 168.766191 162.414891 
L 168.839608 160.120284 
L 169.045591 160.120284 
L 169.045591 158.972981 
L 169.217337 158.972981 
L 169.239048 156.678374 
L 169.40461 156.678374 
L 169.446113 154.383767 
L 169.563646 154.383767 
L 169.563646 153.236464 
L 169.714208 153.236464 
L 169.714208 152.08916 
L 169.873248 152.08916 
L 169.873248 150.941857 
L 170.003182 150.941857 
L 170.088122 148.64725 
L 170.12872 148.64725 
L 170.239707 146.352643 
L 170.251995 146.352643 
L 170.251995 145.20534 
L 170.386599 145.20534 
L 170.386599 144.058036 
L 170.560447 144.058036 
L 170.646726 141.763429 
L 170.711322 141.763429 
L 170.711322 140.616126 
L 171.193164 140.616126 
L 171.220946 138.321519 
L 171.463278 138.321519 
L 171.463278 137.174215 
L 171.781861 137.174215 
L 171.781861 136.026912 
L 172.100254 136.026912 
L 172.211004 133.732305 
L 172.334989 133.732305 
L 172.334989 132.585002 
L 172.55106 132.585002 
L 172.55106 131.437698 
L 172.902795 131.437698 
L 172.910414 129.143091 
L 173.485609 129.143091 
L 173.512801 126.848485 
L 173.984683 126.848485 
L 174.085216 124.553878 
L 174.388233 124.553878 
L 174.388233 123.406574 
L 174.549528 123.406574 
L 174.633601 121.111967 
L 174.976311 121.111967 
L 174.976311 119.964664 
L 175.236688 119.964664 
L 175.236688 118.817361 
L 175.404075 118.817361 
L 175.404075 117.670057 
L 175.826556 117.670057 
L 175.826556 116.522754 
L 176.07121 116.522754 
L 176.07121 115.37545 
L 176.242917 115.37545 
L 176.242917 114.228147 
L 176.538086 114.228147 
L 176.538086 113.080843 
L 176.726006 113.080843 
L 176.788512 110.786236 
L 177.142831 110.786236 
L 177.142831 109.638933 
L 177.601941 109.638933 
L 177.601941 108.49163 
L 177.977994 108.49163 
L 178.006891 106.197023 
L 178.387677 106.197023 
L 178.454747 103.902416 
L 178.857673 103.902416 
L 178.857673 102.755112 
L 179.197649 102.755112 
L 179.197649 101.607809 
L 179.472097 101.607809 
L 179.472097 100.460506 
L 179.59634 100.460506 
L 179.59634 99.313202 
L 179.923523 99.313202 
L 179.923523 98.165899 
L 180.286188 98.165899 
L 180.286188 97.018595 
L 180.635445 97.018595 
L 180.635445 95.871292 
L 180.858267 95.871292 
L 180.858267 94.723988 
L 181.016909 94.723988 
L 181.016909 93.576685 
L 181.322335 93.576685 
L 181.322335 92.429381 
L 181.663699 92.429381 
L 181.663699 91.282078 
L 181.848236 91.282078 
L 181.922486 87.840168 
L 181.991548 87.840168 
L 182.05687 85.545561 
L 182.246237 85.545561 
L 182.246237 84.398257 
L 182.499964 84.398257 
L 182.499964 83.250954 
L 182.621596 83.250954 
L 182.621596 82.103651 
L 182.827538 82.103651 
L 182.827538 80.956347 
L 183.152655 80.956347 
L 183.152655 79.809044 
L 183.414166 79.809044 
L 183.414166 78.66174 
L 183.7075 78.66174 
L 183.7075 77.514437 
L 183.936299 77.514437 
L 183.962435 75.21983 
L 184.225952 75.21983 
L 184.225952 74.072526 
L 184.458974 74.072526 
L 184.495198 71.77792 
L 184.793584 71.77792 
L 184.793584 70.630616 
L 184.963503 70.630616 
L 185.032355 68.336009 
L 185.327803 68.336009 
L 185.412981 66.041402 
L 185.569061 66.041402 
L 185.569061 64.894099 
L 185.746507 64.894099 
L 185.81346 62.599492 
L 185.900756 62.599492 
L 185.900756 61.452189 
L 186.074324 61.452189 
L 186.074324 60.304885 
L 186.355754 60.304885 
L 186.357651 58.010278 
L 186.567501 58.010278 
L 186.567501 56.862975 
L 186.784643 56.862975 
L 186.833763 53.421065 
L 187.053365 53.421065 
L 187.053365 52.273761 
L 187.316727 52.273761 
L 187.316727 51.126458 
L 187.52175 51.126458 
L 187.52175 49.979154 
L 187.742424 49.979154 
L 187.760938 47.684547 
L 187.942284 47.684547 
L 188.050341 40.800727 
L 188.073935 40.800727 
L 188.142081 36.211513 
L 188.301354 36.211513 
L 188.301354 35.06421 
L 188.761184 35.06421 
L 188.761184 33.916906 
L 189.267097 33.916906 
L 189.267097 32.769603 
L 189.780363 32.769603 
L 189.780363 31.622299 
L 190.408121 31.622299 
L 190.408121 30.474996 
L 190.984782 30.474996 
L 190.984782 29.327692 
L 191.736965 29.327692 
L 191.736965 28.180389 
L 192.320159 28.180389 
L 192.320159 27.033086 
L 192.958139 27.033086 
L 192.958139 25.885782 
L 193.365048 25.885782 
L 193.365048 24.738479 
L 193.776323 24.738479 
L 193.776323 23.591175 
L 194.169638 23.591175 
L 194.169638 22.443872 
L 194.526478 22.443872 
L 194.526478 21.296568 
L 194.87533 21.296568 
L 194.87533 20.149265 
L 195.185842 20.149265 
L 195.185842 19.001962 
L 195.516105 19.001962 
L 195.516105 17.854658 
L 195.795331 17.854658 
L 195.795331 16.707355 
L 196.101959 16.707355 
L 196.101959 15.560051 
L 196.421256 15.560051 
L 196.421256 14.412748 
L 196.756472 14.412748 
L 196.756472 13.265444 
L 197.138609 13.265444 
L 197.138609 12.118141 
L 197.452265 12.118141 
L 197.452265 10.970838 
L 197.794312 10.970838 
L 197.794312 9.823534 
L 198.189973 9.823534 
L 198.189973 8.676231 
L 198.493273 8.676231 
L 198.493273 7.528927 
L 198.813426 7.528927 
L 198.813426 6.381624 
L 338.688 6.381624 
L 338.688 6.381624 
" style="fill:none;stroke:#f5deb3;stroke-linecap:square;stroke-width:4;"/>
   </g>
   <g id="line2d_2">
    <defs>
     <path d="M 0 7.778175 
L 7.778175 0 
L 0 -7.778175 
L -7.778175 0 
z
" id="mf7731f03d0" style="stroke:#f5deb3;stroke-linejoin:miter;stroke-width:1.5;"/>
    </defs>
    <g>
     <use style="fill:#f5deb3;stroke:#f5deb3;stroke-linejoin:miter;stroke-width:1.5;" x="141.289103" xlink:href="#mf7731f03d0" y="230.105794"/>
     <use style="fill:#f5deb3;stroke:#f5deb3;stroke-linejoin:miter;stroke-width:1.5;" x="181.991548" xlink:href="#mf7731f03d0" y="86.692864"/>
     <use style="fill:#f5deb3;stroke:#f5deb3;stroke-linejoin:miter;stroke-width:1.5;" x="198.813426" xlink:href="#mf7731f03d0" y="7.528927"/>
     <use style="fill:#f5deb3;stroke:#f5deb3;stroke-linejoin:miter;stroke-width:1.5;" x="198.813426" xlink:href="#mf7731f03d0" y="6.381624"/>
     <use style="fill:#f5deb3;stroke:#f5deb3;stroke-linejoin:miter;stroke-width:1.5;" x="338.688" xlink:href="#mf7731f03d0" y="6.381624"/>
    </g>
   </g>
   <g id="line2d_3">
    <path style="fill:none;stroke:#f5deb3;stroke-linecap:square;stroke-width:4;"/>
    <g/>
   </g>
   <g id="line2d_4">
    <path d="M 338.688 6.381624 
L 369.60768 12.232871 
" style="fill:none;stroke:#f5deb3;stroke-linecap:square;stroke-width:4;"/>
    <g>
     <use style="fill:#f5deb3;stroke:#f5deb3;stroke-linejoin:miter;stroke-width:1.5;" x="338.688" xlink:href="#mf7731f03d0" y="6.381624"/>
     <use style="fill:#f5deb3;stroke:#f5deb3;stroke-linejoin:miter;stroke-width:1.5;" x="369.60768" xlink:href="#mf7731f03d0" y="12.232871"/>
    </g>
   </g>
   <g id="matplotlib.axis_1">
    <g id="xtick_1">
     <g id="line2d_5">
      <path clip-path="url(#pa960eb30eb)" d="M 57.6 298.944 
L 57.6 3.456 
" style="fill:none;stroke:#b0b0b0;stroke-linecap:square;stroke-width:0.8;"/>
     </g>
     <g id="line2d_6">
      <defs>
       <path d="M 0 0 
L 0 3.5 
" id="m58909e8866" style="stroke:#000000;stroke-width:0.8;"/>
      </defs>
      <g>
       <use style="stroke:#000000;stroke-width:0.8;" x="57.6" xlink:href="#m58909e8866" y="298.944"/>
      </g>
     </g>
     <g id="text_1">
      <!-- 0 -->
      <g transform="translate(51.2375 321.140875)scale(0.2 -0.2)">
       <defs>
        <path d="M 2034 4250 
Q 1547 4250 1301 3770 
Q 1056 3291 1056 2328 
Q 1056 1369 1301 889 
Q 1547 409 2034 409 
Q 2525 409 2770 889 
Q 3016 1369 3016 2328 
Q 3016 3291 2770 3770 
Q 2525 4250 2034 4250 
z
M 2034 4750 
Q 2819 4750 3233 4129 
Q 3647 3509 3647 2328 
Q 3647 1150 3233 529 
Q 2819 -91 2034 -91 
Q 1250 -91 836 529 
Q 422 1150 422 2328 
Q 422 3509 836 4129 
Q 1250 4750 2034 4750 
z
" id="DejaVuSans-30" transform="scale(0.015625)"/>
       </defs>
       <use xlink:href="#DejaVuSans-30"/>
      </g>
     </g>
    </g>
    <g id="xtick_2">
     <g id="line2d_7">
      <path clip-path="url(#pa960eb30eb)" d="M 137.910857 298.944 
L 137.910857 3.456 
" style="fill:none;stroke:#b0b0b0;stroke-linecap:square;stroke-width:0.8;"/>
     </g>
     <g id="line2d_8">
      <g>
       <use style="stroke:#000000;stroke-width:0.8;" x="137.910857" xlink:href="#m58909e8866" y="298.944"/>
      </g>
     </g>
     <g id="text_2">
      <!-- 2 -->
      <g transform="translate(131.548357 321.140875)scale(0.2 -0.2)">
       <defs>
        <path d="M 1228 531 
L 3431 531 
L 3431 0 
L 469 0 
L 469 531 
Q 828 903 1448 1529 
Q 2069 2156 2228 2338 
Q 2531 2678 2651 2914 
Q 2772 3150 2772 3378 
Q 2772 3750 2511 3984 
Q 2250 4219 1831 4219 
Q 1534 4219 1204 4116 
Q 875 4013 500 3803 
L 500 4441 
Q 881 4594 1212 4672 
Q 1544 4750 1819 4750 
Q 2544 4750 2975 4387 
Q 3406 4025 3406 3419 
Q 3406 3131 3298 2873 
Q 3191 2616 2906 2266 
Q 2828 2175 2409 1742 
Q 1991 1309 1228 531 
z
" id="DejaVuSans-32" transform="scale(0.015625)"/>
       </defs>
       <use xlink:href="#DejaVuSans-32"/>
      </g>
     </g>
    </g>
    <g id="xtick_3">
     <g id="line2d_9">
      <path clip-path="url(#pa960eb30eb)" d="M 218.221714 298.944 
L 218.221714 3.456 
" style="fill:none;stroke:#b0b0b0;stroke-linecap:square;stroke-width:0.8;"/>
     </g>
     <g id="line2d_10">
      <g>
       <use style="stroke:#000000;stroke-width:0.8;" x="218.221714" xlink:href="#m58909e8866" y="298.944"/>
      </g>
     </g>
     <g id="text_3">
      <!-- 4 -->
      <g transform="translate(211.859214 321.140875)scale(0.2 -0.2)">
       <defs>
        <path d="M 2419 4116 
L 825 1625 
L 2419 1625 
L 2419 4116 
z
M 2253 4666 
L 3047 4666 
L 3047 1625 
L 3713 1625 
L 3713 1100 
L 3047 1100 
L 3047 0 
L 2419 0 
L 2419 1100 
L 313 1100 
L 313 1709 
L 2253 4666 
z
" id="DejaVuSans-34" transform="scale(0.015625)"/>
       </defs>
       <use xlink:href="#DejaVuSans-34"/>
      </g>
     </g>
    </g>
    <g id="xtick_4">
     <g id="line2d_11">
      <path clip-path="url(#pa960eb30eb)" d="M 298.532571 298.944 
L 298.532571 3.456 
" style="fill:none;stroke:#b0b0b0;stroke-linecap:square;stroke-width:0.8;"/>
     </g>
     <g id="line2d_12">
      <g>
       <use style="stroke:#000000;stroke-width:0.8;" x="298.532571" xlink:href="#m58909e8866" y="298.944"/>
      </g>
     </g>
     <g id="text_4">
      <!-- 6 -->
      <g transform="translate(292.170071 321.140875)scale(0.2 -0.2)">
       <defs>
        <path d="M 2113 2584 
Q 1688 2584 1439 2293 
Q 1191 2003 1191 1497 
Q 1191 994 1439 701 
Q 1688 409 2113 409 
Q 2538 409 2786 701 
Q 3034 994 3034 1497 
Q 3034 2003 2786 2293 
Q 2538 2584 2113 2584 
z
M 3366 4563 
L 3366 3988 
Q 3128 4100 2886 4159 
Q 2644 4219 2406 4219 
Q 1781 4219 1451 3797 
Q 1122 3375 1075 2522 
Q 1259 2794 1537 2939 
Q 1816 3084 2150 3084 
Q 2853 3084 3261 2657 
Q 3669 2231 3669 1497 
Q 3669 778 3244 343 
Q 2819 -91 2113 -91 
Q 1303 -91 875 529 
Q 447 1150 447 2328 
Q 447 3434 972 4092 
Q 1497 4750 2381 4750 
Q 2619 4750 2861 4703 
Q 3103 4656 3366 4563 
z
" id="DejaVuSans-36" transform="scale(0.015625)"/>
       </defs>
       <use xlink:href="#DejaVuSans-36"/>
      </g>
     </g>
    </g>
    <g id="xtick_5">
     <g id="line2d_13">
      <path clip-path="url(#pa960eb30eb)" d="M 97.755429 298.944 
L 97.755429 3.456 
" style="fill:none;stroke:#b0b0b0;stroke-linecap:square;stroke-width:0.8;"/>
     </g>
     <g id="line2d_14">
      <defs>
       <path d="M 0 0 
L 0 2 
" id="mc51eeed023" style="stroke:#000000;stroke-width:0.6;"/>
      </defs>
      <g>
       <use style="stroke:#000000;stroke-width:0.6;" x="97.755429" xlink:href="#mc51eeed023" y="298.944"/>
      </g>
     </g>
    </g>
    <g id="xtick_6">
     <g id="line2d_15">
      <path clip-path="url(#pa960eb30eb)" d="M 178.066286 298.944 
L 178.066286 3.456 
" style="fill:none;stroke:#b0b0b0;stroke-linecap:square;stroke-width:0.8;"/>
     </g>
     <g id="line2d_16">
      <g>
       <use style="stroke:#000000;stroke-width:0.6;" x="178.066286" xlink:href="#mc51eeed023" y="298.944"/>
      </g>
     </g>
    </g>
    <g id="xtick_7">
     <g id="line2d_17">
      <path clip-path="url(#pa960eb30eb)" d="M 258.377143 298.944 
L 258.377143 3.456 
" style="fill:none;stroke:#b0b0b0;stroke-linecap:square;stroke-width:0.8;"/>
     </g>
     <g id="line2d_18">
      <g>
       <use style="stroke:#000000;stroke-width:0.6;" x="258.377143" xlink:href="#mc51eeed023" y="298.944"/>
      </g>
     </g>
    </g>
    <g id="xtick_8">
     <g id="line2d_19">
      <path clip-path="url(#pa960eb30eb)" d="M 338.688 298.944 
L 338.688 3.456 
" style="fill:none;stroke:#b0b0b0;stroke-linecap:square;stroke-width:0.8;"/>
     </g>
     <g id="line2d_20">
      <g>
       <use style="stroke:#000000;stroke-width:0.6;" x="338.688" xlink:href="#mc51eeed023" y="298.944"/>
      </g>
     </g>
    </g>
    <g id="text_5">
     <!-- log10(# f-evals / dimension) -->
     <g transform="translate(77.764078 342.217594)scale(0.17 -0.17)">
      <defs>
       <path d="M 603 4863 
L 1178 4863 
L 1178 0 
L 603 0 
L 603 4863 
z
" id="DejaVuSans-6c" transform="scale(0.015625)"/>
       <path d="M 1959 3097 
Q 1497 3097 1228 2736 
Q 959 2375 959 1747 
Q 959 1119 1226 758 
Q 1494 397 1959 397 
Q 2419 397 2687 759 
Q 2956 1122 2956 1747 
Q 2956 2369 2687 2733 
Q 2419 3097 1959 3097 
z
M 1959 3584 
Q 2709 3584 3137 3096 
Q 3566 2609 3566 1747 
Q 3566 888 3137 398 
Q 2709 -91 1959 -91 
Q 1206 -91 779 398 
Q 353 888 353 1747 
Q 353 2609 779 3096 
Q 1206 3584 1959 3584 
z
" id="DejaVuSans-6f" transform="scale(0.015625)"/>
       <path d="M 2906 1791 
Q 2906 2416 2648 2759 
Q 2391 3103 1925 3103 
Q 1463 3103 1205 2759 
Q 947 2416 947 1791 
Q 947 1169 1205 825 
Q 1463 481 1925 481 
Q 2391 481 2648 825 
Q 2906 1169 2906 1791 
z
M 3481 434 
Q 3481 -459 3084 -895 
Q 2688 -1331 1869 -1331 
Q 1566 -1331 1297 -1286 
Q 1028 -1241 775 -1147 
L 775 -588 
Q 1028 -725 1275 -790 
Q 1522 -856 1778 -856 
Q 2344 -856 2625 -561 
Q 2906 -266 2906 331 
L 2906 616 
Q 2728 306 2450 153 
Q 2172 0 1784 0 
Q 1141 0 747 490 
Q 353 981 353 1791 
Q 353 2603 747 3093 
Q 1141 3584 1784 3584 
Q 2172 3584 2450 3431 
Q 2728 3278 2906 2969 
L 2906 3500 
L 3481 3500 
L 3481 434 
z
" id="DejaVuSans-67" transform="scale(0.015625)"/>
       <path d="M 794 531 
L 1825 531 
L 1825 4091 
L 703 3866 
L 703 4441 
L 1819 4666 
L 2450 4666 
L 2450 531 
L 3481 531 
L 3481 0 
L 794 0 
L 794 531 
z
" id="DejaVuSans-31" transform="scale(0.015625)"/>
       <path d="M 1984 4856 
Q 1566 4138 1362 3434 
Q 1159 2731 1159 2009 
Q 1159 1288 1364 580 
Q 1569 -128 1984 -844 
L 1484 -844 
Q 1016 -109 783 600 
Q 550 1309 550 2009 
Q 550 2706 781 3412 
Q 1013 4119 1484 4856 
L 1984 4856 
z
" id="DejaVuSans-28" transform="scale(0.015625)"/>
       <path d="M 3272 2816 
L 2363 2816 
L 2100 1772 
L 3016 1772 
L 3272 2816 
z
M 2803 4594 
L 2478 3297 
L 3391 3297 
L 3719 4594 
L 4219 4594 
L 3897 3297 
L 4872 3297 
L 4872 2816 
L 3775 2816 
L 3519 1772 
L 4513 1772 
L 4513 1294 
L 3397 1294 
L 3072 0 
L 2572 0 
L 2894 1294 
L 1978 1294 
L 1656 0 
L 1153 0 
L 1478 1294 
L 494 1294 
L 494 1772 
L 1594 1772 
L 1856 2816 
L 850 2816 
L 850 3297 
L 1978 3297 
L 2297 4594 
L 2803 4594 
z
" id="DejaVuSans-23" transform="scale(0.015625)"/>
       <path id="DejaVuSans-20" transform="scale(0.015625)"/>
       <path d="M 2375 4863 
L 2375 4384 
L 1825 4384 
Q 1516 4384 1395 4259 
Q 1275 4134 1275 3809 
L 1275 3500 
L 2222 3500 
L 2222 3053 
L 1275 3053 
L 1275 0 
L 697 0 
L 697 3053 
L 147 3053 
L 147 3500 
L 697 3500 
L 697 3744 
Q 697 4328 969 4595 
Q 1241 4863 1831 4863 
L 2375 4863 
z
" id="DejaVuSans-66" transform="scale(0.015625)"/>
       <path d="M 313 2009 
L 1997 2009 
L 1997 1497 
L 313 1497 
L 313 2009 
z
" id="DejaVuSans-2d" transform="scale(0.015625)"/>
       <path d="M 3597 1894 
L 3597 1613 
L 953 1613 
Q 991 1019 1311 708 
Q 1631 397 2203 397 
Q 2534 397 2845 478 
Q 3156 559 3463 722 
L 3463 178 
Q 3153 47 2828 -22 
Q 2503 -91 2169 -91 
Q 1331 -91 842 396 
Q 353 884 353 1716 
Q 353 2575 817 3079 
Q 1281 3584 2069 3584 
Q 2775 3584 3186 3129 
Q 3597 2675 3597 1894 
z
M 3022 2063 
Q 3016 2534 2758 2815 
Q 2500 3097 2075 3097 
Q 1594 3097 1305 2825 
Q 1016 2553 972 2059 
L 3022 2063 
z
" id="DejaVuSans-65" transform="scale(0.015625)"/>
       <path d="M 191 3500 
L 800 3500 
L 1894 563 
L 2988 3500 
L 3597 3500 
L 2284 0 
L 1503 0 
L 191 3500 
z
" id="DejaVuSans-76" transform="scale(0.015625)"/>
       <path d="M 2194 1759 
Q 1497 1759 1228 1600 
Q 959 1441 959 1056 
Q 959 750 1161 570 
Q 1363 391 1709 391 
Q 2188 391 2477 730 
Q 2766 1069 2766 1631 
L 2766 1759 
L 2194 1759 
z
M 3341 1997 
L 3341 0 
L 2766 0 
L 2766 531 
Q 2569 213 2275 61 
Q 1981 -91 1556 -91 
Q 1019 -91 701 211 
Q 384 513 384 1019 
Q 384 1609 779 1909 
Q 1175 2209 1959 2209 
L 2766 2209 
L 2766 2266 
Q 2766 2663 2505 2880 
Q 2244 3097 1772 3097 
Q 1472 3097 1187 3025 
Q 903 2953 641 2809 
L 641 3341 
Q 956 3463 1253 3523 
Q 1550 3584 1831 3584 
Q 2591 3584 2966 3190 
Q 3341 2797 3341 1997 
z
" id="DejaVuSans-61" transform="scale(0.015625)"/>
       <path d="M 2834 3397 
L 2834 2853 
Q 2591 2978 2328 3040 
Q 2066 3103 1784 3103 
Q 1356 3103 1142 2972 
Q 928 2841 928 2578 
Q 928 2378 1081 2264 
Q 1234 2150 1697 2047 
L 1894 2003 
Q 2506 1872 2764 1633 
Q 3022 1394 3022 966 
Q 3022 478 2636 193 
Q 2250 -91 1575 -91 
Q 1294 -91 989 -36 
Q 684 19 347 128 
L 347 722 
Q 666 556 975 473 
Q 1284 391 1588 391 
Q 1994 391 2212 530 
Q 2431 669 2431 922 
Q 2431 1156 2273 1281 
Q 2116 1406 1581 1522 
L 1381 1569 
Q 847 1681 609 1914 
Q 372 2147 372 2553 
Q 372 3047 722 3315 
Q 1072 3584 1716 3584 
Q 2034 3584 2315 3537 
Q 2597 3491 2834 3397 
z
" id="DejaVuSans-73" transform="scale(0.015625)"/>
       <path d="M 1625 4666 
L 2156 4666 
L 531 -594 
L 0 -594 
L 1625 4666 
z
" id="DejaVuSans-2f" transform="scale(0.015625)"/>
       <path d="M 2906 2969 
L 2906 4863 
L 3481 4863 
L 3481 0 
L 2906 0 
L 2906 525 
Q 2725 213 2448 61 
Q 2172 -91 1784 -91 
Q 1150 -91 751 415 
Q 353 922 353 1747 
Q 353 2572 751 3078 
Q 1150 3584 1784 3584 
Q 2172 3584 2448 3432 
Q 2725 3281 2906 2969 
z
M 947 1747 
Q 947 1113 1208 752 
Q 1469 391 1925 391 
Q 2381 391 2643 752 
Q 2906 1113 2906 1747 
Q 2906 2381 2643 2742 
Q 2381 3103 1925 3103 
Q 1469 3103 1208 2742 
Q 947 2381 947 1747 
z
" id="DejaVuSans-64" transform="scale(0.015625)"/>
       <path d="M 603 3500 
L 1178 3500 
L 1178 0 
L 603 0 
L 603 3500 
z
M 603 4863 
L 1178 4863 
L 1178 4134 
L 603 4134 
L 603 4863 
z
" id="DejaVuSans-69" transform="scale(0.015625)"/>
       <path d="M 3328 2828 
Q 3544 3216 3844 3400 
Q 4144 3584 4550 3584 
Q 5097 3584 5394 3201 
Q 5691 2819 5691 2113 
L 5691 0 
L 5113 0 
L 5113 2094 
Q 5113 2597 4934 2840 
Q 4756 3084 4391 3084 
Q 3944 3084 3684 2787 
Q 3425 2491 3425 1978 
L 3425 0 
L 2847 0 
L 2847 2094 
Q 2847 2600 2669 2842 
Q 2491 3084 2119 3084 
Q 1678 3084 1418 2786 
Q 1159 2488 1159 1978 
L 1159 0 
L 581 0 
L 581 3500 
L 1159 3500 
L 1159 2956 
Q 1356 3278 1631 3431 
Q 1906 3584 2284 3584 
Q 2666 3584 2933 3390 
Q 3200 3197 3328 2828 
z
" id="DejaVuSans-6d" transform="scale(0.015625)"/>
       <path d="M 3513 2113 
L 3513 0 
L 2938 0 
L 2938 2094 
Q 2938 2591 2744 2837 
Q 2550 3084 2163 3084 
Q 1697 3084 1428 2787 
Q 1159 2491 1159 1978 
L 1159 0 
L 581 0 
L 581 3500 
L 1159 3500 
L 1159 2956 
Q 1366 3272 1645 3428 
Q 1925 3584 2291 3584 
Q 2894 3584 3203 3211 
Q 3513 2838 3513 2113 
z
" id="DejaVuSans-6e" transform="scale(0.015625)"/>
       <path d="M 513 4856 
L 1013 4856 
Q 1481 4119 1714 3412 
Q 1947 2706 1947 2009 
Q 1947 1309 1714 600 
Q 1481 -109 1013 -844 
L 513 -844 
Q 928 -128 1133 580 
Q 1338 1288 1338 2009 
Q 1338 2731 1133 3434 
Q 928 4138 513 4856 
z
" id="DejaVuSans-29" transform="scale(0.015625)"/>
      </defs>
      <use xlink:href="#DejaVuSans-6c"/>
      <use x="27.783203" xlink:href="#DejaVuSans-6f"/>
      <use x="88.964844" xlink:href="#DejaVuSans-67"/>
      <use x="152.441406" xlink:href="#DejaVuSans-31"/>
      <use x="216.064453" xlink:href="#DejaVuSans-30"/>
      <use x="279.6875" xlink:href="#DejaVuSans-28"/>
      <use x="318.701172" xlink:href="#DejaVuSans-23"/>
      <use x="402.490234" xlink:href="#DejaVuSans-20"/>
      <use x="434.277344" xlink:href="#DejaVuSans-66"/>
      <use x="463.982422" xlink:href="#DejaVuSans-2d"/>
      <use x="500.066406" xlink:href="#DejaVuSans-65"/>
      <use x="561.589844" xlink:href="#DejaVuSans-76"/>
      <use x="620.769531" xlink:href="#DejaVuSans-61"/>
      <use x="682.048828" xlink:href="#DejaVuSans-6c"/>
      <use x="709.832031" xlink:href="#DejaVuSans-73"/>
      <use x="761.931641" xlink:href="#DejaVuSans-20"/>
      <use x="793.71875" xlink:href="#DejaVuSans-2f"/>
      <use x="827.410156" xlink:href="#DejaVuSans-20"/>
      <use x="859.197266" xlink:href="#DejaVuSans-64"/>
      <use x="922.673828" xlink:href="#DejaVuSans-69"/>
      <use x="950.457031" xlink:href="#DejaVuSans-6d"/>
      <use x="1047.869141" xlink:href="#DejaVuSans-65"/>
      <use x="1109.392578" xlink:href="#DejaVuSans-6e"/>
      <use x="1172.771484" xlink:href="#DejaVuSans-73"/>
      <use x="1224.871094" xlink:href="#DejaVuSans-69"/>
      <use x="1252.654297" xlink:href="#DejaVuSans-6f"/>
      <use x="1313.835938" xlink:href="#DejaVuSans-6e"/>
      <use x="1377.214844" xlink:href="#DejaVuSans-29"/>
     </g>
    </g>
   </g>
   <g id="matplotlib.axis_2">
    <g id="ytick_1">
     <g id="line2d_21">
      <path clip-path="url(#pa960eb30eb)" d="M 57.6 298.944 
L 338.688 298.944 
" style="fill:none;stroke:#b0b0b0;stroke-linecap:square;stroke-width:0.8;"/>
     </g>
     <g id="line2d_22">
      <defs>
       <path d="M 0 0 
L -3.5 0 
" id="maa853a17ff" style="stroke:#000000;stroke-width:0.8;"/>
      </defs>
      <g>
       <use style="stroke:#000000;stroke-width:0.8;" x="57.6" xlink:href="#maa853a17ff" y="298.944"/>
      </g>
     </g>
     <g id="text_6">
      <!-- 0.0 -->
      <g transform="translate(25.155 305.02275)scale(0.16 -0.16)">
       <defs>
        <path d="M 684 794 
L 1344 794 
L 1344 0 
L 684 0 
L 684 794 
z
" id="DejaVuSans-2e" transform="scale(0.015625)"/>
       </defs>
       <use xlink:href="#DejaVuSans-30"/>
       <use x="63.623047" xlink:href="#DejaVuSans-2e"/>
       <use x="95.410156" xlink:href="#DejaVuSans-30"/>
      </g>
     </g>
    </g>
    <g id="ytick_2">
     <g id="line2d_23">
      <path clip-path="url(#pa960eb30eb)" d="M 57.6 240.431525 
L 338.688 240.431525 
" style="fill:none;stroke:#b0b0b0;stroke-linecap:square;stroke-width:0.8;"/>
     </g>
     <g id="line2d_24">
      <g>
       <use style="stroke:#000000;stroke-width:0.8;" x="57.6" xlink:href="#maa853a17ff" y="240.431525"/>
      </g>
     </g>
     <g id="text_7">
      <!-- 0.2 -->
      <g transform="translate(25.155 246.510275)scale(0.16 -0.16)">
       <use xlink:href="#DejaVuSans-30"/>
       <use x="63.623047" xlink:href="#DejaVuSans-2e"/>
       <use x="95.410156" xlink:href="#DejaVuSans-32"/>
      </g>
     </g>
    </g>
    <g id="ytick_3">
     <g id="line2d_25">
      <path clip-path="url(#pa960eb30eb)" d="M 57.6 181.91905 
L 338.688 181.91905 
" style="fill:none;stroke:#b0b0b0;stroke-linecap:square;stroke-width:0.8;"/>
     </g>
     <g id="line2d_26">
      <g>
       <use style="stroke:#000000;stroke-width:0.8;" x="57.6" xlink:href="#maa853a17ff" y="181.91905"/>
      </g>
     </g>
     <g id="text_8">
      <!-- 0.4 -->
      <g transform="translate(25.155 187.9978)scale(0.16 -0.16)">
       <use xlink:href="#DejaVuSans-30"/>
       <use x="63.623047" xlink:href="#DejaVuSans-2e"/>
       <use x="95.410156" xlink:href="#DejaVuSans-34"/>
      </g>
     </g>
    </g>
    <g id="ytick_4">
     <g id="line2d_27">
      <path clip-path="url(#pa960eb30eb)" d="M 57.6 123.406574 
L 338.688 123.406574 
" style="fill:none;stroke:#b0b0b0;stroke-linecap:square;stroke-width:0.8;"/>
     </g>
     <g id="line2d_28">
      <g>
       <use style="stroke:#000000;stroke-width:0.8;" x="57.6" xlink:href="#maa853a17ff" y="123.406574"/>
      </g>
     </g>
     <g id="text_9">
      <!-- 0.6 -->
      <g transform="translate(25.155 129.485324)scale(0.16 -0.16)">
       <use xlink:href="#DejaVuSans-30"/>
       <use x="63.623047" xlink:href="#DejaVuSans-2e"/>
       <use x="95.410156" xlink:href="#DejaVuSans-36"/>
      </g>
     </g>
    </g>
    <g id="ytick_5">
     <g id="line2d_29">
      <path clip-path="url(#pa960eb30eb)" d="M 57.6 64.894099 
L 338.688 64.894099 
" style="fill:none;stroke:#b0b0b0;stroke-linecap:square;stroke-width:0.8;"/>
     </g>
     <g id="line2d_30">
      <g>
       <use style="stroke:#000000;stroke-width:0.8;" x="57.6" xlink:href="#maa853a17ff" y="64.894099"/>
      </g>
     </g>
     <g id="text_10">
      <!-- 0.8 -->
      <g transform="translate(25.155 70.972849)scale(0.16 -0.16)">
       <defs>
        <path d="M 2034 2216 
Q 1584 2216 1326 1975 
Q 1069 1734 1069 1313 
Q 1069 891 1326 650 
Q 1584 409 2034 409 
Q 2484 409 2743 651 
Q 3003 894 3003 1313 
Q 3003 1734 2745 1975 
Q 2488 2216 2034 2216 
z
M 1403 2484 
Q 997 2584 770 2862 
Q 544 3141 544 3541 
Q 544 4100 942 4425 
Q 1341 4750 2034 4750 
Q 2731 4750 3128 4425 
Q 3525 4100 3525 3541 
Q 3525 3141 3298 2862 
Q 3072 2584 2669 2484 
Q 3125 2378 3379 2068 
Q 3634 1759 3634 1313 
Q 3634 634 3220 271 
Q 2806 -91 2034 -91 
Q 1263 -91 848 271 
Q 434 634 434 1313 
Q 434 1759 690 2068 
Q 947 2378 1403 2484 
z
M 1172 3481 
Q 1172 3119 1398 2916 
Q 1625 2713 2034 2713 
Q 2441 2713 2670 2916 
Q 2900 3119 2900 3481 
Q 2900 3844 2670 4047 
Q 2441 4250 2034 4250 
Q 1625 4250 1398 4047 
Q 1172 3844 1172 3481 
z
" id="DejaVuSans-38" transform="scale(0.015625)"/>
       </defs>
       <use xlink:href="#DejaVuSans-30"/>
       <use x="63.623047" xlink:href="#DejaVuSans-2e"/>
       <use x="95.410156" xlink:href="#DejaVuSans-38"/>
      </g>
     </g>
    </g>
    <g id="ytick_6">
     <g id="line2d_31">
      <path clip-path="url(#pa960eb30eb)" d="M 57.6 6.381624 
L 338.688 6.381624 
" style="fill:none;stroke:#b0b0b0;stroke-linecap:square;stroke-width:0.8;"/>
     </g>
     <g id="line2d_32">
      <g>
       <use style="stroke:#000000;stroke-width:0.8;" x="57.6" xlink:href="#maa853a17ff" y="6.381624"/>
      </g>
     </g>
     <g id="text_11">
      <!-- 1.0 -->
      <g transform="translate(25.155 12.460374)scale(0.16 -0.16)">
       <use xlink:href="#DejaVuSans-31"/>
       <use x="63.623047" xlink:href="#DejaVuSans-2e"/>
       <use x="95.410156" xlink:href="#DejaVuSans-30"/>
      </g>
     </g>
    </g>
    <g id="text_12">
     <!-- Fraction of function,target pairs -->
     <g transform="translate(17.619531 285.585)rotate(-90)scale(0.17 -0.17)">
      <defs>
       <path d="M 628 4666 
L 3309 4666 
L 3309 4134 
L 1259 4134 
L 1259 2759 
L 3109 2759 
L 3109 2228 
L 1259 2228 
L 1259 0 
L 628 0 
L 628 4666 
z
" id="DejaVuSans-46" transform="scale(0.015625)"/>
       <path d="M 2631 2963 
Q 2534 3019 2420 3045 
Q 2306 3072 2169 3072 
Q 1681 3072 1420 2755 
Q 1159 2438 1159 1844 
L 1159 0 
L 581 0 
L 581 3500 
L 1159 3500 
L 1159 2956 
Q 1341 3275 1631 3429 
Q 1922 3584 2338 3584 
Q 2397 3584 2469 3576 
Q 2541 3569 2628 3553 
L 2631 2963 
z
" id="DejaVuSans-72" transform="scale(0.015625)"/>
       <path d="M 3122 3366 
L 3122 2828 
Q 2878 2963 2633 3030 
Q 2388 3097 2138 3097 
Q 1578 3097 1268 2742 
Q 959 2388 959 1747 
Q 959 1106 1268 751 
Q 1578 397 2138 397 
Q 2388 397 2633 464 
Q 2878 531 3122 666 
L 3122 134 
Q 2881 22 2623 -34 
Q 2366 -91 2075 -91 
Q 1284 -91 818 406 
Q 353 903 353 1747 
Q 353 2603 823 3093 
Q 1294 3584 2113 3584 
Q 2378 3584 2631 3529 
Q 2884 3475 3122 3366 
z
" id="DejaVuSans-63" transform="scale(0.015625)"/>
       <path d="M 1172 4494 
L 1172 3500 
L 2356 3500 
L 2356 3053 
L 1172 3053 
L 1172 1153 
Q 1172 725 1289 603 
Q 1406 481 1766 481 
L 2356 481 
L 2356 0 
L 1766 0 
Q 1100 0 847 248 
Q 594 497 594 1153 
L 594 3053 
L 172 3053 
L 172 3500 
L 594 3500 
L 594 4494 
L 1172 4494 
z
" id="DejaVuSans-74" transform="scale(0.015625)"/>
       <path d="M 544 1381 
L 544 3500 
L 1119 3500 
L 1119 1403 
Q 1119 906 1312 657 
Q 1506 409 1894 409 
Q 2359 409 2629 706 
Q 2900 1003 2900 1516 
L 2900 3500 
L 3475 3500 
L 3475 0 
L 2900 0 
L 2900 538 
Q 2691 219 2414 64 
Q 2138 -91 1772 -91 
Q 1169 -91 856 284 
Q 544 659 544 1381 
z
M 1991 3584 
L 1991 3584 
z
" id="DejaVuSans-75" transform="scale(0.015625)"/>
       <path d="M 750 794 
L 1409 794 
L 1409 256 
L 897 -744 
L 494 -744 
L 750 256 
L 750 794 
z
" id="DejaVuSans-2c" transform="scale(0.015625)"/>
       <path d="M 1159 525 
L 1159 -1331 
L 581 -1331 
L 581 3500 
L 1159 3500 
L 1159 2969 
Q 1341 3281 1617 3432 
Q 1894 3584 2278 3584 
Q 2916 3584 3314 3078 
Q 3713 2572 3713 1747 
Q 3713 922 3314 415 
Q 2916 -91 2278 -91 
Q 1894 -91 1617 61 
Q 1341 213 1159 525 
z
M 3116 1747 
Q 3116 2381 2855 2742 
Q 2594 3103 2138 3103 
Q 1681 3103 1420 2742 
Q 1159 2381 1159 1747 
Q 1159 1113 1420 752 
Q 1681 391 2138 391 
Q 2594 391 2855 752 
Q 3116 1113 3116 1747 
z
" id="DejaVuSans-70" transform="scale(0.015625)"/>
      </defs>
      <use xlink:href="#DejaVuSans-46"/>
      <use x="50.269531" xlink:href="#DejaVuSans-72"/>
      <use x="91.382812" xlink:href="#DejaVuSans-61"/>
      <use x="152.662109" xlink:href="#DejaVuSans-63"/>
      <use x="207.642578" xlink:href="#DejaVuSans-74"/>
      <use x="246.851562" xlink:href="#DejaVuSans-69"/>
      <use x="274.634766" xlink:href="#DejaVuSans-6f"/>
      <use x="335.816406" xlink:href="#DejaVuSans-6e"/>
      <use x="399.195312" xlink:href="#DejaVuSans-20"/>
      <use x="430.982422" xlink:href="#DejaVuSans-6f"/>
      <use x="492.164062" xlink:href="#DejaVuSans-66"/>
      <use x="527.369141" xlink:href="#DejaVuSans-20"/>
      <use x="559.15625" xlink:href="#DejaVuSans-66"/>
      <use x="594.361328" xlink:href="#DejaVuSans-75"/>
      <use x="657.740234" xlink:href="#DejaVuSans-6e"/>
      <use x="721.119141" xlink:href="#DejaVuSans-63"/>
      <use x="776.099609" xlink:href="#DejaVuSans-74"/>
      <use x="815.308594" xlink:href="#DejaVuSans-69"/>
      <use x="843.091797" xlink:href="#DejaVuSans-6f"/>
      <use x="904.273438" xlink:href="#DejaVuSans-6e"/>
      <use x="967.652344" xlink:href="#DejaVuSans-2c"/>
      <use x="999.439453" xlink:href="#DejaVuSans-74"/>
      <use x="1038.648438" xlink:href="#DejaVuSans-61"/>
      <use x="1099.927734" xlink:href="#DejaVuSans-72"/>
      <use x="1139.291016" xlink:href="#DejaVuSans-67"/>
      <use x="1202.767578" xlink:href="#DejaVuSans-65"/>
      <use x="1264.291016" xlink:href="#DejaVuSans-74"/>
      <use x="1303.5" xlink:href="#DejaVuSans-20"/>
      <use x="1335.287109" xlink:href="#DejaVuSans-70"/>
      <use x="1398.763672" xlink:href="#DejaVuSans-61"/>
      <use x="1460.042969" xlink:href="#DejaVuSans-69"/>
      <use x="1487.826172" xlink:href="#DejaVuSans-72"/>
      <use x="1528.939453" xlink:href="#DejaVuSans-73"/>
     </g>
    </g>
   </g>
   <g id="line2d_33">
    <defs>
     <path d="M 0 1.5 
C 0.397805 1.5 0.77937 1.341951 1.06066 1.06066 
C 1.341951 0.77937 1.5 0.397805 1.5 0 
C 1.5 -0.397805 1.341951 -0.77937 1.06066 -1.06066 
C 0.77937 -1.341951 0.397805 -1.5 0 -1.5 
C -0.397805 -1.5 -0.77937 -1.341951 -1.06066 -1.06066 
C -1.341951 -0.77937 -1.5 -0.397805 -1.5 0 
C -1.5 0.397805 -1.341951 0.77937 -1.06066 1.06066 
C -0.77937 1.341951 -0.397805 1.5 0 1.5 
z
" id="m7736dc38bc" style="stroke:#f5deb3;"/>
    </defs>
    <g>
     <use style="fill:#f5deb3;stroke:#f5deb3;" x="198.813426" xlink:href="#m7736dc38bc" y="6.381624"/>
     <use style="fill:#f5deb3;stroke:#f5deb3;" x="198.813426" xlink:href="#m7736dc38bc" y="6.381624"/>
    </g>
   </g>
   <g id="line2d_34">
    <defs>
     <path d="M 0 1.5 
C 0.397805 1.5 0.77937 1.341951 1.06066 1.06066 
C 1.341951 0.77937 1.5 0.397805 1.5 0 
C 1.5 -0.397805 1.341951 -0.77937 1.06066 -1.06066 
C 0.77937 -1.341951 0.397805 -1.5 0 -1.5 
C -0.397805 -1.5 -0.77937 -1.341951 -1.06066 -1.06066 
C -1.341951 -0.77937 -1.5 -0.397805 -1.5 0 
C -1.5 0.397805 -1.341951 0.77937 -1.06066 1.06066 
C -0.77937 1.341951 -0.397805 1.5 0 1.5 
z
" id="m6795667866" style="stroke:#000080;"/>
    </defs>
    <g>
     <use style="fill:#000080;stroke:#000080;" x="253.646289" xlink:href="#m6795667866" y="286.323662"/>
     <use style="fill:#000080;stroke:#000080;" x="253.646289" xlink:href="#m6795667866" y="286.323662"/>
    </g>
   </g>
   <g id="line2d_35">
    <path d="M -1 298.82927 
L 40.495043 298.82927 
L 40.495043 298.714539 
L 42.677798 298.714539 
L 42.677798 298.599809 
L 46.362877 298.599809 
L 46.362877 298.485079 
L 51.379845 298.485079 
L 51.379845 298.370348 
L 55.762588 298.370348 
L 55.762588 298.255618 
L 59.654051 298.255618 
L 59.654051 298.140888 
L 76.16779 298.140888 
L 76.16779 298.026157 
L 81.884633 298.026157 
L 81.884633 297.911427 
L 85.754419 297.911427 
L 85.754419 297.796697 
L 97.842408 297.796697 
L 97.842408 297.681966 
L 113.752311 297.681966 
L 113.752311 297.567236 
L 121.942302 297.567236 
L 121.942302 297.452506 
L 122.688595 297.452506 
L 122.688595 297.337775 
L 129.082173 297.337775 
L 129.082173 297.223045 
L 134.338003 297.223045 
L 134.338003 297.108315 
L 137.189866 297.108315 
L 137.189866 296.993584 
L 138.770025 296.993584 
L 138.770025 296.878854 
L 142.51311 296.878854 
L 142.51311 296.764123 
L 143.196061 296.764123 
L 143.196061 296.649393 
L 145.005114 296.649393 
L 145.005114 296.534663 
L 146.955653 296.534663 
L 146.955653 296.419932 
L 149.12955 296.419932 
L 149.12955 296.305202 
L 150.014098 296.305202 
L 150.014098 296.190472 
L 152.147587 296.190472 
L 152.147587 296.075741 
L 155.577798 296.075741 
L 155.577798 295.961011 
L 157.732873 295.961011 
L 157.732873 295.846281 
L 158.476481 295.846281 
L 158.476481 295.73155 
L 159.292327 295.73155 
L 159.292327 295.61682 
L 161.003133 295.61682 
L 161.003133 295.50209 
L 161.238149 295.50209 
L 161.238149 295.387359 
L 162.554634 295.387359 
L 162.554634 295.272629 
L 163.350082 295.272629 
L 163.350082 295.157899 
L 164.15154 295.157899 
L 164.15154 295.043168 
L 165.460589 295.043168 
L 165.460589 294.928438 
L 166.053125 294.928438 
L 166.053125 294.813708 
L 166.338167 294.813708 
L 166.338167 294.698977 
L 168.037773 294.698977 
L 168.113543 294.469517 
L 168.485263 294.469517 
L 168.485263 294.354786 
L 169.345764 294.354786 
L 169.447543 294.125326 
L 169.462544 294.125326 
L 169.492509 293.895865 
L 170.557765 293.895865 
L 170.557765 293.781135 
L 171.082896 293.781135 
L 171.082896 293.666404 
L 171.996209 293.666404 
L 171.996209 293.551674 
L 172.934422 293.551674 
L 172.936177 293.322213 
L 174.096716 293.322213 
L 174.096716 293.207483 
L 174.416742 293.207483 
L 174.42319 292.978022 
L 174.926271 292.978022 
L 175.028283 292.748561 
L 175.039696 292.748561 
L 175.039696 292.633831 
L 175.399504 292.633831 
L 175.399504 292.519101 
L 176.272901 292.519101 
L 176.272901 292.40437 
L 177.510811 292.40437 
L 177.558007 292.17491 
L 177.8182 292.17491 
L 177.8182 292.060179 
L 177.986756 292.060179 
L 177.986756 291.945449 
L 178.248444 291.945449 
L 178.248444 291.830719 
L 178.460715 291.830719 
L 178.460715 291.715988 
L 178.834326 291.715988 
L 178.922133 291.486528 
L 179.188248 291.486528 
L 179.250278 291.257067 
L 179.462039 291.257067 
L 179.462039 291.142337 
L 179.667282 291.142337 
L 179.667282 291.027606 
L 179.891355 291.027606 
L 179.918427 290.683415 
L 180.285036 290.683415 
L 180.285036 290.568685 
L 180.880541 290.568685 
L 180.880541 290.453955 
L 181.027949 290.453955 
L 181.029421 290.224494 
L 181.17704 290.224494 
L 181.251292 289.880303 
L 181.397412 289.880303 
L 181.397412 289.765573 
L 181.826461 289.765573 
L 181.890303 289.536112 
L 191.96363 289.536112 
L 191.96363 289.421381 
L 192.715907 289.421381 
L 192.715907 289.306651 
L 192.842489 289.306651 
L 192.842489 289.191921 
L 193.408334 289.191921 
L 193.408334 289.07719 
L 193.695018 289.07719 
L 193.767819 288.732999 
L 193.906365 288.732999 
L 193.906365 288.618269 
L 200.599229 288.618269 
L 200.599229 288.503539 
L 200.88373 288.503539 
L 200.88373 288.388808 
L 205.674395 288.388808 
L 205.674395 288.274078 
L 205.905882 288.274078 
L 205.905882 288.159348 
L 209.969574 288.159348 
L 209.969574 288.044617 
L 212.994856 288.044617 
L 213.053181 287.815157 
L 215.763191 287.815157 
L 215.763191 287.700426 
L 218.186976 287.700426 
L 218.186976 287.585696 
L 220.198435 287.585696 
L 220.261227 287.356235 
L 223.712074 287.356235 
L 223.712074 287.241505 
L 225.281831 287.241505 
L 225.281831 287.126775 
L 226.678558 287.126775 
L 226.678558 287.012044 
L 234.194625 287.012044 
L 234.194625 286.897314 
L 236.632826 286.897314 
L 236.632826 286.782584 
L 238.771579 286.782584 
L 238.771579 286.553123 
L 241.267825 286.553123 
L 241.267825 286.438393 
L 253.646289 286.438393 
L 253.646289 286.323662 
L 338.688 286.323662 
L 338.688 286.323662 
" style="fill:none;stroke:#000080;stroke-linecap:square;stroke-width:1.5;"/>
   </g>
   <g id="line2d_36">
    <defs>
     <path d="M 0 6 
C 1.591219 6 3.117479 5.367802 4.242641 4.242641 
C 5.367802 3.117479 6 1.591219 6 0 
C 6 -1.591219 5.367802 -3.117479 4.242641 -4.242641 
C 3.117479 -5.367802 1.591219 -6 0 -6 
C -1.591219 -6 -3.117479 -5.367802 -4.242641 -4.242641 
C -5.367802 -3.117479 -6 -1.591219 -6 0 
C -6 1.591219 -5.367802 3.117479 -4.242641 4.242641 
C -3.117479 5.367802 -1.591219 6 0 6 
z
" id="m2a17e8ade6" style="stroke:#000080;stroke-width:1.5;"/>
    </defs>
    <g>
     <use style="fill-opacity:0;stroke:#000080;stroke-width:1.5;" x="97.842408" xlink:href="#m2a17e8ade6" y="297.796697"/>
     <use style="fill-opacity:0;stroke:#000080;stroke-width:1.5;" x="177.8182" xlink:href="#m2a17e8ade6" y="292.060179"/>
     <use style="fill-opacity:0;stroke:#000080;stroke-width:1.5;" x="253.646289" xlink:href="#m2a17e8ade6" y="286.438393"/>
     <use style="fill-opacity:0;stroke:#000080;stroke-width:1.5;" x="253.646289" xlink:href="#m2a17e8ade6" y="286.323662"/>
     <use style="fill-opacity:0;stroke:#000080;stroke-width:1.5;" x="338.688" xlink:href="#m2a17e8ade6" y="286.323662"/>
    </g>
   </g>
   <g id="line2d_37">
    <path style="fill:none;stroke:#000080;stroke-linecap:square;stroke-width:1.5;"/>
    <g/>
   </g>
   <g id="line2d_38">
    <path clip-path="url(#pa960eb30eb)" d="M 181.957749 289.536112 
" style="fill:none;stroke:#000080;stroke-linecap:square;stroke-width:1.5;"/>
    <defs>
     <path d="M -12 12 
L 12 -12 
M -12 -12 
L 12 12 
" id="m55e8c3d2bb" style="stroke:#000080;"/>
    </defs>
    <g clip-path="url(#pa960eb30eb)">
     <use style="fill:#000080;stroke:#000080;" x="181.957749" xlink:href="#m55e8c3d2bb" y="289.536112"/>
    </g>
   </g>
   <g id="line2d_39">
    <defs>
     <path d="M 0 1.5 
C 0.397805 1.5 0.77937 1.341951 1.06066 1.06066 
C 1.341951 0.77937 1.5 0.397805 1.5 0 
C 1.5 -0.397805 1.341951 -0.77937 1.06066 -1.06066 
C 0.77937 -1.341951 0.397805 -1.5 0 -1.5 
C -0.397805 -1.5 -0.77937 -1.341951 -1.06066 -1.06066 
C -1.341951 -0.77937 -1.5 -0.397805 -1.5 0 
C -1.5 0.397805 -1.341951 0.77937 -1.06066 1.06066 
C -0.77937 1.341951 -0.397805 1.5 0 1.5 
z
" id="m48c87f6938" style="stroke:#ff00ff;"/>
    </defs>
    <g>
     <use style="fill:#ff00ff;stroke:#ff00ff;" x="247.139654" xlink:href="#m48c87f6938" y="262.23029"/>
     <use style="fill:#ff00ff;stroke:#ff00ff;" x="247.139654" xlink:href="#m48c87f6938" y="262.23029"/>
    </g>
   </g>
   <g id="line2d_40">
    <path d="M 29.53256 298.944 
L 29.53256 298.82927 
L 50.087456 298.82927 
L 50.087456 298.714539 
L 53.708537 298.714539 
L 53.708537 298.599809 
L 70.329998 298.599809 
L 70.329998 298.485079 
L 74.75937 298.485079 
L 74.75937 298.370348 
L 86.098061 298.370348 
L 86.098061 298.255618 
L 86.435063 298.255618 
L 86.435063 298.140888 
L 88.104788 298.140888 
L 88.104788 298.026157 
L 89.766929 298.026157 
L 89.766929 297.911427 
L 93.863965 297.911427 
L 93.863965 297.796697 
L 98.853664 297.796697 
L 98.853664 297.681966 
L 102.924327 297.681966 
L 102.924327 297.567236 
L 105.787689 297.567236 
L 105.787689 297.452506 
L 113.839203 297.452506 
L 113.839203 297.337775 
L 117.373392 297.337775 
L 117.373392 297.223045 
L 117.765302 297.223045 
L 117.765302 297.108315 
L 122.083336 297.108315 
L 122.083336 296.993584 
L 125.918522 296.993584 
L 125.918522 296.878854 
L 129.347769 296.878854 
L 129.347769 296.764123 
L 130.491965 296.764123 
L 130.491965 296.649393 
L 132.998212 296.649393 
L 132.998212 296.534663 
L 134.111795 296.534663 
L 134.111795 296.419932 
L 134.305866 296.419932 
L 134.305866 296.305202 
L 136.184509 296.305202 
L 136.184509 296.190472 
L 137.034686 296.190472 
L 137.034686 296.075741 
L 138.927025 296.075741 
L 138.927025 295.961011 
L 141.378673 295.961011 
L 141.378673 295.846281 
L 142.516459 295.846281 
L 142.516459 295.73155 
L 142.936543 295.73155 
L 142.936543 295.61682 
L 143.803587 295.61682 
L 143.803587 295.50209 
L 145.126602 295.50209 
L 145.126602 295.387359 
L 146.153644 295.387359 
L 146.262014 295.157899 
L 146.730997 295.157899 
L 146.730997 295.043168 
L 147.177451 295.043168 
L 147.177451 294.928438 
L 148.646321 294.928438 
L 148.646321 294.813708 
L 150.607205 294.813708 
L 150.607205 294.698977 
L 151.68673 294.698977 
L 151.751909 294.469517 
L 151.949896 294.469517 
L 152.056772 294.240056 
L 152.491079 294.240056 
L 152.491079 294.125326 
L 153.561106 294.125326 
L 153.561106 294.010595 
L 154.592725 294.010595 
L 154.592725 293.895865 
L 155.022897 293.895865 
L 155.022897 293.781135 
L 155.958306 293.781135 
L 155.958306 293.666404 
L 156.49818 293.666404 
L 156.501183 293.436944 
L 156.791534 293.436944 
L 156.791534 293.322213 
L 157.101808 293.322213 
L 157.101808 293.207483 
L 157.366699 293.207483 
L 157.398103 292.978022 
L 157.991176 292.978022 
L 157.991176 292.863292 
L 158.203544 292.863292 
L 158.203544 292.748561 
L 158.755771 292.748561 
L 158.841319 292.519101 
L 159.561469 292.519101 
L 159.561469 292.40437 
L 160.020244 292.40437 
L 160.070482 292.17491 
L 160.497133 292.17491 
L 160.525765 291.945449 
L 160.746084 291.945449 
L 160.746084 291.830719 
L 162.099909 291.830719 
L 162.155366 291.601258 
L 162.949114 291.601258 
L 162.982279 291.371797 
L 163.363257 291.371797 
L 163.363257 291.257067 
L 163.947011 291.257067 
L 164.033985 291.027606 
L 164.141854 291.027606 
L 164.141854 290.912876 
L 164.335503 290.912876 
L 164.386208 290.683415 
L 164.545021 290.683415 
L 164.545021 290.568685 
L 165.092038 290.568685 
L 165.092038 290.453955 
L 166.497167 290.453955 
L 166.510705 290.224494 
L 166.674012 290.224494 
L 166.691599 289.995033 
L 166.874777 289.995033 
L 166.874777 289.880303 
L 167.000222 289.880303 
L 167.000222 289.765573 
L 167.351096 289.765573 
L 167.351096 289.650842 
L 167.483574 289.650842 
L 167.513144 289.421381 
L 167.968676 289.421381 
L 167.968676 289.306651 
L 168.13436 289.306651 
L 168.13436 289.191921 
L 168.865489 289.191921 
L 168.889118 288.96246 
L 169.008987 288.96246 
L 169.008987 288.84773 
L 169.309064 288.84773 
L 169.325624 288.618269 
L 169.484666 288.618269 
L 169.590602 288.388808 
L 169.628837 288.388808 
L 169.628837 288.274078 
L 169.787252 288.274078 
L 169.873945 288.044617 
L 169.912956 288.044617 
L 170.017714 287.815157 
L 170.086745 287.815157 
L 170.156876 287.585696 
L 170.420426 287.585696 
L 170.420426 287.470966 
L 170.700684 287.470966 
L 170.700684 287.356235 
L 170.958823 287.356235 
L 170.96472 287.126775 
L 171.216426 287.126775 
L 171.216426 287.012044 
L 171.343815 287.012044 
L 171.360474 286.782584 
L 171.605309 286.782584 
L 171.611622 286.553123 
L 171.729271 286.553123 
L 171.757464 286.323662 
L 172.00732 286.323662 
L 172.00732 286.208932 
L 172.366452 286.208932 
L 172.366452 286.094202 
L 172.491742 286.094202 
L 172.491742 285.979471 
L 172.701148 285.979471 
L 172.701148 285.864741 
L 172.829952 285.864741 
L 172.829952 285.75001 
L 172.980004 285.75001 
L 172.980004 285.63528 
L 173.177316 285.63528 
L 173.177316 285.52055 
L 173.746149 285.52055 
L 173.84973 285.176359 
L 173.870261 285.176359 
L 173.870261 285.061628 
L 174.074805 285.061628 
L 174.177547 284.717437 
L 174.197152 284.717437 
L 174.284021 284.373246 
L 174.393077 284.373246 
L 174.442521 284.143786 
L 174.506269 284.143786 
L 174.61448 283.914325 
L 174.664361 283.914325 
L 174.741027 283.455404 
L 174.934099 283.455404 
L 174.945053 283.225943 
L 175.171443 283.225943 
L 175.254114 282.881752 
L 175.656688 282.881752 
L 175.74158 282.537561 
L 175.936263 282.537561 
L 175.941188 282.19337 
L 176.108809 282.19337 
L 176.108809 282.078639 
L 176.288357 282.078639 
L 176.288357 281.963909 
L 176.423013 281.963909 
L 176.423492 281.734448 
L 176.597948 281.734448 
L 176.597948 281.619718 
L 176.896545 281.619718 
L 176.992324 281.046066 
L 177.021049 281.046066 
L 177.021049 280.931336 
L 177.174062 280.931336 
L 177.242757 280.701875 
L 177.385234 280.701875 
L 177.493699 280.357684 
L 177.537346 280.357684 
L 177.62655 280.013493 
L 177.786773 280.013493 
L 177.786773 279.898763 
L 177.949927 279.898763 
L 178.02001 279.325111 
L 178.071081 279.325111 
L 178.084587 279.095651 
L 178.241539 279.095651 
L 178.330657 278.86619 
L 178.412912 278.86619 
L 178.505837 278.636729 
L 178.533873 278.636729 
L 178.602076 278.292538 
L 178.666643 278.292538 
L 178.767027 277.948347 
L 178.879325 277.948347 
L 178.879325 277.833617 
L 179.112864 277.833617 
L 179.17107 277.374695 
L 179.339669 277.374695 
L 179.339669 277.259965 
L 179.554357 277.259965 
L 179.649773 277.030504 
L 179.729616 277.030504 
L 179.729616 276.915774 
L 179.842203 276.915774 
L 179.902346 276.571583 
L 179.96541 276.571583 
L 180.036427 276.227392 
L 180.081928 276.227392 
L 180.081928 276.112662 
L 180.226586 276.112662 
L 180.286956 275.768471 
L 180.351707 275.768471 
L 180.462261 275.194819 
L 180.583066 275.194819 
L 180.583066 275.080089 
L 180.804691 275.080089 
L 180.883509 274.621167 
L 181.029421 274.621167 
L 181.113457 274.162246 
L 181.246569 274.162246 
L 181.353416 273.359133 
L 181.385883 273.359133 
L 181.390928 273.129673 
L 181.535174 273.129673 
L 181.614679 272.785482 
L 181.68178 272.785482 
L 181.765559 272.21183 
L 181.838054 272.21183 
L 181.942395 271.867639 
L 188.707976 271.867639 
L 188.798687 271.638178 
L 190.616343 271.638178 
L 190.720479 271.293987 
L 190.777573 271.293987 
L 190.777573 271.179257 
L 191.295645 271.179257 
L 191.295645 271.064526 
L 191.976987 271.064526 
L 192.05379 270.835066 
L 192.169917 270.835066 
L 192.176907 270.605605 
L 192.363233 270.605605 
L 192.363233 270.490875 
L 192.477706 270.490875 
L 192.477706 270.376144 
L 192.747122 270.376144 
L 192.747122 270.261414 
L 192.967231 270.261414 
L 193.020024 270.031953 
L 193.370669 270.031953 
L 193.370669 269.917223 
L 193.6287 269.917223 
L 193.693773 269.573032 
L 193.746188 269.573032 
L 193.83573 269.228841 
L 193.908299 269.228841 
L 194.018511 268.88465 
L 198.214981 268.88465 
L 198.214981 268.76992 
L 198.971785 268.76992 
L 198.971785 268.655189 
L 199.491073 268.655189 
L 199.491073 268.540459 
L 199.663274 268.540459 
L 199.663274 268.425729 
L 200.017027 268.425729 
L 200.017027 268.310998 
L 200.286981 268.310998 
L 200.286981 268.196268 
L 200.626753 268.196268 
L 200.626753 268.081538 
L 200.759216 268.081538 
L 200.765386 267.852077 
L 201.000691 267.852077 
L 201.048378 267.622616 
L 204.6798 267.622616 
L 204.6798 267.507886 
L 205.130009 267.507886 
L 205.130009 267.393156 
L 205.338694 267.393156 
L 205.338694 267.278425 
L 205.458748 267.278425 
L 205.458748 267.163695 
L 205.958631 267.163695 
L 206.011309 266.704773 
L 206.129889 266.704773 
L 206.129889 266.590043 
L 209.006207 266.590043 
L 209.068071 266.360582 
L 209.730217 266.360582 
L 209.758289 266.016391 
L 212.794792 266.016391 
L 212.852603 265.786931 
L 213.029945 265.786931 
L 213.088212 265.55747 
L 213.184854 265.55747 
L 213.184854 265.44274 
L 215.377342 265.44274 
L 215.377342 265.328009 
L 215.793184 265.328009 
L 215.89083 264.869088 
L 217.887491 264.869088 
L 217.970886 264.524897 
L 220.183949 264.524897 
L 220.262507 264.295436 
L 221.817957 264.295436 
L 221.817957 264.180706 
L 221.980238 264.180706 
L 222.04335 263.951245 
L 222.111643 263.951245 
L 222.111643 263.836515 
L 225.237947 263.836515 
L 225.282791 263.607054 
L 226.679443 263.607054 
L 226.679443 263.492324 
L 227.972489 263.492324 
L 227.972489 263.377593 
L 229.183174 263.377593 
L 229.183174 263.262863 
L 231.359934 263.262863 
L 231.359934 263.148133 
L 235.002267 263.148133 
L 235.002267 263.033402 
L 235.862609 263.033402 
L 235.862609 262.918672 
L 238.087857 262.918672 
L 238.087857 262.803942 
L 239.434206 262.803942 
L 239.434206 262.689211 
L 240.064739 262.689211 
L 240.064739 262.574481 
L 240.680438 262.574481 
L 240.680438 262.459751 
L 247.139654 262.459751 
L 247.139654 262.23029 
L 338.688 262.23029 
L 338.688 262.23029 
" style="fill:none;stroke:#ff00ff;stroke-linecap:square;stroke-width:1.5;"/>
   </g>
   <g id="line2d_41">
    <defs>
     <path d="M 0 8.485281 
L 5.091169 0 
L 0 -8.485281 
L -5.091169 0 
z
" id="macb739f8d3" style="stroke:#ff00ff;stroke-linejoin:miter;stroke-width:1.5;"/>
    </defs>
    <g>
     <use style="fill-opacity:0;stroke:#ff00ff;stroke-linejoin:miter;stroke-width:1.5;" x="141.378673" xlink:href="#macb739f8d3" y="295.846281"/>
     <use style="fill-opacity:0;stroke:#ff00ff;stroke-linejoin:miter;stroke-width:1.5;" x="181.942395" xlink:href="#macb739f8d3" y="271.867639"/>
     <use style="fill-opacity:0;stroke:#ff00ff;stroke-linejoin:miter;stroke-width:1.5;" x="247.139654" xlink:href="#macb739f8d3" y="262.459751"/>
     <use style="fill-opacity:0;stroke:#ff00ff;stroke-linejoin:miter;stroke-width:1.5;" x="247.139654" xlink:href="#macb739f8d3" y="262.23029"/>
     <use style="fill-opacity:0;stroke:#ff00ff;stroke-linejoin:miter;stroke-width:1.5;" x="247.139654" xlink:href="#macb739f8d3" y="262.23029"/>
     <use style="fill-opacity:0;stroke:#ff00ff;stroke-linejoin:miter;stroke-width:1.5;" x="338.688" xlink:href="#macb739f8d3" y="262.23029"/>
    </g>
   </g>
   <g id="line2d_42">
    <path style="fill:none;stroke:#ff00ff;stroke-linecap:square;stroke-width:1.5;"/>
    <g/>
   </g>
   <g id="line2d_43">
    <path clip-path="url(#pa960eb30eb)" d="M 181.957749 271.867639 
" style="fill:none;stroke:#ff00ff;stroke-linecap:square;stroke-width:1.5;"/>
    <defs>
     <path d="M -12 12 
L 12 -12 
M -12 -12 
L 12 12 
" id="md9a8a3cef3" style="stroke:#ff00ff;"/>
    </defs>
    <g clip-path="url(#pa960eb30eb)">
     <use style="fill:#ff00ff;stroke:#ff00ff;" x="181.957749" xlink:href="#md9a8a3cef3" y="271.867639"/>
    </g>
   </g>
   <g id="line2d_44">
    <defs>
     <path d="M 0 1.5 
C 0.397805 1.5 0.77937 1.341951 1.06066 1.06066 
C 1.341951 0.77937 1.5 0.397805 1.5 0 
C 1.5 -0.397805 1.341951 -0.77937 1.06066 -1.06066 
C 0.77937 -1.341951 0.397805 -1.5 0 -1.5 
C -0.397805 -1.5 -0.77937 -1.341951 -1.06066 -1.06066 
C -1.341951 -0.77937 -1.5 -0.397805 -1.5 0 
C -1.5 0.397805 -1.341951 0.77937 -1.06066 1.06066 
C -0.77937 1.341951 -0.397805 1.5 0 1.5 
z
" id="m6ee1096d4e" style="stroke:#ff7500;"/>
    </defs>
    <g>
     <use style="fill:#ff7500;stroke:#ff7500;" x="257.243279" xlink:href="#m6ee1096d4e" y="235.842311"/>
     <use style="fill:#ff7500;stroke:#ff7500;" x="257.243279" xlink:href="#m6ee1096d4e" y="235.842311"/>
    </g>
   </g>
   <g id="line2d_45">
    <path d="M 42.677798 298.944 
L 42.677798 298.82927 
L 48.691568 298.82927 
L 48.691568 298.714539 
L 50.74562 298.714539 
L 50.74562 298.599809 
L 54.245172 298.599809 
L 54.245172 298.485079 
L 56.705482 298.485079 
L 56.705482 298.370348 
L 60.779557 298.370348 
L 60.779557 298.255618 
L 61.836807 298.255618 
L 61.836807 298.140888 
L 80.416384 298.140888 
L 80.416384 298.026157 
L 85.754419 298.026157 
L 85.754419 297.911427 
L 85.927087 297.911427 
L 85.927087 297.796697 
L 97.798972 297.796697 
L 97.842408 297.567236 
L 97.972068 297.567236 
L 97.972068 297.452506 
L 100.456158 297.452506 
L 100.456158 297.337775 
L 104.913428 297.337775 
L 104.913428 297.223045 
L 107.263796 297.223045 
L 107.263796 297.108315 
L 109.865203 297.108315 
L 109.865203 296.993584 
L 113.78712 296.993584 
L 113.78712 296.764123 
L 113.908407 296.764123 
L 113.908407 296.649393 
L 116.972471 296.649393 
L 117.044744 296.419932 
L 121.942302 296.419932 
L 121.964074 296.190472 
L 126.039508 296.190472 
L 126.039508 296.075741 
L 126.151107 296.075741 
L 126.151107 295.961011 
L 126.598834 295.961011 
L 126.598834 295.846281 
L 127.54041 295.846281 
L 127.54041 295.73155 
L 129.089405 295.73155 
L 129.089405 295.61682 
L 129.454301 295.61682 
L 129.454301 295.50209 
L 134.024843 295.50209 
L 134.04118 295.157899 
L 134.171324 295.157899 
L 134.171324 295.043168 
L 135.086899 295.043168 
L 135.097149 294.813708 
L 136.165244 294.813708 
L 136.232577 294.584247 
L 137.61184 294.584247 
L 137.61184 294.469517 
L 137.932643 294.469517 
L 137.932643 294.354786 
L 138.765874 294.354786 
L 138.765874 294.240056 
L 139.616542 294.240056 
L 139.616542 294.125326 
L 141.816266 294.125326 
L 141.826718 293.895865 
L 142.732726 293.895865 
L 142.732726 293.781135 
L 143.18962 293.781135 
L 143.18962 293.666404 
L 143.781805 293.666404 
L 143.816021 293.322213 
L 144.393665 293.322213 
L 144.405686 293.092752 
L 145.559333 293.092752 
L 145.570577 292.863292 
L 146.659865 292.863292 
L 146.659865 292.748561 
L 147.682606 292.748561 
L 147.722394 292.519101 
L 148.178381 292.519101 
L 148.178381 292.40437 
L 148.643965 292.40437 
L 148.653387 292.17491 
L 149.570731 292.17491 
L 149.570731 292.060179 
L 150.020631 292.060179 
L 150.020631 291.945449 
L 150.851787 291.945449 
L 150.94908 291.601258 
L 151.150218 291.601258 
L 151.150218 291.486528 
L 151.300575 291.486528 
L 151.300575 291.371797 
L 151.666931 291.371797 
L 151.666931 291.257067 
L 152.060646 291.257067 
L 152.060646 291.142337 
L 152.813101 291.142337 
L 152.813101 291.027606 
L 153.194744 291.027606 
L 153.194744 290.798146 
L 153.545105 290.798146 
L 153.545105 290.683415 
L 153.892053 290.683415 
L 153.900769 290.453955 
L 154.239071 290.453955 
L 154.239071 290.339224 
L 154.575967 290.339224 
L 154.575967 290.109764 
L 154.913056 290.109764 
L 154.913056 289.995033 
L 155.235683 289.995033 
L 155.25182 289.650842 
L 155.596784 289.650842 
L 155.596784 289.536112 
L 155.868237 289.536112 
L 155.868237 289.421381 
L 156.176877 289.421381 
L 156.245575 289.191921 
L 156.778239 289.191921 
L 156.778239 289.07719 
L 157.360983 289.07719 
L 157.39953 288.84773 
L 157.645915 288.84773 
L 157.68524 288.388808 
L 157.922115 288.388808 
L 157.922115 288.274078 
L 158.196733 288.274078 
L 158.210351 288.044617 
L 158.467094 288.044617 
L 158.467094 287.929887 
L 158.742573 287.929887 
L 158.792674 287.700426 
L 158.996859 287.700426 
L 158.996859 287.585696 
L 159.303838 287.585696 
L 159.303838 287.470966 
L 159.508477 287.470966 
L 159.512268 287.012044 
L 159.763125 287.012044 
L 159.763125 286.897314 
L 160.006741 286.897314 
L 160.006741 286.782584 
L 160.250633 286.782584 
L 160.276045 286.438393 
L 160.364095 286.438393 
L 160.364095 286.323662 
L 160.733132 286.323662 
L 160.736665 286.094202 
L 160.962491 286.094202 
L 160.963654 285.864741 
L 161.195758 285.864741 
L 161.195758 285.75001 
L 161.423681 285.75001 
L 161.470039 285.52055 
L 161.648663 285.52055 
L 161.648663 285.405819 
L 162.095552 285.405819 
L 162.095552 285.291089 
L 162.311008 285.291089 
L 162.312084 285.061628 
L 162.520645 285.061628 
L 162.552512 284.832168 
L 162.739346 284.832168 
L 162.739346 284.717437 
L 162.939775 284.717437 
L 162.950152 284.487977 
L 163.14511 284.487977 
L 163.149212 284.258516 
L 163.349068 284.258516 
L 163.379457 283.799595 
L 163.764822 283.799595 
L 163.764822 283.684864 
L 163.947011 283.684864 
L 163.97442 283.225943 
L 164.141854 283.225943 
L 164.155412 282.767022 
L 164.334545 282.767022 
L 164.372829 282.537561 
L 164.52892 282.537561 
L 164.571507 282.19337 
L 164.930745 282.19337 
L 164.967744 281.963909 
L 165.084697 281.963909 
L 165.08745 281.734448 
L 165.270024 281.734448 
L 165.291805 281.390257 
L 165.46508 281.390257 
L 165.474058 281.046066 
L 165.632204 281.046066 
L 165.632204 280.931336 
L 165.805669 280.931336 
L 165.80831 280.701875 
L 165.980041 280.701875 
L 165.988758 280.472415 
L 166.213013 280.472415 
L 166.213013 280.357684 
L 166.329624 280.357684 
L 166.329624 280.242954 
L 166.495475 280.242954 
L 166.495475 280.128224 
L 166.673174 280.128224 
L 166.673174 280.013493 
L 166.829993 280.013493 
L 166.922751 279.554572 
L 166.997755 279.554572 
L 166.997755 279.439842 
L 167.159845 279.439842 
L 167.192408 278.86619 
L 167.322864 278.86619 
L 167.323672 278.636729 
L 167.482774 278.636729 
L 167.510748 278.407268 
L 167.641231 278.407268 
L 167.668161 278.177808 
L 167.802188 278.177808 
L 167.802188 278.063077 
L 167.955447 278.063077 
L 167.98345 277.833617 
L 168.264101 277.833617 
L 168.267925 277.489426 
L 168.419436 277.489426 
L 168.43762 277.145235 
L 168.568139 277.145235 
L 168.616926 276.915774 
L 168.718565 276.915774 
L 168.718565 276.801044 
L 168.905345 276.801044 
L 169.013383 276.571583 
L 169.3033 276.571583 
L 169.327064 276.227392 
L 169.518151 276.227392 
L 169.592728 275.883201 
L 169.870458 275.883201 
L 169.870458 275.768471 
L 170.010103 275.768471 
L 170.027394 275.42428 
L 170.152072 275.42428 
L 170.154131 275.194819 
L 170.284041 275.194819 
L 170.347956 274.850628 
L 170.41975 274.850628 
L 170.437991 274.506437 
L 170.554412 274.506437 
L 170.554412 274.391706 
L 170.821316 274.391706 
L 170.821316 274.276976 
L 170.952269 274.276976 
L 170.952924 274.047515 
L 171.083546 274.047515 
L 171.106305 273.703324 
L 171.34125 273.703324 
L 171.398218 273.359133 
L 171.474734 273.359133 
L 171.485546 273.129673 
L 171.762471 273.129673 
L 171.847377 272.900212 
L 171.995591 272.900212 
L 172.099027 272.556021 
L 172.338016 272.556021 
L 172.385786 272.0971 
L 172.477331 272.0971 
L 172.583331 271.523448 
L 172.940857 271.523448 
L 172.940857 271.408718 
L 173.165771 271.408718 
L 173.184239 271.064526 
L 173.511103 271.064526 
L 173.621711 270.720335 
L 173.62621 270.720335 
L 173.62621 270.605605 
L 173.750617 270.605605 
L 173.846398 270.376144 
L 173.956561 270.376144 
L 173.97807 270.031953 
L 174.072613 270.031953 
L 174.095074 269.802493 
L 174.192798 269.802493 
L 174.284021 269.573032 
L 174.606507 269.573032 
L 174.713572 269.228841 
L 174.818933 269.228841 
L 174.926271 268.88465 
L 174.935143 268.88465 
L 175.026207 268.540459 
L 175.130217 268.540459 
L 175.237201 267.737347 
L 175.336395 267.737347 
L 175.447192 267.048964 
L 175.538149 267.048964 
L 175.641664 266.131122 
L 175.738092 266.131122 
L 175.840927 265.098549 
L 175.85281 265.098549 
L 175.952019 264.754358 
L 176.03451 264.754358 
L 176.136103 263.836515 
L 176.230812 263.836515 
L 176.326936 263.262863 
L 176.423492 263.262863 
L 176.522374 262.23029 
L 176.614066 262.23029 
L 176.71329 261.771369 
L 176.801643 261.771369 
L 176.904935 261.082987 
L 176.987687 261.082987 
L 177.080201 260.509335 
L 177.172226 260.509335 
L 177.264226 260.050414 
L 177.354834 260.050414 
L 177.46439 259.132571 
L 177.535998 259.132571 
L 177.632808 258.673649 
L 177.71441 258.673649 
L 177.80537 258.099998 
L 177.891896 258.099998 
L 177.980623 257.641076 
L 178.068465 257.641076 
L 178.154132 257.067425 
L 178.248012 257.067425 
L 178.32808 256.723234 
L 178.499884 256.723234 
L 178.591503 256.264312 
L 178.619824 256.264312 
L 178.667486 256.034851 
L 178.751105 256.034851 
L 178.755297 255.69066 
L 179.000411 255.69066 
L 179.090267 255.117009 
L 179.129689 255.117009 
L 179.173525 254.772818 
L 179.247019 254.772818 
L 179.3421 253.854975 
L 179.489786 253.854975 
L 179.506653 253.510784 
L 179.649375 253.510784 
L 179.731993 253.166593 
L 179.820138 253.166593 
L 179.887035 252.707672 
L 179.975182 252.707672 
L 180.085035 252.36348 
L 180.120725 252.36348 
L 180.199217 252.019289 
L 180.352089 252.019289 
L 180.44363 251.445638 
L 180.504013 251.445638 
L 180.504771 251.216177 
L 180.730006 251.216177 
L 180.821451 250.871986 
L 180.879057 250.871986 
L 180.953108 250.527795 
L 181.033834 250.527795 
L 181.115653 250.068874 
L 181.177769 250.068874 
L 181.177769 249.954143 
L 181.319441 249.954143 
L 181.391288 249.495222 
L 181.464635 249.495222 
L 181.464635 249.380492 
L 181.610766 249.380492 
L 181.610766 249.265761 
L 181.756035 249.265761 
L 181.756035 249.151031 
L 181.888202 249.151031 
L 181.888202 249.036301 
L 190.888488 249.036301 
L 190.888488 248.92157 
L 191.214191 248.92157 
L 191.214191 248.80684 
L 191.816613 248.80684 
L 191.816613 248.692109 
L 191.935113 248.692109 
L 192.016998 248.462649 
L 192.300124 248.462649 
L 192.362849 248.118458 
L 192.456514 248.118458 
L 192.517918 247.888997 
L 192.669734 247.888997 
L 192.745243 247.544806 
L 192.929716 247.544806 
L 192.968344 247.315345 
L 193.041096 247.315345 
L 193.130831 247.085885 
L 193.188628 247.085885 
L 193.298554 246.741694 
L 193.484861 246.741694 
L 193.55065 246.512233 
L 193.742285 246.512233 
L 193.800923 246.168042 
L 193.873109 246.168042 
L 193.873109 246.053312 
L 194.010999 246.053312 
L 194.015891 245.823851 
L 198.862712 245.823851 
L 198.862712 245.709121 
L 199.281025 245.709121 
L 199.281025 245.59439 
L 199.637476 245.59439 
L 199.637476 245.47966 
L 200.039303 245.47966 
L 200.073526 244.906008 
L 200.283444 244.906008 
L 200.284176 244.676547 
L 200.491589 244.676547 
L 200.52638 244.217626 
L 200.622209 244.217626 
L 200.67094 243.988165 
L 200.788266 243.988165 
L 200.836772 243.758705 
L 200.906338 243.758705 
L 200.95393 243.299783 
L 201.049778 243.299783 
L 201.096516 242.840862 
L 204.680274 242.840862 
L 204.680274 242.726132 
L 204.962959 242.726132 
L 205.073484 242.381941 
L 205.694974 242.381941 
L 205.781672 241.923019 
L 205.856517 241.923019 
L 205.926983 241.349368 
L 205.993826 241.349368 
L 206.011748 241.119907 
L 206.118809 241.119907 
L 206.118809 241.005176 
L 209.516569 241.005176 
L 209.559179 240.775716 
L 209.652784 240.775716 
L 209.701815 240.431525 
L 209.802998 240.431525 
L 209.904441 240.087334 
L 212.433032 240.087334 
L 212.433032 239.972603 
L 212.764116 239.972603 
L 212.781933 239.743143 
L 212.876254 239.743143 
L 212.876254 239.628412 
L 213.019784 239.628412 
L 213.104181 239.169491 
L 215.611839 239.169491 
L 215.682788 238.94003 
L 215.803254 238.94003 
L 215.8845 238.595839 
L 218.011354 238.595839 
L 218.046576 238.136918 
L 220.018174 238.136918 
L 220.112469 237.792727 
L 222.050388 237.792727 
L 222.064489 237.563266 
L 223.591686 237.563266 
L 223.629073 237.333805 
L 225.170406 237.333805 
L 225.170406 237.219075 
L 225.287676 237.219075 
L 225.287676 237.104345 
L 227.684605 237.104345 
L 227.684605 236.989614 
L 227.936185 236.989614 
L 227.936185 236.874884 
L 229.151753 236.874884 
L 229.151753 236.760154 
L 230.270486 236.760154 
L 230.270486 236.645423 
L 231.301896 236.645423 
L 231.301896 236.530693 
L 232.328899 236.530693 
L 232.328899 236.415963 
L 234.176839 236.415963 
L 234.176839 236.301232 
L 235.835937 236.301232 
L 235.835937 236.186502 
L 243.436497 236.186502 
L 243.436497 236.071772 
L 251.831359 236.071772 
L 251.831359 235.957041 
L 257.243279 235.957041 
L 257.243279 235.842311 
L 338.688 235.842311 
L 338.688 235.842311 
" style="fill:none;stroke:#ff7500;stroke-linecap:square;stroke-width:1.5;"/>
   </g>
   <g id="line2d_46">
    <defs>
     <path d="M 0 -6 
L -1.347084 -1.854102 
L -5.706339 -1.854102 
L -2.179628 0.708204 
L -3.526712 4.854102 
L -0 2.291796 
L 3.526712 4.854102 
L 2.179628 0.708204 
L 5.706339 -1.854102 
L 1.347084 -1.854102 
z
" id="m774e85eef4" style="stroke:#ff7500;stroke-linejoin:bevel;stroke-width:1.5;"/>
    </defs>
    <g>
     <use style="fill-opacity:0;stroke:#ff7500;stroke-linejoin:bevel;stroke-width:1.5;" x="97.972068" xlink:href="#m774e85eef4" y="297.452506"/>
     <use style="fill-opacity:0;stroke:#ff7500;stroke-linejoin:bevel;stroke-width:1.5;" x="150.020631" xlink:href="#m774e85eef4" y="292.060179"/>
     <use style="fill-opacity:0;stroke:#ff7500;stroke-linejoin:bevel;stroke-width:1.5;" x="209.802998" xlink:href="#m774e85eef4" y="240.431525"/>
     <use style="fill-opacity:0;stroke:#ff7500;stroke-linejoin:bevel;stroke-width:1.5;" x="257.243279" xlink:href="#m774e85eef4" y="235.957041"/>
     <use style="fill-opacity:0;stroke:#ff7500;stroke-linejoin:bevel;stroke-width:1.5;" x="257.243279" xlink:href="#m774e85eef4" y="235.842311"/>
     <use style="fill-opacity:0;stroke:#ff7500;stroke-linejoin:bevel;stroke-width:1.5;" x="338.688" xlink:href="#m774e85eef4" y="235.842311"/>
    </g>
   </g>
   <g id="line2d_47">
    <path style="fill:none;stroke:#ff7500;stroke-linecap:square;stroke-width:1.5;"/>
    <g/>
   </g>
   <g id="line2d_48">
    <path clip-path="url(#pa960eb30eb)" d="M 181.957749 249.036301 
" style="fill:none;stroke:#ff7500;stroke-linecap:square;stroke-width:1.5;"/>
    <defs>
     <path d="M -12 12 
L 12 -12 
M -12 -12 
L 12 12 
" id="m659e2722a8" style="stroke:#ff7500;"/>
    </defs>
    <g clip-path="url(#pa960eb30eb)">
     <use style="fill:#ff7500;stroke:#ff7500;" x="181.957749" xlink:href="#m659e2722a8" y="249.036301"/>
    </g>
   </g>
   <g id="line2d_49">
    <path d="M 338.688 286.323662 
L 369.60768 293.092752 
" style="fill:none;stroke:#000080;stroke-linecap:square;stroke-width:1.5;"/>
    <g>
     <use style="fill-opacity:0;stroke:#000080;stroke-width:1.5;" x="338.688" xlink:href="#m2a17e8ade6" y="286.323662"/>
     <use style="fill-opacity:0;stroke:#000080;stroke-width:1.5;" x="369.60768" xlink:href="#m2a17e8ade6" y="293.092752"/>
    </g>
   </g>
   <g id="line2d_50">
    <path d="M 338.688 262.23029 
L 369.60768 199.472792 
" style="fill:none;stroke:#ff00ff;stroke-linecap:square;stroke-width:1.5;"/>
    <g>
     <use style="fill-opacity:0;stroke:#ff00ff;stroke-linejoin:miter;stroke-width:1.5;" x="338.688" xlink:href="#macb739f8d3" y="262.23029"/>
     <use style="fill-opacity:0;stroke:#ff00ff;stroke-linejoin:miter;stroke-width:1.5;" x="369.60768" xlink:href="#macb739f8d3" y="199.472792"/>
    </g>
   </g>
   <g id="line2d_51">
    <path d="M 338.688 235.842311 
L 369.60768 105.852832 
" style="fill:none;stroke:#ff7500;stroke-linecap:square;stroke-width:1.5;"/>
    <g>
     <use style="fill-opacity:0;stroke:#ff7500;stroke-linejoin:bevel;stroke-width:1.5;" x="338.688" xlink:href="#m774e85eef4" y="235.842311"/>
     <use style="fill-opacity:0;stroke:#ff7500;stroke-linejoin:bevel;stroke-width:1.5;" x="369.60768" xlink:href="#m774e85eef4" y="105.852832"/>
    </g>
   </g>
   <g id="line2d_52">
    <path d="M 338.688 298.944 
L 338.688 6.381624 
" style="fill:none;stroke:#000000;stroke-linecap:square;stroke-width:1.5;"/>
   </g>
   <g id="patch_3">
    <path d="M 57.6 298.944 
L 57.6 3.456 
" style="fill:none;stroke:#000000;stroke-linecap:square;stroke-linejoin:miter;stroke-width:0.8;"/>
   </g>
   <g id="patch_4">
    <path d="M 338.688 298.944 
L 338.688 3.456 
" style="fill:none;stroke:#000000;stroke-linecap:square;stroke-linejoin:miter;stroke-width:0.8;"/>
   </g>
   <g id="patch_5">
    <path d="M 57.6 298.944 
L 338.688 298.944 
" style="fill:none;stroke:#000000;stroke-linecap:square;stroke-linejoin:miter;stroke-width:0.8;"/>
   </g>
   <g id="patch_6">
    <path d="M 57.6 3.456 
L 338.688 3.456 
" style="fill:none;stroke:#000000;stroke-linecap:square;stroke-linejoin:miter;stroke-width:0.8;"/>
   </g>
   <g id="text_13">
    <!-- DE -->
    <g transform="translate(375.22944 297.78369)scale(0.17 -0.17)">
     <defs>
      <path d="M 1259 4147 
L 1259 519 
L 2022 519 
Q 2988 519 3436 956 
Q 3884 1394 3884 2338 
Q 3884 3275 3436 3711 
Q 2988 4147 2022 4147 
L 1259 4147 
z
M 628 4666 
L 1925 4666 
Q 3281 4666 3915 4102 
Q 4550 3538 4550 2338 
Q 4550 1131 3912 565 
Q 3275 0 1925 0 
L 628 0 
L 628 4666 
z
" id="DejaVuSans-44" transform="scale(0.015625)"/>
      <path d="M 628 4666 
L 3578 4666 
L 3578 4134 
L 1259 4134 
L 1259 2753 
L 3481 2753 
L 3481 2222 
L 1259 2222 
L 1259 531 
L 3634 531 
L 3634 0 
L 628 0 
L 628 4666 
z
" id="DejaVuSans-45" transform="scale(0.015625)"/>
     </defs>
     <use xlink:href="#DejaVuSans-44"/>
     <use x="77.001953" xlink:href="#DejaVuSans-45"/>
    </g>
   </g>
   <g id="text_14">
    <!-- DEAE -->
    <g transform="translate(375.22944 204.16373)scale(0.17 -0.17)">
     <defs>
      <path d="M 2188 4044 
L 1331 1722 
L 3047 1722 
L 2188 4044 
z
M 1831 4666 
L 2547 4666 
L 4325 0 
L 3669 0 
L 3244 1197 
L 1141 1197 
L 716 0 
L 50 0 
L 1831 4666 
z
" id="DejaVuSans-41" transform="scale(0.015625)"/>
     </defs>
     <use xlink:href="#DejaVuSans-44"/>
     <use x="77.001953" xlink:href="#DejaVuSans-45"/>
     <use x="140.185547" xlink:href="#DejaVuSans-41"/>
     <use x="208.59375" xlink:href="#DejaVuSans-45"/>
    </g>
   </g>
   <g id="text_15">
    <!-- JADE -->
    <g transform="translate(375.22944 110.543769)scale(0.17 -0.17)">
     <defs>
      <path d="M 628 4666 
L 1259 4666 
L 1259 325 
Q 1259 -519 939 -900 
Q 619 -1281 -91 -1281 
L -331 -1281 
L -331 -750 
L -134 -750 
Q 284 -750 456 -515 
Q 628 -281 628 325 
L 628 4666 
z
" id="DejaVuSans-4a" transform="scale(0.015625)"/>
     </defs>
     <use xlink:href="#DejaVuSans-4a"/>
     <use x="27.742188" xlink:href="#DejaVuSans-41"/>
     <use x="96.150391" xlink:href="#DejaVuSans-44"/>
     <use x="173.152344" xlink:href="#DejaVuSans-45"/>
    </g>
   </g>
   <g id="text_16">
    <!-- best 2009 -->
    <g transform="translate(375.22944 16.923809)scale(0.17 -0.17)">
     <defs>
      <path d="M 3116 1747 
Q 3116 2381 2855 2742 
Q 2594 3103 2138 3103 
Q 1681 3103 1420 2742 
Q 1159 2381 1159 1747 
Q 1159 1113 1420 752 
Q 1681 391 2138 391 
Q 2594 391 2855 752 
Q 3116 1113 3116 1747 
z
M 1159 2969 
Q 1341 3281 1617 3432 
Q 1894 3584 2278 3584 
Q 2916 3584 3314 3078 
Q 3713 2572 3713 1747 
Q 3713 922 3314 415 
Q 2916 -91 2278 -91 
Q 1894 -91 1617 61 
Q 1341 213 1159 525 
L 1159 0 
L 581 0 
L 581 4863 
L 1159 4863 
L 1159 2969 
z
" id="DejaVuSans-62" transform="scale(0.015625)"/>
      <path d="M 703 97 
L 703 672 
Q 941 559 1184 500 
Q 1428 441 1663 441 
Q 2288 441 2617 861 
Q 2947 1281 2994 2138 
Q 2813 1869 2534 1725 
Q 2256 1581 1919 1581 
Q 1219 1581 811 2004 
Q 403 2428 403 3163 
Q 403 3881 828 4315 
Q 1253 4750 1959 4750 
Q 2769 4750 3195 4129 
Q 3622 3509 3622 2328 
Q 3622 1225 3098 567 
Q 2575 -91 1691 -91 
Q 1453 -91 1209 -44 
Q 966 3 703 97 
z
M 1959 2075 
Q 2384 2075 2632 2365 
Q 2881 2656 2881 3163 
Q 2881 3666 2632 3958 
Q 2384 4250 1959 4250 
Q 1534 4250 1286 3958 
Q 1038 3666 1038 3163 
Q 1038 2656 1286 2365 
Q 1534 2075 1959 2075 
z
" id="DejaVuSans-39" transform="scale(0.015625)"/>
     </defs>
     <use xlink:href="#DejaVuSans-62"/>
     <use x="63.476562" xlink:href="#DejaVuSans-65"/>
     <use x="125" xlink:href="#DejaVuSans-73"/>
     <use x="177.099609" xlink:href="#DejaVuSans-74"/>
     <use x="216.308594" xlink:href="#DejaVuSans-20"/>
     <use x="248.095703" xlink:href="#DejaVuSans-32"/>
     <use x="311.71875" xlink:href="#DejaVuSans-30"/>
     <use x="375.341797" xlink:href="#DejaVuSans-30"/>
     <use x="438.964844" xlink:href="#DejaVuSans-39"/>
    </g>
   </g>
   <g id="text_17">
    <!-- bbob f10-f14, 40-D -->
    <g transform="translate(60.41088 14.161286)scale(0.102 -0.102)">
     <use xlink:href="#DejaVuSans-62"/>
     <use x="63.476562" xlink:href="#DejaVuSans-62"/>
     <use x="126.953125" xlink:href="#DejaVuSans-6f"/>
     <use x="188.134766" xlink:href="#DejaVuSans-62"/>
     <use x="251.611328" xlink:href="#DejaVuSans-20"/>
     <use x="283.398438" xlink:href="#DejaVuSans-66"/>
     <use x="318.603516" xlink:href="#DejaVuSans-31"/>
     <use x="382.226562" xlink:href="#DejaVuSans-30"/>
     <use x="445.849609" xlink:href="#DejaVuSans-2d"/>
     <use x="481.933594" xlink:href="#DejaVuSans-66"/>
     <use x="517.138672" xlink:href="#DejaVuSans-31"/>
     <use x="580.761719" xlink:href="#DejaVuSans-34"/>
     <use x="644.384766" xlink:href="#DejaVuSans-2c"/>
     <use x="676.171875" xlink:href="#DejaVuSans-20"/>
     <use x="707.958984" xlink:href="#DejaVuSans-34"/>
     <use x="771.582031" xlink:href="#DejaVuSans-30"/>
     <use x="835.205078" xlink:href="#DejaVuSans-2d"/>
     <use x="871.289062" xlink:href="#DejaVuSans-44"/>
    </g>
    <!-- 51 targets: 100..1e-08 -->
    <g transform="translate(60.41088 25.583055)scale(0.102 -0.102)">
     <defs>
      <path d="M 691 4666 
L 3169 4666 
L 3169 4134 
L 1269 4134 
L 1269 2991 
Q 1406 3038 1543 3061 
Q 1681 3084 1819 3084 
Q 2600 3084 3056 2656 
Q 3513 2228 3513 1497 
Q 3513 744 3044 326 
Q 2575 -91 1722 -91 
Q 1428 -91 1123 -41 
Q 819 9 494 109 
L 494 744 
Q 775 591 1075 516 
Q 1375 441 1709 441 
Q 2250 441 2565 725 
Q 2881 1009 2881 1497 
Q 2881 1984 2565 2268 
Q 2250 2553 1709 2553 
Q 1456 2553 1204 2497 
Q 953 2441 691 2322 
L 691 4666 
z
" id="DejaVuSans-35" transform="scale(0.015625)"/>
      <path d="M 750 794 
L 1409 794 
L 1409 0 
L 750 0 
L 750 794 
z
M 750 3309 
L 1409 3309 
L 1409 2516 
L 750 2516 
L 750 3309 
z
" id="DejaVuSans-3a" transform="scale(0.015625)"/>
     </defs>
     <use xlink:href="#DejaVuSans-35"/>
     <use x="63.623047" xlink:href="#DejaVuSans-31"/>
     <use x="127.246094" xlink:href="#DejaVuSans-20"/>
     <use x="159.033203" xlink:href="#DejaVuSans-74"/>
     <use x="198.242188" xlink:href="#DejaVuSans-61"/>
     <use x="259.521484" xlink:href="#DejaVuSans-72"/>
     <use x="298.884766" xlink:href="#DejaVuSans-67"/>
     <use x="362.361328" xlink:href="#DejaVuSans-65"/>
     <use x="423.884766" xlink:href="#DejaVuSans-74"/>
     <use x="463.09375" xlink:href="#DejaVuSans-73"/>
     <use x="515.193359" xlink:href="#DejaVuSans-3a"/>
     <use x="548.884766" xlink:href="#DejaVuSans-20"/>
     <use x="580.671875" xlink:href="#DejaVuSans-31"/>
     <use x="644.294922" xlink:href="#DejaVuSans-30"/>
     <use x="707.917969" xlink:href="#DejaVuSans-30"/>
     <use x="771.541016" xlink:href="#DejaVuSans-2e"/>
     <use x="803.328125" xlink:href="#DejaVuSans-2e"/>
     <use x="835.115234" xlink:href="#DejaVuSans-31"/>
     <use x="898.738281" xlink:href="#DejaVuSans-65"/>
     <use x="960.261719" xlink:href="#DejaVuSans-2d"/>
     <use x="996.345703" xlink:href="#DejaVuSans-30"/>
     <use x="1059.96875" xlink:href="#DejaVuSans-38"/>
    </g>
    <!-- 15 instances -->
    <g transform="translate(60.41088 37.004824)scale(0.102 -0.102)">
     <use xlink:href="#DejaVuSans-31"/>
     <use x="63.623047" xlink:href="#DejaVuSans-35"/>
     <use x="127.246094" xlink:href="#DejaVuSans-20"/>
     <use x="159.033203" xlink:href="#DejaVuSans-69"/>
     <use x="186.816406" xlink:href="#DejaVuSans-6e"/>
     <use x="250.195312" xlink:href="#DejaVuSans-73"/>
     <use x="302.294922" xlink:href="#DejaVuSans-74"/>
     <use x="341.503906" xlink:href="#DejaVuSans-61"/>
     <use x="402.783203" xlink:href="#DejaVuSans-6e"/>
     <use x="466.162109" xlink:href="#DejaVuSans-63"/>
     <use x="521.142578" xlink:href="#DejaVuSans-65"/>
     <use x="582.666016" xlink:href="#DejaVuSans-73"/>
    </g>
   </g>
   <g id="text_18">
    <!-- v2.4 -->
    <g style="fill:#808080;" transform="translate(187.233062 293.909432)scale(0.1 -0.1)">
     <use xlink:href="#DejaVuSans-76"/>
     <use x="59.179688" xlink:href="#DejaVuSans-32"/>
     <use x="122.802734" xlink:href="#DejaVuSans-2e"/>
     <use x="154.589844" xlink:href="#DejaVuSans-34"/>
    </g>
   </g>
  </g>
 </g>
 <defs>
  <clipPath id="pa960eb30eb">
   <rect height="295.488" width="281.088" x="57.6" y="3.456"/>
  </clipPath>
 </defs>
</svg>
