<?xml version="1.0" encoding="utf-8" standalone="no"?>
<!DOCTYPE svg PUBLIC "-//W3C//DTD SVG 1.1//EN"
  "http://www.w3.org/Graphics/SVG/1.1/DTD/svg11.dtd">
<svg height="345.6pt" version="1.1" viewBox="0 0 460.8 345.6" width="460.8pt" xmlns="http://www.w3.org/2000/svg" xmlns:xlink="http://www.w3.org/1999/xlink">
 <metadata>
  <rdf:RDF xmlns:cc="http://creativecommons.org/ns#" xmlns:dc="http://purl.org/dc/elements/1.1/" xmlns:rdf="http://www.w3.org/1999/02/22-rdf-syntax-ns#">
   <cc:Work>
    <dc:type rdf:resource="http://purl.org/dc/dcmitype/StillImage"/>
    <dc:date>2021-04-19T22:04:51.186978</dc:date>
    <dc:format>image/svg+xml</dc:format>
    <dc:creator>
     <cc:Agent>
      <dc:title>Matplotlib v3.4.1, https://matplotlib.org/</dc:title>
     </cc:Agent>
    </dc:creator>
   </cc:Work>
  </rdf:RDF>
 </metadata>
 <defs>
  <style type="text/css">*{stroke-linecap:butt;stroke-linejoin:round;}</style>
 </defs>
 <g id="figure_1">
  <g id="patch_1">
   <path d="M 0 345.6 
L 460.8 345.6 
L 460.8 0 
L 0 0 
z
" style="fill:#ffffff;"/>
  </g>
  <g id="axes_1">
   <g id="patch_2">
    <path d="M 57.6 298.944 
L 338.688 298.944 
L 338.688 3.456 
L 57.6 3.456 
z
" style="fill:#ffffff;"/>
   </g>
   <g id="matplotlib.axis_1">
    <g id="xtick_1">
     <g id="line2d_1">
      <path clip-path="url(#p50a3d9b5fb)" d="M 57.6 298.944 
L 57.6 3.456 
" style="fill:none;stroke:#b0b0b0;stroke-linecap:square;stroke-width:0.8;"/>
     </g>
     <g id="line2d_2">
      <defs>
       <path d="M 0 0 
L 0 3.5 
" id="m6ea416448d" style="stroke:#000000;stroke-width:0.8;"/>
      </defs>
      <g>
       <use style="stroke:#000000;stroke-width:0.8;" x="57.6" xlink:href="#m6ea416448d" y="298.944"/>
      </g>
     </g>
     <g id="text_1">
      <!-- 0 -->
      <g transform="translate(51.2375 321.140875)scale(0.2 -0.2)">
       <defs>
        <path d="M 2034 4250 
Q 1547 4250 1301 3770 
Q 1056 3291 1056 2328 
Q 1056 1369 1301 889 
Q 1547 409 2034 409 
Q 2525 409 2770 889 
Q 3016 1369 3016 2328 
Q 3016 3291 2770 3770 
Q 2525 4250 2034 4250 
z
M 2034 4750 
Q 2819 4750 3233 4129 
Q 3647 3509 3647 2328 
Q 3647 1150 3233 529 
Q 2819 -91 2034 -91 
Q 1250 -91 836 529 
Q 422 1150 422 2328 
Q 422 3509 836 4129 
Q 1250 4750 2034 4750 
z
" id="DejaVuSans-30" transform="scale(0.015625)"/>
       </defs>
       <use xlink:href="#DejaVuSans-30"/>
      </g>
     </g>
    </g>
    <g id="xtick_2">
     <g id="line2d_3">
      <path clip-path="url(#p50a3d9b5fb)" d="M 137.910857 298.944 
L 137.910857 3.456 
" style="fill:none;stroke:#b0b0b0;stroke-linecap:square;stroke-width:0.8;"/>
     </g>
     <g id="line2d_4">
      <g>
       <use style="stroke:#000000;stroke-width:0.8;" x="137.910857" xlink:href="#m6ea416448d" y="298.944"/>
      </g>
     </g>
     <g id="text_2">
      <!-- 2 -->
      <g transform="translate(131.548357 321.140875)scale(0.2 -0.2)">
       <defs>
        <path d="M 1228 531 
L 3431 531 
L 3431 0 
L 469 0 
L 469 531 
Q 828 903 1448 1529 
Q 2069 2156 2228 2338 
Q 2531 2678 2651 2914 
Q 2772 3150 2772 3378 
Q 2772 3750 2511 3984 
Q 2250 4219 1831 4219 
Q 1534 4219 1204 4116 
Q 875 4013 500 3803 
L 500 4441 
Q 881 4594 1212 4672 
Q 1544 4750 1819 4750 
Q 2544 4750 2975 4387 
Q 3406 4025 3406 3419 
Q 3406 3131 3298 2873 
Q 3191 2616 2906 2266 
Q 2828 2175 2409 1742 
Q 1991 1309 1228 531 
z
" id="DejaVuSans-32" transform="scale(0.015625)"/>
       </defs>
       <use xlink:href="#DejaVuSans-32"/>
      </g>
     </g>
    </g>
    <g id="xtick_3">
     <g id="line2d_5">
      <path clip-path="url(#p50a3d9b5fb)" d="M 218.221714 298.944 
L 218.221714 3.456 
" style="fill:none;stroke:#b0b0b0;stroke-linecap:square;stroke-width:0.8;"/>
     </g>
     <g id="line2d_6">
      <g>
       <use style="stroke:#000000;stroke-width:0.8;" x="218.221714" xlink:href="#m6ea416448d" y="298.944"/>
      </g>
     </g>
     <g id="text_3">
      <!-- 4 -->
      <g transform="translate(211.859214 321.140875)scale(0.2 -0.2)">
       <defs>
        <path d="M 2419 4116 
L 825 1625 
L 2419 1625 
L 2419 4116 
z
M 2253 4666 
L 3047 4666 
L 3047 1625 
L 3713 1625 
L 3713 1100 
L 3047 1100 
L 3047 0 
L 2419 0 
L 2419 1100 
L 313 1100 
L 313 1709 
L 2253 4666 
z
" id="DejaVuSans-34" transform="scale(0.015625)"/>
       </defs>
       <use xlink:href="#DejaVuSans-34"/>
      </g>
     </g>
    </g>
    <g id="xtick_4">
     <g id="line2d_7">
      <path clip-path="url(#p50a3d9b5fb)" d="M 298.532571 298.944 
L 298.532571 3.456 
" style="fill:none;stroke:#b0b0b0;stroke-linecap:square;stroke-width:0.8;"/>
     </g>
     <g id="line2d_8">
      <g>
       <use style="stroke:#000000;stroke-width:0.8;" x="298.532571" xlink:href="#m6ea416448d" y="298.944"/>
      </g>
     </g>
     <g id="text_4">
      <!-- 6 -->
      <g transform="translate(292.170071 321.140875)scale(0.2 -0.2)">
       <defs>
        <path d="M 2113 2584 
Q 1688 2584 1439 2293 
Q 1191 2003 1191 1497 
Q 1191 994 1439 701 
Q 1688 409 2113 409 
Q 2538 409 2786 701 
Q 3034 994 3034 1497 
Q 3034 2003 2786 2293 
Q 2538 2584 2113 2584 
z
M 3366 4563 
L 3366 3988 
Q 3128 4100 2886 4159 
Q 2644 4219 2406 4219 
Q 1781 4219 1451 3797 
Q 1122 3375 1075 2522 
Q 1259 2794 1537 2939 
Q 1816 3084 2150 3084 
Q 2853 3084 3261 2657 
Q 3669 2231 3669 1497 
Q 3669 778 3244 343 
Q 2819 -91 2113 -91 
Q 1303 -91 875 529 
Q 447 1150 447 2328 
Q 447 3434 972 4092 
Q 1497 4750 2381 4750 
Q 2619 4750 2861 4703 
Q 3103 4656 3366 4563 
z
" id="DejaVuSans-36" transform="scale(0.015625)"/>
       </defs>
       <use xlink:href="#DejaVuSans-36"/>
      </g>
     </g>
    </g>
    <g id="xtick_5">
     <g id="line2d_9">
      <path clip-path="url(#p50a3d9b5fb)" d="M 97.755429 298.944 
L 97.755429 3.456 
" style="fill:none;stroke:#b0b0b0;stroke-linecap:square;stroke-width:0.8;"/>
     </g>
     <g id="line2d_10">
      <defs>
       <path d="M 0 0 
L 0 2 
" id="mb356d6094d" style="stroke:#000000;stroke-width:0.6;"/>
      </defs>
      <g>
       <use style="stroke:#000000;stroke-width:0.6;" x="97.755429" xlink:href="#mb356d6094d" y="298.944"/>
      </g>
     </g>
    </g>
    <g id="xtick_6">
     <g id="line2d_11">
      <path clip-path="url(#p50a3d9b5fb)" d="M 178.066286 298.944 
L 178.066286 3.456 
" style="fill:none;stroke:#b0b0b0;stroke-linecap:square;stroke-width:0.8;"/>
     </g>
     <g id="line2d_12">
      <g>
       <use style="stroke:#000000;stroke-width:0.6;" x="178.066286" xlink:href="#mb356d6094d" y="298.944"/>
      </g>
     </g>
    </g>
    <g id="xtick_7">
     <g id="line2d_13">
      <path clip-path="url(#p50a3d9b5fb)" d="M 258.377143 298.944 
L 258.377143 3.456 
" style="fill:none;stroke:#b0b0b0;stroke-linecap:square;stroke-width:0.8;"/>
     </g>
     <g id="line2d_14">
      <g>
       <use style="stroke:#000000;stroke-width:0.6;" x="258.377143" xlink:href="#mb356d6094d" y="298.944"/>
      </g>
     </g>
    </g>
    <g id="xtick_8">
     <g id="line2d_15">
      <path clip-path="url(#p50a3d9b5fb)" d="M 338.688 298.944 
L 338.688 3.456 
" style="fill:none;stroke:#b0b0b0;stroke-linecap:square;stroke-width:0.8;"/>
     </g>
     <g id="line2d_16">
      <g>
       <use style="stroke:#000000;stroke-width:0.6;" x="338.688" xlink:href="#mb356d6094d" y="298.944"/>
      </g>
     </g>
    </g>
    <g id="text_5">
     <!-- log10(# f-evals / dimension) -->
     <g transform="translate(77.764078 342.217594)scale(0.17 -0.17)">
      <defs>
       <path d="M 603 4863 
L 1178 4863 
L 1178 0 
L 603 0 
L 603 4863 
z
" id="DejaVuSans-6c" transform="scale(0.015625)"/>
       <path d="M 1959 3097 
Q 1497 3097 1228 2736 
Q 959 2375 959 1747 
Q 959 1119 1226 758 
Q 1494 397 1959 397 
Q 2419 397 2687 759 
Q 2956 1122 2956 1747 
Q 2956 2369 2687 2733 
Q 2419 3097 1959 3097 
z
M 1959 3584 
Q 2709 3584 3137 3096 
Q 3566 2609 3566 1747 
Q 3566 888 3137 398 
Q 2709 -91 1959 -91 
Q 1206 -91 779 398 
Q 353 888 353 1747 
Q 353 2609 779 3096 
Q 1206 3584 1959 3584 
z
" id="DejaVuSans-6f" transform="scale(0.015625)"/>
       <path d="M 2906 1791 
Q 2906 2416 2648 2759 
Q 2391 3103 1925 3103 
Q 1463 3103 1205 2759 
Q 947 2416 947 1791 
Q 947 1169 1205 825 
Q 1463 481 1925 481 
Q 2391 481 2648 825 
Q 2906 1169 2906 1791 
z
M 3481 434 
Q 3481 -459 3084 -895 
Q 2688 -1331 1869 -1331 
Q 1566 -1331 1297 -1286 
Q 1028 -1241 775 -1147 
L 775 -588 
Q 1028 -725 1275 -790 
Q 1522 -856 1778 -856 
Q 2344 -856 2625 -561 
Q 2906 -266 2906 331 
L 2906 616 
Q 2728 306 2450 153 
Q 2172 0 1784 0 
Q 1141 0 747 490 
Q 353 981 353 1791 
Q 353 2603 747 3093 
Q 1141 3584 1784 3584 
Q 2172 3584 2450 3431 
Q 2728 3278 2906 2969 
L 2906 3500 
L 3481 3500 
L 3481 434 
z
" id="DejaVuSans-67" transform="scale(0.015625)"/>
       <path d="M 794 531 
L 1825 531 
L 1825 4091 
L 703 3866 
L 703 4441 
L 1819 4666 
L 2450 4666 
L 2450 531 
L 3481 531 
L 3481 0 
L 794 0 
L 794 531 
z
" id="DejaVuSans-31" transform="scale(0.015625)"/>
       <path d="M 1984 4856 
Q 1566 4138 1362 3434 
Q 1159 2731 1159 2009 
Q 1159 1288 1364 580 
Q 1569 -128 1984 -844 
L 1484 -844 
Q 1016 -109 783 600 
Q 550 1309 550 2009 
Q 550 2706 781 3412 
Q 1013 4119 1484 4856 
L 1984 4856 
z
" id="DejaVuSans-28" transform="scale(0.015625)"/>
       <path d="M 3272 2816 
L 2363 2816 
L 2100 1772 
L 3016 1772 
L 3272 2816 
z
M 2803 4594 
L 2478 3297 
L 3391 3297 
L 3719 4594 
L 4219 4594 
L 3897 3297 
L 4872 3297 
L 4872 2816 
L 3775 2816 
L 3519 1772 
L 4513 1772 
L 4513 1294 
L 3397 1294 
L 3072 0 
L 2572 0 
L 2894 1294 
L 1978 1294 
L 1656 0 
L 1153 0 
L 1478 1294 
L 494 1294 
L 494 1772 
L 1594 1772 
L 1856 2816 
L 850 2816 
L 850 3297 
L 1978 3297 
L 2297 4594 
L 2803 4594 
z
" id="DejaVuSans-23" transform="scale(0.015625)"/>
       <path id="DejaVuSans-20" transform="scale(0.015625)"/>
       <path d="M 2375 4863 
L 2375 4384 
L 1825 4384 
Q 1516 4384 1395 4259 
Q 1275 4134 1275 3809 
L 1275 3500 
L 2222 3500 
L 2222 3053 
L 1275 3053 
L 1275 0 
L 697 0 
L 697 3053 
L 147 3053 
L 147 3500 
L 697 3500 
L 697 3744 
Q 697 4328 969 4595 
Q 1241 4863 1831 4863 
L 2375 4863 
z
" id="DejaVuSans-66" transform="scale(0.015625)"/>
       <path d="M 313 2009 
L 1997 2009 
L 1997 1497 
L 313 1497 
L 313 2009 
z
" id="DejaVuSans-2d" transform="scale(0.015625)"/>
       <path d="M 3597 1894 
L 3597 1613 
L 953 1613 
Q 991 1019 1311 708 
Q 1631 397 2203 397 
Q 2534 397 2845 478 
Q 3156 559 3463 722 
L 3463 178 
Q 3153 47 2828 -22 
Q 2503 -91 2169 -91 
Q 1331 -91 842 396 
Q 353 884 353 1716 
Q 353 2575 817 3079 
Q 1281 3584 2069 3584 
Q 2775 3584 3186 3129 
Q 3597 2675 3597 1894 
z
M 3022 2063 
Q 3016 2534 2758 2815 
Q 2500 3097 2075 3097 
Q 1594 3097 1305 2825 
Q 1016 2553 972 2059 
L 3022 2063 
z
" id="DejaVuSans-65" transform="scale(0.015625)"/>
       <path d="M 191 3500 
L 800 3500 
L 1894 563 
L 2988 3500 
L 3597 3500 
L 2284 0 
L 1503 0 
L 191 3500 
z
" id="DejaVuSans-76" transform="scale(0.015625)"/>
       <path d="M 2194 1759 
Q 1497 1759 1228 1600 
Q 959 1441 959 1056 
Q 959 750 1161 570 
Q 1363 391 1709 391 
Q 2188 391 2477 730 
Q 2766 1069 2766 1631 
L 2766 1759 
L 2194 1759 
z
M 3341 1997 
L 3341 0 
L 2766 0 
L 2766 531 
Q 2569 213 2275 61 
Q 1981 -91 1556 -91 
Q 1019 -91 701 211 
Q 384 513 384 1019 
Q 384 1609 779 1909 
Q 1175 2209 1959 2209 
L 2766 2209 
L 2766 2266 
Q 2766 2663 2505 2880 
Q 2244 3097 1772 3097 
Q 1472 3097 1187 3025 
Q 903 2953 641 2809 
L 641 3341 
Q 956 3463 1253 3523 
Q 1550 3584 1831 3584 
Q 2591 3584 2966 3190 
Q 3341 2797 3341 1997 
z
" id="DejaVuSans-61" transform="scale(0.015625)"/>
       <path d="M 2834 3397 
L 2834 2853 
Q 2591 2978 2328 3040 
Q 2066 3103 1784 3103 
Q 1356 3103 1142 2972 
Q 928 2841 928 2578 
Q 928 2378 1081 2264 
Q 1234 2150 1697 2047 
L 1894 2003 
Q 2506 1872 2764 1633 
Q 3022 1394 3022 966 
Q 3022 478 2636 193 
Q 2250 -91 1575 -91 
Q 1294 -91 989 -36 
Q 684 19 347 128 
L 347 722 
Q 666 556 975 473 
Q 1284 391 1588 391 
Q 1994 391 2212 530 
Q 2431 669 2431 922 
Q 2431 1156 2273 1281 
Q 2116 1406 1581 1522 
L 1381 1569 
Q 847 1681 609 1914 
Q 372 2147 372 2553 
Q 372 3047 722 3315 
Q 1072 3584 1716 3584 
Q 2034 3584 2315 3537 
Q 2597 3491 2834 3397 
z
" id="DejaVuSans-73" transform="scale(0.015625)"/>
       <path d="M 1625 4666 
L 2156 4666 
L 531 -594 
L 0 -594 
L 1625 4666 
z
" id="DejaVuSans-2f" transform="scale(0.015625)"/>
       <path d="M 2906 2969 
L 2906 4863 
L 3481 4863 
L 3481 0 
L 2906 0 
L 2906 525 
Q 2725 213 2448 61 
Q 2172 -91 1784 -91 
Q 1150 -91 751 415 
Q 353 922 353 1747 
Q 353 2572 751 3078 
Q 1150 3584 1784 3584 
Q 2172 3584 2448 3432 
Q 2725 3281 2906 2969 
z
M 947 1747 
Q 947 1113 1208 752 
Q 1469 391 1925 391 
Q 2381 391 2643 752 
Q 2906 1113 2906 1747 
Q 2906 2381 2643 2742 
Q 2381 3103 1925 3103 
Q 1469 3103 1208 2742 
Q 947 2381 947 1747 
z
" id="DejaVuSans-64" transform="scale(0.015625)"/>
       <path d="M 603 3500 
L 1178 3500 
L 1178 0 
L 603 0 
L 603 3500 
z
M 603 4863 
L 1178 4863 
L 1178 4134 
L 603 4134 
L 603 4863 
z
" id="DejaVuSans-69" transform="scale(0.015625)"/>
       <path d="M 3328 2828 
Q 3544 3216 3844 3400 
Q 4144 3584 4550 3584 
Q 5097 3584 5394 3201 
Q 5691 2819 5691 2113 
L 5691 0 
L 5113 0 
L 5113 2094 
Q 5113 2597 4934 2840 
Q 4756 3084 4391 3084 
Q 3944 3084 3684 2787 
Q 3425 2491 3425 1978 
L 3425 0 
L 2847 0 
L 2847 2094 
Q 2847 2600 2669 2842 
Q 2491 3084 2119 3084 
Q 1678 3084 1418 2786 
Q 1159 2488 1159 1978 
L 1159 0 
L 581 0 
L 581 3500 
L 1159 3500 
L 1159 2956 
Q 1356 3278 1631 3431 
Q 1906 3584 2284 3584 
Q 2666 3584 2933 3390 
Q 3200 3197 3328 2828 
z
" id="DejaVuSans-6d" transform="scale(0.015625)"/>
       <path d="M 3513 2113 
L 3513 0 
L 2938 0 
L 2938 2094 
Q 2938 2591 2744 2837 
Q 2550 3084 2163 3084 
Q 1697 3084 1428 2787 
Q 1159 2491 1159 1978 
L 1159 0 
L 581 0 
L 581 3500 
L 1159 3500 
L 1159 2956 
Q 1366 3272 1645 3428 
Q 1925 3584 2291 3584 
Q 2894 3584 3203 3211 
Q 3513 2838 3513 2113 
z
" id="DejaVuSans-6e" transform="scale(0.015625)"/>
       <path d="M 513 4856 
L 1013 4856 
Q 1481 4119 1714 3412 
Q 1947 2706 1947 2009 
Q 1947 1309 1714 600 
Q 1481 -109 1013 -844 
L 513 -844 
Q 928 -128 1133 580 
Q 1338 1288 1338 2009 
Q 1338 2731 1133 3434 
Q 928 4138 513 4856 
z
" id="DejaVuSans-29" transform="scale(0.015625)"/>
      </defs>
      <use xlink:href="#DejaVuSans-6c"/>
      <use x="27.783203" xlink:href="#DejaVuSans-6f"/>
      <use x="88.964844" xlink:href="#DejaVuSans-67"/>
      <use x="152.441406" xlink:href="#DejaVuSans-31"/>
      <use x="216.064453" xlink:href="#DejaVuSans-30"/>
      <use x="279.6875" xlink:href="#DejaVuSans-28"/>
      <use x="318.701172" xlink:href="#DejaVuSans-23"/>
      <use x="402.490234" xlink:href="#DejaVuSans-20"/>
      <use x="434.277344" xlink:href="#DejaVuSans-66"/>
      <use x="463.982422" xlink:href="#DejaVuSans-2d"/>
      <use x="500.066406" xlink:href="#DejaVuSans-65"/>
      <use x="561.589844" xlink:href="#DejaVuSans-76"/>
      <use x="620.769531" xlink:href="#DejaVuSans-61"/>
      <use x="682.048828" xlink:href="#DejaVuSans-6c"/>
      <use x="709.832031" xlink:href="#DejaVuSans-73"/>
      <use x="761.931641" xlink:href="#DejaVuSans-20"/>
      <use x="793.71875" xlink:href="#DejaVuSans-2f"/>
      <use x="827.410156" xlink:href="#DejaVuSans-20"/>
      <use x="859.197266" xlink:href="#DejaVuSans-64"/>
      <use x="922.673828" xlink:href="#DejaVuSans-69"/>
      <use x="950.457031" xlink:href="#DejaVuSans-6d"/>
      <use x="1047.869141" xlink:href="#DejaVuSans-65"/>
      <use x="1109.392578" xlink:href="#DejaVuSans-6e"/>
      <use x="1172.771484" xlink:href="#DejaVuSans-73"/>
      <use x="1224.871094" xlink:href="#DejaVuSans-69"/>
      <use x="1252.654297" xlink:href="#DejaVuSans-6f"/>
      <use x="1313.835938" xlink:href="#DejaVuSans-6e"/>
      <use x="1377.214844" xlink:href="#DejaVuSans-29"/>
     </g>
    </g>
   </g>
   <g id="matplotlib.axis_2">
    <g id="ytick_1">
     <g id="line2d_17">
      <path clip-path="url(#p50a3d9b5fb)" d="M 57.6 298.944 
L 338.688 298.944 
" style="fill:none;stroke:#b0b0b0;stroke-linecap:square;stroke-width:0.8;"/>
     </g>
     <g id="line2d_18">
      <defs>
       <path d="M 0 0 
L -3.5 0 
" id="m36e57e12f1" style="stroke:#000000;stroke-width:0.8;"/>
      </defs>
      <g>
       <use style="stroke:#000000;stroke-width:0.8;" x="57.6" xlink:href="#m36e57e12f1" y="298.944"/>
      </g>
     </g>
     <g id="text_6">
      <!-- 0.0 -->
      <g transform="translate(25.155 305.02275)scale(0.16 -0.16)">
       <defs>
        <path d="M 684 794 
L 1344 794 
L 1344 0 
L 684 0 
L 684 794 
z
" id="DejaVuSans-2e" transform="scale(0.015625)"/>
       </defs>
       <use xlink:href="#DejaVuSans-30"/>
       <use x="63.623047" xlink:href="#DejaVuSans-2e"/>
       <use x="95.410156" xlink:href="#DejaVuSans-30"/>
      </g>
     </g>
    </g>
    <g id="ytick_2">
     <g id="line2d_19">
      <path clip-path="url(#p50a3d9b5fb)" d="M 57.6 240.431525 
L 338.688 240.431525 
" style="fill:none;stroke:#b0b0b0;stroke-linecap:square;stroke-width:0.8;"/>
     </g>
     <g id="line2d_20">
      <g>
       <use style="stroke:#000000;stroke-width:0.8;" x="57.6" xlink:href="#m36e57e12f1" y="240.431525"/>
      </g>
     </g>
     <g id="text_7">
      <!-- 0.2 -->
      <g transform="translate(25.155 246.510275)scale(0.16 -0.16)">
       <use xlink:href="#DejaVuSans-30"/>
       <use x="63.623047" xlink:href="#DejaVuSans-2e"/>
       <use x="95.410156" xlink:href="#DejaVuSans-32"/>
      </g>
     </g>
    </g>
    <g id="ytick_3">
     <g id="line2d_21">
      <path clip-path="url(#p50a3d9b5fb)" d="M 57.6 181.91905 
L 338.688 181.91905 
" style="fill:none;stroke:#b0b0b0;stroke-linecap:square;stroke-width:0.8;"/>
     </g>
     <g id="line2d_22">
      <g>
       <use style="stroke:#000000;stroke-width:0.8;" x="57.6" xlink:href="#m36e57e12f1" y="181.91905"/>
      </g>
     </g>
     <g id="text_8">
      <!-- 0.4 -->
      <g transform="translate(25.155 187.9978)scale(0.16 -0.16)">
       <use xlink:href="#DejaVuSans-30"/>
       <use x="63.623047" xlink:href="#DejaVuSans-2e"/>
       <use x="95.410156" xlink:href="#DejaVuSans-34"/>
      </g>
     </g>
    </g>
    <g id="ytick_4">
     <g id="line2d_23">
      <path clip-path="url(#p50a3d9b5fb)" d="M 57.6 123.406574 
L 338.688 123.406574 
" style="fill:none;stroke:#b0b0b0;stroke-linecap:square;stroke-width:0.8;"/>
     </g>
     <g id="line2d_24">
      <g>
       <use style="stroke:#000000;stroke-width:0.8;" x="57.6" xlink:href="#m36e57e12f1" y="123.406574"/>
      </g>
     </g>
     <g id="text_9">
      <!-- 0.6 -->
      <g transform="translate(25.155 129.485324)scale(0.16 -0.16)">
       <use xlink:href="#DejaVuSans-30"/>
       <use x="63.623047" xlink:href="#DejaVuSans-2e"/>
       <use x="95.410156" xlink:href="#DejaVuSans-36"/>
      </g>
     </g>
    </g>
    <g id="ytick_5">
     <g id="line2d_25">
      <path clip-path="url(#p50a3d9b5fb)" d="M 57.6 64.894099 
L 338.688 64.894099 
" style="fill:none;stroke:#b0b0b0;stroke-linecap:square;stroke-width:0.8;"/>
     </g>
     <g id="line2d_26">
      <g>
       <use style="stroke:#000000;stroke-width:0.8;" x="57.6" xlink:href="#m36e57e12f1" y="64.894099"/>
      </g>
     </g>
     <g id="text_10">
      <!-- 0.8 -->
      <g transform="translate(25.155 70.972849)scale(0.16 -0.16)">
       <defs>
        <path d="M 2034 2216 
Q 1584 2216 1326 1975 
Q 1069 1734 1069 1313 
Q 1069 891 1326 650 
Q 1584 409 2034 409 
Q 2484 409 2743 651 
Q 3003 894 3003 1313 
Q 3003 1734 2745 1975 
Q 2488 2216 2034 2216 
z
M 1403 2484 
Q 997 2584 770 2862 
Q 544 3141 544 3541 
Q 544 4100 942 4425 
Q 1341 4750 2034 4750 
Q 2731 4750 3128 4425 
Q 3525 4100 3525 3541 
Q 3525 3141 3298 2862 
Q 3072 2584 2669 2484 
Q 3125 2378 3379 2068 
Q 3634 1759 3634 1313 
Q 3634 634 3220 271 
Q 2806 -91 2034 -91 
Q 1263 -91 848 271 
Q 434 634 434 1313 
Q 434 1759 690 2068 
Q 947 2378 1403 2484 
z
M 1172 3481 
Q 1172 3119 1398 2916 
Q 1625 2713 2034 2713 
Q 2441 2713 2670 2916 
Q 2900 3119 2900 3481 
Q 2900 3844 2670 4047 
Q 2441 4250 2034 4250 
Q 1625 4250 1398 4047 
Q 1172 3844 1172 3481 
z
" id="DejaVuSans-38" transform="scale(0.015625)"/>
       </defs>
       <use xlink:href="#DejaVuSans-30"/>
       <use x="63.623047" xlink:href="#DejaVuSans-2e"/>
       <use x="95.410156" xlink:href="#DejaVuSans-38"/>
      </g>
     </g>
    </g>
    <g id="ytick_6">
     <g id="line2d_27">
      <path clip-path="url(#p50a3d9b5fb)" d="M 57.6 6.381624 
L 338.688 6.381624 
" style="fill:none;stroke:#b0b0b0;stroke-linecap:square;stroke-width:0.8;"/>
     </g>
     <g id="line2d_28">
      <g>
       <use style="stroke:#000000;stroke-width:0.8;" x="57.6" xlink:href="#m36e57e12f1" y="6.381624"/>
      </g>
     </g>
     <g id="text_11">
      <!-- 1.0 -->
      <g transform="translate(25.155 12.460374)scale(0.16 -0.16)">
       <use xlink:href="#DejaVuSans-31"/>
       <use x="63.623047" xlink:href="#DejaVuSans-2e"/>
       <use x="95.410156" xlink:href="#DejaVuSans-30"/>
      </g>
     </g>
    </g>
    <g id="text_12">
     <!-- Fraction of function,target pairs -->
     <g transform="translate(17.619531 285.585)rotate(-90)scale(0.17 -0.17)">
      <defs>
       <path d="M 628 4666 
L 3309 4666 
L 3309 4134 
L 1259 4134 
L 1259 2759 
L 3109 2759 
L 3109 2228 
L 1259 2228 
L 1259 0 
L 628 0 
L 628 4666 
z
" id="DejaVuSans-46" transform="scale(0.015625)"/>
       <path d="M 2631 2963 
Q 2534 3019 2420 3045 
Q 2306 3072 2169 3072 
Q 1681 3072 1420 2755 
Q 1159 2438 1159 1844 
L 1159 0 
L 581 0 
L 581 3500 
L 1159 3500 
L 1159 2956 
Q 1341 3275 1631 3429 
Q 1922 3584 2338 3584 
Q 2397 3584 2469 3576 
Q 2541 3569 2628 3553 
L 2631 2963 
z
" id="DejaVuSans-72" transform="scale(0.015625)"/>
       <path d="M 3122 3366 
L 3122 2828 
Q 2878 2963 2633 3030 
Q 2388 3097 2138 3097 
Q 1578 3097 1268 2742 
Q 959 2388 959 1747 
Q 959 1106 1268 751 
Q 1578 397 2138 397 
Q 2388 397 2633 464 
Q 2878 531 3122 666 
L 3122 134 
Q 2881 22 2623 -34 
Q 2366 -91 2075 -91 
Q 1284 -91 818 406 
Q 353 903 353 1747 
Q 353 2603 823 3093 
Q 1294 3584 2113 3584 
Q 2378 3584 2631 3529 
Q 2884 3475 3122 3366 
z
" id="DejaVuSans-63" transform="scale(0.015625)"/>
       <path d="M 1172 4494 
L 1172 3500 
L 2356 3500 
L 2356 3053 
L 1172 3053 
L 1172 1153 
Q 1172 725 1289 603 
Q 1406 481 1766 481 
L 2356 481 
L 2356 0 
L 1766 0 
Q 1100 0 847 248 
Q 594 497 594 1153 
L 594 3053 
L 172 3053 
L 172 3500 
L 594 3500 
L 594 4494 
L 1172 4494 
z
" id="DejaVuSans-74" transform="scale(0.015625)"/>
       <path d="M 544 1381 
L 544 3500 
L 1119 3500 
L 1119 1403 
Q 1119 906 1312 657 
Q 1506 409 1894 409 
Q 2359 409 2629 706 
Q 2900 1003 2900 1516 
L 2900 3500 
L 3475 3500 
L 3475 0 
L 2900 0 
L 2900 538 
Q 2691 219 2414 64 
Q 2138 -91 1772 -91 
Q 1169 -91 856 284 
Q 544 659 544 1381 
z
M 1991 3584 
L 1991 3584 
z
" id="DejaVuSans-75" transform="scale(0.015625)"/>
       <path d="M 750 794 
L 1409 794 
L 1409 256 
L 897 -744 
L 494 -744 
L 750 256 
L 750 794 
z
" id="DejaVuSans-2c" transform="scale(0.015625)"/>
       <path d="M 1159 525 
L 1159 -1331 
L 581 -1331 
L 581 3500 
L 1159 3500 
L 1159 2969 
Q 1341 3281 1617 3432 
Q 1894 3584 2278 3584 
Q 2916 3584 3314 3078 
Q 3713 2572 3713 1747 
Q 3713 922 3314 415 
Q 2916 -91 2278 -91 
Q 1894 -91 1617 61 
Q 1341 213 1159 525 
z
M 3116 1747 
Q 3116 2381 2855 2742 
Q 2594 3103 2138 3103 
Q 1681 3103 1420 2742 
Q 1159 2381 1159 1747 
Q 1159 1113 1420 752 
Q 1681 391 2138 391 
Q 2594 391 2855 752 
Q 3116 1113 3116 1747 
z
" id="DejaVuSans-70" transform="scale(0.015625)"/>
      </defs>
      <use xlink:href="#DejaVuSans-46"/>
      <use x="50.269531" xlink:href="#DejaVuSans-72"/>
      <use x="91.382812" xlink:href="#DejaVuSans-61"/>
      <use x="152.662109" xlink:href="#DejaVuSans-63"/>
      <use x="207.642578" xlink:href="#DejaVuSans-74"/>
      <use x="246.851562" xlink:href="#DejaVuSans-69"/>
      <use x="274.634766" xlink:href="#DejaVuSans-6f"/>
      <use x="335.816406" xlink:href="#DejaVuSans-6e"/>
      <use x="399.195312" xlink:href="#DejaVuSans-20"/>
      <use x="430.982422" xlink:href="#DejaVuSans-6f"/>
      <use x="492.164062" xlink:href="#DejaVuSans-66"/>
      <use x="527.369141" xlink:href="#DejaVuSans-20"/>
      <use x="559.15625" xlink:href="#DejaVuSans-66"/>
      <use x="594.361328" xlink:href="#DejaVuSans-75"/>
      <use x="657.740234" xlink:href="#DejaVuSans-6e"/>
      <use x="721.119141" xlink:href="#DejaVuSans-63"/>
      <use x="776.099609" xlink:href="#DejaVuSans-74"/>
      <use x="815.308594" xlink:href="#DejaVuSans-69"/>
      <use x="843.091797" xlink:href="#DejaVuSans-6f"/>
      <use x="904.273438" xlink:href="#DejaVuSans-6e"/>
      <use x="967.652344" xlink:href="#DejaVuSans-2c"/>
      <use x="999.439453" xlink:href="#DejaVuSans-74"/>
      <use x="1038.648438" xlink:href="#DejaVuSans-61"/>
      <use x="1099.927734" xlink:href="#DejaVuSans-72"/>
      <use x="1139.291016" xlink:href="#DejaVuSans-67"/>
      <use x="1202.767578" xlink:href="#DejaVuSans-65"/>
      <use x="1264.291016" xlink:href="#DejaVuSans-74"/>
      <use x="1303.5" xlink:href="#DejaVuSans-20"/>
      <use x="1335.287109" xlink:href="#DejaVuSans-70"/>
      <use x="1398.763672" xlink:href="#DejaVuSans-61"/>
      <use x="1460.042969" xlink:href="#DejaVuSans-69"/>
      <use x="1487.826172" xlink:href="#DejaVuSans-72"/>
      <use x="1528.939453" xlink:href="#DejaVuSans-73"/>
     </g>
    </g>
   </g>
   <g id="line2d_29">
    <defs>
     <path d="M 0 1.5 
C 0.397805 1.5 0.77937 1.341951 1.06066 1.06066 
C 1.341951 0.77937 1.5 0.397805 1.5 0 
C 1.5 -0.397805 1.341951 -0.77937 1.06066 -1.06066 
C 0.77937 -1.341951 0.397805 -1.5 0 -1.5 
C -0.397805 -1.5 -0.77937 -1.341951 -1.06066 -1.06066 
C -1.341951 -0.77937 -1.5 -0.397805 -1.5 0 
C -1.5 0.397805 -1.341951 0.77937 -1.06066 1.06066 
C -0.77937 1.341951 -0.397805 1.5 0 1.5 
z
" id="ma55db23e33" style="stroke:#000080;"/>
    </defs>
    <g>
     <use style="fill:#000080;stroke:#000080;" x="278.237228" xlink:href="#ma55db23e33" y="235.842311"/>
     <use style="fill:#000080;stroke:#000080;" x="278.237228" xlink:href="#ma55db23e33" y="235.842311"/>
    </g>
   </g>
   <g id="line2d_30">
    <path d="M 29.53256 298.944 
L 29.53256 298.370348 
L 53.708537 298.370348 
L 53.708537 297.223045 
L 76.759008 297.223045 
L 76.759008 296.649393 
L 77.884514 296.649393 
L 77.884514 296.075741 
L 81.775977 296.075741 
L 81.775977 295.50209 
L 86.351421 295.50209 
L 86.351421 294.354786 
L 91.535274 294.354786 
L 91.535274 293.207483 
L 92.026554 293.207483 
L 92.026554 292.633831 
L 93.863965 292.633831 
L 93.863965 292.060179 
L 97.043522 292.060179 
L 97.043522 291.486528 
L 98.43941 291.486528 
L 98.43941 290.912876 
L 100.343767 290.912876 
L 100.343767 290.339224 
L 101.785851 290.339224 
L 101.785851 289.765573 
L 103.117741 289.765573 
L 103.117741 289.191921 
L 105.057436 289.191921 
L 105.057436 288.618269 
L 107.811151 288.618269 
L 107.811151 288.044617 
L 108.948899 288.044617 
L 108.948899 287.470966 
L 110.859585 287.470966 
L 110.859585 286.897314 
L 111.023335 286.897314 
L 111.023335 286.323662 
L 114.685115 286.323662 
L 114.685115 285.75001 
L 115.205729 285.75001 
L 115.205729 285.176359 
L 116.914437 285.176359 
L 116.914437 284.602707 
L 119.199476 284.602707 
L 119.199476 284.029055 
L 119.40226 284.029055 
L 119.40226 283.455404 
L 121.036887 283.455404 
L 121.036887 282.3081 
L 123.434283 282.3081 
L 123.434283 281.734448 
L 128.768338 281.734448 
L 128.768338 281.160797 
L 130.45189 281.160797 
L 130.45189 280.587145 
L 132.940331 280.587145 
L 132.940331 280.013493 
L 133.622529 280.013493 
L 133.622529 279.439842 
L 134.192921 279.439842 
L 134.192921 278.86619 
L 141.407239 278.86619 
L 141.46423 275.42428 
L 141.71841 275.42428 
L 141.71841 274.850628 
L 143.952218 274.850628 
L 143.952218 273.703324 
L 144.93531 273.703324 
L 144.93531 272.556021 
L 145.235796 272.556021 
L 145.235796 271.982369 
L 148.78943 271.982369 
L 148.78943 271.408718 
L 150.531253 271.408718 
L 150.531253 270.835066 
L 154.641235 270.835066 
L 154.641235 270.261414 
L 157.312322 270.261414 
L 157.312322 269.687762 
L 160.162007 269.687762 
L 160.162007 269.114111 
L 161.21983 269.114111 
L 161.21983 268.540459 
L 162.086834 268.540459 
L 162.130378 267.393156 
L 162.38081 267.393156 
L 162.38081 266.819504 
L 164.102088 266.819504 
L 164.102088 266.245852 
L 165.215452 266.245852 
L 165.215452 265.6722 
L 165.817113 265.6722 
L 165.817113 265.098549 
L 166.054862 265.098549 
L 166.054862 264.524897 
L 166.809221 264.524897 
L 166.809221 263.951245 
L 167.557803 263.951245 
L 167.557803 263.377593 
L 168.214315 263.377593 
L 168.214315 262.803942 
L 168.445948 262.803942 
L 168.445948 262.23029 
L 168.566635 262.23029 
L 168.566635 261.082987 
L 170.25063 261.082987 
L 170.25063 259.935683 
L 170.451489 259.935683 
L 170.451489 259.362031 
L 171.665827 259.362031 
L 171.665827 258.78838 
L 173.625648 258.78838 
L 173.625648 258.214728 
L 174.100548 258.214728 
L 174.100548 257.641076 
L 175.326195 257.641076 
L 175.326195 257.067425 
L 175.46036 257.067425 
L 175.46036 256.493773 
L 176.271451 256.493773 
L 176.30621 255.346469 
L 177.263313 255.346469 
L 177.263313 254.772818 
L 181.579784 254.772818 
L 181.579784 254.199166 
L 183.271451 254.199166 
L 183.271451 253.625514 
L 187.283092 253.625514 
L 187.283092 253.051863 
L 202.004345 253.051863 
L 202.004345 252.478211 
L 204.534949 252.478211 
L 204.595243 251.330907 
L 219.662403 251.330907 
L 219.662403 250.757256 
L 222.371587 250.757256 
L 222.371587 250.183604 
L 230.761069 250.183604 
L 230.761069 249.609952 
L 230.972878 249.609952 
L 230.972878 249.036301 
L 232.507788 249.036301 
L 232.507788 248.462649 
L 233.904136 248.462649 
L 233.904136 247.315345 
L 237.787168 247.315345 
L 237.787168 246.741694 
L 239.535656 246.741694 
L 239.535656 246.168042 
L 253.113309 246.168042 
L 253.113309 245.59439 
L 254.981258 245.59439 
L 254.981258 245.020738 
L 257.404948 245.020738 
L 257.404948 244.447087 
L 260.401095 244.447087 
L 260.401095 243.873435 
L 260.750348 243.873435 
L 260.750348 243.299783 
L 262.209603 243.299783 
L 262.209603 242.726132 
L 263.146264 242.726132 
L 263.146264 242.15248 
L 263.259221 242.15248 
L 263.259221 241.005176 
L 263.556126 241.005176 
L 263.556126 240.431525 
L 264.424891 240.431525 
L 264.424891 239.857873 
L 265.714223 239.857873 
L 265.714223 239.284221 
L 268.849717 239.284221 
L 268.849717 238.71057 
L 269.780997 238.71057 
L 269.780997 238.136918 
L 270.591266 238.136918 
L 270.591266 237.563266 
L 274.516717 237.563266 
L 274.516717 236.989614 
L 275.847052 236.989614 
L 275.847052 236.415963 
L 278.237228 236.415963 
L 278.237228 235.842311 
L 338.688 235.842311 
L 338.688 235.842311 
" style="fill:none;stroke:#000080;stroke-linecap:square;stroke-width:1.5;"/>
   </g>
   <g id="line2d_31">
    <defs>
     <path d="M 0 6 
C 1.591219 6 3.117479 5.367802 4.242641 4.242641 
C 5.367802 3.117479 6 1.591219 6 0 
C 6 -1.591219 5.367802 -3.117479 4.242641 -4.242641 
C 3.117479 -5.367802 1.591219 -6 0 -6 
C -1.591219 -6 -3.117479 -5.367802 -4.242641 -4.242641 
C -5.367802 -3.117479 -6 -1.591219 -6 0 
C -6 1.591219 -5.367802 3.117479 -4.242641 4.242641 
C -3.117479 5.367802 -1.591219 6 0 6 
z
" id="m44c0f2eaf0" style="stroke:#000080;stroke-width:1.5;"/>
    </defs>
    <g>
     <use style="fill-opacity:0;stroke:#000080;stroke-width:1.5;" x="132.940331" xlink:href="#m44c0f2eaf0" y="280.587145"/>
     <use style="fill-opacity:0;stroke:#000080;stroke-width:1.5;" x="173.625648" xlink:href="#m44c0f2eaf0" y="258.78838"/>
     <use style="fill-opacity:0;stroke:#000080;stroke-width:1.5;" x="262.209603" xlink:href="#m44c0f2eaf0" y="243.299783"/>
     <use style="fill-opacity:0;stroke:#000080;stroke-width:1.5;" x="278.237228" xlink:href="#m44c0f2eaf0" y="235.842311"/>
     <use style="fill-opacity:0;stroke:#000080;stroke-width:1.5;" x="278.237228" xlink:href="#m44c0f2eaf0" y="235.842311"/>
     <use style="fill-opacity:0;stroke:#000080;stroke-width:1.5;" x="338.688" xlink:href="#m44c0f2eaf0" y="235.842311"/>
    </g>
   </g>
   <g id="line2d_32">
    <path style="fill:none;stroke:#000080;stroke-linecap:square;stroke-width:1.5;"/>
    <g/>
   </g>
   <g id="line2d_33">
    <path clip-path="url(#p50a3d9b5fb)" d="M 218.221714 251.330907 
" style="fill:none;stroke:#000080;stroke-linecap:square;stroke-width:1.5;"/>
    <defs>
     <path d="M -12 12 
L 12 -12 
M -12 -12 
L 12 12 
" id="m922f260662" style="stroke:#000080;"/>
    </defs>
    <g clip-path="url(#p50a3d9b5fb)">
     <use style="fill:#000080;stroke:#000080;" x="218.221714" xlink:href="#m922f260662" y="251.330907"/>
    </g>
   </g>
   <g id="line2d_34">
    <defs>
     <path d="M 0 1.5 
C 0.397805 1.5 0.77937 1.341951 1.06066 1.06066 
C 1.341951 0.77937 1.5 0.397805 1.5 0 
C 1.5 -0.397805 1.341951 -0.77937 1.06066 -1.06066 
C 0.77937 -1.341951 0.397805 -1.5 0 -1.5 
C -0.397805 -1.5 -0.77937 -1.341951 -1.06066 -1.06066 
C -1.341951 -0.77937 -1.5 -0.397805 -1.5 0 
C -1.5 0.397805 -1.341951 0.77937 -1.06066 1.06066 
C -0.77937 1.341951 -0.397805 1.5 0 1.5 
z
" id="m7166fa9d53" style="stroke:#ff00ff;"/>
    </defs>
    <g>
     <use style="fill:#ff00ff;stroke:#ff00ff;" x="304.209865" xlink:href="#m7166fa9d53" y="6.381624"/>
     <use style="fill:#ff00ff;stroke:#ff00ff;" x="304.209865" xlink:href="#m7166fa9d53" y="6.381624"/>
    </g>
   </g>
   <g id="line2d_35">
    <path d="M 29.53256 298.944 
L 29.53256 292.633831 
L 41.620548 292.633831 
L 41.620548 290.912876 
L 48.691568 290.912876 
L 48.691568 287.470966 
L 53.708537 287.470966 
L 53.708537 286.897314 
L 57.6 286.897314 
L 57.6 286.323662 
L 60.779557 286.323662 
L 60.779557 285.75001 
L 63.467834 285.75001 
L 63.467834 284.602707 
L 65.796525 284.602707 
L 65.796525 283.455404 
L 69.687988 283.455404 
L 69.687988 281.160797 
L 71.35013 281.160797 
L 71.35013 278.86619 
L 72.867545 278.86619 
L 72.867545 278.292538 
L 77.884514 278.292538 
L 77.884514 277.718886 
L 83.438118 277.718886 
L 83.438118 277.145235 
L 85.66744 277.145235 
L 85.66744 276.571583 
L 87.009585 276.571583 
L 87.009585 274.850628 
L 91.029752 274.850628 
L 91.029752 274.276976 
L 92.969447 274.276976 
L 92.969447 273.703324 
L 93.422441 273.703324 
L 93.422441 272.556021 
L 94.714831 272.556021 
L 94.714831 271.982369 
L 100.641881 271.982369 
L 100.641881 270.835066 
L 103.372333 270.835066 
L 103.372333 270.261414 
L 103.623262 270.261414 
L 103.623262 269.687762 
L 112.877038 269.687762 
L 112.877038 269.114111 
L 122.018385 269.114111 
L 122.018385 268.540459 
L 122.276749 268.540459 
L 122.276749 267.393156 
L 125.399222 267.393156 
L 125.399222 266.819504 
L 129.630422 266.819504 
L 129.630422 266.245852 
L 131.236397 266.245852 
L 131.236397 265.6722 
L 134.787017 265.6722 
L 134.787017 265.098549 
L 135.956794 265.098549 
L 135.956794 263.951245 
L 141.521035 263.951245 
L 141.605898 262.803942 
L 142.619936 262.803942 
L 142.619936 262.23029 
L 143.040814 262.23029 
L 143.040814 261.656638 
L 144.124035 261.656638 
L 144.124035 261.082987 
L 144.77134 261.082987 
L 144.77134 260.509335 
L 145.372754 260.509335 
L 145.372754 259.362031 
L 146.707319 259.362031 
L 146.707319 258.78838 
L 146.937474 258.78838 
L 146.937474 258.214728 
L 149.413639 258.214728 
L 149.413639 257.641076 
L 153.192929 257.641076 
L 153.192929 257.067425 
L 153.308709 257.067425 
L 153.308709 256.493773 
L 156.175347 256.493773 
L 156.175347 255.920121 
L 156.32159 255.920121 
L 156.32159 255.346469 
L 158.368898 255.346469 
L 158.368898 254.772818 
L 159.354904 254.772818 
L 159.354904 254.199166 
L 159.797958 254.199166 
L 159.797958 253.625514 
L 160.034962 253.625514 
L 160.034962 253.051863 
L 162.112973 253.051863 
L 162.112973 252.478211 
L 162.329291 252.478211 
L 162.329291 250.757256 
L 162.440724 250.757256 
L 162.440724 249.609952 
L 163.242288 249.609952 
L 163.242288 249.036301 
L 163.733114 249.036301 
L 163.780654 247.315345 
L 165.447111 247.315345 
L 165.447111 246.168042 
L 165.654426 246.168042 
L 165.654426 245.59439 
L 166.068747 245.59439 
L 166.068747 245.020738 
L 166.453099 245.020738 
L 166.453099 244.447087 
L 166.935137 244.447087 
L 166.935137 243.873435 
L 167.216791 243.873435 
L 167.216791 243.299783 
L 167.372038 243.299783 
L 167.372038 242.726132 
L 168.066419 242.726132 
L 168.066419 242.15248 
L 168.602679 242.15248 
L 168.602679 241.578828 
L 169.262177 241.578828 
L 169.262177 241.005176 
L 169.825059 241.005176 
L 169.825059 240.431525 
L 169.958822 240.431525 
L 169.958822 239.284221 
L 171.635594 239.284221 
L 171.635594 238.71057 
L 171.950454 238.71057 
L 171.990033 237.563266 
L 172.715968 237.563266 
L 172.715968 236.989614 
L 172.97942 236.989614 
L 173.040014 235.842311 
L 173.589616 235.842311 
L 173.589616 235.268659 
L 173.710926 235.268659 
L 173.710926 234.695008 
L 174.579904 234.695008 
L 174.579904 234.121356 
L 174.862995 234.121356 
L 174.862995 233.547704 
L 175.605554 233.547704 
L 175.605554 232.974052 
L 177.076048 232.974052 
L 177.076048 231.253097 
L 177.473864 231.253097 
L 177.473864 230.679446 
L 177.901581 230.679446 
L 177.901581 230.105794 
L 178.356832 230.105794 
L 178.356832 229.532142 
L 179.33075 229.532142 
L 179.33075 228.95849 
L 179.712566 228.95849 
L 179.712566 228.384839 
L 180.314571 228.384839 
L 180.314571 227.811187 
L 180.4672 227.811187 
L 180.4672 227.237535 
L 180.777468 227.237535 
L 180.816238 226.090232 
L 181.073508 226.090232 
L 181.073508 225.51658 
L 181.225485 225.51658 
L 181.225485 224.942928 
L 181.633877 224.942928 
L 181.690637 223.795625 
L 181.797973 223.795625 
L 181.879445 221.501018 
L 183.157214 221.501018 
L 183.193644 220.353715 
L 183.374658 220.353715 
L 183.464465 219.206411 
L 184.264802 219.206411 
L 184.264802 218.632759 
L 184.459276 218.632759 
L 184.459276 218.059108 
L 184.57973 218.059108 
L 184.685046 216.911804 
L 184.867832 216.911804 
L 184.867832 216.338153 
L 185.310832 216.338153 
L 185.310832 215.764501 
L 186.058892 215.764501 
L 186.058892 215.190849 
L 186.468683 215.190849 
L 186.468683 214.617197 
L 186.869065 214.617197 
L 186.869065 214.043546 
L 187.731656 214.043546 
L 187.731656 213.469894 
L 188.033608 213.469894 
L 188.033608 212.896242 
L 188.161154 212.896242 
L 188.161154 212.322591 
L 188.403842 212.322591 
L 188.403842 211.748939 
L 188.728569 211.748939 
L 188.819173 210.027984 
L 188.877439 210.027984 
L 188.877439 209.454332 
L 189.959616 209.454332 
L 189.959616 208.88068 
L 190.142062 208.88068 
L 190.142062 208.307029 
L 190.431094 208.307029 
L 190.499618 205.43877 
L 190.921897 205.43877 
L 190.921897 204.865118 
L 191.277055 204.865118 
L 191.277055 204.291467 
L 191.391144 204.291467 
L 191.391144 203.144163 
L 191.706679 203.144163 
L 191.706679 202.570511 
L 191.833846 202.570511 
L 191.903394 201.423208 
L 192.02914 201.423208 
L 192.101035 199.702253 
L 192.997815 199.702253 
L 192.997815 199.128601 
L 193.339643 199.128601 
L 193.339643 198.554949 
L 193.643519 198.554949 
L 193.643519 197.981298 
L 194.569347 197.981298 
L 194.569347 197.407646 
L 195.284231 197.407646 
L 195.284231 196.833994 
L 195.671058 196.833994 
L 195.671058 196.260342 
L 196.474591 196.260342 
L 196.474591 195.686691 
L 200.094989 195.686691 
L 200.094989 195.113039 
L 202.811843 195.113039 
L 202.811843 194.539387 
L 203.082329 194.539387 
L 203.082329 193.965736 
L 204.083423 193.965736 
L 204.083423 193.392084 
L 204.723532 193.392084 
L 204.723532 192.818432 
L 204.993705 192.818432 
L 204.993705 190.523825 
L 205.374524 190.523825 
L 205.434894 189.376522 
L 206.214457 189.376522 
L 206.214457 188.80287 
L 206.724898 188.80287 
L 206.724898 188.229218 
L 207.513293 188.229218 
L 207.513293 187.655567 
L 208.098882 187.655567 
L 208.188397 186.508263 
L 208.377719 186.508263 
L 208.377719 185.36096 
L 208.550438 185.36096 
L 208.550438 184.787308 
L 209.58209 184.787308 
L 209.58209 184.213656 
L 209.905354 184.213656 
L 209.905354 183.640005 
L 210.882165 183.640005 
L 210.882165 183.066353 
L 211.031351 183.066353 
L 211.031351 182.492701 
L 212.948491 182.492701 
L 212.948491 181.91905 
L 216.378876 181.91905 
L 216.487085 180.771746 
L 218.915083 180.771746 
L 218.915083 180.198094 
L 219.243804 180.198094 
L 219.243804 179.624443 
L 219.59419 179.624443 
L 219.659192 177.329836 
L 219.91047 177.329836 
L 219.9421 176.182532 
L 220.07809 176.182532 
L 220.183442 173.887925 
L 220.264911 173.887925 
L 220.280106 171.019667 
L 220.438085 171.019667 
L 220.547702 169.872363 
L 220.572104 169.872363 
L 220.624149 167.004105 
L 220.850597 167.004105 
L 220.850597 166.430453 
L 221.020158 166.430453 
L 221.084505 164.135846 
L 221.185732 164.135846 
L 221.185732 163.562195 
L 221.447714 163.562195 
L 221.447714 162.988543 
L 221.613604 162.988543 
L 221.613604 162.414891 
L 221.739489 162.414891 
L 221.76228 160.693936 
L 222.033472 160.693936 
L 222.033472 160.120284 
L 222.219165 160.120284 
L 222.219165 159.546632 
L 222.450586 159.546632 
L 222.465359 158.399329 
L 222.626765 158.399329 
L 222.626765 157.252026 
L 224.254193 157.252026 
L 224.254193 156.678374 
L 224.470759 156.678374 
L 224.470759 155.53107 
L 224.635724 155.53107 
L 224.635724 154.957419 
L 224.920947 154.957419 
L 224.920947 153.810115 
L 225.043321 153.810115 
L 225.062888 152.662812 
L 225.393821 152.662812 
L 225.393821 152.08916 
L 225.76482 152.08916 
L 225.76482 151.515508 
L 226.04522 151.515508 
L 226.073258 150.368205 
L 227.02323 150.368205 
L 227.02323 149.794553 
L 230.742536 149.794553 
L 230.742536 149.220902 
L 230.94919 149.220902 
L 231.0389 147.499946 
L 231.282713 147.499946 
L 231.36925 144.058036 
L 231.453564 144.058036 
L 231.539748 142.910733 
L 231.583086 142.910733 
L 231.673633 140.616126 
L 231.846945 140.616126 
L 231.954237 137.174215 
L 231.997192 137.174215 
L 232.087982 133.732305 
L 232.131395 133.732305 
L 232.157139 132.01135 
L 232.422715 132.01135 
L 232.422715 131.437698 
L 233.809937 131.437698 
L 233.809937 130.864047 
L 233.928103 130.864047 
L 233.979046 127.422136 
L 234.063622 127.422136 
L 234.063622 126.848485 
L 234.612312 126.848485 
L 234.612312 126.274833 
L 235.259926 126.274833 
L 235.259926 125.701181 
L 238.045913 125.701181 
L 238.142225 123.980226 
L 238.25195 123.980226 
L 238.301758 122.832923 
L 238.370657 122.832923 
L 238.43841 121.111967 
L 238.494125 121.111967 
L 238.586156 118.243709 
L 238.629501 118.243709 
L 238.63383 116.522754 
L 239.324156 116.522754 
L 239.324156 115.949102 
L 239.631461 115.949102 
L 239.664436 114.801798 
L 239.790449 114.801798 
L 239.790449 114.228147 
L 239.907011 114.228147 
L 239.970865 112.507192 
L 240.097676 112.507192 
L 240.097676 111.93354 
L 240.272889 111.93354 
L 240.272889 111.359888 
L 242.898947 111.359888 
L 242.898947 110.786236 
L 243.015647 110.786236 
L 243.092987 107.917978 
L 243.332313 107.917978 
L 243.345862 106.770674 
L 244.235478 106.770674 
L 244.328692 102.755112 
L 244.375463 102.755112 
L 244.485503 101.607809 
L 244.518427 101.607809 
L 244.518427 100.460506 
L 246.631283 100.460506 
L 246.668318 98.73955 
L 246.785258 98.73955 
L 246.785258 97.592247 
L 247.043755 97.592247 
L 247.149783 95.871292 
L 247.220949 95.871292 
L 247.220949 95.29764 
L 247.674135 95.29764 
L 247.674135 94.723988 
L 247.827705 94.723988 
L 247.850682 92.429381 
L 247.96955 92.429381 
L 247.96955 91.85573 
L 248.081319 91.85573 
L 248.139383 90.134775 
L 248.69329 90.134775 
L 248.69329 89.561123 
L 249.813656 89.561123 
L 249.813656 88.987471 
L 249.97601 88.987471 
L 250.05179 87.840168 
L 250.251625 87.840168 
L 250.251625 87.266516 
L 250.467486 87.266516 
L 250.467486 86.692864 
L 250.715163 86.692864 
L 250.807357 84.398257 
L 250.887978 84.398257 
L 250.887978 83.250954 
L 252.462866 83.250954 
L 252.462866 82.677302 
L 252.656017 82.677302 
L 252.683837 80.956347 
L 252.827597 80.956347 
L 252.858591 79.235392 
L 253.172545 79.235392 
L 253.269627 76.940785 
L 253.286448 76.940785 
L 253.286448 76.367133 
L 253.498303 76.367133 
L 253.498303 75.793482 
L 254.924679 75.793482 
L 254.924679 75.21983 
L 255.076135 75.21983 
L 255.076135 74.646178 
L 255.240072 74.646178 
L 255.240072 74.072526 
L 255.364094 74.072526 
L 255.377479 72.925223 
L 255.477893 72.925223 
L 255.578265 71.204268 
L 256.966004 71.204268 
L 256.966004 70.630616 
L 257.424446 70.630616 
L 257.44348 69.483313 
L 258.747601 69.483313 
L 258.747601 68.909661 
L 258.983245 68.909661 
L 259.094194 67.762358 
L 259.192595 67.762358 
L 259.256618 64.894099 
L 260.386337 64.894099 
L 260.386337 64.320447 
L 260.682485 64.320447 
L 260.766444 62.599492 
L 260.840615 62.599492 
L 260.840615 62.02584 
L 261.969391 62.02584 
L 261.969391 61.452189 
L 262.224408 61.452189 
L 262.325936 59.731234 
L 263.169492 59.731234 
L 263.169492 59.157582 
L 263.420677 59.157582 
L 263.521311 58.010278 
L 263.569831 58.010278 
L 263.633008 56.862975 
L 264.557242 56.862975 
L 264.557242 56.289323 
L 264.760147 56.289323 
L 264.831308 53.994716 
L 265.94212 53.994716 
L 265.984359 52.273761 
L 266.852226 52.273761 
L 266.852226 51.700109 
L 267.018406 51.700109 
L 267.076831 49.405503 
L 268.049806 49.405503 
L 268.104881 48.258199 
L 268.177409 48.258199 
L 268.177409 47.110896 
L 268.871074 47.110896 
L 268.891585 45.389941 
L 269.075687 45.389941 
L 269.161668 43.668985 
L 270.076863 43.668985 
L 270.076863 43.095334 
L 270.821824 43.095334 
L 270.900652 40.227075 
L 271.655868 40.227075 
L 271.759706 39.079772 
L 272.494642 39.079772 
L 272.523647 37.358817 
L 273.168594 37.358817 
L 273.262951 36.211513 
L 273.94705 36.211513 
L 274.046674 32.195951 
L 274.730064 32.195951 
L 274.730064 31.622299 
L 275.327256 31.622299 
L 275.327256 31.048648 
L 276.024264 31.048648 
L 276.024264 30.474996 
L 276.622262 30.474996 
L 276.652179 28.180389 
L 277.195536 28.180389 
L 277.224333 25.885782 
L 277.694949 25.885782 
L 277.805898 24.164827 
L 278.369092 24.164827 
L 278.409789 21.87022 
L 278.817562 21.87022 
L 278.914666 20.722917 
L 279.424554 20.722917 
L 279.491562 18.42831 
L 279.859097 18.42831 
L 279.859097 17.854658 
L 280.929736 17.854658 
L 280.964489 16.133703 
L 281.871905 16.133703 
L 281.889178 13.839096 
L 283.166084 13.839096 
L 283.166084 13.265444 
L 283.925282 13.265444 
L 284.007411 11.544489 
L 284.787741 11.544489 
L 284.80208 10.397186 
L 288.218503 10.397186 
L 288.218503 9.823534 
L 289.185215 9.823534 
L 289.185215 9.249882 
L 291.89736 9.249882 
L 291.89736 8.676231 
L 292.672692 8.676231 
L 292.672692 8.102579 
L 297.167012 8.102579 
L 297.167012 7.528927 
L 298.09413 7.528927 
L 298.09413 6.955275 
L 304.209865 6.955275 
L 304.209865 6.381624 
L 338.688 6.381624 
L 338.688 6.381624 
" style="fill:none;stroke:#ff00ff;stroke-linecap:square;stroke-width:1.5;"/>
   </g>
   <g id="line2d_36">
    <defs>
     <path d="M 0 8.485281 
L 5.091169 0 
L 0 -8.485281 
L -5.091169 0 
z
" id="me01b1997be" style="stroke:#ff00ff;stroke-linejoin:miter;stroke-width:1.5;"/>
    </defs>
    <g>
     <use style="fill-opacity:0;stroke:#ff00ff;stroke-linejoin:miter;stroke-width:1.5;" x="83.438118" xlink:href="#me01b1997be" y="277.718886"/>
     <use style="fill-opacity:0;stroke:#ff00ff;stroke-linejoin:miter;stroke-width:1.5;" x="156.32159" xlink:href="#me01b1997be" y="255.920121"/>
     <use style="fill-opacity:0;stroke:#ff00ff;stroke-linejoin:miter;stroke-width:1.5;" x="226.073258" xlink:href="#me01b1997be" y="150.941857"/>
     <use style="fill-opacity:0;stroke:#ff00ff;stroke-linejoin:miter;stroke-width:1.5;" x="276.024264" xlink:href="#me01b1997be" y="30.474996"/>
     <use style="fill-opacity:0;stroke:#ff00ff;stroke-linejoin:miter;stroke-width:1.5;" x="304.209865" xlink:href="#me01b1997be" y="6.381624"/>
     <use style="fill-opacity:0;stroke:#ff00ff;stroke-linejoin:miter;stroke-width:1.5;" x="338.688" xlink:href="#me01b1997be" y="6.381624"/>
    </g>
   </g>
   <g id="line2d_37">
    <path style="fill:none;stroke:#ff00ff;stroke-linecap:square;stroke-width:1.5;"/>
    <g/>
   </g>
   <g id="line2d_38">
    <path clip-path="url(#p50a3d9b5fb)" d="M 218.221714 180.771746 
" style="fill:none;stroke:#ff00ff;stroke-linecap:square;stroke-width:1.5;"/>
    <defs>
     <path d="M -12 12 
L 12 -12 
M -12 -12 
L 12 12 
" id="mce06f62670" style="stroke:#ff00ff;"/>
    </defs>
    <g clip-path="url(#p50a3d9b5fb)">
     <use style="fill:#ff00ff;stroke:#ff00ff;" x="218.221714" xlink:href="#mce06f62670" y="180.771746"/>
    </g>
   </g>
   <g id="line2d_39">
    <defs>
     <path d="M 0 1.5 
C 0.397805 1.5 0.77937 1.341951 1.06066 1.06066 
C 1.341951 0.77937 1.5 0.397805 1.5 0 
C 1.5 -0.397805 1.341951 -0.77937 1.06066 -1.06066 
C 0.77937 -1.341951 0.397805 -1.5 0 -1.5 
C -0.397805 -1.5 -0.77937 -1.341951 -1.06066 -1.06066 
C -1.341951 -0.77937 -1.5 -0.397805 -1.5 0 
C -1.5 0.397805 -1.341951 0.77937 -1.06066 1.06066 
C -0.77937 1.341951 -0.397805 1.5 0 1.5 
z
" id="m975d69ab2f" style="stroke:#ff7500;"/>
    </defs>
    <g>
     <use style="fill:#ff7500;stroke:#ff7500;" x="289.968458" xlink:href="#m975d69ab2f" y="121.111967"/>
     <use style="fill:#ff7500;stroke:#ff7500;" x="289.968458" xlink:href="#m975d69ab2f" y="121.111967"/>
    </g>
   </g>
   <g id="line2d_40">
    <path d="M 29.53256 298.944 
L 29.53256 279.439842 
L 41.620548 279.439842 
L 41.620548 273.129673 
L 48.691568 273.129673 
L 48.691568 272.556021 
L 53.708537 272.556021 
L 53.708537 270.261414 
L 60.779557 270.261414 
L 60.779557 268.540459 
L 65.796525 268.540459 
L 65.796525 267.393156 
L 67.850577 267.393156 
L 67.850577 266.819504 
L 71.35013 266.819504 
L 71.35013 266.245852 
L 72.867545 266.245852 
L 72.867545 265.098549 
L 76.759008 265.098549 
L 76.759008 264.524897 
L 85.66744 264.524897 
L 85.66744 263.951245 
L 89.972502 263.951245 
L 89.972502 262.803942 
L 93.422441 262.803942 
L 93.422441 262.23029 
L 97.043522 262.23029 
L 97.043522 261.656638 
L 98.771596 261.656638 
L 98.771596 260.509335 
L 99.097574 260.509335 
L 99.097574 259.935683 
L 100.040467 259.935683 
L 100.040467 258.78838 
L 101.785851 258.78838 
L 101.785851 258.214728 
L 102.859376 258.214728 
L 102.859376 257.641076 
L 103.372333 257.641076 
L 103.372333 257.067425 
L 104.114542 257.067425 
L 104.114542 256.493773 
L 107.414787 256.493773 
L 107.414787 255.346469 
L 107.811151 255.346469 
L 107.811151 254.772818 
L 112.431755 254.772818 
L 112.431755 254.199166 
L 113.167699 254.199166 
L 113.167699 253.625514 
L 118.363901 253.625514 
L 118.363901 253.051863 
L 119.097192 253.051863 
L 119.097192 252.478211 
L 119.602714 252.478211 
L 119.602714 251.904559 
L 120.759333 251.904559 
L 120.759333 250.183604 
L 122.531342 250.183604 
L 122.531342 249.036301 
L 123.192626 249.036301 
L 123.192626 248.462649 
L 126.030894 248.462649 
L 126.030894 247.315345 
L 126.773103 247.315345 
L 126.773103 246.168042 
L 127.293718 246.168042 
L 127.293718 245.59439 
L 128.168991 245.59439 
L 128.168991 245.020738 
L 128.471239 245.020738 
L 128.471239 244.447087 
L 129.46138 244.447087 
L 129.46138 243.873435 
L 130.874681 243.873435 
L 130.874681 243.299783 
L 131.439773 243.299783 
L 131.439773 242.726132 
L 132.036046 242.726132 
L 132.133473 241.578828 
L 133.488207 241.578828 
L 133.488207 241.005176 
L 134.364738 241.005176 
L 134.364738 240.431525 
L 135.361539 240.431525 
L 135.361539 239.857873 
L 135.760625 239.857873 
L 135.760625 239.284221 
L 135.995765 239.284221 
L 135.995765 238.71057 
L 136.86886 238.71057 
L 136.979586 237.563266 
L 137.235245 237.563266 
L 137.235245 236.989614 
L 137.84096 236.989614 
L 137.84096 236.415963 
L 140.134598 236.415963 
L 140.134598 235.842311 
L 140.378508 235.842311 
L 140.378508 235.268659 
L 144.124035 235.268659 
L 144.124035 234.695008 
L 146.302479 234.695008 
L 146.302479 234.121356 
L 146.77039 234.121356 
L 146.77039 233.547704 
L 147.368603 233.547704 
L 147.368603 232.974052 
L 148.826773 232.974052 
L 148.826773 232.400401 
L 149.575199 232.400401 
L 149.575199 231.253097 
L 150.37835 231.253097 
L 150.37835 230.105794 
L 150.49739 230.105794 
L 150.49739 229.532142 
L 150.66605 229.532142 
L 150.66605 228.95849 
L 151.597455 228.95849 
L 151.597455 228.384839 
L 152.511852 228.384839 
L 152.511852 227.811187 
L 153.792374 227.811187 
L 153.792374 227.237535 
L 154.153391 227.237535 
L 154.153391 226.663884 
L 154.587699 226.663884 
L 154.587699 226.090232 
L 155.089774 226.090232 
L 155.089774 225.51658 
L 156.003167 225.51658 
L 156.003167 224.942928 
L 156.272978 224.942928 
L 156.272978 224.369277 
L 156.514691 224.369277 
L 156.622378 223.221973 
L 157.046598 223.221973 
L 157.046598 222.648321 
L 158.476481 222.648321 
L 158.476481 222.07467 
L 158.784773 222.07467 
L 158.784773 221.501018 
L 159.242359 221.501018 
L 159.242359 220.927366 
L 160.336402 220.927366 
L 160.336402 220.353715 
L 160.811875 220.353715 
L 160.811875 219.780063 
L 161.274728 219.780063 
L 161.274728 219.206411 
L 161.402155 219.206411 
L 161.402155 218.632759 
L 161.53766 218.632759 
L 161.53766 218.059108 
L 161.734513 218.059108 
L 161.734513 217.485456 
L 161.8498 217.485456 
L 161.8498 216.911804 
L 162.095552 216.911804 
L 162.095552 216.338153 
L 162.703612 216.338153 
L 162.703612 215.764501 
L 163.02881 215.764501 
L 163.02881 215.190849 
L 163.477355 215.190849 
L 163.477355 214.617197 
L 163.613694 214.617197 
L 163.645619 213.469894 
L 165.418321 213.469894 
L 165.475853 212.322591 
L 166.715855 212.322591 
L 166.715855 211.748939 
L 167.184273 211.748939 
L 167.184273 211.175287 
L 167.339809 211.175287 
L 167.339809 210.601635 
L 167.653117 210.601635 
L 167.735303 208.88068 
L 168.257216 208.88068 
L 168.257216 208.307029 
L 168.852923 208.307029 
L 168.852923 207.733377 
L 169.07628 207.733377 
L 169.07628 207.159725 
L 169.565775 207.159725 
L 169.565775 206.586073 
L 170.321466 206.586073 
L 170.321466 206.012422 
L 172.157246 206.012422 
L 172.157246 205.43877 
L 172.61137 205.43877 
L 172.61137 204.865118 
L 173.100398 204.865118 
L 173.100398 204.291467 
L 173.621148 204.291467 
L 173.621148 203.717815 
L 174.248782 203.717815 
L 174.248782 203.144163 
L 174.673367 203.144163 
L 174.673367 202.570511 
L 174.804221 202.570511 
L 174.804221 201.423208 
L 175.456309 201.423208 
L 175.456309 200.849556 
L 176.375521 200.849556 
L 176.375521 200.275904 
L 176.547601 200.275904 
L 176.634902 198.554949 
L 176.96123 198.554949 
L 176.96123 197.981298 
L 178.149794 197.981298 
L 178.191399 196.833994 
L 178.963594 196.833994 
L 179.013217 195.686691 
L 179.265751 195.686691 
L 179.265751 195.113039 
L 179.86424 195.113039 
L 179.86424 194.539387 
L 181.240029 194.539387 
L 181.240029 193.965736 
L 182.071777 193.965736 
L 182.071777 193.392084 
L 183.546172 193.392084 
L 183.546172 192.818432 
L 183.794044 192.818432 
L 183.794044 192.24478 
L 184.481019 192.24478 
L 184.481019 191.671129 
L 184.680273 191.671129 
L 184.680273 191.097477 
L 185.722633 191.097477 
L 185.722633 190.523825 
L 186.25627 190.523825 
L 186.25627 189.950174 
L 186.490213 189.950174 
L 186.490213 189.376522 
L 189.581688 189.376522 
L 189.581688 188.80287 
L 189.727053 188.80287 
L 189.837508 187.655567 
L 192.718542 187.655567 
L 192.718542 187.081915 
L 194.667901 187.081915 
L 194.667901 186.508263 
L 198.751621 186.508263 
L 198.751621 185.934612 
L 203.832915 185.934612 
L 203.832915 185.36096 
L 205.955636 185.36096 
L 205.955636 184.787308 
L 216.280911 184.787308 
L 216.280911 184.213656 
L 218.804455 184.213656 
L 218.892275 183.066353 
L 219.048979 183.066353 
L 219.048979 182.492701 
L 219.188126 182.492701 
L 219.188126 181.91905 
L 219.306517 181.91905 
L 219.306517 181.345398 
L 219.50077 181.345398 
L 219.611269 177.903487 
L 219.75113 177.903487 
L 219.861646 174.461577 
L 219.891464 174.461577 
L 219.899702 172.740622 
L 220.097207 172.740622 
L 220.097207 171.593319 
L 220.24753 171.593319 
L 220.24753 171.019667 
L 220.489611 171.019667 
L 220.573323 169.298712 
L 220.736532 169.298712 
L 220.841595 167.577757 
L 221.307136 167.577757 
L 221.348875 165.856801 
L 222.239398 165.856801 
L 222.239398 165.28315 
L 230.686306 165.28315 
L 230.75869 163.562195 
L 231.091171 163.562195 
L 231.166546 161.841239 
L 231.20436 161.841239 
L 231.272649 159.546632 
L 231.464503 159.546632 
L 231.464503 158.972981 
L 236.757483 158.972981 
L 236.757483 158.399329 
L 237.841603 158.399329 
L 237.841603 157.825677 
L 237.958178 157.825677 
L 238.028558 154.957419 
L 238.259911 154.957419 
L 238.286532 153.810115 
L 242.792802 153.810115 
L 242.887675 152.662812 
L 242.992909 152.662812 
L 242.992909 152.08916 
L 243.233602 152.08916 
L 243.233602 151.515508 
L 243.379605 151.515508 
L 243.379605 150.941857 
L 246.713582 150.941857 
L 246.78553 148.073598 
L 247.431938 148.073598 
L 247.431938 147.499946 
L 249.772059 147.499946 
L 249.772059 146.926295 
L 249.927496 146.926295 
L 250.030413 145.20534 
L 252.437584 145.20534 
L 252.499596 142.910733 
L 252.724833 142.910733 
L 252.724833 142.337081 
L 253.215879 142.337081 
L 253.215879 141.763429 
L 254.752155 141.763429 
L 254.781628 140.616126 
L 254.983547 140.616126 
L 254.983547 140.042474 
L 256.742548 140.042474 
L 256.817238 138.321519 
L 256.982976 138.321519 
L 256.982976 137.747867 
L 258.614302 137.747867 
L 258.627096 136.600564 
L 258.776567 136.600564 
L 258.776567 136.026912 
L 260.218366 136.026912 
L 260.2944 134.879609 
L 260.343452 134.879609 
L 260.343452 134.305957 
L 261.754555 134.305957 
L 261.754555 133.732305 
L 263.135302 133.732305 
L 263.137904 132.01135 
L 263.260645 132.01135 
L 263.260645 131.437698 
L 264.487925 131.437698 
L 264.53121 130.290395 
L 266.72227 130.290395 
L 266.72227 129.716743 
L 267.778383 129.716743 
L 267.86698 127.995788 
L 270.563854 127.995788 
L 270.563854 127.422136 
L 271.478338 127.422136 
L 271.478338 126.848485 
L 272.241332 126.848485 
L 272.282267 125.701181 
L 273.726996 125.701181 
L 273.749271 123.980226 
L 274.451845 123.980226 
L 274.451845 123.406574 
L 277.027076 123.406574 
L 277.027076 122.832923 
L 281.764603 122.832923 
L 281.764603 122.259271 
L 284.663027 122.259271 
L 284.663027 121.685619 
L 289.968458 121.685619 
L 289.968458 121.111967 
L 338.688 121.111967 
L 338.688 121.111967 
" style="fill:none;stroke:#ff7500;stroke-linecap:square;stroke-width:1.5;"/>
   </g>
   <g id="line2d_41">
    <defs>
     <path d="M 0 -6 
L -1.347084 -1.854102 
L -5.706339 -1.854102 
L -2.179628 0.708204 
L -3.526712 4.854102 
L -0 2.291796 
L 3.526712 4.854102 
L 2.179628 0.708204 
L 5.706339 -1.854102 
L 1.347084 -1.854102 
z
" id="m340e18a3ab" style="stroke:#ff7500;stroke-linejoin:bevel;stroke-width:1.5;"/>
    </defs>
    <g>
     <use style="fill-opacity:0;stroke:#ff7500;stroke-linejoin:bevel;stroke-width:1.5;" x="104.114542" xlink:href="#m340e18a3ab" y="256.493773"/>
     <use style="fill-opacity:0;stroke:#ff7500;stroke-linejoin:bevel;stroke-width:1.5;" x="165.475853" xlink:href="#m340e18a3ab" y="212.896242"/>
     <use style="fill-opacity:0;stroke:#ff7500;stroke-linejoin:bevel;stroke-width:1.5;" x="216.280911" xlink:href="#m340e18a3ab" y="184.787308"/>
     <use style="fill-opacity:0;stroke:#ff7500;stroke-linejoin:bevel;stroke-width:1.5;" x="289.968458" xlink:href="#m340e18a3ab" y="121.685619"/>
     <use style="fill-opacity:0;stroke:#ff7500;stroke-linejoin:bevel;stroke-width:1.5;" x="289.968458" xlink:href="#m340e18a3ab" y="121.111967"/>
     <use style="fill-opacity:0;stroke:#ff7500;stroke-linejoin:bevel;stroke-width:1.5;" x="338.688" xlink:href="#m340e18a3ab" y="121.111967"/>
    </g>
   </g>
   <g id="line2d_42">
    <path style="fill:none;stroke:#ff7500;stroke-linecap:square;stroke-width:1.5;"/>
    <g/>
   </g>
   <g id="line2d_43">
    <path clip-path="url(#p50a3d9b5fb)" d="M 218.221714 184.213656 
" style="fill:none;stroke:#ff7500;stroke-linecap:square;stroke-width:1.5;"/>
    <defs>
     <path d="M -12 12 
L 12 -12 
M -12 -12 
L 12 12 
" id="mc8d5ec56d6" style="stroke:#ff7500;"/>
    </defs>
    <g clip-path="url(#p50a3d9b5fb)">
     <use style="fill:#ff7500;stroke:#ff7500;" x="218.221714" xlink:href="#mc8d5ec56d6" y="184.213656"/>
    </g>
   </g>
   <g id="line2d_44">
    <defs>
     <path d="M 0 1.5 
C 0.397805 1.5 0.77937 1.341951 1.06066 1.06066 
C 1.341951 0.77937 1.5 0.397805 1.5 0 
C 1.5 -0.397805 1.341951 -0.77937 1.06066 -1.06066 
C 0.77937 -1.341951 0.397805 -1.5 0 -1.5 
C -0.397805 -1.5 -0.77937 -1.341951 -1.06066 -1.06066 
C -1.341951 -0.77937 -1.5 -0.397805 -1.5 0 
C -1.5 0.397805 -1.341951 0.77937 -1.06066 1.06066 
C -0.77937 1.341951 -0.397805 1.5 0 1.5 
z
" id="mb03d8b5bf8" style="stroke:#6495ed;"/>
    </defs>
    <g>
     <use style="fill:#6495ed;stroke:#6495ed;" x="280.164084" xlink:href="#mb03d8b5bf8" y="161.267588"/>
     <use style="fill:#6495ed;stroke:#6495ed;" x="280.164084" xlink:href="#mb03d8b5bf8" y="161.267588"/>
    </g>
   </g>
   <g id="line2d_45">
    <path d="M 29.53256 298.944 
L 29.53256 296.075741 
L 41.620548 296.075741 
L 41.620548 293.207483 
L 48.691568 293.207483 
L 48.691568 290.912876 
L 53.708537 290.912876 
L 53.708537 288.618269 
L 60.779557 288.618269 
L 60.779557 286.897314 
L 63.467834 286.897314 
L 63.467834 284.602707 
L 67.850577 284.602707 
L 67.850577 282.881752 
L 71.35013 282.881752 
L 71.35013 282.3081 
L 84.213325 282.3081 
L 84.213325 281.160797 
L 86.351421 281.160797 
L 86.351421 280.587145 
L 87.643811 280.587145 
L 87.643811 280.013493 
L 92.504372 280.013493 
L 92.504372 279.439842 
L 94.294587 279.439842 
L 94.294587 278.86619 
L 94.714831 278.86619 
L 94.714831 278.292538 
L 97.755429 278.292538 
L 97.755429 277.718886 
L 99.097574 277.718886 
L 99.097574 277.145235 
L 100.040467 277.145235 
L 100.040467 276.571583 
L 102.597126 276.571583 
L 102.597126 275.997931 
L 106.168594 275.997931 
L 106.168594 275.42428 
L 106.382575 275.42428 
L 106.382575 274.850628 
L 106.802819 274.850628 
L 106.802819 274.276976 
L 108.764355 274.276976 
L 108.764355 273.703324 
L 110.016944 273.703324 
L 110.016944 273.129673 
L 111.185562 273.129673 
L 111.185562 272.556021 
L 112.58145 272.556021 
L 112.58145 271.982369 
L 113.453595 271.982369 
L 113.453595 271.408718 
L 114.0117 271.408718 
L 114.0117 270.835066 
L 114.148479 270.835066 
L 114.148479 270.261414 
L 116.443076 270.261414 
L 116.443076 269.687762 
L 119.40226 269.687762 
L 119.40226 269.114111 
L 119.89914 269.114111 
L 119.89914 267.966807 
L 121.128432 267.966807 
L 121.128432 266.819504 
L 121.400219 266.819504 
L 121.400219 266.245852 
L 121.84399 266.245852 
L 121.84399 265.6722 
L 122.531342 265.6722 
L 122.531342 264.524897 
L 123.111324 264.524897 
L 123.111324 263.951245 
L 125.612332 263.951245 
L 125.612332 263.377593 
L 129.51791 263.377593 
L 129.51791 262.803942 
L 131.490249 262.803942 
L 131.490249 262.23029 
L 133.262014 262.23029 
L 133.262014 261.656638 
L 133.398082 261.656638 
L 133.398082 261.082987 
L 134.703375 261.082987 
L 134.703375 260.509335 
L 135.800036 260.509335 
L 135.800036 259.935683 
L 136.607732 259.935683 
L 136.607732 259.362031 
L 139.509467 259.362031 
L 139.509467 258.78838 
L 139.887228 258.78838 
L 139.887228 257.641076 
L 140.619053 257.641076 
L 140.619053 257.067425 
L 142.752555 257.067425 
L 142.857929 255.920121 
L 143.60342 255.920121 
L 143.60342 255.346469 
L 144.605813 255.346469 
L 144.605813 254.772818 
L 147.307662 254.772818 
L 147.388869 253.051863 
L 147.570215 253.051863 
L 147.570215 252.478211 
L 148.468742 252.478211 
L 148.468742 251.904559 
L 148.676918 251.904559 
L 148.676918 251.330907 
L 149.823575 251.330907 
L 149.823575 250.757256 
L 150.716332 250.757256 
L 150.716332 250.183604 
L 150.982078 250.183604 
L 150.982078 249.609952 
L 151.113448 249.609952 
L 151.113448 249.036301 
L 151.357131 249.036301 
L 151.437608 246.741694 
L 152.662192 246.741694 
L 152.662192 246.168042 
L 153.946025 246.168042 
L 153.946025 245.59439 
L 154.153391 245.59439 
L 154.153391 245.020738 
L 154.945917 245.020738 
L 154.945917 244.447087 
L 155.61575 244.447087 
L 155.61575 243.873435 
L 155.891575 243.873435 
L 155.891575 243.299783 
L 156.248622 243.299783 
L 156.248622 242.726132 
L 156.918066 242.726132 
L 156.918066 242.15248 
L 157.185742 242.15248 
L 157.185742 241.578828 
L 157.528821 241.578828 
L 157.528821 241.005176 
L 158.064083 241.005176 
L 158.096998 239.857873 
L 158.206267 239.857873 
L 158.228039 238.71057 
L 161.311231 238.71057 
L 161.420284 237.563266 
L 161.823263 237.563266 
L 161.823263 236.989614 
L 162.779197 236.989614 
L 162.779197 236.415963 
L 163.152289 236.415963 
L 163.152289 235.842311 
L 163.420904 235.842311 
L 163.420904 235.268659 
L 163.922502 235.268659 
L 163.977355 233.547704 
L 165.083779 233.547704 
L 165.083779 232.974052 
L 165.403908 232.974052 
L 165.403908 232.400401 
L 165.943384 232.400401 
L 165.943384 231.826749 
L 166.58834 231.826749 
L 166.58834 231.253097 
L 167.197288 231.253097 
L 167.197288 230.679446 
L 167.545055 230.679446 
L 167.545055 230.105794 
L 168.318321 230.105794 
L 168.318321 229.532142 
L 168.482242 229.532142 
L 168.482242 228.95849 
L 169.314106 228.95849 
L 169.423227 227.237535 
L 170.983054 227.237535 
L 170.983054 226.663884 
L 172.014724 226.663884 
L 172.014724 226.090232 
L 172.644719 226.090232 
L 172.720707 224.942928 
L 173.303236 224.942928 
L 173.303236 224.369277 
L 173.562544 224.369277 
L 173.562544 223.795625 
L 173.964285 223.795625 
L 173.964285 223.221973 
L 174.157375 223.221973 
L 174.157375 222.648321 
L 175.063018 222.648321 
L 175.141564 221.501018 
L 176.55521 221.501018 
L 176.55521 220.927366 
L 177.157076 220.927366 
L 177.157076 220.353715 
L 177.588952 220.353715 
L 177.588952 219.780063 
L 180.615492 219.780063 
L 180.615492 219.206411 
L 180.970464 219.206411 
L 180.970464 218.632759 
L 181.453868 218.632759 
L 181.453868 218.059108 
L 181.817674 218.059108 
L 181.817674 217.485456 
L 188.84739 217.485456 
L 188.84739 216.911804 
L 190.991847 216.911804 
L 190.991847 216.338153 
L 191.682731 216.338153 
L 191.682731 215.764501 
L 199.188165 215.764501 
L 199.188165 215.190849 
L 208.709431 215.190849 
L 208.709431 214.617197 
L 211.512444 214.617197 
L 211.512444 214.043546 
L 211.684286 214.043546 
L 211.684286 213.469894 
L 212.21943 213.469894 
L 212.21943 212.896242 
L 215.638049 212.896242 
L 215.638049 212.322591 
L 215.974547 212.322591 
L 215.974547 211.748939 
L 218.733135 211.748939 
L 218.772042 210.601635 
L 219.252683 210.601635 
L 219.252683 210.027984 
L 219.548351 210.027984 
L 219.548351 208.88068 
L 219.67043 208.88068 
L 219.67043 207.733377 
L 220.220493 207.733377 
L 220.225468 206.012422 
L 221.665499 206.012422 
L 221.665499 205.43877 
L 227.345546 205.43877 
L 227.345546 204.865118 
L 227.565531 204.865118 
L 227.565531 204.291467 
L 229.22229 204.291467 
L 229.22229 203.144163 
L 230.498072 203.144163 
L 230.498072 202.570511 
L 230.805875 202.570511 
L 230.832804 201.423208 
L 230.93725 201.423208 
L 231.028695 198.554949 
L 231.069313 198.554949 
L 231.138132 197.407646 
L 231.283537 197.407646 
L 231.283537 196.833994 
L 235.271476 196.833994 
L 235.271476 196.260342 
L 235.600058 196.260342 
L 235.600058 195.686691 
L 237.868531 195.686691 
L 237.905799 193.965736 
L 238.03595 193.965736 
L 238.054192 192.24478 
L 238.427355 192.24478 
L 238.427355 191.671129 
L 240.946609 191.671129 
L 240.946609 191.097477 
L 241.079526 191.097477 
L 241.079526 190.523825 
L 241.786767 190.523825 
L 241.786767 189.950174 
L 242.726357 189.950174 
L 242.792973 188.229218 
L 242.905216 188.229218 
L 242.905216 187.655567 
L 245.163203 187.655567 
L 245.163203 187.081915 
L 245.802139 187.081915 
L 245.862291 185.36096 
L 246.557458 185.36096 
L 246.606093 184.213656 
L 246.696349 184.213656 
L 246.805113 183.066353 
L 248.535539 183.066353 
L 248.535539 182.492701 
L 249.063816 182.492701 
L 249.113721 181.345398 
L 249.714321 181.345398 
L 249.818158 179.624443 
L 250.091996 179.624443 
L 250.091996 179.050791 
L 251.076813 179.050791 
L 251.076813 178.477139 
L 251.810514 178.477139 
L 251.810514 177.329836 
L 252.354967 177.329836 
L 252.354967 176.756184 
L 252.527081 176.756184 
L 252.527081 176.182532 
L 254.182893 176.182532 
L 254.182893 175.608881 
L 254.673489 175.608881 
L 254.684441 174.461577 
L 254.809938 174.461577 
L 254.809938 173.314274 
L 255.705443 173.314274 
L 255.705443 172.740622 
L 255.966143 172.740622 
L 255.966143 172.16697 
L 256.716519 172.16697 
L 256.773472 171.019667 
L 258.581929 171.019667 
L 258.581929 170.446015 
L 259.846549 170.446015 
L 259.846549 169.872363 
L 260.176072 169.872363 
L 260.176072 169.298712 
L 260.382016 169.298712 
L 260.382016 168.72506 
L 260.563601 168.72506 
L 260.563601 168.151408 
L 261.727521 168.151408 
L 261.727521 167.577757 
L 261.871127 167.577757 
L 261.871127 166.430453 
L 264.093722 166.430453 
L 264.093722 165.856801 
L 264.395598 165.856801 
L 264.395598 165.28315 
L 265.540833 165.28315 
L 265.582208 164.135846 
L 266.441392 164.135846 
L 266.441392 163.562195 
L 268.510191 163.562195 
L 268.510191 162.988543 
L 269.681723 162.988543 
L 269.681723 162.414891 
L 275.509632 162.414891 
L 275.509632 161.841239 
L 280.164084 161.841239 
L 280.164084 161.267588 
L 338.688 161.267588 
L 338.688 161.267588 
" style="fill:none;stroke:#6495ed;stroke-linecap:square;stroke-width:1.5;"/>
   </g>
   <g id="line2d_46">
    <defs>
     <path d="M -0 6 
L 6 -6 
L -6 -6 
z
" id="m5b38e58347" style="stroke:#6495ed;stroke-linejoin:miter;stroke-width:1.5;"/>
    </defs>
    <g>
     <use style="fill-opacity:0;stroke:#6495ed;stroke-linejoin:miter;stroke-width:1.5;" x="71.35013" xlink:href="#m5b38e58347" y="282.3081"/>
     <use style="fill-opacity:0;stroke:#6495ed;stroke-linejoin:miter;stroke-width:1.5;" x="142.857929" xlink:href="#m5b38e58347" y="255.920121"/>
     <use style="fill-opacity:0;stroke:#6495ed;stroke-linejoin:miter;stroke-width:1.5;" x="208.709431" xlink:href="#m5b38e58347" y="215.190849"/>
     <use style="fill-opacity:0;stroke:#6495ed;stroke-linejoin:miter;stroke-width:1.5;" x="275.509632" xlink:href="#m5b38e58347" y="161.841239"/>
     <use style="fill-opacity:0;stroke:#6495ed;stroke-linejoin:miter;stroke-width:1.5;" x="280.164084" xlink:href="#m5b38e58347" y="161.267588"/>
     <use style="fill-opacity:0;stroke:#6495ed;stroke-linejoin:miter;stroke-width:1.5;" x="338.688" xlink:href="#m5b38e58347" y="161.267588"/>
    </g>
   </g>
   <g id="line2d_47">
    <path style="fill:none;stroke:#6495ed;stroke-linecap:square;stroke-width:1.5;"/>
    <g/>
   </g>
   <g id="line2d_48">
    <path clip-path="url(#p50a3d9b5fb)" d="M 218.221714 211.748939 
" style="fill:none;stroke:#6495ed;stroke-linecap:square;stroke-width:1.5;"/>
    <defs>
     <path d="M -12 12 
L 12 -12 
M -12 -12 
L 12 12 
" id="mede9cee25c" style="stroke:#6495ed;"/>
    </defs>
    <g clip-path="url(#p50a3d9b5fb)">
     <use style="fill:#6495ed;stroke:#6495ed;" x="218.221714" xlink:href="#mede9cee25c" y="211.748939"/>
    </g>
   </g>
   <g id="line2d_49">
    <defs>
     <path d="M 0 1.5 
C 0.397805 1.5 0.77937 1.341951 1.06066 1.06066 
C 1.341951 0.77937 1.5 0.397805 1.5 0 
C 1.5 -0.397805 1.341951 -0.77937 1.06066 -1.06066 
C 0.77937 -1.341951 0.397805 -1.5 0 -1.5 
C -0.397805 -1.5 -0.77937 -1.341951 -1.06066 -1.06066 
C -1.341951 -0.77937 -1.5 -0.397805 -1.5 0 
C -1.5 0.397805 -1.341951 0.77937 -1.06066 1.06066 
C -0.77937 1.341951 -0.397805 1.5 0 1.5 
z
" id="m3d8332f637" style="stroke:#ff0000;"/>
    </defs>
    <g>
     <use style="fill:#ff0000;stroke:#ff0000;" x="299.29725" xlink:href="#m3d8332f637" y="167.004105"/>
     <use style="fill:#ff0000;stroke:#ff0000;" x="299.29725" xlink:href="#m3d8332f637" y="167.004105"/>
    </g>
   </g>
   <g id="line2d_50">
    <path d="M 29.53256 298.944 
L 29.53256 284.029055 
L 41.620548 284.029055 
L 41.620548 273.129673 
L 48.691568 273.129673 
L 48.691568 271.408718 
L 53.708537 271.408718 
L 53.708537 269.114111 
L 57.6 269.114111 
L 57.6 267.966807 
L 65.796525 267.966807 
L 65.796525 267.393156 
L 75.555822 267.393156 
L 75.555822 265.6722 
L 76.759008 265.6722 
L 76.759008 265.098549 
L 79.938565 265.098549 
L 79.938565 263.951245 
L 84.213325 263.951245 
L 84.213325 263.377593 
L 92.026554 263.377593 
L 92.026554 262.803942 
L 98.771596 262.803942 
L 98.771596 262.23029 
L 101.223245 262.23029 
L 101.223245 261.082987 
L 103.372333 261.082987 
L 103.372333 260.509335 
L 105.057436 260.509335 
L 105.057436 259.935683 
L 106.593963 259.935683 
L 106.593963 259.362031 
L 108.006005 259.362031 
L 108.006005 258.78838 
L 110.527398 258.78838 
L 110.527398 258.214728 
L 112.877038 258.214728 
L 112.877038 257.641076 
L 115.077025 257.641076 
L 115.077025 257.067425 
L 115.205729 257.067425 
L 115.205729 256.493773 
L 115.460322 256.493773 
L 115.460322 255.920121 
L 115.958621 255.920121 
L 115.958621 255.346469 
L 116.323218 255.346469 
L 116.323218 254.772818 
L 117.486268 254.772818 
L 117.486268 254.199166 
L 124.519744 254.199166 
L 124.519744 252.478211 
L 130.76994 252.478211 
L 130.76994 251.904559 
L 133.711505 251.904559 
L 133.711505 250.757256 
L 134.450015 250.757256 
L 134.450015 250.183604 
L 138.794909 250.183604 
L 138.794909 249.609952 
L 140.438956 249.609952 
L 140.438956 248.462649 
L 140.589166 248.462649 
L 140.678675 247.315345 
L 141.032186 247.315345 
L 141.032186 246.741694 
L 141.321401 246.741694 
L 141.321401 246.168042 
L 142.378651 246.168042 
L 142.378651 245.59439 
L 144.075117 245.59439 
L 144.075117 245.020738 
L 144.221461 245.020738 
L 144.221461 244.447087 
L 148.770728 244.447087 
L 148.770728 243.873435 
L 150.37835 243.873435 
L 150.37835 243.299783 
L 153.192929 243.299783 
L 153.192929 242.726132 
L 156.906335 242.726132 
L 156.906335 241.578828 
L 157.046598 241.578828 
L 157.046598 241.005176 
L 157.964965 241.005176 
L 157.964965 240.431525 
L 159.486982 240.431525 
L 159.486982 239.857873 
L 161.081824 239.857873 
L 161.081824 238.71057 
L 165.96434 238.71057 
L 165.96434 237.563266 
L 176.123923 237.563266 
L 176.123923 236.989614 
L 177.441359 236.989614 
L 177.441359 236.415963 
L 177.947294 236.415963 
L 177.947294 235.268659 
L 182.201581 235.268659 
L 182.201581 234.695008 
L 182.759383 234.695008 
L 182.759383 234.121356 
L 183.237777 234.121356 
L 183.302477 232.400401 
L 184.144607 232.400401 
L 184.144607 231.826749 
L 184.519607 231.826749 
L 184.598926 230.679446 
L 184.661167 230.679446 
L 184.661167 230.105794 
L 185.523635 230.105794 
L 185.523635 229.532142 
L 185.715886 229.532142 
L 185.715886 228.384839 
L 187.377414 228.384839 
L 187.377414 227.811187 
L 188.582236 227.811187 
L 188.624171 226.663884 
L 193.231804 226.663884 
L 193.231804 226.090232 
L 193.814006 226.090232 
L 193.870467 224.942928 
L 194.172235 224.942928 
L 194.172235 224.369277 
L 196.230134 224.369277 
L 196.230134 223.795625 
L 196.495213 223.795625 
L 196.495213 222.648321 
L 196.736007 222.648321 
L 196.736007 222.07467 
L 197.161233 222.07467 
L 197.161233 221.501018 
L 197.346944 221.501018 
L 197.346944 220.927366 
L 198.491921 220.927366 
L 198.491921 220.353715 
L 198.952842 220.353715 
L 198.952842 219.780063 
L 200.377702 219.780063 
L 200.377702 219.206411 
L 202.376896 219.206411 
L 202.443394 218.059108 
L 204.4068 218.059108 
L 204.4068 217.485456 
L 205.507353 217.485456 
L 205.507353 216.911804 
L 206.804958 216.911804 
L 206.804958 216.338153 
L 207.219512 216.338153 
L 207.219512 215.764501 
L 208.131882 215.764501 
L 208.149291 214.617197 
L 208.309504 214.617197 
L 208.309504 214.043546 
L 210.140326 214.043546 
L 210.140326 213.469894 
L 210.367249 213.469894 
L 210.367249 212.322591 
L 212.201706 212.322591 
L 212.201706 211.748939 
L 212.61978 211.748939 
L 212.61978 211.175287 
L 213.113825 211.175287 
L 213.113825 210.601635 
L 214.050739 210.601635 
L 214.050739 210.027984 
L 217.939012 210.027984 
L 217.939012 209.454332 
L 220.53274 209.454332 
L 220.53274 208.88068 
L 222.078264 208.88068 
L 222.078264 208.307029 
L 222.685458 208.307029 
L 222.782396 207.159725 
L 222.825307 207.159725 
L 222.825307 206.586073 
L 223.576844 206.586073 
L 223.576844 206.012422 
L 224.128121 206.012422 
L 224.128121 205.43877 
L 225.765499 205.43877 
L 225.765499 204.291467 
L 225.984539 204.291467 
L 225.984539 202.570511 
L 226.732995 202.570511 
L 226.732995 201.99686 
L 232.058034 201.99686 
L 232.058034 201.423208 
L 232.377855 201.423208 
L 232.377855 200.849556 
L 232.684004 200.849556 
L 232.684004 199.702253 
L 234.623346 199.702253 
L 234.623346 198.554949 
L 235.134085 198.554949 
L 235.134085 197.981298 
L 237.284659 197.981298 
L 237.284659 197.407646 
L 238.977741 197.407646 
L 239.053958 195.113039 
L 239.980884 195.113039 
L 239.980884 194.539387 
L 240.700873 194.539387 
L 240.700873 193.965736 
L 240.943292 193.965736 
L 240.943292 193.392084 
L 241.156752 193.392084 
L 241.156752 192.24478 
L 243.625217 192.24478 
L 243.65445 191.097477 
L 244.976179 191.097477 
L 244.976179 190.523825 
L 245.1355 190.523825 
L 245.1355 189.950174 
L 246.232979 189.950174 
L 246.232979 189.376522 
L 248.356036 189.376522 
L 248.356036 188.80287 
L 250.285495 188.80287 
L 250.325389 187.081915 
L 251.028187 187.081915 
L 251.028187 186.508263 
L 253.876246 186.508263 
L 253.876246 185.934612 
L 255.125378 185.934612 
L 255.125378 185.36096 
L 255.5067 185.36096 
L 255.5067 184.787308 
L 255.822536 184.787308 
L 255.822536 183.640005 
L 257.109499 183.640005 
L 257.1155 182.492701 
L 257.450213 182.492701 
L 257.450213 181.91905 
L 261.08525 181.91905 
L 261.08525 181.345398 
L 261.985761 181.345398 
L 261.985761 180.771746 
L 262.517858 180.771746 
L 262.517858 180.198094 
L 264.224935 180.198094 
L 264.224935 179.050791 
L 264.617289 179.050791 
L 264.617289 178.477139 
L 266.000135 178.477139 
L 266.000135 177.903487 
L 266.556133 177.903487 
L 266.556133 177.329836 
L 266.89645 177.329836 
L 266.89645 176.756184 
L 267.614415 176.756184 
L 267.614415 176.182532 
L 268.612134 176.182532 
L 268.612134 175.608881 
L 269.845716 175.608881 
L 269.845716 175.035229 
L 271.048159 175.035229 
L 271.048159 174.461577 
L 271.562466 174.461577 
L 271.562466 173.887925 
L 273.130049 173.887925 
L 273.130049 173.314274 
L 275.029787 173.314274 
L 275.029787 172.740622 
L 275.688351 172.740622 
L 275.688351 172.16697 
L 275.890738 172.16697 
L 275.890738 171.593319 
L 276.007545 171.593319 
L 276.007545 171.019667 
L 276.322947 171.019667 
L 276.322947 170.446015 
L 277.232616 170.446015 
L 277.324073 169.298712 
L 279.451357 169.298712 
L 279.451357 168.72506 
L 284.723856 168.72506 
L 284.723856 168.151408 
L 288.87658 168.151408 
L 288.87658 167.577757 
L 299.29725 167.577757 
L 299.29725 167.004105 
L 338.688 167.004105 
L 338.688 167.004105 
" style="fill:none;stroke:#ff0000;stroke-linecap:square;stroke-width:1.5;"/>
   </g>
   <g id="line2d_51">
    <defs>
     <path d="M 0 -6 
L -5.196152 -3 
L -5.196152 3 
L -0 6 
L 5.196152 3 
L 5.196152 -3 
z
" id="m5cc8176e29" style="stroke:#ff0000;stroke-linejoin:miter;stroke-width:1.5;"/>
    </defs>
    <g>
     <use style="fill-opacity:0;stroke:#ff0000;stroke-linejoin:miter;stroke-width:1.5;" x="117.486268" xlink:href="#m5cc8176e29" y="254.199166"/>
     <use style="fill-opacity:0;stroke:#ff0000;stroke-linejoin:miter;stroke-width:1.5;" x="185.715886" xlink:href="#m5cc8176e29" y="228.384839"/>
     <use style="fill-opacity:0;stroke:#ff0000;stroke-linejoin:miter;stroke-width:1.5;" x="264.617289" xlink:href="#m5cc8176e29" y="178.477139"/>
     <use style="fill-opacity:0;stroke:#ff0000;stroke-linejoin:miter;stroke-width:1.5;" x="299.29725" xlink:href="#m5cc8176e29" y="167.004105"/>
     <use style="fill-opacity:0;stroke:#ff0000;stroke-linejoin:miter;stroke-width:1.5;" x="299.29725" xlink:href="#m5cc8176e29" y="167.004105"/>
     <use style="fill-opacity:0;stroke:#ff0000;stroke-linejoin:miter;stroke-width:1.5;" x="338.688" xlink:href="#m5cc8176e29" y="167.004105"/>
    </g>
   </g>
   <g id="line2d_52">
    <path style="fill:none;stroke:#ff0000;stroke-linecap:square;stroke-width:1.5;"/>
    <g/>
   </g>
   <g id="line2d_53">
    <path clip-path="url(#p50a3d9b5fb)" d="M 218.221714 209.454332 
" style="fill:none;stroke:#ff0000;stroke-linecap:square;stroke-width:1.5;"/>
    <defs>
     <path d="M -12 12 
L 12 -12 
M -12 -12 
L 12 12 
" id="m28748a9d33" style="stroke:#ff0000;"/>
    </defs>
    <g clip-path="url(#p50a3d9b5fb)">
     <use style="fill:#ff0000;stroke:#ff0000;" x="218.221714" xlink:href="#m28748a9d33" y="209.454332"/>
    </g>
   </g>
   <g id="line2d_54">
    <path d="M 338.688 235.842311 
L 369.60768 293.092752 
" style="fill:none;stroke:#000080;stroke-linecap:square;stroke-width:1.5;"/>
    <g>
     <use style="fill-opacity:0;stroke:#000080;stroke-width:1.5;" x="338.688" xlink:href="#m44c0f2eaf0" y="235.842311"/>
     <use style="fill-opacity:0;stroke:#000080;stroke-width:1.5;" x="369.60768" xlink:href="#m44c0f2eaf0" y="293.092752"/>
    </g>
   </g>
   <g id="line2d_55">
    <path d="M 338.688 167.004105 
L 369.60768 222.877782 
" style="fill:none;stroke:#ff0000;stroke-linecap:square;stroke-width:1.5;"/>
    <g>
     <use style="fill-opacity:0;stroke:#ff0000;stroke-linejoin:miter;stroke-width:1.5;" x="338.688" xlink:href="#m5cc8176e29" y="167.004105"/>
     <use style="fill-opacity:0;stroke:#ff0000;stroke-linejoin:miter;stroke-width:1.5;" x="369.60768" xlink:href="#m5cc8176e29" y="222.877782"/>
    </g>
   </g>
   <g id="line2d_56">
    <path d="M 338.688 161.267588 
L 369.60768 152.662812 
" style="fill:none;stroke:#6495ed;stroke-linecap:square;stroke-width:1.5;"/>
    <g>
     <use style="fill-opacity:0;stroke:#6495ed;stroke-linejoin:miter;stroke-width:1.5;" x="338.688" xlink:href="#m5b38e58347" y="161.267588"/>
     <use style="fill-opacity:0;stroke:#6495ed;stroke-linejoin:miter;stroke-width:1.5;" x="369.60768" xlink:href="#m5b38e58347" y="152.662812"/>
    </g>
   </g>
   <g id="line2d_57">
    <path d="M 338.688 121.111967 
L 369.60768 82.447842 
" style="fill:none;stroke:#ff7500;stroke-linecap:square;stroke-width:1.5;"/>
    <g>
     <use style="fill-opacity:0;stroke:#ff7500;stroke-linejoin:bevel;stroke-width:1.5;" x="338.688" xlink:href="#m340e18a3ab" y="121.111967"/>
     <use style="fill-opacity:0;stroke:#ff7500;stroke-linejoin:bevel;stroke-width:1.5;" x="369.60768" xlink:href="#m340e18a3ab" y="82.447842"/>
    </g>
   </g>
   <g id="line2d_58">
    <path d="M 338.688 6.381624 
L 369.60768 12.232871 
" style="fill:none;stroke:#ff00ff;stroke-linecap:square;stroke-width:1.5;"/>
    <g>
     <use style="fill-opacity:0;stroke:#ff00ff;stroke-linejoin:miter;stroke-width:1.5;" x="338.688" xlink:href="#me01b1997be" y="6.381624"/>
     <use style="fill-opacity:0;stroke:#ff00ff;stroke-linejoin:miter;stroke-width:1.5;" x="369.60768" xlink:href="#me01b1997be" y="12.232871"/>
    </g>
   </g>
   <g id="line2d_59">
    <path d="M 338.688 298.944 
L 338.688 6.381624 
" style="fill:none;stroke:#000000;stroke-linecap:square;stroke-width:1.5;"/>
   </g>
   <g id="patch_3">
    <path d="M 57.6 298.944 
L 57.6 3.456 
" style="fill:none;stroke:#000000;stroke-linecap:square;stroke-linejoin:miter;stroke-width:0.8;"/>
   </g>
   <g id="patch_4">
    <path d="M 338.688 298.944 
L 338.688 3.456 
" style="fill:none;stroke:#000000;stroke-linecap:square;stroke-linejoin:miter;stroke-width:0.8;"/>
   </g>
   <g id="patch_5">
    <path d="M 57.6 298.944 
L 338.688 298.944 
" style="fill:none;stroke:#000000;stroke-linecap:square;stroke-linejoin:miter;stroke-width:0.8;"/>
   </g>
   <g id="patch_6">
    <path d="M 57.6 3.456 
L 338.688 3.456 
" style="fill:none;stroke:#000000;stroke-linecap:square;stroke-linejoin:miter;stroke-width:0.8;"/>
   </g>
   <g id="text_13">
    <!-- f15 -->
    <g transform="translate(375.22944 297.78369)scale(0.17 -0.17)">
     <defs>
      <path d="M 691 4666 
L 3169 4666 
L 3169 4134 
L 1269 4134 
L 1269 2991 
Q 1406 3038 1543 3061 
Q 1681 3084 1819 3084 
Q 2600 3084 3056 2656 
Q 3513 2228 3513 1497 
Q 3513 744 3044 326 
Q 2575 -91 1722 -91 
Q 1428 -91 1123 -41 
Q 819 9 494 109 
L 494 744 
Q 775 591 1075 516 
Q 1375 441 1709 441 
Q 2250 441 2565 725 
Q 2881 1009 2881 1497 
Q 2881 1984 2565 2268 
Q 2250 2553 1709 2553 
Q 1456 2553 1204 2497 
Q 953 2441 691 2322 
L 691 4666 
z
" id="DejaVuSans-35" transform="scale(0.015625)"/>
     </defs>
     <use xlink:href="#DejaVuSans-66"/>
     <use x="35.205078" xlink:href="#DejaVuSans-31"/>
     <use x="98.828125" xlink:href="#DejaVuSans-35"/>
    </g>
   </g>
   <g id="text_14">
    <!-- f19 -->
    <g transform="translate(375.22944 227.56872)scale(0.17 -0.17)">
     <defs>
      <path d="M 703 97 
L 703 672 
Q 941 559 1184 500 
Q 1428 441 1663 441 
Q 2288 441 2617 861 
Q 2947 1281 2994 2138 
Q 2813 1869 2534 1725 
Q 2256 1581 1919 1581 
Q 1219 1581 811 2004 
Q 403 2428 403 3163 
Q 403 3881 828 4315 
Q 1253 4750 1959 4750 
Q 2769 4750 3195 4129 
Q 3622 3509 3622 2328 
Q 3622 1225 3098 567 
Q 2575 -91 1691 -91 
Q 1453 -91 1209 -44 
Q 966 3 703 97 
z
M 1959 2075 
Q 2384 2075 2632 2365 
Q 2881 2656 2881 3163 
Q 2881 3666 2632 3958 
Q 2384 4250 1959 4250 
Q 1534 4250 1286 3958 
Q 1038 3666 1038 3163 
Q 1038 2656 1286 2365 
Q 1534 2075 1959 2075 
z
" id="DejaVuSans-39" transform="scale(0.015625)"/>
     </defs>
     <use xlink:href="#DejaVuSans-66"/>
     <use x="35.205078" xlink:href="#DejaVuSans-31"/>
     <use x="98.828125" xlink:href="#DejaVuSans-39"/>
    </g>
   </g>
   <g id="text_15">
    <!-- f18 -->
    <g transform="translate(375.22944 157.353749)scale(0.17 -0.17)">
     <use xlink:href="#DejaVuSans-66"/>
     <use x="35.205078" xlink:href="#DejaVuSans-31"/>
     <use x="98.828125" xlink:href="#DejaVuSans-38"/>
    </g>
   </g>
   <g id="text_16">
    <!-- f17 -->
    <g transform="translate(375.22944 87.138779)scale(0.17 -0.17)">
     <defs>
      <path d="M 525 4666 
L 3525 4666 
L 3525 4397 
L 1831 0 
L 1172 0 
L 2766 4134 
L 525 4134 
L 525 4666 
z
" id="DejaVuSans-37" transform="scale(0.015625)"/>
     </defs>
     <use xlink:href="#DejaVuSans-66"/>
     <use x="35.205078" xlink:href="#DejaVuSans-31"/>
     <use x="98.828125" xlink:href="#DejaVuSans-37"/>
    </g>
   </g>
   <g id="text_17">
    <!-- f16 -->
    <g transform="translate(375.22944 16.923809)scale(0.17 -0.17)">
     <use xlink:href="#DejaVuSans-66"/>
     <use x="35.205078" xlink:href="#DejaVuSans-31"/>
     <use x="98.828125" xlink:href="#DejaVuSans-36"/>
    </g>
   </g>
   <g id="text_18">
    <!-- bbob -->
    <g transform="translate(60.41088 14.161286)scale(0.102 -0.102)">
     <defs>
      <path d="M 3116 1747 
Q 3116 2381 2855 2742 
Q 2594 3103 2138 3103 
Q 1681 3103 1420 2742 
Q 1159 2381 1159 1747 
Q 1159 1113 1420 752 
Q 1681 391 2138 391 
Q 2594 391 2855 752 
Q 3116 1113 3116 1747 
z
M 1159 2969 
Q 1341 3281 1617 3432 
Q 1894 3584 2278 3584 
Q 2916 3584 3314 3078 
Q 3713 2572 3713 1747 
Q 3713 922 3314 415 
Q 2916 -91 2278 -91 
Q 1894 -91 1617 61 
Q 1341 213 1159 525 
L 1159 0 
L 581 0 
L 581 4863 
L 1159 4863 
L 1159 2969 
z
" id="DejaVuSans-62" transform="scale(0.015625)"/>
     </defs>
     <use xlink:href="#DejaVuSans-62"/>
     <use x="63.476562" xlink:href="#DejaVuSans-62"/>
     <use x="126.953125" xlink:href="#DejaVuSans-6f"/>
     <use x="188.134766" xlink:href="#DejaVuSans-62"/>
    </g>
    <!-- Multi-modal functions, 5-D -->
    <g transform="translate(60.41088 25.583055)scale(0.102 -0.102)">
     <defs>
      <path d="M 628 4666 
L 1569 4666 
L 2759 1491 
L 3956 4666 
L 4897 4666 
L 4897 0 
L 4281 0 
L 4281 4097 
L 3078 897 
L 2444 897 
L 1241 4097 
L 1241 0 
L 628 0 
L 628 4666 
z
" id="DejaVuSans-4d" transform="scale(0.015625)"/>
      <path d="M 1259 4147 
L 1259 519 
L 2022 519 
Q 2988 519 3436 956 
Q 3884 1394 3884 2338 
Q 3884 3275 3436 3711 
Q 2988 4147 2022 4147 
L 1259 4147 
z
M 628 4666 
L 1925 4666 
Q 3281 4666 3915 4102 
Q 4550 3538 4550 2338 
Q 4550 1131 3912 565 
Q 3275 0 1925 0 
L 628 0 
L 628 4666 
z
" id="DejaVuSans-44" transform="scale(0.015625)"/>
     </defs>
     <use xlink:href="#DejaVuSans-4d"/>
     <use x="86.279297" xlink:href="#DejaVuSans-75"/>
     <use x="149.658203" xlink:href="#DejaVuSans-6c"/>
     <use x="177.441406" xlink:href="#DejaVuSans-74"/>
     <use x="216.650391" xlink:href="#DejaVuSans-69"/>
     <use x="244.433594" xlink:href="#DejaVuSans-2d"/>
     <use x="280.517578" xlink:href="#DejaVuSans-6d"/>
     <use x="377.929688" xlink:href="#DejaVuSans-6f"/>
     <use x="439.111328" xlink:href="#DejaVuSans-64"/>
     <use x="502.587891" xlink:href="#DejaVuSans-61"/>
     <use x="563.867188" xlink:href="#DejaVuSans-6c"/>
     <use x="591.650391" xlink:href="#DejaVuSans-20"/>
     <use x="623.4375" xlink:href="#DejaVuSans-66"/>
     <use x="658.642578" xlink:href="#DejaVuSans-75"/>
     <use x="722.021484" xlink:href="#DejaVuSans-6e"/>
     <use x="785.400391" xlink:href="#DejaVuSans-63"/>
     <use x="840.380859" xlink:href="#DejaVuSans-74"/>
     <use x="879.589844" xlink:href="#DejaVuSans-69"/>
     <use x="907.373047" xlink:href="#DejaVuSans-6f"/>
     <use x="968.554688" xlink:href="#DejaVuSans-6e"/>
     <use x="1031.933594" xlink:href="#DejaVuSans-73"/>
     <use x="1084.033203" xlink:href="#DejaVuSans-2c"/>
     <use x="1115.820312" xlink:href="#DejaVuSans-20"/>
     <use x="1147.607422" xlink:href="#DejaVuSans-35"/>
     <use x="1211.230469" xlink:href="#DejaVuSans-2d"/>
     <use x="1247.314453" xlink:href="#DejaVuSans-44"/>
    </g>
    <!-- 51 targets: 100..1e-08 -->
    <g transform="translate(60.41088 37.004824)scale(0.102 -0.102)">
     <defs>
      <path d="M 750 794 
L 1409 794 
L 1409 0 
L 750 0 
L 750 794 
z
M 750 3309 
L 1409 3309 
L 1409 2516 
L 750 2516 
L 750 3309 
z
" id="DejaVuSans-3a" transform="scale(0.015625)"/>
     </defs>
     <use xlink:href="#DejaVuSans-35"/>
     <use x="63.623047" xlink:href="#DejaVuSans-31"/>
     <use x="127.246094" xlink:href="#DejaVuSans-20"/>
     <use x="159.033203" xlink:href="#DejaVuSans-74"/>
     <use x="198.242188" xlink:href="#DejaVuSans-61"/>
     <use x="259.521484" xlink:href="#DejaVuSans-72"/>
     <use x="298.884766" xlink:href="#DejaVuSans-67"/>
     <use x="362.361328" xlink:href="#DejaVuSans-65"/>
     <use x="423.884766" xlink:href="#DejaVuSans-74"/>
     <use x="463.09375" xlink:href="#DejaVuSans-73"/>
     <use x="515.193359" xlink:href="#DejaVuSans-3a"/>
     <use x="548.884766" xlink:href="#DejaVuSans-20"/>
     <use x="580.671875" xlink:href="#DejaVuSans-31"/>
     <use x="644.294922" xlink:href="#DejaVuSans-30"/>
     <use x="707.917969" xlink:href="#DejaVuSans-30"/>
     <use x="771.541016" xlink:href="#DejaVuSans-2e"/>
     <use x="803.328125" xlink:href="#DejaVuSans-2e"/>
     <use x="835.115234" xlink:href="#DejaVuSans-31"/>
     <use x="898.738281" xlink:href="#DejaVuSans-65"/>
     <use x="960.261719" xlink:href="#DejaVuSans-2d"/>
     <use x="996.345703" xlink:href="#DejaVuSans-30"/>
     <use x="1059.96875" xlink:href="#DejaVuSans-38"/>
    </g>
    <!-- 15 instances -->
    <g transform="translate(60.41088 48.426593)scale(0.102 -0.102)">
     <use xlink:href="#DejaVuSans-31"/>
     <use x="63.623047" xlink:href="#DejaVuSans-35"/>
     <use x="127.246094" xlink:href="#DejaVuSans-20"/>
     <use x="159.033203" xlink:href="#DejaVuSans-69"/>
     <use x="186.816406" xlink:href="#DejaVuSans-6e"/>
     <use x="250.195312" xlink:href="#DejaVuSans-73"/>
     <use x="302.294922" xlink:href="#DejaVuSans-74"/>
     <use x="341.503906" xlink:href="#DejaVuSans-61"/>
     <use x="402.783203" xlink:href="#DejaVuSans-6e"/>
     <use x="466.162109" xlink:href="#DejaVuSans-63"/>
     <use x="521.142578" xlink:href="#DejaVuSans-65"/>
     <use x="582.666016" xlink:href="#DejaVuSans-73"/>
    </g>
   </g>
   <g id="text_19">
    <!-- v2.4 -->
    <g style="fill:#808080;" transform="translate(187.233062 293.909432)scale(0.1 -0.1)">
     <use xlink:href="#DejaVuSans-76"/>
     <use x="59.179688" xlink:href="#DejaVuSans-32"/>
     <use x="122.802734" xlink:href="#DejaVuSans-2e"/>
     <use x="154.589844" xlink:href="#DejaVuSans-34"/>
    </g>
   </g>
  </g>
 </g>
 <defs>
  <clipPath id="p50a3d9b5fb">
   <rect height="295.488" width="281.088" x="57.6" y="3.456"/>
  </clipPath>
 </defs>
</svg>
