<?xml version="1.0" encoding="utf-8" standalone="no"?>
<!DOCTYPE svg PUBLIC "-//W3C//DTD SVG 1.1//EN"
  "http://www.w3.org/Graphics/SVG/1.1/DTD/svg11.dtd">
<svg height="345.6pt" version="1.1" viewBox="0 0 460.8 345.6" width="460.8pt" xmlns="http://www.w3.org/2000/svg" xmlns:xlink="http://www.w3.org/1999/xlink">
 <metadata>
  <rdf:RDF xmlns:cc="http://creativecommons.org/ns#" xmlns:dc="http://purl.org/dc/elements/1.1/" xmlns:rdf="http://www.w3.org/1999/02/22-rdf-syntax-ns#">
   <cc:Work>
    <dc:type rdf:resource="http://purl.org/dc/dcmitype/StillImage"/>
    <dc:date>2021-04-19T22:04:53.939707</dc:date>
    <dc:format>image/svg+xml</dc:format>
    <dc:creator>
     <cc:Agent>
      <dc:title>Matplotlib v3.4.1, https://matplotlib.org/</dc:title>
     </cc:Agent>
    </dc:creator>
   </cc:Work>
  </rdf:RDF>
 </metadata>
 <defs>
  <style type="text/css">*{stroke-linecap:butt;stroke-linejoin:round;}</style>
 </defs>
 <g id="figure_1">
  <g id="patch_1">
   <path d="M 0 345.6 
L 460.8 345.6 
L 460.8 0 
L 0 0 
z
" style="fill:#ffffff;"/>
  </g>
  <g id="axes_1">
   <g id="patch_2">
    <path d="M 57.6 298.944 
L 338.688 298.944 
L 338.688 3.456 
L 57.6 3.456 
z
" style="fill:#ffffff;"/>
   </g>
   <g id="matplotlib.axis_1">
    <g id="xtick_1">
     <g id="line2d_1">
      <path clip-path="url(#pc4d37e6fbc)" d="M 57.6 298.944 
L 57.6 3.456 
" style="fill:none;stroke:#b0b0b0;stroke-linecap:square;stroke-width:0.8;"/>
     </g>
     <g id="line2d_2">
      <defs>
       <path d="M 0 0 
L 0 3.5 
" id="m5e00796ae6" style="stroke:#000000;stroke-width:0.8;"/>
      </defs>
      <g>
       <use style="stroke:#000000;stroke-width:0.8;" x="57.6" xlink:href="#m5e00796ae6" y="298.944"/>
      </g>
     </g>
     <g id="text_1">
      <!-- 0 -->
      <g transform="translate(51.2375 321.140875)scale(0.2 -0.2)">
       <defs>
        <path d="M 2034 4250 
Q 1547 4250 1301 3770 
Q 1056 3291 1056 2328 
Q 1056 1369 1301 889 
Q 1547 409 2034 409 
Q 2525 409 2770 889 
Q 3016 1369 3016 2328 
Q 3016 3291 2770 3770 
Q 2525 4250 2034 4250 
z
M 2034 4750 
Q 2819 4750 3233 4129 
Q 3647 3509 3647 2328 
Q 3647 1150 3233 529 
Q 2819 -91 2034 -91 
Q 1250 -91 836 529 
Q 422 1150 422 2328 
Q 422 3509 836 4129 
Q 1250 4750 2034 4750 
z
" id="DejaVuSans-30" transform="scale(0.015625)"/>
       </defs>
       <use xlink:href="#DejaVuSans-30"/>
      </g>
     </g>
    </g>
    <g id="xtick_2">
     <g id="line2d_3">
      <path clip-path="url(#pc4d37e6fbc)" d="M 137.910857 298.944 
L 137.910857 3.456 
" style="fill:none;stroke:#b0b0b0;stroke-linecap:square;stroke-width:0.8;"/>
     </g>
     <g id="line2d_4">
      <g>
       <use style="stroke:#000000;stroke-width:0.8;" x="137.910857" xlink:href="#m5e00796ae6" y="298.944"/>
      </g>
     </g>
     <g id="text_2">
      <!-- 2 -->
      <g transform="translate(131.548357 321.140875)scale(0.2 -0.2)">
       <defs>
        <path d="M 1228 531 
L 3431 531 
L 3431 0 
L 469 0 
L 469 531 
Q 828 903 1448 1529 
Q 2069 2156 2228 2338 
Q 2531 2678 2651 2914 
Q 2772 3150 2772 3378 
Q 2772 3750 2511 3984 
Q 2250 4219 1831 4219 
Q 1534 4219 1204 4116 
Q 875 4013 500 3803 
L 500 4441 
Q 881 4594 1212 4672 
Q 1544 4750 1819 4750 
Q 2544 4750 2975 4387 
Q 3406 4025 3406 3419 
Q 3406 3131 3298 2873 
Q 3191 2616 2906 2266 
Q 2828 2175 2409 1742 
Q 1991 1309 1228 531 
z
" id="DejaVuSans-32" transform="scale(0.015625)"/>
       </defs>
       <use xlink:href="#DejaVuSans-32"/>
      </g>
     </g>
    </g>
    <g id="xtick_3">
     <g id="line2d_5">
      <path clip-path="url(#pc4d37e6fbc)" d="M 218.221714 298.944 
L 218.221714 3.456 
" style="fill:none;stroke:#b0b0b0;stroke-linecap:square;stroke-width:0.8;"/>
     </g>
     <g id="line2d_6">
      <g>
       <use style="stroke:#000000;stroke-width:0.8;" x="218.221714" xlink:href="#m5e00796ae6" y="298.944"/>
      </g>
     </g>
     <g id="text_3">
      <!-- 4 -->
      <g transform="translate(211.859214 321.140875)scale(0.2 -0.2)">
       <defs>
        <path d="M 2419 4116 
L 825 1625 
L 2419 1625 
L 2419 4116 
z
M 2253 4666 
L 3047 4666 
L 3047 1625 
L 3713 1625 
L 3713 1100 
L 3047 1100 
L 3047 0 
L 2419 0 
L 2419 1100 
L 313 1100 
L 313 1709 
L 2253 4666 
z
" id="DejaVuSans-34" transform="scale(0.015625)"/>
       </defs>
       <use xlink:href="#DejaVuSans-34"/>
      </g>
     </g>
    </g>
    <g id="xtick_4">
     <g id="line2d_7">
      <path clip-path="url(#pc4d37e6fbc)" d="M 298.532571 298.944 
L 298.532571 3.456 
" style="fill:none;stroke:#b0b0b0;stroke-linecap:square;stroke-width:0.8;"/>
     </g>
     <g id="line2d_8">
      <g>
       <use style="stroke:#000000;stroke-width:0.8;" x="298.532571" xlink:href="#m5e00796ae6" y="298.944"/>
      </g>
     </g>
     <g id="text_4">
      <!-- 6 -->
      <g transform="translate(292.170071 321.140875)scale(0.2 -0.2)">
       <defs>
        <path d="M 2113 2584 
Q 1688 2584 1439 2293 
Q 1191 2003 1191 1497 
Q 1191 994 1439 701 
Q 1688 409 2113 409 
Q 2538 409 2786 701 
Q 3034 994 3034 1497 
Q 3034 2003 2786 2293 
Q 2538 2584 2113 2584 
z
M 3366 4563 
L 3366 3988 
Q 3128 4100 2886 4159 
Q 2644 4219 2406 4219 
Q 1781 4219 1451 3797 
Q 1122 3375 1075 2522 
Q 1259 2794 1537 2939 
Q 1816 3084 2150 3084 
Q 2853 3084 3261 2657 
Q 3669 2231 3669 1497 
Q 3669 778 3244 343 
Q 2819 -91 2113 -91 
Q 1303 -91 875 529 
Q 447 1150 447 2328 
Q 447 3434 972 4092 
Q 1497 4750 2381 4750 
Q 2619 4750 2861 4703 
Q 3103 4656 3366 4563 
z
" id="DejaVuSans-36" transform="scale(0.015625)"/>
       </defs>
       <use xlink:href="#DejaVuSans-36"/>
      </g>
     </g>
    </g>
    <g id="xtick_5">
     <g id="line2d_9">
      <path clip-path="url(#pc4d37e6fbc)" d="M 97.755429 298.944 
L 97.755429 3.456 
" style="fill:none;stroke:#b0b0b0;stroke-linecap:square;stroke-width:0.8;"/>
     </g>
     <g id="line2d_10">
      <defs>
       <path d="M 0 0 
L 0 2 
" id="mc512d4237d" style="stroke:#000000;stroke-width:0.6;"/>
      </defs>
      <g>
       <use style="stroke:#000000;stroke-width:0.6;" x="97.755429" xlink:href="#mc512d4237d" y="298.944"/>
      </g>
     </g>
    </g>
    <g id="xtick_6">
     <g id="line2d_11">
      <path clip-path="url(#pc4d37e6fbc)" d="M 178.066286 298.944 
L 178.066286 3.456 
" style="fill:none;stroke:#b0b0b0;stroke-linecap:square;stroke-width:0.8;"/>
     </g>
     <g id="line2d_12">
      <g>
       <use style="stroke:#000000;stroke-width:0.6;" x="178.066286" xlink:href="#mc512d4237d" y="298.944"/>
      </g>
     </g>
    </g>
    <g id="xtick_7">
     <g id="line2d_13">
      <path clip-path="url(#pc4d37e6fbc)" d="M 258.377143 298.944 
L 258.377143 3.456 
" style="fill:none;stroke:#b0b0b0;stroke-linecap:square;stroke-width:0.8;"/>
     </g>
     <g id="line2d_14">
      <g>
       <use style="stroke:#000000;stroke-width:0.6;" x="258.377143" xlink:href="#mc512d4237d" y="298.944"/>
      </g>
     </g>
    </g>
    <g id="xtick_8">
     <g id="line2d_15">
      <path clip-path="url(#pc4d37e6fbc)" d="M 338.688 298.944 
L 338.688 3.456 
" style="fill:none;stroke:#b0b0b0;stroke-linecap:square;stroke-width:0.8;"/>
     </g>
     <g id="line2d_16">
      <g>
       <use style="stroke:#000000;stroke-width:0.6;" x="338.688" xlink:href="#mc512d4237d" y="298.944"/>
      </g>
     </g>
    </g>
    <g id="text_5">
     <!-- log10(# f-evals / dimension) -->
     <g transform="translate(77.764078 342.217594)scale(0.17 -0.17)">
      <defs>
       <path d="M 603 4863 
L 1178 4863 
L 1178 0 
L 603 0 
L 603 4863 
z
" id="DejaVuSans-6c" transform="scale(0.015625)"/>
       <path d="M 1959 3097 
Q 1497 3097 1228 2736 
Q 959 2375 959 1747 
Q 959 1119 1226 758 
Q 1494 397 1959 397 
Q 2419 397 2687 759 
Q 2956 1122 2956 1747 
Q 2956 2369 2687 2733 
Q 2419 3097 1959 3097 
z
M 1959 3584 
Q 2709 3584 3137 3096 
Q 3566 2609 3566 1747 
Q 3566 888 3137 398 
Q 2709 -91 1959 -91 
Q 1206 -91 779 398 
Q 353 888 353 1747 
Q 353 2609 779 3096 
Q 1206 3584 1959 3584 
z
" id="DejaVuSans-6f" transform="scale(0.015625)"/>
       <path d="M 2906 1791 
Q 2906 2416 2648 2759 
Q 2391 3103 1925 3103 
Q 1463 3103 1205 2759 
Q 947 2416 947 1791 
Q 947 1169 1205 825 
Q 1463 481 1925 481 
Q 2391 481 2648 825 
Q 2906 1169 2906 1791 
z
M 3481 434 
Q 3481 -459 3084 -895 
Q 2688 -1331 1869 -1331 
Q 1566 -1331 1297 -1286 
Q 1028 -1241 775 -1147 
L 775 -588 
Q 1028 -725 1275 -790 
Q 1522 -856 1778 -856 
Q 2344 -856 2625 -561 
Q 2906 -266 2906 331 
L 2906 616 
Q 2728 306 2450 153 
Q 2172 0 1784 0 
Q 1141 0 747 490 
Q 353 981 353 1791 
Q 353 2603 747 3093 
Q 1141 3584 1784 3584 
Q 2172 3584 2450 3431 
Q 2728 3278 2906 2969 
L 2906 3500 
L 3481 3500 
L 3481 434 
z
" id="DejaVuSans-67" transform="scale(0.015625)"/>
       <path d="M 794 531 
L 1825 531 
L 1825 4091 
L 703 3866 
L 703 4441 
L 1819 4666 
L 2450 4666 
L 2450 531 
L 3481 531 
L 3481 0 
L 794 0 
L 794 531 
z
" id="DejaVuSans-31" transform="scale(0.015625)"/>
       <path d="M 1984 4856 
Q 1566 4138 1362 3434 
Q 1159 2731 1159 2009 
Q 1159 1288 1364 580 
Q 1569 -128 1984 -844 
L 1484 -844 
Q 1016 -109 783 600 
Q 550 1309 550 2009 
Q 550 2706 781 3412 
Q 1013 4119 1484 4856 
L 1984 4856 
z
" id="DejaVuSans-28" transform="scale(0.015625)"/>
       <path d="M 3272 2816 
L 2363 2816 
L 2100 1772 
L 3016 1772 
L 3272 2816 
z
M 2803 4594 
L 2478 3297 
L 3391 3297 
L 3719 4594 
L 4219 4594 
L 3897 3297 
L 4872 3297 
L 4872 2816 
L 3775 2816 
L 3519 1772 
L 4513 1772 
L 4513 1294 
L 3397 1294 
L 3072 0 
L 2572 0 
L 2894 1294 
L 1978 1294 
L 1656 0 
L 1153 0 
L 1478 1294 
L 494 1294 
L 494 1772 
L 1594 1772 
L 1856 2816 
L 850 2816 
L 850 3297 
L 1978 3297 
L 2297 4594 
L 2803 4594 
z
" id="DejaVuSans-23" transform="scale(0.015625)"/>
       <path id="DejaVuSans-20" transform="scale(0.015625)"/>
       <path d="M 2375 4863 
L 2375 4384 
L 1825 4384 
Q 1516 4384 1395 4259 
Q 1275 4134 1275 3809 
L 1275 3500 
L 2222 3500 
L 2222 3053 
L 1275 3053 
L 1275 0 
L 697 0 
L 697 3053 
L 147 3053 
L 147 3500 
L 697 3500 
L 697 3744 
Q 697 4328 969 4595 
Q 1241 4863 1831 4863 
L 2375 4863 
z
" id="DejaVuSans-66" transform="scale(0.015625)"/>
       <path d="M 313 2009 
L 1997 2009 
L 1997 1497 
L 313 1497 
L 313 2009 
z
" id="DejaVuSans-2d" transform="scale(0.015625)"/>
       <path d="M 3597 1894 
L 3597 1613 
L 953 1613 
Q 991 1019 1311 708 
Q 1631 397 2203 397 
Q 2534 397 2845 478 
Q 3156 559 3463 722 
L 3463 178 
Q 3153 47 2828 -22 
Q 2503 -91 2169 -91 
Q 1331 -91 842 396 
Q 353 884 353 1716 
Q 353 2575 817 3079 
Q 1281 3584 2069 3584 
Q 2775 3584 3186 3129 
Q 3597 2675 3597 1894 
z
M 3022 2063 
Q 3016 2534 2758 2815 
Q 2500 3097 2075 3097 
Q 1594 3097 1305 2825 
Q 1016 2553 972 2059 
L 3022 2063 
z
" id="DejaVuSans-65" transform="scale(0.015625)"/>
       <path d="M 191 3500 
L 800 3500 
L 1894 563 
L 2988 3500 
L 3597 3500 
L 2284 0 
L 1503 0 
L 191 3500 
z
" id="DejaVuSans-76" transform="scale(0.015625)"/>
       <path d="M 2194 1759 
Q 1497 1759 1228 1600 
Q 959 1441 959 1056 
Q 959 750 1161 570 
Q 1363 391 1709 391 
Q 2188 391 2477 730 
Q 2766 1069 2766 1631 
L 2766 1759 
L 2194 1759 
z
M 3341 1997 
L 3341 0 
L 2766 0 
L 2766 531 
Q 2569 213 2275 61 
Q 1981 -91 1556 -91 
Q 1019 -91 701 211 
Q 384 513 384 1019 
Q 384 1609 779 1909 
Q 1175 2209 1959 2209 
L 2766 2209 
L 2766 2266 
Q 2766 2663 2505 2880 
Q 2244 3097 1772 3097 
Q 1472 3097 1187 3025 
Q 903 2953 641 2809 
L 641 3341 
Q 956 3463 1253 3523 
Q 1550 3584 1831 3584 
Q 2591 3584 2966 3190 
Q 3341 2797 3341 1997 
z
" id="DejaVuSans-61" transform="scale(0.015625)"/>
       <path d="M 2834 3397 
L 2834 2853 
Q 2591 2978 2328 3040 
Q 2066 3103 1784 3103 
Q 1356 3103 1142 2972 
Q 928 2841 928 2578 
Q 928 2378 1081 2264 
Q 1234 2150 1697 2047 
L 1894 2003 
Q 2506 1872 2764 1633 
Q 3022 1394 3022 966 
Q 3022 478 2636 193 
Q 2250 -91 1575 -91 
Q 1294 -91 989 -36 
Q 684 19 347 128 
L 347 722 
Q 666 556 975 473 
Q 1284 391 1588 391 
Q 1994 391 2212 530 
Q 2431 669 2431 922 
Q 2431 1156 2273 1281 
Q 2116 1406 1581 1522 
L 1381 1569 
Q 847 1681 609 1914 
Q 372 2147 372 2553 
Q 372 3047 722 3315 
Q 1072 3584 1716 3584 
Q 2034 3584 2315 3537 
Q 2597 3491 2834 3397 
z
" id="DejaVuSans-73" transform="scale(0.015625)"/>
       <path d="M 1625 4666 
L 2156 4666 
L 531 -594 
L 0 -594 
L 1625 4666 
z
" id="DejaVuSans-2f" transform="scale(0.015625)"/>
       <path d="M 2906 2969 
L 2906 4863 
L 3481 4863 
L 3481 0 
L 2906 0 
L 2906 525 
Q 2725 213 2448 61 
Q 2172 -91 1784 -91 
Q 1150 -91 751 415 
Q 353 922 353 1747 
Q 353 2572 751 3078 
Q 1150 3584 1784 3584 
Q 2172 3584 2448 3432 
Q 2725 3281 2906 2969 
z
M 947 1747 
Q 947 1113 1208 752 
Q 1469 391 1925 391 
Q 2381 391 2643 752 
Q 2906 1113 2906 1747 
Q 2906 2381 2643 2742 
Q 2381 3103 1925 3103 
Q 1469 3103 1208 2742 
Q 947 2381 947 1747 
z
" id="DejaVuSans-64" transform="scale(0.015625)"/>
       <path d="M 603 3500 
L 1178 3500 
L 1178 0 
L 603 0 
L 603 3500 
z
M 603 4863 
L 1178 4863 
L 1178 4134 
L 603 4134 
L 603 4863 
z
" id="DejaVuSans-69" transform="scale(0.015625)"/>
       <path d="M 3328 2828 
Q 3544 3216 3844 3400 
Q 4144 3584 4550 3584 
Q 5097 3584 5394 3201 
Q 5691 2819 5691 2113 
L 5691 0 
L 5113 0 
L 5113 2094 
Q 5113 2597 4934 2840 
Q 4756 3084 4391 3084 
Q 3944 3084 3684 2787 
Q 3425 2491 3425 1978 
L 3425 0 
L 2847 0 
L 2847 2094 
Q 2847 2600 2669 2842 
Q 2491 3084 2119 3084 
Q 1678 3084 1418 2786 
Q 1159 2488 1159 1978 
L 1159 0 
L 581 0 
L 581 3500 
L 1159 3500 
L 1159 2956 
Q 1356 3278 1631 3431 
Q 1906 3584 2284 3584 
Q 2666 3584 2933 3390 
Q 3200 3197 3328 2828 
z
" id="DejaVuSans-6d" transform="scale(0.015625)"/>
       <path d="M 3513 2113 
L 3513 0 
L 2938 0 
L 2938 2094 
Q 2938 2591 2744 2837 
Q 2550 3084 2163 3084 
Q 1697 3084 1428 2787 
Q 1159 2491 1159 1978 
L 1159 0 
L 581 0 
L 581 3500 
L 1159 3500 
L 1159 2956 
Q 1366 3272 1645 3428 
Q 1925 3584 2291 3584 
Q 2894 3584 3203 3211 
Q 3513 2838 3513 2113 
z
" id="DejaVuSans-6e" transform="scale(0.015625)"/>
       <path d="M 513 4856 
L 1013 4856 
Q 1481 4119 1714 3412 
Q 1947 2706 1947 2009 
Q 1947 1309 1714 600 
Q 1481 -109 1013 -844 
L 513 -844 
Q 928 -128 1133 580 
Q 1338 1288 1338 2009 
Q 1338 2731 1133 3434 
Q 928 4138 513 4856 
z
" id="DejaVuSans-29" transform="scale(0.015625)"/>
      </defs>
      <use xlink:href="#DejaVuSans-6c"/>
      <use x="27.783203" xlink:href="#DejaVuSans-6f"/>
      <use x="88.964844" xlink:href="#DejaVuSans-67"/>
      <use x="152.441406" xlink:href="#DejaVuSans-31"/>
      <use x="216.064453" xlink:href="#DejaVuSans-30"/>
      <use x="279.6875" xlink:href="#DejaVuSans-28"/>
      <use x="318.701172" xlink:href="#DejaVuSans-23"/>
      <use x="402.490234" xlink:href="#DejaVuSans-20"/>
      <use x="434.277344" xlink:href="#DejaVuSans-66"/>
      <use x="463.982422" xlink:href="#DejaVuSans-2d"/>
      <use x="500.066406" xlink:href="#DejaVuSans-65"/>
      <use x="561.589844" xlink:href="#DejaVuSans-76"/>
      <use x="620.769531" xlink:href="#DejaVuSans-61"/>
      <use x="682.048828" xlink:href="#DejaVuSans-6c"/>
      <use x="709.832031" xlink:href="#DejaVuSans-73"/>
      <use x="761.931641" xlink:href="#DejaVuSans-20"/>
      <use x="793.71875" xlink:href="#DejaVuSans-2f"/>
      <use x="827.410156" xlink:href="#DejaVuSans-20"/>
      <use x="859.197266" xlink:href="#DejaVuSans-64"/>
      <use x="922.673828" xlink:href="#DejaVuSans-69"/>
      <use x="950.457031" xlink:href="#DejaVuSans-6d"/>
      <use x="1047.869141" xlink:href="#DejaVuSans-65"/>
      <use x="1109.392578" xlink:href="#DejaVuSans-6e"/>
      <use x="1172.771484" xlink:href="#DejaVuSans-73"/>
      <use x="1224.871094" xlink:href="#DejaVuSans-69"/>
      <use x="1252.654297" xlink:href="#DejaVuSans-6f"/>
      <use x="1313.835938" xlink:href="#DejaVuSans-6e"/>
      <use x="1377.214844" xlink:href="#DejaVuSans-29"/>
     </g>
    </g>
   </g>
   <g id="matplotlib.axis_2">
    <g id="ytick_1">
     <g id="line2d_17">
      <path clip-path="url(#pc4d37e6fbc)" d="M 57.6 298.944 
L 338.688 298.944 
" style="fill:none;stroke:#b0b0b0;stroke-linecap:square;stroke-width:0.8;"/>
     </g>
     <g id="line2d_18">
      <defs>
       <path d="M 0 0 
L -3.5 0 
" id="m2b8e4b033f" style="stroke:#000000;stroke-width:0.8;"/>
      </defs>
      <g>
       <use style="stroke:#000000;stroke-width:0.8;" x="57.6" xlink:href="#m2b8e4b033f" y="298.944"/>
      </g>
     </g>
     <g id="text_6">
      <!-- 0.0 -->
      <g transform="translate(25.155 305.02275)scale(0.16 -0.16)">
       <defs>
        <path d="M 684 794 
L 1344 794 
L 1344 0 
L 684 0 
L 684 794 
z
" id="DejaVuSans-2e" transform="scale(0.015625)"/>
       </defs>
       <use xlink:href="#DejaVuSans-30"/>
       <use x="63.623047" xlink:href="#DejaVuSans-2e"/>
       <use x="95.410156" xlink:href="#DejaVuSans-30"/>
      </g>
     </g>
    </g>
    <g id="ytick_2">
     <g id="line2d_19">
      <path clip-path="url(#pc4d37e6fbc)" d="M 57.6 240.431525 
L 338.688 240.431525 
" style="fill:none;stroke:#b0b0b0;stroke-linecap:square;stroke-width:0.8;"/>
     </g>
     <g id="line2d_20">
      <g>
       <use style="stroke:#000000;stroke-width:0.8;" x="57.6" xlink:href="#m2b8e4b033f" y="240.431525"/>
      </g>
     </g>
     <g id="text_7">
      <!-- 0.2 -->
      <g transform="translate(25.155 246.510275)scale(0.16 -0.16)">
       <use xlink:href="#DejaVuSans-30"/>
       <use x="63.623047" xlink:href="#DejaVuSans-2e"/>
       <use x="95.410156" xlink:href="#DejaVuSans-32"/>
      </g>
     </g>
    </g>
    <g id="ytick_3">
     <g id="line2d_21">
      <path clip-path="url(#pc4d37e6fbc)" d="M 57.6 181.91905 
L 338.688 181.91905 
" style="fill:none;stroke:#b0b0b0;stroke-linecap:square;stroke-width:0.8;"/>
     </g>
     <g id="line2d_22">
      <g>
       <use style="stroke:#000000;stroke-width:0.8;" x="57.6" xlink:href="#m2b8e4b033f" y="181.91905"/>
      </g>
     </g>
     <g id="text_8">
      <!-- 0.4 -->
      <g transform="translate(25.155 187.9978)scale(0.16 -0.16)">
       <use xlink:href="#DejaVuSans-30"/>
       <use x="63.623047" xlink:href="#DejaVuSans-2e"/>
       <use x="95.410156" xlink:href="#DejaVuSans-34"/>
      </g>
     </g>
    </g>
    <g id="ytick_4">
     <g id="line2d_23">
      <path clip-path="url(#pc4d37e6fbc)" d="M 57.6 123.406574 
L 338.688 123.406574 
" style="fill:none;stroke:#b0b0b0;stroke-linecap:square;stroke-width:0.8;"/>
     </g>
     <g id="line2d_24">
      <g>
       <use style="stroke:#000000;stroke-width:0.8;" x="57.6" xlink:href="#m2b8e4b033f" y="123.406574"/>
      </g>
     </g>
     <g id="text_9">
      <!-- 0.6 -->
      <g transform="translate(25.155 129.485324)scale(0.16 -0.16)">
       <use xlink:href="#DejaVuSans-30"/>
       <use x="63.623047" xlink:href="#DejaVuSans-2e"/>
       <use x="95.410156" xlink:href="#DejaVuSans-36"/>
      </g>
     </g>
    </g>
    <g id="ytick_5">
     <g id="line2d_25">
      <path clip-path="url(#pc4d37e6fbc)" d="M 57.6 64.894099 
L 338.688 64.894099 
" style="fill:none;stroke:#b0b0b0;stroke-linecap:square;stroke-width:0.8;"/>
     </g>
     <g id="line2d_26">
      <g>
       <use style="stroke:#000000;stroke-width:0.8;" x="57.6" xlink:href="#m2b8e4b033f" y="64.894099"/>
      </g>
     </g>
     <g id="text_10">
      <!-- 0.8 -->
      <g transform="translate(25.155 70.972849)scale(0.16 -0.16)">
       <defs>
        <path d="M 2034 2216 
Q 1584 2216 1326 1975 
Q 1069 1734 1069 1313 
Q 1069 891 1326 650 
Q 1584 409 2034 409 
Q 2484 409 2743 651 
Q 3003 894 3003 1313 
Q 3003 1734 2745 1975 
Q 2488 2216 2034 2216 
z
M 1403 2484 
Q 997 2584 770 2862 
Q 544 3141 544 3541 
Q 544 4100 942 4425 
Q 1341 4750 2034 4750 
Q 2731 4750 3128 4425 
Q 3525 4100 3525 3541 
Q 3525 3141 3298 2862 
Q 3072 2584 2669 2484 
Q 3125 2378 3379 2068 
Q 3634 1759 3634 1313 
Q 3634 634 3220 271 
Q 2806 -91 2034 -91 
Q 1263 -91 848 271 
Q 434 634 434 1313 
Q 434 1759 690 2068 
Q 947 2378 1403 2484 
z
M 1172 3481 
Q 1172 3119 1398 2916 
Q 1625 2713 2034 2713 
Q 2441 2713 2670 2916 
Q 2900 3119 2900 3481 
Q 2900 3844 2670 4047 
Q 2441 4250 2034 4250 
Q 1625 4250 1398 4047 
Q 1172 3844 1172 3481 
z
" id="DejaVuSans-38" transform="scale(0.015625)"/>
       </defs>
       <use xlink:href="#DejaVuSans-30"/>
       <use x="63.623047" xlink:href="#DejaVuSans-2e"/>
       <use x="95.410156" xlink:href="#DejaVuSans-38"/>
      </g>
     </g>
    </g>
    <g id="ytick_6">
     <g id="line2d_27">
      <path clip-path="url(#pc4d37e6fbc)" d="M 57.6 6.381624 
L 338.688 6.381624 
" style="fill:none;stroke:#b0b0b0;stroke-linecap:square;stroke-width:0.8;"/>
     </g>
     <g id="line2d_28">
      <g>
       <use style="stroke:#000000;stroke-width:0.8;" x="57.6" xlink:href="#m2b8e4b033f" y="6.381624"/>
      </g>
     </g>
     <g id="text_11">
      <!-- 1.0 -->
      <g transform="translate(25.155 12.460374)scale(0.16 -0.16)">
       <use xlink:href="#DejaVuSans-31"/>
       <use x="63.623047" xlink:href="#DejaVuSans-2e"/>
       <use x="95.410156" xlink:href="#DejaVuSans-30"/>
      </g>
     </g>
    </g>
    <g id="text_12">
     <!-- Fraction of function,target pairs -->
     <g transform="translate(17.619531 285.585)rotate(-90)scale(0.17 -0.17)">
      <defs>
       <path d="M 628 4666 
L 3309 4666 
L 3309 4134 
L 1259 4134 
L 1259 2759 
L 3109 2759 
L 3109 2228 
L 1259 2228 
L 1259 0 
L 628 0 
L 628 4666 
z
" id="DejaVuSans-46" transform="scale(0.015625)"/>
       <path d="M 2631 2963 
Q 2534 3019 2420 3045 
Q 2306 3072 2169 3072 
Q 1681 3072 1420 2755 
Q 1159 2438 1159 1844 
L 1159 0 
L 581 0 
L 581 3500 
L 1159 3500 
L 1159 2956 
Q 1341 3275 1631 3429 
Q 1922 3584 2338 3584 
Q 2397 3584 2469 3576 
Q 2541 3569 2628 3553 
L 2631 2963 
z
" id="DejaVuSans-72" transform="scale(0.015625)"/>
       <path d="M 3122 3366 
L 3122 2828 
Q 2878 2963 2633 3030 
Q 2388 3097 2138 3097 
Q 1578 3097 1268 2742 
Q 959 2388 959 1747 
Q 959 1106 1268 751 
Q 1578 397 2138 397 
Q 2388 397 2633 464 
Q 2878 531 3122 666 
L 3122 134 
Q 2881 22 2623 -34 
Q 2366 -91 2075 -91 
Q 1284 -91 818 406 
Q 353 903 353 1747 
Q 353 2603 823 3093 
Q 1294 3584 2113 3584 
Q 2378 3584 2631 3529 
Q 2884 3475 3122 3366 
z
" id="DejaVuSans-63" transform="scale(0.015625)"/>
       <path d="M 1172 4494 
L 1172 3500 
L 2356 3500 
L 2356 3053 
L 1172 3053 
L 1172 1153 
Q 1172 725 1289 603 
Q 1406 481 1766 481 
L 2356 481 
L 2356 0 
L 1766 0 
Q 1100 0 847 248 
Q 594 497 594 1153 
L 594 3053 
L 172 3053 
L 172 3500 
L 594 3500 
L 594 4494 
L 1172 4494 
z
" id="DejaVuSans-74" transform="scale(0.015625)"/>
       <path d="M 544 1381 
L 544 3500 
L 1119 3500 
L 1119 1403 
Q 1119 906 1312 657 
Q 1506 409 1894 409 
Q 2359 409 2629 706 
Q 2900 1003 2900 1516 
L 2900 3500 
L 3475 3500 
L 3475 0 
L 2900 0 
L 2900 538 
Q 2691 219 2414 64 
Q 2138 -91 1772 -91 
Q 1169 -91 856 284 
Q 544 659 544 1381 
z
M 1991 3584 
L 1991 3584 
z
" id="DejaVuSans-75" transform="scale(0.015625)"/>
       <path d="M 750 794 
L 1409 794 
L 1409 256 
L 897 -744 
L 494 -744 
L 750 256 
L 750 794 
z
" id="DejaVuSans-2c" transform="scale(0.015625)"/>
       <path d="M 1159 525 
L 1159 -1331 
L 581 -1331 
L 581 3500 
L 1159 3500 
L 1159 2969 
Q 1341 3281 1617 3432 
Q 1894 3584 2278 3584 
Q 2916 3584 3314 3078 
Q 3713 2572 3713 1747 
Q 3713 922 3314 415 
Q 2916 -91 2278 -91 
Q 1894 -91 1617 61 
Q 1341 213 1159 525 
z
M 3116 1747 
Q 3116 2381 2855 2742 
Q 2594 3103 2138 3103 
Q 1681 3103 1420 2742 
Q 1159 2381 1159 1747 
Q 1159 1113 1420 752 
Q 1681 391 2138 391 
Q 2594 391 2855 752 
Q 3116 1113 3116 1747 
z
" id="DejaVuSans-70" transform="scale(0.015625)"/>
      </defs>
      <use xlink:href="#DejaVuSans-46"/>
      <use x="50.269531" xlink:href="#DejaVuSans-72"/>
      <use x="91.382812" xlink:href="#DejaVuSans-61"/>
      <use x="152.662109" xlink:href="#DejaVuSans-63"/>
      <use x="207.642578" xlink:href="#DejaVuSans-74"/>
      <use x="246.851562" xlink:href="#DejaVuSans-69"/>
      <use x="274.634766" xlink:href="#DejaVuSans-6f"/>
      <use x="335.816406" xlink:href="#DejaVuSans-6e"/>
      <use x="399.195312" xlink:href="#DejaVuSans-20"/>
      <use x="430.982422" xlink:href="#DejaVuSans-6f"/>
      <use x="492.164062" xlink:href="#DejaVuSans-66"/>
      <use x="527.369141" xlink:href="#DejaVuSans-20"/>
      <use x="559.15625" xlink:href="#DejaVuSans-66"/>
      <use x="594.361328" xlink:href="#DejaVuSans-75"/>
      <use x="657.740234" xlink:href="#DejaVuSans-6e"/>
      <use x="721.119141" xlink:href="#DejaVuSans-63"/>
      <use x="776.099609" xlink:href="#DejaVuSans-74"/>
      <use x="815.308594" xlink:href="#DejaVuSans-69"/>
      <use x="843.091797" xlink:href="#DejaVuSans-6f"/>
      <use x="904.273438" xlink:href="#DejaVuSans-6e"/>
      <use x="967.652344" xlink:href="#DejaVuSans-2c"/>
      <use x="999.439453" xlink:href="#DejaVuSans-74"/>
      <use x="1038.648438" xlink:href="#DejaVuSans-61"/>
      <use x="1099.927734" xlink:href="#DejaVuSans-72"/>
      <use x="1139.291016" xlink:href="#DejaVuSans-67"/>
      <use x="1202.767578" xlink:href="#DejaVuSans-65"/>
      <use x="1264.291016" xlink:href="#DejaVuSans-74"/>
      <use x="1303.5" xlink:href="#DejaVuSans-20"/>
      <use x="1335.287109" xlink:href="#DejaVuSans-70"/>
      <use x="1398.763672" xlink:href="#DejaVuSans-61"/>
      <use x="1460.042969" xlink:href="#DejaVuSans-69"/>
      <use x="1487.826172" xlink:href="#DejaVuSans-72"/>
      <use x="1528.939453" xlink:href="#DejaVuSans-73"/>
     </g>
    </g>
   </g>
   <g id="line2d_29">
    <path clip-path="url(#pc4d37e6fbc)" d="M 57.6 298.944 
L 57.6 298.944 
L 57.6 298.944 
L 57.6 298.944 
L 338.688 298.944 
" style="fill:none;stroke:#000080;stroke-linecap:square;stroke-width:1.5;"/>
   </g>
   <g id="line2d_30">
    <defs>
     <path d="M 0 6 
C 1.591219 6 3.117479 5.367802 4.242641 4.242641 
C 5.367802 3.117479 6 1.591219 6 0 
C 6 -1.591219 5.367802 -3.117479 4.242641 -4.242641 
C 3.117479 -5.367802 1.591219 -6 0 -6 
C -1.591219 -6 -3.117479 -5.367802 -4.242641 -4.242641 
C -5.367802 -3.117479 -6 -1.591219 -6 0 
C -6 1.591219 -5.367802 3.117479 -4.242641 4.242641 
C -3.117479 5.367802 -1.591219 6 0 6 
z
" id="m7e5958c8f1" style="stroke:#000080;stroke-width:1.5;"/>
    </defs>
    <g clip-path="url(#pc4d37e6fbc)">
     <use style="fill-opacity:0;stroke:#000080;stroke-width:1.5;" x="57.6" xlink:href="#m7e5958c8f1" y="298.944"/>
    </g>
   </g>
   <g id="line2d_31">
    <path clip-path="url(#pc4d37e6fbc)" style="fill:none;stroke:#000080;stroke-linecap:square;stroke-width:1.5;"/>
    <g clip-path="url(#pc4d37e6fbc)">
     <use style="fill-opacity:0;stroke:#000080;stroke-width:1.5;" x="-1" xlink:href="#m7e5958c8f1" y="591.506376"/>
     <use style="fill-opacity:0;stroke:#000080;stroke-width:1.5;" x="338.688" xlink:href="#m7e5958c8f1" y="591.506376"/>
    </g>
   </g>
   <g id="line2d_32">
    <path clip-path="url(#pc4d37e6fbc)" d="M 57.6 298.944 
L 57.6 298.944 
L 57.6 298.944 
L 57.6 298.944 
L 338.688 298.944 
" style="fill:none;stroke:#ff00ff;stroke-linecap:square;stroke-width:1.5;"/>
   </g>
   <g id="line2d_33">
    <defs>
     <path d="M 0 8.485281 
L 5.091169 0 
L 0 -8.485281 
L -5.091169 0 
z
" id="ma9cb0ead0c" style="stroke:#ff00ff;stroke-linejoin:miter;stroke-width:1.5;"/>
    </defs>
    <g clip-path="url(#pc4d37e6fbc)">
     <use style="fill-opacity:0;stroke:#ff00ff;stroke-linejoin:miter;stroke-width:1.5;" x="57.6" xlink:href="#ma9cb0ead0c" y="298.944"/>
    </g>
   </g>
   <g id="line2d_34">
    <path clip-path="url(#pc4d37e6fbc)" style="fill:none;stroke:#ff00ff;stroke-linecap:square;stroke-width:1.5;"/>
    <g clip-path="url(#pc4d37e6fbc)">
     <use style="fill-opacity:0;stroke:#ff00ff;stroke-linejoin:miter;stroke-width:1.5;" x="-1" xlink:href="#ma9cb0ead0c" y="591.506376"/>
     <use style="fill-opacity:0;stroke:#ff00ff;stroke-linejoin:miter;stroke-width:1.5;" x="338.688" xlink:href="#ma9cb0ead0c" y="591.506376"/>
    </g>
   </g>
   <g id="line2d_35">
    <defs>
     <path d="M 0 1.5 
C 0.397805 1.5 0.77937 1.341951 1.06066 1.06066 
C 1.341951 0.77937 1.5 0.397805 1.5 0 
C 1.5 -0.397805 1.341951 -0.77937 1.06066 -1.06066 
C 0.77937 -1.341951 0.397805 -1.5 0 -1.5 
C -0.397805 -1.5 -0.77937 -1.341951 -1.06066 -1.06066 
C -1.341951 -0.77937 -1.5 -0.397805 -1.5 0 
C -1.5 0.397805 -1.341951 0.77937 -1.06066 1.06066 
C -0.77937 1.341951 -0.397805 1.5 0 1.5 
z
" id="m1c2ba9a677" style="stroke:#ff7500;"/>
    </defs>
    <g>
     <use style="fill:#ff7500;stroke:#ff7500;" x="247.517404" xlink:href="#m1c2ba9a677" y="218.632759"/>
     <use style="fill:#ff7500;stroke:#ff7500;" x="247.517404" xlink:href="#m1c2ba9a677" y="218.632759"/>
    </g>
   </g>
   <g id="line2d_36">
    <path d="M 172.88696 298.944 
L 172.88696 298.370348 
L 173.442468 298.370348 
L 173.442468 297.796697 
L 174.080834 297.796697 
L 174.080834 297.223045 
L 174.374769 297.223045 
L 174.374769 296.649393 
L 174.497177 296.649393 
L 174.497177 296.075741 
L 174.790022 296.075741 
L 174.87347 294.928438 
L 175.299647 294.928438 
L 175.299647 294.354786 
L 175.418798 294.354786 
L 175.418798 293.781135 
L 175.598021 293.781135 
L 175.598021 293.207483 
L 175.781387 293.207483 
L 175.781387 292.633831 
L 175.945128 292.633831 
L 175.975628 291.486528 
L 176.215305 291.486528 
L 176.252111 290.339224 
L 176.334642 290.339224 
L 176.334642 289.765573 
L 176.49854 289.765573 
L 176.577542 288.044617 
L 176.652878 288.044617 
L 176.69915 286.897314 
L 176.77678 286.897314 
L 176.862944 285.176359 
L 176.906799 285.176359 
L 176.906799 284.602707 
L 177.397017 284.602707 
L 177.48108 283.455404 
L 177.512161 283.455404 
L 177.575056 281.734448 
L 177.679676 281.734448 
L 177.757065 280.587145 
L 178.026129 280.587145 
L 178.031372 279.439842 
L 178.139811 279.439842 
L 178.226426 278.292538 
L 178.424448 278.292538 
L 178.443657 277.145235 
L 178.762839 277.145235 
L 178.762839 276.571583 
L 178.888477 276.571583 
L 178.972702 274.850628 
L 179.009913 274.850628 
L 179.030552 273.703324 
L 179.137891 273.703324 
L 179.187431 272.556021 
L 179.292593 272.556021 
L 179.403586 270.835066 
L 179.418924 270.835066 
L 179.512674 269.687762 
L 179.701454 269.687762 
L 179.701454 269.114111 
L 179.950937 269.114111 
L 179.95485 267.966807 
L 180.111034 267.966807 
L 180.18262 265.6722 
L 180.339847 265.6722 
L 180.35056 264.524897 
L 180.668525 264.524897 
L 180.668525 263.951245 
L 180.8032 263.951245 
L 180.900194 262.803942 
L 181.03457 262.803942 
L 181.069104 261.656638 
L 181.412893 261.656638 
L 181.412893 261.082987 
L 181.620014 261.082987 
L 181.729552 259.362031 
L 181.935063 259.362031 
L 181.935063 258.78838 
L 190.711402 258.78838 
L 190.711402 258.214728 
L 191.049098 258.214728 
L 191.118334 257.067425 
L 191.528886 257.067425 
L 191.546606 255.920121 
L 191.790634 255.920121 
L 191.790634 255.346469 
L 191.959699 255.346469 
L 191.959699 254.772818 
L 192.521344 254.772818 
L 192.591432 253.625514 
L 192.764022 253.625514 
L 192.866016 251.330907 
L 193.022798 251.330907 
L 193.022798 250.757256 
L 193.146813 250.757256 
L 193.180749 249.036301 
L 193.322746 249.036301 
L 193.322746 248.462649 
L 193.775437 248.462649 
L 193.856369 247.315345 
L 193.923584 247.315345 
L 193.932012 246.168042 
L 199.439693 246.168042 
L 199.501024 245.020738 
L 199.554767 245.020738 
L 199.554767 244.447087 
L 200.054384 244.447087 
L 200.054384 243.873435 
L 200.469402 243.873435 
L 200.474348 242.726132 
L 200.771316 242.726132 
L 200.771316 242.15248 
L 200.937024 242.15248 
L 201.004904 240.431525 
L 204.692117 240.431525 
L 204.692117 239.857873 
L 205.315224 239.857873 
L 205.315224 239.284221 
L 205.596425 239.284221 
L 205.704181 236.989614 
L 205.775977 236.989614 
L 205.875288 235.268659 
L 209.810556 235.268659 
L 209.818746 234.121356 
L 212.85029 234.121356 
L 212.910223 232.400401 
L 213.054237 232.400401 
L 213.141851 231.253097 
L 215.689494 231.253097 
L 215.689494 230.679446 
L 218.043757 230.679446 
L 218.043757 230.105794 
L 218.174565 230.105794 
L 218.219709 228.95849 
L 220.117671 228.95849 
L 220.117671 228.384839 
L 220.233861 228.384839 
L 220.273983 227.237535 
L 221.921481 227.237535 
L 221.921481 226.663884 
L 222.075468 226.663884 
L 222.111573 225.51658 
L 227.85936 225.51658 
L 227.954084 224.369277 
L 231.26357 224.369277 
L 231.366009 223.221973 
L 233.286811 223.221973 
L 233.286811 222.07467 
L 235.798805 222.07467 
L 235.798805 221.501018 
L 236.576821 221.501018 
L 236.576821 220.927366 
L 240.667973 220.927366 
L 240.667973 220.353715 
L 242.891352 220.353715 
L 242.891352 219.780063 
L 243.929962 219.780063 
L 243.929962 219.206411 
L 247.517404 219.206411 
L 247.517404 218.632759 
L 338.688 218.632759 
L 338.688 218.632759 
" style="fill:none;stroke:#ff7500;stroke-linecap:square;stroke-width:1.5;"/>
   </g>
   <g id="line2d_37">
    <defs>
     <path d="M 0 -6 
L -1.347084 -1.854102 
L -5.706339 -1.854102 
L -2.179628 0.708204 
L -3.526712 4.854102 
L -0 2.291796 
L 3.526712 4.854102 
L 2.179628 0.708204 
L 5.706339 -1.854102 
L 1.347084 -1.854102 
z
" id="m8d59dcd86d" style="stroke:#ff7500;stroke-linejoin:bevel;stroke-width:1.5;"/>
    </defs>
    <g>
     <use style="fill-opacity:0;stroke:#ff7500;stroke-linejoin:bevel;stroke-width:1.5;" x="192.815375" xlink:href="#m8d59dcd86d" y="251.904559"/>
     <use style="fill-opacity:0;stroke:#ff7500;stroke-linejoin:bevel;stroke-width:1.5;" x="247.517404" xlink:href="#m8d59dcd86d" y="218.632759"/>
     <use style="fill-opacity:0;stroke:#ff7500;stroke-linejoin:bevel;stroke-width:1.5;" x="247.517404" xlink:href="#m8d59dcd86d" y="218.632759"/>
     <use style="fill-opacity:0;stroke:#ff7500;stroke-linejoin:bevel;stroke-width:1.5;" x="338.688" xlink:href="#m8d59dcd86d" y="218.632759"/>
    </g>
   </g>
   <g id="line2d_38">
    <path style="fill:none;stroke:#ff7500;stroke-linecap:square;stroke-width:1.5;"/>
    <g/>
   </g>
   <g id="line2d_39">
    <path clip-path="url(#pc4d37e6fbc)" d="M 181.957749 258.78838 
" style="fill:none;stroke:#ff7500;stroke-linecap:square;stroke-width:1.5;"/>
    <defs>
     <path d="M -12 12 
L 12 -12 
M -12 -12 
L 12 12 
" id="m8c55b893ca" style="stroke:#ff7500;"/>
    </defs>
    <g clip-path="url(#pc4d37e6fbc)">
     <use style="fill:#ff7500;stroke:#ff7500;" x="181.957749" xlink:href="#m8c55b893ca" y="258.78838"/>
    </g>
   </g>
   <g id="line2d_40">
    <defs>
     <path d="M 0 1.5 
C 0.397805 1.5 0.77937 1.341951 1.06066 1.06066 
C 1.341951 0.77937 1.5 0.397805 1.5 0 
C 1.5 -0.397805 1.341951 -0.77937 1.06066 -1.06066 
C 0.77937 -1.341951 0.397805 -1.5 0 -1.5 
C -0.397805 -1.5 -0.77937 -1.341951 -1.06066 -1.06066 
C -1.341951 -0.77937 -1.5 -0.397805 -1.5 0 
C -1.5 0.397805 -1.341951 0.77937 -1.06066 1.06066 
C -0.77937 1.341951 -0.397805 1.5 0 1.5 
z
" id="m7156a281f8" style="stroke:#6495ed;"/>
    </defs>
    <g>
     <use style="fill:#6495ed;stroke:#6495ed;" x="261.7276" xlink:href="#m7156a281f8" y="224.369277"/>
     <use style="fill:#6495ed;stroke:#6495ed;" x="261.7276" xlink:href="#m7156a281f8" y="224.369277"/>
    </g>
   </g>
   <g id="line2d_41">
    <path d="M 159.795473 298.944 
L 159.795473 298.370348 
L 160.262739 298.370348 
L 160.262739 297.796697 
L 160.518612 297.796697 
L 160.518612 297.223045 
L 162.714129 297.223045 
L 162.714129 296.649393 
L 163.43806 296.649393 
L 163.460237 295.50209 
L 163.863539 295.50209 
L 163.863539 294.928438 
L 163.984199 294.928438 
L 163.984199 294.354786 
L 164.716466 294.354786 
L 164.716466 293.781135 
L 165.065412 293.781135 
L 165.092955 292.633831 
L 166.018362 292.633831 
L 166.018362 292.060179 
L 166.623668 292.060179 
L 166.623668 291.486528 
L 167.269504 291.486528 
L 167.317213 290.339224 
L 167.683191 290.339224 
L 167.683191 289.765573 
L 169.669811 289.765573 
L 169.669811 289.191921 
L 169.956739 289.191921 
L 170.050883 288.044617 
L 170.13353 288.044617 
L 170.13353 287.470966 
L 170.557095 287.470966 
L 170.623359 286.323662 
L 171.2931 286.323662 
L 171.2931 285.75001 
L 172.427402 285.75001 
L 172.512137 284.602707 
L 172.779844 284.602707 
L 172.888133 283.455404 
L 173.361004 283.455404 
L 173.361004 282.881752 
L 174.128984 282.881752 
L 174.150281 281.734448 
L 174.510546 281.734448 
L 174.510546 281.160797 
L 174.731528 281.160797 
L 174.735223 280.013493 
L 175.026726 280.013493 
L 175.026726 279.439842 
L 175.360342 279.439842 
L 175.360342 278.86619 
L 175.909641 278.86619 
L 175.909641 278.292538 
L 176.038428 278.292538 
L 176.038428 277.718886 
L 176.187649 277.718886 
L 176.187649 277.145235 
L 176.376962 277.145235 
L 176.376962 276.571583 
L 176.721769 276.571583 
L 176.721769 275.997931 
L 177.202489 275.997931 
L 177.202489 275.42428 
L 177.833229 275.42428 
L 177.935877 273.703324 
L 178.606303 273.703324 
L 178.606303 273.129673 
L 178.999998 273.129673 
L 179.010739 271.982369 
L 179.225411 271.982369 
L 179.225411 271.408718 
L 179.468477 271.408718 
L 179.468477 270.835066 
L 179.715739 270.835066 
L 179.715739 270.261414 
L 180.025131 270.261414 
L 180.083482 269.114111 
L 180.15286 269.114111 
L 180.15286 268.540459 
L 180.485047 268.540459 
L 180.485047 267.966807 
L 180.832987 267.966807 
L 180.832987 267.393156 
L 181.166094 267.393156 
L 181.166094 266.819504 
L 181.738737 266.819504 
L 181.738737 266.245852 
L 186.270984 266.245852 
L 186.270984 265.6722 
L 186.486716 265.6722 
L 186.486716 265.098549 
L 187.569598 265.098549 
L 187.569598 264.524897 
L 188.204356 264.524897 
L 188.204356 263.377593 
L 188.576271 263.377593 
L 188.576271 262.803942 
L 188.962373 262.803942 
L 188.962373 262.23029 
L 189.199072 262.23029 
L 189.199072 261.656638 
L 189.357235 261.656638 
L 189.357235 261.082987 
L 191.39825 261.082987 
L 191.39825 259.935683 
L 192.122858 259.935683 
L 192.122858 258.78838 
L 192.845478 258.78838 
L 192.845478 258.214728 
L 192.960737 258.214728 
L 192.960737 257.641076 
L 193.106186 257.641076 
L 193.133771 256.493773 
L 193.324928 256.493773 
L 193.334013 254.772818 
L 193.492423 254.772818 
L 193.563026 251.330907 
L 198.090548 251.330907 
L 198.090548 250.757256 
L 198.693605 250.757256 
L 198.693605 250.183604 
L 198.881489 250.183604 
L 198.971259 248.462649 
L 199.324114 248.462649 
L 199.397146 247.315345 
L 199.876411 247.315345 
L 199.876411 246.741694 
L 200.188674 246.741694 
L 200.188674 245.59439 
L 200.496047 245.59439 
L 200.496047 245.020738 
L 200.645516 245.020738 
L 200.645516 244.447087 
L 200.796439 244.447087 
L 200.796439 243.873435 
L 204.919263 243.873435 
L 204.919263 243.299783 
L 205.060877 243.299783 
L 205.060877 242.726132 
L 205.211834 242.726132 
L 205.211834 242.15248 
L 205.489719 242.15248 
L 205.54392 241.005176 
L 206.07923 241.005176 
L 206.07923 240.431525 
L 209.472414 240.431525 
L 209.472414 239.857873 
L 212.595598 239.857873 
L 212.595598 239.284221 
L 212.897152 239.284221 
L 212.897152 238.71057 
L 213.168434 238.71057 
L 213.168434 238.136918 
L 215.501305 238.136918 
L 215.501305 237.563266 
L 215.742849 237.563266 
L 215.756463 236.415963 
L 217.879445 236.415963 
L 217.879445 235.842311 
L 220.071307 235.842311 
L 220.071307 235.268659 
L 221.637492 235.268659 
L 221.637492 234.695008 
L 222.011981 234.695008 
L 222.011981 234.121356 
L 223.543876 234.121356 
L 223.543876 233.547704 
L 223.755522 233.547704 
L 223.755522 232.974052 
L 224.897236 232.974052 
L 224.897236 232.400401 
L 225.09834 232.400401 
L 225.09834 231.826749 
L 226.615222 231.826749 
L 226.615222 231.253097 
L 229.120603 231.253097 
L 229.120603 230.679446 
L 230.139408 230.679446 
L 230.139408 230.105794 
L 231.259009 230.105794 
L 231.259009 229.532142 
L 232.16306 229.532142 
L 232.16306 228.95849 
L 233.210098 228.95849 
L 233.210098 228.384839 
L 234.153492 228.384839 
L 234.153492 227.811187 
L 239.366887 227.811187 
L 239.366887 227.237535 
L 240.648102 227.237535 
L 240.648102 226.663884 
L 243.933236 226.663884 
L 243.933236 226.090232 
L 246.6751 226.090232 
L 246.6751 225.51658 
L 247.909669 225.51658 
L 247.909669 224.942928 
L 261.7276 224.942928 
L 261.7276 224.369277 
L 338.688 224.369277 
L 338.688 224.369277 
" style="fill:none;stroke:#6495ed;stroke-linecap:square;stroke-width:1.5;"/>
   </g>
   <g id="line2d_42">
    <defs>
     <path d="M -0 6 
L 6 -6 
L -6 -6 
z
" id="mdb28604827" style="stroke:#6495ed;stroke-linejoin:miter;stroke-width:1.5;"/>
    </defs>
    <g>
     <use style="fill-opacity:0;stroke:#6495ed;stroke-linejoin:miter;stroke-width:1.5;" x="230.139408" xlink:href="#mdb28604827" y="230.679446"/>
     <use style="fill-opacity:0;stroke:#6495ed;stroke-linejoin:miter;stroke-width:1.5;" x="261.7276" xlink:href="#mdb28604827" y="224.369277"/>
     <use style="fill-opacity:0;stroke:#6495ed;stroke-linejoin:miter;stroke-width:1.5;" x="261.7276" xlink:href="#mdb28604827" y="224.369277"/>
     <use style="fill-opacity:0;stroke:#6495ed;stroke-linejoin:miter;stroke-width:1.5;" x="338.688" xlink:href="#mdb28604827" y="224.369277"/>
    </g>
   </g>
   <g id="line2d_43">
    <path style="fill:none;stroke:#6495ed;stroke-linecap:square;stroke-width:1.5;"/>
    <g/>
   </g>
   <g id="line2d_44">
    <path clip-path="url(#pc4d37e6fbc)" d="M 181.957749 266.245852 
" style="fill:none;stroke:#6495ed;stroke-linecap:square;stroke-width:1.5;"/>
    <defs>
     <path d="M -12 12 
L 12 -12 
M -12 -12 
L 12 12 
" id="m6e76b3573d" style="stroke:#6495ed;"/>
    </defs>
    <g clip-path="url(#pc4d37e6fbc)">
     <use style="fill:#6495ed;stroke:#6495ed;" x="181.957749" xlink:href="#m6e76b3573d" y="266.245852"/>
    </g>
   </g>
   <g id="line2d_45">
    <defs>
     <path d="M 0 1.5 
C 0.397805 1.5 0.77937 1.341951 1.06066 1.06066 
C 1.341951 0.77937 1.5 0.397805 1.5 0 
C 1.5 -0.397805 1.341951 -0.77937 1.06066 -1.06066 
C 0.77937 -1.341951 0.397805 -1.5 0 -1.5 
C -0.397805 -1.5 -0.77937 -1.341951 -1.06066 -1.06066 
C -1.341951 -0.77937 -1.5 -0.397805 -1.5 0 
C -1.5 0.397805 -1.341951 0.77937 -1.06066 1.06066 
C -0.77937 1.341951 -0.397805 1.5 0 1.5 
z
" id="mb9e45e3f75" style="stroke:#ff0000;"/>
    </defs>
    <g>
     <use style="fill:#ff0000;stroke:#ff0000;" x="244.449156" xlink:href="#mb9e45e3f75" y="172.740622"/>
     <use style="fill:#ff0000;stroke:#ff0000;" x="244.449156" xlink:href="#mb9e45e3f75" y="172.740622"/>
    </g>
   </g>
   <g id="line2d_46">
    <path d="M 17.444571 298.944 
L 17.444571 298.370348 
L 41.620548 298.370348 
L 41.620548 297.796697 
L 44.617493 297.796697 
L 44.617493 297.223045 
L 54.245172 297.223045 
L 54.245172 296.649393 
L 58.030621 296.649393 
L 58.030621 296.075741 
L 59.654051 296.075741 
L 59.654051 295.50209 
L 60.779557 295.50209 
L 60.779557 294.928438 
L 63.467834 294.928438 
L 63.467834 294.354786 
L 66.853775 294.354786 
L 66.853775 293.781135 
L 68.091122 293.781135 
L 68.091122 293.207483 
L 68.79347 293.207483 
L 68.79347 292.633831 
L 72.125336 292.633831 
L 72.125336 292.060179 
L 73.752978 292.060179 
L 73.752978 291.486528 
L 77.609874 291.486528 
L 77.609874 290.912876 
L 78.154896 290.912876 
L 78.154896 290.339224 
L 78.81306 290.339224 
L 78.81306 289.765573 
L 80.298151 289.765573 
L 80.298151 289.191921 
L 80.766348 289.191921 
L 80.766348 288.618269 
L 81.109427 288.618269 
L 81.109427 288.044617 
L 84.495368 288.044617 
L 84.495368 287.470966 
L 84.772922 287.470966 
L 84.772922 286.897314 
L 85.403869 286.897314 
L 85.403869 286.323662 
L 85.840967 286.323662 
L 85.840967 285.75001 
L 89.697862 285.75001 
L 89.697862 285.176359 
L 95.57558 285.176359 
L 95.57558 284.602707 
L 96.014634 284.602707 
L 96.014634 284.029055 
L 97.134116 284.029055 
L 97.134116 283.455404 
L 97.447539 283.455404 
L 97.447539 282.881752 
L 99.097574 282.881752 
L 99.097574 282.3081 
L 99.886816 282.3081 
L 99.886816 281.734448 
L 100.230647 281.734448 
L 100.230647 281.160797 
L 107.213174 281.160797 
L 107.213174 280.587145 
L 108.054381 280.587145 
L 108.054381 280.013493 
L 108.41298 280.013493 
L 108.41298 279.439842 
L 110.295293 279.439842 
L 110.337724 277.718886 
L 111.104637 277.718886 
L 111.104637 277.145235 
L 111.24601 277.145235 
L 111.24601 276.571583 
L 112.821995 276.571583 
L 112.821995 275.997931 
L 113.04113 275.997931 
L 113.04113 275.42428 
L 114.585746 275.42428 
L 114.585746 274.850628 
L 114.996101 274.850628 
L 114.996101 274.276976 
L 118.175657 274.276976 
L 118.283474 273.129673 
L 121.377731 273.129673 
L 121.377731 272.556021 
L 121.985818 272.556021 
L 122.007536 271.408718 
L 123.039872 271.408718 
L 123.039872 270.835066 
L 124.891598 270.835066 
L 124.891598 270.261414 
L 125.381344 270.261414 
L 125.381344 269.687762 
L 125.97912 269.687762 
L 125.97912 269.114111 
L 126.615506 269.114111 
L 126.615506 268.540459 
L 127.237527 268.540459 
L 127.237527 267.966807 
L 128.426234 267.966807 
L 128.426234 267.393156 
L 128.635269 267.393156 
L 128.635269 266.819504 
L 133.33018 266.819504 
L 133.33018 266.245852 
L 133.443203 266.245852 
L 133.443203 265.6722 
L 133.644815 265.6722 
L 133.644815 265.098549 
L 133.772413 265.098549 
L 133.772413 264.524897 
L 133.975741 264.524897 
L 133.975741 263.951245 
L 135.260324 263.951245 
L 135.260324 263.377593 
L 136.61243 263.377593 
L 136.61243 262.803942 
L 137.198951 262.803942 
L 137.198951 262.23029 
L 137.420076 262.23029 
L 137.420076 261.656638 
L 137.753193 261.656638 
L 137.753193 261.082987 
L 139.131474 261.082987 
L 139.131474 260.509335 
L 139.409734 260.509335 
L 139.409734 259.935683 
L 139.683624 259.935683 
L 139.683624 259.362031 
L 141.274729 259.362031 
L 141.335737 258.214728 
L 141.9793 258.214728 
L 141.9793 257.641076 
L 142.593291 257.641076 
L 142.593291 257.067425 
L 142.854645 257.067425 
L 142.854645 256.493773 
L 143.505633 256.493773 
L 143.505633 255.920121 
L 144.257856 255.920121 
L 144.257856 255.346469 
L 144.920733 255.346469 
L 144.920733 254.772818 
L 145.071748 254.772818 
L 145.071748 254.199166 
L 145.463466 254.199166 
L 145.463466 253.625514 
L 145.810583 253.625514 
L 145.810583 253.051863 
L 146.649302 253.051863 
L 146.702052 251.904559 
L 148.044783 251.904559 
L 148.044783 251.330907 
L 148.61331 251.330907 
L 148.61331 250.757256 
L 148.726232 250.757256 
L 148.726232 250.183604 
L 150.109668 250.183604 
L 150.124824 249.036301 
L 150.710054 249.036301 
L 150.710054 248.462649 
L 150.998554 248.462649 
L 150.998554 247.888997 
L 152.28962 247.888997 
L 152.28962 247.315345 
L 152.716371 247.315345 
L 152.761083 246.168042 
L 152.857566 246.168042 
L 152.857566 245.59439 
L 153.377091 245.59439 
L 153.382479 244.447087 
L 153.766048 244.447087 
L 153.766048 243.873435 
L 153.893796 243.873435 
L 153.893796 243.299783 
L 154.108671 243.299783 
L 154.108671 242.726132 
L 154.363413 242.726132 
L 154.363413 242.15248 
L 155.017994 242.15248 
L 155.017994 241.578828 
L 155.618909 241.578828 
L 155.618909 241.005176 
L 156.021696 241.005176 
L 156.021696 240.431525 
L 156.724958 240.431525 
L 156.724958 239.857873 
L 157.474947 239.857873 
L 157.474947 239.284221 
L 158.112063 239.284221 
L 158.112063 238.71057 
L 158.360802 238.71057 
L 158.360802 238.136918 
L 158.76896 238.136918 
L 158.76896 237.563266 
L 159.127792 237.563266 
L 159.166494 236.415963 
L 159.862466 236.415963 
L 159.926735 235.268659 
L 160.547209 235.268659 
L 160.547209 234.695008 
L 161.201492 234.695008 
L 161.306672 233.547704 
L 161.731177 233.547704 
L 161.763407 232.400401 
L 162.597027 232.400401 
L 162.659368 231.253097 
L 162.933547 231.253097 
L 162.933547 230.679446 
L 164.075852 230.679446 
L 164.075852 230.105794 
L 164.274077 230.105794 
L 164.274077 229.532142 
L 165.378658 229.532142 
L 165.378658 228.95849 
L 165.649984 228.95849 
L 165.649984 228.384839 
L 165.936393 228.384839 
L 165.960849 227.237535 
L 166.294551 227.237535 
L 166.294551 226.663884 
L 166.549566 226.663884 
L 166.604331 224.942928 
L 167.320442 224.942928 
L 167.320442 224.369277 
L 167.599964 224.369277 
L 167.599964 223.795625 
L 167.973343 223.795625 
L 167.973343 223.221973 
L 168.38453 223.221973 
L 168.38453 222.648321 
L 169.071169 222.648321 
L 169.071169 222.07467 
L 169.247725 222.07467 
L 169.247725 221.501018 
L 170.258818 221.501018 
L 170.322146 219.780063 
L 170.660731 219.780063 
L 170.752486 218.632759 
L 171.570542 218.632759 
L 171.570542 218.059108 
L 172.160917 218.059108 
L 172.160917 217.485456 
L 173.209025 217.485456 
L 173.316408 216.338153 
L 173.362717 216.338153 
L 173.362717 215.764501 
L 173.474834 215.764501 
L 173.474834 215.190849 
L 174.513219 215.190849 
L 174.513219 214.617197 
L 174.798437 214.617197 
L 174.798437 214.043546 
L 175.440098 214.043546 
L 175.525544 212.896242 
L 175.629134 212.896242 
L 175.653684 211.748939 
L 175.956448 211.748939 
L 175.956448 211.175287 
L 176.126847 211.175287 
L 176.126847 210.601635 
L 176.570418 210.601635 
L 176.570418 210.027984 
L 176.781943 210.027984 
L 176.819915 208.88068 
L 176.906799 208.88068 
L 176.906799 208.307029 
L 177.744635 208.307029 
L 177.744635 207.733377 
L 178.504562 207.733377 
L 178.504562 207.159725 
L 178.697366 207.159725 
L 178.697366 206.586073 
L 178.817212 206.586073 
L 178.817212 206.012422 
L 179.214393 206.012422 
L 179.218066 204.865118 
L 179.460429 204.865118 
L 179.569963 202.570511 
L 179.839052 202.570511 
L 179.839052 201.99686 
L 180.278125 201.99686 
L 180.278125 201.423208 
L 180.551715 201.423208 
L 180.551715 200.849556 
L 181.779307 200.849556 
L 181.864374 199.702253 
L 184.048964 199.702253 
L 184.048964 199.128601 
L 185.116657 199.128601 
L 185.116657 198.554949 
L 185.33039 198.554949 
L 185.33039 197.981298 
L 186.438496 197.981298 
L 186.438496 197.407646 
L 186.721589 197.407646 
L 186.779618 196.260342 
L 187.005383 196.260342 
L 187.005383 195.686691 
L 187.278465 195.686691 
L 187.308516 193.392084 
L 187.969731 193.392084 
L 188.006754 192.24478 
L 188.361856 192.24478 
L 188.419259 191.097477 
L 189.614321 191.097477 
L 189.649361 189.950174 
L 189.826405 189.950174 
L 189.826405 189.376522 
L 190.137263 189.376522 
L 190.137263 188.80287 
L 190.254913 188.80287 
L 190.254913 188.229218 
L 192.066102 188.229218 
L 192.066102 187.655567 
L 192.885225 187.655567 
L 192.885225 187.081915 
L 193.346724 187.081915 
L 193.346724 186.508263 
L 193.956745 186.508263 
L 193.956745 185.934612 
L 195.397246 185.934612 
L 195.397246 185.36096 
L 196.751096 185.36096 
L 196.751096 184.787308 
L 197.126775 184.787308 
L 197.126775 184.213656 
L 198.018487 184.213656 
L 198.018487 183.640005 
L 198.720303 183.640005 
L 198.720303 183.066353 
L 199.822275 183.066353 
L 199.822275 182.492701 
L 200.131441 182.492701 
L 200.131441 181.91905 
L 200.249387 181.91905 
L 200.249387 181.345398 
L 202.350594 181.345398 
L 202.350594 180.771746 
L 202.538275 180.771746 
L 202.538275 180.198094 
L 204.081462 180.198094 
L 204.081462 179.624443 
L 205.171983 179.624443 
L 205.171983 179.050791 
L 206.110429 179.050791 
L 206.110429 178.477139 
L 208.403154 178.477139 
L 208.403154 177.903487 
L 208.606144 177.903487 
L 208.606144 176.756184 
L 209.260084 176.756184 
L 209.260084 176.182532 
L 209.440704 176.182532 
L 209.440704 175.608881 
L 209.752905 175.608881 
L 209.81917 174.461577 
L 212.569513 174.461577 
L 212.569513 173.887925 
L 217.747472 173.887925 
L 217.747472 173.314274 
L 244.449156 173.314274 
L 244.449156 172.740622 
L 338.688 172.740622 
L 338.688 172.740622 
" style="fill:none;stroke:#ff0000;stroke-linecap:square;stroke-width:1.5;"/>
   </g>
   <g id="line2d_47">
    <defs>
     <path d="M 0 -6 
L -5.196152 -3 
L -5.196152 3 
L -0 6 
L 5.196152 3 
L 5.196152 -3 
z
" id="m6371779c9a" style="stroke:#ff0000;stroke-linejoin:miter;stroke-width:1.5;"/>
    </defs>
    <g>
     <use style="fill-opacity:0;stroke:#ff0000;stroke-linejoin:miter;stroke-width:1.5;" x="100.230647" xlink:href="#m6371779c9a" y="281.734448"/>
     <use style="fill-opacity:0;stroke:#ff0000;stroke-linejoin:miter;stroke-width:1.5;" x="161.201492" xlink:href="#m6371779c9a" y="234.121356"/>
     <use style="fill-opacity:0;stroke:#ff0000;stroke-linejoin:miter;stroke-width:1.5;" x="200.249387" xlink:href="#m6371779c9a" y="181.345398"/>
     <use style="fill-opacity:0;stroke:#ff0000;stroke-linejoin:miter;stroke-width:1.5;" x="244.449156" xlink:href="#m6371779c9a" y="173.314274"/>
     <use style="fill-opacity:0;stroke:#ff0000;stroke-linejoin:miter;stroke-width:1.5;" x="244.449156" xlink:href="#m6371779c9a" y="172.740622"/>
     <use style="fill-opacity:0;stroke:#ff0000;stroke-linejoin:miter;stroke-width:1.5;" x="338.688" xlink:href="#m6371779c9a" y="172.740622"/>
    </g>
   </g>
   <g id="line2d_48">
    <path style="fill:none;stroke:#ff0000;stroke-linecap:square;stroke-width:1.5;"/>
    <g/>
   </g>
   <g id="line2d_49">
    <path clip-path="url(#pc4d37e6fbc)" d="M 181.957749 199.702253 
" style="fill:none;stroke:#ff0000;stroke-linecap:square;stroke-width:1.5;"/>
    <defs>
     <path d="M -12 12 
L 12 -12 
M -12 -12 
L 12 12 
" id="mdd08dccd57" style="stroke:#ff0000;"/>
    </defs>
    <g clip-path="url(#pc4d37e6fbc)">
     <use style="fill:#ff0000;stroke:#ff0000;" x="181.957749" xlink:href="#mdd08dccd57" y="199.702253"/>
    </g>
   </g>
   <g id="line2d_50">
    <path d="M 338.688 298.944 
L 369.60768 293.092752 
" style="fill:none;stroke:#ff00ff;stroke-linecap:square;stroke-width:1.5;"/>
    <g>
     <use style="fill-opacity:0;stroke:#ff00ff;stroke-linejoin:miter;stroke-width:1.5;" x="338.688" xlink:href="#ma9cb0ead0c" y="298.944"/>
     <use style="fill-opacity:0;stroke:#ff00ff;stroke-linejoin:miter;stroke-width:1.5;" x="369.60768" xlink:href="#ma9cb0ead0c" y="293.092752"/>
    </g>
   </g>
   <g id="line2d_51">
    <path d="M 338.688 298.944 
L 369.60768 222.877782 
" style="fill:none;stroke:#000080;stroke-linecap:square;stroke-width:1.5;"/>
    <g>
     <use style="fill-opacity:0;stroke:#000080;stroke-width:1.5;" x="338.688" xlink:href="#m7e5958c8f1" y="298.944"/>
     <use style="fill-opacity:0;stroke:#000080;stroke-width:1.5;" x="369.60768" xlink:href="#m7e5958c8f1" y="222.877782"/>
    </g>
   </g>
   <g id="line2d_52">
    <path d="M 338.688 224.369277 
L 369.60768 152.662812 
" style="fill:none;stroke:#6495ed;stroke-linecap:square;stroke-width:1.5;"/>
    <g>
     <use style="fill-opacity:0;stroke:#6495ed;stroke-linejoin:miter;stroke-width:1.5;" x="338.688" xlink:href="#mdb28604827" y="224.369277"/>
     <use style="fill-opacity:0;stroke:#6495ed;stroke-linejoin:miter;stroke-width:1.5;" x="369.60768" xlink:href="#mdb28604827" y="152.662812"/>
    </g>
   </g>
   <g id="line2d_53">
    <path d="M 338.688 218.632759 
L 369.60768 82.447842 
" style="fill:none;stroke:#ff7500;stroke-linecap:square;stroke-width:1.5;"/>
    <g>
     <use style="fill-opacity:0;stroke:#ff7500;stroke-linejoin:bevel;stroke-width:1.5;" x="338.688" xlink:href="#m8d59dcd86d" y="218.632759"/>
     <use style="fill-opacity:0;stroke:#ff7500;stroke-linejoin:bevel;stroke-width:1.5;" x="369.60768" xlink:href="#m8d59dcd86d" y="82.447842"/>
    </g>
   </g>
   <g id="line2d_54">
    <path d="M 338.688 172.740622 
L 369.60768 12.232871 
" style="fill:none;stroke:#ff0000;stroke-linecap:square;stroke-width:1.5;"/>
    <g>
     <use style="fill-opacity:0;stroke:#ff0000;stroke-linejoin:miter;stroke-width:1.5;" x="338.688" xlink:href="#m6371779c9a" y="172.740622"/>
     <use style="fill-opacity:0;stroke:#ff0000;stroke-linejoin:miter;stroke-width:1.5;" x="369.60768" xlink:href="#m6371779c9a" y="12.232871"/>
    </g>
   </g>
   <g id="line2d_55">
    <path d="M 338.688 298.944 
L 338.688 6.381624 
" style="fill:none;stroke:#000000;stroke-linecap:square;stroke-width:1.5;"/>
   </g>
   <g id="patch_3">
    <path d="M 57.6 298.944 
L 57.6 3.456 
" style="fill:none;stroke:#000000;stroke-linecap:square;stroke-linejoin:miter;stroke-width:0.8;"/>
   </g>
   <g id="patch_4">
    <path d="M 338.688 298.944 
L 338.688 3.456 
" style="fill:none;stroke:#000000;stroke-linecap:square;stroke-linejoin:miter;stroke-width:0.8;"/>
   </g>
   <g id="patch_5">
    <path d="M 57.6 298.944 
L 338.688 298.944 
" style="fill:none;stroke:#000000;stroke-linecap:square;stroke-linejoin:miter;stroke-width:0.8;"/>
   </g>
   <g id="patch_6">
    <path d="M 57.6 3.456 
L 338.688 3.456 
" style="fill:none;stroke:#000000;stroke-linecap:square;stroke-linejoin:miter;stroke-width:0.8;"/>
   </g>
   <g id="text_13">
    <!-- f11 -->
    <g transform="translate(375.22944 297.78369)scale(0.17 -0.17)">
     <use xlink:href="#DejaVuSans-66"/>
     <use x="35.205078" xlink:href="#DejaVuSans-31"/>
     <use x="98.828125" xlink:href="#DejaVuSans-31"/>
    </g>
   </g>
   <g id="text_14">
    <!-- f10 -->
    <g transform="translate(375.22944 227.56872)scale(0.17 -0.17)">
     <use xlink:href="#DejaVuSans-66"/>
     <use x="35.205078" xlink:href="#DejaVuSans-31"/>
     <use x="98.828125" xlink:href="#DejaVuSans-30"/>
    </g>
   </g>
   <g id="text_15">
    <!-- f13 -->
    <g transform="translate(375.22944 157.353749)scale(0.17 -0.17)">
     <defs>
      <path d="M 2597 2516 
Q 3050 2419 3304 2112 
Q 3559 1806 3559 1356 
Q 3559 666 3084 287 
Q 2609 -91 1734 -91 
Q 1441 -91 1130 -33 
Q 819 25 488 141 
L 488 750 
Q 750 597 1062 519 
Q 1375 441 1716 441 
Q 2309 441 2620 675 
Q 2931 909 2931 1356 
Q 2931 1769 2642 2001 
Q 2353 2234 1838 2234 
L 1294 2234 
L 1294 2753 
L 1863 2753 
Q 2328 2753 2575 2939 
Q 2822 3125 2822 3475 
Q 2822 3834 2567 4026 
Q 2313 4219 1838 4219 
Q 1578 4219 1281 4162 
Q 984 4106 628 3988 
L 628 4550 
Q 988 4650 1302 4700 
Q 1616 4750 1894 4750 
Q 2613 4750 3031 4423 
Q 3450 4097 3450 3541 
Q 3450 3153 3228 2886 
Q 3006 2619 2597 2516 
z
" id="DejaVuSans-33" transform="scale(0.015625)"/>
     </defs>
     <use xlink:href="#DejaVuSans-66"/>
     <use x="35.205078" xlink:href="#DejaVuSans-31"/>
     <use x="98.828125" xlink:href="#DejaVuSans-33"/>
    </g>
   </g>
   <g id="text_16">
    <!-- f12 -->
    <g transform="translate(375.22944 87.138779)scale(0.17 -0.17)">
     <use xlink:href="#DejaVuSans-66"/>
     <use x="35.205078" xlink:href="#DejaVuSans-31"/>
     <use x="98.828125" xlink:href="#DejaVuSans-32"/>
    </g>
   </g>
   <g id="text_17">
    <!-- f14 -->
    <g transform="translate(375.22944 16.923809)scale(0.17 -0.17)">
     <use xlink:href="#DejaVuSans-66"/>
     <use x="35.205078" xlink:href="#DejaVuSans-31"/>
     <use x="98.828125" xlink:href="#DejaVuSans-34"/>
    </g>
   </g>
   <g id="text_18">
    <!-- bbob -->
    <g transform="translate(60.41088 14.161286)scale(0.102 -0.102)">
     <defs>
      <path d="M 3116 1747 
Q 3116 2381 2855 2742 
Q 2594 3103 2138 3103 
Q 1681 3103 1420 2742 
Q 1159 2381 1159 1747 
Q 1159 1113 1420 752 
Q 1681 391 2138 391 
Q 2594 391 2855 752 
Q 3116 1113 3116 1747 
z
M 1159 2969 
Q 1341 3281 1617 3432 
Q 1894 3584 2278 3584 
Q 2916 3584 3314 3078 
Q 3713 2572 3713 1747 
Q 3713 922 3314 415 
Q 2916 -91 2278 -91 
Q 1894 -91 1617 61 
Q 1341 213 1159 525 
L 1159 0 
L 581 0 
L 581 4863 
L 1159 4863 
L 1159 2969 
z
" id="DejaVuSans-62" transform="scale(0.015625)"/>
     </defs>
     <use xlink:href="#DejaVuSans-62"/>
     <use x="63.476562" xlink:href="#DejaVuSans-62"/>
     <use x="126.953125" xlink:href="#DejaVuSans-6f"/>
     <use x="188.134766" xlink:href="#DejaVuSans-62"/>
    </g>
    <!-- Ill-conditioned functions, 40-D -->
    <g transform="translate(60.41088 25.583055)scale(0.102 -0.102)">
     <defs>
      <path d="M 628 4666 
L 1259 4666 
L 1259 0 
L 628 0 
L 628 4666 
z
" id="DejaVuSans-49" transform="scale(0.015625)"/>
      <path d="M 1259 4147 
L 1259 519 
L 2022 519 
Q 2988 519 3436 956 
Q 3884 1394 3884 2338 
Q 3884 3275 3436 3711 
Q 2988 4147 2022 4147 
L 1259 4147 
z
M 628 4666 
L 1925 4666 
Q 3281 4666 3915 4102 
Q 4550 3538 4550 2338 
Q 4550 1131 3912 565 
Q 3275 0 1925 0 
L 628 0 
L 628 4666 
z
" id="DejaVuSans-44" transform="scale(0.015625)"/>
     </defs>
     <use xlink:href="#DejaVuSans-49"/>
     <use x="29.492188" xlink:href="#DejaVuSans-6c"/>
     <use x="57.275391" xlink:href="#DejaVuSans-6c"/>
     <use x="85.058594" xlink:href="#DejaVuSans-2d"/>
     <use x="121.142578" xlink:href="#DejaVuSans-63"/>
     <use x="176.123047" xlink:href="#DejaVuSans-6f"/>
     <use x="237.304688" xlink:href="#DejaVuSans-6e"/>
     <use x="300.683594" xlink:href="#DejaVuSans-64"/>
     <use x="364.160156" xlink:href="#DejaVuSans-69"/>
     <use x="391.943359" xlink:href="#DejaVuSans-74"/>
     <use x="431.152344" xlink:href="#DejaVuSans-69"/>
     <use x="458.935547" xlink:href="#DejaVuSans-6f"/>
     <use x="520.117188" xlink:href="#DejaVuSans-6e"/>
     <use x="583.496094" xlink:href="#DejaVuSans-65"/>
     <use x="645.019531" xlink:href="#DejaVuSans-64"/>
     <use x="708.496094" xlink:href="#DejaVuSans-20"/>
     <use x="740.283203" xlink:href="#DejaVuSans-66"/>
     <use x="775.488281" xlink:href="#DejaVuSans-75"/>
     <use x="838.867188" xlink:href="#DejaVuSans-6e"/>
     <use x="902.246094" xlink:href="#DejaVuSans-63"/>
     <use x="957.226562" xlink:href="#DejaVuSans-74"/>
     <use x="996.435547" xlink:href="#DejaVuSans-69"/>
     <use x="1024.21875" xlink:href="#DejaVuSans-6f"/>
     <use x="1085.400391" xlink:href="#DejaVuSans-6e"/>
     <use x="1148.779297" xlink:href="#DejaVuSans-73"/>
     <use x="1200.878906" xlink:href="#DejaVuSans-2c"/>
     <use x="1232.666016" xlink:href="#DejaVuSans-20"/>
     <use x="1264.453125" xlink:href="#DejaVuSans-34"/>
     <use x="1328.076172" xlink:href="#DejaVuSans-30"/>
     <use x="1391.699219" xlink:href="#DejaVuSans-2d"/>
     <use x="1427.783203" xlink:href="#DejaVuSans-44"/>
    </g>
    <!-- 51 targets: 100..1e-08 -->
    <g transform="translate(60.41088 37.004824)scale(0.102 -0.102)">
     <defs>
      <path d="M 691 4666 
L 3169 4666 
L 3169 4134 
L 1269 4134 
L 1269 2991 
Q 1406 3038 1543 3061 
Q 1681 3084 1819 3084 
Q 2600 3084 3056 2656 
Q 3513 2228 3513 1497 
Q 3513 744 3044 326 
Q 2575 -91 1722 -91 
Q 1428 -91 1123 -41 
Q 819 9 494 109 
L 494 744 
Q 775 591 1075 516 
Q 1375 441 1709 441 
Q 2250 441 2565 725 
Q 2881 1009 2881 1497 
Q 2881 1984 2565 2268 
Q 2250 2553 1709 2553 
Q 1456 2553 1204 2497 
Q 953 2441 691 2322 
L 691 4666 
z
" id="DejaVuSans-35" transform="scale(0.015625)"/>
      <path d="M 750 794 
L 1409 794 
L 1409 0 
L 750 0 
L 750 794 
z
M 750 3309 
L 1409 3309 
L 1409 2516 
L 750 2516 
L 750 3309 
z
" id="DejaVuSans-3a" transform="scale(0.015625)"/>
     </defs>
     <use xlink:href="#DejaVuSans-35"/>
     <use x="63.623047" xlink:href="#DejaVuSans-31"/>
     <use x="127.246094" xlink:href="#DejaVuSans-20"/>
     <use x="159.033203" xlink:href="#DejaVuSans-74"/>
     <use x="198.242188" xlink:href="#DejaVuSans-61"/>
     <use x="259.521484" xlink:href="#DejaVuSans-72"/>
     <use x="298.884766" xlink:href="#DejaVuSans-67"/>
     <use x="362.361328" xlink:href="#DejaVuSans-65"/>
     <use x="423.884766" xlink:href="#DejaVuSans-74"/>
     <use x="463.09375" xlink:href="#DejaVuSans-73"/>
     <use x="515.193359" xlink:href="#DejaVuSans-3a"/>
     <use x="548.884766" xlink:href="#DejaVuSans-20"/>
     <use x="580.671875" xlink:href="#DejaVuSans-31"/>
     <use x="644.294922" xlink:href="#DejaVuSans-30"/>
     <use x="707.917969" xlink:href="#DejaVuSans-30"/>
     <use x="771.541016" xlink:href="#DejaVuSans-2e"/>
     <use x="803.328125" xlink:href="#DejaVuSans-2e"/>
     <use x="835.115234" xlink:href="#DejaVuSans-31"/>
     <use x="898.738281" xlink:href="#DejaVuSans-65"/>
     <use x="960.261719" xlink:href="#DejaVuSans-2d"/>
     <use x="996.345703" xlink:href="#DejaVuSans-30"/>
     <use x="1059.96875" xlink:href="#DejaVuSans-38"/>
    </g>
    <!-- 15 instances -->
    <g transform="translate(60.41088 48.426593)scale(0.102 -0.102)">
     <use xlink:href="#DejaVuSans-31"/>
     <use x="63.623047" xlink:href="#DejaVuSans-35"/>
     <use x="127.246094" xlink:href="#DejaVuSans-20"/>
     <use x="159.033203" xlink:href="#DejaVuSans-69"/>
     <use x="186.816406" xlink:href="#DejaVuSans-6e"/>
     <use x="250.195312" xlink:href="#DejaVuSans-73"/>
     <use x="302.294922" xlink:href="#DejaVuSans-74"/>
     <use x="341.503906" xlink:href="#DejaVuSans-61"/>
     <use x="402.783203" xlink:href="#DejaVuSans-6e"/>
     <use x="466.162109" xlink:href="#DejaVuSans-63"/>
     <use x="521.142578" xlink:href="#DejaVuSans-65"/>
     <use x="582.666016" xlink:href="#DejaVuSans-73"/>
    </g>
   </g>
   <g id="text_19">
    <!-- v2.4 -->
    <g style="fill:#808080;" transform="translate(187.233062 293.909432)scale(0.1 -0.1)">
     <use xlink:href="#DejaVuSans-76"/>
     <use x="59.179688" xlink:href="#DejaVuSans-32"/>
     <use x="122.802734" xlink:href="#DejaVuSans-2e"/>
     <use x="154.589844" xlink:href="#DejaVuSans-34"/>
    </g>
   </g>
  </g>
 </g>
 <defs>
  <clipPath id="pc4d37e6fbc">
   <rect height="295.488" width="281.088" x="57.6" y="3.456"/>
  </clipPath>
 </defs>
</svg>
