<?xml version="1.0" encoding="utf-8" standalone="no"?>
<!DOCTYPE svg PUBLIC "-//W3C//DTD SVG 1.1//EN"
  "http://www.w3.org/Graphics/SVG/1.1/DTD/svg11.dtd">
<svg height="345.6pt" version="1.1" viewBox="0 0 460.8 345.6" width="460.8pt" xmlns="http://www.w3.org/2000/svg" xmlns:xlink="http://www.w3.org/1999/xlink">
 <metadata>
  <rdf:RDF xmlns:cc="http://creativecommons.org/ns#" xmlns:dc="http://purl.org/dc/elements/1.1/" xmlns:rdf="http://www.w3.org/1999/02/22-rdf-syntax-ns#">
   <cc:Work>
    <dc:type rdf:resource="http://purl.org/dc/dcmitype/StillImage"/>
    <dc:date>2021-04-26T18:50:24.235626</dc:date>
    <dc:format>image/svg+xml</dc:format>
    <dc:creator>
     <cc:Agent>
      <dc:title>Matplotlib v3.4.1, https://matplotlib.org/</dc:title>
     </cc:Agent>
    </dc:creator>
   </cc:Work>
  </rdf:RDF>
 </metadata>
 <defs>
  <style type="text/css">*{stroke-linecap:butt;stroke-linejoin:round;}</style>
 </defs>
 <g id="figure_1">
  <g id="patch_1">
   <path d="M 0 345.6 
L 460.8 345.6 
L 460.8 0 
L 0 0 
z
" style="fill:#ffffff;"/>
  </g>
  <g id="axes_1">
   <g id="patch_2">
    <path d="M 57.6 298.944 
L 338.688 298.944 
L 338.688 27.648 
L 57.6 27.648 
z
" style="fill:#ffffff;"/>
   </g>
   <g id="matplotlib.axis_1">
    <g id="xtick_1">
     <g id="line2d_1">
      <path clip-path="url(#pe52ba58c8d)" d="M 57.6 298.944 
L 57.6 27.648 
" style="fill:none;stroke:#b0b0b0;stroke-linecap:square;stroke-width:0.8;"/>
     </g>
     <g id="line2d_2">
      <defs>
       <path d="M 0 0 
L 0 3.5 
" id="m2be8d8313d" style="stroke:#000000;stroke-width:0.8;"/>
      </defs>
      <g>
       <use style="stroke:#000000;stroke-width:0.8;" x="57.6" xlink:href="#m2be8d8313d" y="298.944"/>
      </g>
     </g>
     <g id="text_1">
      <!-- 0 -->
      <g transform="translate(51.2375 321.140875)scale(0.2 -0.2)">
       <defs>
        <path d="M 2034 4250 
Q 1547 4250 1301 3770 
Q 1056 3291 1056 2328 
Q 1056 1369 1301 889 
Q 1547 409 2034 409 
Q 2525 409 2770 889 
Q 3016 1369 3016 2328 
Q 3016 3291 2770 3770 
Q 2525 4250 2034 4250 
z
M 2034 4750 
Q 2819 4750 3233 4129 
Q 3647 3509 3647 2328 
Q 3647 1150 3233 529 
Q 2819 -91 2034 -91 
Q 1250 -91 836 529 
Q 422 1150 422 2328 
Q 422 3509 836 4129 
Q 1250 4750 2034 4750 
z
" id="DejaVuSans-30" transform="scale(0.015625)"/>
       </defs>
       <use xlink:href="#DejaVuSans-30"/>
      </g>
     </g>
    </g>
    <g id="xtick_2">
     <g id="line2d_3">
      <path clip-path="url(#pe52ba58c8d)" d="M 137.910857 298.944 
L 137.910857 27.648 
" style="fill:none;stroke:#b0b0b0;stroke-linecap:square;stroke-width:0.8;"/>
     </g>
     <g id="line2d_4">
      <g>
       <use style="stroke:#000000;stroke-width:0.8;" x="137.910857" xlink:href="#m2be8d8313d" y="298.944"/>
      </g>
     </g>
     <g id="text_2">
      <!-- 2 -->
      <g transform="translate(131.548357 321.140875)scale(0.2 -0.2)">
       <defs>
        <path d="M 1228 531 
L 3431 531 
L 3431 0 
L 469 0 
L 469 531 
Q 828 903 1448 1529 
Q 2069 2156 2228 2338 
Q 2531 2678 2651 2914 
Q 2772 3150 2772 3378 
Q 2772 3750 2511 3984 
Q 2250 4219 1831 4219 
Q 1534 4219 1204 4116 
Q 875 4013 500 3803 
L 500 4441 
Q 881 4594 1212 4672 
Q 1544 4750 1819 4750 
Q 2544 4750 2975 4387 
Q 3406 4025 3406 3419 
Q 3406 3131 3298 2873 
Q 3191 2616 2906 2266 
Q 2828 2175 2409 1742 
Q 1991 1309 1228 531 
z
" id="DejaVuSans-32" transform="scale(0.015625)"/>
       </defs>
       <use xlink:href="#DejaVuSans-32"/>
      </g>
     </g>
    </g>
    <g id="xtick_3">
     <g id="line2d_5">
      <path clip-path="url(#pe52ba58c8d)" d="M 218.221714 298.944 
L 218.221714 27.648 
" style="fill:none;stroke:#b0b0b0;stroke-linecap:square;stroke-width:0.8;"/>
     </g>
     <g id="line2d_6">
      <g>
       <use style="stroke:#000000;stroke-width:0.8;" x="218.221714" xlink:href="#m2be8d8313d" y="298.944"/>
      </g>
     </g>
     <g id="text_3">
      <!-- 4 -->
      <g transform="translate(211.859214 321.140875)scale(0.2 -0.2)">
       <defs>
        <path d="M 2419 4116 
L 825 1625 
L 2419 1625 
L 2419 4116 
z
M 2253 4666 
L 3047 4666 
L 3047 1625 
L 3713 1625 
L 3713 1100 
L 3047 1100 
L 3047 0 
L 2419 0 
L 2419 1100 
L 313 1100 
L 313 1709 
L 2253 4666 
z
" id="DejaVuSans-34" transform="scale(0.015625)"/>
       </defs>
       <use xlink:href="#DejaVuSans-34"/>
      </g>
     </g>
    </g>
    <g id="xtick_4">
     <g id="line2d_7">
      <path clip-path="url(#pe52ba58c8d)" d="M 298.532571 298.944 
L 298.532571 27.648 
" style="fill:none;stroke:#b0b0b0;stroke-linecap:square;stroke-width:0.8;"/>
     </g>
     <g id="line2d_8">
      <g>
       <use style="stroke:#000000;stroke-width:0.8;" x="298.532571" xlink:href="#m2be8d8313d" y="298.944"/>
      </g>
     </g>
     <g id="text_4">
      <!-- 6 -->
      <g transform="translate(292.170071 321.140875)scale(0.2 -0.2)">
       <defs>
        <path d="M 2113 2584 
Q 1688 2584 1439 2293 
Q 1191 2003 1191 1497 
Q 1191 994 1439 701 
Q 1688 409 2113 409 
Q 2538 409 2786 701 
Q 3034 994 3034 1497 
Q 3034 2003 2786 2293 
Q 2538 2584 2113 2584 
z
M 3366 4563 
L 3366 3988 
Q 3128 4100 2886 4159 
Q 2644 4219 2406 4219 
Q 1781 4219 1451 3797 
Q 1122 3375 1075 2522 
Q 1259 2794 1537 2939 
Q 1816 3084 2150 3084 
Q 2853 3084 3261 2657 
Q 3669 2231 3669 1497 
Q 3669 778 3244 343 
Q 2819 -91 2113 -91 
Q 1303 -91 875 529 
Q 447 1150 447 2328 
Q 447 3434 972 4092 
Q 1497 4750 2381 4750 
Q 2619 4750 2861 4703 
Q 3103 4656 3366 4563 
z
" id="DejaVuSans-36" transform="scale(0.015625)"/>
       </defs>
       <use xlink:href="#DejaVuSans-36"/>
      </g>
     </g>
    </g>
    <g id="xtick_5">
     <g id="line2d_9">
      <path clip-path="url(#pe52ba58c8d)" d="M 97.755429 298.944 
L 97.755429 27.648 
" style="fill:none;stroke:#b0b0b0;stroke-linecap:square;stroke-width:0.8;"/>
     </g>
     <g id="line2d_10">
      <defs>
       <path d="M 0 0 
L 0 2 
" id="m3a3abd6cda" style="stroke:#000000;stroke-width:0.6;"/>
      </defs>
      <g>
       <use style="stroke:#000000;stroke-width:0.6;" x="97.755429" xlink:href="#m3a3abd6cda" y="298.944"/>
      </g>
     </g>
    </g>
    <g id="xtick_6">
     <g id="line2d_11">
      <path clip-path="url(#pe52ba58c8d)" d="M 178.066286 298.944 
L 178.066286 27.648 
" style="fill:none;stroke:#b0b0b0;stroke-linecap:square;stroke-width:0.8;"/>
     </g>
     <g id="line2d_12">
      <g>
       <use style="stroke:#000000;stroke-width:0.6;" x="178.066286" xlink:href="#m3a3abd6cda" y="298.944"/>
      </g>
     </g>
    </g>
    <g id="xtick_7">
     <g id="line2d_13">
      <path clip-path="url(#pe52ba58c8d)" d="M 258.377143 298.944 
L 258.377143 27.648 
" style="fill:none;stroke:#b0b0b0;stroke-linecap:square;stroke-width:0.8;"/>
     </g>
     <g id="line2d_14">
      <g>
       <use style="stroke:#000000;stroke-width:0.6;" x="258.377143" xlink:href="#m3a3abd6cda" y="298.944"/>
      </g>
     </g>
    </g>
    <g id="xtick_8">
     <g id="line2d_15">
      <path clip-path="url(#pe52ba58c8d)" d="M 338.688 298.944 
L 338.688 27.648 
" style="fill:none;stroke:#b0b0b0;stroke-linecap:square;stroke-width:0.8;"/>
     </g>
     <g id="line2d_16">
      <g>
       <use style="stroke:#000000;stroke-width:0.6;" x="338.688" xlink:href="#m3a3abd6cda" y="298.944"/>
      </g>
     </g>
    </g>
    <g id="text_5">
     <!-- log10(# f-evals / dimension) -->
     <g transform="translate(77.764078 342.217594)scale(0.17 -0.17)">
      <defs>
       <path d="M 603 4863 
L 1178 4863 
L 1178 0 
L 603 0 
L 603 4863 
z
" id="DejaVuSans-6c" transform="scale(0.015625)"/>
       <path d="M 1959 3097 
Q 1497 3097 1228 2736 
Q 959 2375 959 1747 
Q 959 1119 1226 758 
Q 1494 397 1959 397 
Q 2419 397 2687 759 
Q 2956 1122 2956 1747 
Q 2956 2369 2687 2733 
Q 2419 3097 1959 3097 
z
M 1959 3584 
Q 2709 3584 3137 3096 
Q 3566 2609 3566 1747 
Q 3566 888 3137 398 
Q 2709 -91 1959 -91 
Q 1206 -91 779 398 
Q 353 888 353 1747 
Q 353 2609 779 3096 
Q 1206 3584 1959 3584 
z
" id="DejaVuSans-6f" transform="scale(0.015625)"/>
       <path d="M 2906 1791 
Q 2906 2416 2648 2759 
Q 2391 3103 1925 3103 
Q 1463 3103 1205 2759 
Q 947 2416 947 1791 
Q 947 1169 1205 825 
Q 1463 481 1925 481 
Q 2391 481 2648 825 
Q 2906 1169 2906 1791 
z
M 3481 434 
Q 3481 -459 3084 -895 
Q 2688 -1331 1869 -1331 
Q 1566 -1331 1297 -1286 
Q 1028 -1241 775 -1147 
L 775 -588 
Q 1028 -725 1275 -790 
Q 1522 -856 1778 -856 
Q 2344 -856 2625 -561 
Q 2906 -266 2906 331 
L 2906 616 
Q 2728 306 2450 153 
Q 2172 0 1784 0 
Q 1141 0 747 490 
Q 353 981 353 1791 
Q 353 2603 747 3093 
Q 1141 3584 1784 3584 
Q 2172 3584 2450 3431 
Q 2728 3278 2906 2969 
L 2906 3500 
L 3481 3500 
L 3481 434 
z
" id="DejaVuSans-67" transform="scale(0.015625)"/>
       <path d="M 794 531 
L 1825 531 
L 1825 4091 
L 703 3866 
L 703 4441 
L 1819 4666 
L 2450 4666 
L 2450 531 
L 3481 531 
L 3481 0 
L 794 0 
L 794 531 
z
" id="DejaVuSans-31" transform="scale(0.015625)"/>
       <path d="M 1984 4856 
Q 1566 4138 1362 3434 
Q 1159 2731 1159 2009 
Q 1159 1288 1364 580 
Q 1569 -128 1984 -844 
L 1484 -844 
Q 1016 -109 783 600 
Q 550 1309 550 2009 
Q 550 2706 781 3412 
Q 1013 4119 1484 4856 
L 1984 4856 
z
" id="DejaVuSans-28" transform="scale(0.015625)"/>
       <path d="M 3272 2816 
L 2363 2816 
L 2100 1772 
L 3016 1772 
L 3272 2816 
z
M 2803 4594 
L 2478 3297 
L 3391 3297 
L 3719 4594 
L 4219 4594 
L 3897 3297 
L 4872 3297 
L 4872 2816 
L 3775 2816 
L 3519 1772 
L 4513 1772 
L 4513 1294 
L 3397 1294 
L 3072 0 
L 2572 0 
L 2894 1294 
L 1978 1294 
L 1656 0 
L 1153 0 
L 1478 1294 
L 494 1294 
L 494 1772 
L 1594 1772 
L 1856 2816 
L 850 2816 
L 850 3297 
L 1978 3297 
L 2297 4594 
L 2803 4594 
z
" id="DejaVuSans-23" transform="scale(0.015625)"/>
       <path id="DejaVuSans-20" transform="scale(0.015625)"/>
       <path d="M 2375 4863 
L 2375 4384 
L 1825 4384 
Q 1516 4384 1395 4259 
Q 1275 4134 1275 3809 
L 1275 3500 
L 2222 3500 
L 2222 3053 
L 1275 3053 
L 1275 0 
L 697 0 
L 697 3053 
L 147 3053 
L 147 3500 
L 697 3500 
L 697 3744 
Q 697 4328 969 4595 
Q 1241 4863 1831 4863 
L 2375 4863 
z
" id="DejaVuSans-66" transform="scale(0.015625)"/>
       <path d="M 313 2009 
L 1997 2009 
L 1997 1497 
L 313 1497 
L 313 2009 
z
" id="DejaVuSans-2d" transform="scale(0.015625)"/>
       <path d="M 3597 1894 
L 3597 1613 
L 953 1613 
Q 991 1019 1311 708 
Q 1631 397 2203 397 
Q 2534 397 2845 478 
Q 3156 559 3463 722 
L 3463 178 
Q 3153 47 2828 -22 
Q 2503 -91 2169 -91 
Q 1331 -91 842 396 
Q 353 884 353 1716 
Q 353 2575 817 3079 
Q 1281 3584 2069 3584 
Q 2775 3584 3186 3129 
Q 3597 2675 3597 1894 
z
M 3022 2063 
Q 3016 2534 2758 2815 
Q 2500 3097 2075 3097 
Q 1594 3097 1305 2825 
Q 1016 2553 972 2059 
L 3022 2063 
z
" id="DejaVuSans-65" transform="scale(0.015625)"/>
       <path d="M 191 3500 
L 800 3500 
L 1894 563 
L 2988 3500 
L 3597 3500 
L 2284 0 
L 1503 0 
L 191 3500 
z
" id="DejaVuSans-76" transform="scale(0.015625)"/>
       <path d="M 2194 1759 
Q 1497 1759 1228 1600 
Q 959 1441 959 1056 
Q 959 750 1161 570 
Q 1363 391 1709 391 
Q 2188 391 2477 730 
Q 2766 1069 2766 1631 
L 2766 1759 
L 2194 1759 
z
M 3341 1997 
L 3341 0 
L 2766 0 
L 2766 531 
Q 2569 213 2275 61 
Q 1981 -91 1556 -91 
Q 1019 -91 701 211 
Q 384 513 384 1019 
Q 384 1609 779 1909 
Q 1175 2209 1959 2209 
L 2766 2209 
L 2766 2266 
Q 2766 2663 2505 2880 
Q 2244 3097 1772 3097 
Q 1472 3097 1187 3025 
Q 903 2953 641 2809 
L 641 3341 
Q 956 3463 1253 3523 
Q 1550 3584 1831 3584 
Q 2591 3584 2966 3190 
Q 3341 2797 3341 1997 
z
" id="DejaVuSans-61" transform="scale(0.015625)"/>
       <path d="M 2834 3397 
L 2834 2853 
Q 2591 2978 2328 3040 
Q 2066 3103 1784 3103 
Q 1356 3103 1142 2972 
Q 928 2841 928 2578 
Q 928 2378 1081 2264 
Q 1234 2150 1697 2047 
L 1894 2003 
Q 2506 1872 2764 1633 
Q 3022 1394 3022 966 
Q 3022 478 2636 193 
Q 2250 -91 1575 -91 
Q 1294 -91 989 -36 
Q 684 19 347 128 
L 347 722 
Q 666 556 975 473 
Q 1284 391 1588 391 
Q 1994 391 2212 530 
Q 2431 669 2431 922 
Q 2431 1156 2273 1281 
Q 2116 1406 1581 1522 
L 1381 1569 
Q 847 1681 609 1914 
Q 372 2147 372 2553 
Q 372 3047 722 3315 
Q 1072 3584 1716 3584 
Q 2034 3584 2315 3537 
Q 2597 3491 2834 3397 
z
" id="DejaVuSans-73" transform="scale(0.015625)"/>
       <path d="M 1625 4666 
L 2156 4666 
L 531 -594 
L 0 -594 
L 1625 4666 
z
" id="DejaVuSans-2f" transform="scale(0.015625)"/>
       <path d="M 2906 2969 
L 2906 4863 
L 3481 4863 
L 3481 0 
L 2906 0 
L 2906 525 
Q 2725 213 2448 61 
Q 2172 -91 1784 -91 
Q 1150 -91 751 415 
Q 353 922 353 1747 
Q 353 2572 751 3078 
Q 1150 3584 1784 3584 
Q 2172 3584 2448 3432 
Q 2725 3281 2906 2969 
z
M 947 1747 
Q 947 1113 1208 752 
Q 1469 391 1925 391 
Q 2381 391 2643 752 
Q 2906 1113 2906 1747 
Q 2906 2381 2643 2742 
Q 2381 3103 1925 3103 
Q 1469 3103 1208 2742 
Q 947 2381 947 1747 
z
" id="DejaVuSans-64" transform="scale(0.015625)"/>
       <path d="M 603 3500 
L 1178 3500 
L 1178 0 
L 603 0 
L 603 3500 
z
M 603 4863 
L 1178 4863 
L 1178 4134 
L 603 4134 
L 603 4863 
z
" id="DejaVuSans-69" transform="scale(0.015625)"/>
       <path d="M 3328 2828 
Q 3544 3216 3844 3400 
Q 4144 3584 4550 3584 
Q 5097 3584 5394 3201 
Q 5691 2819 5691 2113 
L 5691 0 
L 5113 0 
L 5113 2094 
Q 5113 2597 4934 2840 
Q 4756 3084 4391 3084 
Q 3944 3084 3684 2787 
Q 3425 2491 3425 1978 
L 3425 0 
L 2847 0 
L 2847 2094 
Q 2847 2600 2669 2842 
Q 2491 3084 2119 3084 
Q 1678 3084 1418 2786 
Q 1159 2488 1159 1978 
L 1159 0 
L 581 0 
L 581 3500 
L 1159 3500 
L 1159 2956 
Q 1356 3278 1631 3431 
Q 1906 3584 2284 3584 
Q 2666 3584 2933 3390 
Q 3200 3197 3328 2828 
z
" id="DejaVuSans-6d" transform="scale(0.015625)"/>
       <path d="M 3513 2113 
L 3513 0 
L 2938 0 
L 2938 2094 
Q 2938 2591 2744 2837 
Q 2550 3084 2163 3084 
Q 1697 3084 1428 2787 
Q 1159 2491 1159 1978 
L 1159 0 
L 581 0 
L 581 3500 
L 1159 3500 
L 1159 2956 
Q 1366 3272 1645 3428 
Q 1925 3584 2291 3584 
Q 2894 3584 3203 3211 
Q 3513 2838 3513 2113 
z
" id="DejaVuSans-6e" transform="scale(0.015625)"/>
       <path d="M 513 4856 
L 1013 4856 
Q 1481 4119 1714 3412 
Q 1947 2706 1947 2009 
Q 1947 1309 1714 600 
Q 1481 -109 1013 -844 
L 513 -844 
Q 928 -128 1133 580 
Q 1338 1288 1338 2009 
Q 1338 2731 1133 3434 
Q 928 4138 513 4856 
z
" id="DejaVuSans-29" transform="scale(0.015625)"/>
      </defs>
      <use xlink:href="#DejaVuSans-6c"/>
      <use x="27.783203" xlink:href="#DejaVuSans-6f"/>
      <use x="88.964844" xlink:href="#DejaVuSans-67"/>
      <use x="152.441406" xlink:href="#DejaVuSans-31"/>
      <use x="216.064453" xlink:href="#DejaVuSans-30"/>
      <use x="279.6875" xlink:href="#DejaVuSans-28"/>
      <use x="318.701172" xlink:href="#DejaVuSans-23"/>
      <use x="402.490234" xlink:href="#DejaVuSans-20"/>
      <use x="434.277344" xlink:href="#DejaVuSans-66"/>
      <use x="463.982422" xlink:href="#DejaVuSans-2d"/>
      <use x="500.066406" xlink:href="#DejaVuSans-65"/>
      <use x="561.589844" xlink:href="#DejaVuSans-76"/>
      <use x="620.769531" xlink:href="#DejaVuSans-61"/>
      <use x="682.048828" xlink:href="#DejaVuSans-6c"/>
      <use x="709.832031" xlink:href="#DejaVuSans-73"/>
      <use x="761.931641" xlink:href="#DejaVuSans-20"/>
      <use x="793.71875" xlink:href="#DejaVuSans-2f"/>
      <use x="827.410156" xlink:href="#DejaVuSans-20"/>
      <use x="859.197266" xlink:href="#DejaVuSans-64"/>
      <use x="922.673828" xlink:href="#DejaVuSans-69"/>
      <use x="950.457031" xlink:href="#DejaVuSans-6d"/>
      <use x="1047.869141" xlink:href="#DejaVuSans-65"/>
      <use x="1109.392578" xlink:href="#DejaVuSans-6e"/>
      <use x="1172.771484" xlink:href="#DejaVuSans-73"/>
      <use x="1224.871094" xlink:href="#DejaVuSans-69"/>
      <use x="1252.654297" xlink:href="#DejaVuSans-6f"/>
      <use x="1313.835938" xlink:href="#DejaVuSans-6e"/>
      <use x="1377.214844" xlink:href="#DejaVuSans-29"/>
     </g>
    </g>
   </g>
   <g id="matplotlib.axis_2">
    <g id="ytick_1">
     <g id="line2d_17">
      <path clip-path="url(#pe52ba58c8d)" d="M 57.6 298.944 
L 338.688 298.944 
" style="fill:none;stroke:#b0b0b0;stroke-linecap:square;stroke-width:0.8;"/>
     </g>
     <g id="line2d_18">
      <defs>
       <path d="M 0 0 
L -3.5 0 
" id="m27d3515f17" style="stroke:#000000;stroke-width:0.8;"/>
      </defs>
      <g>
       <use style="stroke:#000000;stroke-width:0.8;" x="57.6" xlink:href="#m27d3515f17" y="298.944"/>
      </g>
     </g>
     <g id="text_6">
      <!-- 0.0 -->
      <g transform="translate(25.155 305.02275)scale(0.16 -0.16)">
       <defs>
        <path d="M 684 794 
L 1344 794 
L 1344 0 
L 684 0 
L 684 794 
z
" id="DejaVuSans-2e" transform="scale(0.015625)"/>
       </defs>
       <use xlink:href="#DejaVuSans-30"/>
       <use x="63.623047" xlink:href="#DejaVuSans-2e"/>
       <use x="95.410156" xlink:href="#DejaVuSans-30"/>
      </g>
     </g>
    </g>
    <g id="ytick_2">
     <g id="line2d_19">
      <path clip-path="url(#pe52ba58c8d)" d="M 57.6 245.22202 
L 338.688 245.22202 
" style="fill:none;stroke:#b0b0b0;stroke-linecap:square;stroke-width:0.8;"/>
     </g>
     <g id="line2d_20">
      <g>
       <use style="stroke:#000000;stroke-width:0.8;" x="57.6" xlink:href="#m27d3515f17" y="245.22202"/>
      </g>
     </g>
     <g id="text_7">
      <!-- 0.2 -->
      <g transform="translate(25.155 251.30077)scale(0.16 -0.16)">
       <use xlink:href="#DejaVuSans-30"/>
       <use x="63.623047" xlink:href="#DejaVuSans-2e"/>
       <use x="95.410156" xlink:href="#DejaVuSans-32"/>
      </g>
     </g>
    </g>
    <g id="ytick_3">
     <g id="line2d_21">
      <path clip-path="url(#pe52ba58c8d)" d="M 57.6 191.50004 
L 338.688 191.50004 
" style="fill:none;stroke:#b0b0b0;stroke-linecap:square;stroke-width:0.8;"/>
     </g>
     <g id="line2d_22">
      <g>
       <use style="stroke:#000000;stroke-width:0.8;" x="57.6" xlink:href="#m27d3515f17" y="191.50004"/>
      </g>
     </g>
     <g id="text_8">
      <!-- 0.4 -->
      <g transform="translate(25.155 197.57879)scale(0.16 -0.16)">
       <use xlink:href="#DejaVuSans-30"/>
       <use x="63.623047" xlink:href="#DejaVuSans-2e"/>
       <use x="95.410156" xlink:href="#DejaVuSans-34"/>
      </g>
     </g>
    </g>
    <g id="ytick_4">
     <g id="line2d_23">
      <path clip-path="url(#pe52ba58c8d)" d="M 57.6 137.778059 
L 338.688 137.778059 
" style="fill:none;stroke:#b0b0b0;stroke-linecap:square;stroke-width:0.8;"/>
     </g>
     <g id="line2d_24">
      <g>
       <use style="stroke:#000000;stroke-width:0.8;" x="57.6" xlink:href="#m27d3515f17" y="137.778059"/>
      </g>
     </g>
     <g id="text_9">
      <!-- 0.6 -->
      <g transform="translate(25.155 143.856809)scale(0.16 -0.16)">
       <use xlink:href="#DejaVuSans-30"/>
       <use x="63.623047" xlink:href="#DejaVuSans-2e"/>
       <use x="95.410156" xlink:href="#DejaVuSans-36"/>
      </g>
     </g>
    </g>
    <g id="ytick_5">
     <g id="line2d_25">
      <path clip-path="url(#pe52ba58c8d)" d="M 57.6 84.056079 
L 338.688 84.056079 
" style="fill:none;stroke:#b0b0b0;stroke-linecap:square;stroke-width:0.8;"/>
     </g>
     <g id="line2d_26">
      <g>
       <use style="stroke:#000000;stroke-width:0.8;" x="57.6" xlink:href="#m27d3515f17" y="84.056079"/>
      </g>
     </g>
     <g id="text_10">
      <!-- 0.8 -->
      <g transform="translate(25.155 90.134829)scale(0.16 -0.16)">
       <defs>
        <path d="M 2034 2216 
Q 1584 2216 1326 1975 
Q 1069 1734 1069 1313 
Q 1069 891 1326 650 
Q 1584 409 2034 409 
Q 2484 409 2743 651 
Q 3003 894 3003 1313 
Q 3003 1734 2745 1975 
Q 2488 2216 2034 2216 
z
M 1403 2484 
Q 997 2584 770 2862 
Q 544 3141 544 3541 
Q 544 4100 942 4425 
Q 1341 4750 2034 4750 
Q 2731 4750 3128 4425 
Q 3525 4100 3525 3541 
Q 3525 3141 3298 2862 
Q 3072 2584 2669 2484 
Q 3125 2378 3379 2068 
Q 3634 1759 3634 1313 
Q 3634 634 3220 271 
Q 2806 -91 2034 -91 
Q 1263 -91 848 271 
Q 434 634 434 1313 
Q 434 1759 690 2068 
Q 947 2378 1403 2484 
z
M 1172 3481 
Q 1172 3119 1398 2916 
Q 1625 2713 2034 2713 
Q 2441 2713 2670 2916 
Q 2900 3119 2900 3481 
Q 2900 3844 2670 4047 
Q 2441 4250 2034 4250 
Q 1625 4250 1398 4047 
Q 1172 3844 1172 3481 
z
" id="DejaVuSans-38" transform="scale(0.015625)"/>
       </defs>
       <use xlink:href="#DejaVuSans-30"/>
       <use x="63.623047" xlink:href="#DejaVuSans-2e"/>
       <use x="95.410156" xlink:href="#DejaVuSans-38"/>
      </g>
     </g>
    </g>
    <g id="ytick_6">
     <g id="line2d_27">
      <path clip-path="url(#pe52ba58c8d)" d="M 57.6 30.334099 
L 338.688 30.334099 
" style="fill:none;stroke:#b0b0b0;stroke-linecap:square;stroke-width:0.8;"/>
     </g>
     <g id="line2d_28">
      <g>
       <use style="stroke:#000000;stroke-width:0.8;" x="57.6" xlink:href="#m27d3515f17" y="30.334099"/>
      </g>
     </g>
     <g id="text_11">
      <!-- 1.0 -->
      <g transform="translate(25.155 36.412849)scale(0.16 -0.16)">
       <use xlink:href="#DejaVuSans-31"/>
       <use x="63.623047" xlink:href="#DejaVuSans-2e"/>
       <use x="95.410156" xlink:href="#DejaVuSans-30"/>
      </g>
     </g>
    </g>
    <g id="text_12">
     <!-- Fraction of function,target pairs -->
     <g transform="translate(17.619531 297.681)rotate(-90)scale(0.17 -0.17)">
      <defs>
       <path d="M 628 4666 
L 3309 4666 
L 3309 4134 
L 1259 4134 
L 1259 2759 
L 3109 2759 
L 3109 2228 
L 1259 2228 
L 1259 0 
L 628 0 
L 628 4666 
z
" id="DejaVuSans-46" transform="scale(0.015625)"/>
       <path d="M 2631 2963 
Q 2534 3019 2420 3045 
Q 2306 3072 2169 3072 
Q 1681 3072 1420 2755 
Q 1159 2438 1159 1844 
L 1159 0 
L 581 0 
L 581 3500 
L 1159 3500 
L 1159 2956 
Q 1341 3275 1631 3429 
Q 1922 3584 2338 3584 
Q 2397 3584 2469 3576 
Q 2541 3569 2628 3553 
L 2631 2963 
z
" id="DejaVuSans-72" transform="scale(0.015625)"/>
       <path d="M 3122 3366 
L 3122 2828 
Q 2878 2963 2633 3030 
Q 2388 3097 2138 3097 
Q 1578 3097 1268 2742 
Q 959 2388 959 1747 
Q 959 1106 1268 751 
Q 1578 397 2138 397 
Q 2388 397 2633 464 
Q 2878 531 3122 666 
L 3122 134 
Q 2881 22 2623 -34 
Q 2366 -91 2075 -91 
Q 1284 -91 818 406 
Q 353 903 353 1747 
Q 353 2603 823 3093 
Q 1294 3584 2113 3584 
Q 2378 3584 2631 3529 
Q 2884 3475 3122 3366 
z
" id="DejaVuSans-63" transform="scale(0.015625)"/>
       <path d="M 1172 4494 
L 1172 3500 
L 2356 3500 
L 2356 3053 
L 1172 3053 
L 1172 1153 
Q 1172 725 1289 603 
Q 1406 481 1766 481 
L 2356 481 
L 2356 0 
L 1766 0 
Q 1100 0 847 248 
Q 594 497 594 1153 
L 594 3053 
L 172 3053 
L 172 3500 
L 594 3500 
L 594 4494 
L 1172 4494 
z
" id="DejaVuSans-74" transform="scale(0.015625)"/>
       <path d="M 544 1381 
L 544 3500 
L 1119 3500 
L 1119 1403 
Q 1119 906 1312 657 
Q 1506 409 1894 409 
Q 2359 409 2629 706 
Q 2900 1003 2900 1516 
L 2900 3500 
L 3475 3500 
L 3475 0 
L 2900 0 
L 2900 538 
Q 2691 219 2414 64 
Q 2138 -91 1772 -91 
Q 1169 -91 856 284 
Q 544 659 544 1381 
z
M 1991 3584 
L 1991 3584 
z
" id="DejaVuSans-75" transform="scale(0.015625)"/>
       <path d="M 750 794 
L 1409 794 
L 1409 256 
L 897 -744 
L 494 -744 
L 750 256 
L 750 794 
z
" id="DejaVuSans-2c" transform="scale(0.015625)"/>
       <path d="M 1159 525 
L 1159 -1331 
L 581 -1331 
L 581 3500 
L 1159 3500 
L 1159 2969 
Q 1341 3281 1617 3432 
Q 1894 3584 2278 3584 
Q 2916 3584 3314 3078 
Q 3713 2572 3713 1747 
Q 3713 922 3314 415 
Q 2916 -91 2278 -91 
Q 1894 -91 1617 61 
Q 1341 213 1159 525 
z
M 3116 1747 
Q 3116 2381 2855 2742 
Q 2594 3103 2138 3103 
Q 1681 3103 1420 2742 
Q 1159 2381 1159 1747 
Q 1159 1113 1420 752 
Q 1681 391 2138 391 
Q 2594 391 2855 752 
Q 3116 1113 3116 1747 
z
" id="DejaVuSans-70" transform="scale(0.015625)"/>
      </defs>
      <use xlink:href="#DejaVuSans-46"/>
      <use x="50.269531" xlink:href="#DejaVuSans-72"/>
      <use x="91.382812" xlink:href="#DejaVuSans-61"/>
      <use x="152.662109" xlink:href="#DejaVuSans-63"/>
      <use x="207.642578" xlink:href="#DejaVuSans-74"/>
      <use x="246.851562" xlink:href="#DejaVuSans-69"/>
      <use x="274.634766" xlink:href="#DejaVuSans-6f"/>
      <use x="335.816406" xlink:href="#DejaVuSans-6e"/>
      <use x="399.195312" xlink:href="#DejaVuSans-20"/>
      <use x="430.982422" xlink:href="#DejaVuSans-6f"/>
      <use x="492.164062" xlink:href="#DejaVuSans-66"/>
      <use x="527.369141" xlink:href="#DejaVuSans-20"/>
      <use x="559.15625" xlink:href="#DejaVuSans-66"/>
      <use x="594.361328" xlink:href="#DejaVuSans-75"/>
      <use x="657.740234" xlink:href="#DejaVuSans-6e"/>
      <use x="721.119141" xlink:href="#DejaVuSans-63"/>
      <use x="776.099609" xlink:href="#DejaVuSans-74"/>
      <use x="815.308594" xlink:href="#DejaVuSans-69"/>
      <use x="843.091797" xlink:href="#DejaVuSans-6f"/>
      <use x="904.273438" xlink:href="#DejaVuSans-6e"/>
      <use x="967.652344" xlink:href="#DejaVuSans-2c"/>
      <use x="999.439453" xlink:href="#DejaVuSans-74"/>
      <use x="1038.648438" xlink:href="#DejaVuSans-61"/>
      <use x="1099.927734" xlink:href="#DejaVuSans-72"/>
      <use x="1139.291016" xlink:href="#DejaVuSans-67"/>
      <use x="1202.767578" xlink:href="#DejaVuSans-65"/>
      <use x="1264.291016" xlink:href="#DejaVuSans-74"/>
      <use x="1303.5" xlink:href="#DejaVuSans-20"/>
      <use x="1335.287109" xlink:href="#DejaVuSans-70"/>
      <use x="1398.763672" xlink:href="#DejaVuSans-61"/>
      <use x="1460.042969" xlink:href="#DejaVuSans-69"/>
      <use x="1487.826172" xlink:href="#DejaVuSans-72"/>
      <use x="1528.939453" xlink:href="#DejaVuSans-73"/>
     </g>
    </g>
   </g>
   <g id="line2d_29">
    <defs>
     <path d="M 0 1.5 
C 0.397805 1.5 0.77937 1.341951 1.06066 1.06066 
C 1.341951 0.77937 1.5 0.397805 1.5 0 
C 1.5 -0.397805 1.341951 -0.77937 1.06066 -1.06066 
C 0.77937 -1.341951 0.397805 -1.5 0 -1.5 
C -0.397805 -1.5 -0.77937 -1.341951 -1.06066 -1.06066 
C -1.341951 -0.77937 -1.5 -0.397805 -1.5 0 
C -1.5 0.397805 -1.341951 0.77937 -1.06066 1.06066 
C -0.77937 1.341951 -0.397805 1.5 0 1.5 
z
" id="m56165f67df" style="stroke:#00bfbf;"/>
    </defs>
    <g>
     <use style="fill:#00bfbf;stroke:#00bfbf;" x="209.909006" xlink:href="#m56165f67df" y="30.334099"/>
     <use style="fill:#00bfbf;stroke:#00bfbf;" x="209.909006" xlink:href="#m56165f67df" y="30.334099"/>
    </g>
   </g>
   <g id="line2d_30">
    <path d="M 45.512012 298.944 
L 45.512012 296.837256 
L 57.6 296.837256 
L 57.6 293.677139 
L 64.67102 293.677139 
L 64.67102 289.990337 
L 69.687988 289.990337 
L 69.687988 286.303534 
L 73.579452 286.303534 
L 73.579452 285.776848 
L 76.759008 285.776848 
L 76.759008 284.723476 
L 79.447285 284.723476 
L 79.447285 284.19679 
L 85.66744 284.19679 
L 85.66744 283.143418 
L 87.329581 283.143418 
L 87.329581 282.616732 
L 90.242884 282.616732 
L 90.242884 280.509987 
L 95.918017 280.509987 
L 95.918017 279.456615 
L 98.606294 279.456615 
L 98.606294 277.876557 
L 100.192776 277.876557 
L 100.192776 276.296499 
L 104.23523 276.296499 
L 104.23523 275.243126 
L 105.398279 275.243126 
L 105.398279 274.71644 
L 107.009204 274.71644 
L 107.009204 274.189754 
L 108.483824 274.189754 
L 108.483824 272.08301 
L 111.505558 272.08301 
L 111.505558 271.556324 
L 111.897469 271.556324 
L 111.897469 270.502952 
L 113.022974 270.502952 
L 113.022974 269.976266 
L 115.711251 269.976266 
L 115.711251 269.449579 
L 116.621333 269.449579 
L 116.621333 268.922893 
L 122.988655 268.922893 
L 122.988655 267.869521 
L 125.996395 267.869521 
L 125.996395 267.342835 
L 130.664567 267.342835 
L 130.664567 266.816149 
L 131.185181 266.816149 
L 131.185181 266.289463 
L 131.814826 266.289463 
L 131.814826 265.762777 
L 133.009765 265.762777 
L 133.009765 264.709405 
L 134.661403 264.709405 
L 134.661403 263.129347 
L 135.97629 263.129347 
L 135.97629 262.60266 
L 136.924311 262.60266 
L 136.924311 262.075974 
L 137.997836 262.075974 
L 137.997836 261.022602 
L 138.341479 261.022602 
L 138.341479 260.495916 
L 138.594838 260.495916 
L 138.594838 259.96923 
L 138.761723 259.96923 
L 138.761723 258.915858 
L 139.887228 258.915858 
L 139.887228 258.389172 
L 140.042245 258.389172 
L 140.042245 256.809114 
L 143.273169 256.809114 
L 143.273169 256.282427 
L 144.209312 256.282427 
L 144.209312 255.755741 
L 144.330419 255.755741 
L 144.330419 255.229055 
L 145.665858 255.229055 
L 145.665858 254.702369 
L 145.832743 254.702369 
L 145.832743 253.648997 
L 147.769524 253.648997 
L 147.769524 253.122311 
L 147.917524 253.122311 
L 147.917524 252.595625 
L 153.994632 252.595625 
L 154.098334 251.015567 
L 155.200129 251.015567 
L 155.200129 250.488881 
L 156.205916 250.488881 
L 156.205916 249.962195 
L 157.1279 249.962195 
L 157.1279 249.435508 
L 158.625992 249.435508 
L 158.625992 248.382136 
L 159.507213 248.382136 
L 159.507213 247.85545 
L 162.217141 247.85545 
L 162.217141 247.328764 
L 164.429145 247.328764 
L 164.429145 246.802078 
L 164.806225 246.802078 
L 164.806225 245.748706 
L 167.529106 245.748706 
L 167.529106 245.22202 
L 171.224819 245.22202 
L 171.224819 244.695334 
L 175.405599 244.695334 
L 175.405599 244.168648 
L 176.121974 244.168648 
L 176.121974 243.641962 
L 176.753762 243.641962 
L 176.800705 241.008531 
L 177.66942 241.008531 
L 177.66942 239.955159 
L 177.820411 239.955159 
L 177.820411 239.428473 
L 178.196592 239.428473 
L 178.196592 238.901787 
L 179.831174 238.901787 
L 179.831174 237.321729 
L 180.228512 237.321729 
L 180.259296 236.268356 
L 180.374256 236.268356 
L 180.374256 234.688298 
L 180.616999 234.688298 
L 180.692168 231.528182 
L 180.841542 231.528182 
L 180.841542 231.001496 
L 181.011755 231.001496 
L 181.011755 228.894751 
L 181.852798 228.894751 
L 181.852798 228.368065 
L 182.993648 228.368065 
L 182.993648 227.841379 
L 183.306352 227.841379 
L 183.306352 226.788007 
L 183.651569 226.788007 
L 183.651569 226.261321 
L 184.309967 226.261321 
L 184.309967 225.734635 
L 184.743413 225.734635 
L 184.743413 224.154577 
L 185.014801 224.154577 
L 185.014801 223.627891 
L 185.838047 223.627891 
L 185.838047 223.101204 
L 186.093044 223.101204 
L 186.093044 220.99446 
L 186.317224 220.99446 
L 186.338942 219.414402 
L 186.899567 219.414402 
L 186.899567 218.36103 
L 187.740671 218.36103 
L 187.740671 217.834344 
L 188.638444 217.834344 
L 188.638444 217.307658 
L 188.780535 217.307658 
L 188.780535 214.147541 
L 188.893381 214.147541 
L 188.893381 212.567483 
L 189.305589 212.567483 
L 189.405998 209.407366 
L 189.483193 209.407366 
L 189.537479 205.720564 
L 189.797504 205.720564 
L 189.797504 205.193878 
L 190.469672 205.193878 
L 190.469672 204.667192 
L 191.07972 204.667192 
L 191.07972 204.140506 
L 191.54882 204.140506 
L 191.54882 203.613819 
L 191.693113 203.613819 
L 191.752884 202.033761 
L 191.930979 202.033761 
L 191.930979 201.507075 
L 192.150098 201.507075 
L 192.227692 200.453703 
L 192.277944 200.453703 
L 192.277944 199.927017 
L 193.50376 199.927017 
L 193.568403 198.346959 
L 193.661356 198.346959 
L 193.661356 193.606784 
L 193.799862 193.606784 
L 193.881033 192.026726 
L 194.163923 192.026726 
L 194.163923 191.50004 
L 194.466147 191.50004 
L 194.466147 190.973354 
L 194.652412 190.973354 
L 194.763223 188.339923 
L 195.052031 188.339923 
L 195.143973 181.493004 
L 195.313445 181.493004 
L 195.410474 178.859574 
L 195.685669 178.859574 
L 195.768019 176.752829 
L 195.853128 176.752829 
L 195.940951 175.172771 
L 196.022108 175.172771 
L 196.062545 173.592713 
L 196.278686 173.592713 
L 196.278686 173.066027 
L 196.407097 173.066027 
L 196.407097 170.959282 
L 196.519442 170.959282 
L 196.519442 168.852538 
L 196.697104 168.852538 
L 196.750947 166.745794 
L 197.111569 166.745794 
L 197.111569 166.219108 
L 197.242725 166.219108 
L 197.242725 165.692422 
L 197.587727 165.692422 
L 197.678586 162.005619 
L 197.839266 162.005619 
L 197.839266 159.372189 
L 198.006818 159.372189 
L 198.09276 156.738758 
L 198.200283 156.738758 
L 198.200283 156.212072 
L 198.462164 156.212072 
L 198.462164 155.685386 
L 198.688127 155.685386 
L 198.701485 154.105328 
L 198.80002 154.105328 
L 198.802675 152.52527 
L 199.060962 152.52527 
L 199.10277 149.891839 
L 199.369538 149.891839 
L 199.451593 148.311781 
L 199.525624 148.311781 
L 199.627222 147.258409 
L 199.728232 147.258409 
L 199.728232 146.731723 
L 200.020371 146.731723 
L 200.128981 145.151665 
L 200.158485 145.151665 
L 200.224687 144.098292 
L 200.273563 144.098292 
L 200.344193 140.41149 
L 200.590364 140.41149 
L 200.695492 135.671315 
L 201.021161 135.671315 
L 201.077183 133.564571 
L 201.156242 133.564571 
L 201.239561 131.984513 
L 201.269552 131.984513 
L 201.366092 128.29771 
L 201.43244 128.29771 
L 201.43244 127.771024 
L 201.548513 127.771024 
L 201.632242 125.66428 
L 201.776127 125.66428 
L 201.776127 125.137593 
L 201.929935 125.137593 
L 201.93881 121.977477 
L 202.157038 121.977477 
L 202.157038 121.450791 
L 202.290155 121.450791 
L 202.290155 120.397419 
L 202.489018 120.397419 
L 202.489018 119.344047 
L 202.630297 119.344047 
L 202.71961 116.18393 
L 202.745044 116.18393 
L 202.823233 113.023814 
L 202.972296 113.023814 
L 202.978567 111.443755 
L 203.21519 111.443755 
L 203.317968 106.703581 
L 203.393635 106.703581 
L 203.393635 105.650209 
L 203.610628 105.650209 
L 203.63077 100.910034 
L 203.79706 100.910034 
L 203.882591 97.749917 
L 203.91827 97.749917 
L 204.026841 94.063115 
L 204.230308 94.063115 
L 204.298252 91.429684 
L 204.352417 91.429684 
L 204.352417 89.849626 
L 204.475595 89.849626 
L 204.475595 88.796254 
L 204.616944 88.796254 
L 204.656849 86.162824 
L 204.834359 86.162824 
L 204.939257 83.529393 
L 205.401826 83.529393 
L 205.49795 80.369277 
L 205.546716 80.369277 
L 205.600741 78.789218 
L 205.816959 78.789218 
L 205.926719 77.20916 
L 205.958455 77.20916 
L 205.997166 72.995672 
L 206.104054 72.995672 
L 206.16857 70.888927 
L 206.238049 70.888927 
L 206.295162 67.202125 
L 206.443128 67.202125 
L 206.463675 62.46195 
L 206.642436 62.46195 
L 206.743769 59.82852 
L 206.770692 59.82852 
L 206.831117 57.721775 
L 206.967974 57.721775 
L 207.037659 55.615031 
L 207.236873 55.615031 
L 207.347837 53.508287 
L 207.367346 53.508287 
L 207.367346 51.401542 
L 207.488784 51.401542 
L 207.594955 45.081309 
L 207.638203 45.081309 
L 207.670169 44.027937 
L 207.76413 44.027937 
L 207.808545 41.921193 
L 207.923813 41.921193 
L 207.923813 41.394507 
L 208.094519 41.394507 
L 208.203272 38.761076 
L 208.249674 38.761076 
L 208.326736 36.127646 
L 208.54983 36.127646 
L 208.54983 33.494215 
L 208.975785 33.494215 
L 209.058562 31.387471 
L 209.852737 31.387471 
L 209.909006 30.334099 
L 338.688 30.334099 
L 338.688 30.334099 
" style="fill:none;stroke:#00bfbf;stroke-linecap:square;stroke-width:1.5;"/>
   </g>
   <g id="line2d_31">
    <defs>
     <path d="M -6 0 
L 6 0 
M 0 6 
L 0 -6 
" id="mdf72c86e75" style="stroke:#00bfbf;stroke-width:1.5;"/>
    </defs>
    <g>
     <use style="fill-opacity:0;stroke:#00bfbf;stroke-width:1.5;" x="159.507213" xlink:href="#mdf72c86e75" y="247.85545"/>
     <use style="fill-opacity:0;stroke:#00bfbf;stroke-width:1.5;" x="196.750947" xlink:href="#mdf72c86e75" y="166.745794"/>
     <use style="fill-opacity:0;stroke:#00bfbf;stroke-width:1.5;" x="207.638203" xlink:href="#mdf72c86e75" y="45.081309"/>
     <use style="fill-opacity:0;stroke:#00bfbf;stroke-width:1.5;" x="209.909006" xlink:href="#mdf72c86e75" y="30.334099"/>
     <use style="fill-opacity:0;stroke:#00bfbf;stroke-width:1.5;" x="209.909006" xlink:href="#mdf72c86e75" y="30.334099"/>
     <use style="fill-opacity:0;stroke:#00bfbf;stroke-width:1.5;" x="338.688" xlink:href="#mdf72c86e75" y="30.334099"/>
    </g>
   </g>
   <g id="line2d_32">
    <path style="fill:none;stroke:#00bfbf;stroke-linecap:square;stroke-width:1.5;"/>
    <g/>
   </g>
   <g id="line2d_33">
    <defs>
     <path d="M 0 1.5 
C 0.397805 1.5 0.77937 1.341951 1.06066 1.06066 
C 1.341951 0.77937 1.5 0.397805 1.5 0 
C 1.5 -0.397805 1.341951 -0.77937 1.06066 -1.06066 
C 0.77937 -1.341951 0.397805 -1.5 0 -1.5 
C -0.397805 -1.5 -0.77937 -1.341951 -1.06066 -1.06066 
C -1.341951 -0.77937 -1.5 -0.397805 -1.5 0 
C -1.5 0.397805 -1.341951 0.77937 -1.06066 1.06066 
C -0.77937 1.341951 -0.397805 1.5 0 1.5 
z
" id="mfe0878d2f1" style="stroke:#008000;"/>
    </defs>
    <g>
     <use style="fill:#008000;stroke:#008000;" x="213.861876" xlink:href="#mfe0878d2f1" y="30.334099"/>
     <use style="fill:#008000;stroke:#008000;" x="213.861876" xlink:href="#mfe0878d2f1" y="30.334099"/>
    </g>
   </g>
   <g id="line2d_34">
    <path d="M 38.440992 298.944 
L 38.440992 297.890628 
L 50.52898 297.890628 
L 50.52898 297.363942 
L 57.6 297.363942 
L 57.6 295.783884 
L 62.616969 295.783884 
L 62.616969 294.203825 
L 66.508432 294.203825 
L 66.508432 293.677139 
L 69.687988 293.677139 
L 69.687988 293.150453 
L 72.376266 293.150453 
L 72.376266 292.623767 
L 76.759008 292.623767 
L 76.759008 291.570395 
L 80.258561 291.570395 
L 80.258561 290.517023 
L 83.171864 290.517023 
L 83.171864 288.410278 
L 84.464254 288.410278 
L 84.464254 286.83022 
L 85.66744 286.83022 
L 85.66744 285.250162 
L 100.934985 285.250162 
L 100.934985 283.670104 
L 104.434538 283.670104 
L 104.434538 283.143418 
L 109.550313 283.143418 
L 109.550313 282.616732 
L 110.131676 282.616732 
L 110.131676 282.090045 
L 112.531694 282.090045 
L 112.531694 281.563359 
L 113.26352 281.563359 
L 113.26352 280.509987 
L 113.73488 280.509987 
L 113.73488 279.456615 
L 113.965867 279.456615 
L 113.965867 278.929929 
L 115.077025 278.929929 
L 115.077025 278.403243 
L 115.711251 278.403243 
L 115.711251 277.876557 
L 119.097192 277.876557 
L 119.097192 277.349871 
L 119.43583 277.349871 
L 119.43583 276.823185 
L 125.706218 276.823185 
L 125.706218 276.296499 
L 127.272333 276.296499 
L 127.272333 275.769812 
L 128.310692 275.769812 
L 128.310692 275.243126 
L 130.664567 275.243126 
L 130.664567 274.71644 
L 133.277185 274.71644 
L 133.277185 274.189754 
L 135.415281 274.189754 
L 135.415281 273.663068 
L 137.794206 273.663068 
L 137.794206 273.136382 
L 138.538853 273.136382 
L 138.538853 272.609696 
L 140.549236 272.609696 
L 140.549236 272.08301 
L 141.283115 272.08301 
L 141.283115 271.556324 
L 143.31586 271.556324 
L 143.31586 271.029638 
L 143.485587 271.029638 
L 143.485587 269.449579 
L 144.390658 269.449579 
L 144.390658 268.922893 
L 145.289185 268.922893 
L 145.289185 268.396207 
L 148.701984 268.396207 
L 148.701984 267.869521 
L 149.165411 267.869521 
L 149.165411 267.342835 
L 151.792604 267.342835 
L 151.792604 266.816149 
L 153.773658 266.816149 
L 153.773658 266.289463 
L 155.425155 266.289463 
L 155.425155 265.762777 
L 156.558644 265.762777 
L 156.558644 265.236091 
L 158.213527 265.236091 
L 158.213527 264.709405 
L 160.054568 264.709405 
L 160.054568 264.182719 
L 161.222884 264.182719 
L 161.222884 263.656033 
L 161.615474 263.656033 
L 161.615474 262.60266 
L 163.157756 262.60266 
L 163.157756 262.075974 
L 163.375071 262.075974 
L 163.375071 261.022602 
L 164.775111 261.022602 
L 164.775111 260.495916 
L 170.837602 260.495916 
L 170.837602 259.96923 
L 173.583604 259.96923 
L 173.583604 259.442544 
L 175.717652 259.442544 
L 175.764148 258.389172 
L 176.014414 258.389172 
L 176.014414 257.862486 
L 176.599529 257.862486 
L 176.599529 256.809114 
L 177.030459 256.809114 
L 177.030459 256.282427 
L 178.170609 256.282427 
L 178.170609 255.755741 
L 178.502578 255.755741 
L 178.502578 255.229055 
L 181.457697 255.229055 
L 181.457697 254.702369 
L 182.498048 254.702369 
L 182.498048 254.175683 
L 183.144185 254.175683 
L 183.148529 253.122311 
L 183.867557 253.122311 
L 183.867557 252.595625 
L 184.161009 252.595625 
L 184.161009 252.068939 
L 184.594129 252.068939 
L 184.594129 251.542253 
L 184.8875 251.542253 
L 184.8875 251.015567 
L 185.2185 251.015567 
L 185.245481 248.382136 
L 185.65279 248.382136 
L 185.761563 247.328764 
L 186.385904 247.328764 
L 186.385904 246.275392 
L 186.497383 246.275392 
L 186.497383 245.748706 
L 187.058226 245.748706 
L 187.110216 243.641962 
L 187.739002 243.641962 
L 187.739002 243.115275 
L 187.875338 243.115275 
L 187.875338 242.588589 
L 189.155421 242.588589 
L 189.155421 242.061903 
L 189.436312 242.061903 
L 189.535974 239.955159 
L 190.011269 239.955159 
L 190.011269 239.428473 
L 190.267263 239.428473 
L 190.287465 237.321729 
L 190.516707 237.321729 
L 190.516707 236.795043 
L 191.192364 236.795043 
L 191.27978 234.688298 
L 191.388436 234.688298 
L 191.477571 233.10824 
L 191.534056 233.10824 
L 191.534056 232.581554 
L 191.707742 232.581554 
L 191.721031 229.948123 
L 192.130645 229.948123 
L 192.234143 228.368065 
L 192.42656 228.368065 
L 192.42656 227.841379 
L 192.934488 227.841379 
L 192.979039 225.734635 
L 193.114466 225.734635 
L 193.114466 224.681263 
L 193.459329 224.681263 
L 193.488162 222.047832 
L 193.588704 222.047832 
L 193.588704 221.521146 
L 193.780986 221.521146 
L 193.891592 219.414402 
L 193.922062 219.414402 
L 193.938447 216.780971 
L 194.477493 216.780971 
L 194.477493 216.254285 
L 194.64455 216.254285 
L 194.64455 215.727599 
L 194.803344 215.727599 
L 194.878878 214.147541 
L 194.925368 214.147541 
L 195.013579 210.987425 
L 195.14943 210.987425 
L 195.258222 209.407366 
L 195.282065 209.407366 
L 195.282065 206.773936 
L 195.493062 206.773936 
L 195.493062 206.24725 
L 195.737447 206.24725 
L 195.737447 205.720564 
L 195.907547 205.720564 
L 195.990939 204.667192 
L 196.098755 204.667192 
L 196.098755 203.613819 
L 196.240798 203.613819 
L 196.320575 200.453703 
L 196.426379 200.453703 
L 196.507332 198.873645 
L 196.678119 198.873645 
L 196.678119 198.346959 
L 196.837347 198.346959 
L 196.884833 196.7669 
L 197.238853 196.7669 
L 197.325764 195.713528 
L 197.42949 195.713528 
L 197.471572 194.13347 
L 197.774608 194.13347 
L 197.883171 191.50004 
L 197.916726 191.50004 
L 197.998479 190.446667 
L 198.029963 190.446667 
L 198.135113 189.393295 
L 198.181033 189.393295 
L 198.181033 187.813237 
L 198.323529 187.813237 
L 198.430547 186.233179 
L 198.506331 186.233179 
L 198.506331 185.179807 
L 198.721059 185.179807 
L 198.825672 183.073062 
L 198.966525 183.073062 
L 199.043512 178.332888 
L 199.205125 178.332888 
L 199.258665 177.279515 
L 199.327506 177.279515 
L 199.37896 176.226143 
L 199.449035 176.226143 
L 199.551079 172.012655 
L 199.583269 172.012655 
L 199.68285 168.852538 
L 199.718157 168.852538 
L 199.816973 167.27248 
L 199.960014 167.27248 
L 200.042641 165.165736 
L 200.09203 165.165736 
L 200.151113 159.898875 
L 200.214895 159.898875 
L 200.247513 158.318817 
L 200.340141 158.318817 
L 200.411309 157.265444 
L 200.538363 157.265444 
L 200.634245 153.578642 
L 200.664498 153.578642 
L 200.731187 151.998584 
L 200.80078 151.998584 
L 200.893664 149.365153 
L 200.934439 149.365153 
L 201.04219 148.311781 
L 201.059307 148.311781 
L 201.112106 147.258409 
L 201.183287 147.258409 
L 201.264941 146.205037 
L 201.298723 146.205037 
L 201.298723 145.151665 
L 201.421019 145.151665 
L 201.487918 143.04492 
L 201.590805 143.04492 
L 201.670577 141.464862 
L 201.773888 141.464862 
L 201.864714 136.724687 
L 201.898837 136.724687 
L 201.989016 131.984513 
L 202.069928 131.984513 
L 202.167988 130.404454 
L 202.184035 130.404454 
L 202.290155 123.557535 
L 202.304642 123.557535 
L 202.399954 122.504163 
L 202.418667 122.504163 
L 202.427297 117.237302 
L 202.590456 117.237302 
L 202.701218 115.130558 
L 202.908068 115.130558 
L 202.908068 114.603872 
L 203.182861 114.603872 
L 203.185615 113.023814 
L 203.354138 113.023814 
L 203.441185 111.443755 
L 203.504835 111.443755 
L 203.59517 108.283639 
L 203.618016 108.283639 
L 203.706432 105.650209 
L 203.828935 105.650209 
L 203.91497 102.490092 
L 204.037333 102.490092 
L 204.131479 96.169859 
L 204.180963 96.169859 
L 204.232901 93.536429 
L 204.300189 93.536429 
L 204.356923 92.483056 
L 204.538771 92.483056 
L 204.569319 89.849626 
L 204.663174 89.849626 
L 204.743941 88.796254 
L 204.790464 88.796254 
L 204.894378 85.109451 
L 204.908103 85.109451 
L 204.982779 80.895963 
L 205.069499 80.895963 
L 205.069499 79.315904 
L 205.212263 79.315904 
L 205.23676 76.682474 
L 205.361161 76.682474 
L 205.461739 74.57573 
L 205.505183 74.57573 
L 205.505183 74.049044 
L 205.6241 74.049044 
L 205.693394 69.835555 
L 205.774286 69.835555 
L 205.818143 67.202125 
L 205.937304 67.202125 
L 206.032283 64.568694 
L 206.110458 64.568694 
L 206.110458 64.042008 
L 206.235737 64.042008 
L 206.284215 56.668403 
L 206.348643 56.668403 
L 206.348643 56.141717 
L 206.531423 56.141717 
L 206.531423 55.615031 
L 206.802049 55.615031 
L 206.89022 52.454914 
L 207.043177 52.454914 
L 207.111463 49.294798 
L 207.392783 49.294798 
L 207.392783 48.768112 
L 208.227004 48.768112 
L 208.227004 47.188054 
L 208.360536 47.188054 
L 208.360536 46.661368 
L 209.077231 46.661368 
L 209.077231 46.134681 
L 210.864978 46.134681 
L 210.884467 44.027937 
L 211.004465 44.027937 
L 211.004465 40.867821 
L 211.424081 40.867821 
L 211.424081 39.814448 
L 211.696628 39.814448 
L 211.696628 38.761076 
L 211.874037 38.761076 
L 211.931663 36.654332 
L 212.235005 36.654332 
L 212.303699 35.60096 
L 212.391625 35.60096 
L 212.391625 35.074274 
L 212.629556 35.074274 
L 212.629556 33.494215 
L 213.067796 33.494215 
L 213.161287 32.440843 
L 213.544009 32.440843 
L 213.621372 31.387471 
L 213.69538 31.387471 
L 213.69538 30.860785 
L 213.861876 30.860785 
L 213.861876 30.334099 
L 338.688 30.334099 
L 338.688 30.334099 
" style="fill:none;stroke:#008000;stroke-linecap:square;stroke-width:1.5;"/>
   </g>
   <g id="line2d_35">
    <defs>
     <path d="M -0 6 
L 6 -6 
L -6 -6 
z
" id="m786eda460b" style="stroke:#008000;stroke-linejoin:miter;stroke-width:1.5;"/>
    </defs>
    <g>
     <use style="fill-opacity:0;stroke:#008000;stroke-linejoin:miter;stroke-width:1.5;" x="85.66744" xlink:href="#m786eda460b" y="285.250162"/>
     <use style="fill-opacity:0;stroke:#008000;stroke-linejoin:miter;stroke-width:1.5;" x="153.773658" xlink:href="#m786eda460b" y="266.289463"/>
     <use style="fill-opacity:0;stroke:#008000;stroke-linejoin:miter;stroke-width:1.5;" x="202.399954" xlink:href="#m786eda460b" y="123.030849"/>
     <use style="fill-opacity:0;stroke:#008000;stroke-linejoin:miter;stroke-width:1.5;" x="213.861876" xlink:href="#m786eda460b" y="30.860785"/>
     <use style="fill-opacity:0;stroke:#008000;stroke-linejoin:miter;stroke-width:1.5;" x="213.861876" xlink:href="#m786eda460b" y="30.334099"/>
     <use style="fill-opacity:0;stroke:#008000;stroke-linejoin:miter;stroke-width:1.5;" x="338.688" xlink:href="#m786eda460b" y="30.334099"/>
    </g>
   </g>
   <g id="line2d_36">
    <path style="fill:none;stroke:#008000;stroke-linecap:square;stroke-width:1.5;"/>
    <g/>
   </g>
   <g id="line2d_37">
    <defs>
     <path d="M 0 1.5 
C 0.397805 1.5 0.77937 1.341951 1.06066 1.06066 
C 1.341951 0.77937 1.5 0.397805 1.5 0 
C 1.5 -0.397805 1.341951 -0.77937 1.06066 -1.06066 
C 0.77937 -1.341951 0.397805 -1.5 0 -1.5 
C -0.397805 -1.5 -0.77937 -1.341951 -1.06066 -1.06066 
C -1.341951 -0.77937 -1.5 -0.397805 -1.5 0 
C -1.5 0.397805 -1.341951 0.77937 -1.06066 1.06066 
C -0.77937 1.341951 -0.397805 1.5 0 1.5 
z
" id="m23520ee861" style="stroke:#0000ff;"/>
    </defs>
    <g>
     <use style="fill:#0000ff;stroke:#0000ff;" x="236.418888" xlink:href="#m23520ee861" y="30.334099"/>
     <use style="fill:#0000ff;stroke:#0000ff;" x="236.418888" xlink:href="#m23520ee861" y="30.334099"/>
    </g>
   </g>
   <g id="line2d_38">
    <path d="M 29.53256 298.944 
L 29.53256 298.417314 
L 41.620548 298.417314 
L 41.620548 297.890628 
L 53.708537 297.890628 
L 53.708537 296.31057 
L 65.796525 296.31057 
L 65.796525 295.783884 
L 74.263433 295.783884 
L 74.263433 295.257197 
L 89.972502 295.257197 
L 89.972502 294.203825 
L 94.714831 294.203825 
L 94.714831 293.677139 
L 95.125186 293.677139 
L 95.125186 293.150453 
L 96.301313 293.150453 
L 96.301313 292.623767 
L 99.097574 292.623767 
L 99.097574 291.570395 
L 102.597126 291.570395 
L 102.597126 290.517023 
L 109.843417 290.517023 
L 109.843417 289.990337 
L 113.453595 289.990337 
L 113.453595 289.463651 
L 114.284194 289.463651 
L 114.284194 288.936964 
L 116.081002 288.936964 
L 116.081002 287.883592 
L 124.368753 287.883592 
L 124.368753 287.356906 
L 126.030894 287.356906 
L 126.030894 286.83022 
L 126.839037 286.83022 
L 126.839037 286.303534 
L 127.48501 286.303534 
L 127.48501 285.776848 
L 130.978796 285.776848 
L 131.030622 284.723476 
L 133.078923 284.723476 
L 133.078923 284.19679 
L 136.456742 284.19679 
L 136.456742 283.670104 
L 138.358484 283.670104 
L 138.358484 283.143418 
L 140.973763 283.143418 
L 140.973763 282.616732 
L 142.024126 282.616732 
L 142.024126 281.563359 
L 142.699628 281.563359 
L 142.699628 281.036673 
L 143.298796 281.036673 
L 143.298796 280.509987 
L 147.266916 280.509987 
L 147.266916 279.983301 
L 147.449528 279.983301 
L 147.449528 279.456615 
L 149.25057 279.456615 
L 149.25057 278.403243 
L 152.870513 278.403243 
L 152.870513 277.876557 
L 153.890309 277.876557 
L 153.890309 277.349871 
L 156.333721 277.349871 
L 156.333721 276.823185 
L 156.538679 276.823185 
L 156.538679 276.296499 
L 160.470846 276.296499 
L 160.470846 275.769812 
L 161.127947 275.769812 
L 161.127947 275.243126 
L 164.310575 275.243126 
L 164.310575 274.71644 
L 165.454301 274.71644 
L 165.454301 274.189754 
L 165.604609 274.189754 
L 165.604609 273.663068 
L 169.006055 273.663068 
L 169.006055 272.609696 
L 170.402844 272.609696 
L 170.402844 272.08301 
L 172.687503 272.08301 
L 172.687503 271.556324 
L 174.395768 271.556324 
L 174.395768 271.029638 
L 174.774759 271.029638 
L 174.774759 270.502952 
L 175.440098 270.502952 
L 175.440098 269.976266 
L 177.426892 269.976266 
L 177.426892 269.449579 
L 177.891015 269.449579 
L 177.891015 268.922893 
L 178.270865 268.922893 
L 178.270865 268.396207 
L 179.121894 268.396207 
L 179.121894 267.869521 
L 181.111626 267.869521 
L 181.111626 267.342835 
L 181.353055 267.342835 
L 181.353055 266.816149 
L 181.531243 266.816149 
L 181.531243 266.289463 
L 182.53138 266.289463 
L 182.53138 265.762777 
L 182.807285 265.762777 
L 182.807285 265.236091 
L 183.591965 265.236091 
L 183.591965 264.709405 
L 184.097777 264.709405 
L 184.097777 264.182719 
L 184.281906 264.182719 
L 184.281906 263.656033 
L 184.4955 263.656033 
L 184.4955 263.129347 
L 184.768368 263.129347 
L 184.768368 262.60266 
L 185.097732 262.60266 
L 185.097732 262.075974 
L 185.575865 262.075974 
L 185.575865 261.549288 
L 185.704636 261.549288 
L 185.704636 261.022602 
L 186.403933 261.022602 
L 186.403933 260.495916 
L 186.757118 260.495916 
L 186.759237 259.442544 
L 187.136499 259.442544 
L 187.136499 258.915858 
L 187.791668 258.915858 
L 187.791668 258.389172 
L 188.648903 258.389172 
L 188.648903 257.862486 
L 189.226682 257.862486 
L 189.226682 257.3358 
L 189.567264 257.3358 
L 189.6015 256.282427 
L 190.42251 256.282427 
L 190.42251 255.755741 
L 190.953576 255.755741 
L 190.953576 255.229055 
L 191.121016 255.229055 
L 191.157275 254.175683 
L 191.275419 254.175683 
L 191.275419 253.648997 
L 191.717843 253.648997 
L 191.717843 253.122311 
L 191.971095 253.122311 
L 191.971095 252.595625 
L 192.189714 252.595625 
L 192.294919 251.542253 
L 192.908695 251.542253 
L 192.908695 251.015567 
L 193.253717 251.015567 
L 193.330924 249.962195 
L 193.404896 249.962195 
L 193.404896 249.435508 
L 193.717601 249.435508 
L 193.717601 248.908822 
L 193.94219 248.908822 
L 193.94219 248.382136 
L 194.083366 248.382136 
L 194.165309 247.328764 
L 194.195766 247.328764 
L 194.195766 246.802078 
L 194.40612 246.802078 
L 194.512391 245.748706 
L 194.764562 245.748706 
L 194.818032 244.695334 
L 194.924483 244.695334 
L 194.924483 244.168648 
L 195.067169 244.168648 
L 195.135455 242.588589 
L 195.260825 242.588589 
L 195.294624 240.481845 
L 195.601013 240.481845 
L 195.601013 239.955159 
L 195.733226 239.955159 
L 195.733226 238.901787 
L 196.2018 238.901787 
L 196.242438 237.848415 
L 196.369894 237.848415 
L 196.369894 237.321729 
L 196.67252 237.321729 
L 196.718063 236.268356 
L 196.818316 236.268356 
L 196.818316 235.74167 
L 197.031224 235.74167 
L 197.069976 233.634926 
L 197.218317 233.634926 
L 197.218317 233.10824 
L 197.901448 233.10824 
L 197.901448 232.581554 
L 198.118185 232.581554 
L 198.118185 231.528182 
L 198.268861 231.528182 
L 198.268861 231.001496 
L 198.423674 231.001496 
L 198.423674 229.948123 
L 198.894832 229.948123 
L 198.964421 224.681263 
L 199.049447 224.681263 
L 199.049447 224.154577 
L 199.177773 224.154577 
L 199.177773 223.627891 
L 199.381357 223.627891 
L 199.381357 223.101204 
L 199.536829 223.101204 
L 199.598834 220.467774 
L 199.753393 220.467774 
L 199.753393 219.941088 
L 199.913571 219.941088 
L 199.913571 219.414402 
L 200.072292 219.414402 
L 200.157993 217.834344 
L 200.22958 217.834344 
L 200.22958 216.780971 
L 200.519765 216.780971 
L 200.55438 215.727599 
L 200.661634 215.727599 
L 200.713111 211.514111 
L 200.785304 211.514111 
L 200.851534 209.934052 
L 201.039388 209.934052 
L 201.132562 208.88068 
L 201.151137 208.88068 
L 201.151137 208.353994 
L 201.335808 208.353994 
L 201.44568 206.24725 
L 201.484882 206.24725 
L 201.484882 203.087133 
L 201.60106 203.087133 
L 201.60106 202.560447 
L 201.751481 202.560447 
L 201.751481 202.033761 
L 202.072276 202.033761 
L 202.167988 200.980389 
L 202.244007 200.980389 
L 202.246622 199.400331 
L 202.385547 199.400331 
L 202.486439 196.240214 
L 202.536239 196.240214 
L 202.59188 194.660156 
L 202.71961 194.660156 
L 202.829557 193.606784 
L 202.982328 193.606784 
L 203.074017 192.553412 
L 203.200753 192.553412 
L 203.200753 192.026726 
L 203.327393 192.026726 
L 203.42544 186.233179 
L 203.463692 186.233179 
L 203.463692 179.38626 
L 203.580371 179.38626 
L 203.580371 178.859574 
L 203.697076 178.859574 
L 203.697076 178.332888 
L 203.843259 178.332888 
L 203.932126 177.279515 
L 203.955063 177.279515 
L 204.064583 174.119399 
L 204.074791 174.119399 
L 204.096756 173.066027 
L 204.217076 173.066027 
L 204.255186 170.959282 
L 204.376737 170.959282 
L 204.422966 168.325852 
L 204.492848 168.325852 
L 204.590671 164.63905 
L 204.651533 164.63905 
L 204.723532 160.425561 
L 204.792222 160.425561 
L 204.887636 153.051956 
L 204.932533 153.051956 
L 205.036844 147.785095 
L 205.053179 147.785095 
L 205.053179 147.258409 
L 205.250218 147.258409 
L 205.338786 141.464862 
L 205.394913 141.464862 
L 205.491438 138.304745 
L 205.521086 138.304745 
L 205.623382 136.198001 
L 205.638459 136.198001 
L 205.740071 130.404454 
L 205.85315 130.404454 
L 205.946473 127.771024 
L 205.998572 127.771024 
L 206.096016 125.137593 
L 206.113484 125.137593 
L 206.208901 123.557535 
L 206.36999 123.557535 
L 206.455117 119.870733 
L 206.539148 119.870733 
L 206.620742 116.18393 
L 206.715455 116.18393 
L 206.802273 114.077186 
L 206.833797 114.077186 
L 206.938024 109.863697 
L 206.975288 109.863697 
L 207.068761 104.596836 
L 207.112342 104.596836 
L 207.210333 101.963406 
L 207.233926 101.963406 
L 207.3384 100.383348 
L 207.390403 100.383348 
L 207.442252 98.276603 
L 207.587897 98.276603 
L 207.69857 96.169859 
L 207.756505 96.169859 
L 207.756505 95.643173 
L 207.939858 95.643173 
L 208.017673 93.536429 
L 208.098882 93.536429 
L 208.139967 90.902998 
L 208.257704 90.902998 
L 208.288556 89.849626 
L 211.855958 89.849626 
L 211.855958 87.216196 
L 212.051315 87.216196 
L 212.157317 83.529393 
L 212.171139 83.529393 
L 212.275437 81.422649 
L 212.289165 81.422649 
L 212.289165 80.895963 
L 212.82488 80.895963 
L 212.881822 79.842591 
L 212.955097 79.842591 
L 212.998915 78.262532 
L 213.08669 78.262532 
L 213.136249 75.629102 
L 214.768952 75.629102 
L 214.768952 74.049044 
L 215.071152 74.049044 
L 215.160759 69.835555 
L 215.227145 69.835555 
L 215.304416 67.202125 
L 215.38668 67.202125 
L 215.473459 59.301833 
L 215.527274 59.301833 
L 215.617408 50.874856 
L 215.640476 50.874856 
L 215.742497 45.081309 
L 216.084892 45.081309 
L 216.17102 41.921193 
L 222.092517 41.921193 
L 222.092517 41.394507 
L 222.424567 41.394507 
L 222.424567 40.867821 
L 222.681408 40.867821 
L 222.761438 39.814448 
L 223.196866 39.814448 
L 223.196866 39.287762 
L 223.311861 39.287762 
L 223.311861 38.761076 
L 223.835333 38.761076 
L 223.835333 38.23439 
L 224.159662 38.23439 
L 224.159662 37.707704 
L 224.569925 37.707704 
L 224.596323 36.654332 
L 224.841429 36.654332 
L 224.860508 35.60096 
L 225.019246 35.60096 
L 225.019246 35.074274 
L 225.452673 35.074274 
L 225.452673 34.547588 
L 225.796476 34.547588 
L 225.830103 33.494215 
L 225.979175 33.494215 
L 225.979175 32.967529 
L 227.415683 32.967529 
L 227.415683 32.440843 
L 229.018225 32.440843 
L 229.081211 31.387471 
L 234.374416 31.387471 
L 234.374416 30.860785 
L 236.418888 30.860785 
L 236.418888 30.334099 
L 338.688 30.334099 
L 338.688 30.334099 
" style="fill:none;stroke:#0000ff;stroke-linecap:square;stroke-width:1.5;"/>
   </g>
   <g id="line2d_39">
    <defs>
     <path d="M 0 -6 
L -1.347084 -1.854102 
L -5.706339 -1.854102 
L -2.179628 0.708204 
L -3.526712 4.854102 
L -0 2.291796 
L 3.526712 4.854102 
L 2.179628 0.708204 
L 5.706339 -1.854102 
L 1.347084 -1.854102 
z
" id="m9bcadfb0ed" style="stroke:#0000ff;stroke-linejoin:bevel;stroke-width:1.5;"/>
    </defs>
    <g>
     <use style="fill-opacity:0;stroke:#0000ff;stroke-linejoin:bevel;stroke-width:1.5;" x="131.030622" xlink:href="#m9bcadfb0ed" y="284.723476"/>
     <use style="fill-opacity:0;stroke:#0000ff;stroke-linejoin:bevel;stroke-width:1.5;" x="202.246622" xlink:href="#m9bcadfb0ed" y="199.927017"/>
     <use style="fill-opacity:0;stroke:#0000ff;stroke-linejoin:bevel;stroke-width:1.5;" x="214.768952" xlink:href="#m9bcadfb0ed" y="75.629102"/>
     <use style="fill-opacity:0;stroke:#0000ff;stroke-linejoin:bevel;stroke-width:1.5;" x="236.418888" xlink:href="#m9bcadfb0ed" y="30.334099"/>
     <use style="fill-opacity:0;stroke:#0000ff;stroke-linejoin:bevel;stroke-width:1.5;" x="236.418888" xlink:href="#m9bcadfb0ed" y="30.334099"/>
     <use style="fill-opacity:0;stroke:#0000ff;stroke-linejoin:bevel;stroke-width:1.5;" x="338.688" xlink:href="#m9bcadfb0ed" y="30.334099"/>
    </g>
   </g>
   <g id="line2d_40">
    <path style="fill:none;stroke:#0000ff;stroke-linecap:square;stroke-width:1.5;"/>
    <g/>
   </g>
   <g id="line2d_41">
    <path clip-path="url(#pe52ba58c8d)" d="M 218.221714 41.921193 
" style="fill:none;stroke:#0000ff;stroke-linecap:square;stroke-width:1.5;"/>
    <defs>
     <path d="M -12 12 
L 12 -12 
M -12 -12 
L 12 12 
" id="m5cd9bb21cb" style="stroke:#0000ff;"/>
    </defs>
    <g clip-path="url(#pe52ba58c8d)">
     <use style="fill:#0000ff;stroke:#0000ff;" x="218.221714" xlink:href="#m5cd9bb21cb" y="41.921193"/>
    </g>
   </g>
   <g id="line2d_42">
    <defs>
     <path d="M 0 1.5 
C 0.397805 1.5 0.77937 1.341951 1.06066 1.06066 
C 1.341951 0.77937 1.5 0.397805 1.5 0 
C 1.5 -0.397805 1.341951 -0.77937 1.06066 -1.06066 
C 0.77937 -1.341951 0.397805 -1.5 0 -1.5 
C -0.397805 -1.5 -0.77937 -1.341951 -1.06066 -1.06066 
C -1.341951 -0.77937 -1.5 -0.397805 -1.5 0 
C -1.5 0.397805 -1.341951 0.77937 -1.06066 1.06066 
C -0.77937 1.341951 -0.397805 1.5 0 1.5 
z
" id="mde2ba80557" style="stroke:#000000;"/>
    </defs>
    <g>
     <use style="stroke:#000000;" x="242.356486" xlink:href="#mde2ba80557" y="30.334099"/>
     <use style="stroke:#000000;" x="242.356486" xlink:href="#mde2ba80557" y="30.334099"/>
    </g>
   </g>
   <g id="line2d_43">
    <path d="M 112.506763 298.944 
L 112.506763 298.417314 
L 115.958621 298.417314 
L 115.958621 297.890628 
L 130.018593 297.890628 
L 130.018593 297.363942 
L 132.636218 297.363942 
L 132.636218 296.837256 
L 136.86886 296.837256 
L 136.887363 295.783884 
L 138.89409 295.783884 
L 138.89409 295.257197 
L 142.566605 295.257197 
L 142.566605 294.730511 
L 143.196061 294.730511 
L 143.196061 294.203825 
L 145.463466 294.203825 
L 145.463466 293.677139 
L 150.181003 293.677139 
L 150.181003 293.150453 
L 152.662192 293.150453 
L 152.662192 292.623767 
L 152.811246 292.623767 
L 152.811246 292.097081 
L 157.540141 292.097081 
L 157.540141 291.570395 
L 158.73729 291.570395 
L 158.73729 291.043709 
L 161.827689 291.043709 
L 161.827689 290.517023 
L 162.00818 290.517023 
L 162.00818 289.990337 
L 162.879471 289.990337 
L 162.879471 289.463651 
L 167.086355 289.463651 
L 167.086355 288.936964 
L 167.785687 288.936964 
L 167.785687 288.410278 
L 169.026567 288.410278 
L 169.026567 287.883592 
L 169.557255 287.883592 
L 169.636615 286.83022 
L 170.647393 286.83022 
L 170.647393 286.303534 
L 170.951613 286.303534 
L 170.951613 285.776848 
L 171.778735 285.776848 
L 171.778735 285.250162 
L 172.708856 285.250162 
L 172.708856 284.723476 
L 173.049317 284.723476 
L 173.049317 284.19679 
L 173.412888 284.19679 
L 173.412888 283.670104 
L 174.220541 283.670104 
L 174.220541 283.143418 
L 175.921971 283.143418 
L 175.921971 282.616732 
L 177.314369 282.616732 
L 177.314369 282.090045 
L 177.612236 282.090045 
L 177.612236 281.563359 
L 177.754846 281.563359 
L 177.765495 280.509987 
L 177.984128 280.509987 
L 177.984128 279.983301 
L 178.372261 279.983301 
L 178.413339 278.929929 
L 179.260866 278.929929 
L 179.260866 278.403243 
L 180.160595 278.403243 
L 180.160595 277.876557 
L 180.971941 277.876557 
L 181.045599 276.823185 
L 181.095509 276.823185 
L 181.095509 276.296499 
L 181.39345 276.296499 
L 181.39345 275.769812 
L 182.128513 275.769812 
L 182.128513 275.243126 
L 182.375435 275.243126 
L 182.440695 274.189754 
L 182.793992 274.189754 
L 182.793992 273.663068 
L 183.107652 273.663068 
L 183.107652 273.136382 
L 183.289557 273.136382 
L 183.289557 272.609696 
L 183.465745 272.609696 
L 183.465745 272.08301 
L 183.733666 272.08301 
L 183.733666 271.556324 
L 185.653919 271.556324 
L 185.731624 270.502952 
L 185.956031 270.502952 
L 185.956031 269.449579 
L 186.503118 269.449579 
L 186.503118 268.922893 
L 186.782528 268.922893 
L 186.823739 267.869521 
L 187.238831 267.869521 
L 187.238831 267.342835 
L 188.057226 267.342835 
L 188.108287 266.289463 
L 188.487511 266.289463 
L 188.487511 265.762777 
L 189.904861 265.762777 
L 189.904861 265.236091 
L 190.087003 265.236091 
L 190.161249 263.656033 
L 190.397591 263.656033 
L 190.437959 262.075974 
L 192.593138 262.075974 
L 192.593138 261.549288 
L 193.18936 261.549288 
L 193.18936 261.022602 
L 194.073618 261.022602 
L 194.073618 260.495916 
L 194.321184 260.495916 
L 194.321184 259.96923 
L 194.457293 259.96923 
L 194.457293 256.809114 
L 194.756527 256.809114 
L 194.756527 252.595625 
L 195.195641 252.595625 
L 195.246505 251.015567 
L 195.606755 251.015567 
L 195.692652 249.435508 
L 195.839916 249.435508 
L 195.839916 248.908822 
L 195.980328 248.908822 
L 195.980328 248.382136 
L 196.095448 248.382136 
L 196.199951 246.802078 
L 196.207347 246.802078 
L 196.259036 245.748706 
L 196.347901 245.748706 
L 196.393689 244.695334 
L 196.523679 244.695334 
L 196.620239 243.641962 
L 196.645497 243.641962 
L 196.749155 242.588589 
L 196.786155 242.588589 
L 196.786155 241.535217 
L 196.99533 241.535217 
L 197.101034 240.481845 
L 197.250853 240.481845 
L 197.333084 239.428473 
L 197.46087 239.428473 
L 197.480359 237.321729 
L 197.663854 237.321729 
L 197.755446 235.74167 
L 197.8005 235.74167 
L 197.8005 235.214984 
L 197.936084 235.214984 
L 197.936084 234.688298 
L 198.353524 234.688298 
L 198.397061 233.634926 
L 198.549129 233.634926 
L 198.620108 232.054868 
L 198.669408 232.054868 
L 198.763867 229.948123 
L 198.814885 229.948123 
L 198.866813 228.368065 
L 198.953368 228.368065 
L 199.04421 226.788007 
L 199.169456 226.788007 
L 199.22967 225.207949 
L 199.389061 225.207949 
L 199.483286 220.467774 
L 199.533773 220.467774 
L 199.604921 218.887716 
L 199.688907 218.887716 
L 199.688907 218.36103 
L 199.846175 218.36103 
L 199.945431 214.674227 
L 199.982693 214.674227 
L 200.071798 211.514111 
L 200.127996 211.514111 
L 200.236919 208.88068 
L 200.337872 208.88068 
L 200.417442 204.667192 
L 200.450811 204.667192 
L 200.546213 202.560447 
L 200.584612 202.560447 
L 200.687868 200.980389 
L 200.697874 200.980389 
L 200.697874 200.453703 
L 200.811353 200.453703 
L 200.811353 199.927017 
L 200.976213 199.927017 
L 200.976213 199.400331 
L 201.151137 199.400331 
L 201.248795 197.293586 
L 201.390831 197.293586 
L 201.501722 192.026726 
L 201.512636 192.026726 
L 201.597894 189.393295 
L 201.63495 189.393295 
L 201.734881 185.179807 
L 201.768513 185.179807 
L 201.867684 180.966318 
L 201.929048 180.966318 
L 202.004787 177.279515 
L 202.103506 177.279515 
L 202.205165 175.172771 
L 202.237466 175.172771 
L 202.333579 172.539341 
L 202.349619 172.539341 
L 202.383384 171.485969 
L 202.484719 171.485969 
L 202.522944 170.432596 
L 202.605549 170.432596 
L 202.605549 169.90591 
L 202.742502 169.90591 
L 202.764095 168.325852 
L 202.896874 168.325852 
L 202.986506 166.219108 
L 203.018645 166.219108 
L 203.102676 164.112363 
L 203.151576 164.112363 
L 203.254317 162.005619 
L 203.444984 162.005619 
L 203.495776 160.952247 
L 203.644856 160.952247 
L 203.644856 160.425561 
L 203.760333 160.425561 
L 203.850417 159.372189 
L 204.072828 159.372189 
L 204.149596 158.318817 
L 204.746207 158.318817 
L 204.746207 156.738758 
L 204.858767 156.738758 
L 204.903737 149.891839 
L 204.996311 149.891839 
L 205.100243 140.41149 
L 205.116888 140.41149 
L 205.154929 135.671315 
L 205.242879 135.671315 
L 205.25242 134.617943 
L 205.392366 134.617943 
L 205.503014 129.877768 
L 205.522531 129.877768 
L 205.629127 127.771024 
L 205.641689 127.771024 
L 205.744708 124.610907 
L 205.785675 124.610907 
L 205.801324 123.557535 
L 205.924601 123.557535 
L 205.924601 123.030849 
L 206.037545 123.030849 
L 206.06733 121.977477 
L 212.294556 121.977477 
L 212.294556 121.450791 
L 213.343013 121.450791 
L 213.444909 118.817361 
L 213.740761 118.817361 
L 213.797941 117.237302 
L 213.87374 117.237302 
L 213.915089 116.18393 
L 214.00638 116.18393 
L 214.11508 114.603872 
L 214.418965 114.603872 
L 214.496006 113.023814 
L 214.760873 113.023814 
L 214.761936 111.443755 
L 214.995777 111.443755 
L 214.995777 110.917069 
L 215.186306 110.917069 
L 215.211609 109.337011 
L 215.327283 109.337011 
L 215.433398 105.650209 
L 215.516077 105.650209 
L 215.622874 102.490092 
L 215.630565 102.490092 
L 215.739481 99.856662 
L 215.762789 99.856662 
L 215.762789 99.329976 
L 215.940791 99.329976 
L 216.033564 96.169859 
L 216.069312 96.169859 
L 216.175334 92.483056 
L 216.203942 92.483056 
L 216.279157 87.742882 
L 216.407153 87.742882 
L 216.4234 86.68951 
L 216.600751 86.68951 
L 216.615481 85.636137 
L 216.750151 85.636137 
L 216.750151 85.109451 
L 217.221691 85.109451 
L 217.221691 84.582765 
L 217.595883 84.582765 
L 217.693404 80.369277 
L 217.71173 80.369277 
L 217.813606 75.629102 
L 217.86441 75.629102 
L 217.957966 74.049044 
L 218.02829 74.049044 
L 218.02829 72.995672 
L 218.146739 72.995672 
L 218.188548 71.415613 
L 222.196269 71.415613 
L 222.196269 69.835555 
L 222.43676 69.835555 
L 222.43676 68.782183 
L 222.879065 68.782183 
L 222.963777 67.728811 
L 223.086781 67.728811 
L 223.189915 66.675439 
L 223.424033 66.675439 
L 223.456356 65.09538 
L 223.535874 65.09538 
L 223.621557 62.988636 
L 223.653644 62.988636 
L 223.692555 61.408578 
L 223.867156 61.408578 
L 223.973817 58.248461 
L 223.980837 58.248461 
L 224.037651 56.141717 
L 224.216393 56.141717 
L 224.216393 55.615031 
L 224.332373 55.615031 
L 224.332373 55.088345 
L 224.878019 55.088345 
L 224.955 50.874856 
L 225.063124 50.874856 
L 225.169059 47.71474 
L 225.260733 47.71474 
L 225.260733 47.188054 
L 228.531484 47.188054 
L 228.531484 46.661368 
L 228.673135 46.661368 
L 228.76055 45.081309 
L 228.896295 45.081309 
L 228.971212 43.501251 
L 229.260669 43.501251 
L 229.336992 41.394507 
L 229.407381 41.394507 
L 229.508738 40.341135 
L 229.617586 40.341135 
L 229.617586 39.814448 
L 229.973035 39.814448 
L 230.057017 37.707704 
L 230.133023 37.707704 
L 230.217029 36.127646 
L 232.793393 36.127646 
L 232.793393 35.60096 
L 232.970129 35.60096 
L 232.970129 35.074274 
L 233.14576 35.074274 
L 233.167683 34.020902 
L 233.399069 34.020902 
L 233.432052 32.967529 
L 233.999311 32.967529 
L 234.101407 31.914157 
L 236.11633 31.914157 
L 236.11633 31.387471 
L 236.654581 31.387471 
L 236.654581 30.860785 
L 242.356486 30.860785 
L 242.356486 30.334099 
L 338.688 30.334099 
L 338.688 30.334099 
" style="fill:none;stroke:#000000;stroke-linecap:square;stroke-width:1.5;"/>
   </g>
   <g id="line2d_44">
    <defs>
     <path d="M 0 6 
C 1.591219 6 3.117479 5.367802 4.242641 4.242641 
C 5.367802 3.117479 6 1.591219 6 0 
C 6 -1.591219 5.367802 -3.117479 4.242641 -4.242641 
C 3.117479 -5.367802 1.591219 -6 0 -6 
C -1.591219 -6 -3.117479 -5.367802 -4.242641 -4.242641 
C -5.367802 -3.117479 -6 -1.591219 -6 0 
C -6 1.591219 -5.367802 3.117479 -4.242641 4.242641 
C -3.117479 5.367802 -1.591219 6 0 6 
z
" id="mc1b6f1796c" style="stroke:#000000;stroke-width:1.5;"/>
    </defs>
    <g>
     <use style="fill-opacity:0;stroke:#000000;stroke-width:1.5;" x="201.158561" xlink:href="#mc1b6f1796c" y="197.820273"/>
     <use style="fill-opacity:0;stroke:#000000;stroke-width:1.5;" x="218.146739" xlink:href="#mc1b6f1796c" y="72.468985"/>
     <use style="fill-opacity:0;stroke:#000000;stroke-width:1.5;" x="242.356486" xlink:href="#mc1b6f1796c" y="30.334099"/>
     <use style="fill-opacity:0;stroke:#000000;stroke-width:1.5;" x="242.356486" xlink:href="#mc1b6f1796c" y="30.334099"/>
     <use style="fill-opacity:0;stroke:#000000;stroke-width:1.5;" x="338.688" xlink:href="#mc1b6f1796c" y="30.334099"/>
    </g>
   </g>
   <g id="line2d_45">
    <path style="fill:none;stroke:#000000;stroke-linecap:square;stroke-width:1.5;"/>
    <g/>
   </g>
   <g id="line2d_46">
    <path clip-path="url(#pe52ba58c8d)" d="M 206.133726 121.977477 
" style="fill:none;stroke:#000000;stroke-linecap:square;stroke-width:1.5;"/>
    <defs>
     <path d="M -12 12 
L 12 -12 
M -12 -12 
L 12 12 
" id="m287d23fa08" style="stroke:#000000;"/>
    </defs>
    <g clip-path="url(#pe52ba58c8d)">
     <use style="stroke:#000000;" x="206.133726" xlink:href="#m287d23fa08" y="121.977477"/>
    </g>
   </g>
   <g id="line2d_47">
    <defs>
     <path d="M 0 1.5 
C 0.397805 1.5 0.77937 1.341951 1.06066 1.06066 
C 1.341951 0.77937 1.5 0.397805 1.5 0 
C 1.5 -0.397805 1.341951 -0.77937 1.06066 -1.06066 
C 0.77937 -1.341951 0.397805 -1.5 0 -1.5 
C -0.397805 -1.5 -0.77937 -1.341951 -1.06066 -1.06066 
C -1.341951 -0.77937 -1.5 -0.397805 -1.5 0 
C -1.5 0.397805 -1.341951 0.77937 -1.06066 1.06066 
C -0.77937 1.341951 -0.397805 1.5 0 1.5 
z
" id="m5d16c24e18" style="stroke:#ff0000;"/>
    </defs>
    <g>
     <use style="fill:#ff0000;stroke:#ff0000;" x="273.46114" xlink:href="#m5d16c24e18" y="177.806202"/>
     <use style="fill:#ff0000;stroke:#ff0000;" x="273.46114" xlink:href="#m5d16c24e18" y="177.806202"/>
    </g>
   </g>
   <g id="line2d_48">
    <path d="M 164.272154 298.944 
L 164.272154 298.417314 
L 165.792454 298.417314 
L 165.792454 297.890628 
L 166.888852 297.890628 
L 166.888852 297.363942 
L 168.072606 297.363942 
L 168.072606 296.837256 
L 168.527503 296.837256 
L 168.527503 296.31057 
L 169.324185 296.31057 
L 169.324185 295.783884 
L 170.134217 295.783884 
L 170.211 294.730511 
L 170.337772 294.730511 
L 170.337772 294.203825 
L 171.428864 294.203825 
L 171.428864 293.677139 
L 172.528914 293.677139 
L 172.528914 293.150453 
L 172.789287 293.150453 
L 172.789287 292.623767 
L 172.96307 292.623767 
L 173.067909 291.570395 
L 173.14208 291.570395 
L 173.176739 290.517023 
L 174.689249 290.517023 
L 174.690307 289.463651 
L 175.017382 289.463651 
L 175.017382 288.936964 
L 175.379171 288.936964 
L 175.379171 288.410278 
L 175.523022 288.410278 
L 175.523022 287.883592 
L 177.27974 287.883592 
L 177.27974 287.356906 
L 177.942025 287.356906 
L 177.942025 286.83022 
L 178.662009 286.83022 
L 178.700729 285.776848 
L 178.890557 285.776848 
L 178.997519 284.723476 
L 179.089033 284.723476 
L 179.089033 284.19679 
L 179.371252 284.19679 
L 179.371252 283.670104 
L 179.87289 283.670104 
L 179.88782 282.616732 
L 180.338317 282.616732 
L 180.338317 282.090045 
L 180.463401 282.090045 
L 180.463401 281.563359 
L 181.165729 281.563359 
L 181.165729 281.036673 
L 181.286487 281.036673 
L 181.286487 280.509987 
L 181.706921 280.509987 
L 181.716118 279.456615 
L 182.625625 279.456615 
L 182.625625 278.929929 
L 182.80795 278.929929 
L 182.875585 277.876557 
L 183.137015 277.876557 
L 183.209233 276.823185 
L 183.881098 276.823185 
L 183.987601 275.769812 
L 185.152413 275.769812 
L 185.152413 275.243126 
L 185.392943 275.243126 
L 185.460979 274.189754 
L 186.20276 274.189754 
L 186.20276 273.663068 
L 187.126129 273.663068 
L 187.126129 273.136382 
L 187.289772 273.136382 
L 187.289772 272.609696 
L 187.413163 272.609696 
L 187.506279 271.029638 
L 187.646285 271.029638 
L 187.646285 270.502952 
L 187.937334 270.502952 
L 187.937334 269.976266 
L 188.741339 269.976266 
L 188.741339 269.449579 
L 188.985466 269.449579 
L 189.001775 268.396207 
L 189.376392 268.396207 
L 189.376392 267.869521 
L 189.870331 267.869521 
L 189.943296 266.289463 
L 190.060285 266.289463 
L 190.060285 265.762777 
L 190.281551 265.762777 
L 190.281551 265.236091 
L 190.418645 265.236091 
L 190.418645 264.709405 
L 191.173732 264.709405 
L 191.230799 262.60266 
L 191.443051 262.60266 
L 191.443051 262.075974 
L 191.780707 262.075974 
L 191.846512 261.022602 
L 192.378782 261.022602 
L 192.378782 260.495916 
L 192.899013 260.495916 
L 192.943655 258.915858 
L 193.37665 258.915858 
L 193.407791 257.862486 
L 193.609578 257.862486 
L 193.609578 257.3358 
L 193.809764 257.3358 
L 193.813653 256.282427 
L 193.956569 256.282427 
L 194.037364 253.122311 
L 203.131908 253.122311 
L 203.131908 252.595625 
L 203.793471 252.595625 
L 203.793471 252.068939 
L 204.202861 252.068939 
L 204.202861 250.488881 
L 204.414307 250.488881 
L 204.414307 249.962195 
L 204.802578 249.962195 
L 204.802578 249.435508 
L 205.037958 249.435508 
L 205.037958 248.908822 
L 205.505183 248.908822 
L 205.57447 246.275392 
L 205.823529 246.275392 
L 205.91701 244.168648 
L 206.089199 244.168648 
L 206.12954 241.008531 
L 212.83082 241.008531 
L 212.845068 239.955159 
L 212.994679 239.955159 
L 212.994679 239.428473 
L 213.175074 239.428473 
L 213.201955 236.268356 
L 217.275628 236.268356 
L 217.275628 235.74167 
L 217.952654 235.74167 
L 217.952654 234.688298 
L 218.199465 234.688298 
L 218.219621 231.001496 
L 221.864472 231.001496 
L 221.864472 230.47481 
L 222.09538 230.47481 
L 222.111503 226.261321 
L 225.106774 226.261321 
L 225.188017 225.207949 
L 225.277905 225.207949 
L 225.291339 223.101204 
L 227.821738 223.101204 
L 227.821738 222.574518 
L 227.968301 222.574518 
L 227.979815 218.887716 
L 230.298582 218.887716 
L 230.308656 215.727599 
L 232.244684 215.727599 
L 232.353869 213.620855 
L 234.19227 213.620855 
L 234.200329 210.987425 
L 235.76212 210.987425 
L 235.862546 208.88068 
L 237.373309 208.88068 
L 237.373309 208.353994 
L 238.769767 208.353994 
L 238.775966 204.667192 
L 240.062646 204.667192 
L 240.068402 202.033761 
L 241.271628 202.033761 
L 241.271628 200.980389 
L 242.397168 200.980389 
L 242.397168 199.927017 
L 244.446801 199.927017 
L 244.446801 199.400331 
L 245.389954 199.400331 
L 245.394196 197.293586 
L 246.288736 197.293586 
L 246.288736 196.7669 
L 247.135784 196.7669 
L 247.135784 195.186842 
L 247.947252 195.186842 
L 247.950915 193.080098 
L 249.465005 193.080098 
L 249.465005 192.026726 
L 250.180283 192.026726 
L 250.180283 191.50004 
L 251.519468 191.50004 
L 251.522453 188.866609 
L 252.153812 188.866609 
L 252.156689 187.813237 
L 253.357209 187.813237 
L 253.357209 187.286551 
L 253.931735 187.286551 
L 253.931735 186.759865 
L 255.01962 186.759865 
L 255.01962 186.233179 
L 256.53726 186.233179 
L 256.539499 185.179807 
L 257.015146 185.179807 
L 257.015146 184.653121 
L 257.933338 184.653121 
L 257.935404 183.599748 
L 258.374919 183.599748 
L 258.376934 182.546376 
L 259.22589 182.546376 
L 259.227809 181.493004 
L 262.266827 181.493004 
L 262.266827 180.439632 
L 262.950877 180.439632 
L 262.950877 179.912946 
L 263.283096 179.912946 
L 263.283096 179.38626 
L 264.855411 179.38626 
L 264.855411 178.859574 
L 270.681668 178.859574 
L 270.681668 178.332888 
L 273.46114 178.332888 
L 273.46114 177.806202 
L 338.688 177.806202 
L 338.688 177.806202 
" style="fill:none;stroke:#ff0000;stroke-linecap:square;stroke-width:1.5;"/>
   </g>
   <g id="line2d_49">
    <defs>
     <path d="M -6 6 
L 6 6 
L 6 -6 
L -6 -6 
z
" id="m5a5d36b836" style="stroke:#ff0000;stroke-linejoin:miter;stroke-width:1.5;"/>
    </defs>
    <g>
     <use style="fill-opacity:0;stroke:#ff0000;stroke-linejoin:miter;stroke-width:1.5;" x="194.037364" xlink:href="#m5a5d36b836" y="254.702369"/>
     <use style="fill-opacity:0;stroke:#ff0000;stroke-linejoin:miter;stroke-width:1.5;" x="264.855411" xlink:href="#m5a5d36b836" y="178.859574"/>
     <use style="fill-opacity:0;stroke:#ff0000;stroke-linejoin:miter;stroke-width:1.5;" x="273.46114" xlink:href="#m5a5d36b836" y="177.806202"/>
     <use style="fill-opacity:0;stroke:#ff0000;stroke-linejoin:miter;stroke-width:1.5;" x="338.688" xlink:href="#m5a5d36b836" y="177.806202"/>
    </g>
   </g>
   <g id="line2d_50">
    <path style="fill:none;stroke:#ff0000;stroke-linecap:square;stroke-width:1.5;"/>
    <g/>
   </g>
   <g id="line2d_51">
    <path clip-path="url(#pe52ba58c8d)" d="M 194.045737 253.122311 
" style="fill:none;stroke:#ff0000;stroke-linecap:square;stroke-width:1.5;"/>
    <defs>
     <path d="M -12 12 
L 12 -12 
M -12 -12 
L 12 12 
" id="md28232ba55" style="stroke:#ff0000;"/>
    </defs>
    <g clip-path="url(#pe52ba58c8d)">
     <use style="fill:#ff0000;stroke:#ff0000;" x="194.045737" xlink:href="#md28232ba55" y="253.122311"/>
    </g>
   </g>
   <g id="line2d_52">
    <defs>
     <path d="M 0 1.5 
C 0.397805 1.5 0.77937 1.341951 1.06066 1.06066 
C 1.341951 0.77937 1.5 0.397805 1.5 0 
C 1.5 -0.397805 1.341951 -0.77937 1.06066 -1.06066 
C 0.77937 -1.341951 0.397805 -1.5 0 -1.5 
C -0.397805 -1.5 -0.77937 -1.341951 -1.06066 -1.06066 
C -1.341951 -0.77937 -1.5 -0.397805 -1.5 0 
C -1.5 0.397805 -1.341951 0.77937 -1.06066 1.06066 
C -0.77937 1.341951 -0.397805 1.5 0 1.5 
z
" id="m018236ced4" style="stroke:#bf00bf;"/>
    </defs>
    <g>
     <use style="fill:#bf00bf;stroke:#bf00bf;" x="221.885652" xlink:href="#m018236ced4" y="277.876557"/>
     <use style="fill:#bf00bf;stroke:#bf00bf;" x="221.885652" xlink:href="#m018236ced4" y="277.876557"/>
    </g>
   </g>
   <g id="line2d_53">
    <path d="M 167.453153 298.944 
L 167.453153 298.417314 
L 168.563628 298.417314 
L 168.563628 297.890628 
L 168.776592 297.890628 
L 168.776592 297.363942 
L 169.274452 297.363942 
L 169.274452 296.837256 
L 169.586349 296.837256 
L 169.586349 296.31057 
L 169.996258 296.31057 
L 169.996258 295.783884 
L 170.924712 295.783884 
L 170.924712 295.257197 
L 171.462641 295.257197 
L 171.462641 294.730511 
L 171.494446 294.730511 
L 171.494446 294.203825 
L 171.908924 294.203825 
L 171.908924 293.677139 
L 172.040612 293.677139 
L 172.040612 293.150453 
L 173.365571 293.150453 
L 173.365571 292.623767 
L 174.796334 292.623767 
L 174.796334 292.097081 
L 174.838355 292.097081 
L 174.838355 291.570395 
L 175.637154 291.570395 
L 175.637154 291.043709 
L 176.262267 291.043709 
L 176.262267 290.517023 
L 176.655241 290.517023 
L 176.655241 289.990337 
L 176.810547 289.990337 
L 176.810547 289.463651 
L 176.835362 289.463651 
L 176.835362 288.936964 
L 177.314369 288.936964 
L 177.314369 288.410278 
L 177.349383 288.410278 
L 177.349383 287.883592 
L 177.735751 287.883592 
L 177.735751 287.356906 
L 179.408431 287.356906 
L 179.408431 286.83022 
L 179.536734 286.83022 
L 179.536734 286.303534 
L 179.769598 286.303534 
L 179.769598 285.776848 
L 180.448955 285.776848 
L 180.448955 285.250162 
L 180.700042 285.250162 
L 180.700042 284.723476 
L 181.900104 284.723476 
L 181.900104 284.19679 
L 190.846847 284.19679 
L 190.846847 283.670104 
L 192.81762 283.670104 
L 192.81762 283.143418 
L 192.877208 283.143418 
L 192.877208 282.090045 
L 192.985959 282.090045 
L 192.985959 281.563359 
L 193.307653 281.563359 
L 193.307653 281.036673 
L 199.887393 281.036673 
L 199.887393 280.509987 
L 200.307696 280.509987 
L 200.307696 279.983301 
L 200.417442 279.983301 
L 200.417442 278.929929 
L 212.858593 278.929929 
L 212.858593 278.403243 
L 221.885652 278.403243 
L 221.885652 277.876557 
L 338.688 277.876557 
" style="fill:none;stroke:#bf00bf;stroke-linecap:square;stroke-width:1.5;"/>
   </g>
   <g id="line2d_54">
    <defs>
     <path d="M 0 8.485281 
L 8.485281 0 
L 0 -8.485281 
L -8.485281 0 
z
" id="mb746310e23" style="stroke:#bf00bf;stroke-linejoin:miter;stroke-width:1.5;"/>
    </defs>
    <g>
     <use style="fill-opacity:0;stroke:#bf00bf;stroke-linejoin:miter;stroke-width:1.5;" x="221.885652" xlink:href="#mb746310e23" y="278.403243"/>
     <use style="fill-opacity:0;stroke:#bf00bf;stroke-linejoin:miter;stroke-width:1.5;" x="221.885652" xlink:href="#mb746310e23" y="277.876557"/>
     <use style="fill-opacity:0;stroke:#bf00bf;stroke-linejoin:miter;stroke-width:1.5;" x="221.885652" xlink:href="#mb746310e23" y="277.876557"/>
     <use style="fill-opacity:0;stroke:#bf00bf;stroke-linejoin:miter;stroke-width:1.5;" x="338.688" xlink:href="#mb746310e23" y="277.876557"/>
    </g>
   </g>
   <g id="line2d_55">
    <path style="fill:none;stroke:#bf00bf;stroke-linecap:square;stroke-width:1.5;"/>
    <g/>
   </g>
   <g id="line2d_56">
    <path clip-path="url(#pe52ba58c8d)" d="M 181.957749 284.19679 
" style="fill:none;stroke:#bf00bf;stroke-linecap:square;stroke-width:1.5;"/>
    <defs>
     <path d="M -12 12 
L 12 -12 
M -12 -12 
L 12 12 
" id="m44b973d3e9" style="stroke:#bf00bf;"/>
    </defs>
    <g clip-path="url(#pe52ba58c8d)">
     <use style="fill:#bf00bf;stroke:#bf00bf;" x="181.957749" xlink:href="#m44b973d3e9" y="284.19679"/>
    </g>
   </g>
   <g id="line2d_57">
    <path d="M 338.688 277.876557 
L 369.60768 293.571802 
" style="fill:none;stroke:#bf00bf;stroke-linecap:square;stroke-width:1.5;"/>
    <g>
     <use style="fill-opacity:0;stroke:#bf00bf;stroke-linejoin:miter;stroke-width:1.5;" x="338.688" xlink:href="#mb746310e23" y="277.876557"/>
     <use style="fill-opacity:0;stroke:#bf00bf;stroke-linejoin:miter;stroke-width:1.5;" x="369.60768" xlink:href="#mb746310e23" y="293.571802"/>
    </g>
   </g>
   <g id="line2d_58">
    <path d="M 338.688 177.806202 
L 369.60768 241.998701 
" style="fill:none;stroke:#ff0000;stroke-linecap:square;stroke-width:1.5;"/>
    <g>
     <use style="fill-opacity:0;stroke:#ff0000;stroke-linejoin:miter;stroke-width:1.5;" x="338.688" xlink:href="#m5a5d36b836" y="177.806202"/>
     <use style="fill-opacity:0;stroke:#ff0000;stroke-linejoin:miter;stroke-width:1.5;" x="369.60768" xlink:href="#m5a5d36b836" y="241.998701"/>
    </g>
   </g>
   <g id="line2d_59">
    <path d="M 338.688 30.334099 
L 369.60768 190.4256 
" style="fill:none;stroke:#000000;stroke-linecap:square;stroke-width:1.5;"/>
    <g>
     <use style="fill-opacity:0;stroke:#000000;stroke-width:1.5;" x="338.688" xlink:href="#mc1b6f1796c" y="30.334099"/>
     <use style="fill-opacity:0;stroke:#000000;stroke-width:1.5;" x="369.60768" xlink:href="#mc1b6f1796c" y="190.4256"/>
    </g>
   </g>
   <g id="line2d_60">
    <path d="M 338.688 30.334099 
L 369.60768 138.852499 
" style="fill:none;stroke:#0000ff;stroke-linecap:square;stroke-width:1.5;"/>
    <g>
     <use style="fill-opacity:0;stroke:#0000ff;stroke-linejoin:bevel;stroke-width:1.5;" x="338.688" xlink:href="#m9bcadfb0ed" y="30.334099"/>
     <use style="fill-opacity:0;stroke:#0000ff;stroke-linejoin:bevel;stroke-width:1.5;" x="369.60768" xlink:href="#m9bcadfb0ed" y="138.852499"/>
    </g>
   </g>
   <g id="line2d_61">
    <path d="M 338.688 30.334099 
L 369.60768 87.279398 
" style="fill:none;stroke:#008000;stroke-linecap:square;stroke-width:1.5;"/>
    <g>
     <use style="fill-opacity:0;stroke:#008000;stroke-linejoin:miter;stroke-width:1.5;" x="338.688" xlink:href="#m786eda460b" y="30.334099"/>
     <use style="fill-opacity:0;stroke:#008000;stroke-linejoin:miter;stroke-width:1.5;" x="369.60768" xlink:href="#m786eda460b" y="87.279398"/>
    </g>
   </g>
   <g id="line2d_62">
    <path d="M 338.688 30.334099 
L 369.60768 35.706297 
" style="fill:none;stroke:#00bfbf;stroke-linecap:square;stroke-width:1.5;"/>
    <g>
     <use style="fill-opacity:0;stroke:#00bfbf;stroke-width:1.5;" x="338.688" xlink:href="#mdf72c86e75" y="30.334099"/>
     <use style="fill-opacity:0;stroke:#00bfbf;stroke-width:1.5;" x="369.60768" xlink:href="#mdf72c86e75" y="35.706297"/>
    </g>
   </g>
   <g id="line2d_63">
    <path d="M 338.688 298.944 
L 338.688 30.334099 
" style="fill:none;stroke:#000000;stroke-linecap:square;stroke-width:1.5;"/>
   </g>
   <g id="patch_3">
    <path d="M 57.6 298.944 
L 57.6 27.648 
" style="fill:none;stroke:#000000;stroke-linecap:square;stroke-linejoin:miter;stroke-width:0.8;"/>
   </g>
   <g id="patch_4">
    <path d="M 338.688 298.944 
L 338.688 27.648 
" style="fill:none;stroke:#000000;stroke-linecap:square;stroke-linejoin:miter;stroke-width:0.8;"/>
   </g>
   <g id="patch_5">
    <path d="M 57.6 298.944 
L 338.688 298.944 
" style="fill:none;stroke:#000000;stroke-linecap:square;stroke-linejoin:miter;stroke-width:0.8;"/>
   </g>
   <g id="patch_6">
    <path d="M 57.6 27.648 
L 338.688 27.648 
" style="fill:none;stroke:#000000;stroke-linecap:square;stroke-linejoin:miter;stroke-width:0.8;"/>
   </g>
   <g id="text_13">
    <!-- 40-D -->
    <g transform="translate(375.22944 298.262739)scale(0.17 -0.17)">
     <defs>
      <path d="M 1259 4147 
L 1259 519 
L 2022 519 
Q 2988 519 3436 956 
Q 3884 1394 3884 2338 
Q 3884 3275 3436 3711 
Q 2988 4147 2022 4147 
L 1259 4147 
z
M 628 4666 
L 1925 4666 
Q 3281 4666 3915 4102 
Q 4550 3538 4550 2338 
Q 4550 1131 3912 565 
Q 3275 0 1925 0 
L 628 0 
L 628 4666 
z
" id="DejaVuSans-44" transform="scale(0.015625)"/>
     </defs>
     <use xlink:href="#DejaVuSans-34"/>
     <use x="63.623047" xlink:href="#DejaVuSans-30"/>
     <use x="127.246094" xlink:href="#DejaVuSans-2d"/>
     <use x="163.330078" xlink:href="#DejaVuSans-44"/>
    </g>
   </g>
   <g id="text_14">
    <!-- 20-D -->
    <g transform="translate(375.22944 246.689638)scale(0.17 -0.17)">
     <use xlink:href="#DejaVuSans-32"/>
     <use x="63.623047" xlink:href="#DejaVuSans-30"/>
     <use x="127.246094" xlink:href="#DejaVuSans-2d"/>
     <use x="163.330078" xlink:href="#DejaVuSans-44"/>
    </g>
   </g>
   <g id="text_15">
    <!-- 10-D -->
    <g transform="translate(375.22944 195.116537)scale(0.17 -0.17)">
     <use xlink:href="#DejaVuSans-31"/>
     <use x="63.623047" xlink:href="#DejaVuSans-30"/>
     <use x="127.246094" xlink:href="#DejaVuSans-2d"/>
     <use x="163.330078" xlink:href="#DejaVuSans-44"/>
    </g>
   </g>
   <g id="text_16">
    <!-- 5-D -->
    <g transform="translate(375.22944 143.543437)scale(0.17 -0.17)">
     <defs>
      <path d="M 691 4666 
L 3169 4666 
L 3169 4134 
L 1269 4134 
L 1269 2991 
Q 1406 3038 1543 3061 
Q 1681 3084 1819 3084 
Q 2600 3084 3056 2656 
Q 3513 2228 3513 1497 
Q 3513 744 3044 326 
Q 2575 -91 1722 -91 
Q 1428 -91 1123 -41 
Q 819 9 494 109 
L 494 744 
Q 775 591 1075 516 
Q 1375 441 1709 441 
Q 2250 441 2565 725 
Q 2881 1009 2881 1497 
Q 2881 1984 2565 2268 
Q 2250 2553 1709 2553 
Q 1456 2553 1204 2497 
Q 953 2441 691 2322 
L 691 4666 
z
" id="DejaVuSans-35" transform="scale(0.015625)"/>
     </defs>
     <use xlink:href="#DejaVuSans-35"/>
     <use x="63.623047" xlink:href="#DejaVuSans-2d"/>
     <use x="99.707031" xlink:href="#DejaVuSans-44"/>
    </g>
   </g>
   <g id="text_17">
    <!-- 3-D -->
    <g transform="translate(375.22944 91.970336)scale(0.17 -0.17)">
     <defs>
      <path d="M 2597 2516 
Q 3050 2419 3304 2112 
Q 3559 1806 3559 1356 
Q 3559 666 3084 287 
Q 2609 -91 1734 -91 
Q 1441 -91 1130 -33 
Q 819 25 488 141 
L 488 750 
Q 750 597 1062 519 
Q 1375 441 1716 441 
Q 2309 441 2620 675 
Q 2931 909 2931 1356 
Q 2931 1769 2642 2001 
Q 2353 2234 1838 2234 
L 1294 2234 
L 1294 2753 
L 1863 2753 
Q 2328 2753 2575 2939 
Q 2822 3125 2822 3475 
Q 2822 3834 2567 4026 
Q 2313 4219 1838 4219 
Q 1578 4219 1281 4162 
Q 984 4106 628 3988 
L 628 4550 
Q 988 4650 1302 4700 
Q 1616 4750 1894 4750 
Q 2613 4750 3031 4423 
Q 3450 4097 3450 3541 
Q 3450 3153 3228 2886 
Q 3006 2619 2597 2516 
z
" id="DejaVuSans-33" transform="scale(0.015625)"/>
     </defs>
     <use xlink:href="#DejaVuSans-33"/>
     <use x="63.623047" xlink:href="#DejaVuSans-2d"/>
     <use x="99.707031" xlink:href="#DejaVuSans-44"/>
    </g>
   </g>
   <g id="text_18">
    <!-- 2-D -->
    <g transform="translate(375.22944 40.397235)scale(0.17 -0.17)">
     <use xlink:href="#DejaVuSans-32"/>
     <use x="63.623047" xlink:href="#DejaVuSans-2d"/>
     <use x="99.707031" xlink:href="#DejaVuSans-44"/>
    </g>
   </g>
   <g id="text_19">
    <!-- bbob f3 -->
    <g transform="translate(60.41088 38.111366)scale(0.102 -0.102)">
     <defs>
      <path d="M 3116 1747 
Q 3116 2381 2855 2742 
Q 2594 3103 2138 3103 
Q 1681 3103 1420 2742 
Q 1159 2381 1159 1747 
Q 1159 1113 1420 752 
Q 1681 391 2138 391 
Q 2594 391 2855 752 
Q 3116 1113 3116 1747 
z
M 1159 2969 
Q 1341 3281 1617 3432 
Q 1894 3584 2278 3584 
Q 2916 3584 3314 3078 
Q 3713 2572 3713 1747 
Q 3713 922 3314 415 
Q 2916 -91 2278 -91 
Q 1894 -91 1617 61 
Q 1341 213 1159 525 
L 1159 0 
L 581 0 
L 581 4863 
L 1159 4863 
L 1159 2969 
z
" id="DejaVuSans-62" transform="scale(0.015625)"/>
     </defs>
     <use xlink:href="#DejaVuSans-62"/>
     <use x="63.476562" xlink:href="#DejaVuSans-62"/>
     <use x="126.953125" xlink:href="#DejaVuSans-6f"/>
     <use x="188.134766" xlink:href="#DejaVuSans-62"/>
     <use x="251.611328" xlink:href="#DejaVuSans-20"/>
     <use x="283.398438" xlink:href="#DejaVuSans-66"/>
     <use x="318.603516" xlink:href="#DejaVuSans-33"/>
    </g>
    <!-- 51 targets: 100..1e-08 -->
    <g transform="translate(60.41088 49.533135)scale(0.102 -0.102)">
     <defs>
      <path d="M 750 794 
L 1409 794 
L 1409 0 
L 750 0 
L 750 794 
z
M 750 3309 
L 1409 3309 
L 1409 2516 
L 750 2516 
L 750 3309 
z
" id="DejaVuSans-3a" transform="scale(0.015625)"/>
     </defs>
     <use xlink:href="#DejaVuSans-35"/>
     <use x="63.623047" xlink:href="#DejaVuSans-31"/>
     <use x="127.246094" xlink:href="#DejaVuSans-20"/>
     <use x="159.033203" xlink:href="#DejaVuSans-74"/>
     <use x="198.242188" xlink:href="#DejaVuSans-61"/>
     <use x="259.521484" xlink:href="#DejaVuSans-72"/>
     <use x="298.884766" xlink:href="#DejaVuSans-67"/>
     <use x="362.361328" xlink:href="#DejaVuSans-65"/>
     <use x="423.884766" xlink:href="#DejaVuSans-74"/>
     <use x="463.09375" xlink:href="#DejaVuSans-73"/>
     <use x="515.193359" xlink:href="#DejaVuSans-3a"/>
     <use x="548.884766" xlink:href="#DejaVuSans-20"/>
     <use x="580.671875" xlink:href="#DejaVuSans-31"/>
     <use x="644.294922" xlink:href="#DejaVuSans-30"/>
     <use x="707.917969" xlink:href="#DejaVuSans-30"/>
     <use x="771.541016" xlink:href="#DejaVuSans-2e"/>
     <use x="803.328125" xlink:href="#DejaVuSans-2e"/>
     <use x="835.115234" xlink:href="#DejaVuSans-31"/>
     <use x="898.738281" xlink:href="#DejaVuSans-65"/>
     <use x="960.261719" xlink:href="#DejaVuSans-2d"/>
     <use x="996.345703" xlink:href="#DejaVuSans-30"/>
     <use x="1059.96875" xlink:href="#DejaVuSans-38"/>
    </g>
    <!-- 15 instances -->
    <g transform="translate(60.41088 60.954904)scale(0.102 -0.102)">
     <use xlink:href="#DejaVuSans-31"/>
     <use x="63.623047" xlink:href="#DejaVuSans-35"/>
     <use x="127.246094" xlink:href="#DejaVuSans-20"/>
     <use x="159.033203" xlink:href="#DejaVuSans-69"/>
     <use x="186.816406" xlink:href="#DejaVuSans-6e"/>
     <use x="250.195312" xlink:href="#DejaVuSans-73"/>
     <use x="302.294922" xlink:href="#DejaVuSans-74"/>
     <use x="341.503906" xlink:href="#DejaVuSans-61"/>
     <use x="402.783203" xlink:href="#DejaVuSans-6e"/>
     <use x="466.162109" xlink:href="#DejaVuSans-63"/>
     <use x="521.142578" xlink:href="#DejaVuSans-65"/>
     <use x="582.666016" xlink:href="#DejaVuSans-73"/>
    </g>
   </g>
   <g id="text_20">
    <!-- v2.4 -->
    <g style="fill:#808080;" transform="translate(187.233062 294.151352)scale(0.1 -0.1)">
     <use xlink:href="#DejaVuSans-76"/>
     <use x="59.179688" xlink:href="#DejaVuSans-32"/>
     <use x="122.802734" xlink:href="#DejaVuSans-2e"/>
     <use x="154.589844" xlink:href="#DejaVuSans-34"/>
    </g>
   </g>
   <g id="text_21">
    <!-- 3 Rastrigin separable -->
    <g transform="translate(91.733062 21.648)scale(0.2 -0.2)">
     <defs>
      <path d="M 2841 2188 
Q 3044 2119 3236 1894 
Q 3428 1669 3622 1275 
L 4263 0 
L 3584 0 
L 2988 1197 
Q 2756 1666 2539 1819 
Q 2322 1972 1947 1972 
L 1259 1972 
L 1259 0 
L 628 0 
L 628 4666 
L 2053 4666 
Q 2853 4666 3247 4331 
Q 3641 3997 3641 3322 
Q 3641 2881 3436 2590 
Q 3231 2300 2841 2188 
z
M 1259 4147 
L 1259 2491 
L 2053 2491 
Q 2509 2491 2742 2702 
Q 2975 2913 2975 3322 
Q 2975 3731 2742 3939 
Q 2509 4147 2053 4147 
L 1259 4147 
z
" id="DejaVuSans-52" transform="scale(0.015625)"/>
     </defs>
     <use xlink:href="#DejaVuSans-33"/>
     <use x="63.623047" xlink:href="#DejaVuSans-20"/>
     <use x="95.410156" xlink:href="#DejaVuSans-52"/>
     <use x="162.642578" xlink:href="#DejaVuSans-61"/>
     <use x="223.921875" xlink:href="#DejaVuSans-73"/>
     <use x="276.021484" xlink:href="#DejaVuSans-74"/>
     <use x="315.230469" xlink:href="#DejaVuSans-72"/>
     <use x="356.34375" xlink:href="#DejaVuSans-69"/>
     <use x="384.126953" xlink:href="#DejaVuSans-67"/>
     <use x="447.603516" xlink:href="#DejaVuSans-69"/>
     <use x="475.386719" xlink:href="#DejaVuSans-6e"/>
     <use x="538.765625" xlink:href="#DejaVuSans-20"/>
     <use x="570.552734" xlink:href="#DejaVuSans-73"/>
     <use x="622.652344" xlink:href="#DejaVuSans-65"/>
     <use x="684.175781" xlink:href="#DejaVuSans-70"/>
     <use x="747.652344" xlink:href="#DejaVuSans-61"/>
     <use x="808.931641" xlink:href="#DejaVuSans-72"/>
     <use x="850.044922" xlink:href="#DejaVuSans-61"/>
     <use x="911.324219" xlink:href="#DejaVuSans-62"/>
     <use x="974.800781" xlink:href="#DejaVuSans-6c"/>
     <use x="1002.583984" xlink:href="#DejaVuSans-65"/>
    </g>
   </g>
  </g>
 </g>
 <defs>
  <clipPath id="pe52ba58c8d">
   <rect height="271.296" width="281.088" x="57.6" y="27.648"/>
  </clipPath>
 </defs>
</svg>
