<?xml version="1.0" encoding="utf-8" standalone="no"?>
<!DOCTYPE svg PUBLIC "-//W3C//DTD SVG 1.1//EN"
  "http://www.w3.org/Graphics/SVG/1.1/DTD/svg11.dtd">
<svg height="345.6pt" version="1.1" viewBox="0 0 460.8 345.6" width="460.8pt" xmlns="http://www.w3.org/2000/svg" xmlns:xlink="http://www.w3.org/1999/xlink">
 <metadata>
  <rdf:RDF xmlns:cc="http://creativecommons.org/ns#" xmlns:dc="http://purl.org/dc/elements/1.1/" xmlns:rdf="http://www.w3.org/1999/02/22-rdf-syntax-ns#">
   <cc:Work>
    <dc:type rdf:resource="http://purl.org/dc/dcmitype/StillImage"/>
    <dc:date>2021-04-26T18:50:34.178199</dc:date>
    <dc:format>image/svg+xml</dc:format>
    <dc:creator>
     <cc:Agent>
      <dc:title>Matplotlib v3.4.1, https://matplotlib.org/</dc:title>
     </cc:Agent>
    </dc:creator>
   </cc:Work>
  </rdf:RDF>
 </metadata>
 <defs>
  <style type="text/css">*{stroke-linecap:butt;stroke-linejoin:round;}</style>
 </defs>
 <g id="figure_1">
  <g id="patch_1">
   <path d="M 0 345.6 
L 460.8 345.6 
L 460.8 0 
L 0 0 
z
" style="fill:#ffffff;"/>
  </g>
  <g id="axes_1">
   <g id="patch_2">
    <path d="M 57.6 298.944 
L 338.688 298.944 
L 338.688 3.456 
L 57.6 3.456 
z
" style="fill:#ffffff;"/>
   </g>
   <g id="matplotlib.axis_1">
    <g id="xtick_1">
     <g id="line2d_1">
      <path clip-path="url(#paaa93fdc56)" d="M 57.6 298.944 
L 57.6 3.456 
" style="fill:none;stroke:#b0b0b0;stroke-linecap:square;stroke-width:0.8;"/>
     </g>
     <g id="line2d_2">
      <defs>
       <path d="M 0 0 
L 0 3.5 
" id="m83d4eb7437" style="stroke:#000000;stroke-width:0.8;"/>
      </defs>
      <g>
       <use style="stroke:#000000;stroke-width:0.8;" x="57.6" xlink:href="#m83d4eb7437" y="298.944"/>
      </g>
     </g>
     <g id="text_1">
      <!-- 0 -->
      <g transform="translate(51.2375 321.140875)scale(0.2 -0.2)">
       <defs>
        <path d="M 2034 4250 
Q 1547 4250 1301 3770 
Q 1056 3291 1056 2328 
Q 1056 1369 1301 889 
Q 1547 409 2034 409 
Q 2525 409 2770 889 
Q 3016 1369 3016 2328 
Q 3016 3291 2770 3770 
Q 2525 4250 2034 4250 
z
M 2034 4750 
Q 2819 4750 3233 4129 
Q 3647 3509 3647 2328 
Q 3647 1150 3233 529 
Q 2819 -91 2034 -91 
Q 1250 -91 836 529 
Q 422 1150 422 2328 
Q 422 3509 836 4129 
Q 1250 4750 2034 4750 
z
" id="DejaVuSans-30" transform="scale(0.015625)"/>
       </defs>
       <use xlink:href="#DejaVuSans-30"/>
      </g>
     </g>
    </g>
    <g id="xtick_2">
     <g id="line2d_3">
      <path clip-path="url(#paaa93fdc56)" d="M 137.910857 298.944 
L 137.910857 3.456 
" style="fill:none;stroke:#b0b0b0;stroke-linecap:square;stroke-width:0.8;"/>
     </g>
     <g id="line2d_4">
      <g>
       <use style="stroke:#000000;stroke-width:0.8;" x="137.910857" xlink:href="#m83d4eb7437" y="298.944"/>
      </g>
     </g>
     <g id="text_2">
      <!-- 2 -->
      <g transform="translate(131.548357 321.140875)scale(0.2 -0.2)">
       <defs>
        <path d="M 1228 531 
L 3431 531 
L 3431 0 
L 469 0 
L 469 531 
Q 828 903 1448 1529 
Q 2069 2156 2228 2338 
Q 2531 2678 2651 2914 
Q 2772 3150 2772 3378 
Q 2772 3750 2511 3984 
Q 2250 4219 1831 4219 
Q 1534 4219 1204 4116 
Q 875 4013 500 3803 
L 500 4441 
Q 881 4594 1212 4672 
Q 1544 4750 1819 4750 
Q 2544 4750 2975 4387 
Q 3406 4025 3406 3419 
Q 3406 3131 3298 2873 
Q 3191 2616 2906 2266 
Q 2828 2175 2409 1742 
Q 1991 1309 1228 531 
z
" id="DejaVuSans-32" transform="scale(0.015625)"/>
       </defs>
       <use xlink:href="#DejaVuSans-32"/>
      </g>
     </g>
    </g>
    <g id="xtick_3">
     <g id="line2d_5">
      <path clip-path="url(#paaa93fdc56)" d="M 218.221714 298.944 
L 218.221714 3.456 
" style="fill:none;stroke:#b0b0b0;stroke-linecap:square;stroke-width:0.8;"/>
     </g>
     <g id="line2d_6">
      <g>
       <use style="stroke:#000000;stroke-width:0.8;" x="218.221714" xlink:href="#m83d4eb7437" y="298.944"/>
      </g>
     </g>
     <g id="text_3">
      <!-- 4 -->
      <g transform="translate(211.859214 321.140875)scale(0.2 -0.2)">
       <defs>
        <path d="M 2419 4116 
L 825 1625 
L 2419 1625 
L 2419 4116 
z
M 2253 4666 
L 3047 4666 
L 3047 1625 
L 3713 1625 
L 3713 1100 
L 3047 1100 
L 3047 0 
L 2419 0 
L 2419 1100 
L 313 1100 
L 313 1709 
L 2253 4666 
z
" id="DejaVuSans-34" transform="scale(0.015625)"/>
       </defs>
       <use xlink:href="#DejaVuSans-34"/>
      </g>
     </g>
    </g>
    <g id="xtick_4">
     <g id="line2d_7">
      <path clip-path="url(#paaa93fdc56)" d="M 298.532571 298.944 
L 298.532571 3.456 
" style="fill:none;stroke:#b0b0b0;stroke-linecap:square;stroke-width:0.8;"/>
     </g>
     <g id="line2d_8">
      <g>
       <use style="stroke:#000000;stroke-width:0.8;" x="298.532571" xlink:href="#m83d4eb7437" y="298.944"/>
      </g>
     </g>
     <g id="text_4">
      <!-- 6 -->
      <g transform="translate(292.170071 321.140875)scale(0.2 -0.2)">
       <defs>
        <path d="M 2113 2584 
Q 1688 2584 1439 2293 
Q 1191 2003 1191 1497 
Q 1191 994 1439 701 
Q 1688 409 2113 409 
Q 2538 409 2786 701 
Q 3034 994 3034 1497 
Q 3034 2003 2786 2293 
Q 2538 2584 2113 2584 
z
M 3366 4563 
L 3366 3988 
Q 3128 4100 2886 4159 
Q 2644 4219 2406 4219 
Q 1781 4219 1451 3797 
Q 1122 3375 1075 2522 
Q 1259 2794 1537 2939 
Q 1816 3084 2150 3084 
Q 2853 3084 3261 2657 
Q 3669 2231 3669 1497 
Q 3669 778 3244 343 
Q 2819 -91 2113 -91 
Q 1303 -91 875 529 
Q 447 1150 447 2328 
Q 447 3434 972 4092 
Q 1497 4750 2381 4750 
Q 2619 4750 2861 4703 
Q 3103 4656 3366 4563 
z
" id="DejaVuSans-36" transform="scale(0.015625)"/>
       </defs>
       <use xlink:href="#DejaVuSans-36"/>
      </g>
     </g>
    </g>
    <g id="xtick_5">
     <g id="line2d_9">
      <path clip-path="url(#paaa93fdc56)" d="M 97.755429 298.944 
L 97.755429 3.456 
" style="fill:none;stroke:#b0b0b0;stroke-linecap:square;stroke-width:0.8;"/>
     </g>
     <g id="line2d_10">
      <defs>
       <path d="M 0 0 
L 0 2 
" id="mda9fa4bd04" style="stroke:#000000;stroke-width:0.6;"/>
      </defs>
      <g>
       <use style="stroke:#000000;stroke-width:0.6;" x="97.755429" xlink:href="#mda9fa4bd04" y="298.944"/>
      </g>
     </g>
    </g>
    <g id="xtick_6">
     <g id="line2d_11">
      <path clip-path="url(#paaa93fdc56)" d="M 178.066286 298.944 
L 178.066286 3.456 
" style="fill:none;stroke:#b0b0b0;stroke-linecap:square;stroke-width:0.8;"/>
     </g>
     <g id="line2d_12">
      <g>
       <use style="stroke:#000000;stroke-width:0.6;" x="178.066286" xlink:href="#mda9fa4bd04" y="298.944"/>
      </g>
     </g>
    </g>
    <g id="xtick_7">
     <g id="line2d_13">
      <path clip-path="url(#paaa93fdc56)" d="M 258.377143 298.944 
L 258.377143 3.456 
" style="fill:none;stroke:#b0b0b0;stroke-linecap:square;stroke-width:0.8;"/>
     </g>
     <g id="line2d_14">
      <g>
       <use style="stroke:#000000;stroke-width:0.6;" x="258.377143" xlink:href="#mda9fa4bd04" y="298.944"/>
      </g>
     </g>
    </g>
    <g id="xtick_8">
     <g id="line2d_15">
      <path clip-path="url(#paaa93fdc56)" d="M 338.688 298.944 
L 338.688 3.456 
" style="fill:none;stroke:#b0b0b0;stroke-linecap:square;stroke-width:0.8;"/>
     </g>
     <g id="line2d_16">
      <g>
       <use style="stroke:#000000;stroke-width:0.6;" x="338.688" xlink:href="#mda9fa4bd04" y="298.944"/>
      </g>
     </g>
    </g>
    <g id="text_5">
     <!-- log10(# f-evals / dimension) -->
     <g transform="translate(77.764078 342.217594)scale(0.17 -0.17)">
      <defs>
       <path d="M 603 4863 
L 1178 4863 
L 1178 0 
L 603 0 
L 603 4863 
z
" id="DejaVuSans-6c" transform="scale(0.015625)"/>
       <path d="M 1959 3097 
Q 1497 3097 1228 2736 
Q 959 2375 959 1747 
Q 959 1119 1226 758 
Q 1494 397 1959 397 
Q 2419 397 2687 759 
Q 2956 1122 2956 1747 
Q 2956 2369 2687 2733 
Q 2419 3097 1959 3097 
z
M 1959 3584 
Q 2709 3584 3137 3096 
Q 3566 2609 3566 1747 
Q 3566 888 3137 398 
Q 2709 -91 1959 -91 
Q 1206 -91 779 398 
Q 353 888 353 1747 
Q 353 2609 779 3096 
Q 1206 3584 1959 3584 
z
" id="DejaVuSans-6f" transform="scale(0.015625)"/>
       <path d="M 2906 1791 
Q 2906 2416 2648 2759 
Q 2391 3103 1925 3103 
Q 1463 3103 1205 2759 
Q 947 2416 947 1791 
Q 947 1169 1205 825 
Q 1463 481 1925 481 
Q 2391 481 2648 825 
Q 2906 1169 2906 1791 
z
M 3481 434 
Q 3481 -459 3084 -895 
Q 2688 -1331 1869 -1331 
Q 1566 -1331 1297 -1286 
Q 1028 -1241 775 -1147 
L 775 -588 
Q 1028 -725 1275 -790 
Q 1522 -856 1778 -856 
Q 2344 -856 2625 -561 
Q 2906 -266 2906 331 
L 2906 616 
Q 2728 306 2450 153 
Q 2172 0 1784 0 
Q 1141 0 747 490 
Q 353 981 353 1791 
Q 353 2603 747 3093 
Q 1141 3584 1784 3584 
Q 2172 3584 2450 3431 
Q 2728 3278 2906 2969 
L 2906 3500 
L 3481 3500 
L 3481 434 
z
" id="DejaVuSans-67" transform="scale(0.015625)"/>
       <path d="M 794 531 
L 1825 531 
L 1825 4091 
L 703 3866 
L 703 4441 
L 1819 4666 
L 2450 4666 
L 2450 531 
L 3481 531 
L 3481 0 
L 794 0 
L 794 531 
z
" id="DejaVuSans-31" transform="scale(0.015625)"/>
       <path d="M 1984 4856 
Q 1566 4138 1362 3434 
Q 1159 2731 1159 2009 
Q 1159 1288 1364 580 
Q 1569 -128 1984 -844 
L 1484 -844 
Q 1016 -109 783 600 
Q 550 1309 550 2009 
Q 550 2706 781 3412 
Q 1013 4119 1484 4856 
L 1984 4856 
z
" id="DejaVuSans-28" transform="scale(0.015625)"/>
       <path d="M 3272 2816 
L 2363 2816 
L 2100 1772 
L 3016 1772 
L 3272 2816 
z
M 2803 4594 
L 2478 3297 
L 3391 3297 
L 3719 4594 
L 4219 4594 
L 3897 3297 
L 4872 3297 
L 4872 2816 
L 3775 2816 
L 3519 1772 
L 4513 1772 
L 4513 1294 
L 3397 1294 
L 3072 0 
L 2572 0 
L 2894 1294 
L 1978 1294 
L 1656 0 
L 1153 0 
L 1478 1294 
L 494 1294 
L 494 1772 
L 1594 1772 
L 1856 2816 
L 850 2816 
L 850 3297 
L 1978 3297 
L 2297 4594 
L 2803 4594 
z
" id="DejaVuSans-23" transform="scale(0.015625)"/>
       <path id="DejaVuSans-20" transform="scale(0.015625)"/>
       <path d="M 2375 4863 
L 2375 4384 
L 1825 4384 
Q 1516 4384 1395 4259 
Q 1275 4134 1275 3809 
L 1275 3500 
L 2222 3500 
L 2222 3053 
L 1275 3053 
L 1275 0 
L 697 0 
L 697 3053 
L 147 3053 
L 147 3500 
L 697 3500 
L 697 3744 
Q 697 4328 969 4595 
Q 1241 4863 1831 4863 
L 2375 4863 
z
" id="DejaVuSans-66" transform="scale(0.015625)"/>
       <path d="M 313 2009 
L 1997 2009 
L 1997 1497 
L 313 1497 
L 313 2009 
z
" id="DejaVuSans-2d" transform="scale(0.015625)"/>
       <path d="M 3597 1894 
L 3597 1613 
L 953 1613 
Q 991 1019 1311 708 
Q 1631 397 2203 397 
Q 2534 397 2845 478 
Q 3156 559 3463 722 
L 3463 178 
Q 3153 47 2828 -22 
Q 2503 -91 2169 -91 
Q 1331 -91 842 396 
Q 353 884 353 1716 
Q 353 2575 817 3079 
Q 1281 3584 2069 3584 
Q 2775 3584 3186 3129 
Q 3597 2675 3597 1894 
z
M 3022 2063 
Q 3016 2534 2758 2815 
Q 2500 3097 2075 3097 
Q 1594 3097 1305 2825 
Q 1016 2553 972 2059 
L 3022 2063 
z
" id="DejaVuSans-65" transform="scale(0.015625)"/>
       <path d="M 191 3500 
L 800 3500 
L 1894 563 
L 2988 3500 
L 3597 3500 
L 2284 0 
L 1503 0 
L 191 3500 
z
" id="DejaVuSans-76" transform="scale(0.015625)"/>
       <path d="M 2194 1759 
Q 1497 1759 1228 1600 
Q 959 1441 959 1056 
Q 959 750 1161 570 
Q 1363 391 1709 391 
Q 2188 391 2477 730 
Q 2766 1069 2766 1631 
L 2766 1759 
L 2194 1759 
z
M 3341 1997 
L 3341 0 
L 2766 0 
L 2766 531 
Q 2569 213 2275 61 
Q 1981 -91 1556 -91 
Q 1019 -91 701 211 
Q 384 513 384 1019 
Q 384 1609 779 1909 
Q 1175 2209 1959 2209 
L 2766 2209 
L 2766 2266 
Q 2766 2663 2505 2880 
Q 2244 3097 1772 3097 
Q 1472 3097 1187 3025 
Q 903 2953 641 2809 
L 641 3341 
Q 956 3463 1253 3523 
Q 1550 3584 1831 3584 
Q 2591 3584 2966 3190 
Q 3341 2797 3341 1997 
z
" id="DejaVuSans-61" transform="scale(0.015625)"/>
       <path d="M 2834 3397 
L 2834 2853 
Q 2591 2978 2328 3040 
Q 2066 3103 1784 3103 
Q 1356 3103 1142 2972 
Q 928 2841 928 2578 
Q 928 2378 1081 2264 
Q 1234 2150 1697 2047 
L 1894 2003 
Q 2506 1872 2764 1633 
Q 3022 1394 3022 966 
Q 3022 478 2636 193 
Q 2250 -91 1575 -91 
Q 1294 -91 989 -36 
Q 684 19 347 128 
L 347 722 
Q 666 556 975 473 
Q 1284 391 1588 391 
Q 1994 391 2212 530 
Q 2431 669 2431 922 
Q 2431 1156 2273 1281 
Q 2116 1406 1581 1522 
L 1381 1569 
Q 847 1681 609 1914 
Q 372 2147 372 2553 
Q 372 3047 722 3315 
Q 1072 3584 1716 3584 
Q 2034 3584 2315 3537 
Q 2597 3491 2834 3397 
z
" id="DejaVuSans-73" transform="scale(0.015625)"/>
       <path d="M 1625 4666 
L 2156 4666 
L 531 -594 
L 0 -594 
L 1625 4666 
z
" id="DejaVuSans-2f" transform="scale(0.015625)"/>
       <path d="M 2906 2969 
L 2906 4863 
L 3481 4863 
L 3481 0 
L 2906 0 
L 2906 525 
Q 2725 213 2448 61 
Q 2172 -91 1784 -91 
Q 1150 -91 751 415 
Q 353 922 353 1747 
Q 353 2572 751 3078 
Q 1150 3584 1784 3584 
Q 2172 3584 2448 3432 
Q 2725 3281 2906 2969 
z
M 947 1747 
Q 947 1113 1208 752 
Q 1469 391 1925 391 
Q 2381 391 2643 752 
Q 2906 1113 2906 1747 
Q 2906 2381 2643 2742 
Q 2381 3103 1925 3103 
Q 1469 3103 1208 2742 
Q 947 2381 947 1747 
z
" id="DejaVuSans-64" transform="scale(0.015625)"/>
       <path d="M 603 3500 
L 1178 3500 
L 1178 0 
L 603 0 
L 603 3500 
z
M 603 4863 
L 1178 4863 
L 1178 4134 
L 603 4134 
L 603 4863 
z
" id="DejaVuSans-69" transform="scale(0.015625)"/>
       <path d="M 3328 2828 
Q 3544 3216 3844 3400 
Q 4144 3584 4550 3584 
Q 5097 3584 5394 3201 
Q 5691 2819 5691 2113 
L 5691 0 
L 5113 0 
L 5113 2094 
Q 5113 2597 4934 2840 
Q 4756 3084 4391 3084 
Q 3944 3084 3684 2787 
Q 3425 2491 3425 1978 
L 3425 0 
L 2847 0 
L 2847 2094 
Q 2847 2600 2669 2842 
Q 2491 3084 2119 3084 
Q 1678 3084 1418 2786 
Q 1159 2488 1159 1978 
L 1159 0 
L 581 0 
L 581 3500 
L 1159 3500 
L 1159 2956 
Q 1356 3278 1631 3431 
Q 1906 3584 2284 3584 
Q 2666 3584 2933 3390 
Q 3200 3197 3328 2828 
z
" id="DejaVuSans-6d" transform="scale(0.015625)"/>
       <path d="M 3513 2113 
L 3513 0 
L 2938 0 
L 2938 2094 
Q 2938 2591 2744 2837 
Q 2550 3084 2163 3084 
Q 1697 3084 1428 2787 
Q 1159 2491 1159 1978 
L 1159 0 
L 581 0 
L 581 3500 
L 1159 3500 
L 1159 2956 
Q 1366 3272 1645 3428 
Q 1925 3584 2291 3584 
Q 2894 3584 3203 3211 
Q 3513 2838 3513 2113 
z
" id="DejaVuSans-6e" transform="scale(0.015625)"/>
       <path d="M 513 4856 
L 1013 4856 
Q 1481 4119 1714 3412 
Q 1947 2706 1947 2009 
Q 1947 1309 1714 600 
Q 1481 -109 1013 -844 
L 513 -844 
Q 928 -128 1133 580 
Q 1338 1288 1338 2009 
Q 1338 2731 1133 3434 
Q 928 4138 513 4856 
z
" id="DejaVuSans-29" transform="scale(0.015625)"/>
      </defs>
      <use xlink:href="#DejaVuSans-6c"/>
      <use x="27.783203" xlink:href="#DejaVuSans-6f"/>
      <use x="88.964844" xlink:href="#DejaVuSans-67"/>
      <use x="152.441406" xlink:href="#DejaVuSans-31"/>
      <use x="216.064453" xlink:href="#DejaVuSans-30"/>
      <use x="279.6875" xlink:href="#DejaVuSans-28"/>
      <use x="318.701172" xlink:href="#DejaVuSans-23"/>
      <use x="402.490234" xlink:href="#DejaVuSans-20"/>
      <use x="434.277344" xlink:href="#DejaVuSans-66"/>
      <use x="463.982422" xlink:href="#DejaVuSans-2d"/>
      <use x="500.066406" xlink:href="#DejaVuSans-65"/>
      <use x="561.589844" xlink:href="#DejaVuSans-76"/>
      <use x="620.769531" xlink:href="#DejaVuSans-61"/>
      <use x="682.048828" xlink:href="#DejaVuSans-6c"/>
      <use x="709.832031" xlink:href="#DejaVuSans-73"/>
      <use x="761.931641" xlink:href="#DejaVuSans-20"/>
      <use x="793.71875" xlink:href="#DejaVuSans-2f"/>
      <use x="827.410156" xlink:href="#DejaVuSans-20"/>
      <use x="859.197266" xlink:href="#DejaVuSans-64"/>
      <use x="922.673828" xlink:href="#DejaVuSans-69"/>
      <use x="950.457031" xlink:href="#DejaVuSans-6d"/>
      <use x="1047.869141" xlink:href="#DejaVuSans-65"/>
      <use x="1109.392578" xlink:href="#DejaVuSans-6e"/>
      <use x="1172.771484" xlink:href="#DejaVuSans-73"/>
      <use x="1224.871094" xlink:href="#DejaVuSans-69"/>
      <use x="1252.654297" xlink:href="#DejaVuSans-6f"/>
      <use x="1313.835938" xlink:href="#DejaVuSans-6e"/>
      <use x="1377.214844" xlink:href="#DejaVuSans-29"/>
     </g>
    </g>
   </g>
   <g id="matplotlib.axis_2">
    <g id="ytick_1">
     <g id="line2d_17">
      <path clip-path="url(#paaa93fdc56)" d="M 57.6 298.944 
L 338.688 298.944 
" style="fill:none;stroke:#b0b0b0;stroke-linecap:square;stroke-width:0.8;"/>
     </g>
     <g id="line2d_18">
      <defs>
       <path d="M 0 0 
L -3.5 0 
" id="mbe8c2e0b0a" style="stroke:#000000;stroke-width:0.8;"/>
      </defs>
      <g>
       <use style="stroke:#000000;stroke-width:0.8;" x="57.6" xlink:href="#mbe8c2e0b0a" y="298.944"/>
      </g>
     </g>
     <g id="text_6">
      <!-- 0.0 -->
      <g transform="translate(25.155 305.02275)scale(0.16 -0.16)">
       <defs>
        <path d="M 684 794 
L 1344 794 
L 1344 0 
L 684 0 
L 684 794 
z
" id="DejaVuSans-2e" transform="scale(0.015625)"/>
       </defs>
       <use xlink:href="#DejaVuSans-30"/>
       <use x="63.623047" xlink:href="#DejaVuSans-2e"/>
       <use x="95.410156" xlink:href="#DejaVuSans-30"/>
      </g>
     </g>
    </g>
    <g id="ytick_2">
     <g id="line2d_19">
      <path clip-path="url(#paaa93fdc56)" d="M 57.6 240.431525 
L 338.688 240.431525 
" style="fill:none;stroke:#b0b0b0;stroke-linecap:square;stroke-width:0.8;"/>
     </g>
     <g id="line2d_20">
      <g>
       <use style="stroke:#000000;stroke-width:0.8;" x="57.6" xlink:href="#mbe8c2e0b0a" y="240.431525"/>
      </g>
     </g>
     <g id="text_7">
      <!-- 0.2 -->
      <g transform="translate(25.155 246.510275)scale(0.16 -0.16)">
       <use xlink:href="#DejaVuSans-30"/>
       <use x="63.623047" xlink:href="#DejaVuSans-2e"/>
       <use x="95.410156" xlink:href="#DejaVuSans-32"/>
      </g>
     </g>
    </g>
    <g id="ytick_3">
     <g id="line2d_21">
      <path clip-path="url(#paaa93fdc56)" d="M 57.6 181.91905 
L 338.688 181.91905 
" style="fill:none;stroke:#b0b0b0;stroke-linecap:square;stroke-width:0.8;"/>
     </g>
     <g id="line2d_22">
      <g>
       <use style="stroke:#000000;stroke-width:0.8;" x="57.6" xlink:href="#mbe8c2e0b0a" y="181.91905"/>
      </g>
     </g>
     <g id="text_8">
      <!-- 0.4 -->
      <g transform="translate(25.155 187.9978)scale(0.16 -0.16)">
       <use xlink:href="#DejaVuSans-30"/>
       <use x="63.623047" xlink:href="#DejaVuSans-2e"/>
       <use x="95.410156" xlink:href="#DejaVuSans-34"/>
      </g>
     </g>
    </g>
    <g id="ytick_4">
     <g id="line2d_23">
      <path clip-path="url(#paaa93fdc56)" d="M 57.6 123.406574 
L 338.688 123.406574 
" style="fill:none;stroke:#b0b0b0;stroke-linecap:square;stroke-width:0.8;"/>
     </g>
     <g id="line2d_24">
      <g>
       <use style="stroke:#000000;stroke-width:0.8;" x="57.6" xlink:href="#mbe8c2e0b0a" y="123.406574"/>
      </g>
     </g>
     <g id="text_9">
      <!-- 0.6 -->
      <g transform="translate(25.155 129.485324)scale(0.16 -0.16)">
       <use xlink:href="#DejaVuSans-30"/>
       <use x="63.623047" xlink:href="#DejaVuSans-2e"/>
       <use x="95.410156" xlink:href="#DejaVuSans-36"/>
      </g>
     </g>
    </g>
    <g id="ytick_5">
     <g id="line2d_25">
      <path clip-path="url(#paaa93fdc56)" d="M 57.6 64.894099 
L 338.688 64.894099 
" style="fill:none;stroke:#b0b0b0;stroke-linecap:square;stroke-width:0.8;"/>
     </g>
     <g id="line2d_26">
      <g>
       <use style="stroke:#000000;stroke-width:0.8;" x="57.6" xlink:href="#mbe8c2e0b0a" y="64.894099"/>
      </g>
     </g>
     <g id="text_10">
      <!-- 0.8 -->
      <g transform="translate(25.155 70.972849)scale(0.16 -0.16)">
       <defs>
        <path d="M 2034 2216 
Q 1584 2216 1326 1975 
Q 1069 1734 1069 1313 
Q 1069 891 1326 650 
Q 1584 409 2034 409 
Q 2484 409 2743 651 
Q 3003 894 3003 1313 
Q 3003 1734 2745 1975 
Q 2488 2216 2034 2216 
z
M 1403 2484 
Q 997 2584 770 2862 
Q 544 3141 544 3541 
Q 544 4100 942 4425 
Q 1341 4750 2034 4750 
Q 2731 4750 3128 4425 
Q 3525 4100 3525 3541 
Q 3525 3141 3298 2862 
Q 3072 2584 2669 2484 
Q 3125 2378 3379 2068 
Q 3634 1759 3634 1313 
Q 3634 634 3220 271 
Q 2806 -91 2034 -91 
Q 1263 -91 848 271 
Q 434 634 434 1313 
Q 434 1759 690 2068 
Q 947 2378 1403 2484 
z
M 1172 3481 
Q 1172 3119 1398 2916 
Q 1625 2713 2034 2713 
Q 2441 2713 2670 2916 
Q 2900 3119 2900 3481 
Q 2900 3844 2670 4047 
Q 2441 4250 2034 4250 
Q 1625 4250 1398 4047 
Q 1172 3844 1172 3481 
z
" id="DejaVuSans-38" transform="scale(0.015625)"/>
       </defs>
       <use xlink:href="#DejaVuSans-30"/>
       <use x="63.623047" xlink:href="#DejaVuSans-2e"/>
       <use x="95.410156" xlink:href="#DejaVuSans-38"/>
      </g>
     </g>
    </g>
    <g id="ytick_6">
     <g id="line2d_27">
      <path clip-path="url(#paaa93fdc56)" d="M 57.6 6.381624 
L 338.688 6.381624 
" style="fill:none;stroke:#b0b0b0;stroke-linecap:square;stroke-width:0.8;"/>
     </g>
     <g id="line2d_28">
      <g>
       <use style="stroke:#000000;stroke-width:0.8;" x="57.6" xlink:href="#mbe8c2e0b0a" y="6.381624"/>
      </g>
     </g>
     <g id="text_11">
      <!-- 1.0 -->
      <g transform="translate(25.155 12.460374)scale(0.16 -0.16)">
       <use xlink:href="#DejaVuSans-31"/>
       <use x="63.623047" xlink:href="#DejaVuSans-2e"/>
       <use x="95.410156" xlink:href="#DejaVuSans-30"/>
      </g>
     </g>
    </g>
    <g id="text_12">
     <!-- Fraction of function,target pairs -->
     <g transform="translate(17.619531 285.585)rotate(-90)scale(0.17 -0.17)">
      <defs>
       <path d="M 628 4666 
L 3309 4666 
L 3309 4134 
L 1259 4134 
L 1259 2759 
L 3109 2759 
L 3109 2228 
L 1259 2228 
L 1259 0 
L 628 0 
L 628 4666 
z
" id="DejaVuSans-46" transform="scale(0.015625)"/>
       <path d="M 2631 2963 
Q 2534 3019 2420 3045 
Q 2306 3072 2169 3072 
Q 1681 3072 1420 2755 
Q 1159 2438 1159 1844 
L 1159 0 
L 581 0 
L 581 3500 
L 1159 3500 
L 1159 2956 
Q 1341 3275 1631 3429 
Q 1922 3584 2338 3584 
Q 2397 3584 2469 3576 
Q 2541 3569 2628 3553 
L 2631 2963 
z
" id="DejaVuSans-72" transform="scale(0.015625)"/>
       <path d="M 3122 3366 
L 3122 2828 
Q 2878 2963 2633 3030 
Q 2388 3097 2138 3097 
Q 1578 3097 1268 2742 
Q 959 2388 959 1747 
Q 959 1106 1268 751 
Q 1578 397 2138 397 
Q 2388 397 2633 464 
Q 2878 531 3122 666 
L 3122 134 
Q 2881 22 2623 -34 
Q 2366 -91 2075 -91 
Q 1284 -91 818 406 
Q 353 903 353 1747 
Q 353 2603 823 3093 
Q 1294 3584 2113 3584 
Q 2378 3584 2631 3529 
Q 2884 3475 3122 3366 
z
" id="DejaVuSans-63" transform="scale(0.015625)"/>
       <path d="M 1172 4494 
L 1172 3500 
L 2356 3500 
L 2356 3053 
L 1172 3053 
L 1172 1153 
Q 1172 725 1289 603 
Q 1406 481 1766 481 
L 2356 481 
L 2356 0 
L 1766 0 
Q 1100 0 847 248 
Q 594 497 594 1153 
L 594 3053 
L 172 3053 
L 172 3500 
L 594 3500 
L 594 4494 
L 1172 4494 
z
" id="DejaVuSans-74" transform="scale(0.015625)"/>
       <path d="M 544 1381 
L 544 3500 
L 1119 3500 
L 1119 1403 
Q 1119 906 1312 657 
Q 1506 409 1894 409 
Q 2359 409 2629 706 
Q 2900 1003 2900 1516 
L 2900 3500 
L 3475 3500 
L 3475 0 
L 2900 0 
L 2900 538 
Q 2691 219 2414 64 
Q 2138 -91 1772 -91 
Q 1169 -91 856 284 
Q 544 659 544 1381 
z
M 1991 3584 
L 1991 3584 
z
" id="DejaVuSans-75" transform="scale(0.015625)"/>
       <path d="M 750 794 
L 1409 794 
L 1409 256 
L 897 -744 
L 494 -744 
L 750 256 
L 750 794 
z
" id="DejaVuSans-2c" transform="scale(0.015625)"/>
       <path d="M 1159 525 
L 1159 -1331 
L 581 -1331 
L 581 3500 
L 1159 3500 
L 1159 2969 
Q 1341 3281 1617 3432 
Q 1894 3584 2278 3584 
Q 2916 3584 3314 3078 
Q 3713 2572 3713 1747 
Q 3713 922 3314 415 
Q 2916 -91 2278 -91 
Q 1894 -91 1617 61 
Q 1341 213 1159 525 
z
M 3116 1747 
Q 3116 2381 2855 2742 
Q 2594 3103 2138 3103 
Q 1681 3103 1420 2742 
Q 1159 2381 1159 1747 
Q 1159 1113 1420 752 
Q 1681 391 2138 391 
Q 2594 391 2855 752 
Q 3116 1113 3116 1747 
z
" id="DejaVuSans-70" transform="scale(0.015625)"/>
      </defs>
      <use xlink:href="#DejaVuSans-46"/>
      <use x="50.269531" xlink:href="#DejaVuSans-72"/>
      <use x="91.382812" xlink:href="#DejaVuSans-61"/>
      <use x="152.662109" xlink:href="#DejaVuSans-63"/>
      <use x="207.642578" xlink:href="#DejaVuSans-74"/>
      <use x="246.851562" xlink:href="#DejaVuSans-69"/>
      <use x="274.634766" xlink:href="#DejaVuSans-6f"/>
      <use x="335.816406" xlink:href="#DejaVuSans-6e"/>
      <use x="399.195312" xlink:href="#DejaVuSans-20"/>
      <use x="430.982422" xlink:href="#DejaVuSans-6f"/>
      <use x="492.164062" xlink:href="#DejaVuSans-66"/>
      <use x="527.369141" xlink:href="#DejaVuSans-20"/>
      <use x="559.15625" xlink:href="#DejaVuSans-66"/>
      <use x="594.361328" xlink:href="#DejaVuSans-75"/>
      <use x="657.740234" xlink:href="#DejaVuSans-6e"/>
      <use x="721.119141" xlink:href="#DejaVuSans-63"/>
      <use x="776.099609" xlink:href="#DejaVuSans-74"/>
      <use x="815.308594" xlink:href="#DejaVuSans-69"/>
      <use x="843.091797" xlink:href="#DejaVuSans-6f"/>
      <use x="904.273438" xlink:href="#DejaVuSans-6e"/>
      <use x="967.652344" xlink:href="#DejaVuSans-2c"/>
      <use x="999.439453" xlink:href="#DejaVuSans-74"/>
      <use x="1038.648438" xlink:href="#DejaVuSans-61"/>
      <use x="1099.927734" xlink:href="#DejaVuSans-72"/>
      <use x="1139.291016" xlink:href="#DejaVuSans-67"/>
      <use x="1202.767578" xlink:href="#DejaVuSans-65"/>
      <use x="1264.291016" xlink:href="#DejaVuSans-74"/>
      <use x="1303.5" xlink:href="#DejaVuSans-20"/>
      <use x="1335.287109" xlink:href="#DejaVuSans-70"/>
      <use x="1398.763672" xlink:href="#DejaVuSans-61"/>
      <use x="1460.042969" xlink:href="#DejaVuSans-69"/>
      <use x="1487.826172" xlink:href="#DejaVuSans-72"/>
      <use x="1528.939453" xlink:href="#DejaVuSans-73"/>
     </g>
    </g>
   </g>
   <g id="line2d_29">
    <path clip-path="url(#paaa93fdc56)" d="M 57.6 298.944 
L 57.6 298.944 
L 57.6 298.944 
L 57.6 298.944 
L 338.688 298.944 
" style="fill:none;stroke:#000080;stroke-linecap:square;stroke-width:1.5;"/>
   </g>
   <g id="line2d_30">
    <defs>
     <path d="M 0 6 
C 1.591219 6 3.117479 5.367802 4.242641 4.242641 
C 5.367802 3.117479 6 1.591219 6 0 
C 6 -1.591219 5.367802 -3.117479 4.242641 -4.242641 
C 3.117479 -5.367802 1.591219 -6 0 -6 
C -1.591219 -6 -3.117479 -5.367802 -4.242641 -4.242641 
C -5.367802 -3.117479 -6 -1.591219 -6 0 
C -6 1.591219 -5.367802 3.117479 -4.242641 4.242641 
C -3.117479 5.367802 -1.591219 6 0 6 
z
" id="m26ea00907d" style="stroke:#000080;stroke-width:1.5;"/>
    </defs>
    <g clip-path="url(#paaa93fdc56)">
     <use style="fill-opacity:0;stroke:#000080;stroke-width:1.5;" x="57.6" xlink:href="#m26ea00907d" y="298.944"/>
    </g>
   </g>
   <g id="line2d_31">
    <path clip-path="url(#paaa93fdc56)" style="fill:none;stroke:#000080;stroke-linecap:square;stroke-width:1.5;"/>
    <g clip-path="url(#paaa93fdc56)">
     <use style="fill-opacity:0;stroke:#000080;stroke-width:1.5;" x="-1" xlink:href="#m26ea00907d" y="591.506376"/>
     <use style="fill-opacity:0;stroke:#000080;stroke-width:1.5;" x="338.688" xlink:href="#m26ea00907d" y="591.506376"/>
    </g>
   </g>
   <g id="line2d_32">
    <defs>
     <path d="M 0 1.5 
C 0.397805 1.5 0.77937 1.341951 1.06066 1.06066 
C 1.341951 0.77937 1.5 0.397805 1.5 0 
C 1.5 -0.397805 1.341951 -0.77937 1.06066 -1.06066 
C 0.77937 -1.341951 0.397805 -1.5 0 -1.5 
C -0.397805 -1.5 -0.77937 -1.341951 -1.06066 -1.06066 
C -1.341951 -0.77937 -1.5 -0.397805 -1.5 0 
C -1.5 0.397805 -1.341951 0.77937 -1.06066 1.06066 
C -0.77937 1.341951 -0.397805 1.5 0 1.5 
z
" id="md5c64fe67c" style="stroke:#ff00ff;"/>
    </defs>
    <g>
     <use style="fill:#ff00ff;stroke:#ff00ff;" x="262.179214" xlink:href="#md5c64fe67c" y="281.734448"/>
     <use style="fill:#ff00ff;stroke:#ff00ff;" x="262.179214" xlink:href="#md5c64fe67c" y="281.734448"/>
    </g>
   </g>
   <g id="line2d_33">
    <path d="M 154.707925 298.944 
L 154.707925 298.370348 
L 161.340833 298.370348 
L 161.340833 297.796697 
L 170.639386 297.796697 
L 170.639386 297.223045 
L 171.954168 297.223045 
L 171.954168 296.649393 
L 177.056656 296.649393 
L 177.056656 296.075741 
L 177.258747 296.075741 
L 177.258747 295.50209 
L 180.889814 295.50209 
L 180.889814 294.928438 
L 181.040453 294.928438 
L 181.040453 294.354786 
L 185.849212 294.354786 
L 185.849212 293.781135 
L 188.89713 293.781135 
L 188.89713 293.207483 
L 199.361311 293.207483 
L 199.361311 292.060179 
L 200.767995 292.060179 
L 200.767995 291.486528 
L 201.042424 291.486528 
L 201.042424 290.912876 
L 203.748739 290.912876 
L 203.748739 290.339224 
L 207.421693 290.339224 
L 207.421693 289.765573 
L 209.980627 289.765573 
L 209.980627 289.191921 
L 210.352195 289.191921 
L 210.352195 288.618269 
L 210.876054 288.618269 
L 210.876054 288.044617 
L 216.18984 288.044617 
L 216.18984 287.470966 
L 216.50499 287.470966 
L 216.50499 286.897314 
L 221.19794 286.897314 
L 221.19794 286.323662 
L 223.755077 286.323662 
L 223.755077 285.75001 
L 224.533411 285.75001 
L 224.533411 285.176359 
L 229.169356 285.176359 
L 229.169356 284.602707 
L 239.747615 284.602707 
L 239.747615 284.029055 
L 242.984269 284.029055 
L 242.984269 282.881752 
L 253.095022 282.881752 
L 253.095022 282.3081 
L 262.179214 282.3081 
L 262.179214 281.734448 
L 338.688 281.734448 
" style="fill:none;stroke:#ff00ff;stroke-linecap:square;stroke-width:1.5;"/>
   </g>
   <g id="line2d_34">
    <defs>
     <path d="M 0 8.485281 
L 5.091169 0 
L 0 -8.485281 
L -5.091169 0 
z
" id="me445fe6fbf" style="stroke:#ff00ff;stroke-linejoin:miter;stroke-width:1.5;"/>
    </defs>
    <g>
     <use style="fill-opacity:0;stroke:#ff00ff;stroke-linejoin:miter;stroke-width:1.5;" x="201.042424" xlink:href="#me445fe6fbf" y="290.912876"/>
     <use style="fill-opacity:0;stroke:#ff00ff;stroke-linejoin:miter;stroke-width:1.5;" x="262.179214" xlink:href="#me445fe6fbf" y="282.3081"/>
     <use style="fill-opacity:0;stroke:#ff00ff;stroke-linejoin:miter;stroke-width:1.5;" x="262.179214" xlink:href="#me445fe6fbf" y="281.734448"/>
     <use style="fill-opacity:0;stroke:#ff00ff;stroke-linejoin:miter;stroke-width:1.5;" x="338.688" xlink:href="#me445fe6fbf" y="281.734448"/>
    </g>
   </g>
   <g id="line2d_35">
    <path style="fill:none;stroke:#ff00ff;stroke-linecap:square;stroke-width:1.5;"/>
    <g/>
   </g>
   <g id="line2d_36">
    <path clip-path="url(#paaa93fdc56)" d="M 194.045737 293.207483 
" style="fill:none;stroke:#ff00ff;stroke-linecap:square;stroke-width:1.5;"/>
    <defs>
     <path d="M -12 12 
L 12 -12 
M -12 -12 
L 12 12 
" id="m3fc45551ef" style="stroke:#ff00ff;"/>
    </defs>
    <g clip-path="url(#paaa93fdc56)">
     <use style="fill:#ff00ff;stroke:#ff00ff;" x="194.045737" xlink:href="#m3fc45551ef" y="293.207483"/>
    </g>
   </g>
   <g id="line2d_37">
    <defs>
     <path d="M 0 1.5 
C 0.397805 1.5 0.77937 1.341951 1.06066 1.06066 
C 1.341951 0.77937 1.5 0.397805 1.5 0 
C 1.5 -0.397805 1.341951 -0.77937 1.06066 -1.06066 
C 0.77937 -1.341951 0.397805 -1.5 0 -1.5 
C -0.397805 -1.5 -0.77937 -1.341951 -1.06066 -1.06066 
C -1.341951 -0.77937 -1.5 -0.397805 -1.5 0 
C -1.5 0.397805 -1.341951 0.77937 -1.06066 1.06066 
C -0.77937 1.341951 -0.397805 1.5 0 1.5 
z
" id="m631f1b465a" style="stroke:#ff7500;"/>
    </defs>
    <g>
     <use style="fill:#ff7500;stroke:#ff7500;" x="268.543751" xlink:href="#m631f1b465a" y="115.37545"/>
     <use style="fill:#ff7500;stroke:#ff7500;" x="268.543751" xlink:href="#m631f1b465a" y="115.37545"/>
    </g>
   </g>
   <g id="line2d_38">
    <path d="M 175.286357 298.944 
L 175.286357 298.370348 
L 176.347637 298.370348 
L 176.347637 297.796697 
L 176.935199 297.796697 
L 176.935199 297.223045 
L 177.273353 297.223045 
L 177.273353 296.649393 
L 178.361119 296.649393 
L 178.36969 295.50209 
L 179.455196 295.50209 
L 179.481748 294.354786 
L 179.656142 294.354786 
L 179.656142 293.781135 
L 179.999004 293.781135 
L 180.044214 292.633831 
L 180.41698 292.633831 
L 180.41698 292.060179 
L 180.547555 292.060179 
L 180.547555 291.486528 
L 180.787915 291.486528 
L 180.787915 290.912876 
L 180.952739 290.912876 
L 181.044864 289.765573 
L 181.099906 289.765573 
L 181.099906 289.191921 
L 181.225485 289.191921 
L 181.252381 288.044617 
L 181.341496 288.044617 
L 181.341496 287.470966 
L 181.684969 287.470966 
L 181.684969 286.897314 
L 181.937508 286.897314 
L 181.937508 286.323662 
L 182.26201 286.323662 
L 182.26201 285.75001 
L 182.454938 285.75001 
L 182.563076 284.029055 
L 182.58395 284.029055 
L 182.58395 283.455404 
L 182.807285 283.455404 
L 182.807285 282.881752 
L 182.971284 282.881752 
L 182.971284 282.3081 
L 183.258507 282.3081 
L 183.355353 280.587145 
L 183.489401 280.587145 
L 183.567175 279.439842 
L 183.709708 279.439842 
L 183.709708 278.86619 
L 183.897958 278.86619 
L 183.913554 277.718886 
L 184.058862 277.718886 
L 184.058862 277.145235 
L 184.23728 277.145235 
L 184.329462 274.850628 
L 184.724971 274.850628 
L 184.732708 273.129673 
L 184.845975 273.129673 
L 184.932063 271.408718 
L 184.96908 271.408718 
L 184.969667 270.261414 
L 185.111127 270.261414 
L 185.212713 267.966807 
L 185.387786 267.966807 
L 185.49803 266.245852 
L 185.5821 266.245852 
L 185.5821 265.6722 
L 185.784917 265.6722 
L 185.794996 264.524897 
L 185.915495 264.524897 
L 185.915495 263.951245 
L 186.132622 263.951245 
L 186.198385 262.803942 
L 186.273707 262.803942 
L 186.294935 261.656638 
L 186.405554 261.656638 
L 186.50258 259.362031 
L 186.644449 259.362031 
L 186.75129 258.214728 
L 186.827433 258.214728 
L 186.827433 257.641076 
L 187.163432 257.641076 
L 187.163432 257.067425 
L 187.394276 257.067425 
L 187.45902 255.920121 
L 187.955147 255.920121 
L 187.955147 255.346469 
L 188.698737 255.346469 
L 188.698737 254.772818 
L 188.858665 254.772818 
L 188.858665 254.199166 
L 189.066397 254.199166 
L 189.066397 253.625514 
L 189.251952 253.625514 
L 189.251952 253.051863 
L 189.435554 253.051863 
L 189.435554 252.478211 
L 189.558695 252.478211 
L 189.640159 251.330907 
L 189.789492 251.330907 
L 189.789492 250.757256 
L 191.059863 250.757256 
L 191.059863 250.183604 
L 191.19346 250.183604 
L 191.19346 249.609952 
L 191.508526 249.609952 
L 191.508526 249.036301 
L 192.75426 249.036301 
L 192.75426 248.462649 
L 193.075423 248.462649 
L 193.075423 247.888997 
L 199.163475 247.888997 
L 199.163475 247.315345 
L 200.329846 247.315345 
L 200.406304 246.168042 
L 200.529146 246.168042 
L 200.529146 245.59439 
L 201.110013 245.59439 
L 201.110013 243.873435 
L 201.461189 243.873435 
L 201.561211 241.578828 
L 201.910172 241.578828 
L 201.94369 240.431525 
L 202.133583 240.431525 
L 202.133583 239.857873 
L 202.336615 239.857873 
L 202.410393 238.71057 
L 202.487944 238.71057 
L 202.487944 238.136918 
L 202.64777 238.136918 
L 202.758805 235.268659 
L 202.766845 235.268659 
L 202.874394 231.826749 
L 202.92834 231.826749 
L 202.946564 230.679446 
L 203.616069 230.679446 
L 203.664356 228.95849 
L 203.821171 228.95849 
L 203.821171 228.384839 
L 203.980534 228.384839 
L 204.069687 226.663884 
L 204.911221 226.663884 
L 204.911221 225.51658 
L 205.614221 225.51658 
L 205.614221 224.942928 
L 209.362769 224.942928 
L 209.362769 223.795625 
L 209.511397 223.795625 
L 209.511397 222.648321 
L 209.675004 222.648321 
L 209.675004 222.07467 
L 209.886379 222.07467 
L 209.886379 221.501018 
L 210.232663 221.501018 
L 210.294455 220.353715 
L 210.389944 220.353715 
L 210.434291 218.059108 
L 210.505556 218.059108 
L 210.505556 217.485456 
L 210.65314 217.485456 
L 210.65314 216.911804 
L 210.793079 216.911804 
L 210.863161 214.617197 
L 210.983217 214.617197 
L 210.983217 214.043546 
L 211.100878 214.043546 
L 211.145941 212.896242 
L 211.401018 212.896242 
L 211.401018 212.322591 
L 211.597939 212.322591 
L 211.641102 211.175287 
L 211.849928 211.175287 
L 211.85621 210.027984 
L 212.81228 210.027984 
L 212.81228 209.454332 
L 215.793986 209.454332 
L 215.793986 208.88068 
L 216.085779 208.88068 
L 216.085779 208.307029 
L 216.554184 208.307029 
L 216.602186 207.159725 
L 216.668082 207.159725 
L 216.668082 206.586073 
L 217.00828 206.586073 
L 217.062321 204.865118 
L 217.178329 204.865118 
L 217.215596 203.144163 
L 217.551177 203.144163 
L 217.551177 202.570511 
L 217.963896 202.570511 
L 217.963896 201.99686 
L 220.198786 201.99686 
L 220.245667 200.849556 
L 220.555789 200.849556 
L 220.555789 200.275904 
L 220.847297 200.275904 
L 220.900771 199.128601 
L 221.283523 199.128601 
L 221.30341 197.407646 
L 221.86242 197.407646 
L 221.86242 196.833994 
L 223.543651 196.833994 
L 223.543651 196.260342 
L 224.004762 196.260342 
L 224.004762 195.686691 
L 224.257401 195.686691 
L 224.278669 193.965736 
L 224.49323 193.965736 
L 224.555438 191.671129 
L 224.651652 191.671129 
L 224.651652 191.097477 
L 224.848586 191.097477 
L 224.894679 189.376522 
L 225.084021 189.376522 
L 225.084021 188.80287 
L 226.436814 188.80287 
L 226.516657 187.655567 
L 226.800197 187.655567 
L 226.874947 186.508263 
L 227.014753 186.508263 
L 227.054049 185.36096 
L 227.179186 185.36096 
L 227.179186 184.787308 
L 227.327967 184.787308 
L 227.327967 184.213656 
L 227.60101 184.213656 
L 227.60101 183.640005 
L 227.802268 183.640005 
L 227.813892 182.492701 
L 229.273999 182.492701 
L 229.35275 180.771746 
L 229.495861 180.771746 
L 229.501342 179.050791 
L 229.739639 179.050791 
L 229.808021 176.756184 
L 230.153402 176.756184 
L 230.18127 173.887925 
L 231.326241 173.887925 
L 231.326241 173.314274 
L 231.509616 173.314274 
L 231.509616 172.740622 
L 231.647084 172.740622 
L 231.680406 170.446015 
L 231.925727 170.446015 
L 231.925727 169.872363 
L 232.056141 169.872363 
L 232.056141 168.72506 
L 232.249639 168.72506 
L 232.249639 168.151408 
L 233.292397 168.151408 
L 233.292397 167.577757 
L 233.512025 167.577757 
L 233.553159 166.430453 
L 233.725875 166.430453 
L 233.80744 162.988543 
L 233.924559 162.988543 
L 233.924559 162.414891 
L 235.306212 162.414891 
L 235.306212 161.267588 
L 235.612028 161.267588 
L 235.612028 160.693936 
L 235.749773 160.693936 
L 235.757144 158.399329 
L 237.150523 158.399329 
L 237.150523 157.825677 
L 237.283431 157.825677 
L 237.283431 157.252026 
L 238.189767 157.252026 
L 238.189767 156.678374 
L 238.412157 156.678374 
L 238.462166 154.383767 
L 238.686822 154.383767 
L 238.686822 153.810115 
L 239.784094 153.810115 
L 239.784094 153.236464 
L 239.98564 153.236464 
L 239.98564 152.662812 
L 240.845727 152.662812 
L 240.845727 152.08916 
L 240.970472 152.08916 
L 241.010692 150.941857 
L 242.011883 150.941857 
L 242.107476 148.64725 
L 242.142639 148.64725 
L 242.142639 148.073598 
L 242.333593 148.073598 
L 242.333593 147.499946 
L 243.079199 147.499946 
L 243.079199 146.926295 
L 243.220652 146.926295 
L 243.220652 146.352643 
L 244.094716 146.352643 
L 244.104621 145.20534 
L 244.230553 145.20534 
L 244.298614 144.058036 
L 245.056583 144.058036 
L 245.070316 142.910733 
L 246.151399 142.910733 
L 246.237895 141.763429 
L 247.671557 141.763429 
L 247.74071 140.616126 
L 247.898295 140.616126 
L 247.898295 140.042474 
L 248.606777 140.042474 
L 248.681937 138.321519 
L 249.201628 138.321519 
L 249.212457 136.026912 
L 249.420133 136.026912 
L 249.420133 134.879609 
L 249.992053 134.879609 
L 250.000216 133.732305 
L 250.763102 133.732305 
L 250.763102 133.158653 
L 251.292118 133.158653 
L 251.377973 131.437698 
L 251.425036 131.437698 
L 251.425036 130.864047 
L 251.940247 130.864047 
L 251.996005 129.716743 
L 252.549676 129.716743 
L 252.631996 127.995788 
L 252.725978 127.995788 
L 252.73362 126.848485 
L 253.736357 126.848485 
L 253.846919 125.701181 
L 254.836323 125.701181 
L 254.836323 125.127529 
L 255.87314 125.127529 
L 255.87314 124.553878 
L 257.455665 124.553878 
L 257.455665 123.980226 
L 257.776267 123.980226 
L 257.776267 123.406574 
L 258.21844 123.406574 
L 258.21844 122.832923 
L 260.293174 122.832923 
L 260.344465 121.685619 
L 261.103135 121.685619 
L 261.103135 121.111967 
L 261.427338 121.111967 
L 261.427338 120.538316 
L 261.836652 120.538316 
L 261.86019 119.391012 
L 262.83321 119.391012 
L 262.83321 118.817361 
L 263.235057 118.817361 
L 263.235057 117.670057 
L 264.131765 117.670057 
L 264.175317 116.522754 
L 266.749871 116.522754 
L 266.749871 115.949102 
L 268.543751 115.949102 
L 268.543751 115.37545 
L 338.688 115.37545 
L 338.688 115.37545 
" style="fill:none;stroke:#ff7500;stroke-linecap:square;stroke-width:1.5;"/>
   </g>
   <g id="line2d_39">
    <defs>
     <path d="M 0 -6 
L -1.347084 -1.854102 
L -5.706339 -1.854102 
L -2.179628 0.708204 
L -3.526712 4.854102 
L -0 2.291796 
L 3.526712 4.854102 
L 2.179628 0.708204 
L 5.706339 -1.854102 
L 1.347084 -1.854102 
z
" id="md4f359e6a8" style="stroke:#ff7500;stroke-linejoin:bevel;stroke-width:1.5;"/>
    </defs>
    <g>
     <use style="fill-opacity:0;stroke:#ff7500;stroke-linejoin:bevel;stroke-width:1.5;" x="235.757144" xlink:href="#md4f359e6a8" y="158.399329"/>
     <use style="fill-opacity:0;stroke:#ff7500;stroke-linejoin:bevel;stroke-width:1.5;" x="268.543751" xlink:href="#md4f359e6a8" y="115.37545"/>
     <use style="fill-opacity:0;stroke:#ff7500;stroke-linejoin:bevel;stroke-width:1.5;" x="268.543751" xlink:href="#md4f359e6a8" y="115.37545"/>
     <use style="fill-opacity:0;stroke:#ff7500;stroke-linejoin:bevel;stroke-width:1.5;" x="338.688" xlink:href="#md4f359e6a8" y="115.37545"/>
    </g>
   </g>
   <g id="line2d_40">
    <path style="fill:none;stroke:#ff7500;stroke-linecap:square;stroke-width:1.5;"/>
    <g/>
   </g>
   <g id="line2d_41">
    <path clip-path="url(#paaa93fdc56)" d="M 194.045737 247.888997 
" style="fill:none;stroke:#ff7500;stroke-linecap:square;stroke-width:1.5;"/>
    <defs>
     <path d="M -12 12 
L 12 -12 
M -12 -12 
L 12 12 
" id="m68e6a853e5" style="stroke:#ff7500;"/>
    </defs>
    <g clip-path="url(#paaa93fdc56)">
     <use style="fill:#ff7500;stroke:#ff7500;" x="194.045737" xlink:href="#m68e6a853e5" y="247.888997"/>
    </g>
   </g>
   <g id="line2d_42">
    <defs>
     <path d="M 0 1.5 
C 0.397805 1.5 0.77937 1.341951 1.06066 1.06066 
C 1.341951 0.77937 1.5 0.397805 1.5 0 
C 1.5 -0.397805 1.341951 -0.77937 1.06066 -1.06066 
C 0.77937 -1.341951 0.397805 -1.5 0 -1.5 
C -0.397805 -1.5 -0.77937 -1.341951 -1.06066 -1.06066 
C -1.341951 -0.77937 -1.5 -0.397805 -1.5 0 
C -1.5 0.397805 -1.341951 0.77937 -1.06066 1.06066 
C -0.77937 1.341951 -0.397805 1.5 0 1.5 
z
" id="mf415c14e66" style="stroke:#6495ed;"/>
    </defs>
    <g>
     <use style="fill:#6495ed;stroke:#6495ed;" x="250.862787" xlink:href="#mf415c14e66" y="230.105794"/>
     <use style="fill:#6495ed;stroke:#6495ed;" x="250.862787" xlink:href="#mf415c14e66" y="230.105794"/>
    </g>
   </g>
   <g id="line2d_43">
    <path d="M 164.573397 298.944 
L 164.573397 298.370348 
L 164.934449 298.370348 
L 164.934449 297.796697 
L 166.707495 297.796697 
L 166.707495 297.223045 
L 167.341422 297.223045 
L 167.341422 296.649393 
L 168.368571 296.649393 
L 168.368571 296.075741 
L 170.119095 296.075741 
L 170.119095 295.50209 
L 170.674059 295.50209 
L 170.674059 294.928438 
L 171.898371 294.928438 
L 171.898371 294.354786 
L 173.970903 294.354786 
L 173.970903 293.781135 
L 174.196608 293.781135 
L 174.196608 293.207483 
L 174.882892 293.207483 
L 174.882892 292.633831 
L 175.451245 292.633831 
L 175.451245 292.060179 
L 175.600532 292.060179 
L 175.600532 291.486528 
L 175.837954 291.486528 
L 175.837954 290.912876 
L 176.122948 290.912876 
L 176.122948 290.339224 
L 177.180026 290.339224 
L 177.180026 289.765573 
L 178.332804 289.765573 
L 178.332804 289.191921 
L 179.001651 289.191921 
L 179.001651 288.618269 
L 179.158789 288.618269 
L 179.158789 288.044617 
L 179.517087 288.044617 
L 179.517087 287.470966 
L 180.014607 287.470966 
L 180.014607 286.897314 
L 180.436781 286.897314 
L 180.436781 286.323662 
L 180.613985 286.323662 
L 180.697418 285.176359 
L 180.850464 285.176359 
L 180.850464 284.602707 
L 180.993334 284.602707 
L 180.993334 284.029055 
L 181.327037 284.029055 
L 181.432314 282.881752 
L 181.675046 282.881752 
L 181.675046 282.3081 
L 181.798677 282.3081 
L 181.798677 281.734448 
L 182.009293 281.734448 
L 182.009293 281.160797 
L 182.27366 281.160797 
L 182.27366 280.587145 
L 182.818577 280.587145 
L 182.903359 279.439842 
L 183.301832 279.439842 
L 183.398438 278.292538 
L 184.535861 278.292538 
L 184.537666 277.145235 
L 184.701742 277.145235 
L 184.752924 275.997931 
L 184.970254 275.997931 
L 184.970254 275.42428 
L 185.123349 275.42428 
L 185.123349 274.850628 
L 185.5838 274.850628 
L 185.5838 274.276976 
L 185.784357 274.276976 
L 185.784357 273.703324 
L 186.174848 273.703324 
L 186.174848 273.129673 
L 186.478374 273.129673 
L 186.478374 272.556021 
L 186.6631 272.556021 
L 186.6631 271.982369 
L 187.383036 271.982369 
L 187.383036 271.408718 
L 187.729151 271.408718 
L 187.74818 270.261414 
L 187.846 270.261414 
L 187.846 269.687762 
L 188.270781 269.687762 
L 188.270781 269.114111 
L 188.694945 269.114111 
L 188.761184 267.393156 
L 189.104407 267.393156 
L 189.104407 266.819504 
L 189.347192 266.819504 
L 189.396439 265.6722 
L 190.142499 265.6722 
L 190.142499 265.098549 
L 190.306204 265.098549 
L 190.380815 263.951245 
L 190.851665 263.951245 
L 190.851665 263.377593 
L 191.090879 263.377593 
L 191.090879 262.803942 
L 191.32971 262.803942 
L 191.358623 261.656638 
L 191.818793 261.656638 
L 191.850072 260.509335 
L 192.654442 260.509335 
L 192.654442 259.935683 
L 192.76665 259.935683 
L 192.76665 259.362031 
L 193.227418 259.362031 
L 193.227418 258.78838 
L 193.632451 258.78838 
L 193.632451 258.214728 
L 193.914098 258.214728 
L 193.998588 257.067425 
L 199.855426 257.067425 
L 199.855426 256.493773 
L 201.222698 256.493773 
L 201.222698 255.920121 
L 202.680751 255.920121 
L 202.757324 254.772818 
L 203.662749 254.772818 
L 203.662749 254.199166 
L 203.963557 254.199166 
L 203.963557 253.625514 
L 204.364002 253.625514 
L 204.364002 253.051863 
L 204.609713 253.051863 
L 204.609713 252.478211 
L 205.070426 252.478211 
L 205.070426 251.904559 
L 205.401098 251.904559 
L 205.401098 250.757256 
L 205.729366 250.757256 
L 205.729366 250.183604 
L 205.928307 250.183604 
L 205.928307 249.609952 
L 206.110167 249.609952 
L 206.110167 249.036301 
L 210.617575 249.036301 
L 210.617575 248.462649 
L 211.528706 248.462649 
L 211.528706 247.888997 
L 211.707991 247.888997 
L 211.707991 247.315345 
L 212.638766 247.315345 
L 212.638766 246.741694 
L 212.753202 246.741694 
L 212.753202 245.59439 
L 212.873529 245.59439 
L 212.936217 244.447087 
L 216.03129 244.447087 
L 216.03129 243.873435 
L 217.170366 243.873435 
L 217.170366 243.299783 
L 217.691067 243.299783 
L 217.691067 242.726132 
L 217.91063 242.726132 
L 217.91063 242.15248 
L 220.865814 242.15248 
L 220.865814 241.578828 
L 221.843657 241.578828 
L 221.915203 239.857873 
L 224.344469 239.857873 
L 224.344469 239.284221 
L 227.922567 239.284221 
L 227.967104 237.563266 
L 232.177128 237.563266 
L 232.177128 236.989614 
L 232.318314 236.989614 
L 232.352939 235.842311 
L 234.160275 235.842311 
L 234.191432 234.695008 
L 235.773597 234.695008 
L 235.773597 234.121356 
L 237.372612 234.121356 
L 237.376798 232.974052 
L 238.772988 232.974052 
L 238.772988 232.400401 
L 242.336065 232.400401 
L 242.336065 231.826749 
L 247.946872 231.826749 
L 247.946872 231.253097 
L 250.81309 231.253097 
L 250.862787 230.105794 
L 338.688 230.105794 
L 338.688 230.105794 
" style="fill:none;stroke:#6495ed;stroke-linecap:square;stroke-width:1.5;"/>
   </g>
   <g id="line2d_44">
    <defs>
     <path d="M -0 6 
L 6 -6 
L -6 -6 
z
" id="m1a4c23195a" style="stroke:#6495ed;stroke-linejoin:miter;stroke-width:1.5;"/>
    </defs>
    <g>
     <use style="fill-opacity:0;stroke:#6495ed;stroke-linejoin:miter;stroke-width:1.5;" x="242.336065" xlink:href="#m1a4c23195a" y="231.826749"/>
     <use style="fill-opacity:0;stroke:#6495ed;stroke-linejoin:miter;stroke-width:1.5;" x="250.862787" xlink:href="#m1a4c23195a" y="230.105794"/>
     <use style="fill-opacity:0;stroke:#6495ed;stroke-linejoin:miter;stroke-width:1.5;" x="250.862787" xlink:href="#m1a4c23195a" y="230.105794"/>
     <use style="fill-opacity:0;stroke:#6495ed;stroke-linejoin:miter;stroke-width:1.5;" x="338.688" xlink:href="#m1a4c23195a" y="230.105794"/>
    </g>
   </g>
   <g id="line2d_45">
    <path style="fill:none;stroke:#6495ed;stroke-linecap:square;stroke-width:1.5;"/>
    <g/>
   </g>
   <g id="line2d_46">
    <path clip-path="url(#paaa93fdc56)" d="M 194.045737 257.067425 
" style="fill:none;stroke:#6495ed;stroke-linecap:square;stroke-width:1.5;"/>
    <defs>
     <path d="M -12 12 
L 12 -12 
M -12 -12 
L 12 12 
" id="mbb2a5b85e0" style="stroke:#6495ed;"/>
    </defs>
    <g clip-path="url(#paaa93fdc56)">
     <use style="fill:#6495ed;stroke:#6495ed;" x="194.045737" xlink:href="#mbb2a5b85e0" y="257.067425"/>
    </g>
   </g>
   <g id="line2d_47">
    <defs>
     <path d="M 0 1.5 
C 0.397805 1.5 0.77937 1.341951 1.06066 1.06066 
C 1.341951 0.77937 1.5 0.397805 1.5 0 
C 1.5 -0.397805 1.341951 -0.77937 1.06066 -1.06066 
C 0.77937 -1.341951 0.397805 -1.5 0 -1.5 
C -0.397805 -1.5 -0.77937 -1.341951 -1.06066 -1.06066 
C -1.341951 -0.77937 -1.5 -0.397805 -1.5 0 
C -1.5 0.397805 -1.341951 0.77937 -1.06066 1.06066 
C -0.77937 1.341951 -0.397805 1.5 0 1.5 
z
" id="mecd597928a" style="stroke:#ff0000;"/>
    </defs>
    <g>
     <use style="fill:#ff0000;stroke:#ff0000;" x="263.536833" xlink:href="#mecd597928a" y="149.794553"/>
     <use style="fill:#ff0000;stroke:#ff0000;" x="263.536833" xlink:href="#mecd597928a" y="149.794553"/>
    </g>
   </g>
   <g id="line2d_48">
    <path d="M 5.356583 298.944 
L 5.356583 297.223045 
L 17.444571 297.223045 
L 17.444571 294.928438 
L 24.515591 294.928438 
L 24.515591 293.781135 
L 36.60358 293.781135 
L 36.60358 293.207483 
L 41.620548 293.207483 
L 41.620548 292.633831 
L 45.512012 292.633831 
L 45.512012 291.486528 
L 48.691568 291.486528 
L 48.691568 290.912876 
L 52.583031 290.912876 
L 52.583031 290.339224 
L 53.708537 290.339224 
L 53.708537 289.765573 
L 55.762588 289.765573 
L 55.762588 289.191921 
L 56.705482 289.191921 
L 56.705482 288.618269 
L 59.262141 288.618269 
L 59.262141 288.044617 
L 60.779557 288.044617 
L 60.779557 287.470966 
L 70.949209 287.470966 
L 70.949209 286.897314 
L 71.35013 286.897314 
L 71.35013 286.323662 
L 72.125336 286.323662 
L 72.125336 285.75001 
L 73.227131 285.75001 
L 73.227131 285.176359 
L 74.595619 285.176359 
L 74.595619 284.602707 
L 76.16779 284.602707 
L 76.16779 284.029055 
L 80.881459 284.029055 
L 80.881459 283.455404 
L 81.992617 283.455404 
L 81.992617 282.881752 
L 86.182924 282.881752 
L 86.182924 282.3081 
L 87.487404 282.3081 
L 87.487404 281.734448 
L 87.952479 281.734448 
L 87.952479 281.160797 
L 89.277618 281.160797 
L 89.277618 280.587145 
L 90.242884 280.587145 
L 90.242884 280.013493 
L 90.771388 280.013493 
L 90.771388 279.439842 
L 91.029752 279.439842 
L 91.029752 278.292538 
L 91.905025 278.292538 
L 91.905025 277.718886 
L 98.18605 277.718886 
L 98.18605 277.145235 
L 98.689141 277.145235 
L 98.689141 276.571583 
L 100.040467 276.571583 
L 100.040467 275.997931 
L 104.999975 275.997931 
L 104.999975 275.42428 
L 105.842616 275.42428 
L 105.842616 274.850628 
L 106.957836 274.850628 
L 106.957836 274.276976 
L 107.860069 274.276976 
L 107.90885 273.129673 
L 108.577836 273.129673 
L 108.577836 272.556021 
L 111.386247 272.556021 
L 111.386247 271.982369 
L 112.166658 271.982369 
L 112.166658 271.408718 
L 113.382559 271.408718 
L 113.382559 270.835066 
L 115.554844 270.835066 
L 115.554844 270.261414 
L 115.680082 270.261414 
L 115.680082 269.687762 
L 119.702083 269.687762 
L 119.702083 269.114111 
L 121.105591 269.114111 
L 121.105591 268.540459 
L 121.489881 268.540459 
L 121.489881 267.966807 
L 125.875108 267.966807 
L 125.875108 267.393156 
L 126.389073 267.393156 
L 126.389073 266.819504 
L 127.705564 266.819504 
L 127.705564 266.245852 
L 129.376241 266.245852 
L 129.376241 265.6722 
L 130.743656 265.6722 
L 130.743656 265.098549 
L 131.987128 265.098549 
L 131.987128 264.524897 
L 132.230358 264.524897 
L 132.230358 263.951245 
L 133.032848 263.951245 
L 133.032848 263.377593 
L 133.678192 263.377593 
L 133.678192 262.803942 
L 136.160425 262.803942 
L 136.160425 262.23029 
L 139.325515 262.23029 
L 139.325515 261.656638 
L 140.514223 261.656638 
L 140.514223 261.082987 
L 141.263941 261.082987 
L 141.263941 260.509335 
L 141.858037 260.509335 
L 141.858037 259.935683 
L 142.699628 259.935683 
L 142.699628 259.362031 
L 143.47714 259.362031 
L 143.47714 258.78838 
L 143.834656 258.78838 
L 143.834656 258.214728 
L 144.958609 258.214728 
L 144.958609 257.641076 
L 145.406826 257.641076 
L 145.406826 257.067425 
L 145.893535 257.067425 
L 145.893535 256.493773 
L 146.350914 256.493773 
L 146.350914 255.920121 
L 146.691515 255.920121 
L 146.691515 255.346469 
L 147.86833 255.346469 
L 147.86833 254.772818 
L 148.137196 254.772818 
L 148.137196 254.199166 
L 148.896577 254.199166 
L 148.896577 253.625514 
L 149.994485 253.625514 
L 149.994485 253.051863 
L 150.741418 253.051863 
L 150.762296 251.904559 
L 152.134091 251.904559 
L 152.134091 251.330907 
L 153.809903 251.330907 
L 153.809903 250.757256 
L 154.173993 250.757256 
L 154.228812 249.609952 
L 155.612591 249.609952 
L 155.637851 248.462649 
L 157.565585 248.462649 
L 157.565585 247.888997 
L 157.770607 247.888997 
L 157.778981 246.741694 
L 157.906885 246.741694 
L 157.934566 245.59439 
L 158.612695 245.59439 
L 158.612695 245.020738 
L 159.778062 245.020738 
L 159.78055 243.873435 
L 160.713095 243.873435 
L 160.713095 243.299783 
L 160.968303 243.299783 
L 160.968303 242.726132 
L 161.249588 242.726132 
L 161.249588 242.15248 
L 162.591733 242.15248 
L 162.591733 241.578828 
L 163.0886 241.578828 
L 163.0886 241.005176 
L 163.270826 241.005176 
L 163.270826 240.431525 
L 163.697374 240.431525 
L 163.697374 239.857873 
L 164.571507 239.857873 
L 164.571507 239.284221 
L 164.695832 239.284221 
L 164.695832 238.71057 
L 164.993596 238.71057 
L 164.993596 238.136918 
L 165.197224 238.136918 
L 165.197224 237.563266 
L 165.604609 237.563266 
L 165.604609 236.989614 
L 165.946878 236.989614 
L 165.946878 236.415963 
L 166.600124 236.415963 
L 166.600124 235.842311 
L 166.936787 235.842311 
L 166.936787 235.268659 
L 167.325286 235.268659 
L 167.409028 232.400401 
L 167.768384 232.400401 
L 167.768384 231.826749 
L 168.118942 231.826749 
L 168.118942 231.253097 
L 168.405027 231.253097 
L 168.405027 230.679446 
L 168.64763 230.679446 
L 168.64763 230.105794 
L 168.863272 230.105794 
L 168.863272 229.532142 
L 169.028031 229.532142 
L 169.131676 228.384839 
L 169.618225 228.384839 
L 169.618225 227.811187 
L 169.781644 227.811187 
L 169.781644 227.237535 
L 170.627367 227.237535 
L 170.627367 226.663884 
L 170.804134 226.663884 
L 170.804134 226.090232 
L 170.976508 226.090232 
L 170.976508 225.51658 
L 171.130332 225.51658 
L 171.130332 224.942928 
L 171.246749 224.942928 
L 171.246749 224.369277 
L 171.502706 224.369277 
L 171.502706 223.795625 
L 171.884704 223.795625 
L 171.899613 222.648321 
L 172.014724 222.648321 
L 172.014724 222.07467 
L 172.61733 222.07467 
L 172.61733 221.501018 
L 172.888133 221.501018 
L 172.888133 220.927366 
L 173.034197 220.927366 
L 173.034197 220.353715 
L 173.330714 220.353715 
L 173.333002 218.059108 
L 173.504875 218.059108 
L 173.605389 216.338153 
L 173.660483 216.338153 
L 173.660483 215.764501 
L 174.098358 215.764501 
L 174.098358 215.190849 
L 174.307293 215.190849 
L 174.402224 212.322591 
L 174.805272 212.322591 
L 174.864043 211.175287 
L 175.0454 211.175287 
L 175.153934 209.454332 
L 175.487676 209.454332 
L 175.487676 208.88068 
L 175.599528 208.88068 
L 175.602541 206.586073 
L 175.818127 206.586073 
L 175.818127 206.012422 
L 175.998714 206.012422 
L 176.041856 203.717815 
L 176.124898 203.717815 
L 176.229843 201.423208 
L 176.537134 201.423208 
L 176.537134 200.849556 
L 176.673668 200.849556 
L 176.673668 200.275904 
L 176.897011 200.275904 
L 176.994643 199.128601 
L 177.387954 199.128601 
L 177.387954 198.554949 
L 177.840739 198.554949 
L 177.840739 197.981298 
L 178.039234 197.981298 
L 178.047965 196.833994 
L 179.033852 196.833994 
L 179.133381 195.686691 
L 179.164521 195.686691 
L 179.164521 195.113039 
L 179.701454 195.113039 
L 179.798834 193.392084 
L 179.973228 193.392084 
L 179.973228 192.818432 
L 180.493015 192.818432 
L 180.493015 192.24478 
L 180.658382 192.24478 
L 180.658382 191.671129 
L 181.124802 191.671129 
L 181.210929 189.950174 
L 181.294459 189.950174 
L 181.294459 189.376522 
L 181.443095 189.376522 
L 181.443095 188.80287 
L 181.571941 188.80287 
L 181.571941 188.229218 
L 181.79234 188.229218 
L 181.902553 187.081915 
L 181.938904 187.081915 
L 182.03084 185.934612 
L 182.351581 185.934612 
L 182.351581 185.36096 
L 182.507739 185.36096 
L 182.582604 184.213656 
L 183.33087 184.213656 
L 183.334093 183.066353 
L 183.501536 183.066353 
L 183.501536 182.492701 
L 183.659163 182.492701 
L 183.661061 181.345398 
L 183.824155 181.345398 
L 183.900454 180.198094 
L 183.999395 180.198094 
L 183.999395 179.624443 
L 184.163673 179.624443 
L 184.163673 179.050791 
L 184.569524 179.050791 
L 184.582131 177.903487 
L 185.706886 177.903487 
L 185.706886 177.329836 
L 185.913271 177.329836 
L 185.913271 176.756184 
L 186.068263 176.756184 
L 186.068263 176.182532 
L 186.216426 176.182532 
L 186.216426 175.608881 
L 187.181537 175.608881 
L 187.281035 173.314274 
L 187.389168 173.314274 
L 187.389168 172.740622 
L 187.554928 172.740622 
L 187.597386 171.593319 
L 187.824088 171.593319 
L 187.824088 171.019667 
L 188.088665 171.019667 
L 188.113678 169.872363 
L 188.254746 169.872363 
L 188.254746 169.298712 
L 188.719578 169.298712 
L 188.719578 168.72506 
L 189.660353 168.72506 
L 189.763206 167.577757 
L 189.827293 167.577757 
L 189.827293 167.004105 
L 190.033965 167.004105 
L 190.093567 165.856801 
L 190.581492 165.856801 
L 190.642223 164.709498 
L 191.316255 164.709498 
L 191.316255 164.135846 
L 191.642746 164.135846 
L 191.642746 163.562195 
L 192.015431 163.562195 
L 192.015431 162.988543 
L 192.20445 162.988543 
L 192.20445 162.414891 
L 192.366497 162.414891 
L 192.39451 161.267588 
L 192.604886 161.267588 
L 192.604886 160.693936 
L 193.26284 160.693936 
L 193.26284 160.120284 
L 193.490083 160.120284 
L 193.490083 159.546632 
L 201.88349 159.546632 
L 201.88349 158.972981 
L 204.018967 158.972981 
L 204.018967 158.399329 
L 205.428176 158.399329 
L 205.428176 157.825677 
L 205.919128 157.825677 
L 205.919128 157.252026 
L 209.510678 157.252026 
L 209.510678 156.678374 
L 211.823772 156.678374 
L 211.823772 156.104722 
L 211.984236 156.104722 
L 211.984236 155.53107 
L 212.737565 155.53107 
L 212.737565 154.957419 
L 217.196371 154.957419 
L 217.196371 154.383767 
L 221.297782 154.383767 
L 221.297782 153.810115 
L 227.402502 153.810115 
L 227.402502 152.662812 
L 227.871298 152.662812 
L 227.871298 152.08916 
L 233.798233 152.08916 
L 233.798233 151.515508 
L 241.004601 151.515508 
L 241.004601 150.941857 
L 250.710724 150.941857 
L 250.710724 150.368205 
L 263.536833 150.368205 
L 263.536833 149.794553 
L 338.688 149.794553 
L 338.688 149.794553 
" style="fill:none;stroke:#ff0000;stroke-linecap:square;stroke-width:1.5;"/>
   </g>
   <g id="line2d_49">
    <defs>
     <path d="M 0 -6 
L -5.196152 -3 
L -5.196152 3 
L -0 6 
L 5.196152 3 
L 5.196152 -3 
z
" id="m7b6a76002d" style="stroke:#ff0000;stroke-linejoin:miter;stroke-width:1.5;"/>
    </defs>
    <g>
     <use style="fill-opacity:0;stroke:#ff0000;stroke-linejoin:miter;stroke-width:1.5;" x="70.949209" xlink:href="#m7b6a76002d" y="287.470966"/>
     <use style="fill-opacity:0;stroke:#ff0000;stroke-linejoin:miter;stroke-width:1.5;" x="145.893535" xlink:href="#m7b6a76002d" y="257.067425"/>
     <use style="fill-opacity:0;stroke:#ff0000;stroke-linejoin:miter;stroke-width:1.5;" x="192.39451" xlink:href="#m7b6a76002d" y="161.267588"/>
     <use style="fill-opacity:0;stroke:#ff0000;stroke-linejoin:miter;stroke-width:1.5;" x="250.710724" xlink:href="#m7b6a76002d" y="150.368205"/>
     <use style="fill-opacity:0;stroke:#ff0000;stroke-linejoin:miter;stroke-width:1.5;" x="263.536833" xlink:href="#m7b6a76002d" y="149.794553"/>
     <use style="fill-opacity:0;stroke:#ff0000;stroke-linejoin:miter;stroke-width:1.5;" x="338.688" xlink:href="#m7b6a76002d" y="149.794553"/>
    </g>
   </g>
   <g id="line2d_50">
    <path style="fill:none;stroke:#ff0000;stroke-linecap:square;stroke-width:1.5;"/>
    <g/>
   </g>
   <g id="line2d_51">
    <path clip-path="url(#paaa93fdc56)" d="M 194.045737 159.546632 
" style="fill:none;stroke:#ff0000;stroke-linecap:square;stroke-width:1.5;"/>
    <defs>
     <path d="M -12 12 
L 12 -12 
M -12 -12 
L 12 12 
" id="m267109c233" style="stroke:#ff0000;"/>
    </defs>
    <g clip-path="url(#paaa93fdc56)">
     <use style="fill:#ff0000;stroke:#ff0000;" x="194.045737" xlink:href="#m267109c233" y="159.546632"/>
    </g>
   </g>
   <g id="line2d_52">
    <path d="M 338.688 298.944 
L 369.60768 293.092752 
" style="fill:none;stroke:#000080;stroke-linecap:square;stroke-width:1.5;"/>
    <g>
     <use style="fill-opacity:0;stroke:#000080;stroke-width:1.5;" x="338.688" xlink:href="#m26ea00907d" y="298.944"/>
     <use style="fill-opacity:0;stroke:#000080;stroke-width:1.5;" x="369.60768" xlink:href="#m26ea00907d" y="293.092752"/>
    </g>
   </g>
   <g id="line2d_53">
    <path d="M 338.688 281.734448 
L 369.60768 222.877782 
" style="fill:none;stroke:#ff00ff;stroke-linecap:square;stroke-width:1.5;"/>
    <g>
     <use style="fill-opacity:0;stroke:#ff00ff;stroke-linejoin:miter;stroke-width:1.5;" x="338.688" xlink:href="#me445fe6fbf" y="281.734448"/>
     <use style="fill-opacity:0;stroke:#ff00ff;stroke-linejoin:miter;stroke-width:1.5;" x="369.60768" xlink:href="#me445fe6fbf" y="222.877782"/>
    </g>
   </g>
   <g id="line2d_54">
    <path d="M 338.688 230.105794 
L 369.60768 152.662812 
" style="fill:none;stroke:#6495ed;stroke-linecap:square;stroke-width:1.5;"/>
    <g>
     <use style="fill-opacity:0;stroke:#6495ed;stroke-linejoin:miter;stroke-width:1.5;" x="338.688" xlink:href="#m1a4c23195a" y="230.105794"/>
     <use style="fill-opacity:0;stroke:#6495ed;stroke-linejoin:miter;stroke-width:1.5;" x="369.60768" xlink:href="#m1a4c23195a" y="152.662812"/>
    </g>
   </g>
   <g id="line2d_55">
    <path d="M 338.688 149.794553 
L 369.60768 82.447842 
" style="fill:none;stroke:#ff0000;stroke-linecap:square;stroke-width:1.5;"/>
    <g>
     <use style="fill-opacity:0;stroke:#ff0000;stroke-linejoin:miter;stroke-width:1.5;" x="338.688" xlink:href="#m7b6a76002d" y="149.794553"/>
     <use style="fill-opacity:0;stroke:#ff0000;stroke-linejoin:miter;stroke-width:1.5;" x="369.60768" xlink:href="#m7b6a76002d" y="82.447842"/>
    </g>
   </g>
   <g id="line2d_56">
    <path d="M 338.688 115.37545 
L 369.60768 12.232871 
" style="fill:none;stroke:#ff7500;stroke-linecap:square;stroke-width:1.5;"/>
    <g>
     <use style="fill-opacity:0;stroke:#ff7500;stroke-linejoin:bevel;stroke-width:1.5;" x="338.688" xlink:href="#md4f359e6a8" y="115.37545"/>
     <use style="fill-opacity:0;stroke:#ff7500;stroke-linejoin:bevel;stroke-width:1.5;" x="369.60768" xlink:href="#md4f359e6a8" y="12.232871"/>
    </g>
   </g>
   <g id="line2d_57">
    <path d="M 338.688 298.944 
L 338.688 6.381624 
" style="fill:none;stroke:#000000;stroke-linecap:square;stroke-width:1.5;"/>
   </g>
   <g id="patch_3">
    <path d="M 57.6 298.944 
L 57.6 3.456 
" style="fill:none;stroke:#000000;stroke-linecap:square;stroke-linejoin:miter;stroke-width:0.8;"/>
   </g>
   <g id="patch_4">
    <path d="M 338.688 298.944 
L 338.688 3.456 
" style="fill:none;stroke:#000000;stroke-linecap:square;stroke-linejoin:miter;stroke-width:0.8;"/>
   </g>
   <g id="patch_5">
    <path d="M 57.6 298.944 
L 338.688 298.944 
" style="fill:none;stroke:#000000;stroke-linecap:square;stroke-linejoin:miter;stroke-width:0.8;"/>
   </g>
   <g id="patch_6">
    <path d="M 57.6 3.456 
L 338.688 3.456 
" style="fill:none;stroke:#000000;stroke-linecap:square;stroke-linejoin:miter;stroke-width:0.8;"/>
   </g>
   <g id="text_13">
    <!-- f10 -->
    <g transform="translate(375.22944 297.78369)scale(0.17 -0.17)">
     <use xlink:href="#DejaVuSans-66"/>
     <use x="35.205078" xlink:href="#DejaVuSans-31"/>
     <use x="98.828125" xlink:href="#DejaVuSans-30"/>
    </g>
   </g>
   <g id="text_14">
    <!-- f11 -->
    <g transform="translate(375.22944 227.56872)scale(0.17 -0.17)">
     <use xlink:href="#DejaVuSans-66"/>
     <use x="35.205078" xlink:href="#DejaVuSans-31"/>
     <use x="98.828125" xlink:href="#DejaVuSans-31"/>
    </g>
   </g>
   <g id="text_15">
    <!-- f13 -->
    <g transform="translate(375.22944 157.353749)scale(0.17 -0.17)">
     <defs>
      <path d="M 2597 2516 
Q 3050 2419 3304 2112 
Q 3559 1806 3559 1356 
Q 3559 666 3084 287 
Q 2609 -91 1734 -91 
Q 1441 -91 1130 -33 
Q 819 25 488 141 
L 488 750 
Q 750 597 1062 519 
Q 1375 441 1716 441 
Q 2309 441 2620 675 
Q 2931 909 2931 1356 
Q 2931 1769 2642 2001 
Q 2353 2234 1838 2234 
L 1294 2234 
L 1294 2753 
L 1863 2753 
Q 2328 2753 2575 2939 
Q 2822 3125 2822 3475 
Q 2822 3834 2567 4026 
Q 2313 4219 1838 4219 
Q 1578 4219 1281 4162 
Q 984 4106 628 3988 
L 628 4550 
Q 988 4650 1302 4700 
Q 1616 4750 1894 4750 
Q 2613 4750 3031 4423 
Q 3450 4097 3450 3541 
Q 3450 3153 3228 2886 
Q 3006 2619 2597 2516 
z
" id="DejaVuSans-33" transform="scale(0.015625)"/>
     </defs>
     <use xlink:href="#DejaVuSans-66"/>
     <use x="35.205078" xlink:href="#DejaVuSans-31"/>
     <use x="98.828125" xlink:href="#DejaVuSans-33"/>
    </g>
   </g>
   <g id="text_16">
    <!-- f14 -->
    <g transform="translate(375.22944 87.138779)scale(0.17 -0.17)">
     <use xlink:href="#DejaVuSans-66"/>
     <use x="35.205078" xlink:href="#DejaVuSans-31"/>
     <use x="98.828125" xlink:href="#DejaVuSans-34"/>
    </g>
   </g>
   <g id="text_17">
    <!-- f12 -->
    <g transform="translate(375.22944 16.923809)scale(0.17 -0.17)">
     <use xlink:href="#DejaVuSans-66"/>
     <use x="35.205078" xlink:href="#DejaVuSans-31"/>
     <use x="98.828125" xlink:href="#DejaVuSans-32"/>
    </g>
   </g>
   <g id="text_18">
    <!-- bbob -->
    <g transform="translate(60.41088 14.161286)scale(0.102 -0.102)">
     <defs>
      <path d="M 3116 1747 
Q 3116 2381 2855 2742 
Q 2594 3103 2138 3103 
Q 1681 3103 1420 2742 
Q 1159 2381 1159 1747 
Q 1159 1113 1420 752 
Q 1681 391 2138 391 
Q 2594 391 2855 752 
Q 3116 1113 3116 1747 
z
M 1159 2969 
Q 1341 3281 1617 3432 
Q 1894 3584 2278 3584 
Q 2916 3584 3314 3078 
Q 3713 2572 3713 1747 
Q 3713 922 3314 415 
Q 2916 -91 2278 -91 
Q 1894 -91 1617 61 
Q 1341 213 1159 525 
L 1159 0 
L 581 0 
L 581 4863 
L 1159 4863 
L 1159 2969 
z
" id="DejaVuSans-62" transform="scale(0.015625)"/>
     </defs>
     <use xlink:href="#DejaVuSans-62"/>
     <use x="63.476562" xlink:href="#DejaVuSans-62"/>
     <use x="126.953125" xlink:href="#DejaVuSans-6f"/>
     <use x="188.134766" xlink:href="#DejaVuSans-62"/>
    </g>
    <!-- Ill-conditioned functions, 20-D -->
    <g transform="translate(60.41088 25.583055)scale(0.102 -0.102)">
     <defs>
      <path d="M 628 4666 
L 1259 4666 
L 1259 0 
L 628 0 
L 628 4666 
z
" id="DejaVuSans-49" transform="scale(0.015625)"/>
      <path d="M 1259 4147 
L 1259 519 
L 2022 519 
Q 2988 519 3436 956 
Q 3884 1394 3884 2338 
Q 3884 3275 3436 3711 
Q 2988 4147 2022 4147 
L 1259 4147 
z
M 628 4666 
L 1925 4666 
Q 3281 4666 3915 4102 
Q 4550 3538 4550 2338 
Q 4550 1131 3912 565 
Q 3275 0 1925 0 
L 628 0 
L 628 4666 
z
" id="DejaVuSans-44" transform="scale(0.015625)"/>
     </defs>
     <use xlink:href="#DejaVuSans-49"/>
     <use x="29.492188" xlink:href="#DejaVuSans-6c"/>
     <use x="57.275391" xlink:href="#DejaVuSans-6c"/>
     <use x="85.058594" xlink:href="#DejaVuSans-2d"/>
     <use x="121.142578" xlink:href="#DejaVuSans-63"/>
     <use x="176.123047" xlink:href="#DejaVuSans-6f"/>
     <use x="237.304688" xlink:href="#DejaVuSans-6e"/>
     <use x="300.683594" xlink:href="#DejaVuSans-64"/>
     <use x="364.160156" xlink:href="#DejaVuSans-69"/>
     <use x="391.943359" xlink:href="#DejaVuSans-74"/>
     <use x="431.152344" xlink:href="#DejaVuSans-69"/>
     <use x="458.935547" xlink:href="#DejaVuSans-6f"/>
     <use x="520.117188" xlink:href="#DejaVuSans-6e"/>
     <use x="583.496094" xlink:href="#DejaVuSans-65"/>
     <use x="645.019531" xlink:href="#DejaVuSans-64"/>
     <use x="708.496094" xlink:href="#DejaVuSans-20"/>
     <use x="740.283203" xlink:href="#DejaVuSans-66"/>
     <use x="775.488281" xlink:href="#DejaVuSans-75"/>
     <use x="838.867188" xlink:href="#DejaVuSans-6e"/>
     <use x="902.246094" xlink:href="#DejaVuSans-63"/>
     <use x="957.226562" xlink:href="#DejaVuSans-74"/>
     <use x="996.435547" xlink:href="#DejaVuSans-69"/>
     <use x="1024.21875" xlink:href="#DejaVuSans-6f"/>
     <use x="1085.400391" xlink:href="#DejaVuSans-6e"/>
     <use x="1148.779297" xlink:href="#DejaVuSans-73"/>
     <use x="1200.878906" xlink:href="#DejaVuSans-2c"/>
     <use x="1232.666016" xlink:href="#DejaVuSans-20"/>
     <use x="1264.453125" xlink:href="#DejaVuSans-32"/>
     <use x="1328.076172" xlink:href="#DejaVuSans-30"/>
     <use x="1391.699219" xlink:href="#DejaVuSans-2d"/>
     <use x="1427.783203" xlink:href="#DejaVuSans-44"/>
    </g>
    <!-- 51 targets: 100..1e-08 -->
    <g transform="translate(60.41088 37.004824)scale(0.102 -0.102)">
     <defs>
      <path d="M 691 4666 
L 3169 4666 
L 3169 4134 
L 1269 4134 
L 1269 2991 
Q 1406 3038 1543 3061 
Q 1681 3084 1819 3084 
Q 2600 3084 3056 2656 
Q 3513 2228 3513 1497 
Q 3513 744 3044 326 
Q 2575 -91 1722 -91 
Q 1428 -91 1123 -41 
Q 819 9 494 109 
L 494 744 
Q 775 591 1075 516 
Q 1375 441 1709 441 
Q 2250 441 2565 725 
Q 2881 1009 2881 1497 
Q 2881 1984 2565 2268 
Q 2250 2553 1709 2553 
Q 1456 2553 1204 2497 
Q 953 2441 691 2322 
L 691 4666 
z
" id="DejaVuSans-35" transform="scale(0.015625)"/>
      <path d="M 750 794 
L 1409 794 
L 1409 0 
L 750 0 
L 750 794 
z
M 750 3309 
L 1409 3309 
L 1409 2516 
L 750 2516 
L 750 3309 
z
" id="DejaVuSans-3a" transform="scale(0.015625)"/>
     </defs>
     <use xlink:href="#DejaVuSans-35"/>
     <use x="63.623047" xlink:href="#DejaVuSans-31"/>
     <use x="127.246094" xlink:href="#DejaVuSans-20"/>
     <use x="159.033203" xlink:href="#DejaVuSans-74"/>
     <use x="198.242188" xlink:href="#DejaVuSans-61"/>
     <use x="259.521484" xlink:href="#DejaVuSans-72"/>
     <use x="298.884766" xlink:href="#DejaVuSans-67"/>
     <use x="362.361328" xlink:href="#DejaVuSans-65"/>
     <use x="423.884766" xlink:href="#DejaVuSans-74"/>
     <use x="463.09375" xlink:href="#DejaVuSans-73"/>
     <use x="515.193359" xlink:href="#DejaVuSans-3a"/>
     <use x="548.884766" xlink:href="#DejaVuSans-20"/>
     <use x="580.671875" xlink:href="#DejaVuSans-31"/>
     <use x="644.294922" xlink:href="#DejaVuSans-30"/>
     <use x="707.917969" xlink:href="#DejaVuSans-30"/>
     <use x="771.541016" xlink:href="#DejaVuSans-2e"/>
     <use x="803.328125" xlink:href="#DejaVuSans-2e"/>
     <use x="835.115234" xlink:href="#DejaVuSans-31"/>
     <use x="898.738281" xlink:href="#DejaVuSans-65"/>
     <use x="960.261719" xlink:href="#DejaVuSans-2d"/>
     <use x="996.345703" xlink:href="#DejaVuSans-30"/>
     <use x="1059.96875" xlink:href="#DejaVuSans-38"/>
    </g>
    <!-- 15 instances -->
    <g transform="translate(60.41088 48.426593)scale(0.102 -0.102)">
     <use xlink:href="#DejaVuSans-31"/>
     <use x="63.623047" xlink:href="#DejaVuSans-35"/>
     <use x="127.246094" xlink:href="#DejaVuSans-20"/>
     <use x="159.033203" xlink:href="#DejaVuSans-69"/>
     <use x="186.816406" xlink:href="#DejaVuSans-6e"/>
     <use x="250.195312" xlink:href="#DejaVuSans-73"/>
     <use x="302.294922" xlink:href="#DejaVuSans-74"/>
     <use x="341.503906" xlink:href="#DejaVuSans-61"/>
     <use x="402.783203" xlink:href="#DejaVuSans-6e"/>
     <use x="466.162109" xlink:href="#DejaVuSans-63"/>
     <use x="521.142578" xlink:href="#DejaVuSans-65"/>
     <use x="582.666016" xlink:href="#DejaVuSans-73"/>
    </g>
   </g>
   <g id="text_19">
    <!-- v2.4 -->
    <g style="fill:#808080;" transform="translate(187.233062 293.909432)scale(0.1 -0.1)">
     <use xlink:href="#DejaVuSans-76"/>
     <use x="59.179688" xlink:href="#DejaVuSans-32"/>
     <use x="122.802734" xlink:href="#DejaVuSans-2e"/>
     <use x="154.589844" xlink:href="#DejaVuSans-34"/>
    </g>
   </g>
  </g>
 </g>
 <defs>
  <clipPath id="paaa93fdc56">
   <rect height="295.488" width="281.088" x="57.6" y="3.456"/>
  </clipPath>
 </defs>
</svg>
