<?xml version="1.0" encoding="utf-8" standalone="no"?>
<!DOCTYPE svg PUBLIC "-//W3C//DTD SVG 1.1//EN"
  "http://www.w3.org/Graphics/SVG/1.1/DTD/svg11.dtd">
<svg height="345.6pt" version="1.1" viewBox="0 0 460.8 345.6" width="460.8pt" xmlns="http://www.w3.org/2000/svg" xmlns:xlink="http://www.w3.org/1999/xlink">
 <metadata>
  <rdf:RDF xmlns:cc="http://creativecommons.org/ns#" xmlns:dc="http://purl.org/dc/elements/1.1/" xmlns:rdf="http://www.w3.org/1999/02/22-rdf-syntax-ns#">
   <cc:Work>
    <dc:type rdf:resource="http://purl.org/dc/dcmitype/StillImage"/>
    <dc:date>2021-04-30T23:04:16.163465</dc:date>
    <dc:format>image/svg+xml</dc:format>
    <dc:creator>
     <cc:Agent>
      <dc:title>Matplotlib v3.4.1, https://matplotlib.org/</dc:title>
     </cc:Agent>
    </dc:creator>
   </cc:Work>
  </rdf:RDF>
 </metadata>
 <defs>
  <style type="text/css">*{stroke-linecap:butt;stroke-linejoin:round;}</style>
 </defs>
 <g id="figure_1">
  <g id="patch_1">
   <path d="M 0 345.6 
L 460.8 345.6 
L 460.8 0 
L 0 0 
z
" style="fill:#ffffff;"/>
  </g>
  <g id="axes_1">
   <g id="patch_2">
    <path d="M 0 293.76 
L 460.8 293.76 
L 460.8 3.456 
L 0 3.456 
z
" style="fill:#ffffff;"/>
   </g>
   <g id="matplotlib.axis_1">
    <g id="xtick_1">
     <g id="line2d_1">
      <path clip-path="url(#p23a480c89c)" d="M 101.196993 293.76 
L 101.196993 3.456 
" style="fill:none;stroke:#b0b0b0;stroke-linecap:square;stroke-width:0.8;"/>
     </g>
     <g id="line2d_2">
      <defs>
       <path d="M 0 0 
L 0 3.5 
" id="m9cd0ab8e83" style="stroke:#000000;stroke-width:0.8;"/>
      </defs>
      <g>
       <use style="stroke:#000000;stroke-width:0.8;" x="101.196993" xlink:href="#m9cd0ab8e83" y="293.76"/>
      </g>
     </g>
     <g id="text_1">
      <!-- -4 -->
      <g transform="translate(91.22668 315.956875)scale(0.2 -0.2)">
       <defs>
        <path d="M 313 2009 
L 1997 2009 
L 1997 1497 
L 313 1497 
L 313 2009 
z
" id="DejaVuSans-2d" transform="scale(0.015625)"/>
        <path d="M 2419 4116 
L 825 1625 
L 2419 1625 
L 2419 4116 
z
M 2253 4666 
L 3047 4666 
L 3047 1625 
L 3713 1625 
L 3713 1100 
L 3047 1100 
L 3047 0 
L 2419 0 
L 2419 1100 
L 313 1100 
L 313 1709 
L 2253 4666 
z
" id="DejaVuSans-34" transform="scale(0.015625)"/>
       </defs>
       <use xlink:href="#DejaVuSans-2d"/>
       <use x="36.083984" xlink:href="#DejaVuSans-34"/>
      </g>
     </g>
    </g>
    <g id="xtick_2">
     <g id="line2d_3">
      <path clip-path="url(#p23a480c89c)" d="M 202.503431 293.76 
L 202.503431 3.456 
" style="fill:none;stroke:#b0b0b0;stroke-linecap:square;stroke-width:0.8;"/>
     </g>
     <g id="line2d_4">
      <g>
       <use style="stroke:#000000;stroke-width:0.8;" x="202.503431" xlink:href="#m9cd0ab8e83" y="293.76"/>
      </g>
     </g>
     <g id="text_2">
      <!-- 0 -->
      <g transform="translate(196.140931 315.956875)scale(0.2 -0.2)">
       <defs>
        <path d="M 2034 4250 
Q 1547 4250 1301 3770 
Q 1056 3291 1056 2328 
Q 1056 1369 1301 889 
Q 1547 409 2034 409 
Q 2525 409 2770 889 
Q 3016 1369 3016 2328 
Q 3016 3291 2770 3770 
Q 2525 4250 2034 4250 
z
M 2034 4750 
Q 2819 4750 3233 4129 
Q 3647 3509 3647 2328 
Q 3647 1150 3233 529 
Q 2819 -91 2034 -91 
Q 1250 -91 836 529 
Q 422 1150 422 2328 
Q 422 3509 836 4129 
Q 1250 4750 2034 4750 
z
" id="DejaVuSans-30" transform="scale(0.015625)"/>
       </defs>
       <use xlink:href="#DejaVuSans-30"/>
      </g>
     </g>
    </g>
    <g id="xtick_3">
     <g id="line2d_5">
      <path clip-path="url(#p23a480c89c)" d="M 303.809869 293.76 
L 303.809869 3.456 
" style="fill:none;stroke:#b0b0b0;stroke-linecap:square;stroke-width:0.8;"/>
     </g>
     <g id="line2d_6">
      <g>
       <use style="stroke:#000000;stroke-width:0.8;" x="303.809869" xlink:href="#m9cd0ab8e83" y="293.76"/>
      </g>
     </g>
     <g id="text_3">
      <!-- 4 -->
      <g transform="translate(297.447369 315.956875)scale(0.2 -0.2)">
       <use xlink:href="#DejaVuSans-34"/>
      </g>
     </g>
    </g>
    <g id="xtick_4">
     <g id="line2d_7">
      <path clip-path="url(#p23a480c89c)" d="M 405.116308 293.76 
L 405.116308 3.456 
" style="fill:none;stroke:#b0b0b0;stroke-linecap:square;stroke-width:0.8;"/>
     </g>
     <g id="line2d_8">
      <g>
       <use style="stroke:#000000;stroke-width:0.8;" x="405.116308" xlink:href="#m9cd0ab8e83" y="293.76"/>
      </g>
     </g>
     <g id="text_4">
      <!-- 8 -->
      <g transform="translate(398.753808 315.956875)scale(0.2 -0.2)">
       <defs>
        <path d="M 2034 2216 
Q 1584 2216 1326 1975 
Q 1069 1734 1069 1313 
Q 1069 891 1326 650 
Q 1584 409 2034 409 
Q 2484 409 2743 651 
Q 3003 894 3003 1313 
Q 3003 1734 2745 1975 
Q 2488 2216 2034 2216 
z
M 1403 2484 
Q 997 2584 770 2862 
Q 544 3141 544 3541 
Q 544 4100 942 4425 
Q 1341 4750 2034 4750 
Q 2731 4750 3128 4425 
Q 3525 4100 3525 3541 
Q 3525 3141 3298 2862 
Q 3072 2584 2669 2484 
Q 3125 2378 3379 2068 
Q 3634 1759 3634 1313 
Q 3634 634 3220 271 
Q 2806 -91 2034 -91 
Q 1263 -91 848 271 
Q 434 634 434 1313 
Q 434 1759 690 2068 
Q 947 2378 1403 2484 
z
M 1172 3481 
Q 1172 3119 1398 2916 
Q 1625 2713 2034 2713 
Q 2441 2713 2670 2916 
Q 2900 3119 2900 3481 
Q 2900 3844 2670 4047 
Q 2441 4250 2034 4250 
Q 1625 4250 1398 4047 
Q 1172 3844 1172 3481 
z
" id="DejaVuSans-38" transform="scale(0.015625)"/>
       </defs>
       <use xlink:href="#DejaVuSans-38"/>
      </g>
     </g>
    </g>
    <g id="text_5">
     <!-- log10 of Df -->
     <g transform="translate(175.214063 339.313125)scale(0.2 -0.2)">
      <defs>
       <path d="M 603 4863 
L 1178 4863 
L 1178 0 
L 603 0 
L 603 4863 
z
" id="DejaVuSans-6c" transform="scale(0.015625)"/>
       <path d="M 1959 3097 
Q 1497 3097 1228 2736 
Q 959 2375 959 1747 
Q 959 1119 1226 758 
Q 1494 397 1959 397 
Q 2419 397 2687 759 
Q 2956 1122 2956 1747 
Q 2956 2369 2687 2733 
Q 2419 3097 1959 3097 
z
M 1959 3584 
Q 2709 3584 3137 3096 
Q 3566 2609 3566 1747 
Q 3566 888 3137 398 
Q 2709 -91 1959 -91 
Q 1206 -91 779 398 
Q 353 888 353 1747 
Q 353 2609 779 3096 
Q 1206 3584 1959 3584 
z
" id="DejaVuSans-6f" transform="scale(0.015625)"/>
       <path d="M 2906 1791 
Q 2906 2416 2648 2759 
Q 2391 3103 1925 3103 
Q 1463 3103 1205 2759 
Q 947 2416 947 1791 
Q 947 1169 1205 825 
Q 1463 481 1925 481 
Q 2391 481 2648 825 
Q 2906 1169 2906 1791 
z
M 3481 434 
Q 3481 -459 3084 -895 
Q 2688 -1331 1869 -1331 
Q 1566 -1331 1297 -1286 
Q 1028 -1241 775 -1147 
L 775 -588 
Q 1028 -725 1275 -790 
Q 1522 -856 1778 -856 
Q 2344 -856 2625 -561 
Q 2906 -266 2906 331 
L 2906 616 
Q 2728 306 2450 153 
Q 2172 0 1784 0 
Q 1141 0 747 490 
Q 353 981 353 1791 
Q 353 2603 747 3093 
Q 1141 3584 1784 3584 
Q 2172 3584 2450 3431 
Q 2728 3278 2906 2969 
L 2906 3500 
L 3481 3500 
L 3481 434 
z
" id="DejaVuSans-67" transform="scale(0.015625)"/>
       <path d="M 794 531 
L 1825 531 
L 1825 4091 
L 703 3866 
L 703 4441 
L 1819 4666 
L 2450 4666 
L 2450 531 
L 3481 531 
L 3481 0 
L 794 0 
L 794 531 
z
" id="DejaVuSans-31" transform="scale(0.015625)"/>
       <path id="DejaVuSans-20" transform="scale(0.015625)"/>
       <path d="M 2375 4863 
L 2375 4384 
L 1825 4384 
Q 1516 4384 1395 4259 
Q 1275 4134 1275 3809 
L 1275 3500 
L 2222 3500 
L 2222 3053 
L 1275 3053 
L 1275 0 
L 697 0 
L 697 3053 
L 147 3053 
L 147 3500 
L 697 3500 
L 697 3744 
Q 697 4328 969 4595 
Q 1241 4863 1831 4863 
L 2375 4863 
z
" id="DejaVuSans-66" transform="scale(0.015625)"/>
       <path d="M 1259 4147 
L 1259 519 
L 2022 519 
Q 2988 519 3436 956 
Q 3884 1394 3884 2338 
Q 3884 3275 3436 3711 
Q 2988 4147 2022 4147 
L 1259 4147 
z
M 628 4666 
L 1925 4666 
Q 3281 4666 3915 4102 
Q 4550 3538 4550 2338 
Q 4550 1131 3912 565 
Q 3275 0 1925 0 
L 628 0 
L 628 4666 
z
" id="DejaVuSans-44" transform="scale(0.015625)"/>
      </defs>
      <use xlink:href="#DejaVuSans-6c"/>
      <use x="27.783203" xlink:href="#DejaVuSans-6f"/>
      <use x="88.964844" xlink:href="#DejaVuSans-67"/>
      <use x="152.441406" xlink:href="#DejaVuSans-31"/>
      <use x="216.064453" xlink:href="#DejaVuSans-30"/>
      <use x="279.6875" xlink:href="#DejaVuSans-20"/>
      <use x="311.474609" xlink:href="#DejaVuSans-6f"/>
      <use x="372.65625" xlink:href="#DejaVuSans-66"/>
      <use x="407.861328" xlink:href="#DejaVuSans-20"/>
      <use x="439.648438" xlink:href="#DejaVuSans-44"/>
      <use x="516.650391" xlink:href="#DejaVuSans-66"/>
     </g>
    </g>
   </g>
   <g id="matplotlib.axis_2">
    <g id="ytick_1">
     <g id="line2d_9">
      <path clip-path="url(#p23a480c89c)" d="M 0 293.76 
L 460.8 293.76 
" style="fill:none;stroke:#b0b0b0;stroke-linecap:square;stroke-width:0.8;"/>
     </g>
     <g id="line2d_10">
      <defs>
       <path d="M 0 0 
L -3.5 0 
" id="mb71839b96a" style="stroke:#000000;stroke-width:0.8;"/>
      </defs>
      <g>
       <use style="stroke:#000000;stroke-width:0.8;" x="0" xlink:href="#mb71839b96a" y="293.76"/>
      </g>
     </g>
    </g>
    <g id="ytick_2">
     <g id="line2d_11">
      <path clip-path="url(#p23a480c89c)" d="M 0 236.274059 
L 460.8 236.274059 
" style="fill:none;stroke:#b0b0b0;stroke-linecap:square;stroke-width:0.8;"/>
     </g>
     <g id="line2d_12">
      <g>
       <use style="stroke:#000000;stroke-width:0.8;" x="0" xlink:href="#mb71839b96a" y="236.274059"/>
      </g>
     </g>
    </g>
    <g id="ytick_3">
     <g id="line2d_13">
      <path clip-path="url(#p23a480c89c)" d="M 0 178.788119 
L 460.8 178.788119 
" style="fill:none;stroke:#b0b0b0;stroke-linecap:square;stroke-width:0.8;"/>
     </g>
     <g id="line2d_14">
      <g>
       <use style="stroke:#000000;stroke-width:0.8;" x="0" xlink:href="#mb71839b96a" y="178.788119"/>
      </g>
     </g>
    </g>
    <g id="ytick_4">
     <g id="line2d_15">
      <path clip-path="url(#p23a480c89c)" d="M 0 121.302178 
L 460.8 121.302178 
" style="fill:none;stroke:#b0b0b0;stroke-linecap:square;stroke-width:0.8;"/>
     </g>
     <g id="line2d_16">
      <g>
       <use style="stroke:#000000;stroke-width:0.8;" x="0" xlink:href="#mb71839b96a" y="121.302178"/>
      </g>
     </g>
    </g>
    <g id="ytick_5">
     <g id="line2d_17">
      <path clip-path="url(#p23a480c89c)" d="M 0 63.816238 
L 460.8 63.816238 
" style="fill:none;stroke:#b0b0b0;stroke-linecap:square;stroke-width:0.8;"/>
     </g>
     <g id="line2d_18">
      <g>
       <use style="stroke:#000000;stroke-width:0.8;" x="0" xlink:href="#mb71839b96a" y="63.816238"/>
      </g>
     </g>
    </g>
    <g id="ytick_6">
     <g id="line2d_19">
      <path clip-path="url(#p23a480c89c)" d="M 0 6.330297 
L 460.8 6.330297 
" style="fill:none;stroke:#b0b0b0;stroke-linecap:square;stroke-width:0.8;"/>
     </g>
     <g id="line2d_20">
      <g>
       <use style="stroke:#000000;stroke-width:0.8;" x="0" xlink:href="#mb71839b96a" y="6.330297"/>
      </g>
     </g>
    </g>
   </g>
   <g id="line2d_21">
    <path clip-path="url(#p23a480c89c)" d="M -1 289.927604 
L -0.109446 289.927604 
L -0.109446 217.112079 
L 56.086499 217.112079 
L 56.086499 213.279683 
L 186.662201 213.279683 
L 186.662268 194.117703 
L 188.793881 194.117703 
L 188.793881 190.285307 
L 192.325479 190.285307 
L 192.325479 186.452911 
L 194.233616 186.452911 
L 194.294632 167.290931 
L 198.451586 167.290931 
L 198.495469 144.296554 
L 198.960847 144.296554 
L 198.960847 140.464158 
L 200.838038 140.464158 
L 200.838038 136.631762 
L 201.442283 136.631762 
L 201.442283 132.799366 
L 201.70518 132.799366 
L 201.70518 128.96697 
L 203.18842 128.96697 
L 203.18842 125.134574 
L 203.7935 125.134574 
L 203.7935 121.302178 
L 204.540893 121.302178 
L 204.540893 117.469782 
L 205.183534 117.469782 
L 205.183534 113.637386 
L 205.962337 113.637386 
L 205.962337 109.80499 
L 206.363296 109.80499 
L 206.363296 105.972594 
L 206.87322 105.972594 
L 206.910212 98.307802 
L 207.071144 98.307802 
L 207.071144 94.475406 
L 207.183974 94.475406 
L 207.183974 90.64301 
L 207.415824 90.64301 
L 207.415824 86.810614 
L 207.57251 86.810614 
L 207.57251 82.978218 
L 208.472233 82.978218 
L 208.472233 79.145822 
L 210.583366 79.145822 
L 210.583366 75.313426 
L 210.761327 75.313426 
L 210.761327 71.48103 
L 212.509279 71.48103 
L 212.509279 67.648634 
L 212.973239 67.648634 
L 212.973239 63.816238 
L 223.952726 63.816238 
L 223.952726 59.983842 
L 226.042741 59.983842 
L 226.042741 56.151446 
L 227.324598 56.151446 
L 227.324598 52.31905 
L 228.53383 52.31905 
L 228.53383 48.486653 
L 228.808943 48.486653 
L 228.808943 44.654257 
L 229.655863 44.654257 
L 229.655863 40.821861 
L 230.249797 40.821861 
L 230.249797 36.989465 
L 230.911002 36.989465 
L 230.923348 29.324673 
L 231.567383 29.324673 
L 231.667584 21.659881 
L 232.006248 21.659881 
L 232.051438 13.995089 
L 232.498862 13.995089 
L 232.498862 10.162693 
L 232.804706 10.162693 
L 232.804706 6.330297 
L 232.804706 6.330297 
L 460.8 6.330297 
L 460.8 6.330297 
" style="fill:none;stroke:#ff0000;stroke-linecap:square;stroke-width:3;"/>
   </g>
   <g id="line2d_22">
    <path clip-path="url(#p23a480c89c)" d="M 218.872756 293.76 
L 218.872756 289.927604 
L 219.107583 289.927604 
L 219.107583 286.095208 
L 227.016684 286.095208 
L 227.016684 282.262812 
L 229.999812 282.262812 
L 229.999812 278.430416 
L 231.021606 278.430416 
L 231.021606 274.59802 
L 231.538453 274.59802 
L 231.589395 266.933228 
L 232.871184 266.933228 
L 232.871184 263.100832 
L 234.379137 263.100832 
L 234.379137 259.268436 
L 234.985409 259.268436 
L 234.985409 255.43604 
L 235.143633 255.43604 
L 235.143633 251.603644 
L 236.578336 251.603644 
L 236.578336 247.771248 
L 238.182372 247.771248 
L 238.182372 243.938851 
L 238.560213 243.938851 
L 238.560213 240.106455 
L 239.095277 240.106455 
L 239.095277 236.274059 
L 241.68843 236.274059 
L 241.68843 232.441663 
L 242.015489 232.441663 
L 242.015489 228.609267 
L 242.207016 228.609267 
L 242.207016 224.776871 
L 243.306215 224.776871 
L 243.306215 220.944475 
L 243.862206 220.944475 
L 243.896936 213.279683 
L 244.997241 213.279683 
L 244.997241 209.447287 
L 246.299469 209.447287 
L 246.299469 205.614891 
L 247.779522 205.614891 
L 247.779522 201.782495 
L 247.977133 201.782495 
L 247.977133 197.950099 
L 248.137566 197.950099 
L 248.193795 190.285307 
L 248.442162 190.285307 
L 248.442162 186.452911 
L 248.598867 186.452911 
L 248.66279 174.955723 
L 248.863484 174.955723 
L 248.863484 171.123327 
L 249.016018 171.123327 
L 249.091728 159.626139 
L 249.510717 159.626139 
L 249.510717 155.793743 
L 249.641347 155.793743 
L 249.641347 151.961347 
L 249.935466 151.961347 
L 249.935466 148.12895 
L 250.464843 148.12895 
L 250.524118 136.631762 
L 250.596739 136.631762 
L 250.596739 132.799366 
L 251.044058 132.799366 
L 251.069694 125.134574 
L 251.280117 125.134574 
L 251.280117 121.302178 
L 252.844975 121.302178 
L 252.844975 117.469782 
L 253.208896 117.469782 
L 253.208896 113.637386 
L 253.845471 113.637386 
L 253.845471 109.80499 
L 254.318082 109.80499 
L 254.318082 105.972594 
L 254.720367 105.972594 
L 254.720367 102.140198 
L 255.326737 102.140198 
L 255.326737 98.307802 
L 255.445089 98.307802 
L 255.445089 94.475406 
L 255.556795 94.475406 
L 255.556795 90.64301 
L 256.604155 90.64301 
L 256.604155 86.810614 
L 256.991607 86.810614 
L 256.991607 82.978218 
L 257.180208 82.978218 
L 257.180208 79.145822 
L 257.647595 79.145822 
L 257.647595 75.313426 
L 258.732379 75.313426 
L 258.819576 67.648634 
L 259.313242 67.648634 
L 259.313242 63.816238 
L 288.929552 63.816238 
L 288.929552 59.983842 
L 298.662834 59.983842 
L 298.662834 56.151446 
L 301.643567 56.151446 
L 301.643567 52.31905 
L 302.205251 52.31905 
L 302.205251 48.486653 
L 303.826388 48.486653 
L 303.826388 44.654257 
L 307.20611 44.654257 
L 307.20611 40.821861 
L 308.636664 40.821861 
L 308.636664 36.989465 
L 312.105381 36.989465 
L 312.105381 33.157069 
L 314.997675 33.157069 
L 314.997675 29.324673 
L 316.40915 29.324673 
L 316.40915 25.492277 
L 318.871035 25.492277 
L 318.871035 21.659881 
L 320.941544 21.659881 
L 320.941544 17.827485 
L 327.451817 17.827485 
L 327.451817 13.995089 
L 329.740956 13.995089 
L 329.740956 10.162693 
L 332.180068 10.162693 
L 332.180068 6.330297 
L 332.180068 6.330297 
L 460.8 6.330297 
L 460.8 6.330297 
" style="fill:none;stroke:#00bfbf;stroke-linecap:square;stroke-width:1.5;"/>
   </g>
   <g id="line2d_23">
    <path clip-path="url(#p23a480c89c)" d="M 212.509279 293.76 
L 212.509279 289.927604 
L 215.331673 289.927604 
L 215.331673 286.095208 
L 216.450152 286.095208 
L 216.450152 282.262812 
L 217.15191 282.262812 
L 217.15191 278.430416 
L 218.086616 278.430416 
L 218.086616 274.59802 
L 218.872756 274.59802 
L 218.872756 270.765624 
L 219.107583 270.765624 
L 219.107583 266.933228 
L 223.80542 266.933228 
L 223.80542 263.100832 
L 224.935662 263.100832 
L 224.935662 259.268436 
L 225.722078 259.268436 
L 225.722078 255.43604 
L 227.016684 255.43604 
L 227.016684 251.603644 
L 227.694463 251.603644 
L 227.694463 247.771248 
L 228.619564 247.771248 
L 228.619564 243.938851 
L 229.152817 243.938851 
L 229.152817 240.106455 
L 229.693815 240.106455 
L 229.693815 236.274059 
L 229.999812 236.274059 
L 229.999812 232.441663 
L 231.021606 232.441663 
L 231.021606 228.609267 
L 235.498199 228.609267 
L 235.498199 224.776871 
L 236.578336 224.776871 
L 236.578336 220.944475 
L 238.69467 220.944475 
L 238.69467 217.112079 
L 241.68843 217.112079 
L 241.68843 213.279683 
L 241.893529 213.279683 
L 241.893529 209.447287 
L 242.015489 209.447287 
L 242.015489 205.614891 
L 242.207016 205.614891 
L 242.207016 201.782495 
L 242.840233 201.782495 
L 242.840233 197.950099 
L 243.125978 197.950099 
L 243.134257 190.285307 
L 243.244399 190.285307 
L 243.244399 186.452911 
L 243.862206 186.452911 
L 243.862206 182.620515 
L 244.311607 182.620515 
L 244.311607 178.788119 
L 244.997241 178.788119 
L 244.997241 174.955723 
L 245.808097 174.955723 
L 245.808097 171.123327 
L 246.049151 171.123327 
L 246.103372 163.458535 
L 246.299469 163.458535 
L 246.299469 159.626139 
L 246.789782 159.626139 
L 246.876703 148.12895 
L 248.137566 148.12895 
L 248.137566 144.296554 
L 248.363964 144.296554 
L 248.415737 132.799366 
L 248.627049 132.799366 
L 248.653596 125.134574 
L 248.852148 125.134574 
L 248.852148 121.302178 
L 249.641347 121.302178 
L 249.641347 117.469782 
L 249.805579 117.469782 
L 249.805579 113.637386 
L 249.994525 113.637386 
L 249.994525 109.80499 
L 251.299836 109.80499 
L 251.299836 105.972594 
L 252.244254 105.972594 
L 252.244254 102.140198 
L 252.780346 102.140198 
L 252.780346 98.307802 
L 253.082517 98.307802 
L 253.082517 94.475406 
L 253.208896 94.475406 
L 253.208896 90.64301 
L 253.744632 90.64301 
L 253.744632 86.810614 
L 254.03712 86.810614 
L 254.076671 79.145822 
L 254.49399 79.145822 
L 254.49399 75.313426 
L 254.720367 75.313426 
L 254.720367 71.48103 
L 255.235563 71.48103 
L 255.326737 63.816238 
L 255.693615 63.816238 
L 255.693615 59.983842 
L 279.52016 59.983842 
L 279.52016 56.151446 
L 288.448621 56.151446 
L 288.448621 52.31905 
L 294.190256 52.31905 
L 294.190256 48.486653 
L 297.742462 48.486653 
L 297.742462 44.654257 
L 298.662834 44.654257 
L 298.662834 40.821861 
L 301.643567 40.821861 
L 301.722642 33.157069 
L 302.205251 33.157069 
L 302.205251 29.324673 
L 303.826388 29.324673 
L 303.826388 25.492277 
L 305.820184 25.492277 
L 305.929558 17.827485 
L 308.562719 17.827485 
L 308.562719 13.995089 
L 309.947323 13.995089 
L 309.947323 10.162693 
L 315.393153 10.162693 
L 315.393153 6.330297 
L 315.393153 6.330297 
L 460.8 6.330297 
L 460.8 6.330297 
" style="fill:none;stroke:#bf00bf;stroke-linecap:square;stroke-width:1.5;"/>
   </g>
   <g id="line2d_24">
    <path clip-path="url(#p23a480c89c)" d="M 212.509279 293.76 
L 212.509279 289.927604 
L 215.331673 289.927604 
L 215.331673 286.095208 
L 216.450152 286.095208 
L 216.450152 282.262812 
L 217.15191 282.262812 
L 217.15191 278.430416 
L 218.086616 278.430416 
L 218.101552 270.765624 
L 218.872756 270.765624 
L 218.872756 266.933228 
L 219.107583 266.933228 
L 219.107583 263.100832 
L 223.80542 263.100832 
L 223.80542 259.268436 
L 224.297085 259.268436 
L 224.297085 255.43604 
L 225.254086 255.43604 
L 225.254086 251.603644 
L 225.722078 251.603644 
L 225.722078 247.771248 
L 225.874341 247.771248 
L 225.874341 243.938851 
L 226.187877 243.938851 
L 226.187877 240.106455 
L 226.72525 240.106455 
L 226.72525 236.274059 
L 227.016684 236.274059 
L 227.016684 232.441663 
L 227.324358 232.441663 
L 227.324358 228.609267 
L 227.694463 228.609267 
L 227.694463 224.776871 
L 229.152817 224.776871 
L 229.152817 220.944475 
L 229.979248 220.944475 
L 229.979248 217.112079 
L 231.100591 217.112079 
L 231.100591 213.279683 
L 235.498199 213.279683 
L 235.570895 205.614891 
L 236.522607 205.614891 
L 236.578336 197.950099 
L 236.640681 197.950099 
L 236.640681 194.117703 
L 238.69467 194.117703 
L 238.69467 190.285307 
L 240.245173 190.285307 
L 240.245173 186.452911 
L 240.893341 186.452911 
L 240.893341 182.620515 
L 241.185365 182.620515 
L 241.185365 178.788119 
L 241.344857 178.788119 
L 241.344857 174.955723 
L 241.68843 174.955723 
L 241.68843 171.123327 
L 242.207016 171.123327 
L 242.207016 167.290931 
L 242.840233 167.290931 
L 242.840233 163.458535 
L 243.134257 163.458535 
L 243.134257 159.626139 
L 243.919308 159.626139 
L 243.919308 155.793743 
L 244.311607 155.793743 
L 244.311607 151.961347 
L 245.580944 151.961347 
L 245.580944 148.12895 
L 245.797861 148.12895 
L 245.797861 144.296554 
L 246.299469 144.296554 
L 246.299469 140.464158 
L 246.789782 140.464158 
L 246.876703 128.96697 
L 248.137566 128.96697 
L 248.137566 125.134574 
L 248.296167 125.134574 
L 248.363964 117.469782 
L 248.459488 117.469782 
L 248.557897 109.80499 
L 248.622764 109.80499 
L 248.622764 105.972594 
L 249.81201 105.972594 
L 249.81201 102.140198 
L 249.993348 102.140198 
L 249.993348 98.307802 
L 251.299836 98.307802 
L 251.299836 94.475406 
L 251.729627 94.475406 
L 251.729627 90.64301 
L 251.888245 90.64301 
L 251.888245 86.810614 
L 252.009597 86.810614 
L 252.119322 79.145822 
L 253.082517 79.145822 
L 253.082517 75.313426 
L 253.744632 75.313426 
L 253.744632 71.48103 
L 254.076671 71.48103 
L 254.18205 63.816238 
L 254.432375 63.816238 
L 254.432375 59.983842 
L 273.450657 59.983842 
L 273.450657 56.151446 
L 275.562938 56.151446 
L 275.562938 52.31905 
L 278.013216 52.31905 
L 278.013216 48.486653 
L 278.193155 48.486653 
L 278.193155 44.654257 
L 279.52016 44.654257 
L 279.52016 40.821861 
L 288.448621 40.821861 
L 288.448621 36.989465 
L 292.481869 36.989465 
L 292.481869 33.157069 
L 294.190256 33.157069 
L 294.190256 29.324673 
L 297.744852 29.324673 
L 297.744852 25.492277 
L 298.662834 25.492277 
L 298.662834 21.659881 
L 300.888132 21.659881 
L 300.888132 17.827485 
L 301.643567 17.827485 
L 301.722642 10.162693 
L 313.479967 10.162693 
L 313.479967 6.330297 
L 313.479967 6.330297 
L 460.8 6.330297 
L 460.8 6.330297 
" style="fill:none;stroke:#000000;stroke-linecap:square;stroke-width:1.5;"/>
   </g>
   <g id="line2d_25">
    <path clip-path="url(#p23a480c89c)" d="M 211.828431 293.76 
L 211.828431 289.927604 
L 212.509279 289.927604 
L 212.509279 286.095208 
L 214.766651 286.095208 
L 214.766651 282.262812 
L 215.331673 282.262812 
L 215.331673 278.430416 
L 216.030181 278.430416 
L 216.108794 270.765624 
L 216.450152 270.765624 
L 216.450152 266.933228 
L 217.15191 266.933228 
L 217.15191 263.100832 
L 217.515311 263.100832 
L 217.515311 259.268436 
L 217.929369 259.268436 
L 217.929369 255.43604 
L 218.086616 255.43604 
L 218.086616 251.603644 
L 219.933714 251.603644 
L 219.933714 247.771248 
L 221.046489 247.771248 
L 221.046489 243.938851 
L 223.02908 243.938851 
L 223.056101 236.274059 
L 223.186653 236.274059 
L 223.186653 232.441663 
L 223.704407 232.441663 
L 223.704407 228.609267 
L 225.254086 228.609267 
L 225.254086 224.776871 
L 225.722078 224.776871 
L 225.722078 220.944475 
L 226.72525 220.944475 
L 226.748438 213.279683 
L 227.016684 213.279683 
L 227.016684 209.447287 
L 227.335708 209.447287 
L 227.335708 205.614891 
L 228.460362 205.614891 
L 228.483922 197.950099 
L 229.294758 197.950099 
L 229.294758 194.117703 
L 229.979248 194.117703 
L 229.979248 190.285307 
L 231.100591 190.285307 
L 231.100591 186.452911 
L 231.292551 186.452911 
L 231.292551 182.620515 
L 232.919694 182.620515 
L 232.919694 178.788119 
L 233.363544 178.788119 
L 233.363544 174.955723 
L 234.822622 174.955723 
L 234.822622 171.123327 
L 235.498199 171.123327 
L 235.510932 163.458535 
L 236.130466 163.458535 
L 236.169379 155.793743 
L 236.883949 155.793743 
L 236.883949 151.961347 
L 237.6917 151.961347 
L 237.6917 148.12895 
L 239.352092 148.12895 
L 239.352092 144.296554 
L 239.613316 144.296554 
L 239.613316 140.464158 
L 240.608395 140.464158 
L 240.608395 136.631762 
L 240.893341 136.631762 
L 240.924367 128.96697 
L 242.840233 128.96697 
L 242.840233 125.134574 
L 244.558745 125.134574 
L 244.558745 121.302178 
L 245.797861 121.302178 
L 245.815663 113.637386 
L 246.339977 113.637386 
L 246.339977 109.80499 
L 246.876703 109.80499 
L 246.971669 102.140198 
L 247.365356 102.140198 
L 247.416389 94.475406 
L 247.645683 94.475406 
L 247.645683 90.64301 
L 248.221511 90.64301 
L 248.221511 86.810614 
L 248.363964 86.810614 
L 248.363964 82.978218 
L 248.58947 82.978218 
L 248.58947 79.145822 
L 249.81201 79.145822 
L 249.81201 75.313426 
L 249.988131 75.313426 
L 249.993348 67.648634 
L 250.369224 67.648634 
L 250.369224 63.816238 
L 251.322849 63.816238 
L 251.322849 59.983842 
L 253.082517 59.983842 
L 253.082517 56.151446 
L 255.261048 56.151446 
L 255.261048 52.31905 
L 267.069808 52.31905 
L 267.069808 48.486653 
L 267.891421 48.486653 
L 267.891421 44.654257 
L 271.760727 44.654257 
L 271.760727 40.821861 
L 273.450657 40.821861 
L 273.450657 36.989465 
L 275.012552 36.989465 
L 275.012552 33.157069 
L 275.562938 33.157069 
L 275.562938 29.324673 
L 278.013216 29.324673 
L 278.013216 25.492277 
L 282.030615 25.492277 
L 282.030615 21.659881 
L 286.180194 21.659881 
L 286.180194 17.827485 
L 288.448621 17.827485 
L 288.448621 13.995089 
L 295.861744 13.995089 
L 295.861744 10.162693 
L 296.114023 10.162693 
L 296.114023 6.330297 
L 296.114023 6.330297 
L 460.8 6.330297 
L 460.8 6.330297 
" style="fill:none;stroke:#00bfbf;stroke-linecap:square;stroke-width:1.5;"/>
   </g>
   <g id="line2d_26">
    <path clip-path="url(#p23a480c89c)" d="M 168.586734 293.76 
L 168.586734 289.927604 
L 190.108062 289.927604 
L 190.108062 286.095208 
L 194.966116 286.095208 
L 194.966116 282.262812 
L 196.686632 282.262812 
L 196.686632 278.430416 
L 203.773835 278.430416 
L 203.773835 274.59802 
L 206.741367 274.59802 
L 206.82291 266.933228 
L 207.57251 266.933228 
L 207.57251 263.100832 
L 207.72935 263.100832 
L 207.72935 259.268436 
L 208.258499 259.268436 
L 208.258499 255.43604 
L 208.489869 255.43604 
L 208.489869 251.603644 
L 209.259264 251.603644 
L 209.259264 247.771248 
L 209.661576 247.771248 
L 209.661576 243.938851 
L 210.118835 243.938851 
L 210.118835 240.106455 
L 210.341763 240.106455 
L 210.341763 236.274059 
L 210.759482 236.274059 
L 210.788022 228.609267 
L 210.882814 228.609267 
L 210.945631 217.112079 
L 211.046183 217.112079 
L 211.121236 209.447287 
L 211.330406 209.447287 
L 211.330406 205.614891 
L 211.484611 205.614891 
L 211.484611 201.782495 
L 211.647955 201.782495 
L 211.756892 194.117703 
L 211.828431 194.117703 
L 211.893034 186.452911 
L 212.509279 186.452911 
L 212.530534 178.788119 
L 212.629006 178.788119 
L 212.629006 174.955723 
L 212.973619 174.955723 
L 213.060322 167.290931 
L 213.156732 167.290931 
L 213.224935 159.626139 
L 213.447954 159.626139 
L 213.517303 148.12895 
L 214.467068 148.12895 
L 214.467068 144.296554 
L 215.113408 144.296554 
L 215.113408 140.464158 
L 215.532658 140.464158 
L 215.532658 136.631762 
L 216.261718 136.631762 
L 216.261718 132.799366 
L 217.859077 132.799366 
L 217.859077 128.96697 
L 218.195092 128.96697 
L 218.195092 125.134574 
L 218.924773 125.134574 
L 219.023356 117.469782 
L 219.178207 117.469782 
L 219.178207 113.637386 
L 220.542208 113.637386 
L 220.542208 109.80499 
L 221.683469 109.80499 
L 221.683469 105.972594 
L 223.112009 105.972594 
L 223.112009 102.140198 
L 223.647389 102.140198 
L 223.731746 94.475406 
L 224.435753 94.475406 
L 224.435753 90.64301 
L 224.749341 90.64301 
L 224.749341 86.810614 
L 224.868505 86.810614 
L 224.868505 82.978218 
L 225.130896 82.978218 
L 225.130896 79.145822 
L 225.597145 79.145822 
L 225.597145 75.313426 
L 227.154854 75.313426 
L 227.237045 67.648634 
L 227.425935 67.648634 
L 227.425935 63.816238 
L 233.632852 63.816238 
L 233.632852 59.983842 
L 235.515648 59.983842 
L 235.515648 56.151446 
L 238.027122 56.151446 
L 238.027122 52.31905 
L 238.281029 52.31905 
L 238.281029 48.486653 
L 238.70744 48.486653 
L 238.70744 44.654257 
L 239.015059 44.654257 
L 239.015059 40.821861 
L 239.526135 40.821861 
L 239.634145 33.157069 
L 240.312847 33.157069 
L 240.312847 29.324673 
L 240.452499 29.324673 
L 240.452499 25.492277 
L 240.582709 25.492277 
L 240.582709 21.659881 
L 241.567251 21.659881 
L 241.567251 17.827485 
L 242.379134 17.827485 
L 242.412745 10.162693 
L 242.915329 10.162693 
L 242.915329 6.330297 
L 242.915329 6.330297 
L 460.8 6.330297 
L 460.8 6.330297 
" style="fill:none;stroke:#bf00bf;stroke-linecap:square;stroke-width:1.5;"/>
   </g>
   <g id="line2d_27">
    <path clip-path="url(#p23a480c89c)" d="M -1 289.927604 
L -0.109446 289.927604 
L -0.109446 217.112079 
L 56.086499 217.112079 
L 56.086499 213.279683 
L 186.662201 213.279683 
L 186.662268 194.117703 
L 188.793881 194.117703 
L 188.793881 190.285307 
L 192.325479 190.285307 
L 192.325479 186.452911 
L 194.233616 186.452911 
L 194.294632 167.290931 
L 198.451586 167.290931 
L 198.495469 144.296554 
L 198.960847 144.296554 
L 198.960847 140.464158 
L 200.838038 140.464158 
L 200.838038 136.631762 
L 201.442283 136.631762 
L 201.442283 132.799366 
L 201.70518 132.799366 
L 201.70518 128.96697 
L 203.18842 128.96697 
L 203.18842 125.134574 
L 203.7935 125.134574 
L 203.7935 121.302178 
L 204.540893 121.302178 
L 204.540893 117.469782 
L 205.183534 117.469782 
L 205.183534 113.637386 
L 205.962337 113.637386 
L 205.962337 109.80499 
L 206.363296 109.80499 
L 206.363296 105.972594 
L 206.87322 105.972594 
L 206.910212 98.307802 
L 207.071144 98.307802 
L 207.071144 94.475406 
L 207.183974 94.475406 
L 207.183974 90.64301 
L 207.415824 90.64301 
L 207.415824 86.810614 
L 207.57251 86.810614 
L 207.57251 82.978218 
L 208.472233 82.978218 
L 208.472233 79.145822 
L 210.583366 79.145822 
L 210.583366 75.313426 
L 210.761327 75.313426 
L 210.761327 71.48103 
L 212.509279 71.48103 
L 212.509279 67.648634 
L 212.973239 67.648634 
L 212.973239 63.816238 
L 223.952726 63.816238 
L 223.952726 59.983842 
L 226.042741 59.983842 
L 226.042741 56.151446 
L 227.324598 56.151446 
L 227.324598 52.31905 
L 228.53383 52.31905 
L 228.53383 48.486653 
L 228.808943 48.486653 
L 228.808943 44.654257 
L 229.655863 44.654257 
L 229.655863 40.821861 
L 230.249797 40.821861 
L 230.249797 36.989465 
L 230.911002 36.989465 
L 230.923348 29.324673 
L 231.567383 29.324673 
L 231.667584 21.659881 
L 232.006248 21.659881 
L 232.051438 13.995089 
L 232.498862 13.995089 
L 232.498862 10.162693 
L 232.804706 10.162693 
L 232.804706 6.330297 
L 232.804706 6.330297 
L 460.8 6.330297 
L 460.8 6.330297 
" style="fill:none;stroke:#000000;stroke-linecap:square;stroke-width:1.5;"/>
   </g>
   <g id="patch_3">
    <path d="M 0 293.76 
L 0 3.456 
" style="fill:none;stroke:#000000;stroke-linecap:square;stroke-linejoin:miter;stroke-width:0.8;"/>
   </g>
   <g id="patch_4">
    <path d="M 460.8 293.76 
L 460.8 3.456 
" style="fill:none;stroke:#000000;stroke-linecap:square;stroke-linejoin:miter;stroke-width:0.8;"/>
   </g>
   <g id="patch_5">
    <path d="M 0 293.76 
L 460.8 293.76 
" style="fill:none;stroke:#000000;stroke-linecap:square;stroke-linejoin:miter;stroke-width:0.8;"/>
   </g>
   <g id="patch_6">
    <path d="M 0 3.456 
L 460.8 3.456 
" style="fill:none;stroke:#000000;stroke-linecap:square;stroke-linejoin:miter;stroke-width:0.8;"/>
   </g>
   <g id="text_6">
    <!-- {f20-f24}, 5-D -->
    <g transform="translate(305.884 287.95392)scale(0.2 -0.2)">
     <defs>
      <path d="M 3272 -594 
L 3272 -1044 
L 3078 -1044 
Q 2300 -1044 2036 -812 
Q 1772 -581 1772 109 
L 1772 856 
Q 1772 1328 1603 1509 
Q 1434 1691 991 1691 
L 800 1691 
L 800 2138 
L 991 2138 
Q 1438 2138 1605 2317 
Q 1772 2497 1772 2963 
L 1772 3713 
Q 1772 4403 2036 4633 
Q 2300 4863 3078 4863 
L 3272 4863 
L 3272 4416 
L 3059 4416 
Q 2619 4416 2484 4278 
Q 2350 4141 2350 3700 
L 2350 2925 
Q 2350 2434 2208 2212 
Q 2066 1991 1722 1913 
Q 2069 1828 2209 1606 
Q 2350 1384 2350 897 
L 2350 122 
Q 2350 -319 2484 -456 
Q 2619 -594 3059 -594 
L 3272 -594 
z
" id="DejaVuSans-7b" transform="scale(0.015625)"/>
      <path d="M 1228 531 
L 3431 531 
L 3431 0 
L 469 0 
L 469 531 
Q 828 903 1448 1529 
Q 2069 2156 2228 2338 
Q 2531 2678 2651 2914 
Q 2772 3150 2772 3378 
Q 2772 3750 2511 3984 
Q 2250 4219 1831 4219 
Q 1534 4219 1204 4116 
Q 875 4013 500 3803 
L 500 4441 
Q 881 4594 1212 4672 
Q 1544 4750 1819 4750 
Q 2544 4750 2975 4387 
Q 3406 4025 3406 3419 
Q 3406 3131 3298 2873 
Q 3191 2616 2906 2266 
Q 2828 2175 2409 1742 
Q 1991 1309 1228 531 
z
" id="DejaVuSans-32" transform="scale(0.015625)"/>
      <path d="M 800 -594 
L 1019 -594 
Q 1456 -594 1589 -459 
Q 1722 -325 1722 122 
L 1722 897 
Q 1722 1384 1862 1606 
Q 2003 1828 2350 1913 
Q 2003 1991 1862 2212 
Q 1722 2434 1722 2925 
L 1722 3700 
Q 1722 4144 1589 4280 
Q 1456 4416 1019 4416 
L 800 4416 
L 800 4863 
L 997 4863 
Q 1775 4863 2036 4633 
Q 2297 4403 2297 3713 
L 2297 2963 
Q 2297 2497 2465 2317 
Q 2634 2138 3078 2138 
L 3272 2138 
L 3272 1691 
L 3078 1691 
Q 2634 1691 2465 1509 
Q 2297 1328 2297 856 
L 2297 109 
Q 2297 -581 2036 -812 
Q 1775 -1044 997 -1044 
L 800 -1044 
L 800 -594 
z
" id="DejaVuSans-7d" transform="scale(0.015625)"/>
      <path d="M 750 794 
L 1409 794 
L 1409 256 
L 897 -744 
L 494 -744 
L 750 256 
L 750 794 
z
" id="DejaVuSans-2c" transform="scale(0.015625)"/>
      <path d="M 691 4666 
L 3169 4666 
L 3169 4134 
L 1269 4134 
L 1269 2991 
Q 1406 3038 1543 3061 
Q 1681 3084 1819 3084 
Q 2600 3084 3056 2656 
Q 3513 2228 3513 1497 
Q 3513 744 3044 326 
Q 2575 -91 1722 -91 
Q 1428 -91 1123 -41 
Q 819 9 494 109 
L 494 744 
Q 775 591 1075 516 
Q 1375 441 1709 441 
Q 2250 441 2565 725 
Q 2881 1009 2881 1497 
Q 2881 1984 2565 2268 
Q 2250 2553 1709 2553 
Q 1456 2553 1204 2497 
Q 953 2441 691 2322 
L 691 4666 
z
" id="DejaVuSans-35" transform="scale(0.015625)"/>
     </defs>
     <use xlink:href="#DejaVuSans-7b"/>
     <use x="63.623047" xlink:href="#DejaVuSans-66"/>
     <use x="98.828125" xlink:href="#DejaVuSans-32"/>
     <use x="162.451172" xlink:href="#DejaVuSans-30"/>
     <use x="226.074219" xlink:href="#DejaVuSans-2d"/>
     <use x="262.158203" xlink:href="#DejaVuSans-66"/>
     <use x="297.363281" xlink:href="#DejaVuSans-32"/>
     <use x="360.986328" xlink:href="#DejaVuSans-34"/>
     <use x="424.609375" xlink:href="#DejaVuSans-7d"/>
     <use x="488.232422" xlink:href="#DejaVuSans-2c"/>
     <use x="520.019531" xlink:href="#DejaVuSans-20"/>
     <use x="551.806641" xlink:href="#DejaVuSans-35"/>
     <use x="615.429688" xlink:href="#DejaVuSans-2d"/>
     <use x="651.513672" xlink:href="#DejaVuSans-44"/>
    </g>
   </g>
   <g id="text_7">
    <!-- v2.4 -->
    <g style="fill:#808080;" transform="translate(219.489063 288.777272)scale(0.1 -0.1)">
     <defs>
      <path d="M 191 3500 
L 800 3500 
L 1894 563 
L 2988 3500 
L 3597 3500 
L 2284 0 
L 1503 0 
L 191 3500 
z
" id="DejaVuSans-76" transform="scale(0.015625)"/>
      <path d="M 684 794 
L 1344 794 
L 1344 0 
L 684 0 
L 684 794 
z
" id="DejaVuSans-2e" transform="scale(0.015625)"/>
     </defs>
     <use xlink:href="#DejaVuSans-76"/>
     <use x="59.179688" xlink:href="#DejaVuSans-32"/>
     <use x="122.802734" xlink:href="#DejaVuSans-2e"/>
     <use x="154.589844" xlink:href="#DejaVuSans-34"/>
    </g>
   </g>
  </g>
 </g>
 <defs>
  <clipPath id="p23a480c89c">
   <rect height="290.304" width="460.8" x="0" y="3.456"/>
  </clipPath>
 </defs>
</svg>
