<?xml version="1.0" encoding="utf-8" standalone="no"?>
<!DOCTYPE svg PUBLIC "-//W3C//DTD SVG 1.1//EN"
  "http://www.w3.org/Graphics/SVG/1.1/DTD/svg11.dtd">
<svg height="345.6pt" version="1.1" viewBox="0 0 460.8 345.6" width="460.8pt" xmlns="http://www.w3.org/2000/svg" xmlns:xlink="http://www.w3.org/1999/xlink">
 <metadata>
  <rdf:RDF xmlns:cc="http://creativecommons.org/ns#" xmlns:dc="http://purl.org/dc/elements/1.1/" xmlns:rdf="http://www.w3.org/1999/02/22-rdf-syntax-ns#">
   <cc:Work>
    <dc:type rdf:resource="http://purl.org/dc/dcmitype/StillImage"/>
    <dc:date>2021-04-28T00:33:44.089899</dc:date>
    <dc:format>image/svg+xml</dc:format>
    <dc:creator>
     <cc:Agent>
      <dc:title>Matplotlib v3.4.1, https://matplotlib.org/</dc:title>
     </cc:Agent>
    </dc:creator>
   </cc:Work>
  </rdf:RDF>
 </metadata>
 <defs>
  <style type="text/css">*{stroke-linecap:butt;stroke-linejoin:round;}</style>
 </defs>
 <g id="figure_1">
  <g id="patch_1">
   <path d="M 0 345.6 
L 460.8 345.6 
L 460.8 0 
L 0 0 
z
" style="fill:#ffffff;"/>
  </g>
  <g id="axes_1">
   <g id="patch_2">
    <path d="M 22.78 315.44 
L 453.192 315.44 
L 453.192 25.56 
L 22.78 25.56 
z
" style="fill:#ffffff;"/>
   </g>
   <g id="line2d_1">
    <path clip-path="url(#pdda80b3bcb)" d="M 36.868282 187.05587 
L 91.085051 177.030445 
L 159.390103 146.799767 
L 252.074282 150.022698 
L 344.758461 134.087222 
L 437.442641 131.171935 
" style="fill:none;stroke:#f5deb3;stroke-linecap:square;stroke-width:10;"/>
    <defs>
     <path d="M 0 17.67767 
L 10.606602 0 
L 0 -17.67767 
L -10.606602 0 
z
" id="m7ac1927648" style="stroke:#f5deb3;stroke-linejoin:miter;"/>
    </defs>
    <g clip-path="url(#pdda80b3bcb)">
     <use style="fill:#f5deb3;stroke:#f5deb3;stroke-linejoin:miter;" x="36.868282" xlink:href="#m7ac1927648" y="187.05587"/>
     <use style="fill:#f5deb3;stroke:#f5deb3;stroke-linejoin:miter;" x="91.085051" xlink:href="#m7ac1927648" y="177.030445"/>
     <use style="fill:#f5deb3;stroke:#f5deb3;stroke-linejoin:miter;" x="159.390103" xlink:href="#m7ac1927648" y="146.799767"/>
     <use style="fill:#f5deb3;stroke:#f5deb3;stroke-linejoin:miter;" x="252.074282" xlink:href="#m7ac1927648" y="150.022698"/>
     <use style="fill:#f5deb3;stroke:#f5deb3;stroke-linejoin:miter;" x="344.758461" xlink:href="#m7ac1927648" y="134.087222"/>
     <use style="fill:#f5deb3;stroke:#f5deb3;stroke-linejoin:miter;" x="437.442641" xlink:href="#m7ac1927648" y="131.171935"/>
    </g>
   </g>
   <g id="matplotlib.axis_1">
    <g id="xtick_1">
     <g id="line2d_2">
      <defs>
       <path d="M 0 0 
L 0 3.5 
" id="m0ee22b4965" style="stroke:#000000;stroke-width:0.8;"/>
      </defs>
      <g>
       <use style="stroke:#000000;stroke-width:0.8;" x="36.868282" xlink:href="#m0ee22b4965" y="315.44"/>
      </g>
     </g>
     <g id="text_1">
      <!-- 2 -->
      <g transform="translate(30.505782 337.636875)scale(0.2 -0.2)">
       <defs>
        <path d="M 1228 531 
L 3431 531 
L 3431 0 
L 469 0 
L 469 531 
Q 828 903 1448 1529 
Q 2069 2156 2228 2338 
Q 2531 2678 2651 2914 
Q 2772 3150 2772 3378 
Q 2772 3750 2511 3984 
Q 2250 4219 1831 4219 
Q 1534 4219 1204 4116 
Q 875 4013 500 3803 
L 500 4441 
Q 881 4594 1212 4672 
Q 1544 4750 1819 4750 
Q 2544 4750 2975 4387 
Q 3406 4025 3406 3419 
Q 3406 3131 3298 2873 
Q 3191 2616 2906 2266 
Q 2828 2175 2409 1742 
Q 1991 1309 1228 531 
z
" id="DejaVuSans-32" transform="scale(0.015625)"/>
       </defs>
       <use xlink:href="#DejaVuSans-32"/>
      </g>
     </g>
    </g>
    <g id="xtick_2">
     <g id="line2d_3">
      <g>
       <use style="stroke:#000000;stroke-width:0.8;" x="91.085051" xlink:href="#m0ee22b4965" y="315.44"/>
      </g>
     </g>
     <g id="text_2">
      <!-- 3 -->
      <g transform="translate(84.722551 337.636875)scale(0.2 -0.2)">
       <defs>
        <path d="M 2597 2516 
Q 3050 2419 3304 2112 
Q 3559 1806 3559 1356 
Q 3559 666 3084 287 
Q 2609 -91 1734 -91 
Q 1441 -91 1130 -33 
Q 819 25 488 141 
L 488 750 
Q 750 597 1062 519 
Q 1375 441 1716 441 
Q 2309 441 2620 675 
Q 2931 909 2931 1356 
Q 2931 1769 2642 2001 
Q 2353 2234 1838 2234 
L 1294 2234 
L 1294 2753 
L 1863 2753 
Q 2328 2753 2575 2939 
Q 2822 3125 2822 3475 
Q 2822 3834 2567 4026 
Q 2313 4219 1838 4219 
Q 1578 4219 1281 4162 
Q 984 4106 628 3988 
L 628 4550 
Q 988 4650 1302 4700 
Q 1616 4750 1894 4750 
Q 2613 4750 3031 4423 
Q 3450 4097 3450 3541 
Q 3450 3153 3228 2886 
Q 3006 2619 2597 2516 
z
" id="DejaVuSans-33" transform="scale(0.015625)"/>
       </defs>
       <use xlink:href="#DejaVuSans-33"/>
      </g>
     </g>
    </g>
    <g id="xtick_3">
     <g id="line2d_4">
      <g>
       <use style="stroke:#000000;stroke-width:0.8;" x="159.390103" xlink:href="#m0ee22b4965" y="315.44"/>
      </g>
     </g>
     <g id="text_3">
      <!-- 5 -->
      <g transform="translate(153.027603 337.636875)scale(0.2 -0.2)">
       <defs>
        <path d="M 691 4666 
L 3169 4666 
L 3169 4134 
L 1269 4134 
L 1269 2991 
Q 1406 3038 1543 3061 
Q 1681 3084 1819 3084 
Q 2600 3084 3056 2656 
Q 3513 2228 3513 1497 
Q 3513 744 3044 326 
Q 2575 -91 1722 -91 
Q 1428 -91 1123 -41 
Q 819 9 494 109 
L 494 744 
Q 775 591 1075 516 
Q 1375 441 1709 441 
Q 2250 441 2565 725 
Q 2881 1009 2881 1497 
Q 2881 1984 2565 2268 
Q 2250 2553 1709 2553 
Q 1456 2553 1204 2497 
Q 953 2441 691 2322 
L 691 4666 
z
" id="DejaVuSans-35" transform="scale(0.015625)"/>
       </defs>
       <use xlink:href="#DejaVuSans-35"/>
      </g>
     </g>
    </g>
    <g id="xtick_4">
     <g id="line2d_5">
      <g>
       <use style="stroke:#000000;stroke-width:0.8;" x="252.074282" xlink:href="#m0ee22b4965" y="315.44"/>
      </g>
     </g>
     <g id="text_4">
      <!-- 10 -->
      <g transform="translate(239.349282 337.636875)scale(0.2 -0.2)">
       <defs>
        <path d="M 794 531 
L 1825 531 
L 1825 4091 
L 703 3866 
L 703 4441 
L 1819 4666 
L 2450 4666 
L 2450 531 
L 3481 531 
L 3481 0 
L 794 0 
L 794 531 
z
" id="DejaVuSans-31" transform="scale(0.015625)"/>
        <path d="M 2034 4250 
Q 1547 4250 1301 3770 
Q 1056 3291 1056 2328 
Q 1056 1369 1301 889 
Q 1547 409 2034 409 
Q 2525 409 2770 889 
Q 3016 1369 3016 2328 
Q 3016 3291 2770 3770 
Q 2525 4250 2034 4250 
z
M 2034 4750 
Q 2819 4750 3233 4129 
Q 3647 3509 3647 2328 
Q 3647 1150 3233 529 
Q 2819 -91 2034 -91 
Q 1250 -91 836 529 
Q 422 1150 422 2328 
Q 422 3509 836 4129 
Q 1250 4750 2034 4750 
z
" id="DejaVuSans-30" transform="scale(0.015625)"/>
       </defs>
       <use xlink:href="#DejaVuSans-31"/>
       <use x="63.623047" xlink:href="#DejaVuSans-30"/>
      </g>
     </g>
    </g>
    <g id="xtick_5">
     <g id="line2d_6">
      <g>
       <use style="stroke:#000000;stroke-width:0.8;" x="344.758461" xlink:href="#m0ee22b4965" y="315.44"/>
      </g>
     </g>
     <g id="text_5">
      <!-- 20 -->
      <g transform="translate(332.033461 337.636875)scale(0.2 -0.2)">
       <use xlink:href="#DejaVuSans-32"/>
       <use x="63.623047" xlink:href="#DejaVuSans-30"/>
      </g>
     </g>
    </g>
    <g id="xtick_6">
     <g id="line2d_7">
      <g>
       <use style="stroke:#000000;stroke-width:0.8;" x="437.442641" xlink:href="#m0ee22b4965" y="315.44"/>
      </g>
     </g>
     <g id="text_6">
      <!-- 40 -->
      <g transform="translate(424.717641 337.636875)scale(0.2 -0.2)">
       <defs>
        <path d="M 2419 4116 
L 825 1625 
L 2419 1625 
L 2419 4116 
z
M 2253 4666 
L 3047 4666 
L 3047 1625 
L 3713 1625 
L 3713 1100 
L 3047 1100 
L 3047 0 
L 2419 0 
L 2419 1100 
L 313 1100 
L 313 1709 
L 2253 4666 
z
" id="DejaVuSans-34" transform="scale(0.015625)"/>
       </defs>
       <use xlink:href="#DejaVuSans-34"/>
       <use x="63.623047" xlink:href="#DejaVuSans-30"/>
      </g>
     </g>
    </g>
    <g id="xtick_7">
     <g id="line2d_8">
      <defs>
       <path d="M 0 0 
L 0 2 
" id="m3e782dd710" style="stroke:#000000;stroke-width:0.6;"/>
      </defs>
      <g>
       <use style="stroke:#000000;stroke-width:0.6;" x="129.552461" xlink:href="#m3e782dd710" y="315.44"/>
      </g>
     </g>
    </g>
    <g id="xtick_8">
     <g id="line2d_9">
      <g>
       <use style="stroke:#000000;stroke-width:0.6;" x="183.769231" xlink:href="#m3e782dd710" y="315.44"/>
      </g>
     </g>
    </g>
    <g id="xtick_9">
     <g id="line2d_10">
      <g>
       <use style="stroke:#000000;stroke-width:0.6;" x="204.38149" xlink:href="#m3e782dd710" y="315.44"/>
      </g>
     </g>
    </g>
    <g id="xtick_10">
     <g id="line2d_11">
      <g>
       <use style="stroke:#000000;stroke-width:0.6;" x="222.236641" xlink:href="#m3e782dd710" y="315.44"/>
      </g>
     </g>
    </g>
    <g id="xtick_11">
     <g id="line2d_12">
      <g>
       <use style="stroke:#000000;stroke-width:0.6;" x="237.986" xlink:href="#m3e782dd710" y="315.44"/>
      </g>
     </g>
    </g>
    <g id="xtick_12">
     <g id="line2d_13">
      <g>
       <use style="stroke:#000000;stroke-width:0.6;" x="398.975231" xlink:href="#m3e782dd710" y="315.44"/>
      </g>
     </g>
    </g>
   </g>
   <g id="matplotlib.axis_2">
    <g id="ytick_1">
     <g id="line2d_14">
      <path clip-path="url(#pdda80b3bcb)" d="M 22.78 302.806931 
L 453.192 302.806931 
" style="fill:none;stroke:#b0b0b0;stroke-linecap:square;stroke-width:0.8;"/>
     </g>
     <g id="line2d_15">
      <defs>
       <path d="M 0 0 
L -3.5 0 
" id="mbd45ad980f" style="stroke:#000000;stroke-width:0.8;"/>
      </defs>
      <g>
       <use style="stroke:#000000;stroke-width:0.8;" x="22.78" xlink:href="#mbd45ad980f" y="302.806931"/>
      </g>
     </g>
     <g id="text_7">
      <!-- 0 -->
      <g transform="translate(3.055 310.405368)scale(0.2 -0.2)">
       <use xlink:href="#DejaVuSans-30"/>
      </g>
     </g>
    </g>
    <g id="ytick_2">
     <g id="line2d_16">
      <path clip-path="url(#pdda80b3bcb)" d="M 22.78 239.641584 
L 453.192 239.641584 
" style="fill:none;stroke:#b0b0b0;stroke-linecap:square;stroke-width:0.8;"/>
     </g>
     <g id="line2d_17">
      <g>
       <use style="stroke:#000000;stroke-width:0.8;" x="22.78" xlink:href="#mbd45ad980f" y="239.641584"/>
      </g>
     </g>
     <g id="text_8">
      <!-- 1 -->
      <g transform="translate(3.055 247.240022)scale(0.2 -0.2)">
       <use xlink:href="#DejaVuSans-31"/>
      </g>
     </g>
    </g>
    <g id="ytick_3">
     <g id="line2d_18">
      <path clip-path="url(#pdda80b3bcb)" d="M 22.78 176.476238 
L 453.192 176.476238 
" style="fill:none;stroke:#b0b0b0;stroke-linecap:square;stroke-width:0.8;"/>
     </g>
     <g id="line2d_19">
      <g>
       <use style="stroke:#000000;stroke-width:0.8;" x="22.78" xlink:href="#mbd45ad980f" y="176.476238"/>
      </g>
     </g>
     <g id="text_9">
      <!-- 2 -->
      <g transform="translate(3.055 184.074675)scale(0.2 -0.2)">
       <use xlink:href="#DejaVuSans-32"/>
      </g>
     </g>
    </g>
    <g id="ytick_4">
     <g id="line2d_20">
      <path clip-path="url(#pdda80b3bcb)" d="M 22.78 113.310891 
L 453.192 113.310891 
" style="fill:none;stroke:#b0b0b0;stroke-linecap:square;stroke-width:0.8;"/>
     </g>
     <g id="line2d_21">
      <g>
       <use style="stroke:#000000;stroke-width:0.8;" x="22.78" xlink:href="#mbd45ad980f" y="113.310891"/>
      </g>
     </g>
     <g id="text_10">
      <!-- 3 -->
      <g transform="translate(3.055 120.909328)scale(0.2 -0.2)">
       <use xlink:href="#DejaVuSans-33"/>
      </g>
     </g>
    </g>
    <g id="ytick_5">
     <g id="line2d_22">
      <path clip-path="url(#pdda80b3bcb)" d="M 22.78 50.145544 
L 453.192 50.145544 
" style="fill:none;stroke:#b0b0b0;stroke-linecap:square;stroke-width:0.8;"/>
     </g>
     <g id="line2d_23">
      <g>
       <use style="stroke:#000000;stroke-width:0.8;" x="22.78" xlink:href="#mbd45ad980f" y="50.145544"/>
      </g>
     </g>
     <g id="text_11">
      <!-- 4 -->
      <g transform="translate(3.055 57.743982)scale(0.2 -0.2)">
       <use xlink:href="#DejaVuSans-34"/>
      </g>
     </g>
    </g>
    <g id="ytick_6">
     <g id="line2d_24">
      <defs>
       <path d="M 0 0 
L -2 0 
" id="mce36fb6761" style="stroke:#000000;stroke-width:0.6;"/>
      </defs>
      <g>
       <use style="stroke:#000000;stroke-width:0.6;" x="22.78" xlink:href="#mce36fb6761" y="312.591367"/>
      </g>
     </g>
    </g>
    <g id="ytick_7">
     <g id="line2d_25">
      <g>
       <use style="stroke:#000000;stroke-width:0.6;" x="22.78" xlink:href="#mce36fb6761" y="308.928285"/>
      </g>
     </g>
    </g>
    <g id="ytick_8">
     <g id="line2d_26">
      <g>
       <use style="stroke:#000000;stroke-width:0.6;" x="22.78" xlink:href="#mce36fb6761" y="305.697218"/>
      </g>
     </g>
    </g>
    <g id="ytick_9">
     <g id="line2d_27">
      <g>
       <use style="stroke:#000000;stroke-width:0.6;" x="22.78" xlink:href="#mce36fb6761" y="283.792267"/>
      </g>
     </g>
    </g>
    <g id="ytick_10">
     <g id="line2d_28">
      <g>
       <use style="stroke:#000000;stroke-width:0.6;" x="22.78" xlink:href="#mce36fb6761" y="272.669401"/>
      </g>
     </g>
    </g>
    <g id="ytick_11">
     <g id="line2d_29">
      <g>
       <use style="stroke:#000000;stroke-width:0.6;" x="22.78" xlink:href="#mce36fb6761" y="264.777603"/>
      </g>
     </g>
    </g>
    <g id="ytick_12">
     <g id="line2d_30">
      <g>
       <use style="stroke:#000000;stroke-width:0.6;" x="22.78" xlink:href="#mce36fb6761" y="258.656248"/>
      </g>
     </g>
    </g>
    <g id="ytick_13">
     <g id="line2d_31">
      <g>
       <use style="stroke:#000000;stroke-width:0.6;" x="22.78" xlink:href="#mce36fb6761" y="253.654737"/>
      </g>
     </g>
    </g>
    <g id="ytick_14">
     <g id="line2d_32">
      <g>
       <use style="stroke:#000000;stroke-width:0.6;" x="22.78" xlink:href="#mce36fb6761" y="249.42602"/>
      </g>
     </g>
    </g>
    <g id="ytick_15">
     <g id="line2d_33">
      <g>
       <use style="stroke:#000000;stroke-width:0.6;" x="22.78" xlink:href="#mce36fb6761" y="245.762939"/>
      </g>
     </g>
    </g>
    <g id="ytick_16">
     <g id="line2d_34">
      <g>
       <use style="stroke:#000000;stroke-width:0.6;" x="22.78" xlink:href="#mce36fb6761" y="242.531872"/>
      </g>
     </g>
    </g>
    <g id="ytick_17">
     <g id="line2d_35">
      <g>
       <use style="stroke:#000000;stroke-width:0.6;" x="22.78" xlink:href="#mce36fb6761" y="220.62692"/>
      </g>
     </g>
    </g>
    <g id="ytick_18">
     <g id="line2d_36">
      <g>
       <use style="stroke:#000000;stroke-width:0.6;" x="22.78" xlink:href="#mce36fb6761" y="209.504055"/>
      </g>
     </g>
    </g>
    <g id="ytick_19">
     <g id="line2d_37">
      <g>
       <use style="stroke:#000000;stroke-width:0.6;" x="22.78" xlink:href="#mce36fb6761" y="201.612256"/>
      </g>
     </g>
    </g>
    <g id="ytick_20">
     <g id="line2d_38">
      <g>
       <use style="stroke:#000000;stroke-width:0.6;" x="22.78" xlink:href="#mce36fb6761" y="195.490902"/>
      </g>
     </g>
    </g>
    <g id="ytick_21">
     <g id="line2d_39">
      <g>
       <use style="stroke:#000000;stroke-width:0.6;" x="22.78" xlink:href="#mce36fb6761" y="190.489391"/>
      </g>
     </g>
    </g>
    <g id="ytick_22">
     <g id="line2d_40">
      <g>
       <use style="stroke:#000000;stroke-width:0.6;" x="22.78" xlink:href="#mce36fb6761" y="186.260674"/>
      </g>
     </g>
    </g>
    <g id="ytick_23">
     <g id="line2d_41">
      <g>
       <use style="stroke:#000000;stroke-width:0.6;" x="22.78" xlink:href="#mce36fb6761" y="182.597592"/>
      </g>
     </g>
    </g>
    <g id="ytick_24">
     <g id="line2d_42">
      <g>
       <use style="stroke:#000000;stroke-width:0.6;" x="22.78" xlink:href="#mce36fb6761" y="179.366525"/>
      </g>
     </g>
    </g>
    <g id="ytick_25">
     <g id="line2d_43">
      <g>
       <use style="stroke:#000000;stroke-width:0.6;" x="22.78" xlink:href="#mce36fb6761" y="157.461574"/>
      </g>
     </g>
    </g>
    <g id="ytick_26">
     <g id="line2d_44">
      <g>
       <use style="stroke:#000000;stroke-width:0.6;" x="22.78" xlink:href="#mce36fb6761" y="146.338708"/>
      </g>
     </g>
    </g>
    <g id="ytick_27">
     <g id="line2d_45">
      <g>
       <use style="stroke:#000000;stroke-width:0.6;" x="22.78" xlink:href="#mce36fb6761" y="138.44691"/>
      </g>
     </g>
    </g>
    <g id="ytick_28">
     <g id="line2d_46">
      <g>
       <use style="stroke:#000000;stroke-width:0.6;" x="22.78" xlink:href="#mce36fb6761" y="132.325555"/>
      </g>
     </g>
    </g>
    <g id="ytick_29">
     <g id="line2d_47">
      <g>
       <use style="stroke:#000000;stroke-width:0.6;" x="22.78" xlink:href="#mce36fb6761" y="127.324044"/>
      </g>
     </g>
    </g>
    <g id="ytick_30">
     <g id="line2d_48">
      <g>
       <use style="stroke:#000000;stroke-width:0.6;" x="22.78" xlink:href="#mce36fb6761" y="123.095327"/>
      </g>
     </g>
    </g>
    <g id="ytick_31">
     <g id="line2d_49">
      <g>
       <use style="stroke:#000000;stroke-width:0.6;" x="22.78" xlink:href="#mce36fb6761" y="119.432246"/>
      </g>
     </g>
    </g>
    <g id="ytick_32">
     <g id="line2d_50">
      <g>
       <use style="stroke:#000000;stroke-width:0.6;" x="22.78" xlink:href="#mce36fb6761" y="116.201179"/>
      </g>
     </g>
    </g>
    <g id="ytick_33">
     <g id="line2d_51">
      <g>
       <use style="stroke:#000000;stroke-width:0.6;" x="22.78" xlink:href="#mce36fb6761" y="94.296227"/>
      </g>
     </g>
    </g>
    <g id="ytick_34">
     <g id="line2d_52">
      <g>
       <use style="stroke:#000000;stroke-width:0.6;" x="22.78" xlink:href="#mce36fb6761" y="83.173362"/>
      </g>
     </g>
    </g>
    <g id="ytick_35">
     <g id="line2d_53">
      <g>
       <use style="stroke:#000000;stroke-width:0.6;" x="22.78" xlink:href="#mce36fb6761" y="75.281563"/>
      </g>
     </g>
    </g>
    <g id="ytick_36">
     <g id="line2d_54">
      <g>
       <use style="stroke:#000000;stroke-width:0.6;" x="22.78" xlink:href="#mce36fb6761" y="69.160208"/>
      </g>
     </g>
    </g>
    <g id="ytick_37">
     <g id="line2d_55">
      <g>
       <use style="stroke:#000000;stroke-width:0.6;" x="22.78" xlink:href="#mce36fb6761" y="64.158698"/>
      </g>
     </g>
    </g>
    <g id="ytick_38">
     <g id="line2d_56">
      <g>
       <use style="stroke:#000000;stroke-width:0.6;" x="22.78" xlink:href="#mce36fb6761" y="59.92998"/>
      </g>
     </g>
    </g>
    <g id="ytick_39">
     <g id="line2d_57">
      <g>
       <use style="stroke:#000000;stroke-width:0.6;" x="22.78" xlink:href="#mce36fb6761" y="56.266899"/>
      </g>
     </g>
    </g>
    <g id="ytick_40">
     <g id="line2d_58">
      <g>
       <use style="stroke:#000000;stroke-width:0.6;" x="22.78" xlink:href="#mce36fb6761" y="53.035832"/>
      </g>
     </g>
    </g>
    <g id="ytick_41">
     <g id="line2d_59">
      <g>
       <use style="stroke:#000000;stroke-width:0.6;" x="22.78" xlink:href="#mce36fb6761" y="31.13088"/>
      </g>
     </g>
    </g>
   </g>
   <g id="line2d_60"/>
   <g id="line2d_61">
    <defs>
     <path d="M 0 10 
C 2.652031 10 5.195799 8.946337 7.071068 7.071068 
C 8.946337 5.195799 10 2.652031 10 0 
C 10 -2.652031 8.946337 -5.195799 7.071068 -7.071068 
C 5.195799 -8.946337 2.652031 -10 0 -10 
C -2.652031 -10 -5.195799 -8.946337 -7.071068 -7.071068 
C -8.946337 -5.195799 -10 -2.652031 -10 0 
C -10 2.652031 -8.946337 5.195799 -7.071068 7.071068 
C -5.195799 8.946337 -2.652031 10 0 10 
z
" id="m1feb6040fd" style="stroke:#000080;"/>
    </defs>
    <g clip-path="url(#pdda80b3bcb)">
     <use style="fill-opacity:0;stroke:#000080;" x="36.868282" xlink:href="#m1feb6040fd" y="87.761038"/>
     <use style="fill-opacity:0;stroke:#000080;" x="91.085051" xlink:href="#m1feb6040fd" y="98.883903"/>
     <use style="fill-opacity:0;stroke:#000080;" x="159.390103" xlink:href="#m1feb6040fd" y="112.897056"/>
     <use style="fill-opacity:0;stroke:#000080;" x="252.074282" xlink:href="#m1feb6040fd" y="131.91172"/>
     <use style="fill-opacity:0;stroke:#000080;" x="344.758461" xlink:href="#m1feb6040fd" y="150.926384"/>
     <use style="fill-opacity:0;stroke:#000080;" x="437.442641" xlink:href="#m1feb6040fd" y="169.941048"/>
    </g>
   </g>
   <g id="line2d_62">
    <path clip-path="url(#pdda80b3bcb)" d="M 36.868282 33.25028 
" style="fill:none;stroke:#ff00ff;stroke-linecap:square;stroke-width:3.666667;"/>
    <defs>
     <path d="M 0 9.192388 
L 5.515433 0 
L 0 -9.192388 
L -5.515433 0 
z
" id="mdd3355c27e" style="stroke:#ff00ff;stroke-linejoin:miter;stroke-width:2.5;"/>
    </defs>
    <g clip-path="url(#pdda80b3bcb)">
     <use style="fill-opacity:0;stroke:#ff00ff;stroke-linejoin:miter;stroke-width:2.5;" x="36.868282" xlink:href="#mdd3355c27e" y="33.25028"/>
    </g>
   </g>
   <g id="line2d_63"/>
   <g id="line2d_64">
    <defs>
     <path d="M 0 14.142136 
L 8.485281 0 
L 0 -14.142136 
L -8.485281 0 
z
" id="m76e1b74a72" style="stroke:#ff00ff;stroke-linejoin:miter;"/>
    </defs>
    <g clip-path="url(#pdda80b3bcb)">
     <use style="fill-opacity:0;stroke:#ff00ff;stroke-linejoin:miter;" x="36.868282" xlink:href="#m76e1b74a72" y="88.174872"/>
     <use style="fill-opacity:0;stroke:#ff00ff;stroke-linejoin:miter;" x="91.085051" xlink:href="#m76e1b74a72" y="99.297738"/>
     <use style="fill-opacity:0;stroke:#ff00ff;stroke-linejoin:miter;" x="159.390103" xlink:href="#m76e1b74a72" y="113.310891"/>
     <use style="fill-opacity:0;stroke:#ff00ff;stroke-linejoin:miter;" x="252.074282" xlink:href="#m76e1b74a72" y="132.325555"/>
     <use style="fill-opacity:0;stroke:#ff00ff;stroke-linejoin:miter;" x="344.758461" xlink:href="#m76e1b74a72" y="151.340219"/>
     <use style="fill-opacity:0;stroke:#ff00ff;stroke-linejoin:miter;" x="437.442641" xlink:href="#m76e1b74a72" y="170.354883"/>
    </g>
   </g>
   <g id="line2d_65">
    <path clip-path="url(#pdda80b3bcb)" d="M 36.868282 95.874224 
L 91.085051 55.542355 
" style="fill:none;stroke:#ff7500;stroke-linecap:square;stroke-width:3.333333;"/>
    <defs>
     <path d="M 0 -8 
L -1.796112 -2.472136 
L -7.608452 -2.472136 
L -2.90617 0.944272 
L -4.702282 6.472136 
L -0 3.055728 
L 4.702282 6.472136 
L 2.90617 0.944272 
L 7.608452 -2.472136 
L 1.796112 -2.472136 
z
" id="mbe99d23163" style="stroke:#ff7500;stroke-linejoin:bevel;stroke-width:2;"/>
    </defs>
    <g clip-path="url(#pdda80b3bcb)">
     <use style="fill-opacity:0;stroke:#ff7500;stroke-linejoin:bevel;stroke-width:2;" x="36.868282" xlink:href="#mbe99d23163" y="95.874224"/>
     <use style="fill-opacity:0;stroke:#ff7500;stroke-linejoin:bevel;stroke-width:2;" x="91.085051" xlink:href="#mbe99d23163" y="55.542355"/>
    </g>
   </g>
   <g id="line2d_66">
    <path clip-path="url(#pdda80b3bcb)" d="M 91.085051 55.542355 
" style="fill:none;stroke:#ff7500;stroke-linecap:square;stroke-width:3.333333;"/>
    <g clip-path="url(#pdda80b3bcb)">
     <use style="fill-opacity:0;stroke:#ff7500;stroke-linejoin:bevel;stroke-width:2;" x="91.085051" xlink:href="#mbe99d23163" y="55.542355"/>
    </g>
   </g>
   <g id="line2d_67"/>
   <g id="line2d_68">
    <defs>
     <path d="M 0 -10 
L -2.24514 -3.09017 
L -9.510565 -3.09017 
L -3.632713 1.18034 
L -5.877853 8.09017 
L -0 3.81966 
L 5.877853 8.09017 
L 3.632713 1.18034 
L 9.510565 -3.09017 
L 2.24514 -3.09017 
z
" id="mfeac741819" style="stroke:#ff7500;stroke-linejoin:bevel;"/>
    </defs>
    <g clip-path="url(#pdda80b3bcb)">
     <use style="fill-opacity:0;stroke:#ff7500;stroke-linejoin:bevel;" x="36.868282" xlink:href="#mfeac741819" y="88.174872"/>
     <use style="fill-opacity:0;stroke:#ff7500;stroke-linejoin:bevel;" x="91.085051" xlink:href="#mfeac741819" y="99.297738"/>
     <use style="fill-opacity:0;stroke:#ff7500;stroke-linejoin:bevel;" x="159.390103" xlink:href="#mfeac741819" y="113.310891"/>
     <use style="fill-opacity:0;stroke:#ff7500;stroke-linejoin:bevel;" x="252.074282" xlink:href="#mfeac741819" y="132.325555"/>
     <use style="fill-opacity:0;stroke:#ff7500;stroke-linejoin:bevel;" x="344.758461" xlink:href="#mfeac741819" y="151.340219"/>
     <use style="fill-opacity:0;stroke:#ff7500;stroke-linejoin:bevel;" x="437.442641" xlink:href="#mfeac741819" y="170.354883"/>
    </g>
   </g>
   <g id="line2d_69">
    <path clip-path="url(#pdda80b3bcb)" d="M 36.868282 78.042614 
" style="fill:none;stroke:#6495ed;stroke-linecap:square;stroke-width:3;"/>
    <defs>
     <path d="M -0 7 
L 7 -7 
L -7 -7 
z
" id="mf789325608" style="stroke:#6495ed;stroke-linejoin:miter;stroke-width:1.5;"/>
    </defs>
    <g clip-path="url(#pdda80b3bcb)">
     <use style="fill-opacity:0;stroke:#6495ed;stroke-linejoin:miter;stroke-width:1.5;" x="36.868282" xlink:href="#mf789325608" y="78.042614"/>
    </g>
   </g>
   <g id="line2d_70"/>
   <g id="line2d_71">
    <defs>
     <path d="M -0 10 
L 10 -10 
L -10 -10 
z
" id="m73596d4cb3" style="stroke:#6495ed;stroke-linejoin:miter;"/>
    </defs>
    <g clip-path="url(#pdda80b3bcb)">
     <use style="fill-opacity:0;stroke:#6495ed;stroke-linejoin:miter;" x="36.868282" xlink:href="#m73596d4cb3" y="88.174872"/>
     <use style="fill-opacity:0;stroke:#6495ed;stroke-linejoin:miter;" x="91.085051" xlink:href="#m73596d4cb3" y="99.297738"/>
     <use style="fill-opacity:0;stroke:#6495ed;stroke-linejoin:miter;" x="159.390103" xlink:href="#m73596d4cb3" y="113.310891"/>
     <use style="fill-opacity:0;stroke:#6495ed;stroke-linejoin:miter;" x="252.074282" xlink:href="#m73596d4cb3" y="132.325555"/>
     <use style="fill-opacity:0;stroke:#6495ed;stroke-linejoin:miter;" x="344.758461" xlink:href="#m73596d4cb3" y="151.340219"/>
     <use style="fill-opacity:0;stroke:#6495ed;stroke-linejoin:miter;" x="437.442641" xlink:href="#m73596d4cb3" y="170.354883"/>
    </g>
   </g>
   <g id="line2d_72">
    <path clip-path="url(#pdda80b3bcb)" d="M 36.868282 128.035771 
L 91.085051 111.561601 
" style="fill:none;stroke:#ff0000;stroke-linecap:square;stroke-width:2.666667;"/>
    <defs>
     <path d="M 0 -7.5 
L -6.495191 -3.75 
L -6.495191 3.75 
L -0 7.5 
L 6.495191 3.75 
L 6.495191 -3.75 
z
" id="m09cc0daff3" style="stroke:#ff0000;stroke-linejoin:miter;"/>
    </defs>
    <g clip-path="url(#pdda80b3bcb)">
     <use style="fill-opacity:0;stroke:#ff0000;stroke-linejoin:miter;" x="36.868282" xlink:href="#m09cc0daff3" y="128.035771"/>
     <use style="fill-opacity:0;stroke:#ff0000;stroke-linejoin:miter;" x="91.085051" xlink:href="#m09cc0daff3" y="111.561601"/>
    </g>
   </g>
   <g id="line2d_73">
    <path clip-path="url(#pdda80b3bcb)" d="M 91.085051 111.561601 
" style="fill:none;stroke:#ff0000;stroke-linecap:square;stroke-width:2.666667;"/>
    <g clip-path="url(#pdda80b3bcb)">
     <use style="fill-opacity:0;stroke:#ff0000;stroke-linejoin:miter;" x="91.085051" xlink:href="#m09cc0daff3" y="111.561601"/>
    </g>
   </g>
   <g id="line2d_74"/>
   <g id="line2d_75">
    <defs>
     <path d="M 0 -10 
L -8.660254 -5 
L -8.660254 5 
L -0 10 
L 8.660254 5 
L 8.660254 -5 
z
" id="m933730efab" style="stroke:#ff0000;stroke-linejoin:miter;"/>
    </defs>
    <g clip-path="url(#pdda80b3bcb)">
     <use style="fill-opacity:0;stroke:#ff0000;stroke-linejoin:miter;" x="36.868282" xlink:href="#m933730efab" y="94.620466"/>
     <use style="fill-opacity:0;stroke:#ff0000;stroke-linejoin:miter;" x="91.085051" xlink:href="#m933730efab" y="99.242928"/>
     <use style="fill-opacity:0;stroke:#ff0000;stroke-linejoin:miter;" x="159.390103" xlink:href="#m933730efab" y="113.310891"/>
     <use style="fill-opacity:0;stroke:#ff0000;stroke-linejoin:miter;" x="252.074282" xlink:href="#m933730efab" y="132.325555"/>
     <use style="fill-opacity:0;stroke:#ff0000;stroke-linejoin:miter;" x="344.758461" xlink:href="#m933730efab" y="151.340219"/>
     <use style="fill-opacity:0;stroke:#ff0000;stroke-linejoin:miter;" x="437.442641" xlink:href="#m933730efab" y="170.354883"/>
    </g>
   </g>
   <g id="line2d_76">
    <path clip-path="url(#pdda80b3bcb)" d="M 36.868282 133.5007 
L 91.085051 122.954608 
" style="fill:none;stroke:#9acd32;stroke-linecap:square;stroke-width:2.333333;"/>
    <defs>
     <path d="M 0 -6 
L -6 6 
L 6 6 
z
" id="mc5a7c83945" style="stroke:#9acd32;stroke-linejoin:miter;"/>
    </defs>
    <g clip-path="url(#pdda80b3bcb)">
     <use style="fill-opacity:0;stroke:#9acd32;stroke-linejoin:miter;" x="36.868282" xlink:href="#mc5a7c83945" y="133.5007"/>
     <use style="fill-opacity:0;stroke:#9acd32;stroke-linejoin:miter;" x="91.085051" xlink:href="#mc5a7c83945" y="122.954608"/>
    </g>
   </g>
   <g id="line2d_77">
    <path clip-path="url(#pdda80b3bcb)" d="M 91.085051 122.954608 
" style="fill:none;stroke:#9acd32;stroke-linecap:square;stroke-width:2.333333;"/>
    <g clip-path="url(#pdda80b3bcb)">
     <use style="fill-opacity:0;stroke:#9acd32;stroke-linejoin:miter;" x="91.085051" xlink:href="#mc5a7c83945" y="122.954608"/>
    </g>
   </g>
   <g id="line2d_78"/>
   <g id="line2d_79">
    <defs>
     <path d="M 0 -10 
L -10 10 
L 10 10 
z
" id="ma2a24f2dc6" style="stroke:#9acd32;stroke-linejoin:miter;"/>
    </defs>
    <g clip-path="url(#pdda80b3bcb)">
     <use style="fill-opacity:0;stroke:#9acd32;stroke-linejoin:miter;" x="36.868282" xlink:href="#ma2a24f2dc6" y="115.125262"/>
     <use style="fill-opacity:0;stroke:#9acd32;stroke-linejoin:miter;" x="91.085051" xlink:href="#ma2a24f2dc6" y="103.569466"/>
     <use style="fill-opacity:0;stroke:#9acd32;stroke-linejoin:miter;" x="159.390103" xlink:href="#ma2a24f2dc6" y="113.310891"/>
     <use style="fill-opacity:0;stroke:#9acd32;stroke-linejoin:miter;" x="252.074282" xlink:href="#ma2a24f2dc6" y="132.325555"/>
     <use style="fill-opacity:0;stroke:#9acd32;stroke-linejoin:miter;" x="344.758461" xlink:href="#ma2a24f2dc6" y="151.340219"/>
     <use style="fill-opacity:0;stroke:#9acd32;stroke-linejoin:miter;" x="437.442641" xlink:href="#ma2a24f2dc6" y="170.354883"/>
    </g>
   </g>
   <g id="line2d_80">
    <path clip-path="url(#pdda80b3bcb)" d="M 36.868282 142.74162 
L 91.085051 126.322475 
" style="fill:none;stroke:#00bfbf;stroke-linecap:square;stroke-width:2;"/>
    <defs>
     <path d="M 0 -6 
L -5.706339 -1.854102 
L -3.526712 4.854102 
L 3.526712 4.854102 
L 5.706339 -1.854102 
z
" id="m8bd77541de" style="stroke:#00bfbf;stroke-linejoin:miter;"/>
    </defs>
    <g clip-path="url(#pdda80b3bcb)">
     <use style="fill-opacity:0;stroke:#00bfbf;stroke-linejoin:miter;" x="36.868282" xlink:href="#m8bd77541de" y="142.74162"/>
     <use style="fill-opacity:0;stroke:#00bfbf;stroke-linejoin:miter;" x="91.085051" xlink:href="#m8bd77541de" y="126.322475"/>
    </g>
   </g>
   <g id="line2d_81">
    <path clip-path="url(#pdda80b3bcb)" d="M 91.085051 126.322475 
L 159.390103 58.131873 
" style="fill:none;stroke:#00bfbf;stroke-linecap:square;stroke-width:2;"/>
    <g clip-path="url(#pdda80b3bcb)">
     <use style="fill-opacity:0;stroke:#00bfbf;stroke-linejoin:miter;" x="91.085051" xlink:href="#m8bd77541de" y="126.322475"/>
     <use style="fill-opacity:0;stroke:#00bfbf;stroke-linejoin:miter;" x="159.390103" xlink:href="#m8bd77541de" y="58.131873"/>
    </g>
   </g>
   <g id="line2d_82">
    <path clip-path="url(#pdda80b3bcb)" d="M 159.390103 58.131873 
" style="fill:none;stroke:#00bfbf;stroke-linecap:square;stroke-width:2;"/>
    <g clip-path="url(#pdda80b3bcb)">
     <use style="fill-opacity:0;stroke:#00bfbf;stroke-linejoin:miter;" x="159.390103" xlink:href="#m8bd77541de" y="58.131873"/>
    </g>
   </g>
   <g id="line2d_83"/>
   <g id="line2d_84">
    <defs>
     <path d="M 0 -10 
L -9.510565 -3.09017 
L -5.877853 8.09017 
L 5.877853 8.09017 
L 9.510565 -3.09017 
z
" id="m27152e762c" style="stroke:#00bfbf;stroke-linejoin:miter;"/>
    </defs>
    <g clip-path="url(#pdda80b3bcb)">
     <use style="fill-opacity:0;stroke:#00bfbf;stroke-linejoin:miter;" x="36.868282" xlink:href="#m27152e762c" y="121.794246"/>
     <use style="fill-opacity:0;stroke:#00bfbf;stroke-linejoin:miter;" x="91.085051" xlink:href="#m27152e762c" y="107.491115"/>
     <use style="fill-opacity:0;stroke:#00bfbf;stroke-linejoin:miter;" x="159.390103" xlink:href="#m27152e762c" y="113.310891"/>
     <use style="fill-opacity:0;stroke:#00bfbf;stroke-linejoin:miter;" x="252.074282" xlink:href="#m27152e762c" y="132.325555"/>
     <use style="fill-opacity:0;stroke:#00bfbf;stroke-linejoin:miter;" x="344.758461" xlink:href="#m27152e762c" y="151.340219"/>
     <use style="fill-opacity:0;stroke:#00bfbf;stroke-linejoin:miter;" x="437.442641" xlink:href="#m27152e762c" y="170.354883"/>
    </g>
   </g>
   <g id="line2d_85">
    <defs>
     <path d="M 0 -7.5 
L -1.683855 -2.317627 
L -7.132924 -2.317627 
L -2.724534 0.885255 
L -4.408389 6.067627 
L -0 2.864745 
L 4.408389 6.067627 
L 2.724534 0.885255 
L 7.132924 -2.317627 
L 1.683855 -2.317627 
z
" id="m85ec7bf6cd" style="stroke:#ff0000;stroke-linejoin:bevel;stroke-width:0.7;"/>
    </defs>
    <g clip-path="url(#pdda80b3bcb)">
     <use style="stroke:#ff0000;stroke-linejoin:bevel;stroke-width:0.7;" x="36.868282" xlink:href="#m85ec7bf6cd" y="142.74162"/>
     <use style="stroke:#ff0000;stroke-linejoin:bevel;stroke-width:0.7;" x="159.390103" xlink:href="#m85ec7bf6cd" y="58.131873"/>
    </g>
   </g>
   <g id="line2d_86">
    <path clip-path="url(#pdda80b3bcb)" d="M 131.295594 346.6 
L 461.8 278.795222 
" style="fill:none;stroke:#000000;stroke-dasharray:0.5,0.825;stroke-dashoffset:0;stroke-width:0.5;"/>
   </g>
   <g id="line2d_87">
    <path clip-path="url(#pdda80b3bcb)" d="M -1 310.575815 
L 461.8 215.629875 
" style="fill:none;stroke:#000000;stroke-dasharray:0.5,0.825;stroke-dashoffset:0;stroke-width:0.5;"/>
   </g>
   <g id="line2d_88">
    <path clip-path="url(#pdda80b3bcb)" d="M -1 247.410468 
L 461.8 152.464529 
" style="fill:none;stroke:#000000;stroke-dasharray:0.5,0.825;stroke-dashoffset:0;stroke-width:0.5;"/>
   </g>
   <g id="line2d_89">
    <path clip-path="url(#pdda80b3bcb)" d="M -1 184.245122 
L 461.8 89.299182 
" style="fill:none;stroke:#000000;stroke-dasharray:0.5,0.825;stroke-dashoffset:0;stroke-width:0.5;"/>
   </g>
   <g id="line2d_90">
    <path clip-path="url(#pdda80b3bcb)" d="M -1 121.079775 
L 461.8 26.133835 
" style="fill:none;stroke:#000000;stroke-dasharray:0.5,0.825;stroke-dashoffset:0;stroke-width:0.5;"/>
   </g>
   <g id="line2d_91">
    <path clip-path="url(#pdda80b3bcb)" d="M -1 57.914429 
L 286.169706 -1 
" style="fill:none;stroke:#000000;stroke-dasharray:0.5,0.825;stroke-dashoffset:0;stroke-width:0.5;"/>
   </g>
   <g id="line2d_92">
    <path clip-path="url(#pdda80b3bcb)" style="fill:none;stroke:#000000;stroke-dasharray:0.5,0.825;stroke-dashoffset:0;stroke-width:0.5;"/>
   </g>
   <g id="line2d_93">
    <path clip-path="url(#pdda80b3bcb)" style="fill:none;stroke:#000000;stroke-dasharray:0.5,0.825;stroke-dashoffset:0;stroke-width:0.5;"/>
   </g>
   <g id="line2d_94">
    <path clip-path="url(#pdda80b3bcb)" style="fill:none;stroke:#000000;stroke-dasharray:0.5,0.825;stroke-dashoffset:0;stroke-width:0.5;"/>
   </g>
   <g id="patch_3">
    <path d="M 22.78 315.44 
L 22.78 25.56 
" style="fill:none;stroke:#000000;stroke-linecap:square;stroke-linejoin:miter;stroke-width:0.8;"/>
   </g>
   <g id="patch_4">
    <path d="M 453.192 315.44 
L 453.192 25.56 
" style="fill:none;stroke:#000000;stroke-linecap:square;stroke-linejoin:miter;stroke-width:0.8;"/>
   </g>
   <g id="patch_5">
    <path d="M 22.78 315.44 
L 453.192 315.44 
" style="fill:none;stroke:#000000;stroke-linecap:square;stroke-linejoin:miter;stroke-width:0.8;"/>
   </g>
   <g id="patch_6">
    <path d="M 22.78 25.56 
L 453.192 25.56 
" style="fill:none;stroke:#000000;stroke-linecap:square;stroke-linejoin:miter;stroke-width:0.8;"/>
   </g>
   <g id="text_12">
    <!-- 15 instances -->
    <g transform="translate(22.78 296.8515)scale(0.14 -0.14)">
     <defs>
      <path id="DejaVuSans-20" transform="scale(0.015625)"/>
      <path d="M 603 3500 
L 1178 3500 
L 1178 0 
L 603 0 
L 603 3500 
z
M 603 4863 
L 1178 4863 
L 1178 4134 
L 603 4134 
L 603 4863 
z
" id="DejaVuSans-69" transform="scale(0.015625)"/>
      <path d="M 3513 2113 
L 3513 0 
L 2938 0 
L 2938 2094 
Q 2938 2591 2744 2837 
Q 2550 3084 2163 3084 
Q 1697 3084 1428 2787 
Q 1159 2491 1159 1978 
L 1159 0 
L 581 0 
L 581 3500 
L 1159 3500 
L 1159 2956 
Q 1366 3272 1645 3428 
Q 1925 3584 2291 3584 
Q 2894 3584 3203 3211 
Q 3513 2838 3513 2113 
z
" id="DejaVuSans-6e" transform="scale(0.015625)"/>
      <path d="M 2834 3397 
L 2834 2853 
Q 2591 2978 2328 3040 
Q 2066 3103 1784 3103 
Q 1356 3103 1142 2972 
Q 928 2841 928 2578 
Q 928 2378 1081 2264 
Q 1234 2150 1697 2047 
L 1894 2003 
Q 2506 1872 2764 1633 
Q 3022 1394 3022 966 
Q 3022 478 2636 193 
Q 2250 -91 1575 -91 
Q 1294 -91 989 -36 
Q 684 19 347 128 
L 347 722 
Q 666 556 975 473 
Q 1284 391 1588 391 
Q 1994 391 2212 530 
Q 2431 669 2431 922 
Q 2431 1156 2273 1281 
Q 2116 1406 1581 1522 
L 1381 1569 
Q 847 1681 609 1914 
Q 372 2147 372 2553 
Q 372 3047 722 3315 
Q 1072 3584 1716 3584 
Q 2034 3584 2315 3537 
Q 2597 3491 2834 3397 
z
" id="DejaVuSans-73" transform="scale(0.015625)"/>
      <path d="M 1172 4494 
L 1172 3500 
L 2356 3500 
L 2356 3053 
L 1172 3053 
L 1172 1153 
Q 1172 725 1289 603 
Q 1406 481 1766 481 
L 2356 481 
L 2356 0 
L 1766 0 
Q 1100 0 847 248 
Q 594 497 594 1153 
L 594 3053 
L 172 3053 
L 172 3500 
L 594 3500 
L 594 4494 
L 1172 4494 
z
" id="DejaVuSans-74" transform="scale(0.015625)"/>
      <path d="M 2194 1759 
Q 1497 1759 1228 1600 
Q 959 1441 959 1056 
Q 959 750 1161 570 
Q 1363 391 1709 391 
Q 2188 391 2477 730 
Q 2766 1069 2766 1631 
L 2766 1759 
L 2194 1759 
z
M 3341 1997 
L 3341 0 
L 2766 0 
L 2766 531 
Q 2569 213 2275 61 
Q 1981 -91 1556 -91 
Q 1019 -91 701 211 
Q 384 513 384 1019 
Q 384 1609 779 1909 
Q 1175 2209 1959 2209 
L 2766 2209 
L 2766 2266 
Q 2766 2663 2505 2880 
Q 2244 3097 1772 3097 
Q 1472 3097 1187 3025 
Q 903 2953 641 2809 
L 641 3341 
Q 956 3463 1253 3523 
Q 1550 3584 1831 3584 
Q 2591 3584 2966 3190 
Q 3341 2797 3341 1997 
z
" id="DejaVuSans-61" transform="scale(0.015625)"/>
      <path d="M 3122 3366 
L 3122 2828 
Q 2878 2963 2633 3030 
Q 2388 3097 2138 3097 
Q 1578 3097 1268 2742 
Q 959 2388 959 1747 
Q 959 1106 1268 751 
Q 1578 397 2138 397 
Q 2388 397 2633 464 
Q 2878 531 3122 666 
L 3122 134 
Q 2881 22 2623 -34 
Q 2366 -91 2075 -91 
Q 1284 -91 818 406 
Q 353 903 353 1747 
Q 353 2603 823 3093 
Q 1294 3584 2113 3584 
Q 2378 3584 2631 3529 
Q 2884 3475 3122 3366 
z
" id="DejaVuSans-63" transform="scale(0.015625)"/>
      <path d="M 3597 1894 
L 3597 1613 
L 953 1613 
Q 991 1019 1311 708 
Q 1631 397 2203 397 
Q 2534 397 2845 478 
Q 3156 559 3463 722 
L 3463 178 
Q 3153 47 2828 -22 
Q 2503 -91 2169 -91 
Q 1331 -91 842 396 
Q 353 884 353 1716 
Q 353 2575 817 3079 
Q 1281 3584 2069 3584 
Q 2775 3584 3186 3129 
Q 3597 2675 3597 1894 
z
M 3022 2063 
Q 3016 2534 2758 2815 
Q 2500 3097 2075 3097 
Q 1594 3097 1305 2825 
Q 1016 2553 972 2059 
L 3022 2063 
z
" id="DejaVuSans-65" transform="scale(0.015625)"/>
     </defs>
     <use xlink:href="#DejaVuSans-31"/>
     <use x="63.623047" xlink:href="#DejaVuSans-35"/>
     <use x="127.246094" xlink:href="#DejaVuSans-20"/>
     <use x="159.033203" xlink:href="#DejaVuSans-69"/>
     <use x="186.816406" xlink:href="#DejaVuSans-6e"/>
     <use x="250.195312" xlink:href="#DejaVuSans-73"/>
     <use x="302.294922" xlink:href="#DejaVuSans-74"/>
     <use x="341.503906" xlink:href="#DejaVuSans-61"/>
     <use x="402.783203" xlink:href="#DejaVuSans-6e"/>
     <use x="466.162109" xlink:href="#DejaVuSans-63"/>
     <use x="521.142578" xlink:href="#DejaVuSans-65"/>
     <use x="582.666016" xlink:href="#DejaVuSans-73"/>
    </g>
    <!-- target Df: 1e-8 -->
    <g transform="translate(22.78 312.528437)scale(0.14 -0.14)">
     <defs>
      <path d="M 2631 2963 
Q 2534 3019 2420 3045 
Q 2306 3072 2169 3072 
Q 1681 3072 1420 2755 
Q 1159 2438 1159 1844 
L 1159 0 
L 581 0 
L 581 3500 
L 1159 3500 
L 1159 2956 
Q 1341 3275 1631 3429 
Q 1922 3584 2338 3584 
Q 2397 3584 2469 3576 
Q 2541 3569 2628 3553 
L 2631 2963 
z
" id="DejaVuSans-72" transform="scale(0.015625)"/>
      <path d="M 2906 1791 
Q 2906 2416 2648 2759 
Q 2391 3103 1925 3103 
Q 1463 3103 1205 2759 
Q 947 2416 947 1791 
Q 947 1169 1205 825 
Q 1463 481 1925 481 
Q 2391 481 2648 825 
Q 2906 1169 2906 1791 
z
M 3481 434 
Q 3481 -459 3084 -895 
Q 2688 -1331 1869 -1331 
Q 1566 -1331 1297 -1286 
Q 1028 -1241 775 -1147 
L 775 -588 
Q 1028 -725 1275 -790 
Q 1522 -856 1778 -856 
Q 2344 -856 2625 -561 
Q 2906 -266 2906 331 
L 2906 616 
Q 2728 306 2450 153 
Q 2172 0 1784 0 
Q 1141 0 747 490 
Q 353 981 353 1791 
Q 353 2603 747 3093 
Q 1141 3584 1784 3584 
Q 2172 3584 2450 3431 
Q 2728 3278 2906 2969 
L 2906 3500 
L 3481 3500 
L 3481 434 
z
" id="DejaVuSans-67" transform="scale(0.015625)"/>
      <path d="M 1259 4147 
L 1259 519 
L 2022 519 
Q 2988 519 3436 956 
Q 3884 1394 3884 2338 
Q 3884 3275 3436 3711 
Q 2988 4147 2022 4147 
L 1259 4147 
z
M 628 4666 
L 1925 4666 
Q 3281 4666 3915 4102 
Q 4550 3538 4550 2338 
Q 4550 1131 3912 565 
Q 3275 0 1925 0 
L 628 0 
L 628 4666 
z
" id="DejaVuSans-44" transform="scale(0.015625)"/>
      <path d="M 2375 4863 
L 2375 4384 
L 1825 4384 
Q 1516 4384 1395 4259 
Q 1275 4134 1275 3809 
L 1275 3500 
L 2222 3500 
L 2222 3053 
L 1275 3053 
L 1275 0 
L 697 0 
L 697 3053 
L 147 3053 
L 147 3500 
L 697 3500 
L 697 3744 
Q 697 4328 969 4595 
Q 1241 4863 1831 4863 
L 2375 4863 
z
" id="DejaVuSans-66" transform="scale(0.015625)"/>
      <path d="M 750 794 
L 1409 794 
L 1409 0 
L 750 0 
L 750 794 
z
M 750 3309 
L 1409 3309 
L 1409 2516 
L 750 2516 
L 750 3309 
z
" id="DejaVuSans-3a" transform="scale(0.015625)"/>
      <path d="M 313 2009 
L 1997 2009 
L 1997 1497 
L 313 1497 
L 313 2009 
z
" id="DejaVuSans-2d" transform="scale(0.015625)"/>
      <path d="M 2034 2216 
Q 1584 2216 1326 1975 
Q 1069 1734 1069 1313 
Q 1069 891 1326 650 
Q 1584 409 2034 409 
Q 2484 409 2743 651 
Q 3003 894 3003 1313 
Q 3003 1734 2745 1975 
Q 2488 2216 2034 2216 
z
M 1403 2484 
Q 997 2584 770 2862 
Q 544 3141 544 3541 
Q 544 4100 942 4425 
Q 1341 4750 2034 4750 
Q 2731 4750 3128 4425 
Q 3525 4100 3525 3541 
Q 3525 3141 3298 2862 
Q 3072 2584 2669 2484 
Q 3125 2378 3379 2068 
Q 3634 1759 3634 1313 
Q 3634 634 3220 271 
Q 2806 -91 2034 -91 
Q 1263 -91 848 271 
Q 434 634 434 1313 
Q 434 1759 690 2068 
Q 947 2378 1403 2484 
z
M 1172 3481 
Q 1172 3119 1398 2916 
Q 1625 2713 2034 2713 
Q 2441 2713 2670 2916 
Q 2900 3119 2900 3481 
Q 2900 3844 2670 4047 
Q 2441 4250 2034 4250 
Q 1625 4250 1398 4047 
Q 1172 3844 1172 3481 
z
" id="DejaVuSans-38" transform="scale(0.015625)"/>
     </defs>
     <use xlink:href="#DejaVuSans-74"/>
     <use x="39.208984" xlink:href="#DejaVuSans-61"/>
     <use x="100.488281" xlink:href="#DejaVuSans-72"/>
     <use x="139.851562" xlink:href="#DejaVuSans-67"/>
     <use x="203.328125" xlink:href="#DejaVuSans-65"/>
     <use x="264.851562" xlink:href="#DejaVuSans-74"/>
     <use x="304.060547" xlink:href="#DejaVuSans-20"/>
     <use x="335.847656" xlink:href="#DejaVuSans-44"/>
     <use x="412.849609" xlink:href="#DejaVuSans-66"/>
     <use x="444.429688" xlink:href="#DejaVuSans-3a"/>
     <use x="478.121094" xlink:href="#DejaVuSans-20"/>
     <use x="509.908203" xlink:href="#DejaVuSans-31"/>
     <use x="573.53125" xlink:href="#DejaVuSans-65"/>
     <use x="635.054688" xlink:href="#DejaVuSans-2d"/>
     <use x="671.138672" xlink:href="#DejaVuSans-38"/>
    </g>
   </g>
   <g id="text_13">
    <!-- v2.4 -->
    <g style="fill:#808080;" transform="translate(227.075063 310.461512)scale(0.1 -0.1)">
     <defs>
      <path d="M 191 3500 
L 800 3500 
L 1894 563 
L 2988 3500 
L 3597 3500 
L 2284 0 
L 1503 0 
L 191 3500 
z
" id="DejaVuSans-76" transform="scale(0.015625)"/>
      <path d="M 684 794 
L 1344 794 
L 1344 0 
L 684 0 
L 684 794 
z
" id="DejaVuSans-2e" transform="scale(0.015625)"/>
     </defs>
     <use xlink:href="#DejaVuSans-76"/>
     <use x="59.179688" xlink:href="#DejaVuSans-32"/>
     <use x="122.802734" xlink:href="#DejaVuSans-2e"/>
     <use x="154.589844" xlink:href="#DejaVuSans-34"/>
    </g>
   </g>
   <g id="text_14">
    <!-- 6 Attractive sector -->
    <g transform="translate(137.82275 19.56)scale(0.216 -0.216)">
     <defs>
      <path d="M 2113 2584 
Q 1688 2584 1439 2293 
Q 1191 2003 1191 1497 
Q 1191 994 1439 701 
Q 1688 409 2113 409 
Q 2538 409 2786 701 
Q 3034 994 3034 1497 
Q 3034 2003 2786 2293 
Q 2538 2584 2113 2584 
z
M 3366 4563 
L 3366 3988 
Q 3128 4100 2886 4159 
Q 2644 4219 2406 4219 
Q 1781 4219 1451 3797 
Q 1122 3375 1075 2522 
Q 1259 2794 1537 2939 
Q 1816 3084 2150 3084 
Q 2853 3084 3261 2657 
Q 3669 2231 3669 1497 
Q 3669 778 3244 343 
Q 2819 -91 2113 -91 
Q 1303 -91 875 529 
Q 447 1150 447 2328 
Q 447 3434 972 4092 
Q 1497 4750 2381 4750 
Q 2619 4750 2861 4703 
Q 3103 4656 3366 4563 
z
" id="DejaVuSans-36" transform="scale(0.015625)"/>
      <path d="M 2188 4044 
L 1331 1722 
L 3047 1722 
L 2188 4044 
z
M 1831 4666 
L 2547 4666 
L 4325 0 
L 3669 0 
L 3244 1197 
L 1141 1197 
L 716 0 
L 50 0 
L 1831 4666 
z
" id="DejaVuSans-41" transform="scale(0.015625)"/>
      <path d="M 1959 3097 
Q 1497 3097 1228 2736 
Q 959 2375 959 1747 
Q 959 1119 1226 758 
Q 1494 397 1959 397 
Q 2419 397 2687 759 
Q 2956 1122 2956 1747 
Q 2956 2369 2687 2733 
Q 2419 3097 1959 3097 
z
M 1959 3584 
Q 2709 3584 3137 3096 
Q 3566 2609 3566 1747 
Q 3566 888 3137 398 
Q 2709 -91 1959 -91 
Q 1206 -91 779 398 
Q 353 888 353 1747 
Q 353 2609 779 3096 
Q 1206 3584 1959 3584 
z
" id="DejaVuSans-6f" transform="scale(0.015625)"/>
     </defs>
     <use xlink:href="#DejaVuSans-36"/>
     <use x="63.623047" xlink:href="#DejaVuSans-20"/>
     <use x="95.410156" xlink:href="#DejaVuSans-41"/>
     <use x="162.068359" xlink:href="#DejaVuSans-74"/>
     <use x="201.277344" xlink:href="#DejaVuSans-74"/>
     <use x="240.486328" xlink:href="#DejaVuSans-72"/>
     <use x="281.599609" xlink:href="#DejaVuSans-61"/>
     <use x="342.878906" xlink:href="#DejaVuSans-63"/>
     <use x="397.859375" xlink:href="#DejaVuSans-74"/>
     <use x="437.068359" xlink:href="#DejaVuSans-69"/>
     <use x="464.851562" xlink:href="#DejaVuSans-76"/>
     <use x="524.03125" xlink:href="#DejaVuSans-65"/>
     <use x="585.554688" xlink:href="#DejaVuSans-20"/>
     <use x="617.341797" xlink:href="#DejaVuSans-73"/>
     <use x="669.441406" xlink:href="#DejaVuSans-65"/>
     <use x="730.964844" xlink:href="#DejaVuSans-63"/>
     <use x="785.945312" xlink:href="#DejaVuSans-74"/>
     <use x="825.154297" xlink:href="#DejaVuSans-6f"/>
     <use x="886.335938" xlink:href="#DejaVuSans-72"/>
    </g>
   </g>
  </g>
 </g>
 <defs>
  <clipPath id="pdda80b3bcb">
   <rect height="289.88" width="430.412" x="22.78" y="25.56"/>
  </clipPath>
 </defs>
</svg>
