<?xml version="1.0" encoding="utf-8" standalone="no"?>
<!DOCTYPE svg PUBLIC "-//W3C//DTD SVG 1.1//EN"
  "http://www.w3.org/Graphics/SVG/1.1/DTD/svg11.dtd">
<svg height="345.6pt" version="1.1" viewBox="0 0 460.8 345.6" width="460.8pt" xmlns="http://www.w3.org/2000/svg" xmlns:xlink="http://www.w3.org/1999/xlink">
 <metadata>
  <rdf:RDF xmlns:cc="http://creativecommons.org/ns#" xmlns:dc="http://purl.org/dc/elements/1.1/" xmlns:rdf="http://www.w3.org/1999/02/22-rdf-syntax-ns#">
   <cc:Work>
    <dc:type rdf:resource="http://purl.org/dc/dcmitype/StillImage"/>
    <dc:date>2021-04-30T23:10:13.823871</dc:date>
    <dc:format>image/svg+xml</dc:format>
    <dc:creator>
     <cc:Agent>
      <dc:title>Matplotlib v3.4.1, https://matplotlib.org/</dc:title>
     </cc:Agent>
    </dc:creator>
   </cc:Work>
  </rdf:RDF>
 </metadata>
 <defs>
  <style type="text/css">*{stroke-linecap:butt;stroke-linejoin:round;}</style>
 </defs>
 <g id="figure_1">
  <g id="patch_1">
   <path d="M 0 345.6 
L 460.8 345.6 
L 460.8 0 
L 0 0 
z
" style="fill:#ffffff;"/>
  </g>
  <g id="axes_1">
   <g id="patch_2">
    <path d="M 57.6 298.944 
L 338.688 298.944 
L 338.688 3.456 
L 57.6 3.456 
z
" style="fill:#ffffff;"/>
   </g>
   <g id="line2d_1">
    <path d="M -1 290.912876 
L 27.203868 290.912876 
L 27.203868 289.765573 
L 66.853775 289.765573 
L 66.853775 288.618269 
L 81.775977 288.618269 
L 81.775977 286.323662 
L 83.138295 286.323662 
L 83.138295 285.176359 
L 84.213325 285.176359 
L 84.213325 284.029055 
L 85.315119 284.029055 
L 85.315119 282.881752 
L 86.012784 282.881752 
L 86.012784 281.734448 
L 86.601153 281.734448 
L 86.601153 280.587145 
L 87.487404 280.587145 
L 87.487404 279.439842 
L 88.180446 279.439842 
L 88.180446 277.145235 
L 90.965519 277.145235 
L 90.965519 275.997931 
L 92.267099 275.997931 
L 92.267099 274.850628 
L 93.026719 274.850628 
L 93.026719 273.703324 
L 96.86091 273.703324 
L 96.86091 272.556021 
L 102.162376 272.556021 
L 102.162376 271.408718 
L 104.913428 271.408718 
L 104.913428 270.261414 
L 107.187808 270.261414 
L 107.187808 269.114111 
L 109.491096 269.114111 
L 109.491096 267.966807 
L 114.485807 267.966807 
L 114.485807 266.819504 
L 119.502775 266.819504 
L 119.502775 265.6722 
L 129.623411 265.6722 
L 129.623411 264.524897 
L 129.78395 264.524897 
L 129.78395 263.377593 
L 132.470242 263.377593 
L 132.470242 262.23029 
L 133.409373 262.23029 
L 133.409373 261.082987 
L 136.813232 261.082987 
L 136.813232 259.935683 
L 143.722546 259.935683 
L 143.722546 258.78838 
L 149.931137 258.78838 
L 149.931137 257.641076 
L 150.501627 257.641076 
L 150.501627 256.493773 
L 154.185999 256.493773 
L 154.185999 255.346469 
L 155.656773 255.346469 
L 155.656773 254.199166 
L 156.960528 254.199166 
L 156.960528 253.051863 
L 166.948338 253.051863 
L 166.948338 251.904559 
L 172.29133 251.904559 
L 172.29133 250.757256 
L 173.56988 250.757256 
L 173.56988 249.609952 
L 175.93577 249.609952 
L 175.956448 247.315345 
L 176.597948 247.315345 
L 176.597948 246.168042 
L 177.479727 246.168042 
L 177.479727 245.020738 
L 177.626103 245.020738 
L 177.626103 243.873435 
L 189.133785 243.873435 
L 189.133785 242.726132 
L 192.807513 242.726132 
L 192.807513 241.578828 
L 194.132716 241.578828 
L 194.236694 227.811187 
L 194.258243 227.811187 
L 194.365758 215.190849 
L 194.372948 215.190849 
L 194.46785 200.275904 
L 194.487584 200.275904 
L 194.520878 195.686691 
L 195.029135 195.686691 
L 195.029135 194.539387 
L 198.80241 194.539387 
L 198.80241 193.392084 
L 201.983339 193.392084 
L 201.983339 192.24478 
L 207.742993 192.24478 
L 207.742993 191.097477 
L 208.98608 191.097477 
L 208.98608 189.950174 
L 220.991057 189.950174 
L 220.991057 188.80287 
L 226.637355 188.80287 
L 226.739256 161.267588 
L 226.751852 161.267588 
L 226.818635 144.058036 
L 226.977927 144.058036 
L 226.977927 142.910733 
L 230.164287 142.910733 
L 230.194485 140.616126 
L 232.417771 140.616126 
L 232.417771 139.468822 
L 233.929679 139.468822 
L 233.929679 138.321519 
L 236.30081 138.321519 
L 236.30081 137.174215 
L 236.48856 137.174215 
L 236.48856 136.026912 
L 238.488126 136.026912 
L 238.488126 134.879609 
L 239.078617 134.879609 
L 239.078617 133.732305 
L 239.549752 133.732305 
L 239.549752 132.585002 
L 245.816587 132.585002 
L 245.816587 131.437698 
L 248.54118 131.437698 
L 248.54118 130.290395 
L 254.146845 130.290395 
L 254.146845 129.143091 
L 254.265156 129.143091 
L 254.265156 127.995788 
L 254.403599 127.995788 
L 254.460571 125.701181 
L 254.565847 125.701181 
L 254.651208 123.406574 
L 254.713915 123.406574 
L 254.797047 121.111967 
L 254.861414 121.111967 
L 254.931352 118.817361 
L 254.982281 118.817361 
L 255.055735 116.522754 
L 255.135776 116.522754 
L 255.237525 113.080843 
L 255.289708 113.080843 
L 255.338777 110.786236 
L 255.415647 110.786236 
L 255.487081 108.49163 
L 255.550324 108.49163 
L 255.609232 106.197023 
L 255.683629 106.197023 
L 255.683629 105.049719 
L 262.350854 105.049719 
L 262.350854 103.902416 
L 264.991202 103.902416 
L 264.991202 102.755112 
L 272.980217 102.755112 
L 272.980217 101.607809 
L 281.16681 101.607809 
L 281.16681 100.460506 
L 299.174853 100.460506 
L 299.174853 99.313202 
L 299.767469 99.313202 
L 299.767469 98.165899 
L 303.129647 98.165899 
L 303.129647 97.018595 
L 307.244286 97.018595 
L 307.244286 95.871292 
L 314.189555 95.871292 
L 314.195299 92.429381 
L 321.553106 92.429381 
L 321.557412 88.987471 
L 322.833938 88.987471 
L 322.833938 87.840168 
L 333.680273 87.840168 
L 333.698792 46.537244 
L 338.688 46.537244 
L 338.688 46.537244 
" style="fill:none;stroke:#f5deb3;stroke-linecap:square;stroke-width:4;"/>
   </g>
   <g id="line2d_2">
    <defs>
     <path d="M 0 7.778175 
L 7.778175 0 
L 0 -7.778175 
L -7.778175 0 
z
" id="m04c91d5428" style="stroke:#f5deb3;stroke-linejoin:miter;stroke-width:1.5;"/>
    </defs>
    <g>
     <use style="fill:#f5deb3;stroke:#f5deb3;stroke-linejoin:miter;stroke-width:1.5;" x="104.913428" xlink:href="#m04c91d5428" y="270.261414"/>
     <use style="fill:#f5deb3;stroke:#f5deb3;stroke-linejoin:miter;stroke-width:1.5;" x="194.309679" xlink:href="#m04c91d5428" y="222.07467"/>
     <use style="fill:#f5deb3;stroke:#f5deb3;stroke-linejoin:miter;stroke-width:1.5;" x="254.265156" xlink:href="#m04c91d5428" y="129.143091"/>
     <use style="fill:#f5deb3;stroke:#f5deb3;stroke-linejoin:miter;stroke-width:1.5;" x="322.833938" xlink:href="#m04c91d5428" y="88.987471"/>
     <use style="fill:#f5deb3;stroke:#f5deb3;stroke-linejoin:miter;stroke-width:1.5;" x="333.698792" xlink:href="#m04c91d5428" y="46.537244"/>
     <use style="fill:#f5deb3;stroke:#f5deb3;stroke-linejoin:miter;stroke-width:1.5;" x="338.688" xlink:href="#m04c91d5428" y="46.537244"/>
    </g>
   </g>
   <g id="line2d_3">
    <path style="fill:none;stroke:#f5deb3;stroke-linecap:square;stroke-width:4;"/>
    <g/>
   </g>
   <g id="line2d_4">
    <path d="M 338.688 46.537244 
L 369.60768 12.232871 
" style="fill:none;stroke:#f5deb3;stroke-linecap:square;stroke-width:4;"/>
    <g>
     <use style="fill:#f5deb3;stroke:#f5deb3;stroke-linejoin:miter;stroke-width:1.5;" x="338.688" xlink:href="#m04c91d5428" y="46.537244"/>
     <use style="fill:#f5deb3;stroke:#f5deb3;stroke-linejoin:miter;stroke-width:1.5;" x="369.60768" xlink:href="#m04c91d5428" y="12.232871"/>
    </g>
   </g>
   <g id="matplotlib.axis_1">
    <g id="xtick_1">
     <g id="line2d_5">
      <path clip-path="url(#p6e8b065f0e)" d="M 57.6 298.944 
L 57.6 3.456 
" style="fill:none;stroke:#b0b0b0;stroke-linecap:square;stroke-width:0.8;"/>
     </g>
     <g id="line2d_6">
      <defs>
       <path d="M 0 0 
L 0 3.5 
" id="m746d41f435" style="stroke:#000000;stroke-width:0.8;"/>
      </defs>
      <g>
       <use style="stroke:#000000;stroke-width:0.8;" x="57.6" xlink:href="#m746d41f435" y="298.944"/>
      </g>
     </g>
     <g id="text_1">
      <!-- 0 -->
      <g transform="translate(51.2375 321.140875)scale(0.2 -0.2)">
       <defs>
        <path d="M 2034 4250 
Q 1547 4250 1301 3770 
Q 1056 3291 1056 2328 
Q 1056 1369 1301 889 
Q 1547 409 2034 409 
Q 2525 409 2770 889 
Q 3016 1369 3016 2328 
Q 3016 3291 2770 3770 
Q 2525 4250 2034 4250 
z
M 2034 4750 
Q 2819 4750 3233 4129 
Q 3647 3509 3647 2328 
Q 3647 1150 3233 529 
Q 2819 -91 2034 -91 
Q 1250 -91 836 529 
Q 422 1150 422 2328 
Q 422 3509 836 4129 
Q 1250 4750 2034 4750 
z
" id="DejaVuSans-30" transform="scale(0.015625)"/>
       </defs>
       <use xlink:href="#DejaVuSans-30"/>
      </g>
     </g>
    </g>
    <g id="xtick_2">
     <g id="line2d_7">
      <path clip-path="url(#p6e8b065f0e)" d="M 137.910857 298.944 
L 137.910857 3.456 
" style="fill:none;stroke:#b0b0b0;stroke-linecap:square;stroke-width:0.8;"/>
     </g>
     <g id="line2d_8">
      <g>
       <use style="stroke:#000000;stroke-width:0.8;" x="137.910857" xlink:href="#m746d41f435" y="298.944"/>
      </g>
     </g>
     <g id="text_2">
      <!-- 2 -->
      <g transform="translate(131.548357 321.140875)scale(0.2 -0.2)">
       <defs>
        <path d="M 1228 531 
L 3431 531 
L 3431 0 
L 469 0 
L 469 531 
Q 828 903 1448 1529 
Q 2069 2156 2228 2338 
Q 2531 2678 2651 2914 
Q 2772 3150 2772 3378 
Q 2772 3750 2511 3984 
Q 2250 4219 1831 4219 
Q 1534 4219 1204 4116 
Q 875 4013 500 3803 
L 500 4441 
Q 881 4594 1212 4672 
Q 1544 4750 1819 4750 
Q 2544 4750 2975 4387 
Q 3406 4025 3406 3419 
Q 3406 3131 3298 2873 
Q 3191 2616 2906 2266 
Q 2828 2175 2409 1742 
Q 1991 1309 1228 531 
z
" id="DejaVuSans-32" transform="scale(0.015625)"/>
       </defs>
       <use xlink:href="#DejaVuSans-32"/>
      </g>
     </g>
    </g>
    <g id="xtick_3">
     <g id="line2d_9">
      <path clip-path="url(#p6e8b065f0e)" d="M 218.221714 298.944 
L 218.221714 3.456 
" style="fill:none;stroke:#b0b0b0;stroke-linecap:square;stroke-width:0.8;"/>
     </g>
     <g id="line2d_10">
      <g>
       <use style="stroke:#000000;stroke-width:0.8;" x="218.221714" xlink:href="#m746d41f435" y="298.944"/>
      </g>
     </g>
     <g id="text_3">
      <!-- 4 -->
      <g transform="translate(211.859214 321.140875)scale(0.2 -0.2)">
       <defs>
        <path d="M 2419 4116 
L 825 1625 
L 2419 1625 
L 2419 4116 
z
M 2253 4666 
L 3047 4666 
L 3047 1625 
L 3713 1625 
L 3713 1100 
L 3047 1100 
L 3047 0 
L 2419 0 
L 2419 1100 
L 313 1100 
L 313 1709 
L 2253 4666 
z
" id="DejaVuSans-34" transform="scale(0.015625)"/>
       </defs>
       <use xlink:href="#DejaVuSans-34"/>
      </g>
     </g>
    </g>
    <g id="xtick_4">
     <g id="line2d_11">
      <path clip-path="url(#p6e8b065f0e)" d="M 298.532571 298.944 
L 298.532571 3.456 
" style="fill:none;stroke:#b0b0b0;stroke-linecap:square;stroke-width:0.8;"/>
     </g>
     <g id="line2d_12">
      <g>
       <use style="stroke:#000000;stroke-width:0.8;" x="298.532571" xlink:href="#m746d41f435" y="298.944"/>
      </g>
     </g>
     <g id="text_4">
      <!-- 6 -->
      <g transform="translate(292.170071 321.140875)scale(0.2 -0.2)">
       <defs>
        <path d="M 2113 2584 
Q 1688 2584 1439 2293 
Q 1191 2003 1191 1497 
Q 1191 994 1439 701 
Q 1688 409 2113 409 
Q 2538 409 2786 701 
Q 3034 994 3034 1497 
Q 3034 2003 2786 2293 
Q 2538 2584 2113 2584 
z
M 3366 4563 
L 3366 3988 
Q 3128 4100 2886 4159 
Q 2644 4219 2406 4219 
Q 1781 4219 1451 3797 
Q 1122 3375 1075 2522 
Q 1259 2794 1537 2939 
Q 1816 3084 2150 3084 
Q 2853 3084 3261 2657 
Q 3669 2231 3669 1497 
Q 3669 778 3244 343 
Q 2819 -91 2113 -91 
Q 1303 -91 875 529 
Q 447 1150 447 2328 
Q 447 3434 972 4092 
Q 1497 4750 2381 4750 
Q 2619 4750 2861 4703 
Q 3103 4656 3366 4563 
z
" id="DejaVuSans-36" transform="scale(0.015625)"/>
       </defs>
       <use xlink:href="#DejaVuSans-36"/>
      </g>
     </g>
    </g>
    <g id="xtick_5">
     <g id="line2d_13">
      <path clip-path="url(#p6e8b065f0e)" d="M 97.755429 298.944 
L 97.755429 3.456 
" style="fill:none;stroke:#b0b0b0;stroke-linecap:square;stroke-width:0.8;"/>
     </g>
     <g id="line2d_14">
      <defs>
       <path d="M 0 0 
L 0 2 
" id="m0b832fc4c8" style="stroke:#000000;stroke-width:0.6;"/>
      </defs>
      <g>
       <use style="stroke:#000000;stroke-width:0.6;" x="97.755429" xlink:href="#m0b832fc4c8" y="298.944"/>
      </g>
     </g>
    </g>
    <g id="xtick_6">
     <g id="line2d_15">
      <path clip-path="url(#p6e8b065f0e)" d="M 178.066286 298.944 
L 178.066286 3.456 
" style="fill:none;stroke:#b0b0b0;stroke-linecap:square;stroke-width:0.8;"/>
     </g>
     <g id="line2d_16">
      <g>
       <use style="stroke:#000000;stroke-width:0.6;" x="178.066286" xlink:href="#m0b832fc4c8" y="298.944"/>
      </g>
     </g>
    </g>
    <g id="xtick_7">
     <g id="line2d_17">
      <path clip-path="url(#p6e8b065f0e)" d="M 258.377143 298.944 
L 258.377143 3.456 
" style="fill:none;stroke:#b0b0b0;stroke-linecap:square;stroke-width:0.8;"/>
     </g>
     <g id="line2d_18">
      <g>
       <use style="stroke:#000000;stroke-width:0.6;" x="258.377143" xlink:href="#m0b832fc4c8" y="298.944"/>
      </g>
     </g>
    </g>
    <g id="xtick_8">
     <g id="line2d_19">
      <path clip-path="url(#p6e8b065f0e)" d="M 338.688 298.944 
L 338.688 3.456 
" style="fill:none;stroke:#b0b0b0;stroke-linecap:square;stroke-width:0.8;"/>
     </g>
     <g id="line2d_20">
      <g>
       <use style="stroke:#000000;stroke-width:0.6;" x="338.688" xlink:href="#m0b832fc4c8" y="298.944"/>
      </g>
     </g>
    </g>
    <g id="text_5">
     <!-- log10(# f-evals / dimension) -->
     <g transform="translate(77.764078 342.217594)scale(0.17 -0.17)">
      <defs>
       <path d="M 603 4863 
L 1178 4863 
L 1178 0 
L 603 0 
L 603 4863 
z
" id="DejaVuSans-6c" transform="scale(0.015625)"/>
       <path d="M 1959 3097 
Q 1497 3097 1228 2736 
Q 959 2375 959 1747 
Q 959 1119 1226 758 
Q 1494 397 1959 397 
Q 2419 397 2687 759 
Q 2956 1122 2956 1747 
Q 2956 2369 2687 2733 
Q 2419 3097 1959 3097 
z
M 1959 3584 
Q 2709 3584 3137 3096 
Q 3566 2609 3566 1747 
Q 3566 888 3137 398 
Q 2709 -91 1959 -91 
Q 1206 -91 779 398 
Q 353 888 353 1747 
Q 353 2609 779 3096 
Q 1206 3584 1959 3584 
z
" id="DejaVuSans-6f" transform="scale(0.015625)"/>
       <path d="M 2906 1791 
Q 2906 2416 2648 2759 
Q 2391 3103 1925 3103 
Q 1463 3103 1205 2759 
Q 947 2416 947 1791 
Q 947 1169 1205 825 
Q 1463 481 1925 481 
Q 2391 481 2648 825 
Q 2906 1169 2906 1791 
z
M 3481 434 
Q 3481 -459 3084 -895 
Q 2688 -1331 1869 -1331 
Q 1566 -1331 1297 -1286 
Q 1028 -1241 775 -1147 
L 775 -588 
Q 1028 -725 1275 -790 
Q 1522 -856 1778 -856 
Q 2344 -856 2625 -561 
Q 2906 -266 2906 331 
L 2906 616 
Q 2728 306 2450 153 
Q 2172 0 1784 0 
Q 1141 0 747 490 
Q 353 981 353 1791 
Q 353 2603 747 3093 
Q 1141 3584 1784 3584 
Q 2172 3584 2450 3431 
Q 2728 3278 2906 2969 
L 2906 3500 
L 3481 3500 
L 3481 434 
z
" id="DejaVuSans-67" transform="scale(0.015625)"/>
       <path d="M 794 531 
L 1825 531 
L 1825 4091 
L 703 3866 
L 703 4441 
L 1819 4666 
L 2450 4666 
L 2450 531 
L 3481 531 
L 3481 0 
L 794 0 
L 794 531 
z
" id="DejaVuSans-31" transform="scale(0.015625)"/>
       <path d="M 1984 4856 
Q 1566 4138 1362 3434 
Q 1159 2731 1159 2009 
Q 1159 1288 1364 580 
Q 1569 -128 1984 -844 
L 1484 -844 
Q 1016 -109 783 600 
Q 550 1309 550 2009 
Q 550 2706 781 3412 
Q 1013 4119 1484 4856 
L 1984 4856 
z
" id="DejaVuSans-28" transform="scale(0.015625)"/>
       <path d="M 3272 2816 
L 2363 2816 
L 2100 1772 
L 3016 1772 
L 3272 2816 
z
M 2803 4594 
L 2478 3297 
L 3391 3297 
L 3719 4594 
L 4219 4594 
L 3897 3297 
L 4872 3297 
L 4872 2816 
L 3775 2816 
L 3519 1772 
L 4513 1772 
L 4513 1294 
L 3397 1294 
L 3072 0 
L 2572 0 
L 2894 1294 
L 1978 1294 
L 1656 0 
L 1153 0 
L 1478 1294 
L 494 1294 
L 494 1772 
L 1594 1772 
L 1856 2816 
L 850 2816 
L 850 3297 
L 1978 3297 
L 2297 4594 
L 2803 4594 
z
" id="DejaVuSans-23" transform="scale(0.015625)"/>
       <path id="DejaVuSans-20" transform="scale(0.015625)"/>
       <path d="M 2375 4863 
L 2375 4384 
L 1825 4384 
Q 1516 4384 1395 4259 
Q 1275 4134 1275 3809 
L 1275 3500 
L 2222 3500 
L 2222 3053 
L 1275 3053 
L 1275 0 
L 697 0 
L 697 3053 
L 147 3053 
L 147 3500 
L 697 3500 
L 697 3744 
Q 697 4328 969 4595 
Q 1241 4863 1831 4863 
L 2375 4863 
z
" id="DejaVuSans-66" transform="scale(0.015625)"/>
       <path d="M 313 2009 
L 1997 2009 
L 1997 1497 
L 313 1497 
L 313 2009 
z
" id="DejaVuSans-2d" transform="scale(0.015625)"/>
       <path d="M 3597 1894 
L 3597 1613 
L 953 1613 
Q 991 1019 1311 708 
Q 1631 397 2203 397 
Q 2534 397 2845 478 
Q 3156 559 3463 722 
L 3463 178 
Q 3153 47 2828 -22 
Q 2503 -91 2169 -91 
Q 1331 -91 842 396 
Q 353 884 353 1716 
Q 353 2575 817 3079 
Q 1281 3584 2069 3584 
Q 2775 3584 3186 3129 
Q 3597 2675 3597 1894 
z
M 3022 2063 
Q 3016 2534 2758 2815 
Q 2500 3097 2075 3097 
Q 1594 3097 1305 2825 
Q 1016 2553 972 2059 
L 3022 2063 
z
" id="DejaVuSans-65" transform="scale(0.015625)"/>
       <path d="M 191 3500 
L 800 3500 
L 1894 563 
L 2988 3500 
L 3597 3500 
L 2284 0 
L 1503 0 
L 191 3500 
z
" id="DejaVuSans-76" transform="scale(0.015625)"/>
       <path d="M 2194 1759 
Q 1497 1759 1228 1600 
Q 959 1441 959 1056 
Q 959 750 1161 570 
Q 1363 391 1709 391 
Q 2188 391 2477 730 
Q 2766 1069 2766 1631 
L 2766 1759 
L 2194 1759 
z
M 3341 1997 
L 3341 0 
L 2766 0 
L 2766 531 
Q 2569 213 2275 61 
Q 1981 -91 1556 -91 
Q 1019 -91 701 211 
Q 384 513 384 1019 
Q 384 1609 779 1909 
Q 1175 2209 1959 2209 
L 2766 2209 
L 2766 2266 
Q 2766 2663 2505 2880 
Q 2244 3097 1772 3097 
Q 1472 3097 1187 3025 
Q 903 2953 641 2809 
L 641 3341 
Q 956 3463 1253 3523 
Q 1550 3584 1831 3584 
Q 2591 3584 2966 3190 
Q 3341 2797 3341 1997 
z
" id="DejaVuSans-61" transform="scale(0.015625)"/>
       <path d="M 2834 3397 
L 2834 2853 
Q 2591 2978 2328 3040 
Q 2066 3103 1784 3103 
Q 1356 3103 1142 2972 
Q 928 2841 928 2578 
Q 928 2378 1081 2264 
Q 1234 2150 1697 2047 
L 1894 2003 
Q 2506 1872 2764 1633 
Q 3022 1394 3022 966 
Q 3022 478 2636 193 
Q 2250 -91 1575 -91 
Q 1294 -91 989 -36 
Q 684 19 347 128 
L 347 722 
Q 666 556 975 473 
Q 1284 391 1588 391 
Q 1994 391 2212 530 
Q 2431 669 2431 922 
Q 2431 1156 2273 1281 
Q 2116 1406 1581 1522 
L 1381 1569 
Q 847 1681 609 1914 
Q 372 2147 372 2553 
Q 372 3047 722 3315 
Q 1072 3584 1716 3584 
Q 2034 3584 2315 3537 
Q 2597 3491 2834 3397 
z
" id="DejaVuSans-73" transform="scale(0.015625)"/>
       <path d="M 1625 4666 
L 2156 4666 
L 531 -594 
L 0 -594 
L 1625 4666 
z
" id="DejaVuSans-2f" transform="scale(0.015625)"/>
       <path d="M 2906 2969 
L 2906 4863 
L 3481 4863 
L 3481 0 
L 2906 0 
L 2906 525 
Q 2725 213 2448 61 
Q 2172 -91 1784 -91 
Q 1150 -91 751 415 
Q 353 922 353 1747 
Q 353 2572 751 3078 
Q 1150 3584 1784 3584 
Q 2172 3584 2448 3432 
Q 2725 3281 2906 2969 
z
M 947 1747 
Q 947 1113 1208 752 
Q 1469 391 1925 391 
Q 2381 391 2643 752 
Q 2906 1113 2906 1747 
Q 2906 2381 2643 2742 
Q 2381 3103 1925 3103 
Q 1469 3103 1208 2742 
Q 947 2381 947 1747 
z
" id="DejaVuSans-64" transform="scale(0.015625)"/>
       <path d="M 603 3500 
L 1178 3500 
L 1178 0 
L 603 0 
L 603 3500 
z
M 603 4863 
L 1178 4863 
L 1178 4134 
L 603 4134 
L 603 4863 
z
" id="DejaVuSans-69" transform="scale(0.015625)"/>
       <path d="M 3328 2828 
Q 3544 3216 3844 3400 
Q 4144 3584 4550 3584 
Q 5097 3584 5394 3201 
Q 5691 2819 5691 2113 
L 5691 0 
L 5113 0 
L 5113 2094 
Q 5113 2597 4934 2840 
Q 4756 3084 4391 3084 
Q 3944 3084 3684 2787 
Q 3425 2491 3425 1978 
L 3425 0 
L 2847 0 
L 2847 2094 
Q 2847 2600 2669 2842 
Q 2491 3084 2119 3084 
Q 1678 3084 1418 2786 
Q 1159 2488 1159 1978 
L 1159 0 
L 581 0 
L 581 3500 
L 1159 3500 
L 1159 2956 
Q 1356 3278 1631 3431 
Q 1906 3584 2284 3584 
Q 2666 3584 2933 3390 
Q 3200 3197 3328 2828 
z
" id="DejaVuSans-6d" transform="scale(0.015625)"/>
       <path d="M 3513 2113 
L 3513 0 
L 2938 0 
L 2938 2094 
Q 2938 2591 2744 2837 
Q 2550 3084 2163 3084 
Q 1697 3084 1428 2787 
Q 1159 2491 1159 1978 
L 1159 0 
L 581 0 
L 581 3500 
L 1159 3500 
L 1159 2956 
Q 1366 3272 1645 3428 
Q 1925 3584 2291 3584 
Q 2894 3584 3203 3211 
Q 3513 2838 3513 2113 
z
" id="DejaVuSans-6e" transform="scale(0.015625)"/>
       <path d="M 513 4856 
L 1013 4856 
Q 1481 4119 1714 3412 
Q 1947 2706 1947 2009 
Q 1947 1309 1714 600 
Q 1481 -109 1013 -844 
L 513 -844 
Q 928 -128 1133 580 
Q 1338 1288 1338 2009 
Q 1338 2731 1133 3434 
Q 928 4138 513 4856 
z
" id="DejaVuSans-29" transform="scale(0.015625)"/>
      </defs>
      <use xlink:href="#DejaVuSans-6c"/>
      <use x="27.783203" xlink:href="#DejaVuSans-6f"/>
      <use x="88.964844" xlink:href="#DejaVuSans-67"/>
      <use x="152.441406" xlink:href="#DejaVuSans-31"/>
      <use x="216.064453" xlink:href="#DejaVuSans-30"/>
      <use x="279.6875" xlink:href="#DejaVuSans-28"/>
      <use x="318.701172" xlink:href="#DejaVuSans-23"/>
      <use x="402.490234" xlink:href="#DejaVuSans-20"/>
      <use x="434.277344" xlink:href="#DejaVuSans-66"/>
      <use x="463.982422" xlink:href="#DejaVuSans-2d"/>
      <use x="500.066406" xlink:href="#DejaVuSans-65"/>
      <use x="561.589844" xlink:href="#DejaVuSans-76"/>
      <use x="620.769531" xlink:href="#DejaVuSans-61"/>
      <use x="682.048828" xlink:href="#DejaVuSans-6c"/>
      <use x="709.832031" xlink:href="#DejaVuSans-73"/>
      <use x="761.931641" xlink:href="#DejaVuSans-20"/>
      <use x="793.71875" xlink:href="#DejaVuSans-2f"/>
      <use x="827.410156" xlink:href="#DejaVuSans-20"/>
      <use x="859.197266" xlink:href="#DejaVuSans-64"/>
      <use x="922.673828" xlink:href="#DejaVuSans-69"/>
      <use x="950.457031" xlink:href="#DejaVuSans-6d"/>
      <use x="1047.869141" xlink:href="#DejaVuSans-65"/>
      <use x="1109.392578" xlink:href="#DejaVuSans-6e"/>
      <use x="1172.771484" xlink:href="#DejaVuSans-73"/>
      <use x="1224.871094" xlink:href="#DejaVuSans-69"/>
      <use x="1252.654297" xlink:href="#DejaVuSans-6f"/>
      <use x="1313.835938" xlink:href="#DejaVuSans-6e"/>
      <use x="1377.214844" xlink:href="#DejaVuSans-29"/>
     </g>
    </g>
   </g>
   <g id="matplotlib.axis_2">
    <g id="ytick_1">
     <g id="line2d_21">
      <path clip-path="url(#p6e8b065f0e)" d="M 57.6 298.944 
L 338.688 298.944 
" style="fill:none;stroke:#b0b0b0;stroke-linecap:square;stroke-width:0.8;"/>
     </g>
     <g id="line2d_22">
      <defs>
       <path d="M 0 0 
L -3.5 0 
" id="mdf55f42ce4" style="stroke:#000000;stroke-width:0.8;"/>
      </defs>
      <g>
       <use style="stroke:#000000;stroke-width:0.8;" x="57.6" xlink:href="#mdf55f42ce4" y="298.944"/>
      </g>
     </g>
     <g id="text_6">
      <!-- 0.0 -->
      <g transform="translate(25.155 305.02275)scale(0.16 -0.16)">
       <defs>
        <path d="M 684 794 
L 1344 794 
L 1344 0 
L 684 0 
L 684 794 
z
" id="DejaVuSans-2e" transform="scale(0.015625)"/>
       </defs>
       <use xlink:href="#DejaVuSans-30"/>
       <use x="63.623047" xlink:href="#DejaVuSans-2e"/>
       <use x="95.410156" xlink:href="#DejaVuSans-30"/>
      </g>
     </g>
    </g>
    <g id="ytick_2">
     <g id="line2d_23">
      <path clip-path="url(#p6e8b065f0e)" d="M 57.6 240.431525 
L 338.688 240.431525 
" style="fill:none;stroke:#b0b0b0;stroke-linecap:square;stroke-width:0.8;"/>
     </g>
     <g id="line2d_24">
      <g>
       <use style="stroke:#000000;stroke-width:0.8;" x="57.6" xlink:href="#mdf55f42ce4" y="240.431525"/>
      </g>
     </g>
     <g id="text_7">
      <!-- 0.2 -->
      <g transform="translate(25.155 246.510275)scale(0.16 -0.16)">
       <use xlink:href="#DejaVuSans-30"/>
       <use x="63.623047" xlink:href="#DejaVuSans-2e"/>
       <use x="95.410156" xlink:href="#DejaVuSans-32"/>
      </g>
     </g>
    </g>
    <g id="ytick_3">
     <g id="line2d_25">
      <path clip-path="url(#p6e8b065f0e)" d="M 57.6 181.91905 
L 338.688 181.91905 
" style="fill:none;stroke:#b0b0b0;stroke-linecap:square;stroke-width:0.8;"/>
     </g>
     <g id="line2d_26">
      <g>
       <use style="stroke:#000000;stroke-width:0.8;" x="57.6" xlink:href="#mdf55f42ce4" y="181.91905"/>
      </g>
     </g>
     <g id="text_8">
      <!-- 0.4 -->
      <g transform="translate(25.155 187.9978)scale(0.16 -0.16)">
       <use xlink:href="#DejaVuSans-30"/>
       <use x="63.623047" xlink:href="#DejaVuSans-2e"/>
       <use x="95.410156" xlink:href="#DejaVuSans-34"/>
      </g>
     </g>
    </g>
    <g id="ytick_4">
     <g id="line2d_27">
      <path clip-path="url(#p6e8b065f0e)" d="M 57.6 123.406574 
L 338.688 123.406574 
" style="fill:none;stroke:#b0b0b0;stroke-linecap:square;stroke-width:0.8;"/>
     </g>
     <g id="line2d_28">
      <g>
       <use style="stroke:#000000;stroke-width:0.8;" x="57.6" xlink:href="#mdf55f42ce4" y="123.406574"/>
      </g>
     </g>
     <g id="text_9">
      <!-- 0.6 -->
      <g transform="translate(25.155 129.485324)scale(0.16 -0.16)">
       <use xlink:href="#DejaVuSans-30"/>
       <use x="63.623047" xlink:href="#DejaVuSans-2e"/>
       <use x="95.410156" xlink:href="#DejaVuSans-36"/>
      </g>
     </g>
    </g>
    <g id="ytick_5">
     <g id="line2d_29">
      <path clip-path="url(#p6e8b065f0e)" d="M 57.6 64.894099 
L 338.688 64.894099 
" style="fill:none;stroke:#b0b0b0;stroke-linecap:square;stroke-width:0.8;"/>
     </g>
     <g id="line2d_30">
      <g>
       <use style="stroke:#000000;stroke-width:0.8;" x="57.6" xlink:href="#mdf55f42ce4" y="64.894099"/>
      </g>
     </g>
     <g id="text_10">
      <!-- 0.8 -->
      <g transform="translate(25.155 70.972849)scale(0.16 -0.16)">
       <defs>
        <path d="M 2034 2216 
Q 1584 2216 1326 1975 
Q 1069 1734 1069 1313 
Q 1069 891 1326 650 
Q 1584 409 2034 409 
Q 2484 409 2743 651 
Q 3003 894 3003 1313 
Q 3003 1734 2745 1975 
Q 2488 2216 2034 2216 
z
M 1403 2484 
Q 997 2584 770 2862 
Q 544 3141 544 3541 
Q 544 4100 942 4425 
Q 1341 4750 2034 4750 
Q 2731 4750 3128 4425 
Q 3525 4100 3525 3541 
Q 3525 3141 3298 2862 
Q 3072 2584 2669 2484 
Q 3125 2378 3379 2068 
Q 3634 1759 3634 1313 
Q 3634 634 3220 271 
Q 2806 -91 2034 -91 
Q 1263 -91 848 271 
Q 434 634 434 1313 
Q 434 1759 690 2068 
Q 947 2378 1403 2484 
z
M 1172 3481 
Q 1172 3119 1398 2916 
Q 1625 2713 2034 2713 
Q 2441 2713 2670 2916 
Q 2900 3119 2900 3481 
Q 2900 3844 2670 4047 
Q 2441 4250 2034 4250 
Q 1625 4250 1398 4047 
Q 1172 3844 1172 3481 
z
" id="DejaVuSans-38" transform="scale(0.015625)"/>
       </defs>
       <use xlink:href="#DejaVuSans-30"/>
       <use x="63.623047" xlink:href="#DejaVuSans-2e"/>
       <use x="95.410156" xlink:href="#DejaVuSans-38"/>
      </g>
     </g>
    </g>
    <g id="ytick_6">
     <g id="line2d_31">
      <path clip-path="url(#p6e8b065f0e)" d="M 57.6 6.381624 
L 338.688 6.381624 
" style="fill:none;stroke:#b0b0b0;stroke-linecap:square;stroke-width:0.8;"/>
     </g>
     <g id="line2d_32">
      <g>
       <use style="stroke:#000000;stroke-width:0.8;" x="57.6" xlink:href="#mdf55f42ce4" y="6.381624"/>
      </g>
     </g>
     <g id="text_11">
      <!-- 1.0 -->
      <g transform="translate(25.155 12.460374)scale(0.16 -0.16)">
       <use xlink:href="#DejaVuSans-31"/>
       <use x="63.623047" xlink:href="#DejaVuSans-2e"/>
       <use x="95.410156" xlink:href="#DejaVuSans-30"/>
      </g>
     </g>
    </g>
    <g id="text_12">
     <!-- Fraction of function,target pairs -->
     <g transform="translate(17.619531 285.585)rotate(-90)scale(0.17 -0.17)">
      <defs>
       <path d="M 628 4666 
L 3309 4666 
L 3309 4134 
L 1259 4134 
L 1259 2759 
L 3109 2759 
L 3109 2228 
L 1259 2228 
L 1259 0 
L 628 0 
L 628 4666 
z
" id="DejaVuSans-46" transform="scale(0.015625)"/>
       <path d="M 2631 2963 
Q 2534 3019 2420 3045 
Q 2306 3072 2169 3072 
Q 1681 3072 1420 2755 
Q 1159 2438 1159 1844 
L 1159 0 
L 581 0 
L 581 3500 
L 1159 3500 
L 1159 2956 
Q 1341 3275 1631 3429 
Q 1922 3584 2338 3584 
Q 2397 3584 2469 3576 
Q 2541 3569 2628 3553 
L 2631 2963 
z
" id="DejaVuSans-72" transform="scale(0.015625)"/>
       <path d="M 3122 3366 
L 3122 2828 
Q 2878 2963 2633 3030 
Q 2388 3097 2138 3097 
Q 1578 3097 1268 2742 
Q 959 2388 959 1747 
Q 959 1106 1268 751 
Q 1578 397 2138 397 
Q 2388 397 2633 464 
Q 2878 531 3122 666 
L 3122 134 
Q 2881 22 2623 -34 
Q 2366 -91 2075 -91 
Q 1284 -91 818 406 
Q 353 903 353 1747 
Q 353 2603 823 3093 
Q 1294 3584 2113 3584 
Q 2378 3584 2631 3529 
Q 2884 3475 3122 3366 
z
" id="DejaVuSans-63" transform="scale(0.015625)"/>
       <path d="M 1172 4494 
L 1172 3500 
L 2356 3500 
L 2356 3053 
L 1172 3053 
L 1172 1153 
Q 1172 725 1289 603 
Q 1406 481 1766 481 
L 2356 481 
L 2356 0 
L 1766 0 
Q 1100 0 847 248 
Q 594 497 594 1153 
L 594 3053 
L 172 3053 
L 172 3500 
L 594 3500 
L 594 4494 
L 1172 4494 
z
" id="DejaVuSans-74" transform="scale(0.015625)"/>
       <path d="M 544 1381 
L 544 3500 
L 1119 3500 
L 1119 1403 
Q 1119 906 1312 657 
Q 1506 409 1894 409 
Q 2359 409 2629 706 
Q 2900 1003 2900 1516 
L 2900 3500 
L 3475 3500 
L 3475 0 
L 2900 0 
L 2900 538 
Q 2691 219 2414 64 
Q 2138 -91 1772 -91 
Q 1169 -91 856 284 
Q 544 659 544 1381 
z
M 1991 3584 
L 1991 3584 
z
" id="DejaVuSans-75" transform="scale(0.015625)"/>
       <path d="M 750 794 
L 1409 794 
L 1409 256 
L 897 -744 
L 494 -744 
L 750 256 
L 750 794 
z
" id="DejaVuSans-2c" transform="scale(0.015625)"/>
       <path d="M 1159 525 
L 1159 -1331 
L 581 -1331 
L 581 3500 
L 1159 3500 
L 1159 2969 
Q 1341 3281 1617 3432 
Q 1894 3584 2278 3584 
Q 2916 3584 3314 3078 
Q 3713 2572 3713 1747 
Q 3713 922 3314 415 
Q 2916 -91 2278 -91 
Q 1894 -91 1617 61 
Q 1341 213 1159 525 
z
M 3116 1747 
Q 3116 2381 2855 2742 
Q 2594 3103 2138 3103 
Q 1681 3103 1420 2742 
Q 1159 2381 1159 1747 
Q 1159 1113 1420 752 
Q 1681 391 2138 391 
Q 2594 391 2855 752 
Q 3116 1113 3116 1747 
z
" id="DejaVuSans-70" transform="scale(0.015625)"/>
      </defs>
      <use xlink:href="#DejaVuSans-46"/>
      <use x="50.269531" xlink:href="#DejaVuSans-72"/>
      <use x="91.382812" xlink:href="#DejaVuSans-61"/>
      <use x="152.662109" xlink:href="#DejaVuSans-63"/>
      <use x="207.642578" xlink:href="#DejaVuSans-74"/>
      <use x="246.851562" xlink:href="#DejaVuSans-69"/>
      <use x="274.634766" xlink:href="#DejaVuSans-6f"/>
      <use x="335.816406" xlink:href="#DejaVuSans-6e"/>
      <use x="399.195312" xlink:href="#DejaVuSans-20"/>
      <use x="430.982422" xlink:href="#DejaVuSans-6f"/>
      <use x="492.164062" xlink:href="#DejaVuSans-66"/>
      <use x="527.369141" xlink:href="#DejaVuSans-20"/>
      <use x="559.15625" xlink:href="#DejaVuSans-66"/>
      <use x="594.361328" xlink:href="#DejaVuSans-75"/>
      <use x="657.740234" xlink:href="#DejaVuSans-6e"/>
      <use x="721.119141" xlink:href="#DejaVuSans-63"/>
      <use x="776.099609" xlink:href="#DejaVuSans-74"/>
      <use x="815.308594" xlink:href="#DejaVuSans-69"/>
      <use x="843.091797" xlink:href="#DejaVuSans-6f"/>
      <use x="904.273438" xlink:href="#DejaVuSans-6e"/>
      <use x="967.652344" xlink:href="#DejaVuSans-2c"/>
      <use x="999.439453" xlink:href="#DejaVuSans-74"/>
      <use x="1038.648438" xlink:href="#DejaVuSans-61"/>
      <use x="1099.927734" xlink:href="#DejaVuSans-72"/>
      <use x="1139.291016" xlink:href="#DejaVuSans-67"/>
      <use x="1202.767578" xlink:href="#DejaVuSans-65"/>
      <use x="1264.291016" xlink:href="#DejaVuSans-74"/>
      <use x="1303.5" xlink:href="#DejaVuSans-20"/>
      <use x="1335.287109" xlink:href="#DejaVuSans-70"/>
      <use x="1398.763672" xlink:href="#DejaVuSans-61"/>
      <use x="1460.042969" xlink:href="#DejaVuSans-69"/>
      <use x="1487.826172" xlink:href="#DejaVuSans-72"/>
      <use x="1528.939453" xlink:href="#DejaVuSans-73"/>
     </g>
    </g>
   </g>
   <g id="line2d_33">
    <defs>
     <path d="M 0 1.5 
C 0.397805 1.5 0.77937 1.341951 1.06066 1.06066 
C 1.341951 0.77937 1.5 0.397805 1.5 0 
C 1.5 -0.397805 1.341951 -0.77937 1.06066 -1.06066 
C 0.77937 -1.341951 0.397805 -1.5 0 -1.5 
C -0.397805 -1.5 -0.77937 -1.341951 -1.06066 -1.06066 
C -1.341951 -0.77937 -1.5 -0.397805 -1.5 0 
C -1.5 0.397805 -1.341951 0.77937 -1.06066 1.06066 
C -0.77937 1.341951 -0.397805 1.5 0 1.5 
z
" id="m4c6dbf36b3" style="stroke:#f5deb3;"/>
    </defs>
    <g>
     <use style="fill:#f5deb3;stroke:#f5deb3;" x="333.698792" xlink:href="#m4c6dbf36b3" y="46.537244"/>
     <use style="fill:#f5deb3;stroke:#f5deb3;" x="333.698792" xlink:href="#m4c6dbf36b3" y="46.537244"/>
    </g>
   </g>
   <g id="line2d_34">
    <defs>
     <path d="M 0 1.5 
C 0.397805 1.5 0.77937 1.341951 1.06066 1.06066 
C 1.341951 0.77937 1.5 0.397805 1.5 0 
C 1.5 -0.397805 1.341951 -0.77937 1.06066 -1.06066 
C 0.77937 -1.341951 0.397805 -1.5 0 -1.5 
C -0.397805 -1.5 -0.77937 -1.341951 -1.06066 -1.06066 
C -1.341951 -0.77937 -1.5 -0.397805 -1.5 0 
C -1.5 0.397805 -1.341951 0.77937 -1.06066 1.06066 
C -0.77937 1.341951 -0.397805 1.5 0 1.5 
z
" id="m7d5e82dfeb" style="stroke:#000080;"/>
    </defs>
    <g>
     <use style="fill:#000080;stroke:#000080;" x="213.45643" xlink:href="#m7d5e82dfeb" y="280.587145"/>
     <use style="fill:#000080;stroke:#000080;" x="213.45643" xlink:href="#m7d5e82dfeb" y="280.587145"/>
    </g>
   </g>
   <g id="line2d_35">
    <path d="M -1 291.142337 
L 5.356583 291.142337 
L 5.356583 290.912876 
L 17.444571 290.912876 
L 17.444571 290.568685 
L 24.515591 290.568685 
L 24.515591 290.453955 
L 29.53256 290.453955 
L 29.53256 290.339224 
L 33.424023 290.339224 
L 33.424023 290.224494 
L 36.60358 290.224494 
L 36.60358 290.109764 
L 39.291857 290.109764 
L 39.291857 289.995033 
L 47.949359 289.995033 
L 47.949359 289.880303 
L 55.271309 289.880303 
L 55.271309 289.765573 
L 60.779557 289.765573 
L 60.779557 289.650842 
L 62.507631 289.650842 
L 62.507631 289.536112 
L 67.850577 289.536112 
L 67.850577 289.421381 
L 69.687988 289.421381 
L 69.687988 289.306651 
L 71.150821 289.306651 
L 71.150821 289.191921 
L 95.426737 289.191921 
L 95.426737 289.07719 
L 96.158563 289.07719 
L 96.158563 288.96246 
L 97.403108 288.96246 
L 97.403108 288.84773 
L 108.741149 288.84773 
L 108.741149 288.732999 
L 112.412953 288.732999 
L 112.412953 288.618269 
L 115.757901 288.618269 
L 115.757901 288.503539 
L 128.138476 288.503539 
L 128.138476 288.388808 
L 130.011737 288.388808 
L 130.011737 288.159348 
L 130.127931 288.159348 
L 130.127931 288.044617 
L 131.882719 288.044617 
L 131.882719 287.929887 
L 132.841492 287.929887 
L 132.841492 287.815157 
L 133.527491 287.815157 
L 133.566687 287.585696 
L 134.122634 287.585696 
L 134.219879 287.356235 
L 135.173827 287.356235 
L 135.173827 287.241505 
L 135.691441 287.241505 
L 135.691441 287.126775 
L 136.437776 287.126775 
L 136.437776 287.012044 
L 137.271464 287.012044 
L 137.271464 286.897314 
L 137.455913 286.897314 
L 137.455913 286.782584 
L 137.770782 286.782584 
L 137.875944 286.208932 
L 138.485501 286.208932 
L 138.485501 286.094202 
L 138.877599 286.094202 
L 138.877599 285.979471 
L 139.017278 285.979471 
L 139.102995 285.75001 
L 139.465655 285.75001 
L 139.465655 285.63528 
L 140.992041 285.63528 
L 141.075875 285.291089 
L 141.141205 285.291089 
L 141.181008 285.061628 
L 141.367949 285.061628 
L 141.425068 284.602707 
L 141.69386 284.602707 
L 141.69386 284.487977 
L 145.550895 284.487977 
L 145.550895 284.373246 
L 151.349063 284.373246 
L 151.349063 284.258516 
L 152.137948 284.258516 
L 152.137948 284.143786 
L 153.834414 284.143786 
L 153.834414 284.029055 
L 153.996365 284.029055 
L 153.996365 283.799595 
L 154.580996 283.799595 
L 154.580996 283.684864 
L 159.68074 283.684864 
L 159.68074 283.570134 
L 159.90822 283.570134 
L 159.90822 283.340673 
L 160.400152 283.340673 
L 160.400152 283.225943 
L 160.873914 283.225943 
L 160.873914 283.111213 
L 160.995012 283.111213 
L 161.006612 282.767022 
L 161.119885 282.767022 
L 161.119885 282.652291 
L 166.078286 282.652291 
L 166.078286 282.422831 
L 169.959516 282.422831 
L 170.00249 281.963909 
L 172.666124 281.963909 
L 172.666124 281.849179 
L 173.198077 281.849179 
L 173.251023 281.504988 
L 175.6792 281.504988 
L 175.6792 281.390257 
L 178.243697 281.390257 
L 178.243697 281.275527 
L 180.479353 281.275527 
L 180.479353 281.160797 
L 183.823842 281.160797 
L 183.823842 281.046066 
L 191.434343 281.046066 
L 191.434343 280.931336 
L 193.378281 280.931336 
L 193.378281 280.816606 
L 195.931719 280.816606 
L 195.931719 280.701875 
L 213.45643 280.701875 
L 213.45643 280.587145 
L 338.688 280.587145 
L 338.688 280.587145 
" style="fill:none;stroke:#000080;stroke-linecap:square;stroke-width:1.5;"/>
   </g>
   <g id="line2d_36">
    <defs>
     <path d="M 0 6 
C 1.591219 6 3.117479 5.367802 4.242641 4.242641 
C 5.367802 3.117479 6 1.591219 6 0 
C 6 -1.591219 5.367802 -3.117479 4.242641 -4.242641 
C 3.117479 -5.367802 1.591219 -6 0 -6 
C -1.591219 -6 -3.117479 -5.367802 -4.242641 -4.242641 
C -5.367802 -3.117479 -6 -1.591219 -6 0 
C -6 1.591219 -5.367802 3.117479 -4.242641 4.242641 
C -3.117479 5.367802 -1.591219 6 0 6 
z
" id="m2efb811849" style="stroke:#000080;stroke-width:1.5;"/>
    </defs>
    <g>
     <use style="fill-opacity:0;stroke:#000080;stroke-width:1.5;" x="71.150821" xlink:href="#m2efb811849" y="289.306651"/>
     <use style="fill-opacity:0;stroke:#000080;stroke-width:1.5;" x="145.550895" xlink:href="#m2efb811849" y="284.373246"/>
     <use style="fill-opacity:0;stroke:#000080;stroke-width:1.5;" x="213.45643" xlink:href="#m2efb811849" y="280.701875"/>
     <use style="fill-opacity:0;stroke:#000080;stroke-width:1.5;" x="213.45643" xlink:href="#m2efb811849" y="280.587145"/>
     <use style="fill-opacity:0;stroke:#000080;stroke-width:1.5;" x="213.45643" xlink:href="#m2efb811849" y="280.587145"/>
     <use style="fill-opacity:0;stroke:#000080;stroke-width:1.5;" x="338.688" xlink:href="#m2efb811849" y="280.587145"/>
    </g>
   </g>
   <g id="line2d_37">
    <path style="fill:none;stroke:#000080;stroke-linecap:square;stroke-width:1.5;"/>
    <g/>
   </g>
   <g id="line2d_38">
    <path clip-path="url(#p6e8b065f0e)" d="M 142.065403 284.487977 
" style="fill:none;stroke:#000080;stroke-linecap:square;stroke-width:1.5;"/>
    <defs>
     <path d="M -12 12 
L 12 -12 
M -12 -12 
L 12 12 
" id="m020b185491" style="stroke:#000080;"/>
    </defs>
    <g clip-path="url(#p6e8b065f0e)">
     <use style="fill:#000080;stroke:#000080;" x="142.065403" xlink:href="#m020b185491" y="284.487977"/>
    </g>
   </g>
   <g id="line2d_39">
    <defs>
     <path d="M 0 1.5 
C 0.397805 1.5 0.77937 1.341951 1.06066 1.06066 
C 1.341951 0.77937 1.5 0.397805 1.5 0 
C 1.5 -0.397805 1.341951 -0.77937 1.06066 -1.06066 
C 0.77937 -1.341951 0.397805 -1.5 0 -1.5 
C -0.397805 -1.5 -0.77937 -1.341951 -1.06066 -1.06066 
C -1.341951 -0.77937 -1.5 -0.397805 -1.5 0 
C -1.5 0.397805 -1.341951 0.77937 -1.06066 1.06066 
C -0.77937 1.341951 -0.397805 1.5 0 1.5 
z
" id="m6886353a8f" style="stroke:#ff00ff;"/>
    </defs>
    <g>
     <use style="fill:#ff00ff;stroke:#ff00ff;" x="213.451502" xlink:href="#m6886353a8f" y="259.935683"/>
     <use style="fill:#ff00ff;stroke:#ff00ff;" x="213.451502" xlink:href="#m6886353a8f" y="259.935683"/>
    </g>
   </g>
   <g id="line2d_40">
    <path d="M -1 291.142337 
L 5.356583 291.142337 
L 5.356583 290.798146 
L 12.427603 290.798146 
L 12.427603 290.683415 
L 17.444571 290.683415 
L 17.444571 290.453955 
L 29.53256 290.453955 
L 29.53256 290.339224 
L 35.086164 290.339224 
L 35.086164 289.995033 
L 39.291857 289.995033 
L 39.291857 289.880303 
L 46.362877 289.880303 
L 46.362877 289.765573 
L 56.705482 289.765573 
L 56.705482 289.650842 
L 58.450865 289.650842 
L 58.450865 289.536112 
L 90.965519 289.536112 
L 90.965519 289.421381 
L 91.782644 289.421381 
L 91.782644 289.306651 
L 92.73846 289.306651 
L 92.73846 289.191921 
L 93.918378 289.191921 
L 93.918378 289.07719 
L 96.206276 289.07719 
L 96.206276 288.96246 
L 99.097574 288.96246 
L 99.097574 288.84773 
L 101.576995 288.84773 
L 101.576995 288.732999 
L 101.820418 288.732999 
L 101.820418 288.618269 
L 102.924327 288.618269 
L 102.924327 288.503539 
L 103.213649 288.503539 
L 103.213649 288.388808 
L 103.372333 288.388808 
L 103.372333 288.274078 
L 103.498249 288.274078 
L 103.498249 288.159348 
L 103.901308 288.159348 
L 103.901308 288.044617 
L 104.084239 288.044617 
L 104.144793 287.815157 
L 106.114686 287.815157 
L 106.114686 287.700426 
L 106.724791 287.700426 
L 106.724791 287.585696 
L 108.294265 287.585696 
L 108.294265 287.470966 
L 108.41298 287.470966 
L 108.41298 287.356235 
L 108.833788 287.356235 
L 108.833788 287.241505 
L 110.735755 287.241505 
L 110.818406 287.012044 
L 111.165366 287.012044 
L 111.165366 286.897314 
L 111.525364 286.897314 
L 111.525364 286.782584 
L 111.643731 286.782584 
L 111.643731 286.667853 
L 112.39413 286.667853 
L 112.39413 286.553123 
L 112.600071 286.553123 
L 112.600071 286.438393 
L 113.095487 286.438393 
L 113.13163 286.208932 
L 113.382559 286.208932 
L 113.382559 286.094202 
L 113.664983 286.094202 
L 113.664983 285.979471 
L 115.189693 285.979471 
L 115.189693 285.864741 
L 115.444518 285.864741 
L 115.444518 285.75001 
L 115.973966 285.75001 
L 115.973966 285.63528 
L 116.187386 285.63528 
L 116.247887 285.405819 
L 116.502698 285.405819 
L 116.502698 285.291089 
L 116.695072 285.291089 
L 116.695072 285.176359 
L 118.243121 285.176359 
L 118.323734 284.946898 
L 118.470564 284.946898 
L 118.470564 284.832168 
L 118.602981 284.832168 
L 118.602981 284.717437 
L 119.16119 284.717437 
L 119.16119 284.602707 
L 119.389655 284.602707 
L 119.40226 284.373246 
L 119.923616 284.373246 
L 119.960266 284.143786 
L 120.045484 284.143786 
L 120.045484 284.029055 
L 120.226704 284.029055 
L 120.226704 283.914325 
L 120.724326 283.914325 
L 120.724326 283.799595 
L 121.013926 283.799595 
L 121.071273 283.570134 
L 121.343945 283.570134 
L 121.343945 283.455404 
L 121.523386 283.455404 
L 121.523386 283.340673 
L 122.383281 283.340673 
L 122.436305 283.111213 
L 123.573718 283.111213 
L 123.573718 282.996482 
L 124.130182 282.996482 
L 124.197312 282.767022 
L 124.264184 282.767022 
L 124.264184 282.652291 
L 125.129119 282.652291 
L 125.129119 282.537561 
L 125.309651 282.537561 
L 125.309651 282.422831 
L 125.779216 282.422831 
L 125.831586 282.078639 
L 126.270496 282.078639 
L 126.372183 281.849179 
L 127.508774 281.849179 
L 127.508774 281.734448 
L 128.161367 281.734448 
L 128.214663 281.504988 
L 128.724094 281.504988 
L 128.724094 281.390257 
L 129.418863 281.390257 
L 129.51791 281.160797 
L 129.818655 281.160797 
L 129.88095 280.701875 
L 129.936138 280.701875 
L 129.936138 280.587145 
L 130.182344 280.587145 
L 130.182344 280.472415 
L 130.511968 280.472415 
L 130.538603 280.242954 
L 130.677773 280.242954 
L 130.677773 280.128224 
L 131.217209 280.128224 
L 131.217209 279.784033 
L 131.439773 279.784033 
L 131.439773 279.669302 
L 131.690703 279.669302 
L 131.690703 279.554572 
L 131.833369 279.554572 
L 131.895035 279.325111 
L 132.278599 279.325111 
L 132.278599 279.210381 
L 132.416555 279.210381 
L 132.494049 278.98092 
L 132.92293 278.98092 
L 132.963507 278.75146 
L 133.267705 278.75146 
L 133.358505 278.292538 
L 133.420657 278.292538 
L 133.482588 277.948347 
L 133.672633 277.948347 
L 133.672633 277.718886 
L 134.182126 277.718886 
L 134.241416 277.489426 
L 134.300504 277.489426 
L 134.300504 277.259965 
L 134.518998 277.259965 
L 134.518998 277.145235 
L 134.859876 277.145235 
L 134.916909 276.456853 
L 135.351444 276.456853 
L 135.351444 276.342122 
L 135.487237 276.342122 
L 135.487237 276.227392 
L 136.165244 276.227392 
L 136.256562 275.997931 
L 136.706114 275.997931 
L 136.706114 275.883201 
L 137.735587 275.883201 
L 137.735587 275.768471 
L 138.409402 275.768471 
L 138.409402 275.65374 
L 138.60322 275.65374 
L 138.649251 275.42428 
L 138.980413 275.42428 
L 138.980413 275.309549 
L 139.325515 275.309549 
L 139.325515 275.194819 
L 139.592804 275.194819 
L 139.592804 275.080089 
L 139.836549 275.080089 
L 139.836549 274.965358 
L 140.287441 274.965358 
L 140.287441 274.850628 
L 140.484155 274.850628 
L 140.484155 274.621167 
L 140.749212 274.621167 
L 140.749212 274.506437 
L 141.51749 274.506437 
L 141.51749 274.391706 
L 141.683328 274.391706 
L 141.697369 274.162246 
L 143.458119 274.162246 
L 143.458119 274.047515 
L 146.882826 274.047515 
L 146.882826 273.932785 
L 147.203059 273.932785 
L 147.203059 273.818055 
L 147.672645 273.818055 
L 147.672645 273.703324 
L 148.549469 273.703324 
L 148.549469 273.588594 
L 148.929057 273.588594 
L 148.929057 273.359133 
L 149.143293 273.359133 
L 149.143293 273.244403 
L 149.467659 273.244403 
L 149.467659 273.129673 
L 149.849978 273.129673 
L 149.849978 273.014942 
L 150.139967 273.014942 
L 150.198253 272.785482 
L 150.294965 272.785482 
L 150.294965 272.556021 
L 150.482555 272.556021 
L 150.539708 272.0971 
L 150.596675 272.0971 
L 150.596675 271.982369 
L 150.774811 271.982369 
L 150.785233 271.752909 
L 151.336954 271.752909 
L 151.336954 271.638178 
L 151.708484 271.638178 
L 151.708484 271.523448 
L 151.834513 271.523448 
L 151.834513 271.408718 
L 151.975216 271.408718 
L 151.975216 271.293987 
L 152.257093 271.293987 
L 152.364012 270.835066 
L 152.384938 270.835066 
L 152.384938 270.720335 
L 152.555208 270.720335 
L 152.577785 270.490875 
L 152.781537 270.490875 
L 152.82052 270.261414 
L 152.935107 270.261414 
L 152.935107 270.146684 
L 153.149313 270.146684 
L 153.243677 269.917223 
L 153.371703 269.917223 
L 153.371703 269.802493 
L 153.722083 269.802493 
L 153.748475 269.573032 
L 156.422933 269.573032 
L 156.422933 269.458302 
L 157.148166 269.458302 
L 157.148166 269.343571 
L 157.967726 269.343571 
L 157.967726 269.114111 
L 158.092887 269.114111 
L 158.195371 268.76992 
L 158.475141 268.76992 
L 158.555401 268.310998 
L 158.603381 268.310998 
L 158.648574 268.081538 
L 158.771596 268.081538 
L 158.78609 267.852077 
L 159.064393 267.852077 
L 159.064393 267.737347 
L 159.30128 267.737347 
L 159.30128 267.622616 
L 159.422338 267.622616 
L 159.422338 267.507886 
L 159.618067 267.507886 
L 159.618067 267.393156 
L 160.070482 267.393156 
L 160.082713 266.934234 
L 160.470846 266.934234 
L 160.470846 266.819504 
L 160.61731 266.819504 
L 160.61731 266.704773 
L 163.607701 266.704773 
L 163.648609 266.475313 
L 163.765812 266.475313 
L 163.765812 266.360582 
L 164.039833 266.360582 
L 164.062232 266.131122 
L 164.205678 266.131122 
L 164.205678 266.016391 
L 164.362309 266.016391 
L 164.362309 265.901661 
L 164.486229 265.901661 
L 164.486229 265.786931 
L 164.730522 265.786931 
L 164.730522 265.6722 
L 165.391288 265.6722 
L 165.451605 265.44274 
L 167.999765 265.44274 
L 167.999765 265.213279 
L 168.589172 265.213279 
L 168.636403 264.869088 
L 169.356543 264.869088 
L 169.356543 264.754358 
L 171.161452 264.754358 
L 171.161452 264.639627 
L 171.3963 264.639627 
L 171.3963 264.524897 
L 172.027673 264.524897 
L 172.027673 264.410167 
L 172.351938 264.410167 
L 172.38639 264.180706 
L 172.622692 264.180706 
L 172.699962 263.951245 
L 174.605444 263.951245 
L 174.605444 263.836515 
L 174.900675 263.836515 
L 174.900675 263.721785 
L 175.438578 263.721785 
L 175.438578 263.607054 
L 177.045103 263.607054 
L 177.045103 263.492324 
L 177.336204 263.492324 
L 177.336204 263.262863 
L 177.701949 263.262863 
L 177.804928 263.033402 
L 177.832345 263.033402 
L 177.832345 262.918672 
L 179.274703 262.918672 
L 179.274703 262.803942 
L 179.770389 262.803942 
L 179.770389 262.689211 
L 179.913722 262.689211 
L 179.913722 262.574481 
L 181.469299 262.574481 
L 181.565521 262.23029 
L 181.643113 262.23029 
L 181.666891 262.000829 
L 182.883194 262.000829 
L 182.883194 261.886099 
L 183.047795 261.886099 
L 183.047795 261.771369 
L 183.352134 261.771369 
L 183.451024 261.427178 
L 184.485848 261.427178 
L 184.485848 261.312447 
L 184.89202 261.312447 
L 184.89202 261.197717 
L 186.214787 261.197717 
L 186.309888 260.968256 
L 186.337585 260.968256 
L 186.337585 260.853526 
L 188.859369 260.853526 
L 188.859369 260.738796 
L 192.047337 260.738796 
L 192.067274 260.509335 
L 197.119612 260.509335 
L 197.119612 260.394605 
L 200.438123 260.394605 
L 200.438123 260.279874 
L 201.53467 260.279874 
L 201.53467 260.165144 
L 202.163061 260.165144 
L 202.163061 260.050414 
L 213.451502 260.050414 
L 213.451502 259.935683 
L 338.688 259.935683 
L 338.688 259.935683 
" style="fill:none;stroke:#ff00ff;stroke-linecap:square;stroke-width:1.5;"/>
   </g>
   <g id="line2d_41">
    <defs>
     <path d="M 0 8.485281 
L 5.091169 0 
L 0 -8.485281 
L -5.091169 0 
z
" id="m1d36722266" style="stroke:#ff00ff;stroke-linejoin:miter;stroke-width:1.5;"/>
    </defs>
    <g>
     <use style="fill-opacity:0;stroke:#ff00ff;stroke-linejoin:miter;stroke-width:1.5;" x="134.916909" xlink:href="#m1d36722266" y="276.686313"/>
     <use style="fill-opacity:0;stroke:#ff00ff;stroke-linejoin:miter;stroke-width:1.5;" x="202.163061" xlink:href="#m1d36722266" y="260.165144"/>
     <use style="fill-opacity:0;stroke:#ff00ff;stroke-linejoin:miter;stroke-width:1.5;" x="213.451502" xlink:href="#m1d36722266" y="259.935683"/>
     <use style="fill-opacity:0;stroke:#ff00ff;stroke-linejoin:miter;stroke-width:1.5;" x="213.451502" xlink:href="#m1d36722266" y="259.935683"/>
     <use style="fill-opacity:0;stroke:#ff00ff;stroke-linejoin:miter;stroke-width:1.5;" x="338.688" xlink:href="#m1d36722266" y="259.935683"/>
    </g>
   </g>
   <g id="line2d_42">
    <path style="fill:none;stroke:#ff00ff;stroke-linecap:square;stroke-width:1.5;"/>
    <g/>
   </g>
   <g id="line2d_43">
    <path clip-path="url(#p6e8b065f0e)" d="M 141.80232 274.162246 
" style="fill:none;stroke:#ff00ff;stroke-linecap:square;stroke-width:1.5;"/>
    <defs>
     <path d="M -12 12 
L 12 -12 
M -12 -12 
L 12 12 
" id="m628377efc2" style="stroke:#ff00ff;"/>
    </defs>
    <g clip-path="url(#p6e8b065f0e)">
     <use style="fill:#ff00ff;stroke:#ff00ff;" x="141.80232" xlink:href="#m628377efc2" y="274.162246"/>
    </g>
   </g>
   <g id="line2d_44">
    <defs>
     <path d="M 0 1.5 
C 0.397805 1.5 0.77937 1.341951 1.06066 1.06066 
C 1.341951 0.77937 1.5 0.397805 1.5 0 
C 1.5 -0.397805 1.341951 -0.77937 1.06066 -1.06066 
C 0.77937 -1.341951 0.397805 -1.5 0 -1.5 
C -0.397805 -1.5 -0.77937 -1.341951 -1.06066 -1.06066 
C -1.341951 -0.77937 -1.5 -0.397805 -1.5 0 
C -1.5 0.397805 -1.341951 0.77937 -1.06066 1.06066 
C -0.77937 1.341951 -0.397805 1.5 0 1.5 
z
" id="m617a23bef3" style="stroke:#ff7500;"/>
    </defs>
    <g>
     <use style="fill:#ff7500;stroke:#ff7500;" x="206.504099" xlink:href="#m617a23bef3" y="257.641076"/>
     <use style="fill:#ff7500;stroke:#ff7500;" x="206.504099" xlink:href="#m617a23bef3" y="257.641076"/>
    </g>
   </g>
   <g id="line2d_45">
    <path d="M -1 290.912876 
L 5.356583 290.912876 
L 5.356583 290.798146 
L 12.427603 290.798146 
L 12.427603 290.339224 
L 24.515591 290.339224 
L 24.515591 290.224494 
L 31.586611 290.224494 
L 31.586611 290.109764 
L 35.086164 290.109764 
L 35.086164 289.995033 
L 42.677798 289.995033 
L 42.677798 289.880303 
L 43.6746 289.880303 
L 43.6746 289.765573 
L 45.512012 289.765573 
L 45.512012 289.650842 
L 54.245172 289.650842 
L 54.245172 289.536112 
L 57.6 289.536112 
L 57.6 289.421381 
L 69.687988 289.421381 
L 69.687988 289.306651 
L 80.766348 289.306651 
L 80.766348 289.191921 
L 83.536924 289.191921 
L 83.536924 289.07719 
L 86.435063 289.07719 
L 86.435063 288.96246 
L 93.754628 288.96246 
L 93.754628 288.84773 
L 106.195485 288.84773 
L 106.195485 288.732999 
L 108.856871 288.732999 
L 108.856871 288.618269 
L 111.465878 288.618269 
L 111.465878 288.503539 
L 111.761299 288.503539 
L 111.761299 288.388808 
L 111.955503 288.388808 
L 111.955503 288.274078 
L 113.04113 288.274078 
L 113.077387 288.044617 
L 113.346933 288.044617 
L 113.346933 287.929887 
L 114.351658 287.929887 
L 114.351658 287.815157 
L 115.539126 287.815157 
L 115.539126 287.700426 
L 115.742365 287.700426 
L 115.804426 287.470966 
L 116.98695 287.470966 
L 116.98695 287.356235 
L 117.542433 287.356235 
L 117.542433 287.241505 
L 117.971687 287.241505 
L 117.971687 287.126775 
L 118.457267 287.126775 
L 118.550135 286.897314 
L 119.212219 286.897314 
L 119.212219 286.782584 
L 119.640044 286.782584 
L 119.640044 286.667853 
L 119.813201 286.667853 
L 119.813201 286.553123 
L 120.093994 286.553123 
L 120.093994 286.438393 
L 120.406061 286.438393 
L 120.406061 286.323662 
L 120.677541 286.323662 
L 120.677541 286.208932 
L 120.956389 286.208932 
L 120.990934 285.979471 
L 121.756135 285.979471 
L 121.756135 285.864741 
L 122.126502 285.864741 
L 122.126502 285.75001 
L 122.657258 285.75001 
L 122.657258 285.63528 
L 122.834096 285.63528 
L 122.834096 285.52055 
L 123.050097 285.52055 
L 123.121507 285.291089 
L 123.868806 285.291089 
L 123.868806 285.176359 
L 124.387699 285.176359 
L 124.387699 285.061628 
L 124.604105 285.061628 
L 124.604105 284.946898 
L 125.147256 284.946898 
L 125.237662 284.602707 
L 125.372399 284.602707 
L 125.372399 284.487977 
L 125.49722 284.487977 
L 125.49722 284.373246 
L 125.752972 284.373246 
L 125.840299 284.029055 
L 125.98776 284.029055 
L 125.98776 283.914325 
L 126.099688 283.914325 
L 126.099688 283.799595 
L 126.278992 283.799595 
L 126.321413 283.570134 
L 127.277682 283.570134 
L 127.277682 283.455404 
L 127.524599 283.455404 
L 127.532507 283.225943 
L 127.938816 283.225943 
L 127.946538 282.996482 
L 128.054283 282.996482 
L 128.15374 282.652291 
L 129.045969 282.652291 
L 129.103859 282.3081 
L 129.440135 282.3081 
L 129.440135 282.19337 
L 129.763094 282.19337 
L 129.763094 282.078639 
L 129.977414 282.078639 
L 130.066513 281.619718 
L 130.710746 281.619718 
L 130.710746 281.504988 
L 131.004728 281.504988 
L 131.004728 281.390257 
L 131.325666 281.390257 
L 131.363785 281.160797 
L 131.521722 281.160797 
L 131.521722 281.046066 
L 132.06655 281.046066 
L 132.06655 280.931336 
L 132.206187 280.931336 
L 132.290639 280.701875 
L 132.374684 280.701875 
L 132.374684 280.587145 
L 132.612604 280.587145 
L 132.718618 280.128224 
L 132.777237 280.128224 
L 132.882259 279.784033 
L 132.969296 279.784033 
L 133.067415 279.439842 
L 133.164986 279.439842 
L 133.164986 279.325111 
L 133.335849 279.325111 
L 133.426296 278.86619 
L 133.460093 278.86619 
L 133.460093 278.521999 
L 133.705957 278.521999 
L 133.717051 278.292538 
L 133.953874 278.292538 
L 134.057501 277.948347 
L 134.111795 277.948347 
L 134.149701 277.718886 
L 134.348701 277.718886 
L 134.434058 277.489426 
L 134.587709 277.489426 
L 134.587709 276.915774 
L 134.771365 276.915774 
L 134.854682 276.456853 
L 134.978916 276.456853 
L 135.081772 276.227392 
L 135.148305 276.227392 
L 135.255248 275.65374 
L 135.386751 275.65374 
L 135.487237 274.850628 
L 135.532268 274.850628 
L 135.602085 274.506437 
L 135.731008 274.506437 
L 135.834447 273.932785 
L 135.883489 273.932785 
L 135.990898 273.014942 
L 135.995765 273.014942 
L 135.995765 272.900212 
L 136.13148 272.900212 
L 136.13148 272.785482 
L 136.294869 272.785482 
L 136.304433 272.556021 
L 136.447261 272.556021 
L 136.494612 272.0971 
L 136.570107 272.0971 
L 136.621821 271.867639 
L 136.738785 271.867639 
L 136.76674 271.638178 
L 137.062172 271.638178 
L 137.162581 271.293987 
L 137.244307 271.293987 
L 137.244307 271.179257 
L 137.642859 271.179257 
L 137.664982 270.949796 
L 137.766386 270.949796 
L 137.766386 270.835066 
L 138.14041 270.835066 
L 138.14041 270.720335 
L 138.703494 270.720335 
L 138.703494 270.605605 
L 139.143665 270.605605 
L 139.143665 270.490875 
L 139.628399 270.490875 
L 139.628399 270.376144 
L 139.746525 270.376144 
L 139.762215 270.146684 
L 140.559227 270.146684 
L 140.559227 270.031953 
L 140.7418 270.031953 
L 140.7418 269.917223 
L 140.97742 269.917223 
L 140.97742 269.802493 
L 141.432195 269.802493 
L 141.432195 269.687762 
L 147.13383 269.687762 
L 147.13383 269.573032 
L 147.386337 269.573032 
L 147.386337 269.458302 
L 147.504947 269.458302 
L 147.504947 269.343571 
L 147.675136 269.343571 
L 147.675136 269.228841 
L 148.301354 269.228841 
L 148.337359 268.88465 
L 148.672214 268.88465 
L 148.672214 268.76992 
L 148.86171 268.76992 
L 148.86171 268.655189 
L 148.991526 268.655189 
L 149.000762 268.425729 
L 149.42716 268.425729 
L 149.42716 268.310998 
L 149.593058 268.310998 
L 149.593058 268.196268 
L 149.994485 268.196268 
L 150.016276 267.966807 
L 150.165896 267.966807 
L 150.165896 267.852077 
L 150.307819 267.852077 
L 150.307819 267.737347 
L 150.988258 267.737347 
L 151.054044 267.507886 
L 151.121626 267.507886 
L 151.225559 266.819504 
L 151.353097 266.819504 
L 151.423551 266.590043 
L 151.523708 266.590043 
L 151.523708 266.360582 
L 151.696621 266.360582 
L 151.696621 266.245852 
L 151.944047 266.245852 
L 152.029629 266.016391 
L 152.155294 266.016391 
L 152.155294 265.901661 
L 152.611597 265.901661 
L 152.611597 265.6722 
L 152.8372 265.6722 
L 152.900071 265.44274 
L 152.964555 265.44274 
L 152.964555 265.328009 
L 153.366312 265.328009 
L 153.366312 265.213279 
L 153.482736 265.213279 
L 153.482736 265.098549 
L 153.792374 265.098549 
L 153.792374 264.983818 
L 154.276638 264.983818 
L 154.276638 264.869088 
L 157.480626 264.869088 
L 157.480626 264.754358 
L 157.661375 264.754358 
L 157.661375 264.639627 
L 158.217157 264.639627 
L 158.217157 264.524897 
L 158.425462 264.524897 
L 158.425462 264.410167 
L 158.580741 264.410167 
L 158.580741 264.295436 
L 159.265439 264.295436 
L 159.352355 263.951245 
L 159.570285 263.951245 
L 159.570285 263.836515 
L 159.688246 263.836515 
L 159.688246 263.721785 
L 160.556731 263.721785 
L 160.613753 263.492324 
L 160.690674 263.492324 
L 160.690674 263.377593 
L 160.838824 263.377593 
L 160.838824 263.262863 
L 161.21983 263.262863 
L 161.21983 263.148133 
L 162.925238 263.148133 
L 162.925238 263.033402 
L 164.219186 263.033402 
L 164.219186 262.918672 
L 164.340293 262.918672 
L 164.398623 262.459751 
L 164.654488 262.459751 
L 164.654488 262.23029 
L 164.835111 262.23029 
L 164.835111 262.11556 
L 165.718267 262.11556 
L 165.763347 261.886099 
L 167.588042 261.886099 
L 167.588042 261.771369 
L 168.070286 261.771369 
L 168.070286 261.656638 
L 168.473931 261.656638 
L 168.473931 261.427178 
L 168.612429 261.427178 
L 168.682014 261.082987 
L 168.739418 261.082987 
L 168.818875 260.509335 
L 169.456117 260.509335 
L 169.456117 260.394605 
L 169.62813 260.394605 
L 169.62813 260.279874 
L 171.896508 260.279874 
L 171.974583 260.050414 
L 174.613949 260.050414 
L 174.722552 259.820953 
L 174.752102 259.820953 
L 174.752102 259.706222 
L 177.208901 259.706222 
L 177.266508 259.476762 
L 177.399282 259.476762 
L 177.399282 259.362031 
L 177.75529 259.362031 
L 177.75529 259.132571 
L 177.979747 259.132571 
L 177.979747 259.01784 
L 179.704233 259.01784 
L 179.704233 258.90311 
L 184.695483 258.90311 
L 184.695483 258.78838 
L 185.993983 258.78838 
L 185.993983 258.673649 
L 187.447567 258.673649 
L 187.447567 258.558919 
L 188.863595 258.558919 
L 188.863595 258.444189 
L 188.974973 258.444189 
L 188.974973 258.329458 
L 191.065864 258.329458 
L 191.065864 258.214728 
L 192.07079 258.214728 
L 192.07079 258.099998 
L 197.122244 258.099998 
L 197.122244 257.985267 
L 202.704013 257.985267 
L 202.704013 257.870537 
L 205.520183 257.870537 
L 205.520183 257.755807 
L 206.504099 257.755807 
L 206.504099 257.641076 
L 338.688 257.641076 
L 338.688 257.641076 
" style="fill:none;stroke:#ff7500;stroke-linecap:square;stroke-width:1.5;"/>
   </g>
   <g id="line2d_46">
    <defs>
     <path d="M 0 -6 
L -1.347084 -1.854102 
L -5.706339 -1.854102 
L -2.179628 0.708204 
L -3.526712 4.854102 
L -0 2.291796 
L 3.526712 4.854102 
L 2.179628 0.708204 
L 5.706339 -1.854102 
L 1.347084 -1.854102 
z
" id="mc6664e6b0b" style="stroke:#ff7500;stroke-linejoin:bevel;stroke-width:1.5;"/>
    </defs>
    <g>
     <use style="fill-opacity:0;stroke:#ff7500;stroke-linejoin:bevel;stroke-width:1.5;" x="141.432195" xlink:href="#mc6664e6b0b" y="269.802493"/>
     <use style="fill-opacity:0;stroke:#ff7500;stroke-linejoin:bevel;stroke-width:1.5;" x="206.504099" xlink:href="#mc6664e6b0b" y="257.755807"/>
     <use style="fill-opacity:0;stroke:#ff7500;stroke-linejoin:bevel;stroke-width:1.5;" x="206.504099" xlink:href="#mc6664e6b0b" y="257.641076"/>
     <use style="fill-opacity:0;stroke:#ff7500;stroke-linejoin:bevel;stroke-width:1.5;" x="206.504099" xlink:href="#mc6664e6b0b" y="257.641076"/>
     <use style="fill-opacity:0;stroke:#ff7500;stroke-linejoin:bevel;stroke-width:1.5;" x="338.688" xlink:href="#mc6664e6b0b" y="257.641076"/>
    </g>
   </g>
   <g id="line2d_47">
    <path style="fill:none;stroke:#ff7500;stroke-linecap:square;stroke-width:1.5;"/>
    <g/>
   </g>
   <g id="line2d_48">
    <path clip-path="url(#p6e8b065f0e)" d="M 141.80232 269.687762 
" style="fill:none;stroke:#ff7500;stroke-linecap:square;stroke-width:1.5;"/>
    <defs>
     <path d="M -12 12 
L 12 -12 
M -12 -12 
L 12 12 
" id="m97abce204c" style="stroke:#ff7500;"/>
    </defs>
    <g clip-path="url(#p6e8b065f0e)">
     <use style="fill:#ff7500;stroke:#ff7500;" x="141.80232" xlink:href="#m97abce204c" y="269.687762"/>
    </g>
   </g>
   <g id="line2d_49">
    <defs>
     <path d="M 0 1.5 
C 0.397805 1.5 0.77937 1.341951 1.06066 1.06066 
C 1.341951 0.77937 1.5 0.397805 1.5 0 
C 1.5 -0.397805 1.341951 -0.77937 1.06066 -1.06066 
C 0.77937 -1.341951 0.397805 -1.5 0 -1.5 
C -0.397805 -1.5 -0.77937 -1.341951 -1.06066 -1.06066 
C -1.341951 -0.77937 -1.5 -0.397805 -1.5 0 
C -1.5 0.397805 -1.341951 0.77937 -1.06066 1.06066 
C -0.77937 1.341951 -0.397805 1.5 0 1.5 
z
" id="ma0451d3c5f" style="stroke:#6495ed;"/>
    </defs>
    <g>
     <use style="fill:#6495ed;stroke:#6495ed;" x="210.284217" xlink:href="#ma0451d3c5f" y="267.966807"/>
     <use style="fill:#6495ed;stroke:#6495ed;" x="210.284217" xlink:href="#ma0451d3c5f" y="267.966807"/>
    </g>
   </g>
   <g id="line2d_50">
    <path d="M -1 291.371797 
L 5.356583 291.371797 
L 5.356583 290.912876 
L 12.427603 290.912876 
L 12.427603 290.568685 
L 21.336035 290.568685 
L 21.336035 290.453955 
L 24.515591 290.453955 
L 24.515591 290.339224 
L 31.586611 290.339224 
L 31.586611 290.109764 
L 36.60358 290.109764 
L 36.60358 289.880303 
L 37.999467 289.880303 
L 37.999467 289.765573 
L 47.949359 289.765573 
L 47.949359 289.650842 
L 64.67102 289.650842 
L 64.67102 289.536112 
L 72.125336 289.536112 
L 72.125336 289.421381 
L 74.263433 289.421381 
L 74.263433 289.306651 
L 83.138295 289.306651 
L 83.138295 289.191921 
L 85.492169 289.191921 
L 85.492169 289.07719 
L 90.509138 289.07719 
L 90.509138 288.96246 
L 100.898616 288.96246 
L 100.898616 288.84773 
L 107.90885 288.84773 
L 107.90885 288.732999 
L 108.925937 288.732999 
L 108.925937 288.618269 
L 125.700364 288.618269 
L 125.700364 288.503539 
L 126.261995 288.503539 
L 126.261995 288.388808 
L 128.973336 288.388808 
L 128.973336 288.274078 
L 130.263646 288.274078 
L 130.263646 288.159348 
L 130.978796 288.159348 
L 130.978796 288.044617 
L 131.483947 288.044617 
L 131.54686 287.815157 
L 132.356708 287.815157 
L 132.356708 287.700426 
L 133.216421 287.700426 
L 133.216421 287.585696 
L 133.431933 287.585696 
L 133.431933 287.470966 
L 133.605795 287.470966 
L 133.639246 287.241505 
L 133.94293 287.241505 
L 133.94293 287.126775 
L 134.380759 287.126775 
L 134.380759 287.012044 
L 134.624595 287.012044 
L 134.719089 286.782584 
L 134.792231 286.782584 
L 134.792231 286.667853 
L 135.597107 286.667853 
L 135.701341 286.438393 
L 136.145958 286.438393 
L 136.145958 286.323662 
L 136.323544 286.323662 
L 136.323544 286.208932 
L 136.489883 286.208932 
L 136.504067 285.979471 
L 136.743447 285.979471 
L 136.743447 285.864741 
L 137.025515 285.864741 
L 137.057594 285.63528 
L 137.15803 285.63528 
L 137.15803 285.52055 
L 137.384165 285.52055 
L 137.433523 285.291089 
L 137.580766 285.291089 
L 137.580766 285.176359 
L 137.726777 285.176359 
L 137.766386 284.946898 
L 138.379718 284.946898 
L 138.434805 284.717437 
L 138.519216 284.717437 
L 138.578062 284.487977 
L 138.711825 284.487977 
L 138.711825 284.373246 
L 138.955793 284.373246 
L 138.955793 284.258516 
L 139.361659 284.258516 
L 139.42573 283.914325 
L 139.671805 283.914325 
L 139.671805 283.799595 
L 139.879441 283.799595 
L 139.879441 283.684864 
L 140.215007 283.684864 
L 140.215007 283.570134 
L 140.663789 283.570134 
L 140.738093 283.340673 
L 140.812083 283.340673 
L 140.815774 283.111213 
L 141.097679 283.111213 
L 141.097679 282.996482 
L 141.253146 282.996482 
L 141.253146 282.881752 
L 141.432195 282.881752 
L 141.432195 282.767022 
L 141.559982 282.767022 
L 141.559982 282.652291 
L 141.721914 282.652291 
L 141.721914 282.537561 
L 147.635241 282.537561 
L 147.635241 282.422831 
L 150.399667 282.422831 
L 150.399667 282.19337 
L 151.125713 282.19337 
L 151.125713 281.963909 
L 151.722313 281.963909 
L 151.722313 281.619718 
L 151.84236 281.619718 
L 151.906961 281.160797 
L 152.352588 281.160797 
L 152.352588 281.046066 
L 152.71264 281.046066 
L 152.742467 280.816606 
L 152.903762 280.816606 
L 152.955358 280.587145 
L 153.114706 280.587145 
L 153.114706 280.472415 
L 153.366312 280.472415 
L 153.402218 280.128224 
L 153.575318 280.128224 
L 153.617883 279.669302 
L 159.271845 279.669302 
L 159.271845 279.554572 
L 159.432494 279.554572 
L 159.432494 279.439842 
L 159.563988 279.439842 
L 159.563988 279.325111 
L 159.786769 279.325111 
L 159.786769 279.210381 
L 159.909455 279.210381 
L 159.934136 278.98092 
L 160.279673 278.98092 
L 160.279673 278.86619 
L 160.635088 278.86619 
L 160.635088 278.75146 
L 160.838824 278.75146 
L 160.934568 278.521999 
L 164.23172 278.521999 
L 164.23172 278.407268 
L 164.650725 278.407268 
L 164.726775 278.063077 
L 164.844419 278.063077 
L 164.927967 277.718886 
L 165.594807 277.718886 
L 165.700557 277.489426 
L 165.734191 277.489426 
L 165.842616 277.145235 
L 165.8865 277.145235 
L 165.8865 277.030504 
L 168.41792 277.030504 
L 168.41792 276.915774 
L 169.034618 276.915774 
L 169.103271 276.456853 
L 169.515304 276.456853 
L 169.563646 276.227392 
L 169.731091 276.227392 
L 169.796361 275.997931 
L 171.848 275.997931 
L 171.848 275.883201 
L 172.175591 275.883201 
L 172.175591 275.65374 
L 172.364639 275.65374 
L 172.364639 275.53901 
L 172.675035 275.53901 
L 172.675035 275.42428 
L 172.864649 275.42428 
L 172.958981 274.965358 
L 174.991399 274.965358 
L 174.991399 274.621167 
L 175.193561 274.621167 
L 175.287891 274.391706 
L 175.579427 274.391706 
L 175.579427 274.276976 
L 177.415129 274.276976 
L 177.50856 274.047515 
L 177.549027 274.047515 
L 177.549027 273.818055 
L 177.845596 273.818055 
L 177.927968 273.473864 
L 178.020447 273.473864 
L 178.020447 273.359133 
L 179.542744 273.359133 
L 179.625469 273.129673 
L 179.73754 273.129673 
L 179.73754 273.014942 
L 180.012267 273.014942 
L 180.012267 272.900212 
L 181.438783 272.900212 
L 181.438783 272.785482 
L 183.30732 272.785482 
L 183.416732 272.556021 
L 183.459666 272.556021 
L 183.459666 272.441291 
L 184.705914 272.441291 
L 184.798326 272.0971 
L 184.951169 272.0971 
L 184.951169 271.982369 
L 185.079661 271.982369 
L 185.10676 271.752909 
L 186.192093 271.752909 
L 186.269077 271.523448 
L 186.397715 271.523448 
L 186.491557 271.064526 
L 187.535434 271.064526 
L 187.535434 270.835066 
L 187.699817 270.835066 
L 187.716872 270.605605 
L 188.684513 270.605605 
L 188.754808 270.376144 
L 188.880019 270.376144 
L 188.911415 270.146684 
L 188.99269 270.146684 
L 189.02342 269.917223 
L 190.97293 269.917223 
L 191.027754 269.687762 
L 191.108018 269.687762 
L 191.122047 269.458302 
L 193.990542 269.458302 
L 193.997189 269.228841 
L 195.403055 269.228841 
L 195.507127 268.99938 
L 197.010932 268.99938 
L 197.010932 268.88465 
L 197.848103 268.88465 
L 197.848103 268.76992 
L 198.465548 268.76992 
L 198.465548 268.655189 
L 199.7691 268.655189 
L 199.7691 268.540459 
L 201.058179 268.540459 
L 201.058179 268.425729 
L 202.081739 268.425729 
L 202.081739 268.310998 
L 206.88841 268.310998 
L 206.88841 268.196268 
L 207.755949 268.196268 
L 207.755949 268.081538 
L 210.284217 268.081538 
L 210.284217 267.966807 
L 338.688 267.966807 
L 338.688 267.966807 
" style="fill:none;stroke:#6495ed;stroke-linecap:square;stroke-width:1.5;"/>
   </g>
   <g id="line2d_51">
    <defs>
     <path d="M -0 6 
L 6 -6 
L -6 -6 
z
" id="m9e99096f31" style="stroke:#6495ed;stroke-linejoin:miter;stroke-width:1.5;"/>
    </defs>
    <g>
     <use style="fill-opacity:0;stroke:#6495ed;stroke-linejoin:miter;stroke-width:1.5;" x="134.792231" xlink:href="#m9e99096f31" y="286.667853"/>
     <use style="fill-opacity:0;stroke:#6495ed;stroke-linejoin:miter;stroke-width:1.5;" x="191.122047" xlink:href="#m9e99096f31" y="269.458302"/>
     <use style="fill-opacity:0;stroke:#6495ed;stroke-linejoin:miter;stroke-width:1.5;" x="210.284217" xlink:href="#m9e99096f31" y="267.966807"/>
     <use style="fill-opacity:0;stroke:#6495ed;stroke-linejoin:miter;stroke-width:1.5;" x="210.284217" xlink:href="#m9e99096f31" y="267.966807"/>
     <use style="fill-opacity:0;stroke:#6495ed;stroke-linejoin:miter;stroke-width:1.5;" x="338.688" xlink:href="#m9e99096f31" y="267.966807"/>
    </g>
   </g>
   <g id="line2d_52">
    <path style="fill:none;stroke:#6495ed;stroke-linecap:square;stroke-width:1.5;"/>
    <g/>
   </g>
   <g id="line2d_53">
    <path clip-path="url(#p6e8b065f0e)" d="M 141.80232 282.537561 
" style="fill:none;stroke:#6495ed;stroke-linecap:square;stroke-width:1.5;"/>
    <defs>
     <path d="M -12 12 
L 12 -12 
M -12 -12 
L 12 12 
" id="m6766152954" style="stroke:#6495ed;"/>
    </defs>
    <g clip-path="url(#p6e8b065f0e)">
     <use style="fill:#6495ed;stroke:#6495ed;" x="141.80232" xlink:href="#m6766152954" y="282.537561"/>
    </g>
   </g>
   <g id="line2d_54">
    <defs>
     <path d="M 0 1.5 
C 0.397805 1.5 0.77937 1.341951 1.06066 1.06066 
C 1.341951 0.77937 1.5 0.397805 1.5 0 
C 1.5 -0.397805 1.341951 -0.77937 1.06066 -1.06066 
C 0.77937 -1.341951 0.397805 -1.5 0 -1.5 
C -0.397805 -1.5 -0.77937 -1.341951 -1.06066 -1.06066 
C -1.341951 -0.77937 -1.5 -0.397805 -1.5 0 
C -1.5 0.397805 -1.341951 0.77937 -1.06066 1.06066 
C -0.77937 1.341951 -0.397805 1.5 0 1.5 
z
" id="mf0ceb4870e" style="stroke:#ff0000;"/>
    </defs>
    <g>
     <use style="fill:#ff0000;stroke:#ff0000;" x="145.810583" xlink:href="#mf0ceb4870e" y="288.618269"/>
     <use style="fill:#ff0000;stroke:#ff0000;" x="145.810583" xlink:href="#mf0ceb4870e" y="288.618269"/>
    </g>
   </g>
   <g id="line2d_55">
    <path d="M -1 291.027606 
L 5.356583 291.027606 
L 5.356583 290.798146 
L 12.427603 290.798146 
L 12.427603 290.683415 
L 17.444571 290.683415 
L 17.444571 290.453955 
L 21.336035 290.453955 
L 21.336035 290.224494 
L 24.515591 290.224494 
L 24.515591 290.109764 
L 27.203868 290.109764 
L 27.203868 289.765573 
L 29.53256 289.765573 
L 29.53256 289.650842 
L 33.424023 289.650842 
L 33.424023 289.536112 
L 56.705482 289.536112 
L 56.705482 289.421381 
L 75.082329 289.421381 
L 75.082329 289.306651 
L 78.683399 289.306651 
L 78.683399 289.191921 
L 84.307847 289.191921 
L 84.307847 289.07719 
L 111.30625 289.07719 
L 111.30625 288.96246 
L 115.317571 288.96246 
L 115.317571 288.84773 
L 118.202674 288.84773 
L 118.202674 288.732999 
L 145.810583 288.732999 
L 145.810583 288.618269 
L 338.688 288.618269 
" style="fill:none;stroke:#ff0000;stroke-linecap:square;stroke-width:1.5;"/>
   </g>
   <g id="line2d_56">
    <defs>
     <path d="M 0 -6 
L -5.196152 -3 
L -5.196152 3 
L -0 6 
L 5.196152 3 
L 5.196152 -3 
z
" id="m40de1b4968" style="stroke:#ff0000;stroke-linejoin:miter;stroke-width:1.5;"/>
    </defs>
    <g>
     <use style="fill-opacity:0;stroke:#ff0000;stroke-linejoin:miter;stroke-width:1.5;" x="84.307847" xlink:href="#m40de1b4968" y="289.07719"/>
     <use style="fill-opacity:0;stroke:#ff0000;stroke-linejoin:miter;stroke-width:1.5;" x="145.810583" xlink:href="#m40de1b4968" y="288.732999"/>
     <use style="fill-opacity:0;stroke:#ff0000;stroke-linejoin:miter;stroke-width:1.5;" x="145.810583" xlink:href="#m40de1b4968" y="288.618269"/>
     <use style="fill-opacity:0;stroke:#ff0000;stroke-linejoin:miter;stroke-width:1.5;" x="145.810583" xlink:href="#m40de1b4968" y="288.618269"/>
     <use style="fill-opacity:0;stroke:#ff0000;stroke-linejoin:miter;stroke-width:1.5;" x="145.810583" xlink:href="#m40de1b4968" y="288.618269"/>
     <use style="fill-opacity:0;stroke:#ff0000;stroke-linejoin:miter;stroke-width:1.5;" x="338.688" xlink:href="#m40de1b4968" y="288.618269"/>
    </g>
   </g>
   <g id="line2d_57">
    <path style="fill:none;stroke:#ff0000;stroke-linecap:square;stroke-width:1.5;"/>
    <g/>
   </g>
   <g id="line2d_58">
    <path clip-path="url(#p6e8b065f0e)" d="M 141.80232 288.732999 
" style="fill:none;stroke:#ff0000;stroke-linecap:square;stroke-width:1.5;"/>
    <defs>
     <path d="M -12 12 
L 12 -12 
M -12 -12 
L 12 12 
" id="mc8079335cd" style="stroke:#ff0000;"/>
    </defs>
    <g clip-path="url(#p6e8b065f0e)">
     <use style="fill:#ff0000;stroke:#ff0000;" x="141.80232" xlink:href="#mc8079335cd" y="288.732999"/>
    </g>
   </g>
   <g id="line2d_59">
    <defs>
     <path d="M 0 1.5 
C 0.397805 1.5 0.77937 1.341951 1.06066 1.06066 
C 1.341951 0.77937 1.5 0.397805 1.5 0 
C 1.5 -0.397805 1.341951 -0.77937 1.06066 -1.06066 
C 0.77937 -1.341951 0.397805 -1.5 0 -1.5 
C -0.397805 -1.5 -0.77937 -1.341951 -1.06066 -1.06066 
C -1.341951 -0.77937 -1.5 -0.397805 -1.5 0 
C -1.5 0.397805 -1.341951 0.77937 -1.06066 1.06066 
C -0.77937 1.341951 -0.397805 1.5 0 1.5 
z
" id="m5123662513" style="stroke:#9acd32;"/>
    </defs>
    <g>
     <use style="fill:#9acd32;stroke:#9acd32;" x="142.44601" xlink:href="#m5123662513" y="288.618269"/>
     <use style="fill:#9acd32;stroke:#9acd32;" x="142.44601" xlink:href="#m5123662513" y="288.618269"/>
    </g>
   </g>
   <g id="line2d_60">
    <path d="M -1 291.142337 
L 5.356583 291.142337 
L 5.356583 290.912876 
L 12.427603 290.912876 
L 12.427603 290.798146 
L 21.336035 290.798146 
L 21.336035 290.453955 
L 24.515591 290.453955 
L 24.515591 290.224494 
L 31.586611 290.224494 
L 31.586611 290.109764 
L 36.60358 290.109764 
L 36.60358 289.995033 
L 43.6746 289.995033 
L 43.6746 289.880303 
L 49.403475 289.880303 
L 49.403475 289.765573 
L 62.175444 289.765573 
L 62.175444 289.650842 
L 68.328395 289.650842 
L 68.328395 289.536112 
L 77.18963 289.536112 
L 77.18963 289.421381 
L 82.417986 289.421381 
L 82.417986 289.306651 
L 84.588378 289.306651 
L 84.588378 289.191921 
L 127.705564 289.191921 
L 127.705564 289.07719 
L 140.896784 289.07719 
L 140.896784 288.96246 
L 141.805808 288.96246 
L 141.805808 288.84773 
L 142.44601 288.84773 
L 142.44601 288.618269 
L 338.688 288.618269 
" style="fill:none;stroke:#9acd32;stroke-linecap:square;stroke-width:1.5;"/>
   </g>
   <g id="line2d_61">
    <defs>
     <path d="M 0 -6 
L -6 6 
L 6 6 
z
" id="m13f5c77ad1" style="stroke:#9acd32;stroke-linejoin:miter;stroke-width:1.5;"/>
    </defs>
    <g>
     <use style="fill-opacity:0;stroke:#9acd32;stroke-linejoin:miter;stroke-width:1.5;" x="84.588378" xlink:href="#m13f5c77ad1" y="289.306651"/>
     <use style="fill-opacity:0;stroke:#9acd32;stroke-linejoin:miter;stroke-width:1.5;" x="142.44601" xlink:href="#m13f5c77ad1" y="288.84773"/>
     <use style="fill-opacity:0;stroke:#9acd32;stroke-linejoin:miter;stroke-width:1.5;" x="142.44601" xlink:href="#m13f5c77ad1" y="288.618269"/>
     <use style="fill-opacity:0;stroke:#9acd32;stroke-linejoin:miter;stroke-width:1.5;" x="142.44601" xlink:href="#m13f5c77ad1" y="288.618269"/>
     <use style="fill-opacity:0;stroke:#9acd32;stroke-linejoin:miter;stroke-width:1.5;" x="338.688" xlink:href="#m13f5c77ad1" y="288.618269"/>
    </g>
   </g>
   <g id="line2d_62">
    <path style="fill:none;stroke:#9acd32;stroke-linecap:square;stroke-width:1.5;"/>
    <g/>
   </g>
   <g id="line2d_63">
    <path clip-path="url(#p6e8b065f0e)" d="M 141.80232 288.96246 
" style="fill:none;stroke:#9acd32;stroke-linecap:square;stroke-width:1.5;"/>
    <defs>
     <path d="M -12 12 
L 12 -12 
M -12 -12 
L 12 12 
" id="mfa28dfa0b2" style="stroke:#9acd32;"/>
    </defs>
    <g clip-path="url(#p6e8b065f0e)">
     <use style="fill:#9acd32;stroke:#9acd32;" x="141.80232" xlink:href="#mfa28dfa0b2" y="288.96246"/>
    </g>
   </g>
   <g id="line2d_64">
    <defs>
     <path d="M 0 1.5 
C 0.397805 1.5 0.77937 1.341951 1.06066 1.06066 
C 1.341951 0.77937 1.5 0.397805 1.5 0 
C 1.5 -0.397805 1.341951 -0.77937 1.06066 -1.06066 
C 0.77937 -1.341951 0.397805 -1.5 0 -1.5 
C -0.397805 -1.5 -0.77937 -1.341951 -1.06066 -1.06066 
C -1.341951 -0.77937 -1.5 -0.397805 -1.5 0 
C -1.5 0.397805 -1.341951 0.77937 -1.06066 1.06066 
C -0.77937 1.341951 -0.397805 1.5 0 1.5 
z
" id="m1378fcc410" style="stroke:#00bfbf;"/>
    </defs>
    <g>
     <use style="fill:#00bfbf;stroke:#00bfbf;" x="208.540794" xlink:href="#m1378fcc410" y="282.881752"/>
     <use style="fill:#00bfbf;stroke:#00bfbf;" x="208.540794" xlink:href="#m1378fcc410" y="282.881752"/>
    </g>
   </g>
   <g id="line2d_65">
    <path d="M -1 291.257067 
L 5.356583 291.257067 
L 5.356583 290.568685 
L 21.336035 290.568685 
L 21.336035 290.339224 
L 24.515591 290.339224 
L 24.515591 290.224494 
L 29.53256 290.224494 
L 29.53256 290.109764 
L 35.086164 290.109764 
L 35.086164 289.995033 
L 36.60358 289.995033 
L 36.60358 289.880303 
L 53.708537 289.880303 
L 53.708537 289.765573 
L 58.030621 289.765573 
L 58.030621 289.650842 
L 61.139142 289.650842 
L 61.139142 289.536112 
L 64.67102 289.536112 
L 64.67102 289.421381 
L 66.853775 289.421381 
L 66.853775 289.306651 
L 70.949209 289.306651 
L 70.949209 289.191921 
L 74.75937 289.191921 
L 74.75937 289.07719 
L 76.016799 289.07719 
L 76.016799 288.96246 
L 83.536924 288.96246 
L 83.536924 288.84773 
L 94.972432 288.84773 
L 94.972432 288.732999 
L 118.589785 288.732999 
L 118.589785 288.618269 
L 132.624415 288.618269 
L 132.624415 288.503539 
L 132.92293 288.503539 
L 132.92293 288.388808 
L 135.081772 288.388808 
L 135.081772 288.159348 
L 135.092025 288.159348 
L 135.092025 288.044617 
L 135.22476 288.044617 
L 135.22476 287.929887 
L 136.09765 287.929887 
L 136.09765 287.815157 
L 136.150782 287.815157 
L 136.150782 287.700426 
L 137.025515 287.700426 
L 137.025515 287.585696 
L 137.030101 287.585696 
L 137.030101 287.470966 
L 137.915216 287.470966 
L 137.915216 287.241505 
L 138.807337 287.241505 
L 138.807337 287.126775 
L 138.869347 287.126775 
L 138.869347 287.012044 
L 139.576961 287.012044 
L 139.576961 286.782584 
L 140.351996 286.782584 
L 140.351996 286.667853 
L 140.412536 286.667853 
L 140.412536 286.553123 
L 151.66495 286.553123 
L 151.66495 286.323662 
L 152.542024 286.323662 
L 152.542024 286.094202 
L 152.813101 286.094202 
L 152.813101 285.979471 
L 153.180219 285.979471 
L 153.180219 285.864741 
L 153.183851 285.864741 
L 153.183851 285.75001 
L 164.096261 285.75001 
L 164.096261 285.63528 
L 165.643763 285.63528 
L 165.643763 285.52055 
L 168.380732 285.52055 
L 168.380732 285.405819 
L 169.446828 285.405819 
L 169.446828 285.291089 
L 175.547218 285.291089 
L 175.547218 285.176359 
L 177.892336 285.176359 
L 177.892336 285.061628 
L 181.818025 285.061628 
L 181.818025 284.946898 
L 182.958774 284.946898 
L 182.958774 284.832168 
L 183.498982 284.832168 
L 183.498982 284.717437 
L 186.371738 284.717437 
L 186.371738 284.602707 
L 187.30826 284.602707 
L 187.30826 284.487977 
L 187.725894 284.487977 
L 187.725894 284.373246 
L 187.726396 284.373246 
L 187.726396 284.258516 
L 187.730654 284.258516 
L 187.730654 284.143786 
L 190.786616 284.143786 
L 190.786616 283.914325 
L 193.07782 283.914325 
L 193.07782 283.799595 
L 193.685229 283.799595 
L 193.685229 283.684864 
L 194.830207 283.684864 
L 194.830207 283.570134 
L 195.644506 283.570134 
L 195.644506 283.455404 
L 197.649392 283.455404 
L 197.649392 283.340673 
L 199.863798 283.340673 
L 199.863798 283.225943 
L 206.530371 283.225943 
L 206.530371 283.111213 
L 206.81385 283.111213 
L 206.81385 282.996482 
L 208.540794 282.996482 
L 208.540794 282.881752 
L 338.688 282.881752 
" style="fill:none;stroke:#00bfbf;stroke-linecap:square;stroke-width:1.5;"/>
   </g>
   <g id="line2d_66">
    <defs>
     <path d="M 0 -6 
L -5.706339 -1.854102 
L -3.526712 4.854102 
L 3.526712 4.854102 
L 5.706339 -1.854102 
z
" id="m49c61951c1" style="stroke:#00bfbf;stroke-linejoin:miter;stroke-width:1.5;"/>
    </defs>
    <g>
     <use style="fill-opacity:0;stroke:#00bfbf;stroke-linejoin:miter;stroke-width:1.5;" x="83.536924" xlink:href="#m49c61951c1" y="288.84773"/>
     <use style="fill-opacity:0;stroke:#00bfbf;stroke-linejoin:miter;stroke-width:1.5;" x="177.892336" xlink:href="#m49c61951c1" y="285.061628"/>
     <use style="fill-opacity:0;stroke:#00bfbf;stroke-linejoin:miter;stroke-width:1.5;" x="208.540794" xlink:href="#m49c61951c1" y="282.996482"/>
     <use style="fill-opacity:0;stroke:#00bfbf;stroke-linejoin:miter;stroke-width:1.5;" x="208.540794" xlink:href="#m49c61951c1" y="282.881752"/>
     <use style="fill-opacity:0;stroke:#00bfbf;stroke-linejoin:miter;stroke-width:1.5;" x="208.540794" xlink:href="#m49c61951c1" y="282.881752"/>
     <use style="fill-opacity:0;stroke:#00bfbf;stroke-linejoin:miter;stroke-width:1.5;" x="338.688" xlink:href="#m49c61951c1" y="282.881752"/>
    </g>
   </g>
   <g id="line2d_67">
    <path style="fill:none;stroke:#00bfbf;stroke-linecap:square;stroke-width:1.5;"/>
    <g/>
   </g>
   <g id="line2d_68">
    <path clip-path="url(#p6e8b065f0e)" d="M 141.80232 286.553123 
" style="fill:none;stroke:#00bfbf;stroke-linecap:square;stroke-width:1.5;"/>
    <defs>
     <path d="M -12 12 
L 12 -12 
M -12 -12 
L 12 12 
" id="m31712fa16b" style="stroke:#00bfbf;"/>
    </defs>
    <g clip-path="url(#p6e8b065f0e)">
     <use style="fill:#00bfbf;stroke:#00bfbf;" x="141.80232" xlink:href="#m31712fa16b" y="286.553123"/>
    </g>
   </g>
   <g id="line2d_69">
    <path d="M 338.688 288.618269 
L 369.60768 293.092752 
" style="fill:none;stroke:#ff0000;stroke-linecap:square;stroke-width:1.5;"/>
    <g>
     <use style="fill-opacity:0;stroke:#ff0000;stroke-linejoin:miter;stroke-width:1.5;" x="338.688" xlink:href="#m40de1b4968" y="288.618269"/>
     <use style="fill-opacity:0;stroke:#ff0000;stroke-linejoin:miter;stroke-width:1.5;" x="369.60768" xlink:href="#m40de1b4968" y="293.092752"/>
    </g>
   </g>
   <g id="line2d_70">
    <path d="M 338.688 288.618269 
L 369.60768 252.969912 
" style="fill:none;stroke:#9acd32;stroke-linecap:square;stroke-width:1.5;"/>
    <g>
     <use style="fill-opacity:0;stroke:#9acd32;stroke-linejoin:miter;stroke-width:1.5;" x="338.688" xlink:href="#m13f5c77ad1" y="288.618269"/>
     <use style="fill-opacity:0;stroke:#9acd32;stroke-linejoin:miter;stroke-width:1.5;" x="369.60768" xlink:href="#m13f5c77ad1" y="252.969912"/>
    </g>
   </g>
   <g id="line2d_71">
    <path d="M 338.688 282.881752 
L 369.60768 212.847072 
" style="fill:none;stroke:#00bfbf;stroke-linecap:square;stroke-width:1.5;"/>
    <g>
     <use style="fill-opacity:0;stroke:#00bfbf;stroke-linejoin:miter;stroke-width:1.5;" x="338.688" xlink:href="#m49c61951c1" y="282.881752"/>
     <use style="fill-opacity:0;stroke:#00bfbf;stroke-linejoin:miter;stroke-width:1.5;" x="369.60768" xlink:href="#m49c61951c1" y="212.847072"/>
    </g>
   </g>
   <g id="line2d_72">
    <path d="M 338.688 280.587145 
L 369.60768 172.724232 
" style="fill:none;stroke:#000080;stroke-linecap:square;stroke-width:1.5;"/>
    <g>
     <use style="fill-opacity:0;stroke:#000080;stroke-width:1.5;" x="338.688" xlink:href="#m2efb811849" y="280.587145"/>
     <use style="fill-opacity:0;stroke:#000080;stroke-width:1.5;" x="369.60768" xlink:href="#m2efb811849" y="172.724232"/>
    </g>
   </g>
   <g id="line2d_73">
    <path d="M 338.688 267.966807 
L 369.60768 132.601392 
" style="fill:none;stroke:#6495ed;stroke-linecap:square;stroke-width:1.5;"/>
    <g>
     <use style="fill-opacity:0;stroke:#6495ed;stroke-linejoin:miter;stroke-width:1.5;" x="338.688" xlink:href="#m9e99096f31" y="267.966807"/>
     <use style="fill-opacity:0;stroke:#6495ed;stroke-linejoin:miter;stroke-width:1.5;" x="369.60768" xlink:href="#m9e99096f31" y="132.601392"/>
    </g>
   </g>
   <g id="line2d_74">
    <path d="M 338.688 259.935683 
L 369.60768 92.478552 
" style="fill:none;stroke:#ff00ff;stroke-linecap:square;stroke-width:1.5;"/>
    <g>
     <use style="fill-opacity:0;stroke:#ff00ff;stroke-linejoin:miter;stroke-width:1.5;" x="338.688" xlink:href="#m1d36722266" y="259.935683"/>
     <use style="fill-opacity:0;stroke:#ff00ff;stroke-linejoin:miter;stroke-width:1.5;" x="369.60768" xlink:href="#m1d36722266" y="92.478552"/>
    </g>
   </g>
   <g id="line2d_75">
    <path d="M 338.688 257.641076 
L 369.60768 52.355711 
" style="fill:none;stroke:#ff7500;stroke-linecap:square;stroke-width:1.5;"/>
    <g>
     <use style="fill-opacity:0;stroke:#ff7500;stroke-linejoin:bevel;stroke-width:1.5;" x="338.688" xlink:href="#mc6664e6b0b" y="257.641076"/>
     <use style="fill-opacity:0;stroke:#ff7500;stroke-linejoin:bevel;stroke-width:1.5;" x="369.60768" xlink:href="#mc6664e6b0b" y="52.355711"/>
    </g>
   </g>
   <g id="line2d_76">
    <path d="M 338.688 298.944 
L 338.688 6.381624 
" style="fill:none;stroke:#000000;stroke-linecap:square;stroke-width:1.5;"/>
   </g>
   <g id="patch_3">
    <path d="M 57.6 298.944 
L 57.6 3.456 
" style="fill:none;stroke:#000000;stroke-linecap:square;stroke-linejoin:miter;stroke-width:0.8;"/>
   </g>
   <g id="patch_4">
    <path d="M 338.688 298.944 
L 338.688 3.456 
" style="fill:none;stroke:#000000;stroke-linecap:square;stroke-linejoin:miter;stroke-width:0.8;"/>
   </g>
   <g id="patch_5">
    <path d="M 57.6 298.944 
L 338.688 298.944 
" style="fill:none;stroke:#000000;stroke-linecap:square;stroke-linejoin:miter;stroke-width:0.8;"/>
   </g>
   <g id="patch_6">
    <path d="M 57.6 3.456 
L 338.688 3.456 
" style="fill:none;stroke:#000000;stroke-linecap:square;stroke-linejoin:miter;stroke-width:0.8;"/>
   </g>
   <g id="text_13">
    <!-- DE -->
    <g transform="translate(375.22944 297.78369)scale(0.17 -0.17)">
     <defs>
      <path d="M 1259 4147 
L 1259 519 
L 2022 519 
Q 2988 519 3436 956 
Q 3884 1394 3884 2338 
Q 3884 3275 3436 3711 
Q 2988 4147 2022 4147 
L 1259 4147 
z
M 628 4666 
L 1925 4666 
Q 3281 4666 3915 4102 
Q 4550 3538 4550 2338 
Q 4550 1131 3912 565 
Q 3275 0 1925 0 
L 628 0 
L 628 4666 
z
" id="DejaVuSans-44" transform="scale(0.015625)"/>
      <path d="M 628 4666 
L 3578 4666 
L 3578 4134 
L 1259 4134 
L 1259 2753 
L 3481 2753 
L 3481 2222 
L 1259 2222 
L 1259 531 
L 3634 531 
L 3634 0 
L 628 0 
L 628 4666 
z
" id="DejaVuSans-45" transform="scale(0.015625)"/>
     </defs>
     <use xlink:href="#DejaVuSans-44"/>
     <use x="77.001953" xlink:href="#DejaVuSans-45"/>
    </g>
   </g>
   <g id="text_14">
    <!-- DEAE -->
    <g transform="translate(375.22944 257.66085)scale(0.17 -0.17)">
     <defs>
      <path d="M 2188 4044 
L 1331 1722 
L 3047 1722 
L 2188 4044 
z
M 1831 4666 
L 2547 4666 
L 4325 0 
L 3669 0 
L 3244 1197 
L 1141 1197 
L 716 0 
L 50 0 
L 1831 4666 
z
" id="DejaVuSans-41" transform="scale(0.015625)"/>
     </defs>
     <use xlink:href="#DejaVuSans-44"/>
     <use x="77.001953" xlink:href="#DejaVuSans-45"/>
     <use x="140.185547" xlink:href="#DejaVuSans-41"/>
     <use x="208.59375" xlink:href="#DejaVuSans-45"/>
    </g>
   </g>
   <g id="text_15">
    <!-- JADE -->
    <g transform="translate(375.22944 217.53801)scale(0.17 -0.17)">
     <defs>
      <path d="M 628 4666 
L 1259 4666 
L 1259 325 
Q 1259 -519 939 -900 
Q 619 -1281 -91 -1281 
L -331 -1281 
L -331 -750 
L -134 -750 
Q 284 -750 456 -515 
Q 628 -281 628 325 
L 628 4666 
z
" id="DejaVuSans-4a" transform="scale(0.015625)"/>
     </defs>
     <use xlink:href="#DejaVuSans-4a"/>
     <use x="27.742188" xlink:href="#DejaVuSans-41"/>
     <use x="96.150391" xlink:href="#DejaVuSans-44"/>
     <use x="173.152344" xlink:href="#DejaVuSans-45"/>
    </g>
   </g>
   <g id="text_16">
    <!-- Bin GA -->
    <g transform="translate(375.22944 177.415169)scale(0.17 -0.17)">
     <defs>
      <path d="M 1259 2228 
L 1259 519 
L 2272 519 
Q 2781 519 3026 730 
Q 3272 941 3272 1375 
Q 3272 1813 3026 2020 
Q 2781 2228 2272 2228 
L 1259 2228 
z
M 1259 4147 
L 1259 2741 
L 2194 2741 
Q 2656 2741 2882 2914 
Q 3109 3088 3109 3444 
Q 3109 3797 2882 3972 
Q 2656 4147 2194 4147 
L 1259 4147 
z
M 628 4666 
L 2241 4666 
Q 2963 4666 3353 4366 
Q 3744 4066 3744 3513 
Q 3744 3084 3544 2831 
Q 3344 2578 2956 2516 
Q 3422 2416 3680 2098 
Q 3938 1781 3938 1306 
Q 3938 681 3513 340 
Q 3088 0 2303 0 
L 628 0 
L 628 4666 
z
" id="DejaVuSans-42" transform="scale(0.015625)"/>
      <path d="M 3809 666 
L 3809 1919 
L 2778 1919 
L 2778 2438 
L 4434 2438 
L 4434 434 
Q 4069 175 3628 42 
Q 3188 -91 2688 -91 
Q 1594 -91 976 548 
Q 359 1188 359 2328 
Q 359 3472 976 4111 
Q 1594 4750 2688 4750 
Q 3144 4750 3555 4637 
Q 3966 4525 4313 4306 
L 4313 3634 
Q 3963 3931 3569 4081 
Q 3175 4231 2741 4231 
Q 1884 4231 1454 3753 
Q 1025 3275 1025 2328 
Q 1025 1384 1454 906 
Q 1884 428 2741 428 
Q 3075 428 3337 486 
Q 3600 544 3809 666 
z
" id="DejaVuSans-47" transform="scale(0.015625)"/>
     </defs>
     <use xlink:href="#DejaVuSans-42"/>
     <use x="68.603516" xlink:href="#DejaVuSans-69"/>
     <use x="96.386719" xlink:href="#DejaVuSans-6e"/>
     <use x="159.765625" xlink:href="#DejaVuSans-20"/>
     <use x="191.552734" xlink:href="#DejaVuSans-47"/>
     <use x="269.042969" xlink:href="#DejaVuSans-41"/>
    </g>
   </g>
   <g id="text_17">
    <!-- PSO EDA -->
    <g transform="translate(375.22944 137.292329)scale(0.17 -0.17)">
     <defs>
      <path d="M 1259 4147 
L 1259 2394 
L 2053 2394 
Q 2494 2394 2734 2622 
Q 2975 2850 2975 3272 
Q 2975 3691 2734 3919 
Q 2494 4147 2053 4147 
L 1259 4147 
z
M 628 4666 
L 2053 4666 
Q 2838 4666 3239 4311 
Q 3641 3956 3641 3272 
Q 3641 2581 3239 2228 
Q 2838 1875 2053 1875 
L 1259 1875 
L 1259 0 
L 628 0 
L 628 4666 
z
" id="DejaVuSans-50" transform="scale(0.015625)"/>
      <path d="M 3425 4513 
L 3425 3897 
Q 3066 4069 2747 4153 
Q 2428 4238 2131 4238 
Q 1616 4238 1336 4038 
Q 1056 3838 1056 3469 
Q 1056 3159 1242 3001 
Q 1428 2844 1947 2747 
L 2328 2669 
Q 3034 2534 3370 2195 
Q 3706 1856 3706 1288 
Q 3706 609 3251 259 
Q 2797 -91 1919 -91 
Q 1588 -91 1214 -16 
Q 841 59 441 206 
L 441 856 
Q 825 641 1194 531 
Q 1563 422 1919 422 
Q 2459 422 2753 634 
Q 3047 847 3047 1241 
Q 3047 1584 2836 1778 
Q 2625 1972 2144 2069 
L 1759 2144 
Q 1053 2284 737 2584 
Q 422 2884 422 3419 
Q 422 4038 858 4394 
Q 1294 4750 2059 4750 
Q 2388 4750 2728 4690 
Q 3069 4631 3425 4513 
z
" id="DejaVuSans-53" transform="scale(0.015625)"/>
      <path d="M 2522 4238 
Q 1834 4238 1429 3725 
Q 1025 3213 1025 2328 
Q 1025 1447 1429 934 
Q 1834 422 2522 422 
Q 3209 422 3611 934 
Q 4013 1447 4013 2328 
Q 4013 3213 3611 3725 
Q 3209 4238 2522 4238 
z
M 2522 4750 
Q 3503 4750 4090 4092 
Q 4678 3434 4678 2328 
Q 4678 1225 4090 567 
Q 3503 -91 2522 -91 
Q 1538 -91 948 565 
Q 359 1222 359 2328 
Q 359 3434 948 4092 
Q 1538 4750 2522 4750 
z
" id="DejaVuSans-4f" transform="scale(0.015625)"/>
     </defs>
     <use xlink:href="#DejaVuSans-50"/>
     <use x="60.302734" xlink:href="#DejaVuSans-53"/>
     <use x="123.779297" xlink:href="#DejaVuSans-4f"/>
     <use x="202.490234" xlink:href="#DejaVuSans-20"/>
     <use x="234.277344" xlink:href="#DejaVuSans-45"/>
     <use x="297.460938" xlink:href="#DejaVuSans-44"/>
     <use x="372.712891" xlink:href="#DejaVuSans-41"/>
    </g>
   </g>
   <g id="text_18">
    <!-- PSO -->
    <g transform="translate(375.22944 97.169489)scale(0.17 -0.17)">
     <use xlink:href="#DejaVuSans-50"/>
     <use x="60.302734" xlink:href="#DejaVuSans-53"/>
     <use x="123.779297" xlink:href="#DejaVuSans-4f"/>
    </g>
   </g>
   <g id="text_19">
    <!-- PSO Bound -->
    <g transform="translate(375.22944 57.046649)scale(0.17 -0.17)">
     <use xlink:href="#DejaVuSans-50"/>
     <use x="60.302734" xlink:href="#DejaVuSans-53"/>
     <use x="123.779297" xlink:href="#DejaVuSans-4f"/>
     <use x="202.490234" xlink:href="#DejaVuSans-20"/>
     <use x="234.277344" xlink:href="#DejaVuSans-42"/>
     <use x="302.880859" xlink:href="#DejaVuSans-6f"/>
     <use x="364.0625" xlink:href="#DejaVuSans-75"/>
     <use x="427.441406" xlink:href="#DejaVuSans-6e"/>
     <use x="490.820312" xlink:href="#DejaVuSans-64"/>
    </g>
   </g>
   <g id="text_20">
    <!-- best 2009 -->
    <g transform="translate(375.22944 16.923809)scale(0.17 -0.17)">
     <defs>
      <path d="M 3116 1747 
Q 3116 2381 2855 2742 
Q 2594 3103 2138 3103 
Q 1681 3103 1420 2742 
Q 1159 2381 1159 1747 
Q 1159 1113 1420 752 
Q 1681 391 2138 391 
Q 2594 391 2855 752 
Q 3116 1113 3116 1747 
z
M 1159 2969 
Q 1341 3281 1617 3432 
Q 1894 3584 2278 3584 
Q 2916 3584 3314 3078 
Q 3713 2572 3713 1747 
Q 3713 922 3314 415 
Q 2916 -91 2278 -91 
Q 1894 -91 1617 61 
Q 1341 213 1159 525 
L 1159 0 
L 581 0 
L 581 4863 
L 1159 4863 
L 1159 2969 
z
" id="DejaVuSans-62" transform="scale(0.015625)"/>
      <path d="M 703 97 
L 703 672 
Q 941 559 1184 500 
Q 1428 441 1663 441 
Q 2288 441 2617 861 
Q 2947 1281 2994 2138 
Q 2813 1869 2534 1725 
Q 2256 1581 1919 1581 
Q 1219 1581 811 2004 
Q 403 2428 403 3163 
Q 403 3881 828 4315 
Q 1253 4750 1959 4750 
Q 2769 4750 3195 4129 
Q 3622 3509 3622 2328 
Q 3622 1225 3098 567 
Q 2575 -91 1691 -91 
Q 1453 -91 1209 -44 
Q 966 3 703 97 
z
M 1959 2075 
Q 2384 2075 2632 2365 
Q 2881 2656 2881 3163 
Q 2881 3666 2632 3958 
Q 2384 4250 1959 4250 
Q 1534 4250 1286 3958 
Q 1038 3666 1038 3163 
Q 1038 2656 1286 2365 
Q 1534 2075 1959 2075 
z
" id="DejaVuSans-39" transform="scale(0.015625)"/>
     </defs>
     <use xlink:href="#DejaVuSans-62"/>
     <use x="63.476562" xlink:href="#DejaVuSans-65"/>
     <use x="125" xlink:href="#DejaVuSans-73"/>
     <use x="177.099609" xlink:href="#DejaVuSans-74"/>
     <use x="216.308594" xlink:href="#DejaVuSans-20"/>
     <use x="248.095703" xlink:href="#DejaVuSans-32"/>
     <use x="311.71875" xlink:href="#DejaVuSans-30"/>
     <use x="375.341797" xlink:href="#DejaVuSans-30"/>
     <use x="438.964844" xlink:href="#DejaVuSans-39"/>
    </g>
   </g>
   <g id="text_21">
    <!-- bbob f20-f24, 40-D -->
    <g transform="translate(60.41088 14.161286)scale(0.102 -0.102)">
     <use xlink:href="#DejaVuSans-62"/>
     <use x="63.476562" xlink:href="#DejaVuSans-62"/>
     <use x="126.953125" xlink:href="#DejaVuSans-6f"/>
     <use x="188.134766" xlink:href="#DejaVuSans-62"/>
     <use x="251.611328" xlink:href="#DejaVuSans-20"/>
     <use x="283.398438" xlink:href="#DejaVuSans-66"/>
     <use x="318.603516" xlink:href="#DejaVuSans-32"/>
     <use x="382.226562" xlink:href="#DejaVuSans-30"/>
     <use x="445.849609" xlink:href="#DejaVuSans-2d"/>
     <use x="481.933594" xlink:href="#DejaVuSans-66"/>
     <use x="517.138672" xlink:href="#DejaVuSans-32"/>
     <use x="580.761719" xlink:href="#DejaVuSans-34"/>
     <use x="644.384766" xlink:href="#DejaVuSans-2c"/>
     <use x="676.171875" xlink:href="#DejaVuSans-20"/>
     <use x="707.958984" xlink:href="#DejaVuSans-34"/>
     <use x="771.582031" xlink:href="#DejaVuSans-30"/>
     <use x="835.205078" xlink:href="#DejaVuSans-2d"/>
     <use x="871.289062" xlink:href="#DejaVuSans-44"/>
    </g>
    <!-- 51 targets: 100..1e-08 -->
    <g transform="translate(60.41088 25.583055)scale(0.102 -0.102)">
     <defs>
      <path d="M 691 4666 
L 3169 4666 
L 3169 4134 
L 1269 4134 
L 1269 2991 
Q 1406 3038 1543 3061 
Q 1681 3084 1819 3084 
Q 2600 3084 3056 2656 
Q 3513 2228 3513 1497 
Q 3513 744 3044 326 
Q 2575 -91 1722 -91 
Q 1428 -91 1123 -41 
Q 819 9 494 109 
L 494 744 
Q 775 591 1075 516 
Q 1375 441 1709 441 
Q 2250 441 2565 725 
Q 2881 1009 2881 1497 
Q 2881 1984 2565 2268 
Q 2250 2553 1709 2553 
Q 1456 2553 1204 2497 
Q 953 2441 691 2322 
L 691 4666 
z
" id="DejaVuSans-35" transform="scale(0.015625)"/>
      <path d="M 750 794 
L 1409 794 
L 1409 0 
L 750 0 
L 750 794 
z
M 750 3309 
L 1409 3309 
L 1409 2516 
L 750 2516 
L 750 3309 
z
" id="DejaVuSans-3a" transform="scale(0.015625)"/>
     </defs>
     <use xlink:href="#DejaVuSans-35"/>
     <use x="63.623047" xlink:href="#DejaVuSans-31"/>
     <use x="127.246094" xlink:href="#DejaVuSans-20"/>
     <use x="159.033203" xlink:href="#DejaVuSans-74"/>
     <use x="198.242188" xlink:href="#DejaVuSans-61"/>
     <use x="259.521484" xlink:href="#DejaVuSans-72"/>
     <use x="298.884766" xlink:href="#DejaVuSans-67"/>
     <use x="362.361328" xlink:href="#DejaVuSans-65"/>
     <use x="423.884766" xlink:href="#DejaVuSans-74"/>
     <use x="463.09375" xlink:href="#DejaVuSans-73"/>
     <use x="515.193359" xlink:href="#DejaVuSans-3a"/>
     <use x="548.884766" xlink:href="#DejaVuSans-20"/>
     <use x="580.671875" xlink:href="#DejaVuSans-31"/>
     <use x="644.294922" xlink:href="#DejaVuSans-30"/>
     <use x="707.917969" xlink:href="#DejaVuSans-30"/>
     <use x="771.541016" xlink:href="#DejaVuSans-2e"/>
     <use x="803.328125" xlink:href="#DejaVuSans-2e"/>
     <use x="835.115234" xlink:href="#DejaVuSans-31"/>
     <use x="898.738281" xlink:href="#DejaVuSans-65"/>
     <use x="960.261719" xlink:href="#DejaVuSans-2d"/>
     <use x="996.345703" xlink:href="#DejaVuSans-30"/>
     <use x="1059.96875" xlink:href="#DejaVuSans-38"/>
    </g>
    <!-- 15 instances -->
    <g transform="translate(60.41088 37.004824)scale(0.102 -0.102)">
     <use xlink:href="#DejaVuSans-31"/>
     <use x="63.623047" xlink:href="#DejaVuSans-35"/>
     <use x="127.246094" xlink:href="#DejaVuSans-20"/>
     <use x="159.033203" xlink:href="#DejaVuSans-69"/>
     <use x="186.816406" xlink:href="#DejaVuSans-6e"/>
     <use x="250.195312" xlink:href="#DejaVuSans-73"/>
     <use x="302.294922" xlink:href="#DejaVuSans-74"/>
     <use x="341.503906" xlink:href="#DejaVuSans-61"/>
     <use x="402.783203" xlink:href="#DejaVuSans-6e"/>
     <use x="466.162109" xlink:href="#DejaVuSans-63"/>
     <use x="521.142578" xlink:href="#DejaVuSans-65"/>
     <use x="582.666016" xlink:href="#DejaVuSans-73"/>
    </g>
   </g>
   <g id="text_22">
    <!-- v2.4 -->
    <g style="fill:#808080;" transform="translate(187.233062 293.909432)scale(0.1 -0.1)">
     <use xlink:href="#DejaVuSans-76"/>
     <use x="59.179688" xlink:href="#DejaVuSans-32"/>
     <use x="122.802734" xlink:href="#DejaVuSans-2e"/>
     <use x="154.589844" xlink:href="#DejaVuSans-34"/>
    </g>
   </g>
  </g>
 </g>
 <defs>
  <clipPath id="p6e8b065f0e">
   <rect height="295.488" width="281.088" x="57.6" y="3.456"/>
  </clipPath>
 </defs>
</svg>
