<?xml version="1.0" encoding="utf-8" standalone="no"?>
<!DOCTYPE svg PUBLIC "-//W3C//DTD SVG 1.1//EN"
  "http://www.w3.org/Graphics/SVG/1.1/DTD/svg11.dtd">
<svg height="345.6pt" version="1.1" viewBox="0 0 460.8 345.6" width="460.8pt" xmlns="http://www.w3.org/2000/svg" xmlns:xlink="http://www.w3.org/1999/xlink">
 <metadata>
  <rdf:RDF xmlns:cc="http://creativecommons.org/ns#" xmlns:dc="http://purl.org/dc/elements/1.1/" xmlns:rdf="http://www.w3.org/1999/02/22-rdf-syntax-ns#">
   <cc:Work>
    <dc:type rdf:resource="http://purl.org/dc/dcmitype/StillImage"/>
    <dc:date>2021-04-20T11:31:30.585146</dc:date>
    <dc:format>image/svg+xml</dc:format>
    <dc:creator>
     <cc:Agent>
      <dc:title>Matplotlib v3.4.1, https://matplotlib.org/</dc:title>
     </cc:Agent>
    </dc:creator>
   </cc:Work>
  </rdf:RDF>
 </metadata>
 <defs>
  <style type="text/css">*{stroke-linecap:butt;stroke-linejoin:round;}</style>
 </defs>
 <g id="figure_1">
  <g id="patch_1">
   <path d="M 0 345.6 
L 460.8 345.6 
L 460.8 0 
L 0 0 
z
" style="fill:#ffffff;"/>
  </g>
  <g id="axes_1">
   <g id="patch_2">
    <path d="M 22.78 315.44 
L 453.192 315.44 
L 453.192 27.72 
L 22.78 27.72 
z
" style="fill:#ffffff;"/>
   </g>
   <g id="line2d_1">
    <path clip-path="url(#p321405ad14)" d="M 36.868282 173.282066 
L 91.085051 144.241305 
L 159.390103 137.344589 
L 252.074282 124.829876 
L 344.758461 103.57826 
L 437.442641 99.21493 
" style="fill:none;stroke:#f5deb3;stroke-linecap:square;stroke-width:10;"/>
    <defs>
     <path d="M 0 17.67767 
L 10.606602 0 
L 0 -17.67767 
L -10.606602 0 
z
" id="m54b485df29" style="stroke:#000000;stroke-linejoin:miter;"/>
    </defs>
    <g clip-path="url(#p321405ad14)">
     <use style="fill:#f5deb3;stroke:#000000;stroke-linejoin:miter;" x="36.868282" xlink:href="#m54b485df29" y="173.282066"/>
     <use style="fill:#f5deb3;stroke:#000000;stroke-linejoin:miter;" x="91.085051" xlink:href="#m54b485df29" y="144.241305"/>
     <use style="fill:#f5deb3;stroke:#000000;stroke-linejoin:miter;" x="159.390103" xlink:href="#m54b485df29" y="137.344589"/>
     <use style="fill:#f5deb3;stroke:#000000;stroke-linejoin:miter;" x="252.074282" xlink:href="#m54b485df29" y="124.829876"/>
     <use style="fill:#f5deb3;stroke:#000000;stroke-linejoin:miter;" x="344.758461" xlink:href="#m54b485df29" y="103.57826"/>
     <use style="fill:#f5deb3;stroke:#000000;stroke-linejoin:miter;" x="437.442641" xlink:href="#m54b485df29" y="99.21493"/>
    </g>
   </g>
   <g id="line2d_2">
    <defs>
     <path d="M -15 0 
L 15 0 
M 0 15 
L 0 -15 
" id="m2189233f79" style="stroke:#000000;stroke-width:5;"/>
    </defs>
    <g clip-path="url(#p321405ad14)">
     <use style="stroke:#000000;stroke-width:5;" x="252.074282" xlink:href="#m2189233f79" y="175.479265"/>
    </g>
   </g>
   <g id="line2d_3">
    <defs>
     <path d="M -15 0 
L 15 0 
M 0 15 
L 0 -15 
" id="mb77915bee1" style="stroke:#0000ff;stroke-width:5;"/>
    </defs>
    <g clip-path="url(#p321405ad14)">
     <use style="fill:#0000ff;stroke:#0000ff;stroke-width:5;" x="159.390103" xlink:href="#mb77915bee1" y="159.150099"/>
    </g>
   </g>
   <g id="line2d_4">
    <defs>
     <path d="M -15 0 
L 15 0 
M 0 15 
L 0 -15 
" id="m8e3e839942" style="stroke:#ff0000;stroke-width:5;"/>
    </defs>
    <g clip-path="url(#p321405ad14)">
     <use style="fill:#ff0000;stroke:#ff0000;stroke-width:5;" x="36.868282" xlink:href="#m8e3e839942" y="141.563383"/>
    </g>
   </g>
   <g id="line2d_5">
    <g clip-path="url(#p321405ad14)">
     <use style="fill:#ff0000;stroke:#ff0000;stroke-width:5;" x="91.085051" xlink:href="#m8e3e839942" y="140.971824"/>
    </g>
   </g>
   <g id="matplotlib.axis_1">
    <g id="xtick_1">
     <g id="line2d_6">
      <defs>
       <path d="M 0 0 
L 0 3.5 
" id="mbc484bb2e3" style="stroke:#000000;stroke-width:0.8;"/>
      </defs>
      <g>
       <use style="stroke:#000000;stroke-width:0.8;" x="36.868282" xlink:href="#mbc484bb2e3" y="315.44"/>
      </g>
     </g>
     <g id="text_1">
      <!-- 2 -->
      <g transform="translate(30.505782 337.636875)scale(0.2 -0.2)">
       <defs>
        <path d="M 1228 531 
L 3431 531 
L 3431 0 
L 469 0 
L 469 531 
Q 828 903 1448 1529 
Q 2069 2156 2228 2338 
Q 2531 2678 2651 2914 
Q 2772 3150 2772 3378 
Q 2772 3750 2511 3984 
Q 2250 4219 1831 4219 
Q 1534 4219 1204 4116 
Q 875 4013 500 3803 
L 500 4441 
Q 881 4594 1212 4672 
Q 1544 4750 1819 4750 
Q 2544 4750 2975 4387 
Q 3406 4025 3406 3419 
Q 3406 3131 3298 2873 
Q 3191 2616 2906 2266 
Q 2828 2175 2409 1742 
Q 1991 1309 1228 531 
z
" id="DejaVuSans-32" transform="scale(0.015625)"/>
       </defs>
       <use xlink:href="#DejaVuSans-32"/>
      </g>
     </g>
    </g>
    <g id="xtick_2">
     <g id="line2d_7">
      <g>
       <use style="stroke:#000000;stroke-width:0.8;" x="91.085051" xlink:href="#mbc484bb2e3" y="315.44"/>
      </g>
     </g>
     <g id="text_2">
      <!-- 3 -->
      <g transform="translate(84.722551 337.636875)scale(0.2 -0.2)">
       <defs>
        <path d="M 2597 2516 
Q 3050 2419 3304 2112 
Q 3559 1806 3559 1356 
Q 3559 666 3084 287 
Q 2609 -91 1734 -91 
Q 1441 -91 1130 -33 
Q 819 25 488 141 
L 488 750 
Q 750 597 1062 519 
Q 1375 441 1716 441 
Q 2309 441 2620 675 
Q 2931 909 2931 1356 
Q 2931 1769 2642 2001 
Q 2353 2234 1838 2234 
L 1294 2234 
L 1294 2753 
L 1863 2753 
Q 2328 2753 2575 2939 
Q 2822 3125 2822 3475 
Q 2822 3834 2567 4026 
Q 2313 4219 1838 4219 
Q 1578 4219 1281 4162 
Q 984 4106 628 3988 
L 628 4550 
Q 988 4650 1302 4700 
Q 1616 4750 1894 4750 
Q 2613 4750 3031 4423 
Q 3450 4097 3450 3541 
Q 3450 3153 3228 2886 
Q 3006 2619 2597 2516 
z
" id="DejaVuSans-33" transform="scale(0.015625)"/>
       </defs>
       <use xlink:href="#DejaVuSans-33"/>
      </g>
     </g>
    </g>
    <g id="xtick_3">
     <g id="line2d_8">
      <g>
       <use style="stroke:#000000;stroke-width:0.8;" x="159.390103" xlink:href="#mbc484bb2e3" y="315.44"/>
      </g>
     </g>
     <g id="text_3">
      <!-- 5 -->
      <g transform="translate(153.027603 337.636875)scale(0.2 -0.2)">
       <defs>
        <path d="M 691 4666 
L 3169 4666 
L 3169 4134 
L 1269 4134 
L 1269 2991 
Q 1406 3038 1543 3061 
Q 1681 3084 1819 3084 
Q 2600 3084 3056 2656 
Q 3513 2228 3513 1497 
Q 3513 744 3044 326 
Q 2575 -91 1722 -91 
Q 1428 -91 1123 -41 
Q 819 9 494 109 
L 494 744 
Q 775 591 1075 516 
Q 1375 441 1709 441 
Q 2250 441 2565 725 
Q 2881 1009 2881 1497 
Q 2881 1984 2565 2268 
Q 2250 2553 1709 2553 
Q 1456 2553 1204 2497 
Q 953 2441 691 2322 
L 691 4666 
z
" id="DejaVuSans-35" transform="scale(0.015625)"/>
       </defs>
       <use xlink:href="#DejaVuSans-35"/>
      </g>
     </g>
    </g>
    <g id="xtick_4">
     <g id="line2d_9">
      <g>
       <use style="stroke:#000000;stroke-width:0.8;" x="252.074282" xlink:href="#mbc484bb2e3" y="315.44"/>
      </g>
     </g>
     <g id="text_4">
      <!-- 10 -->
      <g transform="translate(239.349282 337.636875)scale(0.2 -0.2)">
       <defs>
        <path d="M 794 531 
L 1825 531 
L 1825 4091 
L 703 3866 
L 703 4441 
L 1819 4666 
L 2450 4666 
L 2450 531 
L 3481 531 
L 3481 0 
L 794 0 
L 794 531 
z
" id="DejaVuSans-31" transform="scale(0.015625)"/>
        <path d="M 2034 4250 
Q 1547 4250 1301 3770 
Q 1056 3291 1056 2328 
Q 1056 1369 1301 889 
Q 1547 409 2034 409 
Q 2525 409 2770 889 
Q 3016 1369 3016 2328 
Q 3016 3291 2770 3770 
Q 2525 4250 2034 4250 
z
M 2034 4750 
Q 2819 4750 3233 4129 
Q 3647 3509 3647 2328 
Q 3647 1150 3233 529 
Q 2819 -91 2034 -91 
Q 1250 -91 836 529 
Q 422 1150 422 2328 
Q 422 3509 836 4129 
Q 1250 4750 2034 4750 
z
" id="DejaVuSans-30" transform="scale(0.015625)"/>
       </defs>
       <use xlink:href="#DejaVuSans-31"/>
       <use x="63.623047" xlink:href="#DejaVuSans-30"/>
      </g>
     </g>
    </g>
    <g id="xtick_5">
     <g id="line2d_10">
      <g>
       <use style="stroke:#000000;stroke-width:0.8;" x="344.758461" xlink:href="#mbc484bb2e3" y="315.44"/>
      </g>
     </g>
     <g id="text_5">
      <!-- 20 -->
      <g transform="translate(332.033461 337.636875)scale(0.2 -0.2)">
       <use xlink:href="#DejaVuSans-32"/>
       <use x="63.623047" xlink:href="#DejaVuSans-30"/>
      </g>
     </g>
    </g>
    <g id="xtick_6">
     <g id="line2d_11">
      <g>
       <use style="stroke:#000000;stroke-width:0.8;" x="437.442641" xlink:href="#mbc484bb2e3" y="315.44"/>
      </g>
     </g>
     <g id="text_6">
      <!-- 40 -->
      <g transform="translate(424.717641 337.636875)scale(0.2 -0.2)">
       <defs>
        <path d="M 2419 4116 
L 825 1625 
L 2419 1625 
L 2419 4116 
z
M 2253 4666 
L 3047 4666 
L 3047 1625 
L 3713 1625 
L 3713 1100 
L 3047 1100 
L 3047 0 
L 2419 0 
L 2419 1100 
L 313 1100 
L 313 1709 
L 2253 4666 
z
" id="DejaVuSans-34" transform="scale(0.015625)"/>
       </defs>
       <use xlink:href="#DejaVuSans-34"/>
       <use x="63.623047" xlink:href="#DejaVuSans-30"/>
      </g>
     </g>
    </g>
    <g id="xtick_7">
     <g id="line2d_12">
      <defs>
       <path d="M 0 0 
L 0 2 
" id="m46f329272d" style="stroke:#000000;stroke-width:0.6;"/>
      </defs>
      <g>
       <use style="stroke:#000000;stroke-width:0.6;" x="129.552461" xlink:href="#m46f329272d" y="315.44"/>
      </g>
     </g>
    </g>
    <g id="xtick_8">
     <g id="line2d_13">
      <g>
       <use style="stroke:#000000;stroke-width:0.6;" x="183.769231" xlink:href="#m46f329272d" y="315.44"/>
      </g>
     </g>
    </g>
    <g id="xtick_9">
     <g id="line2d_14">
      <g>
       <use style="stroke:#000000;stroke-width:0.6;" x="204.38149" xlink:href="#m46f329272d" y="315.44"/>
      </g>
     </g>
    </g>
    <g id="xtick_10">
     <g id="line2d_15">
      <g>
       <use style="stroke:#000000;stroke-width:0.6;" x="222.236641" xlink:href="#m46f329272d" y="315.44"/>
      </g>
     </g>
    </g>
    <g id="xtick_11">
     <g id="line2d_16">
      <g>
       <use style="stroke:#000000;stroke-width:0.6;" x="237.986" xlink:href="#m46f329272d" y="315.44"/>
      </g>
     </g>
    </g>
    <g id="xtick_12">
     <g id="line2d_17">
      <g>
       <use style="stroke:#000000;stroke-width:0.6;" x="398.975231" xlink:href="#m46f329272d" y="315.44"/>
      </g>
     </g>
    </g>
   </g>
   <g id="matplotlib.axis_2">
    <g id="ytick_1">
     <g id="line2d_18">
      <path clip-path="url(#p321405ad14)" d="M 22.78 306.15871 
L 453.192 306.15871 
" style="fill:none;stroke:#b0b0b0;stroke-linecap:square;stroke-width:0.8;"/>
     </g>
     <g id="line2d_19">
      <defs>
       <path d="M 0 0 
L -3.5 0 
" id="m55935523dc" style="stroke:#000000;stroke-width:0.8;"/>
      </defs>
      <g>
       <use style="stroke:#000000;stroke-width:0.8;" x="22.78" xlink:href="#m55935523dc" y="306.15871"/>
      </g>
     </g>
     <g id="text_7">
      <!-- 0 -->
      <g transform="translate(3.055 313.757148)scale(0.2 -0.2)">
       <use xlink:href="#DejaVuSans-30"/>
      </g>
     </g>
    </g>
    <g id="ytick_2">
     <g id="line2d_20">
      <path clip-path="url(#p321405ad14)" d="M 22.78 259.752262 
L 453.192 259.752262 
" style="fill:none;stroke:#b0b0b0;stroke-linecap:square;stroke-width:0.8;"/>
     </g>
     <g id="line2d_21">
      <g>
       <use style="stroke:#000000;stroke-width:0.8;" x="22.78" xlink:href="#m55935523dc" y="259.752262"/>
      </g>
     </g>
     <g id="text_8">
      <!-- 1 -->
      <g transform="translate(3.055 267.350699)scale(0.2 -0.2)">
       <use xlink:href="#DejaVuSans-31"/>
      </g>
     </g>
    </g>
    <g id="ytick_3">
     <g id="line2d_22">
      <path clip-path="url(#p321405ad14)" d="M 22.78 213.345814 
L 453.192 213.345814 
" style="fill:none;stroke:#b0b0b0;stroke-linecap:square;stroke-width:0.8;"/>
     </g>
     <g id="line2d_23">
      <g>
       <use style="stroke:#000000;stroke-width:0.8;" x="22.78" xlink:href="#m55935523dc" y="213.345814"/>
      </g>
     </g>
     <g id="text_9">
      <!-- 2 -->
      <g transform="translate(3.055 220.944251)scale(0.2 -0.2)">
       <use xlink:href="#DejaVuSans-32"/>
      </g>
     </g>
    </g>
    <g id="ytick_4">
     <g id="line2d_24">
      <path clip-path="url(#p321405ad14)" d="M 22.78 166.939365 
L 453.192 166.939365 
" style="fill:none;stroke:#b0b0b0;stroke-linecap:square;stroke-width:0.8;"/>
     </g>
     <g id="line2d_25">
      <g>
       <use style="stroke:#000000;stroke-width:0.8;" x="22.78" xlink:href="#m55935523dc" y="166.939365"/>
      </g>
     </g>
     <g id="text_10">
      <!-- 3 -->
      <g transform="translate(3.055 174.537803)scale(0.2 -0.2)">
       <use xlink:href="#DejaVuSans-33"/>
      </g>
     </g>
    </g>
    <g id="ytick_5">
     <g id="line2d_26">
      <path clip-path="url(#p321405ad14)" d="M 22.78 120.532917 
L 453.192 120.532917 
" style="fill:none;stroke:#b0b0b0;stroke-linecap:square;stroke-width:0.8;"/>
     </g>
     <g id="line2d_27">
      <g>
       <use style="stroke:#000000;stroke-width:0.8;" x="22.78" xlink:href="#m55935523dc" y="120.532917"/>
      </g>
     </g>
     <g id="text_11">
      <!-- 4 -->
      <g transform="translate(3.055 128.131354)scale(0.2 -0.2)">
       <use xlink:href="#DejaVuSans-34"/>
      </g>
     </g>
    </g>
    <g id="ytick_6">
     <g id="line2d_28">
      <path clip-path="url(#p321405ad14)" d="M 22.78 74.126469 
L 453.192 74.126469 
" style="fill:none;stroke:#b0b0b0;stroke-linecap:square;stroke-width:0.8;"/>
     </g>
     <g id="line2d_29">
      <g>
       <use style="stroke:#000000;stroke-width:0.8;" x="22.78" xlink:href="#m55935523dc" y="74.126469"/>
      </g>
     </g>
     <g id="text_12">
      <!-- 5 -->
      <g transform="translate(3.055 81.724906)scale(0.2 -0.2)">
       <use xlink:href="#DejaVuSans-35"/>
      </g>
     </g>
    </g>
    <g id="ytick_7">
     <g id="line2d_30">
      <path clip-path="url(#p321405ad14)" d="M 22.78 27.72002 
L 453.192 27.72002 
" style="fill:none;stroke:#b0b0b0;stroke-linecap:square;stroke-width:0.8;"/>
     </g>
     <g id="line2d_31">
      <g>
       <use style="stroke:#000000;stroke-width:0.8;" x="22.78" xlink:href="#m55935523dc" y="27.72002"/>
      </g>
     </g>
     <g id="text_13">
      <!-- 6 -->
      <g transform="translate(3.055 35.318458)scale(0.2 -0.2)">
       <defs>
        <path d="M 2113 2584 
Q 1688 2584 1439 2293 
Q 1191 2003 1191 1497 
Q 1191 994 1439 701 
Q 1688 409 2113 409 
Q 2538 409 2786 701 
Q 3034 994 3034 1497 
Q 3034 2003 2786 2293 
Q 2538 2584 2113 2584 
z
M 3366 4563 
L 3366 3988 
Q 3128 4100 2886 4159 
Q 2644 4219 2406 4219 
Q 1781 4219 1451 3797 
Q 1122 3375 1075 2522 
Q 1259 2794 1537 2939 
Q 1816 3084 2150 3084 
Q 2853 3084 3261 2657 
Q 3669 2231 3669 1497 
Q 3669 778 3244 343 
Q 2819 -91 2113 -91 
Q 1303 -91 875 529 
Q 447 1150 447 2328 
Q 447 3434 972 4092 
Q 1497 4750 2381 4750 
Q 2619 4750 2861 4703 
Q 3103 4656 3366 4563 
z
" id="DejaVuSans-36" transform="scale(0.015625)"/>
       </defs>
       <use xlink:href="#DejaVuSans-36"/>
      </g>
     </g>
    </g>
   </g>
   <g id="line2d_32">
    <path clip-path="url(#p321405ad14)" d="M 33.682182 263.027679 
L 35.912452 229.664177 
L 33.682182 214.379582 
L 40.054382 214.379582 
L 37.824112 229.664177 
L 40.054382 263.027679 
L 33.682182 263.027679 
" style="fill:none;stroke:#000000;stroke-linecap:square;"/>
   </g>
   <g id="line2d_33">
    <path clip-path="url(#p321405ad14)" d="M 33.682182 263.027679 
L 40.054382 263.027679 
L 40.054382 214.379582 
L 33.682182 214.379582 
L 33.682182 263.027679 
" style="fill:none;"/>
    <defs>
     <path d="M 0 3 
C 0.795609 3 1.55874 2.683901 2.12132 2.12132 
C 2.683901 1.55874 3 0.795609 3 0 
C 3 -0.795609 2.683901 -1.55874 2.12132 -2.12132 
C 1.55874 -2.683901 0.795609 -3 0 -3 
C -0.795609 -3 -1.55874 -2.683901 -2.12132 -2.12132 
C -2.683901 -1.55874 -3 -0.795609 -3 0 
C -3 0.795609 -2.683901 1.55874 -2.12132 2.12132 
C -1.55874 2.683901 -0.795609 3 0 3 
z
" id="m376ea65807" style="stroke:#000000;stroke-width:2;"/>
    </defs>
    <g clip-path="url(#p321405ad14)">
     <use style="stroke:#000000;stroke-width:2;" x="33.682182" xlink:href="#m376ea65807" y="263.027679"/>
     <use style="stroke:#000000;stroke-width:2;" x="40.054382" xlink:href="#m376ea65807" y="263.027679"/>
     <use style="stroke:#000000;stroke-width:2;" x="40.054382" xlink:href="#m376ea65807" y="214.379582"/>
     <use style="stroke:#000000;stroke-width:2;" x="33.682182" xlink:href="#m376ea65807" y="214.379582"/>
     <use style="stroke:#000000;stroke-width:2;" x="33.682182" xlink:href="#m376ea65807" y="263.027679"/>
    </g>
   </g>
   <g id="line2d_34">
    <path clip-path="url(#p321405ad14)" d="M 33.682182 229.664177 
L 40.054382 229.664177 
" style="fill:none;stroke:#000000;stroke-linecap:square;stroke-width:2;"/>
   </g>
   <g id="line2d_35">
    <path clip-path="url(#p321405ad14)" d="M 87.898951 210.587545 
L 90.129221 208.187716 
L 87.898951 202.850061 
L 94.271152 202.850061 
L 92.040881 208.187716 
L 94.271152 210.587545 
L 87.898951 210.587545 
" style="fill:none;stroke:#000000;stroke-linecap:square;"/>
   </g>
   <g id="line2d_36">
    <path clip-path="url(#p321405ad14)" d="M 87.898951 210.587545 
L 94.271152 210.587545 
L 94.271152 202.850061 
L 87.898951 202.850061 
L 87.898951 210.587545 
" style="fill:none;"/>
    <g clip-path="url(#p321405ad14)">
     <use style="stroke:#000000;stroke-width:2;" x="87.898951" xlink:href="#m376ea65807" y="210.587545"/>
     <use style="stroke:#000000;stroke-width:2;" x="94.271152" xlink:href="#m376ea65807" y="210.587545"/>
     <use style="stroke:#000000;stroke-width:2;" x="94.271152" xlink:href="#m376ea65807" y="202.850061"/>
     <use style="stroke:#000000;stroke-width:2;" x="87.898951" xlink:href="#m376ea65807" y="202.850061"/>
     <use style="stroke:#000000;stroke-width:2;" x="87.898951" xlink:href="#m376ea65807" y="210.587545"/>
    </g>
   </g>
   <g id="line2d_37">
    <path clip-path="url(#p321405ad14)" d="M 87.898951 208.187716 
L 94.271152 208.187716 
" style="fill:none;stroke:#000000;stroke-linecap:square;stroke-width:2;"/>
   </g>
   <g id="line2d_38">
    <path clip-path="url(#p321405ad14)" d="M 156.204002 185.017126 
L 158.434273 180.640827 
L 156.204002 167.968891 
L 162.576203 167.968891 
L 160.345933 180.640827 
L 162.576203 185.017126 
L 156.204002 185.017126 
" style="fill:none;stroke:#000000;stroke-linecap:square;"/>
   </g>
   <g id="line2d_39">
    <path clip-path="url(#p321405ad14)" d="M 156.204002 185.017126 
L 162.576203 185.017126 
L 162.576203 167.968891 
L 156.204002 167.968891 
L 156.204002 185.017126 
" style="fill:none;"/>
    <g clip-path="url(#p321405ad14)">
     <use style="stroke:#000000;stroke-width:2;" x="156.204002" xlink:href="#m376ea65807" y="185.017126"/>
     <use style="stroke:#000000;stroke-width:2;" x="162.576203" xlink:href="#m376ea65807" y="185.017126"/>
     <use style="stroke:#000000;stroke-width:2;" x="162.576203" xlink:href="#m376ea65807" y="167.968891"/>
     <use style="stroke:#000000;stroke-width:2;" x="156.204002" xlink:href="#m376ea65807" y="167.968891"/>
     <use style="stroke:#000000;stroke-width:2;" x="156.204002" xlink:href="#m376ea65807" y="185.017126"/>
    </g>
   </g>
   <g id="line2d_40">
    <path clip-path="url(#p321405ad14)" d="M 156.204002 180.640827 
L 162.576203 180.640827 
" style="fill:none;stroke:#000000;stroke-linecap:square;stroke-width:2;"/>
   </g>
   <g id="line2d_41">
    <path clip-path="url(#p321405ad14)" d="M 248.888182 92.266299 
L 251.118452 81.127325 
L 248.888182 65.866938 
L 255.260382 65.866938 
L 253.030112 81.127325 
L 255.260382 92.266299 
L 248.888182 92.266299 
" style="fill:none;stroke:#000000;stroke-linecap:square;"/>
   </g>
   <g id="line2d_42">
    <path clip-path="url(#p321405ad14)" d="M 248.888182 92.266299 
L 255.260382 92.266299 
L 255.260382 65.866938 
L 248.888182 65.866938 
L 248.888182 92.266299 
" style="fill:none;"/>
    <g clip-path="url(#p321405ad14)">
     <use style="stroke:#000000;stroke-width:2;" x="248.888182" xlink:href="#m376ea65807" y="92.266299"/>
     <use style="stroke:#000000;stroke-width:2;" x="255.260382" xlink:href="#m376ea65807" y="92.266299"/>
     <use style="stroke:#000000;stroke-width:2;" x="255.260382" xlink:href="#m376ea65807" y="65.866938"/>
     <use style="stroke:#000000;stroke-width:2;" x="248.888182" xlink:href="#m376ea65807" y="65.866938"/>
     <use style="stroke:#000000;stroke-width:2;" x="248.888182" xlink:href="#m376ea65807" y="92.266299"/>
    </g>
   </g>
   <g id="line2d_43">
    <path clip-path="url(#p321405ad14)" d="M 248.888182 81.127325 
L 255.260382 81.127325 
" style="fill:none;stroke:#000000;stroke-linecap:square;stroke-width:2;"/>
   </g>
   <g id="line2d_44">
    <path clip-path="url(#p321405ad14)" d="M 36.868282 228.923135 
L 91.085051 207.615143 
" style="fill:none;stroke:#000000;stroke-linecap:square;stroke-width:4;"/>
   </g>
   <g id="line2d_45">
    <path clip-path="url(#p321405ad14)" d="M 91.085051 207.615143 
L 159.390103 165.319979 
" style="fill:none;stroke:#000000;stroke-linecap:square;stroke-width:4;"/>
   </g>
   <g id="line2d_46">
    <path clip-path="url(#p321405ad14)" d="M 159.390103 165.319979 
L 252.074282 81.127325 
" style="fill:none;stroke:#000000;stroke-linecap:square;stroke-width:4;"/>
   </g>
   <g id="line2d_47">
    <path clip-path="url(#p321405ad14)" d="M 36.868282 228.923135 
L 91.085051 207.615143 
L 159.390103 165.319979 
L 252.074282 81.127325 
" style="fill:none;"/>
    <defs>
     <path d="M 0 10 
C 2.652031 10 5.195799 8.946337 7.071068 7.071068 
C 8.946337 5.195799 10 2.652031 10 0 
C 10 -2.652031 8.946337 -5.195799 7.071068 -7.071068 
C 5.195799 -8.946337 2.652031 -10 0 -10 
C -2.652031 -10 -5.195799 -8.946337 -7.071068 -7.071068 
C -8.946337 -5.195799 -10 -2.652031 -10 0 
C -10 2.652031 -8.946337 5.195799 -7.071068 7.071068 
C -5.195799 8.946337 -2.652031 10 0 10 
z
" id="m2b4449d874" style="stroke:#000000;stroke-width:2;"/>
    </defs>
    <g clip-path="url(#p321405ad14)">
     <use style="stroke:#000000;stroke-width:2;" x="36.868282" xlink:href="#m2b4449d874" y="228.923135"/>
     <use style="stroke:#000000;stroke-width:2;" x="91.085051" xlink:href="#m2b4449d874" y="207.615143"/>
     <use style="stroke:#000000;stroke-width:2;" x="159.390103" xlink:href="#m2b4449d874" y="165.319979"/>
     <use style="stroke:#000000;stroke-width:2;" x="252.074282" xlink:href="#m2b4449d874" y="81.127325"/>
    </g>
   </g>
   <g id="line2d_48">
    <path clip-path="url(#p321405ad14)" d="M 32.620148 179.080029 
L 35.593842 172.011572 
L 32.620148 167.68875 
L 41.116416 167.68875 
L 38.142722 172.011572 
L 41.116416 179.080029 
L 32.620148 179.080029 
" style="fill:none;stroke:#0000ff;stroke-linecap:square;"/>
   </g>
   <g id="line2d_49">
    <path clip-path="url(#p321405ad14)" d="M 32.620148 179.080029 
L 41.116416 179.080029 
L 41.116416 167.68875 
L 32.620148 167.68875 
L 32.620148 179.080029 
" style="fill:none;"/>
    <defs>
     <path d="M 0 1.5 
C 0.397805 1.5 0.77937 1.341951 1.06066 1.06066 
C 1.341951 0.77937 1.5 0.397805 1.5 0 
C 1.5 -0.397805 1.341951 -0.77937 1.06066 -1.06066 
C 0.77937 -1.341951 0.397805 -1.5 0 -1.5 
C -0.397805 -1.5 -0.77937 -1.341951 -1.06066 -1.06066 
C -1.341951 -0.77937 -1.5 -0.397805 -1.5 0 
C -1.5 0.397805 -1.341951 0.77937 -1.06066 1.06066 
C -0.77937 1.341951 -0.397805 1.5 0 1.5 
z
" id="m63a9afdbc6" style="stroke:#0000ff;"/>
    </defs>
    <g clip-path="url(#p321405ad14)">
     <use style="fill:#0000ff;stroke:#0000ff;" x="32.620148" xlink:href="#m63a9afdbc6" y="179.080029"/>
     <use style="fill:#0000ff;stroke:#0000ff;" x="41.116416" xlink:href="#m63a9afdbc6" y="179.080029"/>
     <use style="fill:#0000ff;stroke:#0000ff;" x="41.116416" xlink:href="#m63a9afdbc6" y="167.68875"/>
     <use style="fill:#0000ff;stroke:#0000ff;" x="32.620148" xlink:href="#m63a9afdbc6" y="167.68875"/>
     <use style="fill:#0000ff;stroke:#0000ff;" x="32.620148" xlink:href="#m63a9afdbc6" y="179.080029"/>
    </g>
   </g>
   <g id="line2d_50">
    <path clip-path="url(#p321405ad14)" d="M 32.620148 172.011572 
L 41.116416 172.011572 
" style="fill:none;stroke:#0000ff;stroke-linecap:square;stroke-width:2;"/>
   </g>
   <g id="line2d_51">
    <path clip-path="url(#p321405ad14)" d="M 86.836918 160.009872 
L 89.810611 156.640122 
L 86.836918 155.830455 
L 95.333185 155.830455 
L 92.359491 156.640122 
L 95.333185 160.009872 
L 86.836918 160.009872 
" style="fill:none;stroke:#0000ff;stroke-linecap:square;"/>
   </g>
   <g id="line2d_52">
    <path clip-path="url(#p321405ad14)" d="M 86.836918 160.009872 
L 95.333185 160.009872 
L 95.333185 155.830455 
L 86.836918 155.830455 
L 86.836918 160.009872 
" style="fill:none;"/>
    <g clip-path="url(#p321405ad14)">
     <use style="fill:#0000ff;stroke:#0000ff;" x="86.836918" xlink:href="#m63a9afdbc6" y="160.009872"/>
     <use style="fill:#0000ff;stroke:#0000ff;" x="95.333185" xlink:href="#m63a9afdbc6" y="160.009872"/>
     <use style="fill:#0000ff;stroke:#0000ff;" x="95.333185" xlink:href="#m63a9afdbc6" y="155.830455"/>
     <use style="fill:#0000ff;stroke:#0000ff;" x="86.836918" xlink:href="#m63a9afdbc6" y="155.830455"/>
     <use style="fill:#0000ff;stroke:#0000ff;" x="86.836918" xlink:href="#m63a9afdbc6" y="160.009872"/>
    </g>
   </g>
   <g id="line2d_53">
    <path clip-path="url(#p321405ad14)" d="M 86.836918 156.640122 
L 95.333185 156.640122 
" style="fill:none;stroke:#0000ff;stroke-linecap:square;stroke-width:2;"/>
   </g>
   <g id="line2d_54">
    <path clip-path="url(#p321405ad14)" d="M 155.141969 156.836939 
L 158.115662 91.88815 
L 155.141969 78.267983 
L 163.638236 78.267983 
L 160.664543 91.88815 
L 163.638236 156.836939 
L 155.141969 156.836939 
" style="fill:none;stroke:#0000ff;stroke-linecap:square;"/>
   </g>
   <g id="line2d_55">
    <path clip-path="url(#p321405ad14)" d="M 155.141969 156.836939 
L 163.638236 156.836939 
L 163.638236 78.267983 
L 155.141969 78.267983 
L 155.141969 156.836939 
" style="fill:none;"/>
    <g clip-path="url(#p321405ad14)">
     <use style="fill:#0000ff;stroke:#0000ff;" x="155.141969" xlink:href="#m63a9afdbc6" y="156.836939"/>
     <use style="fill:#0000ff;stroke:#0000ff;" x="163.638236" xlink:href="#m63a9afdbc6" y="156.836939"/>
     <use style="fill:#0000ff;stroke:#0000ff;" x="163.638236" xlink:href="#m63a9afdbc6" y="78.267983"/>
     <use style="fill:#0000ff;stroke:#0000ff;" x="155.141969" xlink:href="#m63a9afdbc6" y="78.267983"/>
     <use style="fill:#0000ff;stroke:#0000ff;" x="155.141969" xlink:href="#m63a9afdbc6" y="156.836939"/>
    </g>
   </g>
   <g id="line2d_56">
    <path clip-path="url(#p321405ad14)" d="M 155.141969 91.88815 
L 163.638236 91.88815 
" style="fill:none;stroke:#0000ff;stroke-linecap:square;stroke-width:2;"/>
   </g>
   <g id="line2d_57">
    <path clip-path="url(#p321405ad14)" d="M 36.868282 173.985322 
L 91.085051 160.034975 
" style="fill:none;stroke:#0000ff;stroke-linecap:square;stroke-width:4;"/>
   </g>
   <g id="line2d_58">
    <path clip-path="url(#p321405ad14)" d="M 91.085051 160.034975 
L 159.390103 91.843861 
" style="fill:none;stroke:#0000ff;stroke-linecap:square;stroke-width:4;"/>
   </g>
   <g id="line2d_59">
    <path clip-path="url(#p321405ad14)" d="M 36.868282 173.985322 
L 91.085051 160.034975 
L 159.390103 91.843861 
" style="fill:none;"/>
    <defs>
     <path d="M 0 5 
C 1.326016 5 2.597899 4.473168 3.535534 3.535534 
C 4.473168 2.597899 5 1.326016 5 0 
C 5 -1.326016 4.473168 -2.597899 3.535534 -3.535534 
C 2.597899 -4.473168 1.326016 -5 0 -5 
C -1.326016 -5 -2.597899 -4.473168 -3.535534 -3.535534 
C -4.473168 -2.597899 -5 -1.326016 -5 0 
C -5 1.326016 -4.473168 2.597899 -3.535534 3.535534 
C -2.597899 4.473168 -1.326016 5 0 5 
z
" id="m266b59b43c" style="stroke:#0000ff;"/>
    </defs>
    <g clip-path="url(#p321405ad14)">
     <use style="fill:#0000ff;stroke:#0000ff;" x="36.868282" xlink:href="#m266b59b43c" y="173.985322"/>
     <use style="fill:#0000ff;stroke:#0000ff;" x="91.085051" xlink:href="#m266b59b43c" y="160.034975"/>
     <use style="fill:#0000ff;stroke:#0000ff;" x="159.390103" xlink:href="#m266b59b43c" y="91.843861"/>
    </g>
   </g>
   <g id="line2d_60">
    <path clip-path="url(#p321405ad14)" d="M 31.558115 179.209281 
L 35.275232 168.0422 
L 31.558115 162.506712 
L 42.178449 162.506712 
L 38.461332 168.0422 
L 42.178449 179.209281 
L 31.558115 179.209281 
" style="fill:none;stroke:#00bfbf;stroke-linecap:square;"/>
   </g>
   <g id="line2d_61">
    <path clip-path="url(#p321405ad14)" d="M 31.558115 179.209281 
L 42.178449 179.209281 
L 42.178449 162.506712 
L 31.558115 162.506712 
L 31.558115 179.209281 
" style="fill:none;"/>
    <defs>
     <path d="M -0 3 
L 3 -3 
L -3 -3 
z
" id="m59e68949ba" style="stroke:#00bfbf;stroke-linejoin:miter;stroke-width:2;"/>
    </defs>
    <g clip-path="url(#p321405ad14)">
     <use style="fill:#00bfbf;stroke:#00bfbf;stroke-linejoin:miter;stroke-width:2;" x="31.558115" xlink:href="#m59e68949ba" y="179.209281"/>
     <use style="fill:#00bfbf;stroke:#00bfbf;stroke-linejoin:miter;stroke-width:2;" x="42.178449" xlink:href="#m59e68949ba" y="179.209281"/>
     <use style="fill:#00bfbf;stroke:#00bfbf;stroke-linejoin:miter;stroke-width:2;" x="42.178449" xlink:href="#m59e68949ba" y="162.506712"/>
     <use style="fill:#00bfbf;stroke:#00bfbf;stroke-linejoin:miter;stroke-width:2;" x="31.558115" xlink:href="#m59e68949ba" y="162.506712"/>
     <use style="fill:#00bfbf;stroke:#00bfbf;stroke-linejoin:miter;stroke-width:2;" x="31.558115" xlink:href="#m59e68949ba" y="179.209281"/>
    </g>
   </g>
   <g id="line2d_62">
    <path clip-path="url(#p321405ad14)" d="M 31.558115 168.0422 
L 42.178449 168.0422 
" style="fill:none;stroke:#00bfbf;stroke-linecap:square;stroke-width:2;"/>
   </g>
   <g id="line2d_63">
    <path clip-path="url(#p321405ad14)" d="M 85.774884 153.673746 
L 89.492001 109.971621 
L 85.774884 97.188559 
L 96.395219 97.188559 
L 92.678101 109.971621 
L 96.395219 153.673746 
L 85.774884 153.673746 
" style="fill:none;stroke:#00bfbf;stroke-linecap:square;"/>
   </g>
   <g id="line2d_64">
    <path clip-path="url(#p321405ad14)" d="M 85.774884 153.673746 
L 96.395219 153.673746 
L 96.395219 97.188559 
L 85.774884 97.188559 
L 85.774884 153.673746 
" style="fill:none;"/>
    <g clip-path="url(#p321405ad14)">
     <use style="fill:#00bfbf;stroke:#00bfbf;stroke-linejoin:miter;stroke-width:2;" x="85.774884" xlink:href="#m59e68949ba" y="153.673746"/>
     <use style="fill:#00bfbf;stroke:#00bfbf;stroke-linejoin:miter;stroke-width:2;" x="96.395219" xlink:href="#m59e68949ba" y="153.673746"/>
     <use style="fill:#00bfbf;stroke:#00bfbf;stroke-linejoin:miter;stroke-width:2;" x="96.395219" xlink:href="#m59e68949ba" y="97.188559"/>
     <use style="fill:#00bfbf;stroke:#00bfbf;stroke-linejoin:miter;stroke-width:2;" x="85.774884" xlink:href="#m59e68949ba" y="97.188559"/>
     <use style="fill:#00bfbf;stroke:#00bfbf;stroke-linejoin:miter;stroke-width:2;" x="85.774884" xlink:href="#m59e68949ba" y="153.673746"/>
    </g>
   </g>
   <g id="line2d_65">
    <path clip-path="url(#p321405ad14)" d="M 85.774884 109.971621 
L 96.395219 109.971621 
" style="fill:none;stroke:#00bfbf;stroke-linecap:square;stroke-width:2;"/>
   </g>
   <g id="line2d_66">
    <path clip-path="url(#p321405ad14)" d="M 36.868282 133.216967 
L 91.085051 111.829438 
" style="fill:none;stroke:#00bfbf;stroke-linecap:square;stroke-width:4;"/>
   </g>
   <g id="line2d_67">
    <path clip-path="url(#p321405ad14)" d="M 36.868282 133.216967 
L 91.085051 111.829438 
" style="fill:none;"/>
    <defs>
     <path d="M -0 10 
L 10 -10 
L -10 -10 
z
" id="m5759d94538" style="stroke:#000000;stroke-linejoin:miter;stroke-width:2;"/>
    </defs>
    <g clip-path="url(#p321405ad14)">
     <use style="fill:#00bfbf;stroke:#000000;stroke-linejoin:miter;stroke-width:2;" x="36.868282" xlink:href="#m5759d94538" y="133.216967"/>
     <use style="fill:#00bfbf;stroke:#000000;stroke-linejoin:miter;stroke-width:2;" x="91.085051" xlink:href="#m5759d94538" y="111.829438"/>
    </g>
   </g>
   <g id="line2d_68">
    <path clip-path="url(#p321405ad14)" d="M 30.496081 165.622913 
L 34.956622 157.341311 
L 30.496081 109.077233 
L 43.240483 109.077233 
L 38.779942 157.341311 
L 43.240483 165.622913 
L 30.496081 165.622913 
" style="fill:none;stroke:#008000;stroke-linecap:square;"/>
   </g>
   <g id="line2d_69">
    <path clip-path="url(#p321405ad14)" d="M 30.496081 165.622913 
L 43.240483 165.622913 
L 43.240483 109.077233 
L 30.496081 109.077233 
L 30.496081 165.622913 
" style="fill:none;"/>
    <defs>
     <path d="M 0 1.5 
C 0.397805 1.5 0.77937 1.341951 1.06066 1.06066 
C 1.341951 0.77937 1.5 0.397805 1.5 0 
C 1.5 -0.397805 1.341951 -0.77937 1.06066 -1.06066 
C 0.77937 -1.341951 0.397805 -1.5 0 -1.5 
C -0.397805 -1.5 -0.77937 -1.341951 -1.06066 -1.06066 
C -1.341951 -0.77937 -1.5 -0.397805 -1.5 0 
C -1.5 0.397805 -1.341951 0.77937 -1.06066 1.06066 
C -0.77937 1.341951 -0.397805 1.5 0 1.5 
z
" id="m263a62d14d" style="stroke:#008000;"/>
    </defs>
    <g clip-path="url(#p321405ad14)">
     <use style="fill:#008000;stroke:#008000;" x="30.496081" xlink:href="#m263a62d14d" y="165.622913"/>
     <use style="fill:#008000;stroke:#008000;" x="43.240483" xlink:href="#m263a62d14d" y="165.622913"/>
     <use style="fill:#008000;stroke:#008000;" x="43.240483" xlink:href="#m263a62d14d" y="109.077233"/>
     <use style="fill:#008000;stroke:#008000;" x="30.496081" xlink:href="#m263a62d14d" y="109.077233"/>
     <use style="fill:#008000;stroke:#008000;" x="30.496081" xlink:href="#m263a62d14d" y="165.622913"/>
    </g>
   </g>
   <g id="line2d_70">
    <path clip-path="url(#p321405ad14)" d="M 30.496081 157.341311 
L 43.240483 157.341311 
" style="fill:none;stroke:#008000;stroke-linecap:square;stroke-width:2;"/>
   </g>
   <g id="line2d_71">
    <path clip-path="url(#p321405ad14)" d="M 84.712851 156.170105 
L 89.173391 109.936645 
L 84.712851 108.273258 
L 97.457252 108.273258 
L 92.996711 109.936645 
L 97.457252 156.170105 
L 84.712851 156.170105 
" style="fill:none;stroke:#008000;stroke-linecap:square;"/>
   </g>
   <g id="line2d_72">
    <path clip-path="url(#p321405ad14)" d="M 84.712851 156.170105 
L 97.457252 156.170105 
L 97.457252 108.273258 
L 84.712851 108.273258 
L 84.712851 156.170105 
" style="fill:none;"/>
    <g clip-path="url(#p321405ad14)">
     <use style="fill:#008000;stroke:#008000;" x="84.712851" xlink:href="#m263a62d14d" y="156.170105"/>
     <use style="fill:#008000;stroke:#008000;" x="97.457252" xlink:href="#m263a62d14d" y="156.170105"/>
     <use style="fill:#008000;stroke:#008000;" x="97.457252" xlink:href="#m263a62d14d" y="108.273258"/>
     <use style="fill:#008000;stroke:#008000;" x="84.712851" xlink:href="#m263a62d14d" y="108.273258"/>
     <use style="fill:#008000;stroke:#008000;" x="84.712851" xlink:href="#m263a62d14d" y="156.170105"/>
    </g>
   </g>
   <g id="line2d_73">
    <path clip-path="url(#p321405ad14)" d="M 84.712851 109.936645 
L 97.457252 109.936645 
" style="fill:none;stroke:#008000;stroke-linecap:square;stroke-width:2;"/>
   </g>
   <g id="line2d_74">
    <path clip-path="url(#p321405ad14)" d="M 36.868282 131.725224 
L 91.085051 111.402202 
" style="fill:none;stroke:#008000;stroke-linecap:square;stroke-width:4;"/>
   </g>
   <g id="line2d_75">
    <path clip-path="url(#p321405ad14)" d="M 36.868282 131.725224 
L 91.085051 111.402202 
" style="fill:none;"/>
    <defs>
     <path d="M 0 5 
C 1.326016 5 2.597899 4.473168 3.535534 3.535534 
C 4.473168 2.597899 5 1.326016 5 0 
C 5 -1.326016 4.473168 -2.597899 3.535534 -3.535534 
C 2.597899 -4.473168 1.326016 -5 0 -5 
C -1.326016 -5 -2.597899 -4.473168 -3.535534 -3.535534 
C -4.473168 -2.597899 -5 -1.326016 -5 0 
C -5 1.326016 -4.473168 2.597899 -3.535534 3.535534 
C -2.597899 4.473168 -1.326016 5 0 5 
z
" id="m6076b631cd" style="stroke:#008000;"/>
    </defs>
    <g clip-path="url(#p321405ad14)">
     <use style="fill:#008000;stroke:#008000;" x="36.868282" xlink:href="#m6076b631cd" y="131.725224"/>
     <use style="fill:#008000;stroke:#008000;" x="91.085051" xlink:href="#m6076b631cd" y="111.402202"/>
    </g>
   </g>
   <g id="line2d_76">
    <path clip-path="url(#p321405ad14)" d="M 29.434048 162.11427 
L 34.638012 157.784275 
L 29.434048 146.746649 
L 44.302516 146.746649 
L 39.098552 157.784275 
L 44.302516 162.11427 
L 29.434048 162.11427 
" style="fill:none;stroke:#bfbf00;stroke-linecap:square;"/>
   </g>
   <g id="line2d_77">
    <path clip-path="url(#p321405ad14)" d="M 29.434048 162.11427 
L 44.302516 162.11427 
L 44.302516 146.746649 
L 29.434048 146.746649 
L 29.434048 162.11427 
" style="fill:none;"/>
    <defs>
     <path d="M 0 -3 
L -3 3 
L 3 3 
z
" id="mb99a8770f4" style="stroke:#bfbf00;stroke-linejoin:miter;stroke-width:2;"/>
    </defs>
    <g clip-path="url(#p321405ad14)">
     <use style="fill:#bfbf00;stroke:#bfbf00;stroke-linejoin:miter;stroke-width:2;" x="29.434048" xlink:href="#mb99a8770f4" y="162.11427"/>
     <use style="fill:#bfbf00;stroke:#bfbf00;stroke-linejoin:miter;stroke-width:2;" x="44.302516" xlink:href="#mb99a8770f4" y="162.11427"/>
     <use style="fill:#bfbf00;stroke:#bfbf00;stroke-linejoin:miter;stroke-width:2;" x="44.302516" xlink:href="#mb99a8770f4" y="146.746649"/>
     <use style="fill:#bfbf00;stroke:#bfbf00;stroke-linejoin:miter;stroke-width:2;" x="29.434048" xlink:href="#mb99a8770f4" y="146.746649"/>
     <use style="fill:#bfbf00;stroke:#bfbf00;stroke-linejoin:miter;stroke-width:2;" x="29.434048" xlink:href="#mb99a8770f4" y="162.11427"/>
    </g>
   </g>
   <g id="line2d_78">
    <path clip-path="url(#p321405ad14)" d="M 29.434048 157.784275 
L 44.302516 157.784275 
" style="fill:none;stroke:#bfbf00;stroke-linecap:square;stroke-width:2;"/>
   </g>
   <g id="line2d_79">
    <path clip-path="url(#p321405ad14)" d="M 83.650817 151.807956 
L 88.854781 124.793492 
L 83.650817 108.490891 
L 98.519285 108.490891 
L 93.315322 124.793492 
L 98.519285 151.807956 
L 83.650817 151.807956 
" style="fill:none;stroke:#bfbf00;stroke-linecap:square;"/>
   </g>
   <g id="line2d_80">
    <path clip-path="url(#p321405ad14)" d="M 83.650817 151.807956 
L 98.519285 151.807956 
L 98.519285 108.490891 
L 83.650817 108.490891 
L 83.650817 151.807956 
" style="fill:none;"/>
    <g clip-path="url(#p321405ad14)">
     <use style="fill:#bfbf00;stroke:#bfbf00;stroke-linejoin:miter;stroke-width:2;" x="83.650817" xlink:href="#mb99a8770f4" y="151.807956"/>
     <use style="fill:#bfbf00;stroke:#bfbf00;stroke-linejoin:miter;stroke-width:2;" x="98.519285" xlink:href="#mb99a8770f4" y="151.807956"/>
     <use style="fill:#bfbf00;stroke:#bfbf00;stroke-linejoin:miter;stroke-width:2;" x="98.519285" xlink:href="#mb99a8770f4" y="108.490891"/>
     <use style="fill:#bfbf00;stroke:#bfbf00;stroke-linejoin:miter;stroke-width:2;" x="83.650817" xlink:href="#mb99a8770f4" y="108.490891"/>
     <use style="fill:#bfbf00;stroke:#bfbf00;stroke-linejoin:miter;stroke-width:2;" x="83.650817" xlink:href="#mb99a8770f4" y="151.807956"/>
    </g>
   </g>
   <g id="line2d_81">
    <path clip-path="url(#p321405ad14)" d="M 83.650817 124.793492 
L 98.519285 124.793492 
" style="fill:none;stroke:#bfbf00;stroke-linecap:square;stroke-width:2;"/>
   </g>
   <g id="line2d_82">
    <path clip-path="url(#p321405ad14)" d="M 36.868282 130.326494 
L 91.085051 111.136903 
" style="fill:none;stroke:#bfbf00;stroke-linecap:square;stroke-width:4;"/>
   </g>
   <g id="line2d_83">
    <path clip-path="url(#p321405ad14)" d="M 36.868282 130.326494 
L 91.085051 111.136903 
" style="fill:none;"/>
    <defs>
     <path d="M 0 -10 
L -10 10 
L 10 10 
z
" id="ma62719bd40" style="stroke:#000000;stroke-linejoin:miter;stroke-width:2;"/>
    </defs>
    <g clip-path="url(#p321405ad14)">
     <use style="fill:#bfbf00;stroke:#000000;stroke-linejoin:miter;stroke-width:2;" x="36.868282" xlink:href="#ma62719bd40" y="130.326494"/>
     <use style="fill:#bfbf00;stroke:#000000;stroke-linejoin:miter;stroke-width:2;" x="91.085051" xlink:href="#ma62719bd40" y="111.136903"/>
    </g>
   </g>
   <g id="line2d_84">
    <path clip-path="url(#p321405ad14)" d="M 28.372014 151.629594 
L 34.319402 150.061063 
L 28.372014 144.395466 
L 45.364549 144.395466 
L 39.417162 150.061063 
L 45.364549 151.629594 
L 28.372014 151.629594 
" style="fill:none;stroke:#bf00bf;stroke-linecap:square;"/>
   </g>
   <g id="line2d_85">
    <path clip-path="url(#p321405ad14)" d="M 28.372014 151.629594 
L 45.364549 151.629594 
L 45.364549 144.395466 
L 28.372014 144.395466 
L 28.372014 151.629594 
" style="fill:none;"/>
    <defs>
     <path d="M 0 1.5 
C 0.397805 1.5 0.77937 1.341951 1.06066 1.06066 
C 1.341951 0.77937 1.5 0.397805 1.5 0 
C 1.5 -0.397805 1.341951 -0.77937 1.06066 -1.06066 
C 0.77937 -1.341951 0.397805 -1.5 0 -1.5 
C -0.397805 -1.5 -0.77937 -1.341951 -1.06066 -1.06066 
C -1.341951 -0.77937 -1.5 -0.397805 -1.5 0 
C -1.5 0.397805 -1.341951 0.77937 -1.06066 1.06066 
C -0.77937 1.341951 -0.397805 1.5 0 1.5 
z
" id="m904faa01d5" style="stroke:#bf00bf;"/>
    </defs>
    <g clip-path="url(#p321405ad14)">
     <use style="fill:#bf00bf;stroke:#bf00bf;" x="28.372014" xlink:href="#m904faa01d5" y="151.629594"/>
     <use style="fill:#bf00bf;stroke:#bf00bf;" x="45.364549" xlink:href="#m904faa01d5" y="151.629594"/>
     <use style="fill:#bf00bf;stroke:#bf00bf;" x="45.364549" xlink:href="#m904faa01d5" y="144.395466"/>
     <use style="fill:#bf00bf;stroke:#bf00bf;" x="28.372014" xlink:href="#m904faa01d5" y="144.395466"/>
     <use style="fill:#bf00bf;stroke:#bf00bf;" x="28.372014" xlink:href="#m904faa01d5" y="151.629594"/>
    </g>
   </g>
   <g id="line2d_86">
    <path clip-path="url(#p321405ad14)" d="M 28.372014 150.061063 
L 45.364549 150.061063 
" style="fill:none;stroke:#bf00bf;stroke-linecap:square;stroke-width:2;"/>
   </g>
   <g id="line2d_87">
    <path clip-path="url(#p321405ad14)" d="M 82.588784 148.20809 
L 88.536171 119.172774 
L 82.588784 107.296538 
L 99.581319 107.296538 
L 93.633932 119.172774 
L 99.581319 148.20809 
L 82.588784 148.20809 
" style="fill:none;stroke:#bf00bf;stroke-linecap:square;"/>
   </g>
   <g id="line2d_88">
    <path clip-path="url(#p321405ad14)" d="M 82.588784 148.20809 
L 99.581319 148.20809 
L 99.581319 107.296538 
L 82.588784 107.296538 
L 82.588784 148.20809 
" style="fill:none;"/>
    <g clip-path="url(#p321405ad14)">
     <use style="fill:#bf00bf;stroke:#bf00bf;" x="82.588784" xlink:href="#m904faa01d5" y="148.20809"/>
     <use style="fill:#bf00bf;stroke:#bf00bf;" x="99.581319" xlink:href="#m904faa01d5" y="148.20809"/>
     <use style="fill:#bf00bf;stroke:#bf00bf;" x="99.581319" xlink:href="#m904faa01d5" y="107.296538"/>
     <use style="fill:#bf00bf;stroke:#bf00bf;" x="82.588784" xlink:href="#m904faa01d5" y="107.296538"/>
     <use style="fill:#bf00bf;stroke:#bf00bf;" x="82.588784" xlink:href="#m904faa01d5" y="148.20809"/>
    </g>
   </g>
   <g id="line2d_89">
    <path clip-path="url(#p321405ad14)" d="M 82.588784 119.172774 
L 99.581319 119.172774 
" style="fill:none;stroke:#bf00bf;stroke-linecap:square;stroke-width:2;"/>
   </g>
   <g id="line2d_90">
    <path clip-path="url(#p321405ad14)" d="M 36.868282 128.458268 
L 91.085051 107.955425 
" style="fill:none;stroke:#bf00bf;stroke-linecap:square;stroke-width:4;"/>
   </g>
   <g id="line2d_91">
    <path clip-path="url(#p321405ad14)" d="M 36.868282 128.458268 
L 91.085051 107.955425 
" style="fill:none;"/>
    <defs>
     <path d="M 0 5 
C 1.326016 5 2.597899 4.473168 3.535534 3.535534 
C 4.473168 2.597899 5 1.326016 5 0 
C 5 -1.326016 4.473168 -2.597899 3.535534 -3.535534 
C 2.597899 -4.473168 1.326016 -5 0 -5 
C -1.326016 -5 -2.597899 -4.473168 -3.535534 -3.535534 
C -4.473168 -2.597899 -5 -1.326016 -5 0 
C -5 1.326016 -4.473168 2.597899 -3.535534 3.535534 
C -2.597899 4.473168 -1.326016 5 0 5 
z
" id="m412b8a68f2" style="stroke:#bf00bf;"/>
    </defs>
    <g clip-path="url(#p321405ad14)">
     <use style="fill:#bf00bf;stroke:#bf00bf;" x="36.868282" xlink:href="#m412b8a68f2" y="128.458268"/>
     <use style="fill:#bf00bf;stroke:#bf00bf;" x="91.085051" xlink:href="#m412b8a68f2" y="107.955425"/>
    </g>
   </g>
   <g id="line2d_92">
    <path clip-path="url(#p321405ad14)" d="M 27.309981 144.491179 
L 34.000792 143.683806 
L 27.309981 139.484334 
L 46.426583 139.484334 
L 39.735772 143.683806 
L 46.426583 144.491179 
L 27.309981 144.491179 
" style="fill:none;stroke:#ff0000;stroke-linecap:square;"/>
   </g>
   <g id="line2d_93">
    <path clip-path="url(#p321405ad14)" d="M 27.309981 144.491179 
L 46.426583 144.491179 
L 46.426583 139.484334 
L 27.309981 139.484334 
L 27.309981 144.491179 
" style="fill:none;"/>
    <defs>
     <path d="M 0 3 
C 0.795609 3 1.55874 2.683901 2.12132 2.12132 
C 2.683901 1.55874 3 0.795609 3 0 
C 3 -0.795609 2.683901 -1.55874 2.12132 -2.12132 
C 1.55874 -2.683901 0.795609 -3 0 -3 
C -0.795609 -3 -1.55874 -2.683901 -2.12132 -2.12132 
C -2.683901 -1.55874 -3 -0.795609 -3 0 
C -3 0.795609 -2.683901 1.55874 -2.12132 2.12132 
C -1.55874 2.683901 -0.795609 3 0 3 
z
" id="m99f8fcebc8" style="stroke:#ff0000;stroke-width:2;"/>
    </defs>
    <g clip-path="url(#p321405ad14)">
     <use style="fill:#ff0000;stroke:#ff0000;stroke-width:2;" x="27.309981" xlink:href="#m99f8fcebc8" y="144.491179"/>
     <use style="fill:#ff0000;stroke:#ff0000;stroke-width:2;" x="46.426583" xlink:href="#m99f8fcebc8" y="144.491179"/>
     <use style="fill:#ff0000;stroke:#ff0000;stroke-width:2;" x="46.426583" xlink:href="#m99f8fcebc8" y="139.484334"/>
     <use style="fill:#ff0000;stroke:#ff0000;stroke-width:2;" x="27.309981" xlink:href="#m99f8fcebc8" y="139.484334"/>
     <use style="fill:#ff0000;stroke:#ff0000;stroke-width:2;" x="27.309981" xlink:href="#m99f8fcebc8" y="144.491179"/>
    </g>
   </g>
   <g id="line2d_94">
    <path clip-path="url(#p321405ad14)" d="M 27.309981 143.683806 
L 46.426583 143.683806 
" style="fill:none;stroke:#ff0000;stroke-linecap:square;stroke-width:2;"/>
   </g>
   <g id="line2d_95">
    <path clip-path="url(#p321405ad14)" d="M 81.52675 141.469666 
L 88.217561 139.198214 
L 81.52675 106.357324 
L 100.643352 106.357324 
L 93.952542 139.198214 
L 100.643352 141.469666 
L 81.52675 141.469666 
" style="fill:none;stroke:#ff0000;stroke-linecap:square;"/>
   </g>
   <g id="line2d_96">
    <path clip-path="url(#p321405ad14)" d="M 81.52675 141.469666 
L 100.643352 141.469666 
L 100.643352 106.357324 
L 81.52675 106.357324 
L 81.52675 141.469666 
" style="fill:none;"/>
    <g clip-path="url(#p321405ad14)">
     <use style="fill:#ff0000;stroke:#ff0000;stroke-width:2;" x="81.52675" xlink:href="#m99f8fcebc8" y="141.469666"/>
     <use style="fill:#ff0000;stroke:#ff0000;stroke-width:2;" x="100.643352" xlink:href="#m99f8fcebc8" y="141.469666"/>
     <use style="fill:#ff0000;stroke:#ff0000;stroke-width:2;" x="100.643352" xlink:href="#m99f8fcebc8" y="106.357324"/>
     <use style="fill:#ff0000;stroke:#ff0000;stroke-width:2;" x="81.52675" xlink:href="#m99f8fcebc8" y="106.357324"/>
     <use style="fill:#ff0000;stroke:#ff0000;stroke-width:2;" x="81.52675" xlink:href="#m99f8fcebc8" y="141.469666"/>
    </g>
   </g>
   <g id="line2d_97">
    <path clip-path="url(#p321405ad14)" d="M 81.52675 139.198214 
L 100.643352 139.198214 
" style="fill:none;stroke:#ff0000;stroke-linecap:square;stroke-width:2;"/>
   </g>
   <g id="line2d_98">
    <path clip-path="url(#p321405ad14)" d="M 36.868282 125.280765 
L 91.085051 107.098304 
" style="fill:none;stroke:#ff0000;stroke-linecap:square;stroke-width:4;"/>
   </g>
   <g id="line2d_99">
    <path clip-path="url(#p321405ad14)" d="M 36.868282 125.280765 
L 91.085051 107.098304 
" style="fill:none;"/>
    <defs>
     <path d="M 0 10 
C 2.652031 10 5.195799 8.946337 7.071068 7.071068 
C 8.946337 5.195799 10 2.652031 10 0 
C 10 -2.652031 8.946337 -5.195799 7.071068 -7.071068 
C 5.195799 -8.946337 2.652031 -10 0 -10 
C -2.652031 -10 -5.195799 -8.946337 -7.071068 -7.071068 
C -8.946337 -5.195799 -10 -2.652031 -10 0 
C -10 2.652031 -8.946337 5.195799 -7.071068 7.071068 
C -5.195799 8.946337 -2.652031 10 0 10 
z
" id="ma318844fce" style="stroke:#000000;stroke-width:2;"/>
    </defs>
    <g clip-path="url(#p321405ad14)">
     <use style="fill:#ff0000;stroke:#000000;stroke-width:2;" x="36.868282" xlink:href="#ma318844fce" y="125.280765"/>
     <use style="fill:#ff0000;stroke:#000000;stroke-width:2;" x="91.085051" xlink:href="#ma318844fce" y="107.098304"/>
    </g>
   </g>
   <g id="line2d_100"/>
   <g id="line2d_101"/>
   <g id="line2d_102"/>
   <g id="line2d_103"/>
   <g id="line2d_104"/>
   <g id="line2d_105"/>
   <g id="line2d_106"/>
   <g id="line2d_107">
    <defs>
     <path d="M -10 10 
L 10 -10 
M -10 -10 
L 10 10 
" id="m91892126c0" style="stroke:#ff0000;"/>
    </defs>
    <g clip-path="url(#p321405ad14)">
     <use style="fill:#ff0000;stroke:#ff0000;" x="36.868282" xlink:href="#m91892126c0" y="102.065934"/>
     <use style="fill:#ff0000;stroke:#ff0000;" x="91.085051" xlink:href="#m91892126c0" y="110.237704"/>
     <use style="fill:#ff0000;stroke:#ff0000;" x="159.390103" xlink:href="#m91892126c0" y="120.532917"/>
     <use style="fill:#ff0000;stroke:#ff0000;" x="252.074282" xlink:href="#m91892126c0" y="134.50265"/>
     <use style="fill:#ff0000;stroke:#ff0000;" x="344.758461" xlink:href="#m91892126c0" y="148.472383"/>
     <use style="fill:#ff0000;stroke:#ff0000;" x="437.442641" xlink:href="#m91892126c0" y="162.442116"/>
    </g>
   </g>
   <g id="line2d_108">
    <path clip-path="url(#p321405ad14)" d="M 76.444975 346.6 
L 461.8 288.517738 
" style="fill:none;stroke:#000000;stroke-dasharray:0.5,0.825;stroke-dashoffset:0;stroke-width:0.5;"/>
   </g>
   <g id="line2d_109">
    <path clip-path="url(#p321405ad14)" d="M -1 265.459922 
L 461.8 195.704841 
" style="fill:none;stroke:#000000;stroke-dasharray:0.5,0.825;stroke-dashoffset:0;stroke-width:0.5;"/>
   </g>
   <g id="line2d_110">
    <path clip-path="url(#p321405ad14)" d="M -1 172.647025 
L 461.8 102.891945 
" style="fill:none;stroke:#000000;stroke-dasharray:0.5,0.825;stroke-dashoffset:0;stroke-width:0.5;"/>
   </g>
   <g id="line2d_111">
    <path clip-path="url(#p321405ad14)" d="M -1 79.834129 
L 461.8 10.079048 
" style="fill:none;stroke:#000000;stroke-dasharray:0.5,0.825;stroke-dashoffset:0;stroke-width:0.5;"/>
   </g>
   <g id="line2d_112">
    <path clip-path="url(#p321405ad14)" style="fill:none;stroke:#000000;stroke-dasharray:0.5,0.825;stroke-dashoffset:0;stroke-width:0.5;"/>
   </g>
   <g id="patch_3">
    <path d="M 22.78 315.44 
L 22.78 27.72 
" style="fill:none;stroke:#000000;stroke-linecap:square;stroke-linejoin:miter;stroke-width:0.8;"/>
   </g>
   <g id="patch_4">
    <path d="M 453.192 315.44 
L 453.192 27.72 
" style="fill:none;stroke:#000000;stroke-linecap:square;stroke-linejoin:miter;stroke-width:0.8;"/>
   </g>
   <g id="patch_5">
    <path d="M 22.78 315.44 
L 453.192 315.44 
" style="fill:none;stroke:#000000;stroke-linecap:square;stroke-linejoin:miter;stroke-width:0.8;"/>
   </g>
   <g id="patch_6">
    <path d="M 22.78 27.72 
L 453.192 27.72 
" style="fill:none;stroke:#000000;stroke-linecap:square;stroke-linejoin:miter;stroke-width:0.8;"/>
   </g>
   <g id="text_14">
    <!-- 1 -->
    <g transform="translate(246.666157 69.420086)scale(0.17 -0.17)">
     <use xlink:href="#DejaVuSans-31"/>
    </g>
   </g>
   <g id="text_15">
    <!-- 3 -->
    <g transform="translate(153.981978 80.136622)scale(0.17 -0.17)">
     <use xlink:href="#DejaVuSans-33"/>
    </g>
   </g>
   <g id="text_16">
    <!-- 14 -->
    <g transform="translate(26.052032 113.573526)scale(0.17 -0.17)">
     <use xlink:href="#DejaVuSans-31"/>
     <use x="63.623047" xlink:href="#DejaVuSans-34"/>
    </g>
   </g>
   <g id="text_17">
    <!-- 8 -->
    <g transform="translate(85.676926 95.391065)scale(0.17 -0.17)">
     <defs>
      <path d="M 2034 2216 
Q 1584 2216 1326 1975 
Q 1069 1734 1069 1313 
Q 1069 891 1326 650 
Q 1584 409 2034 409 
Q 2484 409 2743 651 
Q 3003 894 3003 1313 
Q 3003 1734 2745 1975 
Q 2488 2216 2034 2216 
z
M 1403 2484 
Q 997 2584 770 2862 
Q 544 3141 544 3541 
Q 544 4100 942 4425 
Q 1341 4750 2034 4750 
Q 2731 4750 3128 4425 
Q 3525 4100 3525 3541 
Q 3525 3141 3298 2862 
Q 3072 2584 2669 2484 
Q 3125 2378 3379 2068 
Q 3634 1759 3634 1313 
Q 3634 634 3220 271 
Q 2806 -91 2034 -91 
Q 1263 -91 848 271 
Q 434 634 434 1313 
Q 434 1759 690 2068 
Q 947 2378 1403 2484 
z
M 1172 3481 
Q 1172 3119 1398 2916 
Q 1625 2713 2034 2713 
Q 2441 2713 2670 2916 
Q 2900 3119 2900 3481 
Q 2900 3844 2670 4047 
Q 2441 4250 2034 4250 
Q 1625 4250 1398 4047 
Q 1172 3844 1172 3481 
z
" id="DejaVuSans-38" transform="scale(0.015625)"/>
     </defs>
     <use xlink:href="#DejaVuSans-38"/>
    </g>
   </g>
   <g id="text_18">
    <!-- 15 instances -->
    <g transform="translate(22.78 296.8515)scale(0.14 -0.14)">
     <defs>
      <path id="DejaVuSans-20" transform="scale(0.015625)"/>
      <path d="M 603 3500 
L 1178 3500 
L 1178 0 
L 603 0 
L 603 3500 
z
M 603 4863 
L 1178 4863 
L 1178 4134 
L 603 4134 
L 603 4863 
z
" id="DejaVuSans-69" transform="scale(0.015625)"/>
      <path d="M 3513 2113 
L 3513 0 
L 2938 0 
L 2938 2094 
Q 2938 2591 2744 2837 
Q 2550 3084 2163 3084 
Q 1697 3084 1428 2787 
Q 1159 2491 1159 1978 
L 1159 0 
L 581 0 
L 581 3500 
L 1159 3500 
L 1159 2956 
Q 1366 3272 1645 3428 
Q 1925 3584 2291 3584 
Q 2894 3584 3203 3211 
Q 3513 2838 3513 2113 
z
" id="DejaVuSans-6e" transform="scale(0.015625)"/>
      <path d="M 2834 3397 
L 2834 2853 
Q 2591 2978 2328 3040 
Q 2066 3103 1784 3103 
Q 1356 3103 1142 2972 
Q 928 2841 928 2578 
Q 928 2378 1081 2264 
Q 1234 2150 1697 2047 
L 1894 2003 
Q 2506 1872 2764 1633 
Q 3022 1394 3022 966 
Q 3022 478 2636 193 
Q 2250 -91 1575 -91 
Q 1294 -91 989 -36 
Q 684 19 347 128 
L 347 722 
Q 666 556 975 473 
Q 1284 391 1588 391 
Q 1994 391 2212 530 
Q 2431 669 2431 922 
Q 2431 1156 2273 1281 
Q 2116 1406 1581 1522 
L 1381 1569 
Q 847 1681 609 1914 
Q 372 2147 372 2553 
Q 372 3047 722 3315 
Q 1072 3584 1716 3584 
Q 2034 3584 2315 3537 
Q 2597 3491 2834 3397 
z
" id="DejaVuSans-73" transform="scale(0.015625)"/>
      <path d="M 1172 4494 
L 1172 3500 
L 2356 3500 
L 2356 3053 
L 1172 3053 
L 1172 1153 
Q 1172 725 1289 603 
Q 1406 481 1766 481 
L 2356 481 
L 2356 0 
L 1766 0 
Q 1100 0 847 248 
Q 594 497 594 1153 
L 594 3053 
L 172 3053 
L 172 3500 
L 594 3500 
L 594 4494 
L 1172 4494 
z
" id="DejaVuSans-74" transform="scale(0.015625)"/>
      <path d="M 2194 1759 
Q 1497 1759 1228 1600 
Q 959 1441 959 1056 
Q 959 750 1161 570 
Q 1363 391 1709 391 
Q 2188 391 2477 730 
Q 2766 1069 2766 1631 
L 2766 1759 
L 2194 1759 
z
M 3341 1997 
L 3341 0 
L 2766 0 
L 2766 531 
Q 2569 213 2275 61 
Q 1981 -91 1556 -91 
Q 1019 -91 701 211 
Q 384 513 384 1019 
Q 384 1609 779 1909 
Q 1175 2209 1959 2209 
L 2766 2209 
L 2766 2266 
Q 2766 2663 2505 2880 
Q 2244 3097 1772 3097 
Q 1472 3097 1187 3025 
Q 903 2953 641 2809 
L 641 3341 
Q 956 3463 1253 3523 
Q 1550 3584 1831 3584 
Q 2591 3584 2966 3190 
Q 3341 2797 3341 1997 
z
" id="DejaVuSans-61" transform="scale(0.015625)"/>
      <path d="M 3122 3366 
L 3122 2828 
Q 2878 2963 2633 3030 
Q 2388 3097 2138 3097 
Q 1578 3097 1268 2742 
Q 959 2388 959 1747 
Q 959 1106 1268 751 
Q 1578 397 2138 397 
Q 2388 397 2633 464 
Q 2878 531 3122 666 
L 3122 134 
Q 2881 22 2623 -34 
Q 2366 -91 2075 -91 
Q 1284 -91 818 406 
Q 353 903 353 1747 
Q 353 2603 823 3093 
Q 1294 3584 2113 3584 
Q 2378 3584 2631 3529 
Q 2884 3475 3122 3366 
z
" id="DejaVuSans-63" transform="scale(0.015625)"/>
      <path d="M 3597 1894 
L 3597 1613 
L 953 1613 
Q 991 1019 1311 708 
Q 1631 397 2203 397 
Q 2534 397 2845 478 
Q 3156 559 3463 722 
L 3463 178 
Q 3153 47 2828 -22 
Q 2503 -91 2169 -91 
Q 1331 -91 842 396 
Q 353 884 353 1716 
Q 353 2575 817 3079 
Q 1281 3584 2069 3584 
Q 2775 3584 3186 3129 
Q 3597 2675 3597 1894 
z
M 3022 2063 
Q 3016 2534 2758 2815 
Q 2500 3097 2075 3097 
Q 1594 3097 1305 2825 
Q 1016 2553 972 2059 
L 3022 2063 
z
" id="DejaVuSans-65" transform="scale(0.015625)"/>
     </defs>
     <use xlink:href="#DejaVuSans-31"/>
     <use x="63.623047" xlink:href="#DejaVuSans-35"/>
     <use x="127.246094" xlink:href="#DejaVuSans-20"/>
     <use x="159.033203" xlink:href="#DejaVuSans-69"/>
     <use x="186.816406" xlink:href="#DejaVuSans-6e"/>
     <use x="250.195312" xlink:href="#DejaVuSans-73"/>
     <use x="302.294922" xlink:href="#DejaVuSans-74"/>
     <use x="341.503906" xlink:href="#DejaVuSans-61"/>
     <use x="402.783203" xlink:href="#DejaVuSans-6e"/>
     <use x="466.162109" xlink:href="#DejaVuSans-63"/>
     <use x="521.142578" xlink:href="#DejaVuSans-65"/>
     <use x="582.666016" xlink:href="#DejaVuSans-73"/>
    </g>
    <!-- absolute targets -->
    <g transform="translate(22.78 312.528437)scale(0.14 -0.14)">
     <defs>
      <path d="M 3116 1747 
Q 3116 2381 2855 2742 
Q 2594 3103 2138 3103 
Q 1681 3103 1420 2742 
Q 1159 2381 1159 1747 
Q 1159 1113 1420 752 
Q 1681 391 2138 391 
Q 2594 391 2855 752 
Q 3116 1113 3116 1747 
z
M 1159 2969 
Q 1341 3281 1617 3432 
Q 1894 3584 2278 3584 
Q 2916 3584 3314 3078 
Q 3713 2572 3713 1747 
Q 3713 922 3314 415 
Q 2916 -91 2278 -91 
Q 1894 -91 1617 61 
Q 1341 213 1159 525 
L 1159 0 
L 581 0 
L 581 4863 
L 1159 4863 
L 1159 2969 
z
" id="DejaVuSans-62" transform="scale(0.015625)"/>
      <path d="M 1959 3097 
Q 1497 3097 1228 2736 
Q 959 2375 959 1747 
Q 959 1119 1226 758 
Q 1494 397 1959 397 
Q 2419 397 2687 759 
Q 2956 1122 2956 1747 
Q 2956 2369 2687 2733 
Q 2419 3097 1959 3097 
z
M 1959 3584 
Q 2709 3584 3137 3096 
Q 3566 2609 3566 1747 
Q 3566 888 3137 398 
Q 2709 -91 1959 -91 
Q 1206 -91 779 398 
Q 353 888 353 1747 
Q 353 2609 779 3096 
Q 1206 3584 1959 3584 
z
" id="DejaVuSans-6f" transform="scale(0.015625)"/>
      <path d="M 603 4863 
L 1178 4863 
L 1178 0 
L 603 0 
L 603 4863 
z
" id="DejaVuSans-6c" transform="scale(0.015625)"/>
      <path d="M 544 1381 
L 544 3500 
L 1119 3500 
L 1119 1403 
Q 1119 906 1312 657 
Q 1506 409 1894 409 
Q 2359 409 2629 706 
Q 2900 1003 2900 1516 
L 2900 3500 
L 3475 3500 
L 3475 0 
L 2900 0 
L 2900 538 
Q 2691 219 2414 64 
Q 2138 -91 1772 -91 
Q 1169 -91 856 284 
Q 544 659 544 1381 
z
M 1991 3584 
L 1991 3584 
z
" id="DejaVuSans-75" transform="scale(0.015625)"/>
      <path d="M 2631 2963 
Q 2534 3019 2420 3045 
Q 2306 3072 2169 3072 
Q 1681 3072 1420 2755 
Q 1159 2438 1159 1844 
L 1159 0 
L 581 0 
L 581 3500 
L 1159 3500 
L 1159 2956 
Q 1341 3275 1631 3429 
Q 1922 3584 2338 3584 
Q 2397 3584 2469 3576 
Q 2541 3569 2628 3553 
L 2631 2963 
z
" id="DejaVuSans-72" transform="scale(0.015625)"/>
      <path d="M 2906 1791 
Q 2906 2416 2648 2759 
Q 2391 3103 1925 3103 
Q 1463 3103 1205 2759 
Q 947 2416 947 1791 
Q 947 1169 1205 825 
Q 1463 481 1925 481 
Q 2391 481 2648 825 
Q 2906 1169 2906 1791 
z
M 3481 434 
Q 3481 -459 3084 -895 
Q 2688 -1331 1869 -1331 
Q 1566 -1331 1297 -1286 
Q 1028 -1241 775 -1147 
L 775 -588 
Q 1028 -725 1275 -790 
Q 1522 -856 1778 -856 
Q 2344 -856 2625 -561 
Q 2906 -266 2906 331 
L 2906 616 
Q 2728 306 2450 153 
Q 2172 0 1784 0 
Q 1141 0 747 490 
Q 353 981 353 1791 
Q 353 2603 747 3093 
Q 1141 3584 1784 3584 
Q 2172 3584 2450 3431 
Q 2728 3278 2906 2969 
L 2906 3500 
L 3481 3500 
L 3481 434 
z
" id="DejaVuSans-67" transform="scale(0.015625)"/>
     </defs>
     <use xlink:href="#DejaVuSans-61"/>
     <use x="61.279297" xlink:href="#DejaVuSans-62"/>
     <use x="124.755859" xlink:href="#DejaVuSans-73"/>
     <use x="176.855469" xlink:href="#DejaVuSans-6f"/>
     <use x="238.037109" xlink:href="#DejaVuSans-6c"/>
     <use x="265.820312" xlink:href="#DejaVuSans-75"/>
     <use x="329.199219" xlink:href="#DejaVuSans-74"/>
     <use x="368.408203" xlink:href="#DejaVuSans-65"/>
     <use x="429.931641" xlink:href="#DejaVuSans-20"/>
     <use x="461.71875" xlink:href="#DejaVuSans-74"/>
     <use x="500.927734" xlink:href="#DejaVuSans-61"/>
     <use x="562.207031" xlink:href="#DejaVuSans-72"/>
     <use x="601.570312" xlink:href="#DejaVuSans-67"/>
     <use x="665.046875" xlink:href="#DejaVuSans-65"/>
     <use x="726.570312" xlink:href="#DejaVuSans-74"/>
     <use x="765.779297" xlink:href="#DejaVuSans-73"/>
    </g>
   </g>
   <g id="text_19">
    <!-- v2.4 -->
    <g style="fill:#808080;" transform="translate(227.075063 310.483113)scale(0.1 -0.1)">
     <defs>
      <path d="M 191 3500 
L 800 3500 
L 1894 563 
L 2988 3500 
L 3597 3500 
L 2284 0 
L 1503 0 
L 191 3500 
z
" id="DejaVuSans-76" transform="scale(0.015625)"/>
      <path d="M 684 794 
L 1344 794 
L 1344 0 
L 684 0 
L 684 794 
z
" id="DejaVuSans-2e" transform="scale(0.015625)"/>
     </defs>
     <use xlink:href="#DejaVuSans-76"/>
     <use x="59.179688" xlink:href="#DejaVuSans-32"/>
     <use x="122.802734" xlink:href="#DejaVuSans-2e"/>
     <use x="154.589844" xlink:href="#DejaVuSans-34"/>
    </g>
   </g>
   <g id="text_20">
    <!-- 15 Rastrigin -->
    <g transform="translate(165.701 21.72)scale(0.24 -0.24)">
     <defs>
      <path d="M 2841 2188 
Q 3044 2119 3236 1894 
Q 3428 1669 3622 1275 
L 4263 0 
L 3584 0 
L 2988 1197 
Q 2756 1666 2539 1819 
Q 2322 1972 1947 1972 
L 1259 1972 
L 1259 0 
L 628 0 
L 628 4666 
L 2053 4666 
Q 2853 4666 3247 4331 
Q 3641 3997 3641 3322 
Q 3641 2881 3436 2590 
Q 3231 2300 2841 2188 
z
M 1259 4147 
L 1259 2491 
L 2053 2491 
Q 2509 2491 2742 2702 
Q 2975 2913 2975 3322 
Q 2975 3731 2742 3939 
Q 2509 4147 2053 4147 
L 1259 4147 
z
" id="DejaVuSans-52" transform="scale(0.015625)"/>
     </defs>
     <use xlink:href="#DejaVuSans-31"/>
     <use x="63.623047" xlink:href="#DejaVuSans-35"/>
     <use x="127.246094" xlink:href="#DejaVuSans-20"/>
     <use x="159.033203" xlink:href="#DejaVuSans-52"/>
     <use x="226.265625" xlink:href="#DejaVuSans-61"/>
     <use x="287.544922" xlink:href="#DejaVuSans-73"/>
     <use x="339.644531" xlink:href="#DejaVuSans-74"/>
     <use x="378.853516" xlink:href="#DejaVuSans-72"/>
     <use x="419.966797" xlink:href="#DejaVuSans-69"/>
     <use x="447.75" xlink:href="#DejaVuSans-67"/>
     <use x="511.226562" xlink:href="#DejaVuSans-69"/>
     <use x="539.009766" xlink:href="#DejaVuSans-6e"/>
    </g>
   </g>
  </g>
 </g>
 <defs>
  <clipPath id="p321405ad14">
   <rect height="287.72" width="430.412" x="22.78" y="27.72"/>
  </clipPath>
 </defs>
</svg>
