<?xml version="1.0" encoding="utf-8" standalone="no"?>
<!DOCTYPE svg PUBLIC "-//W3C//DTD SVG 1.1//EN"
  "http://www.w3.org/Graphics/SVG/1.1/DTD/svg11.dtd">
<svg height="345.6pt" version="1.1" viewBox="0 0 460.8 345.6" width="460.8pt" xmlns="http://www.w3.org/2000/svg" xmlns:xlink="http://www.w3.org/1999/xlink">
 <metadata>
  <rdf:RDF xmlns:cc="http://creativecommons.org/ns#" xmlns:dc="http://purl.org/dc/elements/1.1/" xmlns:rdf="http://www.w3.org/1999/02/22-rdf-syntax-ns#">
   <cc:Work>
    <dc:type rdf:resource="http://purl.org/dc/dcmitype/StillImage"/>
    <dc:date>2021-04-25T03:18:34.966917</dc:date>
    <dc:format>image/svg+xml</dc:format>
    <dc:creator>
     <cc:Agent>
      <dc:title>Matplotlib v3.4.1, https://matplotlib.org/</dc:title>
     </cc:Agent>
    </dc:creator>
   </cc:Work>
  </rdf:RDF>
 </metadata>
 <defs>
  <style type="text/css">*{stroke-linecap:butt;stroke-linejoin:round;}</style>
 </defs>
 <g id="figure_1">
  <g id="patch_1">
   <path d="M 0 345.6 
L 460.8 345.6 
L 460.8 0 
L 0 0 
z
" style="fill:#ffffff;"/>
  </g>
  <g id="axes_1">
   <g id="patch_2">
    <path d="M 57.6 298.944 
L 338.688 298.944 
L 338.688 3.456 
L 57.6 3.456 
z
" style="fill:#ffffff;"/>
   </g>
   <g id="line2d_1">
    <path d="M -1 290.912876 
L 27.203868 290.912876 
L 27.203868 289.765573 
L 66.853775 289.765573 
L 66.853775 288.618269 
L 81.775977 288.618269 
L 81.775977 286.323662 
L 83.138295 286.323662 
L 83.138295 285.176359 
L 84.213325 285.176359 
L 84.213325 284.029055 
L 85.315119 284.029055 
L 85.315119 282.881752 
L 86.012784 282.881752 
L 86.012784 281.734448 
L 86.601153 281.734448 
L 86.601153 280.587145 
L 87.487404 280.587145 
L 87.487404 279.439842 
L 88.180446 279.439842 
L 88.180446 277.145235 
L 90.965519 277.145235 
L 90.965519 275.997931 
L 92.267099 275.997931 
L 92.267099 274.850628 
L 93.026719 274.850628 
L 93.026719 273.703324 
L 96.86091 273.703324 
L 96.86091 272.556021 
L 102.162376 272.556021 
L 102.162376 271.408718 
L 104.913428 271.408718 
L 104.913428 270.261414 
L 107.187808 270.261414 
L 107.187808 269.114111 
L 109.491096 269.114111 
L 109.491096 267.966807 
L 114.485807 267.966807 
L 114.485807 266.819504 
L 119.502775 266.819504 
L 119.502775 265.6722 
L 129.623411 265.6722 
L 129.623411 264.524897 
L 129.78395 264.524897 
L 129.78395 263.377593 
L 132.470242 263.377593 
L 132.470242 262.23029 
L 133.409373 262.23029 
L 133.409373 261.082987 
L 136.813232 261.082987 
L 136.813232 259.935683 
L 143.722546 259.935683 
L 143.722546 258.78838 
L 149.931137 258.78838 
L 149.931137 257.641076 
L 150.501627 257.641076 
L 150.501627 256.493773 
L 154.185999 256.493773 
L 154.185999 255.346469 
L 155.656773 255.346469 
L 155.656773 254.199166 
L 156.960528 254.199166 
L 156.960528 253.051863 
L 166.948338 253.051863 
L 166.948338 251.904559 
L 172.29133 251.904559 
L 172.29133 250.757256 
L 173.56988 250.757256 
L 173.56988 249.609952 
L 175.93577 249.609952 
L 175.956448 247.315345 
L 176.597948 247.315345 
L 176.597948 246.168042 
L 177.479727 246.168042 
L 177.479727 245.020738 
L 177.626103 245.020738 
L 177.626103 243.873435 
L 189.133785 243.873435 
L 189.133785 242.726132 
L 192.807513 242.726132 
L 192.807513 241.578828 
L 194.132716 241.578828 
L 194.236694 227.811187 
L 194.258243 227.811187 
L 194.365758 215.190849 
L 194.372948 215.190849 
L 194.46785 200.275904 
L 194.487584 200.275904 
L 194.520878 195.686691 
L 195.029135 195.686691 
L 195.029135 194.539387 
L 198.80241 194.539387 
L 198.80241 193.392084 
L 201.983339 193.392084 
L 201.983339 192.24478 
L 207.742993 192.24478 
L 207.742993 191.097477 
L 208.98608 191.097477 
L 208.98608 189.950174 
L 220.991057 189.950174 
L 220.991057 188.80287 
L 226.637355 188.80287 
L 226.739256 161.267588 
L 226.751852 161.267588 
L 226.818635 144.058036 
L 226.977927 144.058036 
L 226.977927 142.910733 
L 230.164287 142.910733 
L 230.194485 140.616126 
L 232.417771 140.616126 
L 232.417771 139.468822 
L 233.929679 139.468822 
L 233.929679 138.321519 
L 236.30081 138.321519 
L 236.30081 137.174215 
L 236.48856 137.174215 
L 236.48856 136.026912 
L 238.488126 136.026912 
L 238.488126 134.879609 
L 239.078617 134.879609 
L 239.078617 133.732305 
L 239.549752 133.732305 
L 239.549752 132.585002 
L 245.816587 132.585002 
L 245.816587 131.437698 
L 248.54118 131.437698 
L 248.54118 130.290395 
L 254.146845 130.290395 
L 254.146845 129.143091 
L 254.265156 129.143091 
L 254.265156 127.995788 
L 254.403599 127.995788 
L 254.460571 125.701181 
L 254.565847 125.701181 
L 254.651208 123.406574 
L 254.713915 123.406574 
L 254.797047 121.111967 
L 254.861414 121.111967 
L 254.931352 118.817361 
L 254.982281 118.817361 
L 255.055735 116.522754 
L 255.135776 116.522754 
L 255.237525 113.080843 
L 255.289708 113.080843 
L 255.338777 110.786236 
L 255.415647 110.786236 
L 255.487081 108.49163 
L 255.550324 108.49163 
L 255.609232 106.197023 
L 255.683629 106.197023 
L 255.683629 105.049719 
L 262.350854 105.049719 
L 262.350854 103.902416 
L 264.991202 103.902416 
L 264.991202 102.755112 
L 272.980217 102.755112 
L 272.980217 101.607809 
L 281.16681 101.607809 
L 281.16681 100.460506 
L 299.174853 100.460506 
L 299.174853 99.313202 
L 299.767469 99.313202 
L 299.767469 98.165899 
L 303.129647 98.165899 
L 303.129647 97.018595 
L 307.244286 97.018595 
L 307.244286 95.871292 
L 314.189555 95.871292 
L 314.195299 92.429381 
L 321.553106 92.429381 
L 321.557412 88.987471 
L 322.833938 88.987471 
L 322.833938 87.840168 
L 333.680273 87.840168 
L 333.698792 46.537244 
L 338.688 46.537244 
L 338.688 46.537244 
" style="fill:none;stroke:#f5deb3;stroke-linecap:square;stroke-width:4;"/>
   </g>
   <g id="line2d_2">
    <defs>
     <path d="M 0 7.778175 
L 7.778175 0 
L 0 -7.778175 
L -7.778175 0 
z
" id="m8ba0fd7cf0" style="stroke:#f5deb3;stroke-linejoin:miter;stroke-width:1.5;"/>
    </defs>
    <g>
     <use style="fill:#f5deb3;stroke:#f5deb3;stroke-linejoin:miter;stroke-width:1.5;" x="133.409373" xlink:href="#m8ba0fd7cf0" y="262.23029"/>
     <use style="fill:#f5deb3;stroke:#f5deb3;stroke-linejoin:miter;stroke-width:1.5;" x="201.983339" xlink:href="#m8ba0fd7cf0" y="193.392084"/>
     <use style="fill:#f5deb3;stroke:#f5deb3;stroke-linejoin:miter;stroke-width:1.5;" x="255.237525" xlink:href="#m8ba0fd7cf0" y="113.080843"/>
     <use style="fill:#f5deb3;stroke:#f5deb3;stroke-linejoin:miter;stroke-width:1.5;" x="333.698792" xlink:href="#m8ba0fd7cf0" y="46.537244"/>
     <use style="fill:#f5deb3;stroke:#f5deb3;stroke-linejoin:miter;stroke-width:1.5;" x="333.698792" xlink:href="#m8ba0fd7cf0" y="46.537244"/>
     <use style="fill:#f5deb3;stroke:#f5deb3;stroke-linejoin:miter;stroke-width:1.5;" x="338.688" xlink:href="#m8ba0fd7cf0" y="46.537244"/>
    </g>
   </g>
   <g id="line2d_3">
    <path style="fill:none;stroke:#f5deb3;stroke-linecap:square;stroke-width:4;"/>
    <g/>
   </g>
   <g id="line2d_4">
    <path d="M 338.688 46.537244 
L 369.60768 12.232871 
" style="fill:none;stroke:#f5deb3;stroke-linecap:square;stroke-width:4;"/>
    <g>
     <use style="fill:#f5deb3;stroke:#f5deb3;stroke-linejoin:miter;stroke-width:1.5;" x="338.688" xlink:href="#m8ba0fd7cf0" y="46.537244"/>
     <use style="fill:#f5deb3;stroke:#f5deb3;stroke-linejoin:miter;stroke-width:1.5;" x="369.60768" xlink:href="#m8ba0fd7cf0" y="12.232871"/>
    </g>
   </g>
   <g id="matplotlib.axis_1">
    <g id="xtick_1">
     <g id="line2d_5">
      <path clip-path="url(#pf54d9cb5c6)" d="M 57.6 298.944 
L 57.6 3.456 
" style="fill:none;stroke:#b0b0b0;stroke-linecap:square;stroke-width:0.8;"/>
     </g>
     <g id="line2d_6">
      <defs>
       <path d="M 0 0 
L 0 3.5 
" id="mbcb16557e5" style="stroke:#000000;stroke-width:0.8;"/>
      </defs>
      <g>
       <use style="stroke:#000000;stroke-width:0.8;" x="57.6" xlink:href="#mbcb16557e5" y="298.944"/>
      </g>
     </g>
     <g id="text_1">
      <!-- 0 -->
      <g transform="translate(51.2375 321.140875)scale(0.2 -0.2)">
       <defs>
        <path d="M 2034 4250 
Q 1547 4250 1301 3770 
Q 1056 3291 1056 2328 
Q 1056 1369 1301 889 
Q 1547 409 2034 409 
Q 2525 409 2770 889 
Q 3016 1369 3016 2328 
Q 3016 3291 2770 3770 
Q 2525 4250 2034 4250 
z
M 2034 4750 
Q 2819 4750 3233 4129 
Q 3647 3509 3647 2328 
Q 3647 1150 3233 529 
Q 2819 -91 2034 -91 
Q 1250 -91 836 529 
Q 422 1150 422 2328 
Q 422 3509 836 4129 
Q 1250 4750 2034 4750 
z
" id="DejaVuSans-30" transform="scale(0.015625)"/>
       </defs>
       <use xlink:href="#DejaVuSans-30"/>
      </g>
     </g>
    </g>
    <g id="xtick_2">
     <g id="line2d_7">
      <path clip-path="url(#pf54d9cb5c6)" d="M 137.910857 298.944 
L 137.910857 3.456 
" style="fill:none;stroke:#b0b0b0;stroke-linecap:square;stroke-width:0.8;"/>
     </g>
     <g id="line2d_8">
      <g>
       <use style="stroke:#000000;stroke-width:0.8;" x="137.910857" xlink:href="#mbcb16557e5" y="298.944"/>
      </g>
     </g>
     <g id="text_2">
      <!-- 2 -->
      <g transform="translate(131.548357 321.140875)scale(0.2 -0.2)">
       <defs>
        <path d="M 1228 531 
L 3431 531 
L 3431 0 
L 469 0 
L 469 531 
Q 828 903 1448 1529 
Q 2069 2156 2228 2338 
Q 2531 2678 2651 2914 
Q 2772 3150 2772 3378 
Q 2772 3750 2511 3984 
Q 2250 4219 1831 4219 
Q 1534 4219 1204 4116 
Q 875 4013 500 3803 
L 500 4441 
Q 881 4594 1212 4672 
Q 1544 4750 1819 4750 
Q 2544 4750 2975 4387 
Q 3406 4025 3406 3419 
Q 3406 3131 3298 2873 
Q 3191 2616 2906 2266 
Q 2828 2175 2409 1742 
Q 1991 1309 1228 531 
z
" id="DejaVuSans-32" transform="scale(0.015625)"/>
       </defs>
       <use xlink:href="#DejaVuSans-32"/>
      </g>
     </g>
    </g>
    <g id="xtick_3">
     <g id="line2d_9">
      <path clip-path="url(#pf54d9cb5c6)" d="M 218.221714 298.944 
L 218.221714 3.456 
" style="fill:none;stroke:#b0b0b0;stroke-linecap:square;stroke-width:0.8;"/>
     </g>
     <g id="line2d_10">
      <g>
       <use style="stroke:#000000;stroke-width:0.8;" x="218.221714" xlink:href="#mbcb16557e5" y="298.944"/>
      </g>
     </g>
     <g id="text_3">
      <!-- 4 -->
      <g transform="translate(211.859214 321.140875)scale(0.2 -0.2)">
       <defs>
        <path d="M 2419 4116 
L 825 1625 
L 2419 1625 
L 2419 4116 
z
M 2253 4666 
L 3047 4666 
L 3047 1625 
L 3713 1625 
L 3713 1100 
L 3047 1100 
L 3047 0 
L 2419 0 
L 2419 1100 
L 313 1100 
L 313 1709 
L 2253 4666 
z
" id="DejaVuSans-34" transform="scale(0.015625)"/>
       </defs>
       <use xlink:href="#DejaVuSans-34"/>
      </g>
     </g>
    </g>
    <g id="xtick_4">
     <g id="line2d_11">
      <path clip-path="url(#pf54d9cb5c6)" d="M 298.532571 298.944 
L 298.532571 3.456 
" style="fill:none;stroke:#b0b0b0;stroke-linecap:square;stroke-width:0.8;"/>
     </g>
     <g id="line2d_12">
      <g>
       <use style="stroke:#000000;stroke-width:0.8;" x="298.532571" xlink:href="#mbcb16557e5" y="298.944"/>
      </g>
     </g>
     <g id="text_4">
      <!-- 6 -->
      <g transform="translate(292.170071 321.140875)scale(0.2 -0.2)">
       <defs>
        <path d="M 2113 2584 
Q 1688 2584 1439 2293 
Q 1191 2003 1191 1497 
Q 1191 994 1439 701 
Q 1688 409 2113 409 
Q 2538 409 2786 701 
Q 3034 994 3034 1497 
Q 3034 2003 2786 2293 
Q 2538 2584 2113 2584 
z
M 3366 4563 
L 3366 3988 
Q 3128 4100 2886 4159 
Q 2644 4219 2406 4219 
Q 1781 4219 1451 3797 
Q 1122 3375 1075 2522 
Q 1259 2794 1537 2939 
Q 1816 3084 2150 3084 
Q 2853 3084 3261 2657 
Q 3669 2231 3669 1497 
Q 3669 778 3244 343 
Q 2819 -91 2113 -91 
Q 1303 -91 875 529 
Q 447 1150 447 2328 
Q 447 3434 972 4092 
Q 1497 4750 2381 4750 
Q 2619 4750 2861 4703 
Q 3103 4656 3366 4563 
z
" id="DejaVuSans-36" transform="scale(0.015625)"/>
       </defs>
       <use xlink:href="#DejaVuSans-36"/>
      </g>
     </g>
    </g>
    <g id="xtick_5">
     <g id="line2d_13">
      <path clip-path="url(#pf54d9cb5c6)" d="M 97.755429 298.944 
L 97.755429 3.456 
" style="fill:none;stroke:#b0b0b0;stroke-linecap:square;stroke-width:0.8;"/>
     </g>
     <g id="line2d_14">
      <defs>
       <path d="M 0 0 
L 0 2 
" id="m1440bb9a45" style="stroke:#000000;stroke-width:0.6;"/>
      </defs>
      <g>
       <use style="stroke:#000000;stroke-width:0.6;" x="97.755429" xlink:href="#m1440bb9a45" y="298.944"/>
      </g>
     </g>
    </g>
    <g id="xtick_6">
     <g id="line2d_15">
      <path clip-path="url(#pf54d9cb5c6)" d="M 178.066286 298.944 
L 178.066286 3.456 
" style="fill:none;stroke:#b0b0b0;stroke-linecap:square;stroke-width:0.8;"/>
     </g>
     <g id="line2d_16">
      <g>
       <use style="stroke:#000000;stroke-width:0.6;" x="178.066286" xlink:href="#m1440bb9a45" y="298.944"/>
      </g>
     </g>
    </g>
    <g id="xtick_7">
     <g id="line2d_17">
      <path clip-path="url(#pf54d9cb5c6)" d="M 258.377143 298.944 
L 258.377143 3.456 
" style="fill:none;stroke:#b0b0b0;stroke-linecap:square;stroke-width:0.8;"/>
     </g>
     <g id="line2d_18">
      <g>
       <use style="stroke:#000000;stroke-width:0.6;" x="258.377143" xlink:href="#m1440bb9a45" y="298.944"/>
      </g>
     </g>
    </g>
    <g id="xtick_8">
     <g id="line2d_19">
      <path clip-path="url(#pf54d9cb5c6)" d="M 338.688 298.944 
L 338.688 3.456 
" style="fill:none;stroke:#b0b0b0;stroke-linecap:square;stroke-width:0.8;"/>
     </g>
     <g id="line2d_20">
      <g>
       <use style="stroke:#000000;stroke-width:0.6;" x="338.688" xlink:href="#m1440bb9a45" y="298.944"/>
      </g>
     </g>
    </g>
    <g id="text_5">
     <!-- log10(# f-evals / dimension) -->
     <g transform="translate(77.764078 342.217594)scale(0.17 -0.17)">
      <defs>
       <path d="M 603 4863 
L 1178 4863 
L 1178 0 
L 603 0 
L 603 4863 
z
" id="DejaVuSans-6c" transform="scale(0.015625)"/>
       <path d="M 1959 3097 
Q 1497 3097 1228 2736 
Q 959 2375 959 1747 
Q 959 1119 1226 758 
Q 1494 397 1959 397 
Q 2419 397 2687 759 
Q 2956 1122 2956 1747 
Q 2956 2369 2687 2733 
Q 2419 3097 1959 3097 
z
M 1959 3584 
Q 2709 3584 3137 3096 
Q 3566 2609 3566 1747 
Q 3566 888 3137 398 
Q 2709 -91 1959 -91 
Q 1206 -91 779 398 
Q 353 888 353 1747 
Q 353 2609 779 3096 
Q 1206 3584 1959 3584 
z
" id="DejaVuSans-6f" transform="scale(0.015625)"/>
       <path d="M 2906 1791 
Q 2906 2416 2648 2759 
Q 2391 3103 1925 3103 
Q 1463 3103 1205 2759 
Q 947 2416 947 1791 
Q 947 1169 1205 825 
Q 1463 481 1925 481 
Q 2391 481 2648 825 
Q 2906 1169 2906 1791 
z
M 3481 434 
Q 3481 -459 3084 -895 
Q 2688 -1331 1869 -1331 
Q 1566 -1331 1297 -1286 
Q 1028 -1241 775 -1147 
L 775 -588 
Q 1028 -725 1275 -790 
Q 1522 -856 1778 -856 
Q 2344 -856 2625 -561 
Q 2906 -266 2906 331 
L 2906 616 
Q 2728 306 2450 153 
Q 2172 0 1784 0 
Q 1141 0 747 490 
Q 353 981 353 1791 
Q 353 2603 747 3093 
Q 1141 3584 1784 3584 
Q 2172 3584 2450 3431 
Q 2728 3278 2906 2969 
L 2906 3500 
L 3481 3500 
L 3481 434 
z
" id="DejaVuSans-67" transform="scale(0.015625)"/>
       <path d="M 794 531 
L 1825 531 
L 1825 4091 
L 703 3866 
L 703 4441 
L 1819 4666 
L 2450 4666 
L 2450 531 
L 3481 531 
L 3481 0 
L 794 0 
L 794 531 
z
" id="DejaVuSans-31" transform="scale(0.015625)"/>
       <path d="M 1984 4856 
Q 1566 4138 1362 3434 
Q 1159 2731 1159 2009 
Q 1159 1288 1364 580 
Q 1569 -128 1984 -844 
L 1484 -844 
Q 1016 -109 783 600 
Q 550 1309 550 2009 
Q 550 2706 781 3412 
Q 1013 4119 1484 4856 
L 1984 4856 
z
" id="DejaVuSans-28" transform="scale(0.015625)"/>
       <path d="M 3272 2816 
L 2363 2816 
L 2100 1772 
L 3016 1772 
L 3272 2816 
z
M 2803 4594 
L 2478 3297 
L 3391 3297 
L 3719 4594 
L 4219 4594 
L 3897 3297 
L 4872 3297 
L 4872 2816 
L 3775 2816 
L 3519 1772 
L 4513 1772 
L 4513 1294 
L 3397 1294 
L 3072 0 
L 2572 0 
L 2894 1294 
L 1978 1294 
L 1656 0 
L 1153 0 
L 1478 1294 
L 494 1294 
L 494 1772 
L 1594 1772 
L 1856 2816 
L 850 2816 
L 850 3297 
L 1978 3297 
L 2297 4594 
L 2803 4594 
z
" id="DejaVuSans-23" transform="scale(0.015625)"/>
       <path id="DejaVuSans-20" transform="scale(0.015625)"/>
       <path d="M 2375 4863 
L 2375 4384 
L 1825 4384 
Q 1516 4384 1395 4259 
Q 1275 4134 1275 3809 
L 1275 3500 
L 2222 3500 
L 2222 3053 
L 1275 3053 
L 1275 0 
L 697 0 
L 697 3053 
L 147 3053 
L 147 3500 
L 697 3500 
L 697 3744 
Q 697 4328 969 4595 
Q 1241 4863 1831 4863 
L 2375 4863 
z
" id="DejaVuSans-66" transform="scale(0.015625)"/>
       <path d="M 313 2009 
L 1997 2009 
L 1997 1497 
L 313 1497 
L 313 2009 
z
" id="DejaVuSans-2d" transform="scale(0.015625)"/>
       <path d="M 3597 1894 
L 3597 1613 
L 953 1613 
Q 991 1019 1311 708 
Q 1631 397 2203 397 
Q 2534 397 2845 478 
Q 3156 559 3463 722 
L 3463 178 
Q 3153 47 2828 -22 
Q 2503 -91 2169 -91 
Q 1331 -91 842 396 
Q 353 884 353 1716 
Q 353 2575 817 3079 
Q 1281 3584 2069 3584 
Q 2775 3584 3186 3129 
Q 3597 2675 3597 1894 
z
M 3022 2063 
Q 3016 2534 2758 2815 
Q 2500 3097 2075 3097 
Q 1594 3097 1305 2825 
Q 1016 2553 972 2059 
L 3022 2063 
z
" id="DejaVuSans-65" transform="scale(0.015625)"/>
       <path d="M 191 3500 
L 800 3500 
L 1894 563 
L 2988 3500 
L 3597 3500 
L 2284 0 
L 1503 0 
L 191 3500 
z
" id="DejaVuSans-76" transform="scale(0.015625)"/>
       <path d="M 2194 1759 
Q 1497 1759 1228 1600 
Q 959 1441 959 1056 
Q 959 750 1161 570 
Q 1363 391 1709 391 
Q 2188 391 2477 730 
Q 2766 1069 2766 1631 
L 2766 1759 
L 2194 1759 
z
M 3341 1997 
L 3341 0 
L 2766 0 
L 2766 531 
Q 2569 213 2275 61 
Q 1981 -91 1556 -91 
Q 1019 -91 701 211 
Q 384 513 384 1019 
Q 384 1609 779 1909 
Q 1175 2209 1959 2209 
L 2766 2209 
L 2766 2266 
Q 2766 2663 2505 2880 
Q 2244 3097 1772 3097 
Q 1472 3097 1187 3025 
Q 903 2953 641 2809 
L 641 3341 
Q 956 3463 1253 3523 
Q 1550 3584 1831 3584 
Q 2591 3584 2966 3190 
Q 3341 2797 3341 1997 
z
" id="DejaVuSans-61" transform="scale(0.015625)"/>
       <path d="M 2834 3397 
L 2834 2853 
Q 2591 2978 2328 3040 
Q 2066 3103 1784 3103 
Q 1356 3103 1142 2972 
Q 928 2841 928 2578 
Q 928 2378 1081 2264 
Q 1234 2150 1697 2047 
L 1894 2003 
Q 2506 1872 2764 1633 
Q 3022 1394 3022 966 
Q 3022 478 2636 193 
Q 2250 -91 1575 -91 
Q 1294 -91 989 -36 
Q 684 19 347 128 
L 347 722 
Q 666 556 975 473 
Q 1284 391 1588 391 
Q 1994 391 2212 530 
Q 2431 669 2431 922 
Q 2431 1156 2273 1281 
Q 2116 1406 1581 1522 
L 1381 1569 
Q 847 1681 609 1914 
Q 372 2147 372 2553 
Q 372 3047 722 3315 
Q 1072 3584 1716 3584 
Q 2034 3584 2315 3537 
Q 2597 3491 2834 3397 
z
" id="DejaVuSans-73" transform="scale(0.015625)"/>
       <path d="M 1625 4666 
L 2156 4666 
L 531 -594 
L 0 -594 
L 1625 4666 
z
" id="DejaVuSans-2f" transform="scale(0.015625)"/>
       <path d="M 2906 2969 
L 2906 4863 
L 3481 4863 
L 3481 0 
L 2906 0 
L 2906 525 
Q 2725 213 2448 61 
Q 2172 -91 1784 -91 
Q 1150 -91 751 415 
Q 353 922 353 1747 
Q 353 2572 751 3078 
Q 1150 3584 1784 3584 
Q 2172 3584 2448 3432 
Q 2725 3281 2906 2969 
z
M 947 1747 
Q 947 1113 1208 752 
Q 1469 391 1925 391 
Q 2381 391 2643 752 
Q 2906 1113 2906 1747 
Q 2906 2381 2643 2742 
Q 2381 3103 1925 3103 
Q 1469 3103 1208 2742 
Q 947 2381 947 1747 
z
" id="DejaVuSans-64" transform="scale(0.015625)"/>
       <path d="M 603 3500 
L 1178 3500 
L 1178 0 
L 603 0 
L 603 3500 
z
M 603 4863 
L 1178 4863 
L 1178 4134 
L 603 4134 
L 603 4863 
z
" id="DejaVuSans-69" transform="scale(0.015625)"/>
       <path d="M 3328 2828 
Q 3544 3216 3844 3400 
Q 4144 3584 4550 3584 
Q 5097 3584 5394 3201 
Q 5691 2819 5691 2113 
L 5691 0 
L 5113 0 
L 5113 2094 
Q 5113 2597 4934 2840 
Q 4756 3084 4391 3084 
Q 3944 3084 3684 2787 
Q 3425 2491 3425 1978 
L 3425 0 
L 2847 0 
L 2847 2094 
Q 2847 2600 2669 2842 
Q 2491 3084 2119 3084 
Q 1678 3084 1418 2786 
Q 1159 2488 1159 1978 
L 1159 0 
L 581 0 
L 581 3500 
L 1159 3500 
L 1159 2956 
Q 1356 3278 1631 3431 
Q 1906 3584 2284 3584 
Q 2666 3584 2933 3390 
Q 3200 3197 3328 2828 
z
" id="DejaVuSans-6d" transform="scale(0.015625)"/>
       <path d="M 3513 2113 
L 3513 0 
L 2938 0 
L 2938 2094 
Q 2938 2591 2744 2837 
Q 2550 3084 2163 3084 
Q 1697 3084 1428 2787 
Q 1159 2491 1159 1978 
L 1159 0 
L 581 0 
L 581 3500 
L 1159 3500 
L 1159 2956 
Q 1366 3272 1645 3428 
Q 1925 3584 2291 3584 
Q 2894 3584 3203 3211 
Q 3513 2838 3513 2113 
z
" id="DejaVuSans-6e" transform="scale(0.015625)"/>
       <path d="M 513 4856 
L 1013 4856 
Q 1481 4119 1714 3412 
Q 1947 2706 1947 2009 
Q 1947 1309 1714 600 
Q 1481 -109 1013 -844 
L 513 -844 
Q 928 -128 1133 580 
Q 1338 1288 1338 2009 
Q 1338 2731 1133 3434 
Q 928 4138 513 4856 
z
" id="DejaVuSans-29" transform="scale(0.015625)"/>
      </defs>
      <use xlink:href="#DejaVuSans-6c"/>
      <use x="27.783203" xlink:href="#DejaVuSans-6f"/>
      <use x="88.964844" xlink:href="#DejaVuSans-67"/>
      <use x="152.441406" xlink:href="#DejaVuSans-31"/>
      <use x="216.064453" xlink:href="#DejaVuSans-30"/>
      <use x="279.6875" xlink:href="#DejaVuSans-28"/>
      <use x="318.701172" xlink:href="#DejaVuSans-23"/>
      <use x="402.490234" xlink:href="#DejaVuSans-20"/>
      <use x="434.277344" xlink:href="#DejaVuSans-66"/>
      <use x="463.982422" xlink:href="#DejaVuSans-2d"/>
      <use x="500.066406" xlink:href="#DejaVuSans-65"/>
      <use x="561.589844" xlink:href="#DejaVuSans-76"/>
      <use x="620.769531" xlink:href="#DejaVuSans-61"/>
      <use x="682.048828" xlink:href="#DejaVuSans-6c"/>
      <use x="709.832031" xlink:href="#DejaVuSans-73"/>
      <use x="761.931641" xlink:href="#DejaVuSans-20"/>
      <use x="793.71875" xlink:href="#DejaVuSans-2f"/>
      <use x="827.410156" xlink:href="#DejaVuSans-20"/>
      <use x="859.197266" xlink:href="#DejaVuSans-64"/>
      <use x="922.673828" xlink:href="#DejaVuSans-69"/>
      <use x="950.457031" xlink:href="#DejaVuSans-6d"/>
      <use x="1047.869141" xlink:href="#DejaVuSans-65"/>
      <use x="1109.392578" xlink:href="#DejaVuSans-6e"/>
      <use x="1172.771484" xlink:href="#DejaVuSans-73"/>
      <use x="1224.871094" xlink:href="#DejaVuSans-69"/>
      <use x="1252.654297" xlink:href="#DejaVuSans-6f"/>
      <use x="1313.835938" xlink:href="#DejaVuSans-6e"/>
      <use x="1377.214844" xlink:href="#DejaVuSans-29"/>
     </g>
    </g>
   </g>
   <g id="matplotlib.axis_2">
    <g id="ytick_1">
     <g id="line2d_21">
      <path clip-path="url(#pf54d9cb5c6)" d="M 57.6 298.944 
L 338.688 298.944 
" style="fill:none;stroke:#b0b0b0;stroke-linecap:square;stroke-width:0.8;"/>
     </g>
     <g id="line2d_22">
      <defs>
       <path d="M 0 0 
L -3.5 0 
" id="m90f07b8e12" style="stroke:#000000;stroke-width:0.8;"/>
      </defs>
      <g>
       <use style="stroke:#000000;stroke-width:0.8;" x="57.6" xlink:href="#m90f07b8e12" y="298.944"/>
      </g>
     </g>
     <g id="text_6">
      <!-- 0.0 -->
      <g transform="translate(25.155 305.02275)scale(0.16 -0.16)">
       <defs>
        <path d="M 684 794 
L 1344 794 
L 1344 0 
L 684 0 
L 684 794 
z
" id="DejaVuSans-2e" transform="scale(0.015625)"/>
       </defs>
       <use xlink:href="#DejaVuSans-30"/>
       <use x="63.623047" xlink:href="#DejaVuSans-2e"/>
       <use x="95.410156" xlink:href="#DejaVuSans-30"/>
      </g>
     </g>
    </g>
    <g id="ytick_2">
     <g id="line2d_23">
      <path clip-path="url(#pf54d9cb5c6)" d="M 57.6 240.431525 
L 338.688 240.431525 
" style="fill:none;stroke:#b0b0b0;stroke-linecap:square;stroke-width:0.8;"/>
     </g>
     <g id="line2d_24">
      <g>
       <use style="stroke:#000000;stroke-width:0.8;" x="57.6" xlink:href="#m90f07b8e12" y="240.431525"/>
      </g>
     </g>
     <g id="text_7">
      <!-- 0.2 -->
      <g transform="translate(25.155 246.510275)scale(0.16 -0.16)">
       <use xlink:href="#DejaVuSans-30"/>
       <use x="63.623047" xlink:href="#DejaVuSans-2e"/>
       <use x="95.410156" xlink:href="#DejaVuSans-32"/>
      </g>
     </g>
    </g>
    <g id="ytick_3">
     <g id="line2d_25">
      <path clip-path="url(#pf54d9cb5c6)" d="M 57.6 181.91905 
L 338.688 181.91905 
" style="fill:none;stroke:#b0b0b0;stroke-linecap:square;stroke-width:0.8;"/>
     </g>
     <g id="line2d_26">
      <g>
       <use style="stroke:#000000;stroke-width:0.8;" x="57.6" xlink:href="#m90f07b8e12" y="181.91905"/>
      </g>
     </g>
     <g id="text_8">
      <!-- 0.4 -->
      <g transform="translate(25.155 187.9978)scale(0.16 -0.16)">
       <use xlink:href="#DejaVuSans-30"/>
       <use x="63.623047" xlink:href="#DejaVuSans-2e"/>
       <use x="95.410156" xlink:href="#DejaVuSans-34"/>
      </g>
     </g>
    </g>
    <g id="ytick_4">
     <g id="line2d_27">
      <path clip-path="url(#pf54d9cb5c6)" d="M 57.6 123.406574 
L 338.688 123.406574 
" style="fill:none;stroke:#b0b0b0;stroke-linecap:square;stroke-width:0.8;"/>
     </g>
     <g id="line2d_28">
      <g>
       <use style="stroke:#000000;stroke-width:0.8;" x="57.6" xlink:href="#m90f07b8e12" y="123.406574"/>
      </g>
     </g>
     <g id="text_9">
      <!-- 0.6 -->
      <g transform="translate(25.155 129.485324)scale(0.16 -0.16)">
       <use xlink:href="#DejaVuSans-30"/>
       <use x="63.623047" xlink:href="#DejaVuSans-2e"/>
       <use x="95.410156" xlink:href="#DejaVuSans-36"/>
      </g>
     </g>
    </g>
    <g id="ytick_5">
     <g id="line2d_29">
      <path clip-path="url(#pf54d9cb5c6)" d="M 57.6 64.894099 
L 338.688 64.894099 
" style="fill:none;stroke:#b0b0b0;stroke-linecap:square;stroke-width:0.8;"/>
     </g>
     <g id="line2d_30">
      <g>
       <use style="stroke:#000000;stroke-width:0.8;" x="57.6" xlink:href="#m90f07b8e12" y="64.894099"/>
      </g>
     </g>
     <g id="text_10">
      <!-- 0.8 -->
      <g transform="translate(25.155 70.972849)scale(0.16 -0.16)">
       <defs>
        <path d="M 2034 2216 
Q 1584 2216 1326 1975 
Q 1069 1734 1069 1313 
Q 1069 891 1326 650 
Q 1584 409 2034 409 
Q 2484 409 2743 651 
Q 3003 894 3003 1313 
Q 3003 1734 2745 1975 
Q 2488 2216 2034 2216 
z
M 1403 2484 
Q 997 2584 770 2862 
Q 544 3141 544 3541 
Q 544 4100 942 4425 
Q 1341 4750 2034 4750 
Q 2731 4750 3128 4425 
Q 3525 4100 3525 3541 
Q 3525 3141 3298 2862 
Q 3072 2584 2669 2484 
Q 3125 2378 3379 2068 
Q 3634 1759 3634 1313 
Q 3634 634 3220 271 
Q 2806 -91 2034 -91 
Q 1263 -91 848 271 
Q 434 634 434 1313 
Q 434 1759 690 2068 
Q 947 2378 1403 2484 
z
M 1172 3481 
Q 1172 3119 1398 2916 
Q 1625 2713 2034 2713 
Q 2441 2713 2670 2916 
Q 2900 3119 2900 3481 
Q 2900 3844 2670 4047 
Q 2441 4250 2034 4250 
Q 1625 4250 1398 4047 
Q 1172 3844 1172 3481 
z
" id="DejaVuSans-38" transform="scale(0.015625)"/>
       </defs>
       <use xlink:href="#DejaVuSans-30"/>
       <use x="63.623047" xlink:href="#DejaVuSans-2e"/>
       <use x="95.410156" xlink:href="#DejaVuSans-38"/>
      </g>
     </g>
    </g>
    <g id="ytick_6">
     <g id="line2d_31">
      <path clip-path="url(#pf54d9cb5c6)" d="M 57.6 6.381624 
L 338.688 6.381624 
" style="fill:none;stroke:#b0b0b0;stroke-linecap:square;stroke-width:0.8;"/>
     </g>
     <g id="line2d_32">
      <g>
       <use style="stroke:#000000;stroke-width:0.8;" x="57.6" xlink:href="#m90f07b8e12" y="6.381624"/>
      </g>
     </g>
     <g id="text_11">
      <!-- 1.0 -->
      <g transform="translate(25.155 12.460374)scale(0.16 -0.16)">
       <use xlink:href="#DejaVuSans-31"/>
       <use x="63.623047" xlink:href="#DejaVuSans-2e"/>
       <use x="95.410156" xlink:href="#DejaVuSans-30"/>
      </g>
     </g>
    </g>
    <g id="text_12">
     <!-- Fraction of function,target pairs -->
     <g transform="translate(17.619531 285.585)rotate(-90)scale(0.17 -0.17)">
      <defs>
       <path d="M 628 4666 
L 3309 4666 
L 3309 4134 
L 1259 4134 
L 1259 2759 
L 3109 2759 
L 3109 2228 
L 1259 2228 
L 1259 0 
L 628 0 
L 628 4666 
z
" id="DejaVuSans-46" transform="scale(0.015625)"/>
       <path d="M 2631 2963 
Q 2534 3019 2420 3045 
Q 2306 3072 2169 3072 
Q 1681 3072 1420 2755 
Q 1159 2438 1159 1844 
L 1159 0 
L 581 0 
L 581 3500 
L 1159 3500 
L 1159 2956 
Q 1341 3275 1631 3429 
Q 1922 3584 2338 3584 
Q 2397 3584 2469 3576 
Q 2541 3569 2628 3553 
L 2631 2963 
z
" id="DejaVuSans-72" transform="scale(0.015625)"/>
       <path d="M 3122 3366 
L 3122 2828 
Q 2878 2963 2633 3030 
Q 2388 3097 2138 3097 
Q 1578 3097 1268 2742 
Q 959 2388 959 1747 
Q 959 1106 1268 751 
Q 1578 397 2138 397 
Q 2388 397 2633 464 
Q 2878 531 3122 666 
L 3122 134 
Q 2881 22 2623 -34 
Q 2366 -91 2075 -91 
Q 1284 -91 818 406 
Q 353 903 353 1747 
Q 353 2603 823 3093 
Q 1294 3584 2113 3584 
Q 2378 3584 2631 3529 
Q 2884 3475 3122 3366 
z
" id="DejaVuSans-63" transform="scale(0.015625)"/>
       <path d="M 1172 4494 
L 1172 3500 
L 2356 3500 
L 2356 3053 
L 1172 3053 
L 1172 1153 
Q 1172 725 1289 603 
Q 1406 481 1766 481 
L 2356 481 
L 2356 0 
L 1766 0 
Q 1100 0 847 248 
Q 594 497 594 1153 
L 594 3053 
L 172 3053 
L 172 3500 
L 594 3500 
L 594 4494 
L 1172 4494 
z
" id="DejaVuSans-74" transform="scale(0.015625)"/>
       <path d="M 544 1381 
L 544 3500 
L 1119 3500 
L 1119 1403 
Q 1119 906 1312 657 
Q 1506 409 1894 409 
Q 2359 409 2629 706 
Q 2900 1003 2900 1516 
L 2900 3500 
L 3475 3500 
L 3475 0 
L 2900 0 
L 2900 538 
Q 2691 219 2414 64 
Q 2138 -91 1772 -91 
Q 1169 -91 856 284 
Q 544 659 544 1381 
z
M 1991 3584 
L 1991 3584 
z
" id="DejaVuSans-75" transform="scale(0.015625)"/>
       <path d="M 750 794 
L 1409 794 
L 1409 256 
L 897 -744 
L 494 -744 
L 750 256 
L 750 794 
z
" id="DejaVuSans-2c" transform="scale(0.015625)"/>
       <path d="M 1159 525 
L 1159 -1331 
L 581 -1331 
L 581 3500 
L 1159 3500 
L 1159 2969 
Q 1341 3281 1617 3432 
Q 1894 3584 2278 3584 
Q 2916 3584 3314 3078 
Q 3713 2572 3713 1747 
Q 3713 922 3314 415 
Q 2916 -91 2278 -91 
Q 1894 -91 1617 61 
Q 1341 213 1159 525 
z
M 3116 1747 
Q 3116 2381 2855 2742 
Q 2594 3103 2138 3103 
Q 1681 3103 1420 2742 
Q 1159 2381 1159 1747 
Q 1159 1113 1420 752 
Q 1681 391 2138 391 
Q 2594 391 2855 752 
Q 3116 1113 3116 1747 
z
" id="DejaVuSans-70" transform="scale(0.015625)"/>
      </defs>
      <use xlink:href="#DejaVuSans-46"/>
      <use x="50.269531" xlink:href="#DejaVuSans-72"/>
      <use x="91.382812" xlink:href="#DejaVuSans-61"/>
      <use x="152.662109" xlink:href="#DejaVuSans-63"/>
      <use x="207.642578" xlink:href="#DejaVuSans-74"/>
      <use x="246.851562" xlink:href="#DejaVuSans-69"/>
      <use x="274.634766" xlink:href="#DejaVuSans-6f"/>
      <use x="335.816406" xlink:href="#DejaVuSans-6e"/>
      <use x="399.195312" xlink:href="#DejaVuSans-20"/>
      <use x="430.982422" xlink:href="#DejaVuSans-6f"/>
      <use x="492.164062" xlink:href="#DejaVuSans-66"/>
      <use x="527.369141" xlink:href="#DejaVuSans-20"/>
      <use x="559.15625" xlink:href="#DejaVuSans-66"/>
      <use x="594.361328" xlink:href="#DejaVuSans-75"/>
      <use x="657.740234" xlink:href="#DejaVuSans-6e"/>
      <use x="721.119141" xlink:href="#DejaVuSans-63"/>
      <use x="776.099609" xlink:href="#DejaVuSans-74"/>
      <use x="815.308594" xlink:href="#DejaVuSans-69"/>
      <use x="843.091797" xlink:href="#DejaVuSans-6f"/>
      <use x="904.273438" xlink:href="#DejaVuSans-6e"/>
      <use x="967.652344" xlink:href="#DejaVuSans-2c"/>
      <use x="999.439453" xlink:href="#DejaVuSans-74"/>
      <use x="1038.648438" xlink:href="#DejaVuSans-61"/>
      <use x="1099.927734" xlink:href="#DejaVuSans-72"/>
      <use x="1139.291016" xlink:href="#DejaVuSans-67"/>
      <use x="1202.767578" xlink:href="#DejaVuSans-65"/>
      <use x="1264.291016" xlink:href="#DejaVuSans-74"/>
      <use x="1303.5" xlink:href="#DejaVuSans-20"/>
      <use x="1335.287109" xlink:href="#DejaVuSans-70"/>
      <use x="1398.763672" xlink:href="#DejaVuSans-61"/>
      <use x="1460.042969" xlink:href="#DejaVuSans-69"/>
      <use x="1487.826172" xlink:href="#DejaVuSans-72"/>
      <use x="1528.939453" xlink:href="#DejaVuSans-73"/>
     </g>
    </g>
   </g>
   <g id="line2d_33">
    <defs>
     <path d="M 0 1.5 
C 0.397805 1.5 0.77937 1.341951 1.06066 1.06066 
C 1.341951 0.77937 1.5 0.397805 1.5 0 
C 1.5 -0.397805 1.341951 -0.77937 1.06066 -1.06066 
C 0.77937 -1.341951 0.397805 -1.5 0 -1.5 
C -0.397805 -1.5 -0.77937 -1.341951 -1.06066 -1.06066 
C -1.341951 -0.77937 -1.5 -0.397805 -1.5 0 
C -1.5 0.397805 -1.341951 0.77937 -1.06066 1.06066 
C -0.77937 1.341951 -0.397805 1.5 0 1.5 
z
" id="mf0b3f1bc4e" style="stroke:#f5deb3;"/>
    </defs>
    <g>
     <use style="fill:#f5deb3;stroke:#f5deb3;" x="333.698792" xlink:href="#mf0b3f1bc4e" y="46.537244"/>
     <use style="fill:#f5deb3;stroke:#f5deb3;" x="333.698792" xlink:href="#mf0b3f1bc4e" y="46.537244"/>
    </g>
   </g>
   <g id="line2d_34">
    <defs>
     <path d="M 0 1.5 
C 0.397805 1.5 0.77937 1.341951 1.06066 1.06066 
C 1.341951 0.77937 1.5 0.397805 1.5 0 
C 1.5 -0.397805 1.341951 -0.77937 1.06066 -1.06066 
C 0.77937 -1.341951 0.397805 -1.5 0 -1.5 
C -0.397805 -1.5 -0.77937 -1.341951 -1.06066 -1.06066 
C -1.341951 -0.77937 -1.5 -0.397805 -1.5 0 
C -1.5 0.397805 -1.341951 0.77937 -1.06066 1.06066 
C -0.77937 1.341951 -0.397805 1.5 0 1.5 
z
" id="mc1928f716f" style="stroke:#000080;"/>
    </defs>
    <g>
     <use style="fill:#000080;stroke:#000080;" x="256.969715" xlink:href="#mc1928f716f" y="230.105794"/>
     <use style="fill:#000080;stroke:#000080;" x="256.969715" xlink:href="#mc1928f716f" y="230.105794"/>
    </g>
   </g>
   <g id="line2d_35">
    <path d="M -1 291.142337 
L 5.356583 291.142337 
L 5.356583 290.798146 
L 12.427603 290.798146 
L 12.427603 290.568685 
L 17.444571 290.568685 
L 17.444571 290.453955 
L 21.336035 290.453955 
L 21.336035 290.339224 
L 27.203868 290.339224 
L 27.203868 290.109764 
L 31.586611 290.109764 
L 31.586611 289.995033 
L 41.620548 289.995033 
L 41.620548 289.880303 
L 44.617493 289.880303 
L 44.617493 289.765573 
L 45.512012 289.765573 
L 45.512012 289.650842 
L 51.991813 289.650842 
L 51.991813 289.536112 
L 75.710839 289.536112 
L 75.710839 289.421381 
L 82.626842 289.421381 
L 82.626842 289.306651 
L 84.588378 289.306651 
L 84.588378 289.191921 
L 94.869848 289.191921 
L 94.869848 289.07719 
L 96.158563 289.07719 
L 96.158563 288.96246 
L 96.395835 288.96246 
L 96.395835 288.84773 
L 101.079711 288.84773 
L 101.079711 288.732999 
L 101.223245 288.732999 
L 101.223245 288.618269 
L 101.646892 288.618269 
L 101.646892 288.503539 
L 102.060491 288.503539 
L 102.060491 288.388808 
L 103.053508 288.388808 
L 103.117741 288.159348 
L 103.213649 288.159348 
L 103.213649 288.044617 
L 104.414709 288.044617 
L 104.414709 287.929887 
L 105.200264 287.929887 
L 105.200264 287.815157 
L 105.454445 287.815157 
L 105.454445 287.700426 
L 106.30264 287.700426 
L 106.30264 287.585696 
L 106.724791 287.585696 
L 106.724791 287.470966 
L 106.983539 287.470966 
L 106.983539 287.356235 
L 108.126693 287.356235 
L 108.126693 287.241505 
L 108.436627 287.241505 
L 108.436627 287.012044 
L 108.694644 287.012044 
L 108.694644 286.897314 
L 110.79778 286.897314 
L 110.79778 286.782584 
L 110.921172 286.782584 
L 110.941652 286.553123 
L 111.819788 286.553123 
L 111.83924 286.323662 
L 113.257546 286.323662 
L 113.257546 286.208932 
L 113.471309 286.208932 
L 113.471309 286.094202 
L 113.699967 286.094202 
L 113.752311 285.864741 
L 114.385292 285.864741 
L 114.385292 285.75001 
L 114.502503 285.75001 
L 114.502503 285.63528 
L 114.668593 285.63528 
L 114.668593 285.52055 
L 114.783921 285.52055 
L 114.783921 285.405819 
L 115.173642 285.405819 
L 115.173642 285.291089 
L 115.757901 285.291089 
L 115.757901 285.176359 
L 116.532432 285.176359 
L 116.621333 284.946898 
L 117.373392 284.946898 
L 117.472198 284.717437 
L 118.175657 284.717437 
L 118.175657 284.602707 
L 118.483851 284.602707 
L 118.483851 284.487977 
L 118.877827 284.487977 
L 118.877827 284.373246 
L 119.313832 284.373246 
L 119.313832 284.258516 
L 120.033335 284.258516 
L 120.081879 284.029055 
L 120.429836 284.029055 
L 120.536427 283.799595 
L 122.233953 283.799595 
L 122.308777 283.570134 
L 122.40451 283.570134 
L 122.40451 283.455404 
L 122.562906 283.455404 
L 122.562906 283.340673 
L 122.709455 283.340673 
L 122.719876 283.111213 
L 123.141856 283.111213 
L 123.141856 282.996482 
L 123.780803 282.996482 
L 123.780803 282.881752 
L 124.273716 282.881752 
L 124.378229 282.652291 
L 124.491532 282.652291 
L 124.491532 282.537561 
L 124.669438 282.537561 
L 124.669438 282.422831 
L 125.101877 282.422831 
L 125.21059 282.19337 
L 125.264693 282.19337 
L 125.363449 281.963909 
L 126.87191 281.963909 
L 126.87191 281.849179 
L 127.500856 281.849179 
L 127.500856 281.734448 
L 127.674226 281.734448 
L 127.674226 281.619718 
L 128.031251 281.619718 
L 128.031251 281.504988 
L 128.15374 281.504988 
L 128.15374 281.390257 
L 128.724094 281.390257 
L 128.724094 281.275527 
L 128.885774 281.275527 
L 128.885774 281.160797 
L 129.254912 281.160797 
L 129.254912 281.046066 
L 130.14155 281.046066 
L 130.14155 280.931336 
L 131.082294 280.931336 
L 131.140242 280.701875 
L 131.465029 280.701875 
L 131.465029 280.587145 
L 132.054355 280.587145 
L 132.054355 280.472415 
L 132.61851 280.472415 
L 132.61851 280.357684 
L 132.841492 280.357684 
L 132.911319 280.013493 
L 133.07317 280.013493 
L 133.07317 279.898763 
L 133.488207 279.898763 
L 133.488207 279.784033 
L 133.959343 279.784033 
L 133.959343 279.554572 
L 134.284409 279.554572 
L 134.284409 279.439842 
L 134.83389 279.439842 
L 134.875449 279.095651 
L 135.138086 279.095651 
L 135.199312 278.86619 
L 135.300881 278.86619 
L 135.376671 278.521999 
L 135.507265 278.521999 
L 135.507265 278.407268 
L 135.621981 278.407268 
L 135.726067 278.063077 
L 136.063754 278.063077 
L 136.063754 277.948347 
L 136.504067 277.948347 
L 136.518239 277.718886 
L 136.771395 277.718886 
L 136.836432 277.489426 
L 137.011749 277.489426 
L 137.020928 277.145235 
L 137.135254 277.145235 
L 137.135254 277.030504 
L 137.307607 277.030504 
L 137.325651 276.801044 
L 137.420076 276.801044 
L 137.513992 275.997931 
L 137.858461 275.997931 
L 137.858461 275.768471 
L 138.045491 275.768471 
L 138.084384 275.42428 
L 138.290362 275.42428 
L 138.375473 275.194819 
L 138.586452 275.194819 
L 138.645071 274.965358 
L 138.877599 274.965358 
L 138.980413 274.735897 
L 139.127408 274.735897 
L 139.127408 274.621167 
L 139.620495 274.621167 
L 139.620495 274.506437 
L 139.762215 274.506437 
L 139.789638 274.276976 
L 140.700981 274.276976 
L 140.700981 274.162246 
L 140.959126 274.162246 
L 140.959126 274.047515 
L 141.805808 274.047515 
L 141.805808 273.932785 
L 141.944739 273.932785 
L 141.944739 273.473864 
L 142.702941 273.473864 
L 142.702941 273.359133 
L 142.887451 273.359133 
L 142.988757 273.129673 
L 143.276375 273.129673 
L 143.276375 273.014942 
L 143.933708 273.014942 
L 143.933708 272.900212 
L 144.333436 272.900212 
L 144.333436 272.785482 
L 144.477638 272.785482 
L 144.477638 272.670751 
L 144.841802 272.670751 
L 144.91198 272.441291 
L 145.005114 272.441291 
L 145.005114 272.32656 
L 145.143889 272.32656 
L 145.215732 271.867639 
L 145.494539 271.867639 
L 145.494539 271.752909 
L 145.61548 271.752909 
L 145.61548 271.638178 
L 145.874215 271.638178 
L 145.874215 271.408718 
L 146.369714 271.408718 
L 146.369714 271.293987 
L 147.577731 271.293987 
L 147.577731 271.179257 
L 147.724877 271.179257 
L 147.823936 270.949796 
L 147.858474 270.949796 
L 147.858474 270.835066 
L 148.325365 270.835066 
L 148.325365 270.720335 
L 149.530471 270.720335 
L 149.590826 270.490875 
L 149.721991 270.490875 
L 149.721991 270.376144 
L 149.88512 270.376144 
L 149.922381 270.146684 
L 150.046738 270.146684 
L 150.083656 269.917223 
L 150.367682 269.917223 
L 150.367682 269.802493 
L 150.963525 269.802493 
L 150.963525 269.573032 
L 151.288432 269.573032 
L 151.288432 269.458302 
L 151.832551 269.458302 
L 151.832551 269.343571 
L 152.004387 269.343571 
L 152.004387 269.228841 
L 152.887146 269.228841 
L 152.91852 268.99938 
L 153.32673 268.99938 
L 153.32673 268.88465 
L 153.846656 268.88465 
L 153.888565 268.655189 
L 154.110393 268.655189 
L 154.158544 268.425729 
L 155.423558 268.425729 
L 155.423558 268.310998 
L 155.550864 268.310998 
L 155.550864 268.196268 
L 156.951751 268.196268 
L 156.951751 268.081538 
L 157.139484 268.081538 
L 157.139484 267.966807 
L 157.94148 267.966807 
L 157.94148 267.852077 
L 158.59273 267.852077 
L 158.59273 267.737347 
L 159.47306 267.737347 
L 159.47306 267.622616 
L 159.814108 267.622616 
L 159.814108 267.507886 
L 160.210625 267.507886 
L 160.210625 267.393156 
L 160.408554 267.393156 
L 160.408554 267.278425 
L 161.451963 267.278425 
L 161.451963 267.163695 
L 161.698887 267.163695 
L 161.717822 266.934234 
L 162.329291 266.934234 
L 162.329291 266.819504 
L 162.747743 266.819504 
L 162.747743 266.704773 
L 165.550183 266.704773 
L 165.573402 266.475313 
L 166.213013 266.475313 
L 166.213013 266.360582 
L 166.737574 266.360582 
L 166.737574 266.245852 
L 167.019126 266.245852 
L 167.019126 266.131122 
L 167.224911 266.131122 
L 167.224911 266.016391 
L 167.995105 266.016391 
L 167.995105 265.901661 
L 168.257981 265.901661 
L 168.360967 265.55747 
L 168.50715 265.55747 
L 168.50715 265.44274 
L 169.283111 265.44274 
L 169.380234 265.213279 
L 169.416069 265.213279 
L 169.486805 264.983818 
L 169.792158 264.983818 
L 169.792158 264.869088 
L 170.041215 264.869088 
L 170.041215 264.754358 
L 170.392693 264.754358 
L 170.392693 264.639627 
L 170.833862 264.639627 
L 170.833862 264.410167 
L 171.444168 264.410167 
L 171.444168 264.295436 
L 172.310141 264.295436 
L 172.310141 264.180706 
L 172.563617 264.180706 
L 172.563617 264.065976 
L 172.978837 264.065976 
L 172.978837 263.951245 
L 175.304755 263.951245 
L 175.304755 263.836515 
L 175.527561 263.836515 
L 175.527561 263.721785 
L 175.899277 263.721785 
L 175.899277 263.607054 
L 177.493249 263.607054 
L 177.558456 263.377593 
L 178.007329 263.377593 
L 178.007329 263.262863 
L 178.250601 263.262863 
L 178.250601 263.148133 
L 178.429145 263.148133 
L 178.539814 262.918672 
L 178.888061 262.918672 
L 178.888061 262.803942 
L 180.012657 262.803942 
L 180.012657 262.689211 
L 181.005494 262.689211 
L 181.028317 262.459751 
L 181.855254 262.459751 
L 181.855254 262.34502 
L 182.293857 262.34502 
L 182.293857 262.23029 
L 182.419987 262.23029 
L 182.419987 262.11556 
L 182.531717 262.11556 
L 182.567455 261.771369 
L 182.750053 261.771369 
L 182.78834 261.427178 
L 182.957127 261.427178 
L 182.958445 261.197717 
L 183.124297 261.197717 
L 183.124297 261.082987 
L 183.30958 261.082987 
L 183.392978 260.738796 
L 183.567493 260.738796 
L 183.567493 260.394605 
L 183.919477 260.394605 
L 183.936611 260.165144 
L 184.324591 260.165144 
L 184.324591 260.050414 
L 184.974068 260.050414 
L 184.974068 259.935683 
L 186.176765 259.935683 
L 186.176765 259.820953 
L 186.3628 259.820953 
L 186.3628 259.591492 
L 186.961982 259.591492 
L 186.961982 259.476762 
L 188.190943 259.476762 
L 188.190943 259.362031 
L 191.278281 259.362031 
L 191.278281 259.247301 
L 192.290484 259.247301 
L 192.290484 259.132571 
L 193.272322 259.132571 
L 193.272322 258.673649 
L 193.576109 258.673649 
L 193.576109 258.444189 
L 193.885433 258.444189 
L 193.885433 258.329458 
L 194.369183 258.329458 
L 194.429337 257.985267 
L 194.622237 257.985267 
L 194.700517 257.641076 
L 194.734748 257.641076 
L 194.734748 257.526346 
L 195.033749 257.526346 
L 195.143481 257.182155 
L 195.238038 257.182155 
L 195.238038 257.067425 
L 195.35669 257.067425 
L 195.379484 256.837964 
L 195.530526 256.837964 
L 195.629861 256.493773 
L 195.70772 256.493773 
L 195.70772 256.379043 
L 197.264633 256.379043 
L 197.264633 256.264312 
L 199.321408 256.264312 
L 199.321408 256.149582 
L 199.637476 256.149582 
L 199.637476 256.034851 
L 199.789812 256.034851 
L 199.789812 255.920121 
L 199.966432 255.920121 
L 200.050182 255.69066 
L 200.805081 255.69066 
L 200.805081 255.57593 
L 201.010052 255.57593 
L 201.082659 255.346469 
L 201.333053 255.346469 
L 201.333053 255.231739 
L 201.456743 255.231739 
L 201.517295 255.002278 
L 201.601512 255.002278 
L 201.655929 254.772818 
L 201.822859 254.772818 
L 201.822859 254.658087 
L 202.090537 254.658087 
L 202.188664 254.428627 
L 202.2561 254.428627 
L 202.2561 254.313896 
L 202.711972 254.313896 
L 202.711972 254.199166 
L 203.327291 254.199166 
L 203.327291 254.084436 
L 204.804836 254.084436 
L 204.804836 253.969705 
L 205.148102 253.969705 
L 205.226812 253.510784 
L 205.72276 253.510784 
L 205.72276 253.396054 
L 206.053758 253.396054 
L 206.053758 253.281323 
L 206.247841 253.281323 
L 206.247841 253.166593 
L 206.424358 253.166593 
L 206.424358 252.937132 
L 206.756226 252.937132 
L 206.813346 252.707672 
L 206.984508 252.707672 
L 206.984508 252.592941 
L 207.429628 252.592941 
L 207.429628 252.478211 
L 209.219075 252.478211 
L 209.30347 252.019289 
L 209.344137 252.019289 
L 209.344137 251.789829 
L 209.697195 251.789829 
L 209.719926 251.560368 
L 209.961244 251.560368 
L 210.004738 251.330907 
L 210.524954 251.330907 
L 210.570988 251.101447 
L 210.717686 251.101447 
L 210.717686 250.986716 
L 211.0695 250.986716 
L 211.0695 250.871986 
L 211.384829 250.871986 
L 211.384829 250.757256 
L 212.330164 250.757256 
L 212.330164 250.527795 
L 212.729204 250.527795 
L 212.729204 250.298334 
L 212.895259 250.298334 
L 212.895259 250.068874 
L 213.187705 250.068874 
L 213.187705 249.954143 
L 213.476415 249.954143 
L 213.542679 249.609952 
L 213.652769 249.609952 
L 213.652769 249.495222 
L 214.020587 249.495222 
L 214.020587 249.380492 
L 215.328518 249.380492 
L 215.380575 249.036301 
L 215.628086 249.036301 
L 215.628086 248.92157 
L 215.760129 248.92157 
L 215.847372 248.577379 
L 216.194199 248.577379 
L 216.277743 248.233188 
L 216.317032 248.233188 
L 216.360501 247.888997 
L 216.594626 247.888997 
L 216.645286 247.659536 
L 216.874889 247.659536 
L 216.874889 247.544806 
L 217.681581 247.544806 
L 217.774152 246.856424 
L 217.866279 246.856424 
L 217.866279 246.741694 
L 218.017442 246.741694 
L 218.105487 246.282772 
L 218.136884 246.282772 
L 218.208935 246.053312 
L 218.37278 246.053312 
L 218.37278 245.938581 
L 218.631439 245.938581 
L 218.652293 245.59439 
L 218.8817 245.59439 
L 218.8817 245.47966 
L 219.083829 245.47966 
L 219.083829 245.36493 
L 219.832532 245.36493 
L 219.927439 244.676547 
L 220.514324 244.676547 
L 220.514324 244.561817 
L 220.663876 244.561817 
L 220.663876 244.447087 
L 221.714778 244.447087 
L 221.739953 244.102896 
L 221.829411 244.102896 
L 221.829411 243.988165 
L 221.949952 243.988165 
L 221.949952 243.873435 
L 222.102955 243.873435 
L 222.102955 243.758705 
L 222.282421 243.758705 
L 222.282421 243.643974 
L 222.441723 243.643974 
L 222.441723 243.414514 
L 222.806245 243.414514 
L 222.806245 243.299783 
L 223.469043 243.299783 
L 223.469043 243.185053 
L 223.637225 243.185053 
L 223.713665 242.955592 
L 224.025528 242.955592 
L 224.074251 242.611401 
L 224.257771 242.611401 
L 224.257771 242.496671 
L 224.970343 242.496671 
L 225.032143 242.15248 
L 225.215336 242.15248 
L 225.236227 241.923019 
L 225.52223 241.923019 
L 225.52223 241.808289 
L 226.290411 241.808289 
L 226.391242 241.578828 
L 226.402237 241.578828 
L 226.448215 241.234637 
L 226.546464 241.234637 
L 226.617189 241.005176 
L 226.664055 241.005176 
L 226.664055 240.890446 
L 226.925441 240.890446 
L 226.941897 240.660985 
L 227.74082 240.660985 
L 227.74082 240.546255 
L 228.361199 240.546255 
L 228.361199 240.316794 
L 229.061061 240.316794 
L 229.139006 239.857873 
L 230.467423 239.857873 
L 230.515768 239.628412 
L 230.642817 239.628412 
L 230.642817 239.513682 
L 231.148377 239.513682 
L 231.200591 239.169491 
L 231.271123 239.169491 
L 231.312354 238.94003 
L 232.077073 238.94003 
L 232.166254 238.595839 
L 232.279494 238.595839 
L 232.358076 238.251648 
L 232.517086 238.251648 
L 232.558889 237.907457 
L 232.752187 237.907457 
L 232.752187 237.792727 
L 233.27098 237.792727 
L 233.27098 237.677997 
L 233.489241 237.677997 
L 233.489241 237.563266 
L 233.943366 237.563266 
L 234.045279 237.333805 
L 234.05986 237.333805 
L 234.167283 237.104345 
L 234.185202 237.104345 
L 234.185202 236.989614 
L 234.561719 236.989614 
L 234.561719 236.874884 
L 234.863452 236.874884 
L 234.903599 236.301232 
L 235.047164 236.301232 
L 235.047164 236.186502 
L 235.694649 236.186502 
L 235.779445 235.957041 
L 235.832507 235.957041 
L 235.832507 235.842311 
L 236.870918 235.842311 
L 236.870918 235.727581 
L 237.202531 235.727581 
L 237.250914 235.49812 
L 237.36742 235.49812 
L 237.36742 235.38339 
L 237.525433 235.38339 
L 237.525433 235.268659 
L 237.9216 235.268659 
L 237.936401 234.809738 
L 238.578641 234.809738 
L 238.578641 234.695008 
L 238.718319 234.695008 
L 238.718319 234.580277 
L 239.290167 234.580277 
L 239.374498 234.121356 
L 239.93662 234.121356 
L 240.044805 233.777165 
L 240.167725 233.777165 
L 240.167725 233.662434 
L 240.533628 233.662434 
L 240.546371 233.432974 
L 240.669959 233.432974 
L 240.669959 233.318243 
L 240.92308 233.318243 
L 240.92308 233.203513 
L 241.129778 233.203513 
L 241.217947 232.859322 
L 241.79153 232.859322 
L 241.79153 232.744592 
L 242.387715 232.744592 
L 242.387715 232.629861 
L 242.817782 232.629861 
L 242.817782 232.515131 
L 243.01813 232.515131 
L 243.01813 232.400401 
L 243.55852 232.400401 
L 243.661659 232.17094 
L 243.859171 232.17094 
L 243.859171 232.05621 
L 244.039488 232.05621 
L 244.039488 231.941479 
L 244.333151 231.941479 
L 244.333151 231.826749 
L 244.814185 231.826749 
L 244.845471 231.597288 
L 245.370232 231.597288 
L 245.370232 231.482558 
L 245.936825 231.482558 
L 245.936825 231.253097 
L 246.182458 231.253097 
L 246.182458 231.138367 
L 246.624681 231.138367 
L 246.624681 231.023637 
L 247.484793 231.023637 
L 247.484793 230.908906 
L 250.109775 230.908906 
L 250.109775 230.794176 
L 250.790728 230.794176 
L 250.790728 230.679446 
L 251.194857 230.679446 
L 251.194857 230.564715 
L 252.737193 230.564715 
L 252.737193 230.449985 
L 253.019298 230.449985 
L 253.035847 230.220524 
L 256.969715 230.220524 
L 256.969715 230.105794 
L 338.688 230.105794 
L 338.688 230.105794 
" style="fill:none;stroke:#000080;stroke-linecap:square;stroke-width:1.5;"/>
   </g>
   <g id="line2d_36">
    <defs>
     <path d="M 0 6 
C 1.591219 6 3.117479 5.367802 4.242641 4.242641 
C 5.367802 3.117479 6 1.591219 6 0 
C 6 -1.591219 5.367802 -3.117479 4.242641 -4.242641 
C 3.117479 -5.367802 1.591219 -6 0 -6 
C -1.591219 -6 -3.117479 -5.367802 -4.242641 -4.242641 
C -5.367802 -3.117479 -6 -1.591219 -6 0 
C -6 1.591219 -5.367802 3.117479 -4.242641 4.242641 
C -3.117479 5.367802 -1.591219 6 0 6 
z
" id="m8bf3b39d18" style="stroke:#000080;stroke-width:1.5;"/>
    </defs>
    <g>
     <use style="fill-opacity:0;stroke:#000080;stroke-width:1.5;" x="103.213649" xlink:href="#m8bf3b39d18" y="288.044617"/>
     <use style="fill-opacity:0;stroke:#000080;stroke-width:1.5;" x="172.563617" xlink:href="#m8bf3b39d18" y="264.180706"/>
     <use style="fill-opacity:0;stroke:#000080;stroke-width:1.5;" x="256.969715" xlink:href="#m8bf3b39d18" y="230.220524"/>
     <use style="fill-opacity:0;stroke:#000080;stroke-width:1.5;" x="256.969715" xlink:href="#m8bf3b39d18" y="230.105794"/>
     <use style="fill-opacity:0;stroke:#000080;stroke-width:1.5;" x="256.969715" xlink:href="#m8bf3b39d18" y="230.105794"/>
     <use style="fill-opacity:0;stroke:#000080;stroke-width:1.5;" x="338.688" xlink:href="#m8bf3b39d18" y="230.105794"/>
    </g>
   </g>
   <g id="line2d_37">
    <path style="fill:none;stroke:#000080;stroke-linecap:square;stroke-width:1.5;"/>
    <g/>
   </g>
   <g id="line2d_38">
    <path clip-path="url(#pf54d9cb5c6)" d="M 181.957749 262.34502 
" style="fill:none;stroke:#000080;stroke-linecap:square;stroke-width:1.5;"/>
    <defs>
     <path d="M -12 12 
L 12 -12 
M -12 -12 
L 12 12 
" id="mcc85820240" style="stroke:#000080;"/>
    </defs>
    <g clip-path="url(#pf54d9cb5c6)">
     <use style="fill:#000080;stroke:#000080;" x="181.957749" xlink:href="#mcc85820240" y="262.34502"/>
    </g>
   </g>
   <g id="line2d_39">
    <defs>
     <path d="M 0 1.5 
C 0.397805 1.5 0.77937 1.341951 1.06066 1.06066 
C 1.341951 0.77937 1.5 0.397805 1.5 0 
C 1.5 -0.397805 1.341951 -0.77937 1.06066 -1.06066 
C 0.77937 -1.341951 0.397805 -1.5 0 -1.5 
C -0.397805 -1.5 -0.77937 -1.341951 -1.06066 -1.06066 
C -1.341951 -0.77937 -1.5 -0.397805 -1.5 0 
C -1.5 0.397805 -1.341951 0.77937 -1.06066 1.06066 
C -0.77937 1.341951 -0.397805 1.5 0 1.5 
z
" id="m0f083f88a4" style="stroke:#ff00ff;"/>
    </defs>
    <g>
     <use style="fill:#ff00ff;stroke:#ff00ff;" x="256.291542" xlink:href="#m0f083f88a4" y="231.253097"/>
     <use style="fill:#ff00ff;stroke:#ff00ff;" x="256.291542" xlink:href="#m0f083f88a4" y="231.253097"/>
    </g>
   </g>
   <g id="line2d_40">
    <path d="M -1 291.371797 
L 5.356583 291.371797 
L 5.356583 290.798146 
L 12.427603 290.798146 
L 12.427603 290.683415 
L 17.444571 290.683415 
L 17.444571 290.568685 
L 21.336035 290.568685 
L 21.336035 290.453955 
L 24.515591 290.453955 
L 24.515591 290.339224 
L 29.53256 290.339224 
L 29.53256 290.224494 
L 35.086164 290.224494 
L 35.086164 290.109764 
L 39.291857 290.109764 
L 39.291857 289.995033 
L 42.677798 289.995033 
L 42.677798 289.880303 
L 47.174153 289.880303 
L 47.174153 289.765573 
L 52.583031 289.765573 
L 52.583031 289.650842 
L 73.579452 289.650842 
L 73.579452 289.536112 
L 75.555822 289.536112 
L 75.555822 289.421381 
L 75.86449 289.421381 
L 75.86449 289.306651 
L 84.864467 289.306651 
L 84.864467 289.191921 
L 85.754419 289.191921 
L 85.754419 289.07719 
L 98.228533 289.07719 
L 98.228533 288.96246 
L 99.731799 288.96246 
L 99.731799 288.84773 
L 99.886816 288.84773 
L 99.886816 288.732999 
L 106.957836 288.732999 
L 106.957836 288.618269 
L 109.668146 288.618269 
L 109.668146 288.503539 
L 113.293356 288.503539 
L 113.293356 288.388808 
L 116.187386 288.388808 
L 116.187386 288.274078 
L 116.957981 288.274078 
L 116.957981 288.159348 
L 117.542433 288.159348 
L 117.542433 288.044617 
L 119.377041 288.044617 
L 119.377041 287.929887 
L 120.238719 287.929887 
L 120.238719 287.815157 
L 120.571812 287.815157 
L 120.595363 287.585696 
L 121.013926 287.585696 
L 121.013926 287.470966 
L 122.468041 287.470966 
L 122.468041 287.356235 
L 122.625864 287.356235 
L 122.625864 287.241505 
L 123.966069 287.241505 
L 123.966069 287.126775 
L 124.120571 287.126775 
L 124.120571 287.012044 
L 124.836322 287.012044 
L 124.836322 286.897314 
L 125.165375 286.897314 
L 125.237662 286.553123 
L 125.390285 286.553123 
L 125.390285 286.438393 
L 125.927192 286.438393 
L 125.927192 286.323662 
L 126.640485 286.323662 
L 126.640485 286.208932 
L 127.277682 286.208932 
L 127.277682 286.094202 
L 127.492935 286.094202 
L 127.492935 285.979471 
L 129.118302 285.979471 
L 129.118302 285.864741 
L 129.867126 285.864741 
L 129.867126 285.75001 
L 130.100661 285.75001 
L 130.100661 285.63528 
L 130.398313 285.63528 
L 130.398313 285.52055 
L 130.776505 285.52055 
L 130.776505 285.405819 
L 131.312942 285.405819 
L 131.312942 285.291089 
L 131.672008 285.291089 
L 131.672008 285.176359 
L 131.821009 285.176359 
L 131.821009 285.061628 
L 132.200139 285.061628 
L 132.218276 284.832168 
L 133.107658 284.832168 
L 133.107658 284.717437 
L 133.476967 284.717437 
L 133.476967 284.602707 
L 134.891008 284.602707 
L 134.891008 284.487977 
L 135.691441 284.487977 
L 135.775414 284.258516 
L 136.776048 284.258516 
L 136.790002 284.029055 
L 136.970386 284.029055 
L 136.970386 283.914325 
L 137.854087 283.914325 
L 137.854087 283.799595 
L 138.019513 283.799595 
L 138.019513 283.684864 
L 138.33297 283.684864 
L 138.33297 283.570134 
L 138.968107 283.570134 
L 138.968107 283.455404 
L 139.628399 283.455404 
L 139.628399 283.340673 
L 140.12692 283.340673 
L 140.12692 283.111213 
L 140.457803 283.111213 
L 140.491677 282.881752 
L 140.622786 282.881752 
L 140.622786 282.767022 
L 141.181008 282.767022 
L 141.242344 282.537561 
L 142.154501 282.537561 
L 142.154501 282.422831 
L 142.669787 282.422831 
L 142.669787 282.3081 
L 143.082997 282.3081 
L 143.082997 282.19337 
L 144.044473 282.19337 
L 144.044473 282.078639 
L 144.224497 282.078639 
L 144.224497 281.963909 
L 144.777223 281.963909 
L 144.8623 281.734448 
L 145.224334 281.734448 
L 145.224334 281.619718 
L 145.570577 281.619718 
L 145.570577 281.504988 
L 145.901809 281.504988 
L 145.923853 281.275527 
L 146.041862 281.275527 
L 146.150926 281.046066 
L 146.329404 281.046066 
L 146.329404 280.931336 
L 146.447382 280.931336 
L 146.511399 280.701875 
L 146.856743 280.701875 
L 146.856743 280.587145 
L 147.002309 280.587145 
L 147.002309 280.472415 
L 147.386337 280.472415 
L 147.386337 280.357684 
L 148.658095 280.357684 
L 148.744981 280.128224 
L 149.230078 280.128224 
L 149.266491 279.898763 
L 149.343616 279.898763 
L 149.343616 279.784033 
L 149.860968 279.784033 
L 149.860968 279.669302 
L 150.053258 279.669302 
L 150.053258 279.554572 
L 150.73515 279.554572 
L 150.73515 279.439842 
L 151.13797 279.439842 
L 151.13797 279.325111 
L 151.682772 279.325111 
L 151.682772 279.210381 
L 151.879584 279.210381 
L 151.891322 278.98092 
L 152.033509 278.98092 
L 152.066456 278.75146 
L 152.170698 278.75146 
L 152.170698 278.407268 
L 152.703309 278.407268 
L 152.703309 278.292538 
L 152.997626 278.292538 
L 152.997626 278.177808 
L 153.138392 278.177808 
L 153.212884 277.948347 
L 153.303299 277.948347 
L 153.303299 277.833617 
L 153.511275 277.833617 
L 153.511275 277.718886 
L 154.043103 277.718886 
L 154.043103 277.604156 
L 154.370201 277.604156 
L 154.458201 277.374695 
L 154.512136 277.374695 
L 154.512136 277.259965 
L 154.694607 277.259965 
L 154.737852 276.915774 
L 154.847148 276.915774 
L 154.870244 276.686313 
L 155.511181 276.686313 
L 155.511181 276.571583 
L 156.07409 276.571583 
L 156.07409 276.456853 
L 156.266892 276.456853 
L 156.266892 276.342122 
L 156.428964 276.342122 
L 156.502685 276.112662 
L 156.724958 276.112662 
L 156.724958 275.997931 
L 157.440836 275.997931 
L 157.440836 275.883201 
L 157.755244 275.883201 
L 157.755244 275.768471 
L 158.523341 275.768471 
L 158.523341 275.65374 
L 159.130375 275.65374 
L 159.207682 274.735897 
L 159.326836 274.735897 
L 159.326836 274.621167 
L 159.513531 274.621167 
L 159.620579 274.276976 
L 159.763125 274.276976 
L 159.763125 274.162246 
L 159.876081 274.162246 
L 159.876081 274.047515 
L 160.408554 274.047515 
L 160.500715 273.473864 
L 160.55197 273.473864 
L 160.636273 273.129673 
L 160.694216 273.129673 
L 160.694216 273.014942 
L 160.823597 273.014942 
L 160.903101 272.556021 
L 161.097981 272.556021 
L 161.19461 272.32656 
L 161.287285 272.32656 
L 161.379469 271.982369 
L 161.429341 271.982369 
L 161.434999 271.638178 
L 161.751188 271.638178 
L 161.782273 271.293987 
L 161.87078 271.293987 
L 161.957743 270.835066 
L 161.984076 270.835066 
L 161.984076 270.720335 
L 162.349702 270.720335 
L 162.434315 270.146684 
L 162.619242 270.146684 
L 162.697298 269.917223 
L 162.835672 269.917223 
L 162.9242 269.573032 
L 162.98849 269.573032 
L 162.989525 269.228841 
L 163.111226 269.228841 
L 163.20757 268.425729 
L 163.228001 268.425729 
L 163.308467 268.081538 
L 163.376421 268.081538 
L 163.376421 267.966807 
L 163.553675 267.966807 
L 163.553675 267.852077 
L 163.68246 267.852077 
L 163.793507 267.622616 
L 164.224008 267.622616 
L 164.224008 267.507886 
L 164.377608 267.507886 
L 164.384298 267.163695 
L 164.526077 267.163695 
L 164.570562 266.934234 
L 164.905727 266.934234 
L 165.00743 266.590043 
L 165.268207 266.590043 
L 165.268207 266.360582 
L 165.412017 266.360582 
L 165.519772 266.131122 
L 165.781875 266.131122 
L 165.781875 265.55747 
L 165.911026 265.55747 
L 165.911026 265.328009 
L 166.333042 265.328009 
L 166.333042 265.213279 
L 166.459886 265.213279 
L 166.492935 264.639627 
L 166.606013 264.639627 
L 166.705822 263.951245 
L 166.744251 263.951245 
L 166.744251 263.836515 
L 167.256543 263.836515 
L 167.363181 263.148133 
L 167.437121 263.148133 
L 167.528309 262.689211 
L 167.607907 262.689211 
L 167.607907 262.574481 
L 167.959339 262.574481 
L 168.048618 262.23029 
L 168.50715 262.23029 
L 168.50715 262.11556 
L 168.64314 262.11556 
L 168.64314 262.000829 
L 168.758758 262.000829 
L 168.758758 261.886099 
L 169.004589 261.886099 
L 169.102542 261.656638 
L 169.18617 261.656638 
L 169.254953 261.197717 
L 169.707168 261.197717 
L 169.707168 261.082987 
L 169.954657 261.082987 
L 169.954657 260.968256 
L 170.12597 260.968256 
L 170.12597 260.853526 
L 170.399461 260.853526 
L 170.399461 260.738796 
L 171.661421 260.738796 
L 171.69852 260.509335 
L 171.809969 260.509335 
L 171.809969 260.394605 
L 172.054157 260.394605 
L 172.054157 260.279874 
L 172.992839 260.279874 
L 172.992839 260.165144 
L 173.155374 260.165144 
L 173.155374 260.050414 
L 173.453831 260.050414 
L 173.453831 259.935683 
L 173.883566 259.935683 
L 173.916784 259.706222 
L 174.584696 259.706222 
L 174.667541 259.476762 
L 174.856183 259.476762 
L 174.856183 259.362031 
L 174.976311 259.362031 
L 174.976311 259.247301 
L 175.56635 259.247301 
L 175.56635 259.132571 
L 176.005584 259.132571 
L 176.005584 259.01784 
L 176.318263 259.01784 
L 176.318263 258.90311 
L 177.043254 258.90311 
L 177.148806 258.558919 
L 177.218973 258.558919 
L 177.218973 258.444189 
L 177.833671 258.444189 
L 177.833671 258.329458 
L 178.505412 258.329458 
L 178.505412 258.214728 
L 178.910922 258.214728 
L 178.910922 258.099998 
L 179.155922 258.099998 
L 179.185386 257.870537 
L 179.522302 257.870537 
L 179.522302 257.755807 
L 179.635035 257.755807 
L 179.635035 257.641076 
L 179.856373 257.641076 
L 179.894103 257.411616 
L 180.812142 257.411616 
L 180.812142 257.296885 
L 181.217117 257.296885 
L 181.217481 257.067425 
L 181.586199 257.067425 
L 181.586199 256.952694 
L 183.433085 256.952694 
L 183.501855 256.723234 
L 183.598633 256.723234 
L 183.613864 256.493773 
L 184.162136 256.493773 
L 184.162136 256.379043 
L 184.819651 256.379043 
L 184.819651 256.264312 
L 185.026213 256.264312 
L 185.026213 256.149582 
L 185.233248 256.149582 
L 185.233248 255.920121 
L 185.400675 255.920121 
L 185.41813 255.69066 
L 185.520792 255.69066 
L 185.520792 255.57593 
L 185.642911 255.57593 
L 185.642911 255.4612 
L 186.127405 255.4612 
L 186.127405 255.346469 
L 186.263901 255.346469 
L 186.263901 255.231739 
L 186.427972 255.231739 
L 186.427972 255.117009 
L 186.587305 255.117009 
L 186.587305 255.002278 
L 186.726101 255.002278 
L 186.726101 254.887548 
L 187.083027 254.887548 
L 187.120941 254.543357 
L 187.434833 254.543357 
L 187.434833 254.428627 
L 187.686261 254.428627 
L 187.745427 254.084436 
L 187.927677 254.084436 
L 187.927677 253.969705 
L 188.110738 253.969705 
L 188.110738 253.854975 
L 188.776761 253.854975 
L 188.80387 253.510784 
L 189.021559 253.510784 
L 189.021559 253.396054 
L 189.207129 253.396054 
L 189.207129 253.281323 
L 189.954986 253.281323 
L 189.954986 253.166593 
L 190.745994 253.166593 
L 190.788297 252.822402 
L 191.231004 252.822402 
L 191.322372 252.478211 
L 191.452969 252.478211 
L 191.452969 252.13402 
L 191.806504 252.13402 
L 191.806504 252.019289 
L 192.119742 252.019289 
L 192.119742 251.904559 
L 192.923022 251.904559 
L 192.923022 251.789829 
L 193.818247 251.789829 
L 193.818247 251.675098 
L 195.861616 251.675098 
L 195.861616 251.560368 
L 196.088469 251.560368 
L 196.18376 251.330907 
L 196.253659 251.330907 
L 196.27838 251.101447 
L 196.507786 251.101447 
L 196.604132 250.642525 
L 196.668469 250.642525 
L 196.668469 250.527795 
L 196.843884 250.527795 
L 196.843884 250.413065 
L 197.06719 250.413065 
L 197.144158 250.068874 
L 197.178582 250.068874 
L 197.178582 249.954143 
L 197.331495 249.954143 
L 197.331495 249.724683 
L 197.477064 249.724683 
L 197.571493 249.495222 
L 197.72059 249.495222 
L 197.807389 249.036301 
L 198.645713 249.036301 
L 198.672217 248.577379 
L 198.85861 248.577379 
L 198.869987 248.347918 
L 199.008166 248.347918 
L 199.008166 248.233188 
L 199.675653 248.233188 
L 199.675653 248.118458 
L 199.847426 248.118458 
L 199.893504 247.659536 
L 200.052654 247.659536 
L 200.159099 247.430076 
L 200.231905 247.430076 
L 200.342127 246.971154 
L 200.376368 246.971154 
L 200.444045 246.741694 
L 200.743188 246.741694 
L 200.743188 246.626963 
L 200.873358 246.626963 
L 200.873476 246.168042 
L 200.993785 246.168042 
L 200.993785 246.053312 
L 202.294502 246.053312 
L 202.294502 245.938581 
L 202.619314 245.938581 
L 202.636479 245.709121 
L 202.766739 245.709121 
L 202.793161 245.47966 
L 202.997574 245.47966 
L 203.005817 245.250199 
L 203.217458 245.250199 
L 203.217458 245.135469 
L 203.781899 245.135469 
L 203.881698 244.906008 
L 204.072534 244.906008 
L 204.072534 244.791278 
L 204.438157 244.791278 
L 204.438157 244.676547 
L 204.783086 244.676547 
L 204.82515 244.447087 
L 205.197303 244.447087 
L 205.197303 244.332356 
L 205.420457 244.332356 
L 205.420457 244.217626 
L 206.020352 244.217626 
L 206.020352 244.102896 
L 206.881896 244.102896 
L 206.881896 243.988165 
L 207.285751 243.988165 
L 207.285751 243.873435 
L 207.411323 243.873435 
L 207.453492 243.643974 
L 207.608181 243.643974 
L 207.608181 243.529244 
L 207.732495 243.529244 
L 207.732495 243.414514 
L 208.169786 243.414514 
L 208.169786 243.299783 
L 208.519209 243.299783 
L 208.599938 243.070323 
L 208.682179 243.070323 
L 208.790858 242.726132 
L 208.834828 242.726132 
L 208.834828 242.611401 
L 209.033844 242.611401 
L 209.033844 242.496671 
L 209.174892 242.496671 
L 209.174892 242.26721 
L 209.456927 242.26721 
L 209.456927 242.03775 
L 209.584738 242.03775 
L 209.624684 241.808289 
L 209.875407 241.808289 
L 209.951509 241.578828 
L 210.952817 241.578828 
L 210.975688 241.234637 
L 211.297243 241.234637 
L 211.297243 241.119907 
L 211.479681 241.119907 
L 211.479681 241.005176 
L 212.096594 241.005176 
L 212.185073 240.660985 
L 212.680809 240.660985 
L 212.680809 240.546255 
L 212.83848 240.546255 
L 212.871633 240.202064 
L 213.080017 240.202064 
L 213.080017 240.087334 
L 213.781527 240.087334 
L 213.781527 239.972603 
L 214.201434 239.972603 
L 214.201434 239.857873 
L 214.372218 239.857873 
L 214.425091 239.398952 
L 214.5428 239.398952 
L 214.5428 239.284221 
L 214.876555 239.284221 
L 214.947555 239.054761 
L 215.022719 239.054761 
L 215.022719 238.8253 
L 215.157329 238.8253 
L 215.157329 238.71057 
L 215.274963 238.71057 
L 215.364096 238.366379 
L 215.444905 238.366379 
L 215.518011 238.022188 
L 215.565242 238.022188 
L 215.579554 237.792727 
L 216.824468 237.792727 
L 216.934227 237.563266 
L 217.679917 237.563266 
L 217.68828 237.333805 
L 217.976724 237.333805 
L 217.976724 237.219075 
L 218.128251 237.219075 
L 218.130837 236.874884 
L 219.089637 236.874884 
L 219.089637 236.760154 
L 219.544876 236.760154 
L 219.600838 236.415963 
L 220.058167 236.415963 
L 220.058167 236.301232 
L 220.192712 236.301232 
L 220.241978 236.071772 
L 220.596205 236.071772 
L 220.596205 235.957041 
L 220.797194 235.957041 
L 220.797194 235.842311 
L 221.508555 235.842311 
L 221.508555 235.727581 
L 221.741984 235.727581 
L 221.741984 235.61285 
L 222.040549 235.61285 
L 222.040549 235.49812 
L 222.699022 235.49812 
L 222.699022 235.38339 
L 222.855583 235.38339 
L 222.855583 235.268659 
L 223.106857 235.268659 
L 223.177648 235.039199 
L 223.450122 235.039199 
L 223.519311 234.809738 
L 223.709305 234.809738 
L 223.747679 234.580277 
L 225.232231 234.580277 
L 225.232231 234.465547 
L 225.998166 234.465547 
L 225.998166 234.350817 
L 226.356029 234.350817 
L 226.356029 234.236086 
L 226.66032 234.236086 
L 226.66032 234.121356 
L 227.318964 234.121356 
L 227.318964 234.006626 
L 227.839027 234.006626 
L 227.929165 233.777165 
L 229.902353 233.777165 
L 229.902353 233.662434 
L 230.286711 233.662434 
L 230.286711 233.547704 
L 230.841434 233.547704 
L 230.841434 233.432974 
L 231.250109 233.432974 
L 231.349073 233.203513 
L 231.86785 233.203513 
L 231.86785 233.088783 
L 232.346869 233.088783 
L 232.346869 232.974052 
L 234.43774 232.974052 
L 234.43774 232.859322 
L 235.016485 232.859322 
L 235.016485 232.744592 
L 235.277412 232.744592 
L 235.277412 232.629861 
L 235.849493 232.629861 
L 235.849493 232.515131 
L 236.525613 232.515131 
L 236.606062 232.17094 
L 239.610322 232.17094 
L 239.610322 232.05621 
L 243.446004 232.05621 
L 243.446004 231.941479 
L 243.951781 231.941479 
L 243.951781 231.826749 
L 244.431016 231.826749 
L 244.431016 231.712019 
L 245.828499 231.712019 
L 245.828499 231.597288 
L 247.543308 231.597288 
L 247.543308 231.482558 
L 252.763717 231.482558 
L 252.763717 231.367828 
L 256.291542 231.367828 
L 256.291542 231.253097 
L 338.688 231.253097 
L 338.688 231.253097 
" style="fill:none;stroke:#ff00ff;stroke-linecap:square;stroke-width:1.5;"/>
   </g>
   <g id="line2d_41">
    <defs>
     <path d="M 0 8.485281 
L 5.091169 0 
L 0 -8.485281 
L -5.091169 0 
z
" id="m0de20337df" style="stroke:#ff00ff;stroke-linejoin:miter;stroke-width:1.5;"/>
    </defs>
    <g>
     <use style="fill-opacity:0;stroke:#ff00ff;stroke-linejoin:miter;stroke-width:1.5;" x="122.625864" xlink:href="#m0de20337df" y="287.356235"/>
     <use style="fill-opacity:0;stroke:#ff00ff;stroke-linejoin:miter;stroke-width:1.5;" x="181.586199" xlink:href="#m0de20337df" y="256.952694"/>
     <use style="fill-opacity:0;stroke:#ff00ff;stroke-linejoin:miter;stroke-width:1.5;" x="256.291542" xlink:href="#m0de20337df" y="231.367828"/>
     <use style="fill-opacity:0;stroke:#ff00ff;stroke-linejoin:miter;stroke-width:1.5;" x="256.291542" xlink:href="#m0de20337df" y="231.253097"/>
     <use style="fill-opacity:0;stroke:#ff00ff;stroke-linejoin:miter;stroke-width:1.5;" x="338.688" xlink:href="#m0de20337df" y="231.253097"/>
    </g>
   </g>
   <g id="line2d_42">
    <path style="fill:none;stroke:#ff00ff;stroke-linecap:square;stroke-width:1.5;"/>
    <g/>
   </g>
   <g id="line2d_43">
    <path clip-path="url(#pf54d9cb5c6)" d="M 181.957749 256.952694 
" style="fill:none;stroke:#ff00ff;stroke-linecap:square;stroke-width:1.5;"/>
    <defs>
     <path d="M -12 12 
L 12 -12 
M -12 -12 
L 12 12 
" id="m0974afdd03" style="stroke:#ff00ff;"/>
    </defs>
    <g clip-path="url(#pf54d9cb5c6)">
     <use style="fill:#ff00ff;stroke:#ff00ff;" x="181.957749" xlink:href="#m0974afdd03" y="256.952694"/>
    </g>
   </g>
   <g id="line2d_44">
    <defs>
     <path d="M 0 1.5 
C 0.397805 1.5 0.77937 1.341951 1.06066 1.06066 
C 1.341951 0.77937 1.5 0.397805 1.5 0 
C 1.5 -0.397805 1.341951 -0.77937 1.06066 -1.06066 
C 0.77937 -1.341951 0.397805 -1.5 0 -1.5 
C -0.397805 -1.5 -0.77937 -1.341951 -1.06066 -1.06066 
C -1.341951 -0.77937 -1.5 -0.397805 -1.5 0 
C -1.5 0.397805 -1.341951 0.77937 -1.06066 1.06066 
C -0.77937 1.341951 -0.397805 1.5 0 1.5 
z
" id="m5a13534696" style="stroke:#ff7500;"/>
    </defs>
    <g>
     <use style="fill:#ff7500;stroke:#ff7500;" x="257.683366" xlink:href="#m5a13534696" y="254.199166"/>
     <use style="fill:#ff7500;stroke:#ff7500;" x="257.683366" xlink:href="#m5a13534696" y="254.199166"/>
    </g>
   </g>
   <g id="line2d_45">
    <path d="M -1 290.912876 
L 5.356583 290.912876 
L 5.356583 290.683415 
L 12.427603 290.683415 
L 12.427603 290.568685 
L 29.53256 290.568685 
L 29.53256 290.224494 
L 40.495043 290.224494 
L 40.495043 290.109764 
L 41.620548 290.109764 
L 41.620548 289.995033 
L 44.617493 289.995033 
L 44.617493 289.880303 
L 48.691568 289.880303 
L 48.691568 289.765573 
L 78.421149 289.765573 
L 78.421149 289.650842 
L 79.817037 289.650842 
L 79.817037 289.536112 
L 84.864467 289.536112 
L 84.864467 289.421381 
L 90.040492 289.421381 
L 90.040492 289.306651 
L 90.376519 289.306651 
L 90.376519 289.191921 
L 91.965895 289.191921 
L 91.965895 289.07719 
L 94.134347 289.07719 
L 94.134347 288.96246 
L 100.381311 288.96246 
L 100.381311 288.84773 
L 101.992235 288.84773 
L 101.992235 288.732999 
L 109.222105 288.732999 
L 109.222105 288.618269 
L 136.049207 288.618269 
L 136.049207 288.388808 
L 141.220721 288.388808 
L 141.220721 288.274078 
L 141.951657 288.274078 
L 141.951657 288.159348 
L 145.429504 288.159348 
L 145.531191 287.929887 
L 147.241401 287.929887 
L 147.241401 287.815157 
L 147.848613 287.815157 
L 147.848613 287.700426 
L 150.094499 287.700426 
L 150.094499 287.585696 
L 151.004728 287.585696 
L 151.004728 287.470966 
L 151.262094 287.470966 
L 151.262094 287.356235 
L 151.676833 287.356235 
L 151.694644 287.126775 
L 152.521286 287.126775 
L 152.521286 287.012044 
L 153.50771 287.012044 
L 153.607252 286.782584 
L 153.886821 286.782584 
L 153.886821 286.667853 
L 155.10442 286.667853 
L 155.10442 286.553123 
L 155.250207 286.553123 
L 155.250207 286.438393 
L 156.115584 286.438393 
L 156.115584 286.323662 
L 156.759018 286.323662 
L 156.759018 286.208932 
L 157.207383 286.208932 
L 157.207383 286.094202 
L 159.946463 286.094202 
L 159.946463 285.979471 
L 160.152267 285.979471 
L 160.152267 285.864741 
L 160.263949 285.864741 
L 160.263949 285.75001 
L 160.600702 285.75001 
L 160.627979 285.52055 
L 160.832969 285.52055 
L 160.832969 285.405819 
L 161.503882 285.405819 
L 161.503882 285.291089 
L 161.721162 285.291089 
L 161.721162 285.176359 
L 162.62664 285.176359 
L 162.62664 285.061628 
L 163.830038 285.061628 
L 163.830038 284.946898 
L 164.80809 284.946898 
L 164.914997 284.602707 
L 165.09112 284.602707 
L 165.09112 284.487977 
L 165.840859 284.487977 
L 165.840859 284.373246 
L 166.494628 284.373246 
L 166.5976 284.029055 
L 167.259784 284.029055 
L 167.259784 283.914325 
L 167.497166 283.914325 
L 167.497166 283.799595 
L 167.735303 283.799595 
L 167.786474 283.570134 
L 167.953111 283.570134 
L 167.953111 283.455404 
L 168.121256 283.455404 
L 168.121256 283.340673 
L 168.264866 283.340673 
L 168.264866 283.225943 
L 168.764705 283.225943 
L 168.764705 283.111213 
L 169.594146 283.111213 
L 169.637322 282.881752 
L 169.864877 282.881752 
L 169.864877 282.767022 
L 170.065374 282.767022 
L 170.065374 282.537561 
L 170.797521 282.537561 
L 170.882637 282.3081 
L 171.646937 282.3081 
L 171.690352 282.078639 
L 171.857961 282.078639 
L 171.857961 281.963909 
L 172.2974 281.963909 
L 172.2974 281.849179 
L 172.431619 281.849179 
L 172.43463 281.619718 
L 172.778072 281.619718 
L 172.778072 281.390257 
L 172.996921 281.390257 
L 173.056873 281.160797 
L 173.153062 281.160797 
L 173.240102 280.472415 
L 173.47143 280.472415 
L 173.47143 280.128224 
L 173.640265 280.128224 
L 173.693567 279.784033 
L 173.855281 279.784033 
L 173.893538 279.439842 
L 174.174823 279.439842 
L 174.174823 279.325111 
L 174.296472 279.325111 
L 174.296472 279.210381 
L 174.488614 279.210381 
L 174.578839 278.407268 
L 174.613949 278.407268 
L 174.72044 278.063077 
L 174.749466 278.063077 
L 174.830484 277.604156 
L 175.0454 277.604156 
L 175.0454 277.489426 
L 175.235662 277.489426 
L 175.339964 277.145235 
L 175.421842 277.145235 
L 175.52504 276.686313 
L 175.545707 276.686313 
L 175.611577 275.883201 
L 175.72613 275.883201 
L 175.807708 275.53901 
L 175.846374 275.53901 
L 175.846374 275.42428 
L 175.958417 275.42428 
L 176.016866 274.276976 
L 176.138051 274.276976 
L 176.138051 274.162246 
L 176.394725 274.162246 
L 176.445035 273.818055 
L 176.642473 273.818055 
L 176.651932 273.244403 
L 176.779596 273.244403 
L 176.871817 273.014942 
L 176.979337 273.014942 
L 176.979337 272.785482 
L 177.096801 272.785482 
L 177.184154 271.752909 
L 177.233156 271.752909 
L 177.31983 271.179257 
L 177.465744 271.179257 
L 177.49415 270.949796 
L 177.760615 270.949796 
L 177.807583 270.720335 
L 178.320777 270.720335 
L 178.320777 270.605605 
L 178.487121 270.605605 
L 178.512638 270.376144 
L 178.652737 270.376144 
L 178.707454 270.146684 
L 179.338048 270.146684 
L 179.338048 270.031953 
L 179.547951 270.031953 
L 179.585554 269.802493 
L 179.726048 269.802493 
L 179.726048 269.687762 
L 180.341761 269.687762 
L 180.386092 269.458302 
L 180.570986 269.458302 
L 180.570986 269.343571 
L 180.744969 269.343571 
L 180.788661 269.114111 
L 180.877202 269.114111 
L 180.877202 268.99938 
L 181.075342 268.99938 
L 181.075342 268.88465 
L 181.41793 268.88465 
L 181.492598 268.655189 
L 181.546605 268.655189 
L 181.546605 268.540459 
L 181.770143 268.540459 
L 181.844023 268.310998 
L 184.827641 268.310998 
L 184.916469 268.081538 
L 185.345619 268.081538 
L 185.345619 267.966807 
L 186.503655 267.966807 
L 186.503655 267.852077 
L 187.499173 267.852077 
L 187.499173 267.737347 
L 188.93738 267.737347 
L 188.951633 267.393156 
L 189.343538 267.393156 
L 189.343538 267.278425 
L 190.015078 267.278425 
L 190.015078 267.163695 
L 190.134644 267.163695 
L 190.134644 267.048964 
L 190.63247 267.048964 
L 190.63247 266.819504 
L 190.75758 266.819504 
L 190.75758 266.590043 
L 191.113383 266.590043 
L 191.132767 266.245852 
L 191.784083 266.245852 
L 191.784083 266.131122 
L 192.073133 266.131122 
L 192.073133 266.016391 
L 192.899944 266.016391 
L 192.965562 265.55747 
L 193.256455 265.55747 
L 193.366136 265.213279 
L 193.380274 265.213279 
L 193.470988 264.869088 
L 193.513831 264.869088 
L 193.513831 264.754358 
L 193.777917 264.754358 
L 193.777917 264.639627 
L 193.952187 264.639627 
L 193.952187 264.524897 
L 196.439964 264.524897 
L 196.439964 264.410167 
L 197.62782 264.410167 
L 197.72172 264.180706 
L 198.450517 264.180706 
L 198.450517 264.065976 
L 198.917004 264.065976 
L 198.99491 263.836515 
L 199.229799 263.836515 
L 199.229799 263.607054 
L 199.58056 263.607054 
L 199.642031 263.377593 
L 200.098194 263.377593 
L 200.098194 263.262863 
L 200.958507 263.262863 
L 200.958507 263.148133 
L 203.771918 263.148133 
L 203.771918 263.033402 
L 204.297574 263.033402 
L 204.297574 262.918672 
L 204.99445 262.918672 
L 205.039536 262.689211 
L 205.152161 262.689211 
L 205.152161 262.574481 
L 205.375435 262.574481 
L 205.375435 262.459751 
L 205.570238 262.459751 
L 205.57519 262.23029 
L 205.804168 262.23029 
L 205.804168 262.11556 
L 206.015173 262.11556 
L 206.015173 261.886099 
L 208.162026 261.886099 
L 208.162026 261.771369 
L 209.355159 261.771369 
L 209.355159 261.656638 
L 209.531788 261.656638 
L 209.601113 261.427178 
L 209.789286 261.427178 
L 209.789286 261.312447 
L 209.918554 261.312447 
L 209.918554 261.197717 
L 212.394649 261.197717 
L 212.453557 260.968256 
L 212.648191 260.968256 
L 212.648191 260.853526 
L 212.834383 260.853526 
L 212.834383 260.624065 
L 213.136891 260.624065 
L 213.136891 260.509335 
L 214.811628 260.509335 
L 214.811628 260.394605 
L 214.949238 260.394605 
L 214.949238 260.279874 
L 215.417071 260.279874 
L 215.417071 260.165144 
L 215.825377 260.165144 
L 215.825377 260.050414 
L 217.47139 260.050414 
L 217.47139 259.935683 
L 217.661378 259.935683 
L 217.661378 259.820953 
L 218.162538 259.820953 
L 218.198374 259.247301 
L 219.739904 259.247301 
L 219.739904 259.132571 
L 219.942811 259.132571 
L 219.942811 259.01784 
L 220.216604 259.01784 
L 220.230559 258.78838 
L 221.902428 258.78838 
L 221.902428 258.673649 
L 222.094507 258.673649 
L 222.094507 258.558919 
L 223.338119 258.558919 
L 223.338119 258.444189 
L 223.473947 258.444189 
L 223.583834 258.099998 
L 223.656199 258.099998 
L 223.656199 257.985267 
L 224.892389 257.985267 
L 224.892389 257.870537 
L 225.016677 257.870537 
L 225.016677 257.755807 
L 225.277177 257.755807 
L 225.277177 257.641076 
L 226.319401 257.641076 
L 226.319401 257.526346 
L 226.458793 257.526346 
L 226.458793 257.411616 
L 226.647685 257.411616 
L 226.647685 257.296885 
L 227.744659 257.296885 
L 227.744659 257.182155 
L 227.947221 257.182155 
L 227.947221 257.067425 
L 229.148725 257.067425 
L 229.148725 256.952694 
L 230.010309 256.952694 
L 230.103071 256.723234 
L 230.276449 256.723234 
L 230.276449 256.608503 
L 231.33913 256.608503 
L 231.33913 256.379043 
L 232.246986 256.379043 
L 232.246986 256.264312 
L 234.17752 256.264312 
L 234.17752 256.149582 
L 235.043143 256.149582 
L 235.043143 256.034851 
L 235.839129 256.034851 
L 235.844827 255.69066 
L 237.254823 255.69066 
L 237.254823 255.57593 
L 238.592977 255.57593 
L 238.592977 255.4612 
L 239.312621 255.4612 
L 239.312621 255.346469 
L 241.254459 255.346469 
L 241.258636 255.117009 
L 241.776311 255.117009 
L 241.776311 255.002278 
L 242.928671 255.002278 
L 242.928671 254.887548 
L 246.206795 254.887548 
L 246.206795 254.772818 
L 247.947054 254.772818 
L 247.947054 254.658087 
L 248.680903 254.658087 
L 248.680903 254.543357 
L 251.134663 254.543357 
L 251.134663 254.428627 
L 251.833091 254.428627 
L 251.833091 254.313896 
L 257.683366 254.313896 
L 257.683366 254.199166 
L 338.688 254.199166 
L 338.688 254.199166 
" style="fill:none;stroke:#ff7500;stroke-linecap:square;stroke-width:1.5;"/>
   </g>
   <g id="line2d_46">
    <defs>
     <path d="M 0 -6 
L -1.347084 -1.854102 
L -5.706339 -1.854102 
L -2.179628 0.708204 
L -3.526712 4.854102 
L -0 2.291796 
L 3.526712 4.854102 
L 2.179628 0.708204 
L 5.706339 -1.854102 
L 1.347084 -1.854102 
z
" id="m76f6e33486" style="stroke:#ff7500;stroke-linejoin:bevel;stroke-width:1.5;"/>
    </defs>
    <g>
     <use style="fill-opacity:0;stroke:#ff7500;stroke-linejoin:bevel;stroke-width:1.5;" x="84.864467" xlink:href="#m76f6e33486" y="289.421381"/>
     <use style="fill-opacity:0;stroke:#ff7500;stroke-linejoin:bevel;stroke-width:1.5;" x="170.065374" xlink:href="#m76f6e33486" y="282.767022"/>
     <use style="fill-opacity:0;stroke:#ff7500;stroke-linejoin:bevel;stroke-width:1.5;" x="248.680903" xlink:href="#m76f6e33486" y="254.658087"/>
     <use style="fill-opacity:0;stroke:#ff7500;stroke-linejoin:bevel;stroke-width:1.5;" x="257.683366" xlink:href="#m76f6e33486" y="254.199166"/>
     <use style="fill-opacity:0;stroke:#ff7500;stroke-linejoin:bevel;stroke-width:1.5;" x="257.683366" xlink:href="#m76f6e33486" y="254.199166"/>
     <use style="fill-opacity:0;stroke:#ff7500;stroke-linejoin:bevel;stroke-width:1.5;" x="338.688" xlink:href="#m76f6e33486" y="254.199166"/>
    </g>
   </g>
   <g id="line2d_47">
    <path style="fill:none;stroke:#ff7500;stroke-linecap:square;stroke-width:1.5;"/>
    <g/>
   </g>
   <g id="line2d_48">
    <path clip-path="url(#pf54d9cb5c6)" d="M 181.957749 268.310998 
" style="fill:none;stroke:#ff7500;stroke-linecap:square;stroke-width:1.5;"/>
    <defs>
     <path d="M -12 12 
L 12 -12 
M -12 -12 
L 12 12 
" id="m37c8bf57b7" style="stroke:#ff7500;"/>
    </defs>
    <g clip-path="url(#pf54d9cb5c6)">
     <use style="fill:#ff7500;stroke:#ff7500;" x="181.957749" xlink:href="#m37c8bf57b7" y="268.310998"/>
    </g>
   </g>
   <g id="line2d_49">
    <path d="M 338.688 254.199166 
L 369.60768 293.092752 
" style="fill:none;stroke:#ff7500;stroke-linecap:square;stroke-width:1.5;"/>
    <g>
     <use style="fill-opacity:0;stroke:#ff7500;stroke-linejoin:bevel;stroke-width:1.5;" x="338.688" xlink:href="#m76f6e33486" y="254.199166"/>
     <use style="fill-opacity:0;stroke:#ff7500;stroke-linejoin:bevel;stroke-width:1.5;" x="369.60768" xlink:href="#m76f6e33486" y="293.092752"/>
    </g>
   </g>
   <g id="line2d_50">
    <path d="M 338.688 231.253097 
L 369.60768 199.472792 
" style="fill:none;stroke:#ff00ff;stroke-linecap:square;stroke-width:1.5;"/>
    <g>
     <use style="fill-opacity:0;stroke:#ff00ff;stroke-linejoin:miter;stroke-width:1.5;" x="338.688" xlink:href="#m0de20337df" y="231.253097"/>
     <use style="fill-opacity:0;stroke:#ff00ff;stroke-linejoin:miter;stroke-width:1.5;" x="369.60768" xlink:href="#m0de20337df" y="199.472792"/>
    </g>
   </g>
   <g id="line2d_51">
    <path d="M 338.688 230.105794 
L 369.60768 105.852832 
" style="fill:none;stroke:#000080;stroke-linecap:square;stroke-width:1.5;"/>
    <g>
     <use style="fill-opacity:0;stroke:#000080;stroke-width:1.5;" x="338.688" xlink:href="#m8bf3b39d18" y="230.105794"/>
     <use style="fill-opacity:0;stroke:#000080;stroke-width:1.5;" x="369.60768" xlink:href="#m8bf3b39d18" y="105.852832"/>
    </g>
   </g>
   <g id="line2d_52">
    <path d="M 338.688 298.944 
L 338.688 6.381624 
" style="fill:none;stroke:#000000;stroke-linecap:square;stroke-width:1.5;"/>
   </g>
   <g id="patch_3">
    <path d="M 57.6 298.944 
L 57.6 3.456 
" style="fill:none;stroke:#000000;stroke-linecap:square;stroke-linejoin:miter;stroke-width:0.8;"/>
   </g>
   <g id="patch_4">
    <path d="M 338.688 298.944 
L 338.688 3.456 
" style="fill:none;stroke:#000000;stroke-linecap:square;stroke-linejoin:miter;stroke-width:0.8;"/>
   </g>
   <g id="patch_5">
    <path d="M 57.6 298.944 
L 338.688 298.944 
" style="fill:none;stroke:#000000;stroke-linecap:square;stroke-linejoin:miter;stroke-width:0.8;"/>
   </g>
   <g id="patch_6">
    <path d="M 57.6 3.456 
L 338.688 3.456 
" style="fill:none;stroke:#000000;stroke-linecap:square;stroke-linejoin:miter;stroke-width:0.8;"/>
   </g>
   <g id="text_13">
    <!-- PSO EDA -->
    <g transform="translate(375.22944 297.78369)scale(0.17 -0.17)">
     <defs>
      <path d="M 1259 4147 
L 1259 2394 
L 2053 2394 
Q 2494 2394 2734 2622 
Q 2975 2850 2975 3272 
Q 2975 3691 2734 3919 
Q 2494 4147 2053 4147 
L 1259 4147 
z
M 628 4666 
L 2053 4666 
Q 2838 4666 3239 4311 
Q 3641 3956 3641 3272 
Q 3641 2581 3239 2228 
Q 2838 1875 2053 1875 
L 1259 1875 
L 1259 0 
L 628 0 
L 628 4666 
z
" id="DejaVuSans-50" transform="scale(0.015625)"/>
      <path d="M 3425 4513 
L 3425 3897 
Q 3066 4069 2747 4153 
Q 2428 4238 2131 4238 
Q 1616 4238 1336 4038 
Q 1056 3838 1056 3469 
Q 1056 3159 1242 3001 
Q 1428 2844 1947 2747 
L 2328 2669 
Q 3034 2534 3370 2195 
Q 3706 1856 3706 1288 
Q 3706 609 3251 259 
Q 2797 -91 1919 -91 
Q 1588 -91 1214 -16 
Q 841 59 441 206 
L 441 856 
Q 825 641 1194 531 
Q 1563 422 1919 422 
Q 2459 422 2753 634 
Q 3047 847 3047 1241 
Q 3047 1584 2836 1778 
Q 2625 1972 2144 2069 
L 1759 2144 
Q 1053 2284 737 2584 
Q 422 2884 422 3419 
Q 422 4038 858 4394 
Q 1294 4750 2059 4750 
Q 2388 4750 2728 4690 
Q 3069 4631 3425 4513 
z
" id="DejaVuSans-53" transform="scale(0.015625)"/>
      <path d="M 2522 4238 
Q 1834 4238 1429 3725 
Q 1025 3213 1025 2328 
Q 1025 1447 1429 934 
Q 1834 422 2522 422 
Q 3209 422 3611 934 
Q 4013 1447 4013 2328 
Q 4013 3213 3611 3725 
Q 3209 4238 2522 4238 
z
M 2522 4750 
Q 3503 4750 4090 4092 
Q 4678 3434 4678 2328 
Q 4678 1225 4090 567 
Q 3503 -91 2522 -91 
Q 1538 -91 948 565 
Q 359 1222 359 2328 
Q 359 3434 948 4092 
Q 1538 4750 2522 4750 
z
" id="DejaVuSans-4f" transform="scale(0.015625)"/>
      <path d="M 628 4666 
L 3578 4666 
L 3578 4134 
L 1259 4134 
L 1259 2753 
L 3481 2753 
L 3481 2222 
L 1259 2222 
L 1259 531 
L 3634 531 
L 3634 0 
L 628 0 
L 628 4666 
z
" id="DejaVuSans-45" transform="scale(0.015625)"/>
      <path d="M 1259 4147 
L 1259 519 
L 2022 519 
Q 2988 519 3436 956 
Q 3884 1394 3884 2338 
Q 3884 3275 3436 3711 
Q 2988 4147 2022 4147 
L 1259 4147 
z
M 628 4666 
L 1925 4666 
Q 3281 4666 3915 4102 
Q 4550 3538 4550 2338 
Q 4550 1131 3912 565 
Q 3275 0 1925 0 
L 628 0 
L 628 4666 
z
" id="DejaVuSans-44" transform="scale(0.015625)"/>
      <path d="M 2188 4044 
L 1331 1722 
L 3047 1722 
L 2188 4044 
z
M 1831 4666 
L 2547 4666 
L 4325 0 
L 3669 0 
L 3244 1197 
L 1141 1197 
L 716 0 
L 50 0 
L 1831 4666 
z
" id="DejaVuSans-41" transform="scale(0.015625)"/>
     </defs>
     <use xlink:href="#DejaVuSans-50"/>
     <use x="60.302734" xlink:href="#DejaVuSans-53"/>
     <use x="123.779297" xlink:href="#DejaVuSans-4f"/>
     <use x="202.490234" xlink:href="#DejaVuSans-20"/>
     <use x="234.277344" xlink:href="#DejaVuSans-45"/>
     <use x="297.460938" xlink:href="#DejaVuSans-44"/>
     <use x="372.712891" xlink:href="#DejaVuSans-41"/>
    </g>
   </g>
   <g id="text_14">
    <!-- PSO Bound -->
    <g transform="translate(375.22944 204.16373)scale(0.17 -0.17)">
     <defs>
      <path d="M 1259 2228 
L 1259 519 
L 2272 519 
Q 2781 519 3026 730 
Q 3272 941 3272 1375 
Q 3272 1813 3026 2020 
Q 2781 2228 2272 2228 
L 1259 2228 
z
M 1259 4147 
L 1259 2741 
L 2194 2741 
Q 2656 2741 2882 2914 
Q 3109 3088 3109 3444 
Q 3109 3797 2882 3972 
Q 2656 4147 2194 4147 
L 1259 4147 
z
M 628 4666 
L 2241 4666 
Q 2963 4666 3353 4366 
Q 3744 4066 3744 3513 
Q 3744 3084 3544 2831 
Q 3344 2578 2956 2516 
Q 3422 2416 3680 2098 
Q 3938 1781 3938 1306 
Q 3938 681 3513 340 
Q 3088 0 2303 0 
L 628 0 
L 628 4666 
z
" id="DejaVuSans-42" transform="scale(0.015625)"/>
     </defs>
     <use xlink:href="#DejaVuSans-50"/>
     <use x="60.302734" xlink:href="#DejaVuSans-53"/>
     <use x="123.779297" xlink:href="#DejaVuSans-4f"/>
     <use x="202.490234" xlink:href="#DejaVuSans-20"/>
     <use x="234.277344" xlink:href="#DejaVuSans-42"/>
     <use x="302.880859" xlink:href="#DejaVuSans-6f"/>
     <use x="364.0625" xlink:href="#DejaVuSans-75"/>
     <use x="427.441406" xlink:href="#DejaVuSans-6e"/>
     <use x="490.820312" xlink:href="#DejaVuSans-64"/>
    </g>
   </g>
   <g id="text_15">
    <!-- PSO -->
    <g transform="translate(375.22944 110.543769)scale(0.17 -0.17)">
     <use xlink:href="#DejaVuSans-50"/>
     <use x="60.302734" xlink:href="#DejaVuSans-53"/>
     <use x="123.779297" xlink:href="#DejaVuSans-4f"/>
    </g>
   </g>
   <g id="text_16">
    <!-- best 2009 -->
    <g transform="translate(375.22944 16.923809)scale(0.17 -0.17)">
     <defs>
      <path d="M 3116 1747 
Q 3116 2381 2855 2742 
Q 2594 3103 2138 3103 
Q 1681 3103 1420 2742 
Q 1159 2381 1159 1747 
Q 1159 1113 1420 752 
Q 1681 391 2138 391 
Q 2594 391 2855 752 
Q 3116 1113 3116 1747 
z
M 1159 2969 
Q 1341 3281 1617 3432 
Q 1894 3584 2278 3584 
Q 2916 3584 3314 3078 
Q 3713 2572 3713 1747 
Q 3713 922 3314 415 
Q 2916 -91 2278 -91 
Q 1894 -91 1617 61 
Q 1341 213 1159 525 
L 1159 0 
L 581 0 
L 581 4863 
L 1159 4863 
L 1159 2969 
z
" id="DejaVuSans-62" transform="scale(0.015625)"/>
      <path d="M 703 97 
L 703 672 
Q 941 559 1184 500 
Q 1428 441 1663 441 
Q 2288 441 2617 861 
Q 2947 1281 2994 2138 
Q 2813 1869 2534 1725 
Q 2256 1581 1919 1581 
Q 1219 1581 811 2004 
Q 403 2428 403 3163 
Q 403 3881 828 4315 
Q 1253 4750 1959 4750 
Q 2769 4750 3195 4129 
Q 3622 3509 3622 2328 
Q 3622 1225 3098 567 
Q 2575 -91 1691 -91 
Q 1453 -91 1209 -44 
Q 966 3 703 97 
z
M 1959 2075 
Q 2384 2075 2632 2365 
Q 2881 2656 2881 3163 
Q 2881 3666 2632 3958 
Q 2384 4250 1959 4250 
Q 1534 4250 1286 3958 
Q 1038 3666 1038 3163 
Q 1038 2656 1286 2365 
Q 1534 2075 1959 2075 
z
" id="DejaVuSans-39" transform="scale(0.015625)"/>
     </defs>
     <use xlink:href="#DejaVuSans-62"/>
     <use x="63.476562" xlink:href="#DejaVuSans-65"/>
     <use x="125" xlink:href="#DejaVuSans-73"/>
     <use x="177.099609" xlink:href="#DejaVuSans-74"/>
     <use x="216.308594" xlink:href="#DejaVuSans-20"/>
     <use x="248.095703" xlink:href="#DejaVuSans-32"/>
     <use x="311.71875" xlink:href="#DejaVuSans-30"/>
     <use x="375.341797" xlink:href="#DejaVuSans-30"/>
     <use x="438.964844" xlink:href="#DejaVuSans-39"/>
    </g>
   </g>
   <g id="text_17">
    <!-- bbob f20-f24, 40-D -->
    <g transform="translate(60.41088 14.161286)scale(0.102 -0.102)">
     <use xlink:href="#DejaVuSans-62"/>
     <use x="63.476562" xlink:href="#DejaVuSans-62"/>
     <use x="126.953125" xlink:href="#DejaVuSans-6f"/>
     <use x="188.134766" xlink:href="#DejaVuSans-62"/>
     <use x="251.611328" xlink:href="#DejaVuSans-20"/>
     <use x="283.398438" xlink:href="#DejaVuSans-66"/>
     <use x="318.603516" xlink:href="#DejaVuSans-32"/>
     <use x="382.226562" xlink:href="#DejaVuSans-30"/>
     <use x="445.849609" xlink:href="#DejaVuSans-2d"/>
     <use x="481.933594" xlink:href="#DejaVuSans-66"/>
     <use x="517.138672" xlink:href="#DejaVuSans-32"/>
     <use x="580.761719" xlink:href="#DejaVuSans-34"/>
     <use x="644.384766" xlink:href="#DejaVuSans-2c"/>
     <use x="676.171875" xlink:href="#DejaVuSans-20"/>
     <use x="707.958984" xlink:href="#DejaVuSans-34"/>
     <use x="771.582031" xlink:href="#DejaVuSans-30"/>
     <use x="835.205078" xlink:href="#DejaVuSans-2d"/>
     <use x="871.289062" xlink:href="#DejaVuSans-44"/>
    </g>
    <!-- 51 targets: 100..1e-08 -->
    <g transform="translate(60.41088 25.583055)scale(0.102 -0.102)">
     <defs>
      <path d="M 691 4666 
L 3169 4666 
L 3169 4134 
L 1269 4134 
L 1269 2991 
Q 1406 3038 1543 3061 
Q 1681 3084 1819 3084 
Q 2600 3084 3056 2656 
Q 3513 2228 3513 1497 
Q 3513 744 3044 326 
Q 2575 -91 1722 -91 
Q 1428 -91 1123 -41 
Q 819 9 494 109 
L 494 744 
Q 775 591 1075 516 
Q 1375 441 1709 441 
Q 2250 441 2565 725 
Q 2881 1009 2881 1497 
Q 2881 1984 2565 2268 
Q 2250 2553 1709 2553 
Q 1456 2553 1204 2497 
Q 953 2441 691 2322 
L 691 4666 
z
" id="DejaVuSans-35" transform="scale(0.015625)"/>
      <path d="M 750 794 
L 1409 794 
L 1409 0 
L 750 0 
L 750 794 
z
M 750 3309 
L 1409 3309 
L 1409 2516 
L 750 2516 
L 750 3309 
z
" id="DejaVuSans-3a" transform="scale(0.015625)"/>
     </defs>
     <use xlink:href="#DejaVuSans-35"/>
     <use x="63.623047" xlink:href="#DejaVuSans-31"/>
     <use x="127.246094" xlink:href="#DejaVuSans-20"/>
     <use x="159.033203" xlink:href="#DejaVuSans-74"/>
     <use x="198.242188" xlink:href="#DejaVuSans-61"/>
     <use x="259.521484" xlink:href="#DejaVuSans-72"/>
     <use x="298.884766" xlink:href="#DejaVuSans-67"/>
     <use x="362.361328" xlink:href="#DejaVuSans-65"/>
     <use x="423.884766" xlink:href="#DejaVuSans-74"/>
     <use x="463.09375" xlink:href="#DejaVuSans-73"/>
     <use x="515.193359" xlink:href="#DejaVuSans-3a"/>
     <use x="548.884766" xlink:href="#DejaVuSans-20"/>
     <use x="580.671875" xlink:href="#DejaVuSans-31"/>
     <use x="644.294922" xlink:href="#DejaVuSans-30"/>
     <use x="707.917969" xlink:href="#DejaVuSans-30"/>
     <use x="771.541016" xlink:href="#DejaVuSans-2e"/>
     <use x="803.328125" xlink:href="#DejaVuSans-2e"/>
     <use x="835.115234" xlink:href="#DejaVuSans-31"/>
     <use x="898.738281" xlink:href="#DejaVuSans-65"/>
     <use x="960.261719" xlink:href="#DejaVuSans-2d"/>
     <use x="996.345703" xlink:href="#DejaVuSans-30"/>
     <use x="1059.96875" xlink:href="#DejaVuSans-38"/>
    </g>
    <!-- 15 instances -->
    <g transform="translate(60.41088 37.004824)scale(0.102 -0.102)">
     <use xlink:href="#DejaVuSans-31"/>
     <use x="63.623047" xlink:href="#DejaVuSans-35"/>
     <use x="127.246094" xlink:href="#DejaVuSans-20"/>
     <use x="159.033203" xlink:href="#DejaVuSans-69"/>
     <use x="186.816406" xlink:href="#DejaVuSans-6e"/>
     <use x="250.195312" xlink:href="#DejaVuSans-73"/>
     <use x="302.294922" xlink:href="#DejaVuSans-74"/>
     <use x="341.503906" xlink:href="#DejaVuSans-61"/>
     <use x="402.783203" xlink:href="#DejaVuSans-6e"/>
     <use x="466.162109" xlink:href="#DejaVuSans-63"/>
     <use x="521.142578" xlink:href="#DejaVuSans-65"/>
     <use x="582.666016" xlink:href="#DejaVuSans-73"/>
    </g>
   </g>
   <g id="text_18">
    <!-- v2.4 -->
    <g style="fill:#808080;" transform="translate(187.233062 293.909432)scale(0.1 -0.1)">
     <use xlink:href="#DejaVuSans-76"/>
     <use x="59.179688" xlink:href="#DejaVuSans-32"/>
     <use x="122.802734" xlink:href="#DejaVuSans-2e"/>
     <use x="154.589844" xlink:href="#DejaVuSans-34"/>
    </g>
   </g>
  </g>
 </g>
 <defs>
  <clipPath id="pf54d9cb5c6">
   <rect height="295.488" width="281.088" x="57.6" y="3.456"/>
  </clipPath>
 </defs>
</svg>
