<?xml version="1.0" encoding="utf-8" standalone="no"?>
<!DOCTYPE svg PUBLIC "-//W3C//DTD SVG 1.1//EN"
  "http://www.w3.org/Graphics/SVG/1.1/DTD/svg11.dtd">
<svg height="345.6pt" version="1.1" viewBox="0 0 460.8 345.6" width="460.8pt" xmlns="http://www.w3.org/2000/svg" xmlns:xlink="http://www.w3.org/1999/xlink">
 <metadata>
  <rdf:RDF xmlns:cc="http://creativecommons.org/ns#" xmlns:dc="http://purl.org/dc/elements/1.1/" xmlns:rdf="http://www.w3.org/1999/02/22-rdf-syntax-ns#">
   <cc:Work>
    <dc:type rdf:resource="http://purl.org/dc/dcmitype/StillImage"/>
    <dc:date>2021-04-20T12:28:28.102932</dc:date>
    <dc:format>image/svg+xml</dc:format>
    <dc:creator>
     <cc:Agent>
      <dc:title>Matplotlib v3.4.1, https://matplotlib.org/</dc:title>
     </cc:Agent>
    </dc:creator>
   </cc:Work>
  </rdf:RDF>
 </metadata>
 <defs>
  <style type="text/css">*{stroke-linecap:butt;stroke-linejoin:round;}</style>
 </defs>
 <g id="figure_1">
  <g id="patch_1">
   <path d="M 0 345.6 
L 460.8 345.6 
L 460.8 0 
L 0 0 
z
" style="fill:#ffffff;"/>
  </g>
  <g id="axes_1">
   <g id="patch_2">
    <path d="M 57.6 298.944 
L 338.688 298.944 
L 338.688 27.648 
L 57.6 27.648 
z
" style="fill:#ffffff;"/>
   </g>
   <g id="line2d_1">
    <path d="M 81.775977 298.944 
L 81.775977 293.677139 
L 93.121756 293.677139 
L 93.121756 288.410278 
L 93.863965 288.410278 
L 93.863965 283.143418 
L 100.934985 283.143418 
L 100.934985 277.876557 
L 109.843417 277.876557 
L 109.843417 272.609696 
L 111.767808 272.609696 
L 111.767808 267.342835 
L 114.860386 267.342835 
L 114.860386 262.075974 
L 116.914437 262.075974 
L 116.914437 256.809114 
L 118.576578 256.809114 
L 118.576578 251.542253 
L 118.751849 251.542253 
L 118.751849 246.275392 
L 119.602714 246.275392 
L 119.602714 241.008531 
L 124.743806 241.008531 
L 124.743806 235.74167 
L 125.351508 235.74167 
L 125.351508 230.47481 
L 128.411207 230.47481 
L 128.411207 225.207949 
L 128.905271 225.207949 
L 128.905271 219.941088 
L 133.04822 219.941088 
L 133.04822 214.674227 
L 133.201197 214.674227 
L 133.201197 209.407366 
L 134.591225 209.407366 
L 134.591225 204.140506 
L 134.870259 204.140506 
L 134.870259 198.873645 
L 135.415281 198.873645 
L 135.415281 193.606784 
L 135.615352 193.606784 
L 135.615352 188.339923 
L 135.878591 188.339923 
L 135.878591 183.073062 
L 136.008736 183.073062 
L 136.008736 177.806202 
L 136.202149 177.806202 
L 136.202149 172.539341 
L 136.393441 172.539341 
L 136.393441 167.27248 
L 136.519813 167.27248 
L 136.519813 162.005619 
L 136.707671 162.005619 
L 136.707671 156.738758 
L 136.769843 156.738758 
L 136.769843 151.471897 
L 137.077422 151.471897 
L 137.077422 146.205037 
L 137.198951 146.205037 
L 137.198951 140.938176 
L 137.259399 140.938176 
L 137.259399 135.671315 
L 137.439497 135.671315 
L 137.439497 130.404454 
L 137.558536 130.404454 
L 137.558536 125.137593 
L 137.794206 125.137593 
L 137.794206 119.870733 
L 137.910857 119.870733 
L 137.910857 114.603872 
L 138.026733 114.603872 
L 138.026733 109.337011 
L 138.199116 109.337011 
L 138.199116 104.07015 
L 138.426341 104.07015 
L 138.426341 98.803289 
L 138.538853 98.803289 
L 138.538853 93.536429 
L 138.706272 93.536429 
L 138.706272 88.269568 
L 138.761723 88.269568 
L 138.761723 83.002707 
L 138.927025 83.002707 
L 138.927025 77.735846 
L 138.981779 77.735846 
L 138.981779 72.468985 
L 139.145019 72.468985 
L 139.145019 67.202125 
L 139.306744 67.202125 
L 139.306744 61.935264 
L 139.413734 61.935264 
L 139.413734 56.668403 
L 139.520072 56.668403 
L 139.520072 51.401542 
L 139.783113 51.401542 
L 139.783113 46.134681 
L 139.835248 46.134681 
L 139.835248 40.867821 
L 139.939053 40.867821 
L 139.939053 35.60096 
L 140.093612 35.60096 
L 140.093612 30.334099 
L 338.688 30.334099 
" style="fill:none;stroke:#f5deb3;stroke-linecap:square;stroke-width:4;"/>
   </g>
   <g id="line2d_2">
    <defs>
     <path d="M 0 7.778175 
L 7.778175 0 
L 0 -7.778175 
L -7.778175 0 
z
" id="m16dfef61d4" style="stroke:#f5deb3;stroke-linejoin:miter;stroke-width:1.5;"/>
    </defs>
    <g>
     <use style="fill:#f5deb3;stroke:#f5deb3;stroke-linejoin:miter;stroke-width:1.5;" x="125.351508" xlink:href="#m16dfef61d4" y="235.74167"/>
     <use style="fill:#f5deb3;stroke:#f5deb3;stroke-linejoin:miter;stroke-width:1.5;" x="138.706272" xlink:href="#m16dfef61d4" y="93.536429"/>
     <use style="fill:#f5deb3;stroke:#f5deb3;stroke-linejoin:miter;stroke-width:1.5;" x="140.093612" xlink:href="#m16dfef61d4" y="35.60096"/>
     <use style="fill:#f5deb3;stroke:#f5deb3;stroke-linejoin:miter;stroke-width:1.5;" x="140.093612" xlink:href="#m16dfef61d4" y="30.334099"/>
     <use style="fill:#f5deb3;stroke:#f5deb3;stroke-linejoin:miter;stroke-width:1.5;" x="338.688" xlink:href="#m16dfef61d4" y="30.334099"/>
    </g>
   </g>
   <g id="line2d_3">
    <path style="fill:none;stroke:#f5deb3;stroke-linecap:square;stroke-width:4;"/>
    <g/>
   </g>
   <g id="line2d_4">
    <path d="M 338.688 30.334099 
L 369.60768 35.706297 
" style="fill:none;stroke:#f5deb3;stroke-linecap:square;stroke-width:4;"/>
    <g>
     <use style="fill:#f5deb3;stroke:#f5deb3;stroke-linejoin:miter;stroke-width:1.5;" x="338.688" xlink:href="#m16dfef61d4" y="30.334099"/>
     <use style="fill:#f5deb3;stroke:#f5deb3;stroke-linejoin:miter;stroke-width:1.5;" x="369.60768" xlink:href="#m16dfef61d4" y="35.706297"/>
    </g>
   </g>
   <g id="matplotlib.axis_1">
    <g id="xtick_1">
     <g id="line2d_5">
      <path clip-path="url(#pa09b8822c8)" d="M 57.6 298.944 
L 57.6 27.648 
" style="fill:none;stroke:#b0b0b0;stroke-linecap:square;stroke-width:0.8;"/>
     </g>
     <g id="line2d_6">
      <defs>
       <path d="M 0 0 
L 0 3.5 
" id="m71b977f312" style="stroke:#000000;stroke-width:0.8;"/>
      </defs>
      <g>
       <use style="stroke:#000000;stroke-width:0.8;" x="57.6" xlink:href="#m71b977f312" y="298.944"/>
      </g>
     </g>
     <g id="text_1">
      <!-- 0 -->
      <g transform="translate(51.2375 321.140875)scale(0.2 -0.2)">
       <defs>
        <path d="M 2034 4250 
Q 1547 4250 1301 3770 
Q 1056 3291 1056 2328 
Q 1056 1369 1301 889 
Q 1547 409 2034 409 
Q 2525 409 2770 889 
Q 3016 1369 3016 2328 
Q 3016 3291 2770 3770 
Q 2525 4250 2034 4250 
z
M 2034 4750 
Q 2819 4750 3233 4129 
Q 3647 3509 3647 2328 
Q 3647 1150 3233 529 
Q 2819 -91 2034 -91 
Q 1250 -91 836 529 
Q 422 1150 422 2328 
Q 422 3509 836 4129 
Q 1250 4750 2034 4750 
z
" id="DejaVuSans-30" transform="scale(0.015625)"/>
       </defs>
       <use xlink:href="#DejaVuSans-30"/>
      </g>
     </g>
    </g>
    <g id="xtick_2">
     <g id="line2d_7">
      <path clip-path="url(#pa09b8822c8)" d="M 137.910857 298.944 
L 137.910857 27.648 
" style="fill:none;stroke:#b0b0b0;stroke-linecap:square;stroke-width:0.8;"/>
     </g>
     <g id="line2d_8">
      <g>
       <use style="stroke:#000000;stroke-width:0.8;" x="137.910857" xlink:href="#m71b977f312" y="298.944"/>
      </g>
     </g>
     <g id="text_2">
      <!-- 2 -->
      <g transform="translate(131.548357 321.140875)scale(0.2 -0.2)">
       <defs>
        <path d="M 1228 531 
L 3431 531 
L 3431 0 
L 469 0 
L 469 531 
Q 828 903 1448 1529 
Q 2069 2156 2228 2338 
Q 2531 2678 2651 2914 
Q 2772 3150 2772 3378 
Q 2772 3750 2511 3984 
Q 2250 4219 1831 4219 
Q 1534 4219 1204 4116 
Q 875 4013 500 3803 
L 500 4441 
Q 881 4594 1212 4672 
Q 1544 4750 1819 4750 
Q 2544 4750 2975 4387 
Q 3406 4025 3406 3419 
Q 3406 3131 3298 2873 
Q 3191 2616 2906 2266 
Q 2828 2175 2409 1742 
Q 1991 1309 1228 531 
z
" id="DejaVuSans-32" transform="scale(0.015625)"/>
       </defs>
       <use xlink:href="#DejaVuSans-32"/>
      </g>
     </g>
    </g>
    <g id="xtick_3">
     <g id="line2d_9">
      <path clip-path="url(#pa09b8822c8)" d="M 218.221714 298.944 
L 218.221714 27.648 
" style="fill:none;stroke:#b0b0b0;stroke-linecap:square;stroke-width:0.8;"/>
     </g>
     <g id="line2d_10">
      <g>
       <use style="stroke:#000000;stroke-width:0.8;" x="218.221714" xlink:href="#m71b977f312" y="298.944"/>
      </g>
     </g>
     <g id="text_3">
      <!-- 4 -->
      <g transform="translate(211.859214 321.140875)scale(0.2 -0.2)">
       <defs>
        <path d="M 2419 4116 
L 825 1625 
L 2419 1625 
L 2419 4116 
z
M 2253 4666 
L 3047 4666 
L 3047 1625 
L 3713 1625 
L 3713 1100 
L 3047 1100 
L 3047 0 
L 2419 0 
L 2419 1100 
L 313 1100 
L 313 1709 
L 2253 4666 
z
" id="DejaVuSans-34" transform="scale(0.015625)"/>
       </defs>
       <use xlink:href="#DejaVuSans-34"/>
      </g>
     </g>
    </g>
    <g id="xtick_4">
     <g id="line2d_11">
      <path clip-path="url(#pa09b8822c8)" d="M 298.532571 298.944 
L 298.532571 27.648 
" style="fill:none;stroke:#b0b0b0;stroke-linecap:square;stroke-width:0.8;"/>
     </g>
     <g id="line2d_12">
      <g>
       <use style="stroke:#000000;stroke-width:0.8;" x="298.532571" xlink:href="#m71b977f312" y="298.944"/>
      </g>
     </g>
     <g id="text_4">
      <!-- 6 -->
      <g transform="translate(292.170071 321.140875)scale(0.2 -0.2)">
       <defs>
        <path d="M 2113 2584 
Q 1688 2584 1439 2293 
Q 1191 2003 1191 1497 
Q 1191 994 1439 701 
Q 1688 409 2113 409 
Q 2538 409 2786 701 
Q 3034 994 3034 1497 
Q 3034 2003 2786 2293 
Q 2538 2584 2113 2584 
z
M 3366 4563 
L 3366 3988 
Q 3128 4100 2886 4159 
Q 2644 4219 2406 4219 
Q 1781 4219 1451 3797 
Q 1122 3375 1075 2522 
Q 1259 2794 1537 2939 
Q 1816 3084 2150 3084 
Q 2853 3084 3261 2657 
Q 3669 2231 3669 1497 
Q 3669 778 3244 343 
Q 2819 -91 2113 -91 
Q 1303 -91 875 529 
Q 447 1150 447 2328 
Q 447 3434 972 4092 
Q 1497 4750 2381 4750 
Q 2619 4750 2861 4703 
Q 3103 4656 3366 4563 
z
" id="DejaVuSans-36" transform="scale(0.015625)"/>
       </defs>
       <use xlink:href="#DejaVuSans-36"/>
      </g>
     </g>
    </g>
    <g id="xtick_5">
     <g id="line2d_13">
      <path clip-path="url(#pa09b8822c8)" d="M 97.755429 298.944 
L 97.755429 27.648 
" style="fill:none;stroke:#b0b0b0;stroke-linecap:square;stroke-width:0.8;"/>
     </g>
     <g id="line2d_14">
      <defs>
       <path d="M 0 0 
L 0 2 
" id="m548c7fb58c" style="stroke:#000000;stroke-width:0.6;"/>
      </defs>
      <g>
       <use style="stroke:#000000;stroke-width:0.6;" x="97.755429" xlink:href="#m548c7fb58c" y="298.944"/>
      </g>
     </g>
    </g>
    <g id="xtick_6">
     <g id="line2d_15">
      <path clip-path="url(#pa09b8822c8)" d="M 178.066286 298.944 
L 178.066286 27.648 
" style="fill:none;stroke:#b0b0b0;stroke-linecap:square;stroke-width:0.8;"/>
     </g>
     <g id="line2d_16">
      <g>
       <use style="stroke:#000000;stroke-width:0.6;" x="178.066286" xlink:href="#m548c7fb58c" y="298.944"/>
      </g>
     </g>
    </g>
    <g id="xtick_7">
     <g id="line2d_17">
      <path clip-path="url(#pa09b8822c8)" d="M 258.377143 298.944 
L 258.377143 27.648 
" style="fill:none;stroke:#b0b0b0;stroke-linecap:square;stroke-width:0.8;"/>
     </g>
     <g id="line2d_18">
      <g>
       <use style="stroke:#000000;stroke-width:0.6;" x="258.377143" xlink:href="#m548c7fb58c" y="298.944"/>
      </g>
     </g>
    </g>
    <g id="xtick_8">
     <g id="line2d_19">
      <path clip-path="url(#pa09b8822c8)" d="M 338.688 298.944 
L 338.688 27.648 
" style="fill:none;stroke:#b0b0b0;stroke-linecap:square;stroke-width:0.8;"/>
     </g>
     <g id="line2d_20">
      <g>
       <use style="stroke:#000000;stroke-width:0.6;" x="338.688" xlink:href="#m548c7fb58c" y="298.944"/>
      </g>
     </g>
    </g>
    <g id="text_5">
     <!-- log10(# f-evals / dimension) -->
     <g transform="translate(77.764078 342.217594)scale(0.17 -0.17)">
      <defs>
       <path d="M 603 4863 
L 1178 4863 
L 1178 0 
L 603 0 
L 603 4863 
z
" id="DejaVuSans-6c" transform="scale(0.015625)"/>
       <path d="M 1959 3097 
Q 1497 3097 1228 2736 
Q 959 2375 959 1747 
Q 959 1119 1226 758 
Q 1494 397 1959 397 
Q 2419 397 2687 759 
Q 2956 1122 2956 1747 
Q 2956 2369 2687 2733 
Q 2419 3097 1959 3097 
z
M 1959 3584 
Q 2709 3584 3137 3096 
Q 3566 2609 3566 1747 
Q 3566 888 3137 398 
Q 2709 -91 1959 -91 
Q 1206 -91 779 398 
Q 353 888 353 1747 
Q 353 2609 779 3096 
Q 1206 3584 1959 3584 
z
" id="DejaVuSans-6f" transform="scale(0.015625)"/>
       <path d="M 2906 1791 
Q 2906 2416 2648 2759 
Q 2391 3103 1925 3103 
Q 1463 3103 1205 2759 
Q 947 2416 947 1791 
Q 947 1169 1205 825 
Q 1463 481 1925 481 
Q 2391 481 2648 825 
Q 2906 1169 2906 1791 
z
M 3481 434 
Q 3481 -459 3084 -895 
Q 2688 -1331 1869 -1331 
Q 1566 -1331 1297 -1286 
Q 1028 -1241 775 -1147 
L 775 -588 
Q 1028 -725 1275 -790 
Q 1522 -856 1778 -856 
Q 2344 -856 2625 -561 
Q 2906 -266 2906 331 
L 2906 616 
Q 2728 306 2450 153 
Q 2172 0 1784 0 
Q 1141 0 747 490 
Q 353 981 353 1791 
Q 353 2603 747 3093 
Q 1141 3584 1784 3584 
Q 2172 3584 2450 3431 
Q 2728 3278 2906 2969 
L 2906 3500 
L 3481 3500 
L 3481 434 
z
" id="DejaVuSans-67" transform="scale(0.015625)"/>
       <path d="M 794 531 
L 1825 531 
L 1825 4091 
L 703 3866 
L 703 4441 
L 1819 4666 
L 2450 4666 
L 2450 531 
L 3481 531 
L 3481 0 
L 794 0 
L 794 531 
z
" id="DejaVuSans-31" transform="scale(0.015625)"/>
       <path d="M 1984 4856 
Q 1566 4138 1362 3434 
Q 1159 2731 1159 2009 
Q 1159 1288 1364 580 
Q 1569 -128 1984 -844 
L 1484 -844 
Q 1016 -109 783 600 
Q 550 1309 550 2009 
Q 550 2706 781 3412 
Q 1013 4119 1484 4856 
L 1984 4856 
z
" id="DejaVuSans-28" transform="scale(0.015625)"/>
       <path d="M 3272 2816 
L 2363 2816 
L 2100 1772 
L 3016 1772 
L 3272 2816 
z
M 2803 4594 
L 2478 3297 
L 3391 3297 
L 3719 4594 
L 4219 4594 
L 3897 3297 
L 4872 3297 
L 4872 2816 
L 3775 2816 
L 3519 1772 
L 4513 1772 
L 4513 1294 
L 3397 1294 
L 3072 0 
L 2572 0 
L 2894 1294 
L 1978 1294 
L 1656 0 
L 1153 0 
L 1478 1294 
L 494 1294 
L 494 1772 
L 1594 1772 
L 1856 2816 
L 850 2816 
L 850 3297 
L 1978 3297 
L 2297 4594 
L 2803 4594 
z
" id="DejaVuSans-23" transform="scale(0.015625)"/>
       <path id="DejaVuSans-20" transform="scale(0.015625)"/>
       <path d="M 2375 4863 
L 2375 4384 
L 1825 4384 
Q 1516 4384 1395 4259 
Q 1275 4134 1275 3809 
L 1275 3500 
L 2222 3500 
L 2222 3053 
L 1275 3053 
L 1275 0 
L 697 0 
L 697 3053 
L 147 3053 
L 147 3500 
L 697 3500 
L 697 3744 
Q 697 4328 969 4595 
Q 1241 4863 1831 4863 
L 2375 4863 
z
" id="DejaVuSans-66" transform="scale(0.015625)"/>
       <path d="M 313 2009 
L 1997 2009 
L 1997 1497 
L 313 1497 
L 313 2009 
z
" id="DejaVuSans-2d" transform="scale(0.015625)"/>
       <path d="M 3597 1894 
L 3597 1613 
L 953 1613 
Q 991 1019 1311 708 
Q 1631 397 2203 397 
Q 2534 397 2845 478 
Q 3156 559 3463 722 
L 3463 178 
Q 3153 47 2828 -22 
Q 2503 -91 2169 -91 
Q 1331 -91 842 396 
Q 353 884 353 1716 
Q 353 2575 817 3079 
Q 1281 3584 2069 3584 
Q 2775 3584 3186 3129 
Q 3597 2675 3597 1894 
z
M 3022 2063 
Q 3016 2534 2758 2815 
Q 2500 3097 2075 3097 
Q 1594 3097 1305 2825 
Q 1016 2553 972 2059 
L 3022 2063 
z
" id="DejaVuSans-65" transform="scale(0.015625)"/>
       <path d="M 191 3500 
L 800 3500 
L 1894 563 
L 2988 3500 
L 3597 3500 
L 2284 0 
L 1503 0 
L 191 3500 
z
" id="DejaVuSans-76" transform="scale(0.015625)"/>
       <path d="M 2194 1759 
Q 1497 1759 1228 1600 
Q 959 1441 959 1056 
Q 959 750 1161 570 
Q 1363 391 1709 391 
Q 2188 391 2477 730 
Q 2766 1069 2766 1631 
L 2766 1759 
L 2194 1759 
z
M 3341 1997 
L 3341 0 
L 2766 0 
L 2766 531 
Q 2569 213 2275 61 
Q 1981 -91 1556 -91 
Q 1019 -91 701 211 
Q 384 513 384 1019 
Q 384 1609 779 1909 
Q 1175 2209 1959 2209 
L 2766 2209 
L 2766 2266 
Q 2766 2663 2505 2880 
Q 2244 3097 1772 3097 
Q 1472 3097 1187 3025 
Q 903 2953 641 2809 
L 641 3341 
Q 956 3463 1253 3523 
Q 1550 3584 1831 3584 
Q 2591 3584 2966 3190 
Q 3341 2797 3341 1997 
z
" id="DejaVuSans-61" transform="scale(0.015625)"/>
       <path d="M 2834 3397 
L 2834 2853 
Q 2591 2978 2328 3040 
Q 2066 3103 1784 3103 
Q 1356 3103 1142 2972 
Q 928 2841 928 2578 
Q 928 2378 1081 2264 
Q 1234 2150 1697 2047 
L 1894 2003 
Q 2506 1872 2764 1633 
Q 3022 1394 3022 966 
Q 3022 478 2636 193 
Q 2250 -91 1575 -91 
Q 1294 -91 989 -36 
Q 684 19 347 128 
L 347 722 
Q 666 556 975 473 
Q 1284 391 1588 391 
Q 1994 391 2212 530 
Q 2431 669 2431 922 
Q 2431 1156 2273 1281 
Q 2116 1406 1581 1522 
L 1381 1569 
Q 847 1681 609 1914 
Q 372 2147 372 2553 
Q 372 3047 722 3315 
Q 1072 3584 1716 3584 
Q 2034 3584 2315 3537 
Q 2597 3491 2834 3397 
z
" id="DejaVuSans-73" transform="scale(0.015625)"/>
       <path d="M 1625 4666 
L 2156 4666 
L 531 -594 
L 0 -594 
L 1625 4666 
z
" id="DejaVuSans-2f" transform="scale(0.015625)"/>
       <path d="M 2906 2969 
L 2906 4863 
L 3481 4863 
L 3481 0 
L 2906 0 
L 2906 525 
Q 2725 213 2448 61 
Q 2172 -91 1784 -91 
Q 1150 -91 751 415 
Q 353 922 353 1747 
Q 353 2572 751 3078 
Q 1150 3584 1784 3584 
Q 2172 3584 2448 3432 
Q 2725 3281 2906 2969 
z
M 947 1747 
Q 947 1113 1208 752 
Q 1469 391 1925 391 
Q 2381 391 2643 752 
Q 2906 1113 2906 1747 
Q 2906 2381 2643 2742 
Q 2381 3103 1925 3103 
Q 1469 3103 1208 2742 
Q 947 2381 947 1747 
z
" id="DejaVuSans-64" transform="scale(0.015625)"/>
       <path d="M 603 3500 
L 1178 3500 
L 1178 0 
L 603 0 
L 603 3500 
z
M 603 4863 
L 1178 4863 
L 1178 4134 
L 603 4134 
L 603 4863 
z
" id="DejaVuSans-69" transform="scale(0.015625)"/>
       <path d="M 3328 2828 
Q 3544 3216 3844 3400 
Q 4144 3584 4550 3584 
Q 5097 3584 5394 3201 
Q 5691 2819 5691 2113 
L 5691 0 
L 5113 0 
L 5113 2094 
Q 5113 2597 4934 2840 
Q 4756 3084 4391 3084 
Q 3944 3084 3684 2787 
Q 3425 2491 3425 1978 
L 3425 0 
L 2847 0 
L 2847 2094 
Q 2847 2600 2669 2842 
Q 2491 3084 2119 3084 
Q 1678 3084 1418 2786 
Q 1159 2488 1159 1978 
L 1159 0 
L 581 0 
L 581 3500 
L 1159 3500 
L 1159 2956 
Q 1356 3278 1631 3431 
Q 1906 3584 2284 3584 
Q 2666 3584 2933 3390 
Q 3200 3197 3328 2828 
z
" id="DejaVuSans-6d" transform="scale(0.015625)"/>
       <path d="M 3513 2113 
L 3513 0 
L 2938 0 
L 2938 2094 
Q 2938 2591 2744 2837 
Q 2550 3084 2163 3084 
Q 1697 3084 1428 2787 
Q 1159 2491 1159 1978 
L 1159 0 
L 581 0 
L 581 3500 
L 1159 3500 
L 1159 2956 
Q 1366 3272 1645 3428 
Q 1925 3584 2291 3584 
Q 2894 3584 3203 3211 
Q 3513 2838 3513 2113 
z
" id="DejaVuSans-6e" transform="scale(0.015625)"/>
       <path d="M 513 4856 
L 1013 4856 
Q 1481 4119 1714 3412 
Q 1947 2706 1947 2009 
Q 1947 1309 1714 600 
Q 1481 -109 1013 -844 
L 513 -844 
Q 928 -128 1133 580 
Q 1338 1288 1338 2009 
Q 1338 2731 1133 3434 
Q 928 4138 513 4856 
z
" id="DejaVuSans-29" transform="scale(0.015625)"/>
      </defs>
      <use xlink:href="#DejaVuSans-6c"/>
      <use x="27.783203" xlink:href="#DejaVuSans-6f"/>
      <use x="88.964844" xlink:href="#DejaVuSans-67"/>
      <use x="152.441406" xlink:href="#DejaVuSans-31"/>
      <use x="216.064453" xlink:href="#DejaVuSans-30"/>
      <use x="279.6875" xlink:href="#DejaVuSans-28"/>
      <use x="318.701172" xlink:href="#DejaVuSans-23"/>
      <use x="402.490234" xlink:href="#DejaVuSans-20"/>
      <use x="434.277344" xlink:href="#DejaVuSans-66"/>
      <use x="463.982422" xlink:href="#DejaVuSans-2d"/>
      <use x="500.066406" xlink:href="#DejaVuSans-65"/>
      <use x="561.589844" xlink:href="#DejaVuSans-76"/>
      <use x="620.769531" xlink:href="#DejaVuSans-61"/>
      <use x="682.048828" xlink:href="#DejaVuSans-6c"/>
      <use x="709.832031" xlink:href="#DejaVuSans-73"/>
      <use x="761.931641" xlink:href="#DejaVuSans-20"/>
      <use x="793.71875" xlink:href="#DejaVuSans-2f"/>
      <use x="827.410156" xlink:href="#DejaVuSans-20"/>
      <use x="859.197266" xlink:href="#DejaVuSans-64"/>
      <use x="922.673828" xlink:href="#DejaVuSans-69"/>
      <use x="950.457031" xlink:href="#DejaVuSans-6d"/>
      <use x="1047.869141" xlink:href="#DejaVuSans-65"/>
      <use x="1109.392578" xlink:href="#DejaVuSans-6e"/>
      <use x="1172.771484" xlink:href="#DejaVuSans-73"/>
      <use x="1224.871094" xlink:href="#DejaVuSans-69"/>
      <use x="1252.654297" xlink:href="#DejaVuSans-6f"/>
      <use x="1313.835938" xlink:href="#DejaVuSans-6e"/>
      <use x="1377.214844" xlink:href="#DejaVuSans-29"/>
     </g>
    </g>
   </g>
   <g id="matplotlib.axis_2">
    <g id="ytick_1">
     <g id="line2d_21">
      <path clip-path="url(#pa09b8822c8)" d="M 57.6 298.944 
L 338.688 298.944 
" style="fill:none;stroke:#b0b0b0;stroke-linecap:square;stroke-width:0.8;"/>
     </g>
     <g id="line2d_22">
      <defs>
       <path d="M 0 0 
L -3.5 0 
" id="m3f43a762bb" style="stroke:#000000;stroke-width:0.8;"/>
      </defs>
      <g>
       <use style="stroke:#000000;stroke-width:0.8;" x="57.6" xlink:href="#m3f43a762bb" y="298.944"/>
      </g>
     </g>
     <g id="text_6">
      <!-- 0.0 -->
      <g transform="translate(25.155 305.02275)scale(0.16 -0.16)">
       <defs>
        <path d="M 684 794 
L 1344 794 
L 1344 0 
L 684 0 
L 684 794 
z
" id="DejaVuSans-2e" transform="scale(0.015625)"/>
       </defs>
       <use xlink:href="#DejaVuSans-30"/>
       <use x="63.623047" xlink:href="#DejaVuSans-2e"/>
       <use x="95.410156" xlink:href="#DejaVuSans-30"/>
      </g>
     </g>
    </g>
    <g id="ytick_2">
     <g id="line2d_23">
      <path clip-path="url(#pa09b8822c8)" d="M 57.6 245.22202 
L 338.688 245.22202 
" style="fill:none;stroke:#b0b0b0;stroke-linecap:square;stroke-width:0.8;"/>
     </g>
     <g id="line2d_24">
      <g>
       <use style="stroke:#000000;stroke-width:0.8;" x="57.6" xlink:href="#m3f43a762bb" y="245.22202"/>
      </g>
     </g>
     <g id="text_7">
      <!-- 0.2 -->
      <g transform="translate(25.155 251.30077)scale(0.16 -0.16)">
       <use xlink:href="#DejaVuSans-30"/>
       <use x="63.623047" xlink:href="#DejaVuSans-2e"/>
       <use x="95.410156" xlink:href="#DejaVuSans-32"/>
      </g>
     </g>
    </g>
    <g id="ytick_3">
     <g id="line2d_25">
      <path clip-path="url(#pa09b8822c8)" d="M 57.6 191.50004 
L 338.688 191.50004 
" style="fill:none;stroke:#b0b0b0;stroke-linecap:square;stroke-width:0.8;"/>
     </g>
     <g id="line2d_26">
      <g>
       <use style="stroke:#000000;stroke-width:0.8;" x="57.6" xlink:href="#m3f43a762bb" y="191.50004"/>
      </g>
     </g>
     <g id="text_8">
      <!-- 0.4 -->
      <g transform="translate(25.155 197.57879)scale(0.16 -0.16)">
       <use xlink:href="#DejaVuSans-30"/>
       <use x="63.623047" xlink:href="#DejaVuSans-2e"/>
       <use x="95.410156" xlink:href="#DejaVuSans-34"/>
      </g>
     </g>
    </g>
    <g id="ytick_4">
     <g id="line2d_27">
      <path clip-path="url(#pa09b8822c8)" d="M 57.6 137.778059 
L 338.688 137.778059 
" style="fill:none;stroke:#b0b0b0;stroke-linecap:square;stroke-width:0.8;"/>
     </g>
     <g id="line2d_28">
      <g>
       <use style="stroke:#000000;stroke-width:0.8;" x="57.6" xlink:href="#m3f43a762bb" y="137.778059"/>
      </g>
     </g>
     <g id="text_9">
      <!-- 0.6 -->
      <g transform="translate(25.155 143.856809)scale(0.16 -0.16)">
       <use xlink:href="#DejaVuSans-30"/>
       <use x="63.623047" xlink:href="#DejaVuSans-2e"/>
       <use x="95.410156" xlink:href="#DejaVuSans-36"/>
      </g>
     </g>
    </g>
    <g id="ytick_5">
     <g id="line2d_29">
      <path clip-path="url(#pa09b8822c8)" d="M 57.6 84.056079 
L 338.688 84.056079 
" style="fill:none;stroke:#b0b0b0;stroke-linecap:square;stroke-width:0.8;"/>
     </g>
     <g id="line2d_30">
      <g>
       <use style="stroke:#000000;stroke-width:0.8;" x="57.6" xlink:href="#m3f43a762bb" y="84.056079"/>
      </g>
     </g>
     <g id="text_10">
      <!-- 0.8 -->
      <g transform="translate(25.155 90.134829)scale(0.16 -0.16)">
       <defs>
        <path d="M 2034 2216 
Q 1584 2216 1326 1975 
Q 1069 1734 1069 1313 
Q 1069 891 1326 650 
Q 1584 409 2034 409 
Q 2484 409 2743 651 
Q 3003 894 3003 1313 
Q 3003 1734 2745 1975 
Q 2488 2216 2034 2216 
z
M 1403 2484 
Q 997 2584 770 2862 
Q 544 3141 544 3541 
Q 544 4100 942 4425 
Q 1341 4750 2034 4750 
Q 2731 4750 3128 4425 
Q 3525 4100 3525 3541 
Q 3525 3141 3298 2862 
Q 3072 2584 2669 2484 
Q 3125 2378 3379 2068 
Q 3634 1759 3634 1313 
Q 3634 634 3220 271 
Q 2806 -91 2034 -91 
Q 1263 -91 848 271 
Q 434 634 434 1313 
Q 434 1759 690 2068 
Q 947 2378 1403 2484 
z
M 1172 3481 
Q 1172 3119 1398 2916 
Q 1625 2713 2034 2713 
Q 2441 2713 2670 2916 
Q 2900 3119 2900 3481 
Q 2900 3844 2670 4047 
Q 2441 4250 2034 4250 
Q 1625 4250 1398 4047 
Q 1172 3844 1172 3481 
z
" id="DejaVuSans-38" transform="scale(0.015625)"/>
       </defs>
       <use xlink:href="#DejaVuSans-30"/>
       <use x="63.623047" xlink:href="#DejaVuSans-2e"/>
       <use x="95.410156" xlink:href="#DejaVuSans-38"/>
      </g>
     </g>
    </g>
    <g id="ytick_6">
     <g id="line2d_31">
      <path clip-path="url(#pa09b8822c8)" d="M 57.6 30.334099 
L 338.688 30.334099 
" style="fill:none;stroke:#b0b0b0;stroke-linecap:square;stroke-width:0.8;"/>
     </g>
     <g id="line2d_32">
      <g>
       <use style="stroke:#000000;stroke-width:0.8;" x="57.6" xlink:href="#m3f43a762bb" y="30.334099"/>
      </g>
     </g>
     <g id="text_11">
      <!-- 1.0 -->
      <g transform="translate(25.155 36.412849)scale(0.16 -0.16)">
       <use xlink:href="#DejaVuSans-31"/>
       <use x="63.623047" xlink:href="#DejaVuSans-2e"/>
       <use x="95.410156" xlink:href="#DejaVuSans-30"/>
      </g>
     </g>
    </g>
    <g id="text_12">
     <!-- Fraction of function,target pairs -->
     <g transform="translate(17.619531 297.681)rotate(-90)scale(0.17 -0.17)">
      <defs>
       <path d="M 628 4666 
L 3309 4666 
L 3309 4134 
L 1259 4134 
L 1259 2759 
L 3109 2759 
L 3109 2228 
L 1259 2228 
L 1259 0 
L 628 0 
L 628 4666 
z
" id="DejaVuSans-46" transform="scale(0.015625)"/>
       <path d="M 2631 2963 
Q 2534 3019 2420 3045 
Q 2306 3072 2169 3072 
Q 1681 3072 1420 2755 
Q 1159 2438 1159 1844 
L 1159 0 
L 581 0 
L 581 3500 
L 1159 3500 
L 1159 2956 
Q 1341 3275 1631 3429 
Q 1922 3584 2338 3584 
Q 2397 3584 2469 3576 
Q 2541 3569 2628 3553 
L 2631 2963 
z
" id="DejaVuSans-72" transform="scale(0.015625)"/>
       <path d="M 3122 3366 
L 3122 2828 
Q 2878 2963 2633 3030 
Q 2388 3097 2138 3097 
Q 1578 3097 1268 2742 
Q 959 2388 959 1747 
Q 959 1106 1268 751 
Q 1578 397 2138 397 
Q 2388 397 2633 464 
Q 2878 531 3122 666 
L 3122 134 
Q 2881 22 2623 -34 
Q 2366 -91 2075 -91 
Q 1284 -91 818 406 
Q 353 903 353 1747 
Q 353 2603 823 3093 
Q 1294 3584 2113 3584 
Q 2378 3584 2631 3529 
Q 2884 3475 3122 3366 
z
" id="DejaVuSans-63" transform="scale(0.015625)"/>
       <path d="M 1172 4494 
L 1172 3500 
L 2356 3500 
L 2356 3053 
L 1172 3053 
L 1172 1153 
Q 1172 725 1289 603 
Q 1406 481 1766 481 
L 2356 481 
L 2356 0 
L 1766 0 
Q 1100 0 847 248 
Q 594 497 594 1153 
L 594 3053 
L 172 3053 
L 172 3500 
L 594 3500 
L 594 4494 
L 1172 4494 
z
" id="DejaVuSans-74" transform="scale(0.015625)"/>
       <path d="M 544 1381 
L 544 3500 
L 1119 3500 
L 1119 1403 
Q 1119 906 1312 657 
Q 1506 409 1894 409 
Q 2359 409 2629 706 
Q 2900 1003 2900 1516 
L 2900 3500 
L 3475 3500 
L 3475 0 
L 2900 0 
L 2900 538 
Q 2691 219 2414 64 
Q 2138 -91 1772 -91 
Q 1169 -91 856 284 
Q 544 659 544 1381 
z
M 1991 3584 
L 1991 3584 
z
" id="DejaVuSans-75" transform="scale(0.015625)"/>
       <path d="M 750 794 
L 1409 794 
L 1409 256 
L 897 -744 
L 494 -744 
L 750 256 
L 750 794 
z
" id="DejaVuSans-2c" transform="scale(0.015625)"/>
       <path d="M 1159 525 
L 1159 -1331 
L 581 -1331 
L 581 3500 
L 1159 3500 
L 1159 2969 
Q 1341 3281 1617 3432 
Q 1894 3584 2278 3584 
Q 2916 3584 3314 3078 
Q 3713 2572 3713 1747 
Q 3713 922 3314 415 
Q 2916 -91 2278 -91 
Q 1894 -91 1617 61 
Q 1341 213 1159 525 
z
M 3116 1747 
Q 3116 2381 2855 2742 
Q 2594 3103 2138 3103 
Q 1681 3103 1420 2742 
Q 1159 2381 1159 1747 
Q 1159 1113 1420 752 
Q 1681 391 2138 391 
Q 2594 391 2855 752 
Q 3116 1113 3116 1747 
z
" id="DejaVuSans-70" transform="scale(0.015625)"/>
      </defs>
      <use xlink:href="#DejaVuSans-46"/>
      <use x="50.269531" xlink:href="#DejaVuSans-72"/>
      <use x="91.382812" xlink:href="#DejaVuSans-61"/>
      <use x="152.662109" xlink:href="#DejaVuSans-63"/>
      <use x="207.642578" xlink:href="#DejaVuSans-74"/>
      <use x="246.851562" xlink:href="#DejaVuSans-69"/>
      <use x="274.634766" xlink:href="#DejaVuSans-6f"/>
      <use x="335.816406" xlink:href="#DejaVuSans-6e"/>
      <use x="399.195312" xlink:href="#DejaVuSans-20"/>
      <use x="430.982422" xlink:href="#DejaVuSans-6f"/>
      <use x="492.164062" xlink:href="#DejaVuSans-66"/>
      <use x="527.369141" xlink:href="#DejaVuSans-20"/>
      <use x="559.15625" xlink:href="#DejaVuSans-66"/>
      <use x="594.361328" xlink:href="#DejaVuSans-75"/>
      <use x="657.740234" xlink:href="#DejaVuSans-6e"/>
      <use x="721.119141" xlink:href="#DejaVuSans-63"/>
      <use x="776.099609" xlink:href="#DejaVuSans-74"/>
      <use x="815.308594" xlink:href="#DejaVuSans-69"/>
      <use x="843.091797" xlink:href="#DejaVuSans-6f"/>
      <use x="904.273438" xlink:href="#DejaVuSans-6e"/>
      <use x="967.652344" xlink:href="#DejaVuSans-2c"/>
      <use x="999.439453" xlink:href="#DejaVuSans-74"/>
      <use x="1038.648438" xlink:href="#DejaVuSans-61"/>
      <use x="1099.927734" xlink:href="#DejaVuSans-72"/>
      <use x="1139.291016" xlink:href="#DejaVuSans-67"/>
      <use x="1202.767578" xlink:href="#DejaVuSans-65"/>
      <use x="1264.291016" xlink:href="#DejaVuSans-74"/>
      <use x="1303.5" xlink:href="#DejaVuSans-20"/>
      <use x="1335.287109" xlink:href="#DejaVuSans-70"/>
      <use x="1398.763672" xlink:href="#DejaVuSans-61"/>
      <use x="1460.042969" xlink:href="#DejaVuSans-69"/>
      <use x="1487.826172" xlink:href="#DejaVuSans-72"/>
      <use x="1528.939453" xlink:href="#DejaVuSans-73"/>
     </g>
    </g>
   </g>
   <g id="line2d_33">
    <defs>
     <path d="M 0 1.5 
C 0.397805 1.5 0.77937 1.341951 1.06066 1.06066 
C 1.341951 0.77937 1.5 0.397805 1.5 0 
C 1.5 -0.397805 1.341951 -0.77937 1.06066 -1.06066 
C 0.77937 -1.341951 0.397805 -1.5 0 -1.5 
C -0.397805 -1.5 -0.77937 -1.341951 -1.06066 -1.06066 
C -1.341951 -0.77937 -1.5 -0.397805 -1.5 0 
C -1.5 0.397805 -1.341951 0.77937 -1.06066 1.06066 
C -0.77937 1.341951 -0.397805 1.5 0 1.5 
z
" id="mcb79fc01a8" style="stroke:#f5deb3;"/>
    </defs>
    <g>
     <use style="fill:#f5deb3;stroke:#f5deb3;" x="140.093612" xlink:href="#mcb79fc01a8" y="30.334099"/>
     <use style="fill:#f5deb3;stroke:#f5deb3;" x="140.093612" xlink:href="#mcb79fc01a8" y="30.334099"/>
    </g>
   </g>
   <g id="line2d_34">
    <defs>
     <path d="M 0 1.5 
C 0.397805 1.5 0.77937 1.341951 1.06066 1.06066 
C 1.341951 0.77937 1.5 0.397805 1.5 0 
C 1.5 -0.397805 1.341951 -0.77937 1.06066 -1.06066 
C 0.77937 -1.341951 0.397805 -1.5 0 -1.5 
C -0.397805 -1.5 -0.77937 -1.341951 -1.06066 -1.06066 
C -1.341951 -0.77937 -1.5 -0.397805 -1.5 0 
C -1.5 0.397805 -1.341951 0.77937 -1.06066 1.06066 
C -0.77937 1.341951 -0.397805 1.5 0 1.5 
z
" id="m0123c43f35" style="stroke:#000080;"/>
    </defs>
    <g>
     <use style="fill:#000080;stroke:#000080;" x="193.138977" xlink:href="#m0123c43f35" y="30.334099"/>
     <use style="fill:#000080;stroke:#000080;" x="193.138977" xlink:href="#m0123c43f35" y="30.334099"/>
    </g>
   </g>
   <g id="line2d_35">
    <path d="M 90.684409 298.944 
L 90.684409 298.417314 
L 100.443706 298.417314 
L 100.443706 297.890628 
L 102.330873 297.890628 
L 102.330873 296.837256 
L 102.772397 296.837256 
L 102.772397 296.31057 
L 117.297733 296.31057 
L 117.297733 295.257197 
L 120.41399 295.257197 
L 120.41399 294.730511 
L 120.883236 294.730511 
L 120.883236 293.150453 
L 126.3947 293.150453 
L 126.3947 292.097081 
L 129.480244 292.097081 
L 129.480244 291.570395 
L 129.853291 291.570395 
L 129.853291 289.463651 
L 131.355321 289.463651 
L 131.355321 288.936964 
L 133.124876 288.936964 
L 133.124876 288.410278 
L 133.428175 288.410278 
L 133.428175 287.356906 
L 134.939326 287.356906 
L 134.939326 285.250162 
L 138.594838 285.250162 
L 138.594838 284.19679 
L 141.235139 284.19679 
L 141.235139 282.616732 
L 141.895083 282.616732 
L 141.941279 281.563359 
L 142.261275 281.563359 
L 142.261275 281.036673 
L 142.708461 281.036673 
L 142.708461 279.456615 
L 143.358447 279.456615 
L 143.44331 278.403243 
L 145.403044 278.403243 
L 145.403044 277.876557 
L 146.502522 277.876557 
L 146.502522 276.823185 
L 146.679213 276.823185 
L 146.679213 276.296499 
L 146.854132 276.296499 
L 146.854132 275.243126 
L 147.536775 275.243126 
L 147.536775 274.71644 
L 148.031773 274.71644 
L 148.031773 274.189754 
L 148.701984 274.189754 
L 148.701984 273.663068 
L 148.857832 273.663068 
L 148.950676 271.029638 
L 150.79426 271.029638 
L 150.79426 270.502952 
L 150.960087 270.502952 
L 150.960087 269.976266 
L 151.233007 269.976266 
L 151.287083 268.396207 
L 151.421542 268.396207 
L 151.421542 266.289463 
L 151.660987 266.289463 
L 151.713753 264.709405 
L 152.283884 264.709405 
L 152.283884 264.182719 
L 153.178403 264.182719 
L 153.178403 262.075974 
L 153.323128 262.075974 
L 153.323128 261.549288 
L 153.726778 261.549288 
L 153.726778 261.022602 
L 154.46214 261.022602 
L 154.529516 259.96923 
L 155.081089 259.96923 
L 155.081089 256.809114 
L 155.232454 256.809114 
L 155.232454 256.282427 
L 155.573575 256.282427 
L 155.573575 255.755741 
L 156.154939 255.755741 
L 156.154939 255.229055 
L 157.67916 255.229055 
L 157.753847 253.648997 
L 158.412011 253.648997 
L 158.412011 253.122311 
L 159.028927 253.122311 
L 159.028927 252.595625 
L 159.201253 252.595625 
L 159.201253 251.015567 
L 159.857512 251.015567 
L 159.857512 248.382136 
L 160.442124 248.382136 
L 160.442124 244.695334 
L 160.585265 244.695334 
L 160.664283 241.535217 
L 160.992304 241.535217 
L 160.992304 239.955159 
L 161.161694 239.955159 
L 161.161694 239.428473 
L 161.344625 239.428473 
L 161.344625 238.375101 
L 161.764147 238.375101 
L 161.764147 237.321729 
L 162.144868 237.321729 
L 162.144868 236.268356 
L 163.157756 236.268356 
L 163.171418 234.688298 
L 163.375071 234.688298 
L 163.375071 234.161612 
L 164.089137 234.161612 
L 164.089137 233.634926 
L 164.384616 233.634926 
L 164.39735 231.528182 
L 165.034758 231.528182 
L 165.083779 229.948123 
L 165.435121 229.948123 
L 165.435121 228.368065 
L 165.566558 228.368065 
L 165.625977 227.314693 
L 165.744209 227.314693 
L 165.744209 226.788007 
L 166.300829 226.788007 
L 166.300829 226.261321 
L 166.684622 226.261321 
L 166.684622 225.734635 
L 166.795913 225.734635 
L 166.795913 224.681263 
L 167.08199 224.681263 
L 167.08199 224.154577 
L 167.244924 224.154577 
L 167.288118 223.101204 
L 167.693205 223.101204 
L 167.693205 222.574518 
L 167.871425 222.574518 
L 167.871425 221.521146 
L 167.985782 221.521146 
L 167.985782 220.467774 
L 168.293904 220.467774 
L 168.293904 219.414402 
L 168.456037 219.414402 
L 168.456037 218.36103 
L 168.576655 218.36103 
L 168.616676 216.780971 
L 168.943394 216.780971 
L 168.943394 216.254285 
L 169.321786 216.254285 
L 169.321786 215.727599 
L 169.673338 215.727599 
L 169.767149 214.147541 
L 169.94401 214.147541 
L 169.971772 213.094169 
L 170.319654 213.094169 
L 170.346825 212.040797 
L 170.713981 212.040797 
L 170.775901 209.934052 
L 170.88154 209.934052 
L 170.960352 207.827308 
L 171.03881 207.827308 
L 171.03881 207.300622 
L 171.408865 207.300622 
L 171.408865 206.773936 
L 171.54458 206.773936 
L 171.54458 206.24725 
L 171.779569 206.24725 
L 171.787903 205.193878 
L 171.895887 205.193878 
L 171.895887 204.667192 
L 172.06072 204.667192 
L 172.068921 202.560447 
L 172.224011 202.560447 
L 172.224011 202.033761 
L 172.345483 202.033761 
L 172.369676 200.453703 
L 172.482136 200.453703 
L 172.546075 198.346959 
L 172.593876 198.346959 
L 172.593876 197.293586 
L 172.924861 197.293586 
L 173.00275 194.13347 
L 173.234351 194.13347 
L 173.249682 193.080098 
L 173.402258 193.080098 
L 173.462916 191.50004 
L 173.530906 191.50004 
L 173.583604 189.919981 
L 173.643636 189.919981 
L 173.643636 188.866609 
L 173.785389 188.866609 
L 173.896491 187.813237 
L 174.065485 187.813237 
L 174.109302 186.233179 
L 174.232857 186.233179 
L 174.26903 185.179807 
L 174.377103 185.179807 
L 174.47737 182.546376 
L 174.562857 182.546376 
L 174.562857 181.493004 
L 174.683251 181.493004 
L 174.683251 180.439632 
L 175.080963 180.439632 
L 175.142939 179.38626 
L 175.211544 179.38626 
L 175.279879 177.806202 
L 175.744237 177.806202 
L 175.744237 175.699457 
L 175.88973 175.699457 
L 175.988239 173.066027 
L 176.04055 173.066027 
L 176.151193 168.852538 
L 176.325491 168.852538 
L 176.396004 167.27248 
L 176.567884 167.27248 
L 176.593204 166.219108 
L 176.694119 166.219108 
L 176.800705 165.165736 
L 176.819447 165.165736 
L 176.83193 164.112363 
L 176.931477 164.112363 
L 177.024289 161.478933 
L 177.042792 161.478933 
L 177.073587 159.898875 
L 177.220651 159.898875 
L 177.220651 158.318817 
L 177.420861 158.318817 
L 177.426892 156.738758 
L 177.571019 156.738758 
L 177.571019 156.212072 
L 177.690222 156.212072 
L 177.690222 155.685386 
L 177.855749 155.685386 
L 177.855749 154.632014 
L 178.164829 154.632014 
L 178.234056 153.051956 
L 178.291535 153.051956 
L 178.388818 151.471897 
L 178.451478 151.471897 
L 178.513913 149.891839 
L 178.83947 149.891839 
L 178.950337 147.785095 
L 178.977944 147.785095 
L 179.060504 145.151665 
L 179.148138 145.151665 
L 179.148138 144.624978 
L 179.435323 144.624978 
L 179.526446 139.884804 
L 179.664896 139.884804 
L 179.723141 138.304745 
L 179.823292 138.304745 
L 179.917643 137.251373 
L 179.98547 137.251373 
L 180.027079 136.198001 
L 180.104829 136.198001 
L 180.202817 132.511199 
L 180.290026 132.511199 
L 180.290026 131.984513 
L 180.569223 131.984513 
L 180.599412 130.93114 
L 180.744595 130.93114 
L 180.744595 129.877768 
L 180.868789 129.877768 
L 180.942883 127.771024 
L 180.982272 127.771024 
L 180.997019 126.190966 
L 181.192474 126.190966 
L 181.294218 123.030849 
L 181.332822 123.030849 
L 181.376149 121.977477 
L 181.462482 121.977477 
L 181.462482 120.924105 
L 181.581685 120.924105 
L 181.591186 119.344047 
L 181.747212 119.344047 
L 181.817674 117.763988 
L 181.897188 117.763988 
L 181.934481 115.657244 
L 182.156581 115.657244 
L 182.26658 114.077186 
L 182.289409 114.077186 
L 182.334978 109.863697 
L 182.448383 109.863697 
L 182.520577 107.230267 
L 182.699764 107.230267 
L 182.810829 101.963406 
L 182.84622 101.963406 
L 182.84622 101.43672 
L 182.991457 101.43672 
L 183.043972 98.276603 
L 183.122449 98.276603 
L 183.222213 96.169859 
L 183.239506 96.169859 
L 183.252464 94.589801 
L 183.355782 94.589801 
L 183.449956 92.483056 
L 183.475552 92.483056 
L 183.569083 88.796254 
L 183.61989 88.796254 
L 183.666333 87.742882 
L 183.809106 87.742882 
L 183.834181 85.109451 
L 183.97145 85.109451 
L 183.97145 84.582765 
L 184.082962 84.582765 
L 184.12819 83.529393 
L 184.246866 83.529393 
L 184.336361 81.949335 
L 184.626084 81.949335 
L 184.721598 80.369277 
L 184.800796 80.369277 
L 184.863896 78.262532 
L 184.926769 78.262532 
L 185.001137 75.629102 
L 185.260879 75.629102 
L 185.356816 74.049044 
L 185.58871 74.049044 
L 185.626432 70.888927 
L 186.021357 70.888927 
L 186.102214 69.835555 
L 186.157129 69.835555 
L 186.157129 68.255497 
L 186.309979 68.255497 
L 186.357019 64.042008 
L 186.421943 64.042008 
L 186.486626 62.988636 
L 186.63307 62.988636 
L 186.63307 61.935264 
L 187.009561 61.935264 
L 187.058226 60.881892 
L 187.326899 60.881892 
L 187.429142 58.248461 
L 187.534168 58.248461 
L 187.618407 55.088345 
L 187.698897 55.088345 
L 187.698897 54.034973 
L 187.825583 54.034973 
L 187.832225 52.9816 
L 187.944758 52.9816 
L 188.046733 49.821484 
L 188.170926 49.821484 
L 188.239182 47.71474 
L 188.307171 47.71474 
L 188.307171 46.134681 
L 188.649537 46.134681 
L 188.649537 45.607995 
L 188.816663 45.607995 
L 188.860543 43.501251 
L 189.038067 43.501251 
L 189.136944 41.921193 
L 189.176953 41.921193 
L 189.176953 40.867821 
L 189.384747 40.867821 
L 189.384747 40.341135 
L 189.911347 40.341135 
L 189.911347 39.814448 
L 190.473953 39.814448 
L 190.488216 38.761076 
L 190.647169 38.761076 
L 190.700772 37.707704 
L 190.860599 37.707704 
L 190.860599 37.181018 
L 191.112764 37.181018 
L 191.208788 33.494215 
L 191.942787 33.494215 
L 191.942787 32.440843 
L 192.795152 32.440843 
L 192.894791 30.860785 
L 193.138977 30.860785 
L 193.138977 30.334099 
L 338.688 30.334099 
L 338.688 30.334099 
" style="fill:none;stroke:#000080;stroke-linecap:square;stroke-width:1.5;"/>
   </g>
   <g id="line2d_36">
    <defs>
     <path d="M 0 6 
C 1.591219 6 3.117479 5.367802 4.242641 4.242641 
C 5.367802 3.117479 6 1.591219 6 0 
C 6 -1.591219 5.367802 -3.117479 4.242641 -4.242641 
C 3.117479 -5.367802 1.591219 -6 0 -6 
C -1.591219 -6 -3.117479 -5.367802 -4.242641 -4.242641 
C -5.367802 -3.117479 -6 -1.591219 -6 0 
C -6 1.591219 -5.367802 3.117479 -4.242641 4.242641 
C -3.117479 5.367802 -1.591219 6 0 6 
z
" id="m4fdae674d2" style="stroke:#000080;stroke-width:1.5;"/>
    </defs>
    <g>
     <use style="fill-opacity:0;stroke:#000080;stroke-width:1.5;" x="172.593876" xlink:href="#m4fdae674d2" y="197.293586"/>
     <use style="fill-opacity:0;stroke:#000080;stroke-width:1.5;" x="193.138977" xlink:href="#m4fdae674d2" y="30.860785"/>
     <use style="fill-opacity:0;stroke:#000080;stroke-width:1.5;" x="193.138977" xlink:href="#m4fdae674d2" y="30.334099"/>
     <use style="fill-opacity:0;stroke:#000080;stroke-width:1.5;" x="193.138977" xlink:href="#m4fdae674d2" y="30.334099"/>
     <use style="fill-opacity:0;stroke:#000080;stroke-width:1.5;" x="338.688" xlink:href="#m4fdae674d2" y="30.334099"/>
    </g>
   </g>
   <g id="line2d_37">
    <path style="fill:none;stroke:#000080;stroke-linecap:square;stroke-width:1.5;"/>
    <g/>
   </g>
   <g id="line2d_38">
    <defs>
     <path d="M 0 1.5 
C 0.397805 1.5 0.77937 1.341951 1.06066 1.06066 
C 1.341951 0.77937 1.5 0.397805 1.5 0 
C 1.5 -0.397805 1.341951 -0.77937 1.06066 -1.06066 
C 0.77937 -1.341951 0.397805 -1.5 0 -1.5 
C -0.397805 -1.5 -0.77937 -1.341951 -1.06066 -1.06066 
C -1.341951 -0.77937 -1.5 -0.397805 -1.5 0 
C -1.5 0.397805 -1.341951 0.77937 -1.06066 1.06066 
C -0.77937 1.341951 -0.397805 1.5 0 1.5 
z
" id="m5702db0cf3" style="stroke:#ff00ff;"/>
    </defs>
    <g>
     <use style="fill:#ff00ff;stroke:#ff00ff;" x="164.737701" xlink:href="#m5702db0cf3" y="30.334099"/>
     <use style="fill:#ff00ff;stroke:#ff00ff;" x="164.737701" xlink:href="#m5702db0cf3" y="30.334099"/>
    </g>
   </g>
   <g id="line2d_39">
    <path d="M 99.41757 298.944 
L 99.41757 298.417314 
L 118.925375 298.417314 
L 118.925375 296.837256 
L 120.093994 296.837256 
L 120.093994 295.783884 
L 120.571812 295.783884 
L 120.571812 292.623767 
L 120.728219 292.623767 
L 120.728219 292.097081 
L 123.855796 292.097081 
L 123.855796 291.570395 
L 124.241922 291.570395 
L 124.241922 290.517023 
L 125.938745 290.517023 
L 125.938745 289.990337 
L 126.3947 289.990337 
L 126.3947 289.463651 
L 127.378995 289.463651 
L 127.378995 288.410278 
L 128.107907 288.410278 
L 128.107907 286.83022 
L 128.511146 286.83022 
L 128.511146 285.250162 
L 128.807571 285.250162 
L 128.807571 284.723476 
L 130.576266 284.723476 
L 130.576266 284.19679 
L 131.856005 284.19679 
L 131.856005 283.670104 
L 132.501978 283.670104 
L 132.501978 282.616732 
L 132.971225 282.616732 
L 132.971225 280.509987 
L 133.352844 280.509987 
L 133.352844 279.983301 
L 133.800029 279.983301 
L 133.800029 279.456615 
L 134.019394 279.456615 
L 134.019394 278.929929 
L 134.164119 278.929929 
L 134.164119 278.403243 
L 134.307653 278.403243 
L 134.307653 277.876557 
L 135.00812 277.876557 
L 135.00812 277.349871 
L 135.144899 277.349871 
L 135.144899 275.243126 
L 135.348078 275.243126 
L 135.415281 272.609696 
L 136.137916 272.609696 
L 136.137916 272.08301 
L 136.393441 272.08301 
L 136.456742 269.976266 
L 136.831795 269.976266 
L 136.831795 269.449579 
L 137.558536 269.449579 
L 137.558536 268.922893 
L 137.676769 268.922893 
L 137.676769 268.396207 
L 137.852629 268.396207 
L 137.852629 267.869521 
L 138.026733 267.869521 
L 138.026733 267.342835 
L 138.256201 267.342835 
L 138.256201 266.816149 
L 138.816998 266.816149 
L 138.927025 264.182719 
L 138.981779 264.182719 
L 138.981779 262.075974 
L 139.145019 262.075974 
L 139.145019 261.549288 
L 139.413734 261.549288 
L 139.413734 261.022602 
L 139.730821 261.022602 
L 139.730821 260.495916 
L 140.042245 260.495916 
L 140.042245 259.96923 
L 140.39868 259.96923 
L 140.499195 258.915858 
L 140.599134 258.915858 
L 140.698504 255.755741 
L 141.187031 255.755741 
L 141.283115 253.648997 
L 141.848763 253.648997 
L 141.941279 251.542253 
L 142.215919 251.542253 
L 142.215919 251.015567 
L 142.396639 251.015567 
L 142.396639 250.488881 
L 142.664255 250.488881 
L 142.752555 247.328764 
L 142.884173 247.328764 
L 142.884173 246.802078 
L 143.058132 246.802078 
L 143.058132 245.22202 
L 143.187472 245.22202 
L 143.187472 244.695334 
L 143.358447 244.695334 
L 143.358447 243.115275 
L 143.820164 243.115275 
L 143.820164 242.061903 
L 143.943994 242.061903 
L 143.943994 241.535217 
L 144.430703 241.535217 
L 144.510517 239.428473 
L 144.550287 239.428473 
L 144.629556 236.268356 
L 144.865226 236.268356 
L 144.865226 235.214984 
L 145.136208 235.214984 
L 145.174578 232.054868 
L 145.591172 232.054868 
L 145.591172 231.528182 
L 145.777292 231.528182 
L 145.777292 231.001496 
L 146.071013 231.001496 
L 146.179895 228.894751 
L 146.252108 228.894751 
L 146.324022 227.314693 
L 146.714338 227.314693 
L 146.714338 226.788007 
L 146.854132 226.788007 
L 146.854132 225.734635 
L 146.992815 225.734635 
L 146.992815 225.207949 
L 147.232888 225.207949 
L 147.334773 223.627891 
L 147.368603 223.627891 
L 147.368603 223.101204 
L 147.570215 223.101204 
L 147.570215 222.047832 
L 147.835457 222.047832 
L 147.86833 219.941088 
L 148.193699 219.941088 
L 148.258051 214.674227 
L 148.48143 214.674227 
L 148.48143 213.094169 
L 148.670646 213.094169 
L 148.701984 210.987425 
L 148.888835 210.987425 
L 148.981515 205.720564 
L 149.043029 205.720564 
L 149.043029 205.193878 
L 149.165411 205.193878 
L 149.256637 203.087133 
L 149.587107 203.087133 
L 149.616841 202.033761 
L 149.705742 202.033761 
L 149.705742 199.927017 
L 150.027887 199.927017 
L 150.05688 198.346959 
L 150.229833 198.346959 
L 150.31567 196.7669 
L 150.682827 196.7669 
L 150.682827 195.713528 
L 150.960087 195.713528 
L 151.069768 192.553412 
L 151.178764 192.553412 
L 151.178764 192.026726 
L 151.340991 192.026726 
L 151.44831 189.393295 
L 151.68739 189.393295 
L 151.76636 184.653121 
L 151.871101 184.653121 
L 151.975216 182.546376 
L 152.052897 182.546376 
L 152.155936 179.912946 
L 152.309362 179.912946 
L 152.309362 179.38626 
L 152.461449 179.38626 
L 152.562109 177.279515 
L 152.662192 177.279515 
L 152.662192 176.226143 
L 152.811246 176.226143 
L 152.860649 175.172771 
L 152.934492 175.172771 
L 152.959038 173.592713 
L 153.202607 173.592713 
L 153.226778 168.325852 
L 153.323128 168.325852 
L 153.371104 167.27248 
L 153.561699 167.27248 
L 153.585377 165.692422 
L 153.750233 165.692422 
L 153.820412 164.63905 
L 153.983071 164.63905 
L 153.983071 164.112363 
L 154.144227 164.112363 
L 154.144227 163.585677 
L 154.258434 163.585677 
L 154.258434 162.532305 
L 154.417077 162.532305 
L 154.46214 161.478933 
L 154.596634 161.478933 
L 154.641235 160.425561 
L 154.730098 160.425561 
L 154.730098 159.898875 
L 154.884527 159.898875 
L 154.950294 157.79213 
L 155.0376 157.79213 
L 155.102793 155.685386 
L 155.253971 155.685386 
L 155.361158 151.998584 
L 155.403849 151.998584 
L 155.425155 150.945211 
L 155.594676 150.945211 
L 155.699795 148.838467 
L 155.887428 148.838467 
L 155.990803 141.991548 
L 156.073064 141.991548 
L 156.073064 140.41149 
L 156.195732 140.41149 
L 156.195732 137.251373 
L 156.398281 137.251373 
L 156.478647 132.511199 
L 156.796456 132.511199 
L 156.894595 129.351082 
L 156.953214 129.351082 
L 156.953214 128.29771 
L 157.089232 128.29771 
L 157.108577 126.717652 
L 157.300853 126.717652 
L 157.396202 122.504163 
L 157.491032 122.504163 
L 157.491032 121.977477 
L 157.660438 121.977477 
L 157.735205 120.397419 
L 157.883783 120.397419 
L 157.994392 117.237302 
L 158.213527 117.237302 
L 158.322071 111.970441 
L 158.465753 111.970441 
L 158.48363 110.917069 
L 158.590511 110.917069 
L 158.625992 106.703581 
L 158.784773 106.703581 
L 158.784773 105.650209 
L 158.907277 105.650209 
L 158.924708 104.596836 
L 159.063529 104.596836 
L 159.166924 100.383348 
L 159.286782 100.383348 
L 159.337899 97.749917 
L 159.405822 97.749917 
L 159.405822 96.696545 
L 159.524055 96.696545 
L 159.557689 95.116487 
L 159.69158 95.116487 
L 159.774744 94.063115 
L 159.824452 94.063115 
L 159.84099 91.429684 
L 159.972732 91.429684 
L 159.98913 89.32294 
L 160.119762 89.32294 
L 160.119762 87.742882 
L 160.265562 87.742882 
L 160.36209 80.369277 
L 160.426146 80.369277 
L 160.505887 76.155788 
L 160.537682 76.155788 
L 160.585265 71.415613 
L 160.727241 71.415613 
L 160.821253 68.255497 
L 161.038665 68.255497 
L 161.11566 65.622066 
L 161.207607 65.622066 
L 161.222884 64.042008 
L 161.39006 64.042008 
L 161.480575 60.881892 
L 161.660209 60.881892 
L 161.764147 57.721775 
L 161.88218 57.721775 
L 161.955547 54.034973 
L 162.072295 54.034973 
L 162.144868 50.874856 
L 162.289115 50.874856 
L 162.317821 48.241426 
L 162.517456 48.241426 
L 162.545789 45.607995 
L 162.742845 45.607995 
L 162.79874 43.501251 
L 162.854457 43.501251 
L 162.854457 41.394507 
L 162.979172 41.394507 
L 162.979172 40.867821 
L 163.320996 40.867821 
L 163.428979 39.287762 
L 163.455871 39.287762 
L 163.455871 38.761076 
L 163.603039 38.761076 
L 163.603039 38.23439 
L 163.762182 38.23439 
L 163.801742 36.127646 
L 163.959089 36.127646 
L 164.050224 35.074274 
L 164.205356 35.074274 
L 164.218222 33.494215 
L 164.346358 33.494215 
L 164.42279 32.440843 
L 164.587254 32.440843 
L 164.687696 30.860785 
L 164.737701 30.860785 
L 164.737701 30.334099 
L 338.688 30.334099 
L 338.688 30.334099 
" style="fill:none;stroke:#ff00ff;stroke-linecap:square;stroke-width:1.5;"/>
   </g>
   <g id="line2d_40">
    <defs>
     <path d="M 0 8.485281 
L 5.091169 0 
L 0 -8.485281 
L -5.091169 0 
z
" id="m3eb6ded4f0" style="stroke:#ff00ff;stroke-linejoin:miter;stroke-width:1.5;"/>
    </defs>
    <g>
     <use style="fill-opacity:0;stroke:#ff00ff;stroke-linejoin:miter;stroke-width:1.5;" x="152.562109" xlink:href="#m3eb6ded4f0" y="177.279515"/>
     <use style="fill-opacity:0;stroke:#ff00ff;stroke-linejoin:miter;stroke-width:1.5;" x="164.737701" xlink:href="#m3eb6ded4f0" y="30.860785"/>
     <use style="fill-opacity:0;stroke:#ff00ff;stroke-linejoin:miter;stroke-width:1.5;" x="164.737701" xlink:href="#m3eb6ded4f0" y="30.334099"/>
     <use style="fill-opacity:0;stroke:#ff00ff;stroke-linejoin:miter;stroke-width:1.5;" x="164.737701" xlink:href="#m3eb6ded4f0" y="30.334099"/>
     <use style="fill-opacity:0;stroke:#ff00ff;stroke-linejoin:miter;stroke-width:1.5;" x="338.688" xlink:href="#m3eb6ded4f0" y="30.334099"/>
    </g>
   </g>
   <g id="line2d_41">
    <path style="fill:none;stroke:#ff00ff;stroke-linecap:square;stroke-width:1.5;"/>
    <g/>
   </g>
   <g id="line2d_42">
    <defs>
     <path d="M 0 1.5 
C 0.397805 1.5 0.77937 1.341951 1.06066 1.06066 
C 1.341951 0.77937 1.5 0.397805 1.5 0 
C 1.5 -0.397805 1.341951 -0.77937 1.06066 -1.06066 
C 0.77937 -1.341951 0.397805 -1.5 0 -1.5 
C -0.397805 -1.5 -0.77937 -1.341951 -1.06066 -1.06066 
C -1.341951 -0.77937 -1.5 -0.397805 -1.5 0 
C -1.5 0.397805 -1.341951 0.77937 -1.06066 1.06066 
C -0.77937 1.341951 -0.397805 1.5 0 1.5 
z
" id="m762375f34d" style="stroke:#ff7500;"/>
    </defs>
    <g>
     <use style="fill:#ff7500;stroke:#ff7500;" x="173.272654" xlink:href="#m762375f34d" y="30.334099"/>
     <use style="fill:#ff7500;stroke:#ff7500;" x="173.272654" xlink:href="#m762375f34d" y="30.334099"/>
    </g>
   </g>
   <g id="line2d_43">
    <path d="M 98.32726 298.944 
L 98.32726 298.417314 
L 111.239304 298.417314 
L 111.239304 297.890628 
L 112.280765 297.890628 
L 112.280765 296.31057 
L 113.965867 296.31057 
L 113.965867 295.783884 
L 115.917635 295.783884 
L 115.917635 295.257197 
L 117.486268 295.257197 
L 117.486268 294.730511 
L 117.672786 294.730511 
L 117.672786 293.677139 
L 123.327293 293.677139 
L 123.327293 292.097081 
L 124.494669 292.097081 
L 124.494669 291.570395 
L 124.619683 291.570395 
L 124.619683 291.043709 
L 126.168212 291.043709 
L 126.168212 289.990337 
L 126.3947 289.990337 
L 126.3947 289.463651 
L 129.945319 289.463651 
L 129.945319 288.936964 
L 130.127931 288.936964 
L 130.127931 288.410278 
L 130.576266 288.410278 
L 130.576266 286.83022 
L 130.752422 286.83022 
L 130.752422 286.303534 
L 131.523818 286.303534 
L 131.523818 285.776848 
L 131.938072 285.776848 
L 131.938072 285.250162 
L 132.262533 285.250162 
L 132.262533 283.143418 
L 132.971225 283.143418 
L 133.04822 278.929929 
L 135.144899 278.929929 
L 135.144899 278.403243 
L 135.348078 278.403243 
L 135.348078 277.876557 
L 136.707671 277.876557 
L 136.707671 277.349871 
L 137.794206 277.349871 
L 137.852629 276.296499 
L 137.968891 276.296499 
L 137.968891 275.243126 
L 138.084384 275.243126 
L 138.084384 274.71644 
L 138.872098 274.71644 
L 138.981779 273.136382 
L 139.145019 273.136382 
L 139.145019 272.08301 
L 139.887228 272.08301 
L 139.887228 271.556324 
L 140.042245 271.556324 
L 140.042245 271.029638 
L 140.44901 271.029638 
L 140.44901 270.502952 
L 141.709062 270.502952 
L 141.709062 269.976266 
L 142.306513 269.976266 
L 142.396639 268.396207 
L 142.575505 268.396207 
L 142.575505 267.342835 
L 143.058132 267.342835 
L 143.058132 266.289463 
L 143.187472 266.289463 
L 143.187472 265.762777 
L 143.943994 265.762777 
L 143.943994 264.709405 
L 144.470655 264.709405 
L 144.470655 264.182719 
L 144.589967 264.182719 
L 144.669057 263.129347 
L 145.136208 263.129347 
L 145.136208 262.60266 
L 145.327221 262.60266 
L 145.327221 262.075974 
L 145.814278 262.075974 
L 145.814278 261.022602 
L 145.998045 261.022602 
L 145.998045 260.495916 
L 146.216039 260.495916 
L 146.216039 259.442544 
L 146.819289 259.442544 
L 146.888907 258.389172 
L 147.232888 258.389172 
L 147.232888 257.862486 
L 147.70334 257.862486 
L 147.70334 256.282427 
L 147.835457 256.282427 
L 147.835457 255.755741 
L 148.225905 255.755741 
L 148.258051 254.702369 
L 148.354135 254.702369 
L 148.386046 253.122311 
L 148.639252 253.122311 
L 148.639252 252.595625 
L 148.981515 252.595625 
L 149.073705 250.488881 
L 149.165411 250.488881 
L 149.165411 248.908822 
L 149.616841 248.908822 
L 149.676158 246.802078 
L 150.79426 246.802078 
L 150.904986 245.22202 
L 151.314058 245.22202 
L 151.314058 244.695334 
L 151.68739 244.695334 
L 151.76636 243.641962 
L 151.949246 243.641962 
L 151.949246 243.115275 
L 152.334802 243.115275 
L 152.334802 242.061903 
L 152.612222 242.061903 
L 152.712018 239.955159 
L 152.959038 239.955159 
L 152.959038 238.901787 
L 153.323128 238.901787 
L 153.323128 238.375101 
L 153.561699 238.375101 
L 153.561699 237.848415 
L 153.703291 237.848415 
L 153.703291 237.321729 
L 153.843742 237.321729 
L 153.913546 236.268356 
L 154.258434 236.268356 
L 154.349264 234.161612 
L 154.417077 234.161612 
L 154.507086 233.10824 
L 154.596634 233.10824 
L 154.596634 232.054868 
L 154.796449 232.054868 
L 154.796449 231.001496 
L 154.928399 231.001496 
L 154.928399 230.47481 
L 155.059358 230.47481 
L 155.081089 228.894751 
L 155.275461 228.894751 
L 155.296925 225.734635 
L 155.531298 225.734635 
L 155.61575 223.627891 
L 155.720743 223.627891 
L 155.741666 219.414402 
L 155.86668 219.414402 
L 155.887428 217.834344 
L 156.031982 217.834344 
L 156.134506 216.780971 
L 156.195732 216.780971 
L 156.256744 213.094169 
L 156.418408 213.094169 
L 156.418408 212.567483 
L 156.578586 212.567483 
L 156.677955 210.987425 
L 156.933697 210.987425 
L 156.933697 207.827308 
L 157.089232 207.827308 
L 157.089232 207.300622 
L 157.300853 207.300622 
L 157.339055 205.193878 
L 157.472107 205.193878 
L 157.566527 204.140506 
L 157.660438 204.140506 
L 157.753847 200.453703 
L 157.939176 200.453703 
L 158.012759 198.346959 
L 158.122556 198.346959 
L 158.159001 197.293586 
L 158.267884 197.293586 
L 158.322071 196.240214 
L 158.501489 196.240214 
L 158.51933 195.186842 
L 158.643706 195.186842 
L 158.749613 192.553412 
L 158.872364 192.553412 
L 158.942121 186.759865 
L 159.0116 186.759865 
L 159.098062 185.179807 
L 159.354904 185.179807 
L 159.354904 184.653121 
L 159.54088 184.653121 
L 159.54088 184.126434 
L 159.708245 184.126434 
L 159.774744 182.01969 
L 159.874019 182.01969 
L 159.874019 181.493004 
L 160.038232 181.493004 
L 160.070889 179.912946 
L 160.233268 179.912946 
L 160.265562 177.279515 
L 160.585265 177.279515 
L 160.585265 176.752829 
L 160.774311 176.752829 
L 160.789972 170.432596 
L 161.007772 170.432596 
L 161.100288 166.745794 
L 161.238149 166.745794 
L 161.253399 164.112363 
L 161.359783 164.112363 
L 161.465522 163.058991 
L 161.570623 163.058991 
L 161.570623 161.478933 
L 161.70483 161.478933 
L 161.70483 158.845503 
L 161.926237 158.845503 
L 161.940898 157.265444 
L 162.115875 157.265444 
L 162.130378 156.212072 
L 162.231559 156.212072 
L 162.231559 154.105328 
L 162.46065 154.105328 
L 162.489076 152.52527 
L 162.574077 152.52527 
L 162.574077 151.998584 
L 162.700806 151.998584 
L 162.770815 148.838467 
L 162.840544 148.838467 
L 162.951535 146.731723 
L 163.020547 146.731723 
L 163.048075 145.151665 
L 163.348054 145.151665 
L 163.348054 144.624978 
L 163.52292 144.624978 
L 163.576373 141.464862 
L 163.656248 141.464862 
L 163.656248 139.884804 
L 163.775378 139.884804 
L 163.801742 137.778059 
L 164.11503 137.778059 
L 164.205356 131.984513 
L 164.243924 131.984513 
L 164.346358 128.29771 
L 164.486229 128.29771 
L 164.536814 126.190966 
L 164.650098 126.190966 
L 164.650098 125.137593 
L 164.911599 125.137593 
L 164.985598 119.870733 
L 165.034758 119.870733 
L 165.120455 117.763988 
L 165.254276 117.763988 
L 165.35096 115.130558 
L 165.459092 115.130558 
L 165.459092 114.603872 
L 165.637836 114.603872 
L 165.720627 109.863697 
L 165.861646 109.863697 
L 165.966667 107.756953 
L 166.036331 107.756953 
L 166.105719 104.07015 
L 166.369174 104.07015 
L 166.369174 101.43672 
L 166.505065 101.43672 
L 166.505065 99.856662 
L 166.628709 99.856662 
L 166.718084 96.169859 
L 166.7626 96.169859 
L 166.840232 94.063115 
L 166.895472 94.063115 
L 166.994465 91.95637 
L 167.016388 91.95637 
L 167.06015 90.376312 
L 167.158215 90.376312 
L 167.223287 86.68951 
L 167.331204 86.68951 
L 167.395635 83.529393 
L 167.459829 83.529393 
L 167.545055 81.422649 
L 167.651004 81.422649 
L 167.724788 78.789218 
L 167.76681 78.789218 
L 167.840107 76.155788 
L 167.965045 76.155788 
L 168.047843 73.522358 
L 168.099393 73.522358 
L 168.191801 70.888927 
L 168.253135 70.888927 
L 168.273531 67.728811 
L 168.405532 67.728811 
L 168.466121 65.622066 
L 168.726264 65.622066 
L 168.795644 61.935264 
L 168.894283 61.935264 
L 168.904116 57.721775 
L 169.021685 57.721775 
L 169.060699 55.615031 
L 169.138466 55.615031 
L 169.225542 52.9816 
L 169.264103 52.9816 
L 169.369709 48.768112 
L 169.48419 48.768112 
L 169.48419 47.71474 
L 169.616809 47.71474 
L 169.626243 45.081309 
L 169.748427 45.081309 
L 169.78585 44.027937 
L 169.86976 44.027937 
L 169.86976 43.501251 
L 170.008719 43.501251 
L 170.008719 42.974565 
L 170.355872 42.974565 
L 170.373953 40.867821 
L 170.634045 40.867821 
L 170.713981 38.23439 
L 170.977818 38.23439 
L 170.977818 37.707704 
L 171.272086 37.707704 
L 171.366236 36.127646 
L 171.612043 36.127646 
L 171.612043 35.60096 
L 172.232135 35.60096 
L 172.232135 34.547588 
L 172.498143 34.547588 
L 172.554051 31.914157 
L 172.870132 31.914157 
L 172.870132 31.387471 
L 173.211329 31.387471 
L 173.272654 30.334099 
L 338.688 30.334099 
L 338.688 30.334099 
" style="fill:none;stroke:#ff7500;stroke-linecap:square;stroke-width:1.5;"/>
   </g>
   <g id="line2d_44">
    <defs>
     <path d="M 0 -6 
L -1.347084 -1.854102 
L -5.706339 -1.854102 
L -2.179628 0.708204 
L -3.526712 4.854102 
L -0 2.291796 
L 3.526712 4.854102 
L 2.179628 0.708204 
L 5.706339 -1.854102 
L 1.347084 -1.854102 
z
" id="m6e9002a18a" style="stroke:#ff7500;stroke-linejoin:bevel;stroke-width:1.5;"/>
    </defs>
    <g>
     <use style="fill-opacity:0;stroke:#ff7500;stroke-linejoin:bevel;stroke-width:1.5;" x="161.940898" xlink:href="#m6e9002a18a" y="157.265444"/>
     <use style="fill-opacity:0;stroke:#ff7500;stroke-linejoin:bevel;stroke-width:1.5;" x="173.272654" xlink:href="#m6e9002a18a" y="30.860785"/>
     <use style="fill-opacity:0;stroke:#ff7500;stroke-linejoin:bevel;stroke-width:1.5;" x="173.272654" xlink:href="#m6e9002a18a" y="30.334099"/>
     <use style="fill-opacity:0;stroke:#ff7500;stroke-linejoin:bevel;stroke-width:1.5;" x="173.272654" xlink:href="#m6e9002a18a" y="30.334099"/>
     <use style="fill-opacity:0;stroke:#ff7500;stroke-linejoin:bevel;stroke-width:1.5;" x="338.688" xlink:href="#m6e9002a18a" y="30.334099"/>
    </g>
   </g>
   <g id="line2d_45">
    <path style="fill:none;stroke:#ff7500;stroke-linecap:square;stroke-width:1.5;"/>
    <g/>
   </g>
   <g id="line2d_46">
    <path d="M 338.688 30.334099 
L 369.60768 293.571802 
" style="fill:none;stroke:#000080;stroke-linecap:square;stroke-width:1.5;"/>
    <g>
     <use style="fill-opacity:0;stroke:#000080;stroke-width:1.5;" x="338.688" xlink:href="#m4fdae674d2" y="30.334099"/>
     <use style="fill-opacity:0;stroke:#000080;stroke-width:1.5;" x="369.60768" xlink:href="#m4fdae674d2" y="293.571802"/>
    </g>
   </g>
   <g id="line2d_47">
    <path d="M 338.688 30.334099 
L 369.60768 207.616634 
" style="fill:none;stroke:#ff7500;stroke-linecap:square;stroke-width:1.5;"/>
    <g>
     <use style="fill-opacity:0;stroke:#ff7500;stroke-linejoin:bevel;stroke-width:1.5;" x="338.688" xlink:href="#m6e9002a18a" y="30.334099"/>
     <use style="fill-opacity:0;stroke:#ff7500;stroke-linejoin:bevel;stroke-width:1.5;" x="369.60768" xlink:href="#m6e9002a18a" y="207.616634"/>
    </g>
   </g>
   <g id="line2d_48">
    <path d="M 338.688 30.334099 
L 369.60768 121.661465 
" style="fill:none;stroke:#ff00ff;stroke-linecap:square;stroke-width:1.5;"/>
    <g>
     <use style="fill-opacity:0;stroke:#ff00ff;stroke-linejoin:miter;stroke-width:1.5;" x="338.688" xlink:href="#m3eb6ded4f0" y="30.334099"/>
     <use style="fill-opacity:0;stroke:#ff00ff;stroke-linejoin:miter;stroke-width:1.5;" x="369.60768" xlink:href="#m3eb6ded4f0" y="121.661465"/>
    </g>
   </g>
   <g id="line2d_49">
    <path d="M 338.688 298.944 
L 338.688 30.334099 
" style="fill:none;stroke:#000000;stroke-linecap:square;stroke-width:1.5;"/>
   </g>
   <g id="patch_3">
    <path d="M 57.6 298.944 
L 57.6 27.648 
" style="fill:none;stroke:#000000;stroke-linecap:square;stroke-linejoin:miter;stroke-width:0.8;"/>
   </g>
   <g id="patch_4">
    <path d="M 338.688 298.944 
L 338.688 27.648 
" style="fill:none;stroke:#000000;stroke-linecap:square;stroke-linejoin:miter;stroke-width:0.8;"/>
   </g>
   <g id="patch_5">
    <path d="M 57.6 298.944 
L 338.688 298.944 
" style="fill:none;stroke:#000000;stroke-linecap:square;stroke-linejoin:miter;stroke-width:0.8;"/>
   </g>
   <g id="patch_6">
    <path d="M 57.6 27.648 
L 338.688 27.648 
" style="fill:none;stroke:#000000;stroke-linecap:square;stroke-linejoin:miter;stroke-width:0.8;"/>
   </g>
   <g id="text_13">
    <!-- DE -->
    <g transform="translate(375.22944 298.262739)scale(0.17 -0.17)">
     <defs>
      <path d="M 1259 4147 
L 1259 519 
L 2022 519 
Q 2988 519 3436 956 
Q 3884 1394 3884 2338 
Q 3884 3275 3436 3711 
Q 2988 4147 2022 4147 
L 1259 4147 
z
M 628 4666 
L 1925 4666 
Q 3281 4666 3915 4102 
Q 4550 3538 4550 2338 
Q 4550 1131 3912 565 
Q 3275 0 1925 0 
L 628 0 
L 628 4666 
z
" id="DejaVuSans-44" transform="scale(0.015625)"/>
      <path d="M 628 4666 
L 3578 4666 
L 3578 4134 
L 1259 4134 
L 1259 2753 
L 3481 2753 
L 3481 2222 
L 1259 2222 
L 1259 531 
L 3634 531 
L 3634 0 
L 628 0 
L 628 4666 
z
" id="DejaVuSans-45" transform="scale(0.015625)"/>
     </defs>
     <use xlink:href="#DejaVuSans-44"/>
     <use x="77.001953" xlink:href="#DejaVuSans-45"/>
    </g>
   </g>
   <g id="text_14">
    <!-- JADE -->
    <g transform="translate(375.22944 212.307571)scale(0.17 -0.17)">
     <defs>
      <path d="M 628 4666 
L 1259 4666 
L 1259 325 
Q 1259 -519 939 -900 
Q 619 -1281 -91 -1281 
L -331 -1281 
L -331 -750 
L -134 -750 
Q 284 -750 456 -515 
Q 628 -281 628 325 
L 628 4666 
z
" id="DejaVuSans-4a" transform="scale(0.015625)"/>
      <path d="M 2188 4044 
L 1331 1722 
L 3047 1722 
L 2188 4044 
z
M 1831 4666 
L 2547 4666 
L 4325 0 
L 3669 0 
L 3244 1197 
L 1141 1197 
L 716 0 
L 50 0 
L 1831 4666 
z
" id="DejaVuSans-41" transform="scale(0.015625)"/>
     </defs>
     <use xlink:href="#DejaVuSans-4a"/>
     <use x="27.742188" xlink:href="#DejaVuSans-41"/>
     <use x="96.150391" xlink:href="#DejaVuSans-44"/>
     <use x="173.152344" xlink:href="#DejaVuSans-45"/>
    </g>
   </g>
   <g id="text_15">
    <!-- DEAE -->
    <g transform="translate(375.22944 126.352403)scale(0.17 -0.17)">
     <use xlink:href="#DejaVuSans-44"/>
     <use x="77.001953" xlink:href="#DejaVuSans-45"/>
     <use x="140.185547" xlink:href="#DejaVuSans-41"/>
     <use x="208.59375" xlink:href="#DejaVuSans-45"/>
    </g>
   </g>
   <g id="text_16">
    <!-- best 2009 -->
    <g transform="translate(375.22944 40.397235)scale(0.17 -0.17)">
     <defs>
      <path d="M 3116 1747 
Q 3116 2381 2855 2742 
Q 2594 3103 2138 3103 
Q 1681 3103 1420 2742 
Q 1159 2381 1159 1747 
Q 1159 1113 1420 752 
Q 1681 391 2138 391 
Q 2594 391 2855 752 
Q 3116 1113 3116 1747 
z
M 1159 2969 
Q 1341 3281 1617 3432 
Q 1894 3584 2278 3584 
Q 2916 3584 3314 3078 
Q 3713 2572 3713 1747 
Q 3713 922 3314 415 
Q 2916 -91 2278 -91 
Q 1894 -91 1617 61 
Q 1341 213 1159 525 
L 1159 0 
L 581 0 
L 581 4863 
L 1159 4863 
L 1159 2969 
z
" id="DejaVuSans-62" transform="scale(0.015625)"/>
      <path d="M 703 97 
L 703 672 
Q 941 559 1184 500 
Q 1428 441 1663 441 
Q 2288 441 2617 861 
Q 2947 1281 2994 2138 
Q 2813 1869 2534 1725 
Q 2256 1581 1919 1581 
Q 1219 1581 811 2004 
Q 403 2428 403 3163 
Q 403 3881 828 4315 
Q 1253 4750 1959 4750 
Q 2769 4750 3195 4129 
Q 3622 3509 3622 2328 
Q 3622 1225 3098 567 
Q 2575 -91 1691 -91 
Q 1453 -91 1209 -44 
Q 966 3 703 97 
z
M 1959 2075 
Q 2384 2075 2632 2365 
Q 2881 2656 2881 3163 
Q 2881 3666 2632 3958 
Q 2384 4250 1959 4250 
Q 1534 4250 1286 3958 
Q 1038 3666 1038 3163 
Q 1038 2656 1286 2365 
Q 1534 2075 1959 2075 
z
" id="DejaVuSans-39" transform="scale(0.015625)"/>
     </defs>
     <use xlink:href="#DejaVuSans-62"/>
     <use x="63.476562" xlink:href="#DejaVuSans-65"/>
     <use x="125" xlink:href="#DejaVuSans-73"/>
     <use x="177.099609" xlink:href="#DejaVuSans-74"/>
     <use x="216.308594" xlink:href="#DejaVuSans-20"/>
     <use x="248.095703" xlink:href="#DejaVuSans-32"/>
     <use x="311.71875" xlink:href="#DejaVuSans-30"/>
     <use x="375.341797" xlink:href="#DejaVuSans-30"/>
     <use x="438.964844" xlink:href="#DejaVuSans-39"/>
    </g>
   </g>
   <g id="text_17">
    <!-- bbob f11, 3-D -->
    <g transform="translate(60.41088 38.111366)scale(0.102 -0.102)">
     <defs>
      <path d="M 2597 2516 
Q 3050 2419 3304 2112 
Q 3559 1806 3559 1356 
Q 3559 666 3084 287 
Q 2609 -91 1734 -91 
Q 1441 -91 1130 -33 
Q 819 25 488 141 
L 488 750 
Q 750 597 1062 519 
Q 1375 441 1716 441 
Q 2309 441 2620 675 
Q 2931 909 2931 1356 
Q 2931 1769 2642 2001 
Q 2353 2234 1838 2234 
L 1294 2234 
L 1294 2753 
L 1863 2753 
Q 2328 2753 2575 2939 
Q 2822 3125 2822 3475 
Q 2822 3834 2567 4026 
Q 2313 4219 1838 4219 
Q 1578 4219 1281 4162 
Q 984 4106 628 3988 
L 628 4550 
Q 988 4650 1302 4700 
Q 1616 4750 1894 4750 
Q 2613 4750 3031 4423 
Q 3450 4097 3450 3541 
Q 3450 3153 3228 2886 
Q 3006 2619 2597 2516 
z
" id="DejaVuSans-33" transform="scale(0.015625)"/>
     </defs>
     <use xlink:href="#DejaVuSans-62"/>
     <use x="63.476562" xlink:href="#DejaVuSans-62"/>
     <use x="126.953125" xlink:href="#DejaVuSans-6f"/>
     <use x="188.134766" xlink:href="#DejaVuSans-62"/>
     <use x="251.611328" xlink:href="#DejaVuSans-20"/>
     <use x="283.398438" xlink:href="#DejaVuSans-66"/>
     <use x="318.603516" xlink:href="#DejaVuSans-31"/>
     <use x="382.226562" xlink:href="#DejaVuSans-31"/>
     <use x="445.849609" xlink:href="#DejaVuSans-2c"/>
     <use x="477.636719" xlink:href="#DejaVuSans-20"/>
     <use x="509.423828" xlink:href="#DejaVuSans-33"/>
     <use x="573.046875" xlink:href="#DejaVuSans-2d"/>
     <use x="609.130859" xlink:href="#DejaVuSans-44"/>
    </g>
    <!-- 51 targets: 100..1e-08 -->
    <g transform="translate(60.41088 49.533135)scale(0.102 -0.102)">
     <defs>
      <path d="M 691 4666 
L 3169 4666 
L 3169 4134 
L 1269 4134 
L 1269 2991 
Q 1406 3038 1543 3061 
Q 1681 3084 1819 3084 
Q 2600 3084 3056 2656 
Q 3513 2228 3513 1497 
Q 3513 744 3044 326 
Q 2575 -91 1722 -91 
Q 1428 -91 1123 -41 
Q 819 9 494 109 
L 494 744 
Q 775 591 1075 516 
Q 1375 441 1709 441 
Q 2250 441 2565 725 
Q 2881 1009 2881 1497 
Q 2881 1984 2565 2268 
Q 2250 2553 1709 2553 
Q 1456 2553 1204 2497 
Q 953 2441 691 2322 
L 691 4666 
z
" id="DejaVuSans-35" transform="scale(0.015625)"/>
      <path d="M 750 794 
L 1409 794 
L 1409 0 
L 750 0 
L 750 794 
z
M 750 3309 
L 1409 3309 
L 1409 2516 
L 750 2516 
L 750 3309 
z
" id="DejaVuSans-3a" transform="scale(0.015625)"/>
     </defs>
     <use xlink:href="#DejaVuSans-35"/>
     <use x="63.623047" xlink:href="#DejaVuSans-31"/>
     <use x="127.246094" xlink:href="#DejaVuSans-20"/>
     <use x="159.033203" xlink:href="#DejaVuSans-74"/>
     <use x="198.242188" xlink:href="#DejaVuSans-61"/>
     <use x="259.521484" xlink:href="#DejaVuSans-72"/>
     <use x="298.884766" xlink:href="#DejaVuSans-67"/>
     <use x="362.361328" xlink:href="#DejaVuSans-65"/>
     <use x="423.884766" xlink:href="#DejaVuSans-74"/>
     <use x="463.09375" xlink:href="#DejaVuSans-73"/>
     <use x="515.193359" xlink:href="#DejaVuSans-3a"/>
     <use x="548.884766" xlink:href="#DejaVuSans-20"/>
     <use x="580.671875" xlink:href="#DejaVuSans-31"/>
     <use x="644.294922" xlink:href="#DejaVuSans-30"/>
     <use x="707.917969" xlink:href="#DejaVuSans-30"/>
     <use x="771.541016" xlink:href="#DejaVuSans-2e"/>
     <use x="803.328125" xlink:href="#DejaVuSans-2e"/>
     <use x="835.115234" xlink:href="#DejaVuSans-31"/>
     <use x="898.738281" xlink:href="#DejaVuSans-65"/>
     <use x="960.261719" xlink:href="#DejaVuSans-2d"/>
     <use x="996.345703" xlink:href="#DejaVuSans-30"/>
     <use x="1059.96875" xlink:href="#DejaVuSans-38"/>
    </g>
    <!-- 15 instances -->
    <g transform="translate(60.41088 60.954904)scale(0.102 -0.102)">
     <use xlink:href="#DejaVuSans-31"/>
     <use x="63.623047" xlink:href="#DejaVuSans-35"/>
     <use x="127.246094" xlink:href="#DejaVuSans-20"/>
     <use x="159.033203" xlink:href="#DejaVuSans-69"/>
     <use x="186.816406" xlink:href="#DejaVuSans-6e"/>
     <use x="250.195312" xlink:href="#DejaVuSans-73"/>
     <use x="302.294922" xlink:href="#DejaVuSans-74"/>
     <use x="341.503906" xlink:href="#DejaVuSans-61"/>
     <use x="402.783203" xlink:href="#DejaVuSans-6e"/>
     <use x="466.162109" xlink:href="#DejaVuSans-63"/>
     <use x="521.142578" xlink:href="#DejaVuSans-65"/>
     <use x="582.666016" xlink:href="#DejaVuSans-73"/>
    </g>
   </g>
   <g id="text_18">
    <!-- v2.4 -->
    <g style="fill:#808080;" transform="translate(187.233062 294.151352)scale(0.1 -0.1)">
     <use xlink:href="#DejaVuSans-76"/>
     <use x="59.179688" xlink:href="#DejaVuSans-32"/>
     <use x="122.802734" xlink:href="#DejaVuSans-2e"/>
     <use x="154.589844" xlink:href="#DejaVuSans-34"/>
    </g>
   </g>
   <g id="text_19">
    <!-- 11 Discus -->
    <g transform="translate(149.508062 21.648)scale(0.2 -0.2)">
     <use xlink:href="#DejaVuSans-31"/>
     <use x="63.623047" xlink:href="#DejaVuSans-31"/>
     <use x="127.246094" xlink:href="#DejaVuSans-20"/>
     <use x="159.033203" xlink:href="#DejaVuSans-44"/>
     <use x="236.035156" xlink:href="#DejaVuSans-69"/>
     <use x="263.818359" xlink:href="#DejaVuSans-73"/>
     <use x="315.917969" xlink:href="#DejaVuSans-63"/>
     <use x="370.898438" xlink:href="#DejaVuSans-75"/>
     <use x="434.277344" xlink:href="#DejaVuSans-73"/>
    </g>
   </g>
  </g>
 </g>
 <defs>
  <clipPath id="pa09b8822c8">
   <rect height="271.296" width="281.088" x="57.6" y="27.648"/>
  </clipPath>
 </defs>
</svg>
