<?xml version="1.0" encoding="utf-8" standalone="no"?>
<!DOCTYPE svg PUBLIC "-//W3C//DTD SVG 1.1//EN"
  "http://www.w3.org/Graphics/SVG/1.1/DTD/svg11.dtd">
<svg height="345.6pt" version="1.1" viewBox="0 0 460.8 345.6" width="460.8pt" xmlns="http://www.w3.org/2000/svg" xmlns:xlink="http://www.w3.org/1999/xlink">
 <metadata>
  <rdf:RDF xmlns:cc="http://creativecommons.org/ns#" xmlns:dc="http://purl.org/dc/elements/1.1/" xmlns:rdf="http://www.w3.org/1999/02/22-rdf-syntax-ns#">
   <cc:Work>
    <dc:type rdf:resource="http://purl.org/dc/dcmitype/StillImage"/>
    <dc:date>2021-04-20T12:28:48.634935</dc:date>
    <dc:format>image/svg+xml</dc:format>
    <dc:creator>
     <cc:Agent>
      <dc:title>Matplotlib v3.4.1, https://matplotlib.org/</dc:title>
     </cc:Agent>
    </dc:creator>
   </cc:Work>
  </rdf:RDF>
 </metadata>
 <defs>
  <style type="text/css">*{stroke-linecap:butt;stroke-linejoin:round;}</style>
 </defs>
 <g id="figure_1">
  <g id="patch_1">
   <path d="M 0 345.6 
L 460.8 345.6 
L 460.8 0 
L 0 0 
z
" style="fill:#ffffff;"/>
  </g>
  <g id="axes_1">
   <g id="patch_2">
    <path d="M 57.6 298.944 
L 338.688 298.944 
L 338.688 27.648 
L 57.6 27.648 
z
" style="fill:#ffffff;"/>
   </g>
   <g id="line2d_1">
    <path d="M 17.444571 298.944 
L 17.444571 293.677139 
L 67.850577 293.677139 
L 67.850577 288.410278 
L 76.759008 288.410278 
L 76.759008 283.143418 
L 83.037197 283.143418 
L 83.037197 277.876557 
L 93.197415 277.876557 
L 93.197415 272.609696 
L 97.403108 272.609696 
L 97.403108 267.342835 
L 105.398279 267.342835 
L 105.398279 262.075974 
L 129.88095 262.075974 
L 129.88095 256.809114 
L 134.279041 256.809114 
L 134.279041 251.542253 
L 156.040206 251.542253 
L 156.040206 246.275392 
L 156.107908 246.275392 
L 156.107908 241.008531 
L 169.443254 241.008531 
L 169.443254 235.74167 
L 169.724059 235.74167 
L 169.724059 230.47481 
L 169.830653 230.47481 
L 169.830653 225.207949 
L 169.878129 225.207949 
L 169.878129 219.941088 
L 170.154817 219.941088 
L 170.154817 214.674227 
L 170.2479 214.674227 
L 170.2479 209.407366 
L 170.432588 209.407366 
L 170.432588 204.140506 
L 170.559106 204.140506 
L 170.559106 198.873645 
L 170.671394 198.873645 
L 170.671394 193.606784 
L 170.872762 193.606784 
L 170.872762 188.339923 
L 170.951613 188.339923 
L 170.951613 183.073062 
L 170.990905 183.073062 
L 170.990905 177.806202 
L 171.196397 177.806202 
L 171.196397 172.539341 
L 171.309807 172.539341 
L 171.309807 167.27248 
L 171.335479 167.27248 
L 171.335479 162.005619 
L 171.534438 162.005619 
L 171.534438 156.738758 
L 171.559782 156.738758 
L 171.559782 151.471897 
L 171.577501 151.471897 
L 171.577501 146.205037 
L 171.620458 146.205037 
L 171.620458 140.938176 
L 171.655755 140.938176 
L 171.655755 135.671315 
L 171.890917 135.671315 
L 171.890917 130.404454 
L 171.920711 130.404454 
L 171.920711 125.137593 
L 172.066461 125.137593 
L 172.066461 119.870733 
L 174.789496 119.870733 
L 174.789496 114.603872 
L 174.808425 114.603872 
L 174.808425 109.337011 
L 175.006993 109.337011 
L 175.006993 104.07015 
L 175.058874 104.07015 
L 175.058874 98.803289 
L 175.081653 98.803289 
L 175.081653 93.536429 
L 175.174531 93.536429 
L 175.174531 88.269568 
L 178.534298 88.269568 
L 178.534298 83.002707 
L 178.547874 83.002707 
L 178.547874 77.735846 
L 178.578383 77.735846 
L 178.578383 72.468985 
L 178.597002 72.468985 
L 178.597002 67.202125 
L 178.624047 67.202125 
L 178.624047 61.935264 
L 178.667907 61.935264 
L 178.667907 56.668403 
L 178.679696 56.668403 
L 178.679696 51.401542 
L 183.266275 51.401542 
L 183.266275 46.134681 
L 183.310225 46.134681 
L 183.310225 40.867821 
L 183.341183 40.867821 
L 183.341183 35.60096 
L 183.572899 35.60096 
L 183.572899 30.334099 
L 338.688 30.334099 
" style="fill:none;stroke:#f5deb3;stroke-linecap:square;stroke-width:4;"/>
   </g>
   <g id="line2d_2">
    <defs>
     <path d="M 0 7.778175 
L 7.778175 0 
L 0 -7.778175 
L -7.778175 0 
z
" id="m4b3d913fee" style="stroke:#f5deb3;stroke-linejoin:miter;stroke-width:1.5;"/>
    </defs>
    <g>
     <use style="fill:#f5deb3;stroke:#f5deb3;stroke-linejoin:miter;stroke-width:1.5;" x="76.759008" xlink:href="#m4b3d913fee" y="283.143418"/>
     <use style="fill:#f5deb3;stroke:#f5deb3;stroke-linejoin:miter;stroke-width:1.5;" x="169.724059" xlink:href="#m4b3d913fee" y="230.47481"/>
     <use style="fill:#f5deb3;stroke:#f5deb3;stroke-linejoin:miter;stroke-width:1.5;" x="174.789496" xlink:href="#m4b3d913fee" y="119.870733"/>
     <use style="fill:#f5deb3;stroke:#f5deb3;stroke-linejoin:miter;stroke-width:1.5;" x="183.572899" xlink:href="#m4b3d913fee" y="35.60096"/>
     <use style="fill:#f5deb3;stroke:#f5deb3;stroke-linejoin:miter;stroke-width:1.5;" x="183.572899" xlink:href="#m4b3d913fee" y="30.334099"/>
     <use style="fill:#f5deb3;stroke:#f5deb3;stroke-linejoin:miter;stroke-width:1.5;" x="338.688" xlink:href="#m4b3d913fee" y="30.334099"/>
    </g>
   </g>
   <g id="line2d_3">
    <path style="fill:none;stroke:#f5deb3;stroke-linecap:square;stroke-width:4;"/>
    <g/>
   </g>
   <g id="line2d_4">
    <path d="M 338.688 30.334099 
L 369.60768 35.706297 
" style="fill:none;stroke:#f5deb3;stroke-linecap:square;stroke-width:4;"/>
    <g>
     <use style="fill:#f5deb3;stroke:#f5deb3;stroke-linejoin:miter;stroke-width:1.5;" x="338.688" xlink:href="#m4b3d913fee" y="30.334099"/>
     <use style="fill:#f5deb3;stroke:#f5deb3;stroke-linejoin:miter;stroke-width:1.5;" x="369.60768" xlink:href="#m4b3d913fee" y="35.706297"/>
    </g>
   </g>
   <g id="matplotlib.axis_1">
    <g id="xtick_1">
     <g id="line2d_5">
      <path clip-path="url(#p6197a96ba6)" d="M 57.6 298.944 
L 57.6 27.648 
" style="fill:none;stroke:#b0b0b0;stroke-linecap:square;stroke-width:0.8;"/>
     </g>
     <g id="line2d_6">
      <defs>
       <path d="M 0 0 
L 0 3.5 
" id="mcc196cc350" style="stroke:#000000;stroke-width:0.8;"/>
      </defs>
      <g>
       <use style="stroke:#000000;stroke-width:0.8;" x="57.6" xlink:href="#mcc196cc350" y="298.944"/>
      </g>
     </g>
     <g id="text_1">
      <!-- 0 -->
      <g transform="translate(51.2375 321.140875)scale(0.2 -0.2)">
       <defs>
        <path d="M 2034 4250 
Q 1547 4250 1301 3770 
Q 1056 3291 1056 2328 
Q 1056 1369 1301 889 
Q 1547 409 2034 409 
Q 2525 409 2770 889 
Q 3016 1369 3016 2328 
Q 3016 3291 2770 3770 
Q 2525 4250 2034 4250 
z
M 2034 4750 
Q 2819 4750 3233 4129 
Q 3647 3509 3647 2328 
Q 3647 1150 3233 529 
Q 2819 -91 2034 -91 
Q 1250 -91 836 529 
Q 422 1150 422 2328 
Q 422 3509 836 4129 
Q 1250 4750 2034 4750 
z
" id="DejaVuSans-30" transform="scale(0.015625)"/>
       </defs>
       <use xlink:href="#DejaVuSans-30"/>
      </g>
     </g>
    </g>
    <g id="xtick_2">
     <g id="line2d_7">
      <path clip-path="url(#p6197a96ba6)" d="M 137.910857 298.944 
L 137.910857 27.648 
" style="fill:none;stroke:#b0b0b0;stroke-linecap:square;stroke-width:0.8;"/>
     </g>
     <g id="line2d_8">
      <g>
       <use style="stroke:#000000;stroke-width:0.8;" x="137.910857" xlink:href="#mcc196cc350" y="298.944"/>
      </g>
     </g>
     <g id="text_2">
      <!-- 2 -->
      <g transform="translate(131.548357 321.140875)scale(0.2 -0.2)">
       <defs>
        <path d="M 1228 531 
L 3431 531 
L 3431 0 
L 469 0 
L 469 531 
Q 828 903 1448 1529 
Q 2069 2156 2228 2338 
Q 2531 2678 2651 2914 
Q 2772 3150 2772 3378 
Q 2772 3750 2511 3984 
Q 2250 4219 1831 4219 
Q 1534 4219 1204 4116 
Q 875 4013 500 3803 
L 500 4441 
Q 881 4594 1212 4672 
Q 1544 4750 1819 4750 
Q 2544 4750 2975 4387 
Q 3406 4025 3406 3419 
Q 3406 3131 3298 2873 
Q 3191 2616 2906 2266 
Q 2828 2175 2409 1742 
Q 1991 1309 1228 531 
z
" id="DejaVuSans-32" transform="scale(0.015625)"/>
       </defs>
       <use xlink:href="#DejaVuSans-32"/>
      </g>
     </g>
    </g>
    <g id="xtick_3">
     <g id="line2d_9">
      <path clip-path="url(#p6197a96ba6)" d="M 218.221714 298.944 
L 218.221714 27.648 
" style="fill:none;stroke:#b0b0b0;stroke-linecap:square;stroke-width:0.8;"/>
     </g>
     <g id="line2d_10">
      <g>
       <use style="stroke:#000000;stroke-width:0.8;" x="218.221714" xlink:href="#mcc196cc350" y="298.944"/>
      </g>
     </g>
     <g id="text_3">
      <!-- 4 -->
      <g transform="translate(211.859214 321.140875)scale(0.2 -0.2)">
       <defs>
        <path d="M 2419 4116 
L 825 1625 
L 2419 1625 
L 2419 4116 
z
M 2253 4666 
L 3047 4666 
L 3047 1625 
L 3713 1625 
L 3713 1100 
L 3047 1100 
L 3047 0 
L 2419 0 
L 2419 1100 
L 313 1100 
L 313 1709 
L 2253 4666 
z
" id="DejaVuSans-34" transform="scale(0.015625)"/>
       </defs>
       <use xlink:href="#DejaVuSans-34"/>
      </g>
     </g>
    </g>
    <g id="xtick_4">
     <g id="line2d_11">
      <path clip-path="url(#p6197a96ba6)" d="M 298.532571 298.944 
L 298.532571 27.648 
" style="fill:none;stroke:#b0b0b0;stroke-linecap:square;stroke-width:0.8;"/>
     </g>
     <g id="line2d_12">
      <g>
       <use style="stroke:#000000;stroke-width:0.8;" x="298.532571" xlink:href="#mcc196cc350" y="298.944"/>
      </g>
     </g>
     <g id="text_4">
      <!-- 6 -->
      <g transform="translate(292.170071 321.140875)scale(0.2 -0.2)">
       <defs>
        <path d="M 2113 2584 
Q 1688 2584 1439 2293 
Q 1191 2003 1191 1497 
Q 1191 994 1439 701 
Q 1688 409 2113 409 
Q 2538 409 2786 701 
Q 3034 994 3034 1497 
Q 3034 2003 2786 2293 
Q 2538 2584 2113 2584 
z
M 3366 4563 
L 3366 3988 
Q 3128 4100 2886 4159 
Q 2644 4219 2406 4219 
Q 1781 4219 1451 3797 
Q 1122 3375 1075 2522 
Q 1259 2794 1537 2939 
Q 1816 3084 2150 3084 
Q 2853 3084 3261 2657 
Q 3669 2231 3669 1497 
Q 3669 778 3244 343 
Q 2819 -91 2113 -91 
Q 1303 -91 875 529 
Q 447 1150 447 2328 
Q 447 3434 972 4092 
Q 1497 4750 2381 4750 
Q 2619 4750 2861 4703 
Q 3103 4656 3366 4563 
z
" id="DejaVuSans-36" transform="scale(0.015625)"/>
       </defs>
       <use xlink:href="#DejaVuSans-36"/>
      </g>
     </g>
    </g>
    <g id="xtick_5">
     <g id="line2d_13">
      <path clip-path="url(#p6197a96ba6)" d="M 97.755429 298.944 
L 97.755429 27.648 
" style="fill:none;stroke:#b0b0b0;stroke-linecap:square;stroke-width:0.8;"/>
     </g>
     <g id="line2d_14">
      <defs>
       <path d="M 0 0 
L 0 2 
" id="m5c718b8a86" style="stroke:#000000;stroke-width:0.6;"/>
      </defs>
      <g>
       <use style="stroke:#000000;stroke-width:0.6;" x="97.755429" xlink:href="#m5c718b8a86" y="298.944"/>
      </g>
     </g>
    </g>
    <g id="xtick_6">
     <g id="line2d_15">
      <path clip-path="url(#p6197a96ba6)" d="M 178.066286 298.944 
L 178.066286 27.648 
" style="fill:none;stroke:#b0b0b0;stroke-linecap:square;stroke-width:0.8;"/>
     </g>
     <g id="line2d_16">
      <g>
       <use style="stroke:#000000;stroke-width:0.6;" x="178.066286" xlink:href="#m5c718b8a86" y="298.944"/>
      </g>
     </g>
    </g>
    <g id="xtick_7">
     <g id="line2d_17">
      <path clip-path="url(#p6197a96ba6)" d="M 258.377143 298.944 
L 258.377143 27.648 
" style="fill:none;stroke:#b0b0b0;stroke-linecap:square;stroke-width:0.8;"/>
     </g>
     <g id="line2d_18">
      <g>
       <use style="stroke:#000000;stroke-width:0.6;" x="258.377143" xlink:href="#m5c718b8a86" y="298.944"/>
      </g>
     </g>
    </g>
    <g id="xtick_8">
     <g id="line2d_19">
      <path clip-path="url(#p6197a96ba6)" d="M 338.688 298.944 
L 338.688 27.648 
" style="fill:none;stroke:#b0b0b0;stroke-linecap:square;stroke-width:0.8;"/>
     </g>
     <g id="line2d_20">
      <g>
       <use style="stroke:#000000;stroke-width:0.6;" x="338.688" xlink:href="#m5c718b8a86" y="298.944"/>
      </g>
     </g>
    </g>
    <g id="text_5">
     <!-- log10(# f-evals / dimension) -->
     <g transform="translate(77.764078 342.217594)scale(0.17 -0.17)">
      <defs>
       <path d="M 603 4863 
L 1178 4863 
L 1178 0 
L 603 0 
L 603 4863 
z
" id="DejaVuSans-6c" transform="scale(0.015625)"/>
       <path d="M 1959 3097 
Q 1497 3097 1228 2736 
Q 959 2375 959 1747 
Q 959 1119 1226 758 
Q 1494 397 1959 397 
Q 2419 397 2687 759 
Q 2956 1122 2956 1747 
Q 2956 2369 2687 2733 
Q 2419 3097 1959 3097 
z
M 1959 3584 
Q 2709 3584 3137 3096 
Q 3566 2609 3566 1747 
Q 3566 888 3137 398 
Q 2709 -91 1959 -91 
Q 1206 -91 779 398 
Q 353 888 353 1747 
Q 353 2609 779 3096 
Q 1206 3584 1959 3584 
z
" id="DejaVuSans-6f" transform="scale(0.015625)"/>
       <path d="M 2906 1791 
Q 2906 2416 2648 2759 
Q 2391 3103 1925 3103 
Q 1463 3103 1205 2759 
Q 947 2416 947 1791 
Q 947 1169 1205 825 
Q 1463 481 1925 481 
Q 2391 481 2648 825 
Q 2906 1169 2906 1791 
z
M 3481 434 
Q 3481 -459 3084 -895 
Q 2688 -1331 1869 -1331 
Q 1566 -1331 1297 -1286 
Q 1028 -1241 775 -1147 
L 775 -588 
Q 1028 -725 1275 -790 
Q 1522 -856 1778 -856 
Q 2344 -856 2625 -561 
Q 2906 -266 2906 331 
L 2906 616 
Q 2728 306 2450 153 
Q 2172 0 1784 0 
Q 1141 0 747 490 
Q 353 981 353 1791 
Q 353 2603 747 3093 
Q 1141 3584 1784 3584 
Q 2172 3584 2450 3431 
Q 2728 3278 2906 2969 
L 2906 3500 
L 3481 3500 
L 3481 434 
z
" id="DejaVuSans-67" transform="scale(0.015625)"/>
       <path d="M 794 531 
L 1825 531 
L 1825 4091 
L 703 3866 
L 703 4441 
L 1819 4666 
L 2450 4666 
L 2450 531 
L 3481 531 
L 3481 0 
L 794 0 
L 794 531 
z
" id="DejaVuSans-31" transform="scale(0.015625)"/>
       <path d="M 1984 4856 
Q 1566 4138 1362 3434 
Q 1159 2731 1159 2009 
Q 1159 1288 1364 580 
Q 1569 -128 1984 -844 
L 1484 -844 
Q 1016 -109 783 600 
Q 550 1309 550 2009 
Q 550 2706 781 3412 
Q 1013 4119 1484 4856 
L 1984 4856 
z
" id="DejaVuSans-28" transform="scale(0.015625)"/>
       <path d="M 3272 2816 
L 2363 2816 
L 2100 1772 
L 3016 1772 
L 3272 2816 
z
M 2803 4594 
L 2478 3297 
L 3391 3297 
L 3719 4594 
L 4219 4594 
L 3897 3297 
L 4872 3297 
L 4872 2816 
L 3775 2816 
L 3519 1772 
L 4513 1772 
L 4513 1294 
L 3397 1294 
L 3072 0 
L 2572 0 
L 2894 1294 
L 1978 1294 
L 1656 0 
L 1153 0 
L 1478 1294 
L 494 1294 
L 494 1772 
L 1594 1772 
L 1856 2816 
L 850 2816 
L 850 3297 
L 1978 3297 
L 2297 4594 
L 2803 4594 
z
" id="DejaVuSans-23" transform="scale(0.015625)"/>
       <path id="DejaVuSans-20" transform="scale(0.015625)"/>
       <path d="M 2375 4863 
L 2375 4384 
L 1825 4384 
Q 1516 4384 1395 4259 
Q 1275 4134 1275 3809 
L 1275 3500 
L 2222 3500 
L 2222 3053 
L 1275 3053 
L 1275 0 
L 697 0 
L 697 3053 
L 147 3053 
L 147 3500 
L 697 3500 
L 697 3744 
Q 697 4328 969 4595 
Q 1241 4863 1831 4863 
L 2375 4863 
z
" id="DejaVuSans-66" transform="scale(0.015625)"/>
       <path d="M 313 2009 
L 1997 2009 
L 1997 1497 
L 313 1497 
L 313 2009 
z
" id="DejaVuSans-2d" transform="scale(0.015625)"/>
       <path d="M 3597 1894 
L 3597 1613 
L 953 1613 
Q 991 1019 1311 708 
Q 1631 397 2203 397 
Q 2534 397 2845 478 
Q 3156 559 3463 722 
L 3463 178 
Q 3153 47 2828 -22 
Q 2503 -91 2169 -91 
Q 1331 -91 842 396 
Q 353 884 353 1716 
Q 353 2575 817 3079 
Q 1281 3584 2069 3584 
Q 2775 3584 3186 3129 
Q 3597 2675 3597 1894 
z
M 3022 2063 
Q 3016 2534 2758 2815 
Q 2500 3097 2075 3097 
Q 1594 3097 1305 2825 
Q 1016 2553 972 2059 
L 3022 2063 
z
" id="DejaVuSans-65" transform="scale(0.015625)"/>
       <path d="M 191 3500 
L 800 3500 
L 1894 563 
L 2988 3500 
L 3597 3500 
L 2284 0 
L 1503 0 
L 191 3500 
z
" id="DejaVuSans-76" transform="scale(0.015625)"/>
       <path d="M 2194 1759 
Q 1497 1759 1228 1600 
Q 959 1441 959 1056 
Q 959 750 1161 570 
Q 1363 391 1709 391 
Q 2188 391 2477 730 
Q 2766 1069 2766 1631 
L 2766 1759 
L 2194 1759 
z
M 3341 1997 
L 3341 0 
L 2766 0 
L 2766 531 
Q 2569 213 2275 61 
Q 1981 -91 1556 -91 
Q 1019 -91 701 211 
Q 384 513 384 1019 
Q 384 1609 779 1909 
Q 1175 2209 1959 2209 
L 2766 2209 
L 2766 2266 
Q 2766 2663 2505 2880 
Q 2244 3097 1772 3097 
Q 1472 3097 1187 3025 
Q 903 2953 641 2809 
L 641 3341 
Q 956 3463 1253 3523 
Q 1550 3584 1831 3584 
Q 2591 3584 2966 3190 
Q 3341 2797 3341 1997 
z
" id="DejaVuSans-61" transform="scale(0.015625)"/>
       <path d="M 2834 3397 
L 2834 2853 
Q 2591 2978 2328 3040 
Q 2066 3103 1784 3103 
Q 1356 3103 1142 2972 
Q 928 2841 928 2578 
Q 928 2378 1081 2264 
Q 1234 2150 1697 2047 
L 1894 2003 
Q 2506 1872 2764 1633 
Q 3022 1394 3022 966 
Q 3022 478 2636 193 
Q 2250 -91 1575 -91 
Q 1294 -91 989 -36 
Q 684 19 347 128 
L 347 722 
Q 666 556 975 473 
Q 1284 391 1588 391 
Q 1994 391 2212 530 
Q 2431 669 2431 922 
Q 2431 1156 2273 1281 
Q 2116 1406 1581 1522 
L 1381 1569 
Q 847 1681 609 1914 
Q 372 2147 372 2553 
Q 372 3047 722 3315 
Q 1072 3584 1716 3584 
Q 2034 3584 2315 3537 
Q 2597 3491 2834 3397 
z
" id="DejaVuSans-73" transform="scale(0.015625)"/>
       <path d="M 1625 4666 
L 2156 4666 
L 531 -594 
L 0 -594 
L 1625 4666 
z
" id="DejaVuSans-2f" transform="scale(0.015625)"/>
       <path d="M 2906 2969 
L 2906 4863 
L 3481 4863 
L 3481 0 
L 2906 0 
L 2906 525 
Q 2725 213 2448 61 
Q 2172 -91 1784 -91 
Q 1150 -91 751 415 
Q 353 922 353 1747 
Q 353 2572 751 3078 
Q 1150 3584 1784 3584 
Q 2172 3584 2448 3432 
Q 2725 3281 2906 2969 
z
M 947 1747 
Q 947 1113 1208 752 
Q 1469 391 1925 391 
Q 2381 391 2643 752 
Q 2906 1113 2906 1747 
Q 2906 2381 2643 2742 
Q 2381 3103 1925 3103 
Q 1469 3103 1208 2742 
Q 947 2381 947 1747 
z
" id="DejaVuSans-64" transform="scale(0.015625)"/>
       <path d="M 603 3500 
L 1178 3500 
L 1178 0 
L 603 0 
L 603 3500 
z
M 603 4863 
L 1178 4863 
L 1178 4134 
L 603 4134 
L 603 4863 
z
" id="DejaVuSans-69" transform="scale(0.015625)"/>
       <path d="M 3328 2828 
Q 3544 3216 3844 3400 
Q 4144 3584 4550 3584 
Q 5097 3584 5394 3201 
Q 5691 2819 5691 2113 
L 5691 0 
L 5113 0 
L 5113 2094 
Q 5113 2597 4934 2840 
Q 4756 3084 4391 3084 
Q 3944 3084 3684 2787 
Q 3425 2491 3425 1978 
L 3425 0 
L 2847 0 
L 2847 2094 
Q 2847 2600 2669 2842 
Q 2491 3084 2119 3084 
Q 1678 3084 1418 2786 
Q 1159 2488 1159 1978 
L 1159 0 
L 581 0 
L 581 3500 
L 1159 3500 
L 1159 2956 
Q 1356 3278 1631 3431 
Q 1906 3584 2284 3584 
Q 2666 3584 2933 3390 
Q 3200 3197 3328 2828 
z
" id="DejaVuSans-6d" transform="scale(0.015625)"/>
       <path d="M 3513 2113 
L 3513 0 
L 2938 0 
L 2938 2094 
Q 2938 2591 2744 2837 
Q 2550 3084 2163 3084 
Q 1697 3084 1428 2787 
Q 1159 2491 1159 1978 
L 1159 0 
L 581 0 
L 581 3500 
L 1159 3500 
L 1159 2956 
Q 1366 3272 1645 3428 
Q 1925 3584 2291 3584 
Q 2894 3584 3203 3211 
Q 3513 2838 3513 2113 
z
" id="DejaVuSans-6e" transform="scale(0.015625)"/>
       <path d="M 513 4856 
L 1013 4856 
Q 1481 4119 1714 3412 
Q 1947 2706 1947 2009 
Q 1947 1309 1714 600 
Q 1481 -109 1013 -844 
L 513 -844 
Q 928 -128 1133 580 
Q 1338 1288 1338 2009 
Q 1338 2731 1133 3434 
Q 928 4138 513 4856 
z
" id="DejaVuSans-29" transform="scale(0.015625)"/>
      </defs>
      <use xlink:href="#DejaVuSans-6c"/>
      <use x="27.783203" xlink:href="#DejaVuSans-6f"/>
      <use x="88.964844" xlink:href="#DejaVuSans-67"/>
      <use x="152.441406" xlink:href="#DejaVuSans-31"/>
      <use x="216.064453" xlink:href="#DejaVuSans-30"/>
      <use x="279.6875" xlink:href="#DejaVuSans-28"/>
      <use x="318.701172" xlink:href="#DejaVuSans-23"/>
      <use x="402.490234" xlink:href="#DejaVuSans-20"/>
      <use x="434.277344" xlink:href="#DejaVuSans-66"/>
      <use x="463.982422" xlink:href="#DejaVuSans-2d"/>
      <use x="500.066406" xlink:href="#DejaVuSans-65"/>
      <use x="561.589844" xlink:href="#DejaVuSans-76"/>
      <use x="620.769531" xlink:href="#DejaVuSans-61"/>
      <use x="682.048828" xlink:href="#DejaVuSans-6c"/>
      <use x="709.832031" xlink:href="#DejaVuSans-73"/>
      <use x="761.931641" xlink:href="#DejaVuSans-20"/>
      <use x="793.71875" xlink:href="#DejaVuSans-2f"/>
      <use x="827.410156" xlink:href="#DejaVuSans-20"/>
      <use x="859.197266" xlink:href="#DejaVuSans-64"/>
      <use x="922.673828" xlink:href="#DejaVuSans-69"/>
      <use x="950.457031" xlink:href="#DejaVuSans-6d"/>
      <use x="1047.869141" xlink:href="#DejaVuSans-65"/>
      <use x="1109.392578" xlink:href="#DejaVuSans-6e"/>
      <use x="1172.771484" xlink:href="#DejaVuSans-73"/>
      <use x="1224.871094" xlink:href="#DejaVuSans-69"/>
      <use x="1252.654297" xlink:href="#DejaVuSans-6f"/>
      <use x="1313.835938" xlink:href="#DejaVuSans-6e"/>
      <use x="1377.214844" xlink:href="#DejaVuSans-29"/>
     </g>
    </g>
   </g>
   <g id="matplotlib.axis_2">
    <g id="ytick_1">
     <g id="line2d_21">
      <path clip-path="url(#p6197a96ba6)" d="M 57.6 298.944 
L 338.688 298.944 
" style="fill:none;stroke:#b0b0b0;stroke-linecap:square;stroke-width:0.8;"/>
     </g>
     <g id="line2d_22">
      <defs>
       <path d="M 0 0 
L -3.5 0 
" id="m5dd84d5d61" style="stroke:#000000;stroke-width:0.8;"/>
      </defs>
      <g>
       <use style="stroke:#000000;stroke-width:0.8;" x="57.6" xlink:href="#m5dd84d5d61" y="298.944"/>
      </g>
     </g>
     <g id="text_6">
      <!-- 0.0 -->
      <g transform="translate(25.155 305.02275)scale(0.16 -0.16)">
       <defs>
        <path d="M 684 794 
L 1344 794 
L 1344 0 
L 684 0 
L 684 794 
z
" id="DejaVuSans-2e" transform="scale(0.015625)"/>
       </defs>
       <use xlink:href="#DejaVuSans-30"/>
       <use x="63.623047" xlink:href="#DejaVuSans-2e"/>
       <use x="95.410156" xlink:href="#DejaVuSans-30"/>
      </g>
     </g>
    </g>
    <g id="ytick_2">
     <g id="line2d_23">
      <path clip-path="url(#p6197a96ba6)" d="M 57.6 245.22202 
L 338.688 245.22202 
" style="fill:none;stroke:#b0b0b0;stroke-linecap:square;stroke-width:0.8;"/>
     </g>
     <g id="line2d_24">
      <g>
       <use style="stroke:#000000;stroke-width:0.8;" x="57.6" xlink:href="#m5dd84d5d61" y="245.22202"/>
      </g>
     </g>
     <g id="text_7">
      <!-- 0.2 -->
      <g transform="translate(25.155 251.30077)scale(0.16 -0.16)">
       <use xlink:href="#DejaVuSans-30"/>
       <use x="63.623047" xlink:href="#DejaVuSans-2e"/>
       <use x="95.410156" xlink:href="#DejaVuSans-32"/>
      </g>
     </g>
    </g>
    <g id="ytick_3">
     <g id="line2d_25">
      <path clip-path="url(#p6197a96ba6)" d="M 57.6 191.50004 
L 338.688 191.50004 
" style="fill:none;stroke:#b0b0b0;stroke-linecap:square;stroke-width:0.8;"/>
     </g>
     <g id="line2d_26">
      <g>
       <use style="stroke:#000000;stroke-width:0.8;" x="57.6" xlink:href="#m5dd84d5d61" y="191.50004"/>
      </g>
     </g>
     <g id="text_8">
      <!-- 0.4 -->
      <g transform="translate(25.155 197.57879)scale(0.16 -0.16)">
       <use xlink:href="#DejaVuSans-30"/>
       <use x="63.623047" xlink:href="#DejaVuSans-2e"/>
       <use x="95.410156" xlink:href="#DejaVuSans-34"/>
      </g>
     </g>
    </g>
    <g id="ytick_4">
     <g id="line2d_27">
      <path clip-path="url(#p6197a96ba6)" d="M 57.6 137.778059 
L 338.688 137.778059 
" style="fill:none;stroke:#b0b0b0;stroke-linecap:square;stroke-width:0.8;"/>
     </g>
     <g id="line2d_28">
      <g>
       <use style="stroke:#000000;stroke-width:0.8;" x="57.6" xlink:href="#m5dd84d5d61" y="137.778059"/>
      </g>
     </g>
     <g id="text_9">
      <!-- 0.6 -->
      <g transform="translate(25.155 143.856809)scale(0.16 -0.16)">
       <use xlink:href="#DejaVuSans-30"/>
       <use x="63.623047" xlink:href="#DejaVuSans-2e"/>
       <use x="95.410156" xlink:href="#DejaVuSans-36"/>
      </g>
     </g>
    </g>
    <g id="ytick_5">
     <g id="line2d_29">
      <path clip-path="url(#p6197a96ba6)" d="M 57.6 84.056079 
L 338.688 84.056079 
" style="fill:none;stroke:#b0b0b0;stroke-linecap:square;stroke-width:0.8;"/>
     </g>
     <g id="line2d_30">
      <g>
       <use style="stroke:#000000;stroke-width:0.8;" x="57.6" xlink:href="#m5dd84d5d61" y="84.056079"/>
      </g>
     </g>
     <g id="text_10">
      <!-- 0.8 -->
      <g transform="translate(25.155 90.134829)scale(0.16 -0.16)">
       <defs>
        <path d="M 2034 2216 
Q 1584 2216 1326 1975 
Q 1069 1734 1069 1313 
Q 1069 891 1326 650 
Q 1584 409 2034 409 
Q 2484 409 2743 651 
Q 3003 894 3003 1313 
Q 3003 1734 2745 1975 
Q 2488 2216 2034 2216 
z
M 1403 2484 
Q 997 2584 770 2862 
Q 544 3141 544 3541 
Q 544 4100 942 4425 
Q 1341 4750 2034 4750 
Q 2731 4750 3128 4425 
Q 3525 4100 3525 3541 
Q 3525 3141 3298 2862 
Q 3072 2584 2669 2484 
Q 3125 2378 3379 2068 
Q 3634 1759 3634 1313 
Q 3634 634 3220 271 
Q 2806 -91 2034 -91 
Q 1263 -91 848 271 
Q 434 634 434 1313 
Q 434 1759 690 2068 
Q 947 2378 1403 2484 
z
M 1172 3481 
Q 1172 3119 1398 2916 
Q 1625 2713 2034 2713 
Q 2441 2713 2670 2916 
Q 2900 3119 2900 3481 
Q 2900 3844 2670 4047 
Q 2441 4250 2034 4250 
Q 1625 4250 1398 4047 
Q 1172 3844 1172 3481 
z
" id="DejaVuSans-38" transform="scale(0.015625)"/>
       </defs>
       <use xlink:href="#DejaVuSans-30"/>
       <use x="63.623047" xlink:href="#DejaVuSans-2e"/>
       <use x="95.410156" xlink:href="#DejaVuSans-38"/>
      </g>
     </g>
    </g>
    <g id="ytick_6">
     <g id="line2d_31">
      <path clip-path="url(#p6197a96ba6)" d="M 57.6 30.334099 
L 338.688 30.334099 
" style="fill:none;stroke:#b0b0b0;stroke-linecap:square;stroke-width:0.8;"/>
     </g>
     <g id="line2d_32">
      <g>
       <use style="stroke:#000000;stroke-width:0.8;" x="57.6" xlink:href="#m5dd84d5d61" y="30.334099"/>
      </g>
     </g>
     <g id="text_11">
      <!-- 1.0 -->
      <g transform="translate(25.155 36.412849)scale(0.16 -0.16)">
       <use xlink:href="#DejaVuSans-31"/>
       <use x="63.623047" xlink:href="#DejaVuSans-2e"/>
       <use x="95.410156" xlink:href="#DejaVuSans-30"/>
      </g>
     </g>
    </g>
    <g id="text_12">
     <!-- Fraction of function,target pairs -->
     <g transform="translate(17.619531 297.681)rotate(-90)scale(0.17 -0.17)">
      <defs>
       <path d="M 628 4666 
L 3309 4666 
L 3309 4134 
L 1259 4134 
L 1259 2759 
L 3109 2759 
L 3109 2228 
L 1259 2228 
L 1259 0 
L 628 0 
L 628 4666 
z
" id="DejaVuSans-46" transform="scale(0.015625)"/>
       <path d="M 2631 2963 
Q 2534 3019 2420 3045 
Q 2306 3072 2169 3072 
Q 1681 3072 1420 2755 
Q 1159 2438 1159 1844 
L 1159 0 
L 581 0 
L 581 3500 
L 1159 3500 
L 1159 2956 
Q 1341 3275 1631 3429 
Q 1922 3584 2338 3584 
Q 2397 3584 2469 3576 
Q 2541 3569 2628 3553 
L 2631 2963 
z
" id="DejaVuSans-72" transform="scale(0.015625)"/>
       <path d="M 3122 3366 
L 3122 2828 
Q 2878 2963 2633 3030 
Q 2388 3097 2138 3097 
Q 1578 3097 1268 2742 
Q 959 2388 959 1747 
Q 959 1106 1268 751 
Q 1578 397 2138 397 
Q 2388 397 2633 464 
Q 2878 531 3122 666 
L 3122 134 
Q 2881 22 2623 -34 
Q 2366 -91 2075 -91 
Q 1284 -91 818 406 
Q 353 903 353 1747 
Q 353 2603 823 3093 
Q 1294 3584 2113 3584 
Q 2378 3584 2631 3529 
Q 2884 3475 3122 3366 
z
" id="DejaVuSans-63" transform="scale(0.015625)"/>
       <path d="M 1172 4494 
L 1172 3500 
L 2356 3500 
L 2356 3053 
L 1172 3053 
L 1172 1153 
Q 1172 725 1289 603 
Q 1406 481 1766 481 
L 2356 481 
L 2356 0 
L 1766 0 
Q 1100 0 847 248 
Q 594 497 594 1153 
L 594 3053 
L 172 3053 
L 172 3500 
L 594 3500 
L 594 4494 
L 1172 4494 
z
" id="DejaVuSans-74" transform="scale(0.015625)"/>
       <path d="M 544 1381 
L 544 3500 
L 1119 3500 
L 1119 1403 
Q 1119 906 1312 657 
Q 1506 409 1894 409 
Q 2359 409 2629 706 
Q 2900 1003 2900 1516 
L 2900 3500 
L 3475 3500 
L 3475 0 
L 2900 0 
L 2900 538 
Q 2691 219 2414 64 
Q 2138 -91 1772 -91 
Q 1169 -91 856 284 
Q 544 659 544 1381 
z
M 1991 3584 
L 1991 3584 
z
" id="DejaVuSans-75" transform="scale(0.015625)"/>
       <path d="M 750 794 
L 1409 794 
L 1409 256 
L 897 -744 
L 494 -744 
L 750 256 
L 750 794 
z
" id="DejaVuSans-2c" transform="scale(0.015625)"/>
       <path d="M 1159 525 
L 1159 -1331 
L 581 -1331 
L 581 3500 
L 1159 3500 
L 1159 2969 
Q 1341 3281 1617 3432 
Q 1894 3584 2278 3584 
Q 2916 3584 3314 3078 
Q 3713 2572 3713 1747 
Q 3713 922 3314 415 
Q 2916 -91 2278 -91 
Q 1894 -91 1617 61 
Q 1341 213 1159 525 
z
M 3116 1747 
Q 3116 2381 2855 2742 
Q 2594 3103 2138 3103 
Q 1681 3103 1420 2742 
Q 1159 2381 1159 1747 
Q 1159 1113 1420 752 
Q 1681 391 2138 391 
Q 2594 391 2855 752 
Q 3116 1113 3116 1747 
z
" id="DejaVuSans-70" transform="scale(0.015625)"/>
      </defs>
      <use xlink:href="#DejaVuSans-46"/>
      <use x="50.269531" xlink:href="#DejaVuSans-72"/>
      <use x="91.382812" xlink:href="#DejaVuSans-61"/>
      <use x="152.662109" xlink:href="#DejaVuSans-63"/>
      <use x="207.642578" xlink:href="#DejaVuSans-74"/>
      <use x="246.851562" xlink:href="#DejaVuSans-69"/>
      <use x="274.634766" xlink:href="#DejaVuSans-6f"/>
      <use x="335.816406" xlink:href="#DejaVuSans-6e"/>
      <use x="399.195312" xlink:href="#DejaVuSans-20"/>
      <use x="430.982422" xlink:href="#DejaVuSans-6f"/>
      <use x="492.164062" xlink:href="#DejaVuSans-66"/>
      <use x="527.369141" xlink:href="#DejaVuSans-20"/>
      <use x="559.15625" xlink:href="#DejaVuSans-66"/>
      <use x="594.361328" xlink:href="#DejaVuSans-75"/>
      <use x="657.740234" xlink:href="#DejaVuSans-6e"/>
      <use x="721.119141" xlink:href="#DejaVuSans-63"/>
      <use x="776.099609" xlink:href="#DejaVuSans-74"/>
      <use x="815.308594" xlink:href="#DejaVuSans-69"/>
      <use x="843.091797" xlink:href="#DejaVuSans-6f"/>
      <use x="904.273438" xlink:href="#DejaVuSans-6e"/>
      <use x="967.652344" xlink:href="#DejaVuSans-2c"/>
      <use x="999.439453" xlink:href="#DejaVuSans-74"/>
      <use x="1038.648438" xlink:href="#DejaVuSans-61"/>
      <use x="1099.927734" xlink:href="#DejaVuSans-72"/>
      <use x="1139.291016" xlink:href="#DejaVuSans-67"/>
      <use x="1202.767578" xlink:href="#DejaVuSans-65"/>
      <use x="1264.291016" xlink:href="#DejaVuSans-74"/>
      <use x="1303.5" xlink:href="#DejaVuSans-20"/>
      <use x="1335.287109" xlink:href="#DejaVuSans-70"/>
      <use x="1398.763672" xlink:href="#DejaVuSans-61"/>
      <use x="1460.042969" xlink:href="#DejaVuSans-69"/>
      <use x="1487.826172" xlink:href="#DejaVuSans-72"/>
      <use x="1528.939453" xlink:href="#DejaVuSans-73"/>
     </g>
    </g>
   </g>
   <g id="line2d_33">
    <defs>
     <path d="M 0 1.5 
C 0.397805 1.5 0.77937 1.341951 1.06066 1.06066 
C 1.341951 0.77937 1.5 0.397805 1.5 0 
C 1.5 -0.397805 1.341951 -0.77937 1.06066 -1.06066 
C 0.77937 -1.341951 0.397805 -1.5 0 -1.5 
C -0.397805 -1.5 -0.77937 -1.341951 -1.06066 -1.06066 
C -1.341951 -0.77937 -1.5 -0.397805 -1.5 0 
C -1.5 0.397805 -1.341951 0.77937 -1.06066 1.06066 
C -0.77937 1.341951 -0.397805 1.5 0 1.5 
z
" id="me65b1e5d92" style="stroke:#f5deb3;"/>
    </defs>
    <g>
     <use style="fill:#f5deb3;stroke:#f5deb3;" x="183.572899" xlink:href="#me65b1e5d92" y="30.334099"/>
     <use style="fill:#f5deb3;stroke:#f5deb3;" x="183.572899" xlink:href="#me65b1e5d92" y="30.334099"/>
    </g>
   </g>
   <g id="line2d_34">
    <defs>
     <path d="M 0 1.5 
C 0.397805 1.5 0.77937 1.341951 1.06066 1.06066 
C 1.341951 0.77937 1.5 0.397805 1.5 0 
C 1.5 -0.397805 1.341951 -0.77937 1.06066 -1.06066 
C 0.77937 -1.341951 0.397805 -1.5 0 -1.5 
C -0.397805 -1.5 -0.77937 -1.341951 -1.06066 -1.06066 
C -1.341951 -0.77937 -1.5 -0.397805 -1.5 0 
C -1.5 0.397805 -1.341951 0.77937 -1.06066 1.06066 
C -0.77937 1.341951 -0.397805 1.5 0 1.5 
z
" id="m7cdd744c54" style="stroke:#000080;"/>
    </defs>
    <g>
     <use style="fill:#000080;stroke:#000080;" x="272.488129" xlink:href="#m7cdd744c54" y="93.536429"/>
     <use style="fill:#000080;stroke:#000080;" x="272.488129" xlink:href="#m7cdd744c54" y="93.536429"/>
    </g>
   </g>
   <g id="line2d_35">
    <path d="M 17.444571 298.944 
L 17.444571 293.677139 
L 72.867545 293.677139 
L 72.867545 293.150453 
L 87.009585 293.150453 
L 87.009585 292.623767 
L 87.643811 292.623767 
L 87.643811 292.097081 
L 99.258306 292.097081 
L 99.258306 290.517023 
L 100.493461 290.517023 
L 100.493461 289.990337 
L 111.74176 289.990337 
L 111.74176 289.463651 
L 115.269727 289.463651 
L 115.269727 288.936964 
L 117.030313 288.936964 
L 117.030313 288.410278 
L 117.259781 288.410278 
L 117.259781 287.883592 
L 119.751557 287.883592 
L 119.751557 287.356906 
L 121.974949 287.356906 
L 121.974949 286.303534 
L 122.148045 286.303534 
L 122.148045 285.776848 
L 125.857712 285.776848 
L 125.892487 284.723476 
L 126.70692 284.723476 
L 126.70692 284.19679 
L 127.642832 284.19679 
L 127.642832 283.670104 
L 131.715598 283.670104 
L 131.740458 282.616732 
L 132.683351 282.616732 
L 132.683351 282.090045 
L 132.963507 282.090045 
L 132.963507 281.563359 
L 133.078923 281.563359 
L 133.078923 281.036673 
L 133.622529 281.036673 
L 133.622529 280.509987 
L 135.117629 280.509987 
L 135.199312 279.456615 
L 135.780341 279.456615 
L 135.780341 278.929929 
L 136.112156 278.929929 
L 136.170062 277.876557 
L 137.325651 277.876557 
L 137.325651 277.349871 
L 138.794909 277.349871 
L 138.861092 275.243126 
L 140.042245 275.243126 
L 140.042245 274.71644 
L 142.324576 274.71644 
L 142.324576 274.189754 
L 142.499711 274.189754 
L 142.499711 273.663068 
L 143.221802 273.663068 
L 143.221802 273.136382 
L 144.498568 273.136382 
L 144.498568 272.609696 
L 146.140051 272.609696 
L 146.140051 271.556324 
L 146.675697 271.556324 
L 146.675697 271.029638 
L 147.348313 271.029638 
L 147.348313 269.976266 
L 148.229122 269.976266 
L 148.229122 269.449579 
L 149.141003 269.449579 
L 149.141003 268.396207 
L 150.607205 268.396207 
L 150.607205 267.869521 
L 151.186911 267.869521 
L 151.186911 267.342835 
L 151.413504 267.342835 
L 151.413504 266.816149 
L 151.740076 266.816149 
L 151.740076 266.289463 
L 153.778339 266.289463 
L 153.778339 265.762777 
L 154.344733 265.762777 
L 154.344733 265.236091 
L 154.580996 265.236091 
L 154.580996 264.709405 
L 157.664184 264.709405 
L 157.725877 262.60266 
L 158.535371 262.60266 
L 158.535371 262.075974 
L 160.542446 262.075974 
L 160.542446 261.549288 
L 161.356752 261.549288 
L 161.356752 261.022602 
L 161.488097 261.022602 
L 161.488097 259.442544 
L 161.7523 259.442544 
L 161.7523 258.915858 
L 166.888852 258.915858 
L 166.888852 258.389172 
L 167.873511 258.389172 
L 167.873511 257.862486 
L 170.716639 257.862486 
L 170.716639 257.3358 
L 170.864857 257.3358 
L 170.864857 256.809114 
L 171.271227 256.809114 
L 171.271227 256.282427 
L 172.342255 256.282427 
L 172.351938 255.229055 
L 172.855247 255.229055 
L 172.855247 254.702369 
L 173.957665 254.702369 
L 173.957665 254.175683 
L 174.515891 254.175683 
L 174.515891 253.648997 
L 178.094166 253.648997 
L 178.094166 253.122311 
L 178.423593 253.122311 
L 178.423593 252.068939 
L 180.50515 252.068939 
L 180.50515 251.542253 
L 182.412173 251.542253 
L 182.412173 250.488881 
L 183.249441 250.488881 
L 183.249441 249.962195 
L 188.370068 249.962195 
L 188.370068 249.435508 
L 190.259464 249.435508 
L 190.259464 248.908822 
L 190.518415 248.908822 
L 190.518415 248.382136 
L 190.925234 248.382136 
L 190.925234 247.85545 
L 191.164683 247.85545 
L 191.164683 247.328764 
L 193.922531 247.328764 
L 193.922531 246.802078 
L 194.053409 246.802078 
L 194.053409 246.275392 
L 194.185388 246.275392 
L 194.185388 245.748706 
L 194.309507 245.748706 
L 194.309507 245.22202 
L 195.03688 245.22202 
L 195.03688 244.695334 
L 195.328358 244.695334 
L 195.420792 243.641962 
L 195.683764 243.641962 
L 195.683764 243.115275 
L 195.976582 243.115275 
L 195.976582 242.061903 
L 196.280528 242.061903 
L 196.280528 241.535217 
L 196.497031 241.535217 
L 196.497031 241.008531 
L 196.762293 241.008531 
L 196.762293 240.481845 
L 196.981777 240.481845 
L 197.021228 239.428473 
L 197.273476 239.428473 
L 197.273476 238.901787 
L 197.543261 238.901787 
L 197.543261 237.848415 
L 197.763903 237.848415 
L 197.763903 236.268356 
L 198.269956 236.268356 
L 198.302229 235.214984 
L 198.488137 235.214984 
L 198.488137 234.688298 
L 198.757479 234.688298 
L 198.810639 232.581554 
L 199.176214 232.581554 
L 199.260217 231.001496 
L 199.914568 231.001496 
L 199.914568 230.47481 
L 200.08167 230.47481 
L 200.147181 228.368065 
L 200.502431 228.368065 
L 200.502431 227.314693 
L 202.103945 227.314693 
L 202.103945 226.261321 
L 202.853569 226.261321 
L 202.883852 225.207949 
L 203.061543 225.207949 
L 203.061543 224.681263 
L 203.2395 224.681263 
L 203.288841 223.101204 
L 203.755136 223.101204 
L 203.755136 222.047832 
L 204.678473 222.047832 
L 204.755647 219.414402 
L 205.429811 219.414402 
L 205.429811 218.887716 
L 206.722875 218.887716 
L 206.722875 218.36103 
L 206.874293 218.36103 
L 206.874293 217.834344 
L 207.187693 217.834344 
L 207.187693 217.307658 
L 209.744188 217.307658 
L 209.744188 216.780971 
L 210.291295 216.780971 
L 210.291295 216.254285 
L 211.015804 216.254285 
L 211.015804 215.727599 
L 211.212929 215.727599 
L 211.212929 215.200913 
L 212.106378 215.200913 
L 212.106378 214.147541 
L 212.225334 214.147541 
L 212.296271 213.094169 
L 213.541425 213.094169 
L 213.642852 212.040797 
L 213.872398 212.040797 
L 213.872398 210.987425 
L 214.23933 210.987425 
L 214.23933 209.934052 
L 214.421568 209.934052 
L 214.450169 208.88068 
L 214.534184 208.88068 
L 214.534184 208.353994 
L 214.729368 208.353994 
L 214.814596 207.300622 
L 214.920707 207.300622 
L 214.941768 206.24725 
L 215.368205 206.24725 
L 215.387911 204.667192 
L 215.484072 204.667192 
L 215.484072 204.140506 
L 215.632386 204.140506 
L 215.632386 203.613819 
L 216.101245 203.613819 
L 216.101245 202.560447 
L 216.322964 202.560447 
L 216.322964 202.033761 
L 216.658643 202.033761 
L 216.658643 200.453703 
L 217.072941 200.453703 
L 217.181013 198.346959 
L 217.546283 198.346959 
L 217.546283 195.713528 
L 218.02053 195.713528 
L 218.117114 194.660156 
L 220.326846 194.660156 
L 220.326846 194.13347 
L 220.833039 194.13347 
L 220.833039 193.606784 
L 221.116294 193.606784 
L 221.116294 192.553412 
L 221.539221 192.553412 
L 221.539221 192.026726 
L 222.107456 192.026726 
L 222.166251 190.973354 
L 222.453323 190.973354 
L 222.516828 189.919981 
L 222.741263 189.919981 
L 222.741263 189.393295 
L 222.871052 189.393295 
L 222.922937 188.339923 
L 223.096805 188.339923 
L 223.176007 185.706493 
L 223.403704 185.706493 
L 223.455452 183.073062 
L 223.516189 183.073062 
L 223.516189 182.546376 
L 223.908111 182.546376 
L 223.908111 182.01969 
L 224.050141 182.01969 
L 224.141291 180.439632 
L 224.183219 180.439632 
L 224.27528 177.806202 
L 224.535354 177.806202 
L 224.605879 176.226143 
L 224.821015 176.226143 
L 224.845366 173.592713 
L 225.588311 173.592713 
L 225.588311 173.066027 
L 226.419984 173.066027 
L 226.419984 172.539341 
L 226.791451 172.539341 
L 226.791451 172.012655 
L 227.076315 172.012655 
L 227.076315 171.485969 
L 227.274813 171.485969 
L 227.274813 169.379224 
L 227.388177 169.379224 
L 227.388177 168.852538 
L 227.730183 168.852538 
L 227.730183 168.325852 
L 228.154637 168.325852 
L 228.154637 167.799166 
L 228.353006 167.799166 
L 228.353006 167.27248 
L 228.563222 167.27248 
L 228.563222 165.692422 
L 228.737187 165.692422 
L 228.81298 163.585677 
L 228.950204 163.585677 
L 228.994547 162.005619 
L 229.063051 162.005619 
L 229.063051 161.478933 
L 229.281677 161.478933 
L 229.281677 160.952247 
L 229.453326 160.952247 
L 229.545673 158.845503 
L 229.629921 158.845503 
L 229.629921 158.318817 
L 229.744774 158.318817 
L 229.744774 157.79213 
L 229.957115 157.79213 
L 229.957115 155.685386 
L 230.209401 155.685386 
L 230.209401 155.1587 
L 231.006926 155.1587 
L 231.006926 154.632014 
L 231.161897 154.632014 
L 231.161897 154.105328 
L 231.394014 154.105328 
L 231.394014 153.051956 
L 232.379326 153.051956 
L 232.379326 152.52527 
L 232.653767 152.52527 
L 232.653767 151.998584 
L 232.954702 151.998584 
L 233.014241 150.945211 
L 233.115126 150.945211 
L 233.159317 149.891839 
L 233.466283 149.891839 
L 233.543962 148.838467 
L 233.597844 148.838467 
L 233.668109 147.258409 
L 233.934124 147.258409 
L 233.934124 145.678351 
L 234.062638 145.678351 
L 234.062638 145.151665 
L 234.898758 145.151665 
L 234.898758 144.624978 
L 235.973996 144.624978 
L 235.973996 144.098292 
L 236.151608 144.098292 
L 236.236047 143.04492 
L 236.348288 143.04492 
L 236.397313 141.991548 
L 236.480452 141.991548 
L 236.515063 140.938176 
L 236.702149 140.938176 
L 236.702149 140.41149 
L 237.146458 140.41149 
L 237.158473 138.831432 
L 237.313919 138.831432 
L 237.313919 138.304745 
L 237.953454 138.304745 
L 238.011578 137.251373 
L 238.77441 137.251373 
L 238.77441 136.724687 
L 239.367575 136.724687 
L 239.367575 136.198001 
L 239.584802 136.198001 
L 239.584802 135.144629 
L 239.748427 135.144629 
L 239.748427 134.617943 
L 239.868395 134.617943 
L 239.878674 133.564571 
L 240.011755 133.564571 
L 240.011755 133.037885 
L 241.726882 133.037885 
L 241.726882 132.511199 
L 241.974759 132.511199 
L 242.066445 129.877768 
L 242.23127 129.877768 
L 242.23127 129.351082 
L 243.750047 129.351082 
L 243.860564 127.771024 
L 244.076313 127.771024 
L 244.157614 126.190966 
L 244.20292 126.190966 
L 244.303891 125.137593 
L 244.339461 125.137593 
L 244.339461 124.610907 
L 245.564564 124.610907 
L 245.658912 123.557535 
L 245.987547 123.557535 
L 246.065374 121.450791 
L 246.148974 121.450791 
L 246.156145 118.817361 
L 246.641438 118.817361 
L 246.641438 118.290674 
L 247.395739 118.290674 
L 247.480119 116.710616 
L 247.644729 116.710616 
L 247.679643 114.603872 
L 247.83042 114.603872 
L 247.894828 113.023814 
L 248.933089 113.023814 
L 249.027217 111.970441 
L 249.217736 111.970441 
L 249.217736 111.443755 
L 250.633058 111.443755 
L 250.633058 110.917069 
L 251.942088 110.917069 
L 251.997439 109.863697 
L 252.056974 109.863697 
L 252.062085 108.283639 
L 253.005623 108.283639 
L 253.005623 107.756953 
L 253.271614 107.756953 
L 253.271614 107.230267 
L 254.1535 107.230267 
L 254.1535 106.703581 
L 254.398199 106.703581 
L 254.402668 105.123522 
L 255.230466 105.123522 
L 255.230466 104.596836 
L 255.366146 104.596836 
L 255.460607 103.543464 
L 257.343919 103.543464 
L 257.408986 101.43672 
L 258.209199 101.43672 
L 258.245398 100.383348 
L 261.33735 100.383348 
L 261.33735 99.856662 
L 262.823543 99.856662 
L 262.837201 98.803289 
L 263.414669 98.803289 
L 263.414669 97.749917 
L 264.057132 97.749917 
L 264.057132 97.223231 
L 265.271788 97.223231 
L 265.271788 96.696545 
L 265.401561 96.696545 
L 265.401561 96.169859 
L 267.008713 96.169859 
L 267.008713 95.643173 
L 269.067762 95.643173 
L 269.067762 95.116487 
L 269.888949 95.116487 
L 269.888949 94.589801 
L 271.656675 94.589801 
L 271.656675 94.063115 
L 272.488129 94.063115 
L 272.488129 93.536429 
L 338.688 93.536429 
L 338.688 93.536429 
" style="fill:none;stroke:#000080;stroke-linecap:square;stroke-width:1.5;"/>
   </g>
   <g id="line2d_36">
    <defs>
     <path d="M 0 6 
C 1.591219 6 3.117479 5.367802 4.242641 4.242641 
C 5.367802 3.117479 6 1.591219 6 0 
C 6 -1.591219 5.367802 -3.117479 4.242641 -4.242641 
C 3.117479 -5.367802 1.591219 -6 0 -6 
C -1.591219 -6 -3.117479 -5.367802 -4.242641 -4.242641 
C -5.367802 -3.117479 -6 -1.591219 -6 0 
C -6 1.591219 -5.367802 3.117479 -4.242641 4.242641 
C -3.117479 5.367802 -1.591219 6 0 6 
z
" id="mec5e0b904c" style="stroke:#000080;stroke-width:1.5;"/>
    </defs>
    <g>
     <use style="fill-opacity:0;stroke:#000080;stroke-width:1.5;" x="100.493461" xlink:href="#mec5e0b904c" y="289.990337"/>
     <use style="fill-opacity:0;stroke:#000080;stroke-width:1.5;" x="197.763903" xlink:href="#mec5e0b904c" y="237.848415"/>
     <use style="fill-opacity:0;stroke:#000080;stroke-width:1.5;" x="236.236047" xlink:href="#mec5e0b904c" y="143.571606"/>
     <use style="fill-opacity:0;stroke:#000080;stroke-width:1.5;" x="272.488129" xlink:href="#mec5e0b904c" y="93.536429"/>
     <use style="fill-opacity:0;stroke:#000080;stroke-width:1.5;" x="272.488129" xlink:href="#mec5e0b904c" y="93.536429"/>
     <use style="fill-opacity:0;stroke:#000080;stroke-width:1.5;" x="338.688" xlink:href="#mec5e0b904c" y="93.536429"/>
    </g>
   </g>
   <g id="line2d_37">
    <path style="fill:none;stroke:#000080;stroke-linecap:square;stroke-width:1.5;"/>
    <g/>
   </g>
   <g id="line2d_38">
    <path clip-path="url(#p6197a96ba6)" d="M 206.133726 218.887716 
" style="fill:none;stroke:#000080;stroke-linecap:square;stroke-width:1.5;"/>
    <defs>
     <path d="M -12 12 
L 12 -12 
M -12 -12 
L 12 12 
" id="m551fe9115f" style="stroke:#000080;"/>
    </defs>
    <g clip-path="url(#p6197a96ba6)">
     <use style="fill:#000080;stroke:#000080;" x="206.133726" xlink:href="#m551fe9115f" y="218.887716"/>
    </g>
   </g>
   <g id="line2d_39">
    <defs>
     <path d="M 0 1.5 
C 0.397805 1.5 0.77937 1.341951 1.06066 1.06066 
C 1.341951 0.77937 1.5 0.397805 1.5 0 
C 1.5 -0.397805 1.341951 -0.77937 1.06066 -1.06066 
C 0.77937 -1.341951 0.397805 -1.5 0 -1.5 
C -0.397805 -1.5 -0.77937 -1.341951 -1.06066 -1.06066 
C -1.341951 -0.77937 -1.5 -0.397805 -1.5 0 
C -1.5 0.397805 -1.341951 0.77937 -1.06066 1.06066 
C -0.77937 1.341951 -0.397805 1.5 0 1.5 
z
" id="m21664c0124" style="stroke:#ff00ff;"/>
    </defs>
    <g>
     <use style="fill:#ff00ff;stroke:#ff00ff;" x="266.789888" xlink:href="#m21664c0124" y="30.334099"/>
     <use style="fill:#ff00ff;stroke:#ff00ff;" x="266.789888" xlink:href="#m21664c0124" y="30.334099"/>
    </g>
   </g>
   <g id="line2d_40">
    <path d="M 17.444571 298.944 
L 17.444571 293.677139 
L 45.512012 293.677139 
L 45.512012 293.150453 
L 67.850577 293.150453 
L 67.850577 292.623767 
L 88.255778 292.623767 
L 88.255778 292.097081 
L 95.125186 292.097081 
L 95.125186 291.570395 
L 105.842616 291.570395 
L 105.842616 291.043709 
L 107.213174 291.043709 
L 107.213174 290.517023 
L 107.712901 290.517023 
L 107.712901 289.463651 
L 109.930396 289.463651 
L 109.930396 288.936964 
L 113.167699 288.936964 
L 113.167699 288.410278 
L 114.618932 288.410278 
L 114.618932 287.883592 
L 124.854767 287.883592 
L 124.854767 287.356906 
L 126.099688 287.356906 
L 126.099688 286.83022 
L 126.87191 286.83022 
L 126.87191 286.303534 
L 127.516689 286.303534 
L 127.516689 284.723476 
L 127.705564 284.723476 
L 127.705564 284.19679 
L 129.546106 284.19679 
L 129.546106 283.143418 
L 130.978796 283.143418 
L 130.978796 282.616732 
L 131.715598 282.616732 
L 131.715598 282.090045 
L 131.962617 282.090045 
L 131.962617 281.563359 
L 134.192921 281.563359 
L 134.192921 281.036673 
L 135.240011 281.036673 
L 135.240011 279.456615 
L 135.760625 279.456615 
L 135.760625 278.929929 
L 136.092812 278.929929 
L 136.092812 277.876557 
L 137.053015 277.876557 
L 137.089613 276.823185 
L 138.477062 276.823185 
L 138.477062 276.296499 
L 138.794909 276.296499 
L 138.794909 275.243126 
L 139.793552 275.243126 
L 139.793552 274.71644 
L 141.104941 274.71644 
L 141.119455 272.609696 
L 141.844124 272.609696 
L 141.941279 271.556324 
L 142.51311 271.556324 
L 142.51311 271.029638 
L 143.311596 271.029638 
L 143.311596 270.502952 
L 143.502469 270.502952 
L 143.502469 269.976266 
L 143.641127 269.976266 
L 143.641127 269.449579 
L 143.803587 269.449579 
L 143.803587 268.922893 
L 143.927534 268.922893 
L 143.927534 268.396207 
L 144.197155 268.396207 
L 144.197155 267.869521 
L 145.810583 267.869521 
L 145.810583 267.342835 
L 146.675697 267.342835 
L 146.675697 266.816149 
L 146.833235 266.816149 
L 146.833235 266.289463 
L 147.71991 266.289463 
L 147.71991 265.762777 
L 148.219468 265.762777 
L 148.23877 264.182719 
L 148.53525 264.182719 
L 148.53525 263.656033 
L 148.676918 263.656033 
L 148.686322 262.60266 
L 148.94759 262.60266 
L 148.94759 262.075974 
L 149.575199 262.075974 
L 149.575199 261.549288 
L 150.327083 261.549288 
L 150.327083 261.022602 
L 151.170613 261.022602 
L 151.170613 260.495916 
L 152.107068 260.495916 
L 152.107068 259.96923 
L 153.287059 259.96923 
L 153.287059 259.442544 
L 153.559329 259.442544 
L 153.559329 258.915858 
L 155.245367 258.915858 
L 155.329071 257.862486 
L 155.910223 257.862486 
L 155.910223 257.3358 
L 156.592532 257.3358 
L 156.592532 256.809114 
L 157.664184 256.809114 
L 157.664184 256.282427 
L 160.020244 256.282427 
L 160.020244 255.755741 
L 160.783709 255.755741 
L 160.783709 254.702369 
L 161.196905 254.702369 
L 161.196905 254.175683 
L 162.534461 254.175683 
L 162.534461 253.648997 
L 165.09112 253.648997 
L 165.09479 251.542253 
L 166.621987 251.542253 
L 166.621987 250.488881 
L 167.020769 250.488881 
L 167.020769 249.962195 
L 167.164734 249.962195 
L 167.164734 248.908822 
L 168.569642 248.908822 
L 168.611679 247.85545 
L 169.014849 247.85545 
L 169.014849 246.802078 
L 170.822637 246.802078 
L 170.822637 246.275392 
L 171.343174 246.275392 
L 171.343174 245.748706 
L 171.655755 245.748706 
L 171.74118 244.695334 
L 172.225636 244.695334 
L 172.232947 241.535217 
L 173.051642 241.535217 
L 173.051642 241.008531 
L 174.289977 241.008531 
L 174.289977 240.481845 
L 174.609697 240.481845 
L 174.715685 238.375101 
L 175.753531 238.375101 
L 175.753531 237.848415 
L 178.671276 237.848415 
L 178.671276 237.321729 
L 179.490589 237.321729 
L 179.490589 236.795043 
L 180.279277 236.795043 
L 180.332958 235.74167 
L 180.805809 235.74167 
L 180.805809 235.214984 
L 181.684969 235.214984 
L 181.684969 234.688298 
L 181.830326 234.688298 
L 181.830326 233.634926 
L 182.45426 233.634926 
L 182.45426 233.10824 
L 182.712684 233.10824 
L 182.712684 232.581554 
L 183.206636 232.581554 
L 183.312807 231.001496 
L 183.627498 231.001496 
L 183.627498 230.47481 
L 183.77017 230.47481 
L 183.880474 228.894751 
L 184.307529 228.894751 
L 184.307529 228.368065 
L 184.674304 228.368065 
L 184.674304 227.841379 
L 184.807511 227.841379 
L 184.807511 227.314693 
L 184.970254 227.314693 
L 184.970254 226.788007 
L 185.115202 226.788007 
L 185.115202 226.261321 
L 185.371735 226.261321 
L 185.371735 225.734635 
L 185.564524 225.734635 
L 185.564524 224.154577 
L 187.845502 224.154577 
L 187.850478 222.047832 
L 187.980353 222.047832 
L 188.074917 220.467774 
L 188.270296 220.467774 
L 188.336229 219.414402 
L 188.469273 219.414402 
L 188.469273 218.887716 
L 188.634639 218.887716 
L 188.634639 218.36103 
L 188.84739 218.36103 
L 188.940185 217.307658 
L 189.030629 217.307658 
L 189.030629 216.780971 
L 189.267097 216.780971 
L 189.267097 216.254285 
L 189.397805 216.254285 
L 189.397805 215.200913 
L 189.578984 215.200913 
L 189.624885 214.147541 
L 189.810849 214.147541 
L 189.895129 213.094169 
L 190.074744 213.094169 
L 190.16212 210.460738 
L 190.255997 210.460738 
L 190.255997 209.407366 
L 190.692601 209.407366 
L 190.753368 208.353994 
L 190.804686 208.353994 
L 190.804686 207.827308 
L 191.008461 207.827308 
L 191.008461 207.300622 
L 191.139155 207.300622 
L 191.22793 206.24725 
L 191.375704 206.24725 
L 191.417928 204.667192 
L 191.50207 204.667192 
L 191.50207 204.140506 
L 198.900114 204.140506 
L 198.900114 203.613819 
L 199.080833 203.613819 
L 199.080833 203.087133 
L 204.470992 203.087133 
L 204.470992 202.033761 
L 206.462648 202.033761 
L 206.462648 201.507075 
L 206.611582 201.507075 
L 206.611582 200.980389 
L 206.95234 200.980389 
L 206.95234 200.453703 
L 207.137056 200.453703 
L 207.137056 199.927017 
L 207.382613 199.927017 
L 207.382613 199.400331 
L 207.540663 199.400331 
L 207.540663 198.346959 
L 207.797769 198.346959 
L 207.893254 196.240214 
L 208.048014 196.240214 
L 208.094831 193.606784 
L 208.357773 193.606784 
L 208.465818 189.919981 
L 208.571377 189.919981 
L 208.571377 188.866609 
L 208.710935 188.866609 
L 208.797671 186.233179 
L 209.056792 186.233179 
L 209.056792 185.179807 
L 209.285357 185.179807 
L 209.285357 184.126434 
L 209.558892 184.126434 
L 209.558892 183.599748 
L 209.800808 183.599748 
L 209.838359 182.546376 
L 209.970973 182.546376 
L 209.999779 181.493004 
L 210.125628 181.493004 
L 210.178813 180.439632 
L 210.282224 180.439632 
L 210.372174 178.332888 
L 210.427067 178.332888 
L 210.427067 177.279515 
L 210.551235 177.279515 
L 210.551235 176.752829 
L 210.808692 176.752829 
L 210.808692 176.226143 
L 211.483723 176.226143 
L 211.507575 174.646085 
L 211.663215 174.646085 
L 211.764021 172.012655 
L 211.788753 172.012655 
L 211.788753 171.485969 
L 211.978874 171.485969 
L 212.030684 168.325852 
L 212.249912 168.325852 
L 212.359355 166.219108 
L 212.365212 166.219108 
L 212.365212 165.165736 
L 218.857335 165.165736 
L 218.872294 164.112363 
L 219.031341 164.112363 
L 219.031341 163.585677 
L 219.251203 163.585677 
L 219.353813 160.952247 
L 219.389241 160.952247 
L 219.426714 159.898875 
L 219.604504 159.898875 
L 219.604504 159.372189 
L 219.868629 159.372189 
L 219.93973 158.318817 
L 219.997316 158.318817 
L 220.102531 155.685386 
L 220.151466 155.685386 
L 220.261654 154.105328 
L 220.331637 154.105328 
L 220.41903 152.52527 
L 220.486702 152.52527 
L 220.553043 150.418525 
L 220.616397 150.418525 
L 220.637363 148.311781 
L 221.114816 148.311781 
L 221.218953 146.731723 
L 221.256507 146.731723 
L 221.306698 144.098292 
L 221.395602 144.098292 
L 221.418266 141.991548 
L 221.546861 141.991548 
L 221.584867 140.938176 
L 225.729139 140.938176 
L 225.827961 139.884804 
L 225.899184 139.884804 
L 225.971237 137.251373 
L 226.105246 137.251373 
L 226.204724 134.091257 
L 226.226667 134.091257 
L 226.322497 133.037885 
L 226.565091 133.037885 
L 226.565091 132.511199 
L 226.678853 132.511199 
L 226.727321 130.93114 
L 226.796038 130.93114 
L 226.822896 129.877768 
L 226.977796 129.877768 
L 227.007009 128.29771 
L 227.219728 128.29771 
L 227.326725 125.66428 
L 227.388177 125.66428 
L 227.487488 122.504163 
L 227.578181 122.504163 
L 227.605287 120.924105 
L 230.712655 120.924105 
L 230.808332 118.817361 
L 230.832043 118.817361 
L 230.922608 116.18393 
L 231.189858 116.18393 
L 231.275454 115.130558 
L 231.351024 115.130558 
L 231.449644 111.970441 
L 231.478942 111.970441 
L 231.587381 107.756953 
L 231.601071 107.756953 
L 231.601071 107.230267 
L 231.848621 107.230267 
L 231.904414 105.123522 
L 231.968752 105.123522 
L 232.072227 101.963406 
L 232.088376 101.963406 
L 232.088376 101.43672 
L 234.464317 101.43672 
L 234.464317 100.910034 
L 234.693201 100.910034 
L 234.716718 98.803289 
L 234.858767 98.803289 
L 234.858767 98.276603 
L 235.045985 98.276603 
L 235.14856 96.169859 
L 235.241797 96.169859 
L 235.249813 94.589801 
L 235.501342 94.589801 
L 235.608232 90.376312 
L 235.63678 90.376312 
L 235.63678 89.849626 
L 237.623237 89.849626 
L 237.723274 88.269568 
L 237.771657 88.269568 
L 237.851111 87.216196 
L 237.930431 87.216196 
L 237.930431 86.68951 
L 238.08755 86.68951 
L 238.16886 85.109451 
L 238.223669 85.109451 
L 238.223669 84.582765 
L 238.394258 84.582765 
L 238.490144 82.476021 
L 238.506719 82.476021 
L 238.587947 79.842591 
L 240.257369 79.842591 
L 240.363025 78.789218 
L 240.676589 78.789218 
L 240.729489 77.735846 
L 240.81859 77.735846 
L 240.921051 76.155788 
L 240.941301 76.155788 
L 241.024188 72.995672 
L 241.097855 72.995672 
L 241.097855 72.468985 
L 242.655233 72.468985 
L 242.753803 69.308869 
L 242.995816 69.308869 
L 243.060447 66.675439 
L 243.253414 66.675439 
L 243.253414 65.622066 
L 244.634936 65.622066 
L 244.634936 65.09538 
L 244.755585 65.09538 
L 244.862238 63.515322 
L 245.022861 63.515322 
L 245.03752 61.935264 
L 245.163723 61.935264 
L 245.247379 59.301833 
L 246.435067 59.301833 
L 246.536907 56.668403 
L 246.56285 56.668403 
L 246.621054 55.088345 
L 246.716679 55.088345 
L 246.817231 52.9816 
L 246.941347 52.9816 
L 246.943463 51.928228 
L 248.159352 51.928228 
L 248.187528 50.874856 
L 248.340384 50.874856 
L 248.402445 49.294798 
L 248.511421 49.294798 
L 248.595566 47.71474 
L 249.606286 47.71474 
L 249.675416 45.607995 
L 249.777485 45.607995 
L 249.85703 44.027937 
L 251.043623 44.027937 
L 251.098004 42.974565 
L 251.211336 42.974565 
L 251.211336 42.447879 
L 252.538784 42.447879 
L 252.598592 41.394507 
L 253.582141 41.394507 
L 253.62218 40.341135 
L 253.786394 40.341135 
L 253.786394 39.814448 
L 254.631277 39.814448 
L 254.631277 39.287762 
L 254.797095 39.287762 
L 254.872691 37.707704 
L 254.948237 37.707704 
L 254.948237 37.181018 
L 255.744953 37.181018 
L 255.744953 36.654332 
L 255.950858 36.654332 
L 255.971789 35.60096 
L 256.906263 35.60096 
L 256.906263 35.074274 
L 257.591527 35.074274 
L 257.680689 34.020902 
L 257.858519 34.020902 
L 257.858519 33.494215 
L 259.361249 33.494215 
L 259.361249 32.967529 
L 260.143623 32.967529 
L 260.145293 31.914157 
L 264.467177 31.914157 
L 264.467177 31.387471 
L 264.946927 31.387471 
L 264.946927 30.860785 
L 266.789888 30.860785 
L 266.789888 30.334099 
L 338.688 30.334099 
L 338.688 30.334099 
" style="fill:none;stroke:#ff00ff;stroke-linecap:square;stroke-width:1.5;"/>
   </g>
   <g id="line2d_41">
    <defs>
     <path d="M 0 8.485281 
L 5.091169 0 
L 0 -8.485281 
L -5.091169 0 
z
" id="m83ed9fab94" style="stroke:#ff00ff;stroke-linejoin:miter;stroke-width:1.5;"/>
    </defs>
    <g>
     <use style="fill-opacity:0;stroke:#ff00ff;stroke-linejoin:miter;stroke-width:1.5;" x="67.850577" xlink:href="#m83ed9fab94" y="292.623767"/>
     <use style="fill-opacity:0;stroke:#ff00ff;stroke-linejoin:miter;stroke-width:1.5;" x="181.830326" xlink:href="#m83ed9fab94" y="233.634926"/>
     <use style="fill-opacity:0;stroke:#ff00ff;stroke-linejoin:miter;stroke-width:1.5;" x="220.151466" xlink:href="#m83ed9fab94" y="155.685386"/>
     <use style="fill-opacity:0;stroke:#ff00ff;stroke-linejoin:miter;stroke-width:1.5;" x="266.789888" xlink:href="#m83ed9fab94" y="30.860785"/>
     <use style="fill-opacity:0;stroke:#ff00ff;stroke-linejoin:miter;stroke-width:1.5;" x="266.789888" xlink:href="#m83ed9fab94" y="30.334099"/>
     <use style="fill-opacity:0;stroke:#ff00ff;stroke-linejoin:miter;stroke-width:1.5;" x="338.688" xlink:href="#m83ed9fab94" y="30.334099"/>
    </g>
   </g>
   <g id="line2d_42">
    <path style="fill:none;stroke:#ff00ff;stroke-linecap:square;stroke-width:1.5;"/>
    <g/>
   </g>
   <g id="line2d_43">
    <path clip-path="url(#p6197a96ba6)" d="M 206.133726 202.033761 
" style="fill:none;stroke:#ff00ff;stroke-linecap:square;stroke-width:1.5;"/>
    <defs>
     <path d="M -12 12 
L 12 -12 
M -12 -12 
L 12 12 
" id="ma6acb9d431" style="stroke:#ff00ff;"/>
    </defs>
    <g clip-path="url(#p6197a96ba6)">
     <use style="fill:#ff00ff;stroke:#ff00ff;" x="206.133726" xlink:href="#ma6acb9d431" y="202.033761"/>
    </g>
   </g>
   <g id="line2d_44">
    <defs>
     <path d="M 0 1.5 
C 0.397805 1.5 0.77937 1.341951 1.06066 1.06066 
C 1.341951 0.77937 1.5 0.397805 1.5 0 
C 1.5 -0.397805 1.341951 -0.77937 1.06066 -1.06066 
C 0.77937 -1.341951 0.397805 -1.5 0 -1.5 
C -0.397805 -1.5 -0.77937 -1.341951 -1.06066 -1.06066 
C -1.341951 -0.77937 -1.5 -0.397805 -1.5 0 
C -1.5 0.397805 -1.341951 0.77937 -1.06066 1.06066 
C -0.77937 1.341951 -0.397805 1.5 0 1.5 
z
" id="mba128c8267" style="stroke:#ff7500;"/>
    </defs>
    <g>
     <use style="fill:#ff7500;stroke:#ff7500;" x="285.51752" xlink:href="#mba128c8267" y="30.334099"/>
     <use style="fill:#ff7500;stroke:#ff7500;" x="285.51752" xlink:href="#mba128c8267" y="30.334099"/>
    </g>
   </g>
   <g id="line2d_45">
    <path d="M 17.444571 298.944 
L 17.444571 293.677139 
L 59.262141 293.677139 
L 59.262141 293.150453 
L 77.884514 293.150453 
L 77.884514 292.623767 
L 88.255778 292.623767 
L 88.255778 292.097081 
L 89.418828 292.097081 
L 89.418828 291.570395 
L 93.197415 291.570395 
L 93.197415 291.043709 
L 97.928955 291.043709 
L 97.928955 290.517023 
L 99.097574 290.517023 
L 99.097574 289.990337 
L 108.764355 289.990337 
L 108.764355 289.463651 
L 109.930396 289.463651 
L 109.930396 288.936964 
L 110.443353 288.936964 
L 110.443353 288.410278 
L 113.873839 288.410278 
L 113.873839 287.883592 
L 116.502698 287.883592 
L 116.502698 287.356906 
L 116.972471 287.356906 
L 116.972471 286.303534 
L 118.942633 286.303534 
L 118.942633 285.776848 
L 119.65247 285.776848 
L 119.65247 285.250162 
L 119.80089 285.250162 
L 119.80089 284.723476 
L 121.974949 284.723476 
L 121.974949 284.19679 
L 122.233953 284.19679 
L 122.233953 283.670104 
L 126.168212 283.670104 
L 126.168212 283.143418 
L 127.165014 283.143418 
L 127.165014 282.090045 
L 127.674226 282.090045 
L 127.674226 281.036673 
L 127.799239 281.036673 
L 127.799239 280.509987 
L 129.031467 280.509987 
L 129.031467 279.983301 
L 129.991152 279.983301 
L 129.991152 279.456615 
L 130.425122 279.456615 
L 130.425122 278.929929 
L 132.940331 278.929929 
L 132.940331 278.403243 
L 133.216421 278.403243 
L 133.307488 277.349871 
L 135.097149 277.349871 
L 135.097149 276.823185 
L 137.089613 276.823185 
L 137.089613 276.296499 
L 137.945701 276.296499 
L 137.945701 275.769812 
L 138.828032 275.769812 
L 138.828032 275.243126 
L 139.620495 275.243126 
L 139.620495 274.71644 
L 140.514223 274.71644 
L 140.514223 274.189754 
L 141.119455 274.189754 
L 141.119455 273.663068 
L 142.712875 273.663068 
L 142.712875 273.136382 
L 143.170282 273.136382 
L 143.208936 272.08301 
L 144.474645 272.08301 
L 144.486611 269.976266 
L 145.598655 269.976266 
L 145.598655 268.922893 
L 146.118279 268.922893 
L 146.118279 268.396207 
L 146.367029 268.396207 
L 146.367029 267.869521 
L 147.907696 267.869521 
L 147.907696 267.342835 
L 148.190475 267.342835 
L 148.190475 266.289463 
L 149.690956 266.289463 
L 149.690956 265.236091 
L 150.007563 265.236091 
L 150.007563 264.709405 
L 150.446473 264.709405 
L 150.446473 264.182719 
L 151.461678 264.182719 
L 151.461678 263.656033 
L 152.443774 263.656033 
L 152.443774 263.129347 
L 152.55709 263.129347 
L 152.55709 262.60266 
L 153.192929 262.60266 
L 153.192929 262.075974 
L 153.897283 262.075974 
L 153.897283 261.549288 
L 155.024532 261.549288 
L 155.024532 261.022602 
L 155.609431 261.022602 
L 155.609431 259.96923 
L 155.928852 259.96923 
L 155.928852 259.442544 
L 156.610446 259.442544 
L 156.610446 258.915858 
L 156.788581 258.915858 
L 156.788581 258.389172 
L 157.363842 258.389172 
L 157.363842 257.862486 
L 157.664184 257.862486 
L 157.664184 257.3358 
L 157.77619 257.3358 
L 157.77619 256.809114 
L 159.015067 256.809114 
L 159.015067 256.282427 
L 161.206078 256.282427 
L 161.206078 255.755741 
L 162.568423 255.755741 
L 162.568423 255.229055 
L 163.577708 255.229055 
L 163.577708 254.702369 
L 164.341251 254.702369 
L 164.341251 254.175683 
L 166.558002 254.175683 
L 166.668984 253.122311 
L 168.572648 253.122311 
L 168.572648 252.595625 
L 170.176764 252.595625 
L 170.176764 252.068939 
L 171.084848 252.068939 
L 171.084848 251.542253 
L 172.095957 251.542253 
L 172.098413 250.488881 
L 175.641664 250.488881 
L 175.641664 249.962195 
L 177.265139 249.962195 
L 177.265139 249.435508 
L 185.658433 249.435508 
L 185.710262 248.382136 
L 185.774272 248.382136 
L 185.878207 247.328764 
L 187.732658 247.328764 
L 187.732658 246.802078 
L 197.828038 246.802078 
L 197.828038 246.275392 
L 198.137504 246.275392 
L 198.137504 245.748706 
L 199.128849 245.748706 
L 199.20893 244.168648 
L 199.738804 244.168648 
L 199.738804 243.641962 
L 199.866172 243.641962 
L 199.866172 243.115275 
L 200.063402 243.115275 
L 200.063402 242.061903 
L 200.766335 242.061903 
L 200.766335 241.008531 
L 201.169229 241.008531 
L 201.169229 240.481845 
L 201.395408 240.481845 
L 201.395408 239.955159 
L 201.538983 239.955159 
L 201.538983 239.428473 
L 201.935261 239.428473 
L 201.935261 238.901787 
L 202.734027 238.901787 
L 202.734027 238.375101 
L 202.930435 238.375101 
L 202.948448 237.321729 
L 203.114706 237.321729 
L 203.137086 235.74167 
L 203.235382 235.74167 
L 203.280627 234.161612 
L 203.36913 234.161612 
L 203.421366 233.10824 
L 203.503889 233.10824 
L 203.546015 231.528182 
L 204.527684 231.528182 
L 204.527684 231.001496 
L 204.698935 231.001496 
L 204.698935 230.47481 
L 204.999289 230.47481 
L 204.999289 229.948123 
L 205.424363 229.948123 
L 205.424363 229.421437 
L 205.674664 229.421437 
L 205.674664 228.894751 
L 205.994002 228.894751 
L 205.994002 228.368065 
L 207.233926 228.368065 
L 207.233926 227.841379 
L 207.559636 227.841379 
L 207.559636 227.314693 
L 208.327044 227.314693 
L 208.327044 226.788007 
L 211.34329 226.788007 
L 211.34329 226.261321 
L 212.833433 226.261321 
L 212.833433 225.734635 
L 215.068645 225.734635 
L 215.100794 224.681263 
L 215.31575 224.681263 
L 215.367383 223.627891 
L 215.743703 223.627891 
L 215.743703 223.101204 
L 215.91553 223.101204 
L 215.91553 222.574518 
L 216.07523 222.574518 
L 216.07523 221.521146 
L 216.278767 221.521146 
L 216.278767 220.99446 
L 216.503066 220.99446 
L 216.604578 219.414402 
L 216.701698 219.414402 
L 216.796199 216.254285 
L 216.851937 216.254285 
L 216.937559 214.674227 
L 216.975812 214.674227 
L 216.975812 214.147541 
L 217.663719 214.147541 
L 217.663719 213.620855 
L 217.870639 213.620855 
L 217.870639 212.567483 
L 221.89134 212.567483 
L 221.89134 211.514111 
L 223.442658 211.514111 
L 223.443046 210.460738 
L 223.680445 210.460738 
L 223.789644 209.407366 
L 223.851757 209.407366 
L 223.891488 207.827308 
L 223.983469 207.827308 
L 223.983469 207.300622 
L 224.196595 207.300622 
L 224.231473 205.720564 
L 224.337041 205.720564 
L 224.447222 201.507075 
L 225.246284 201.507075 
L 225.246284 200.980389 
L 228.978555 200.980389 
L 228.978555 200.453703 
L 229.114674 200.453703 
L 229.114674 199.400331 
L 229.269464 199.400331 
L 229.365274 196.7669 
L 229.434907 196.7669 
L 229.519873 195.186842 
L 229.562337 195.186842 
L 229.658546 187.813237 
L 229.688481 187.813237 
L 229.688481 186.759865 
L 233.096185 186.759865 
L 233.1445 184.126434 
L 233.314943 184.126434 
L 233.373998 182.01969 
L 233.427459 182.01969 
L 233.533891 178.859574 
L 233.572189 178.859574 
L 233.670339 173.592713 
L 233.705971 173.592713 
L 233.705971 172.012655 
L 233.980106 172.012655 
L 233.980106 171.485969 
L 234.173311 171.485969 
L 234.173311 170.959282 
L 236.504674 170.959282 
L 236.504674 170.432596 
L 236.69417 170.432596 
L 236.75682 168.325852 
L 236.826448 168.325852 
L 236.936456 161.478933 
L 236.949331 161.478933 
L 236.975232 159.372189 
L 239.482196 159.372189 
L 239.482196 158.845503 
L 239.594994 158.845503 
L 239.699893 155.685386 
L 239.706406 155.685386 
L 239.722017 154.105328 
L 239.911386 154.105328 
L 240.004155 153.051956 
L 240.049108 153.051956 
L 240.049108 152.52527 
L 241.715325 152.52527 
L 241.744815 151.471897 
L 241.849102 151.471897 
L 241.931869 148.838467 
L 241.965778 148.838467 
L 242.075152 145.678351 
L 242.080836 145.678351 
L 242.094461 144.098292 
L 243.872627 144.098292 
L 243.930701 142.518234 
L 243.997057 142.518234 
L 244.105116 141.464862 
L 244.138962 141.464862 
L 244.174435 135.144629 
L 244.436273 135.144629 
L 244.436273 134.617943 
L 245.768823 134.617943 
L 245.768823 134.091257 
L 245.906591 134.091257 
L 246.013221 129.351082 
L 246.020059 129.351082 
L 246.031602 126.717652 
L 246.219502 126.717652 
L 246.219502 126.190966 
L 247.457693 126.190966 
L 247.526154 124.610907 
L 247.580166 124.610907 
L 247.684602 121.977477 
L 247.697443 121.977477 
L 247.727948 118.817361 
L 247.851161 118.817361 
L 247.851161 118.290674 
L 249.079397 118.290674 
L 249.154963 116.710616 
L 249.209389 116.710616 
L 249.267144 112.497128 
L 250.465729 112.497128 
L 250.551083 111.443755 
L 250.579414 111.443755 
L 250.675799 107.230267 
L 251.776732 107.230267 
L 251.845625 103.543464 
L 251.927832 103.543464 
L 251.976634 98.803289 
L 253.088788 98.803289 
L 253.19432 95.116487 
L 254.194512 95.116487 
L 254.285333 93.536429 
L 254.311598 93.536429 
L 254.321525 92.483056 
L 254.45734 92.483056 
L 254.45734 91.95637 
L 255.36028 91.95637 
L 255.394538 90.376312 
L 256.252577 90.376312 
L 256.334234 86.68951 
L 256.386095 86.68951 
L 256.403582 81.949335 
L 256.50107 81.949335 
L 256.50107 81.422649 
L 257.203243 81.422649 
L 257.268724 80.369277 
L 257.336145 80.369277 
L 257.351818 78.262532 
L 258.118918 78.262532 
L 258.205659 76.682474 
L 258.230966 76.682474 
L 258.248842 75.102416 
L 258.975428 75.102416 
L 259.075572 72.995672 
L 259.828009 72.995672 
L 259.922686 70.888927 
L 260.612455 70.888927 
L 260.651501 68.782183 
L 260.808439 68.782183 
L 260.808439 68.255497 
L 261.413914 68.255497 
L 261.454687 65.622066 
L 262.062333 65.622066 
L 262.170686 63.515322 
L 262.773983 63.515322 
L 262.858443 61.408578 
L 262.947234 61.408578 
L 262.947234 60.881892 
L 263.472004 60.881892 
L 263.521453 58.248461 
L 264.09616 58.248461 
L 264.15343 55.615031 
L 264.73886 55.615031 
L 264.770109 54.034973 
L 265.350848 54.034973 
L 265.354916 52.454914 
L 265.885634 52.454914 
L 265.916877 50.874856 
L 266.471075 50.874856 
L 266.48198 49.294798 
L 266.969738 49.294798 
L 267.036172 47.188054 
L 267.54975 47.188054 
L 267.560043 46.134681 
L 268.003937 46.134681 
L 268.063241 45.081309 
L 268.554457 45.081309 
L 268.559778 43.501251 
L 269.484259 43.501251 
L 269.501684 41.394507 
L 270.372957 41.394507 
L 270.372957 40.867821 
L 270.770267 40.867821 
L 270.770267 40.341135 
L 271.257777 40.341135 
L 271.257777 39.814448 
L 271.63936 39.814448 
L 271.666794 38.23439 
L 272.05693 38.23439 
L 272.05693 37.707704 
L 272.820024 37.707704 
L 272.820024 37.181018 
L 273.197961 37.181018 
L 273.197961 36.654332 
L 273.586854 36.654332 
L 273.586854 36.127646 
L 274.301441 36.127646 
L 274.301441 35.60096 
L 274.962723 35.60096 
L 274.962723 35.074274 
L 275.275768 35.074274 
L 275.327328 34.020902 
L 275.968603 34.020902 
L 275.973659 32.967529 
L 276.595398 32.967529 
L 276.595398 32.440843 
L 277.19601 32.440843 
L 277.19601 31.914157 
L 279.906414 31.914157 
L 279.906414 31.387471 
L 283.161698 31.387471 
L 283.161698 30.860785 
L 285.51752 30.860785 
L 285.51752 30.334099 
L 338.688 30.334099 
L 338.688 30.334099 
" style="fill:none;stroke:#ff7500;stroke-linecap:square;stroke-width:1.5;"/>
   </g>
   <g id="line2d_46">
    <defs>
     <path d="M 0 -6 
L -1.347084 -1.854102 
L -5.706339 -1.854102 
L -2.179628 0.708204 
L -3.526712 4.854102 
L -0 2.291796 
L 3.526712 4.854102 
L 2.179628 0.708204 
L 5.706339 -1.854102 
L 1.347084 -1.854102 
z
" id="mc8d0c52eb5" style="stroke:#ff7500;stroke-linejoin:bevel;stroke-width:1.5;"/>
    </defs>
    <g>
     <use style="fill-opacity:0;stroke:#ff7500;stroke-linejoin:bevel;stroke-width:1.5;" x="135.097149" xlink:href="#mc8d0c52eb5" y="276.823185"/>
     <use style="fill-opacity:0;stroke:#ff7500;stroke-linejoin:bevel;stroke-width:1.5;" x="204.999289" xlink:href="#mc8d0c52eb5" y="230.47481"/>
     <use style="fill-opacity:0;stroke:#ff7500;stroke-linejoin:bevel;stroke-width:1.5;" x="247.727948" xlink:href="#mc8d0c52eb5" y="118.817361"/>
     <use style="fill-opacity:0;stroke:#ff7500;stroke-linejoin:bevel;stroke-width:1.5;" x="285.51752" xlink:href="#mc8d0c52eb5" y="30.334099"/>
     <use style="fill-opacity:0;stroke:#ff7500;stroke-linejoin:bevel;stroke-width:1.5;" x="285.51752" xlink:href="#mc8d0c52eb5" y="30.334099"/>
     <use style="fill-opacity:0;stroke:#ff7500;stroke-linejoin:bevel;stroke-width:1.5;" x="338.688" xlink:href="#mc8d0c52eb5" y="30.334099"/>
    </g>
   </g>
   <g id="line2d_47">
    <path style="fill:none;stroke:#ff7500;stroke-linecap:square;stroke-width:1.5;"/>
    <g/>
   </g>
   <g id="line2d_48">
    <path clip-path="url(#p6197a96ba6)" d="M 206.133726 228.368065 
" style="fill:none;stroke:#ff7500;stroke-linecap:square;stroke-width:1.5;"/>
    <defs>
     <path d="M -12 12 
L 12 -12 
M -12 -12 
L 12 12 
" id="mcd49fb24df" style="stroke:#ff7500;"/>
    </defs>
    <g clip-path="url(#p6197a96ba6)">
     <use style="fill:#ff7500;stroke:#ff7500;" x="206.133726" xlink:href="#mcd49fb24df" y="228.368065"/>
    </g>
   </g>
   <g id="line2d_49">
    <path d="M 338.688 93.536429 
L 369.60768 293.571802 
" style="fill:none;stroke:#000080;stroke-linecap:square;stroke-width:1.5;"/>
    <g>
     <use style="fill-opacity:0;stroke:#000080;stroke-width:1.5;" x="338.688" xlink:href="#mec5e0b904c" y="93.536429"/>
     <use style="fill-opacity:0;stroke:#000080;stroke-width:1.5;" x="369.60768" xlink:href="#mec5e0b904c" y="293.571802"/>
    </g>
   </g>
   <g id="line2d_50">
    <path d="M 338.688 30.334099 
L 369.60768 207.616634 
" style="fill:none;stroke:#ff7500;stroke-linecap:square;stroke-width:1.5;"/>
    <g>
     <use style="fill-opacity:0;stroke:#ff7500;stroke-linejoin:bevel;stroke-width:1.5;" x="338.688" xlink:href="#mc8d0c52eb5" y="30.334099"/>
     <use style="fill-opacity:0;stroke:#ff7500;stroke-linejoin:bevel;stroke-width:1.5;" x="369.60768" xlink:href="#mc8d0c52eb5" y="207.616634"/>
    </g>
   </g>
   <g id="line2d_51">
    <path d="M 338.688 30.334099 
L 369.60768 121.661465 
" style="fill:none;stroke:#ff00ff;stroke-linecap:square;stroke-width:1.5;"/>
    <g>
     <use style="fill-opacity:0;stroke:#ff00ff;stroke-linejoin:miter;stroke-width:1.5;" x="338.688" xlink:href="#m83ed9fab94" y="30.334099"/>
     <use style="fill-opacity:0;stroke:#ff00ff;stroke-linejoin:miter;stroke-width:1.5;" x="369.60768" xlink:href="#m83ed9fab94" y="121.661465"/>
    </g>
   </g>
   <g id="line2d_52">
    <path d="M 338.688 298.944 
L 338.688 30.334099 
" style="fill:none;stroke:#000000;stroke-linecap:square;stroke-width:1.5;"/>
   </g>
   <g id="patch_3">
    <path d="M 57.6 298.944 
L 57.6 27.648 
" style="fill:none;stroke:#000000;stroke-linecap:square;stroke-linejoin:miter;stroke-width:0.8;"/>
   </g>
   <g id="patch_4">
    <path d="M 338.688 298.944 
L 338.688 27.648 
" style="fill:none;stroke:#000000;stroke-linecap:square;stroke-linejoin:miter;stroke-width:0.8;"/>
   </g>
   <g id="patch_5">
    <path d="M 57.6 298.944 
L 338.688 298.944 
" style="fill:none;stroke:#000000;stroke-linecap:square;stroke-linejoin:miter;stroke-width:0.8;"/>
   </g>
   <g id="patch_6">
    <path d="M 57.6 27.648 
L 338.688 27.648 
" style="fill:none;stroke:#000000;stroke-linecap:square;stroke-linejoin:miter;stroke-width:0.8;"/>
   </g>
   <g id="text_13">
    <!-- DE -->
    <g transform="translate(375.22944 298.262739)scale(0.17 -0.17)">
     <defs>
      <path d="M 1259 4147 
L 1259 519 
L 2022 519 
Q 2988 519 3436 956 
Q 3884 1394 3884 2338 
Q 3884 3275 3436 3711 
Q 2988 4147 2022 4147 
L 1259 4147 
z
M 628 4666 
L 1925 4666 
Q 3281 4666 3915 4102 
Q 4550 3538 4550 2338 
Q 4550 1131 3912 565 
Q 3275 0 1925 0 
L 628 0 
L 628 4666 
z
" id="DejaVuSans-44" transform="scale(0.015625)"/>
      <path d="M 628 4666 
L 3578 4666 
L 3578 4134 
L 1259 4134 
L 1259 2753 
L 3481 2753 
L 3481 2222 
L 1259 2222 
L 1259 531 
L 3634 531 
L 3634 0 
L 628 0 
L 628 4666 
z
" id="DejaVuSans-45" transform="scale(0.015625)"/>
     </defs>
     <use xlink:href="#DejaVuSans-44"/>
     <use x="77.001953" xlink:href="#DejaVuSans-45"/>
    </g>
   </g>
   <g id="text_14">
    <!-- JADE -->
    <g transform="translate(375.22944 212.307571)scale(0.17 -0.17)">
     <defs>
      <path d="M 628 4666 
L 1259 4666 
L 1259 325 
Q 1259 -519 939 -900 
Q 619 -1281 -91 -1281 
L -331 -1281 
L -331 -750 
L -134 -750 
Q 284 -750 456 -515 
Q 628 -281 628 325 
L 628 4666 
z
" id="DejaVuSans-4a" transform="scale(0.015625)"/>
      <path d="M 2188 4044 
L 1331 1722 
L 3047 1722 
L 2188 4044 
z
M 1831 4666 
L 2547 4666 
L 4325 0 
L 3669 0 
L 3244 1197 
L 1141 1197 
L 716 0 
L 50 0 
L 1831 4666 
z
" id="DejaVuSans-41" transform="scale(0.015625)"/>
     </defs>
     <use xlink:href="#DejaVuSans-4a"/>
     <use x="27.742188" xlink:href="#DejaVuSans-41"/>
     <use x="96.150391" xlink:href="#DejaVuSans-44"/>
     <use x="173.152344" xlink:href="#DejaVuSans-45"/>
    </g>
   </g>
   <g id="text_15">
    <!-- DEAE -->
    <g transform="translate(375.22944 126.352403)scale(0.17 -0.17)">
     <use xlink:href="#DejaVuSans-44"/>
     <use x="77.001953" xlink:href="#DejaVuSans-45"/>
     <use x="140.185547" xlink:href="#DejaVuSans-41"/>
     <use x="208.59375" xlink:href="#DejaVuSans-45"/>
    </g>
   </g>
   <g id="text_16">
    <!-- best 2009 -->
    <g transform="translate(375.22944 40.397235)scale(0.17 -0.17)">
     <defs>
      <path d="M 3116 1747 
Q 3116 2381 2855 2742 
Q 2594 3103 2138 3103 
Q 1681 3103 1420 2742 
Q 1159 2381 1159 1747 
Q 1159 1113 1420 752 
Q 1681 391 2138 391 
Q 2594 391 2855 752 
Q 3116 1113 3116 1747 
z
M 1159 2969 
Q 1341 3281 1617 3432 
Q 1894 3584 2278 3584 
Q 2916 3584 3314 3078 
Q 3713 2572 3713 1747 
Q 3713 922 3314 415 
Q 2916 -91 2278 -91 
Q 1894 -91 1617 61 
Q 1341 213 1159 525 
L 1159 0 
L 581 0 
L 581 4863 
L 1159 4863 
L 1159 2969 
z
" id="DejaVuSans-62" transform="scale(0.015625)"/>
      <path d="M 703 97 
L 703 672 
Q 941 559 1184 500 
Q 1428 441 1663 441 
Q 2288 441 2617 861 
Q 2947 1281 2994 2138 
Q 2813 1869 2534 1725 
Q 2256 1581 1919 1581 
Q 1219 1581 811 2004 
Q 403 2428 403 3163 
Q 403 3881 828 4315 
Q 1253 4750 1959 4750 
Q 2769 4750 3195 4129 
Q 3622 3509 3622 2328 
Q 3622 1225 3098 567 
Q 2575 -91 1691 -91 
Q 1453 -91 1209 -44 
Q 966 3 703 97 
z
M 1959 2075 
Q 2384 2075 2632 2365 
Q 2881 2656 2881 3163 
Q 2881 3666 2632 3958 
Q 2384 4250 1959 4250 
Q 1534 4250 1286 3958 
Q 1038 3666 1038 3163 
Q 1038 2656 1286 2365 
Q 1534 2075 1959 2075 
z
" id="DejaVuSans-39" transform="scale(0.015625)"/>
     </defs>
     <use xlink:href="#DejaVuSans-62"/>
     <use x="63.476562" xlink:href="#DejaVuSans-65"/>
     <use x="125" xlink:href="#DejaVuSans-73"/>
     <use x="177.099609" xlink:href="#DejaVuSans-74"/>
     <use x="216.308594" xlink:href="#DejaVuSans-20"/>
     <use x="248.095703" xlink:href="#DejaVuSans-32"/>
     <use x="311.71875" xlink:href="#DejaVuSans-30"/>
     <use x="375.341797" xlink:href="#DejaVuSans-30"/>
     <use x="438.964844" xlink:href="#DejaVuSans-39"/>
    </g>
   </g>
   <g id="text_17">
    <!-- bbob f22, 10-D -->
    <g transform="translate(60.41088 38.111366)scale(0.102 -0.102)">
     <use xlink:href="#DejaVuSans-62"/>
     <use x="63.476562" xlink:href="#DejaVuSans-62"/>
     <use x="126.953125" xlink:href="#DejaVuSans-6f"/>
     <use x="188.134766" xlink:href="#DejaVuSans-62"/>
     <use x="251.611328" xlink:href="#DejaVuSans-20"/>
     <use x="283.398438" xlink:href="#DejaVuSans-66"/>
     <use x="318.603516" xlink:href="#DejaVuSans-32"/>
     <use x="382.226562" xlink:href="#DejaVuSans-32"/>
     <use x="445.849609" xlink:href="#DejaVuSans-2c"/>
     <use x="477.636719" xlink:href="#DejaVuSans-20"/>
     <use x="509.423828" xlink:href="#DejaVuSans-31"/>
     <use x="573.046875" xlink:href="#DejaVuSans-30"/>
     <use x="636.669922" xlink:href="#DejaVuSans-2d"/>
     <use x="672.753906" xlink:href="#DejaVuSans-44"/>
    </g>
    <!-- 51 targets: 100..1e-08 -->
    <g transform="translate(60.41088 49.533135)scale(0.102 -0.102)">
     <defs>
      <path d="M 691 4666 
L 3169 4666 
L 3169 4134 
L 1269 4134 
L 1269 2991 
Q 1406 3038 1543 3061 
Q 1681 3084 1819 3084 
Q 2600 3084 3056 2656 
Q 3513 2228 3513 1497 
Q 3513 744 3044 326 
Q 2575 -91 1722 -91 
Q 1428 -91 1123 -41 
Q 819 9 494 109 
L 494 744 
Q 775 591 1075 516 
Q 1375 441 1709 441 
Q 2250 441 2565 725 
Q 2881 1009 2881 1497 
Q 2881 1984 2565 2268 
Q 2250 2553 1709 2553 
Q 1456 2553 1204 2497 
Q 953 2441 691 2322 
L 691 4666 
z
" id="DejaVuSans-35" transform="scale(0.015625)"/>
      <path d="M 750 794 
L 1409 794 
L 1409 0 
L 750 0 
L 750 794 
z
M 750 3309 
L 1409 3309 
L 1409 2516 
L 750 2516 
L 750 3309 
z
" id="DejaVuSans-3a" transform="scale(0.015625)"/>
     </defs>
     <use xlink:href="#DejaVuSans-35"/>
     <use x="63.623047" xlink:href="#DejaVuSans-31"/>
     <use x="127.246094" xlink:href="#DejaVuSans-20"/>
     <use x="159.033203" xlink:href="#DejaVuSans-74"/>
     <use x="198.242188" xlink:href="#DejaVuSans-61"/>
     <use x="259.521484" xlink:href="#DejaVuSans-72"/>
     <use x="298.884766" xlink:href="#DejaVuSans-67"/>
     <use x="362.361328" xlink:href="#DejaVuSans-65"/>
     <use x="423.884766" xlink:href="#DejaVuSans-74"/>
     <use x="463.09375" xlink:href="#DejaVuSans-73"/>
     <use x="515.193359" xlink:href="#DejaVuSans-3a"/>
     <use x="548.884766" xlink:href="#DejaVuSans-20"/>
     <use x="580.671875" xlink:href="#DejaVuSans-31"/>
     <use x="644.294922" xlink:href="#DejaVuSans-30"/>
     <use x="707.917969" xlink:href="#DejaVuSans-30"/>
     <use x="771.541016" xlink:href="#DejaVuSans-2e"/>
     <use x="803.328125" xlink:href="#DejaVuSans-2e"/>
     <use x="835.115234" xlink:href="#DejaVuSans-31"/>
     <use x="898.738281" xlink:href="#DejaVuSans-65"/>
     <use x="960.261719" xlink:href="#DejaVuSans-2d"/>
     <use x="996.345703" xlink:href="#DejaVuSans-30"/>
     <use x="1059.96875" xlink:href="#DejaVuSans-38"/>
    </g>
    <!-- 15 instances -->
    <g transform="translate(60.41088 60.954904)scale(0.102 -0.102)">
     <use xlink:href="#DejaVuSans-31"/>
     <use x="63.623047" xlink:href="#DejaVuSans-35"/>
     <use x="127.246094" xlink:href="#DejaVuSans-20"/>
     <use x="159.033203" xlink:href="#DejaVuSans-69"/>
     <use x="186.816406" xlink:href="#DejaVuSans-6e"/>
     <use x="250.195312" xlink:href="#DejaVuSans-73"/>
     <use x="302.294922" xlink:href="#DejaVuSans-74"/>
     <use x="341.503906" xlink:href="#DejaVuSans-61"/>
     <use x="402.783203" xlink:href="#DejaVuSans-6e"/>
     <use x="466.162109" xlink:href="#DejaVuSans-63"/>
     <use x="521.142578" xlink:href="#DejaVuSans-65"/>
     <use x="582.666016" xlink:href="#DejaVuSans-73"/>
    </g>
   </g>
   <g id="text_18">
    <!-- v2.4 -->
    <g style="fill:#808080;" transform="translate(187.233062 294.151352)scale(0.1 -0.1)">
     <use xlink:href="#DejaVuSans-76"/>
     <use x="59.179688" xlink:href="#DejaVuSans-32"/>
     <use x="122.802734" xlink:href="#DejaVuSans-2e"/>
     <use x="154.589844" xlink:href="#DejaVuSans-34"/>
    </g>
   </g>
   <g id="text_19">
    <!-- 22 Gallagher 21 peaks -->
    <g transform="translate(85.019 21.648)scale(0.2 -0.2)">
     <defs>
      <path d="M 3809 666 
L 3809 1919 
L 2778 1919 
L 2778 2438 
L 4434 2438 
L 4434 434 
Q 4069 175 3628 42 
Q 3188 -91 2688 -91 
Q 1594 -91 976 548 
Q 359 1188 359 2328 
Q 359 3472 976 4111 
Q 1594 4750 2688 4750 
Q 3144 4750 3555 4637 
Q 3966 4525 4313 4306 
L 4313 3634 
Q 3963 3931 3569 4081 
Q 3175 4231 2741 4231 
Q 1884 4231 1454 3753 
Q 1025 3275 1025 2328 
Q 1025 1384 1454 906 
Q 1884 428 2741 428 
Q 3075 428 3337 486 
Q 3600 544 3809 666 
z
" id="DejaVuSans-47" transform="scale(0.015625)"/>
      <path d="M 3513 2113 
L 3513 0 
L 2938 0 
L 2938 2094 
Q 2938 2591 2744 2837 
Q 2550 3084 2163 3084 
Q 1697 3084 1428 2787 
Q 1159 2491 1159 1978 
L 1159 0 
L 581 0 
L 581 4863 
L 1159 4863 
L 1159 2956 
Q 1366 3272 1645 3428 
Q 1925 3584 2291 3584 
Q 2894 3584 3203 3211 
Q 3513 2838 3513 2113 
z
" id="DejaVuSans-68" transform="scale(0.015625)"/>
      <path d="M 581 4863 
L 1159 4863 
L 1159 1991 
L 2875 3500 
L 3609 3500 
L 1753 1863 
L 3688 0 
L 2938 0 
L 1159 1709 
L 1159 0 
L 581 0 
L 581 4863 
z
" id="DejaVuSans-6b" transform="scale(0.015625)"/>
     </defs>
     <use xlink:href="#DejaVuSans-32"/>
     <use x="63.623047" xlink:href="#DejaVuSans-32"/>
     <use x="127.246094" xlink:href="#DejaVuSans-20"/>
     <use x="159.033203" xlink:href="#DejaVuSans-47"/>
     <use x="236.523438" xlink:href="#DejaVuSans-61"/>
     <use x="297.802734" xlink:href="#DejaVuSans-6c"/>
     <use x="325.585938" xlink:href="#DejaVuSans-6c"/>
     <use x="353.369141" xlink:href="#DejaVuSans-61"/>
     <use x="414.648438" xlink:href="#DejaVuSans-67"/>
     <use x="478.125" xlink:href="#DejaVuSans-68"/>
     <use x="541.503906" xlink:href="#DejaVuSans-65"/>
     <use x="603.027344" xlink:href="#DejaVuSans-72"/>
     <use x="644.140625" xlink:href="#DejaVuSans-20"/>
     <use x="675.927734" xlink:href="#DejaVuSans-32"/>
     <use x="739.550781" xlink:href="#DejaVuSans-31"/>
     <use x="803.173828" xlink:href="#DejaVuSans-20"/>
     <use x="834.960938" xlink:href="#DejaVuSans-70"/>
     <use x="898.4375" xlink:href="#DejaVuSans-65"/>
     <use x="959.960938" xlink:href="#DejaVuSans-61"/>
     <use x="1021.240234" xlink:href="#DejaVuSans-6b"/>
     <use x="1079.150391" xlink:href="#DejaVuSans-73"/>
    </g>
   </g>
  </g>
 </g>
 <defs>
  <clipPath id="p6197a96ba6">
   <rect height="271.296" width="281.088" x="57.6" y="27.648"/>
  </clipPath>
 </defs>
</svg>
