<?xml version="1.0" encoding="utf-8" standalone="no"?>
<!DOCTYPE svg PUBLIC "-//W3C//DTD SVG 1.1//EN"
  "http://www.w3.org/Graphics/SVG/1.1/DTD/svg11.dtd">
<svg height="345.6pt" version="1.1" viewBox="0 0 460.8 345.6" width="460.8pt" xmlns="http://www.w3.org/2000/svg" xmlns:xlink="http://www.w3.org/1999/xlink">
 <metadata>
  <rdf:RDF xmlns:cc="http://creativecommons.org/ns#" xmlns:dc="http://purl.org/dc/elements/1.1/" xmlns:rdf="http://www.w3.org/1999/02/22-rdf-syntax-ns#">
   <cc:Work>
    <dc:type rdf:resource="http://purl.org/dc/dcmitype/StillImage"/>
    <dc:date>2021-04-20T12:28:34.674613</dc:date>
    <dc:format>image/svg+xml</dc:format>
    <dc:creator>
     <cc:Agent>
      <dc:title>Matplotlib v3.4.1, https://matplotlib.org/</dc:title>
     </cc:Agent>
    </dc:creator>
   </cc:Work>
  </rdf:RDF>
 </metadata>
 <defs>
  <style type="text/css">*{stroke-linecap:butt;stroke-linejoin:round;}</style>
 </defs>
 <g id="figure_1">
  <g id="patch_1">
   <path d="M 0 345.6 
L 460.8 345.6 
L 460.8 0 
L 0 0 
z
" style="fill:#ffffff;"/>
  </g>
  <g id="axes_1">
   <g id="patch_2">
    <path d="M 57.6 298.944 
L 338.688 298.944 
L 338.688 27.648 
L 57.6 27.648 
z
" style="fill:#ffffff;"/>
   </g>
   <g id="line2d_1">
    <path d="M 5.356583 298.944 
L 5.356583 293.677139 
L 54.765787 293.677139 
L 54.765787 288.410278 
L 79.069525 288.410278 
L 79.069525 283.143418 
L 83.438118 283.143418 
L 83.438118 277.876557 
L 88.627632 277.876557 
L 88.627632 272.609696 
L 92.969447 272.609696 
L 92.969447 267.342835 
L 96.442905 267.342835 
L 96.442905 262.075974 
L 99.338119 262.075974 
L 99.338119 256.809114 
L 101.785851 256.809114 
L 101.785851 251.542253 
L 104.084239 251.542253 
L 104.084239 246.275392 
L 105.285403 246.275392 
L 105.285403 241.008531 
L 106.30264 241.008531 
L 106.30264 235.74167 
L 107.187808 235.74167 
L 107.187808 230.47481 
L 107.90885 230.47481 
L 107.90885 225.207949 
L 108.601261 225.207949 
L 108.601261 219.941088 
L 109.334689 219.941088 
L 109.334689 214.674227 
L 110.252758 214.674227 
L 110.252758 209.407366 
L 111.485729 209.407366 
L 111.485729 204.140506 
L 112.877038 204.140506 
L 112.877038 198.873645 
L 114.097313 198.873645 
L 114.097313 193.606784 
L 115.476111 193.606784 
L 115.476111 188.339923 
L 117.202696 188.339923 
L 117.202696 183.073062 
L 119.813201 183.073062 
L 119.813201 177.806202 
L 122.740699 177.806202 
L 122.740699 172.539341 
L 125.083692 172.539341 
L 125.083692 167.27248 
L 127.54041 167.27248 
L 127.54041 162.005619 
L 131.471338 162.005619 
L 131.471338 156.738758 
L 132.905511 156.738758 
L 132.905511 151.471897 
L 134.04118 151.471897 
L 134.04118 146.205037 
L 135.209496 146.205037 
L 135.209496 140.938176 
L 136.184509 140.938176 
L 136.184509 135.671315 
L 137.217107 135.671315 
L 137.217107 130.404454 
L 138.264747 130.404454 
L 138.264747 125.137593 
L 139.240888 125.137593 
L 139.240888 119.870733 
L 140.184419 119.870733 
L 140.184419 114.603872 
L 141.181008 114.603872 
L 141.181008 109.337011 
L 142.385399 109.337011 
L 142.385399 104.07015 
L 172.211004 104.07015 
L 172.211004 98.803289 
L 175.236688 98.803289 
L 175.236688 93.536429 
L 176.788512 93.536429 
L 176.788512 88.269568 
L 178.387677 88.269568 
L 178.387677 83.002707 
L 179.472097 83.002707 
L 179.472097 77.735846 
L 180.858267 77.735846 
L 180.858267 72.468985 
L 182.621596 72.468985 
L 182.621596 67.202125 
L 183.962435 67.202125 
L 183.962435 61.935264 
L 184.458974 61.935264 
L 184.458974 56.668403 
L 184.963503 56.668403 
L 184.963503 51.401542 
L 185.412981 51.401542 
L 185.412981 46.134681 
L 185.900756 46.134681 
L 185.900756 40.867821 
L 186.355754 40.867821 
L 186.355754 35.60096 
L 186.833763 35.60096 
L 186.833763 30.334099 
L 338.688 30.334099 
" style="fill:none;stroke:#f5deb3;stroke-linecap:square;stroke-width:4;"/>
   </g>
   <g id="line2d_2">
    <defs>
     <path d="M 0 7.778175 
L 7.778175 0 
L 0 -7.778175 
L -7.778175 0 
z
" id="mddbc9475cb" style="stroke:#f5deb3;stroke-linejoin:miter;stroke-width:1.5;"/>
    </defs>
    <g>
     <use style="fill:#f5deb3;stroke:#f5deb3;stroke-linejoin:miter;stroke-width:1.5;" x="79.069525" xlink:href="#mddbc9475cb" y="283.143418"/>
     <use style="fill:#f5deb3;stroke:#f5deb3;stroke-linejoin:miter;stroke-width:1.5;" x="125.083692" xlink:href="#mddbc9475cb" y="172.539341"/>
     <use style="fill:#f5deb3;stroke:#f5deb3;stroke-linejoin:miter;stroke-width:1.5;" x="178.387677" xlink:href="#mddbc9475cb" y="88.269568"/>
     <use style="fill:#f5deb3;stroke:#f5deb3;stroke-linejoin:miter;stroke-width:1.5;" x="186.833763" xlink:href="#mddbc9475cb" y="35.60096"/>
     <use style="fill:#f5deb3;stroke:#f5deb3;stroke-linejoin:miter;stroke-width:1.5;" x="186.833763" xlink:href="#mddbc9475cb" y="30.334099"/>
     <use style="fill:#f5deb3;stroke:#f5deb3;stroke-linejoin:miter;stroke-width:1.5;" x="338.688" xlink:href="#mddbc9475cb" y="30.334099"/>
    </g>
   </g>
   <g id="line2d_3">
    <path style="fill:none;stroke:#f5deb3;stroke-linecap:square;stroke-width:4;"/>
    <g/>
   </g>
   <g id="line2d_4">
    <path d="M 338.688 30.334099 
L 369.60768 35.706297 
" style="fill:none;stroke:#f5deb3;stroke-linecap:square;stroke-width:4;"/>
    <g>
     <use style="fill:#f5deb3;stroke:#f5deb3;stroke-linejoin:miter;stroke-width:1.5;" x="338.688" xlink:href="#mddbc9475cb" y="30.334099"/>
     <use style="fill:#f5deb3;stroke:#f5deb3;stroke-linejoin:miter;stroke-width:1.5;" x="369.60768" xlink:href="#mddbc9475cb" y="35.706297"/>
    </g>
   </g>
   <g id="matplotlib.axis_1">
    <g id="xtick_1">
     <g id="line2d_5">
      <path clip-path="url(#pd6ac2f8b94)" d="M 57.6 298.944 
L 57.6 27.648 
" style="fill:none;stroke:#b0b0b0;stroke-linecap:square;stroke-width:0.8;"/>
     </g>
     <g id="line2d_6">
      <defs>
       <path d="M 0 0 
L 0 3.5 
" id="m5ca95e7370" style="stroke:#000000;stroke-width:0.8;"/>
      </defs>
      <g>
       <use style="stroke:#000000;stroke-width:0.8;" x="57.6" xlink:href="#m5ca95e7370" y="298.944"/>
      </g>
     </g>
     <g id="text_1">
      <!-- 0 -->
      <g transform="translate(51.2375 321.140875)scale(0.2 -0.2)">
       <defs>
        <path d="M 2034 4250 
Q 1547 4250 1301 3770 
Q 1056 3291 1056 2328 
Q 1056 1369 1301 889 
Q 1547 409 2034 409 
Q 2525 409 2770 889 
Q 3016 1369 3016 2328 
Q 3016 3291 2770 3770 
Q 2525 4250 2034 4250 
z
M 2034 4750 
Q 2819 4750 3233 4129 
Q 3647 3509 3647 2328 
Q 3647 1150 3233 529 
Q 2819 -91 2034 -91 
Q 1250 -91 836 529 
Q 422 1150 422 2328 
Q 422 3509 836 4129 
Q 1250 4750 2034 4750 
z
" id="DejaVuSans-30" transform="scale(0.015625)"/>
       </defs>
       <use xlink:href="#DejaVuSans-30"/>
      </g>
     </g>
    </g>
    <g id="xtick_2">
     <g id="line2d_7">
      <path clip-path="url(#pd6ac2f8b94)" d="M 137.910857 298.944 
L 137.910857 27.648 
" style="fill:none;stroke:#b0b0b0;stroke-linecap:square;stroke-width:0.8;"/>
     </g>
     <g id="line2d_8">
      <g>
       <use style="stroke:#000000;stroke-width:0.8;" x="137.910857" xlink:href="#m5ca95e7370" y="298.944"/>
      </g>
     </g>
     <g id="text_2">
      <!-- 2 -->
      <g transform="translate(131.548357 321.140875)scale(0.2 -0.2)">
       <defs>
        <path d="M 1228 531 
L 3431 531 
L 3431 0 
L 469 0 
L 469 531 
Q 828 903 1448 1529 
Q 2069 2156 2228 2338 
Q 2531 2678 2651 2914 
Q 2772 3150 2772 3378 
Q 2772 3750 2511 3984 
Q 2250 4219 1831 4219 
Q 1534 4219 1204 4116 
Q 875 4013 500 3803 
L 500 4441 
Q 881 4594 1212 4672 
Q 1544 4750 1819 4750 
Q 2544 4750 2975 4387 
Q 3406 4025 3406 3419 
Q 3406 3131 3298 2873 
Q 3191 2616 2906 2266 
Q 2828 2175 2409 1742 
Q 1991 1309 1228 531 
z
" id="DejaVuSans-32" transform="scale(0.015625)"/>
       </defs>
       <use xlink:href="#DejaVuSans-32"/>
      </g>
     </g>
    </g>
    <g id="xtick_3">
     <g id="line2d_9">
      <path clip-path="url(#pd6ac2f8b94)" d="M 218.221714 298.944 
L 218.221714 27.648 
" style="fill:none;stroke:#b0b0b0;stroke-linecap:square;stroke-width:0.8;"/>
     </g>
     <g id="line2d_10">
      <g>
       <use style="stroke:#000000;stroke-width:0.8;" x="218.221714" xlink:href="#m5ca95e7370" y="298.944"/>
      </g>
     </g>
     <g id="text_3">
      <!-- 4 -->
      <g transform="translate(211.859214 321.140875)scale(0.2 -0.2)">
       <defs>
        <path d="M 2419 4116 
L 825 1625 
L 2419 1625 
L 2419 4116 
z
M 2253 4666 
L 3047 4666 
L 3047 1625 
L 3713 1625 
L 3713 1100 
L 3047 1100 
L 3047 0 
L 2419 0 
L 2419 1100 
L 313 1100 
L 313 1709 
L 2253 4666 
z
" id="DejaVuSans-34" transform="scale(0.015625)"/>
       </defs>
       <use xlink:href="#DejaVuSans-34"/>
      </g>
     </g>
    </g>
    <g id="xtick_4">
     <g id="line2d_11">
      <path clip-path="url(#pd6ac2f8b94)" d="M 298.532571 298.944 
L 298.532571 27.648 
" style="fill:none;stroke:#b0b0b0;stroke-linecap:square;stroke-width:0.8;"/>
     </g>
     <g id="line2d_12">
      <g>
       <use style="stroke:#000000;stroke-width:0.8;" x="298.532571" xlink:href="#m5ca95e7370" y="298.944"/>
      </g>
     </g>
     <g id="text_4">
      <!-- 6 -->
      <g transform="translate(292.170071 321.140875)scale(0.2 -0.2)">
       <defs>
        <path d="M 2113 2584 
Q 1688 2584 1439 2293 
Q 1191 2003 1191 1497 
Q 1191 994 1439 701 
Q 1688 409 2113 409 
Q 2538 409 2786 701 
Q 3034 994 3034 1497 
Q 3034 2003 2786 2293 
Q 2538 2584 2113 2584 
z
M 3366 4563 
L 3366 3988 
Q 3128 4100 2886 4159 
Q 2644 4219 2406 4219 
Q 1781 4219 1451 3797 
Q 1122 3375 1075 2522 
Q 1259 2794 1537 2939 
Q 1816 3084 2150 3084 
Q 2853 3084 3261 2657 
Q 3669 2231 3669 1497 
Q 3669 778 3244 343 
Q 2819 -91 2113 -91 
Q 1303 -91 875 529 
Q 447 1150 447 2328 
Q 447 3434 972 4092 
Q 1497 4750 2381 4750 
Q 2619 4750 2861 4703 
Q 3103 4656 3366 4563 
z
" id="DejaVuSans-36" transform="scale(0.015625)"/>
       </defs>
       <use xlink:href="#DejaVuSans-36"/>
      </g>
     </g>
    </g>
    <g id="xtick_5">
     <g id="line2d_13">
      <path clip-path="url(#pd6ac2f8b94)" d="M 97.755429 298.944 
L 97.755429 27.648 
" style="fill:none;stroke:#b0b0b0;stroke-linecap:square;stroke-width:0.8;"/>
     </g>
     <g id="line2d_14">
      <defs>
       <path d="M 0 0 
L 0 2 
" id="m914e57a20f" style="stroke:#000000;stroke-width:0.6;"/>
      </defs>
      <g>
       <use style="stroke:#000000;stroke-width:0.6;" x="97.755429" xlink:href="#m914e57a20f" y="298.944"/>
      </g>
     </g>
    </g>
    <g id="xtick_6">
     <g id="line2d_15">
      <path clip-path="url(#pd6ac2f8b94)" d="M 178.066286 298.944 
L 178.066286 27.648 
" style="fill:none;stroke:#b0b0b0;stroke-linecap:square;stroke-width:0.8;"/>
     </g>
     <g id="line2d_16">
      <g>
       <use style="stroke:#000000;stroke-width:0.6;" x="178.066286" xlink:href="#m914e57a20f" y="298.944"/>
      </g>
     </g>
    </g>
    <g id="xtick_7">
     <g id="line2d_17">
      <path clip-path="url(#pd6ac2f8b94)" d="M 258.377143 298.944 
L 258.377143 27.648 
" style="fill:none;stroke:#b0b0b0;stroke-linecap:square;stroke-width:0.8;"/>
     </g>
     <g id="line2d_18">
      <g>
       <use style="stroke:#000000;stroke-width:0.6;" x="258.377143" xlink:href="#m914e57a20f" y="298.944"/>
      </g>
     </g>
    </g>
    <g id="xtick_8">
     <g id="line2d_19">
      <path clip-path="url(#pd6ac2f8b94)" d="M 338.688 298.944 
L 338.688 27.648 
" style="fill:none;stroke:#b0b0b0;stroke-linecap:square;stroke-width:0.8;"/>
     </g>
     <g id="line2d_20">
      <g>
       <use style="stroke:#000000;stroke-width:0.6;" x="338.688" xlink:href="#m914e57a20f" y="298.944"/>
      </g>
     </g>
    </g>
    <g id="text_5">
     <!-- log10(# f-evals / dimension) -->
     <g transform="translate(77.764078 342.217594)scale(0.17 -0.17)">
      <defs>
       <path d="M 603 4863 
L 1178 4863 
L 1178 0 
L 603 0 
L 603 4863 
z
" id="DejaVuSans-6c" transform="scale(0.015625)"/>
       <path d="M 1959 3097 
Q 1497 3097 1228 2736 
Q 959 2375 959 1747 
Q 959 1119 1226 758 
Q 1494 397 1959 397 
Q 2419 397 2687 759 
Q 2956 1122 2956 1747 
Q 2956 2369 2687 2733 
Q 2419 3097 1959 3097 
z
M 1959 3584 
Q 2709 3584 3137 3096 
Q 3566 2609 3566 1747 
Q 3566 888 3137 398 
Q 2709 -91 1959 -91 
Q 1206 -91 779 398 
Q 353 888 353 1747 
Q 353 2609 779 3096 
Q 1206 3584 1959 3584 
z
" id="DejaVuSans-6f" transform="scale(0.015625)"/>
       <path d="M 2906 1791 
Q 2906 2416 2648 2759 
Q 2391 3103 1925 3103 
Q 1463 3103 1205 2759 
Q 947 2416 947 1791 
Q 947 1169 1205 825 
Q 1463 481 1925 481 
Q 2391 481 2648 825 
Q 2906 1169 2906 1791 
z
M 3481 434 
Q 3481 -459 3084 -895 
Q 2688 -1331 1869 -1331 
Q 1566 -1331 1297 -1286 
Q 1028 -1241 775 -1147 
L 775 -588 
Q 1028 -725 1275 -790 
Q 1522 -856 1778 -856 
Q 2344 -856 2625 -561 
Q 2906 -266 2906 331 
L 2906 616 
Q 2728 306 2450 153 
Q 2172 0 1784 0 
Q 1141 0 747 490 
Q 353 981 353 1791 
Q 353 2603 747 3093 
Q 1141 3584 1784 3584 
Q 2172 3584 2450 3431 
Q 2728 3278 2906 2969 
L 2906 3500 
L 3481 3500 
L 3481 434 
z
" id="DejaVuSans-67" transform="scale(0.015625)"/>
       <path d="M 794 531 
L 1825 531 
L 1825 4091 
L 703 3866 
L 703 4441 
L 1819 4666 
L 2450 4666 
L 2450 531 
L 3481 531 
L 3481 0 
L 794 0 
L 794 531 
z
" id="DejaVuSans-31" transform="scale(0.015625)"/>
       <path d="M 1984 4856 
Q 1566 4138 1362 3434 
Q 1159 2731 1159 2009 
Q 1159 1288 1364 580 
Q 1569 -128 1984 -844 
L 1484 -844 
Q 1016 -109 783 600 
Q 550 1309 550 2009 
Q 550 2706 781 3412 
Q 1013 4119 1484 4856 
L 1984 4856 
z
" id="DejaVuSans-28" transform="scale(0.015625)"/>
       <path d="M 3272 2816 
L 2363 2816 
L 2100 1772 
L 3016 1772 
L 3272 2816 
z
M 2803 4594 
L 2478 3297 
L 3391 3297 
L 3719 4594 
L 4219 4594 
L 3897 3297 
L 4872 3297 
L 4872 2816 
L 3775 2816 
L 3519 1772 
L 4513 1772 
L 4513 1294 
L 3397 1294 
L 3072 0 
L 2572 0 
L 2894 1294 
L 1978 1294 
L 1656 0 
L 1153 0 
L 1478 1294 
L 494 1294 
L 494 1772 
L 1594 1772 
L 1856 2816 
L 850 2816 
L 850 3297 
L 1978 3297 
L 2297 4594 
L 2803 4594 
z
" id="DejaVuSans-23" transform="scale(0.015625)"/>
       <path id="DejaVuSans-20" transform="scale(0.015625)"/>
       <path d="M 2375 4863 
L 2375 4384 
L 1825 4384 
Q 1516 4384 1395 4259 
Q 1275 4134 1275 3809 
L 1275 3500 
L 2222 3500 
L 2222 3053 
L 1275 3053 
L 1275 0 
L 697 0 
L 697 3053 
L 147 3053 
L 147 3500 
L 697 3500 
L 697 3744 
Q 697 4328 969 4595 
Q 1241 4863 1831 4863 
L 2375 4863 
z
" id="DejaVuSans-66" transform="scale(0.015625)"/>
       <path d="M 313 2009 
L 1997 2009 
L 1997 1497 
L 313 1497 
L 313 2009 
z
" id="DejaVuSans-2d" transform="scale(0.015625)"/>
       <path d="M 3597 1894 
L 3597 1613 
L 953 1613 
Q 991 1019 1311 708 
Q 1631 397 2203 397 
Q 2534 397 2845 478 
Q 3156 559 3463 722 
L 3463 178 
Q 3153 47 2828 -22 
Q 2503 -91 2169 -91 
Q 1331 -91 842 396 
Q 353 884 353 1716 
Q 353 2575 817 3079 
Q 1281 3584 2069 3584 
Q 2775 3584 3186 3129 
Q 3597 2675 3597 1894 
z
M 3022 2063 
Q 3016 2534 2758 2815 
Q 2500 3097 2075 3097 
Q 1594 3097 1305 2825 
Q 1016 2553 972 2059 
L 3022 2063 
z
" id="DejaVuSans-65" transform="scale(0.015625)"/>
       <path d="M 191 3500 
L 800 3500 
L 1894 563 
L 2988 3500 
L 3597 3500 
L 2284 0 
L 1503 0 
L 191 3500 
z
" id="DejaVuSans-76" transform="scale(0.015625)"/>
       <path d="M 2194 1759 
Q 1497 1759 1228 1600 
Q 959 1441 959 1056 
Q 959 750 1161 570 
Q 1363 391 1709 391 
Q 2188 391 2477 730 
Q 2766 1069 2766 1631 
L 2766 1759 
L 2194 1759 
z
M 3341 1997 
L 3341 0 
L 2766 0 
L 2766 531 
Q 2569 213 2275 61 
Q 1981 -91 1556 -91 
Q 1019 -91 701 211 
Q 384 513 384 1019 
Q 384 1609 779 1909 
Q 1175 2209 1959 2209 
L 2766 2209 
L 2766 2266 
Q 2766 2663 2505 2880 
Q 2244 3097 1772 3097 
Q 1472 3097 1187 3025 
Q 903 2953 641 2809 
L 641 3341 
Q 956 3463 1253 3523 
Q 1550 3584 1831 3584 
Q 2591 3584 2966 3190 
Q 3341 2797 3341 1997 
z
" id="DejaVuSans-61" transform="scale(0.015625)"/>
       <path d="M 2834 3397 
L 2834 2853 
Q 2591 2978 2328 3040 
Q 2066 3103 1784 3103 
Q 1356 3103 1142 2972 
Q 928 2841 928 2578 
Q 928 2378 1081 2264 
Q 1234 2150 1697 2047 
L 1894 2003 
Q 2506 1872 2764 1633 
Q 3022 1394 3022 966 
Q 3022 478 2636 193 
Q 2250 -91 1575 -91 
Q 1294 -91 989 -36 
Q 684 19 347 128 
L 347 722 
Q 666 556 975 473 
Q 1284 391 1588 391 
Q 1994 391 2212 530 
Q 2431 669 2431 922 
Q 2431 1156 2273 1281 
Q 2116 1406 1581 1522 
L 1381 1569 
Q 847 1681 609 1914 
Q 372 2147 372 2553 
Q 372 3047 722 3315 
Q 1072 3584 1716 3584 
Q 2034 3584 2315 3537 
Q 2597 3491 2834 3397 
z
" id="DejaVuSans-73" transform="scale(0.015625)"/>
       <path d="M 1625 4666 
L 2156 4666 
L 531 -594 
L 0 -594 
L 1625 4666 
z
" id="DejaVuSans-2f" transform="scale(0.015625)"/>
       <path d="M 2906 2969 
L 2906 4863 
L 3481 4863 
L 3481 0 
L 2906 0 
L 2906 525 
Q 2725 213 2448 61 
Q 2172 -91 1784 -91 
Q 1150 -91 751 415 
Q 353 922 353 1747 
Q 353 2572 751 3078 
Q 1150 3584 1784 3584 
Q 2172 3584 2448 3432 
Q 2725 3281 2906 2969 
z
M 947 1747 
Q 947 1113 1208 752 
Q 1469 391 1925 391 
Q 2381 391 2643 752 
Q 2906 1113 2906 1747 
Q 2906 2381 2643 2742 
Q 2381 3103 1925 3103 
Q 1469 3103 1208 2742 
Q 947 2381 947 1747 
z
" id="DejaVuSans-64" transform="scale(0.015625)"/>
       <path d="M 603 3500 
L 1178 3500 
L 1178 0 
L 603 0 
L 603 3500 
z
M 603 4863 
L 1178 4863 
L 1178 4134 
L 603 4134 
L 603 4863 
z
" id="DejaVuSans-69" transform="scale(0.015625)"/>
       <path d="M 3328 2828 
Q 3544 3216 3844 3400 
Q 4144 3584 4550 3584 
Q 5097 3584 5394 3201 
Q 5691 2819 5691 2113 
L 5691 0 
L 5113 0 
L 5113 2094 
Q 5113 2597 4934 2840 
Q 4756 3084 4391 3084 
Q 3944 3084 3684 2787 
Q 3425 2491 3425 1978 
L 3425 0 
L 2847 0 
L 2847 2094 
Q 2847 2600 2669 2842 
Q 2491 3084 2119 3084 
Q 1678 3084 1418 2786 
Q 1159 2488 1159 1978 
L 1159 0 
L 581 0 
L 581 3500 
L 1159 3500 
L 1159 2956 
Q 1356 3278 1631 3431 
Q 1906 3584 2284 3584 
Q 2666 3584 2933 3390 
Q 3200 3197 3328 2828 
z
" id="DejaVuSans-6d" transform="scale(0.015625)"/>
       <path d="M 3513 2113 
L 3513 0 
L 2938 0 
L 2938 2094 
Q 2938 2591 2744 2837 
Q 2550 3084 2163 3084 
Q 1697 3084 1428 2787 
Q 1159 2491 1159 1978 
L 1159 0 
L 581 0 
L 581 3500 
L 1159 3500 
L 1159 2956 
Q 1366 3272 1645 3428 
Q 1925 3584 2291 3584 
Q 2894 3584 3203 3211 
Q 3513 2838 3513 2113 
z
" id="DejaVuSans-6e" transform="scale(0.015625)"/>
       <path d="M 513 4856 
L 1013 4856 
Q 1481 4119 1714 3412 
Q 1947 2706 1947 2009 
Q 1947 1309 1714 600 
Q 1481 -109 1013 -844 
L 513 -844 
Q 928 -128 1133 580 
Q 1338 1288 1338 2009 
Q 1338 2731 1133 3434 
Q 928 4138 513 4856 
z
" id="DejaVuSans-29" transform="scale(0.015625)"/>
      </defs>
      <use xlink:href="#DejaVuSans-6c"/>
      <use x="27.783203" xlink:href="#DejaVuSans-6f"/>
      <use x="88.964844" xlink:href="#DejaVuSans-67"/>
      <use x="152.441406" xlink:href="#DejaVuSans-31"/>
      <use x="216.064453" xlink:href="#DejaVuSans-30"/>
      <use x="279.6875" xlink:href="#DejaVuSans-28"/>
      <use x="318.701172" xlink:href="#DejaVuSans-23"/>
      <use x="402.490234" xlink:href="#DejaVuSans-20"/>
      <use x="434.277344" xlink:href="#DejaVuSans-66"/>
      <use x="463.982422" xlink:href="#DejaVuSans-2d"/>
      <use x="500.066406" xlink:href="#DejaVuSans-65"/>
      <use x="561.589844" xlink:href="#DejaVuSans-76"/>
      <use x="620.769531" xlink:href="#DejaVuSans-61"/>
      <use x="682.048828" xlink:href="#DejaVuSans-6c"/>
      <use x="709.832031" xlink:href="#DejaVuSans-73"/>
      <use x="761.931641" xlink:href="#DejaVuSans-20"/>
      <use x="793.71875" xlink:href="#DejaVuSans-2f"/>
      <use x="827.410156" xlink:href="#DejaVuSans-20"/>
      <use x="859.197266" xlink:href="#DejaVuSans-64"/>
      <use x="922.673828" xlink:href="#DejaVuSans-69"/>
      <use x="950.457031" xlink:href="#DejaVuSans-6d"/>
      <use x="1047.869141" xlink:href="#DejaVuSans-65"/>
      <use x="1109.392578" xlink:href="#DejaVuSans-6e"/>
      <use x="1172.771484" xlink:href="#DejaVuSans-73"/>
      <use x="1224.871094" xlink:href="#DejaVuSans-69"/>
      <use x="1252.654297" xlink:href="#DejaVuSans-6f"/>
      <use x="1313.835938" xlink:href="#DejaVuSans-6e"/>
      <use x="1377.214844" xlink:href="#DejaVuSans-29"/>
     </g>
    </g>
   </g>
   <g id="matplotlib.axis_2">
    <g id="ytick_1">
     <g id="line2d_21">
      <path clip-path="url(#pd6ac2f8b94)" d="M 57.6 298.944 
L 338.688 298.944 
" style="fill:none;stroke:#b0b0b0;stroke-linecap:square;stroke-width:0.8;"/>
     </g>
     <g id="line2d_22">
      <defs>
       <path d="M 0 0 
L -3.5 0 
" id="m4ce944f91f" style="stroke:#000000;stroke-width:0.8;"/>
      </defs>
      <g>
       <use style="stroke:#000000;stroke-width:0.8;" x="57.6" xlink:href="#m4ce944f91f" y="298.944"/>
      </g>
     </g>
     <g id="text_6">
      <!-- 0.0 -->
      <g transform="translate(25.155 305.02275)scale(0.16 -0.16)">
       <defs>
        <path d="M 684 794 
L 1344 794 
L 1344 0 
L 684 0 
L 684 794 
z
" id="DejaVuSans-2e" transform="scale(0.015625)"/>
       </defs>
       <use xlink:href="#DejaVuSans-30"/>
       <use x="63.623047" xlink:href="#DejaVuSans-2e"/>
       <use x="95.410156" xlink:href="#DejaVuSans-30"/>
      </g>
     </g>
    </g>
    <g id="ytick_2">
     <g id="line2d_23">
      <path clip-path="url(#pd6ac2f8b94)" d="M 57.6 245.22202 
L 338.688 245.22202 
" style="fill:none;stroke:#b0b0b0;stroke-linecap:square;stroke-width:0.8;"/>
     </g>
     <g id="line2d_24">
      <g>
       <use style="stroke:#000000;stroke-width:0.8;" x="57.6" xlink:href="#m4ce944f91f" y="245.22202"/>
      </g>
     </g>
     <g id="text_7">
      <!-- 0.2 -->
      <g transform="translate(25.155 251.30077)scale(0.16 -0.16)">
       <use xlink:href="#DejaVuSans-30"/>
       <use x="63.623047" xlink:href="#DejaVuSans-2e"/>
       <use x="95.410156" xlink:href="#DejaVuSans-32"/>
      </g>
     </g>
    </g>
    <g id="ytick_3">
     <g id="line2d_25">
      <path clip-path="url(#pd6ac2f8b94)" d="M 57.6 191.50004 
L 338.688 191.50004 
" style="fill:none;stroke:#b0b0b0;stroke-linecap:square;stroke-width:0.8;"/>
     </g>
     <g id="line2d_26">
      <g>
       <use style="stroke:#000000;stroke-width:0.8;" x="57.6" xlink:href="#m4ce944f91f" y="191.50004"/>
      </g>
     </g>
     <g id="text_8">
      <!-- 0.4 -->
      <g transform="translate(25.155 197.57879)scale(0.16 -0.16)">
       <use xlink:href="#DejaVuSans-30"/>
       <use x="63.623047" xlink:href="#DejaVuSans-2e"/>
       <use x="95.410156" xlink:href="#DejaVuSans-34"/>
      </g>
     </g>
    </g>
    <g id="ytick_4">
     <g id="line2d_27">
      <path clip-path="url(#pd6ac2f8b94)" d="M 57.6 137.778059 
L 338.688 137.778059 
" style="fill:none;stroke:#b0b0b0;stroke-linecap:square;stroke-width:0.8;"/>
     </g>
     <g id="line2d_28">
      <g>
       <use style="stroke:#000000;stroke-width:0.8;" x="57.6" xlink:href="#m4ce944f91f" y="137.778059"/>
      </g>
     </g>
     <g id="text_9">
      <!-- 0.6 -->
      <g transform="translate(25.155 143.856809)scale(0.16 -0.16)">
       <use xlink:href="#DejaVuSans-30"/>
       <use x="63.623047" xlink:href="#DejaVuSans-2e"/>
       <use x="95.410156" xlink:href="#DejaVuSans-36"/>
      </g>
     </g>
    </g>
    <g id="ytick_5">
     <g id="line2d_29">
      <path clip-path="url(#pd6ac2f8b94)" d="M 57.6 84.056079 
L 338.688 84.056079 
" style="fill:none;stroke:#b0b0b0;stroke-linecap:square;stroke-width:0.8;"/>
     </g>
     <g id="line2d_30">
      <g>
       <use style="stroke:#000000;stroke-width:0.8;" x="57.6" xlink:href="#m4ce944f91f" y="84.056079"/>
      </g>
     </g>
     <g id="text_10">
      <!-- 0.8 -->
      <g transform="translate(25.155 90.134829)scale(0.16 -0.16)">
       <defs>
        <path d="M 2034 2216 
Q 1584 2216 1326 1975 
Q 1069 1734 1069 1313 
Q 1069 891 1326 650 
Q 1584 409 2034 409 
Q 2484 409 2743 651 
Q 3003 894 3003 1313 
Q 3003 1734 2745 1975 
Q 2488 2216 2034 2216 
z
M 1403 2484 
Q 997 2584 770 2862 
Q 544 3141 544 3541 
Q 544 4100 942 4425 
Q 1341 4750 2034 4750 
Q 2731 4750 3128 4425 
Q 3525 4100 3525 3541 
Q 3525 3141 3298 2862 
Q 3072 2584 2669 2484 
Q 3125 2378 3379 2068 
Q 3634 1759 3634 1313 
Q 3634 634 3220 271 
Q 2806 -91 2034 -91 
Q 1263 -91 848 271 
Q 434 634 434 1313 
Q 434 1759 690 2068 
Q 947 2378 1403 2484 
z
M 1172 3481 
Q 1172 3119 1398 2916 
Q 1625 2713 2034 2713 
Q 2441 2713 2670 2916 
Q 2900 3119 2900 3481 
Q 2900 3844 2670 4047 
Q 2441 4250 2034 4250 
Q 1625 4250 1398 4047 
Q 1172 3844 1172 3481 
z
" id="DejaVuSans-38" transform="scale(0.015625)"/>
       </defs>
       <use xlink:href="#DejaVuSans-30"/>
       <use x="63.623047" xlink:href="#DejaVuSans-2e"/>
       <use x="95.410156" xlink:href="#DejaVuSans-38"/>
      </g>
     </g>
    </g>
    <g id="ytick_6">
     <g id="line2d_31">
      <path clip-path="url(#pd6ac2f8b94)" d="M 57.6 30.334099 
L 338.688 30.334099 
" style="fill:none;stroke:#b0b0b0;stroke-linecap:square;stroke-width:0.8;"/>
     </g>
     <g id="line2d_32">
      <g>
       <use style="stroke:#000000;stroke-width:0.8;" x="57.6" xlink:href="#m4ce944f91f" y="30.334099"/>
      </g>
     </g>
     <g id="text_11">
      <!-- 1.0 -->
      <g transform="translate(25.155 36.412849)scale(0.16 -0.16)">
       <use xlink:href="#DejaVuSans-31"/>
       <use x="63.623047" xlink:href="#DejaVuSans-2e"/>
       <use x="95.410156" xlink:href="#DejaVuSans-30"/>
      </g>
     </g>
    </g>
    <g id="text_12">
     <!-- Fraction of function,target pairs -->
     <g transform="translate(17.619531 297.681)rotate(-90)scale(0.17 -0.17)">
      <defs>
       <path d="M 628 4666 
L 3309 4666 
L 3309 4134 
L 1259 4134 
L 1259 2759 
L 3109 2759 
L 3109 2228 
L 1259 2228 
L 1259 0 
L 628 0 
L 628 4666 
z
" id="DejaVuSans-46" transform="scale(0.015625)"/>
       <path d="M 2631 2963 
Q 2534 3019 2420 3045 
Q 2306 3072 2169 3072 
Q 1681 3072 1420 2755 
Q 1159 2438 1159 1844 
L 1159 0 
L 581 0 
L 581 3500 
L 1159 3500 
L 1159 2956 
Q 1341 3275 1631 3429 
Q 1922 3584 2338 3584 
Q 2397 3584 2469 3576 
Q 2541 3569 2628 3553 
L 2631 2963 
z
" id="DejaVuSans-72" transform="scale(0.015625)"/>
       <path d="M 3122 3366 
L 3122 2828 
Q 2878 2963 2633 3030 
Q 2388 3097 2138 3097 
Q 1578 3097 1268 2742 
Q 959 2388 959 1747 
Q 959 1106 1268 751 
Q 1578 397 2138 397 
Q 2388 397 2633 464 
Q 2878 531 3122 666 
L 3122 134 
Q 2881 22 2623 -34 
Q 2366 -91 2075 -91 
Q 1284 -91 818 406 
Q 353 903 353 1747 
Q 353 2603 823 3093 
Q 1294 3584 2113 3584 
Q 2378 3584 2631 3529 
Q 2884 3475 3122 3366 
z
" id="DejaVuSans-63" transform="scale(0.015625)"/>
       <path d="M 1172 4494 
L 1172 3500 
L 2356 3500 
L 2356 3053 
L 1172 3053 
L 1172 1153 
Q 1172 725 1289 603 
Q 1406 481 1766 481 
L 2356 481 
L 2356 0 
L 1766 0 
Q 1100 0 847 248 
Q 594 497 594 1153 
L 594 3053 
L 172 3053 
L 172 3500 
L 594 3500 
L 594 4494 
L 1172 4494 
z
" id="DejaVuSans-74" transform="scale(0.015625)"/>
       <path d="M 544 1381 
L 544 3500 
L 1119 3500 
L 1119 1403 
Q 1119 906 1312 657 
Q 1506 409 1894 409 
Q 2359 409 2629 706 
Q 2900 1003 2900 1516 
L 2900 3500 
L 3475 3500 
L 3475 0 
L 2900 0 
L 2900 538 
Q 2691 219 2414 64 
Q 2138 -91 1772 -91 
Q 1169 -91 856 284 
Q 544 659 544 1381 
z
M 1991 3584 
L 1991 3584 
z
" id="DejaVuSans-75" transform="scale(0.015625)"/>
       <path d="M 750 794 
L 1409 794 
L 1409 256 
L 897 -744 
L 494 -744 
L 750 256 
L 750 794 
z
" id="DejaVuSans-2c" transform="scale(0.015625)"/>
       <path d="M 1159 525 
L 1159 -1331 
L 581 -1331 
L 581 3500 
L 1159 3500 
L 1159 2969 
Q 1341 3281 1617 3432 
Q 1894 3584 2278 3584 
Q 2916 3584 3314 3078 
Q 3713 2572 3713 1747 
Q 3713 922 3314 415 
Q 2916 -91 2278 -91 
Q 1894 -91 1617 61 
Q 1341 213 1159 525 
z
M 3116 1747 
Q 3116 2381 2855 2742 
Q 2594 3103 2138 3103 
Q 1681 3103 1420 2742 
Q 1159 2381 1159 1747 
Q 1159 1113 1420 752 
Q 1681 391 2138 391 
Q 2594 391 2855 752 
Q 3116 1113 3116 1747 
z
" id="DejaVuSans-70" transform="scale(0.015625)"/>
      </defs>
      <use xlink:href="#DejaVuSans-46"/>
      <use x="50.269531" xlink:href="#DejaVuSans-72"/>
      <use x="91.382812" xlink:href="#DejaVuSans-61"/>
      <use x="152.662109" xlink:href="#DejaVuSans-63"/>
      <use x="207.642578" xlink:href="#DejaVuSans-74"/>
      <use x="246.851562" xlink:href="#DejaVuSans-69"/>
      <use x="274.634766" xlink:href="#DejaVuSans-6f"/>
      <use x="335.816406" xlink:href="#DejaVuSans-6e"/>
      <use x="399.195312" xlink:href="#DejaVuSans-20"/>
      <use x="430.982422" xlink:href="#DejaVuSans-6f"/>
      <use x="492.164062" xlink:href="#DejaVuSans-66"/>
      <use x="527.369141" xlink:href="#DejaVuSans-20"/>
      <use x="559.15625" xlink:href="#DejaVuSans-66"/>
      <use x="594.361328" xlink:href="#DejaVuSans-75"/>
      <use x="657.740234" xlink:href="#DejaVuSans-6e"/>
      <use x="721.119141" xlink:href="#DejaVuSans-63"/>
      <use x="776.099609" xlink:href="#DejaVuSans-74"/>
      <use x="815.308594" xlink:href="#DejaVuSans-69"/>
      <use x="843.091797" xlink:href="#DejaVuSans-6f"/>
      <use x="904.273438" xlink:href="#DejaVuSans-6e"/>
      <use x="967.652344" xlink:href="#DejaVuSans-2c"/>
      <use x="999.439453" xlink:href="#DejaVuSans-74"/>
      <use x="1038.648438" xlink:href="#DejaVuSans-61"/>
      <use x="1099.927734" xlink:href="#DejaVuSans-72"/>
      <use x="1139.291016" xlink:href="#DejaVuSans-67"/>
      <use x="1202.767578" xlink:href="#DejaVuSans-65"/>
      <use x="1264.291016" xlink:href="#DejaVuSans-74"/>
      <use x="1303.5" xlink:href="#DejaVuSans-20"/>
      <use x="1335.287109" xlink:href="#DejaVuSans-70"/>
      <use x="1398.763672" xlink:href="#DejaVuSans-61"/>
      <use x="1460.042969" xlink:href="#DejaVuSans-69"/>
      <use x="1487.826172" xlink:href="#DejaVuSans-72"/>
      <use x="1528.939453" xlink:href="#DejaVuSans-73"/>
     </g>
    </g>
   </g>
   <g id="line2d_33">
    <defs>
     <path d="M 0 1.5 
C 0.397805 1.5 0.77937 1.341951 1.06066 1.06066 
C 1.341951 0.77937 1.5 0.397805 1.5 0 
C 1.5 -0.397805 1.341951 -0.77937 1.06066 -1.06066 
C 0.77937 -1.341951 0.397805 -1.5 0 -1.5 
C -0.397805 -1.5 -0.77937 -1.341951 -1.06066 -1.06066 
C -1.341951 -0.77937 -1.5 -0.397805 -1.5 0 
C -1.5 0.397805 -1.341951 0.77937 -1.06066 1.06066 
C -0.77937 1.341951 -0.397805 1.5 0 1.5 
z
" id="md3db69fe41" style="stroke:#f5deb3;"/>
    </defs>
    <g>
     <use style="fill:#f5deb3;stroke:#f5deb3;" x="186.833763" xlink:href="#md3db69fe41" y="30.334099"/>
     <use style="fill:#f5deb3;stroke:#f5deb3;" x="186.833763" xlink:href="#md3db69fe41" y="30.334099"/>
    </g>
   </g>
   <g id="line2d_34">
    <defs>
     <path d="M 0 1.5 
C 0.397805 1.5 0.77937 1.341951 1.06066 1.06066 
C 1.341951 0.77937 1.5 0.397805 1.5 0 
C 1.5 -0.397805 1.341951 -0.77937 1.06066 -1.06066 
C 0.77937 -1.341951 0.397805 -1.5 0 -1.5 
C -0.397805 -1.5 -0.77937 -1.341951 -1.06066 -1.06066 
C -1.341951 -0.77937 -1.5 -0.397805 -1.5 0 
C -1.5 0.397805 -1.341951 0.77937 -1.06066 1.06066 
C -0.77937 1.341951 -0.397805 1.5 0 1.5 
z
" id="m27a8ec12f0" style="stroke:#000080;"/>
    </defs>
    <g>
     <use style="fill:#000080;stroke:#000080;" x="240.064328" xlink:href="#m27a8ec12f0" y="241.008531"/>
     <use style="fill:#000080;stroke:#000080;" x="240.064328" xlink:href="#m27a8ec12f0" y="241.008531"/>
    </g>
   </g>
   <g id="line2d_35">
    <path d="M -1 298.417314 
L 39.291857 298.417314 
L 39.291857 297.890628 
L 42.677798 297.890628 
L 42.677798 297.363942 
L 51.379845 297.363942 
L 51.379845 296.837256 
L 53.154862 296.837256 
L 53.154862 296.31057 
L 55.762588 296.31057 
L 55.762588 295.783884 
L 59.654051 295.783884 
L 59.654051 295.257197 
L 76.16779 295.257197 
L 76.16779 294.730511 
L 81.884633 294.730511 
L 81.884633 294.203825 
L 85.754419 294.203825 
L 85.754419 293.677139 
L 113.752311 293.677139 
L 113.78712 292.623767 
L 120.166507 292.623767 
L 120.166507 292.097081 
L 121.942302 292.097081 
L 121.942302 291.570395 
L 122.688595 291.570395 
L 122.688595 291.043709 
L 127.532507 291.043709 
L 127.532507 290.517023 
L 134.338003 290.517023 
L 134.338003 289.990337 
L 138.770025 289.990337 
L 138.770025 289.463651 
L 142.51311 289.463651 
L 142.51311 288.936964 
L 145.005114 288.936964 
L 145.005114 288.410278 
L 145.679826 288.410278 
L 145.679826 287.883592 
L 149.12955 287.883592 
L 149.12955 287.356906 
L 150.014098 287.356906 
L 150.014098 286.83022 
L 152.062583 286.83022 
L 152.147587 285.776848 
L 157.227557 285.776848 
L 157.227557 285.250162 
L 157.732873 285.250162 
L 157.732873 284.723476 
L 158.203544 284.723476 
L 158.203544 284.19679 
L 158.476481 284.19679 
L 158.476481 283.670104 
L 161.003133 283.670104 
L 161.003133 283.143418 
L 161.238149 283.143418 
L 161.238149 282.616732 
L 161.647545 282.616732 
L 161.647545 282.090045 
L 163.350082 282.090045 
L 163.350082 281.563359 
L 164.15154 281.563359 
L 164.15154 281.036673 
L 165.460589 281.036673 
L 165.460589 280.509987 
L 166.053125 280.509987 
L 166.053125 279.983301 
L 168.485263 279.983301 
L 168.485263 279.456615 
L 169.345764 279.456615 
L 169.449686 277.876557 
L 169.462544 277.876557 
L 169.462544 277.349871 
L 170.557765 277.349871 
L 170.557765 276.823185 
L 171.082896 276.823185 
L 171.082896 276.296499 
L 171.859206 276.296499 
L 171.859206 275.769812 
L 171.996209 275.769812 
L 171.996209 275.243126 
L 172.48754 275.243126 
L 172.48754 274.71644 
L 173.62846 274.71644 
L 173.62846 274.189754 
L 173.848064 274.189754 
L 173.957665 273.136382 
L 174.096716 273.136382 
L 174.096716 272.609696 
L 174.416742 272.609696 
L 174.42319 271.556324 
L 175.039696 271.556324 
L 175.039696 271.029638 
L 175.170413 271.029638 
L 175.170413 270.502952 
L 175.938726 270.502952 
L 175.938726 269.976266 
L 176.266618 269.976266 
L 176.272901 268.922893 
L 177.558007 268.922893 
L 177.558007 268.396207 
L 177.725973 268.396207 
L 177.8182 267.342835 
L 177.923134 267.342835 
L 177.986756 266.289463 
L 178.248444 266.289463 
L 178.248444 265.762777 
L 178.460715 265.762777 
L 178.460715 265.236091 
L 178.667064 265.236091 
L 178.667064 264.709405 
L 179.086155 264.709405 
L 179.188248 263.656033 
L 179.250278 263.656033 
L 179.250278 263.129347 
L 179.667282 263.129347 
L 179.667282 262.60266 
L 179.896066 262.60266 
L 179.896066 262.075974 
L 180.356678 262.075974 
L 180.365087 261.022602 
L 180.658758 261.022602 
L 180.658758 260.495916 
L 180.907604 260.495916 
L 180.907604 259.96923 
L 181.027949 259.96923 
L 181.104302 258.915858 
L 181.17704 258.915858 
L 181.251292 257.3358 
L 181.505847 257.3358 
L 181.505847 256.809114 
L 181.677882 256.809114 
L 181.677882 256.282427 
L 181.826461 256.282427 
L 181.826461 255.755741 
L 191.049512 255.755741 
L 191.049512 255.229055 
L 192.715907 255.229055 
L 192.744492 254.175683 
L 192.842489 254.175683 
L 192.842489 253.648997 
L 193.767819 253.648997 
L 193.767819 253.122311 
L 193.980217 253.122311 
L 193.980217 252.595625 
L 200.260136 252.595625 
L 200.260136 252.068939 
L 200.463127 252.068939 
L 200.501588 251.015567 
L 200.88373 251.015567 
L 200.967421 249.435508 
L 201.073104 249.435508 
L 201.073104 248.908822 
L 205.730347 248.908822 
L 205.730347 248.382136 
L 206.064179 248.382136 
L 206.064179 247.85545 
L 209.635958 247.85545 
L 209.635958 247.328764 
L 215.763191 247.328764 
L 215.793535 246.275392 
L 218.205357 246.275392 
L 218.205357 245.748706 
L 220.174869 245.748706 
L 220.174869 245.22202 
L 225.281831 245.22202 
L 225.281831 244.168648 
L 226.635122 244.168648 
L 226.635122 243.641962 
L 229.175476 243.641962 
L 229.175476 243.115275 
L 230.301526 243.115275 
L 230.301526 242.588589 
L 232.313379 242.588589 
L 232.313379 242.061903 
L 240.064328 242.061903 
L 240.064328 241.008531 
L 338.688 241.008531 
L 338.688 241.008531 
" style="fill:none;stroke:#000080;stroke-linecap:square;stroke-width:1.5;"/>
   </g>
   <g id="line2d_36">
    <defs>
     <path d="M 0 6 
C 1.591219 6 3.117479 5.367802 4.242641 4.242641 
C 5.367802 3.117479 6 1.591219 6 0 
C 6 -1.591219 5.367802 -3.117479 4.242641 -4.242641 
C 3.117479 -5.367802 1.591219 -6 0 -6 
C -1.591219 -6 -3.117479 -5.367802 -4.242641 -4.242641 
C -5.367802 -3.117479 -6 -1.591219 -6 0 
C -6 1.591219 -5.367802 3.117479 -4.242641 4.242641 
C -3.117479 5.367802 -1.591219 6 0 6 
z
" id="m51c9e1c432" style="stroke:#000080;stroke-width:1.5;"/>
    </defs>
    <g>
     <use style="fill-opacity:0;stroke:#000080;stroke-width:1.5;" x="59.654051" xlink:href="#m51c9e1c432" y="295.257197"/>
     <use style="fill-opacity:0;stroke:#000080;stroke-width:1.5;" x="170.557765" xlink:href="#m51c9e1c432" y="276.823185"/>
     <use style="fill-opacity:0;stroke:#000080;stroke-width:1.5;" x="220.174869" xlink:href="#m51c9e1c432" y="245.748706"/>
     <use style="fill-opacity:0;stroke:#000080;stroke-width:1.5;" x="240.064328" xlink:href="#m51c9e1c432" y="241.008531"/>
     <use style="fill-opacity:0;stroke:#000080;stroke-width:1.5;" x="240.064328" xlink:href="#m51c9e1c432" y="241.008531"/>
     <use style="fill-opacity:0;stroke:#000080;stroke-width:1.5;" x="338.688" xlink:href="#m51c9e1c432" y="241.008531"/>
    </g>
   </g>
   <g id="line2d_37">
    <path style="fill:none;stroke:#000080;stroke-linecap:square;stroke-width:1.5;"/>
    <g/>
   </g>
   <g id="line2d_38">
    <path clip-path="url(#pd6ac2f8b94)" d="M 181.957749 255.755741 
" style="fill:none;stroke:#000080;stroke-linecap:square;stroke-width:1.5;"/>
    <defs>
     <path d="M -12 12 
L 12 -12 
M -12 -12 
L 12 12 
" id="m41b0606ef9" style="stroke:#000080;"/>
    </defs>
    <g clip-path="url(#pd6ac2f8b94)">
     <use style="fill:#000080;stroke:#000080;" x="181.957749" xlink:href="#m41b0606ef9" y="255.755741"/>
    </g>
   </g>
   <g id="line2d_39">
    <defs>
     <path d="M 0 1.5 
C 0.397805 1.5 0.77937 1.341951 1.06066 1.06066 
C 1.341951 0.77937 1.5 0.397805 1.5 0 
C 1.5 -0.397805 1.341951 -0.77937 1.06066 -1.06066 
C 0.77937 -1.341951 0.397805 -1.5 0 -1.5 
C -0.397805 -1.5 -0.77937 -1.341951 -1.06066 -1.06066 
C -1.341951 -0.77937 -1.5 -0.397805 -1.5 0 
C -1.5 0.397805 -1.341951 0.77937 -1.06066 1.06066 
C -0.77937 1.341951 -0.397805 1.5 0 1.5 
z
" id="m95abd532d3" style="stroke:#ff00ff;"/>
    </defs>
    <g>
     <use style="fill:#ff00ff;stroke:#ff00ff;" x="245.844571" xlink:href="#m95abd532d3" y="214.674227"/>
     <use style="fill:#ff00ff;stroke:#ff00ff;" x="245.844571" xlink:href="#m95abd532d3" y="214.674227"/>
    </g>
   </g>
   <g id="line2d_40">
    <path d="M 29.53256 298.944 
L 29.53256 297.890628 
L 53.154862 297.890628 
L 53.154862 297.363942 
L 54.245172 297.363942 
L 54.245172 296.837256 
L 74.75937 296.837256 
L 74.75937 296.31057 
L 84.495368 296.31057 
L 84.495368 295.783884 
L 88.991722 295.783884 
L 88.991722 295.257197 
L 89.766929 295.257197 
L 89.766929 294.730511 
L 93.863965 294.730511 
L 93.863965 294.203825 
L 98.853664 294.203825 
L 98.853664 293.677139 
L 102.924327 293.677139 
L 102.924327 293.150453 
L 105.787689 293.150453 
L 105.787689 292.623767 
L 113.839203 292.623767 
L 113.839203 292.097081 
L 117.274023 292.097081 
L 117.373392 291.043709 
L 118.877827 291.043709 
L 118.877827 290.517023 
L 122.083336 290.517023 
L 122.137277 289.463651 
L 127.799239 289.463651 
L 127.799239 288.936964 
L 128.694536 288.936964 
L 128.694536 288.410278 
L 129.347769 288.410278 
L 129.347769 287.883592 
L 130.491965 287.883592 
L 130.491965 287.356906 
L 132.998212 287.356906 
L 133.061659 286.303534 
L 134.305866 286.303534 
L 134.305866 285.776848 
L 136.184509 285.776848 
L 136.184509 285.250162 
L 138.927025 285.250162 
L 138.927025 284.723476 
L 139.750449 284.723476 
L 139.750449 284.19679 
L 142.516459 284.19679 
L 142.516459 283.670104 
L 142.936543 283.670104 
L 142.936543 283.143418 
L 143.803587 283.143418 
L 143.803587 282.616732 
L 146.153644 282.616732 
L 146.262014 281.563359 
L 146.730997 281.563359 
L 146.730997 281.036673 
L 147.177451 281.036673 
L 147.177451 280.509987 
L 148.272497 280.509987 
L 148.272497 279.983301 
L 151.666931 279.983301 
L 151.751909 278.929929 
L 151.949896 278.929929 
L 152.056772 277.876557 
L 152.083873 277.876557 
L 152.083873 277.349871 
L 152.491079 277.349871 
L 152.491079 276.823185 
L 153.561106 276.823185 
L 153.561106 276.296499 
L 153.911223 276.296499 
L 153.911223 275.769812 
L 154.592725 275.769812 
L 154.592725 275.243126 
L 155.958306 275.243126 
L 155.958306 274.71644 
L 156.225757 274.71644 
L 156.225757 274.189754 
L 156.501183 274.189754 
L 156.501183 273.663068 
L 156.791534 273.663068 
L 156.791534 273.136382 
L 157.101808 273.136382 
L 157.101808 272.609696 
L 157.366699 272.609696 
L 157.398103 271.556324 
L 157.991176 271.556324 
L 157.991176 271.029638 
L 158.841319 271.029638 
L 158.841319 270.502952 
L 159.546345 270.502952 
L 159.561469 269.449579 
L 160.020244 269.449579 
L 160.070482 268.396207 
L 160.497133 268.396207 
L 160.497133 267.869521 
L 160.736665 267.869521 
L 160.746084 266.816149 
L 162.099909 266.816149 
L 162.155366 265.762777 
L 162.374379 265.762777 
L 162.374379 265.236091 
L 163.073157 265.236091 
L 163.073157 264.709405 
L 163.363257 264.709405 
L 163.363257 264.182719 
L 164.033985 264.182719 
L 164.141854 263.129347 
L 164.335503 263.129347 
L 164.335503 262.60266 
L 164.545021 262.60266 
L 164.545021 262.075974 
L 165.624197 262.075974 
L 165.628646 261.022602 
L 166.510705 261.022602 
L 166.510705 260.495916 
L 166.874777 260.495916 
L 166.874777 259.96923 
L 167.483574 259.96923 
L 167.532297 258.915858 
L 167.801403 258.915858 
L 167.86334 257.3358 
L 168.13436 257.3358 
L 168.175921 256.282427 
L 169.307623 256.282427 
L 169.309064 255.229055 
L 169.484666 255.229055 
L 169.590602 254.175683 
L 169.628837 254.175683 
L 169.628837 253.648997 
L 169.787252 253.648997 
L 169.891372 252.595625 
L 169.912956 252.595625 
L 170.017714 251.542253 
L 170.420426 251.542253 
L 170.420426 251.015567 
L 170.958823 251.015567 
L 170.958823 250.488881 
L 171.15627 250.488881 
L 171.15627 249.962195 
L 171.343815 249.962195 
L 171.343815 249.435508 
L 171.605309 249.435508 
L 171.605309 248.908822 
L 171.848 248.908822 
L 171.848 248.382136 
L 172.00732 248.382136 
L 172.00732 247.85545 
L 172.491742 247.85545 
L 172.523523 246.802078 
L 173.177316 246.802078 
L 173.177316 246.275392 
L 173.746149 246.275392 
L 173.764013 245.22202 
L 173.870261 245.22202 
L 173.870261 244.695334 
L 174.072613 244.695334 
L 174.177547 243.641962 
L 174.284021 243.641962 
L 174.393077 242.588589 
L 174.62245 242.588589 
L 174.722552 241.535217 
L 174.930447 241.535217 
L 174.934099 240.481845 
L 175.171443 240.481845 
L 175.254114 239.428473 
L 175.56333 239.428473 
L 175.656688 238.375101 
L 176.288357 238.375101 
L 176.333679 237.321729 
L 176.725536 237.321729 
L 176.725536 236.795043 
L 176.909128 236.795043 
L 176.989078 235.74167 
L 177.267877 235.74167 
L 177.267877 235.214984 
L 177.385234 235.214984 
L 177.493699 234.161612 
L 177.62655 234.161612 
L 177.62655 233.634926 
L 177.786773 233.634926 
L 177.786773 233.10824 
L 178.071081 233.10824 
L 178.181873 232.054868 
L 178.241539 232.054868 
L 178.330657 231.001496 
L 178.759487 231.001496 
L 178.759487 230.47481 
L 178.918812 230.47481 
L 178.918812 229.948123 
L 179.17107 229.948123 
L 179.249056 228.894751 
L 179.443919 228.894751 
L 179.443919 228.368065 
L 179.649773 228.368065 
L 179.649773 227.841379 
L 179.854799 227.841379 
L 179.854799 227.314693 
L 179.972838 227.314693 
L 180.036427 226.261321 
L 180.862352 226.261321 
L 180.862352 225.734635 
L 181.029421 225.734635 
L 181.113457 224.681263 
L 181.337521 224.681263 
L 181.337521 224.154577 
L 181.555887 224.154577 
L 181.555887 223.627891 
L 181.68178 223.627891 
L 181.694886 222.574518 
L 181.838054 222.574518 
L 181.838054 222.047832 
L 193.6287 222.047832 
L 193.6287 221.521146 
L 193.908299 221.521146 
L 193.908299 220.467774 
L 200.912456 220.467774 
L 200.912456 219.941088 
L 205.926454 219.941088 
L 205.926454 219.414402 
L 210.001316 219.414402 
L 210.001316 218.887716 
L 218.206797 218.887716 
L 218.206797 217.834344 
L 220.262507 217.834344 
L 220.262507 217.307658 
L 229.176243 217.307658 
L 229.176243 216.780971 
L 230.302246 216.780971 
L 230.302246 216.254285 
L 235.04635 216.254285 
L 235.04635 215.727599 
L 237.375752 215.727599 
L 237.375752 215.200913 
L 245.844571 215.200913 
L 245.844571 214.674227 
L 338.688 214.674227 
L 338.688 214.674227 
" style="fill:none;stroke:#ff00ff;stroke-linecap:square;stroke-width:1.5;"/>
   </g>
   <g id="line2d_41">
    <defs>
     <path d="M 0 8.485281 
L 5.091169 0 
L 0 -8.485281 
L -5.091169 0 
z
" id="mc18533b39f" style="stroke:#ff00ff;stroke-linejoin:miter;stroke-width:1.5;"/>
    </defs>
    <g>
     <use style="fill-opacity:0;stroke:#ff00ff;stroke-linejoin:miter;stroke-width:1.5;" x="151.949896" xlink:href="#mc18533b39f" y="278.929929"/>
     <use style="fill-opacity:0;stroke:#ff00ff;stroke-linejoin:miter;stroke-width:1.5;" x="193.908299" xlink:href="#mc18533b39f" y="221.521146"/>
     <use style="fill-opacity:0;stroke:#ff00ff;stroke-linejoin:miter;stroke-width:1.5;" x="245.844571" xlink:href="#mc18533b39f" y="215.200913"/>
     <use style="fill-opacity:0;stroke:#ff00ff;stroke-linejoin:miter;stroke-width:1.5;" x="245.844571" xlink:href="#mc18533b39f" y="214.674227"/>
     <use style="fill-opacity:0;stroke:#ff00ff;stroke-linejoin:miter;stroke-width:1.5;" x="245.844571" xlink:href="#mc18533b39f" y="214.674227"/>
     <use style="fill-opacity:0;stroke:#ff00ff;stroke-linejoin:miter;stroke-width:1.5;" x="338.688" xlink:href="#mc18533b39f" y="214.674227"/>
    </g>
   </g>
   <g id="line2d_42">
    <path style="fill:none;stroke:#ff00ff;stroke-linecap:square;stroke-width:1.5;"/>
    <g/>
   </g>
   <g id="line2d_43">
    <path clip-path="url(#pd6ac2f8b94)" d="M 181.957749 222.047832 
" style="fill:none;stroke:#ff00ff;stroke-linecap:square;stroke-width:1.5;"/>
    <defs>
     <path d="M -12 12 
L 12 -12 
M -12 -12 
L 12 12 
" id="m5c651e1f56" style="stroke:#ff00ff;"/>
    </defs>
    <g clip-path="url(#pd6ac2f8b94)">
     <use style="fill:#ff00ff;stroke:#ff00ff;" x="181.957749" xlink:href="#m5c651e1f56" y="222.047832"/>
    </g>
   </g>
   <g id="line2d_44">
    <defs>
     <path d="M 0 1.5 
C 0.397805 1.5 0.77937 1.341951 1.06066 1.06066 
C 1.341951 0.77937 1.5 0.397805 1.5 0 
C 1.5 -0.397805 1.341951 -0.77937 1.06066 -1.06066 
C 0.77937 -1.341951 0.397805 -1.5 0 -1.5 
C -0.397805 -1.5 -0.77937 -1.341951 -1.06066 -1.06066 
C -1.341951 -0.77937 -1.5 -0.397805 -1.5 0 
C -1.5 0.397805 -1.341951 0.77937 -1.06066 1.06066 
C -0.77937 1.341951 -0.397805 1.5 0 1.5 
z
" id="mc29f123121" style="stroke:#ff7500;"/>
    </defs>
    <g>
     <use style="fill:#ff7500;stroke:#ff7500;" x="213.029827" xlink:href="#mc29f123121" y="172.539341"/>
     <use style="fill:#ff7500;stroke:#ff7500;" x="213.029827" xlink:href="#mc29f123121" y="172.539341"/>
    </g>
   </g>
   <g id="line2d_45">
    <path d="M 42.677798 298.944 
L 42.677798 298.417314 
L 48.691568 298.417314 
L 48.691568 297.890628 
L 50.74562 297.890628 
L 50.74562 297.363942 
L 54.245172 297.363942 
L 54.245172 296.837256 
L 60.779557 296.837256 
L 60.779557 296.31057 
L 61.836807 296.31057 
L 61.836807 295.783884 
L 79.069525 295.783884 
L 79.069525 295.257197 
L 83.635174 295.257197 
L 83.635174 294.730511 
L 85.754419 294.730511 
L 85.754419 294.203825 
L 85.927087 294.203825 
L 85.927087 293.677139 
L 97.842408 293.677139 
L 97.842408 293.150453 
L 98.100772 293.150453 
L 98.100772 292.623767 
L 98.523051 292.623767 
L 98.523051 292.097081 
L 100.456158 292.097081 
L 100.456158 291.570395 
L 105.285403 291.570395 
L 105.285403 291.043709 
L 107.263796 291.043709 
L 107.263796 290.517023 
L 109.865203 290.517023 
L 109.865203 289.990337 
L 113.78712 289.990337 
L 113.78712 288.936964 
L 113.908407 288.936964 
L 113.925665 287.883592 
L 117.044744 287.883592 
L 117.044744 287.356906 
L 121.942302 287.356906 
L 121.964074 286.303534 
L 126.013653 286.303534 
L 126.039508 285.250162 
L 126.598834 285.250162 
L 126.598834 284.723476 
L 129.016952 284.723476 
L 129.089405 283.670104 
L 129.454301 283.670104 
L 129.454301 283.143418 
L 131.709377 283.143418 
L 131.709377 282.616732 
L 133.318838 282.616732 
L 133.318838 282.090045 
L 134.024843 282.090045 
L 134.04118 280.509987 
L 135.081772 280.509987 
L 135.086899 279.456615 
L 136.165244 279.456615 
L 136.165244 278.929929 
L 137.61184 278.929929 
L 137.61184 278.403243 
L 137.932643 278.403243 
L 137.932643 277.876557 
L 141.816266 277.876557 
L 141.816266 277.349871 
L 142.493007 277.349871 
L 142.493007 276.823185 
L 142.706253 276.823185 
L 142.706253 276.296499 
L 143.147695 276.296499 
L 143.18962 275.243126 
L 143.781805 275.243126 
L 143.816021 273.663068 
L 144.405686 273.663068 
L 144.405686 273.136382 
L 145.559333 273.136382 
L 145.570577 272.08301 
L 146.183513 272.08301 
L 146.183513 271.556324 
L 146.659865 271.556324 
L 146.662505 270.502952 
L 148.166278 270.502952 
L 148.219468 268.396207 
L 148.643965 268.396207 
L 148.643965 267.869521 
L 149.570731 267.869521 
L 149.597519 266.816149 
L 150.01192 266.816149 
L 150.020631 265.762777 
L 150.866312 265.762777 
L 150.94908 264.709405 
L 151.150218 264.709405 
L 151.150218 264.182719 
L 151.300575 264.182719 
L 151.300575 263.656033 
L 152.813101 263.656033 
L 152.816811 262.60266 
L 153.194744 262.60266 
L 153.194744 262.075974 
L 153.539767 262.075974 
L 153.545105 261.022602 
L 153.892053 261.022602 
L 153.900769 259.96923 
L 154.575967 259.96923 
L 154.575967 258.389172 
L 154.913056 258.389172 
L 154.913056 257.862486 
L 155.235683 257.862486 
L 155.25182 256.282427 
L 155.596784 256.282427 
L 155.596784 255.755741 
L 155.874463 255.755741 
L 155.874463 255.229055 
L 156.176877 255.229055 
L 156.245575 254.175683 
L 156.484659 254.175683 
L 156.484659 253.648997 
L 157.395251 253.648997 
L 157.39953 252.595625 
L 157.645915 252.595625 
L 157.68524 251.015567 
L 157.922115 251.015567 
L 157.922115 250.488881 
L 158.204906 250.488881 
L 158.210351 249.435508 
L 158.73597 249.435508 
L 158.742573 248.382136 
L 159.078645 248.382136 
L 159.078645 247.85545 
L 159.303838 247.85545 
L 159.303838 247.328764 
L 159.508477 247.328764 
L 159.556429 244.695334 
L 159.761879 244.695334 
L 159.763125 243.641962 
L 160.006741 243.641962 
L 160.006741 243.115275 
L 160.251844 243.115275 
L 160.276045 241.535217 
L 160.364095 241.535217 
L 160.364095 241.008531 
L 160.736665 241.008531 
L 160.736665 240.481845 
L 160.962491 240.481845 
L 160.962491 239.955159 
L 161.193463 239.955159 
L 161.193463 239.428473 
L 161.423681 239.428473 
L 161.470039 238.375101 
L 161.646428 238.375101 
L 161.735626 236.795043 
L 161.869677 236.795043 
L 161.890633 235.214984 
L 162.095552 235.214984 
L 162.095552 234.688298 
L 162.311008 234.688298 
L 162.311008 234.161612 
L 162.520645 234.161612 
L 162.552512 233.10824 
L 162.739346 233.10824 
L 162.739346 232.581554 
L 162.950152 232.581554 
L 162.950152 232.054868 
L 163.14511 232.054868 
L 163.14511 231.528182 
L 163.350082 231.528182 
L 163.379457 230.47481 
L 163.551671 230.47481 
L 163.551671 229.948123 
L 163.94995 229.948123 
L 163.94995 228.894751 
L 164.141854 228.894751 
L 164.148635 227.841379 
L 164.372829 227.841379 
L 164.372829 227.314693 
L 164.52892 227.314693 
L 164.534604 226.261321 
L 164.714592 226.261321 
L 164.714592 225.734635 
L 164.930745 225.734635 
L 164.967744 224.681263 
L 165.08745 224.681263 
L 165.08745 224.154577 
L 165.270024 224.154577 
L 165.270024 223.627891 
L 165.46508 223.627891 
L 165.46508 223.101204 
L 165.632204 223.101204 
L 165.632204 222.574518 
L 165.805669 222.574518 
L 165.806549 221.521146 
L 165.983528 221.521146 
L 165.983528 220.99446 
L 166.15355 220.99446 
L 166.213013 219.414402 
L 166.326205 219.414402 
L 166.329624 218.36103 
L 166.673174 218.36103 
L 166.673174 217.834344 
L 166.829993 217.834344 
L 166.846593 216.254285 
L 167.173692 216.254285 
L 167.192408 215.200913 
L 167.322864 215.200913 
L 167.322864 214.674227 
L 167.641231 214.674227 
L 167.668161 213.620855 
L 167.95856 213.620855 
L 167.98345 212.567483 
L 168.264866 212.567483 
L 168.270218 211.514111 
L 168.425499 211.514111 
L 168.425499 210.987425 
L 168.616926 210.987425 
L 168.718565 209.934052 
L 168.905345 209.934052 
L 168.905345 209.407366 
L 169.247002 209.407366 
L 169.327064 208.353994 
L 169.589893 208.353994 
L 169.592728 207.300622 
L 169.870458 207.300622 
L 169.870458 206.773936 
L 170.010103 206.773936 
L 170.01633 205.193878 
L 170.152072 205.193878 
L 170.152072 204.667192 
L 170.420426 204.667192 
L 170.437991 203.613819 
L 170.554412 203.613819 
L 170.554412 203.087133 
L 170.822637 203.087133 
L 170.822637 202.560447 
L 170.952924 202.560447 
L 170.952924 202.033761 
L 171.34125 202.033761 
L 171.398218 200.980389 
L 171.474734 200.980389 
L 171.474734 200.453703 
L 171.887811 200.453703 
L 171.887811 199.927017 
L 172.095957 199.927017 
L 172.099027 198.873645 
L 172.341649 198.873645 
L 172.341649 198.346959 
L 172.477331 198.346959 
L 172.582137 197.293586 
L 172.815819 197.293586 
L 172.815819 196.7669 
L 172.935007 196.7669 
L 172.935007 196.240214 
L 173.184239 196.240214 
L 173.184239 195.713528 
L 173.401498 195.713528 
L 173.401498 195.186842 
L 173.519027 195.186842 
L 173.552381 194.13347 
L 173.750617 194.13347 
L 173.750617 193.606784 
L 173.957113 193.606784 
L 173.957113 193.080098 
L 174.095074 193.080098 
L 174.095074 192.553412 
L 174.398996 192.553412 
L 174.398996 192.026726 
L 174.607039 192.026726 
L 174.607571 190.973354 
L 174.836256 190.973354 
L 174.935143 189.393295 
L 175.026726 189.393295 
L 175.026726 188.866609 
L 175.145688 188.866609 
L 175.232585 187.813237 
L 175.74158 187.813237 
L 175.74158 187.286551 
L 175.85281 187.286551 
L 175.85281 186.759865 
L 176.14876 186.759865 
L 176.14876 186.233179 
L 176.423013 186.233179 
L 176.51761 183.599748 
L 176.812889 183.599748 
L 176.812889 183.073062 
L 177.264226 183.073062 
L 177.264226 182.546376 
L 177.891896 182.546376 
L 177.891896 182.01969 
L 178.092425 182.01969 
L 178.157602 180.966318 
L 179.083276 180.966318 
L 179.085332 179.912946 
L 179.820138 179.912946 
L 179.886642 178.859574 
L 180.139703 178.859574 
L 180.139703 178.332888 
L 180.730006 178.332888 
L 180.821451 177.279515 
L 180.879057 177.279515 
L 180.880912 176.226143 
L 181.534816 176.226143 
L 181.534816 175.699457 
L 181.756035 175.699457 
L 181.756035 175.172771 
L 193.945172 175.172771 
L 193.945172 174.646085 
L 209.815075 174.646085 
L 209.815075 173.066027 
L 213.029827 173.066027 
L 213.029827 172.539341 
L 338.688 172.539341 
L 338.688 172.539341 
" style="fill:none;stroke:#ff7500;stroke-linecap:square;stroke-width:1.5;"/>
   </g>
   <g id="line2d_46">
    <defs>
     <path d="M 0 -6 
L -1.347084 -1.854102 
L -5.706339 -1.854102 
L -2.179628 0.708204 
L -3.526712 4.854102 
L -0 2.291796 
L 3.526712 4.854102 
L 2.179628 0.708204 
L 5.706339 -1.854102 
L 1.347084 -1.854102 
z
" id="m7115592fbd" style="stroke:#ff7500;stroke-linejoin:bevel;stroke-width:1.5;"/>
    </defs>
    <g>
     <use style="fill-opacity:0;stroke:#ff7500;stroke-linejoin:bevel;stroke-width:1.5;" x="100.456158" xlink:href="#m7115592fbd" y="291.570395"/>
     <use style="fill-opacity:0;stroke:#ff7500;stroke-linejoin:bevel;stroke-width:1.5;" x="155.874463" xlink:href="#m7115592fbd" y="255.229055"/>
     <use style="fill-opacity:0;stroke:#ff7500;stroke-linejoin:bevel;stroke-width:1.5;" x="213.029827" xlink:href="#m7115592fbd" y="173.066027"/>
     <use style="fill-opacity:0;stroke:#ff7500;stroke-linejoin:bevel;stroke-width:1.5;" x="213.029827" xlink:href="#m7115592fbd" y="172.539341"/>
     <use style="fill-opacity:0;stroke:#ff7500;stroke-linejoin:bevel;stroke-width:1.5;" x="213.029827" xlink:href="#m7115592fbd" y="172.539341"/>
     <use style="fill-opacity:0;stroke:#ff7500;stroke-linejoin:bevel;stroke-width:1.5;" x="338.688" xlink:href="#m7115592fbd" y="172.539341"/>
    </g>
   </g>
   <g id="line2d_47">
    <path style="fill:none;stroke:#ff7500;stroke-linecap:square;stroke-width:1.5;"/>
    <g/>
   </g>
   <g id="line2d_48">
    <path clip-path="url(#pd6ac2f8b94)" d="M 181.957749 175.172771 
" style="fill:none;stroke:#ff7500;stroke-linecap:square;stroke-width:1.5;"/>
    <defs>
     <path d="M -12 12 
L 12 -12 
M -12 -12 
L 12 12 
" id="m985463344a" style="stroke:#ff7500;"/>
    </defs>
    <g clip-path="url(#pd6ac2f8b94)">
     <use style="fill:#ff7500;stroke:#ff7500;" x="181.957749" xlink:href="#m985463344a" y="175.172771"/>
    </g>
   </g>
   <g id="line2d_49">
    <path d="M 338.688 241.008531 
L 369.60768 293.571802 
" style="fill:none;stroke:#000080;stroke-linecap:square;stroke-width:1.5;"/>
    <g>
     <use style="fill-opacity:0;stroke:#000080;stroke-width:1.5;" x="338.688" xlink:href="#m51c9e1c432" y="241.008531"/>
     <use style="fill-opacity:0;stroke:#000080;stroke-width:1.5;" x="369.60768" xlink:href="#m51c9e1c432" y="293.571802"/>
    </g>
   </g>
   <g id="line2d_50">
    <path d="M 338.688 214.674227 
L 369.60768 207.616634 
" style="fill:none;stroke:#ff00ff;stroke-linecap:square;stroke-width:1.5;"/>
    <g>
     <use style="fill-opacity:0;stroke:#ff00ff;stroke-linejoin:miter;stroke-width:1.5;" x="338.688" xlink:href="#mc18533b39f" y="214.674227"/>
     <use style="fill-opacity:0;stroke:#ff00ff;stroke-linejoin:miter;stroke-width:1.5;" x="369.60768" xlink:href="#mc18533b39f" y="207.616634"/>
    </g>
   </g>
   <g id="line2d_51">
    <path d="M 338.688 172.539341 
L 369.60768 121.661465 
" style="fill:none;stroke:#ff7500;stroke-linecap:square;stroke-width:1.5;"/>
    <g>
     <use style="fill-opacity:0;stroke:#ff7500;stroke-linejoin:bevel;stroke-width:1.5;" x="338.688" xlink:href="#m7115592fbd" y="172.539341"/>
     <use style="fill-opacity:0;stroke:#ff7500;stroke-linejoin:bevel;stroke-width:1.5;" x="369.60768" xlink:href="#m7115592fbd" y="121.661465"/>
    </g>
   </g>
   <g id="line2d_52">
    <path d="M 338.688 298.944 
L 338.688 30.334099 
" style="fill:none;stroke:#000000;stroke-linecap:square;stroke-width:1.5;"/>
   </g>
   <g id="patch_3">
    <path d="M 57.6 298.944 
L 57.6 27.648 
" style="fill:none;stroke:#000000;stroke-linecap:square;stroke-linejoin:miter;stroke-width:0.8;"/>
   </g>
   <g id="patch_4">
    <path d="M 338.688 298.944 
L 338.688 27.648 
" style="fill:none;stroke:#000000;stroke-linecap:square;stroke-linejoin:miter;stroke-width:0.8;"/>
   </g>
   <g id="patch_5">
    <path d="M 57.6 298.944 
L 338.688 298.944 
" style="fill:none;stroke:#000000;stroke-linecap:square;stroke-linejoin:miter;stroke-width:0.8;"/>
   </g>
   <g id="patch_6">
    <path d="M 57.6 27.648 
L 338.688 27.648 
" style="fill:none;stroke:#000000;stroke-linecap:square;stroke-linejoin:miter;stroke-width:0.8;"/>
   </g>
   <g id="text_13">
    <!-- DE -->
    <g transform="translate(375.22944 298.262739)scale(0.17 -0.17)">
     <defs>
      <path d="M 1259 4147 
L 1259 519 
L 2022 519 
Q 2988 519 3436 956 
Q 3884 1394 3884 2338 
Q 3884 3275 3436 3711 
Q 2988 4147 2022 4147 
L 1259 4147 
z
M 628 4666 
L 1925 4666 
Q 3281 4666 3915 4102 
Q 4550 3538 4550 2338 
Q 4550 1131 3912 565 
Q 3275 0 1925 0 
L 628 0 
L 628 4666 
z
" id="DejaVuSans-44" transform="scale(0.015625)"/>
      <path d="M 628 4666 
L 3578 4666 
L 3578 4134 
L 1259 4134 
L 1259 2753 
L 3481 2753 
L 3481 2222 
L 1259 2222 
L 1259 531 
L 3634 531 
L 3634 0 
L 628 0 
L 628 4666 
z
" id="DejaVuSans-45" transform="scale(0.015625)"/>
     </defs>
     <use xlink:href="#DejaVuSans-44"/>
     <use x="77.001953" xlink:href="#DejaVuSans-45"/>
    </g>
   </g>
   <g id="text_14">
    <!-- DEAE -->
    <g transform="translate(375.22944 212.307571)scale(0.17 -0.17)">
     <defs>
      <path d="M 2188 4044 
L 1331 1722 
L 3047 1722 
L 2188 4044 
z
M 1831 4666 
L 2547 4666 
L 4325 0 
L 3669 0 
L 3244 1197 
L 1141 1197 
L 716 0 
L 50 0 
L 1831 4666 
z
" id="DejaVuSans-41" transform="scale(0.015625)"/>
     </defs>
     <use xlink:href="#DejaVuSans-44"/>
     <use x="77.001953" xlink:href="#DejaVuSans-45"/>
     <use x="140.185547" xlink:href="#DejaVuSans-41"/>
     <use x="208.59375" xlink:href="#DejaVuSans-45"/>
    </g>
   </g>
   <g id="text_15">
    <!-- JADE -->
    <g transform="translate(375.22944 126.352403)scale(0.17 -0.17)">
     <defs>
      <path d="M 628 4666 
L 1259 4666 
L 1259 325 
Q 1259 -519 939 -900 
Q 619 -1281 -91 -1281 
L -331 -1281 
L -331 -750 
L -134 -750 
Q 284 -750 456 -515 
Q 628 -281 628 325 
L 628 4666 
z
" id="DejaVuSans-4a" transform="scale(0.015625)"/>
     </defs>
     <use xlink:href="#DejaVuSans-4a"/>
     <use x="27.742188" xlink:href="#DejaVuSans-41"/>
     <use x="96.150391" xlink:href="#DejaVuSans-44"/>
     <use x="173.152344" xlink:href="#DejaVuSans-45"/>
    </g>
   </g>
   <g id="text_16">
    <!-- best 2009 -->
    <g transform="translate(375.22944 40.397235)scale(0.17 -0.17)">
     <defs>
      <path d="M 3116 1747 
Q 3116 2381 2855 2742 
Q 2594 3103 2138 3103 
Q 1681 3103 1420 2742 
Q 1159 2381 1159 1747 
Q 1159 1113 1420 752 
Q 1681 391 2138 391 
Q 2594 391 2855 752 
Q 3116 1113 3116 1747 
z
M 1159 2969 
Q 1341 3281 1617 3432 
Q 1894 3584 2278 3584 
Q 2916 3584 3314 3078 
Q 3713 2572 3713 1747 
Q 3713 922 3314 415 
Q 2916 -91 2278 -91 
Q 1894 -91 1617 61 
Q 1341 213 1159 525 
L 1159 0 
L 581 0 
L 581 4863 
L 1159 4863 
L 1159 2969 
z
" id="DejaVuSans-62" transform="scale(0.015625)"/>
      <path d="M 703 97 
L 703 672 
Q 941 559 1184 500 
Q 1428 441 1663 441 
Q 2288 441 2617 861 
Q 2947 1281 2994 2138 
Q 2813 1869 2534 1725 
Q 2256 1581 1919 1581 
Q 1219 1581 811 2004 
Q 403 2428 403 3163 
Q 403 3881 828 4315 
Q 1253 4750 1959 4750 
Q 2769 4750 3195 4129 
Q 3622 3509 3622 2328 
Q 3622 1225 3098 567 
Q 2575 -91 1691 -91 
Q 1453 -91 1209 -44 
Q 966 3 703 97 
z
M 1959 2075 
Q 2384 2075 2632 2365 
Q 2881 2656 2881 3163 
Q 2881 3666 2632 3958 
Q 2384 4250 1959 4250 
Q 1534 4250 1286 3958 
Q 1038 3666 1038 3163 
Q 1038 2656 1286 2365 
Q 1534 2075 1959 2075 
z
" id="DejaVuSans-39" transform="scale(0.015625)"/>
     </defs>
     <use xlink:href="#DejaVuSans-62"/>
     <use x="63.476562" xlink:href="#DejaVuSans-65"/>
     <use x="125" xlink:href="#DejaVuSans-73"/>
     <use x="177.099609" xlink:href="#DejaVuSans-74"/>
     <use x="216.308594" xlink:href="#DejaVuSans-20"/>
     <use x="248.095703" xlink:href="#DejaVuSans-32"/>
     <use x="311.71875" xlink:href="#DejaVuSans-30"/>
     <use x="375.341797" xlink:href="#DejaVuSans-30"/>
     <use x="438.964844" xlink:href="#DejaVuSans-39"/>
    </g>
   </g>
   <g id="text_17">
    <!-- bbob f14, 40-D -->
    <g transform="translate(60.41088 38.111366)scale(0.102 -0.102)">
     <use xlink:href="#DejaVuSans-62"/>
     <use x="63.476562" xlink:href="#DejaVuSans-62"/>
     <use x="126.953125" xlink:href="#DejaVuSans-6f"/>
     <use x="188.134766" xlink:href="#DejaVuSans-62"/>
     <use x="251.611328" xlink:href="#DejaVuSans-20"/>
     <use x="283.398438" xlink:href="#DejaVuSans-66"/>
     <use x="318.603516" xlink:href="#DejaVuSans-31"/>
     <use x="382.226562" xlink:href="#DejaVuSans-34"/>
     <use x="445.849609" xlink:href="#DejaVuSans-2c"/>
     <use x="477.636719" xlink:href="#DejaVuSans-20"/>
     <use x="509.423828" xlink:href="#DejaVuSans-34"/>
     <use x="573.046875" xlink:href="#DejaVuSans-30"/>
     <use x="636.669922" xlink:href="#DejaVuSans-2d"/>
     <use x="672.753906" xlink:href="#DejaVuSans-44"/>
    </g>
    <!-- 51 targets: 100..1e-08 -->
    <g transform="translate(60.41088 49.533135)scale(0.102 -0.102)">
     <defs>
      <path d="M 691 4666 
L 3169 4666 
L 3169 4134 
L 1269 4134 
L 1269 2991 
Q 1406 3038 1543 3061 
Q 1681 3084 1819 3084 
Q 2600 3084 3056 2656 
Q 3513 2228 3513 1497 
Q 3513 744 3044 326 
Q 2575 -91 1722 -91 
Q 1428 -91 1123 -41 
Q 819 9 494 109 
L 494 744 
Q 775 591 1075 516 
Q 1375 441 1709 441 
Q 2250 441 2565 725 
Q 2881 1009 2881 1497 
Q 2881 1984 2565 2268 
Q 2250 2553 1709 2553 
Q 1456 2553 1204 2497 
Q 953 2441 691 2322 
L 691 4666 
z
" id="DejaVuSans-35" transform="scale(0.015625)"/>
      <path d="M 750 794 
L 1409 794 
L 1409 0 
L 750 0 
L 750 794 
z
M 750 3309 
L 1409 3309 
L 1409 2516 
L 750 2516 
L 750 3309 
z
" id="DejaVuSans-3a" transform="scale(0.015625)"/>
     </defs>
     <use xlink:href="#DejaVuSans-35"/>
     <use x="63.623047" xlink:href="#DejaVuSans-31"/>
     <use x="127.246094" xlink:href="#DejaVuSans-20"/>
     <use x="159.033203" xlink:href="#DejaVuSans-74"/>
     <use x="198.242188" xlink:href="#DejaVuSans-61"/>
     <use x="259.521484" xlink:href="#DejaVuSans-72"/>
     <use x="298.884766" xlink:href="#DejaVuSans-67"/>
     <use x="362.361328" xlink:href="#DejaVuSans-65"/>
     <use x="423.884766" xlink:href="#DejaVuSans-74"/>
     <use x="463.09375" xlink:href="#DejaVuSans-73"/>
     <use x="515.193359" xlink:href="#DejaVuSans-3a"/>
     <use x="548.884766" xlink:href="#DejaVuSans-20"/>
     <use x="580.671875" xlink:href="#DejaVuSans-31"/>
     <use x="644.294922" xlink:href="#DejaVuSans-30"/>
     <use x="707.917969" xlink:href="#DejaVuSans-30"/>
     <use x="771.541016" xlink:href="#DejaVuSans-2e"/>
     <use x="803.328125" xlink:href="#DejaVuSans-2e"/>
     <use x="835.115234" xlink:href="#DejaVuSans-31"/>
     <use x="898.738281" xlink:href="#DejaVuSans-65"/>
     <use x="960.261719" xlink:href="#DejaVuSans-2d"/>
     <use x="996.345703" xlink:href="#DejaVuSans-30"/>
     <use x="1059.96875" xlink:href="#DejaVuSans-38"/>
    </g>
    <!-- 15 instances -->
    <g transform="translate(60.41088 60.954904)scale(0.102 -0.102)">
     <use xlink:href="#DejaVuSans-31"/>
     <use x="63.623047" xlink:href="#DejaVuSans-35"/>
     <use x="127.246094" xlink:href="#DejaVuSans-20"/>
     <use x="159.033203" xlink:href="#DejaVuSans-69"/>
     <use x="186.816406" xlink:href="#DejaVuSans-6e"/>
     <use x="250.195312" xlink:href="#DejaVuSans-73"/>
     <use x="302.294922" xlink:href="#DejaVuSans-74"/>
     <use x="341.503906" xlink:href="#DejaVuSans-61"/>
     <use x="402.783203" xlink:href="#DejaVuSans-6e"/>
     <use x="466.162109" xlink:href="#DejaVuSans-63"/>
     <use x="521.142578" xlink:href="#DejaVuSans-65"/>
     <use x="582.666016" xlink:href="#DejaVuSans-73"/>
    </g>
   </g>
   <g id="text_18">
    <!-- v2.4 -->
    <g style="fill:#808080;" transform="translate(187.233062 294.151352)scale(0.1 -0.1)">
     <use xlink:href="#DejaVuSans-76"/>
     <use x="59.179688" xlink:href="#DejaVuSans-32"/>
     <use x="122.802734" xlink:href="#DejaVuSans-2e"/>
     <use x="154.589844" xlink:href="#DejaVuSans-34"/>
    </g>
   </g>
   <g id="text_19">
    <!-- 14 Sum of different powers -->
    <g transform="translate(61.904937 21.648)scale(0.2 -0.2)">
     <defs>
      <path d="M 3425 4513 
L 3425 3897 
Q 3066 4069 2747 4153 
Q 2428 4238 2131 4238 
Q 1616 4238 1336 4038 
Q 1056 3838 1056 3469 
Q 1056 3159 1242 3001 
Q 1428 2844 1947 2747 
L 2328 2669 
Q 3034 2534 3370 2195 
Q 3706 1856 3706 1288 
Q 3706 609 3251 259 
Q 2797 -91 1919 -91 
Q 1588 -91 1214 -16 
Q 841 59 441 206 
L 441 856 
Q 825 641 1194 531 
Q 1563 422 1919 422 
Q 2459 422 2753 634 
Q 3047 847 3047 1241 
Q 3047 1584 2836 1778 
Q 2625 1972 2144 2069 
L 1759 2144 
Q 1053 2284 737 2584 
Q 422 2884 422 3419 
Q 422 4038 858 4394 
Q 1294 4750 2059 4750 
Q 2388 4750 2728 4690 
Q 3069 4631 3425 4513 
z
" id="DejaVuSans-53" transform="scale(0.015625)"/>
      <path d="M 269 3500 
L 844 3500 
L 1563 769 
L 2278 3500 
L 2956 3500 
L 3675 769 
L 4391 3500 
L 4966 3500 
L 4050 0 
L 3372 0 
L 2619 2869 
L 1863 0 
L 1184 0 
L 269 3500 
z
" id="DejaVuSans-77" transform="scale(0.015625)"/>
     </defs>
     <use xlink:href="#DejaVuSans-31"/>
     <use x="63.623047" xlink:href="#DejaVuSans-34"/>
     <use x="127.246094" xlink:href="#DejaVuSans-20"/>
     <use x="159.033203" xlink:href="#DejaVuSans-53"/>
     <use x="222.509766" xlink:href="#DejaVuSans-75"/>
     <use x="285.888672" xlink:href="#DejaVuSans-6d"/>
     <use x="383.300781" xlink:href="#DejaVuSans-20"/>
     <use x="415.087891" xlink:href="#DejaVuSans-6f"/>
     <use x="476.269531" xlink:href="#DejaVuSans-66"/>
     <use x="511.474609" xlink:href="#DejaVuSans-20"/>
     <use x="543.261719" xlink:href="#DejaVuSans-64"/>
     <use x="606.738281" xlink:href="#DejaVuSans-69"/>
     <use x="634.521484" xlink:href="#DejaVuSans-66"/>
     <use x="669.726562" xlink:href="#DejaVuSans-66"/>
     <use x="704.931641" xlink:href="#DejaVuSans-65"/>
     <use x="766.455078" xlink:href="#DejaVuSans-72"/>
     <use x="805.318359" xlink:href="#DejaVuSans-65"/>
     <use x="866.841797" xlink:href="#DejaVuSans-6e"/>
     <use x="930.220703" xlink:href="#DejaVuSans-74"/>
     <use x="969.429688" xlink:href="#DejaVuSans-20"/>
     <use x="1001.216797" xlink:href="#DejaVuSans-70"/>
     <use x="1064.693359" xlink:href="#DejaVuSans-6f"/>
     <use x="1125.875" xlink:href="#DejaVuSans-77"/>
     <use x="1207.662109" xlink:href="#DejaVuSans-65"/>
     <use x="1269.185547" xlink:href="#DejaVuSans-72"/>
     <use x="1310.298828" xlink:href="#DejaVuSans-73"/>
    </g>
   </g>
  </g>
 </g>
 <defs>
  <clipPath id="pd6ac2f8b94">
   <rect height="271.296" width="281.088" x="57.6" y="27.648"/>
  </clipPath>
 </defs>
</svg>
