<?xml version="1.0" encoding="utf-8" standalone="no"?>
<!DOCTYPE svg PUBLIC "-//W3C//DTD SVG 1.1//EN"
  "http://www.w3.org/Graphics/SVG/1.1/DTD/svg11.dtd">
<svg height="345.6pt" version="1.1" viewBox="0 0 460.8 345.6" width="460.8pt" xmlns="http://www.w3.org/2000/svg" xmlns:xlink="http://www.w3.org/1999/xlink">
 <metadata>
  <rdf:RDF xmlns:cc="http://creativecommons.org/ns#" xmlns:dc="http://purl.org/dc/elements/1.1/" xmlns:rdf="http://www.w3.org/1999/02/22-rdf-syntax-ns#">
   <cc:Work>
    <dc:type rdf:resource="http://purl.org/dc/dcmitype/StillImage"/>
    <dc:date>2021-04-20T12:28:42.128110</dc:date>
    <dc:format>image/svg+xml</dc:format>
    <dc:creator>
     <cc:Agent>
      <dc:title>Matplotlib v3.4.1, https://matplotlib.org/</dc:title>
     </cc:Agent>
    </dc:creator>
   </cc:Work>
  </rdf:RDF>
 </metadata>
 <defs>
  <style type="text/css">*{stroke-linecap:butt;stroke-linejoin:round;}</style>
 </defs>
 <g id="figure_1">
  <g id="patch_1">
   <path d="M 0 345.6 
L 460.8 345.6 
L 460.8 0 
L 0 0 
z
" style="fill:#ffffff;"/>
  </g>
  <g id="axes_1">
   <g id="patch_2">
    <path d="M 57.6 298.944 
L 338.688 298.944 
L 338.688 27.648 
L 57.6 27.648 
z
" style="fill:#ffffff;"/>
   </g>
   <g id="line2d_1">
    <path d="M 45.512012 298.944 
L 45.512012 225.207949 
L 100.192776 225.207949 
L 100.192776 219.941088 
L 102.330873 219.941088 
L 102.330873 214.674227 
L 108.948899 214.674227 
L 108.948899 209.407366 
L 109.843417 209.407366 
L 109.843417 204.140506 
L 116.019919 204.140506 
L 116.019919 198.873645 
L 116.323218 198.873645 
L 116.323218 193.606784 
L 139.253002 193.606784 
L 139.253002 188.339923 
L 139.413734 188.339923 
L 139.413734 183.073062 
L 139.493548 183.073062 
L 139.493548 177.806202 
L 139.8092 177.806202 
L 139.8092 172.539341 
L 139.887228 172.539341 
L 139.887228 167.27248 
L 140.11924 167.27248 
L 140.11924 162.005619 
L 140.499195 162.005619 
L 140.499195 156.738758 
L 140.574203 156.738758 
L 140.574203 151.471897 
L 140.723258 151.471897 
L 140.723258 146.205037 
L 140.944478 146.205037 
L 140.944478 140.938176 
L 141.090414 140.938176 
L 141.090414 135.671315 
L 141.235139 135.671315 
L 141.235139 125.137593 
L 141.521035 125.137593 
L 141.521035 119.870733 
L 141.732423 119.870733 
L 141.732423 114.603872 
L 141.941279 114.603872 
L 141.941279 109.337011 
L 142.010346 109.337011 
L 142.010346 104.07015 
L 142.419098 104.07015 
L 142.419098 93.536429 
L 142.686372 93.536429 
L 142.686372 88.269568 
L 142.752555 88.269568 
L 142.752555 83.002707 
L 142.949611 83.002707 
L 142.949611 77.735846 
L 143.014805 77.735846 
L 143.014805 72.468985 
L 143.144465 72.468985 
L 143.144465 67.202125 
L 143.464461 67.202125 
L 143.464461 61.935264 
L 143.527762 61.935264 
L 143.527762 56.668403 
L 143.590833 56.668403 
L 143.590833 46.134681 
L 143.653678 46.134681 
L 143.653678 40.867821 
L 143.840863 40.867821 
L 143.840863 35.60096 
L 143.902815 35.60096 
L 143.902815 30.334099 
L 338.688 30.334099 
" style="fill:none;stroke:#f5deb3;stroke-linecap:square;stroke-width:4;"/>
   </g>
   <g id="line2d_2">
    <defs>
     <path d="M 0 7.778175 
L 7.778175 0 
L 0 -7.778175 
L -7.778175 0 
z
" id="m11c4909e63" style="stroke:#f5deb3;stroke-linejoin:miter;stroke-width:1.5;"/>
    </defs>
    <g>
     <use style="fill:#f5deb3;stroke:#f5deb3;stroke-linejoin:miter;stroke-width:1.5;" x="108.948899" xlink:href="#m11c4909e63" y="214.674227"/>
     <use style="fill:#f5deb3;stroke:#f5deb3;stroke-linejoin:miter;stroke-width:1.5;" x="141.090414" xlink:href="#m11c4909e63" y="135.671315"/>
     <use style="fill:#f5deb3;stroke:#f5deb3;stroke-linejoin:miter;stroke-width:1.5;" x="143.902815" xlink:href="#m11c4909e63" y="35.60096"/>
     <use style="fill:#f5deb3;stroke:#f5deb3;stroke-linejoin:miter;stroke-width:1.5;" x="143.902815" xlink:href="#m11c4909e63" y="30.334099"/>
     <use style="fill:#f5deb3;stroke:#f5deb3;stroke-linejoin:miter;stroke-width:1.5;" x="143.902815" xlink:href="#m11c4909e63" y="30.334099"/>
     <use style="fill:#f5deb3;stroke:#f5deb3;stroke-linejoin:miter;stroke-width:1.5;" x="338.688" xlink:href="#m11c4909e63" y="30.334099"/>
    </g>
   </g>
   <g id="line2d_3">
    <path style="fill:none;stroke:#f5deb3;stroke-linecap:square;stroke-width:4;"/>
    <g/>
   </g>
   <g id="line2d_4">
    <path d="M 338.688 30.334099 
L 369.60768 35.706297 
" style="fill:none;stroke:#f5deb3;stroke-linecap:square;stroke-width:4;"/>
    <g>
     <use style="fill:#f5deb3;stroke:#f5deb3;stroke-linejoin:miter;stroke-width:1.5;" x="338.688" xlink:href="#m11c4909e63" y="30.334099"/>
     <use style="fill:#f5deb3;stroke:#f5deb3;stroke-linejoin:miter;stroke-width:1.5;" x="369.60768" xlink:href="#m11c4909e63" y="35.706297"/>
    </g>
   </g>
   <g id="matplotlib.axis_1">
    <g id="xtick_1">
     <g id="line2d_5">
      <path clip-path="url(#pfc633e16cf)" d="M 57.6 298.944 
L 57.6 27.648 
" style="fill:none;stroke:#b0b0b0;stroke-linecap:square;stroke-width:0.8;"/>
     </g>
     <g id="line2d_6">
      <defs>
       <path d="M 0 0 
L 0 3.5 
" id="m27199869d1" style="stroke:#000000;stroke-width:0.8;"/>
      </defs>
      <g>
       <use style="stroke:#000000;stroke-width:0.8;" x="57.6" xlink:href="#m27199869d1" y="298.944"/>
      </g>
     </g>
     <g id="text_1">
      <!-- 0 -->
      <g transform="translate(51.2375 321.140875)scale(0.2 -0.2)">
       <defs>
        <path d="M 2034 4250 
Q 1547 4250 1301 3770 
Q 1056 3291 1056 2328 
Q 1056 1369 1301 889 
Q 1547 409 2034 409 
Q 2525 409 2770 889 
Q 3016 1369 3016 2328 
Q 3016 3291 2770 3770 
Q 2525 4250 2034 4250 
z
M 2034 4750 
Q 2819 4750 3233 4129 
Q 3647 3509 3647 2328 
Q 3647 1150 3233 529 
Q 2819 -91 2034 -91 
Q 1250 -91 836 529 
Q 422 1150 422 2328 
Q 422 3509 836 4129 
Q 1250 4750 2034 4750 
z
" id="DejaVuSans-30" transform="scale(0.015625)"/>
       </defs>
       <use xlink:href="#DejaVuSans-30"/>
      </g>
     </g>
    </g>
    <g id="xtick_2">
     <g id="line2d_7">
      <path clip-path="url(#pfc633e16cf)" d="M 137.910857 298.944 
L 137.910857 27.648 
" style="fill:none;stroke:#b0b0b0;stroke-linecap:square;stroke-width:0.8;"/>
     </g>
     <g id="line2d_8">
      <g>
       <use style="stroke:#000000;stroke-width:0.8;" x="137.910857" xlink:href="#m27199869d1" y="298.944"/>
      </g>
     </g>
     <g id="text_2">
      <!-- 2 -->
      <g transform="translate(131.548357 321.140875)scale(0.2 -0.2)">
       <defs>
        <path d="M 1228 531 
L 3431 531 
L 3431 0 
L 469 0 
L 469 531 
Q 828 903 1448 1529 
Q 2069 2156 2228 2338 
Q 2531 2678 2651 2914 
Q 2772 3150 2772 3378 
Q 2772 3750 2511 3984 
Q 2250 4219 1831 4219 
Q 1534 4219 1204 4116 
Q 875 4013 500 3803 
L 500 4441 
Q 881 4594 1212 4672 
Q 1544 4750 1819 4750 
Q 2544 4750 2975 4387 
Q 3406 4025 3406 3419 
Q 3406 3131 3298 2873 
Q 3191 2616 2906 2266 
Q 2828 2175 2409 1742 
Q 1991 1309 1228 531 
z
" id="DejaVuSans-32" transform="scale(0.015625)"/>
       </defs>
       <use xlink:href="#DejaVuSans-32"/>
      </g>
     </g>
    </g>
    <g id="xtick_3">
     <g id="line2d_9">
      <path clip-path="url(#pfc633e16cf)" d="M 218.221714 298.944 
L 218.221714 27.648 
" style="fill:none;stroke:#b0b0b0;stroke-linecap:square;stroke-width:0.8;"/>
     </g>
     <g id="line2d_10">
      <g>
       <use style="stroke:#000000;stroke-width:0.8;" x="218.221714" xlink:href="#m27199869d1" y="298.944"/>
      </g>
     </g>
     <g id="text_3">
      <!-- 4 -->
      <g transform="translate(211.859214 321.140875)scale(0.2 -0.2)">
       <defs>
        <path d="M 2419 4116 
L 825 1625 
L 2419 1625 
L 2419 4116 
z
M 2253 4666 
L 3047 4666 
L 3047 1625 
L 3713 1625 
L 3713 1100 
L 3047 1100 
L 3047 0 
L 2419 0 
L 2419 1100 
L 313 1100 
L 313 1709 
L 2253 4666 
z
" id="DejaVuSans-34" transform="scale(0.015625)"/>
       </defs>
       <use xlink:href="#DejaVuSans-34"/>
      </g>
     </g>
    </g>
    <g id="xtick_4">
     <g id="line2d_11">
      <path clip-path="url(#pfc633e16cf)" d="M 298.532571 298.944 
L 298.532571 27.648 
" style="fill:none;stroke:#b0b0b0;stroke-linecap:square;stroke-width:0.8;"/>
     </g>
     <g id="line2d_12">
      <g>
       <use style="stroke:#000000;stroke-width:0.8;" x="298.532571" xlink:href="#m27199869d1" y="298.944"/>
      </g>
     </g>
     <g id="text_4">
      <!-- 6 -->
      <g transform="translate(292.170071 321.140875)scale(0.2 -0.2)">
       <defs>
        <path d="M 2113 2584 
Q 1688 2584 1439 2293 
Q 1191 2003 1191 1497 
Q 1191 994 1439 701 
Q 1688 409 2113 409 
Q 2538 409 2786 701 
Q 3034 994 3034 1497 
Q 3034 2003 2786 2293 
Q 2538 2584 2113 2584 
z
M 3366 4563 
L 3366 3988 
Q 3128 4100 2886 4159 
Q 2644 4219 2406 4219 
Q 1781 4219 1451 3797 
Q 1122 3375 1075 2522 
Q 1259 2794 1537 2939 
Q 1816 3084 2150 3084 
Q 2853 3084 3261 2657 
Q 3669 2231 3669 1497 
Q 3669 778 3244 343 
Q 2819 -91 2113 -91 
Q 1303 -91 875 529 
Q 447 1150 447 2328 
Q 447 3434 972 4092 
Q 1497 4750 2381 4750 
Q 2619 4750 2861 4703 
Q 3103 4656 3366 4563 
z
" id="DejaVuSans-36" transform="scale(0.015625)"/>
       </defs>
       <use xlink:href="#DejaVuSans-36"/>
      </g>
     </g>
    </g>
    <g id="xtick_5">
     <g id="line2d_13">
      <path clip-path="url(#pfc633e16cf)" d="M 97.755429 298.944 
L 97.755429 27.648 
" style="fill:none;stroke:#b0b0b0;stroke-linecap:square;stroke-width:0.8;"/>
     </g>
     <g id="line2d_14">
      <defs>
       <path d="M 0 0 
L 0 2 
" id="m2174ba98cc" style="stroke:#000000;stroke-width:0.6;"/>
      </defs>
      <g>
       <use style="stroke:#000000;stroke-width:0.6;" x="97.755429" xlink:href="#m2174ba98cc" y="298.944"/>
      </g>
     </g>
    </g>
    <g id="xtick_6">
     <g id="line2d_15">
      <path clip-path="url(#pfc633e16cf)" d="M 178.066286 298.944 
L 178.066286 27.648 
" style="fill:none;stroke:#b0b0b0;stroke-linecap:square;stroke-width:0.8;"/>
     </g>
     <g id="line2d_16">
      <g>
       <use style="stroke:#000000;stroke-width:0.6;" x="178.066286" xlink:href="#m2174ba98cc" y="298.944"/>
      </g>
     </g>
    </g>
    <g id="xtick_7">
     <g id="line2d_17">
      <path clip-path="url(#pfc633e16cf)" d="M 258.377143 298.944 
L 258.377143 27.648 
" style="fill:none;stroke:#b0b0b0;stroke-linecap:square;stroke-width:0.8;"/>
     </g>
     <g id="line2d_18">
      <g>
       <use style="stroke:#000000;stroke-width:0.6;" x="258.377143" xlink:href="#m2174ba98cc" y="298.944"/>
      </g>
     </g>
    </g>
    <g id="xtick_8">
     <g id="line2d_19">
      <path clip-path="url(#pfc633e16cf)" d="M 338.688 298.944 
L 338.688 27.648 
" style="fill:none;stroke:#b0b0b0;stroke-linecap:square;stroke-width:0.8;"/>
     </g>
     <g id="line2d_20">
      <g>
       <use style="stroke:#000000;stroke-width:0.6;" x="338.688" xlink:href="#m2174ba98cc" y="298.944"/>
      </g>
     </g>
    </g>
    <g id="text_5">
     <!-- log10(# f-evals / dimension) -->
     <g transform="translate(77.764078 342.217594)scale(0.17 -0.17)">
      <defs>
       <path d="M 603 4863 
L 1178 4863 
L 1178 0 
L 603 0 
L 603 4863 
z
" id="DejaVuSans-6c" transform="scale(0.015625)"/>
       <path d="M 1959 3097 
Q 1497 3097 1228 2736 
Q 959 2375 959 1747 
Q 959 1119 1226 758 
Q 1494 397 1959 397 
Q 2419 397 2687 759 
Q 2956 1122 2956 1747 
Q 2956 2369 2687 2733 
Q 2419 3097 1959 3097 
z
M 1959 3584 
Q 2709 3584 3137 3096 
Q 3566 2609 3566 1747 
Q 3566 888 3137 398 
Q 2709 -91 1959 -91 
Q 1206 -91 779 398 
Q 353 888 353 1747 
Q 353 2609 779 3096 
Q 1206 3584 1959 3584 
z
" id="DejaVuSans-6f" transform="scale(0.015625)"/>
       <path d="M 2906 1791 
Q 2906 2416 2648 2759 
Q 2391 3103 1925 3103 
Q 1463 3103 1205 2759 
Q 947 2416 947 1791 
Q 947 1169 1205 825 
Q 1463 481 1925 481 
Q 2391 481 2648 825 
Q 2906 1169 2906 1791 
z
M 3481 434 
Q 3481 -459 3084 -895 
Q 2688 -1331 1869 -1331 
Q 1566 -1331 1297 -1286 
Q 1028 -1241 775 -1147 
L 775 -588 
Q 1028 -725 1275 -790 
Q 1522 -856 1778 -856 
Q 2344 -856 2625 -561 
Q 2906 -266 2906 331 
L 2906 616 
Q 2728 306 2450 153 
Q 2172 0 1784 0 
Q 1141 0 747 490 
Q 353 981 353 1791 
Q 353 2603 747 3093 
Q 1141 3584 1784 3584 
Q 2172 3584 2450 3431 
Q 2728 3278 2906 2969 
L 2906 3500 
L 3481 3500 
L 3481 434 
z
" id="DejaVuSans-67" transform="scale(0.015625)"/>
       <path d="M 794 531 
L 1825 531 
L 1825 4091 
L 703 3866 
L 703 4441 
L 1819 4666 
L 2450 4666 
L 2450 531 
L 3481 531 
L 3481 0 
L 794 0 
L 794 531 
z
" id="DejaVuSans-31" transform="scale(0.015625)"/>
       <path d="M 1984 4856 
Q 1566 4138 1362 3434 
Q 1159 2731 1159 2009 
Q 1159 1288 1364 580 
Q 1569 -128 1984 -844 
L 1484 -844 
Q 1016 -109 783 600 
Q 550 1309 550 2009 
Q 550 2706 781 3412 
Q 1013 4119 1484 4856 
L 1984 4856 
z
" id="DejaVuSans-28" transform="scale(0.015625)"/>
       <path d="M 3272 2816 
L 2363 2816 
L 2100 1772 
L 3016 1772 
L 3272 2816 
z
M 2803 4594 
L 2478 3297 
L 3391 3297 
L 3719 4594 
L 4219 4594 
L 3897 3297 
L 4872 3297 
L 4872 2816 
L 3775 2816 
L 3519 1772 
L 4513 1772 
L 4513 1294 
L 3397 1294 
L 3072 0 
L 2572 0 
L 2894 1294 
L 1978 1294 
L 1656 0 
L 1153 0 
L 1478 1294 
L 494 1294 
L 494 1772 
L 1594 1772 
L 1856 2816 
L 850 2816 
L 850 3297 
L 1978 3297 
L 2297 4594 
L 2803 4594 
z
" id="DejaVuSans-23" transform="scale(0.015625)"/>
       <path id="DejaVuSans-20" transform="scale(0.015625)"/>
       <path d="M 2375 4863 
L 2375 4384 
L 1825 4384 
Q 1516 4384 1395 4259 
Q 1275 4134 1275 3809 
L 1275 3500 
L 2222 3500 
L 2222 3053 
L 1275 3053 
L 1275 0 
L 697 0 
L 697 3053 
L 147 3053 
L 147 3500 
L 697 3500 
L 697 3744 
Q 697 4328 969 4595 
Q 1241 4863 1831 4863 
L 2375 4863 
z
" id="DejaVuSans-66" transform="scale(0.015625)"/>
       <path d="M 313 2009 
L 1997 2009 
L 1997 1497 
L 313 1497 
L 313 2009 
z
" id="DejaVuSans-2d" transform="scale(0.015625)"/>
       <path d="M 3597 1894 
L 3597 1613 
L 953 1613 
Q 991 1019 1311 708 
Q 1631 397 2203 397 
Q 2534 397 2845 478 
Q 3156 559 3463 722 
L 3463 178 
Q 3153 47 2828 -22 
Q 2503 -91 2169 -91 
Q 1331 -91 842 396 
Q 353 884 353 1716 
Q 353 2575 817 3079 
Q 1281 3584 2069 3584 
Q 2775 3584 3186 3129 
Q 3597 2675 3597 1894 
z
M 3022 2063 
Q 3016 2534 2758 2815 
Q 2500 3097 2075 3097 
Q 1594 3097 1305 2825 
Q 1016 2553 972 2059 
L 3022 2063 
z
" id="DejaVuSans-65" transform="scale(0.015625)"/>
       <path d="M 191 3500 
L 800 3500 
L 1894 563 
L 2988 3500 
L 3597 3500 
L 2284 0 
L 1503 0 
L 191 3500 
z
" id="DejaVuSans-76" transform="scale(0.015625)"/>
       <path d="M 2194 1759 
Q 1497 1759 1228 1600 
Q 959 1441 959 1056 
Q 959 750 1161 570 
Q 1363 391 1709 391 
Q 2188 391 2477 730 
Q 2766 1069 2766 1631 
L 2766 1759 
L 2194 1759 
z
M 3341 1997 
L 3341 0 
L 2766 0 
L 2766 531 
Q 2569 213 2275 61 
Q 1981 -91 1556 -91 
Q 1019 -91 701 211 
Q 384 513 384 1019 
Q 384 1609 779 1909 
Q 1175 2209 1959 2209 
L 2766 2209 
L 2766 2266 
Q 2766 2663 2505 2880 
Q 2244 3097 1772 3097 
Q 1472 3097 1187 3025 
Q 903 2953 641 2809 
L 641 3341 
Q 956 3463 1253 3523 
Q 1550 3584 1831 3584 
Q 2591 3584 2966 3190 
Q 3341 2797 3341 1997 
z
" id="DejaVuSans-61" transform="scale(0.015625)"/>
       <path d="M 2834 3397 
L 2834 2853 
Q 2591 2978 2328 3040 
Q 2066 3103 1784 3103 
Q 1356 3103 1142 2972 
Q 928 2841 928 2578 
Q 928 2378 1081 2264 
Q 1234 2150 1697 2047 
L 1894 2003 
Q 2506 1872 2764 1633 
Q 3022 1394 3022 966 
Q 3022 478 2636 193 
Q 2250 -91 1575 -91 
Q 1294 -91 989 -36 
Q 684 19 347 128 
L 347 722 
Q 666 556 975 473 
Q 1284 391 1588 391 
Q 1994 391 2212 530 
Q 2431 669 2431 922 
Q 2431 1156 2273 1281 
Q 2116 1406 1581 1522 
L 1381 1569 
Q 847 1681 609 1914 
Q 372 2147 372 2553 
Q 372 3047 722 3315 
Q 1072 3584 1716 3584 
Q 2034 3584 2315 3537 
Q 2597 3491 2834 3397 
z
" id="DejaVuSans-73" transform="scale(0.015625)"/>
       <path d="M 1625 4666 
L 2156 4666 
L 531 -594 
L 0 -594 
L 1625 4666 
z
" id="DejaVuSans-2f" transform="scale(0.015625)"/>
       <path d="M 2906 2969 
L 2906 4863 
L 3481 4863 
L 3481 0 
L 2906 0 
L 2906 525 
Q 2725 213 2448 61 
Q 2172 -91 1784 -91 
Q 1150 -91 751 415 
Q 353 922 353 1747 
Q 353 2572 751 3078 
Q 1150 3584 1784 3584 
Q 2172 3584 2448 3432 
Q 2725 3281 2906 2969 
z
M 947 1747 
Q 947 1113 1208 752 
Q 1469 391 1925 391 
Q 2381 391 2643 752 
Q 2906 1113 2906 1747 
Q 2906 2381 2643 2742 
Q 2381 3103 1925 3103 
Q 1469 3103 1208 2742 
Q 947 2381 947 1747 
z
" id="DejaVuSans-64" transform="scale(0.015625)"/>
       <path d="M 603 3500 
L 1178 3500 
L 1178 0 
L 603 0 
L 603 3500 
z
M 603 4863 
L 1178 4863 
L 1178 4134 
L 603 4134 
L 603 4863 
z
" id="DejaVuSans-69" transform="scale(0.015625)"/>
       <path d="M 3328 2828 
Q 3544 3216 3844 3400 
Q 4144 3584 4550 3584 
Q 5097 3584 5394 3201 
Q 5691 2819 5691 2113 
L 5691 0 
L 5113 0 
L 5113 2094 
Q 5113 2597 4934 2840 
Q 4756 3084 4391 3084 
Q 3944 3084 3684 2787 
Q 3425 2491 3425 1978 
L 3425 0 
L 2847 0 
L 2847 2094 
Q 2847 2600 2669 2842 
Q 2491 3084 2119 3084 
Q 1678 3084 1418 2786 
Q 1159 2488 1159 1978 
L 1159 0 
L 581 0 
L 581 3500 
L 1159 3500 
L 1159 2956 
Q 1356 3278 1631 3431 
Q 1906 3584 2284 3584 
Q 2666 3584 2933 3390 
Q 3200 3197 3328 2828 
z
" id="DejaVuSans-6d" transform="scale(0.015625)"/>
       <path d="M 3513 2113 
L 3513 0 
L 2938 0 
L 2938 2094 
Q 2938 2591 2744 2837 
Q 2550 3084 2163 3084 
Q 1697 3084 1428 2787 
Q 1159 2491 1159 1978 
L 1159 0 
L 581 0 
L 581 3500 
L 1159 3500 
L 1159 2956 
Q 1366 3272 1645 3428 
Q 1925 3584 2291 3584 
Q 2894 3584 3203 3211 
Q 3513 2838 3513 2113 
z
" id="DejaVuSans-6e" transform="scale(0.015625)"/>
       <path d="M 513 4856 
L 1013 4856 
Q 1481 4119 1714 3412 
Q 1947 2706 1947 2009 
Q 1947 1309 1714 600 
Q 1481 -109 1013 -844 
L 513 -844 
Q 928 -128 1133 580 
Q 1338 1288 1338 2009 
Q 1338 2731 1133 3434 
Q 928 4138 513 4856 
z
" id="DejaVuSans-29" transform="scale(0.015625)"/>
      </defs>
      <use xlink:href="#DejaVuSans-6c"/>
      <use x="27.783203" xlink:href="#DejaVuSans-6f"/>
      <use x="88.964844" xlink:href="#DejaVuSans-67"/>
      <use x="152.441406" xlink:href="#DejaVuSans-31"/>
      <use x="216.064453" xlink:href="#DejaVuSans-30"/>
      <use x="279.6875" xlink:href="#DejaVuSans-28"/>
      <use x="318.701172" xlink:href="#DejaVuSans-23"/>
      <use x="402.490234" xlink:href="#DejaVuSans-20"/>
      <use x="434.277344" xlink:href="#DejaVuSans-66"/>
      <use x="463.982422" xlink:href="#DejaVuSans-2d"/>
      <use x="500.066406" xlink:href="#DejaVuSans-65"/>
      <use x="561.589844" xlink:href="#DejaVuSans-76"/>
      <use x="620.769531" xlink:href="#DejaVuSans-61"/>
      <use x="682.048828" xlink:href="#DejaVuSans-6c"/>
      <use x="709.832031" xlink:href="#DejaVuSans-73"/>
      <use x="761.931641" xlink:href="#DejaVuSans-20"/>
      <use x="793.71875" xlink:href="#DejaVuSans-2f"/>
      <use x="827.410156" xlink:href="#DejaVuSans-20"/>
      <use x="859.197266" xlink:href="#DejaVuSans-64"/>
      <use x="922.673828" xlink:href="#DejaVuSans-69"/>
      <use x="950.457031" xlink:href="#DejaVuSans-6d"/>
      <use x="1047.869141" xlink:href="#DejaVuSans-65"/>
      <use x="1109.392578" xlink:href="#DejaVuSans-6e"/>
      <use x="1172.771484" xlink:href="#DejaVuSans-73"/>
      <use x="1224.871094" xlink:href="#DejaVuSans-69"/>
      <use x="1252.654297" xlink:href="#DejaVuSans-6f"/>
      <use x="1313.835938" xlink:href="#DejaVuSans-6e"/>
      <use x="1377.214844" xlink:href="#DejaVuSans-29"/>
     </g>
    </g>
   </g>
   <g id="matplotlib.axis_2">
    <g id="ytick_1">
     <g id="line2d_21">
      <path clip-path="url(#pfc633e16cf)" d="M 57.6 298.944 
L 338.688 298.944 
" style="fill:none;stroke:#b0b0b0;stroke-linecap:square;stroke-width:0.8;"/>
     </g>
     <g id="line2d_22">
      <defs>
       <path d="M 0 0 
L -3.5 0 
" id="m191b909ee6" style="stroke:#000000;stroke-width:0.8;"/>
      </defs>
      <g>
       <use style="stroke:#000000;stroke-width:0.8;" x="57.6" xlink:href="#m191b909ee6" y="298.944"/>
      </g>
     </g>
     <g id="text_6">
      <!-- 0.0 -->
      <g transform="translate(25.155 305.02275)scale(0.16 -0.16)">
       <defs>
        <path d="M 684 794 
L 1344 794 
L 1344 0 
L 684 0 
L 684 794 
z
" id="DejaVuSans-2e" transform="scale(0.015625)"/>
       </defs>
       <use xlink:href="#DejaVuSans-30"/>
       <use x="63.623047" xlink:href="#DejaVuSans-2e"/>
       <use x="95.410156" xlink:href="#DejaVuSans-30"/>
      </g>
     </g>
    </g>
    <g id="ytick_2">
     <g id="line2d_23">
      <path clip-path="url(#pfc633e16cf)" d="M 57.6 245.22202 
L 338.688 245.22202 
" style="fill:none;stroke:#b0b0b0;stroke-linecap:square;stroke-width:0.8;"/>
     </g>
     <g id="line2d_24">
      <g>
       <use style="stroke:#000000;stroke-width:0.8;" x="57.6" xlink:href="#m191b909ee6" y="245.22202"/>
      </g>
     </g>
     <g id="text_7">
      <!-- 0.2 -->
      <g transform="translate(25.155 251.30077)scale(0.16 -0.16)">
       <use xlink:href="#DejaVuSans-30"/>
       <use x="63.623047" xlink:href="#DejaVuSans-2e"/>
       <use x="95.410156" xlink:href="#DejaVuSans-32"/>
      </g>
     </g>
    </g>
    <g id="ytick_3">
     <g id="line2d_25">
      <path clip-path="url(#pfc633e16cf)" d="M 57.6 191.50004 
L 338.688 191.50004 
" style="fill:none;stroke:#b0b0b0;stroke-linecap:square;stroke-width:0.8;"/>
     </g>
     <g id="line2d_26">
      <g>
       <use style="stroke:#000000;stroke-width:0.8;" x="57.6" xlink:href="#m191b909ee6" y="191.50004"/>
      </g>
     </g>
     <g id="text_8">
      <!-- 0.4 -->
      <g transform="translate(25.155 197.57879)scale(0.16 -0.16)">
       <use xlink:href="#DejaVuSans-30"/>
       <use x="63.623047" xlink:href="#DejaVuSans-2e"/>
       <use x="95.410156" xlink:href="#DejaVuSans-34"/>
      </g>
     </g>
    </g>
    <g id="ytick_4">
     <g id="line2d_27">
      <path clip-path="url(#pfc633e16cf)" d="M 57.6 137.778059 
L 338.688 137.778059 
" style="fill:none;stroke:#b0b0b0;stroke-linecap:square;stroke-width:0.8;"/>
     </g>
     <g id="line2d_28">
      <g>
       <use style="stroke:#000000;stroke-width:0.8;" x="57.6" xlink:href="#m191b909ee6" y="137.778059"/>
      </g>
     </g>
     <g id="text_9">
      <!-- 0.6 -->
      <g transform="translate(25.155 143.856809)scale(0.16 -0.16)">
       <use xlink:href="#DejaVuSans-30"/>
       <use x="63.623047" xlink:href="#DejaVuSans-2e"/>
       <use x="95.410156" xlink:href="#DejaVuSans-36"/>
      </g>
     </g>
    </g>
    <g id="ytick_5">
     <g id="line2d_29">
      <path clip-path="url(#pfc633e16cf)" d="M 57.6 84.056079 
L 338.688 84.056079 
" style="fill:none;stroke:#b0b0b0;stroke-linecap:square;stroke-width:0.8;"/>
     </g>
     <g id="line2d_30">
      <g>
       <use style="stroke:#000000;stroke-width:0.8;" x="57.6" xlink:href="#m191b909ee6" y="84.056079"/>
      </g>
     </g>
     <g id="text_10">
      <!-- 0.8 -->
      <g transform="translate(25.155 90.134829)scale(0.16 -0.16)">
       <defs>
        <path d="M 2034 2216 
Q 1584 2216 1326 1975 
Q 1069 1734 1069 1313 
Q 1069 891 1326 650 
Q 1584 409 2034 409 
Q 2484 409 2743 651 
Q 3003 894 3003 1313 
Q 3003 1734 2745 1975 
Q 2488 2216 2034 2216 
z
M 1403 2484 
Q 997 2584 770 2862 
Q 544 3141 544 3541 
Q 544 4100 942 4425 
Q 1341 4750 2034 4750 
Q 2731 4750 3128 4425 
Q 3525 4100 3525 3541 
Q 3525 3141 3298 2862 
Q 3072 2584 2669 2484 
Q 3125 2378 3379 2068 
Q 3634 1759 3634 1313 
Q 3634 634 3220 271 
Q 2806 -91 2034 -91 
Q 1263 -91 848 271 
Q 434 634 434 1313 
Q 434 1759 690 2068 
Q 947 2378 1403 2484 
z
M 1172 3481 
Q 1172 3119 1398 2916 
Q 1625 2713 2034 2713 
Q 2441 2713 2670 2916 
Q 2900 3119 2900 3481 
Q 2900 3844 2670 4047 
Q 2441 4250 2034 4250 
Q 1625 4250 1398 4047 
Q 1172 3844 1172 3481 
z
" id="DejaVuSans-38" transform="scale(0.015625)"/>
       </defs>
       <use xlink:href="#DejaVuSans-30"/>
       <use x="63.623047" xlink:href="#DejaVuSans-2e"/>
       <use x="95.410156" xlink:href="#DejaVuSans-38"/>
      </g>
     </g>
    </g>
    <g id="ytick_6">
     <g id="line2d_31">
      <path clip-path="url(#pfc633e16cf)" d="M 57.6 30.334099 
L 338.688 30.334099 
" style="fill:none;stroke:#b0b0b0;stroke-linecap:square;stroke-width:0.8;"/>
     </g>
     <g id="line2d_32">
      <g>
       <use style="stroke:#000000;stroke-width:0.8;" x="57.6" xlink:href="#m191b909ee6" y="30.334099"/>
      </g>
     </g>
     <g id="text_11">
      <!-- 1.0 -->
      <g transform="translate(25.155 36.412849)scale(0.16 -0.16)">
       <use xlink:href="#DejaVuSans-31"/>
       <use x="63.623047" xlink:href="#DejaVuSans-2e"/>
       <use x="95.410156" xlink:href="#DejaVuSans-30"/>
      </g>
     </g>
    </g>
    <g id="text_12">
     <!-- Fraction of function,target pairs -->
     <g transform="translate(17.619531 297.681)rotate(-90)scale(0.17 -0.17)">
      <defs>
       <path d="M 628 4666 
L 3309 4666 
L 3309 4134 
L 1259 4134 
L 1259 2759 
L 3109 2759 
L 3109 2228 
L 1259 2228 
L 1259 0 
L 628 0 
L 628 4666 
z
" id="DejaVuSans-46" transform="scale(0.015625)"/>
       <path d="M 2631 2963 
Q 2534 3019 2420 3045 
Q 2306 3072 2169 3072 
Q 1681 3072 1420 2755 
Q 1159 2438 1159 1844 
L 1159 0 
L 581 0 
L 581 3500 
L 1159 3500 
L 1159 2956 
Q 1341 3275 1631 3429 
Q 1922 3584 2338 3584 
Q 2397 3584 2469 3576 
Q 2541 3569 2628 3553 
L 2631 2963 
z
" id="DejaVuSans-72" transform="scale(0.015625)"/>
       <path d="M 3122 3366 
L 3122 2828 
Q 2878 2963 2633 3030 
Q 2388 3097 2138 3097 
Q 1578 3097 1268 2742 
Q 959 2388 959 1747 
Q 959 1106 1268 751 
Q 1578 397 2138 397 
Q 2388 397 2633 464 
Q 2878 531 3122 666 
L 3122 134 
Q 2881 22 2623 -34 
Q 2366 -91 2075 -91 
Q 1284 -91 818 406 
Q 353 903 353 1747 
Q 353 2603 823 3093 
Q 1294 3584 2113 3584 
Q 2378 3584 2631 3529 
Q 2884 3475 3122 3366 
z
" id="DejaVuSans-63" transform="scale(0.015625)"/>
       <path d="M 1172 4494 
L 1172 3500 
L 2356 3500 
L 2356 3053 
L 1172 3053 
L 1172 1153 
Q 1172 725 1289 603 
Q 1406 481 1766 481 
L 2356 481 
L 2356 0 
L 1766 0 
Q 1100 0 847 248 
Q 594 497 594 1153 
L 594 3053 
L 172 3053 
L 172 3500 
L 594 3500 
L 594 4494 
L 1172 4494 
z
" id="DejaVuSans-74" transform="scale(0.015625)"/>
       <path d="M 544 1381 
L 544 3500 
L 1119 3500 
L 1119 1403 
Q 1119 906 1312 657 
Q 1506 409 1894 409 
Q 2359 409 2629 706 
Q 2900 1003 2900 1516 
L 2900 3500 
L 3475 3500 
L 3475 0 
L 2900 0 
L 2900 538 
Q 2691 219 2414 64 
Q 2138 -91 1772 -91 
Q 1169 -91 856 284 
Q 544 659 544 1381 
z
M 1991 3584 
L 1991 3584 
z
" id="DejaVuSans-75" transform="scale(0.015625)"/>
       <path d="M 750 794 
L 1409 794 
L 1409 256 
L 897 -744 
L 494 -744 
L 750 256 
L 750 794 
z
" id="DejaVuSans-2c" transform="scale(0.015625)"/>
       <path d="M 1159 525 
L 1159 -1331 
L 581 -1331 
L 581 3500 
L 1159 3500 
L 1159 2969 
Q 1341 3281 1617 3432 
Q 1894 3584 2278 3584 
Q 2916 3584 3314 3078 
Q 3713 2572 3713 1747 
Q 3713 922 3314 415 
Q 2916 -91 2278 -91 
Q 1894 -91 1617 61 
Q 1341 213 1159 525 
z
M 3116 1747 
Q 3116 2381 2855 2742 
Q 2594 3103 2138 3103 
Q 1681 3103 1420 2742 
Q 1159 2381 1159 1747 
Q 1159 1113 1420 752 
Q 1681 391 2138 391 
Q 2594 391 2855 752 
Q 3116 1113 3116 1747 
z
" id="DejaVuSans-70" transform="scale(0.015625)"/>
      </defs>
      <use xlink:href="#DejaVuSans-46"/>
      <use x="50.269531" xlink:href="#DejaVuSans-72"/>
      <use x="91.382812" xlink:href="#DejaVuSans-61"/>
      <use x="152.662109" xlink:href="#DejaVuSans-63"/>
      <use x="207.642578" xlink:href="#DejaVuSans-74"/>
      <use x="246.851562" xlink:href="#DejaVuSans-69"/>
      <use x="274.634766" xlink:href="#DejaVuSans-6f"/>
      <use x="335.816406" xlink:href="#DejaVuSans-6e"/>
      <use x="399.195312" xlink:href="#DejaVuSans-20"/>
      <use x="430.982422" xlink:href="#DejaVuSans-6f"/>
      <use x="492.164062" xlink:href="#DejaVuSans-66"/>
      <use x="527.369141" xlink:href="#DejaVuSans-20"/>
      <use x="559.15625" xlink:href="#DejaVuSans-66"/>
      <use x="594.361328" xlink:href="#DejaVuSans-75"/>
      <use x="657.740234" xlink:href="#DejaVuSans-6e"/>
      <use x="721.119141" xlink:href="#DejaVuSans-63"/>
      <use x="776.099609" xlink:href="#DejaVuSans-74"/>
      <use x="815.308594" xlink:href="#DejaVuSans-69"/>
      <use x="843.091797" xlink:href="#DejaVuSans-6f"/>
      <use x="904.273438" xlink:href="#DejaVuSans-6e"/>
      <use x="967.652344" xlink:href="#DejaVuSans-2c"/>
      <use x="999.439453" xlink:href="#DejaVuSans-74"/>
      <use x="1038.648438" xlink:href="#DejaVuSans-61"/>
      <use x="1099.927734" xlink:href="#DejaVuSans-72"/>
      <use x="1139.291016" xlink:href="#DejaVuSans-67"/>
      <use x="1202.767578" xlink:href="#DejaVuSans-65"/>
      <use x="1264.291016" xlink:href="#DejaVuSans-74"/>
      <use x="1303.5" xlink:href="#DejaVuSans-20"/>
      <use x="1335.287109" xlink:href="#DejaVuSans-70"/>
      <use x="1398.763672" xlink:href="#DejaVuSans-61"/>
      <use x="1460.042969" xlink:href="#DejaVuSans-69"/>
      <use x="1487.826172" xlink:href="#DejaVuSans-72"/>
      <use x="1528.939453" xlink:href="#DejaVuSans-73"/>
     </g>
    </g>
   </g>
   <g id="line2d_33">
    <defs>
     <path d="M 0 1.5 
C 0.397805 1.5 0.77937 1.341951 1.06066 1.06066 
C 1.341951 0.77937 1.5 0.397805 1.5 0 
C 1.5 -0.397805 1.341951 -0.77937 1.06066 -1.06066 
C 0.77937 -1.341951 0.397805 -1.5 0 -1.5 
C -0.397805 -1.5 -0.77937 -1.341951 -1.06066 -1.06066 
C -1.341951 -0.77937 -1.5 -0.397805 -1.5 0 
C -1.5 0.397805 -1.341951 0.77937 -1.06066 1.06066 
C -0.77937 1.341951 -0.397805 1.5 0 1.5 
z
" id="mc258aefef9" style="stroke:#f5deb3;"/>
    </defs>
    <g>
     <use style="fill:#f5deb3;stroke:#f5deb3;" x="143.902815" xlink:href="#mc258aefef9" y="30.334099"/>
     <use style="fill:#f5deb3;stroke:#f5deb3;" x="143.902815" xlink:href="#mc258aefef9" y="30.334099"/>
    </g>
   </g>
   <g id="line2d_34">
    <defs>
     <path d="M 0 1.5 
C 0.397805 1.5 0.77937 1.341951 1.06066 1.06066 
C 1.341951 0.77937 1.5 0.397805 1.5 0 
C 1.5 -0.397805 1.341951 -0.77937 1.06066 -1.06066 
C 0.77937 -1.341951 0.397805 -1.5 0 -1.5 
C -0.397805 -1.5 -0.77937 -1.341951 -1.06066 -1.06066 
C -1.341951 -0.77937 -1.5 -0.397805 -1.5 0 
C -1.5 0.397805 -1.341951 0.77937 -1.06066 1.06066 
C -0.77937 1.341951 -0.397805 1.5 0 1.5 
z
" id="md4e413afda" style="stroke:#000080;"/>
    </defs>
    <g>
     <use style="fill:#000080;stroke:#000080;" x="253.496596" xlink:href="#md4e413afda" y="30.334099"/>
     <use style="fill:#000080;stroke:#000080;" x="253.496596" xlink:href="#md4e413afda" y="30.334099"/>
    </g>
   </g>
   <g id="line2d_35">
    <path d="M 45.512012 298.944 
L 45.512012 278.403243 
L 57.6 278.403243 
L 57.6 268.396207 
L 64.67102 268.396207 
L 64.67102 264.182719 
L 69.687988 264.182719 
L 69.687988 263.129347 
L 73.579452 263.129347 
L 73.579452 258.389172 
L 76.759008 258.389172 
L 76.759008 255.229055 
L 79.447285 255.229055 
L 79.447285 254.702369 
L 81.775977 254.702369 
L 81.775977 250.488881 
L 83.830028 250.488881 
L 83.830028 249.435508 
L 85.66744 249.435508 
L 85.66744 246.802078 
L 87.329581 246.802078 
L 87.329581 244.168648 
L 91.535274 244.168648 
L 91.535274 243.641962 
L 98.606294 243.641962 
L 98.606294 240.481845 
L 100.192776 240.481845 
L 100.192776 239.428473 
L 105.951954 239.428473 
L 105.951954 238.901787 
L 106.48859 238.901787 
L 106.48859 237.321729 
L 109.401893 237.321729 
L 109.401893 236.268356 
L 111.505558 236.268356 
L 111.505558 234.688298 
L 115.077025 234.688298 
L 115.077025 234.161612 
L 115.711251 234.161612 
L 115.711251 233.634926 
L 117.765302 233.634926 
L 117.765302 229.421437 
L 118.310324 229.421437 
L 118.310324 228.894751 
L 119.097192 228.894751 
L 119.097192 228.368065 
L 119.351785 228.368065 
L 119.351785 227.314693 
L 120.33454 227.314693 
L 120.33454 226.261321 
L 123.985457 226.261321 
L 123.985457 224.154577 
L 124.178158 224.154577 
L 124.178158 223.627891 
L 124.557288 223.627891 
L 124.557288 220.467774 
L 125.822869 220.467774 
L 125.822869 218.36103 
L 127.799239 218.36103 
L 127.799239 217.834344 
L 130.398313 217.834344 
L 130.398313 216.780971 
L 132.060454 216.780971 
L 132.060454 216.254285 
L 133.352844 216.254285 
L 133.352844 215.727599 
L 133.800029 215.727599 
L 133.800029 215.200913 
L 135.076644 215.200913 
L 135.076644 213.620855 
L 137.107884 213.620855 
L 137.107884 213.094169 
L 138.594838 213.094169 
L 138.594838 212.040797 
L 139.572998 212.040797 
L 139.572998 211.514111 
L 139.887228 211.514111 
L 139.887228 210.987425 
L 140.723258 210.987425 
L 140.723258 209.934052 
L 147.010073 209.934052 
L 147.010073 209.407366 
L 147.215849 209.407366 
L 147.215849 208.88068 
L 148.064279 208.88068 
L 148.064279 203.613819 
L 150.556607 203.613819 
L 150.556607 199.927017 
L 150.849711 199.927017 
L 150.849711 199.400331 
L 151.501723 199.400331 
L 151.501723 198.873645 
L 154.098334 198.873645 
L 154.098334 196.7669 
L 154.269814 196.7669 
L 154.269814 195.713528 
L 154.439623 195.713528 
L 154.439623 193.080098 
L 155.167744 193.080098 
L 155.167744 192.026726 
L 155.361158 192.026726 
L 155.361158 187.286551 
L 155.928852 187.286551 
L 155.928852 186.759865 
L 156.297301 186.759865 
L 156.297301 185.179807 
L 156.747178 185.179807 
L 156.747178 184.653121 
L 158.276927 184.653121 
L 158.276927 183.599748 
L 158.546057 183.599748 
L 158.546057 182.546376 
L 159.532469 182.546376 
L 159.532469 182.01969 
L 160.005512 182.01969 
L 160.054568 176.752829 
L 160.321935 176.752829 
L 160.321935 175.699457 
L 160.466062 175.699457 
L 160.56149 169.90591 
L 161.100288 169.90591 
L 161.192316 163.585677 
L 161.352206 163.585677 
L 161.442917 162.005619 
L 161.999419 162.005619 
L 161.999419 160.952247 
L 162.324991 160.952247 
L 162.389382 158.318817 
L 162.791763 158.318817 
L 162.791763 157.79213 
L 163.246367 157.79213 
L 163.327764 156.738758 
L 163.52961 156.738758 
L 163.52961 155.685386 
L 164.004716 155.685386 
L 164.102088 153.051956 
L 164.580957 153.051956 
L 164.65637 150.418525 
L 164.787563 150.418525 
L 164.787563 149.891839 
L 165.120455 149.891839 
L 165.120455 148.838467 
L 165.518877 148.838467 
L 165.518877 148.311781 
L 165.873346 148.311781 
L 165.873346 147.785095 
L 166.6119 147.785095 
L 166.6119 146.205037 
L 166.729224 146.205037 
L 166.729224 144.624978 
L 167.027338 144.624978 
L 167.076532 141.464862 
L 167.384913 141.464862 
L 167.384913 140.41149 
L 168.415645 140.41149 
L 168.476198 137.778059 
L 168.596677 137.778059 
L 168.656606 134.091257 
L 168.835167 134.091257 
L 168.835167 132.511199 
L 168.997257 132.511199 
L 168.997257 131.457826 
L 169.128764 131.457826 
L 169.201398 129.877768 
L 169.460402 129.877768 
L 169.460402 128.29771 
L 169.827856 128.29771 
L 169.827856 127.244338 
L 170.008719 127.244338 
L 170.008719 126.190966 
L 170.242438 126.190966 
L 170.28336 123.557535 
L 170.432588 123.557535 
L 170.540321 121.977477 
L 170.687376 121.977477 
L 170.687376 121.450791 
L 170.899085 121.450791 
L 170.899085 119.870733 
L 171.108254 119.870733 
L 171.173108 117.237302 
L 171.302098 117.237302 
L 171.302098 116.710616 
L 171.417378 116.710616 
L 171.49381 114.603872 
L 171.696007 114.603872 
L 171.696007 114.077186 
L 171.83367 114.077186 
L 171.908303 113.023814 
L 172.373705 113.023814 
L 172.373705 110.917069 
L 173.00275 110.917069 
L 173.00275 110.390383 
L 173.118935 110.390383 
L 173.118935 109.337011 
L 173.417442 109.337011 
L 173.417442 108.810325 
L 173.576085 108.810325 
L 173.576085 108.283639 
L 174.07645 108.283639 
L 174.185719 106.176895 
L 174.380694 106.176895 
L 174.434469 105.123522 
L 174.690307 105.123522 
L 174.743137 102.490092 
L 175.180705 102.490092 
L 175.19099 100.910034 
L 175.344551 100.910034 
L 175.344551 99.329976 
L 175.687696 99.329976 
L 175.77741 97.223231 
L 176.411991 97.223231 
L 176.411991 96.169859 
L 176.912855 96.169859 
L 176.996497 94.063115 
L 177.226752 94.063115 
L 177.226752 93.536429 
L 178.161939 93.536429 
L 178.161939 93.009743 
L 178.411629 93.009743 
L 178.411629 91.95637 
L 179.074226 91.95637 
L 179.074226 90.902998 
L 179.229898 90.902998 
L 179.229898 90.376312 
L 179.408431 90.376312 
L 179.408431 89.849626 
L 181.569801 89.849626 
L 181.676464 88.269568 
L 182.055136 88.269568 
L 182.055136 87.742882 
L 182.452904 87.742882 
L 182.452904 87.216196 
L 182.587988 87.216196 
L 182.668539 85.109451 
L 183.019922 85.109451 
L 183.019922 84.056079 
L 183.370799 84.056079 
L 183.396511 83.002707 
L 183.714755 83.002707 
L 183.714755 82.476021 
L 184.132295 82.476021 
L 184.132295 80.369277 
L 185.310832 80.369277 
L 185.310832 77.735846 
L 187.685507 77.735846 
L 187.685507 74.049044 
L 188.028684 74.049044 
L 188.028684 72.995672 
L 188.912118 72.995672 
L 189.014812 71.942299 
L 189.250575 71.942299 
L 189.250575 69.835555 
L 193.778625 69.835555 
L 193.778625 69.308869 
L 194.332853 69.308869 
L 194.332853 68.255497 
L 194.45593 68.255497 
L 194.45593 67.202125 
L 194.622068 67.202125 
L 194.652412 64.568694 
L 195.032266 64.568694 
L 195.084923 60.881892 
L 234.344623 60.881892 
L 234.44775 56.668403 
L 234.464249 56.668403 
L 234.537617 52.454914 
L 234.621916 52.454914 
L 234.71902 48.241426 
L 234.749804 48.241426 
L 234.845192 46.134681 
L 234.92501 46.134681 
L 234.92501 45.607995 
L 235.038739 45.607995 
L 235.139837 42.447879 
L 235.161967 42.447879 
L 235.227202 40.867821 
L 235.371955 40.867821 
L 235.46336 38.761076 
L 235.839192 38.761076 
L 235.91934 37.181018 
L 246.383767 37.181018 
L 246.477179 34.020902 
L 246.51888 34.020902 
L 246.575069 32.440843 
L 246.895997 32.440843 
L 246.895997 31.914157 
L 253.370983 31.914157 
L 253.442526 30.860785 
L 253.496596 30.860785 
L 253.496596 30.334099 
L 338.688 30.334099 
L 338.688 30.334099 
" style="fill:none;stroke:#000080;stroke-linecap:square;stroke-width:1.5;"/>
   </g>
   <g id="line2d_36">
    <defs>
     <path d="M 0 6 
C 1.591219 6 3.117479 5.367802 4.242641 4.242641 
C 5.367802 3.117479 6 1.591219 6 0 
C 6 -1.591219 5.367802 -3.117479 4.242641 -4.242641 
C 3.117479 -5.367802 1.591219 -6 0 -6 
C -1.591219 -6 -3.117479 -5.367802 -4.242641 -4.242641 
C -5.367802 -3.117479 -6 -1.591219 -6 0 
C -6 1.591219 -5.367802 3.117479 -4.242641 4.242641 
C -3.117479 5.367802 -1.591219 6 0 6 
z
" id="m59660ee95d" style="stroke:#000080;stroke-width:1.5;"/>
    </defs>
    <g>
     <use style="fill-opacity:0;stroke:#000080;stroke-width:1.5;" x="117.765302" xlink:href="#m59660ee95d" y="233.634926"/>
     <use style="fill-opacity:0;stroke:#000080;stroke-width:1.5;" x="165.120455" xlink:href="#m59660ee95d" y="149.891839"/>
     <use style="fill-opacity:0;stroke:#000080;stroke-width:1.5;" x="195.084923" xlink:href="#m59660ee95d" y="63.515322"/>
     <use style="fill-opacity:0;stroke:#000080;stroke-width:1.5;" x="253.496596" xlink:href="#m59660ee95d" y="30.334099"/>
     <use style="fill-opacity:0;stroke:#000080;stroke-width:1.5;" x="253.496596" xlink:href="#m59660ee95d" y="30.334099"/>
     <use style="fill-opacity:0;stroke:#000080;stroke-width:1.5;" x="338.688" xlink:href="#m59660ee95d" y="30.334099"/>
    </g>
   </g>
   <g id="line2d_37">
    <path style="fill:none;stroke:#000080;stroke-linecap:square;stroke-width:1.5;"/>
    <g/>
   </g>
   <g id="line2d_38">
    <path clip-path="url(#pfc633e16cf)" d="M 234.201166 60.881892 
" style="fill:none;stroke:#000080;stroke-linecap:square;stroke-width:1.5;"/>
    <defs>
     <path d="M -12 12 
L 12 -12 
M -12 -12 
L 12 12 
" id="mb22750f26b" style="stroke:#000080;"/>
    </defs>
    <g clip-path="url(#pfc633e16cf)">
     <use style="fill:#000080;stroke:#000080;" x="234.201166" xlink:href="#mb22750f26b" y="60.881892"/>
    </g>
   </g>
   <g id="line2d_39">
    <defs>
     <path d="M 0 1.5 
C 0.397805 1.5 0.77937 1.341951 1.06066 1.06066 
C 1.341951 0.77937 1.5 0.397805 1.5 0 
C 1.5 -0.397805 1.341951 -0.77937 1.06066 -1.06066 
C 0.77937 -1.341951 0.397805 -1.5 0 -1.5 
C -0.397805 -1.5 -0.77937 -1.341951 -1.06066 -1.06066 
C -1.341951 -0.77937 -1.5 -0.397805 -1.5 0 
C -1.5 0.397805 -1.341951 0.77937 -1.06066 1.06066 
C -0.77937 1.341951 -0.397805 1.5 0 1.5 
z
" id="m4b05d337e0" style="stroke:#ff00ff;"/>
    </defs>
    <g>
     <use style="fill:#ff00ff;stroke:#ff00ff;" x="272.712382" xlink:href="#m4b05d337e0" y="30.334099"/>
     <use style="fill:#ff00ff;stroke:#ff00ff;" x="272.712382" xlink:href="#m4b05d337e0" y="30.334099"/>
    </g>
   </g>
   <g id="line2d_40">
    <path d="M 45.512012 298.944 
L 45.512012 278.929929 
L 57.6 278.929929 
L 57.6 274.189754 
L 64.67102 274.189754 
L 64.67102 272.08301 
L 69.687988 272.08301 
L 69.687988 268.922893 
L 73.579452 268.922893 
L 73.579452 266.816149 
L 76.759008 266.816149 
L 76.759008 263.129347 
L 79.447285 263.129347 
L 79.447285 262.60266 
L 81.775977 262.60266 
L 81.775977 261.022602 
L 83.830028 261.022602 
L 83.830028 256.282427 
L 88.846997 256.282427 
L 88.846997 254.702369 
L 90.242884 254.702369 
L 90.242884 253.122311 
L 92.73846 253.122311 
L 92.73846 250.488881 
L 93.863965 250.488881 
L 93.863965 249.435508 
L 96.86091 249.435508 
L 96.86091 247.85545 
L 100.934985 247.85545 
L 100.934985 246.802078 
L 102.989037 246.802078 
L 102.989037 246.275392 
L 103.623262 246.275392 
L 103.623262 245.748706 
L 106.48859 245.748706 
L 106.48859 243.641962 
L 108.948899 243.641962 
L 108.948899 243.115275 
L 115.077025 243.115275 
L 115.077025 242.588589 
L 116.323218 242.588589 
L 116.323218 242.061903 
L 116.621333 242.061903 
L 116.621333 239.428473 
L 119.850084 239.428473 
L 119.850084 237.848415 
L 120.33454 237.848415 
L 120.33454 237.321729 
L 121.036887 237.321729 
L 121.036887 235.214984 
L 122.362027 235.214984 
L 122.362027 234.161612 
L 122.573415 234.161612 
L 122.573415 233.634926 
L 123.790603 233.634926 
L 123.790603 233.10824 
L 124.92835 233.10824 
L 124.92835 229.421437 
L 125.110962 229.421437 
L 125.110962 227.314693 
L 125.291682 227.314693 
L 125.291682 226.788007 
L 126.338353 226.788007 
L 126.338353 225.734635 
L 126.50685 225.734635 
L 126.50685 224.681263 
L 127.325746 224.681263 
L 127.325746 224.154577 
L 128.856489 224.154577 
L 128.856489 223.627891 
L 131.439773 223.627891 
L 131.439773 220.467774 
L 135.076644 220.467774 
L 135.076644 219.414402 
L 135.280614 219.414402 
L 135.280614 218.36103 
L 136.831795 218.36103 
L 136.831795 217.834344 
L 137.198951 217.834344 
L 137.198951 217.307658 
L 137.558536 217.307658 
L 137.558536 215.727599 
L 138.426341 215.727599 
L 138.426341 215.200913 
L 140.195896 215.200913 
L 140.272217 213.094169 
L 140.79731 213.094169 
L 140.79731 211.514111 
L 141.235139 211.514111 
L 141.235139 210.987425 
L 142.010346 210.987425 
L 142.010346 210.460738 
L 143.653678 210.460738 
L 143.653678 209.934052 
L 144.026061 209.934052 
L 144.026061 208.88068 
L 144.629556 208.88068 
L 144.629556 206.773936 
L 145.497361 206.773936 
L 145.497361 205.720564 
L 147.419225 205.720564 
L 147.419225 205.193878 
L 149.195872 205.193878 
L 149.195872 202.033761 
L 150.429467 202.033761 
L 150.429467 199.927017 
L 151.421542 199.927017 
L 151.421542 199.400331 
L 151.818809 199.400331 
L 151.818809 198.873645 
L 152.360205 198.873645 
L 152.360205 198.346959 
L 152.624728 198.346959 
L 152.624728 197.820273 
L 152.811246 197.820273 
L 152.811246 196.240214 
L 153.105587 196.240214 
L 153.178403 192.026726 
L 153.395042 192.026726 
L 153.395042 190.446667 
L 154.269814 190.446667 
L 154.269814 189.919981 
L 154.405793 189.919981 
L 154.405793 187.813237 
L 154.93935 187.813237 
L 154.93935 187.286551 
L 156.083319 187.286551 
L 156.083319 184.653121 
L 156.205916 184.653121 
L 156.205916 184.126434 
L 156.357959 184.126434 
L 156.357959 183.599748 
L 157.214591 183.599748 
L 157.214591 182.01969 
L 157.557108 182.01969 
L 157.557108 180.439632 
L 157.809652 180.439632 
L 157.809652 179.38626 
L 158.492562 179.38626 
L 158.492562 178.859574 
L 159.481921 178.859574 
L 159.481921 177.806202 
L 159.733212 177.806202 
L 159.733212 177.279515 
L 160.054568 177.279515 
L 160.054568 176.226143 
L 160.537682 176.226143 
L 160.537682 175.699457 
L 161.007772 175.699457 
L 161.007772 175.172771 
L 161.215247 175.172771 
L 161.215247 173.592713 
L 161.801118 173.592713 
L 161.801118 173.066027 
L 162.432178 173.066027 
L 162.432178 172.539341 
L 162.602318 172.539341 
L 162.602318 171.485969 
L 163.020547 171.485969 
L 163.020547 170.959282 
L 163.287113 170.959282 
L 163.368321 169.90591 
L 163.428979 169.90591 
L 163.428979 168.852538 
L 163.748975 168.852538 
L 163.748975 168.325852 
L 164.712717 168.325852 
L 164.712717 167.799166 
L 165.02862 167.799166 
L 165.02862 167.27248 
L 165.157053 167.27248 
L 165.211808 165.165736 
L 165.820633 165.165736 
L 165.820633 163.585677 
L 166.134549 163.585677 
L 166.134549 162.532305 
L 166.289413 162.532305 
L 166.289413 158.845503 
L 166.425924 158.845503 
L 166.510705 156.212072 
L 166.561376 156.212072 
L 166.561376 155.1587 
L 166.862349 155.1587 
L 166.862349 154.632014 
L 167.417059 154.632014 
L 167.417059 154.105328 
L 167.656285 154.105328 
L 167.656285 152.52527 
L 167.84533 152.52527 
L 167.84533 150.418525 
L 167.985782 150.418525 
L 168.001318 149.365153 
L 168.18668 149.365153 
L 168.18668 148.838467 
L 168.566635 148.838467 
L 168.566635 148.311781 
L 168.790698 148.311781 
L 168.849965 146.205037 
L 168.938489 146.205037 
L 169.041203 144.098292 
L 169.099626 144.098292 
L 169.099626 143.571606 
L 169.316986 143.571606 
L 169.374494 141.991548 
L 169.701534 141.991548 
L 169.799863 138.304745 
L 170.14658 138.304745 
L 170.256089 136.198001 
L 170.337772 136.198001 
L 170.337772 135.671315 
L 170.486538 135.671315 
L 170.486538 134.091257 
L 170.872762 134.091257 
L 170.912232 131.984513 
L 171.620458 131.984513 
L 171.620458 130.93114 
L 171.746192 130.93114 
L 171.783736 129.351082 
L 172.105778 129.351082 
L 172.105778 128.824396 
L 172.276753 128.824396 
L 172.276753 128.29771 
L 172.577957 128.29771 
L 172.673253 120.397419 
L 172.708856 120.397419 
L 172.708856 119.870733 
L 173.643636 119.870733 
L 173.643636 119.344047 
L 173.878023 119.344047 
L 173.878023 118.817361 
L 174.07645 118.817361 
L 174.185719 117.763988 
L 177.390674 117.763988 
L 177.390674 117.237302 
L 177.642639 117.237302 
L 177.642639 116.710616 
L 178.057564 116.710616 
L 178.057564 116.18393 
L 178.170609 116.18393 
L 178.170609 114.603872 
L 178.437256 114.603872 
L 178.437256 114.077186 
L 178.674645 114.077186 
L 178.674645 113.5505 
L 178.8005 113.5505 
L 178.900534 112.497128 
L 178.933752 112.497128 
L 178.991731 111.443755 
L 179.090678 111.443755 
L 179.180888 109.337011 
L 179.505048 109.337011 
L 179.505048 108.810325 
L 181.640982 108.810325 
L 181.640982 108.283639 
L 182.062072 108.283639 
L 182.062072 107.756953 
L 184.37689 107.756953 
L 184.37689 106.703581 
L 185.6302 106.703581 
L 185.664074 105.123522 
L 185.899365 105.123522 
L 185.899365 101.963406 
L 186.043446 101.963406 
L 186.131524 99.329976 
L 186.208228 99.329976 
L 186.317224 97.749917 
L 186.333515 97.749917 
L 186.333515 96.696545 
L 186.570714 96.696545 
L 186.570714 94.589801 
L 192.836322 94.589801 
L 192.836322 92.483056 
L 193.129177 92.483056 
L 193.184231 86.68951 
L 193.485761 86.68951 
L 193.485761 86.162824 
L 193.767997 86.162824 
L 193.767997 85.636137 
L 193.891592 85.636137 
L 193.891592 85.109451 
L 194.091021 85.109451 
L 194.153527 83.529393 
L 234.333896 83.529393 
L 234.443279 74.57573 
L 234.498914 74.57573 
L 234.607611 67.202125 
L 234.61204 67.202125 
L 234.705811 58.248461 
L 234.73425 58.248461 
L 234.747438 56.668403 
L 234.889171 56.668403 
L 234.942736 54.561659 
L 235.245609 54.561659 
L 235.27974 51.928228 
L 235.756761 51.928228 
L 235.867428 48.241426 
L 235.873134 48.241426 
L 235.873134 47.71474 
L 246.355646 47.71474 
L 246.455255 42.974565 
L 246.480112 42.974565 
L 246.541927 38.23439 
L 246.626289 38.23439 
L 246.626289 37.707704 
L 246.827312 37.707704 
L 246.834412 35.074274 
L 247.097449 35.074274 
L 247.099946 34.020902 
L 253.478129 34.020902 
L 253.508819 32.440843 
L 253.610884 32.440843 
L 253.716001 31.387471 
L 258.466378 31.387471 
L 258.466378 30.860785 
L 272.712382 30.860785 
L 272.712382 30.334099 
L 338.688 30.334099 
L 338.688 30.334099 
" style="fill:none;stroke:#ff00ff;stroke-linecap:square;stroke-width:1.5;"/>
   </g>
   <g id="line2d_41">
    <defs>
     <path d="M 0 8.485281 
L 5.091169 0 
L 0 -8.485281 
L -5.091169 0 
z
" id="m7f21ec25e6" style="stroke:#ff00ff;stroke-linejoin:miter;stroke-width:1.5;"/>
    </defs>
    <g>
     <use style="fill-opacity:0;stroke:#ff00ff;stroke-linejoin:miter;stroke-width:1.5;" x="93.863965" xlink:href="#m7f21ec25e6" y="249.435508"/>
     <use style="fill-opacity:0;stroke:#ff00ff;stroke-linejoin:miter;stroke-width:1.5;" x="157.214591" xlink:href="#m7f21ec25e6" y="183.599748"/>
     <use style="fill-opacity:0;stroke:#ff00ff;stroke-linejoin:miter;stroke-width:1.5;" x="194.153527" xlink:href="#m7f21ec25e6" y="84.056079"/>
     <use style="fill-opacity:0;stroke:#ff00ff;stroke-linejoin:miter;stroke-width:1.5;" x="246.834412" xlink:href="#m7f21ec25e6" y="35.60096"/>
     <use style="fill-opacity:0;stroke:#ff00ff;stroke-linejoin:miter;stroke-width:1.5;" x="272.712382" xlink:href="#m7f21ec25e6" y="30.334099"/>
     <use style="fill-opacity:0;stroke:#ff00ff;stroke-linejoin:miter;stroke-width:1.5;" x="338.688" xlink:href="#m7f21ec25e6" y="30.334099"/>
    </g>
   </g>
   <g id="line2d_42">
    <path style="fill:none;stroke:#ff00ff;stroke-linecap:square;stroke-width:1.5;"/>
    <g/>
   </g>
   <g id="line2d_43">
    <path clip-path="url(#pfc633e16cf)" d="M 234.201166 83.529393 
" style="fill:none;stroke:#ff00ff;stroke-linecap:square;stroke-width:1.5;"/>
    <defs>
     <path d="M -12 12 
L 12 -12 
M -12 -12 
L 12 12 
" id="m0128c527f4" style="stroke:#ff00ff;"/>
    </defs>
    <g clip-path="url(#pfc633e16cf)">
     <use style="fill:#ff00ff;stroke:#ff00ff;" x="234.201166" xlink:href="#m0128c527f4" y="83.529393"/>
    </g>
   </g>
   <g id="line2d_44">
    <defs>
     <path d="M 0 1.5 
C 0.397805 1.5 0.77937 1.341951 1.06066 1.06066 
C 1.341951 0.77937 1.5 0.397805 1.5 0 
C 1.5 -0.397805 1.341951 -0.77937 1.06066 -1.06066 
C 0.77937 -1.341951 0.397805 -1.5 0 -1.5 
C -0.397805 -1.5 -0.77937 -1.341951 -1.06066 -1.06066 
C -1.341951 -0.77937 -1.5 -0.397805 -1.5 0 
C -1.5 0.397805 -1.341951 0.77937 -1.06066 1.06066 
C -0.77937 1.341951 -0.397805 1.5 0 1.5 
z
" id="m928ea81a5c" style="stroke:#ff7500;"/>
    </defs>
    <g>
     <use style="fill:#ff7500;stroke:#ff7500;" x="253.447616" xlink:href="#m928ea81a5c" y="30.334099"/>
     <use style="fill:#ff7500;stroke:#ff7500;" x="253.447616" xlink:href="#m928ea81a5c" y="30.334099"/>
    </g>
   </g>
   <g id="line2d_45">
    <path d="M 45.512012 298.944 
L 45.512012 279.456615 
L 57.6 279.456615 
L 57.6 268.922893 
L 64.67102 268.922893 
L 64.67102 265.762777 
L 69.687988 265.762777 
L 69.687988 262.60266 
L 73.579452 262.60266 
L 73.579452 262.075974 
L 76.759008 262.075974 
L 76.759008 259.96923 
L 79.447285 259.96923 
L 79.447285 258.915858 
L 83.830028 258.915858 
L 83.830028 255.755741 
L 85.66744 255.755741 
L 85.66744 255.229055 
L 87.329581 255.229055 
L 87.329581 254.175683 
L 90.242884 254.175683 
L 90.242884 253.648997 
L 91.535274 253.648997 
L 91.535274 252.068939 
L 92.73846 252.068939 
L 92.73846 251.542253 
L 93.863965 251.542253 
L 93.863965 250.488881 
L 94.921215 250.488881 
L 94.921215 249.435508 
L 98.606294 249.435508 
L 98.606294 248.908822 
L 99.41757 248.908822 
L 99.41757 246.275392 
L 100.192776 246.275392 
L 100.192776 243.115275 
L 100.934985 243.115275 
L 100.934985 242.588589 
L 101.646892 242.588589 
L 101.646892 241.535217 
L 102.330873 241.535217 
L 102.330873 240.481845 
L 104.826449 240.481845 
L 104.826449 238.901787 
L 106.48859 238.901787 
L 106.48859 237.848415 
L 108.006005 237.848415 
L 108.006005 236.268356 
L 110.694282 236.268356 
L 110.694282 234.161612 
L 111.897469 234.161612 
L 111.897469 233.10824 
L 115.711251 233.10824 
L 115.711251 232.581554 
L 116.914437 232.581554 
L 116.914437 229.948123 
L 117.202696 229.948123 
L 117.202696 229.421437 
L 117.486268 229.421437 
L 117.486268 228.894751 
L 117.765302 228.894751 
L 117.765302 227.314693 
L 118.310324 227.314693 
L 118.310324 226.261321 
L 119.602714 226.261321 
L 119.602714 223.627891 
L 119.850084 223.627891 
L 119.850084 222.574518 
L 123.192626 222.574518 
L 123.192626 222.047832 
L 123.790603 222.047832 
L 123.790603 220.467774 
L 124.743806 220.467774 
L 124.743806 218.887716 
L 125.470548 218.887716 
L 125.470548 218.36103 
L 126.839037 218.36103 
L 126.839037 217.834344 
L 129.991152 217.834344 
L 129.991152 217.307658 
L 130.263646 217.307658 
L 130.263646 216.780971 
L 131.312942 216.780971 
L 131.312942 216.254285 
L 132.060454 216.254285 
L 132.060454 215.200913 
L 137.289545 215.200913 
L 137.289545 214.674227 
L 139.009092 214.674227 
L 139.009092 213.620855 
L 139.413734 213.620855 
L 139.413734 212.040797 
L 142.147664 212.040797 
L 142.147664 210.987425 
L 142.619936 210.987425 
L 142.619936 210.460738 
L 142.818488 210.460738 
L 142.818488 208.353994 
L 143.964547 208.353994 
L 143.964547 207.300622 
L 145.440832 207.300622 
L 145.440832 206.773936 
L 145.832743 206.773936 
L 145.832743 206.24725 
L 146.484754 206.24725 
L 146.484754 205.720564 
L 147.419225 205.720564 
L 147.419225 202.560447 
L 148.306159 202.560447 
L 148.306159 196.240214 
L 149.15016 196.240214 
L 149.15016 192.553412 
L 150.682827 192.553412 
L 150.682827 191.50004 
L 151.178764 191.50004 
L 151.178764 188.339923 
L 152.168773 188.339923 
L 152.207228 179.38626 
L 152.511852 179.38626 
L 152.511852 178.859574 
L 152.624728 178.859574 
L 152.624728 177.806202 
L 152.736878 177.806202 
L 152.736878 177.279515 
L 154.674612 177.279515 
L 154.674612 175.699457 
L 155.584129 175.699457 
L 155.584129 175.172771 
L 156.021696 175.172771 
L 156.021696 172.539341 
L 156.236431 172.539341 
L 156.297301 165.692422 
L 156.98245 165.692422 
L 156.98245 164.63905 
L 157.272146 164.63905 
L 157.272146 164.112363 
L 157.528821 164.112363 
L 157.528821 163.585677 
L 159.046236 163.585677 
L 159.046236 163.058991 
L 159.278248 163.058991 
L 159.354904 160.425561 
L 159.807898 160.425561 
L 159.832723 157.265444 
L 160.030058 157.265444 
L 160.030058 156.738758 
L 160.273627 156.738758 
L 160.321935 152.52527 
L 160.418152 152.52527 
L 160.418152 150.945211 
L 160.609008 150.945211 
L 160.632719 147.258409 
L 160.938061 147.258409 
L 160.938061 146.205037 
L 161.054091 146.205037 
L 161.054091 142.518234 
L 161.238149 142.518234 
L 161.238149 141.991548 
L 161.397621 141.991548 
L 161.397621 140.938176 
L 161.53316 140.938176 
L 161.578106 139.358118 
L 161.88953 139.358118 
L 161.88953 137.251373 
L 162.367945 137.251373 
L 162.367945 136.198001 
L 162.62347 136.198001 
L 162.644595 133.564571 
L 163.041197 133.564571 
L 163.041197 131.984513 
L 163.185069 131.984513 
L 163.185069 131.457826 
L 163.469301 131.457826 
L 163.469301 130.404454 
L 163.768781 130.404454 
L 163.768781 129.877768 
L 164.237502 129.877768 
L 164.237502 128.824396 
L 164.562052 128.824396 
L 164.562052 127.771024 
L 164.675172 127.771024 
L 164.675172 125.66428 
L 164.787563 125.66428 
L 164.787563 125.137593 
L 164.899235 125.137593 
L 164.9363 123.557535 
L 165.083779 123.557535 
L 165.083779 123.030849 
L 165.302685 123.030849 
L 165.356985 120.924105 
L 165.500963 120.924105 
L 165.500963 119.870733 
L 165.679281 119.870733 
L 165.714726 117.763988 
L 165.943384 117.763988 
L 166.047915 116.710616 
L 166.08262 116.710616 
L 166.08262 115.657244 
L 166.289413 115.657244 
L 166.357802 111.970441 
L 166.679039 111.970441 
L 166.729224 109.337011 
L 166.862349 109.337011 
L 166.862349 108.810325 
L 167.010909 108.810325 
L 167.010909 108.283639 
L 167.255733 108.283639 
L 167.255733 106.703581 
L 167.560988 106.703581 
L 167.560988 106.176895 
L 167.860992 106.176895 
L 167.860992 104.596836 
L 168.140524 104.596836 
L 168.155922 103.016778 
L 168.46108 103.016778 
L 168.551595 101.43672 
L 168.596677 101.43672 
L 168.626667 99.856662 
L 168.790698 99.856662 
L 168.790698 99.329976 
L 169.026567 99.329976 
L 169.026567 96.696545 
L 169.460402 96.696545 
L 169.460402 96.169859 
L 169.75779 96.169859 
L 169.75779 94.063115 
L 169.911564 94.063115 
L 169.911564 93.009743 
L 170.050192 93.009743 
L 170.050192 92.483056 
L 170.337772 92.483056 
L 170.337772 90.902998 
L 170.872762 90.902998 
L 170.977818 89.849626 
L 172.373705 89.849626 
L 172.373705 85.636137 
L 172.967743 85.636137 
L 173.072554 84.582765 
L 173.406055 84.582765 
L 173.406055 84.056079 
L 173.855836 84.056079 
L 173.855836 81.422649 
L 174.722024 81.422649 
L 174.722024 80.895963 
L 175.20127 80.895963 
L 175.262821 79.842591 
L 175.886437 79.842591 
L 175.916053 77.735846 
L 177.245042 77.735846 
L 177.327109 75.629102 
L 177.660498 75.629102 
L 177.660498 74.57573 
L 178.118525 74.57573 
L 178.222537 73.522358 
L 178.308742 73.522358 
L 178.308742 72.468985 
L 180.967511 72.468985 
L 180.967511 71.942299 
L 182.062072 71.942299 
L 182.062072 69.835555 
L 182.715356 69.835555 
L 182.715356 68.782183 
L 195.685669 68.782183 
L 195.685669 66.675439 
L 196.333835 66.675439 
L 196.333835 65.09538 
L 196.610005 65.09538 
L 196.610005 63.515322 
L 196.911487 63.515322 
L 196.911487 61.408578 
L 197.265938 61.408578 
L 197.265938 60.881892 
L 197.43332 60.881892 
L 197.490667 57.195089 
L 197.69557 57.195089 
L 197.746421 55.088345 
L 234.321084 55.088345 
L 234.42435 49.294798 
L 234.44431 49.294798 
L 234.552663 40.867821 
L 234.561549 40.867821 
L 234.601817 38.23439 
L 234.693269 38.23439 
L 234.740676 36.127646 
L 234.869713 36.127646 
L 234.894535 35.074274 
L 235.022775 35.074274 
L 235.088864 33.494215 
L 236.144183 33.494215 
L 236.144183 32.967529 
L 246.352344 32.967529 
L 246.451281 31.914157 
L 246.617563 31.914157 
L 246.626631 30.860785 
L 253.447616 30.860785 
L 253.447616 30.334099 
L 338.688 30.334099 
L 338.688 30.334099 
" style="fill:none;stroke:#ff7500;stroke-linecap:square;stroke-width:1.5;"/>
   </g>
   <g id="line2d_46">
    <defs>
     <path d="M 0 -6 
L -1.347084 -1.854102 
L -5.706339 -1.854102 
L -2.179628 0.708204 
L -3.526712 4.854102 
L -0 2.291796 
L 3.526712 4.854102 
L 2.179628 0.708204 
L 5.706339 -1.854102 
L 1.347084 -1.854102 
z
" id="mcc63e1a452" style="stroke:#ff7500;stroke-linejoin:bevel;stroke-width:1.5;"/>
    </defs>
    <g>
     <use style="fill-opacity:0;stroke:#ff7500;stroke-linejoin:bevel;stroke-width:1.5;" x="117.202696" xlink:href="#mcc63e1a452" y="229.948123"/>
     <use style="fill-opacity:0;stroke:#ff7500;stroke-linejoin:bevel;stroke-width:1.5;" x="164.675172" xlink:href="#mcc63e1a452" y="125.66428"/>
     <use style="fill-opacity:0;stroke:#ff7500;stroke-linejoin:bevel;stroke-width:1.5;" x="234.456001" xlink:href="#mcc63e1a452" y="46.661368"/>
     <use style="fill-opacity:0;stroke:#ff7500;stroke-linejoin:bevel;stroke-width:1.5;" x="253.447616" xlink:href="#mcc63e1a452" y="30.334099"/>
     <use style="fill-opacity:0;stroke:#ff7500;stroke-linejoin:bevel;stroke-width:1.5;" x="253.447616" xlink:href="#mcc63e1a452" y="30.334099"/>
     <use style="fill-opacity:0;stroke:#ff7500;stroke-linejoin:bevel;stroke-width:1.5;" x="338.688" xlink:href="#mcc63e1a452" y="30.334099"/>
    </g>
   </g>
   <g id="line2d_47">
    <path style="fill:none;stroke:#ff7500;stroke-linecap:square;stroke-width:1.5;"/>
    <g/>
   </g>
   <g id="line2d_48">
    <path clip-path="url(#pfc633e16cf)" d="M 234.201166 55.088345 
" style="fill:none;stroke:#ff7500;stroke-linecap:square;stroke-width:1.5;"/>
    <defs>
     <path d="M -12 12 
L 12 -12 
M -12 -12 
L 12 12 
" id="m9df0017075" style="stroke:#ff7500;"/>
    </defs>
    <g clip-path="url(#pfc633e16cf)">
     <use style="fill:#ff7500;stroke:#ff7500;" x="234.201166" xlink:href="#m9df0017075" y="55.088345"/>
    </g>
   </g>
   <g id="line2d_49">
    <path d="M 338.688 30.334099 
L 369.60768 293.571802 
" style="fill:none;stroke:#ff00ff;stroke-linecap:square;stroke-width:1.5;"/>
    <g>
     <use style="fill-opacity:0;stroke:#ff00ff;stroke-linejoin:miter;stroke-width:1.5;" x="338.688" xlink:href="#m7f21ec25e6" y="30.334099"/>
     <use style="fill-opacity:0;stroke:#ff00ff;stroke-linejoin:miter;stroke-width:1.5;" x="369.60768" xlink:href="#m7f21ec25e6" y="293.571802"/>
    </g>
   </g>
   <g id="line2d_50">
    <path d="M 338.688 30.334099 
L 369.60768 207.616634 
" style="fill:none;stroke:#000080;stroke-linecap:square;stroke-width:1.5;"/>
    <g>
     <use style="fill-opacity:0;stroke:#000080;stroke-width:1.5;" x="338.688" xlink:href="#m59660ee95d" y="30.334099"/>
     <use style="fill-opacity:0;stroke:#000080;stroke-width:1.5;" x="369.60768" xlink:href="#m59660ee95d" y="207.616634"/>
    </g>
   </g>
   <g id="line2d_51">
    <path d="M 338.688 30.334099 
L 369.60768 121.661465 
" style="fill:none;stroke:#ff7500;stroke-linecap:square;stroke-width:1.5;"/>
    <g>
     <use style="fill-opacity:0;stroke:#ff7500;stroke-linejoin:bevel;stroke-width:1.5;" x="338.688" xlink:href="#mcc63e1a452" y="30.334099"/>
     <use style="fill-opacity:0;stroke:#ff7500;stroke-linejoin:bevel;stroke-width:1.5;" x="369.60768" xlink:href="#mcc63e1a452" y="121.661465"/>
    </g>
   </g>
   <g id="line2d_52">
    <path d="M 338.688 298.944 
L 338.688 30.334099 
" style="fill:none;stroke:#000000;stroke-linecap:square;stroke-width:1.5;"/>
   </g>
   <g id="patch_3">
    <path d="M 57.6 298.944 
L 57.6 27.648 
" style="fill:none;stroke:#000000;stroke-linecap:square;stroke-linejoin:miter;stroke-width:0.8;"/>
   </g>
   <g id="patch_4">
    <path d="M 338.688 298.944 
L 338.688 27.648 
" style="fill:none;stroke:#000000;stroke-linecap:square;stroke-linejoin:miter;stroke-width:0.8;"/>
   </g>
   <g id="patch_5">
    <path d="M 57.6 298.944 
L 338.688 298.944 
" style="fill:none;stroke:#000000;stroke-linecap:square;stroke-linejoin:miter;stroke-width:0.8;"/>
   </g>
   <g id="patch_6">
    <path d="M 57.6 27.648 
L 338.688 27.648 
" style="fill:none;stroke:#000000;stroke-linecap:square;stroke-linejoin:miter;stroke-width:0.8;"/>
   </g>
   <g id="text_13">
    <!-- DEAE -->
    <g transform="translate(375.22944 298.262739)scale(0.17 -0.17)">
     <defs>
      <path d="M 1259 4147 
L 1259 519 
L 2022 519 
Q 2988 519 3436 956 
Q 3884 1394 3884 2338 
Q 3884 3275 3436 3711 
Q 2988 4147 2022 4147 
L 1259 4147 
z
M 628 4666 
L 1925 4666 
Q 3281 4666 3915 4102 
Q 4550 3538 4550 2338 
Q 4550 1131 3912 565 
Q 3275 0 1925 0 
L 628 0 
L 628 4666 
z
" id="DejaVuSans-44" transform="scale(0.015625)"/>
      <path d="M 628 4666 
L 3578 4666 
L 3578 4134 
L 1259 4134 
L 1259 2753 
L 3481 2753 
L 3481 2222 
L 1259 2222 
L 1259 531 
L 3634 531 
L 3634 0 
L 628 0 
L 628 4666 
z
" id="DejaVuSans-45" transform="scale(0.015625)"/>
      <path d="M 2188 4044 
L 1331 1722 
L 3047 1722 
L 2188 4044 
z
M 1831 4666 
L 2547 4666 
L 4325 0 
L 3669 0 
L 3244 1197 
L 1141 1197 
L 716 0 
L 50 0 
L 1831 4666 
z
" id="DejaVuSans-41" transform="scale(0.015625)"/>
     </defs>
     <use xlink:href="#DejaVuSans-44"/>
     <use x="77.001953" xlink:href="#DejaVuSans-45"/>
     <use x="140.185547" xlink:href="#DejaVuSans-41"/>
     <use x="208.59375" xlink:href="#DejaVuSans-45"/>
    </g>
   </g>
   <g id="text_14">
    <!-- DE -->
    <g transform="translate(375.22944 212.307571)scale(0.17 -0.17)">
     <use xlink:href="#DejaVuSans-44"/>
     <use x="77.001953" xlink:href="#DejaVuSans-45"/>
    </g>
   </g>
   <g id="text_15">
    <!-- JADE -->
    <g transform="translate(375.22944 126.352403)scale(0.17 -0.17)">
     <defs>
      <path d="M 628 4666 
L 1259 4666 
L 1259 325 
Q 1259 -519 939 -900 
Q 619 -1281 -91 -1281 
L -331 -1281 
L -331 -750 
L -134 -750 
Q 284 -750 456 -515 
Q 628 -281 628 325 
L 628 4666 
z
" id="DejaVuSans-4a" transform="scale(0.015625)"/>
     </defs>
     <use xlink:href="#DejaVuSans-4a"/>
     <use x="27.742188" xlink:href="#DejaVuSans-41"/>
     <use x="96.150391" xlink:href="#DejaVuSans-44"/>
     <use x="173.152344" xlink:href="#DejaVuSans-45"/>
    </g>
   </g>
   <g id="text_16">
    <!-- best 2009 -->
    <g transform="translate(375.22944 40.397235)scale(0.17 -0.17)">
     <defs>
      <path d="M 3116 1747 
Q 3116 2381 2855 2742 
Q 2594 3103 2138 3103 
Q 1681 3103 1420 2742 
Q 1159 2381 1159 1747 
Q 1159 1113 1420 752 
Q 1681 391 2138 391 
Q 2594 391 2855 752 
Q 3116 1113 3116 1747 
z
M 1159 2969 
Q 1341 3281 1617 3432 
Q 1894 3584 2278 3584 
Q 2916 3584 3314 3078 
Q 3713 2572 3713 1747 
Q 3713 922 3314 415 
Q 2916 -91 2278 -91 
Q 1894 -91 1617 61 
Q 1341 213 1159 525 
L 1159 0 
L 581 0 
L 581 4863 
L 1159 4863 
L 1159 2969 
z
" id="DejaVuSans-62" transform="scale(0.015625)"/>
      <path d="M 703 97 
L 703 672 
Q 941 559 1184 500 
Q 1428 441 1663 441 
Q 2288 441 2617 861 
Q 2947 1281 2994 2138 
Q 2813 1869 2534 1725 
Q 2256 1581 1919 1581 
Q 1219 1581 811 2004 
Q 403 2428 403 3163 
Q 403 3881 828 4315 
Q 1253 4750 1959 4750 
Q 2769 4750 3195 4129 
Q 3622 3509 3622 2328 
Q 3622 1225 3098 567 
Q 2575 -91 1691 -91 
Q 1453 -91 1209 -44 
Q 966 3 703 97 
z
M 1959 2075 
Q 2384 2075 2632 2365 
Q 2881 2656 2881 3163 
Q 2881 3666 2632 3958 
Q 2384 4250 1959 4250 
Q 1534 4250 1286 3958 
Q 1038 3666 1038 3163 
Q 1038 2656 1286 2365 
Q 1534 2075 1959 2075 
z
" id="DejaVuSans-39" transform="scale(0.015625)"/>
     </defs>
     <use xlink:href="#DejaVuSans-62"/>
     <use x="63.476562" xlink:href="#DejaVuSans-65"/>
     <use x="125" xlink:href="#DejaVuSans-73"/>
     <use x="177.099609" xlink:href="#DejaVuSans-74"/>
     <use x="216.308594" xlink:href="#DejaVuSans-20"/>
     <use x="248.095703" xlink:href="#DejaVuSans-32"/>
     <use x="311.71875" xlink:href="#DejaVuSans-30"/>
     <use x="375.341797" xlink:href="#DejaVuSans-30"/>
     <use x="438.964844" xlink:href="#DejaVuSans-39"/>
    </g>
   </g>
   <g id="text_17">
    <!-- bbob f19, 2-D -->
    <g transform="translate(60.41088 38.111366)scale(0.102 -0.102)">
     <use xlink:href="#DejaVuSans-62"/>
     <use x="63.476562" xlink:href="#DejaVuSans-62"/>
     <use x="126.953125" xlink:href="#DejaVuSans-6f"/>
     <use x="188.134766" xlink:href="#DejaVuSans-62"/>
     <use x="251.611328" xlink:href="#DejaVuSans-20"/>
     <use x="283.398438" xlink:href="#DejaVuSans-66"/>
     <use x="318.603516" xlink:href="#DejaVuSans-31"/>
     <use x="382.226562" xlink:href="#DejaVuSans-39"/>
     <use x="445.849609" xlink:href="#DejaVuSans-2c"/>
     <use x="477.636719" xlink:href="#DejaVuSans-20"/>
     <use x="509.423828" xlink:href="#DejaVuSans-32"/>
     <use x="573.046875" xlink:href="#DejaVuSans-2d"/>
     <use x="609.130859" xlink:href="#DejaVuSans-44"/>
    </g>
    <!-- 51 targets: 100..1e-08 -->
    <g transform="translate(60.41088 49.533135)scale(0.102 -0.102)">
     <defs>
      <path d="M 691 4666 
L 3169 4666 
L 3169 4134 
L 1269 4134 
L 1269 2991 
Q 1406 3038 1543 3061 
Q 1681 3084 1819 3084 
Q 2600 3084 3056 2656 
Q 3513 2228 3513 1497 
Q 3513 744 3044 326 
Q 2575 -91 1722 -91 
Q 1428 -91 1123 -41 
Q 819 9 494 109 
L 494 744 
Q 775 591 1075 516 
Q 1375 441 1709 441 
Q 2250 441 2565 725 
Q 2881 1009 2881 1497 
Q 2881 1984 2565 2268 
Q 2250 2553 1709 2553 
Q 1456 2553 1204 2497 
Q 953 2441 691 2322 
L 691 4666 
z
" id="DejaVuSans-35" transform="scale(0.015625)"/>
      <path d="M 750 794 
L 1409 794 
L 1409 0 
L 750 0 
L 750 794 
z
M 750 3309 
L 1409 3309 
L 1409 2516 
L 750 2516 
L 750 3309 
z
" id="DejaVuSans-3a" transform="scale(0.015625)"/>
     </defs>
     <use xlink:href="#DejaVuSans-35"/>
     <use x="63.623047" xlink:href="#DejaVuSans-31"/>
     <use x="127.246094" xlink:href="#DejaVuSans-20"/>
     <use x="159.033203" xlink:href="#DejaVuSans-74"/>
     <use x="198.242188" xlink:href="#DejaVuSans-61"/>
     <use x="259.521484" xlink:href="#DejaVuSans-72"/>
     <use x="298.884766" xlink:href="#DejaVuSans-67"/>
     <use x="362.361328" xlink:href="#DejaVuSans-65"/>
     <use x="423.884766" xlink:href="#DejaVuSans-74"/>
     <use x="463.09375" xlink:href="#DejaVuSans-73"/>
     <use x="515.193359" xlink:href="#DejaVuSans-3a"/>
     <use x="548.884766" xlink:href="#DejaVuSans-20"/>
     <use x="580.671875" xlink:href="#DejaVuSans-31"/>
     <use x="644.294922" xlink:href="#DejaVuSans-30"/>
     <use x="707.917969" xlink:href="#DejaVuSans-30"/>
     <use x="771.541016" xlink:href="#DejaVuSans-2e"/>
     <use x="803.328125" xlink:href="#DejaVuSans-2e"/>
     <use x="835.115234" xlink:href="#DejaVuSans-31"/>
     <use x="898.738281" xlink:href="#DejaVuSans-65"/>
     <use x="960.261719" xlink:href="#DejaVuSans-2d"/>
     <use x="996.345703" xlink:href="#DejaVuSans-30"/>
     <use x="1059.96875" xlink:href="#DejaVuSans-38"/>
    </g>
    <!-- 15 instances -->
    <g transform="translate(60.41088 60.954904)scale(0.102 -0.102)">
     <use xlink:href="#DejaVuSans-31"/>
     <use x="63.623047" xlink:href="#DejaVuSans-35"/>
     <use x="127.246094" xlink:href="#DejaVuSans-20"/>
     <use x="159.033203" xlink:href="#DejaVuSans-69"/>
     <use x="186.816406" xlink:href="#DejaVuSans-6e"/>
     <use x="250.195312" xlink:href="#DejaVuSans-73"/>
     <use x="302.294922" xlink:href="#DejaVuSans-74"/>
     <use x="341.503906" xlink:href="#DejaVuSans-61"/>
     <use x="402.783203" xlink:href="#DejaVuSans-6e"/>
     <use x="466.162109" xlink:href="#DejaVuSans-63"/>
     <use x="521.142578" xlink:href="#DejaVuSans-65"/>
     <use x="582.666016" xlink:href="#DejaVuSans-73"/>
    </g>
   </g>
   <g id="text_18">
    <!-- v2.4 -->
    <g style="fill:#808080;" transform="translate(187.233062 294.151352)scale(0.1 -0.1)">
     <use xlink:href="#DejaVuSans-76"/>
     <use x="59.179688" xlink:href="#DejaVuSans-32"/>
     <use x="122.802734" xlink:href="#DejaVuSans-2e"/>
     <use x="154.589844" xlink:href="#DejaVuSans-34"/>
    </g>
   </g>
   <g id="text_19">
    <!-- 19 Griewank-Rosenbrock F8F2 -->
    <g transform="translate(46.042437 21.648)scale(0.2 -0.2)">
     <defs>
      <path d="M 3809 666 
L 3809 1919 
L 2778 1919 
L 2778 2438 
L 4434 2438 
L 4434 434 
Q 4069 175 3628 42 
Q 3188 -91 2688 -91 
Q 1594 -91 976 548 
Q 359 1188 359 2328 
Q 359 3472 976 4111 
Q 1594 4750 2688 4750 
Q 3144 4750 3555 4637 
Q 3966 4525 4313 4306 
L 4313 3634 
Q 3963 3931 3569 4081 
Q 3175 4231 2741 4231 
Q 1884 4231 1454 3753 
Q 1025 3275 1025 2328 
Q 1025 1384 1454 906 
Q 1884 428 2741 428 
Q 3075 428 3337 486 
Q 3600 544 3809 666 
z
" id="DejaVuSans-47" transform="scale(0.015625)"/>
      <path d="M 269 3500 
L 844 3500 
L 1563 769 
L 2278 3500 
L 2956 3500 
L 3675 769 
L 4391 3500 
L 4966 3500 
L 4050 0 
L 3372 0 
L 2619 2869 
L 1863 0 
L 1184 0 
L 269 3500 
z
" id="DejaVuSans-77" transform="scale(0.015625)"/>
      <path d="M 581 4863 
L 1159 4863 
L 1159 1991 
L 2875 3500 
L 3609 3500 
L 1753 1863 
L 3688 0 
L 2938 0 
L 1159 1709 
L 1159 0 
L 581 0 
L 581 4863 
z
" id="DejaVuSans-6b" transform="scale(0.015625)"/>
      <path d="M 2841 2188 
Q 3044 2119 3236 1894 
Q 3428 1669 3622 1275 
L 4263 0 
L 3584 0 
L 2988 1197 
Q 2756 1666 2539 1819 
Q 2322 1972 1947 1972 
L 1259 1972 
L 1259 0 
L 628 0 
L 628 4666 
L 2053 4666 
Q 2853 4666 3247 4331 
Q 3641 3997 3641 3322 
Q 3641 2881 3436 2590 
Q 3231 2300 2841 2188 
z
M 1259 4147 
L 1259 2491 
L 2053 2491 
Q 2509 2491 2742 2702 
Q 2975 2913 2975 3322 
Q 2975 3731 2742 3939 
Q 2509 4147 2053 4147 
L 1259 4147 
z
" id="DejaVuSans-52" transform="scale(0.015625)"/>
     </defs>
     <use xlink:href="#DejaVuSans-31"/>
     <use x="63.623047" xlink:href="#DejaVuSans-39"/>
     <use x="127.246094" xlink:href="#DejaVuSans-20"/>
     <use x="159.033203" xlink:href="#DejaVuSans-47"/>
     <use x="236.523438" xlink:href="#DejaVuSans-72"/>
     <use x="277.636719" xlink:href="#DejaVuSans-69"/>
     <use x="305.419922" xlink:href="#DejaVuSans-65"/>
     <use x="366.943359" xlink:href="#DejaVuSans-77"/>
     <use x="448.730469" xlink:href="#DejaVuSans-61"/>
     <use x="510.009766" xlink:href="#DejaVuSans-6e"/>
     <use x="573.388672" xlink:href="#DejaVuSans-6b"/>
     <use x="631.298828" xlink:href="#DejaVuSans-2d"/>
     <use x="667.382812" xlink:href="#DejaVuSans-52"/>
     <use x="732.365234" xlink:href="#DejaVuSans-6f"/>
     <use x="793.546875" xlink:href="#DejaVuSans-73"/>
     <use x="845.646484" xlink:href="#DejaVuSans-65"/>
     <use x="907.169922" xlink:href="#DejaVuSans-6e"/>
     <use x="970.548828" xlink:href="#DejaVuSans-62"/>
     <use x="1034.025391" xlink:href="#DejaVuSans-72"/>
     <use x="1072.888672" xlink:href="#DejaVuSans-6f"/>
     <use x="1134.070312" xlink:href="#DejaVuSans-63"/>
     <use x="1189.050781" xlink:href="#DejaVuSans-6b"/>
     <use x="1246.960938" xlink:href="#DejaVuSans-20"/>
     <use x="1278.748047" xlink:href="#DejaVuSans-46"/>
     <use x="1336.267578" xlink:href="#DejaVuSans-38"/>
     <use x="1399.890625" xlink:href="#DejaVuSans-46"/>
     <use x="1457.410156" xlink:href="#DejaVuSans-32"/>
    </g>
   </g>
  </g>
 </g>
 <defs>
  <clipPath id="pfc633e16cf">
   <rect height="271.296" width="281.088" x="57.6" y="27.648"/>
  </clipPath>
 </defs>
</svg>
