<?xml version="1.0" encoding="utf-8" standalone="no"?>
<!DOCTYPE svg PUBLIC "-//W3C//DTD SVG 1.1//EN"
  "http://www.w3.org/Graphics/SVG/1.1/DTD/svg11.dtd">
<svg height="345.6pt" version="1.1" viewBox="0 0 460.8 345.6" width="460.8pt" xmlns="http://www.w3.org/2000/svg" xmlns:xlink="http://www.w3.org/1999/xlink">
 <metadata>
  <rdf:RDF xmlns:cc="http://creativecommons.org/ns#" xmlns:dc="http://purl.org/dc/elements/1.1/" xmlns:rdf="http://www.w3.org/1999/02/22-rdf-syntax-ns#">
   <cc:Work>
    <dc:type rdf:resource="http://purl.org/dc/dcmitype/StillImage"/>
    <dc:date>2021-04-26T18:52:07.288738</dc:date>
    <dc:format>image/svg+xml</dc:format>
    <dc:creator>
     <cc:Agent>
      <dc:title>Matplotlib v3.4.1, https://matplotlib.org/</dc:title>
     </cc:Agent>
    </dc:creator>
   </cc:Work>
  </rdf:RDF>
 </metadata>
 <defs>
  <style type="text/css">*{stroke-linecap:butt;stroke-linejoin:round;}</style>
 </defs>
 <g id="figure_1">
  <g id="patch_1">
   <path d="M 0 345.6 
L 460.8 345.6 
L 460.8 0 
L 0 0 
z
" style="fill:#ffffff;"/>
  </g>
  <g id="axes_1">
   <g id="patch_2">
    <path d="M 57.6 298.944 
L 338.688 298.944 
L 338.688 27.648 
L 57.6 27.648 
z
" style="fill:#ffffff;"/>
   </g>
   <g id="matplotlib.axis_1">
    <g id="xtick_1">
     <g id="line2d_1">
      <path clip-path="url(#p6ef82a4542)" d="M 57.6 298.944 
L 57.6 27.648 
" style="fill:none;stroke:#b0b0b0;stroke-linecap:square;stroke-width:0.8;"/>
     </g>
     <g id="line2d_2">
      <defs>
       <path d="M 0 0 
L 0 3.5 
" id="m34282d9971" style="stroke:#000000;stroke-width:0.8;"/>
      </defs>
      <g>
       <use style="stroke:#000000;stroke-width:0.8;" x="57.6" xlink:href="#m34282d9971" y="298.944"/>
      </g>
     </g>
     <g id="text_1">
      <!-- 0 -->
      <g transform="translate(51.2375 321.140875)scale(0.2 -0.2)">
       <defs>
        <path d="M 2034 4250 
Q 1547 4250 1301 3770 
Q 1056 3291 1056 2328 
Q 1056 1369 1301 889 
Q 1547 409 2034 409 
Q 2525 409 2770 889 
Q 3016 1369 3016 2328 
Q 3016 3291 2770 3770 
Q 2525 4250 2034 4250 
z
M 2034 4750 
Q 2819 4750 3233 4129 
Q 3647 3509 3647 2328 
Q 3647 1150 3233 529 
Q 2819 -91 2034 -91 
Q 1250 -91 836 529 
Q 422 1150 422 2328 
Q 422 3509 836 4129 
Q 1250 4750 2034 4750 
z
" id="DejaVuSans-30" transform="scale(0.015625)"/>
       </defs>
       <use xlink:href="#DejaVuSans-30"/>
      </g>
     </g>
    </g>
    <g id="xtick_2">
     <g id="line2d_3">
      <path clip-path="url(#p6ef82a4542)" d="M 137.910857 298.944 
L 137.910857 27.648 
" style="fill:none;stroke:#b0b0b0;stroke-linecap:square;stroke-width:0.8;"/>
     </g>
     <g id="line2d_4">
      <g>
       <use style="stroke:#000000;stroke-width:0.8;" x="137.910857" xlink:href="#m34282d9971" y="298.944"/>
      </g>
     </g>
     <g id="text_2">
      <!-- 2 -->
      <g transform="translate(131.548357 321.140875)scale(0.2 -0.2)">
       <defs>
        <path d="M 1228 531 
L 3431 531 
L 3431 0 
L 469 0 
L 469 531 
Q 828 903 1448 1529 
Q 2069 2156 2228 2338 
Q 2531 2678 2651 2914 
Q 2772 3150 2772 3378 
Q 2772 3750 2511 3984 
Q 2250 4219 1831 4219 
Q 1534 4219 1204 4116 
Q 875 4013 500 3803 
L 500 4441 
Q 881 4594 1212 4672 
Q 1544 4750 1819 4750 
Q 2544 4750 2975 4387 
Q 3406 4025 3406 3419 
Q 3406 3131 3298 2873 
Q 3191 2616 2906 2266 
Q 2828 2175 2409 1742 
Q 1991 1309 1228 531 
z
" id="DejaVuSans-32" transform="scale(0.015625)"/>
       </defs>
       <use xlink:href="#DejaVuSans-32"/>
      </g>
     </g>
    </g>
    <g id="xtick_3">
     <g id="line2d_5">
      <path clip-path="url(#p6ef82a4542)" d="M 218.221714 298.944 
L 218.221714 27.648 
" style="fill:none;stroke:#b0b0b0;stroke-linecap:square;stroke-width:0.8;"/>
     </g>
     <g id="line2d_6">
      <g>
       <use style="stroke:#000000;stroke-width:0.8;" x="218.221714" xlink:href="#m34282d9971" y="298.944"/>
      </g>
     </g>
     <g id="text_3">
      <!-- 4 -->
      <g transform="translate(211.859214 321.140875)scale(0.2 -0.2)">
       <defs>
        <path d="M 2419 4116 
L 825 1625 
L 2419 1625 
L 2419 4116 
z
M 2253 4666 
L 3047 4666 
L 3047 1625 
L 3713 1625 
L 3713 1100 
L 3047 1100 
L 3047 0 
L 2419 0 
L 2419 1100 
L 313 1100 
L 313 1709 
L 2253 4666 
z
" id="DejaVuSans-34" transform="scale(0.015625)"/>
       </defs>
       <use xlink:href="#DejaVuSans-34"/>
      </g>
     </g>
    </g>
    <g id="xtick_4">
     <g id="line2d_7">
      <path clip-path="url(#p6ef82a4542)" d="M 298.532571 298.944 
L 298.532571 27.648 
" style="fill:none;stroke:#b0b0b0;stroke-linecap:square;stroke-width:0.8;"/>
     </g>
     <g id="line2d_8">
      <g>
       <use style="stroke:#000000;stroke-width:0.8;" x="298.532571" xlink:href="#m34282d9971" y="298.944"/>
      </g>
     </g>
     <g id="text_4">
      <!-- 6 -->
      <g transform="translate(292.170071 321.140875)scale(0.2 -0.2)">
       <defs>
        <path d="M 2113 2584 
Q 1688 2584 1439 2293 
Q 1191 2003 1191 1497 
Q 1191 994 1439 701 
Q 1688 409 2113 409 
Q 2538 409 2786 701 
Q 3034 994 3034 1497 
Q 3034 2003 2786 2293 
Q 2538 2584 2113 2584 
z
M 3366 4563 
L 3366 3988 
Q 3128 4100 2886 4159 
Q 2644 4219 2406 4219 
Q 1781 4219 1451 3797 
Q 1122 3375 1075 2522 
Q 1259 2794 1537 2939 
Q 1816 3084 2150 3084 
Q 2853 3084 3261 2657 
Q 3669 2231 3669 1497 
Q 3669 778 3244 343 
Q 2819 -91 2113 -91 
Q 1303 -91 875 529 
Q 447 1150 447 2328 
Q 447 3434 972 4092 
Q 1497 4750 2381 4750 
Q 2619 4750 2861 4703 
Q 3103 4656 3366 4563 
z
" id="DejaVuSans-36" transform="scale(0.015625)"/>
       </defs>
       <use xlink:href="#DejaVuSans-36"/>
      </g>
     </g>
    </g>
    <g id="xtick_5">
     <g id="line2d_9">
      <path clip-path="url(#p6ef82a4542)" d="M 97.755429 298.944 
L 97.755429 27.648 
" style="fill:none;stroke:#b0b0b0;stroke-linecap:square;stroke-width:0.8;"/>
     </g>
     <g id="line2d_10">
      <defs>
       <path d="M 0 0 
L 0 2 
" id="m7502b8d317" style="stroke:#000000;stroke-width:0.6;"/>
      </defs>
      <g>
       <use style="stroke:#000000;stroke-width:0.6;" x="97.755429" xlink:href="#m7502b8d317" y="298.944"/>
      </g>
     </g>
    </g>
    <g id="xtick_6">
     <g id="line2d_11">
      <path clip-path="url(#p6ef82a4542)" d="M 178.066286 298.944 
L 178.066286 27.648 
" style="fill:none;stroke:#b0b0b0;stroke-linecap:square;stroke-width:0.8;"/>
     </g>
     <g id="line2d_12">
      <g>
       <use style="stroke:#000000;stroke-width:0.6;" x="178.066286" xlink:href="#m7502b8d317" y="298.944"/>
      </g>
     </g>
    </g>
    <g id="xtick_7">
     <g id="line2d_13">
      <path clip-path="url(#p6ef82a4542)" d="M 258.377143 298.944 
L 258.377143 27.648 
" style="fill:none;stroke:#b0b0b0;stroke-linecap:square;stroke-width:0.8;"/>
     </g>
     <g id="line2d_14">
      <g>
       <use style="stroke:#000000;stroke-width:0.6;" x="258.377143" xlink:href="#m7502b8d317" y="298.944"/>
      </g>
     </g>
    </g>
    <g id="xtick_8">
     <g id="line2d_15">
      <path clip-path="url(#p6ef82a4542)" d="M 338.688 298.944 
L 338.688 27.648 
" style="fill:none;stroke:#b0b0b0;stroke-linecap:square;stroke-width:0.8;"/>
     </g>
     <g id="line2d_16">
      <g>
       <use style="stroke:#000000;stroke-width:0.6;" x="338.688" xlink:href="#m7502b8d317" y="298.944"/>
      </g>
     </g>
    </g>
    <g id="text_5">
     <!-- log10(# f-evals / dimension) -->
     <g transform="translate(77.764078 342.217594)scale(0.17 -0.17)">
      <defs>
       <path d="M 603 4863 
L 1178 4863 
L 1178 0 
L 603 0 
L 603 4863 
z
" id="DejaVuSans-6c" transform="scale(0.015625)"/>
       <path d="M 1959 3097 
Q 1497 3097 1228 2736 
Q 959 2375 959 1747 
Q 959 1119 1226 758 
Q 1494 397 1959 397 
Q 2419 397 2687 759 
Q 2956 1122 2956 1747 
Q 2956 2369 2687 2733 
Q 2419 3097 1959 3097 
z
M 1959 3584 
Q 2709 3584 3137 3096 
Q 3566 2609 3566 1747 
Q 3566 888 3137 398 
Q 2709 -91 1959 -91 
Q 1206 -91 779 398 
Q 353 888 353 1747 
Q 353 2609 779 3096 
Q 1206 3584 1959 3584 
z
" id="DejaVuSans-6f" transform="scale(0.015625)"/>
       <path d="M 2906 1791 
Q 2906 2416 2648 2759 
Q 2391 3103 1925 3103 
Q 1463 3103 1205 2759 
Q 947 2416 947 1791 
Q 947 1169 1205 825 
Q 1463 481 1925 481 
Q 2391 481 2648 825 
Q 2906 1169 2906 1791 
z
M 3481 434 
Q 3481 -459 3084 -895 
Q 2688 -1331 1869 -1331 
Q 1566 -1331 1297 -1286 
Q 1028 -1241 775 -1147 
L 775 -588 
Q 1028 -725 1275 -790 
Q 1522 -856 1778 -856 
Q 2344 -856 2625 -561 
Q 2906 -266 2906 331 
L 2906 616 
Q 2728 306 2450 153 
Q 2172 0 1784 0 
Q 1141 0 747 490 
Q 353 981 353 1791 
Q 353 2603 747 3093 
Q 1141 3584 1784 3584 
Q 2172 3584 2450 3431 
Q 2728 3278 2906 2969 
L 2906 3500 
L 3481 3500 
L 3481 434 
z
" id="DejaVuSans-67" transform="scale(0.015625)"/>
       <path d="M 794 531 
L 1825 531 
L 1825 4091 
L 703 3866 
L 703 4441 
L 1819 4666 
L 2450 4666 
L 2450 531 
L 3481 531 
L 3481 0 
L 794 0 
L 794 531 
z
" id="DejaVuSans-31" transform="scale(0.015625)"/>
       <path d="M 1984 4856 
Q 1566 4138 1362 3434 
Q 1159 2731 1159 2009 
Q 1159 1288 1364 580 
Q 1569 -128 1984 -844 
L 1484 -844 
Q 1016 -109 783 600 
Q 550 1309 550 2009 
Q 550 2706 781 3412 
Q 1013 4119 1484 4856 
L 1984 4856 
z
" id="DejaVuSans-28" transform="scale(0.015625)"/>
       <path d="M 3272 2816 
L 2363 2816 
L 2100 1772 
L 3016 1772 
L 3272 2816 
z
M 2803 4594 
L 2478 3297 
L 3391 3297 
L 3719 4594 
L 4219 4594 
L 3897 3297 
L 4872 3297 
L 4872 2816 
L 3775 2816 
L 3519 1772 
L 4513 1772 
L 4513 1294 
L 3397 1294 
L 3072 0 
L 2572 0 
L 2894 1294 
L 1978 1294 
L 1656 0 
L 1153 0 
L 1478 1294 
L 494 1294 
L 494 1772 
L 1594 1772 
L 1856 2816 
L 850 2816 
L 850 3297 
L 1978 3297 
L 2297 4594 
L 2803 4594 
z
" id="DejaVuSans-23" transform="scale(0.015625)"/>
       <path id="DejaVuSans-20" transform="scale(0.015625)"/>
       <path d="M 2375 4863 
L 2375 4384 
L 1825 4384 
Q 1516 4384 1395 4259 
Q 1275 4134 1275 3809 
L 1275 3500 
L 2222 3500 
L 2222 3053 
L 1275 3053 
L 1275 0 
L 697 0 
L 697 3053 
L 147 3053 
L 147 3500 
L 697 3500 
L 697 3744 
Q 697 4328 969 4595 
Q 1241 4863 1831 4863 
L 2375 4863 
z
" id="DejaVuSans-66" transform="scale(0.015625)"/>
       <path d="M 313 2009 
L 1997 2009 
L 1997 1497 
L 313 1497 
L 313 2009 
z
" id="DejaVuSans-2d" transform="scale(0.015625)"/>
       <path d="M 3597 1894 
L 3597 1613 
L 953 1613 
Q 991 1019 1311 708 
Q 1631 397 2203 397 
Q 2534 397 2845 478 
Q 3156 559 3463 722 
L 3463 178 
Q 3153 47 2828 -22 
Q 2503 -91 2169 -91 
Q 1331 -91 842 396 
Q 353 884 353 1716 
Q 353 2575 817 3079 
Q 1281 3584 2069 3584 
Q 2775 3584 3186 3129 
Q 3597 2675 3597 1894 
z
M 3022 2063 
Q 3016 2534 2758 2815 
Q 2500 3097 2075 3097 
Q 1594 3097 1305 2825 
Q 1016 2553 972 2059 
L 3022 2063 
z
" id="DejaVuSans-65" transform="scale(0.015625)"/>
       <path d="M 191 3500 
L 800 3500 
L 1894 563 
L 2988 3500 
L 3597 3500 
L 2284 0 
L 1503 0 
L 191 3500 
z
" id="DejaVuSans-76" transform="scale(0.015625)"/>
       <path d="M 2194 1759 
Q 1497 1759 1228 1600 
Q 959 1441 959 1056 
Q 959 750 1161 570 
Q 1363 391 1709 391 
Q 2188 391 2477 730 
Q 2766 1069 2766 1631 
L 2766 1759 
L 2194 1759 
z
M 3341 1997 
L 3341 0 
L 2766 0 
L 2766 531 
Q 2569 213 2275 61 
Q 1981 -91 1556 -91 
Q 1019 -91 701 211 
Q 384 513 384 1019 
Q 384 1609 779 1909 
Q 1175 2209 1959 2209 
L 2766 2209 
L 2766 2266 
Q 2766 2663 2505 2880 
Q 2244 3097 1772 3097 
Q 1472 3097 1187 3025 
Q 903 2953 641 2809 
L 641 3341 
Q 956 3463 1253 3523 
Q 1550 3584 1831 3584 
Q 2591 3584 2966 3190 
Q 3341 2797 3341 1997 
z
" id="DejaVuSans-61" transform="scale(0.015625)"/>
       <path d="M 2834 3397 
L 2834 2853 
Q 2591 2978 2328 3040 
Q 2066 3103 1784 3103 
Q 1356 3103 1142 2972 
Q 928 2841 928 2578 
Q 928 2378 1081 2264 
Q 1234 2150 1697 2047 
L 1894 2003 
Q 2506 1872 2764 1633 
Q 3022 1394 3022 966 
Q 3022 478 2636 193 
Q 2250 -91 1575 -91 
Q 1294 -91 989 -36 
Q 684 19 347 128 
L 347 722 
Q 666 556 975 473 
Q 1284 391 1588 391 
Q 1994 391 2212 530 
Q 2431 669 2431 922 
Q 2431 1156 2273 1281 
Q 2116 1406 1581 1522 
L 1381 1569 
Q 847 1681 609 1914 
Q 372 2147 372 2553 
Q 372 3047 722 3315 
Q 1072 3584 1716 3584 
Q 2034 3584 2315 3537 
Q 2597 3491 2834 3397 
z
" id="DejaVuSans-73" transform="scale(0.015625)"/>
       <path d="M 1625 4666 
L 2156 4666 
L 531 -594 
L 0 -594 
L 1625 4666 
z
" id="DejaVuSans-2f" transform="scale(0.015625)"/>
       <path d="M 2906 2969 
L 2906 4863 
L 3481 4863 
L 3481 0 
L 2906 0 
L 2906 525 
Q 2725 213 2448 61 
Q 2172 -91 1784 -91 
Q 1150 -91 751 415 
Q 353 922 353 1747 
Q 353 2572 751 3078 
Q 1150 3584 1784 3584 
Q 2172 3584 2448 3432 
Q 2725 3281 2906 2969 
z
M 947 1747 
Q 947 1113 1208 752 
Q 1469 391 1925 391 
Q 2381 391 2643 752 
Q 2906 1113 2906 1747 
Q 2906 2381 2643 2742 
Q 2381 3103 1925 3103 
Q 1469 3103 1208 2742 
Q 947 2381 947 1747 
z
" id="DejaVuSans-64" transform="scale(0.015625)"/>
       <path d="M 603 3500 
L 1178 3500 
L 1178 0 
L 603 0 
L 603 3500 
z
M 603 4863 
L 1178 4863 
L 1178 4134 
L 603 4134 
L 603 4863 
z
" id="DejaVuSans-69" transform="scale(0.015625)"/>
       <path d="M 3328 2828 
Q 3544 3216 3844 3400 
Q 4144 3584 4550 3584 
Q 5097 3584 5394 3201 
Q 5691 2819 5691 2113 
L 5691 0 
L 5113 0 
L 5113 2094 
Q 5113 2597 4934 2840 
Q 4756 3084 4391 3084 
Q 3944 3084 3684 2787 
Q 3425 2491 3425 1978 
L 3425 0 
L 2847 0 
L 2847 2094 
Q 2847 2600 2669 2842 
Q 2491 3084 2119 3084 
Q 1678 3084 1418 2786 
Q 1159 2488 1159 1978 
L 1159 0 
L 581 0 
L 581 3500 
L 1159 3500 
L 1159 2956 
Q 1356 3278 1631 3431 
Q 1906 3584 2284 3584 
Q 2666 3584 2933 3390 
Q 3200 3197 3328 2828 
z
" id="DejaVuSans-6d" transform="scale(0.015625)"/>
       <path d="M 3513 2113 
L 3513 0 
L 2938 0 
L 2938 2094 
Q 2938 2591 2744 2837 
Q 2550 3084 2163 3084 
Q 1697 3084 1428 2787 
Q 1159 2491 1159 1978 
L 1159 0 
L 581 0 
L 581 3500 
L 1159 3500 
L 1159 2956 
Q 1366 3272 1645 3428 
Q 1925 3584 2291 3584 
Q 2894 3584 3203 3211 
Q 3513 2838 3513 2113 
z
" id="DejaVuSans-6e" transform="scale(0.015625)"/>
       <path d="M 513 4856 
L 1013 4856 
Q 1481 4119 1714 3412 
Q 1947 2706 1947 2009 
Q 1947 1309 1714 600 
Q 1481 -109 1013 -844 
L 513 -844 
Q 928 -128 1133 580 
Q 1338 1288 1338 2009 
Q 1338 2731 1133 3434 
Q 928 4138 513 4856 
z
" id="DejaVuSans-29" transform="scale(0.015625)"/>
      </defs>
      <use xlink:href="#DejaVuSans-6c"/>
      <use x="27.783203" xlink:href="#DejaVuSans-6f"/>
      <use x="88.964844" xlink:href="#DejaVuSans-67"/>
      <use x="152.441406" xlink:href="#DejaVuSans-31"/>
      <use x="216.064453" xlink:href="#DejaVuSans-30"/>
      <use x="279.6875" xlink:href="#DejaVuSans-28"/>
      <use x="318.701172" xlink:href="#DejaVuSans-23"/>
      <use x="402.490234" xlink:href="#DejaVuSans-20"/>
      <use x="434.277344" xlink:href="#DejaVuSans-66"/>
      <use x="463.982422" xlink:href="#DejaVuSans-2d"/>
      <use x="500.066406" xlink:href="#DejaVuSans-65"/>
      <use x="561.589844" xlink:href="#DejaVuSans-76"/>
      <use x="620.769531" xlink:href="#DejaVuSans-61"/>
      <use x="682.048828" xlink:href="#DejaVuSans-6c"/>
      <use x="709.832031" xlink:href="#DejaVuSans-73"/>
      <use x="761.931641" xlink:href="#DejaVuSans-20"/>
      <use x="793.71875" xlink:href="#DejaVuSans-2f"/>
      <use x="827.410156" xlink:href="#DejaVuSans-20"/>
      <use x="859.197266" xlink:href="#DejaVuSans-64"/>
      <use x="922.673828" xlink:href="#DejaVuSans-69"/>
      <use x="950.457031" xlink:href="#DejaVuSans-6d"/>
      <use x="1047.869141" xlink:href="#DejaVuSans-65"/>
      <use x="1109.392578" xlink:href="#DejaVuSans-6e"/>
      <use x="1172.771484" xlink:href="#DejaVuSans-73"/>
      <use x="1224.871094" xlink:href="#DejaVuSans-69"/>
      <use x="1252.654297" xlink:href="#DejaVuSans-6f"/>
      <use x="1313.835938" xlink:href="#DejaVuSans-6e"/>
      <use x="1377.214844" xlink:href="#DejaVuSans-29"/>
     </g>
    </g>
   </g>
   <g id="matplotlib.axis_2">
    <g id="ytick_1">
     <g id="line2d_17">
      <path clip-path="url(#p6ef82a4542)" d="M 57.6 298.944 
L 338.688 298.944 
" style="fill:none;stroke:#b0b0b0;stroke-linecap:square;stroke-width:0.8;"/>
     </g>
     <g id="line2d_18">
      <defs>
       <path d="M 0 0 
L -3.5 0 
" id="m3a2e98b237" style="stroke:#000000;stroke-width:0.8;"/>
      </defs>
      <g>
       <use style="stroke:#000000;stroke-width:0.8;" x="57.6" xlink:href="#m3a2e98b237" y="298.944"/>
      </g>
     </g>
     <g id="text_6">
      <!-- 0.0 -->
      <g transform="translate(25.155 305.02275)scale(0.16 -0.16)">
       <defs>
        <path d="M 684 794 
L 1344 794 
L 1344 0 
L 684 0 
L 684 794 
z
" id="DejaVuSans-2e" transform="scale(0.015625)"/>
       </defs>
       <use xlink:href="#DejaVuSans-30"/>
       <use x="63.623047" xlink:href="#DejaVuSans-2e"/>
       <use x="95.410156" xlink:href="#DejaVuSans-30"/>
      </g>
     </g>
    </g>
    <g id="ytick_2">
     <g id="line2d_19">
      <path clip-path="url(#p6ef82a4542)" d="M 57.6 245.22202 
L 338.688 245.22202 
" style="fill:none;stroke:#b0b0b0;stroke-linecap:square;stroke-width:0.8;"/>
     </g>
     <g id="line2d_20">
      <g>
       <use style="stroke:#000000;stroke-width:0.8;" x="57.6" xlink:href="#m3a2e98b237" y="245.22202"/>
      </g>
     </g>
     <g id="text_7">
      <!-- 0.2 -->
      <g transform="translate(25.155 251.30077)scale(0.16 -0.16)">
       <use xlink:href="#DejaVuSans-30"/>
       <use x="63.623047" xlink:href="#DejaVuSans-2e"/>
       <use x="95.410156" xlink:href="#DejaVuSans-32"/>
      </g>
     </g>
    </g>
    <g id="ytick_3">
     <g id="line2d_21">
      <path clip-path="url(#p6ef82a4542)" d="M 57.6 191.50004 
L 338.688 191.50004 
" style="fill:none;stroke:#b0b0b0;stroke-linecap:square;stroke-width:0.8;"/>
     </g>
     <g id="line2d_22">
      <g>
       <use style="stroke:#000000;stroke-width:0.8;" x="57.6" xlink:href="#m3a2e98b237" y="191.50004"/>
      </g>
     </g>
     <g id="text_8">
      <!-- 0.4 -->
      <g transform="translate(25.155 197.57879)scale(0.16 -0.16)">
       <use xlink:href="#DejaVuSans-30"/>
       <use x="63.623047" xlink:href="#DejaVuSans-2e"/>
       <use x="95.410156" xlink:href="#DejaVuSans-34"/>
      </g>
     </g>
    </g>
    <g id="ytick_4">
     <g id="line2d_23">
      <path clip-path="url(#p6ef82a4542)" d="M 57.6 137.778059 
L 338.688 137.778059 
" style="fill:none;stroke:#b0b0b0;stroke-linecap:square;stroke-width:0.8;"/>
     </g>
     <g id="line2d_24">
      <g>
       <use style="stroke:#000000;stroke-width:0.8;" x="57.6" xlink:href="#m3a2e98b237" y="137.778059"/>
      </g>
     </g>
     <g id="text_9">
      <!-- 0.6 -->
      <g transform="translate(25.155 143.856809)scale(0.16 -0.16)">
       <use xlink:href="#DejaVuSans-30"/>
       <use x="63.623047" xlink:href="#DejaVuSans-2e"/>
       <use x="95.410156" xlink:href="#DejaVuSans-36"/>
      </g>
     </g>
    </g>
    <g id="ytick_5">
     <g id="line2d_25">
      <path clip-path="url(#p6ef82a4542)" d="M 57.6 84.056079 
L 338.688 84.056079 
" style="fill:none;stroke:#b0b0b0;stroke-linecap:square;stroke-width:0.8;"/>
     </g>
     <g id="line2d_26">
      <g>
       <use style="stroke:#000000;stroke-width:0.8;" x="57.6" xlink:href="#m3a2e98b237" y="84.056079"/>
      </g>
     </g>
     <g id="text_10">
      <!-- 0.8 -->
      <g transform="translate(25.155 90.134829)scale(0.16 -0.16)">
       <defs>
        <path d="M 2034 2216 
Q 1584 2216 1326 1975 
Q 1069 1734 1069 1313 
Q 1069 891 1326 650 
Q 1584 409 2034 409 
Q 2484 409 2743 651 
Q 3003 894 3003 1313 
Q 3003 1734 2745 1975 
Q 2488 2216 2034 2216 
z
M 1403 2484 
Q 997 2584 770 2862 
Q 544 3141 544 3541 
Q 544 4100 942 4425 
Q 1341 4750 2034 4750 
Q 2731 4750 3128 4425 
Q 3525 4100 3525 3541 
Q 3525 3141 3298 2862 
Q 3072 2584 2669 2484 
Q 3125 2378 3379 2068 
Q 3634 1759 3634 1313 
Q 3634 634 3220 271 
Q 2806 -91 2034 -91 
Q 1263 -91 848 271 
Q 434 634 434 1313 
Q 434 1759 690 2068 
Q 947 2378 1403 2484 
z
M 1172 3481 
Q 1172 3119 1398 2916 
Q 1625 2713 2034 2713 
Q 2441 2713 2670 2916 
Q 2900 3119 2900 3481 
Q 2900 3844 2670 4047 
Q 2441 4250 2034 4250 
Q 1625 4250 1398 4047 
Q 1172 3844 1172 3481 
z
" id="DejaVuSans-38" transform="scale(0.015625)"/>
       </defs>
       <use xlink:href="#DejaVuSans-30"/>
       <use x="63.623047" xlink:href="#DejaVuSans-2e"/>
       <use x="95.410156" xlink:href="#DejaVuSans-38"/>
      </g>
     </g>
    </g>
    <g id="ytick_6">
     <g id="line2d_27">
      <path clip-path="url(#p6ef82a4542)" d="M 57.6 30.334099 
L 338.688 30.334099 
" style="fill:none;stroke:#b0b0b0;stroke-linecap:square;stroke-width:0.8;"/>
     </g>
     <g id="line2d_28">
      <g>
       <use style="stroke:#000000;stroke-width:0.8;" x="57.6" xlink:href="#m3a2e98b237" y="30.334099"/>
      </g>
     </g>
     <g id="text_11">
      <!-- 1.0 -->
      <g transform="translate(25.155 36.412849)scale(0.16 -0.16)">
       <use xlink:href="#DejaVuSans-31"/>
       <use x="63.623047" xlink:href="#DejaVuSans-2e"/>
       <use x="95.410156" xlink:href="#DejaVuSans-30"/>
      </g>
     </g>
    </g>
    <g id="text_12">
     <!-- Fraction of function,target pairs -->
     <g transform="translate(17.619531 297.681)rotate(-90)scale(0.17 -0.17)">
      <defs>
       <path d="M 628 4666 
L 3309 4666 
L 3309 4134 
L 1259 4134 
L 1259 2759 
L 3109 2759 
L 3109 2228 
L 1259 2228 
L 1259 0 
L 628 0 
L 628 4666 
z
" id="DejaVuSans-46" transform="scale(0.015625)"/>
       <path d="M 2631 2963 
Q 2534 3019 2420 3045 
Q 2306 3072 2169 3072 
Q 1681 3072 1420 2755 
Q 1159 2438 1159 1844 
L 1159 0 
L 581 0 
L 581 3500 
L 1159 3500 
L 1159 2956 
Q 1341 3275 1631 3429 
Q 1922 3584 2338 3584 
Q 2397 3584 2469 3576 
Q 2541 3569 2628 3553 
L 2631 2963 
z
" id="DejaVuSans-72" transform="scale(0.015625)"/>
       <path d="M 3122 3366 
L 3122 2828 
Q 2878 2963 2633 3030 
Q 2388 3097 2138 3097 
Q 1578 3097 1268 2742 
Q 959 2388 959 1747 
Q 959 1106 1268 751 
Q 1578 397 2138 397 
Q 2388 397 2633 464 
Q 2878 531 3122 666 
L 3122 134 
Q 2881 22 2623 -34 
Q 2366 -91 2075 -91 
Q 1284 -91 818 406 
Q 353 903 353 1747 
Q 353 2603 823 3093 
Q 1294 3584 2113 3584 
Q 2378 3584 2631 3529 
Q 2884 3475 3122 3366 
z
" id="DejaVuSans-63" transform="scale(0.015625)"/>
       <path d="M 1172 4494 
L 1172 3500 
L 2356 3500 
L 2356 3053 
L 1172 3053 
L 1172 1153 
Q 1172 725 1289 603 
Q 1406 481 1766 481 
L 2356 481 
L 2356 0 
L 1766 0 
Q 1100 0 847 248 
Q 594 497 594 1153 
L 594 3053 
L 172 3053 
L 172 3500 
L 594 3500 
L 594 4494 
L 1172 4494 
z
" id="DejaVuSans-74" transform="scale(0.015625)"/>
       <path d="M 544 1381 
L 544 3500 
L 1119 3500 
L 1119 1403 
Q 1119 906 1312 657 
Q 1506 409 1894 409 
Q 2359 409 2629 706 
Q 2900 1003 2900 1516 
L 2900 3500 
L 3475 3500 
L 3475 0 
L 2900 0 
L 2900 538 
Q 2691 219 2414 64 
Q 2138 -91 1772 -91 
Q 1169 -91 856 284 
Q 544 659 544 1381 
z
M 1991 3584 
L 1991 3584 
z
" id="DejaVuSans-75" transform="scale(0.015625)"/>
       <path d="M 750 794 
L 1409 794 
L 1409 256 
L 897 -744 
L 494 -744 
L 750 256 
L 750 794 
z
" id="DejaVuSans-2c" transform="scale(0.015625)"/>
       <path d="M 1159 525 
L 1159 -1331 
L 581 -1331 
L 581 3500 
L 1159 3500 
L 1159 2969 
Q 1341 3281 1617 3432 
Q 1894 3584 2278 3584 
Q 2916 3584 3314 3078 
Q 3713 2572 3713 1747 
Q 3713 922 3314 415 
Q 2916 -91 2278 -91 
Q 1894 -91 1617 61 
Q 1341 213 1159 525 
z
M 3116 1747 
Q 3116 2381 2855 2742 
Q 2594 3103 2138 3103 
Q 1681 3103 1420 2742 
Q 1159 2381 1159 1747 
Q 1159 1113 1420 752 
Q 1681 391 2138 391 
Q 2594 391 2855 752 
Q 3116 1113 3116 1747 
z
" id="DejaVuSans-70" transform="scale(0.015625)"/>
      </defs>
      <use xlink:href="#DejaVuSans-46"/>
      <use x="50.269531" xlink:href="#DejaVuSans-72"/>
      <use x="91.382812" xlink:href="#DejaVuSans-61"/>
      <use x="152.662109" xlink:href="#DejaVuSans-63"/>
      <use x="207.642578" xlink:href="#DejaVuSans-74"/>
      <use x="246.851562" xlink:href="#DejaVuSans-69"/>
      <use x="274.634766" xlink:href="#DejaVuSans-6f"/>
      <use x="335.816406" xlink:href="#DejaVuSans-6e"/>
      <use x="399.195312" xlink:href="#DejaVuSans-20"/>
      <use x="430.982422" xlink:href="#DejaVuSans-6f"/>
      <use x="492.164062" xlink:href="#DejaVuSans-66"/>
      <use x="527.369141" xlink:href="#DejaVuSans-20"/>
      <use x="559.15625" xlink:href="#DejaVuSans-66"/>
      <use x="594.361328" xlink:href="#DejaVuSans-75"/>
      <use x="657.740234" xlink:href="#DejaVuSans-6e"/>
      <use x="721.119141" xlink:href="#DejaVuSans-63"/>
      <use x="776.099609" xlink:href="#DejaVuSans-74"/>
      <use x="815.308594" xlink:href="#DejaVuSans-69"/>
      <use x="843.091797" xlink:href="#DejaVuSans-6f"/>
      <use x="904.273438" xlink:href="#DejaVuSans-6e"/>
      <use x="967.652344" xlink:href="#DejaVuSans-2c"/>
      <use x="999.439453" xlink:href="#DejaVuSans-74"/>
      <use x="1038.648438" xlink:href="#DejaVuSans-61"/>
      <use x="1099.927734" xlink:href="#DejaVuSans-72"/>
      <use x="1139.291016" xlink:href="#DejaVuSans-67"/>
      <use x="1202.767578" xlink:href="#DejaVuSans-65"/>
      <use x="1264.291016" xlink:href="#DejaVuSans-74"/>
      <use x="1303.5" xlink:href="#DejaVuSans-20"/>
      <use x="1335.287109" xlink:href="#DejaVuSans-70"/>
      <use x="1398.763672" xlink:href="#DejaVuSans-61"/>
      <use x="1460.042969" xlink:href="#DejaVuSans-69"/>
      <use x="1487.826172" xlink:href="#DejaVuSans-72"/>
      <use x="1528.939453" xlink:href="#DejaVuSans-73"/>
     </g>
    </g>
   </g>
   <g id="line2d_29">
    <defs>
     <path d="M 0 1.5 
C 0.397805 1.5 0.77937 1.341951 1.06066 1.06066 
C 1.341951 0.77937 1.5 0.397805 1.5 0 
C 1.5 -0.397805 1.341951 -0.77937 1.06066 -1.06066 
C 0.77937 -1.341951 0.397805 -1.5 0 -1.5 
C -0.397805 -1.5 -0.77937 -1.341951 -1.06066 -1.06066 
C -1.341951 -0.77937 -1.5 -0.397805 -1.5 0 
C -1.5 0.397805 -1.341951 0.77937 -1.06066 1.06066 
C -0.77937 1.341951 -0.397805 1.5 0 1.5 
z
" id="m6c78154584" style="stroke:#00bfbf;"/>
    </defs>
    <g>
     <use style="fill:#00bfbf;stroke:#00bfbf;" x="307.68803" xlink:href="#m6c78154584" y="30.334099"/>
     <use style="fill:#00bfbf;stroke:#00bfbf;" x="307.68803" xlink:href="#m6c78154584" y="30.334099"/>
    </g>
   </g>
   <g id="line2d_30">
    <path d="M 127.954256 298.944 
L 127.954256 298.417314 
L 128.856489 298.417314 
L 128.856489 297.890628 
L 129.147151 297.890628 
L 129.147151 297.363942 
L 130.398313 297.363942 
L 130.398313 294.203825 
L 131.185181 294.203825 
L 131.185181 290.517023 
L 131.439773 290.517023 
L 131.439773 289.990337 
L 132.060454 289.990337 
L 132.060454 288.936964 
L 132.30267 288.936964 
L 132.30267 287.883592 
L 134.766144 287.883592 
L 134.766144 286.83022 
L 136.924311 286.83022 
L 136.924311 286.303534 
L 137.823442 286.303534 
L 137.823442 285.250162 
L 139.8092 285.250162 
L 139.8092 283.143418 
L 140.723258 283.143418 
L 140.723258 277.349871 
L 144.209312 277.349871 
L 144.209312 275.769812 
L 144.510517 275.769812 
L 144.510517 273.663068 
L 148.112924 273.663068 
L 148.112924 272.609696 
L 149.823575 272.609696 
L 149.823575 271.029638 
L 150.808139 271.029638 
L 150.808139 267.342835 
L 154.54072 267.342835 
L 154.54072 266.289463 
L 160.844678 266.289463 
L 160.844678 265.762777 
L 162.728843 265.762777 
L 162.728843 264.709405 
L 169.743743 264.709405 
L 169.743743 263.656033 
L 171.276376 263.656033 
L 171.276376 263.129347 
L 173.349008 263.129347 
L 173.349008 261.549288 
L 175.313947 261.549288 
L 175.313947 261.022602 
L 176.61217 261.022602 
L 176.61217 257.3358 
L 179.13174 257.3358 
L 179.13174 256.809114 
L 180.236213 256.809114 
L 180.236213 255.755741 
L 181.390568 255.755741 
L 181.390568 255.229055 
L 182.069005 255.229055 
L 182.069005 254.175683 
L 182.742052 254.175683 
L 182.742052 253.648997 
L 186.735916 253.648997 
L 186.735916 252.595625 
L 187.124054 252.595625 
L 187.124054 251.015567 
L 188.248911 251.015567 
L 188.248911 249.962195 
L 188.944859 249.962195 
L 188.944859 247.85545 
L 191.321964 247.85545 
L 191.321964 247.328764 
L 193.011144 247.328764 
L 193.011144 245.22202 
L 193.202544 245.22202 
L 193.246416 243.115275 
L 193.614942 243.115275 
L 193.614942 242.588589 
L 194.070135 242.588589 
L 194.070135 242.061903 
L 195.310202 242.061903 
L 195.310202 241.535217 
L 196.467914 241.535217 
L 196.467914 240.481845 
L 197.655916 240.481845 
L 197.655916 239.955159 
L 199.253491 239.955159 
L 199.253491 237.321729 
L 200.690728 237.321729 
L 200.690728 236.795043 
L 201.600608 236.795043 
L 201.600608 235.214984 
L 202.102187 235.214984 
L 202.102187 234.161612 
L 202.469664 234.161612 
L 202.568361 231.528182 
L 202.986924 231.528182 
L 202.986924 231.001496 
L 203.256374 231.001496 
L 203.256374 229.948123 
L 204.288562 229.948123 
L 204.288562 228.894751 
L 205.496141 228.894751 
L 205.496141 227.841379 
L 205.921423 227.841379 
L 205.921423 227.314693 
L 206.64413 227.314693 
L 206.710057 222.574518 
L 207.302231 222.574518 
L 207.302231 222.047832 
L 208.810539 222.047832 
L 208.810539 219.941088 
L 211.56259 219.941088 
L 211.56259 218.887716 
L 211.835095 218.887716 
L 211.835095 218.36103 
L 212.662769 218.36103 
L 212.662769 216.254285 
L 212.989501 216.254285 
L 212.989501 215.200913 
L 213.365606 215.200913 
L 213.41392 214.147541 
L 213.757439 214.147541 
L 213.757439 213.094169 
L 214.481101 213.094169 
L 214.481101 212.567483 
L 214.603852 212.567483 
L 214.657419 210.987425 
L 215.327901 210.987425 
L 215.437695 207.827308 
L 215.902985 207.827308 
L 215.902985 206.24725 
L 216.388178 206.24725 
L 216.388178 205.720564 
L 217.118517 205.720564 
L 217.118517 205.193878 
L 218.250465 205.193878 
L 218.250465 204.140506 
L 218.81828 204.140506 
L 218.81828 203.613819 
L 219.122335 203.613819 
L 219.122335 203.087133 
L 219.420366 203.087133 
L 219.420366 202.560447 
L 219.538004 202.560447 
L 219.629135 200.980389 
L 220.093448 200.980389 
L 220.093448 197.820273 
L 220.456965 197.820273 
L 220.456965 197.293586 
L 220.68028 197.293586 
L 220.68028 195.713528 
L 221.039309 195.713528 
L 221.098558 193.080098 
L 221.157607 193.080098 
L 221.157607 192.553412 
L 221.630107 192.553412 
L 221.728083 190.973354 
L 221.787884 190.973354 
L 221.836146 189.393295 
L 222.971349 189.393295 
L 223.02969 188.339923 
L 223.19044 188.339923 
L 223.19044 185.706493 
L 224.056507 185.706493 
L 224.120662 183.599748 
L 224.546885 183.599748 
L 224.546885 183.073062 
L 224.814803 183.073062 
L 224.814803 182.546376 
L 225.046859 182.546376 
L 225.046859 182.01969 
L 225.509374 182.01969 
L 225.509374 181.493004 
L 225.630667 181.493004 
L 225.65175 180.439632 
L 225.800315 180.439632 
L 225.800315 179.912946 
L 225.938665 179.912946 
L 225.938665 178.859574 
L 227.012383 178.859574 
L 227.012383 178.332888 
L 228.047651 178.332888 
L 228.047651 172.539341 
L 229.491201 172.539341 
L 229.509925 170.432596 
L 229.725398 170.432596 
L 229.731258 169.379224 
L 230.04259 169.379224 
L 230.04259 168.852538 
L 230.737346 168.852538 
L 230.737346 167.799166 
L 231.080246 167.799166 
L 231.080246 167.27248 
L 231.414487 167.27248 
L 231.453319 164.112363 
L 231.546978 164.112363 
L 231.616287 162.005619 
L 233.051834 162.005619 
L 233.051834 161.478933 
L 233.639749 161.478933 
L 233.639749 159.898875 
L 233.905697 159.898875 
L 233.905697 158.845503 
L 236.583531 158.845503 
L 236.583531 158.318817 
L 237.345518 158.318817 
L 237.345518 157.79213 
L 237.567195 157.79213 
L 237.567195 157.265444 
L 238.411143 157.265444 
L 238.411143 156.738758 
L 238.813863 156.738758 
L 238.813863 155.685386 
L 239.109587 155.685386 
L 239.109587 155.1587 
L 239.29001 155.1587 
L 239.317863 153.051956 
L 240.077219 153.051956 
L 240.077219 152.52527 
L 240.22451 152.52527 
L 240.22451 151.998584 
L 240.931013 151.998584 
L 240.959444 149.891839 
L 241.144764 149.891839 
L 241.144764 149.365153 
L 241.638717 149.365153 
L 241.638717 147.785095 
L 242.305894 147.785095 
L 242.305894 147.258409 
L 243.480159 147.258409 
L 243.482412 146.205037 
L 244.092698 146.205037 
L 244.100806 145.151665 
L 244.643102 145.151665 
L 244.643102 144.098292 
L 244.951417 144.098292 
L 245.012507 143.04492 
L 245.19153 143.04492 
L 245.19153 141.991548 
L 246.010705 141.991548 
L 246.010705 140.938176 
L 246.142046 140.938176 
L 246.142046 139.884804 
L 247.894287 139.884804 
L 247.894287 139.358118 
L 248.082074 139.358118 
L 248.082074 138.831432 
L 248.520876 138.831432 
L 248.520876 138.304745 
L 248.698577 138.304745 
L 248.799594 136.724687 
L 249.034489 136.724687 
L 249.034489 136.198001 
L 249.473506 136.198001 
L 249.559594 134.617943 
L 249.794952 134.617943 
L 249.794952 134.091257 
L 250.085068 134.091257 
L 250.104276 131.457826 
L 250.695289 131.457826 
L 250.695289 130.404454 
L 252.380639 130.404454 
L 252.479847 128.824396 
L 252.540393 128.824396 
L 252.540393 128.29771 
L 253.175036 128.29771 
L 253.26224 126.717652 
L 255.037 126.717652 
L 255.07329 125.66428 
L 255.237546 125.66428 
L 255.237546 125.137593 
L 255.546315 125.137593 
L 255.546315 124.084221 
L 255.993956 124.084221 
L 256.009144 123.030849 
L 256.173663 123.030849 
L 256.20648 118.817361 
L 256.600083 118.817361 
L 256.649061 116.18393 
L 257.721098 116.18393 
L 257.721098 115.657244 
L 258.238474 115.657244 
L 258.238474 115.130558 
L 259.296634 115.130558 
L 259.296634 114.603872 
L 259.623432 114.603872 
L 259.649634 113.023814 
L 259.739703 113.023814 
L 259.803777 109.863697 
L 260.094368 109.863697 
L 260.094368 109.337011 
L 260.378176 109.337011 
L 260.400629 107.756953 
L 260.554229 107.756953 
L 260.554229 107.230267 
L 260.841387 107.230267 
L 260.841387 106.703581 
L 261.687511 106.703581 
L 261.687511 106.176895 
L 263.293919 106.176895 
L 263.293919 105.650209 
L 263.419097 105.650209 
L 263.419097 105.123522 
L 263.612883 105.123522 
L 263.612883 104.07015 
L 264.010531 104.07015 
L 264.031477 101.963406 
L 264.166573 101.963406 
L 264.166573 101.43672 
L 264.283798 101.43672 
L 264.315339 99.856662 
L 264.748787 99.856662 
L 264.748787 99.329976 
L 264.965272 99.329976 
L 265.013553 98.276603 
L 266.36826 98.276603 
L 266.412099 96.696545 
L 266.575467 96.696545 
L 266.575467 95.643173 
L 266.822896 95.643173 
L 266.929321 94.063115 
L 267.143249 94.063115 
L 267.170023 92.483056 
L 267.764584 92.483056 
L 267.764584 91.95637 
L 268.057336 91.95637 
L 268.057336 91.429684 
L 268.80374 91.429684 
L 268.891327 90.376312 
L 269.107093 90.376312 
L 269.138312 88.796254 
L 269.39817 88.796254 
L 269.413551 87.742882 
L 269.586898 87.742882 
L 269.622487 86.162824 
L 271.342012 86.162824 
L 271.342012 85.636137 
L 271.675338 85.636137 
L 271.740743 84.056079 
L 273.109119 84.056079 
L 273.16769 82.476021 
L 273.436982 82.476021 
L 273.520464 80.369277 
L 273.667345 80.369277 
L 273.667345 79.842591 
L 274.097131 79.842591 
L 274.097131 79.315904 
L 274.941326 79.315904 
L 274.941326 78.789218 
L 275.260295 78.789218 
L 275.260295 77.735846 
L 275.783019 77.735846 
L 275.783019 77.20916 
L 276.502884 77.20916 
L 276.551112 75.102416 
L 276.642643 75.102416 
L 276.642643 74.57573 
L 276.777375 74.57573 
L 276.84219 72.468985 
L 276.963685 72.468985 
L 276.978936 70.362241 
L 277.3202 70.362241 
L 277.3202 69.835555 
L 278.12561 69.835555 
L 278.232816 68.782183 
L 278.23706 68.782183 
L 278.23706 67.728811 
L 278.411525 67.728811 
L 278.411525 67.202125 
L 279.383562 67.202125 
L 279.478649 65.622066 
L 279.631311 65.622066 
L 279.631311 65.09538 
L 280.039492 65.09538 
L 280.039492 64.568694 
L 280.624714 64.568694 
L 280.732558 62.46195 
L 280.826916 62.46195 
L 280.874672 60.355206 
L 281.255068 60.355206 
L 281.255068 59.82852 
L 282.035255 59.82852 
L 282.035255 59.301833 
L 283.123397 59.301833 
L 283.218898 57.195089 
L 284.102274 57.195089 
L 284.147612 56.141717 
L 284.23768 56.141717 
L 284.23768 55.615031 
L 284.891923 55.615031 
L 284.991093 54.034973 
L 285.074693 54.034973 
L 285.114997 51.928228 
L 285.195609 51.928228 
L 285.195609 51.401542 
L 286.031528 51.401542 
L 286.108022 50.34817 
L 286.8685 50.34817 
L 286.938788 48.241426 
L 287.731627 48.241426 
L 287.796801 46.661368 
L 288.523311 46.661368 
L 288.593432 45.607995 
L 288.769594 45.607995 
L 288.769594 45.081309 
L 289.280611 45.081309 
L 289.280611 43.501251 
L 290.063606 43.501251 
L 290.070804 42.447879 
L 290.703165 42.447879 
L 290.754481 40.867821 
L 292.075787 40.867821 
L 292.075787 40.341135 
L 292.513708 40.341135 
L 292.513708 39.814448 
L 292.686497 39.814448 
L 292.695968 38.761076 
L 293.171537 38.761076 
L 293.241323 37.707704 
L 293.294849 37.707704 
L 293.294849 37.181018 
L 293.864992 37.181018 
L 293.864992 36.654332 
L 294.362105 36.654332 
L 294.384098 35.60096 
L 295.495658 35.60096 
L 295.495658 35.074274 
L 296.503783 35.074274 
L 296.503783 34.547588 
L 297.921485 34.547588 
L 297.921485 34.020902 
L 298.309727 34.020902 
L 298.309727 33.494215 
L 300.824386 33.494215 
L 300.824386 32.967529 
L 301.572683 32.967529 
L 301.574485 31.914157 
L 302.950304 31.914157 
L 302.950304 31.387471 
L 303.31044 31.387471 
L 303.31044 30.860785 
L 307.68803 30.860785 
L 307.68803 30.334099 
L 338.688 30.334099 
L 338.688 30.334099 
" style="fill:none;stroke:#00bfbf;stroke-linecap:square;stroke-width:1.5;"/>
   </g>
   <g id="line2d_31">
    <defs>
     <path d="M -6 0 
L 6 0 
M 0 6 
L 0 -6 
" id="ma355ecb4c7" style="stroke:#00bfbf;stroke-width:1.5;"/>
    </defs>
    <g>
     <use style="fill-opacity:0;stroke:#00bfbf;stroke-width:1.5;" x="182.069005" xlink:href="#ma355ecb4c7" y="255.229055"/>
     <use style="fill-opacity:0;stroke:#00bfbf;stroke-width:1.5;" x="231.080246" xlink:href="#ma355ecb4c7" y="167.799166"/>
     <use style="fill-opacity:0;stroke:#00bfbf;stroke-width:1.5;" x="287.796801" xlink:href="#ma355ecb4c7" y="46.661368"/>
     <use style="fill-opacity:0;stroke:#00bfbf;stroke-width:1.5;" x="307.68803" xlink:href="#ma355ecb4c7" y="30.334099"/>
     <use style="fill-opacity:0;stroke:#00bfbf;stroke-width:1.5;" x="338.688" xlink:href="#ma355ecb4c7" y="30.334099"/>
    </g>
   </g>
   <g id="line2d_32">
    <path style="fill:none;stroke:#00bfbf;stroke-linecap:square;stroke-width:1.5;"/>
    <g/>
   </g>
   <g id="line2d_33">
    <path clip-path="url(#p6ef82a4542)" d="M 234.201166 158.845503 
" style="fill:none;stroke:#00bfbf;stroke-linecap:square;stroke-width:1.5;"/>
    <defs>
     <path d="M -12 12 
L 12 -12 
M -12 -12 
L 12 12 
" id="m73bc614b7b" style="stroke:#00bfbf;"/>
    </defs>
    <g clip-path="url(#p6ef82a4542)">
     <use style="fill:#00bfbf;stroke:#00bfbf;" x="234.201166" xlink:href="#m73bc614b7b" y="158.845503"/>
    </g>
   </g>
   <g id="line2d_34">
    <defs>
     <path d="M 0 1.5 
C 0.397805 1.5 0.77937 1.341951 1.06066 1.06066 
C 1.341951 0.77937 1.5 0.397805 1.5 0 
C 1.5 -0.397805 1.341951 -0.77937 1.06066 -1.06066 
C 0.77937 -1.341951 0.397805 -1.5 0 -1.5 
C -0.397805 -1.5 -0.77937 -1.341951 -1.06066 -1.06066 
C -1.341951 -0.77937 -1.5 -0.397805 -1.5 0 
C -1.5 0.397805 -1.341951 0.77937 -1.06066 1.06066 
C -0.77937 1.341951 -0.397805 1.5 0 1.5 
z
" id="ma8132d1872" style="stroke:#008000;"/>
    </defs>
    <g>
     <use style="fill:#008000;stroke:#008000;" x="309.337018" xlink:href="#ma8132d1872" y="156.738758"/>
     <use style="fill:#008000;stroke:#008000;" x="309.337018" xlink:href="#ma8132d1872" y="156.738758"/>
    </g>
   </g>
   <g id="line2d_35">
    <path d="M 138.981779 298.944 
L 138.981779 298.417314 
L 143.230373 298.417314 
L 143.230373 297.890628 
L 152.959038 297.890628 
L 152.959038 297.363942 
L 155.928852 297.363942 
L 155.928852 295.257197 
L 158.501489 295.257197 
L 158.501489 293.150453 
L 174.893703 293.150453 
L 174.893703 290.517023 
L 175.074063 290.517023 
L 175.074063 289.990337 
L 180.52889 289.990337 
L 180.52889 288.410278 
L 180.928089 288.410278 
L 180.952739 284.723476 
L 182.21625 284.723476 
L 182.21625 283.670104 
L 182.457423 283.670104 
L 182.457423 283.143418 
L 185.051838 283.143418 
L 185.051838 282.616732 
L 185.387404 282.616732 
L 185.417939 280.509987 
L 187.272123 280.509987 
L 187.272123 278.929929 
L 187.808966 278.929929 
L 187.808966 277.876557 
L 188.403842 277.876557 
L 188.403842 277.349871 
L 189.538985 277.349871 
L 189.538985 276.823185 
L 190.365172 276.823185 
L 190.365172 276.296499 
L 190.519553 276.296499 
L 190.519553 275.769812 
L 190.868971 275.769812 
L 190.868971 274.71644 
L 192.185058 274.71644 
L 192.185058 273.136382 
L 192.480059 273.136382 
L 192.480059 271.029638 
L 192.81263 271.029638 
L 192.81263 270.502952 
L 193.60779 270.502952 
L 193.60779 269.976266 
L 194.059683 269.976266 
L 194.059683 269.449579 
L 194.967323 269.449579 
L 194.967323 266.816149 
L 196.109087 266.816149 
L 196.109087 266.289463 
L 197.610486 266.289463 
L 197.610486 265.762777 
L 197.898093 265.762777 
L 197.898093 264.709405 
L 199.561251 264.709405 
L 199.561251 263.129347 
L 200.237734 263.129347 
L 200.237734 262.60266 
L 200.871668 262.60266 
L 200.979807 261.549288 
L 201.018823 261.549288 
L 201.018823 261.022602 
L 201.244948 261.022602 
L 201.244948 258.389172 
L 201.702084 258.389172 
L 201.702084 256.809114 
L 202.2655 256.809114 
L 202.324903 255.755741 
L 203.407234 255.755741 
L 203.407234 255.229055 
L 203.909688 255.229055 
L 204.013716 252.595625 
L 204.102766 252.595625 
L 204.102766 252.068939 
L 204.528576 252.068939 
L 204.528576 251.542253 
L 206.479069 251.542253 
L 206.543919 250.488881 
L 207.287547 250.488881 
L 207.287547 249.962195 
L 207.561779 249.962195 
L 207.617393 248.382136 
L 208.092441 248.382136 
L 208.092441 246.802078 
L 208.920381 246.802078 
L 208.953051 245.748706 
L 209.403154 245.748706 
L 209.475294 244.695334 
L 209.802409 244.695334 
L 209.802409 244.168648 
L 210.416066 244.168648 
L 210.483238 242.588589 
L 211.34924 242.588589 
L 211.34924 242.061903 
L 211.538729 242.061903 
L 211.538729 241.535217 
L 211.668718 241.535217 
L 211.668718 239.428473 
L 211.856461 239.428473 
L 211.856461 238.901787 
L 212.424077 238.901787 
L 212.424077 237.848415 
L 212.585441 237.848415 
L 212.585441 237.321729 
L 212.865075 237.321729 
L 212.865075 236.795043 
L 213.647084 236.795043 
L 213.647084 236.268356 
L 214.515285 236.268356 
L 214.515285 235.214984 
L 216.226639 235.214984 
L 216.226639 234.688298 
L 218.708391 234.688298 
L 218.708391 234.161612 
L 220.831087 234.161612 
L 220.831087 233.634926 
L 220.946327 233.634926 
L 220.946327 233.10824 
L 222.657985 233.10824 
L 222.657985 232.581554 
L 222.837803 232.581554 
L 222.837803 232.054868 
L 223.495322 232.054868 
L 223.495322 231.528182 
L 223.744852 231.528182 
L 223.744852 230.47481 
L 224.203774 230.47481 
L 224.203774 228.894751 
L 224.615108 228.894751 
L 224.615108 228.368065 
L 228.656366 228.368065 
L 228.656366 227.841379 
L 228.819534 227.841379 
L 228.819534 227.314693 
L 229.129235 227.314693 
L 229.129235 226.788007 
L 229.411513 226.788007 
L 229.411513 226.261321 
L 230.491285 226.261321 
L 230.491285 225.734635 
L 230.636514 225.734635 
L 230.651342 224.681263 
L 231.216947 224.681263 
L 231.238731 223.627891 
L 231.80111 223.627891 
L 231.80111 223.101204 
L 232.045672 223.101204 
L 232.059349 221.521146 
L 232.177519 221.521146 
L 232.177519 220.467774 
L 232.397824 220.467774 
L 232.397824 219.941088 
L 232.80987 219.941088 
L 232.80987 218.887716 
L 233.054938 218.887716 
L 233.147563 217.834344 
L 233.202559 217.834344 
L 233.202559 217.307658 
L 233.371389 217.307658 
L 233.371389 216.254285 
L 233.505238 216.254285 
L 233.505238 215.200913 
L 233.748429 215.200913 
L 233.748429 213.620855 
L 235.157345 213.620855 
L 235.157345 213.094169 
L 235.510771 213.094169 
L 235.510771 212.567483 
L 236.72665 212.567483 
L 236.72665 212.040797 
L 237.125019 212.040797 
L 237.125019 211.514111 
L 237.607503 211.514111 
L 237.607503 210.987425 
L 237.816259 210.987425 
L 237.816259 209.934052 
L 238.553396 209.934052 
L 238.553396 209.407366 
L 239.869554 209.407366 
L 239.869554 208.88068 
L 240.083278 208.88068 
L 240.083278 208.353994 
L 240.545256 208.353994 
L 240.545256 207.827308 
L 241.393143 207.827308 
L 241.393143 207.300622 
L 241.700917 207.300622 
L 241.810381 206.24725 
L 241.856314 206.24725 
L 241.856314 205.720564 
L 242.288207 205.720564 
L 242.288207 205.193878 
L 242.462966 205.193878 
L 242.51732 202.560447 
L 242.645163 202.560447 
L 242.645163 202.033761 
L 242.839368 202.033761 
L 242.839368 201.507075 
L 243.744007 201.507075 
L 243.744007 200.980389 
L 243.9071 200.980389 
L 243.9071 200.453703 
L 244.668319 200.453703 
L 244.668319 199.927017 
L 244.922018 199.927017 
L 244.922018 198.873645 
L 247.76887 198.873645 
L 247.76887 197.820273 
L 248.394698 197.820273 
L 248.394698 197.293586 
L 248.903131 197.293586 
L 248.903131 196.7669 
L 249.151649 196.7669 
L 249.151649 196.240214 
L 249.931629 196.240214 
L 249.95341 195.186842 
L 250.104836 195.186842 
L 250.104836 194.660156 
L 250.976921 194.660156 
L 250.976921 194.13347 
L 251.127417 194.13347 
L 251.127417 193.606784 
L 252.267336 193.606784 
L 252.267336 193.080098 
L 252.427513 193.080098 
L 252.427513 192.553412 
L 252.711371 192.553412 
L 252.711371 192.026726 
L 252.902744 192.026726 
L 252.902744 191.50004 
L 253.015998 191.50004 
L 253.087946 188.866609 
L 253.302413 188.866609 
L 253.302413 188.339923 
L 253.495827 188.339923 
L 253.495827 187.813237 
L 254.12394 187.813237 
L 254.12394 187.286551 
L 256.297786 187.286551 
L 256.330698 185.706493 
L 256.593001 185.706493 
L 256.637311 184.653121 
L 256.737414 184.653121 
L 256.737414 184.126434 
L 256.970794 184.126434 
L 256.970794 183.599748 
L 257.150959 183.599748 
L 257.150959 183.073062 
L 257.398715 183.073062 
L 257.398715 182.546376 
L 259.13269 182.546376 
L 259.13269 182.01969 
L 259.373118 182.01969 
L 259.373118 181.493004 
L 259.547605 181.493004 
L 259.547605 180.966318 
L 259.733062 180.966318 
L 259.733062 180.439632 
L 260.513211 180.439632 
L 260.513211 179.912946 
L 262.073407 179.912946 
L 262.073407 179.38626 
L 264.213766 179.38626 
L 264.213766 178.859574 
L 264.523309 178.859574 
L 264.523309 178.332888 
L 265.368964 178.332888 
L 265.368964 177.806202 
L 266.086735 177.806202 
L 266.086735 176.752829 
L 266.237134 176.752829 
L 266.262635 175.172771 
L 266.363719 175.172771 
L 266.363719 174.646085 
L 267.214312 174.646085 
L 267.214312 174.119399 
L 267.861332 174.119399 
L 267.861332 173.592713 
L 268.072478 173.592713 
L 268.072478 173.066027 
L 268.585362 173.066027 
L 268.585362 172.539341 
L 268.882943 172.539341 
L 268.882943 172.012655 
L 269.700343 172.012655 
L 269.700343 171.485969 
L 270.268856 171.485969 
L 270.268856 170.959282 
L 271.156265 170.959282 
L 271.225994 169.379224 
L 271.56585 169.379224 
L 271.56585 168.852538 
L 272.564518 168.852538 
L 272.564518 167.799166 
L 273.659288 167.799166 
L 273.74747 165.692422 
L 274.911676 165.692422 
L 274.967917 164.112363 
L 276.975275 164.112363 
L 276.975275 163.585677 
L 277.948142 163.585677 
L 277.999937 162.532305 
L 278.918726 162.532305 
L 278.918726 162.005619 
L 279.791521 162.005619 
L 279.791521 161.478933 
L 282.157414 161.478933 
L 282.157414 160.425561 
L 283.562637 160.425561 
L 283.562637 159.898875 
L 284.917728 159.898875 
L 284.917728 159.372189 
L 288.862489 159.372189 
L 288.862489 158.845503 
L 290.329125 158.845503 
L 290.329125 158.318817 
L 293.314916 158.318817 
L 293.314916 157.79213 
L 298.382273 157.79213 
L 298.382273 157.265444 
L 309.337018 157.265444 
L 309.337018 156.738758 
L 338.688 156.738758 
L 338.688 156.738758 
" style="fill:none;stroke:#008000;stroke-linecap:square;stroke-width:1.5;"/>
   </g>
   <g id="line2d_36">
    <defs>
     <path d="M -0 6 
L 6 -6 
L -6 -6 
z
" id="m5682cd9ae0" style="stroke:#008000;stroke-linejoin:miter;stroke-width:1.5;"/>
    </defs>
    <g>
     <use style="fill-opacity:0;stroke:#008000;stroke-linejoin:miter;stroke-width:1.5;" x="201.018823" xlink:href="#m5682cd9ae0" y="261.022602"/>
     <use style="fill-opacity:0;stroke:#008000;stroke-linejoin:miter;stroke-width:1.5;" x="244.922018" xlink:href="#m5682cd9ae0" y="198.873645"/>
     <use style="fill-opacity:0;stroke:#008000;stroke-linejoin:miter;stroke-width:1.5;" x="290.329125" xlink:href="#m5682cd9ae0" y="158.845503"/>
     <use style="fill-opacity:0;stroke:#008000;stroke-linejoin:miter;stroke-width:1.5;" x="309.337018" xlink:href="#m5682cd9ae0" y="156.738758"/>
     <use style="fill-opacity:0;stroke:#008000;stroke-linejoin:miter;stroke-width:1.5;" x="338.688" xlink:href="#m5682cd9ae0" y="156.738758"/>
    </g>
   </g>
   <g id="line2d_37">
    <path style="fill:none;stroke:#008000;stroke-linecap:square;stroke-width:1.5;"/>
    <g/>
   </g>
   <g id="line2d_38">
    <path clip-path="url(#p6ef82a4542)" d="M 227.130146 228.368065 
" style="fill:none;stroke:#008000;stroke-linecap:square;stroke-width:1.5;"/>
    <defs>
     <path d="M -12 12 
L 12 -12 
M -12 -12 
L 12 12 
" id="me66de51f6a" style="stroke:#008000;"/>
    </defs>
    <g clip-path="url(#p6ef82a4542)">
     <use style="fill:#008000;stroke:#008000;" x="227.130146" xlink:href="#me66de51f6a" y="228.368065"/>
    </g>
   </g>
   <g id="line2d_39">
    <defs>
     <path d="M 0 1.5 
C 0.397805 1.5 0.77937 1.341951 1.06066 1.06066 
C 1.341951 0.77937 1.5 0.397805 1.5 0 
C 1.5 -0.397805 1.341951 -0.77937 1.06066 -1.06066 
C 0.77937 -1.341951 0.397805 -1.5 0 -1.5 
C -0.397805 -1.5 -0.77937 -1.341951 -1.06066 -1.06066 
C -1.341951 -0.77937 -1.5 -0.397805 -1.5 0 
C -1.5 0.397805 -1.341951 0.77937 -1.06066 1.06066 
C -0.77937 1.341951 -0.397805 1.5 0 1.5 
z
" id="m368e078d78" style="stroke:#0000ff;"/>
    </defs>
    <g>
     <use style="fill:#0000ff;stroke:#0000ff;" x="300.165028" xlink:href="#m368e078d78" y="251.542253"/>
     <use style="fill:#0000ff;stroke:#0000ff;" x="300.165028" xlink:href="#m368e078d78" y="251.542253"/>
    </g>
   </g>
   <g id="line2d_40">
    <path d="M 187.713613 298.944 
L 187.713613 298.417314 
L 189.300095 298.417314 
L 189.300095 297.890628 
L 193.076161 297.890628 
L 193.108578 296.837256 
L 194.328049 296.837256 
L 194.328049 296.31057 
L 194.877991 296.31057 
L 194.877991 295.783884 
L 197.893618 295.783884 
L 197.970652 294.730511 
L 199.289677 294.730511 
L 199.289677 294.203825 
L 199.413178 294.203825 
L 199.413178 293.150453 
L 199.576497 293.150453 
L 199.576497 292.623767 
L 200.264776 292.623767 
L 200.264776 292.097081 
L 201.983117 292.097081 
L 201.983117 291.570395 
L 203.103091 291.570395 
L 203.103091 291.043709 
L 203.335585 291.043709 
L 203.335585 290.517023 
L 203.971653 290.517023 
L 203.971653 289.990337 
L 204.561687 289.990337 
L 204.561687 289.463651 
L 207.815515 289.463651 
L 207.815515 288.936964 
L 208.327352 288.936964 
L 208.327352 288.410278 
L 208.685343 288.410278 
L 208.685343 287.883592 
L 210.429521 287.883592 
L 210.429521 287.356906 
L 211.934164 287.356906 
L 211.934164 286.83022 
L 212.189387 286.83022 
L 212.290146 285.776848 
L 214.249845 285.776848 
L 214.249845 285.250162 
L 214.609645 285.250162 
L 214.609645 284.723476 
L 214.883789 284.723476 
L 214.883789 284.19679 
L 215.051502 284.19679 
L 215.051502 283.670104 
L 216.865137 283.670104 
L 216.865137 283.143418 
L 217.220029 283.143418 
L 217.220029 282.616732 
L 217.485085 282.616732 
L 217.485085 282.090045 
L 222.121825 282.090045 
L 222.121825 281.563359 
L 223.326963 281.563359 
L 223.368557 279.456615 
L 225.829877 279.456615 
L 225.829877 278.403243 
L 225.98655 278.403243 
L 225.98655 277.876557 
L 226.346811 277.876557 
L 226.346811 277.349871 
L 227.553075 277.349871 
L 227.553075 276.823185 
L 228.436601 276.823185 
L 228.436601 276.296499 
L 228.597019 276.296499 
L 228.597019 275.769812 
L 229.816051 275.769812 
L 229.816051 275.243126 
L 229.945277 275.243126 
L 229.945277 274.71644 
L 231.763553 274.71644 
L 231.763553 274.189754 
L 234.742232 274.189754 
L 234.742232 273.663068 
L 236.791669 273.663068 
L 236.791669 272.609696 
L 238.798489 272.609696 
L 238.798489 272.08301 
L 240.030691 272.08301 
L 240.030691 271.556324 
L 240.528569 271.556324 
L 240.528569 270.502952 
L 240.751352 270.502952 
L 240.751352 269.976266 
L 241.073788 269.976266 
L 241.073788 269.449579 
L 242.21643 269.449579 
L 242.21643 268.922893 
L 244.421954 268.922893 
L 244.421954 268.396207 
L 244.984752 268.396207 
L 244.984752 267.342835 
L 246.02615 267.342835 
L 246.02615 266.816149 
L 247.348374 266.816149 
L 247.348374 266.289463 
L 248.245147 266.289463 
L 248.261414 265.236091 
L 249.249817 265.236091 
L 249.249817 264.709405 
L 250.65216 264.709405 
L 250.65216 264.182719 
L 250.843981 264.182719 
L 250.843981 263.656033 
L 254.073018 263.656033 
L 254.073018 263.129347 
L 254.321767 263.129347 
L 254.321767 262.075974 
L 259.740138 262.075974 
L 259.740138 261.549288 
L 259.920228 261.549288 
L 259.920228 261.022602 
L 261.025004 261.022602 
L 261.025004 260.495916 
L 262.462371 260.495916 
L 262.462371 259.442544 
L 263.737762 259.442544 
L 263.737762 258.915858 
L 265.024111 258.915858 
L 265.024111 258.389172 
L 265.400011 258.389172 
L 265.400011 257.862486 
L 266.491905 257.862486 
L 266.491905 257.3358 
L 270.301237 257.3358 
L 270.301237 256.809114 
L 271.978341 256.809114 
L 271.978341 256.282427 
L 274.79719 256.282427 
L 274.79719 255.755741 
L 275.464429 255.755741 
L 275.464429 255.229055 
L 277.427059 255.229055 
L 277.427059 254.702369 
L 278.06583 254.702369 
L 278.06583 254.175683 
L 278.620823 254.175683 
L 278.620823 253.648997 
L 279.680477 253.648997 
L 279.680477 253.122311 
L 288.047304 253.122311 
L 288.047304 252.595625 
L 294.157706 252.595625 
L 294.157706 252.068939 
L 300.165028 252.068939 
L 300.165028 251.542253 
L 338.688 251.542253 
L 338.688 251.542253 
" style="fill:none;stroke:#0000ff;stroke-linecap:square;stroke-width:1.5;"/>
   </g>
   <g id="line2d_41">
    <defs>
     <path d="M 0 -6 
L -1.347084 -1.854102 
L -5.706339 -1.854102 
L -2.179628 0.708204 
L -3.526712 4.854102 
L -0 2.291796 
L 3.526712 4.854102 
L 2.179628 0.708204 
L 5.706339 -1.854102 
L 1.347084 -1.854102 
z
" id="m8e922f5f01" style="stroke:#0000ff;stroke-linejoin:bevel;stroke-width:1.5;"/>
    </defs>
    <g>
     <use style="fill-opacity:0;stroke:#0000ff;stroke-linejoin:bevel;stroke-width:1.5;" x="254.321767" xlink:href="#m8e922f5f01" y="263.129347"/>
     <use style="fill-opacity:0;stroke:#0000ff;stroke-linejoin:bevel;stroke-width:1.5;" x="300.165028" xlink:href="#m8e922f5f01" y="251.542253"/>
     <use style="fill-opacity:0;stroke:#0000ff;stroke-linejoin:bevel;stroke-width:1.5;" x="300.165028" xlink:href="#m8e922f5f01" y="251.542253"/>
     <use style="fill-opacity:0;stroke:#0000ff;stroke-linejoin:bevel;stroke-width:1.5;" x="338.688" xlink:href="#m8e922f5f01" y="251.542253"/>
    </g>
   </g>
   <g id="line2d_42">
    <path style="fill:none;stroke:#0000ff;stroke-linecap:square;stroke-width:1.5;"/>
    <g/>
   </g>
   <g id="line2d_43">
    <path clip-path="url(#p6ef82a4542)" d="M 218.221714 282.090045 
" style="fill:none;stroke:#0000ff;stroke-linecap:square;stroke-width:1.5;"/>
    <defs>
     <path d="M -12 12 
L 12 -12 
M -12 -12 
L 12 12 
" id="ma4d78daeb5" style="stroke:#0000ff;"/>
    </defs>
    <g clip-path="url(#p6ef82a4542)">
     <use style="fill:#0000ff;stroke:#0000ff;" x="218.221714" xlink:href="#ma4d78daeb5" y="282.090045"/>
    </g>
   </g>
   <g id="line2d_44">
    <path clip-path="url(#p6ef82a4542)" d="M 57.6 298.944 
L 57.6 298.944 
L 57.6 298.944 
L 57.6 298.944 
L 338.688 298.944 
" style="fill:none;stroke:#000000;stroke-linecap:square;stroke-width:1.5;"/>
   </g>
   <g id="line2d_45">
    <defs>
     <path d="M 0 6 
C 1.591219 6 3.117479 5.367802 4.242641 4.242641 
C 5.367802 3.117479 6 1.591219 6 0 
C 6 -1.591219 5.367802 -3.117479 4.242641 -4.242641 
C 3.117479 -5.367802 1.591219 -6 0 -6 
C -1.591219 -6 -3.117479 -5.367802 -4.242641 -4.242641 
C -5.367802 -3.117479 -6 -1.591219 -6 0 
C -6 1.591219 -5.367802 3.117479 -4.242641 4.242641 
C -3.117479 5.367802 -1.591219 6 0 6 
z
" id="mae1589b7ca" style="stroke:#000000;stroke-width:1.5;"/>
    </defs>
    <g clip-path="url(#p6ef82a4542)">
     <use style="fill-opacity:0;stroke:#000000;stroke-width:1.5;" x="57.6" xlink:href="#mae1589b7ca" y="298.944"/>
    </g>
   </g>
   <g id="line2d_46">
    <path clip-path="url(#p6ef82a4542)" style="fill:none;stroke:#000000;stroke-linecap:square;stroke-width:1.5;"/>
    <g clip-path="url(#p6ef82a4542)">
     <use style="fill-opacity:0;stroke:#000000;stroke-width:1.5;" x="-1" xlink:href="#mae1589b7ca" y="567.553901"/>
     <use style="fill-opacity:0;stroke:#000000;stroke-width:1.5;" x="338.688" xlink:href="#mae1589b7ca" y="567.553901"/>
    </g>
   </g>
   <g id="line2d_47">
    <path clip-path="url(#p6ef82a4542)" d="M 57.6 298.944 
L 57.6 298.944 
L 57.6 298.944 
L 57.6 298.944 
L 338.688 298.944 
" style="fill:none;stroke:#ff0000;stroke-linecap:square;stroke-width:1.5;"/>
   </g>
   <g id="line2d_48">
    <defs>
     <path d="M -6 6 
L 6 6 
L 6 -6 
L -6 -6 
z
" id="maef916d18e" style="stroke:#ff0000;stroke-linejoin:miter;stroke-width:1.5;"/>
    </defs>
    <g clip-path="url(#p6ef82a4542)">
     <use style="fill-opacity:0;stroke:#ff0000;stroke-linejoin:miter;stroke-width:1.5;" x="57.6" xlink:href="#maef916d18e" y="298.944"/>
    </g>
   </g>
   <g id="line2d_49">
    <path clip-path="url(#p6ef82a4542)" style="fill:none;stroke:#ff0000;stroke-linecap:square;stroke-width:1.5;"/>
    <g clip-path="url(#p6ef82a4542)">
     <use style="fill-opacity:0;stroke:#ff0000;stroke-linejoin:miter;stroke-width:1.5;" x="-1" xlink:href="#maef916d18e" y="567.553901"/>
     <use style="fill-opacity:0;stroke:#ff0000;stroke-linejoin:miter;stroke-width:1.5;" x="338.688" xlink:href="#maef916d18e" y="567.553901"/>
    </g>
   </g>
   <g id="line2d_50">
    <path clip-path="url(#p6ef82a4542)" d="M 57.6 298.944 
L 57.6 298.944 
L 57.6 298.944 
L 57.6 298.944 
L 338.688 298.944 
" style="fill:none;stroke:#bf00bf;stroke-linecap:square;stroke-width:1.5;"/>
   </g>
   <g id="line2d_51">
    <defs>
     <path d="M 0 8.485281 
L 8.485281 0 
L 0 -8.485281 
L -8.485281 0 
z
" id="m3dc25aaf14" style="stroke:#bf00bf;stroke-linejoin:miter;stroke-width:1.5;"/>
    </defs>
    <g clip-path="url(#p6ef82a4542)">
     <use style="fill-opacity:0;stroke:#bf00bf;stroke-linejoin:miter;stroke-width:1.5;" x="57.6" xlink:href="#m3dc25aaf14" y="298.944"/>
    </g>
   </g>
   <g id="line2d_52">
    <path clip-path="url(#p6ef82a4542)" style="fill:none;stroke:#bf00bf;stroke-linecap:square;stroke-width:1.5;"/>
    <g clip-path="url(#p6ef82a4542)">
     <use style="fill-opacity:0;stroke:#bf00bf;stroke-linejoin:miter;stroke-width:1.5;" x="-1" xlink:href="#m3dc25aaf14" y="567.553901"/>
     <use style="fill-opacity:0;stroke:#bf00bf;stroke-linejoin:miter;stroke-width:1.5;" x="338.688" xlink:href="#m3dc25aaf14" y="567.553901"/>
    </g>
   </g>
   <g id="line2d_53">
    <path d="M 338.688 298.944 
L 369.60768 293.571802 
" style="fill:none;stroke:#bf00bf;stroke-linecap:square;stroke-width:1.5;"/>
    <g>
     <use style="fill-opacity:0;stroke:#bf00bf;stroke-linejoin:miter;stroke-width:1.5;" x="338.688" xlink:href="#m3dc25aaf14" y="298.944"/>
     <use style="fill-opacity:0;stroke:#bf00bf;stroke-linejoin:miter;stroke-width:1.5;" x="369.60768" xlink:href="#m3dc25aaf14" y="293.571802"/>
    </g>
   </g>
   <g id="line2d_54">
    <path d="M 338.688 298.944 
L 369.60768 241.998701 
" style="fill:none;stroke:#ff0000;stroke-linecap:square;stroke-width:1.5;"/>
    <g>
     <use style="fill-opacity:0;stroke:#ff0000;stroke-linejoin:miter;stroke-width:1.5;" x="338.688" xlink:href="#maef916d18e" y="298.944"/>
     <use style="fill-opacity:0;stroke:#ff0000;stroke-linejoin:miter;stroke-width:1.5;" x="369.60768" xlink:href="#maef916d18e" y="241.998701"/>
    </g>
   </g>
   <g id="line2d_55">
    <path d="M 338.688 298.944 
L 369.60768 190.4256 
" style="fill:none;stroke:#000000;stroke-linecap:square;stroke-width:1.5;"/>
    <g>
     <use style="fill-opacity:0;stroke:#000000;stroke-width:1.5;" x="338.688" xlink:href="#mae1589b7ca" y="298.944"/>
     <use style="fill-opacity:0;stroke:#000000;stroke-width:1.5;" x="369.60768" xlink:href="#mae1589b7ca" y="190.4256"/>
    </g>
   </g>
   <g id="line2d_56">
    <path d="M 338.688 251.542253 
L 369.60768 138.852499 
" style="fill:none;stroke:#0000ff;stroke-linecap:square;stroke-width:1.5;"/>
    <g>
     <use style="fill-opacity:0;stroke:#0000ff;stroke-linejoin:bevel;stroke-width:1.5;" x="338.688" xlink:href="#m8e922f5f01" y="251.542253"/>
     <use style="fill-opacity:0;stroke:#0000ff;stroke-linejoin:bevel;stroke-width:1.5;" x="369.60768" xlink:href="#m8e922f5f01" y="138.852499"/>
    </g>
   </g>
   <g id="line2d_57">
    <path d="M 338.688 156.738758 
L 369.60768 87.279398 
" style="fill:none;stroke:#008000;stroke-linecap:square;stroke-width:1.5;"/>
    <g>
     <use style="fill-opacity:0;stroke:#008000;stroke-linejoin:miter;stroke-width:1.5;" x="338.688" xlink:href="#m5682cd9ae0" y="156.738758"/>
     <use style="fill-opacity:0;stroke:#008000;stroke-linejoin:miter;stroke-width:1.5;" x="369.60768" xlink:href="#m5682cd9ae0" y="87.279398"/>
    </g>
   </g>
   <g id="line2d_58">
    <path d="M 338.688 30.334099 
L 369.60768 35.706297 
" style="fill:none;stroke:#00bfbf;stroke-linecap:square;stroke-width:1.5;"/>
    <g>
     <use style="fill-opacity:0;stroke:#00bfbf;stroke-width:1.5;" x="338.688" xlink:href="#ma355ecb4c7" y="30.334099"/>
     <use style="fill-opacity:0;stroke:#00bfbf;stroke-width:1.5;" x="369.60768" xlink:href="#ma355ecb4c7" y="35.706297"/>
    </g>
   </g>
   <g id="line2d_59">
    <path d="M 338.688 298.944 
L 338.688 30.334099 
" style="fill:none;stroke:#000000;stroke-linecap:square;stroke-width:1.5;"/>
   </g>
   <g id="patch_3">
    <path d="M 57.6 298.944 
L 57.6 27.648 
" style="fill:none;stroke:#000000;stroke-linecap:square;stroke-linejoin:miter;stroke-width:0.8;"/>
   </g>
   <g id="patch_4">
    <path d="M 338.688 298.944 
L 338.688 27.648 
" style="fill:none;stroke:#000000;stroke-linecap:square;stroke-linejoin:miter;stroke-width:0.8;"/>
   </g>
   <g id="patch_5">
    <path d="M 57.6 298.944 
L 338.688 298.944 
" style="fill:none;stroke:#000000;stroke-linecap:square;stroke-linejoin:miter;stroke-width:0.8;"/>
   </g>
   <g id="patch_6">
    <path d="M 57.6 27.648 
L 338.688 27.648 
" style="fill:none;stroke:#000000;stroke-linecap:square;stroke-linejoin:miter;stroke-width:0.8;"/>
   </g>
   <g id="text_13">
    <!-- 40-D -->
    <g transform="translate(375.22944 298.262739)scale(0.17 -0.17)">
     <defs>
      <path d="M 1259 4147 
L 1259 519 
L 2022 519 
Q 2988 519 3436 956 
Q 3884 1394 3884 2338 
Q 3884 3275 3436 3711 
Q 2988 4147 2022 4147 
L 1259 4147 
z
M 628 4666 
L 1925 4666 
Q 3281 4666 3915 4102 
Q 4550 3538 4550 2338 
Q 4550 1131 3912 565 
Q 3275 0 1925 0 
L 628 0 
L 628 4666 
z
" id="DejaVuSans-44" transform="scale(0.015625)"/>
     </defs>
     <use xlink:href="#DejaVuSans-34"/>
     <use x="63.623047" xlink:href="#DejaVuSans-30"/>
     <use x="127.246094" xlink:href="#DejaVuSans-2d"/>
     <use x="163.330078" xlink:href="#DejaVuSans-44"/>
    </g>
   </g>
   <g id="text_14">
    <!-- 20-D -->
    <g transform="translate(375.22944 246.689638)scale(0.17 -0.17)">
     <use xlink:href="#DejaVuSans-32"/>
     <use x="63.623047" xlink:href="#DejaVuSans-30"/>
     <use x="127.246094" xlink:href="#DejaVuSans-2d"/>
     <use x="163.330078" xlink:href="#DejaVuSans-44"/>
    </g>
   </g>
   <g id="text_15">
    <!-- 10-D -->
    <g transform="translate(375.22944 195.116537)scale(0.17 -0.17)">
     <use xlink:href="#DejaVuSans-31"/>
     <use x="63.623047" xlink:href="#DejaVuSans-30"/>
     <use x="127.246094" xlink:href="#DejaVuSans-2d"/>
     <use x="163.330078" xlink:href="#DejaVuSans-44"/>
    </g>
   </g>
   <g id="text_16">
    <!-- 5-D -->
    <g transform="translate(375.22944 143.543437)scale(0.17 -0.17)">
     <defs>
      <path d="M 691 4666 
L 3169 4666 
L 3169 4134 
L 1269 4134 
L 1269 2991 
Q 1406 3038 1543 3061 
Q 1681 3084 1819 3084 
Q 2600 3084 3056 2656 
Q 3513 2228 3513 1497 
Q 3513 744 3044 326 
Q 2575 -91 1722 -91 
Q 1428 -91 1123 -41 
Q 819 9 494 109 
L 494 744 
Q 775 591 1075 516 
Q 1375 441 1709 441 
Q 2250 441 2565 725 
Q 2881 1009 2881 1497 
Q 2881 1984 2565 2268 
Q 2250 2553 1709 2553 
Q 1456 2553 1204 2497 
Q 953 2441 691 2322 
L 691 4666 
z
" id="DejaVuSans-35" transform="scale(0.015625)"/>
     </defs>
     <use xlink:href="#DejaVuSans-35"/>
     <use x="63.623047" xlink:href="#DejaVuSans-2d"/>
     <use x="99.707031" xlink:href="#DejaVuSans-44"/>
    </g>
   </g>
   <g id="text_17">
    <!-- 3-D -->
    <g transform="translate(375.22944 91.970336)scale(0.17 -0.17)">
     <defs>
      <path d="M 2597 2516 
Q 3050 2419 3304 2112 
Q 3559 1806 3559 1356 
Q 3559 666 3084 287 
Q 2609 -91 1734 -91 
Q 1441 -91 1130 -33 
Q 819 25 488 141 
L 488 750 
Q 750 597 1062 519 
Q 1375 441 1716 441 
Q 2309 441 2620 675 
Q 2931 909 2931 1356 
Q 2931 1769 2642 2001 
Q 2353 2234 1838 2234 
L 1294 2234 
L 1294 2753 
L 1863 2753 
Q 2328 2753 2575 2939 
Q 2822 3125 2822 3475 
Q 2822 3834 2567 4026 
Q 2313 4219 1838 4219 
Q 1578 4219 1281 4162 
Q 984 4106 628 3988 
L 628 4550 
Q 988 4650 1302 4700 
Q 1616 4750 1894 4750 
Q 2613 4750 3031 4423 
Q 3450 4097 3450 3541 
Q 3450 3153 3228 2886 
Q 3006 2619 2597 2516 
z
" id="DejaVuSans-33" transform="scale(0.015625)"/>
     </defs>
     <use xlink:href="#DejaVuSans-33"/>
     <use x="63.623047" xlink:href="#DejaVuSans-2d"/>
     <use x="99.707031" xlink:href="#DejaVuSans-44"/>
    </g>
   </g>
   <g id="text_18">
    <!-- 2-D -->
    <g transform="translate(375.22944 40.397235)scale(0.17 -0.17)">
     <use xlink:href="#DejaVuSans-32"/>
     <use x="63.623047" xlink:href="#DejaVuSans-2d"/>
     <use x="99.707031" xlink:href="#DejaVuSans-44"/>
    </g>
   </g>
   <g id="text_19">
    <!-- bbob f10 -->
    <g transform="translate(60.41088 38.111366)scale(0.102 -0.102)">
     <defs>
      <path d="M 3116 1747 
Q 3116 2381 2855 2742 
Q 2594 3103 2138 3103 
Q 1681 3103 1420 2742 
Q 1159 2381 1159 1747 
Q 1159 1113 1420 752 
Q 1681 391 2138 391 
Q 2594 391 2855 752 
Q 3116 1113 3116 1747 
z
M 1159 2969 
Q 1341 3281 1617 3432 
Q 1894 3584 2278 3584 
Q 2916 3584 3314 3078 
Q 3713 2572 3713 1747 
Q 3713 922 3314 415 
Q 2916 -91 2278 -91 
Q 1894 -91 1617 61 
Q 1341 213 1159 525 
L 1159 0 
L 581 0 
L 581 4863 
L 1159 4863 
L 1159 2969 
z
" id="DejaVuSans-62" transform="scale(0.015625)"/>
     </defs>
     <use xlink:href="#DejaVuSans-62"/>
     <use x="63.476562" xlink:href="#DejaVuSans-62"/>
     <use x="126.953125" xlink:href="#DejaVuSans-6f"/>
     <use x="188.134766" xlink:href="#DejaVuSans-62"/>
     <use x="251.611328" xlink:href="#DejaVuSans-20"/>
     <use x="283.398438" xlink:href="#DejaVuSans-66"/>
     <use x="318.603516" xlink:href="#DejaVuSans-31"/>
     <use x="382.226562" xlink:href="#DejaVuSans-30"/>
    </g>
    <!-- 51 targets: 100..1e-08 -->
    <g transform="translate(60.41088 49.533135)scale(0.102 -0.102)">
     <defs>
      <path d="M 750 794 
L 1409 794 
L 1409 0 
L 750 0 
L 750 794 
z
M 750 3309 
L 1409 3309 
L 1409 2516 
L 750 2516 
L 750 3309 
z
" id="DejaVuSans-3a" transform="scale(0.015625)"/>
     </defs>
     <use xlink:href="#DejaVuSans-35"/>
     <use x="63.623047" xlink:href="#DejaVuSans-31"/>
     <use x="127.246094" xlink:href="#DejaVuSans-20"/>
     <use x="159.033203" xlink:href="#DejaVuSans-74"/>
     <use x="198.242188" xlink:href="#DejaVuSans-61"/>
     <use x="259.521484" xlink:href="#DejaVuSans-72"/>
     <use x="298.884766" xlink:href="#DejaVuSans-67"/>
     <use x="362.361328" xlink:href="#DejaVuSans-65"/>
     <use x="423.884766" xlink:href="#DejaVuSans-74"/>
     <use x="463.09375" xlink:href="#DejaVuSans-73"/>
     <use x="515.193359" xlink:href="#DejaVuSans-3a"/>
     <use x="548.884766" xlink:href="#DejaVuSans-20"/>
     <use x="580.671875" xlink:href="#DejaVuSans-31"/>
     <use x="644.294922" xlink:href="#DejaVuSans-30"/>
     <use x="707.917969" xlink:href="#DejaVuSans-30"/>
     <use x="771.541016" xlink:href="#DejaVuSans-2e"/>
     <use x="803.328125" xlink:href="#DejaVuSans-2e"/>
     <use x="835.115234" xlink:href="#DejaVuSans-31"/>
     <use x="898.738281" xlink:href="#DejaVuSans-65"/>
     <use x="960.261719" xlink:href="#DejaVuSans-2d"/>
     <use x="996.345703" xlink:href="#DejaVuSans-30"/>
     <use x="1059.96875" xlink:href="#DejaVuSans-38"/>
    </g>
    <!-- 15 instances -->
    <g transform="translate(60.41088 60.954904)scale(0.102 -0.102)">
     <use xlink:href="#DejaVuSans-31"/>
     <use x="63.623047" xlink:href="#DejaVuSans-35"/>
     <use x="127.246094" xlink:href="#DejaVuSans-20"/>
     <use x="159.033203" xlink:href="#DejaVuSans-69"/>
     <use x="186.816406" xlink:href="#DejaVuSans-6e"/>
     <use x="250.195312" xlink:href="#DejaVuSans-73"/>
     <use x="302.294922" xlink:href="#DejaVuSans-74"/>
     <use x="341.503906" xlink:href="#DejaVuSans-61"/>
     <use x="402.783203" xlink:href="#DejaVuSans-6e"/>
     <use x="466.162109" xlink:href="#DejaVuSans-63"/>
     <use x="521.142578" xlink:href="#DejaVuSans-65"/>
     <use x="582.666016" xlink:href="#DejaVuSans-73"/>
    </g>
   </g>
   <g id="text_20">
    <!-- v2.4 -->
    <g style="fill:#808080;" transform="translate(187.233062 294.151352)scale(0.1 -0.1)">
     <use xlink:href="#DejaVuSans-76"/>
     <use x="59.179688" xlink:href="#DejaVuSans-32"/>
     <use x="122.802734" xlink:href="#DejaVuSans-2e"/>
     <use x="154.589844" xlink:href="#DejaVuSans-34"/>
    </g>
   </g>
   <g id="text_21">
    <!-- 10 Ellipsoid -->
    <g transform="translate(140.784625 21.648)scale(0.2 -0.2)">
     <defs>
      <path d="M 628 4666 
L 3578 4666 
L 3578 4134 
L 1259 4134 
L 1259 2753 
L 3481 2753 
L 3481 2222 
L 1259 2222 
L 1259 531 
L 3634 531 
L 3634 0 
L 628 0 
L 628 4666 
z
" id="DejaVuSans-45" transform="scale(0.015625)"/>
     </defs>
     <use xlink:href="#DejaVuSans-31"/>
     <use x="63.623047" xlink:href="#DejaVuSans-30"/>
     <use x="127.246094" xlink:href="#DejaVuSans-20"/>
     <use x="159.033203" xlink:href="#DejaVuSans-45"/>
     <use x="222.216797" xlink:href="#DejaVuSans-6c"/>
     <use x="250" xlink:href="#DejaVuSans-6c"/>
     <use x="277.783203" xlink:href="#DejaVuSans-69"/>
     <use x="305.566406" xlink:href="#DejaVuSans-70"/>
     <use x="369.042969" xlink:href="#DejaVuSans-73"/>
     <use x="421.142578" xlink:href="#DejaVuSans-6f"/>
     <use x="482.324219" xlink:href="#DejaVuSans-69"/>
     <use x="510.107422" xlink:href="#DejaVuSans-64"/>
    </g>
   </g>
  </g>
 </g>
 <defs>
  <clipPath id="p6ef82a4542">
   <rect height="271.296" width="281.088" x="57.6" y="27.648"/>
  </clipPath>
 </defs>
</svg>
